<?xml version="1.0" encoding="UTF-8"?>
<svg width="618px" height="477px" viewBox="0 0 618 477" version="1.1" xmlns="http://www.w3.org/2000/svg" xmlns:xlink="http://www.w3.org/1999/xlink">
    <!-- Generator: Sketch 42 (36781) - http://www.bohemiancoding.com/sketch -->
    <title>AC2</title>
    <desc>Created with Sketch.</desc>
    <defs></defs>
    <g id="Page-1" stroke="none" stroke-width="1" fill="none" fill-rule="evenodd">
        <g id="WB0264-Chapter-4" transform="translate(-753.000000, -3783.000000)">
            <g id="AC2" transform="translate(753.000000, 3783.000000)">
                <path d="M129.48,255.11 L566.89,255.11 C569.281,255.11 571.22,257.049 571.22,259.44 L571.22,265.25 C571.22,267.641 569.281,269.58 566.89,269.58 L129.48,269.58 C127.089,269.58 125.15,267.641 125.15,265.25 L125.15,259.44 C125.15,257.049 127.089,255.11 129.48,255.11 Z" id="Shape" fill="#846A57"></path>
                <path d="M150.76,0.25 L545.62,0.25 C555.009,0.25 562.62,7.861 562.62,17.25 L562.62,229.67 C562.62,239.059 555.009,246.67 545.62,246.67 L150.76,246.67 C141.371,246.67 133.76,239.059 133.76,229.67 L133.76,17.25 C133.76,7.861 141.371,0.25 150.76,0.25 Z" id="Shape" fill="#F6E2D4"></path>
                <rect id="Rectangle-path" fill="#F0EFEF" x="460.58" y="52.44" width="64.6" height="87.94"></rect>
                <rect id="Rectangle-path" fill="#EE4256" x="466.29" y="60.21" width="53.18" height="6.53"></rect>
                <path d="M519.47,86.84 L466.29,86.84 L466.29,80.31 L519.47,80.31 L519.47,86.84 Z M519.47,89.55 L466.29,89.55 L466.29,96.08 L519.47,96.08 L519.47,89.55 Z M519.47,98.79 L466.29,98.79 L466.29,105.32 L519.47,105.32 L519.47,98.79 Z M519.47,108.03 L466.29,108.03 L466.29,114.56 L519.47,114.56 L519.47,108.03 Z" id="Shape" fill="#D6D6D8"></path>
                <rect id="Rectangle-path" fill="#F0EFEF" transform="translate(187.536936, 88.185190) rotate(-8.041784) translate(-187.536936, -88.185190) " x="155.235837" y="44.2136944" width="64.602198" height="87.9429921"></rect>
                <rect id="Rectangle-path" fill="#EE4256" transform="translate(182.928786, 55.575478) rotate(-8.041784) translate(-182.928786, -55.575478) " x="156.337881" y="52.3103669" width="53.1818094" height="6.53022218"></rect>
                <path d="M212.52,75 L159.86,82.44 L158.95,75.97 L211.61,68.53 L212.52,75 Z M212.9,77.68 L160.24,85.12 L161.15,91.59 L213.81,84.15 L212.9,77.68 Z M214.19,86.83 L161.53,94.27 L162.44,100.74 L215.1,93.3 L214.19,86.83 Z M215.48,95.98 L162.82,103.42 L163.73,109.89 L216.39,102.45 L215.48,95.98 Z" id="Shape" fill="#D6D6D8"></path>
                <rect id="Rectangle-path" fill="#F0EFEF" x="400.35" y="24.02" width="64.6" height="87.94"></rect>
                <rect id="Rectangle-path" fill="#668EC9" x="406.06" y="32.56" width="53.18" height="6.53"></rect>
                <rect id="Rectangle-path" fill="#F0EFEF" transform="translate(379.323985, 122.521911) rotate(-2.292442) translate(-379.323985, -122.521911) " x="346.997974" y="78.5168971" width="64.6520207" height="88.0100282"></rect>
                <rect id="Rectangle-path" fill="#FFC829" transform="translate(377.363483, 90.768417) rotate(-2.149088) translate(-377.363483, -90.768417) " x="350.498392" y="86.9534044" width="53.7301811" height="7.63002571"></rect>
                <rect id="Rectangle-path" fill="#D6D6D8" transform="translate(379.296230, 110.352521) rotate(-2.149088) translate(-379.296230, -110.352521) " x="352.431139" y="106.537508" width="53.7301811" height="7.63002571"></rect>
                <rect id="Rectangle-path" fill="#D6D6D8" transform="translate(379.777030, 123.465604) rotate(-2.149088) translate(-379.777030, -123.465604) " x="352.91194" y="119.650592" width="53.7301811" height="7.63002571"></rect>
                <path d="M459.24,53.24 L406.06,53.24 L406.06,46.71 L459.24,46.71 L459.24,53.24 Z M459.24,55.95 L406.06,55.95 L406.06,62.48 L459.24,62.48 L459.24,55.95 Z M459.24,65.19 L406.06,65.19 L406.06,71.72 L459.24,71.72 L459.24,65.19 Z M459.24,74.43 L406.06,74.43 L406.06,81 L459.24,81 L459.24,74.43 Z" id="Shape" fill="#D6D6D8"></path>
                <rect id="Rectangle-path" fill="#D1D9B8" x="438.18" y="145.04" width="27.93" height="27.93"></rect>
                <rect id="Rectangle-path" fill="#EFAFAD" transform="translate(492.881086, 178.986917) rotate(-76.350058) translate(-492.881086, -178.986917) " x="478.915449" y="165.02128" width="27.9312741" height="27.9312741"></rect>
                <rect id="Rectangle-path" fill="#EFAFAD" transform="translate(364.114258, 39.631987) rotate(-2.149088) translate(-364.114258, -39.631987) " x="350.149211" y="25.6669404" width="27.9300941" height="27.9300941"></rect>
                <rect id="Rectangle-path" fill="#D1D9B8" transform="translate(323.011942, 48.666388) rotate(-2.149088) translate(-323.011942, -48.666388) " x="309.046895" y="34.7013409" width="27.9300941" height="27.9300941"></rect>
                <g id="Layer1_2_MEMBER_0_FILL" transform="translate(558.000000, 228.000000)">
                    <path d="M20.14,15.38 C12.44,26.84 6.773,41.41 3.14,59.09 C-0.493,76.77 -0.967,92.347 1.72,105.82 C4.387,119.4 9.387,126.95 16.72,128.47 C24.053,129.99 31.623,125.02 39.43,113.56 C47.13,102.1 52.797,87.55 56.43,69.91 C60.063,52.27 60.537,36.657 57.85,23.07 C55.183,9.523 50.183,2.01 42.85,0.53 C35.45,-0.99 27.88,3.96 20.14,15.38 L20.14,15.38 Z M45.64,5.88 C47.257,7.771 48.603,9.878 49.64,12.14 C49.906,12.672 49.946,13.289 49.75,13.85 C49.544,14.431 49.111,14.904 48.55,15.16 C48.018,15.435 47.39,15.457 46.84,15.22 C46.259,15.048 45.781,14.632 45.53,14.08 C44.653,12.207 43.522,10.464 42.17,8.9 C41.35,7.944 41.46,6.505 42.415,5.685 C42.868,5.296 43.455,5.101 44.05,5.14 C44.641,5.172 45.195,5.439 45.59,5.88 L45.64,5.88 Z M52.08,19.08 C52.661,21.456 53.062,23.873 53.28,26.31 C53.352,26.907 53.166,27.507 52.77,27.96 C52.396,28.444 51.839,28.752 51.23,28.81 C50.632,28.883 50.032,28.698 49.58,28.3 C49.087,27.912 48.779,27.335 48.73,26.71 C48.534,24.503 48.173,22.313 47.65,20.16 C47.383,18.955 48.109,17.753 49.3,17.43 C49.894,17.276 50.525,17.358 51.06,17.66 C51.559,17.992 51.916,18.498 52.06,19.08 L52.08,19.08 Z M53.54,33.48 C53.507,35.627 53.393,37.96 53.2,40.48 C53.106,41.736 52.011,42.679 50.755,42.585 C49.499,42.491 48.556,41.396 48.65,40.14 C48.837,37.733 48.95,35.513 48.99,33.48 L48.99,33.42 C48.981,32.8 49.227,32.203 49.67,31.77 C50.091,31.35 50.666,31.122 51.26,31.14 C52.445,31.066 53.466,31.966 53.54,33.152 C53.546,33.241 53.546,33.331 53.54,33.42 L53.54,33.48 L53.54,33.48 Z M48.93,45.48 C49.39,45.096 49.984,44.913 50.58,44.97 C51.185,45.039 51.739,45.345 52.12,45.82 C52.511,46.276 52.696,46.873 52.63,47.47 C52.39,49.65 52.123,51.963 51.83,54.41 C51.755,54.997 51.449,55.53 50.98,55.89 C50.504,56.285 49.88,56.453 49.27,56.35 C48.052,56.184 47.192,55.071 47.34,53.85 C47.613,51.443 47.86,49.167 48.08,47.02 C48.142,46.412 48.449,45.856 48.93,45.48 L48.93,45.48 Z M50.93,61.48 C50.597,63.48 50.067,65.89 49.34,68.71 C49.182,69.295 48.792,69.79 48.26,70.08 C47.754,70.411 47.125,70.496 46.55,70.31 C45.968,70.196 45.466,69.83 45.18,69.31 C44.849,68.804 44.764,68.175 44.95,67.6 C45.617,64.933 46.11,62.677 46.43,60.83 C46.582,59.602 47.7,58.73 48.928,58.881 C48.949,58.884 48.97,58.886 48.99,58.89 C49.598,58.994 50.146,59.318 50.53,59.8 C50.874,60.299 51.017,60.91 50.93,61.51 L50.93,61.48 Z M44.1,72.89 C44.634,72.586 45.266,72.504 45.86,72.66 C46.429,72.854 46.899,73.263 47.17,73.8 C47.472,74.316 47.555,74.932 47.4,75.51 C46.993,76.843 46.557,78.227 46.09,79.66 L46.15,79.6 L45.3,82.27 C45.139,82.839 44.748,83.314 44.22,83.58 C43.683,83.882 43.044,83.943 42.46,83.75 C41.878,83.579 41.4,83.163 41.15,82.61 C40.839,82.095 40.776,81.467 40.98,80.9 L41.78,78.34 C41.769,78.321 41.769,78.299 41.78,78.28 C42.227,76.847 42.643,75.48 43.03,74.18 C43.188,73.61 43.581,73.134 44.11,72.87 L44.1,72.89 Z M41.78,85.87 C42.354,86.088 42.823,86.517 43.09,87.07 C43.331,87.611 43.353,88.224 43.15,88.78 C42.25,91.213 41.453,93.3 40.76,95.04 C40.562,95.612 40.124,96.069 39.56,96.29 C39.028,96.565 38.4,96.587 37.85,96.35 C37.278,96.152 36.821,95.714 36.6,95.15 C36.322,94.601 36.3,93.957 36.54,93.39 C37.207,91.677 37.983,89.627 38.87,87.24 C39.057,86.667 39.469,86.195 40.01,85.93 C40.568,85.69 41.197,85.668 41.77,85.87 L41.78,85.87 Z M35.17,98.11 C36.354,97.697 37.648,98.321 38.061,99.505 C38.064,99.513 38.067,99.522 38.07,99.53 C38.277,100.09 38.237,100.711 37.96,101.24 C36.84,103.527 35.777,105.593 34.77,107.44 C34.505,107.968 34.029,108.36 33.46,108.52 C32.876,108.714 32.236,108.653 31.7,108.35 C31.158,108.072 30.764,107.572 30.62,106.98 C30.425,106.412 30.487,105.788 30.79,105.27 C31.757,103.477 32.78,101.477 33.86,99.27 C34.127,98.731 34.599,98.32 35.17,98.13 L35.17,98.11 Z M26.4,112.7 C26.78,112.173 27.197,111.587 27.65,110.94 C27.959,110.419 28.476,110.055 29.07,109.94 C29.654,109.8 30.271,109.901 30.78,110.22 C31.298,110.559 31.659,111.093 31.78,111.7 C31.919,112.285 31.818,112.9 31.5,113.41 C31.007,114.123 30.55,114.77 30.13,115.35 L30.13,115.35 C29.273,116.544 28.341,117.683 27.34,118.76 C26.933,119.213 26.359,119.48 25.75,119.5 C24.482,119.534 23.419,118.547 23.36,117.28 C23.335,116.667 23.563,116.07 23.99,115.63 C24.864,114.713 25.682,113.745 26.44,112.73 L26.44,112.67 L26.4,112.7 Z M19.1,120.47 C19.517,120.044 20.095,119.815 20.69,119.84 C21.289,119.846 21.862,120.091 22.28,120.52 C23.132,121.441 23.106,122.871 22.22,123.76 C21.473,124.427 20.677,125.093 19.83,125.76 C18.841,126.498 17.451,126.35 16.64,125.42 C16.247,124.967 16.078,124.361 16.18,123.77 C16.215,123.166 16.506,122.606 16.98,122.23 C17.707,121.683 18.4,121.103 19.06,120.49 L19.1,120.47 Z" id="Shape" fill="#FFD982"></path>
                    <path d="M16.15,123.85 C16.048,124.441 16.217,125.047 16.61,125.5 C17.421,126.43 18.811,126.578 19.8,125.84 C20.647,125.173 21.443,124.507 22.19,123.84 C23.101,122.971 23.136,121.528 22.267,120.617 C21.845,120.174 21.262,119.919 20.65,119.91 C20.055,119.885 19.477,120.114 19.06,120.54 C18.393,121.147 17.69,121.753 16.95,122.36 C16.476,122.736 16.185,123.296 16.15,123.9 L16.15,123.85 Z M26.39,112.8 C25.632,113.815 24.814,114.783 23.94,115.7 C23.513,116.14 23.285,116.737 23.31,117.35 C23.369,118.617 24.432,119.604 25.7,119.57 C26.309,119.55 26.883,119.283 27.29,118.83 C28.291,117.753 29.222,116.614 30.08,115.42 L30.08,115.42 C30.493,114.847 30.95,114.2 31.45,113.48 C31.768,112.97 31.869,112.355 31.73,111.77 C31.609,111.163 31.248,110.629 30.73,110.29 C30.221,109.971 29.604,109.87 29.02,110.01 C28.426,110.125 27.909,110.489 27.6,111.01 C27.147,111.677 26.73,112.263 26.35,112.77 L26.35,112.83 L26.39,112.8 Z M34,99.21 C32.92,101.437 31.897,103.437 30.93,105.21 C30.627,105.728 30.565,106.352 30.76,106.92 C30.904,107.512 31.298,108.012 31.84,108.29 C32.376,108.593 33.016,108.655 33.6,108.46 C34.169,108.3 34.645,107.908 34.91,107.38 C35.917,105.533 36.98,103.467 38.1,101.18 C38.377,100.651 38.417,100.03 38.21,99.47 C37.796,98.275 36.492,97.641 35.297,98.055 C34.733,98.25 34.268,98.657 34,99.19 L34,99.21 Z M40.15,85.87 C39.601,86.137 39.185,86.618 39,87.2 C38.107,89.587 37.33,91.637 36.67,93.35 C36.43,93.917 36.452,94.561 36.73,95.11 C36.951,95.674 37.408,96.112 37.98,96.31 C38.53,96.547 39.158,96.525 39.69,96.25 C40.254,96.029 40.692,95.572 40.89,95 C41.557,93.26 42.353,91.173 43.28,88.74 C43.483,88.184 43.461,87.571 43.22,87.03 C42.673,85.882 41.313,85.377 40.15,85.89 L40.15,85.87 Z M43.15,74.11 C42.763,75.443 42.347,76.81 41.9,78.21 C41.889,78.229 41.889,78.251 41.9,78.27 L41.1,80.83 C40.896,81.397 40.959,82.025 41.27,82.54 C41.52,83.093 41.998,83.509 42.58,83.68 C43.164,83.873 43.803,83.812 44.34,83.51 C44.868,83.244 45.259,82.769 45.42,82.2 L46.27,79.53 L46.21,79.59 C46.677,78.137 47.113,76.753 47.52,75.44 C47.675,74.862 47.592,74.246 47.29,73.73 C47.019,73.193 46.549,72.784 45.98,72.59 C45.386,72.434 44.754,72.516 44.22,72.82 C43.691,73.084 43.298,73.56 43.14,74.13 L43.15,74.11 Z M50.65,59.73 C50.266,59.248 49.718,58.924 49.11,58.82 C47.887,58.634 46.745,59.475 46.559,60.698 C46.556,60.719 46.553,60.74 46.55,60.76 C46.237,62.633 45.743,64.89 45.07,67.53 C44.884,68.105 44.969,68.734 45.3,69.24 C45.586,69.76 46.088,70.126 46.67,70.24 C47.245,70.426 47.874,70.341 48.38,70.01 C48.912,69.72 49.302,69.225 49.46,68.64 C50.187,65.82 50.717,63.41 51.05,61.41 C51.136,60.81 50.994,60.199 50.65,59.7 L50.65,59.73 Z M48.14,47 C47.92,49.147 47.673,51.423 47.4,53.83 C47.252,55.051 48.112,56.164 49.33,56.33 C49.94,56.433 50.564,56.265 51.04,55.87 C51.509,55.51 51.815,54.977 51.89,54.39 C52.183,51.943 52.45,49.63 52.69,47.45 C52.756,46.853 52.571,46.256 52.18,45.8 C51.799,45.325 51.245,45.019 50.64,44.95 C49.41,44.853 48.316,45.728 48.14,46.95 L48.14,47 Z M53.6,33.4 C53.674,32.215 52.773,31.194 51.588,31.12 C51.499,31.114 51.409,31.114 51.32,31.12 C50.726,31.102 50.151,31.33 49.73,31.75 C49.287,32.183 49.041,32.78 49.05,33.4 L49.05,33.46 C49.01,35.493 48.897,37.713 48.71,40.12 C48.616,41.376 49.559,42.471 50.815,42.565 C52.071,42.659 53.166,41.716 53.26,40.46 L53.26,40.46 C53.453,37.94 53.567,35.607 53.6,33.46 L53.6,33.4 L53.6,33.4 Z M51.1,17.64 C50.565,17.338 49.934,17.256 49.34,17.41 C48.149,17.733 47.423,18.935 47.69,20.14 C48.213,22.293 48.574,24.483 48.77,26.69 C48.819,27.315 49.127,27.892 49.62,28.28 C50.072,28.678 50.672,28.863 51.27,28.79 C51.879,28.732 52.436,28.424 52.81,27.94 C53.206,27.487 53.392,26.887 53.32,26.29 C53.102,23.853 52.701,21.436 52.12,19.06 C51.976,18.478 51.619,17.972 51.12,17.64 L51.1,17.64 Z M42.47,5.64 C41.529,6.409 41.39,7.795 42.158,8.736 C42.184,8.768 42.212,8.8 42.24,8.83 C43.592,10.394 44.723,12.137 45.6,14.01 C45.851,14.562 46.329,14.978 46.91,15.15 C47.46,15.387 48.088,15.365 48.62,15.09 C49.181,14.834 49.614,14.361 49.82,13.78 C50.016,13.219 49.976,12.602 49.71,12.07 C48.673,9.808 47.327,7.701 45.71,5.81 C45.315,5.369 44.761,5.102 44.17,5.07 C43.531,5.013 42.901,5.244 42.45,5.7 L42.47,5.64 Z" id="Shape" fill="#FFFFFF"></path>
                </g>
                <g id="Layer1_2_MEMBER_1_FILL" transform="translate(574.000000, 348.000000)" fill="#FFD982">
                    <path d="M6,0.54 C3.201,0.473 0.877,2.688 0.81,5.487 C0.808,5.568 0.808,5.649 0.81,5.73 L0.81,99.1 C0.78,100.471 1.315,101.795 2.29,102.76 C3.259,103.766 4.604,104.32 6,104.29 C8.857,104.268 11.168,101.957 11.19,99.1 L11.19,5.73 C11.22,4.334 10.666,2.989 9.66,2.02 C8.695,1.046 7.371,0.51 6,0.54 Z" id="Shape"></path>
                </g>
                <g id="Layer1_2_MEMBER_2_FILL" transform="translate(544.000000, 334.000000)" fill="#FFD982">
                    <path d="M5.22,0.59 C2.421,0.523 0.097,2.738 0.03,5.537 C0.028,5.618 0.028,5.699 0.03,5.78 L0.03,99.16 C3.46944695e-18,100.531 0.535,101.855 1.51,102.82 C2.479,103.826 3.824,104.38 5.22,104.35 C8.077,104.328 10.388,102.017 10.41,99.16 L10.41,5.78 C10.44,4.384 9.886,3.039 8.88,2.07 C7.915,1.096 6.591,0.56 5.22,0.59 Z" id="Shape"></path>
                </g>
                <g id="Layer1_2_MEMBER_3_FILL" transform="translate(508.000000, 351.000000)" fill="#FFD982">
                    <path d="M5.77,0.38 C2.971,0.313 0.647,2.528 0.58,5.327 C0.578,5.408 0.578,5.489 0.58,5.57 L0.58,98.95 C0.55,100.321 1.085,101.645 2.06,102.61 C3.029,103.616 4.374,104.17 5.77,104.14 C8.627,104.118 10.938,101.807 10.96,98.95 L10.96,5.57 C10.99,4.174 10.436,2.829 9.43,1.86 C8.465,0.886 7.141,0.35 5.77,0.38 Z" id="Shape"></path>
                </g>
                <g id="Layer1_2_MEMBER_4_FILL" transform="translate(478.000000, 337.000000)" fill="#FFD982">
                    <path d="M5.32,0.44 C2.521,0.373 0.197,2.588 0.13,5.387 C0.128,5.468 0.128,5.549 0.13,5.63 L0.13,99 C0.1,100.371 0.635,101.695 1.61,102.66 C2.579,103.666 3.924,104.22 5.32,104.19 C8.177,104.168 10.488,101.857 10.51,99 L10.51,5.63 C10.54,4.234 9.986,2.889 8.98,1.92 C8.015,0.946 6.691,0.41 5.32,0.44 Z" id="Shape"></path>
                </g>
                <g id="Layer1_2_MEMBER_5_FILL" transform="translate(467.000000, 323.000000)">
                    <path d="M105.5,6.37 C93.553,2.123 79.117,0 62.19,0 C45.263,0 30.807,2.123 18.82,6.37 C6.867,10.617 0.89,15.74 0.89,21.74 C0.89,27.74 6.867,32.863 18.82,37.11 C30.773,41.357 45.23,43.48 62.19,43.48 C67.463,43.48 72.463,43.27 77.19,42.85 C86.826,42.143 96.333,40.211 105.48,37.1 C115.573,33.493 121.417,29.283 123.01,24.47 C123.272,23.584 123.407,22.664 123.41,21.74 C123.41,15.74 117.433,10.617 105.48,6.37 L105.5,6.37 Z M7.08,16.84 C8.847,18.173 10.667,19.407 12.54,20.54 C13.045,20.842 13.406,21.337 13.54,21.91 C13.688,22.51 13.587,23.145 13.26,23.67 C12.959,24.176 12.464,24.537 11.89,24.67 C11.29,24.818 10.655,24.717 10.13,24.39 C8.13,23.177 6.193,21.867 4.32,20.46 C3.829,20.092 3.52,19.531 3.47,18.92 C3.352,18.338 3.498,17.733 3.87,17.27 C4.243,16.775 4.796,16.447 5.41,16.36 C5.999,16.288 6.593,16.453 7.06,16.82 L7.08,16.84 Z M113,24.19 C113.593,24.358 114.1,24.744 114.42,25.27 C114.715,25.789 114.797,26.402 114.65,26.98 C114.492,27.565 114.102,28.06 113.57,28.35 C112.939,28.75 112.269,29.085 111.57,29.35 C111.003,29.59 110.359,29.568 109.81,29.29 C109.241,29.077 108.799,28.617 108.61,28.04 C108.373,27.49 108.395,26.862 108.67,26.33 C108.896,25.758 109.348,25.306 109.92,25.08 C110.397,24.917 110.856,24.706 111.29,24.45 C111.809,24.156 112.422,24.074 113,24.22 L113,24.19 Z M104.63,31.33 C102.63,31.757 100.373,32.173 97.86,32.58 C96.624,32.789 95.452,31.956 95.243,30.72 C95.242,30.713 95.241,30.707 95.24,30.7 C95.122,30.118 95.268,29.513 95.64,29.05 C95.974,28.527 96.51,28.165 97.12,28.05 C99.56,27.663 101.743,27.263 103.67,26.85 C104.255,26.714 104.869,26.814 105.38,27.13 C105.885,27.456 106.243,27.965 106.38,28.55 C106.522,29.134 106.421,29.751 106.1,30.26 C105.779,30.769 105.268,31.129 104.68,31.26 L104.63,31.33 Z M18.4,23.63 C20.4,24.583 22.45,25.457 24.55,26.25 C25.107,26.498 25.552,26.943 25.8,27.5 C26.042,28.04 26.064,28.654 25.86,29.21 C25.634,29.782 25.182,30.234 24.61,30.46 C24.078,30.735 23.45,30.757 22.9,30.52 C20.66,29.68 18.497,28.75 16.41,27.73 C15.85,27.49 15.431,27.007 15.27,26.42 C15.04,25.851 15.062,25.212 15.33,24.66 C15.597,24.12 16.068,23.709 16.64,23.52 C17.219,23.327 17.85,23.366 18.4,23.63 L18.4,23.63 Z M66.21,33.7 C66.275,34.949 65.345,36.029 64.1,36.15 C61.753,36.303 59.457,36.38 57.21,36.38 C55.962,36.354 54.956,35.348 54.93,34.1 C54.921,33.48 55.167,32.883 55.61,32.45 C56.031,32.03 56.606,31.802 57.2,31.82 C59.353,31.82 61.553,31.743 63.8,31.59 C64.404,31.551 64.999,31.757 65.45,32.16 C65.892,32.554 66.159,33.109 66.19,33.7 L66.21,33.7 Z M77.4,30.4 C77.993,30.375 78.57,30.592 79,31 C79.468,31.361 79.774,31.893 79.85,32.48 C79.911,33.095 79.728,33.709 79.34,34.19 C78.984,34.664 78.449,34.972 77.86,35.04 L71.14,35.72 C70.543,35.789 69.944,35.604 69.49,35.21 C69.002,34.84 68.693,34.28 68.64,33.67 C68.574,33.055 68.758,32.439 69.15,31.96 C69.536,31.498 70.09,31.21 70.69,31.16 L77.35,30.48 L77.4,30.4 Z M83.95,29.8 C86.277,29.553 88.477,29.287 90.55,29 C91.78,28.822 92.921,29.676 93.098,30.905 C93.103,30.936 93.106,30.968 93.11,31 C93.179,31.589 93.014,32.182 92.65,32.65 C92.282,33.141 91.721,33.45 91.11,33.5 C89.017,33.787 86.797,34.053 84.45,34.3 C83.84,34.398 83.218,34.231 82.74,33.84 C81.81,33.029 81.662,31.639 82.4,30.65 C82.778,30.171 83.333,29.865 83.94,29.8 L83.95,29.8 Z M30.73,28.43 C32.837,29.043 35,29.573 37.22,30.02 C37.827,30.141 38.361,30.502 38.7,31.02 C39.019,31.529 39.12,32.146 38.98,32.73 C38.715,33.944 37.53,34.725 36.31,34.49 C33.977,34.03 31.7,33.48 29.48,32.84 C28.888,32.697 28.387,32.302 28.11,31.76 C27.803,31.222 27.762,30.572 28,30 C28.142,29.407 28.537,28.906 29.08,28.63 C29.595,28.325 30.212,28.242 30.79,28.4 L30.73,28.43 Z M50.48,31.7 C51.716,31.741 52.685,32.777 52.644,34.014 C52.643,34.039 52.642,34.065 52.64,34.09 C52.625,34.686 52.356,35.246 51.9,35.63 C51.463,36.063 50.864,36.292 50.25,36.26 C47.87,36.14 45.537,35.913 43.25,35.58 C42.056,35.473 41.175,34.419 41.282,33.226 C41.288,33.157 41.298,33.088 41.31,33.02 C41.37,32.428 41.679,31.89 42.16,31.54 C42.646,31.166 43.262,31 43.87,31.08 C46.023,31.387 48.223,31.593 50.47,31.7 L50.48,31.7 Z" id="Shape" fill="#FFD982"></path>
                    <path d="M42.16,31.53 C41.679,31.88 41.37,32.418 41.31,33.01 C41.09,34.188 41.866,35.322 43.044,35.542 C43.112,35.555 43.181,35.564 43.25,35.57 C45.537,35.903 47.87,36.13 50.25,36.25 C50.864,36.282 51.464,36.053 51.9,35.62 C52.356,35.236 52.625,34.676 52.64,34.08 C52.724,32.846 51.791,31.777 50.556,31.694 C50.531,31.692 50.505,31.691 50.48,31.69 C48.233,31.583 46.033,31.373 43.88,31.06 C43.272,30.98 42.656,31.146 42.17,31.52 L42.16,31.53 Z M29.08,28.62 C28.534,28.899 28.139,29.403 28,30 C27.796,30.567 27.859,31.195 28.17,31.71 C28.447,32.252 28.948,32.647 29.54,32.79 C31.76,33.457 34.037,34.007 36.37,34.44 C37.59,34.675 38.775,33.894 39.04,32.68 C39.18,32.096 39.079,31.479 38.76,30.97 C38.421,30.452 37.888,30.091 37.28,29.97 C35.06,29.523 32.897,28.993 30.79,28.38 C30.212,28.222 29.595,28.305 29.08,28.61 L29.08,28.62 Z M82.46,30.61 C81.722,31.599 81.87,32.989 82.8,33.8 C83.278,34.191 83.9,34.358 84.51,34.26 C86.857,34.013 89.077,33.747 91.17,33.46 C91.781,33.41 92.342,33.101 92.71,32.61 C93.074,32.142 93.239,31.549 93.17,30.96 C93.045,29.724 91.941,28.823 90.705,28.948 C90.673,28.951 90.642,28.955 90.61,28.96 C88.53,29.247 86.33,29.513 84.01,29.76 C83.403,29.825 82.848,30.131 82.47,30.61 L82.46,30.61 Z M70.75,31.12 C70.15,31.17 69.596,31.458 69.21,31.92 C68.818,32.399 68.634,33.015 68.7,33.63 C68.753,34.24 69.062,34.8 69.55,35.17 C70.004,35.564 70.603,35.749 71.2,35.68 L77.92,35 C78.509,34.932 79.044,34.624 79.4,34.15 C79.788,33.669 79.971,33.055 79.91,32.44 C79.809,31.858 79.482,31.341 79,31 C78.543,30.611 77.947,30.427 77.35,30.49 L70.69,31.17 L70.75,31.12 Z M65.4,32.25 C64.949,31.847 64.354,31.641 63.75,31.68 C61.503,31.827 59.303,31.903 57.15,31.91 C56.556,31.892 55.981,32.12 55.56,32.54 C55.117,32.973 54.871,33.57 54.88,34.19 C54.906,35.438 55.912,36.444 57.16,36.47 C59.407,36.47 61.703,36.393 64.05,36.24 C65.295,36.119 66.225,35.039 66.16,33.79 C66.129,33.199 65.862,32.644 65.42,32.25 L65.4,32.25 Z M16.59,23.6 C16.018,23.789 15.547,24.2 15.28,24.74 C15.012,25.292 14.99,25.931 15.22,26.5 C15.381,27.087 15.8,27.57 16.36,27.81 C18.447,28.83 20.61,29.76 22.85,30.6 C23.4,30.837 24.028,30.815 24.56,30.54 C25.132,30.314 25.584,29.862 25.81,29.29 C26.014,28.734 25.992,28.12 25.75,27.58 C25.502,27.023 25.057,26.578 24.5,26.33 C22.38,25.543 20.33,24.67 18.35,23.71 C17.8,23.446 17.169,23.407 16.59,23.6 L16.59,23.6 Z M106.06,30.32 C106.381,29.811 106.482,29.194 106.34,28.61 C106.203,28.025 105.845,27.516 105.34,27.19 C104.829,26.874 104.215,26.774 103.63,26.91 C101.71,27.317 99.527,27.717 97.08,28.11 C96.47,28.225 95.934,28.587 95.6,29.11 C95.228,29.573 95.082,30.178 95.2,30.76 C95.398,31.998 96.562,32.841 97.8,32.643 C97.807,32.642 97.813,32.641 97.82,32.64 C100.347,32.233 102.603,31.817 104.59,31.39 C105.178,31.259 105.689,30.899 106.01,30.39 L106.06,30.32 Z M111.25,24.53 C110.816,24.786 110.357,24.997 109.88,25.16 C109.308,25.386 108.856,25.838 108.63,26.41 C108.355,26.942 108.333,27.57 108.57,28.12 C108.759,28.697 109.201,29.157 109.77,29.37 C110.319,29.648 110.963,29.67 111.53,29.43 C112.229,29.165 112.899,28.83 113.53,28.43 C114.062,28.14 114.452,27.645 114.61,27.06 C114.757,26.482 114.675,25.869 114.38,25.35 C114.06,24.824 113.553,24.438 112.96,24.27 C112.382,24.124 111.769,24.206 111.25,24.5 L111.25,24.53 Z M3.85,17.39 C3.478,17.853 3.332,18.458 3.45,19.04 C3.499,19.651 3.809,20.212 4.3,20.58 C6.173,21.987 8.11,23.297 10.11,24.51 C10.635,24.837 11.27,24.938 11.87,24.79 C12.444,24.657 12.939,24.296 13.24,23.79 C13.567,23.265 13.668,22.63 13.52,22.03 C13.386,21.457 13.025,20.962 12.52,20.66 C10.647,19.52 8.827,18.287 7.06,16.96 C6.593,16.593 5.999,16.428 5.41,16.5 C4.827,16.569 4.292,16.855 3.91,17.3 L3.85,17.39 Z" id="Shape" fill="#FFFFFF"></path>
                </g>
                <path d="M424.38,374.69 L424.38,374.69 C419.518,373.394 414.527,376.285 413.231,381.146 C413.231,381.147 413.23,381.148 413.23,381.15 L396.64,443.54 C395.344,448.402 398.235,453.393 403.096,454.689 C403.097,454.689 403.098,454.69 403.1,454.69 L403.1,454.69 C407.962,455.986 412.953,453.095 414.249,448.234 C414.249,448.233 414.25,448.232 414.25,448.23 L414.68,446.61 L430.84,385.85 C432.141,380.99 429.256,375.995 424.396,374.694 C424.39,374.693 424.385,374.691 424.38,374.69 Z" id="_Path_" fill="#A9AAAB"></path>
                <path d="M538.45,316.59 L533,311 C529.948,307.913 524.972,307.884 521.884,310.936 C521.883,310.937 521.881,310.939 521.88,310.94 L424.48,329.21 L398.3,429.61 L421.96,435.21 L442.82,349 L538.4,327.7 C541.48,324.645 541.502,319.673 538.45,316.59 Z" id="_Path_2" fill="#434444"></path>
                <path d="M471.16,384 L471.16,384 C466.201,383.162 461.501,386.501 460.66,391.46 L449.88,455.11 C449.042,460.069 452.381,464.769 457.34,465.61 L457.34,465.61 C462.299,466.448 466.999,463.109 467.84,458.15 L468.12,456.49 L478.62,394.49 C479.452,389.534 476.114,384.841 471.16,384 Z" id="_Path_3" fill="#A9AAAB"></path>
                <path d="M519.988,242.617 L521.552,247.197 C522.423,249.748 521.061,252.521 518.51,253.392 L474.788,268.319 C472.237,269.19 469.464,267.828 468.593,265.277 L467.029,260.697 C466.158,258.146 467.52,255.373 470.071,254.502 L513.793,239.575 C516.344,238.705 519.118,240.066 519.988,242.617 Z" id="_Rectangle_" fill="#F8AB8C"></path>
                <path d="M485.64,261.26 L481.39,263.15 C479.07,265.078 476.654,266.887 474.15,268.57 C471.053,270.39 467.532,271.366 463.94,271.4 C462.52,271.31 458.62,275.49 456.94,275.99 C454.06,276.83 451.6,274.85 453.33,273.15 C455.06,271.45 460.23,267.09 460.89,266.33 C461.55,265.57 451.56,267.89 451.56,267.89 C451.56,267.89 446.34,274.06 444.72,273.02 L443,272 L450.53,264.13 L460.13,261.86 L451.13,262.68 C451.13,262.68 445.28,270.04 443.29,269.49 L441.29,268.95 L449.72,259.72 L459.9,257.72 L450.1,258.72 C450.1,258.72 445.24,264.46 443.41,264.54 C441.58,264.62 441.2,263.74 441.2,263.74 L449.84,254.97 L472.94,254.56 L484.5,252 L485.64,261.26 Z" id="Shape" fill="#F6AB91"></path>
                <path d="M485.77,265.82 L480.44,248.47 L530.39,233.61 C534.27,232.42 538.61,235.34 540.09,240.13 L540.09,240.13 C541.56,244.92 539.61,249.77 535.72,250.97 L485.77,265.82 Z" id="_Path_4" fill="#434444"></path>
                <rect id="_Rectangle_2" fill="#E7E8EA" transform="translate(478.440787, 259.609401) rotate(-18.849853) translate(-478.440787, -259.609401) " x="472.035574" y="247.473997" width="12.8104264" height="24.2708078"></rect>
                <path d="M579.41,315.68 L573.41,310.68 C570.077,307.9 565.121,308.347 562.34,311.68 L467.03,338.83 L450.24,441.12 L474.32,444.52 L487.16,356.73 L580.38,326.73 C583.154,323.408 582.721,318.468 579.41,315.68 Z" id="_Path_5" fill="#434444"></path>
                <path d="M513.162,255.226 L509.934,254.849 C505.847,254.372 502.921,250.672 503.398,246.585 L510.444,186.245 C510.921,182.158 514.621,179.232 518.708,179.709 L521.936,180.086 C526.023,180.563 528.949,184.263 528.472,188.35 L521.426,248.69 C520.948,252.777 517.249,255.703 513.162,255.226 Z" id="_Rectangle_3" fill="#434444"></path>
                <path d="M416.19,447.55 L413.33,458.3 L360.2,444.17 L360.49,443.1 C361.008,441.159 362.771,439.811 364.78,439.82 L395,440 C396.397,439.985 397.774,440.33 399,441 C406,445 411.58,445.51 414.51,445.42 C415.443,445.393 416.221,446.128 416.248,447.061 C416.253,447.226 416.233,447.391 416.19,447.55 Z" id="_Path_6" fill="#A67D53"></path>
                <path d="M413.33,458.29 L413.33,458.37 C412.858,460.159 411.025,461.226 409.236,460.754 C409.231,460.753 409.225,460.751 409.22,460.75 L360.97,447.92 C360.068,447.681 359.53,446.756 359.769,445.854 C359.769,445.853 359.77,445.852 359.77,445.85 L360.22,444.16 L413.33,458.29 Z" id="_Path_7" fill="#4E4E4E"></path>
                <path d="M583.66,301.14 L516.56,301.68 L516.96,323.22 C517.015,329.584 522.216,334.7 528.58,334.65 L572.58,334.29 C578.944,334.235 584.06,329.034 584.01,322.67 L583.66,301.14 Z" id="_Path_8" fill="#434444"></path>
                <path d="M530.42,173.19 L571.64,173.19 C582.332,173.19 591,181.858 591,192.55 L591,316.45 L591,316.45 L510.32,316.45 L510.32,316.45 L510.32,193.29 C510.32,182.189 519.319,173.19 530.42,173.19 Z" id="_Rectangle_4" fill="#B2B3B4"></path>
                <polygon id="_Path_9" fill="#434444" points="567.51 173.19 569.93 181.21 563.33 187.79 566.11 192.99 537.08 233.81 525.61 192.88 529.21 187.53 526.87 181.21 531.92 173.19"></polygon>
                <polygon id="_Path_10" fill="#D6D6D8" points="534.67 173.19 539.8 220.27 562.86 173.19"></polygon>
                <ellipse id="_Path_11" fill="#434444" cx="542.61" cy="255.9" rx="3.75" ry="4.64"></ellipse>
                <ellipse id="_Path_12" fill="#434444" cx="542.61" cy="281.25" rx="3.75" ry="4.64"></ellipse>
                <rect id="_Rectangle_5" fill="#434444" x="557.14" y="271.15" width="17.93" height="6.65"></rect>
                <path d="M549.72,153.08 L549.93,153.08 C546.705,153.101 544.107,155.732 544.128,158.958 C544.128,158.999 544.129,159.04 544.13,159.08 L544.13,171.93 C544.13,175.25 546.61,176.28 549.93,176.28 L549.83,176.28 C553.15,176.28 555.74,175.28 555.74,171.93 L555.74,159.1 C555.751,155.786 553.074,153.091 549.76,153.08 C549.747,153.08 549.733,153.08 549.72,153.08 Z" id="_Path_13" fill="#F8AB8C"></path>
                <path d="M532.27,164.59 C550.2,170.98 563.88,160.39 571.83,144.59 C580.2,127.91 572.73,109.83 558.46,105.59 C542.22,100.71 530.86,104.23 524.22,121.68 C520.06,132.68 516.76,156.1 532.27,164.68 L532.27,164.59 L532.27,164.59 Z" id="_Path_14" fill="#F8AB8C"></path>
                <path d="M545.19,151.73 L532.75,150 C532.75,150 533.5,156.28 539.75,157 C543.65,157.44 545.19,151.73 545.19,151.73 Z" id="Shape" fill="#FFFFFF"></path>
                <path d="M581.06,122.19 C581.49,127.36 579.42,134.34 577.87,138.71 C577.083,137.515 575.787,136.75 574.36,136.64 C574.144,136.627 573.926,136.627 573.71,136.64 L573.38,136.64 L573.05,136.64 L572.7,136.64 L572.45,136.64 L572.03,136.73 L571.69,136.83 L571.35,136.94 L571.02,137.07 L570.68,137.21 C570.46,137.31 570.24,137.43 570.03,137.55 C570.03,137.55 570.03,137.55 570.03,137.6 L569.89,137.69 L569.81,137.75 L569.72,137.81 L569.72,137.81 L569.72,137.81 L569.72,137.81 L569.72,137.81 L567.32,145.91 C567.122,146.923 566.519,147.812 565.65,148.37 C565.49,148.48 565.323,148.581 565.15,148.67 C564.268,148.872 563.352,148.872 562.47,148.67 C560.36,148.04 558.74,145.67 559.37,143.56 L560.23,140.66 C560.885,138.48 559.753,136.163 557.63,135.34 L556.91,135.07 C557.83,131.76 558.63,129.15 559.15,127.54 C559.78,125.54 559.43,123.99 555.15,122.21 L555.02,122.21 C554.64,122.05 554.24,121.9 553.79,121.74 L553.7,121.74 C552.94,121.47 552.08,121.2 551.13,120.91 L530.47,115 L530.25,114.87 C529.45,114.37 526.63,112.41 525.79,109.37 C525.291,107.945 525.316,106.389 525.86,104.98 L531.53,106.66 C530.565,104.887 530.063,102.899 530.07,100.88 C529.992,98.666 530.176,96.45 530.62,94.28 L540,97 C540,97 551.45,92.95 561.65,96.94 C577.73,103.23 580.03,115.45 580.03,115.45 C582.565,115.215 585.122,115.504 587.54,116.3 C584.67,118.2 583.09,118.92 581.06,122.19 Z" id="_Path_15" fill="#8A6339"></path>
                <path d="M553.52,121.88 C552.76,121.61 551.9,121.34 550.95,121.05 L530.47,115 L530.25,114.87 C529.45,114.37 526.63,112.41 525.79,109.37 C525.291,107.945 525.316,106.389 525.86,104.98 C525.86,104.98 529.11,111.93 532.06,113.41 L532.29,113.52 C535.32,114.93 549,120.17 553.52,121.88 Z" id="_Path_16" fill="#754E24"></path>
                <g id="_Group_" transform="translate(529.000000, 124.000000)">
                    <path d="M1.36,1.6 L7.92,3.19" id="_Path_17"></path>
                    <path d="M0.89,2.62 C0.33,2.344 0.1,1.667 0.375,1.107 C0.603,0.644 1.115,0.394 1.62,0.5 L8.18,2.09 C8.773,2.283 9.098,2.921 8.904,3.514 C8.732,4.043 8.199,4.368 7.649,4.28 L1.089,2.69 L0.89,2.62 Z" id="_Path_18" fill="#8A6339"></path>
                </g>
                <g id="_Group_2" transform="translate(546.000000, 129.000000)">
                    <path d="M1.34,1.28 L7.7,3.53" id="_Path_19"></path>
                    <path d="M1.5,0.17 C0.879,0.109 0.326,0.562 0.264,1.183 C0.215,1.68 0.498,2.15 0.96,2.34 L7.33,4.59 C7.895,4.856 8.568,4.613 8.834,4.049 C9.1,3.484 8.857,2.811 8.293,2.545 C8.225,2.513 8.154,2.488 8.081,2.47 L1.711,0.22 L1.5,0.17 Z" id="_Path_20" fill="#8A6339"></path>
                </g>
                <circle id="_Path_21" fill="#000000" transform="translate(545.738000, 137.015705) rotate(-73.458811) translate(-545.738000, -137.015705) " cx="545.738" cy="137.015705" r="1.51997572"></circle>
                <circle id="_Path_22" fill="#000000" transform="translate(527.497860, 131.206480) rotate(-73.739795) translate(-527.497860, -131.206480) " cx="527.49786" cy="131.20648" r="1.52"></circle>
                <path d="M530.62,94.25 C530.62,94.25 531.8,103.63 536.32,107.25 C540.16,110.34 561.32,117.36 561.32,117.36 C558.95,117.455 556.576,117.328 554.23,116.98 C552.23,116.6 533.23,111.62 531.55,106.62 C529.872,102.715 529.545,98.362 530.62,94.25 Z" id="_Path_23" fill="#754E24"></path>
                <g id="_Group_3" transform="translate(567.000000, 135.000000)">
                    <path d="M1.73,3.35 C2.819,2.286 4.161,1.519 5.63,1.12 C11.2,-0.71 15.81,3.48 12.13,8.36 C9.56,11.76 4.3,20.52 2.33,16.22 C0.637,12.131 0.425,7.579 1.73,3.35 Z" id="_Path_24" fill="#F8AB8C"></path>
                    <polygon id="_Path_25" fill="#DB8369" points="5.12 4.96 11.49 5.75 4.45 12.71 8.02 6.31"></polygon>
                </g>
                <polygon id="_Path_26" fill="#DB8369" points="540.39 133.54 536.82 146.28 534.28 144.85"></polygon>
                <polygon id="Shape" fill="#F06D5A" points="550.89 181.12 548.25 174.88 542.51 182 543.6 185.31 537.97 203.45 539.8 220.27 547.24 205.07 546.24 185.68"></polygon>
                <polygon id="_Path_27" fill="#E7E8EA" points="562.86 173.19 555.86 168.61 548.25 174.88 552.69 185.36"></polygon>
                <polygon id="_Path_28" fill="#E7E8EA" points="534.67 173.19 544.34 168.61 548.25 174.88 539.8 185.36"></polygon>
                <path d="M579.57,255.79 L579.91,255.79 C584.342,256.606 588.596,253.674 589.412,249.242 C589.522,248.645 589.565,248.037 589.54,247.43 L590.06,190.19 C589.884,184.625 585.817,179.953 580.33,179.01 L579.99,179.01 C575.558,178.194 571.304,181.126 570.488,185.558 C570.378,186.155 570.335,186.763 570.36,187.37 L569.84,244.61 C570.016,250.175 574.083,254.847 579.57,255.79 Z" id="_Path_29" fill="#434444"></path>
                <path d="M532.33,266.64 L542,282 L585.89,254 C589.33,251.84 589.97,246.65 587.3,242.4 L587.3,242.4 C584.64,238.15 579.69,236.46 576.25,238.61 L532.33,266.64 Z" id="_Path_30" fill="#434444"></path>
                <path d="M530.61,269.35 L514.89,270.35 C514.89,270.35 505.08,277.35 502.82,281.44 C500.19,286.16 500.72,293.2 500.9,294.5 C501.4,297.98 515.26,286.71 515.26,286.71 L530.81,285 L530.61,269.35 Z" id="_Path_31" fill="#F8AB8C"></path>
                <rect id="_Rectangle_6" fill="#E7E8EA" transform="translate(532.180671, 276.287876) rotate(-30.298505) translate(-532.180671, -276.287876) " x="525.775735" y="264.152999" width="12.8098707" height="24.269755"></rect>
                <path d="M469.85,451.8 L470.2,462.92 L415.2,464.65 L415.2,463.54 C415.136,461.529 416.439,459.728 418.37,459.16 L447.37,450.62 C448.702,450.222 450.113,450.17 451.47,450.47 C459.35,452.25 464.81,451.18 467.6,450.25 C468.48,449.94 469.445,450.403 469.755,451.284 C469.813,451.45 469.845,451.624 469.85,451.8 Z" id="_Path_32" fill="#A67D53"></path>
                <path d="M470.2,462.91 L470.2,463 C470.262,464.849 468.812,466.398 466.963,466.46 L466.95,466.46 L417.05,468 C416.117,468.028 415.338,467.294 415.31,466.361 L415.31,466.36 L415.25,464.61 L470.2,462.91 Z" id="_Path_33" fill="#4E4E4E"></path>
                <g id="Layer1_19_MEMBER_1_MEMBER_3_FILL" transform="translate(384.000000, 292.000000)" fill="#DA836E">
                    <path d="M8.67,4.07 L12.54,1 L1.54,0.39 L0.38,4 C-1.27675648e-15,6.58 0.827,8.337 2.86,9.27 C4.689,7.42 6.63,5.684 8.67,4.07 Z" id="Shape"></path>
                </g>
                <g id="Layer0_0_MEMBER_0_FILL" transform="translate(282.000000, 88.000000)" fill="#FFFFFF">
                    <path d="M15.37,0.36 C14.13,-0.08 13.333,0.503 12.98,2.11 L0.61,58.44 C0.257,60.047 0.7,61.07 1.94,61.51 L29.78,71.43 C31.02,71.87 31.817,71.287 32.17,69.68 L44.54,13.35 C44.893,11.743 44.45,10.72 43.21,10.28 L15.37,0.36 Z" id="Shape"></path>
                </g>
                <g id="Layer0_0_MEMBER_1_FILL" transform="translate(278.000000, 90.000000)" fill="#F7F7F7">
                    <path d="M16,0.42 C14.613,2.77555756e-15 13.743,0.593 13.39,2.2 L1.02,58.53 C0.667,60.137 1.183,61.137 2.57,61.53 L33.75,71 C35.137,71.42 36.007,70.827 36.36,69.22 L48.73,12.89 C49.083,11.283 48.567,10.283 47.18,9.89 L16,0.42 Z" id="Shape"></path>
                </g>
                <g id="Layer0_0_MEMBER_2_FILL" transform="translate(276.000000, 92.000000)" fill="#4AA57A">
                    <path d="M15.58,0.38 C14.453,-0.043 13.196,0.528 12.773,1.655 C12.7,1.849 12.655,2.053 12.64,2.26 L0.27,58.6 C-0.153,59.727 0.418,60.984 1.545,61.407 C1.739,61.48 1.943,61.525 2.15,61.54 L38.28,69.47 C39.407,69.893 40.664,69.322 41.087,68.195 C41.16,68.001 41.205,67.797 41.22,67.59 L53.59,11.26 C54.013,10.133 53.442,8.876 52.315,8.453 C52.121,8.38 51.917,8.335 51.71,8.32 L15.58,0.38 Z" id="Shape"></path>
                </g>
                <g id="Layer0_0_MEMBER_3_FILL" transform="translate(317.000000, 94.000000)" fill="#FFFFFF">
                    <path d="M14,3.24 C12.918,3.907 12.161,4.994 11.91,6.24 L0.32,59 C0.027,60.333 0.433,60.667 1.54,60 L5.93,57.25 C7.012,56.583 7.769,55.496 8.02,54.25 L19.59,1.55 C19.883,0.217 19.477,-0.117 18.37,0.55 L14,3.24 Z" id="Shape"></path>
                </g>
                <g id="Layer0_0_MEMBER_4_FILL" transform="translate(316.000000, 94.000000)" fill="#F2F2F2">
                    <path d="M14.87,5 C13.542,5.718 12.569,6.951 12.18,8.41 L0.61,61.11 C0.317,62.443 0.923,62.637 2.43,61.69 L8.43,57.94 C9.758,57.222 10.731,55.989 11.12,54.53 L22.69,1.83 C22.983,0.497 22.377,0.303 20.87,1.25 L14.87,5 Z" id="Shape"></path>
                </g>
                <g id="Layer0_0_MEMBER_5_FILL" transform="translate(315.000000, 96.000000)" fill="#3D9069">
                    <path d="M16.51,3.7 C14.657,4.473 13.57,5.583 13.25,7.03 L0.66,64.4 C0.34,65.853 1.11,66.187 2.97,65.4 L10.35,62.33 C12.203,61.557 13.29,60.447 13.61,59 L26.2,1.63 C26.52,0.177 25.75,-0.157 23.89,0.63 L16.51,3.7 Z" id="Shape"></path>
                </g>
                <g id="Layer0_0_MEMBER_6_FILL" transform="translate(314.000000, 98.000000)" fill="#83BB62">
                    <path d="M16.12,0.49 C14.853,0.184 13.578,0.963 13.272,2.23 C13.264,2.263 13.257,2.297 13.25,2.33 L0.12,62.14 C-0.022,62.749 0.094,63.389 0.44,63.91 C0.785,64.475 1.351,64.871 2,65 L2,65 C3.285,65.205 4.52,64.414 4.87,63.16 L18,3.38 C18.138,2.743 18.008,2.078 17.64,1.54 C17.304,1.018 16.769,0.657 16.16,0.54 L16.12,0.49 Z" id="Shape"></path>
                </g>
                <path d="M304,173.74 L305.24,169.74 C305.301,166.998 305.501,164.261 305.84,161.54 C306.434,158.311 307.869,155.297 310,152.8 C310.91,151.88 310.71,146.38 310.52,144.8 C310.28,142.8 312.73,139.73 312.86,141.93 C312.99,144.13 315.2,152.83 315.33,153.74 C315.46,154.65 319.82,146.41 319.82,146.41 C319.82,146.41 318.7,139.15 320.39,138.66 L322.08,138.17 L323,148 L318.83,155.94 L323.65,149.27 C323.65,149.27 322.09,140.87 323.65,139.83 L325.21,138.83 L326.51,150.12 L321.84,158.33 L327,151 C327,151 326,144.24 327,142.94 C328,141.64 328.86,141.94 328.86,141.94 L329.72,153.1 L316.23,169.19 L311,178.47 L304,173.74 Z" id="Shape" fill="#F6AB91"></path>
                <rect id="Rectangle-path" fill="#6C503C" x="304.09" y="301.41" width="19.69" height="171.66"></rect>
                <rect id="Rectangle-path" fill="#6C503C" x="329.8" y="300.94" width="18.13" height="163.47"></rect>
                <rect id="Rectangle-path" fill="#6C503C" x="523.78" y="294.99" width="18.13" height="167.74"></rect>
                <path d="M507.48,388.61 L584.83,388.61 C592.142,388.61 598.07,394.538 598.07,401.85 L598.07,455.78 C598.07,463.092 592.142,469.02 584.83,469.02 L507.48,469.02 C500.168,469.02 494.24,463.092 494.24,455.78 L494.24,401.85 C494.24,394.538 500.168,388.61 507.48,388.61 Z" id="Shape" fill="#A67D53"></path>
                <path d="M516.18,393.37 L585.68,393.37 C593.047,393.37 599.02,399.343 599.02,406.71 L599.02,432.35 C599.02,439.717 593.047,445.69 585.68,445.69 L516.18,445.69 C508.813,445.69 502.84,439.717 502.84,432.35 L502.84,406.71 C502.84,399.342 508.813,393.37 516.18,393.37 Z" id="Shape" fill="#7E6041"></path>
                <path d="M517.27,388.61 L586.72,388.61 C593.513,388.61 599.02,394.117 599.02,400.91 L599.02,428.63 C599.02,435.423 593.513,440.93 586.72,440.93 L517.27,440.93 C510.477,440.93 504.97,435.423 504.97,428.63 L504.97,400.91 C504.97,394.117 510.477,388.61 517.27,388.61 Z" id="Shape" fill="#A67D53"></path>
                <path d="M533.38,395 L533.38,394.4 L533.38,384.4 C533.385,380.724 536.364,377.746 540.04,377.74 L554.2,377.74 C557.876,377.746 560.854,380.724 560.86,384.4 L560.86,394.4 L560.86,395 L566.57,395 L566.57,394.4 L566.57,384.4 C566.576,377.561 561.039,372.011 554.2,372 L540,372 C533.165,372.006 527.625,377.545 527.62,384.38 L527.62,394.38 L527.62,394.98 L533.38,395 Z" id="Shape" fill="#302C2C"></path>
                <path d="M549.11,437.76 L559.62,437.76 C560.725,437.76 561.62,438.655 561.62,439.76 L561.62,446.87 C561.62,447.975 560.725,448.87 559.62,448.87 L549.11,448.87 C548.005,448.87 547.11,447.975 547.11,446.87 L547.11,439.76 C547.11,438.655 548.005,437.76 549.11,437.76 Z" id="Shape" fill="#FBCC6F"></path>
                <rect id="Rectangle-path" fill="#6C503C" x="554.63" y="301.41" width="19.69" height="171.66"></rect>
                <g id="Layer1_4_FILL" transform="translate(288.000000, 283.000000)" fill="#55402D">
                    <path d="M297.14,14.6 L297.14,6.16 C297.14,2.627 295.997,0.86 293.71,0.86 L4.36,0.86 C2.073,0.86 0.93,2.627 0.93,6.16 L0.93,14.6 C0.93,18.133 2.073,19.9 4.36,19.9 L293.72,19.9 C296,19.9 297.14,18.133 297.14,14.6 Z" id="Shape"></path>
                </g>
                <g id="Layer1_1_MEMBER_7_FILL" transform="translate(192.000000, 134.000000)" fill="#FFD982">
                    <path d="M26.9,75.23 L22.9,54.29 L17.83,56.16 L21.74,76.16 C21.775,76.35 21.825,76.538 21.89,76.72 C23.583,76.467 25.283,76.23 26.99,76.01 C26.963,75.745 26.923,75.481 26.87,75.22 L26.9,75.23 Z M5,32.45 L0,34.3 L7.73,48.77 L12.03,45.57 L5.03,32.45 L5,32.45 Z M20.47,1.4 C20.023,2.086 19.793,2.891 19.81,3.71 L20.37,46.64 L25.65,47.32 L25,3.56 C25.006,2.76 24.701,1.99 24.15,1.41 C23.757,0.776 23.044,0.414 22.3,0.47 C21.584,0.532 20.919,0.864 20.44,1.4 L20.47,1.4 Z" id="Shape"></path>
                </g>
                <g id="Layer1_1_MEMBER_7_MEMBER_0_FILL" transform="translate(136.000000, 299.000000)" fill="#4E4E4E">
                    <path d="M43.68,6.75 C44.813,11.198 44.885,15.849 43.89,20.33 L19.66,151.21 C18.958,155.759 17.216,160.084 14.57,163.85 C12.157,167.103 9.71,168.5 7.23,168.04 C4.75,167.58 2.95,165.397 1.83,161.49 C0.734,157.038 0.662,152.394 1.62,147.91 L25.85,17 C26.57,12.456 28.31,8.135 30.94,4.36 C33.353,1.073 35.817,-0.323 38.33,0.17 C40.843,0.663 42.627,2.857 43.68,6.75 Z" id="Shape"></path>
                </g>
                <g id="Layer1_1_MEMBER_7_MEMBER_1_FILL" transform="translate(103.000000, 450.000000)" fill="#B3B3B4">
                    <path d="M52.74,1.87 C52.554,0.938 51.648,0.334 50.717,0.52 C50.565,0.55 50.418,0.601 50.28,0.67 C45.96,2.883 40.627,3.763 34.28,3.31 C32.884,3.229 31.488,3.482 30.21,4.05 L2.59,17.05 C1.69,17.455 0.961,18.163 0.53,19.05 C0.076,19.934 -0.065,20.946 0.13,21.92 L0.36,23.01 L54.8,12.92 L52.74,1.87 Z" id="Shape"></path>
                </g>
                <g id="Layer1_1_MEMBER_7_MEMBER_2_FILL" transform="translate(103.000000, 462.000000)" fill="#4E4E4E">
                    <path d="M0.31,10.93 L0.63,12.66 C0.776,13.576 1.638,14.2 2.554,14.054 C2.579,14.05 2.605,14.045 2.63,14.04 L52.06,4.88 C53.886,4.548 55.096,2.798 54.764,0.973 C54.763,0.965 54.761,0.958 54.76,0.95 L54.76,0.85 L0.31,10.93 Z" id="Shape"></path>
                </g>
                <g id="Layer1_1_MEMBER_7_MEMBER_3_FILL" transform="translate(216.000000, 301.000000)" fill="#4E4E4E">
                    <path d="M11.26,1 C8.7,0.96 6.483,2.68 4.61,6.16 C2.709,10.105 1.767,14.442 1.86,18.82 L0.2,145.94 C-2.32036612e-14,150.334 0.843,154.714 2.66,158.72 C4.42,162.193 6.58,163.95 9.14,163.99 C11.7,164.03 13.86,162.33 15.62,158.89 C17.602,154.947 18.604,150.583 18.54,146.17 L20.2,19 C20.36,14.609 19.454,10.245 17.56,6.28 C15.853,2.76 13.753,1 11.26,1 Z" id="Shape"></path>
                </g>
                <g id="Layer1_1_MEMBER_7_MEMBER_4_FILL" transform="translate(215.000000, 452.000000)" fill="#B3B3B4">
                    <path d="M52.19,9.32 C53.149,9.552 53.991,10.124 54.56,10.93 C55.17,11.703 55.492,12.665 55.47,13.65 L55.47,14.77 L0.13,14.05 L0.27,2.88 C0.273,1.941 1.036,1.182 1.975,1.185 C2.143,1.185 2.31,1.211 2.47,1.26 C7.137,2.727 12.55,2.703 18.71,1.19 C20.075,0.854 21.503,0.871 22.86,1.24 L52.19,9.32 Z" id="Shape"></path>
                </g>
                <g id="Layer1_1_MEMBER_7_MEMBER_5_FILL" transform="translate(215.000000, 466.000000)" fill="#4E4E4E">
                    <path d="M55.46,0.77 L55.46,2.53 C55.456,2.988 55.273,3.426 54.95,3.75 C54.633,4.069 54.199,4.242 53.75,4.23 L3.47,3.58 C1.614,3.564 0.123,2.046 0.14,0.191 L0.14,0.16 L0.14,0.05 L55.46,0.77 Z" id="Shape"></path>
                </g>
                <g id="Layer1_1_MEMBER_7_MEMBER_6_FILL" transform="translate(166.000000, 245.000000)" fill="#53517F">
                    <path d="M5.16,0.21 L71.53,13.08 L67.16,34.33 C65.971,40.614 59.913,44.744 53.629,43.555 C53.603,43.55 53.576,43.545 53.55,43.54 L10,35.07 C6.957,34.536 4.269,32.77 2.57,30.19 C0.805,27.662 0.171,24.514 0.82,21.5 L5.16,0.21 Z" id="Shape"></path>
                </g>
                <g id="Layer1_1_MEMBER_7_MEMBER_7_MEMBER_1_FILL" transform="translate(230.000000, 129.000000)" fill="#4E4E4E">
                    <path d="M21.8,81.88 C24.135,83.245 26.924,83.606 29.53,82.88 C34.897,81.461 38.113,75.976 36.73,70.6 L20.38,8.52 C19.76,5.911 18.063,3.687 15.71,2.4 C13.441,0.973 10.661,0.607 8.1,1.4 C2.833,2.574 -0.485,7.794 0.689,13.061 C0.738,13.283 0.795,13.502 0.86,13.72 L17.14,75.55 C17.703,78.235 19.403,80.545 21.8,81.88 Z" id="Shape"></path>
                </g>
                <g id="Layer1_1_MEMBER_7_MEMBER_7_MEMBER_2_FILL" transform="translate(248.000000, 165.000000)" fill="#4E4E4E">
                    <path d="M66.82,16 L54.89,0.27 L2.31,30.27 C7.437,34.137 8.053,36.557 4.16,37.53 C0.267,38.503 -0.86,40.073 0.78,42.24 C2.345,44.361 4.572,45.898 7.11,46.61 C9.466,47.369 12.031,47.135 14.21,45.96 L66.82,16 Z" id="Shape"></path>
                </g>
                <g id="Layer1_1_MEMBER_7_MEMBER_7_MEMBER_4_FILL" transform="translate(297.000000, 164.000000)" fill="#FFFFFF">
                    <polygon id="Shape" points="13.5 20 19.06 16.83 6.24 0.74 0.78 3.89"></polygon>
                </g>
                <g id="Layer1_1_MEMBER_7_MEMBER_8_FILL" transform="translate(171.000000, 122.000000)" fill="#4E4E4E">
                    <path d="M62.36,1.17 C71.661,1.307 79.1,8.939 79,18.24 L71.81,96.66 C64.09,96.93 59.08,97.13 51.53,96.74 C45.383,97.153 39.903,97.487 35.09,97.74 L0.17,102 C5.33,52.8 -1.32,31.74 0.75,8.47 C1.424,7.426 2.212,6.46 3.1,5.59 C6.261,2.382 10.596,0.604 15.1,0.67 L62.36,1.17 Z" id="Shape"></path>
                </g>
                <g id="Layer1_1_MEMBER_7_MEMBER_9_FILL" transform="translate(143.000000, 212.000000)" fill="#4E4E4E">
                    <path d="M73.91,2.36 L99.8,0.69 L113,113.94 L0.81,99.36 C12.937,63.08 20.667,39.103 24,27.43 L29.87,5.43 L65.47,3.59 L73.91,2.36 Z" id="Shape"></path>
                </g>
                <g id="Layer1_1_MEMBER_7_MEMBER_10_FILL" transform="translate(208.000000, 126.000000)" fill="#FFFFFF">
                    <path d="M3.12,0.67 C3.847,0.604 4.549,0.957 4.93,1.58 C5.511,2.28 5.861,3.143 5.93,4.05 L7.71,88.35 C7.742,89.23 7.43,90.087 6.84,90.74 C6.399,91.327 5.746,91.718 5.02,91.83 C4.272,91.719 3.593,91.33 3.12,90.74 C2.572,90.058 2.263,89.215 2.24,88.34 L0.39,4 C0.363,3.134 0.631,2.284 1.15,1.59 C1.617,0.98 2.352,0.636 3.12,0.67 Z" id="Shape"></path>
                </g>
                <g id="Layer1_1_MEMBER_7_MEMBER_11_FILL" transform="translate(189.000000, 121.000000)" fill="#FFFFFF">
                    <path d="M45.18,5 C45.177,3.759 45.04,2.521 44.77,1.31 L0.94,0.94 C0.638,2.148 0.467,3.385 0.43,4.63 C0.357,9.897 1.57,12.23 4.07,11.63 C8.08,10.63 12.03,9.401 15.9,7.95 C21.233,6.057 27.427,6.39 34.48,8.95 C41.533,11.51 45.1,10.193 45.18,5 Z" id="Shape"></path>
                </g>
                <g id="Layer1_1_MEMBER_7_MEMBER_12_FILL" transform="translate(204.000000, 101.000000)" fill="#F6AB91">
                    <path d="M2.13,2.73 C4.533,0.36 8.401,0.387 10.771,2.79 C11.916,3.951 12.549,5.52 12.53,7.15 L12.41,20.22 C12.41,23.173 10.36,24.63 6.26,24.59 C2.16,24.55 0.137,23.057 0.19,20.11 L0.3,7 C0.299,5.386 0.961,3.842 2.13,2.73 Z" id="Shape"></path>
                </g>
                <g id="Layer1_1_MEMBER_7_MEMBER_13_MEMBER_0_FILL" transform="translate(216.000000, 49.000000)" fill="#FCBE28">
                    <path d="M15.46,5.83 L18.39,0.65 C19.826,0.386 21.304,0.804 22.39,1.78 C25.057,3.867 26.443,8.247 26.55,14.92 C26.583,18.561 26.302,22.198 25.71,25.79 C25.39,27.737 25.077,29.357 24.77,30.65 L12.56,17 L0.1,11.66 L15.46,5.83 Z" id="Shape"></path>
                </g>
                <g id="Layer1_1_MEMBER_7_MEMBER_13_MEMBER_1_MEMBER_0_FILL" transform="translate(189.000000, 53.000000)" fill="#F6AB91">
                    <path d="M5.37,10.92 C10.13,4.307 16.28,0.913 23.82,0.74 C32.553,0.567 39.177,2.307 43.69,5.96 C48.583,9.88 51.433,16.307 52.24,25.24 C52.979,32.782 52.04,40.394 49.49,47.53 C46.157,56.817 40.7,62.353 33.12,64.14 C24.233,64.807 16.9,62.19 11.12,56.29 C5.973,51.057 2.5,43.783 0.7,34.47 C-1.06,25.597 0.497,17.747 5.37,10.92 Z" id="Shape"></path>
                </g>
                <g id="Layer1_1_MEMBER_7_MEMBER_13_MEMBER_1_MEMBER_1_MEMBER_0_FILL" transform="translate(229.000000, 77.000000)" fill="#8B643D">
                    <path d="M1.05,0.37 C1.308,0.17 1.639,0.09 1.96,0.15 L8.96,1.3 C9.266,1.349 9.54,1.518 9.72,1.77 C9.927,2.009 10.008,2.332 9.94,2.64 C9.891,2.91 9.754,3.156 9.55,3.34 C9.353,3.535 9.088,3.647 8.81,3.65 L1.55,2.51 C1.244,2.461 0.97,2.292 0.79,2.04 C0.611,1.777 0.542,1.453 0.6,1.14 C0.621,0.827 0.788,0.542 1.05,0.37 Z" id="Shape"></path>
                </g>
                <g id="Layer1_1_MEMBER_7_MEMBER_13_MEMBER_1_MEMBER_2_MEMBER_0_FILL" transform="translate(211.000000, 79.000000)" fill="#8B643D">
                    <path d="M8.38,0.05 L8.59,0.05 C8.858,0.077 9.11,0.189 9.31,0.37 C9.501,0.569 9.621,0.826 9.65,1.1 C9.688,1.423 9.586,1.747 9.37,1.99 C9.173,2.23 8.889,2.381 8.58,2.41 L1.5,3.04 C1.194,3.081 0.885,2.99 0.65,2.79 C0.412,2.575 0.262,2.279 0.23,1.96 C0.189,1.654 0.28,1.345 0.48,1.11 C0.695,0.872 0.991,0.722 1.31,0.69 L8.38,0.05 Z" id="Shape"></path>
                </g>
                <g id="Layer1_1_MEMBER_7_MEMBER_13_MEMBER_1_MEMBER_3_FILL" transform="translate(215.000000, 86.000000)" fill="#030404">
                    <path d="M3.86,2.27 C3.872,3.148 3.17,3.87 2.292,3.882 C1.874,3.888 1.471,3.729 1.17,3.44 C0.538,2.83 0.52,1.822 1.13,1.19 C1.74,0.558 2.748,0.54 3.38,1.15 C3.688,1.441 3.862,1.846 3.86,2.27 Z" id="Shape"></path>
                </g>
                <g id="Layer1_1_MEMBER_7_MEMBER_13_MEMBER_1_MEMBER_4_FILL" transform="translate(233.000000, 86.000000)" fill="#030404">
                    <path d="M1.48,3.4 C1.172,3.109 0.998,2.704 1,2.28 C0.988,1.847 1.146,1.427 1.44,1.11 C1.731,0.802 2.136,0.628 2.56,0.63 C3.42,0.586 4.154,1.247 4.198,2.108 C4.2,2.145 4.201,2.183 4.2,2.22 C4.215,2.641 4.056,3.05 3.76,3.35 C3.454,3.654 3.041,3.826 2.61,3.83 C2.19,3.848 1.782,3.692 1.48,3.4 Z" id="Shape"></path>
                </g>
                <g id="Layer1_1_MEMBER_7_MEMBER_13_MEMBER_1_MEMBER_5_FILL" transform="translate(225.000000, 84.000000)" fill="#DA836E">
                    <polygon id="Shape" points="0.6 0.65 3.6 13.84 0.6 14.56"></polygon>
                </g>
                <g id="Layer1_1_MEMBER_7_MEMBER_13_MEMBER_2_FILL" transform="translate(175.000000, 41.000000)" fill="#FCBE28">
                    <path d="M19.64,16 C18.511,18.958 16.39,21.432 13.64,23 C9.833,25.494 4.726,24.429 2.232,20.623 C1.65,19.735 1.245,18.742 1.04,17.7 C0.225,14.654 0.494,11.42 1.8,8.55 C2.943,5.6 5.06,3.13 7.8,1.55 C11.614,-0.943 16.727,0.128 19.219,3.942 C19.791,4.818 20.192,5.795 20.4,6.82 C21.189,9.878 20.922,13.113 19.64,16 Z" id="Shape"></path>
                </g>
                <g id="Layer1_1_MEMBER_7_MEMBER_13_MEMBER_3_FILL" transform="translate(182.000000, 38.000000)" fill="#FFD982">
                    <path d="M26.26,1.31 C32.26,0.203 37.287,0.307 41.34,1.62 C46.213,3.227 49.997,6.64 52.69,11.86 C49.03,21.247 42.737,29.247 33.81,35.86 C30.753,38.132 27.492,40.117 24.07,41.79 C22.133,42.795 20.082,43.56 17.96,44.07 C18.493,47.763 17.493,50.097 14.96,51.07 C13.686,51.559 12.303,51.69 10.96,51.45 C9.596,50.683 8.163,50.047 6.68,49.55 C4.887,48.883 3.853,48.103 3.58,47.21 C-0.893,33.21 -0.333,22.073 5.26,13.8 C9.707,7.227 16.707,3.063 26.26,1.31 Z" id="Shape"></path>
                </g>
                <g id="Layer1_1_MEMBER_7_MEMBER_13_MEMBER_4_MEMBER_0_FILL" transform="translate(183.000000, 76.000000)" fill="#F6AB91">
                    <path d="M12.34,5.75 C12.33,8.132 11.932,10.496 11.16,12.75 C10.541,14.662 9.571,16.443 8.3,18 C6.967,19.52 5.56,18.77 4.08,15.75 C2.513,11.75 1.473,9.083 0.96,7.75 C-0.14,4.957 0.343,2.957 2.41,1.75 C4.477,0.543 6.73,0.787 9.17,2.48 C10.112,3.095 10.955,3.85 11.67,4.72 L12.34,5.75 Z" id="Shape"></path>
                </g>
                <g id="Layer1_1_MEMBER_7_MEMBER_13_MEMBER_4_MEMBER_1_FILL" transform="translate(185.000000, 81.000000)" fill="#DA836E">
                    <polygon id="Shape" points="6.63 1.38 3.48 1.89 5.22 9.03 0.3 0.44"></polygon>
                </g>
                <g id="Layer1_1_MEMBER_7_MEMBER_13_MEMBER_5_FILL" transform="translate(187.000000, 92.000000)" fill="#ED3E59">
                    <path d="M5.26,5.23 C4.75,5.796 4.022,6.117 3.26,6.11 C1.669,6.138 0.358,4.871 0.33,3.28 C0.302,1.689 1.569,0.378 3.16,0.35 L3.16,0.35 C3.911,0.325 4.638,0.62 5.16,1.16 C6.302,2.265 6.334,4.086 5.23,5.23 L5.26,5.23 Z" id="Shape"></path>
                </g>
                <g id="Layer1_1_MEMBER_7_MEMBER_13_MEMBER_6_FILL" transform="translate(197.000000, 83.000000)" fill="#414243">
                    <path d="M1.25,4.44 C3.027,4.63 4.792,4.91 6.54,5.28 L6.59,5.28 C8.863,5.687 10.367,5.983 11.1,6.17 C11.011,6.716 11.011,7.274 11.1,7.82 C11.287,9.52 12.36,10.853 14.32,11.82 C18.196,13.431 22.637,12.851 25.97,10.3 C27.121,9.394 27.854,8.058 28,6.6 C28.141,6.545 28.275,6.475 28.4,6.39 C28.63,6.244 28.884,6.14 29.15,6.08 C29.326,6.054 29.504,6.054 29.68,6.08 C30.033,6.158 30.371,6.293 30.68,6.48 L30.76,7.1 C30.947,8.8 32.02,10.133 33.98,11.1 C37.856,12.711 42.297,12.131 45.63,9.58 L45.58,9.58 C47.24,8.247 47.96,6.743 47.74,5.07 L47.74,4.91 C47.553,3.21 46.48,1.877 44.52,0.91 C40.644,-0.701 36.203,-0.121 32.87,2.43 C32.2,2.988 31.641,3.666 31.22,4.43 C30.867,4.243 30.495,4.096 30.11,3.99 L30,3.99 C29.632,3.933 29.258,3.933 28.89,3.99 C28.469,4.074 28.062,4.215 27.68,4.41 C27.11,3.14 26.071,2.141 24.78,1.62 C20.904,0.009 16.463,0.589 13.13,3.14 C12.751,3.48 12.393,3.844 12.06,4.23 C11.991,4.214 11.919,4.214 11.85,4.23 C11.223,4.03 9.593,3.697 6.96,3.23 C5.112,2.815 3.238,2.531 1.35,2.38 C1.07,2.344 0.789,2.44 0.59,2.64 C0.383,2.827 0.263,3.091 0.26,3.37 C0.26,3.645 0.351,3.913 0.52,4.13 C0.721,4.316 0.977,4.432 1.25,4.46 L1.25,4.44 Z M43.59,4.79 C43.194,5.175 43.185,5.808 43.57,6.204 C43.834,6.476 44.229,6.575 44.59,6.46 L45.53,6.34 C45.268,6.967 44.848,7.515 44.31,7.93 C41.629,9.971 38.065,10.436 34.95,9.15 C33.928,8.773 33.172,7.896 32.95,6.83 C32.931,6.637 32.931,6.443 32.95,6.25 L33.01,5.92 C33.214,5.179 33.627,4.512 34.2,4 L34.25,4 C36.931,1.959 40.495,1.494 43.61,2.78 C44.301,3.084 44.896,3.572 45.33,4.19 L44.33,4.33 C44.053,4.364 43.803,4.513 43.64,4.74 L43.59,4.79 Z M25.96,5.84 C25.974,5.875 25.974,5.915 25.96,5.95 L25.96,6.11 C25.905,7.122 25.407,8.058 24.6,8.67 L24.6,8.62 C21.919,10.661 18.355,11.126 15.24,9.84 C13.759,9.455 12.871,7.943 13.256,6.462 C13.444,5.737 13.918,5.12 14.57,4.75 C17.251,2.709 20.815,2.244 23.93,3.53 C24.953,3.913 25.706,4.798 25.92,5.87 L25.96,5.84 Z" id="Shape"></path>
                </g>
                <g id="Layer1_1_MEMBER_7_MEMBER_15_MEMBER_0_FILL" transform="translate(146.000000, 122.000000)" fill="#4E4E4E">
                    <path d="M28,1.56 C25.565,2.7 23.708,4.795 22.87,7.35 L1.39,67.59 C-0.477,72.852 2.276,78.632 7.539,80.498 C10.064,81.394 12.841,81.25 15.26,80.1 C17.675,78.952 19.53,76.885 20.41,74.36 L41.83,14.08 C43.707,8.886 41.018,3.154 35.824,1.277 C35.79,1.265 35.755,1.252 35.72,1.24 C33.217,0.251 30.412,0.367 28,1.56 Z" id="Shape"></path>
                </g>
                <g id="Layer1_1_MEMBER_7_MEMBER_15_MEMBER_4_FILL" transform="translate(79.000000, 238.000000)" fill="#F6AB91">
                    <path d="M1.58,13.27 C1.33,9.7 -0.37,9.36 0.5,7.22 C3.08,4.78 11.41,6.11 22.87,4.22 C25.006,2.739 27.268,1.447 29.63,0.36 L35.13,11.49 C30.623,16.483 28.353,19.01 28.32,19.07 C27.547,19.537 26.79,19.977 26.05,20.39 C25.024,18.886 23.597,17.701 21.93,16.97 L18.53,17.42 C19.537,16.973 20.583,16.567 21.67,16.2 C18.483,16.593 16.233,16.863 14.92,17.01 C12.19,18.94 12.19,18.94 9.79,19.32 C4.56,17.22 2.4,17.05 1.58,13.27 Z" id="Shape"></path>
                </g>
                <g id="Layer1_1_MEMBER_7_MEMBER_15_MEMBER_1_FILL" transform="translate(98.000000, 185.000000)" fill="#4E4E4E">
                    <path d="M15,68.74 L0.29,54.8 L50,3.3 C51.81,1.315 54.364,0.17 57.05,0.14 C59.709,0.013 62.299,1.007 64.19,2.88 C66.157,4.724 67.297,7.284 67.35,9.98 C67.484,12.658 66.491,15.269 64.61,17.18 L15,68.74 Z" id="Shape"></path>
                </g>
                <path d="M106.3,268.15 L106.3,268.15 C105.522,268.934 104.256,268.939 103.472,268.162 C103.468,268.158 103.464,268.154 103.46,268.15 L21.16,185.45 C20.38,184.67 -0.12,163.89 0.66,163.11 L0.66,163.11 C1.44,162.33 22.27,182.77 23.06,183.54 L106.3,265.3 C107.087,266.075 107.097,267.341 106.322,268.128 C106.314,268.136 106.307,268.143 106.3,268.15 Z" id="Shape" fill="#56412B"></path>
                <g id="Layer1_1_MEMBER_7_MEMBER_15_MEMBER_2_FILL" transform="translate(90.000000, 254.000000)" fill="#F6AB91">
                    <path d="M0.65,5.24 C2.766,3.662 5.079,2.368 7.53,1.39 L10.93,0.94 C12.597,1.671 14.024,2.856 15.05,4.36 C9.87,5.41 7.05,5.98 4.05,6.62 C0.12,8.39 -0.16,7.24 0.65,5.24 Z" id="Shape"></path>
                </g>
                <g id="Layer1_1_MEMBER_7_MEMBER_15_MEMBER_5_FILL" transform="translate(97.000000, 234.000000)" fill="#FFFFFF">
                    <polygon id="Shape" points="0.1 5.62 5.31 0.24 32.58 7.09 14.28 19.6"></polygon>
                </g>
                <path d="M217.58,104.53 C219.296,104.875 221.033,105.106 222.78,105.22 C225.06,105.31 229.59,104.88 229.59,104.88 C229.59,104.88 227.96,108.75 225.59,109.78 C224.14,110.42 220.4,110.4 218.85,108.69 C217.983,107.479 217.537,106.018 217.58,104.53 Z" id="Shape" fill="#414243"></path>
                <path d="M174.415,208.923 L242.005,211.26 C243.661,211.317 244.957,212.706 244.9,214.362 L244.662,221.238 C244.605,222.894 243.216,224.19 241.56,224.133 L173.97,221.796 C172.314,221.739 171.018,220.35 171.075,218.694 L171.313,211.818 C171.37,210.162 172.759,208.866 174.415,208.923 Z" id="Shape" fill="#B3B3B4"></path>
                <path d="M316.8,234.561 L317.744,234.384 C318.276,234.284 318.788,234.635 318.888,235.167 L324.957,267.563 C325.057,268.095 324.706,268.607 324.174,268.707 L323.23,268.884 C322.698,268.984 322.186,268.633 322.086,268.101 L316.017,235.705 C315.918,235.173 316.268,234.661 316.8,234.561 Z" id="Shape" fill="#FFDB81"></path>
                <path d="M345.314,238.858 L346.211,239.2 C346.717,239.393 346.97,239.959 346.777,240.465 L335.03,271.26 C334.837,271.766 334.271,272.019 333.765,271.826 L332.868,271.484 C332.362,271.291 332.109,270.725 332.302,270.219 L344.049,239.424 C344.242,238.919 344.809,238.666 345.314,238.858 Z" id="Shape" fill="#FFDB81"></path>
                <path d="M319.833,233.392 L320.777,233.215 C321.309,233.115 321.821,233.466 321.921,233.998 L327.99,266.394 C328.09,266.926 327.739,267.438 327.207,267.538 L326.263,267.715 C325.731,267.815 325.219,267.464 325.119,266.932 L319.05,234.536 C318.95,234.003 319.301,233.491 319.833,233.392 Z" id="Shape" fill="#59595C"></path>
                <path d="M340.376,233.184 L341.326,233.32 C341.862,233.397 342.234,233.893 342.157,234.429 L337.479,267.055 C337.402,267.591 336.906,267.963 336.37,267.886 L335.42,267.75 C334.884,267.673 334.512,267.177 334.589,266.641 L339.267,234.015 C339.344,233.479 339.84,233.107 340.376,233.184 Z" id="Shape" fill="#59595C"></path>
                <path d="M330.417,269.722 L329.52,269.38 C329.014,269.187 328.761,268.621 328.954,268.115 L340.701,237.32 C340.894,236.814 341.46,236.561 341.966,236.754 L342.863,237.096 C343.369,237.289 343.622,237.855 343.429,238.361 L331.682,269.156 C331.489,269.661 330.923,269.915 330.417,269.722 Z" id="Shape" fill="#F05F53"></path>
                <path d="M312.986,237.765 L313.857,237.361 C314.348,237.133 314.931,237.347 315.158,237.838 L329.03,267.737 C329.258,268.228 329.044,268.811 328.553,269.038 L327.682,269.442 C327.191,269.67 326.608,269.456 326.381,268.965 L312.509,239.066 C312.282,238.575 312.495,237.993 312.986,237.765 Z" id="Shape" fill="#F05F53"></path>
                <path d="M317.287,238.201 L318.158,237.797 C318.649,237.569 319.232,237.783 319.459,238.274 L333.331,268.173 C333.559,268.664 333.345,269.247 332.854,269.474 L331.983,269.878 C331.492,270.106 330.909,269.892 330.682,269.401 L316.81,239.502 C316.582,239.012 316.796,238.429 317.287,238.201 Z" id="Shape" fill="#61C7D0"></path>
                <path d="M322.467,234.557 L323.417,234.461 C323.953,234.407 324.431,234.797 324.485,235.333 L327.781,267.963 C327.835,268.499 327.445,268.977 326.909,269.031 L325.959,269.127 C325.423,269.181 324.945,268.791 324.891,268.255 L321.595,235.625 C321.541,235.09 321.931,234.611 322.467,234.557 Z" id="Shape" fill="#FFDB81"></path>
                <polygon id="Shape" fill="#59595C" points="341.79 284.03 319.55 284.03 317.14 253.25 344.19 253.25"></polygon>
                <polygon id="Shape" fill="#302C2C" points="343.79 258.48 344.09 254.54 317.24 254.54 317.55 258.48"></polygon>
                <rect id="Rectangle-path" fill="#59595C" x="316.2" y="250.8" width="29.03" height="6.05"></rect>
                <path d="M539.72,283.51 L483.61,282.7 C483.61,282.7 466.51,281.02 463.61,286.75 C462.367,289.081 461.252,291.478 460.27,293.93 L506.79,304.5 C506.79,304.5 509.32,296.85 513.15,292.24 C519.47,284.66 539.72,283.51 539.72,283.51 Z" id="Shape" fill="#FFFFFF"></path>
                <path d="M370.8,276.58 L466.89,276.58 C468.547,276.58 469.89,277.923 469.89,279.58 L469.89,280.86 C469.89,282.517 468.547,283.86 466.89,283.86 L370.8,283.86 C369.143,283.86 367.8,282.517 367.8,280.86 L367.8,279.58 C367.8,277.923 369.143,276.58 370.8,276.58 Z" id="Shape" fill="#D4D5D6"></path>
                <path d="M366.85,215.22 L449.15,215.22 C450.807,215.22 452.15,216.563 452.15,218.22 L452.15,278.26 C452.15,279.917 450.807,281.26 449.15,281.26 L366.85,281.26 C365.193,281.26 363.85,279.917 363.85,278.26 L363.85,218.22 C363.85,216.563 365.193,215.22 366.85,215.22 Z" id="Shape" fill="#B2B3B4"></path>
                <polygon id="Shape" fill="#D4D5D6" points="406.35 236.19 409.6 242.78 416.88 243.84 411.61 248.97 412.86 256.22 406.35 252.79 399.84 256.22 401.08 248.97 395.82 243.84 403.09 242.78"></polygon>
            </g>
        </g>
    </g>
</svg>