<?xml version="1.0" encoding="utf-8"?>
<!-- Generator: Adobe Illustrator 16.0.0, SVG Export Plug-In . SVG Version: 6.00 Build 0)  -->
<!DOCTYPE svg PUBLIC "-//W3C//DTD SVG 1.1//EN" "http://www.w3.org/Graphics/SVG/1.1/DTD/svg11.dtd">
<svg version="1.1" id="Capa_1" xmlns="http://www.w3.org/2000/svg" xmlns:xlink="http://www.w3.org/1999/xlink" x="0px" y="0px"
	 width="65.25px" height="53.542px" viewBox="5.903 13.028 65.25 53.542" enable-background="new 5.903 13.028 65.25 53.542"
	 xml:space="preserve">
<path fill="#29A38F" d="M69.068,52.639V18.087c0-1.254-1.144-2.267-2.556-2.267H10.595c-1.405,0-2.553,1.012-2.553,2.267v34.555
	c0,1.242,1.149,2.264,2.554,2.264h55.92C67.925,54.904,69.068,53.883,69.068,52.639z M13.144,20.348h50.822v30.027H13.144V20.348z"
	/>
<path fill="#29A38F" d="M69.068,61.721c0,1.206-1.175,2.184-2.625,2.184H10.667c-1.449,0-2.625-0.978-2.625-2.184l0,0
	c0-1.206,1.175-2.184,2.625-2.184h55.776C67.893,59.538,69.068,60.515,69.068,61.721L69.068,61.721z"/>
</svg>
