<?xml version="1.0" encoding="UTF-8"?>
<svg width="26px" height="26px" viewBox="0 0 26 26" version="1.1" xmlns="http://www.w3.org/2000/svg" xmlns:xlink="http://www.w3.org/1999/xlink">
    <!-- Generator: Sketch 46.2 (44496) - http://www.bohemiancoding.com/sketch -->
    <title>Page 1</title>
    <desc>Created with Sketch.</desc>
    <defs></defs>
    <g id="Page-1" stroke="none" stroke-width="1" fill="none" fill-rule="evenodd">
        <g id="1e-Workbook---Style-Guide---Top-icons---Filter-all-Copy" transform="translate(-1138.000000, -160.000000)" fill="#000000">
            <g id="Language-select---dropdown" transform="translate(1116.000000, 80.000000)">
                <path d="M22,92.9988442 C22,96.4704416 23.3523641,99.7351762 25.8076695,102.19095 C28.2617897,104.646724 31.5263979,106 35.0000001,106 C38.4736024,106 41.7379794,104.64684 44.1923308,102.19095 C46.6475781,99.7374298 48,96.4713084 48,92.9988442 C48,85.830296 42.1682784,80 35.0002891,80 C27.8314329,80 22,85.8314516 22,92.9988442 Z M41.7461678,94.3599794 L40.8234245,93.728157 L39.9626176,94.4444444 L40.2577043,93.3395662 L39.3333333,92.7111172 L40.438672,92.6604338 L40.7288673,91.5555556 L41.1168835,92.6283432 L42.2222222,92.5742821 L41.3565322,93.2871961 L41.7461678,94.3599794 Z M42.1261406,88.2031325 L41.0586011,87.8048886 L40.3401587,88.6666667 L40.4025566,87.5617105 L39.3333333,87.16673 L40.4379585,86.8827339 L40.4969847,85.7777778 L41.117597,86.7064925 L42.2222222,86.4175994 L41.5004123,87.2761183 L42.1261406,88.2031325 Z M35.371945,81.6359191 L36.3338354,82.2020311 L37.1580493,81.4444444 L36.9253624,82.5483649 L37.8888889,83.1111521 L36.7828197,83.2277078 L36.5550493,84.3333333 L36.1044332,83.3009814 L35,83.4225329 L35.8275278,82.668271 L35.371945,81.6359191 Z M35.0442249,96.4005306 L36.1307374,96.768773 L36.829586,95.8888889 L36.8006787,96.9936035 L37.8888889,97.3585882 L36.7836591,97.6730631 L36.7581558,98.7777778 L36.1035321,97.866943 L35,98.1863024 L35.7022438,97.3096719 L35.0442249,96.4005306 Z M33.0670434,94.4444444 L29.9427879,92.0484089 L26.8185324,94.4444444 L28.0214271,90.5790596 L24.8888889,88.1952649 L28.7564585,88.2039898 L29.9444444,84.3333333 L31.1324303,88.2039898 L35,88.1952649 L31.8658053,90.5790596 L33.0670434,94.4444444 Z" id="Page-1"></path>
            </g>
        </g>
    </g>
</svg>