<?xml version="1.0" encoding="UTF-8"?>
<svg width="24px" height="24px" viewBox="0 0 24 24" version="1.1" xmlns="http://www.w3.org/2000/svg" xmlns:xlink="http://www.w3.org/1999/xlink">
    <!-- Generator: Sketch 46.2 (44496) - http://www.bohemiancoding.com/sketch -->
    <title>Page 1</title>
    <desc>Created with Sketch.</desc>
    <defs></defs>
    <g id="Page-1" stroke="none" stroke-width="1" fill="none" fill-rule="evenodd">
        <g id="1e-Workbook---Style-Guide---Top-icons---Filter-all-Copy" transform="translate(-1137.000000, -29.000000)" fill="#000000">
            <g id="Group-2" transform="translate(1137.000000, 29.000000)">
                <path d="M11.1769827,23.9865575 C8.10714829,23.7110233 5.40853757,22.4625947 3.3872245,20.3847346 C1.54851637,18.494343 0.44063635,16.209235 0.0780992803,13.5600979 C-0.0147066457,12.8868695 -0.0277588712,11.2194693 0.0548977988,10.5632934 C0.321714836,8.43427584 1.15698673,6.38633945 2.44320262,4.70472279 C2.92029933,4.08123387 3.94406006,3.0359046 4.52699264,2.57570521 C6.22504411,1.23779281 8.32461113,0.348699363 10.4275934,0.0788407932 C11.2324064,-0.024841327 12.7419505,-0.0262593389 13.5133905,0.0745794857 C16.0090161,0.402663805 18.2275603,1.43096239 20.0636327,3.11116104 C23.3930639,6.15625066 24.7343694,10.6640741 23.6091161,15.0315507 C23.3393998,16.081134 22.7346986,17.5127806 22.2141316,18.3394088 C21.5485275,19.3946642 20.4015205,20.6814554 19.469118,21.4171491 C17.7957157,22.739427 15.8743361,23.5546747 13.652785,23.8856169 C13.0916061,23.9694141 11.6414949,24.0276435 11.1774653,23.9864557 L11.1769827,23.9865575 Z M13.3854668,23.0108199 C15.7259209,22.7125611 17.9054866,21.6757435 19.5990091,20.0552105 C20.5734714,19.1220859 21.2173217,18.2756056 21.795911,17.1621026 C22.3831869,16.0343832 22.7384851,14.9805459 22.950194,13.7449121 C23.0749029,13.0134725 23.0908544,11.0520712 22.9777462,10.3745888 C22.5485374,7.82234918 21.5232917,5.82531577 19.7440537,4.07861601 C19.0102929,3.35852048 18.3867855,2.87137886 17.6283755,2.42397793 C13.7290417,0.128798443 8.97143874,0.398657012 5.30968812,3.1199309 C4.36711402,3.8215559 3.18094291,5.11685522 2.55884623,6.12524347 C1.29145138,8.17896099 0.701279937,10.7199656 0.943429159,13.0789556 C1.11308953,14.7364297 1.68877211,16.4350988 2.55595069,17.841294 C3.62177106,19.5711957 5.29662105,21.0838145 7.14835913,21.9927964 C8.10541096,22.4629219 9.43661916,22.8620014 10.5357754,23.0083111 C11.297081,23.1105716 12.5934684,23.1105716 13.3837666,23.0097328 L13.3854668,23.0108199 Z M10.4519457,22.3503863 C10.4200427,22.3191428 10.393942,20.593506 10.3852405,17.9970898 L10.3707405,13.6965143 L1.72828145,13.6681104 L1.68332997,13.4096178 C1.62532627,13.0801118 1.62532627,10.983763 1.68332997,10.7139045 L1.72683368,10.5093835 L10.3722625,10.480976 L10.4012625,1.74893156 L10.5535236,1.71200508 C10.8638444,1.63673046 12.8214777,1.61400591 13.2289329,1.68076155 L13.6262536,1.74609554 L13.6262536,10.5065002 L22.2976681,10.5065002 L22.3411718,10.7110212 C22.3991755,10.9808761 22.3991755,13.0757923 22.3411718,13.4067345 L22.2962203,13.6652272 L13.6537613,13.693631 L13.6247576,22.3318685 L13.4724965,22.3915196 C13.2868846,22.4639545 11.3423035,22.5023027 10.8550724,22.442648 C10.6621957,22.4199816 10.4809383,22.3787902 10.4519457,22.3503863 Z M9.11928972,22.0876324 C8.02013345,21.7922132 6.6367312,21.0849162 5.63038086,20.3037734 C5.12139604,19.908948 4.11359792,18.9232479 4.11359792,18.8210056 C4.11359792,18.7826575 4.35721348,18.6150631 4.65591863,18.4503228 C4.95463864,18.2855716 5.94941051,17.7259732 6.86729824,17.2089806 C9.31214043,15.8298732 9.36437161,15.8014766 9.41077457,15.8298732 C9.46587902,15.86396 9.46732679,22.1003945 9.41222605,22.1316634 C9.38902457,22.1444474 9.25851717,22.1259841 9.12075605,22.087636 L9.11928972,22.0876324 Z M14.5688537,18.9800411 C14.5688537,17.2274148 14.5819059,15.7943502 14.5978574,15.7943502 C14.6138052,15.7943502 15.0082452,16.0102334 15.4737226,16.2744017 C15.9392,16.5385737 16.9455504,17.106702 17.7111992,17.5370504 C18.4754004,17.9673989 19.262803,18.4133818 19.459997,18.5270045 C19.6572096,18.6420489 19.8384596,18.7357868 19.8631088,18.7357868 C20.0081162,18.7357868 19.8399073,18.9630323 19.3106166,19.4842789 C18.1548858,20.6219244 17.0339758,21.3278034 15.4866412,21.8944991 C15.1806712,22.0067002 14.8485819,22.113222 14.7499849,22.1316853 L14.5687238,22.1657721 L14.5688537,18.9800411 Z M3.1741421,17.561193 C3.04073543,17.3353691 2.94212728,17.140807 2.95372802,17.1280085 C2.9769295,17.105284 3.7643321,16.653629 6.14684583,15.2958281 L7.37507658,14.5956211 L8.30168807,14.5956211 C8.81212066,14.5956211 9.22829956,14.6169276 9.22829956,14.6439099 C9.22829956,14.6708957 8.82225507,14.9237054 8.32488955,15.2063516 C7.82752403,15.4889868 6.5369277,16.2275383 5.45514471,16.8467731 C4.37336171,17.466008 3.47288437,17.9730745 3.45257843,17.9716565 C3.43227621,17.9716565 3.30757103,17.7855988 3.17416066,17.5597786 L3.1741421,17.561193 Z M19.7125293,16.402241 C18.9787686,15.987527 17.9985153,15.4335934 17.5315901,15.1708613 C17.0646649,14.9081073 16.6832697,14.6709212 16.6832697,14.6439426 C16.6832697,14.6169604 17.096553,14.5942322 17.6098812,14.5942322 L18.5364926,14.5942322 L18.9033656,14.7930738 C19.3152012,15.016058 21.4816256,16.2361009 21.5193419,16.2659155 C21.5512449,16.2900617 21.1220212,17.1550089 21.0785138,17.1550089 C21.0611108,17.1550089 20.4462827,16.8155623 19.7125219,16.4008448 L19.7125293,16.402241 Z M2.14919345,15.3739642 C2.09118974,15.2816443 1.95198086,14.6837196 1.97808159,14.6411066 C2.01723456,14.5786122 3.44556602,14.5842952 3.44556602,14.6453679 C3.44556602,14.6723537 3.23965194,14.810119 2.98732748,14.9521493 C2.73501044,15.0927579 2.44935009,15.256091 2.35220084,15.3129024 C2.2550516,15.3697138 2.16368973,15.3981213 2.14918602,15.3739751 L2.14919345,15.3739642 Z M21.4123627,15.1864885 C21.2136986,15.0657648 20.9323704,14.9066929 20.7859227,14.834258 C20.6409153,14.761823 20.5220049,14.6780258 20.5220049,14.6496219 C20.5220049,14.6169567 20.8279749,14.5956502 21.3036164,14.5956502 L22.0852279,14.5956502 L22.0475264,14.8001711 C21.9909742,15.1083742 21.8923661,15.3753749 21.8300116,15.3924274 C21.7995601,15.4009501 21.611049,15.3072086 21.412385,15.1864848 L21.4123627,15.1864885 Z M1.94502041,9.53371136 C1.94502041,9.3945244 2.08277782,8.89458795 2.13788226,8.83492238 C2.18718448,8.78095066 2.33509485,8.84060533 2.82958339,9.11613958 C3.17615413,9.30787661 3.48646373,9.49253084 3.51983675,9.52518147 C3.56334045,9.56779091 3.35307563,9.58483251 2.76287449,9.58483251 C2.30029263,9.58483251 1.94503155,9.56352961 1.94503155,9.5351221 L1.94502041,9.53371136 Z M5.25414563,9.43002924 C4.98297785,9.28089802 2.71794529,7.9955466 2.561326,7.90181238 C2.4960723,7.8620426 2.50767304,7.80097356 2.63528119,7.53538357 C2.71938563,7.35926649 2.8237923,7.16186469 2.86729601,7.09510906 L2.94704971,6.97438534 L3.40528825,7.23713931 C3.87800451,7.50699424 6.24166008,8.84349226 6.78401791,9.14741947 C6.9522268,9.24115733 7.17120424,9.35904138 7.27124902,9.40875179 C7.37129381,9.4584622 7.45251013,9.51811323 7.45251013,9.54367744 C7.45251013,9.56782364 7.02036862,9.58770489 6.49256276,9.58770489 C5.54564533,9.58628688 5.52968271,9.58486523 5.25564538,9.434316 L5.25414563,9.43002924 Z M14.6275442,9.54365199 C14.6289919,9.52092744 14.8479582,9.38174048 15.1147753,9.23403091 C15.3815923,9.08632134 16.6881327,8.34068342 18.017856,7.57797483 C19.3475793,6.81526623 20.4757653,6.18039686 20.5265116,6.16763475 C20.5903175,6.15059316 20.6860227,6.2571113 20.8513323,6.52980589 C20.9803919,6.74284945 21.0717464,6.93884778 21.0543471,6.96582637 C21.0369479,6.99280495 20.7411271,7.17460862 20.3974668,7.36919621 C20.0537953,7.56377653 19.3591912,7.9600345 18.8545868,8.2511996 C18.3499824,8.54236471 17.6191172,8.96133268 17.2319309,9.18290613 L16.5271998,9.58485796 L15.5773868,9.58485796 C15.0553721,9.58485796 14.6275739,9.56639472 14.6290216,9.54367017 L14.6275442,9.54365199 Z M20.466893,9.54365199 C20.4683408,9.49394158 21.7589371,8.76676327 21.8459148,8.76676327 C21.9097171,8.76676327 21.9996237,9.02667394 22.0590789,9.38032611 L22.0938811,9.58484705 L21.2803815,9.58484705 C20.8323145,9.58484705 20.4668819,9.56638381 20.4683297,9.54365926 L20.466893,9.54365199 Z M8.84016661,8.07364633 C8.27026398,7.74982332 7.09860773,7.08511025 5.41941443,6.13355156 C4.83792961,5.8040456 4.29416113,5.49584617 4.21004184,5.44897906 C4.1259374,5.4006903 4.05778073,5.34671858 4.05778073,5.32683369 C4.05778073,5.25439874 5.26715331,4.08690956 5.64272033,3.80003485 C6.22420514,3.35405193 6.96810032,2.89672492 7.56120444,2.62261231 C8.21953255,2.31867055 9.27956184,1.94371185 9.37815886,1.98065288 C9.43906182,2.00337743 9.45211404,2.58428963 9.45211404,5.16634384 C9.45211404,6.90333568 9.43325959,8.33498229 9.41006182,8.34919877 C9.38686034,8.36340434 9.13019256,8.23841568 8.84015919,8.07366451 L8.84016661,8.07364633 Z M14.5696333,5.17057606 C14.5696333,2.33426141 14.5797825,1.9564885 14.6537377,1.9564885 C14.8088981,1.9564885 16.1473192,2.45642859 16.6331025,2.69501818 C17.658311,3.1992123 18.8111462,4.06132717 19.5883773,4.90355351 C19.8769443,5.21601788 19.9465488,5.32252148 19.8928958,5.37084296 C19.8551943,5.40492979 19.4129036,5.66484046 18.9068514,5.94888278 C18.4022099,6.231518 17.2305536,6.8962238 16.3024944,7.4259785 C15.3744351,7.95431518 14.6044392,8.38749963 14.5928199,8.38749963 C14.5797714,8.38749963 14.5696184,6.94163654 14.5696184,5.17341208 L14.5696333,5.17057606 Z" id="Page-1"></path>
            </g>
        </g>
    </g>
</svg>