<?xml version="1.0" encoding="UTF-8"?>
<svg width="26px" height="26px" viewBox="0 0 26 26" version="1.1" xmlns="http://www.w3.org/2000/svg" xmlns:xlink="http://www.w3.org/1999/xlink">
    <!-- Generator: Sketch 41.2 (35397) - http://www.bohemiancoding.com/sketch -->
    <title>Settings_icon</title>
    <desc>Created with Sketch.</desc>
    <defs>
        <path d="M24.3285714,10.3469388 C23.877551,10.2938776 23.3734694,10.2673469 22.8163265,10.2142857 C22.7102041,10.2142857 22.6571429,10.1346939 22.6040816,10.055102 C22.4183673,9.44489796 22.1795918,8.86122449 21.8612245,8.27755102 C21.8081633,8.19795918 21.8346939,8.09183673 21.8877551,8.0122449 C22.2591837,7.5877551 22.577551,7.21632653 22.8693878,6.87142857 C23.3734694,6.26122449 23.3469388,5.35918367 22.7632653,4.7755102 L21.2244898,3.21020408 C20.6408163,2.62653061 19.7653061,2.6 19.1285714,3.10408163 C18.7836735,3.39591837 18.3857143,3.71428571 17.9877551,4.08571429 C17.9081633,4.13877551 17.8285714,4.16530612 17.722449,4.1122449 C17.1653061,3.82040816 16.555102,3.55510204 15.944898,3.36938776 C15.8653061,3.34285714 15.7857143,3.26326531 15.7857143,3.15714286 C15.7591837,2.6 15.7061224,2.09591837 15.6530612,1.64489796 C15.5734694,0.848979592 14.9102041,0.23877551 14.1142857,0.23877551 L11.8857143,0.23877551 C11.0897959,0.23877551 10.4,0.848979592 10.3469388,1.64489796 C10.2938776,2.09591837 10.2673469,2.6 10.2142857,3.15714286 C10.2142857,3.26326531 10.1346939,3.31632653 10.055102,3.36938776 C9.44489796,3.55510204 8.86122449,3.79387755 8.27755102,4.1122449 C8.19795918,4.16530612 8.09183673,4.13877551 8.0122449,4.08571429 C7.61428571,3.71428571 7.21632653,3.39591837 6.87142857,3.10408163 C6.26122449,2.6 5.35918367,2.62653061 4.7755102,3.21020408 L3.21020408,4.7755102 C2.62653061,5.35918367 2.6,6.23469388 3.10408163,6.87142857 C3.39591837,7.21632653 3.71428571,7.61428571 4.08571429,8.0122449 C4.13877551,8.09183673 4.16530612,8.17142857 4.1122449,8.27755102 C3.82040816,8.83469388 3.55510204,9.44489796 3.36938776,10.055102 C3.34285714,10.1346939 3.26326531,10.2142857 3.15714286,10.2142857 C2.6,10.2408163 2.09591837,10.2938776 1.64489796,10.3469388 C0.848979592,10.4265306 0.23877551,11.0897959 0.23877551,11.8857143 L0.23877551,14.1142857 C0.23877551,14.9102041 0.848979592,15.6 1.64489796,15.6530612 C2.09591837,15.7061224 2.6,15.7326531 3.15714286,15.7857143 C3.26326531,15.7857143 3.31632653,15.8653061 3.36938776,15.944898 C3.55510204,16.555102 3.79387755,17.1387755 4.1122449,17.722449 C4.16530612,17.8020408 4.13877551,17.9081633 4.08571429,17.9877551 C3.71428571,18.4122449 3.39591837,18.7836735 3.10408163,19.1285714 C2.6,19.7387755 2.62653061,20.6408163 3.21020408,21.2244898 L4.7755102,22.7897959 C5.35918367,23.3734694 6.23469388,23.4 6.87142857,22.8959184 C7.21632653,22.6040816 7.61428571,22.2857143 8.0122449,21.9142857 C8.09183673,21.8612245 8.17142857,21.8346939 8.27755102,21.8877551 C8.83469388,22.1795918 9.44489796,22.444898 10.055102,22.6306122 C10.1346939,22.6571429 10.2142857,22.7367347 10.2142857,22.8428571 C10.2408163,23.4 10.2938776,23.9040816 10.3469388,24.355102 C10.4265306,25.1510204 11.0897959,25.7612245 11.8857143,25.7612245 L14.1142857,25.7612245 C14.9102041,25.7612245 15.6,25.1510204 15.6530612,24.355102 C15.7061224,23.9040816 15.7326531,23.4 15.7857143,22.8428571 C15.7857143,22.7367347 15.8653061,22.6836735 15.944898,22.6306122 C16.555102,22.444898 17.1387755,22.2061224 17.722449,21.8877551 C17.8020408,21.8346939 17.9081633,21.8612245 17.9877551,21.9142857 C18.3857143,22.2857143 18.7836735,22.6040816 19.1285714,22.8959184 C19.7387755,23.4 20.6408163,23.3734694 21.2244898,22.7897959 L22.7897959,21.2244898 C23.3734694,20.6408163 23.4,19.7653061 22.8959184,19.1285714 C22.6040816,18.7836735 22.2857143,18.3857143 21.9142857,17.9877551 C21.8612245,17.9081633 21.8346939,17.8285714 21.8877551,17.722449 C22.1795918,17.1653061 22.444898,16.555102 22.6306122,15.944898 C22.6571429,15.8653061 22.7367347,15.7857143 22.8428571,15.7857143 C23.4,15.7591837 23.9040816,15.7061224 24.355102,15.6530612 C25.1510204,15.5734694 25.7612245,14.9102041 25.7612245,14.1142857 L25.7612245,11.8857143 C25.7346939,11.0897959 25.1244898,10.4 24.3285714,10.3469388 Z" id="path-1"></path>
        <mask id="mask-2" maskContentUnits="userSpaceOnUse" maskUnits="objectBoundingBox" x="0" y="0" width="25.522449" height="25.522449" fill="white">
            <use xlink:href="#path-1"></use>
        </mask>
        <path d="M13,9.04693878 C10.8244898,9.04693878 9.04693878,10.8244898 9.04693878,13 C9.04693878,15.1755102 10.8244898,16.9530612 13,16.9530612 C15.1755102,16.9530612 16.9530612,15.1755102 16.9530612,13 C16.9530612,10.8244898 15.1755102,9.04693878 13,9.04693878 Z" id="path-3"></path>
        <mask id="mask-4" maskContentUnits="userSpaceOnUse" maskUnits="objectBoundingBox" x="0" y="0" width="7.90612245" height="7.90612245" fill="white">
            <use xlink:href="#path-3"></use>
        </mask>
    </defs>
    <g id="Icons" stroke="none" stroke-width="1" fill="none" fill-rule="evenodd">
        <g id="Settings_icon" stroke="#000000" stroke-width="2">
            <use id="Shape" mask="url(#mask-2)" xlink:href="#path-1"></use>
            <use id="Shape" mask="url(#mask-4)" xlink:href="#path-3"></use>
        </g>
    </g>
</svg>