
<svg width="27px" height="32px" viewBox="0 0 27 32" version="1.1" xmlns="http://www.w3.org/2000/svg" xmlns:xlink="http://www.w3.org/1999/xlink">
    <!-- Generator: Sketch 46.2 (44496) - http://www.bohemiancoding.com/sketch -->
    <desc>Created with Sketch.</desc>
    <defs></defs>
    <g id="Symbols" stroke="none" stroke-width="1" fill="none" fill-rule="evenodd">
        <g id="Business_member-Icon" transform="translate(-39.000000, -252.000000)" fill="#000000">
            <g id="Group-10">
                <g id="Group-8" transform="translate(39.000000, 252.000000)">
                    <g id="Page-1">
                        <polygon id="Fill-1" points="15.1712 14.031136 16.1712 14.031136 16.1712 12.4224 15.1712 12.4224"></polygon>
                        <polygon id="Fill-2" points="17.21984 14.03136 18.21984 14.03136 18.21984 8.6864 17.21984 8.6864"></polygon>
                        <polygon id="Fill-3" points="19.26752 14.03008 20.26752 14.03008 20.26752 5.96992 19.26752 5.96992"></polygon>
                        <polygon id="Fill-4" points="21.31744 14.03136 22.31744 14.03136 22.31744 11.11136 21.31744 11.11136"></polygon>
                        <path d="M9.1376,18.67136 C6.61136,18.67136 4.56384,20.718848 4.56384,23.24512 C4.56384,25.771392 6.611328,27.81888 9.1376,27.81888 C11.66384,27.81888 13.71136,25.771392 13.71136,23.24512 L9.1376,23.24512 L9.1376,18.67136 Z M12.56896,24.24512 C12.1352,25.730112 10.761472,26.81888 9.1376,26.81888 C7.167616,26.81888 5.56384,25.216384 5.56384,23.24512 C5.56384,21.621376 6.652576,20.247616 8.1376,19.81376 L8.1376,24.24512 L12.56896,24.24512 Z" id="Fill-5"></path>
                        <path d="M9.99264,18.1824 L9.99264,22.3888 L14.19904,22.3888 C14.2002912,20.066304 12.316544,18.1824 9.99264,18.1824 Z" id="Fill-6"></path>
                        <polygon id="Fill-7" points="15.1712 27.032416 16.1712 27.032416 16.1712 25.42368 15.1712 25.42368"></polygon>
                        <polygon id="Fill-8" points="17.21984 27.03232 18.21984 27.03232 18.21984 21.68736 17.21984 21.68736"></polygon>
                        <polygon id="Fill-9" points="19.26752 27.03136 20.26752 27.03136 20.26752 18.9712 19.26752 18.9712"></polygon>
                        <polygon id="Fill-10" points="21.31744 27.03264 22.31744 27.03264 22.31744 24.11264 21.31744 24.11264"></polygon>
                        <path d="M4.56256,10.24384 C4.56256,12.77008 6.610048,14.8176 9.13632,14.8176 C11.662592,14.8176 13.71008,12.770112 13.71008,10.24384 L9.13632,10.24384 L9.13632,5.67008 C6.611328,5.67008 4.56256,7.717568 4.56256,10.24384 Z M12.56896,11.24384 C12.1352,12.728832 10.761472,13.8176 9.1376,13.8176 C7.167616,13.8176 5.56384,12.215104 5.56384,10.24384 C5.56384,8.620096 6.652576,7.246336 8.1376,6.81248 L8.1376,11.24384 L12.56896,11.24384 Z" id="Fill-11"></path>
                        <path d="M9.99264,5.2 L9.99264,9.4064 L14.19904,9.4064 C14.2002912,7.083904 12.316544,5.2 9.99264,5.2 Z" id="Fill-12"></path>
                        <path d="M0.190016,32 L26.689856,32 L26.689856,0 L0.190016,0 L0.190016,32 Z M1.190016,1 L25.689856,1 L25.689856,31 L1.190016,31 L1.190016,1 Z" id="Fill-13"></path>
                        <polygon id="Fill-14" points="2.50496 2.315008 2.50496 6.123648 6.3136 2.315008"></polygon>
                    </g>
                </g>
            </g>
        </g>
    </g>
</svg>