
<svg width="26px" height="23px" viewBox="0 0 26 23" version="1.1" xmlns="http://www.w3.org/2000/svg" xmlns:xlink="http://www.w3.org/1999/xlink">
    <!-- Generator: Sketch 46.2 (44496) - http://www.bohemiancoding.com/sketch -->
    <desc>Created with Sketch.</desc>
    <defs></defs>
    <g id="Symbols" stroke="none" stroke-width="1" fill="none" fill-rule="evenodd">
        <g id="Business_member-Icon" transform="translate(-40.000000, -308.000000)" fill="#000000">
            <g id="Group-10">
                <g id="Group-7-Copy-3" transform="translate(40.000000, 308.000000)">
                    <path d="M12.935374,0.00305869293 C12.6443544,0.0352948341 12.4029902,0.310448483 12.4087847,0.601687784 L12.4087847,1.77136046 C11.3059094,2.53461845 10.1568556,2.95942347 8.86113605,2.95942347 C7.48225373,2.95942347 6.00640234,2.76486312 4.42657529,2.14895183 C4.3122464,2.08333015 4.17828719,2.05685278 4.04780467,2.07527259 C3.84801884,2.10290231 3.66554554,2.23989854 3.58587126,2.42524898 L0.0565515814,10.6496205 C-0.00118935602,10.7831626 -0.00234529819,10.8925321 0.00111957195,11.0272119 C0.0565515814,13.2479631 1.88926744,15.0427305 4.13087878,15.0427305 C6.37249011,15.0427305 8.17046799,13.2467842 8.26063739,11.0272119 C8.26641119,10.8982732 8.26987606,10.7854526 8.22368272,10.6772355 L5.2025643,3.65000426 C6.49021292,4.01150408 7.72239997,4.13811449 8.86107692,4.13811449 C10.1510315,4.13811449 11.3278161,3.76167251 12.4087255,3.14344474 L12.4087255,18.2845286 L6.49597785,18.2845286 C6.47750051,18.2833763 6.45902318,18.2833763 6.44054584,18.2845286 C6.13568457,18.3133107 5.9035501,18.5688833 5.90470308,18.8739625 L5.90470308,22.4105661 C5.90470308,22.7363757 6.16915959,23 6.49597785,23 L19.5040227,23 C19.8308499,23 20.0952975,22.7363668 20.0952975,22.4105661 L20.0952975,18.8739625 C20.0952975,18.5481529 19.830841,18.2845286 19.5040227,18.2845286 L13.5912751,18.2845286 L13.5912751,3.14344474 C14.6721845,3.76167251 15.8489691,4.13811449 17.1389237,4.13811449 C18.2776006,4.13811449 19.5097877,4.01147756 20.7974363,3.65000426 L17.7763179,10.6772355 C17.7301245,10.7854526 17.7335894,10.8982732 17.7393632,11.0272119 C17.829441,13.2467842 19.6275105,15.0427305 21.8691218,15.0427305 C24.1107331,15.0427305 25.9433006,13.2479631 25.9988804,11.0272119 C26.0023453,10.8925174 26.0011894,10.7831509 25.9434484,10.6496205 L22.4141293,2.42524898 C22.3344462,2.23989854 22.1519817,2.10288757 21.9521959,2.07527259 C21.8216986,2.05685278 21.6877394,2.08333015 21.5734253,2.14895183 C19.9935982,2.76485134 18.5177173,2.95942347 17.1388645,2.95942347 C15.843145,2.95942347 14.6940912,2.53461845 13.5912159,1.77136046 L13.5912159,0.601687784 C13.5981457,0.267832411 13.2690303,-0.0337809272 12.9352557,0.00305869293 L12.935374,0.00305869293 Z M4.13642293,4.12820513 L6.79545455,10.3205128 L1.47727273,10.3205128 L4.13642293,4.12820513 Z M21.8636957,4.12820513 L24.5227273,10.3205128 L19.2045455,10.3205128 L21.8636957,4.12820513 Z M1.18181818,11.5 L6.79545455,11.5 C6.51661,12.8373026 5.40237281,13.8589744 3.98869488,13.8589744 C2.57501694,13.8589744 1.46080315,12.8373026 1.18193521,11.5 L1.18181818,11.5 Z M18.9090909,11.5 L24.5227273,11.5 C24.2438827,12.8373026 23.1296455,13.8589744 21.7159676,13.8589744 C20.3022897,13.8589744 19.1880759,12.8373026 18.9092079,11.5 L18.9090909,11.5 Z M7.09090909,19.4615385 L18.9090909,19.4615385 L18.9090909,21.8205128 L7.09090909,21.8205128 L7.09090909,19.4615385 Z" id="Page-1"></path>
                </g>
            </g>
        </g>
    </g>
</svg>