
<svg width="43px" height="49px" viewBox="0 0 43 49" version="1.1" xmlns="http://www.w3.org/2000/svg" xmlns:xlink="http://www.w3.org/1999/xlink">
    <!-- Generator: Sketch 48.2 (47327) - http://www.bohemiancoding.com/sketch -->
    <desc>Created with Sketch.</desc>
    <defs></defs>
    <g id="Page-1" stroke="none" stroke-width="1" fill="none" fill-rule="evenodd">
        <g id="04.1-Select-and-upload-an-image-logo" transform="translate(-614.000000, -455.000000)" fill="#007FA3">
            <g id="Page-1" transform="translate(614.000000, 455.000000)">
                <path d="M7.1883975,11 C6.5308189,11 6,10.4888093 6,9.85554609 L6,1.14445391 C6,0.511190717 6.5308189,0 7.1883975,0 L32.8116025,0 C33.4672036,0 34,0.511190717 34,1.14445391 C34,1.77771711 33.4672036,2.28890783 32.8116025,2.28890783 L8.37689642,2.28890783 L8.37689642,9.85544843 C8.37689642,10.4868073 7.84410006,10.9999023 7.18849891,10.9999023 L7.1883975,11 Z" id="Fill-1"></path>
                <path d="M41.8276171,48.999998 L7.17257804,48.999998 C6.52375286,48.999998 6,48.4752277 6,47.8295026 L6,22.143328 C6,21.4956552 6.52375286,20.9728326 7.17257804,20.9728326 C7.82140321,20.9728326 8.34515607,21.4956552 8.34515607,22.143328 L8.34515607,46.6589083 L40.6548439,46.6589083 L40.6548439,11.1704954 C40.6548439,10.5228226 41.1805479,10 41.827422,10 C42.474296,10 43,10.5228226 43,11.1704954 L43,47.8295046 C43,48.4752297 42.474296,49 41.827422,49 L41.8276171,48.999998 Z" id="Fill-2"></path>
                <path d="M23.8421274,23 L1.15984669,23 C0.518066175,23 0,22.4639843 0,21.7999678 L0,10.2000322 C0,9.53601574 0.518066175,9 1.15984669,9 L23.8401479,9 C24.4799985,9 24.9999946,9.53601574 24.9999946,10.2000322 L24.9999946,21.7999678 C25.0019295,22.4619874 24.4819284,23 23.8421274,23 Z M2.31979087,20.5999868 L22.6806971,20.5999868 L22.6806971,11.3998084 L2.31979087,11.3998084 L2.31979087,20.5999868 Z" id="Fill-3"></path>
                <path d="M40.8757873,11 C40.5906995,11 40.3037391,10.8902374 40.0843115,10.6726016 L31.3345758,1.94430172 C30.8919371,1.50335204 30.8881871,0.784226562 31.3251985,0.33758915 C31.76221,-0.109033728 32.4749128,-0.112822321 32.9156885,0.328127355 L41.6654242,9.05642719 C42.1080629,9.49737687 42.1118129,10.2165023 41.6748015,10.6631398 C41.4553594,10.8883431 41.1665169,11 40.8757873,11 Z" id="Fill-4"></path>
                <path d="M32,11 C31.4483318,11 31,10.4850605 31,9.84715341 L31,1.15284659 C31,0.514939455 31.4483318,0 32,0 C32.5516682,0 33,0.514939455 33,1.15284659 L33,9.84715341 C33,10.4850605 32.5516682,11 32,11 Z" id="Fill-5"></path>
                <path d="M40.8473596,11 L32.1526404,11 C31.5167653,11 31,10.5533322 31,10 C31,9.4466678 31.5167653,9 32.1526404,9 L40.8473596,9 C41.4832347,9 42,9.4466678 42,10 C42,10.5533322 41.4832347,11 40.8473596,11 Z" id="Fill-6"></path>
                <path d="M7.51717915,13.3189942 C7.37115691,13.5191721 7.29640574,13.7965013 7.29640574,14.1447416 L7.29640574,17.4476777 C7.29640574,18.2066992 7.08779936,18.2066992 6.97480257,18.2066992 C6.88092859,18.2066992 6.82878034,18.1858486 6.80965753,18.1670799 C6.7661962,18.1253789 6.73838202,18.0795034 6.72099926,18.0232027 C6.68623376,17.9126885 6.65320386,17.762555 6.61843391,17.5748895 C6.56975686,17.3079856 6.49153002,17.1057204 6.3837534,16.9577008 C6.28987942,16.8305051 6.116043,16.6782845 5.82052731,16.6782845 C5.59453818,16.6782845 5.39462318,16.7700354 5.24163628,16.9431012 C5.1321196,17.0682151 5,17.2975817 5,17.6812507 C5,17.896023 5.02781418,18.1233077 5.07996689,18.356838 C5.1321196,18.5862099 5.20339066,18.7968131 5.29204893,18.9824074 C5.46588535,19.3410622 5.7005703,19.605895 5.98913912,19.7685462 C6.26032963,19.9228487 6.59410873,20 6.9817717,20 C7.4163672,20 7.79532544,19.8873986 8.10822388,19.6684573 C8.43504276,19.4390854 8.67144996,19.1137775 8.81399209,18.7009305 C8.89395898,18.4715586 8.94610724,18.2401049 8.96871016,18.0127988 C8.98957302,17.8084518 9,17.5623984 9,17.2704856 L9,14.1426917 C9,13.7923803 8.92350877,13.5129586 8.77401087,13.3127806 C8.45936348,12.8957433 7.82832863,12.8936561 7.5171658,13.3190369 L7.51717915,13.3189942 Z" id="Fill-7"></path>
                <path d="M14.8449671,14.114127 C14.7365694,13.8641285 14.5759077,13.6503596 14.3668574,13.4764468 C14.157802,13.3043474 13.9100356,13.1793481 13.629356,13.1050711 C13.3622341,13.0344208 13.0060749,13 12.5395804,13 L11.0994632,13 C10.7529768,13 10.4819799,13.0833344 10.2942226,13.2463764 C10.1006576,13.4166672 10,13.672101 10,14.0072332 L10,18.0054183 C10,18.3043304 10.0851722,18.54529 10.2555066,18.7192028 C10.4335911,18.9039862 10.6736123,19 10.9503921,19 C11.2213891,19 11.4575203,18.9021729 11.6375474,18.7192028 C11.8098243,18.541668 11.896929,18.2989135 11.896929,17.9981836 L11.896929,16.8931186 L12.5376528,16.8931186 C13.3157878,16.8931186 13.9216757,16.7264545 14.3397567,16.4003658 C14.7772179,16.0561622 14.9998063,15.5597873 14.9998063,14.9221072 C15.0036764,14.6250085 14.94948,14.3550588 14.8449523,14.1141316 L14.8449671,14.114127 Z M13.0912273,14.9401895 C13.0912273,15.050696 13.0699342,15.1340303 13.0273482,15.1883792 C12.9828295,15.2427281 12.9150803,15.284393 12.8163602,15.3133785 C12.6769917,15.3550433 12.4931044,15.3749714 12.2685488,15.3749714 L11.8988368,15.3749714 L11.8988368,14.514451 L12.2685488,14.514451 C12.8414837,14.514451 12.9731468,14.6231488 12.9808771,14.6285795 C13.0273333,14.6756797 13.0912124,14.7608274 13.0912124,14.9401756 L13.0912273,14.9401895 Z" id="Fill-8"></path>
                <path d="M20.8314512,16.356919 C20.7126755,16.1736183 20.5479275,16.0465582 20.3525231,15.9924025 C20.2605686,15.9674042 20.1590362,15.9507405 20.0479258,15.9403264 C20.2394951,15.9132485 20.413826,15.8215955 20.5575251,15.6737071 C20.7376037,15.4883213 20.8314708,15.2487799 20.8314708,14.9821499 C20.8314708,14.7696863 20.7720854,14.5468085 20.6513921,14.3010442 C20.5402818,14.0740019 20.3755288,13.8594586 20.1609685,13.6636641 C19.9483257,13.4678642 19.674375,13.305397 19.3467671,13.1825015 C18.6341325,12.9158822 17.626459,12.9471247 16.9042121,13.2387422 C16.4999951,13.4012147 16.149401,13.6407561 15.8639745,13.9510957 C15.5785479,14.2614352 15.3582496,14.6426529 15.2126428,15.0842278 C15.0708809,15.5133195 15,15.9882272 15,16.4985366 C15,17.0192761 15.0747111,17.498359 15.2203081,17.9253765 C15.3697353,18.3607178 15.5881259,18.7397918 15.8697271,19.05019 C16.1513284,19.3605882 16.4961453,19.6000657 16.8946145,19.7625435 C17.2815882,19.9208514 17.7145538,20 18.1819766,20 C18.5766156,20 18.9463509,19.9500089 19.2835172,19.8521116 C19.6168532,19.7542143 19.967413,19.5979914 20.3256675,19.3896924 C20.4693469,19.3042889 20.586205,19.2168058 20.6839072,19.1189085 C20.8065132,18.9980979 20.8927198,18.8543741 20.9406146,18.6939813 C20.9808441,18.5585867 21,18.3981992 21,18.2003196 L21,17.0567894 C21,16.7630922 20.9444448,16.5339649 20.8314169,16.3569137 L20.8314512,16.356919 Z M18.6034565,15.9340768 C18.3544145,15.9340768 18.1475145,16.0132308 17.9866016,16.1715333 C17.8161009,16.3381704 17.7260641,16.5589632 17.7260641,16.8109931 C17.7260641,17.1213539 17.84867,17.3713202 18.0747259,17.515028 C18.2413914,17.6233395 18.4578693,17.6733359 18.7375825,17.6733359 L19.214598,17.6733359 L19.214598,17.9670331 C19.0747487,18.0378525 18.9368171,18.0940932 18.800803,18.1378347 C18.6130639,18.200325 18.406164,18.2294825 18.1858608,18.2294825 C17.7720658,18.2294825 17.4617012,18.0920082 17.2414029,17.8108048 C17.0076866,17.5129431 16.8889109,17.0609647 16.8889109,16.4652305 C16.8889109,16.1861121 16.9214799,15.9299122 16.9866131,15.7070185 C17.0459985,15.4966398 17.13221,15.3195886 17.2414029,15.1800294 C17.3467655,15.0446348 17.471289,14.9446525 17.6207161,14.8717535 C17.772056,14.7988491 17.9521347,14.7634367 18.1551799,14.7634367 C18.3467491,14.7634367 18.5000065,14.7905146 18.6092043,14.8467553 C18.7203147,14.9029959 18.8046087,14.9675658 18.8639941,15.0425552 C18.9502007,15.1508666 19.0536507,15.3133391 19.193495,15.546631 C19.277789,15.6716114 19.3869819,15.7715937 19.513418,15.8424131 C19.5938769,15.8861547 19.6743358,15.9173971 19.7586298,15.9340662 L18.6034565,15.9340768 Z" id="Fill-9"></path>
            </g>
        </g>
    </g>
</svg>