<svg width="77px" height="46px" viewBox="0 0 77 46" version="1.1" xmlns="http://www.w3.org/2000/svg" xmlns:xlink="http://www.w3.org/1999/xlink">
    <desc>Created with Sketch.</desc>
    <defs>
        <filter x="-41.4%" y="-38.7%" width="182.8%" height="177.4%" filterUnits="objectBoundingBox" id="filter-1">
            <feGaussianBlur stdDeviation="4" in="SourceGraphic"></feGaussianBlur>
        </filter>
    </defs>
    <g id="Page-1" stroke="none" stroke-width="1" fill="none" fill-rule="evenodd">
        <g id="2a---Add-a-chart" transform="translate(-195.000000, -348.000000)">
            <g id="Popped-out" transform="translate(151.000000, 197.000000)">
                <g id="BG-Group">
                    <g id="Sample-Size" transform="translate(20.000000, 122.000000)">
                        <g id="Group-8" transform="translate(32.000000, 31.000000)">
                            <path d="M0,36 C0,22.2656665 8.15593172,10.4245973 19.9167411,5 L29,24.4848033 C24.6002372,26.4906995 21.5328992,30.886469 21.4803919,36 L6.01073806e-14,36 Z" id="Combined-Shape" fill-opacity="0.2" fill="#EA7600" filter="url(#filter-1)"></path>
                            <g id="Group-3" opacity="0.8" fill="#EA7600">
                                <path d="M0,35 C0,15.6700338 15.4461761,0 34.5,0 C53.5538239,0 69,15.6700338 69,35 L47.4368126,35 C47.3645261,27.8142372 41.6002081,22.0117188 34.5,22.0117188 C27.3997919,22.0117188 21.6354739,27.8142372 21.5631874,35 L0,35 Z" id="Combined-Shape" opacity="0.1"></path>
                                <path d="M0,35 C0,20.9268028 8.18736849,8.79358194 19.9935095,3.2351449 L29.1117796,23.2006918 C24.695058,25.2560789 21.6158971,29.7603042 21.5631874,35 L6.07300173e-14,35 Z" id="Combined-Shape"></path>
                            </g>
                            <path d="M27.5,38 C28.3284271,38 29,37.2778727 29,36.3870836 C29,35.4962945 27.5,2 27.5,2 C27.5,2 26,35.4962945 26,36.3870836 C26,37.2778727 26.6715729,38 27.5,38 Z" id="Oval-3" fill-opacity="0.810000002" fill="#000000" transform="translate(27.500000, 20.000000) rotate(-25.000000) translate(-27.500000, -20.000000) "></path>
                        </g>
                    </g>
                </g>
            </g>
        </g>
    </g>
</svg>