<?xml version="1.0" encoding="UTF-8"?>
<svg width="96px" height="90px" viewBox="0 0 96 90" version="1.1" xmlns="http://www.w3.org/2000/svg" xmlns:xlink="http://www.w3.org/1999/xlink">
    <!-- Generator: Sketch 43.2 (39069) - http://www.bohemiancoding.com/sketch -->
    <title>icon_nonotification</title>
    <desc>Created with Sketch.</desc>
    <defs></defs>
    <g id="Final" stroke="none" stroke-width="1" fill="none" fill-rule="evenodd">
        <g id="2-Notification---Full-views-Copy" transform="translate(-788.000000, -214.000000)" fill="#DDDDDD">
            <path d="M797.631972,274.986499 L788.91868,277.123914 C789.392184,279.008689 789.9871,280.885443 790.683192,282.702045 L799.080814,279.55808 C798.510181,278.070311 798.024535,276.534421 797.631972,274.986499 L797.631972,274.986499 Z M872.919186,279.55808 L881.316808,282.702045 C882.016947,280.885443 882.607816,279.008689 883.085367,277.123914 L874.368028,274.986499 C873.975465,276.534421 873.489819,278.070311 872.919186,279.55808 L872.919186,279.55808 Z M842.772733,292.202112 L829.227267,292.202112 C830.328064,294.828766 832.958644,296.68547 835.997976,296.68547 C839.041356,296.68547 841.675983,294.828766 842.772733,292.202112 L842.772733,292.202112 Z M871.381308,287.409972 C872.312128,288.095709 872.700645,289.290737 872.332364,290.37749 C871.964082,291.464243 870.936133,292.202112 869.77463,292.202112 L848.402175,292.202112 C847.123308,297.796284 842.03617,301.998931 835.997976,301.998931 C830.000253,301.998931 824.941444,297.836386 823.626154,292.286325 L828.001012,286.888651 L848.742127,286.888651 L863.214367,286.888651 C859.260402,282.240877 854.254205,274.212538 853.460984,262.711402 C853.371949,261.524395 853.586442,258.785456 853.930441,254.871541 L859.887694,247.52092 L859.887694,247.581072 C859.887694,248.679856 859.665107,251.186205 859.410143,254.08555 C859.134944,257.153322 858.762615,261.343938 858.835462,262.350488 C859.980777,278.844272 871.26799,287.325759 871.381308,287.409972 L871.381308,287.409972 Z M797.886936,254.450475 L789.226255,252.104531 C788.708233,253.969255 788.291387,255.886111 788,257.814998 L796.879221,259.13434 C797.122044,257.554338 797.457949,255.982355 797.886936,254.450475 L797.886936,254.450475 Z M813.168585,262.350488 C812.933856,265.694961 812.274187,268.69456 811.383837,271.377356 L818.543063,262.538965 C818.611863,261.14744 818.356899,258.10774 817.960288,253.628392 C817.733654,251.081941 817.502972,248.451277 817.502972,247.581072 C817.502972,237.519583 825.799418,229.334848 835.997976,229.334848 C838.855192,229.334848 841.53029,230.028606 843.946377,231.175511 L847.418743,226.892661 C844.023271,225.064029 840.134058,224.021388 835.997976,224.021388 C822.832933,224.021388 812.112306,234.588157 812.112306,247.581072 C812.112306,248.679856 812.334893,251.186205 812.593904,254.08956 C812.865056,257.153322 813.233338,261.343938 813.168585,262.350488 L813.168585,262.350488 Z M866.872897,240.290603 L873.947135,234.828766 C873.336031,234.058816 872.627798,233.353028 871.964082,232.611148 L866.282029,239.628927 C866.47224,239.853496 866.69078,240.058014 866.872897,240.290603 L866.872897,240.290603 Z M875.116732,259.13033 L884,257.814998 C883.708613,255.886111 883.291767,253.969255 882.773745,252.104531 L874.113064,254.450475 C874.538004,255.978345 874.877956,257.554338 875.116732,259.13033 L875.116732,259.13033 Z M808.340458,236.70151 L801.962312,230.457693 C800.578222,231.837188 799.258885,233.304906 798.052865,234.828766 L805.127103,240.294613 C806.114582,239.043443 807.195144,237.832375 808.340458,236.70151 L808.340458,236.70151 Z M804.738586,304 L798.425193,298.979281 L867.257367,214 L873.57076,219.020719 L804.738586,304 Z" id="icon_nonotification"></path>
        </g>
    </g>
</svg>