<?xml version="1.0" encoding="UTF-8" standalone="no"?>
<svg width="21px" height="21px" viewBox="0 0 21 21" version="1.1" xmlns="http://www.w3.org/2000/svg" xmlns:xlink="http://www.w3.org/1999/xlink">
    <!-- Generator: sketchtool 40.3 (33839) - http://www.bohemiancoding.com/sketch -->
    <title>BF8D2188-F530-4E97-A844-CB7DF20F0151</title>
    <desc>Created with sketchtool.</desc>
    <defs></defs>
    <g id="Header-and-Footer-Interaction" stroke="none" stroke-width="1" fill="none" fill-rule="evenodd">
        <g id="Header---Bookmarked" transform="translate(-1308.000000, -30.000000)" fill="#000000">
            <g id="header">
                <g id="Icon-4" transform="translate(1308.000000, 30.000000)">
                    <path d="M21,1.90995477 L21,19.0900452 C21,20.1448841 20.1442064,21 19.0900452,21 L1.90995477,21 C0.855115876,21 0,20.1442064 0,19.0900452 L0,1.90995477 C0,0.855115876 0.855793544,0 1.90995477,0 L19.0900452,0 C20.1448841,0 21,0.855793544 21,1.90995477 Z M1.90909091,1.90909091 L19.0909091,1.90909091 L19.0909091,19.0909091 L1.90909091,19.0909091 L1.90909091,1.90909091 L1.90909091,1.90909091 L1.90909091,1.90909091 Z M12.3019779,17.5619124 L17.6040978,17.6040978 L17.5619124,12.3019779 L15.6354482,12.2879161 L15.6536458,14.3037147 L12.5658402,11.2159091 L11.2159091,12.5658402 L14.3037147,15.6536458 L12.2879161,15.6354482 L12.3019779,17.5619124 L12.3019779,17.5619124 L12.3019779,17.5619124 Z M8.64302901,3.38309444 L3.34090909,3.34090909 L3.38309444,8.64302901 L5.30955865,8.65709078 L5.29136105,6.64129217 L8.37916666,9.72909778 L9.72909778,8.37916666 L6.64129217,5.29136105 L8.65709078,5.30955865 L8.64302901,3.38309444 L8.64302901,3.38309444 L8.64302901,3.38309444 Z" id="Shape"></path>
                </g>
            </g>
        </g>
    </g>
</svg>