<svg xmlns="http://www.w3.org/2000/svg" viewBox="0 0 22 18.408">
  <path id="Exercise" d="M14.143,18.408H12.208l1.879-4.321L12.32,10.776a1.809,1.809,0,0,1,.307-2.133l2.89-2.806-.869-1.32-3.509,3a.959.959,0,0,0-.307,1.037l1.291,3.9a1.8,1.8,0,0,1-.257,1.616,1.746,1.746,0,0,1-1.426.742H6.286v-1.8h4.154l-1.32-3.9a2.738,2.738,0,0,1,.843-2.973L13.3,3.311,11.561,2.3l-3.424.981L7.66,1.544l3.4-.957A1.958,1.958,0,0,1,11.42.534c.045,0,.1-.006.159-.006a1.7,1.7,0,0,1,.879.231L15.126,2.33a1.81,1.81,0,0,1,.588.532l1.938,2.89a1.852,1.852,0,0,1,.308,1.01V8.531h3.592v1.8H17.959a1.82,1.82,0,0,1-1.8-1.8V7.717L13.889,9.933l1.769,3.312a1.793,1.793,0,0,1,.056,1.571l-1.571,3.59Zm-6.51-8.081H0v-1.8H7.21a4.785,4.785,0,0,0,.225,1.178l.2.616ZM7.465,6.735H0v-1.8H8.643A4.58,4.58,0,0,0,7.465,6.734ZM19.306,5.387A2.694,2.694,0,1,1,22,2.694,2.7,2.7,0,0,1,19.306,5.387Zm0-3.592a.9.9,0,1,0,.9.9A.889.889,0,0,0,19.306,1.8Z"/>
</svg>
