<svg width="44" height="37" viewBox="0 0 44 37" fill="none" xmlns="http://www.w3.org/2000/svg">
    <path fill-rule="evenodd" clip-rule="evenodd" d="M43.4967 20.9799L37.8584 3.4896C37.534 2.46968 36.9331 1.64223 36.0557 1.00737C35.1783 0.372506 34.2145 0.0551758 33.1656 0.0551758H10.7882C9.73863 0.0551758 8.77564 0.372304 7.89795 1.00737C7.02026 1.64223 6.41929 2.46968 6.09515 3.4896L0.457841 20.9799C0.152647 21.9424 0 22.6639 0 23.1449V32.3808C0 33.6505 0.448118 34.7371 1.34476 35.6418C2.24149 36.5465 3.31934 36.9987 4.57851 36.9987H39.3752C40.6341 36.9987 41.712 36.5465 42.609 35.6418C43.5056 34.7371 43.9532 33.6505 43.9532 32.3808V23.1449C43.9532 22.6639 43.8018 21.9424 43.4967 20.9799ZM9.58639 4.61477C9.66286 4.36467 9.81531 4.15773 10.0442 3.99446C10.2733 3.83079 10.5212 3.74901 10.7882 3.74901H33.1653C33.4325 3.74901 33.6808 3.83089 33.9096 3.99446C34.1384 4.15773 34.291 4.36467 34.3671 4.61477L38.8596 18.5269H5.09378L9.58639 4.61477ZM40.0193 33.03C40.2004 32.8469 40.2917 32.6307 40.2917 32.3809H40.2914V23.145C40.2914 22.8944 40.2005 22.6786 40.0194 22.4952C39.8378 22.3125 39.6236 22.2219 39.3759 22.2219H4.57851C4.33054 22.2219 4.11605 22.3129 3.93474 22.4952C3.75363 22.6787 3.66292 22.8944 3.66292 23.145V32.3809C3.66292 32.6307 3.75363 32.8469 3.93474 33.03C4.11595 33.2129 4.33054 33.3036 4.57851 33.3036H39.3758C39.6235 33.3036 39.8375 33.2129 40.0193 33.03Z" fill="#4A4A4A"/>
    <path d="M27.471 25.4539C26.8412 25.4539 26.3021 25.6794 25.8541 26.132C25.4058 26.5845 25.1812 27.128 25.1812 27.7628C25.1812 28.3976 25.4054 28.9415 25.8541 29.3936C26.3024 29.8462 26.8412 30.0717 27.471 30.0717C28.1007 30.0717 28.6399 29.8462 29.0878 29.3936C29.5358 28.9418 29.7609 28.398 29.7609 27.7628C29.7609 27.128 29.5366 26.5838 29.0878 26.132C28.6393 25.6798 28.1008 25.4539 27.471 25.4539Z" fill="#4A4A4A"/>
    <path d="M34.7968 25.4539C34.1671 25.4539 33.6279 25.6801 33.1796 26.132C32.7312 26.5845 32.5073 27.128 32.5073 27.7628C32.5073 28.3976 32.7312 28.9415 33.1796 29.3936C33.6279 29.8462 34.1671 30.0717 34.7968 30.0717C35.4259 30.0717 35.9658 29.8462 36.4137 29.3936C36.8617 28.9418 37.0867 28.398 37.0867 27.7628C37.0867 27.128 36.8624 26.5838 36.4137 26.132C35.965 25.6798 35.426 25.4539 34.7968 25.4539Z" fill="#4A4A4A"/>
</svg>
