<svg xmlns="http://www.w3.org/2000/svg" width="112" height="97" viewBox="0 0 112 97">
    <path fill="#DDD" fill-rule="evenodd" d="M16.8 92.1l4.715 4.9 88.618-92.1-4.719-4.9L16.8 92.1zm65.65-51.841L60.522 63.05c11.805-4.454 20.26-12.874 21.93-22.791zM40 61.405c-1.15-.039-2.3-.074-3.424-.175a2.422 2.422 0 0 0-2.027.827c-4.592 5.308-9.942 8.57-15.967 9.793 2.09-3.07 4.233-6.876 5.678-10.589a2.57 2.57 0 0 0-.022-1.92 2.466 2.466 0 0 0-1.344-1.347C11.775 53.497 4.872 45.322 4.872 36.654c0-13.677 16.378-24.808 36.52-24.808 14.425 0 26.89 5.727 32.815 14.003l3.402-3.531c-.075-.105-.131-.214-.213-.31.157.011.306.03.463.046l4.323-4.49a52.206 52.206 0 0 0-8.598-.725c-.373 0-.713.101-1.03.256C64.96 10.83 53.824 6.84 41.39 6.84 18.57 6.84 0 20.22 0 36.654 0 46.77 7.13 56.174 18.782 61.63c-2.318 5.009-5.6 9.58-7.444 11.48a2.55 2.55 0 0 0-.526 2.732c.377.935 1.262 1.552 2.247 1.552 5.56 0 10.685-1.35 15.355-3.95L40 61.405zm54.72 6.32c2.127 4.517 5.133 8.707 6.76 10.38.699.721.911 1.784.523 2.727-.377.943-1.262 1.568-2.251 1.568-8.684 0-16.259-3.446-22.523-10.24-7.586.551-15.479-.655-22.266-3.333l3.845-3.996c5.981 1.979 12.72 2.825 19.201 2.243.743-.082 1.516.24 2.023.826 4.1 4.718 8.856 7.698 14.198 8.881-1.855-2.778-3.726-6.146-4.995-9.432a2.57 2.57 0 0 1 .023-1.92 2.543 2.543 0 0 1 1.344-1.355c10.195-4.097 16.527-11.581 16.527-19.508 0-6.996-4.708-13.239-12.074-17.406l3.491-3.632C106.765 28.618 112 36.146 112 44.566c0 9.374-6.563 18.061-17.282 23.16z"/>
</svg>
