<svg width="52px" height="59px" viewBox="0 0 52 59" version="1.1" xmlns="http://www.w3.org/2000/svg" xmlns:xlink="http://www.w3.org/1999/xlink">
    <!-- Generator: Sketch 51.3 (57544) - http://www.bohemiancoding.com/sketch -->
    <desc>Created with Sketch.</desc>
    <defs></defs>
    <g id="-----" stroke="none" stroke-width="1" fill="none" fill-rule="evenodd" stroke-linecap="round" stroke-linejoin="round">
        <g id="7.-Add-Qualification" transform="translate(-930.000000, -744.000000)" fill="#D1D1D1" stroke="#D1D1D1">
            <g id="Sheild" transform="translate(930.000000, 744.000000)">
                <path d="M25.6451559,57.9974885 L25.0834352,57.7418509 C2.3374224,47.3743065 0.787853894,14.6928556 0.732482646,13.3073929 L0.716342341,12.8658371 L1.03916498,12.5346721 C7.77007737,5.58304058 24.5669868,0.850826581 25.2802015,0.653009579 L25.6449989,0.551334615 L26.0097962,0.653009579 C26.7200193,0.850551422 43.5203336,5.58274311 50.2508328,12.5346721 L50.5736554,12.8658371 L50.5575151,13.3073929 C50.5026314,14.6930787 48.9562943,47.3743065 26.2065625,57.7418509 L25.6451559,57.9974885 Z M4.14227449,14.2971963 C4.39630717,18.0411297 6.8808722,45.3835263 25.6451559,54.4291709 C44.4095189,45.3828127 46.8942505,18.043913 47.1480373,14.2971963 C41.4291892,8.75519564 27.9934771,4.64065841 25.6451559,3.95197619 C23.3000071,4.64054422 9.85485719,8.75805028 4.14227449,14.2971963 Z" id="Fill-1"></path>
                <polygon id="Fill-2" points="36.7580645 23.8461538 26.5 23.8461538 26.5 15.3846154 23.9354839 15.3846154 23.9354839 23.8461538 13.6774194 23.8461538 13.6774194 26.1538462 23.9354839 26.1538462 23.9354839 36.1538462 26.5 36.1538462 26.5 26.1538462 36.7580645 26.1538462"></polygon>
            </g>
        </g>
    </g>
</svg>