<?xml version="1.0" encoding="UTF-8"?>
<svg width="40px" height="50px" viewBox="0 0 40 50" version="1.1" xmlns="http://www.w3.org/2000/svg" xmlns:xlink="http://www.w3.org/1999/xlink">
    <!-- Generator: Sketch 52.6 (67491) - http://www.bohemiancoding.com/sketch -->
    <title>Group</title>
    <desc>Created with Sketch.</desc>
    <g id="Page-1" stroke="none" stroke-width="1" fill="none" fill-rule="evenodd" opacity="0.200000003">
        <g id="4.-Qualification-page-(step-1---full-height)-Copy-20" transform="translate(-941.000000, -594.000000)" fill="#875BA9" fill-rule="nonzero">
            <g id="Popup-Filter-Bar" transform="translate(250.000000, 178.000000)">
                <g id="Group-13">
                    <g id="Group-17" transform="translate(684.000000, 281.000000)">
                        <g id="Upload-s26.3" transform="translate(7.000000, 135.000000)">
                            <g id="Group">
                                <g id="Shape">
                                    <path d="M5.85786438,15.2562851 C-1.95262146,23.1535541 -1.95262146,35.957557 5.85786438,43.854826 C13.6683502,51.752095 26.3316498,51.752095 34.1421356,43.854826 C41.9526215,35.957557 41.9526215,23.1535541 34.1421356,15.2562851 C33.541329,14.6488029 32.5672291,14.6488029 31.9664225,15.2562851 C31.3656158,15.8637673 31.3656158,16.8486906 31.9664225,17.4561728 C38.5752951,24.1384774 38.5752951,34.9726337 31.9664225,41.6549383 C25.3575498,48.3372428 14.6424502,48.3372428 8.03357754,41.6549383 C1.42470492,34.9726337 1.42470492,24.1384774 8.03357754,17.4561728 C8.63438415,16.8486906 8.63438415,15.8637673 8.03357754,15.2562851 C7.43277092,14.6488029 6.458671,14.6488029 5.85786438,15.2562851 Z M18.6787225,37.9613902 C19.4238055,38.7243477 20.6315495,38.7212807 21.3801949,37.950524 L30.2917155,28.7758007 C31.7395854,27.3088608 29.5685482,25.1092285 28.1206783,26.5761685 L22.0743112,32.7074141 C21.7766848,33.0092184 21.5354111,32.9111312 21.5354111,32.4831266 L21.5354111,2.33322654 C21.5354111,1.47417589 20.8539068,0.777777778 20.0000241,0.777777778 C19.1520533,0.777777778 18.4646372,1.47111191 18.4646372,2.33322654 L18.4646372,32.4831266 C18.4646372,32.9088015 18.2224541,33.0082963 17.9257371,32.7074141 L11.8793699,26.5761685 C10.4322677,25.1092285 8.26046285,27.3088608 9.70833277,28.7758007 L18.6787225,37.9613902 Z" transform="translate(20.000000, 25.277778) rotate(180.000000) translate(-20.000000, -25.277778) "></path>
                                </g>
                            </g>
                        </g>
                    </g>
                </g>
            </g>
        </g>
    </g>
</svg>