<svg width="37" height="35" viewBox="0 0 37 35" fill="none" xmlns="http://www.w3.org/2000/svg">
<path opacity="0.3" fill-rule="evenodd" clip-rule="evenodd" d="M28.6592 25.1142L34.2105 17.6564L36.0298 29.914L28.6592 25.1142ZM17.083 33.2876L22.658 26.6187L24.2975 27.8239C25.1613 28.4593 26.2965 28.2878 26.9382 27.4255L28.1564 25.7894L35.4235 30.5218L17.083 33.2876ZM14.5073 20.6278L21.9808 26.1213L16.3259 32.8848L14.5073 20.6278ZM33.5305 17.1668L26.2694 26.9196C25.9041 27.4102 25.2819 27.5042 24.7903 27.1428L15.0157 19.9586L33.5305 17.1668ZM36.993 30.7399L36.9955 30.7236L34.8899 16.5352L34.8131 16.5468L34.8853 16.5208C34.8769 16.4753 34.8638 16.4358 34.8458 16.401L34.828 16.3709L34.8271 16.3719L34.8231 16.3659C34.7997 16.3305 34.7705 16.2982 34.7363 16.27C34.727 16.2628 34.7174 16.2565 34.6999 16.2456C34.6701 16.2264 34.6384 16.2114 34.602 16.1995C34.5889 16.1948 34.5759 16.1904 34.5634 16.1879C34.5087 16.176 34.4596 16.1738 34.4148 16.181L13.8839 19.2769C13.8379 19.2835 13.7922 19.3004 13.744 19.3274C13.7331 19.3336 13.7238 19.3402 13.707 19.3521C13.6784 19.3725 13.6532 19.3957 13.6258 19.428C13.6174 19.4377 13.6093 19.4474 13.6019 19.4581C13.5776 19.4941 13.5593 19.5333 13.5487 19.57L13.54 19.5932C13.5291 19.6386 13.5266 19.6872 13.5329 19.7273L13.5313 19.7449L15.6394 33.9411C15.6478 33.9913 15.6627 34.0352 15.6898 34.0816C15.6951 34.0913 15.7013 34.0991 15.7109 34.1104C15.7342 34.1439 15.7591 34.1712 15.7858 34.1928C15.7961 34.2016 15.807 34.2091 15.8266 34.222C15.8561 34.2405 15.8863 34.2549 15.9264 34.2684C15.9379 34.2728 15.9494 34.2762 15.9618 34.279C15.9957 34.2866 16.0277 34.29 16.0582 34.29C16.0763 34.29 16.0943 34.2891 16.1117 34.2862L36.6417 31.1903C36.6877 31.1834 36.734 31.1668 36.7819 31.1399C36.7944 31.133 36.8052 31.1251 36.8208 31.1135C36.8485 31.0938 36.873 31.0709 36.8982 31.0411C36.9078 31.0299 36.9172 31.0186 36.9256 31.0057C36.9452 30.9756 36.961 30.9427 36.975 30.901C36.9794 30.8919 36.9831 30.8822 36.9822 30.8822L36.9818 30.8825L36.9887 30.8625C36.9983 30.8176 36.9996 30.7716 36.993 30.7399ZM14.0266 31.0311H0V29.5507H13.8071L14.0266 31.0311ZM3.10929 16.2992H8.39507V12.8513H3.10929V16.2992ZM9.01693 11.9109H2.48743C2.31549 11.9109 2.1765 12.051 2.1765 12.2244V16.9261C2.1765 17.0994 2.31549 17.2395 2.48743 17.2395H9.01693C9.18887 17.2395 9.32786 17.0994 9.32786 16.9261V12.2244C9.32786 12.051 9.18887 11.9109 9.01693 11.9109ZM13.4557 27.1829H0V25.7025H13.2359L13.4557 27.1829ZM32.3366 12.2244V15.3055L31.4038 15.4463V12.8513H26.118V16.2434L25.1852 16.3841V12.2244C25.1852 12.051 25.3242 11.9109 25.4961 11.9109H32.0256C32.1976 11.9109 32.3366 12.051 32.3366 12.2244ZM20.2057 15.0075V17.1351L19.2729 17.2756V15.3588H15.2405V17.8839L14.3077 18.0244V15.0075C14.3077 14.6821 14.5695 14.4185 14.8919 14.4185H19.6215C19.9439 14.4185 20.2057 14.6821 20.2057 15.0075ZM0.932786 8.77647H10.5809L10.5716 22.2361H0.932786V8.77647ZM15.2355 4.07479H19.2776V1.7763H15.2355V4.07479ZM12.864 23.195L12.7244 22.2546H11.505C11.5068 19.318 11.5121 10.2816 11.5159 6.16453H22.9972C22.9997 8.6815 23.0028 13.0365 23.0047 16.7129L23.9375 16.5722L23.9322 8.77647H33.5803V15.1181L34.2419 15.0184C34.3163 15.0071 34.3921 15.0015 34.468 15.0015C34.4826 15.0015 34.4978 15.0034 34.5131 15.004V7.85463C34.5131 7.32491 34.0952 6.8958 33.5803 6.8958H23.9415L23.9275 4.38573C23.9272 4.21302 23.7879 4.07479 23.6166 4.07479H20.2104V0.313446C20.2104 0.14011 20.0714 0 19.8994 0H14.6136C14.4417 0 14.3027 0.14011 14.3027 0.313446V4.07479H10.8965C10.7252 4.07479 10.5859 4.21302 10.5856 4.38573L10.5716 6.8958H0.932786C0.417888 6.8958 0 7.32491 0 7.85463V23.195H10.5716H12.864Z" fill="#127FA1"/>
</svg>
