<svg width="95" height="112" viewBox="0 0 95 112" fill="none" xmlns="http://www.w3.org/2000/svg">
<path opacity="0.3" fill-rule="evenodd" clip-rule="evenodd" d="M91.1617 101.165L68.6868 86.6385L64.9063 91.677C63.0626 94.137 59.799 94.6246 57.3181 92.8133L52.2304 89.1023L34.9877 109.573L91.1617 101.165ZM27.5336 71.084L33.1421 108.598L50.5786 87.8979L27.5336 71.084ZM69.9129 85.0034L92.6411 99.6929L87.0317 62.1788L69.9129 85.0034ZM28.7736 69.4639L52.6645 86.893L58.5199 91.1643C60.1009 92.3183 62.1011 92.0191 63.2759 90.453L67.6248 84.6539H67.6257L85.3725 60.9921L28.7736 69.4639ZM94.9916 101.623C94.9926 101.632 94.9888 101.639 94.9898 101.649C95.0047 101.76 95.0047 101.875 94.9805 101.99C94.9786 101.997 94.9739 102.003 94.9721 102.01C94.9655 102.038 94.9497 102.063 94.9413 102.09C94.9115 102.179 94.8743 102.261 94.8249 102.337C94.8025 102.369 94.7783 102.397 94.7522 102.427C94.6982 102.491 94.6376 102.546 94.5696 102.595C94.5389 102.618 94.5109 102.64 94.4774 102.659C94.3712 102.718 94.2584 102.765 94.1336 102.783L32.6185 111.99C32.4937 112.01 32.3716 111.998 32.2542 111.973C32.216 111.964 32.1825 111.95 32.1471 111.939C32.067 111.912 31.9934 111.877 31.9226 111.832C31.89 111.81 31.8583 111.791 31.8275 111.766C31.7567 111.709 31.6971 111.641 31.6431 111.564C31.6272 111.541 31.6058 111.522 31.5918 111.497C31.5872 111.491 31.5816 111.486 31.5779 111.479C31.5201 111.377 31.4866 111.268 31.4679 111.156C31.4661 111.148 31.4605 111.141 31.4586 111.133L25.1561 68.9735C25.1542 68.9605 25.1589 68.9484 25.1579 68.9362C25.1449 68.8188 25.1458 68.6985 25.1747 68.5792C25.1747 68.5774 25.1756 68.5764 25.1766 68.5746C25.1803 68.5606 25.1887 68.5494 25.1924 68.5345C25.2232 68.4329 25.2679 68.3387 25.3266 68.253C25.3471 68.2222 25.3722 68.197 25.3955 68.1691C25.4514 68.1038 25.512 68.0479 25.5818 67.9985C25.6126 67.977 25.6396 67.9556 25.6722 67.9369C25.7775 67.8782 25.8902 67.8316 26.0132 67.8139L87.5302 58.6067C87.6522 58.5871 87.7733 58.5992 87.8916 58.6244C87.928 58.6318 87.9615 58.6449 87.9969 58.6561C88.077 58.6831 88.1534 58.7195 88.2252 58.7651C88.2559 58.7847 88.2857 58.8024 88.3146 58.8248C88.3947 58.8891 88.4655 58.9656 88.5251 59.0551C88.5335 59.0672 88.5447 59.0765 88.5531 59.0886C88.5531 59.0895 88.555 59.0905 88.555 59.0923C88.6192 59.1977 88.6546 59.3133 88.6761 59.4298C88.6779 59.4419 88.6872 59.4512 88.6891 59.4643L94.9916 101.623ZM22.4953 76.3779H4.41969C5.40257 66.2944 13.3075 59.1856 23.9347 59.1856C25.1253 59.1856 26.0924 58.2226 26.0924 57.0359C26.0924 55.8502 25.1253 54.8863 23.9347 54.8863C10.2909 54.8863 0 65.0481 0 78.5275C0 79.7133 0.96704 80.6762 2.15767 80.6762H23.1372L22.4953 76.3779ZM19.4163 33.3873C19.4163 35.9629 21.5525 39.3961 23.7316 39.3961C24.9222 39.3961 25.8883 40.3675 25.8883 41.5458C25.8883 48.6416 31.6366 54.8789 38.1869 54.8789H38.8335C45.3838 54.8789 51.1301 48.6546 51.1301 41.5458C51.1301 40.3675 52.1018 39.3961 53.2887 39.3961C55.4716 39.3961 58.2506 36.0309 58.2506 33.3873V29.0899C58.1593 28.5828 56.5933 27.37 55.2126 26.751C54.4365 26.408 53.9353 25.638 53.9353 24.7915V16.1949C53.9353 4.29739 49.0722 4.29739 46.9927 4.29739C43.5326 4.29739 39.1921 5.93151 34.9942 7.49573C33.5865 8.02428 32.2104 8.54071 30.8978 8.99562C30.6742 9.07299 30.4413 9.10282 30.2037 9.10282C25.4318 9.10282 23.7316 13.444 23.7316 17.4841V24.7915C23.7316 25.9736 22.7655 26.9402 21.5749 26.9402C20.3833 26.9402 19.4163 27.9078 19.4163 29.0899V33.3873ZM15.1065 33.3966V29.0973C15.1065 26.2961 16.9102 23.906 19.4219 23.0204V17.4925C19.4219 10.062 23.5891 5.02356 29.8329 4.82128C31.0068 4.41391 32.2319 3.96273 33.4784 3.48545C38.036 1.77489 42.751 0 47.0021 0C54.4654 0 58.2544 5.45423 58.2544 16.2033V23.4939C59.963 24.4727 62.5697 26.4126 62.5697 29.0973V33.3966C62.5697 37.2941 59.3584 42.0827 55.3505 43.3812C54.4272 51.9853 47.1055 59.1856 38.8335 59.1856H38.1869C29.9158 59.1856 22.5885 51.9853 21.6736 43.3719C17.8511 42.1004 15.1065 37.4665 15.1065 33.3966V33.3966ZM66.2078 58.0278L56.9864 59.4074C55.9979 59.2741 54.9862 59.1856 53.94 59.1856C52.7531 59.1856 51.7814 58.2226 51.7814 57.0359C51.7814 55.8502 52.7531 54.8863 53.94 54.8863C58.4891 54.8863 62.661 56.0217 66.2078 58.0278V58.0278Z" fill="#127FA1"/>
</svg>
