<?xml version="1.0" encoding="UTF-8" standalone="no"?>
<svg width="24px" height="24px" viewBox="0 0 24 24" version="1.1" xmlns="http://www.w3.org/2000/svg" xmlns:xlink="http://www.w3.org/1999/xlink">
    <!-- Generator: Sketch 41 (35326) - http://www.bohemiancoding.com/sketch -->
    <title>Slice 1</title>
    <desc>Created with Sketch.</desc>
    <defs>
        <path d="M11,2.491 C11,1.115 9.885,0 8.509,0 L2.903,0 C1.527,0 0.412,1.115 0.412,2.491 L0.412,8.097 C0.412,9.473 1.527,10.588 2.903,10.588 L8.509,10.588 C9.885,10.588 11,9.473 11,8.097 L11,2.491 Z M9.588,8.096 C9.588,8.693 9.105,9.176 8.509,9.176 L2.903,9.176 C2.307,9.176 1.824,8.693 1.824,8.096 L1.824,2.492 C1.824,1.895 2.307,1.412 2.903,1.412 L8.509,1.412 C9.105,1.412 9.588,1.895 9.588,2.492 L9.588,8.096 Z" id="path-1"></path>
        <path d="M10,2.491 C10,1.115 8.947,0 7.647,0 L2.353,0 C1.053,0 0,1.115 0,2.491 L0,8.097 C0,9.473 1.053,10.588 2.353,10.588 L7.647,10.588 C8.947,10.588 10,9.473 10,8.097 L10,2.491 Z M8.667,8.096 C8.667,8.693 8.21,9.176 7.647,9.176 L2.353,9.176 C1.79,9.176 1.333,8.693 1.333,8.096 L1.333,2.492 C1.333,1.895 1.79,1.412 2.353,1.412 L7.647,1.412 C8.21,1.412 8.667,1.895 8.667,2.492 L8.667,8.096 Z" id="path-3"></path>
        <path d="M2.35719918,10.94 C1.24383326,10.6910297 0.412,9.69649988 0.412,8.508 L0.412,2.904 C0.412,1.527 1.527,0.412 2.903,0.412 L8.509,0.412 C9.885,0.412 11,1.527 11,2.904 L11,8.508 C11,9.69649988 10.1681667,10.6910297 9.05480082,10.94 L2.35719918,10.94 L2.35719918,10.94 Z M9.588,8.509 C9.588,9.105 9.105,9.588 8.509,9.588 L2.903,9.588 C2.307,9.588 1.824,9.105 1.824,8.509 L1.824,2.903 C1.824,2.307 2.307,1.824 2.903,1.824 L8.509,1.824 C9.105,1.824 9.588,2.307 9.588,2.903 L9.588,8.509 Z" id="path-5"></path>
        <path d="M1.94519918,10.94 C0.831833262,10.6910297 0,9.69649988 0,8.508 L0,2.904 C0,1.527 1.115,0.412 2.491,0.412 L8.097,0.412 C9.473,0.412 10.588,1.527 10.588,2.904 L10.588,8.508 C10.588,9.69649988 9.75616674,10.6910297 8.64280082,10.94 L1.94519918,10.94 L1.94519918,10.94 Z M9.176,8.509 C9.176,9.105 8.693,9.588 8.097,9.588 L2.491,9.588 C1.895,9.588 1.412,9.105 1.412,8.509 L1.412,2.903 C1.412,2.307 1.895,1.824 2.491,1.824 L8.097,1.824 C8.693,1.824 9.176,2.307 9.176,2.903 L9.176,8.509 Z" id="path-7"></path>
    </defs>
    <g id="Page-1" stroke="none" stroke-width="1" fill="none" fill-rule="evenodd">
        <g id="Card_view">
            <g id="Group-3" transform="translate(13.000000, 0.000000)">
                <mask id="mask-2" fill="white">
                    <use xlink:href="#path-1"></use>
                </mask>
                <g id="Clip-2"></g>
                <polygon id="Fill-1" fill="#6D6D6D" mask="url(#mask-2)" points="0.32 10.62 11 10.62 11 -0.06 0.32 -0.06"></polygon>
            </g>
            <g id="Group-6">
                <mask id="mask-4" fill="white">
                    <use xlink:href="#path-3"></use>
                </mask>
                <g id="Clip-5"></g>
                <polygon id="Fill-4" fill="#6D6D6D" mask="url(#mask-4)" points="0 10.62 10.08 10.62 10.08 -0.06 0 -0.06"></polygon>
            </g>
            <g id="Group-9" transform="translate(13.000000, 13.000000)">
                <mask id="mask-6" fill="white">
                    <use xlink:href="#path-5"></use>
                </mask>
                <g id="Clip-8"></g>
                <polygon id="Fill-7" fill="#6D6D6D" mask="url(#mask-6)" points="0.32 10.94 11 10.94 11 0.38 0.32 0.38"></polygon>
            </g>
            <g id="Group-12" transform="translate(0.000000, 13.000000)">
                <mask id="mask-8" fill="white">
                    <use xlink:href="#path-7"></use>
                </mask>
                <g id="Clip-11"></g>
                <polygon id="Fill-10" fill="#6D6D6D" mask="url(#mask-8)" points="0 10.94 10.68 10.94 10.68 0.38 0 0.38"></polygon>
            </g>
        </g>
    </g>
</svg>