<?xml version="1.0" encoding="UTF-8"?>
<svg width="17px" height="18px" viewBox="0 0 17 18" version="1.1" xmlns="http://www.w3.org/2000/svg" xmlns:xlink="http://www.w3.org/1999/xlink">
    <!-- Generator: Sketch 43.2 (39069) - http://www.bohemiancoding.com/sketch -->
    <title>icon_textsmaller</title>
    <desc>Created with Sketch.</desc>
    <defs></defs>
    <g id="Overview" stroke="none" stroke-width="1" fill="none" fill-rule="evenodd">
        <path d="M8.54060468,3.16974677 L11.1656881,0.0760960594 C11.1910535,0.0461188239 11.1698388,0 11.1306378,0 L5.88000973,0 C5.84080873,0 5.81959407,0.0461188239 5.84495942,0.0760960594 L8.47050406,3.16974677 C8.48895159,3.1918838 8.52215715,3.1918838 8.54060468,3.16974677 L8.54060468,3.16974677 Z M0.525614271,17.7429778 L16.4859557,17.7429778 L16.4859557,17.047506 L0.525614271,17.047506 L0.525614271,17.7429778 Z M8.68265065,11.5819641 L10.2488459,7.50644368 L11.7490913,11.5819641 L8.68265065,11.5819641 Z M4.64079693,14.3454041 C4.35532141,14.7586287 4.01311973,14.9647799 3.61373072,14.9647799 C3.33286708,14.9647799 3.10642366,14.8674692 2.93393926,14.6733089 C2.76191604,14.4791487 2.67521265,14.1862941 2.67521265,13.7929006 C2.67521265,13.3801371 2.76652792,13.0351683 2.94869728,12.757533 C3.13132782,12.4794365 3.38221422,12.2303948 3.70274005,12.0094856 C3.97345755,11.8425355 4.18145344,11.7009507 4.32672774,11.5856537 C4.47246322,11.4703566 4.57669176,11.3582878 4.64079693,11.2499086 L4.64079693,14.3454041 Z M15.9832605,15.3886119 C15.815388,15.2387257 15.6650406,14.9966019 15.5322184,14.6627016 L11.8597764,5.21479932 C11.7071231,5.22909615 11.5323328,5.23647516 11.3354054,5.23647516 C11.1477018,5.23647516 10.9729114,5.22909615 10.8105732,5.21479932 L7.35996279,14.0433258 C7.20177522,14.4662354 7.02929082,14.8001357 6.84435433,15.0547116 C6.82913512,14.9615516 6.82083373,14.8476381 6.82083373,14.7069757 L6.82083373,10.6014779 C6.82083373,10.0369835 6.78347749,9.59654878 6.70968737,9.28247958 C6.63589725,8.96794921 6.49339008,8.7055331 6.28124349,8.4938477 C5.84265348,8.04188322 5.10659705,7.81590098 4.07215183,7.81590098 C3.15069773,7.81590098 2.38189693,7.98515707 1.76667182,8.32459161 C1.20494455,8.64880694 0.92408091,9.07125537 0.92408091,9.59239808 C0.92408091,9.92583718 1.02139163,10.2039337 1.21601306,10.4248429 C1.4106345,10.6462132 1.67074467,10.7564372 1.99588238,10.7564372 C2.23708383,10.7564372 2.45153636,10.7089348 2.63831759,10.6130077 C2.82556002,10.5170805 2.96991194,10.3865642 3.07091216,10.2223812 C3.1714512,10.057737 3.2221819,9.87187815 3.2221819,9.66572701 C3.2221819,9.36595466 3.14331872,9.11645182 2.98559234,8.91767969 C2.82786596,8.71844637 2.60926273,8.57271088 2.32793791,8.47955086 C2.45660943,8.3564136 2.6184865,8.26417595 2.81587507,8.20283792 C3.01280244,8.14149988 3.20972982,8.11060027 3.4066572,8.11060027 C3.83048919,8.11060027 4.14225244,8.23143159 4.34194695,8.47171066 C4.54118027,8.71245092 4.64079693,9.04173932 4.64079693,9.45957587 L4.64079693,10.6314552 C4.64079693,10.8376063 4.54486977,11.0266935 4.35255428,11.1987167 C4.16069997,11.3707399 3.84755316,11.5386124 3.4144974,11.7037178 C2.98051927,11.8679009 2.72502098,11.9652116 2.64615779,11.9947276 C1.92163107,12.2599109 1.3871139,12.5647563 1.0421451,12.9083415 C0.697637484,13.2523879 0.525153083,13.6872885 0.525153083,14.213043 C0.525153083,14.7535557 0.699021049,15.1746205 1.04629579,15.4766988 C1.39357054,15.7792383 1.85521996,15.9300469 2.43170526,15.9300469 C2.88459211,15.9300469 3.31073005,15.8281243 3.70965787,15.6242791 C4.10904689,15.4199727 4.43141747,15.1142049 4.67769199,14.7069757 C4.67769199,15.070392 4.79114429,15.3650913 5.01758772,15.5915347 C5.233885,15.8064484 5.58392688,15.9162112 6.05941195,15.9263574 L6.05941195,15.9300469 C6.06863572,15.9291245 6.07878186,15.9286633 6.08800562,15.9277409 C6.10138008,15.9282021 6.1124486,15.9300469 6.12628425,15.9300469 C6.32044449,15.9300469 6.49938553,15.918056 6.6654133,15.8945354 C6.83420819,15.8890011 7.01453279,15.8857728 7.21192136,15.8857728 C7.78333359,15.8857728 8.40916603,15.9005308 9.08895749,15.9300469 L9.08895749,15.6279686 C8.64068252,15.6132105 8.30585986,15.5325026 8.08402832,15.3844612 C7.86219678,15.2373421 7.7515116,14.977232 7.7515116,14.6036695 C7.7515116,14.1904448 7.88940688,13.6310235 8.16565864,12.9230995 L8.56458647,11.8840424 L11.8597764,11.8840424 L12.7687785,14.3606233 C12.8919157,14.6848386 12.9532537,14.9228117 12.9532537,15.0750039 C12.9532537,15.2719312 12.8711622,15.4093653 12.7055957,15.4877673 C12.5409515,15.5666305 12.2688504,15.6132105 11.8892925,15.6279686 L11.8892925,15.9300469 C12.3869146,15.9005308 13.1529483,15.8857728 14.1873935,15.8857728 C15.1134595,15.8857728 15.8794931,15.9005308 16.4854945,15.9300469 L16.4854945,15.6279686 C16.317622,15.6182836 16.1506718,15.5380369 15.9832605,15.3886119 L15.9832605,15.3886119 Z" id="icon_textsmaller" fill="#000000"></path>
    </g>
</svg>