<svg width="65px" height="65px" viewBox="0 0 65 65" version="1.1" xmlns="http://www.w3.org/2000/svg" xmlns:xlink="http://www.w3.org/1999/xlink">
    <!-- Generator: Sketch 51.3 (57544) - http://www.bohemiancoding.com/sketch -->
    <desc>Created with Sketch.</desc>
    <defs></defs>
    <g id="Page-1" stroke="none" stroke-width="1" fill="none" fill-rule="evenodd" opacity="0.2">
        <g id="Desktop-HD-Copy-10" transform="translate(-1218.000000, -419.000000)" fill="#000000">
            <g id="calendar" transform="translate(1218.000000, 419.000000)">
                <path d="M55.5639118,5.37985882 L50.1840529,5.37985882 L50.1840529,-1.56319402e-13 L46.5994941,-1.56319402e-13 L46.5994941,5.37985882 L17.9230235,5.37985882 L17.9230235,-1.56319402e-13 L14.3384647,-1.56319402e-13 L14.3384647,5.37985882 L8.96464706,5.37985882 C4.02395882,5.37985882 7.10542736e-15,9.40052941 7.10542736e-15,14.3445059 L7.10542736e-15,55.5698 C7.10542736e-15,60.5104882 4.02067059,64.5344463 8.96464706,64.5344463 L55.5642941,64.5344463 C60.5049824,64.5344463 64.5289412,60.5137765 64.5289412,55.5698 L64.5259512,23.3030353 L64.5259512,14.3383882 C64.5229688,9.3977 60.5022982,5.37985882 55.5643629,5.37985882 L55.5639118,5.37985882 Z M60.9377294,55.5636824 C60.9377294,58.5269176 58.5271471,60.9375 55.5639118,60.9375 L8.96426471,60.9375 C5.99506471,60.9375 3.58440588,58.5269176 3.58440588,55.5636824 L3.58440588,23.3022706 L60.9377294,23.3022706 L60.9377294,55.5636824 Z M60.9378059,19.7180941 L3.58478824,19.7180941 L3.58478824,14.3382353 C3.58478824,11.3720176 5.99537059,8.95837647 8.96464706,8.95837647 L14.3445059,8.95837647 L14.3445059,12.5429353 L17.9231,12.5429353 L17.9231,8.96434118 L46.5995706,8.96434118 L46.5995706,12.5489 L50.1841294,12.5489 L50.1841294,8.96434118 L55.5639882,8.96434118 C58.5272235,8.96434118 60.9378059,11.3719412 60.9378059,14.3381588 L60.9378059,19.7180941 Z" id="Fill-1" opacity="0.8"></path>
            </g>
        </g>
    </g>
</svg>