
<svg width="47px" height="31px" viewBox="0 0 47 31" version="1.1" xmlns="http://www.w3.org/2000/svg" xmlns:xlink="http://www.w3.org/1999/xlink">
    <!-- Generator: Sketch 46.2 (44496) - http://www.bohemiancoding.com/sketch -->
    <desc>Created with Sketch.</desc>
    <defs></defs>
    <g id="Symbols" stroke="none" stroke-width="1" fill="none" fill-rule="evenodd">
        <g class="icon-payment-method" id="Card_btn_active-Copy" transform="translate(-24.000000, -7.000000)" fill-rule="nonzero" fill="#FFFFFF">
            <g id="Group-7">
                <g id="noun_922811_cc" transform="translate(24.000000, 7.000000)">
                    <g id="Group">
                        <path d="M42.6133333,0.103333333 L4.38666667,0.103333333 C2.14111111,0.103333333 0.313333333,1.91166667 0.313333333,4.13333333 L0.313333333,26.815 C0.313333333,29.0366667 2.14111111,30.845 4.38666667,30.845 L42.5611111,30.845 C44.8066667,30.845 46.6344444,29.0366667 46.6344444,26.815 L46.6344444,4.185 C46.6866667,1.91166667 44.8588889,0.103333333 42.6133333,0.103333333 Z M44.65,26.815 C44.65,27.9 43.7622222,28.83 42.6133333,28.83 L4.38666667,28.83 C3.29,28.83 2.35,27.9516667 2.35,26.815 L2.35,4.185 C2.35,3.1 3.23777778,2.17 4.38666667,2.17 L42.5611111,2.17 C43.6577778,2.17 44.5977778,3.04833333 44.5977778,4.185 L44.5977778,26.815 L44.65,26.815 Z" id="Shape"></path>
                        <path d="M6.94555556,11.16 L13.0033333,11.16 C13.5777778,11.16 14.0477778,10.695 14.0477778,10.1266667 C14.0477778,9.55833333 13.5777778,9.09333333 13.0033333,9.09333333 L6.94555556,9.09333333 C6.37111111,9.09333333 5.90111111,9.55833333 5.90111111,10.1266667 C5.90111111,10.695 6.37111111,11.16 6.94555556,11.16 Z" id="Shape"></path>
                        <path d="M19.1133333,12.6583333 L6.94555556,12.6583333 C6.37111111,12.6583333 5.90111111,13.1233333 5.90111111,13.6916667 C5.90111111,14.26 6.37111111,14.725 6.94555556,14.725 L19.1133333,14.725 C19.6877778,14.725 20.1577778,14.26 20.1577778,13.6916667 C20.1577778,13.1233333 19.6877778,12.6583333 19.1133333,12.6583333 Z" id="Shape"></path>
                        <path d="M39.8977778,19.375 L36.8166667,19.375 C35.8244444,19.375 34.9888889,20.2016667 34.9888889,21.1833333 L34.9888889,24.2316667 C34.9888889,25.2133333 35.8244444,26.04 36.8166667,26.04 L39.8977778,26.04 C40.89,26.04 41.7255556,25.2133333 41.7255556,24.2316667 L41.7255556,21.1833333 C41.7255556,20.2016667 40.89,19.375 39.8977778,19.375 Z" id="Shape"></path>
                    </g>
                </g>
            </g>
        </g>
    </g>
</svg>