<svg xmlns="http://www.w3.org/2000/svg" width="74" height="90" viewBox="0 0 74 90">
    <path class="icon-profile-no-img" fill-rule="evenodd" d="M73.396 55.55c-.316 5.185 1.053 15.02-4.051 22.615-5.105 7.594-16.948 10.093-18.301 10.208 4.096-2.867 3.457-4.396 2.112-5.106a28.339 28.339 0 0 1-3.413 2.636C45.636 88.583 40.992 90 36.312 90c-4.701 0-9.364-1.428-13.485-4.132a28.328 28.328 0 0 1-3.353-2.595c.444 1.532 1.426 3.331 1.939 3.731-4.358-.814-17.43-4.482-20.044-18.052-2.614-13.57-1.164-25.466 1.659-36.387C5.85 21.644 10.54 9.747 21.766 3.806 32.992-2.134 44.885.43 47.095 1.312c1.476.591 2.03 1.836 2.235 2.6 2.563-.755 6.773-1.087 12.05 3.586 5.279 4.673 8.118 13.091 10.35 22.118 2.23 9.027 1.982 20.75 1.666 25.934zM59.253 37.1c-.734-3.58-2.536-12.613-6.21-16.193-.933-.908-2.263-1.78-3.872-2.552-1.564 3.39-5.946 11.754-13.312 17.347-3.633 2.758-7.5 4.544-10.995 6.228 1.836.316 3.462.986 4.579 1.926a.51.51 0 1 1-.658.782c-1.28-1.076-3.351-1.755-5.635-1.87-4.788 2.39-8.605 4.865-9.661 9.958-.335-1.713-2.022-3.67-2.243-5.206-.288 4.253-.44 10.206.457 14.583 1.077 5.256 2.114 9.118 4.41 13.19 2.24 3.435 5.014 6.292 8.166 8.36 3.603 2.363 7.695 3.698 12.034 3.698 4.319 0 8.393-1.323 11.984-3.666 2.973-1.94 5.609-4.583 7.782-7.75a27.29 27.29 0 0 0 2.778-7.172c1.4-5.976.988-14.28 1.164-17.292.176-3.01-.034-10.792-.768-14.372z" opacity=".3" style="mix-blend-mode:multiply"/>
</svg>
