
<svg width="13px" height="13px" viewBox="0 0 13 13" version="1.1" xmlns="http://www.w3.org/2000/svg" xmlns:xlink="http://www.w3.org/1999/xlink">
    <!-- Generator: Sketch 51.3 (57544) - http://www.bohemiancoding.com/sketch -->
    <desc>Created with Sketch.</desc>
    <defs></defs>
    <g id="Symbols" stroke="none" stroke-width="1" fill="none" fill-rule="evenodd">
        <g id="qual-button" transform="translate(-537.000000, -16.000000)" fill="#13B9C0">
            <g id="Group-4">
                <g id="lock" transform="translate(537.000000, 16.000000)">
                    <path d="M11.266944,6.066944 L11.266944,4.766944 C11.266944,2.123888 9.143888,0 6.5,0 C3.856944,0 1.733056,2.123056 1.733056,4.766944 L1.733056,6.066944 L0,6.066944 L0,13 L13,13 L13,6.066944 L11.266944,6.066944 Z M7.34728365,9.70588235 L7.34728365,11.3043478 L6.21684887,11.3043478 L6.21684887,9.70588235 C5.87782692,9.56056731 5.65217391,9.22180888 5.65217391,8.88212044 C5.65217391,8.34898861 6.16070683,7.91304348 6.7826087,7.91304348 C7.40451056,7.91304348 7.91304348,8.34898861 7.91304348,8.88212044 C7.91304348,9.22087887 7.68632187,9.56056731 7.34731077,9.70588235 L7.34728365,9.70588235 Z M6.5,6.2173913 L3.39130435,6.2173913 L3.39130435,4.23913043 C3.39130435,2.6959882 4.76785405,1.46964119 6.5,1.46964119 C8.23214595,1.46964119 9.60869565,2.6959882 9.60869565,4.23913043 L9.60869565,6.2173913 L6.5,6.2173913 Z" id="Page-1"></path>
                </g>
            </g>
        </g>
    </g>
</svg>