<svg xmlns="http://www.w3.org/2000/svg" width="26" height="21" viewBox="0 0 26 21">
    <path fill="#FFF" fill-rule="evenodd" d="M26 20.16v-2.52a.853.853 0 0 0-.867-.84h-15.6a.853.853 0 0 0-.866.84v2.52c0 .465.387.84.866.84h15.6c.48 0 .867-.375.867-.84m0-8.4V9.24a.853.853 0 0 0-.867-.84h-15.6a.853.853 0 0 0-.866.84v2.52c0 .465.387.84.866.84h15.6c.48 0 .867-.375.867-.84m0-8.4V.84a.853.853 0 0 0-.867-.84h-15.6a.853.853 0 0 0-.866.84v2.52c0 .465.387.84.866.84h15.6c.48 0 .867-.375.867-.84M4.333 20.16v-2.52a.853.853 0 0 0-.866-.84h-2.6a.853.853 0 0 0-.867.84v2.52c0 .465.387.84.867.84h2.6c.479 0 .866-.375.866-.84m0-8.4V9.24a.853.853 0 0 0-.866-.84h-2.6A.853.853 0 0 0 0 9.24v2.52c0 .465.387.84.867.84h2.6c.479 0 .866-.375.866-.84M3.467 4.2h-2.6A.853.853 0 0 1 0 3.36V.84C0 .375.387 0 .867 0h2.6c.479 0 .866.375.866.84v2.52c0 .465-.387.84-.866.84"/>
</svg>
