
<svg width="24px" height="27px" viewBox="0 0 24 27" version="1.1" xmlns="http://www.w3.org/2000/svg" xmlns:xlink="http://www.w3.org/1999/xlink">
    <g id="Super-Admin-Cards" stroke="none" stroke-width="1" fill="none" fill-rule="evenodd">
        <g id="Group" transform="translate(-1035.000000, -160.000000)">
            <rect fill="#FFFFFF" x="0" y="0" width="1440" height="528"></rect>
            <g id="Add-User" transform="translate(1035.000000, 160.000000)" fill="#6F6F6F">
                <g id="np_add-user_971022_555555" stroke-width="1" fill-rule="evenodd" transform="translate(13.113402, 15.964912)">
                    <path d="M5.23251959,10.3818596 C2.34559175,10.3818596 0.00670515464,8.05908772 0.00670515464,5.19424561 C0.00670515464,2.32842105 2.34561649,0.00663157895 5.23251959,0.00663157895 C8.11845773,0.00663157895 10.458334,2.32844561 10.458334,5.19424561 C10.458334,8.05908772 8.11845773,10.3818596 5.23251959,10.3818596 Z M5.23251959,9.10294737 C7.40714227,9.10294737 9.17000412,7.35294737 9.17000412,5.19424561 C9.17000412,3.0355193 7.40711753,1.28554386 5.23251959,1.28554386 C3.05789691,1.28554386 1.29503505,3.03554386 1.29503505,5.19424561 C1.29503505,7.35297193 3.05792165,9.10294737 5.23251959,9.10294737 Z M5.23251959,10.3818596 C2.34559175,10.3818596 0.00670515464,8.05908772 0.00670515464,5.19424561 C0.00670515464,2.32842105 2.34561649,0.00663157895 5.23251959,0.00663157895 C8.11845773,0.00663157895 10.458334,2.32844561 10.458334,5.19424561 C10.458334,8.05908772 8.11845773,10.3818596 5.23251959,10.3818596 Z M5.23251959,9.10294737 C7.40714227,9.10294737 9.17000412,7.35294737 9.17000412,5.19424561 C9.17000412,3.0355193 7.40711753,1.28554386 5.23251959,1.28554386 C3.05789691,1.28554386 1.29503505,3.03554386 1.29503505,5.19424561 C1.29503505,7.35297193 3.05792165,9.10294737 5.23251959,9.10294737 Z" id="Shape" fill-rule="nonzero"></path>
                    <path d="M7.07480412,4.74919298 L5.68112165,4.74919298 L5.68112165,3.36569825 C5.68112165,3.11912632 5.48009072,2.92052281 5.23266804,2.92052281 C4.98524536,2.92052281 4.78421443,3.11912386 4.78421443,3.36569825 L4.78421443,4.74919298 L3.39053196,4.74919298 C3.14214433,4.74919298 2.94207835,4.94875439 2.94207835,5.19436842 C2.94207835,5.43998246 3.14214186,5.63954386 3.39053196,5.63954386 L4.78421443,5.63954386 L4.78421443,7.0230386 C4.78421443,7.26961053 4.98524536,7.46821404 5.23266804,7.46821404 C5.48009072,7.46821404 5.68112165,7.26961298 5.68112165,7.0230386 L5.68112165,5.63954386 L7.07480412,5.63954386 C7.3222268,5.63954386 7.52325773,5.43998246 7.52325773,5.19436842 C7.52325773,4.94875439 7.3222268,4.74919298 7.07480412,4.74919298 Z" id="Path" fill-rule="nonzero"></path>
                </g>
                <path d="M12.0146842,17.1929332 C8.96725788,17.1929332 6.48417889,13.8873105 6.25207624,10.9637881 C5.56704046,10.7703582 4.94845361,10.2045148 4.94845361,9.49431588 L4.94845361,7.44166661 C4.94845361,6.79978258 5.56990166,6.33690179 5.97651293,6.10305942 L5.97651293,4.36219998 C5.97651293,2.41637124 7.53352457,0.826479572 9.46717886,0.771788245 C9.88052382,0.606265681 11.5078569,0 13.1699683,0 C15.8215129,0 17.281219,1.55032668 17.281219,4.36224925 L17.281219,5.94721377 C18.3092784,6.1473791 18.3092784,6.97210953 18.3092784,7.44171588 L18.3092784,9.49436515 C18.3092784,10.2084072 17.9845813,10.7415491 17.4604388,10.9436361 C17.2629221,13.9767875 14.9986955,17.1929825 12.0147829,17.1929825 L12.0146842,17.1929332 Z M13.170881,1.02573338 C11.5040337,1.02573338 9.79293652,1.74652566 9.77641062,1.75421201 C9.71282041,1.78115857 9.64344861,1.79559265 9.5740768,1.79559265 C8.15773269,1.79559265 7.0044218,2.94654946 7.0044218,4.36214331 L7.0044218,6.41479259 C7.0044218,6.61592118 6.8849469,6.79972592 6.70091244,6.88247735 C6.3347773,7.04799991 5.99562625,7.3309216 5.97540052,7.44545312 L5.97636395,9.49425922 C5.97636395,9.72040786 6.40801074,10.0071752 6.74716179,10.0071752 C7.03042075,10.0071752 7.26069814,10.2371719 7.26069814,10.5200911 C7.26069814,13.0615134 9.45361183,16.1661084 12.0137459,16.1661084 C14.5111309,16.1661084 16.4468818,13.1309861 16.4468818,10.5200911 C16.4468818,10.2371744 16.6781211,10.0071752 16.9604181,10.0071752 C17.1752771,10.0071752 17.2822293,9.83491721 17.2822293,9.49425922 L17.2822293,7.44160994 C17.2822293,6.92869398 17.2822293,6.92869398 16.768693,6.92869398 C16.485434,6.92869398 16.2551566,6.69869724 16.2551566,6.41577802 L16.2551566,4.36312874 C16.2541929,2.11800049 15.2473477,1.02671142 13.1709786,1.02671142 L13.170881,1.02573338 Z" id="Shape" fill-rule="nonzero"></path>
                <path d="M1.25168965,23.3323617 C0.970700326,23.3323617 0.742268041,23.1038734 0.742268041,22.8228097 C0.742268041,19.8697575 3.10016586,17.7243525 6.34982064,17.7243525 L7.6066631,17.7243525 L8.96387286,15.6995073 C9.1215758,15.4662392 9.43698412,15.4031497 9.67114189,15.5599287 C9.90435031,15.7157606 9.96742365,16.0331611 9.81068475,16.2664243 L8.30245912,18.5178513 C8.20783687,18.6593413 8.04821321,18.7444282 7.87808792,18.7444282 L6.34884437,18.7444282 C3.64783324,18.7444282 1.76111371,20.4222543 1.76111371,22.8237813 C1.76111371,23.1048426 1.53268387,23.3333333 1.2516921,23.3333333 L1.25168965,23.3323617 Z" id="Path" fill-rule="nonzero"></path>
            </g>
        </g>
    </g>
</svg>