
<svg width="22px" height="22px" viewBox="0 0 22 22" version="1.1" xmlns="http://www.w3.org/2000/svg" xmlns:xlink="http://www.w3.org/1999/xlink">
    <!-- Generator: Sketch 48.2 (47327) - http://www.bohemiancoding.com/sketch -->
    <desc>Created with Sketch.</desc>
    <defs></defs>
    <g id="User---Job-application" stroke="none" stroke-width="1" fill="none" fill-rule="evenodd">
        <g id="01.2-Desktop-Jobs---User-Advanced-Search-drop-down" transform="translate(-826.000000, -710.000000)">
            <g id="Group-3" transform="translate(827.000000, 711.000000)">
                <g id="british_pound-copy-2">
                    <path d="M7.39244,10.07512 C7.17244,9.72488 6.95244,9.32756 6.82,8.93244 C6.64488,8.53512 6.6,8.14 6.6,7.7 C6.6,7.17244 6.68756,6.73244 6.90756,6.33512 C7.08488,5.94 7.34756,5.63244 7.65512,5.41244 C7.96488,5.14756 8.31512,4.97244 8.71244,4.84 C9.10756,4.70756 9.54756,4.66488 9.94488,4.66488 C11.04488,4.66488 11.88,4.97244 12.49512,5.58756 C13.11244,6.20488 13.37512,7.08488 13.37512,8.18488 L12.45244,8.18488 C12.45244,7.39244 12.23244,6.73244 11.83512,6.24756 C11.39512,5.72 10.78,5.5 9.98756,5.5 C9.68,5.5 9.37244,5.54488 9.10756,5.63244 C8.8,5.72 8.53512,5.85244 8.31512,6.07244 C8.09512,6.24756 7.92,6.51244 7.78756,6.77512 C7.65512,7.08488 7.56756,7.39244 7.56756,7.78756 C7.56756,8.05244 7.61244,8.27244 7.65512,8.44756 C7.7,8.62488 7.78756,8.84488 7.87512,8.97512 C7.96488,9.15244 8.05244,9.32756 8.14,9.50488 C8.22756,9.68 8.36,9.85512 8.44756,10.07512 L10.82488,10.07512 L10.82488,10.56 L8.71244,10.56 C8.8,10.73512 8.88756,10.95512 8.97512,11.26488 C9.02,11.52756 9.06488,11.79244 9.06488,12.01244 C9.06488,12.27512 9.02,12.54 8.93244,12.80488 C8.84488,13.06756 8.71244,13.28756 8.58,13.50756 C8.44756,13.72756 8.27244,13.94756 8.05244,14.12488 C7.87512,14.3 7.65512,14.52 7.43512,14.65244 L7.48,14.69512 C7.7,14.60756 7.92,14.47512 8.18488,14.38756 C8.40488,14.3 8.66756,14.25512 8.93244,14.25512 C9.24,14.25512 9.54756,14.3 9.76756,14.34488 C9.98756,14.38756 10.20756,14.47512 10.42756,14.56488 C10.64756,14.65244 10.82488,14.69512 11.04488,14.78488 C11.22,14.82756 11.48488,14.87244 11.70488,14.87244 C12.01244,14.87244 12.32,14.78488 12.62756,14.60756 C12.93512,14.43244 13.2,14.25512 13.37512,14.03512 L13.86,14.74 C13.55244,15.00488 13.2,15.22488 12.89244,15.4 C12.54,15.53244 12.18756,15.62 11.70488,15.62 C11.39512,15.62 11.08756,15.57512 10.86756,15.53244 C10.60488,15.48756 10.38488,15.4 10.16488,15.31244 C9.94488,15.22488 9.72488,15.18 9.46,15.09244 C9.24,15.04756 8.97512,15.00488 8.66756,15.00488 C8.49244,15.00488 8.31512,15.00488 8.18488,15.04756 C8.05244,15.09244 7.92,15.13512 7.78756,15.18 C7.65512,15.22488 7.56756,15.31244 7.43512,15.35512 C7.30488,15.44488 7.17244,15.53244 7.04,15.62 L6.51244,14.82756 C6.73244,14.65244 6.95244,14.47512 7.12756,14.25512 C7.34756,14.03512 7.52488,13.86 7.65512,13.64 C7.78756,13.42 7.92,13.2 8.00756,12.93512 C8.09512,12.67244 8.14,12.40756 8.14,12.1 C8.14,11.88 8.09512,11.61512 8.00756,11.30756 C7.92,11 7.83244,10.73512 7.7,10.56 L6.51244,10.56 L6.51244,10.07512 L7.39244,10.07512 Z" id="Fill-1" fill="#9B9B9B"></path>
                    <path d="M20.24,10.12 C20.24,15.70932 15.70932,20.24 10.12,20.24 C4.53068,20.24 0,15.70932 0,10.12 C0,4.53068 4.53068,0 10.12,0 C15.70932,0 20.24,4.53068 20.24,10.12 L20.24,10.12 Z" id="Stroke-2" stroke="#9B9B9B"></path>
                </g>
            </g>
        </g>
    </g>
</svg>