<svg width="51" height="51" viewBox="0 0 51 51" fill="none" xmlns="http://www.w3.org/2000/svg">
  <path fill-rule="evenodd" clip-rule="evenodd" d="M47.918 27.2516V22.5122C47.918 21.687 47.2504 21.0181 46.4268 21.0181C43.3461 21.0181 40.474 21.2785 37.7605 21.8105C36.1787 20.28 34.2503 19.1695 32.1621 18.5626C34.4391 16.6424 35.8888 13.7674 35.8888 10.5591C35.8888 4.73701 31.206 0.000488281 25.4502 0.000488281C19.6944 0.000488281 15.0116 4.73701 15.0116 10.5591C15.0116 13.7674 16.4613 16.6424 18.7384 18.5625C16.6502 19.1695 14.7218 20.28 13.14 21.8104C10.4265 21.2785 7.55436 21.018 4.47368 21.018C3.65013 21.018 2.98246 21.6869 2.98246 22.5121V27.2515C1.24677 27.8683 0 29.5291 0 31.477V34.4652C0 36.4131 1.24677 38.0739 2.98246 38.6907V43.4301C2.98246 44.2552 3.65013 44.9242 4.47368 44.9242C12.2707 44.9242 18.6734 46.7753 24.6232 50.7495C25.1217 51.0824 25.7785 51.0832 26.2775 50.7495C32.2273 46.7753 38.6299 44.9242 46.427 44.9242C47.2506 44.9242 47.9182 44.2552 47.9182 43.4301V38.6907C49.6539 38.0739 50.9007 36.4131 50.9007 34.4652V31.477C50.9005 29.5292 49.6537 27.8684 47.918 27.2516ZM17.9941 10.5591C17.9941 6.38475 21.3389 2.98877 25.4502 2.98877C29.5615 2.98877 32.9063 6.38475 32.9063 10.5591C32.9063 14.6784 29.5615 18.0298 25.4502 18.0298C21.3389 18.0298 17.9941 14.6784 17.9941 10.5591ZM2.98236 34.4653C2.98236 35.2892 3.65132 35.9595 4.47359 35.9595C5.29585 35.9595 5.96481 35.2892 5.96481 34.4653V31.4771C5.96481 30.6532 5.29585 29.9829 4.47359 29.9829C3.65132 29.9829 2.98236 30.6532 2.98236 31.4771V34.4653ZM23.959 46.8254C18.5455 43.7234 12.7364 42.1557 5.96481 41.9576V38.6908C7.7005 38.074 8.94727 36.4132 8.94727 34.4653V31.4771C8.94727 29.5292 7.7005 27.8684 5.96481 27.2516V24.0275C12.9717 24.229 18.6039 25.8822 23.959 29.2984V46.8254ZM16.7744 22.7136C19.8328 23.6447 22.6978 24.9696 25.4502 26.7096C28.2025 24.9696 31.0676 23.6447 34.126 22.7136C32.4454 21.6193 30.4672 21.0181 28.4326 21.0181H22.4677C20.4332 21.0181 18.4549 21.6193 16.7744 22.7136ZM44.9356 41.9576C38.1641 42.1557 32.3548 43.7238 26.9414 46.8256V29.2996C32.2966 25.8831 37.9284 24.2289 44.9356 24.0275V27.2516C43.1999 27.8684 41.9531 29.5292 41.9531 31.4771V34.4653C41.9531 36.4132 43.1999 38.074 44.9356 38.6908V41.9576ZM46.4268 35.9595C47.2491 35.9595 47.918 35.2892 47.918 34.4653V31.4771C47.918 30.6532 47.2491 29.9829 46.4268 29.9829C45.6045 29.9829 44.9356 30.6532 44.9356 31.4771V34.4653C44.9356 35.2892 45.6045 35.9595 46.4268 35.9595Z" fill="#4A4A4A"/>
</svg>
