
<svg width="12px" height="12px" viewBox="0 0 12 12" version="1.1" xmlns="http://www.w3.org/2000/svg" xmlns:xlink="http://www.w3.org/1999/xlink">
    <!-- Generator: Sketch 48.2 (47327) - http://www.bohemiancoding.com/sketch -->
    <desc>Created with Sketch.</desc>
    <defs></defs>
    <g id="Symbols" stroke="none" stroke-width="1" fill="none" fill-rule="evenodd">
        <g id="Group-8" transform="translate(-312.000000, -41.000000)" fill="#CA3A89">
            <g id="Wrong" transform="translate(312.000000, 37.000000)">
                <path d="M10.2267511,4.30448758 L6,8.5308726 L1.7742883,4.30448758 C1.3682697,3.89850414 0.71050657,3.89850414 0.304513952,4.30448758 C-0.101478666,4.71047102 -0.101504651,5.36817718 0.304513952,5.77413463 L4.53022565,9.99948034 L0.304513952,14.224826 C-0.101504651,14.6308095 -0.101504651,15.2885156 0.304513952,15.6944731 C0.710532556,16.1004306 1.36829569,16.1004565 1.7742883,15.6944731 L6,11.4701667 L10.2257117,15.6955124 C10.6317303,16.1014959 11.2894934,16.1014959 11.695486,15.6955124 C12.1014787,15.289529 12.1015047,14.6318228 11.695486,14.2258654 L7.46977435,10.0005197 L11.695486,5.77517395 C12.1015047,5.36919051 12.1015047,4.71148435 11.695486,4.3055269 C11.2905069,3.89850414 10.6327437,3.89850414 10.2267511,4.30448758 Z" id="Page-1"></path>
            </g>
        </g>
    </g>
</svg>