<svg width="20px" height="20px" viewBox="0 0 20 20" version="1.1" xmlns="http://www.w3.org/2000/svg" xmlns:xlink="http://www.w3.org/1999/xlink">
    <desc>Created with Sketch.</desc>
    <defs></defs>
    <g id="Symbols" stroke="none" stroke-width="1" fill="none" fill-rule="evenodd">
        <g id="Header---Learner" transform="translate(-833.000000, -32.000000)" fill="#000000">
            <g id="Group-4" transform="translate(805.000000, 0.000000)">
                <g id="Group-3">
                    <g id="Page-1" transform="translate(28.000000, 32.000000)">
                        <path d="M10,0 C7.3476,0 4.804,1.0539 2.929,2.929 C1.054,4.8041 0,7.3478 0,10 C0,12.6522 1.0539,15.196 2.929,17.071 C4.8041,18.946 7.3478,20 10,20 C12.6522,20 15.196,18.9461 17.071,17.071 C18.946,15.1959 20,12.6522 20,10 C20,7.3478 18.9461,4.804 17.071,2.929 C15.1959,1.054 12.6522,0 10,0 Z M10,18.6046006 C7.718,18.6046006 5.529,17.69836 3.9156,16.0842 C2.30154,14.47092 1.3951998,12.2818 1.3951998,9.9998 C1.3951998,7.7178 2.30144,5.5288 3.9156,3.9154 C5.52888,2.30134 7.718,1.395 10,1.395 C12.282,1.395 14.471,2.30124 16.0844,3.9154 C17.69846,5.52868 18.6048,7.7178 18.6048,9.9998 C18.6048,12.2818 17.69856,14.4708 16.0844,16.0842 C14.47112,17.69826 12.282,18.6046006 10,18.6046006 Z" id="Fill-1"></path>
                        <path d="M10,3.0001908 L10,17 C12.5005435,17 14.8119958,15.6659017 16.0619814,13.5 C17.3126729,11.3340602 17.3126729,8.66593982 16.0619814,6.5 C14.812034,4.33406018 12.5007343,3 10,3 L10,3.0001908 Z" id="Fill-2"></path>
                    </g>
                </g>
            </g>
        </g>
    </g>
</svg>