<svg width="48px" height="48px" viewBox="0 0 48 48" version="1.1" xmlns="http://www.w3.org/2000/svg" xmlns:xlink="http://www.w3.org/1999/xlink">
    <!-- Generator: Sketch 51.3 (57544) - http://www.bohemiancoding.com/sketch -->
    <desc>Created with Sketch.</desc>
    <defs></defs>
    <g id="Symbols" stroke="none" stroke-width="1" fill="none" fill-rule="evenodd">
        <g id="Saved-pop-up" transform="translate(-431.000000, -91.000000)" fill="#84BC02">
            <g id="Group-12" transform="translate(0.000000, -1.000000)">
                <g id="Page-1" transform="translate(431.000000, 92.000000)">
                    <path d="M23.9950958,47.9998829 C16.4318575,47.9961332 9.31125638,44.4299276 4.78070717,38.3736035 C0.251789663,32.3175194 -1.15840804,24.4801776 0.975659933,17.2255485 C3.11164824,9.96947945 8.54273843,4.14571243 15.631174,1.50766549 C22.7196095,-1.13038145 30.6376297,-0.273544189 36.9968181,3.81950852 C37.3456277,4.0445057 37.4450194,4.50949987 37.2199802,4.8582635 C36.994941,5.20513596 36.5298599,5.30450911 36.1829034,5.07951193 C30.5361592,1.44394149 23.5619835,0.519569073 17.1634283,2.55767153 C10.764873,4.59577399 5.61165473,9.38462598 3.10993963,15.6149479 C0.610143902,21.8471898 1.02267981,28.8690218 4.23703208,34.7643079 C7.45133539,40.661034 13.1315415,44.8125035 19.7254908,46.0854475 C26.3189601,47.3604075 33.1380687,45.6242021 38.3176915,41.3511214 C43.4973144,37.0780709 46.4978374,30.7144547 46.4997577,24.0002988 C46.4997577,23.5859296 46.8354418,23.2503082 47.2498885,23.2503082 C47.6643351,23.2503082 48,23.5859296 48,24.0002988 C47.9925203,30.3640591 45.4626809,36.4633426 40.9619924,40.9632863 C36.461304,45.4632318 30.3607846,47.9928004 23.9958352,48 L23.9950958,47.9998829 Z" id="Fill-1"></path>
                    <path d="M23.8888389,31.7288136 C23.6908833,31.7288136 23.5003954,31.647305 23.3603167,31.5051392 L12.4035801,20.3840217 L12.4035801,20.3859191 C12.1290545,20.0864234 12.1383915,19.6201351 12.4222541,19.3319896 C12.7061214,19.0438441 13.1655318,19.0343913 13.4606054,19.3130306 L23.8885808,29.897454 L45.9292244,7.52614061 C46.2242933,7.2474964 46.6836893,7.25508096 46.9675758,7.54320225 C47.2514383,7.83322088 47.2607753,8.29763114 46.9862545,8.5971317 L24.4154154,31.504654 C24.275351,31.6468197 24.0867324,31.7283283 23.8887577,31.7283283 L23.8888389,31.7288136 Z" id="Fill-2"></path>
                </g>
            </g>
        </g>
    </g>
</svg>