<?xml version="1.0" encoding="UTF-8"?>
<svg width="134px" height="134px" viewBox="0 0 134 134" version="1.1" xmlns="http://www.w3.org/2000/svg" xmlns:xlink="http://www.w3.org/1999/xlink">
    <!-- Generator: Sketch 43.2 (39069) - http://www.bohemiancoding.com/sketch -->
    <title>Icon_addimagevideo</title>
    <desc>Created with Sketch.</desc>
    <defs></defs>
    <g id="Exportable-Icons" stroke="none" stroke-width="1" fill="none" fill-rule="evenodd">
        <g id="Icon_addimagevideo">
            <g id="Group-18">
                <g id="Group-16">
                    <circle id="Oval" fill="#11B2A6" opacity="0.05" cx="66.7832031" cy="66.7832031" r="66.7832031"></circle>
                    <circle id="Oval" fill="#D5EAE4" opacity="0.699999988" cx="66.6416016" cy="66.6416016" r="38.6416016"></circle>
                </g>
            </g>
            <path d="M59.7727273,55.8101197 C59.7516031,54.9790477 60.3374901,54.282028 61.0909092,54.2419015 C61.3708108,54.2272603 61.6481622,54.3065036 61.8863637,54.4691742 L77.8863637,64.6509997 C78.3316537,64.9185697 78.6087368,65.4329068 78.6087368,65.9919088 C78.6087368,66.5509107 78.3316537,67.0652478 77.8863637,67.3328179 L61.8863637,77.514636 C61.4531746,77.8097847 60.9080042,77.8192213 60.4666202,77.5392111 C60.0252362,77.2592009 59.7587868,76.7348796 59.7727273,76.1737633 L59.7727273,55.8101197 Z M62.5681819,58.4691742 L62.5681819,73.4919451 L74.3863637,65.9919451 L62.5681819,58.4691742 Z M95.2205815,23.7554025 L95.2205815,23.7554025 L118.557823,41.9884539 C119.72093,42.8971726 119.930559,44.6044646 119.02184,45.7675715 L102.446334,66.9832527 C101.537609,68.1463666 99.8303229,68.3559887 98.667216,67.44727 L75.3299745,49.2142186 C74.1668676,48.3054999 73.957233,46.598215 74.8659572,45.435101 L91.441464,24.2194198 C92.3501827,23.0563129 94.0574746,22.8466838 95.2205815,23.7554025 Z M94.1155481,25.1697808 L94.1156862,25.169604 C93.7116797,24.8539595 93.1716249,24.9202699 92.8559804,25.3242764 L81.1322609,40.329953 L93.0379939,39.4175467 C93.2262794,39.4047571 93.4138058,39.4516431 93.573917,39.55154 C93.8040782,39.6933299 93.958071,39.9313072 93.9931129,40.1993568 L95.5035941,52.5011611 L103.677517,51.2178306 C103.917641,51.178962 104.163258,51.2392231 104.358126,51.3848151 C104.552994,51.5304071 104.680421,51.7488595 104.711229,51.9901505 L105.685196,59.922343 L117.607462,44.662538 C117.923107,44.2585315 117.856796,43.7184767 117.45279,43.4028322 L94.1155481,25.1697808 Z M106.248186,38.065424 C108.192659,39.5846129 108.540737,42.4194802 107.021548,44.3639533 C105.502362,46.3084228 102.667492,46.6565043 100.723019,45.1373154 C98.778546,43.6181265 98.4304708,40.7832558 99.9496569,38.8387862 C101.468846,36.8943131 104.303713,36.5462351 106.248186,38.065424 Z M105.143153,39.4798023 C103.963066,38.5578177 102.28602,38.7637331 101.364035,39.9438196 C100.442053,41.1239026 100.647966,42.8009525 101.828052,43.7229371 C103.008139,44.6449218 104.685188,44.4390028 105.60717,43.2589199 C106.529155,42.0788333 106.323239,40.4017869 105.143153,39.4798023 Z M92.3167953,41.2744635 L92.3167953,41.2744635 L79.629968,42.2528003 L76.2803355,46.5401344 C75.9646827,46.9441516 76.0310013,47.4841958 76.4350079,47.7998403 L99.7722494,66.0328917 C100.176256,66.3485362 100.716302,66.2822364 101.031955,65.8782192 L104.122596,61.92238 L103.044722,53.1438049 L94.8706615,54.4273122 C94.6305371,54.4661808 94.38492,54.4059197 94.1900523,54.2603277 C93.9951845,54.1147357 93.8677572,53.8962833 93.8369491,53.6549923 L92.3167953,41.2744635 Z M71.8208008,43 L71.8208008,46 L41.0019006,46 C39.3406466,46 38,47.338552 38,48.9900994 L38,83.0099006 C38,84.6570126 39.3423754,86 40.9922004,86 L93.0077996,86 C94.6557773,86 96,84.6544762 96,82.9978605 L96,70.5131836 L99,70.5131836 L99,82.9978605 C99,86.3127506 96.311214,89 93.0077996,89 L40.9922004,89 C37.6827995,89 35,86.3111444 35,83.0099006 L35,48.9900994 C35,45.6818589 37.6836275,43 41.0019006,43 L71.8208008,43 Z" id="Combined-Shape" fill="#003057"></path>
        </g>
    </g>
</svg>