<?xml version="1.0" encoding="UTF-8" standalone="no"?>
<svg width="92px" height="80px" viewBox="0 0 92 80" version="1.1" xmlns="http://www.w3.org/2000/svg" xmlns:xlink="http://www.w3.org/1999/xlink">
    <!-- Generator: Sketch 42 (36781) - http://www.bohemiancoding.com/sketch -->
    <title>Slice 1</title>
    <desc>Created with Sketch.</desc>
    <defs></defs>
    <g id="Page-1" stroke="none" stroke-width="1" fill="none" fill-rule="evenodd">
        <g id="icon_female" transform="translate(13.000000, 0.000000)" fill="#EBEBEB">
            <path d="M66.4478912,48.9423529 C66.1625206,53.5105882 67.4014751,62.1752941 62.7803509,68.8670588 C58.1592266,75.5576471 47.4372789,77.76 46.2124168,77.8611765 C49.9198854,75.3352941 49.3420981,73.9882353 48.1242821,73.3623529 C47.1542604,74.2133731 46.121399,74.9897033 45.0345292,75.6847059 C41.3164912,78.0447059 37.111092,79.2941176 32.8751593,79.2941176 C28.6180881,79.2941176 24.3962478,78.0352941 20.6664662,75.6529412 C19.5993931,74.9674189 18.5846844,74.2033513 17.630734,73.3670588 C18.0323666,74.7164706 18.9225349,76.3011765 19.3864089,76.6541176 C15.4405442,75.9364706 3.60647333,72.7047059 1.23895453,60.7482353 C-1.1273899,48.7929412 0.185549588,38.3129412 2.74214107,28.6905882 C5.29755818,19.0682353 9.54171142,8.58705882 19.705836,3.35294118 C29.8687863,-1.88117647 40.6365342,0.377647059 42.6364769,1.15647059 C43.9729037,1.67647059 44.4743573,2.77411765 44.6599069,3.44705882 C46.9804511,2.78117647 50.7924382,2.48941176 55.569753,6.60588235 C60.3494164,10.7235294 62.9189259,18.14 64.9400072,26.0929412 C66.9599141,34.0458824 66.7344361,44.3741176 66.4478912,48.9423529 L66.4478912,48.9423529 Z M53.6449696,32.6858824 C52.9802793,29.5329412 51.349087,21.5741176 48.0232868,18.42 C47.1777444,17.62 45.9740208,16.8517647 44.5178088,16.1717647 C43.1015252,19.1588235 39.134522,26.5270588 32.4653061,31.4552941 C29.1770856,33.8847059 25.6751307,35.4588235 22.5113928,36.9423529 C24.1731185,37.2211765 25.6457716,37.8105882 26.6568994,38.6388235 C26.7508255,38.7140217 26.8099762,38.8244228 26.8206219,38.9444012 C26.8312675,39.0643796 26.7924824,39.1835017 26.7132689,39.2741176 C26.5456868,39.4644057 26.2580639,39.4882875 26.0614966,39.3282353 C24.9035732,38.38 23.0269388,37.7823529 20.9600573,37.6811765 C16.625478,39.7870588 13.1693233,41.9670588 12.2133906,46.4541176 C11.9104046,44.9447059 10.3825564,43.2211765 10.1817401,41.8670588 C9.92220551,45.6141176 9.7836305,50.86 10.5962907,54.7152941 C11.5710132,59.3470588 12.5105048,62.7494118 14.58913,66.3364706 C16.6172574,69.3635294 19.1280487,71.88 21.9817544,73.7023529 C25.2441389,75.7847059 28.9480845,76.9611765 32.8763337,76.9611765 C36.7869674,76.9611765 40.4744719,75.7952941 43.7262871,73.7305882 C46.4179305,72.0211765 48.8042392,69.6929412 50.772474,66.9011765 C51.9097899,64.9276605 52.7562621,62.7997597 53.285614,60.5835294 C54.5539277,55.3188235 54.1816541,48.0011765 54.3401933,45.3482353 C54.4999069,42.6964706 54.3096599,35.84 53.6449696,32.6858824 L53.6449696,32.6858824 Z" id="Shape"></path>
        </g>
    </g>
</svg>