
<svg width="25px" height="29px" viewBox="0 0 25 29" version="1.1" xmlns="http://www.w3.org/2000/svg" xmlns:xlink="http://www.w3.org/1999/xlink">
    <g id="Super-Admin-Cards" stroke="none" stroke-width="1" fill="none" fill-rule="evenodd">
        <g id="Learner-Copy-2" transform="translate(-997.000000, -148.000000)">
            <rect fill="#FFFFFF" x="0" y="0" width="1440" height="528"></rect>
            <g id="taskIcon" transform="translate(997.000000, 148.000000)">
                <g id="np_tasks_699088_000000" stroke-width="1" fill="#6F6F6F">
                    <path d="M14.817233,1.923825 L13.3448058,1.923825 C12.72,-0.640675 8.0931068,-0.641675 7.46834951,1.923825 L5.95514563,1.923825 C5.15873786,1.923825 4.51021845,2.5918 4.51021845,3.4121 L4.51021845,4.129875 L2.34660194,4.129875 C1.0713835,4.129875 0.0350970874,5.198225 0.0350970874,6.510725 L0.0350970874,22.582975 C0.0350970874,23.895475 1.0713835,24.963825 2.34660194,24.963825 L18.5271845,24.963825 C19.8024029,24.963825 20.8386893,23.895475 20.8386893,22.582975 L20.8386893,6.510725 C20.8386893,5.198225 19.8024029,4.129875 18.5271845,4.129875 L16.2621359,4.129875 L16.2621359,3.4121 C16.2621359,2.5918 15.6145631,1.923825 14.8172087,1.923825 L14.817233,1.923825 Z M18.5271845,5.320325 C19.165267,5.320325 19.6829369,5.8545 19.6829369,6.51075 L19.6829369,22.583 C19.6829369,23.23925 19.165267,23.773425 18.5271845,23.773425 L2.34660194,23.773425 C1.70851942,23.773425 1.19084951,23.23925 1.19084951,22.583 L1.19084951,6.51075 C1.19084951,5.8545 1.70851942,5.320325 2.34660194,5.320325 L4.51021845,5.320325 L4.51021845,5.6133 C4.51021845,6.4336 5.15873786,7.1006 5.95514563,7.1006 L14.8172816,7.1006 C15.6146602,7.1006 16.2622087,6.4336 16.2622087,5.6133 L16.2622087,5.320325 L18.5271845,5.320325 Z M6.71262136,9.050825 L4.80783981,11.01275 L4.04745146,10.22955 C3.82179854,9.9961525 3.45582524,9.9961525 3.2301699,10.2285733 C3.00451699,10.4609958 3.00451699,10.8379483 3.2301699,11.0703733 L4.39919903,12.2754483 C4.45513835,12.3330658 4.52055825,12.3770108 4.58977184,12.4063083 C4.65898544,12.4356058 4.73388592,12.4502533 4.80783981,12.4502533 C4.95574757,12.4502533 5.10366505,12.3916583 5.21648058,12.2754483 L7.52987864,9.89264825 C7.75553155,9.66022575 7.75553155,9.28424825 7.52987864,9.05084825 C7.30422573,8.81842575 6.93825243,8.81842575 6.71259709,9.05084825 L6.71262136,9.050825 Z M9.85849515,10.677775 C9.85849515,11.006875 10.1173301,11.273475 10.4368447,11.273475 L17.3713107,11.273475 C17.6908252,11.273475 17.9496602,11.006875 17.9496602,10.677775 C17.9496602,10.34965 17.6908252,10.08305 17.3713107,10.08305 L10.4368447,10.08305 C10.1173301,10.08305 9.85849515,10.34965 9.85849515,10.677775 Z M6.71262136,14.015775 L4.80783981,15.9777 L4.04745146,15.193525 C3.82179854,14.9611025 3.45582524,14.9611025 3.2301699,15.1925483 C3.00451699,15.4259458 3.00451699,15.8019233 3.2301699,16.0353233 L4.41152913,17.2521233 C4.44755825,17.2872808 4.4911699,17.3068108 4.53383738,17.3312258 C4.55374782,17.343921 4.57176214,17.3614983 4.59451699,17.3712658 C4.6400267,17.3898205 4.68838107,17.3937268 4.73578641,17.3995858 C4.76043689,17.4025155 4.78319175,17.4132578 4.80784466,17.4132578 C4.95575243,17.4132578 5.1036699,17.3556403 5.21648544,17.2394303 L7.5298835,14.8576053 C7.75553641,14.6242078 7.75553641,14.2482303 7.5298835,14.0158053 C7.30423058,13.7824078 6.93825728,13.7824078 6.71260194,14.0158053 L6.71262136,14.015775 Z M17.3713592,14.844875 L10.4368932,14.844875 C10.1173786,14.844875 9.85854369,15.111475 9.85854369,15.4396 C9.85854369,15.7687 10.1173786,16.0353 10.4368932,16.0353 L17.3713592,16.0353 C17.6908738,16.0353 17.9497087,15.7687 17.9497087,15.4396 C17.9497087,15.111475 17.6908738,14.844875 17.3713592,14.844875 Z M6.71262136,18.979625 L4.80783981,20.94155 L4.04745146,20.157375 C3.82179854,19.9249525 3.45582524,19.9249525 3.2301699,20.157375 C3.00451699,20.3897975 3.00451699,20.76675 3.2301699,20.999175 L4.39919903,22.20425 L4.40583592,22.211086 L4.41152451,22.2159688 C4.44755364,22.2511238 4.49116529,22.2716338 4.53383277,22.2950713 C4.5537432,22.3077665 4.57175752,22.3263213 4.59451238,22.3351113 C4.64002209,22.3536658 4.68837646,22.3575723 4.7357818,22.3634313 C4.76043228,22.3673375 4.78318714,22.3780798 4.80784005,22.3780798 C4.95574782,22.3780798 5.10366529,22.3194848 5.21648083,22.2042523 L7.52987888,19.8214523 C7.7555318,19.5880548 7.7555318,19.2120773 7.52987888,18.9796523 C7.30422597,18.7462548 6.93825267,18.7462548 6.71259733,18.9796523 L6.71262136,18.979625 Z M17.3713592,19.606575 L10.4368932,19.606575 C10.1173786,19.606575 9.85854369,19.873175 9.85854369,20.202275 C9.85854369,20.5304 10.1173786,20.797 10.4368932,20.797 L17.3713592,20.797 C17.6908738,20.797 17.9497087,20.5304 17.9497087,20.202275 C17.9497087,19.873175 17.6908738,19.606575 17.3713592,19.606575 Z M5.6657767,3.412325 C5.6657767,3.250215 5.79851456,3.114475 5.95495146,3.114475 L7.97633495,3.114475 C8.29584951,3.114475 8.55468447,2.847875 8.55468447,2.518775 C8.55468447,1.589075 9.51417476,1.16525 10.4063592,1.16525 C11.2985437,1.16525 12.258034,1.589075 12.258034,2.518775 C12.258034,2.847875 12.5168689,3.114475 12.8363835,3.114475 L14.8170146,3.114475 C14.9744029,3.114475 15.1061893,3.2502175 15.1061893,3.412325 L15.1061893,4.493375 C15.0767985,4.564665 15.0597306,4.64279 15.0597306,4.7257975 C15.0597306,4.808805 15.0767968,4.88693 15.1061893,4.95822 L15.1061893,5.613495 C15.1061893,5.7746275 14.9744005,5.91037 14.8170146,5.91037 L5.95487864,5.91037 C5.79843932,5.91037 5.66570388,5.7746275 5.66570388,5.613495 L5.6657767,3.412325 Z" id="Shape" fill-rule="nonzero"></path>
                </g>
                <ellipse id="Oval-Copy" fill="#FFFFFF" cx="19.0533981" cy="22.875" rx="5.94660194" ry="6.125"></ellipse>
                <g id="np_add-user_971022_555555-copy" stroke-width="1" transform="translate(14.077670, 17.750000)" fill="#6F6F6F">
                    <path d="M5.13303398,10.56725 C2.30099515,10.56725 0.0065776699,8.203 0.0065776699,5.287 C0.0065776699,2.37 2.30101942,0.00675 5.13303398,0.00675 C7.96410194,0.00675 10.2594903,2.370025 10.2594903,5.287 C10.2594903,8.203 7.96410194,10.56725 5.13303398,10.56725 Z M5.13303398,9.2655 C7.26631068,9.2655 8.99565534,7.48425 8.99565534,5.287 C8.99565534,3.089725 7.26628641,1.3085 5.13303398,1.3085 C2.99975728,1.3085 1.27041262,3.08975 1.27041262,5.287 C1.27041262,7.484275 2.99978155,9.2655 5.13303398,9.2655 Z M5.13303398,10.56725 C2.30099515,10.56725 0.0065776699,8.203 0.0065776699,5.287 C0.0065776699,2.37 2.30101942,0.00675 5.13303398,0.00675 C7.96410194,0.00675 10.2594903,2.370025 10.2594903,5.287 C10.2594903,8.203 7.96410194,10.56725 5.13303398,10.56725 Z M5.13303398,9.2655 C7.26631068,9.2655 8.99565534,7.48425 8.99565534,5.287 C8.99565534,3.089725 7.26628641,1.3085 5.13303398,1.3085 C2.99975728,1.3085 1.27041262,3.08975 1.27041262,5.287 C1.27041262,7.484275 2.99978155,9.2655 5.13303398,9.2655 Z" id="Shape" fill-rule="nonzero"></path>
                    <path d="M6.94029126,4.834 L5.5731068,4.834 L5.5731068,3.4258 C5.5731068,3.174825 5.37589806,2.972675 5.13317961,2.972675 C4.89046117,2.972675 4.69325243,3.1748225 4.69325243,3.4258 L4.69325243,4.834 L3.32606796,4.834 C3.08240291,4.834 2.88614078,5.037125 2.88614078,5.287125 C2.88614078,5.537125 3.08240049,5.74025 3.32606796,5.74025 L4.69325243,5.74025 L4.69325243,7.14845 C4.69325243,7.399425 4.89046117,7.601575 5.13317961,7.601575 C5.37589806,7.601575 5.5731068,7.3994275 5.5731068,7.14845 L5.5731068,5.74025 L6.94029126,5.74025 C7.18300971,5.74025 7.38021845,5.537125 7.38021845,5.287125 C7.38021845,5.037125 7.18300971,4.834 6.94029126,4.834 Z" id="Path" fill-rule="nonzero"></path>
                </g>
            </g>
        </g>
    </g>
</svg>