
<svg width="33px" height="11px" viewBox="0 0 33 11" version="1.1" xmlns="http://www.w3.org/2000/svg" xmlns:xlink="http://www.w3.org/1999/xlink">
    <!-- Generator: Sketch 46.2 (44496) - http://www.bohemiancoding.com/sketch -->
    <desc>Created with Sketch.</desc>
    <defs></defs>
    <g id="Symbols" stroke="none" stroke-width="1" fill="none" fill-rule="evenodd">
        <g id="Visa-icon" transform="translate(-8.000000, -11.000000)">
            <g id="visa-logo" transform="translate(8.904110, 11.687500)">
                <polygon id="Fill-1" fill="#00579F" points="12.6761722 0.184235897 11.0836441 9.59136695 13.6297914 9.59136695 15.2233935 0.184235897"></polygon>
                <g id="Group-10">
                    <path d="M22.868262,0.415828205 C22.3636153,0.225177208 21.5729008,0.0208310541 20.5852685,0.0208310541 C18.0684799,0.0208310541 16.2953246,1.29664302 16.2802872,3.12512664 C16.2661449,4.47680256 17.5461107,5.23093718 18.5122611,5.68089516 C19.5036527,6.1418453 19.8369809,6.43593077 19.8323264,6.84768647 C19.8260609,7.47820427 19.0405378,7.76634316 18.3083616,7.76634316 C17.2888644,7.76634316 16.7473404,7.62380541 15.9107978,7.27259672 L15.5824821,7.1230312 L15.2249868,9.22884174 C15.8200366,9.49139231 16.9200911,9.71898419 18.0623934,9.73069715 C20.7399385,9.73069715 22.4781857,8.46948134 22.4980565,6.51684031 C22.5075444,5.4468161 21.828894,4.63231467 20.3593501,3.96107179 C19.4691026,3.52589017 18.9238193,3.23540869 18.9295478,2.79482108 C18.9295478,2.40378832 19.3910515,1.98572564 20.3881717,1.98572564 C21.221313,1.97275128 21.8245976,2.1554735 22.2946941,2.3461245 L22.5229398,2.45460456 L22.868262,0.415828205" id="Fill-2" fill="#00579F"></path>
                    <path d="M26.2590792,6.25647016 C26.4697813,5.71443027 27.273922,3.62681987 27.273922,3.62681987 C27.2588847,3.65186759 27.4830129,3.08225719 27.6117256,2.72906631 L27.7839391,3.54014395 C27.7839391,3.54014395 28.2715792,5.78560905 28.3734394,6.25647016 L26.2590792,6.25647016 Z M29.4000973,0.193299929 L27.4318143,0.193299929 C26.8220851,0.193299929 26.3657729,0.360705199 26.0979647,0.973383262 L22.3149946,9.5943042 L24.9896754,9.5943042 C24.9896754,9.5943042 25.427191,8.43508127 25.5260079,8.18063967 C25.8183414,8.18063967 28.4167614,8.18460406 28.78822,8.18460406 C28.8644809,8.51382842 29.098097,9.5943042 29.098097,9.5943042 L31.4616477,9.5943042 L29.4000973,0.193299929 L29.4000973,0.193299929 Z" id="Fill-4" fill="#00579F"></path>
                    <path d="M8.94722914,0.191101496 L6.45335461,6.60602101 L6.18769458,5.30227813 C5.7235056,3.79941489 4.27705479,2.17131303 2.65982254,1.35627101 L4.94013076,9.5830958 L7.63521949,9.58003241 L11.6453611,0.191101496 L8.94722914,0.191101496" id="Fill-6" fill="#00579F"></path>
                    <path d="M4.13992839,0.185299074 L0.0325809465,0.185299074 L0,0.380995655 C3.195618,1.15963739 5.30997821,3.04146004 6.18769458,5.30224209 L5.29458281,0.979437963 C5.14027086,0.383878846 4.69308842,0.206022009 4.13992839,0.185299074" id="Fill-8" fill="#F9A51A"></path>
                </g>
            </g>
        </g>
    </g>
</svg>