<svg width="16px" height="16px" viewBox="0 0 16 16" version="1.1" xmlns="http://www.w3.org/2000/svg" xmlns:xlink="http://www.w3.org/1999/xlink">
    <!-- Generator: Sketch 48.2 (47327) - http://www.bohemiancoding.com/sketch -->
    <desc>Created with Sketch.</desc>
    <defs></defs>
    <g id="Page-1" stroke="none" stroke-width="1" fill="none" fill-rule="evenodd">
        <g id="Card-Patterns---Card-View-White-Content-Copy-6" transform="translate(-1238.000000, -188.000000)" fill="#029C86">
            <g id="Group" transform="translate(1220.000000, 174.000000)">
                <g id="Secondary-Btn">
                    <g id="Group-6">
                        <path d="M31.867008,21.467008 L31.867008,19.867008 C31.867008,16.614016 29.254016,14 26,14 C22.747008,14 20.132992,16.612992 20.132992,19.867008 L20.132992,21.467008 L18,21.467008 L18,30 L34,30 L34,21.467008 L31.867008,21.467008 Z M27.2492802,26.1146305 L27.2492802,28 L25.7492802,28 L25.7492802,26.1146305 C25.2994242,25.9432332 25,25.543672 25,25.1430138 C25,24.5141917 25.6747841,24 26.5,24 C27.3252159,24 28,24.5141917 28,25.1430138 C28,25.5425751 27.6991579,25.9432332 27.2493162,26.1146305 L27.2492802,26.1146305 Z M26,21 L22,21 L22,19.499904 C22,17.5497792 23.7712248,16 26,16 C28.2287752,16 30,17.5497792 30,19.499904 L30,21 L26,21 Z" id="Page-1"></path>
                    </g>
                </g>
            </g>
        </g>
    </g>
</svg>