<?xml version="1.0" encoding="UTF-8"?>
<svg width="19px" height="23px" viewBox="0 0 19 23" version="1.1" xmlns="http://www.w3.org/2000/svg" xmlns:xlink="http://www.w3.org/1999/xlink">
    <!-- Generator: Sketch 43.2 (39069) - http://www.bohemiancoding.com/sketch -->
    <title>icon_remove@1.5x</title>
    <desc>Created with Sketch.</desc>
    <defs></defs>
    <g id="Symbols" stroke="none" stroke-width="1" fill="none" fill-rule="evenodd">
        <g id="Large-List-View-Row---Resting-Group" class="icon-remove" transform="translate(-1336.000000, -32.000000)" fill-rule="nonzero" fill="#6D6D6D">
            <path d="M1353.85204,34.2188756 L1348.46751,34.2188756 L1348.46751,33.1438965 C1348.46756,32.5131696 1347.95439,32 1347.32366,32 L1343.67634,32 C1343.04561,32 1342.53244,32.5131696 1342.53244,33.1438965 L1342.53244,34.2188756 L1337.14792,34.2188756 C1336.51494,34.2188756 1336,34.7338123 1336,35.3667922 L1336,36.6046108 C1336,37.2375907 1336.51494,37.7525274 1337.14792,37.7525274 L1337.76451,37.7525274 L1338.38207,52.7027902 C1338.42642,53.7773717 1339.30371,54.6190476 1340.37913,54.6190476 L1350.62083,54.6190476 C1351.69629,54.6190476 1352.57353,53.7773275 1352.61784,52.702746 L1353.1592,39.5984096 C1353.17236,39.2816546 1352.92607,39.0142904 1352.60941,39.0012137 C1352.60123,39.0009487 1352.59328,39.0007719 1352.58528,39.0007719 C1352.27918,39.0007719 1352.02489,39.2424247 1352.01217,39.5510951 L1351.47081,52.6554315 C1351.4519,53.1128046 1351.0786,53.4710426 1350.62078,53.4710426 L1340.37913,53.4710426 C1339.92136,53.4710426 1339.54801,53.1127604 1339.52906,52.6554315 L1338.91353,37.7524833 L1353.85208,37.7524833 C1354.48506,37.7524833 1355,37.2375465 1355,36.6045666 L1355,35.3667922 C1354.99996,34.7338123 1354.48506,34.2188756 1353.85204,34.2188756 Z M1343.68045,33.1480492 L1347.31946,33.1480492 L1347.31946,34.2188756 L1343.68045,34.2188756 L1343.68045,33.1480492 Z M1353.85204,36.6044341 L1337.14805,36.6046108 L1337.14792,35.3669248 L1353.85191,35.3667922 L1353.8527,36.6044341 L1353.85204,36.6044341 Z M1342.57985,42.0299572 L1342.73451,49.3177967 C1342.74123,49.6347726 1342.48972,49.8971447 1342.17279,49.9038597 C1342.16864,49.9039923 1342.16444,49.9039923 1342.16038,49.9039923 C1341.84897,49.9039923 1341.59335,49.6549177 1341.58668,49.3421387 L1341.43206,42.054255 C1341.42535,41.7373233 1341.67685,41.4749512 1341.99378,41.4682361 C1341.99794,41.4681036 1342.00213,41.4681036 1342.0062,41.4681036 C1342.31756,41.4681036 1342.57317,41.7171782 1342.57985,42.0299572 Z M1345.49987,41.4681036 C1345.81684,41.4681036 1346.07387,41.725086 1346.07387,42.0421061 L1346.07387,49.3299456 C1346.07387,49.6469657 1345.81684,49.9039481 1345.49987,49.9039481 C1345.18289,49.9039481 1344.92586,49.6469657 1344.92586,49.3299456 L1344.92586,42.0421061 C1344.92586,41.725086 1345.18289,41.4681036 1345.49987,41.4681036 Z M1349.00604,41.4682361 C1349.32297,41.4749512 1349.57452,41.7373233 1349.56781,42.054255 L1349.41318,49.3421387 C1349.40651,49.6549177 1349.15086,49.9039923 1348.83949,49.9039923 C1348.83534,49.9039923 1348.83123,49.9039923 1348.82708,49.9038597 C1348.51019,49.8971447 1348.25864,49.6347726 1348.26536,49.3177967 L1348.41998,42.0299572 C1348.42674,41.7129813 1348.69189,41.4611235 1349.00604,41.4682361 Z" id="icon_remove"></path>
        </g>
    </g>
</svg>