<?xml version="1.0" encoding="UTF-8"?>
<svg width="51px" height="51px" viewBox="0 0 51 51" version="1.1" xmlns="http://www.w3.org/2000/svg" xmlns:xlink="http://www.w3.org/1999/xlink">
    <!-- Generator: Sketch 53.2 (72643) - https://sketchapp.com -->
    <title>study</title>
    <desc>Created with Sketch.</desc>
    <g id="Assessment-Tool-Revision-" stroke="none" stroke-width="1" fill="none" fill-rule="evenodd">
        <g id="Task-4" transform="translate(-659.000000, -1261.000000)" fill="#4A4A4A" fill-rule="nonzero">
            <g id="POPUP-AND-SCREEN" transform="translate(0.000000, 786.000000)">
                <g id="ADD-EVEDENCE-POPUP" transform="translate(403.000000, 181.000000)">
                    <g id="study" transform="translate(256.000000, 294.000000)">
                        <path d="M47.9180292,27.2517305 L47.9180292,22.5123164 C47.9180292,21.6871523 47.2503567,21.0181758 46.4268012,21.0181758 C43.3461228,21.0181758 40.4740175,21.2786543 37.7604795,21.8105684 C36.1786842,20.2800703 34.2503275,19.169625 32.1621111,18.5627051 C34.439117,16.6425352 35.8887895,13.7675098 35.8887895,10.5591914 C35.8887895,4.73712305 31.2060351,0.00059765625 25.450193,0.00059765625 C19.6943509,0.00059765625 15.0115965,4.73712305 15.0115965,10.5591914 C15.0115965,13.7675098 16.461269,16.6425352 18.7383743,18.5626055 C16.6501579,19.169625 14.7218012,20.2800703 13.1400058,21.8104688 C10.4264678,21.2786543 7.55436257,21.0180762 4.47368421,21.0180762 C3.65012865,21.0180762 2.98245614,21.6870527 2.98245614,22.5122168 L2.98245614,27.2516309 C1.24676608,27.8684121 0,29.5291992 0,31.4770605 L0,34.4653418 C0,36.4132031 1.24676608,38.0739902 2.98245614,38.6907715 L2.98245614,43.4301855 C2.98245614,44.2553496 3.65012865,44.9243262 4.47368421,44.9243262 C12.2707193,44.9243262 18.6733567,46.7753672 24.6231579,50.749582 C25.1217251,51.0824766 25.778462,51.0832734 26.2775263,50.749582 C32.2273275,46.7753672 38.6298655,44.9243262 46.427,44.9243262 C47.2505556,44.9243262 47.9182281,44.2553496 47.9182281,43.4301855 L47.9182281,38.6907715 C49.6539181,38.0739902 50.9006842,36.4132031 50.9006842,34.4653418 L50.9006842,31.4770605 C50.9004854,29.5292988 49.6537193,27.8685117 47.9180292,27.2517305 Z M17.9940526,10.5591914 C17.9940526,6.38486133 21.3388772,2.98887891 25.450193,2.98887891 C29.5615088,2.98887891 32.9063333,6.38486133 32.9063333,10.5591914 C32.9063333,14.6785371 29.5615088,18.0298945 25.450193,18.0298945 C21.3388772,18.0298945 17.9940526,14.6785371 17.9940526,10.5591914 Z M4.4735848,35.959582 C3.65132164,35.959582 2.98235673,35.2893105 2.98235673,34.4654414 L2.98235673,31.4771602 C2.98235673,30.653291 3.65132164,29.9830195 4.4735848,29.9830195 C5.29584795,29.9830195 5.96481287,30.653291 5.96481287,31.4771602 L5.96481287,34.4654414 C5.96481287,35.2893105 5.29584795,35.959582 4.4735848,35.959582 Z M23.9589649,46.8254707 C18.5455088,43.7235352 12.7363801,42.1557832 5.96481287,41.9576602 L5.96481287,38.6908711 C7.70050292,38.0740898 8.94726901,36.4133027 8.94726901,34.4654414 L8.94726901,31.4771602 C8.94726901,29.5292988 7.70050292,27.8685117 5.96481287,27.2517305 L5.96481287,24.0275742 C12.9716959,24.229084 18.6038655,25.8823008 23.9589649,29.2985039 L23.9589649,46.8254707 Z M25.450193,26.7097559 C22.6977836,24.9696797 19.8328363,23.6447754 16.7744269,22.7137266 C18.4549415,21.619418 20.4332047,21.0181758 22.4677368,21.0181758 L28.4326491,21.0181758 C30.4671813,21.0181758 32.4454444,21.619418 34.1259591,22.7137266 C31.0675497,23.6447754 28.2025029,24.9696797 25.450193,26.7097559 Z M44.9355731,41.9576602 C38.1641053,42.1557832 32.3547778,43.7239336 26.9414211,46.8256699 L26.9414211,29.2996992 C32.2966199,25.8831973 37.9283918,24.2289844 44.9355731,24.0275742 L44.9355731,27.2517305 C43.199883,27.8685117 41.953117,29.5292988 41.953117,31.4771602 L41.953117,34.4654414 C41.953117,36.4133027 43.199883,38.0740898 44.9355731,38.6908711 L44.9355731,41.9576602 Z M47.9180292,34.4654414 C47.9180292,35.2893105 47.2490643,35.959582 46.4268012,35.959582 C45.604538,35.959582 44.9355731,35.2893105 44.9355731,34.4654414 L44.9355731,31.4771602 C44.9355731,30.653291 45.604538,29.9830195 46.4268012,29.9830195 C47.2490643,29.9830195 47.9180292,30.653291 47.9180292,31.4771602 L47.9180292,34.4654414 Z" id="Shape"></path>
                    </g>
                </g>
            </g>
        </g>
    </g>
</svg>