
<svg width="27px" height="30px" viewBox="0 0 27 30" version="1.1" xmlns="http://www.w3.org/2000/svg" xmlns:xlink="http://www.w3.org/1999/xlink">
    <g id="Assessment-Tool-Revision-" stroke="none" stroke-width="1" fill="none" fill-rule="evenodd">
        <g id="login" fill="#6F6F6F" fill-rule="nonzero">
            <path d="M20.3823342,16.2499805 C20.0413933,16.2499805 19.7646684,16.53 19.7646684,16.875 L19.7646684,23.1250195 C19.7646684,24.1587891 18.9333355,25.0000195 17.9117289,25.0000195 L12.3529105,25.0000195 L12.3529105,5.74248047 C12.3529105,4.66125 11.7179892,3.68748047 10.7359313,3.2625 L6.09617087,1.24998047 L17.9117289,1.24998047 C18.9333355,1.24998047 19.7646684,2.09121094 19.7646684,3.12498047 L19.7646684,9.375 C19.7646684,9.72 20.0413933,10.0000195 20.3823342,10.0000195 C20.7232751,10.0000195 21,9.72 21,9.375 L21,3.12498047 C21,1.4025 19.6140013,0 17.9117868,0 L3.08827106,0 C3.03887864,0 2.99440809,0.0175195312 2.94744766,0.0287695312 C2.85480068,0.01875 2.76215371,0 2.66701685,0 C1.1969989,0 0,1.21125 0,2.69876953 L0,24.2575195 C0,25.33875 0.634921291,26.3125195 1.61697921,26.7375 L8.63342405,29.7812695 C8.96695316,29.9262891 9.32150154,30 9.68589367,30 C11.1559116,30 12.3529105,28.78875 12.3529105,27.3012305 L12.3529105,26.25 L17.9117289,26.25 C19.6140013,26.25 21,24.8475 21,23.1250195 L21,16.875 C21,16.53 20.7232751,16.2499805 20.3823342,16.2499805 Z M11.1176368,27.3012305 C11.1176368,28.0999805 10.4753038,28.7499609 9.68595158,28.7499609 C9.49075598,28.7499609 9.30054016,28.7112305 9.12144198,28.6337109 L2.10372325,25.59 C1.57627245,25.36125 1.23533159,24.8374805 1.23533159,24.2575195 L1.23533159,2.69876953 C1.23533159,1.90001953 1.87766463,1.25003906 2.66701685,1.25003906 C2.86221244,1.25003906 3.05242826,1.28876953 3.23152644,1.36751953 L10.2492452,4.41 C10.776696,4.63875 11.1176368,5.16251953 11.1176368,5.74248047 L11.1176368,27.3012305 L11.1176368,27.3012305 Z" id="Shape"></path>
            <path d="M9.5,13 C9.22400862,13 9,13.2986875 9,13.6666875 L9,16.3333125 C9,16.7013125 9.22400862,17 9.5,17 C9.77599138,17 10,16.7013125 10,16.3333125 L10,13.666625 C10,13.298625 9.77599138,13 9.5,13 Z" id="Path"></path>
            <path d="M26.9656364,13.3291002 C26.9592529,13.3059519 26.9605654,13.2802114 26.9516165,13.2570631 C26.9185058,13.1734518 26.8688695,13.1001487 26.805273,13.0384198 L22.994733,9.18808022 C22.7465515,8.93730659 22.3430776,8.93730659 22.0948962,9.18808022 C21.8467147,9.43885384 21.8467147,9.84654182 22.0948962,10.0973154 L24.8248923,12.8558253 L13.6363826,12.8558253 C13.2851104,12.8558253 13,13.1439135 13,13.4988546 C13,13.8537958 13.2851104,14.141884 13.6363826,14.141884 L24.8274576,14.141884 L22.0948962,16.902986 C21.8467147,17.1537596 21.8467147,17.5614476 22.0948962,17.8122212 C22.2196432,17.9369449 22.3825122,18 22.545441,18 C22.7083697,18 22.8712388,17.9370052 22.994733,17.8135474 L26.8129094,13.9554917 C26.8307474,13.9374673 26.8370713,13.914319 26.852344,13.8963549 C26.8892729,13.8500583 26.9274546,13.8024957 26.9503637,13.7458908 C26.9732728,13.6906121 26.9783438,13.631415 26.9847273,13.5735442 C26.9885455,13.5478037 27,13.5246554 27,13.4989752 C27,13.4383917 26.9809091,13.3843789 26.9656364,13.3291002 Z" id="Path"></path>
        </g>
    </g>
</svg>