<?xml version="1.0" encoding="UTF-8"?>
<svg width="26px" height="25px" viewBox="0 0 26 25" version="1.1" xmlns="http://www.w3.org/2000/svg" xmlns:xlink="http://www.w3.org/1999/xlink">
    <!-- Generator: Sketch 53.2 (72643) - https://sketchapp.com -->
    <title>View Group-Blue</title>
    <desc>Created with Sketch.</desc>
    <g id="Super-Admin-Cards" stroke="none" stroke-width="1" fill="none" fill-rule="evenodd">
        <g id="View-Group-Blue" fill="#007AFF">
            <g id="icon_group-2">
                <path d="M12.4583333,19.4444444 L12.2958333,19.4444444 C10.2190833,19.4444444 8.37958333,17.5833333 8.14991667,15.3566667 C7.19008333,15.0277778 6.50108333,13.83 6.50108333,12.7777778 L6.50108333,11.6666667 C6.50108333,10.9422222 6.95391667,10.3244444 7.58441667,10.0955556 L7.58441667,8.66666667 C7.58441667,6.74555556 8.63091667,5.44333333 10.1985,5.39111111 C10.4931667,5.28555556 10.8008333,5.16888889 11.1139167,5.04555556 C12.2579167,4.60333333 13.442,4.14444444 14.5090833,4.14444444 C16.38325,4.14444444 17.3344167,5.55444444 17.3344167,8.33333333 L17.3344167,10.2177778 C17.7634167,10.4711111 18.41775,10.9722222 18.41775,11.6666667 L18.41775,12.7777778 C18.41775,13.7855556 17.61175,15.0233333 16.6053333,15.3588889 C16.3735,17.5833333 14.5350833,19.4444444 12.4583333,19.4444444 L12.4583333,19.4444444 Z M14.5069167,5.25555556 C15.0290833,5.25555556 16.25,5.25555556 16.25,8.33111111 L16.25,10.5533333 C16.25,10.7722222 16.3756667,10.9711111 16.5706667,11.06 C16.9173333,11.22 17.3105833,11.5333333 17.3333333,11.6644444 L17.3333333,12.7755556 C17.3333333,13.4588889 16.6356667,14.3288889 16.0875,14.3288889 C15.7895833,14.3288889 15.5458333,14.58 15.5458333,14.8844444 C15.5458333,16.7222222 14.1028333,18.3311111 12.4583333,18.3311111 L12.2958333,18.3311111 C10.6513333,18.3311111 9.20833333,16.7188889 9.20833333,14.8844444 C9.20833333,14.58 8.96566667,14.3288889 8.66666667,14.3288889 C8.11958333,14.3288889 7.58333333,13.4411111 7.58333333,12.7755556 L7.58333333,11.6644444 C7.58333333,11.3588889 7.826,11.1088889 8.125,11.1088889 C8.424,11.1088889 8.66666667,10.8588889 8.66666667,10.5533333 L8.66666667,8.66444444 C8.66666667,7.62 9.0935,6.49777778 10.2916667,6.49777778 C10.35125,6.49777778 10.40975,6.49 10.4660833,6.47 C10.7954167,6.35222222 11.141,6.21888889 11.4941667,6.08222222 C12.54825,5.67777778 13.6380833,5.25555556 14.5069167,5.25555556 Z M21.7175833,25 L3.25,25 C2.951,25 2.70833333,24.7511111 2.70833333,24.4444444 C2.70833333,20.96 5.29208333,18.3333333 8.71758333,18.3333333 C9.01658333,18.3333333 9.25925,18.5822222 9.25925,18.8888889 C9.25925,19.1955556 9.01658333,19.4444444 8.71758333,19.4444444 C6.04933333,19.4444444 4.06466667,21.2822222 3.81766667,23.8888889 L21.151,23.8888889 C20.9029167,21.2822222 18.91825,19.4444444 16.2510833,19.4444444 C15.9531667,19.4444444 15.7094167,19.1955556 15.7094167,18.8888889 C15.7094167,18.5822222 15.9531667,18.3333333 16.2510833,18.3333333 C19.6765833,18.3333333 22.2603333,20.96 22.2603333,24.4444444 C22.25925,24.7511111 22.0165833,25 21.7175833,25 Z M0.541666667,11.1088889 C0.242666667,11.1088889 -5.68434189e-14,10.86 -5.68434189e-14,10.5533333 C-5.68434189e-14,8.71555556 1.45816667,7.22 3.25,7.22 C3.549,7.22 3.79166667,7.46888889 3.79166667,7.77555556 C3.79166667,8.08222222 3.549,8.33111111 3.25,8.33111111 C2.05508333,8.33111111 1.08333333,9.32666667 1.08333333,10.5533333 C1.08333333,10.86 0.840666667,11.1088889 0.541666667,11.1088889 Z M25.4583333,11.1088889 C25.1604167,11.1088889 24.9166667,10.86 24.9166667,10.5533333 C24.9166667,9.32666667 23.946,8.33111111 22.75,8.33111111 C22.4520833,8.33111111 22.2083333,8.08222222 22.2083333,7.77555556 C22.2083333,7.46888889 22.4520833,7.22 22.75,7.22 C24.5418333,7.22 26,8.71555556 26,10.5533333 C26,10.86 25.75625,11.1088889 25.4583333,11.1088889 Z M5.41666667,7.77777778 C3.66925,7.77777778 2.70833333,4.02222222 2.70833333,2.77777778 C2.70833333,1.24555556 3.92383333,0 5.41666667,0 C6.9095,0 8.125,1.24555556 8.125,2.77777778 C8.125,4.02222222 7.16408333,7.77777778 5.41666667,7.77777778 Z M5.41666667,1.11111111 C4.52075,1.11111111 3.79166667,1.85888889 3.79166667,2.77777778 C3.79166667,4.08333333 4.77966667,6.66666667 5.41666667,6.66666667 C6.05366667,6.66666667 7.04166667,4.08333333 7.04166667,2.77777778 C7.04166667,1.85888889 6.31258333,1.11111111 5.41666667,1.11111111 Z M20.5833333,7.77777778 C18.8359167,7.77777778 17.875,4.02222222 17.875,2.77777778 C17.875,1.24555556 19.0905,0 20.5833333,0 C22.0761667,0 23.2916667,1.24555556 23.2916667,2.77777778 C23.2916667,4.02222222 22.33075,7.77777778 20.5833333,7.77777778 Z M20.5833333,1.11111111 C19.6874167,1.11111111 18.9583333,1.85888889 18.9583333,2.77777778 C18.9583333,4.08333333 19.9463333,6.66666667 20.5833333,6.66666667 C21.2203333,6.66666667 22.2083333,4.08333333 22.2083333,2.77777778 C22.2083333,1.85888889 21.47925,1.11111111 20.5833333,1.11111111 Z" id="icon_group"></path>
            </g>
        </g>
    </g>
</svg>