<?xml version="1.0" encoding="UTF-8" standalone="no"?>
<svg width="16px" height="16px" viewBox="0 0 16 16" version="1.1" xmlns="http://www.w3.org/2000/svg" xmlns:xlink="http://www.w3.org/1999/xlink">
    <!-- Generator: sketchtool 40.3 (33839) - http://www.bohemiancoding.com/sketch -->
    <title>8C1315F0-0B29-4997-B3FA-EFFD27753141</title>
    <desc>Created with sketchtool.</desc>
    <defs></defs>
    <g id="Header-and-Footer-Interaction" stroke="none" stroke-width="1" fill="none" fill-rule="evenodd">
        <g id="Header---Bookmarked" transform="translate(-1393.000000, -33.000000)" fill="#000000" stroke="#000000">
            <g id="header">
                <g id="Icon-5" transform="translate(1394.000000, 34.000000)">
                    <path d="M13.9922121,13.9905974 C13.8084554,14.1743541 13.5676275,14.2659189 13.3267996,14.2659189 C13.0859716,14.2659189 12.8445165,14.1743541 12.6607598,13.9905974 L7.13363347,8.46347101 L1.60650713,13.9905974 C1.4227504,14.1743541 1.18129532,14.2659189 0.940467394,14.2659189 C0.699639468,14.2659189 0.458811541,14.1743541 0.275054816,13.9905974 C-0.0918314782,13.6237111 -0.0918314782,13.0272857 0.275054816,12.6603994 L5.80280832,7.13264586 L0.275054816,1.60489235 C-0.0918314782,1.23800606 -0.0918314782,0.641580648 0.275054816,0.274694354 C0.642568267,-0.0915647846 1.23836652,-0.0915647846 1.60650713,0.274694354 L7.13363347,5.8018207 L12.6607598,0.274694354 C13.0289004,-0.0915647846 13.6240715,-0.0915647846 13.991585,0.274694354 C14.3584713,0.640953492 14.3584713,1.23800606 13.991585,1.60489235 L8.46383148,7.13264586 L13.9922121,12.6603994 C14.3590984,13.0272857 14.3590984,13.6237111 13.9922121,13.9905974 Z" id="Shape"></path>
                </g>
            </g>
        </g>
    </g>
</svg>