
<svg width="30px" height="29px" viewBox="0 0 30 29" version="1.1" xmlns="http://www.w3.org/2000/svg" xmlns:xlink="http://www.w3.org/1999/xlink">
    <g id="Super-Admin-Cards" stroke="none" stroke-width="1" fill="none" fill-rule="evenodd">
        <g id="EQA-" transform="translate(-875.000000, -71.000000)">
            <rect fill="#FFFFFF" x="0" y="0" width="1440" height="528"></rect>
            <g id="Large-List-View-Row---Hover" transform="translate(23.000000, 44.000000)">
                <g id="Assign---Centre" transform="translate(852.000000, 27.000000)">
                    <g id="np_building_1216306_555555" stroke-width="1" fill="#6F6F6F">
                        <path d="M22.0373437,14.340163 C21.3439687,14.340163 20.7067812,14.5860033 20.1953125,14.9948804 L20.1953125,2.28629348 L20.4943844,2.28629348 C20.6665031,2.28629348 20.8068844,2.1410837 20.8068844,1.96020652 L20.8068844,0.325956522 C20.8068844,0.145079348 20.6665031,-0.000130434783 20.4943844,-0.000130434783 L4.78750937,-0.000130434783 C4.61539063,-0.000130434783 4.47500937,0.145079348 4.47500937,0.325956522 L4.47500937,1.96020652 C4.47500937,2.1410837 4.61539063,2.28629348 4.78750937,2.28629348 L4.97427813,2.28629348 L4.97427813,15.0049891 C4.46037187,14.58975 3.81827812,14.3400652 3.11880938,14.3400652 C1.44277813,14.3400652 0.078028125,15.7628804 0.078028125,17.5130543 C0.078028125,19.1485761 1.26943438,20.4975 2.79530938,20.6669348 L2.78554375,23.7927717 L0.3905125,23.7927717 C0.21839375,23.7927717 0.0780125,23.9379815 0.0780125,24.1188587 L0.079233125,25.7607717 C0.079233125,25.9416489 0.219614375,26.0868587 0.391733125,26.0868587 L24.7667331,26.0868587 C24.9388519,26.0868587 25.0792331,25.9416489 25.0792331,25.7607717 L25.0792331,24.1188587 C25.0792331,23.9379815 24.9388519,23.7927717 24.7667331,23.7927717 L22.3314206,23.7927717 L22.3411862,20.6694783 C23.8743738,20.5115283 25.0779988,19.1562391 25.0779988,17.5130543 C25.078125,15.76425 23.7145938,14.340163 22.0373437,14.340163 Z M22.0373437,14.992337 C23.369125,14.992337 24.453125,16.1234674 24.453125,17.5131522 C24.453125,18.7958478 23.5302812,19.8556304 22.3413125,20.0110435 L22.3449744,18.7474565 L23.1775056,17.8481739 C23.2971338,17.7195228 23.2934712,17.511913 23.1701813,17.3870543 C23.0456688,17.262225 22.8479313,17.2660467 22.728275,17.3946972 L22.3474,17.8061211 L22.3498413,16.9131972 C22.3498413,16.733595 22.2106819,16.5871102 22.0385631,16.5858385 L22.0373422,16.5858385 C21.8652234,16.5858385 21.7248422,16.7310483 21.7248422,16.9106504 L21.7224009,17.845607 L21.3049322,17.3946939 C21.1853041,17.2660428 20.9875572,17.2622211 20.8630259,17.3870511 C20.7385134,17.5118804 20.7360728,17.718225 20.8557016,17.8481707 L21.7199516,18.7805837 L21.7162897,20.0084967 C20.5358834,19.8429065 19.6227897,18.7882141 19.6227897,17.5131815 C19.6227897,16.1234967 20.7067897,14.9923663 22.0373522,14.9923663 L22.0373437,14.992337 Z M5.15609375,23.7927717 L5.15609375,22.7444674 L20.1817188,22.7444674 L20.1817188,23.7927717 L5.15609375,23.7927717 Z M5.09994062,0.65201087 L20.1818156,0.65201087 L20.1818156,1.63408696 L5.09994062,1.63408696 L5.09994062,0.65201087 Z M19.5702531,2.2861937 L19.5702531,15.6659348 C19.2113781,16.1869239 18.9977531,16.8238043 18.9977531,17.5129239 C18.9977531,18.2020435 19.211375,18.8389239 19.5702531,19.359913 L19.5702531,22.0934348 L5.59931562,22.0921611 L5.59931562,19.3408024 C5.95087812,18.8236611 6.15962812,18.1931393 6.15962812,17.5116502 C6.15962812,16.8301611 5.9508875,16.2009437 5.59931562,15.682498 L5.59931562,2.2861937 L19.5702531,2.2861937 Z M0.703065625,17.5128913 C0.703065625,16.1232065 1.78706562,14.9920761 3.11884687,14.9920761 C4.45062812,14.9920761 5.53462812,16.1232065 5.53462812,17.5128913 C5.53462812,18.795587 4.61178437,19.8553696 3.42281562,20.0107826 L3.42647781,18.7471957 L4.25900906,17.847913 C4.37863719,17.719262 4.37497469,17.5116522 4.251685,17.3867935 C4.1271725,17.2606891 3.929435,17.2657859 3.80977875,17.3944363 L3.42890375,17.8058602 L3.43134531,16.9129363 C3.43134531,16.7333341 3.29218594,16.5868493 3.12006719,16.5855776 L3.11884656,16.5855776 C2.94672781,16.5855776 2.80634656,16.7307874 2.80634656,16.9103896 L2.803905,17.8453461 L2.38643625,17.394433 C2.26680812,17.265782 2.06906125,17.2606852 1.94453,17.3867902 C1.8200175,17.5116196 1.81757687,17.7192359 1.93720594,17.8479098 L2.80145594,18.7803228 L2.79779375,20.0069641 C1.6173875,19.8426457 0.703075,18.7879533 0.703075,17.5129207 L0.703065625,17.5128913 Z M3.42034687,20.6693152 C4.00262812,20.6094489 4.53484687,20.3750739 4.97431562,20.0209565 L4.97431562,22.0921304 L4.84492187,22.0921304 C4.67280312,22.0921304 4.53242187,22.2373402 4.53242187,22.4182174 L4.53242187,23.7926087 L3.41182812,23.7926087 L3.42034687,20.6693152 Z M24.4531594,25.4344239 L0.703159375,25.4344239 L0.703159375,24.4446848 L24.4531594,24.4446848 L24.4531594,25.4344239 Z M20.8069094,23.7925109 L20.8069094,22.4181196 C20.8069094,22.2372424 20.6665281,22.0920326 20.4944094,22.0920326 L20.1953375,22.0920326 L20.1953375,20.0310652 C20.6262438,20.3749891 21.146275,20.6042609 21.7139,20.6666739 L21.7041344,23.7925109 L20.8069094,23.7925109 Z" id="Shape" fill-rule="nonzero"></path>
                        <path d="M7.03625,15.4255435 L8.6060625,15.4255435 C8.77818125,15.4255435 8.9185625,15.2803337 8.9185625,15.0994565 L8.9185625,12.5824565 C8.9185625,12.4015793 8.77818125,12.2563696 8.6060625,12.2563696 L7.03625,12.2563696 C6.86413125,12.2563696 6.72375,12.4015793 6.72375,12.5824565 L6.72375,15.0994565 C6.72375,15.2790587 6.86290937,15.4255435 7.03625,15.4255435 Z M7.34875,12.9085435 L8.2935625,12.9085435 L8.2935625,14.7733696 L7.34875,14.7733696 L7.34875,12.9085435 Z" id="Shape" fill-rule="nonzero"></path>
                        <path d="M7.03625,11.2806522 L8.6060625,11.2806522 C8.77818125,11.2806522 8.9185625,11.1354424 8.9185625,10.9545652 L8.9185625,8.43756522 C8.9185625,8.25668804 8.77818125,8.11147826 8.6060625,8.11147826 L7.03625,8.11147826 C6.86413125,8.11147826 6.72375,8.25668804 6.72375,8.43756522 L6.72375,10.9545652 C6.72375,11.1341674 6.86290937,11.2806522 7.03625,11.2806522 Z M7.34875,8.76365217 L8.2935625,8.76365217 L8.2935625,10.6284783 L7.34875,10.6284783 L7.34875,8.76365217 Z" id="Shape" fill-rule="nonzero"></path>
                        <path d="M7.03625,19.5538043 L8.6060625,19.5538043 C8.77818125,19.5538043 8.9185625,19.4085946 8.9185625,19.2277174 L8.9185625,16.7107174 C8.9185625,16.5298402 8.77818125,16.3846304 8.6060625,16.3846304 L7.03625,16.3846304 C6.86413125,16.3846304 6.72375,16.5298402 6.72375,16.7107174 L6.72375,19.2277174 C6.72375,19.4073196 6.86290937,19.5538043 7.03625,19.5538043 Z M7.34875,17.0368043 L8.2935625,17.0368043 L8.2935625,18.9016304 L7.34875,18.9016304 L7.34875,17.0368043 Z" id="Shape" fill-rule="nonzero"></path>
                        <path d="M7.03625,7.10902174 L8.6060625,7.10902174 C8.77818125,7.10902174 8.9185625,6.96381196 8.9185625,6.78293478 L8.9185625,4.26593478 C8.9185625,4.08505761 8.77818125,3.93984783 8.6060625,3.93984783 L7.03625,3.93984783 C6.86413125,3.93984783 6.72375,4.08505761 6.72375,4.26593478 L6.72375,6.78293478 C6.72375,6.96381196 6.86290937,7.10902174 7.03625,7.10902174 L7.03625,7.10902174 Z M7.34875,4.59332609 L8.2935625,4.59332609 L8.2935625,6.45815217 L7.34875,6.45815217 L7.34875,4.59332609 Z" id="Shape" fill-rule="nonzero"></path>
                        <path d="M10.2075,15.4255435 L11.7773125,15.4255435 C11.9494313,15.4255435 12.0898125,15.2803337 12.0898125,15.0994565 L12.0898125,12.5824565 C12.0898125,12.4015793 11.9494313,12.2563696 11.7773125,12.2563696 L10.2075,12.2563696 C10.0353813,12.2563696 9.895,12.4015793 9.895,12.5824565 L9.895,15.0994565 C9.895,15.2790587 10.0353813,15.4255435 10.2075,15.4255435 Z M10.52,12.9085435 L11.4648125,12.9085435 L11.4648125,14.7733696 L10.52,14.7733696 L10.52,12.9085435 Z" id="Shape" fill-rule="nonzero"></path>
                        <path d="M10.2075,11.2806522 L11.7773125,11.2806522 C11.9494313,11.2806522 12.0898125,11.1354424 12.0898125,10.9545652 L12.0898125,8.43756522 C12.0898125,8.25668804 11.9494313,8.11147826 11.7773125,8.11147826 L10.2075,8.11147826 C10.0353813,8.11147826 9.895,8.25668804 9.895,8.43756522 L9.895,10.9545652 C9.895,11.1341674 10.0353813,11.2806522 10.2075,11.2806522 Z M10.52,8.76365217 L11.4648125,8.76365217 L11.4648125,10.6284783 L10.52,10.6284783 L10.52,8.76365217 Z" id="Shape" fill-rule="nonzero"></path>
                        <path d="M10.2075,19.5538043 L11.7773125,19.5538043 C11.9494313,19.5538043 12.0898125,19.4085946 12.0898125,19.2277174 L12.0898125,16.7107174 C12.0898125,16.5298402 11.9494313,16.3846304 11.7773125,16.3846304 L10.2075,16.3846304 C10.0353813,16.3846304 9.895,16.5298402 9.895,16.7107174 L9.895,19.2277174 C9.895,19.4073196 10.0353813,19.5538043 10.2075,19.5538043 Z M10.52,17.0368043 L11.4648125,17.0368043 L11.4648125,18.9016304 L10.52,18.9016304 L10.52,17.0368043 Z" id="Shape" fill-rule="nonzero"></path>
                        <path d="M10.2075,7.10902174 L11.7773125,7.10902174 C11.9494313,7.10902174 12.0898125,6.96381196 12.0898125,6.78293478 L12.0898125,4.26593478 C12.0898125,4.08505761 11.9494313,3.93984783 11.7773125,3.93984783 L10.2075,3.93984783 C10.0353813,3.93984783 9.895,4.08505761 9.895,4.26593478 L9.895,6.78293478 C9.895,6.96381196 10.0353813,7.10902174 10.2075,7.10902174 L10.2075,7.10902174 Z M10.52,4.59332609 L11.4648125,4.59332609 L11.4648125,6.45815217 L10.52,6.45815217 L10.52,4.59332609 Z" id="Shape" fill-rule="nonzero"></path>
                        <path d="M13.37875,15.4255435 L14.9485625,15.4255435 C15.1206813,15.4255435 15.2610625,15.2803337 15.2610625,15.0994565 L15.2610625,12.5824565 C15.2610625,12.4015793 15.1206813,12.2563696 14.9485625,12.2563696 L13.37875,12.2563696 C13.2066312,12.2563696 13.06625,12.4015793 13.06625,12.5824565 L13.06625,15.0994565 C13.06625,15.2790587 13.2066312,15.4255435 13.37875,15.4255435 Z M13.69125,12.9085435 L14.6360625,12.9085435 L14.6360625,14.7733696 L13.69125,14.7733696 L13.69125,12.9085435 Z" id="Shape" fill-rule="nonzero"></path>
                        <path d="M13.37875,11.2806522 L14.9485625,11.2806522 C15.1206813,11.2806522 15.2610625,11.1354424 15.2610625,10.9545652 L15.2610625,8.43756522 C15.2610625,8.25668804 15.1206813,8.11147826 14.9485625,8.11147826 L13.37875,8.11147826 C13.2066312,8.11147826 13.06625,8.25668804 13.06625,8.43756522 L13.06625,10.9545652 C13.06625,11.1341674 13.2066312,11.2806522 13.37875,11.2806522 Z M13.69125,8.76365217 L14.6360625,8.76365217 L14.6360625,10.6284783 L13.69125,10.6284783 L13.69125,8.76365217 Z" id="Shape" fill-rule="nonzero"></path>
                        <path d="M13.37875,19.5538043 L14.9485625,19.5538043 C15.1206813,19.5538043 15.2610625,19.4085946 15.2610625,19.2277174 L15.2610625,16.7107174 C15.2610625,16.5298402 15.1206813,16.3846304 14.9485625,16.3846304 L13.37875,16.3846304 C13.2066312,16.3846304 13.06625,16.5298402 13.06625,16.7107174 L13.06625,19.2277174 C13.06625,19.4073196 13.2066312,19.5538043 13.37875,19.5538043 Z M13.69125,17.0368043 L14.6360625,17.0368043 L14.6360625,18.9016304 L13.69125,18.9016304 L13.69125,17.0368043 Z" id="Shape" fill-rule="nonzero"></path>
                        <path d="M13.37875,7.10902174 L14.9485625,7.10902174 C15.1206813,7.10902174 15.2610625,6.96381196 15.2610625,6.78293478 L15.2610625,4.26593478 C15.2610625,4.08505761 15.1206813,3.93984783 14.9485625,3.93984783 L13.37875,3.93984783 C13.2066312,3.93984783 13.06625,4.08505761 13.06625,4.26593478 L13.06625,6.78293478 C13.06625,6.96381196 13.2066312,7.10902174 13.37875,7.10902174 L13.37875,7.10902174 Z M13.69125,4.59332609 L14.6360625,4.59332609 L14.6360625,6.45815217 L13.69125,6.45815217 L13.69125,4.59332609 Z" id="Shape" fill-rule="nonzero"></path>
                        <path d="M16.5515625,15.4255435 L18.121375,15.4255435 C18.2934937,15.4255435 18.433875,15.2803337 18.433875,15.0994565 L18.433875,12.5824565 C18.433875,12.4015793 18.2934937,12.2563696 18.121375,12.2563696 L16.5515625,12.2563696 C16.3794437,12.2563696 16.2390625,12.4015793 16.2390625,12.5824565 L16.2390625,15.0994565 C16.2390625,15.2790587 16.3782219,15.4255435 16.5515625,15.4255435 L16.5515625,15.4255435 Z M16.8640625,12.9085435 L17.808875,12.9085435 L17.808875,14.7733696 L16.8640625,14.7733696 L16.8640625,12.9085435 Z" id="Shape" fill-rule="nonzero"></path>
                        <path d="M16.5515625,11.2806522 L18.121375,11.2806522 C18.2934937,11.2806522 18.433875,11.1354424 18.433875,10.9545652 L18.433875,8.43756522 C18.433875,8.25668804 18.2934937,8.11147826 18.121375,8.11147826 L16.5515625,8.11147826 C16.3794437,8.11147826 16.2390625,8.25668804 16.2390625,8.43756522 L16.2390625,10.9545652 C16.2390625,11.1341674 16.3782219,11.2806522 16.5515625,11.2806522 L16.5515625,11.2806522 Z M16.8640625,8.76365217 L17.808875,8.76365217 L17.808875,10.6284783 L16.8640625,10.6284783 L16.8640625,8.76365217 Z" id="Shape" fill-rule="nonzero"></path>
                        <path d="M16.5515625,19.5538043 L18.121375,19.5538043 C18.2934937,19.5538043 18.433875,19.4085946 18.433875,19.2277174 L18.433875,16.7107174 C18.433875,16.5298402 18.2934937,16.3846304 18.121375,16.3846304 L16.5515625,16.3846304 C16.3794437,16.3846304 16.2390625,16.5298402 16.2390625,16.7107174 L16.2390625,19.2277174 C16.2390625,19.4073196 16.3782219,19.5538043 16.5515625,19.5538043 L16.5515625,19.5538043 Z M16.8640625,17.0368043 L17.808875,17.0368043 L17.808875,18.9016304 L16.8640625,18.9016304 L16.8640625,17.0368043 Z" id="Shape" fill-rule="nonzero"></path>
                        <path d="M16.5515625,7.10902174 L18.121375,7.10902174 C18.2934937,7.10902174 18.433875,6.96381196 18.433875,6.78293478 L18.433875,4.26593478 C18.433875,4.08505761 18.2934937,3.93984783 18.121375,3.93984783 L16.5515625,3.93984783 C16.3794437,3.93984783 16.2390625,4.08505761 16.2390625,4.26593478 L16.2390625,6.78293478 C16.2390625,6.96381196 16.3782219,7.10902174 16.5515625,7.10902174 L16.5515625,7.10902174 Z M16.8640625,4.59332609 L17.808875,4.59332609 L17.808875,6.45815217 L16.8640625,6.45815217 L16.8640625,4.59332609 Z" id="Shape" fill-rule="nonzero"></path>
                    </g>
                    <ellipse id="Oval" fill="#FFFFFF" cx="21.71875" cy="20.7065217" rx="7.65625" ry="7.98913043"></ellipse>
                    <g id="np_add-user_971022_555555" stroke-width="1" transform="translate(15.312500, 14.021739)" fill="#6F6F6F">
                        <path d="M6.60878125,13.7833696 C2.96253125,13.7833696 0.00846875,10.6995652 0.00846875,6.89608696 C0.00846875,3.09130435 2.9625625,0.00880434783 6.60878125,0.00880434783 C10.2537812,0.00880434783 13.2090937,3.09133696 13.2090937,6.89608696 C13.2090937,10.6995652 10.2537812,13.7833696 6.60878125,13.7833696 Z M6.60878125,12.0854348 C9.355375,12.0854348 11.5819063,9.76206522 11.5819063,6.89608696 C11.5819063,4.03007609 9.35534375,1.70673913 6.60878125,1.70673913 C3.8621875,1.70673913 1.63565625,4.0301087 1.63565625,6.89608696 C1.63565625,9.76209783 3.86221875,12.0854348 6.60878125,12.0854348 Z M6.60878125,13.7833696 C2.96253125,13.7833696 0.00846875,10.6995652 0.00846875,6.89608696 C0.00846875,3.09130435 2.9625625,0.00880434783 6.60878125,0.00880434783 C10.2537812,0.00880434783 13.2090937,3.09133696 13.2090937,6.89608696 C13.2090937,10.6995652 10.2537812,13.7833696 6.60878125,13.7833696 Z M6.60878125,12.0854348 C9.355375,12.0854348 11.5819063,9.76206522 11.5819063,6.89608696 C11.5819063,4.03007609 9.35534375,1.70673913 6.60878125,1.70673913 C3.8621875,1.70673913 1.63565625,4.0301087 1.63565625,6.89608696 C1.63565625,9.76209783 3.86221875,12.0854348 6.60878125,12.0854348 Z" id="Shape" fill-rule="nonzero"></path>
                        <path d="M8.935625,6.30521739 L7.175375,6.30521739 L7.175375,4.46843478 C7.175375,4.14107609 6.92146875,3.87740217 6.60896875,3.87740217 C6.29646875,3.87740217 6.0425625,4.14107283 6.0425625,4.46843478 L6.0425625,6.30521739 L4.2823125,6.30521739 C3.96859375,6.30521739 3.71590625,6.57016304 3.71590625,6.89625 C3.71590625,7.22233696 3.96859062,7.48728261 4.2823125,7.48728261 L6.0425625,7.48728261 L6.0425625,9.32406522 C6.0425625,9.65142391 6.29646875,9.91509783 6.60896875,9.91509783 C6.92146875,9.91509783 7.175375,9.65142717 7.175375,9.32406522 L7.175375,7.48728261 L8.935625,7.48728261 C9.248125,7.48728261 9.50203125,7.22233696 9.50203125,6.89625 C9.50203125,6.57016304 9.248125,6.30521739 8.935625,6.30521739 Z" id="Path" fill-rule="nonzero"></path>
                    </g>
                </g>
            </g>
        </g>
    </g>
</svg>