<?xml version="1.0" encoding="UTF-8"?>
<svg width="64px" height="64px" viewBox="0 0 64 64" version="1.1" xmlns="http://www.w3.org/2000/svg" xmlns:xlink="http://www.w3.org/1999/xlink">
    <!-- Generator: Sketch 42 (36781) - http://www.bohemiancoding.com/sketch -->
    <title>Group 3 Copy 2</title>
    <desc>Created with Sketch.</desc>
    <defs></defs>
    <g id="Page-1" stroke="none" stroke-width="1" fill="none" fill-rule="evenodd">
        <g id="Internal-Page" transform="translate(-184.000000, -5718.000000)">
            <g id="Group-3-Copy-2" transform="translate(184.000000, 5718.000000)">
                <circle id="Oval" fill="#FFFFFF" cx="32" cy="32" r="32"></circle>
                <g class="icon-globe" id="Domain_006d96_-1" transform="translate(7.000000, 6.000000)" fill-rule="nonzero" fill="#006D96">
                    <path d="M25,0 C11.193,0 0,11.193 0,25 C0,38.807 11.193,50 25,50 C38.807,50 50,38.807 50,25 C50,11.193 38.807,0 25,0 Z M25,2 C35.171,2 44.00675,8.55725 46.96875,18.28125 C47.12875,18.80925 46.80925,19.339 46.28125,19.5 C45.75125,19.664 45.19225,19.37175 45.03125,18.84375 C44.28125,16.38075 43.111,14.16775 41.625,12.21875 C39.889,13.16375 37.8895,13.93625 35.6875,14.53125 C36.0085,15.75925 36.293,17.04625 36.5,18.40625 C36.584,18.95225 36.20225,19.4785 35.65625,19.5625 C35.10925,19.6445 34.583,19.26475 34.5,18.71875 C34.302,17.41575 34.058,16.173 33.75,15 C31.313,15.515 28.692,15.815 26,15.875 L26,18.5625 L24,18.5625 L24,15.875 C21.303,15.815 18.684,15.515 16.25,15 C15.941,16.173 15.699,17.41575 15.5,18.71875 C15.424,19.21375 14.985,19.5625 14.5,19.5625 C14.45,19.5625 14.39475,19.5705 14.34375,19.5625 C13.79775,19.4795 13.417,18.95225 13.5,18.40625 C13.707,17.04625 13.9905,15.75825 14.3125,14.53125 C12.1115,13.93525 10.112,13.16675 8.375,12.21875 C6.888,14.16875 5.71975,16.37975 4.96875,18.84375 C4.83775,19.27475 4.428,19.5615 4,19.5625 C3.903,19.5625 3.81575,19.53 3.71875,19.5 C3.18975,19.339 2.87025,18.80925 3.03125,18.28125 C5.99225,8.55725 14.828,2 25,2 Z M24,4.125 C21.112,4.762 18.4695,8.1005 16.8125,13.0625 C19.0645,13.5275 21.497,13.817 24,13.875 L24,4.125 Z M26,4.125 L26,13.875 C28.499,13.817 30.90125,13.5275 33.15625,13.0625 C31.49925,8.1015 28.887,4.762 26,4.125 Z M19.1875,4.84375 C15.5155,5.88975 12.2535,7.90025 9.6875,10.65625 C11.2195,11.45225 12.962,12.11 14.875,12.625 C15.953,9.34 17.4335,6.68075 19.1875,4.84375 Z M30.8125,4.84375 C32.5685,6.67975 34.047,9.341 35.125,12.625 C37.038,12.11 38.7805,11.45125 40.3125,10.65625 C37.7465,7.90025 34.4845,5.88875 30.8125,4.84375 Z M3,21.3125 L4.75,21.3125 L6.5,27.3125 L6.53125,27.3125 L8.5,21.3125 L10.25,21.3125 L12.15625,27.3125 L12.1875,27.3125 L14,21.3125 L15.75,21.3125 L13.03125,29.15625 L11.3125,29.15625 L9.34375,23.15625 L9.3125,23.15625 L7.34375,29.15625 L5.5625,29.15625 L3,21.3125 Z M18.625,21.3125 L20.375,21.3125 L22.125,27.3125 L22.15625,27.3125 L24.125,21.3125 L25.875,21.3125 L27.78125,27.3125 L27.8125,27.3125 L29.625,21.3125 L31.375,21.3125 L28.6875,29.15625 L26.9375,29.15625 L25,23.15625 L24.96875,23.15625 L22.96875,29.15625 L21.1875,29.15625 L18.625,21.3125 Z M34.25,21.3125 L36,21.3125 L37.75,27.3125 L37.78125,27.3125 L39.75,21.3125 L41.5,21.3125 L43.40625,27.3125 L43.4375,27.3125 L45.25,21.3125 L47,21.3125 L44.3125,29.15625 L42.5625,29.15625 L40.625,23.15625 L40.59375,23.15625 L38.59375,29.15625 L36.84375,29.15625 L34.25,21.3125 Z M4.09375,30.40625 C4.4812656,30.447219 4.848,30.72825 4.96875,31.125 C5.71875,33.589 6.888,35.83125 8.375,37.78125 C10.112,36.83525 12.1105,36.0325 14.3125,35.4375 C13.9915,34.2095 13.707,32.9225 13.5,31.5625 C13.417,31.0165 13.79775,30.5205 14.34375,30.4375 C14.88275,30.3565 15.417,30.73425 15.5,31.28125 C15.698,32.58425 15.941,33.79575 16.25,34.96875 C18.685,34.45375 21.304,34.15275 24,34.09375 L24,31.40625 L26,31.40625 L26,34.09375 C28.692,34.15475 31.313,34.45375 33.75,34.96875 C34.059,33.79575 34.301,32.58425 34.5,31.28125 C34.583,30.73525 35.10925,30.3495 35.65625,30.4375 C36.20225,30.5205 36.584,31.0165 36.5,31.5625 C36.293,32.9225 36.0095,34.2095 35.6875,35.4375 C37.8895,36.0335 39.89,36.83625 41.625,37.78125 C43.111,35.83225 44.28125,33.588 45.03125,31.125 C45.19225,30.598 45.75125,30.31075 46.28125,30.46875 C46.80925,30.62875 47.12875,31.19075 46.96875,31.71875 C44.00675,41.44375 35.171,47.96875 25,47.96875 C14.828,47.96875 5.99225,41.44375 3.03125,31.71875 C2.87025,31.19075 3.19075,30.62975 3.71875,30.46875 C3.85075,30.429 3.9645781,30.392594 4.09375,30.40625 Z M24,36.09375 C21.497,36.15175 19.0655,36.44125 16.8125,36.90625 C18.4695,41.86725 21.112,45.20675 24,45.84375 L24,36.09375 Z M26,36.09375 L26,45.84375 C28.887,45.20775 31.49925,41.86725 33.15625,36.90625 C30.90125,36.44025 28.499,36.15175 26,36.09375 Z M14.875,37.34375 C12.962,37.85775 11.2185,38.5165 9.6875,39.3125 C12.2535,42.0695 15.5145,44.11025 19.1875,45.15625 C17.4325,43.32125 15.953,40.62875 14.875,37.34375 Z M35.125,37.34375 C34.047,40.62775 32.5665,43.32025 30.8125,45.15625 C34.4835,44.11125 37.7465,42.0675 40.3125,39.3125 C38.7805,38.5175 37.038,37.85875 35.125,37.34375 Z" id="Shape"></path>
                </g>
            </g>
        </g>
    </g>
</svg>