
<svg width="20px" height="21px" viewBox="0 0 20 21" version="1.1" xmlns="http://www.w3.org/2000/svg" xmlns:xlink="http://www.w3.org/1999/xlink">
    <g id="Tutor" stroke="none" stroke-width="1" fill="none" fill-rule="evenodd">
        <g id="Tutor-Unit-Progress" transform="translate(-1047.000000, -994.000000)">
            <g id="running" transform="translate(1048.000000, 994.000000)">
                <path d="M15,2.08333333 C15,3.2325 14.0658333,4.16666667 12.9166667,4.16666667 C11.7675,4.16666667 10.8333333,3.2325 10.8333333,2.08333333 C10.8333333,0.934166667 11.7675,0 12.9166667,0 C14.0658333,0 15,0.934166667 15,2.08333333 L15,2.08333333 Z" id="Fill-1" fill="#9B9B9B"></path>
                <polyline id="Stroke-2" stroke="#9B9B9B" stroke-width="2" stroke-linecap="round" stroke-linejoin="round" points="11.6666667 5.74833333 14.1666667 9.16666667 17.5 9.16666667"></polyline>
                <polyline id="Stroke-3" stroke="#9B9B9B" stroke-width="2" stroke-linecap="round" stroke-linejoin="round" points="8.33333333 10.8333333 11.6666667 14.1666667 9.16666667 19.1666667"></polyline>
                <path d="M5,14.1666667 L0,14.1666667" id="Stroke-4" stroke="#9B9B9B" stroke-width="2" stroke-linecap="round" stroke-linejoin="round"></path>
                <polyline id="Stroke-5" stroke="#9B9B9B" stroke-width="2" stroke-linecap="round" stroke-linejoin="round" points="10 4.915 6.66666667 3.33333333 3.33333333 5.83333333"></polyline>
                <path d="M12.0833333,5 L10.4166667,4.16666667 C10.1658333,4.00083333 9.49833333,4.4175 9.25166667,4.915 L6.335,9.58333333 C5.91833333,10.2508333 6.08416667,11.25 6.8325,11.6666667 L11.165,14.6683333 L9.83416667,11.8325 C9.83416667,11.8325 9.08166667,11.9175 9.25166667,11.6666667 L12.2491667,6.58166667 C12.3341667,6.25 12.5,5.25083333 12.0833333,5 L12.0833333,5 Z" id="Fill-6" fill="#9B9B9B"></path>
                <path d="M6.335,12.3341667 C5.99916667,12.0833333 5.6675,11.7516667 5.50166667,11.335 L4.3325,13.665 C4.08166667,14.0008333 4.16666667,14.5833333 4.49833333,14.8341667 C4.66833333,14.915 4.83416667,15 5,15 C5.25083333,15 5.50166667,14.915 5.6675,14.6683333 L7.33416667,13.0016667 L6.335,12.3341667 Z" id="Fill-7" fill="#9B9B9B"></path>
            </g>
        </g>
    </g>
</svg>