<?xml version="1.0" encoding="UTF-8"?>
<svg width="24px" height="24px" viewBox="0 0 24 24" version="1.1" xmlns="http://www.w3.org/2000/svg" xmlns:xlink="http://www.w3.org/1999/xlink">
    <!-- Generator: Sketch 53.2 (72643) - https://sketchapp.com -->
    <title>Suspend-Blue</title>
    <desc>Created with Sketch.</desc>
    <g id="Super-Admin-Cards" stroke="none" stroke-width="1" fill="none" fill-rule="evenodd">
        <g id="Suspend-Blue" fill="#007AFF">
            <g id="Group-2-Copy-2">
                <g id="Group-2-Copy" fill-rule="nonzero">
                    <g id="np_lock-user_69724_555555">
                        <path d="M11.34875,17.2297959 C8.26,17.2297959 5.74325,13.9437551 5.508,11.037551 C4.813675,10.8452669 4.1867,10.2827755 4.1867,9.57678367 L4.1867,7.53629388 C4.1867,6.89821224 4.816575,6.43807347 5.2287,6.20561633 L5.2287,4.47506939 C5.2287,2.54076735 6.806825,0.960293878 8.7667,0.905926531 C9.18565,0.74138449 10.83505,0.138710204 12.5197,0.138710204 C15.2072,0.138710204 16.6867,1.67985306 16.6867,4.47511837 L16.6867,6.05069388 C17.7287,6.24967347 17.7287,7.06951837 17.7287,7.53634286 L17.7287,9.57683265 C17.7287,10.2866449 17.3996,10.8166286 16.86835,11.0175184 C16.668155,14.032702 14.373225,17.2298449 11.34885,17.2298449 L11.34875,17.2297959 Z M12.520625,1.15836735 C10.831175,1.15836735 9.096875,1.8748898 9.080125,1.88253061 C9.0156725,1.90931755 8.94536,1.92366612 8.8750475,1.92366612 C7.4394975,1.92366612 6.2705475,3.0678049 6.2705475,4.47501306 L6.2705475,6.51550286 C6.2705475,6.71544 6.1494525,6.89815592 5.9629225,6.98041714 C5.5918225,7.14495918 5.2480725,7.4262049 5.2275725,7.54005796 L5.228549,9.57672735 C5.228549,9.80153633 5.666049,10.0866049 6.009799,10.0866049 C6.296899,10.0866049 6.530299,10.3152392 6.530299,10.5964824 C6.530299,13.1228498 8.752949,16.2090539 11.347799,16.2090539 C13.879049,16.2090539 15.841049,13.191911 15.841049,10.5964824 C15.841049,10.3152416 16.075424,10.0866049 16.361549,10.0866049 C16.5793215,10.0866049 16.687724,9.91536735 16.687724,9.57672735 L16.687724,7.53623755 C16.687724,7.02636 16.687724,7.02636 16.167224,7.02636 C15.880124,7.02636 15.646724,6.79772571 15.646724,6.51648245 L15.646724,4.47599265 C15.6457473,2.24416408 14.625249,1.15933959 12.520724,1.15933959 L12.520625,1.15836735 Z" id="Shape"></path>
                        <path d="M22.417,23.8623673 L16.167,23.8623673 C15.305675,23.8623673 14.6045,23.175502 14.6045,22.3317551 L14.6045,19.2705306 C14.6045,18.4267837 15.305675,17.7399184 16.167,17.7399184 L22.417,17.7399184 C23.278325,17.7399184 23.9795,18.4267837 23.9795,19.2705306 L23.9795,22.3317551 C23.9795,23.175502 23.278325,23.8623673 22.417,23.8623673 Z M16.167,18.7606531 C15.880875,18.7606531 15.6465,18.9902449 15.6465,19.2705306 L15.6465,22.3317551 C15.6465,22.6120408 15.880875,22.8416327 16.167,22.8416327 L22.417,22.8416327 C22.703125,22.8416327 22.9375,22.6120408 22.9375,22.3317551 L22.9375,19.2705306 C22.9375,18.9902449 22.703125,18.7606531 22.417,18.7606531 L16.167,18.7606531 Z" id="Shape"></path>
                        <path d="M21.8955,17.7399184 L20.8535,17.7399184 L20.8535,15.6994286 C20.8535,14.8556816 20.152325,14.1688163 19.291,14.1688163 C18.429675,14.1688163 17.7285,14.8556816 17.7285,15.6994286 L17.7285,17.7399184 L16.6865,17.7399184 L16.6865,15.6994286 C16.6865,14.2922204 17.854475,13.1480816 19.291,13.1480816 C20.727525,13.1480816 21.8955,14.2922204 21.8955,15.6994286 L21.8955,17.7399184 Z" id="Path"></path>
                        <path d="M0.542,23.3522449 C0.2549,23.3522449 0.0215,23.1236106 0.0215,22.8423673 C0.0215,19.8874286 2.430675,17.7406531 5.751,17.7406531 L7.035175,17.7406531 L8.4219,15.7145143 C8.5830325,15.4810971 8.9053,15.4179673 9.14455,15.5748465 C9.38283,15.730778 9.447275,16.0483812 9.2871275,16.2817935 L7.7461025,18.5346588 C7.6494225,18.6762392 7.4863275,18.7613804 7.3125025,18.7613804 L5.7500025,18.7613804 C2.9902525,18.7613804 1.0625025,20.4402784 1.0625025,22.8433396 C1.0625025,23.1245804 0.829105,23.3532171 0.5420025,23.3532171 L0.542,23.3522449 Z" id="Path"></path>
                    </g>
                </g>
            </g>
        </g>
    </g>
</svg>