
<svg width="27px" height="27px" viewBox="0 0 27 27" version="1.1" xmlns="http://www.w3.org/2000/svg" xmlns:xlink="http://www.w3.org/1999/xlink">
    <g id="Super-Admin-Cards" stroke="none" stroke-width="1" fill="none" fill-rule="evenodd">
        <g id="EQA-" transform="translate(-1020.000000, -74.000000)">
            <rect fill="#FFFFFF" x="0" y="0" width="1440" height="528"></rect>
            <g id="Large-List-View-Row---Hover" transform="translate(23.000000, 44.000000)" fill="#6F6F6F">
                <g id="Centres" transform="translate(997.000000, 30.000000)">
                    <g id="np_building_1216306_555555">
                        <path d="M26.75,18.1261125 C26.75,16.3159987 25.2955667,14.8420688 23.5065,14.8420688 C22.7669,14.8420688 22.0872333,15.0965134 21.5416667,15.5197013 L21.5416667,2.36631375 L21.8606767,2.36631375 C22.04427,2.36631375 22.19401,2.21602163 22.19401,2.02881375 L22.19401,0.337365 C22.19401,0.150157125 22.04427,-0.000135 21.8606767,-0.000135 L5.10667667,-0.000135 C4.92308333,-0.000135 4.77334333,0.150157125 4.77334333,0.337365 L4.77334333,2.02881375 C4.77334333,2.21602163 4.92308333,2.36631375 5.10667667,2.36631375 L5.30589667,2.36631375 L5.30589667,15.5301637 C4.75773,15.1003912 4.07283,14.8419675 3.32673,14.8419675 C1.53896333,14.8419675 0.08323,16.3145812 0.08323,18.1260113 C0.08323,19.8187763 1.35406333,21.2149125 2.98166333,21.3902775 L2.97124667,24.6255188 L0.416546667,24.6255188 C0.232953333,24.6255188 0.0832133333,24.7758109 0.0832133333,24.9630187 L0.0845153333,26.6623988 C0.0845153333,26.8496066 0.234255333,26.9998988 0.417848667,26.9998988 L26.4178487,26.9998988 C26.601442,26.9998988 26.751182,26.8496066 26.751182,26.6623988 L26.751182,24.9630187 C26.751182,24.7758109 26.601442,24.6255188 26.4178487,24.6255188 L23.820182,24.6255188 L23.8305987,21.39291 C25.4659987,21.2294318 26.7498653,19.8267075 26.7498653,18.1260113 L26.75,18.1261125 Z M23.5065,15.5170688 C24.9270667,15.5170688 26.0833333,16.6877888 26.0833333,18.1261125 C26.0833333,19.4537025 25.0989667,20.5505775 23.8307333,20.71143 L23.8346393,19.4036175 L24.7226727,18.47286 C24.850276,18.3397061 24.8463693,18.12483 24.71486,17.9956012 C24.5820467,17.8664029 24.3711267,17.8703584 24.2434933,18.0035116 L23.8372267,18.4293353 L23.8398307,17.5051591 C23.8398307,17.3192708 23.691394,17.1676591 23.5078007,17.1663428 L23.5064983,17.1663428 C23.322905,17.1663428 23.173165,17.316635 23.173165,17.5025232 L23.170561,18.4702032 L22.725261,18.0035082 C22.5976577,17.8703543 22.3867277,17.8663988 22.2538943,17.9955979 C22.121081,18.1247962 22.1184777,18.3383629 22.2460817,18.4728566 L23.1679483,19.4379041 L23.1640423,20.7087941 C21.9049423,20.5374083 20.9309757,19.4458016 20.9309757,18.1261429 C20.9309757,16.6878191 22.0872423,15.5170991 23.506509,15.5170991 L23.5065,15.5170688 Z M5.49983333,24.6255188 L5.49983333,23.5405238 L21.5271667,23.5405238 L21.5271667,24.6255188 L5.49983333,24.6255188 Z M5.43993667,0.67483125 L21.52727,0.67483125 L21.52727,1.69128 L5.43993667,1.69128 L5.43993667,0.67483125 Z M20.8749367,2.36621047 L20.8749367,16.2142425 C20.4921367,16.7534663 20.26427,17.4126375 20.26427,18.1258762 C20.26427,18.839115 20.4921333,19.4982862 20.8749367,20.03751 L20.8749367,22.866705 L5.97260333,22.8653867 L5.97260333,20.0177305 C6.34760333,19.4824892 6.57027,18.8298992 6.57027,18.124558 C6.57027,17.4192167 6.34761333,16.7679767 5.97260333,16.2313855 L5.97260333,2.36621047 L20.8749367,2.36621047 Z M0.749936667,18.1258425 C0.749936667,16.6875187 1.90620333,15.5167987 3.32677,15.5167987 C4.74733667,15.5167987 5.90360333,16.6875187 5.90360333,18.1258425 C5.90360333,19.4534325 4.91923667,20.5503075 3.65100333,20.71116 L3.65490967,19.4033475 L4.542943,18.47259 C4.67054633,18.3394361 4.66663967,18.12456 4.53513067,17.9953312 C4.40231733,17.8648133 4.19139733,17.8700884 4.063764,18.0032416 L3.65749733,18.4290653 L3.66010167,17.5048891 C3.66010167,17.3190008 3.511665,17.1673891 3.32807167,17.1660728 L3.32676967,17.1660728 C3.14317633,17.1660728 2.99343633,17.3163649 2.99343633,17.5022532 L2.990832,18.4699332 L2.545532,18.0032382 C2.41792867,17.8700843 2.20699867,17.8648092 2.07416533,17.9953279 C1.941352,18.1245262 1.93874867,18.3394091 2.066353,18.4725866 L2.98821967,19.4376341 L2.98431333,20.7072079 C1.72521333,20.5371382 0.749946667,19.4455316 0.749946667,18.1258729 L0.749936667,18.1258425 Z M3.64837,21.3927413 C4.26947,21.3307796 4.83717,21.0882015 5.30593667,20.72169 L5.30593667,22.865355 L5.16791667,22.865355 C4.98432333,22.865355 4.83458333,23.0156471 4.83458333,23.202855 L4.83458333,24.62535 L3.63928333,24.62535 L3.64837,21.3927413 Z M26.08337,26.3246287 L0.750036667,26.3246287 L0.750036667,25.3002487 L26.08337,25.3002487 L26.08337,26.3246287 Z M22.1940367,24.6252487 L22.1940367,23.2027537 C22.1940367,23.0155459 22.0442967,22.8652537 21.8607033,22.8652537 L21.5416933,22.8652537 L21.5416933,20.7321525 C22.0013267,21.0881137 22.5560267,21.32541 23.1614933,21.3900075 L23.1510767,24.6252487 L22.1940367,24.6252487 Z" id="Shape" fill-rule="nonzero"></path>
                        <path d="M7.50533333,15.9654375 L9.1798,15.9654375 C9.36339333,15.9654375 9.51313333,15.8151454 9.51313333,15.6279375 L9.51313333,13.0228425 C9.51313333,12.8356346 9.36339333,12.6853425 9.1798,12.6853425 L7.50533333,12.6853425 C7.32174,12.6853425 7.172,12.8356346 7.172,13.0228425 L7.172,15.6279375 C7.172,15.8138258 7.32043667,15.9654375 7.50533333,15.9654375 Z M7.83866667,13.3603425 L8.84646667,13.3603425 L8.84646667,15.2904375 L7.83866667,15.2904375 L7.83866667,13.3603425 Z" id="Shape" fill-rule="nonzero"></path>
                        <path d="M7.50533333,11.675475 L9.1798,11.675475 C9.36339333,11.675475 9.51313333,11.5251829 9.51313333,11.337975 L9.51313333,8.73288 C9.51313333,8.54567213 9.36339333,8.39538 9.1798,8.39538 L7.50533333,8.39538 C7.32174,8.39538 7.172,8.54567213 7.172,8.73288 L7.172,11.337975 C7.172,11.5238633 7.32043667,11.675475 7.50533333,11.675475 Z M7.83866667,9.07038 L8.84646667,9.07038 L8.84646667,11.000475 L7.83866667,11.000475 L7.83866667,9.07038 Z" id="Shape" fill-rule="nonzero"></path>
                        <path d="M7.50533333,20.2381875 L9.1798,20.2381875 C9.36339333,20.2381875 9.51313333,20.0878954 9.51313333,19.9006875 L9.51313333,17.2955925 C9.51313333,17.1083846 9.36339333,16.9580925 9.1798,16.9580925 L7.50533333,16.9580925 C7.32174,16.9580925 7.172,17.1083846 7.172,17.2955925 L7.172,19.9006875 C7.172,20.0865758 7.32043667,20.2381875 7.50533333,20.2381875 Z M7.83866667,17.6330925 L8.84646667,17.6330925 L8.84646667,19.5631875 L7.83866667,19.5631875 L7.83866667,17.6330925 Z" id="Shape" fill-rule="nonzero"></path>
                        <path d="M7.50533333,7.3578375 L9.1798,7.3578375 C9.36339333,7.3578375 9.51313333,7.20754538 9.51313333,7.0203375 L9.51313333,4.4152425 C9.51313333,4.22803463 9.36339333,4.0777425 9.1798,4.0777425 L7.50533333,4.0777425 C7.32174,4.0777425 7.172,4.22803463 7.172,4.4152425 L7.172,7.0203375 C7.172,7.20754538 7.32043667,7.3578375 7.50533333,7.3578375 L7.50533333,7.3578375 Z M7.83866667,4.7540925 L8.84646667,4.7540925 L8.84646667,6.6841875 L7.83866667,6.6841875 L7.83866667,4.7540925 Z" id="Shape" fill-rule="nonzero"></path>
                        <path d="M10.888,15.9654375 L12.5624667,15.9654375 C12.74606,15.9654375 12.8958,15.8151454 12.8958,15.6279375 L12.8958,13.0228425 C12.8958,12.8356346 12.74606,12.6853425 12.5624667,12.6853425 L10.888,12.6853425 C10.7044067,12.6853425 10.5546667,12.8356346 10.5546667,13.0228425 L10.5546667,15.6279375 C10.5546667,15.8138258 10.7044067,15.9654375 10.888,15.9654375 Z M11.2213333,13.3603425 L12.2291333,13.3603425 L12.2291333,15.2904375 L11.2213333,15.2904375 L11.2213333,13.3603425 Z" id="Shape" fill-rule="nonzero"></path>
                        <path d="M10.888,11.675475 L12.5624667,11.675475 C12.74606,11.675475 12.8958,11.5251829 12.8958,11.337975 L12.8958,8.73288 C12.8958,8.54567213 12.74606,8.39538 12.5624667,8.39538 L10.888,8.39538 C10.7044067,8.39538 10.5546667,8.54567213 10.5546667,8.73288 L10.5546667,11.337975 C10.5546667,11.5238633 10.7044067,11.675475 10.888,11.675475 Z M11.2213333,9.07038 L12.2291333,9.07038 L12.2291333,11.000475 L11.2213333,11.000475 L11.2213333,9.07038 Z" id="Shape" fill-rule="nonzero"></path>
                        <path d="M10.888,20.2381875 L12.5624667,20.2381875 C12.74606,20.2381875 12.8958,20.0878954 12.8958,19.9006875 L12.8958,17.2955925 C12.8958,17.1083846 12.74606,16.9580925 12.5624667,16.9580925 L10.888,16.9580925 C10.7044067,16.9580925 10.5546667,17.1083846 10.5546667,17.2955925 L10.5546667,19.9006875 C10.5546667,20.0865758 10.7044067,20.2381875 10.888,20.2381875 Z M11.2213333,17.6330925 L12.2291333,17.6330925 L12.2291333,19.5631875 L11.2213333,19.5631875 L11.2213333,17.6330925 Z" id="Shape" fill-rule="nonzero"></path>
                        <path d="M10.888,7.3578375 L12.5624667,7.3578375 C12.74606,7.3578375 12.8958,7.20754538 12.8958,7.0203375 L12.8958,4.4152425 C12.8958,4.22803463 12.74606,4.0777425 12.5624667,4.0777425 L10.888,4.0777425 C10.7044067,4.0777425 10.5546667,4.22803463 10.5546667,4.4152425 L10.5546667,7.0203375 C10.5546667,7.20754538 10.7044067,7.3578375 10.888,7.3578375 L10.888,7.3578375 Z M11.2213333,4.7540925 L12.2291333,4.7540925 L12.2291333,6.6841875 L11.2213333,6.6841875 L11.2213333,4.7540925 Z" id="Shape" fill-rule="nonzero"></path>
                        <path d="M14.2706667,15.9654375 L15.9451333,15.9654375 C16.1287267,15.9654375 16.2784667,15.8151454 16.2784667,15.6279375 L16.2784667,13.0228425 C16.2784667,12.8356346 16.1287267,12.6853425 15.9451333,12.6853425 L14.2706667,12.6853425 C14.0870733,12.6853425 13.9373333,12.8356346 13.9373333,13.0228425 L13.9373333,15.6279375 C13.9373333,15.8138258 14.0870733,15.9654375 14.2706667,15.9654375 Z M14.604,13.3603425 L15.6118,13.3603425 L15.6118,15.2904375 L14.604,15.2904375 L14.604,13.3603425 Z" id="Shape" fill-rule="nonzero"></path>
                        <path d="M14.2706667,11.675475 L15.9451333,11.675475 C16.1287267,11.675475 16.2784667,11.5251829 16.2784667,11.337975 L16.2784667,8.73288 C16.2784667,8.54567213 16.1287267,8.39538 15.9451333,8.39538 L14.2706667,8.39538 C14.0870733,8.39538 13.9373333,8.54567213 13.9373333,8.73288 L13.9373333,11.337975 C13.9373333,11.5238633 14.0870733,11.675475 14.2706667,11.675475 Z M14.604,9.07038 L15.6118,9.07038 L15.6118,11.000475 L14.604,11.000475 L14.604,9.07038 Z" id="Shape" fill-rule="nonzero"></path>
                        <path d="M14.2706667,20.2381875 L15.9451333,20.2381875 C16.1287267,20.2381875 16.2784667,20.0878954 16.2784667,19.9006875 L16.2784667,17.2955925 C16.2784667,17.1083846 16.1287267,16.9580925 15.9451333,16.9580925 L14.2706667,16.9580925 C14.0870733,16.9580925 13.9373333,17.1083846 13.9373333,17.2955925 L13.9373333,19.9006875 C13.9373333,20.0865758 14.0870733,20.2381875 14.2706667,20.2381875 Z M14.604,17.6330925 L15.6118,17.6330925 L15.6118,19.5631875 L14.604,19.5631875 L14.604,17.6330925 Z" id="Shape" fill-rule="nonzero"></path>
                        <path d="M14.2706667,7.3578375 L15.9451333,7.3578375 C16.1287267,7.3578375 16.2784667,7.20754538 16.2784667,7.0203375 L16.2784667,4.4152425 C16.2784667,4.22803463 16.1287267,4.0777425 15.9451333,4.0777425 L14.2706667,4.0777425 C14.0870733,4.0777425 13.9373333,4.22803463 13.9373333,4.4152425 L13.9373333,7.0203375 C13.9373333,7.20754538 14.0870733,7.3578375 14.2706667,7.3578375 L14.2706667,7.3578375 Z M14.604,4.7540925 L15.6118,4.7540925 L15.6118,6.6841875 L14.604,6.6841875 L14.604,4.7540925 Z" id="Shape" fill-rule="nonzero"></path>
                        <path d="M17.655,15.9654375 L19.3294667,15.9654375 C19.51306,15.9654375 19.6628,15.8151454 19.6628,15.6279375 L19.6628,13.0228425 C19.6628,12.8356346 19.51306,12.6853425 19.3294667,12.6853425 L17.655,12.6853425 C17.4714067,12.6853425 17.3216667,12.8356346 17.3216667,13.0228425 L17.3216667,15.6279375 C17.3216667,15.8138258 17.4701033,15.9654375 17.655,15.9654375 L17.655,15.9654375 Z M17.9883333,13.3603425 L18.9961333,13.3603425 L18.9961333,15.2904375 L17.9883333,15.2904375 L17.9883333,13.3603425 Z" id="Shape" fill-rule="nonzero"></path>
                        <path d="M17.655,11.675475 L19.3294667,11.675475 C19.51306,11.675475 19.6628,11.5251829 19.6628,11.337975 L19.6628,8.73288 C19.6628,8.54567213 19.51306,8.39538 19.3294667,8.39538 L17.655,8.39538 C17.4714067,8.39538 17.3216667,8.54567213 17.3216667,8.73288 L17.3216667,11.337975 C17.3216667,11.5238633 17.4701033,11.675475 17.655,11.675475 L17.655,11.675475 Z M17.9883333,9.07038 L18.9961333,9.07038 L18.9961333,11.000475 L17.9883333,11.000475 L17.9883333,9.07038 Z" id="Shape" fill-rule="nonzero"></path>
                        <path d="M17.655,20.2381875 L19.3294667,20.2381875 C19.51306,20.2381875 19.6628,20.0878954 19.6628,19.9006875 L19.6628,17.2955925 C19.6628,17.1083846 19.51306,16.9580925 19.3294667,16.9580925 L17.655,16.9580925 C17.4714067,16.9580925 17.3216667,17.1083846 17.3216667,17.2955925 L17.3216667,19.9006875 C17.3216667,20.0865758 17.4701033,20.2381875 17.655,20.2381875 L17.655,20.2381875 Z M17.9883333,17.6330925 L18.9961333,17.6330925 L18.9961333,19.5631875 L17.9883333,19.5631875 L17.9883333,17.6330925 Z" id="Shape" fill-rule="nonzero"></path>
                        <path d="M17.655,7.3578375 L19.3294667,7.3578375 C19.51306,7.3578375 19.6628,7.20754538 19.6628,7.0203375 L19.6628,4.4152425 C19.6628,4.22803463 19.51306,4.0777425 19.3294667,4.0777425 L17.655,4.0777425 C17.4714067,4.0777425 17.3216667,4.22803463 17.3216667,4.4152425 L17.3216667,7.0203375 C17.3216667,7.20754538 17.4701033,7.3578375 17.655,7.3578375 L17.655,7.3578375 Z M17.9883333,4.7540925 L18.9961333,4.7540925 L18.9961333,6.6841875 L17.9883333,6.6841875 L17.9883333,4.7540925 Z" id="Shape" fill-rule="nonzero"></path>
                    </g>
                </g>
            </g>
        </g>
    </g>
</svg>