<?xml version="1.0" encoding="UTF-8"?>
<svg width="55px" height="60px" viewBox="0 0 55 60" version="1.1" xmlns="http://www.w3.org/2000/svg" xmlns:xlink="http://www.w3.org/1999/xlink">
    <!-- Generator: Sketch 52.6 (67491) - http://www.bohemiancoding.com/sketch -->
    <title>noun_741667_cc</title>
    <desc>Created with Sketch.</desc>
    <g id="Page-1" stroke="none" stroke-width="1" fill="none" fill-rule="evenodd" opacity="0.200000003">
        <g id="4.-Qualification-page-(step-1---full-height)-Copy-20" transform="translate(-934.000000, -504.000000)" fill="#875BA9">
            <g id="Popup-Filter-Bar" transform="translate(250.000000, 178.000000)">
                <g id="Group-13">
                    <g id="Group-17" transform="translate(684.000000, 281.000000)">
                        <g id="noun_741667_cc" transform="translate(0.000000, 45.000000)">
                            <g id="Group">
                                <g id="Group-21" transform="translate(0.000000, -0.000000)">
                                    <path d="M49.5377326,32.2868723 L47.6338372,32.2868723 L47.6338372,16.6841285 L33.0038372,0.342566285 L7.56761628,0.342566285 C3.6555814,0.342566285 0.472616279,3.52280851 0.472616279,7.43164321 L0.472616279,52.6452799 C0.472616279,56.5541146 3.6555814,59.7343568 7.56761628,59.7343568 L40.5407558,59.7343568 C44.4527907,59.7343568 47.6344767,56.5541146 47.6344767,52.6452799 L47.6344767,51.6578453 L49.5383721,51.6578453 C52.2890116,51.6578453 54.5273837,49.4209386 54.5273837,46.6714607 L54.5273837,37.2726178 C54.5267442,34.5237791 52.2883721,32.2868723 49.5377326,32.2868723 Z M33.5333721,3.81104992 L44.5288953,16.0923069 L33.5333721,16.0923069 L33.5333721,3.81104992 Z M45.7158721,52.6452799 C45.7158721,55.4970164 43.395,57.8170082 40.5407558,57.8170082 L7.56761628,57.8170082 C4.71337209,57.8170082 2.39122093,55.4970164 2.39122093,52.6452799 L2.39122093,7.43164321 C2.39122093,4.57990671 4.71337209,2.25991489 7.56761628,2.25991489 L31.6147674,2.25991489 L31.6147674,18.0096555 L45.7158721,18.0096555 L45.7158721,32.2868723 L24.6828488,32.2868723 C21.9315698,32.2868723 19.6931977,34.5237791 19.6931977,37.273257 L19.6931977,46.6720998 C19.6931977,49.4215777 21.9315698,51.6584845 24.6828488,51.6584845 L45.7158721,51.6584845 L45.7158721,52.6452799 Z M52.6081395,46.6714607 C52.6081395,48.3632013 51.2305814,49.7404967 49.5377326,49.7404967 L24.6828488,49.7404967 C22.99,49.7404967 21.6118023,48.3638404 21.6118023,46.6714607 L21.6118023,37.2726178 C21.6118023,35.5808773 22.9893605,34.2035818 24.6828488,34.2035818 L49.5383721,34.2035818 C51.2305814,34.2035818 52.6087791,35.5802381 52.6087791,37.2726178 L52.6087791,46.6714607 L52.6081395,46.6714607 Z" id="Shape" fill-rule="nonzero"></path>
                                    <g id="Group-14" transform="translate(27.000000, 38.000000)">
                                        <path d="M0.134324301,0.00228273161 L1.36406121,0.00228273161 C1.4528723,0.00228273161 1.5166386,0.015760623 1.55990734,0.0494496017 C1.60317607,0.0808960983 1.63961229,0.119075791 1.67376906,0.172981607 L4.05349128,3.77791507 C4.08309498,3.69032027 4.12864317,3.5937383 4.18785056,3.49041738 L6.43780156,0.197648908 C6.47651722,0.137004146 6.51522706,0.0920855082 6.56077525,0.049409352 C6.60404398,0.0134721415 6.66097776,0 6.72018515,0 L7.89751221,0 L4.87330617,4.32143519 L8,9 L6.77708395,9 C6.68144034,9 6.61084152,8.97304422 6.5561872,8.92812558 C6.50608594,8.88095296 6.46054358,8.82705289 6.42638099,8.77089885 L3.97833357,4.99749174 C3.94872987,5.08508654 3.9100142,5.16819637 3.86447185,5.24680398 L1.48474962,8.76865061 C1.44603395,8.82929538 1.40277105,8.88320119 1.35266979,8.92811983 C1.30484798,8.97752918 1.23652862,8.99999425 1.14543808,8.99999425 L0,9 L3.14260917,4.37754899 L0.134324301,0.00228273161 Z" id="Fill-4"></path>
                                        <polygon id="Fill-5" points="10.1928891 7.97777991 14 7.97777991 14 9 9 9 9 0 10.1928891 0"></polygon>
                                        <path d="M20.3651817,1.61748938 C20.3236284,1.65040581 20.2682221,1.66577131 20.2012734,1.66577131 C20.1273982,1.66577131 20.0465965,1.6306582 19.9450211,1.56262867 C19.8480614,1.49240246 19.7257064,1.41559184 19.5802609,1.32780908 C19.4301998,1.24661073 19.2524384,1.17199678 19.0400502,1.09737722 C18.8322777,1.02934769 18.5760195,0.994234584 18.2804952,0.994234584 C18.0057741,0.994234584 17.7541375,1.03592648 17.5394385,1.10177057 C17.3247395,1.17199678 17.1446673,1.27075169 16.9969169,1.39364756 C16.8514774,1.5187401 16.7429695,1.66138357 16.6737101,1.83036469 C16.6021457,1.99715475 16.5628973,2.17272027 16.5628973,2.36583673 C16.5628973,2.60943179 16.6252302,2.81572268 16.7545118,2.97590586 C16.8791776,3.13830256 17.0477017,3.27875498 17.257785,3.39287538 C17.4655574,3.5047991 17.7033468,3.60575068 17.9665139,3.68914009 C18.2296927,3.77033845 18.5067246,3.85812121 18.7814457,3.94810065 C19.0561668,4.04027114 19.3331987,4.13902605 19.5940726,4.25094977 C19.8549466,4.36287349 20.0973458,4.50332591 20.3028015,4.67889144 C20.5128848,4.85006923 20.6767931,5.06074786 20.8083855,5.31311838 C20.9353563,5.55891011 21,5.86615259 21,6.23263228 C21,6.61887643 20.9307405,6.97658065 20.7922275,7.31456535 C20.6514037,7.65692093 20.4505578,7.9487923 20.1897016,8.19677509 C19.9265228,8.4447635 19.5987002,8.64227331 19.2154949,8.78493364 C18.8322896,8.92759397 18.3936483,9 17.901876,9 C17.301655,9 16.7568108,8.89685736 16.2627927,8.69056647 C15.768751,8.48427557 15.3485726,8.20337073 15,7.85223407 L15.3624493,7.29042439 C15.397082,7.24214247 15.4386353,7.20922604 15.4871152,7.17630961 C15.5356009,7.14558424 15.5910014,7.13021874 15.6487186,7.13021874 C15.7387518,7.13021874 15.8449488,7.17630961 15.9557616,7.26847449 C16.0711901,7.36503833 16.2166355,7.4659843 16.3943969,7.57571696 C16.5675426,7.68544401 16.7776259,7.78639559 17.0269457,7.87856609 C17.2762774,7.97073658 17.5833204,8.00804636 17.9388609,8.00804636 C18.2366724,8.00804636 18.5021562,7.96635447 18.7306846,7.89173491 C18.9638524,7.81492429 19.1600826,7.70519724 19.321686,7.55596373 C19.4809786,7.41551132 19.6056445,7.2465302 19.6910619,7.05121145 C19.7764793,6.8558927 19.8226543,6.6364386 19.8226543,6.39282669 C19.8226543,6.12728173 19.7603213,5.91001869 19.6310398,5.73882404 C19.506374,5.57203399 19.3378499,5.42719384 19.1300715,5.31307905 C18.9222991,5.19896427 18.6868205,5.10240043 18.4236475,5.02339875 C18.1627736,4.94439145 17.8903633,4.86100204 17.6110206,4.77980369 C17.3362995,4.69640866 17.0615725,4.59765376 16.7983937,4.48792671 C16.5352148,4.37600299 16.2974254,4.23555057 16.0919697,4.05340063 C15.8841972,3.87783511 15.7179781,3.65838101 15.5910014,3.39282482 C15.459409,3.13167321 15.3993869,2.80247521 15.3993869,2.41404 C15.3993869,2.10240979 15.4617199,1.80397087 15.5910014,1.51205456 C15.7156673,1.22017758 15.9003552,0.969998115 16.1450652,0.7373752 C16.3874704,0.513527753 16.685276,0.33137782 17.0361772,0.201903161 C17.3917,0.0614507424 17.800342,0 18.2597274,0 C18.7768536,0 19.2455177,0.076810619 19.6725754,0.23481959 C20.0996684,0.390631886 20.4713729,0.616676009 20.7876177,0.910732812 L20.4851905,1.47473355 C20.4506051,1.53848771 20.4113567,1.58676963 20.3651817,1.61748938 Z" id="Fill-6"></path>
                                    </g>
                                </g>
                            </g>
                        </g>
                    </g>
                </g>
            </g>
        </g>
    </g>
</svg>