<?xml version="1.0" encoding="UTF-8" standalone="no"?>
<svg width="34px" height="25px" viewBox="0 0 34 25" version="1.1" xmlns="http://www.w3.org/2000/svg" xmlns:xlink="http://www.w3.org/1999/xlink">
    <!-- Generator: sketchtool 40.3 (33839) - http://www.bohemiancoding.com/sketch -->
    <title>07764267-A86A-4C32-86A8-031D86ECC650</title>
    <desc>Created with sketchtool.</desc>
    <defs></defs>
    <g id="Symbols" stroke="none" stroke-width="1" fill="none" fill-rule="evenodd">
        <g id="Footer" transform="translate(-105.000000, -29.000000)" fill="#FFFFFF">
            <g id="Shape">
                <path d="M105,48.380744 L111.80744,49.4595186 L111.80744,33.5010941 L105,34.5426696 L105,48.380744 L105,48.380744 Z M106.636761,35.9562363 L110.207877,35.3982495 L110.207877,47.5623632 L106.636761,47.0043764 L106.636761,35.9562363 L106.636761,35.9562363 Z M132.341357,33.5010941 L132.341357,49.4595186 L139,48.380744 L139,34.5426696 L132.341357,33.5010941 L132.341357,33.5010941 Z M137.363239,46.9671772 L133.940919,47.5251641 L133.940919,35.3982495 L137.363239,35.9562363 L137.363239,46.9671772 L137.363239,46.9671772 Z M113.221007,53.9234136 L130.816193,53.9234136 L130.816193,29 L113.221007,29 L113.221007,53.9234136 L113.221007,53.9234136 Z M114.820569,30.6367615 L129.179431,30.6367615 L129.179431,52.2866521 L114.820569,52.2866521 L114.820569,30.6367615 L114.820569,30.6367615 Z"></path>
            </g>
        </g>
    </g>
</svg>