
<svg width="52px" height="15px" viewBox="0 0 52 15" version="1.1" xmlns="http://www.w3.org/2000/svg" xmlns:xlink="http://www.w3.org/1999/xlink">
    <!-- Generator: Sketch 46.2 (44496) - http://www.bohemiancoding.com/sketch -->
    <desc>Created with Sketch.</desc>
    <defs></defs>
    <g id="Symbols" stroke="none" stroke-width="1" fill="none" fill-rule="evenodd">
        <g class="icon-payment-method" id="PalPal_btn_UnActive-Copy" transform="translate(-22.000000, -15.000000)" fill="#FFFFFF">
            <g id="Group-7">
                <g id="Paypal-logo" transform="translate(48.000000, 22.500000) scale(1, -1) translate(-48.000000, -22.500000) translate(22.000000, 15.000000)">
                    <path d="M49.583827,14.6958923 L48.0040069,3.41605941 C47.9732344,3.19772569 48.1236226,3 48.3206658,3 L49.9099162,3 C50.1729714,3 50.3973128,3.21499188 50.4380119,3.50684614 L51.9959934,14.5839406 C52.0267659,14.8022743 51.8763778,15 51.6788382,15 L49.9009822,15 C49.7426528,15 49.6081472,14.8713391 49.583827,14.6958923" id="Shape"></path>
                    <path d="M29.6394289,11 L27.5600406,11 C27.3611814,11 27.1751338,10.8996185 27.063728,10.7317488 L24.19503,6.43065581 L22.9795933,10.5638792 C22.9032803,10.8224892 22.6693283,11 22.4041826,11 L20.3604441,11 C20.1136804,11 19.9398874,10.7527325 20.0195425,10.5151062 L22.3089307,3.6721489 L20.1554576,0.578469788 C19.9866778,0.335739328 20.1571286,0 20.4495687,0 L22.5267289,0 C22.7233601,0 22.9077366,0.098113013 23.0202564,0.262579913 L29.9352112,10.4243658 C30.1006487,10.6676634 29.9301979,11 29.6394289,11" id="Shape"></path>
                    <path d="M44.8024978,6.975307 C44.6053669,5.84845669 43.6806638,5.09173581 42.500624,5.09173581 C41.9092313,5.09173581 41.4353484,5.27600398 41.1311409,5.6243611 C40.8291297,5.96953203 40.7160128,6.46179887 40.8115582,7.00929306 C40.9949613,8.1265848 41.9350395,8.90720212 43.0969586,8.90720212 C43.6762709,8.90720212 44.14631,8.72134086 44.4565578,8.36979754 C44.769002,8.01559907 44.8920029,7.52067707 44.8024978,6.975307 M47.6446969,10.8141387 L45.6052982,10.8141387 C45.4306809,10.8141387 45.2818718,10.6914703 45.2544162,10.5241952 L45.1649111,9.97298374 L45.0221422,10.1726518 C44.5806569,10.7923664 43.5961007,11 42.6131918,11 C40.3601888,11 38.4355544,9.34848988 38.0610606,7.03265848 C37.8661261,5.87713243 38.1428782,4.7731165 38.8204813,4.00258878 C39.4426242,3.29472287 40.3305368,3 41.388674,3 C43.2051335,3 44.2122033,4.12791238 44.2122033,4.12791238 L44.1210509,3.57988716 C44.087006,3.37172254 44.2533867,3.18320611 44.4719329,3.18320611 L46.3081605,3.18320611 C46.5997385,3.18320611 46.8473876,3.3876535 46.8929638,3.66591437 L47.9955789,10.4174577 C48.0296238,10.6256223 47.862694,10.8141387 47.6446969,10.8141387" id="Shape"></path>
                    <path d="M16.8024978,6.975307 C16.6053669,5.84845669 15.6806638,5.09173581 14.500624,5.09173581 C13.9092313,5.09173581 13.4353484,5.27600398 13.1311409,5.6243611 C12.8296788,5.96953203 12.7160128,6.46179887 12.8115582,7.00929306 C12.9949613,8.1265848 13.9350395,8.90720212 15.0969586,8.90720212 C15.6762709,8.90720212 16.14631,8.72134086 16.4565578,8.36979754 C16.769002,8.01559907 16.8920029,7.52067707 16.8024978,6.975307 M19.6446969,10.8141387 L17.6052982,10.8141387 C17.4306809,10.8141387 17.2818718,10.6914703 17.2544162,10.5241952 L17.1649111,9.97298374 L17.0226913,10.1726518 C16.5806569,10.7923664 15.5961007,11 14.6131918,11 C12.3601888,11 10.4355544,9.34848988 10.0610606,7.03265848 C9.86612615,5.87713243 10.1428782,4.7731165 10.8204813,4.00258878 C11.4426242,3.29472287 12.3305368,3 13.388674,3 C15.2051335,3 16.2122033,4.12791238 16.2122033,4.12791238 L16.1210509,3.57988716 C16.087006,3.37172254 16.2533867,3.18320611 16.4719329,3.18320611 L18.3081605,3.18320611 C18.5997385,3.18320611 18.8473876,3.3876535 18.8929638,3.66591437 L19.9955789,10.4174577 C20.0296238,10.6256223 19.862694,10.8141387 19.6446969,10.8141387" id="Shape"></path>
                    <path d="M6.86234956,10.9541425 C6.63609609,9.4035275 5.50162701,9.4035275 4.40397749,9.4035275 L3.77964597,9.4035275 L4.21774527,12.2986772 C4.24389248,12.473567 4.38850261,12.6022279 4.55819271,12.6022279 L4.84474487,12.6022279 C5.59180823,12.6022279 6.29724949,12.6022279 6.66117607,12.1583198 C6.87889168,11.8926433 6.94452653,11.4983059 6.86234956,10.9541425 M6.38476263,15 L2.24603161,15 C1.96268115,15 1.72202002,14.7850081 1.67772984,14.4931539 L0.00430791038,3.41605941 C-0.0287763242,3.19772569 0.132909532,3 0.344755356,3 L2.32127156,3 C2.60408841,3 2.84474953,3.21499188 2.88903972,3.50628916 L3.34101305,6.49501044 C3.38476962,6.7868647 3.62596436,7.00185658 3.90878121,7.00185658 L5.21827655,7.00185658 C7.9445242,7.00185658 9.51815981,8.37869575 9.92904466,11.1084242 C10.1142097,12.3014621 9.9365153,13.2394059 9.40129776,13.896078 C8.81271855,14.617916 7.76949793,15 6.38476263,15" id="Shape"></path>
                    <path d="M35.862346,10.9541425 C35.6360923,9.4035275 34.501622,9.4035275 33.4039712,9.4035275 L32.779639,9.4035275 L33.2177388,12.2986772 C33.243886,12.473567 33.3884963,12.6022279 33.5581866,12.6022279 L33.8447391,12.6022279 C34.5918033,12.6022279 35.2972453,12.6022279 35.6611723,12.1583198 C35.8788882,11.8926433 35.9445231,11.4983059 35.862346,10.9541425 M35.3847586,15 L31.2460229,15 C30.9626721,15 30.7220107,14.7850081 30.6777205,14.4931539 L29.0042967,3.41605941 C28.9712124,3.19772569 29.1334321,3 29.3447445,3 L31.4685413,3 C31.6665133,3 31.8351364,3.15038292 31.8660862,3.35423532 L32.3410056,6.49501044 C32.3847622,6.7868647 32.6259572,7.00185658 32.9087744,7.00185658 L34.2182712,7.00185658 C36.9445219,7.00185658 38.5181593,8.37869575 38.9290446,11.1084242 C39.1142098,12.3014621 38.9365152,13.2394059 38.4012971,13.896078 C37.8127172,14.617916 36.7694954,15 35.3847586,15" id="Shape"></path>
                </g>
            </g>
        </g>
    </g>
</svg>