<?xml version="1.0" encoding="UTF-8" standalone="no"?>
<svg width="27px" height="18px" viewBox="0 0 27 18" version="1.1" xmlns="http://www.w3.org/2000/svg" xmlns:xlink="http://www.w3.org/1999/xlink">
    <!-- Generator: Sketch 40.3 (33839) - http://www.bohemiancoding.com/sketch -->
    <title>SpeechBubbles_icon</title>
    <desc>Created with Sketch.</desc>
    <defs></defs>
    <g id="UI-Style-Guide-Kit" stroke="none" stroke-width="1" fill="none" fill-rule="evenodd">
        <g id="SpeechBubbles_icon" fill="#FFFFFF">
            <g id="Group-14">
                <path d="M3.14843478,16.6018065 C2.91130435,16.6018065 2.69765217,16.4589677 2.60608696,16.2418065 C2.51452174,16.0246452 2.565,15.776129 2.73286957,15.6089032 C3.17778261,15.1676129 3.969,14.1073548 4.52778261,12.9460645 C1.7186087,11.6802581 0,9.49935484 0,7.1523871 C0,3.33987097 4.47613043,0.236903226 9.97826087,0.236903226 C15.4815652,0.236903226 19.9565217,3.33987097 19.9565217,7.1523871 C19.9565217,10.9649032 15.4803913,14.0667097 9.97826087,14.0667097 C9.64956522,14.0667097 9.32673913,14.0516129 9.00743478,14.0295484 C7.37921739,15.7354839 5.40821739,16.6018065 3.14843478,16.6018065 L3.14843478,16.6018065 Z M9.97826087,1.39819355 C5.12295652,1.39819355 1.17391304,3.97974194 1.17391304,7.1523871 C1.17391304,9.16258065 2.83852174,11.0589677 5.51856522,12.1018065 C5.66413043,12.159871 5.78152174,12.2713548 5.84256522,12.4141935 C5.9036087,12.555871 5.90713043,12.7172903 5.84843478,12.860129 C5.49978261,13.7206452 4.98326087,14.6043871 4.47847826,15.3162581 C5.93178261,15.0329032 7.22191304,14.2757419 8.32891304,13.0447742 C8.451,12.9089032 8.63178261,12.8392258 8.81726087,12.8531613 C9.1976087,12.8856774 9.58265217,12.9089032 9.97708696,12.9089032 C14.8323913,12.9089032 18.7814348,10.3273548 18.7814348,7.15587097 C18.7826087,3.97974194 14.8335652,1.39819355 9.97826087,1.39819355 L9.97826087,1.39819355 Z" id="Shape"></path>
                <path d="M24.0464348,17.7630968 C21.9533478,17.7630968 20.127913,16.964129 18.617087,15.3882581 C16.2187826,15.5554839 13.689,15.0270968 11.8060435,13.9389677 C11.5254783,13.7775484 11.4315652,13.4245161 11.5947391,13.1446452 C11.757913,12.8647742 12.1183043,12.7730323 12.3976957,12.9356129 C14.1491739,13.9459355 16.5556957,14.4034839 18.804913,14.2083871 C18.9845217,14.1898065 19.1711739,14.264129 19.2932609,14.4 C20.2816957,15.4950968 21.4274348,16.1860645 22.7163913,16.460129 C22.2691304,15.8156129 21.8183478,15.0340645 21.5119565,14.2722581 C21.4532609,14.1294194 21.4556087,13.968 21.5178261,13.8263226 C21.5788696,13.6846452 21.6962609,13.572 21.8406522,13.5127742 C24.2988261,12.5616774 25.826087,10.8255484 25.826087,8.98722581 C25.826087,6.08167742 22.1986957,3.71729032 17.739,3.71729032 C17.415,3.71729032 17.1520435,3.456 17.1520435,3.13664516 C17.1520435,2.81729032 17.415,2.556 17.739,2.556 C22.8455217,2.556 27,5.43832258 27,8.98722581 C27,11.1611613 25.4175652,13.1771613 22.8337826,14.3593548 C23.3467826,15.4068387 24.071087,16.3788387 24.4631739,16.7667097 C24.6322174,16.9339355 24.6826957,17.180129 24.5899565,17.3996129 C24.4983913,17.6179355 24.285913,17.7630968 24.0464348,17.7630968 L24.0464348,17.7630968 Z" id="Shape"></path>
            </g>
        </g>
    </g>
</svg>