
<svg width="66px" height="66px" viewBox="0 0 66 66" version="1.1" xmlns="http://www.w3.org/2000/svg" xmlns:xlink="http://www.w3.org/1999/xlink">
    <!-- Generator: Sketch 48.2 (47327) - http://www.bohemiancoding.com/sketch -->
    <desc>Created with Sketch.</desc>
    <defs>
        <linearGradient x1="50%" y1="100%" x2="50%" y2="3.061617e-15%" id="linearGradient-1">
            <stop stop-color="#000000" offset="0%"></stop>
            <stop stop-color="#000000" stop-opacity="0" offset="100%"></stop>
        </linearGradient>
        <filter x="-18.4%" y="-25.4%" width="136.8%" height="150.9%" filterUnits="objectBoundingBox" id="filter-2">
            <feGaussianBlur stdDeviation="3" in="SourceGraphic"></feGaussianBlur>
        </filter>
    </defs>
    <g id="User---Job-application" stroke="none" stroke-width="1" fill="none" fill-rule="evenodd">
        <g id="3.-Jobs,-Apply---Search-Detail-Full-height" transform="translate(-1139.000000, -688.000000)">
            <g id="Group-2-Copy" transform="translate(1139.000000, 688.000000)">
                <path d="M23.6363636,60 C23.6363636,60 54.3866077,46.2585466 58.3705665,38.5629738 C62.3545252,30.8674011 55.0018015,24.6289068 41.9477983,24.6289068 C28.8937951,24.6289068 15.081798,30.8674011 11.0978392,38.5629738 C7.11388042,46.2585466 23.6363636,60 23.6363636,60 Z" id="Oval-4" fill="url(#linearGradient-1)" opacity="0.699999988" filter="url(#filter-2)"></path>
                <path d="M23.6363636,60 C23.6363636,60 47.2727273,36.6903668 47.2727273,23.6363636 C47.2727273,10.5823605 36.6903668,0 23.6363636,0 C10.5823605,0 0,10.5823605 0,23.6363636 C0,36.6903668 23.6363636,60 23.6363636,60 Z" id="Oval-4" fill="#00B5A6"></path>
                <circle id="Oval" fill="#F9F9F9" cx="23.6363636" cy="23.6363636" r="18.1818182"></circle>
            </g>
        </g>
    </g>
</svg>