
<svg width="26px" height="24px" viewBox="0 0 26 24" version="1.1" xmlns="http://www.w3.org/2000/svg" xmlns:xlink="http://www.w3.org/1999/xlink">
    <!-- Generator: Sketch 46.2 (44496) - http://www.bohemiancoding.com/sketch -->
    <desc>Created with Sketch.</desc>
    <defs></defs>
    <g id="Messaging-New" stroke="none" stroke-width="1" fill="none" fill-rule="evenodd">
        <g id="single-chat---active-menu-and-select-messages-to-delete-copy" transform="translate(-1118.000000, -327.000000)">
            <g id="Group-18" transform="translate(1087.000000, 161.000000)">
                <g id="Group-12">
                    <g id="Group-14">
                        <g id="Group-42" transform="translate(31.000000, 162.000000)">
                            <rect id="Rectangle" fill="#D8D8D8" opacity="0" transform="translate(16.000000, 16.000000) scale(-1, 1) translate(-16.000000, -16.000000) " x="0" y="0" width="32" height="32"></rect>
                            <path d="M25,20.149338 L25,22.8133814 C25,24.8839624 23.3229715,26.5625 21.25356,26.5625 L13.74644,26.5625 C11.6773383,26.5625 10,24.8884691 10,22.8065991 L10,8.75590086 L10,8.75590086 C10,6.68157409 11.6770285,5 13.74644,5 L21.25356,5 C23.3226617,5 25,6.67217999 25,8.75822401 L25,11.7647265" id="Rectangle-3" stroke="#DC001F" stroke-width="1.5" stroke-linecap="round" transform="translate(17.500000, 15.781250) scale(-1, 1) translate(-17.500000, -15.781250) "></path>
                            <path d="M13.7576476,15.4399788 L8.98492252,10.3687316 C8.66151074,10.0781025 8.04135477,9.95812814 7.6798805,10.2941578 C7.32383521,10.6251165 7.33442469,11.2669883 7.68912765,11.5992595 L11.04495,15.1603388 L0.89490123,15.1603388 C0.400685545,15.1603388 1.52727273e-05,15.5609972 1.52727273e-05,16.0552427 C1.52727273e-05,16.5494882 0.400685545,16.9501585 0.89490123,16.9501585 L11.04495,16.9501585 L7.68912765,20.5112378 C7.38376274,20.8171397 7.32732526,21.4815925 7.6798805,21.8163395 C8.03234625,22.1510567 8.67478488,22.0441178 8.98492252,21.7417359 L13.7576476,16.6705066 C13.9209643,16.4969584 14.0005495,16.293342 14.0000126,16.0552427 C13.9916603,15.8419615 13.903872,15.5954503 13.7576476,15.4399788 Z" id="Shape" fill="#DC001F" transform="translate(7.000015, 16.056813) scale(-1, 1) translate(-7.000015, -16.056813) "></path>
                        </g>
                    </g>
                </g>
            </g>
        </g>
    </g>
</svg>