
<svg width="15px" height="21px" viewBox="0 0 15 21" version="1.1" xmlns="http://www.w3.org/2000/svg" xmlns:xlink="http://www.w3.org/1999/xlink">
    <!-- Generator: Sketch 48.2 (47327) - http://www.bohemiancoding.com/sketch -->
    <desc>Created with Sketch.</desc>
    <defs></defs>
    <g id="User---Job-application" stroke="none" stroke-width="1" fill="none" fill-rule="evenodd" stroke-linejoin="round">
        <g id="01.2-Desktop-Jobs---User-Advanced-Search-drop-down" transform="translate(-997.000000, -711.000000)" stroke="#9B9B9B">
            <g id="Group-3" transform="translate(827.000000, 711.000000)">
                <g id="location-copy-5" transform="translate(171.000000, 1.000000)">
                    <path d="M13.0434783,6.52173913 C13.0434783,12.4356522 6.52173913,20 6.52173913,20 C6.52173913,20 0,12.5643478 0,6.52173913 C0,2.9126087 2.9126087,0 6.52173913,0 C10.1308696,0 13.0434783,2.9126087 13.0434783,6.52173913 L13.0434783,6.52173913 Z" id="Stroke-1"></path>
                    <path d="M9.13043478,6.95652174 C9.13043478,8.39652174 7.96173913,9.56521739 6.52173913,9.56521739 C5.08173913,9.56521739 3.91304348,8.39652174 3.91304348,6.95652174 C3.91304348,5.51652174 5.08173913,4.34782609 6.52173913,4.34782609 C7.96173913,4.34782609 9.13043478,5.51652174 9.13043478,6.95652174 L9.13043478,6.95652174 Z" id="Stroke-2"></path>
                </g>
            </g>
        </g>
    </g>
</svg>