
<svg width="21px" height="15px" viewBox="0 0 21 15" version="1.1" xmlns="http://www.w3.org/2000/svg" xmlns:xlink="http://www.w3.org/1999/xlink">
    <g id="Tutor" stroke="none" stroke-width="1" fill="none" fill-rule="evenodd">
        <g id="Tutor-Unit-Progress" transform="translate(-1118.000000, -997.000000)" stroke="#9B9B9B">
            <g id="binoculars" transform="translate(1119.000000, 998.000000)">
                <path d="M7.5,9.375 C7.5,11.445 5.82,13.125 3.75,13.125 C1.68,13.125 0,11.445 0,9.375 C0,7.305 1.68,5.625 3.75,5.625 C5.82,5.625 7.5,7.305 7.5,9.375 L7.5,9.375 Z" id="Stroke-1"></path>
                <path d="M18.75,9.375 C18.75,11.445 17.07,13.125 15,13.125 C12.93,13.125 11.25,11.445 11.25,9.375 C11.25,7.305 12.93,5.625 15,5.625 C17.07,5.625 18.75,7.305 18.75,9.375 L18.75,9.375 Z" id="Stroke-2"></path>
                <path d="M10.625,8.75 C10.625,9.440625 10.065625,10 9.375,10 C8.684375,10 8.125,9.440625 8.125,8.75 C8.125,8.059375 8.684375,7.5 9.375,7.5 C10.065625,7.5 10.625,8.059375 10.625,8.75 L10.625,8.75 Z" id="Stroke-3"></path>
                <path d="M18.4375,7.87625 L16.999375,3.874375 C16.5625,2.8125 15.56125,1.999375 14.375,1.875 C14.375,0.813125 13.561875,0 12.5,0 C11.438125,0 10.625,0.813125 10.625,1.875 L8.125,1.875 C8.125,0.813125 7.311875,0 6.25,0 C5.188125,0 4.375,0.813125 4.375,1.875 C3.18875,1.999375 2.1875,2.74875 1.750625,3.938125 L0.3125,7.936875" id="Stroke-4"></path>
            </g>
        </g>
    </g>
</svg>