
<svg width="30px" height="25px" viewBox="0 0 30 25" version="1.1" xmlns="http://www.w3.org/2000/svg" xmlns:xlink="http://www.w3.org/1999/xlink">
    <!-- Generator: Sketch 51.3 (57544) - http://www.bohemiancoding.com/sketch -->
    <desc>Created with Sketch.</desc>
    <defs></defs>
    <g id="Symbols" stroke="none" stroke-width="1" fill="none" fill-rule="evenodd">
        <g id="qual-icons" transform="translate(-175.000000, -2.000000)" fill="#7FBFD1">
            <g id="shop-icon" transform="translate(175.000000, 2.000000)">
                <path d="M26.1425,10.4725 L24.375,12.24 L22.6075,10.4725 L21.72375,11.3575 L23.49125,13.125 L21.72375,14.8925 L22.6075,15.77625 L24.375,14.00875 L26.1425,15.77625 L27.0275,14.8925 L25.26,13.125 L27.0275,11.3575 L26.1425,10.4725 Z M30,13.125 C30,16.23125 27.47875,18.75 24.375,18.75 C21.27125,18.75 18.75,16.23125 18.75,13.125 C18.75,10.01875 21.27125,7.5 24.375,7.5 C27.47875,7.5 30,10.01875 30,13.125 Z M13.37625,2.175 C13.635,1.9175 13.75,1.59875 13.75,1.28625 C13.75,0.63125 13.24125,0 12.475,0 C12.14875,0 11.8225,0.125 11.575,0.3725 L5.69875,6.25 L9.30125,6.25 L13.37625,2.175 Z M16.25,13.125 C16.25,11.5125 16.72625,10.01375 17.535,8.75 L0,8.75 L0,11.25 L0.80375,11.25 C1.4725,11.25 2.08,11.63 2.3725,12.23 L7.5,25 L22.5,25 L24.0125,21.23125 C19.695,21.04125 16.25,17.49 16.25,13.125 Z M16.62375,2.175 C16.365,1.9175 16.25,1.59875 16.25,1.28625 C16.25,0.63125 16.75875,0 17.52375,0 C17.85125,0 18.1775,0.125 18.425,0.3725 L23.1525,5.10125 C22.19,5.2475 21.2775,5.555 20.45625,6.00875 L16.62375,2.175 Z" id="Fill-1"></path>
            </g>
        </g>
    </g>
</svg>