<?xml version="1.0" encoding="UTF-8"?>
<svg width="30px" height="20px" viewBox="0 0 30 20" version="1.1" xmlns="http://www.w3.org/2000/svg" xmlns:xlink="http://www.w3.org/1999/xlink">
    <!-- Generator: Sketch 41.2 (35397) - http://www.bohemiancoding.com/sketch -->
    <title>message_icon</title>
    <desc>Created with Sketch.</desc>
    <defs></defs>
    <g id="Symbols" stroke="none" stroke-width="1" fill="none" fill-rule="evenodd">
        <g id="Large-List-View-Row---Resting" transform="translate(-1066.000000, -33.000000)" fill="#00a287">
            <g id="Group-8-Copy-6">
                <g transform="translate(988.000000, 30.000000)">
                    <g id="Group">
                        <g id="message_icon" transform="translate(78.000000, 3.000000)">
                            <path d="M3.49826087,18.1832258 C3.23478261,18.1832258 2.9973913,18.0245161 2.89565217,17.7832258 C2.79391304,17.5419355 2.85,17.2658065 3.03652174,17.08 C3.53086957,16.5896774 4.41,15.4116129 5.03086957,14.1212903 C1.90956522,12.7148387 0,10.2916129 0,7.68387097 C0,3.44774194 4.97347826,0 11.0869565,0 C17.2017391,0 22.173913,3.44774194 22.173913,7.68387097 C22.173913,11.92 17.2004348,15.3664516 11.0869565,15.3664516 C10.7217391,15.3664516 10.3630435,15.3496774 10.0082609,15.3251613 C8.19913043,17.2206452 6.00913043,18.1832258 3.49826087,18.1832258 L3.49826087,18.1832258 Z M11.0869565,1.29032258 C5.69217391,1.29032258 1.30434783,4.15870968 1.30434783,7.68387097 C1.30434783,9.91741935 3.15391304,12.0245161 6.13173913,13.1832258 C6.29347826,13.2477419 6.42391304,13.3716129 6.49173913,13.5303226 C6.55956522,13.6877419 6.56347826,13.8670968 6.49826087,14.0258065 C6.11086957,14.9819355 5.53695652,15.963871 4.97608696,16.7548387 C6.59086957,16.44 8.02434783,15.5987097 9.25434783,14.2309677 C9.39,14.08 9.59086957,14.0025806 9.79695652,14.0180645 C10.2195652,14.0541935 10.6473913,14.08 11.0856522,14.08 C16.4804348,14.08 20.8682609,11.2116129 20.8682609,7.68774194 C20.8695652,4.15870968 16.4817391,1.29032258 11.0869565,1.29032258 L11.0869565,1.29032258 Z" id="Shape"></path>
                            <path d="M26.7182609,19.4735484 C24.3926087,19.4735484 22.3643478,18.5858065 20.6856522,16.8348387 C18.0208696,17.0206452 15.21,16.4335484 13.1178261,15.2245161 C12.806087,15.0451613 12.7017391,14.6529032 12.8830435,14.3419355 C13.0643478,14.0309677 13.4647826,13.9290323 13.7752174,14.1096774 C15.7213043,15.2322581 18.3952174,15.7406452 20.8943478,15.523871 C21.093913,15.5032258 21.3013043,15.5858065 21.4369565,15.7367742 C22.5352174,16.9535484 23.8082609,17.7212903 25.2404348,18.0258065 C24.7434783,17.3096774 24.2426087,16.4412903 23.9021739,15.5948387 C23.8369565,15.436129 23.8395652,15.2567742 23.9086957,15.0993548 C23.9765217,14.9419355 24.1069565,14.8167742 24.2673913,14.7509677 C26.9986957,13.6941935 28.6956522,11.7651613 28.6956522,9.72258065 C28.6956522,6.49419355 24.6652174,3.86709677 19.71,3.86709677 C19.35,3.86709677 19.0578261,3.57677419 19.0578261,3.22193548 C19.0578261,2.86709677 19.35,2.57677419 19.71,2.57677419 C25.383913,2.57677419 30,5.77935484 30,9.72258065 C30,12.1380645 28.2417391,14.3780645 25.3708696,15.6916129 C25.9408696,16.8554839 26.7456522,17.9354839 27.1813043,18.3664516 C27.3691304,18.5522581 27.4252174,18.8258065 27.3221739,19.0696774 C27.2204348,19.3122581 26.9843478,19.4735484 26.7182609,19.4735484 L26.7182609,19.4735484 Z" id="Shape"></path>
                        </g>
                    </g>
                </g>
            </g>
        </g>
    </g>
</svg>