<svg xmlns="http://www.w3.org/2000/svg" viewBox="0 0 16 20">
  <defs>
    <style>
      .cls-1 {
        fill: #875ba9;
      }
    </style>
  </defs>
  <g id="np_bin_2144530_000000" transform="translate(0 0)">
    <path id="Path" class="cls-1" d="M12.338,0a.656.656,0,0,0-.662.65v12.1a1.93,1.93,0,0,1-.6,1.392,2,2,0,0,1-1.429.557h-6.3a2,2,0,0,1-1.433-.555,1.932,1.932,0,0,1-.6-1.395V.65A.656.656,0,0,0,.662,0,.656.656,0,0,0,0,.65v12.1a3.22,3.22,0,0,0,.985,2.314A3.34,3.34,0,0,0,3.354,16h6.3a3.342,3.342,0,0,0,2.365-.937A3.224,3.224,0,0,0,13,12.75V.65A.656.656,0,0,0,12.338,0Z" transform="translate(2 4)"/>
    <path id="Shape" class="cls-1" d="M15.333,3H.667A.7.7,0,0,1,0,2.279a.7.7,0,0,1,.667-.721H5.333A2.828,2.828,0,0,1,7.812,0C7.875,0,7.938,0,8,.007S8.128,0,8.192,0a2.822,2.822,0,0,1,2.475,1.558h4.667A.7.7,0,0,1,16,2.279.7.7,0,0,1,15.333,3ZM8.053,1.455a2.568,2.568,0,0,0-.72.1h1.44A2.569,2.569,0,0,0,8.053,1.455Z"/>
    <path id="Path-2" data-name="Path" class="cls-1" d="M2,10.313V.688C2,.308,1.553,0,1,0S0,.308,0,.688v9.625C0,10.692.447,11,1,11S2,10.692,2,10.313Z" transform="translate(4 5)"/>
    <path id="Path-3" data-name="Path" class="cls-1" d="M2,10.313V.688C2,.308,1.553,0,1,0S0,.308,0,.688v9.625C0,10.692.447,11,1,11S2,10.692,2,10.313Z" transform="translate(7 5)"/>
    <path id="Path-4" data-name="Path" class="cls-1" d="M2,10.313V.688C2,.308,1.553,0,1,0S0,.308,0,.688v9.625C0,10.692.447,11,1,11S2,10.692,2,10.313Z" transform="translate(10 5)"/>
  </g>
</svg>
