
<svg width="74px" height="40px" viewBox="0 0 74 40" version="1.1" xmlns="http://www.w3.org/2000/svg" xmlns:xlink="http://www.w3.org/1999/xlink">
    <!-- Generator: Sketch 48.2 (47327) - http://www.bohemiancoding.com/sketch -->
    <desc>Created with Sketch.</desc>
    <defs>
        <path d="M14.1706732,3.33240446 C24.0126943,3.33240446 27.6502124,-12.7912532 42.2487174,-12.8162309 C56.5863149,-12.8407622 54.5495837,-20 64.2273181,-20 C72.3425525,-20 76.1502089,-9.95071836 76.1502089,-9.95071836 C76.1502089,-9.95071836 76.5874199,30.1056734 75.5050028,30.1056734 C74.6001935,30.1056734 -2,34.7340468 -2,34.7340468 L-2,-9.95071836 C-2,-9.95071836 4.70453016,3.33240446 14.1706732,3.33240446 Z" id="path-1"></path>
        <filter x="-8.3%" y="-11.9%" width="116.6%" height="123.8%" filterUnits="objectBoundingBox" id="filter-2">
            <feGaussianBlur stdDeviation="6" in="SourceAlpha" result="shadowBlurInner1"></feGaussianBlur>
            <feOffset dx="0" dy="1" in="shadowBlurInner1" result="shadowOffsetInner1"></feOffset>
            <feComposite in="shadowOffsetInner1" in2="SourceAlpha" operator="arithmetic" k2="-1" k3="1" result="shadowInnerInner1"></feComposite>
            <feColorMatrix values="0 0 0 0 1   0 0 0 0 1   0 0 0 0 1  0 0 0 0.25 0" type="matrix" in="shadowInnerInner1"></feColorMatrix>
        </filter>
        <path d="M24.770857,1.40924032 C34.6128781,1.40924032 41.0747648,31.643767 55.6732698,31.6097679 C70.0108673,31.5763764 76.1502089,36 76.1502089,36 L76.1502089,70.5160948 L-2,72.0082142 L-2,36 C-2,36 15.304714,1.40924032 24.770857,1.40924032 Z" id="path-3"></path>
        <filter x="-8.3%" y="-9.2%" width="116.6%" height="118.4%" filterUnits="objectBoundingBox" id="filter-4">
            <feGaussianBlur stdDeviation="6" in="SourceAlpha" result="shadowBlurInner1"></feGaussianBlur>
            <feOffset dx="0" dy="1" in="shadowBlurInner1" result="shadowOffsetInner1"></feOffset>
            <feComposite in="shadowOffsetInner1" in2="SourceAlpha" operator="arithmetic" k2="-1" k3="1" result="shadowInnerInner1"></feComposite>
            <feColorMatrix values="0 0 0 0 1   0 0 0 0 1   0 0 0 0 1  0 0 0 0.25 0" type="matrix" in="shadowInnerInner1"></feColorMatrix>
        </filter>
        <path d="M10.7103275,-53.9615994 C20.5523486,-53.9615994 20.0033048,-38.2983881 34.6018099,-38.3323155 C48.9394074,-38.3656366 48.0658717,-46.8859665 61.24092,-47.0592595 C73.6654665,-47.222681 76.1502089,-33.5048319 76.1502089,-33.5048319 L76.1502089,33.8717892 L-2,36 L-2,-33.5048319 C-2,-33.5048319 1.2441845,-53.9615994 10.7103275,-53.9615994 Z" id="path-5"></path>
        <filter x="-8.3%" y="-7.2%" width="116.6%" height="114.5%" filterUnits="objectBoundingBox" id="filter-6">
            <feGaussianBlur stdDeviation="6" in="SourceAlpha" result="shadowBlurInner1"></feGaussianBlur>
            <feOffset dx="0" dy="1" in="shadowBlurInner1" result="shadowOffsetInner1"></feOffset>
            <feComposite in="shadowOffsetInner1" in2="SourceAlpha" operator="arithmetic" k2="-1" k3="1" result="shadowInnerInner1"></feComposite>
            <feColorMatrix values="0 0 0 0 1   0 0 0 0 1   0 0 0 0 1  0 0 0 0.25 0" type="matrix" in="shadowInnerInner1"></feColorMatrix>
        </filter>
    </defs>
    <g id="Page-1" stroke="none" stroke-width="1" fill="none" fill-rule="evenodd">
        <g id="2a---Add-a-chart" transform="translate(-201.000000, -643.000000)">
            <g id="Popped-out" transform="translate(151.000000, 197.000000)">
                <g id="BG-Group">
                    <g id="Sample-Size-Copy-13" transform="translate(20.000000, 418.000000)">
                        <g id="Group-27" transform="translate(30.000000, 28.000000)">
                            <g id="Rectangle-4" transform="translate(37.118755, 7.367023) rotate(-180.000000) translate(-37.118755, -7.367023) ">
                                <use fill="black" fill-opacity="1" filter="url(#filter-2)" xlink:href="#path-1"></use>
                                <path stroke="#A02B7E" stroke-width="2" d="M-1,-6.33226769 L-1,33.6718194 C-0.219000249,33.624651 -0.119548223,33.6186464 1.23291995,33.5369888 C3.85332131,33.3787911 6.77471005,33.2025138 9.92272347,33.0126768 C18.9170531,32.4702849 27.9255231,31.9278929 36.3532383,31.4216593 C36.5249099,31.4113475 36.5249099,31.4113475 36.6965856,31.4010359 C58.0639247,30.1176388 71.5301051,29.3164476 74.7597716,29.1418025 C74.7896228,28.9176504 74.8189679,28.6359495 74.8469801,28.3011283 C74.9335357,27.2665574 75.005456,25.7566882 75.0628993,23.8172565 C75.1645347,20.3857853 75.2189124,15.6995574 75.2335156,10.0748812 C75.2458989,5.305247 75.2292415,0.192753272 75.1938845,-4.83841428 C75.1843412,-6.1963914 75.1741165,-7.44406174 75.1638923,-8.55349254 C75.1603144,-8.941736 75.1569923,-9.28494864 75.1540113,-9.57963928 C75.1532451,-9.65415458 75.1526704,-9.71004108 75.1522288,-9.75292633 C75.1261616,-9.81570074 75.0935171,-9.89254313 75.054282,-9.98241236 C74.9124507,-10.3072812 74.7406665,-10.6711719 74.5388862,-11.0641312 C73.9613688,-12.188824 73.2626496,-13.3136832 72.4444949,-14.3590209 C70.1585789,-17.2796839 67.4229082,-19 64.2273181,-19 C61.011304,-19 59.3105785,-18.331364 56.7822057,-16.4924792 C56.7004309,-16.4330043 55.826478,-15.790262 55.5562169,-15.5960352 C51.9193876,-12.9823785 48.5270445,-11.8269715 42.2504284,-11.8162324 C36.4031507,-11.8062278 32.5038486,-9.48912452 27.1483848,-4.04091693 C27.3755468,-4.27201282 24.6543797,-1.4692507 23.9215899,-0.751243437 C20.372567,2.72618536 17.6279624,4.33240446 14.1706732,4.33240446 C9.67659694,4.33240446 5.52322168,1.69317429 1.77774602,-2.65665488 C0.763220992,-3.8348792 -0.164712021,-5.07681053 -1,-6.33226769 Z M74.6765993,29.6119877 C74.6764541,29.6123426 74.6763091,29.6126976 74.6761643,29.6130527 C74.6763752,29.6125357 74.6772119,29.6095855 74.6785657,29.6043828 Z"></path>
                            </g>
                            <g id="Rectangle-4">
                                <use fill="black" fill-opacity="1" filter="url(#filter-4)" xlink:href="#path-3"></use>
                                <path stroke="#00AEA6" stroke-width="2" d="M-1,36.2379756 L-1,70.988939 L75.1502089,69.5350055 L75.1502089,36.5492012 C74.9817013,36.4508775 74.7703784,36.3339167 74.5154424,36.2016715 C73.5699281,35.7111965 72.4043097,35.2172217 71.0102787,34.7537112 C66.9495614,33.4035367 61.8610998,32.5953595 55.6755987,32.6097652 C48.9974392,32.6253183 44.2843075,27.8809456 37.5799085,17.0353313 C37.1488864,16.3380727 35.2564179,13.2381166 34.7547452,12.4293088 C33.6940575,10.7192451 32.8485323,9.41853093 32.037409,8.26959695 C29.2354206,4.30065707 26.9624704,2.40924032 24.770857,2.40924032 C22.4674309,2.40924032 19.1204127,5.10574248 15.1737621,10.0246564 C13.110406,12.5963234 10.9304075,15.7081105 8.67900482,19.2419378 C6.28198955,23.0043204 3.93225707,27.0391091 1.72950858,31.0743337 C0.958400785,32.4869295 0.260896313,33.7984075 -0.350666277,34.9749033 C-0.564481068,35.3862303 -0.752203556,35.7511476 -0.912294217,36.0654256 C-0.945177162,36.1299789 -0.974433242,36.1875528 -1,36.2379756 Z"></path>
                            </g>
                            <g id="Rectangle-4" transform="translate(37.075104, -8.980800) rotate(-180.000000) translate(-37.075104, 8.980800) ">
                                <use fill="black" fill-opacity="1" filter="url(#filter-6)" xlink:href="#path-5"></use>
                                <path stroke="#D4CE12" stroke-width="2" d="M-1,-33.4240721 L-1,34.972397 L75.1502089,32.8986507 L75.1502089,-33.4088699 C75.1300394,-33.50754 75.0970048,-33.6560599 75.049668,-33.8488022 C74.9419884,-34.2872429 74.8019335,-34.7782037 74.6262023,-35.3082342 C74.123563,-36.8242659 73.4386306,-38.3399954 72.5480475,-39.7482909 C70.003845,-43.7714853 66.3383487,-46.1262201 61.254072,-46.059346 C56.1810916,-45.9926205 53.6704634,-44.9993977 49.2973691,-42.0694527 C49.1460997,-41.9680705 49.1460997,-41.9680705 48.9941826,-41.8662652 C44.0527921,-38.55609 40.8723923,-37.3468859 34.6041339,-37.3323182 C28.0396606,-37.3170622 24.3064681,-39.8555819 20.0612351,-45.5491822 C19.7612448,-45.9515217 18.7058005,-47.3955414 18.4807161,-47.6984126 C15.6368897,-51.5250355 13.7485495,-52.9615994 10.7103275,-52.9615994 C7.11941864,-52.9615994 4.09360071,-49.4130677 1.7370283,-43.3699053 C0.883275984,-41.1805544 0.183220155,-38.8267058 -0.371860952,-36.4717784 C-0.566285692,-35.646933 -0.728544759,-34.8814889 -0.859985057,-34.1956185 C-0.926663564,-33.8476824 -0.973047251,-33.5863661 -1,-33.4240721 Z"></path>
                            </g>
                        </g>
                    </g>
                </g>
            </g>
        </g>
    </g>
</svg>