<svg width="32px" height="40px" viewBox="0 0 32 40" version="1.1" xmlns="http://www.w3.org/2000/svg" xmlns:xlink="http://www.w3.org/1999/xlink">
    <!-- Generator: Sketch 48.2 (47327) - http://www.bohemiancoding.com/sketch -->
    <desc>Created with Sketch.</desc>
    <defs></defs>
    <g id="Symbols" stroke="none" stroke-width="1" fill="none" fill-rule="evenodd">
        <g class="fillable" transform="translate(-90.000000, -16.000000)">
            <path d="M120.198022,52.5863478 L120.198022,18.2997133 L113.618489,16 L107.176931,18.2997133 L107.176931,52.5863478 L104.683424,52.5863478 L104.685049,34.9546551 L97.9675429,31.3303069 L91.6639584,34.9546551 L91.6639584,52.5863478 L90,52.5863478 L90,56 L122,56 L122,52.5863478 L120.198022,52.5863478 Z M94,37 L95,37 L95,41 L94,41 L94,37 Z M94,42 L95,42 L95,46 L94,46 L94,42 Z M94,48 L95,48 L95,52 L94,52 L94,48 Z M97,52 L96,52 L96,48 L97,48 L97,52 Z M97,46 L96,46 L96,42 L97,42 L97,46 Z M97,41 L96,41 L96,37 L97,37 L97,41 Z M99,37 L100,37 L100,41 L99,41 L99,37 Z M99,42 L100,42 L100,46 L99,46 L99,42 Z M99,48 L100,48 L100,52 L99,52 L99,48 Z M102,52 L101,52 L101,48 L102,48 L102,52 Z M102,46 L101,46 L101,42 L102,42 L102,46 Z M102,41 L101,41 L101,37 L102,37 L102,41 Z M110,20 L111,20 L111,24 L110,24 L110,20 Z M110,26 L111,26 L111,30 L110,30 L110,26 Z M110,31 L111,31 L111,35 L110,35 L110,31 Z M110,37 L111,37 L111,41 L110,41 L110,37 Z M110,42 L111,42 L111,46 L110,46 L110,42 Z M110,48 L111,48 L111,52 L110,52 L110,48 Z M113,52 L112,52 L112,48 L113,48 L113,52 Z M113,46 L112,46 L112,42 L113,42 L113,46 Z M113,41 L112,41 L112,37 L113,37 L113,41 Z M113,35 L112,35 L112,31 L113,31 L113,35 Z M113,30 L112,30 L112,26 L113,26 L113,30 Z M113,24 L112,24 L112,20 L113,20 L113,24 Z M115,20 L116,20 L116,24 L115,24 L115,20 Z M115,26 L116,26 L116,30 L115,30 L115,26 Z M115,31 L116,31 L116,35 L115,35 L115,31 Z M115,37 L116,37 L116,41 L115,41 L115,37 Z M115,42 L116,42 L116,46 L115,46 L115,42 Z M115,48 L116,48 L116,52 L115,52 L115,48 Z M118,52 L117,52 L117,48 L118,48 L118,52 Z M118,46 L117,46 L117,42 L118,42 L118,46 Z M118,41 L117,41 L117,37 L118,37 L118,41 Z M118,35 L117,35 L117,31 L118,31 L118,35 Z M118,30 L117,30 L117,26 L118,26 L118,30 Z M118,24 L117,24 L117,20 L118,20 L118,24 Z" id="Page-1"></path>
        </g>
    </g>
</svg>