
<svg width="31px" height="27px" viewBox="0 0 31 27" version="1.1" xmlns="http://www.w3.org/2000/svg" xmlns:xlink="http://www.w3.org/1999/xlink">
    <!-- Generator: Sketch 51.3 (57544) - http://www.bohemiancoding.com/sketch -->
    <desc>Created with Sketch.</desc>
    <defs></defs>
    <g id="Symbols" stroke="none" stroke-width="1" fill="none" fill-rule="evenodd">
        <g id="qual-icons" transform="translate(-27.000000, -2.000000)">
            <g id="Icon" transform="translate(28.000000, 3.000000)">
                <g id="Group-2">
                    <path d="M8.91761905,19.5392157 C7.1731746,19.5392157 5.25428571,19.8774118 3.21428571,20.5464837 L4.52984127,5.5340915 C5.48428571,5.03045752 7.34650794,4.16666667 8.85206349,4.16666667 C11.0920635,4.16666667 13.2798413,6.03772549 13.3009524,6.05383007 L14.7465079,7.3231634 L16.1920635,6.06554248 C16.2131746,6.04797386 17.8453968,4.66444444 19.7331746,4.28086275 L21.0187302,19.5567843 C18.6742857,19.4015948 16.3220635,20.528915 14.7509524,21.5405752 C13.2753968,20.5918693 11.1353968,19.5392157 8.91761905,19.5392157 Z" id="Fill-1" fill="#7FBFD1"></path>
                    <path d="M27.2222222,2.47132026 C27.2222222,2.47132026 23.5933333,0 20.4822222,0 C17.37,0 14.5833333,2.47132026 14.5833333,2.47132026 C14.5833333,2.47132026 11.7966667,0 8.68444444,0 C5.57333333,0 1.94444444,2.47132026 1.94444444,2.47132026 L0,24.7073464 C0,24.7073464 4.40555556,22.2360261 8.75,22.2360261 C11.6011111,22.2360261 14.5833333,24.7073464 14.5833333,24.7073464 C14.5833333,24.7073464 17.5655556,22.2360261 20.4166667,22.2360261 C24.7611111,22.2360261 29.1666667,24.7073464 29.1666667,24.7073464 L27.2222222,2.47132026 Z" id="Stroke-2" stroke="#7FBFD1" stroke-linecap="round" stroke-linejoin="round"></path>
                </g>
            </g>
        </g>
    </g>
</svg>