<?xml version="1.0" encoding="UTF-8"?>
<svg width="21px" height="13px" viewBox="0 0 21 13" version="1.1" xmlns="http://www.w3.org/2000/svg" xmlns:xlink="http://www.w3.org/1999/xlink">
    <!-- Generator: Sketch 40.3 (33839) - http://www.bohemiancoding.com/sketch -->
    <title>Group</title>
    <desc>Created with Sketch.</desc>
    <defs></defs>
    <g id="Page-1" stroke="none" stroke-width="1" fill="none" fill-rule="evenodd">
        <g id="Group" fill="#000000">
            <path d="M6.84912109,13 L6.17626953,10.7910156 L2.79296875,10.7910156 L2.12011719,13 L0,13 L3.27539062,3.68164062 L5.68115234,3.68164062 L8.96923828,13 L6.84912109,13 Z M5.70654297,9.140625 C5.08446955,7.13898739 4.73429401,6.00700001 4.65600586,5.74462891 C4.57771771,5.4822578 4.5216473,5.27490311 4.48779297,5.12255859 C4.34814383,5.66422797 3.94824549,7.00357004 3.28808594,9.140625 L5.70654297,9.140625 Z" id="A"></path>
            <path d="M18.637207,13 L17.3540039,9.43164062 L12.440918,9.43164062 L11.184082,13 L8.96923828,13 L13.7768555,0.09765625 L16.0620117,0.09765625 L20.8696289,13 L18.637207,13 Z M16.800293,7.62109375 L15.5961914,4.12304688 C15.5083003,3.8886707 15.3867195,3.51953377 15.2314453,3.015625 C15.0761711,2.51171623 14.9692386,2.1425793 14.9106445,1.90820312 C14.7524406,2.62890985 14.5209976,3.41698791 14.2163086,4.27246094 L13.0561523,7.62109375 L16.800293,7.62109375 Z" id="A"></path>
        </g>
    </g>
</svg>