
<svg width="35px" height="45px" viewBox="0 0 35 45" version="1.1" xmlns="http://www.w3.org/2000/svg" xmlns:xlink="http://www.w3.org/1999/xlink">
    <!-- Generator: Sketch 51.3 (57544) - http://www.bohemiancoding.com/sketch -->
    <desc>Created with Sketch.</desc>
    <defs></defs>
    <g id="Symbols" stroke="none" stroke-width="1" fill="none" fill-rule="evenodd">
        <g id="PDF-doc" transform="translate(0.000000, -1.000000)" fill="#D0021B">
            <path d="M0.961181285,1.00002782 C0.439161696,1.04796813 -0.00206093993,1.51737409 7.2414617e-06,2.02275446 L7.2414617e-06,44.9772734 C7.2414617e-06,45.5126196 0.505449561,46 1.06061308,46 L33.9393942,46 C34.4945683,46 35,45.5126094 35,44.9772734 L35,13.2727475 C35,13.0010857 34.8860697,12.729424 34.6851326,12.5376627 L34.2874055,12.1701203 C34.2480464,12.1181863 34.2045456,12.070246 34.1548297,12.0262994 L23.5487713,1.79903301 C23.5218425,1.77705973 23.4949137,1.75508644 23.4659115,1.73511259 L23.0184684,1.28766969 C22.8216783,1.10389594 22.5482382,0.99802839 22.2727564,1.00002782 L1.0606396,1.00002782 L0.9612078,1.00002782 L0.961181285,1.00002782 Z M2.12121892,3.0454811 L21.742427,3.0454811 L21.742427,12.7613842 C21.742427,13.2967304 22.2478693,13.7841108 22.8030328,13.7841108 L32.8787883,13.7841108 L32.8787883,43.9545467 L2.12121892,43.9545467 L2.12121892,3.0454811 Z M16.3731099,17.3636541 C15.6315343,17.3636541 15.0266178,17.7951169 14.6827694,18.2905001 C14.3389209,18.7858833 14.1690384,19.3811358 14.1690384,20.0163513 C14.1690384,21.3187425 14.691058,22.818878 15.4450533,24.346985 C14.8297958,26.1467282 13.9908566,28.0743634 13.0918341,29.7480044 C11.8717131,30.2294069 10.7241376,30.7307935 9.86027414,31.2661398 C9.37347197,31.5677623 8.94051676,31.881361 8.6008047,32.2409006 C8.26109265,32.6004401 7.9544715,33.0498773 7.9544715,33.6631042 C7.9544715,34.8176603 8.94465312,35.7724779 10.1419711,35.7724779 C11.3102814,35.7724779 11.9918267,35.0353988 12.7106523,34.1904221 C13.3403871,33.4513487 13.961849,32.4385936 14.5667126,31.3779238 C16.2259774,30.7627026 18.063424,30.2153904 19.7869085,29.8278793 C20.9635446,30.7267538 22.2582261,31.4099352 23.7144379,31.4099352 C24.4829529,31.4099352 25.1997104,31.2681137 25.8025057,30.9784724 C26.405301,30.6888311 27.0454297,30.1534899 27.0454297,29.300587 C27.0454297,28.4476841 26.4053541,27.8963322 25.8025057,27.606696 C25.1996573,27.3170598 24.4829529,27.1752332 23.7144379,27.1752332 L23.697866,27.1752332 C22.749101,27.1912133 21.5704497,27.4069422 20.3669273,27.6386562 C19.3602002,26.6918159 18.442511,25.4533962 17.7319581,24.1709993 C18.2187603,22.6249434 18.5605564,21.1847398 18.5605564,20.0161723 C18.5605564,19.3809568 18.3906951,18.7857299 18.0468255,18.2903211 C17.7050293,17.7949379 17.114659,17.3634751 16.3730834,17.3634751 L16.3731099,17.3636541 Z M16.3731099,19.7287094 C16.4021122,19.8285838 16.4393978,19.886511 16.4393978,20.0163513 C16.4393978,20.128212 16.3834667,20.3299602 16.3731099,20.4637942 C16.3586114,20.3299602 16.2902501,20.1262126 16.2902501,20.0163513 C16.2902501,19.886511 16.3441076,19.8285838 16.3731099,19.7287094 Z M16.820553,26.6638188 C17.1996347,27.2151196 17.634674,27.6985113 18.0800224,28.1979087 C17.3321893,28.38967 16.6196212,28.6193846 15.8759774,28.8530674 C16.2177736,28.1219713 16.5243788,27.4128638 16.820553,26.6638188 Z M23.714491,29.2206354 L23.7476349,29.2206354 C23.8967826,29.2206354 23.9630705,29.2825564 24.0956462,29.3005359 C23.9506402,29.3205097 23.876069,29.3644563 23.714491,29.3644563 C23.6005607,29.3644563 23.467985,29.2845558 23.3499077,29.2685757 C23.4493395,29.2625825 23.6233425,29.2226348 23.714491,29.2206354 Z M10.6891906,33.231667 C10.4716816,33.3934675 10.1402211,33.6491491 10.1257438,33.7110701 L10.1091718,33.7110701 C10.1236703,33.6871025 10.1257438,33.6671235 10.1754597,33.6151895 C10.2666081,33.5193089 10.4986157,33.3694947 10.6891906,33.231667 Z" id="Page-1"></path>
        </g>
    </g>
</svg>
