<?xml version="1.0" encoding="UTF-8"?>
<svg width="17px" height="17px" viewBox="0 0 17 17" version="1.1" xmlns="http://www.w3.org/2000/svg" xmlns:xlink="http://www.w3.org/1999/xlink">
    <!-- Generator: Sketch 45 (43475) - http://www.bohemiancoding.com/sketch -->
    <title>Shape</title>
    <desc>Created with Sketch.</desc>
    <defs></defs>
    <g id="Symbols" stroke="none" stroke-width="1" fill="none" fill-rule="evenodd">
        <g id="Qualification-Card-Admin---No-progress-Flip" transform="translate(-284.000000, -28.000000)" fill="#FFFFFF">
            <g id="Inner" transform="translate(15.000000, 23.000000)">
                <g id="Flip_icon-Copy-11" transform="translate(257.000000, 0.000000)">
                    <g id="Flip_icon" transform="translate(12.000000, 5.950083)">
                        <path d="M16.3420045,2.17285201 L16.3420045,13.7232758 C16.3420045,14.9240625 15.3617842,15.8961278 14.1509239,15.8961278 L6.65512173,15.8961278 C5.44426138,15.8961278 4.4640411,14.9240625 4.4640411,13.7232758 L4.4640411,11.8363254 L6.07852156,12.1794073 L6.07852156,13.6660955 C6.07852156,14.0091774 6.36682165,14.295079 6.71278175,14.295079 L14.0932639,14.295079 C14.439224,14.295079 14.7275241,14.0091774 14.7275241,13.6660955 L14.7275241,2.28721264 C14.7275241,1.94413074 14.439224,1.65822916 14.0932639,1.65822916 L6.71278175,1.65822916 C6.36682165,1.65822916 6.07852156,1.94413074 6.07852156,2.28721264 L6.07852156,6.57573634 L4.4640411,6.46137571 L4.4640411,5.03186781 C1.23508017,6.51855602 1.98466038,7.26190013 3.7721209,7.66216234 C4.00276097,7.71934266 4.23340103,7.77652298 4.4640411,7.77652298 C4.98298125,7.83370329 5.55958141,7.89088361 6.07852156,7.94806392 C6.42448166,8.00524424 6.77044176,8.00524424 7.11640186,8.00524424 C8.2696022,8.06242456 9.13450245,8.06242456 9.13450245,8.06242456 L9.13450245,6.28983476 C9.13450245,6.00393318 9.48046255,6.0611135 9.59578258,6.17547413 L12.9400635,8.46268677 L14.2662439,9.37757182 C14.381564,9.49193246 14.381564,9.6634734 14.2662439,9.83501435 L12.9400635,10.7498994 L11.3255831,11.8935057 L9.6534426,13.037112 C9.59578258,13.0942924 9.48046255,13.1514727 9.42280253,13.1514727 C9.36514251,13.1514727 9.19216246,13.1514727 9.19216246,12.9799317 L9.19216246,11.5504238 C8.32726221,11.3788829 7.52002198,11.2645223 6.77044176,11.0929813 C6.5398017,11.035801 6.36682165,10.9786207 6.13618158,10.9786207 C5.55958141,10.86426 4.98298125,10.6927191 4.52170112,10.5783585 C4.118081,10.4639978 3.7721209,10.3496372 3.4261608,10.2352766 C-4.8768816,7.31908045 4.52170112,3.88826149 4.52170112,3.88826149 L4.52170112,2.17285201 C4.52170112,0.972065372 5.5019214,0 6.71278175,0 L14.2085839,0 C15.3617842,-5.07863227e-16 16.3420045,0.972065372 16.3420045,2.17285201 L16.3420045,2.17285201 Z" id="Shape"></path>
                    </g>
                </g>
            </g>
        </g>
    </g>
</svg>