<?xml version="1.0" encoding="UTF-8"?>
<svg width="22px" height="20px" viewBox="0 0 22 20" version="1.1" xmlns="http://www.w3.org/2000/svg" xmlns:xlink="http://www.w3.org/1999/xlink">
    <!-- Generator: Sketch 53.2 (72643) - https://sketchapp.com -->
    <title>testicon</title>
    <desc>Created with Sketch.</desc>
    <g id="Symbols" stroke="none" stroke-width="1" fill="none" fill-rule="evenodd">
        <g id="Large-List-View-Row---Resting-learner" transform="translate(-991.000000, -31.000000)" fill="#6D6D6D">
            <g id="testicon" transform="translate(991.000000, 31.000000)">
                <path d="M21.6393443,19.1011236 L21.6393443,0.674157303 C21.6393443,0.301977528 21.3364385,1.77635684e-14 20.9631148,1.77635684e-14 L0.676229508,1.77635684e-14 C0.302905738,1.77635684e-14 1.43884904e-13,0.301977528 1.43884904e-13,0.674157303 L1.43884904e-13,19.1011236 C1.43884904e-13,19.4733034 0.302905738,19.7752809 0.676229508,19.7752809 L20.9631148,19.7752809 C21.3364385,19.7752809 21.6393443,19.4733034 21.6393443,19.1011236 Z M1.35245902,1.34831461 L20.2868852,1.34831461 L20.2868852,3.03370787 L1.35245902,3.03370787 L1.35245902,1.34831461 Z M1.35245902,18.4269663 L1.35245902,4.38202247 L20.2868852,4.38202247 L20.2868852,18.4269663 L1.35245902,18.4269663 Z" id="Fill-1"></path>
                <path d="M18.7090164,6.40449438 L10.8196721,6.40449438 C10.4463484,6.40449438 10.1434426,6.70647191 10.1434426,7.07865169 L10.1434426,9.1011236 C10.1434426,9.47330337 10.4463484,9.7752809 10.8196721,9.7752809 L18.7090164,9.7752809 C19.0823402,9.7752809 19.3852459,9.47330337 19.3852459,9.1011236 L19.3852459,7.07865169 C19.3852459,6.70647191 19.0823402,6.40449438 18.7090164,6.40449438 Z M18.0327869,8.42696629 L11.4959016,8.42696629 L11.4959016,7.75280899 L18.0327869,7.75280899 L18.0327869,8.42696629 Z" id="Fill-2"></path>
                <polygon id="Fill-3" points="5.225 8.5305618 3.19631148 6.92330337 2.35542008 7.98017978 5.40115779 10.3932135 8.9328791 6.30085393 7.90708402 5.42040449"></polygon>
                <path d="M18.7090164,12.6966292 L10.8196721,12.6966292 C10.4463484,12.6966292 10.1434426,12.9986067 10.1434426,13.3707865 L10.1434426,15.3932584 C10.1434426,15.7654382 10.4463484,16.0674157 10.8196721,16.0674157 L18.7090164,16.0674157 C19.0823402,16.0674157 19.3852459,15.7654382 19.3852459,15.3932584 L19.3852459,13.3707865 C19.3852459,12.9986067 19.0823402,12.6966292 18.7090164,12.6966292 Z M18.0327869,14.7191011 L11.4959016,14.7191011 L11.4959016,14.0449438 L18.0327869,14.0449438 L18.0327869,14.7191011 Z" id="Fill-4"></path>
                <polygon id="Fill-5" points="7.59608607 11.5862921 5.74790574 13.4296854 3.89972541 11.5862921 2.9434918 12.5395955 4.79255123 14.3821124 2.9434918 16.2246292 3.89972541 17.1779326 5.74790574 15.3345393 7.59608607 17.1779326 8.55231967 16.2246292 6.70326025 14.3821124 8.55231967 12.5395955"></polygon>
            </g>
        </g>
    </g>
</svg>