
<svg width="28px" height="18px" viewBox="0 0 28 18" version="1.1" xmlns="http://www.w3.org/2000/svg" xmlns:xlink="http://www.w3.org/1999/xlink">
    <g id="Super-Admin-Cards" stroke="none" stroke-width="1" fill="none" fill-rule="evenodd">
        <g id="Learner" transform="translate(-1016.000000, -78.000000)" stroke="#6A6A6A">
            <g id="Large-List-View-Row---Hover" transform="translate(23.000000, 44.000000)">
                <g id="icon_workbook-copy" transform="translate(993.000000, 34.000000)">
                    <path d="M13.9998984,14.1532361 C15.6655292,13.3715034 17.4124074,12.8786797 19.0812526,12.8497079 L18.0472167,3.56606145 C17.6138646,3.66977846 17.1752908,3.81938084 16.7411172,4.00437531 C16.4316812,4.13622105 16.1444944,4.27753838 15.8872016,4.41877042 C15.7329723,4.50342934 15.6234382,4.56895552 15.5716426,4.60213746 L13.9947229,5.63868912 L13.7195788,5.45614515 L12.4453172,4.60955122 C12.3657749,4.55932824 12.258277,4.49466338 12.1058114,4.4103895 C11.8489672,4.26842137 11.5628121,4.12659186 11.2543743,3.99423877 C10.376726,3.61763299 9.49929038,3.39308444 8.691,3.39308444 C7.72774168,3.39308444 6.49434923,3.71097878 5.26299383,4.17952061 L4.19562275,13.3823748 C5.80946389,13.0267325 7.33837912,12.8464178 8.75,12.8464178 C10.4859676,12.8464178 12.2736471,13.3433952 13.9998984,14.1532361 Z" id="Fill-1"></path>
                    <path d="M25.3800049,2.24 C25.3800049,2.24 22.1140049,0.559502222 19.3140049,0.559502222 C16.5130049,0.559502222 14.0050049,2.24 14.0050049,2.24 C14.0050049,2.24 11.4970049,0.559502222 8.69600488,0.559502222 C5.89600488,0.559502222 2.63000488,2.24 2.63000488,2.24 L0.880004883,17.3604978 C0.880004883,17.3604978 4.84500488,15.68 8.75500488,15.68 C11.3210049,15.68 14.0050049,17.3604978 14.0050049,17.3604978 C14.0050049,17.3604978 16.6890049,15.68 19.2550049,15.68 C23.1650049,15.68 27.1300049,17.3604978 27.1300049,17.3604978 L25.3800049,2.24 Z" id="Stroke-2"></path>
                </g>
            </g>
        </g>
    </g>
</svg>