<svg width="25px" height="25px" viewBox="0 0 25 25" version="1.1" xmlns="http://www.w3.org/2000/svg" xmlns:xlink="http://www.w3.org/1999/xlink">
    <!-- Generator: Sketch 51.3 (57544) - http://www.bohemiancoding.com/sketch -->
    <desc>Created with Sketch.</desc>
    <defs></defs>
    <g id="Symbols" stroke="none" stroke-width="1" fill="none" fill-rule="evenodd" opacity="0.5">
        <g id="qual-icons" transform="translate(-87.000000, -2.000000)" fill="#007FA3">
            <g id="Group-Copy" transform="translate(87.000000, 2.000000)">
                <g id="Sheild-Icon">
                    <g id="Page-1" transform="translate(0.403226, 0.320513)">
                        <path d="M12.0967716,24.1656202 L11.8318091,24.0591045 C1.10255774,19.7392944 0.371629195,6.12202316 0.345510682,5.54474704 L0.33789733,5.36076545 L0.490172161,5.22278004 C3.66513083,2.32626691 11.5882013,0.354511075 11.9246234,0.272087325 L12.0966976,0.229722756 L12.2687718,0.272087325 C12.6037827,0.354396426 20.5284592,2.32614296 23.703223,5.22278004 L23.8554978,5.36076545 L23.8478845,5.54474704 C23.821996,6.12211612 23.0925917,19.7392944 12.3615861,24.0591045 L12.0967716,24.1656202 Z M1.95390306,5.95716511 C2.0737298,7.51713737 3.24569444,18.9098026 12.0967716,22.6788212 C20.9478863,18.9095053 22.1199295,7.51829707 22.2396402,5.95716511 C19.5420704,3.64799818 13.2044703,1.93360767 12.0967716,1.64665675 C10.9905694,1.93356009 4.64851754,3.64918762 1.95390306,5.95716511 Z" id="Fill-1"></path>
                        <polygon id="Fill-2" stroke="#007FA3" stroke-linecap="round" stroke-linejoin="round" points="17.3387097 9.93589744 12.5 9.93589744 12.5 6.41025641 11.2903226 6.41025641 11.2903226 9.93589744 6.4516129 9.93589744 6.4516129 10.8974359 11.2903226 10.8974359 11.2903226 15.0641026 12.5 15.0641026 12.5 10.8974359 17.3387097 10.8974359"></polygon>
                    </g>
                </g>
            </g>
        </g>
    </g>
</svg>