<?xml version="1.0" encoding="UTF-8"?>
<svg width="64px" height="64px" viewBox="0 0 64 64" version="1.1" xmlns="http://www.w3.org/2000/svg" xmlns:xlink="http://www.w3.org/1999/xlink">
    <!-- Generator: Sketch 42 (36781) - http://www.bohemiancoding.com/sketch -->
    <title>Group 3</title>
    <desc>Created with Sketch.</desc>
    <defs>
        <polygon id="path-1" points="1.08420217e-19 49.9442 49.1146 49.9442 49.1146 0.8292 0 0.8292"></polygon>
    </defs>
    <g id="Page-1" stroke="none" stroke-width="1" fill="none" fill-rule="evenodd">
        <g id="Internal-Page" transform="translate(-185.000000, -5418.000000)">
            <g id="Group-3" transform="translate(185.000000, 5418.000000)">
                <circle id="Oval" fill="#FFFFFF" cx="32" cy="32" r="32"></circle>
                <path class="pin-3" d="M39.4347,37.2458 C38.6037,38.0828 37.7897,38.9058 36.9577,39.7438 C37.6317,40.3058 38.2807,40.8458 38.9287,41.3868 C40.3497,42.5718 45.6377,47.6238 47.0587,48.8088 C47.5727,49.2378 48.1447,49.2448 48.5677,48.8278 C48.9947,48.4078 48.9827,47.8118 48.5447,47.2948 C46.8857,45.3368 41.3597,39.5088 39.7017,37.5508 C39.6207,37.4558 39.5377,37.3628 39.4347,37.2458" id="Fill-1" fill="#005A70"></path>
                <path class="pin-3" d="M34.152,31.0877 C31.41,28.7347 28.667,26.3797 25.897,24.0027 L27.431,22.4697 C30.362,24.8627 33.271,27.2397 36.182,29.6167 C35.503,30.0477 34.823,30.5397 34.152,31.0877 M44.972,28.3797 C43.679,27.0867 41.27,27.1967 38.641,28.3107 C38.637,28.3087 38.632,28.3077 38.629,28.3047 C35.343,25.9147 32.064,23.5157 28.785,21.1167 L29.241,20.6597 C29.777,20.1237 29.777,19.2547 29.241,18.7187 L29.063,18.5407 C28.527,18.0057 27.659,18.0047 27.122,18.5407 L18.242,27.4207 C17.706,27.9567 17.707,28.8257 18.242,29.3617 L18.421,29.5397 C18.956,30.0757 19.825,30.0757 20.362,29.5397 L20.691,29.2087 C23.091,32.4447 25.486,35.6817 27.896,38.9097 C27.927,38.9517 27.952,38.9917 27.974,39.0317 C26.909,41.5957 26.854,43.8947 28.042,45.2267 C28.22,45.4047 28.675,45.8607 29.228,45.3067 L45.034,29.5017 C45.533,29.0017 45.121,28.5287 44.972,28.3797" id="Fill-3" fill="#005A70"></path>
                <g id="Group-7" transform="translate(7.000000, 5.171000)">
                    <mask id="mask-2" fill="white">
                        <use xlink:href="#path-1"></use>
                    </mask>
                    <g id="Clip-6"></g>
                    <path class="pin-3" d="M24.5576,46.6722 C12.8206,46.6722 3.2716,37.1242 3.2716,25.3862 C3.2716,13.6492 12.8206,4.1012 24.5576,4.1012 C36.2946,4.1012 45.8426,13.6492 45.8426,25.3862 C45.8426,30.6962 43.8846,35.5532 40.6586,39.2852 C41.4226,40.1232 42.0626,40.8372 42.4806,41.3312 C42.6086,41.4822 42.7146,41.6402 42.8026,41.8022 C46.7236,37.4492 49.1146,31.6922 49.1146,25.3862 C49.1146,11.8462 38.0976,0.8292 24.5576,0.8292 C11.0166,0.8292 -0.0004,11.8462 -0.0004,25.3862 C-0.0004,38.9272 11.0166,49.9442 24.5576,49.9442 C30.2096,49.9442 35.4186,48.0192 39.5736,44.7972 C39.4716,44.7322 39.3706,44.6612 39.2726,44.5792 C38.8186,44.2012 38.0196,43.4742 37.0656,42.5942 C33.5516,45.1562 29.2286,46.6722 24.5576,46.6722 Z" id="Fill-5" fill="#005A70" mask="url(#mask-2)"></path>
                </g>
            </g>
        </g>
    </g>
</svg>