<svg width="61px" height="61px" viewBox="0 0 61 61" version="1.1" xmlns="http://www.w3.org/2000/svg" xmlns:xlink="http://www.w3.org/1999/xlink">
    <!-- Generator: Sketch 46.2 (44496) - http://www.bohemiancoding.com/sketch -->
    <desc>Created with Sketch.</desc>
    <defs></defs>
    <g id="Page-1" stroke="none" stroke-width="1" fill="none" fill-rule="evenodd">
        <g id="7.-Payment---Confirmation-&gt;-Go-to-Profile." transform="translate(-690.000000, -360.000000)">
            <g id="Circle+Tick" transform="translate(691.000000, 361.000000)">
                <g id="Group-2" stroke="#029C86">
                    <circle id="Oval" stroke-width="1.5" cx="29.5" cy="29.5" r="29.5"></circle>
                </g>
                <g id="logo_transparent" transform="translate(13.000000, 5.000000)" fill="#029C86">
                    <g id="Page-1">
                        <g id="Layer_1">
                            <g id="Group">
                                <path d="M6.77164699,31.3447345 C6.73118787,32.1268446 6.54912182,32.8889007 6.50866269,33.691065 C6.36705576,36.4384777 6.9739426,38.9853493 8.4911597,41.2915717 C8.57207794,41.4118963 8.65299619,41.5121668 8.79460312,41.6926538 C8.81483268,40.5295156 8.97666917,39.486702 9.82631074,38.7045918 C10.6759523,37.9024275 11.7278895,37.8823734 12.8809745,37.982644 C11.3435278,38.9652952 11.1614618,40.4492992 11.2221505,41.9934654 C11.3232983,44.3197419 12.1324807,46.405369 13.5890091,48.2302928 C13.6699274,48.3305633 13.7710752,48.4308338 13.8519934,48.5311044 C13.8924526,48.5712126 13.9329117,48.6113208 14.0138299,48.6714831 C13.7913048,48.0096976 13.54855,47.4080744 13.3867135,46.786397 C12.7393676,44.5202829 12.8809745,42.2541688 13.4069431,39.9880547 C13.8115343,38.2634015 14.377962,36.5588024 14.7420941,34.8341491 C15.0657671,33.2298205 15.1871445,31.625492 14.9039306,29.940947 C16.0974747,30.1815962 17.2707893,30.2417586 18.4643334,29.940947 C18.5047925,30.9837605 18.342956,31.9463577 18.1002013,32.8889007 C17.6349214,34.7338786 16.8459685,36.4384777 16.1379339,38.2032391 C15.4096697,39.9880547 14.7825533,41.7929243 14.6004872,43.7181186 C14.4386507,45.462826 14.6409463,47.1674251 15.2478332,48.8720242 C15.3085218,48.4308338 15.3287514,48.0498058 15.3894401,47.6888319 C15.6119653,46.5658019 16.2593112,45.6834211 17.1291824,44.9614733 C17.8574466,44.339796 18.6059403,43.7381727 19.1925976,42.9761167 C19.6983366,42.3343852 20.1838461,41.6725997 20.4266008,40.8704354 C20.6693556,40.0081088 20.4468304,39.2861609 19.7387958,38.7246459 C19.4555819,38.5040508 19.1521385,38.363672 18.8284655,38.183185 C20.1029279,37.5213995 21.9640475,38.2433474 22.5709343,39.6070267 C22.9957551,40.5896779 22.955296,41.5923833 22.77323,42.6151427 C22.7530004,42.7755756 22.6518526,42.9360085 22.7327708,43.1164954 C22.7125413,43.1164954 22.6923117,43.1164954 22.6720822,43.1365495 C22.6720822,43.1365495 22.6923117,43.1566036 22.6923117,43.1365495 L22.7125413,43.1164954 C23.9060854,42.3744935 24.755727,41.2915717 25.3626138,40.048217 C26.2527145,38.2032391 26.4954692,36.2379366 26.414551,34.2325259 C26.3538623,33.0092254 26.1920258,31.7859248 25.8885824,30.5826784 C25.8683528,30.502462 25.8278937,30.4021914 25.8885824,30.3019209 L25.8885824,30.3019209 C27.243963,31.8661413 28.073375,33.6509568 28.4981958,35.6563675 C29.5299034,40.7300567 27.243963,45.9441245 22.6720822,48.3506174 C18.5047925,50.5565692 14.2363551,50.7170021 10.1499837,48.0698599 C7.29761558,46.2048279 5.63879156,43.4975235 5.05213428,40.1885958 C4.50593613,37.1403715 5.11282297,34.2926882 6.58958094,31.5853838 C6.65026962,31.5051673 6.67049918,31.3848427 6.77164699,31.3447345 L6.77164699,31.3447345 L6.77164699,31.3447345 L6.77164699,31.3447345 Z" id="Shape"></path>
                                <path d="M20.8311921,11.992521 C20.9121103,12.1128456 20.9323399,12.2532244 21.0739468,12.3133867 C21.1144059,12.4938736 21.2155537,12.6342524 21.3369311,12.754577 C21.9438179,13.7372283 22.4900161,14.7399337 23.1980507,15.6624226 C25.1198591,18.169186 25.5649094,20.9366528 24.3915949,23.8444984 C23.1980507,26.772398 20.9525694,28.4970512 17.7967579,28.9382416 C14.3172733,29.4395943 11.0198549,27.7349952 9.34080127,24.6667167 C7.72243637,21.6987089 8.16748672,18.0087531 10.3725089,15.3816651 C11.0400844,14.5795008 11.5053643,13.6369578 12.0313329,12.7345229 C12.1527103,12.6141983 12.2336285,12.4738195 12.3145468,12.3133867 C12.395465,12.193062 12.4561537,12.0727374 12.537072,11.9724669 C12.7393676,11.7318176 12.9012041,11.4711142 13.042811,11.1903567 C13.1844179,10.9697615 13.3260248,10.7692204 13.4676318,10.5486252 C13.54855,10.4483547 13.6294683,10.3280301 13.7306161,10.2077054 C14.0138299,10.6488958 14.2970438,11.070032 14.5600281,11.4911683 L14.5600281,11.4911683 C14.5802576,11.5312765 14.6004872,11.5713847 14.6207168,11.5914388 C14.6814054,11.7719258 14.8027828,11.9123045 14.9443897,12.0727374 C15.1062262,11.9724669 15.1669149,11.812034 15.2276036,11.6516011 C15.4298992,11.3507895 15.6321948,11.0299238 15.8344904,10.7291122 C15.9963269,10.4884629 16.1379339,10.2678677 16.2997703,10.0272185 C16.4616068,9.8667856 16.5222955,9.62613631 16.7245911,9.48575756 C16.8661981,9.66624453 16.9875754,9.84673149 17.1089528,10.0071643 C17.2505597,10.2277595 17.3719371,10.4884629 17.5742327,10.6689499 C17.7765283,10.9898156 17.9788239,11.3106813 18.1811195,11.631547 C18.2620378,11.7719258 18.342956,11.8922504 18.4238743,12.0526833 C18.6261699,11.9123045 18.7070881,11.7318176 18.7880064,11.5513306 C19.0712202,11.1101402 19.3544341,10.6689499 19.6578775,10.1876513 C19.7590253,10.307976 19.8399436,10.4082465 19.9208618,10.508517 C20.0220096,10.7291122 20.1636166,10.9497074 20.325453,11.1301944 C20.4872895,11.431006 20.6693556,11.7117635 20.8311921,11.992521 L20.8311921,11.992521 L20.8311921,11.992521 Z M14.7218646,13.5968495 C14.6207168,13.7372283 14.5397985,13.8575529 14.4791098,13.9578235 C13.6699274,15.1410158 12.9416632,16.3843705 12.1324807,17.5675628 C10.9389366,19.292216 10.8175592,21.1773021 11.7683486,23.0423341 C12.719138,24.907366 14.2970438,25.9501796 16.4009182,26.0504502 C18.7070881,26.1507207 20.4872895,25.1680694 21.5594563,23.1626587 C22.631623,21.1973562 22.449557,19.2119996 21.1346355,17.3670217 C20.8514216,16.9659396 20.5682078,16.5648574 20.3052235,16.1437212 C19.7792549,15.3014487 19.2330567,14.4391221 18.666629,13.5767954 C18.3631856,14.0179858 18.1811195,14.4591762 17.837217,14.8201501 C17.4528553,14.238581 17.0887232,13.677066 16.684132,13.0754428 C16.2795408,13.677066 15.9154087,14.238581 15.531047,14.8201501 C15.207374,14.4591762 15.025308,14.0380399 14.7218646,13.5968495 L14.7218646,13.5968495 L14.7218646,13.5968495 Z" id="Shape"></path>
                                <path d="M30.561611,48.7516996 C28.5184254,48.3305633 26.6775353,48.6915372 24.8771043,49.5137556 C24.0881514,49.8747296 23.278969,50.1955953 22.3888683,50.0351624 C22.1865727,49.9950542 21.9842771,49.954946 21.7415223,49.8145672 C23.0766734,49.1928899 24.2297584,48.3506174 25.2816956,47.3880203 C25.908812,46.8064512 26.4954692,46.2048279 27.1428152,45.663367 C28.2554411,44.7007699 29.4692147,43.9186597 30.9257432,43.5777399 C31.6944665,43.3972529 32.4834194,43.3771988 33.2926018,43.5376317 C33.2116836,43.6980645 33.0498471,43.6980645 32.9284697,43.7582269 C31.9979099,44.1793631 31.0673501,44.6004994 30.2581676,45.2622849 C29.3276078,46.0443951 29.2466896,46.7061806 29.9142651,47.708886 C30.1367903,48.0096976 30.3997746,48.3105092 30.561611,48.7516996 L30.561611,48.7516996 L30.561611,48.7516996 Z" id="Shape"></path>
                                <path d="M0.298187382,43.5175776 C1.99747053,43.1766577 3.49445806,43.6579563 4.89029779,44.5002288 C5.63879156,44.9614733 6.3468262,45.4828801 6.9739426,46.1045574 C8.43047101,47.528399 9.90722899,48.9121324 11.8088077,49.7945131 C11.3637574,50.0953247 10.7164114,50.1554871 10.0488359,49.9950542 C9.54309688,49.8747296 9.05758741,49.6741885 8.57207794,49.4535933 C6.81210611,48.6714831 5.01167516,48.3506174 3.04940772,48.7516996 C3.08986684,48.5110503 3.21124421,48.3706715 3.31239201,48.2102387 C3.45399894,47.9896435 3.61583543,47.7891024 3.75744236,47.5885613 C4.30364051,46.7462888 4.24295183,46.1246115 3.51468762,45.4427719 C2.70550517,44.6807158 1.71425667,44.2395254 0.723008169,43.778281 C0.601630801,43.6980645 0.439794311,43.6780104 0.298187382,43.5175776 L0.298187382,43.5175776 L0.298187382,43.5175776 Z" id="Shape"></path>
                                <path d="M15.8344904,10.7291122 C15.6321948,11.0299238 15.4298992,11.3507895 15.2276036,11.6516011 C14.7218646,9.20500006 14.1149777,6.77845308 13.3260248,4.41206843 C13.0225814,3.46952538 12.6584493,2.54703645 12.3347763,1.62454752 C12.1527103,1.12319484 12.1931694,1.00287019 12.6989084,0.782275013 C12.9416632,0.682004477 13.1641884,0.581733941 13.4271726,0.521571619 C13.8519934,0.381192868 14.0340595,0.481463404 14.1352073,0.902599657 C14.5397985,2.56709056 14.8634715,4.25163557 15.1669149,5.93618058 C15.4096697,7.52045505 15.6119653,9.12478363 15.8344904,10.7291122 L15.8344904,10.7291122 L15.8344904,10.7291122 Z" id="Shape"></path>
                                <path d="M18.16089,11.6716553 C17.9585944,11.3507895 17.7562988,11.0299238 17.5540031,10.7090581 C17.7765283,9.22505417 17.9788239,7.74105023 18.2013491,6.25704629 C18.484563,4.45217664 18.8486951,2.6874152 19.2735159,0.902599657 C19.3746637,0.501517512 19.5567297,0.401246975 19.9613209,0.521571619 C20.2243052,0.601788048 20.5075191,0.702058584 20.7502738,0.822383228 C21.1750946,1.00287019 21.2155537,1.14324894 21.0537172,1.5844393 C20.4063713,3.32914663 19.7994845,5.09390807 19.2937454,6.87872362 C18.8689246,8.44294398 18.5047925,10.0472726 18.16089,11.6716553 L18.16089,11.6716553 L18.16089,11.6716553 Z" id="Shape"></path>
                                <path d="M17.1089528,10.0272185 C16.9875754,9.8667856 16.8661981,9.68629863 16.7245911,9.50581167 C16.5222955,9.64619042 16.4616068,9.88683971 16.2997703,10.0472726 C16.178393,7.82126666 16.0772452,5.59526075 15.9356382,3.34920074 C15.8749496,2.44676592 15.8142609,1.54433109 15.7333426,0.621842155 C15.6928835,0.160597688 15.8344904,0.000164830424 16.2795408,0.000164830424 L17.1696415,0.000164830424 C17.5944623,0.0202189377 17.7158396,0.160597688 17.6956101,0.581733941 C17.6146918,1.78498038 17.513544,2.98822681 17.4326258,4.19147325 C17.3112484,6.07655933 17.2101006,7.96164541 17.1089528,9.84673149 C17.1291824,9.88683971 17.1089528,9.96705613 17.1089528,10.0272185 L17.1089528,10.0272185 L17.1089528,10.0272185 Z" id="Shape"></path>
                                <path d="M19.9208618,10.5285711 C19.8399436,10.4283006 19.7590253,10.3280301 19.6578775,10.2077054 C19.3544341,10.6689499 19.0712202,11.1301944 18.7880064,11.5713847 C19.0712202,10.2678677 19.5162706,9.02451309 19.9613209,7.78115844 C20.649126,5.85596415 21.4380789,3.97087807 22.3484092,2.1259002 C22.5709343,1.68470984 22.7530004,1.64460163 23.1778212,1.90530502 C24.2297584,2.58714467 24.2499879,2.62725288 23.5824124,3.65001235 C22.2270318,5.75569361 21.0537172,7.9415913 20.0826983,10.2478136 C20.0220096,10.3480842 19.9613209,10.4483547 19.9208618,10.5285711 L19.9208618,10.5285711 L19.9208618,10.5285711 Z" id="Shape"></path>
                                <path d="M14.5600281,11.4911683 C14.2768142,11.070032 14.0138299,10.6488958 13.7306161,10.2077054 C13.6294683,10.3280301 13.54855,10.4483547 13.4676318,10.5486252 C12.3550059,7.9415913 11.0400844,5.4348279 9.46217864,3.08849735 C9.30034215,2.84784806 9.30034215,2.60719877 9.54309688,2.4066577 C9.76562206,2.22617074 10.0083768,2.02562966 10.2511315,1.8651968 C10.6354932,1.60449341 10.8377888,1.68470984 11.0400844,2.10584609 C11.8694964,3.77033699 12.5977606,5.49499022 13.2451066,7.23969755 C13.7103865,8.50310631 14.1149777,9.76651506 14.4791098,11.0499779 C14.5397985,11.2104108 14.6004872,11.3507895 14.5600281,11.4911683 L14.5600281,11.4911683 L14.5600281,11.4911683 Z" id="Shape"></path>
                                <path d="M13.0630405,11.1903567 C12.9214336,11.4711142 12.7595971,11.7318176 12.5573015,11.9724669 C11.1210027,9.46570345 9.38126039,7.17953523 7.35830427,5.11396218 C7.15600865,4.893367 7.13577909,4.69282593 7.31784514,4.47223075 C7.47968163,4.25163557 7.64151812,4.01098628 7.84381374,3.81044521 C8.14725716,3.46952538 8.36978233,3.48957949 8.65299619,3.85055342 C9.68470381,5.21423272 10.6354932,6.61802022 11.4851348,8.10202416 C12.0515625,9.12478363 12.5775311,10.1475431 13.0630405,11.1903567 L13.0630405,11.1903567 L13.0630405,11.1903567 Z" id="Shape"></path>
                                <path d="M20.8311921,11.992521 C20.649126,11.7117635 20.4872895,11.431006 20.3052235,11.1502485 C21.0941764,9.5860281 21.8831293,8.04186184 22.8339186,6.57791201 C23.4205759,5.67547718 24.0274628,4.79309646 24.6748087,3.93076985 C25.0389408,3.44947128 25.261466,3.42941717 25.6458277,3.89066164 C26.3538623,4.73293414 26.3538623,4.73293414 25.6255981,5.51504432 C23.784708,7.50040094 22.1865727,9.64619042 20.8311921,11.992521 L20.8311921,11.992521 L20.8311921,11.992521 Z" id="Shape"></path>
                                <path d="M12.3145468,12.3334408 C12.2538581,12.4938736 12.1729398,12.6342524 12.0313329,12.754577 C10.9187071,11.4109519 9.68470381,10.1675972 8.34955277,9.02451309 C8.06633891,8.78386381 8.1270276,8.44294398 8.4911597,8.10202416 C8.77437356,7.84132077 8.93621005,8.02180773 9.1182761,8.2223488 C10.3320498,9.50581167 11.383987,10.869491 12.3145468,12.3334408 L12.3145468,12.3334408 L12.3145468,12.3334408 Z" id="Shape"></path>
                                <path d="M21.3571607,12.7746311 C21.2357833,12.6543065 21.1346355,12.5139278 21.0941764,12.3334408 C22.0045066,10.8895451 23.0362143,9.56597399 24.1892992,8.32261934 C24.3713653,8.12207827 24.5332018,7.80121255 24.8771043,8.12207827 C25.2210069,8.42288988 25.2210069,8.84402613 24.9175635,9.12478363 C23.7442489,10.127489 22.6518526,11.2104108 21.7010632,12.3936031 C21.5594563,12.4938736 21.4583085,12.6342524 21.3571607,12.7746311 L21.3571607,12.7746311 L21.3571607,12.7746311 Z" id="Shape"></path>
                                <path d="M6.77164699,31.4359573 C6.77164699,31.3755152 6.80211243,31.315073 6.80211243,31.2244098 C6.86304333,31.3452941 6.92397422,31.4359573 6.77164699,31.4359573 C6.77164699,31.4057363 6.77164699,31.4359573 6.77164699,31.4359573 L6.77164699,31.4359573 L6.77164699,31.4359573 Z" id="Shape"></path>
                                <path d="M14.6514244,11.6422737 C14.620959,11.5818315 14.5904935,11.5213894 14.5600281,11.4911683 C14.6514244,11.4911683 14.6514244,11.5818315 14.6514244,11.6422737 L14.6514244,11.6422737 L14.6514244,11.6422737 Z" id="Shape"></path>
                                <path d="M25.9597492,30.3065968 L25.8683528,30.3065968 L25.8988183,30.3065968 C25.9292837,30.2760219 25.9292837,30.3065968 25.9597492,30.3065968 L25.9597492,30.3065968 L25.9597492,30.3065968 L25.9597492,30.3065968 Z" id="Shape"></path>
                            </g>
                        </g>
                    </g>
                </g>
            </g>
        </g>
    </g>
</svg>