
<svg width="20px" height="16px" viewBox="0 0 20 16" version="1.1" xmlns="http://www.w3.org/2000/svg" xmlns:xlink="http://www.w3.org/1999/xlink">
    <g id="Page-1" stroke="none" stroke-width="1" fill="none" fill-rule="evenodd">
        <g id="1.-SuperAdmin---Videos-with-categories" transform="translate(-15.000000, -204.000000)" fill="#000000">
            <path d="M16.3953488,204 C15.625,204 15,204.589364 15,205.315789 C15,206.042215 15.625,206.631579 16.3953488,206.631579 L33.6046512,206.631579 C34.375,206.631579 35,206.042215 35,205.315789 C35,204.589364 34.375,204 33.6046512,204 L16.3953488,204 Z M16.3953488,210.842105 C15.625,210.842105 15,211.431469 15,212.157895 C15,212.88432 15.625,213.473684 16.3953488,213.473684 L33.6046512,213.473684 C34.375,213.473684 35,212.88432 35,212.157895 C35,211.431469 34.375,210.842105 33.6046512,210.842105 L16.3953488,210.842105 Z M16.3953488,217.157895 C15.625,217.157895 15,217.747259 15,218.473684 C15,219.20011 15.625,219.789474 16.3953488,219.789474 L33.6046512,219.789474 C34.375,219.789474 35,219.20011 35,218.473684 C35,217.747259 34.375,217.157895 33.6046512,217.157895 L16.3953488,217.157895 Z" id="Fill-1"></path>
        </g>
    </g>
</svg>