<?xml version="1.0" encoding="UTF-8" standalone="no"?>
<svg width="31px" height="24px" viewBox="0 0 31 24" version="1.1" xmlns="http://www.w3.org/2000/svg" xmlns:xlink="http://www.w3.org/1999/xlink">
    <!-- Generator: sketchtool 40.3 (33839) - http://www.bohemiancoding.com/sketch -->
    <title>82F72AAC-8F09-465D-84C5-590041542514</title>
    <desc>Created with sketchtool.</desc>
    <defs></defs>
    <g id="Header-and-Footer-Interaction" stroke="none" stroke-width="1" fill="none" fill-rule="evenodd">
        <g id="Header---Bookmarked" transform="translate(-1141.000000, -29.000000)">
            <g id="header">
                <g id="Icon-2" transform="translate(1142.000000, 30.000000)">
                    <path d="M22.2110233,11.9336074 C21.888907,11.9336074 21.627907,12.1944719 21.627907,12.5166793 C21.627907,12.6062861 21.6496744,12.6900307 21.686093,12.7662383 L21.6804419,12.7687506 C22.0423256,13.5389917 22.2472326,14.3965365 22.2472326,15.3024439 C22.2472326,16.2083512 22.0423256,17.0661055 21.6804419,17.8363465 L21.686093,17.8390682 C21.6496744,17.9150665 21.627907,17.9992298 21.627907,18.0888365 C21.627907,18.4108346 21.888907,18.6716991 22.2110233,18.6716991 C22.4646977,18.6716991 22.6783953,18.5086064 22.7583488,18.2822866 C23.1765349,17.374495 23.4130465,16.3664192 23.4130465,15.3028626 C23.4130465,14.239306 23.1765349,13.2310209 22.7583488,12.3234386 C22.6786047,12.0962814 22.4646977,11.9336074 22.2110233,11.9336074 L22.2110233,11.9336074 Z" id="Shape" fill="#000000"></path>
                    <path d="M25.1408372,10.8867998 C24.8189302,10.8867998 24.5581395,11.148083 24.5581395,11.4698716 C24.5581395,11.5588503 24.5794884,11.6417575 24.6148605,11.7175463 L24.6119302,11.7188025 C25.1431395,12.8246501 25.4462093,14.0600925 25.4577209,15.3642055 C25.4462093,16.6683185 25.1431395,17.903761 24.6119302,19.0098179 L24.6148605,19.0110741 C24.5792791,19.0862349 24.5581395,19.1697701 24.5581395,19.2583301 C24.5581395,19.5803281 24.8189302,19.8414019 25.1408372,19.8414019 C25.3867674,19.8414019 25.5960698,19.6889868 25.6816744,19.4733444 C26.2746279,18.2249215 26.6122326,16.8332954 26.6237442,15.3644149 C26.6122326,13.8955344 26.2746279,12.5039083 25.6816744,11.2556948 C25.5960698,11.0394243 25.3867674,10.8867998 25.1408372,10.8867998 L25.1408372,10.8867998 Z" id="Shape" fill="#000000"></path>
                    <path d="M28.8228837,10.0051784 C28.8166047,9.98822007 28.8088605,9.97230859 28.8011163,9.95639712 L28.8011163,9.95639712 C28.7056744,9.76420323 28.5095581,9.63063057 28.2805814,9.63063057 C27.9584651,9.63063057 27.6976744,9.8917044 27.6976744,10.2137024 C27.6976744,10.2984939 27.7167209,10.37847 27.7491628,10.4513278 L27.7464419,10.452584 C28.4304419,11.9059717 28.8145116,13.5274768 28.8145116,15.2375418 C28.8145116,16.9478162 28.4304419,18.5691119 27.7464419,20.0224997 L27.7491628,20.0237558 C27.7167209,20.0966137 27.6976744,20.1763804 27.6976744,20.2613812 C27.6976744,20.5835886 27.9584651,20.8444531 28.2805814,20.8444531 C28.5097674,20.8444531 28.7056744,20.7108804 28.8011163,20.5188959 L28.8011163,20.5186865 C28.8088605,20.5025657 28.8166047,20.4866542 28.8228837,20.4699053 C29.5644419,18.8783389 29.9803256,17.1060935 29.9803256,15.2377512 C29.9805349,13.3691995 29.5642326,11.5967447 28.8228837,10.0051784 L28.8228837,10.0051784 Z" id="Shape" fill="#000000"></path>
                    <path d="M15.8839535,8.08156458 C15.8839535,8.08156458 15.7129535,6.35014469 15.5566047,5.68709671 C14.8656977,2.70557911 11.542814,0 7.93904651,0 C3.5552093,0 0,3.5568431 0,7.94568894 C0,10.4802197 1.18674419,12.7392306 3.03488372,14.1934558 L3.03488372,20.9394171 C3.03488372,21.4896681 3.49047276,21.9357347 4.04021756,21.9357347 L10.5033638,21.9357347 C11.0585944,21.9357347 11.5086977,21.4871227 11.5086977,20.9431955 L11.5086977,19.496749 C11.5086977,18.9485848 11.9579194,18.5042098 12.513086,18.5042098 L12.753,18.5042098 C14.4818372,18.5042098 15.8839535,17.1014876 15.8839535,15.3704864 L15.8839535,13.1502073 L16.9486744,13.1502073 C17.302186,13.1502073 17.5910233,12.8623352 17.5910233,12.5097704 C17.5914419,12.4210011 17.5753256,12.3360003 17.5435116,12.2606302 L15.8839535,8.08156458 Z" id="Shape" stroke="#000000" stroke-width="2"></path>
                    <circle id="Oval-3" fill="#000000" cx="11.5" cy="8.5" r="1.5"></circle>
                </g>
            </g>
        </g>
    </g>
</svg>