<svg width="17px" height="14px" viewBox="0 0 17 14" version="1.1" xmlns="http://www.w3.org/2000/svg" xmlns:xlink="http://www.w3.org/1999/xlink">
    <desc>Created with Sketch.</desc>
    <defs></defs>
    <g id="Symbols" stroke="none" stroke-width="1" fill="none" fill-rule="evenodd">
        <g id="Question-Copy-7" transform="translate(-91.000000, -55.000000)" fill="#F5A623">
            <g id="Group-8" transform="translate(-1.000000, 0.000000)">
                <g id="Group-4">
                    <g id="Page-1" transform="translate(92.000000, 55.000000)">
                        <path d="M3.2389627,10 L0.743178161,10 C0.335980525,10 0,10.3360387 0,10.7433068 L0,13.2566932 C0,13.6639613 0.335980525,14 0.743178161,14 L3.25612984,14 C3.66332748,14 3.999308,13.6639613 3.999308,13.2566932 L4,10.7433068 C3.98202582,10.3360387 3.64603822,10 3.23884058,10 L3.2389627,10 Z" id="Fill-1"></path>
                        <path d="M16.2389627,10 L13.7431782,10 C13.3359805,10 13,10.3360387 13,10.7433068 L13,13.2566932 C13,13.6639613 13.3359805,14 13.7431782,14 L16.2561298,14 C16.6633275,14 16.999308,13.6639613 16.999308,13.2566932 L17,10.7433068 C16.9820258,10.3360387 16.6460382,10 16.2388406,10 L16.2389627,10 Z" id="Fill-2"></path>
                        <path d="M10.2568378,10 L7.74317816,10 C7.33598053,10 7,10.3360387 7,10.7433068 L7,13.2566932 C7,13.6639613 7.33598053,14 7.74317816,14 L10.2561298,14 C10.6633275,14 10.999308,13.6639613 10.999308,13.2566932 L11,10.7433068 C10.9820258,10.3360387 10.6633292,10 10.2568218,10 L10.2568378,10 Z M10.2568378,13.2394877 L7.74388608,13.2394877 L7.74388608,10.7261012 L10.2568378,10.7261012 L10.2568378,13.2394877 Z" id="Fill-3"></path>
                        <path d="M16.0373276,7.39242982 L17,2.62050823 L15.2671897,3.207268 C14.6128806,2.30725675 13.7652668,1.56465359 12.7838801,1.01689379 C11.5903203,0.352212329 10.222979,0 8.81728478,0 C4.5048976,0 1,3.32497201 1,7.39336864 C1,7.72570937 1.26924021,8 1.59716493,8 C1.92431951,8 2.19432986,7.72649171 2.19432986,7.39336864 C2.19432986,3.98977082 5.15897572,1.2118545 8.81713075,1.2118545 C10.8770571,1.2118545 12.8024019,2.11186575 14.053876,3.5978153 L12.4368944,4.16546625 L16.0373276,7.39242982 Z" id="Fill-4"></path>
                    </g>
                </g>
            </g>
        </g>
    </g>
</svg>