
<svg width="44px" height="34px" viewBox="0 0 44 34" version="1.1" xmlns="http://www.w3.org/2000/svg" xmlns:xlink="http://www.w3.org/1999/xlink">
    <!-- Generator: Sketch 48.2 (47327) - http://www.bohemiancoding.com/sketch -->
    <desc>Created with Sketch.</desc>
    <defs></defs>
    <g id="Symbols" stroke="none" stroke-width="1" fill="none" fill-rule="evenodd">
        <g class="fillable" transform="translate(-87.000000, -16.000000)">
            <g id="Group-26">
                <g id="Page-1" transform="translate(87.000000, 16.000000)">
                    <path d="M22.5001049,28.3564066 C22.0493674,28.3564066 21.61298,28.2216348 21.2380735,27.9686837 L11,21 L11,28.4994692 C11.4445904,29.1484607 15.0135661,34 22.5,34 C30.0028505,34 33.5594272,29.1462314 34,28.4994692 L34,21 L23.760353,27.9665605 C23.387471,28.221587 22.9510627,28.3563588 22.5003671,28.3563588 L22.5001049,28.3564066 Z" id="Fill-1"></path>
                    <path d="M43.0936177,10.56701 L22.7522629,0 L21.2473098,0 L0.905954896,10.56701 C0.376139205,10.8428248 0.0401160453,11.3670951 0.00301469751,11.9734652 C-0.0320283963,12.5798354 0.240093893,13.1441099 0.732797681,13.4830843 L9.81391989,19.7192641 L9.81391989,19.7171566 L21.0762636,27.4528224 C21.6246563,27.8296989 22.3770801,27.8296989 22.9254729,27.4528224 L34.1878166,19.7171566 L34.1878166,19.7192641 L38.1562886,16.9927007 L38.1562886,24.4480887 C38.0738265,24.5344142 37.9975497,24.6228418 37.9253947,24.715479 C37.7274857,24.9744503 37.5666833,25.2523672 37.4388657,25.5450472 C37.3110481,25.8355982 37.2162154,26.1451111 37.1605581,26.469317 C37.1090226,26.7956627 37.0842813,27.1346532 37.1584998,27.5178253 C37.4883482,27.3178094 37.7171839,27.0714722 37.9192094,26.8124955 C38.0222857,26.6756391 38.1150549,26.5345786 38.197517,26.3914052 C38.2160677,26.5514222 38.2366872,26.7114338 38.269672,26.8714509 C38.3521341,27.24622 38.4634593,27.6230803 38.684046,28 C38.9046328,27.6252309 39.015958,27.2483705 39.0984201,26.8714509 C39.1314049,26.7051222 39.1540826,26.5408956 39.1746968,26.376669 C39.2571589,26.5198371 39.3478646,26.6588009 39.4509462,26.7935498 C39.6550406,27.0525211 39.8818127,27.2988583 40.2116558,27.5009816 C40.2858743,27.115686 40.261133,26.7766793 40.2095922,26.4503713 C40.1539297,26.1261331 40.0590969,25.8187223 39.9312846,25.5261015 C39.8034671,25.2334431 39.6426699,24.9555207 39.4447609,24.6965333 C39.3726059,24.6038907 39.2942656,24.5154631 39.213867,24.429143 L39.2097452,16.2703656 L43.2668805,13.4827339 C43.7595896,13.1437542 44.0337648,12.579485 43.9966635,11.9731149 C43.9616151,11.3667448 43.6235232,10.8424637 43.0937233,10.5666596 L43.0936177,10.56701 Z" id="Fill-2"></path>
                </g>
            </g>
        </g>
    </g>
</svg>