<svg fill="#c9c9c9" id="planner_filled_copy_3" data-name="planner_filled copy 3" xmlns="http://www.w3.org/2000/svg" viewBox="0 0 16.727 16">
  <path id="Fill_1" data-name="Fill 1" d="M.364,2.909h.727a.344.344,0,0,0,.364-.364V.364A.344.344,0,0,0,1.091,0H.364A.343.343,0,0,0,0,.364V2.545a.343.343,0,0,0,.364.364Z" transform="translate(12.364)"/>
  <path id="Fill_2" data-name="Fill 2" d="M.364,2.909h.727a.343.343,0,0,0,.364-.364V.364A.343.343,0,0,0,1.091,0H.364A.344.344,0,0,0,0,.364V2.545a.344.344,0,0,0,.364.364Z" transform="translate(2.909)"/>
  <path id="Fill_3" data-name="Fill 3" d="M16.727.727A.72.72,0,0,0,15.968,0H14.449V1.091A1.092,1.092,0,0,1,13.31,2.182H12.55a1.091,1.091,0,0,1-1.139-1.091V0H5.336V1.091A1.092,1.092,0,0,1,4.2,2.182H3.437A1.091,1.091,0,0,1,2.3,1.091V0H.759A.719.719,0,0,0,0,.727V3.636H16.727Z" transform="translate(0 1.455)"/>
  <path id="Fill_4" data-name="Fill 4" d="M0,0V9.4a.747.747,0,0,0,.759.783H15.968a.748.748,0,0,0,.759-.783V0Z" transform="translate(0 5.818)"/>
</svg>
