<?xml version="1.0" encoding="UTF-8" standalone="no"?>
<svg width="19px" height="23px" viewBox="0 0 19 23" version="1.1" xmlns="http://www.w3.org/2000/svg" xmlns:xlink="http://www.w3.org/1999/xlink">
    <!-- Generator: Sketch 40.3 (33839) - http://www.bohemiancoding.com/sketch -->
    <title>News_icon</title>
    <desc>Created with Sketch.</desc>
    <defs></defs>
    <g id="UI-Style-Guide-Kit" stroke="none" stroke-width="1" fill="none" fill-rule="evenodd">
        <g id="News_icon">
            <g id="Icon/Dark/News">
                <path d="M9.02341667,5.46131034 L15.4929167,21.8429655" id="Stroke-1" stroke="#FFFFFF" stroke-width="1.82769231" stroke-linecap="round" stroke-linejoin="round"></path>
                <path d="M3.50708333,21.839931 L9.97658333,5.46131034" id="Stroke-2" stroke="#FFFFFF" stroke-width="1.82769231" stroke-linecap="round" stroke-linejoin="round"></path>
                <path d="M11.3984167,5.46131034 C11.3984167,6.46875862 10.5481667,7.28427586 9.5,7.28427586 C8.45183333,7.28427586 7.60158333,6.46875862 7.60158333,5.46131034 C7.60158333,4.45689655 8.45183333,3.64213793 9.5,3.64213793 C10.5481667,3.64213793 11.3984167,4.45689655 11.3984167,5.46131034 L11.3984167,5.46131034 Z" id="Fill-3" fill="#FFFFFF"></path>
                <path d="M13.87,1.97924138 C14.70125,2.92751724 15.1992083,4.15193103 15.1992083,5.48482759 C15.1992083,6.82151724 14.70125,8.04289655 13.872375,8.99117241" id="Stroke-4" stroke="#FFFFFF" stroke-width="0.913846154" stroke-linecap="round" stroke-linejoin="round"></path>
                <path d="M16.6313333,0.489310345 C17.8125,1.84041379 18.5234167,3.58296552 18.5234167,5.48482759 C18.5234167,7.36393103 17.8283333,9.08827586 16.6717083,10.434069" id="Stroke-5" stroke="#FFFFFF" stroke-width="0.913846154" stroke-linecap="round" stroke-linejoin="round"></path>
                <path d="M5.13,1.97924138 C4.29875,2.92751724 3.80079167,4.15193103 3.80079167,5.48482759 C3.80079167,6.82151724 4.29875,8.04289655 5.127625,8.99117241" id="Stroke-6" stroke="#FFFFFF" stroke-width="0.913846154" stroke-linecap="round" stroke-linejoin="round"></path>
                <path d="M2.36866667,0.489310345 C1.1875,1.84041379 0.476583333,3.58296552 0.476583333,5.48482759 C0.476583333,7.36393103 1.17166667,9.08827586 2.32829167,10.434069" id="Stroke-7" stroke="#FFFFFF" stroke-width="0.913846154" stroke-linecap="round" stroke-linejoin="round"></path>
                <polyline id="Stroke-8" stroke="#FFFFFF" stroke-width="1.82769231" stroke-linecap="round" stroke-linejoin="round" points="4.46579167 19.828069 13.5359167 17.4095862 6.438625 14.8462069 11.5939583 12.9617931"></polyline>
            </g>
        </g>
    </g>
</svg>