<?xml version="1.0" encoding="UTF-8"?>
<svg width="22px" height="22px" viewBox="0 0 22 22" version="1.1" xmlns="http://www.w3.org/2000/svg" xmlns:xlink="http://www.w3.org/1999/xlink">
    <!-- Generator: Sketch 53.2 (72643) - https://sketchapp.com -->
    <title>Calendar</title>
    <desc>Created with Sketch.</desc>
    <g id="Symbols" stroke="none" stroke-width="1" fill="none" fill-rule="evenodd">
        <g id="Large-List-View-Row---Resting-learner" transform="translate(-1074.000000, -30.000000)" fill="#6D6D6D">
            <g id="Calendar" transform="translate(1074.000000, 30.000000)">
                <polygon id="Rectangle-path" points="5.9797766 0.0256903853 7.50764903 0.0256903853 7.50764903 5.96016938 5.9797766 5.96016938"></polygon>
                <polygon id="Rectangle-path" points="14.6201586 0.0256903853 16.1480311 0.0256903853 16.1480311 5.96016938 14.6201586 5.96016938"></polygon>
                <path d="M6.03246185,10.5587483 C4.55727467,10.5587483 3.34551378,11.7405061 3.34551378,13.1534773 C3.34551378,14.5664484 4.55727467,15.7482062 6.03246185,15.7482062 C7.50764903,15.7482062 8.6930673,14.6178292 8.6930673,13.1791676 C8.6930673,11.7405061 7.50764903,10.5587483 6.03246185,10.5587483 L6.03246185,10.5587483 Z M6.03246185,14.2838542 C5.40023878,14.2838542 4.89972884,13.7700465 4.89972884,13.1534773 C4.89972884,12.536908 5.4265814,12.0231003 6.03246185,12.0231003 C6.6383423,12.0231003 7.16519486,12.536908 7.16519486,13.1534773 C7.16519486,13.7700465 6.66468493,14.2838542 6.03246185,14.2838542 L6.03246185,14.2838542 Z" id="Shape"></path>
                <polygon id="Rectangle-path" points="4.10945 16.8785831 7.92913108 16.8785831 7.92913108 18.3686255 4.10945 18.3686255"></polygon>
                <polygon id="Rectangle-path" points="9.5360314 16.8785831 13.3557125 16.8785831 13.3557125 18.3686255 9.5360314 18.3686255"></polygon>
                <polygon id="Rectangle-path" points="9.5360314 12.4341465 13.3557125 12.4341465 13.3557125 13.9241888 9.5360314 13.9241888"></polygon>
                <polygon id="Rectangle-path" points="14.9362702 16.8785831 18.7559513 16.8785831 18.7559513 18.3686255 14.9362702 18.3686255"></polygon>
                <polygon id="Rectangle-path" points="14.9362702 12.4341465 18.7559513 12.4341465 18.7559513 13.9241888 14.9362702 13.9241888"></polygon>
                <path d="M17.2017362,4.16184241 L20.4418795,4.16184241 L20.4418795,7.96401943 L1.6859282,7.96401943 L1.6859282,4.16184241 L4.92607147,4.16184241 L4.92607147,2.67180007 L0.158055769,2.67180007 L0.158055769,21.4771621 L21.9697519,21.4771621 L21.9697519,2.67180007 L17.2017362,2.67180007 L17.2017362,4.16184241 L17.2017362,4.16184241 Z M1.6859282,19.9871197 L1.6859282,9.47975216 L20.4418795,9.47975216 L20.4418795,19.9871197 L1.6859282,19.9871197 L1.6859282,19.9871197 Z" id="Shape"></path>
                <polygon id="Rectangle-path" points="8.56135416 2.67180007 13.5401109 2.67180007 13.5401109 4.16184241 8.56135416 4.16184241"></polygon>
            </g>
        </g>
    </g>
</svg>