
<svg width="31px" height="30px" viewBox="0 0 31 30" version="1.1" xmlns="http://www.w3.org/2000/svg" xmlns:xlink="http://www.w3.org/1999/xlink">
    <!-- Generator: Sketch 47 (45396) - http://www.bohemiancoding.com/sketch -->
    <desc>Created with Sketch.</desc>
    <defs></defs>
    <g id="Dashboard" stroke="none" stroke-width="1" fill="none" fill-rule="evenodd">
        <g id="Desktop-HD-Copy-11" transform="translate(-75.000000, -1186.000000)" fill-rule="nonzero" fill="#000000">
            <g id="Group-20" transform="translate(1.000000, 1105.000000)">
                <path d="M81.4911661,83.0141343 C81.9151943,82.7667845 82.4452297,82.9081272 82.6925795,83.3321555 C82.9399293,83.7561837 82.7985866,84.2862191 82.3745583,84.5335689 C80.360424,85.6996466 78.6996466,87.360424 77.5335689,89.3745583 C76.3674912,91.3886926 75.7667845,93.6855124 75.7667845,95.9823322 C75.7667845,98.3144876 76.3674912,100.611307 77.5335689,102.590106 C78.6996466,104.60424 80.360424,106.265018 82.3745583,107.431095 C84.3886926,108.597173 86.6855124,109.19788 88.9823322,109.19788 C91.3144876,109.19788 93.6113074,108.597173 95.590106,107.431095 C97.6042403,106.265018 99.2650177,104.60424 100.431095,102.590106 C101.597173,100.575972 102.19788,98.2791519 102.19788,95.9823322 C102.19788,93.6501767 101.597173,91.3533569 100.431095,89.3745583 C99.2650177,87.360424 97.6042403,85.6996466 95.590106,84.5335689 C93.8233216,83.5088339 91.8798587,82.9081272 89.8657244,82.8021201 L89.8657244,96.0176678 L89.8657244,96.1590106 C89.8657244,96.2650177 89.8657244,96.3003534 89.8303887,96.3003534 C89.795053,96.4063604 89.7597173,96.4063604 89.7597173,96.4416961 C89.7243816,96.5477032 89.6890459,96.5477032 89.6537102,96.5830389 C89.6183746,96.6183746 89.6183746,96.6183746 89.5830389,96.6537102 C89.4770318,96.7243816 89.4770318,96.7243816 89.4416961,96.7597173 C89.335689,96.795053 89.2650177,96.795053 89.229682,96.8303887 C89.0883392,96.8303887 89.0176678,96.8657244 88.9469965,96.8657244 C88.8763251,96.8657244 88.8056537,96.8657244 88.7349823,96.8303887 C88.664311,96.8303887 88.5936396,96.795053 88.5583039,96.7597173 C88.4522968,96.6890459 88.3816254,96.6537102 88.3462898,96.6183746 C88.2756184,96.5830389 88.204947,96.5123675 88.1696113,96.4416961 L83.8233216,88.8091873 C83.5759717,88.385159 83.7173145,87.8551237 84.1413428,87.6077739 C84.565371,87.360424 85.0954064,87.5017668 85.3427562,87.9257951 L88.1342756,92.7314488 L88.1342756,81.8833922 C88.1342756,81.3886926 88.5229682,81 89.0176678,81 C91.6678445,81 94.2473498,81.7067138 96.5088339,83.0141343 C98.770318,84.3215548 100.678445,86.229682 102.021201,88.5265018 C103.328622,90.7879859 104.035336,93.3674912 104.035336,96.0176678 C104.035336,98.6678445 103.328622,101.24735 102.021201,103.508834 C100.713781,105.770318 98.8056537,107.678445 96.5441696,108.985866 C94.2826855,110.293286 91.6678445,111 89.0530035,111 C86.4028269,111 83.8233216,110.293286 81.5618375,108.985866 C79.3003534,107.678445 77.3922261,105.770318 76.04947,103.473498 C74.7067138,101.24735 74,98.6678445 74,96.0176678 C74,93.3674912 74.7067138,90.7879859 76.0141343,88.4911661 C77.3215548,86.229682 79.229682,84.3215548 81.4911661,83.0141343 Z" id="Shape"></path>
            </g>
        </g>
    </g>
</svg>