<svg xmlns="http://www.w3.org/2000/svg" viewBox="0 0 16 20">
  <path id="DOC" d="M16,20H0V14.615H1.6v3.847H14.4V14.615H16V20Zm-2.8-6.923a1.965,1.965,0,0,1-2-1.923V8.846a2,2,0,0,1,4,0v.385H13.6V8.846a.4.4,0,0,0-.8,0v2.308a.4.4,0,0,0,.8,0v-.384h1.6v.384A1.965,1.965,0,0,1,13.2,13.077Zm-4.8,0a1.965,1.965,0,0,1-2-1.923V8.846a2,2,0,0,1,4,0v2.308A1.965,1.965,0,0,1,8.4,13.077Zm0-4.615a.467.467,0,0,0-.4.384v2.308a.467.467,0,0,0,.4.385.467.467,0,0,0,.4-.385V8.846A.467.467,0,0,0,8.4,8.462ZM3.2,13.077H1.6V6.923H3.2A2.358,2.358,0,0,1,5.6,9.231v1.538A2.358,2.358,0,0,1,3.2,13.077Zm0-4.615v3.077a.816.816,0,0,0,.566-.227A.746.746,0,0,0,4,10.769V9.231A.786.786,0,0,0,3.2,8.462ZM1.6,5.386H0V0H16V5.384H14.4V1.538H1.6V5.385Z"/>
</svg>
