<?xml version="1.0" encoding="UTF-8"?>
<svg width="32px" height="23px" viewBox="0 0 32 23" version="1.1" xmlns="http://www.w3.org/2000/svg" xmlns:xlink="http://www.w3.org/1999/xlink">
    <!-- Generator: Sketch 41.2 (35397) - http://www.bohemiancoding.com/sketch -->
    <title>Pathway_icon</title>
    <desc>Created with Sketch.</desc>
    <defs></defs>
    <g id="Icons" stroke="none" stroke-width="1" fill="none" fill-rule="evenodd">
        <g id="Pathway_icon" fill="#000000">
            <path d="M19.4587723,0 L19.3852397,0.0237421331 L18.798543,0.382937631 L18.7257927,1.05307849 L19.2389567,1.50800839 L19.4838047,1.53175052 L19.5808052,1.53175052 L20.2167844,1.55549266 L20.8527636,1.26828943 L20.9990466,0.59814858 L20.5343829,0.0712263994 L20.2660669,0.0237421331 L19.532305,0 L19.4587723,0 Z M0.806512333,0.0237421331 L0.171315423,0.287203223 L0,0.957344078 L0.0977827756,1.19629716 L0.122815166,1.2445473 L0.733761948,1.57923479 L1.36895886,1.31653958 L1.54027428,0.645632846 L1.44249151,0.406679764 L1.41824138,0.382937631 L0.806512333,0.0237421331 Z M23.4921163,0.287203223 L22.8326692,0.478672039 L22.5878212,1.12507076 L22.9547021,1.69947721 L23.1995502,1.79444574 L23.9818124,1.93843029 L24.6412594,1.74696147 L24.9103576,1.12507076 L24.5192265,0.526156305 L24.2743785,0.430421897 L23.4921163,0.287203223 Z M16.4032562,1.22003929 L16.1591904,1.34028171 L15.5232112,1.77070361 L15.2056127,2.39336019 L15.4989611,3.01525091 L16.1834405,3.13472745 L16.4275063,3.01525091 L17.0634855,2.58482901 L17.4053341,1.96217242 L17.0877356,1.34028171 L16.4032562,1.22003929 Z M27.4034273,1.53175052 L26.6946977,1.55549266 L26.2793165,2.10615697 L26.4991322,2.75178982 L26.6704476,2.89577437 L26.7197301,2.9195165 L27.3064268,3.278712 L27.9901239,3.35070427 L28.4798201,2.8482901 L28.3327548,2.17738337 L28.1371892,1.98591455 L27.5019923,1.60297692 L27.4769599,1.57923479 L27.4284597,1.55549266 L27.4034273,1.53175052 Z M13.2742073,2.32136792 C11.9787811,2.32136792 10.9274207,3.35070427 10.9274207,4.61899371 C10.9274207,5.88728314 11.9787811,6.91661949 13.2742073,6.91661949 C14.5696336,6.91661949 15.620994,5.88728314 15.620994,4.61899371 C15.620994,3.35070427 14.5696336,2.32136792 13.2742073,2.32136792 L13.2742073,2.32136792 Z M2.56660229,2.53657887 L1.95565551,2.89577437 L1.85787274,3.56591522 L2.00493803,3.80563418 L2.37103674,4.23605608 L2.39606913,4.25979821 L2.42031926,4.25979821 L2.56660229,4.42752489 L3.22683159,4.64273584 L3.78927812,4.25979821 L3.83856064,3.56591522 L3.66724521,3.35070427 L3.56946244,3.23122773 L3.20258147,2.82378209 L2.56660229,2.53657887 Z M29.9457795,4.04458726 L29.3105825,4.28354034 L29.115017,4.95444707 L29.2127998,5.21714229 L29.3841152,5.45686124 L29.4083653,5.50434551 L29.5796807,5.81529087 L30.141345,6.22273651 L30.8015743,6.03126769 L31.0464224,5.38486897 L30.9728897,5.12140788 L30.753074,4.73847025 L30.753074,4.71472811 L30.7280417,4.69098598 L30.5575085,4.40378276 L29.9457795,4.04458726 Z M5.23176962,5.07392361 L4.791356,5.62382205 L4.96267143,6.27022077 L5.15823698,6.46168959 L5.37805266,6.557424 L5.42733517,6.58116613 L5.4515853,6.60567414 L5.96474931,6.79714295 L6.67347887,6.74889281 L7.04035984,6.17448636 L6.79629403,5.52885352 L6.55144596,5.38486897 L6.13606473,5.21714229 L6.06253208,5.19340015 L5.94049918,5.12140788 L5.23176962,5.07392361 Z M10.1209084,5.36112684 L9.8518102,5.38486897 L9.4606791,5.50434551 L9.38714645,5.52885352 L9.16733077,5.57633778 L8.62913438,6.00675968 L8.65416677,6.67766641 L9.21583103,7.08434618 L9.48492923,7.06060404 L9.77827756,7.0123539 L9.80252768,7.0123539 L9.8518102,6.98861177 L10.316474,6.84462722 L10.829638,6.36595518 L10.7318552,5.69581433 L10.1209084,5.36112684 Z M30.8266067,7.70623689 L30.3861931,8.23315907 L30.3619429,8.49585428 L30.4104432,8.78382338 L30.4104432,8.83130765 L30.4354756,9.21424528 L30.8015743,9.81239386 L31.5103039,9.88438613 L31.9749676,9.38197196 L32,9.09476874 L31.9749676,8.66358097 L31.9507175,8.63983883 L31.9507175,8.6160967 L31.901435,8.30438547 L31.5103039,7.72997902 L30.8266067,7.70623689 Z M30.9971399,11.4643868 L30.4354756,11.8710666 L30.3619429,12.1337618 L30.2884103,12.7081682 L30.2884103,12.7801605 L30.2641602,12.8284106 L30.4597257,13.4985515 L31.0949226,13.7375046 L31.7058694,13.379075 L31.8044344,13.139356 L31.8286846,13.0198795 L31.8286846,12.9478872 L31.9264674,12.3014885 L31.6816193,11.6558556 L30.9971399,11.4643868 Z M30.2148776,15.1497786 L29.5546483,15.3887316 L29.4083653,15.6047085 L29.4083653,15.6284506 L29.3590828,15.7004429 L29.0907669,16.2265992 L29.0665167,16.89674 L29.6039309,17.3279278 L30.2884103,17.1602011 L30.4597257,16.9449902 L30.7773242,16.3705837 L30.8015743,16.3223336 L30.8015743,16.2985915 L30.8508568,16.202857 L30.8015743,15.5089741 L30.2148776,15.1497786 Z M27.354927,16.8729979 C26.0595008,16.8729979 25.0081404,17.9023343 25.0081404,19.1706237 C25.0081404,20.4389131 26.0595008,21.4682495 27.354927,21.4682495 C28.6503532,21.4682495 29.7017136,20.4389131 29.7017136,19.1706237 C29.7017136,17.9023343 28.6503532,16.8729979 27.354927,16.8729979 L27.354927,16.8729979 Z M12.0765639,17.7583497 L11.4405847,18.0692951 L11.2943017,18.7402018 L11.7832156,19.242616 L12.0523138,19.2901002 L12.4434449,19.3146082 L12.4434449,19.2901002 L12.736011,19.3383504 L13.3962403,19.0986314 L13.6168382,18.4522327 L13.2006747,17.9023343 L12.9315765,17.830342 L12.5404454,17.7828577 L12.467695,17.7828577 L12.0765639,17.7583497 Z M8.8004498,18.1175452 L8.75194954,18.1412873 L8.70266703,18.1412873 L7.96968734,18.3810063 L7.48077346,18.8596783 L7.57855624,19.5298192 L8.18950302,19.8645067 L8.45860122,19.8407645 L9.1915809,19.6010456 L9.1915809,19.5773035 L9.65624465,19.1943658 L9.65624465,18.5004828 L9.069548,18.1175452 L8.8004498,18.1175452 Z M4.6693231,18.4047484 C3.37389689,18.4047484 2.32253649,19.4340848 2.32253649,20.7023742 C2.32253649,21.9706636 3.37389689,23 4.6693231,23 C5.96474931,23 7.01610971,21.9706636 7.01610971,20.7023742 C7.01610971,19.4340848 5.96474931,18.4047484 4.6693231,18.4047484 L4.6693231,18.4047484 Z M16.1099078,18.5004828 L15.4254284,18.6199594 L15.10783,19.218108 L15.4254284,19.8407645 L15.6694942,19.9602411 L16.2561909,20.1517099 L16.4032562,20.175452 L17.0877356,20.0804835 L17.4295842,19.481569 L17.1119857,18.8596783 L16.8679199,18.7156938 L16.7208546,18.6919516 L16.7208546,18.6682095 L16.1099078,18.5004828 Z M19.8014032,19.5773035 L19.1169238,19.7450301 L18.8478256,20.3914289 L19.2147065,20.9658353 L19.4587723,21.0853118 L20.2410345,21.2292964 L20.9012638,21.0615697 L21.170362,20.4389131 L20.8277312,19.8407645 L20.558633,19.7450301 L19.8014032,19.5773035 Z M24.3729435,19.7925144 L24.1038453,19.8170224 L24.0303127,19.8170224 L23.3951158,19.9127568 L22.8326692,20.2956944 L22.8084191,20.9895774 L23.3458332,21.4207652 L23.6149314,21.4207652 L24.3479111,21.3242649 L24.4214438,21.3242649 L24.469944,21.3005228 L25.0081404,20.8463588 L24.9596402,20.175452 L24.3729435,19.7925144 Z"></path>
        </g>
    </g>
</svg>