<svg width="40px" height="38px" viewBox="0 0 40 38" version="1.1" xmlns="http://www.w3.org/2000/svg" xmlns:xlink="http://www.w3.org/1999/xlink">
    <!-- Generator: Sketch 48.2 (47327) - http://www.bohemiancoding.com/sketch -->
    <desc>Created with Sketch.</desc>
    <defs></defs>
    <g id="Page-1" stroke="none" stroke-width="1" fill="none" fill-rule="evenodd">
        <g class="fillable" transform="translate(-110.000000, -382.000000)">
            <g id="Page-1" transform="translate(110.000000, 382.000000)">
                <path d="M39.6895327,11.8709756 L29.6890254,0.432134014 C29.4515134,0.15728458 29.1108761,0 28.7514579,0 L1.25006353,0 C0.559388496,0 0,0.56874937 0,1.27098239 L0,13.9808063 L2.50012695,13.9808063 L2.50012695,2.54196479 L28.1890293,2.54196479 L37.0770802,12.7098239 L27.8142103,23.3096138 L29.6767848,25 L39.6772921,13.5611585 C40.1023137,13.0829437 40.108554,12.3553317 39.6897927,11.8707722 L39.6895327,11.8709756 Z" id="Fill-1"></path>
                <path d="M32,12.5 C32,13.88124 30.88124,15 29.5,15 C28.11876,15 27,13.88124 27,12.5 C27,11.11876 28.11876,10 29.5,10 C30.88124,10 32,11.11876 32,12.5" id="Fill-2"></path>
                <path d="M6.25,5 L23.75,5 C24.44064,5 25,5.69064 25,6.25 L25,8.75 C25,9.44064 24.44064,10 23.75,10 L6.25,10 C5.55936,10 5,9.30936 5,8.75 L5,6.25 C5,5.55936 5.55936,5 6.25,5 Z" id="Fill-3"></path>
                <path d="M12.4999999,13 C9.18439169,13 6.00486219,14.3171874 3.66088467,16.6608849 C1.31690795,19.0045825 0,22.184432 0,25.5000002 C0,28.8155684 1.31718755,31.995138 3.66088467,34.3391155 C6.00458219,36.6830922 9.18443169,38 12.4999999,38 C15.8155681,38 18.9951376,36.6828126 21.3391151,34.3391155 C23.6830926,31.9954179 25,28.8155684 25,25.5000002 C25,22.184432 23.6828126,19.0048624 21.3391151,16.6608849 C18.9954176,14.3169074 15.8155681,13 12.4999999,13 Z M12.4999999,35.4997844 C9.84846532,35.4997844 7.30484972,34.4466745 5.4296677,32.5701324 C3.5531253,30.6951504 2.5000154,28.1513748 2.5000154,25.4998002 C2.5000154,22.8482256 3.5531253,20.30465 5.4296677,18.429468 C7.30464972,16.5529259 9.84842532,15.499816 12.4999999,15.499816 C15.1515745,15.499816 17.6951501,16.5529259 19.5703321,18.429468 C21.4468741,20.30445 22.499984,22.8482256 22.499984,25.4998002 C22.499984,28.1513748 21.4468741,30.6949504 19.5703321,32.5701324 C17.6953501,34.4466745 15.1515745,35.4997844 12.4999999,35.4997844 Z" id="Fill-4"></path>
                <path d="M16.78744,22.0000667 L18.37496,20.4125382 L16.61248,18.6500488 L15,20.2125371 C14.609376,19.9812879 14.18908,19.804735 13.75,19.6875343 L13.75,17 L11.25,17 L11.25,19.6750143 C10.81092,19.7922029 10.39064,19.9687678 10,20.2000171 L8.38752,18.6124886 L6.61252,20.3874981 L8.21252,21.9999867 C7.981272,22.3906127 7.80472,22.810911 7.68752,23.2499933 L5,23.2499933 L5,25.7500067 L7.675,25.7500067 C7.792188,26.189089 7.968752,26.6093712 8.2,27.0000133 L6.61248,28.6125019 L8.37496,30.3749913 L9.99996,28.7874629 C10.390584,29.0187121 10.81088,29.195265 11.24996,29.3124657 L11.24996,32 L13.74996,32 L13.74996,29.3249857 C14.18904,29.2077971 14.60932,29.0312322 14.99996,28.7999829 L16.58748,30.3875114 L18.34996,28.625022 L16.78748,27.0000133 C17.018728,26.6093873 17.19528,26.189089 17.31248,25.7500067 L20,25.7500067 L20,23.2499933 L17.325,23.2499933 C17.203124,22.810911 17.023436,22.3906288 16.78748,21.9999867 L16.78744,22.0000667 Z M12.49984,27.0000933 C11.48892,27.0000933 10.5764,26.3907301 10.19048,25.4563251 C9.80298,24.5219601 10.017044,23.4469544 10.73268,22.7328706 C11.44676,22.0172268 12.52176,21.8031856 13.45612,22.1906677 C14.39048,22.5766057 14.99988,23.4891146 14.99988,24.50004 C14.99988,25.1625235 14.735816,25.7984869 14.26708,26.2672494 C13.798344,26.7360119 13.1624,27.0000533 12.49988,27.0000533 L12.49984,27.0000933 Z" id="Fill-5"></path>
            </g>
        </g>
    </g>
</svg>