<?xml version="1.0" encoding="UTF-8"?>
<svg width="78px" height="47px" viewBox="0 0 78 47" version="1.1" xmlns="http://www.w3.org/2000/svg" xmlns:xlink="http://www.w3.org/1999/xlink">
    <!-- Generator: Sketch 43.2 (39069) - http://www.bohemiancoding.com/sketch -->
    <title>icon_camera</title>
    <desc>Created with Sketch.</desc>
    <defs>
        <path d="M69.9096,25.6265385 L75,25.6265385 L75,24.0111538 L70.7096,24.0111538 L70.7096,13.18 C70.7096,11.5500769 69.3968,10.2254615 67.7832,10.2254615 C67.4688,10.2254615 67.16,10.2771538 66.8672,10.3773077 L66.8672,9.69803846 C66.8672,8.14323077 65.6144,6.87838462 64.0744,6.87838462 C63.8024,6.87838462 63.536,6.91876923 63.2832,6.99388462 C63.2696,5.38092308 61.9664,4.07246154 60.3656,4.07246154 C58.752,4.07246154 57.4392,5.39465385 57.4392,7.01892308 L57.4392,13.6581538 C56.4088,13.0241154 55.2184,12.6768077 54.0032,12.6768077 L53.208,12.6768077 C49.5496,12.6768077 46.5728,15.6822308 46.5728,19.3766154 L46.5728,20.488 L40.8688,20.488 L40.8688,18.9622692 L43.9416,18.9622692 L43.9416,12.4821538 L34.4992,12.4821538 L34.4992,18.9622692 L37.572,18.9622692 L37.572,20.488 L31.7128,20.488 L31.7128,19.3766154 C31.7128,15.6822308 28.74,12.6768077 25.0856,12.6768077 L24.2904,12.6768077 C23.0712,12.6768077 21.8776,13.0241154 20.8456,13.6589615 L20.8456,7.01892308 C20.8456,5.39384615 19.5368,4.07246154 17.9272,4.07246154 C16.3216,4.07246154 15.0144,5.38092308 15.0008,6.99469231 C14.7472,6.91796154 14.4816,6.87838462 14.2096,6.87838462 C12.6696,6.87838462 11.4168,8.14323077 11.4168,9.69803846 L11.4168,10.3773077 C11.124,10.2779615 10.8152,10.2254615 10.5008,10.2254615 C8.8912,10.2254615 7.5824,11.5508846 7.5824,13.18 L7.5824,24.0111538 L3,24.0111538 L3,25.6265385 L8.3832,25.6265385 C8.8248,25.6265385 9.1832,25.2655 9.1832,24.8188462 L9.1832,13.18 C9.1832,12.4417692 9.7744,11.8408462 10.5016,11.8408462 C10.852,11.8408462 11.1736,11.9862308 11.4184,12.2341923 L11.4184,24.4828462 L13.0184,24.4828462 L13.0184,11.9305 L13.0168,11.9305 L13.0168,11.9288846 L13.0168,9.69723077 C13.0168,9.03330769 13.552,8.49296154 14.2096,8.49296154 C14.4672,8.49296154 14.7136,8.58019231 14.936,8.75707692 L14.936,22.8351538 L16.536,22.8351538 L16.536,8.79665385 C16.5736,8.70215385 16.6008,8.60280769 16.6008,8.497 L16.6008,7.01811538 C16.6008,6.28392308 17.196,5.68703846 17.9272,5.68703846 C18.6544,5.68703846 19.2456,6.28392308 19.2456,7.01811538 L19.2456,15.3438077 C19.2456,15.6749615 19.4456,15.9721923 19.7504,16.0949615 C20.0552,16.2177308 20.4032,16.1393846 20.628,15.8978846 C21.5928,14.8624231 22.8928,14.2921923 24.2896,14.2921923 L25.0848,14.2921923 C27.8568,14.2921923 30.112,16.5731154 30.112,19.3766154 L30.112,20.4871923 L27.476,20.4871923 L27.476,19.3766154 C27.476,18.0463462 26.404,16.9632308 25.0856,16.9632308 L24.2904,16.9632308 C22.972,16.9632308 21.9,18.0463462 21.9,19.3766154 L21.9,34.9045 C21.9,36.2347692 22.972,37.3178846 24.2904,37.3178846 L25.0856,37.3178846 C26.404,37.3178846 27.476,36.2347692 27.476,34.9045 L27.476,33.7915 L30.112,33.7915 L30.112,34.9028846 C30.112,37.7015385 27.8568,39.9776154 25.0848,39.9776154 L24.2896,39.9776154 C21.5128,39.9776154 19.2544,37.7015385 19.2544,34.8600769 C19.2544,34.4134231 18.896,34.0523846 18.4544,34.0523846 L3,34.0523846 L3,35.6677692 L17.6984,35.6677692 C18.076,38.9978846 20.8888,41.593 24.2904,41.593 L25.0856,41.593 C28.74,41.593 31.7128,38.5916154 31.7128,34.9028846 L31.7128,33.7713077 L46.5728,33.7713077 L46.5728,34.9028846 C46.5728,38.5916154 49.5496,41.593 53.208,41.593 L54.0032,41.593 C57.3896,41.593 60.1904,39.0156538 60.5832,35.6677692 L75,35.6677692 L75,34.0523846 L59.8296,34.0523846 C59.388,34.0523846 59.0296,34.4562308 59.0296,34.9028846 C59.0296,37.7015385 56.7744,39.9776154 54.0024,39.9776154 L53.2072,39.9776154 C50.4304,39.9776154 48.172,37.7015385 48.172,34.9028846 L48.172,33.7915 L50.8168,33.7915 L50.8168,34.9028846 C50.8168,36.2331538 51.8888,37.3162692 53.2072,37.3162692 L54.0024,37.3162692 C55.3208,37.3162692 56.3928,36.2331538 56.3928,34.9028846 L56.3928,19.3758077 C56.3928,18.0455385 55.3208,16.9624231 54.0024,16.9624231 L53.2072,16.9624231 C51.8888,16.9624231 50.8168,18.0455385 50.8168,19.3758077 L50.8168,20.4863846 L48.172,20.4863846 L48.172,19.3758077 C48.172,16.5723077 50.4304,14.2913846 53.2072,14.2913846 L54.0024,14.2913846 C55.3736,14.2913846 56.7056,14.8769615 57.656,15.8970769 C57.8808,16.1377692 58.2288,16.2145 58.5336,16.0941538 C58.8384,15.9721923 59.0384,15.6741538 59.0384,15.343 L59.0384,7.01811538 C59.0384,6.28392308 59.6336,5.68703846 60.3648,5.68703846 C61.0912,5.68703846 61.6824,6.28392308 61.6824,7.01811538 L61.6824,8.497 C61.6824,8.60926923 61.7104,8.71669231 61.7504,8.81846154 L61.7504,22.8351538 L63.3504,22.8351538 L63.3504,8.75061538 C63.5544,8.58584615 63.8072,8.49296154 64.0736,8.49296154 C64.7312,8.49296154 65.2664,9.03330769 65.2664,9.69723077 L65.2664,11.9288846 C65.2664,11.9329231 65.268,11.9369615 65.268,11.941 L65.268,24.4828462 L66.868,24.4828462 L66.868,12.2317692 C67.1136,11.9870385 67.4384,11.8400385 67.7824,11.8400385 C68.5144,11.8400385 69.1088,12.4409615 69.1088,13.1791923 L69.1088,24.8180385 C69.1096,25.2655 69.468,25.6265385 69.9096,25.6265385 Z M36.0992,17.3460769 L36.0992,14.0967308 L42.3408,14.0967308 L42.3408,17.3460769 L40.868,17.3460769 L37.5712,17.3460769 L36.0992,17.3460769 L36.0992,17.3460769 Z M25.876,34.9028846 C25.876,35.3430769 25.5216,35.7008846 25.0856,35.7008846 L24.2904,35.7008846 C23.8544,35.7008846 23.5,35.3430769 23.5,34.9028846 L23.5,19.3758077 C23.5,18.9356154 23.8544,18.5778077 24.2904,18.5778077 L25.0856,18.5778077 C25.5216,18.5778077 25.876,18.9356154 25.876,19.3758077 L25.876,20.5421154 C25.5688,20.6551923 25.3464,20.9451538 25.3464,21.2948846 L25.3464,32.9636154 C25.3464,33.3133462 25.5688,33.6033077 25.876,33.7163846 L25.876,34.9028846 Z M26.9472,32.1559231 L26.9472,22.1025769 L37.572,22.1025769 L40.8688,22.1025769 L51.4936,22.1025769 L51.4936,32.1559231 L26.9472,32.1559231 L26.9472,32.1559231 Z M52.4168,19.3758077 C52.4168,18.9356154 52.7712,18.5778077 53.2072,18.5778077 L54.0024,18.5778077 C54.4384,18.5778077 54.7928,18.9356154 54.7928,19.3758077 L54.7928,34.9036923 C54.7928,35.3438846 54.4384,35.7016923 54.0024,35.7016923 L53.2072,35.7016923 C52.7712,35.7016923 52.4168,35.3438846 52.4168,34.9036923 L52.4168,33.7470769 C52.7976,33.6848846 53.0936,33.3666538 53.0936,32.9644231 L53.0936,21.2948846 C53.0936,20.8926538 52.7976,20.5744231 52.4168,20.5122308 L52.4168,19.3758077 Z M39.22,23.3730769 C41.2712,23.3730769 42.94,25.0579231 42.94,27.1288462 C42.94,29.1997692 41.2712,30.8846154 39.22,30.8846154 C37.1688,30.8846154 35.5,29.1997692 35.5,27.1288462 C35.5,25.0579231 37.1688,23.3730769 39.22,23.3730769 Z M39.22,29.2700385 C40.3888,29.2700385 41.34,28.3105 41.34,27.1296538 C41.34,25.9488077 40.3888,24.9892692 39.22,24.9892692 C38.0512,24.9892692 37.1,25.9488077 37.1,27.1296538 C37.1,28.3105 38.0512,29.2700385 39.22,29.2700385 Z M39.144,6.00526923 C38.7024,6.00526923 38.344,5.64423077 38.344,5.19757692 L38.344,1.80769231 C38.344,1.36103846 38.7024,1 39.144,1 C39.5856,1 39.944,1.36103846 39.944,1.80769231 L39.944,5.19757692 C39.944,5.64423077 39.5856,6.00526923 39.144,6.00526923 Z M42.9432,7.59480769 C42.7384,7.59480769 42.5336,7.51565385 42.3776,7.35815385 C42.0648,7.04234615 42.0648,6.53188462 42.3776,6.21607692 L44.6232,3.94888462 C44.936,3.63307692 45.4416,3.63307692 45.7544,3.94888462 C46.0672,4.26469231 46.0672,4.77515385 45.7544,5.09096154 L43.5088,7.35815385 C43.3528,7.51565385 43.148,7.59480769 42.9432,7.59480769 Z M34.7792,7.35815385 L32.5336,5.09096154 C32.2208,4.77515385 32.2208,4.26469231 32.5336,3.94888462 C32.8464,3.63307692 33.352,3.63307692 33.6648,3.94888462 L35.9104,6.21607692 C36.2232,6.53188462 36.2232,7.04234615 35.9104,7.35815385 C35.7544,7.51565385 35.5496,7.59480769 35.3448,7.59480769 C35.14,7.59480769 34.9352,7.51565385 34.7792,7.35815385 Z" id="path-1"></path>
        <filter x="-7.6%" y="-8.6%" width="115.3%" height="127.1%" filterUnits="objectBoundingBox" id="filter-2">
            <feOffset dx="0" dy="2" in="SourceAlpha" result="shadowOffsetOuter1"></feOffset>
            <feGaussianBlur stdDeviation="1.5" in="shadowOffsetOuter1" result="shadowBlurOuter1"></feGaussianBlur>
            <feColorMatrix values="0 0 0 0 0   0 0 0 0 0   0 0 0 0 0  0 0 0 0.5 0" type="matrix" in="shadowBlurOuter1"></feColorMatrix>
        </filter>
    </defs>
    <g id="Exportable-Icons" stroke="none" stroke-width="1" fill="none" fill-rule="evenodd">
        <g id="icon_camera">
            <use fill="black" fill-opacity="1" filter="url(#filter-2)" xlink:href="#path-1"></use>
            <use fill="#FFFFFF" fill-rule="evenodd" xlink:href="#path-1"></use>
        </g>
    </g>
</svg>