<svg width="23px" height="17px" viewBox="0 0 23 17" version="1.1" xmlns="http://www.w3.org/2000/svg" xmlns:xlink="http://www.w3.org/1999/xlink">
    <!-- Generator: Sketch 51.3 (57544) - http://www.bohemiancoding.com/sketch -->
    <desc>Created with Sketch.</desc>
    <defs></defs>
    <g id="Page-1" stroke="none" stroke-width="1" fill="none" fill-rule="evenodd">
        <g id="Desktop-HD-Copy-10" transform="translate(-397.000000, -1160.000000)" fill="#000000" fill-rule="nonzero">
            <g id="Group-21" transform="translate(385.000000, 1147.093021)">
                <path d="M32.4444444,12.9069791 C31.0421309,12.9069791 29.8888889,14.0029157 29.8888889,15.3355505 C29.8888889,16.0057219 30.1799204,16.6177843 30.6475694,17.0583184 L28.53125,20.9592113 C28.3909582,20.9362129 28.2468448,20.9212648 28.1,20.9212648 C27.3417656,20.9212648 26.6602716,21.2441951 26.1913194,21.748497 L21.4315972,19.7373363 C21.4421701,19.6483043 21.4555556,19.55569 21.4555556,19.464122 C21.4555556,18.1314895 20.3023136,17.0355505 18.9,17.0355505 C17.4976864,17.0355505 16.3444444,18.1314895 16.3444444,19.464122 C16.3444444,20.1342945 16.635476,20.7463567 17.103125,21.1868898 L14.9868056,25.0877827 C14.8465137,25.0647839 14.7024003,25.0498363 14.5555556,25.0498363 C13.153242,25.0498363 12,26.1457777 12,27.4784077 C12,28.8110377 13.153242,29.9069791 14.5555556,29.9069791 C15.9578691,29.9069791 17.1111111,28.8110377 17.1111111,27.4784077 C17.1111111,26.8082376 16.8200796,26.1961756 16.3524306,25.7556398 L18.46875,21.854747 C18.6090418,21.8777455 18.7531552,21.8926934 18.9,21.8926934 C19.6582344,21.8926934 20.3397284,21.5697672 20.8086806,21.0654613 L25.5604167,23.076622 C25.5499397,23.1652556 25.5444444,23.258691 25.5444444,23.3498363 C25.5444444,24.6824905 26.6976864,25.7784077 28.1,25.7784077 C29.5023136,25.7784077 30.6555556,24.6824905 30.6555556,23.3498363 C30.6555556,22.6796661 30.364524,22.0675979 29.896875,21.6270684 L32.0131944,17.7261755 C32.1534863,17.7491741 32.2975997,17.764122 32.4444444,17.764122 C33.846758,17.764122 35,16.668183 35,15.3355505 C35,14.0029157 33.846758,12.9069791 32.4444444,12.9069791 Z M32.4444444,14.364122 C33.0180828,14.364122 33.4666667,14.790414 33.4666667,15.3355505 C33.4666667,15.8806847 33.0180828,16.3069791 32.4444444,16.3069791 C31.8708058,16.3069791 31.4222222,15.8806847 31.4222222,15.3355505 C31.4222222,14.790414 31.8708058,14.364122 32.4444444,14.364122 Z M18.9,18.4926934 C19.4736387,18.4926934 19.9222222,18.9189878 19.9222222,19.464122 C19.9222222,20.0092585 19.4736387,20.4355505 18.9,20.4355505 C18.3263616,20.4355505 17.8777778,20.0092585 17.8777778,19.464122 C17.8777778,18.9189878 18.3263616,18.4926934 18.9,18.4926934 Z M28.1,22.3784077 C28.2281724,22.3784077 28.3470918,22.3997898 28.459375,22.439122 C28.4625158,22.4402221 28.4642357,22.4455832 28.4673611,22.4467113 C28.5352794,22.4935152 28.6108203,22.5294089 28.6909722,22.5529613 C28.952747,22.7279304 29.1222222,23.0168687 29.1222222,23.3498363 C29.1222222,23.8949777 28.6736384,24.3212648 28.1,24.3212648 C27.5263613,24.3212648 27.0777778,23.8949777 27.0777778,23.3498363 C27.0777778,23.216964 27.1007946,23.0924898 27.1496528,22.9779613 C27.1523344,22.9754502 27.1549965,22.9729203 27.1576389,22.970372 C27.3114412,22.6197902 27.6697709,22.3784077 28.1,22.3784077 Z M14.5555556,26.5069791 C15.1291942,26.5069791 15.5777778,26.9332905 15.5777778,27.4784077 C15.5777778,28.0235491 15.1291942,28.4498363 14.5555556,28.4498363 C13.9819172,28.4498363 13.5333333,28.0235491 13.5333333,27.4784077 C13.5333333,26.9332905 13.9819172,26.5069791 14.5555556,26.5069791 Z" id="Shape"></path>
            </g>
        </g>
    </g>
</svg>