<?xml version="1.0" encoding="UTF-8"?>
<svg width="28px" height="18px" viewBox="0 0 28 18" version="1.1" xmlns="http://www.w3.org/2000/svg" xmlns:xlink="http://www.w3.org/1999/xlink">
    <!-- Generator: Sketch 42 (36781) - http://www.bohemiancoding.com/sketch -->
    <title>icon_menu_workbooks</title>
    <desc>Created with Sketch.</desc>
    <defs>
        <path d="M11,12.7073422 C9.672,12.0622222 7.746,11.3464178 5.75,11.3464178 C4.18,11.3464178 2.453,11.5763911 0.617,12.03136 L1.801,1.82293333 C2.66,1.48046222 4.336,0.89308444 5.691,0.89308444 C7.707,0.89308444 9.676,2.16540444 9.695,2.17635556 L10.996,3.03950222 L12.297,2.18432 C12.316,2.17237333 13.785,1.23157333 15.484,0.97073778 L16.641,11.3583644 C14.531,11.2528356 12.414,12.0194133 11,12.7073422 L11,12.7073422 Z" id="path-1"></path>
    </defs>
    <g id="Icons" stroke="none" stroke-width="1" fill="none" fill-rule="evenodd">
        <g id="icon_menu_workbooks">
            <g id="workbook_icon">
                <g id="Symbols">
                    <g id="Large-List-View-Row---Resting">
                        <g id="Group-8-Copy-6">
                            <g id="Group">
                                <g id="workbook_icon">
                                    <g>
                                        <g id="Pages" transform="translate(3.000000, 2.000000)">
                                            <g id="path-1-Clipped">
                                                <mask id="mask-2" fill="white">
                                                    <use xlink:href="#path-1"></use>
                                                </mask>
                                                <g id="path-1"></g>
                                                <path d="M11,12.7073422 C9.672,12.0622222 7.746,11.3464178 5.75,11.3464178 C4.18,11.3464178 2.453,11.5763911 0.617,12.03136 L1.801,1.82293333 C2.66,1.48046222 4.336,0.89308444 5.691,0.89308444 C7.707,0.89308444 9.676,2.16540444 9.695,2.17635556 L10.996,3.03950222 L12.297,2.18432 C12.316,2.17237333 13.785,1.23157333 15.484,0.97073778 L16.641,11.3583644 C14.531,11.2528356 12.414,12.0194133 11,12.7073422 L11,12.7073422 Z" id="path-1" stroke="#000000" stroke-width="2" mask="url(#mask-2)"></path>
                                            </g>
                                        </g>
                                        <path d="M25.3800049,2.24 C25.3800049,2.24 22.1140049,0.559502222 19.3140049,0.559502222 C16.5130049,0.559502222 14.0050049,2.24 14.0050049,2.24 C14.0050049,2.24 11.4970049,0.559502222 8.69600488,0.559502222 C5.89600488,0.559502222 2.63000488,2.24 2.63000488,2.24 L0.880004883,17.3604978 C0.880004883,17.3604978 4.84500488,15.68 8.75500488,15.68 C11.3210049,15.68 14.0050049,17.3604978 14.0050049,17.3604978 C14.0050049,17.3604978 16.6890049,15.68 19.2550049,15.68 C23.1650049,15.68 27.1300049,17.3604978 27.1300049,17.3604978 L25.3800049,2.24 Z" id="Book" stroke="#000000"></path>
                                    </g>
                                </g>
                            </g>
                        </g>
                    </g>
                </g>
            </g>
        </g>
    </g>
</svg>