<svg xmlns="http://www.w3.org/2000/svg" width="26" height="26" viewBox="0 0 26 26">
    <g fill="none" fill-rule="evenodd" stroke="#000">
        <path d="M24.295 10.846c.522.035.948.499.967 1.056v2.212c0 .536-.414.987-.957 1.042a20.61 20.61 0 0 1-1.486.13c-.302 0-.568.218-.663.5a9.989 9.989 0 0 1-.711 1.704.73.73 0 0 0 .053.775c.21.235.368.415.555.636l.461.55a1.048 1.048 0 0 1-.078 1.42l-1.565 1.565a1.054 1.054 0 0 1-1.424.074c-.084-.07-.452-.377-.546-.457-.221-.187-.4-.344-.572-.504-.305-.212-.616-.256-.884-.077-.5.27-1.05.499-1.646.68l-.131.063c-.253.168-.382.312-.382.628-.02.176-.016.14-.065.756-.025.32-.042.51-.065.698a1.041 1.041 0 0 1-1.042.964h-2.228c-.536 0-.987-.413-1.042-.956a20.61 20.61 0 0 1-.13-1.486c0-.302-.218-.568-.5-.663a9.989 9.989 0 0 1-1.704-.711.73.73 0 0 0-.775.053l-.068.055a15.17 15.17 0 0 1-.568.5l-.55.461a1.048 1.048 0 0 1-1.42-.078l-1.565-1.565a1.054 1.054 0 0 1-.074-1.424c.315-.373.629-.738.972-1.13.2-.293.245-.604.066-.872a8.9 8.9 0 0 1-.68-1.646l-.063-.131-.416-.223c.248-.03.104-.16-.212-.16-.176-.018-.14-.015-.756-.064-.32-.025-.51-.042-.698-.065a1.041 1.041 0 0 1-.964-1.042v-2.228c0-.536.413-.987.956-1.042a20.61 20.61 0 0 1 1.486-.13c.302 0 .568-.218.663-.5.17-.56.413-1.136.711-1.704a.73.73 0 0 0-.053-.775l-.047-.06a15.222 15.222 0 0 1-.508-.576l-.461-.55a1.048 1.048 0 0 1 .078-1.42l1.565-1.565a1.054 1.054 0 0 1 1.424-.074c.084.07.452.377.546.457.221.187.4.344.572.504.305.212.616.256.884.077a8.9 8.9 0 0 1 1.646-.68l.131-.063c.253-.168.382-.312.382-.628.02-.176.016-.14.065-.756.025-.32.042-.51.065-.698A1.041 1.041 0 0 1 11.886.74h2.228c.536 0 .987.413 1.042.956.068.579.108 1.017.13 1.486 0 .302.218.568.5.663.56.17 1.136.413 1.704.711.282.141.544.1.775-.053.235-.21.415-.368.636-.555l.55-.461a1.048 1.048 0 0 1 1.42.078l1.536 1.562c.397.397.424 1.007.077 1.427-.316.373-.63.738-.973 1.13-.2.293-.245.604-.066.872.27.5.5 1.05.68 1.646l.063.131c.168.253.312.382.628.382.176.02.14.016.757.065.32.025.51.042.697.065l.025.002z"/>
        <path d="M13 9.547c1.9 0 3.453 1.554 3.453 3.453 0 1.9-1.554 3.453-3.453 3.453A3.463 3.463 0 0 1 9.547 13c0-1.9 1.554-3.453 3.453-3.453z"/>
    </g>
</svg>
