<?xml version="1.0" encoding="UTF-8"?>
<svg width="17px" height="18px" viewBox="0 0 17 18" version="1.1" xmlns="http://www.w3.org/2000/svg" xmlns:xlink="http://www.w3.org/1999/xlink">
    <!-- Generator: Sketch 43.2 (39069) - http://www.bohemiancoding.com/sketch -->
    <title>icon_textbigger</title>
    <desc>Created with Sketch.</desc>
    <defs></defs>
    <g id="Overview" stroke="none" stroke-width="1" fill="none" fill-rule="evenodd">
        <path d="M8.23543838,0.0162568854 L5.61035493,3.11036878 C5.58498957,3.13988483 5.60620423,3.18646484 5.64540523,3.18646484 L10.8960333,3.18646484 C10.9352343,3.18646484 10.956449,3.13988483 10.9315448,3.11036878 L8.30600018,0.0162568854 C8.28755266,-0.00541896181 8.25388591,-0.00541896181 8.23543838,0.0162568854 L8.23543838,0.0162568854 Z M0.291009779,17.7429778 L16.25089,17.7429778 L16.25089,17.047506 L0.291009779,17.047506 L0.291009779,17.7429778 Z M13.3274177,14.3454041 C13.0419422,14.7586287 12.6997405,14.9647799 12.3003515,14.9647799 C12.0194879,14.9647799 11.7930445,14.8674692 11.6205601,14.6733089 C11.4485368,14.4796099 11.3618335,14.1862941 11.3618335,13.7929006 C11.3618335,13.3801371 11.4531487,13.0351683 11.6353181,12.757533 C11.8179486,12.4798976 12.0692962,12.230856 12.3893609,12.0094856 C12.6600783,11.8425355 12.8680742,11.7009507 13.0133485,11.5856537 C13.159084,11.4703566 13.2633126,11.3582878 13.3274177,11.2503698 L13.3274177,14.3454041 Z M2.62277752,11.5819641 L4.18943396,7.50644368 L5.68921812,11.5819641 L2.62277752,11.5819641 Z M16.3864793,15.1192779 C16.1747939,15.2913012 15.9875515,15.3775434 15.8252132,15.3775434 C15.7066879,15.3775434 15.6241352,15.3268126 15.5775551,15.2267348 C15.5305139,15.1257346 15.5074545,14.9523278 15.5074545,14.7069757 L15.5074545,10.6014779 C15.5074545,10.0369835 15.4705595,9.59700996 15.3963082,9.28247958 C15.3225181,8.96794921 15.1800109,8.7055331 14.9678643,8.4938477 C14.5292743,8.04234441 13.7932179,7.81590098 12.7587726,7.81590098 C11.8377797,7.81590098 11.0689789,7.98515707 10.4532926,8.32459161 C9.89156535,8.64880694 9.61070171,9.07125537 9.61070171,9.59239808 C9.61070171,9.92583718 9.70801243,10.2039337 9.90263387,10.425304 C10.0972553,10.6462132 10.3573655,10.7564372 10.6825032,10.7564372 C10.9237046,10.7564372 11.137696,10.7089348 11.3249384,10.6130077 C11.5121808,10.5170805 11.6565327,10.3865642 11.757533,10.2223812 C11.858072,10.057737 11.9088027,9.87187815 11.9088027,9.66572701 C11.9088027,9.36641584 11.8299395,9.11691301 11.6722131,8.91767969 C11.5144868,8.71844637 11.2954224,8.57271088 11.0145587,8.47955086 C11.142769,8.3564136 11.3051073,8.26417595 11.5024959,8.20283792 C11.6994232,8.14149988 11.8963506,8.11060027 12.093278,8.11060027 C12.51711,8.11060027 12.8288732,8.23143159 13.0285678,8.47171066 C13.2278011,8.71291211 13.3274177,9.04173932 13.3274177,9.45957587 L13.3274177,10.6314552 C13.3274177,10.8376063 13.2314906,11.0266935 13.0391751,11.1987167 C12.8473208,11.3707399 12.534174,11.5390736 12.1011182,11.7037178 C11.6671401,11.8679009 11.4116418,11.9652116 11.3323174,11.9947276 C10.6087131,12.2599109 10.0737347,12.5647563 9.7287659,12.9083415 C9.42576523,13.2113422 9.26342697,13.5885942 9.2269931,14.0317961 L5.80036448,5.21479932 C5.64771118,5.22909615 5.47292083,5.23693635 5.27553227,5.23693635 C5.08828984,5.23693635 4.9134995,5.22909615 4.75070005,5.21479932 L1.30055083,14.0433258 C0.935750937,15.016433 0.502233992,15.5444935 0,15.6279686 L0,15.9300469 C0.305306614,15.900992 0.689476417,15.8857728 1.15250941,15.8857728 C1.72392164,15.8857728 2.34929289,15.900992 3.02954554,15.9300469 L3.02954554,15.6279686 C2.58080939,15.6132105 2.24644791,15.5325026 2.02415518,15.3844612 C1.80278483,15.2373421 1.69209965,14.977232 1.69209965,14.6036695 C1.69209965,14.190906 1.82953374,13.6310235 2.1057855,12.9230995 L2.50471333,11.8845036 L5.80036448,11.8845036 L6.70890531,14.3606233 C6.83204257,14.6848386 6.8938418,14.9228117 6.8938418,15.0754651 C6.8938418,15.2719312 6.8112891,15.4093653 6.64618371,15.4877673 C6.48107832,15.5666305 6.20897726,15.6132105 5.82941934,15.6279686 L5.82941934,15.9300469 C6.32704145,15.900992 7.09307512,15.8857728 8.12798152,15.8857728 C9.05358632,15.8857728 10.5123247,15.900992 11.1183261,15.9300469 C11.5712129,15.9300469 11.9973508,15.8281243 12.3962787,15.6242791 C12.7956677,15.4204339 13.1180383,15.1142049 13.3643128,14.7069757 C13.3643128,15.070392 13.4777651,15.3650913 13.7042085,15.5915347 C13.9311131,15.8170557 14.3000637,15.9300469 14.812905,15.9300469 C15.1920018,15.9300469 15.5171395,15.8857728 15.787857,15.7976858 C16.0590357,15.7091377 16.3103833,15.5693977 16.5418998,15.3775434 L16.3864793,15.1192779 Z" id="icon_textbigger" fill="#000000"></path>
    </g>
</svg>