<?xml version="1.0" encoding="utf-8"?>
<!-- Generator: Adobe Illustrator 16.0.0, SVG Export Plug-In . SVG Version: 6.00 Build 0)  -->
<!DOCTYPE svg PUBLIC "-//W3C//DTD SVG 1.1//EN" "http://www.w3.org/Graphics/SVG/1.1/DTD/svg11.dtd">
<svg version="1.1" id="Layer_1" xmlns="http://www.w3.org/2000/svg" xmlns:xlink="http://www.w3.org/1999/xlink" x="0px" y="0px"
	 width="512px" height="512px" viewBox="0 0 512 512" enable-background="new 0 0 512 512" xml:space="preserve">
<g id="Shape">
	<path fill="none" d="M76.019,4.338c-10.141-5.772-22.573-5.772-32.714,0c-10.076,5.728-16.316,16.409-16.357,27.999v447.326
		c0.051,11.58,6.29,22.249,16.357,27.972c10.143,5.767,22.572,5.767,32.714,0l392.65-223.664
		c15.44-8.674,20.926-28.222,12.252-43.663c-2.883-5.131-7.121-9.37-12.252-12.252L76.019,4.338z"/>
	<path d="M80.842,69.099v373.805L408.9,256.001L80.842,69.099 M59.669,0C65.32,0,70.971,1.443,76.03,4.33l392.661,223.708
		c10.118,5.761,16.361,16.417,16.361,27.963c0,11.547-6.243,22.204-16.361,27.963L76.03,507.673
		C70.965,510.566,65.323,512,59.669,512c-5.654,0-11.296-1.434-16.361-4.327c-10.117-5.761-16.361-16.416-16.361-27.963V32.294
		c0-11.547,6.244-22.203,16.361-27.964C48.367,1.443,54.018,0,59.669,0z"/>
</g>
</svg>
