
<svg width="15px" height="29px" viewBox="0 0 15 29" version="1.1" xmlns="http://www.w3.org/2000/svg" xmlns:xlink="http://www.w3.org/1999/xlink">
    <!-- Generator: Sketch 46.2 (44496) - http://www.bohemiancoding.com/sketch -->
    <desc>Created with Sketch.</desc>
    <defs></defs>
    <g id="Symbols" stroke="none" stroke-width="1" fill="none" fill-rule="evenodd">
        <g id="attachment" transform="translate(-24.000000, -15.000000)" fill="#B2B2B2">
            <g id="Group-7">
                <path d="M24,35.9057085 L24.0270081,20.2412439 C24.0270081,19.8335148 24.1016022,18.3906442 25.0623236,17.038678 C25.7233847,16.1083369 26.9850572,15 29.2384859,15 C31.549638,15 32.8024538,16.0313282 33.4467891,16.8972962 C34.3740789,18.143234 34.4744003,19.5923739 34.4744003,20.157966 L34.4499669,35.9106528 C34.4499669,36.4925967 34.451251,37.8584263 33.4956789,38.797622 C32.9117932,39.3707114 32.1040858,39.6623297 31.0970525,39.6623297 C29.1910348,39.6623297 28.056682,38.2573332 28.0540776,35.9030262 L28.045076,20.2172333 C28.045076,19.6820181 28.4875175,19.2477576 29.0315314,19.2464973 C29.5781168,19.2464973 30.0205582,19.6807577 30.0205582,20.2147126 L30.0282757,35.9005056 C30.0295598,37.7043766 30.7600918,37.7220534 31.081601,37.7220534 C31.5587615,37.7220534 31.8957123,37.6223299 32.0963551,37.4254036 C32.4731777,37.0555486 32.4731777,36.2817131 32.4731777,35.9093375 L32.4976144,20.1553581 C32.4976144,19.7817222 32.4358806,18.8248497 31.8507109,18.0409317 C31.3054129,17.3087837 30.4269833,16.9376361 29.2411692,16.9376361 C28.1106619,16.9376361 27.2515591,17.3441049 26.680514,18.14696 C26.1776559,18.8538693 26.0001591,19.7173167 26.0001591,20.241189 L25.9731511,35.9056535 C25.9744384,38.2018566 26.6689476,42.0595618 31.3092486,42.0608545 C35.6190849,42.0595909 36.5245127,38.7155171 36.5245127,35.9108241 L36.4820695,22.9301913 C36.4807822,22.3949761 36.9219099,21.9594553 37.4659568,21.9569347 C38.0138295,21.9569347 38.4562709,22.3886422 38.4575549,22.9226294 L38.4999981,35.90714 C38.5025695,41.0511779 35.881468,43.9987074 31.3118892,44 C26.7357089,43.9985991 24.002634,40.9727699 24,35.9057085 Z" id="Page-1"></path>
            </g>
        </g>
    </g>
</svg>