<svg width="32px" height="41px" viewBox="0 0 32 41" version="1.1" xmlns="http://www.w3.org/2000/svg" xmlns:xlink="http://www.w3.org/1999/xlink">
    <!-- Generator: Sketch 48.2 (47327) - http://www.bohemiancoding.com/sketch -->
    <desc>Created with Sketch.</desc>
    <defs></defs>
    <g id="Symbols" stroke="none" stroke-width="1" fill="none" fill-rule="evenodd">
        <g id="2-col-icon-copy-11" transform="translate(-90.000000, -15.000000)">
            <g id="Group" transform="translate(90.000000, 15.000000)">
                <g class="fillable">
                    <path d="M27.7647059,6.09315909 L24.3896941,6.09315909 L24.3896941,5.16134091 C24.3896941,4.38970227 23.7592,3.76361364 22.9779294,3.76361364 L21.0110118,3.76361364 C20.6029224,1.8198875 18.8731294,0.423977273 16.8657882,0.423977273 L15.1396706,0.423977273 C13.1323294,0.423977273 11.4007059,1.8198875 10.9926118,3.76361364 L9.02202353,3.76361364 C8.24075294,3.76361364 7.61025882,4.38970227 7.61025882,5.16134091 L7.61025882,6.09315909 L4.23524706,6.09315909 C1.89698824,6.09315909 -4.70588235e-05,7.97133182 -4.70588235e-05,10.2863409 L-4.70588235e-05,36.37725 C-4.70588235e-05,38.6940761 1.89698824,40.5704314 4.23524706,40.5704314 L27.7646588,40.5704314 C30.1029176,40.5704314 31.9999529,38.6940761 31.9999529,36.37725 L31.9999529,10.2863409 C31.9999529,7.97133182 30.1029176,6.09315909 27.7646588,6.09315909 L27.7647059,6.09315909 Z M10.4338824,6.55906818 L12.3162353,6.55906818 C13.0956235,6.55906818 13.728,5.93484318 13.728,5.16134091 L13.728,4.62265682 C13.728,3.84915455 14.3584941,3.22492955 15.1397647,3.22492955 L16.8677176,3.22492955 L16.8658776,3.22492955 C17.6452659,3.22492955 18.2776424,3.84915455 18.2776424,4.62265682 L18.2776424,5.16865568 L18.2776424,5.16683398 C18.2776424,5.93847261 18.9100188,6.56456125 19.6894071,6.56456125 L21.57176,6.56456125 L21.57176,9.74583511 L10.4338824,9.74765682 L10.4338824,6.55906818 Z" id="Fill-1"></path>
                </g>
                <polyline id="Stroke-3" stroke="#FFFFFF" stroke-width="3" stroke-linecap="round" stroke-linejoin="round" points="11 25.2 13.7 28 20 21"></polyline>
            </g>
        </g>
    </g>
</svg>