
<svg width="17px" height="16px" viewBox="0 0 17 16" version="1.1" xmlns="http://www.w3.org/2000/svg" xmlns:xlink="http://www.w3.org/1999/xlink">
    <g id="Tutor" stroke="none" stroke-width="1" fill="none" fill-rule="evenodd">
        <g id="Tutor-Action-Plan" transform="translate(-269.000000, -675.000000)">
            <g id="Group" transform="translate(250.000000, 661.000000)">
                <g id="Movie-Copy-3" transform="translate(19.000000, 14.000000)">
                    <path d="M16,8 L0.64,8" id="Midle-Line" stroke="#FFFFFF" stroke-width="3"></path>
                    <g id="Left" fill="#FFFFFF">
                        <path d="M2.88,0 L4.16,0 L4.16,16 L2.88,16 L2.88,15.36 L1.6,15.36 L1.6,16 L0.32,16 L0.32,0 L1.6,0 L1.6,0.64 L2.88,0.64 L2.88,0 Z M1.6,5.76 L1.6,7.04 L2.88,7.04 L2.88,5.76 L1.6,5.76 Z M1.6,8.96 L1.6,10.24 L2.88,10.24 L2.88,8.96 L1.6,8.96 Z M1.6,12.16 L1.6,13.44 L2.88,13.44 L2.88,12.16 L1.6,12.16 Z M1.6,2.56 L1.6,3.84 L2.88,3.84 L2.88,2.56 L1.6,2.56 Z" id="Fill-16-Copy-13"></path>
                    </g>
                    <g id="Right" transform="translate(12.800000, 0.000000)" fill="#FFFFFF">
                        <path d="M2.88,0 L4.16,0 L4.16,16 L2.88,16 L2.88,15.36 L1.6,15.36 L1.6,16 L0.32,16 L0.32,0 L1.6,0 L1.6,0.64 L2.88,0.64 L2.88,0 Z M1.6,5.76 L1.6,7.04 L2.88,7.04 L2.88,5.76 L1.6,5.76 Z M1.6,8.96 L1.6,10.24 L2.88,10.24 L2.88,8.96 L1.6,8.96 Z M1.6,12.16 L1.6,13.44 L2.88,13.44 L2.88,12.16 L1.6,12.16 Z M1.6,2.56 L1.6,3.84 L2.88,3.84 L2.88,2.56 L1.6,2.56 Z" id="Fill-16-Copy-13"></path>
                    </g>
                    <rect id="Btm-Line" fill="#FFFFFF" x="0.32" y="13.1911111" width="16.64" height="1.77777778"></rect>
                    <rect id="Btm-Line-Copy" fill="#FFFFFF" x="0.32" y="0.746666667" width="16.64" height="1.77777778"></rect>
                </g>
            </g>
        </g>
    </g>
</svg>