<?xml version="1.0" encoding="UTF-8" standalone="no"?>
<svg width="24px" height="24px" viewBox="0 0 24 24" version="1.1" xmlns="http://www.w3.org/2000/svg" xmlns:xlink="http://www.w3.org/1999/xlink">
    <!-- Generator: Sketch 40.3 (33839) - http://www.bohemiancoding.com/sketch -->
    <title>Calendar_icon</title>
    <desc>Created with Sketch.</desc>
    <defs></defs>
    <g id="UI-Style-Guide-Kit" stroke="none" stroke-width="1" fill="none" fill-rule="evenodd">
        <g id="Calendar_icon" fill="#FFFFFF">
            <rect id="Rectangle-path" x="6.48571429" y="0.0285714286" width="1.65714286" height="6.6"></rect>
            <rect id="Rectangle-path" x="15.8571429" y="0.0285714286" width="1.65714286" height="6.6"></rect>
            <path d="M6.54285714,11.7428571 C4.94285714,11.7428571 3.62857143,13.0571429 3.62857143,14.6285714 C3.62857143,16.2 4.94285714,17.5142857 6.54285714,17.5142857 C8.14285714,17.5142857 9.42857143,16.2571429 9.42857143,14.6571429 C9.42857143,13.0571429 8.14285714,11.7428571 6.54285714,11.7428571 L6.54285714,11.7428571 Z M6.54285714,15.8857143 C5.85714286,15.8857143 5.31428571,15.3142857 5.31428571,14.6285714 C5.31428571,13.9428571 5.88571429,13.3714286 6.54285714,13.3714286 C7.2,13.3714286 7.77142857,13.9428571 7.77142857,14.6285714 C7.77142857,15.3142857 7.22857143,15.8857143 6.54285714,15.8857143 L6.54285714,15.8857143 Z" id="Shape"></path>
            <rect id="Rectangle-path" x="4.45714286" y="18.7714286" width="4.14285714" height="1.65714286"></rect>
            <rect id="Rectangle-path" x="10.3428571" y="18.7714286" width="4.14285714" height="1.65714286"></rect>
            <rect id="Rectangle-path" x="10.3428571" y="13.8285714" width="4.14285714" height="1.65714286"></rect>
            <rect id="Rectangle-path" x="16.2" y="18.7714286" width="4.14285714" height="1.65714286"></rect>
            <rect id="Rectangle-path" x="16.2" y="13.8285714" width="4.14285714" height="1.65714286"></rect>
            <path d="M18.6571429,4.62857143 L22.1714286,4.62857143 L22.1714286,8.85714286 L1.82857143,8.85714286 L1.82857143,4.62857143 L5.34285714,4.62857143 L5.34285714,2.97142857 L0.171428571,2.97142857 L0.171428571,23.8857143 L23.8285714,23.8857143 L23.8285714,2.97142857 L18.6571429,2.97142857 L18.6571429,4.62857143 L18.6571429,4.62857143 Z M1.82857143,22.2285714 L1.82857143,10.5428571 L22.1714286,10.5428571 L22.1714286,22.2285714 L1.82857143,22.2285714 L1.82857143,22.2285714 Z" id="Shape"></path>
            <rect id="Rectangle-path" x="9.28571429" y="2.97142857" width="5.4" height="1.65714286"></rect>
        </g>
    </g>
</svg>