<svg xmlns="http://www.w3.org/2000/svg" width="81" height="95" viewBox="0 0 81 95">
    <path class="icon-profile-no-img" fill-opacity=".3" fill-rule="evenodd" d="M78.18 45.468c-1.354-1.704-3.314-2.3-4.914-2.269-.69.005-1.32.112-1.92.243l.002-.009c0-5.808 1.398-11.152 1.398-16.083 0-4.919-2.927-13.398-11.944-14.292 0 0-5.919-16.795-40.807-12.29 0 0 3.376 2.111 4.22 2.95l.843.847S16.476 4.141 11.412 7.8c0 0 3.519.988 4.221 2.952 0 0-9.917.635-13.787 4.504 0 0 4.923.56 4.923 13.363 0 3.888 1.147 9.971 2.974 14.546-.013.163-.035.317-.044.471a10.003 10.003 0 0 0-2.758-.439c-1.601-.032-3.562.565-4.91 2.27C.678 47.161 0 49.588 0 53.086c0 11.767 8.22 15.412 11.224 16.346C16.48 84.325 27.194 94.94 40.113 95c12.897-.06 23.613-10.675 28.868-25.566 3.007-.934 11.223-4.579 11.223-16.347.003-3.496-.674-5.95-2.024-7.618zM67.295 66.176l-1.059.178-.336 1.021c-4.894 14.56-14.856 24.063-25.784 24.017-10.928.047-20.912-9.457-25.777-24.017l-.362-1.02-1.059-.179c.022-.112-9.309-1.345-9.309-13.089.272-6.125 1.914-6.284 3.335-6.284 3.913 0 6.18 2.271 6.18 2.271l.04-2.729a73.105 73.105 0 0 1 1.076-10.013c3.403-9.55 7.591-10.877 9.344-10.877 1.757 0 7.805 1.051 12.024 1.051 10.41 0 13.085-2.672 19.695-2.672 6.282 0 10.703 13.986 11.128 15.378.313 2.316.547 4.691.635 7.133l.113 2.73s3.206-2.273 6.087-2.273c1.424 0 3.064.131 3.338 6.284-.001 11.745-9.309 12.977-9.309 13.09z" style="mix-blend-mode:multiply"/>
</svg>
