<?xml version="1.0" encoding="UTF-8"?>
<svg width="22px" height="22px" viewBox="0 0 22 22" version="1.1" xmlns="http://www.w3.org/2000/svg" xmlns:xlink="http://www.w3.org/1999/xlink">
    <!-- Generator: Sketch 41.2 (35397) - http://www.bohemiancoding.com/sketch -->
    <title>Shape</title>
    <desc>Created with Sketch.</desc>
    <defs></defs>
    <g id="Symbols" stroke="none" stroke-width="1" fill="none" fill-rule="evenodd">
        <g id="Edit-icon" transform="translate(-5.000000, -5.000000)" fill="#003057">
            <g id="Group-21" transform="translate(1.000000, 1.000000)">
                <g id="Group-33">
                    <g id="noun_592766_cc" transform="translate(4.687500, 4.687500)">
                        <g id="Group">
                            <g transform="translate(0.000000, 0.160427)" id="Shape">
                                <path d="M15.4448785,0.0910971037 C15.272796,0.111512914 15.1128556,0.189122009 14.9913194,0.311180945 L1.7505787,13.3904492 C1.64873863,13.4894847 1.57706164,13.6147513 1.54369213,13.7520155 L0.270543981,19.2855521 C0.211928749,19.5386904 0.289185971,19.8038164 0.475071281,19.9874348 C0.660956592,20.1710533 0.929355771,20.2473683 1.18561921,20.1894679 L6.78747106,18.931846 C6.92927778,18.9002594 7.05901799,18.8293634 7.16145833,18.7274824 L20.4021991,5.6482141 C20.6964421,5.35421859 20.6964421,4.88109109 20.4021991,4.58709558 L16.0734954,0.311180945 C15.9091473,0.146575761 15.6774836,0.0654684246 15.4448785,0.0910971037 Z M15.5324074,1.9067888 L18.7789352,5.12158491 L6.62037037,17.1318745 L3.37384259,13.9249386 L15.5324074,1.9067888 Z M2.72931134,15.4183646 L5.10054977,17.7606855 L2.03703704,18.4523776 L2.72931134,15.4183646 Z"></path>
                            </g>
                        </g>
                    </g>
                </g>
            </g>
        </g>
    </g>
</svg>