<svg xmlns="http://www.w3.org/2000/svg" width="25" height="28" viewBox="0 0 25 28">
    <path fill="#FFF" fill-rule="evenodd" d="M.426 10.489c.284.256.678.384 1.18.384.497 0 .884-.128 1.16-.384.277-.257.416-.613.416-1.07 0-.461-.134-.82-.4-1.077-.267-.256-.658-.384-1.176-.384-.523 0-.921.128-1.195.384C.137 8.6 0 8.958 0 9.42c0 .457.142.813.426 1.07m2.385-3.85L3.16.2A.19.19 0 0 0 2.969 0H.256a.19.19 0 0 0-.19.201l.346 6.437a.19.19 0 0 0 .191.18h2.017a.19.19 0 0 0 .19-.18m21.395-2.201a2.403 2.403 0 0 0-3.237-1.188c-1.178.565-1.64 1.983-1.134 3.187.086.205.134.407.171.607.039.215.059.427.065.64.008.21-.002.42-.021.63l-.053.628a95.625 95.625 0 0 1-.251 2.507c-.095.835-.2 1.669-.32 2.5a55.771 55.771 0 0 1-.315 1.924l-3.435 5.106a.004.004 0 0 1-.005.002 4.57 4.57 0 0 0-1.328-.196H7.712a4.577 4.577 0 0 0-4.577 4.577v2.635c0 .002.002.004.004.004H18.91a.005.005 0 0 0 .005-.004v-.974c0-.477.098-.947.29-1.384.879-2.013 3.445-8.09 3.445-8.09l.152-.362a.952.952 0 0 0 .072-.376c-.01-.845.02-1.686.057-2.526.039-.84.093-1.678.159-2.516.064-.838.143-1.674.23-2.51l.066-.626c.02-.209.051-.417.099-.623.046-.207.106-.412.184-.616.08-.203.173-.405.311-.603.464-.667.58-1.557.226-2.353M5.492 13.663a5.485 5.485 0 1 1 10.97 0 5.485 5.485 0 0 1-10.97 0"/>
</svg>
