<svg width="60" height="50" viewBox="0 0 60 50" fill="none" xmlns="http://www.w3.org/2000/svg">
<path fill-rule="evenodd" clip-rule="evenodd" d="M5.40543 26.2626H14.5946V20.7071H5.40543V26.2626ZM16.2162 19.6969V27.2727C16.2162 27.552 15.9746 27.7778 15.6757 27.7778H4.32432C4.0254 27.7778 3.78378 27.552 3.78378 27.2727V19.6969C3.78378 19.4177 4.0254 19.1919 4.32432 19.1919H15.6757C15.9746 19.1919 16.2162 19.4177 16.2162 19.6969V19.6969ZM45.4054 26.2626H54.5946V20.7071H45.4054V26.2626ZM56.2162 19.6969V27.2727C56.2162 27.552 55.9746 27.7778 55.6757 27.7778H44.3243C44.0254 27.7778 43.7838 27.552 43.7838 27.2727V19.6969C43.7838 19.4177 44.0254 19.1919 44.3243 19.1919H55.6757C55.9746 19.1919 56.2162 19.4177 56.2162 19.6969V19.6969ZM41.6216 35.8288H58.3784V14.1414H41.6054L41.6216 35.8288ZM39.9989 35.8586C39.9957 31.1268 39.987 16.5667 39.98 9.93286H20.02C20.013 16.5667 20.0043 31.1268 20.0011 35.8586H24.8735V24.1813C24.8735 23.6571 25.3281 23.2324 25.8892 23.2324H34.1108C34.6719 23.2324 35.1265 23.6571 35.1265 24.1813V35.8586H39.9989ZM26.4946 35.8586H33.5049V24.7475H26.4946V35.8586ZM26.4865 6.56563H33.5135V2.86209H26.4865V6.56563ZM18.3946 14.1414H1.62164V35.8288H18.3784L18.3946 14.1414ZM33.0227 8.01503H46.3176C47.0278 8.01503 47.6042 8.51378 47.6042 9.12948V26.9596H33.0227H27.0636H20.5406H14.5815H0V9.12948C0 8.51378 0.576396 8.01503 1.2866 8.01503H14.5815L14.6008 5.09756C14.6012 4.89682 14.7933 4.73615 15.0296 4.73615H19.7279V0.36432C19.7279 0.162851 19.9196 0 20.1567 0H27.4474C27.6846 0 27.8763 0.162851 27.8763 0.36432V4.73615H32.5745C32.8109 4.73615 33.003 4.89682 33.0034 5.09756L33.0227 8.01503ZM0 50.0001H60V47.6147H0V50.0001ZM0 43.7995H60V41.4142H0V43.7995Z" fill="#E0E0E0"/>
</svg>
