<svg width="32px" height="40px" viewBox="0 0 32 40" version="1.1" xmlns="http://www.w3.org/2000/svg" xmlns:xlink="http://www.w3.org/1999/xlink">
    <!-- Generator: Sketch 48.2 (47327) - http://www.bohemiancoding.com/sketch -->
    <desc>Created with Sketch.</desc>
    <defs></defs>
    <g id="Symbols" stroke="none" stroke-width="1" fill="none" fill-rule="evenodd">
        <g class="fillable" transform="translate(-90.000000, -16.000000)">
            <g id="Page-1" transform="translate(90.000000, 16.000000)">
                <path d="M27.7647529,5.64850067 L24.3897412,5.64850067 L24.3897412,4.72008176 C24.3897412,3.95125805 23.7592471,3.32745339 22.9779765,3.32745339 L21.0110588,3.32745339 C20.6029694,1.39081795 18.8731765,0 16.8658353,0 L15.1397176,0 C13.1323765,0 11.4007529,1.39081795 10.9926588,3.32745339 L9.02207059,3.32745339 C8.2408,3.32745339 7.61030588,3.95125805 7.61030588,4.72008176 L7.61030588,5.64850067 L4.23529412,5.64850067 C1.89703529,5.64850067 0,7.51982183 0,9.82638578 L0,35.8221154 C0,38.1304897 1.89703529,40 4.23529412,40 L27.7647059,40 C30.1029647,40 32,38.1304897 32,35.8221154 L32,9.82638578 C32,7.51982183 30.1029647,5.64850067 27.7647059,5.64850067 L27.7647529,5.64850067 Z M10.4339294,6.11271013 L12.3162824,6.11271013 C13.0956706,6.11271013 13.7280471,5.4907623 13.7280471,4.72008176 L13.7280471,4.18336278 C13.7280471,3.41268224 14.3585412,2.79073441 15.1398118,2.79073441 L16.8677647,2.79073441 L16.8659247,2.79073441 C17.6453129,2.79073441 18.2776894,3.41268224 18.2776894,4.18336278 L18.2776894,4.72736984 L18.2776894,4.72555479 C18.2776894,5.49437849 18.9100659,6.11818316 19.6894541,6.11818316 L21.5718071,6.11818316 L21.5718071,9.28785175 L10.4339294,9.28966681 L10.4339294,6.11271013 Z M29.1765176,35.8221154 C29.1765176,36.5927959 28.5441412,37.2147437 27.7647529,37.2147437 L4.23534118,37.2147437 C3.45595294,37.2147437 2.82357647,36.5927959 2.82357647,35.8221154 L2.82357647,9.82638578 C2.82357647,9.05756208 3.45595294,8.43375741 4.23534118,8.43375741 L7.61035294,8.43375741 L7.61035294,10.6768175 C7.61035294,11.4456412 8.24084706,12.0694459 9.02211765,12.0694459 L22.9778824,12.0694459 C23.7591529,12.0694459 24.3896471,11.4456412 24.3896471,10.6768175 L24.3896471,8.43375741 L27.7646588,8.43375741 C28.5440471,8.43375741 29.1764235,9.05756208 29.1764235,9.82638578 L29.1765176,35.8221154 Z" id="Fill-1"></path>
                <polygon id="Fill-2" points="7 27 26 27 26 24 7 24"></polygon>
                <polygon id="Fill-3" points="7 21 19 21 19 18 7 18"></polygon>
                <polygon id="Fill-4" points="7 32 26 32 26 29 7 29"></polygon>
            </g>
        </g>
    </g>
</svg>