<svg xmlns="http://www.w3.org/2000/svg" width="92" height="80" viewBox="0 0 92 80">
    <path fill="#EBEBEB" fill-rule="nonzero" d="M70.731 43.095c0-1.112.88-2.013 1.963-2.013 1.083 0 1.962.901 1.957 1.942l3.021 22.253c0 .794-.455 1.515-1.164 1.839l-28.187 12.71a1.926 1.926 0 0 1-1.6-.001l-29.388-13.2c-.705-.324-1.158-1.044-1.155-1.896l2.98-26.257L.857 26.339a2.029 2.029 0 0 1-.852-1.794 2.015 2.015 0 0 1 1.079-1.669L46.633.22a1.913 1.913 0 0 1 1.824.026L90.435 22.91a2.023 2.023 0 0 1 1.017 1.736 2.02 2.02 0 0 1-.961 1.76L48.515 52.737c-.611.367-1.37.369-1.979.006l-19.818-11.61c-.937-.559-1.254-1.792-.708-2.753.546-.96 1.748-1.286 2.68-.728l18.82 11.015 38.012-23.915L47.483 4.284 5.85 24.93l16.41 10.828c.536.376.856.998.852 1.723l-2.973 26.02 27.384 12.283 26.175-11.792-2.967-20.897zm14.643 12.548c-.806 0-1.459-.67-1.459-1.498v-20.92c0-.827.653-1.497 1.459-1.497s1.46.67 1.46 1.497v20.92c0 .827-.654 1.498-1.46 1.498zm5.167-6.315c-.806 0-1.46-.67-1.46-1.497V31.16c0-.827.654-1.496 1.46-1.496.805 0 1.459.67 1.459 1.497V47.83c0 .826-.654 1.497-1.459 1.497zM80.208 52.53c-.805 0-1.459-.67-1.459-1.498V36.088c0-.827.654-1.498 1.459-1.498.806 0 1.46.67 1.46 1.498v14.944c0 .828-.654 1.5-1.46 1.5z" style="mix-blend-mode:multiply"/>
</svg>
