<svg width="58" height="39" viewBox="0 0 58 39" fill="none" xmlns="http://www.w3.org/2000/svg">
<path fill-rule="evenodd" clip-rule="evenodd" d="M28.9999 30.4147C26.3439 29.1244 22.4919 27.6928 18.4999 27.6928C15.3599 27.6928 11.9059 28.1528 8.23389 29.0627L10.6019 8.64586C12.3199 7.96092 15.6719 6.78616 18.3819 6.78616C22.4139 6.78616 26.3519 9.3308 26.3899 9.35271L28.9919 11.079L31.5939 9.36863C31.6319 9.34474 34.5699 7.46314 37.9679 6.94147L40.2819 27.7167C36.0619 27.5057 31.8279 29.0388 28.9999 30.4147Z" fill="black"/>
<path fill-rule="evenodd" clip-rule="evenodd" d="M51.75 5.48C51.75 5.48 45.218 2.119 39.618 2.119C34.016 2.119 29 5.48 29 5.48C29 5.48 23.984 2.119 18.382 2.119C12.782 2.119 6.25 5.48 6.25 5.48L2.75 35.721C2.75 35.721 10.68 32.36 18.5 32.36C23.632 32.36 29 35.721 29 35.721C29 35.721 34.368 32.36 39.5 32.36C47.32 32.36 55.25 35.721 55.25 35.721L51.75 5.48Z" stroke="black" stroke-width="4"/>
</svg>
