
<svg width="21px" height="21px" viewBox="0 0 21 21" version="1.1" xmlns="http://www.w3.org/2000/svg" xmlns:xlink="http://www.w3.org/1999/xlink">
    <!-- Generator: Sketch 48.2 (47327) - http://www.bohemiancoding.com/sketch -->
    <desc>Created with Sketch.</desc>
    <defs></defs>
    <g id="Page-1" stroke="none" stroke-width="1" fill="none" fill-rule="evenodd">
        <g id="4.-Qualification-page-(step-1---full-height)-Copy-5" class="fillable" transform="translate(-1197.000000, -220.000000)" fill-rule="nonzero">
            <g id="basket" transform="translate(1197.000000, 220.000000)">
                <path d="M20.3297872,6.97021277 C20.106383,6.70212766 19.793617,6.56808511 19.4808511,6.56808511 L19.1680851,6.56808511 L12.6,0.491489362 C12.3319149,0.223404255 11.8851064,0.268085106 11.6617021,0.536170213 C11.393617,0.804255319 11.4382979,1.25106383 11.706383,1.47446809 L17.1574468,6.56808511 L3.39574468,6.56808511 L8.84680851,1.47446809 C9.11489362,1.20638298 9.11489362,0.804255319 8.89148936,0.536170213 C8.66808511,0.268085106 8.2212766,0.268085106 7.95319149,0.491489362 L1.42978723,6.56808511 L1.11702128,6.56808511 C0.759574468,6.56808511 0.446808511,6.70212766 0.268085106,6.97021277 C0.0446808511,7.23829787 -0.0446808511,7.59574468 0.0446808511,7.90851064 L2.45744681,18.9893617 C2.59148936,19.7042553 3.26170213,20.2404255 3.97659574,20.2404255 L16.6212766,20.2404255 C17.3361702,20.2404255 18.006383,19.7042553 18.1404255,18.9893617 L20.5531915,7.90851064 C20.5978723,7.59574468 20.5085106,7.23829787 20.3297872,6.97021277 Z M16.8,18.7212766 C16.8,18.8106383 16.6659574,18.9 16.5765957,18.9 L3.97659574,18.9 C3.88723404,18.9 3.79787234,18.8106383 3.75319149,18.7212766 L1.38510638,7.90851064 L19.1680851,7.90851064 L16.8,18.7212766 Z" id="Shape"></path>
                <path d="M10.2765957,10.6340426 C9.91914894,10.6340426 9.60638298,10.9468085 9.60638298,11.3042553 L9.60638298,14.9680851 C9.60638298,15.3255319 9.91914894,15.6382979 10.2765957,15.6382979 C10.6340426,15.6382979 10.9468085,15.3255319 10.9468085,14.9680851 L10.9468085,11.3042553 C10.9468085,10.9021277 10.6340426,10.6340426 10.2765957,10.6340426 Z" id="Shape"></path>
                <path d="M6.25531915,10.6340426 C5.89787234,10.6340426 5.58510638,10.9468085 5.58510638,11.3042553 L5.58510638,14.9680851 C5.58510638,15.3255319 5.89787234,15.6382979 6.25531915,15.6382979 C6.61276596,15.6382979 6.92553191,15.3255319 6.92553191,14.9680851 L6.92553191,11.3042553 C6.92553191,10.9021277 6.61276596,10.6340426 6.25531915,10.6340426 Z" id="Shape"></path>
                <path d="M14.2978723,10.6340426 C13.9404255,10.6340426 13.6276596,10.9468085 13.6276596,11.3042553 L13.6276596,14.9680851 C13.6276596,15.3255319 13.9404255,15.6382979 14.2978723,15.6382979 C14.6553191,15.6382979 14.9680851,15.3255319 14.9680851,14.9680851 L14.9680851,11.3042553 C14.9680851,10.9021277 14.6553191,10.6340426 14.2978723,10.6340426 Z" id="Shape"></path>
            </g>
        </g>
    </g>
</svg>