
<svg width="26px" height="25px" viewBox="0 0 26 25" version="1.1" xmlns="http://www.w3.org/2000/svg" xmlns:xlink="http://www.w3.org/1999/xlink">
    <g id="Super-Admin-Cards" stroke="none" stroke-width="1" fill="none" fill-rule="evenodd">
        <g id="Group" transform="translate(-1260.000000, -85.000000)" fill="#6D6D6D">
            <g id="Large-List-View-Row---Hover-Copy" transform="translate(24.000000, 54.000000)">
                <path d="M1248.45833,50.4444444 L1248.29583,50.4444444 C1246.21908,50.4444444 1244.37958,48.5833333 1244.14992,46.3566667 C1243.19008,46.0277778 1242.50108,44.83 1242.50108,43.7777778 L1242.50108,42.6666667 C1242.50108,41.9422222 1242.95392,41.3244444 1243.58442,41.0955556 L1243.58442,39.6666667 C1243.58442,37.7455556 1244.63092,36.4433333 1246.1985,36.3911111 C1246.49317,36.2855556 1246.80083,36.1688889 1247.11392,36.0455556 C1248.25792,35.6033333 1249.442,35.1444444 1250.50908,35.1444444 C1252.38325,35.1444444 1253.33442,36.5544444 1253.33442,39.3333333 L1253.33442,41.2177778 C1253.76342,41.4711111 1254.41775,41.9722222 1254.41775,42.6666667 L1254.41775,43.7777778 C1254.41775,44.7855556 1253.61175,46.0233333 1252.60533,46.3588889 C1252.3735,48.5833333 1250.53508,50.4444444 1248.45833,50.4444444 L1248.45833,50.4444444 Z M1250.50692,36.2555556 C1251.02908,36.2555556 1252.25,36.2555556 1252.25,39.3311111 L1252.25,41.5533333 C1252.25,41.7722222 1252.37567,41.9711111 1252.57067,42.06 C1252.91733,42.22 1253.31058,42.5333333 1253.33333,42.6644444 L1253.33333,43.7755556 C1253.33333,44.4588889 1252.63567,45.3288889 1252.0875,45.3288889 C1251.78958,45.3288889 1251.54583,45.58 1251.54583,45.8844444 C1251.54583,47.7222222 1250.10283,49.3311111 1248.45833,49.3311111 L1248.29583,49.3311111 C1246.65133,49.3311111 1245.20833,47.7188889 1245.20833,45.8844444 C1245.20833,45.58 1244.96567,45.3288889 1244.66667,45.3288889 C1244.11958,45.3288889 1243.58333,44.4411111 1243.58333,43.7755556 L1243.58333,42.6644444 C1243.58333,42.3588889 1243.826,42.1088889 1244.125,42.1088889 C1244.424,42.1088889 1244.66667,41.8588889 1244.66667,41.5533333 L1244.66667,39.6644444 C1244.66667,38.62 1245.0935,37.4977778 1246.29167,37.4977778 C1246.35125,37.4977778 1246.40975,37.49 1246.46608,37.47 C1246.79542,37.3522222 1247.141,37.2188889 1247.49417,37.0822222 C1248.54825,36.6777778 1249.63808,36.2555556 1250.50692,36.2555556 Z M1257.71758,56 L1239.25,56 C1238.951,56 1238.70833,55.7511111 1238.70833,55.4444444 C1238.70833,51.96 1241.29208,49.3333333 1244.71758,49.3333333 C1245.01658,49.3333333 1245.25925,49.5822222 1245.25925,49.8888889 C1245.25925,50.1955556 1245.01658,50.4444444 1244.71758,50.4444444 C1242.04933,50.4444444 1240.06467,52.2822222 1239.81767,54.8888889 L1257.151,54.8888889 C1256.90292,52.2822222 1254.91825,50.4444444 1252.25108,50.4444444 C1251.95317,50.4444444 1251.70942,50.1955556 1251.70942,49.8888889 C1251.70942,49.5822222 1251.95317,49.3333333 1252.25108,49.3333333 C1255.67658,49.3333333 1258.26033,51.96 1258.26033,55.4444444 C1258.25925,55.7511111 1258.01658,56 1257.71758,56 Z M1236.54167,42.1088889 C1236.24267,42.1088889 1236,41.86 1236,41.5533333 C1236,39.7155556 1237.45817,38.22 1239.25,38.22 C1239.549,38.22 1239.79167,38.4688889 1239.79167,38.7755556 C1239.79167,39.0822222 1239.549,39.3311111 1239.25,39.3311111 C1238.05508,39.3311111 1237.08333,40.3266667 1237.08333,41.5533333 C1237.08333,41.86 1236.84067,42.1088889 1236.54167,42.1088889 Z M1261.45833,42.1088889 C1261.16042,42.1088889 1260.91667,41.86 1260.91667,41.5533333 C1260.91667,40.3266667 1259.946,39.3311111 1258.75,39.3311111 C1258.45208,39.3311111 1258.20833,39.0822222 1258.20833,38.7755556 C1258.20833,38.4688889 1258.45208,38.22 1258.75,38.22 C1260.54183,38.22 1262,39.7155556 1262,41.5533333 C1262,41.86 1261.75625,42.1088889 1261.45833,42.1088889 Z M1241.41667,38.7777778 C1239.66925,38.7777778 1238.70833,35.0222222 1238.70833,33.7777778 C1238.70833,32.2455556 1239.92383,31 1241.41667,31 C1242.9095,31 1244.125,32.2455556 1244.125,33.7777778 C1244.125,35.0222222 1243.16408,38.7777778 1241.41667,38.7777778 Z M1241.41667,32.1111111 C1240.52075,32.1111111 1239.79167,32.8588889 1239.79167,33.7777778 C1239.79167,35.0833333 1240.77967,37.6666667 1241.41667,37.6666667 C1242.05367,37.6666667 1243.04167,35.0833333 1243.04167,33.7777778 C1243.04167,32.8588889 1242.31258,32.1111111 1241.41667,32.1111111 Z M1256.58333,38.7777778 C1254.83592,38.7777778 1253.875,35.0222222 1253.875,33.7777778 C1253.875,32.2455556 1255.0905,31 1256.58333,31 C1258.07617,31 1259.29167,32.2455556 1259.29167,33.7777778 C1259.29167,35.0222222 1258.33075,38.7777778 1256.58333,38.7777778 Z M1256.58333,32.1111111 C1255.68742,32.1111111 1254.95833,32.8588889 1254.95833,33.7777778 C1254.95833,35.0833333 1255.94633,37.6666667 1256.58333,37.6666667 C1257.22033,37.6666667 1258.20833,35.0833333 1258.20833,33.7777778 C1258.20833,32.8588889 1257.47925,32.1111111 1256.58333,32.1111111 Z" id="icon_group"></path>
            </g>
        </g>
    </g>
</svg>