
<svg width="21px" height="21px" viewBox="0 0 21 21" version="1.1" xmlns="http://www.w3.org/2000/svg" xmlns:xlink="http://www.w3.org/1999/xlink">
    <g id="Tutor" stroke="none" stroke-width="1" fill="none" fill-rule="evenodd">
        <g id="Tutor-Unit-Progress" transform="translate(-1154.000000, -994.000000)">
            <g id="quote" transform="translate(1154.000000, 995.000000)">
                <path d="M10.0452,0 C4.786,0 0.5204,3.7764 0.5204,8.4344 C0.5204,10.7968 1.6204,12.9296 3.386,14.4608 C3.386,17.208 0.9172,18.564 0.3688,19.042 C2.9032,19.7236 6.3984,18.064 8.0436,16.6796 C8.6892,16.8016 9.358,16.8704 10.0452,16.8704 C15.3048,16.8704 19.5688,13.092 19.5688,8.4344 C19.5688,3.7764 15.3048,0 10.0452,0 L10.0452,0 Z" id="Stroke-1" stroke="#9B9B9B" stroke-linecap="round" stroke-linejoin="round"></path>
                <path d="M9.4,8.7796 C9.4,9.1876 9.3468,9.5936 9.2452,9.992 C9.1436,10.3908 8.9908,10.7624 8.7876,11.1048 C8.5812,11.4484 8.3264,11.75 8.022,12.0092 C7.7156,12.2688 7.3484,12.4548 6.922,12.564 L6.922,11.3688 C7.1624,11.2936 7.3672,11.1608 7.5344,10.9656 C7.7016,10.7704 7.8408,10.5436 7.9532,10.2844 C8.0624,10.0236 8.142,9.758 8.1876,9.4908 C8.2344,9.222 8.2484,8.9752 8.2296,8.7532 L7.0608,8.7532 L7.0608,5.8016 L9.4,5.8016 L9.4,8.7796 Z M13.6844,8.7796 C13.6844,9.1876 13.6344,9.5936 13.5312,9.992 C13.4296,10.3908 13.2764,10.7624 13.0736,11.1048 C12.8688,11.4484 12.614,11.75 12.308,12.0092 C12.0016,12.2688 11.6344,12.4548 11.208,12.564 L11.208,11.3688 C11.4484,11.2936 11.6532,11.1608 11.8204,10.9656 C11.9876,10.7704 12.1264,10.5436 12.2376,10.2844 C12.35,10.0236 12.428,9.758 12.4752,9.4908 C12.5204,9.222 12.5344,8.9752 12.5156,8.7532 L11.3468,8.7532 L11.3468,5.8016 L13.686,5.8016 L13.686,8.7796 L13.6844,8.7796 Z" id="Fill-2" fill="#9B9B9B"></path>
            </g>
        </g>
    </g>
</svg>