
<svg width="21px" height="36px" viewBox="0 0 21 36" version="1.1" xmlns="http://www.w3.org/2000/svg" xmlns:xlink="http://www.w3.org/1999/xlink">
    <!-- Generator: Sketch 46.2 (44496) - http://www.bohemiancoding.com/sketch -->
    <desc>Created with Sketch.</desc>
    <defs></defs>
    <g id="Symbols" stroke="none" stroke-width="1" fill="none" fill-rule="evenodd">
        <g id="Business_member-Icon" transform="translate(-43.000000, -150.000000)" stroke="#000000">
            <g id="Group-10">
                <g id="Group-9" transform="translate(44.000000, 148.000000)">
                    <g id="taining-app-icon" transform="translate(0.000000, 3.000000)">
                        <g id="Page-1">
                            <path d="M-0.160000384,5.10499998 L19.1600004,5.10499998" id="Stroke-1" stroke-width="1.26000005" stroke-linecap="round"></path>
                            <path d="M19.1600004,28.055 L-0.160000384,28.055" id="Stroke-2" stroke-width="1.26000005" stroke-linecap="round"></path>
                            <path d="M-0.160000384,6.86700703 L-0.160000384,32.386879 C-0.160000384,33.1672183 0.485217788,33.7983639 1.27922384,33.7983639 L17.7207762,33.8000007 C18.5164511,33.8000007 19.1600004,33.1672183 19.1600004,32.3885158 L19.1600004,1.6147623 C19.1600004,0.83442304 18.5147822,0.203277815 17.7207762,0.203277815 L1.28093552,0.199999332 C0.48526058,0.199999332 -0.158288703,0.83278212 -0.158288703,1.61148466 L-0.159961871,6.86704481" id="Stroke-3" stroke-width="1.26000005" stroke-linecap="round"></path>
                            <path d="M12.3982609,2.55499998 L11.5582609,2.55499998" id="Stroke-4" stroke-width="1.26000005" stroke-linecap="round"></path>
                            <path d="M9.93391309,2.55499998 L7.41391299,2.55499998" id="Stroke-5" stroke-width="1.26000005" stroke-linecap="round"></path>
                            <path d="M10.7600001,31.025 C10.7600001,32.7050001 8.23999995,32.7050001 8.23999995,31.025 C8.23999995,29.3449999 10.7600001,29.3449999 10.7600001,31.025" id="Stroke-6" stroke-width="1.26000005" stroke-linecap="round"></path>
                            <path d="M12.4469567,17 C12.4469567,18.8551739 10.9421304,20.3600001 9.08695652,20.3600001 C7.23178266,20.3600001 5.72695639,18.8551739 5.72695639,17 C5.72695639,15.1430928 7.23178266,13.6399999 9.08695652,13.6399999 C10.9421304,13.6399999 12.4469567,15.1431362 12.4469567,17" id="Stroke-7" stroke-width="0.840000033" stroke-linecap="round" stroke-linejoin="round"></path>
                            <path d="M9.07999998,24.6300001 L9.07999998,21.2699999" id="Stroke-8" stroke-width="0.840000033" stroke-linecap="round" stroke-linejoin="round"></path>
                            <path d="M6.78985034,21.8653693 L5.1321937,21.2799999 C3.94912566,22.3456702 3.20695629,23.8833162 3.20695629,25.5928886 C3.20695629,25.8380427 3.22210383,26.0815147 3.25239461,26.3200001 L14.9215184,26.3200001 C14.9518092,26.081519 14.9669568,25.8396992 14.9669568,25.5928886 C14.9669568,23.883487 14.2231072,22.345841 13.0400392,21.2799999 L11.3891464,21.9687727" id="Stroke-9" stroke-width="0.840000033" stroke-linecap="round" stroke-linejoin="round"></path>
                            <path d="M11.6069566,21.857134 C8.91720931,20.5360823 6.56695642,21.857134 6.56695642,21.857134 L9.06594532,24.6300001 L11.6069566,21.857134 Z" id="Stroke-10" stroke-width="0.840000033" stroke-linecap="round" stroke-linejoin="round"></path>
                            <path d="M5.80347831,8.92559818 C5.80347831,10.6048007 3.28347821,10.6048007 3.28347821,8.92559818 C3.28347821,7.24480054 5.80347831,7.24480054 5.80347831,8.92559818" id="Stroke-11" stroke-width="0.5"></path>
                            <path d="M4.9495652,11.89 L4.9495652,10.21" id="Stroke-12" stroke-width="0.5"></path>
                            <path d="M3.72292115,10.4058361 L3.13159595,10.2113966 C2.70965776,10.5667034 2.44347818,11.0786877 2.44347818,11.6480008 C2.44347818,11.7305329 2.44952578,11.8102647 2.46011489,11.89 L6.62684164,11.89 C6.63742687,11.8102647 6.64347834,11.7291327 6.64347834,11.6480008 C6.64347834,11.0772553 6.3788126,10.5653104 5.95536057,10.21 L5.36554534,10.4394083" id="Stroke-13" stroke-width="0.5"></path>
                            <path d="M4.97043482,10.5039935 C4.07396151,9.84250811 3.29043475,10.5039935 3.29043475,10.5039935 L4.12384279,11.89 L4.97043482,10.5039935 Z" id="Stroke-14" stroke-width="0.5"></path>
                            <polygon id="Stroke-15" stroke-width="0.5" points="1.60347814 6.83499988 7.48347838 6.83499988 7.48347838 12.7150001 1.60347814 12.7150001"></polygon>
                        </g>
                    </g>
                </g>
            </g>
        </g>
    </g>
</svg>