<?xml version="1.0" encoding="UTF-8"?>
<svg width="44px" height="37px" viewBox="0 0 44 37" version="1.1" xmlns="http://www.w3.org/2000/svg" xmlns:xlink="http://www.w3.org/1999/xlink">
    <!-- Generator: Sketch 53.2 (72643) - https://sketchapp.com -->
    <title>hard-drive</title>
    <desc>Created with Sketch.</desc>
    <g id="Assessment-Tool-Revision-" stroke="none" stroke-width="1" fill="none" fill-rule="evenodd">
        <g id="Task-4" transform="translate(-664.000000, -1377.000000)" fill="#4A4A4A" fill-rule="nonzero">
            <g id="POPUP-AND-SCREEN" transform="translate(0.000000, 786.000000)">
                <g id="ADD-EVEDENCE-POPUP" transform="translate(403.000000, 181.000000)">
                    <g id="hard-drive" transform="translate(261.000000, 410.000000)">
                        <path d="M43.496656,20.9799098 L37.8584419,3.48962568 C37.5340046,2.46969945 36.933139,1.6422541 36.0557449,1.00739071 C35.1783508,0.372527322 34.2144601,0.0551967213 33.1655763,0.0551967213 L10.7882187,0.0551967213 C9.73863326,0.0551967213 8.77564465,0.372325137 7.89794989,1.00739071 C7.02025513,1.6422541 6.41928929,2.46969945 6.09515262,3.48962568 L0.457840547,20.9799098 C0.152646925,21.9424153 0,22.6639153 0,23.1449153 L0,32.3808634 C0,33.6504891 0.448118451,34.7371366 1.34475626,35.6418169 C2.24149431,36.5464973 3.31934396,36.9986858 4.57850569,36.9986858 L39.3751891,36.9986858 C40.6340501,36.9986858 41.712,36.5464973 42.6090387,35.6418169 C43.5055763,34.7371366 43.9531936,33.6504891 43.9531936,32.3808634 L43.9531936,23.1449153 C43.9531936,22.6639153 43.8018497,21.9424153 43.496656,20.9799098 Z M9.58638724,4.61478962 C9.66286105,4.36468579 9.81530752,4.15774863 10.0442278,3.99448361 C10.2733485,3.83081421 10.5212118,3.74903005 10.7882187,3.74903005 L33.1652756,3.74903005 C33.4324829,3.74903005 33.6808474,3.8309153 33.9095672,3.99448361 C34.1383872,4.15774863 34.2910342,4.36468579 34.3671071,4.61478962 L38.8596173,18.5268907 L5.09377677,18.5268907 L9.58638724,4.61478962 Z M40.291672,32.3809645 C40.291672,32.630765 40.2003645,32.8469016 40.0192528,33.0299809 C39.8375399,33.212959 39.6234533,33.3036393 39.3757904,33.3036393 L4.57850569,33.3036393 C4.33054214,33.3036393 4.11595444,33.212959 3.9347426,33.0299809 C3.75363098,32.8469016 3.66292483,32.630765 3.66292483,32.3809645 L3.66292483,23.1450164 C3.66292483,22.8944071 3.75363098,22.6786749 3.9347426,22.4951913 C4.11605467,22.3129208 4.33054214,22.2219372 4.57850569,22.2219372 L39.3758907,22.2219372 C39.6235535,22.2219372 39.8378405,22.3125164 40.0193531,22.4951913 C40.2004647,22.6785738 40.2913713,22.8944071 40.2913713,23.1450164 L40.2913713,32.3809645 L40.291672,32.3809645 Z" id="Shape"></path>
                        <path d="M27.4711344,25.453776 C26.8414032,25.453776 26.3022779,25.6793142 25.8542597,26.1319071 C25.4059408,26.5843989 25.1813303,27.1278743 25.1813303,27.7627377 C25.1813303,28.3975 25.4055399,28.9413798 25.8542597,29.3935683 C26.3025786,29.8461612 26.8414032,30.0715984 27.4711344,30.0715984 C28.1008656,30.0715984 28.6400911,29.8461612 29.0880091,29.3935683 C29.5360273,28.9416831 29.7610387,28.3979044 29.7610387,27.7627377 C29.7610387,27.1278743 29.5367289,26.5836913 29.0880091,26.1319071 C28.6394897,25.6797186 28.1009658,25.453776 27.4711344,25.453776 Z" id="Path"></path>
                        <path d="M34.7968838,25.453776 C34.1671526,25.453776 33.6279271,25.6800219 33.1796082,26.1319071 C32.7312893,26.5843989 32.5073804,27.1278743 32.5073804,27.7627377 C32.5073804,28.3975 32.7312893,28.9413798 33.1796082,29.3935683 C33.6279271,29.8461612 34.1671526,30.0715984 34.7968838,30.0715984 C35.4259134,30.0715984 35.9658405,29.8461612 36.4137585,29.3935683 C36.8617768,28.9416831 37.0867882,28.3979044 37.0867882,27.7627377 C37.0867882,27.1278743 36.8624784,26.5836913 36.4137585,26.1319071 C35.9650387,25.6797186 35.4260137,25.453776 34.7968838,25.453776 Z" id="Path"></path>
                    </g>
                </g>
            </g>
        </g>
    </g>
</svg>