<?xml version="1.0" encoding="UTF-8" standalone="no"?>
<svg width="92px" height="80px" viewBox="0 0 92 80" version="1.1" xmlns="http://www.w3.org/2000/svg" xmlns:xlink="http://www.w3.org/1999/xlink">
    <!-- Generator: Sketch 42 (36781) - http://www.bohemiancoding.com/sketch -->
    <title>Slice 1</title>
    <desc>Created with Sketch.</desc>
    <defs></defs>
    <g id="Page-1" stroke="none" stroke-width="1" fill="none" fill-rule="evenodd">
        <g id="icon_male" transform="translate(12.000000, 1.000000)" fill="#EBEBEB">
            <path d="M65.4070139,38.0387097 C64.2740562,36.6116129 62.6339774,36.1122581 61.2958486,36.1393548 C60.7546491,36.1504913 60.2161449,36.2188283 59.6893198,36.3432258 L59.6906102,36.3354839 C59.6906102,31.476129 60.860989,27.0064516 60.860989,22.88 C60.860989,18.7651613 58.4118391,11.6722581 50.8682508,10.923871 C50.8682508,10.923871 45.9157547,-3.12645161 16.7285458,0.641290323 C16.7285458,0.641290323 19.5531976,2.40903226 20.259038,3.10967742 L20.963588,3.81935484 C20.963588,3.81935484 13.7838881,3.46451613 9.54884594,6.52516129 C9.54884594,6.52516129 12.4922132,7.35096774 13.0806285,8.99483871 C13.0806285,8.99483871 4.78345566,9.52645161 1.54459035,12.7625806 C1.54459035,12.7625806 5.66478833,13.2309677 5.66478833,23.9419355 C5.66478833,27.1948387 6.62354408,32.283871 8.15264981,36.1109677 C8.14103635,36.2477419 8.12297097,36.3767742 8.11522866,36.5045161 C7.36707756,36.2750932 6.59044222,36.151741 5.80802102,36.1380645 C4.46860182,36.1122581 2.82723263,36.6103226 1.70072688,38.0348387 C0.567769218,39.4554839 0,41.4864516 0,44.4116129 C0,54.2567742 6.87774984,57.3058065 9.39012863,58.0877419 C13.7877593,70.5458065 22.7507706,79.4258065 33.5590319,79.4748387 C44.3492278,79.4258065 53.3148199,70.5458065 57.7111602,58.0877419 C60.2274102,57.3032258 67.0999985,54.2554839 67.0999985,44.4103226 C67.1025792,41.4864516 66.5361004,39.4322581 65.4070139,38.0374194 L65.4070139,38.0387097 Z M56.2994795,55.36 L55.4142757,55.5096774 L55.1329718,56.363871 C51.0385815,68.5445161 42.7039875,76.4929032 33.5616127,76.4541935 C24.4192379,76.4941935 16.0665785,68.5445161 11.9967055,56.363871 L11.6934651,55.5096774 L10.8069709,55.36 C10.8263267,55.2670968 3.01949993,54.2348387 3.01949993,44.4103226 C3.24660762,39.2864516 4.61957682,39.1535484 5.80931141,39.1535484 C9.0830171,39.1535484 10.9798824,41.0529032 10.9798824,41.0529032 L11.0134324,38.7690323 C11.119244,35.876129 11.4405497,33.08 11.9128305,30.3935484 C14.7607093,22.403871 18.2641034,21.2941935 19.7312707,21.2941935 C21.2010187,21.2941935 26.2606167,22.1729032 29.7898186,22.1729032 C38.4999145,22.1729032 40.7374414,19.9380645 46.2680297,19.9380645 C51.5224758,19.9380645 55.2220084,31.6387097 55.5768641,32.8025806 C55.8388122,34.7406452 56.0349506,36.7277419 56.1085026,38.7703226 L56.2027006,41.0541935 C56.2027006,41.0541935 58.8854102,39.1522581 61.2958486,39.1522581 C62.4868736,39.1522581 63.8585524,39.2619355 64.0882409,44.4090323 C64.0882409,54.2348387 56.2994795,55.2658065 56.2994795,55.36 L56.2994795,55.36 Z" id="Shape"></path>
        </g>
    </g>
</svg>