<?xml version="1.0" encoding="UTF-8"?>
<svg width="21px" height="13px" viewBox="0 0 21 13" version="1.1" xmlns="http://www.w3.org/2000/svg" xmlns:xlink="http://www.w3.org/1999/xlink">
    <!-- Generator: Sketch 41.2 (35397) - http://www.bohemiancoding.com/sketch -->
    <title>Icon 3</title>
    <desc>Created with Sketch.</desc>
    <defs></defs>
    <g id="Symbols" stroke="none" stroke-width="1" fill="none" fill-rule="evenodd">
        <g id="header" transform="translate(-1227.000000, -34.000000)" fill="#000000">
            <g id="Icon-3">
                <g transform="translate(1227.000000, 28.000000)">
                    <path d="M6.84912109,19 L6.17626953,16.7910156 L2.79296875,16.7910156 L2.12011719,19 L0,19 L3.27539062,9.68164062 L5.68115234,9.68164062 L8.96923828,19 L6.84912109,19 Z M5.70654297,15.140625 C5.08446955,13.1389874 4.73429401,12.007 4.65600586,11.7446289 C4.57771771,11.4822578 4.5216473,11.2749031 4.48779297,11.1225586 C4.34814383,11.664228 3.94824549,13.00357 3.28808594,15.140625 L5.70654297,15.140625 Z M18.637207,19 L17.3540039,15.4316406 L12.440918,15.4316406 L11.184082,19 L8.96923828,19 L13.7768555,6.09765625 L16.0620117,6.09765625 L20.8696289,19 L18.637207,19 Z M16.800293,13.6210938 L15.5961914,10.1230469 C15.5083003,9.8886707 15.3867195,9.51953377 15.2314453,9.015625 C15.0761711,8.51171623 14.9692386,8.1425793 14.9106445,7.90820312 C14.7524406,8.62890985 14.5209976,9.41698791 14.2163086,10.2724609 L13.0561523,13.6210938 L16.800293,13.6210938 Z"></path>
                </g>
            </g>
        </g>
    </g>
</svg>