
<svg width="28px" height="19px" viewBox="0 0 28 19" version="1.1" xmlns="http://www.w3.org/2000/svg" xmlns:xlink="http://www.w3.org/1999/xlink">
    <!-- Generator: Sketch 46.2 (44496) - http://www.bohemiancoding.com/sketch -->
    <desc>Created with Sketch.</desc>
    <defs></defs>
    <g id="Symbols" stroke="none" stroke-width="1" fill="none" fill-rule="evenodd">
        <g id="Business_member-Icon" transform="translate(-39.000000, -208.000000)" fill="#000000">
            <g id="Group-10">
                <g id="Group-7-Copy-2" transform="translate(39.000000, 208.000000)">
                    <path d="M21.0845597,11.6318256 L21.0845597,10.8384982 C22.1288274,9.97013624 22.8176982,8.75274567 22.9866721,7.40404473 L23.0988168,6.55444141 C23.1730952,6.03806221 23.2109615,5.52020595 23.2109615,4.98506812 C23.2109615,4.78168472 23.2109615,4.56100499 23.1920283,4.33885558 C23.1177499,3.15750522 22.6138184,2.06847093 21.7385245,1.25490781 C20.8806799,0.442821755 19.7432005,0 18.5503908,0 C17.3575811,0 16.2390424,0.442821755 15.3622571,1.25490781 C14.5044125,2.06699387 13.9830243,3.15602816 13.9087533,4.33885558 C13.8708871,5.07738419 13.8898202,5.8159128 14.0019649,6.55444141 L14.1141096,7.40404473 C14.2262543,8.14257334 14.4680227,8.84358469 14.8598021,9.48979723 C15.177303,10.0061764 15.5676134,10.4504752 16.016222,10.8370211 L16.016222,11.6303486 L14.1709314,12.0371301 C11.4867367,12.6285438 9.47232296,14.8989285 9.17553734,17.5760947 L1.38379647,17.5760947 L1.38379647,16.5231006 C1.38379647,14.7315779 2.66981775,13.144923 4.42189683,12.7569739 L6.34145845,12.3329108 C6.6589594,12.259346 6.88178723,11.9823978 6.88178723,11.649181 L6.88178723,10.3019571 C6.88178723,10.0798225 6.76964254,9.87789401 6.60215255,9.74806068 C6.26717257,9.50861494 5.98755279,9.19416422 5.78218908,8.84365855 C5.55789969,8.47439424 5.40934283,8.06761268 5.35401245,7.64354956 L5.26080089,6.95981977 C5.18652246,6.46072213 5.16758933,5.94434293 5.20545559,5.42796373 C5.24332186,4.80050982 5.50402341,4.22785473 5.97008868,3.80379161 C6.4172059,3.37972848 7.01435644,3.13882045 7.64789679,3.13882045 C8.28143713,3.13882045 8.87858768,3.37826619 9.3257049,3.80379161 C9.79176271,4.22785473 10.0524568,4.81926844 10.090338,5.42796373 C10.090338,5.57509339 10.1092711,5.7236632 10.1092711,5.87078548 C10.1092711,6.24004978 10.090338,6.60931409 10.0349927,6.95981977 L9.94178112,7.64354956 C9.82963643,8.47439424 9.36357116,9.23168148 8.69214964,9.72930206 C8.50572652,9.85912061 8.41251496,10.0610639 8.41251496,10.2831985 L8.41251496,11.6304224 C8.41251496,11.9621842 8.63680435,12.2391177 8.95284374,12.3141522 L10.0903231,12.5535979 C10.4631693,12.6271628 10.8360156,12.4064683 10.9292271,12.0184601 C11.0035056,11.6491958 10.7806703,11.2799315 10.3888983,11.1876154 L9.79174779,11.0577969 L9.79174779,10.5962165 C10.6117113,9.89520512 11.1709806,8.87972828 11.321014,7.80797556 L11.4142255,7.12424578 C11.4695708,6.70018265 11.5074371,6.27464246 11.5074371,5.85057934 C11.5074371,5.68469843 11.5074371,5.50006627 11.488504,5.33420013 C11.4331587,4.35624055 11.0035056,3.45036135 10.2956942,2.76810862 C9.56894233,2.10313746 8.63682672,1.71511453 7.64788933,1.71511453 C6.66044333,1.71511453 5.72832771,2.08437884 5.00008442,2.76810862 C4.27333252,3.43307978 3.86260509,4.35624055 3.80727471,5.33420013 C3.76940844,5.92561384 3.78834158,6.53430912 3.88155314,7.12572283 L3.9747647,7.80945262 C4.06797626,8.4181479 4.27333252,9.00956161 4.58936445,9.52594082 C4.83113287,9.93272238 5.14863382,10.2832281 5.50253948,10.5962165 L5.50253948,11.0577969 L4.12330665,11.3534963 C1.75222822,11.9290317 0,14.0696199 0,16.5073182 L0,18.2613237 C0,18.6493466 0.31750095,18.962335 0.707811315,18.962335 L9.86155953,18.962335 C10.2533464,18.962335 10.5693708,18.6478843 10.5693708,18.2613237 C10.5693708,15.9346632 12.2282384,13.8848031 14.5222868,13.3874041 L16.9268468,12.8710249 C17.2443477,12.7974601 17.4671755,12.5205119 17.4671755,12.1872951 L17.4671755,10.5068471 C17.4671755,10.2847125 17.3550309,10.082784 17.1875409,9.95295067 C16.7593642,9.63849996 16.386518,9.23318069 16.1068833,8.79035894 C15.8083155,8.31001993 15.6218849,7.79364072 15.5476139,7.23974427 L15.4354692,6.39014095 C15.3422577,5.74392842 15.3233245,5.09771589 15.3611908,4.45150335 C15.3990571,3.62065867 15.7719182,2.86337143 16.3675774,2.29071635 C16.9647279,1.71806126 17.7657508,1.40507284 18.5857143,1.40507284 C19.4056778,1.40507284 20.208192,1.71952355 20.8038512,2.29071635 C21.4010017,2.86337143 21.773848,3.62065867 21.8102378,4.45150335 C21.8291709,4.63613551 21.8291709,4.82076766 21.8291709,5.02415844 C21.8291709,5.48573882 21.7913046,5.96607783 21.7359593,6.40889958 L21.6238146,7.25850289 C21.4752578,8.34753718 20.8781222,9.34425539 19.9838877,9.99046793 C19.7974646,10.1202865 19.704253,10.3222298 19.704253,10.5443644 L19.704253,12.2248124 C19.704253,12.5565742 19.9285424,12.8335077 20.2445818,12.9085422 L22.6491418,13.4249214 C24.6997962,13.8677431 26.2465116,15.5669498 26.5450123,17.5979773 L12.39587,17.5979773 C12.0040832,17.5979773 11.6880587,17.912428 11.6880587,18.2989886 C11.6880587,18.6870116 12.0055597,19 12.39587,19 L27.2907048,19 C27.4771279,19 27.6446179,18.9264352 27.7946437,18.7966166 C27.9432006,18.666798 28,18.4821659 28,18.297519 C27.9635878,15.2886057 25.8386476,12.6850708 22.9300367,12.0388583 L21.0845597,11.6318256 Z" id="team-icon"></path>
                </g>
            </g>
        </g>
    </g>
</svg>