
<svg width="75px" height="25px" viewBox="0 0 75 25" version="1.1" xmlns="http://www.w3.org/2000/svg" xmlns:xlink="http://www.w3.org/1999/xlink">
    <!-- Generator: Sketch 46.2 (44496) - http://www.bohemiancoding.com/sketch -->
    <desc>Created with Sketch.</desc>
    <defs></defs>
    <g id="Symbols" stroke="none" stroke-width="1" fill="none" fill-rule="evenodd">
        <g class="icon-payment-method" id="Direct_debit_Btn_UnActive-Copy" transform="translate(-10.000000, -10.000000)" fill="#FFFFFF">
            <g id="Group-7">
                <g id="Direct-Debit" transform="translate(10.000000, 10.000000)">
                    <path d="M35.1446607,5.092649 L39.0196785,5.092649 C39.0196785,5.092649 42.8555891,5.01502886 42.816907,8.51390604 C42.7782248,11.1184456 39.0970428,11.5073993 39.0970428,11.5073993 L35.1446607,11.5073993 L35.1446607,5.092649 L35.1446607,5.092649 Z M46.7365581,17.6504792 C46.8449532,18.1597014 47.2117961,18.7201018 48.4351728,18.7772507 C50.0627993,18.8160607 50.9928716,18.1938202 50.9928716,18.1938202 L50.9928716,19.3990648 C50.9928716,19.3990648 49.2100913,19.8268285 48.3578084,19.8268285 C47.4668434,19.8268285 44.8317802,19.6323517 44.8317802,17.1830524 C44.8317802,15.2007534 47.0018072,14.5785128 48.2413369,14.5785128 C50.4113639,14.6561329 51.4574827,15.4336138 51.4188005,17.6496262 C51.4188005,17.6824655 47.8485641,17.6581559 46.7365581,17.6504792 L46.7365581,17.6504792 Z M46.741234,16.6776685 L49.7138096,16.6776685 C49.7138096,16.6776685 49.7138096,15.5504705 48.2804441,15.5504705 C47.2015942,15.5504705 46.8487789,16.133901 46.741234,16.6776685 L46.741234,16.6776685 Z M56.1461012,15.4604823 C56.5758559,14.992629 57.2980646,14.6173228 58.5099642,14.6173228 C60.9120842,14.6173228 61.299756,16.6388584 61.2610738,17.1830524 C61.2223916,17.7276728 61.0285557,19.7880185 58.2387639,19.7880185 C57.1854188,19.7880185 56.5405743,19.4272127 56.1461012,18.9789777 L56.1461012,19.6323517 L54.2476996,19.6323517 L54.2476996,12.6345973 L56.1461012,12.6345973 L56.1461012,15.4604823 L56.1461012,15.4604823 Z M57.7737278,18.6996305 C58.8972109,18.660394 59.4009292,17.6888627 59.4009292,17.2222889 C59.4009292,16.7557151 59.129729,15.7837574 57.6963634,15.7837574 C56.5835073,15.7837574 56.2451446,16.6269168 56.1461012,17.0393272 L56.1461012,17.546417 C56.2434443,17.9660775 56.5843574,18.6996305 57.7737278,18.6996305 L57.7737278,18.6996305 Z M74.1643392,18.5051537 L74.2030213,19.5935416 C74.2030213,19.5935416 73.3116312,19.7880185 72.7305486,19.7880185 C72.1494659,19.7880185 70.6378859,19.4378749 70.6378859,17.9609597 L70.6378859,15.7057108 L69.0493666,15.7057108 L69.0493666,14.694943 L70.6378859,14.694943 L70.6378859,13.4901248 L72.5753948,13.4901248 L72.5753948,14.694943 L74.1643392,14.694943 L74.1643392,15.7057108 L72.5753948,15.7057108 L72.5753948,17.6496262 C72.5753948,17.6496262 72.5753948,18.6215839 73.3503134,18.6215839 C74.1252319,18.6215839 74.1643392,18.5051537 74.1643392,18.5051537 L74.1643392,18.5051537 Z M68.2744481,6.14222686 L70.5218394,6.14222686 L70.5218394,11.5462094 L72.4206662,11.5462094 L72.4206662,6.14222686 L74.7067397,6.14222686 L74.7067397,5.01502886 L68.2744481,5.01502886 L68.2744481,6.14222686 L68.2744481,6.14222686 Z M67.4995295,6.41432384 L67.7320476,5.28712584 C67.7320476,5.28712584 66.7632931,4.85936209 65.0583022,4.85936209 C63.3919936,4.85936209 60.7186733,5.79250974 60.7186733,8.3194292 C60.7186733,10.8075386 63.5471473,11.6626396 65.2908203,11.6626396 C67.0344933,11.6626396 67.615576,11.3905426 67.615576,11.3905426 L67.4221652,10.1464879 C67.4221652,10.1464879 66.6468215,10.3797748 65.3295025,10.3797748 C64.0508656,10.3409648 62.7335466,9.33019699 62.7335466,8.2025725 C62.7722287,7.19180472 63.9348191,6.06460672 65.4459741,6.06460672 C66.6081394,6.06460672 67.4995295,6.41432384 67.4995295,6.41432384 L67.4995295,6.41432384 Z M50.3726817,5.05383893 C50.3726817,5.05383893 53.5501453,4.89817216 53.5501453,6.76446745 C53.5501453,8.35823927 51.729108,8.47509597 51.729108,8.47509597 C51.729108,8.47509597 52.2324012,8.55271611 52.4653444,8.90243324 C52.6587552,9.21376677 53.9373921,11.5462094 53.9373921,11.5462094 L52.0003082,11.5462094 C52.0003082,11.5462094 51.6900007,11.1572557 51.5352721,10.8851587 C51.4188005,10.6130618 51.0702359,10.0300577 51.0702359,10.0300577 C51.0702359,10.0300577 50.7990357,9.05810001 49.8689634,9.05810001 C49.845584,9.05810001 49.4664138,9.04359954 49.1714092,9.03251095 L49.1714092,11.5462094 L47.3116896,11.5462094 L47.3116896,5.05383893 L50.3726817,5.05383893 L50.3726817,5.05383893 Z M49.1714092,7.96928559 L50.1788458,7.96928559 C50.1788458,7.96928559 51.5739542,7.89166545 51.6513186,7.03656443 C51.6900007,6.219847 50.2953174,6.10341679 50.2953174,6.10341679 L49.1714092,6.10341679 L49.1714092,7.96928559 L49.1714092,7.96928559 Z M56.960127,8.98005338 L60.0598013,8.98005338 L60.0598013,7.77523524 L56.960127,7.77523524 L56.960127,6.29789363 L60.3310015,6.29789363 L60.3310015,5.05383893 L55.0613003,5.05383893 L55.0613003,11.5462094 L60.3696837,11.5462094 L60.3696837,10.3797748 L56.960127,10.3797748 L56.960127,8.98005338 L56.960127,8.98005338 Z M64.5159018,13.9562722 L66.4147285,13.9562722 L66.4147285,12.6345973 L64.5159018,12.6345973 L64.5159018,13.9562722 Z M64.5159018,19.6323517 L66.4147285,19.6323517 L66.4147285,14.694943 L64.5159018,14.694943 L64.5159018,19.6323517 Z M43.8243436,11.5462094 L45.6844882,11.5462094 L45.6844882,5.05383893 L43.8243436,5.05383893 L43.8243436,11.5462094 Z M35.1446607,13.1787913 L39.0196785,13.1787913 C39.0196785,13.1787913 42.8555891,13.1011712 42.816907,16.6000483 C42.7782248,19.2045879 39.0970428,19.5935416 39.0970428,19.5935416 L35.1446607,19.5935416 L35.1446607,13.1787913 L35.1446607,13.1787913 Z M37.0430623,18.388297 L38.2834421,18.388297 C38.2834421,18.388297 40.8407159,18.2330567 40.8407159,16.2503312 C40.8407159,14.2676057 38.1282884,14.0731289 38.1282884,14.0731289 L37.0430623,14.0731289 L37.0430623,18.388297 L37.0430623,18.388297 Z M37.0430623,10.3021547 L38.2834421,10.3021547 C38.2834421,10.3021547 40.8407159,10.1076779 40.8407159,8.16376243 C40.8407159,6.14222686 38.1282884,5.98698658 38.1282884,5.98698658 L37.0430623,5.98698658 L37.0430623,10.3021547 L37.0430623,10.3021547 Z" id="Fill-2"></path>
                    <path d="M17.7466126,8.95744971 L17.7466126,21.9652208 C17.7466126,21.9652208 10.22952,20.6043094 10.22952,15.4336138 C10.22952,11.3099371 15.7942259,9.49268751 17.7466126,8.95744971 L17.7466126,8.95744971 Z M17.7466126,8.71478015 C13.2284506,8.38681372 2.98362773,10.5115585 2.98362773,15.1615168 C2.98362773,18.1938202 8.40805762,22.625845 17.2428943,22.7427017 C17.5914589,22.7427017 27.6275681,22.353748 27.4724143,11.5462094 C27.3423403,2.4689176 20.5708358,0.878984138 18.4054847,0.602195829 L18.4054847,0.0490456943 C27.0379839,0.598783954 33.8273416,5.80743669 33.8273416,12.1292134 C33.8273416,18.8160607 26.2324596,24.2588534 16.8943297,24.2588534 C7.55577473,24.2588534 0,18.8160607 0,12.1292134 C0,5.44236613 7.55577473,0 16.8943297,0 C17.1799826,0 17.4643603,0.00469132728 17.7466126,0.0153534347 L17.7466126,8.71478015 L17.7466126,8.71478015 Z" id="Fill-3"></path>
                </g>
            </g>
        </g>
    </g>
</svg>