<svg width="25" height="28" viewBox="0 0 25 28" fill="none" xmlns="http://www.w3.org/2000/svg">
<path fill-rule="evenodd" clip-rule="evenodd" d="M22.3638 3.38709H21.2729H18.0911V2.57418C18.0911 1.2645 17.0002 0.180634 15.682 0.180634H9.86381C8.54563 0.180634 7.45472 1.2645 7.45472 2.57418V3.38709H4.2729H2.63654C1.36381 3.38709 0.318359 4.42579 0.318359 5.69031C0.318359 6.95483 1.36381 7.99354 2.63654 7.99354H3.59109V23.8C3.59109 26.0129 5.36381 27.7742 7.59109 27.7742H17.9547C20.182 27.7742 21.9547 26.0129 21.9547 23.8V7.99354H22.3638C23.6365 7.99354 24.682 6.95483 24.682 5.69031C24.682 4.42579 23.682 3.38709 22.3638 3.38709ZM8.86381 2.57418C8.86381 2.03225 9.31836 1.53547 9.90927 1.53547H15.7275C16.2729 1.53547 16.7729 1.98709 16.7729 2.57418V3.38709H8.86381V2.57418ZM20.5911 23.8451C20.5911 25.2903 19.4093 26.4645 17.9547 26.4645H7.59109C6.13654 26.4645 4.95472 25.2903 4.95472 23.8451V8.0387H20.5911V23.8451ZM22.3638 6.68386H21.2729H20.5911H4.95472H4.2729H2.63654C2.09109 6.68386 1.682 6.23225 1.682 5.73547C1.682 5.2387 2.13654 4.78709 2.63654 4.78709H8.86381H16.7275H22.3638C22.9093 4.78709 23.3184 5.2387 23.3184 5.73547C23.3184 6.23225 22.9093 6.68386 22.3638 6.68386Z" fill="#333333"/>
<path fill-rule="evenodd" clip-rule="evenodd" d="M8.86346 22.2645C9.2271 22.2645 9.54528 21.9484 9.54528 21.5871V12.1032C9.54528 11.7419 9.2271 11.4258 8.86346 11.4258C8.49982 11.4258 8.18164 11.7419 8.18164 12.1032V21.5871C8.18164 21.9936 8.49982 22.2645 8.86346 22.2645Z" fill="#333333"/>
<path fill-rule="evenodd" clip-rule="evenodd" d="M12.7277 22.2645C13.0914 22.2645 13.4095 21.9484 13.4095 21.5871V12.1032C13.4095 11.7419 13.0914 11.4258 12.7277 11.4258C12.3641 11.4258 12.0459 11.7419 12.0459 12.1032V21.5871C12.0459 21.9936 12.3641 22.2645 12.7277 22.2645Z" fill="#333333"/>
<path fill-rule="evenodd" clip-rule="evenodd" d="M16.591 22.2645C16.9546 22.2645 17.2728 21.9484 17.2728 21.5871V12.1032C17.2728 11.7419 16.9546 11.4258 16.591 11.4258C16.2274 11.4258 15.9092 11.7419 15.9092 12.1032V21.5871C15.9092 21.9936 16.2274 22.2645 16.591 22.2645Z" fill="#333333"/>
</svg>

