<?xml version="1.0" encoding="UTF-8"?>
<svg width="20px" height="20px" viewBox="0 0 20 20" version="1.1" xmlns="http://www.w3.org/2000/svg" xmlns:xlink="http://www.w3.org/1999/xlink">
    <!-- Generator: sketchtool 41 (35326) - http://www.bohemiancoding.com/sketch -->
    <title>03B6E013-C98E-4488-B3D0-A9A0E75FEAD2</title>
    <desc>Created with sketchtool.</desc>
    <defs></defs>
    <g id="Page-1" stroke="none" stroke-width="1" fill="none" fill-rule="evenodd" opacity="0.5">
        <g id="Unit-And-Task-Managment-Landing-Page" transform="translate(-1366.000000, -309.000000)" fill="#000000">
            <g id="Group-7" transform="translate(1366.000000, 309.000000)">
                <path d="M8.125,0 C3.64475,0 0,3.645 0,8.125 C0,12.605 3.64475,16.25 8.125,16.25 C9.68725,16.25 11.147,15.80575 12.387,15.03875 L16.799,19.451 C17.15325,19.805 17.62425,20 18.125,20 C18.62575,20 19.0965,19.805 19.45075,19.451 C19.805,19.097 20,18.62575 20,18.125 C20,17.62425 19.805,17.15325 19.45075,16.79925 L15.0385,12.387 C15.80575,11.147 16.25,9.68725 16.25,8.125 C16.25,3.645 12.60525,0 8.125,0 L8.125,0 Z M8.125,13.75 C5.0235,13.75 2.5,11.22675 2.5,8.125 C2.5,5.02325 5.0235,2.5 8.125,2.5 C11.2265,2.5 13.75,5.02325 13.75,8.125 C13.75,11.22675 11.2265,13.75 8.125,13.75 L8.125,13.75 Z" id="Shape"></path>
                <path d="M3.75,8.125 L5,8.125 C5,6.40175 6.40175,5 8.125,5 L8.125,3.75 C5.71275,3.75 3.75,5.71275 3.75,8.125 L3.75,8.125 Z" id="Shape"></path>
            </g>
        </g>
    </g>
</svg>