<?xml version="1.0" encoding="utf-8"?>
<svg width="74px" height="90px" viewbox="0 0 74 90" version="1.1" xmlns:xlink="http://www.w3.org/1999/xlink" xmlns="http://www.w3.org/2000/svg">
  <path d="M73.3959 55.5501C73.0799 60.7351 74.4489 70.5701 69.3449 78.1651C64.2399 85.7591 52.3969 88.2581 51.0439 88.3731C55.1399 85.5061 54.5009 83.9771 53.1559 83.2671C52.0699 84.2411 50.9309 85.1271 49.7429 85.9031C45.6359 88.5821 40.9919 89.9991 36.3119 89.9991C31.6109 89.9991 26.9479 88.5711 22.8269 85.8671C21.6609 85.1021 20.5419 84.2291 19.4739 83.2721C19.9179 84.8041 20.8999 86.6031 21.4129 87.0031C17.0549 86.1891 3.98291 82.5211 1.36891 68.9511C-1.24509 55.3811 0.204915 43.4851 3.02791 32.5641C5.85091 21.6431 10.5399 9.74707 21.7659 3.80607C32.9919 -2.13493 44.8849 0.429067 47.0949 1.31207C48.5709 1.90307 49.1249 3.14807 49.3299 3.91207C51.8929 3.15707 56.1029 2.82507 61.3809 7.49807C66.6589 12.1711 69.4979 20.5891 71.7299 29.6161C73.9609 38.6431 73.7119 50.3651 73.3959 55.5501ZM59.253 37.0991C58.519 33.5191 56.717 24.4871 53.043 20.9071C52.11 19.9991 50.78 19.1271 49.171 18.3551C47.607 21.7451 43.225 30.1091 35.859 35.7021C32.226 38.4601 28.359 40.2461 24.864 41.9301C26.7 42.2461 28.326 42.9161 29.443 43.8561C29.659 44.0381 29.687 44.3611 29.505 44.5761C29.323 44.7921 29.001 44.8201 28.785 44.6381C27.506 43.5621 25.434 42.8831 23.15 42.7681C18.362 45.1581 14.545 47.6331 13.489 52.7261C13.154 51.0131 11.467 49.0561 11.246 47.5201C10.958 51.7731 10.806 57.7261 11.703 62.1031C12.78 67.3591 13.817 71.2211 16.114 75.2921C18.353 78.7281 21.127 81.5851 24.279 83.6531C27.882 86.0161 31.974 87.3511 36.313 87.3511C40.632 87.3511 44.706 86.0281 48.297 83.6851C51.27 81.7451 53.906 79.1021 56.079 75.9341C57.27 73.8101 58.23 71.4391 58.857 68.7631C60.258 62.7871 59.845 54.4821 60.021 51.4711C60.197 48.4611 59.987 40.6791 59.253 37.0991Z" id="icon_femaie" fill="#127FA1" fill-opacity="0.3" style="mix-blend-mode: multiply;" fill-rule="evenodd" stroke="none" />
</svg>