
<svg width="38px" height="34px" viewBox="0 0 38 34" version="1.1" xmlns="http://www.w3.org/2000/svg" xmlns:xlink="http://www.w3.org/1999/xlink">
    <!-- Generator: Sketch 48.2 (47327) - http://www.bohemiancoding.com/sketch -->
    <desc>Created with Sketch.</desc>
    <defs></defs>
    <g id="Symbols" stroke="none" stroke-width="1" fill="none" fill-rule="evenodd">
        <g class="fillable" transform="translate(-87.000000, -17.000000)">
            <g id="Page-1" transform="translate(87.000000, 17.000000)">
                <path d="M29.6852671,32.4552828 L2.66001411,32.4552828 C2.03110132,32.4552828 1.51999416,31.9390951 1.51999416,31.3035369 L1.51999416,2.69256794 C1.51999416,2.05696038 2.03110132,1.54082199 2.66001411,1.54082199 L37.2400029,1.54082199 C37.6599007,1.54082199 38,1.19606246 38,0.770410997 C38,0.344759538 37.6599007,0 37.2400029,0 L2.66001411,0.00192787648 C1.1932319,0.00192787648 0,1.20953294 0,2.69449089 L0,31.3074321 C0,32.79239 1.19318326,34 2.66001411,34 L29.6852671,34 C30.1051649,34 30.4452642,33.6552405 30.4452642,33.229589 C30.4452642,32.8020097 30.1051649,32.4553321 29.6852671,32.4553321 L29.6852671,32.4552828 Z" id="Fill-1"></path>
                <path d="M4,3.49938293 C4,4.16687236 3,4.16687236 3,3.49938293 C3,2.83353902 4,2.83353902 4,3.49938293" id="Fill-2"></path>
                <path d="M7,3.49938293 C7,4.16687236 6,4.16687236 6,3.49938293 C6,2.83353902 7,2.83353902 7,3.49938293" id="Fill-3"></path>
                <path d="M9,3.49938293 C9,4.16687236 8,4.16687236 8,3.49938293 C8,2.83353902 9,2.83353902 9,3.49938293" id="Fill-4"></path>
                <path d="M7.79685703,10.1986434 C7.52513646,9.93378553 7.08270878,9.93378553 6.81102388,10.1986434 L4.59197406,12.3616478 L4.18962358,11.9694593 C3.91790747,11.7046014 3.47721432,11.7046014 3.20379043,11.9694593 C2.93206986,12.2343128 2.93206986,12.6638756 3.20379043,12.9303938 L4.09732295,13.8013588 C4.1548035,13.8573876 4.22273141,13.8998297 4.29240278,13.9320883 C4.3045936,13.9371822 4.31504542,13.9456706 4.32723623,13.9507646 C4.33943151,13.9558585 4.35162233,13.9575579 4.36207415,13.9609524 C4.43522797,13.9864177 4.51186871,14 4.58850498,14 C4.63379026,14 4.67733654,13.9966055 4.72088281,13.9881171 C4.85326064,13.9626475 4.97866465,13.9015291 5.08143048,13.8013588 L5.08143048,13.7996594 L7.79163558,11.1579045 C8.0685776,10.8947461 8.0685776,10.4634882 7.79686149,10.1986651 L7.79685703,10.1986434 Z" id="Fill-5"></path>
                <path d="M7.79685703,16.1986434 C7.52513646,15.9337855 7.08270878,15.9337855 6.81102388,16.1986434 L4.59197406,18.3616478 L4.18962358,17.9694593 C3.91790747,17.7046014 3.47721432,17.7046014 3.20379043,17.9694593 C2.93206986,18.2343128 2.93206986,18.6638756 3.20379043,18.9303938 L4.09732295,19.8013588 C4.1548035,19.8573876 4.22273141,19.8998297 4.29240278,19.9320883 C4.3045936,19.9371822 4.31504542,19.9456706 4.32723623,19.9507646 C4.33943151,19.9558585 4.35162233,19.9575535 4.36207415,19.9609524 C4.43522797,19.9864177 4.51186871,20 4.58850498,20 C4.63379026,20 4.67733654,19.9966055 4.72088281,19.9881171 C4.85326064,19.9626475 4.97866465,19.9015291 5.08143048,19.8013588 L5.08143048,19.7996594 L7.79163558,17.1579045 C8.0685776,16.8947461 8.0685776,16.4634882 7.79686149,16.1986651 L7.79685703,16.1986434 Z" id="Fill-6"></path>
                <path d="M6.81451595,23.198821 L4.5934328,25.3617243 L4.19071364,24.9695541 C3.91874855,24.7047087 3.47765159,24.7047087 3.20397716,24.9695541 C2.93200761,25.2343953 2.93200761,25.663938 3.20397716,25.9304437 L4.09832843,26.8013681 C4.15586165,26.8573942 4.22385181,26.8998344 4.29358702,26.9320915 C4.305789,26.9371851 4.3162504,26.9456732 4.32845239,26.9507669 C4.34065884,26.9558605 4.35286083,26.9575599 4.36332223,26.9609542 C4.43654308,26.9864183 4.51325404,27 4.58996054,27 C4.63528731,27 4.67887349,26.9966057 4.72245967,26.9881176 C4.8549588,26.9626492 4.98047771,26.9015337 5.0833377,26.8013681 L5.0833377,26.7996687 L7.79602619,24.1580373 C8.06799127,23.8931918 8.06799127,23.4636534 7.79602619,23.1971477 C7.52928734,22.9340016 7.08648996,22.9340016 6.81451148,23.198847 L6.81451595,23.198821 Z" id="Fill-7"></path>
                <path d="M11.7861108,12 L16.2138892,12 C16.6482148,12 17,11.5524992 17,11 C17,10.4475008 16.6482148,10 16.2138892,10 L11.7861108,10 C11.3517852,10 11,10.4475008 11,11 C11,11.5524992 11.3517852,12 11.7861108,12 Z" id="Fill-8"></path>
                <path d="M11.8258748,15 L13.1741252,15 C13.6304204,15 14,14.5524992 14,14 C14,13.4475008 13.6304204,13 13.1741252,13 L11.8258748,13 C11.3695796,13 11,13.4475008 11,14 C11,14.5524992 11.3695796,15 11.8258748,15 Z" id="Fill-9"></path>
                <path d="M11.7861108,18 L16.2138892,18 C16.6482148,18 17,17.5524992 17,17 C17,16.4475008 16.6482148,16 16.2138892,16 L11.7861108,16 C11.3517852,16 11,16.4475008 11,17 C11,17.5524992 11.3517852,18 11.7861108,18 Z" id="Fill-10"></path>
                <path d="M11.7101627,21 L14.2898373,21 C14.6822016,21 15,20.5524992 15,20 C15,19.4475008 14.6822016,19 14.2898373,19 L11.7101627,19 C11.3177984,19 11,19.4475008 11,20 C11,20.5524992 11.3177984,21 11.7101627,21 Z" id="Fill-11"></path>
                <path d="M11.7861108,25 L16.2138892,25 C16.6482148,25 17,24.5524992 17,24 C17,23.4475008 16.6482148,23 16.2138892,23 L11.7861108,23 C11.3517852,23 11,23.4475008 11,24 C11,24.5524992 11.3517852,25 11.7861108,25 Z" id="Fill-12"></path>
                <path d="M11.8258748,28 L13.1741252,28 C13.6304204,28 14,27.5524992 14,27 C14,26.4475008 13.6304204,26 13.1741252,26 L11.8258748,26 C11.3695796,26 11,26.4475008 11,27 C11,27.5524992 11.3695796,28 11.8258748,28 Z" id="Fill-13"></path>
                <path d="M37.2446153,6.00014342 L4.75555394,6.00014342 C4.33811099,6.00014342 4,6.34594271 4,6.77287789 C4,7.19981306 4.33811099,7.54561235 4.75555394,7.54561235 L36.4888196,7.54561235 L36.4888196,31.2953898 C36.4888196,31.9329143 35.9807005,32.4506093 35.3554645,32.4506093 L34.2674668,32.4506093 L34.2674668,30.3333416 C34.2674668,28.5966301 33.0756016,27.0839993 31.4303557,26.726588 L28.6763676,25.9828342 L28.6763676,24.0606665 C29.1372531,23.5796374 29.4772306,22.9807669 29.6472484,22.3200975 C29.7114693,22.0689601 29.7624698,21.8699778 29.8021357,21.7154112 C30.340477,21.5994985 30.7617013,21.1628998 30.8467102,20.5949586 L31.0828202,19.0861852 C31.1489318,18.6515202 31.0242666,18.2091502 30.7447092,17.8730045 C30.6351551,17.7416421 30.5048227,17.6315256 30.361265,17.5465223 L30.361265,17.1021988 C30.5765967,16.9611729 30.7163778,16.7119691 30.7107105,16.4356937 C30.6823742,14.9462572 30.0552524,13.5649789 28.9729123,12.5855225 C28.9578012,12.3652945 28.8501329,12.1605161 28.6782438,12.0252962 C27.7791225,11.3220955 26.6590168,10.935753 25.5257101,10.935753 L25.0515994,10.935753 C24.1184842,10.935753 23.2647204,11.3665506 22.5129381,11.8843 C22.2994923,11.8379359 22.0747169,11.8881624 21.8990657,12.0272547 C20.7166298,12.9506785 19.9006315,14.7221568 19.8704094,16.4337946 C19.866628,16.6405017 19.9440741,16.8414126 20.085741,16.9882347 C20.125407,17.0307363 20.1707403,17.0674418 20.2198501,17.1002799 L20.2198501,17.5465322 C20.0762924,17.6315355 19.9459599,17.741647 19.8364058,17.8730144 C19.5549626,18.2091551 19.4321833,18.6515351 19.4982948,19.0900526 L19.732519,20.5988259 C19.8231854,21.1667672 20.2444098,21.6014273 20.7789793,21.7173498 C20.8186453,21.8718967 20.8696458,22.070874 20.9338667,22.3220362 C21.1057558,22.9827056 21.4438716,23.5816057 21.9047474,24.0626051 L21.9047474,25.9847728 L19.1507594,26.7285266 C17.5055618,27.0859182 16.3117624,28.5985193 16.3117624,30.3352802 C16.3117624,30.7622154 16.6498734,31.1080147 17.0673163,31.1080147 C17.4847593,31.1080147 17.8228703,30.7622154 17.8228703,30.3352802 C17.8228703,29.321057 18.5179799,28.4382356 19.4756596,28.2373 C19.48888,28.2353663 19.5039911,28.2315038 19.5172115,28.2276414 L22.852964,27.3274119 C23.1854077,27.2385462 23.4158698,26.9313861 23.4158698,26.5798006 L23.4158698,25.0922929 L23.4782048,25.1270647 C24.0448824,25.4361585 24.6681842,25.5907054 25.2915343,25.5907054 C25.9148844,25.5907054 26.5363004,25.4361585 27.1048638,25.1270647 L27.1671988,25.0942217 L27.1671988,26.5817293 C27.1671988,26.9333248 27.3976415,27.2385413 27.7301046,27.3293407 L31.0658571,28.2295701 C31.0790824,28.2334375 31.0923027,28.2373 31.1074138,28.2392336 C32.0650936,28.4401446 32.7602032,29.3229906 32.7602032,30.3372139 L32.7602032,33.2272655 C32.7602032,33.6542007 33.0983142,34 33.5157571,34 L35.355537,33.9942039 C36.813744,33.9942039 38,32.7829519 38,31.2935155 L38,6.77273447 C38,6.34579929 37.661889,6 37.2444461,6 L37.2446153,6.00014342 Z M27.0333944,23.4137455 L26.3930715,23.7634073 C25.7036195,24.1401159 24.8800778,24.1401159 24.1887399,23.7634073 L23.548417,23.4137455 C22.9798536,23.102718 22.5586292,22.5617841 22.3943174,21.9262379 C22.1525401,20.9912415 22.1185414,20.8424809 22.1166507,20.8347659 C22.0505391,20.4677158 21.7388737,20.2030771 21.3742978,20.2030771 L21.200518,20.2030771 L20.9965208,18.887475 C21.40452,18.8758828 21.7312819,18.5339509 21.7312819,18.1147406 L21.7312819,16.4533491 C21.7312819,16.2060741 21.6160606,15.9839123 21.4385042,15.8428765 C21.5669459,15.0546626 21.8975038,14.2877638 22.3470548,13.7294663 C22.526497,13.7391248 22.6813892,13.6792398 22.8192748,13.571057 C23.4652553,13.0649344 24.3039322,12.4853712 25.0557144,12.4853712 L25.5298251,12.4853712 C26.2155055,12.4853712 26.893594,12.6843485 27.4753584,13.0533125 C27.4999133,13.2580859 27.6038002,13.4454759 27.7662455,13.571057 C28.5066642,14.1486914 28.9940388,14.9735515 29.1489213,15.8911891 C28.9675883,16.0341437 28.8542577,16.2563055 28.8542577,16.5035904 L28.8542577,18.1147356 C28.8542577,18.5339459 29.1810341,18.8758976 29.5890188,18.8874701 L29.3831309,20.2030721 L29.2112418,20.2030721 C28.856129,20.2030721 28.5463543,20.4696643 28.4708231,20.8251172 C28.4632651,20.859889 28.4217133,21.0356867 28.1912706,21.9282111 C28.023158,22.5598999 27.6019143,23.1027675 27.0333993,23.41379 L27.0333944,23.4137455 Z" id="Fill-14"></path>
            </g>
        </g>
    </g>
</svg>