
<svg width="17px" height="16px" viewBox="0 0 17 16" version="1.1" xmlns="http://www.w3.org/2000/svg" xmlns:xlink="http://www.w3.org/1999/xlink">
    <g id="Tutor" stroke="none" stroke-width="1" fill="none" fill-rule="evenodd">
        <g id="Tutor-Action-Plan" transform="translate(-590.000000, -673.000000)" fill="#FFFFFF">
            <g id="Group" transform="translate(250.000000, 661.000000)">
                <g id="planner_filled-copy" transform="translate(340.000000, 12.000000)">
                    <path d="M12.7272727,2.90909091 L13.4545455,2.90909091 C13.6716364,2.90909091 13.8181818,2.76436364 13.8181818,2.54545455 L13.8181818,0.363636364 C13.8181818,0.144727273 13.6716364,0 13.4545455,0 L12.7272727,0 C12.5083636,0 12.3636364,0.144727273 12.3636364,0.363636364 L12.3636364,2.54545455 C12.3636364,2.76436364 12.5083636,2.90909091 12.7272727,2.90909091 L12.7272727,2.90909091 Z" id="Fill-1"></path>
                    <path d="M3.27272727,2.90909091 L4,2.90909091 C4.21854545,2.90909091 4.36363636,2.76436364 4.36363636,2.54545455 L4.36363636,0.363636364 C4.36363636,0.144727273 4.21854545,0 4,0 L3.27272727,0 C3.05527273,0 2.90909091,0.144727273 2.90909091,0.363636364 L2.90909091,2.54545455 C2.90909091,2.76436364 3.05527273,2.90909091 3.27272727,2.90909091 L3.27272727,2.90909091 Z" id="Fill-2"></path>
                    <path d="M16.7272727,2.18181818 C16.7272727,1.76 16.4067847,1.45454545 15.9678224,1.45454545 L14.4489218,1.45454545 L14.4489218,2.54545455 C14.4489218,3.16763636 13.9579372,3.63636364 13.3097463,3.63636364 L12.550296,3.63636364 C11.9005863,3.63636364 11.4111206,3.16763636 11.4111206,2.54545455 L11.4111206,1.45454545 L5.33551813,1.45454545 L5.33551813,2.54545455 C5.33551813,3.16763636 4.84453351,3.63636364 4.19634267,3.63636364 L3.43689236,3.63636364 C2.78718263,3.63636364 2.2977169,3.16763636 2.2977169,2.54545455 L2.2977169,1.45454545 L0.759450307,1.45454545 C0.318969129,1.45454545 0,1.76 0,2.18181818 L0,5.09090909 L16.7272727,5.09090909 L16.7272727,2.18181818 Z" id="Fill-3"></path>
                    <path d="M0,5.81818182 L0,15.2167832 C0,15.6694825 0.318969129,16 0.759450307,16 L15.9678224,16 C16.4067847,16 16.7272727,15.6694825 16.7272727,15.2167832 L16.7272727,5.81818182 L0,5.81818182 Z" id="Fill-4"></path>
                </g>
            </g>
        </g>
    </g>
</svg>