<svg width="30px" height="25px" viewBox="0 0 30 25" version="1.1" xmlns="http://www.w3.org/2000/svg" xmlns:xlink="http://www.w3.org/1999/xlink">
    <!-- Generator: Sketch 51.3 (57544) - http://www.bohemiancoding.com/sketch -->
    <desc>Created with Sketch.</desc>
    <defs></defs>
    <g id="Symbols" stroke="none" stroke-width="1" fill="none" fill-rule="evenodd" opacity="0.5">
        <g id="qual-icons" transform="translate(-133.000000, -3.000000)" fill="#007FA3">
            <g id="Edit-Test" transform="translate(133.000000, 3.000000)">
                <g id="Group-5">
                    <g id="Page-1">
                        <g>
                            <path d="M23.6065574,23.8764045 L23.6065574,0.842696629 C23.6065574,0.37747191 23.2761148,0 22.8688525,0 L0.737704918,0 C0.330442623,0 0,0.37747191 0,0.842696629 L0,23.8764045 C0,24.3416292 0.330442623,24.7191011 0.737704918,24.7191011 L22.8688525,24.7191011 C23.2761148,24.7191011 23.6065574,24.3416292 23.6065574,23.8764045 Z M1.47540984,1.68539326 L22.1311475,1.68539326 L22.1311475,3.79213483 L1.47540984,3.79213483 L1.47540984,1.68539326 Z M1.47540984,23.0337079 L1.47540984,5.47752809 L22.1311475,5.47752809 L22.1311475,23.0337079 L1.47540984,23.0337079 Z" id="Fill-1"></path>
                            <path d="M20.4098361,8.00561798 L11.8032787,8.00561798 C11.3960164,8.00561798 11.0655738,8.38308989 11.0655738,8.84831461 L11.0655738,11.3764045 C11.0655738,11.8416292 11.3960164,12.2191011 11.8032787,12.2191011 L20.4098361,12.2191011 C20.8170984,12.2191011 21.147541,11.8416292 21.147541,11.3764045 L21.147541,8.84831461 C21.147541,8.38308989 20.8170984,8.00561798 20.4098361,8.00561798 Z M19.6721311,10.5337079 L12.5409836,10.5337079 L12.5409836,9.69101124 L19.6721311,9.69101124 L19.6721311,10.5337079 Z" id="Fill-2"></path>
                            <polygon id="Fill-3" points="5.7 10.6632022 3.48688525 8.65412921 2.56954918 9.97522472 5.89217213 12.9915169 9.74495902 7.87606742 8.62590984 6.77550562"></polygon>
                            <path d="M20.4098361,15.8707865 L11.8032787,15.8707865 C11.3960164,15.8707865 11.0655738,16.2482584 11.0655738,16.7134831 L11.0655738,19.241573 C11.0655738,19.7067978 11.3960164,20.0842697 11.8032787,20.0842697 L20.4098361,20.0842697 C20.8170984,20.0842697 21.147541,19.7067978 21.147541,19.241573 L21.147541,16.7134831 C21.147541,16.2482584 20.8170984,15.8707865 20.4098361,15.8707865 Z M19.6721311,18.3988764 L12.5409836,18.3988764 L12.5409836,17.5561798 L19.6721311,17.5561798 L19.6721311,18.3988764 Z" id="Fill-4"></path>
                            <polygon id="Fill-5" points="8.28663934 14.4828652 6.27044262 16.7871067 4.2542459 14.4828652 3.21108197 15.6744944 5.2282377 17.9776404 3.21108197 20.2807865 4.2542459 21.4724157 6.27044262 19.1681742 8.28663934 21.4724157 9.32980328 20.2807865 7.31264754 17.9776404 9.32980328 15.6744944"></polygon>
                        </g>
                    </g>
                    <path d="M28.5147893,10.1128989 C28.429372,10.1134837 28.3439521,10.1514609 28.2779716,10.2268335 L27.2667629,11.3819595 L28.8892378,13.2353483 L29.9004464,12.0802223 C30.0318969,11.9300636 30.0334289,11.6893369 29.9035156,11.5409282 L28.7496088,10.2227949 C28.6846509,10.1485921 28.5997482,10.1117816 28.5143231,10.1123664 L28.5147893,10.1128989 Z M18.8509096,13.4894441 C17.8003273,14.7251912 17.2131148,16.3792409 17.2131148,18.101153 C17.2131148,19.8562708 17.823831,21.5401908 18.9102253,22.7812179 C19.9966196,24.0222303 21.4707527,24.7198649 23.0072001,24.7198649 C24.5441713,24.7198649 26.0177676,24.0222303 27.104175,22.7812179 C28.1910799,21.5402057 28.8012855,19.8562708 28.8012855,18.101153 C28.8002629,17.3994349 28.7010354,16.702967 28.508203,16.0368628 L27.1942223,17.537852 C27.2151923,17.7248213 27.2264452,17.9129572 27.2279799,18.1010932 C27.2279799,19.3800826 26.7835048,20.6058829 25.991725,21.5103654 C25.2004559,22.414833 24.1268806,22.9225667 23.0072145,22.9225667 C21.8875485,22.9225667 20.8139732,22.414833 20.0227041,21.5103654 C19.2309256,20.6064812 18.7864505,19.3801125 18.7864505,18.1010932 C18.7864505,16.8220739 19.2309256,15.5957051 20.0227041,14.6918209 C20.8139745,13.7873534 21.8875485,13.2796197 23.0072145,13.2796197 C23.1729319,13.2807879 23.3381386,13.293059 23.502324,13.3164287 L24.8122456,11.8200763 C24.2296683,11.5992133 23.6204841,11.4852817 23.0072407,11.482365 C21.4410294,11.4824412 19.9418998,12.2063563 18.8509096,13.4894441 Z M26.9543799,11.7389331 L21.4385415,18.0397972 C21.2359908,18.8782421 21.0876622,19.4853089 20.8958616,20.272958 C20.8508511,20.4570105 20.944964,20.5645104 21.1060854,20.5131013 C21.8267649,20.2846548 22.3986051,20.1011856 23.0610164,19.893186 L28.5768547,13.592322 L26.9543799,11.7389331 Z M21.7387341,18.3711067 L22.7601691,19.5379145 L21.844612,19.8183684 L21.4937327,19.4175512 L21.7392447,18.37169 L21.7387341,18.3711067 Z" id="Page-1"></path>
                </g>
            </g>
        </g>
    </g>
</svg>