<?xml version="1.0" encoding="UTF-8"?>
<svg width="134px" height="134px" viewBox="0 0 134 134" version="1.1" xmlns="http://www.w3.org/2000/svg" xmlns:xlink="http://www.w3.org/1999/xlink">
    <!-- Generator: Sketch 43.2 (39069) - http://www.bohemiancoding.com/sketch -->
    <title>icon_community</title>
    <desc>Created with Sketch.</desc>
    <defs></defs>
    <g id="Exportable-Icons" stroke="none" stroke-width="1" fill="none" fill-rule="evenodd">
        <g id="icon_community">
            <circle id="Oval" fill="#11B2A6" opacity="0.05" cx="66.7832031" cy="66.7832031" r="66.7832031"></circle>
            <circle id="Oval" fill="#D5EAE4" opacity="0.699999988" cx="66.6416016" cy="66.6416016" r="38.6416016"></circle>
            <path d="M65.9453125,79.125 L65.6289063,79.125 C61.5852344,79.125 58.0035156,75.6075 57.5563281,71.3991 C55.6874219,70.7775 54.3458594,68.5137 54.3458594,66.525 L54.3458594,64.425 C54.3458594,63.0558 55.2275781,61.8882 56.4552344,61.4556 L56.4552344,58.755 C56.4552344,55.1241 58.4928906,52.6629 61.5451563,52.5642 C62.1189063,52.3647 62.7179688,52.1442 63.3275781,51.9111 C65.5550781,51.0753 67.860625,50.208 69.9383594,50.208 C73.5875781,50.208 75.4396094,52.8729 75.4396094,58.125 L75.4396094,61.6866 C76.2749219,62.1654 77.5489844,63.1125 77.5489844,64.425 L77.5489844,66.525 C77.5489844,68.4297 75.9796094,70.7691 74.02,71.4033 C73.5685938,75.6075 69.9889844,79.125 65.9453125,79.125 L65.9453125,79.125 Z M69.9341406,52.308 L69.9341406,52.308 C70.9508594,52.308 73.328125,52.308 73.328125,58.1208 L73.328125,62.3208 C73.328125,62.7345 73.5728125,63.1104 73.9525,63.2784 C74.6275,63.5808 75.3932031,64.173 75.4375,64.4208 L75.4375,66.5208 C75.4375,67.8123 74.0790625,69.4566 73.0117187,69.4566 C72.4316406,69.4566 71.9570312,69.9312 71.9570312,70.5066 C71.9570312,73.98 69.1473437,77.0208 65.9453125,77.0208 L65.6289062,77.0208 C62.426875,77.0208 59.6171875,73.9737 59.6171875,70.5066 C59.6171875,69.9312 59.1446875,69.4566 58.5625,69.4566 C57.4972656,69.4566 56.453125,67.7787 56.453125,66.5208 L56.453125,64.4208 C56.453125,63.8433 56.925625,63.3708 57.5078125,63.3708 C58.09,63.3708 58.5625,62.8983 58.5625,62.3208 L58.5625,58.7508 C58.5625,56.7768 59.3935937,54.6558 61.7265625,54.6558 C61.8425781,54.6558 61.9564844,54.6411 62.0661719,54.6033 C62.7074219,54.3807 63.3803125,54.1287 64.0679687,53.8704 C66.1203906,53.106 68.2424219,52.308 69.9341406,52.308 Z M83.9741406,89.625 L48.015625,89.625 C47.4334375,89.625 46.9609375,89.1546 46.9609375,88.575 C46.9609375,81.9894 51.9917969,77.025 58.6616406,77.025 C59.2438281,77.025 59.7163281,77.4954 59.7163281,78.075 C59.7163281,78.6546 59.2438281,79.125 58.6616406,79.125 C53.46625,79.125 49.601875,82.5984 49.1209375,87.525 L82.8709375,87.525 C82.3878906,82.5984 78.5235156,79.125 73.3302344,79.125 C72.7501562,79.125 72.2755469,78.6546 72.2755469,78.075 C72.2755469,77.4954 72.7501562,77.025 73.3302344,77.025 C80.0000781,77.025 85.0309375,81.9894 85.0309375,88.575 C85.0288281,89.1546 84.5563281,89.625 83.9741406,89.625 Z M42.7421875,63.3708 C42.16,63.3708 41.6875,62.9004 41.6875,62.3208 C41.6875,58.8474 44.5267188,56.0208 48.015625,56.0208 C48.5978125,56.0208 49.0703125,56.4912 49.0703125,57.0708 C49.0703125,57.6504 48.5978125,58.1208 48.015625,58.1208 C45.6889844,58.1208 43.796875,60.0024 43.796875,62.3208 C43.796875,62.9004 43.324375,63.3708 42.7421875,63.3708 Z M91.2578125,63.3708 C90.6777344,63.3708 90.203125,62.9004 90.203125,62.3208 C90.203125,60.0024 88.313125,58.1208 85.984375,58.1208 C85.4042969,58.1208 84.9296875,57.6504 84.9296875,57.0708 C84.9296875,56.4912 85.4042969,56.0208 85.984375,56.0208 C89.4732812,56.0208 92.3125,58.8474 92.3125,62.3208 C92.3125,62.9004 91.8378906,63.3708 91.2578125,63.3708 Z M52.234375,57.075 C48.8319531,57.075 46.9609375,49.977 46.9609375,47.625 C46.9609375,44.7291 49.3276562,42.375 52.234375,42.375 C55.1410937,42.375 57.5078125,44.7291 57.5078125,47.625 C57.5078125,49.977 55.6367969,57.075 52.234375,57.075 Z M52.234375,44.475 C50.4899219,44.475 49.0703125,45.8883 49.0703125,47.625 C49.0703125,50.0925 50.9940625,54.975 52.234375,54.975 C53.4746875,54.975 55.3984375,50.0925 55.3984375,47.625 C55.3984375,45.8883 53.9788281,44.475 52.234375,44.475 Z M81.765625,57.075 C78.3632031,57.075 76.4921875,49.977 76.4921875,47.625 C76.4921875,44.7291 78.8589062,42.375 81.765625,42.375 C84.6723437,42.375 87.0390625,44.7291 87.0390625,47.625 C87.0390625,49.977 85.1680469,57.075 81.765625,57.075 Z M81.765625,44.475 C80.0211719,44.475 78.6015625,45.8883 78.6015625,47.625 C78.6015625,50.0925 80.5253125,54.975 81.765625,54.975 C83.0059375,54.975 84.9296875,50.0925 84.9296875,47.625 C84.9296875,45.8883 83.5100781,44.475 81.765625,44.475 Z" id="Combined-Shape" fill="#003057"></path>
        </g>
    </g>
</svg>