<svg width="33px" height="33px" viewBox="0 0 33 33" version="1.1" xmlns="http://www.w3.org/2000/svg" xmlns:xlink="http://www.w3.org/1999/xlink">
    <desc>Created with Sketch.</desc>
    <defs></defs>
    <g id="Symbols" stroke="none" stroke-width="1" fill="none" fill-rule="evenodd">
        <g id="footer" transform="translate(-1178.000000, -24.000000)" fill="#FFFFFF">
            <g id="Page-1" transform="translate(1178.000000, 24.000000)">
                <path d="M16.6488172,17.8777103 L25.3751268,13.8514214 C26.6327074,13.3118421 25.813653,11.5761505 24.4939982,12.1324374 L17.0806766,15.3121598 L17.0806766,6.96127743 C17.0806766,5.64955974 15,5.7099442 15,6.96127743 L15.0310336,16.965497 C15.0310336,17.7131988 15.8797607,18.252811 16.6489001,17.8776445 L16.6488172,17.8777103 Z" id="Fill-1"></path>
                <path d="M16.5006651,0 C7.38783634,0 0,7.38753846 0,16.4999998 C0,25.6124611 7.38783634,33 16.5006651,33 C25.6134939,33 33,25.6124611 33,16.4999998 C33,7.38753846 25.6134939,0 16.5006651,0 Z M16.5006651,31.1151221 C8.42941651,31.1151221 1.88495381,24.5705904 1.88495381,16.4999998 C1.88495381,8.42807898 8.42974907,1.88487814 16.5006651,1.88487814 C24.5719137,1.88487814 31.1163761,8.42807898 31.1163761,16.4999998 C31.1163761,24.570923 24.5729114,31.1151221 16.5006651,31.1151221 Z" id="Fill-2"></path>
            </g>
        </g>
    </g>
</svg>