
<svg width="19px" height="17px" viewBox="0 0 19 17" version="1.1" xmlns="http://www.w3.org/2000/svg" xmlns:xlink="http://www.w3.org/1999/xlink">
    <g id="Tutor" stroke="none" stroke-width="1" fill="none" fill-rule="evenodd">
        <g id="Tutor-Action-Plan" transform="translate(-316.000000, -675.000000)">
            <g id="Group" transform="translate(250.000000, 661.000000)">
                <g id="literature-copy-3" transform="translate(66.000000, 15.000000)">
                    <path d="M9.33333333,13.9806154 L9.33333333,0.717948718" id="Stroke-1" stroke="#FFFFFF"></path>
                    <path d="M17.9487179,13.9806154 C17.9487179,13.9806154 15.7553846,13.0831795 13.6410256,13.0831795 C11.5266667,13.0831795 9.33333333,13.9806154 9.33333333,13.9806154 C9.33333333,13.9806154 7.14,13.0831795 5.02564103,13.0831795 C2.91128205,13.0831795 0.717948718,13.9806154 0.717948718,13.9806154 L0,15.0769231 L18.6666667,15.0769231 L17.9487179,13.9806154 Z" id="Fill-2" fill="#FFFFFF"></path>
                    <path d="M13.6410256,0 C11.5266667,0 9.33333333,0.897435897 9.33333333,0.897435897 C9.33333333,0.897435897 7.14,0 5.02564103,0 C2.91128205,0 0.717948718,0.897435897 0.717948718,0.897435897 L0.717948718,13.9806154 C0.717948718,13.9806154 2.91128205,13.0831795 5.02564103,13.0831795 C7.14,13.0831795 9.33333333,13.9806154 9.33333333,13.9806154 C9.33333333,13.9806154 11.5266667,13.0831795 13.6410256,13.0831795 C15.7553846,13.0831795 17.9487179,13.9806154 17.9487179,13.9806154 L17.9487179,0.897435897 C17.9487179,0.897435897 15.7553846,0 13.6410256,0 L13.6410256,0 Z" id="Stroke-3" stroke="#FFFFFF"></path>
                    <path d="M10.7692308,14.3589744 C10.7692308,15.1523077 10.1266667,15.7948718 9.33333333,15.7948718 C8.54,15.7948718 7.8974359,15.1523077 7.8974359,14.3589744 C7.8974359,13.565641 10.7692308,13.565641 10.7692308,14.3589744 L10.7692308,14.3589744 Z" id="Fill-4" fill="#FFFFFF"></path>
                </g>
            </g>
        </g>
    </g>
</svg>