<?xml version="1.0" encoding="UTF-8" standalone="no"?>
<svg width="25px" height="25px" viewBox="0 0 25 25" version="1.1" xmlns="http://www.w3.org/2000/svg" xmlns:xlink="http://www.w3.org/1999/xlink">
    <!-- Generator: sketchtool 40.3 (33839) - http://www.bohemiancoding.com/sketch -->
    <title>40DF61F5-D059-4343-9EB9-1142FCDEEB92</title>
    <desc>Created with sketchtool.</desc>
    <defs></defs>
    <g id="Symbols" stroke="none" stroke-width="1" fill="none" fill-rule="evenodd">
        <g id="Footer" transform="translate(-29.000000, -29.000000)" fill="#FFFFFF">
            <g id="Group-7">
                <g transform="translate(29.000000, 29.000000)">
                    <path d="M10.15625,0 C4.5559375,0 0,4.55625 0,10.15625 C0,15.75625 4.5559375,20.3125 10.15625,20.3125 C12.1090625,20.3125 13.93375,19.7571875 15.48375,18.7984375 L20.99875,24.31375 C21.4415625,24.75625 22.0303125,25 22.65625,25 C23.2821875,25 23.870625,24.75625 24.3134375,24.31375 C24.75625,23.87125 25,23.2821875 25,22.65625 C25,22.0303125 24.75625,21.4415625 24.3134375,20.9990625 L18.798125,15.48375 C19.7571875,13.93375 20.3125,12.1090625 20.3125,10.15625 C20.3125,4.55625 15.7565625,0 10.15625,0 L10.15625,0 Z M10.15625,17.1875 C6.279375,17.1875 3.125,14.0334375 3.125,10.15625 C3.125,6.2790625 6.279375,3.125 10.15625,3.125 C14.033125,3.125 17.1875,6.2790625 17.1875,10.15625 C17.1875,14.0334375 14.033125,17.1875 10.15625,17.1875 L10.15625,17.1875 Z" id="Shape"></path>
                    <path d="M4.6875,10.15625 L6.25,10.15625 C6.25,8.0021875 8.0021875,6.25 10.15625,6.25 L10.15625,4.6875 C7.1409375,4.6875 4.6875,7.1409375 4.6875,10.15625 L4.6875,10.15625 Z" id="Shape"></path>
                </g>
            </g>
        </g>
    </g>
</svg>