
<svg width="20px" height="21px" viewBox="0 0 20 21" version="1.1" xmlns="http://www.w3.org/2000/svg" xmlns:xlink="http://www.w3.org/1999/xlink">
    <g id="Tutor" stroke="none" stroke-width="1" fill="none" fill-rule="evenodd" stroke-linecap="round">
        <g id="Tutor-Unit-Progress" transform="translate(-1083.000000, -993.000000)" stroke="#9B9B9B">
            <g id="brain" transform="translate(1084.000000, 994.000000)">
                <path d="M16.808,9.6 C18,10.8 18,13.2 15.6,14 C16.8,16.4 15.0532,17.2 13.2,17.2 C12.8048,18.7908 11.142,19.2048 10.4016,19.2 C9.4892,19.1936 8.8,18.528 8.8,17.6 L8.8,2.2624 C8.8,0.4564 9.3264,0 10.4016,0 C12.8032,0 14.1248,1.4248 14.4048,2.4 C16.7812,2.6892 18.758,5.55 16.808,9.6 L16.808,9.6 Z" id="Stroke-1"></path>
                <path d="M16.872,9.2 C16.872,9.2 16.4,11.2 13.2,11.2" id="Stroke-2"></path>
                <path d="M12,4.8 C12,5.6 12.8,7.2 15.2,7.2" id="Stroke-3"></path>
                <path d="M0.7936,9.6 C-0.3156,10.8032 -0.4,13.2 2,14 C0.8,16 2.5484,17.6 4.4,17.6 C4.7952,19.1908 6.4,19.2 7.1984,19.2 C8.1108,19.2 8.8,18.528 8.8,17.6 L8.8,2.2624 C8.8,0.4564 8.2736,0 7.1984,0 C4.7968,0 3.4752,1.4248 3.1952,2.4 C0.8188,2.6892 -1.158,5.55 0.7936,9.6 L0.7936,9.6 Z" id="Stroke-4"></path>
                <path d="M5.6,9.2 C5.6,9.2 4.7608,8.4 3.2,8.4 C1.8376,8.4 0.7936,9.6 0.7936,9.6" id="Stroke-5"></path>
                <path d="M5.5968,15.2 C5.5968,14.8 5.6,12.4 3.1952,12" id="Stroke-6"></path>
                <path d="M6.3968,4 C6.3968,4.4 6,5.6 4,5.6" id="Stroke-7"></path>
                <path d="M13.2,17.2 C12,16.8 11.2,16 11.2,14.4" id="Stroke-8"></path>
            </g>
        </g>
    </g>
</svg>