<?xml version="1.0" encoding="UTF-8"?>
<svg width="39px" height="28px" viewBox="0 0 39 28" version="1.1" xmlns="http://www.w3.org/2000/svg" xmlns:xlink="http://www.w3.org/1999/xlink">
    <!-- Generator: sketchtool 42 (36781) - http://www.bohemiancoding.com/sketch -->
    <title>95CFE15B-EE04-4CAD-983D-37EF9BF96B83</title>
    <desc>Created with sketchtool.</desc>
    <defs></defs>
    <g id="Symbols" stroke="none" stroke-width="1" fill="none" fill-rule="evenodd">
        <g id="Pearson-Book-Title-Cover" transform="translate(-28.000000, -26.000000)">
            <g id="Pearson-Logo">
                <g transform="translate(28.000000, 26.000000)">
                    <g id="logo">
                        <g id="Pearson-text" transform="translate(0.000000, 19.870968)" fill="#000000">
                            <path d="M17.4525044,7.48261037 C17.4311509,7.42799872 17.3722841,7.39647035 17.3145715,7.4094195 L17.2966806,7.41448656 C17.1258518,7.45051899 16.9942671,7.44038487 16.9019271,7.37958015 C16.7709197,7.29344013 16.7074359,7.09863982 16.7074359,6.7844821 L16.7074359,3.9452394 C16.7074359,2.83611623 16.0298909,2.27367257 14.692115,2.27367257 C13.4945803,2.27367257 12.5561747,2.82654512 12.5561747,3.53255551 C12.5561747,3.89569482 12.782985,4.15805592 13.1177176,4.19746639 C13.3364479,4.2233647 13.5453674,4.12652755 13.6965741,3.9705747 C13.9909079,3.66767711 13.9533947,3.30678981 13.5961544,2.92000423 C13.8073821,2.70437267 14.1813591,2.57713316 14.6078547,2.57713316 C15.3027132,2.57713316 15.5993556,2.97911993 15.5993556,3.92159312 L15.5993556,4.63942663 C15.4366065,4.68840821 15.2842453,4.73457475 15.0049168,4.79875751 C14.4422197,4.92768604 13.6700262,5.09940311 13.0877071,5.41299782 C12.6069618,5.67029187 12.3628379,6.07621968 12.3628379,6.61952114 C12.3628379,7.21124115 12.7610541,7.90205037 13.8829856,7.90205037 C14.5114747,7.90205037 15.0741718,7.6115389 15.6518741,6.98772751 C15.7020838,7.63574818 15.9537106,7.87896709 16.5643088,7.87896709 C16.8580656,7.87896709 17.0929556,7.81196927 17.3722841,7.68022571 C17.4478874,7.64419328 17.4836691,7.55861627 17.4525044,7.48261037 L17.4525044,7.48261037 L17.4525044,7.48261037 Z M15.5993556,6.61501709 C15.4631541,6.80024629 15.0176135,7.35142982 14.4624191,7.35142982 C13.7127335,7.35142982 13.5551785,6.83796773 13.5551785,6.40726763 C13.5551785,5.69900521 14.1115271,5.37133533 15.5993556,5.01270008 L15.5993556,6.61501709 L15.5993556,6.61501709 Z M29.9766971,7.92625966 C28.3872944,7.92625966 27.1886056,6.71129123 27.1886056,5.09996611 C27.1886056,3.52242139 28.4392359,2.23876616 29.9766971,2.23876616 C31.5332038,2.23876616 32.7532462,3.4745658 32.7532462,5.05323656 C32.7532462,6.82783361 31.3121647,7.92625966 29.9766971,7.92625966 L29.9766971,7.92625966 Z M29.9166762,2.54166374 C29.2298974,2.54166374 28.4409671,2.82992316 28.4409671,5.07631983 C28.4409671,6.79011217 28.9592256,7.62279903 30.0251756,7.62279903 C31.0449559,7.62279903 31.5003076,6.83796773 31.5003076,5.07631983 C31.5003076,3.37097257 30.9820491,2.54166374 29.9166762,2.54166374 L29.9166762,2.54166374 Z M5.40444003,2.34010736 C5.40444003,3.64740887 5.07432447,4.3669314 3.38565629,4.3669314 L2.49053521,4.3669314 L2.49053521,0.418002525 L3.42201518,0.418002525 C5.16897297,0.418002525 5.40444003,1.38975207 5.40444003,2.34010736 L5.40444003,2.34010736 Z M2.49053521,6.7844821 L2.49053521,4.7300707 L3.30139603,4.7300707 C4.51105032,4.7300707 5.43098779,4.48065875 6.03639206,3.98802791 C6.66949835,3.47287678 6.80223712,2.82035205 6.80223712,2.36375364 C6.80223712,0.485563326 4.94447129,0.0914586565 3.38565629,0.0914586565 L3.39200468,0.0908956499 L0.231090265,0.0908956499 C0.159526765,0.0908956499 0.101237118,0.14832233 0.101237118,0.217572151 L0.101237118,0.226017251 L0.101237118,0.223765224 C0.101237118,0.287947984 0.141058765,0.345374665 0.203388265,0.367331925 C0.485025324,0.468673126 1.24971615,0.326795445 1.24971615,1.12682795 L1.24971615,6.78335609 C1.24971615,7.19491396 1.06272759,7.4854254 0.208005265,7.56424634 C0.1399045,7.57043941 0.0891175,7.62448805 0.0891175,7.68979682 L0.0891175,7.70950206 C0.0891175,7.77931489 0.14683,7.83561555 0.218393529,7.83561555 L3.59572985,7.83561555 C3.66729335,7.83561555 3.725583,7.77931489 3.725583,7.70950206 L3.725583,7.69204885 C3.725583,7.62674008 3.6724875,7.57156542 3.60438674,7.56593536 C2.67579238,7.4933075 2.48938094,7.21293017 2.48938094,6.78335609 L2.48938094,4.73401175 L2.49053521,6.7844821 L2.49053521,6.7844821 Z M9.35832438,2.23595112 C7.88838665,2.23595112 6.69200624,3.53424453 6.69200624,5.13036847 C6.69200624,6.74619765 7.81336038,7.91894057 9.35832438,7.91894057 C10.6562788,7.91894057 11.2882309,7.16225957 11.6500882,6.59362284 C11.68587,6.53732217 11.6702876,6.46300529 11.6148838,6.42415783 L11.59757,6.41233469 C11.5415888,6.3734872 11.4636768,6.38474733 11.4203926,6.43766999 C10.94311,7.02150791 10.5252714,7.35931191 9.803865,7.35931191 C8.89143015,7.35931191 7.91666576,6.74619765 7.91666576,5.02452322 L7.91666576,5.01213707 C7.91493441,4.93613114 7.91666576,4.83197491 7.91955141,4.73457475 L11.6529738,4.73457475 C11.6633621,4.73457475 11.6714421,4.72669266 11.6720191,4.71655854 L11.6743276,4.68728219 C11.7274229,3.98183484 11.5225435,3.34732629 11.0977794,2.90198801 C10.6828266,2.46622085 10.0814622,2.23595112 9.35832438,2.23595112 L9.35832438,2.23595112 Z M7.94032791,4.37199846 C8.06325556,3.19418847 8.53418968,2.54841982 9.27406412,2.54841982 C9.64400132,2.54841982 9.91871288,2.64863501 10.1126269,2.85469545 C10.3792588,3.13676179 10.4923753,3.64740887 10.4479366,4.37199846 L7.94032791,4.37199846 L7.94032791,4.37199846 Z M24.8327809,4.43505521 L24.8316265,4.43505521 C23.8106921,4.15524089 23.4130529,3.87261154 23.4130529,3.42614722 C23.4130529,2.9177522 23.8268518,2.54841982 24.3970512,2.54841982 C25.0676706,2.54841982 25.3550791,2.86145153 26.0632115,4.01617824 L26.0724456,4.03137942 C26.0759082,4.0375725 26.0822568,4.04095054 26.0822568,4.04095054 L26.1861391,4.04095054 C26.2577026,4.04095054 26.3159924,3.98408686 26.3159924,3.91427404 L26.3159924,2.25453034 C26.3159924,2.24439622 26.3073356,2.23595112 26.3073356,2.23595112 L26.1682482,2.23595112 C26.1295809,2.23595112 26.092645,2.25284132 26.0684056,2.28211767 L25.8421726,2.55010884 C25.5570729,2.39697103 25.0924871,2.23595112 24.62617,2.23595112 C23.4534518,2.23595112 22.6345112,2.94252449 22.6345112,3.95481052 C22.6345112,4.90516577 23.2803141,5.26098602 24.39532,5.5548755 C25.4785838,5.84426093 25.8629491,6.1454695 25.8629491,6.70453515 C25.8629491,7.32665752 25.2454253,7.60590883 24.8068103,7.60590883 C23.9907553,7.60590883 23.6462115,7.31033033 22.8642071,5.93997206 L22.8549729,5.92364487 C22.8515103,5.9174518 22.8451618,5.91351075 22.8451618,5.91351075 L22.740125,5.91351075 C22.6685615,5.91351075 22.6102718,5.97093743 22.6102718,6.04018725 L22.6102718,7.89979834 C22.6102718,7.91049547 22.6189288,7.91894057 22.6298941,7.91894057 L22.7626329,7.91894057 C22.7966832,7.91894057 22.8301565,7.90542841 22.8543959,7.88178213 L23.2116362,7.53328097 C23.6300521,7.78663397 24.2556556,7.91894057 24.6619518,7.91894057 C25.2719729,7.91894057 25.7734947,7.7303333 26.1122674,7.37395008 C26.4146809,7.05585131 26.5808929,6.60544598 26.5808929,6.10549603 C26.5808929,5.23959177 26.1070732,4.78693437 24.8327809,4.43505521 L24.8327809,4.43505521 Z M18.6546562,7.16845265 C18.6546562,7.45502304 18.5802071,7.54904516 18.1121585,7.5777585 C18.0440576,7.58226255 17.9909624,7.6374372 17.9909624,7.70387199 C17.9909624,7.77368482 18.0492518,7.82998549 18.1208153,7.82998549 L20.4310474,7.82998549 C20.5014565,7.82998549 20.5585921,7.77424783 20.5585921,7.70612402 C20.5585921,7.63856322 20.5049194,7.58282556 20.4356644,7.58001052 C19.9012465,7.55467522 19.7627365,7.47022422 19.7627365,7.16845265 L19.7627365,3.86360343 C20.1430618,3.2465481 20.4160421,2.92338227 20.8777421,2.82598211 C20.8552344,2.90424004 20.8408062,2.99713614 20.8408062,3.07314204 C20.8408062,3.4745658 21.1282144,3.75494315 21.5397047,3.75494315 C21.9436924,3.75494315 22.2264835,3.4745658 22.2264835,3.07314204 C22.2264835,2.69367554 21.9835138,2.25002629 21.2978894,2.25002629 C20.7363465,2.25002629 20.1996203,2.56418401 19.7384971,3.31579792 L19.7384971,2.46565784 C19.7384971,2.37895482 19.6652024,2.30914199 19.576325,2.31139402 L18.1208153,2.34967847 C18.0498291,2.3519305 17.9950021,2.40710515 17.9950021,2.47579196 L17.9950021,2.49380818 C17.9950021,2.55630192 18.0411721,2.60978755 18.1029244,2.61823265 C18.5882868,2.68523044 18.6552332,2.91043311 18.6546562,3.14408088 L18.6546562,7.16845265 L18.6546562,7.16845265 Z M34.63352,2.30801598 C34.6669932,2.30801598 34.6993121,2.32096513 34.7229744,2.3440484 C34.748945,2.36769468 34.7627959,2.39922306 34.7633732,2.43412947 L34.76799,3.37660264 C34.76799,3.37660264 35.2423871,2.27085754 36.7810026,2.27085754 L36.7948535,2.27085754 C37.7540356,2.27085754 38.3040359,2.86764461 38.3040359,3.90808096 L38.3040359,7.16338559 C38.3040359,7.44995598 38.3790621,7.5439781 38.8465335,7.57269144 C38.9146341,7.57663248 38.9677297,7.63180714 38.9677297,7.69880493 C38.9677297,7.76805475 38.90944,7.82491843 38.8384538,7.82491843 L36.7625347,7.82491843 C36.6909712,7.82491843 36.6326815,7.76805475 36.6326815,7.69824192 C36.6326815,7.63068112 36.6851997,7.57550647 36.7509921,7.5698764 C37.1284321,7.53834803 37.1884529,7.44545193 37.1884529,7.16338559 L37.1884529,4.22561672 C37.1884529,3.2549932 36.9056615,2.87777873 36.1802153,2.87777873 C35.6896588,2.87777873 35.2885571,3.29496667 35.0380847,3.64515685 C35.0380847,3.64515685 34.9099629,3.8016727 34.7714529,4.0966882 L34.7864582,7.16282258 C34.7864582,7.44488892 34.845325,7.53778502 35.2117994,7.5693134 C35.2775915,7.57494346 35.3295329,7.63068112 35.3295329,7.69542689 C35.3295329,7.76805475 35.2712432,7.82491843 35.2002568,7.82491843 L33.1370344,7.82491843 C33.0660479,7.82491843 33.0077585,7.76805475 33.0077585,7.69824192 C33.0077585,7.63180714 33.0614312,7.57663248 33.1289547,7.57212843 C33.5964262,7.54341509 33.6708753,7.44995598 33.6708753,7.16338559 L33.6708753,3.14464389 C33.6708753,2.91043311 33.6039288,2.68410443 33.1162579,2.61654363 C33.0545056,2.60809853 33.0077585,2.55404989 33.0077585,2.49155615 L33.0077585,2.47297693 C33.0077585,2.40372711 33.0631624,2.34855246 33.1341488,2.34630043 L34.63352,2.30801598 L34.63352,2.30801598 Z" id="Shape"></path>
                        </g>
                        <g id="Pearson-logo" transform="translate(11.470588, 0.000000)">
                            <path d="M12.4341859,1.10118208 C16.0925822,3.13476221 16.9444189,7.69399031 14.3987199,12.3072671 C12.1617829,16.3620412 7.27699568,18.0938497 3.63706741,16.0298672 C-0.00343797062,13.9647588 -0.713879021,8.20463739 0.850707238,4.89021704 C3.12227179,0.0765099197 8.39200147,-1.14634059 12.4341859,1.10118208" id="Shape" fill="#00a287"></path>
                            <path d="M12.3493486,4.59914259 C13.0655609,5.34512646 13.2883311,6.47676986 13.1642492,7.40516789 C13.0216994,8.46362046 12.3637767,9.44325207 11.2701245,10.0923988 C10.4027054,10.6081129 9.26288329,10.8130473 8.14152915,10.8231814 C8.13229515,10.9965875 8.0970905,11.5939376 8.07919962,11.6885227 C8.053229,11.8275854 8.00301912,11.9030283 7.94184385,11.9807232 C7.82122471,12.134424 7.61230538,12.2329502 7.40454035,12.2909399 C7.24005968,12.3359804 7.07673326,12.3562486 6.96073112,12.3562486 C6.94168597,12.3562486 6.92264085,12.3545596 6.90359571,12.3528706 C6.78182232,12.3393584 6.64619791,12.2830578 6.56251476,12.1924137 C6.47883162,12.1006436 6.43150735,11.9857902 6.42054197,11.8551727 L6.41130797,11.7369413 C6.38764585,11.6356001 6.25779268,6.49197104 6.28260906,6.58374116 C6.30165421,5.96724883 7.32143432,5.86027756 7.87489732,5.96893785 C8.42951459,6.07759813 8.28927318,6.73518995 8.27426794,7.54310453 C8.27426794,7.54310453 8.24772018,8.60549814 8.19635603,9.72813347 C8.90275721,9.70167216 9.46372285,9.50518283 9.98832959,9.25126679 C11.0485085,8.73780471 11.6094741,7.95128436 11.6094741,6.79317964 C11.6094741,5.63507489 10.4540696,4.33790749 8.32159218,4.33790749 C6.18911479,4.33790749 5.27379432,4.86262971 4.24131744,5.69587961 C4.008736,5.88392384 3.82925009,6.07309408 3.66015241,6.19751855 C3.49047765,6.32194303 3.03974291,6.34108526 2.91970087,6.0494478 C2.77368821,5.69813164 3.04551415,5.306279 3.20537782,5.11654575 C3.45642726,4.81871519 4.07452826,4.21911309 4.76015294,3.87061196 C5.54562026,3.47087719 6.5059565,3.04017709 7.84315544,3.0069597 C9.05280974,2.97768335 10.963094,3.07283148 12.3389603,4.58900847 M7.72426768,13.1151817 C7.61288253,13.0307307 7.4882235,12.972741 7.36183309,12.9485317 C7.31912582,12.9400866 7.27468718,12.9355825 7.23140279,12.9355825 C6.99362724,12.9355825 6.75989156,13.063385 6.60753053,13.2778906 C6.480563,13.4558007 6.42804459,13.6691802 6.46151785,13.8752407 C6.48344862,14.0075473 6.5336585,14.1218376 6.60868476,14.2068516 C6.69236791,14.3025628 6.82048971,14.3763166 6.97977624,14.4207942 C7.07153915,14.4455664 7.16561053,14.4590786 7.25968194,14.4590786 L7.26025906,14.4590786 C7.46571562,14.4590786 7.65039565,14.3982739 7.79409982,14.2856726 C7.96088897,14.15224 8.05149762,13.9636327 8.04976624,13.7525052 C8.04745774,13.5075973 7.92626147,13.2683195 7.72426768,13.1151817" id="Shape" fill="#FFFFFF"></path>
                        </g>
                    </g>
                </g>
            </g>
        </g>
    </g>
</svg>