
<svg width="475px" height="645px" viewBox="0 0 475 645" version="1.1" xmlns="http://www.w3.org/2000/svg" xmlns:xlink="http://www.w3.org/1999/xlink">
    <desc>Created with Sketch.</desc>
    <defs></defs>
    <g id="Page-1" stroke="none" stroke-width="1" fill="none" fill-rule="evenodd" opacity="0.233978714">
        <g id="3.-SLTA-complete-Copy" transform="translate(-74.000000, -128.000000)" fill="#E1DEE2">
            <g id="logo_transparent" transform="translate(74.000000, 128.000000)">
                <g transform="translate(173.993343, 389.393884) rotate(-15.000000) translate(-173.993343, -389.393884) translate(-53.506657, -21.106116)" id="Page-1">
                    <g>
                        <g>
                            <g id="Layer_1" transform="translate(-0.000000, 0.000000)">
                                <g id="Group" transform="translate(-0.000000, 0.000000)">
                                    <path d="M111.152485,357.417042 C110.692262,366.33527 108.621261,375.024826 108.161038,384.171727 C106.550259,415.499864 113.453597,444.541275 130.711942,470.838616 C131.632387,472.210651 132.552832,473.354014 134.16361,475.412066 C134.393722,462.14906 136.234612,450.258088 145.899285,441.33986 C155.563958,432.192958 167.529743,431.964286 180.646085,433.107649 C163.157629,444.312602 161.086628,461.23437 161.776962,478.842154 C162.927518,505.368168 172.131968,529.150111 188.699979,549.959311 C189.620424,551.102673 190.77098,552.246036 191.691425,553.389399 C192.151648,553.846744 192.61187,554.304089 193.532315,554.990106 C191.001092,547.443913 188.239756,540.583737 186.398866,533.494889 C179.035306,507.654893 180.646085,481.814897 186.628978,455.974901 C191.231203,436.309064 197.674318,416.871899 201.816321,397.206062 C205.498101,378.912259 206.878768,360.618457 203.657211,341.409965 C217.233775,344.154035 230.580228,344.840053 244.156792,341.409965 C244.617015,353.300936 242.776125,364.277217 240.01479,375.024826 C234.722231,396.062699 225.747892,415.499864 217.693998,435.623046 C209.409992,455.974901 202.276543,476.555429 200.205542,498.507992 C198.364652,518.402502 200.665764,537.839667 207.569102,557.276832 C208.259436,552.246036 208.489547,547.901258 209.179881,543.785152 C211.711105,530.979491 219.074665,520.917899 228.969449,512.685688 C237.253455,505.59684 245.767571,498.736664 252.440798,490.047108 C258.193579,482.729587 263.71625,475.183394 266.477585,466.036493 C269.23892,456.203574 266.707696,447.971363 258.653802,441.568532 C255.432244,439.053134 251.980575,437.452427 248.298795,435.394374 C262.795805,427.84818 283.96604,436.080391 290.869378,451.630123 C295.701715,462.835077 295.241492,474.268704 293.170491,485.931003 C292.94038,487.760383 291.789823,489.589763 292.710268,491.647816 C292.480157,491.647816 292.250046,491.647816 292.019934,491.876488 C292.019934,491.876488 292.250046,492.105161 292.250046,491.876488 L292.480157,491.647816 C306.056721,483.186932 315.721394,470.838616 322.624732,456.660919 C332.749627,435.623046 335.510963,413.213139 334.590517,390.345886 C333.900184,376.396861 332.059294,362.447837 328.607625,348.727486 C328.377513,347.812795 327.917291,346.669433 328.607625,345.52607 L328.607625,345.52607 C344.025079,363.362527 353.459641,383.714382 358.291977,406.581635 C370.027651,464.435785 344.025079,523.890642 292.019934,551.331346 C244.617015,576.485324 196.063539,578.314704 149.581065,548.12993 C117.135377,526.863385 98.266254,495.992594 91.5930275,458.261627 C85.3800234,423.503402 92.2833612,391.031903 109.081483,360.161112 C109.771817,359.246422 110.001928,357.874387 111.152485,357.417042 L111.152485,357.417042 L111.152485,357.417042 L111.152485,357.417042 Z" id="Shape"></path>
                                    <path d="M271.07981,136.748052 C272.000255,138.120087 272.230366,139.720794 273.841145,140.406812 C274.301367,142.464865 275.451924,144.065572 276.832591,145.437608 C283.735929,156.642562 289.948933,168.076188 298.002827,178.595124 C319.863397,207.17919 324.925845,238.735999 311.579392,271.893516 C298.002827,305.279705 272.460477,324.945543 236.563121,329.976338 C196.983984,335.693151 159.475849,316.255986 140.376614,281.26909 C121.967714,247.425555 127.030161,205.34981 152.112289,175.393709 C159.70596,166.246808 164.998519,155.499199 170.981412,145.208935 C172.36208,143.8369 173.282525,142.236192 174.20297,140.406812 C175.123415,139.034777 175.813748,137.662742 176.734193,136.519379 C179.035306,133.775309 180.876196,130.802566 182.486975,127.60115 C184.097754,125.085753 185.708533,122.799027 187.319311,120.28363 C188.239756,119.140267 189.160201,117.768232 190.310758,116.396197 C193.532315,121.426992 196.753873,126.229115 199.745319,131.031238 L199.745319,131.031238 C199.975431,131.488583 200.205542,131.945928 200.435653,132.174601 C201.125987,134.232654 202.506655,135.833361 204.117433,137.662742 C205.958323,136.519379 206.648657,134.689999 207.338991,132.860619 C209.640104,129.430531 211.941216,125.77177 214.242329,122.341682 C216.083219,119.597612 217.693998,117.082214 219.534888,114.338144 C221.375778,112.508764 222.066112,109.764693 224.367224,108.163986 C225.978003,110.222038 227.358671,112.280091 228.739338,114.109471 C230.350117,116.624869 231.730784,119.597612 234.031897,121.655665 C236.33301,125.314425 238.634122,128.973186 240.935235,132.631946 C241.85568,134.232654 242.776125,135.604689 243.69657,137.434069 C245.997683,135.833361 246.918128,133.775309 247.838573,131.717256 C251.06013,126.68646 254.281688,121.655665 257.733357,116.167524 C258.883913,117.539559 259.804358,118.682922 260.724803,119.826284 C261.875359,122.341682 263.486138,124.85708 265.327028,126.915133 C267.167918,130.345221 269.23892,133.546636 271.07981,136.748052 L271.07981,136.748052 L271.07981,136.748052 Z M201.586209,155.041854 C200.435653,156.642562 199.515208,158.014597 198.824874,159.157959 C189.620424,172.649639 181.336419,186.827335 172.131968,200.319015 C158.555404,219.984852 157.174736,241.48007 167.989966,262.746615 C178.805195,284.01316 196.753873,295.904131 220.685444,297.047494 C246.918128,298.190857 267.167918,286.985903 279.363815,264.11865 C291.559712,241.708742 289.488711,219.070162 274.531479,198.032289 C271.309921,193.458839 268.088363,188.885388 265.096917,184.083265 C259.114024,174.479019 252.90102,164.6461 246.457905,154.813181 C243.006236,159.843977 240.935235,164.874773 237.023343,168.990878 C232.65123,162.359375 228.509227,155.956544 223.907002,149.096368 C219.304776,155.956544 215.162774,162.359375 210.79066,168.990878 C207.10888,164.874773 205.037878,160.072649 201.586209,155.041854 L201.586209,155.041854 L201.586209,155.041854 Z" id="Shape"></path>
                                    <path d="M454.708595,744.102287 L423.183352,744.102287 C420.88224,744.102287 420.422017,742.50158 419.731683,740.900872 C416.280015,732.897333 412.598234,724.665122 409.146566,716.432911 C408.226121,714.146186 406.845453,713.231496 404.314229,713.231496 C386.825773,713.231496 369.337318,713.460169 351.848862,713.231496 C349.317638,713.231496 347.936971,713.917514 347.016525,716.432911 C343.794968,724.43645 340.113188,732.439988 336.89163,740.443527 C335.741074,743.41627 334.130295,744.102287 331.138849,744.102287 C321.474176,743.873615 311.809503,744.102287 301.914719,744.102287 C301.684607,741.815562 302.835164,740.214854 303.755609,738.385474 C322.624732,694.709021 341.723967,651.032568 360.59309,607.356115 C362.203869,603.697355 363.814647,601.867975 368.186761,602.096647 C375.780433,602.553992 383.143993,602.32532 390.737665,602.096647 C392.808666,602.096647 393.959222,602.782665 394.879667,604.840717 C414.669236,650.575223 434.688915,696.309729 454.478484,742.044235 C454.478484,742.730252 454.478484,742.958925 454.708595,744.102287 L454.708595,744.102287 L454.708595,744.102287 Z M378.311657,645.087082 C372.328764,659.036107 366.575983,672.070441 360.59309,685.56212 L395.570001,685.56212 C389.81722,672.070441 384.29455,659.036107 378.311657,645.087082 L378.311657,645.087082 L378.311657,645.087082 Z" id="Shape"></path>
                                    <path d="M0.238857434,720.777689 C6.6819727,713.002823 12.6648654,705.45663 19.1079807,697.681764 C22.7897609,700.425834 26.0113185,703.169905 29.6930986,705.685303 C40.9685504,713.231496 52.7042246,719.176982 66.9711227,717.118929 C76.8659068,715.746894 82.3885771,707.972028 79.627242,699.739817 C78.2465744,695.395039 74.7949055,693.336986 70.8830141,691.507606 C63.7495651,688.534863 56.3860047,686.934155 48.7923332,684.876102 C40.9685504,682.81805 33.6049901,680.073979 26.471541,676.643891 C10.8239754,669.097698 5.76152766,655.834691 6.22175018,639.598942 C6.91208396,613.072928 28.0823198,602.096647 47.4116656,599.809922 C69.2722353,597.294524 89.5220261,602.32532 107.470704,615.359654 C108.161038,615.816999 108.851372,616.503016 109.541706,617.189034 C109.771817,617.417707 109.771817,617.646379 110.232039,618.561069 C105.169592,625.87859 99.8770328,633.424784 94.3543626,641.428322 C86.0703572,635.482836 77.5562406,630.680713 67.6614565,628.851333 C61.6785637,627.70797 55.9257822,626.79328 49.9428895,628.393988 C43.7298855,629.994696 39.8179941,634.110801 39.1276603,640.056287 C38.4373265,645.087082 41.6588841,649.660533 47.6417769,652.404603 C55.4655597,655.834691 63.5194538,657.664072 71.8034591,659.722124 C82.6186883,662.466195 92.973695,666.353628 101.487812,673.899821 C117.5956,687.848845 117.365489,717.576274 101.027589,732.668661 C92.7435837,740.214854 82.6186883,744.33096 71.5733479,745.474323 C44.190108,748.218393 20.7187595,739.528837 0.238857434,720.777689 L0.238857434,720.777689 L0.238857434,720.777689 Z" id="Shape"></path>
                                    <path d="M247.37835,630.223368 L207.338991,630.223368 L207.338991,602.782665 L319.173063,602.782665 L319.173063,629.994696 L279.133704,629.994696 L279.133704,743.873615 L247.148239,743.873615 C247.37835,706.142648 247.37835,668.41168 247.37835,630.223368 L247.37835,630.223368 L247.37835,630.223368 Z" id="Shape"></path>
                                    <polygon id="Shape" points="220.225222 744.102287 128.180718 744.102287 128.180718 603.011337 159.936072 603.011337 159.936072 715.746894 220.225222 715.746894 220.225222 744.102287"></polygon>
                                    <path d="M381.763326,555.904796 C358.522088,551.102673 337.581964,555.218779 317.102062,564.594352 C308.127723,568.710458 298.923272,572.369218 288.798377,570.539838 C286.497264,570.082493 284.196152,569.625148 281.434817,568.02444 C296.62216,560.935592 309.738501,551.331346 321.704287,540.355064 C328.837736,533.723561 335.510963,526.863385 342.874523,520.689227 C355.530642,509.712946 369.337318,500.794717 385.905328,496.907284 C394.649556,494.849231 403.623895,494.620559 412.828346,496.449939 C411.907901,498.279319 410.067011,498.279319 408.686343,498.965337 C398.101225,503.76746 387.516107,508.569583 378.311657,516.115776 C367.726539,525.034005 366.806094,532.580198 374.399765,544.013825 C376.930989,547.443913 379.922436,550.874001 381.763326,555.904796 L381.763326,555.904796 L381.763326,555.904796 Z" id="Shape"></path>
                                    <path d="M37.5168815,496.221266 C56.8462273,492.333833 73.8744605,497.821974 89.7521374,507.42622 C98.266254,512.685688 106.320148,518.631174 113.453597,525.720023 C130.021608,541.955772 146.81973,557.734177 168.450188,567.795768 C163.38774,571.225856 156.02418,571.911873 148.430509,570.082493 C142.677727,568.710458 137.155057,566.423733 131.632387,563.908335 C111.612707,554.990106 91.1328049,551.331346 68.8120128,555.904796 C69.2722353,553.160726 70.6529028,551.560018 71.8034591,549.730638 C73.414238,547.21524 75.255128,544.928515 76.8659068,542.64179 C83.0789109,533.037544 82.3885771,525.948695 74.1045717,518.173829 C64.9001214,509.484273 53.6246696,504.453477 42.3492179,499.194009 C40.9685504,498.279319 39.1276603,498.050647 37.5168815,496.221266 L37.5168815,496.221266 L37.5168815,496.221266 Z" id="Shape"></path>
                                    <path d="M214.242329,122.341682 C211.941216,125.77177 209.640104,129.430531 207.338991,132.860619 C201.586209,104.96257 194.682872,77.2931942 185.708533,50.3098358 C182.256864,39.562227 178.114861,29.0432906 174.433081,18.5243543 C172.36208,12.8075411 172.822302,11.435506 178.575084,8.92010814 C181.336419,7.77674549 183.867643,6.63338285 186.859089,5.94736527 C191.691425,4.34665757 193.762427,5.49002021 194.912983,10.2921433 C199.515208,29.2719632 203.196988,48.4804556 206.648657,67.688948 C209.409992,85.7540777 211.711105,104.04788 214.242329,122.341682 L214.242329,122.341682 L214.242329,122.341682 Z" id="Shape"></path>
                                    <path d="M240.705124,133.089291 C238.404011,129.430531 236.102898,125.77177 233.801786,122.11301 C236.33301,105.191243 238.634122,88.2694755 241.165346,71.3477084 C244.386904,50.7671809 248.528906,30.6439983 253.361243,10.2921433 C254.511799,5.71869274 256.582801,4.5753301 261.185026,5.94736527 C264.176472,6.86205538 267.39803,8.00541802 270.159365,9.37745319 C274.991701,11.435506 275.451924,13.0362137 273.611034,18.0670093 C266.247473,37.9615193 259.344136,58.0847018 253.591354,78.4365568 C248.759018,96.273014 244.617015,114.566816 240.705124,133.089291 L240.705124,133.089291 L240.705124,133.089291 Z" id="Shape"></path>
                                    <path d="M228.739338,114.338144 C227.358671,112.508764 225.978003,110.450711 224.367224,108.392658 C222.066112,109.993366 221.375778,112.737436 219.534888,114.566816 C218.15422,89.1841656 217.003664,63.801515 215.392885,38.1901918 C214.702551,27.899928 214.012218,17.6096642 213.091772,7.09072791 C212.63155,1.83125975 214.242329,0.0018795247 219.304776,0.0018795247 L229.429672,0.0018795247 C234.262008,0.230552053 235.642676,1.83125975 235.412565,6.63338285 C234.49212,20.3537346 233.341563,34.0740863 232.421118,47.794438 C231.040451,69.2896557 229.889894,90.7848733 228.739338,112.280091 C228.969449,112.737436 228.739338,113.652126 228.739338,114.338144 L228.739338,114.338144 L228.739338,114.338144 Z" id="Shape"></path>
                                    <path d="M260.724803,120.054957 C259.804358,118.911594 258.883913,117.768232 257.733357,116.396197 C254.281688,121.655665 251.06013,126.915133 247.838573,131.945928 C251.06013,117.082214 256.122578,102.904517 261.185026,88.7268206 C269.008809,66.7742579 277.983148,45.2790402 288.338154,24.2411675 C290.869378,19.2103719 292.94038,18.7530269 297.772716,21.7257697 C309.738501,29.5006357 309.968613,29.9579808 302.374941,41.6202797 C286.957487,65.6308952 273.611034,90.5562008 262.565693,116.853542 C261.875359,117.996904 261.185026,119.140267 260.724803,120.054957 L260.724803,120.054957 L260.724803,120.054957 Z" id="Shape"></path>
                                    <path d="M199.745319,131.031238 C196.523762,126.229115 193.532315,121.426992 190.310758,116.396197 C189.160201,117.768232 188.239756,119.140267 187.319311,120.28363 C174.663192,90.5562008 159.70596,61.9721348 141.757282,35.2174489 C139.916392,32.4733786 139.916392,29.7293082 142.677727,27.4425829 C145.208951,25.3845302 147.970286,23.0978049 150.731621,21.2684247 C155.103735,18.2956818 157.404848,19.2103719 159.70596,24.012495 C169.140522,42.9923149 177.424527,62.6581523 184.788088,82.5526623 C190.080647,96.9590316 194.682872,111.365401 198.824874,126.000443 C199.515208,127.829823 200.205542,129.430531 199.745319,131.031238 L199.745319,131.031238 L199.745319,131.031238 Z" id="Shape"></path>
                                    <path d="M182.717086,127.60115 C181.106307,130.802566 179.265417,133.775309 176.964305,136.519379 C160.626405,107.935313 140.836837,81.8666447 117.825711,58.3133743 C115.524598,55.7979765 115.294487,53.5112512 117.365489,50.9958534 C119.206379,48.4804556 121.047269,45.7363852 123.348381,43.4496599 C126.80005,39.562227 129.331274,39.7908995 132.552832,43.907005 C144.288506,59.4567369 155.103735,75.4638139 164.768408,92.385581 C171.211523,104.04788 177.194416,115.710179 182.717086,127.60115 L182.717086,127.60115 L182.717086,127.60115 Z" id="Shape"></path>
                                    <path d="M271.07981,136.748052 C269.008809,133.546636 267.167918,130.345221 265.096917,127.143805 C274.071256,109.307348 283.045595,91.6995635 293.860825,75.0064689 C300.534051,64.7162051 307.437389,54.6546138 314.800949,44.8216951 C318.942952,39.3335544 321.474176,39.1048819 325.84629,44.3643501 C333.900184,53.9685963 333.900184,53.9685963 325.616178,62.8868249 C304.676054,85.5254052 286.497264,109.993366 271.07981,136.748052 L271.07981,136.748052 L271.07981,136.748052 Z" id="Shape"></path>
                                    <path d="M107.240593,804.01449 C106.090037,812.018028 106.090037,812.018028 113.223486,812.018028 L127.030161,812.018028 C127.950606,814.762099 127.720495,817.277496 127.490384,820.021567 L97.8060315,820.021567 L97.8060315,780.461219 L126.569939,780.461219 L126.569939,788.464758 L107.470704,788.464758 C106.090037,796.010951 106.090037,796.239624 113.223486,796.239624 L124.268826,796.239624 C124.95916,798.983694 124.729049,801.270419 124.498938,804.01449 L107.240593,804.01449 L107.240593,804.01449 L107.240593,804.01449 Z" id="Shape"></path>
                                    <path d="M313.880504,798.069004 C319.403174,805.386525 319.403174,812.018028 314.110615,817.048824 C308.127723,822.308292 296.62216,822.07962 290.869378,816.591479 C285.80693,811.560683 286.037042,805.157852 291.559712,798.297677 C287.417709,791.666173 287.647821,786.635378 292.250046,782.747945 C297.542605,778.174494 307.897611,778.174494 313.19017,782.747945 C317.792396,786.406705 318.022507,791.208828 313.880504,798.069004 L313.880504,798.069004 L313.880504,798.069004 Z M302.835164,802.642455 C299.153384,802.642455 296.392048,805.157852 296.62216,808.130595 C296.852271,812.018028 299.843717,812.704046 302.835164,813.161391 C306.286833,813.390063 309.048168,810.645993 308.818056,807.67325 C308.587945,803.785817 305.596499,803.0998 302.835164,802.642455 L302.835164,802.642455 L302.835164,802.642455 Z M302.835164,786.406705 C300.073829,786.635378 297.542605,787.550068 297.542605,790.751483 C297.542605,793.952899 299.843717,795.324934 302.605052,795.553606 C305.366388,795.782279 307.6675,794.181571 307.897611,790.980156 C308.127723,788.007413 305.82661,786.86405 302.835164,786.406705 L302.835164,786.406705 L302.835164,786.406705 Z" id="Shape"></path>
                                    <path d="M253.821465,798.297677 C249.679463,791.208828 249.909574,786.635378 254.281688,782.747945 C259.574247,778.174494 269.469031,778.174494 274.76159,782.2906 C279.593926,786.178033 279.824038,791.208828 275.682035,798.069004 C281.204705,804.700507 281.434817,811.560683 276.372369,816.362806 C270.619587,821.850947 258.423691,821.850947 252.670909,816.362806 C247.838573,811.789356 248.068684,804.700507 253.821465,798.297677 L253.821465,798.297677 L253.821465,798.297677 Z M264.406583,813.161391 C268.088363,813.161391 271.07981,810.645993 270.849699,807.901923 C270.619587,804.01449 267.858252,803.0998 264.866806,802.871127 C261.185026,802.642455 258.653802,804.92918 258.653802,808.130595 C258.883913,811.789356 261.645248,812.475373 264.406583,813.161391 L264.406583,813.161391 L264.406583,813.161391 Z M264.636695,786.406705 C261.875359,786.86405 259.574247,787.77874 259.574247,791.208828 C259.804358,794.410244 262.105471,795.782279 264.866806,795.553606 C267.39803,795.553606 269.699142,794.181571 269.699142,790.980156 C269.929254,787.77874 267.628141,786.635378 264.636695,786.406705 L264.636695,786.406705 L264.636695,786.406705 Z" id="Shape"></path>
                                    <path d="M357.601643,798.983694 C357.601643,803.0998 357.371532,806.301215 356.451087,809.273958 C353.919863,817.048824 348.627304,820.707584 340.113188,820.478912 C332.519516,820.250239 327.226957,816.134134 325.386067,808.359268 C324.0054,803.328472 323.775288,798.069004 324.925845,793.038208 C327.226957,782.747945 332.749627,778.631839 342.874523,779.089184 C351.158528,779.546529 356.681198,785.492015 357.601643,795.096261 L357.601643,798.983694 L357.601643,798.983694 L357.601643,798.983694 Z M348.627304,799.898384 C348.397193,797.154314 348.397193,793.952899 347.016525,791.208828 C345.865969,788.69343 343.794968,786.86405 341.033633,786.86405 C338.042186,786.86405 335.971185,788.464758 335.05074,790.980156 C332.749627,797.154314 332.519516,803.0998 335.05074,809.273958 C336.201296,811.789356 338.042186,813.161391 340.803521,813.161391 C343.564857,813.161391 345.405747,811.789356 346.786414,809.50263 C348.397193,806.529888 348.397193,803.328472 348.627304,799.898384 L348.627304,799.898384 L348.627304,799.898384 Z" id="Shape"></path>
                                    <path d="M135.774389,813.847409 C136.924946,811.103338 138.995947,809.273958 141.066948,807.215905 C144.288506,809.50263 147.510064,812.018028 151.652066,812.475373 C154.413401,812.704046 157.404848,812.704046 158.095181,809.50263 C158.785515,806.301215 156.02418,805.615198 153.492956,804.92918 C150.731621,804.01449 147.740175,803.328472 145.208951,802.413782 C139.456169,800.127057 137.155057,796.696969 137.385168,790.980156 C137.615279,785.720688 140.376614,782.061927 146.129396,780.461219 C153.723068,778.403167 160.626405,779.775202 166.839409,784.577325 C165.918964,787.321395 164.308185,789.150775 162.467295,791.208828 C159.015626,789.150775 155.794069,787.321395 151.652066,787.550068 C149.581065,787.550068 147.510064,788.007413 147.279952,790.751483 C147.049841,793.038208 148.430509,793.952899 150.50151,794.638916 C153.492956,795.553606 156.714514,796.239624 159.70596,797.382986 C165.918964,799.669712 168.220077,803.328472 167.989966,809.50263 C167.759854,814.762099 164.308185,818.878204 158.325293,820.250239 C149.350954,822.07962 141.987393,819.792894 135.774389,813.847409 L135.774389,813.847409 L135.774389,813.847409 Z" id="Shape"></path>
                                    <path d="M174.20297,140.635485 C173.512636,142.464865 172.592191,144.065572 170.981412,145.437608 C158.325293,130.116548 144.288506,115.938851 129.101163,102.904517 C125.879605,100.160447 126.569939,96.273014 130.711942,92.385581 C133.933499,89.4128382 135.774389,91.4708909 137.845391,93.7576162 C151.652066,108.392658 163.617852,123.94239 174.20297,140.635485 L174.20297,140.635485 L174.20297,140.635485 Z" id="Shape"></path>
                                    <path d="M277.062703,145.66628 C275.682035,144.294245 274.531479,142.693537 274.071256,140.635485 C284.426263,124.171063 296.161937,109.078676 309.278279,94.9009789 C311.34928,92.6142536 313.19017,88.9554931 317.102062,92.6142536 C321.013953,96.0443415 321.013953,100.846465 317.562284,104.04788 C304.215831,115.481506 291.789823,127.829823 280.974594,141.321502 C279.363815,142.464865 278.213259,144.065572 277.062703,145.66628 L277.062703,145.66628 L277.062703,145.66628 Z" id="Shape"></path>
                                    <path d="M193.302204,819.792894 C190.080647,820.478912 187.319311,820.250239 183.867643,820.021567 L183.867643,788.922103 C181.796641,787.77874 180.185862,788.007413 178.805195,788.007413 C171.671746,788.007413 171.441634,787.77874 173.052413,780.232547 L204.347545,780.232547 C204.577656,782.747945 204.807767,785.263342 204.117433,788.007413 L193.302204,788.007413 L193.302204,819.792894 L193.302204,819.792894 L193.302204,819.792894 Z" id="Shape"></path>
                                    <path d="M238.864234,780.232547 L238.864234,819.792894 C236.102898,820.707584 233.341563,820.250239 230.350117,820.021567 L230.350117,788.69343 C227.818893,787.092723 225.287669,788.464758 222.986557,787.550068 C222.296223,785.263342 222.526334,782.976617 222.756445,780.232547 L238.864234,780.232547 L238.864234,780.232547 L238.864234,780.232547 Z" id="Shape"></path>
                                    <path d="M218.15422,815.676789 C217.924109,818.649532 216.083219,820.707584 212.861661,820.478912 C209.640104,820.250239 207.799213,818.420859 208.029325,815.219444 C208.029325,812.018028 209.870215,810.417321 213.091772,810.417321 C216.31333,810.645993 218.15422,812.246701 218.15422,815.676789 L218.15422,815.676789 L218.15422,815.676789 Z" id="Shape"></path>
                                    <path d="M111.152485,358.457236 C111.152485,357.768027 111.495926,357.078819 111.495926,356.045006 C112.182808,357.423423 112.86969,358.457236 111.152485,358.457236 C111.152485,358.112632 111.152485,358.457236 111.152485,358.457236 L111.152485,358.457236 L111.152485,358.457236 Z" id="Shape"></path>
                                    <path d="M200.775643,132.754259 C200.432202,132.065051 200.08876,131.375843 199.745319,131.031238 C200.775643,131.031238 200.775643,132.065051 200.775643,132.754259 L200.775643,132.754259 L200.775643,132.754259 Z" id="Shape"></path>
                                    <path d="M329.407837,345.577595 L328.377513,345.577595 L328.720955,345.577595 C329.064396,345.232991 329.064396,345.577595 329.407837,345.577595 L329.407837,345.577595 L329.407837,345.577595 L329.407837,345.577595 Z" id="Shape"></path>
                                </g>
                            </g>
                        </g>
                    </g>
                </g>
            </g>
        </g>
    </g>
</svg>