<?xml version="1.0" encoding="utf-8"?>
<svg width="280px" height="280px" viewbox="0 0 280 280" version="1.1" xmlns:xlink="http://www.w3.org/1999/xlink" xmlns="http://www.w3.org/2000/svg">
  <g id="icon_addmedia" transform="translate(1.0373077 1.0373535)">
    <path d="M138.55 277.1C215.069 277.1 277.1 215.069 277.1 138.55C277.1 62.0311 215.069 0 138.55 0C62.0311 0 0 62.0311 0 138.55C0 215.069 62.0311 277.1 138.55 277.1Z" id="Oval" fill="#11B2A6" fill-opacity="0.05" fill-rule="evenodd" stroke="none" />
    <path d="M80.1669 160.334C124.442 160.334 160.334 124.442 160.334 80.1669C160.334 35.8919 124.442 0 80.1669 0C35.8919 0 0 35.8919 0 80.1669C0 124.442 35.8919 160.334 80.1669 160.334Z" transform="translate(58.089554 58.0896)" id="Oval" fill="#D5EAE4" fill-opacity="0.7" fill-rule="evenodd" stroke="none" />
    <path d="M37.0062 81.3666L29.7344 88.3789L28.4539 82.9418L21.4982 88.7612L20.8575 86.0422L14.5276 89.4767L38.6253 95.8216L37.0062 81.3666ZM21.793 79.912C23.5445 80.3723 25.3152 79.4122 25.7488 77.7654C26.1824 76.1186 25.1144 74.4098 23.364 73.9495C21.6125 73.4882 19.8418 74.4483 19.4072 76.0951C18.9736 77.7419 20.0415 79.4506 21.793 79.912L21.793 79.912ZM49.3328 75.686L15.1246 66.6787L8.53094 91.7226L42.738 100.731L49.3328 75.686ZM52.4939 74.0488L42.4657 112.137L3.15051 101.784L13.1777 63.698L52.4939 74.0488ZM6.18462 105.897L7.11375 110.957L17.8896 108.978L6.18462 105.897ZM4.71402 83.2644L3.02876 74.0916L7.33802 73.2991L8.00978 70.7499L0 72.2205L3.13129 89.2728L4.71402 83.2644ZM40.4825 67.5737L39.9869 64.8771L34.2455 65.9312L40.4825 67.5737ZM39.2618 11.7477C39.2618 9.97704 37.8275 8.54382 36.0579 8.54382C34.2893 8.54382 32.854 9.97704 32.854 11.7477C32.854 13.5174 34.2893 14.9516 36.0579 14.9516C37.8275 14.9516 39.2618 13.5174 39.2618 11.7477L39.2618 11.7477ZM124.016 0L20.7229 0C17.4015 0 14.6985 2.70197 14.6985 6.02335L14.6985 60.7857L17.9024 61.6294L17.9024 6.02335C17.9024 4.46839 19.1679 3.20391 20.7229 3.20391L124.016 3.20391C125.571 3.20391 126.835 4.46839 126.835 6.02335L126.835 97.5687C126.835 99.1237 125.571 100.389 124.016 100.389L49.7664 100.389L50.2523 103.036L50.3548 103.593L124.016 103.593C127.337 103.593 130.039 100.89 130.039 97.5687L130.039 6.02335C130.039 2.70197 127.337 0 124.016 0L124.016 0ZM47.8056 11.7477C47.8056 9.97704 46.3713 8.54382 44.6016 8.54382C42.8331 8.54382 41.3977 9.97704 41.3977 11.7477C41.3977 13.5174 42.8331 14.9516 44.6016 14.9516C46.3713 14.9516 47.8056 13.5174 47.8056 11.7477L47.8056 11.7477ZM60.6212 68.6352C60.6212 69.4586 61.5108 69.9712 62.2232 69.5601L82.2561 57.9939C82.9685 57.5828 82.9685 56.5565 82.2561 56.1453L62.2232 44.5781C61.5108 44.1669 60.6212 44.6806 60.6212 45.503L60.6212 68.6352ZM24.3102 20.3794L120.428 20.3794L120.428 92.3794L50.9806 92.3794L55.5921 74.7566L56.4081 71.6391L53.311 70.8181L43.9053 68.326L43.1385 64.1232L42.5597 60.9519L39.4081 61.5344L26.9566 63.8352L24.3102 63.1345L24.3102 20.3794ZM27.5141 14.9516C25.7456 14.9516 24.3102 13.5174 24.3102 11.7477C24.3102 9.97704 25.7456 8.54382 27.5141 8.54382C29.2837 8.54382 30.718 9.97704 30.718 11.7477C30.718 13.5174 29.2837 14.9516 27.5141 14.9516L27.5141 14.9516Z" transform="translate(64.10414 88.17163)" id="Fill-1" fill="#013057" fill-rule="evenodd" stroke="none" />
  </g>
</svg>