<?xml version="1.0" encoding="utf-8"?>
<svg width="69px" height="57px" viewbox="0 0 69 57" version="1.1" xmlns:xlink="http://www.w3.org/1999/xlink" xmlns="http://www.w3.org/2000/svg">
  <path d="M6.71603 32.0364L18.5941 29.5204L18.5297 30.2724L6.86581 32.7438C6.2803 32.8676 5.70406 32.4926 5.5809 31.9077L0.0234401 5.67701C-0.0997288 5.09211 0.274729 4.51588 0.859627 4.39148L21.4783 0.0236216C22.0632 -0.100166 22.6395 0.274911 22.7633 0.859809L25.7274 14.8503C25.6166 14.8794 25.5076 14.9215 25.4055 14.9791L25.0571 15.174L22.0564 1.00959C22.015 0.814626 21.8231 0.6896 21.6281 0.73045L1.00941 5.0983C0.813825 5.13977 0.689419 5.33165 0.730888 5.52661L6.28711 31.7579C6.32919 31.9528 6.52044 32.0779 6.71603 32.0364ZM20.5368 3.13268L12.2888 4.87994L12.4887 5.82259L20.7361 4.07532L20.5368 3.13268ZM8.71031 14.6919C8.7654 14.7061 8.79449 14.6999 8.83472 14.6912C8.85824 14.6863 8.90652 14.6764 8.93499 14.6411C9.2457 14.3972 10.0256 13.7542 10.6878 12.9384C10.8549 12.7329 11.0047 12.5281 11.1328 12.3294C11.667 11.5056 11.8669 10.7542 11.727 10.0969L10.8562 5.98401C10.8593 5.90664 10.8054 5.8367 10.7126 5.79956C10.6191 5.76304 10.5399 5.7909 10.4644 5.82865C10.1506 6.06818 9.78789 6.23591 9.41652 6.31514C8.6119 6.48535 7.78438 6.28234 7.14502 5.75686C7.02618 5.66092 6.82503 5.70363 6.75694 5.83917C6.38496 6.57881 5.71032 7.09995 4.90693 7.27016C4.52381 7.35124 4.14626 7.34443 3.74395 7.24974C3.67524 7.24169 3.57869 7.25778 3.51308 7.32463C3.44933 7.39024 3.42024 7.47317 3.43633 7.54683L4.30904 11.6683C4.4483 12.3269 4.93726 12.9335 5.76169 13.4707C5.95913 13.5994 6.17761 13.7257 6.41095 13.8439C7.3536 14.3242 8.33338 14.5972 8.71031 14.6919ZM12.9377 7.94338L12.7384 7.00074L17.9226 5.90274L18.1219 6.84538L12.9377 7.94338ZM7.12274 11.7321C7.23662 11.708 7.34927 11.781 7.37341 11.8949C7.39754 12.0088 7.32451 12.1214 7.21001 12.1455C6.66843 12.26 6.27726 12.6407 6.18009 13.1427C6.31935 13.2268 6.47099 13.311 6.63253 13.3927C6.77489 13.4657 6.92591 13.5369 7.07941 13.6044C7.78809 13.9157 8.44788 14.1051 8.72641 14.1781C8.91333 14.0308 9.45861 13.5852 10.0064 12.9848C10.1196 12.8598 10.2273 12.7335 10.3282 12.6098C10.4353 12.4779 10.5356 12.3455 10.6265 12.2149C10.3356 11.7859 9.82069 11.5922 9.27355 11.7086C9.15905 11.7327 9.0464 11.6597 9.02226 11.5458C8.99812 11.4313 9.07177 11.3193 9.18566 11.2951C9.82812 11.159 10.4644 11.3669 10.8673 11.8386C11.2269 11.2209 11.3575 10.6681 11.2579 10.1959L10.4619 6.43645C10.184 6.60604 9.86711 6.72921 9.51927 6.80286C8.67008 6.98236 7.77695 6.80286 7.06022 6.31081C6.61397 7.0591 5.88919 7.57159 5.0103 7.75789C4.69402 7.82473 4.37898 7.83897 3.99957 7.80183L4.79614 11.565C4.89517 12.0329 5.23621 12.4804 5.81058 12.8976C5.99069 12.3096 6.48585 11.867 7.12274 11.7321ZM8.15067 11.7527L8.19523 11.7434C8.77518 11.6209 9.1973 11.018 9.15149 10.3898C9.40402 10.2221 9.56123 9.84885 9.49872 9.55361L9.43621 9.25838C9.39412 9.05908 9.18987 8.95262 9.05061 8.90249L8.9522 8.43519C8.74671 7.46593 8.25032 7.35886 7.87029 7.4387C7.56887 7.50307 7.26559 7.69556 6.97097 7.88434C6.89608 7.93261 6.82119 7.97965 6.74877 8.0236C6.29633 8.13996 6.06856 8.57693 6.18182 9.11417L6.25424 9.45458C6.09208 9.57342 6.01223 9.77705 6.05432 9.97511L6.11745 10.2703C6.18244 10.5804 6.44611 10.8497 6.72773 10.9017C6.94064 11.4958 7.57134 11.8759 8.15067 11.7527ZM6.84409 10.4857C6.95797 10.4616 7.07124 10.5346 7.09538 10.6485C7.19193 11.1047 7.64438 11.4278 8.0634 11.3393L8.10796 11.3294C8.52698 11.2408 8.80984 10.7624 8.71267 10.3056C8.68853 10.1917 8.76218 10.0797 8.87607 10.0556C8.985 10.0321 9.11807 9.80181 9.08403 9.6415L9.02337 9.35927C8.99924 9.33822 8.91135 9.29428 8.82469 9.27571C8.74299 9.259 8.67924 9.19463 8.66191 9.11355L8.53689 8.52246C8.37609 7.76424 8.09355 7.82359 7.95788 7.85208L7.95756 7.85215C7.73289 7.89981 7.46674 8.0694 7.20926 8.2328C7.10899 8.29593 7.02172 8.35163 6.93817 8.40239C6.91898 8.41415 6.89732 8.42219 6.87318 8.42715C6.51481 8.50327 6.57052 8.90497 6.59589 9.02628L6.70235 9.52824C6.72649 9.64212 6.65346 9.75477 6.53957 9.77891C6.48944 9.78943 6.45849 9.83771 6.46839 9.8866L6.53091 10.1818C6.56433 10.3378 6.73949 10.5074 6.84409 10.4857ZM20.3705 9.32331L20.1712 8.38066L13.3375 9.82836L13.5368 10.771L20.3705 9.32331ZM33.5801 21.4928C33.0026 21.3442 32.5527 20.8466 32.497 20.2196L32.2593 17.5439C32.2036 16.9169 32.5595 16.3475 33.1017 16.0999C33.395 14.8429 33.9886 13.6799 34.8842 12.6098C36.3969 10.8018 38.3243 9.79358 40.6657 9.58623C43.0072 9.37889 45.0812 10.0319 46.8891 11.5446C47.9593 12.4402 48.7484 13.4806 49.2584 14.6665C49.8359 14.815 50.2865 15.3127 50.3422 15.9403L50.5793 18.6153C50.635 19.2429 50.2791 19.8117 49.7369 20.0599C49.4435 21.317 48.8493 22.48 47.955 23.5501C46.4417 25.358 44.5137 26.3657 42.1728 26.5736C39.8314 26.781 37.7567 26.1286 35.9494 24.6147C34.8786 23.7197 34.0895 22.6787 33.5801 21.4928ZM43.805 13.423C43.4509 12.5225 43.0226 11.7989 42.5219 11.253C42.0206 10.7078 41.5322 10.3878 41.0581 10.2924L41.3837 13.9677C42.3857 13.8241 43.1928 13.6421 43.805 13.423ZM44.4437 13.2021C45.184 12.8895 45.8654 12.5274 46.4875 12.1152C45.3016 11.1231 44.0006 10.5252 42.5826 10.3215C43.2671 10.9194 43.8873 11.88 44.4437 13.2021ZM40.7301 14.0253L40.4045 10.35C39.4458 10.6818 38.7284 11.8714 38.2512 13.9163C38.9191 14.0209 39.7453 14.0581 40.7301 14.0253ZM38.9079 10.6477C38.315 11.3861 37.8724 12.4265 37.5797 13.7696C36.5708 13.5301 35.8374 13.3073 35.3806 13.1006C36.3183 11.9203 37.4937 11.102 38.9079 10.6477ZM47.0241 12.6029C47.6337 13.2145 48.1171 13.8984 48.4792 14.6516L45.036 14.9568C44.9352 14.5501 44.8256 14.1763 44.7055 13.8371C45.369 13.5864 46.1421 13.1748 47.0241 12.6029ZM37.4373 14.482C36.6278 14.3347 35.7953 14.0655 34.9374 13.6749C34.4454 14.3843 34.0901 15.1431 33.866 15.9477L37.3092 15.6426C37.3364 15.2242 37.3785 14.8367 37.4373 14.482ZM44.3249 15.0199L41.4994 15.2706L41.4419 14.6207C42.4712 14.4746 43.3321 14.2883 44.0259 14.0618C44.1367 14.3694 44.2351 14.69 44.3249 15.0199ZM40.8458 15.3281L37.9789 15.5825C38.0092 15.2421 38.0501 14.9097 38.1052 14.5873C38.8268 14.6881 39.7218 14.7185 40.7883 14.6789L40.8458 15.3281ZM23.1523 14.9007C23.2965 14.9044 23.4271 14.9861 23.4934 15.1136L24.3227 16.6907L25.8763 15.8198C26.0019 15.7493 26.156 15.7524 26.2786 15.8272C26.4018 15.9028 26.4748 16.0383 26.4686 16.1825L26.3974 17.9626L28.1787 17.9849C28.323 17.9867 28.4548 18.0666 28.5229 18.1934C28.5922 18.3197 28.5866 18.4738 28.5105 18.5958L27.5586 20.1016L29.0898 21.0121C29.2142 21.0858 29.2885 21.2201 29.2848 21.3643C29.2805 21.5085 29.1994 21.6391 29.0713 21.7059L27.4948 22.5347L28.3657 24.0888C28.4362 24.2145 28.4331 24.368 28.3582 24.4912C28.2827 24.6143 28.1459 24.6867 28.003 24.6805L27.9869 24.6799L30.1012 28.5266C30.1723 28.6554 30.1668 28.8126 30.0869 28.9351C30.0071 29.0589 29.8647 29.1276 29.7193 29.1146L28.4993 29.0107L27.9343 30.0956C27.8786 30.2027 27.7789 30.277 27.6644 30.3011C27.639 30.3067 27.6124 30.3098 27.5858 30.3098C27.4391 30.3117 27.3042 30.2324 27.2324 30.1037L25.2598 26.5138L24.0838 25.7711L23.1734 27.3024C23.1369 27.3637 23.0836 27.4113 23.0242 27.4447L22.7154 31.0606C22.703 31.2066 22.6114 31.3341 22.4765 31.3923C22.4517 31.4028 22.4269 31.4109 22.4016 31.4158C22.2864 31.4406 22.1651 31.4128 22.071 31.3379L21.1148 30.5753L20.0422 31.1652C19.914 31.2351 19.7562 31.2302 19.6337 31.1497C19.5105 31.0699 19.4418 30.9287 19.4536 30.7827L19.8088 26.6154C19.7692 26.6061 19.7302 26.5925 19.6943 26.5702C19.5718 26.4947 19.4981 26.3591 19.5043 26.2149L19.5755 24.4348L17.7942 24.4119C17.65 24.4107 17.5181 24.3309 17.45 24.204C17.3807 24.0777 17.3863 23.9236 17.463 23.8017L18.4144 22.2958L16.8837 21.3859C16.7593 21.3117 16.685 21.1774 16.6888 21.0331C16.6925 20.8889 16.7735 20.7583 16.9017 20.6915L18.4781 19.8627L17.6079 18.3086C17.5367 18.1829 17.5398 18.0294 17.6147 17.9063C17.6902 17.7831 17.8264 17.7107 17.9706 17.7169L19.7506 17.788L19.7729 16.0067C19.7754 15.8625 19.8546 15.7307 19.9809 15.662C20.1084 15.5927 20.2613 15.5982 20.3832 15.675L21.8897 16.6269L22.7995 15.095C22.8732 14.9713 23.0075 14.8976 23.1523 14.9007ZM32.9469 16.9869C32.963 16.959 32.981 16.9324 33.0001 16.9064C33.0032 16.9015 33.007 16.8965 33.0107 16.8922C33.0268 16.8711 33.0435 16.8501 33.062 16.8303L33.075 16.8154C33.0948 16.795 33.1153 16.7758 33.1369 16.7573C33.14 16.7548 33.1425 16.7517 33.1462 16.7492C33.1716 16.7276 33.1982 16.7077 33.2261 16.6892C33.2273 16.6886 33.2285 16.6886 33.2292 16.6879C33.2545 16.6712 33.2818 16.6558 33.309 16.6415C33.3177 16.6378 33.3257 16.6341 33.3344 16.6298C33.3554 16.6205 33.3758 16.6112 33.3981 16.6031C33.4086 16.5994 33.4186 16.5957 33.4291 16.592C33.4507 16.5852 33.4736 16.5784 33.4959 16.5734C33.5058 16.571 33.5157 16.5679 33.5262 16.566C33.5584 16.5592 33.5912 16.5536 33.6253 16.5505L33.7243 16.5419L37.2814 16.2262L37.938 16.168L40.8972 15.9056L41.5502 15.848L44.4685 15.5887L45.166 15.5268L48.7231 15.2112L48.8221 15.2025C48.8561 15.1994 48.8896 15.1988 48.9236 15.2C48.9329 15.2 48.944 15.2013 48.9533 15.2019C48.9762 15.2031 49.0003 15.2056 49.0226 15.2087C49.0331 15.2099 49.0443 15.2118 49.0548 15.2142C49.0783 15.2186 49.1012 15.2235 49.1229 15.2291C49.1316 15.2316 49.1408 15.2341 49.1495 15.2365C49.1798 15.2458 49.2083 15.2557 49.2362 15.2675C49.2374 15.2681 49.2386 15.2681 49.2393 15.2687C49.2702 15.2817 49.2999 15.2972 49.329 15.3133C49.3327 15.3151 49.3358 15.3176 49.3389 15.3195C49.363 15.3343 49.3878 15.3498 49.4107 15.3665C49.415 15.3702 49.4212 15.3746 49.4262 15.3783C49.4478 15.395 49.4683 15.4123 49.4881 15.4303L49.5005 15.442C49.524 15.4643 49.5456 15.4878 49.5667 15.5126C49.6762 15.6438 49.7486 15.8078 49.7647 15.991L49.8167 16.5821L49.9498 18.0762L50.0018 18.6667C50.0185 18.8499 49.9764 19.0244 49.8916 19.173C49.8761 19.2008 49.8576 19.2274 49.839 19.2534C49.8353 19.2578 49.8316 19.2627 49.8279 19.2677C49.8118 19.2887 49.7951 19.3091 49.7765 19.329C49.7728 19.3339 49.7678 19.3389 49.7635 19.3444C49.7437 19.3642 49.7233 19.384 49.7016 19.402C49.6985 19.4051 49.696 19.4082 49.6923 19.4107C49.6669 19.4323 49.6403 19.4521 49.6125 19.4701C49.6112 19.4707 49.61 19.4713 49.6094 19.4719C49.584 19.4886 49.5568 19.5035 49.5295 19.5177C49.5215 19.5221 49.5128 19.5258 49.5042 19.5295C49.4837 19.5394 49.4627 19.5487 49.4404 19.5567C49.4299 19.5604 49.42 19.5642 49.4095 19.5672C49.3878 19.5747 49.3649 19.5809 49.3426 19.5864C49.3333 19.5889 49.3228 19.5914 49.3123 19.5939C49.2807 19.6007 49.2473 19.6056 49.2133 19.6087L49.1142 19.6174L45.5374 19.9349L44.859 19.9949L41.9413 20.2537L41.2884 20.3118L38.3286 20.5743L37.6725 20.6331L34.1155 20.9481L34.0164 20.9574C33.9824 20.9599 33.949 20.9605 33.9149 20.9592C33.9057 20.9592 33.8951 20.9586 33.8852 20.958C33.8623 20.9561 33.8388 20.9543 33.8159 20.9506C33.8054 20.9493 33.7943 20.9475 33.7837 20.9456C33.7602 20.9413 33.7379 20.9363 33.7156 20.9302C33.707 20.9277 33.6977 20.9258 33.6884 20.9227C33.6587 20.9141 33.6302 20.9042 33.6024 20.8918L33.5993 20.8912C33.5683 20.8775 33.5386 20.8627 33.5095 20.846C33.5058 20.8441 33.5021 20.8416 33.499 20.8398C33.4749 20.8249 33.4507 20.8095 33.4278 20.7927C33.4235 20.789 33.4173 20.7847 33.4124 20.7804C33.3907 20.7643 33.3703 20.7476 33.3505 20.729C33.3468 20.7253 33.3424 20.721 33.3375 20.7166C33.3146 20.695 33.2929 20.6714 33.2719 20.6473C33.1623 20.5161 33.0899 20.3514 33.0738 20.1682L33.0218 19.5784L32.8887 18.0836L32.8368 17.4926C32.8207 17.31 32.8621 17.1354 32.9469 16.9869ZM12.3285 16.6901L12.1292 15.7475L5.53132 17.145L5.73062 18.0877L12.3285 16.6901ZM45.2321 19.2986L45.5032 17.6503C45.5155 17.5773 45.5304 17.4554 45.5496 17.2845C45.5688 17.1143 45.5787 16.9905 45.5799 16.9138C45.5917 16.9757 45.6232 17.0945 45.6765 17.2715C45.7297 17.4479 45.7668 17.5649 45.7873 17.6212L46.3474 19.1995L47.0895 19.1339L47.5995 15.9885L46.9577 16.0454L46.715 17.7593C46.6989 17.862 46.6829 17.9969 46.6661 18.1634C46.6501 18.3293 46.6395 18.4673 46.6358 18.5781C46.6098 18.4661 46.5758 18.3318 46.5325 18.1764C46.4885 18.0205 46.4538 17.9047 46.4272 17.8292L45.8262 16.1457L45.2098 16.2008L44.9139 17.9635C44.8954 18.0582 44.8793 18.1907 44.8638 18.3609C44.8483 18.5317 44.8397 18.6567 44.8384 18.7378C44.7877 18.5131 44.714 18.2488 44.6181 17.9449L44.0759 16.301L43.434 16.358L44.4918 19.3642L45.2321 19.2986ZM25.6454 16.8615L25.586 18.3395C25.5817 18.4466 25.6213 18.5512 25.6949 18.6286C25.7692 18.7072 25.8713 18.7517 25.979 18.753L27.4577 18.7715L26.6673 20.0218C26.6103 20.1128 26.5918 20.2229 26.6172 20.3276C26.6419 20.4322 26.7081 20.5219 26.801 20.5764L28.0717 21.3327L26.7632 22.0204C26.6679 22.0705 26.5967 22.1565 26.5664 22.2593C26.5355 22.3626 26.5485 22.4734 26.6011 22.5669L26.6592 22.6709L27.324 23.8574L26.6116 23.8289L25.846 23.7986C25.737 23.7948 25.633 23.8332 25.5557 23.9075C25.4783 23.9805 25.435 24.082 25.4325 24.1879L25.4325 24.191L25.4201 25.1534L25.4133 25.6696L24.1631 24.8798C24.0721 24.8223 23.9588 24.8 23.8573 24.8297C23.7533 24.8545 23.6636 24.9207 23.6085 25.0129L23.1684 25.7538L22.8528 26.2842L22.1651 24.9752C22.1373 24.9213 22.097 24.8774 22.0488 24.8421C22.0475 24.8402 22.0451 24.839 22.0432 24.8378C22.0073 24.8124 21.9683 24.7913 21.9256 24.779C21.8618 24.7598 21.7938 24.7573 21.73 24.7709C21.691 24.779 21.6539 24.7932 21.618 24.813L20.7187 25.3174L20.3275 25.5359L20.3869 24.0579C20.3882 24.0369 20.3857 24.0158 20.3832 23.9948C20.3727 23.9106 20.3374 23.8307 20.278 23.7689C20.2043 23.6902 20.1016 23.6457 19.9939 23.6444L18.5152 23.6259L19.3056 22.3756C19.3632 22.2846 19.3811 22.1738 19.3558 22.0699C19.331 21.9653 19.2648 21.8755 19.1719 21.8211L17.9013 21.0653L19.2109 20.3771C19.305 20.3276 19.3762 20.2409 19.4065 20.1375C19.4375 20.0348 19.4245 19.924 19.3725 19.8305L18.6489 18.5401L20.127 18.5989C20.2347 18.6026 20.3393 18.5636 20.4172 18.4899C20.4946 18.4163 20.5392 18.3141 20.5404 18.2064L20.5596 16.7278L21.8099 17.5176C21.9002 17.5751 22.0104 17.5974 22.1156 17.5683C22.2196 17.5429 22.3093 17.4767 22.3644 17.3845L23.1201 16.1138L23.8078 17.4223C23.8579 17.5176 23.9446 17.5881 24.0473 17.6191C24.1507 17.6494 24.2627 17.637 24.3549 17.5844L25.6454 16.8615ZM40.9799 19.6757L41.2516 18.0275C41.264 17.9545 41.2788 17.8325 41.298 17.6617C41.3166 17.4915 41.3271 17.3677 41.3284 17.291C41.3395 17.3529 41.3717 17.4717 41.4249 17.6487C41.4781 17.8251 41.5147 17.9421 41.5351 17.9984L42.0958 19.5767L42.8379 19.5111L43.3479 16.3657L42.7061 16.4226L42.4635 18.1364C42.4474 18.2392 42.4313 18.3741 42.4146 18.5406C42.3985 18.7065 42.388 18.8451 42.3836 18.9553C42.3583 18.8433 42.3236 18.709 42.2803 18.5536C42.2363 18.3976 42.2023 18.2819 42.1757 18.2064L41.5741 16.5229L40.9582 16.578L40.6624 18.3407C40.6438 18.4354 40.6271 18.5678 40.6116 18.7381C40.5968 18.9089 40.5881 19.0339 40.5869 19.115C40.5361 18.8903 40.4625 18.626 40.3659 18.3221L39.8243 16.6782L39.1825 16.7352L40.2403 19.7414L40.9799 19.6757ZM37 18.4046L36.7283 20.0529L35.988 20.1185L34.9309 17.1129L35.5721 17.0553L36.1143 18.6992C36.2108 19.0031 36.2839 19.2674 36.3352 19.4921C36.3365 19.411 36.3451 19.286 36.36 19.1158C36.3755 18.945 36.3922 18.8125 36.4101 18.7178L36.706 16.9551L37.3225 16.9L37.9234 18.5835C37.9501 18.659 37.9847 18.7748 38.0287 18.9307C38.072 19.0861 38.1066 19.2204 38.132 19.3324C38.1357 19.2222 38.1463 19.0836 38.163 18.9177C38.1791 18.7512 38.1958 18.6169 38.2112 18.5136L38.4545 16.7997L39.0957 16.7428L38.5863 19.8882L37.8436 19.9538L37.2828 18.3755C37.263 18.3192 37.2265 18.2022 37.1733 18.0258C37.1201 17.8488 37.0879 17.73 37.0761 17.6681C37.0755 17.7448 37.0644 17.8686 37.0464 18.0388C37.0266 18.2097 37.0117 18.3316 37 18.4046ZM16.6004 18.001C16.5787 18.2672 16.6319 18.5389 16.7669 18.7796L16.8523 18.9325L6.37982 21.1514L6.1799 20.2088L16.6004 18.001ZM45.361 21.6809C46.1149 21.8344 46.9622 22.1018 47.9011 22.4849C48.3926 21.775 48.7478 21.0168 48.9725 20.2116L45.499 20.5198C45.4674 20.9215 45.421 21.3096 45.361 21.6809ZM41.9927 20.8311L44.8188 20.5805C44.7885 20.9209 44.7476 21.2539 44.6931 21.5757C43.8019 21.4352 42.9199 21.39 42.0466 21.4402L41.9927 20.8311ZM38.4728 21.1437L41.3391 20.8893L41.393 21.4983C40.472 21.6351 39.598 21.8363 38.7711 22.1012C38.661 21.7936 38.5619 21.4736 38.4728 21.1437ZM6.72909 22.8006L6.92839 23.7433L15.9748 21.8271C15.8095 21.5912 15.7179 21.3059 15.7254 21.0088C15.7266 20.9698 15.7316 20.9308 15.7365 20.8925L6.72909 22.8006ZM35.8145 23.5569C35.2048 22.9448 34.7214 22.2615 34.3593 21.5082L37.8025 21.2031C37.9034 21.6097 38.0129 21.983 38.133 22.3221C37.4695 22.5734 36.6958 22.985 35.8145 23.5569ZM42.1085 22.134L42.434 25.8092C42.8852 25.6322 43.3092 25.2312 43.7059 24.606C44.1033 23.9809 44.3973 23.1936 44.5873 22.2435C43.9461 22.1358 43.1204 22.0999 42.1085 22.134ZM41.4549 22.1922C40.4794 22.3339 39.6729 22.5153 39.0336 22.7362C39.8636 24.6661 40.779 25.7096 41.781 25.8674L41.4549 22.1922ZM43.9306 25.5122C44.4988 24.8029 44.9401 23.7494 45.2551 22.3488C46.0387 22.5264 46.774 22.7635 47.458 23.0593C46.4658 24.2446 45.2898 25.0622 43.9306 25.5122ZM38.354 22.9609C37.5883 23.3038 36.9205 23.6646 36.3511 24.044C37.5364 25.0368 38.8386 25.6347 40.256 25.8383C39.512 25.1909 38.8782 24.2316 38.354 22.9609ZM7.4772 26.3354L7.2779 25.3928L16.575 23.4233C16.4233 23.7371 16.3998 24.0948 16.5038 24.4235L7.4772 26.3354ZM28.3038 28.1955L29.0459 28.2586L27.0585 24.6434L26.2229 24.61L26.2 26.3907C26.1994 26.4371 26.1882 26.481 26.1728 26.5225L27.5722 29.0688L27.9169 28.4078C27.9918 28.2648 28.1447 28.1813 28.3038 28.1955ZM21.9863 30.2522L21.4026 29.7874C21.3079 29.7125 21.1866 29.6853 21.0721 29.7094C21.0349 29.7175 20.9978 29.7305 20.9631 29.7503L20.3095 30.1093L20.637 26.2749L21.6502 25.7074L22.2728 26.8908L21.9863 30.2522ZM68.2691 38.8843L65.2047 31.5697C65.1855 31.5232 65.1565 31.4842 65.1237 31.449C65.115 31.4391 65.1039 31.4316 65.0946 31.4223C65.0667 31.3976 65.0358 31.3772 65.0017 31.3611C64.9943 31.3574 64.9893 31.3505 64.9813 31.3475L53.6002 26.6868C52.9708 26.4287 52.2479 26.7314 51.9898 27.3615L43.2621 48.6728C43.004 49.3029 43.3067 50.0252 43.9367 50.2833L59.7451 56.7574C60.3758 57.0155 61.0981 56.7122 61.3568 56.0821L62.136 54.1777L62.6634 54.3937C63.3182 54.6617 64.0677 54.3472 64.3364 53.693L66.1728 49.21C66.4401 48.5552 66.1263 47.805 65.4715 47.537L64.9442 47.321L68.2697 39.1987C68.2734 39.1907 68.2722 39.182 68.2753 39.1733C68.2871 39.1387 68.2945 39.1034 68.2957 39.0669C68.2959 39.0623 68.2963 39.0579 68.2966 39.0534C68.2973 39.0445 68.298 39.0355 68.2976 39.026C68.2957 38.9777 68.2883 38.9301 68.2691 38.8843ZM54.8938 43.2051L64.1823 47.0091L67.3525 39.268L63.3058 37.6105C62.6751 37.3524 62.3731 36.6301 62.6312 36L64.2881 31.9534L53.2883 27.4481C53.0785 27.3627 52.8377 27.463 52.7517 27.6734L44.024 48.9841C43.938 49.1946 44.0389 49.4353 44.2493 49.5214L60.057 55.9955C60.2675 56.0815 60.5076 55.9806 60.5943 55.7702L61.3747 53.8657L52.0857 50.0617C51.4309 49.7937 51.1171 49.0435 51.3844 48.3887L53.2208 43.9057C53.4895 43.2515 54.2396 42.9371 54.8938 43.2051ZM23.9101 28.3944L23.8457 29.1464L25.4234 28.8122L25.0601 28.1505L23.9101 28.3944ZM44.4641 36.1106L34.8383 28.8102C34.3587 28.4462 33.663 28.5416 33.2997 29.0212L26.6628 37.7724C26.2988 38.2515 26.3941 38.9472 26.8738 39.3105L36.4996 46.6115C36.9799 46.9754 37.6749 46.8795 38.0389 46.4004L44.6751 37.6492C45.0391 37.1696 44.9438 36.4745 44.4641 36.1106ZM44.0921 37.2067L39.3182 43.5007L38.8744 40.2711C38.8608 40.1727 38.8076 40.0842 38.7271 40.0266C38.6467 39.9678 38.5464 39.9449 38.4486 39.9622L35.1218 40.5335L34.4336 35.5244C34.4181 35.4155 34.3543 35.3189 34.259 35.2626C34.1934 35.223 34.1167 35.2051 34.0399 35.2112L29.1887 35.6532L33.8827 29.4638C34.0096 29.2973 34.2293 29.267 34.3958 29.3932L44.0215 36.6936C44.188 36.8199 44.2184 37.0402 44.0921 37.2067ZM63.6184 36.8486L67.1259 38.2851L64.8297 32.8038L63.3937 36.312C63.3071 36.5224 63.408 36.7626 63.6184 36.8486ZM39.4204 34.5821C38.6176 33.9737 37.4639 34.1327 36.8549 34.9349C36.2471 35.737 36.4056 36.8907 37.2083 37.4992C38.0098 38.1076 39.1642 37.9491 39.772 37.147C40.381 36.3448 40.2219 35.1905 39.4204 34.5821ZM37.6509 36.9161C38.1367 37.285 38.8194 37.1915 39.1889 36.7044C39.5584 36.2173 39.4644 35.5346 38.9779 35.1658C38.4908 34.7962 37.8081 34.8903 37.4392 35.3768C37.0697 35.8639 37.1638 36.5466 37.6509 36.9161ZM36.9421 46.0278C37.1092 46.1547 37.329 46.1244 37.4546 45.9573L38.6925 44.3257L38.2017 40.7514L34.8749 41.3227C34.7771 41.34 34.6768 41.3171 34.5963 41.2589C34.5159 41.2007 34.4626 41.1122 34.449 41.0138L33.7564 35.9725L28.5871 36.446L27.2458 38.2143C27.1195 38.3808 27.1499 38.6012 27.3158 38.7274L36.9421 46.0278ZM35.4891 52.9703L35.4154 47.8777L36.6533 47.8603L36.7263 52.9523C36.7455 54.3047 35.6649 55.4163 34.3181 55.4355L13.1002 55.74C11.7509 55.7592 10.6412 54.6786 10.6214 53.3317L10.4221 39.4557C10.4029 38.1058 11.4817 36.9961 12.8353 36.9769L25.406 36.7968L25.4239 38.0347L12.8532 38.2148C12.1836 38.2241 11.6506 38.7718 11.6599 39.4378L11.8592 53.3144C11.8685 53.9779 12.4181 54.5121 13.0829 54.5022L34.2995 54.1976C34.9642 54.1884 35.4984 53.6381 35.4891 52.9703ZM20.5667 42.0922L20.6862 50.3983C20.6837 50.6273 20.7957 50.8396 20.9771 50.9511C21.1584 51.0631 21.3812 51.0563 21.5558 50.9331L28.0225 46.6866C28.2026 46.5745 28.3127 46.3635 28.3096 46.1351C28.3059 45.9073 28.1902 45.6987 28.007 45.5923L21.4208 41.5327C21.3231 41.4677 21.2098 41.4373 21.0953 41.4448C20.7883 41.4658 20.5537 41.753 20.5667 42.0922ZM21.8108 49.288L26.5871 46.1598L21.7229 43.1605L21.8108 49.288ZM65.1596 48.299C65.3941 48.3949 65.5068 48.6635 65.4102 48.8975L63.5751 53.3811C63.4779 53.615 63.2099 53.7277 62.9759 53.6317L52.3976 49.2998C52.1631 49.2039 52.0504 48.9352 52.147 48.7007L53.9827 44.2177C54.0793 43.9831 54.3473 43.8711 54.5813 43.967L65.1596 48.299ZM54.3512 48.8957C54.9287 49.1321 55.4288 49.1699 55.8515 49.0096C56.2742 48.8493 56.5961 48.5002 56.8158 47.9629C57.0225 47.4585 57.0362 47.0054 56.8567 46.6038C56.6772 46.2014 56.3207 45.8914 55.7884 45.6735L54.764 45.2538L53.4277 48.5169L54.3512 48.8957ZM55.5922 46.2553L55.2239 46.1043L54.3537 48.2291L54.6502 48.3504C55.3167 48.6233 55.797 48.4024 56.0892 47.6869C56.377 46.9856 56.2111 46.5084 55.5922 46.2553ZM58.2016 50.524C58.7011 50.7289 59.1443 50.7413 59.5311 50.5606C59.9179 50.3798 60.2212 50.0196 60.4428 49.4799C60.665 48.9383 60.7021 48.4686 60.5548 48.0712C60.4075 47.6738 60.0832 47.3724 59.5812 47.1669C59.0799 46.9614 58.6367 46.9472 58.2505 47.1236C57.8643 47.3 57.5604 47.6596 57.3382 48.203C57.116 48.7458 57.0789 49.2175 57.228 49.6173C57.3772 50.0171 57.7009 50.3198 58.2016 50.524ZM58.6089 47.7654C58.3935 47.8936 58.2109 48.1399 58.0611 48.5045C57.9126 48.869 57.8686 49.1717 57.9318 49.4131C57.9949 49.6538 58.1639 49.8315 58.4387 49.9441C58.9908 50.17 59.4172 49.9163 59.7174 49.1828C60.0182 48.4475 59.895 47.9678 59.3454 47.7432C59.0706 47.6299 58.8249 47.6379 58.6089 47.7654ZM62.7186 52.1783C62.4048 52.1802 62.0829 52.114 61.7524 51.9784C61.2777 51.7841 60.9732 51.4913 60.8401 51.1008C60.7064 50.7096 60.7497 50.2448 60.9707 49.7063C61.11 49.3671 61.2932 49.0948 61.5209 48.8905C61.7493 48.6857 62.0068 48.5625 62.2934 48.5217C62.5812 48.4802 62.8795 48.5229 63.1908 48.6504C63.5077 48.7804 63.7949 48.9871 64.0524 49.2712L63.5981 49.7422C63.4997 49.6345 63.3982 49.5336 63.2923 49.4395C63.1865 49.3461 63.0745 49.2749 62.9544 49.226C62.6944 49.1196 62.4531 49.135 62.2296 49.2718C62.0068 49.4092 61.8242 49.6525 61.6806 50.0022C61.3829 50.73 61.5067 51.2054 62.0526 51.4288C62.2816 51.5229 62.583 51.5792 62.9556 51.5984L62.7186 52.1783Z" id="icon_evidence" fill="#003057" fill-rule="evenodd" stroke="none" />
</svg>