<svg id="SvgjsSvg1001" width="288" height="288" xmlns="http://www.w3.org/2000/svg" version="1.1" xmlns:xlink="http://www.w3.org/1999/xlink" xmlns:svgjs="http://svgjs.com/svgjs"><defs id="SvgjsDefs1002"></defs><g id="SvgjsG1008" transform="matrix(1,0,0,1,0,0)"><svg xmlns="http://www.w3.org/2000/svg" width="288" height="288" viewBox="0 0 21 24"><path fill="#9bcad0" fill-rule="evenodd" d="M16.881,16.6968902 L16.617,16.7418902 L16.533,16.9998902 C15.313,20.6778902 12.829,23.0788902 10.104,23.0668902 C7.378,23.0788902 4.889,20.6778902 3.676,16.9998902 L3.585,16.7418902 L3.321,16.6968902 C3.327,16.6688902 1,16.3568902 1,13.3898902 C1.068,11.8428902 1.477,11.8028902 1.832,11.8028902 C2.807,11.8028902 3.373,12.3758902 3.373,12.3758902 L3.383,11.6868902 C3.414,10.8128902 3.51,9.96889018 3.651,9.15689018 C4.5,6.74389018 5.544,6.40989018 5.981,6.40989018 C6.419,6.40989018 7.927,6.67489018 8.979,6.67489018 C11.575,6.67489018 12.242,5.99989018 13.891,5.99989018 C15.457,5.99989018 16.56,9.53289018 16.666,9.88489018 C16.744,10.4698902 16.802,11.0698902 16.824,11.6868902 L16.852,12.3758902 C16.852,12.3758902 17.652,11.8018902 18.37,11.8018902 C18.725,11.8018902 19.134,11.8358902 19.202,13.3898902 C19.202,16.3568902 16.881,16.6678902 16.881,16.6968902 M19.495,11.4868902 C19.158,11.0558902 18.669,10.9048902 18.27,10.9138902 C18.098,10.9148902 17.941,10.9418902 17.791,10.9748902 L17.792,10.9728902 C17.792,9.50489018 18.14,8.15489018 18.14,6.90989018 C18.14,5.66689018 17.41,3.52489018 15.162,3.29889018 C15.162,3.29889018 13.686,-0.944109821 4.986,0.193890179 C4.986,0.193890179 5.828,0.726890179 6.038,0.938890179 L6.249,1.15289018 C6.249,1.15289018 4.109,1.04589018 2.846,1.97089018 C2.846,1.97089018 3.723,2.21989018 3.898,2.71589018 C3.898,2.71589018 1.425,2.87689018 0.46,3.85389018 C0.46,3.85389018 1.688,3.99589018 1.688,7.22989018 C1.688,8.21189018 1.974,9.74889018 2.43,10.9048902 C2.426,10.9458902 2.421,10.9848902 2.419,11.0238902 C2.219,10.9638902 1.985,10.9148902 1.731,10.9128902 C1.332,10.9048902 0.843,11.0558902 0.506,11.4858902 C0.169,11.9148902 0,12.5278902 0,13.4108902 C0,16.3838902 2.05,17.3048902 2.799,17.5408902 C4.11,21.3028902 6.781,23.9848902 10.003,23.9998902 C13.219,23.9848902 15.891,21.3028902 17.201,17.5408902 C17.951,17.3048902 20,16.3838902 20,13.4108902 C20.001,12.5278902 19.832,11.9078902 19.495,11.4868902" class="color00a287 svgShape"></path></svg></g></svg>