
<svg width="102px" height="41px" viewBox="0 0 102 41" version="1.1" xmlns="http://www.w3.org/2000/svg" xmlns:xlink="http://www.w3.org/1999/xlink">
    <!-- Generator: Sketch 50.2 (55047) - http://www.bohemiancoding.com/sketch -->
    <desc>Created with Sketch.</desc>
    <defs>
        <polygon id="path-1" points="0 0.145089268 24.9666215 0.145089268 24.9666215 26.824299 0 26.824299"></polygon>
        <polygon id="path-3" points="0.150034073 0.0736666667 20.8361808 0.0736666667 20.8361808 39.6917197 0.150034073 39.6917197"></polygon>
    </defs>
    <g id="Symbols" stroke="none" stroke-width="1" fill="none" fill-rule="evenodd">
        <g id="SLTA-Admin-Header" transform="translate(-26.000000, -18.000000)">
            <g id="Group" transform="translate(19.000000, 18.000000)">
                <g id="NCFE_Logo">
                    <g id="Page-1" transform="translate(7.000000, 0.000000)">
                        <g id="Group-3" transform="translate(0.000000, 13.000000)">
                            <mask id="mask-2" fill="white">
                                <use xlink:href="#path-1"></use>
                            </mask>
                            <g id="Clip-2"></g>
                            <path d="M24.9458904,13.4852667 C24.8650685,11.8869333 24.7191781,10.2906 24.5277397,8.70526667 C24.409589,7.74426667 24.1684932,6.79693333 23.9530822,5.8496 C23.8794521,5.52126667 23.6743151,5.22026667 23.6058219,4.8876 C23.4657534,4.1906 23.1239726,3.6096 22.6547945,3.0866 C22.1318493,2.49926667 21.4400685,2.15393333 20.75,1.79326667 C19.725,1.25326667 18.715411,0.706266667 17.5431507,0.5046 C16.2989726,0.288266667 15.0613014,0.0719333333 13.7856164,0.168933333 C12.6044521,0.259266667 11.4188356,0.280266667 10.2380137,0.377266667 C9.36712329,0.4466 8.49383562,0.569933333 7.62910959,0.715933333 C6.61609589,0.8896 5.61472603,1.1356 4.6,1.2986 C3.28013699,1.5166 2.02739726,1.93026667 0.769863014,2.34026667 C0.455136986,2.4436 0.205821918,2.58793333 0.356506849,2.98993333 C0.398287671,3.11093333 0.347260274,3.2666 0.323630137,3.40126667 C0.276712329,3.69826667 0.245205479,3.9856 0.102739726,4.28093333 C-0.0181506849,4.5286 0.193493151,4.91426667 0.205821918,5.2396 C0.229452055,5.7496 0.202739726,6.2636 0.210958904,6.77426667 C0.23630137,8.06626667 0.291438356,9.35626667 0.289726027,10.6459333 C0.285273973,12.0516 0.23630137,13.4609333 0.202739726,14.8706 C0.185616438,15.5299333 0.16609589,16.1932667 0.147260274,16.8542667 C0.102739726,18.2412667 0.0476027397,19.6316 0.0188356164,21.0242667 C-0.00308219178,21.9069333 -0.0106164384,22.7922667 0.0219178082,23.6766 C0.052739726,24.5159333 0.142123288,25.3542667 0.204452055,26.1909333 C0.223972603,26.4192667 0.360958904,26.4999333 0.576369863,26.5176 C1.34178082,26.5782667 2.10753425,26.6676 2.87431507,26.7066 C4.07945205,26.7629333 5.28458904,26.8259333 6.49315068,26.8242667 C7.23527397,26.8226 7.97876712,26.7009333 8.71952055,26.6299333 C8.9239726,26.6129333 9.03184932,26.5312667 8.94554795,26.2869333 C8.88835616,26.1222667 8.90273973,25.9279333 8.90993151,25.7469333 C8.9489726,24.1992667 8.98835616,22.6502667 9.03184932,21.0986 C9.0630137,20.1802667 9.09863014,19.2626 9.14349315,18.3436 C9.19794521,17.2479333 9.26712329,16.1496 9.3119863,15.0539333 C9.33424658,14.5536 9.31027397,14.0492667 9.3119863,13.5489333 C9.32260274,12.8019333 9.34006849,12.0556 9.36335616,11.3059333 C9.38321918,10.4869333 9.4239726,9.66693333 9.43630137,8.8446 C9.44554795,8.5946 9.58321918,8.4786 9.79417808,8.40826667 C10.075,8.31726667 10.3558219,8.22026667 10.6441781,8.15726667 C11.8023973,7.8926 12.9797945,7.88626667 14.1452055,8.0436 C15.5089041,8.22493333 16.2873288,8.97293333 16.294863,10.4206 C16.3017123,11.8659333 16.3434932,13.3052667 16.3434932,14.7466 C16.3434932,16.1762667 16.3188356,17.6079333 16.2873288,19.0376 C16.269863,19.7009333 16.2047945,20.3626 16.1691781,21.0242667 C16.0811644,22.6526 16.0020548,24.2856 15.9130137,25.9149333 C15.8996575,26.1222667 15.959589,26.2596 16.1633562,26.2926 C16.530137,26.3499333 16.9010274,26.4226 17.2705479,26.4239333 C18.3828767,26.4362667 19.4972603,26.4362667 20.6089041,26.4102667 C21.8708904,26.3766 23.1273973,26.3126 24.3835616,26.2546 C24.6633562,26.2402667 24.8465753,26.0869333 24.8465753,25.8076 C24.8465753,25.0506 24.830137,24.2962667 24.8232877,23.5432667 C24.8061644,22.1739333 24.7818493,20.8072667 24.7743151,19.4402667 C24.7743151,18.8092667 24.8123288,18.1789333 24.8195205,17.5489333 C24.8195205,17.4752667 24.7503425,17.4012667 24.6958904,17.2929333 C24.7503425,17.1366 24.8729452,16.9462667 24.8825342,16.7509333 C24.9246575,15.6632667 25.0044521,14.5696 24.9458904,13.4852667" id="Fill-1" fill="#000000" mask="url(#mask-2)"></path>
                        </g>
                        <g id="Group-6" transform="translate(49.000000, 0.000000)">
                            <mask id="mask-4" fill="white">
                                <use xlink:href="#path-3"></use>
                            </mask>
                            <g id="Clip-5"></g>
                            <path d="M20.8104492,3.1197 C20.883777,2.62036667 20.7939246,2.1717 20.6228262,1.71403333 C20.4999246,1.3737 20.1504984,1.33003333 19.8964328,1.15903333 C18.7486623,0.397366667 17.4470066,0.129366667 16.1026623,0.0857 C14.4436623,0.0317 12.7918918,0.160033333 11.1549246,0.418033333 C10.3021869,0.5547 9.52002295,0.829033333 8.79844918,1.29936667 C7.44859672,2.1837 6.33903934,3.28836667 5.5524,4.6667 C5.18576066,5.31036667 4.79502295,5.97536667 4.92480984,6.7767 C4.93410492,6.82903333 4.88969508,6.89203333 4.87248197,6.9517 C4.79984262,7.1477 4.7389082,7.34636667 4.66454754,7.5367 C4.42803934,8.14503333 4.81980984,8.81803333 4.4548918,9.41203333 C4.38328525,10.6787 4.29308852,11.9457 4.2448918,13.2127 C4.23146557,13.6580333 4.20702295,13.7400333 3.73400656,13.7250333 C2.69226885,13.6957 1.64020328,13.6513667 0.599154098,13.6433667 C0.457662295,13.6417 0.223908197,13.7853667 0.190170492,13.9050333 C0.12544918,14.1403667 0.156777049,14.4077 0.163662295,14.6600333 C0.190170492,15.4313667 0.241809836,16.1957 0.254203279,16.9677 C0.274170492,18.1490333 0.275891803,19.3330333 0.269695082,20.5157 C0.266940984,20.8360333 0.409809836,20.9967 0.731695082,21.0057 C0.964072131,21.0120333 1.19472787,20.9927 1.42641639,20.9943667 C2.29980984,21.0023667 3.17079344,21.0057 4.03971148,21.0347 C4.12887541,21.0387 4.27243279,21.1977 4.28310492,21.2937 C4.3316459,21.7520333 4.34335082,22.2093667 4.36917049,22.6687 C4.39567869,23.1367 4.41633443,23.6063667 4.45317049,24.0717 C4.46143279,24.1947 4.55162951,24.3157 4.5416459,24.4317 C4.51169508,24.7543667 4.39567869,25.0757 4.40153115,25.3950333 C4.4266623,26.7113667 4.4786459,28.0273667 4.52649836,29.3387 C4.53062951,29.4290333 4.61979344,29.5167 4.68141639,29.6227 C4.63080984,29.8460333 4.53820328,30.0833667 4.53820328,30.3173667 C4.53510492,32.0077 4.55162951,33.7000333 4.5598918,35.3880333 C4.56746557,35.8227 4.57848197,36.2593667 4.56746557,36.6950333 C4.55817049,37.4293667 4.53062951,38.1643667 4.53510492,38.8980333 C4.53510492,39.1997 4.94167869,39.6493667 5.16820328,39.6307 C5.52003934,39.6073667 5.86774426,39.5597 6.21992459,39.5313667 C6.5576459,39.4950333 6.89846557,39.4363667 7.23480984,39.4467 C8.31682623,39.4750333 9.39712131,39.5347 10.4767279,39.5757 C11.2929738,39.6073667 12.1133508,39.5807 12.916859,39.6807 C13.4484,39.7483667 13.7985148,39.4903667 14.2037115,39.2900333 C14.2336623,39.2717 14.2584492,39.2200333 14.2584492,39.1797 C14.2835803,38.6720333 14.3627607,38.1500333 14.315941,37.6490333 C14.273941,37.1857 14.121777,36.7420333 14.2250557,36.2610333 C14.2777279,36.0043667 14.2322852,35.7293667 14.2377934,35.4603667 C14.2584492,34.6343667 14.281859,33.8023667 14.2952852,32.9743667 C14.3001049,32.8443667 14.2085311,32.7170333 14.2202361,32.5910333 C14.2377934,32.4063667 14.343482,32.2247 14.343482,32.0410333 C14.3452033,31.4980333 14.3052689,30.9523667 14.2952852,30.4077 C14.273941,29.3957 14.2667115,28.3840333 14.2501869,27.3737 C14.2322852,26.4023667 14.2085311,25.4307 14.1868426,24.4617 C14.1737607,23.8993667 14.1434656,23.3377 14.133482,22.7697 C14.1234984,22.2523667 14.1472525,21.7277 14.1117934,21.2097 C14.0987115,20.9710333 14.1486295,20.8653667 14.3896131,20.8530333 C14.4935803,20.8483667 14.5923836,20.8360333 14.6867115,20.8360333 C15.8720066,20.8273667 17.0535148,20.8307 18.2302033,20.8070333 C18.5668918,20.7990333 18.9066787,20.7263667 19.2320066,20.6490333 C19.3545639,20.6167 19.530482,20.4513667 19.327023,20.3457 C19.0478262,20.2010333 19.0805311,20.0043667 19.1135803,19.7817 C19.1855311,19.3013667 19.3404492,18.8237 19.105318,18.3483667 C19.0753672,18.2943667 19.0936131,18.2217 19.0977443,18.1580333 C19.153859,16.8363667 19.215482,15.5170333 19.2657443,14.1920333 C19.2829574,13.6780333 19.1972361,13.6207 18.6594984,13.6177 C17.7151869,13.6110333 16.7643344,13.6013667 15.8152033,13.5967 C15.0185803,13.5940333 14.226777,13.6030333 13.435318,13.5910333 C13.342023,13.5893667 13.1936459,13.4980333 13.1736787,13.4230333 C13.1234164,13.2417 13.1151541,13.0430333 13.1234164,12.8527 C13.1571541,12.1603667 13.2287607,11.4697 13.2442525,10.7780333 C13.2583672,10.0057 13.3967607,9.2627 13.756859,8.5777 C13.8635803,8.36136667 14.0604984,8.15736667 14.273941,8.0257 C15.2902033,7.39136667 16.381859,7.51803333 17.4969246,7.76036667 C18.4570721,7.97003333 19.2836459,8.41303333 20.0771705,8.95036667 C20.1680557,9.0117 20.3319246,9.03436667 20.4262525,8.99636667 C20.4902852,8.96903333 20.5264328,8.8027 20.5236787,8.6987 C20.5088754,7.89903333 20.4221213,7.09536667 20.4672197,6.29736667 C20.5271213,5.23536667 20.6603508,4.17503333 20.8104492,3.1197" id="Fill-4" fill="#000000" mask="url(#mask-4)"></path>
                        </g>
                        <path d="M48.8551993,35.8427981 C48.8868107,34.4558027 48.9513932,33.0698009 49,31.8328315 C48.9602308,31.2155059 48.9449349,30.7505246 48.8976878,30.2855434 C48.8868107,30.1676421 48.8127108,29.9838354 48.7335123,29.9616461 C48.6148845,29.932502 48.4490095,29.9950957 48.3334409,30.067956 C47.9914937,30.2789197 47.6852368,30.5372426 47.3303731,30.7286665 C46.6801295,31.0880003 46.0091516,31.4188524 45.3344347,31.7430808 C44.382353,32.1997825 43.3755462,32.4435333 42.3065363,32.4610861 C41.3673711,32.477314 40.5077444,32.1703072 39.6566153,31.8487282 C38.4842735,31.3996438 37.6528591,30.5485028 36.9659055,29.5576026 C36.7099549,29.1807161 36.4455067,28.7846209 36.3017257,28.3643494 C36.1307521,27.8659186 36.0818054,27.3287394 35.9907101,26.8061322 C35.8129383,25.7605867 36.0257206,24.7713424 36.5607354,23.8612509 C36.8666524,23.3402996 37.2089395,22.831271 37.5858972,22.3580101 C38.6232957,21.0657331 39.9482562,20.3156031 41.6780468,20.3417666 C42.3065363,20.3540204 42.9370652,20.2977192 43.5682739,20.3050052 C44.0720172,20.3139472 44.6151898,20.2745364 45.0774644,20.427543 C46.2790383,20.8309242 47.2535539,21.6125167 48.2219511,22.388479 C48.3137262,22.4646511 48.4418714,22.4944576 48.5564204,22.5441351 C48.579874,22.4312016 48.6376583,22.3116445 48.6325597,22.1963927 C48.6148845,21.37274 48.5601594,20.5480937 48.5638983,19.7198044 C48.5669575,18.7345343 48.6288207,17.7492642 48.6451363,16.7623381 C48.6512546,16.3165655 48.6016281,15.8741047 48.591091,15.4273385 C48.5870121,15.3385814 48.591091,15.2157124 48.6512546,15.1620607 C48.8939488,14.9246023 48.7620646,14.7242365 48.579874,14.5576513 C48.4197774,14.4086188 48.2263699,14.2592552 48.019706,14.183083 C47.2110654,13.9019085 46.4095629,13.5796672 45.5747494,13.3998347 C44.0529824,13.0673267 42.5091213,12.9083587 40.9377277,13.0544106 C39.4693262,13.1931763 38.0145209,13.4081143 36.6001647,13.8121578 C35.581801,14.1039302 34.5624177,14.4476984 33.6025181,14.8855227 C33.1188294,15.1060907 32.541666,15.1541123 32.151112,15.6167753 C31.6392109,16.2218471 31.0334952,16.7461101 30.4757066,17.3160765 C29.7659792,18.0410366 29.2435409,18.8852227 28.8363314,19.7943207 C28.4315013,20.7097112 27.9933602,21.6270887 27.7217739,22.5835459 C27.4267339,23.6304161 27.2588195,24.720009 27.1194573,25.8016535 C26.9783956,26.8958829 26.9110938,28.0182629 27.2132719,29.0909654 C27.5310856,30.2348723 27.938635,31.3605641 28.3876532,32.4610861 C28.863864,33.6331435 29.5158071,34.7091579 30.5181951,35.5493698 C31.1344478,36.0663468 31.7092319,36.632339 32.3418002,37.122159 C33.0865381,37.6954372 33.8356948,38.2647412 34.7327114,38.6111588 C35.4784691,38.9029313 36.1980538,39.2894221 36.9659055,39.4841578 C37.8894349,39.7166485 38.8493344,39.8040809 39.7993766,39.9345671 C40.9013576,40.0829371 42.0009592,39.9716596 43.0604517,39.6749194 C44.6719544,39.2291467 46.2695209,38.7121697 47.7814307,37.9921773 C48.0254844,37.875932 48.2634199,37.7229254 48.5224296,37.6643059 C48.9044859,37.5728994 48.9921821,37.4848046 48.9513932,37.1112299 C48.9044859,36.6909584 48.8446622,36.2660503 48.8551993,35.8427981" id="Fill-7" fill="#000000"></path>
                        <path d="M98.1710263,34.0077493 C99.8236092,33.8782702 101.870786,35.3867839 101.98825,37.3751898 C102.009,37.6816784 102.016385,38.0291413 101.886261,38.2982612 C101.241968,39.6504166 100.235084,40.6636317 98.6025477,40.9461912 C98.1196798,41.0284678 97.5879272,41.0127336 97.1075211,40.9239011 C96.2736684,40.7668872 95.5301995,40.3873003 94.8823898,39.8716784 C94.2711557,39.3908027 93.9303699,38.7735643 94.0119615,38.0134071 C94.0604945,37.5505603 94.1083241,37.073946 94.2620118,36.6310946 C94.9200205,34.7075921 96.011309,33.9887372 98.1710263,34.0077493" id="Fill-9" fill="#000000"></path>
                        <path d="M84.9994838,24.8780291 C84.8439657,24.9203409 84.6836728,24.953397 84.52338,24.9636444 C84.0939999,24.9917421 83.6635966,25.0148813 83.2314881,25.0251287 C82.7195742,25.0373595 82.2039087,25.070085 81.6954053,25.0221537 C81.3321886,24.9884365 80.9710182,24.969925 80.6098478,24.953397 C80.1504553,24.929266 79.6931092,24.9107546 79.2361041,24.8836486 C78.8595865,24.8621621 78.476589,24.8621621 78.1099618,24.7924137 C77.7627744,24.7276238 77.4421887,24.8076196 77.1117126,24.8436507 C77.0332715,24.8515842 76.9531251,24.8707567 76.8733197,24.8740623 C76.8211393,24.8757151 76.7689588,24.8588565 76.707229,24.8486091 C76.6420888,24.7067984 76.6666443,24.6082912 76.7123448,24.5084618 C76.8862795,24.1137719 77.0489597,23.7121402 77.2379006,23.3234004 C77.4172922,22.9528414 77.7153686,22.6589726 77.9837738,22.3502286 C78.0843831,22.2335405 78.2354677,22.1565198 78.371205,22.0702433 C78.8520835,21.7581937 79.3435344,21.4725889 79.8963742,21.2788802 C80.3983976,21.1036828 80.9126989,21.0220342 81.4304106,20.9529469 C81.6599363,20.9218742 81.9099249,20.9972421 82.1469536,21.0385623 C82.7502685,21.1420279 83.2464942,21.4626721 83.7168002,21.8147196 C83.8938044,21.9469441 84.0254491,22.139 84.1632327,22.3141974 C84.4473262,22.6695506 84.6236483,23.0807685 84.797242,23.4919865 C84.9176322,23.7825497 85.035635,24.073774 85.1543199,24.36599 C85.1727365,24.4139213 85.190471,24.4641666 85.2013846,24.5140813 C85.2470851,24.7084512 85.190471,24.8251393 84.9994838,24.8780291 M92.8719078,23.7537909 C92.796195,23.09928 92.7027477,22.4454302 92.6239655,21.7886053 C92.4923207,20.6944482 92.0854498,19.6759895 91.4954358,18.7580214 C90.9753367,17.941205 90.324275,17.1984343 89.530314,16.5822685 C88.6981555,15.9373439 87.8209786,15.3757206 86.8179548,15.0444984 C85.8094742,14.7043511 84.7627961,14.4537858 83.7301011,14.1794201 C83.413608,14.0971104 83.0821088,14.0091811 82.7564074,14.0105034 C81.6422018,14.0194285 80.5150363,13.9232353 79.4161778,14.1794201 C78.8145681,14.3202391 78.1802178,14.2739606 77.5980479,14.536426 C77.2133451,14.7116234 76.8078384,14.8643426 76.397557,14.9420245 C75.646568,15.077224 75.0388195,15.4811696 74.4269784,15.8623065 C73.8161604,16.2431128 73.2810552,16.7439129 72.7370827,17.2162846 C71.8172748,18.0116146 71.0543491,18.9365244 70.4206809,19.9553136 C69.8146376,20.9291465 69.3999225,21.9902476 69.0111272,23.0592821 C68.630517,24.1154247 68.342672,25.1867731 68.1649857,26.2918387 C68.0111728,27.2441852 67.9269338,28.2061179 68.0838161,29.1551587 C68.2669592,30.2321267 68.5019417,31.3061196 68.8255968,32.3477175 C69.1540265,33.4200576 69.7385838,34.3932294 70.4946884,35.2431019 C71.0345683,35.8510037 71.6440221,36.4000656 72.2285793,36.970614 C72.2944017,37.035404 72.373525,37.0922605 72.4608334,37.1339112 C73.0955248,37.4426553 73.7626158,37.6915677 74.3522887,38.0604739 C75.4102214,38.7222571 76.5612603,39.1311612 77.7614102,39.4055269 C78.6788308,39.6127887 79.6272868,39.6954289 80.5569852,39.8345951 C80.9055369,39.8841793 81.250337,39.966489 81.5975244,39.977067 C82.4716319,39.9978923 83.3426699,40.0160732 84.2137079,39.977067 C84.965379,39.9426886 85.7265994,39.8888072 86.4591717,39.7327823 C87.9829766,39.4111464 89.3850273,38.751016 90.7979915,38.1246027 C91.0152394,38.0300623 91.208955,37.8651123 91.3886876,37.7090875 C91.5766054,37.5507487 91.6454972,37.3666262 91.4531458,37.1441586 C91.3839129,37.0724269 91.3822077,36.9339218 91.3822077,36.8258283 C91.3822077,36.5792297 91.3992601,36.3313089 91.4135841,36.0847104 C91.475655,35.0460875 91.5370437,34.0068035 91.6004788,32.9665278 C91.6199185,32.6247277 91.6591391,32.2862332 91.6574339,31.9487303 C91.6543644,31.6462669 91.2904656,31.2909138 91.0981142,31.4019823 C90.6881738,31.6429613 90.261181,31.8293978 89.7946266,31.9325328 C89.755406,31.941458 89.7335789,31.9887282 89.6946994,32.0102147 C89.5286087,32.1126886 89.3707032,32.2310295 89.1892654,32.3093724 C88.9293864,32.4247382 88.6589349,32.5215926 88.3826856,32.6039023 C87.6886517,32.8184365 87.0014389,33.0984217 86.285919,33.2121347 C84.965379,33.4296439 83.6264223,33.5089785 82.2857604,33.39791 C81.3942595,33.3232032 80.5249267,33.1536254 79.7446076,32.7295155 C78.5625332,32.0885576 77.6816048,31.1203443 76.8484232,30.1111413 C76.7890807,30.0354428 76.7740746,29.9256966 76.7437212,29.8328089 C76.8467179,29.8057029 76.9575587,29.7551271 77.058168,29.7577715 C77.6113488,29.7696717 78.1652117,29.8159503 78.7183924,29.8090085 C80.323367,29.7961166 81.9290236,29.7623994 83.5343392,29.7336406 C83.9575805,29.728021 84.3852554,29.6833953 84.8074735,29.700915 C85.4036264,29.7217404 85.9953456,29.7865304 86.5887701,29.8328089 C86.5921806,29.8057029 86.5921806,29.7815719 86.5955911,29.7551271 C87.4335474,29.8159503 88.266047,29.9032184 89.1046854,29.9273494 C90.1022524,29.9551165 91.1028889,29.9329689 92.0967044,29.9094991 C92.2003832,29.9094991 92.3559013,29.7921499 92.3988734,29.692651 C92.5769008,29.2758135 92.7788015,28.883107 92.8395082,28.3998267 C93.0468657,26.8471813 93.048571,25.3037917 92.8719078,23.7537909" id="Fill-11" fill="#000000"></path>
                    </g>
                </g>
            </g>
        </g>
    </g>
</svg>