<?xml version="1.0" encoding="UTF-8"?>
<svg width="269px" height="270px" viewBox="0 0 269 270" version="1.1" xmlns="http://www.w3.org/2000/svg" xmlns:xlink="http://www.w3.org/1999/xlink">
    <!-- Generator: Sketch 56.2 (81672) - https://sketch.com -->
    <title>SB logo@1.5x</title>
    <desc>Created with Sketch.</desc>
    <defs>
        <polygon id="path-1" points="0 0.8176 268.1828 0.8176 268.1828 268.9996 0 268.9996"></polygon>
        <polygon id="path-3" points="0 269.183 268.183 269.183 268.183 1 0 1"></polygon>
    </defs>
    <g id="SB-logo" stroke="none" stroke-width="1" fill="none" fill-rule="evenodd">
        <g id="Group-39">
            <g id="Group-3" transform="translate(0.000000, 0.183000)">
                <mask id="mask-2" fill="white">
                    <use xlink:href="#path-1"></use>
                </mask>
                <g id="Clip-2"></g>
                <path d="M134.0918,11.3446 C101.0868,11.3446 70.0568,24.1976 46.7188,47.5356 C23.3808,70.8736 10.5278,101.9036 10.5278,134.9086 C10.5278,167.9136 23.3808,198.9436 46.7188,222.2816 C70.0568,245.6196 101.0868,258.4726 134.0918,258.4726 C167.0968,258.4726 198.1268,245.6196 221.4648,222.2816 C244.8028,198.9436 257.6558,167.9136 257.6558,134.9086 C257.6558,101.9036 244.8028,70.8736 221.4648,47.5356 C198.1268,24.1976 167.0968,11.3446 134.0918,11.3446 M134.0918,268.9996 C98.2748,268.9996 64.6008,255.0516 39.2748,229.7256 C13.9478,204.3996 -0.0002,170.7256 -0.0002,134.9086 C-0.0002,99.0916 13.9478,65.4186 39.2748,40.0916 C64.6008,14.7646 98.2748,0.8176 134.0918,0.8176 C169.9088,0.8176 203.5818,14.7646 228.9088,40.0916 C254.2348,65.4186 268.1828,99.0916 268.1828,134.9086 C268.1828,170.7256 254.2348,204.3996 228.9088,229.7256 C203.5818,255.0516 169.9088,268.9996 134.0918,268.9996" id="Fill-1" fill="#000000" mask="url(#mask-2)"></path>
            </g>
            <path d="M143.8647,39.3226 C144.2527,39.4736 144.2897,40.1886 144.3067,41.5626 C144.3517,45.3646 144.3067,49.1706 144.3067,52.9736 C144.3067,68.1886 144.3067,83.4036 144.3057,98.6176 C144.3047,109.2686 144.3027,119.9186 144.3027,130.5696 C144.3007,143.8296 142.9227,158.1456 149.3207,170.2966 C152.9137,177.1186 158.8537,182.8626 166.1517,185.3526 C173.4497,187.8436 182.0777,186.7586 188.0067,181.8266 C194.8457,176.1356 197.4827,166.3946 198.8077,157.9776 C200.4627,147.4636 200.7267,135.8696 198.1027,125.4826 C195.8747,116.6606 191.4757,107.8156 183.7907,102.5386 C177.8397,98.4526 170.1967,96.9176 163.1297,98.3896 C159.6897,99.1056 156.4077,100.5296 153.5077,102.5066 C151.9597,103.5616 150.5187,104.7746 149.2187,106.1226 C148.1467,107.2356 147.4397,109.0396 146.0497,109.7176 C147.5767,103.5086 154.4067,97.5396 159.6977,94.4636 C175.8647,85.0666 197.4687,91.2186 207.4417,106.6836 C209.8877,110.4776 211.6127,114.7026 212.8677,119.0386 C219.7027,142.6446 212.2207,173.7136 188.6047,184.9846 C180.1917,188.9996 170.5287,189.9726 161.4097,188.2136 C156.8687,187.3376 152.4377,185.8196 148.3507,183.6506 C146.2517,182.5376 139.9477,178.0706 137.0577,175.3756 C133.5327,179.8966 130.8227,185.3796 127.8107,190.2666 C127.7997,189.8606 127.7847,189.5926 127.7847,189.3236 C127.7837,159.0866 127.7847,128.8496 127.7827,98.6126 L127.7817,75.8206 C127.2847,63.1226 128.2357,60.0926 124.9777,56.9056 C123.1787,55.2006 120.7337,54.4466 118.3157,54.9926 C124.6597,50.9716 131.0117,46.9606 137.3697,42.9616 C138.8947,42.0016 140.4077,41.0176 141.9487,40.0836 C142.9657,39.4686 143.5387,39.1966 143.8647,39.3226" id="Fill-4" fill="#000000"></path>
            <path d="M116.6792,98.7654 L116.6792,119.1844 L116.4952,119.1844 C111.8642,110.2274 105.3212,102.6264 96.5522,97.4974 C91.0202,94.2624 84.6212,92.0784 78.2532,92.7924 C74.7232,93.1884 71.2662,94.5964 68.5132,96.8504 C67.0752,98.0284 65.8202,99.4414 64.8922,101.0564 C63.8952,102.7914 64.1312,104.1724 63.6532,106.0064 C61.7992,113.1334 68.0682,120.2044 73.6682,123.5794 C79.0822,126.8434 85.3332,128.3584 91.3852,130.1844 C96.4412,131.7104 101.4342,133.4854 106.1892,135.7834 C111.6772,138.4354 117.0292,141.9854 120.0342,147.2874 C127.5752,160.5904 120.2712,178.5284 107.2592,185.0884 C100.3032,188.5954 92.2862,189.5194 84.5082,189.1054 C73.0462,188.4954 61.7452,185.0584 51.8832,179.1854 C51.5462,178.9854 51.2002,178.7714 50.9882,178.4424 C50.7222,178.0314 50.7092,177.5134 50.7052,177.0234 C50.6292,168.2594 50.5542,159.4954 50.4782,150.7314 C54.2422,159.6194 59.7922,167.8424 67.1642,174.0734 C74.5352,180.3064 83.7852,184.4664 93.4182,185.0804 C97.6982,185.3524 102.1552,184.8904 105.8992,182.8024 C110.6482,180.1514 113.7552,173.9484 113.1602,168.5304 C112.5932,163.3504 108.2012,158.3894 104.1752,155.4034 C98.9292,151.5154 92.6752,149.2554 86.4482,147.2884 C80.2212,145.3224 73.8692,143.5764 68.0902,140.5374 C62.3102,137.4984 57.0452,132.9784 54.5132,126.9594 C49.4162,114.8414 55.9382,100.9834 66.8502,94.7674 C71.6002,92.0614 76.9932,90.6044 82.4292,90.0184 C92.8662,88.8924 102.8722,91.0764 112.2112,95.6614 C113.0862,96.0914 113.8682,96.6744 114.6752,97.2144 C115.3802,97.6854 116.1072,98.1304 116.6792,98.7654" id="Fill-6" fill="#000000"></path>
            <path d="M221.9985,187.1849 C221.7545,187.1179 221.5925,187.0269 221.4395,187.0389 C220.8425,187.0879 220.2455,187.0249 219.6885,186.8619 C218.8405,186.6129 217.9815,186.3599 217.2135,185.8939 C216.2865,185.3319 215.4425,184.6699 214.7245,183.8569 C214.0615,183.1079 213.4285,182.1649 212.9495,180.9559 C212.5405,179.9229 212.3385,178.8859 212.3615,177.7889 C212.3695,177.4119 212.3735,177.0319 212.3595,176.6539 C212.3485,176.3089 212.5125,176.0019 212.5425,175.6589 C212.5845,175.1809 212.7555,174.6869 212.9825,174.2599 C213.4045,173.4719 213.7325,172.6339 214.3235,171.9279 C214.6735,171.5109 215.0245,171.0989 215.4145,170.7229 C215.9185,170.2369 216.4915,169.8339 217.1015,169.4929 C217.7115,169.1499 218.3355,168.8189 219.0165,168.6339 C219.7075,168.4479 220.3845,168.1889 221.1245,168.2299 C221.6025,168.2559 222.0835,168.2239 222.5625,168.2369 C224.1485,168.2769 225.5575,168.8409 226.9065,169.6439 C227.5375,170.0189 228.0095,170.5809 228.6385,170.9429 C229.4185,171.9629 230.3145,172.8919 230.7315,174.1689 C230.8955,174.6729 231.1135,175.1749 231.2515,175.6919 C231.3685,176.1299 231.4115,176.5919 231.4565,177.0459 C231.4865,177.3459 231.4585,177.6519 231.4635,177.9549 C231.4755,178.8789 231.2685,179.7699 230.9585,180.6249 C230.4215,182.1059 229.6395,183.4469 228.4475,184.5059 C227.3925,185.4459 226.2025,186.1669 224.8465,186.5999 C224.1145,186.8329 223.3885,187.0769 222.6015,187.0379 C222.3925,187.0269 222.1385,186.9259 221.9985,187.1849" id="Fill-8" fill="#000000"></path>
            <path d="M95.6382,211.1888 C95.4372,211.0258 95.2362,210.9048 95.0352,210.8268 C94.8342,210.7488 94.6392,210.7088 94.4512,210.7088 C94.2132,210.7088 94.0182,210.7648 93.8672,210.8778 C93.7172,210.9918 93.6412,211.1388 93.6412,211.3208 C93.6412,211.4468 93.6792,211.5498 93.7542,211.6308 C93.8302,211.7128 93.9292,211.7848 94.0512,211.8438 C94.1732,211.9038 94.3112,211.9558 94.4662,211.9998 C94.6192,212.0428 94.7712,212.0898 94.9222,212.1398 C95.5252,212.3408 95.9662,212.6098 96.2452,212.9458 C96.5252,213.2818 96.6652,213.7198 96.6652,214.2588 C96.6652,214.6238 96.6032,214.9538 96.4812,215.2488 C96.3592,215.5438 96.1802,215.7968 95.9442,216.0068 C95.7092,216.2168 95.4202,216.3798 95.0782,216.4978 C94.7352,216.6128 94.3472,216.6708 93.9142,216.6708 C93.0162,216.6708 92.1842,216.4038 91.4182,215.8708 L92.2092,214.3818 C92.4862,214.6268 92.7592,214.8088 93.0292,214.9278 C93.2992,215.0478 93.5662,215.1078 93.8302,215.1078 C94.1312,215.1078 94.3552,215.0388 94.5032,214.8998 C94.6512,214.7618 94.7242,214.6058 94.7242,214.4288 C94.7242,214.3228 94.7062,214.2298 94.6682,214.1518 C94.6302,214.0728 94.5682,214.0008 94.4792,213.9348 C94.3912,213.8688 94.2772,213.8078 94.1362,213.7518 C93.9942,213.6948 93.8232,213.6318 93.6222,213.5628 C93.3842,213.4878 93.1502,213.4038 92.9212,213.3128 C92.6912,213.2218 92.4872,213.1008 92.3082,212.9508 C92.1292,212.7998 91.9852,212.6098 91.8752,212.3798 C91.7652,212.1518 91.7102,211.8608 91.7102,211.5088 C91.7102,211.1578 91.7682,210.8388 91.8852,210.5528 C92.0012,210.2678 92.1642,210.0228 92.3742,209.8188 C92.5852,209.6148 92.8422,209.4558 93.1472,209.3428 C93.4512,209.2298 93.7922,209.1728 94.1692,209.1728 C94.5202,209.1728 94.8882,209.2218 95.2712,209.3198 C95.6542,209.4178 96.0212,209.5598 96.3732,209.7488 L95.6382,211.1888 Z" id="Fill-10" fill="#000000"></path>
            <path d="M105.3213,213.8362 L104.4923,211.4712 L103.6633,213.8362 L105.3213,213.8362 Z M105.8103,215.2392 L103.1733,215.2392 L102.7493,216.4732 L100.7813,216.4732 L103.4843,209.3702 L105.5003,209.3702 L108.2033,216.4732 L106.2353,216.4732 L105.8103,215.2392 Z" id="Fill-12" fill="#000000"></path>
            <polygon id="Fill-14" fill="#000000" points="112.4609 216.4729 113.6669 209.3699 115.4939 209.3699 116.9159 213.1579 118.3289 209.3699 120.1559 209.3699 121.3619 216.4729 119.5249 216.4729 118.9129 212.3849 117.2359 216.4729 116.5019 216.4729 114.9099 212.3849 114.2979 216.4729"></polygon>
            <path d="M130.1592,213.8362 L129.3302,211.4712 L128.5012,213.8362 L130.1592,213.8362 Z M130.6492,215.2392 L128.0122,215.2392 L127.5872,216.4732 L125.6192,216.4732 L128.3222,209.3702 L130.3382,209.3702 L133.0412,216.4732 L131.0732,216.4732 L130.6492,215.2392 Z" id="Fill-16" fill="#000000"></path>
            <polygon id="Fill-18" fill="#000000" points="137.6191 216.4729 137.6191 209.3699 139.4651 209.3699 142.8751 213.7129 142.8751 209.3699 144.7121 209.3699 144.7121 216.4729 142.8751 216.4729 139.4651 212.1309 139.4651 216.4729"></polygon>
            <polygon id="Fill-20" fill="#000000" points="152.6611 210.9349 152.6611 216.4729 150.8151 216.4729 150.8151 210.9349 149.2991 210.9349 149.2991 209.3709 154.1781 209.3709 154.1781 210.9349"></polygon>
            <polygon id="Fill-22" fill="#000000" points="160.6108 212.1116 163.2768 212.1116 163.2768 209.3706 165.1228 209.3706 165.1228 216.4726 163.2768 216.4726 163.2768 213.5436 160.6108 213.5436 160.6108 216.4726 158.7648 216.4726 158.7648 209.3706 160.6108 209.3706"></polygon>
            <path d="M174.2407,213.8362 L173.4117,211.4712 L172.5827,213.8362 L174.2407,213.8362 Z M174.7297,215.2392 L172.0937,215.2392 L171.6687,216.4732 L169.7007,216.4732 L172.4037,209.3702 L174.4197,209.3702 L177.1227,216.4732 L175.1537,216.4732 L174.7297,215.2392 Z" id="Fill-24" fill="#000000"></path>
            <path d="M100.9033,228.3392 L101.3083,228.3392 C101.7733,228.3392 102.1063,228.2792 102.3073,228.1592 C102.5073,228.0412 102.6083,227.8492 102.6083,227.5852 C102.6083,227.3212 102.5073,227.1302 102.3073,227.0112 C102.1063,226.8922 101.7733,226.8322 101.3083,226.8322 L100.9033,226.8322 L100.9033,228.3392 Z M100.9033,225.4562 L101.2423,225.4562 C101.8203,225.4562 102.1093,225.2282 102.1093,224.7692 C102.1093,224.3112 101.8203,224.0812 101.2423,224.0812 L100.9033,224.0812 L100.9033,225.4562 Z M99.0573,222.6682 L101.8073,222.6682 C102.4603,222.6682 102.9573,222.8252 103.2963,223.1402 C103.6353,223.4532 103.8043,223.9052 103.8043,224.4962 C103.8043,224.8542 103.7403,225.1512 103.6113,225.3862 C103.4833,225.6212 103.2863,225.8202 103.0233,225.9852 C103.2863,226.0342 103.5103,226.1112 103.6963,226.2152 C103.8813,226.3182 104.0323,226.4452 104.1483,226.5972 C104.2643,226.7472 104.3473,226.9162 104.3983,227.1062 C104.4483,227.2932 104.4733,227.4942 104.4733,227.7082 C104.4733,228.0412 104.4153,228.3362 104.2993,228.5932 C104.1833,228.8512 104.0203,229.0682 103.8093,229.2432 C103.5983,229.4192 103.3433,229.5512 103.0423,229.6392 C102.7403,229.7272 102.4013,229.7712 102.0243,229.7712 L99.0573,229.7712 L99.0573,222.6682 Z" id="Fill-26" fill="#000000"></path>
            <path d="M113.1011,227.1331 L112.2721,224.7691 L111.4431,227.1331 L113.1011,227.1331 Z M113.5911,228.5371 L110.9541,228.5371 L110.5301,229.7711 L108.5611,229.7711 L111.2651,222.6681 L113.2801,222.6681 L115.9831,229.7711 L114.0151,229.7711 L113.5911,228.5371 Z" id="Fill-28" fill="#000000"></path>
            <polygon id="Fill-30" fill="#000000" points="122.4072 222.6683 122.4072 228.2073 124.6212 228.2073 124.6212 229.7713 120.5612 229.7713 120.5612 222.6683"></polygon>
            <path d="M131.186,228.2073 L131.61,228.2073 C131.93,228.2073 132.216,228.1573 132.467,228.0573 C132.718,227.9563 132.93,227.8173 133.103,227.6423 C133.275,227.4663 133.407,227.2573 133.499,227.0163 C133.589,226.7733 133.635,226.5083 133.635,226.2203 C133.635,225.9363 133.588,225.6733 133.494,225.4293 C133.399,225.1843 133.266,224.9743 133.093,224.7973 C132.92,224.6213 132.708,224.4833 132.457,224.3833 C132.206,224.2823 131.923,224.2313 131.61,224.2313 L131.186,224.2313 L131.186,228.2073 Z M129.34,222.6683 L132.071,222.6683 C132.555,222.6683 133.008,222.7663 133.433,222.9603 C133.856,223.1553 134.227,223.4143 134.544,223.7373 C134.861,224.0613 135.11,224.4373 135.292,224.8673 C135.475,225.2983 135.566,225.7493 135.566,226.2203 C135.566,226.6843 135.476,227.1323 135.297,227.5613 C135.118,227.9923 134.87,228.3703 134.553,228.6963 C134.236,229.0233 133.866,229.2843 133.442,229.4783 C133.018,229.6733 132.561,229.7703 132.071,229.7703 L129.34,229.7703 L129.34,222.6683 Z" id="Fill-32" fill="#000000"></path>
            <polygon id="Fill-34" fill="#000000" points="141.5561 222.6683 142.7811 227.2563 144.2871 222.6683 145.7571 222.6683 147.2641 227.2563 148.4891 222.6683 150.4191 222.6683 148.3001 229.7713 146.4161 229.7713 145.0221 225.6543 143.6281 229.7713 141.7441 229.7713 139.6251 222.6683"></polygon>
            <mask id="mask-4" fill="white">
                <use xlink:href="#path-3"></use>
            </mask>
            <g id="Clip-37"></g>
            <polygon id="Fill-36" fill="#000000" mask="url(#mask-4)" points="154.931 229.771 156.777 229.771 156.777 222.668 154.931 222.668"></polygon>
            <polygon id="Fill-38" fill="#000000" mask="url(#mask-4)" points="162.0327 229.7708 162.0327 222.6678 163.8797 222.6678 167.2887 227.0108 167.2887 222.6678 169.1257 222.6678 169.1257 229.7708 167.2887 229.7708 163.8797 225.4288 163.8797 229.7708"></polygon>
        </g>
    </g>
</svg>