<?xml version="1.0" standalone="no"?>
<!DOCTYPE svg PUBLIC "-//W3C//DTD SVG 20010904//EN"
 "http://www.w3.org/TR/2001/REC-SVG-20010904/DTD/svg10.dtd">
<svg version="1.0" xmlns="http://www.w3.org/2000/svg"
 width="400.000000pt" height="400.000000pt" viewBox="0 0 400.000000 400.000000"
 preserveAspectRatio="xMidYMid meet">
<metadata>
Created by potrace 1.11, written by Peter Selinger 2001-2013
</metadata>
<g transform="translate(0.000000,400.000000) scale(0.100000,-0.100000)"
fill="#000000" stroke="none">
<path d="M1949 3856 c-2 -2 -33 -7 -69 -10 -54 -5 -135 -21 -265 -51 -47 -11
-196 -69 -275 -107 -209 -101 -426 -274 -576 -458 -16 -19 -32 -36 -36 -38 -5
-2 -8 -10 -8 -17 0 -7 -4 -15 -9 -17 -12 -4 -111 -152 -111 -166 0 -5 -4 -12
-9 -14 -27 -10 -179 -355 -195 -441 -2 -12 -9 -42 -16 -67 -13 -49 -14 -54
-30 -155 -21 -131 -25 -190 -25 -365 0 -155 8 -297 19 -357 3 -11 7 -36 10
-54 57 -336 189 -653 365 -874 171 -214 367 -353 621 -438 183 -61 247 -71
465 -71 173 -1 230 4 345 30 482 110 922 436 1193 886 58 96 164 315 207 428
76 198 127 414 147 615 13 131 7 369 -13 468 -2 12 -7 38 -10 57 -7 39 -39
159 -56 205 -25 70 -35 94 -75 175 -140 284 -371 507 -678 655 -88 43 -282
118 -317 124 -5 0 -9 1 -10 2 -7 2 -36 8 -67 14 -19 3 -37 8 -41 10 -3 2 -29
7 -56 10 -27 4 -60 9 -74 12 -30 6 -345 14 -351 9z m296 -660 c39 -4 77 -8 85
-11 8 -2 33 -7 55 -10 43 -7 52 -9 75 -17 8 -3 44 -16 80 -28 229 -79 429
-246 518 -430 57 -121 75 -202 75 -355 1 -117 -7 -168 -44 -269 -87 -240 -312
-446 -574 -524 -143 -43 -268 -64 -397 -66 l-68 -1 -1 -50 c-1 -62 -7 -133
-13 -161 -14 -54 -94 -109 -178 -121 -95 -13 -134 0 -163 58 -18 34 -21 104
-41 956 -7 311 -6 316 84 360 47 23 69 27 158 29 57 2 106 -1 109 -7 4 -5 14
-9 24 -9 34 0 56 -73 55 -185 -2 -184 -14 -570 -20 -599 l-5 -28 63 5 c90 8
242 51 275 78 7 6 13 8 13 4 0 -3 26 8 58 26 220 125 324 291 324 519 0 153
-69 285 -205 396 -60 50 -211 118 -283 130 -22 3 -59 10 -84 14 -48 9 -308 5
-375 -5 -143 -23 -159 -26 -235 -52 -138 -45 -288 -138 -437 -270 -101 -90
-105 -92 -156 -89 -55 3 -84 25 -93 72 -6 34 14 124 28 124 3 0 10 9 13 21 6
19 141 161 195 204 128 104 442 250 578 269 24 3 46 8 50 10 4 2 39 7 77 11
39 4 71 8 72 9 5 4 247 -2 308 -8z m-287 -2213 c115 -92 89 -256 -45 -292 -86
-23 -188 17 -213 85 -62 163 126 313 258 207z"/>
</g>
</svg>
