<?xml version="1.0" encoding="utf-8"?>
<svg width="61px" height="72px" viewbox="0 0 61 72" version="1.1" xmlns:xlink="http://www.w3.org/1999/xlink" xmlns="http://www.w3.org/2000/svg">
  <path d="M58.5667 58.7184C58.5667 59.4288 57.981 60.0064 57.2606 60.0064L24.7327 60.0064C24.0123 60.0064 23.4266 59.4288 23.4266 58.7184L23.4266 45.1218C23.4266 44.4113 24.0123 43.8337 24.7327 43.8337L57.2606 43.8337C57.981 43.8337 58.5667 44.4113 58.5667 45.1218L58.5667 58.7184ZM53.2957 68.0927C53.2957 68.7304 52.7709 69.2479 52.1244 69.2479L3.51399 69.2479C2.86741 69.2479 2.34265 68.7304 2.34265 68.0927L2.34265 3.46557C2.34265 2.8279 2.86741 2.31038 3.51399 2.31038L37.3386 2.31038L37.3386 14.582C37.3386 16.4927 38.9152 18.0475 40.8526 18.0475L53.2957 18.0475L53.2957 41.5233L24.7327 41.5233C22.7204 41.5233 21.084 43.1383 21.084 45.1218L21.084 58.7184C21.084 60.703 22.7204 62.3168 24.7327 62.3168L53.2957 62.3168L53.2957 68.0927ZM39.6813 3.94382L51.6394 15.7372L40.8526 15.7372C40.206 15.7372 39.6813 15.2196 39.6813 14.582L39.6813 3.94382ZM57.2607 41.5233L55.6384 41.5233L55.6384 16.8924C55.6384 16.8669 55.6255 16.8462 55.6243 16.8207C55.6173 16.7191 55.5974 16.6197 55.5634 16.5227C55.5517 16.4846 55.5412 16.4488 55.5236 16.4141C55.4674 16.2905 55.3959 16.175 55.2952 16.0756L39.3381 0.338471C39.2374 0.239125 39.1179 0.167503 38.9937 0.112054C38.9598 0.0958809 38.9234 0.0866393 38.8883 0.0739322C38.7876 0.0404317 38.6845 0.0196382 38.5791 0.0138623C38.5556 0.0127071 38.5334 0 38.51 0L3.514 0C1.57662 0 0 1.55489 0 3.46557L0 68.0927C0 70.0046 1.57662 71.5583 3.514 71.5583L52.1244 71.5583C54.0618 71.5583 55.6384 70.0046 55.6384 68.0927L55.6384 62.3168L57.2607 62.3168C59.273 62.3168 60.9094 60.703 60.9094 58.7184L60.9094 45.1218C60.9094 43.1383 59.273 41.5233 57.2607 41.5233L57.2607 41.5233ZM50.5946 49.4768C50.1553 50.0706 49.9363 50.8966 49.9363 51.957C49.9363 54.1646 50.7761 55.2678 52.4547 55.2678C53.1598 55.2678 54.0125 55.0934 55.0152 54.7468L55.0152 56.5062C54.1918 56.8446 53.2711 57.0133 52.2555 57.0133C50.7961 57.0133 49.6798 56.5766 48.9067 55.7045C48.1336 54.8311 47.7471 53.5778 47.7471 51.9443C47.7471 50.9151 47.9368 50.014 48.3163 49.24C48.6959 48.466 49.2417 47.8723 49.9527 47.4599C50.6649 47.0463 51.4989 46.8407 52.4547 46.8407C53.4292 46.8407 54.4084 47.0729 55.3924 47.5373L54.706 49.2435C54.3311 49.0679 53.954 48.9143 53.5733 48.7826C53.1938 48.652 52.8213 48.5862 52.4547 48.5862C51.6546 48.5862 51.0338 48.8831 50.5946 49.4768L50.5946 49.4768ZM41.3364 55.2539C40.4895 55.2539 39.8535 54.9744 39.4283 54.4141C39.0031 53.855 38.7899 53.0221 38.7899 51.9166C38.7899 50.8111 39.0054 49.9782 39.4353 49.4156C39.8652 48.8542 40.5036 48.5735 41.3505 48.5735C43.0383 48.5735 43.8829 49.6882 43.8829 51.9166C43.8829 54.1415 43.0337 55.2539 41.3364 55.2539L41.3364 55.2539ZM41.3504 46.8268C39.8078 46.8268 38.6248 47.2612 37.799 48.1299C36.972 48.9986 36.5597 50.2566 36.5597 51.9039C36.5597 53.55 36.9708 54.8138 37.7955 55.6941C38.6189 56.5743 39.7996 57.0133 41.3364 57.0133C42.8744 57.0133 44.0539 56.5743 44.8773 55.6941C45.702 54.8138 46.1131 53.5547 46.1131 51.9166C46.1131 50.2739 45.7055 49.0159 44.8879 48.1403C44.0715 47.2646 42.8919 46.8268 41.3504 46.8268L41.3504 46.8268ZM29.6418 55.1454L28.7281 55.1454L28.7281 48.7017L29.8608 48.7017C31.7642 48.7017 32.7165 49.7645 32.7165 51.89C32.7165 54.0606 31.6916 55.1454 29.6418 55.1454L29.6418 55.1454ZM29.7507 46.9828L26.601 46.9828L26.601 56.8781L29.4426 56.8781C31.2172 56.8781 32.5759 56.445 33.5153 55.5786C34.4559 54.7122 34.9256 53.4646 34.9256 51.8357C34.9256 50.3063 34.4735 49.1153 33.5669 48.2616C32.6614 47.409 31.3894 46.9828 29.7507 46.9828L29.7507 46.9828Z" id="icon_document" fill="#00305A" fill-rule="evenodd" stroke="none" />
</svg>