<?xml version="1.0" encoding="utf-8"?>
<!-- Generator: Adobe Illustrator 22.1.0, SVG Export Plug-In . SVG Version: 6.00 Build 0)  -->
<svg version="1.1" id="Layer_1" xmlns="http://www.w3.org/2000/svg" xmlns:xlink="http://www.w3.org/1999/xlink" x="0px" y="0px"
	 viewBox="0 0 1030 265.1" style="enable-background:new 0 0 1030 265.1;" xml:space="preserve">
<style type="text/css">
	.st0{clip-path:url(#SVGID_2_);fill-rule:evenodd;clip-rule:evenodd;fill:#020203;}
	.st1{clip-path:url(#SVGID_4_);fill:#020203;}
	.st2{fill:#E5103A;}
</style>
<g>
	<g>
		<defs>
			<rect id="SVGID_1_" x="19.6" y="58.2" width="382.2" height="153.4"/>
		</defs>
		<clipPath id="SVGID_2_">
			<use xlink:href="#SVGID_1_"  style="overflow:visible;"/>
		</clipPath>
		<path class="st0" d="M111.3,157.9c-0.3-6-0.8-12.1-1.5-18.1c-0.4-3.6-1.3-7.2-2.1-10.8c-0.3-1.2-1-2.4-1.3-3.6
			c-0.5-2.6-1.8-4.8-3.5-6.8c-1.9-2.2-4.5-3.5-7-4.9c-3.8-2-7.5-4.1-11.8-4.9c-4.6-0.8-9.1-1.6-13.8-1.3c-4.3,0.3-8.7,0.4-13,0.8
			c-3.2,0.3-6.4,0.7-9.6,1.3c-3.7,0.7-7.4,1.6-11.1,2.2c-4.9,0.8-9.5,2.4-14.1,3.9c-1.2,0.4-2.1,0.9-1.5,2.5c0.2,0.5,0,1-0.1,1.6
			c-0.2,1.1-0.3,2.2-0.8,3.3c-0.4,0.9,0.3,2.4,0.4,3.6c0.1,1.9,0,3.9,0,5.8c0.1,4.9,0.3,9.8,0.3,14.6c0,5.3-0.2,10.6-0.3,16
			c-0.1,2.5-0.1,5-0.2,7.5c-0.2,5.2-0.4,10.5-0.5,15.8c-0.1,3.3-0.1,6.7,0,10c0.1,3.2,0.4,6.3,0.7,9.5c0.1,0.9,0.6,1.2,1.4,1.2
			c2.8,0.2,5.6,0.6,8.5,0.7c4.4,0.2,8.9,0.5,13.3,0.4c2.7,0,5.5-0.5,8.2-0.7c0.8-0.1,1.1-0.4,0.8-1.3c-0.2-0.6-0.2-1.4-0.1-2
			c0.1-5.8,0.3-11.7,0.4-17.6c0.1-3.5,0.2-6.9,0.4-10.4c0.2-4.1,0.5-8.3,0.6-12.4c0.1-1.9,0-3.8,0-5.7c0-2.8,0.1-5.6,0.2-8.5
			c0.1-3.1,0.2-6.2,0.3-9.3c0-0.9,0.5-1.4,1.3-1.7c1-0.3,2.1-0.7,3.1-0.9c4.3-1,8.6-1,12.9-0.4c5,0.7,7.9,3.5,7.9,9
			c0,5.5,0.2,10.9,0.2,16.3c0,5.4-0.1,10.8-0.2,16.2c-0.1,2.5-0.3,5-0.4,7.5c-0.3,6.2-0.6,12.3-0.9,18.5c0,0.8,0.2,1.3,0.9,1.4
			c1.3,0.2,2.7,0.5,4.1,0.5c4.1,0,8.2,0,12.3-0.1c4.6-0.1,9.3-0.4,13.9-0.6c1-0.1,1.7-0.6,1.7-1.7c0-2.9-0.1-5.7-0.1-8.6
			c-0.1-5.2-0.2-10.3-0.2-15.5c0-2.4,0.1-4.8,0.2-7.1c0-0.3-0.3-0.6-0.5-1c0.2-0.6,0.7-1.3,0.7-2C111.3,166.2,111.5,162,111.3,157.9
			"/>
		<path class="st0" d="M282.1,69.7c0.3-1.9-0.1-3.6-0.7-5.3c-0.5-1.3-1.7-1.5-2.7-2.1c-4.2-2.9-9-3.9-13.9-4.1
			c-6.1-0.2-12.1,0.3-18.1,1.3c-3.1,0.5-6,1.6-8.6,3.3c-4.9,3.3-9,7.5-11.9,12.7c-1.3,2.4-2.8,4.9-2.3,8c0,0.2-0.1,0.4-0.2,0.7
			c-0.3,0.7-0.5,1.5-0.8,2.2c-0.9,2.3,0.6,4.8-0.8,7.1c-0.3,4.8-0.6,9.6-0.8,14.4c0,1.7-0.1,2-1.9,1.9c-3.8-0.1-7.7-0.3-11.5-0.3
			c-0.5,0-1.4,0.5-1.5,1c-0.2,0.9-0.1,1.9-0.1,2.9c0.1,2.9,0.3,5.8,0.3,8.7c0.1,4.5,0.1,8.9,0.1,13.4c0,1.2,0.5,1.8,1.7,1.9
			c0.8,0,1.7,0,2.5,0c3.2,0,6.4,0,9.6,0.2c0.3,0,0.8,0.6,0.9,1c0.2,1.7,0.2,3.5,0.3,5.2c0.1,1.8,0.2,3.5,0.3,5.3
			c0,0.5,0.4,0.9,0.3,1.4c-0.1,1.2-0.5,2.4-0.5,3.6c0.1,5,0.3,9.9,0.5,14.9c0,0.3,0.3,0.7,0.6,1.1c-0.2,0.8-0.5,1.7-0.5,2.6
			c0,6.4,0.1,12.8,0.1,19.2c0,1.6,0.1,3.3,0,4.9c0,2.8-0.1,5.6-0.1,8.3c0,1.1,1.5,2.8,2.3,2.8c1.3-0.1,2.6-0.3,3.8-0.4
			c1.2-0.1,2.5-0.4,3.7-0.3c4,0.1,7.9,0.3,11.9,0.5c3,0.1,6,0,8.9,0.4c1.9,0.3,3.2-0.7,4.7-1.5c0.1-0.1,0.2-0.3,0.2-0.4
			c0.1-1.9,0.4-3.9,0.2-5.8c-0.2-1.7-0.7-3.4-0.3-5.2c0.2-1,0-2,0-3c0.1-3.1,0.2-6.3,0.2-9.4c0-0.5-0.3-1-0.3-1.4
			c0.1-0.7,0.4-1.4,0.4-2.1c0-2.1-0.1-4.1-0.2-6.2c-0.1-3.8-0.1-7.6-0.2-11.5c-0.1-3.7-0.2-7.3-0.2-11c-0.1-2.1-0.2-4.2-0.2-6.4
			c0-2,0.1-3.9-0.1-5.9c-0.1-0.9,0.1-1.3,1-1.3c0.4,0,0.7-0.1,1.1-0.1c4.3,0,8.7,0,13-0.1c1.2,0,2.5-0.3,3.7-0.6
			c0.4-0.1,1.1-0.7,0.3-1.1c-1-0.5-0.9-1.3-0.8-2.1c0.3-1.8,0.8-3.6,0-5.4c-0.1-0.2,0-0.5,0-0.7c0.2-5,0.4-10,0.6-15
			c0.1-1.9-0.3-2.2-2.2-2.2c-3.5,0-6.9-0.1-10.4-0.1c-2.9,0-5.8,0-8.7,0c-0.3,0-0.9-0.3-1-0.6c-0.2-0.7-0.2-1.4-0.2-2.2
			c0.1-2.6,0.4-5.2,0.4-7.8c0.1-2.9,0.6-5.7,1.9-8.3c0.4-0.8,1.1-1.6,1.9-2.1c3.7-2.4,7.7-1.9,11.8-1c3.5,0.8,6.5,2.5,9.4,4.5
			c0.3,0.2,0.9,0.3,1.3,0.2c0.2-0.1,0.4-0.7,0.4-1.1c-0.1-3-0.4-6.1-0.2-9.1C281.1,77.7,281.6,73.6,282.1,69.7"/>
		<path class="st0" d="M199.6,194.5c0.1-5.3,0.4-10.5,0.5-15.3c-0.1-2.3-0.2-4.1-0.4-5.9c0-0.4-0.3-1.1-0.6-1.2
			c-0.4-0.1-1.1,0.1-1.5,0.4c-1.3,0.8-2.4,1.8-3.7,2.5c-2.4,1.4-4.9,2.6-7.4,3.9c-3.5,1.7-7.3,2.7-11.2,2.7
			c-3.5,0.1-6.7-1.1-9.8-2.3c-4.3-1.7-7.4-4.9-10-8.7c-1-1.4-1.9-2.9-2.5-4.5c-0.6-1.9-0.8-3.9-1.2-5.9c-0.7-4,0.1-7.7,2.1-11.2
			c1.1-2,2.4-3.9,3.8-5.7c3.8-4.9,8.8-7.8,15.2-7.7c2.3,0,4.7-0.2,7-0.1c1.9,0,3.9-0.1,5.6,0.5c4.5,1.5,8.1,4.5,11.7,7.5
			c0.3,0.3,0.8,0.4,1.2,0.6c0.1-0.4,0.3-0.9,0.3-1.3c-0.1-3.1-0.3-6.3-0.3-9.4c0-3.7,0.2-7.5,0.3-11.2c0-1.7-0.2-3.4-0.2-5.1
			c0-0.3,0-0.8,0.2-1c0.9-0.9,0.4-1.7-0.3-2.3c-0.6-0.6-1.3-1.1-2.1-1.4c-3-1.1-6-2.3-9.1-3c-5.6-1.3-11.4-1.9-17.2-1.3
			c-5.4,0.5-10.8,1.3-16.1,2.9c-3.8,1.1-7.6,2.4-11.1,4.1c-1.8,0.8-3.9,1-5.4,2.8c-1.9,2.3-4.1,4.3-6.2,6.5c-2.6,2.8-4.6,6-6.1,9.4
			c-1.5,3.5-3.1,7-4.1,10.6c-1.1,4-1.7,8.1-2.2,12.2c-0.5,4.2-0.8,8.4,0.3,12.5c1.2,4.4,2.7,8.6,4.4,12.8c1.8,4.5,4.2,8.5,7.9,11.7
			c2.3,2,4.4,4.1,6.8,6c2.8,2.2,5.5,4.3,8.9,5.7c2.8,1.1,5.4,2.6,8.3,3.3c3.4,0.9,7,1.2,10.5,1.7c4.1,0.6,8.2,0.1,12.1-1
			c6-1.7,11.9-3.7,17.5-6.4c0.9-0.4,1.8-1,2.7-1.2c1.4-0.3,1.7-0.7,1.6-2.1C199.8,197.7,199.5,196.1,199.6,194.5"/>
		<path class="st0" d="M388.1,184.7c5.9-0.5,13.2,5.3,13.7,12.9c0.1,1.2,0.1,2.5-0.4,3.5c-2.3,5.2-5.9,9.1-11.8,10.2
			c-1.7,0.3-3.6,0.3-5.4-0.1c-3-0.6-5.6-2.1-8-4c-2.2-1.9-3.4-4.2-3.1-7.1c0.2-1.8,0.3-3.6,0.9-5.3
			C376.5,187.3,380.4,184.6,388.1,184.7"/>
	</g>
	<g>
		<defs>
			<rect id="SVGID_3_" x="15.8" y="58.2" width="389.9" height="153.4"/>
		</defs>
		<clipPath id="SVGID_4_">
			<use xlink:href="#SVGID_3_"  style="overflow:visible;"/>
		</clipPath>
		<path class="st1" d="M368.2,148.4c-0.3-2.5-0.6-5-0.9-7.5c-0.5-4.2-2-8-4.2-11.5c-1.9-3.1-4.3-5.9-7.3-8.3
			c-3.1-2.5-6.3-4.6-10-5.9c-3.7-1.3-7.6-2.2-11.4-3.3c-1.2-0.3-2.4-0.7-3.6-0.6c-4.1,0-8.3-0.3-12.3,0.6c-2.2,0.5-4.6,0.4-6.7,1.4
			c-1.4,0.7-2.9,1.3-4.4,1.5c-2.8,0.5-5,2.1-7.3,3.5c-2.3,1.5-4.2,3.4-6.2,5.2c-3.4,3-6.2,6.6-8.6,10.4c-2.2,3.7-3.8,7.8-5.2,11.8
			c-1.4,4-2.5,8.1-3.1,12.3c-0.6,3.6-0.9,7.3-0.3,10.9c0.7,4.1,1.5,8.2,2.7,12.2c1.2,4.1,3.4,7.8,6.2,11c2,2.3,4.2,4.4,6.4,6.6
			c0.2,0.2,0.5,0.5,0.9,0.6c2.3,1.2,4.8,2.1,7,3.5c3.9,2.5,8.2,4.1,12.6,5.1c3.4,0.8,6.9,1.1,10.3,1.6c1.3,0.2,2.6,0.5,3.8,0.5
			c3.2,0.1,6.4,0.1,9.7,0c2.8-0.1,5.6-0.3,8.3-0.9c5.6-1.2,10.8-3.7,16-6.1c0.8-0.4,1.5-1,2.2-1.6c0.7-0.6,1-1.3,0.2-2.2
			c-0.3-0.3-0.3-0.8-0.3-1.2c0-0.9,0.1-1.9,0.1-2.8c0.2-4,0.5-7.9,0.7-11.9c0.1-1.3,0.2-2.6,0.2-3.9c0-1.2-1.4-2.5-2.1-2.1
			c-1.5,0.9-3.1,1.6-4.8,2c-0.1,0-0.2,0.2-0.4,0.3c-0.6,0.4-1.2,0.8-1.9,1.1c-1,0.4-2,0.8-3,1.1c-2.6,0.8-5.1,1.9-7.7,2.3
			c-4.9,0.8-9.8,1.1-14.8,0.7c-3.3-0.3-6.5-0.9-9.4-2.5c-4.4-2.4-7.6-6.1-10.7-10c-0.2-0.3-0.3-0.7-0.4-1.1c0.4-0.1,0.8-0.3,1.2-0.3
			c2,0,4.1,0.2,6.1,0.2c5.9-0.1,11.9-0.2,17.8-0.3c1.6,0,3.1-0.2,4.7-0.1c2.2,0.1,4.4,0.3,6.6,0.5c0-0.1,0-0.2,0-0.3
			c3.1,0.2,6.2,0.6,9.3,0.7c3.7,0.1,7.4,0,11-0.1c0.4,0,1-0.4,1.1-0.8c0.7-1.6,1.4-3.1,1.6-4.9C368.8,160.2,368.8,154.3,368.2,148.4
			 M339.1,152.7c-0.6,0.2-1.2,0.3-1.8,0.3c-1.6,0.1-3.2,0.2-4.8,0.2c-1.9,0-3.8,0.2-5.7,0c-1.3-0.1-2.7-0.2-4-0.3
			c-1.7-0.1-3.4-0.2-5.1-0.3c-1.4-0.1-2.8-0.1-4.2-0.3c-1.3-0.2-2.5,0.1-3.7,0.2c-0.3,0-0.6,0.1-0.9,0.1c-0.2,0-0.4-0.1-0.6-0.1
			c-0.2-0.5-0.1-0.9,0-1.3c0.6-1.5,1.2-3,1.9-4.5c0.7-1.4,1.8-2.5,2.7-3.7c0.4-0.4,0.9-0.7,1.4-1.1c1.8-1.2,3.6-2.3,5.6-3
			c1.9-0.7,3.8-1,5.7-1.2c0.8-0.1,1.8,0.2,2.6,0.3c2.2,0.4,4.1,1.6,5.8,3c0.7,0.5,1.1,1.2,1.6,1.9c1,1.4,1.7,2.9,2.3,4.5
			c0.4,1.1,0.9,2.2,1.3,3.3c0.1,0.2,0.1,0.4,0.2,0.6C340,152.1,339.8,152.5,339.1,152.7"/>
	</g>
</g>
<g>
	<path d="M664.6,211.5c-5.2-1.9-10.7-3.2-15.6-5.7c-11.9-6.1-18-16.9-20.4-29.4c-2.4-12.4-2.3-24.8,2.2-37
		c5.7-15.5,20.9-26.3,37.4-26.7c10.1-0.2,19.8,0.6,28.9,6.3c0.7-1.8,1.2-3.2,1.9-4.9c7.5,0,15.1,0,23.1,0c0,31.8,0,63.1,0,94.4
		c-3.3,1.4-16.8,1.8-23.1,0.6c-0.5-1.2-1-2.5-1.5-3.5c-6.3,2-12.4,3.9-18.5,5.9C674.2,211.5,669.4,211.5,664.6,211.5z M698.1,162.4
		c-0.3-0.1-0.7-0.1-1-0.2c0.3-6.7-0.2-13.3-3.1-19.4c-4.3-9.1-11.8-12.3-21.4-11.8c-8.6,0.5-15.2,5.5-18.2,13.9
		c-3.2,8.9-3,18.1-1.8,27.2c1.5,11.3,8.5,21.7,24.9,20.4c7.8-0.6,14.4-4.6,16.8-12.2C696.1,174.6,696.9,168.4,698.1,162.4z"/>
	<path d="M962.3,211.5c-1-0.3-2-0.7-3-1c-18.5-4.1-29.8-15.7-34.2-33.9c-2.9-12.1-2.9-24.1,1.4-36c5.7-15.8,22-27.6,38.7-27.8
		c7.1-0.1,14.1-0.2,20.9,2.5c12.2,4.7,19.6,13.6,23,25.9c0.6,2.3,1.3,4.6,1.9,6.9c0,4.5,0,9.1,0,13.6c-1.8,3.1-4.7,3.8-8.1,3.7
		c-16.7-0.1-33.4-0.1-50.1,0c-1.7,0-3.5,0.2-5.7,0.4c0.3,2.4,0.4,4.3,0.8,6.2c1.9,10.8,9,18.6,18.7,20.1c7.2,1.1,14.4,0.7,21.1-2.9
		c2.4-1.3,4.7-2.6,7.2-3.8c2.6-1.2,5.4-1.8,7.6,0.5c2.8,2.9,5.2,6.1,7.9,9.2c-3.3,4.6-6.9,7.8-11.4,9.6c-6.4,2.6-13,4.5-19.5,6.7
		C973.8,211.5,968.1,211.5,962.3,211.5z M989,150.3c0.8-7.4-2.1-12.8-7.5-16.7c-7.2-5.1-15.1-4.8-22.7-1c-6.8,3.5-9.7,9.7-10.7,17.7
		C961.9,150.3,975.1,150.3,989,150.3z"/>
	<path d="M770.5,211.5c-0.5-0.2-1.1-0.6-1.7-0.7c-19.7-4.4-29.7-17.8-33.4-36.6c-2.7-13.7-1.5-27.2,5.3-39.5
		c7.5-13.7,19.6-20.9,35.2-21.8c10.2-0.6,20.3-0.1,29.2,5.6c3.4,2.1,6.5,4.7,9.8,7.2c-0.9,1.7-1.4,2.8-2.1,3.8
		c-6.7,9.8-7.4,9.7-18.1,4.9c-4.1-1.9-8.9-3-13.4-3.1c-8.1-0.1-14.7,3.5-18.3,11.1c-5.7,12.1-6.2,24.6-1,36.8
		c5.7,13.4,17.8,17.8,31,11.4c5.6-2.7,10.9-6.4,16-10.1c5.9-4.3,7.8-4.2,12.1,2.8c-10.2,12-20.9,23.7-37.1,28.4
		C779.5,211.5,775,211.5,770.5,211.5z"/>
	<path d="M539.7,156.3c1.5-6,2.5-12.1,4.7-17.8c5.6-14.9,21.4-25.4,37.3-25.7c10.2-0.2,20.3,0,29.2,5.8c3.2,2.1,6.2,4.5,10,7.3
		c-3.1,3.9-5.5,7.3-8.3,10.4c-2.5,2.7-5.5,1.7-8.3,0.1c-5.2-3.1-10.5-5.7-16.9-5.4c-9.4,0.5-17,5.3-20.1,14.2
		c-4,11-4.2,22.2-0.1,33.2c5.6,14.8,22.1,19.5,34.9,10.1c1.1-0.8,2.2-1.6,3.3-2.4c4.2-2.6,6.7-2.2,9.8,1.5c1.9,2.3,3.7,4.7,6,7.6
		c-1.4,1.6-2.5,3.3-4,4.7c-6.5,6.1-14.3,9.3-23,10.9c-0.7,0.1-1.4,0.5-2.1,0.8c-5.4,0-10.9,0-16.3,0c-0.7-0.3-1.4-0.6-2.1-0.8
		c-14.5-3.3-24.3-12.1-29.6-25.8c-2.1-5.4-3-11.2-4.5-16.9C539.7,164.2,539.7,160.2,539.7,156.3z"/>
	<path d="M843.8,4.3c5.4,2.4,9.6,5.6,9.2,12.4c-0.3,5.3-2.4,8.9-6.8,10.7c-5,2-9.7,1.2-13.4-2.5c-3.6-3.5-4.4-8.1-2.8-13
		c1.4-4.1,4.8-6,8.4-7.7C840.2,4.3,842,4.3,843.8,4.3z"/>
	<path d="M829.6,160.7c0-42.4,0-84.9,0-128.1c7.7-0.6,15.1-0.4,23.1-0.1c0,30.4,0,60.1,0,90.6c3.8-2.4,6.9-4.3,9.8-6.2
		c8.8-5.8,29.9-6.7,39.6,2.8c3.6,3.6,6.7,8.3,8.5,13c1.9,4.8,2.7,10.3,2.7,15.5c0.3,18.8,0.1,37.7,0.1,56.5c0,1.6-0.2,3.2-0.3,5.4
		c-7.9,0-15.5,0-23.6,0c-0.2-1.9-0.6-3.8-0.6-5.7c0-18.8-0.3-37.7,0.1-56.5c0.3-12.9-10.6-19.6-20.7-15.6c-6,2.4-11.8,5.9-17,10
		c-6.2,4.8-11.5,10.6-17.2,16c-1.1,1.1-2.4,2.1-3.6,3.1C830.3,161.1,829.9,160.9,829.6,160.7z"/>
	<path d="M852.5,144.9c0,22.1,0,43.4,0,65.4c-7.6,0.6-15,0.4-22.7,0.1c-0.2-2.3-0.5-4.1-0.5-5.8c0-8.6,0.3-17.2-0.1-25.7
		c-0.2-5.3,1.2-9.7,4.7-13.6c5.1-5.7,10.1-11.6,15.1-17.3C849.8,147,850.9,146.3,852.5,144.9z"/>
	<path d="M875.9,108c-6.4,2.2-12,4.1-18.1,6.2c0-16.2,0-32.2,0-48.7c5.9,0,11.8,0,18.1,0C875.9,79.8,875.9,93.9,875.9,108z"/>
	<path d="M866.9,60.4c-5.8,0-9.5-3.5-9.5-9.1c0-5.5,4.1-9.6,9.3-9.6c5.4,0.1,9.6,4.2,9.7,9.3C876.4,56.5,872.5,60.4,866.9,60.4z"/>
</g>
<rect x="469.7" y="8.9" class="st2" width="10.2" height="256.1"/>
</svg>
