<?xml version="1.0" encoding="utf-8"?>
<!-- Generator: Adobe Illustrator 19.2.1, SVG Export Plug-In . SVG Version: 6.00 Build 0)  -->
<svg version="1.1" id="layer" xmlns="http://www.w3.org/2000/svg" xmlns:xlink="http://www.w3.org/1999/xlink" x="0px" y="0px"
	 viewBox="0 0 652 652" style="enable-background:new 0 0 652 652;" xml:space="preserve">
<style type="text/css">
	.st0{fill:#6D6E70;}
	.st1{fill:#D1D3D4;}
	.st2{fill:#EC008C;}
	.st3{fill:#D95BA1;}
	.st4{fill:#FBB03F;}
	.st5{fill:#EAB065;}
	.st6{fill:#DE5325;}
	.st7{fill:#5EB3DE;}
	.st8{fill:#5961AC;}
	.st9{fill:#00AEEF;}
	.st10{fill:#4D845D;}
</style>
<polyline class="st0" points="178,181.6 210.1,216 203.4,222.3 159,174.7 168.4,166 202.6,187.3 176.1,158.8 182.7,152.6 
	227.1,200.1 219.4,207.3 "/>
<path class="st0" d="M236.7,170.3l8.8-4.5l-19.3-27.1 M266.8,178.2l-9.2,4.7l-6.9-9.7l-11.2,5.7l3.8,11.3l-8.4,4.2l-20.1-62.7
	l13.3-6.8L266.8,178.2z"/>
<polyline class="st0" points="256,113.7 286.8,106.7 288.8,115.7 278.4,118.1 290.9,172.4 280.9,174.7 268.5,120.4 258.1,122.8 "/>
<polyline class="st0" points="310.6,104.8 320.8,104.6 322.2,169.6 312,169.8 "/>
<path class="st0" d="M347.6,156.8c-0.9,4.6,0.8,6.7,4,7.3c3.2,0.6,5.5-0.7,6.4-5.3l6.7-34.5c0.9-4.6-0.8-6.7-4-7.3
	c-3.2-0.6-5.5,0.7-6.4,5.3 M344.2,121c2-10.2,8.5-15,18.3-13.1c9.8,1.9,14.1,8.8,12.1,19l-6.4,33.2c-2,10.2-8.5,15-18.3,13.1
	c-9.8-1.9-14.1-8.8-12.1-19L344.2,121z"/>
<polyline class="st0" points="405.8,141.3 384.4,183.2 376.2,179.1 405.7,121.1 417.1,127 408.8,166.4 426.5,131.7 434.6,135.9 
	405.1,193.8 395.7,189 "/>
<path class="st0" d="M436.3,192.6l7.2,6.7l18.9-27.3 M439.2,223.6l-7.5-7.1l6.8-9.8l-9.2-8.6l-9.4,7.4l-6.8-6.4l52.1-40.3l10.9,10.2
	L439.2,223.6z"/>
<polyline class="st0" points="500.1,197.4 505.6,206 458.3,235.6 467.3,249.9 459.4,254.8 445,231.9 "/>
<path class="st0" d="M499.5,334.3l-8.6,0.2c-10.4,0.3-16.5-4.7-16.8-14.8c-0.3-10,5.5-15.4,15.9-15.7l33.8-1
	c10.4-0.3,16.5,4.7,16.8,14.8c0.3,10-5.5,15.4-15.9,15.7l-6.3,0.2l-0.3-9.7l7-0.2c4.6-0.1,6.4-2.2,6.3-5.5c-0.1-3.2-1.9-5.2-6.6-5.1
	l-35.1,1c-4.6,0.1-6.3,2.2-6.2,5.5c0.1,3.2,1.8,5.2,6.5,5.1l9.3-0.3"/>
<polyline class="st0" points="537.2,359 535.4,369 471.4,357.2 473.3,347.2 "/>
<polyline class="st0" points="529.7,392.3 517.8,421.5 509.2,418 513.2,408.1 461.6,387 465.5,377.6 517.1,398.6 521.1,388.7 "/>
<polyline class="st0" points="505.6,442 499.9,450.5 445.9,414.2 451.6,405.7 "/>
<polyline class="st0" points="463,491.5 456.7,485 438,438 424.1,451.6 417.6,444.9 439.1,424 445.4,430.6 464.1,477.5 477.3,464.6 
	483.8,471.3 "/>
<polyline class="st0" points="418.1,489.4 405.9,496.3 401.3,488.2 413.5,481.3 404.1,464.8 388.7,473.5 384.2,465.4 408.4,451.6 
	440.5,508.2 416.3,521.9 411.7,513.9 427,505.1 "/>
<polyline class="st0" points="376.2,517.8 364.8,472.1 373.7,469.8 389.4,532.9 377,536 357.4,500.8 366.8,538.6 357.9,540.8 
	342.2,477.7 352.4,475.1 "/>
<path class="st0" d="M253.9,533.8c-9.5-3-12.5-10.2-9.4-20.1l0.6-2l9.2,2.9l-0.8,2.6c-1.4,4.4-0.2,6.7,2.9,7.7
	c3.1,1,5.4-0.1,6.8-4.6c4-12.7-14.2-21.2-8.6-38.9c3.1-9.9,9.9-14,19.5-11c9.6,3,12.7,10.3,9.6,20.2l-1.2,3.8l-9.2-2.9l1.4-4.4
	c1.4-4.4,0-6.6-3.1-7.6c-3.1-1-5.6,0-7,4.4c-4,12.7,14.2,21.2,8.6,38.9C270.1,532.7,263.4,536.8,253.9,533.8"/>
<polyline class="st0" points="220.6,487.9 208.7,480.4 213.7,472.5 225.5,480 235.7,463.9 220.8,454.5 225.8,446.6 249.3,461.6 
	214.5,516.5 191,501.6 196,493.7 210.9,503.2 "/>
<path class="st0" d="M168.9,469.4l14.7-13.5l-2.7-2.9c-2.6-2.8-5.4-3.4-9.2,0.1l-4.7,4.3c-3.4,3.1-3.9,5.7-1.4,8.3 M202.5,423.5
	c-0.9,1.5-1.4,2.5-5.3,6.1l-7.5,6.9c-4.5,4.1-4.7,7.1-1.6,10.5l2.4,2.6l19.5-17.9l6.9,7.5l-47.9,43.9l-10.4-11.4
	c-7.2-7.8-6.6-14.5,0.8-21.3l3.8-3.5c4.9-4.5,9.6-5.9,14.3-4c-1.9-5.2,0.6-9.8,5.6-14.4l7.4-6.8c2.3-2.1,4-3.8,5.1-6.2L202.5,423.5z
	"/>
<polyline class="st0" points="172,398.7 121.1,415.7 116.9,407.3 179.4,386.9 186.3,400.5 132.8,438.8 128.2,429.6 "/>
<polyline class="st0" points="109.4,383.7 106.9,373.8 169.8,357.6 172.4,367.5 "/>
<path class="st0" d="M141.6,315.8l8.6-0.3c10.4-0.4,16.5,4.5,16.9,14.6c0.4,10-5.3,15.5-15.7,15.9l-33.8,1.3
	c-10.4,0.4-16.5-4.5-16.9-14.6c-0.4-10,5.3-15.5,15.7-15.9l6.3-0.2l0.4,9.6l-7,0.3c-4.6,0.2-6.3,2.3-6.2,5.5c0.1,3.3,2,5.2,6.6,5
	l35.1-1.4c4.6-0.2,6.2-2.3,6.1-5.5c-0.1-3.2-1.9-5.2-6.5-5l-9.3,0.4"/>
<polyline class="st0" points="132.5,285.2 135.6,271.5 144.7,273.5 141.6,287.2 160.2,291.3 164,274.1 173.1,276.1 167,303.3 
	103.6,289.2 109.6,262 118.7,264 114.9,281.2 "/>
<path class="st1" d="M267.7,393.6l-5.9,16.4c-1.8,5.2-5.6,9.9-10.3,13.2c6.5-3,12.3-8.9,14.6-15.6l5.7-15.8
	c2.2-6.4,7.7-12,14.2-15.1C277.8,379.2,270.3,385.8,267.7,393.6"/>
<path class="st1" d="M223.1,357.5c0-8,5.7-14.7,13.3-16.4c-8.7,0.5-15.7,7.7-15.7,16.5c0,9.1,5,16.6,11.1,16.6c2.7,0,4.6,1.5,5.7,4
	l1.4-4.1C229.9,372.7,223.1,365.7,223.1,357.5"/>
<path class="st1" d="M341.1,409.8c-1.4,4-4,7.8-7.3,10.8c4.7-3.2,8.6-8,10.4-13.2l5.6-15.5c2.4-7.2,9.2-13.5,16.7-16.2H353"/>
<path class="st1" d="M319.1,296.6c1.3-0.2,2.6-0.4,3.9-0.4h5.7c10.3,0,16,8,12.7,17.7l-3.2,9.4c-3.3,9.7-14.4,17.7-24.7,17.7h-5.7
	c-6.3,0-10.9-3-12.7-7.6l-2.9,8.5l42.3,0l15.9-46.8h-23.3C324.4,295.1,321.8,295.7,319.1,296.6"/>
<path class="st1" d="M399.5,261.5c-2.3-2.8-2.4-9,0-16.1l3.3-12c3.3-9.7-1.8-17.7-11.4-17.7c-9.6,0-20.1,8-23.4,17.7l-3.3,12
	c-2.4,7.1-9,13.3-16.4,16.1h50.2"/>
<path class="st1" d="M263.2,322.7l14.7-43.2c3.4-9.9,14.7-18,25.1-18h24c-5.5-2.8-7.9-9-5.5-16.1l3.3-12c3.3-9.7-1.8-17.7-11.4-17.7
	c-9.6,0-20.1,8-23.4,17.7l-3.3,12c-3.3,9.7-14.4,17.7-24.7,17.7h-7.1c-10.3,0-18.7,7.5-18.7,16.6c0,9.1,7.5,16.6,16.6,16.6
	c9.1,0,13.9,8,10.6,17.7l-3.2,9.4c-2.9,8.4-10.9,15.5-19,17.3C250.2,340,260,332.2,263.2,322.7"/>
<path class="st2" d="M231,407.6l5.8-15.8c1.9-5.5,2-10.4,0.6-13.7L226.2,410c-3.4,9.9,1.9,18,11.7,18c4.6,0,9.4-1.8,13.6-4.8
	c-2.9,1.3-6,2.1-8.9,2.1C232.9,425.3,227.7,417.3,231,407.6"/>
<path class="st2" d="M320.7,425.1c-9.6,0-14.8-8-11.5-17.7l5.7-15.6c3.3-9.7-2.4-17.7-12.7-17.7h-5.7c-3.5,0-7.1,1-10.5,2.6
	c2.2-0.7,4.5-1.1,6.8-1.1h5.8c10.4,0,16.2,8.1,12.9,18l-5.9,16.2c-3.4,9.9,1.9,18,11.7,18c5.8,0,11.9-2.8,16.6-7.2
	C329.8,423.4,325.2,425.1,320.7,425.1"/>
<path class="st3" d="M341.1,409.8l11.9-34.1h-11.1c-10.4,0-16.2-8.1-12.9-18l5.3-15.7l-42.3,0l-4.9,14.3c-3.4,9.9-14.7,18-25.1,18
	h-20.1c-1.1,0-2.2-0.1-3.2-0.3l-1.4,4.1c1.4,3.3,1.3,8.2-0.6,13.7l-5.8,15.8c-3.3,9.7,1.8,17.7,11.5,17.7c3,0,6-0.8,8.9-2.1
	c4.7-3.3,8.5-8,10.3-13.2l5.9-16.4c2.6-7.8,10.2-14.4,18.3-16.9c3.4-1.6,7-2.6,10.5-2.6h5.7c10.3,0,16,8,12.7,17.7l-5.7,15.6
	c-3.3,9.7,1.9,17.7,11.5,17.7c4.5,0,9.1-1.7,13.1-4.5C337.1,417.6,339.8,413.8,341.1,409.8"/>
<path class="st4" d="M387.2,342.2c-1.7-0.8-3.5-1.2-5.4-1.2l-1.6-0.1c1.3,0.7,2.9,1.1,4.7,1.1C385.6,342,386.4,342.1,387.2,342.2"/>
<path class="st4" d="M396.4,357.6c0,9.1-8.4,16.6-18.7,16.6h-3.2c-2.7,0-5.4,0.5-8,1.5h14.1c10.4,0,19-7.6,19-16.8
	c0-8.3-5.4-15.3-12.5-16.6C392.6,344.7,396.4,350.6,396.4,357.6"/>
<path class="st4" d="M403.7,294.5c-2,1.1-4.2,1.8-6.6,1.8c-8.2,0-17.5,8-20.9,17.7l-3.2,9.4c-3.1,9,0.1,16.5,7,17.6
	c-4.9-2.5-6.8-9.1-4.1-16.9l3.2-9.5c3.4-9.9,12.9-18,21.2-18c5,0,9.5-2.8,12.2-7C410.3,291.8,407.2,293.6,403.7,294.5"/>
<path class="st5" d="M373.1,323.3l3.2-9.4c3.3-9.7,12.7-17.7,20.9-17.7c2.4,0,4.6-0.6,6.6-1.8c-1.7,0.4-3.4,0.7-5.3,0.7h-48.1
	L334.4,342l11.1,0c10.4,0,16.2,8.1,12.9,18l-5.3,15.7h13.5c2.6-0.9,5.3-1.5,8-1.5h3.2c10.3,0,18.7-7.5,18.7-16.6
	c0-6.9-3.8-12.9-9.2-15.4c-0.8-0.1-1.6-0.2-2.4-0.2c-1.8,0-3.3-0.4-4.7-1.1C373.2,339.9,370,332.4,373.1,323.3"/>
<path class="st6" d="M341.9,375.6H353l5.3-15.7c3.4-9.9-2.4-18-12.9-18h-11.1l-5.3,15.7C325.7,367.6,331.5,375.6,341.9,375.6"/>
<path class="st7" d="M223.1,357.5c0,8.3,6.8,15.2,15.7,16.5l4.8-14.1c3.4-9.9,14.7-18,25.1-18h23.4l2.9-8.5c-1.2-2.9-1.2-6.4,0-10.1
	l3.2-9.4c2.9-8.5,11.8-15.7,20.8-17.3c2.6-0.9,5.3-1.4,7.9-1.4h23.3l4.9-14.4c3.4-9.9,14.7-18,25.1-18l16.2,0
	c4.5,0,8.6,1.4,11.8,3.7c-1.6-2.1-3.5-3.4-5.6-3.4c-1.3,0-2.4-0.6-3.2-1.6l-1.1-0.1l-50.2,0c-2.7,1-5.5,1.6-8.3,1.6h-5.7
	c-2.8,0-5.2-0.6-7.2-1.6h-24c-10.4,0-21.7,8.1-25.1,18l-14.8,43.2c-3.2,9.5-13,17.3-22.1,17.9c-1.3,0.3-2.5,0.4-3.8,0.4l-1.1,0.1
	C228.8,342.8,223.1,349.5,223.1,357.5"/>
<path class="st8" d="M243.6,360l-4.8,14.1c1.1,0.2,2.1,0.3,3.2,0.3h20.1c10.4,0,21.7-8.1,25.1-18l4.9-14.3l-23.4,0
	C258.3,342,247,350.1,243.6,360"/>
<path class="st9" d="M298.3,313.9l-3.2,9.4c-1.3,3.8-1.2,7.2,0,10.1l6.9-20.3c2.5-7.4,9.5-13.8,17.2-16.5
	C310.1,298.2,301.2,305.4,298.3,313.9"/>
<path class="st9" d="M399.5,261.5c0.8,1,1.9,1.6,3.2,1.6c2.1,0,4,1.3,5.6,3.4c2.2,3,3.6,7.8,3.6,13.1c0,6.5-3.4,12.1-8.2,14.8
	c3.5-0.9,6.5-2.6,8.9-5c3-3,4.8-6.9,4.8-11.2C417.4,269.4,409.5,262,399.5,261.5"/>
<path class="st9" d="M236.3,341.1l1.1-0.1c1.2,0,2.5-0.2,3.8-0.4l-1.1,0.1C238.8,340.7,237.5,340.8,236.3,341.1"/>
<path class="st9" d="M334.3,263.1h5.7c2.8,0,5.6-0.6,8.3-1.6l-21.2,0C329.1,262.5,331.5,263.1,334.3,263.1"/>
<path class="st10" d="M380.3,262.8c-10.4,0-21.7,8.1-25.1,18l-4.9,14.4h48.1c1.8,0,3.6-0.2,5.3-0.7c4.9-2.7,8.2-8.3,8.2-14.8
	c0-5.3-1.4-10.1-3.6-13.1c-3.2-2.3-7.4-3.7-11.8-3.7"/>
<path class="st0" d="M320.6,76.5c-135.1,0-245,109.9-245,244.9c0,135.1,109.9,245,245,245c135.1,0,245-109.9,245-245
	C565.5,186.4,455.6,76.5,320.6,76.5 M320.6,571.4c-137.9,0-250-112.1-250-250c0-137.8,112.2-250,250-250c137.9,0,250,112.1,250,250
	C570.6,459.3,458.4,571.4,320.6,571.4"/>
</svg>
