
<svg width="173px" height="174px" viewBox="0 0 173 174" version="1.1" xmlns="http://www.w3.org/2000/svg" xmlns:xlink="http://www.w3.org/1999/xlink">
    <!-- Generator: Sketch 48.2 (47327) - http://www.bohemiancoding.com/sketch -->
    <desc>Created with Sketch.</desc>
    <defs>
        <polygon id="path-1" points="0.000146610169 0.377090032 172.623212 0.377090032 172.623212 173.13832 0.000146610169 173.13832 0.000146610169 0.377090032"></polygon>
        <polygon id="path-3" points="0 174 173 174 173 0.861386139 0 0.861386139"></polygon>
    </defs>
    <g id="Page-1" stroke="none" stroke-width="1" fill="none" fill-rule="evenodd">
        <g id="3.-SLTA-complete-Copy" transform="translate(-634.000000, -186.000000)">
            <g id="Badge" transform="translate(634.000000, 186.000000)">
                <g id="Page-1">
                    <g id="Group-3">
                        <mask id="mask-2" fill="white">
                            <use xlink:href="#path-1"></use>
                        </mask>
                        <g id="Clip-2"></g>
                        <path d="M86.3115082,0.376796577 C38.6431664,0.376796577 0.000146610169,39.0507785 0.000146610169,86.757803 C0.000146610169,134.464338 38.6431664,173.13832 86.3115082,173.13832 C133.980339,173.13832 172.623358,134.464338 172.623358,86.757803 C172.623358,39.0507785 133.980339,0.376796577 86.3115082,0.376796577 M86.3115082,4.53603605 C108.256118,4.53603605 128.887101,13.0887901 144.404322,28.6184434 C159.921542,44.1480967 168.467449,64.7956101 168.467449,86.757803 C168.467449,108.719996 159.921542,129.367509 144.404322,144.897163 C128.887101,160.426816 108.256118,168.97957 86.3115082,168.97957 C64.3673867,168.97957 43.735915,160.426816 28.2186946,144.897163 C12.7014743,129.367509 4.15605621,108.719996 4.15605621,86.757803 C4.15605621,64.7956101 12.7014743,44.1480967 28.2186946,28.6184434 C43.735915,13.0887901 64.3673867,4.53603605 86.3115082,4.53603605" id="Fill-1" fill="#029C86" mask="url(#mask-2)"></path>
                    </g>
                    <mask id="mask-4" fill="white">
                        <use xlink:href="#path-3"></use>
                    </mask>
                    <g id="Clip-5"></g>
                    <polygon id="Fill-4" fill="#029C86" mask="url(#mask-4)" points="1.72139303 87 45.6169154 87 45.6169154 82.6930693 1.72139303 82.6930693"></polygon>
                    <polygon id="Fill-6" fill="#029C86" mask="url(#mask-4)" points="125.661692 87 169.557214 87 169.557214 82.6930693 125.661692 82.6930693"></polygon>
                    <path d="M26.2514974,78.3861386 C23.6369478,78.3861386 21.5174129,76.2649055 21.5174129,73.6482611 C21.5174129,71.0321242 23.6369478,68.9108911 26.2514974,68.9108911 C28.8655397,68.9108911 30.9850746,71.0321242 30.9850746,73.6482611 C30.9850746,76.2649055 28.8655397,78.3861386 26.2514974,78.3861386" id="Fill-7" fill="#029C86" mask="url(#mask-4)"></path>
                    <path d="M26.2514974,101.643564 C23.6369478,101.643564 21.5174129,99.5222176 21.5174129,96.9059406 C21.5174129,94.2896636 23.6369478,92.1683168 26.2514974,92.1683168 C28.8655397,92.1683168 30.9850746,94.2896636 30.9850746,96.9059406 C30.9850746,99.5222176 28.8655397,101.643564 26.2514974,101.643564" id="Fill-8" fill="#029C86" mask="url(#mask-4)"></path>
                    <path d="M148.469896,78.3861386 C145.855853,78.3861386 143.736318,76.2649055 143.736318,73.6482611 C143.736318,71.0321242 145.855853,68.9108911 148.469896,68.9108911 C151.084445,68.9108911 153.20398,71.0321242 153.20398,73.6482611 C153.20398,76.2649055 151.084445,78.3861386 148.469896,78.3861386" id="Fill-9" fill="#029C86" mask="url(#mask-4)"></path>
                    <path d="M148.469896,101.643564 C145.855853,101.643564 143.736318,99.5222176 143.736318,96.9059406 C143.736318,94.2896636 145.855853,92.1683168 148.469896,92.1683168 C151.084445,92.1683168 153.20398,94.2896636 153.20398,96.9059406 C153.20398,99.5222176 151.084445,101.643564 148.469896,101.643564" id="Fill-10" fill="#029C86" mask="url(#mask-4)"></path>
                    <path d="M99.327156,53.9994627 C99.6455628,53.6460467 99.9285371,53.0800935 100.530404,53.6460467 C101.13227,54.1764145 101.13227,54.9188319 100.600783,55.4136143 C98.5486125,57.1816695 96.6372009,59.091091 94.9738165,61.1774643 C94.7262746,61.354416 94.5491123,61.602051 94.3724354,61.849686 C94.1598406,61.6371489 93.9826782,61.3895139 93.9122987,61.0711957 C95.5048181,58.5256253 97.3099323,56.1916171 99.327156,53.9994627 M102.422886,92.7606712 L102.317074,92.7606712 C102.370465,92.7070495 102.370465,92.7606712 102.422886,92.7606712 M68.8557214,94.7524752 C68.8557214,94.6457192 68.908142,94.5389632 68.908142,94.3790729 C69.0144394,94.5920975 69.1197661,94.7524752 68.8557214,94.7524752" id="Fill-11" fill="#029C86" mask="url(#mask-4)"></path>
                    <path d="M97.3215373,116.343119 L97.3774826,116.287129 C97.3387512,116.291436 97.2982985,116.303495 97.2587065,116.343119 C97.2587065,116.343119 97.3215373,116.406 97.3215373,116.343119" id="Fill-12" fill="#029C86" mask="url(#mask-4)"></path>
                    <path d="M97.2587065,116.328475 C97.2810846,116.32503 97.3051841,116.322446 97.3275622,116.322446 C97.322398,116.310386 97.3206766,116.299188 97.3155124,116.287129 C97.2982985,116.299188 97.2819453,116.311248 97.2647313,116.322446 L97.2587065,116.328475 Z" id="Fill-13" fill="#029C86" mask="url(#mask-4)"></path>
                    <path d="M84.3826866,125.76496 C84.3706368,125.76496 84.3603085,125.763238 84.3482587,125.762376 C84.3577264,125.788218 84.3646119,125.814921 84.3732189,125.840762 C84.3766617,125.814921 84.3792438,125.790802 84.3826866,125.76496" id="Fill-14" fill="#029C86" mask="url(#mask-4)"></path>
                    <path d="M129.104478,86.8482139 C129.104478,69.2428988 118.606059,54.1003032 103.550611,47.3762376 C103.535992,47.3913973 103.524298,47.40509 103.509679,47.4207387 C102.62332,48.3831359 101.668741,49.5010423 100.701493,50.6981705 C114.913462,56.5111863 124.96066,70.5202267 124.96066,86.8482139 C124.96066,98.7373399 119.629344,109.394617 111.24669,116.558803 C111.327091,116.537775 111.404568,116.510879 111.485944,116.491807 C112.835705,116.172964 114.221526,116.137754 115.64243,116.421388 C115.500632,116.705021 115.216062,116.705021 115.003121,116.811139 C113.368788,117.55641 111.734456,118.300703 110.313551,119.471913 C108.878028,120.686157 108.59833,121.739023 109.344354,123.178218 C121.232004,115.493222 129.104478,102.093993 129.104478,86.8482139" id="Fill-15" fill="#029C86" mask="url(#mask-4)"></path>
                    <path d="M101.106016,127.102852 C99.7166324,127.725913 98.2920749,128.27932 96.7248662,128.002616 C96.3687268,127.93344 96.0120989,127.864264 95.5846339,127.62191 C97.9359355,126.549445 99.966272,125.095796 101.818294,123.435096 C102.226218,123.063932 102.623883,122.689905 103.021547,122.316832 C101.847118,122.864037 100.639957,123.353994 99.4049494,123.786701 C98.7146545,124.263776 97.9872313,124.701732 97.2236567,125.095796 C89.8854267,128.901903 82.3693713,129.179561 75.174281,124.611087 C75.0184395,124.511379 74.8704145,124.405945 74.7184812,124.303374 C73.7252969,124.001385 72.753608,123.652643 71.7955979,123.27623 C73.6871915,124.961261 75.6979867,126.496966 78.0947217,127.587561 C77.3116058,128.106619 76.1718621,128.210144 74.9964556,127.93344 C74.1053743,127.725913 73.2504444,127.379556 72.3955145,126.99885 C69.671952,125.81284 68.0993694,124.620629 65.4129353,124.819092 C71.5972542,128.163391 78.7102712,130.069307 86.2795766,130.069307 C94.7477797,130.069307 102.644401,127.684884 109.308458,123.569155 C106.175506,123.375462 104.026945,125.795665 101.106016,127.102852" id="Fill-16" fill="#029C86" mask="url(#mask-4)"></path>
                    <path d="M63.4820994,120.095912 C62.0508197,118.746922 60.2970603,117.965232 58.5433009,117.14879 C58.3288053,117.006842 58.0421567,116.9716 57.79183,116.687705 C58.7813567,116.488979 59.7311257,116.4508 60.649481,116.537926 C52.422077,109.372517 47.2089008,98.8463803 47.2089008,87.12299 C47.2089008,70.5327602 57.6381981,56.3345897 72.2985075,50.6821446 C71.3271417,49.5279651 70.3498859,48.4398645 69.3996262,47.4687482 C69.3706668,47.4374219 69.3475975,47.406585 69.3225648,47.3762376 C53.8646459,53.981199 43.0348259,69.2899859 43.0348259,87.12299 C43.0348259,102.75483 51.3564706,116.448353 63.8232309,124.039604 C63.8487544,123.991146 63.8782046,123.942688 63.9115815,123.895209 C64.8780389,122.403782 64.7705456,121.302955 63.4820994,120.095912" id="Fill-17" fill="#029C86" mask="url(#mask-4)"></path>
                    <path d="M83.5234671,116.648817 C83.8455938,113.228101 84.9558508,110.021087 86.2443577,106.849444 C87.4980003,103.713665 88.8945375,100.684982 89.717532,97.4062429 C90.147198,95.7315018 90.4334783,94.0208979 90.3622765,92.1683168 C88.249793,92.7028191 86.1731559,92.5957222 84.0606724,92.1683168 C84.5615401,95.161628 84.3469527,98.0119794 83.7743921,100.862822 C83.1296475,103.927368 82.1269299,106.956541 81.4109836,110.021087 C80.4804498,114.04754 80.2295249,118.073993 81.3751372,122.101428 C81.6614175,123.205805 82.0910835,124.274318 82.4853941,125.450419 C82.3420084,125.343814 82.2703156,125.27258 82.1986227,125.200854 C82.0557281,125.023014 81.876496,124.845174 81.7331103,124.666352 C79.1551144,121.423966 77.7232218,117.718313 77.5439897,113.584763 C77.4364504,110.840526 77.7590682,108.203877 80.4804498,106.457411 C78.4391681,106.279571 76.5771184,106.314942 75.073533,107.740118 C73.5694565,109.129922 73.2831762,110.982994 73.2478208,113.049769 C72.9968959,112.72897 72.8535102,112.55113 72.7106156,112.337427 C70.0255714,108.239249 68.9511609,103.713665 69.2020858,98.8314186 C69.2732876,97.4062429 69.5959054,96.0523014 69.6671072,94.6624972 C69.4883661,94.7342227 69.4525197,94.9474341 69.3449805,95.0899025 C66.7316292,99.9009145 65.6572187,104.961001 66.6240899,110.377258 C67.6302449,116.074522 70.4238104,120.763699 75.1884379,124.064545 C78.2049387,125.003363 81.3771013,125.583554 84.654839,125.762376 C83.5931958,122.748432 83.2386599,119.733996 83.5234671,116.648817" id="Fill-18" fill="#029C86" mask="url(#mask-4)"></path>
                    <path d="M108.010731,102.462472 C107.252013,98.9296892 105.770259,95.7851081 103.3494,93.029703 C103.24087,93.2060255 103.313224,93.3828351 103.3494,93.524088 C103.891058,95.6438552 104.180471,97.7991791 104.289001,99.9545031 C104.433212,103.487286 103.999588,106.949443 102.4098,110.200207 C101.330944,112.379885 99.8219335,114.279005 97.70585,115.585351 C97.7088235,115.59217 97.7098146,115.598989 97.712788,115.605321 C97.6994076,115.605321 97.6860272,115.606782 97.6731424,115.60873 L97.6404348,115.640878 C97.6404348,115.676434 97.6042582,115.640878 97.6042582,115.640878 C97.6270544,115.618472 97.6503462,115.611653 97.6731424,115.60873 L97.6761158,115.605321 C97.6865228,115.599476 97.6959386,115.59217 97.70585,115.585351 C97.5774974,115.276056 97.7494602,114.998908 97.7846456,114.722247 C98.1097395,112.920542 98.1820927,111.153907 97.4238708,109.422829 C96.3395638,107.020069 93.0152808,105.748306 90.7386327,106.914373 C91.3164672,107.232435 91.8586207,107.479871 92.3650931,107.86856 C93.629292,108.85733 94.026739,110.129093 93.5931154,111.648292 C93.1594917,113.061795 92.2922443,114.227375 91.389316,115.358372 C90.3411856,116.700761 89.004138,117.760645 87.703267,118.855598 C86.1496553,120.127848 84.9934907,121.682117 84.5960437,123.660631 C84.4894961,124.285066 84.4523284,124.944084 84.3482587,125.702466 C85.0618794,125.740458 85.7799602,125.762376 86.5029967,125.762376 C91.1727519,125.762376 95.653695,124.957722 99.8169778,123.490153 C106.491809,118.845369 109.678819,110.552852 108.010731,102.462472" id="Fill-19" fill="#029C86" mask="url(#mask-4)"></path>
                    <path d="M84.4223865,126.257462 C84.4204107,126.272111 84.4189288,126.285784 84.416953,126.300433 C84.4120134,126.285784 84.4080617,126.270646 84.4026282,126.255997 C81.1054576,126.078744 77.9144879,125.501574 74.880597,124.568433 C75.033724,124.673417 75.1833934,124.78182 75.340966,124.883875 C82.6164755,129.559346 90.2160216,129.275644 97.6352729,125.379499 C98.4073295,124.976163 99.1433271,124.527904 99.840796,124.039604 C95.6910536,125.510852 91.2246841,126.317523 86.5701165,126.317523 C85.8494316,126.317523 85.1336862,126.29555 84.4223865,126.257462" id="Fill-20" fill="#029C86" mask="url(#mask-4)"></path>
                    <path d="M93.2548938,67.7077303 C93.7166957,68.4510019 94.2140583,69.1591354 94.7114209,69.8672688 C97.0199432,73.1239016 97.3399894,76.6279662 95.4572212,80.0973807 C93.574453,83.6375596 90.449009,85.3720229 86.3999612,85.1948675 C82.7060333,85.0182002 79.935222,83.1768581 78.2658179,79.8850871 C76.596901,76.592828 76.809778,73.2654306 78.9054233,70.2206034 C80.3263896,68.1323175 81.604626,65.9376408 83.0255924,63.8493549 C83.1322745,63.6717115 83.2745172,63.4599059 83.4518336,63.211986 C83.9847569,63.990884 84.304316,64.7341556 84.8727999,65.3715245 C85.5474788,64.3447067 86.1865971,63.3535151 86.8968367,62.291559 C87.6075634,63.3535151 88.2471688,64.3447067 88.9213605,65.3715245 C89.5258923,64.7341556 89.8454515,63.9552577 90.3778876,63.1763598 C91.3726127,64.6985294 92.3312901,66.220699 93.2548938,67.7077303 M92.5802149,57.7958148 C92.4379722,57.6186594 92.2957294,57.4419921 92.118413,57.2292105 C91.5854898,58.0437347 91.0886143,58.8577709 90.5907646,59.6366688 C90.5951488,59.6171476 90.6009944,59.5986024 90.6053786,59.5790811 C90.6005073,59.5859136 90.5956359,59.5937221 90.5907646,59.6015306 C90.449009,59.919727 90.3067662,60.2384114 89.9521335,60.4863313 C89.8098908,60.2027851 89.667648,59.9904915 89.5258923,59.7430596 C89.5205339,59.7347631 89.5151754,59.7264666 89.5103041,59.7186581 C89.5039714,59.7503801 89.4966644,59.7821021 89.4898445,59.8133361 L88.4244851,58.1144992 C88.4293564,58.0827772 88.4337406,58.0515432 88.4381248,58.0198211 C88.0981061,57.7035769 87.8871776,57.2589804 87.6450726,56.8797801 C87.6445855,56.8895407 87.642637,56.9007654 87.642637,56.9110141 C87.4297599,56.6279559 87.2163958,56.3092715 86.9684452,55.990099 C86.6128383,56.2380189 86.5061562,56.6630942 86.2221578,56.9461523 C86.2216706,56.9354156 86.2216706,56.9241909 86.2206964,56.9134542 C85.9376722,57.3370654 85.6892345,57.7260263 85.4057232,58.1496375 C85.0501163,58.6811035 84.6949965,59.2472198 84.3398767,59.7781979 C84.2331946,60.061256 84.1269996,60.3443142 83.8425141,60.5214695 C83.5940764,60.2384114 83.3807122,59.9904915 83.2745172,59.6718071 C83.2384694,59.6366688 83.2033959,59.5659043 83.1678352,59.4956278 L83.1678352,59.4951397 C82.6699855,58.7513801 82.2086707,58.0081084 81.7113081,57.2292105 C81.5335047,57.4419921 81.3912619,57.6537977 81.2495062,57.8314411 C81.0074012,58.2101534 80.7657834,58.5561675 80.5241655,58.9334157 C80.5290368,58.9431763 80.5343953,58.953913 80.5392666,58.9641617 C80.2908289,59.4595135 80.0068305,59.919727 79.6512236,60.3443142 C79.6458651,60.3360177 79.6409938,60.326257 79.6356353,60.3174725 C79.6283283,60.326257 79.623457,60.3360177 79.6156629,60.3443142 C79.4739072,60.5214695 79.3672251,60.7337632 79.2249824,60.9465448 C79.2215724,60.9533772 79.2181625,60.9587456 79.2147526,60.966066 C79.2181625,60.9709464 79.2215724,60.9763147 79.2249824,60.981683 C79.1183003,61.2652292 78.9760575,61.5131491 78.7281069,61.7249547 C78.7242099,61.7200744 78.7198257,61.7161701 78.7154415,61.7112898 C77.7971962,63.2978796 76.982223,64.9523056 75.8150528,66.362228 C71.9438086,70.9995013 71.1619604,77.513255 74.003406,82.7522709 C76.9520208,88.1684421 82.741594,91.1776431 88.8507263,90.2923543 C94.3913746,89.5139444 98.3342274,86.4691172 100.429873,81.3013539 C102.489957,76.1682407 101.708596,71.2830475 98.3342274,66.8580678 C97.0910646,65.2295074 96.1319001,63.4599059 95.0665407,61.7249547 C94.8531765,61.5126611 94.6758602,61.2652292 94.6047388,60.9465448 C94.3563011,60.840154 94.3207404,60.5922341 94.1784976,60.3799405 C93.8584514,59.8845887 93.574453,59.3887489 93.2548938,58.8929091 C93.2636622,58.8763161 93.2714564,58.860211 93.2802248,58.843618 C93.0045076,58.532254 92.7643511,58.1564699 92.5899576,57.7782457 C92.5870348,57.783614 92.5826506,57.7904464 92.5802149,57.7958148" id="Fill-22" fill="#029C86" mask="url(#mask-4)"></path>
                    <path d="M103.283582,122.316832 C106.400204,120.941754 109.288165,119.196269 111.890547,117.148515 C109.401011,117.738879 107.30693,118.994146 105.384592,120.535678 C104.656044,121.100892 103.97105,121.705889 103.283582,122.316832" id="Fill-23" fill="#029C86" mask="url(#mask-4)"></path>
                    <path d="M110.767635,119.612675 C112.214409,118.411645 113.878993,117.648402 115.542585,116.884657 C115.759898,116.775336 116.04965,116.775336 116.19403,116.484481 C114.747256,116.193626 113.336205,116.229732 111.961373,116.556693 C111.878516,116.576251 111.799628,116.603832 111.717763,116.625395 C109.109005,118.870995 106.213969,120.78512 103.089711,122.293052 C102.686341,122.685205 102.281979,123.07836 101.86819,123.468005 C99.9867882,125.214137 97.9247881,126.742128 95.5373134,127.869441 C95.9714448,128.12419 96.3331383,128.196904 96.6953279,128.269617 C98.2869777,128.560472 99.7337516,127.978763 101.144307,127.323838 C104.110788,125.949799 106.292857,123.405321 109.475164,123.609421 C109.576875,123.543728 109.679578,123.479539 109.781289,123.413345 C109.021187,121.937507 109.306473,120.857834 110.767635,119.612675" id="Fill-24" fill="#029C86" mask="url(#mask-4)"></path>
                    <path d="M66.3813937,118.190415 C64.7230098,117.1823 62.9835494,116.467149 61.1094527,116.287129 C64.403126,119.17387 68.1773621,121.516603 72.2985075,123.178218 C71.5432672,122.487235 70.8047335,121.774551 70.0720964,121.052495 C68.961102,119.943766 67.7071181,119.013084 66.3813937,118.190415" id="Fill-25" fill="#029C86" mask="url(#mask-4)"></path>
                    <path d="M72.5147863,127.211518 C73.3861256,127.610209 74.2574649,127.972428 75.1651515,128.19026 C76.3631186,128.480035 77.5252363,128.37112 78.3233831,127.827541 C75.8806456,126.685925 73.8312555,125.077671 71.9028572,123.313038 C67.7273992,121.629842 63.9024686,119.25668 60.5654881,116.332446 C59.6339019,116.243015 58.6699516,116.281985 57.6666667,116.484827 C57.9201019,116.774603 58.2108803,116.811075 58.4289641,116.955963 C60.2074921,117.789317 61.986518,118.586699 63.4384182,119.963633 C64.7454272,121.195678 64.8544691,122.319308 63.8740879,123.841628 C63.8402301,123.89059 63.8108535,123.939553 63.7849623,123.989014 C64.3147366,124.313263 64.8534733,124.626021 65.3981848,124.928786 C68.1361818,124.720947 69.7389483,125.96948 72.5147863,127.211518" id="Fill-26" fill="#029C86" mask="url(#mask-4)"></path>
                    <path d="M85.2089552,58.6706207 C84.7979053,55.8423164 84.4252474,53.0144996 83.9773412,50.2212871 C83.8524394,49.5599035 83.7249781,48.89852 83.5954692,48.2376238 C82.6899309,48.2951354 81.7930947,48.3818902 80.9054726,48.4949639 C82.2026089,52.3623763 83.2274183,56.3141066 84.0889338,60.2970297 C84.4621037,59.7667531 84.8357854,59.2013847 85.2089552,58.6706207" id="Fill-27" fill="#029C86" mask="url(#mask-4)"></path>
                    <path d="M81.5487042,48.2376238 C82.4724773,48.1260054 83.4058397,48.0403671 84.3482587,47.9835957 C84.0680369,46.6292603 83.7713001,45.2778117 83.4516554,43.9306931 C82.3041311,44.0124824 81.1677944,44.1308364 80.0447761,44.2857551 C80.4475284,45.2797362 80.8508134,46.2775662 81.2104136,47.2893485 C81.3265512,47.6049591 81.4368286,47.921532 81.5487042,48.2376238" id="Fill-28" fill="#029C86" mask="url(#mask-4)"></path>
                    <path d="M88.6517413,58.5831925 C88.6600472,58.5905797 88.6662766,58.5994444 88.6751016,58.6073241 C89.0483469,59.170231 89.4210732,59.7336303 89.7943185,60.2970297 C90.4317946,57.4366944 91.106128,54.6113254 91.8920716,51.8553963 C92.2227493,50.744357 92.5830168,49.6397199 92.9552239,48.5375453 C92.0784347,48.408515 91.190225,48.3129735 90.2957858,48.2376238 C90.1369359,49.0709033 89.986911,49.9071376 89.8483067,50.7482968 C89.4371658,53.3599287 89.061844,55.9715606 88.6517413,58.5831925" id="Fill-29" fill="#029C86" mask="url(#mask-4)"></path>
                    <path d="M91.7501177,48.2376238 C92.1327466,46.9303931 92.5341574,45.6279421 92.9552239,44.3331385 C92.0619864,44.1648953 91.1587028,44.0296316 90.245373,43.9306931 C89.9811145,45.2670795 89.7343276,46.602988 89.5124378,47.9470218 C90.2650286,48.0201503 91.0123778,48.1123973 91.7501177,48.2376238" id="Fill-30" fill="#029C86" mask="url(#mask-4)"></path>
                    <path d="M89.4962274,60.2970297 C89.5016309,60.2670277 89.5070343,60.2365569 89.5124378,60.2060861 C89.2349307,59.6693312 88.9574236,59.1335138 88.6803025,58.5972277 C88.6737412,58.5897272 88.6687236,58.5812891 88.6629342,58.5742574 C88.6590746,58.6047282 88.6556009,58.6347302 88.6517413,58.6652011 L89.4962274,60.2970297 Z" id="Fill-31" fill="#029C86" mask="url(#mask-4)"></path>
                    <path d="M85.7398909,57.7103877 C86.0421717,57.421799 86.1557214,56.9896609 86.533702,56.7373321 C86.7981328,57.061684 87.0252323,57.3860358 87.2518132,57.6741279 C87.2528502,57.675618 87.2538872,57.6771081 87.2544057,57.6785983 C87.2601091,57.5747858 87.2860337,57.4516016 87.2518132,57.3860358 C87.4213601,54.3506386 87.5945364,51.3157381 87.7910448,48.2803409 C87.2077414,48.2569955 86.6228826,48.2376238 86.0333573,48.2376238 C85.7570011,48.2376238 85.4842744,48.2525251 85.2089552,48.2574922 C85.3956123,51.4195506 85.5594557,54.5686945 85.7378169,57.7128713 C85.7388539,57.7118779 85.7393724,57.7108844 85.7398909,57.7103877" id="Fill-32" fill="#029C86" mask="url(#mask-4)"></path>
                    <path d="M85.4298169,48.2145599 C85.6549178,48.209546 85.878323,48.1945043 86.1042718,48.1945043 C86.5862675,48.1945043 87.064024,48.2140585 87.5409327,48.2376238 C87.5595851,47.8831418 87.575694,47.5281585 87.5947704,47.1731751 C87.6553908,46.1082251 87.7232178,45.0427737 87.7910448,43.9778236 C87.2318958,43.9482417 86.6697795,43.9306931 86.1042718,43.9306931 C85.8049851,43.9306931 85.5065462,43.9362083 85.2089552,43.9437292 C85.2420209,44.5118028 85.2755105,45.0798764 85.3077283,45.6459445 C85.3530876,46.5053251 85.3886968,47.3581876 85.4298169,48.2145599" id="Fill-33" fill="#029C86" mask="url(#mask-4)"></path>
                    <path d="M86.9730153,56.0206356 C87.2731556,56.2975854 87.5303347,56.5749594 87.7881022,56.8209486 C87.7881022,56.8120421 87.7904563,56.8022873 87.7910448,56.7933808 C87.7904563,56.7921085 87.7892792,56.7908361 87.7881022,56.7895637 C87.5303347,56.5435746 87.2731556,56.2670489 86.9730153,55.990099 C86.5439912,56.2055516 86.4151074,56.5745353 86.0720058,56.8209486 C86.0714173,56.8213727 86.0708288,56.8222209 86.0696517,56.8230692 C86.0708288,56.8323998 86.0714173,56.8421545 86.0720058,56.8514851 C86.4151074,56.605496 86.5439912,56.2360882 86.9730153,56.0206356" id="Fill-34" fill="#029C86" mask="url(#mask-4)"></path>
                    <path d="M90.3731343,60.2970297 C90.8408884,59.5232505 91.307718,58.7494712 91.808751,57.9052149 C91.9774568,58.1186037 92.1124214,58.2957752 92.247386,58.4729467 C92.249697,58.4793092 92.2533947,58.4851823 92.256168,58.4915448 C92.3236503,58.3515695 92.4193272,58.1827183 92.516853,58.0119093 C93.6483371,55.1561206 94.9480648,52.4060475 96.39801,49.7347716 C95.5979287,49.4978904 94.7899898,49.2791179 93.968647,49.0990099 C93.38303,50.6005626 92.8288431,52.1148402 92.3144061,53.6452689 C91.5790339,55.8276103 90.8455105,58.0109305 90.3731343,60.2970297" id="Fill-35" fill="#029C86" mask="url(#mask-4)"></path>
                    <path d="M96.5693111,49.0990099 C97.2754699,48.0066792 98.0093931,46.9273856 98.7784147,45.8620605 C98.850183,45.7638159 98.916189,45.6725555 98.9800995,45.5845545 C97.8873345,45.2851646 96.7767583,45.0202301 95.6515142,44.7920792 C95.0076943,46.0161788 94.3942582,47.2495906 93.8159204,48.4941771 C94.7468137,48.6655231 95.6625152,48.8736527 96.5693111,49.0990099" id="Fill-36" fill="#029C86" mask="url(#mask-4)"></path>
                    <path d="M91.6885068,57.750046 C91.8411839,57.9751595 91.9636612,58.1620657 92.0861385,58.3494881 C92.0882357,58.3432924 92.0920107,58.3365803 92.0945274,58.3309008 C92.0920107,58.3241887 92.0882357,58.3185092 92.0861385,58.3117971 C91.9636612,58.124891 91.8411839,57.9374685 91.6885068,57.7128713 C91.2338308,58.602999 90.8097742,59.4192936 90.3857176,60.2355882 C90.3819426,60.2562408 90.3769093,60.2763771 90.3731343,60.2970297 C90.8018048,59.4729904 91.2296364,58.6117763 91.6885068,57.750046" id="Fill-37" fill="#029C86" mask="url(#mask-4)"></path>
                    <path d="M80.7983751,57.7764794 C80.9319068,57.5998069 81.0658975,57.3880919 81.2329269,57.1763769 C81.7018941,57.9526652 82.1699437,58.6943977 82.6054132,59.4356436 C82.6719497,59.1883994 82.5714567,58.9416419 82.4714226,58.6588685 C81.8689236,56.3996019 81.1998881,54.1758644 80.4303597,51.9511535 C79.9958078,50.7056852 79.5328059,49.4680042 79.051908,48.2376238 C78.226856,48.4001819 77.4073105,48.5812348 76.60199,48.8017104 C78.1704148,51.6932018 79.5621737,54.6937144 80.7983751,57.7764794" id="Fill-38" fill="#029C86" mask="url(#mask-4)"></path>
                    <path d="M79.1840796,48.5542932 C78.6064899,47.2865805 77.9968407,46.0315683 77.3535806,44.7920792 C76.2263241,45.0061086 75.1145803,45.2577696 74.0199005,45.545651 C74.860689,46.7084658 75.6611446,47.8938596 76.4233354,49.0990099 C77.3308286,48.8863917 78.2538345,48.711405 79.1840796,48.5542932" id="Fill-39" fill="#029C86" mask="url(#mask-4)"></path>
                    <path d="M83.4875622,60.2970297 C82.9417827,59.4493723 82.3539759,58.6011583 81.7661692,57.7128713 C82.3539759,58.6011583 82.8997554,59.4493723 83.4875622,60.2970297" id="Fill-40" fill="#029C86" mask="url(#mask-4)"></path>
                    <path d="M81.7205522,57.7128713 C81.4072587,58.0174653 81.1559353,58.320662 80.9054726,58.5742574 C81.1559353,58.320662 81.4072587,58.0174653 81.7205522,57.7128713" id="Fill-41" fill="#029C86" mask="url(#mask-4)"></path>
                    <path d="M80.0249659,59.7819316 C80.0315693,59.771011 80.0381727,59.7610833 80.0447761,59.7506591 C79.2231236,57.8892036 78.3344936,56.0629917 77.3769995,54.2367798 C76.6916601,52.9729756 75.7761448,51.4614737 74.8167641,49.960396 C73.9630378,50.2358915 73.1253484,50.5481196 72.2985075,50.8846707 C74.870063,54.1106972 77.392093,57.8599167 79.1844465,61.1584158 C79.5183902,60.734004 79.7891299,60.2753414 80.0249659,59.7819316" id="Fill-42" fill="#029C86" mask="url(#mask-4)"></path>
                    <path d="M72.4622519,49.960396 C73.2562881,49.6418861 74.0607422,49.3459256 74.880597,49.0856682 C74.1024144,47.8853837 73.2943366,46.6926157 72.5619028,45.6534653 C71.5957425,45.9945246 70.6472475,46.373636 69.7164179,46.787511 C69.7390658,46.8171071 69.7603549,46.8462333 69.7870794,46.876769 C70.664007,47.8088098 71.5658472,48.8531278 72.4622519,49.960396" id="Fill-43" fill="#029C86" mask="url(#mask-4)"></path>
                    <path d="M80.0447761,59.4731858 C80.0396723,59.4606717 80.0350324,59.4475617 80.0303925,59.4356436 C80.0238967,59.4481576 80.0169369,59.4600758 80.010905,59.4731858 C79.7789114,60.0655191 79.5125826,60.6161389 79.1840796,61.1256409 C79.1887195,61.1363672 79.1938233,61.1482854 79.1989272,61.1584158 C79.537174,60.6399752 79.8076786,60.0780332 80.0447761,59.4731858" id="Fill-44" fill="#029C86" mask="url(#mask-4)"></path>
                    <path d="M97.3165603,51.2909985 C95.6775101,53.9431346 94.3156452,56.7388608 92.9552239,59.572374 C92.9590737,59.5764046 92.961961,59.5824505 92.9658108,59.5869849 C93.2463646,60.1351468 93.5620478,60.6465294 93.8426016,61.1584158 C95.5495045,58.0543485 98.1707336,54.1980701 100.701493,50.9312673 C99.8733054,50.577582 99.0311628,50.2541262 98.1750646,49.960396 C97.8415761,50.4642213 97.5441795,50.9237099 97.3165603,51.2909985" id="Fill-45" fill="#029C86" mask="url(#mask-4)"></path>
                    <path d="M100.56258,50.8217822 C101.486334,49.6723909 102.397988,48.5990623 103.244491,47.6750418 C103.258452,47.6600171 103.269621,47.6468704 103.283582,47.6323152 C102.382166,47.2280563 101.463997,46.8547858 100.530005,46.5148515 C99.7486533,47.5938144 98.8425835,48.8652816 98.119403,49.9170122 C98.9468258,50.1907438 99.7616836,50.4921773 100.56258,50.8217822" id="Fill-46" fill="#029C86" mask="url(#mask-4)"></path>
                    <path d="M93.8159204,61.1584158 C93.5512653,60.6024004 93.2534716,60.0469322 92.9888165,59.4515141 C92.9851848,59.4465888 92.9824611,59.4400216 92.9788295,59.4356436 C92.9711123,59.4542504 92.9633951,59.4723099 92.9552239,59.4909168 C93.2534716,60.0469322 93.5181267,60.6024004 93.8159204,61.1584158" id="Fill-47" fill="#029C86" mask="url(#mask-4)"></path>
                    <path d="M78.3233831,61.2580968 C76.7763597,58.6233052 75.0293777,56.1675916 73.0131675,53.857036 C72.710228,53.4948894 72.4409997,53.1696557 71.9695039,53.6400473 C71.3636249,54.2550981 71.2624911,54.8701488 71.7335251,55.3041262 C73.9515411,57.3622766 76.0014626,59.6015003 77.8505019,62.019802 C77.8541963,62.0128184 77.8578907,62.0053361 77.8620468,61.9978537 C78.0592346,61.7863521 78.1917706,61.5384362 78.3233831,61.2580968" id="Fill-48" fill="#029C86" mask="url(#mask-4)"></path>
                    <path d="M79.1840796,61.1761421 C79.1783197,61.1700487 79.1717369,61.1645092 79.1667998,61.1584158 C78.931466,61.4697335 78.6953093,61.7444908 78.3439542,61.9799179 C78.3373715,61.9882271 78.3307887,61.9959823 78.3233831,62.0042915 C78.3307887,62.009831 78.3381943,62.0148165 78.3439542,62.019802 C78.7636055,61.7793894 79.0038764,61.4979848 79.1840796,61.1761421" id="Fill-49" fill="#029C86" mask="url(#mask-4)"></path>
                    <path d="M95.709581,61.3339986 C97.3274821,59.2059691 99.1861565,57.2579692 101.182685,55.454192 C101.699639,54.9489155 101.699639,54.1919954 101.113758,53.650912 C100.528821,53.0735242 100.253584,53.650912 99.9438837,54.0109712 C97.9813465,56.2474163 96.226063,58.6290787 94.6766169,61.225583 C94.7455441,61.5508298 94.9178622,61.8029707 95.1246438,62.019802 C95.2964898,61.7671638 95.4683357,61.5145255 95.709581,61.3339986" id="Fill-50" fill="#029C86" mask="url(#mask-4)"></path>
                    <path d="M68.8557214,95.412297 C69.3239403,95.412297 69.1371692,95.1297624 68.9486766,94.7524752 C68.9486766,95.0358713 68.8557214,95.2236535 68.8557214,95.412297" id="Fill-51" fill="#029C86" mask="url(#mask-4)"></path>
                    <path d="M82.9074527,60.7682079 C82.9074527,60.5795644 82.9074527,60.2970297 82.6268657,60.2970297 L82.6268657,60.2978911 C82.7198209,60.3917822 82.8144975,60.5795644 82.9074527,60.7682079" id="Fill-52" fill="#029C86" mask="url(#mask-4)"></path>
                    <path d="M82.6268657,60.2978911 L82.6268657,60.2970297 L82.6268657,60.2978911 Z" id="Fill-53" fill="#029C86" mask="url(#mask-4)"></path>
                    <path d="M103.283582,93.0714323 L103.471214,93.0714323 C103.377398,93.0714323 103.377398,92.9775413 103.283582,93.0714323" id="Fill-54" fill="#029C86" mask="url(#mask-4)"></path>
                    <path d="M60.5290254,143.40334 C60.1381716,144.154051 59.6087511,144.717705 58.9393304,145.093309 C58.2703876,145.469908 57.5077927,145.625622 56.6505903,145.559456 C55.7924321,145.493787 54.9003491,145.198777 53.9714741,144.676414 C53.1974117,144.239619 52.5772061,143.816256 52.1113352,143.40732 C51.6454643,142.998385 51.2015729,142.492936 50.7810945,141.891473 L52.2967279,138.97619 C52.7296295,139.634367 53.2227359,140.235333 53.7765251,140.779586 C54.3298364,141.323838 54.8774139,141.748694 55.4187798,142.053654 C55.8851285,142.316328 56.2707263,142.425278 56.5765287,142.379509 C56.8808977,142.33374 57.1021267,142.178026 57.2402156,141.913362 C57.3267004,141.747699 57.3582362,141.578055 57.3348232,141.403934 C57.3123659,141.230808 57.2368709,141.02634 57.1097717,140.789536 C56.981717,140.553229 56.6008974,140.003504 55.9673129,139.139366 C55.3953668,138.352339 55.0073799,137.684212 54.8038302,137.132995 C54.6002804,136.582773 54.5200073,136.038023 54.5639664,135.498248 C54.6074477,134.95897 54.7851953,134.391336 55.0952981,133.795344 C55.6748893,132.679975 56.5168017,132.030255 57.6210352,131.845687 C58.7252687,131.661119 59.9585127,131.953144 61.3212448,132.721764 C62.525342,133.400339 63.60234,134.382381 64.5522388,135.667394 L62.275444,137.650881 C61.4583781,136.519094 60.6551689,135.730575 59.8643828,135.284825 C59.4558499,135.054488 59.1209006,134.961458 58.8576239,135.006232 C58.5943471,135.050508 58.4056096,135.183337 58.2899781,135.404222 C58.1671793,135.641524 58.1748243,135.920615 58.3124354,136.241496 C58.4505243,136.562376 58.9135284,137.265327 59.700014,138.351842 C60.4578307,139.386121 60.8921658,140.282595 61.0015857,141.04027 C61.1114835,141.797945 60.9538041,142.585967 60.5290254,143.40334" id="Fill-55" fill="#029C86" mask="url(#mask-4)"></path>
                    <path d="M74.6423833,140.047751 C73.8060223,139.848519 73.0702762,140.034277 72.4370798,140.605023 C71.8038835,141.17577 71.3433771,142.060764 71.0550768,143.259525 C70.4557412,145.752332 71.1087703,147.225879 73.0151315,147.678722 C73.5907646,147.816837 74.1683325,147.869292 74.7468679,147.838493 C75.3254033,147.807213 75.9145807,147.745133 76.5148837,147.650329 L75.8033238,150.609454 C74.6017503,150.829861 73.3150412,150.776443 71.9441638,150.450165 C69.9783044,149.982403 68.6074271,149.056503 67.8329829,147.673429 C67.0570876,146.289392 66.927933,144.52614 67.4431004,142.381749 C67.7657451,141.040543 68.3026802,139.92263 69.0548729,139.027048 C69.8070657,138.132429 70.7242087,137.524627 71.8092045,137.205086 C72.8937165,136.885544 74.0802945,136.878807 75.3684548,137.185836 C76.7756116,137.520296 78.047809,138.144941 79.1840796,139.057847 L77.4436362,141.557872 C77.0165068,141.2186 76.5806703,140.915421 76.1370943,140.646891 C75.6925508,140.378842 75.1952812,140.179129 74.6423833,140.047751" id="Fill-56" fill="#029C86" mask="url(#mask-4)"></path>
                    <path d="M88.3688834,144.821112 L89.0576998,144.795066 C89.6256446,144.773934 90.0701892,144.602424 90.3928506,144.279553 C90.7160178,143.957173 90.8662223,143.523238 90.8449812,142.977748 C90.8080623,142.060735 90.2674274,141.621394 89.2215592,141.660709 L88.2449773,141.697566 L88.3688834,144.821112 Z M94.6708964,142.816067 C94.7310793,144.335085 94.3163734,145.524843 93.4277901,146.386816 C92.538701,147.248298 91.2460322,147.711227 89.5497838,147.775113 L88.487732,147.814428 L88.6662579,152.323814 L84.8873764,152.465347 L84.3482587,138.872811 L89.1891919,138.691473 C90.9557381,138.625621 92.2979692,138.951441 93.2143682,139.667949 C94.1302615,140.384458 94.6162766,141.433667 94.6708964,142.816067 Z" id="Fill-57" fill="#029C86" mask="url(#mask-4)"></path>
                    <polygon id="Fill-58" fill="#029C86" mask="url(#mask-4)" points="101.995824 149.881188 98.119403 137.165949 101.489917 136.09901 104.520642 146.039149 109.323458 144.517631 110.169154 147.291768"></polygon>
                    <polygon id="Fill-59" fill="#029C86" mask="url(#mask-4)" points="128.243781 138.180665 125.16118 140.250364 122.11002 135.538773 118.546484 137.931081 121.597153 142.643172 118.514553 144.712871 111.029851 133.154968 114.11196 131.085269 116.887529 135.370216 120.451065 132.977908 117.675987 128.692961 120.759079 126.623762"></polygon>
                    <path d="M42.9521377,48.8517031 C43.661395,49.3295657 44.1667848,49.9278693 44.4667971,50.6480765 C44.7668094,51.366821 44.8332551,52.1572448 44.6676443,53.0203232 C44.5010267,53.8819388 44.1008425,54.7562324 43.4665883,55.6402783 C42.9370364,56.3785273 42.4391972,56.9612272 41.973574,57.3898407 C41.5079509,57.817479 40.9481964,58.2124471 40.2943105,58.5742574 L37.5393317,56.7203454 C38.2511059,56.3526837 38.9140525,55.9172436 39.5251514,55.4154878 C40.1372571,54.9127568 40.6285524,54.4041744 40.9980307,53.8887654 C41.3171713,53.4440606 41.4717078,53.0642086 41.4611369,52.7496969 C41.450566,52.4356729 41.3201915,52.1943035 41.0700135,52.0251011 C40.9129601,51.9202639 40.7463425,51.869552 40.5696574,51.8734529 C40.3919655,51.878329 40.1770238,51.9324543 39.9248323,52.035341 C39.6726407,52.139203 39.075133,52.465905 38.1313023,53.0154471 C37.2740524,53.5098886 36.5562377,53.8307393 35.978865,53.9775114 C35.4009889,54.1242835 34.8442547,54.1467137 34.3066487,54.0428518 C33.7700495,53.9404526 33.2193558,53.6990832 32.6560777,53.3192312 C31.6020076,52.6097514 31.0467835,51.6857211 30.9899019,50.546165 C30.9335238,49.4061213 31.3709578,48.1861087 32.3032108,46.8880777 C33.1257278,45.7402321 34.2391963,44.7557376 35.6426096,43.9306931 L37.3717074,46.4555632 C36.1384353,47.1611421 35.2509828,47.890614 34.71086,48.6430039 C34.4314861,49.0326082 34.2990981,49.3632112 34.3131926,49.6353003 C34.3267838,49.9069018 34.4385333,50.1126753 34.6469312,50.253596 C34.8709336,50.4042691 35.1528244,50.4266993 35.4915967,50.3213745 C35.830369,50.2165373 36.591474,49.8240073 37.7754152,49.144272 C38.903985,48.4869671 39.8558697,48.145149 40.6310693,48.1154045 C41.4062689,48.0871228 42.1799583,48.3328808 42.9521377,48.8517031" id="Fill-60" fill="#029C86" mask="url(#mask-4)"></path>
                    <polygon id="Fill-61" fill="#029C86" mask="url(#mask-4)" points="47.7220944 49.0990099 38.7313433 38.719059 41.4118788 36.1782178 48.4409675 44.293627 52.2627019 40.6713723 54.2238806 42.9364201"></polygon>
                    <polygon id="Fill-62" fill="#029C86" mask="url(#mask-4)" points="62.8308458 37.8146355 59.5679355 39.6237624 54.3492748 30.2226835 51.4006816 31.8578271 49.920398 29.1917453 59.072512 24.1188119 60.5522967 26.7848937 57.6116861 28.4150521"></polygon>
                    <path d="M73.6264771,27.8676929 L72.5457147,25.8560676 C72.2995489,25.4106188 71.9913683,24.8318784 71.6206995,24.1188663 C71.2495573,23.4058542 70.994397,22.8927795 70.855692,22.5786622 C70.8788884,22.89817 70.9006646,23.4283962 70.9210206,24.1703208 C70.9409032,24.9112653 70.9427968,26.3833536 70.926228,28.5836452 L73.6264771,27.8676929 Z M76.2935885,32.8876901 L75.0589725,30.59086 L70.9352225,31.6846353 L70.9020848,34.3176347 L67.1343284,35.3168317 L68.0101104,21.0252269 L72.5859533,19.8118812 L80.0447761,31.8933935 L76.2935885,32.8876901 Z" id="Fill-63" fill="#029C86" mask="url(#mask-4)"></path>
                    <path d="M104.407037,34.4554455 L94.6766169,32.1023406 L95.2685475,29.7789049 L99.3641482,27.3440882 C100.542519,26.6174369 101.319116,26.114034 101.695436,25.8353384 C102.071257,25.5561565 102.348257,25.3056709 102.524938,25.0824226 C102.702118,24.8596607 102.825395,24.6111207 102.895269,24.3363162 C102.981613,23.9973096 102.936195,23.7020771 102.760512,23.4501324 C102.58433,23.1981877 102.291859,23.0235774 101.8816,22.9248424 C101.460361,22.8222162 101.003686,22.837294 100.512573,22.9686165 C100.021461,23.0994527 99.4455012,23.3285375 98.784196,23.6553846 L97.372746,20.9044211 C98.2172203,20.4700841 98.9069742,20.1802018 99.444503,20.0352606 C99.9810337,19.8898331 100.543517,19.8144443 101.131954,19.8120124 C101.719393,19.8081213 102.358738,19.8908059 103.049989,20.0576341 C103.91842,20.2677501 104.655588,20.6038385 105.260995,21.066872 C105.866401,21.529419 106.28764,22.0824327 106.523214,22.7244539 C106.759288,23.3655024 106.789234,24.0294106 106.615048,24.7147196 C106.484784,25.226391 106.298121,25.6845607 106.056058,26.0882558 C105.813497,26.4909782 105.50156,26.8688952 105.11975,27.223466 C104.737441,27.5765777 104.259304,27.9301757 103.68584,28.2852329 C103.111378,28.6398037 101.916537,29.2866886 100.100318,30.2263742 L100.07736,30.3153817 L105.148698,31.5420312 L104.407037,34.4554455 Z" id="Fill-64" fill="#029C86" mask="url(#mask-4)"></path>
                    <path d="M112.94104,31.311309 C112.251174,32.6890332 111.860957,33.6801234 111.769424,34.2855696 C111.678374,34.8915109 111.830607,35.297947 112.22516,35.5068581 C112.625012,35.7182445 113.040762,35.6014126 113.472891,35.1548775 C113.905503,34.7088374 114.457588,33.8137869 115.130592,32.468736 C115.806969,31.1187345 116.196704,30.1286344 116.30028,29.4984357 C116.403375,28.8677419 116.258368,28.4484346 115.863333,28.2395234 C115.469262,28.0306123 115.057366,28.1439788 114.628127,28.5771476 C114.198888,29.0113065 113.636686,29.9217035 112.94104,31.311309 M118.31833,34.1538863 C117.238729,36.3103243 116.096982,37.702405 114.891644,38.3340889 C113.686306,38.9662678 112.359568,38.8984459 110.910465,38.1316134 C109.494602,37.3835928 108.688635,36.2944827 108.494008,34.8677485 C108.299381,33.4395291 108.718985,31.6924975 109.754265,29.6261586 C110.839166,27.4593246 111.986212,26.0563527 113.194922,25.4172431 C114.404114,24.7771434 115.733261,24.8400148 117.182846,25.6068473 C118.592927,26.3518976 119.396004,27.4429879 119.591113,28.8766528 C119.785258,30.3113079 119.360836,32.0702207 118.31833,34.1538863" id="Fill-65" fill="#029C86" mask="url(#mask-4)"></path>
                    <path d="M123.222628,47.3762376 L120.497512,44.9017333 L124.97917,39.2964082 C125.522873,38.6149647 126.03451,38.0048818 126.513138,37.4646518 C126.171733,37.5294794 125.781757,37.5676724 125.343682,37.5777232 L123.422567,37.5460632 L123.487642,34.4554455 L129.267491,34.5911312 L131.686567,36.7877312 L123.222628,47.3762376 Z" id="Fill-66" fill="#029C86" mask="url(#mask-4)"></path>
                    <polygon id="Fill-67" fill="#029C86" mask="url(#mask-4)" points="127.383085 51.218463 138.861474 48.7245611 135.293304 44.0068972 137.78987 42.2079208 143.736318 50.0703677 141.957496 51.3530437 129.688687 54.2673267"></polygon>
                </g>
            </g>
        </g>
    </g>
</svg>