<?xml version="1.0" encoding="UTF-8"?>
<svg width="178px" height="46px" viewBox="0 0 178 46" version="1.1" xmlns="http://www.w3.org/2000/svg" xmlns:xlink="http://www.w3.org/1999/xlink">
    <!-- Generator: Sketch 52.5 (67469) - http://www.bohemiancoding.com/sketch -->
    <title>Group</title>
    <desc>Created with Sketch.</desc>
    <g id="Symbols" stroke="none" stroke-width="1" fill="none" fill-rule="evenodd">
        <g id="Header---Learner" transform="translate(-25.000000, -17.000000)">
            <g id="Group" transform="translate(25.000000, 17.000000)">
                <g id="Page-1" fill="#231F20">
                    <g id="Group-32">
                        <path d="M26.2673635,25.3817245 L29.4460904,16.5714007 L32.7392269,25.3817245 L26.2673635,25.3817245 Z M23.0638948,0.0344007194 C13.8312565,0.0344007194 5.85264022,5.4706741 2.17077675,13.2976237 L4.17352583,13.2976237 C7.7159059,6.48929281 14.8511458,1.82343669 23.0638948,1.82343669 C34.7914594,1.82343669 44.3324557,11.3308755 44.3324557,23.0171921 C44.3324557,26.4858899 43.4802786,29.7773719 41.9912934,32.6704079 L40.6974188,32.6704079 C39.4497066,32.5729475 38.9088764,31.9306022 38.6382122,31.2204151 L32.3521605,14.8189331 L32.3674373,14.8138036 L32.3501679,14.8138036 L29.6445221,14.8138036 L24.6726033,28.5082353 C24.6726033,28.5082353 20.5111827,15.3300626 20.348286,14.8138036 L16.8098911,14.8138036 L18.0024742,18.6741633 L15.3519576,28.4801058 L10.085131,14.8138036 L5.63843358,14.8138036 L5.14708672,14.8138036 L3.45435609,14.8138036 L1.94395018,14.8138036 L1.52450369,14.8138036 C0.543138376,17.3634942 -1.66051661e-05,20.1276309 -1.66051661e-05,23.0171921 C-1.66051661e-05,35.6898612 10.3464963,45.9999835 23.0638948,45.9999835 C31.5542823,45.9999835 38.9826033,41.4011417 42.9862749,34.5756022 L40.8774188,34.5756022 C37.0776587,40.3706094 30.5143007,44.2109475 23.0638948,44.2109475 C11.3364963,44.2109475 1.7955,34.7035086 1.7955,23.0171921 C1.7955,20.2661273 2.33799077,17.6163288 3.29976199,15.2024871 L5.22712362,15.2024871 C6.60601661,15.2195302 6.90540775,15.8848755 7.19267712,16.6480122 L13.5808506,33.1011201 L14.5678616,33.1011201 L18.2356107,19.3787245 L22.5238948,33.1011201 L23.482179,33.1011201 L26.1303708,25.7616381 L32.9203893,25.7669331 L35.6567546,33.0590914 L36.1286734,33.0590914 L39.7193745,33.0590914 L40.980869,33.0590914 L41.7883782,33.0590914 L43.597345,33.0590914 L43.8052417,33.0590914 C45.2915701,30.0234223 46.1278063,26.6161129 46.1278063,23.0171921 C46.1278063,10.344523 35.7812934,0.0344007194 23.0638948,0.0344007194 Z" id="Fill-31"></path>
                    </g>
                </g>
                <g id="applogo" transform="translate(60.000000, 10.000000)" fill="#000000">
                    <path d="M117.616108,23.8637927 C117.423082,24.2875927 117.154318,24.6437927 116.808865,24.9314473 C116.463649,25.2195745 116.05148,25.4396291 115.572595,25.5911382 C115.09371,25.7426473 114.562829,25.8187564 113.979951,25.8187564 C113.161786,25.8187564 112.359766,25.6750473 111.572941,25.3866836 C110.785167,25.0992655 110.070044,24.6567927 109.425674,24.0602109 L110.821255,22.3484655 C111.311774,22.7566655 111.815114,23.0811927 112.331513,23.3218109 C112.847436,23.5631382 113.412744,23.6829745 114.026249,23.6829745 C114.516531,23.6829745 114.89736,23.5917382 115.168261,23.4085564 C115.4394,23.2253745 115.574732,22.97152 115.574732,22.6467564 L115.574732,22.6155564 C115.574732,22.4583745 115.546478,22.3198655 115.490446,22.19932 C115.433702,22.0790109 115.326148,21.9662655 115.167549,21.8615564 C115.008474,21.7570836 114.788144,21.6526109 114.506084,21.5474291 C114.224499,21.4429564 113.857915,21.3332836 113.406808,21.2179382 C112.863344,21.0817927 112.371875,20.9302836 111.930977,20.7624655 C111.49008,20.5948836 111.116136,20.3883018 110.808197,20.1420109 C110.500969,19.8961927 110.262595,19.5898655 110.093311,19.2235018 C109.924503,18.8571382 109.839979,18.4019018 109.839979,17.8570836 L109.839979,17.8258836 C109.839979,17.3236109 109.931151,16.8705018 110.113967,16.4675018 C110.296784,16.0647382 110.553203,15.7163382 110.883698,15.4234836 C111.213243,15.1306291 111.607605,14.9051382 112.065835,14.7481927 C112.523827,14.5910109 113.029303,14.5125382 113.581553,14.5125382 C114.368378,14.5125382 115.09181,14.6326109 115.751376,14.8734655 C116.410466,15.11432 117.016374,15.46012 117.568386,15.90992 L116.341376,17.7318109 C115.860829,17.3966473 115.390965,17.1323927 114.930837,16.9388109 C114.470708,16.7452291 114.010816,16.64832 113.550688,16.64832 C113.090559,16.64832 112.745819,16.7400291 112.515517,16.9227382 C112.28569,17.1063927 112.170539,17.3337745 112.170539,17.6060655 L112.170539,17.6375018 C112.170539,17.8154836 112.203778,17.9700655 112.270495,18.1005382 C112.337448,18.2319564 112.457348,18.3496655 112.631855,18.4541382 C112.805887,18.5588473 113.044261,18.65812 113.34674,18.7521927 C113.649219,18.8462655 114.03076,18.9566473 114.492313,19.0823927 C115.035778,19.2289382 115.519887,19.3936836 115.945352,19.5766291 C116.370579,19.7600473 116.729328,19.9798655 117.021597,20.2365564 C117.313867,20.4930109 117.533959,20.7936655 117.68235,21.1392291 C117.830977,21.4850291 117.906004,21.8984291 117.906004,22.3796655 L117.906004,22.4111018 C117.906004,22.9554473 117.808897,23.43952 117.616108,23.8637927 Z M105.715203,25.6618109 L100.516555,18.6741927 L100.516555,25.6618109 L98.1855207,25.6618109 L98.1855207,14.66972 L100.363179,14.66972 L105.39278,21.4377564 L105.39278,14.66972 L107.723814,14.66972 L107.723814,25.6618109 L105.715203,25.6618109 Z M93.7694241,20.1656473 C93.7694241,19.6943382 93.6903618,19.2497382 93.5319996,18.8309018 C93.3734,18.4123018 93.148559,18.0459382 92.857239,17.7318109 C92.5656817,17.41792 92.2204664,17.1690291 91.822068,16.9858473 C91.4234322,16.8026655 90.9887078,16.71072 90.5186072,16.71072 C90.03806,16.71072 89.6007239,16.7998291 89.2077863,16.9778109 C88.8136616,17.1557927 88.4765187,17.4016109 88.1956455,17.7157382 C87.9138225,18.0298655 87.6942048,18.3938655 87.5358427,18.8072655 C87.3777179,19.2206655 87.2984181,19.6631382 87.2984181,20.1344473 L87.2984181,20.1656473 C87.2984181,20.6369564 87.3777179,21.0817927 87.5358427,21.5003927 C87.6942048,21.9189927 87.9192833,22.2853564 88.2103658,22.5994836 C88.5019231,22.9133745 88.8445268,23.1627382 89.2381767,23.3454473 C89.6318266,23.5291018 90.0686877,23.6205745 90.549235,23.6205745 C91.0193356,23.6205745 91.4538225,23.5314655 91.8524584,23.3534836 C92.251569,23.1755018 92.5910861,22.9296836 92.8721968,22.6155564 C93.1535449,22.3014291 93.3734,21.9379018 93.5319996,21.5240291 C93.6903618,21.1106291 93.7694241,20.6681564 93.7694241,20.1968473 L93.7694241,20.1656473 Z M95.808901,22.3718655 C95.522567,23.0577927 95.1263054,23.6595745 94.6205911,24.17792 C94.114402,24.6960291 93.5113437,25.1042291 92.8111787,25.4027564 C92.1107763,25.7008109 91.3467441,25.8501927 90.5186072,25.8501927 C89.6904704,25.8501927 88.9285751,25.7008109 88.2336334,25.4027564 C87.5384543,25.1042291 86.9380076,24.7017018 86.4318185,24.19352 C85.9258668,23.6858109 85.5319795,23.0892291 85.2513437,22.4030655 C84.9699956,21.7180836 84.8294402,20.98252 84.8294402,20.1968473 L84.8294402,20.1656473 C84.8294402,19.3804473 84.9728447,18.6453564 85.2587038,17.9594291 C85.5448004,17.2735018 85.941062,16.67172 86.4472511,16.1533745 C86.9532028,15.6352655 87.5562612,15.2270655 88.2566636,14.9285382 C88.957066,14.6304836 89.7210982,14.4813382 90.549235,14.4813382 C91.3773718,14.4813382 92.1385549,14.6304836 92.8342089,14.9285382 C93.5293879,15.2270655 94.1298346,15.6300655 94.6360237,16.1377745 C95.1419755,16.6459564 95.5353879,17.2425382 95.816736,17.9282291 C96.0978467,18.6136836 96.238402,19.3487745 96.238402,20.1344473 L96.238402,20.1656473 C96.238402,20.9508473 96.0949976,21.6864109 95.808901,22.3718655 Z M80.4133437,25.6620473 L82.7747682,25.6620473 L82.7747682,14.66972 L80.4133437,14.66972 L80.4133437,25.6620473 Z M75.3837421,16.8991018 L75.3837421,25.6618109 L73.0220801,25.6618109 L73.0220801,16.8991018 L69.7558306,16.8991018 L69.7558306,14.66972 L78.6499915,14.66972 L78.6499915,16.8991018 L75.3837421,16.8991018 Z M63.3002571,17.49592 L61.8740479,21.0607564 L64.726229,21.0607564 L63.3002571,17.49592 Z M66.551074,25.6618109 L65.569561,23.1963018 L61.0309533,23.1963018 L60.0492028,25.6618109 L57.6417179,25.6618109 L62.2422934,14.5910109 L64.4194765,14.5910109 L69.0200519,25.6618109 L66.551074,25.6618109 Z M55.9707239,24.7040655 C55.6739433,24.9444473 55.3493839,25.1512655 54.9972833,25.3242836 C54.644233,25.4968291 54.2584181,25.6280109 53.8391264,25.7168836 C53.4198346,25.80552 52.9499714,25.8501927 52.4285871,25.8501927 C51.6410499,25.8501927 50.9102571,25.7036473 50.2354966,25.41032 C49.560736,25.1174655 48.9780962,24.7170655 48.4878145,24.20912 C47.9968205,23.7014109 47.6136173,23.1017564 47.3372551,22.4111018 C47.0613678,21.7204473 46.9234241,20.98252 46.9234241,20.1968473 L46.9234241,20.1656473 C46.9234241,19.3804473 47.0613678,18.6453564 47.3372551,17.9594291 C47.6136173,17.2735018 47.9968205,16.67172 48.4878145,16.1533745 C48.9780962,15.6352655 49.5661968,15.2270655 50.2511666,14.9285382 C50.935899,14.6304836 51.692571,14.4813382 52.5207078,14.4813382 C53.0211988,14.4813382 53.4787159,14.5229382 53.8930217,14.6068473 C54.3070901,14.69052 54.6829332,14.8056291 55.0200761,14.9521745 C55.3574563,15.0989564 55.6691948,15.2769382 55.9552913,15.48612 C56.2413879,15.6955382 56.5075408,15.9259927 56.7528004,16.1770109 L55.249903,17.9516291 C54.8310861,17.5642291 54.4037219,17.2605018 53.9697099,17.0406836 C53.5349855,16.8211018 53.0468406,16.71072 52.5052753,16.71072 C52.0548809,16.71072 51.6389131,16.7998291 51.255235,16.9778109 C50.8717944,17.1557927 50.5424865,17.4016109 50.2665992,17.7157382 C49.990237,18.0298655 49.7758427,18.3938655 49.622229,18.8072655 C49.4688527,19.2206655 49.3921646,19.6631382 49.3921646,20.1344473 L49.3921646,20.1656473 C49.3921646,20.6369564 49.4688527,21.0817927 49.622229,21.5003927 C49.7758427,21.9189927 49.9873879,22.2853564 50.2585268,22.5994836 C50.5294282,22.9133745 50.8568366,23.1627382 51.2402773,23.3454473 C51.6234805,23.5291018 52.0453839,23.6205745 52.5052753,23.6205745 C53.1185429,23.6205745 53.6370781,23.5049927 54.0613557,23.2747745 C54.4856334,23.0445564 54.9072994,22.7309018 55.3265911,22.3323927 L56.8294885,23.8874291 C56.5536012,24.1911564 56.2667924,24.4632109 55.9707239,24.7040655 Z M42.5070901,25.6620473 L44.8685147,25.6620473 L44.8685147,14.66972 L42.5070901,14.66972 L42.5070901,25.6620473 Z M33.0609171,25.6618109 L33.0609171,14.66972 L35.4225791,14.66972 L35.4225791,23.4792291 L40.7743658,23.4792291 L40.7743658,25.6618109 L33.0609171,25.6618109 Z M29.0738467,18.5167745 C29.0738467,17.9724291 28.902901,17.5590291 28.5602974,17.2765745 C28.2179312,16.9934109 27.7502048,16.8520655 27.1573557,16.8520655 L25.3325107,16.8520655 L25.3325107,20.2131564 L27.2031787,20.2131564 C27.7960278,20.2131564 28.2559191,20.0533745 28.5830901,19.7335745 C28.9104986,19.4149564 29.0738467,19.0192836 29.0738467,18.5484473 L29.0738467,18.5167745 Z M31.129231,20.1814836 C30.9039151,20.6631927 30.5945509,21.0661927 30.200901,21.39072 C29.8074885,21.7150109 29.3478346,21.9584655 28.8209895,22.1206109 C28.2943819,22.2832291 27.7297863,22.3640655 27.126728,22.3640655 L25.3325107,22.3640655 L25.3325107,25.6618109 L22.9708487,25.6618109 L22.9708487,14.66972 L27.3565549,14.66972 C28.0009252,14.66972 28.57573,14.7611927 29.0819191,14.9446109 C29.5876334,15.1277927 30.0171344,15.3868473 30.3699473,15.7215382 C30.7225227,16.0569382 30.9934241,16.4571018 31.1826515,16.9227382 C31.371404,17.3888473 31.4663738,17.90412 31.4663738,18.4697382 L31.4663738,18.5014109 C31.4663738,19.1398291 31.3538346,19.7002473 31.129231,20.1814836 Z M18.9840157,18.5167745 C18.9840157,17.9724291 18.8128326,17.5590291 18.470229,17.2765745 C18.1278628,16.9934109 17.6601364,16.8520655 17.0672873,16.8520655 L15.2424423,16.8520655 L15.2424423,20.2131564 L17.1131103,20.2131564 C17.7061968,20.2131564 18.1658507,20.0533745 18.4932592,19.7335745 C18.8204302,19.4149564 18.9840157,19.0192836 18.9840157,18.5484473 L18.9840157,18.5167745 Z M21.0391626,20.1814836 C20.8140841,20.6631927 20.5044825,21.0661927 20.11107,21.39072 C19.7176575,21.7150109 19.2577662,21.9584655 18.7311586,22.1206109 C18.2045509,22.2832291 17.6399553,22.3640655 17.0366596,22.3640655 L15.2424423,22.3640655 L15.2424423,25.6618109 L12.8810177,25.6618109 L12.8810177,14.66972 L17.2667239,14.66972 C17.9108567,14.66972 18.4856616,14.7611927 18.9918507,14.9446109 C19.4978024,15.1277927 19.927066,15.3868473 20.2798789,15.7215382 C20.6324543,16.0569382 20.9033557,16.4571018 21.0925831,16.9227382 C21.2813356,17.3888473 21.3765429,17.90412 21.3765429,18.4697382 L21.3765429,18.5014109 C21.3765429,19.1398291 21.2637662,19.7002473 21.0391626,20.1814836 Z M5.6588004,17.49592 L4.23235372,21.0607564 L7.08477223,21.0607564 L5.6588004,17.49592 Z M8.90937988,25.6618109 L7.9278668,23.1963018 L3.38902173,23.1963018 L2.40750865,25.6618109 L2.37424546e-05,25.6618109 L4.6005992,14.5910109 L6.77778229,14.5910109 L11.3785952,25.6618109 L8.90937988,25.6618109 Z M104.786635,11.1341927 L104.786635,0.0792290909 L107.148297,0.0792290909 L107.148297,8.93908364 L112.500084,8.93908364 L112.500084,11.1341927 L104.786635,11.1341927 Z M94.6657018,11.1341927 L94.6657018,0.0792290909 L102.746921,0.0792290909 L102.746921,2.24290182 L96.996736,2.24290182 L96.996736,4.48552 L102.056728,4.48552 L102.056728,6.64872 L96.996736,6.64872 L96.996736,8.97028364 L102.823847,8.97028364 L102.823847,11.1341927 L94.6657018,11.1341927 Z M90.52573,7.77026545 C90.52573,7.40201091 90.3877863,7.10962909 90.111899,6.89359273 C89.8360117,6.67826545 89.3910781,6.57024727 88.7778105,6.57024727 L86.0481404,6.57024727 L86.0481404,9.00219273 L88.8542612,9.00219273 C89.3758829,9.00219273 89.784728,8.90504727 90.0807964,8.71004727 C90.3775771,8.51504727 90.52573,8.21250182 90.52573,7.80193818 L90.52573,7.77026545 Z M89.9281324,3.34837455 C89.9281324,2.98012 89.7949372,2.69813818 89.5292592,2.50361091 C89.2628688,2.30884727 88.8796656,2.21146545 88.3789372,2.21146545 L86.0481404,2.21146545 L86.0481404,4.54839273 L88.2257984,4.54839273 C88.7469453,4.54839273 89.1612511,4.45668364 89.4675288,4.27232 C89.7745187,4.08819273 89.9281324,3.79061091 89.9281324,3.38004727 L89.9281324,3.34837455 Z M92.5732793,9.42882909 C92.3847642,9.80772 92.1141002,10.1235018 91.7619996,10.3761745 C91.4096616,10.6288473 90.986571,10.8184109 90.4913034,10.9448655 C89.9965107,11.0710836 89.4478225,11.1341927 88.8454765,11.1341927 L83.7479714,11.1341927 L83.7479714,0.0792290909 L88.7232028,0.0792290909 C89.8248527,0.0792290909 90.6893155,0.337338182 91.317066,0.852847273 C91.9445791,1.36930182 92.2584543,2.06421091 92.2584543,2.93781091 L92.2584543,2.96972 C92.2584543,3.28502909 92.2204664,3.56417455 92.1444905,3.80644727 C92.0680398,4.04872 91.966897,4.26712 91.8396374,4.46164727 C91.7123779,4.65641091 91.5656495,4.82801091 91.3975529,4.97526545 C91.2301686,5.12252 91.049726,5.24897455 90.8569372,5.35392 C91.4778024,5.59666545 91.9664221,5.92497455 92.3223215,6.34097455 C92.6786958,6.75721091 92.8567642,7.33346545 92.8567642,8.07068364 L92.8567642,8.10164727 C92.8567642,8.60699273 92.7620318,9.04946545 92.5732793,9.42882909 Z M76.5259915,2.92150182 L75.0995449,6.50666545 L77.951726,6.50666545 L76.5259915,2.92150182 Z M79.776571,11.1341927 L78.7948205,8.65450182 L74.2562129,8.65450182 L73.2744624,11.1341927 L70.8672149,11.1341927 L75.4677903,4.72727273e-05 L77.644736,4.72727273e-05 L82.2455489,11.1341927 L79.776571,11.1341927 Z M62.4486153,11.1341927 L62.4486153,0.0792290909 L64.8100398,0.0792290909 L64.8100398,8.93908364 L70.1618266,8.93908364 L70.1618266,11.1341927 L62.4486153,11.1341927 Z M44.2550097,11.1341927 L44.2550097,0.0792290909 L52.336229,0.0792290909 L52.336229,2.24290182 L46.5860439,2.24290182 L46.5860439,4.48552 L51.6460358,4.48552 L51.6460358,6.64872 L46.5860439,6.64872 L46.5860439,8.97028364 L52.4131545,8.97028364 L52.4131545,11.1341927 L44.2550097,11.1341927 Z M39.3327239,2.32161091 L39.3327239,11.1341927 L36.9712994,11.1341927 L36.9712994,2.32161091 L33.7050499,2.32161091 L33.7050499,0.0792290909 L42.5989734,0.0792290909 L42.5989734,2.32161091 L39.3327239,2.32161091 Z M29.5802732,11.1341927 L31.9416978,11.1341927 L31.9416978,0.0792290909 L29.5802732,0.0792290909 L29.5802732,11.1341927 Z M24.6886153,11.1341927 L24.6886153,6.69622909 L20.3335368,6.69622909 L20.3335368,11.1341927 L17.9718748,11.1341927 L17.9718748,0.0792290909 L20.3335368,0.0792290909 L20.3335368,4.45384727 L24.6886153,4.45384727 L24.6886153,0.0792290909 L27.0498024,0.0792290909 L27.0498024,11.1341927 L24.6886153,11.1341927 Z M12.7124463,11.2133745 L10.6577742,11.2133745 L8.23461932,3.98017455 L5.81170181,11.2133745 L3.75702978,11.2133745 L0.0919070423,0.0792290909 L2.62237787,0.0792290909 L4.84609618,7.56533818 L7.25310624,0.04732 L9.27738793,0.04732 L11.6848728,7.56533818 L13.9083537,0.0792290909 L16.377569,0.0792290909 L12.7124463,11.2133745 Z" id="Fill-1"></path>
                </g>
            </g>
        </g>
    </g>
</svg>