<?xml version="1.0" encoding="UTF-8"?>
<svg width="125px" height="38px" viewBox="0 0 125 38" version="1.1" xmlns="http://www.w3.org/2000/svg" xmlns:xlink="http://www.w3.org/1999/xlink">
    <!-- Generator: sketchtool 40.3 (33839) - http://www.bohemiancoding.com/sketch -->
    <title>AA58DEBB-3BCC-4A8D-99A2-F71FF175AA73</title>
    <desc>Created with sketchtool.</desc>
    <defs></defs>
    <g id="Page-1" stroke="none" stroke-width="1" fill="none" fill-rule="evenodd">
        <g id="Full-width---1440---Side-Panel-Open---Secondary-Settings-and-Options" transform="translate(-30.000000, -21.000000)">
            <g id="Pearson_logo-Copy-40" transform="translate(30.000000, 21.000000)">
                <g id="logo">
                    <path d="M78.0375096,26.5686372 C77.9909699,26.4477115 77.8626705,26.3778986 77.7368865,26.4065718 L77.6978936,26.4177917 C77.3255744,26.4975778 77.0387872,26.4751379 76.8375333,26.3404989 C76.5520045,26.1497603 76.4136423,25.7184167 76.4136423,25.0227818 L76.4136423,18.7358872 C76.4136423,16.2799717 74.9369417,15.0345607 72.0212763,15.0345607 C69.4112647,15.0345607 67.3660218,16.2587785 67.3660218,17.8220872 C67.3660218,18.6261814 67.8603519,19.2071238 68.5898974,19.2943899 C69.0666173,19.3517361 69.5219545,19.137311 69.8515077,18.7919868 C70.4930045,18.121285 70.4112449,17.3221774 69.6326442,16.4657236 C70.0930122,15.9882538 70.9080904,15.7065091 71.8376321,15.7065091 C73.3520673,15.7065091 73.9985955,16.5966227 73.9985955,18.6835276 L73.9985955,20.2730161 C73.6438859,20.3814753 73.3118167,20.4837012 72.7030237,20.6258202 C71.4766327,20.9113048 69.7936468,21.2915354 68.5244897,21.9859237 C67.4767115,22.5556463 66.9446468,23.4544864 66.9446468,24.6575111 C66.9446468,25.9677483 67.8125538,27.4973972 70.2577891,27.4973972 C71.6275731,27.4973972 72.8539641,26.8541218 74.113059,25.4728252 C74.2224904,26.9077281 74.7709077,27.4462843 76.1016987,27.4462843 C76.7419378,27.4462843 77.2538776,27.297932 77.8626705,27.0062141 C78.0274468,26.926428 78.1054327,26.736936 78.0375096,26.5686372 L78.0375096,26.5686372 L78.0375096,26.5686372 Z M73.9985955,24.6475378 C73.7017462,25.0576882 72.7306962,26.278166 71.5206571,26.278166 C69.8867269,26.278166 69.5433378,25.1412143 69.5433378,24.1875212 C69.5433378,22.6192258 70.7558923,21.8936711 73.9985955,21.0995502 L73.9985955,24.6475378 L73.9985955,24.6475378 Z M105.333827,27.5510035 C101.869744,27.5510035 99.2572173,24.8607163 99.2572173,21.2927821 C99.2572173,17.7996474 101.98295,14.9572679 105.333827,14.9572679 C108.726213,14.9572679 111.38528,17.6936814 111.38528,21.1893095 C111.38528,25.1187744 108.244462,27.5510035 105.333827,27.5510035 L105.333827,27.5510035 Z M105.203012,15.6279697 C103.706187,15.6279697 101.986723,16.2662584 101.986723,21.2404225 C101.986723,25.0352484 103.116261,26.879055 105.439485,26.879055 C107.662083,26.879055 108.654517,25.1412143 108.654517,21.2404225 C108.654517,17.4642964 107.524979,15.6279697 105.203012,15.6279697 L105.203012,15.6279697 Z M51.7789078,15.1816663 C51.7789078,18.0764054 51.0594251,19.6696338 47.3789945,19.6696338 L45.4280896,19.6696338 L45.4280896,10.925577 L47.4582382,10.925577 C51.2657103,10.925577 51.7789078,13.0773081 51.7789078,15.1816663 L51.7789078,15.1816663 Z M45.4280896,25.0227818 L45.4280896,20.473728 L47.1953503,20.473728 C49.8317763,20.473728 51.8367683,19.9214587 53.1562391,18.8306332 C54.5360862,17.6899414 54.8253886,16.2450652 54.8253886,15.2340259 C54.8253886,11.0751759 50.7764118,10.2025156 47.3789945,10.2025156 L47.3928307,10.2012689 L40.5036583,10.2012689 C40.3476865,10.2012689 40.220645,10.328428 40.220645,10.4817669 L40.220645,10.5004668 L40.220645,10.4954801 C40.220645,10.6375991 40.3074358,10.7647582 40.4432821,10.8133778 C41.0571065,11.0377762 42.7237403,10.7236185 42.7237403,12.495119 L42.7237403,25.0202885 C42.7237403,25.9315952 42.3162012,26.5748705 40.4533448,26.7494026 C40.3049201,26.7631158 40.1942304,26.882795 40.1942304,27.0274073 L40.1942304,27.0710403 C40.1942304,27.2256258 40.3200141,27.3502916 40.4759859,27.3502916 L47.8368471,27.3502916 C47.9928188,27.3502916 48.1198604,27.2256258 48.1198604,27.0710403 L48.1198604,27.0323939 C48.1198604,26.8877816 48.0041394,26.7656092 47.8557147,26.7531426 C45.8318552,26.5923237 45.4255738,25.9714882 45.4255738,25.0202885 L45.4255738,20.4824546 L45.4280896,25.0227818 L45.4280896,25.0227818 Z M60.396348,14.9510346 C57.1926376,14.9510346 54.5851418,17.8258272 54.5851418,21.3601016 C54.5851418,24.9380091 57.0291188,27.534797 60.396348,27.534797 C63.2252231,27.534797 64.6025545,25.8592891 65.3912179,24.6001649 C65.4692038,24.4754991 65.4352423,24.3109403 65.3144904,24.2249209 L65.2767551,24.1987411 C65.1547449,24.1127217 64.9849365,24.1376548 64.8905994,24.2548407 C63.850368,25.5476247 62.9396941,26.2956192 61.3673981,26.2956192 C59.378758,26.2956192 57.2542715,24.9380091 57.2542715,21.12573 L57.2542715,21.0983035 C57.2504981,20.9300047 57.2542715,20.699373 57.2605608,20.4837012 L65.3975071,20.4837012 C65.4201481,20.4837012 65.4377583,20.466248 65.439016,20.4438082 L65.4440474,20.378982 C65.5597679,18.81692 65.1132359,17.4119368 64.1874679,16.4258306 C63.2830836,15.4609176 61.9724176,14.9510346 60.396348,14.9510346 L60.396348,14.9510346 Z M57.3058429,19.6808537 C57.5737621,17.0728459 58.600157,15.6429296 60.2127038,15.6429296 C61.0189772,15.6429296 61.6177076,15.8648347 62.0403408,16.3211114 C62.6214614,16.9456868 62.8679974,18.0764054 62.771144,19.6808537 L57.3058429,19.6808537 L57.3058429,19.6808537 Z M94.1227276,19.8204794 L94.1202115,19.8204794 C91.8950981,19.2008905 91.0284487,18.5750684 91.0284487,17.5864689 C91.0284487,16.460737 91.9303179,15.6429296 93.1730603,15.6429296 C94.6346667,15.6429296 95.2610699,16.3360713 96.8044353,18.8929661 L96.8245609,18.9266259 C96.8321077,18.9403391 96.8459442,18.947819 96.8459442,18.947819 L97.0723545,18.947819 C97.2283263,18.947819 97.3553679,18.8219066 97.3553679,18.6673211 L97.3553679,14.9921743 C97.3553679,14.9697345 97.3365006,14.9510346 97.3365006,14.9510346 L97.0333615,14.9510346 C96.9490865,14.9510346 96.8685853,14.9884344 96.8157558,15.0532606 L96.322684,15.6466696 C95.7013128,15.3075787 94.6887538,14.9510346 93.6724218,14.9510346 C91.1164974,14.9510346 89.3316269,16.5155899 89.3316269,18.7570804 C89.3316269,20.8614385 90.7391462,21.6493262 93.1692872,22.3000815 C95.5302468,22.9408635 96.367966,23.6078253 96.367966,24.8457564 C96.367966,26.2233131 95.0220808,26.8416553 94.066125,26.8416553 C92.2875436,26.8416553 91.5366147,26.18716 89.8322462,23.1527953 L89.8121205,23.1166422 C89.8045737,23.102929 89.7907372,23.0942024 89.7907372,23.0942024 L89.5618109,23.0942024 C89.4058391,23.0942024 89.2787974,23.2213615 89.2787974,23.3747003 L89.2787974,27.4924106 C89.2787974,27.5160971 89.2976654,27.534797 89.3215641,27.534797 L89.6108667,27.534797 C89.6850788,27.534797 89.7580333,27.5048772 89.8108628,27.4525176 L90.5894635,26.6808364 C91.5013955,27.2418324 92.8648904,27.534797 93.7504077,27.534797 C95.079941,27.534797 96.1730013,27.1171666 96.9113519,26.3280323 C97.5704583,25.6236708 97.9327154,24.6263447 97.9327154,23.5193126 C97.9327154,21.6019532 96.9000314,20.5996404 94.1227276,19.8204794 L94.1227276,19.8204794 Z M80.657584,25.8730023 C80.657584,26.507551 80.4953231,26.7157428 79.4752173,26.7793224 C79.3267923,26.7892956 79.2110718,26.9114681 79.2110718,27.0585737 C79.2110718,27.2131592 79.3381128,27.337825 79.4940846,27.337825 L84.5292058,27.337825 C84.6826615,27.337825 84.8071878,27.2144059 84.8071878,27.0635603 C84.8071878,26.9139614 84.690209,26.7905423 84.5392686,26.784309 C83.3745115,26.7282094 83.0726308,26.5412108 83.0726308,25.8730023 L83.0726308,18.5551219 C83.9015449,17.1887851 84.4965019,16.4732036 85.5027712,16.2575318 C85.453716,16.4308172 85.4222699,16.6365157 85.4222699,16.8048145 C85.4222699,17.6936814 86.0486724,18.314517 86.9455103,18.314517 C87.8259962,18.314517 88.4423359,17.6936814 88.4423359,16.8048145 C88.4423359,15.9645673 87.9127865,14.9822011 86.4184769,14.9822011 C85.1946013,14.9822011 84.0248135,15.677836 83.0198013,17.342124 L83.0198013,15.4596709 C83.0198013,15.2676857 82.8600564,15.1131001 82.6663494,15.1180867 L79.4940846,15.2028595 C79.3393712,15.2078461 79.2198763,15.3300185 79.2198763,15.4821108 L79.2198763,15.5220038 C79.2198763,15.6603828 79.3205032,15.7788153 79.4550917,15.7975152 C80.5129327,15.9458674 80.6588417,16.4445305 80.657584,16.9618934 L80.657584,25.8730023 L80.657584,25.8730023 Z M115.483313,15.1106068 C115.556267,15.1106068 115.626706,15.1392799 115.678278,15.1903929 C115.73488,15.2427525 115.765068,15.3125653 115.766326,15.3898581 L115.776388,17.476763 C115.776388,17.476763 116.810331,15.0283274 120.163724,15.0283274 L120.193912,15.0283274 C122.284437,15.0283274 123.483155,16.3497845 123.483155,18.6536078 L123.483155,25.8617824 C123.483155,26.4963311 123.646674,26.7045229 124.665522,26.7681025 C124.813946,26.7768291 124.929667,26.8990015 124.929667,27.0473538 C124.929667,27.2006927 124.802626,27.3266051 124.647912,27.3266051 L120.123473,27.3266051 C119.967501,27.3266051 119.84046,27.2006927 119.84046,27.0461071 C119.84046,26.8965082 119.954922,26.7743358 120.098316,26.7618692 C120.920942,26.6920564 121.051756,26.4863578 121.051756,25.8617824 L121.051756,19.3567227 C121.051756,17.2074849 120.435416,16.3722243 118.854315,16.3722243 C117.785154,16.3722243 116.910958,17.2959976 116.365056,18.0714187 C116.365056,18.0714187 116.085817,18.4179896 115.783936,19.0712381 L115.81664,25.8605357 C115.81664,26.4851112 115.944939,26.6908097 116.743665,26.7606225 C116.887058,26.7730891 117.000264,26.8965082 117.000264,27.0398738 C117.000264,27.2006927 116.873222,27.3266051 116.718508,27.3266051 L112.221742,27.3266051 C112.067028,27.3266051 111.939987,27.2006927 111.939987,27.0461071 C111.939987,26.8990015 112.056965,26.7768291 112.204132,26.7668558 C113.22298,26.7032763 113.385241,26.4963311 113.385241,25.8617824 L113.385241,16.96314 C113.385241,16.4445305 113.239332,15.9433741 112.17646,15.7937752 C112.041871,15.7750753 111.939987,15.6553962 111.939987,15.5170172 L111.939987,15.4758775 C111.939987,15.3225386 112.060738,15.2003662 112.215453,15.1953795 L115.483313,15.1106068 L115.483313,15.1106068 Z" id="Shape" fill="#000000"></path>
                    <path d="M27.1001488,2.43833175 C35.0735766,6.94125918 36.9301438,17.0366928 31.3818254,27.2518056 C26.5064499,36.2302341 15.8601188,40.064953 7.92694179,35.4947061 C-0.00749301289,30.9219658 -1.55589017,18.1674114 1.85410552,10.8283377 C6.80495135,0.169414822 18.2902596,-2.5383256 27.1001488,2.43833175" id="Shape" fill="#00a287"></path>
                    <path d="M26.9152469,10.1838157 C28.4762224,11.8356372 28.9617474,14.341419 28.6913124,16.3971575 C28.3806268,18.7408739 26.9466928,20.9100581 24.5630919,22.3474545 C22.6725631,23.4893928 20.1883354,23.9431762 17.7443584,23.9656161 C17.724233,24.3495867 17.6475049,25.6722904 17.608512,25.8817289 C17.5519094,26.1896533 17.4424776,26.3567055 17.3091469,26.5287442 C17.046259,26.8690817 16.590922,27.0872468 16.1381008,27.2156526 C15.7796172,27.3153852 15.4236494,27.3602648 15.1708242,27.3602648 C15.1293156,27.3602648 15.087807,27.3565249 15.0462983,27.3527849 C14.7808948,27.3228651 14.4853031,27.1981993 14.3029168,26.9974875 C14.1205304,26.7942823 14.0173878,26.5399641 13.9934889,26.2507396 L13.9733635,25.9889415 C13.9217922,25.7645431 13.6387789,14.3750787 13.6928659,14.578284 C13.7343746,13.2131938 15.9569722,12.9763289 17.1632378,13.2169338 C18.372019,13.4575387 18.0663646,14.9136349 18.0336609,16.7025886 C18.0336609,16.7025886 17.9758004,19.0550316 17.8638529,21.540867 C19.4034452,21.4822741 20.6260626,21.0471906 21.7694363,20.4849479 C24.0800826,19.3479961 25.3027,17.6064154 25.3027,15.0420406 C25.3027,12.4776658 22.7845106,9.60536659 18.1368035,9.60536659 C13.4890963,9.60536659 11.4941671,10.7672515 9.24389699,12.6123049 C8.73698872,13.0286885 8.34580147,13.4475655 7.97725526,13.7230768 C7.60745128,13.9985881 6.62508071,14.0409745 6.36345062,13.3952058 C6.04521789,12.6172915 6.63765904,11.7496178 6.98607987,11.3294942 C7.53323891,10.6700122 8.88038212,9.34232183 10.3746923,8.57064076 C12.0866083,7.68551378 14.1796488,6.7318207 17.0940567,6.6582679 C19.7304828,6.5934417 23.8939228,6.80412684 26.8926058,10.1613759 M16.8349424,29.0407594 C16.5921799,28.8537607 16.3204871,28.725355 16.0450208,28.6717487 C15.9519409,28.6530489 15.8550874,28.6430756 15.7607497,28.6430756 C15.2425209,28.6430756 14.733097,28.9260669 14.4010281,29.4010434 C14.124304,29.7949873 14.0098408,30.2674705 14.0827953,30.7237472 C14.1305931,31.0167118 14.2400249,31.2697833 14.4035437,31.4580286 C14.5859301,31.6699604 14.8651699,31.8332725 15.2123328,31.9317585 C15.4123289,31.9866114 15.6173563,32.0165312 15.8223837,32.0165312 L15.8236415,32.0165312 C16.2714315,32.0165312 16.6739392,31.8818922 16.9871406,31.6325607 C17.3506554,31.3371028 17.5481358,30.9194725 17.5443623,30.4519758 C17.539331,29.9096798 17.2751853,29.3798503 16.8349424,29.0407594" id="Shape" fill="#FFFFFF"></path>
                </g>
            </g>
        </g>
    </g>
</svg>