<?xml version="1.0" encoding="utf-8"?>
<svg width="64px" height="77px" viewbox="0 0 64 77" version="1.1" xmlns:xlink="http://www.w3.org/1999/xlink" xmlns="http://www.w3.org/2000/svg">
  <path d="M32.3073 71.9321L2.69217 71.9321C1.20789 71.9321 0 70.725 0 69.2417L0 2.69037C0 1.20708 1.20789 0 2.69217 0L55.04 0C56.5243 0 57.7322 1.20708 57.7322 2.69037L57.7322 38.1865C57.4474 38.1996 57.1632 38.2463 56.8844 38.3336L55.9374 38.6283L55.9374 2.69037C55.9374 2.19594 55.5348 1.79358 55.04 1.79358L2.69217 1.79358C2.19741 1.79358 1.79478 2.19594 1.79478 2.69037L1.79478 69.2417C1.79478 69.7361 2.19741 70.1385 2.69217 70.1385L32.8505 70.1385L32.3073 71.9321ZM30.3941 56.6866L7.47826 56.6866L7.47826 54.2952L31.0815 54.2952C30.552 54.9798 30.3109 55.8365 30.3941 56.6866L30.3941 56.6866ZM24.9708 19.443C24.9708 20.6405 24.3678 21.9139 23.176 23.2304C22.4396 21.8769 21.0014 21.0453 19.3705 21.0453C19.0803 21.0453 18.844 21.2802 18.844 21.5696C18.844 21.8583 19.0803 22.0939 19.3705 22.0939C20.7603 22.0939 21.9113 22.8287 22.3983 24.0196C22.1093 24.2898 21.7976 24.5607 21.4698 24.8255C21.1617 25.0748 20.8326 25.3253 20.4934 25.5699C18.8554 26.7476 17.3011 27.5488 16.7693 27.81C16.1309 27.4884 14.6245 26.689 13.0642 25.5699C12.7256 25.3265 12.396 25.076 12.0855 24.8255C11.7361 24.5433 11.4106 24.2617 11.1169 23.9861C11.6105 22.8161 12.7561 22.0939 14.1321 22.0939C14.4223 22.0939 14.6586 21.8583 14.6586 21.5696C14.6586 21.2802 14.4223 21.0453 14.1321 21.0453C12.5162 21.0453 11.0846 21.8649 10.3433 23.1993C9.16356 21.8924 8.5659 20.6291 8.5659 19.443L8.5659 9.89517C9.47047 10.181 10.2422 10.3089 11.0445 10.3089C13.2754 10.3089 15.3023 9.43661 16.7705 7.8487C18.2601 9.4139 20.3361 10.3089 22.4934 10.3089C23.3759 10.3089 24.2086 10.1726 24.9708 9.90474L24.9708 19.443ZM25.9077 8.48721C25.7001 8.3503 25.4937 8.37601 25.2909 8.42982C24.4049 8.84952 23.4375 9.07132 22.4934 9.07132C20.4516 9.07132 18.5443 8.15182 17.261 6.54895C17.0241 6.25481 16.5126 6.25421 16.2763 6.54895C14.993 8.15182 13.0858 9.07132 11.0445 9.07132C10.0741 9.07132 9.15878 8.86147 8.22968 8.42265C8.06635 8.36944 7.82466 8.35868 7.63022 8.48721C7.44177 8.61336 7.3287 8.7999 7.3287 8.98703L7.3287 19.443C7.3287 21.1146 8.20395 22.8388 9.93053 24.5672C10.3439 24.9816 10.81 25.3989 11.3161 25.8078C13.3586 27.4585 15.5997 28.6243 16.4671 29.0482C16.5928 29.111 16.6664 29.111 16.7687 29.111C16.8297 29.111 16.9499 29.111 17.0391 29.0404C17.9203 28.6094 20.1446 27.4489 22.1745 25.8078C22.6849 25.3953 23.1545 24.9744 23.5703 24.5577C25.2903 22.8323 26.162 21.111 26.162 19.443L26.162 9.00795C26.2098 8.82202 26.1141 8.62472 25.9077 8.48721L25.9077 8.48721ZM7.47826 35.7616L24.2296 35.7616L24.2296 33.3701L7.47826 33.3701L7.47826 35.7616ZM45.8023 71.9321L46.3455 70.1385L49.2656 70.1385L49.8088 71.9321L45.8023 71.9321ZM19.9735 16.9768C19.9735 17.3852 19.5326 17.8754 19.2568 17.8754C18.9667 17.8754 18.731 18.111 18.731 18.3997C18.731 19.5578 17.7971 20.5747 16.7334 20.5747L16.6203 20.5747C15.5566 20.5747 14.6227 19.5578 14.6227 18.3997C14.6227 18.111 14.387 17.8754 14.0968 17.8754C13.8312 17.8754 13.4932 17.3714 13.4932 16.9768L13.4932 16.2277C13.4932 16.1033 13.5955 16.0023 13.7205 16.0023C14.0101 16.0023 14.2464 15.7673 14.2464 15.478L14.2464 14.2039C14.2464 13.8966 14.317 12.8922 15.2263 12.8922C15.2886 12.8922 15.3442 12.8833 15.3968 12.8653C15.6272 12.7852 15.8683 12.6949 16.1429 12.5921C16.8536 12.3279 17.5877 12.0546 18.1578 12.0546C18.5024 12.0546 19.2203 12.0546 19.2203 13.9792L19.2203 15.478C19.2203 15.6854 19.343 15.8732 19.532 15.9563C19.7324 16.046 19.9251 16.1972 19.9735 16.2606L19.9735 16.9768ZM20.2739 15.1671L20.2739 13.9803C20.2739 11.5219 19.124 11.006 18.1596 11.006C17.392 11.006 16.5587 11.3181 15.7444 11.6236C15.5362 11.7037 15.331 11.779 15.1336 11.8478C13.973 11.8974 13.1946 12.842 13.1946 14.2051L13.1946 15.0685C12.74 15.2729 12.4414 15.7267 12.4414 16.2289L12.4414 16.9786C12.4414 17.7648 12.9434 18.5552 13.5997 18.826C13.8115 20.378 15.1474 21.6246 16.6203 21.6246L16.7334 21.6246C18.2051 21.6246 19.541 20.3792 19.7546 18.829C20.4533 18.5516 21.0271 17.7277 21.0271 16.9786L21.0271 16.2289C21.0271 15.7219 20.585 15.359 20.2739 15.1671L20.2739 15.1671ZM7.47826 41.1423L33.9364 41.1423C33.7449 41.7772 33.7341 42.4642 33.9382 43.1188L34.0668 43.5337L7.47826 43.5337L7.47826 41.1423ZM30.26 47.9956C30.0889 48.7136 30.1643 49.4531 30.4461 50.1102L7.47826 50.1102L7.47826 47.7188L30.3468 47.7188C30.3163 47.8102 30.2828 47.9011 30.26 47.9956L30.26 47.9956ZM30.2122 9.45575L51.1513 9.45575L51.1513 7.06431L30.2122 7.06431L30.2122 9.45575ZM30.2122 22.0108L47.5618 22.0108L47.5618 19.6194L30.2122 19.6194L30.2122 22.0108ZM30.2122 14.8365L43.3739 14.8365L43.3739 12.445L30.2122 12.445L30.2122 14.8365ZM56.5578 56.1288C56.3011 56.2012 56.0846 56.374 55.9577 56.6083C55.8303 56.8427 55.8034 57.1189 55.883 57.373L55.9715 57.6552L56.9754 60.8776L55.2596 60.4424L53.4151 59.9743C53.1543 59.9097 52.8815 59.9498 52.6553 60.0897C52.4298 60.2284 52.2701 60.4514 52.2108 60.709L52.2102 60.709C52.2102 60.7108 52.209 60.7126 52.2084 60.715L51.6832 63.0461L51.4014 64.2962L48.7702 61.7344C48.5782 61.5484 48.3144 61.4349 48.0535 61.4552C47.7867 61.4624 47.5342 61.5771 47.3536 61.7726L45.9022 63.3456L44.863 64.4708L43.8651 60.938C43.825 60.7945 43.7502 60.6654 43.6533 60.556C43.6485 60.5506 43.6437 60.5464 43.639 60.5416C43.566 60.4615 43.4828 60.3904 43.3853 60.3384C43.2387 60.2595 43.0772 60.2188 42.9139 60.2188C42.8151 60.2188 42.7158 60.2337 42.6201 60.2636L40.175 61.0253L39.1131 61.3559L40.0171 57.7969C40.0302 57.7461 40.0356 57.6946 40.0404 57.6426C40.059 57.4322 40.0135 57.2205 39.901 57.0382C39.7616 56.8104 39.5367 56.6496 39.2758 56.591L35.6928 55.7851L38.2552 53.1551C38.4425 52.9638 38.543 52.7061 38.5352 52.4395C38.528 52.1728 38.4137 51.9205 38.2175 51.7406L35.5176 49.2511L39.0527 48.2544C39.3093 48.1815 39.5259 48.0087 39.6527 47.7744C39.7802 47.54 39.8071 47.2644 39.7275 47.0097L38.6351 43.505L42.1953 44.4084C42.4544 44.4724 42.729 44.4323 42.9557 44.293C43.1837 44.1531 43.344 43.9277 43.4026 43.6677L44.2097 40.0871L46.8408 42.6483C47.0317 42.8336 47.2865 42.9454 47.557 42.9275C47.8244 42.9209 48.0763 42.8061 48.2569 42.61L50.7475 39.9119L51.7454 43.4447C51.8172 43.7011 51.9907 43.9182 52.2258 44.0443C52.4615 44.1717 52.7379 44.1992 52.9904 44.119L56.498 43.0274L55.594 46.5852C55.5276 46.8441 55.5701 47.1179 55.7095 47.3445C55.8495 47.5723 56.0744 47.7331 56.3346 47.7917L59.9176 48.5982L57.3553 51.2276C57.1686 51.4183 57.0681 51.6772 57.0753 51.9432C57.0825 52.2105 57.1973 52.4622 57.3936 52.6427L60.0929 55.1316L56.5578 56.1288ZM58.8952 72.451L57.1232 71.9153C56.7451 71.7988 56.3287 71.9237 56.075 72.2316L54.897 73.6605L52.8073 66.7582C52.8659 66.6637 52.9156 66.5639 52.9407 66.4515L53.9129 62.1385L55.9272 62.6497L58.8952 72.451ZM40.7141 73.6605L39.5361 72.2316C39.3458 72.0002 39.0635 71.8723 38.7739 71.8723C38.6776 71.8723 38.5819 71.886 38.4873 71.9153L36.7153 72.451L39.4834 63.3085L42.239 62.4512L43.1406 65.6444L40.7141 73.6605ZM62.7313 54.8775L59.4791 51.8787L62.5661 48.7118C62.8156 48.4547 62.9077 48.084 62.806 47.7415C62.7043 47.3989 62.4249 47.1376 62.0756 47.0587L57.7591 46.0872L58.8479 41.8023C58.9365 41.4556 58.8294 41.0885 58.5698 40.8428C58.3101 40.5971 57.9374 40.5098 57.5964 40.6168L53.3721 41.9315L52.1702 37.6765C52.0732 37.3327 51.7974 37.0679 51.4498 36.9842C51.1005 36.9017 50.7349 37.0117 50.4926 37.2753L47.493 40.5259L44.3234 37.441C44.0667 37.1916 43.6976 37.099 43.3524 37.2012C43.0096 37.3028 42.7481 37.5821 42.6698 37.9312L41.6976 42.2442L37.4093 41.1561C37.0641 41.0676 36.6955 41.1746 36.4491 41.4341C36.2032 41.6941 36.1164 42.066 36.2229 42.4074L37.5385 46.6289L33.2807 47.83C32.9367 47.9268 32.671 48.2018 32.5879 48.5498C32.5047 48.8977 32.6166 49.2636 32.8792 49.5058L36.132 52.504L33.0443 55.6715C32.7949 55.9274 32.7027 56.2986 32.8056 56.6412C32.9073 56.9838 33.1861 57.2451 33.5355 57.3234L37.852 58.2949L36.7625 62.5804C36.6746 62.9265 36.7817 63.2942 37.0407 63.5405C37.1173 63.6123 37.2053 63.6667 37.2974 63.7103L34.2893 73.6449C34.1834 73.9935 34.278 74.3719 34.5364 74.6296C34.7931 74.8873 35.1736 74.9806 35.5211 74.8765L38.4299 73.9959L40.3629 76.3401C40.5525 76.5709 40.8331 76.7 41.1251 76.7C41.1897 76.7 41.2543 76.6934 41.3189 76.6803C41.6767 76.6091 41.9656 76.3467 42.0709 75.9987L44.6817 67.377C44.845 67.3268 44.9976 67.2383 45.1179 67.1073L48.1181 63.8574L50.5931 66.2662L53.5396 75.9987C53.6455 76.3467 53.9344 76.6091 54.2916 76.6803C54.3562 76.6934 54.4214 76.7 54.4854 76.7C54.778 76.7 55.058 76.5709 55.2482 76.3401L57.1806 73.9959L60.0893 74.8765C60.4375 74.9818 60.8174 74.8873 61.0747 74.6296C61.3331 74.3719 61.4276 73.9935 61.3218 73.6449L58.1647 63.2171L58.2012 63.226C58.5458 63.3139 58.9155 63.2087 59.162 62.9492C59.4079 62.6892 59.4947 62.3167 59.3882 61.9753L58.072 57.7544L62.3304 56.5533C62.6744 56.4559 62.9394 56.1809 63.0232 55.8329C63.1058 55.485 62.9945 55.1197 62.7313 54.8775L62.7313 54.8775Z" id="icon_qualification" fill="#00305A" fill-rule="evenodd" stroke="none" />
</svg>