<?xml version="1.0" encoding="utf-8"?>
<svg width="135px" height="135px" viewbox="0 0 135 135" version="1.1" xmlns:xlink="http://www.w3.org/1999/xlink" xmlns="http://www.w3.org/2000/svg">
  <g id="icon_addmedia" transform="translate(0.5 0.5)">
    <path d="M66.7832 133.566C103.667 133.566 133.566 103.667 133.566 66.7832C133.566 29.8999 103.667 0 66.7832 0C29.8999 0 0 29.8999 0 66.7832C0 103.667 29.8999 133.566 66.7832 133.566Z" id="Oval" fill="#11B2A6" fill-opacity="0.05" fill-rule="evenodd" stroke="none" />
    <path d="M38.6416 77.2832C59.9828 77.2832 77.2832 59.9828 77.2832 38.6416C77.2832 17.3004 59.9828 0 38.6416 0C17.3004 0 0 17.3004 0 38.6416C0 59.9828 17.3004 77.2832 38.6416 77.2832Z" transform="translate(28 28)" id="Oval" fill="#D5EAE4" fill-opacity="0.7" fill-rule="evenodd" stroke="none" />
    <path d="M17.8375 39.2198L14.3324 42.5999L13.7152 39.9791L10.3625 42.7842L10.0536 41.4735L7.00251 43.1291L18.6179 46.1873L17.8375 39.2198ZM10.5045 38.5187C11.3488 38.7406 12.2023 38.2778 12.4113 37.484C12.6203 36.6902 12.1055 35.8666 11.2618 35.6447C10.4175 35.4223 9.56404 35.8851 9.35453 36.6789C9.14553 37.4727 9.66031 38.2963 10.5045 38.5187L10.5045 38.5187ZM23.7791 36.4817L7.29027 32.1401L4.11204 44.2116L20.6003 48.5538L23.7791 36.4817ZM25.3028 35.6926L20.4691 54.0516L1.51859 49.0613L6.35183 30.7034L25.3028 35.6926ZM2.98107 51.0438L3.42893 53.4828L8.62303 52.5289L2.98107 51.0438ZM2.27223 40.1346L1.45991 35.7132L3.53703 35.3312L3.86083 34.1024L0 34.8113L1.50933 43.0307L2.27223 40.1346ZM19.5131 32.5715L19.2743 31.2717L16.5068 31.7798L19.5131 32.5715ZM18.9248 5.66255C18.9248 4.80905 18.2334 4.11822 17.3804 4.11822C16.5279 4.11822 15.8361 4.80905 15.8361 5.66255C15.8361 6.51553 16.5279 7.20688 17.3804 7.20688C18.2334 7.20688 18.9248 6.51553 18.9248 5.66255L18.9248 5.66255ZM59.7775 0L9.98874 0C8.38778 0 7.08488 1.30239 7.08488 2.90334L7.08488 29.2996L8.62921 29.7062L8.62921 2.90334C8.62921 2.15383 9.23922 1.54433 9.98874 1.54433L59.7775 1.54433C60.527 1.54433 61.1365 2.15383 61.1365 2.90334L61.1365 47.0295C61.1365 47.779 60.527 48.389 59.7775 48.389L23.9881 48.389L24.2223 49.6647L24.2717 49.9334L59.7775 49.9334C61.3784 49.9334 62.6808 48.6305 62.6808 47.0295L62.6808 2.90334C62.6808 1.30239 61.3784 0 59.7775 0L59.7775 0ZM23.043 5.66255C23.043 4.80905 22.3516 4.11822 21.4986 4.11822C20.6462 4.11822 19.9543 4.80905 19.9543 5.66255C19.9543 6.51553 20.6462 7.20688 21.4986 7.20688C22.3516 7.20688 23.043 6.51553 23.043 5.66255L23.043 5.66255ZM29.2203 33.0832C29.2203 33.4801 29.6491 33.7272 29.9925 33.529L39.6486 27.9539C39.992 27.7558 39.992 27.2611 39.6486 27.0629L29.9925 21.4873C29.6491 21.2891 29.2203 21.5367 29.2203 21.9331L29.2203 33.0832ZM11.7179 10.0382L58.0478 10.0382L58.0478 44.5282L24.5734 44.5282L26.7962 36.0864L27.1895 34.593L25.6966 34.1997L21.163 33.006L20.7934 30.9927L20.5144 29.4736L18.9953 29.7526L12.9935 30.8547L11.7179 30.5191L11.7179 10.0382ZM13.2622 7.20688C12.4097 7.20688 11.7179 6.51553 11.7179 5.66255C11.7179 4.80905 12.4097 4.11822 13.2622 4.11822C14.1152 4.11822 14.8065 4.80905 14.8065 5.66255C14.8065 6.51553 14.1152 7.20688 13.2622 7.20688L13.2622 7.20688Z" transform="translate(30.898926 42.5)" id="Fill-1" fill="#013057" fill-rule="evenodd" stroke="none" />
  </g>
</svg>