<?xml version="1.0" encoding="utf-8"?>
<svg width="76px" height="71px" viewbox="0 0 76 71" version="1.1" xmlns:xlink="http://www.w3.org/1999/xlink" xmlns="http://www.w3.org/2000/svg">
  <path d="M73.381 38.5407L73.381 32.31L73.381 29.8457C73.381 29.0819 73.1411 28.3744 72.7342 27.7914L72.7342 27.7914C72.6575 27.6817 72.5742 27.5772 72.4857 27.4767C72.4701 27.4588 72.4535 27.4416 72.4376 27.4238C72.3623 27.3409 72.2824 27.2618 72.1994 27.1861C72.1791 27.1675 72.159 27.1486 72.1379 27.1304C72.0487 27.0527 71.9557 26.9794 71.8593 26.9106C71.8458 26.9006 71.8327 26.89 71.8188 26.8807C71.7048 26.8016 71.5866 26.7283 71.4631 26.6626C71.4593 26.6606 71.4555 26.6592 71.4514 26.6571C71.3387 26.5973 71.2219 26.5447 71.1022 26.4969C71.0667 26.4824 71.0293 26.4704 70.993 26.4573C70.9025 26.4243 70.8105 26.3951 70.7172 26.3693C70.6729 26.3572 70.629 26.3455 70.5841 26.3352C70.4907 26.3132 70.3953 26.296 70.2992 26.2816C70.2571 26.275 70.2156 26.2671 70.1731 26.2623C70.0348 26.2465 69.8955 26.2365 69.7534 26.2365L69.3375 26.2365L54.4273 26.2365L51.5018 26.2365L39.2698 26.2365L36.5306 26.2365L24.1258 26.2365L21.3725 26.2365L6.46218 26.2365L6.04736 26.2365C5.90528 26.2365 5.76528 26.2465 5.62735 26.2623C5.58484 26.2671 5.5437 26.275 5.50153 26.2816C5.40508 26.296 5.31002 26.3132 5.21634 26.3352C5.17175 26.3455 5.1275 26.3572 5.08325 26.3693C4.98992 26.3951 4.89797 26.4243 4.8074 26.4573C4.77075 26.4704 4.73411 26.4828 4.69816 26.4972C4.57856 26.545 4.46137 26.5976 4.34868 26.6575C4.34453 26.6595 4.34038 26.6609 4.33727 26.663C4.21386 26.7287 4.09529 26.8016 3.98122 26.8807C3.96704 26.8903 3.95425 26.9017 3.94008 26.9113C3.84398 26.9801 3.75099 27.053 3.66215 27.1304C3.64107 27.149 3.62067 27.1679 3.59993 27.1868C3.51731 27.2625 3.4385 27.3412 3.36279 27.4238C3.34655 27.4416 3.32995 27.4595 3.31405 27.4774C3.2259 27.5782 3.14225 27.6824 3.06585 27.7925L3.06585 27.7921C2.65933 28.3754 2.41977 29.0822 2.41977 29.8457L2.41977 32.3086L2.41977 38.5417L2.41977 41.0043C2.41977 41.7674 2.65933 42.4746 3.06585 43.0575C3.14225 43.1669 3.22521 43.2708 3.31301 43.3712C3.32961 43.3901 3.34655 43.408 3.36348 43.4266C3.43815 43.5084 3.51697 43.5868 3.59889 43.6618C3.61998 43.6814 3.64107 43.7007 3.6625 43.7196C3.75065 43.7963 3.84294 43.8689 3.93801 43.937C3.95287 43.9473 3.9667 43.959 3.98156 43.9693C4.09529 44.0484 4.21386 44.1213 4.33692 44.187C4.34038 44.1887 4.34418 44.1901 4.34799 44.1922C4.46068 44.252 4.57821 44.3046 4.69782 44.3528C4.73377 44.3669 4.77041 44.3793 4.8074 44.3927C4.89797 44.4254 4.98957 44.4549 5.08325 44.4807C5.12715 44.4928 5.17175 44.5041 5.21634 44.5148C5.30967 44.5368 5.40508 44.554 5.50187 44.5684C5.5437 44.5746 5.58484 44.5825 5.62735 44.5877C5.76528 44.6032 5.90494 44.6135 6.04736 44.6135L6.46183 44.6135L21.3721 44.6135L24.1255 44.6135L36.5306 44.6135L39.2698 44.6135L51.5021 44.6135L54.3436 44.6135L69.3379 44.6135L69.7534 44.6135C69.8955 44.6135 70.0351 44.6035 70.1734 44.5877C70.2159 44.5825 70.2571 44.5746 70.2992 44.5684C70.3953 44.554 70.4907 44.5368 70.5841 44.5148C70.629 44.5041 70.6736 44.4928 70.7175 44.4807C70.8105 44.4549 70.9025 44.4257 70.9927 44.393C71.0293 44.3796 71.0667 44.3672 71.1029 44.3528C71.2219 44.305 71.3387 44.2524 71.451 44.1932C71.4552 44.1908 71.4593 44.1891 71.4635 44.187C71.5866 44.1213 71.7044 44.0484 71.8185 43.9696C71.8334 43.9593 71.8472 43.948 71.8617 43.9377C71.9571 43.8696 72.0494 43.797 72.1376 43.72C72.1593 43.701 72.1797 43.6818 72.2012 43.6625C72.2831 43.5875 72.3623 43.5091 72.4373 43.4269C72.4535 43.4083 72.4708 43.3908 72.4871 43.3719C72.5749 43.2718 72.6582 43.1676 72.7349 43.0579C73.1414 42.4746 73.381 41.7678 73.381 41.0043L73.381 38.5407ZM63.2345 56.0327C65.5416 53.2771 67.2998 50.2701 68.5283 47.021L53.9692 47.021C53.6858 48.6705 53.3539 50.2588 52.964 51.7748C56.0454 52.6849 59.4687 54.1036 63.2345 56.0327L63.2345 56.0327ZM61.1808 58.2466C58.4417 56.7725 55.4726 55.522 52.2792 54.4998C50.4526 60.1788 48.2271 64.3782 45.6037 67.1032C51.4233 65.7405 56.6147 62.7893 61.1808 58.2466L61.1808 58.2466ZM45.004 63.2711C46.8869 60.8309 48.3982 57.6802 49.5404 53.8185C46.9142 53.1375 43.4902 52.6849 39.2698 52.4562L39.2698 67.7842C41.2087 67.2174 43.121 65.7137 45.004 63.2711L45.004 63.2711ZM39.2698 49.561C42.9205 49.6755 46.5713 50.1862 50.2252 51.0939C50.5722 49.7807 50.8647 48.4194 51.1156 47.021L39.2698 47.021L39.2698 49.561ZM36.5306 49.561L36.5306 47.021L24.5123 47.021C24.7633 48.4194 25.0564 49.7807 25.4042 51.0939C28.9401 50.3007 32.65 49.7897 36.5306 49.561L36.5306 49.561ZM36.5306 52.4562C32.4225 52.6849 28.9989 53.1375 26.2604 53.8185C28.9989 62.1079 32.4225 66.7624 36.5306 67.7842L36.5306 52.4562ZM30.197 67.1032C27.3431 64.1516 25.0619 59.9501 23.3505 54.4998C20.0385 55.6365 17.1285 56.8843 14.6199 58.2466C19.1829 62.7893 24.3771 65.7405 30.197 67.1032L30.197 67.1032ZM22.6653 51.7748C22.2913 50.3276 21.9719 48.7403 21.7043 47.021L7.27107 47.021C8.49928 50.2701 10.2571 53.2771 12.5655 56.0327C16.4441 53.9891 19.8114 52.5704 22.6653 51.7748L22.6653 51.7748ZM12.5655 14.8169C10.2578 17.5725 8.49962 20.5795 7.27142 23.829L21.7043 23.829C21.9722 22.11 22.2913 20.5224 22.6653 19.0748C19.354 18.1675 15.9892 16.7491 12.5655 14.8169L12.5655 14.8169ZM14.6199 12.603C16.4441 13.6249 19.4131 14.8169 23.5216 16.1796C25.2334 10.7296 27.4585 6.5863 30.197 3.7468C24.1469 5.10945 18.9558 8.06314 14.6199 12.603L14.6199 12.603ZM26.2604 17.0312C28.9989 17.7125 32.4225 18.1675 36.5306 18.3938L36.5306 3.06547C32.4225 4.08763 28.9989 8.74447 26.2604 17.0312L26.2604 17.0312ZM36.5306 21.1188C32.08 20.8925 28.3701 20.4375 25.4042 19.7561C25.0567 21.0696 24.7633 22.4309 24.5123 23.829L36.5306 23.829L36.5306 21.1188ZM39.2698 21.1188L39.2698 23.829L51.1156 23.829C50.8643 22.4309 50.5722 21.0696 50.2252 19.7561C47.2564 20.4375 43.605 20.8925 39.2698 21.1188L39.2698 21.1188ZM39.2698 18.3938C43.4902 18.1675 46.9142 17.7125 49.5404 17.0312C48.3982 13.1726 46.8869 10.0218 45.004 7.57889C43.121 5.13869 41.2087 3.63502 39.2698 3.06547L39.2698 18.3938ZM45.6037 3.7468C48.2271 6.47177 50.4526 10.6739 52.2792 16.3498C55.4726 15.328 58.4417 14.0799 61.1808 12.603C56.6147 8.06314 51.4233 5.10945 45.6037 3.7468L45.6037 3.7468ZM53.1354 19.0748C53.5095 20.5224 53.8282 22.11 54.0957 23.829L68.528 23.829C67.2994 20.5795 65.5416 17.5725 63.2345 14.8169C59.3539 16.8609 55.9863 18.2821 53.1354 19.0748L53.1354 19.0748ZM75.8008 29.8457L75.8008 41.0043C75.8008 43.6202 74.1114 45.8451 71.7632 46.6723C70.0822 51.7662 67.1822 56.3625 63.0638 60.4608C56.1017 67.388 47.7134 70.85 37.9002 70.85C28.0842 70.85 19.6966 67.388 12.7366 60.4608C8.61612 56.3625 5.71723 51.7659 4.03618 46.6719C1.68866 45.8444 0 43.6199 0 41.0043L0 29.8457C0 27.2298 1.689 25.0049 4.03687 24.1777C5.71792 19.0848 8.61681 14.4881 12.7366 10.3888C19.6966 3.46477 28.0842 0 37.9002 0C47.7134 0 56.1017 3.46477 63.0638 10.3888C67.1819 14.4881 70.0811 19.0848 71.7625 24.1774C74.1107 25.0042 75.8008 27.2294 75.8008 29.8457L75.8008 29.8457ZM60.0463 36.0417C59.9405 36.463 59.8227 37.0143 59.6934 37.6956C59.5637 38.3773 59.4701 38.9462 59.4113 39.4022C59.3463 38.9286 59.2526 38.3611 59.1289 37.7001C59.0055 37.0391 58.9025 36.5479 58.8205 36.226L56.9417 29.0396L54.3578 29.0396L52.4793 36.226C52.3673 36.6123 52.2484 37.1546 52.1223 37.8538C51.9957 38.5527 51.9148 39.069 51.8796 39.4022C51.7503 38.4547 51.5415 37.3349 51.2532 36.0417L49.6043 29.0396L46.9146 29.0396L50.2041 41.8682L53.3086 41.8682L55.0457 35.1468C55.1221 34.8486 55.231 34.3499 55.3717 33.6507C55.5134 32.9518 55.6012 32.4441 55.6365 32.1281C55.66 32.3857 55.7498 32.8902 55.9054 33.6417C56.061 34.3935 56.1716 34.8895 56.2362 35.1292L57.9826 41.8682L61.0958 41.8682L64.3763 29.0396L61.6866 29.0396L60.0463 36.0417ZM42.223 36.0417C42.1172 36.463 41.9996 37.0143 41.8704 37.6956C41.7411 38.3773 41.6464 38.9462 41.5879 39.4022C41.5233 38.9286 41.4293 38.3611 41.3059 37.7001C41.1821 37.0391 41.0794 36.5479 40.9968 36.226L39.1187 29.0396L36.5344 29.0396L34.656 36.226C34.5443 36.6123 34.4254 37.1546 34.2985 37.8538C34.1724 38.5527 34.0915 39.069 34.0562 39.4022C33.9266 38.4547 33.7182 37.3349 33.4305 36.0417L31.781 29.0396L29.0912 29.0396L32.3807 41.8682L35.4849 41.8682L37.2223 35.1468C37.2987 34.8486 37.408 34.3499 37.549 33.6507C37.69 32.9518 37.7782 32.4441 37.8134 32.1281C37.8369 32.3857 37.9265 32.8902 38.0824 33.6417C38.2383 34.3935 38.3482 34.8895 38.4132 35.1292L40.1592 41.8682L43.2724 41.8682L46.5533 29.0396L43.8632 29.0396L42.223 36.0417ZM26.0402 29.0396L28.73 29.0396L25.4491 41.8682L22.3359 41.8682L20.5895 35.1292C20.5249 34.8895 20.4146 34.3935 20.2587 33.6417C20.1028 32.8902 20.0136 32.3857 19.9901 32.1281C19.9545 32.4441 19.8663 32.9518 19.7253 33.6507C19.5843 34.3499 19.4757 34.8486 19.3993 35.1468L17.6616 41.8682L14.5574 41.8682L11.2675 29.0396L13.9576 29.0396L15.6068 36.0417C15.8945 37.3349 16.1036 38.4547 16.2329 39.4022C16.2681 39.069 16.349 38.5527 16.4755 37.8538C16.6021 37.1546 16.721 36.6123 16.8326 36.226L18.7114 29.0396L21.295 29.0396L23.1738 36.226C23.2557 36.5479 23.3588 37.0391 23.4822 37.7001C23.6059 38.3611 23.6999 38.9286 23.7646 39.4022C23.8234 38.9462 23.9174 38.3773 24.0467 37.6956C24.1759 37.0143 24.2935 36.463 24.3996 36.0417L26.0402 29.0396Z" id="icon_website" fill="#00305A" fill-rule="evenodd" stroke="none" />
</svg>