<?xml version="1.0" encoding="UTF-8"?>
<svg width="273px" height="44px" viewBox="0 0 273 44" version="1.1" xmlns="http://www.w3.org/2000/svg" xmlns:xlink="http://www.w3.org/1999/xlink">
    <!-- Generator: Sketch 46.2 (44496) - http://www.bohemiancoding.com/sketch -->
    <title>SLTA_Logo</title>
    <desc>Created with Sketch.</desc>
    <defs></defs>
    <g id="Page-1" stroke="none" stroke-width="1" fill="none" fill-rule="evenodd">
        <g id="SLTA_Logo">
            <g id="Group">
                <g>
                    <path d="M27.099633,27.5 C26.6988991,29.75 26.7990826,31.9 27.7007339,34.05 C27.9511927,34.7 28.3018349,35.35 28.8027523,36.05 C28.9029358,34.85 29.1033028,33.8 30.1552294,33.2 C30.806422,32.85 31.5077064,32.75 32.2590826,32.9 C30.3555963,34.75 30.8565138,36.85 31.4576147,38.95 C31.8082569,40.1 32.4093578,41.1 33.2609174,42.1 L33.2609174,41.8 C32.1088073,39.1 32.3592661,36.35 33.1106422,33.6 C33.6115596,31.85 34.1625688,30.1 34.2627523,28.25 C34.312844,27.6 34.2627523,27 34.1625688,26.35 C34.1124771,26 34.2627523,25.95 34.5633028,26 C35.3146789,26.15 36.066055,26.15 36.8174312,26 C37.1680734,25.9 37.2181651,26.05 37.2181651,26.4 C37.1680734,28.1 36.6170642,29.65 36.0159633,31.2 C35.2645872,33.1 34.4130275,34.9 34.0623853,36.95 C33.7618349,38.7 33.8119266,40.4 34.4130275,42.1 C34.4631193,42.05 34.513211,42 34.513211,41.95 C34.5633028,40.5 35.4148624,39.5 36.5168807,38.65 C37.3684404,38 38.0697248,37.2 38.5706422,36.25 C39.3220183,34.9 39.1216514,34.05 37.7691743,33.25 C37.7190826,33.2 37.6689908,33.2 37.5688073,33.15 C39.1717431,32.45 40.9249541,33.65 41.0251376,35.5 C41.0752294,36.1 40.9750459,36.75 40.8748624,37.45 C42.0269725,36.7 42.7282569,35.7 43.2291743,34.6 C44.1809174,32.45 44.1809174,30.2 43.880367,27.95 C43.7801835,27.45 43.68,26.95 43.5798165,26.3 C44.8321101,27.8 45.5834862,29.4 45.8840367,31.2 C46.986055,37.8 42.2273394,43.3 35.5651376,43.4 C30.606055,43.5 26.0977982,39.45 25.5968807,34.15 C25.346422,31.75 25.8974312,29.55 26.9994495,27.45 C27.099633,27.35 27.1497248,27.4 27.099633,27.5 L27.099633,27.5 L27.099633,27.5 Z" id="Shape" fill="#009B85"></path>
                    <path d="M168.007706,19.75 L168.007706,12.2 C168.007706,11.55 167.707156,10.75 168.10789,10.4 C168.458532,10.1 169.26,10.3 169.911193,10.3 C171.313761,10.3 171.313761,10.3 171.313761,11.7 L171.313761,24.55 C171.313761,25.05 171.213578,25.2 170.712661,25.15 C169.811009,25.1 168.708991,25.4 167.957615,25 C167.206239,24.65 166.805505,23.65 166.254495,22.9 C164.501284,20.6 162.748073,18.3 160.894679,15.85 L160.894679,16.6 L160.894679,24.6 C160.894679,25 160.794495,25.15 160.393761,25.1 C159.592294,25.05 158.790826,25.1 158.03945,25.1 C157.738899,25.1 157.538532,25.05 157.538532,24.65 L157.538532,10.65 C157.538532,10.3 157.638716,10.2 157.989358,10.25 L158.03945,10.25 C158.891009,10.25 159.892844,10 160.594128,10.35 C161.295413,10.7 161.696147,11.65 162.247156,12.3 C164.000367,14.6 165.80367,16.95 167.556881,19.25 C167.707156,19.4 167.807339,19.5 168.007706,19.75 L168.007706,19.75 L168.007706,19.75 Z" id="Shape" fill="#009B85"></path>
                    <path d="M262.430642,34.3 L262.430642,35 L262.430642,43 C262.430642,43.45 262.330459,43.55 261.879633,43.55 C261.078165,43.5 260.276697,43.55 259.525321,43.55 C259.224771,43.55 259.074495,43.45 259.074495,43.15 L259.074495,29.15 C259.074495,28.85 259.124587,28.7 259.475229,28.75 L259.575413,28.75 C260.426972,28.75 261.428807,28.55 262.180183,28.85 C262.881468,29.15 263.282202,30.1 263.783119,30.75 C265.53633,33.05 267.289541,35.3 269.042752,37.6 C269.142936,37.75 269.243119,37.95 269.493578,38.05 L269.493578,37 L269.493578,29.25 C269.493578,28.85 269.593761,28.75 269.994495,28.75 C270.745872,28.8 271.547339,28.8 272.298716,28.75 C272.749541,28.75 272.849725,28.85 272.849725,29.3 L272.849725,42.05 L272.849725,43.2 C272.849725,43.5 272.799633,43.6 272.448991,43.6 C271.547339,43.6 270.645688,43.55 269.794128,43.6 C269.393394,43.6 269.293211,43.35 269.142936,43.1 C267.089174,40.4 265.035413,37.7 262.981651,35 C262.781284,34.75 262.631009,34.55 262.430642,34.3 L262.430642,34.3 L262.430642,34.3 Z" id="Shape" fill="#009B85"></path>
                    <path d="M102.187156,17.7 L102.187156,24.6 C102.187156,25.05 102.036881,25.15 101.636147,25.15 C100.884771,25.1 100.133394,25.1 99.3820183,25.15 C98.8811009,25.2 98.8310092,25 98.8310092,24.55 L98.8310092,19.8 C98.8310092,19.45 98.7809174,19.3 98.3801835,19.3 L93.4711927,19.3 C93.1205505,19.3 93.020367,19.4 93.020367,19.75 L93.020367,24.6 C93.020367,25 92.9201835,25.15 92.5194495,25.1 C91.7179817,25.05 90.9165138,25.1 90.1651376,25.1 C89.8144954,25.1 89.7143119,25.05 89.7143119,24.65 L89.7143119,10.65 C89.7143119,10.35 89.8144954,10.2 90.1150459,10.25 L92.619633,10.25 C92.9702752,10.25 93.0704587,10.35 93.0704587,10.7 L93.0704587,15.95 C93.0704587,16.3 93.1706422,16.45 93.5212844,16.45 L98.4302752,16.45 C98.7809174,16.45 98.8811009,16.35 98.8811009,16 L98.8811009,10.75 C98.8811009,10.4 98.9311927,10.25 99.3319266,10.25 C100.133394,10.3 100.934862,10.3 101.686239,10.25 C102.086972,10.25 102.187156,10.35 102.187156,10.75 L102.187156,17.7 L102.187156,17.7 L102.187156,17.7 Z" id="Shape" fill="#009B86"></path>
                    <path d="M110.953211,36.05 L110.953211,29.15 C110.953211,28.75 111.053394,28.65 111.454128,28.65 L121.121835,28.65 C121.572661,28.65 121.672844,28.8 121.672844,29.2 C121.622752,29.8 121.622752,30.4 121.672844,31 C121.722936,31.5 121.572661,31.65 121.021651,31.65 C118.917798,31.6 116.864037,31.65 114.760183,31.65 C114.35945,31.65 114.259266,31.75 114.259266,32.15 C114.309358,32.8 114.309358,33.45 114.259266,34.1 C114.259266,34.5 114.309358,34.65 114.810275,34.65 C116.66367,34.6 118.567156,34.65 120.42055,34.65 C120.871376,34.65 120.921468,34.8 120.921468,35.15 C120.871376,35.75 120.871376,36.4 120.921468,37 C120.921468,37.4 120.821284,37.5 120.42055,37.5 L114.810275,37.5 C114.409541,37.5 114.209174,37.6 114.259266,38.05 C114.309358,38.7 114.309358,39.35 114.259266,39.95 C114.209174,40.4 114.35945,40.55 114.860367,40.55 C116.96422,40.5 119.118165,40.55 121.222018,40.5 C121.773028,40.5 121.923303,40.65 121.873211,41.2 C121.823119,41.8 121.873211,42.45 121.873211,43.05 C121.873211,43.4 121.773028,43.5 121.422385,43.5 L111.404037,43.5 C111.003303,43.5 110.903119,43.4 110.903119,43 C110.953211,40.7 110.953211,38.35 110.953211,36.05 L110.953211,36.05 L110.953211,36.05 Z" id="Shape" fill="#009B86"></path>
                    <path d="M187.743853,17.65 L187.743853,10.75 C187.743853,10.35 187.844037,10.25 188.244771,10.25 L198.012661,10.25 C198.413394,10.25 198.513578,10.35 198.513578,10.75 C198.463486,11.4 198.463486,12.1 198.513578,12.8 C198.513578,13.2 198.363303,13.3 197.962569,13.3 L191.651009,13.3 C191.250275,13.3 191.049908,13.4 191.1,13.85 C191.150092,14.5 191.150092,15.1 191.1,15.75 C191.1,16.2 191.200183,16.35 191.651009,16.35 C193.504404,16.3 195.357798,16.35 197.211193,16.35 C197.662018,16.35 197.762202,16.45 197.762202,16.9 C197.71211,17.5 197.71211,18.1 197.762202,18.7 C197.812294,19.15 197.611927,19.25 197.211193,19.25 L191.701101,19.25 C191.200183,19.25 191.049908,19.4 191.1,19.85 C191.150092,20.5 191.150092,21.15 191.1,21.8 C191.1,22.2 191.250275,22.3 191.600917,22.3 L198.162936,22.3 C198.613761,22.3 198.764037,22.4 198.764037,22.85 C198.713945,23.5 198.764037,24.15 198.764037,24.8 C198.764037,25.05 198.713945,25.2 198.413394,25.2 L188.194679,25.2 C187.743853,25.2 187.793945,24.95 187.793945,24.7 C187.743853,22.25 187.743853,19.95 187.743853,17.65 L187.743853,17.65 L187.743853,17.65 Z" id="Shape" fill="#009B85"></path>
                    <path d="M144.113945,17.65 L144.113945,10.7 C144.113945,10.35 144.214128,10.2 144.564771,10.2 L154.332661,10.2 C154.683303,10.2 154.833578,10.25 154.833578,10.65 C154.783486,11.3 154.783486,12 154.833578,12.7 C154.833578,13.1 154.733394,13.2 154.332661,13.2 L148.071193,13.2 C147.570275,13.2 147.470092,13.35 147.470092,13.8 C147.520183,14.45 147.520183,15.1 147.470092,15.75 C147.470092,16.1 147.570275,16.2 147.920917,16.2 L153.531193,16.2 C154.03211,16.2 154.132294,16.35 154.082202,16.8 C154.03211,17.4 154.03211,18.05 154.082202,18.65 C154.082202,19 153.982018,19.1 153.631376,19.1 L148.021101,19.1 C147.570275,19.1 147.42,19.25 147.470092,19.7 C147.520183,20.35 147.520183,21 147.470092,21.65 C147.470092,22.05 147.570275,22.15 147.971009,22.15 L154.482936,22.15 C154.933761,22.15 155.084037,22.25 155.084037,22.7 C155.033945,23.35 155.084037,24 155.084037,24.65 C155.084037,24.9 155.033945,25.05 154.733394,25.05 L144.514679,25.05 C144.113945,25.05 144.164037,24.8 144.164037,24.55 C144.113945,22.3 144.113945,20 144.113945,17.65 L144.113945,17.65 L144.113945,17.65 Z" id="Shape" fill="#009B85"></path>
                    <path d="M77.3917431,20.2 C78.4937615,21.1 79.5957798,21.9 81.0484404,22.2 C81.6495413,22.3 82.2506422,22.35 82.8016514,22.15 C83.3526606,21.95 83.7033028,21.6 83.7533945,20.95 C83.8034862,20.35 83.5029358,19.95 82.9519266,19.65 C82.2005505,19.3 81.4491743,19.1 80.6477064,18.9 C79.5957798,18.65 78.593945,18.3 77.6922936,17.75 C76.8908257,17.25 76.3899083,16.55 76.1394495,15.6 C75.4882569,12.7 76.9409174,10.5 79.946422,10 C82.3508257,9.6 84.5548624,10.15 86.5585321,11.5 C86.9091743,11.75 86.9091743,11.9 86.7088073,12.2 C86.3080734,12.75 85.9073394,13.3 85.5066055,13.9 C85.3062385,14.2 85.206055,14.2 84.9555963,14 C83.9537615,13.3 82.8517431,12.8 81.5994495,12.75 C81.3489908,12.75 81.0484404,12.75 80.7979817,12.8 C80.0966972,12.9 79.6458716,13.35 79.5456881,14 C79.4955963,14.6 79.746055,15.05 80.3972477,15.35 C81.2488073,15.75 82.1504587,15.9 83.0521101,16.15 C83.7033028,16.3 84.3044037,16.55 84.9055046,16.85 C86.4082569,17.6 87.2097248,18.75 87.2598165,20.45 C87.3099083,22.3 86.5585321,23.65 84.9555963,24.45 C82.5511927,25.6 80.146789,25.3 77.7924771,24.2 C77.0411009,23.85 76.3899083,23.35 75.7888073,22.85 C75.5383486,22.65 75.4882569,22.5 75.6886239,22.2 C76.2897248,21.65 76.8407339,20.9 77.3917431,20.2 L77.3917431,20.2 L77.3917431,20.2 Z" id="Shape" fill="#009B85"></path>
                    <path d="M179.628991,9.9 C181.382202,9.95 183.085321,10.45 184.638165,11.5 C184.988807,11.75 185.139083,11.9 184.78844,12.3 C184.387706,12.75 184.037064,13.3 183.736514,13.8 C183.486055,14.2 183.33578,14.25 182.935046,13.95 C181.782936,13.15 180.48055,12.65 179.02789,12.85 C178.226422,12.95 177.725505,13.4 177.675413,14.05 C177.575229,14.7 177.925872,15.15 178.677248,15.45 C179.378532,15.75 180.079817,15.9 180.781101,16.1 C181.382202,16.25 181.933211,16.4 182.48422,16.65 C184.638165,17.55 185.489725,18.9 185.33945,21.15 C185.239266,23 183.886789,24.5 181.883119,25 C178.827523,25.7 176.172661,24.9 173.818349,22.85 C173.56789,22.65 173.617982,22.5 173.818349,22.3 C174.319266,21.7 174.820183,21.1 175.321101,20.45 C175.521468,20.25 175.621651,20.2 175.87211,20.4 C176.873945,21.25 177.925872,21.95 179.278349,22.2 C179.829358,22.3 180.430459,22.35 180.981468,22.15 C181.482385,21.95 181.883119,21.65 181.933211,21.05 C181.983303,20.4 181.732844,19.95 181.181835,19.7 C180.580734,19.4 179.929541,19.2 179.278349,19.05 C178.326606,18.8 177.324771,18.5 176.423119,18.05 C174.970459,17.35 174.269174,16.2 174.219083,14.6 C174.168991,12.9 174.770092,11.55 176.272844,10.7 C177.224587,10.1 178.326606,9.9 179.628991,9.9 L179.628991,9.9 L179.628991,9.9 Z" id="Shape" fill="#009B85"></path>
                    <path d="M6.41174312,9.9 C8.06477064,9.95 9.81798165,10.45 11.3207339,11.5 C11.6713761,11.75 11.7715596,11.9 11.4710092,12.25 C11.0702752,12.75 10.719633,13.3 10.3689908,13.8 C10.1686239,14.15 9.96825688,14.25 9.61761468,13.95 C8.66587156,13.25 7.56385321,12.85 6.41174312,12.8 C6.01100917,12.75 5.61027523,12.8 5.20954128,12.95 C4.70862385,13.15 4.35798165,13.5 4.30788991,14.05 C4.25779817,14.65 4.50825688,15.05 5.05926606,15.3 C5.8106422,15.7 6.66220183,15.85 7.46366972,16.1 C8.3653211,16.35 9.26697248,16.7 10.1185321,17.1 C12.5730275,18.4 12.6231193,22.3 10.6194495,23.9 C9.36715596,24.9 7.96458716,25.2 6.46183486,25.2 C4.25779817,25.15 2.30422018,24.35 0.601100917,22.9 C0.300550459,22.65 0.250458716,22.45 0.551009174,22.15 C1.05192661,21.6 1.50275229,21 2.00366972,20.4 C2.2040367,20.15 2.35431193,20.15 2.60477064,20.35 C3.6066055,21.15 4.65853211,21.85 5.96091743,22.1 C6.56201835,22.2 7.11302752,22.25 7.6640367,22.05 C8.26513761,21.85 8.66587156,21.4 8.66587156,20.85 C8.7159633,20.25 8.3653211,19.8 7.86440367,19.55 C7.11302752,19.2 6.36165138,19 5.56018349,18.8 C4.65853211,18.55 3.80697248,18.25 2.95541284,17.85 C0.300550459,16.6 0.450825688,12.3 2.45449541,10.9 C3.55651376,10.25 4.80880734,9.9 6.41174312,9.9 L6.41174312,9.9 L6.41174312,9.9 Z" id="Shape" fill="#009B85"></path>
                    <path d="M150.024771,43.65 C147.520183,43.65 145.516514,42.8 143.763303,41.3 C143.512844,41.1 143.512844,40.95 143.713211,40.75 C144.214128,40.15 144.715046,39.55 145.215963,38.9 C145.41633,38.6 145.566606,38.65 145.817064,38.85 C146.919083,39.75 148.071193,40.5 149.523853,40.65 C150.024771,40.7 150.475596,40.65 150.926422,40.5 C151.477431,40.3 151.828073,39.9 151.878165,39.3 C151.928257,38.7 151.627706,38.3 151.126789,38.05 C150.325321,37.65 149.42367,37.45 148.522018,37.25 C147.870826,37.05 147.219633,36.85 146.56844,36.55 C144.965505,35.85 144.214128,34.6 144.164037,32.85 C144.113945,31.1 144.815229,29.75 146.418165,28.95 C148.57211,27.9 150.726055,28.15 152.88,28.95 C153.581284,29.2 154.182385,29.6 154.783486,30 C154.983853,30.15 155.033945,30.25 154.88367,30.5 C154.432844,31.05 154.03211,31.65 153.681468,32.25 C153.481101,32.6 153.330826,32.65 152.980183,32.4 C152.128624,31.75 151.126789,31.4 150.074862,31.25 C149.573945,31.2 149.123119,31.15 148.622202,31.35 C148.071193,31.55 147.72055,31.9 147.620367,32.5 C147.570275,33.15 147.870826,33.5 148.421835,33.75 C149.223303,34.15 150.074862,34.3 150.87633,34.55 C151.627706,34.75 152.328991,35 153.030275,35.35 C154.432844,36.05 155.234312,37.2 155.284404,38.8 C155.384587,40.55 154.733394,41.9 153.18055,42.85 C152.178716,43.45 151.026606,43.65 150.024771,43.65 L150.024771,43.65 L150.024771,43.65 Z" id="Shape" fill="#009B85"></path>
                    <path d="M162.798165,43.65 C160.493945,43.65 158.540367,42.8 156.787156,41.35 C156.486606,41.1 156.536697,40.95 156.737064,40.7 C157.18789,40.15 157.688807,39.6 158.089541,39.05 C158.34,38.7 158.490275,38.65 158.891009,38.95 C159.942936,39.85 161.095046,40.5 162.497615,40.7 C163.048624,40.75 163.549541,40.7 164.050459,40.5 C164.551376,40.3 164.851927,39.9 164.902018,39.35 C164.95211,38.8 164.65156,38.4 164.200734,38.15 C163.599633,37.85 162.998532,37.65 162.347339,37.5 C161.295413,37.25 160.243486,36.9 159.241651,36.45 C156.486606,35.25 156.636881,30.75 158.840917,29.4 C160.744404,28.2 162.748073,28.2 164.801835,28.65 C165.903853,28.9 166.855596,29.4 167.757248,30.05 C168.007706,30.25 168.057798,30.35 167.857431,30.65 C167.406606,31.2 167.005872,31.8 166.655229,32.4 C166.454862,32.7 166.304587,32.75 166.004037,32.5 C165.102385,31.85 164.10055,31.45 163.048624,31.3 C162.497615,31.25 161.946606,31.2 161.445688,31.45 C160.944771,31.7 160.64422,32.05 160.64422,32.6 C160.594128,33.2 160.894679,33.55 161.395596,33.8 C162.197064,34.2 163.098716,34.4 164.000367,34.6 C164.902018,34.85 165.703486,35.15 166.504954,35.6 C168.909358,36.95 168.95945,40.9 166.855596,42.45 C165.703486,43.25 164.501284,43.65 162.798165,43.65 L162.798165,43.65 L162.798165,43.65 Z" id="Shape" fill="#009B85"></path>
                    <path d="M139.705872,20.3 C140.357064,20.95 141.058349,21.6 141.709541,22.2 C141.96,22.45 141.759633,22.55 141.609358,22.7 C140.106606,24.3 138.253211,25.25 135.999083,25.25 C133.093761,25.25 130.639266,24.25 129.136514,21.7 C126.381468,17.15 128.73578,10.75 134.696697,9.95 C137.35156,9.6 139.705872,10.35 141.609358,12.3 C141.909908,12.6 141.909908,12.8 141.609358,13.1 C141.10844,13.6 140.657615,14.15 140.206789,14.7 C139.95633,15 139.806055,15 139.555596,14.7 C138.002752,13.1 135.848807,12.6 133.945321,13.5 C132.242202,14.3 131.440734,15.7 131.440734,17.55 C131.440734,19.4 132.19211,20.95 133.945321,21.7 C135.698532,22.5 137.35156,22.15 138.854312,21.05 C139.204954,20.85 139.455413,20.5 139.705872,20.3 L139.705872,20.3 L139.705872,20.3 Z" id="Shape" fill="#009B85"></path>
                    <path d="M194.456147,43.65 C190.699266,43.65 187.743853,41.4 186.942385,38 C186.090826,34.45 187.593578,30.95 190.699266,29.25 C193.754862,27.55 197.912477,28.2 200.316881,30.7 C200.617431,31 200.667523,31.2 200.366972,31.5 C199.866055,32 199.415229,32.5 199.014495,33 C198.713945,33.4 198.56367,33.4 198.213028,33.05 C196.610092,31.35 194.105505,31 192.202018,32.2 C190.24844,33.45 189.597248,36.2 190.749358,38.35 C191.801284,40.35 194.355963,41.1 196.56,40.1 C197.211193,39.8 197.762202,39.4 198.213028,38.85 C198.413394,38.6 198.56367,38.6 198.764037,38.85 C199.264954,39.4 199.765872,39.95 200.316881,40.5 C200.567339,40.75 200.567339,40.9 200.316881,41.15 C198.663853,42.75 196.760367,43.7 194.456147,43.65 L194.456147,43.65 L194.456147,43.65 Z" id="Shape" fill="#009B85"></path>
                    <path d="M21.3390826,9.9 C23.6433028,9.95 25.5968807,10.7 27.1998165,12.4 C27.4502752,12.7 27.4502752,12.85 27.1998165,13.1 C26.6988991,13.6 26.2480734,14.15 25.7972477,14.7 C25.546789,15.05 25.3965138,15.05 25.0959633,14.7 C23.4429358,12.9 20.7880734,12.6 18.8845872,13.95 C16.8809174,15.35 16.38,18.5 17.8827523,20.5 C19.4355963,22.5 22.3910092,22.8 24.4447706,21.1 C24.5449541,21.05 24.6451376,20.95 24.6952294,20.85 C25.2963303,20.25 25.2963303,20.25 25.8974312,20.85 C26.2981651,21.25 26.6488073,21.7 27.0495413,22.05 C27.4001835,22.35 27.3500917,22.55 27.0495413,22.85 C25.546789,24.35 23.7434862,25.3 21.5895413,25.3 C18.8845872,25.35 16.5302752,24.45 14.9273394,22.15 C11.7715596,17.65 14.0757798,10.85 20.2370642,10 C20.5877064,9.95 20.9383486,9.9 21.3390826,9.9 L21.3390826,9.9 L21.3390826,9.9 Z" id="Shape" fill="#009B85"></path>
                    <path d="M51.1436697,19.15 L51.1436697,24.6 C51.1436697,25 51.0434862,25.15 50.6427523,25.1 C49.8913761,25.05 49.14,25.05 48.3886239,25.1 C47.8877064,25.15 47.7875229,24.9 47.7875229,24.45 C47.7875229,20.9 47.7875229,17.4 47.8376147,13.85 C47.8376147,13.3 47.7374312,13.05 47.0862385,13.1 C46.0844037,13.15 45.0324771,13.1 44.0306422,13.1 C43.7300917,13.1 43.5798165,13.05 43.5798165,12.7 L43.5798165,10.6 C43.5798165,10.3 43.6299083,10.2 43.9304587,10.2 L54.9506422,10.2 C55.2511927,10.2 55.3513761,10.3 55.3513761,10.6 L55.3513761,12.65 C55.3513761,13 55.2511927,13.15 54.8504587,13.15 C53.7484404,13.1 52.6965138,13.15 51.5944954,13.15 C51.1937615,13.15 51.093578,13.25 51.093578,13.65 C51.1436697,15.5 51.1436697,17.3 51.1436697,19.15 L51.1436697,19.15 L51.1436697,19.15 Z" id="Shape" fill="#009B85"></path>
                    <path d="M55.9524771,37.5 L55.9524771,32.1 C55.9524771,31.6 55.8022018,31.5 55.3513761,31.5 C54.2994495,31.55 53.2475229,31.5 52.1955963,31.5 C51.7948624,31.5 51.6946789,31.4 51.6946789,31 C51.7447706,30.35 51.6946789,29.65 51.6946789,28.95 C51.6946789,28.65 51.7948624,28.55 52.0954128,28.55 L63.0655046,28.55 C63.4161468,28.55 63.5163303,28.65 63.4662385,29 L63.4662385,31.1 C63.4662385,31.4 63.366055,31.5 63.0655046,31.5 L59.9097248,31.5 C59.3587156,31.5 59.2084404,31.6 59.2084404,32.2 C59.2585321,35.75 59.2084404,39.3 59.2585321,42.85 C59.2585321,43.4 59.1082569,43.5 58.6073394,43.45 C57.9561468,43.4 57.2548624,43.4 56.553578,43.45 C56.0526606,43.5 55.8522936,43.35 55.8522936,42.8 C55.9524771,41.05 55.9524771,39.3 55.9524771,37.5 L55.9524771,37.5 L55.9524771,37.5 Z" id="Shape" fill="#009B86"></path>
                    <path d="M229.570459,37.55 L229.570459,43 C229.570459,43.4 229.470275,43.55 229.069541,43.5 C228.318165,43.45 227.616881,43.45 226.865505,43.5 C226.364587,43.55 226.214312,43.4 226.214312,42.9 C226.264404,39.35 226.214312,35.75 226.264404,32.2 C226.264404,31.65 226.114128,31.55 225.613211,31.6 C224.611376,31.65 223.55945,31.6 222.557615,31.6 C222.156881,31.6 222.056697,31.45 222.056697,31.1 C222.106789,30.45 222.056697,29.75 222.056697,29.05 C222.056697,28.8 222.156881,28.7 222.407339,28.7 L233.427523,28.7 C233.778165,28.7 233.828257,28.85 233.778165,29.1 L233.778165,31.2 C233.778165,31.55 233.62789,31.6 233.327339,31.6 L230.17156,31.6 C229.670642,31.6 229.520367,31.7 229.520367,32.2 C229.570459,33.95 229.570459,35.75 229.570459,37.55 L229.570459,37.55 L229.570459,37.55 Z" id="Shape" fill="#009B86"></path>
                    <path d="M64.1174312,19.15 L64.1174312,24.6 C64.1174312,25 64.0172477,25.15 63.6165138,25.1 C62.8651376,25.05 62.0636697,25.05 61.3122936,25.1 C60.8614679,25.1 60.7612844,24.95 60.7612844,24.55 L60.7612844,13.7 C60.7612844,13.2 60.6110092,13.1 60.1601835,13.1 C59.1082569,13.15 58.0563303,13.1 57.0044037,13.1 C56.6036697,13.1 56.5034862,13 56.553578,12.6 C56.6036697,11.95 56.553578,11.25 56.553578,10.55 C56.553578,10.25 56.6036697,10.15 56.9543119,10.15 L67.9244037,10.15 C68.2249541,10.15 68.3251376,10.2 68.3251376,10.5 L68.3251376,12.65 C68.3251376,12.95 68.2249541,13.05 67.9244037,13.05 L64.6183486,13.05 C64.2176147,13.05 64.1174312,13.15 64.1174312,13.55 C64.1675229,15.45 64.1174312,17.3 64.1174312,19.15 L64.1174312,19.15 L64.1174312,19.15 Z" id="Shape" fill="#009B85"></path>
                    <path d="M110.702752,17.65 L110.702752,10.7 C110.702752,10.35 110.802936,10.2 111.20367,10.2 C112.005138,10.25 112.806606,10.25 113.557982,10.2 C113.958716,10.2 114.058899,10.3 114.058899,10.7 L114.058899,21.45 C114.058899,22 114.209174,22.05 114.710092,22.05 C116.463303,22 118.166422,22.05 119.919633,22.05 C120.270275,22.05 120.42055,22.15 120.370459,22.5 C120.320367,23.2 120.370459,23.95 120.370459,24.65 C120.370459,24.95 120.320367,25.05 119.969725,25.05 L111.103486,25.05 C110.702752,25.05 110.702752,24.85 110.702752,24.55 L110.702752,17.65 L110.702752,17.65 L110.702752,17.65 Z" id="Shape" fill="#009B86"></path>
                    <path d="M125.730275,17.65 L125.730275,24.5 C125.730275,25.05 125.58,25.15 125.079083,25.1 C124.327706,25.05 123.526239,25.1 122.774862,25.1 C122.42422,25.1 122.324037,25 122.324037,24.7 L122.324037,10.7 C122.324037,10.4 122.374128,10.25 122.724771,10.25 C123.57633,10.25 124.377798,10.3 125.229358,10.25 C125.680183,10.25 125.730275,10.4 125.730275,10.8 L125.730275,17.65 L125.730275,17.65 L125.730275,17.65 Z" id="Shape" fill="#019B86"></path>
                    <path d="M238.937615,36.15 L238.937615,43 C238.937615,43.4 238.837431,43.55 238.436697,43.5 C237.635229,43.45 236.833761,43.5 236.082385,43.5 C235.731743,43.5 235.581468,43.45 235.581468,43.05 L235.581468,29.1 C235.581468,28.75 235.681651,28.65 236.032294,28.65 C236.833761,28.65 237.635229,28.7 238.486789,28.65 C238.887523,28.65 238.937615,28.8 238.937615,29.15 L238.937615,36.15 L238.937615,36.15 L238.937615,36.15 Z" id="Shape" fill="#009B86"></path>
                    <path d="M73.6849541,17.65 L73.6849541,24.6 C73.6849541,24.95 73.6348624,25.1 73.2341284,25.1 C72.4326606,25.05 71.6311927,25.05 70.8798165,25.1 C70.5291743,25.1 70.3788991,25 70.3788991,24.6 L70.3788991,10.7 C70.3788991,10.35 70.4790826,10.2 70.8798165,10.2 C71.6812844,10.25 72.4827523,10.25 73.2341284,10.2 C73.6849541,10.2 73.7350459,10.35 73.7350459,10.75 C73.6849541,13.05 73.6849541,15.35 73.6849541,17.65 L73.6849541,17.65 L73.6849541,17.65 Z" id="Shape" fill="#009C86"></path>
                    <path d="M205.927156,36.05 L205.927156,43 C205.927156,43.4 205.826972,43.55 205.426239,43.5 C204.624771,43.45 203.823303,43.5 203.071927,43.5 C202.771376,43.5 202.621101,43.45 202.621101,43.1 L202.621101,29.1 C202.621101,28.75 202.721284,28.65 203.071927,28.7 C203.873394,28.7 204.674862,28.75 205.526422,28.7 C205.927156,28.7 205.977248,28.85 205.977248,29.2 C205.927156,31.45 205.927156,33.75 205.927156,36.05 L205.927156,36.05 L205.927156,36.05 L205.927156,36.05 Z" id="Shape" fill="#009B85"></path>
                    <path d="M222.257064,20.95 L222.257064,17.55 C222.257064,17.2 222.357248,17.1 222.70789,17.1 L227.466606,17.1 C227.867339,17.1 227.967523,17.25 227.917431,17.6 C227.917431,18.75 227.917431,18.7 226.815413,18.7 C226.064037,18.65 225.262569,18.7 224.511193,18.7 C224.16055,18.7 224.010275,18.8 224.010275,19.2 C224.010275,20.3 224.010275,20.3 225.112294,20.3 L227.115963,20.3 C227.466606,20.3 227.516697,20.4 227.566789,20.75 C227.616881,21.85 227.616881,21.85 226.564954,21.85 L224.411009,21.85 C224.110459,21.85 224.010275,21.95 224.010275,22.25 C223.960183,23.45 223.960183,23.45 225.162385,23.45 L227.666972,23.45 C227.967523,23.45 228.117798,23.55 228.117798,23.85 C228.117798,25 228.16789,25 227.01578,25 L222.808073,25 C222.407339,25 222.307156,24.9 222.307156,24.5 C222.257064,23.25 222.257064,22.1 222.257064,20.95 L222.257064,20.95 L222.257064,20.95 Z" id="Shape" fill="#D03B8D"></path>
                    <path d="M233.026789,25 C231.824587,25 230.822752,24.6 229.921101,23.95 C229.62055,23.7 229.62055,23.55 229.871009,23.25 C230.572294,22.4 230.572294,22.35 231.473945,22.95 C232.024954,23.3 232.575963,23.5 233.227156,23.4 C233.62789,23.35 233.92844,23.2 233.978532,22.75 C234.028624,22.35 233.728073,22.1 233.377431,22 C232.676147,21.75 231.974862,21.6 231.273578,21.35 C230.321835,21 229.871009,20.3 229.921101,19.3 C229.971193,18.25 230.371927,17.55 231.373761,17.2 C232.826422,16.7 234.128807,17 235.381101,17.8 C235.581468,17.9 235.681651,18.05 235.481284,18.25 C235.481284,18.25 235.481284,18.3 235.431193,18.3 C235.230826,18.6 235.08055,19 234.78,19.15 C234.47945,19.35 234.178899,18.9 233.878349,18.8 C233.427523,18.65 232.976697,18.5 232.47578,18.55 C232.075046,18.6 231.774495,18.75 231.724404,19.15 C231.62422,19.55 231.924771,19.8 232.275413,19.95 C233.026789,20.25 233.878349,20.3 234.579633,20.7 C236.182569,21.55 236.232661,23.65 234.729908,24.65 C234.228991,24.9 233.62789,25 233.026789,25 L233.026789,25 L233.026789,25 Z" id="Shape" fill="#D03B8D"></path>
                    <path d="M240.841101,21.8 L240.841101,24.5 C240.841101,24.8 240.740917,24.9 240.440367,24.9 C239.08789,24.95 239.08789,24.95 239.08789,23.6 L239.08789,19.1 C239.08789,18.75 238.987706,18.6 238.586972,18.6 C238.136147,18.65 237.685321,18.6 237.234495,18.6 C236.933945,18.6 236.833761,18.5 236.833761,18.2 C236.78367,17.05 236.78367,17.05 237.93578,17.05 L242.494128,17.05 C242.894862,17.05 243.045138,17.15 242.995046,17.55 C242.995046,18.55 242.995046,18.55 241.993211,18.55 C240.740917,18.55 240.740917,18.55 240.740917,19.75 C240.841101,20.5 240.841101,21.15 240.841101,21.8 L240.841101,21.8 L240.841101,21.8 Z" id="Shape" fill="#D03B8C"></path>
                    <path d="M21.5394495,37.75 C22.8919266,37.4 24.0440367,37.75 25.146055,38.35 C25.9475229,38.8 26.6988991,39.35 27.3500917,39.95 C27.9511927,40.55 28.6023853,41.15 29.253578,41.7 C29.9047706,42.25 30.6561468,42.7 31.5077064,43.15 C30.9566972,43.45 30.4056881,43.45 29.9047706,43.3 C29.3036697,43.1 28.7025688,42.85 28.1014679,42.65 C26.8491743,42.15 25.546789,42 24.2444037,42.2 L23.9438532,42.2 C24.0440367,41.8 24.3445872,41.5 24.5449541,41.2 C24.9957798,40.5 24.9456881,40 24.3445872,39.4 C23.593211,38.65 22.5913761,38.25 21.5394495,37.75 L21.5394495,37.75 L21.5394495,37.75 Z" id="Shape" fill="#009B86"></path>
                    <path d="M47.5370642,42.25 C45.633578,41.85 43.9304587,42.35 42.2273394,43.15 C41.5761468,43.45 40.8748624,43.55 40.173578,43.25 L40.173578,43.15 C42.0269725,42.25 43.3794495,40.7 44.9322936,39.4 C46.1344954,38.4 47.4368807,37.65 49.0398165,37.65 C49.340367,37.65 49.6409174,37.7 49.9414679,37.8 C49.4906422,38 49.0899083,38.2 48.7392661,38.4 C48.4387156,38.55 48.0880734,38.75 47.7875229,38.95 C46.4851376,39.8 46.3849541,40.45 47.2866055,41.7 C47.386789,41.8 47.587156,41.95 47.5370642,42.25 L47.5370642,42.25 L47.5370642,42.25 Z" id="Shape" fill="#009C86"></path>
                    <path d="M249.306606,21 L249.306606,24.4 C249.306606,24.75 249.206422,24.85 248.85578,24.85 C247.603486,24.85 247.603486,24.9 247.603486,23.65 L247.603486,19.1 C247.603486,18.7 247.503303,18.5 247.052477,18.55 C246.751927,18.55 246.301101,18.75 246.150826,18.45 C246.00055,18.1 246.100734,17.65 246.100734,17.25 C246.100734,17.05 246.251009,17.05 246.401284,17.05 L248.955963,17.05 C249.306606,17.05 249.256514,17.25 249.256514,17.45 C249.306606,18.65 249.306606,19.85 249.306606,21 L249.306606,21 L249.306606,21 Z" id="Shape" fill="#D03B8C"></path>
                    <path d="M34.913945,9.3 C34.7636697,9.55 34.5633028,9.8 34.4130275,10.1 C34.0122936,8.4 33.6616514,6.7 33.1607339,5.05 C32.76,3.85 32.3592661,2.7 31.9585321,1.5 C31.7581651,0.9 31.8583486,0.8 32.8100917,0.5 C33.3611009,0.35 33.4111927,0.6 33.5113761,1 C34.1124771,3.75 34.6133945,6.5 34.913945,9.3 L34.913945,9.3 L34.913945,9.3 Z" id="Shape" fill="#D03B8D"></path>
                    <path d="M36.9677064,10.1 C36.7673394,9.8 36.6170642,9.55 36.4166972,9.25 C36.667156,7.75 36.8675229,6.3 37.1179817,4.8 C37.3684404,3.5 37.6689908,2.25 37.8693578,0.95 C37.9695413,0.45 38.22,0.4 38.6708257,0.5 C39.5724771,0.8 39.6726606,0.9 39.3220183,1.8 C38.2700917,4.5 37.5187156,7.25 36.9677064,10.1 L36.9677064,10.1 L36.9677064,10.1 Z" id="Shape" fill="#D03B8D"></path>
                    <path d="M36.0159633,8.65 C35.7655046,8.3 35.5651376,8.3 35.3647706,8.65 C35.2144954,6 35.0642202,3.35 34.8638532,0.7 C34.8137615,0.25 34.9640367,2.72143419e-14 35.4649541,0.05 L35.9658716,0.05 C36.3666055,0.05 36.5669725,0.2 36.5168807,0.65 C36.3666055,3.3 36.1662385,5.95 36.0159633,8.65 L36.0159633,8.65 L36.0159633,8.65 Z" id="Shape" fill="#D03B8D"></path>
                    <path d="M38.4704587,9.15 C38.3201835,8.95 38.1699083,8.85 38.019633,9.2 C37.8693578,9.45 37.7190826,9.7 37.5187156,9.95 C37.7691743,8.55 38.3201835,7.2 38.7710092,5.9 C39.2218349,4.6 39.772844,3.35 40.373945,2.15 C40.5242202,1.85 40.6244037,1.4 41.1754128,1.7 C41.926789,2.15 42.0770642,2.4 41.7765138,2.9 C40.4741284,4.85 39.3721101,6.95 38.4704587,9.15 L38.4704587,9.15 L38.4704587,9.15 Z" id="Shape" fill="#D03B8D"></path>
                    <path d="M33.8119266,9.95 C33.6616514,9.7 33.4612844,9.45 33.3110092,9.15 C33.1607339,8.9 33.0605505,8.95 32.9102752,9.1 C32.1088073,7.45 31.3574312,5.75 30.4056881,4.15 C30.1051376,3.7 29.8045872,3.25 29.5541284,2.8 C29.253578,2.35 29.453945,2.05 30.2053211,1.65 C30.6561468,1.4 30.806422,1.7 30.9566972,2 C32.1588991,4.45 33.1106422,7 33.8620183,9.6 C33.8119266,9.7 33.8119266,9.85 33.8119266,9.95 L33.8119266,9.95 L33.8119266,9.95 Z" id="Shape" fill="#D03B8D"></path>
                    <path d="M32.559633,9.65 C32.4594495,9.9 32.3091743,10.15 32.1088073,10.35 C30.8565138,8.25 29.4038532,6.25 27.7007339,4.5 C27.4001835,4.2 27.5504587,3.65 28.1014679,3.25 C28.5022018,2.95 28.7025688,3.25 28.9029358,3.5 C30.3055046,5.45 31.5077064,7.5 32.559633,9.65 L32.559633,9.65 L32.559633,9.65 Z" id="Shape" fill="#D03B8D"></path>
                    <path d="M39.2719266,10.4 C39.0715596,10.2 38.9212844,9.95 38.8211009,9.7 C39.8229358,7.6 40.9750459,5.6 42.3776147,3.75 C42.5779817,3.5 42.6781651,3.05 43.0788991,3.2 C43.479633,3.35 43.68,3.75 43.8302752,4.1 C43.9304587,4.35 43.7300917,4.5 43.5798165,4.65 C41.8766972,6.35 40.4741284,8.3 39.2719266,10.4 L39.2719266,10.4 L39.2719266,10.4 Z" id="Shape" fill="#D03B8D"></path>
                    <path d="M31.9084404,10.7 C31.8082569,10.85 31.7581651,10.95 31.6579817,11.1 C30.7563303,9.95 29.7544954,8.9 28.6524771,8 C28.3018349,7.7 28.3519266,7.4 28.6023853,7.1 C28.9029358,6.75 29.1033028,7.05 29.3036697,7.25 C30.2554128,8.35 31.1570642,9.45 31.9084404,10.7 L31.9084404,10.7 L31.9084404,10.7 Z" id="Shape" fill="#D13C8D"></path>
                    <path d="M39.6726606,11.05 C39.5724771,10.9 39.5223853,10.75 39.4222018,10.65 C40.2737615,9.5 41.0752294,8.3 42.0770642,7.25 C42.2774312,7.05 42.4777982,6.75 42.7783486,7.1 C43.0288073,7.35 43.0788991,7.65 42.7282569,7.95 C41.5761468,8.85 40.5743119,9.95 39.6726606,11.05 L39.6726606,11.05 L39.6726606,11.05 Z" id="Shape" fill="#D03D8E"></path>
                    <path d="M245.249174,24 C245.249174,24.55 244.84844,25 244.297431,25 C243.69633,25 243.245505,24.6 243.295596,24 C243.295596,23.45 243.746422,23 244.297431,23 C244.84844,23 245.249174,23.4 245.249174,24 L245.249174,24 L245.249174,24 Z" id="Shape" fill="#D13C8D"></path>
                    <path d="M27.099633,27.5 L26.9994495,27.4 C27.0495413,27.3 27.099633,27.2 27.1497248,27.1 C27.2499083,27.25 27.1998165,27.4 27.099633,27.5 L27.099633,27.5 L27.099633,27.5 Z" id="Shape" fill="#5AC0AC"></path>
                    <path d="M77.992844,42.9 C76.9409174,41.45 75.9390826,39.95 74.887156,38.5 C74.686789,38.2 74.686789,38.1 75.0374312,37.95 C76.1394495,37.45 76.8908257,36.55 77.1913761,35.4 C77.4919266,34.35 77.4919266,33.25 77.3416514,32.2 C77.0411009,30.5 76.0392661,29.45 74.3862385,29 C73.6348624,28.8 72.933578,28.65 72.1822018,28.65 C70.0783486,28.65 68.0245872,28.65 65.9207339,28.6 C65.4699083,28.6 65.3697248,28.75 65.3697248,29.15 C65.4198165,30.25 65.3697248,31.35 65.3697248,32.45 L65.3697248,42.85 C65.3697248,43.3 65.4699083,43.45 65.9708257,43.45 C66.7722936,43.4 67.5737615,43.45 68.3251376,43.45 C68.6757798,43.45 68.7759633,43.35 68.7759633,43 L68.7759633,40.45 C68.7759633,39.9 68.5255046,39.15 68.8761468,38.8 C69.226789,38.45 69.9781651,38.75 70.5792661,38.7 C70.9299083,38.65 71.0801835,38.8 71.2805505,39.05 C72.1822018,40.4 73.133945,41.7 74.0355963,43.05 C74.1858716,43.25 74.286055,43.45 74.6366972,43.45 L78.393578,43.45 C78.193211,43.25 78.0930275,43.1 77.992844,42.9 L77.992844,42.9 L77.992844,42.9 Z M73.9855046,34.2 C73.8352294,35 73.3343119,35.55 72.532844,35.7 C71.8315596,35.85 71.1302752,35.8 70.4790826,35.8 L69.0765138,35.8 C68.826055,35.8 68.7258716,35.75 68.7258716,35.5 L68.7258716,31.8 C68.7258716,31.6 68.7759633,31.45 69.026422,31.45 C70.1785321,31.5 71.3306422,31.35 72.4827523,31.55 C73.7350459,31.85 74.2359633,32.75 73.9855046,34.2 L73.9855046,34.2 L73.9855046,34.2 Z" id="Shape" fill="#009B85"></path>
                    <path d="M208.181284,10.35 C205.977248,10.15 203.773211,10.3 201.569174,10.25 C201.16844,10.25 201.218532,10.5 201.218532,10.75 L201.218532,17.7 L201.218532,24.65 C201.218532,24.9 201.16844,25.15 201.569174,25.15 C203.823303,25.1 206.127523,25.3 208.381651,25 C210.184954,24.75 211.837982,24.15 213.040183,22.7 C214.292477,21.2 214.693211,19.45 214.693211,17.55 C214.693211,13.45 212.238716,10.7 208.181284,10.35 L208.181284,10.35 L208.181284,10.35 Z M210.134862,21 C209.183119,21.9 207.980917,22.1 206.778716,22.15 L205.17578,22.15 C204.775046,22.15 204.624771,22.05 204.674862,21.65 C204.724954,20.3 204.674862,18.95 204.674862,17.6 L204.674862,13.6 C204.674862,13.25 204.724954,13.1 205.125688,13.15 C206.177615,13.2 207.229541,13.1 208.231376,13.35 C209.984587,13.75 211.086606,14.8 211.337064,16.55 C211.487339,18.2 211.437248,19.8 210.134862,21 L210.134862,21 L210.134862,21 Z" id="Shape" fill="#009B85"></path>
                    <path d="M108.548807,33.05 C107.396697,30 104.89211,28.9 101.886606,28.7 C99.9831193,28.6 98.079633,28.7 96.126055,28.65 C95.6752294,28.65 95.5249541,28.75 95.5249541,29.25 C95.5750459,31.55 95.5249541,33.8 95.5249541,36.1 L95.5249541,43 C95.5249541,43.45 95.6752294,43.55 96.0759633,43.55 L101.085138,43.55 C102.237248,43.55 103.389358,43.35 104.491376,43 C106.545138,42.3 107.947706,40.9 108.598899,38.85 C109.250092,36.85 109.250092,34.9 108.548807,33.05 L108.548807,33.05 L108.548807,33.05 Z M105.543303,37.5 C105.092477,39.3 103.689908,40.4 101.686239,40.5 C100.884771,40.55 100.083303,40.5 99.3319266,40.55 C98.9812844,40.55 98.9311927,40.4 98.9311927,40.1 L98.9311927,38.1 L98.9311927,36.1 L98.9311927,32.1 C98.9311927,31.75 98.9812844,31.6 99.3820183,31.6 C100.28367,31.65 101.185321,31.55 102.086972,31.7 C104.291009,32.05 105.493211,33.35 105.693578,35.6 C105.74367,36.2 105.693578,36.85 105.543303,37.5 L105.543303,37.5 L105.543303,37.5 Z" id="Shape" fill="#009B85"></path>
                    <path d="M249.006055,28.3 C244.54789,28.3 241.141651,31.6 241.141651,36 C241.141651,40.2 244.497798,43.55 248.705505,43.65 C253.113578,43.8 256.770275,40.5 256.770275,36.2 C256.870459,31.6 253.614495,28.3 249.006055,28.3 L249.006055,28.3 L249.006055,28.3 Z M251.16,40.15 C248.404954,41.75 244.898532,39.75 244.698165,36.45 L244.698165,35.95 C244.698165,33.8 246.050642,31.85 247.954128,31.35 C250.458716,30.7 253.013394,32.45 253.364037,35.1 C253.664587,37.25 252.813028,39.15 251.16,40.15 L251.16,40.15 L251.16,40.15 Z" id="Shape" fill="#009B85"></path>
                    <path d="M177.575229,28.3 C173.117064,28.3 169.861101,31.55 169.760917,35.9 C169.660734,40.15 173.167156,43.5 177.274679,43.6 C181.732844,43.75 185.439633,40.35 185.389541,35.95 C185.289358,31.6 182.033394,28.3 177.575229,28.3 L177.575229,28.3 L177.575229,28.3 Z M180.680917,39.35 C179.02789,41.15 176.272844,41.2 174.569725,39.45 C172.315596,37.15 172.916697,33.05 175.771927,31.65 C176.373028,31.35 176.974128,31.2 177.625321,31.25 C179.929541,31.25 181.933211,33.3 181.983303,35.75 C181.983303,37.1 181.582569,38.3 180.680917,39.35 L180.680917,39.35 L180.680917,39.35 Z" id="Shape" fill="#009B85"></path>
                    <path d="M94.2726606,42.85 C92.4693578,38.7 90.7161468,34.6 88.912844,30.45 C88.6623853,29.85 88.5622018,29.1 88.1113761,28.75 C87.6605505,28.4 86.8590826,28.75 86.2078899,28.65 C85.206055,28.5 84.7552294,28.95 84.3544954,29.85 C82.5011009,34.25 80.5976147,38.65 78.6941284,43 C78.4937615,43.4 78.593945,43.5 79.0447706,43.5 C79.8963303,43.45 80.7979817,43.5 81.6495413,43.5 C82.0001835,43.5 82.1504587,43.4 82.2506422,43.1 C82.6012844,42.3 82.9519266,41.5 83.2524771,40.7 C83.3526606,40.4 83.5530275,40.25 83.9036697,40.25 L89.1633028,40.25 C89.5640367,40.25 89.7143119,40.4 89.8144954,40.7 C90.1150459,41.5 90.5157798,42.3 90.8163303,43.1 C90.9165138,43.3 90.9666055,43.45 91.267156,43.45 L94.4229358,43.45 C94.5231193,43.2 94.372844,43.05 94.2726606,42.85 L94.2726606,42.85 L94.2726606,42.85 Z M87.9611009,37.35 L84.6550459,37.35 C85.2561468,35.95 85.8572477,34.6 86.4583486,33.25 C86.6587156,33.3 86.6587156,33.45 86.7088073,33.6 C87.2097248,34.75 87.6605505,35.85 88.1614679,37 C88.2616514,37.2 88.3618349,37.35 87.9611009,37.35 L87.9611009,37.35 L87.9611009,37.35 Z" id="Shape" fill="#009B85"></path>
                    <path d="M222.958349,43 C220.954679,38.35 218.951009,33.7 216.947339,29.05 C216.797064,28.75 216.646789,28.65 216.296147,28.65 C215.544771,28.65 214.743303,28.7 213.991927,28.65 C213.591193,28.65 213.440917,28.8 213.340734,29.1 C212.94,30.1 212.489174,31.05 212.08844,32 C210.485505,35.65 208.932661,39.3 207.329725,42.95 C207.129358,43.4 207.279633,43.45 207.680367,43.45 C208.531927,43.45 209.333394,43.4 210.184954,43.45 C210.585688,43.45 210.786055,43.35 210.93633,43 C211.236881,42.2 211.637615,41.4 211.938165,40.6 C212.038349,40.3 212.188624,40.25 212.489174,40.25 L217.848991,40.25 C218.199633,40.25 218.349908,40.35 218.500183,40.7 C218.850826,41.5 219.201468,42.35 219.55211,43.15 C219.602202,43.3 219.652294,43.5 219.952844,43.5 L223.258899,43.5 C223.058532,43.3 223.00844,43.15 222.958349,43 L222.958349,43 L222.958349,43 Z M213.290642,37.35 C213.891743,35.95 214.492844,34.6 215.093945,33.15 C215.745138,34.6 216.296147,35.95 216.897248,37.35 L213.290642,37.35 L213.290642,37.35 L213.290642,37.35 Z" id="Shape" fill="#009B85"></path>
                    <path d="M143.312477,43.05 C141.258716,38.35 139.255046,33.7 137.251376,29 C137.151193,28.75 137.000917,28.65 136.750459,28.65 C135.948991,28.65 135.147523,28.7 134.396147,28.65 C133.995413,28.65 133.845138,28.8 133.694862,29.15 C132.642936,31.65 131.540917,34.1 130.488991,36.6 C129.537248,38.75 128.635596,40.9 127.683853,43.05 C127.533578,43.35 127.483486,43.55 127.934312,43.5 C128.835963,43.45 129.737615,43.5 130.639266,43.5 C130.889725,43.5 131.04,43.4 131.140183,43.15 C131.440734,42.35 131.841468,41.6 132.142018,40.8 C132.292294,40.4 132.492661,40.25 132.943486,40.25 C134.245872,40.3 135.548257,40.25 136.850642,40.25 C137.401651,40.25 138.153028,40 138.553761,40.35 C138.954495,40.65 139.054679,41.35 139.305138,41.9 C139.555596,42.4 139.65578,43.05 140.056514,43.4 C140.457248,43.75 141.158532,43.45 141.65945,43.5 L143.062018,43.5 C143.412661,43.5 143.462752,43.4 143.312477,43.05 L143.312477,43.05 L143.312477,43.05 Z M133.644771,37.35 C134.245872,35.95 134.846972,34.6 135.498165,33.1 C136.099266,34.55 136.700367,35.9 137.301468,37.35 L133.644771,37.35 L133.644771,37.35 L133.644771,37.35 Z" id="Shape" fill="#009B85"></path>
                    <path d="M41.4258716,13.8 C40.7746789,12.95 40.2737615,12 39.6726606,11.1 C39.6726606,10.9 39.5724771,10.75 39.4222018,10.7 C39.3721101,10.6 39.3220183,10.5 39.2719266,10.45 C39.2218349,10.15 39.0715596,9.9 38.8211009,9.75 C38.7209174,9.6 38.5706422,9.4 38.4704587,9.25 C38.22,8.85 38.1699083,8.85 37.9194495,9.2 C37.7691743,9.45 37.6689908,9.75 37.5688073,10 C37.4686239,10.15 37.4185321,10.45 37.2181651,10.5 C37.0678899,10.55 37.0177982,10.3 36.9677064,10.2 C36.8675229,9.9 36.8174312,9.5 36.4166972,9.35 C36.266422,9.2 36.1161468,9 36.0159633,8.75 C35.9157798,8.6 35.9157798,8.35 35.6653211,8.35 C35.4148624,8.35 35.4148624,8.6 35.3146789,8.75 C35.1644037,8.95 35.0141284,9.2 34.8638532,9.4 C34.513211,9.55 34.4631193,9.9 34.3629358,10.2 C34.312844,10.35 34.2627523,10.55 34.1124771,10.55 C33.9121101,10.5 33.8620183,10.25 33.7618349,10.05 C33.6616514,9.75 33.5614679,9.5 33.3611009,9.25 C33.2108257,9.05 33.0104587,8.85 32.8100917,9.25 C32.76,9.45 32.6097248,9.65 32.4594495,9.8 C32.1588991,9.95 32.1088073,10.25 32.0086239,10.5 C31.9585321,10.6 31.8583486,10.7 31.8082569,10.8 C31.6078899,10.85 31.6078899,11 31.5577982,11.2 C31.0568807,12.05 30.5559633,12.95 29.9548624,13.75 C28.6023853,15.5 28.1515596,17.45 28.5522936,19.55 C29.1033028,22.4 31.4576147,24.7 34.2126606,25.2 C37.1680734,25.7 40.0733945,24.45 41.6262385,22 C43.3293578,19.35 43.2291743,16.15 41.4258716,13.8 L41.4258716,13.8 L41.4258716,13.8 Z M38.9212844,21.35 C37.1680734,22.95 34.513211,23.1 32.7099083,21.6 C30.806422,20.05 30.3555963,17.45 31.6078899,15.4 C32.3592661,14.2 33.1607339,13.05 33.9622018,11.85 C34.2126606,12.25 34.4130275,12.55 34.6634862,12.95 C34.9640367,12.5 35.2144954,12.1 35.4649541,11.7 C35.6152294,11.45 35.7154128,11.5 35.8656881,11.7 C36.1161468,12.1 36.3666055,12.5 36.667156,12.9 C36.9176147,12.55 37.1179817,12.2 37.3684404,11.8 C37.5688073,12.1 37.7190826,12.35 37.9194495,12.6 C38.4704587,13.45 38.9713761,14.3 39.5724771,15.1 C40.9249541,17.1 40.6744954,19.75 38.9212844,21.35 L38.9212844,21.35 L38.9212844,21.35 Z" id="Shape" fill="#009B85"></path>
                    <path d="M256.670092,20.8 C256.369541,20.5 256.569908,20.4 256.720183,20.2 C257.371376,19.25 257.171009,18.15 256.219266,17.45 C255.217431,16.7 253.514312,16.7 252.512477,17.45 C251.560734,18.15 251.310275,19.25 252.01156,20.25 C252.211927,20.55 252.161835,20.7 251.961468,20.95 C250.909541,22.15 251.260183,23.9 252.662752,24.65 C253.16367,24.95 253.764771,25.05 254.31578,25 L254.916881,25 C255.918716,24.85 256.770275,24.45 257.171009,23.45 C257.521651,22.45 257.371376,21.55 256.670092,20.8 L256.670092,20.8 L256.670092,20.8 Z M254.365872,18.25 C254.866789,18.25 255.367706,18.7 255.367706,19.15 C255.367706,19.65 254.866789,20.05 254.31578,20.05 C253.714679,20.05 253.263853,19.6 253.263853,19.1 C253.313945,18.65 253.814862,18.25 254.365872,18.25 L254.365872,18.25 L254.365872,18.25 Z M254.31578,23.5 C253.614495,23.5 253.113578,23.05 253.113578,22.5 C253.113578,21.9 253.614495,21.5 254.31578,21.5 C255.017064,21.5 255.517982,21.95 255.517982,22.5 C255.568073,23.1 255.017064,23.55 254.31578,23.5 L254.31578,23.5 L254.31578,23.5 Z" id="Shape" fill="#D03B8C"></path>
                    <path d="M264.033578,20.85 C263.783119,20.6 263.933394,20.45 264.033578,20.25 C264.734862,19.25 264.534495,18.1 263.532661,17.4 C262.681101,16.8 261.679266,16.75 260.727523,17 C259.074495,17.45 258.523486,18.85 259.475229,20.3 C259.675596,20.6 259.475229,20.7 259.324954,20.85 C258.423303,21.85 258.523486,23.3 259.525321,24.2 C260.126422,24.75 260.877798,24.95 261.729358,24.95 C261.929725,24.95 262.130092,24.95 262.330459,24.9 C263.332294,24.75 264.183853,24.3 264.584587,23.3 C264.935229,22.45 264.784954,21.55 264.033578,20.85 L264.033578,20.85 L264.033578,20.85 Z M261.729358,18.25 C262.280367,18.25 262.731193,18.7 262.731193,19.15 C262.731193,19.65 262.280367,20.1 261.729358,20.1 C261.178349,20.1 260.677431,19.7 260.677431,19.2 C260.677431,18.7 261.22844,18.25 261.729358,18.25 L261.729358,18.25 L261.729358,18.25 Z M261.729358,23.5 C261.028073,23.5 260.577248,23.1 260.527156,22.5 C260.527156,21.9 261.028073,21.45 261.729358,21.45 C262.430642,21.45 262.981651,21.9 262.981651,22.45 C262.981651,23.05 262.38055,23.5 261.729358,23.5 L261.729358,23.5 L261.729358,23.5 Z" id="Shape" fill="#D03B8C"></path>
                    <path d="M272.048257,18.7 C271.547339,17.5 270.595596,16.9 269.293211,16.85 C267.990826,16.85 266.938899,17.3 266.38789,18.55 C265.736697,20.1 265.736697,21.7 266.38789,23.25 C266.938899,24.5 267.990826,24.95 269.293211,24.9 C270.595596,24.85 271.497248,24.3 271.998165,23.1 C272.298716,22.4 272.398899,21.65 272.348807,20.9 C272.448991,20.2 272.348807,19.45 272.048257,18.7 L272.048257,18.7 L272.048257,18.7 Z M270.645688,21 C270.69578,21.65 270.595596,22.25 270.295046,22.8 C270.044587,23.3 269.643853,23.55 269.142936,23.55 C268.642018,23.55 268.191193,23.3 267.990826,22.8 C267.489908,21.55 267.489908,20.3 267.990826,19.1 C268.191193,18.65 268.591927,18.4 269.092844,18.4 C269.643853,18.4 269.994495,18.65 270.244954,19.1 C270.645688,19.7 270.69578,20.35 270.645688,21 L270.645688,21 L270.645688,21 Z" id="Shape" fill="#D03B8C"></path>
                </g>
            </g>
        </g>
    </g>
</svg>