<?xml version="1.0" encoding="UTF-8"?>
<svg width="104px" height="93px" viewBox="0 0 104 93" version="1.1" xmlns="http://www.w3.org/2000/svg" xmlns:xlink="http://www.w3.org/1999/xlink">
    <!-- Generator: Sketch 56.2 (81672) - https://sketch.com -->
    <title>triumph logo@1.5x</title>
    <desc>Created with Sketch.</desc>
    <defs>
        <polygon id="path-1" points="0 2.2962963e-05 103.873742 2.2962963e-05 103.873742 93 0 93"></polygon>
    </defs>
    <g id="2-Create-icon" stroke="none" stroke-width="1" fill="none" fill-rule="evenodd">
        <g transform="translate(-242.000000, -606.000000)" id="triumph-logo">
            <g transform="translate(242.000000, 606.000000)">
                <g id="Group-22">
                    <g id="Group-3">
                        <mask id="mask-2" fill="white">
                            <use xlink:href="#path-1"></use>
                        </mask>
                        <g id="Clip-2"></g>
                        <path d="M51.9483207,93.000023 C52.7500828,93.000023 53.5289374,92.8852081 54.2161621,92.6785415 C54.9492018,92.4718748 55.6364264,92.1274304 56.2778361,91.6681711 C56.8963383,91.2318748 57.4690256,90.7037267 57.9958978,90.0378007 C58.4998626,89.4407637 58.9809198,88.7518748 59.4390696,87.9249785 C59.4390696,87.9249785 102.046999,13.4563193 102.413519,12.8133563 C102.780039,12.1474304 103.077836,11.4815044 103.306911,10.7926156 C103.535986,10.1037267 103.696338,9.41483778 103.787968,8.72594889 C103.879598,8.01409704 103.902506,7.32520815 103.833783,6.68224519 C103.810876,6.33780074 103.650523,5.25854148 103.192374,4.27113407 C102.734224,3.30668963 102.230259,2.70965259 101.588849,2.11261556 C100.94744,1.51557852 99.7791577,0.849652593 98.8170432,0.528171111 C98.2672634,0.344467407 97.6487612,0.20668963 97.0073515,0.114837778 C96.3888493,0.0229859259 95.7245322,2.2962963e-05 94.968585,2.2962963e-05 L8.9051489,2.2962963e-05 C8.14920176,2.2962963e-05 7.46197709,0.0459488889 6.86638238,0.114837778 C6.22497269,0.20668963 5.583563,0.344467407 5.05669075,0.528171111 C4.09457621,0.849652593 2.92629427,1.51557852 2.28488458,2.11261556 C1.64347489,2.70965259 1.13951013,3.30668963 0.681360352,4.27113407 C0.223210573,5.23557852 0.0857656388,6.31483778 0.0399506608,6.68224519 C-0.0287718062,7.34817111 -0.00586431718,8.03706 0.0857656388,8.72594889 C0.177395595,9.41483778 0.337748018,10.1037267 0.589730396,10.7926156 C0.818805286,11.4815044 1.11660264,12.1474304 1.48312247,12.8133563 C1.84964229,13.4792822 44.4575718,87.9249785 44.4575718,87.9249785 C44.9157216,88.7518748 45.3967789,89.4407637 45.9007436,90.0378007 C46.4505233,90.7037267 47.0003031,91.2318748 47.6188053,91.6681711 C48.260215,92.1274304 48.9474396,92.4489119 49.6804793,92.6785415 C50.367704,92.8852081 51.1465586,93.000023 51.9483207,93.000023" id="Fill-1" fill="#FFFFFF" mask="url(#mask-2)"></path>
                    </g>
                    <path d="M8.90517181,2.02071778 C7.55362996,2.02071778 6.56860793,2.15849556 5.69812335,2.43405111 C4.04878414,3.00812519 2.92631718,3.99553259 2.37653744,5.4192363 C1.68931278,7.18738444 2.01001762,9.57553259 3.24702203,11.825903 L46.1985639,86.9147919 C47.8020881,89.7621993 49.5430573,90.9562733 51.9712511,90.9562733 C54.3994449,90.9562733 56.1175066,89.7392363 57.7439383,86.9147919 L100.69548,11.825903 C101.909577,9.57553259 102.253189,7.18738444 101.565965,5.4192363 C101.016185,3.99553259 99.8937181,3.00812519 98.2443789,2.43405111 C97.3738943,2.13553259 96.3659648,2.02071778 95.0373304,2.02071778" id="Fill-4" fill="#000000"></path>
                    <polyline id="Fill-6" fill="#FFFFFF" points="88.417089 26.1318289 85.4849304 31.2525696 69.0602608 31.2525696 81.7051947 37.865903 79.7809656 41.2414585 69.0602608 35.3170141 69.0602608 59.9562733 63.9518907 68.9118289 63.9518907 26.1318289"></polyline>
                    <polyline id="Fill-8" fill="#FFFFFF" points="15.4795524 26.1318289 18.411711 31.2525696 34.8363806 31.2525696 22.1914467 37.865903 24.1156758 41.2414585 34.8363806 35.3170141 34.8363806 59.9562733 39.9447507 68.9118289 39.9447507 26.1318289"></polyline>
                    <path d="M63.3103665,17.2452311 L63.3103665,7.89930519 L61.6612564,7.89930519 C61.0427542,7.89930519 60.8363577,8.1978237 60.4240229,8.77189778 L57.8583841,12.377083 L55.040763,7.89930519 L53.2542079,7.89930519 C52.6583841,7.89930519 52.5669833,8.42745333 52.5669833,8.74893481 L52.5669833,17.2452311 L54.6055207,17.2452311 L54.6055207,11.091157 L57.3544194,15.2244904 L58.225133,15.2244904 L61.1112476,11.11412 L61.1112476,17.2452311" id="Fill-10" fill="#FFFFFF"></path>
                    <path d="M67.6627894,12.8133104 L67.6627894,9.46071778 L68.5103665,9.46071778 C70.0680758,9.46071778 70.2971507,10.3792363 70.2971507,10.9303474 C70.2971507,12.7214585 68.2125692,12.8133104 67.8004634,12.8133104 L67.731741,12.8133104 L67.6627894,12.8133104 Z M67.8004634,14.3747919 C68.1209392,14.3747919 69.2894502,14.3288659 70.3661022,13.8696067 C71.76323,13.2496067 72.4733621,12.1703474 72.4733621,10.6777548 C72.4733621,9.85108815 72.1297498,7.92219926 69.0603753,7.92219926 L65.8533269,7.92219926 C65.2575031,7.92219926 65.1661022,8.45034741 65.1661022,8.77182889 L65.1661022,17.2681252 L67.6398819,17.2681252 L67.6398819,14.3747919 L67.8004634,14.3747919 L67.8004634,14.3747919 Z" id="Fill-12" fill="#FFFFFF"></path>
                    <path d="M50.7113392,7.89925926 L48.9016476,7.89925926 C48.3060529,7.89925926 48.2144229,8.42740741 48.2144229,8.74888889 L48.2144229,13.7777778 C48.2144229,15.4540741 47.2981233,15.8214815 46.5421762,15.8214815 C45.7862291,15.8214815 44.8699295,15.477037 44.8699295,13.7777778 L44.8699295,7.89925926 L43.0602379,7.89925926 C42.4646432,7.89925926 42.3730132,8.42740741 42.3730132,8.74888889 L42.3730132,13.9844444 C42.3730132,15.6377778 43.1060529,17.5896296 46.5192687,17.5896296 C49.9553921,17.5896296 50.6655242,15.6377778 50.6655242,13.9844444" id="Fill-14" fill="#FFFFFF"></path>
                    <path d="M38.0434291,17.2452311 L40.5174379,17.2452311 L40.5174379,7.89930519 L38.7077463,7.89930519 C38.1121515,7.89930519 38.0205216,8.42745333 38.0205216,8.74893481" id="Fill-16" fill="#FFFFFF"></path>
                    <path d="M31.5147947,12.8133104 L31.4460722,12.8133104 L31.3773498,12.8133104 L31.3773498,9.46071778 L32.2020194,9.46071778 C33.7597286,9.46071778 33.9888035,10.3792363 33.9888035,10.9303474 C33.9888035,12.7214585 31.9271295,12.8133104 31.5147947,12.8133104 M82.7130326,17.2451622 L82.7130326,7.8992363 L80.90357,7.8992363 C80.3077463,7.8992363 80.2163454,8.42738444 80.2163454,8.74886593 L80.2163454,10.3103474 L80.1703013,10.3103474 C79.0249269,10.539977 77.8795524,10.9762733 76.642548,11.6651622 L76.5511471,11.7110881 L76.5511471,7.8992363 L74.7412264,7.8992363 C74.1458608,7.8992363 74.0540018,8.42738444 74.0540018,8.74886593 L74.0540018,13.3873844 L74.0313233,13.4103474 C73.641667,13.7088659 73.2980546,13.9844215 72.9773498,14.2370141 L72.9086273,14.305903 C66.4945304,19.3577548 60.0804335,21.6310881 52.1544423,21.699977 L51.9024599,21.699977 C48.2601692,21.699977 44.7324159,21.10294 41.7544423,19.9318289 C38.2954115,18.5770141 35.6610502,16.6021993 33.965896,13.9844215 L33.9200811,13.9155326 L33.9888035,13.8925696 C35.4319753,13.2725696 36.165015,12.1933104 36.165015,10.6547919 C36.165015,9.82812519 35.8214026,7.8992363 32.7517991,7.8992363 L29.5447507,7.8992363 C28.9491559,7.8992363 28.857526,8.45034741 28.857526,8.74886593 L28.857526,17.2451622 L31.3773498,17.2451622 L31.3773498,14.3747919 L31.4460722,14.3747919 L31.5835172,14.3747919 L31.6064247,14.3747919 L31.6293322,14.3977548 C34.9051031,18.3244215 41.1130326,23.0088659 52.1315348,23.0088659 C60.3782308,23.0088659 67.1130326,20.6896067 73.9394643,15.52294 L74.0313233,15.4540511 L74.0313233,17.2910881 L76.5051031,17.2910881 L76.5051031,13.6170141 L76.5280106,13.5940511 C77.8566449,12.7444215 78.9791119,12.2621993 80.1018079,12.0784956 L80.1703013,12.0784956 L80.1703013,17.2451622" id="Fill-18" fill="#FFFFFF"></path>
                    <path d="M27.7579894,7.89925926 L20.0152581,7.89925926 C19.4654784,7.89925926 19.350941,8.35851852 19.350941,8.74888889 L19.350941,10.1266667 L22.306007,10.1266667 L22.306007,17.2451852 L24.8029233,17.2451852 L24.8029233,10.1266667 L27.0936722,10.1266667 C27.689267,10.1266667 27.7808969,9.59851852 27.7808969,9.27703704" id="Fill-20" fill="#FFFFFF"></path>
                </g>
            </g>
        </g>
    </g>
</svg>