<svg id="Layer_1" data-name="Layer 1" xmlns="http://www.w3.org/2000/svg" xmlns:xlink="http://www.w3.org/1999/xlink" viewBox="0 0 708.66 481.89"><defs><style>.cls-1,.cls-28{fill:none;}.cls-2{fill:#ffdc83;}.cls-3{clip-path:url(#clip-path);}.cls-4{fill:#edcb7e;}.cls-5{fill:#49a579;}.cls-6{fill:#428962;}.cls-7{fill:#b3b2b3;}.cls-8{fill:#4d4e4e;}.cls-24,.cls-9{fill:#dc846a;}.cls-10{fill:#6d3c1f;}.cls-11{fill:#7d4c2e;}.cls-12{fill:#8d5c3e;}.cls-13{fill:#9caab8;}.cls-14{fill:#fff;}.cls-15{fill:#181919;}.cls-15,.cls-18{opacity:0.07;}.cls-16{fill:#b8d8ff;}.cls-17{fill:#353560;}.cls-18{fill:#1c1c1c;}.cls-19{fill:#979797;}.cls-20,.cls-22{fill:#f8ab8d;}.cls-21{fill:#e5e5e4;}.cls-22,.cls-24{fill-rule:evenodd;}.cls-23{fill:gray;}.cls-25{fill:#070707;opacity:0.03;}.cls-26{fill:#fec82b;}.cls-27{fill:#f9dba5;}.cls-28{stroke:#f7f7f7;stroke-linecap:round;stroke-linejoin:round;stroke-width:4px;}.cls-29{fill:#f7f7f7;}</style><clipPath id="clip-path"><circle class="cls-1" cx="357.76" cy="233.89" r="205.32"/></clipPath></defs><title>CS-L2-U5</title><circle class="cls-2" cx="356.65" cy="234.03" r="205.32"/><g class="cls-3"><polygon class="cls-4" points="485.01 341.23 476.08 341.23 476.08 444.74 485.01 444.74 500.67 444.74 543.28 444.74 543.28 236.63 485.01 236.63 485.01 341.23"/><polygon class="cls-4" points="606.55 183.54 601.48 183.54 601.48 150.44 575.6 150.44 575.6 183.54 570.53 183.54 570.53 212.05 553.19 212.05 553.19 444.74 623.89 444.74 623.89 212.05 606.55 212.05 606.55 183.54"/><polygon class="cls-4" points="666.88 345.84 666.88 291.19 630.87 291.19 630.87 444.74 657.01 444.74 666.88 444.74 675.96 444.74 675.96 345.84 666.88 345.84"/><polygon class="cls-4" points="155.77 333.78 146.84 333.78 146.84 437.29 155.77 437.29 171.44 437.29 214.05 437.29 214.05 229.18 155.77 229.18 155.77 333.78"/><polygon class="cls-4" points="277.31 176.1 272.25 176.1 272.25 142.99 246.37 142.99 246.37 176.1 241.3 176.1 241.3 204.61 223.96 204.61 223.96 437.29 294.66 437.29 294.66 204.61 277.31 204.61 277.31 176.1"/><polygon class="cls-4" points="337.65 338.39 337.65 283.75 301.63 283.75 301.63 437.29 327.77 437.29 337.65 437.29 346.72 437.29 346.72 338.39 337.65 338.39"/><polygon class="cls-4" points="322.29 407.34 313.36 407.34 313.36 510.85 322.29 510.85 337.95 510.85 380.56 510.85 380.56 302.73 322.29 302.73 322.29 407.34"/><polygon class="cls-4" points="443.83 249.65 438.76 249.65 438.76 216.54 412.88 216.54 412.88 249.65 407.81 249.65 407.81 278.16 390.47 278.16 390.47 510.85 461.17 510.85 461.17 278.16 443.83 278.16 443.83 249.65"/><polygon class="cls-4" points="504.16 411.95 504.16 357.3 468.14 357.3 468.14 510.85 494.29 510.85 504.16 510.85 513.24 510.85 513.24 411.95 504.16 411.95"/><circle class="cls-1" cx="357.41" cy="233.89" r="205.32"/><polygon class="cls-5" points="328.03 473.21 316.65 473.21 356.5 17.75 367.87 17.75 328.03 473.21"/><polygon class="cls-6" points="338.75 473.21 327.38 473.21 367.23 17.75 378.6 17.75 338.75 473.21"/><polygon class="cls-5" points="431.45 472.14 420.08 472.14 459.93 16.68 471.3 16.68 431.45 472.14"/><polygon class="cls-6" points="442.18 472.14 430.8 472.14 470.65 16.68 482.02 16.68 442.18 472.14"/><path class="cls-5" d="M457.23,41.58H374.67a3.52,3.52,0,0,1-3.51-3.83h0a3.52,3.52,0,0,1,3.51-3.21h82.56a3.52,3.52,0,0,1,3.51,3.83h0A3.52,3.52,0,0,1,457.23,41.58Z"/><path class="cls-5" d="M452.49,95.74H369.93a3.52,3.52,0,0,1-3.51-3.83h0a3.52,3.52,0,0,1,3.51-3.21h82.56A3.52,3.52,0,0,1,456,92.52h0A3.52,3.52,0,0,1,452.49,95.74Z"/><path class="cls-5" d="M447.75,149.89H365.19a3.52,3.52,0,0,1-3.51-3.83h0a3.52,3.52,0,0,1,3.51-3.21h82.56a3.52,3.52,0,0,1,3.51,3.83h0A3.52,3.52,0,0,1,447.75,149.89Z"/><path class="cls-5" d="M443,204.05H360.45a3.52,3.52,0,0,1-3.51-3.83h0a3.52,3.52,0,0,1,3.51-3.21H443a3.52,3.52,0,0,1,3.51,3.83h0A3.52,3.52,0,0,1,443,204.05Z"/><path class="cls-5" d="M438.28,258.21H355.72a3.52,3.52,0,0,1-3.51-3.83h0a3.52,3.52,0,0,1,3.51-3.21h82.56a3.52,3.52,0,0,1,3.51,3.83h0A3.52,3.52,0,0,1,438.28,258.21Z"/><path class="cls-5" d="M433.54,312.37H351a3.52,3.52,0,0,1-3.51-3.83h0a3.52,3.52,0,0,1,3.51-3.21h82.56a3.52,3.52,0,0,1,3.51,3.83h0A3.52,3.52,0,0,1,433.54,312.37Z"/><path class="cls-5" d="M428.8,366.52H346.24a3.52,3.52,0,0,1-3.51-3.83h0a3.52,3.52,0,0,1,3.51-3.21H428.8a3.52,3.52,0,0,1,3.51,3.83h0A3.52,3.52,0,0,1,428.8,366.52Z"/><path id="_Path_" data-name="&lt;Path&gt;" class="cls-7" d="M336.33,396.3l-1.2,10.3,50.94,5.94.12-1a4.12,4.12,0,0,0-2.6-4.32L357.29,397a7.61,7.61,0,0,0-3.8-.46c-7.46,1-12.46-.39-15-1.48A1.58,1.58,0,0,0,336.33,396.3Z"/><path id="_Path_2" data-name="&lt;Path&gt;" class="cls-8" d="M335.13,406.6v.08a3.13,3.13,0,0,0,2.75,3.47l46.26,5.4a1.58,1.58,0,0,0,1.75-1.38l.19-1.62Z"/><path class="cls-5" d="M424.06,420.68H341.5a3.52,3.52,0,0,1-3.51-3.83h0a3.52,3.52,0,0,1,3.51-3.21h82.56a3.52,3.52,0,0,1,3.51,3.83h0A3.52,3.52,0,0,1,424.06,420.68Z"/></g><path id="_Path_3" data-name="&lt;Path&gt;" class="cls-9" d="M413.61,99.58s8.11-4.42,11.87-5.71c-.11-5.56-7.84-5-7.84-5Z"/><path class="cls-10" d="M466,155.2c0,2.16-1.75,6.36-3.91,6.36h-90c-2.16,0-3.91-4.2-3.91-6.36l3.69-52.64a3.91,3.91,0,0,1,3.91-3.91h82.6a3.91,3.91,0,0,1,3.91,3.91Z"/><rect class="cls-11" x="371.93" y="98.65" width="90.42" height="62.91" rx="3.91" ry="3.91"/><path class="cls-11" d="M429.83,108.06H404.45a6.38,6.38,0,0,1-6.37-6.36v-8a6.38,6.38,0,0,1,6.37-6.37h25.38a6.37,6.37,0,0,1,6.35,6.37v8A6.37,6.37,0,0,1,429.83,108.06ZM404.45,92.25A1.45,1.45,0,0,0,403,93.7v8a1.45,1.45,0,0,0,1.45,1.45h25.38a1.44,1.44,0,0,0,1.45-1.45v-8a1.45,1.45,0,0,0-1.45-1.45Z"/><path class="cls-12" d="M462.35,128.26a3.91,3.91,0,0,1-3.91,3.91h-82.6a3.91,3.91,0,0,1-3.91-3.91V102.56a3.91,3.91,0,0,1,3.91-3.91h82.6a3.91,3.91,0,0,1,3.91,3.91Z"/><path class="cls-13" d="M424.41,133a2.92,2.92,0,0,1-2.92,2.92h-8.69a2.92,2.92,0,0,1-2.92-2.92h0a2.92,2.92,0,0,1,2.92-2.93h8.69a2.92,2.92,0,0,1,2.92,2.93Z"/><path class="cls-14" d="M423.22,132.86a1.23,1.23,0,0,1-1.23,1.23h-7.47a1.23,1.23,0,0,1-1.23-1.23v-.47a1.23,1.23,0,0,1,1.23-1.23H422a1.23,1.23,0,0,1,1.23,1.23Z"/><path class="cls-15" d="M436,93.61c-.09-.08-.24-.18-.41-.3.64-.29.86-.62.41-1a34.93,34.93,0,0,0-10.7-4.69c-12.33-2.77-15.36-.5-15.36-.5l-7.7,11.59h0l-6.81,9.78-1.29-.92a.33.33,0,0,0-.18-.06l-2.59-1.8-6.48,9.3.61.42-.61.87,1.73,1.21L367.68,144l-14.23-24.65a14.17,14.17,0,0,0-2.93-7.54l27.14-34.76,1.89,1.44,6.87-9L385.8,69l.63-.82-2.24-1.71,1.42-1.87.79.6a.61.61,0,0,0,.85-.12L389.6,62a.61.61,0,0,0-.12-.85l-.14-.11.26-.34a.61.61,0,0,0-.12-.85l-.14-.11,1.21-1.58,5.36-5.94a97.78,97.78,0,0,1,10.87-4.09,5,5,0,0,0-.09-1.27l.09,0a4.83,4.83,0,0,0-.18-1.72c3.91-1.46,8-3.35,6.75-4.52l-.13-.12c.41-.44.5-.84.13-1.18-.86-.79-5.73-4.7-10.49-5.14-4.09-.38-14.13,3.25-14.13,3.25l-8.19,11.25h0l-1.1,1.44a.69.69,0,0,0-.21-.29.71.71,0,0,0-1,.14l-4.36,5.77a.71.71,0,0,0,.14,1l.07,0-.2.27a.7.7,0,0,0-.12.56l-.43.57-1.25-1a.33.33,0,0,0-.18-.06l-2.51-1.91-6.87,9,.63.48-.63.82,1.65,1.25-26.19,33.55-11,.86-.4-.26.88-7a16.85,16.85,0,0,0,1.94-1.07c12.82-10.27,6.11-31.18.59-40.53a35.26,35.26,0,0,0-6.39-8.16A7.41,7.41,0,0,0,324.62,41a8.22,8.22,0,0,0,0-.89,7.15,7.15,0,0,0,0-.77,5.7,5.7,0,0,0-.3-1.3,3.62,3.62,0,0,0-.41-.83h0l-4.66,2.3a10.54,10.54,0,0,0,.4-5.22v0a18.19,18.19,0,0,0-1.29-5.2c-.1-.27-.16-.41-.16-.41h0l-7.72,3.82s-10.51-1.8-18.75,3.18C280.26,42.58,278.78,51.89,278.59,54c-2.47.36-5.89,3.48-5.89,3.48,1.15-.29,3.74.64,6,2l0,.93c.36,4.06,2.66,9.06,4.56,12.61-1.46,1.55-1.55,3.94.77,6.11,2.76,2.59,8.53,9.25,10.07,6.21,6.46,6.2,15,9.95,22.78,10.37l-.53,4.21-.69-.73L309,102.42h0L297.89,101a13.7,13.7,0,0,0-15.29,11.9L269.13,229.69l3.84.23a10.42,10.42,0,0,0,.42,1.52l.94,2.54a10.93,10.93,0,0,0,1.71,4.62l22.17,59.71L261.9,371.07l1.66.83-5.94,11.9a1.57,1.57,0,0,0-2.07,0l-7.82,6.81-.06.05a3.13,3.13,0,0,0-.31,4.42l30.58,35.13a1.58,1.58,0,0,0,2.23.15l1.23-1.07.78-.68a4.12,4.12,0,0,0,1-4.95L270.6,398.4a7.86,7.86,0,0,0-1.33-1.88l.13-.22,8.58-17.2,2.53,1.26,38.08-76.28a14.69,14.69,0,0,0,.36-9.71l-19.33-52.06,16.52-1.44,31.34,61.45L338,383.81l1.85.22-2,16.82a1.58,1.58,0,0,0-1.77,1.39L335,412.56l51,5.5.11-1a4.12,4.12,0,0,0-2.64-4.3l-26.38-10a7.71,7.71,0,0,0-3.13-.48l1.91-16.35,2.81.33,9.8-84a10.37,10.37,0,0,0,.11-2.68c0-.18,0-.36-.07-.54s0-.22,0-.33a10.36,10.36,0,0,0-1.4-3.74l-30.7-60.19q.28-.45.52-.92l2.58.16,10.78-86.42,9.65,16.72A8.14,8.14,0,0,0,369,168l.46-.13.09,0a8,8,0,0,0,4.14-3l26.9-37.66,2,1.36,6.48-9.3-.61-.42L409,118l-2.35-1.63,6-8.57,1-1.21A111.88,111.88,0,0,1,425.28,101a5,5,0,0,0-.19-1.23l.19-.07a4.3,4.3,0,0,0-1.54-3.38C427.86,96,437.87,95.21,436,93.61Z"/><path id="_Path_4" data-name="&lt;Path&gt;" class="cls-16" d="M353.36,333.53h0a8.06,8.06,0,0,1,7.07,8.94l-6.62,56.73a8.06,8.06,0,0,1-8.94,7.07h0a8.06,8.06,0,0,1-7.07-8.94l.17-1.48,6.45-55.25A8.06,8.06,0,0,1,353.36,333.53Z"/><rect id="_Rectangle_" data-name="&lt;Rectangle&gt;" class="cls-17" x="331" y="213.49" width="20.81" height="95.66" rx="10.4" ry="10.4" transform="translate(764.26 338.99) rotate(152.98)"/><path id="_Rectangle_2" data-name="&lt;Rectangle&gt;" class="cls-17" d="M343.65,283.89h20.81a0,0,0,0,1,0,0v85.26a10.4,10.4,0,0,1-10.4,10.4h0a10.4,10.4,0,0,1-10.4-10.4V283.89a0,0,0,0,1,0,0Z" transform="translate(667.28 702.24) rotate(-173.35)"/><path id="_Path_5" data-name="&lt;Path&gt;" class="cls-17" d="M272.9,207.23l63.73-5.55,1.57,20.48a11,11,0,0,1-10,11.9l-41.83,3.64a11,11,0,0,1-11.9-10Z"/><path id="_Path_6" data-name="&lt;Path&gt;" class="cls-16" d="M291.5,328.6h0a8.06,8.06,0,0,1,3.61,10.81l-25.51,51.1a8.06,8.06,0,0,1-10.81,3.61h0a8.06,8.06,0,0,1-3.61-10.81l.66-1.33,24.85-49.77A8.06,8.06,0,0,1,291.5,328.6Z"/><rect id="_Rectangle_3" data-name="&lt;Rectangle&gt;" class="cls-17" x="285.96" y="209.29" width="20.81" height="95.66" rx="10.4" ry="10.4" transform="translate(663.71 395) rotate(159.63)"/><path id="_Rectangle_4" data-name="&lt;Rectangle&gt;" class="cls-17" d="M282.36,279.31h20.81a0,0,0,0,1,0,0v85.26a10.4,10.4,0,0,1-10.4,10.4h0a10.4,10.4,0,0,1-10.4-10.4V279.31a0,0,0,0,1,0,0Z" transform="translate(408.6 750.59) rotate(-153.47)"/><path class="cls-18" d="M436.18,87.82a34.93,34.93,0,0,0-10.7-4.69c-12.33-2.77-15.36-.5-15.36-.5l-7.7,11.59h0L395.61,104l-1.29-.92a.32.32,0,0,0-.18-.06l-2.59-1.8-6.48,9.3,2.35,1.64-19.54,27.36-18.43-31.93a8.11,8.11,0,0,0-11.08-3h0a8.11,8.11,0,0,0-3,11.08l24.68,42.75a8.14,8.14,0,0,0,9.07,3.78l.46-.13.09,0a8,8,0,0,0,4.14-3l26.9-37.66,2,1.36,6.48-9.3-3-2.06,6.58-9.44,1-1.21a111.89,111.89,0,0,1,11.69-5.61,4.59,4.59,0,0,0-3.4-4.4l.14-.17S438.55,89.83,436.18,87.82Z"/><path id="_Path_7" data-name="&lt;Path&gt;" class="cls-7" d="M255.75,378l-7.82,6.81,33.67,38.68.78-.68a4.12,4.12,0,0,0,1-4.95L270.8,392.61a7.61,7.61,0,0,0-2.5-2.9c-6.21-4.26-8.95-8.68-10.08-11.17A1.58,1.58,0,0,0,255.75,378Z"/><path id="_Path_8" data-name="&lt;Path&gt;" class="cls-8" d="M247.92,384.82l-.06.05a3.13,3.13,0,0,0-.31,4.42l30.58,35.13a1.58,1.58,0,0,0,2.23.15l1.23-1.07Z"/><path id="_Path_9" data-name="&lt;Path&gt;" class="cls-7" d="M336.29,396.46l-1.11,10.31,51,5.5.11-1a4.12,4.12,0,0,0-2.64-4.3l-26.38-10a7.61,7.61,0,0,0-3.8-.43c-7.45,1.1-12.46-.29-15-1.35A1.58,1.58,0,0,0,336.29,396.46Z"/><rect id="_Rectangle_5" data-name="&lt;Rectangle&gt;" class="cls-17" x="346.65" y="98.93" width="16.22" height="65.59" rx="8.11" ry="8.11" transform="translate(-18.33 195.03) rotate(-30)"/><path id="_Path_10" data-name="&lt;Path&gt;" class="cls-19" d="M298.09,95.25l43.2,5.39a14.2,14.2,0,0,1,12.29,15.8L339.65,228.16l-70.33-4.25L282.8,107.14A13.7,13.7,0,0,1,298.09,95.25Z"/><polygon id="_Path_11" data-name="&lt;Path&gt;" class="cls-17" points="305.12 96.12 302.12 102.9 307.19 109.41 304.19 113.66 325.21 152.68 339.76 118 337.18 112.91 339.92 107.61 336.37 100.02 305.12 96.12"/><polygon id="_Path_12" data-name="&lt;Path&gt;" class="cls-14" points="333.96 99.72 324.3 140.5 309.21 96.63 333.96 99.72"/><path id="_Path_13" data-name="&lt;Path&gt;" class="cls-20" d="M323.64,79.9l-.18,0a5.13,5.13,0,0,1,4.41,5.87L326.47,97c-.36,2.89-2.64,3.53-5.53,3.16H321c-2.89-.36-5-1.54-4.68-4.44l1.4-11.2A5.28,5.28,0,0,1,323.64,79.9Z"/><polygon id="_Path_14" data-name="&lt;Path&gt;" class="cls-21" points="309.21 96.63 315.85 93.38 321.85 99.72 316.8 108.43 309.21 96.63"/><polygon id="_Path_15" data-name="&lt;Path&gt;" class="cls-21" points="333.96 99.72 325.97 94.64 321.85 99.72 328.12 109.84 333.96 99.72"/><polygon id="_Path_16" data-name="&lt;Path&gt;" class="cls-16" points="321.85 99.72 318.84 104.91 323.9 111.25 326.11 106.6 321.85 99.72"/><polygon id="_Path_17" data-name="&lt;Path&gt;" class="cls-16" points="322.5 109.06 319.43 126.33 324.3 140.5 327.75 125.93 324.68 108.8 322.5 109.06"/><ellipse id="_Path_18" data-name="&lt;Path&gt;" class="cls-17" cx="317.94" cy="171.47" rx="4.1" ry="3.32" transform="translate(108.44 465.75) rotate(-82.89)"/><ellipse id="_Path_19" data-name="&lt;Path&gt;" class="cls-17" cx="315.16" cy="193.73" rx="4.1" ry="3.32" transform="translate(83.93 482.5) rotate(-82.89)"/><rect id="_Rectangle_6" data-name="&lt;Rectangle&gt;" class="cls-17" x="287.33" y="182.27" width="15.86" height="5.88" transform="translate(25.19 -35.11) rotate(7.11)"/><path id="_Path_20" data-name="&lt;Path&gt;" class="cls-22" d="M329.51,87c-10.77,6.95-29.53,1.15-39.28-12.07C280,61,283.94,43.32,296.3,37.16c14.06-7,25-5.59,33.8,9.31,5.53,9.35,12.23,30.26-.59,40.53Z"/><path class="cls-19" d="M324.81,35.22a5.58,5.58,0,0,0-.72-3.79l-4.66,2.3a10.54,10.54,0,0,0,.4-5.22,24.61,24.61,0,0,0-1.46-5.63l-7.72,3.82s-10.51-1.8-18.75,3.18C280.46,36.79,279,46.1,278.78,48.2c-2.47.36-5.89,3.48-5.89,3.48,1.15-.29,3.74.64,6,2l0,.93c.4,4.54,3.23,10.27,5.23,13.82a4.07,4.07,0,0,1,2.73-2.32,4.9,4.9,0,0,1,.56-.13h0l.28,0,.29,0h.54l.38,0,.31,0,.31,0,.31.06.31.08.62.2s0,0,0,0l.13.06.08,0,.09,0,0,0,0,0,0,0,0,0,3.29,6.65a3.32,3.32,0,0,0,1.81,1.88,4,4,0,0,0,.47.18,5.31,5.31,0,0,0,2.32-.41A3.87,3.87,0,0,0,301,70l-1.18-2.38a3.83,3.83,0,0,1,1.46-5l.58-.34c-1.29-2.73-2.38-4.86-3.06-6.19-.85-1.64-.77-3,2.71-5.22l.1-.06c.3-.19.63-.38,1-.59l.08,0c.62-.35,1.32-.71,2.1-1.1l16.83-8.32.17-.14A9.26,9.26,0,0,0,324.81,35.22Z"/><path id="_Path_21" data-name="&lt;Path&gt;" class="cls-23" d="M302.68,50.21c.62-.35,1.32-.71,2.1-1.1l16.83-8.32.17-.14a9.26,9.26,0,0,0,3-5.43,5.58,5.58,0,0,0-.72-3.79s-1.77,6.5-4.11,8.23l-.18.13C317.4,41.48,306.32,48.06,302.68,50.21Z"/><path id="_Path_22" data-name="&lt;Path&gt;" class="cls-23" d="M318.38,22.88s.38,8.3-3,12.12c-2.86,3.25-20.12,12.48-20.12,12.48a33.38,33.38,0,0,0,6.08-1.39c1.68-.62,17.34-7.77,18.09-12.36A16.77,16.77,0,0,0,318.38,22.88Z"/><g id="_Group_" data-name="&lt;Group&gt;"><line id="_Path_23" data-name="&lt;Path&gt;" class="cls-19" x1="323.23" y1="48.55" x2="317.44" y2="51.05"/><path id="_Path_24" data-name="&lt;Path&gt;" class="cls-19" d="M324.41,48.75a1.05,1.05,0,0,0-.81-1.93l-6,1.86a1.05,1.05,0,0,0,.62,2l6-1.86Z"/></g><g id="_Group_2" data-name="&lt;Group&gt;"><line id="_Path_25" data-name="&lt;Path&gt;" class="cls-19" x1="310.04" y1="55.23" x2="304.53" y2="58.31"/><path id="_Path_26" data-name="&lt;Path&gt;" class="cls-19" d="M309.71,54.23a1.05,1.05,0,0,1,.84,1.92L305,59.22a1.05,1.05,0,0,1-1-1.83l5.5-3.08Z"/></g><circle id="_Path_27" data-name="&lt;Path&gt;" cx="311.97" cy="61.56" r="1.42" transform="translate(5.04 144.7) rotate(-26.32)"/><circle id="_Path_28" data-name="&lt;Path&gt;" cx="325.15" cy="54.74" r="1.42" transform="translate(9.44 149.84) rotate(-26.32)"/><polygon id="_Path_29" data-name="&lt;Path&gt;" class="cls-24" points="317.38 59.06 321.19 67.2 323.37 65.63 317.38 59.06"/><g id="_Group_3" data-name="&lt;Group&gt;"><path id="_Path_30" data-name="&lt;Path&gt;" class="cls-22" d="M293,67.06a8.35,8.35,0,0,0-3.95-1.43c-5.42-.8-9,3.79-4.83,7.7,2.9,2.73,9.13,9.95,10.27,5.68A17.73,17.73,0,0,0,293,67.06Z"/><polygon id="_Path_31" data-name="&lt;Path&gt;" class="cls-24" points="290.13 69.08 284.39 70.81 291.98 76.1 287.68 70.78 290.13 69.08"/></g><rect id="_Rectangle_7" data-name="&lt;Rectangle&gt;" class="cls-20" x="390.31" y="87.6" width="12.95" height="49.51" rx="6.47" ry="6.47" transform="translate(658.18 431.29) rotate(-145.15)"/><path id="_Path_32" data-name="&lt;Path&gt;" class="cls-20" d="M402.42,92.93l7.7-11.59s3-2.26,15.36.5a34.93,34.93,0,0,1,10.7,4.69c2.37,2-14,2.76-14,2.76l-9.44,11.4Z"/><path id="_Rectangle_8" data-name="&lt;Rectangle&gt;" class="cls-17" d="M373.81,100.2H389a.73.73,0,0,1,.73.73v56.75a8.11,8.11,0,0,1-8.11,8.11h0a8.11,8.11,0,0,1-8.11-8.11V100.53a.33.33,0,0,1,.33-.33Z" transform="translate(148.35 -197) rotate(35.53)"/><rect id="_Rectangle_9" data-name="&lt;Rectangle&gt;" class="cls-14" x="386.38" y="105.04" width="21.47" height="11.33" transform="translate(659.74 428.49) rotate(-145.15)"/><path class="cls-25" d="M417.07,41.77c-.77-.87-5.21-5.28-9.89-6.22-4-.81-14.4,1.75-14.4,1.75l-9.33,10.33h0l-1.24,1.32a.69.69,0,0,0-.18-.31.71.71,0,0,0-1,0l-4.94,5.28a.71.71,0,0,0,0,1,.69.69,0,0,0,.29.16l-1.13,1.19-1.14-1.1a.32.32,0,0,0-.17-.08L371.67,53l-7.78,8.24,2.09,2L335.69,94.52l-46.3-1.28a8.11,8.11,0,1,0-.45,16.22l49.35,1.36a12.86,12.86,0,0,0,7.34-3.24l32.15-33.28,1.73,1.63,7.78-8.24-2.62-2.47L387,62.76l.72.67a.61.61,0,0,0,.86,0l2.66-2.84a.61.61,0,0,0,0-.86l-.71-.66,2.07-2.2h0l5.95-5.34a97.75,97.75,0,0,1,11.24-2.93,4.4,4.4,0,0,0-.41-2.88C413.53,44.65,418.26,43.12,417.07,41.77Z"/><rect id="_Rectangle_10" data-name="&lt;Rectangle&gt;" class="cls-17" x="306.7" y="71.77" width="16.22" height="65.59" rx="8.11" ry="8.11" transform="translate(394.64 -217.42) rotate(85.55)"/><path id="_Path_33" data-name="&lt;Path&gt;" class="cls-9" d="M395.9,52.65s8.79-2.83,12.72-3.4c.93-5.49-6.77-6.38-6.77-6.38Z"/><rect id="_Rectangle_11" data-name="&lt;Rectangle&gt;" class="cls-20" x="367.42" y="41.94" width="12.95" height="49.51" rx="6.47" ry="6.47" transform="translate(600.1 371.77) rotate(-136.67)"/><path id="_Path_34" data-name="&lt;Path&gt;" class="cls-20" d="M382.33,48.31,391.66,38s10.37-2.56,14.4-1.75c4.69.94,9.12,5.34,9.89,6.22,2.05,2.33-13.49,5.19-13.49,5.19l-11,9.89Z"/><path id="_Rectangle_12" data-name="&lt;Rectangle&gt;" class="cls-17" d="M348,52.07H363.2a.73.73,0,0,1,.73.73v56.75a8.11,8.11,0,0,1-8.11,8.11h0a8.11,8.11,0,0,1-8.11-8.11V52.41a.33.33,0,0,1,.33-.33Z" transform="translate(158.87 -223.39) rotate(44.01)"/><rect id="_Rectangle_13" data-name="&lt;Rectangle&gt;" class="cls-14" x="363.73" y="59.45" width="21.47" height="11.33" transform="translate(602.18 369.44) rotate(-136.67)"/><path class="cls-26" d="M390.1,61.24l-2.66,2.84a.61.61,0,0,1-.86,0l-10.53-9.88,3.49-3.73,10.53,9.88A.61.61,0,0,1,390.1,61.24Z"/><rect class="cls-27" x="382.08" y="58.35" width="5.11" height="0.77" transform="translate(78.83 299.31) rotate(-46.87)"/><rect class="cls-27" x="382.72" y="59.14" width="5.11" height="0.38" transform="translate(78.59 299.97) rotate(-46.87)"/><rect class="cls-27" x="373.63" y="51.76" width="8.65" height="1.42" rx="0.71" ry="0.71" transform="translate(81.28 292.45) rotate(-46.87)"/><path id="_Path_35" data-name="&lt;Path&gt;" class="cls-14" d="M326.31,76c-3.34,1.58-7.13,1.16-8.11-.9l-.23-.49,12.89-6.1.23.49c.89,1.88-.13,4.8-3.77,6.53Z"/><line class="cls-28" x1="480.52" y1="390.75" x2="478.41" y2="420.14"/><line class="cls-28" x1="490.87" y1="246.81" x2="481.71" y2="374.23"/><line class="cls-28" x1="494.73" y1="456.19" x2="493.47" y2="473.62"/><line class="cls-28" x1="505.93" y1="300.29" x2="495.54" y2="444.83"/><line class="cls-28" x1="218.27" y1="155.9" x2="216.23" y2="184.34"/><line class="cls-28" x1="228.68" y1="11.02" x2="220.12" y2="130.11"/><line class="cls-28" x1="229.7" y1="231.26" x2="228.68" y2="245.49"/><line class="cls-28" x1="241.13" y1="72.16" x2="230.68" y2="217.59"/><path class="cls-29" d="M511.34,229.71c-7.07,2-8.66,3.54-10.61,10.61-2-7.07-3.54-8.66-10.61-10.61,7.07-2,8.66-3.54,10.61-10.61C502.69,226.18,504.27,227.76,511.34,229.71Z"/><path class="cls-29" d="M214.16,206c-6.77,1.87-8.29,3.38-10.15,10.15-1.87-6.77-3.38-8.29-10.15-10.15,6.77-1.87,8.29-3.38,10.15-10.15C205.87,202.64,207.39,204.16,214.16,206Z"/><path class="cls-29" d="M377,33.09c-5.82,1.61-7.13,2.91-8.73,8.73-1.61-5.82-2.91-7.13-8.73-8.73,5.82-1.61,7.13-2.91,8.73-8.73C369.85,30.18,371.15,31.49,377,33.09Z"/></svg>