<svg id="Layer_1" data-name="Layer 1" xmlns="http://www.w3.org/2000/svg" xmlns:xlink="http://www.w3.org/1999/xlink" viewBox="0 0 708.66 481.89"><defs><style>.cls-1,.cls-32,.cls-39,.cls-9{fill:none;}.cls-2{fill:#d5eff0;}.cls-3{clip-path:url(#clip-path);}.cls-4{clip-path:url(#clip-path-2);}.cls-5{clip-path:url(#clip-path-3);}.cls-6{fill:#dd4439;}.cls-7{fill:#505151;}.cls-8{fill:#7a7a7a;}.cls-9{stroke:#3952a0;}.cls-33,.cls-39,.cls-9{stroke-linecap:round;stroke-linejoin:round;}.cls-32,.cls-33,.cls-9{stroke-width:2px;}.cls-10{fill:#ee6b33;}.cls-11{fill:#d8522a;}.cls-12{fill:#efeeed;}.cls-13{fill:#6bd1cf;opacity:0.2;}.cls-14{fill:#a5d6d4;}.cls-15,.cls-23{fill:#f8ab8d;}.cls-16{fill:#405aa8;}.cls-17{fill:#e5e5e4;}.cls-18{fill:#fab53c;}.cls-19,.cls-26{fill:#dc846a;}.cls-20{fill:#4d4e4e;}.cls-21{fill:#b3b2b3;}.cls-22{fill:#020202;opacity:0.13;}.cls-23,.cls-26{fill-rule:evenodd;}.cls-24{fill:#8b6339;}.cls-25{fill:#754d24;}.cls-27{fill:#ea9d2d;}.cls-28{opacity:0.67;}.cls-29{fill:#d3d3d3;}.cls-30{opacity:0.38;}.cls-31{fill:#757575;}.cls-32{stroke:#f4f4f4;stroke-miterlimit:10;}.cls-33{fill:#fff;stroke:#dc846a;}.cls-34{opacity:0.07;}.cls-35{fill:#bababa;}.cls-36{fill:#f4f4f4;}.cls-37{fill:#8d8d8e;}.cls-38{fill:#19a4a4;}.cls-39{stroke:#eff2f4;}</style><clipPath id="clip-path"><rect class="cls-1" y="-1.12" width="708.66" height="483.18"/></clipPath><clipPath id="clip-path-2"><rect class="cls-1" y="-1.12" width="708.66" height="484.13"/></clipPath><clipPath id="clip-path-3"><polygon class="cls-2" points="-197.75 332.53 -197.75 18.04 1070.99 186.58 1070.99 501.08 -197.75 332.53"/></clipPath></defs><title>CS-L2-U9</title><g class="cls-3"><g class="cls-4"><polygon class="cls-2" points="-197.75 332.53 -197.75 18.04 1070.99 186.58 1070.99 501.08 -197.75 332.53"/><g class="cls-5"><rect class="cls-2" x="-1.13" y="-48.84" width="710.27" height="606.63"/></g></g><rect class="cls-6" x="512.99" y="145.7" width="5.79" height="345.97" transform="translate(1031.77 637.36) rotate(-180)"/><rect class="cls-6" x="484.01" y="145.7" width="5.79" height="345.97" transform="translate(973.82 637.36) rotate(-180)"/><rect class="cls-6" x="499.03" y="141.98" width="5.5" height="42.58" transform="translate(972.05 -76.1) rotate(135)"/><rect class="cls-6" x="499.03" y="141.98" width="5.5" height="42.58" transform="translate(262.42 -306.99) rotate(45)"/><rect class="cls-6" x="499.03" y="176.68" width="5.5" height="42.58" transform="translate(996.59 -16.85) rotate(135)"/><rect class="cls-6" x="499.03" y="176.68" width="5.5" height="42.58" transform="translate(286.96 -296.83) rotate(45)"/><rect class="cls-6" x="499.03" y="211.39" width="5.5" height="42.58" transform="translate(1021.13 42.39) rotate(135)"/><rect class="cls-6" x="499.03" y="211.39" width="5.5" height="42.58" transform="translate(311.5 -286.66) rotate(45)"/><rect class="cls-6" x="499.03" y="246.09" width="5.5" height="42.58" transform="translate(1045.67 101.64) rotate(135)"/><rect class="cls-6" x="499.03" y="246.09" width="5.5" height="42.58" transform="translate(336.04 -276.5) rotate(45)"/><rect class="cls-6" x="499.03" y="280.8" width="5.5" height="42.58" transform="translate(1070.21 160.88) rotate(135)"/><rect class="cls-6" x="499.03" y="280.8" width="5.5" height="42.58" transform="translate(360.58 -266.33) rotate(45)"/><rect class="cls-6" x="499.03" y="315.5" width="5.5" height="42.58" transform="translate(1094.75 220.13) rotate(135)"/><rect class="cls-6" x="499.03" y="315.5" width="5.5" height="42.58" transform="translate(385.12 -256.17) rotate(45)"/><rect class="cls-6" x="499.03" y="350.21" width="5.5" height="42.58" transform="translate(1119.29 279.38) rotate(135)"/><rect class="cls-6" x="499.03" y="350.21" width="5.5" height="42.58" transform="translate(409.66 -246) rotate(45)"/><rect class="cls-6" x="499.03" y="384.91" width="5.5" height="42.58" transform="translate(1143.83 338.62) rotate(135)"/><rect class="cls-6" x="499.03" y="384.91" width="5.5" height="42.58" transform="translate(434.2 -235.84) rotate(45)"/><rect class="cls-6" x="499.03" y="419.62" width="5.5" height="42.58" transform="translate(1168.37 397.87) rotate(135)"/><rect class="cls-6" x="499.03" y="419.62" width="5.5" height="42.58" transform="translate(458.74 -225.67) rotate(45)"/><rect class="cls-6" x="498.37" y="453.62" width="5.5" height="42.58" transform="translate(1191.27 456.38) rotate(135)"/><rect class="cls-6" x="498.37" y="453.62" width="5.5" height="42.58" transform="translate(482.59 -215.24) rotate(45)"/><rect class="cls-6" x="421.28" y="-35.59" width="8.57" height="305.75" transform="translate(542.85 -308.28) rotate(90)"/><rect class="cls-6" x="421.21" y="-33.23" width="7.92" height="363.87" transform="translate(573.88 -276.46) rotate(90)"/><polygon class="cls-6" points="272.69 113 272.69 121.57 243.23 152.67 243.23 144.75 272.69 113"/><polygon class="cls-6" points="578.44 113 578.44 121.57 607.11 152.67 607.11 144.75 578.44 113"/><rect class="cls-6" x="287.51" y="111.48" width="5.5" height="42.58" transform="translate(178.9 -166.36) rotate(45)"/><rect class="cls-6" x="287.51" y="111.48" width="5.5" height="42.58" transform="translate(-8.87 244.13) rotate(-45)"/><rect class="cls-6" x="322.21" y="111.48" width="5.5" height="42.58" transform="translate(189.07 -190.9) rotate(45)"/><rect class="cls-6" x="322.21" y="111.48" width="5.5" height="42.58" transform="translate(1.29 268.67) rotate(-45)"/><rect class="cls-6" x="356.92" y="111.48" width="5.5" height="42.58" transform="translate(199.23 -215.44) rotate(45)"/><rect class="cls-6" x="356.92" y="111.48" width="5.5" height="42.58" transform="translate(11.46 293.21) rotate(-45)"/><rect class="cls-6" x="391.62" y="111.48" width="5.5" height="42.58" transform="translate(209.39 -239.98) rotate(45)"/><rect class="cls-6" x="391.62" y="111.48" width="5.5" height="42.58" transform="translate(21.62 317.75) rotate(-45)"/><rect class="cls-6" x="426.33" y="111.48" width="5.5" height="42.58" transform="translate(219.56 -264.52) rotate(45)"/><rect class="cls-6" x="426.33" y="111.48" width="5.5" height="42.58" transform="translate(31.79 342.29) rotate(-45)"/><rect class="cls-6" x="461.04" y="111.48" width="5.5" height="42.58" transform="translate(229.72 -289.06) rotate(45)"/><rect class="cls-6" x="461.04" y="111.48" width="5.5" height="42.58" transform="translate(41.95 366.83) rotate(-45)"/><rect class="cls-6" x="495.74" y="111.48" width="5.5" height="42.58" transform="translate(239.89 -313.6) rotate(45)"/><rect class="cls-6" x="495.74" y="111.48" width="5.5" height="42.58" transform="translate(52.12 391.38) rotate(-45)"/><rect class="cls-6" x="530.45" y="111.48" width="5.5" height="42.58" transform="translate(250.05 -338.14) rotate(45)"/><rect class="cls-6" x="530.45" y="111.48" width="5.5" height="42.58" transform="translate(62.28 415.92) rotate(-45)"/><polygon class="cls-6" points="584.43 120.13 581.01 115.77 550.9 145.88 554.79 149.77 584.43 120.13"/><rect class="cls-6" x="565.15" y="111.48" width="5.5" height="42.58" transform="translate(72.45 440.46) rotate(-45)"/><rect class="cls-7" x="258" y="231.46" width="63.1" height="7.94"/><path class="cls-7" d="M302.81,193.31l0,0-12.11-12.11a1.2,1.2,0,0,1-.35-.85V168a1.2,1.2,0,0,0-1.2-1.2h-.1a1.2,1.2,0,0,0-1.2,1.2v13.78h0l10.67,10.67a1.2,1.2,0,0,1,0,1.71l-8.2,8.1a1.2,1.2,0,0,1-1.71,0l-9.66-10a1.2,1.2,0,0,0-1.7,0h0a1.2,1.2,0,0,0,0,1.7l10.52,10.89,0,0,1.69,1.71h0l1.73-1.67,0,0,10-9.84h0l0,0,1.65-1.63Z"/><rect class="cls-8" x="258" y="158.92" width="201.68" height="3.72"/><rect class="cls-6" x="457.91" y="150.68" width="3.53" height="14.11"/><rect class="cls-6" x="256.23" y="151.86" width="3.53" height="14.11"/><circle class="cls-7" cx="278.04" cy="162.63" r="8.65"/><circle class="cls-7" cx="301.4" cy="162.63" r="8.65"/><rect class="cls-6" x="265.94" y="160.77" width="47.92" height="11.96"/><rect class="cls-8" x="251.14" y="228.93" width="76.4" height="3.09" rx="1.54" ry="1.54"/><rect class="cls-8" x="251.7" y="237.86" width="76.4" height="3.09" rx="1.54" ry="1.54"/><polyline class="cls-9" points="260.57 240.94 260.57 228.93 289.35 219.23 289.35 202.25"/><polyline class="cls-9" points="319.33 240.94 319.33 228.93 289.35 219.23"/><polygon class="cls-10" points="587.07 244.65 561.93 244.52 573.04 196.04 576.51 196.06 587.07 244.65"/><rect class="cls-11" x="559.73" y="242.73" width="28.96" height="3.85" transform="matrix(1, 0.01, -0.01, 1, 1.31, -3.06)"/><polygon class="cls-12" points="568.23 217.11 581.07 217.18 580.3 212.97 569.13 212.94 568.23 217.11"/><polygon class="cls-12" points="565.91 227.28 583.27 227.38 582.44 222.82 566.92 222.73 565.91 227.28"/><polygon class="cls-12" points="563.6 237.47 585.48 237.58 584.66 233.09 564.57 233.01 563.6 237.47"/><rect class="cls-8" x="660.75" y="416.65" width="47.91" height="65.41"/><rect class="cls-8" x="546.96" y="418.76" width="23.96" height="64.24"/><rect class="cls-13" x="365.52" y="383.88" width="76.84" height="153.65"/><rect class="cls-14" x="377.91" y="401.65" width="17.69" height="21.14"/><rect class="cls-14" x="408.31" y="401.65" width="17.69" height="21.14"/><rect class="cls-14" x="377.91" y="439.05" width="17.69" height="21.14"/><rect class="cls-14" x="408.31" y="481.09" width="17.69" height="21.14"/><rect class="cls-13" x="271.47" y="286.92" width="76.84" height="250.61"/><rect class="cls-14" x="288.52" y="316.64" width="17.69" height="21.14"/><rect class="cls-14" x="320.55" y="362.36" width="17.69" height="21.14"/><rect class="cls-14" x="300.49" y="397.27" width="17.69" height="21.14"/><rect class="cls-14" x="320.55" y="442.87" width="17.69" height="21.14"/><rect class="cls-13" x="199.84" y="370.5" width="59.78" height="167.03"/><rect class="cls-14" x="225.5" y="395.83" width="11.4" height="13.62"/><rect class="cls-14" x="212.58" y="420.25" width="11.4" height="13.62"/><rect class="cls-14" x="225.5" y="449.63" width="11.4" height="13.62"/><rect class="cls-8" x="105.33" y="333.71" width="603.33" height="22.15"/><rect class="cls-8" x="660.75" y="335.72" width="47.91" height="96.68"/><rect class="cls-8" x="546.96" y="339.59" width="23.96" height="96.68"/><rect class="cls-8" x="546.96" y="245.78" width="161.7" height="20.14"/><rect class="cls-8" x="546.96" y="245.78" width="23.96" height="96.68"/><rect class="cls-8" x="660.75" y="151.79" width="47.91" height="96.68"/><path id="_Path_" data-name="&lt;Path&gt;" class="cls-15" d="M133.47,137.62h0a4.07,4.07,0,0,1,.95,5.67l-20.57,28.25a4.07,4.07,0,0,1-5.67.95h0a4.07,4.07,0,0,1-.95-5.67l20.57-28.25A4.07,4.07,0,0,1,133.47,137.62Z"/><g id="_Clip_Group_" data-name="&lt;Clip Group&gt;"><path id="_Clipping_Path_" data-name="&lt;Clipping Path&gt;" class="cls-16" d="M113.4,156.67l8.42,5.79,14.54-21a5.12,5.12,0,0,0-1.31-7.1h0a5.12,5.12,0,0,0-7.1,1.31Z"/></g><circle id="_Path_2" data-name="&lt;Path&gt;" class="cls-17" cx="130.44" cy="211.17" r="1.56"/><path id="_Path_3" data-name="&lt;Path&gt;" class="cls-15" d="M159.07,225.82h0A5.08,5.08,0,0,0,154,230.9v96.63a5.08,5.08,0,0,0,5.08,5.08h0a5.08,5.08,0,0,0,5.08-5.08V230.9A5.08,5.08,0,0,0,159.07,225.82Z"/><path id="_Path_4" data-name="&lt;Path&gt;" class="cls-15" d="M135,224.1h0a5.08,5.08,0,0,0-5.08,5.08V325.8a5.08,5.08,0,0,0,5.08,5.08h0a5.08,5.08,0,0,0,5.08-5.08V229.17A5.08,5.08,0,0,0,135,224.1Z"/><path id="_Rectangle_" data-name="&lt;Rectangle&gt;" class="cls-16" d="M157.85,208.4h2.35a5.37,5.37,0,0,1,5.37,5.37V322a0,0,0,0,1,0,0h-13.1a0,0,0,0,1,0,0V213.77A5.37,5.37,0,0,1,157.85,208.4Z"/><path id="_Rectangle_2" data-name="&lt;Rectangle&gt;" class="cls-16" d="M133.84,208.4h2.35a5.37,5.37,0,0,1,5.37,5.37V322.32a0,0,0,0,1,0,0h-13.1a0,0,0,0,1,0,0V213.77a5.37,5.37,0,0,1,5.37-5.37Z"/><path id="_Path_5" data-name="&lt;Path&gt;" class="cls-16" d="M165.37,203.22l-37.38.3.22,12a6.42,6.42,0,0,0,6.47,6.37l24.54-.2a6.42,6.42,0,0,0,6.37-6.47Z"/><g id="_Clip_Group_2" data-name="&lt;Clip Group&gt;"><path id="_Clipping_Path_2" data-name="&lt;Clipping Path&gt;" class="cls-18" d="M149.25,131.94h-3.87c-19.15,0-20.88.77-20.88,20.88l1.86,58.93h41.23l1.86-59.61C170,137,169.46,131.94,149.25,131.94Z"/></g><path id="_Path_6" data-name="&lt;Path&gt;" class="cls-15" d="M177.93,170.36h0a4.07,4.07,0,0,0-5.17,2.53l-11,33.16a4.07,4.07,0,0,0,2.53,5.17h0a4.07,4.07,0,0,0,5.17-2.53l11-33.16A4.07,4.07,0,0,0,177.93,170.36Z"/><path id="_Path_7" data-name="&lt;Path&gt;" class="cls-15" d="M162.9,137.21h0a4.07,4.07,0,0,0-2.42,5.22l12.33,32.7a4.07,4.07,0,0,0,5.22,2.42h0a4.07,4.07,0,0,0,2.42-5.22l-12.33-32.7A4.07,4.07,0,0,0,162.9,137.21Z"/><g id="_Clip_Group_3" data-name="&lt;Clip Group&gt;"><path id="_Clipping_Path_3" data-name="&lt;Clipping Path&gt;" class="cls-16" d="M177.69,161.89l-9.56,3.59-9.06-23.84a5.12,5.12,0,0,1,3-6.58h0a5.12,5.12,0,0,1,6.58,3Z"/></g><path id="_Path_8" data-name="&lt;Path&gt;" class="cls-19" d="M161.85,205.87a69.17,69.17,0,0,1-5.29,5.73c1.27,3,5.41,1,5.41,1Z"/><path id="_Path_9" data-name="&lt;Path&gt;" class="cls-15" d="M170,206.9l-2,8s-4.56,4.39-6.86,5.17c-2.68.91-6.26,0-6.91-.25-1.74-.58,5.37-6.66,5.37-6.66l2.35-7.85Z"/><path id="_Path_10" data-name="&lt;Path&gt;" class="cls-15" d="M146.55,120.67h.11a3.23,3.23,0,0,0-3.21,3.33v7.11c0,1.84,1.37,2.41,3.21,2.41h-.06c1.84,0,3.27-.57,3.27-2.41V124A3.33,3.33,0,0,0,146.55,120.67Z"/><path id="_Path_11" data-name="&lt;Path&gt;" class="cls-20" d="M141.08,333.08v0a1.87,1.87,0,0,1-1.87,1.87H111.4a.94.94,0,0,1-.94-.94v-1Z"/><path id="_Path_12" data-name="&lt;Path&gt;" class="cls-20" d="M165,333.08v0a1.87,1.87,0,0,1-1.87,1.87H135.32a.94.94,0,0,1-.94-.94v-1Z"/><path id="_Path_13" data-name="&lt;Path&gt;" class="cls-21" d="M141.08,326.89v6.2H110.45v-.62a2.46,2.46,0,0,1,1.84-2.38l16.31-4.25a4.55,4.55,0,0,1,2.29,0,16.77,16.77,0,0,0,9,.16A.94.94,0,0,1,141.08,326.89Z"/><path id="_Path_14" data-name="&lt;Path&gt;" class="cls-22" d="M162.43,327.84V334H131.8v-.62a2.46,2.46,0,0,1,1.84-2.38l16.31-4.25a4.55,4.55,0,0,1,2.29,0,16.77,16.77,0,0,0,9,.16A.94.94,0,0,1,162.43,327.84Z"/><path id="_Path_15" data-name="&lt;Path&gt;" class="cls-21" d="M165,326.89v6.2H134.37v-.62a2.46,2.46,0,0,1,1.84-2.38l16.31-4.25a4.55,4.55,0,0,1,2.29,0,16.77,16.77,0,0,0,9,.16A.94.94,0,0,1,165,326.89Z"/><path id="_Path_16" data-name="&lt;Path&gt;" class="cls-23" d="M148.78,129.46c10.1-3,12.78-12.16,11.18-21.83-1.68-10.19-10.9-15.84-18.68-13.12-8.85,3.1-12.79,8.37-10.08,18.34,1.7,6.26,7.86,17.83,17.59,16.61Z"/><path id="_Path_17" data-name="&lt;Path&gt;" class="cls-24" d="M156.81,94.63c1.87,2.18,3.22,6,3.94,8.43a2.56,2.56,0,0,0-2.24.22l-.3.2h0l-.14.11-.14.12-.14.14-.1.1-.16.18-.12.15-.12.16-.11.17-.1.17c-.07.12-.13.24-.18.36l0,0,0,.08,0,.05,0,.06v.07a.13.13,0,0,0,0,0l1.56,4.4a2.09,2.09,0,0,1,.05,1.64,2.54,2.54,0,0,1-.12.29,3.34,3.34,0,0,1-1.2.87,2.44,2.44,0,0,1-3-1.28l-.56-1.58a2.41,2.41,0,0,0-2.89-1.53l-.41.11c-.66-1.78-1.15-3.21-1.45-4.1-.37-1.1-1-1.68-3.54-1.07l-.07,0-.7.19-.05,0c-.43.13-.9.28-1.42.47l-11.14,3.94h-.14a5.83,5.83,0,0,1-3.79-1,3.52,3.52,0,0,1-1.4-2l3.09-1.09a6.64,6.64,0,0,1-2.53-2.11,15.5,15.5,0,0,1-1.9-3.13l5.12-1.81s3.8-5.54,9.67-7.07c9.24-2.42,14.24,2.3,14.24,2.3s-3.52,2-1.37,1.39C152.12,95.11,156.66,92.5,156.81,94.63Z"/><path id="_Path_18" data-name="&lt;Path&gt;" class="cls-25" d="M144.39,103.44c-.43.13-.9.28-1.42.47l-11.14,3.94h-.14a5.83,5.83,0,0,1-3.79-1,3.52,3.52,0,0,1-1.4-2s3.71,2.05,5.52,1.76l.14,0C134,106.26,141.82,104.14,144.39,103.44Z"/><g id="_Group_" data-name="&lt;Group&gt;"><line id="_Path_19" data-name="&lt;Path&gt;" class="cls-24" x1="135.24" y1="112.64" x2="138.69" y2="111.22"/><path id="_Path_20" data-name="&lt;Path&gt;" class="cls-24" d="M135.36,113.25a.62.62,0,0,1-.36-1.19l3.45-1.42a.62.62,0,0,1,.47,1.15l-3.45,1.42Z"/></g><g id="_Group_2" data-name="&lt;Group&gt;"><line id="_Path_21" data-name="&lt;Path&gt;" class="cls-24" x1="144.36" y1="109.21" x2="147.94" y2="108.15"/><path id="_Path_22" data-name="&lt;Path&gt;" class="cls-24" d="M144.07,108.66a.62.62,0,0,0,.47,1.15l3.58-1.07a.62.62,0,0,0-.36-1.19l-3.58,1.07Z"/></g><circle id="_Path_23" data-name="&lt;Path&gt;" cx="147.02" cy="112.54" r="0.84" transform="translate(-29.12 55.47) rotate(-19.48)"/><circle id="_Path_24" data-name="&lt;Path&gt;" cx="138.64" cy="115.81" r="0.84" transform="translate(-30.69 52.87) rotate(-19.48)"/><path id="_Path_25" data-name="&lt;Path&gt;" class="cls-25" d="M125.16,98.53s3.58,3.81,6.79,4c2.72.13,14.47-3.6,14.47-3.6a21,21,0,0,1-3.3,2.13c-1,.48-11.12,4.42-13.52,2.74A10.56,10.56,0,0,1,125.16,98.53Z"/><g id="_Group_3" data-name="&lt;Group&gt;"><path id="_Path_26" data-name="&lt;Path&gt;" class="cls-23" d="M156.55,105.87a4.94,4.94,0,0,1,1-2.27c1.9-2.63,5.32-2.26,5.26,1.13,0,2.36.45,8-1.83,6.7A10.5,10.5,0,0,1,156.55,105.87Z"/><polygon id="_Path_27" data-name="&lt;Path&gt;" class="cls-26" points="158.6 105.48 161.7 103.76 160.81 109.17 160.33 105.14 158.6 105.48"/></g><polygon id="_Path_28" data-name="&lt;Path&gt;" class="cls-26" points="143.05 112.67 145.6 119.53 144 119.72 143.05 112.67"/><path class="cls-18" d="M126.82,98.8a17.52,17.52,0,1,1,35,.8"/><rect class="cls-27" x="125.04" y="97.67" width="38.57" height="3.2" rx="1.31" ry="1.31" transform="translate(286.35 201.79) rotate(-178.7)"/><rect class="cls-18" x="141.4" y="80.27" width="6.63" height="2.87" transform="translate(287.53 166.69) rotate(-178.7)"/><g class="cls-28"><path class="cls-29" d="M153.89,105.79l1.58,4.73a3.52,3.52,0,0,1-2,4.54L147,117.22a2.19,2.19,0,1,0-4.13,1.38l-6.46,2.15a3.52,3.52,0,0,1-4.34-2.42l-1.58-4.73Z"/></g><g class="cls-30"><polygon class="cls-31" points="132.03 113.08 134.96 112.1 140.4 119.41 137.47 120.39 132.03 113.08"/><polygon class="cls-31" points="142.52 118.71 141.05 119.19 135.61 111.88 137.08 111.4 142.52 118.71"/><polygon class="cls-31" points="148.32 116.77 142.89 109.46 144.35 108.97 149.79 116.28 148.32 116.77"/><path class="cls-31" d="M143.37,116.13l-4.07-5.48,2.93-1,5.44,7.31-.69.23a2.29,2.29,0,0,0-2.82-1.57A2,2,0,0,0,143.37,116.13Z"/><path class="cls-31" d="M131.37,113.3l5.44,7.31-.43.14a3.52,3.52,0,0,1-4.34-2.42l-1.58-4.73Z"/><path class="cls-31" d="M146.57,108.23l7.32-2.44,1.58,4.73a3.52,3.52,0,0,1-2,4.54l-1.43.48Z"/></g><path class="cls-32" d="M153.89,105.79l1.58,4.73a3.52,3.52,0,0,1-2,4.54L147,117.22a2.19,2.19,0,1,0-4.13,1.38l-6.46,2.15a3.52,3.52,0,0,1-4.34-2.42l-1.58-4.73Z"/><line class="cls-33" x1="149.68" y1="121.27" x2="143.06" y2="122.68"/><g class="cls-34"><path d="M148.8,170.69h12.59a0,0,0,0,1,0,0v12.46a4.31,4.31,0,0,1-4.31,4.31h-4a4.31,4.31,0,0,1-4.31-4.31V170.69A0,0,0,0,1,148.8,170.69Z" transform="translate(310.18 358.16) rotate(-180)"/><path d="M150,172.72h10.15a0,0,0,0,1,0,0v12.6a.38.38,0,0,1-.38.38h-9.39a.38.38,0,0,1-.38-.38v-12.6a0,0,0,0,1,0,0Z" transform="translate(310.18 358.42) rotate(-180)"/><rect x="152.82" y="171.32" width="4.24" height="0.72" transform="translate(309.88 343.35) rotate(-180)"/><circle cx="155.02" cy="177.17" r="2.4"/></g><path id="_Path_29" data-name="&lt;Path&gt;" class="cls-19" d="M144,178.92a69.17,69.17,0,0,0,7.79-.35c1.5,2.93-2.69,4.81-2.69,4.81Z"/><path class="cls-35" d="M147.65,171.27h12.59a0,0,0,0,1,0,0v15a1.18,1.18,0,0,1-1.18,1.18H148.83a1.18,1.18,0,0,1-1.18-1.18v-15A0,0,0,0,1,147.65,171.27Z" transform="translate(307.88 358.74) rotate(-180)"/><path class="cls-36" d="M148.86,173.3H159a0,0,0,0,1,0,0v13.79a.38.38,0,0,1-.38.38h-9.39a.38.38,0,0,1-.38-.38V173.3A0,0,0,0,1,148.86,173.3Z" transform="translate(307.88 360.77) rotate(-180)"/><rect class="cls-37" x="151.66" y="171.89" width="4.24" height="0.72" transform="translate(307.57 344.51) rotate(-180)"/><circle class="cls-38" cx="153.87" cy="177.75" r="2.4"/><path id="_Path_30" data-name="&lt;Path&gt;" class="cls-15" d="M107,167.89h0a4.07,4.07,0,0,1,5.26-2.32l32.46,13a4.07,4.07,0,0,1,2.32,5.26h0a4.07,4.07,0,0,1-5.26,2.32l-32.46-13A4.07,4.07,0,0,1,107,167.89Z"/><rect class="cls-16" x="144.29" y="186.1" width="19.86" height="5.33" transform="translate(308.44 377.53) rotate(-180)"/><path id="_Path_31" data-name="&lt;Path&gt;" class="cls-15" d="M140.07,185.41l7.4,3.64s6.29-.65,8.37-1.91c2.42-1.46,4-4.8,4.27-5.44.68-1.71-8.56-.19-8.56-.19L144,178.24Z"/><path class="cls-39" d="M144.7,172.77a3.86,3.86,0,0,1,3.86-3.86"/><path class="cls-39" d="M142.63,172.1a5.38,5.38,0,0,1,5.38-5.38"/></g></svg>