<svg id="Layer_1" data-name="Layer 1" xmlns="http://www.w3.org/2000/svg" xmlns:xlink="http://www.w3.org/1999/xlink" viewBox="0 0 708.66 481.89"><defs><style>.cls-1{fill:none;}.cls-2{fill:#ffe4cc;}.cls-3{opacity:0.07;}.cls-4{fill:#151516;}.cls-5{fill:#6b6a6a;}.cls-6{fill:#3952a0;}.cls-7{fill:#f4f4f4;}.cls-8{fill:#9b9b9a;}.cls-9{fill:#d5eff0;}.cls-10{fill:#c5d8d8;}.cls-11{fill:#fff;}.cls-12{opacity:0.59;}.cls-13{fill:#ceebed;}.cls-14{opacity:0.47;}.cls-15{fill:#f2f2f2;}.cls-16{fill:#5681a5;}.cls-17,.cls-20{fill:#f8ab8d;}.cls-18{fill:#fec82b;}.cls-19{fill:#54402b;}.cls-20,.cls-25{fill-rule:evenodd;}.cls-21{fill:#3f5aa8;}.cls-22{fill:#c2dbf2;}.cls-23{opacity:0.35;}.cls-24{fill:#caeae8;}.cls-25,.cls-28{fill:#dc846a;}.cls-26{fill:#6c4e38;}.cls-27{fill:#648ec9;}.cls-29{fill:#2c4277;}.cls-30{fill:#dd4439;}.cls-31{fill:#f9f2f2;}.cls-32{fill:#ba3431;}.cls-33{clip-path:url(#clip-path);}.cls-34{fill:#fdfeff;}.cls-35{fill:#45936a;}.cls-36{fill:#4ead7e;}.cls-37{fill:#fece57;}</style><clipPath id="clip-path"><circle class="cls-1" cx="458.98" cy="205.99" r="15.52" transform="translate(5.16 423.1) rotate(-49.74)"/></clipPath></defs><title>CS-L2-U8</title><rect class="cls-2" x="-0.44" y="82.02" width="708.66" height="236.98"/><g class="cls-3"><path class="cls-4" d="M587.54,293.18H499.27a13.5,13.5,0,0,0-13.5,13.5v39.73c-8.93,6.61-24.64,28.78-20.3,102.5.23,3.93-2.92,6.53-9.38,7.73-20,3.7-65.87-8.81-69.94-21.62-1.21-3.82,1.73-7.4,8.74-10.62,11.61-5.35,17.49-10.73,18-16.45.7-8.21-9.87-15.45-20.09-22.46-9.65-6.61-19.63-13.45-19-20.34.78-8.59,8.43-19.7,16.54-31.45C400,319.57,410.07,305,409.7,292.63a22.18,22.18,0,0,0,14.3-7.69l2.22-2.62L473.11,227h0l6.27-7.41a22.27,22.27,0,0,0-20.51-36.39c.48-.63.6-1.09.4-1.47-.58-1.06-3.12-.31-9.68,1.94-3,1-7.46,2.55-8.45,2.37.27-1,3.64-4.31,5.91-6.54,4.92-4.86,6.71-6.79,6-7.77s-3.17,0-9.53,3c-2.83,1.32-7.06,3.28-8,3.22.14-1,3.17-4.76,5.2-7.27,4.29-5.31,5.84-7.4,5.06-8.29s-3.19.41-9.22,4.22c-2.75,1.74-6.48,4.09-7.43,4.15-.06-1,2.41-5.32,4.07-8.21,3.4-5.93,4.51-8.07,3.6-8.78-.62-.49-1.64,0-3.42,1.58a71.91,71.91,0,0,0-5.81,5.51l-1.83,1.84L438.18,141,412,123.34,386,167l28.75,14.59,9.18-15.89a67.89,67.89,0,0,0,5.25-5c1.54-1.55,3.56-3.6,5.06-4.92a2.9,2.9,0,0,1,.93-.55c0,1-2.19,4.72-3.78,7.49-3.47,6.06-4.8,8.61-3.92,9.47s3-.49,8.69-4.07c2.79-1.77,7-4.41,7.87-4.41h0c-.14.95-3.07,4.57-5,7-4.4,5.45-6,7.6-5.25,8.55s3.12-.08,9.3-3c3-1.38,7.39-3.42,8.23-3.33-.22.93-3.6,4.26-5.86,6.5-4.93,4.87-6.73,6.8-6.1,7.81s3.15.25,9.67-2c3-1,7.4-2.54,8.42-2.37a2.58,2.58,0,0,1-.42.58,22.16,22.16,0,0,0-11.62,7.2h0a22.28,22.28,0,0,0,2.6,31.41l3,2.57-26.58,31.38-3-2.57a22.28,22.28,0,1,0-13.69,39.25c.3,11.68-9.53,25.95-19.06,39.77-8.25,12-16.05,23.29-16.88,32.4C371,373,381,379.87,391.63,387.12c9.75,6.68,19.83,13.59,19.23,20.64-.41,4.87-6.07,9.85-16.81,14.8-8.07,3.72-11.37,8.11-9.81,13,2,6.44,13.25,13.28,30,18.29,11.65,3.49,23.79,5.41,33.34,5.41a49.64,49.64,0,0,0,8.89-.71c9.47-1.75,11.22-6.31,11-9.81-4.08-69.18,9.84-92.12,18.3-99.62v4.58H601V306.68A13.5,13.5,0,0,0,587.54,293.18ZM458.26,182.33a.78.78,0,0,0-.15-.14h.22Zm-6.05-10.08a1,1,0,0,1-.07.18.78.78,0,0,0-.18-.17A1,1,0,0,1,452.21,172.25ZM445,163a1,1,0,0,1-.06.2l-.06-.09-.09-.08.19,0Zm-8.87-8.49a1.24,1.24,0,0,1,0,.22.74.74,0,0,0-.12-.17Zm-7.87,16.69a.81.81,0,0,0,.15.24l-.18,0A1.17,1.17,0,0,1,428.22,171.2Zm6.42,7.46h-.06a1.09,1.09,0,0,1,.05-.19l0,.08.1.1Zm5.58,8.11a1.14,1.14,0,0,1,.06-.16.77.77,0,0,0,.18.17Z"/><path class="cls-4" d="M379.79,164.56c12.43-14.69,24.57-36.51,28.8-46.07h-.12s-3.39-32.81-14.74-38.09c-11.2-5.21-37.25-6.13-31.18,4.35C349.49,78.93,332,86.13,322.1,102c-9.54,15.26-8.77,33.35,1.11,42.86a13.63,13.63,0,0,0,4.87,4.17c8.88,4.71,37.35,16.33,41.43,16.49a48.69,48.69,0,0,0,10-1.18Zm-.71-74.19c-.57,3.66-3.48,2.83-6.3-.83,0,0,.33-.14.85-.31C375.45,88.59,379.53,87.51,379.08,90.36Z"/><path class="cls-4" d="M405.56,218.68a1.5,1.5,0,0,0,1.87,1l24.62-7.49a1.5,1.5,0,1,0-.87-2.87l-24.62,7.49A1.5,1.5,0,0,0,405.56,218.68Z"/><path class="cls-4" d="M429.62,204.9a1.5,1.5,0,0,0,0-3H414.28a1.5,1.5,0,0,0,0,3Z"/><path class="cls-4" d="M470,171.44h.1a1.5,1.5,0,0,0,1.5-1.4l1.64-25.68a1.5,1.5,0,1,0-3-.19l-1.64,25.68A1.5,1.5,0,0,0,470,171.44Z"/><path class="cls-4" d="M461,170a1.5,1.5,0,0,0,2.92-.69l-3.52-14.92a1.5,1.5,0,0,0-2.92.69Z"/></g><path class="cls-5" d="M268.71,361.94H119.61l7-132a38.52,38.52,0,0,1,38.52-38.52h51A38.52,38.52,0,0,1,254.66,230Z"/><path class="cls-3" d="M305.68,158.49h0l-.22-.25L268.37,101l1.2-.81-7-10.37-4.34,2.91L247.46,75.86s-9-26.12-13.11-22.86c-1.54,1.22-6.51,13.4-8.52,21.24-1.73,6.74,4.34,19,4.34,19l8.43,12.66L232.5,110l7,10.37,2-1.36,29.95,46.25L236.15,193.6l-1-9.72s3.87-27.35-1.29-26.32c-1.93.39-11.89,9-17.24,15-4.6,5.21-4.78,18.89-4.78,18.89l1.76,15.1-7.28.87.59,5-6.47,1.3v-.1l-11,2.21L188,208.66l.19-.05C210,197.75,206.89,165.28,201.82,150c-.36-1.1-.75-2.14-1.14-3.17a92.47,92.47,0,0,0-2.39-16.62c-4.49-18-12.23-17.62-14.68-17-11.25-12.82-24.93-11.52-38.67-5.51a50.8,50.8,0,0,0-17.29,12.05,11.12,11.12,0,0,0-5.91-3.07c-7.3-1.23-14.5,5.35-16.08,14.7s3.06,17.93,10.37,19.16a10.62,10.62,0,0,0,2.5.11c1,7.36,3.95,15.65,9.31,24.92a9,9,0,0,0,1.52,3.47c3.19,4.64,9.46,16.13,12.65,12.2,7.32,10.4,17.05,17.69,29,19.15l1.77,8.83L158.5,222l.07.09-10,2h0l-2.22.44a23.3,23.3,0,0,0-10.48,5,16.15,16.15,0,0,0-11.57,9.29h0a16.18,16.18,0,0,0,5.89,20c5,15.69,17.18,54.16,20.24,69.44,4.93,24.59,4.85,60,4.85,60l110.18-22.07-16-79.9a16.09,16.09,0,0,0,0-2.08l-5.7-55.3,59.44-47.76A16.19,16.19,0,0,0,305.68,158.49Z"/><path class="cls-6" d="M499.27,297.18h88.27a13.5,13.5,0,0,1,13.5,13.5v47.07a0,0,0,0,1,0,0H485.77a0,0,0,0,1,0,0V310.68A13.5,13.5,0,0,1,499.27,297.18Z"/><circle class="cls-7" cx="543.4" cy="329.17" r="23.93"/><circle class="cls-8" cx="543.4" cy="311.51" r="3.99"/><circle class="cls-8" cx="534.57" cy="313.87" r="3.99" transform="translate(-85.32 309.34) rotate(-30)"/><circle class="cls-8" cx="528.11" cy="320.34" r="3.99" transform="translate(-13.37 617.52) rotate(-60)"/><circle class="cls-8" cx="525.74" cy="329.17" r="3.99"/><circle class="cls-8" cx="528.11" cy="338.01" r="3.99" transform="translate(-98.25 309.34) rotate(-30)"/><circle class="cls-8" cx="534.57" cy="344.47" r="3.99" transform="translate(-31.04 635.19) rotate(-60)"/><circle class="cls-8" cx="543.4" cy="346.84" r="3.99"/><circle class="cls-8" cx="552.24" cy="344.47" r="3.99" transform="translate(-98.25 322.27) rotate(-30)"/><circle class="cls-8" cx="558.7" cy="338.01" r="3.99" transform="translate(-13.37 652.85) rotate(-60)"/><circle class="cls-8" cx="561.07" cy="329.17" r="3.99"/><circle class="cls-8" cx="558.7" cy="320.34" r="3.99" transform="translate(-85.32 322.27) rotate(-30)"/><circle class="cls-8" cx="552.24" cy="313.87" r="3.99" transform="translate(4.3 635.19) rotate(-60)"/><rect class="cls-9" x="512.07" y="38.56" width="154.88" height="207.52"/><rect class="cls-10" x="536.41" y="118.41" width="34.78" height="124.21"/><rect class="cls-10" x="623.46" y="150.98" width="21.5" height="91.64"/><rect class="cls-10" x="587.45" y="86.73" width="21.5" height="91.64"/><rect class="cls-10" x="590.48" y="66.97" width="15.45" height="65.85"/><rect class="cls-10" x="577.1" y="103.75" width="42.2" height="138.88"/><rect class="cls-10" x="639.06" y="183.6" width="22.31" height="59.03"/><rect class="cls-10" x="519.08" y="180.84" width="26.68" height="61.78"/><rect class="cls-11" x="502.87" y="242.62" width="171.59" height="9.58" rx="2" ry="2"/><g class="cls-12"><rect class="cls-13" x="513.04" y="38.56" width="154.88" height="130.37"/></g><g class="cls-14"><polygon class="cls-11" points="616.26 38.56 512.08 142.74 512.08 134.82 608.34 38.56 616.26 38.56"/></g><g class="cls-14"><polygon class="cls-11" points="649.64 38.56 519.27 168.93 516.07 168.93 512.08 164.94 512.08 149.96 623.47 38.56 649.64 38.56"/></g><rect class="cls-15" x="511.45" y="42.31" width="9.54" height="201.06"/><rect class="cls-15" x="657.89" y="43.07" width="9.54" height="199.56"/><rect class="cls-15" x="502.87" y="33.49" width="171.59" height="9.58" rx="2" ry="2"/><rect class="cls-11" x="511.45" y="163.05" width="155.51" height="8.68" rx="1.81" ry="1.81"/><rect id="_Rectangle_" data-name="&lt;Rectangle&gt;" class="cls-16" x="242.21" y="133.43" width="32.37" height="134.15" rx="16.19" ry="16.19" transform="translate(252.85 -126.51) rotate(51.22)"/><path id="_Path_" data-name="&lt;Path&gt;" class="cls-17" d="M269.54,144.84l-34.37-51.6s-6.07-12.26-4.34-19c2-7.84,7-20,8.52-21.24,4.13-3.26,13.11,22.86,13.11,22.86l36.38,56.62Z"/><path id="_Path_2" data-name="&lt;Path&gt;" class="cls-16" d="M270.44,96.43l-27.29,17.4,40.4,62.39a16.14,16.14,0,0,0,22.3,4.87h0a16.14,16.14,0,0,0,5-22.27Z"/><rect class="cls-18" x="237.91" y="98.83" width="36.26" height="12.49" transform="matrix(-0.83, 0.56, -0.56, -0.83, 527.21, 49.73)"/><path id="_Path_3" data-name="&lt;Path&gt;" class="cls-19" d="M187.84,113.42s10.06-4.81,15.45,16.75A97.08,97.08,0,0,1,205.83,152l-20.75-14.64-18.52-3.28,18.93-12.72Z"/><path id="_Path_4" data-name="&lt;Path&gt;" class="cls-20" d="M193.16,208.61c-25,7.71-43.23-7.67-53.21-29.93-10.51-23.45.85-47.86,20.74-52.9,22.63-5.74,38.05-.21,46.13,24.19,5.07,15.32,8.2,47.79-13.66,58.65Z"/><path id="_Path_5" data-name="&lt;Path&gt;" class="cls-18" d="M151.39,224.56l64.27-12.88A23.41,23.41,0,0,1,243.22,230l27.3,136.25L160.33,388.36s.07-35.39-4.85-60C151.59,309,133,252.12,133,252.12A23.41,23.41,0,0,1,151.39,224.56Z"/><path id="_Path_6" data-name="&lt;Path&gt;" class="cls-17" d="M161.47,227.8c2.33,11.63,15.71,18.75,29.87,15.92s23.77-14.57,21.44-26.2a17.64,17.64,0,0,0-1.76-4.9l-49.82,10A17.64,17.64,0,0,0,161.47,227.8Z"/><polygon id="_Path_7" data-name="&lt;Path&gt;" class="cls-21" points="153.61 224.12 152.27 238.12 165.31 246.79 162.45 256.25 223.71 313.87 229.09 242.71 221.4 235.09 223.16 223.92 212.2 212.38 153.61 224.12"/><polygon id="_Path_8" data-name="&lt;Path&gt;" class="cls-22" points="205.45 213.63 211.86 285.24 163.5 222.03 205.45 213.63"/><rect id="_Rectangle_2" data-name="&lt;Rectangle&gt;" class="cls-17" x="176.12" y="193.69" width="16.97" height="32.77" rx="8.49" ry="8.49" transform="translate(406.88 379.8) rotate(168.67)"/><g id="_Group_" data-name="&lt;Group&gt;" class="cls-23"><line id="_Path_9" data-name="&lt;Path&gt;" class="cls-24" x1="202.19" y1="153.17" x2="192.32" y2="153.09"/><path id="_Path_10" data-name="&lt;Path&gt;" d="M202.49,154.79a1.64,1.64,0,0,0-.29-3.26l-9.86-.08a1.64,1.64,0,1,0,0,3.29l9.86.08A1.67,1.67,0,0,0,202.49,154.79Z"/></g><g id="_Group_2" data-name="&lt;Group&gt;" class="cls-23"><line id="_Path_11" data-name="&lt;Path&gt;" class="cls-24" x1="175.11" y1="157.24" x2="166.65" y2="162.32"/><path id="_Path_12" data-name="&lt;Path&gt;" d="M174.55,155.7a1.64,1.64,0,0,1,1.41,3l-8.45,5.08a1.64,1.64,0,0,1-1.69-2.82l8.45-5.08A1.67,1.67,0,0,1,174.55,155.7Z"/></g><circle id="_Path_13" data-name="&lt;Path&gt;" cx="176.75" cy="169.56" r="2.22" transform="translate(-35.85 47.94) rotate(-14.04)"/><circle id="_Path_14" data-name="&lt;Path&gt;" cx="199.97" cy="164.53" r="2.22" transform="translate(-33.94 53.42) rotate(-14.04)"/><polygon id="_Path_15" data-name="&lt;Path&gt;" class="cls-25" points="186.58 163.39 190.98 182.2 194.78 180.28 186.58 163.39"/><ellipse id="_Path_16" data-name="&lt;Path&gt;" class="cls-19" cx="123.89" cy="133.57" rx="17.17" ry="13.41" transform="translate(-28.44 233.5) rotate(-80.42)"/><path id="_Path_17" data-name="&lt;Path&gt;" class="cls-26" d="M145,180.38s11.69-.71,7.19-12.26c5.82-2.46,32.22-22.34,36.86-54.46-11.33-13.36-25.19-12.08-39.1-6-20.56,9-39.3,30.84-16.26,69.32C135.4,179.84,141.38,178.77,145,180.38Z"/><g id="_Group_3" data-name="&lt;Group&gt;"><path id="_Path_18" data-name="&lt;Path&gt;" class="cls-20" d="M149.09,172.69a12.4,12.4,0,0,0-5.28-3.33c-7.61-2.88-14.26,2.66-9.45,9.65,3.36,4.88,10.11,17.33,13.12,11.49C149.78,186,150.7,179.82,149.09,172.69Z"/><polygon id="_Path_19" data-name="&lt;Path&gt;" class="cls-25" points="144.29 174.72 135.41 175.41 144.75 185.5 140.19 176.4 144.29 174.72"/></g><rect id="_Rectangle_3" data-name="&lt;Rectangle&gt;" class="cls-27" x="174.5" y="198.98" width="32.37" height="134.15" rx="16.19" ry="16.19" transform="translate(511.15 199.4) rotate(113.88)"/><path id="_Path_20" data-name="&lt;Path&gt;" class="cls-17" d="M224,253.09l-7.16-61.58s.17-13.68,4.78-18.89c5.36-6.07,15.31-14.66,17.24-15,5.16-1,1.29,26.32,1.29,26.32l6.67,67Z"/><path id="_Path_21" data-name="&lt;Path&gt;" class="cls-27" d="M246.84,210.38l-32.22,3.09,7.62,73.93a16.14,16.14,0,0,0,17.65,14.48h0a16.14,16.14,0,0,0,14.57-17.57Z"/><rect class="cls-18" x="211.96" y="205.29" width="36.26" height="12.49" transform="translate(483.63 394.29) rotate(173.19)"/><ellipse class="cls-28" cx="186.2" cy="193.39" rx="9.25" ry="6.14" transform="translate(-44.93 56.83) rotate(-15.51)"/><rect class="cls-6" x="434.5" y="213.28" width="18.3" height="76.59" transform="matrix(0.76, 0.65, -0.65, 0.76, 267.7, -227.13)"/><path class="cls-6" d="M462.38,186.87h0a22.28,22.28,0,0,1,22.28,22.28v9.71a12.58,12.58,0,0,1-12.58,12.58h-9.71a22.28,22.28,0,0,1-22.28-22.28v0a22.28,22.28,0,0,1,22.28-22.28Z" transform="translate(244.72 -249.28) rotate(40.26)"/><path class="cls-6" d="M407,252.26h9.71a12.58,12.58,0,0,1,12.58,12.58v9.71A22.28,22.28,0,0,1,407,296.82h0a22.28,22.28,0,0,1-22.28-22.28v0A22.28,22.28,0,0,1,407,252.26Z" transform="translate(273.86 -198) rotate(40.26)"/><circle class="cls-29" cx="403.91" cy="271.62" r="15.52" transform="translate(-64.4 404.29) rotate(-49.74)"/><circle class="cls-29" cx="458.98" cy="205.99" r="15.52" transform="translate(5.16 423.1) rotate(-49.74)"/><path class="cls-30" d="M393.72,84.41c-11.36-5.28-38-6.17-30.93,4.79a11.53,11.53,0,0,0-1.27-.4c-3.19-.95-8.36,3.58-19.16,13.88-10.56,10.07-17,25.07-19.57,30.71s-3.59,14.89,5.29,19.61,37.35,16.33,41.43,16.49a48.7,48.7,0,0,0,10-1.18l.23.25c12.43-14.69,24.57-36.51,28.8-46.07h-.12S405.08,89.69,393.72,84.41Zm-14.65,10c-.57,3.66-3.48,2.83-6.3-.83,0,0,.33-.14.85-.31C375.45,92.59,379.53,91.51,379.08,94.36Z"/><path class="cls-30" d="M326.87,151.68c-13.24-8.28-15.38-28.75-4.77-45.72s29.95-24,43.19-15.75"/><path class="cls-31" d="M338.18,152.69a1,1,0,0,1-.49-.13,23.43,23.43,0,0,1-4.53-3.32,1,1,0,1,1,1.37-1.46,21.5,21.5,0,0,0,4.15,3,1,1,0,0,1-.49,1.87Z"/><path class="cls-31" d="M330.9,146.16a1,1,0,0,1-.81-.41c-7.46-10.29-7.32-26.37.35-40a1,1,0,1,1,1.74,1c-7.29,13-7.48,28.18-.47,37.85a1,1,0,0,1-.81,1.59Z"/><polygon class="cls-30" points="414.75 185.63 386.01 171.04 411.95 127.34 438.18 145.05 414.75 185.63"/><polygon class="cls-32" points="413.62 173.22 397.12 164.84 412.01 139.75 427.07 149.92 413.62 173.22"/><g class="cls-33"><path class="cls-30" d="M466.15,223.4a71,71,0,0,1-7.68-.76c-3.29-.43-7.8-1-8.42-.57l-.84-.53c.51-.95,3-.72,9.38.11,3.1.4,7.68,1,8.8.66-.91-.65-4.92-1.69-7.9-2.46-6.68-1.72-9.41-2.55-9.48-3.75s2.3-2,8.56-4.12c3.07-1,7.62-2.57,8.37-3.36-1-.4-5.29-.18-8.5,0-6.88.35-9.71.38-10.07-.77s1.82-2.51,7.62-6c2.75-1.64,6.83-4.08,7.37-5-1-.26-5.5.71-8.53,1.37-6.8,1.48-9.42,1.93-9.94.85s1.48-2.77,6.84-7c2.47-2,6.15-4.89,6.57-5.85-1-.17-5.45,1.35-8.42,2.37-6.52,2.23-9,3-9.67,2s1.17-2.95,6.1-7.81c2.26-2.23,5.64-5.57,5.86-6.5-.84-.12-5.27,2-8.23,3.33-6.18,2.88-8.58,3.89-9.29,3s.85-3.1,5.25-8.55c2-2.43,4.89-6.06,5-7h0c-.89,0-5.07,2.64-7.87,4.41-5.66,3.58-7.87,4.85-8.69,4.07s.44-3.41,3.92-9.47c1.59-2.78,3.75-6.53,3.78-7.49-.9.17-4.5,3.8-6.91,6.23-4.88,4.93-6.33,6.2-7.21,5.71l.48-.88a.22.22,0,0,0-.1,0c.73-.05,3.85-3.21,6.13-5.51,5.08-5.13,7.26-7.15,8.3-6.32s-.2,2.85-3.6,8.78c-1.66,2.89-4.13,7.2-4.07,8.21,1-.05,4.68-2.41,7.43-4.15,6-3.81,8.38-5.16,9.22-4.22s-.77,3-5.06,8.29c-2,2.52-5.06,6.27-5.2,7.27,1,.06,5.21-1.9,8-3.22,6.36-3,8.83-4,9.53-3s-1.11,2.91-6,7.77c-2.26,2.24-5.64,5.57-5.91,6.54,1,.19,5.45-1.34,8.45-2.37,6.56-2.25,9.1-3,9.68-1.94s-1.43,2.81-6.89,7.15c-2.46,2-6.13,4.87-6.51,5.8,1,.32,5.63-.7,8.77-1.38,6.72-1.46,9.3-1.9,9.74-.8s-1.79,2.63-7.86,6.25c-2.67,1.59-6.64,4-7.13,4.81.88.49,5.75.24,9,.07,6.93-.35,9.38-.37,9.61.79s-2.3,2.24-9.11,4.54c-3.07,1-7.23,2.44-7.85,3.13.65.75,5.47,2,8.69,2.82,6.66,1.72,9,2.42,8.78,3.6C468.42,223.13,467.7,223.4,466.15,223.4Z"/></g><path class="cls-30" d="M458.35,186.46c-.58-1.06-3.12-.31-9.68,1.94-3,1-7.45,2.56-8.45,2.37.27-1,3.64-4.31,5.91-6.54,4.91-4.86,6.71-6.78,6-7.77s-3.17,0-9.52,3c-2.78,1.3-6.91,3.22-8,3.22h-.06c.14-1,3.17-4.76,5.2-7.27,4.29-5.31,5.84-7.4,5.06-8.29s-3.18.41-9.22,4.22c-2.75,1.74-6.48,4.09-7.44,4.15-.06-1,2.42-5.32,4.07-8.21,3.4-5.93,4.51-8.07,3.6-8.78s-3.22,1.19-8.31,6.32c-2.28,2.3-5.4,5.45-6.12,5.51a.23.23,0,0,1,.1,0l-.48.88c.89.49,2.34-.79,7.21-5.71,2.41-2.43,6-6.07,6.91-6.23,0,1-2.19,4.72-3.78,7.49-3.47,6.06-4.8,8.61-3.92,9.47s3-.49,8.69-4.07c2.79-1.77,7-4.41,7.87-4.41h0c-.14.95-3.07,4.57-5,7-4.4,5.45-6,7.6-5.25,8.55s3.12-.08,9.3-3c3-1.38,7.39-3.42,8.23-3.33-.22.93-3.6,4.26-5.86,6.5-4.93,4.87-6.73,6.8-6.1,7.81s3.15.25,9.67-2c3-1,7.4-2.54,8.42-2.37-.4.93-3.83,3.67-6.29,5.63a18.34,18.34,0,0,1,2.51-.73C457.45,188.78,458.85,187.37,458.35,186.46Z"/><path class="cls-34" d="M407,223.75a1.5,1.5,0,0,1-.44-2.94l24.62-7.49a1.5,1.5,0,0,1,.87,2.87l-24.62,7.49A1.51,1.51,0,0,1,407,223.75Z"/><path class="cls-34" d="M429.62,208.9H414.28a1.5,1.5,0,0,1,0-3h15.33a1.5,1.5,0,0,1,0,3Z"/><path class="cls-34" d="M470.1,175.45H470a1.5,1.5,0,0,1-1.4-1.59l1.64-25.68a1.5,1.5,0,1,1,3,.19L471.6,174A1.5,1.5,0,0,1,470.1,175.45Z"/><path class="cls-34" d="M462.47,175.19A1.5,1.5,0,0,1,461,174l-3.52-14.92a1.5,1.5,0,1,1,2.92-.69l3.52,14.92a1.5,1.5,0,0,1-1.46,1.84Z"/><rect class="cls-22" x="56.99" y="356.9" width="606.36" height="41.14" rx="20.57" ry="20.57"/><path class="cls-6" d="M447.57,463.31c-9.56,0-21.7-1.92-33.34-5.41-16.73-5-27.93-11.85-30-18.29-1.57-4.94,1.73-9.33,9.81-13,10.74-5,16.4-9.93,16.81-14.8.6-7-9.48-14-19.23-20.64C381,383.87,371,377,371.77,369c.83-9.12,8.63-20.43,16.88-32.4C398.66,322,409,307,407.59,295l2-.23c1.5,12.74-9.06,28.07-19.28,42.89-8.1,11.75-15.75,22.85-16.54,31.45-.63,6.89,9.35,13.72,19,20.34,10.22,7,20.79,14.25,20.09,22.46-.48,5.72-6.36,11.1-18,16.45-7,3.23-9.95,6.8-8.74,10.63,4.07,12.81,50,25.33,69.94,21.63,6.45-1.2,9.61-3.8,9.38-7.73-5.86-99.35,24.72-105.08,26-105.27l.29,2-.15-1,.15,1c-.3,0-30.06,6-24.33,103.18.21,3.51-1.54,8.06-11,9.81A49.64,49.64,0,0,1,447.57,463.31Z"/><path class="cls-35" d="M152.88,303.3l-6.76,56.29a6.77,6.77,0,0,1-6.76,6.76H108a6.77,6.77,0,0,1-6.76-6.76L94.47,303.9l-.07-.6a6.77,6.77,0,0,1,6.78-6.76h44.93A6.76,6.76,0,0,1,152.88,303.3Z"/><path class="cls-36" d="M132.78,314.94v51.41H108a6.77,6.77,0,0,1-6.76-6.76L94.47,303.9h27.26A11,11,0,0,1,132.78,314.94Z"/><path class="cls-11" d="M145.12,271.24c3.86,9.22,4.79,17.62,2.07,18.76s-8.05-5.41-11.91-14.64-3.14-13.68-.42-14.81S141.26,262,145.12,271.24Z"/><path class="cls-11" d="M149.25,308.76c-3.86-9.22-4.78-17.62-2.07-18.76s8.05,5.42,11.91,14.64,3.13,13.67.41,14.81S153.12,318,149.25,308.76Z"/><path class="cls-11" d="M128.42,292.08c9.22-3.86,17.62-4.79,18.76-2.07s-5.42,8.05-14.65,11.91-13.67,3.14-14.81.41S119.2,295.94,128.42,292.08Z"/><path class="cls-11" d="M165.95,287.94c-9.22,3.86-17.62,4.79-18.76,2.07s5.42-8,14.64-11.91,13.67-3.13,14.81-.42S175.17,284.08,165.95,287.94Z"/><path class="cls-11" d="M159,275.28c-3.79,9.25-9.08,15.84-11.8,14.73s-1.86-9.52,1.93-18.77,7.46-11.89,10.18-10.77S162.78,266,159,275.28Z"/><path class="cls-11" d="M135.38,304.73c3.79-9.25,9.08-15.85,11.8-14.73s1.86,9.53-1.93,18.78-7.46,11.89-10.18,10.77S131.59,314,135.38,304.73Z"/><path class="cls-11" d="M132.46,278.2c9.25,3.79,15.85,9.08,14.73,11.8s-9.52,1.87-18.78-1.93-11.89-7.45-10.77-10.18S123.2,274.41,132.46,278.2Z"/><path class="cls-11" d="M161.92,301.81c-9.25-3.79-15.85-9.08-14.73-11.81s9.52-1.86,18.77,1.93,11.89,7.45,10.77,10.18S171.17,305.6,161.92,301.81Z"/><path class="cls-11" d="M152.52,271.9c0,10-2.39,18.1-5.33,18.1s-5.33-8.1-5.33-18.1,2.39-13.83,5.33-13.83S152.52,261.9,152.52,271.9Z"/><path class="cls-11" d="M141.85,308.11c0-10,2.39-18.11,5.33-18.11s5.33,8.11,5.33,18.11-2.39,13.82-5.33,13.82S141.85,318.11,141.85,308.11Z"/><path class="cls-11" d="M129.08,284.67c10,0,18.11,2.39,18.11,5.33s-8.11,5.33-18.11,5.33S115.25,293,115.25,290,119.08,284.67,129.08,284.67Z"/><path class="cls-11" d="M165.29,295.34c-10,0-18.1-2.38-18.1-5.33s8.1-5.33,18.1-5.33,13.83,2.39,13.83,5.33S175.29,295.34,165.29,295.34Z"/><path class="cls-11" d="M163.76,281c-7.07,7.07-14.49,11.11-16.57,9s2-9.51,9-16.57,11.46-8.09,13.55-6S170.83,273.9,163.76,281Z"/><path class="cls-11" d="M130.61,299c7.07-7.07,14.49-11.11,16.57-9s-2,9.51-9,16.58-11.46,8.09-13.55,6S123.54,306.11,130.61,299Z"/><path class="cls-11" d="M138.16,273.43c7.07,7.07,11.11,14.49,9,16.57s-9.5-2-16.57-9-8.09-11.46-6-13.55S131.09,266.36,138.16,273.43Z"/><path class="cls-11" d="M156.22,306.58c-7.07-7.07-11.11-14.49-9-16.58s9.5,2,16.57,9,8.09,11.46,6,13.55S163.29,313.65,156.22,306.58Z"/><circle class="cls-37" cx="147.19" cy="290.11" r="9.16"/><path class="cls-11" d="M108,239.31c3.86,9.22,4.79,17.62,2.07,18.76s-8-5.42-11.91-14.64-3.14-13.67-.42-14.81S104.1,230.09,108,239.31Z"/><path class="cls-11" d="M112.1,276.84c-3.86-9.22-4.79-17.62-2.07-18.76s8.05,5.42,11.91,14.64,3.13,13.67.41,14.81S116,286.06,112.1,276.84Z"/><path class="cls-11" d="M91.27,260.15c9.22-3.86,17.62-4.79,18.76-2.07s-5.42,8.05-14.64,11.91-13.67,3.14-14.81.42S82,264,91.27,260.15Z"/><path class="cls-11" d="M128.79,256c-9.22,3.86-17.62,4.78-18.76,2.07s5.42-8.05,14.64-11.91,13.67-3.13,14.81-.42S138,252.15,128.79,256Z"/><path class="cls-11" d="M121.84,243.34c-3.79,9.25-9.08,15.85-11.8,14.73s-1.86-9.52,1.93-18.78,7.45-11.89,10.18-10.77S125.63,234.09,121.84,243.34Z"/><path class="cls-11" d="M98.23,272.81c3.79-9.25,9.08-15.85,11.8-14.73s1.86,9.52-1.93,18.77-7.46,11.89-10.18,10.77S94.44,282.06,98.23,272.81Z"/><path class="cls-11" d="M95.3,246.27c9.25,3.79,15.84,9.07,14.73,11.8s-9.52,1.86-18.77-1.93S79.37,248.69,80.49,246,86,242.48,95.3,246.27Z"/><path class="cls-11" d="M124.76,269.88c-9.25-3.79-15.85-9.08-14.73-11.8s9.53-1.86,18.78,1.93,11.89,7.45,10.77,10.18S134,273.67,124.76,269.88Z"/><path class="cls-11" d="M115.37,240c0,10-2.39,18.11-5.33,18.11S104.7,250,104.7,240s2.39-13.83,5.33-13.83S115.37,230,115.37,240Z"/><path class="cls-11" d="M104.7,276.18c0-10,2.39-18.11,5.33-18.11s5.33,8.11,5.33,18.11S113,290,110,290,104.7,286.18,104.7,276.18Z"/><path class="cls-11" d="M91.93,252.74c10,0,18.1,2.39,18.1,5.33s-8.1,5.33-18.1,5.33S78.1,261,78.1,258.08,81.93,252.74,91.93,252.74Z"/><path class="cls-11" d="M128.14,263.41c-10,0-18.11-2.39-18.11-5.33s8.11-5.33,18.11-5.33S142,255.13,142,258.08,138.14,263.41,128.14,263.41Z"/><path class="cls-11" d="M126.61,249c-7.07,7.07-14.49,11.11-16.58,9s2-9.5,9-16.58,11.47-8.08,13.55-6S133.68,242,126.61,249Z"/><path class="cls-11" d="M93.46,267.1C100.53,260,108,256,110,258.08s-2,9.5-9,16.57-11.46,8.09-13.55,6S86.39,274.18,93.46,267.1Z"/><path class="cls-11" d="M101,241.5c7.07,7.07,11.11,14.49,9,16.58s-9.51-2-16.57-9-8.09-11.46-6-13.55S93.93,234.43,101,241.5Z"/><path class="cls-11" d="M119.06,274.65c-7.07-7.07-11.11-14.49-9-16.57s9.51,2,16.58,9,8.09,11.47,6,13.55S126.13,281.72,119.06,274.65Z"/><circle class="cls-37" cx="110.03" cy="258.18" r="9.16"/><path class="cls-11" d="M102.19,284.48c2.48,5.92,3.07,11.31,1.33,12s-5.17-3.48-7.64-9.4-2-8.78-.27-9.51S99.71,278.56,102.19,284.48Z"/><path class="cls-11" d="M104.85,308.56c-2.48-5.92-3.07-11.31-1.33-12s5.17,3.48,7.65,9.4,2,8.78.27,9.51S107.32,314.49,104.85,308.56Z"/><path class="cls-11" d="M91.48,297.85c5.92-2.48,11.31-3.07,12-1.33s-3.48,5.17-9.4,7.65-8.78,2-9.51.26S85.56,300.33,91.48,297.85Z"/><path class="cls-11" d="M115.56,295.19c-5.92,2.48-11.31,3.07-12,1.33s3.48-5.17,9.4-7.65,8.78-2,9.51-.27S121.48,292.71,115.56,295.19Z"/><path class="cls-11" d="M111.09,287.07c-2.43,5.94-5.82,10.17-7.58,9.45s-1.2-6.11,1.24-12.05,4.78-7.63,6.53-6.91S113.53,281.12,111.09,287.07Z"/><path class="cls-11" d="M95.94,306c2.44-5.94,5.83-10.17,7.58-9.45s1.2,6.11-1.24,12.05-4.78,7.63-6.54,6.91S93.51,311.91,95.94,306Z"/><path class="cls-11" d="M94.06,288.94c5.94,2.44,10.17,5.83,9.46,7.58s-6.11,1.2-12.05-1.24-7.63-4.79-6.91-6.54S88.12,286.51,94.06,288.94Z"/><path class="cls-11" d="M113,304.1c-5.94-2.43-10.17-5.83-9.46-7.58s6.12-1.2,12.05,1.24,7.63,4.78,6.92,6.54S118.91,306.53,113,304.1Z"/><path class="cls-11" d="M106.94,284.9c0,6.42-1.53,11.62-3.43,11.62s-3.42-5.2-3.42-11.62,1.53-8.88,3.42-8.88S106.94,278.48,106.94,284.9Z"/><path class="cls-11" d="M100.09,308.14c0-6.42,1.53-11.62,3.42-11.62s3.43,5.2,3.43,11.62-1.53,8.88-3.43,8.88S100.09,314.56,100.09,308.14Z"/><path class="cls-11" d="M91.9,293.1c6.42,0,11.62,1.53,11.62,3.42s-5.2,3.43-11.62,3.43S83,298.41,83,296.52,85.47,293.1,91.9,293.1Z"/><path class="cls-11" d="M115.14,299.95c-6.42,0-11.63-1.54-11.63-3.43s5.21-3.42,11.63-3.42,8.87,1.53,8.87,3.42S121.56,299.95,115.14,299.95Z"/><path class="cls-11" d="M114.16,290.72c-4.54,4.54-9.31,7.14-10.64,5.8s1.26-6.1,5.8-10.64,7.36-5.19,8.7-3.86S118.7,286.19,114.16,290.72Z"/><path class="cls-11" d="M92.88,302.31c4.54-4.53,9.3-7.13,10.64-5.79s-1.26,6.1-5.79,10.64S90.36,312.35,89,311,88.34,306.85,92.88,302.31Z"/><path class="cls-11" d="M97.72,285.88c4.54,4.54,7.13,9.3,5.79,10.64s-6.1-1.26-10.64-5.8S87.69,283.36,89,282,93.18,281.34,97.72,285.88Z"/><path class="cls-11" d="M109.32,307.16c-4.54-4.54-7.13-9.31-5.8-10.64s6.1,1.26,10.64,5.79,5.19,7.36,3.85,8.7S113.85,311.7,109.32,307.16Z"/><circle class="cls-37" cx="103.52" cy="296.59" r="5.88"/></svg>