<svg id="Layer_1" data-name="Layer 1" xmlns="http://www.w3.org/2000/svg" xmlns:xlink="http://www.w3.org/1999/xlink" viewBox="0 0 708.66 481.89"><defs><style>.cls-1,.cls-13,.cls-22{fill:none;}.cls-2{fill:#fec82b;opacity:0.72;}.cls-3{fill:#e0dfde;}.cls-4{fill:#cccbca;}.cls-5{fill:#f4f3f2;}.cls-6{fill:#b3b3b3;}.cls-7{fill:#e3e5e4;}.cls-8{fill:#fc5f51;}.cls-9{fill:#f06673;}.cls-10{fill:#ffd14d;}.cls-11{fill:#6cc074;}.cls-12,.cls-15{fill:#fff;}.cls-13{stroke:#fc5f51;stroke-width:2px;}.cls-13,.cls-22{stroke-linecap:round;stroke-linejoin:round;}.cls-14{clip-path:url(#clip-path);}.cls-15{opacity:0.33;}.cls-16{fill:#0a0a0a;opacity:0.07;}.cls-17{fill:#d9eff4;}.cls-18{fill:#648ec9;}.cls-19{opacity:0.11;}.cls-20{fill:#141414;}.cls-21{fill:#f4f4f4;}.cls-22{stroke:#f4f4f4;stroke-width:10px;}.cls-23{fill:#6d6d6d;}.cls-24{fill:#606060;}</style><clipPath id="clip-path"><rect class="cls-1" x="168.98" y="64.08" width="357.58" height="264.72"/></clipPath></defs><title>CS-L2-U7</title><rect class="cls-2" x="0.21" y="191.19" width="710.14" height="202.99"/><rect class="cls-3" x="334.36" y="218.2" width="26.82" height="209.02"/><rect class="cls-4" x="237.01" y="413.81" width="221.53" height="31.85" rx="6.31" ry="6.31"/><rect class="cls-5" x="142.87" y="43.64" width="409.8" height="305.6" rx="11.69" ry="11.69"/><rect class="cls-6" x="168.98" y="64.08" width="357.58" height="264.72"/><rect class="cls-7" x="232.26" y="94.3" width="242.29" height="37.85" rx="4.6" ry="4.6"/><rect class="cls-8" x="232.26" y="116.14" width="242.29" height="176.54"/><circle class="cls-9" cx="243.18" cy="105.56" r="3.22"/><circle class="cls-10" cx="254.23" cy="105.56" r="3.22"/><circle class="cls-11" cx="265.27" cy="105.56" r="3.22"/><rect class="cls-12" x="361.18" y="190.04" width="32.03" height="1.97"/><rect class="cls-12" x="361.18" y="193.35" width="32.03" height="1.97"/><rect class="cls-12" x="361.18" y="196.67" width="32.03" height="1.97"/><rect class="cls-12" x="361.18" y="199.96" width="32.03" height="1.97"/><rect class="cls-12" x="361.18" y="203.26" width="21.93" height="1.97"/><rect class="cls-12" x="361.18" y="160.93" width="32.03" height="26.52"/><rect class="cls-12" x="397.31" y="189.53" width="32.03" height="1.97"/><rect class="cls-12" x="397.31" y="192.85" width="32.03" height="1.97"/><rect class="cls-12" x="397.31" y="196.16" width="32.03" height="1.97"/><rect class="cls-12" x="397.31" y="199.46" width="32.03" height="1.97"/><rect class="cls-12" x="397.31" y="202.75" width="21.93" height="1.97"/><rect class="cls-12" x="397.31" y="160.93" width="32.03" height="26.52"/><rect class="cls-12" x="433.43" y="189.53" width="32.03" height="1.97"/><rect class="cls-12" x="433.43" y="192.85" width="32.03" height="1.97"/><rect class="cls-12" x="433.43" y="196.16" width="32.03" height="1.97"/><rect class="cls-12" x="433.43" y="199.46" width="32.03" height="1.97"/><rect class="cls-12" x="433.43" y="202.75" width="21.93" height="1.97"/><rect class="cls-12" x="433.43" y="160.93" width="32.03" height="26.52"/><rect class="cls-12" x="361.19" y="253.02" width="32.03" height="1.97"/><rect class="cls-12" x="361.19" y="256.33" width="32.03" height="1.97"/><rect class="cls-12" x="361.19" y="259.65" width="32.03" height="1.97"/><rect class="cls-12" x="361.19" y="262.94" width="32.03" height="1.97"/><rect class="cls-12" x="361.19" y="266.24" width="21.93" height="1.97"/><rect class="cls-12" x="361.19" y="223.91" width="32.03" height="26.52"/><rect class="cls-12" x="397.31" y="252.51" width="32.03" height="1.97"/><rect class="cls-12" x="397.31" y="255.83" width="32.03" height="1.97"/><rect class="cls-12" x="397.31" y="259.14" width="32.03" height="1.97"/><rect class="cls-12" x="397.31" y="262.44" width="32.03" height="1.97"/><rect class="cls-12" x="397.31" y="265.73" width="21.93" height="1.97"/><rect class="cls-12" x="397.31" y="223.91" width="32.03" height="26.52"/><rect class="cls-12" x="433.43" y="252.51" width="32.03" height="1.97"/><rect class="cls-12" x="433.43" y="255.83" width="32.03" height="1.97"/><rect class="cls-12" x="433.43" y="259.14" width="32.03" height="1.97"/><rect class="cls-12" x="433.43" y="262.44" width="32.03" height="1.97"/><rect class="cls-12" x="433.43" y="265.73" width="21.93" height="1.97"/><rect class="cls-12" x="433.43" y="223.91" width="32.03" height="26.52"/><rect class="cls-12" x="251.01" y="190.04" width="32.03" height="1.97"/><rect class="cls-12" x="251.01" y="193.35" width="32.03" height="1.97"/><rect class="cls-12" x="251.01" y="196.67" width="32.03" height="1.97"/><rect class="cls-12" x="251.01" y="199.96" width="32.03" height="1.97"/><rect class="cls-12" x="251.01" y="203.26" width="21.93" height="1.97"/><rect class="cls-12" x="251.01" y="160.93" width="32.03" height="26.52"/><rect class="cls-12" x="287.14" y="189.53" width="32.03" height="1.97"/><rect class="cls-12" x="287.14" y="192.85" width="32.03" height="1.97"/><rect class="cls-12" x="287.14" y="196.16" width="32.03" height="1.97"/><rect class="cls-12" x="287.14" y="199.46" width="32.03" height="1.97"/><rect class="cls-12" x="287.14" y="202.75" width="21.93" height="1.97"/><rect class="cls-12" x="287.14" y="160.93" width="32.03" height="26.52"/><rect class="cls-12" x="323.26" y="189.53" width="32.03" height="1.97"/><rect class="cls-12" x="323.26" y="192.85" width="32.03" height="1.97"/><rect class="cls-12" x="323.26" y="196.16" width="32.03" height="1.97"/><rect class="cls-12" x="323.26" y="199.46" width="32.03" height="1.97"/><rect class="cls-12" x="323.26" y="202.75" width="21.93" height="1.97"/><rect class="cls-12" x="323.26" y="160.93" width="32.03" height="26.52"/><rect class="cls-12" x="251.01" y="253.02" width="32.03" height="1.97"/><rect class="cls-12" x="251.01" y="256.33" width="32.03" height="1.97"/><rect class="cls-12" x="251.01" y="259.65" width="32.03" height="1.97"/><rect class="cls-12" x="251.01" y="262.94" width="32.03" height="1.97"/><rect class="cls-12" x="251.01" y="266.24" width="21.93" height="1.97"/><rect class="cls-12" x="251.01" y="223.91" width="32.03" height="26.52"/><rect class="cls-12" x="287.14" y="252.51" width="32.03" height="1.97"/><rect class="cls-12" x="287.14" y="255.83" width="32.03" height="1.97"/><rect class="cls-12" x="287.14" y="259.14" width="32.03" height="1.97"/><rect class="cls-12" x="287.14" y="262.44" width="32.03" height="1.97"/><rect class="cls-12" x="287.14" y="265.73" width="21.93" height="1.97"/><rect class="cls-12" x="287.14" y="223.91" width="32.03" height="26.52"/><rect class="cls-12" x="323.26" y="252.51" width="32.03" height="1.97"/><rect class="cls-12" x="323.26" y="255.83" width="32.03" height="1.97"/><rect class="cls-12" x="323.26" y="259.14" width="32.03" height="1.97"/><rect class="cls-12" x="323.26" y="262.44" width="32.03" height="1.97"/><rect class="cls-12" x="323.26" y="265.73" width="21.93" height="1.97"/><rect class="cls-12" x="323.26" y="223.91" width="32.03" height="26.52"/><circle class="cls-12" cx="358.01" cy="138.37" r="15.65"/><line class="cls-13" x1="358.01" y1="137.15" x2="358.01" y2="148.04"/><line class="cls-13" x1="353.81" y1="137.15" x2="362.21" y2="137.15"/><line class="cls-13" x1="353.81" y1="148.04" x2="362.21" y2="148.04"/><circle class="cls-8" cx="358.12" cy="130.31" r="2.53"/><g class="cls-14"><rect class="cls-15" x="261.39" y="-50.86" width="47.94" height="456.76" transform="translate(209.1 -149.78) rotate(45)"/><rect class="cls-15" x="314.47" y="-15.41" width="12.68" height="456.76" transform="translate(244.55 -164.47) rotate(45)"/></g><path class="cls-16" d="M258.87,149.6a28.63,28.63,0,0,0-19.73-7.88h-3.29a28.62,28.62,0,0,0-20.38,8.53c-17.8,18-63.87,59.1-121.35,67,0,0,50.2,228.72,141.73,232.67v.06l1.34,0,1.34,0v-.06c91.53-4,146.65-232.67,146.65-232.67C327,209.25,277.49,167.29,258.87,149.6Z"/><path class="cls-17" d="M378.39,220.11c-58.18-8-107.69-49.91-126.31-67.6a28.63,28.63,0,0,0-19.73-7.88h-3.29a28.62,28.62,0,0,0-20.38,8.53c-17.8,18-63.87,59.1-121.35,67,0,0,50.2,228.72,141.73,232.67v.06l1.34,0,1.34,0v-.06C323.27,448.83,378.39,220.11,378.39,220.11Z"/><path class="cls-18" d="M359.08,230.55c-50.46-6.9-93.4-43.28-109.55-58.63a24.83,24.83,0,0,0-17.11-6.84h-2.85a24.82,24.82,0,0,0-17.68,7.4c-15.44,15.65-55.39,51.25-105.25,58.07,0,0,43.54,198.37,122.93,201.79v.06l1.16,0,1.16,0v-.06C311.28,428.91,359.08,230.55,359.08,230.55Z"/><g class="cls-19"><rect class="cls-20" x="194.71" y="278.95" width="74.84" height="60.51" rx="11.52" ry="11.52"/><path class="cls-20" d="M202.71,277.41a6.52,6.52,0,0,0,6.52-6.52c0-14.71,10.27-26.68,22.9-26.68s22.9,12,22.9,26.68a6.52,6.52,0,0,0,13,0c0-21.91-16.13-39.73-35.95-39.73s-36,17.82-36,39.73A6.52,6.52,0,0,0,202.71,277.41Z"/></g><rect class="cls-21" x="191.65" y="280.9" width="80.89" height="65.41" rx="8.83" ry="8.83"/><path class="cls-22" d="M200.29,272.18c0-19.82,14.24-35.89,31.81-35.89s31.81,16.07,31.81,35.89"/><circle class="cls-23" cx="232.1" cy="309.39" r="8.27"/><rect class="cls-23" x="229.15" y="309.39" width="5.9" height="17.46" rx="1.92" ry="1.92"/><circle class="cls-24" cx="232.1" cy="309.39" r="6.94"/><rect class="cls-24" x="229.98" y="310.91" width="4.22" height="14.55" rx="1.37" ry="1.37"/><path class="cls-12" d="M167.15,259.86c-10.14,2.92-12.51,5.28-15.42,15.42-2.92-10.14-5.28-12.51-15.42-15.42,10.14-2.92,12.51-5.28,15.42-15.42C154.65,254.58,157,256.94,167.15,259.86Z"/><path class="cls-12" d="M296.75,363.16c-6.73,1.93-8.29,3.5-10.23,10.23-1.93-6.73-3.5-8.29-10.23-10.23,6.73-1.93,8.29-3.5,10.23-10.23C288.46,359.66,290,361.22,296.75,363.16Z"/></svg>