<?xml version="1.0" encoding="utf-8"?>
<!-- Generator: Adobe Illustrator 21.0.0, SVG Export Plug-In . SVG Version: 6.00 Build 0)  -->
<svg version="1.1" id="Layer_1" xmlns="http://www.w3.org/2000/svg" xmlns:xlink="http://www.w3.org/1999/xlink" x="0px" y="0px"
	 viewBox="0 0 708.7 481.9" style="enable-background:new 0 0 708.7 481.9;" xml:space="preserve">
<style type="text/css">
	.st0{fill:#A6BEF4;}
	.st1{fill:#617FC9;}
	.st2{fill:#FFFFFF;}
	.st3{fill:#E5E5E5;}
	.st4{fill:#648EC9;}
	.st5{fill:#ECF0F5;}
	.st6{fill:#EE4256;}
	.st7{fill:#C9CCD0;}
	.st8{fill:#A9DE68;}
	.st9{fill:#FF8142;}
	.st10{fill:#4C4C4C;}
	.st11{fill:#FCBA45;}
	.st12{fill:#FEC82B;}
	.st13{fill:#353560;}
	.st14{fill:#C0E4ED;}
	.st15{opacity:7.000000e-02;fill:#0C0C0C;enable-background:new    ;}
	.st16{font-family:'Impact';}
	.st17{font-size:22.01px;}
	.st18{fill:#0C0C0C;}
	.st19{fill:#F8AB8D;}
	.st20{fill:#8B6339;}
	.st21{fill:#DC846A;}
	.st22{fill:none;}
	.st23{clip-path:url(#SVGID_2_);}
	.st24{opacity:7.000000e-02;}
	.st25{fill:#E7685D;}
	.st26{fill:#FDD8B8;}
	.st27{fill:#515180;}
	.st28{fill:#37614D;}
	.st29{fill:#4C836A;}
	.st30{fill:#4D4E4E;}
	.st31{fill:#876785;}
	.st32{fill:#A582A2;}
	.st33{fill:#54402B;}
	.st34{fill:#6C4E38;}
	.st35{fill:none;stroke:#DC846A;stroke-width:3.11;stroke-linecap:round;stroke-linejoin:round;}
	.st36{clip-path:url(#SVGID_4_);}
	.st37{fill:#80A98D;}
	.st38{fill:#B97D4F;}
	.st39{fill:#9D6944;}
	.st40{fill:#FFD46E;}
	.st41{fill:#F7AD59;}
	.st42{fill:#F54949;}
	.st43{fill:#BA8B55;}
	.st44{fill:#B57341;}
	.st45{fill:#FFCA75;}
	.st46{fill:#D9B05E;}
	.st47{opacity:7.000000e-02;fill:#D44646;enable-background:new    ;}
	.st48{fill:#9FCC5E;}
	.st49{fill:#BDC3C7;}
	.st50{fill:#CCCCCC;}
	.st51{fill:#AFB7BA;}
	.st52{fill:#868E8E;}
</style>
<title>CS-L2-U4</title>
<rect x="343.5" y="4.3" class="st0" width="365" height="464.4"/>
<rect x="355.6" y="189.4" class="st1" width="352.9" height="37.9"/>
<rect x="355.6" y="100.3" class="st1" width="352.9" height="37.9"/>
<rect x="339" y="243" class="st2" width="369.4" height="17.5"/>
<rect x="355.6" y="17.5" class="st1" width="352.9" height="37.9"/>
<rect x="355.6" y="277.5" class="st1" width="353.3" height="38.6"/>
<rect x="355.6" y="374.4" class="st1" width="352.9" height="72.9"/>
<rect x="338.5" y="67.4" class="st2" width="370.4" height="17.5"/>
<rect x="339" y="155.7" class="st2" width="369.4" height="17.5"/>
<rect x="339.4" y="332.9" class="st2" width="369.4" height="17.5"/>
<polygon class="st3" points="546.1,239.1 543.6,238.1 542.1,239.8 539.6,238.7 537.7,240.4 535.2,239.1 532.8,240.7 530.3,239.2 
	527.8,240.6 525.8,239 523.4,240.3 521.8,238.6 519.4,239.7 524.2,227.7 525.6,226.7 526.5,227.9 528,226.8 529.2,228 530.8,226.9 
	532.5,228 534.1,226.8 535.7,227.9 536.9,226.6 538.5,227.6 539.2,226.3 540.8,227.3 546.1,239.1 "/>
<path class="st2" d="M527.7,220.6l-0.5,1.3h0.2L527.7,220.6L527.7,220.6z M539.7,226.4l-0.9,0.1l3.8,12.8l-0.5,0.6l-0.8-0.4
	l-3.9-12.8l-1.3,0.1l2.1,13.2l-0.6,0.5L537,240l-2.1-13.2l-1.9,0.1l0.3,13.4l-0.6,0.4l-0.6-0.4l-0.3-13.4h-1.9l-1.5,13.3l-0.7,0.4
	l-0.6-0.5l1.5-13.2h-1.3l-3.3,13l-0.7,0.4l-0.5-0.6l3.2-12.9l-0.9-0.1l-5,12.6l-0.8,0.4l-0.6-0.2l9.2-23.3c1,0.1,2,0.2,3.1,0.2
	l-0.6,5.6h1.2l-0.1-5.6h1.3l0.2,5.7l1.2-0.1l-0.9-5.6c1-0.1,2-0.2,3-0.3l10.3,22.8l-0.6,0.3l-0.8-0.4L539.7,226.4L539.7,226.4z
	 M525.7,225.5h0.7l0.6-2.4h-0.4L525.7,225.5L525.7,225.5z M527.7,225.6h1.2l0.3-2.4h-0.8L527.7,225.6L527.7,225.6z M530.1,225.7h1.7
	l-0.1-2.4h-1.4L530.1,225.7L530.1,225.7z M533.1,225.7l1.7-0.1l-0.4-2.4l-1.4,0.1L533.1,225.7L533.1,225.7z M536.1,225.5l1.1-0.1
	l-0.7-2.4l-0.8,0.1L536.1,225.5L536.1,225.5z M538.5,225.3l0.7-0.1l-1.1-2.4h-0.4L538.5,225.3L538.5,225.3z M529.2,222l0.5-4.6
	l-1.1,4.6H529.2L529.2,222z M535.4,221.9l0.6-0.1l-1.4-4.5L535.4,221.9L535.4,221.9z M537.3,221.7h0.2l-0.6-1.3L537.3,221.7
	L537.3,221.7z"/>
<path class="st4" d="M527.1,216.7l-0.1-2.5c3.4,0.4,6.9,0.4,10.3-0.2l0.1,2.5C533.9,217.1,530.5,217.1,527.1,216.7z"/>
<path class="st2" d="M527,214.4l-0.1-2.6c0-2.7,2.1-4.9,4.8-5h0.4c2.7,0,4.9,2.1,5,4.8l0.1,2.6C533.8,214.9,530.4,214.9,527,214.4
	L527,214.4z"/>
<path class="st5" d="M376.4,196c-1.7,0-3.1,1.1-3.6,2.7c-0.8,3.4,1.7,6.6,1.2,10.3c-0.6,5-4.3,8.4-4.7,13c-0.6,6,1.4,11.3,3.8,16.9
	h6.6c2.5-5.6,4.4-10.9,3.8-16.9c-0.4-4.6-4-8-4.7-13c-0.5-3.8,2-6.9,1.2-10.3C379.5,197.1,378.1,196,376.4,196L376.4,196z"/>
<path class="st6" d="M374,207.9c0,0.4,0,0.8,0,1.1c0,0.3-0.1,0.6-0.2,0.9c1.7-0.2,3.4-0.2,5.2,0c-0.1-0.3-0.1-0.6-0.2-0.9
	c0-0.4-0.1-0.8-0.1-1.1C377.2,207.6,375.6,207.6,374,207.9L374,207.9z"/>
<path class="st6" d="M373.3,204c0.2,0.6,0.3,1.2,0.5,1.9c1.7-0.3,3.5-0.3,5.2,0c0.1-0.6,0.3-1.3,0.5-1.9
	C377.5,203.4,375.3,203.4,373.3,204L373.3,204z"/>
<path class="st5" d="M394,196c1.7,0,3.1,1.1,3.6,2.7c0.8,3.4-1.7,6.6-1.2,10.3c0.6,5,4.3,8.4,4.7,13c0.6,6-1.4,11.3-3.8,16.9h-6.6
	c-2.5-5.6-4.4-10.9-3.8-16.9c0.4-4.6,4-8,4.7-13c0.5-3.8-2-6.9-1.2-10.3C390.9,197.1,392.3,196,394,196z"/>
<path class="st6" d="M396.4,207.9c0,0.4,0,0.8,0.1,1.1c0,0.3,0.1,0.6,0.2,0.9c-1.7-0.2-3.4-0.2-5.2,0c0.1-0.3,0.1-0.6,0.2-0.9
	c0-0.4,0.1-0.8,0.1-1.1C393.2,207.5,394.8,207.5,396.4,207.9z"/>
<path class="st6" d="M397.1,204c-0.2,0.6-0.3,1.2-0.5,1.9c-1.7-0.3-3.5-0.3-5.2,0c-0.1-0.6-0.3-1.3-0.5-1.9
	C393,203.4,395.1,203.4,397.1,204z"/>
<path class="st2" d="M385.2,189c-1.9,0-3.6,1.3-4.2,3.1c-0.9,3.9,2,7.6,1.4,12c-0.8,5.8-4.9,9.8-5.5,15.1c-0.7,7,1.6,13.1,4.4,19.7
	h7.7c2.9-6.6,5.1-12.7,4.4-19.7c-0.5-5.3-4.7-9.3-5.5-15.1c-0.6-4.4,2.4-8.1,1.4-12C388.9,190.2,387.2,189,385.2,189L385.2,189z"/>
<path class="st6" d="M382.5,202.8c0,0.4,0,0.9-0.1,1.3c0,0.4-0.1,0.7-0.2,1.1c2-0.3,4-0.3,6,0c-0.1-0.4-0.1-0.7-0.2-1.1
	c-0.1-0.4-0.1-0.9-0.1-1.3C386.1,202.4,384.3,202.4,382.5,202.8L382.5,202.8z"/>
<path class="st6" d="M381.6,198.3c0.2,0.7,0.4,1.4,0.5,2.2c2-0.4,4-0.4,6,0c0.1-0.7,0.4-1.5,0.5-2.2
	C386.4,197.6,383.9,197.6,381.6,198.3L381.6,198.3z"/>
<path class="st6" d="M380.8,302.1c-1,0.1-3.8,8.2-4,10.7c-0.2,1.7,0,4.8,0.5,5.8c9.2,2.6,18.7,4.6,28.2,5.9c6.4-0.9,10.2-5.5,14-8.5
	c-7.1-4-19.7-10.2-22.2-10.8c-3.1-0.8-5.3,2.5-8.5,3.2c-1.5,0.5-3.2,0.3-4.6-0.5C381.4,305.8,382.3,301.9,380.8,302.1L380.8,302.1z"
	/>
<path class="st2" d="M415.2,313.6l-3-1.5c-2.5,1.9-5.1,3.6-7.8,5.1c-2.1,1.2,1.6,2.3,3,1.5C410.1,317.3,412.8,315.6,415.2,313.6
	L415.2,313.6z M409.3,310.6l-3.1-1.5c-2.7,2.1-5.6,3.9-8.6,5.4c-2.1,1.1,1.5,2.3,2.9,1.6C403.7,314.6,406.6,312.8,409.3,310.6
	L409.3,310.6z M403.4,307.7c-1.2-0.5-2.3-1-3.2-1.5c-2.6,1.9-5.3,3.6-8.2,5c-2.1,1.1,1.5,2.3,2.9,1.6
	C398,311.5,400.8,309.7,403.4,307.7L403.4,307.7z"/>
<path class="st3" d="M378.1,320.5c0.1,0.6,0.1,1.1,0.2,1.7s-0.1,1.4,1.2,1.8c1.6,0.4,1.8,0,2.2-0.9l0.7-1.3L378.1,320.5L378.1,320.5
	z"/>
<path class="st3" d="M384,321.8c0.1,0.7,0.2,1.4,0.3,2c0.1,0.9,0.2,1.4,1.9,1.6c1.9,0.2,2-0.4,2.5-1.4c0.3-0.6,0.5-1.2,0.8-1.8
	L384,321.8L384,321.8z"/>
<path class="st3" d="M401.7,324.1c0.1,0.5,0.1,1.1,0.2,1.6s0.4,0.9,1.4,1.2c0.8,0.4,1.8,0.2,2.5-0.3c0.6-0.4,1.3-1,1.9-1.4
	L401.7,324.1L401.7,324.1z"/>
<path class="st3" d="M410,325.1c0.2,0.7,0.3,1.4,0.6,2.1s0.4,1.1,1.8,1.1c1.3,0,1.7,0,2.4-0.7s1.4-1.5,2.2-2.2L410,325.1L410,325.1z
	"/>
<path class="st3" d="M418.2,325.3l0.6,1.6c0.5,1.3,1.1,1.3,1.9,1.2c0.9,0,1.7-0.5,2-1.3l1.6-2.4L418.2,325.3L418.2,325.3z"/>
<path class="st3" d="M424.7,324c0.3,0.6,0.6,1.2,0.9,1.7c0.2,0.3,1,0.3,1.6,0s1-0.5,1.1-1.2c0.2-0.9,0.4-1.8,0.5-2.7L424.7,324z"/>
<path class="st2" d="M415.3,325.8c6.8,0.1,12.5-2,14.5-3.6c1.1-0.9,0.6-4.5-0.6-5.6s-7.3,0-11.9-1.9c-2.9,1.4-8.1,6-11.4,9.3
	c-4.3,0.1-13.1-1.9-17.3-3.1c-3.7-1.2-7.5-1.9-11.4-2.3c0.2,0.9,0.5,1.7,1.1,2.5c1.8,1.6,9.8,1.7,14.2,1.7
	C400.1,324.2,407.2,325.8,415.3,325.8L415.3,325.8z"/>
<path class="st4" d="M481.2,303.4c-1,0.1-3.8,8.2-4,10.7c-0.2,1.7,0,4.8,0.5,5.8c9.2,2.6,18.7,4.6,28.2,5.9c6.4-0.9,10.2-5.5,14-8.5
	c-7.1-4-19.7-10.2-22.2-10.8c-3.1-0.8-5.3,2.5-8.5,3.2c-1.5,0.5-3.2,0.3-4.6-0.5C481.9,307.1,482.7,303.2,481.2,303.4L481.2,303.4z"
	/>
<path class="st2" d="M515.6,314.9l-3-1.5c-2.5,1.9-5.1,3.6-7.8,5.1c-2.1,1.2,1.6,2.3,3,1.5C510.6,318.5,513.2,316.8,515.6,314.9
	L515.6,314.9z M509.8,311.9l-3.1-1.5c-2.7,2.1-5.6,3.9-8.6,5.4c-2.1,1.1,1.5,2.3,2.9,1.6C504.2,315.9,507.1,314.1,509.8,311.9
	L509.8,311.9z M503.8,309c-1.2-0.5-2.3-1-3.2-1.5c-2.6,1.9-5.3,3.6-8.2,5c-2.1,1.1,1.5,2.3,2.9,1.6C498.4,312.8,501.2,311,503.8,309
	L503.8,309z"/>
<path class="st3" d="M478.6,321.8c0.1,0.6,0.1,1.1,0.2,1.7s-0.1,1.4,1.2,1.8c1.6,0.4,1.8,0,2.2-0.9l0.7-1.3L478.6,321.8L478.6,321.8
	z"/>
<path class="st3" d="M484.4,323.1c0.1,0.7,0.2,1.4,0.3,2c0.1,0.9,0.2,1.4,1.9,1.6c1.9,0.2,2-0.4,2.5-1.4c0.3-0.6,0.5-1.2,0.8-1.8
	L484.4,323.1L484.4,323.1z"/>
<path class="st3" d="M502.2,325.4c0.1,0.5,0.1,1.1,0.2,1.6s0.4,0.9,1.4,1.2c0.8,0.4,1.8,0.2,2.5-0.3c0.6-0.4,1.3-1,1.9-1.4
	L502.2,325.4L502.2,325.4z"/>
<path class="st3" d="M510.5,326.4c0.2,0.7,0.3,1.4,0.6,2.1s0.4,1.1,1.8,1.1c1.3,0,1.7,0,2.4-0.7s1.4-1.5,2.2-2.2L510.5,326.4
	L510.5,326.4z"/>
<path class="st3" d="M518.7,326.5l0.6,1.6c0.5,1.3,1.1,1.3,1.9,1.2c0.9,0,1.7-0.5,2-1.3l1.6-2.4L518.7,326.5L518.7,326.5z"/>
<path class="st3" d="M525.1,325.3c0.3,0.6,0.6,1.2,0.9,1.7c0.2,0.3,1,0.3,1.6,0s1-0.5,1.1-1.2c0.2-0.9,0.4-1.8,0.5-2.7L525.1,325.3
	L525.1,325.3z"/>
<path class="st2" d="M515.7,327.1c6.8,0.1,12.5-2,14.5-3.6c1.1-0.9,0.6-4.5-0.6-5.6s-7.1,0.1-11.7-1.8c-2.8,1.4-8.3,5.9-11.6,9.2
	c-4.3,0.1-13.1-1.9-17.3-3.1c-3.7-1.2-7.5-1.9-11.4-2.3c0.2,0.9,0.5,1.7,1.1,2.5c1.8,1.6,9.8,1.7,14.2,1.7
	C500.6,325.5,507.7,327,515.7,327.1L515.7,327.1z"/>
<path class="st6" d="M573.3,302.3c-1,0.1-3.8,8.2-4,10.7c-0.2,1.7,0,4.8,0.5,5.8c9.2,2.6,18.7,4.6,28.2,5.9c6.4-0.9,10.2-5.5,14-8.5
	c-7.1-4-19.7-10.2-22.2-10.8c-3.1-0.8-5.3,2.5-8.5,3.2c-1.5,0.5-3.2,0.3-4.6-0.5C574,306,574.8,302.1,573.3,302.3z"/>
<path class="st2" d="M607.8,313.8l-3-1.5c-2.5,1.9-5.1,3.6-7.8,5.1c-2.1,1.2,1.6,2.3,3,1.5C602.7,317.5,605.4,315.8,607.8,313.8
	L607.8,313.8z M601.9,310.8l-3.1-1.5c-2.7,2.1-5.6,3.9-8.6,5.4c-2.1,1.1,1.5,2.3,2.9,1.6C596.3,314.8,599.2,313,601.9,310.8
	L601.9,310.8z M596,307.9c-1.2-0.5-2.3-1-3.2-1.5c-2.6,1.9-5.3,3.6-8.2,5c-2.1,1.1,1.5,2.3,2.9,1.6C590.5,311.7,593.4,310,596,307.9
	L596,307.9z"/>
<path class="st3" d="M570.7,320.8c0.1,0.6,0.1,1.1,0.2,1.7s-0.1,1.4,1.2,1.8c1.6,0.4,1.8,0,2.2-0.9l0.7-1.3L570.7,320.8L570.7,320.8
	z"/>
<path class="st3" d="M576.5,322c0.1,0.7,0.2,1.4,0.3,2c0.1,0.9,0.2,1.4,1.9,1.6c1.9,0.2,2-0.4,2.5-1.4c0.3-0.6,0.5-1.2,0.8-1.8
	L576.5,322L576.5,322z"/>
<path class="st3" d="M594.3,324.3c0.1,0.5,0.1,1.1,0.2,1.6s0.4,0.9,1.4,1.2c0.8,0.4,1.8,0.2,2.5-0.3c0.6-0.4,1.3-1,1.9-1.4
	L594.3,324.3L594.3,324.3z"/>
<path class="st3" d="M602.6,325.4c0.2,0.7,0.3,1.4,0.6,2.1s0.4,1.1,1.8,1.1c1.3,0,1.7,0,2.4-0.7s1.4-1.5,2.2-2.2L602.6,325.4
	L602.6,325.4z"/>
<path class="st3" d="M610.8,325.5l0.6,1.6c0.5,1.3,1.1,1.3,1.9,1.2c0.9,0,1.7-0.5,2-1.3l1.6-2.4L610.8,325.5L610.8,325.5z"/>
<path class="st3" d="M617.2,324.2c0.3,0.6,0.6,1.2,0.9,1.7c0.2,0.3,1,0.3,1.6,0s1-0.5,1.1-1.2c0.2-0.9,0.4-1.8,0.5-2.7L617.2,324.2
	L617.2,324.2z"/>
<path class="st2" d="M607.8,326c6.8,0.1,12.5-2,14.5-3.6c1.1-0.9,0.6-4.5-0.6-5.6s-7.3,0-11.8-1.9c-2.8,1.4-8.1,6-11.4,9.3
	c-4.3,0.1-13.1-1.9-17.3-3.1c-3.7-1.2-7.5-1.9-11.3-2.3c0.2,0.9,0.5,1.7,1.1,2.5c1.8,1.6,9.8,1.7,14.2,1.7
	C592.7,324.4,599.8,325.9,607.8,326L607.8,326z"/>
<path class="st4" d="M673.8,303.6c-1,0.1-3.8,8.2-4,10.7c-0.2,1.7,0,4.8,0.5,5.8c9.2,2.6,18.7,4.6,28.2,5.9c6.4-0.9,10.2-5.5,14-8.5
	c-7.1-4-19.7-10.2-22.2-10.8c-3.1-0.8-5.3,2.5-8.5,3.2c-1.5,0.5-3.2,0.3-4.6-0.5C674.5,307.3,675.3,303.4,673.8,303.6z"/>
<path class="st2" d="M708.2,315.1l-3-1.5c-2.5,1.9-5.1,3.6-7.8,5.1c-2.1,1.2,1.6,2.3,3,1.5C703.2,318.8,705.8,317,708.2,315.1
	L708.2,315.1z M702.3,312.1l-3.1-1.5c-2.7,2.1-5.6,3.9-8.6,5.4c-2.1,1.1,1.5,2.3,2.9,1.6C696.7,316.1,699.7,314.3,702.3,312.1
	L702.3,312.1z M696.4,309.2c-1.2-0.5-2.3-1-3.2-1.5c-2.6,1.9-5.3,3.6-8.2,5c-2.1,1.1,1.5,2.3,2.9,1.6
	C691,313,693.8,311.2,696.4,309.2L696.4,309.2z"/>
<path class="st3" d="M671.1,322c0.1,0.6,0.1,1.1,0.2,1.7s-0.1,1.4,1.2,1.8c1.6,0.4,1.8,0,2.2-0.9l0.7-1.3L671.1,322z"/>
<path class="st3" d="M677,323.3c0.1,0.7,0.2,1.4,0.3,2c0.1,0.9,0.2,1.4,1.9,1.6c1.9,0.2,2-0.4,2.5-1.4c0.3-0.6,0.5-1.2,0.8-1.8
	L677,323.3L677,323.3z"/>
<path class="st3" d="M694.8,325.6c0.1,0.5,0.1,1.1,0.2,1.6s0.4,0.9,1.4,1.2c0.8,0.4,1.8,0.2,2.5-0.3c0.6-0.4,1.3-1,1.9-1.4
	L694.8,325.6L694.8,325.6z"/>
<path class="st3" d="M703,326.6c0.2,0.7,0.3,1.4,0.6,2.1s0.4,1.1,1.8,1.1c1.3,0,1.7,0,2.4-0.7s1.4-1.5,2.2-2.2L703,326.6L703,326.6z
	"/>
<path class="st2" d="M708.3,327.3c6.8,0.1,12.5-2,14.5-3.6c1.1-0.9,0.6-4.5-0.6-5.6s-7.1,0.1-11.7-1.8c-2.8,1.4-8.3,5.9-11.6,9.2
	c-4.3,0.1-13.1-1.9-17.3-3.1c-3.7-1.2-7.5-2-11.3-2.3c0.2,0.9,0.5,1.7,1.1,2.5c1.8,1.6,9.8,1.7,14.2,1.7
	C693.2,325.7,700.3,327.2,708.3,327.3L708.3,327.3z"/>
<ellipse transform="matrix(0.95 -0.3123 0.3123 0.95 -19.7893 135.0707)" class="st2" cx="411.7" cy="129.3" rx="21.8" ry="21.8"/>
<path class="st7" d="M424.3,111.4c0.4,0.3,0.8,0.6,1.2,0.9c-1.6,2.6-4,6.1-6.7,10c-3.2,4.7-6.7,10-9.8,14.9c0.5,0.5,1,1.1,1.6,1.6
	c0.6,0.5,1.2,1.1,1.9,1.5c7.3-4.8,16.2-14.4,16.9-23.9c0.5,0.6,0.9,1.3,1.3,2c-1.4,9.1-9.6,18-16.8,22.9c2.2,1.5,4.8,2.2,7.5,2
	c3.2-2.7,6-5.9,8.2-9.6c1.5-2.3,2.5-4.9,2.9-7.6c0.2-1.1,0.2-2.3,0.1-3.4c0.5,1.7,0.9,3.5,1,5.3c-0.3,1.1-0.7,2.2-1.1,3.3
	c0.4,0.6,0.7,1.2,0.9,1.9c-0.3,1.7-0.8,3.4-1.5,4.9c0.2-0.8,0.3-1.7,0.3-2.5c0-0.9-0.2-1.9-0.5-2.7c-0.3,0.5-0.6,1.1-0.9,1.6
	c-0.4,0.6-0.8,1.2-1.1,1.8c0.1,0.1,0.1,0.3,0.2,0.4l0,0c0.5,1.8,0.4,3.7-0.3,5.5c-1.4,2-3.2,3.8-5.3,5.2c1.5-1.3,2.6-2.8,3.4-4.6
	c0.8-1.6,1.1-3.3,0.9-5.1c-1.8,2.4-3.8,4.6-6.1,6.5c0.1,1.9-0.5,3.7-1.8,5.1c-0.6,0.3-1.2,0.5-1.8,0.7h-1h-0.1l0,0h-0.1h-0.1
	l-0.2,0.1l0,0c-0.7,0.2-1.5,0.3-2.2,0.5l0.7-0.2c-4.2-0.4-8.2-1.9-11.5-4.4c-4.7-3.4-8.2-8.2-9.9-13.8c-0.4-1.4-0.7-2.9-0.9-4.4
	c-0.8,0.3-1.5,0.8-2.1,1.4c0.1,1.6,0.3,3.2,0.6,4.8c1.2,5.1,4.2,9.7,8.3,13c1.4,1.1,2.9,2,4.4,2.8c-5.1-1.7-9.3-5.1-12-9.7
	c-0.9-1.8-1.7-3.8-2.1-5.8c-0.2-0.9-0.4-1.8-0.5-2.8c0,0.2-0.1,0.4-0.1,0.6c-0.2-1.1-0.2-2.2-0.2-3.4c0.9-1.1,2.1-2,3.4-2.5
	c2.9-1.1,6.1-1.2,9.1-0.4c1.9-2.2,3.8-4.4,5.5-6.7c-3-1.1-6.3-1.3-9.5-0.8c-2.9,0.4-5.6,1.8-7.5,4c0.3-1.1,0.8-2.1,1.3-3.1
	c1.8-1.2,3.9-2,6-2.4c3.6-0.6,7.3-0.3,10.7,1l0.8-1.2c0.7-1,1.3-1.9,2-2.9c-2.7-1.5-5.8-2.2-8.9-1.9c-2.9,0.2-5.8,1.3-8,3.2
	c1.2-1.5,2.7-2.9,4.3-4c4.5-1.3,9.2-0.8,13.3,1.4c0.7-1.2,1.4-2.4,2-3.6c-2.5-1.2-5.4-1.6-8.1-1c-0.9,0.2-1.8,0.4-2.6,0.6
	c0.4-0.1,0.8-0.3,1.2-0.4c3.1-1,6.3-1.3,9.5-0.9c0.3,0.1,0.5,0.2,0.8,0.4l0.1-0.3c0.5,0.1,1,0.2,1.5,0.3c-1.7,3.4-3.7,6.7-5.9,9.8
	c-2.3,3.2-4.8,6.3-7.4,9.3c0.8,3.3,2.3,6.3,4.5,8.8c3.1-4.8,6.5-9.9,9.6-14.5c2.6-3.9,5-7.4,6.7-10.1L424.3,111.4z M420.9,144.7
	c-3.7,0.3-7.9-1.7-11.4-4.8c-3.7-3.2-6.4-7.5-7.6-12.3c-0.8-0.2-1.6-0.4-2.4-0.4c-1.6-0.1-3.1,0-4.6,0.4c0.1,1.5,0.4,3,0.9,4.5
	c1.6,5.2,4.9,9.8,9.3,13c4,2.9,8.5,4.4,11.8,4.1c0.6,0,1.3-0.1,1.9-0.3c0.1-0.1,0.3-0.3,0.4-0.4
	C420.3,147.4,420.9,146.1,420.9,144.7L420.9,144.7z"/>
<ellipse transform="matrix(0.6686 -0.7436 0.7436 0.6686 -16.2845 411.6672)" class="st8" cx="453.7" cy="224.1" rx="13.9" ry="13.9"/>
<path class="st2" d="M454.2,210.1c0.7,0,1.5,0.1,2.2,0.3c-1.5,3.8-4,5.9-6.5,7.8c-1.8,1.2-3.3,2.8-4.5,4.5c-2,3.5-0.7,7.9,2.7,9.9
	c2.5,1.4,5.5,1.2,7.8-0.4c1.6-1.4,3-3,4-4.9c1.7-2.7,3.4-5.4,7.1-7.3c0.2,0.7,0.4,1.4,0.5,2.1c-2.8,1.6-4.3,4-5.8,6.3
	c-1.2,2.1-2.7,4-4.6,5.5c-4.4,2.9-10.2,1.7-13.1-2.7c-1.9-2.9-2.1-6.5-0.5-9.5c1.3-2,3-3.8,5-5.1
	C450.7,214.8,452.9,213.1,454.2,210.1L454.2,210.1z"/>
<ellipse transform="matrix(0.469 -0.8832 0.8832 0.469 151.2381 505.7813)" class="st9" cx="496.3" cy="127.1" rx="24.2" ry="24.2"/>
<path class="st10" d="M475.7,140.1c-0.3-0.5-0.6-1-0.9-1.5c7.4-1.2,18.6-5.9,27.9-11.1c3.1-1.7,6.1-3.7,8.9-5.8
	c-0.5-0.9-1-1.8-1.6-2.6c-0.4-0.6-0.8-1.2-1.3-1.8c-3.3,1.7-9,1.3-15,1c-5.7-0.3-11.7-0.7-15.7,0.7c-2.1,0.7-5,2.9-5.9,5.1
	c0.2-1.3,0.4-2.5,0.8-3.7c1.3-1.3,2.9-2.2,4.6-2.9c4.3-1.5,10.4-1.1,16.3-0.8c5.6,0.3,11,0.6,13.9-0.7c-5.1-6-12.8-10.9-20.5-11.4
	c1.1-0.5,2.3-0.8,3.5-1.1c7,1.5,13.7,6.1,18.4,11.7c0.3-0.3,0.6-0.6,0.8-1c1.6-2.8-0.1-6.6-2.5-8.4h0.1c1.4,0.7,2.7,1.6,3.9,2.6
	c1,2.1,1,4.6-0.1,6.6c-0.3,0.6-0.7,1.1-1.2,1.5c0.5,0.6,0.9,1.2,1.3,1.8c0.5,0.8,1,1.6,1.5,2.5c1.8-1.4,3.4-3,4.7-4.9
	c0.3,0.5,0.5,1.1,0.8,1.6c-1.4,1.8-3,3.3-4.7,4.7c0.7,1.4,1.2,2.8,1.7,4.3c1-0.5,2-0.8,3.1-0.8c0.5,0,1.1,0.1,1.6,0.3
	c0.1,0.1,0.3,0.1,0.4,0.2c0,1,0,2,0,3c0-0.5-0.1-0.9-0.4-1.3c-0.2-0.2-0.4-0.4-0.6-0.5c-0.3-0.1-0.6-0.2-0.9-0.2
	c-0.9,0-1.9,0.3-2.7,0.8c0.6,2.4,0.8,4.9,0.7,7.4c-0.2,2.4-0.6,4.7-1.4,7c-0.9,1.2-2,2.2-3.1,3.2c1.7-3.2,2.6-6.7,2.9-10.3
	c0.1-2.1,0-4.2-0.5-6.2c-1.7,1.6-3.4,4.5-5.2,7.5c-2.4,4-5.1,8.2-8.1,11c-1.9,1.7-4.2,3-6.7,3.7c-1.7-0.1-3.3-0.4-4.9-0.9
	c3.2,0.3,8.1-1.8,10.5-4.1c2.8-2.6,5.4-6.7,7.8-10.6c2.1-3.5,4.1-6.8,6.1-8.5c-0.4-1.4-0.9-2.8-1.6-4.2c-2.8,2.1-5.8,4-8.8,5.7
	C494.4,134.1,483.3,138.7,475.7,140.1L475.7,140.1z"/>
<ellipse transform="matrix(0.95 -0.3123 0.3123 0.95 -9.9556 189.9947)" class="st2" cx="588.1" cy="126.1" rx="21.8" ry="21.8"/>
<path class="st7" d="M600.6,108.2c0.4,0.3,0.8,0.6,1.2,0.9c-1.7,2.6-4,6.1-6.7,10c-3.2,4.7-6.7,10-9.8,14.9c0.5,0.5,1,1.1,1.6,1.6
	c0.6,0.5,1.2,1.1,1.9,1.5c7.3-4.8,16.2-14.4,16.9-23.9c0.5,0.6,0.9,1.3,1.3,2c-1.4,9.1-9.6,18-16.8,22.9c2.2,1.5,4.8,2.2,7.5,2
	c3.2-2.7,6-5.9,8.2-9.6c1.4-2.3,2.4-4.8,2.9-7.5c0.2-1.1,0.2-2.3,0.1-3.4c0.5,1.7,0.9,3.5,1,5.3c-0.3,1.1-0.7,2.2-1.2,3.3
	c0.4,0.6,0.7,1.2,0.9,1.9c-0.3,1.7-0.8,3.4-1.5,4.9c0.2-0.8,0.3-1.7,0.3-2.5c0-0.9-0.2-1.9-0.5-2.7c-0.3,0.5-0.6,1.1-0.9,1.6
	c-0.4,0.6-0.8,1.2-1.2,1.8c0.1,0.1,0.1,0.3,0.2,0.4l0,0c0.5,1.8,0.4,3.7-0.3,5.5c-1.4,2-3.2,3.8-5.3,5.2c1.5-1.3,2.6-2.8,3.4-4.6
	c0.8-1.6,1.1-3.3,0.9-5.1c-1.8,2.4-3.8,4.6-6.1,6.5c0.1,1.9-0.5,3.7-1.7,5.1c-0.6,0.3-1.2,0.5-1.8,0.7h-1h-0.1l0,0H594h-0.1
	l-0.2,0.1l0,0c-0.7,0.2-1.5,0.3-2.2,0.5l0.7-0.2c-4.2-0.2-8.2-1.6-11.5-4c-4.7-3.4-8.2-8.2-9.8-13.8c-0.4-1.4-0.7-2.9-0.9-4.4
	c-0.8,0.3-1.5,0.8-2.1,1.4c0.1,1.6,0.3,3.2,0.7,4.8c1.2,5.1,4.2,9.7,8.3,13c1.4,1.1,2.9,2,4.4,2.8c-5.1-1.7-9.3-5.1-12-9.7
	c-0.9-1.8-1.7-3.8-2.2-5.8c-0.2-0.9-0.4-1.8-0.5-2.8c0,0.2-0.1,0.4-0.1,0.6c-0.2-1.1-0.2-2.2-0.2-3.4c0.9-1.1,2.1-2,3.4-2.5
	c2.9-1.1,6.1-1.2,9.1-0.4c1.9-2.2,3.8-4.4,5.5-6.7c-3-1.1-6.3-1.3-9.5-0.8c-2.9,0.4-5.6,1.8-7.5,4c0.3-1.1,0.8-2.1,1.3-3.1
	c1.8-1.2,3.9-2,6-2.4c3.6-0.6,7.3-0.3,10.7,1l0.8-1.2c0.7-1,1.3-1.9,2-2.9c-2.7-1.5-5.8-2.2-8.9-1.9c-2.9,0.2-5.8,1.3-8,3.2
	c1.2-1.5,2.7-2.9,4.3-4c4.5-1.3,9.2-0.8,13.3,1.4c0.7-1.2,1.4-2.4,2-3.6c-2.5-1.2-5.4-1.6-8.1-1c-0.9,0.2-1.8,0.4-2.7,0.6
	c0.4-0.1,0.8-0.3,1.2-0.4c3.1-1,6.3-1.3,9.5-0.9c0.3,0.1,0.5,0.2,0.8,0.4l0.1-0.3c0.5,0.1,1,0.2,1.5,0.3c-1.7,3.4-3.7,6.7-5.9,9.8
	c-2.3,3.2-4.8,6.3-7.4,9.3c0.8,3.3,2.3,6.3,4.5,8.8c3.1-4.8,6.5-9.9,9.6-14.5c2.6-3.9,5-7.4,6.7-10.1L600.6,108.2z M597.3,141.4
	c-3.7,0.3-7.9-1.7-11.4-4.8c-3.7-3.2-6.4-7.5-7.5-12.3c-0.8-0.2-1.6-0.4-2.4-0.4c-1.6-0.1-3.1,0-4.6,0.4c0.1,1.5,0.4,3,0.8,4.5
	c1.6,5.2,4.9,9.8,9.3,13c4,2.9,8.5,4.4,11.8,4.1c0.6,0,1.3-0.1,1.9-0.3c0.2-0.1,0.3-0.3,0.4-0.4
	C596.7,144.2,597.3,142.8,597.3,141.4L597.3,141.4z"/>
<ellipse transform="matrix(0.469 -0.8832 0.8832 0.469 247.7375 659.829)" class="st9" cx="672.6" cy="123.9" rx="24.2" ry="24.2"/>
<path class="st10" d="M652.1,136.8c-0.3-0.5-0.6-1-0.9-1.5c7.3-1.2,18.6-5.9,27.9-11.1c3.1-1.7,6.1-3.7,8.9-5.8
	c-0.5-0.9-1-1.8-1.6-2.6c-0.4-0.6-0.8-1.2-1.3-1.8c-3.3,1.7-9,1.3-15,1c-5.7-0.3-11.7-0.7-15.7,0.7c-2.1,0.7-5,2.9-5.9,5.1
	c0.2-1.3,0.4-2.5,0.8-3.7c1.3-1.3,2.9-2.2,4.7-2.9c4.3-1.5,10.4-1.1,16.3-0.8c5.6,0.3,11,0.6,13.9-0.7c-5.1-6-12.8-10.9-20.5-11.4
	c1.1-0.5,2.3-0.8,3.5-1.1c7,1.5,13.7,6.1,18.4,11.7c0.3-0.3,0.6-0.6,0.8-1c1.6-2.8-0.1-6.6-2.5-8.4h0.1c1.4,0.7,2.7,1.6,3.9,2.6
	c1,2.1,1,4.6-0.1,6.6c-0.3,0.6-0.7,1.1-1.2,1.5c0.5,0.6,0.9,1.2,1.3,1.8c0.5,0.8,1,1.6,1.5,2.5c1.8-1.4,3.4-3,4.7-4.9
	c0.3,0.5,0.5,1.1,0.8,1.6c-1.4,1.8-3,3.3-4.7,4.7c0.7,1.4,1.2,2.8,1.7,4.3c1-0.5,2-0.8,3.1-0.8c0.5,0,1.1,0.1,1.6,0.3
	c0.1,0.1,0.3,0.1,0.4,0.2c0,1,0,2,0,3c0-0.5-0.1-0.9-0.4-1.3c-0.2-0.2-0.4-0.4-0.6-0.5c-0.3-0.1-0.6-0.2-0.9-0.2
	c-0.9,0-1.9,0.3-2.7,0.8c0.6,2.4,0.8,4.9,0.7,7.4c-0.2,2.4-0.6,4.7-1.4,7c-0.9,1.1-2,2.2-3.1,3.2c1.7-3.2,2.6-6.7,2.9-10.3
	c0.1-2.1,0-4.2-0.5-6.2c-1.7,1.6-3.4,4.5-5.2,7.5c-2.4,4-5.1,8.2-8.1,11c-1.9,1.7-4.2,3-6.7,3.7c-1.7-0.1-3.3-0.4-4.9-0.9
	c3.2,0.3,8.1-1.8,10.5-4.1c2.8-2.6,5.4-6.7,7.8-10.6c2.1-3.5,4.1-6.8,6.1-8.5c-0.4-1.4-0.9-2.8-1.6-4.2c-2.8,2.1-5.8,4-8.8,5.7
	C670.8,130.8,659.7,135.4,652.1,136.8L652.1,136.8z"/>
<path class="st3" d="M503.2,367.4v11.2l8.1,0.1V368h1.6v10.7l8.1,0.1v-10.2h1.6v10.3h1.7l6.4,0.1v-10h1.6v10l8.1,0.1v-9.8h1.6v9.8
	l8.1,0.1v-9.7h1.6v9.7l8.1,0.1v-9.7h1.6v9.7h8.1v-9.7h1.6v9.6l8.1-0.1v-9.6h1.6v9.7l8.1-0.1v-9.8h1.6v9.8l8.1-0.1v-10h1.6v9.9h1.8
	l6.3-0.1v-10.3h1.6v10.2l8.1-0.1V368h1.6v10.6l8.1-0.1v-11.2h1.5v92.4h-0.8l-0.3,0.7c-10.2-3.6-20.6-6.2-31.3-7.7
	c-10.4-1.5-20.9-2.1-31.3-2c-10.5,0.1-21,0.9-31.3,2.4c-10.6,1.5-21.1,4-31.3,7.3l-0.3-0.7h-0.8v-92.4H503.2z M512.9,455.9
	c2.7-0.7,5.4-1.4,8.1-1.9v-7.8c-2.7,0.5-5.4,1.1-8.1,1.7V455.9L512.9,455.9z M511.3,456.3v-8.1c-2.7,0.6-5.4,1.3-8.1,2.1v8.4
	C505.9,457.8,508.6,457,511.3,456.3z M522.6,453.6c2.7-0.6,5.4-1.1,8.1-1.5v-7.6c-2.7,0.4-5.4,0.8-8.1,1.3V453.6L522.6,453.6z
	 M600,451.7c2.7,0.5,5.4,1,8.1,1.5v-7.7c-2.7-0.5-5.4-1-8.1-1.3V451.7z M598.4,451.5V444l-1.8-0.2l0,0c-2.1-0.3-4.3-0.5-6.4-0.7v7.4
	c2.2,0.2,4.4,0.5,6.6,0.8L598.4,451.5L598.4,451.5z M609.6,453.6c2.7,0.6,5.4,1.3,8.1,2v-8c-2.7-0.7-5.4-1.3-8.1-1.8V453.6
	L609.6,453.6z M619.3,456.1c2.7,0.8,5.4,1.7,8.1,2.6v-8.4c-2.7-0.8-5.4-1.6-8.1-2.3V456.1L619.3,456.1z M503.2,380.1v8.5
	c2.7-0.1,5.4-0.1,8.1-0.2v-8.1L503.2,380.1z M503.2,390.1v8.5c2.7-0.2,5.4-0.4,8.1-0.5V390L503.2,390.1L503.2,390.1z M503.2,400.1
	v8.5c2.7-0.3,5.4-0.6,8.1-0.8v-8.1L503.2,400.1z M503.2,410.1v8.4c2.7-0.4,5.4-0.8,8.1-1.1v-8.1
	C508.6,409.6,505.9,409.8,503.2,410.1L503.2,410.1z M503.2,420.1v8.4c2.7-0.5,5.4-1,8.1-1.5V419
	C508.6,419.4,505.9,419.7,503.2,420.1z M503.2,430.1v8.4c2.7-0.6,5.4-1.2,8.1-1.7v-8.1C508.6,429.1,505.9,429.6,503.2,430.1
	L503.2,430.1z M503.2,440.1v8.4c2.7-0.8,5.4-1.4,8.1-2.1v-8.1C508.6,438.9,505.9,439.5,503.2,440.1z M524.2,380.3h-1.7v7.8l8.1-0.1
	v-7.6L524.2,380.3L524.2,380.3z M521,380.3l-8.1-0.1v8.1l8.1-0.1V380.3z M565.3,380.8h-4v7.2h4h4.1v-7.2H565.3z M559.7,380.8h-8.1
	v7.2h8.1V380.8L559.7,380.8z M550,380.7l-8.1-0.1v7.4h8.1L550,380.7L550,380.7z M540.3,380.6l-8.1-0.1v7.5h8.1V380.6L540.3,380.6z
	 M601.8,380.4h-1.8v7.6l8.1,0.1v-7.6l-6.3,0.1L601.8,380.4z M598.4,380.4l-8.1,0.1v7.4h8.1V380.4L598.4,380.4z M588.7,380.6
	l-8.1,0.1v7.2h8.1V380.6L588.7,380.6z M579,380.7l-8.1,0.1v7.2h2.7h5.4V380.7L579,380.7z M627.4,380l-8.1,0.1v8.1l8.1,0.2V380z
	 M617.7,380.1l-8.1,0.1v7.8l8.1,0.1V380.1L617.7,380.1z M550,389.7h-8.1v7.4l8.1-0.1V389.7L550,389.7z M540.3,389.7h-8.1v7.5h1.6
	l6.5-0.1V389.7L540.3,389.7z M530.6,389.7l-8.1,0.1v7.8l8.1-0.3V389.7z M521,389.8l-8.1,0.1v8.1c2.7-0.1,5.4-0.3,8.1-0.4V389.8
	L521,389.8z M565.3,389.6h-4v7.2h4h4.1v-7.2L565.3,389.6z M559.7,389.6h-8.1v7.3l8.1-0.1V389.6L559.7,389.6z M573.7,389.6H571v7.2
	h8.1v-7.2L573.7,389.6z M627.4,390.1c-2.7-0.1-5.4-0.2-8.1-0.2v8.1c2.7,0.2,5.4,0.4,8.1,0.6V390.1L627.4,390.1z M617.7,389.9
	l-8.1-0.2v7.8c2.7,0.1,5.4,0.3,8.1,0.4V389.9L617.7,389.9z M608.1,389.7l-8.1-0.1v7.5c2.7,0.1,5.4,0.2,8.1,0.3V389.7L608.1,389.7z
	 M598.4,389.6h-8.1v7.4l6.5,0.1h1.6L598.4,389.6L598.4,389.6z M588.7,389.6h-8.1v7.2l8.1,0.1V389.6L588.7,389.6z M533.9,398.8h-1.7
	v7.5l1.6-0.1l6.5-0.3v-7.4L533.9,398.8L533.9,398.8z M530.7,398.9l-8.1,0.3v7.8c2.7-0.2,5.4-0.3,8.1-0.5V398.9z M521,399.2
	c-2.7,0.1-5.4,0.2-8.1,0.4v8.1c2.7-0.2,5.4-0.4,8.1-0.6V399.2L521,399.2z M565.3,398.4h-4v7.2h4h4.1v-7.2L565.3,398.4z M559.7,398.4
	l-8.1,0.1v7.3l8.1-0.1V398.4z M550,398.5l-8.1,0.1v7.4c2.7-0.1,5.4-0.2,8.1-0.2V398.5L550,398.5z M596.8,398.6l-6.4-0.1v7.4l6.5,0.3
	l1.6,0.1v-7.5L596.8,398.6z M588.8,398.5l-8.1-0.1v7.2c2.7,0,5.4,0.1,8.1,0.2V398.5L588.8,398.5z M579.1,398.4H571v7.2l8.1,0
	L579.1,398.4L579.1,398.4z M627.4,400.2c-2.7-0.2-5.4-0.4-8.1-0.6v8.1c2.7,0.3,5.4,0.6,8.1,0.9V400.2z M617.8,399.5
	c-2.7-0.2-5.4-0.3-8.1-0.4v7.8c2.7,0.2,5.4,0.4,8.1,0.7V399.5z M608.1,399c-2.7-0.1-5.4-0.2-8.1-0.3v7.5c2.7,0.1,5.4,0.3,8.1,0.5
	V399L608.1,399z M533.9,407.8l-1.7,0.1v7.6l1.6-0.1c2.2-0.1,4.3-0.3,6.5-0.4v-7.4L533.9,407.8L533.9,407.8z M530.7,408
	c-2.7,0.1-5.4,0.3-8.1,0.5v7.8c2.7-0.3,5.4-0.5,8.1-0.7V408L530.7,408z M521,408.6c-2.7,0.2-5.4,0.4-8.1,0.6v8.1
	c2.7-0.3,5.4-0.6,8.1-0.9V408.6L521,408.6z M565.3,407.1h-4v7.2h4h4.1v-7.2L565.3,407.1z M559.7,407.2l-8.1,0.1v7.3
	c2.7-0.1,5.4-0.1,8.1-0.2V407.2L559.7,407.2z M550,407.3c-2.7,0-5.4,0.1-8.1,0.2v7.4c2.7-0.1,5.4-0.2,8.1-0.3V407.3z M596.7,407.7
	l-6.4-0.3v7.4c2.2,0.1,4.3,0.2,6.5,0.4l1.6,0.1v-7.5L596.7,407.7L596.7,407.7z M588.7,407.4c-2.7-0.1-5.4-0.1-8.1-0.2v7.3
	c2.7,0.1,5.4,0.1,8.1,0.3V407.4L588.7,407.4z M579,407.2l-8.1-0.1v7.2c2.7,0,5.4,0,8.1,0.1V407.2z M627.4,410.2
	c-2.7-0.3-5.4-0.6-8.1-0.9v8.1c2.7,0.4,5.4,0.8,8.1,1.2V410.2L627.4,410.2z M617.7,409.1c-2.7-0.3-5.4-0.5-8.1-0.7v7.8
	c2.7,0.3,5.4,0.6,8.1,1V409.1L617.7,409.1z M608.1,408.3c-2.7-0.2-5.4-0.4-8.1-0.5v7.5c2.7,0.2,5.4,0.4,8.1,0.7V408.3L608.1,408.3z
	 M533.9,416.9l-1.7,0.1v7.5l1.6-0.1c2.2-0.2,4.3-0.4,6.5-0.5v-7.4L533.9,416.9L533.9,416.9z M530.7,417.2c-2.7,0.2-5.4,0.4-8.1,0.7
	v7.8c2.7-0.3,5.4-0.6,8.1-0.9V417.2z M521,418c-2.7,0.3-5.4,0.6-8.1,0.9v8.1c2.7-0.4,5.4-0.8,8.1-1.1V418z M565.3,415.9h-4v7.2
	l4-0.1h4.1v-7.2L565.3,415.9z M559.7,416c-2.7,0-5.4,0.1-8.1,0.2v7.3c2.7-0.1,5.4-0.2,8.1-0.2V416L559.7,416z M550,416.2
	c-2.7,0.1-5.4,0.2-8.1,0.3v7.4c2.7-0.2,5.4-0.3,8.1-0.4V416.2z M596.7,416.7c-2.1-0.1-4.3-0.3-6.4-0.4v7.4c2.2,0.1,4.4,0.3,6.5,0.5
	l1.6,0.1v-7.5L596.7,416.7L596.7,416.7z M588.7,416.3c-2.7-0.1-5.4-0.2-8.1-0.3v7.2c2.7,0.1,5.4,0.2,8.1,0.4V416.3z M579,416
	c-2.7-0.1-5.4-0.1-8.1-0.1v7.2c2.7,0,5.4,0.1,8.1,0.1V416L579,416z M627.4,420.2c-2.7-0.4-5.4-0.9-8.1-1.2v8c2.7,0.5,5.4,1,8.1,1.6
	V420.2L627.4,420.2z M617.7,418.8c-2.7-0.4-5.4-0.7-8.1-1v7.8c2.7,0.4,5.4,0.8,8.1,1.2V418.8z M608.1,417.6
	c-2.7-0.3-5.4-0.5-8.1-0.7v7.5c2.7,0.3,5.4,0.6,8.1,0.9V417.6z M533.9,426l-1.7,0.1v7.5l1.5-0.2c2.2-0.2,4.4-0.4,6.6-0.6v-7.4
	C538.2,425.7,536.1,425.8,533.9,426L533.9,426z M530.7,426.3c-2.7,0.3-5.4,0.5-8.1,0.9v7.8c2.7-0.4,5.4-0.8,8.1-1.1V426.3
	L530.7,426.3z M521,427.4c-2.7,0.4-5.4,0.7-8.1,1.1v8.1c2.7-0.5,5.4-1,8.1-1.4V427.4L521,427.4z M565.3,424.6h-4v7.2l4-0.1h4.1v-7.2
	L565.3,424.6L565.3,424.6z M559.7,424.7c-2.7,0.1-5.4,0.1-8.1,0.2v7.3c2.7-0.1,5.4-0.2,8.1-0.3V424.7z M550,425
	c-2.7,0.1-5.4,0.3-8.1,0.4v7.4c2.7-0.2,5.4-0.4,8.1-0.5V425z M596.7,425.7c-2.1-0.2-4.3-0.3-6.4-0.5v7.4c2.2,0.2,4.4,0.4,6.5,0.6
	l1.6,0.2v-7.5L596.7,425.7L596.7,425.7z M588.7,425.2c-2.7-0.2-5.4-0.3-8.1-0.4v7.2c2.7,0.1,5.4,0.3,8.1,0.5V425.2L588.7,425.2z
	 M579,424.8c-2.7-0.1-5.4-0.1-8.1-0.1v7.2c2.7,0,5.4,0.1,8.1,0.2V424.8L579,424.8z M627.4,430.3c-2.7-0.6-5.4-1.1-8.1-1.6v8.1
	c2.7,0.6,5.4,1.2,8.1,1.9V430.3z M617.7,428.4c-2.7-0.5-5.4-0.9-8.1-1.2v7.8c2.7,0.4,5.4,0.9,8.1,1.5V428.4L617.7,428.4z M608,426.9
	c-2.7-0.3-5.4-0.6-8.1-0.9v7.5c2.7,0.3,5.4,0.7,8.1,1.1V426.9L608,426.9z M534,435.1l-1.7,0.2v7.5l1.5-0.2c2.2-0.3,4.4-0.5,6.6-0.7
	v-7.4C538.3,434.7,536.1,434.9,534,435.1L534,435.1z M530.7,435.5c-2.7,0.3-5.4,0.7-8.1,1.1v7.8c2.7-0.5,5.4-0.9,8.1-1.3V435.5z
	 M521,436.8c-2.7,0.4-5.4,0.9-8.1,1.4v8.1c2.7-0.6,5.4-1.2,8.1-1.7V436.8z M565.3,433.4l-4,0.1v7.2l4-0.1h4.1v-7.2L565.3,433.4
	L565.3,433.4z M559.7,433.4c-2.7,0.1-5.4,0.2-8.1,0.3v7.3c2.7-0.1,5.4-0.3,8.1-0.3V433.4L559.7,433.4z M550,433.8
	c-2.7,0.1-5.4,0.3-8.1,0.5v7.4c2.7-0.3,5.4-0.5,8.1-0.6V433.8L550,433.8z M596.7,434.8c-2.1-0.2-4.3-0.4-6.4-0.6v7.4
	c2.2,0.2,4.4,0.5,6.6,0.7l0,0l1.6,0.2v-7.5L596.7,434.8L596.7,434.8z M588.7,434.1c-2.7-0.2-5.4-0.4-8.1-0.5v7.2
	c2.7,0.1,5.4,0.3,8.1,0.5V434.1z M579.1,433.5c-2.7-0.1-5.4-0.2-8.1-0.2v7.2c2.7,0,5.4,0.1,8.1,0.2V433.5z M627.4,440.3
	c-2.7-0.7-5.4-1.4-8.1-1.9v8.1c2.7,0.7,5.4,1.4,8.1,2.2V440.3L627.4,440.3z M617.8,438c-2.7-0.6-5.4-1.1-8.1-1.5v7.8
	c2.7,0.5,5.4,1.1,8.1,1.8V438L617.8,438z M608.1,436.3c-2.7-0.4-5.4-0.8-8.1-1.1v7.5c2.7,0.4,5.4,0.8,8.1,1.3V436.3z M534,444.1
	l-1.7,0.2v7.5l1.5-0.2c2.2-0.3,4.4-0.6,6.6-0.9v-7.4C538.3,443.6,536.1,443.9,534,444.1L534,444.1z M565.4,442.1l-4,0.1v7.2l4-0.1
	c1.3,0,2.7,0,4.1,0v-7.2L565.4,442.1L565.4,442.1z M559.7,442.3c-2.7,0.1-5.4,0.2-8.1,0.3v7.2c2.7-0.2,5.4-0.3,8.1-0.4V442.3z
	 M550.1,442.7c-2.7,0.2-5.4,0.4-8.1,0.6v7.4c2.7-0.3,5.4-0.5,8.1-0.7V442.7L550.1,442.7z M588.8,443c-2.7-0.2-5.4-0.4-8.1-0.5v7.2
	c2.7,0.2,5.4,0.4,8.1,0.6V443L588.8,443z M579.1,442.3c-2.7-0.1-5.4-0.2-8.1-0.2v7.2c2.7,0,5.4,0.1,8.1,0.3V442.3L579.1,442.3z"/>
<path class="st2" d="M501.2,365.2h128.3c1.7,0,3.1,1.4,3.1,3.1v92.2c-1.9,1.1-4.3,1.1-6.3,0v-89h-122v89c-1.9,1.1-4.3,1.1-6.3,0
	v-92.2C498.1,366.6,499.5,365.2,501.2,365.2L501.2,365.2z"/>
<path id="_Rectangle_2" class="st11" d="M511.7,94.6l1.5,0.6c3.9,1.7,5.7,6.3,3.9,10.2l-22.4,50.7c-1.7,3.9-6.3,5.7-10.2,3.9
	l-1.5-0.6c-3.9-1.7-5.7-6.3-3.9-10.2l22.4-50.7C503.2,94.6,507.8,92.9,511.7,94.6z"/>
<path id="_Rectangle_3" class="st11" d="M436.4,160.4l-1.3,0.9c-3.5,2.4-8.3,1.5-10.7-2l-31.2-45.9c-2.4-3.5-1.5-8.3,2-10.7l1.3-0.9
	c3.5-2.4,8.3-1.5,10.7,2l31.2,45.9C440.8,153.2,439.9,158,436.4,160.4z"/>
<path id="_Path_" class="st12" d="M477.1,398.4L477.1,398.4c4.7,0,8.5,3.8,8.5,8.5c0,0,0,0,0,0v60.5c0,4.7-3.8,8.5-8.5,8.5
	c0,0,0,0,0,0l0,0c-4.7,0-8.5-3.8-8.5-8.5c0,0,0,0,0,0v-60.5C468.6,402.2,472.4,398.4,477.1,398.4
	C477.1,398.4,477.1,398.4,477.1,398.4z"/>
<path id="_Rectangle_4" class="st13" d="M476,268.1h2.1c5.5,0,10,4.5,10,10v176.1l0,0H466l0,0V278.1
	C466,272.6,470.5,268.1,476,268.1L476,268.1z"/>
<path id="_Path_2" class="st13" d="M467.1,466.3v10.4h51.5v-1c0-1.9-1.3-3.5-3.1-4l-27.4-7.1c-1.3-0.3-2.6-0.3-3.8,0
	c-7.3,1.9-12.5,1.1-15.1,0.3c-0.8-0.2-1.7,0.2-2,1.1C467.2,466.1,467.2,466.2,467.1,466.3z"/>
<path id="_Path_3" class="st14" d="M467.1,476.7L467.1,476.7c0,1.8,1.4,3.2,3.1,3.3c0,0,0,0,0.1,0h46.8c0.9,0,1.6-0.7,1.6-1.6
	c0,0,0,0,0,0v-1.6L467.1,476.7z"/>
<path id="_Path_4" class="st12" d="M436.7,399.5L436.7,399.5c-4.7,0-8.5,3.8-8.5,8.5c0,0,0,0,0,0v60.5c0,4.7,3.8,8.5,8.5,8.5
	c0,0,0,0,0,0l0,0c4.7,0,8.5-3.8,8.5-8.5c0,0,0,0,0,0V408C445.3,403.3,441.4,399.5,436.7,399.5C436.7,399.5,436.7,399.5,436.7,399.5z
	"/>
<path id="_Rectangle_5" class="st13" d="M435.6,268.1h2.1c5.5,0,10,4.5,10,10v176.1l0,0h-22l0,0V278.1
	C425.7,272.6,430.2,268.1,435.6,268.1L435.6,268.1z"/>
<path id="_Path_5" class="st13" d="M446.9,467.4v10.4h-51.5v-1c0-1.9,1.3-3.5,3.1-4l27.4-7.1c1.3-0.3,2.6-0.3,3.8,0
	c7.3,1.9,12.5,1.1,15.1,0.3c0.8-0.2,1.7,0.2,2,1.1C446.8,467.2,446.8,467.3,446.9,467.4z"/>
<path id="_Path_6" class="st14" d="M446.9,477.8L446.9,477.8c0,1.8-1.4,3.2-3.1,3.2c0,0,0,0,0,0h-46.8c-0.9,0-1.6-0.7-1.6-1.6
	c0,0,0,0,0,0v-1.6L446.9,477.8z"/>
<text transform="matrix(1 0 0 1 434.77 182.33)" class="st15 st16 st17">S</text>
<text transform="matrix(1 0 0 1 446.15 182.33)" class="st18 st16 st17">T</text>
<text transform="matrix(1 0 0 1 455.42 182.33)" class="st18 st16 st17">AFF</text>
<path class="st15" d="M518,471.7l-27.4-7.1c-0.8-0.2-1.6-0.3-2.5-0.2v-10.1h2.4V279.9c0-0.1,0-0.2,0-0.3l-0.1-5.8h6.6V156.3
	c0.2-0.3,0.3-0.5,0.4-0.8l21.8-49.3c0.2-0.6,0.4-1.1,0.5-1.7c0.9-1.8,0.8-4-0.1-5.7l-10.2-19.3l-1.4,0.8l-16.3-26.6l1.7-11.5
	c0,0-4.5-10.4-7.8-13.3c-3.8-3.3-10.4-4.3-11.6-4.3c-3.3-0.2,4.3,14.7,4.3,14.7l-0.2,1.9c-2.2-0.8-5-1-6.8,1.7
	c2,2.7,3.9,5.5,5.6,8.4c-0.6,1.9-0.3,3.9,0.7,5.6L496.1,87l-1.4,0.8l7.7,14.5l-16.5,37.4c-0.8-0.1-1.6-0.2-2.3-0.2h-20.6
	c0-0.2,0-0.4,0-0.6v-8.8c0.4,0,0.9,0,1.3-0.2c3.6-1.3,7-3.1,10.1-5.4c0.6-0.4,1.1-0.9,1.6-1.4c2.2-2,4.1-4.3,5.8-6.7
	c1.9-2.4,3.4-5,4.7-7.8c0.2-0.6,0.5-1.2,0.7-1.8c0.1-0.3,0.2-1.3,0.5-1.5c2.8-2.3,4.4-2.5,7.5-3.3c-1.9-1.4-4.1-2.4-6.5-2.9
	c0,0,1.5-11.6-11-21.8c-7.9-6.5-19.3-6.2-19.3-6.2l-7.6-5.2c-1,1.8-1.8,3.7-2.4,5.7c-0.6,1.8-0.7,3.7-0.4,5.6l-4.6-3.2
	c-0.9,1.1-1.4,2.5-1.3,3.9c0.1,2.3,0.9,4.5,2.4,6.2l0.1,0.1c-0.3,0.3-0.5,0.6-0.8,0.9c-3.1,4-5.7,8.4-7.7,13.1l-5.7,8.2l2.8,2
	l0.2-0.5c-0.8,5.6,0,11.3,3.5,16.1c0.8,1.1,1.8,2,2.9,2.8l2.4,1.7c2.1,1.4,5.7,1.9,9.9,1.7v8.7c0,0.2,0,0.4,0,0.6h-16.5
	c-0.5,0-1,0-1.5,0.1L412.5,108l5.1-16.4l-1.6-0.6l12.6-33c0.6-1.6,0.6-3.4-0.1-5c0.8-3.6,1.7-7.1,2.9-10.6c-2.2-1.8-4.5-1.2-6.3,0
	l-0.5-1.6c0,0,4.7-16.1,1.5-15.2c-1.2,0.3-7.5,2.4-10.6,6.4c-2.7,3.4-5.2,14.5-5.2,14.5l3.8,11l-11.1,29.1l-1.6-0.6l-5.9,19.1
	c-1.6,2.8-1.5,6.3,0.4,9l25.5,37.5c-0.1,0.7-0.1,1.3-0.1,2v120.2h6.1l0.1,6.4c0,1,0.2,2,0.4,2.9v171.2h2.6v11.2
	c-0.8,0-1.6,0-2.3,0.2l-27.4,7.1c-1.8,0.5-3.1,2.1-3.1,4v2.7c0,0.9,0.7,1.6,1.6,1.6c0,0,0,0,0,0h46.8c1.7,0,3.1-1.4,3.1-3.1
	c0,0,0,0,0,0v-10.5c0-0.9-0.7-1.6-1.6-1.6c0,0,0,0,0,0v-11.6h2.4V290.7l18.4-0.1v163.7h2.5v10.5c-0.8,0.1-1.4,0.8-1.4,1.6v10.5
	c0,1.7,1.4,3.1,3.1,3.1c0,0,0,0,0,0h46.8c0.9,0,1.6-0.7,1.6-1.6c0,0,0,0,0,0v-2.7C521.1,473.8,519.8,472.2,518,471.7z"/>
<path id="_Path_7" class="st13" d="M487.7,259.4l-62.9,0.5l0.4,20.2c0,6,4.9,10.8,10.9,10.7c0,0,0,0,0,0l41.3-0.3
	c6,0,10.8-4.9,10.7-10.9c0,0,0,0,0,0L487.7,259.4z"/>
<path id="_Rectangle_6" class="st11" d="M441.9,139.5h30.5c12.3,0,22.2,9.9,22.2,22.2l0,0v112.1l0,0H419l0,0V162.4
	C419,149.8,429.3,139.5,441.9,139.5L441.9,139.5z"/>
<path id="_Path_8" class="st19" d="M454.8,121.3h0.2c-3,0-5.5,2.5-5.4,5.5c0,0,0,0.1,0,0.1v12c0,3.1,2.3,4.1,5.4,4.1h-0.1
	c3.1,0,5.5-1,5.5-4.1v-12C460.4,123.8,457.9,121.3,454.8,121.3C454.8,121.3,454.8,121.3,454.8,121.3z"/>
<text transform="matrix(1 0 0 1 432.32 182.33)" class="st2 st16 st17">S</text>
<text transform="matrix(1 0 0 1 443.7 182.33)" class="st2 st16 st17">T</text>
<text transform="matrix(1 0 0 1 452.97 182.33)" class="st2 st16 st17">AFF</text>
<path id="_Rectangle_7" class="st19" d="M421.7,49.1l1.2,0.5c3.2,1.2,4.8,4.8,3.6,8l-14.3,37.4c-1.2,3.2-4.8,4.8-8,3.6l-1.2-0.5
	c-3.2-1.2-4.8-4.8-3.6-8l14.3-37.4C414.9,49.4,418.5,47.8,421.7,49.1z"/>
<path id="_Path_9" class="st11" d="M415.2,91.6L399.1,86l-6.5,20.9c-1.3,3.6,1.3,7.8,5.8,9.3l0,0c4.4,1.5,9-0.1,10.3-3.7L415.2,91.6
	z"/>
<path id="_Path_10" class="st19" d="M412.9,60.4L408,46.5c0,0,2.5-11,5.2-14.5c3.1-4,9.4-6.1,10.6-6.4c3.2-0.8-1.5,15.2-1.5,15.2
	l4.2,14L412.9,60.4z"/>
<path id="_Rectangle_8" class="st19" d="M505.4,91.9l-1.1,0.7c-2.9,1.8-6.7,0.9-8.5-2l-21-34.1c-1.8-2.9-0.9-6.7,2-8.5l1.1-0.7
	c2.9-1.8,6.7-0.9,8.5,2l21,34.1C509.2,86.3,508.3,90.1,505.4,91.9z"/>
<path id="_Path_11" class="st11" d="M492.2,87.8l14.8-8.4l10.2,19.3c1.9,3.3,0.1,7.9-4,10.2l0,0c-4.1,2.3-8.9,1.6-10.8-1.8
	L492.2,87.8z"/>
<path id="_Path_12" class="st19" d="M488.7,56.7l2.2-14.6c0,0-4.5-10.4-7.8-13.3c-3.8-3.3-10.4-4.3-11.6-4.3
	c-3.3-0.2,4.3,14.7,4.3,14.7l-1.5,14.6L488.7,56.7z"/>
<circle class="st10" cx="449.7" cy="36" r="25.5"/>
<polygon class="st2" points="433.3,27.2 437.1,29.4 440.9,31.6 440.9,36 440.9,40.4 437.1,42.6 433.3,44.8 429.4,42.6 425.6,40.4 
	425.6,36 425.6,31.6 429.4,29.4 "/>
<polygon class="st2" points="441.5,12.9 445.3,15.1 449.1,17.4 449.1,21.8 449.1,26.2 445.3,28.4 441.5,30.6 437.6,28.4 433.8,26.2 
	433.8,21.8 433.8,17.4 437.6,15.1 "/>
<polygon class="st2" points="457.9,12.9 461.7,15.1 465.5,17.4 465.5,21.8 465.5,26.2 461.7,28.4 457.9,30.6 454.1,28.4 450.2,26.2 
	450.2,21.8 450.2,17.4 454.1,15.1 "/>
<polygon class="st2" points="466.1,44.8 462.3,42.6 458.4,40.4 458.4,36 458.4,31.6 462.3,29.4 466.1,27.2 469.9,29.4 473.8,31.6 
	473.8,36 473.8,40.4 469.9,42.6 "/>
<polygon class="st2" points="457.9,59.1 454.1,56.9 450.2,54.7 450.2,50.2 450.2,45.8 454.1,43.6 457.9,41.4 461.7,43.6 465.5,45.8 
	465.5,50.2 465.5,54.7 461.7,56.9 "/>
<polygon class="st2" points="441.5,59.1 437.6,56.9 433.8,54.7 433.8,50.2 433.8,45.8 437.6,43.6 441.5,41.4 445.3,43.6 449.1,45.8 
	449.1,50.2 449.1,54.7 445.3,56.9 "/>
<path class="st2" d="M449.7,12.2c13.1,0,23.8,10.6,23.8,23.8s-10.6,23.8-23.8,23.8S425.9,49.1,425.9,36l0,0
	C425.9,22.9,436.6,12.2,449.7,12.2 M449.7,9.7c-14.5,0-26.3,11.8-26.3,26.3s11.8,26.3,26.3,26.3s26.3-11.8,26.3-26.3
	S464.2,9.8,449.7,9.7z"/>
<path id="_Path_13" class="st19" d="M425.5,56c0,0,2-9.6,3.6-13.5c-4.5-3.7-9.4,2.9-9.4,2.9L425.5,56z"/>
<path id="_Path_14" class="st19" d="M476.4,54.6c0,0-4.9-8.5-7.6-11.7c3.2-5,9.9-0.2,9.9-0.2L476.4,54.6z"/>
<path id="_Rectangle_9" class="st12" d="M511.7,94.6l1.5,0.6c3.9,1.7,5.7,6.3,3.9,10.2l-22.4,50.7c-1.7,3.9-6.3,5.7-10.2,3.9
	l-1.5-0.6c-3.9-1.7-5.7-6.3-3.9-10.2l22.4-50.7C503.2,94.6,507.8,92.9,511.7,94.6z"/>
<path id="_Rectangle_10" class="st12" d="M436.4,160.4l-1.3,0.9c-3.5,2.4-8.3,1.5-10.7-2l-31.2-45.9c-2.4-3.5-1.5-8.3,2-10.7
	l1.3-0.9c3.5-2.4,8.3-1.5,10.7,2l31.2,45.9C440.8,153.2,439.9,158,436.4,160.4z"/>
<path id="_Path_15" class="st12" d="M477.1,398.4L477.1,398.4c4.7,0,8.5,3.8,8.5,8.5c0,0,0,0,0,0v60.5c0,4.7-3.8,8.5-8.5,8.5
	c0,0,0,0,0,0l0,0c-4.7,0-8.5-3.8-8.5-8.5c0,0,0,0,0,0v-60.5C468.6,402.2,472.4,398.4,477.1,398.4
	C477.1,398.4,477.1,398.4,477.1,398.4z"/>
<path id="_Rectangle_11" class="st13" d="M476,268.1h2.1c5.5,0,10,4.5,10,10v176.1l0,0H466l0,0V278.1
	C466,272.6,470.5,268.1,476,268.1L476,268.1z"/>
<path id="_Path_16" class="st13" d="M467.1,466.3v10.4h51.5v-1c0-1.9-1.3-3.5-3.1-4l-27.4-7.1c-1.3-0.3-2.6-0.3-3.8,0
	c-7.3,1.9-12.5,1.1-15.1,0.3c-0.8-0.2-1.7,0.2-2,1.1C467.2,466.1,467.2,466.2,467.1,466.3z"/>
<path id="_Path_17" class="st14" d="M467.1,476.7L467.1,476.7c0,1.8,1.4,3.2,3.1,3.3c0,0,0,0,0.1,0h46.8c0.9,0,1.6-0.7,1.6-1.6
	c0,0,0,0,0,0v-1.6L467.1,476.7z"/>
<path id="_Path_18" class="st12" d="M436.7,399.5L436.7,399.5c-4.7,0-8.5,3.8-8.5,8.5c0,0,0,0,0,0v60.5c0,4.7,3.8,8.5,8.5,8.5
	c0,0,0,0,0,0l0,0c4.7,0,8.5-3.8,8.5-8.5c0,0,0,0,0,0V408C445.3,403.3,441.4,399.5,436.7,399.5C436.7,399.5,436.7,399.5,436.7,399.5z
	"/>
<path id="_Rectangle_12" class="st13" d="M435.6,268.1h2.1c5.5,0,10,4.5,10,10v176.1l0,0h-22l0,0V278.1
	C425.7,272.6,430.2,268.1,435.6,268.1L435.6,268.1z"/>
<path id="_Path_19" class="st13" d="M446.9,467.4v10.4h-51.5v-1c0-1.9,1.3-3.5,3.1-4l27.4-7.1c1.3-0.3,2.6-0.3,3.8,0
	c7.3,1.9,12.5,1.1,15.1,0.3c0.8-0.2,1.7,0.2,2,1.1C446.8,467.2,446.8,467.3,446.9,467.4z"/>
<path id="_Path_20" class="st14" d="M446.9,477.8L446.9,477.8c0,1.8-1.4,3.2-3.1,3.2c0,0,0,0,0,0h-46.8c-0.9,0-1.6-0.7-1.6-1.6
	c0,0,0,0,0,0v-1.6L446.9,477.8z"/>
<path id="_Path_21" class="st13" d="M487.7,259.4l-62.9,0.5l0.4,20.2c0,6,4.9,10.8,10.9,10.7c0,0,0,0,0,0l41.3-0.3
	c6,0,10.8-4.9,10.7-10.9c0,0,0,0,0,0L487.7,259.4z"/>
<path id="_Rectangle_13" class="st12" d="M441.9,139.5h30.5c12.3,0,22.2,9.9,22.2,22.2l0,0v112.1l0,0H419l0,0V162.4
	C419,149.8,429.3,139.5,441.9,139.5L441.9,139.5z"/>
<text transform="matrix(1 0 0 1 432.32 182.33)" class="st2 st16 st17">S</text>
<text transform="matrix(1 0 0 1 443.7 182.33)" class="st2 st16 st17">T</text>
<text transform="matrix(1 0 0 1 452.97 182.33)" class="st2 st16 st17">AFF</text>
<path id="_Rectangle_14" class="st19" d="M421.7,49.1l1.2,0.5c3.2,1.2,4.8,4.8,3.6,8l-14.3,37.4c-1.2,3.2-4.8,4.8-8,3.6l-1.2-0.5
	c-3.2-1.2-4.8-4.8-3.6-8l14.3-37.4C414.9,49.4,418.5,47.8,421.7,49.1z"/>
<path id="_Path_22" class="st12" d="M415.2,91.6L399.1,86l-6.5,20.9c-1.3,3.6,1.3,7.8,5.8,9.3l0,0c4.4,1.5,9-0.1,10.3-3.7
	L415.2,91.6z"/>
<path id="_Path_23" class="st19" d="M412.9,60.4L408,46.5c0,0,2.5-11,5.2-14.5c3.1-4,9.4-6.1,10.6-6.4c3.2-0.8-1.5,15.2-1.5,15.2
	l4.2,14L412.9,60.4z"/>
<path id="_Rectangle_15" class="st19" d="M505.4,91.9l-1.1,0.7c-2.9,1.8-6.7,0.9-8.5-2l-21-34.1c-1.8-2.9-0.9-6.7,2-8.5l1.1-0.7
	c2.9-1.8,6.7-0.9,8.5,2l21,34.1C509.2,86.3,508.3,90.1,505.4,91.9z"/>
<path id="_Path_24" class="st12" d="M492.2,87.8l14.8-8.4l10.2,19.3c1.9,3.3,0.1,7.9-4,10.2l0,0c-4.1,2.3-8.9,1.6-10.8-1.8
	L492.2,87.8z"/>
<path id="_Path_25" class="st19" d="M488.7,56.7l2.2-14.6c0,0-4.5-10.4-7.8-13.3c-3.8-3.3-10.4-4.3-11.6-4.3
	c-3.3-0.2,4.3,14.7,4.3,14.7l-1.5,14.6L488.7,56.7z"/>
<path id="_Path_26" class="st19" d="M425.5,56c0,0,2-9.6,3.6-13.5c-4.5-3.7-9.4,2.9-9.4,2.9L425.5,56z"/>
<path id="_Path_27" class="st19" d="M476.4,54.6c0,0-4.9-8.5-7.6-11.7c3.2-5,9.9-0.2,9.9-0.2L476.4,54.6z"/>
<path id="_Path_28" class="st19" d="M439.6,128.5c6.9,4.7,30.6-0.6,37.4-9.2c7.1-9.1,10.8-30.7-0.7-38.7c-13.1-9-24.2-9.2-35.2,4.5
	c-6.5,8.2-16.1,26.5-6.9,38.9c0.8,1.1,1.8,2,2.9,2.8L439.6,128.5z"/>
<path class="st20" d="M456.3,112.2c0.5-1,0.7-2.1,0.5-3.2c-0.1-0.6-0.3-1.1-0.6-1.5c-0.2-0.3-1.2-1-1.2-1.2c0-0.1,0.1-0.2,0.1-0.3
	l3.7-5.3c0.6-0.7,0.9-1.5,1-2.4c0-1.6-1.7-3-2.8-3.9l-0.1-0.1c-0.3-0.3-0.6-0.5-1-0.8l-0.1-0.1c-0.6-0.5-1.3-1-2-1.5
	c-6.5-4.5-11.8-7.6-11.8-7.6l-0.2-0.2c-1.5-1.7-2.3-3.9-2.4-6.2c0-1.4,0.4-2.8,1.3-3.9l4.6,3.1c-0.3-1.9-0.2-3.8,0.4-5.6
	c0.6-2,1.4-3.9,2.4-5.7l7.6,5.2c0,0,11.4-0.3,19.3,6.2c12.5,10.3,11,21.8,11,21.8c2.3,0.5,4.5,1.5,6.5,2.9c-3.1,0.8-4.7,1-7.5,3.3
	c-0.3,0.2-0.4,1.2-0.5,1.5c-0.2,0.6-0.4,1.2-0.7,1.8c-1.3,2.8-2.9,5.4-4.7,7.8c-1.7,2.5-3.6,4.7-5.8,6.7c-0.5,0.5-1.1,0.9-1.6,1.4
	c-3,2.3-6.4,4.2-10,5.5c-0.4,0.2-0.9,0.2-1.4,0.2c-1.5-0.3-6.4-6.9-6.5-8.1c-0.3-2.2-0.5-4.5-0.6-6.7c0-0.5,0.5-0.6,0.9-0.8
	c0.4-0.3,0.8-0.6,1.1-0.9C455.7,113.2,456,112.8,456.3,112.2z"/>
<g id="_Group_">
	<path id="_Path_29" class="st19" d="M451,106.6c1.2-0.6,2.5-0.9,3.8-0.8c5.1,0,7.8,4.7,3.4,7.7c-3,2.1-9.7,8-10.2,3.9
		C447.7,113.5,448.8,109.7,451,106.6z"/>
	<polygon id="_Path_30" class="st21" points="453.4,108.8 458.4,111.2 450.7,115 455.4,110.7 	"/>
</g>
<g id="_Group_2">
	<line id="_Path_31" class="st22" x1="437.6" y1="94.2" x2="442.6" y2="97.4"/>
	<path id="_Path_32" class="st20" d="M438,93.3c-0.5-0.1-1.1,0.2-1.2,0.7c-0.1,0.4,0,0.8,0.3,1l5,3.1c0.5,0.2,1.1-0.1,1.2-0.7
		c0.1-0.4,0-0.7-0.2-1l-5-3.1L438,93.3z"/>
</g>
<ellipse id="_Path_33" transform="matrix(0.3294 -0.9442 0.9442 0.3294 196.2466 482.05)" cx="437.5" cy="102.9" rx="1.3" ry="1.3"/>
<polygon id="_Path_34" class="st19" points="434.1,97.3 430.6,108.5 427.8,106.4 "/>
<g>
	<defs>
		<path id="SVGID_1_" d="M440.2,130.1c6.9,4.7,27.2-2.7,34-11.4c7.1-9.1,10.8-30.7-0.7-38.7c-13.1-9-24.2-9.2-35.2,4.5
			c-6.5,8.2-12.7,28.6-3.5,41c0.8,1.1,1.8,2,2.9,2.8L440.2,130.1z"/>
	</defs>
	<clipPath id="SVGID_2_">
		<use xlink:href="#SVGID_1_"  style="overflow:visible;"/>
	</clipPath>
	<g class="st23">
		<path id="_Path_35" class="st2" d="M430.9,115.7c2.9,0.7,5.9-0.2,6.3-2l0.1-0.4l-11.3-2.8l-0.1,0.4c-0.4,1.6,0.9,3.8,4,4.6
			L430.9,115.7z"/>
	</g>
</g>
<path class="st15" d="M350.5,193.4c0.8-1.1,5.9-7.9,4.1-8.1c-0.7-0.1-4.7-0.3-7.4,1.3c-2.3,1.3-6.1,7-6.1,7l-0.3,8.9l0,0l-6.3,37.4
	l-15.2,19.8l-0.9-0.7l-7.9,10.3c-0.9-0.2-1.9-0.4-2.9-0.4h-8c0-0.2,0.1-0.4,0.1-0.6v-4.4c3.6,0.1,7.2-0.6,10.5-2.3
	c10.9-7.6,6.7-24.8,2.8-32.7c-0.8-1.5-1.6-3-2.6-4.4c0.9-0.9,1.4-2,1.7-3.2c0.3-1.1,0.1-2.2-0.4-3.2l-4,1.6c0.6-1.4,0.8-2.8,0.6-4.3
	c-0.1-1.6-0.4-3.2-0.9-4.7l-6.6,2.7c0,0-8.6-2.1-15.6,1.5c-11.2,5.7-11.9,14.7-11.9,14.7c-1.8,0-3.7,0.4-5.4,1.2
	c2.2,1.1,3.4,1.5,5.1,3.8c0.1,3.1,1.4,7,2.7,9.9c-1.9,1-2.5,3.3-0.5,5.5c2.2,2.4,6.8,8.5,7.9,5.1v-0.1c2.6,3,5.9,5.5,9.5,7.1v6
	c0,0.2,0,0.4,0.1,0.6h-10.2c-2,0-4,0.5-5.7,1.5c-1.5-0.5-3.2-0.3-4.5,0.5h-1.2v1c-1.3,1.4-1.7,3.4-1.2,5.2l1.2,4.4v73.2h4.3
	l-0.1,7.1c0,0.2,0,0.3,0,0.5s0,0.2,0,0.3v26h2.2v69l-0.2,0.1c-0.6,0.4-1.1,0.8-1.6,1.4c-1.6,1.9-2.7,4-3.5,6.3
	c-0.2,0.6-0.4,1.2-0.5,1.7c-0.2,0.8,0.2,1.6,0.9,1.9l25,11.4c1.2,0.6,2.6,0.4,3.7-0.5h0.1c0.4-0.3,0.7-0.7,0.9-1.2l0.1-0.1
	c0.3-0.7,0.4-1.5,0.3-2.3c0-0.1-0.1-0.3-0.1-0.4c-0.1-0.3-0.3-0.5-0.6-0.7l-3.7-2.3c-1.2-0.8-2.3-1.7-3.1-2.9l-1.3-1.8
	c0.3-0.3,0.5-0.6,0.7-0.9c0.2-0.4,0.1-1-0.3-1.2s-1-0.1-1.2,0.3c-0.1,0.1-0.1,0.2-0.2,0.3l-1-1.4c0.2-0.2,0.4-0.5,0.5-0.8
	c0.2-0.4,0.1-1-0.3-1.2s-1-0.1-1.2,0.3l0,0l-0.1,0.1l-0.8-1.1c0.2-0.4,0.4-0.8,0.6-1.2c1.5-4.2-0.7-3.5-2.4-1.7v-70.9h2.6V369h9.5
	v19.6h2.2v69.7c-0.2,0-0.3,0.1-0.5,0.2c-0.6,0.4-1,1-1.5,1.5c-1.3,2-2.3,4.3-2.8,6.6c-0.1,0.6-0.3,1.2-0.3,1.7
	c-0.1,0.8,0.3,1.5,1.1,1.8l26.1,8.6c1.3,0.4,2.7,0.1,3.6-0.9l0,0c0.3-0.4,0.6-0.8,0.8-1.3v-0.1c0.2-0.7,0.2-1.5,0-2.3
	c0-0.1-0.1-0.3-0.2-0.4c-0.2-0.3-0.4-0.5-0.7-0.6l-3.9-1.9c-1.3-0.6-2.4-1.5-3.4-2.6l-1.5-1.7c0.2-0.3,0.4-0.6,0.6-1
	c0.2-0.5-0.1-1-0.5-1.2c-0.4-0.2-0.9,0-1.1,0.5c0,0.1-0.1,0.2-0.1,0.3l-1.2-1.3c0.2-0.3,0.3-0.5,0.5-0.8c0.2-0.5-0.1-1-0.5-1.2
	c-0.4-0.2-0.9,0-1.1,0.5v0.1l-0.9-1c0.2-0.4,0.3-0.8,0.4-1.3c1-4.2-0.9-3.5-2.4-1.6v-70.5h2.6v-24.4c0.2-0.6,0.3-1.3,0.3-2l0.1-7.5
	h3.9v-50.3l5.2-2.5c0.3-0.1,0.5-0.3,0.8-0.5l6.8-3.7c0,0,3.3-5.9,3.4-8.5c0.2-3-1.7-6.4-2.1-7c-1-1.5-4.7,6-5.3,7.2
	c-0.2-1.3-1.2-2.4-2.5-2.5c-1.3,2.4-2.8,4.7-4.4,6.9l-0.5,0.3l-1.3,0.6v-16.2h-0.2c-0.1-0.7-0.3-1.3-0.5-1.9l8.4-11l-1-0.8
	l15.9-20.7c0.4-0.6,0.7-1.3,0.9-2v-0.1l6.8-40.1c0-0.2,0.1-0.5,0.1-0.7c1.3-2.4,2.7-4.8,4.2-7.1
	C353.2,193.3,351.8,192.9,350.5,193.4z"/>
<g class="st24">
	<path class="st18" d="M323.6,273.7c-0.4-3.9-5.7-12.7-5.7-12.7l-12.2-5.5l-5.2,11.6l11.5,6.5c0,0,7,13.4,8.6,10.9
		C321.3,283.6,324.1,278.3,323.6,273.7z"/>
	<path class="st18" d="M261.7,236.1l16.1,13.3l10-11.7l-18.4-15.3c-0.4-0.3-0.7-0.5-1.2-0.7l-3.7-24.2l0.5-5.2
		c0-6.5-6.3-11.7-14.1-11.8h-13.5v-5c1.8,0.3,3.7,0.3,5.5,0.2c14.6-3.2,17.6-22.9,16.8-32.8c0-0.2,0-0.3,0-0.5
		c0.8-3.8,1.3-7.7,1.3-11.6c0-12.5-5.6-12.4-6.6-12.3c-4.8-9.4-13.1-10.7-22.2-9.2c-4.3,0.7-8.4,2.2-12,4.6
		c-0.7-1.2-1.8-2.1-3.1-2.7c-4.1-1.8-9.4,1-11.7,6.3s-0.8,11.1,3.3,12.9c0.5,0.2,1,0.4,1.5,0.4c-0.4,4.1-0.1,8.1,0.8,12.1
		c-0.6,1.2-0.6,2.6,0,3.8c0.8,2.1,1.9,6.2,3.3,8.2c-0.9,1-0.9,2.5,0,3.5c1,0.9,2.5,0.9,3.5,0c0.1-0.1,0.1-0.2,0.2-0.2
		c1.7,5.1,4.9,9.5,9,12.9v9.4h-16.5c-3.1,0-6.2,0.8-8.8,2.5l0,0c-3.6,1.1-5.8,4.6-5.4,8.3c0,0.3-0.1,0.7-0.1,1
		c0,0,4.3,29.9,4.3,39.9c0,11.3-3.5,43-4.2,49.4h-0.1v88h5.9v88.3h2v3.9c-0.8-0.1-1.5,0-2.3,0.2l-25,6.5c-1.7,0.4-2.8,1.9-2.8,3.7
		v2.5c0,0.8,0.6,1.4,1.4,1.5c0,0,0,0,0,0h42.7c1.6,0,2.9-1.3,2.9-2.9v-9.6c0-0.7-0.6-1.4-1.3-1.4v-4.3h2.5v-88.3H239v88.3h2.2v4.2
		c-0.8,0-1.4,0.6-1.5,1.4c0,0,0,0,0,0v9.6c0,1.6,1.3,2.9,2.9,2.9h42.7c0.8,0,1.4-0.6,1.5-1.4c0,0,0,0,0,0v-2.5
		c0-1.7-1.2-3.2-2.8-3.7l-25-6.5c-0.7-0.2-1.4-0.2-2.1-0.2v-3.9h2.3v-88.3h5.8v-88h-0.1l-1.2-14.2l0.5,0.3c0.5,0.3,1,0.4,1.5,0.3
		l2.7,0.6c2,1.7,3.9,3.5,5.6,5.4c1.1-0.4,1.9-1.3,2.4-2.3c2.8,3.1,8.6,9.1,9.3,6.9c0.4-1.1,1.8-6.9,0.3-11.2c-1.3-3.7-8.5-11-8.5-11
		l-13.1-2.6l-1.6-0.9l0.4-1c0.3-0.7,0-1.6-0.7-1.9c0,0,0,0,0,0l-0.4-0.2l-1.1-13.7L261.7,236.1z"/>
</g>
<path id="_Path_36" class="st6" d="M200,285.7l57.4,0.5l-0.4,18.4c0,5.4-4.5,9.8-9.9,9.8c0,0,0,0,0,0l-37.7-0.3
	c-5.4,0-9.8-4.5-9.8-9.9c0,0,0,0,0,0L200,285.7z"/>
<path id="_Path_37" class="st4" d="M209.5,401.6L209.5,401.6c-4.3,0-7.8,3.5-7.8,7.8l0,0v55.2c0,4.3,3.5,7.8,7.8,7.8l0,0l0,0
	c4.3,0,7.8-3.5,7.8-7.8l0,0v-55.2C217.3,405,213.8,401.6,209.5,401.6L209.5,401.6z"/>
<path id="_Rectangle_16" class="st25" d="M219.8,457.9h-20.1l0,0V288.7c0-3.9,3.1-7,7-7h6.1c3.9,0,7,3.1,7,7V457.9L219.8,457.9z"/>
<path id="_Path_38" class="st26" d="M218.6,463.6v9.5h-47v-1c0-1.7,1.2-3.2,2.8-3.7l25-6.5c1.2-0.3,2.4-0.3,3.5,0
	c6.7,1.7,11.4,1,13.8,0.3c0.8-0.2,1.6,0.2,1.8,1C218.6,463.3,218.6,463.4,218.6,463.6z"/>
<path id="_Path_39" class="st25" d="M218.6,473.1L218.6,473.1c0,1.7-1.3,2.9-2.9,2.9H173c-0.8,0-1.4-0.6-1.4-1.4c0,0,0,0,0,0v-1.5
	L218.6,473.1z"/>
<path id="_Path_40" class="st4" d="M246.5,401.6L246.5,401.6c4.3,0,7.8,3.5,7.8,7.8l0,0v55.2c0,4.3-3.5,7.8-7.8,7.8l0,0l0,0
	c-4.3,0-7.8-3.5-7.8-7.8l0,0v-55.2C238.7,405,242.2,401.6,246.5,401.6L246.5,401.6z"/>
<path id="_Rectangle_17" class="st25" d="M256.6,457.9h-20.1l0,0V288.7c0-3.9,3.1-7,7-7h6.1c3.9,0,7,3.1,7,7V457.9L256.6,457.9
	L256.6,457.9z"/>
<path id="_Path_41" class="st26" d="M237.3,463.6v9.5h47v-1c0-1.7-1.2-3.2-2.8-3.7l-25-6.5c-1.2-0.3-2.4-0.3-3.5,0
	c-6.7,1.7-11.4,1-13.8,0.3c-0.8-0.2-1.6,0.2-1.8,1C237.3,463.3,237.3,463.4,237.3,463.6z"/>
<path id="_Path_42" class="st25" d="M237.3,473.1L237.3,473.1c0,1.7,1.3,2.9,2.9,2.9h42.7c0.8,0,1.4-0.6,1.5-1.4c0,0,0,0,0,0v-1.5
	L237.3,473.1z"/>
<rect x="193.7" y="281.5" class="st4" width="68.8" height="88.1"/>
<path id="_Rectangle_18" class="st19" d="M306,413.7h-1c-2.6,0-4.7-2.1-4.7-4.7V369c0-2.6,2.1-4.7,4.7-4.7h1c2.6,0,4.7,2.1,4.7,4.7
	V409C310.7,411.6,308.6,413.7,306,413.7z"/>
<path id="_Rectangle_19" class="st27" d="M313.3,388.6h-15.2l0,0v-26.7c0-3.8,3.1-6.9,6.9-6.9l0,0h1.4c3.8,0,6.9,3.1,6.9,6.9l0,0
	V388.6L313.3,388.6z"/>
<path id="_Rectangle_20" class="st19" d="M306,468.6h-1c-2.6,0-4.7-2.1-4.7-4.7v-55.8c0-2.6,2.1-4.7,4.7-4.7h1
	c2.6,0,4.7,2.1,4.7,4.7v55.8C310.7,466.5,308.6,468.6,306,468.6z"/>
<g id="_Group_3">
	<path id="_Path_43" class="st28" d="M309.5,461.1c-0.6,1.4,1.6,1.8,2.1,1.8c1,0,1.5-2.2,1.5-2.2
		C314.4,455.2,310.7,458.1,309.5,461.1z"/>
	<path id="_Path_44" class="st29" d="M299.1,464.8c-0.4,1.3-0.1,2.8,0.8,3.9l16.6,5.5l2.5-1.8c0,0,3.1,1.1,5,1.6s2.5-0.1,2.5-0.1
		c-0.2-0.3-0.4-0.5-0.7-0.6l-3.9-1.9c-1.3-0.6-2.4-1.5-3.4-2.6l-6.6-7.5c-0.4-0.3-1-0.5-1.5-0.5c-0.8,0-1.5,0.3-2.1,0.9
		c-1.4,1.3-5.5,0.1-6.4-2s-2.3-1.1-2.3-1.1c-0.6,0.4-1,1-1.5,1.5C299.8,460.5,299.9,462.6,299.1,464.8z"/>
	<path id="_Path_45" class="st30" d="M295.6,466.8c-0.1,0.6-0.3,1.2-0.3,1.7c-0.1,0.8,0.3,1.5,1.1,1.8l26.1,8.6
		c1.3,0.4,2.7,0.1,3.6-0.9l0,0c0.3-0.4,0.6-0.8,0.8-1.3h-0.3c-1.2,0.1-2.4,0-3.5-0.4l-25.1-8.2c-0.6-0.2-1.2-0.5-1.8-0.9
		L295.6,466.8z"/>
	<path id="_Path_46" class="st28" d="M295.6,466.8l0.5,0.3c0.5,0.4,1.1,0.7,1.8,0.9l2.1,0.7c-0.9-1.1-1.2-2.5-0.8-3.9
		c0.8-2.2,0.7-4.2-0.8-4.7C297,462.1,296.1,464.4,295.6,466.8z"/>
	<path id="_Path_47" class="st28" d="M316.6,474.1l6.4,2.1c1.1,0.4,2.3,0.5,3.5,0.4h0.3v-0.1c0.2-0.7,0.2-1.5,0-2.3
		c0-0.1-0.1-0.3-0.2-0.4c0,0-0.7,0.6-2.5,0.1s-5-1.6-5-1.6L316.6,474.1z"/>
	<path id="_Path_48" class="st2" d="M311.3,466.4c0.1,0,0.2,0,0.4,0c1.6-0.2,3-1.3,3.6-2.8c0.2-0.5-0.1-1-0.5-1.2
		c-0.4-0.2-0.9,0-1.1,0.5c-0.4,0.9-1.2,1.5-2.1,1.7c-0.5,0-0.9,0.4-0.8,0.9C310.7,465.9,310.9,466.2,311.3,466.4L311.3,466.4z"/>
	<path id="_Path_49" class="st2" d="M313.8,468.9c0.1,0,0.2,0,0.4,0c1.6-0.2,3-1.3,3.6-2.8c0.2-0.5-0.1-1-0.5-1.2
		c-0.4-0.2-0.9,0-1.1,0.5c-0.4,0.9-1.2,1.5-2.1,1.7c-0.5,0-0.9,0.4-0.8,0.9C313.2,468.4,313.5,468.8,313.8,468.9L313.8,468.9z"/>
</g>
<path id="_Path_50" class="st27" d="M273.6,349l40.2,0.3l-0.2,12.9c0,3.8-3.1,6.9-7,6.9c0,0,0,0,0,0l-26.4-0.2c-3.8,0-6.9-3.1-6.9-7
	c0,0,0,0,0,0L273.6,349z"/>
<path id="_Rectangle_21" class="st19" d="M281.3,413.7h-1c-2.6,0-4.7-2.1-4.7-4.7V369c0-2.6,2.1-4.7,4.7-4.7h1
	c2.6,0,4.7,2.1,4.7,4.7V409C286,411.6,283.9,413.7,281.3,413.7z"/>
<path id="_Rectangle_22" class="st27" d="M288.6,388.6h-15.2l0,0v-26.7c0-3.8,3.1-6.9,6.9-6.9l0,0h1.4c3.8,0,6.9,3.1,6.9,6.9l0,0
	L288.6,388.6L288.6,388.6z"/>
<path id="_Rectangle_23" class="st19" d="M281.3,468.6h-1c-2.6,0-4.7-2.1-4.7-4.7v-55.8c0-2.6,2.1-4.7,4.7-4.7h1
	c2.6,0,4.7,2.1,4.7,4.7v55.8C286,466.5,283.9,468.6,281.3,468.6z"/>
<g id="_Group_4">
	<path id="_Path_51" class="st28" d="M284.7,461.3c-0.8,1.4,1.4,2,1.9,2c1,0.1,1.7-2,1.7-2C290.2,455.9,286.3,458.4,284.7,461.3z"/>
	<path id="_Path_52" class="st29" d="M274,463.8c-0.6,1.3-0.4,2.8,0.4,3.9l16,7.3l2.7-1.5c0,0,3,1.4,4.8,2.2s2.5,0.2,2.5,0.2
		c-0.1-0.3-0.3-0.5-0.6-0.7l-3.7-2.3c-1.2-0.8-2.3-1.7-3.1-2.9l-5.8-8.2c-0.4-0.4-0.9-0.6-1.4-0.6c-0.8-0.1-1.6,0.2-2.2,0.6
		c-1.6,1.2-5.5-0.5-6.1-2.7s-2.2-1.3-2.2-1.3c-0.6,0.4-1.1,0.8-1.6,1.4C275.2,459.6,275.1,461.7,274,463.8z"/>
	<path id="_Path_53" class="st30" d="M270.3,465.4c-0.2,0.6-0.4,1.2-0.5,1.7c-0.2,0.8,0.2,1.6,0.9,1.9l25,11.4
		c1.2,0.6,2.6,0.4,3.7-0.5h0.1c0.4-0.3,0.7-0.7,0.9-1.2H300c-1.2,0-2.3-0.3-3.4-0.8l-24.1-11c-0.6-0.3-1.2-0.6-1.6-1.1L270.3,465.4z
		"/>
	<path id="_Path_54" class="st28" d="M270.3,465.4l0.5,0.4c0.5,0.4,1.1,0.8,1.6,1.1l2,0.9c-0.8-1.2-1-2.7-0.4-3.9
		c1-2.1,1.2-4.1-0.3-4.7C272.2,460.9,271,463,270.3,465.4z"/>
	<path id="_Path_55" class="st28" d="M290.4,475l6.2,2.8c1.1,0.5,2.2,0.8,3.4,0.8h0.3l0.1-0.1c0.3-0.7,0.4-1.5,0.3-2.3
		c0-0.1-0.1-0.3-0.1-0.4c0,0-0.7,0.6-2.5-0.2s-4.8-2.2-4.8-2.2L290.4,475z"/>
	<path id="_Path_56" class="st2" d="M286,466.6c0.1,0,0.2,0.1,0.3,0.1c1.6-0.1,3.1-1,3.9-2.4c0.2-0.4,0.1-1-0.3-1.2s-1-0.1-1.2,0.3
		c-0.5,0.8-1.3,1.4-2.3,1.5c-0.5,0-0.9,0.4-0.9,0.9C285.5,466.2,285.7,466.5,286,466.6L286,466.6z"/>
	<path id="_Path_57" class="st2" d="M288.2,469.4c0.1,0,0.2,0.1,0.3,0.1c1.6-0.1,3.1-1,3.9-2.4c0.2-0.4,0.1-1-0.3-1.2
		s-1-0.1-1.2,0.3l0,0c-0.5,0.8-1.3,1.4-2.3,1.5c-0.5,0-0.9,0.4-0.9,0.9C287.6,468.9,287.8,469.3,288.2,469.4L288.2,469.4z"/>
</g>
<path id="_Path_58" class="st19" d="M339.5,238.3L339.5,238.3c-1.9-1.5-4.7-1.1-6.1,0.8c0,0,0,0,0,0l-24.8,32.2
	c-1.5,1.9-1.1,4.7,0.8,6.1c0,0,0,0,0,0l0,0c1.9,1.5,4.7,1.1,6.1-0.8c0,0,0,0,0,0l24.8-32.2C341.7,242.5,341.4,239.7,339.5,238.3
	C339.5,238.3,339.5,238.3,339.5,238.3z"/>
<path id="_Path_59" class="st29" d="M316.6,259l-8.9,11.5c-1.9,2.4-1.4,5.9,1,7.8l0,0c2.4,1.9,5.9,1.4,7.8-1c0,0,0,0,0,0l8.8-11.5
	L316.6,259z"/>
<path id="_Path_60" class="st21" d="M301.1,264.3c0,0,5.4,7,7.1,10.4c5.3-0.9,3.6-8.2,3.6-8.2L301.1,264.3z"/>
<path id="_Rectangle_24" class="st19" d="M308.5,262.9l-0.7,0.9c-1.8,2.5-5.4,3-7.8,1.2l-29.2-21.5c-2.5-1.8-3-5.4-1.2-7.8l0.7-0.9
	c1.8-2.5,5.4-3,7.8-1.2l29.2,21.5C309.8,256.9,310.3,260.4,308.5,262.9z"/>
<path id="_Path_61" class="st31" d="M275.3,249.3l10-11.7l-18.4-15.3c-2.6-2.2-7-1.4-9.7,1.9l0,0c-2.8,3.3-2.8,7.7-0.2,9.9
	L275.3,249.3z"/>
<path id="_Path_62" class="st21" d="M262.3,265.3c0,0,6.8,5.6,9.3,8.5c4.9-2.1,1.6-8.8,1.6-8.8L262.3,265.3z"/>
<path id="_Rectangle_25" class="st31" d="M260.9,235.9l-1.4,0.2c-3.8,0.6-7.4-2-8-5.8l-6.1-39.2c-0.6-3.8,2-7.4,5.8-8l1.4-0.2
	c3.8-0.6,7.4,2,8,5.8l6.1,39.2C267.3,231.7,264.7,235.3,260.9,235.9z"/>
<path id="_Path_63" class="st32" d="M208,180.4h40.1c7.9,0,14.3,5.3,14.3,11.8l-4,42l4,48.4h-68.7c0,0,4.3-37.9,4.3-50.5
	c0-10-4.3-39.9-4.3-39.9C193.7,185.7,200.1,180.4,208,180.4z"/>
<path id="_Path_64" class="st6" d="M248.7,183.6c0,8.9-8.5,16.1-19,16.1s-19-7.2-19-16.1c0-1.1,0.1-2.1,0.4-3.1h37.3
	C248.6,181.5,248.7,182.5,248.7,183.6z"/>
<path id="_Path_65" class="st19" d="M213.7,183.6c0,7.3,7.2,13.1,16,13.1s16-5.9,16-13.1c0-1.1-0.2-2.1-0.5-3.1h-31.1
	C213.9,181.5,213.7,182.5,213.7,183.6z"/>
<path id="_Rectangle_26" class="st19" d="M231.3,188.3h-3.2c-2,0-3.6-1.6-3.6-3.6v-18c0-2,1.6-3.6,3.6-3.6h3.2c2,0,3.6,1.6,3.6,3.6
	v18C234.9,186.7,233.3,188.3,231.3,188.3z"/>
<path id="_Path_66" class="st33" d="M251.8,118.5c0,0,6.7-1.4,6.7,12.2c-0.1,4.5-0.7,9-1.7,13.3l-10.1-11.8l-10.5-4.7l13.1-4.7
	L251.8,118.5z"/>
<path id="_Path_67" class="st19" d="M240.4,175.6c-16,0.9-24.5-11-27.1-25.7c-2.8-15.5,7.6-28.3,20.2-28.3
	c14.3,0,22.6,5.5,23.8,21.2C257.9,152.7,255,172.4,240.4,175.6L240.4,175.6z"/>
<g id="_Group_5">
	<line id="_Path_68" class="st22" x1="254.4" y1="143.8" x2="248.4" y2="143.5"/>
	<path id="_Path_69" class="st20" d="M254.6,144.8c0.6,0,1-0.5,1-1s-0.5-1-1-1l-6-0.3c-0.6,0-1,0.4-1.1,0.9s0.4,1,0.9,1.1l6,0.3
		H254.6z"/>
</g>
<g id="_Group_6">
	<line id="_Path_70" class="st22" x1="238.7" y1="143.5" x2="232.7" y2="143.8"/>
	<path id="_Path_71" class="st20" d="M238.8,142.5c0.6,0,1,0.5,1,1s-0.5,1-1,1l-6,0.3c-0.6,0-1-0.4-1.1-0.9s0.4-1,0.9-1.1l6-0.3
		H238.8z"/>
</g>
<circle id="_Path_72" cx="236.4" cy="150" r="1.4"/>
<circle id="_Path_73" cx="251" cy="150.5" r="1.4"/>
<polygon id="_Path_74" class="st21" points="243.8,148.1 243.6,159.9 246.2,159.3 "/>
<ellipse id="_Path_75" transform="matrix(0.4007 -0.9162 0.9162 0.4007 15.4028 265.1699)" class="st33" cx="210.4" cy="120.8" rx="10.5" ry="8.2"/>
<path id="_Path_76" class="st34" d="M216,151.7c0,0,7,1.3,6.1-6.2c3.8-0.6,22.4-8.5,30-26.9c-4.7-9.6-13.2-10.9-22.3-9.4
	c-13.5,2.3-27.9,12.5-19.9,38.7C210.4,150,214.1,150.2,216,151.7z"/>
<g id="_Group_7">
	<path id="_Path_77" class="st19" d="M218.1,145.2c-0.6-1.1-1.5-2.1-2.6-2.8c-4.1-2.8-8.9-0.5-7,4.3c1.3,3.4,3.4,11.8,6.1,8.8
		C216.9,152.6,218.2,148.9,218.1,145.2z"/>
	<polygon id="_Path_78" class="st21" points="215,145.7 209.6,144.8 213.7,152.1 212.3,146.1 	"/>
</g>
<circle id="_Path_79" class="st6" cx="213.6" cy="156.6" r="2.4"/>
<path id="_Path_80" class="st35" d="M236.1,165.8c1.8,0.7,3.7,1.1,5.6,1l0,0c1.9,0,3.8-0.3,5.6-1"/>
<path id="_Rectangle_27" class="st31" d="M218.7,244.2l-1.4,0.4c-3.7,1.1-7.6-0.9-8.7-4.6l-14.7-48c-1.1-3.7,0.9-7.6,4.6-8.7
	l1.4-0.4c3.7-1.1,7.6,0.9,8.7,4.6l14.7,48C224.4,239.1,222.4,243,218.7,244.2z"/>
<g id="_Clip_Group_">
	<path id="_Rectangle_28" class="st29" d="M317.6,354.8h-48.4l0,0v-67.2c0-10.3,8.4-18.7,18.7-18.7l0,0h10.3
		c10.7,0,19.3,8.7,19.3,19.3V354.8L317.6,354.8z"/>
	<g>
		<defs>
			<path id="SVGID_3_" d="M317.6,354.8h-48.4l0,0v-67.2c0-10.3,8.4-18.7,18.7-18.7l0,0h10.3c10.7,0,19.3,8.7,19.3,19.3V354.8
				L317.6,354.8z"/>
		</defs>
		<clipPath id="SVGID_4_">
			<use xlink:href="#SVGID_3_"  style="overflow:visible;"/>
		</clipPath>
		<g class="st36">
			<g id="_Group_8">
				<rect id="_Rectangle_29" x="269.2" y="348.3" class="st37" width="48.4" height="3.4"/>
				<rect id="_Rectangle_30" x="269.2" y="340.6" class="st37" width="48.4" height="3.4"/>
				<rect id="_Rectangle_31" x="269.2" y="332.8" class="st37" width="48.4" height="3.4"/>
				<rect id="_Rectangle_32" x="269.2" y="325.1" class="st37" width="48.4" height="3.4"/>
				<rect id="_Rectangle_33" x="269.2" y="317.4" class="st37" width="48.4" height="3.4"/>
				<rect id="_Rectangle_34" x="269.2" y="309.6" class="st37" width="48.4" height="3.4"/>
				<rect id="_Rectangle_35" x="269.2" y="301.9" class="st37" width="48.4" height="3.4"/>
				<rect id="_Rectangle_36" x="269.2" y="294.2" class="st37" width="48.4" height="3.4"/>
				<rect id="_Rectangle_37" x="269.2" y="286.4" class="st37" width="48.4" height="3.4"/>
				<rect id="_Rectangle_38" x="269.2" y="278.7" class="st37" width="48.4" height="3.4"/>
				<rect id="_Rectangle_39" x="269.2" y="270.9" class="st37" width="48.4" height="3.4"/>
			</g>
		</g>
	</g>
</g>
<path id="_Path_81" class="st19" d="M344.8,197.1L344.8,197.1c-2.4-0.4-4.6,1.2-5,3.6l-6.8,40.1c-0.4,2.4,1.2,4.6,3.6,5l0,0
	c2.4,0.4,4.6-1.2,5-3.6l6.8-40.1C348.7,199.7,347.1,197.5,344.8,197.1z"/>
<path id="_Path_82" class="st21" d="M348.3,201.6c1.3-2.5,2.7-4.9,4.3-7.2c-2-2.9-6,0.1-6,0.1L348.3,201.6z"/>
<path id="_Path_83" class="st19" d="M339.4,202.3l0.3-8.9c0,0,3.8-5.6,6.1-7c2.6-1.6,6.6-1.4,7.4-1.3c2,0.2-4.2,8.2-4.2,8.2
	l-0.7,8.8L339.4,202.3z"/>
<path id="_Path_84" class="st21" d="M319.4,294c1.6-2.2,3.1-4.6,4.4-7c3.5,0.5,2.5,5.3,2.5,5.3L319.4,294z"/>
<path id="_Path_85" class="st19" d="M322.7,302.1l7.7-4.2c0,0,3.3-5.9,3.4-8.5c0.2-3-1.7-6.4-2.1-7c-1.1-1.6-5.4,7.3-5.4,7.3
	l-7.4,4.5L322.7,302.1z"/>
<path id="_Path_86" class="st19" d="M325,296.2L325,296.2c-1-2.2-3.6-3.1-5.8-2.1c0,0,0,0,0,0l-36.8,17.4c-2.2,1-3.1,3.6-2.1,5.8
	l0,0c1,2.2,3.6,3.1,5.8,2.1c0,0,0,0,0,0l36.7-17.4C325,301,326,298.4,325,296.2z"/>
<path id="_Path_87" class="st19" d="M285.5,319L285.5,319c2.3-0.7,3.7-3.1,3-5.4l-10.9-39.1c-0.7-2.3-3.1-3.6-5.4-3l0,0
	c-2.3,0.7-3.7,3.1-3,5.4l10.9,39.1C280.8,318.3,283.2,319.6,285.5,319z"/>
<path id="_Path_88" class="st29" d="M282.6,288.2l-3.9-14c-0.8-2.9-3.9-4.7-6.8-3.9l0,0c-3,0.8-4.7,3.9-3.9,6.8c0,0,0,0,0,0l3.9,14
	L282.6,288.2z"/>
<path id="_Path_89" class="st19" d="M312,256.1l5.9,2.8c0,0,5.3,8.8,5.7,12.7c0.5,4.6-2.3,9.9-2.9,10.8c-1.6,2.5-8.6-10.9-8.6-10.9
	l-12.5-7L312,256.1z"/>
<path id="_Path_90" class="st19" d="M294.5,257h-0.1c1.9,0,3.5,1.6,3.5,3.5c0,0,0,0.1,0,0.1v7.6c0,2-1.5,2.6-3.5,2.6h0.1
	c-2,0-3.5-0.6-3.5-2.6v-7.6C291,258.6,292.6,257,294.5,257z"/>
<path id="_Path_93" class="st15" d="M308.4,262.3c-12.9,6.1-23.9-0.8-31-12c-7.5-11.8-3.3-25.9,7-30.1c11.8-4.9,20.5-3.1,26.8,9.4
	C315.1,237.5,319.3,254.8,308.4,262.3L308.4,262.3z"/>
<path id="_Path_94" class="st19" d="M308.4,261.6c-12.9,6.1-23.9-0.8-31-12c-7.5-11.8-3.3-25.9,7-30.1c11.8-4.9,20.5-3.1,26.8,9.4
	C315.1,236.8,319.3,254,308.4,261.6L308.4,261.6z"/>
<g id="_Group_10">
	<line id="_Path_95" class="st22" x1="296.6" y1="235.9" x2="291.8" y2="238.2"/>
	<path id="_Path_96" class="st20" d="M296.4,235.1c0.5-0.1,1,0.2,1.1,0.6c0.1,0.4-0.1,0.9-0.5,1l-4.8,2.3c-0.4,0.2-1,0-1.2-0.4
		c-0.2-0.4,0-1,0.4-1.2l4.8-2.3L296.4,235.1z"/>
</g>
<ellipse id="_Path_97" transform="matrix(0.9252 -0.3795 0.3795 0.9252 -69.0107 130.5837)" cx="296.8" cy="240.4" rx="1.2" ry="1.2"/>
<ellipse id="_Path_98" transform="matrix(0.9257 -0.3782 0.3782 0.9257 -66.516 134.9994)" cx="310.4" cy="236.8" rx="1.2" ry="1.2"/>
<polygon id="_Path_99" class="st21" points="302.3,237.9 306.1,247.6 308,246.3 "/>
<path id="_Path_100" class="st2" d="M308.3,254.3c2.8-1.1,4.6-3.6,3.9-5.4l-0.2-0.4l-10.7,4.4l0.2,0.4c0.6,1.6,3,2.6,6,1.3
	L308.3,254.3z"/>
<g id="_Group_11">
	<path id="_Path_101" class="st38" d="M271.3,234.6c0.1,3.8,2.1,8.7,3.5,11.7c0.5-0.9,1.4-1.6,2.4-1.8l0.5-0.1h0.9h0.3h0.3l0.3,0.1
		l0.3,0.1l0.3,0.1l0.5,0.2l0,0l0.1,0.1h0.1h0.1l0,0l0,0l0,0l0,0l2.3,5.7c0.2,0.7,0.7,1.3,1.4,1.7c0.1,0.1,0.2,0.1,0.4,0.2
		c0,0,0,0.1,0,0.1c0.7,0.1,1.3,0,1.9-0.3c1.6-0.6,2.4-2.3,1.9-3.9l-1.6-4c0.2-0.9,1.1-1.5,2.8-2.3c-0.9-2.3-1.7-4.1-2.2-5.3
		c-0.6-1.4-0.5-2.6,2.5-4.1h0.1l0.9-0.4h0.1c0.5-0.3,1.1-0.5,1.8-0.8l14.4-5.9l0.1-0.1c1.4-1.1,2.4-2.6,2.8-4.3
		c0.3-1.1,0.1-2.2-0.4-3.2l-4,1.6c0.6-1.4,0.8-2.8,0.6-4.3c-0.1-1.6-0.4-3.2-0.9-4.7l-6.6,2.7c0,0-8.6-2.1-15.6,1.5
		c-11.2,5.7-11.9,14.7-11.9,14.7c-1.8,0-3.7,0.4-5.4,1.2C268.4,232,269.5,232.4,271.3,234.6z"/>
	<path id="_Path_102" class="st39" d="M291.1,232.4c0.5-0.3,1.1-0.5,1.8-0.8l14.4-5.9l0.1-0.1c1.4-1.1,2.4-2.6,2.8-4.3
		c0.3-1.1,0.1-2.2-0.4-3.2c0,0-1.9,5.3-3.9,6.6l-0.2,0.1C303.8,226,294.3,230.8,291.1,232.4z"/>
	<g id="_Group_12">
		<path id="_Path_103" class="st19" d="M280.9,245.5c-0.9-0.7-2-1.2-3.1-1.4c-4.3-0.9-7.4,2.5-4.3,5.9c2.2,2.4,6.8,8.5,7.9,5.1
			C282.4,252,282.2,248.6,280.9,245.5z"/>
		<polygon id="_Path_104" class="st21" points="278.5,247 273.8,248 279.6,252.7 276.4,248.2 		"/>
	</g>
</g>
<path id="_Path_105" class="st39" d="M305.7,210.8c0,0-0.2,6.9-3.2,9.8c-2.5,2.5-17.3,9.1-17.3,9.1c1.7-0.1,3.4-0.4,5.1-0.8
	c1.4-0.4,14.8-5.4,15.6-9.1C306.8,216.8,306.8,213.7,305.7,210.8z"/>
<path id="_Rectangle_40" class="st19" d="M267.9,262l-1.6,3c-1.2,2.2-3.9,3-6.1,1.8l-33.8-18.4c-2.2-1.2-3-3.9-1.8-6.1l1.6-3
	c1.2-2.2,3.9-3,6.1-1.8l33.8,18.4C268.3,257.1,269.1,259.8,267.9,262z"/>
<g id="_Group_9">
	<line id="_Path_91" class="st22" x1="309.6" y1="230.9" x2="304.6" y2="232.7"/>
	<path id="_Path_92" class="st20" d="M310.1,231.6c0.4-0.3,0.5-0.8,0.3-1.2c-0.2-0.3-0.6-0.5-1-0.4l-5,1.8c-0.5,0.2-0.7,0.7-0.5,1.1
		c0.2,0.5,0.7,0.7,1.1,0.5l5-1.8L310.1,231.6z"/>
</g>
<path id="_Path_106" class="st31" d="M233.4,254.1l7-13.7l-21.4-10.6c-3.1-1.6-7.1,0.3-9,4.1l0,0c-1.9,3.8-1,8.1,2.1,9.7
	L233.4,254.1z"/>
<path id="_Path_107" class="st19" d="M262.1,253.7l13.1,2.6c0,0,7.2,7.3,8.5,11c1.5,4.3,0,10.1-0.3,11.2c-0.9,2.8-10.9-8.6-10.9-8.6
	l-10.8-2.3L262.1,253.7z"/>
<path id="_Rectangle_41" class="st6" d="M260.6,252.7l-5.1,11.3c-0.5,1.2-1.9,1.7-3.1,1.2l-1.6-0.7c-1.2-0.5-1.7-1.9-1.2-3.1
	l5.1-11.3c0.5-1.2,1.9-1.7,3.1-1.2l1.6,0.7C260.6,250.1,261.1,251.5,260.6,252.7z"/>
<path class="st40" d="M611.4,223.4c2.4,0.3,4.6,2.8,8.2,2.3c0.6-3.7-2-5.9-2.3-8.2c-0.3-3,1.5-5.4,2-8.8l-16.8,16.8
	C606,224.9,608.4,223.1,611.4,223.4L611.4,223.4z"/>
<path class="st41" d="M609.4,218.6l3.2-3.2c0.2-0.2,0.6-0.2,0.8,0l17.8,16.4c0.2,0.2,0.2,0.6,0,0.8l-4.6,4.6c-0.2,0.2-0.6,0.2-0.8,0
	l-16.4-17.8C609.2,219.2,609.2,218.8,609.4,218.6z"/>
<path class="st40" d="M609.4,218.6l3.2-3.2c0.2-0.2,0.6-0.2,0.8,0l0.1,0.1c0.5,1.7-0.4,3.5-2.1,4c-0.6,0.2-1.3,0.2-1.9,0l-0.1-0.1
	C609.2,219.1,609.2,218.8,609.4,218.6L609.4,218.6z"/>
<path class="st42" d="M619.5,209.5c0.4-1.5,0.6-3,0.5-4.6c-0.5-9.4-10.8-19.5-20-20.9c-10.7-1.4-20.5,6.2-21.9,16.9
	c-0.2,1.7-0.2,3.4,0,5c1.3,9.2,11.4,19.5,20.9,20c1.5,0.1,3.1-0.1,4.5-0.5L619.5,209.5L619.5,209.5z"/>
<path class="st43" d="M624.1,225.2l2.3,2.2c-0.8,0.1-1.6,0.1-2.3,0C623.9,226.7,623.9,225.9,624.1,225.2L624.1,225.2z"/>
<polygon class="st44" points="622.8,224.1 627.6,228.5 622.7,233.8 617.9,228.6 622.8,224.1 "/>
<path class="st45" d="M624.9,218.4c-0.3,2.4-2.8,4.6-2.3,8.2c3.7,0.6,5.9-2,8.2-2.3c3-0.3,5.4,1.5,8.8,2l-16.8-16.8
	C623.4,213,625.2,215.4,624.9,218.4L624.9,218.4z"/>
<path class="st46" d="M629.7,216.4l3.2,3.2c0.2,0.2,0.2,0.6,0,0.8l-16.4,17.8c-0.2,0.2-0.6,0.2-0.8,0l-4.6-4.6
	c-0.2-0.2-0.2-0.6,0-0.8c0,0,0,0,0,0l17.8-16.4C629.1,216.2,629.4,216.2,629.7,216.4L629.7,216.4z"/>
<path class="st45" d="M629.7,216.4l3.2,3.2c0.2,0.2,0.2,0.6,0,0.8l-0.1,0.1c-1.7,0.5-3.5-0.4-4-2.1c-0.2-0.6-0.2-1.3,0-1.9l0.1-0.1
	C629.1,216.2,629.5,216.2,629.7,216.4L629.7,216.4z"/>
<path class="st42" d="M638.8,226.5c1.5,0.4,3,0.6,4.5,0.5c9.4-0.5,19.5-10.8,20.9-20c1.4-10.7-6.2-20.5-16.9-21.9
	c-1.7-0.2-3.4-0.2-5,0c-9.2,1.4-19.5,11.4-20,20.9c-0.1,1.5,0.1,3.1,0.5,4.6L638.8,226.5L638.8,226.5z"/>
<path class="st40" d="M624.9,218.4c-0.3,2.4-2.8,4.6-2.3,8.2c3.7,0.6,5.9-2,8.2-2.3c3-0.3,5.4,1.5,8.8,2l-16.8-16.8
	C623.4,213,625.2,215.4,624.9,218.4L624.9,218.4z"/>
<path class="st41" d="M629.7,216.4l3.2,3.2c0.2,0.2,0.2,0.6,0,0.8l-16.4,17.8c-0.2,0.2-0.6,0.2-0.8,0l-4.6-4.6
	c-0.2-0.2-0.2-0.6,0-0.8c0,0,0,0,0,0l17.8-16.4C629.1,216.2,629.4,216.2,629.7,216.4L629.7,216.4z"/>
<path class="st40" d="M629.7,216.4l3.2,3.2c0.2,0.2,0.2,0.6,0,0.8l-0.1,0.1c-1.7,0.5-3.5-0.4-4-2.1c-0.2-0.6-0.2-1.3,0-1.9l0.1-0.1
	C629.1,216.2,629.5,216.2,629.7,216.4L629.7,216.4z"/>
<path class="st42" d="M638.8,226.5c1.5,0.4,3,0.6,4.5,0.5c9.4-0.5,19.5-10.8,20.9-20c1.4-10.7-6.2-20.5-16.9-21.9
	c-1.7-0.2-3.4-0.2-5,0c-9.2,1.4-19.5,11.4-20,20.9c-0.1,1.5,0.1,3.1,0.5,4.6L638.8,226.5L638.8,226.5z"/>
<path class="st47" d="M641,228.9c2.9,0,5.2,2.3,5.2,5.2c0,2.9-2.3,5.2-5.2,5.2c-2.9,0-5.2-2.3-5.2-5.2
	C635.8,231.2,638.1,228.9,641,228.9C641,228.9,641,228.9,641,228.9z"/>
<path class="st2" d="M639.7,228.6c2.9,0,5.2,2.3,5.2,5.2c0,2.9-2.3,5.2-5.2,5.2c-2.9,0-5.2-2.3-5.2-5.2
	C634.5,230.9,636.8,228.6,639.7,228.6C639.7,228.6,639.7,228.6,639.7,228.6z"/>
<ellipse transform="matrix(0.6686 -0.7436 0.7436 0.6686 163.4398 464.2773)" class="st48" cx="602.6" cy="48.8" rx="12.7" ry="12.7"/>
<path class="st2" d="M603,36c0.7,0,1.3,0.1,2,0.2c-1.3,3.5-3.7,5.3-6,7.1c-1.6,1.1-2.9,2.5-4,4.1c-1.8,3.2-0.7,7.2,2.5,9
	c2.2,1.3,5,1.1,7.1-0.4c1.5-1.3,2.7-2.8,3.7-4.5c1.5-2.4,3.1-5,6.5-6.7c0.2,0.7,0.3,1.3,0.4,2c-2.6,1.5-3.9,3.7-5.3,5.7
	c-1.1,1.9-2.5,3.6-4.2,5c-4,2.6-9.4,1.5-12-2.5c-1.7-2.6-1.9-5.9-0.5-8.7c1.2-1.8,2.7-3.4,4.5-4.7C599.8,40.3,601.9,38.7,603,36
	L603,36z"/>
<path class="st49" d="M676,217.2l4.3,2.7l-1.8,3l-4.3-2.7c-0.8-0.5-1.1-1.6-0.6-2.4l0,0C674.1,217,675.2,216.7,676,217.2L676,217.2z
	 M675.5,218.2l2.5,1.6l-0.7,1.1l-2.5-1.6c-0.3-0.2-0.4-0.6-0.2-0.9l0,0C674.8,218.1,675.2,218,675.5,218.2L675.5,218.2z"/>
<path class="st2" d="M676.5,216.4l4.3,2.7l-1.8,3l-4.3-2.7c-0.8-0.5-1.1-1.6-0.6-2.4l0,0C674.6,216.2,675.7,215.9,676.5,216.4
	L676.5,216.4z M676,217.4l2.5,1.6l-0.7,1.1l-2.5-1.6c-0.3-0.2-0.4-0.6-0.2-0.9l0,0C675.3,217.3,675.7,217.2,676,217.4L676,217.4z"/>
<path class="st2" d="M673.5,224l4.9-7.2c2.1-3.3,7-3,9.9-1.2l18.8,11.7l-4.2,7.5C693.3,235.7,683.6,222.7,673.5,224L673.5,224z"/>
<polygon class="st10" points="696.2,221.2 692.4,227.4 687.8,224.5 691.7,218.4 696.2,221.2 "/>
<path class="st50" d="M676.6,234.1c-3.8-2.3-5.3-6.7-3.4-9.7s6.3-4.3,10.4-1.7l19.3,12l-1.8,2.5l-10.5-5.4c-1.5-0.8-2.5-1.2-3.8,1
	C684.9,235.9,680.3,236.5,676.6,234.1L676.6,234.1z"/>
<path class="st51" d="M676.6,234.1c-3.8-2.3-5.3-6.7-3.4-9.7s6.3-4.3,10.4-1.7l19.3,12l-1.8,2.5l-10.5-5.4c-1.5-0.8-2.5-1.2-3.8,1
	C684.9,235.9,680.3,236.5,676.6,234.1L676.6,234.1z"/>
<ellipse transform="matrix(0.5273 -0.8497 0.8497 0.5273 126.955 685.8231)" class="st52" cx="679.8" cy="228.8" rx="4.9" ry="6.2"/>
</svg>
