<svg id="Layer_1" data-name="Layer 1" xmlns="http://www.w3.org/2000/svg" viewBox="0 0 708.66 481.89"><defs><style>.cls-1{fill:#302f2f;opacity:0.07;}.cls-2{fill:#8ba9cc;}.cls-3{fill:#648ec9;opacity:0.21;}.cls-4{fill:#ee6b33;}.cls-5{fill:#d8522a;}.cls-6{fill:#efeeed;}.cls-7{fill:#fab53c;}.cls-8{fill:#ea9d2d;}.cls-9{fill:#d3d3d3;}.cls-10{fill:#757575;}.cls-11,.cls-15,.cls-29,.cls-32{fill:none;}.cls-11{stroke:#f4f4f4;stroke-miterlimit:10;stroke-width:6px;}.cls-12{fill:#ad8a63;}.cls-13{fill:#7295af;}.cls-14{fill:#fdd8b8;}.cls-15{stroke:#d3d3d3;stroke-width:3px;}.cls-15,.cls-29,.cls-32{stroke-linecap:round;stroke-linejoin:round;}.cls-16{fill:#515180;}.cls-17{fill:#ee4256;}.cls-18,.cls-20{fill:#f8ab8d;}.cls-19{fill:#54402b;}.cls-20,.cls-22{fill-rule:evenodd;}.cls-21{fill:#8b6339;}.cls-22,.cls-26{fill:#dc846a;}.cls-23{fill:#6c4e38;}.cls-24{fill:#fec82b;}.cls-25{fill:#ffdc83;}.cls-27{fill:#fff;}.cls-28{fill:#de9a51;}.cls-29{stroke:#fff;}.cls-29,.cls-32{stroke-width:2px;}.cls-30{fill:#e8e8e8;}.cls-31{fill:#f4e8df;}.cls-32{stroke:#757575;}</style></defs><title>CS-L2-U3</title><path class="cls-1" d="M502,425.59c-5.51,0-10.84.23-15.88.66,2.19-1.43,3.39-3,3.39-4.58,0-7.44-25.51-13.46-57-13.46-24.29,0-45,3.59-53.21,8.65a49.89,49.89,0,0,0-18.23-3.17c-12.42,0-23,3.82-26.76,9.12-10,2.08-17,6.82-17,12.34,0,7.44,12.66,13.46,28.28,13.46,8.38,0,15.91-1.74,21.09-4.5A81.46,81.46,0,0,0,388,446.67q2.5,0,4.91-.12c0,.27,0,.53,0,.8,0,14.18,25.57,25.67,57.1,25.67,22,0,41.05-5.59,50.59-13.77H502c31.54,0,57.1-7.54,57.1-16.83S533.49,425.59,502,425.59Z"/><ellipse class="cls-2" cx="343.93" cy="432.68" rx="28.28" ry="13.46"/><ellipse class="cls-2" cx="430.85" cy="419.2" rx="56.97" ry="13.46"/><ellipse class="cls-2" cx="386.32" cy="434.31" rx="31.77" ry="9.88"/><ellipse class="cls-2" cx="359.41" cy="424.68" rx="28.28" ry="13.46"/><ellipse class="cls-2" cx="448.28" cy="444.88" rx="57.1" ry="25.67"/><ellipse class="cls-2" cx="500.31" cy="439.95" rx="57.1" ry="16.83"/><path class="cls-3" d="M540.34,347.54C540.34,241.2,454.14,155,347.8,155S155.25,241.2,155.25,347.54"/><path class="cls-1" d="M504.91,296.4h-9.09l-3.19-2.21h0l-4.38-3h0l-2.19-1.52,1.63-7.39,2.24-8.76-.28-.13,3.91-17.75,2.14-8.39-.27-.12L505.35,202l-8.41-3.92-28.21,36.67-.09,0L463.95,241l-14.43,18.76a42.64,42.64,0,0,0-40.6,3.35l-3-3-11.54,11.24,2.94,3a42.48,42.48,0,0,0-7.65,23.91,10.32,10.32,0,0,0-4.5,8.52V358.9h130V306.73A10.33,10.33,0,0,0,504.91,296.4Z"/><polygon class="cls-4" points="472.51 331.38 411.71 303.05 492.64 197.87 501.05 201.78 472.51 331.38"/><rect class="cls-5" x="402.69" y="311.92" width="77.28" height="10.28" transform="translate(175.18 -156.71) rotate(24.98)"/><polygon class="cls-6" points="457.5 243.61 488.56 258.08 491.38 247.02 464.33 234.49 457.5 243.61"/><polygon class="cls-6" points="440.56 265.69 482.55 285.26 485.61 273.29 448.08 255.78 440.56 265.69"/><polygon class="cls-6" points="423.59 287.81 476.54 312.47 479.55 300.67 430.91 278.1 423.59 287.81"/><path class="cls-7" d="M458.49,268.74a42.58,42.58,0,0,0-61,59.42"/><rect class="cls-8" x="381.21" y="294.67" width="93.76" height="7.77" rx="3.89" ry="3.89" transform="translate(-86.9 383.32) rotate(-44.24)"/><rect class="cls-7" x="390.27" y="264.46" width="16.11" height="6.99" transform="translate(-73.99 353.87) rotate(-44.24)"/><path class="cls-9" d="M493.24,330.56l8.93-12.93a11.57,11.57,0,0,0-2.94-16.1l-19.32-13.35a7.51,7.51,0,0,1-12.36-8.54l-19.32-13.35a11.57,11.57,0,0,0-16.1,2.94l-8.93,12.93Z"/><polygon class="cls-10" points="427.88 285.39 436.64 291.44 460.24 274.58 451.48 268.53 427.88 285.39"/><polygon class="cls-10" points="466.58 278.96 462.2 275.94 438.61 292.8 442.98 295.82 466.58 278.96"/><polygon class="cls-10" points="483.94 290.96 460.35 307.82 464.73 310.85 488.32 293.99 483.94 290.96"/><path class="cls-10" d="M467.3,287.78l-17.67,12.63,8.76,6.05L482,289.61l-2.06-1.42a7.51,7.51,0,0,1-12.62-.4Z"/><path class="cls-10" d="M425.92,284l23.59-16.86-1.28-.88a11.57,11.57,0,0,0-16.1,2.94l-8.93,12.93Z"/><path class="cls-10" d="M471.37,315.44l21.87,15.12,8.93-12.93a11.57,11.57,0,0,0-2.94-16.1l-4.28-3Z"/><path class="cls-11" d="M493.24,330.56l8.93-12.93a11.57,11.57,0,0,0-2.94-16.1l-19.32-13.35a7.51,7.51,0,0,1-12.36-8.54l-19.32-13.35a11.57,11.57,0,0,0-16.1,2.94l-8.93,12.93Z"/><path class="cls-12" d="M395.21,296.2H496.63a14.3,14.3,0,0,1,14.3,14.3v48.2a0,0,0,0,1,0,0h-130a0,0,0,0,1,0,0V310.5A14.3,14.3,0,0,1,395.21,296.2Z"/><ellipse class="cls-13" cx="388.52" cy="427.56" rx="21.07" ry="4"/><line id="_Path_" data-name="&lt;Path&gt;" class="cls-14" x1="246.39" y1="412.37" x2="277.64" y2="409.83"/><line class="cls-15" x1="321.02" y1="406.11" x2="345.02" y2="415.38"/><line class="cls-15" x1="327.44" y1="417.39" x2="350.25" y2="426.2"/><line class="cls-15" x1="312.32" y1="411.55" x2="320.94" y2="414.88"/><path class="cls-1" d="M415.27,395.91l-1.08-1.46-.69-.92a4.58,4.58,0,0,0-5.4-1.51L379,403.77a9,9,0,0,0-1.1.55l-3.77-13.91,3.22-.87L348.21,281.82a12.12,12.12,0,0,0-2.69-4.93c-.07-.11-.13-.23-.2-.34l-41.48-62.28a12.75,12.75,0,0,0-.31-3.37l-.16-.67,4.18-.93-17.46-56.2-4.35-34.87,38.74,16.69a9.31,9.31,0,0,0,8.14-.37,8.68,8.68,0,0,0,2.09-1.37L376.13,96v0l1.39-1.28,3-2.69,0,0,.4-.36-1.4-1.52,1.2-1,3.08,7.33L399,92l-1.54-8.31a16.51,16.51,0,0,0,1.38-4.84c.12-.83-.76-2-2.85-3.09l-2.16-11.66.06,0a1.16,1.16,0,0,0,.78-1.44l-.23-.79A1.16,1.16,0,0,0,393,61l-21.64,6.41a1.16,1.16,0,0,0-.78,1.44l.23.79a1.16,1.16,0,0,0,1.44.78l.52-.15,2.9,6.91,0,0,.23.55-5.17,2.8L369.28,79l-.16.15-.09-.1-41.19,37L278.67,94.84a18.71,18.71,0,0,0-15-2.7l-2.86.64-.18-.19L248,95.41l-1.28-5.75a33.59,33.59,0,0,0,6.55-1.17c16.41-7.62,14.73-31.75,11.26-43.21-.06-.2-.13-.39-.19-.59a70.67,70.67,0,0,0-1.48-14.11c-3.29-14.79-9.93-13.14-11-12.77-8.11-9.89-18.33-9.2-28.69-5a37.67,37.67,0,0,0-13,8.6A8.25,8.25,0,0,0,205.81,19C200.42,18,195,22.71,193.6,29.61S195.53,43,200.92,44a7.88,7.88,0,0,0,1.86.13,47.22,47.22,0,0,0,4.14,14.1,5.42,5.42,0,0,0,1,4.46c1.49,2.3,3.92,6.81,6.09,8.84a3,3,0,1,0,5.19,2.81c3.75,5.74,8.47,10.31,14.13,12.94l2.41,10.86L228,99.87h0l-4.36,1,0,.23-.09,0h0l-7.24,1.61a20.14,20.14,0,0,0-8.16,3.85,9.33,9.33,0,0,0-9.4,3.19l-37.3,45.9c-.14.17-.27.36-.39.54a10,10,0,0,0-2.57,5.91l-4.84,64.32h0l-.14,2.18-.35,4.66h.05l0,.62.48,0,1.41,5.8-17,4.23a7,7,0,0,0-5.11,8.48l8.9,35.8a7,7,0,0,0,8.48,5.11l53.17-13.21a7,7,0,0,0,5.11-8.48l-1.3-5.24h0L201.65,244l-2-8.19a7,7,0,0,0-8.48-5.11l-21.73,5.4-.36-1.23,3.94.25,0-.26h.16l5.32-70.67,27.59-33.94c4,11.06,10.2,28.46,11.92,36.2,3.32,14.94,8.21,60.91,8.21,60.91l4.58-1,.3,1.25a12.76,12.76,0,0,0,1.21,3.17L199.92,306a11.65,11.65,0,0,0,3,13.32l66.95,88.24,2.41-1.83,2.88,3.8-.15.05-28.85,12.29a4.58,4.58,0,0,0-2.74,4.89l.17,1.14.27,1.8a1.75,1.75,0,0,0,2,1.48L297,423.51a3.48,3.48,0,0,0,2.93-4v-.09l-1.7-11.4a1.75,1.75,0,0,0-2.09-1.46,9.44,9.44,0,0,0-1.31-2.39l-7.54-9.94,1.88-1.43a.11.11,0,0,0,0-.15l-63.85-84.15L256,237.42a12.2,12.2,0,0,0,.79-2.62L284,228.51l41,61.55c.08.12.17.22.25.33l28.57,105.42a.11.11,0,0,0,.13.08l2-.53,5.31,19.59.46,1.68c0,.09.06.17.08.26a1.75,1.75,0,0,0-.22,2.32l6.88,9.25.05.07a3.48,3.48,0,0,0,4.87.72l41.53-30.88A1.75,1.75,0,0,0,415.27,395.91Z"/><path id="_Rectangle_" data-name="&lt;Rectangle&gt;" class="cls-16" d="M225.87,216.14H227a11.65,11.65,0,0,1,11.65,11.65v85.13a12.19,12.19,0,0,1-12.19,12.19h0a12.19,12.19,0,0,1-12.19-12.19V227.78a11.65,11.65,0,0,1,11.65-11.65Z" transform="translate(327.28 608.73) rotate(-156.7)"/><path id="_Rectangle_2" data-name="&lt;Rectangle&gt;" class="cls-16" d="M309.24,192.34h1.08A11.65,11.65,0,0,1,322,204v85.13a12.19,12.19,0,0,1-12.19,12.19h0a12.19,12.19,0,0,1-12.19-12.19V204a11.65,11.65,0,0,1,11.65-11.65Z" transform="translate(704.43 280.56) rotate(146.34)"/><path id="_Path_2" data-name="&lt;Path&gt;" class="cls-17" d="M349.2,339.63h0a9.44,9.44,0,0,1,11.59,6.64l17.5,64.59a9.44,9.44,0,0,1-6.64,11.59h0a9.44,9.44,0,0,1-11.59-6.64l-.46-1.68-17-62.91A9.44,9.44,0,0,1,349.2,339.63Z"/><path id="_Path_3" data-name="&lt;Path&gt;" class="cls-16" d="M366.81,427.63l.05.07a3.48,3.48,0,0,0,4.87.72l41.53-30.88a1.75,1.75,0,0,0,.36-2.45l-1.08-1.46Z"/><path id="_Path_4" data-name="&lt;Path&gt;" class="cls-14" d="M359.93,418.38l6.88,9.25,45.73-34-.69-.93a4.58,4.58,0,0,0-5.39-1.51l-29.06,11.76a8.46,8.46,0,0,0-3.42,2.52c-5.25,6.52-10.38,9.17-13.24,10.22A1.75,1.75,0,0,0,359.93,418.38Z"/><path id="_Rectangle_3" data-name="&lt;Rectangle&gt;" class="cls-16" d="M335.61,270.27h24.27a.11.11,0,0,1,.11.11V381.87a12.19,12.19,0,0,1-12.19,12.19h0a12.19,12.19,0,0,1-12.19-12.19V270.27a0,0,0,0,1,0,0Z" transform="translate(770.37 561.78) rotate(164.84)"/><path id="_Path_5" data-name="&lt;Path&gt;" class="cls-16" d="M298.29,418.64v.09a3.48,3.48,0,0,1-2.93,4l-51.19,7.62a1.75,1.75,0,0,1-2-1.48l-.27-1.8Z"/><path id="_Path_6" data-name="&lt;Path&gt;" class="cls-17" d="M239.5,348.26h0a9.44,9.44,0,0,1,13.23,1.82l40.45,53.31a9.44,9.44,0,0,1-1.82,13.23h0a9.44,9.44,0,0,1-13.23-1.82l-1.05-1.39L237.69,361.5A9.44,9.44,0,0,1,239.5,348.26Z"/><path id="_Rectangle_4" data-name="&lt;Rectangle&gt;" class="cls-16" d="M240.49,288.12h0a12.19,12.19,0,0,1,12.19,12.19V411.81a.11.11,0,0,1-.11.11H228.3a0,0,0,0,1,0,0V300.31A12.19,12.19,0,0,1,240.49,288.12Z" transform="translate(-162.66 216.53) rotate(-37.19)"/><path id="_Path_7" data-name="&lt;Path&gt;" class="cls-14" d="M296.59,407.24l1.7,11.4L241.92,427l-.17-1.14a4.58,4.58,0,0,1,2.74-4.89l28.85-12.29a8.46,8.46,0,0,1,4.2-.65c8.32.89,13.82-.88,16.58-2.17A1.75,1.75,0,0,1,296.59,407.24Z"/><path id="_Path_8" data-name="&lt;Path&gt;" class="cls-16" d="M296.27,186.88,223.83,203.6l5.61,23.2a12.77,12.77,0,0,0,15.32,9.57l47.56-11a12.77,12.77,0,0,0,9.57-15.32Z"/><rect id="_Rectangle_5" data-name="&lt;Rectangle&gt;" class="cls-18" x="232.7" y="75.25" width="12.59" height="30.55" rx="6.29" ry="6.29" transform="translate(491.94 127.02) rotate(167.46)"/><rect id="_Rectangle_6" data-name="&lt;Rectangle&gt;" class="cls-16" x="290.04" y="74.91" width="18.68" height="77.82" rx="9.34" ry="9.34" transform="translate(522.35 -116.11) rotate(113.3)"/><path id="_Path_9" data-name="&lt;Path&gt;" class="cls-17" d="M214.62,101.87l47.45-10.55c9.36-2.08,18.34,2.48,20.05,10.18l6.33,50.77,17.46,56.2-81.35,18.09s-4.88-46-8.21-60.91c-2.62-11.8-15.58-46.07-15.58-46.07C199.06,111.89,205.26,104,214.62,101.87Z"/><path id="_Path_10" data-name="&lt;Path&gt;" class="cls-19" d="M250.08,17s7.55-3.37,11.13,12.72A72,72,0,0,1,262.67,46l-15.1-11.25L233.9,31.95l14.28-9.06Z"/><path id="_Path_11" data-name="&lt;Path&gt;" class="cls-20" d="M251.61,87.67c-18.72,5.23-31.9-6.53-38.87-23.23-7.33-17.59,1.56-35.47,16.4-38.82,16.89-3.81,28.21.58,33.73,18.83C266.34,55.92,268,80,251.61,87.67Z"/><g id="_Group_" data-name="&lt;Group&gt;"><line id="_Path_12" data-name="&lt;Path&gt;" class="cls-21" x1="259.54" y1="45.18" x2="252.22" y2="45.19"/><path id="_Path_13" data-name="&lt;Path&gt;" class="cls-21" d="M259.77,46.38a1.22,1.22,0,0,0-.23-2.42h-7.31a1.22,1.22,0,0,0,0,2.44h7.31Z"/></g><g id="_Group_2" data-name="&lt;Group&gt;"><line id="_Path_14" data-name="&lt;Path&gt;" class="cls-21" x1="239.59" y1="48.04" x2="233.74" y2="52.42"/><path id="_Path_15" data-name="&lt;Path&gt;" class="cls-21" d="M239.06,46.94A1.22,1.22,0,0,1,240.32,49l-5.85,4.39a1.22,1.22,0,1,1-1.46-2l5.85-4.39Z"/></g><circle id="_Path_16" data-name="&lt;Path&gt;" cx="241.34" cy="55.93" r="1.65" transform="translate(-6.39 53.72) rotate(-12.54)"/><circle id="_Path_17" data-name="&lt;Path&gt;" cx="257.47" cy="52.34" r="1.65" transform="translate(-5.22 57.13) rotate(-12.54)"/><polygon id="_Path_18" data-name="&lt;Path&gt;" class="cls-22" points="248.43 54.16 251.33 68.2 254.18 66.85 248.43 54.16"/><ellipse id="_Path_19" data-name="&lt;Path&gt;" class="cls-19" cx="201.72" cy="30.7" rx="12.73" ry="9.95" transform="translate(132.81 222.75) rotate(-78.91)"/><path id="_Path_20" data-name="&lt;Path&gt;" class="cls-23" d="M216.45,65.81s8.68-.3,5.57-8.95c4.36-1.71,24.32-15.93,28.38-39.66C242.27,7.08,232,7.75,221.54,12c-15.42,6.26-29.74,22.1-13.4,51.07C209.35,65.22,213.8,64.55,216.45,65.81Z"/><g id="_Group_3" data-name="&lt;Group&gt;"><path id="_Path_21" data-name="&lt;Path&gt;" class="cls-20" d="M217.27,57.48a9.2,9.2,0,0,0-3.85-2.57c-5.59-2.28-10.62,1.69-7.19,7,2.39,3.68,7.16,13,9.5,8.77C217.52,67.38,218.32,62.81,217.27,57.48Z"/><polygon id="_Path_22" data-name="&lt;Path&gt;" class="cls-22" points="213.68 58.9 207.08 59.24 213.81 66.9 210.6 60.07 213.68 58.9"/></g><circle id="_Path_23" data-name="&lt;Path&gt;" class="cls-24" cx="214.9" cy="72.15" r="2.96" transform="translate(-10.54 48.36) rotate(-12.54)"/><path id="_Path_24" data-name="&lt;Path&gt;" class="cls-18" d="M222.14,104.11c1.91,8.59,11.94,13.66,22.4,11.33s17.4-11.17,15.49-19.76a13.09,13.09,0,0,0-1.38-3.61l-36.78,8.18A13.09,13.09,0,0,0,222.14,104.11Z"/><path id="_Path_25" data-name="&lt;Path&gt;" class="cls-18" d="M363.94,82.56,375.7,76.2s10.82-4.21,14.93-2.85c4.78,1.58,6.76,3.44,6.58,4.65-2.15,14.46-12.95,6-12.95,6l-11.2,9.34Z"/><path id="_Path_26" data-name="&lt;Path&gt;" class="cls-16" d="M378.89,91.25l-11.51-13-45.81,41.1a8.69,8.69,0,0,0-.75,12.26h0a8.69,8.69,0,0,0,12.26.75Z"/><polygon id="_Path_27" data-name="&lt;Path&gt;" class="cls-16" points="221.97 100.01 221.31 108.92 229.7 114.25 228.01 120.3 267.69 156.08 270.15 110.81 265.17 106.08 266.13 98.95 259.02 91.77 221.97 100.01"/><polygon id="_Path_28" data-name="&lt;Path&gt;" class="cls-25" points="255.67 92.52 261.23 142.72 226.32 99.04 255.67 92.52"/><rect id="_Rectangle_7" data-name="&lt;Rectangle&gt;" class="cls-16" x="176.32" y="98.84" width="18.68" height="77.82" rx="9.34" ry="9.34" transform="translate(242.85 361.74) rotate(-140.9)"/><ellipse class="cls-26" cx="251.06" cy="75" rx="5.63" ry="4.26" transform="translate(-7.61 33.2) rotate(-7.45)"/><polygon class="cls-25" points="385.14 102.05 405.55 96 398.33 57.03 369.79 65.48 385.14 102.05"/><path class="cls-27" d="M379.25,71.58a7.53,7.53,0,0,0-5,4.71l3.93,9.36a7.54,7.54,0,1,0,1-14.07Z"/><rect class="cls-28" x="366.95" y="58.79" width="33.34" height="4.21" rx="1.41" ry="1.41" transform="translate(-1.5 111.46) rotate(-16.5)"/><path id="_Path_29" data-name="&lt;Path&gt;" class="cls-18" d="M372.54,89.35S380,83.1,383.62,81c-1.27-5.73-9.14-3.54-9.14-3.54Z"/><rect id="_Rectangle_8" data-name="&lt;Rectangle&gt;" class="cls-17" x="362.47" y="83.48" width="17.19" height="6.45" transform="translate(184.08 -245.33) rotate(47.46)"/><path class="cls-29" d="M376,42.84C376,44,375,44,375,45.18s.94,1.17.95,2.34-.93,1.18-.93,2.35S376,51,376,52.22s-.93,1.18-.93,2.35"/><path class="cls-29" d="M382.7,35.24c0,1.17-.93,1.18-.93,2.35s.94,1.17.95,2.34-.93,1.18-.93,2.35.94,1.17.95,2.35-.93,1.18-.93,2.35"/><rect class="cls-12" x="134.65" y="235.75" width="68.79" height="50.89" rx="8.5" ry="8.5" transform="translate(-58 48.48) rotate(-13.96)"/><rect class="cls-30" x="196.31" y="241.58" width="6.32" height="25.12" transform="translate(-55.4 55.61) rotate(-13.96)"/><path id="_Path_30" data-name="&lt;Path&gt;" class="cls-18" d="M151.69,232.1l3.46,14.27s7.61,8.15,11.7,9.57c4.76,1.65,9.16,3,10.32,2.57,3.11-1-7.06-15.15-7.06-15.15l-4.09-14Z"/><path id="_Path_31" data-name="&lt;Path&gt;" class="cls-16" d="M151.44,232.42l20.08,1.66,5.36-71.16A10.07,10.07,0,0,0,167.66,152h0a10.07,10.07,0,0,0-10.87,9.21Z"/><rect id="_Rectangle_9" data-name="&lt;Rectangle&gt;" class="cls-17" x="151.67" y="226.21" width="19.93" height="7.48" transform="translate(308.24 469.76) rotate(-176.34)"/><rect class="cls-31" x="415.23" y="310.03" width="59.19" height="29.31"/><line class="cls-32" x1="421.95" y1="317.06" x2="468.36" y2="317.06"/><line class="cls-32" x1="421.95" y1="323.53" x2="468.36" y2="323.53"/><line class="cls-32" x1="421.95" y1="329.99" x2="456.38" y2="329.99"/></svg>