<svg id="Layer_1" data-name="Layer 1" xmlns="http://www.w3.org/2000/svg" xmlns:xlink="http://www.w3.org/1999/xlink" viewBox="0 0 708.66 481.89"><defs><style>.cls-1{fill:#fec82b;}.cls-2{mask:url(#mask);}.cls-3{fill:#fff;}.cls-4{mask:url(#mask-2);}.cls-5{fill:#e5957c;}.cls-6{fill:#e7685d;}.cls-7{fill:#aecded;}.cls-8{fill:#ee4256;}.cls-9{fill:#fdd8b8;}.cls-10{fill:#4d4e4e;}.cls-11,.cls-15{opacity:0.07;}.cls-12,.cls-15{fill:#151616;}.cls-13{fill:#49a579;}.cls-14{fill:#80b9e0;}.cls-16{fill:#a1d2f7;}.cls-17,.cls-22{fill:#f8ab8d;}.cls-18{fill:#3f5aa8;}.cls-19{fill:#c2dbf2;}.cls-20,.cls-25{fill:#dc846a;}.cls-21{fill:#54402b;}.cls-22,.cls-25{fill-rule:evenodd;}.cls-23{opacity:0.35;}.cls-24{fill:#caeae8;}.cls-26{fill:#6c4e38;}.cls-27{fill:#66362b;}.cls-28{fill:#824737;}.cls-29{fill:#b9e4fc;}.cls-30{fill:#e1f1f9;}.cls-31{filter:url(#luminosity-noclip-2);}.cls-32{filter:url(#luminosity-noclip);}</style><filter id="luminosity-noclip" x="304.74" y="-8710.71" width="149.03" height="32766" filterUnits="userSpaceOnUse" color-interpolation-filters="sRGB"><feFlood flood-color="#fff" result="bg"/><feBlend in="SourceGraphic" in2="bg"/></filter><mask id="mask" x="304.74" y="-8710.71" width="149.03" height="32766" maskUnits="userSpaceOnUse"><g class="cls-32"/></mask><filter id="luminosity-noclip-2" x="395.38" y="-8710.71" width="149.03" height="32766" filterUnits="userSpaceOnUse" color-interpolation-filters="sRGB"><feFlood flood-color="#fff" result="bg"/><feBlend in="SourceGraphic" in2="bg"/></filter><mask id="mask-2" x="395.38" y="-8710.71" width="149.03" height="32766" maskUnits="userSpaceOnUse"><g class="cls-31"/></mask></defs><title>CS-L2-U5</title><circle class="cls-1" cx="436.34" cy="106.24" r="94.54"/><g class="cls-2"><path class="cls-3" d="M428.31,59a28.34,28.34,0,0,0-6.16.69A32.63,32.63,0,0,0,377.21,51,39.68,39.68,0,0,0,344.67,34c-22.05,0-39.93,18.17-39.93,40.57,0,0,0,0,0,.06h149A28.72,28.72,0,0,0,428.31,59Z"/></g><g class="cls-4"><path class="cls-3" d="M518.95,164a28.34,28.34,0,0,0-6.16.69A32.63,32.63,0,0,0,467.85,156a39.68,39.68,0,0,0-32.54-17.08c-22.05,0-39.93,18.17-39.93,40.57,0,0,0,0,0,.06h149A28.72,28.72,0,0,0,518.95,164Z"/></g><polygon class="cls-5" points="208.27 83.77 208.83 84.26 208.58 84.59 208.27 83.77"/><rect id="_Rectangle_" data-name="&lt;Rectangle&gt;" class="cls-6" x="234.1" y="55.73" width="14.18" height="58.79" rx="7.09" ry="7.09" transform="translate(243.22 -170.64) rotate(71.02)"/><rect id="_Rectangle_2" data-name="&lt;Rectangle&gt;" class="cls-6" x="294.97" y="51.5" width="14.18" height="58.79" rx="7.09" ry="7.09" transform="translate(247.74 -227.05) rotate(65)"/><rect class="cls-1" x="252.62" y="147.72" width="19.55" height="304.17"/><polygon class="cls-1" points="239.76 149.44 285.37 149.44 262.39 112.23 239.76 149.44"/><path class="cls-7" d="M258.58,159.24h49.8a0,0,0,0,1,0,0v5.4a11.77,11.77,0,0,1-11.77,11.77H270.35a11.77,11.77,0,0,1-11.77-11.77v-5.4A0,0,0,0,1,258.58,159.24Z"/><path id="_Path_" data-name="&lt;Path&gt;" class="cls-7" d="M290.34,158.39l12.58,68.17a8.8,8.8,0,0,0,10.25,7.06l.77-.14A8.8,8.8,0,0,0,321,223.23l-12.58-68.17"/><path id="_Path_2" data-name="&lt;Path&gt;" class="cls-8" d="M310.06,261.54h0a7.12,7.12,0,0,1,6.6,7.61L313.1,319.5a7.12,7.12,0,0,1-7.61,6.6h0a7.12,7.12,0,0,1-6.6-7.61l.09-1.31,3.47-49A7.12,7.12,0,0,1,310.06,261.54Z"/><path id="_Rectangle_3" data-name="&lt;Rectangle&gt;" class="cls-7" d="M300.62,218.55H319a0,0,0,0,1,0,0v85.29a9.2,9.2,0,0,1-9.2,9.2h0a9.2,9.2,0,0,1-9.2-9.2V218.55a0,0,0,0,1,0,0Z" transform="translate(600.09 552.81) rotate(-175.95)"/><path id="_Path_3" data-name="&lt;Path&gt;" class="cls-9" d="M297.53,315.56l-3.18,8.1,40,15.7.32-.81a3.45,3.45,0,0,0-1.18-4.06l-19.13-13.91a6.38,6.38,0,0,0-3-1.19c-6.27-.76-10-3-11.82-4.4A1.32,1.32,0,0,0,297.53,315.56Z"/><path id="_Path_4" data-name="&lt;Path&gt;" class="cls-10" d="M294.35,323.66l0,.06a2.62,2.62,0,0,0,1.48,3.4l36.34,14.26a1.32,1.32,0,0,0,1.71-.75l.5-1.28Z"/><path id="_Path_5" data-name="&lt;Path&gt;" class="cls-7" d="M279,166.42l-15.27,37.12a8.8,8.8,0,0,1-11.54,4.67l-.72-.31a8.8,8.8,0,0,1-4.67-11.54l15.27-37.12"/><path id="_Path_6" data-name="&lt;Path&gt;" class="cls-8" d="M260.49,232.35h0a7.12,7.12,0,0,0-6,8.11L262,290.37a7.12,7.12,0,0,0,8.11,6h0a7.12,7.12,0,0,0,6-8.11l-.2-1.3-7.35-48.61A7.12,7.12,0,0,0,260.49,232.35Z"/><path id="_Rectangle_4" data-name="&lt;Rectangle&gt;" class="cls-7" d="M261.06,189.33h0a9.2,9.2,0,0,1,9.2,9.2v85.29a0,0,0,0,1,0,0H251.87a0,0,0,0,1,0,0V198.52A9.2,9.2,0,0,1,261.06,189.33Z" transform="translate(-32.42 41.66) rotate(-8.59)"/><path id="_Path_7" data-name="&lt;Path&gt;" class="cls-9" d="M277.24,289.65l-.37,8.69-43-1.83,0-.87a3.45,3.45,0,0,1,2.72-3.23l23.12-5a6.38,6.38,0,0,1,3.21.12c6,1.84,10.36,1.33,12.59.76A1.32,1.32,0,0,1,277.24,289.65Z"/><path id="_Path_8" data-name="&lt;Path&gt;" class="cls-10" d="M276.86,298.34v.07a2.62,2.62,0,0,1-2.73,2.51l-39-1.67a1.32,1.32,0,0,1-1.26-1.38l.06-1.37Z"/><g class="cls-11"><rect class="cls-12" x="259.65" y="297.15" width="19.95" height="116.5"/><rect class="cls-12" x="204.99" y="297.15" width="74.61" height="22.9"/><rect class="cls-12" x="204.99" y="109.15" width="21.05" height="210.9"/><polygon class="cls-12" points="191.04 111.16 240.16 111.16 215.42 71.09 191.04 111.16"/></g><rect class="cls-13" x="262.57" y="294.24" width="19.95" height="116.5"/><rect class="cls-13" x="207.9" y="294.24" width="74.61" height="22.9"/><rect class="cls-13" x="207.9" y="106.24" width="21.05" height="210.9"/><polygon class="cls-13" points="193.95 108.25 243.07 108.25 218.33 68.18 193.95 108.25"/><g class="cls-11"><rect class="cls-12" x="394.45" y="133.4" width="18.84" height="320.6"/><polygon class="cls-12" points="382.05 135.05 426.01 135.05 403.87 99.19 382.05 135.05"/></g><rect class="cls-13" x="392.12" y="131.65" width="18.84" height="320.6"/><polygon class="cls-13" points="379.73 133.3 423.69 133.3 401.54 97.44 379.73 133.3"/><g class="cls-11"><rect class="cls-12" x="422.5" y="273.82" width="41.23" height="180.4"/><polygon class="cls-12" points="395.38 277.44 491.58 277.44 443.12 198.96 395.38 277.44"/></g><rect class="cls-14" x="419.59" y="271.49" width="41.23" height="180.4"/><polygon class="cls-14" points="392.46 275.11 488.67 275.11 440.2 196.63 392.46 275.11"/><path class="cls-15" d="M473.88,430.56a66.8,66.8,0,0,0-14.52,1.62,76.9,76.9,0,0,0-105.93-20.36,93.53,93.53,0,0,0-76.7-40.25c-52,0-94.12,42.81-94.12,95.63,0,0,0,.1,0,.14H533.88A67.68,67.68,0,0,0,473.88,430.56Z"/><path class="cls-16" d="M472.72,433.1a66.8,66.8,0,0,0-14.52,1.62,76.9,76.9,0,0,0-105.93-20.36,93.53,93.53,0,0,0-76.7-40.25c-52,0-94.12,42.81-94.12,95.63,0,0,0,.1,0,.14H532.71A67.68,67.68,0,0,0,472.72,433.1Z"/><path id="_Path_9" data-name="&lt;Path&gt;" class="cls-6" d="M300.46,70.77h-33.1a11.82,11.82,0,0,0-11.82,11.82v84.8h56.74s-3.55-32.16-3.55-44.82c0-10,3.55-40,3.55-40A11.82,11.82,0,0,0,300.46,70.77Z"/><path id="_Path_10" data-name="&lt;Path&gt;" class="cls-8" d="M266.91,73.37c0,7.34,7,13.31,15.68,13.31s15.67-6,15.67-13.31a11.43,11.43,0,0,0-.3-2.6H267.21A11.43,11.43,0,0,0,266.91,73.37Z"/><path id="_Path_11" data-name="&lt;Path&gt;" class="cls-17" d="M295.8,73.37c0,6-5.92,10.84-13.21,10.84s-13.21-4.85-13.21-10.84a8.91,8.91,0,0,1,.38-2.6h25.66A8.91,8.91,0,0,1,295.8,73.37Z"/><polygon id="_Path_12" data-name="&lt;Path&gt;" class="cls-18" points="299.32 70.77 301.37 77.57 295.77 83.15 298.13 87.56 273.52 122.16 263.8 87.46 266.85 82.93 264.87 77.57 269.15 70.77 299.32 70.77"/><polygon id="_Path_13" data-name="&lt;Path&gt;" class="cls-19" points="272.61 70.72 276.55 106.81 294.22 70.72 272.61 70.72"/><rect id="_Rectangle_5" data-name="&lt;Rectangle&gt;" class="cls-17" x="278.3" y="58.62" width="8.57" height="16.55" rx="4.29" ry="4.29"/><path id="_Path_14" data-name="&lt;Path&gt;" class="cls-20" d="M288.87,63.83a84.57,84.57,0,0,1-3.19-9c-4-.36-4.21,5.26-4.21,5.26Z"/><path id="_Path_15" data-name="&lt;Path&gt;" class="cls-21" d="M271.4,19.36s-5.46-1.38-6,9.82a49,49,0,0,0,.91,11.06l8.82-9.3L284,27.48l-10.64-4.42Z"/><path id="_Path_16" data-name="&lt;Path&gt;" class="cls-22" d="M278.2,67c13.16,1.33,20.64-8.08,23.37-20.1,2.88-12.65-5.17-23.61-15.51-24.13-11.77-.6-18.86,3.67-20.44,16.55-1,8.09.68,24.47,12.58,27.68Z"/><g id="_Group_" data-name="&lt;Group&gt;" class="cls-23"><line id="_Path_17" data-name="&lt;Path&gt;" class="cls-24" x1="267.85" y1="40.24" x2="272.83" y2="40.22"/><path id="_Path_18" data-name="&lt;Path&gt;" d="M267.7,41.06a.83.83,0,0,1,.15-1.65l5,0a.83.83,0,0,1,0,1.66l-5,0Z"/></g><g id="_Group_2" data-name="&lt;Group&gt;" class="cls-23"><line id="_Path_19" data-name="&lt;Path&gt;" class="cls-24" x1="280.84" y1="40.6" x2="285.8" y2="41.09"/><path id="_Path_20" data-name="&lt;Path&gt;" d="M280.76,39.78a.83.83,0,0,0,0,1.65l5,.49a.83.83,0,1,0,.16-1.65l-5-.49Z"/></g><circle id="_Path_21" data-name="&lt;Path&gt;" cx="282.45" cy="46.05" r="1.12" transform="translate(223.09 326.01) rotate(-87.29)"/><circle id="_Path_22" data-name="&lt;Path&gt;" cx="270.46" cy="45.87" r="1.12" transform="translate(211.85 313.86) rotate(-87.29)"/><polygon id="_Path_23" data-name="&lt;Path&gt;" class="cls-25" points="278.55 43.66 278.24 53.41 276.17 52.84 278.55 43.66"/><ellipse id="_Path_24" data-name="&lt;Path&gt;" class="cls-21" cx="305.05" cy="22.99" rx="6.77" ry="8.67" transform="translate(11.88 110.39) rotate(-20.91)"/><path id="_Path_25" data-name="&lt;Path&gt;" class="cls-26" d="M299.25,48.26s-5.86.81-4.78-5.35c-3.13-.64-18.17-7.86-23.65-23.31,4.28-7.74,11.27-8.48,18.76-6.85,11.07,2.41,22.52,11.37,14.92,32.7C303.94,47,300.88,47.11,299.25,48.26Z"/><path id="_Path_26" data-name="&lt;Path&gt;" class="cls-3" d="M278.32,60.2c-3,.14-5.71-1.36-5.79-3.21l0-.44L284.07,56l0,.44c.08,1.68-1.6,3.56-4.86,3.71Z"/><g id="_Group_3" data-name="&lt;Group&gt;"><path id="_Path_27" data-name="&lt;Path&gt;" class="cls-22" d="M296.46,44.86a6.26,6.26,0,0,1,2.28-2.17c3.48-2.18,7.32-.1,5.64,3.84-1.18,2.75-3.29,9.58-5.35,7A13.3,13.3,0,0,1,296.46,44.86Z"/><polygon id="_Path_28" data-name="&lt;Path&gt;" class="cls-25" points="299.04 45.39 303.5 44.85 299.87 50.77 301.24 45.82 299.04 45.39"/></g><path id="_Path_29" data-name="&lt;Path&gt;" class="cls-17" d="M318.65,55.46,303.8,32.72s-3.89-4.56-6.91-5c-3.5-.54-9.27-.64-10-.23-2,1.1,6.95,9.22,6.95,9.22l16.53,24.42Z"/><path id="_Path_30" data-name="&lt;Path&gt;" class="cls-6" d="M299,47.48l11.72-8,18.17,27A7.07,7.07,0,0,1,327,76.34h0a7.07,7.07,0,0,1-9.83-1.83Z"/><rect class="cls-8" x="297.02" y="40.43" width="15.89" height="5.47" transform="translate(25.65 172.96) rotate(-32.98)"/><path class="cls-15" d="M294.49,30.11v-2.2h-7.6V30.3A12.07,12.07,0,0,0,284,31.77H269.35a12,12,0,0,0-1.94-.94h0V28.17h-7.6v2.35a12.11,12.11,0,1,0,13.72,17.82h7.27a12.11,12.11,0,1,0,13.67-18.22Z"/><rect class="cls-27" x="258.09" y="28.17" width="7.6" height="2.66"/><rect class="cls-27" x="285.14" y="27.91" width="7.6" height="2.66"/><rect class="cls-27" x="261.4" y="31.77" width="25.47" height="5.26"/><rect class="cls-27" x="253.43" y="35.18" width="43.24" height="13.16"/><circle class="cls-28" cx="289.2" cy="41.7" r="12.11"/><circle class="cls-29" cx="289.2" cy="41.7" r="9.99"/><path class="cls-30" d="M280.72,47l13.8-13.8a9.92,9.92,0,0,0-4.1-1.51l-11.2,11.2A9.92,9.92,0,0,0,280.72,47Z"/><path class="cls-30" d="M295.34,33.8,281.23,47.91a10,10,0,0,0,1.48,1.33l14-14A10,10,0,0,0,295.34,33.8Z"/><circle class="cls-28" cx="261.4" cy="42.16" r="12.11"/><circle class="cls-29" cx="261.4" cy="42.16" r="9.99"/><path class="cls-30" d="M252.92,47.48l13.8-13.8a9.92,9.92,0,0,0-4.1-1.51l-11.2,11.2A9.92,9.92,0,0,0,252.92,47.48Z"/><path class="cls-30" d="M267.53,34.26,253.43,48.37a10,10,0,0,0,1.48,1.33l14-14A10,10,0,0,0,267.53,34.26Z"/><path id="_Path_31" data-name="&lt;Path&gt;" class="cls-15" d="M201.07,96.28l2.4,1.67s5.36,2.68,8.32,1.93c3.44-.87,8.78-3,9.32-3.7,1.44-1.8-11.94-6.25-11.94-6.25L208,85.38Z"/><path id="_Path_32" data-name="&lt;Path&gt;" class="cls-17" d="M201.65,95.12l2.4,1.67s5.36,2.68,8.32,1.93c3.44-.87,8.78-3,9.32-3.7,1.44-1.8-11.94-6.25-11.94-6.25l-1.22-4.48Z"/><path class="cls-17" d="M201.7,95.15h0a1.38,1.38,0,0,0,1.89-.51l5.19-9c.07-.11.18-.66-.51-1.89h0a1.38,1.38,0,0,0-1.89.51l-5.19,9A1.38,1.38,0,0,0,201.7,95.15Z"/></svg>