<svg id="Layer_1" data-name="Layer 1" xmlns="http://www.w3.org/2000/svg" xmlns:xlink="http://www.w3.org/1999/xlink" viewBox="0 0 708.66 481.89"><defs><style>.cls-1,.cls-13,.cls-30{fill:none;}.cls-2{fill:#ffdc83;}.cls-3{clip-path:url(#clip-path);}.cls-10,.cls-14,.cls-4,.cls-5{opacity:0.07;}.cls-4{font-size:33.38px;font-family:MyriadPro-Regular, Myriad Pro;}.cls-15,.cls-4,.cls-5{fill:#1e1d1d;}.cls-6{fill:#e0ac89;}.cls-7{fill:#d8b25d;}.cls-8{fill:#bfa064;}.cls-9{fill:#bc9e61;}.cls-10{fill:#282727;}.cls-11,.cls-17{fill:#fff;}.cls-12{font-size:36.39px;}.cls-12,.cls-16,.cls-31,.cls-32{fill:#ee4256;}.cls-12,.cls-31,.cls-32{font-family:Impact, Impact;}.cls-13,.cls-17{stroke:#ee4256;}.cls-13,.cls-17,.cls-30{stroke-linecap:round;stroke-linejoin:round;}.cls-13{stroke-width:3px;}.cls-17{stroke-width:4px;}.cls-18,.cls-19{fill:#5e5e5e;}.cls-19,.cls-23,.cls-29{fill-rule:evenodd;}.cls-20,.cls-29{fill:#dc846a;}.cls-21,.cls-23{fill:#f8ab8d;}.cls-22{fill:#8ba9cc;}.cls-24{fill:#698caf;}.cls-25{fill:#e5e5e4;}.cls-26{fill:#515180;}.cls-27{fill:#979797;}.cls-28{fill:gray;}.cls-30{stroke:#dc846a;stroke-width:1.14px;}.cls-31{font-size:62.2px;}.cls-32{font-size:63.38px;}</style><clipPath id="clip-path"><circle class="cls-1" cx="354.33" cy="235.99" r="321.09"/></clipPath></defs><title>CS-L2-U3</title><circle class="cls-2" cx="354.33" cy="235.99" r="321.09"/><g class="cls-3"><text class="cls-4" transform="translate(126.35 198.41) rotate(-21.83)"><tspan xml:space="preserve"> MORE </tspan><tspan x="0" y="40.06">CHEESE</tspan></text><polygon class="cls-5" points="250.2 255.99 224.43 98.48 111.19 117.01 136.96 274.52 180.71 267.36 208.77 438.84 226.27 435.97 198.21 264.49 250.2 255.99"/><rect class="cls-6" x="196.8" y="243.98" width="17.73" height="198.86" transform="translate(-52.76 37.72) rotate(-9.29)"/><path class="cls-7" d="M100,469.16l.23,2.16.44,4.62h.05l.07.62,2.16-.23,1.9,12.91s7.26,8.51,11.18,10.29l.13.05V654.32h2.56v5a1.68,1.68,0,0,0-1.53,1.67v11.17a3.34,3.34,0,0,0,3.34,3.34H213a1.68,1.68,0,0,0,1.69-1.69v-2.86a4.4,4.4,0,0,0-3.29-4.26l-29.17-7.6a8.39,8.39,0,0,0-2.47-.25v-4.49h2.72V478.8a11.47,11.47,0,0,0,.46-3.08h8V439.82a15.06,15.06,0,0,0,0-18.2v-6.56l31.21,50.66h0l1.16,1.84,2.43,3.95,0,0,.33.52,2.22-1.4,8.17,9.23s2.49,16.37,5,14.29c.94-.78,5.69-5.28,6.83-10.16,1-4.19-1.37-15.13-1.37-15.13l-6-6.2,1.92-1.21-.14-.22.14-.08-37-60-15-55a5.85,5.85,0,0,0-2.73-7.68,10,10,0,0,0-.91-1.13,16.68,16.68,0,0,0-9.28-5.81,4.09,4.09,0,0,0-7.33-.42H157a4.93,4.93,0,0,0,.16-1.26v-4.61a32.28,32.28,0,0,0,6.39.27c17-3.73,20.44-26.72,19.59-38.2,0-.2,0-.4-.05-.6a67.93,67.93,0,0,0,1.55-13.55c0-14.56-6.57-14.4-7.64-14.28-5.55-11-15.28-12.46-25.88-10.67a36.21,36.21,0,0,0-14,5.35,7.93,7.93,0,0,0-3.56-3.14c-4.84-2.12-11,1.19-13.66,7.38s-1,12.93,3.86,15a7.57,7.57,0,0,0,1.72.51,45.39,45.39,0,0,0,.94,14.09,5.21,5.21,0,0,0,0,4.38c.92,2.47,2.25,7.21,3.87,9.56a2.84,2.84,0,1,0,4.28,3.72c2.32,6.17,5.8,11.44,10.56,15.09v9.64a4.93,4.93,0,0,0,.16,1.26h-7.72a10.25,10.25,0,0,0-17.25,1l-.57.22a10.05,10.05,0,0,0-1.88-.56h0a10,10,0,0,0-11.74,7.92l-7.8,40.16a15,15,0,0,0-2,7.42,15.19,15.19,0,0,0,.13,2L94,401.89A10,10,0,0,0,94,406l6,63.19Zm36.87,185.16h2.72V486.83l19.51.16V654.32h2.56v4.94a1.68,1.68,0,0,0-1.7,1.68v3.44l-20.46-5.33a8.37,8.37,0,0,0-2.63-.24Z"/><polygon class="cls-7" points="296.84 261.74 283.07 261.74 283.07 421.38 296.84 421.38 321 421.38 386.71 421.38 386.71 100.42 296.84 100.42 296.84 261.74"/><polygon class="cls-7" points="484.29 18.55 476.47 18.55 476.47 -32.5 436.56 -32.5 436.56 18.55 428.74 18.55 428.74 62.52 402 62.52 402 421.38 511.04 421.38 511.04 62.52 484.29 62.52 484.29 18.55"/><polygon class="cls-7" points="577.34 268.85 577.34 184.58 521.79 184.58 521.79 421.38 562.11 421.38 577.34 421.38 591.33 421.38 591.33 268.85 577.34 268.85"/><polygon class="cls-7" points="-33.16 363.21 -46.93 363.21 -46.93 522.84 -33.16 522.84 -9 522.84 56.72 522.84 56.72 201.88 -33.16 201.88 -33.16 363.21"/><polygon class="cls-7" points="154.29 120.02 146.47 120.02 146.47 68.96 106.56 68.96 106.56 120.02 98.74 120.02 98.74 163.99 72 163.99 72 522.84 181.04 522.84 181.04 163.99 154.29 163.99 154.29 120.02"/><polygon class="cls-7" points="247.34 370.32 247.34 286.04 191.79 286.04 191.79 522.84 232.11 522.84 247.34 522.84 261.33 522.84 261.33 370.32 247.34 370.32"/><path class="cls-8" d="M320.66,393.83l.23,2.16.44,4.62h.05l.07.62,2.16-.23,1.9,12.91s7.26,8.51,11.18,10.29l.13.05V579h2.56v5a1.68,1.68,0,0,0-1.53,1.67v11.17a3.34,3.34,0,0,0,3.34,3.34h92.53a1.68,1.68,0,0,0,1.69-1.69v-2.86a4.4,4.4,0,0,0-3.29-4.26l-29.17-7.6a8.39,8.39,0,0,0-2.47-.25V579h2.72V403.47a11.47,11.47,0,0,0,.46-3.08h8V364.48a15.06,15.06,0,0,0,0-18.2v-6.56l31.21,50.66h0l1.16,1.84,2.43,3.95,0,0,.33.52,2.22-1.4,8.17,9.23s2.49,16.37,5,14.29c.94-.78,5.69-5.28,6.83-10.16,1-4.19-1.37-15.13-1.37-15.13l-6-6.2,1.92-1.21-.14-.22.14-.08-37-60-15-55a5.85,5.85,0,0,0-2.73-7.68A10,10,0,0,0,408,262a16.68,16.68,0,0,0-9.28-5.81,4.09,4.09,0,0,0-7.33-.42H377.7a4.93,4.93,0,0,0,.16-1.26v-4.61a32.28,32.28,0,0,0,6.39.27c17-3.73,20.44-26.72,19.59-38.2,0-.2,0-.4-.05-.6a67.93,67.93,0,0,0,1.55-13.55c0-14.56-6.57-14.4-7.64-14.28-5.55-11-15.28-12.46-25.88-10.67a36.21,36.21,0,0,0-14,5.35,7.93,7.93,0,0,0-3.56-3.14c-4.84-2.12-11,1.19-13.66,7.38s-1,12.93,3.86,15a7.57,7.57,0,0,0,1.72.51,45.39,45.39,0,0,0,.94,14.09,5.21,5.21,0,0,0,0,4.38c.92,2.47,2.25,7.21,3.87,9.56a2.84,2.84,0,1,0,4.28,3.72c2.32,6.17,5.8,11.44,10.56,15.09v9.64a4.93,4.93,0,0,0,.16,1.26H358.2a10.25,10.25,0,0,0-17.25,1l-.57.22a10.05,10.05,0,0,0-1.88-.56h0a10,10,0,0,0-11.74,7.92L319,304.46a15,15,0,0,0-2,7.42,15.19,15.19,0,0,0,.13,2l-2.47,12.71a10,10,0,0,0,.06,4.08l6,63.19ZM357.53,579h2.72V411.5l19.51.16V579h2.56v4.94a1.68,1.68,0,0,0-1.7,1.68v3.44l-20.46-5.33a8.37,8.37,0,0,0-2.63-.24Z"/><path class="cls-8" d="M56.41,499.69l.23,2.16.44,4.62h.05l.07.62,2.16-.23,1.9,12.91S68.5,528.27,72.42,530l.13.05V684.85h2.56v5a1.68,1.68,0,0,0-1.53,1.67v11.17A3.34,3.34,0,0,0,76.93,706h92.53a1.68,1.68,0,0,0,1.69-1.69v-2.86a4.4,4.4,0,0,0-3.29-4.26l-29.17-7.6a8.39,8.39,0,0,0-2.47-.25v-4.49h2.72V509.33a11.47,11.47,0,0,0,.46-3.08h8V470.34a15.06,15.06,0,0,0,0-18.2v-6.56l31.21,50.66h0l1.16,1.84,2.43,3.95,0,0,.33.52,2.22-1.4,8.17,9.23s2.49,16.37,5,14.29c.94-.78,5.69-5.28,6.83-10.16,1-4.19-1.37-15.13-1.37-15.13l-6-6.2,1.92-1.21-.14-.22.14-.08-37-60-15-55a5.85,5.85,0,0,0-2.73-7.68,10,10,0,0,0-.91-1.13,16.68,16.68,0,0,0-9.28-5.81,4.09,4.09,0,0,0-7.33-.42H113.45a4.93,4.93,0,0,0,.16-1.26v-4.61A32.28,32.28,0,0,0,120,356c17-3.73,20.44-26.72,19.59-38.2,0-.2,0-.4-.05-.6a67.93,67.93,0,0,0,1.55-13.55c0-14.56-6.57-14.4-7.64-14.28-5.55-11-15.28-12.46-25.88-10.67a36.21,36.21,0,0,0-14,5.35A7.93,7.93,0,0,0,90,280.92c-4.84-2.12-11,1.19-13.66,7.38s-1,12.93,3.86,15a7.57,7.57,0,0,0,1.72.51A45.39,45.39,0,0,0,82.82,318a5.21,5.21,0,0,0,0,4.38c.92,2.47,2.25,7.21,3.87,9.56a2.84,2.84,0,1,0,4.28,3.72c2.32,6.17,5.8,11.44,10.56,15.09v9.64a4.93,4.93,0,0,0,.16,1.26H94a10.25,10.25,0,0,0-17.25,1l-.57.22a10.05,10.05,0,0,0-1.88-.56h0a10,10,0,0,0-11.74,7.92l-7.8,40.16a15,15,0,0,0-2,7.42,15.19,15.19,0,0,0,.13,2l-2.47,12.71a10,10,0,0,0,.06,4.08l6,63.19ZM93.28,684.85H96V517.36l19.51.16V684.85h2.56v4.94a1.68,1.68,0,0,0-1.7,1.68v3.44l-20.46-5.33a8.37,8.37,0,0,0-2.63-.24Z"/><path class="cls-9" d="M458.66,530.5l.23,2.16.44,4.62h.05l.07.62,2.16-.23,1.9,12.91s7.26,8.51,11.18,10.29l.13.05V715.66h2.56v5a1.68,1.68,0,0,0-1.53,1.67v11.17a3.34,3.34,0,0,0,3.34,3.34h92.53a1.68,1.68,0,0,0,1.69-1.69v-2.86a4.4,4.4,0,0,0-3.29-4.26l-29.17-7.6a8.39,8.39,0,0,0-2.47-.25v-4.49h2.72V540.14a11.47,11.47,0,0,0,.46-3.08h8V501.15a15.06,15.06,0,0,0,0-18.2v-6.56l31.21,50.66h0l1.16,1.84,2.43,3.95,0,0,.33.52,2.22-1.4,8.17,9.23s2.49,16.37,5,14.29c.94-.78,5.69-5.28,6.83-10.16,1-4.19-1.37-15.13-1.37-15.13l-6-6.2,1.92-1.21-.14-.22.14-.08-37-60-15-55a5.85,5.85,0,0,0-2.73-7.68,10,10,0,0,0-.91-1.13,16.68,16.68,0,0,0-9.28-5.81,4.09,4.09,0,0,0-7.33-.42H515.7a4.93,4.93,0,0,0,.16-1.26v-4.61a32.28,32.28,0,0,0,6.39.27c17-3.73,20.44-26.72,19.59-38.2,0-.2,0-.4-.05-.6a67.93,67.93,0,0,0,1.55-13.55c0-14.56-6.57-14.4-7.64-14.28-5.55-11-15.28-12.46-25.88-10.67a36.21,36.21,0,0,0-14,5.35,7.93,7.93,0,0,0-3.56-3.14c-4.84-2.12-11,1.19-13.66,7.38s-1,12.93,3.86,15a7.57,7.57,0,0,0,1.72.51,45.39,45.39,0,0,0,.94,14.09,5.21,5.21,0,0,0,0,4.38c.92,2.47,2.25,7.21,3.87,9.56a2.84,2.84,0,1,0,4.28,3.72c2.32,6.17,5.8,11.44,10.56,15.09v9.64a4.93,4.93,0,0,0,.16,1.26H496.2a10.25,10.25,0,0,0-17.25,1l-.57.22a10.05,10.05,0,0,0-1.88-.56h0A10,10,0,0,0,464.76,401L457,441.13a15,15,0,0,0-2,7.42,15.19,15.19,0,0,0,.13,2l-2.47,12.71a10,10,0,0,0,.06,4.08l6,63.19Zm36.87,185.16h2.72V548.16l19.51.16V715.66h2.56v4.94a1.68,1.68,0,0,0-1.7,1.68v3.44l-20.46-5.33a8.37,8.37,0,0,0-2.63-.24Z"/><rect class="cls-6" x="196.8" y="243.98" width="17.73" height="198.86" transform="translate(-52.76 37.72) rotate(-9.29)"/><polygon class="cls-10" points="203.03 272.41 185.08 272.52 184.29 267.71 201.79 264.85 203.03 272.41"/><rect class="cls-11" x="127.52" y="110.83" width="114.74" height="159.6" transform="matrix(0.99, -0.16, 0.16, 0.99, -28.36, 32.36)"/><text class="cls-12" transform="translate(159.77 183.17) rotate(-9.33)"><tspan xml:space="preserve"> NO</tspan><tspan x="-22.25" y="43.66">MORE!</tspan></text><line class="cls-13" x1="133.33" y1="146.9" x2="220.66" y2="132.9"/><line class="cls-13" x1="148.06" y1="240.43" x2="235.4" y2="226.43"/><g class="cls-14"><rect class="cls-15" x="425.37" y="215.77" width="17.73" height="198.86" transform="translate(46.96 -56.19) rotate(7.83)"/><polygon class="cls-5" points="452.4 248.15 435.22 242.98 435.88 238.15 453.45 240.57 452.4 248.15"/><rect class="cls-15" x="401.99" y="83.27" width="114.74" height="159.6" transform="translate(26.48 -61.02) rotate(7.83)"/><rect class="cls-15" x="447.87" y="110.55" width="23.94" height="99.75" transform="translate(360.16 -316.28) rotate(58.96)"/><rect class="cls-15" x="447.87" y="110.55" width="23.94" height="99.75" transform="translate(936.54 60.74) rotate(148.96)"/></g><rect class="cls-6" x="421.37" y="219.77" width="17.73" height="198.86" transform="translate(47.47 -55.61) rotate(7.83)"/><polygon class="cls-10" points="448.4 252.15 431.22 246.98 431.88 242.15 449.45 244.57 448.4 252.15"/><rect class="cls-11" x="397.99" y="87.27" width="114.74" height="159.6" transform="translate(26.99 -60.44) rotate(7.83)"/><rect class="cls-16" x="405.96" y="152.45" width="99.75" height="23.94" transform="translate(-19.5 258.61) rotate(-31.04)"/><rect class="cls-16" x="443.87" y="114.55" width="23.94" height="99.75" transform="translate(-19.5 258.61) rotate(-31.04)"/><polygon class="cls-5" points="582.75 316.58 622.92 162.11 511.87 133.24 471.7 287.7 514.61 298.86 470.88 467.03 488.04 471.49 531.77 303.32 582.75 316.58"/><polygon class="cls-5" points="350.77 105.04 338.71 -54.11 224.29 -45.43 236.36 113.71 280.56 110.36 293.7 283.62 311.38 282.28 298.25 109.02 350.77 105.04"/><rect class="cls-6" x="501.21" y="274.55" width="17.73" height="198.86" transform="translate(118.89 -123.02) rotate(15.55)"/><polygon class="cls-10" points="520.06 305.02 537.89 307.09 539.19 302.39 522.11 297.64 520.06 305.02"/><rect class="cls-11" x="498.03" y="146.8" width="114.74" height="159.6" transform="translate(81.05 -140.56) rotate(15.55)"/><rect class="cls-6" x="278.67" y="89.17" width="17.73" height="198.86" transform="translate(1.85 -2.78) rotate(0.56)"/><polygon class="cls-10" points="279.35 118.59 297.11 115.98 297.15 111.1 279.42 110.93 279.35 118.59"/><rect class="cls-17" x="235.83" y="-45.29" width="114.74" height="159.6" transform="translate(0.35 -2.85) rotate(0.56)"/><path class="cls-18" d="M526.55,494.4l6-63.19a10,10,0,0,0,.06-4.08l-2.47-12.71a15.19,15.19,0,0,0,.13-2,15,15,0,0,0-2-7.42l-7.8-40.16A10,10,0,0,0,508.73,357h0a10.05,10.05,0,0,0-1.88.56l-.57-.22a10.25,10.25,0,0,0-17.25-1h-7.72a4.93,4.93,0,0,0,.16-1.26v-9.64c4.76-3.64,8.24-8.92,10.56-15.09a2.84,2.84,0,1,0,4.28-3.72c1.62-2.35,2.95-7.1,3.87-9.56a5.21,5.21,0,0,0,0-4.38,45.39,45.39,0,0,0,.94-14.09,7.57,7.57,0,0,0,1.72-.51c4.84-2.12,6.56-8.85,3.86-15s-8.83-9.5-13.66-7.38a7.93,7.93,0,0,0-3.56,3.14,36.21,36.21,0,0,0-14-5.35c-10.59-1.79-20.33-.3-25.88,10.67-1.06-.12-7.64-.29-7.64,14.28a67.93,67.93,0,0,0,1.55,13.55c0,.2,0,.39-.05.6C442.54,324,446,347,463,350.72a32.28,32.28,0,0,0,6.39-.27v4.61a4.93,4.93,0,0,0,.16,1.26H455.88a4.09,4.09,0,0,0-7.33.42,16.68,16.68,0,0,0-9.28,5.81,10,10,0,0,0-.91,1.13,5.85,5.85,0,0,0-2.73,7.68l-15,55-37,60,.14.08-.14.22,1.92,1.21-6,6.2s-2.34,10.94-1.37,15.13c1.14,4.88,5.89,9.38,6.83,10.16,2.51,2.08,5-14.29,5-14.29l8.17-9.23,2.22,1.4.33-.52,0,0,2.43-3.95,1.16-1.84h0l31.21-50.66v6.56a15.06,15.06,0,0,0,0,18.2V501h8A11.47,11.47,0,0,0,444,504V679.56h2.72v4.49a8.39,8.39,0,0,0-2.47.25l-29.17,7.6a4.4,4.4,0,0,0-3.29,4.26V699a1.68,1.68,0,0,0,1.69,1.69H506a3.34,3.34,0,0,0,3.34-3.34V686.19a1.68,1.68,0,0,0-1.53-1.67v-5h2.56V524.81l.13-.05c3.92-1.77,11.18-10.29,11.18-10.29l1.9-12.91,2.16.23.07-.62h.05l.44-4.62.23-2.16ZM489.7,684.06a8.37,8.37,0,0,0-2.63.24l-20.46,5.33v-3.44a1.68,1.68,0,0,0-1.7-1.68v-4.94h2.56V512.22l19.51-.16V679.56h2.72Z"/><path class="cls-19" d="M257.27,707l3.9-.35-.89-10-1.51.14-14-154.16h.06a1.58,1.58,0,0,0,1.43-1.71l-1.67-18.67h0s0,0,0,0a15.39,15.39,0,0,0-6.77-11c.22-.92.34-1.49.34-1.49l-3-8.23,2.14-.19-1.05-12-4.3.38h0l1.75-.15L223.57,374.33a8.46,8.46,0,0,0-6.83-7.54,15.85,15.85,0,0,0-9.85-3.43H200l-4.64-2.19,3.27-.78a8.12,8.12,0,0,0,5-3.79,13.93,13.93,0,0,0,1.85-5.53c3.59-5,5.59-11.41,6.54-17.45a24.06,24.06,0,0,0,.63-4.78c0,.09-.06.17-.09.26a51.66,51.66,0,0,0,.05-7.72,37.34,37.34,0,0,0-2.23-10.74,7.85,7.85,0,0,0,2.5-2.41,5.91,5.91,0,0,0,1.1-3.94h-5.51a11.16,11.16,0,0,0,2.83-4.77v0a19.26,19.26,0,0,0,1.21-5.54c0-.3,0-.47,0-.47H203.5s-9.14-6.64-19.29-5.79c-16,1.35-21.3,11.64-21.3,11.64a17.26,17.26,0,0,0-6.92-1.23c2.08,2.41,3.31,3.48,4.25,6.94-1.36,3.5-1.66,8.35-1.63,12.37-2.92.22-4.94,2.67-3.53,6.46,1.48,4,4,13.73,7.08,10.21l.2-.25c2.75,10.79,8.5,19.75,17.79,23.66v1.57l-6.55,4.28H162.66a15.35,15.35,0,0,0-7.58,2l-.3,0h-.32a8.46,8.46,0,0,0-8.43,8.43V489.39h-3v12h3.82l-.33,11.72a77.69,77.69,0,0,0,7.22,10.26V678.05h2.41v11.61a1.58,1.58,0,0,0-1.44,1.57v10.42h91.75v-1a4.14,4.14,0,0,0-3.1-4l-27.43-7.14a7.89,7.89,0,0,0-2.32-.23V678.05h2.55V528.24h.14a3.46,3.46,0,0,0,3.15-3.76,7.51,7.51,0,0,1,4-7.23c-1.05,4.15-3.35,14.2-.83,13.5,1.19-.33,7.43-2.52,10.49-6.55a22.1,22.1,0,0,0,2.61-5.75,8.37,8.37,0,0,1,1.88,4.4l1.67,18.67a1.58,1.58,0,0,0,1.71,1.43l.43,0,14,154.16-1.42.13.89,10,1.43-.13h0Zm-60.72-17.32a1.58,1.58,0,0,0-1.6,1.58v3.24l-19.24-5a7.87,7.87,0,0,0-2.48-.22V678.05h2.56V514.41l18.35.15V678.05h2.41Zm19.63-175.35v-7.44a10.78,10.78,0,0,0,.44-2.92l0-.88,3.2-.28.08.17c-.15,1.38-.6,5.5-1.19,9.08A13.91,13.91,0,0,0,216.18,514.31Z"/><path class="cls-18" d="M222,505.16l.23,2.16.44,4.62h.05l.07.62,2.16-.23,1.9,12.91s7.26,8.51,11.18,10.29l.13.05V690.32h2.56v5a1.68,1.68,0,0,0-1.53,1.67v11.17a3.34,3.34,0,0,0,3.34,3.34H335a1.68,1.68,0,0,0,1.69-1.69v-2.86a4.4,4.4,0,0,0-3.29-4.26l-29.17-7.6a8.39,8.39,0,0,0-2.47-.25v-4.49h2.72V514.8a11.47,11.47,0,0,0,.46-3.08h8V475.82a15.06,15.06,0,0,0,0-18.2v-6.56l31.21,50.66h0l1.16,1.84,2.43,3.95,0,0,.33.52,2.22-1.4,8.17,9.23s2.49,16.37,5,14.29c.94-.78,5.69-5.28,6.83-10.16,1-4.19-1.37-15.13-1.37-15.13l-6-6.2,1.92-1.21-.14-.22.14-.08-37-60-15-55a5.85,5.85,0,0,0-2.73-7.68,10,10,0,0,0-.91-1.13,16.68,16.68,0,0,0-9.28-5.81,4.09,4.09,0,0,0-7.33-.42H279a4.93,4.93,0,0,0,.16-1.26v-4.61a32.28,32.28,0,0,0,6.39.27c17-3.73,20.44-26.72,19.59-38.2,0-.2,0-.4-.05-.6a67.93,67.93,0,0,0,1.55-13.55c0-14.56-6.57-14.4-7.64-14.28-5.55-11-15.28-12.46-25.88-10.67a36.21,36.21,0,0,0-14,5.35,7.93,7.93,0,0,0-3.56-3.14c-4.84-2.12-11,1.19-13.66,7.38s-1,12.93,3.86,15a7.57,7.57,0,0,0,1.72.51,45.39,45.39,0,0,0,.94,14.09,5.21,5.21,0,0,0,0,4.38c.92,2.47,2.25,7.21,3.87,9.56a2.84,2.84,0,1,0,4.28,3.72c2.32,6.17,5.8,11.44,10.56,15.09v9.64a4.93,4.93,0,0,0,.16,1.26h-7.72a10.25,10.25,0,0,0-17.25,1l-.57.22a10.05,10.05,0,0,0-1.88-.56h0a10,10,0,0,0-11.74,7.92l-7.8,40.16a15,15,0,0,0-2,7.42,15.19,15.19,0,0,0,.13,2L216,437.89A10,10,0,0,0,216,442l6,63.19Zm36.87,185.16h2.72V522.83l19.51.16V690.32h2.56v4.94a1.68,1.68,0,0,0-1.7,1.68v3.44l-20.46-5.33a8.37,8.37,0,0,0-2.63-.24Z"/><path id="_Path_" data-name="&lt;Path&gt;" class="cls-20" d="M289.7,212.37s-1.35-10.5-1.16-15c-6-2.2-8.6,6.29-8.6,6.29Z"/><path id="_Path_2" data-name="&lt;Path&gt;" class="cls-20" d="M400.33,419.29s-6.58,8.29-10,11.33c2.6,5.82,10.51,1.77,10.51,1.77Z"/><rect id="_Rectangle_" data-name="&lt;Rectangle&gt;" class="cls-21" x="281.25" y="208.39" width="14.8" height="56.73" rx="4.88" ry="4.88" transform="translate(629.83 388.31) rotate(164.59)"/><path id="_Path_3" data-name="&lt;Path&gt;" class="cls-21" d="M277.46,222.6l-8.72-13.37s-.22-12.24,1.71-16.53c2.24-5,8.29-8.83,9.46-9.47,3.13-1.7,2.36,16.39,2.36,16.39l8,13.66Z"/><rect id="_Rectangle_2" data-name="&lt;Rectangle&gt;" class="cls-22" x="306.27" y="276.31" width="18.4" height="76.68" rx="6.07" ry="6.07" transform="translate(745.22 432.29) rotate(150.38)"/><path id="_Path_4" data-name="&lt;Path&gt;" class="cls-22" d="M277.15,227.41,295,223.08l14.91,63.46a9.2,9.2,0,0,1-6.77,11.11h0a9.2,9.2,0,0,1-11.11-6.77Z"/><rect id="_Rectangle_3" data-name="&lt;Rectangle&gt;" class="cls-11" x="271.59" y="213.86" width="24.6" height="12.98" transform="translate(616.11 357.36) rotate(164.59)"/><path id="_Path_5" data-name="&lt;Path&gt;" class="cls-23" d="M348.29,313.92c20.18,1.08,30.91-13.83,34.21-32.35,3.47-19.51-9.59-35.65-25.41-35.7-18-.06-28.51,7-30,26.73-.93,12.41,2.81,37.29,21.19,41.32Z"/><path id="_Rectangle_4" data-name="&lt;Rectangle&gt;" class="cls-24" d="M374.87,457.14H383a7.86,7.86,0,0,1,7.86,7.86V658.47a0,0,0,0,1,0,0H367a0,0,0,0,1,0,0V465a7.86,7.86,0,0,1,7.86-7.86Z"/><path id="_Rectangle_5" data-name="&lt;Rectangle&gt;" class="cls-24" d="M331.18,457.14h8.12a7.86,7.86,0,0,1,7.86,7.86V658.47a0,0,0,0,1,0,0H323.32a0,0,0,0,1,0,0V465a7.86,7.86,0,0,1,7.86-7.86Z"/><path id="_Path_6" data-name="&lt;Path&gt;" class="cls-24" d="M390.46,447.72l-68,.55.41,21.84a11.68,11.68,0,0,0,11.78,11.59l44.65-.36a11.68,11.68,0,0,0,11.59-11.78Z"/><path id="_Rectangle_6" data-name="&lt;Rectangle&gt;" class="cls-22" d="M339,318h36.68a22.19,22.19,0,0,1,22.19,22.19v123a0,0,0,0,1,0,0H316.11a0,0,0,0,1,0,0V340.93A22.93,22.93,0,0,1,339,318Z"/><polygon id="_Path_7" data-name="&lt;Path&gt;" class="cls-24" points="374.09 318.01 376.54 326.14 369.85 332.82 372.67 338.08 343.23 379.46 331.61 337.97 335.25 332.55 332.89 326.14 338.01 318.01 374.09 318.01"/><polygon id="_Path_8" data-name="&lt;Path&gt;" class="cls-11" points="340.79 318.01 345.99 365.74 369.37 318.01 340.79 318.01"/><path id="_Path_9" data-name="&lt;Path&gt;" class="cls-21" d="M356.23,297.5h.21a5.88,5.88,0,0,0-5.84,6.05v12.94c0,3.34,2.5,4.38,5.84,4.38h-.1c3.34,0,5.95-1,5.95-4.38V303.56A6.05,6.05,0,0,0,356.23,297.5Z"/><polygon id="_Path_10" data-name="&lt;Path&gt;" class="cls-25" points="369.37 318.01 362.28 313.37 354.56 319.73 359.06 330.35 369.37 318.01"/><polygon id="_Path_11" data-name="&lt;Path&gt;" class="cls-25" points="340.79 318.01 350.59 313.37 354.56 319.73 345.99 330.35 340.79 318.01"/><polygon id="_Path_12" data-name="&lt;Path&gt;" class="cls-26" points="354.56 319.73 357.24 326.06 350.59 332.55 348.74 326.94 354.56 319.73"/><polygon id="_Path_13" data-name="&lt;Path&gt;" class="cls-26" points="352.5 330.26 353.54 350.33 345.99 365.74 344.13 348.69 350.05 329.65 352.5 330.26"/><ellipse id="_Path_14" data-name="&lt;Path&gt;" class="cls-24" cx="348.84" cy="401.86" rx="3.8" ry="4.7"/><ellipse id="_Path_15" data-name="&lt;Path&gt;" class="cls-24" cx="348.84" cy="427.56" rx="3.8" ry="4.7"/><path id="_Path_16" data-name="&lt;Path&gt;" class="cls-27" d="M383.83,254.93c1.89,4.87,1.9,12.19,1.65,16.85a4.66,4.66,0,0,0-4-1,5.57,5.57,0,0,0-.63.15h0l-.31.1-.31.12-.33.15-.23.12-.38.21-.3.19-.3.2-.28.22-.28.24c-.18.16-.36.34-.53.51,0,0,0,0,0,.05l-.1.13-.06.08-.07.08,0,0,0,0,0,0a.23.23,0,0,0,0,.05V282a3.81,3.81,0,0,1-.91,2.85,4.63,4.63,0,0,1-.39.43,6.08,6.08,0,0,1-2.59.76c-2.22,0-4.46-1.82-4.46-4v-3a4.39,4.39,0,0,0-4-4.39l-.77-.05c-.06-3.46,0-6.2,0-7.91,0-2.11-.75-3.51-5.43-4h-.14c-.41,0-.84-.07-1.32-.1h-.1c-.81,0-1.71-.06-2.72-.06H332.94l-.25-.06c-.92-.26-4.19-1.34-5.88-4a6.4,6.4,0,0,1-1.19-4.26h6a12.07,12.07,0,0,1-3.06-5.16,28.2,28.2,0,0,1-1.36-6.52H337s9.88-7.19,20.87-6.26c17.32,1.46,23,12.59,23,12.59a18.67,18.67,0,0,1,7.49-1.33C386.17,250,384.85,251.18,383.83,254.93Z"/><path id="_Path_17" data-name="&lt;Path&gt;" class="cls-28" d="M357.17,262.51c-.81,0-1.71-.06-2.72-.06H332.94l-.25-.06c-.92-.26-4.19-1.34-5.88-4a6.4,6.4,0,0,1-1.19-4.26s5.12,5.77,8.4,6.36l.26,0C337.61,261,352.33,262.15,357.17,262.51Z"/><path id="_Path_18" data-name="&lt;Path&gt;" class="cls-28" d="M327.15,242.42s3.83,8.72,9.23,10.93c4.59,1.88,27,2.6,27,2.6a38.25,38.25,0,0,1-6.95,1.66c-2,.21-21.76.83-24.86-3.5A19.22,19.22,0,0,1,327.15,242.42Z"/><rect id="_Rectangle_7" data-name="&lt;Rectangle&gt;" class="cls-24" x="363.58" y="417.33" width="18.18" height="6.74" transform="translate(745.33 841.39) rotate(-180)"/><g id="_Group_" data-name="&lt;Group&gt;"><line id="_Path_19" data-name="&lt;Path&gt;" class="cls-27" x1="331.71" y1="268.78" x2="338.42" y2="271.46"/><path id="_Path_20" data-name="&lt;Path&gt;" class="cls-27" d="M331.06,269.79a1.2,1.2,0,0,1,1.1-2.13l6.71,2.68a1.2,1.2,0,0,1-.89,2.24l-6.71-2.68Z"/></g><g id="_Group_2" data-name="&lt;Group&gt;"><line id="_Path_21" data-name="&lt;Path&gt;" class="cls-27" x1="352.08" y1="271.5" x2="358.76" y2="268.73"/><path id="_Path_22" data-name="&lt;Path&gt;" class="cls-27" d="M351.42,270.5a1.2,1.2,0,0,0,1.13,2.12l6.67-2.77a1.2,1.2,0,1,0-.92-2.23l-6.67,2.77Z"/></g><circle id="_Path_23" data-name="&lt;Path&gt;" cx="354.52" cy="277.72" r="1.63"/><circle id="_Path_24" data-name="&lt;Path&gt;" cx="335.62" cy="278.28" r="1.63"/><polygon id="_Path_25" data-name="&lt;Path&gt;" class="cls-29" points="345.68 277 345.89 287.3 342.85 286.8 345.68 277"/><path id="_Path_26" data-name="&lt;Path&gt;" class="cls-30" d="M360.59,279.92a8.48,8.48,0,0,1-5,1.49h0a9.11,9.11,0,0,1-5-1.49"/><path id="_Path_27" data-name="&lt;Path&gt;" class="cls-30" d="M340.58,279.92a8.48,8.48,0,0,1-5,1.49h0a9.11,9.11,0,0,1-5-1.49"/><g id="_Group_3" data-name="&lt;Group&gt;"><path id="_Path_28" data-name="&lt;Path&gt;" class="cls-23" d="M377.2,273.33a9.56,9.56,0,0,1,3.33-3.48c5.16-3.58,11.17-.68,8.88,5.45-1.6,4.28-4.33,14.86-7.66,11C379.18,283.43,377.33,279,377.2,273.33Z"/><polygon id="_Path_29" data-name="&lt;Path&gt;" class="cls-29" points="381.17 273.95 387.95 272.81 382.84 282.1 384.56 274.44 381.17 273.95"/></g><rect id="_Rectangle_8" data-name="&lt;Rectangle&gt;" class="cls-21" x="409.7" y="373.47" width="14.8" height="56.73" rx="4.88" ry="4.88" transform="translate(599.86 951.42) rotate(-152.33)"/><path id="_Path_30" data-name="&lt;Path&gt;" class="cls-21" d="M416.19,420.91l-3.49,15.58s-8.61,8.7-13,10.31c-5.14,1.88-12.11.23-13.38-.17-3.4-1.05,10.09-13.13,10.09-13.13l4.18-15.29Z"/><rect id="_Rectangle_9" data-name="&lt;Rectangle&gt;" class="cls-22" x="404.49" y="303.26" width="18.4" height="76.68" rx="6.07" ry="6.07" transform="translate(899.95 114.93) rotate(115.46)"/><path id="_Path_31" data-name="&lt;Path&gt;" class="cls-22" d="M403.88,408.52l16.56,8,28.05-58.85a9.2,9.2,0,0,0-4.26-12.3h0a9.2,9.2,0,0,0-12.3,4.26Z"/><rect id="_Rectangle_10" data-name="&lt;Rectangle&gt;" class="cls-11" x="396.66" y="410.36" width="24.6" height="12.98" transform="translate(577.54 975.95) rotate(-152.33)"/><circle class="cls-1" cx="337.9" cy="245.56" r="215.58"/></g><circle class="cls-20" cx="350.32" cy="298.74" r="5.32"/><text class="cls-31" transform="translate(250.39 54.13)">NO!</text><text class="cls-32" transform="matrix(0.97, 0.24, -0.24, 0.97, 508.49, 237.17)">NO!</text></svg>