<svg id="Layer_1" data-name="Layer 1" xmlns="http://www.w3.org/2000/svg" xmlns:xlink="http://www.w3.org/1999/xlink" viewBox="0 0 708.66 481.89"><defs><style>.cls-1,.cls-18,.cls-21,.cls-6{fill:none;}.cls-2{clip-path:url(#clip-path);}.cls-3{fill:#ffe4cc;}.cls-4{fill:#0a0a0a;opacity:0.07;}.cls-5{fill:#f2f2f2;}.cls-18,.cls-6{stroke:#e0534c;}.cls-18,.cls-21,.cls-6{stroke-miterlimit:10;}.cls-7,.cls-9{opacity:0.67;}.cls-8,.cls-9{fill:#19a4a4;}.cls-10{fill:#648ec9;}.cls-11{fill:#e0534c;}.cls-11,.cls-19{fill-rule:evenodd;}.cls-12{fill:#f9f9f9;}.cls-13{fill:#999;}.cls-14{fill:#ffdc83;}.cls-15,.cls-19{fill:#c0e4ed;}.cls-16{fill:#fff;}.cls-17{fill:#b3b3b3;}.cls-18{stroke-width:8px;}.cls-20{fill:#fec82b;opacity:0.73;}.cls-21{stroke:#fc5f51;stroke-width:2px;}</style><clipPath id="clip-path"><rect class="cls-1" x="0.54" y="7.01" width="708.12" height="474.88"/></clipPath></defs><title>CS-L2-U7</title><g class="cls-2"><polygon class="cls-3" points="849.81 500.58 -196.43 303.03 -133.7 -18.34 912.54 179.21 849.81 500.58"/></g><rect class="cls-4" x="510.92" y="118.52" width="156" height="226"/><rect class="cls-5" x="505.92" y="115.52" width="156" height="226"/><rect class="cls-6" x="523.8" y="149.02" width="119.03" height="90.11"/><g class="cls-7"><rect class="cls-8" x="576.53" y="270.91" width="65.02" height="5.49"/></g><rect class="cls-9" x="621.26" y="310.93" width="20.29" height="5.48"/><rect class="cls-10" x="576.53" y="282.83" width="65.02" height="2.74"/><rect class="cls-10" x="576.53" y="288.21" width="65.02" height="2.74"/><rect class="cls-10" x="576.53" y="293.54" width="65.02" height="2.75"/><rect class="cls-10" x="576.53" y="298.34" width="65.02" height="2.74"/><rect class="cls-10" x="603.98" y="303.85" width="37.58" height="2.75"/><rect class="cls-8" x="527.13" y="129.65" width="113.57" height="1.46"/><rect class="cls-8" x="527.13" y="133.38" width="113.57" height="1.46"/><rect class="cls-8" x="527.13" y="141.95" width="113.57" height="1.47"/><rect class="cls-8" x="527.13" y="145.68" width="113.57" height="1.46"/><rect class="cls-8" x="527.13" y="251.49" width="113.57" height="1.46"/><rect class="cls-10" x="527.13" y="150.46" width="51.92" height="34.32"/><rect class="cls-10" x="588.79" y="150.46" width="51.91" height="34.32"/><rect class="cls-10" x="588.79" y="192.72" width="51.91" height="44.6"/><rect class="cls-10" x="527.13" y="193.06" width="51.91" height="44.6"/><polygon class="cls-11" points="639.12 247.69 637.14 239.13 640.53 239.13 639.12 247.69"/><polygon class="cls-11" points="609.04 314.08 617.6 312.1 617.6 315.49 609.04 314.08"/><rect class="cls-6" x="617.6" y="309.24" width="26.15" height="8.79"/><rect class="cls-4" x="409.51" y="130.95" width="156" height="226"/><rect class="cls-12" x="405.51" y="127.94" width="156" height="226"/><rect class="cls-13" x="432.66" y="285.23" width="105.04" height="3.22"/><rect class="cls-13" x="432.66" y="294.12" width="105.04" height="4.45"/><rect class="cls-13" x="432.66" y="304.24" width="105.04" height="5.89"/><rect class="cls-13" x="432.72" y="315.8" width="105.04" height="7.41"/><rect class="cls-13" x="432.72" y="331.65" width="105.04" height="11.11"/><rect class="cls-13" x="517.38" y="194.74" width="19.49" height="13.78"/><rect class="cls-13" x="517.38" y="210.08" width="19.49" height="0.64"/><rect class="cls-13" x="526.45" y="211.8" width="10.42" height="0.65"/><rect class="cls-13" x="517.41" y="211.8" width="6.97" height="0.65"/><rect class="cls-13" x="517.38" y="213.49" width="19.49" height="0.64"/><rect class="cls-13" x="517.38" y="215.21" width="10.42" height="0.66"/><rect class="cls-13" x="529.84" y="215.21" width="7" height="0.66"/><rect class="cls-10" x="487.13" y="194.74" width="19.49" height="13.78"/><rect class="cls-13" x="487.13" y="210.08" width="19.49" height="0.64"/><rect class="cls-13" x="496.19" y="211.8" width="10.43" height="0.65"/><rect class="cls-13" x="487.15" y="211.8" width="6.99" height="0.65"/><rect class="cls-13" x="487.13" y="213.49" width="19.49" height="0.64"/><rect class="cls-13" x="487.13" y="215.21" width="10.43" height="0.66"/><rect class="cls-13" x="499.59" y="215.21" width="6.99" height="0.66"/><rect class="cls-14" x="457.7" y="194.74" width="19.5" height="13.78"/><rect class="cls-13" x="457.7" y="210.08" width="19.5" height="0.64"/><rect class="cls-13" x="466.75" y="211.8" width="10.44" height="0.65"/><rect class="cls-13" x="457.73" y="211.8" width="6.97" height="0.65"/><rect class="cls-13" x="457.7" y="213.49" width="19.5" height="0.64"/><rect class="cls-13" x="457.7" y="215.21" width="10.43" height="0.66"/><rect class="cls-13" x="470.17" y="215.21" width="6.99" height="0.66"/><rect class="cls-3" x="427.45" y="194.74" width="19.49" height="13.78"/><rect class="cls-13" x="427.45" y="210.08" width="19.49" height="0.64"/><rect class="cls-13" x="436.51" y="211.8" width="10.42" height="0.65"/><rect class="cls-13" x="427.48" y="211.8" width="6.99" height="0.65"/><rect class="cls-13" x="427.45" y="213.49" width="19.49" height="0.64"/><rect class="cls-13" x="427.45" y="215.21" width="10.42" height="0.66"/><rect class="cls-13" x="439.91" y="215.21" width="6.99" height="0.66"/><circle class="cls-10" cx="443.68" cy="160.95" r="19.79"/><rect class="cls-15" x="423.99" y="224.62" width="112.63" height="51.85"/><rect class="cls-10" x="431.02" y="232.5" width="18.13" height="18.62"/><rect class="cls-3" x="454.74" y="232.5" width="18.13" height="18.62"/><rect class="cls-16" x="431.57" y="267.68" width="40.89" height="1.48"/><rect class="cls-16" x="431.57" y="263.76" width="21.87" height="1.48"/><rect class="cls-16" x="457.73" y="263.76" width="14.66" height="1.48"/><rect class="cls-16" x="431.57" y="259.92" width="40.89" height="1.47"/><rect class="cls-16" x="450.59" y="256" width="21.87" height="1.47"/><rect class="cls-16" x="431.64" y="256" width="14.66" height="1.47"/><rect class="cls-3" x="481.52" y="232.5" width="45.6" height="37.15"/><polygon class="cls-10" points="526.45 262.29 516.6 242.66 508.19 263.88 503.09 253.41 497.56 267.44 490.65 248.16 484.35 267.44 481.52 263.05 481.52 269.65 527.12 269.65 527.12 262.1 526.45 262.29"/><polygon class="cls-16" points="514.45 248.1 516.44 246.91 517.38 249.33 517.85 248.12 519.34 248.12 516.6 242.66 514.45 248.1"/><polygon class="cls-16" points="500.9 258.84 502.89 257.66 503.83 260.07 504.31 258.86 505.8 258.86 503.06 253.41 500.9 258.84"/><polygon class="cls-16" points="488.76 253.92 490.51 252.36 491.45 254.78 491.92 253.57 492.72 253.94 490.67 248.11 488.76 253.92"/><polygon class="cls-14" points="437.76 150.99 454.29 161.01 437.76 170.9 437.76 150.99"/><rect class="cls-3" x="473.99" y="154.01" width="60.67" height="13.88"/><rect class="cls-16" x="481.52" y="157.78" width="44.93" height="5.83"/><polygon class="cls-16" points="437.87 155.06 441.3 153.13 437.76 150.99 437.87 155.06"/><rect class="cls-4" x="45.68" y="118.52" width="156" height="226"/><rect class="cls-5" x="49.68" y="115.52" width="156" height="226"/><rect class="cls-17" x="70.04" y="123.08" width="114.37" height="1.47"/><rect class="cls-17" x="70.04" y="127.39" width="114.37" height="1.45"/><rect class="cls-17" x="70.04" y="135.98" width="114.37" height="1.47"/><rect class="cls-17" x="70.04" y="140.28" width="114.37" height="1.46"/><rect class="cls-17" x="70.04" y="131.67" width="114.37" height="1.47"/><rect class="cls-17" x="70.04" y="144.58" width="114.37" height="1.46"/><rect class="cls-17" x="70.04" y="148.87" width="114.37" height="1.47"/><rect class="cls-17" x="70.04" y="157.48" width="114.37" height="1.46"/><rect class="cls-17" x="70.04" y="161.78" width="114.37" height="1.46"/><rect class="cls-17" x="70.04" y="153.18" width="114.37" height="1.47"/><rect class="cls-17" x="70.04" y="166.07" width="114.37" height="1.45"/><rect class="cls-17" x="70.04" y="170.35" width="114.37" height="1.46"/><rect class="cls-17" x="70.04" y="178.93" width="114.37" height="1.46"/><rect class="cls-17" x="70.04" y="183.22" width="114.37" height="1.45"/><rect class="cls-17" x="70.04" y="174.65" width="114.37" height="1.45"/><rect class="cls-17" x="70.04" y="187.5" width="114.37" height="1.46"/><rect class="cls-17" x="70.04" y="191.8" width="114.37" height="1.46"/><rect class="cls-17" x="70.04" y="200.38" width="114.37" height="1.46"/><rect class="cls-17" x="70.04" y="204.68" width="114.37" height="1.47"/><rect class="cls-17" x="70.04" y="196.09" width="114.37" height="1.46"/><rect class="cls-17" x="70.04" y="208.98" width="114.37" height="1.45"/><rect class="cls-17" x="70.04" y="213.26" width="114.37" height="1.46"/><rect class="cls-17" x="70.04" y="221.84" width="114.37" height="1.46"/><rect class="cls-17" x="70.04" y="226.13" width="114.37" height="1.45"/><rect class="cls-17" x="70.04" y="217.56" width="114.37" height="1.45"/><rect class="cls-17" x="70.04" y="230.41" width="114.37" height="1.46"/><rect class="cls-17" x="70.04" y="234.71" width="114.37" height="1.46"/><rect class="cls-17" x="70.04" y="243.29" width="114.37" height="1.46"/><rect class="cls-17" x="70.04" y="247.59" width="114.37" height="1.47"/><rect class="cls-17" x="70.04" y="239" width="114.37" height="1.46"/><rect class="cls-17" x="70.04" y="251.89" width="114.37" height="1.45"/><rect class="cls-17" x="70.04" y="256.17" width="114.37" height="1.46"/><rect class="cls-17" x="70.04" y="264.75" width="114.37" height="1.46"/><rect class="cls-17" x="70.04" y="269.04" width="114.37" height="1.45"/><rect class="cls-17" x="70.04" y="260.47" width="114.37" height="1.45"/><rect class="cls-17" x="70.04" y="273.32" width="114.37" height="1.46"/><rect class="cls-17" x="70.04" y="277.62" width="114.37" height="1.46"/><rect class="cls-17" x="70.04" y="286.2" width="114.37" height="1.46"/><rect class="cls-17" x="70.04" y="290.5" width="114.37" height="1.47"/><rect class="cls-17" x="70.04" y="281.91" width="114.37" height="1.46"/><rect class="cls-17" x="70.04" y="294.8" width="114.37" height="1.45"/><rect class="cls-17" x="70.04" y="299.09" width="114.37" height="1.46"/><rect class="cls-17" x="70.04" y="307.66" width="114.37" height="1.46"/><rect class="cls-17" x="70.04" y="311.95" width="114.37" height="1.45"/><rect class="cls-17" x="70.04" y="303.38" width="114.37" height="1.45"/><rect class="cls-17" x="70.04" y="316.23" width="114.37" height="1.46"/><rect class="cls-17" x="70.04" y="320.53" width="114.37" height="1.46"/><rect class="cls-17" x="70.04" y="329.12" width="114.37" height="1.46"/><rect class="cls-17" x="70.04" y="333.41" width="114.37" height="1.47"/><rect class="cls-17" x="70.04" y="324.82" width="114.37" height="1.46"/><rect class="cls-5" x="66.38" y="118.83" width="73" height="84.05"/><ellipse class="cls-18" cx="96.93" cy="157.48" rx="33.6" ry="35.22"/><polygon class="cls-11" points="77.44 184.24 71.51 178.03 116.64 130.72 122.57 136.94 77.44 184.24"/><rect class="cls-4" x="147.83" y="130.95" width="156" height="226"/><rect class="cls-12" x="150.83" y="127.94" width="156" height="226"/><polygon class="cls-19" points="170.31 144.51 204.8 144.51 223.81 144.51 287.34 144.51 287.34 172.59 223.81 172.59 204.8 172.59 170.31 172.59 170.31 144.51"/><rect class="cls-8" x="170.31" y="187.06" width="53.49" height="36.48"/><rect class="cls-8" x="233.85" y="187.06" width="53.49" height="36.48"/><rect class="cls-10" x="172.51" y="284.68" width="112.63" height="51.85"/><rect class="cls-14" x="172.05" y="233.82" width="34.7" height="41.57"/><rect class="cls-14" x="211.48" y="233.82" width="34.7" height="41.57"/><rect class="cls-14" x="250.01" y="233.82" width="34.7" height="41.57"/><rect class="cls-4" x="272.33" y="149.62" width="162.92" height="226"/><rect class="cls-16" x="276.33" y="148.62" width="156" height="226"/><rect class="cls-17" x="299.46" y="155.19" width="114.37" height="1.47"/><rect class="cls-17" x="299.46" y="159.5" width="114.37" height="1.45"/><rect class="cls-17" x="299.46" y="168.09" width="114.37" height="1.47"/><rect class="cls-17" x="299.46" y="172.4" width="114.37" height="1.46"/><rect class="cls-17" x="299.46" y="163.78" width="114.37" height="1.47"/><rect class="cls-17" x="299.46" y="176.69" width="114.37" height="1.46"/><rect class="cls-17" x="299.46" y="180.98" width="114.37" height="1.47"/><rect class="cls-17" x="299.46" y="189.59" width="114.37" height="1.46"/><rect class="cls-17" x="299.46" y="193.89" width="114.37" height="1.46"/><rect class="cls-17" x="299.46" y="185.29" width="114.37" height="1.47"/><rect class="cls-17" x="299.46" y="198.18" width="114.37" height="1.45"/><rect class="cls-17" x="299.46" y="202.46" width="114.37" height="1.46"/><rect class="cls-17" x="299.46" y="211.04" width="114.37" height="1.46"/><rect class="cls-17" x="299.46" y="215.33" width="114.37" height="1.45"/><rect class="cls-17" x="299.46" y="206.76" width="114.37" height="1.45"/><rect class="cls-17" x="299.46" y="219.61" width="114.37" height="1.46"/><rect class="cls-17" x="299.46" y="223.91" width="114.37" height="1.46"/><rect class="cls-17" x="299.46" y="232.49" width="114.37" height="1.46"/><rect class="cls-17" x="299.46" y="236.79" width="114.37" height="1.47"/><rect class="cls-17" x="299.46" y="228.2" width="114.37" height="1.46"/><rect class="cls-17" x="299.46" y="241.09" width="114.37" height="1.45"/><rect class="cls-17" x="299.46" y="245.37" width="114.37" height="1.46"/><rect class="cls-17" x="299.46" y="253.95" width="114.37" height="1.46"/><rect class="cls-17" x="299.46" y="258.24" width="114.37" height="1.45"/><rect class="cls-17" x="299.46" y="249.67" width="114.37" height="1.45"/><rect class="cls-17" x="299.46" y="262.52" width="114.37" height="1.46"/><rect class="cls-17" x="299.46" y="266.82" width="114.37" height="1.46"/><rect class="cls-17" x="299.46" y="275.4" width="114.37" height="1.46"/><rect class="cls-17" x="299.46" y="279.7" width="114.37" height="1.47"/><rect class="cls-17" x="299.46" y="271.11" width="114.37" height="1.46"/><rect class="cls-17" x="299.46" y="284" width="114.37" height="1.45"/><rect class="cls-17" x="299.46" y="288.28" width="114.37" height="1.46"/><rect class="cls-17" x="299.46" y="296.86" width="114.37" height="1.46"/><rect class="cls-17" x="299.46" y="301.15" width="114.37" height="1.45"/><rect class="cls-17" x="299.46" y="292.58" width="114.37" height="1.45"/><rect class="cls-17" x="299.46" y="305.43" width="114.37" height="1.46"/><rect class="cls-17" x="299.46" y="309.73" width="114.37" height="1.46"/><rect class="cls-17" x="299.46" y="318.32" width="114.37" height="1.46"/><rect class="cls-17" x="299.46" y="322.61" width="114.37" height="1.47"/><rect class="cls-17" x="299.46" y="314.02" width="114.37" height="1.46"/><rect class="cls-17" x="299.46" y="326.91" width="114.37" height="1.45"/><rect class="cls-17" x="299.46" y="331.2" width="114.37" height="1.46"/><rect class="cls-17" x="299.46" y="339.77" width="114.37" height="1.46"/><rect class="cls-17" x="299.46" y="344.06" width="114.37" height="1.45"/><rect class="cls-17" x="299.46" y="335.49" width="114.37" height="1.45"/><rect class="cls-17" x="299.46" y="348.35" width="114.37" height="1.46"/><rect class="cls-17" x="299.46" y="352.64" width="114.37" height="1.46"/><rect class="cls-17" x="299.46" y="361.23" width="114.37" height="1.46"/><rect class="cls-17" x="299.46" y="365.52" width="114.37" height="1.47"/><rect class="cls-17" x="299.46" y="356.93" width="114.37" height="1.46"/><rect class="cls-20" x="341.1" y="166.69" width="64.13" height="4.11"/><rect class="cls-20" x="307.46" y="299.92" width="64.13" height="3.91"/><rect class="cls-9" x="351.69" y="351.41" width="51.49" height="3.91"/><rect class="cls-9" x="360.33" y="260.57" width="46.42" height="3.91"/><rect class="cls-20" x="333.44" y="243.42" width="46.42" height="3.91"/><rect class="cls-9" x="309.19" y="192.66" width="34.83" height="3.91"/><circle class="cls-21" cx="332.49" cy="216.05" r="4.53"/><circle class="cls-21" cx="384.15" cy="276.13" r="4.29"/><circle class="cls-21" cx="325.67" cy="323.34" r="4.25"/><circle class="cls-21" cx="398.73" cy="181.57" r="4.45"/><polygon class="cls-16" points="435.57 226.55 439.25 224.57 435.57 222.34 435.57 226.55"/></svg>