<svg id="Layer_1" data-name="Layer 1" xmlns="http://www.w3.org/2000/svg" xmlns:xlink="http://www.w3.org/1999/xlink" viewBox="0 0 708.66 841.89"><defs><style>.cls-1,.cls-22,.cls-24,.cls-34,.cls-7{fill:none;}.cls-10,.cls-2,.cls-32{fill:#232222;}.cls-3{fill:#b5cfea;}.cls-10,.cls-17,.cls-32,.cls-4{opacity:0.07;}.cls-5{fill:#414242;}.cls-6{fill:#efefef;}.cls-7{stroke:#efefef;stroke-width:18px;}.cls-22,.cls-24,.cls-34,.cls-7{stroke-linecap:round;stroke-linejoin:round;}.cls-8{fill:#6d6d6d;}.cls-9{fill:#606060;}.cls-11{fill:#d3d3d3;}.cls-12{clip-path:url(#clip-path);}.cls-13{fill:#fff;}.cls-14{clip-path:url(#clip-path-2);}.cls-15{clip-path:url(#clip-path-3);}.cls-16{clip-path:url(#clip-path-4);}.cls-17{fill:#070707;}.cls-18{fill:#fccc97;}.cls-19{fill:#979797;}.cls-20{fill:#f8ab8d;}.cls-20,.cls-21,.cls-32{fill-rule:evenodd;}.cls-21{fill:#dc846a;}.cls-22{stroke:#dc846a;stroke-width:2px;}.cls-23{fill:#e5e5e4;}.cls-24{stroke:#b3b2b3;stroke-width:5px;}.cls-25{fill:#8ba9cc;}.cls-26{fill:#8b6339;}.cls-27{fill:#754d24;}.cls-28{fill:#54402b;}.cls-29{fill:#6c4e38;}.cls-30{fill:#ee4256;}.cls-31{fill:#19a4a4;}.cls-33{fill:gray;}.cls-34{stroke:#b5cfea;stroke-width:10px;}.cls-35{clip-path:url(#clip-path-5);}</style><clipPath id="clip-path"><circle class="cls-1" cx="597.65" cy="401.77" r="38.85"/></clipPath><clipPath id="clip-path-2"><circle class="cls-2" cx="356.41" cy="138.95" r="40.01"/></clipPath><clipPath id="clip-path-3"><circle class="cls-1" cx="356.55" cy="137.71" r="40.01"/></clipPath><clipPath id="clip-path-4"><circle class="cls-1" cx="87.05" cy="402.43" r="39.49"/></clipPath><clipPath id="clip-path-5"><circle class="cls-1" cx="1693.48" cy="403.01" r="321.09"/></clipPath></defs><title>CS-L2-U3</title><circle class="cls-3" cx="351.33" cy="419.72" r="157.02"/><g class="cls-4"><rect class="cls-5" x="285.99" y="404.25" width="130.69" height="105.67" rx="25.04" ry="25.04"/><path class="cls-5" d="M299.94,399.15a9,9,0,0,0,9-9c0-27,19-49,42.39-49s42.39,22,42.39,49a9,9,0,0,0,18,0c0-36.94-27.09-67-60.39-67s-60.39,30.05-60.39,67A9,9,0,0,0,299.94,399.15Z"/></g><rect class="cls-6" x="285.99" y="397.38" width="130.69" height="105.67" rx="25.04" ry="25.04"/><path class="cls-7" d="M299.94,383.29c0-32,23-58,51.39-58s51.39,26,51.39,58"/><circle class="cls-8" cx="351.33" cy="443.4" r="13.37"/><rect class="cls-8" x="346.57" y="443.4" width="9.53" height="28.22" rx="4.76" ry="4.76"/><circle class="cls-9" cx="351.33" cy="443.4" r="11.21"/><rect class="cls-9" x="347.92" y="445.86" width="6.83" height="23.51" rx="3.41" ry="3.41"/><circle class="cls-10" cx="593.65" cy="401.08" r="38.85"/><circle class="cls-11" cx="597.65" cy="401.08" r="38.85"/><g class="cls-12"><circle class="cls-13" cx="597.65" cy="393.26" r="15.93"/><path class="cls-13" d="M566.32,443.67a31.33,31.33,0,1,1,62.66,0"/></g><g class="cls-4"><circle class="cls-2" cx="356.41" cy="138.95" r="40.01"/><g class="cls-14"><circle class="cls-2" cx="356.41" cy="132.15" r="14.79"/><path class="cls-2" d="M327.32,179a29.09,29.09,0,0,1,58.18,0"/></g></g><circle class="cls-11" cx="356.09" cy="134.3" r="41.98"/><g class="cls-15"><circle class="cls-13" cx="356.55" cy="130.91" r="14.79"/><path class="cls-13" d="M327.46,177.72a29.09,29.09,0,1,1,58.18,0"/></g><circle class="cls-10" cx="90.2" cy="400.43" r="39.49"/><circle class="cls-11" cx="87.55" cy="400.43" r="39.49"/><g class="cls-16"><circle class="cls-13" cx="87.05" cy="394.17" r="15.43"/><path class="cls-13" d="M56.72,443a30.33,30.33,0,0,1,60.67,0"/></g><circle class="cls-17" cx="552.9" cy="154.18" r="97.49"/><circle class="cls-18" cx="556.29" cy="151.93" r="97.49"/><path class="cls-10" d="M610.23,155.82a12.36,12.36,0,0,0-6.52-10.9,12.35,12.35,0,0,0-4-21.63,12.37,12.37,0,0,0-14.6-17.53A12.35,12.35,0,0,0,567.06,95.2a12.34,12.34,0,0,0-19,.58,12.35,12.35,0,0,0-20,6.54,12.36,12.36,0,0,0-17.41,15.51,12.36,12.36,0,0,0-3,22.28,102.44,102.44,0,0,0,2.77,21.5c.76,19.66,8.24,47.88,31.9,53.07,22.63,1.22,37.34-11,45.39-28.83a4.18,4.18,0,0,0,7-4.54c2.27-3,4.2-9,5.67-13.38A12.37,12.37,0,0,0,610.23,155.82Z"/><g id="_Group_" data-name="&lt;Group&gt;"><path id="_Path_" data-name="&lt;Path&gt;" class="cls-19" d="M523.64,117.41s-11.46-2.33-11.45,21a101.78,101.78,0,0,0,3,22.86l17.39-20.16,18-8L528,124.9Z"/><path id="_Path_2" data-name="&lt;Path&gt;" class="cls-20" d="M546.86,213.54c30.27,1.63,46.36-20.74,51.31-48.52,5.21-29.26-14.38-53.47-38.12-53.55-27-.09-42.76,10.44-45,40.09-1.39,18.62,4.21,55.93,31.78,62Z"/><g id="_Group_2" data-name="&lt;Group&gt;"><line id="_Path_3" data-name="&lt;Path&gt;" class="cls-19" x1="525.81" y1="156.83" x2="536.64" y2="156.28"/><path id="_Path_4" data-name="&lt;Path&gt;" class="cls-19" d="M525.56,158.62a1.81,1.81,0,0,1,.16-3.59l10.82-.55a1.81,1.81,0,0,1,.18,3.61l-10.82.55A1.83,1.83,0,0,1,525.56,158.62Z"/></g><g id="_Group_3" data-name="&lt;Group&gt;"><line id="_Path_5" data-name="&lt;Path&gt;" class="cls-19" x1="554.09" y1="156.28" x2="564.91" y2="156.83"/><path id="_Path_6" data-name="&lt;Path&gt;" class="cls-19" d="M553.83,154.49a1.81,1.81,0,0,0,.16,3.59l10.82.55A1.81,1.81,0,0,0,565,155l-10.82-.55A1.83,1.83,0,0,0,553.83,154.49Z"/></g><circle id="_Path_7" data-name="&lt;Path&gt;" cx="558.15" cy="167.96" r="2.44"/><circle id="_Path_8" data-name="&lt;Path&gt;" cx="532.06" cy="168.8" r="2.44"/><polygon id="_Path_9" data-name="&lt;Path&gt;" class="cls-21" points="545.14 171.77 547.49 186.35 541.44 186.42 545.14 171.77"/><path id="_Path_10" data-name="&lt;Path&gt;" class="cls-22" d="M535.79,192.8a12.58,12.58,0,0,0,9.59,4.46h0A13.5,13.5,0,0,0,555,192.8"/><path id="_Path_11" data-name="&lt;Path&gt;" class="cls-22" d="M557,186.08a14.67,14.67,0,0,0,6.7,10.35h0A15.75,15.75,0,0,0,575.94,198"/><path id="_Path_12" data-name="&lt;Path&gt;" class="cls-22" d="M534.22,186.08a8.69,8.69,0,0,1-2.57,6.63h0a9.32,9.32,0,0,1-6.65,2.53"/><circle id="_Path_13" data-name="&lt;Path&gt;" class="cls-19" cx="518.79" cy="128.52" r="12.37"/><circle id="_Path_14" data-name="&lt;Path&gt;" class="cls-19" cx="602.38" cy="154.69" r="12.37"/><path id="_Path_15" data-name="&lt;Path&gt;" class="cls-19" d="M588.42,170.53s-11-2-9.78-20c-6.55-1-39.65,7.42-49.76-32.76,8.13-16.47,22.55-18.7,38.24-16,23.2,3.91,47.82,21.37,34.17,66.37C600.27,171.41,591.69,168,588.42,170.53Z"/><circle id="_Path_16" data-name="&lt;Path&gt;" class="cls-19" cx="600.68" cy="134.01" r="12.37"/><circle id="_Path_17" data-name="&lt;Path&gt;" class="cls-19" cx="593.26" cy="116.46" r="12.37"/><circle id="_Path_18" data-name="&lt;Path&gt;" class="cls-19" cx="562.31" cy="102.24" r="12.37"/><circle id="_Path_19" data-name="&lt;Path&gt;" class="cls-19" cx="577.28" cy="105.04" r="12.37"/><circle id="_Path_20" data-name="&lt;Path&gt;" class="cls-19" cx="544.59" cy="104.09" r="12.37"/><circle id="_Path_21" data-name="&lt;Path&gt;" class="cls-19" cx="526.61" cy="112.01" r="12.37"/><g id="_Group_4" data-name="&lt;Group&gt;"><g id="_Group_5" data-name="&lt;Group&gt;"><path id="_Path_22" data-name="&lt;Path&gt;" class="cls-20" d="M587.51,161.33s1.1-2.52,5-5.22c7.74-5.36,16.75-1,13.31,8.17-2.4,6.41-6.49,22.28-11.5,16.57C590.47,176.48,587.71,169.8,587.51,161.33Z"/><polygon id="_Path_23" data-name="&lt;Path&gt;" class="cls-21" points="593.46 162.27 603.62 160.56 595.96 174.49 598.54 163.01 593.46 162.27"/></g><circle id="_Path_24" data-name="&lt;Path&gt;" class="cls-23" cx="595.65" cy="182.29" r="4.19"/></g><path id="_Path_25" data-name="&lt;Path&gt;" class="cls-22" d="M566,167.93h4.37"/><path id="_Path_26" data-name="&lt;Path&gt;" class="cls-22" d="M521,169.07l3.05-.29"/></g><line class="cls-24" x1="508.52" y1="269.77" x2="599.65" y2="269.77"/><line class="cls-24" x1="508.52" y1="280.27" x2="599.65" y2="280.27"/><line class="cls-24" x1="508.52" y1="290.76" x2="599.65" y2="290.76"/><line class="cls-24" x1="508.52" y1="301.26" x2="564.91" y2="301.26"/><circle class="cls-17" cx="162.75" cy="153.88" r="98.47"/><circle class="cls-25" cx="157.82" cy="151.41" r="98.47"/><path class="cls-10" d="M218.67,119.81H208.31s3.26-2.77,5.33-9v0a36.27,36.27,0,0,0,2.28-10.43c.06-.57.08-.88.08-.88H198.82S181.62,87,162.5,88.58c-30.14,2.54-40.1,21.91-40.1,21.91a32.5,32.5,0,0,0-13-2.31c3.92,4.54,6.22,6.54,8,13.06-2.8,7.22-3.23,17.51-3,25.42-4.06,1.21-6.48,5.25-4.3,11.08,2.62,7,7.08,24.32,12.54,18.08a24.91,24.91,0,0,0,1.56-2c7.38,25.5,24.62,44.49,54,42.91,30.33-6.66,36.49-47.7,35-68.18a71.63,71.63,0,0,0-2.84-15.9,15.86,15.86,0,0,0,6.33-5.47C219.28,122.93,218.67,119.81,218.67,119.81Z"/><path id="_Path_27" data-name="&lt;Path&gt;" class="cls-20" d="M172,215.53c-33.3,1.79-51-22.81-56.44-53.37-5.73-32.19,15.82-58.82,41.93-58.9,29.7-.1,47,11.48,49.47,44.1,1.53,20.48-4.63,61.52-35,68.18Z"/><path id="_Path_28" data-name="&lt;Path&gt;" class="cls-26" d="M111.21,120c-3.29,8.48-3.3,21.22-2.87,29.33a8.11,8.11,0,0,1,6.93-1.72,9.7,9.7,0,0,1,1.1.26h0l.54.18.54.2.57.26.4.2c.22.11.45.24.67.37l.52.33.52.36.49.38.49.41c.32.28.63.58.93.89,0,0,0,.06,0,.09s.12.15.18.22l.1.14s.07.1.12.15a.32.32,0,0,1,0,.07l0,.06,0,.05a.4.4,0,0,1,0,.09v14.79c0,1.94.3,3.69,1.58,5a8,8,0,0,0,.68.75,10.58,10.58,0,0,0,4.51,1.31c3.86,0,7.76-3.17,7.76-7v-5.29a7.64,7.64,0,0,1,7-7.64l1.34-.1c.1-6,.05-10.8,0-13.76-.06-3.68,1.31-6.11,9.45-6.93l.24,0c.71-.07,1.47-.13,2.29-.17h.17c1.41-.07,3-.11,4.73-.11h37.43l.43-.11c1.6-.45,7.3-2.33,10.24-7,2.68-4.29,2.07-7.41,2.07-7.41H202.15s3.26-2.77,5.33-9a49.08,49.08,0,0,0,2.37-11.35H192.67s-17.2-12.51-36.32-10.9c-30.14,2.54-40.1,21.91-40.1,21.91a32.5,32.5,0,0,0-13-2.31C107.14,111.49,109.44,113.49,111.21,120Z"/><path id="_Path_29" data-name="&lt;Path&gt;" class="cls-27" d="M157.61,133.21c1.41-.07,3-.11,4.73-.11h37.43l.43-.11c1.6-.45,7.3-2.33,10.24-7,2.68-4.29,2.07-7.41,2.07-7.41s-8.92,10-14.62,11.07l-.45.07C191.64,130.62,166,132.58,157.61,133.21Z"/><g id="_Group_6" data-name="&lt;Group&gt;"><line id="_Path_30" data-name="&lt;Path&gt;" class="cls-26" x1="194.66" y1="151" x2="182.85" y2="150.4"/><path id="_Path_31" data-name="&lt;Path&gt;" class="cls-26" d="M194.94,153a2,2,0,0,0-.18-3.92l-11.81-.6a2,2,0,0,0-.2,3.94l11.81.6A2,2,0,0,0,194.94,153Z"/></g><g id="_Group_7" data-name="&lt;Group&gt;"><line id="_Path_32" data-name="&lt;Path&gt;" class="cls-26" x1="163.81" y1="150.4" x2="151.99" y2="151"/><path id="_Path_33" data-name="&lt;Path&gt;" class="cls-26" d="M164.08,148.45a2,2,0,0,1-.18,3.92l-11.81.6a2,2,0,1,1-.2-3.94l11.81-.6A2,2,0,0,1,164.08,148.45Z"/></g><circle id="_Path_34" data-name="&lt;Path&gt;" cx="159.37" cy="163.15" r="2.66"/><circle id="_Path_35" data-name="&lt;Path&gt;" cx="187.84" cy="164.06" r="2.66"/><path id="_Path_36" data-name="&lt;Path&gt;" class="cls-27" d="M209.85,98.24s-6.66,15.17-16.06,19c-8,3.27-47,4.52-47,4.52a66.57,66.57,0,0,0,12.1,2.89c3.55.37,37.87,1.44,43.26-6.09C206.87,113.19,209.49,105.77,209.85,98.24Z"/><g id="_Group_8" data-name="&lt;Group&gt;"><path id="_Path_37" data-name="&lt;Path&gt;" class="cls-20" d="M123.86,153.29s-1.2-2.75-5.44-5.69c-8.44-5.85-18.28-1.11-14.53,8.92,2.62,7,7.08,24.32,12.54,18.08C120.61,169.82,123.64,162.53,123.86,153.29Z"/><polygon id="_Path_38" data-name="&lt;Path&gt;" class="cls-21" points="117.36 154.31 106.27 152.44 114.63 167.65 111.81 155.12 117.36 154.31"/></g><polygon id="_Path_39" data-name="&lt;Path&gt;" class="cls-21" points="173.85 159.35 173.49 182.52 178.46 181.39 173.85 159.35"/><path id="_Path_40" data-name="&lt;Path&gt;" class="cls-22" d="M187.84,189.38a18.84,18.84,0,0,1-14.35,6.67h0c-6.29,0-12.37-4-14.35-6.67"/><line class="cls-24" x1="106.99" y1="268.89" x2="206.43" y2="268.89"/><line class="cls-24" x1="106.99" y1="280.34" x2="206.43" y2="280.34"/><line class="cls-24" x1="106.99" y1="291.8" x2="206.43" y2="291.8"/><line class="cls-24" x1="106.99" y1="303.25" x2="168.52" y2="303.25"/><circle class="cls-17" cx="567.5" cy="666.11" r="91.64"/><circle class="cls-25" cx="563.92" cy="667.31" r="91.64"/><path class="cls-10" d="M620.33,669.7A116.68,116.68,0,0,0,623,646.43c0-25-11.29-24.73-13.12-24.52-9.53-18.84-26.25-21.4-44.45-18.33a62.19,62.19,0,0,0-24.11,9.19,13.61,13.61,0,0,0-6.11-5.4c-8.31-3.63-18.82,2-23.47,12.68s-1.69,22.21,6.62,25.84a13,13,0,0,0,3,.88A78,78,0,0,0,522.93,671c-1,1.89-1.2,4.45,0,7.53,1.58,4.24,3.87,12.38,6.65,16.43a4.87,4.87,0,1,0,7.36,6.39c8,21.3,24.08,36.4,49.9,35,29.19-6.41,35.12-45.9,33.64-65.61C620.4,670.37,620.36,670,620.33,669.7Z"/><g id="_Group_9" data-name="&lt;Group&gt;"><path id="_Path_41" data-name="&lt;Path&gt;" class="cls-28" d="M602.45,620.75s13.38-2.73,13.38,24.49a118.88,118.88,0,0,1-3.46,26.7l-20.31-23.55L571,639l26.27-9.49Z"/><g id="_Group_10" data-name="&lt;Group&gt;"><path id="_Path_42" data-name="&lt;Path&gt;" class="cls-20" d="M579.62,735.14c-32,1.72-49.08-22-54.32-51.36-5.52-31,15.22-56.6,40.35-56.68,28.58-.09,45.26,11.05,47.61,42.44,1.47,19.71-4.45,59.2-33.64,65.61Z"/><g id="_Group_11" data-name="&lt;Group&gt;"><line id="_Path_43" data-name="&lt;Path&gt;" class="cls-26" x1="607.75" y1="671.47" x2="595.69" y2="670.86"/><path id="_Path_44" data-name="&lt;Path&gt;" class="cls-26" d="M608,673.47a2,2,0,0,0-.18-4l-12.06-.61a2,2,0,1,0-.2,4l12.06.61A2,2,0,0,0,608,673.47Z"/></g><g id="_Group_12" data-name="&lt;Group&gt;"><line id="_Path_45" data-name="&lt;Path&gt;" class="cls-26" x1="576.25" y1="670.86" x2="564.19" y2="671.47"/><path id="_Path_46" data-name="&lt;Path&gt;" class="cls-26" d="M576.53,668.87a2,2,0,0,1-.18,4l-12.06.61a2,2,0,0,1-.2-4l12.06-.61A2,2,0,0,1,576.53,668.87Z"/></g><circle id="_Path_47" data-name="&lt;Path&gt;" cx="571.72" cy="683.88" r="2.72"/><circle id="_Path_48" data-name="&lt;Path&gt;" cx="600.79" cy="684.81" r="2.72"/><polygon id="_Path_49" data-name="&lt;Path&gt;" class="cls-21" points="586.5 679.99 586.13 703.65 591.21 702.5 586.5 679.99"/><path id="_Path_50" data-name="&lt;Path&gt;" class="cls-13" d="M585.08,719.13c6.81,0,12.79-3.69,12.79-7.89v-1H571.61v1c0,3.83,4,7.89,11.43,7.89Z"/></g><ellipse id="_Path_51" data-name="&lt;Path&gt;" class="cls-28" cx="519.62" cy="625.43" rx="21.02" ry="16.42" transform="translate(-261.61 850.91) rotate(-66.38)"/><path id="_Path_52" data-name="&lt;Path&gt;" class="cls-29" d="M530.78,687.3s14.09,2.63,12.18-12.42c7.64-1.19,44.91-17,60-53.75-9.49-19.23-26.33-21.84-44.66-18.74-27.09,4.57-55.85,25-39.9,77.51C519.55,683.81,527,684.31,530.78,687.3Z"/><g id="_Group_13" data-name="&lt;Group&gt;"><path id="_Path_53" data-name="&lt;Path&gt;" class="cls-20" d="M535.09,674.18s-1.16-2.67-5.28-5.52c-8.19-5.68-17.73-1.08-14.09,8.65,2.54,6.79,6.87,23.59,12.17,17.54C531.94,690.21,534.87,683.13,535.09,674.18Z"/><polygon id="_Path_54" data-name="&lt;Path&gt;" class="cls-21" points="528.78 675.16 518.02 673.35 526.13 688.11 523.4 675.95 528.78 675.16"/></g><circle id="_Path_55" data-name="&lt;Path&gt;" class="cls-30" cx="526.01" cy="696.97" r="4.89"/></g><line class="cls-24" x1="519.51" y1="780.34" x2="615.97" y2="780.34"/><line class="cls-24" x1="519.51" y1="791.45" x2="615.97" y2="791.45"/><line class="cls-24" x1="519.51" y1="802.56" x2="615.97" y2="802.56"/><line class="cls-24" x1="519.51" y1="813.67" x2="579.19" y2="813.67"/><circle class="cls-17" cx="150.15" cy="665.8" r="93.5"/><circle class="cls-31" cx="153.84" cy="669.49" r="93.5"/><path class="cls-32" d="M195.92,658.51c.07-7.1-.47-15.7-2.88-21.89,1.66-6.12,3.82-8,7.51-12.27a30.53,30.53,0,0,0-12.24,2.17s-9.36-18.2-37.68-20.59c-18-1.52-34.13,10.24-34.13,10.24H100.35s0,.3.07.83a34.09,34.09,0,0,0,2.14,9.8v0c1.95,5.84,5,8.44,5,8.44H97.85s-.57,2.93,1.95,7a13.89,13.89,0,0,0,4.42,4.27,66.06,66.06,0,0,0-4,19,91.38,91.38,0,0,0,.1,13.66c-.05-.16-.12-.31-.17-.47a42.56,42.56,0,0,0,1.11,8.46c1.68,10.68,5.22,22,11.57,30.87a24.64,24.64,0,0,0,3.27,9.79,14.37,14.37,0,0,0,8.93,6.7l10.1,2.4a14.26,14.26,0,0,0,14.14-4.85c21.48-4.51,34.31-22.32,40-44.51.12.14.23.3.35.44,5.46,6.23,9.92-11.07,12.53-18.07C204.66,663.23,201.08,658.9,195.92,658.51Z"/><path id="_Path_56" data-name="&lt;Path&gt;" class="cls-20" d="M142.3,731.87c33,1.77,50.55-22.61,55.95-52.91,5.68-31.91-15.68-58.3-41.56-58.38-29.44-.09-46.62,11.38-49,43.71-1.52,20.3,4.59,61,34.65,67.58Z"/><path id="_Path_57" data-name="&lt;Path&gt;" class="cls-19" d="M200.42,635.4c3.1,8,3.1,19.94,2.7,27.56a7.62,7.62,0,0,0-6.51-1.62,9.11,9.11,0,0,0-1,.25h0l-.51.17-.51.19-.53.24-.38.19-.63.34-.49.31-.49.33-.46.36-.46.39c-.3.27-.59.55-.87.84,0,0,0,.06,0,.09s-.11.14-.17.21l-.09.13-.11.14a.3.3,0,0,0,0,.07l0,.06,0,.05a.38.38,0,0,0,0,.09v13.9a6.23,6.23,0,0,1-1.48,4.66,7.56,7.56,0,0,1-.64.7,9.94,9.94,0,0,1-4.24,1.23c-3.63,0-7.29-3-7.29-6.6v-5a7.18,7.18,0,0,0-6.59-7.17l-1.26-.09c-.09-5.66-.05-10.14,0-12.93.06-3.46-1.23-5.74-8.88-6.51l-.22,0c-.67-.07-1.38-.12-2.15-.16h-.16c-1.33-.07-2.8-.1-4.44-.1H117.2l-.4-.1c-1.5-.42-6.86-2.19-9.62-6.59-2.52-4-1.95-7-1.95-7H115s-3.06-2.6-5-8.44a46.11,46.11,0,0,1-2.23-10.67h16.15S140,603.19,158,604.71c28.32,2.38,37.68,20.59,37.68,20.59a30.53,30.53,0,0,1,12.24-2.17C204.25,627.4,202.08,629.27,200.42,635.4Z"/><path id="_Path_58" data-name="&lt;Path&gt;" class="cls-33" d="M156.82,647.8c-1.33-.07-2.8-.1-4.44-.1H117.2l-.4-.1c-1.5-.42-6.86-2.19-9.62-6.59-2.52-4-1.95-7-1.95-7s8.38,9.44,13.74,10.4l.42.07C124.84,645.37,148.9,647.21,156.82,647.8Z"/><path id="_Path_59" data-name="&lt;Path&gt;" class="cls-19" d="M164.36,701.13l-.81,5-1.83,11.34,0,.12-.58,3.64c-1.68,10-10,16.48-18.56,14.44l-10.1-2.4a14.37,14.37,0,0,1-8.93-6.7A26.17,26.17,0,0,1,120,714.11l.51-16.39c.74-4.37,1.85-6.05,5.65-6H159C162.68,692.59,165.06,696.79,164.36,701.13Z"/><path id="_Path_60" data-name="&lt;Path&gt;" class="cls-13" d="M138.2,707.76c-6.82,0-12.8-3.69-12.8-7.9v-1h26.28v1c0,3.83-4,7.9-11.44,7.9Z"/><path id="_Path_61" data-name="&lt;Path&gt;" class="cls-33" d="M107.74,614.94s6.26,14.26,15.09,17.87c7.5,3.07,44.16,4.25,44.16,4.25a62.55,62.55,0,0,1-11.36,2.72c-3.34.35-35.58,1.36-40.65-5.72A31.43,31.43,0,0,1,107.74,614.94Z"/><path id="_Path_62" data-name="&lt;Path&gt;" class="cls-19" d="M187.62,685a31.85,31.85,0,0,1-5.45,4.24c-7.26,4.81-17.54,10.58-20.43,23.71l0,.1c-1.37,6.31-2.66,5.61-3.58,2-1.58-6.21-2-21,.13-23.76h0c6.22,0,17.83-4.06,17.83-11.65S195,678.43,187.62,685Z"/><path id="_Path_63" data-name="&lt;Path&gt;" class="cls-19" d="M120.15,712.12c.24-7.13-12-15.6-12.57-34.63a19.17,19.17,0,0,0,18.59,13.84C128.46,694.17,121.88,706.57,120.15,712.12Z"/><path id="_Path_64" data-name="&lt;Path&gt;" class="cls-33" d="M182.17,689.28c-7.26,5.72-17.54,12.59-20.43,28.22l0,.12-.58,3.64c-1.68,10-10,16.48-18.56,14.44l-10.1-2.4a14.37,14.37,0,0,1-8.93-6.7s8.3,3.6,15.87,4.29S156.12,729,158.13,720h0a53.51,53.51,0,0,1,5.43-13.83C167.6,698.92,173.75,691.83,182.17,689.28Z"/><g id="_Group_14" data-name="&lt;Group&gt;"><line id="_Path_65" data-name="&lt;Path&gt;" class="cls-19" x1="114.77" y1="660.54" x2="126.57" y2="659.94"/><path id="_Path_66" data-name="&lt;Path&gt;" class="cls-19" d="M114.49,662.49a2,2,0,0,1,.18-3.92l11.8-.6a2,2,0,1,1,.2,3.93l-11.8.6A2,2,0,0,1,114.49,662.49Z"/></g><g id="_Group_15" data-name="&lt;Group&gt;"><line id="_Path_67" data-name="&lt;Path&gt;" class="cls-19" x1="148.06" y1="659.94" x2="159.86" y2="660.54"/><path id="_Path_68" data-name="&lt;Path&gt;" class="cls-19" d="M147.78,658a2,2,0,0,0,.18,3.92l11.8.6a2,2,0,1,0,.2-3.93l-11.8-.6A2,2,0,0,0,147.78,658Z"/></g><circle id="_Path_69" data-name="&lt;Path&gt;" cx="152.49" cy="672.68" r="2.66"/><circle id="_Path_70" data-name="&lt;Path&gt;" cx="121.58" cy="673.59" r="2.66"/><polygon id="_Path_71" data-name="&lt;Path&gt;" class="cls-21" points="138.03 671.5 138.38 688.34 133.41 687.52 138.03 671.5"/><path id="_Path_72" data-name="&lt;Path&gt;" class="cls-22" d="M162.41,676.27a13.87,13.87,0,0,1-8.23,2.43h0a14.9,14.9,0,0,1-8.23-2.43"/><path id="_Path_73" data-name="&lt;Path&gt;" class="cls-22" d="M129.69,676.27a13.87,13.87,0,0,1-8.23,2.43h0a14.9,14.9,0,0,1-8.23-2.43"/><g id="_Group_16" data-name="&lt;Group&gt;"><path id="_Path_74" data-name="&lt;Path&gt;" class="cls-20" d="M189.58,665.49s1.2-2.75,5.44-5.69c8.44-5.85,18.26-1.11,14.51,8.91-2.61,7-7.07,24.29-12.53,18.07C192.82,682,189.8,674.71,189.58,665.49Z"/><polygon id="_Path_75" data-name="&lt;Path&gt;" class="cls-21" points="196.07 666.5 207.15 664.64 198.8 679.83 201.61 667.31 196.07 666.5"/></g><line class="cls-24" x1="108.09" y1="781.52" x2="207.44" y2="781.52"/><line class="cls-24" x1="108.09" y1="792.96" x2="207.44" y2="792.96"/><line class="cls-24" x1="108.09" y1="804.41" x2="207.44" y2="804.41"/><line class="cls-24" x1="108.09" y1="815.85" x2="169.57" y2="815.85"/><line class="cls-34" x1="241.37" y1="239.26" x2="270.85" y2="268.74"/><line class="cls-34" x1="459.83" y1="239.26" x2="430.35" y2="268.74"/><line class="cls-34" x1="459.83" y1="600.73" x2="430.35" y2="571.24"/><line class="cls-34" x1="241.37" y1="600.73" x2="270.85" y2="571.24"/><path class="cls-13" d="M278.07,432.19c-12.4,3.56-15.29,6.45-18.85,18.85-3.56-12.4-6.45-15.29-18.85-18.85,12.4-3.56,15.29-6.45,18.85-18.85C262.78,425.74,265.67,428.63,278.07,432.19Z"/><path class="cls-13" d="M443.22,335.81c-12.4,3.56-15.29,6.45-18.85,18.85-3.56-12.4-6.45-15.29-18.85-18.85,12.4-3.56,15.29-6.45,18.85-18.85C427.93,329.36,430.82,332.25,443.22,335.81Z"/><path class="cls-13" d="M448.19,475.69c-6.2,1.78-7.64,3.23-9.42,9.42-1.78-6.2-3.23-7.64-9.42-9.42,6.2-1.78,7.64-3.23,9.42-9.42C440.55,472.47,442,473.91,448.19,475.69Z"/></svg>