<svg id="Layer_1" data-name="Layer 1" xmlns="http://www.w3.org/2000/svg" xmlns:xlink="http://www.w3.org/1999/xlink" viewBox="0 0 708.66 481.89"><defs><style>.cls-1{fill:none;}.cls-2{fill:#ffe4cc;}.cls-3{opacity:0.07;}.cls-18,.cls-4{font-size:48px;font-family:Impact, Impact;}.cls-5{fill:#ffcaad;}.cls-6{clip-path:url(#clip-path);}.cls-7{fill:#c48562;}.cls-8{fill:#b57b5b;}.cls-9{fill:#fcb97e;}.cls-10,.cls-18{fill:#fff;}.cls-11{fill:#2f6396;}.cls-12{fill:#244c73;}.cls-13{fill:#e7685d;}.cls-14{fill:#515180;}.cls-15{fill:#a5bdd3;}.cls-16{fill:#ffdc83;}.cls-17{fill:#91b985;}.cls-19{fill:#c14e48;}.cls-20{fill:#b4d3a9;}</style><clipPath id="clip-path"><rect class="cls-1" x="41.68" y="17" width="622" height="249.93" rx="26.5" ry="26.5"/></clipPath></defs><title>CS-L2-U9</title><rect class="cls-2" x="47.3" y="17" width="622" height="249.93" rx="26.5" ry="26.5"/><g class="cls-3"><path d="M204.81,465c0,3.56-1.36,6.42-3,6.42H174.63c-1.68,0-3-2.87-3-6.42V176.84c0-3.55,1.36-6.42,3-6.42h27.14c1.68,0,3,2.87,3,6.42Z"/><path d="M239.76,466.4c0,3.33-1.15,6-2.58,6H214.12c-1.43,0-2.58-2.69-2.58-6v-270c0-3.32,1.16-6,2.58-6h23.06c1.43,0,2.58,2.69,2.58,6Z"/><path d="M302,465.91a5.26,5.26,0,0,1-5,5.51H252.72a5.26,5.26,0,0,1-5-5.51V218.5a5.26,5.26,0,0,1,5-5.51H297a5.26,5.26,0,0,1,5,5.51Z"/><path d="M365.3,385a5.61,5.61,0,0,1-5.3,5.88H312.78a5.61,5.61,0,0,1-5.3-5.88V121.37c0-3.24,2.37-5.88,5.3-5.88H360c2.93,0,5.3,2.64,5.3,5.88Z"/><path d="M399,466.4c0,3.33-1.15,6-2.58,6H373.38c-1.43,0-2.58-2.69-2.58-6v-270c0-3.32,1.16-6,2.58-6h23.06c1.43,0,2.58,2.69,2.58,6Z"/><path d="M461.26,468.4a5.26,5.26,0,0,1-5,5.51H412a5.26,5.26,0,0,1-5-5.51V221a5.26,5.26,0,0,1,5-5.51H456.3a5.26,5.26,0,0,1,5,5.51Z"/><path d="M524.57,465.54a5.61,5.61,0,0,1-5.3,5.88H472a5.61,5.61,0,0,1-5.3-5.88V201.87c0-3.24,2.37-5.88,5.3-5.88h47.22c2.93,0,5.3,2.64,5.3,5.88Z"/><path d="M109.6,466.7c-.7,2.94-2.42,5-3.84,4.68l-23-5.48c-1.43-.34-2-3-1.32-5.9L138,222.69c.69-2.92,2.41-5,3.83-4.67l23,5.48c1.42.34,2,3,1.32,5.91Z"/><path d="M622.76,457.39c.64,3.49-.72,6.66-3.05,7.08l-37.59,6.91c-2.32.42-4.73-2.05-5.37-5.55l-52-283.43c-.64-3.49.73-6.66,3.06-7.09l37.6-6.9c2.33-.43,4.73,2,5.37,5.54Z"/><text class="cls-4" transform="translate(356.2 333.71) rotate(-90)">POLICIES</text></g><path class="cls-5" d="M346.91,144.86c3.56,2.94,8.48-3.3,8.39-5.76s-8-4.22-8-4.22C345,134.25,343.35,141.92,346.91,144.86Z"/><g class="cls-6"><path class="cls-7" d="M300.43,155.36,320,153.63s30-24.61,32.45-39.25S363,95,363,95c5.62-7.2-52.92,12.93-52.92,12.93l-11.29,34.32Z"/><path class="cls-8" d="M316.81,146.46,323,140l13.66-35.34-3.79-.71a21.57,21.57,0,0,0-3.06,6.4C329.18,113.3,316.81,146.46,316.81,146.46Z"/><path class="cls-8" d="M332.7,136.52l6.15-6.41,13.66-35.34-3.79-.71a21.57,21.57,0,0,0-3.06,6.4C345.07,103.35,332.7,136.52,332.7,136.52Z"/><path class="cls-9" d="M302.89,164.66c3.25-8.83,11.84-43,15.57-49.47s40.4-19,40.4-19,5.78-5.55,9.56,5.95L360.66,123a40.46,40.46,0,0,1-4.42,8.37c-6.18,9.2-5.91,22.16-5.91,22.16s1.08,12,11,5c7-5,14.14-22,15.9-26.11,6.07-14.3,12-16.58,18.46-23.14s14.22-22.62,14.57-31,13.64-23.79,13.64-23.79l-31-29.77s-62.83,46.61-79.23,57.89c-19.53,13.43-23.28,87-23.28,87S299.64,173.49,302.89,164.66Z"/><polygon class="cls-10" points="428.5 55.35 386.4 21.4 376.99 30.69 416.79 67.35 428.5 55.35"/><path class="cls-11" d="M628.82-60.83c53.84-11.11,89.68-2.4,90-2.31l-.2-.05,15.26-57.42c-1.88-.5-46.73-12.07-113,.77-38,7.37-75.88,21.29-112.47,41.35C463.39-53.78,420.1-19.6,379.79,23.1L423,63.89C486.07-2.93,557.25-46.06,628.82-60.83Z"/><path class="cls-12" d="M518.39-62.5c36.59-20.06,74.43-34,112.47-41.35,45.73-8.87,81.26-6.09,99.5-3.36l3.56-13.41c-1.88-.5-46.73-12.07-113,.77-38,7.37-75.88,21.29-112.47,41.35C463.39-53.78,420.1-19.6,379.79,23.1L393,35.61C432.4-5.45,474.54-38.46,518.39-62.5Z"/></g><path class="cls-13" d="M199.81,465c0,3.56-1.36,6.42-3,6.42H169.63c-1.68,0-3-2.87-3-6.42V176.84c0-3.55,1.36-6.42,3-6.42h27.14c1.68,0,3,2.87,3,6.42Z"/><path class="cls-14" d="M234.76,466.4c0,3.33-1.15,6-2.58,6H209.11c-1.43,0-2.58-2.69-2.58-6v-270c0-3.32,1.16-6,2.58-6h23.06c1.43,0,2.58,2.69,2.58,6Z"/><path class="cls-15" d="M297,465.91a5.26,5.26,0,0,1-5,5.51H247.72a5.26,5.26,0,0,1-5-5.51V218.5a5.26,5.26,0,0,1,5-5.51H292a5.26,5.26,0,0,1,5,5.51Z"/><path class="cls-14" d="M360.3,385a5.61,5.61,0,0,1-5.3,5.88H307.78a5.61,5.61,0,0,1-5.3-5.88V121.37c0-3.24,2.37-5.88,5.3-5.88H355c2.93,0,5.3,2.64,5.3,5.88Z"/><path class="cls-16" d="M394,466.4c0,3.33-1.15,6-2.58,6H368.38c-1.43,0-2.58-2.69-2.58-6v-270c0-3.32,1.16-6,2.58-6h23.06c1.43,0,2.58,2.69,2.58,6Z"/><path class="cls-13" d="M456.26,468.4a5.26,5.26,0,0,1-5,5.51H407a5.26,5.26,0,0,1-5-5.51V221a5.26,5.26,0,0,1,5-5.51H451.3a5.26,5.26,0,0,1,5,5.51Z"/><path class="cls-14" d="M519.57,465.54a5.61,5.61,0,0,1-5.3,5.88H467a5.61,5.61,0,0,1-5.3-5.88V201.87c0-3.24,2.37-5.88,5.3-5.88h47.22c2.93,0,5.3,2.64,5.3,5.88Z"/><path class="cls-14" d="M104.6,466.7c-.7,2.94-2.42,5-3.84,4.68l-23-5.48c-1.43-.34-2-3-1.32-5.9L133,222.69c.69-2.92,2.41-5,3.83-4.67l23,5.48c1.42.34,2,3,1.32,5.91Z"/><path class="cls-17" d="M617.76,457.39c.64,3.49-.72,6.66-3.05,7.08l-37.59,6.91c-2.32.42-4.73-2.05-5.37-5.55l-52-283.43c-.64-3.49.73-6.66,3.06-7.09l37.6-6.9c2.33-.43,4.73,2,5.37,5.54Z"/><text class="cls-18" transform="translate(351.19 333.71) rotate(-90)">POLICIES</text><rect class="cls-19" x="182.17" y="242.61" width="17.63" height="162.68"/><rect class="cls-19" x="402.02" y="252.51" width="52.99" height="34.56"/><rect class="cls-19" x="402.02" y="358.86" width="52.99" height="8.05"/><polygon class="cls-20" points="542.25 305.15 563.67 421.25 609.93 411.75 587.92 297.79 542.25 305.15"/></svg>