<svg id="Layer_1" data-name="Layer 1" xmlns="http://www.w3.org/2000/svg" viewBox="0 0 708.66 667.91"><defs><style>.cls-1{fill:#ffdc83;}.cls-2{fill:#b0b7b7;}.cls-3{fill:#f7f7f7;}.cls-4{fill:#556566;}.cls-5{fill:#90c2f4;}.cls-6{fill:#e5e5e5;}.cls-7{fill:#f7fafa;}.cls-8{fill:#fff;}.cls-9{fill:#eef5f5;}.cls-10{fill:#b5c5c6;}.cls-11{fill:#c5d5d6;}.cls-12{fill:#161515;opacity:0.07;}.cls-13,.cls-22{fill:#f8ab8d;}.cls-14{fill:#405aa8;}.cls-15,.cls-26,.cls-27,.cls-28{fill:none;}.cls-15{stroke:#648ec9;stroke-width:3px;}.cls-15,.cls-28{stroke-miterlimit:10;}.cls-16{fill:#3f5aa8;}.cls-17{fill:#353560;}.cls-18{fill:#b3b2b3;}.cls-19{fill:#4d4e4e;}.cls-20,.cls-25{fill:#dc846a;}.cls-21{fill:#648ec9;}.cls-22,.cls-25{fill-rule:evenodd;}.cls-23{fill:#8b6339;}.cls-24{fill:#754d24;}.cls-26{stroke:#dc846a;stroke-width:2px;}.cls-26,.cls-27{stroke-linecap:round;stroke-linejoin:round;}.cls-27{stroke:#fff;stroke-width:0.84px;}.cls-28{stroke:#2d2d2b;stroke-width:0.28px;}.cls-29{fill:#e5e5e4;}.cls-30{fill:#eeefef;}.cls-31{fill:#a4a6a9;}.cls-32{fill:#b9bbbd;}</style></defs><title>CS-L2-U3</title><circle class="cls-1" cx="340.51" cy="319.67" r="285.74"/><rect class="cls-2" x="263.79" y="441.14" width="38.13" height="15.58"/><path class="cls-3" d="M353.93,351v84.94a9.24,9.24,0,0,1-9.26,9.23H221a9.21,9.21,0,0,1-9.23-9.23V351a9.27,9.27,0,0,1,9.23-9.23H344.67A9.29,9.29,0,0,1,353.93,351Z"/><path class="cls-4" d="M353.93,351v74.58H211.78V351a9.27,9.27,0,0,1,9.23-9.23H344.67A9.29,9.29,0,0,1,353.93,351Z"/><rect class="cls-5" x="219.39" y="349.83" width="127.12" height="69.33"/><path class="cls-6" d="M310,456.72a4,4,0,0,1-4,4.05H259.74a4,4,0,0,1,0-8.08H306A4,4,0,0,1,310,456.72Z"/><rect class="cls-7" x="129.27" y="468.04" width="13.48" height="131.71" rx="2.62" ry="2.62"/><rect class="cls-7" x="406.67" y="468.04" width="13.48" height="131.71" rx="2.62" ry="2.62"/><rect class="cls-8" x="119.01" y="459.64" width="315.2" height="19.07" rx="2.62" ry="2.62"/><rect class="cls-9" x="142.76" y="478.96" width="263.91" height="20.36" rx="2" ry="2"/><rect class="cls-10" x="278.76" y="478.96" width="1.31" height="20.36"/><path class="cls-11" d="M182.36,479v2.62a2.62,2.62,0,0,0,2.62,2.62h25.48a2.62,2.62,0,0,0,2.62-2.62V479Z"/><path class="cls-11" d="M338.61,479v2.62a2.62,2.62,0,0,0,2.62,2.62h25.48a2.62,2.62,0,0,0,2.62-2.62V479Z"/><path class="cls-12" d="M508.61,260.27c-.72-1.05-5-6.45-9.94-8.1-4.28-1.42-15.92,0-15.92,0l-11.9,9.6h0l-46.8,32.14-12.58-8.65,1.16-1.69-39-26.67a9.45,9.45,0,0,0-8.24-1.21,24.18,24.18,0,0,0-7.28-1.12h-6a6.3,6.3,0,0,0-3.13-5.07c1.12,0,2.26,0,3.44,0,17.75-3.9,21.35-27.91,20.46-39.89a41.9,41.9,0,0,0-1.67-9.31,9.23,9.23,0,0,0,3.71-3.19,6.52,6.52,0,0,0,1.21-4.34H370.1a12.29,12.29,0,0,0,3.12-5.25v0a21.24,21.24,0,0,0,1.33-6.1c0-.33,0-.52,0-.52H364.55s-10.07-7.32-21.25-6.38c-17.64,1.48-23.46,12.82-23.46,12.82a19,19,0,0,0-7.63-1.35c2.3,2.66,3.64,3.83,4.68,7.64-1.64,4.23-1.89,10.26-1.77,14.89-2.37.71-3.79,3.06-2.52,6.48,1.53,4.09,4.14,14.23,7.34,10.58a14.65,14.65,0,0,0,.91-1.16c2.63,9.09,7.4,16.76,14.61,21.16v2.56c-3.53,1.24-5.94,3.67-5.94,6.47h-6.75A23.54,23.54,0,0,0,304.71,263l-30.61,22.9,1.23,1.63-12.42,9.34-45.19-34.09h0l-11.46-10.13s-11.56-1.91-15.9-.68c-5,1.43-9.52,6.63-10.29,7.65-1.88,2.51,12.58,4.23,14.89,4.48-1.79,1.1-3.32,2.86-2.73,5.65,3.93.41,12.3,2.69,13.85,3.12l51.59,38.92a11,11,0,0,0,10.91-.34l15.82-11.9,1.09,1.45,13.69-10.24v111.7h7.29l-.12,6.43c0,.11,0,.21,0,.31V608.94H309v4.4a8.6,8.6,0,0,0-3.21.22l-30.22,7.87a4.56,4.56,0,0,0-3.41,4.42v3a1.74,1.74,0,0,0,1.75,1.75h51.55a3.46,3.46,0,0,0,3.47-3.47V615.51a1.74,1.74,0,0,0-1.11-1.62v-4.95h2.81V421l20.22.16v187.8h2.65v5.12a1.74,1.74,0,0,0-1.76,1.74v11.57a3.46,3.46,0,0,0,3.47,3.47h51.55a1.74,1.74,0,0,0,1.75-1.75v-3a4.56,4.56,0,0,0-3.41-4.42l-30.22-7.87a8.7,8.7,0,0,0-2.56-.26v-4.65h2.81V412.66a11.88,11.88,0,0,0,.48-3.22l.13-7h6.73V285.86l19.42,13.27,1-1.49,16.31,11.21a9.35,9.35,0,0,0,9.52.08l53.39-36.66a7.57,7.57,0,0,0,.87-.7l10.19-7.47S510.54,263.08,508.61,260.27Z"/><path id="_Path_" data-name="&lt;Path&gt;" class="cls-13" d="M364,265.67h0a7.53,7.53,0,0,0,1.84,10.49l53.37,36.69A7.53,7.53,0,0,0,429.74,311h0a7.53,7.53,0,0,0-1.84-10.49l-53.37-36.69A7.53,7.53,0,0,0,364,265.67Z"/><g id="_Clip_Group_" data-name="&lt;Clip Group&gt;"><path id="_Clipping_Path_" data-name="&lt;Clipping Path&gt;" class="cls-14" d="M412.65,287.54,401.9,303.13l-39-26.67a9.49,9.49,0,0,1-2.42-13.17h0a9.49,9.49,0,0,1,13.17-2.42Z"/></g><line id="_Path_2" data-name="&lt;Path&gt;" class="cls-15" x1="407.12" y1="283.76" x2="396.53" y2="299.46"/><path id="_Path_3" data-name="&lt;Path&gt;" class="cls-16" d="M318.42,544.93h0a9.41,9.41,0,0,1,9.41,9.41V621a9.41,9.41,0,0,1-9.41,9.41h0A9.41,9.41,0,0,1,309,621V554.34A9.41,9.41,0,0,1,318.42,544.93Z"/><path id="_Rectangle_" data-name="&lt;Rectangle&gt;" class="cls-17" d="M306.36,400.24h24.28a0,0,0,0,1,0,0V600.8a12.14,12.14,0,0,1-12.14,12.14h0a12.14,12.14,0,0,1-12.14-12.14V400.24A0,0,0,0,1,306.36,400.24Z" transform="translate(637.01 1013.17) rotate(180)"/><path id="_Path_4" data-name="&lt;Path&gt;" class="cls-18" d="M328.94,619.51V631H272.18v-1.15a4.56,4.56,0,0,1,3.41-4.42l30.22-7.87a8.43,8.43,0,0,1,4.23,0c8.07,2.09,13.75,1.16,16.65.3A1.75,1.75,0,0,1,328.94,619.51Z"/><path id="_Path_5" data-name="&lt;Path&gt;" class="cls-19" d="M328.94,631v.09a3.46,3.46,0,0,1-3.47,3.47H273.93a1.74,1.74,0,0,1-1.75-1.75V631Z"/><path id="_Path_6" data-name="&lt;Path&gt;" class="cls-16" d="M362.92,544.93h0a9.41,9.41,0,0,1,9.41,9.41V621a9.41,9.41,0,0,1-9.41,9.41h0a9.41,9.41,0,0,1-9.41-9.41V554.34A9.41,9.41,0,0,1,362.92,544.93Z"/><path id="_Rectangle_2" data-name="&lt;Rectangle&gt;" class="cls-17" d="M350.86,400.24h24.28a0,0,0,0,1,0,0V600.8A12.14,12.14,0,0,1,363,612.94h0a12.14,12.14,0,0,1-12.14-12.14V400.24a0,0,0,0,1,0,0Z" transform="translate(726 1013.17) rotate(180)"/><path id="_Path_7" data-name="&lt;Path&gt;" class="cls-18" d="M351.76,619.8v11.48h56.76v-1.15a4.56,4.56,0,0,0-3.41-4.42l-30.22-7.87a8.43,8.43,0,0,0-4.23,0c-8.07,2.09-13.75,1.16-16.65.3A1.75,1.75,0,0,0,351.76,619.8Z"/><path id="_Path_8" data-name="&lt;Path&gt;" class="cls-19" d="M351.76,631.28v.09a3.46,3.46,0,0,0,3.47,3.47h51.55a1.74,1.74,0,0,0,1.75-1.75v-1.81Z"/><path id="_Path_9" data-name="&lt;Path&gt;" class="cls-17" d="M306.76,390.64l69.27.56-.41,22.24a11.9,11.9,0,0,1-12,11.8l-45.47-.37a11.9,11.9,0,0,1-11.8-12Z"/><g id="_Group_" data-name="&lt;Group&gt;"><g id="_Clip_Group_2" data-name="&lt;Clip Group&gt;"><path id="_Rectangle_3" data-name="&lt;Rectangle&gt;" class="cls-16" d="M299.19,258.55h83.3a0,0,0,0,1,0,0V382.86a23.59,23.59,0,0,1-23.59,23.59H323.56a24.38,24.38,0,0,1-24.38-24.38V258.55a0,0,0,0,1,0,0Z" transform="translate(681.67 665) rotate(-180)"/></g></g><path id="_Path_10" data-name="&lt;Path&gt;" class="cls-13" d="M268.21,314.21h0a7.53,7.53,0,0,1-10.54,1.58l-51.7-39a7.53,7.53,0,0,1-1.58-10.54h0a7.53,7.53,0,0,1,10.54-1.58l51.7,39A7.53,7.53,0,0,1,268.21,314.21Z"/><path id="_Path_11" data-name="&lt;Path&gt;" class="cls-20" d="M206.33,276.93s-9.76-2.74-14.1-3.19c-1.26-6,7.16-7.28,7.16-7.28Z"/><path id="_Path_12" data-name="&lt;Path&gt;" class="cls-13" d="M217.72,266.76l-11.46-10.12s-11.56-1.91-15.9-.68c-5,1.43-9.52,6.63-10.29,7.65-2,2.73,15.21,4.52,15.21,4.52l11.83,9.51Z"/><path id="_Path_13" data-name="&lt;Path&gt;" class="cls-13" d="M321.73,266h0a7.53,7.53,0,0,1-1.39,10.56l-51.76,38.93A7.53,7.53,0,0,1,258,314.05h0a7.53,7.53,0,0,1,1.39-10.56l51.76-38.93A7.53,7.53,0,0,1,321.73,266Z"/><g id="_Clip_Group_3" data-name="&lt;Clip Group&gt;"><path id="_Clipping_Path_2" data-name="&lt;Clipping Path&gt;" class="cls-14" d="M274.09,289.88,285.49,305l37.84-28.31a9.49,9.49,0,0,0,1.86-13.26h0a9.49,9.49,0,0,0-13.26-1.86Z"/></g><line id="_Path_14" data-name="&lt;Path&gt;" class="cls-15" x1="279.46" y1="285.87" x2="290.7" y2="301.1"/><ellipse id="_Path_15" data-name="&lt;Path&gt;" class="cls-21" cx="340.84" cy="258.55" rx="11.31" ry="7.35"/><path id="_Path_16" data-name="&lt;Path&gt;" class="cls-13" d="M341.63,237.67h-.21a6,6,0,0,1,5.95,6.16V257c0,3.4-2.55,4.46-5.95,4.46h.11c-3.4,0-6.06-1.06-6.06-4.46V243.83A6.16,6.16,0,0,1,341.63,237.67Z"/><path id="_Path_17" data-name="&lt;Path&gt;" class="cls-22" d="M352.46,253.46c-19.48,1-29.84-13.35-33-31.23-3.35-18.83,9.26-34.42,24.53-34.46,17.38-.06,27.52,6.72,28.95,25.8.9,12-2.71,36-20.46,39.89Z"/><path id="_Path_18" data-name="&lt;Path&gt;" class="cls-23" d="M316.89,197.57c-1.93,5-1.93,12.42-1.68,17.16a4.74,4.74,0,0,1,4.05-1,5.67,5.67,0,0,1,.65.15h0l.32.11.32.12.33.15.23.12.39.21.3.19.3.21.29.22.29.24c.19.17.37.34.54.52,0,0,0,0,0,.05l.11.13.06.08.07.09,0,0,0,0,0,0a.23.23,0,0,1,0,.05v8.66a3.88,3.88,0,0,0,.92,2.9,4.71,4.71,0,0,0,.4.44,6.19,6.19,0,0,0,2.64.77c2.26,0,4.54-1.85,4.54-4.11V222a4.47,4.47,0,0,1,4.11-4.47l.79-.06c.06-3.52,0-6.32,0-8.05,0-2.15.76-3.57,5.53-4.05h.14c.42,0,.86-.07,1.34-.1h.1c.83,0,1.75-.06,2.77-.06h21.9l.25-.06c.93-.26,4.27-1.36,6-4.1a6.52,6.52,0,0,0,1.21-4.34H370.1a12.3,12.3,0,0,0,3.12-5.25,28.72,28.72,0,0,0,1.39-6.64H364.55s-10.07-7.32-21.25-6.38c-17.64,1.48-23.46,12.82-23.46,12.82a19,19,0,0,0-7.63-1.35C314.51,192.59,315.85,193.76,316.89,197.57Z"/><path id="_Path_19" data-name="&lt;Path&gt;" class="cls-24" d="M344,205.3c.83,0,1.75-.06,2.77-.06h21.9l.25-.06c.93-.26,4.27-1.36,6-4.1a6.52,6.52,0,0,0,1.21-4.34s-5.22,5.88-8.55,6.48l-.26,0C364,203.78,349,204.93,344,205.3Z"/><g id="_Group_2" data-name="&lt;Group&gt;"><line id="_Path_20" data-name="&lt;Path&gt;" class="cls-23" x1="365.72" y1="215.71" x2="358.81" y2="215.35"/><path id="_Path_21" data-name="&lt;Path&gt;" class="cls-23" d="M365.88,216.85a1.15,1.15,0,0,0-.1-2.29l-6.91-.35a1.15,1.15,0,1,0-.12,2.3l6.91.35Z"/></g><g id="_Group_3" data-name="&lt;Group&gt;"><line id="_Path_22" data-name="&lt;Path&gt;" class="cls-23" x1="347.66" y1="215.35" x2="340.75" y2="215.71"/><path id="_Path_23" data-name="&lt;Path&gt;" class="cls-23" d="M347.83,214.21a1.15,1.15,0,0,1-.1,2.29l-6.91.35a1.15,1.15,0,1,1-.12-2.3l6.91-.35Z"/></g><circle id="_Path_24" data-name="&lt;Path&gt;" cx="345.07" cy="222.81" r="1.56"/><circle id="_Path_25" data-name="&lt;Path&gt;" cx="361.73" cy="223.35" r="1.56"/><path id="_Path_26" data-name="&lt;Path&gt;" class="cls-24" d="M374.61,184.83s-3.9,8.88-9.4,11.13c-4.67,1.91-27.5,2.64-27.5,2.64a39,39,0,0,0,7.08,1.69c2.08.22,22.16.85,25.31-3.56A19.57,19.57,0,0,0,374.61,184.83Z"/><g id="_Group_4" data-name="&lt;Group&gt;"><path id="_Path_27" data-name="&lt;Path&gt;" class="cls-22" d="M324.29,217a9.16,9.16,0,0,0-3.19-3.33c-4.94-3.42-10.69-.65-8.5,5.22,1.53,4.1,4.14,14.23,7.34,10.58C322.39,226.72,324.16,222.45,324.29,217Z"/><polygon id="_Path_28" data-name="&lt;Path&gt;" class="cls-25" points="320.48 217.64 314 216.55 318.89 225.45 317.24 218.11 320.48 217.64"/></g><polygon id="_Path_29" data-name="&lt;Path&gt;" class="cls-25" points="353.54 220.59 353.33 234.15 356.24 233.49 353.54 220.59"/><path id="_Path_30" data-name="&lt;Path&gt;" class="cls-26" d="M361.73,238.16a11,11,0,0,1-8.4,3.9h0a11.83,11.83,0,0,1-8.4-3.9"/><path id="_Path_31" data-name="&lt;Path&gt;" class="cls-13" d="M418.31,310.89h0a7.53,7.53,0,0,0,10.46,2l53.39-36.66a7.53,7.53,0,0,0,2-10.46h0a7.53,7.53,0,0,0-10.46-2l-53.39,36.66A7.53,7.53,0,0,0,418.31,310.89Z"/><path id="_Path_32" data-name="&lt;Path&gt;" class="cls-13" d="M470.86,265.74l11.9-9.6s11.64-1.39,15.92,0c5,1.65,9.22,7,9.94,8.1,1.92,2.81-15.39,3.83-15.39,3.83l-12.24,9Z"/><path class="cls-12" d="M274.06,260.65l-45.53-41h0L218,208.55s-1.15-.29-2.85-.66c.93-2.08,2.12-3.24,3.85-5.24a19,19,0,0,0-7.63,1.35s-5.83-11.34-23.46-12.82c-11.19-.95-21.25,6.38-21.25,6.38H156.6A28.72,28.72,0,0,0,158,204.2a15.66,15.66,0,0,0,1,2.26c-4.52-.77-15.64,2.08-15.64,2.08l-10.54,11.08h0l-45.53,41a7.53,7.53,0,0,0-.66,10.63h0a11.08,11.08,0,0,0,4.59,2.66l19.15,5-.46,1.76,39.28,10.4a24.24,24.24,0,0,0-.44,4.55V419.17h6.73l.13,7a11.89,11.89,0,0,0,.48,3.22V625.66h2.82v4.65a8.7,8.7,0,0,0-2.56.26l-30.22,7.87a4.56,4.56,0,0,0-3.41,4.42v3a1.74,1.74,0,0,0,1.75,1.75h95.87a3.46,3.46,0,0,0,3.47-3.47V632.52a1.74,1.74,0,0,0-1.59-1.73v-5.13h2.65V425.91c0-.1,0-.21,0-.31l-.12-6.43H232V294.86a23.63,23.63,0,0,0-.72-5.78L252,282.37l-.55-1.73,18.85-6.05a7.49,7.49,0,0,0,3.81-2.71,7.58,7.58,0,0,0,.59-.59h0A7.53,7.53,0,0,0,274.06,260.65Zm-115.36-38a5.38,5.38,0,0,0-3.14-3.69c.64-.13,2.2-.45,4.09-.9A39.11,39.11,0,0,0,158.7,222.66Zm-51.16,40,37.71-34a127.74,127.74,0,0,1,13.23-4.24c-.07.61-.13,1.23-.17,1.87-.9,12,2.71,36,20.46,39.89,1.18.06,2.33.07,3.44,0a6.31,6.31,0,0,0-3.13,5.07h-6a24.16,24.16,0,0,0-12.29,3.36l-.48-.15-45.68-12.1-.52,2Zm95.84,367.69a8.67,8.67,0,0,0-2.73.25l-21.2,5.52v-3.57a1.74,1.74,0,0,0-1.76-1.74v-5.12h2.65V437.86l20.22-.16v188h2.82Zm42.88-366-28,9.07a23.5,23.5,0,0,0-9.82-2.14h-6.75c0-2.8-2.4-5.23-5.94-6.47v-2.56c7.21-4.4,12-12.08,14.61-21.16a14.62,14.62,0,0,0,.91,1.16c3.2,3.65,5.81-6.48,7.34-10.58.07-.18.11-.35.16-.53l36.17,32.58-8.05,2.58Z"/><path id="_Path_33" data-name="&lt;Path&gt;" class="cls-16" d="M207.79,556.65h0a9.41,9.41,0,0,0-9.41,9.41V632.7a9.41,9.41,0,0,0,9.41,9.41h0a9.41,9.41,0,0,0,9.41-9.41V566.06A9.41,9.41,0,0,0,207.79,556.65Z"/><path id="_Rectangle_4" data-name="&lt;Rectangle&gt;" class="cls-17" d="M207.71,412h0a12.14,12.14,0,0,1,12.14,12.14V624.66a0,0,0,0,1,0,0H195.57a0,0,0,0,1,0,0V424.1A12.14,12.14,0,0,1,207.71,412Z"/><path id="_Path_34" data-name="&lt;Path&gt;" class="cls-18" d="M218.78,631.52V643H162v-1.15a4.56,4.56,0,0,1,3.41-4.42l30.22-7.87a8.43,8.43,0,0,1,4.23,0c8.07,2.09,13.75,1.16,16.65.3A1.75,1.75,0,0,1,218.78,631.52Z"/><path id="_Path_35" data-name="&lt;Path&gt;" class="cls-19" d="M218.78,643v.09a3.46,3.46,0,0,1-3.47,3.47H163.77a1.74,1.74,0,0,1-1.75-1.75V643Z"/><path id="_Path_36" data-name="&lt;Path&gt;" class="cls-16" d="M163.29,556.65h0a9.41,9.41,0,0,0-9.41,9.41V632.7a9.41,9.41,0,0,0,9.41,9.41h0a9.41,9.41,0,0,0,9.41-9.41V566.06A9.41,9.41,0,0,0,163.29,556.65Z"/><path id="_Rectangle_5" data-name="&lt;Rectangle&gt;" class="cls-17" d="M163.21,412h0a12.14,12.14,0,0,1,12.14,12.14V624.66a0,0,0,0,1,0,0H151.07a0,0,0,0,1,0,0V424.1A12.14,12.14,0,0,1,163.21,412Z"/><path id="_Path_37" data-name="&lt;Path&gt;" class="cls-18" d="M174.45,631.52V643H117.69v-1.15a4.56,4.56,0,0,1,3.41-4.42l30.22-7.87a8.43,8.43,0,0,1,4.23,0c8.07,2.09,13.75,1.16,16.65.3A1.75,1.75,0,0,1,174.45,631.52Z"/><path id="_Path_38" data-name="&lt;Path&gt;" class="cls-19" d="M174.45,643v.09a3.46,3.46,0,0,1-3.47,3.47H119.44a1.74,1.74,0,0,1-1.75-1.75V643Z"/><path id="_Path_39" data-name="&lt;Path&gt;" class="cls-17" d="M219.45,402.36l-69.27.56.41,22.24a11.9,11.9,0,0,0,12,11.8l45.47-.37a11.9,11.9,0,0,0,11.8-12Z"/><g id="_Group_5" data-name="&lt;Group&gt;"><g id="_Clip_Group_4" data-name="&lt;Clip Group&gt;"><path id="_Rectangle_6" data-name="&lt;Rectangle&gt;" class="cls-16" d="M168.11,270.27h35.33A23.59,23.59,0,0,1,227,293.86V418.17a0,0,0,0,1,0,0h-83.3a0,0,0,0,1,0,0V294.65A24.38,24.38,0,0,1,168.11,270.27Z"/></g></g><path id="_Path_40" data-name="&lt;Path&gt;" class="cls-13" d="M194.23,288.42h0a7.53,7.53,0,0,0,9.43,5l61.66-19.8a7.53,7.53,0,0,0,5-9.43h0a7.53,7.53,0,0,0-9.43-5L199.19,279A7.53,7.53,0,0,0,194.23,288.42Z"/><g id="_Clip_Group_5" data-name="&lt;Clip Group&gt;"><path id="_Clipping_Path_3" data-name="&lt;Clipping Path&gt;" class="cls-14" d="M241.27,263.34l5.76,18-45,14.56a9.49,9.49,0,0,1-11.9-6.14h0a9.49,9.49,0,0,1,6.14-11.9Z"/></g><line id="_Path_41" data-name="&lt;Path&gt;" class="cls-15" x1="234.89" y1="265.4" x2="240.84" y2="283.37"/><ellipse id="_Path_42" data-name="&lt;Path&gt;" class="cls-21" cx="185.38" cy="270.27" rx="11.31" ry="7.35"/><path id="_Path_43" data-name="&lt;Path&gt;" class="cls-13" d="M184.58,249.39h.21a6,6,0,0,0-5.95,6.16v13.17c0,3.4,2.55,4.46,5.95,4.46h-.11c3.4,0,6.06-1.06,6.06-4.46V255.55A6.16,6.16,0,0,0,184.58,249.39Z"/><path id="_Path_44" data-name="&lt;Path&gt;" class="cls-22" d="M173.75,265.18c19.48,1,29.84-13.35,33-31.23,3.35-18.83-9.26-34.42-24.53-34.46-17.38-.06-27.52,6.72-28.95,25.8-.9,12,2.71,36,20.46,39.89Z"/><path id="_Path_45" data-name="&lt;Path&gt;" class="cls-23" d="M209.32,209.29c1.93,5,1.93,12.42,1.68,17.16a4.74,4.74,0,0,0-4.05-1,5.67,5.67,0,0,0-.65.15h0l-.32.11-.32.12-.33.15-.23.12-.39.21-.3.19-.3.21-.29.22-.29.24c-.19.17-.37.34-.54.52,0,0,0,0,0,.05l-.11.13-.06.08-.07.09,0,0,0,0,0,0a.23.23,0,0,0,0,.05v8.66a3.88,3.88,0,0,1-.92,2.9,4.71,4.71,0,0,1-.4.44,6.19,6.19,0,0,1-2.64.77c-2.26,0-4.54-1.85-4.54-4.11v-3.1a4.47,4.47,0,0,0-4.11-4.47l-.79-.06c-.06-3.52,0-6.32,0-8.05,0-2.15-.76-3.57-5.53-4.05h-.14c-.42,0-.86-.07-1.34-.1h-.1c-.83,0-1.75-.06-2.77-.06H157.5l-.25-.06c-.93-.26-4.27-1.36-6-4.1a6.52,6.52,0,0,1-1.21-4.34h6.07A12.3,12.3,0,0,1,153,203.2a28.72,28.72,0,0,1-1.39-6.64h10.06s10.07-7.32,21.25-6.38c17.64,1.48,23.46,12.82,23.46,12.82a19,19,0,0,1,7.63-1.35C211.71,204.31,210.36,205.48,209.32,209.29Z"/><path id="_Path_46" data-name="&lt;Path&gt;" class="cls-24" d="M182.17,217c-.83,0-1.75-.06-2.77-.06H157.5l-.25-.06c-.93-.26-4.27-1.36-6-4.1a6.52,6.52,0,0,1-1.21-4.34s5.22,5.88,8.55,6.48l.26,0C162.26,215.5,177.24,216.65,182.17,217Z"/><g id="_Group_6" data-name="&lt;Group&gt;"><line id="_Path_47" data-name="&lt;Path&gt;" class="cls-23" x1="163.36" y1="226.94" x2="169.5" y2="230.12"/><path id="_Path_48" data-name="&lt;Path&gt;" class="cls-23" d="M162.64,227.85a1.15,1.15,0,0,1,1.25-1.93L170,229.1a1.15,1.15,0,1,1-1.06,2L162.83,228Z"/></g><g id="_Group_7" data-name="&lt;Group&gt;"><line id="_Path_49" data-name="&lt;Path&gt;" class="cls-23" x1="177.24" y1="230.67" x2="183.26" y2="227.25"/><path id="_Path_50" data-name="&lt;Path&gt;" class="cls-23" d="M176.49,229.8a1.15,1.15,0,0,0,1.32,1.88l6-3.42a1.15,1.15,0,1,0-1.14-2l-6,3.42Z"/></g><circle id="_Path_51" data-name="&lt;Path&gt;" cx="181.14" cy="234.53" r="1.56"/><circle id="_Path_52" data-name="&lt;Path&gt;" cx="164.48" cy="235.07" r="1.56"/><g id="_Group_8" data-name="&lt;Group&gt;"><path id="_Path_53" data-name="&lt;Path&gt;" class="cls-22" d="M201.92,228.76a9.16,9.16,0,0,1,3.19-3.33c4.94-3.42,10.69-.65,8.5,5.22-1.53,4.1-4.14,14.23-7.34,10.58C203.82,238.44,202.05,234.17,201.92,228.76Z"/><polygon id="_Path_54" data-name="&lt;Path&gt;" class="cls-25" points="205.73 229.36 212.22 228.27 207.32 237.17 208.97 229.83 205.73 229.36"/></g><polygon id="_Path_55" data-name="&lt;Path&gt;" class="cls-25" points="172.67 232.31 172.88 245.87 169.97 245.21 172.67 232.31"/><line class="cls-26" x1="166.44" y1="250.07" x2="179.32" y2="252.6"/><path id="_Path_56" data-name="&lt;Path&gt;" class="cls-13" d="M158,283.87h0a7.53,7.53,0,0,1-9.15,5.47L86.18,272.92a7.53,7.53,0,0,1-5.47-9.15h0a7.53,7.53,0,0,1,9.15-5.47l62.65,16.41A7.53,7.53,0,0,1,158,283.87Z"/><g id="_Clip_Group_6" data-name="&lt;Clip Group&gt;"><path id="_Clipping_Path_4" data-name="&lt;Clipping Path&gt;" class="cls-14" d="M109.65,261.38l-4.77,18.32,45.68,12.1A9.49,9.49,0,0,0,162.11,285h0a9.49,9.49,0,0,0-6.77-11.54Z"/></g><line id="_Path_57" data-name="&lt;Path&gt;" class="cls-15" x1="116.12" y1="263.09" x2="111.16" y2="281.36"/><path id="_Path_58" data-name="&lt;Path&gt;" class="cls-13" d="M81.59,270.26h0a7.53,7.53,0,0,0,10.63.66l48.12-43.34a7.53,7.53,0,0,0,.66-10.63h0a7.53,7.53,0,0,0-10.63-.66L82.25,259.63A7.53,7.53,0,0,0,81.59,270.26Z"/><path id="_Path_59" data-name="&lt;Path&gt;" class="cls-20" d="M140,227.75s9.49-3.57,13.77-4.4c.73-6.06-7.76-6.63-7.76-6.63Z"/><path id="_Path_60" data-name="&lt;Path&gt;" class="cls-13" d="M127.77,218.61l10.54-11.08s11.35-2.9,15.78-2.05c5.15,1,10.06,5.78,10.91,6.73,2.28,2.54-14.76,5.82-14.76,5.82l-11,10.5Z"/><path id="_Path_61" data-name="&lt;Path&gt;" class="cls-24" d="M152.21,197.53s3.9,8.88,9.4,11.13c4.67,1.91,27.5,2.64,27.5,2.64A39,39,0,0,1,182,213c-2.08.22-22.16.85-25.31-3.56A19.57,19.57,0,0,1,152.21,197.53Z"/><path id="_Path_62" data-name="&lt;Path&gt;" class="cls-13" d="M269.72,270.28h0a7.53,7.53,0,0,1-10.63.66L211,227.59a7.53,7.53,0,0,1-.66-10.63h0a7.53,7.53,0,0,1,10.63-.66l48.12,43.34A7.53,7.53,0,0,1,269.72,270.28Z"/><path id="_Path_63" data-name="&lt;Path&gt;" class="cls-20" d="M211.31,227.78s-9.49-3.57-13.77-4.4c-.73-6.06,7.76-6.63,7.76-6.63Z"/><path id="_Path_64" data-name="&lt;Path&gt;" class="cls-13" d="M223.54,218.63,213,207.55s-11.35-2.9-15.78-2.05c-5.15,1-10.06,5.78-10.91,6.73C184,214.77,201.07,218,201.07,218l11,10.5Z"/><rect class="cls-8" x="151.2" y="312.62" width="20.16" height="12.39"/><line class="cls-27" x1="187.89" y1="269.73" x2="169.91" y2="313.69"/><line class="cls-27" x1="145.75" y1="270.08" x2="152.54" y2="313.36"/><rect class="cls-28" x="152.54" y="315.97" width="4.9" height="5.69"/><line class="cls-28" x1="159.26" y1="318.82" x2="167.66" y2="318.82"/><line class="cls-28" x1="159.26" y1="316.9" x2="167.66" y2="316.9"/><line class="cls-28" x1="159.26" y1="320.73" x2="164.17" y2="320.73"/><rect class="cls-8" x="323.98" y="301.11" width="20.16" height="12.39"/><line class="cls-27" x1="360.67" y1="258.23" x2="342.69" y2="302.19"/><line class="cls-27" x1="318.53" y1="258.58" x2="325.32" y2="301.85"/><rect class="cls-28" x="325.32" y="304.46" width="4.9" height="5.69"/><line class="cls-28" x1="332.04" y1="307.31" x2="340.44" y2="307.31"/><line class="cls-28" x1="332.04" y1="305.39" x2="340.44" y2="305.39"/><line class="cls-28" x1="332.04" y1="309.23" x2="336.94" y2="309.23"/><circle id="_Path_65" data-name="&lt;Path&gt;" class="cls-29" cx="508.76" cy="387.17" r="2.89"/><path id="_Path_66" data-name="&lt;Path&gt;" class="cls-20" d="M478.39,272.45s10.12-.62,14.45-.14c2.49-5.58-5.17-2.4-5.17-2.4Z"/><path class="cls-12" d="M584.58,244.5h0l-6.05-8s-.21-12.44-7.7-20.81c-11.8-13.19-24.36-11-24.36-11a19,19,0,0,0-3.51-6.9c-.74,3.43-.87,5.21-3.29,8.33-4.36,1.23-9.33,4.67-13,7.55-2-1.47-4.73-1.18-6.69,1.89-2.35,3.69-8.87,11.87-4,12.23a14.7,14.7,0,0,0,1.47,0c-6.47,8.63-9.79,18.37-7.51,27.93a6.16,6.16,0,0,0-.39,1.34l-1.35,8.14c-3.69.65-6.46,2.65-6.92,5.41l-6.66-1.11a23.48,23.48,0,0,0-11.15.83c-.26-.15-.54-.28-.82-.41h0a9.49,9.49,0,0,0-12.45,4.91l-19,43.27,1.88.82-8,18.26a7.5,7.5,0,0,0-.29,5.07L439,399.77h0l-2.72,15s4.36,10.88,7.67,13.95c3.64,3.39,9.9,4.58,11.62,4.8V623.32h2.65v5.13a1.74,1.74,0,0,0-1.59,1.73v11.57a3.46,3.46,0,0,0,3.47,3.47H556a1.74,1.74,0,0,0,1.75-1.75v-3a4.56,4.56,0,0,0-3.41-4.42l-30.22-7.87a8.7,8.7,0,0,0-2.56-.26v-4.65h2.82V427a11.87,11.87,0,0,0,.45-2.62l4.51.75,13.92-83.71L547,354.87l5,63.59c-.47,1.53-3.05,9.82-4.82,13.35,2,2,4.34,1.67,6.23.75-1,2.13-7.35,15.19-4.22,14.95,1.27-.1,8.06-1.07,12-4.56,3.37-3,8-13.77,8-13.77l-2.37-15.1h0l-4.58-58.23a7.5,7.5,0,0,0-.16-3.2l-.3-1.05-.07-.24-5-17.88,2-.55-8.85-31a24.45,24.45,0,0,0-20.24-26.65l-5.88-1h0a5,5,0,0,0-.14-2.22c13.21,4.3,29.54-5,37.14-11.64a41.89,41.89,0,0,0,6.43-6.94,9.23,9.23,0,0,0,4.78,1A6.51,6.51,0,0,0,576,252.9l-3.65-4.84a12.29,12.29,0,0,0,6.07-.67h0a21.22,21.22,0,0,0,5.68-2.61ZM451.92,418.55a5.93,5.93,0,0,0,3.69.72l-.07,4c0,.11,0,.21,0,.31v3.85C454.31,423.77,452.44,419.67,451.92,418.55ZM502.7,628.44a1.74,1.74,0,0,0-1.76,1.74v3.57l-21.2-5.52A8.65,8.65,0,0,0,477,628v-4.66h2.82v-188l20.22.16v187.8h2.65Z"/><path id="_Path_67" data-name="&lt;Path&gt;" class="cls-13" d="M540.17,285h0a7.53,7.53,0,0,0-5.29,9.25l17.6,62.32a7.53,7.53,0,0,0,9.25,5.29h0a7.53,7.53,0,0,0,5.29-9.25l-17.6-62.32A7.53,7.53,0,0,0,540.17,285Z"/><g id="_Clip_Group_7" data-name="&lt;Clip Group&gt;"><path id="_Clipping_Path_5" data-name="&lt;Clipping Path&gt;" class="cls-14" d="M563.58,332.94l-18.22,5.12-13-45.44a9.49,9.49,0,0,1,6.55-11.67h0a9.49,9.49,0,0,1,11.67,6.55Z"/></g><line id="_Path_68" data-name="&lt;Path&gt;" class="cls-15" x1="561.74" y1="326.49" x2="543.57" y2="331.8"/><circle id="_Path_69" data-name="&lt;Path&gt;" class="cls-29" cx="525.66" cy="415.76" r="2.89"/><path id="_Path_70" data-name="&lt;Path&gt;" class="cls-16" d="M472.61,555.31h0a9.41,9.41,0,0,1,9.41,9.41v66.65a9.41,9.41,0,0,1-9.41,9.41h0a9.41,9.41,0,0,1-9.41-9.41V564.72A9.41,9.41,0,0,1,472.61,555.31Z"/><path id="_Rectangle_7" data-name="&lt;Rectangle&gt;" class="cls-17" d="M460.55,410.62h24.28a0,0,0,0,1,0,0V611.18a12.14,12.14,0,0,1-12.14,12.14h0a12.14,12.14,0,0,1-12.14-12.14V410.62A0,0,0,0,1,460.55,410.62Z" transform="translate(945.37 1033.93) rotate(180)"/><path id="_Path_71" data-name="&lt;Path&gt;" class="cls-18" d="M461.61,630.18v11.48h56.76v-1.15A4.56,4.56,0,0,0,515,636.1l-30.22-7.87a8.43,8.43,0,0,0-4.23,0c-8.07,2.09-13.75,1.16-16.65.3A1.75,1.75,0,0,0,461.61,630.18Z"/><path id="_Path_72" data-name="&lt;Path&gt;" class="cls-19" d="M461.61,641.66v.09a3.46,3.46,0,0,0,3.47,3.47h51.55a1.74,1.74,0,0,0,1.75-1.75v-1.81Z"/><path id="_Path_73" data-name="&lt;Path&gt;" class="cls-16" d="M517.1,555.31h0a9.41,9.41,0,0,1,9.41,9.41v66.65a9.41,9.41,0,0,1-9.41,9.41h0a9.41,9.41,0,0,1-9.41-9.41V564.72A9.41,9.41,0,0,1,517.1,555.31Z"/><path id="_Rectangle_8" data-name="&lt;Rectangle&gt;" class="cls-17" d="M505,410.62h24.28a0,0,0,0,1,0,0V611.18a12.14,12.14,0,0,1-12.14,12.14h0A12.14,12.14,0,0,1,505,611.18V410.62a0,0,0,0,1,0,0Z" transform="translate(1034.37 1033.93) rotate(180)"/><path id="_Path_74" data-name="&lt;Path&gt;" class="cls-18" d="M505.94,630.18v11.48H562.7v-1.15a4.56,4.56,0,0,0-3.41-4.42l-30.22-7.87a8.43,8.43,0,0,0-4.23,0c-8.07,2.09-13.75,1.16-16.65.3A1.75,1.75,0,0,0,505.94,630.18Z"/><path id="_Path_75" data-name="&lt;Path&gt;" class="cls-19" d="M505.94,641.66v.09a3.46,3.46,0,0,0,3.47,3.47H561a1.74,1.74,0,0,0,1.75-1.75v-1.81Z"/><path id="_Path_76" data-name="&lt;Path&gt;" class="cls-17" d="M460.95,401l69.27.56-.41,22.24a11.9,11.9,0,0,1-12,11.8l-45.47-.37a11.9,11.9,0,0,1-11.8-12Z"/><g id="_Group_9" data-name="&lt;Group&gt;"><g id="_Clip_Group_8" data-name="&lt;Clip Group&gt;"><path id="_Rectangle_9" data-name="&lt;Rectangle&gt;" class="cls-16" d="M463.67,271.44H547a0,0,0,0,1,0,0V395.74a23.59,23.59,0,0,1-23.59,23.59H488.05A24.38,24.38,0,0,1,463.67,395V271.44A0,0,0,0,1,463.67,271.44Z" transform="translate(947.13 769) rotate(-170.56)"/></g></g><path id="_Path_77" data-name="&lt;Path&gt;" class="cls-13" d="M485.9,273.81h0a7.53,7.53,0,0,1,4,9.88L464,343a7.53,7.53,0,0,1-9.88,4h0a7.53,7.53,0,0,1-4-9.88L476,277.79A7.53,7.53,0,0,1,485.9,273.81Z"/><g id="_Clip_Group_9" data-name="&lt;Clip Group&gt;"><path id="_Clipping_Path_6" data-name="&lt;Clipping Path&gt;" class="cls-14" d="M456.21,318.08l17.36,7.54,19-43.27a9.49,9.49,0,0,0-4.91-12.45h0a9.49,9.49,0,0,0-12.45,4.91Z"/></g><line id="_Path_78" data-name="&lt;Path&gt;" class="cls-15" x1="458.9" y1="311.95" x2="476.19" y2="319.67"/><ellipse id="_Path_79" data-name="&lt;Path&gt;" class="cls-21" cx="517.45" cy="272.44" rx="7.35" ry="11.31" transform="translate(163.81 738.19) rotate(-80.56)"/><path id="_Path_80" data-name="&lt;Path&gt;" class="cls-13" d="M521.66,252l-.21,0a6,6,0,0,1,4.86,7.06l-2.16,13c-.56,3.36-3.24,4-6.6,3.43l.1,0c-3.36-.56-5.8-2-5.24-5.4l2.16-13A6.16,6.16,0,0,1,521.66,252Z"/><path id="_Path_81" data-name="&lt;Path&gt;" class="cls-22" d="M521.44,268.12c-12.56-14.93-7.3-31.86,5.06-45.17,13-14,33.05-13.32,42.29-1.15,10.51,13.84,11.2,26-3.18,38.65-9,7.93-30.38,19.51-44.17,7.68Z"/><path id="_Path_82" data-name="&lt;Path&gt;" class="cls-23" d="M544.66,206.07c-5.12,1.45-11.08,5.93-14.72,9a4.74,4.74,0,0,1,3.25,2.63,5.67,5.67,0,0,1,.27.61h0c0,.1.07.21.1.32l.1.32c0,.11.06.23.08.35s0,.17,0,.26,0,.29.06.44l0,.36,0,.37v.37c0,.13,0,.25,0,.37s-.05.5-.09.75l0,0c0,.05,0,.11,0,.16l0,.1s0,.07,0,.11a.19.19,0,0,1,0,0v0l0,0,0,0L526.65,228a3.88,3.88,0,0,0-1.76,2.49,4.71,4.71,0,0,0-.11.58,6.19,6.19,0,0,0,1,2.57c1.36,1.8,4.21,2.51,6,1.15l2.47-1.86a4.47,4.47,0,0,1,6,.59l.52.59c2.85-2.07,5.06-3.78,6.43-4.85,1.7-1.33,3.31-1.54,6.57,2l.09.1c.28.31.58.64.89,1l.07.08c.53.64,1.1,1.36,1.72,2.17l13.19,17.49.2.16c.77.59,3.66,2.59,6.88,2.32A6.52,6.52,0,0,0,581,252.9l-3.65-4.84a12.3,12.3,0,0,0,6.07-.67,28.72,28.72,0,0,0,6.14-2.89l-6.05-8s-.21-12.44-7.7-20.81c-11.8-13.19-24.36-11-24.36-11a19,19,0,0,0-3.51-6.9C547.21,201.17,547.08,202.95,544.66,206.07Z"/><path id="_Path_83" data-name="&lt;Path&gt;" class="cls-24" d="M554.84,232.41c.53.64,1.1,1.36,1.72,2.17l13.19,17.49.2.16c.77.59,3.66,2.59,6.88,2.32A6.52,6.52,0,0,0,581,252.9s-7.84-.63-10.32-2.93l-.19-.18C568,247.39,558.1,236.12,554.84,232.41Z"/><g id="_Group_10" data-name="&lt;Group&gt;"><line id="_Path_84" data-name="&lt;Path&gt;" class="cls-23" x1="561.16" y1="254.78" x2="557.28" y2="249.05"/><path id="_Path_85" data-name="&lt;Path&gt;" class="cls-23" d="M560.35,255.6a1.15,1.15,0,0,0,1.77-1.46l-3.88-5.73a1.15,1.15,0,1,0-1.91,1.29l3.88,5.73A1.17,1.17,0,0,0,560.35,255.6Z"/></g><g id="_Group_11" data-name="&lt;Group&gt;"><line id="_Path_86" data-name="&lt;Path&gt;" class="cls-23" x1="549.87" y1="240.61" x2="545.43" y2="235.31"/><path id="_Path_87" data-name="&lt;Path&gt;" class="cls-23" d="M550.88,240.05a1.15,1.15,0,0,1-1.89,1.3L544.55,236a1.15,1.15,0,1,1,1.77-1.48l4.44,5.31A1.17,1.17,0,0,1,550.88,240.05Z"/></g><circle id="_Path_88" data-name="&lt;Path&gt;" cx="541.47" cy="243.77" r="1.56" transform="matrix(0.8, -0.6, 0.6, 0.8, -37.65, 375.04)"/><circle id="_Path_89" data-name="&lt;Path&gt;" cx="551.07" cy="257.39" r="1.56" transform="translate(-43.92 383.56) rotate(-37.01)"/><path id="_Path_90" data-name="&lt;Path&gt;" class="cls-24" d="M589.58,244.49s-9.44,2.23-14.55-.81c-4.34-2.58-18.66-20.37-18.66-20.37a39,39,0,0,0,2.91,6.67c1.08,1.79,12.66,18.2,18.08,18.07A19.57,19.57,0,0,0,589.58,244.49Z"/><g id="_Group_12" data-name="&lt;Group&gt;"><path id="_Path_91" data-name="&lt;Path&gt;" class="cls-22" d="M533.57,223.7a9.16,9.16,0,0,0,.74-4.55c-.24-6-5.92-8.93-9.28-3.65-2.35,3.69-8.87,11.87-4,12.23C524.7,228,529.17,226.85,533.57,223.7Z"/><polygon id="_Path_92" data-name="&lt;Path&gt;" class="cls-25" points="530.8 221.03 527.77 215.19 523.61 224.45 528.47 218.72 530.8 221.03"/></g><polygon id="_Path_93" data-name="&lt;Path&gt;" class="cls-25" points="548.34 249.19 537.39 257.19 539.67 259.12 548.34 249.19"/><path id="_Path_94" data-name="&lt;Path&gt;" class="cls-20" d="M557.07,418.22s-2.94,9.7-4.89,13.6c4.36,4.27,10-2.12,10-2.12Z"/><path id="_Path_95" data-name="&lt;Path&gt;" class="cls-13" d="M571.77,414.08l2.37,15.1s-4.61,10.77-8,13.77c-3.92,3.48-10.71,4.46-12,4.56-3.4.26,4.37-15.25,4.37-15.25l-1.65-15.09Z"/><path id="_Path_96" data-name="&lt;Path&gt;" class="cls-13" d="M558.92,346h0a7.53,7.53,0,0,0-7,8L557,418.6a7.53,7.53,0,0,0,8,7h0a7.53,7.53,0,0,0,7-8L567,353A7.53,7.53,0,0,0,558.92,346Z"/><line class="cls-26" x1="527.52" y1="255.23" x2="537.55" y2="266.46"/><path id="_Path_97" data-name="&lt;Path&gt;" class="cls-13" d="M458.38,332h0a7.53,7.53,0,0,1,6.81,8.19l-6.55,64.43a7.53,7.53,0,0,1-8.19,6.81h0a7.53,7.53,0,0,1-6.81-8.19l6.55-64.43A7.53,7.53,0,0,1,458.38,332Z"/><path id="_Path_98" data-name="&lt;Path&gt;" class="cls-20" d="M458.58,404.24s2.72,9.76,4.58,13.71c-4.46,4.17-9.93-2.35-9.93-2.35Z"/><path id="_Path_99" data-name="&lt;Path&gt;" class="cls-13" d="M444,399.77l-2.72,15s4.36,10.88,7.67,13.95c3.84,3.57,10.6,4.71,11.87,4.83,3.39.34-4-15.34-4-15.34l2-15Z"/><rect class="cls-8" x="493.42" y="313.76" width="20.16" height="12.39" transform="translate(77.28 -97.44) rotate(11.97)"/><line class="cls-27" x1="539.71" y1="277.46" x2="513.01" y2="316.73"/><line class="cls-27" x1="498.41" y1="269.06" x2="496.08" y2="312.8"/><rect class="cls-28" x="494.9" y="315.81" width="4.9" height="5.69" transform="translate(76.87 -96.19) rotate(11.97)"/><line class="cls-28" x1="501.53" y1="319.54" x2="509.74" y2="321.28"/><line class="cls-28" x1="501.92" y1="317.66" x2="510.14" y2="319.4"/><line class="cls-28" x1="501.13" y1="321.41" x2="505.93" y2="322.43"/><circle class="cls-8" cx="449.53" cy="166.96" r="41.49"/><circle class="cls-30" cx="449.53" cy="166.96" r="34.57"/><path class="cls-31" d="M449.53,138.75h.54v-4H449v4Z"/><path class="cls-31" d="M421.31,167c0-.18,0-.36,0-.54h-4c0,.18,0,.36,0,.54s0,.36,0,.54h4C421.32,167.32,421.31,167.14,421.31,167Z"/><path class="cls-31" d="M481.78,166.43h-4c0,.18,0,.36,0,.54s0,.36,0,.54h4c0-.18,0-.36,0-.54S481.78,166.61,481.78,166.43Z"/><path class="cls-31" d="M449.53,195.17H449v4h1.07v-4Z"/><path class="cls-31" d="M465.55,140.29l.57-1-.93-.54-.57,1Z"/><path class="cls-31" d="M422.85,150.94l-1-.57q-.28.46-.54.93l1,.57C422.49,151.56,422.66,151.25,422.85,150.94Z"/><path class="cls-31" d="M476.74,151.87l1-.57c-.17-.31-.35-.62-.54-.93l-1,.57Q476.48,151.4,476.74,151.87Z"/><path class="cls-31" d="M434.43,139.75l-.57-1-.93.54.57,1Z"/><path class="cls-31" d="M476.2,183l1,.57c.18-.31.36-.62.54-.93l-1-.57Q476.48,182.53,476.2,183Z"/><path class="cls-31" d="M464.62,194.18l.57,1,.93-.54-.57-1Z"/><path class="cls-31" d="M422.31,182.06l-1,.57q.26.47.54.93l1-.57C422.66,182.68,422.49,182.37,422.31,182.06Z"/><path class="cls-31" d="M433.5,193.64l-.57,1,.93.54.57-1Z"/><polygon class="cls-31" points="434.38 155.99 432.98 156.57 433.05 158.08 448.79 168.01 450.12 165.91 434.38 155.99"/><polygon class="cls-31" points="471.89 154.59 472.21 153.18 470.81 152.8 448.91 166.03 449.99 167.82 471.89 154.59"/><circle class="cls-32" cx="449.53" cy="166.96" r="2.77"/></svg>