<svg id="Layer_1" data-name="Layer 1" xmlns="http://www.w3.org/2000/svg" viewBox="0 0 708.66 481.89"><defs><style>.cls-1{fill:#49a579;}.cls-2{fill:#4c836a;}.cls-3{fill:#d1d0cf;}.cls-10,.cls-11,.cls-12,.cls-13,.cls-14,.cls-15,.cls-16,.cls-17,.cls-18,.cls-19,.cls-20,.cls-21,.cls-23,.cls-24,.cls-25,.cls-3,.cls-4,.cls-5,.cls-6,.cls-7,.cls-8,.cls-9{fill-rule:evenodd;}.cls-4{fill:#939598;}.cls-22,.cls-5{fill:#515180;}.cls-6{fill:#006893;}.cls-7{fill:#f98c80;}.cls-8{fill:#fed066;}.cls-9{fill:#febb3d;}.cls-10{fill:#d14836;}.cls-11{fill:#eb5a48;}.cls-12{fill:#d94842;}.cls-13{fill:#003f4f;}.cls-14{fill:#80b9e0;}.cls-15{fill:#5c827a;}.cls-16{fill:#d4ffff;}.cls-17{fill:#ef8880;}.cls-18{fill:#fff;}.cls-19{fill:#eb5338;}.cls-20{fill:#dc861e;}.cls-21{fill:#fbb040;}.cls-23{fill:#ffdc83;}.cls-24{fill:#e9edea;}.cls-25{fill:#ad5f34;}.cls-26,.cls-27{fill:#333;}.cls-26{opacity:0.07;}.cls-28{fill:#ee4256;}.cls-29{fill:#acd2e2;}.cls-30{fill:#fcf47e;}.cls-31{fill:#515150;}.cls-32{fill:#b3b3b3;}.cls-33{fill:#f9340d;}</style></defs><title>CS-L2-U3</title><polygon class="cls-1" points="430.13 237.68 462.03 182.42 493.93 237.68 430.13 237.68"/><polygon class="cls-1" points="416.23 279.97 462.03 200.65 507.83 279.97 416.23 279.97"/><polygon class="cls-1" points="406.66 318.52 462.03 222.61 517.4 318.52 406.66 318.52"/><polygon class="cls-2" points="166.15 205.93 207.75 133.86 249.36 205.93 166.15 205.93"/><polygon class="cls-2" points="148.03 261.08 207.75 157.63 267.48 261.08 148.03 261.08"/><polygon class="cls-2" points="135.54 311.35 207.75 186.28 279.97 311.35 135.54 311.35"/><polygon class="cls-3" points="454.95 264.64 454.95 359.1 502.18 359.1 502.18 264.64 454.95 264.64 454.95 264.64"/><polygon class="cls-3" points="462.04 257.69 462.04 265.74 495.09 265.74 495.09 257.69 462.04 257.69 462.04 257.69"/><polygon class="cls-4" points="306.18 160.74 306.18 241.02 336.88 241.02 336.88 160.74 306.18 160.74 306.18 160.74"/><polygon class="cls-4" points="358.13 160.74 358.13 241.02 388.83 241.02 388.83 160.74 358.13 160.74 358.13 160.74"/><polyline class="cls-5" points="417.17 314.23 476.21 314.23 476.21 356.74 277.84 356.74 277.84 356.74 277.84 236.31 299.09 236.31 332.15 236.31 332.15 236.31 341.6 236.31 374.66 236.31 374.66 236.31 384.11 236.31 417.17 236.59"/><polygon class="cls-3" points="94.2 309.51 61.14 328.4 61.14 356.74 214.64 356.74 214.64 309.51 94.2 309.51 94.2 309.51"/><polygon class="cls-6" points="159.76 318.96 159.76 330.76 190.46 330.76 190.46 318.96 159.76 318.96 159.76 318.96"/><polygon class="cls-6" points="117.25 337.85 117.25 349.65 147.96 349.65 147.96 337.85 117.25 337.85 117.25 337.85"/><polygon class="cls-6" points="159.76 337.85 159.76 349.65 190.46 349.65 190.46 337.85 159.76 337.85 159.76 337.85"/><polygon class="cls-7" points="96 236.31 96 309.51 131.43 309.51 131.43 236.31 96 236.31 96 236.31"/><path class="cls-8" d="M96,226c0-13.86,14.81-25.11,33.06-25.11l4.72,14.17-4.72,11.81H96c0-.29,0-.58,0-.87Z"/><path class="cls-9" d="M129.07,226.86v-26c18.25,0,33.06,11.24,33.06,25.11,0,.29,0,.58,0,.87Z"/><polygon class="cls-7" points="96 226.86 96 236.31 162.13 236.31 162.13 226.86 96 226.86 96 226.86"/><polygon class="cls-10" points="159.77 248.11 159.77 274.09 183.38 274.09 183.38 248.11 159.77 248.11 159.77 248.11"/><polygon class="cls-11" points="129.06 236.31 129.06 309.51 162.13 309.51 162.13 236.31 129.06 236.31 129.06 236.31"/><polygon class="cls-12" points="211.72 316.6 211.72 356.74 301.45 356.74 301.45 316.6 211.72 316.6 211.72 316.6"/><path class="cls-13" d="M258.95,347.3v0a20.08,20.08,0,0,1-18.86-18.86h0V290.59h0v-7s0,0,0-.07a11.81,11.81,0,0,0-11.81-11.81H183.38V250.47h56.68v0c.39,0,.79,0,1.19,0a20.08,20.08,0,0,1,20.07,20.07c0,.4,0,.79,0,1.18h0v43a11.81,11.81,0,0,0,11.8,11.3h40.14v21.25Z"/><polygon class="cls-14" points="304.37 245.24 304.37 267.52 326.67 267.52 326.67 245.24 304.37 245.24 304.37 245.24"/><polygon class="cls-14" points="341.52 245.23 341.52 267.52 363.82 267.52 363.82 245.23 341.52 245.23 341.52 245.23"/><polygon class="cls-14" points="378.68 245.23 378.68 267.52 400.97 267.52 400.97 245.23 378.68 245.23 378.68 245.23"/><path class="cls-15" d="M315.62,151.29V97h0a18.9,18.9,0,0,1,18.89-18.89,19.48,19.48,0,0,1,2.46.16c-.07-.84-.1-1.67-.1-2.52a30.69,30.69,0,0,1,53.51-20.54,40.14,40.14,0,0,1,71.49-11.9,43.69,43.69,0,0,1,82.81,19.45c0,.44,0,.88,0,1.32a22.62,22.62,0,0,1,2.38-.13,21.25,21.25,0,0,1,0,42.51H341.6c-7.09,0-11.81,2.36-11.81,9.45v35.42Z"/><path class="cls-16" d="M365.21,151.29V120.6h0a18.9,18.9,0,0,1,21.35-18.73c-.07-.83-.1-1.67-.1-2.52A30.7,30.7,0,0,1,440,78.8a40.15,40.15,0,0,1,71.49-11.9,43.69,43.69,0,0,1,82.81,19.45c0,.44,0,.88,0,1.31a21.91,21.91,0,0,1,2.38-.13,21.25,21.25,0,0,1,0,42.51H391.19c-7.08,0-11.8,2.36-11.81,9.45v11.81Z"/><polygon class="cls-17" points="358.13 150.75 358.13 167.27 388.83 167.27 388.83 150.75 358.13 150.75 358.13 150.75"/><polygon class="cls-17" points="306.18 150.75 306.18 167.27 336.88 167.27 336.88 150.75 306.18 150.75 306.18 150.75"/><polygon class="cls-18" points="311.88 285.25 311.88 357.38 388.83 357.38 388.83 285.25 311.88 285.25 311.88 285.25"/><polygon class="cls-19" points="306.08 278.64 306.08 288.08 396.01 288.08 396.01 278.64 306.08 278.64 306.08 278.64"/><polygon class="cls-20" points="332.15 321.89 332.15 356.74 371.66 356.74 371.66 321.89 332.15 321.89 332.15 321.89"/><polygon class="cls-21" points="336.35 325.35 336.35 356.74 367.49 356.74 367.49 325.35 336.35 325.35 336.35 325.35"/><polygon class="cls-20" points="335.88 328.4 335.88 330.9 367.95 330.9 367.95 328.4 335.88 328.4 335.88 328.4"/><polygon class="cls-20" points="335.87 334.16 335.87 336.67 367.94 336.67 367.94 334.16 335.87 334.16 335.87 334.16"/><polygon class="cls-20" points="335.86 339.93 335.86 342.43 367.93 342.43 367.93 339.93 335.86 339.93 335.86 339.93"/><polygon class="cls-20" points="335.85 345.69 335.85 348.2 367.92 348.2 367.92 345.69 335.85 345.69 335.85 345.69"/><polygon class="cls-20" points="335.84 351.46 335.84 353.97 367.9 353.97 367.9 351.46 335.84 351.46 335.84 351.46"/><rect class="cls-22" x="433.47" y="325.35" width="7.02" height="32.03"/><polygon class="cls-23" points="568.18 278.81 622.5 304.08 622.5 356.74 568.18 356.74 568.18 278.81 568.18 278.81"/><path class="cls-7" d="M624.35,311.45l-56.66-30.68a3.54,3.54,0,0,1,3.37-6.23l56.66,30.68a3.54,3.54,0,1,1-3.37,6.23Z"/><polygon class="cls-23" points="533.94 224.5 570.54 252.98 570.54 356.74 497.34 356.74 497.34 252.98 533.94 224.5 533.94 224.5"/><polygon class="cls-24" points="518.59 258.91 506.56 258.91 506.56 288.73 518.59 288.73 530.62 288.73 530.62 258.91 518.59 258.91"/><polygon class="cls-14" points="510.51 285.16 527.26 285.16 527.26 262.47 510.51 262.47 510.51 285.16 510.51 285.16"/><polygon class="cls-7" points="561.91 212.69 561.91 238.66 546.12 232.37 546.12 212.69 561.91 212.69 561.91 212.69"/><polygon class="cls-7" points="565.81 207.96 565.81 215.05 542.21 215.05 542.21 207.96 565.81 207.96 565.81 207.96"/><path class="cls-7" d="M486.21,256.13a3.55,3.55,0,0,1,.75-5l44.88-33.08a3.53,3.53,0,0,1,4.2,0l44.88,33.08a3.54,3.54,0,0,1-4.2,5.71l-42.78-31.54-42.77,31.54a3.55,3.55,0,0,1-5-.75Z"/><polygon class="cls-24" points="519.36 300.66 507.33 300.66 507.33 330.47 519.36 330.47 531.39 330.47 531.39 300.66 519.36 300.66"/><polygon class="cls-14" points="511.28 326.91 527.86 326.91 527.86 304.22 511.28 304.22 511.28 326.91 511.28 326.91"/><polygon class="cls-24" points="549.51 300.66 537.48 300.66 537.48 330.47 549.51 330.47 561.54 330.47 561.54 300.66 549.51 300.66"/><polygon class="cls-14" points="541.43 326.91 557.59 326.91 557.59 304.22 541.43 304.22 541.43 326.91 541.43 326.91"/><polygon class="cls-24" points="549.51 258.91 537.48 258.91 537.48 288.73 549.51 288.73 561.54 288.73 561.54 258.91 549.51 258.91"/><polygon class="cls-14" points="541.43 285.16 557.59 285.16 557.59 262.47 541.43 262.47 541.43 285.16 541.43 285.16"/><polygon class="cls-7" points="577.63 356.74 610.69 356.74 610.69 316.6 577.63 316.6 577.63 356.74 577.63 356.74"/><polygon class="cls-25" points="492.26 339.42 492.26 356.74 501.71 356.74 501.71 339.42 492.26 339.42 492.26 339.42"/><path class="cls-26" d="M586.47,434.83a10.36,10.36,0,0,1-.16-1.49V401.92l-.11-.68-.27-.69-5.19-7.78h0l-.88-1.33c-.12-.5-.28-1-.44-1.48l-.14-.41c-.15-.42-.32-.83-.5-1.24l-.23-.49q-.23-.49-.49-1l-.37-.66-.37-.61q-.42-.67-.88-1.33l-.24-.34q-.32-.44-.66-.86l0,0h0c-23.22-29-120.95-34.48-120.95-34.48s-55.06-30.78-83.68-41.62-80.64-9.54-121-9.11c-35.69.38-79.79,11.32-90.76,13a4,4,0,0,0-3.05,2.39l-.23.56c-10,8.24-51.73,34.28-55.2,41.65-1.77,3.77-2.82,10.85-3.42,16.88H96a59.22,59.22,0,0,0-.66,12.46,21.5,21.5,0,0,0,.24,3.85v0l0,.14c-1.94,0-1.73,5.5-1.73,8.72v30.68a8.77,8.77,0,0,0,8.77,8.77h28.13l3.52.29a41.21,41.21,0,0,0,80.2,8.87H460a41.22,41.22,0,0,0,78.5-.4l1.77,0h0c1.1,0,2-.07,2.79-.12,13.44-.87,42.06-9.1,42.06-9.1C586.23,436.19,586.58,435.57,586.47,434.83Z"/><polygon class="cls-27" points="218.53 442.46 130.21 435.09 122.83 367.15 222.56 367.15 234.56 426.74 218.53 442.46"/><polygon class="cls-27" points="539.75 443.88 456.94 442.59 421.3 367.15 545.85 367.15 557.85 426.73 539.75 443.88"/><path class="cls-28" d="M586,432.95a10.36,10.36,0,0,1-.16-1.49V400l-.11-.68-.27-.69-6.07-9.1c-9.1-36.42-125.3-42.92-125.3-42.92S399,315.86,370.41,305s-80.64-9.54-121-9.11c-35.69.38-79.79,11.32-90.76,13a4,4,0,0,0-3.05,2.39l-.23.56c-10,8.24-51.73,34.28-55.2,41.65S96,381,96,381l-.54,3.85a13.62,13.62,0,0,1-.41,1.92l0,.14c-1.94,0-1.73,5.5-1.73,8.72v30.68a8.77,8.77,0,0,0,8.77,8.77h28.13l1.29.11A44.37,44.37,0,1,1,217,442.08l4.7.38H452.35l4.59.13a44.37,44.37,0,1,1,82.81,1.29c1.1,0,2-.07,2.79-.12,13.44-.87,42.06-9.1,42.06-9.1C585.75,434.31,586.1,433.68,586,432.95Z"/><path class="cls-29" d="M282.91,305.11s71.94-8.5,142.14,43.56l-128.6-2.53Z"/><rect class="cls-27" x="167.29" y="435.94" width="338.24" height="8.1"/><path class="cls-29" d="M191.69,311.51s57.59-6.08,70.36-5.1L270.41,348l-72.87,1.17Z"/><path class="cls-29" d="M160.82,341.67c3.09-7.23,10.36-26.82,16-28a80.72,80.72,0,0,1,10.34-1.65l5.53,37.07-28.31,1.06S156.66,351.42,160.82,341.67Z"/><path class="cls-30" d="M545.13,372.4c13.91,0,25.56,6.11,29.91,8.72a22.11,22.11,0,0,1,4.35,8.44l.88,1.33c-1.65,4.41-15.09,1.93-19.8,1.93s-6.24-1.43-6.24-1.43-15-12.48-15.34-14.17S545.13,372.4,545.13,372.4Z"/><circle class="cls-31" cx="498.66" cy="431.47" r="41.21"/><circle class="cls-32" cx="498.66" cy="431.47" r="27.7"/><circle class="cls-27" cx="498.66" cy="431.47" r="6.72"/><circle class="cls-31" cx="174.75" cy="431.47" r="41.21"/><circle class="cls-32" cx="174.75" cy="431.47" r="27.7"/><circle class="cls-27" cx="174.75" cy="431.47" r="6.72"/><path class="cls-27" d="M327,365.33c0,1.76-1.43,2.25-3.19,2.25H307.84c-1.76,0-3.19-.49-3.19-2.25h0c0-1.76,1.43-2.25,3.19-2.25h15.94c1.76,0,3.19.49,3.19,2.25Z"/><path class="cls-26" d="M327,366.23c0,1.76-1.43,2.25-3.19,2.25H307.84c-1.76,0-3.19-.49-3.19-2.25h0c0-1.76,1.43-2.25,3.19-2.25h15.94c1.76,0,3.19.49,3.19,2.25Z"/><path class="cls-26" d="M224.75,366.23c0,1.76-1.43,2.25-3.19,2.25H205.62c-1.76,0-3.19-.49-3.19-2.25h0c0-1.76,1.43-2.25,3.19-2.25h15.94c1.76,0,3.19.49,3.19,2.25Z"/><path class="cls-27" d="M224.75,365.33c0,1.76-1.43,2.25-3.19,2.25H205.62c-1.76,0-3.19-.49-3.19-2.25h0c0-1.76,1.43-2.25,3.19-2.25h15.94c1.76,0,3.19.49,3.19,2.25Z"/><path class="cls-33" d="M116.39,386.86a3.94,3.94,0,0,0,3.94-3.94v-8.54a3.94,3.94,0,0,0-3.94-3.94H95.5a59.22,59.22,0,0,0-.66,12.46,20.58,20.58,0,0,0,.25,3.95Z"/></svg>