<svg id="Layer_1" data-name="Layer 1" xmlns="http://www.w3.org/2000/svg" xmlns:xlink="http://www.w3.org/1999/xlink" viewBox="0 0 708.66 481.89"><defs><style>.cls-1,.cls-29{fill:none;}.cls-2{fill:#f4e8df;}.cls-3{fill:#c6c6c6;}.cls-4{fill:#eaf3f9;}.cls-5{clip-path:url(#clip-path);}.cls-6{fill:#96bf8c;}.cls-7{fill:#4c836a;}.cls-8{fill:#f4dda4;}.cls-9{fill:#3d233e;}.cls-10{fill:#ee4256;}.cls-11,.cls-32{fill:#191919;}.cls-11,.cls-24,.cls-25{opacity:0.05;}.cls-12{fill:#8ba9cc;}.cls-13{fill:#6d4d2f;}.cls-14{fill:#c5e0f9;}.cls-15{fill:#e7685d;}.cls-16{fill:#3952a0;}.cls-17{fill:#fdd8b8;}.cls-18{fill:#fec82b;}.cls-19,.cls-20{fill:#f8ab8d;}.cls-20,.cls-22,.cls-26{fill-rule:evenodd;}.cls-21{fill:#8b6339;}.cls-22,.cls-23{fill:#dc846a;}.cls-24{fill:#0c0c0c;}.cls-26{fill:#070707;}.cls-27{fill:#b78358;}.cls-28{fill:#9ebadd;}.cls-29{stroke:#dc846a;stroke-linecap:round;stroke-linejoin:round;stroke-width:3.09px;}.cls-30{fill:#6b8daf;}.cls-31,.cls-35{opacity:0.07;}.cls-33{fill:#de9a51;}.cls-34{fill:#ffd833;}.cls-35,.cls-37{fill:#0f0f0f;}.cls-36{fill:#ef402d;}.cls-38{fill:#fff;}.cls-39{fill:#49a579;}.cls-40{fill:#ffc757;}</style><clipPath id="clip-path"><rect class="cls-1" x="372.92" y="197.28" width="69.77" height="69.77"/></clipPath></defs><title>CS-L2-U3</title><rect class="cls-2" x="163.65" y="211.86" width="381.36" height="145.01" rx="36.99" ry="36.99"/><rect class="cls-3" x="365.53" y="189.83" width="85.81" height="85.81"/><rect class="cls-4" x="372.92" y="197.28" width="69.77" height="69.77"/><g class="cls-5"><path class="cls-6" d="M392,250.51a18.88,18.88,0,0,0-18.88,18.88h37.76A18.88,18.88,0,0,0,392,250.51Z"/><path class="cls-7" d="M446.77,253.29a16.1,16.1,0,0,0-16.1,16.1h32.2A16.1,16.1,0,0,0,446.77,253.29Z"/><path class="cls-6" d="M419.56,240.6a28.79,28.79,0,0,0-28.79,28.79h57.58A28.79,28.79,0,0,0,419.56,240.6Z"/><circle class="cls-8" cx="419.14" cy="219.23" r="10.7" transform="translate(-39.63 104.02) rotate(-13.52)"/></g><path class="cls-9" d="M309.89,315.33c0-.26,0-.53,0-.8,0-3.37-1.78-6.1-4-6.1s-4,2.73-4,6.1c0,.27,0,.54,0,.8-4.36,2.46-7.48,8.9-7.48,16.45,0,9.68,5.11,17.52,11.42,17.52s11.42-7.85,11.42-17.52C317.37,324.23,314.25,317.79,309.89,315.33Z"/><polygon class="cls-10" points="330.75 311.88 281.15 311.88 288.57 270.15 321.34 270.15 330.75 311.88"/><circle class="cls-11" cx="288.27" cy="142.04" r="3.95"/><circle class="cls-11" cx="307.8" cy="132.26" r="6.31"/><path class="cls-11" d="M317.69,232.7l-31.78-24.25a12.59,12.59,0,0,0-4.46-3.28,6.94,6.94,0,0,0-1.17-.49V188.74a41.86,41.86,0,0,0,3.2-19,31.52,31.52,0,0,0-1.2-6.81c2.59-2.86,3.88-7.41,2.84-14.8-5.36-9.89-24.4-9.12-33.84-4.6-11.82,5.66-14.66,11.79-16.19,40.25-.38,7-.55,13.48-.51,19.58a7,7,0,0,0-6.8,3.46l-21.22,36.75a8.63,8.63,0,0,0-.82.92h0c-2.35,3.07-2.24,7.11.25,9l17.36,13,1-1.28,4.24,3.46c-1,11.33-2.32,23.63-2.72,27.2h-.11V375.9h5.41v80.32H233v4.53a17.66,17.66,0,0,1-3.25-.62,1.32,1.32,0,0,0-1.69,1.26V470h.06a2.61,2.61,0,0,0,2.55,2.05h76.13a1.31,1.31,0,0,0,1.32-1.32v-1.6a3.44,3.44,0,0,0-2.57-3.33l-22.77-5.93a6.55,6.55,0,0,0-1.93-.19v-3.5H283V375.9h5.3V295.82h-.08l-3.55-43,.63-6.6,8.12-.63.18,1.82,21.6-1.86c2.35-.23,4.2-2.2,4.8-4.81A7,7,0,0,0,317.69,232.7Zm-51,223.52v3.86a1.31,1.31,0,0,0-1.32,1.31v3.7l-18.17-4.73v-4.14h2.27V375.9h15.23v80.32Zm-37-205.32c0,.81,0,1.74-.06,2.77L220.73,247l7.52-13C229,240.58,229.66,247.23,229.66,250.9Zm56.7-16,.75-7.86,8.2,6.26-3.13.28.09.87Z"/><polygon class="cls-9" points="355.41 347.99 264.54 347.99 264.54 431.5 270.43 431.5 271.26 444.26 277.04 444.26 277.88 431.5 342.28 431.5 343.11 444.26 348.9 444.26 349.73 431.5 355.41 431.5 355.41 347.99"/><rect class="cls-12" x="264.54" y="347.99" width="90.87" height="25.47"/><rect class="cls-12" x="264.54" y="377.68" width="90.87" height="23.98"/><rect class="cls-12" x="264.54" y="406.23" width="90.87" height="25.58"/><rect class="cls-13" x="242.63" y="158.36" width="34.57" height="64.93"/><circle class="cls-12" cx="375.03" cy="74.43" r="62"/><circle class="cls-14" cx="287.03" cy="140.66" r="3.95"/><circle class="cls-14" cx="306.57" cy="130.4" r="6.31"/><path id="_Path_" data-name="&lt;Path&gt;" class="cls-15" d="M225,469.42v.07a2.61,2.61,0,0,0,2.61,2.61h38.84a1.31,1.31,0,0,0,1.32-1.32v-1.36Z"/><path id="_Path_2" data-name="&lt;Path&gt;" class="cls-15" d="M262.27,469.42v.07a2.61,2.61,0,0,0,2.61,2.61h38.84a1.31,1.31,0,0,0,1.32-1.32v-1.36Z"/><rect id="_Rectangle_" data-name="&lt;Rectangle&gt;" class="cls-16" x="285.71" y="195.62" width="14.01" height="58.39" rx="7.01" ry="7.01" transform="translate(648.99 128.45) rotate(127.34)"/><path id="_Path_3" data-name="&lt;Path&gt;" class="cls-15" d="M237,405h0a7.09,7.09,0,0,0-7.09,7.09v50.21a7.09,7.09,0,0,0,7.09,7.09h0a7.09,7.09,0,0,0,7.09-7.09V412.07A7.09,7.09,0,0,0,237,405Z"/><path id="_Rectangle_2" data-name="&lt;Rectangle&gt;" class="cls-16" d="M228.07,296h18.29a0,0,0,0,1,0,0V449.22a7,7,0,0,1-7,7h-4.29a7,7,0,0,1-7-7V296a0,0,0,0,1,0,0Z" transform="translate(474.44 752.19) rotate(180)"/><path id="_Path_4" data-name="&lt;Path&gt;" class="cls-17" d="M225,461.39V470h42.76v-.86a3.43,3.43,0,0,0-2.57-3.33l-22.77-5.93a6.35,6.35,0,0,0-3.19,0c-6.08,1.58-10.36.88-12.54.23A1.32,1.32,0,0,0,225,461.39Z"/><line id="_Path_5" data-name="&lt;Path&gt;" class="cls-17" x1="265.18" y1="465.85" x2="242.41" y2="459.92"/><path id="_Path_6" data-name="&lt;Path&gt;" class="cls-15" d="M270.68,405h0a7.09,7.09,0,0,1,7.09,7.09v50.21a7.09,7.09,0,0,1-7.09,7.09h0a7.09,7.09,0,0,1-7.09-7.09V412.07A7.09,7.09,0,0,1,270.68,405Z"/><path id="_Rectangle_3" data-name="&lt;Rectangle&gt;" class="cls-16" d="M261.6,296h18.29a0,0,0,0,1,0,0V449.22a7,7,0,0,1-7,7H268.6a7,7,0,0,1-7-7V296A0,0,0,0,1,261.6,296Z" transform="translate(541.49 752.19) rotate(180)"/><path id="_Path_7" data-name="&lt;Path&gt;" class="cls-18" d="M235.69,203.89h36.48c7.2,0,13,4.8,13,10.73l-3.63,38.22,3.63,44H222.66s3.91-34.46,3.91-46c0-9.07-3.91-36.28-3.91-36.28C222.66,208.69,228.49,203.89,235.69,203.89Z"/><rect id="_Rectangle_4" data-name="&lt;Rectangle&gt;" class="cls-19" x="250.67" y="188.09" width="9.45" height="22.92" rx="3.61" ry="3.61" transform="translate(510.79 399.09) rotate(180)"/><path id="_Path_8" data-name="&lt;Path&gt;" class="cls-20" d="M265.1,199.51c-14.56.78-22.31-10-24.69-23.34-2.51-14.08,6.92-25.72,18.34-25.76,13,0,20.57,5,21.64,19.29.67,9-2,26.91-15.29,29.82Z"/><g id="_Group_" data-name="&lt;Group&gt;"><line id="_Path_9" data-name="&lt;Path&gt;" class="cls-21" x1="277.85" y1="172.18" x2="272.45" y2="173.16"/><path id="_Path_10" data-name="&lt;Path&gt;" class="cls-21" d="M278.18,173a.91.91,0,0,0-.49-1.75l-5.4,1a.91.91,0,0,0,.33,1.8l5.4-1Z"/></g><g id="_Group_2" data-name="&lt;Group&gt;"><line id="_Path_11" data-name="&lt;Path&gt;" class="cls-21" x1="265.83" y1="171.49" x2="260.37" y2="172.03"/><path id="_Path_12" data-name="&lt;Path&gt;" class="cls-21" d="M265.91,170.58a.91.91,0,0,1,0,1.82l-5.46.54a.91.91,0,0,1-.18-1.82l5.46-.54Z"/></g><circle id="_Path_13" data-name="&lt;Path&gt;" cx="262.61" cy="177.93" r="1.24"/><circle id="_Path_14" data-name="&lt;Path&gt;" cx="275.82" cy="178.35" r="1.24"/><polygon id="_Path_15" data-name="&lt;Path&gt;" class="cls-22" points="268.23 174.45 268.06 185.2 270.37 184.68 268.23 174.45"/><path id="_Path_16" data-name="&lt;Path&gt;" class="cls-10" d="M272.67,206.76c0,8.09-7.75,14.66-17.28,14.66s-17.27-6.58-17.27-14.66a12.59,12.59,0,0,1,.33-2.87h33.89A12.59,12.59,0,0,1,272.67,206.76Z"/><path id="_Path_17" data-name="&lt;Path&gt;" class="cls-19" d="M240.83,206.76c0,6.6,6.52,12,14.56,12s14.56-5.35,14.56-12a9.82,9.82,0,0,0-.42-2.87H241.26A9.82,9.82,0,0,0,240.83,206.76Z"/><rect class="cls-18" x="222.66" y="295.82" width="62.53" height="80.08" transform="translate(507.85 671.73) rotate(180)"/><rect id="_Rectangle_5" data-name="&lt;Rectangle&gt;" class="cls-16" x="212.66" y="200.3" width="14.01" height="58.39" rx="7.01" ry="7.01" transform="translate(144.18 -79.09) rotate(30)"/><path id="_Path_18" data-name="&lt;Path&gt;" class="cls-17" d="M262.27,461.39V470H305v-.86a3.43,3.43,0,0,0-2.57-3.33l-22.77-5.93a6.35,6.35,0,0,0-3.19,0c-6.08,1.58-10.36.88-12.54.23A1.32,1.32,0,0,0,262.27,461.39Z"/><path id="_Path_19" data-name="&lt;Path&gt;" class="cls-23" d="M247.34,272.56a81.9,81.9,0,0,0,8.59-3.38c2.81,2.71-1.17,6.42-1.17,6.42Z"/><rect id="_Rectangle_6" data-name="&lt;Rectangle&gt;" class="cls-19" x="226.46" y="245.13" width="11.27" height="43.2" rx="4.5" ry="4.5" transform="translate(585.48 255.42) rotate(129.19)"/><path id="_Path_20" data-name="&lt;Path&gt;" class="cls-16" d="M220.27,266.45l8.54-11.06-17.39-13.06c-2.49-1.91-6.42-1-8.77,2.12h0c-2.35,3.07-2.24,7.11.25,9Z"/><path id="_Path_21" data-name="&lt;Path&gt;" class="cls-24" d="M246.5,272.39l12,2.05s6.67,6.51,7.92,9.87c1.46,3.91.24,9.22-.05,10.19-.78,2.6-10.06-7.61-10.06-7.61l-11.67-3.1Z"/><path id="_Path_22" data-name="&lt;Path&gt;" class="cls-19" d="M244.69,272l12.13.48s7.45,5.59,9.13,8.76c2,3.68,1.43,9.11,1.27,10.11-.44,2.67-11-6.25-11-6.25l-12-1.56Z"/><g id="_Group_3" data-name="&lt;Group&gt;" class="cls-25"><path id="_Path_23" data-name="&lt;Path&gt;" class="cls-26" d="M244.25,173a6.9,6.9,0,0,0-2.4-2.51c-3.72-2.58-8.06-.49-6.4,3.93,1.15,3.09,3.12,10.72,5.53,8A14.66,14.66,0,0,0,244.25,173Z"/><polygon id="_Path_24" data-name="&lt;Path&gt;" class="cls-26" points="241.38 173.49 236.49 172.67 240.18 179.37 238.94 173.85 241.38 173.49"/></g><g id="_Group_4" data-name="&lt;Group&gt;"><path id="_Path_25" data-name="&lt;Path&gt;" class="cls-20" d="M244.86,171.81a6.9,6.9,0,0,0-2.4-2.51c-3.72-2.58-8.06-.49-6.4,3.93,1.15,3.09,3.12,10.72,5.53,8A14.66,14.66,0,0,0,244.86,171.81Z"/><polygon id="_Path_26" data-name="&lt;Path&gt;" class="cls-22" points="242 172.26 237.11 171.43 240.79 178.14 239.55 172.61 242 172.26"/></g><path id="_Path_27" data-name="&lt;Path&gt;" class="cls-21" d="M248.63,217.5c-.19-11.65-.62-34.57.17-43.17,4.06-12.71,37.41,3.39,33.23-26.26-5.36-9.89-24.4-9.12-33.84-4.6-11.82,5.66-14.66,11.79-16.19,40.25a263.8,263.8,0,0,0,.08,34.55,4.64,4.64,0,0,0,3.49,4.11,39,39,0,0,0,7.05.89A5.69,5.69,0,0,0,248.63,217.5Z"/><path id="_Path_28" data-name="&lt;Path&gt;" class="cls-23" d="M263,246.15a81.9,81.9,0,0,0-3.73,8.45c-3.9.05-3.69-5.38-3.69-5.38Z"/><path id="_Path_29" data-name="&lt;Path&gt;" class="cls-19" d="M273.42,235.66l-12.14.24s-7.57,5.44-9.31,8.57c-2,3.64-1.61,9.08-1.47,10.09.39,2.68,11.08-6,11.08-6l12-1.63Z"/><rect id="_Rectangle_7" data-name="&lt;Rectangle&gt;" class="cls-19" x="280.85" y="218.66" width="11.27" height="43.2" rx="4.5" ry="4.5" transform="translate(503.85 -63.96) rotate(85.56)"/><path id="_Path_30" data-name="&lt;Path&gt;" class="cls-16" d="M290.49,247.43l-1.41-13.9,21.66-1.91c3.12-.3,6,2.58,6.33,6.43h0c.37,3.85-1.85,7.22-5,7.52Z"/><path class="cls-24" d="M280.61,248l-4.08.26a.94.94,0,0,1-1-.88l-.83-12.86,5.35-.39L281.49,247A.94.94,0,0,1,280.61,248Z"/><path class="cls-27" d="M274.52,234.28h6a0,0,0,0,1,0,0v12.31a1.53,1.53,0,0,1-1.53,1.53H276a1.53,1.53,0,0,1-1.53-1.53V234.28A0,0,0,0,1,274.52,234.28Z" transform="translate(-14.98 18.4) rotate(-3.7)"/><rect class="cls-24" x="272.83" y="233.7" width="8.45" height="2.33" rx="1.16" ry="1.16" transform="matrix(1, -0.06, 0.06, 1, -14.57, 18.36)"/><rect class="cls-28" x="272.83" y="233.08" width="8.45" height="2.33" rx="1.16" ry="1.16" transform="translate(-14.53 18.36) rotate(-3.7)"/><path class="cls-29" d="M260.64,192.5c2.84-.77,9.13-2.14,10.37-1.92"/><path class="cls-12" d="M499.32,410.9c-6.37.28-100.69,0-119.12.28V348.12A19.85,19.85,0,0,1,400,328.26h79.41a19.85,19.85,0,0,1,19.85,19.85Z"/><path class="cls-30" d="M499.32,401a19.85,19.85,0,0,0-19.85-19.85H400A19.85,19.85,0,0,0,380.2,401v10.2H499.32Z"/><rect class="cls-9" x="379.14" y="407.29" width="119.09" height="14.35"/><path class="cls-9" d="M395.84,429.27a16.42,16.42,0,0,1-16.42,16.42h0A16.42,16.42,0,0,1,363,429.27V380.85a16.42,16.42,0,0,1,16.42-16.42h0a16.42,16.42,0,0,1,16.42,16.42Z"/><path class="cls-9" d="M514.93,429.27a16.42,16.42,0,0,1-16.42,16.42h0a16.42,16.42,0,0,1-16.42-16.42V380.85a16.42,16.42,0,0,1,16.42-16.42h0a16.42,16.42,0,0,1,16.42,16.42Z"/><g class="cls-31"><path class="cls-32" d="M403.84,38c-5-4.93-15.31-9.31-27.17-9.31-12.67,0-23.53,4-28.12,9.62A3.62,3.62,0,0,0,350.3,44c-.13.23-.26.46-.37.69,5.16,6.48,7.24,33.22,9.74,33.35,1.5.07-.16-3.32,2.47-3.09,1.78.15,0,8.34,1.85,9.89s1.23,12,2.19,12.24c1.22.27.42-.71.9-.65,2,.24.66,4.3,2.21,4.3s.42-1.37,1.81-1.21,4.33,9.73,3.71,11.74-1.7,7,1.08,7,1.85-2,1.24-5.87,2.47-10.2,3.4-11.59,2.35,1.05,2.94,0c.78-1.39-.28-9.21.93-9.27s.34,1.61,1.71,1.95c2.15.54-.11-5.79,1.55-12.69,1.89-7.85,4.94-12.64,6.17-12.44,1.4.23.93-1.39.77-5.25s6.64-16.22,6.64-16.22l.93-2.41-.22-.32A3.62,3.62,0,0,0,403.84,38Z"/><circle class="cls-32" cx="376.05" cy="122.86" r="2.35"/></g><path class="cls-33" d="M401.26,42.3a3.63,3.63,0,0,0,2.57-6.19c-5-4.93-15.31-9.31-27.17-9.31-12.67,0-23.53,4-28.12,9.62a3.62,3.62,0,0,0,2.85,5.88ZM377.69,31.86"/><path class="cls-34" d="M383.47,98.88c.78-1.39-.28-9.21.93-9.27s.34,1.61,1.71,1.95c2.15.54-.11-5.79,1.55-12.69,1.89-7.85,4.94-12.64,6.17-12.44,1.4.23.93-1.39.77-5.25S401.24,45,401.24,45l.93-2.41c-3.56-5.43-13.8-10.84-25.87-10.84-12.68,0-23.33,4.82-26.36,11.11,5.16,6.48,7.24,33.22,9.74,33.35,1.5.07-.16-3.32,2.47-3.09,1.78.15,0,8.34,1.85,9.89s1.23,12,2.19,12.24c1.22.27.42-.71.9-.65,2,.24.66,4.3,2.21,4.3s.42-1.37,1.81-1.21,4.33,9.73,3.71,11.74-1.7,7,1.08,7,1.85-2,1.24-5.87,2.47-10.2,3.4-11.59S382.88,99.93,383.47,98.88Z"/><circle class="cls-35" cx="367.01" cy="43.54" r="6.23"/><circle class="cls-35" cx="377.4" cy="64.91" r="6.23"/><circle class="cls-35" cx="385.83" cy="49.77" r="6.23"/><circle class="cls-35" cx="377.85" cy="84.82" r="6.23" transform="translate(-9.16 98.48) rotate(-14.67)"/><circle class="cls-36" cx="366.4" cy="43.54" r="6.23"/><circle class="cls-36" cx="376.78" cy="64.91" r="6.23"/><circle class="cls-36" cx="385.21" cy="49.77" r="6.23"/><g class="cls-31"><path class="cls-37" d="M391.29,52.17c.08,2.16-4.33,2.32-4.41.17s.84-3.94,2.06-4S391.21,50,391.29,52.17Z"/><path class="cls-37" d="M393.7,47.5c.1,2.68-9.46,3-9.56.36a4.78,4.78,0,1,1,9.56-.36Z"/></g><g class="cls-31"><path class="cls-37" d="M374.55,36.93c-1-1.92,2.93-3.94,3.92-2s.91,3.93-.17,4.48S375.54,38.85,374.55,36.93Z"/><path class="cls-37" d="M374.35,42.19c-1.23-2.38,7.28-6.77,8.5-4.39a4.78,4.78,0,1,1-8.5,4.39Z"/></g><g class="cls-31"><path class="cls-37" d="M368.91,68.83c.08,2.14-4.29,2.3-4.37.16s.84-3.9,2-3.95S368.83,66.7,368.91,68.83Z"/><path class="cls-37" d="M371.3,64.21c.1,2.66-9.38,3-9.47.36a4.74,4.74,0,1,1,9.47-.36Z"/></g><g class="cls-31"><path class="cls-37" d="M373.2,91.16c-1.14-1.56,2-3.9,3.18-2.34s1.36,3.34.48,4S374.34,92.72,373.2,91.16Z"/><path class="cls-37" d="M373.76,95.83c-1.42-1.93,5.48-7,6.9-5.08a4.28,4.28,0,1,1-6.9,5.08Z"/></g><path class="cls-38" d="M391.29,52.79c.08,2.16-4.33,2.32-4.41.17s.84-3.94,2.06-4S391.21,50.64,391.29,52.79Z"/><path class="cls-38" d="M393.7,48.12c.1,2.68-9.46,3-9.56.36a4.78,4.78,0,1,1,9.56-.36Z"/><path class="cls-38" d="M374.55,37.55c-1-1.92,2.93-3.94,3.92-2s.91,3.93-.17,4.48S375.54,39.47,374.55,37.55Z"/><path class="cls-38" d="M374.35,42.8c-1.23-2.38,7.28-6.77,8.5-4.39a4.78,4.78,0,1,1-8.5,4.39Z"/><path class="cls-38" d="M368.91,69.45c.08,2.14-4.29,2.3-4.37.16s.84-3.9,2-3.95S368.83,67.32,368.91,69.45Z"/><path class="cls-38" d="M371.3,64.82c.1,2.66-9.38,3-9.47.36a4.74,4.74,0,1,1,9.47-.36Z"/><path class="cls-38" d="M363.18,47.65c-1.37-.9.47-3.7,1.84-2.8s2.07,2.25,1.56,3S364.55,48.55,363.18,47.65Z"/><path class="cls-38" d="M365,51.19c-1.7-1.12,2.28-7.19,4-6.07a3.63,3.63,0,1,1-4,6.07Z"/><path class="cls-38" d="M367.66,77.08c-1.14-1.56,2-3.9,3.18-2.34s1.36,3.34.48,4S368.8,78.64,367.66,77.08Z"/><path class="cls-38" d="M368.22,81.75c-1.42-1.93,5.48-7,6.9-5.08a4.28,4.28,0,1,1-6.9,5.08Z"/><path class="cls-38" d="M373.2,92.4c-1.14-1.56,2-3.9,3.18-2.34s1.36,3.34.48,4S374.34,94,373.2,92.4Z"/><path class="cls-38" d="M373.76,97.07c-1.42-1.93,5.48-7,6.9-5.08a4.28,4.28,0,1,1-6.9,5.08Z"/><ellipse class="cls-39" cx="381.52" cy="88.1" rx="4.56" ry="1.78" transform="translate(49.45 295.58) rotate(-45)"/><ellipse class="cls-39" cx="385.21" cy="55.27" rx="4.56" ry="1.78" transform="translate(73.75 288.57) rotate(-45)"/><ellipse class="cls-35" cx="381.72" cy="45.13" rx="3.1" ry="1.21" transform="translate(113.15 320.12) rotate(-52.42)"/><ellipse class="cls-35" cx="379.6" cy="78.88" rx="1.21" ry="3.1" transform="translate(159.18 397.84) rotate(-67.09)"/><ellipse class="cls-35" cx="362.45" cy="56" rx="3.1" ry="1.21" transform="translate(232.93 399.12) rotate(-78.1)"/><ellipse class="cls-39" cx="371" cy="65.67" rx="1.21" ry="3.1" transform="matrix(0.32, -0.95, 0.95, 0.32, 189.64, 395.91)"/><ellipse class="cls-39" cx="381.1" cy="45.13" rx="3.1" ry="1.21" transform="translate(112.91 319.63) rotate(-52.42)"/><ellipse class="cls-39" cx="360.16" cy="42.57" rx="3.1" ry="1.21" transform="translate(106.77 302.04) rotate(-52.42)"/><circle class="cls-36" cx="377.23" cy="84.82" r="6.23" transform="translate(-9.18 98.33) rotate(-14.67)"/><ellipse class="cls-39" cx="378.98" cy="78.88" rx="1.21" ry="3.1" transform="translate(158.81 397.27) rotate(-67.09)"/><ellipse class="cls-39" cx="361.83" cy="56" rx="3.1" ry="1.21" transform="matrix(0.21, -0.98, 0.98, 0.21, 232.44, 398.51)"/><ellipse class="cls-39" cx="385.83" cy="69.57" rx="3.1" ry="1.21" transform="translate(0.11 139.74) rotate(-20.53)"/><ellipse class="cls-39" cx="393.7" cy="44.21" rx="1.21" ry="3.1" transform="translate(199.74 389.66) rotate(-67.09)"/><ellipse class="cls-39" cx="370.31" cy="86.46" rx="3.1" ry="1.21" transform="translate(146.53 393.91) rotate(-67.09)"/><circle class="cls-40" cx="376.05" cy="121.01" r="2.35"/></svg>