<svg id="Layer_1" data-name="Layer 1" xmlns="http://www.w3.org/2000/svg" viewBox="0 0 708.66 481.89"><defs><style>.cls-1{fill:#ffe4cc;opacity:0.43;}.cls-2{fill:#171919;}.cls-2,.cls-21{opacity:0.07;}.cls-3{fill:#e7685d;}.cls-4{fill:#fec82b;}.cls-5{fill:#ffdc83;}.cls-6{fill:#3f5aa8;}.cls-13,.cls-7{fill:#f8ab8d;}.cls-10,.cls-7{fill-rule:evenodd;}.cls-8{fill:#8b6339;}.cls-9{fill:#754d24;}.cls-10,.cls-24{fill:#dc846a;}.cls-11,.cls-16,.cls-17{fill:none;stroke-linecap:round;stroke-linejoin:round;}.cls-11{stroke:#dc846a;stroke-width:2.25px;}.cls-12{fill:#f2f2f2;}.cls-14{fill:#324a7c;}.cls-15{fill:#fff;}.cls-16{stroke:#fff;stroke-width:0.84px;}.cls-17{stroke:#a8a8a7;stroke-width:0.5px;}.cls-18{fill:#3c3c68;}.cls-19{fill:#353560;}.cls-20{fill:#19a4a4;}.cls-21{fill:#1c1c1c;}.cls-22{fill:#b3b2b3;}.cls-23{fill:#4d4e4e;}.cls-25{fill:#405aa8;}.cls-26{fill:#31467c;}.cls-27{fill:#ee4256;}.cls-28{fill:#c2dbf2;}.cls-29{opacity:0.35;}.cls-30{fill:#caeae8;}.cls-31{fill:#54402b;}.cls-32{fill:#6c4e38;}.cls-33{fill:#4c4c4c;}.cls-34{fill:#8ba9cc;}.cls-35{fill:#aecded;}.cls-36{fill:#fdd8b8;}.cls-37{fill:#23b7af;}</style></defs><title>CS-L2-U3</title><polygon class="cls-1" points="0.29 422.99 0.29 140.24 709.43 44.48 709.43 327.22 0.29 422.99"/><path class="cls-2" d="M229.29,183.58l-29.76-1.94-48.78-122L79.87,173.83l-24.8-1.62c-7.85-.51-14.3,6.38-14,14.71,2.46,60,41.83,108.83,93.16,112.18S231,259.16,241.22,200C242.64,191.77,237.14,184.09,229.29,183.58ZM87.74,174.34,149.4,75l42.44,106.16Z"/><path class="cls-2" d="M663.35,178.48l-28.31.09L577.61,65.79V58.67a3,3,0,0,0-3-3h-2.13l-.4-.79-.4.79H400.56V38.46a8,8,0,0,0-8-8h-7.84V18.69a8,8,0,0,0-8-8H323a8,8,0,0,0-8,8V30.48h-7.84a8,8,0,0,0-8,8V55.63h-174a3,3,0,0,0-3,3v7.2a3,3,0,0,0,3,3H327.51V396.66h-20.9a8,8,0,0,0-8,8v20.76H257.06a8,8,0,0,0-8,8v48.86H449.59V433.39a8,8,0,0,0-8-8H400V404.65a8,8,0,0,0-8-8h-20.9V68.91H565L509.81,179l-21,.07c-7.86,0-13.83,7.35-12.92,15.63,6.56,59.7,49.17,105.72,100.6,105.56S670.2,253.76,676.38,194C677.23,185.74,671.22,178.45,663.35,178.48Zm-145.75.46L572.08,70.26l55.17,108.33Z"/><rect id="_Rectangle_" data-name="&lt;Rectangle&gt;" class="cls-3" x="544.18" y="88.01" width="12.96" height="53.72" rx="6.48" ry="6.48" transform="translate(743.7 -413.48) rotate(98.29)"/><rect class="cls-4" x="332.51" y="45.08" width="43.63" height="351.58"/><path class="cls-5" d="M311.62,396.66H397a8,8,0,0,1,8,8v20.76a0,0,0,0,1,0,0H303.63a0,0,0,0,1,0,0V404.65A8,8,0,0,1,311.62,396.66Z"/><path class="cls-5" d="M262.06,425.41H446.6a8,8,0,0,1,8,8v48.86a0,0,0,0,1,0,0H254.07a0,0,0,0,1,0,0V433.39A8,8,0,0,1,262.06,425.41Z"/><path class="cls-5" d="M312.15,30.48h85.43a8,8,0,0,1,8,8V59.22a0,0,0,0,1,0,0H304.16a0,0,0,0,1,0,0V38.46A8,8,0,0,1,312.15,30.48Z"/><path class="cls-5" d="M328,10.7h53.78a8,8,0,0,1,8,8V30.48a0,0,0,0,1,0,0H320a0,0,0,0,1,0,0V18.69A8,8,0,0,1,328,10.7Z"/><rect class="cls-4" x="127.12" y="55.63" width="455.49" height="13.28" rx="3.04" ry="3.04"/><polygon class="cls-4" points="191.08 191.74 144.4 74.98 78.09 181.83 72.19 178.16 145.75 59.62 197.54 189.16 191.08 191.74"/><g id="_Group_" data-name="&lt;Group&gt;"><g id="_Clip_Group_" data-name="&lt;Clip Group&gt;"><path id="_Rectangle_2" data-name="&lt;Rectangle&gt;" class="cls-6" d="M108.58,98.27h56.11a0,0,0,0,1,0,0v76a23.59,23.59,0,0,1-23.59,23.59H133a24.38,24.38,0,0,1-24.38-24.38V98.27a0,0,0,0,1,0,0Z" transform="translate(262.83 305.15) rotate(-176.08)"/></g></g><path id="_Path_" data-name="&lt;Path&gt;" class="cls-7" d="M148.08,95.51c-13.14-.19-19.44-10.34-20.76-22.51-1.39-12.81,7.8-22.7,18.07-22,11.68.76,18.18,5.78,18.27,18.67.05,8.09-3.48,24.06-15.58,25.87Z"/><path id="_Path_2" data-name="&lt;Path&gt;" class="cls-8" d="M126.75,56.31c-1.52,3.24-1.87,8.25-1.92,11.46a3.2,3.2,0,0,1,2.77-.49l.43.13h0l.21.09.21.09.22.12.15.09.25.16.2.14.19.15.18.16.18.17c.12.12.23.25.34.38s0,0,0,0l.07.09,0,.06,0,.06,0,0,0,0v0a.16.16,0,0,1,0,0l-.4,5.82a2.61,2.61,0,0,0,.49,2,3.17,3.17,0,0,0,.25.31,4.17,4.17,0,0,0,1.74.64,3,3,0,0,0,3.24-2.55l.14-2.08a3,3,0,0,1,3-2.81h.53c.2-2.37.31-4.24.37-5.41.07-1.45.68-2.37,3.9-2.47h1.07c.56,0,1.18,0,1.86.08l14.72,1,.17,0a7.28,7.28,0,0,0,4.21-2.48,4.39,4.39,0,0,0,1-2.86l-4.08-.28a8.28,8.28,0,0,0,2.34-3.39,19.34,19.34,0,0,0,1.24-4.4l-6.76-.46s-6.43-5.38-14-5.26c-11.92.19-16.36,7.54-16.36,7.54A12.81,12.81,0,0,0,124,51C125.38,52.85,126.23,53.7,126.75,56.31Z"/><path id="_Path_3" data-name="&lt;Path&gt;" class="cls-9" d="M144.64,62.75c.56,0,1.18,0,1.86.08l14.72,1,.17,0a7.28,7.28,0,0,0,4.21-2.48,4.39,4.39,0,0,0,1-2.86s-3.78,3.71-6,4l-.18,0C158.09,62.65,148,62.73,144.64,62.75Z"/><g id="_Group_2" data-name="&lt;Group&gt;"><line id="_Path_4" data-name="&lt;Path&gt;" class="cls-8" x1="158.73" y1="70.74" x2="154.1" y2="70.19"/><path id="_Path_5" data-name="&lt;Path&gt;" class="cls-8" d="M158.78,71.52a.78.78,0,0,0,0-1.55l-4.63-.55A.78.78,0,0,0,154,71l4.63.55Z"/></g><g id="_Group_3" data-name="&lt;Group&gt;"><line id="_Path_6" data-name="&lt;Path&gt;" class="cls-8" x1="146.61" y1="69.68" x2="141.95" y2="69.59"/><path id="_Path_7" data-name="&lt;Path&gt;" class="cls-8" d="M146.77,68.92a.78.78,0,0,1-.18,1.54l-4.66-.08a.78.78,0,1,1,0-1.55l4.66.08Z"/></g><circle id="_Path_8" data-name="&lt;Path&gt;" cx="144.52" cy="74.57" r="1.05" transform="translate(60.26 213.66) rotate(-86.08)"/><circle id="_Path_9" data-name="&lt;Path&gt;" cx="155.69" cy="75.69" r="1.05" transform="translate(69.54 225.85) rotate(-86.08)"/><path id="_Path_10" data-name="&lt;Path&gt;" class="cls-9" d="M166.12,50.4s-3,5.79-6.83,7c-3.23,1.07-18.6.51-18.6.51a26.24,26.24,0,0,0,4.68,1.46c1.39.24,14.85,1.59,17.17-1.23A13.18,13.18,0,0,0,166.12,50.4Z"/><g id="_Group_4" data-name="&lt;Group&gt;"><path id="_Path_11" data-name="&lt;Path&gt;" class="cls-7" d="M130.83,69.74a6.17,6.17,0,0,0-2-2.39c-3.16-2.53-7.16-.93-6,3.12.84,2.82,2.13,9.75,4.45,7.45A13.1,13.1,0,0,0,130.83,69.74Z"/><polygon id="_Path_12" data-name="&lt;Path&gt;" class="cls-10" points="128.24 69.96 123.93 68.93 126.81 75.13 126.04 70.13 128.24 69.96"/></g><polygon id="_Path_13" data-name="&lt;Path&gt;" class="cls-10" points="150.32 73.46 149.55 82.56 151.54 82.25 150.32 73.46"/><path class="cls-11" d="M152.62,87.75c-2.48-.86-8-2.46-9.11-2.34"/><rect class="cls-12" x="136.5" y="98.73" width="7.97" height="6.43" transform="translate(273.68 213.25) rotate(-176.08)"/><path id="_Path_14" data-name="&lt;Path&gt;" class="cls-13" d="M141.53,84.39h-.14a4,4,0,0,1,3.71,4.42l-.61,8.85c-.16,2.29-1.92,2.88-4.2,2.73h.07c-2.29-.16-4-1-3.86-3.28l.61-8.85A4.15,4.15,0,0,1,141.53,84.39Z"/><polygon id="_Path_15" data-name="&lt;Path&gt;" class="cls-14" points="130.21 97.72 136.77 98.17 140.96 105.01 135.74 112.34 130.21 97.72"/><polygon id="_Path_16" data-name="&lt;Path&gt;" class="cls-14" points="151.49 99.17 144.22 98.67 140.39 104.86 146.3 113.71 151.49 99.17"/><rect class="cls-15" x="134.38" y="128.8" width="13.67" height="8.41" transform="translate(273.01 275.35) rotate(-176.08)"/><line class="cls-16" x1="125.47" y1="98.55" x2="135.6" y2="129.14"/><line class="cls-16" x1="153.98" y1="100.74" x2="147.38" y2="129.72"/><rect class="cls-17" x="143.8" y="131.37" width="3.33" height="3.86" transform="translate(281.49 276.22) rotate(-176.08)"/><line class="cls-17" x1="142.57" y1="133.1" x2="136.89" y2="132.71"/><line class="cls-17" x1="142.66" y1="131.8" x2="136.98" y2="131.42"/><line class="cls-17" x1="142.49" y1="134.4" x2="139.17" y2="134.17"/><path id="_Path_17" data-name="&lt;Path&gt;" class="cls-18" d="M109,178.78l57.33-16.7a7.58,7.58,0,0,1,9.4,5.16l.19.65a7.58,7.58,0,0,1-5.16,9.4L113.46,194"/><path id="_Rectangle_3" data-name="&lt;Rectangle&gt;" class="cls-19" d="M169.23,150.23h15.84a0,0,0,0,1,0,0v59.37a7.92,7.92,0,0,1-7.92,7.92h0a7.92,7.92,0,0,1-7.92-7.92V150.23a0,0,0,0,1,0,0Z" transform="translate(39.64 399.02) rotate(-103.48)"/><path class="cls-20" d="M129.27,299.1c-51.33-3.35-90.7-52.17-93.16-112.18-.34-8.32,6.11-15.22,14-14.71l174.22,11.37c7.85.51,13.35,8.19,11.93,16.4C226,259.16,180.6,302.45,129.27,299.1Z"/><path id="_Path_18" data-name="&lt;Path&gt;" class="cls-6" d="M218.54,202.33h0a6.14,6.14,0,0,1,8.44,2l22.83,37a6.14,6.14,0,0,1-2,8.44h0a6.14,6.14,0,0,1-8.44-2l-.59-1-22.23-36A6.14,6.14,0,0,1,218.54,202.33Z"/><path id="_Rectangle_4" data-name="&lt;Rectangle&gt;" class="cls-21" d="M210.6,166.74h15.84a0,0,0,0,1,0,0v73.47a7.92,7.92,0,0,1-7.92,7.92h0a7.92,7.92,0,0,1-7.92-7.92V166.74a0,0,0,0,1,0,0Z" transform="translate(513.4 269.24) rotate(148.33)"/><path id="_Rectangle_5" data-name="&lt;Rectangle&gt;" class="cls-19" d="M212.6,164.74h15.84a0,0,0,0,1,0,0v73.47a7.92,7.92,0,0,1-7.92,7.92h0a7.92,7.92,0,0,1-7.92-7.92V164.74a0,0,0,0,1,0,0Z" transform="translate(516.05 264.49) rotate(148.33)"/><path id="_Path_19" data-name="&lt;Path&gt;" class="cls-22" d="M238.81,248.73l4.73,5.81,28.72-23.38-.47-.58a3,3,0,0,0-3.55-.83l-18.53,8.46a5.5,5.5,0,0,0-2.15,1.73,20.28,20.28,0,0,1-8.3,7A1.14,1.14,0,0,0,238.81,248.73Z"/><path id="_Path_20" data-name="&lt;Path&gt;" class="cls-23" d="M243.53,254.54l0,0a2.26,2.26,0,0,0,3.18.33l26.08-21.23a1.14,1.14,0,0,0,.16-1.6l-.75-.92Z"/><path id="_Path_21" data-name="&lt;Path&gt;" class="cls-6" d="M173.91,198.3h0a6.14,6.14,0,0,1,7.17,4.88l8.11,42.72a6.14,6.14,0,0,1-4.88,7.17h0a6.14,6.14,0,0,1-7.17-4.88l-.21-1.11-7.9-41.6A6.14,6.14,0,0,1,173.91,198.3Z"/><path class="cls-21" d="M208,256.42,188.66,250a5.64,5.64,0,0,0-1.89-.28v-.06l-1-5.16,1.8-.34-13.71-72.18a7.92,7.92,0,0,0-15.56,3L172,247.07l1.7-.32.47,2.49a1.13,1.13,0,0,0-.68,1l-.51,7.47L210,260.19l.05-.75A3,3,0,0,0,208,256.42Z"/><path id="_Rectangle_6" data-name="&lt;Rectangle&gt;" class="cls-18" d="M166.73,161.21h15.84a0,0,0,0,1,0,0v73.47a7.92,7.92,0,0,1-7.92,7.92h0a7.92,7.92,0,0,1-7.92-7.92V161.21A0,0,0,0,1,166.73,161.21Z" transform="translate(383.91 367.66) rotate(169.24)"/><path id="_Path_22" data-name="&lt;Path&gt;" class="cls-24" d="M93,200.53a77.28,77.28,0,0,0,6.25,6.07c-1.23,3.47-6,1.49-6,1.49Z"/><path id="_Path_23" data-name="&lt;Path&gt;" class="cls-22" d="M176,246.49l-.51,7.47,36.94,2.52.05-.75a3,3,0,0,0-2-3l-19.32-6.46a5.5,5.5,0,0,0-2.76-.2,20.28,20.28,0,0,1-10.85-.54A1.14,1.14,0,0,0,176,246.49Z"/><path id="_Path_24" data-name="&lt;Path&gt;" class="cls-23" d="M175.45,254V254a2.26,2.26,0,0,0,2.1,2.41l33.55,2.29a1.14,1.14,0,0,0,1.21-1.06l.08-1.18Z"/><path id="_Path_25" data-name="&lt;Path&gt;" class="cls-13" d="M82.57,200.71l1.64,10.8s5.46,6.34,8.4,7.66c3.42,1.53,8.25.73,9.14.52,2.37-.56-6.26-9.44-6.26-9.44l-2.12-10.63Z"/><path id="_Path_26" data-name="&lt;Path&gt;" class="cls-13" d="M102.57,151.35h0a5.38,5.38,0,0,1,3.69,6.66L93.09,202.34A5.38,5.38,0,0,1,86.44,206h0a5.38,5.38,0,0,1-3.69-6.66L95.92,155A5.38,5.38,0,0,1,102.57,151.35Z"/><path id="_Path_27" data-name="&lt;Path&gt;" class="cls-13" d="M119.85,108.7h0a5.38,5.38,0,0,1,3.1,6.95l-16.93,43a5.38,5.38,0,0,1-6.95,3.1h0a5.38,5.38,0,0,1-3.1-6.95l16.93-43A5.38,5.38,0,0,1,119.85,108.7Z"/><g id="_Clip_Group_2" data-name="&lt;Clip Group&gt;"><path id="_Clipping_Path_" data-name="&lt;Clipping Path&gt;" class="cls-25" d="M90.68,164.41l12.59,4.93,20-50.82c2.19-5.6,1.16-11.3-2.31-12.65h0c-3.46-1.36-8.09,2.12-10.28,7.72Z"/></g><rect class="cls-26" x="89.44" y="165.61" width="15.64" height="2.59" rx="1.3" ry="1.3" transform="translate(133.73 356.61) rotate(-160.65)"/><polygon class="cls-4" points="520.73 182.68 577.08 70.26 634.15 182.32 640.35 179.16 577.03 54.84 514.51 179.56 520.73 182.68"/><path id="_Path_28" data-name="&lt;Path&gt;" class="cls-24" d="M506.4,85.93a86.92,86.92,0,0,0-9.21-3.33c-.34-4.13,5.43-4.29,5.43-4.29Z"/><rect id="_Rectangle_7" data-name="&lt;Rectangle&gt;" class="cls-3" x="608.73" y="109" width="12.96" height="48.7" rx="6.48" ry="6.48" transform="translate(7.34 296.93) rotate(-27.29)"/><path id="_Path_29" data-name="&lt;Path&gt;" class="cls-3" d="M603.23,111H573a10.8,10.8,0,0,0-10.8,10.8v77.49H614s-3.24-29.39-3.24-41c0-9.13,3.24-36.54,3.24-36.54A10.8,10.8,0,0,0,603.23,111Z"/><path id="_Path_30" data-name="&lt;Path&gt;" class="cls-27" d="M572.57,113.37c0,6.7,6.43,12.16,14.33,12.16s14.32-5.45,14.32-12.16a10.44,10.44,0,0,0-.28-2.38h-28.1A10.44,10.44,0,0,0,572.57,113.37Z"/><path id="_Path_31" data-name="&lt;Path&gt;" class="cls-13" d="M599,113.37c0,5.47-5.41,9.91-12.07,9.91s-12.07-4.44-12.07-9.91a8.14,8.14,0,0,1,.35-2.38h23.44A8.14,8.14,0,0,1,599,113.37Z"/><path id="_Path_32" data-name="&lt;Path&gt;" class="cls-13" d="M524.76,97.94l-15-19.8s-3.84-3.91-6.61-4.14c-3.23-.27-8.49,0-9.15.42-1.78,1.13,6.92,8,6.92,8l16.62,21.22Z"/><path id="_Path_33" data-name="&lt;Path&gt;" class="cls-3" d="M506.34,91.9l10.18-8,18.27,23.49a6.46,6.46,0,0,1-1.1,9.07h0a6.46,6.46,0,0,1-9.08-1Z"/><g id="_Group_5" data-name="&lt;Group&gt;"><path id="_Path_34" data-name="&lt;Path&gt;" class="cls-7" d="M597,86.21a5.72,5.72,0,0,1,2.49-1.45c3.56-1.21,6.53,1.45,4.21,4.6-1.62,2.2-4.94,7.83-6.23,5.09A12.15,12.15,0,0,1,597,86.21Z"/><polygon id="_Path_35" data-name="&lt;Path&gt;" class="cls-10" points="599.2 87.22 603.28 87.68 598.82 92.18 601.07 88.06 599.2 87.22"/></g><polygon id="_Path_36" data-name="&lt;Path&gt;" class="cls-6" points="602.18 110.99 604.06 117.21 598.94 122.31 601.1 126.33 578.6 157.95 569.72 126.25 572.51 122.1 570.7 117.21 574.61 110.99 602.18 110.99"/><polygon id="_Path_37" data-name="&lt;Path&gt;" class="cls-28" points="577.78 110.95 581.37 143.92 597.52 110.95 577.78 110.95"/><rect id="_Rectangle_8" data-name="&lt;Rectangle&gt;" class="cls-13" x="582.97" y="99.89" width="7.83" height="15.12" rx="3.92" ry="3.92"/><path id="_Path_38" data-name="&lt;Path&gt;" class="cls-7" d="M574.56,105.67c11.43,3.95,20.06-2.86,25-13,5.21-10.65.36-22.08-8.73-24.72-10.34-3-17.54-.7-21.65,10.43-2.58,7-4.53,21.91,5.38,27.26Z"/><g id="_Group_6" data-name="&lt;Group&gt;" class="cls-29"><line id="_Path_39" data-name="&lt;Path&gt;" class="cls-30" x1="570.98" y1="79.69" x2="575.41" y2="80.72"/><path id="_Path_40" data-name="&lt;Path&gt;" d="M570.67,80.38a.76.76,0,0,1,.48-1.43l4.43,1a.76.76,0,0,1-.34,1.48l-4.43-1Z"/></g><g id="_Group_7" data-name="&lt;Group&gt;" class="cls-29"><line id="_Path_41" data-name="&lt;Path&gt;" class="cls-30" x1="582.45" y1="82.73" x2="586.76" y2="84.21"/><path id="_Path_42" data-name="&lt;Path&gt;" d="M582.56,82a.76.76,0,0,0-.35,1.47l4.3,1.47a.76.76,0,1,0,.49-1.43L582.7,82Z"/></g><circle id="_Path_43" data-name="&lt;Path&gt;" cx="582.74" cy="87.92" r="1.02" transform="translate(337.68 623.89) rotate(-74.01)"/><circle id="_Path_44" data-name="&lt;Path&gt;" cx="572.12" cy="85.24" r="1.02" transform="translate(332.56 611.73) rotate(-74.01)"/><polygon id="_Path_45" data-name="&lt;Path&gt;" class="cls-10" points="577.79 84.98 575.47 93.59 573.75 92.64 577.79 84.98"/><ellipse id="_Path_46" data-name="&lt;Path&gt;" class="cls-31" cx="607.68" cy="72.16" rx="6.19" ry="7.92" transform="translate(-4.2 81.32) rotate(-7.63)"/><path id="_Path_47" data-name="&lt;Path&gt;" class="cls-31" d="M578.16,61.86s-4.56-2.38-7.39,7.48a44.79,44.79,0,0,0-1.52,10l9.8-6.42,8.59-1.22-8.53-6.16Z"/><path id="_Path_48" data-name="&lt;Path&gt;" class="cls-32" d="M597.21,93.41s-5.38-.51-3.12-5.76C591.45,86.42,579.58,76.84,578,62c5.43-6,11.81-5.18,18.12-2.15,9.34,4.47,17.64,14.84,6.41,32.22C601.65,93.31,598.91,92.72,597.21,93.41Z"/><circle class="cls-33" cx="598.82" cy="92.09" r="5.19"/><path class="cls-33" d="M583.65,100.29c11.32,0,20.53-9.51,20.53-21.19,0-8.22-6.69-15.5-13.29-18.43-5.63-2.5-11-2-14.67,1.31a.59.59,0,1,0,.79.88c3.33-3,8.21-3.41,13.4-1.11C596.67,64.53,603,71.38,603,79.1c0,11-8.68,20-19.35,20a.59.59,0,0,0,0,1.18Z"/><path class="cls-31" d="M577,63.18c-.25.22-.82,0-1-.22a.6.6,0,0,1,0-.85l.54-.48a1.6,1.6,0,0,1,1.39.48C577.59,62.36,577.41,62.86,577,63.18Z"/><path id="_Path_49" data-name="&lt;Path&gt;" class="cls-15" d="M574.12,99.64c-2.7-.5-4.79-2.4-4.48-4.07l.07-.39,10.39,1.94-.07.39c-.28,1.51-2.17,2.83-5.11,2.28Z"/><path id="_Rectangle_9" data-name="&lt;Rectangle&gt;" class="cls-34" d="M564.85,143.22h0a7.92,7.92,0,0,1,7.92,7.92v59.37a0,0,0,0,1,0,0H556.93a0,0,0,0,1,0,0V151.14A7.92,7.92,0,0,1,564.85,143.22Z" transform="translate(173.84 621.22) rotate(-66.04)"/><path id="_Path_50" data-name="&lt;Path&gt;" class="cls-35" d="M620.3,195.46l-45.55-38.61a7.58,7.58,0,0,0-10.69.88l-.44.52a7.58,7.58,0,0,0,.88,10.69l45.55,38.61"/><path class="cls-20" d="M581.45,300.22c-51.44.16-94-45.86-100.6-105.56-.91-8.28,5.06-15.6,12.92-15.63l174.59-.56c7.86,0,13.88,7.26,13,15.54C675.2,253.76,632.88,300.05,581.45,300.22Z"/><path id="_Rectangle_10" data-name="&lt;Rectangle&gt;" class="cls-21" d="M551,152.15h0a7.92,7.92,0,0,1,7.92,7.92v73.47a0,0,0,0,1,0,0H543a0,0,0,0,1,0,0V160.07A7.92,7.92,0,0,1,551,152.15Z" transform="translate(208.62 -279.97) rotate(34.8)"/><path id="_Path_51" data-name="&lt;Path&gt;" class="cls-27" d="M553.1,186.85h0a6.14,6.14,0,0,0-8.54,1.54l-24.82,35.7a6.14,6.14,0,0,0,1.54,8.54h0a6.14,6.14,0,0,0,8.54-1.54l.65-.93,24.17-34.77A6.14,6.14,0,0,0,553.1,186.85Z"/><path id="_Rectangle_11" data-name="&lt;Rectangle&gt;" class="cls-21" d="M514.84,147.39h0a7.92,7.92,0,0,1,7.92,7.92v73.47a0,0,0,0,1,0,0H506.92a0,0,0,0,1,0,0V155.31A7.92,7.92,0,0,1,514.84,147.39Z" transform="matrix(0.57, 0.82, -0.82, 0.57, 374.56, -341.78)"/><path id="_Rectangle_12" data-name="&lt;Rectangle&gt;" class="cls-35" d="M551,149.15h0a7.92,7.92,0,0,1,7.92,7.92v73.47a0,0,0,0,1,0,0H543a0,0,0,0,1,0,0V157.07a7.92,7.92,0,0,1,7.92-7.92Z" transform="translate(206.91 -280.51) rotate(34.8)"/><path id="_Path_52" data-name="&lt;Path&gt;" class="cls-36" d="M530.25,233l-4.91,5.66-28-24.26.49-.57a3,3,0,0,1,3.57-.72l18.26,9a5.5,5.5,0,0,1,2.1,1.8,20.28,20.28,0,0,0,8.08,7.26A1.14,1.14,0,0,1,530.25,233Z"/><path id="_Path_53" data-name="&lt;Path&gt;" class="cls-23" d="M525.34,238.7l0,0a2.26,2.26,0,0,1-3.19.23l-25.41-22a1.14,1.14,0,0,1-.11-1.61l.77-.89Z"/><path id="_Path_54" data-name="&lt;Path&gt;" class="cls-27" d="M517.88,183h0a6.14,6.14,0,0,0-8.54-1.52l-35.66,24.87a6.14,6.14,0,0,0-1.52,8.54h0a6.14,6.14,0,0,0,8.54,1.52l.93-.65,34.73-24.23A6.14,6.14,0,0,0,517.88,183Z"/><path id="_Rectangle_13" data-name="&lt;Rectangle&gt;" class="cls-34" d="M514.84,144.39h0a7.92,7.92,0,0,1,7.92,7.92v73.47a0,0,0,0,1,0,0H506.92a0,0,0,0,1,0,0V152.31A7.92,7.92,0,0,1,514.84,144.39Z" transform="translate(372.1 -343.07) rotate(55.1)"/><path id="_Path_55" data-name="&lt;Path&gt;" class="cls-21" d="M527.34,240.7l0,0a2.26,2.26,0,0,1-3.19.23l-25.41-22a1.14,1.14,0,0,1-.11-1.61l.77-.89Z"/><path id="_Path_56" data-name="&lt;Path&gt;" class="cls-36" d="M482.07,216.88,477.75,223l-30.27-21.33.43-.61A3,3,0,0,1,451.4,200l19.07,7.16a5.5,5.5,0,0,1,2.27,1.58,20.28,20.28,0,0,0,8.77,6.42A1.14,1.14,0,0,1,482.07,216.88Z"/><path id="_Path_57" data-name="&lt;Path&gt;" class="cls-24" d="M609.33,178.8a77.28,77.28,0,0,1-6.9,5.32c.83,3.59,5.76,2.16,5.76,2.16Z"/><path id="_Path_58" data-name="&lt;Path&gt;" class="cls-23" d="M477.75,223l0,0a2.26,2.26,0,0,1-3.15.55l-27.49-19.37a1.14,1.14,0,0,1-.27-1.59l.68-1Z"/><path id="_Path_59" data-name="&lt;Path&gt;" class="cls-13" d="M623.47,164.69l-7.66,23.61s-2.34,5-4.89,6.08c-3,1.32-8,2.78-8.79,2.6-2-.49,3.92-9.8,3.92-9.8l8.74-25.49Z"/><path id="_Path_60" data-name="&lt;Path&gt;" class="cls-3" d="M608,176.44l12.25,4.25,9.55-28.19a6.46,6.46,0,0,0-4-8.21h0a6.46,6.46,0,0,0-8.24,4Z"/><rect class="cls-27" x="607.23" y="174.2" width="14.52" height="5" transform="translate(83.44 -179.4) rotate(17.8)"/><rect class="cls-27" x="505.31" y="85.76" width="13.78" height="5" transform="translate(41.61 308.9) rotate(-34.9)"/><path class="cls-37" d="M610.33,294.91c37.46-13.79,65.61-53,70.56-100.88.86-8.29-5.16-15.57-13-15.54l-20.84.07C645.83,223.47,639.15,268.62,610.33,294.91Z"/><path class="cls-37" d="M99.67,291.71c-36.43-16.31-63-57-64.7-105.08C34.68,178.3,41.18,171.45,49,172l20.78,1.49C67.94,218.4,72.71,263.51,99.67,291.71Z"/></svg>