<svg id="Layer_1" data-name="Layer 1" xmlns="http://www.w3.org/2000/svg" viewBox="0 0 708.66 481.89"><defs><style>.cls-1{fill:#ffe4cc;}.cls-2,.cls-23,.cls-38,.cls-43{opacity:0.07;}.cls-23,.cls-3,.cls-4{fill:#181919;}.cls-15,.cls-18,.cls-4{fill-rule:evenodd;}.cls-18,.cls-5{fill:#dc846a;}.cls-6,.cls-64{fill:#fff;}.cls-7{fill:#f37a54;}.cls-15,.cls-8{fill:#f8ab8d;}.cls-9{fill:#648ec9;}.cls-10{fill:#dde7ed;}.cls-11{fill:#353560;}.cls-12{fill:#c0e4ed;}.cls-13{fill:#3952a0;}.cls-14{fill:#515180;}.cls-16{fill:#8b6339;}.cls-17{fill:#754d24;}.cls-19,.cls-22,.cls-32,.cls-33,.cls-41,.cls-42,.cls-52,.cls-60,.cls-63{fill:none;}.cls-19,.cls-32,.cls-33,.cls-52{stroke:#dc846a;}.cls-19,.cls-22,.cls-32,.cls-33,.cls-41,.cls-42,.cls-52,.cls-63,.cls-64{stroke-linecap:round;}.cls-19,.cls-22,.cls-32,.cls-33,.cls-41,.cls-42,.cls-52,.cls-59,.cls-60,.cls-63,.cls-64{stroke-linejoin:round;}.cls-19{stroke-width:2.15px;}.cls-20{fill:#cecece;}.cls-21{fill:#686868;}.cls-22{stroke:#fcfcfc;}.cls-22,.cls-33{stroke-width:2px;}.cls-24{fill:#e5e5e4;}.cls-25{fill:#aaa4ae;}.cls-26{fill:#5d5d5d;}.cls-27{fill:#a57c52;}.cls-28{fill:#c49a6c;}.cls-29{fill:#6c4e38;}.cls-30{fill:#493426;}.cls-31{fill:#979797;}.cls-32{stroke-width:1.37px;}.cls-34{fill:#e7685d;}.cls-35{fill:#fdd8b8;}.cls-36{fill:#ee4256;}.cls-37{fill:#ffdc83;}.cls-38{fill:#020202;}.cls-39{fill:#54402b;}.cls-40{fill:#fec82b;}.cls-41{stroke:#db8369;stroke-width:1.89px;}.cls-42{stroke:#000;}.cls-42,.cls-59,.cls-60{stroke-width:0.5px;}.cls-43{fill:#0c0c0c;}.cls-44{fill:#b8d8ff;}.cls-45{fill:#d0e8f7;}.cls-46{fill:#bfbfbf;}.cls-47{fill:#3f5aa8;}.cls-48{fill:#b3b2b3;}.cls-49{fill:#4d4e4e;}.cls-50{fill:#e2e2e2;}.cls-51{fill:#a09f9f;}.cls-52{stroke-width:1.64px;}.cls-53,.cls-56{fill:#070707;}.cls-53{opacity:0.15;}.cls-54{fill:#29cc86;}.cls-55,.cls-62{fill:#fc5f51;}.cls-56{opacity:0.03;}.cls-57{fill:#d8e2ea;opacity:0.6;}.cls-58{opacity:0.1;}.cls-59{fill:#fefefe;stroke:#e7685d;}.cls-60,.cls-63{stroke:#fff;}.cls-61{fill:#dd514a;}.cls-62{opacity:0.32;}.cls-64{stroke:#979797;}</style></defs><title>CS-L2-U5</title><circle class="cls-1" cx="358.91" cy="240.6" r="233.02"/><g class="cls-2"><path id="_Path_" data-name="&lt;Path&gt;" class="cls-3" d="M187.72,216a82.69,82.69,0,0,0,5.87,7.24c-1.75,3.53-6.53.84-6.53.84Z"/><circle class="cls-3" cx="204.89" cy="216.42" r="2.31"/><rect class="cls-3" x="198.83" y="222.36" width="16.42" height="24.99"/><rect id="_Rectangle_" data-name="&lt;Rectangle&gt;" class="cls-3" x="243.36" y="81.72" width="9.14" height="35.05" rx="4.57" ry="4.57" transform="matrix(1, -0.04, 0.04, 1, -3.97, 10.57)"/><path id="_Path_2" data-name="&lt;Path&gt;" class="cls-3" d="M244.6,91.57l-6.38-7.52s-1.08-7.48-.23-10.27c1-3.24,4.4-6.06,5.07-6.54,1.78-1.29,2.72,9.87,2.72,9.87l6,7.75Z"/><path id="_Path_3" data-name="&lt;Path&gt;" class="cls-3" d="M252.15,86.6l-11.34.83,4,45.12a5.69,5.69,0,0,0,6.09,5.25h0a5.69,5.69,0,0,0,5.25-6.09Z"/><rect id="_Rectangle_2" data-name="&lt;Rectangle&gt;" class="cls-3" x="234.32" y="123.89" width="11.37" height="47.38" rx="5.69" ry="5.69" transform="translate(130.02 -111.81) rotate(35.43)"/><path id="_Path_4" data-name="&lt;Path&gt;" class="cls-3" d="M202.56,323.61h0a5.71,5.71,0,0,1,5.71,5.71v40.43a5.71,5.71,0,0,1-5.71,5.71h0a5.71,5.71,0,0,1-5.71-5.71V329.32A5.71,5.71,0,0,1,202.56,323.61Z"/><path id="_Rectangle_3" data-name="&lt;Rectangle&gt;" class="cls-3" d="M195.24,235.83H210a0,0,0,0,1,0,0v117a7.37,7.37,0,0,1-7.37,7.37h0a7.37,7.37,0,0,1-7.37-7.37v-117A0,0,0,0,1,195.24,235.83Z" transform="translate(405.21 596.05) rotate(180)"/><path id="_Path_5" data-name="&lt;Path&gt;" class="cls-3" d="M195.89,369v7h34.44v-.7a2.77,2.77,0,0,0-2.07-2.68l-18.33-4.78a5.11,5.11,0,0,0-2.57,0,18.86,18.86,0,0,1-10.1.18A1.06,1.06,0,0,0,195.89,369Z"/><path id="_Path_6" data-name="&lt;Path&gt;" class="cls-3" d="M195.89,376v.06a2.1,2.1,0,0,0,2.1,2.1h31.27a1.06,1.06,0,0,0,1.06-1.06V376Z"/><path id="_Path_7" data-name="&lt;Path&gt;" class="cls-3" d="M229.55,323.61h0a5.71,5.71,0,0,1,5.71,5.71v40.43a5.71,5.71,0,0,1-5.71,5.71h0a5.71,5.71,0,0,1-5.71-5.71V329.32A5.71,5.71,0,0,1,229.55,323.61Z"/><path id="_Rectangle_4" data-name="&lt;Rectangle&gt;" class="cls-3" d="M222.24,235.83H237a0,0,0,0,1,0,0v117a7.37,7.37,0,0,1-7.37,7.37h0a7.37,7.37,0,0,1-7.37-7.37v-117A0,0,0,0,1,222.24,235.83Z" transform="translate(459.21 596.05) rotate(-180)"/><path id="_Path_8" data-name="&lt;Path&gt;" class="cls-3" d="M222.78,369v7h34.44v-.7a2.77,2.77,0,0,0-2.07-2.68l-18.33-4.78a5.11,5.11,0,0,0-2.57,0,18.86,18.86,0,0,1-10.1.18A1.06,1.06,0,0,0,222.78,369Z"/><path id="_Path_9" data-name="&lt;Path&gt;" class="cls-3" d="M222.78,376v.06a2.1,2.1,0,0,0,2.1,2.1h31.27a1.06,1.06,0,0,0,1.06-1.06V376Z"/><path id="_Path_10" data-name="&lt;Path&gt;" class="cls-3" d="M195.48,230l42,.34-.25,13.49A7.22,7.22,0,0,1,230,251l-27.59-.22a7.22,7.22,0,0,1-7.16-7.28Z"/><path id="_Rectangle_5" data-name="&lt;Rectangle&gt;" class="cls-3" d="M190.89,149.87h50.54a0,0,0,0,1,0,0v76.58a13.15,13.15,0,0,1-13.15,13.15H204.78a13.89,13.89,0,0,1-13.89-13.89V149.87A0,0,0,0,1,190.89,149.87Z" transform="translate(432.31 389.46) rotate(-180)"/><polygon id="_Path_11" data-name="&lt;Path&gt;" class="cls-3" points="205.6 149.87 204.08 154.89 208.22 159.02 206.48 162.27 224.66 187.84 231.85 162.2 229.59 158.85 231.06 154.89 227.89 149.87 205.6 149.87"/><polygon id="_Path_12" data-name="&lt;Path&gt;" class="cls-3" points="226.17 149.87 222.96 179.36 208.51 149.87 226.17 149.87"/><polygon id="_Path_13" data-name="&lt;Path&gt;" class="cls-3" points="218.94 157.44 218.3 169.84 222.96 179.36 224.11 168.82 220.45 157.06 218.94 157.44"/><ellipse id="_Path_14" data-name="&lt;Path&gt;" class="cls-3" cx="221.2" cy="201.68" rx="2.35" ry="2.9"/><ellipse id="_Path_15" data-name="&lt;Path&gt;" class="cls-3" cx="221.2" cy="217.56" rx="2.35" ry="2.9"/><rect id="_Rectangle_6" data-name="&lt;Rectangle&gt;" class="cls-3" x="200.86" y="211.23" width="11.23" height="4.16"/><path id="_Path_16" data-name="&lt;Path&gt;" class="cls-3" d="M216.75,137.27h-.13a3.66,3.66,0,0,1,3.64,3.77v8c0,2.08-1.56,2.73-3.64,2.73h.06c-2.08,0-3.7-.65-3.7-2.73v-8A3.77,3.77,0,0,1,216.75,137.27Z"/><path id="_Path_17" data-name="&lt;Path&gt;" class="cls-4" d="M223.37,146.93c-11.9.64-18.23-8.16-20.18-19.08-2-11.51,5.66-21,15-21.06,10.62,0,16.82,4.11,17.69,15.77.55,7.32-1.65,22-12.5,24.38Z"/><path id="_Path_18" data-name="&lt;Path&gt;" class="cls-3" d="M201.63,112.77c-1.18,3-1.18,7.59-1,10.49a2.9,2.9,0,0,1,2.48-.62l.39.09h0l.19.07.19.07.2.09.14.07.24.13.19.12.19.13.18.14.18.15.33.32s0,0,0,0l.07.08,0,0,0,.05,0,0,0,0v5.34a2.37,2.37,0,0,0,.56,1.78,2.88,2.88,0,0,0,.24.27,3.78,3.78,0,0,0,1.61.47,2.76,2.76,0,0,0,2.77-2.51v-1.89A2.73,2.73,0,0,1,213.4,125l.48,0c0-2.15,0-3.86,0-4.92,0-1.31.47-2.18,3.38-2.48h.08l.82-.06h.06c.51,0,1.07,0,1.69,0H233.3l.15,0a6.61,6.61,0,0,0,3.66-2.51,4,4,0,0,0,.74-2.65h-3.71a7.51,7.51,0,0,0,1.91-3.21,17.55,17.55,0,0,0,.85-4.06h-6.14s-6.15-4.47-13-3.9c-10.78.91-14.34,7.83-14.34,7.83a11.62,11.62,0,0,0-4.66-.83C200.18,109.73,201,110.44,201.63,112.77Z"/><path id="_Path_19" data-name="&lt;Path&gt;" class="cls-3" d="M218.22,117.49c.51,0,1.07,0,1.69,0H233.3l.15,0a6.61,6.61,0,0,0,3.66-2.51,4,4,0,0,0,.74-2.65s-3.19,3.59-5.23,4l-.16,0C230.39,116.57,221.23,117.27,218.22,117.49Z"/><g id="_Group_" data-name="&lt;Group&gt;"><line id="_Path_20" data-name="&lt;Path&gt;" class="cls-3" x1="231.47" y1="123.85" x2="227.24" y2="123.64"/><path id="_Path_21" data-name="&lt;Path&gt;" class="cls-3" d="M231.57,124.55a.7.7,0,0,0-.06-1.4l-4.22-.21a.7.7,0,1,0-.07,1.41l4.22.21Z"/></g><g id="_Group_2" data-name="&lt;Group&gt;"><line id="_Path_22" data-name="&lt;Path&gt;" class="cls-3" x1="220.44" y1="123.64" x2="216.21" y2="123.85"/><path id="_Path_23" data-name="&lt;Path&gt;" class="cls-3" d="M220.54,122.94a.7.7,0,0,1-.06,1.4l-4.22.21a.7.7,0,1,1-.07-1.41l4.22-.21Z"/></g><circle id="_Path_24" data-name="&lt;Path&gt;" class="cls-3" cx="218.85" cy="128.2" r="0.95"/><circle id="_Path_25" data-name="&lt;Path&gt;" class="cls-3" cx="229.03" cy="128.52" r="0.95"/><path id="_Path_26" data-name="&lt;Path&gt;" class="cls-3" d="M236.9,105s-2.38,5.42-5.74,6.8c-2.86,1.17-16.8,1.62-16.8,1.62a23.8,23.8,0,0,0,4.32,1c1.27.13,13.54.52,15.47-2.18A12,12,0,0,0,236.9,105Z"/><g id="_Group_3" data-name="&lt;Group&gt;"><path id="_Path_27" data-name="&lt;Path&gt;" class="cls-4" d="M206.15,124.67a5.6,5.6,0,0,0-1.95-2c-3-2.09-6.53-.4-5.19,3.19.94,2.5,2.53,8.69,4.49,6.46A11.89,11.89,0,0,0,206.15,124.67Z"/><polygon id="_Path_28" data-name="&lt;Path&gt;" class="cls-4" points="203.83 125.04 199.86 124.37 202.85 129.81 201.85 125.33 203.83 125.04"/></g><polygon id="_Path_29" data-name="&lt;Path&gt;" class="cls-4" points="224.03 126.84 223.9 135.12 225.68 134.72 224.03 126.84"/><path id="_Path_30" data-name="&lt;Path&gt;" class="cls-3" d="M229,137.58A6.74,6.74,0,0,1,223.9,140h0a7.23,7.23,0,0,1-5.13-2.39"/><polygon id="_Path_31" data-name="&lt;Path&gt;" class="cls-3" points="217.67 150.93 216.01 154.84 220.12 158.85 221.26 155.39 217.67 150.93"/><polygon id="_Path_32" data-name="&lt;Path&gt;" class="cls-3" points="208.51 149.87 212.9 147 217.67 150.93 214.88 157.49 208.51 149.87"/><polygon id="_Path_33" data-name="&lt;Path&gt;" class="cls-3" points="226.17 149.87 220.12 147 217.67 150.93 222.96 157.49 226.17 149.87"/><rect id="_Rectangle_7" data-name="&lt;Rectangle&gt;" class="cls-3" x="174.18" y="189.93" width="9.14" height="35.05" rx="4.57" ry="4.57" transform="translate(-71.69 96.7) rotate(-25.39)"/><path id="_Path_34" data-name="&lt;Path&gt;" class="cls-3" d="M178.61,217.1l1.77,9.7s5.1,5.58,7.79,6.69c3.13,1.29,7.47.44,8.27.23,2.13-.57-5.91-8.36-5.91-8.36l-2.2-9.54Z"/><path id="_Path_35" data-name="&lt;Path&gt;" class="cls-3" d="M185,210.13l-10.42,4.56-15.87-37a5.69,5.69,0,0,1,2.93-7.49h0a5.69,5.69,0,0,1,7.49,2.93Z"/><rect id="_Rectangle_8" data-name="&lt;Rectangle&gt;" class="cls-3" x="174.01" y="211.14" width="15.2" height="8.02" transform="translate(-74.72 98.67) rotate(-25.39)"/><rect id="_Rectangle_9" data-name="&lt;Rectangle&gt;" class="cls-3" x="173.84" y="142.8" width="11.37" height="47.38" rx="5.69" ry="5.69" transform="translate(235.52 -71.86) rotate(60.38)"/><rect class="cls-3" x="177.32" y="75.19" width="133.96" height="3.4"/><circle class="cls-3" cx="318.91" cy="75.19" r="27.2"/><circle class="cls-3" cx="168.94" cy="76.89" r="25.65"/><path class="cls-3" d="M174.39,56.33a19.45,19.45,0,0,0-4.56-.54"/><path class="cls-3" d="M189.22,75.19a19.4,19.4,0,0,0-12.46-18.12"/><path class="cls-3" d="M325.25,54a19.45,19.45,0,0,0-4.56-.54"/><path class="cls-3" d="M340.08,72.85a19.4,19.4,0,0,0-12.46-18.12"/><rect id="_Rectangle_10" data-name="&lt;Rectangle&gt;" class="cls-3" x="238.44" y="82.59" width="15.2" height="8.02" transform="translate(-12.79 54.34) rotate(-12.29)"/></g><path id="_Path_36" data-name="&lt;Path&gt;" class="cls-5" d="M185.87,216a82.69,82.69,0,0,0,5.87,7.24c-1.75,3.53-6.53.84-6.53.84Z"/><circle class="cls-6" cx="203.04" cy="216.42" r="2.31"/><rect class="cls-7" x="196.98" y="222.36" width="16.42" height="24.99"/><rect id="_Rectangle_11" data-name="&lt;Rectangle&gt;" class="cls-8" x="241.51" y="81.72" width="9.14" height="35.05" rx="4.57" ry="4.57" transform="translate(-3.98 10.49) rotate(-2.42)"/><path id="_Path_37" data-name="&lt;Path&gt;" class="cls-8" d="M242.75,91.57l-6.38-7.52s-1.08-7.48-.23-10.27c1-3.24,4.4-6.06,5.07-6.54,1.78-1.29,2.72,9.87,2.72,9.87l6,7.75Z"/><path id="_Path_38" data-name="&lt;Path&gt;" class="cls-9" d="M250.31,86.6,239,87.43l4,45.12a5.69,5.69,0,0,0,6.09,5.25h0a5.69,5.69,0,0,0,5.25-6.09Z"/><rect id="_Rectangle_12" data-name="&lt;Rectangle&gt;" class="cls-9" x="232.47" y="123.89" width="11.37" height="47.38" rx="5.69" ry="5.69" transform="translate(129.68 -110.74) rotate(35.43)"/><path id="_Path_39" data-name="&lt;Path&gt;" class="cls-10" d="M200.71,323.61h0a5.71,5.71,0,0,1,5.71,5.71v40.43a5.71,5.71,0,0,1-5.71,5.71h0a5.71,5.71,0,0,1-5.71-5.71V329.32A5.71,5.71,0,0,1,200.71,323.61Z"/><path id="_Rectangle_13" data-name="&lt;Rectangle&gt;" class="cls-11" d="M193.39,235.83h14.73a0,0,0,0,1,0,0v117a7.37,7.37,0,0,1-7.37,7.37h0a7.37,7.37,0,0,1-7.37-7.37v-117A0,0,0,0,1,193.39,235.83Z" transform="translate(401.51 596.05) rotate(-180)"/><path id="_Path_40" data-name="&lt;Path&gt;" class="cls-11" d="M194,369v7h34.44v-.7a2.77,2.77,0,0,0-2.07-2.68l-18.33-4.78a5.11,5.11,0,0,0-2.57,0,18.86,18.86,0,0,1-10.1.18A1.06,1.06,0,0,0,194,369Z"/><path id="_Path_41" data-name="&lt;Path&gt;" class="cls-12" d="M194,376v.06a2.1,2.1,0,0,0,2.1,2.1h31.27a1.06,1.06,0,0,0,1.06-1.06V376Z"/><path id="_Path_42" data-name="&lt;Path&gt;" class="cls-10" d="M227.71,323.61h0a5.71,5.71,0,0,1,5.71,5.71v40.43a5.71,5.71,0,0,1-5.71,5.71h0a5.71,5.71,0,0,1-5.71-5.71V329.32A5.71,5.71,0,0,1,227.71,323.61Z"/><path id="_Rectangle_14" data-name="&lt;Rectangle&gt;" class="cls-11" d="M220.39,235.83h14.73a0,0,0,0,1,0,0v117a7.37,7.37,0,0,1-7.37,7.37h0a7.37,7.37,0,0,1-7.37-7.37v-117a0,0,0,0,1,0,0Z" transform="translate(455.51 596.05) rotate(180)"/><path id="_Path_43" data-name="&lt;Path&gt;" class="cls-11" d="M220.93,369v7h34.44v-.7a2.77,2.77,0,0,0-2.07-2.68L235,367.85a5.11,5.11,0,0,0-2.57,0,18.86,18.86,0,0,1-10.1.18A1.06,1.06,0,0,0,220.93,369Z"/><path id="_Path_44" data-name="&lt;Path&gt;" class="cls-12" d="M220.93,376v.06a2.1,2.1,0,0,0,2.1,2.1h31.27a1.06,1.06,0,0,0,1.06-1.06V376Z"/><path id="_Path_45" data-name="&lt;Path&gt;" class="cls-11" d="M193.63,230l42,.34-.25,13.49a7.22,7.22,0,0,1-7.28,7.16l-27.59-.22a7.22,7.22,0,0,1-7.16-7.28Z"/><path id="_Rectangle_15" data-name="&lt;Rectangle&gt;" class="cls-13" d="M189,149.87h50.54a0,0,0,0,1,0,0v76.58a13.15,13.15,0,0,1-13.15,13.15H202.93A13.89,13.89,0,0,1,189,225.7V149.87a0,0,0,0,1,0,0Z" transform="translate(428.61 389.46) rotate(-180)"/><polygon id="_Path_46" data-name="&lt;Path&gt;" class="cls-9" points="203.75 149.87 202.23 154.89 206.37 159.02 204.63 162.27 222.81 187.84 230 162.2 227.74 158.85 229.21 154.89 226.04 149.87 203.75 149.87"/><polygon id="_Path_47" data-name="&lt;Path&gt;" class="cls-10" points="224.32 149.87 221.11 179.36 206.66 149.87 224.32 149.87"/><polygon id="_Path_48" data-name="&lt;Path&gt;" class="cls-14" points="217.09 157.44 216.45 169.84 221.11 179.36 222.26 168.82 218.6 157.06 217.09 157.44"/><ellipse id="_Path_49" data-name="&lt;Path&gt;" class="cls-9" cx="219.35" cy="201.68" rx="2.35" ry="2.9"/><ellipse id="_Path_50" data-name="&lt;Path&gt;" class="cls-9" cx="219.35" cy="217.56" rx="2.35" ry="2.9"/><rect id="_Rectangle_16" data-name="&lt;Rectangle&gt;" class="cls-9" x="199.01" y="211.23" width="11.23" height="4.16"/><path id="_Path_51" data-name="&lt;Path&gt;" class="cls-8" d="M214.9,137.27h-.13A3.66,3.66,0,0,1,218.4,141v8c0,2.08-1.56,2.73-3.64,2.73h.06c-2.08,0-3.7-.65-3.7-2.73v-8A3.77,3.77,0,0,1,214.9,137.27Z"/><path id="_Path_52" data-name="&lt;Path&gt;" class="cls-15" d="M221.52,146.93c-11.9.64-18.23-8.16-20.18-19.08-2-11.51,5.66-21,15-21.06,10.62,0,16.82,4.11,17.69,15.77.55,7.32-1.65,22-12.5,24.38Z"/><path id="_Path_53" data-name="&lt;Path&gt;" class="cls-16" d="M199.78,112.77c-1.18,3-1.18,7.59-1,10.49a2.9,2.9,0,0,1,2.48-.62l.39.09h0l.19.07.19.07.2.09.14.07.24.13.19.12.19.13.18.14.18.15.33.32s0,0,0,0l.07.08,0,0,0,.05,0,0,0,0v5.34a2.37,2.37,0,0,0,.56,1.78,2.88,2.88,0,0,0,.24.27,3.78,3.78,0,0,0,1.61.47,2.76,2.76,0,0,0,2.77-2.51v-1.89a2.73,2.73,0,0,1,2.51-2.73l.48,0c0-2.15,0-3.86,0-4.92,0-1.31.47-2.18,3.38-2.48h.08l.82-.06h.06c.51,0,1.07,0,1.69,0h13.38l.15,0a6.61,6.61,0,0,0,3.66-2.51,4,4,0,0,0,.74-2.65H232.3a7.51,7.51,0,0,0,1.91-3.21A17.55,17.55,0,0,0,235,105h-6.14s-6.15-4.47-13-3.9c-10.78.91-14.34,7.83-14.34,7.83a11.62,11.62,0,0,0-4.66-.83C198.33,109.73,199.15,110.44,199.78,112.77Z"/><path id="_Path_54" data-name="&lt;Path&gt;" class="cls-17" d="M216.37,117.49c.51,0,1.07,0,1.69,0h13.38l.15,0a6.61,6.61,0,0,0,3.66-2.51,4,4,0,0,0,.74-2.65s-3.19,3.59-5.23,4l-.16,0C228.54,116.57,219.38,117.27,216.37,117.49Z"/><g id="_Group_4" data-name="&lt;Group&gt;"><line id="_Path_55" data-name="&lt;Path&gt;" class="cls-16" x1="229.62" y1="123.85" x2="225.4" y2="123.64"/><path id="_Path_56" data-name="&lt;Path&gt;" class="cls-16" d="M229.72,124.55a.7.7,0,0,0-.06-1.4l-4.22-.21a.7.7,0,0,0-.07,1.41l4.22.21Z"/></g><g id="_Group_5" data-name="&lt;Group&gt;"><line id="_Path_57" data-name="&lt;Path&gt;" class="cls-16" x1="218.59" y1="123.64" x2="214.36" y2="123.85"/><path id="_Path_58" data-name="&lt;Path&gt;" class="cls-16" d="M218.69,122.94a.7.7,0,0,1-.06,1.4l-4.22.21a.7.7,0,1,1-.07-1.41l4.22-.21Z"/></g><circle id="_Path_59" data-name="&lt;Path&gt;" cx="217" cy="128.2" r="0.95"/><circle id="_Path_60" data-name="&lt;Path&gt;" cx="227.18" cy="128.52" r="0.95"/><path id="_Path_61" data-name="&lt;Path&gt;" class="cls-17" d="M235,105s-2.38,5.42-5.74,6.8c-2.86,1.17-16.8,1.62-16.8,1.62a23.8,23.8,0,0,0,4.32,1c1.27.13,13.54.52,15.47-2.18A12,12,0,0,0,235,105Z"/><g id="_Group_6" data-name="&lt;Group&gt;"><path id="_Path_62" data-name="&lt;Path&gt;" class="cls-15" d="M204.3,124.67a5.6,5.6,0,0,0-1.95-2c-3-2.09-6.53-.4-5.19,3.19.94,2.5,2.53,8.69,4.49,6.46A11.89,11.89,0,0,0,204.3,124.67Z"/><polygon id="_Path_63" data-name="&lt;Path&gt;" class="cls-18" points="201.98 125.04 198.01 124.37 201 129.81 200 125.33 201.98 125.04"/></g><polygon id="_Path_64" data-name="&lt;Path&gt;" class="cls-18" points="222.18 126.84 222.05 135.12 223.83 134.72 222.18 126.84"/><path id="_Path_65" data-name="&lt;Path&gt;" class="cls-19" d="M227.18,137.58A6.74,6.74,0,0,1,222,140h0a7.23,7.23,0,0,1-5.13-2.39"/><polygon id="_Path_66" data-name="&lt;Path&gt;" class="cls-14" points="215.82 150.93 214.16 154.84 218.27 158.85 219.41 155.39 215.82 150.93"/><polygon id="_Path_67" data-name="&lt;Path&gt;" class="cls-20" points="206.66 149.87 211.05 147 215.82 150.93 213.03 157.49 206.66 149.87"/><polygon id="_Path_68" data-name="&lt;Path&gt;" class="cls-20" points="224.32 149.87 218.27 147 215.82 150.93 221.11 157.49 224.32 149.87"/><rect id="_Rectangle_17" data-name="&lt;Rectangle&gt;" class="cls-8" x="172.33" y="189.93" width="9.14" height="35.05" rx="4.57" ry="4.57" transform="translate(-71.87 95.9) rotate(-25.39)"/><path id="_Path_69" data-name="&lt;Path&gt;" class="cls-8" d="M176.76,217.1l1.77,9.7s5.1,5.58,7.79,6.69c3.13,1.29,7.47.44,8.27.23,2.13-.57-5.91-8.36-5.91-8.36l-2.2-9.54Z"/><path id="_Path_70" data-name="&lt;Path&gt;" class="cls-9" d="M183.11,210.13l-10.42,4.56-15.87-37a5.69,5.69,0,0,1,2.93-7.49h0a5.69,5.69,0,0,1,7.49,2.93Z"/><rect id="_Rectangle_18" data-name="&lt;Rectangle&gt;" class="cls-10" x="172.16" y="211.14" width="15.2" height="8.02" transform="translate(-74.89 97.87) rotate(-25.39)"/><rect id="_Rectangle_19" data-name="&lt;Rectangle&gt;" class="cls-9" x="171.99" y="142.8" width="11.37" height="47.38" rx="5.69" ry="5.69" transform="translate(234.58 -70.26) rotate(60.38)"/><rect class="cls-21" x="175.47" y="75.19" width="133.96" height="3.4"/><circle class="cls-21" cx="317.06" cy="75.19" r="27.2"/><circle class="cls-21" cx="167.09" cy="76.89" r="25.65"/><path class="cls-22" d="M172.54,56.33a19.45,19.45,0,0,0-4.56-.54"/><path class="cls-22" d="M187.37,75.19a19.4,19.4,0,0,0-12.46-18.12"/><path class="cls-22" d="M323.4,54a19.45,19.45,0,0,0-4.56-.54"/><path class="cls-22" d="M338.23,72.85a19.4,19.4,0,0,0-12.46-18.12"/><rect id="_Rectangle_20" data-name="&lt;Rectangle&gt;" class="cls-10" x="236.59" y="82.59" width="15.2" height="8.02" transform="translate(-12.83 53.95) rotate(-12.29)"/><path class="cls-23" d="M356,385.08l-.59-7.58a1.15,1.15,0,0,0-1.52-1c0-.07,0-.14-.06-.22l-.38-1.09-4-11.47,1.51-.48-20.13-62.78,13.91-55.41a8,8,0,0,0,.22-2.52l.85-.16-31.2-69.72A21.58,21.58,0,0,0,288.2,161v-.13l-1.64-.26A29.69,29.69,0,0,0,290.49,148l.17.16c2.61,2.21,3.37-5.12,4-8.14s-1.11-4.43-3.24-4.27a26.26,26.26,0,0,0-2.51-8.76c.3-2.6,1.07-3.5,2.31-5.47a12.59,12.59,0,0,0-4.86,1.63s-4.93-6.85-16.63-6.09c-7.42.48-13.3,6.27-13.3,6.27l-6.58,1h0s0,.12.08.33a14.06,14.06,0,0,0,1.48,3.87h0a8.14,8.14,0,0,0,2.56,3.14l-4,.6a4.31,4.31,0,0,0,1.22,2.72,5.71,5.71,0,0,0,2.08,1.47c-.07.33-.15.66-.21,1l-.36-.36-1.36,1.36a1.93,1.93,0,0,0,1.37,3.29c0,.87,0,1.76.09,2.7a37.67,37.67,0,0,0,.88,5.57l-.1-.18a17.46,17.46,0,0,0,.92,3.24,30.28,30.28,0,0,0,6.67,12,10.17,10.17,0,0,0,1.92,3.78,5.93,5.93,0,0,0,4.05,2.19l1.72.15a22.24,22.24,0,0,0-1.8,2.11,5.88,5.88,0,0,0-1.77,2.29l-15.11,34.91a5.9,5.9,0,0,0,.91,6.14l14.35,37.46L262.08,256l4,7.41,3.08-1.68,1.14,2.9s.93.68,2.23,1.56a18.23,18.23,0,0,0,.56,11.74,26.32,26.32,0,0,0,4.41,42.42v57H279v4.05a5.76,5.76,0,0,0-1.69.17l-20,5.21a3,3,0,0,0-2.26,2.93v2a1.15,1.15,0,0,0,1.16,1.16h34.14a2.29,2.29,0,0,0,2.3-2.3v-7.66a1.15,1.15,0,0,0-1.16-1.15V377.3h2.16V323.66a26.34,26.34,0,0,0,22-17.8l20,62.24,1.94-.62,3.38,9.68a5.88,5.88,0,0,0-.91.22l-19.55,6.76a3,3,0,0,0-2,3.09l.06.76.09,1.2a1.15,1.15,0,0,0,1.24,1.06l34-2.66a2.29,2.29,0,0,0,2.11-2.47ZM276.11,248.31l0,0-13.71-35.76,5-11.49,27.45,50.84,1.69-.32a7.92,7.92,0,0,0,.45.78l-.48,1.37a18.38,18.38,0,0,0-17.79,3.12l-.12-.27,1.62-.88Zm31.61,29.13a18,18,0,0,0,.81-9.51l3.59-10.28,2.22,1,1.26-2.79,9.85-.08-9.05,36.05A26.3,26.3,0,0,0,307.72,277.44Z"/><path id="_Path_71" data-name="&lt;Path&gt;" class="cls-24" d="M282.33,333.22h0a6.23,6.23,0,0,0-6.23,6.23V383.6a6.23,6.23,0,0,0,6.23,6.23h0a6.23,6.23,0,0,0,6.23-6.23V339.45A6.23,6.23,0,0,0,282.33,333.22Z"/><path id="_Path_72" data-name="&lt;Path&gt;" class="cls-25" d="M289.73,382.81v7.6h-37.6v-.76a3,3,0,0,1,2.26-2.93l20-5.21a5.58,5.58,0,0,1,2.8,0,20.59,20.59,0,0,0,11,.2A1.16,1.16,0,0,1,289.73,382.81Z"/><path id="_Path_73" data-name="&lt;Path&gt;" class="cls-26" d="M289.73,390.42v.06a2.29,2.29,0,0,1-2.3,2.3H253.29a1.15,1.15,0,0,1-1.16-1.16v-1.2Z"/><rect id="_Rectangle_21" data-name="&lt;Rectangle&gt;" class="cls-27" x="254.36" y="170.52" width="11.96" height="49.84" rx="5.98" ry="5.98" transform="translate(421.66 478.19) rotate(-156.6)"/><path id="_Path_74" data-name="&lt;Path&gt;" class="cls-8" d="M263.63,254.94l3.8,9.66s6.4,4.72,9.4,5.32c3.49.69,7.8-1.07,8.58-1.45,2.08-1-7.79-7.42-7.79-7.42l-4.21-9.4Z"/><path id="_Path_75" data-name="&lt;Path&gt;" class="cls-27" d="M262.59,254.18l11.2-4.2-15.16-39.56a6,6,0,0,0-7.7-3.5h0a6,6,0,0,0-3.5,7.7Z"/><rect id="_Rectangle_22" data-name="&lt;Rectangle&gt;" class="cls-6" x="260.2" y="251.62" width="15.99" height="8.44" transform="translate(626.22 351.79) rotate(151.35)"/><path id="_Path_76" data-name="&lt;Path&gt;" class="cls-24" d="M328.42,330.76h0a6.23,6.23,0,0,0-3.83,7.94l14.54,41.68a6.23,6.23,0,0,0,7.94,3.83h0a6.23,6.23,0,0,0,3.83-7.94l-.38-1.09-14.17-40.6A6.23,6.23,0,0,0,328.42,330.76Z"/><rect id="_Rectangle_23" data-name="&lt;Rectangle&gt;" class="cls-27" x="318.76" y="234.16" width="16.08" height="75.28" rx="8.04" ry="8.04" transform="translate(76.02 -71.39) rotate(14.09)"/><path id="_Rectangle_24" data-name="&lt;Rectangle&gt;" class="cls-27" d="M282.68,302h0a8,8,0,0,1,8,8V377.3a0,0,0,0,1,0,0H274.64a0,0,0,0,1,0,0V310.05A8,8,0,0,1,282.68,302Z"/><path id="_Path_77" data-name="&lt;Path&gt;" class="cls-25" d="M352.48,377.49l.59,7.58L315.59,388l-.06-.76a3,3,0,0,1,2-3.09l19.55-6.76a5.58,5.58,0,0,1,2.8-.23,20.59,20.59,0,0,0,11-.66A1.16,1.16,0,0,1,352.48,377.49Z"/><path id="_Path_78" data-name="&lt;Path&gt;" class="cls-26" d="M353.07,385.08v.06A2.29,2.29,0,0,1,351,387.6l-34,2.66a1.15,1.15,0,0,1-1.24-1.06l-.09-1.2Z"/><path id="_Path_79" data-name="&lt;Path&gt;" class="cls-27" d="M304.88,245.71h0a8,8,0,0,0-10.26,4.91l-19.54,55.91A8,8,0,0,0,280,316.76h0a8,8,0,0,0,10.27-4.93L309.79,256A8,8,0,0,0,304.88,245.71Z"/><path id="_Path_80" data-name="&lt;Path&gt;" class="cls-27" d="M317.4,294h0a8,8,0,0,0-5.23,10.1l20.53,64L348,363.24l-20.53-64A8,8,0,0,0,317.4,294Z"/><path id="_Path_81" data-name="&lt;Path&gt;" class="cls-27" d="M338.33,233l-45.89.37.27,14.73a7.88,7.88,0,0,0,7.95,7.82l30.12-.24a7.88,7.88,0,0,0,7.82-7.95Z"/><path id="_Path_82" data-name="&lt;Path&gt;" class="cls-28" d="M283.15,161.77l-10.31,4.61a22.37,22.37,0,0,0-11.24,29.47l30.27,56.06,51-9.54-31.2-69.72A21.58,21.58,0,0,0,283.15,161.77Z"/><polygon id="_Path_83" data-name="&lt;Path&gt;" class="cls-6" points="267.69 168.69 284.04 196.65 285.28 160.82 267.69 168.69"/><path id="_Path_84" data-name="&lt;Path&gt;" class="cls-8" d="M271.54,151.82l.13-.06a4,4,0,0,0-1.93,5.34l3.56,8c.92,2.06,2.75,2,4.81,1.09l-.06,0c2.06-.92,3.37-2.28,2.45-4.34l-3.56-8A4.08,4.08,0,0,0,271.54,151.82Z"/><polygon id="_Path_85" data-name="&lt;Path&gt;" class="cls-24" points="285.28 160.82 279.64 159.92 276.64 165.96 282.33 171.26 285.28 160.82"/><polygon id="_Path_86" data-name="&lt;Path&gt;" class="cls-24" points="267.69 168.69 272.44 163.14 276.64 165.96 274.29 174.86 267.69 168.69"/><polygon id="_Path_87" data-name="&lt;Path&gt;" class="cls-14" points="276.64 165.96 280.03 169.12 277.73 174.94 275.04 172 276.64 165.96"/><polygon id="_Path_88" data-name="&lt;Path&gt;" class="cls-14" points="278.27 173.01 284.44 185.08 284.04 196.65 278.2 186.66 276.6 173.31 278.27 173.01"/><path id="_Path_89" data-name="&lt;Path&gt;" class="cls-15" d="M268.18,169.87c13.57-1.3,19.24-12.32,19.59-25,.37-13.36-10-22.82-20.53-21.27-12,1.76-18.32,7.5-17.33,20.83.62,8.37,5.6,24.59,18.27,25.45Z"/><path id="_Path_90" data-name="&lt;Path&gt;" class="cls-29" d="M286,127c1.75,3.06,2.49,7.94,2.79,11.08a3.14,3.14,0,0,0-2.75-.26l-.41.16h0l-.2.1-.19.11-.2.13-.14.1-.23.18-.18.16-.18.17-.17.18-.17.19c-.11.13-.21.26-.31.4v0l-.06.09,0,.06,0,.06V140a.16.16,0,0,0,0,0l.85,5.67a2.57,2.57,0,0,1-.32,2,3.12,3.12,0,0,1-.22.33,4.1,4.1,0,0,1-1.65.76,3,3,0,0,1-3.38-2.25l-.3-2a3,3,0,0,0-3.13-2.52l-.52,0c-.38-2.3-.64-4.13-.79-5.27-.19-1.41-.85-2.27-4-2.11h-.09l-.89.07H269c-.55.05-1.15.13-1.82.23l-14.35,2.15-.17,0a7.16,7.16,0,0,1-4.33-2.1,4.32,4.32,0,0,1-1.22-2.72l4-.6a8.14,8.14,0,0,1-2.56-3.14,19,19,0,0,1-1.56-4.22l6.59-1s5.87-5.78,13.3-6.27c11.7-.76,16.63,6.09,16.63,6.09a12.6,12.6,0,0,1,4.86-1.63C287.06,123.46,286.29,124.36,286,127Z"/><path id="_Path_91" data-name="&lt;Path&gt;" class="cls-30" d="M269,134.69c-.55.05-1.15.13-1.82.23l-14.35,2.15-.17,0a7.16,7.16,0,0,1-4.33-2.1,4.32,4.32,0,0,1-1.22-2.72s4,3.34,6.24,3.4h.18C255.77,135.65,265.69,134.93,269,134.69Z"/><path id="_Path_92" data-name="&lt;Path&gt;" class="cls-29" d="M275.3,156l0,2.1-.05,4.74v1.57c-.07,4.19-3.07,7.33-6.69,7l-4.27-.36a5.93,5.93,0,0,1-4.05-2.19A10.8,10.8,0,0,1,258,164l-.79-6.72c0-1.83.39-2.58,1.94-2.8l13.09-2,.32,0A3.35,3.35,0,0,1,275.3,156Z"/><path id="_Path_93" data-name="&lt;Path&gt;" class="cls-30" d="M246.93,124.29s3.43,5.43,7.25,6.37c3.25.79,18.27-1,18.27-1a25.8,25.8,0,0,1-4.47,1.8c-1.34.35-14.43,2.73-16.93.15A13,13,0,0,1,246.93,124.29Z"/><path id="_Path_94" data-name="&lt;Path&gt;" class="cls-29" d="M283.8,148a13.14,13.14,0,0,1-2,2.07c-2.67,2.41-6.51,5.39-6.88,10.92v0c-.17,2.66-.74,2.45-1.34,1-1-2.44-2.12-8.45-1.4-9.7h0c2.54-.38,7-2.75,6.56-5.84S286.39,144.85,283.8,148Z"/><path id="_Path_95" data-name="&lt;Path&gt;" class="cls-29" d="M257.94,163.17c-.34-2.92-5.84-5.63-7.25-13.36a7.91,7.91,0,0,0,8.43,4.51C260.23,155.34,258.3,160.8,257.94,163.17Z"/><path id="_Path_96" data-name="&lt;Path&gt;" class="cls-30" d="M281.84,150.06c-2.61,2.78-6.38,6.21-6.61,12.76v1.57c-.07,4.19-3.07,7.33-6.69,7l-4.27-.36a5.93,5.93,0,0,1-4.05-2.19,25.11,25.11,0,0,0,6.74.78c3.13-.19,6.7-1.79,7-5.59h0a22.07,22.07,0,0,1,1.37-6C276.48,154.89,278.56,151.62,281.84,150.06Z"/><g id="_Group_7" data-name="&lt;Group&gt;"><line id="_Path_97" data-name="&lt;Path&gt;" class="cls-31" x1="252.55" y1="142.18" x2="257.4" y2="141.77"/><path id="_Path_98" data-name="&lt;Path&gt;" class="cls-29" d="M252.46,143a.81.81,0,0,1,0-1.62l4.86-.41a.81.81,0,1,1,.14,1.62l-4.86.41Z"/></g><g id="_Group_8" data-name="&lt;Group&gt;"><line id="_Path_99" data-name="&lt;Path&gt;" class="cls-31" x1="266.12" y1="139.9" x2="270.99" y2="139.98"/><path id="_Path_100" data-name="&lt;Path&gt;" class="cls-29" d="M266,139.1a.81.81,0,0,0,.13,1.61l4.87.08a.81.81,0,0,0,0-1.62l-4.87-.08Z"/></g><circle id="_Path_101" data-name="&lt;Path&gt;" cx="268.72" cy="145.1" r="1.1" transform="translate(-18.55 41.47) rotate(-8.53)"/><circle id="_Path_102" data-name="&lt;Path&gt;" cx="256.16" cy="147.37" r="1.1" transform="translate(-19.03 39.63) rotate(-8.53)"/><polygon id="_Path_103" data-name="&lt;Path&gt;" class="cls-18" points="262.74 145.51 263.92 152.35 261.84 152.32 262.74 145.51"/><path id="_Path_104" data-name="&lt;Path&gt;" class="cls-32" d="M273,146a5.72,5.72,0,0,1-3.21,1.49h0a6.15,6.15,0,0,1-3.51-.49"/><path id="_Path_105" data-name="&lt;Path&gt;" class="cls-32" d="M259.63,148a5.72,5.72,0,0,1-3.21,1.49h0a6.15,6.15,0,0,1-3.51-.49"/><g id="_Group_9" data-name="&lt;Group&gt;"><path id="_Path_106" data-name="&lt;Path&gt;" class="cls-15" d="M283.41,139.9a6.45,6.45,0,0,1,1.87-2.65c3.08-2.9,7.38-1.57,6.47,2.75-.64,3-1.4,10.34-4,8.14A13.7,13.7,0,0,1,283.41,139.9Z"/><polygon id="_Path_107" data-name="&lt;Path&gt;" class="cls-18" points="286.12 139.92 290.52 138.48 288.05 145.19 288.43 139.91 286.12 139.92"/></g><path class="cls-33" d="M262.28,160.8c1.73-.56,4.82.83,4.82.83"/><rect id="_Rectangle_25" data-name="&lt;Rectangle&gt;" class="cls-27" x="304.35" y="164.06" width="11.96" height="49.84" rx="5.98" ry="5.98" transform="translate(-49.53 138.78) rotate(-23.4)"/><path id="_Path_108" data-name="&lt;Path&gt;" class="cls-27" d="M311.34,249.43l-11.48-3.34L312,205.5a6,6,0,0,1,7.41-4.07h0a6,6,0,0,1,4.07,7.41Z"/><path class="cls-21" d="M287.43,258.39a12.79,12.79,0,1,1-12.79,12.79,12.81,12.81,0,0,1,12.79-12.79m0-5.69a18.48,18.48,0,1,0,18.48,18.48,18.48,18.48,0,0,0-18.48-18.48Z"/><circle class="cls-21" cx="287.78" cy="297.51" r="26.32"/><path id="_Path_109" data-name="&lt;Path&gt;" class="cls-8" d="M310.36,250.26l-3.06,9.92s-6,5.19-9,6c-3.43,1-7.86-.47-8.66-.79-2.15-.86,7.21-8,7.21-8l3.49-9.69Z"/><rect id="_Rectangle_26" data-name="&lt;Rectangle&gt;" class="cls-6" x="297.88" y="247.29" width="15.99" height="8.44" transform="translate(130.74 -103.66) rotate(24.32)"/><path class="cls-12" d="M248.45,138.44h0l1.36-1.36,1.36,1.36a1.93,1.93,0,0,1,0,2.73h0a1.93,1.93,0,1,1-2.73-2.73Z"/><path class="cls-23" d="M450.35,78.63c-2.2-6.43-4.52-11.46-5.18-11.23-.06,0-.1.1-.13.2l0-.14-5.6,1.91-5.16,1.76.93,2.73L425.89,77h0l-.51.18.89,2.61-10,3.42.49,1.43-.06,0a1.5,1.5,0,0,0-1.78-.81c-3,.68-5.74,1.43-6.23,2a2.46,2.46,0,0,0-.31,1.64l-1.14.39h0l-.51.18.51,1.49L402,91.37l-.43-.62-.22-.29a43.46,43.46,0,0,0-3.69-7.93c-4.88-8-8.41-5.65-8.94-5.23-6.69-4.13-12.5-1.69-17.68,2.82a23.17,23.17,0,0,0-5.87,7.61,5.07,5.07,0,0,0-3-.53c-3.35.46-5.58,4.31-5,8.59s3.79,7.38,7.13,6.92a4.85,4.85,0,0,0,1.11-.3,29.05,29.05,0,0,0,5.23,7.38,3.33,3.33,0,0,0,1.45,2.4c1.33,1,3.64,3.18,5.31,3.92a1.82,1.82,0,1,0,3.58.6,24.5,24.5,0,0,0,6,3.51l-.16,7.87L382,128h0l-2.75-.06,0,.14h-.06l-4.56-.09h-.48a5.59,5.59,0,0,0-4.43,0L336,142.38a5.58,5.58,0,0,0-2,1.45,6.19,6.19,0,0,0-3.31,9.86l24.95,30.85h0l.86,1,1.81,2.23,0,0,0,0-.09.12,5.66,3.69c-.83,6.87-1.56,12.29-1.56,12.29l1.78,0a8.35,8.35,0,0,0-.15,1.55V346.72h1.87v3.61a1.22,1.22,0,0,0-1.11,1.22v8.13a2.43,2.43,0,0,0,2.44,2.44h67.4a1.23,1.23,0,0,0,1.23-1.23v-2.08a3.21,3.21,0,0,0-2.4-3.1l-21.24-5.53a6.11,6.11,0,0,0-1.8-.18v-3.27h2V215.08a8.32,8.32,0,0,0,1-3.88l-.39-6.23h.67l-2.24-36.13,3.09-26.68,31.7-5.22a5.61,5.61,0,0,0,4.69-5.88,6.17,6.17,0,0,0-1.17-3.95l-23-31.46-.12.09-1.17-1.56,5.2-1.78.65,1.91L441,91l1.17,3.43.74-.25h0l1-.34L452.21,91h0l.74-.25,0-.14c.09.06.16.1.22.08C453.79,90.46,452.55,85.06,450.35,78.63Zm-40.7,18,.51,1.49,2.81-1,2.22,2-.92.69,2.77,3.68h0l17.35,23.74L411.57,131a12,12,0,0,0-7.09-2.41l-1.8,0-.08-.14-8-.16.14-6.8a18.08,18.08,0,0,0,8.91-3.32c5.56-5.35,4.48-13.56,1.86-20.09Zm-65.06,54.56,19.85-8.48c.8,7.18,2,18.71,1.88,23.64-.05,2.49-.35,6.3-.77,10.54l-.28-.34-.1.08Zm52.54,199.13a1.23,1.23,0,0,0-1.24,1.23v2.51L381,350.17a6.09,6.09,0,0,0-1.92-.17v-3.28h2V219.31l14.21.11v127.3h1.87Z"/><path id="_Path_110" data-name="&lt;Path&gt;" class="cls-34" d="M371.49,299.88h0a6.61,6.61,0,0,1,6.61,6.61v46.85a6.61,6.61,0,0,1-6.61,6.61h0a6.61,6.61,0,0,1-6.61-6.61V306.49A6.61,6.61,0,0,1,371.49,299.88Z"/><path id="_Rectangle_27" data-name="&lt;Rectangle&gt;" class="cls-14" d="M363,198.16h17.07a0,0,0,0,1,0,0v141a8.53,8.53,0,0,1-8.53,8.53h0a8.53,8.53,0,0,1-8.53-8.53v-141A0,0,0,0,1,363,198.16Z" transform="translate(743.09 545.85) rotate(180)"/><path id="_Path_111" data-name="&lt;Path&gt;" class="cls-35" d="M363.76,352.51v8.07h39.9v-.81a3.21,3.21,0,0,0-2.4-3.1L380,351.14a5.92,5.92,0,0,0-3,0c-5.67,1.47-9.66.82-11.7.21A1.23,1.23,0,0,0,363.76,352.51Z"/><path id="_Path_112" data-name="&lt;Path&gt;" class="cls-34" d="M363.76,360.58v.06a2.43,2.43,0,0,0,2.44,2.44h36.24a1.23,1.23,0,0,0,1.23-1.23v-1.27Z"/><path id="_Path_113" data-name="&lt;Path&gt;" class="cls-34" d="M402.77,299.88h0a6.61,6.61,0,0,1,6.61,6.61v46.85a6.61,6.61,0,0,1-6.61,6.61h0a6.61,6.61,0,0,1-6.61-6.61V306.49A6.61,6.61,0,0,1,402.77,299.88Z"/><path id="_Rectangle_28" data-name="&lt;Rectangle&gt;" class="cls-14" d="M394.29,198.16h17.07a0,0,0,0,1,0,0v141a8.53,8.53,0,0,1-8.53,8.53h0a8.53,8.53,0,0,1-8.53-8.53v-141a0,0,0,0,1,0,0Z" transform="translate(805.65 545.85) rotate(180)"/><path id="_Path_114" data-name="&lt;Path&gt;" class="cls-35" d="M394.92,352.51v8.07h39.9v-.81a3.21,3.21,0,0,0-2.4-3.1l-21.24-5.53a5.92,5.92,0,0,0-3,0c-5.67,1.47-9.66.82-11.7.21A1.23,1.23,0,0,0,394.92,352.51Z"/><path id="_Path_115" data-name="&lt;Path&gt;" class="cls-34" d="M394.92,360.58v.06a2.43,2.43,0,0,0,2.44,2.44H433.6a1.23,1.23,0,0,0,1.23-1.23v-1.27Z"/><path id="_Path_116" data-name="&lt;Path&gt;" class="cls-14" d="M363.94,196.14l47.42.38,1,15.64a8.37,8.37,0,0,1-8.43,8.3l-32-.26a8.37,8.37,0,0,1-8.3-8.43Z"/><rect id="_Rectangle_29" data-name="&lt;Rectangle&gt;" class="cls-8" x="385.97" y="116.32" width="7.74" height="18.79" rx="3.87" ry="3.87" transform="translate(777.02 259.38) rotate(-178.83)"/><rect id="_Rectangle_30" data-name="&lt;Rectangle&gt;" class="cls-14" x="420.42" y="111.3" width="11.49" height="47.86" rx="5.74" ry="5.74" transform="translate(490.38 -307.24) rotate(80.65)"/><path id="_Path_117" data-name="&lt;Path&gt;" class="cls-36" d="M373.62,128.95l29.89.61c5.9.12,10.6,4.15,10.5,9l-3.62,31.26L412.63,206l-51.25-1s3.78-28.18,4-37.59c.15-7.43-2.6-29.8-2.6-29.8C362.86,132.66,367.72,128.83,373.62,128.95Z"/><path id="_Path_118" data-name="&lt;Path&gt;" class="cls-8" d="M377.78,131.38c-.11,5.41,5.14,9.9,11.73,10s12-4.14,12.13-9.55a8,8,0,0,0-.3-2.36L378.18,129A8,8,0,0,0,377.78,131.38Z"/><polygon id="_Path_119" data-name="&lt;Path&gt;" class="cls-14" points="378.28 128.91 376.58 134.13 380.83 138.54 378.93 141.91 397.43 169.07 405.5 142.38 403.21 138.83 404.83 134.71 401.62 129.38 378.28 128.91"/><polygon id="_Path_120" data-name="&lt;Path&gt;" class="cls-37" points="399.51 129.34 395.52 160.15 381.02 128.96 399.51 129.34"/><rect id="_Rectangle_31" data-name="&lt;Rectangle&gt;" class="cls-14" x="348.38" y="117.49" width="11.49" height="47.86" rx="5.74" ry="5.74" transform="translate(363.19 522.63) rotate(-113.13)"/><path id="_Path_121" data-name="&lt;Path&gt;" class="cls-38" d="M357.28,188.93l7.56,4.93s6.85.44,9.28-.65c2.83-1.27,5.35-2.54,5.71-3.2,1-1.77-9.55-3.81-9.55-3.81l-7.73-4.54Z"/><path id="_Path_122" data-name="&lt;Path&gt;" class="cls-8" d="M357.28,188.53l7.56,4.93s6.85.44,9.28-.65c2.83-1.27,5.35-2.54,5.71-3.2,1-1.77-9.55-3.81-9.55-3.81l-7.73-4.54Z"/><path id="_Path_123" data-name="&lt;Path&gt;" class="cls-14" d="M357.3,188.78l9.69-7.72-27.6-34.13a6.2,6.2,0,0,0-8.71-1h0a6.2,6.2,0,0,0-1,8.71Z"/><rect id="_Rectangle_32" data-name="&lt;Rectangle&gt;" class="cls-36" x="354.67" y="180.99" width="12.54" height="4.6" transform="translate(755.88 94.44) rotate(140.4)"/><path id="_Path_124" data-name="&lt;Path&gt;" class="cls-39" d="M387.68,78.32s3.72-3.47,9,5.18a44.28,44.28,0,0,1,4.09,9.15l-11-3.53-8.51,1.1,6.5-8.13Z"/><path id="_Path_125" data-name="&lt;Path&gt;" class="cls-15" d="M402.69,119.1c-9.84,6.78-19.86,2.58-27.25-5.75-7.78-8.77-6.18-20.94,1.79-25.86,9.06-5.59,16.53-5.3,23.38,4.22,4.3,6,10.1,19.67,2.08,27.39Z"/><g id="_Group_10" data-name="&lt;Group&gt;"><line id="_Path_126" data-name="&lt;Path&gt;" class="cls-16" x1="398.02" y1="91.94" x2="394.17" y2="94.27"/><path id="_Path_127" data-name="&lt;Path&gt;" class="cls-16" d="M398.53,92.5a.75.75,0,0,0-.89-1.2l-3.85,2.33a.75.75,0,0,0,.78,1.28l3.85-2.33Z"/></g><g id="_Group_11" data-name="&lt;Group&gt;"><line id="_Path_128" data-name="&lt;Path&gt;" class="cls-16" x1="390.36" y1="99.29" x2="386.54" y2="101.67"/><path id="_Path_129" data-name="&lt;Path&gt;" class="cls-16" d="M390.09,98.59a.75.75,0,0,1,.66,1.34l-3.82,2.38a.75.75,0,0,1-.79-1.27L390,98.66Z"/></g><circle id="_Path_130" data-name="&lt;Path&gt;" cx="399.04" cy="97.38" r="1.01" transform="translate(7.9 222.77) rotate(-31.49)"/><polygon id="_Path_131" data-name="&lt;Path&gt;" class="cls-18" points="394.14 100.24 398.63 107.83 400.02 106.47 394.14 100.24"/><ellipse id="_Path_132" data-name="&lt;Path&gt;" class="cls-39" cx="362.28" cy="95.92" rx="6.12" ry="7.83" transform="matrix(0.99, -0.14, 0.14, 0.99, -9.72, 50.49)"/><path id="_Path_133" data-name="&lt;Path&gt;" class="cls-29" d="M377.87,113.4s5-1.91,1.45-6.32c2.2-1.87,11-14.13,8.59-28.74-6.76-4.26-12.61-1.81-17.83,2.74-7.72,6.72-12.89,18.79,2.41,32.39C373.62,114.48,376.07,113.2,377.87,113.4Z"/><g id="_Group_12" data-name="&lt;Group&gt;"><path id="_Path_134" data-name="&lt;Path&gt;" class="cls-15" d="M376.68,108.4a5.66,5.66,0,0,0-2.75-.73c-3.71-.21-5.84,3.11-2.79,5.49,2.13,1.66,6.77,6.16,7.28,3.2A12,12,0,0,0,376.68,108.4Z"/><polygon id="_Path_135" data-name="&lt;Path&gt;" class="cls-18" points="374.87 109.94 371.1 111.46 376.55 114.57 373.31 111.23 374.87 109.94"/></g><circle id="_Path_136" data-name="&lt;Path&gt;" class="cls-40" cx="378.23" cy="117.41" r="1.82" transform="translate(-5.63 214.85) rotate(-31.49)"/><path id="_Path_137" data-name="&lt;Path&gt;" class="cls-41" d="M395.27,112.42a7,7,0,0,0,5.75-1.11h0a7.48,7.48,0,0,0,2.86-5.11"/><path class="cls-42" d="M391.69,102.35a2.31,2.31,0,0,0-2.18,2.16"/><path class="cls-42" d="M389.32,102.82a2.31,2.31,0,0,0,.14,1.63"/><path id="_Path_138" data-name="&lt;Path&gt;" class="cls-14" d="M425.71,96.64l-10,7.27,23,31.46a6.2,6.2,0,0,0,8.65,1.38h0a6.2,6.2,0,0,0,1.38-8.65Z"/><path id="_Path_139" data-name="&lt;Path&gt;" class="cls-8" d="M422.71,95.73l-6.43-6.34s.43-5.16-2.33-4.54c-3,.68-5.74,1.43-6.23,2-1.29,1.54,1.71,9,1.71,9l6.67,6Z"/><rect class="cls-14" x="398.33" y="91.66" width="10.59" height="7.45" transform="translate(816.41 55.11) rotate(161.13)"/><rect class="cls-43" x="407.19" y="87.07" width="10.59" height="10.59" transform="translate(832.68 46.35) rotate(161.13)"/><rect class="cls-37" x="407.71" y="86.89" width="10.59" height="10.59" transform="translate(833.62 45.84) rotate(161.13)"/><rect class="cls-43" x="417.16" y="82.14" width="10.59" height="13.32" transform="translate(850.93 36.2) rotate(161.13)"/><rect class="cls-14" x="417.68" y="81.97" width="10.59" height="13.32" transform="matrix(-0.95, 0.32, -0.32, -0.95, 851.87, 35.69)"/><rect class="cls-43" x="427.06" y="75.98" width="10.59" height="18.1" transform="translate(868.97 25.65) rotate(161.13)"/><rect class="cls-37" x="427.57" y="75.8" width="10.59" height="18.1" transform="translate(869.91 25.14) rotate(161.13)"/><rect class="cls-43" x="436.97" y="69.73" width="10.59" height="24.6" transform="translate(887.29 16.62) rotate(161.13)"/><rect class="cls-14" x="437.71" y="69.48" width="10.59" height="24.6" transform="translate(888.65 15.88) rotate(161.13)"/><ellipse class="cls-44" cx="448.19" cy="80.01" rx="1.27" ry="12.3" transform="translate(-1.79 149.25) rotate(-18.87)"/><rect class="cls-37" x="407.71" y="86.89" width="10.59" height="10.59" transform="translate(833.62 45.84) rotate(161.13)"/><path id="_Path_140" data-name="&lt;Path&gt;" class="cls-5" d="M414.25,100.3a58,58,0,0,0,1.4-6.39c2.7-.59,3.56,4.18,3.56,4.18Z"/><rect id="_Rectangle_33" data-name="&lt;Rectangle&gt;" class="cls-36" x="413.46" y="96.65" width="12.26" height="4.6" transform="translate(24.91 272.36) rotate(-36.99)"/><rect class="cls-8" x="407.5" y="86.26" width="8.59" height="2.63" rx="0.81" ry="0.81" transform="translate(829.78 37.26) rotate(161.13)"/><g class="cls-2"><path class="cls-3" d="M512.29,195.71a6.86,6.86,0,0,0-3.74-1.55,11.19,11.19,0,0,0-6.74-2.26H496l-4.24-2.77v-1a18.05,18.05,0,0,0,8.61-8,4.92,4.92,0,0,0,7.17-5.81,4.93,4.93,0,0,0,4-6.8,4.92,4.92,0,0,0,1.21-7.2,4.92,4.92,0,0,0-1.93-7.59,4.92,4.92,0,0,0-3.84-6.21,4.93,4.93,0,0,0-7.18-5.44,4.92,4.92,0,0,0-8-2.6,4.92,4.92,0,0,0-7.58-.23,4.93,4.93,0,0,0-7.2,4.37c0,.08,0,.17,0,.25a4.92,4.92,0,0,0-6.48,4.68c0,.15,0,.3,0,.44a4.89,4.89,0,0,0-2.82,5.33,4.89,4.89,0,0,0-1.9,4.83l-34.12,14.49a6.93,6.93,0,0,0-4.19,6,5.76,5.76,0,0,0,.32,10l-.19.64a.17.17,0,0,0,.11.21h0L426,195.67h-.19a1.43,1.43,0,0,1-2.24-.38,1.43,1.43,0,0,1-2.81.19,1.43,1.43,0,0,1-1.54.53,1.43,1.43,0,0,0-1,.68,1.95,1.95,0,1,0-.57,3.81l.15,0a.62.62,0,0,0,.34,1v8.12c-1.85-1.57-3.5-2.58-3.81-1.57a19.22,19.22,0,0,0-.52,2.47c-.37,1.86-.78,5.38.35,8.11a8.38,8.38,0,0,0,.85,1.48l-2.22,7.35a2.43,2.43,0,0,0,2.32,3.13H430.7l-.35,1.42.19,0-.16.65,9.37,2.35.4-1.6,24,4.73v68.47h4.9V390.6h1.67v2.76a5.15,5.15,0,0,0-1.51.15l-17.9,4.66a2.7,2.7,0,0,0-2,2.62v1.75a1,1,0,0,0,1,1h56.78a2.05,2.05,0,0,0,2.05-2.05v-6.85a1,1,0,0,0-.94-1v-3h1.57V306.68h3.26V205.62l.14-.17A6.93,6.93,0,0,0,512.29,195.71Zm-93.35,4.52h.3l.16,0,0,0v.05h-.59ZM443.52,220l.68-2.72L434.84,215l-.13.52-.27-.06-.67,2.73-3.6-1-2.24-7.42v-8.25a.64.64,0,0,0,.5-.62.63.63,0,0,0-.11-.34,1.83,1.83,0,0,0,1.59-1.72,1.43,1.43,0,0,0-1.93-1.92,1.82,1.82,0,0,0-.41.07l2-7a.16.16,0,0,0,.17-.11l.18-.61a5.82,5.82,0,0,0,.66,0,5.75,5.75,0,0,0,4.27-1.9l29.29,18.74v17.31l-19.86-3.31Zm27.15-48.89v.06a.63.63,0,0,0,.31.53c1,7.35,4.3,15.93,12.42,17.71l.65,0-5.13,2.43H476.1a11.81,11.81,0,0,0-6,1.66l-20.81-13.32ZM497.09,390.6v2.76a5.13,5.13,0,0,0-1.62.15l-12.55,3.27v-2.11a1,1,0,0,0-1-1v-3h1.57V306.68h12V390.6Z"/><circle class="cls-3" cx="418.57" cy="194.6" r="1.49"/><circle class="cls-3" cx="423.39" cy="165.71" r="1.84"/><circle class="cls-3" cx="421.55" cy="176.02" r="2.5"/><circle class="cls-3" cx="422.13" cy="186.56" r="1.47"/><circle class="cls-3" cx="418.29" cy="170.42" r="1.47"/><circle class="cls-3" cx="419.28" cy="181.19" r="1.04"/><circle class="cls-3" cx="424.87" cy="179.26" r="0.67"/><circle class="cls-3" cx="422.76" cy="191.44" r="0.63"/></g><rect class="cls-45" x="416.08" y="201.04" width="9.79" height="12.99"/><rect class="cls-45" x="415.58" y="200.22" width="10.79" height="1.29" rx="0.65" ry="0.65"/><rect id="_Rectangle_34" data-name="&lt;Rectangle&gt;" class="cls-46" x="443.92" y="162.71" width="13.83" height="56.09" rx="6.91" ry="6.91" transform="matrix(-0.54, 0.84, -0.84, -0.54, 854.49, -86.19)"/><path id="_Path_141" data-name="&lt;Path&gt;" class="cls-47" d="M500.6,350.3h0a5.57,5.57,0,0,0-5.57,5.57v39.47a5.57,5.57,0,0,0,5.57,5.57h0a5.57,5.57,0,0,0,5.57-5.57V355.87A5.57,5.57,0,0,0,500.6,350.3Z"/><path id="_Rectangle_35" data-name="&lt;Rectangle&gt;" class="cls-11" d="M500.55,264.61h0a7.19,7.19,0,0,1,7.19,7.19V390.57a0,0,0,0,1,0,0H493.36a0,0,0,0,1,0,0V271.8A7.19,7.19,0,0,1,500.55,264.61Z"/><path id="_Path_142" data-name="&lt;Path&gt;" class="cls-48" d="M507.11,394.64v6.8H473.5v-.68a2.7,2.7,0,0,1,2-2.62l17.9-4.66a5,5,0,0,1,2.51,0,18.41,18.41,0,0,0,9.86.18A1,1,0,0,1,507.11,394.64Z"/><path id="_Path_143" data-name="&lt;Path&gt;" class="cls-49" d="M507.11,401.44v.05a2.05,2.05,0,0,1-2.05,2.05H474.53a1,1,0,0,1-1-1v-1.07Z"/><path id="_Path_144" data-name="&lt;Path&gt;" class="cls-47" d="M474.25,350.3h0a5.57,5.57,0,0,0-5.57,5.57v39.47a5.57,5.57,0,0,0,5.57,5.57h0a5.57,5.57,0,0,0,5.57-5.57V355.87A5.57,5.57,0,0,0,474.25,350.3Z"/><path id="_Rectangle_36" data-name="&lt;Rectangle&gt;" class="cls-11" d="M474.2,264.61h0a7.19,7.19,0,0,1,7.19,7.19V390.57a0,0,0,0,1,0,0H467a0,0,0,0,1,0,0V271.8a7.19,7.19,0,0,1,7.19-7.19Z"/><path id="_Path_145" data-name="&lt;Path&gt;" class="cls-48" d="M480.86,394.64v6.8H447.25v-.68a2.7,2.7,0,0,1,2-2.62l17.9-4.66a5,5,0,0,1,2.51,0,18.41,18.41,0,0,0,9.86.18A1,1,0,0,1,480.86,394.64Z"/><path id="_Path_146" data-name="&lt;Path&gt;" class="cls-49" d="M480.86,401.44v.05a2.05,2.05,0,0,1-2.05,2.05H448.28a1,1,0,0,1-1-1v-1.07Z"/><path id="_Path_147" data-name="&lt;Path&gt;" class="cls-15" d="M481.35,189.43c12.06.65,18.48-8.27,20.45-19.34,2.08-11.66-5.73-21.31-15.19-21.34-10.76,0-17,4.16-17.92,16-.55,7.42,1.68,22.29,12.67,24.7Z"/><path id="_Rectangle_37" data-name="&lt;Rectangle&gt;" class="cls-50" d="M475.24,191.88h23.38A12.39,12.39,0,0,1,511,204.27V306.65a0,0,0,0,1,0,0H462.12a0,0,0,0,1,0,0V205A13.13,13.13,0,0,1,475.24,191.88Z"/><polygon id="_Path_148" data-name="&lt;Path&gt;" class="cls-46" points="496.77 191.88 498.24 196.74 494.24 200.73 495.92 203.88 478.33 228.62 471.38 203.81 473.56 200.57 472.15 196.74 475.21 191.88 496.77 191.88"/><polygon id="_Path_149" data-name="&lt;Path&gt;" class="cls-6" points="476.87 191.88 479.98 220.41 493.95 191.88 476.87 191.88"/><path id="_Path_150" data-name="&lt;Path&gt;" class="cls-8" d="M486.1,179.62h.12a3.51,3.51,0,0,0-3.49,3.62V191c0,2,1.49,2.62,3.49,2.62h-.06c2,0,3.55-.62,3.55-2.62v-7.73A3.62,3.62,0,0,0,486.1,179.62Z"/><polygon id="_Path_151" data-name="&lt;Path&gt;" class="cls-24" points="493.95 191.88 489.71 189.11 485.1 192.91 487.79 199.25 493.95 191.88"/><polygon id="_Path_152" data-name="&lt;Path&gt;" class="cls-24" points="476.87 191.88 482.73 189.11 485.1 192.91 479.98 199.25 476.87 191.88"/><ellipse id="_Path_153" data-name="&lt;Path&gt;" class="cls-51" cx="481.68" cy="242" rx="2.27" ry="2.81"/><ellipse id="_Path_154" data-name="&lt;Path&gt;" class="cls-51" cx="481.68" cy="257.37" rx="2.27" ry="2.81"/><path id="_Path_155" data-name="&lt;Path&gt;" class="cls-31" d="M474.62,146.69s5.91-4.3,12.47-3.74c10.35.87,13.77,7.53,13.77,7.53a11.16,11.16,0,0,1,4.48-.79c-1.35,1.56-2.14,2.25-2.75,4.49,1.13,2.91,1.13,7.29,1,10.07a2.79,2.79,0,0,0-2.38-.59l-.38.09h0l-.18.06-.18.07-.19.09-.14.07-.23.13-.18.11-.18.12-.17.13-.17.14-.32.31s0,0,0,0l-.06.08,0,0,0,.05,0,0,0,0v5.13a2.28,2.28,0,0,1-.54,1.71,2.76,2.76,0,0,1-.24.26,3.63,3.63,0,0,1-1.55.45,2.65,2.65,0,0,1-2.66-2.41v-1.82a2.62,2.62,0,0,0-2.41-2.62l-.46,0c0-2.07,0-3.71,0-4.73,0-1.26-.45-2.1-3.25-2.38h-.08l-.79-.06h-.06c-.49,0-1,0-1.62,0H472.18l-.15,0a6.35,6.35,0,0,1-3.52-2.41"/><g id="_Group_13" data-name="&lt;Group&gt;"><line id="_Path_156" data-name="&lt;Path&gt;" class="cls-31" x1="471.29" y1="163.36" x2="475.6" y2="163.14"/><path id="_Path_157" data-name="&lt;Path&gt;" class="cls-31" d="M471.19,164.07a.72.72,0,0,1,.06-1.43l4.31-.22a.72.72,0,1,1,.07,1.44l-4.31.22Z"/></g><g id="_Group_14" data-name="&lt;Group&gt;"><line id="_Path_158" data-name="&lt;Path&gt;" class="cls-31" x1="483.46" y1="163.14" x2="487.77" y2="163.36"/><path id="_Path_159" data-name="&lt;Path&gt;" class="cls-31" d="M483.36,162.43a.72.72,0,0,0,.06,1.43l4.31.22a.72.72,0,1,0,.07-1.44l-4.31-.22Z"/></g><circle id="_Path_160" data-name="&lt;Path&gt;" cx="485.08" cy="167.8" r="0.97"/><circle id="_Path_161" data-name="&lt;Path&gt;" cx="473.78" cy="168.13" r="0.97"/><polygon id="_Path_162" data-name="&lt;Path&gt;" class="cls-18" points="479.79 167.37 479.92 173.52 478.1 173.22 479.79 167.37"/><path id="_Path_163" data-name="&lt;Path&gt;" class="cls-52" d="M488.7,169.11a5.07,5.07,0,0,1-3,.89h0a5.45,5.45,0,0,1-3-.89"/><path id="_Path_164" data-name="&lt;Path&gt;" class="cls-52" d="M476.74,169.11a5.07,5.07,0,0,1-3,.89h0a5.45,5.45,0,0,1-3-.89"/><g id="_Group_15" data-name="&lt;Group&gt;"><path id="_Path_165" data-name="&lt;Path&gt;" class="cls-15" d="M498.63,165.17a5.72,5.72,0,0,1,2-2.08c3.08-2.14,6.68-.41,5.31,3.26-1,2.56-2.59,8.88-4.58,6.6A12.14,12.14,0,0,1,498.63,165.17Z"/><polygon id="_Path_166" data-name="&lt;Path&gt;" class="cls-18" points="501.01 165.54 505.06 164.86 502.01 170.41 503.03 165.84 501.01 165.54"/></g><circle id="_Path_167" data-name="&lt;Path&gt;" class="cls-31" cx="470.57" cy="152.47" r="4.93"/><circle id="_Path_168" data-name="&lt;Path&gt;" class="cls-31" cx="468.66" cy="157.26" r="4.93"/><circle id="_Path_169" data-name="&lt;Path&gt;" class="cls-31" cx="476.74" cy="155.25" r="4.93"/><circle id="_Path_170" data-name="&lt;Path&gt;" class="cls-31" cx="484.1" cy="155.25" r="4.93"/><circle id="_Path_171" data-name="&lt;Path&gt;" class="cls-31" cx="490.54" cy="157.26" r="4.93"/><circle id="_Path_172" data-name="&lt;Path&gt;" class="cls-31" cx="494.22" cy="162.19" r="4.93"/><circle id="_Path_173" data-name="&lt;Path&gt;" class="cls-31" cx="473.45" cy="147.54" r="4.93"/><circle id="_Path_174" data-name="&lt;Path&gt;" class="cls-31" cx="485.88" cy="141.5" r="4.93"/><circle id="_Path_175" data-name="&lt;Path&gt;" class="cls-31" cx="479.91" cy="142.61" r="4.93"/><circle id="_Path_176" data-name="&lt;Path&gt;" class="cls-31" cx="492.94" cy="142.24" r="4.93"/><circle id="_Path_177" data-name="&lt;Path&gt;" class="cls-31" cx="500.1" cy="145.39" r="4.93"/><circle id="_Path_178" data-name="&lt;Path&gt;" class="cls-31" cx="504.01" cy="151.36" r="4.93"/><circle id="_Path_179" data-name="&lt;Path&gt;" class="cls-31" cx="506.8" cy="157.26" r="4.93"/><circle id="_Path_180" data-name="&lt;Path&gt;" class="cls-31" cx="500.02" cy="164.86" r="4.93"/><circle id="_Path_181" data-name="&lt;Path&gt;" class="cls-31" cx="499.98" cy="171.1" r="4.93"/><circle id="_Path_182" data-name="&lt;Path&gt;" class="cls-31" cx="506.8" cy="163.36" r="4.93"/><circle id="_Path_183" data-name="&lt;Path&gt;" class="cls-31" cx="500.83" cy="175.88" r="4.93"/><circle id="_Path_184" data-name="&lt;Path&gt;" class="cls-31" cx="504.91" cy="169.42" r="4.93"/><rect id="_Rectangle_38" data-name="&lt;Rectangle&gt;" class="cls-53" x="465.64" y="220.41" width="8.85" height="4.03" transform="translate(940.13 444.85) rotate(-180)"/><path class="cls-53" d="M472.06,218.8h1a0,0,0,0,1,0,0v1.59a.49.49,0,0,1-.49.49h0a.49.49,0,0,1-.49-.49V218.8A0,0,0,0,1,472.06,218.8Z" transform="translate(945.11 439.67) rotate(-180)"/><path class="cls-53" d="M469.56,218.8h1a0,0,0,0,1,0,0v1.59a.49.49,0,0,1-.49.49h0a.49.49,0,0,1-.49-.49V218.8A0,0,0,0,1,469.56,218.8Z" transform="translate(940.1 439.67) rotate(-180)"/><path class="cls-54" d="M469.49,218.87h1a0,0,0,0,1,0,0v1.59a.49.49,0,0,1-.49.49h0a.49.49,0,0,1-.49-.49v-1.59A0,0,0,0,1,469.49,218.87Z" transform="translate(939.97 439.83) rotate(-180)"/><path class="cls-55" d="M472,218.87h1a0,0,0,0,1,0,0v1.59a.49.49,0,0,1-.49.49h0a.49.49,0,0,1-.49-.49v-1.59A0,0,0,0,1,472,218.87Z" transform="translate(944.98 439.83) rotate(-180)"/><path class="cls-53" d="M467.31,218.8h1a0,0,0,0,1,0,0v1.59a.49.49,0,0,1-.49.49h0a.49.49,0,0,1-.49-.49V218.8a0,0,0,0,1,0,0Z" transform="translate(935.6 439.67) rotate(-180)"/><path class="cls-40" d="M467.24,218.87h1a0,0,0,0,1,0,0v1.59a.49.49,0,0,1-.49.49h0a.49.49,0,0,1-.49-.49v-1.59a0,0,0,0,1,0,0Z" transform="translate(935.47 439.83) rotate(-180)"/><rect id="_Rectangle_39" data-name="&lt;Rectangle&gt;" class="cls-51" x="465.64" y="220.53" width="8.85" height="4.03" transform="translate(940.13 445.08) rotate(-180)"/><path class="cls-9" d="M472.46,218.87h0a.24.24,0,0,1,.24.24v4.82a0,0,0,0,1,0,0h-.48a0,0,0,0,1,0,0v-4.82a.24.24,0,0,1,.24-.24Z" transform="translate(944.92 442.81) rotate(180)"/><path class="cls-9" d="M470,218.87h0a.24.24,0,0,1,.24.24v4.82a0,0,0,0,1,0,0h-.48a0,0,0,0,1,0,0v-4.82a.24.24,0,0,1,.24-.24Z" transform="translate(939.97 442.81) rotate(180)"/><path class="cls-56" d="M508.48,196.07h0a7.13,7.13,0,0,0-9.59,1l-24.08,28.5L441,220l.63-2.54-9.28-2-.75,3-9.82-2.32s-9.06-9.15-9.79-6.78c-.27.89-1.38,5.74.07,9.27,1.25,3,7.76,8.86,7.76,8.86l9.13,1.73-.69,2.79,9.28,2,.37-1.5L476.59,239a7,7,0,0,0,7.32-3.51l25.65-30.35A6.2,6.2,0,0,0,508.48,196.07Z"/><path class="cls-9" d="M467.74,218.87h0a.24.24,0,0,1,.24.24v4.82a0,0,0,0,1,0,0h-.48a0,0,0,0,1,0,0v-4.82A.24.24,0,0,1,467.74,218.87Z" transform="translate(935.47 442.81) rotate(180)"/><rect id="_Rectangle_40" data-name="&lt;Rectangle&gt;" class="cls-46" x="485.44" y="189.25" width="13.83" height="56.09" rx="6.91" ry="6.91" transform="translate(251.5 -263.98) rotate(39.6)"/><path class="cls-57" d="M477.3,164.52a0,0,0,0,1,0,0v6.52h-7.87v-6.56Z"/><polygon class="cls-57" points="480.98 164.52 488.86 164.52 488.86 171.08 480.98 171.08 480.98 165.99 477.35 165.99 477.35 164.66 480.98 164.66 480.98 164.52"/><g class="cls-58"><polygon class="cls-6" points="477.36 168.84 472.76 164.24 473.96 164.24 477.36 167.64 477.36 168.84"/><polygon class="cls-6" points="469.48 164.97 469.48 164.43 471.82 164.43 477.36 169.97 477.36 170.99 475.51 170.99 469.48 164.97"/></g><g class="cls-58"><polygon class="cls-6" points="488.87 169.2 484.27 164.6 485.46 164.6 488.87 168 488.87 169.2"/><polygon class="cls-6" points="480.99 165.33 480.99 164.79 483.33 164.79 488.87 170.33 488.87 171.36 487.02 171.36 480.99 165.33"/></g><path class="cls-54" d="M468.62,164.41v6.78a.64.64,0,0,0,.64.64h8.35a.64.64,0,0,0,.64-.64V166.9a2.93,2.93,0,0,1,1.87,0v3.36a1.55,1.55,0,0,0,1.55,1.55h6.51a1.55,1.55,0,0,0,1.55-1.55v-4.94a1.55,1.55,0,0,0-1.55-1.55H469.25A.64.64,0,0,0,468.62,164.41Zm1.1.46h18.46a.46.46,0,0,1,.46.46v4.94a.46.46,0,0,1-.46.46h-6.51a.46.46,0,0,1-.46-.46v-4a.54.54,0,0,0-.52-.54h-3.06a.54.54,0,0,0-.49.53v4.51h-7.43Z"/><ellipse class="cls-5" cx="481.67" cy="181.66" rx="5.07" ry="3.75"/><path id="_Rectangle_41" data-name="&lt;Rectangle&gt;" class="cls-46" d="M451.85,142.7h0a6.91,6.91,0,0,1,6.91,6.91v44.28a4.89,4.89,0,0,1-4.89,4.89h-4a4.89,4.89,0,0,1-4.89-4.89V149.61A6.91,6.91,0,0,1,451.85,142.7Z" transform="translate(471.33 653.38) rotate(-113.01)"/><path id="_Path_185" data-name="&lt;Path&gt;" class="cls-8" d="M473.6,156l11-4.39s9,1.65,11.8,3.69c3.31,2.37,5.22,7.35,5.51,8.29.78,2.53-12.3-.7-12.3-.7l-11.15,3.84Z"/><rect id="_Rectangle_42" data-name="&lt;Rectangle&gt;" class="cls-6" x="464.26" y="157.65" width="18.3" height="9.66" transform="translate(483.16 662.9) rotate(-110.06)"/><path class="cls-45" d="M428.89,230.59H413.05a2.43,2.43,0,0,1-2.32-3.13l5.35-17.71h9.79l5.34,17.7A2.43,2.43,0,0,1,428.89,230.59Z"/><rect class="cls-36" x="420.37" y="187.51" width="1.85" height="40.97" transform="translate(75.75 -110.36) rotate(16.38)"/><line class="cls-59" x1="426.27" y1="188.46" x2="427.09" y2="188.7"/><line class="cls-59" x1="426.05" y1="189.22" x2="426.45" y2="189.34"/><line class="cls-60" x1="425.84" y1="189.93" x2="426.65" y2="190.17"/><line class="cls-60" x1="425.61" y1="190.69" x2="426.02" y2="190.81"/><line class="cls-60" x1="425.4" y1="191.41" x2="426.22" y2="191.65"/><line class="cls-60" x1="425.18" y1="192.16" x2="425.59" y2="192.28"/><line class="cls-60" x1="424.97" y1="192.88" x2="425.79" y2="193.12"/><line class="cls-60" x1="424.75" y1="193.63" x2="425.16" y2="193.75"/><line class="cls-60" x1="424.54" y1="194.35" x2="425.35" y2="194.59"/><line class="cls-60" x1="424.32" y1="195.11" x2="424.72" y2="195.23"/><line class="cls-60" x1="424.1" y1="195.82" x2="424.92" y2="196.06"/><line class="cls-60" x1="423.88" y1="196.58" x2="424.29" y2="196.7"/><line class="cls-60" x1="423.67" y1="197.3" x2="424.49" y2="197.54"/><line class="cls-60" x1="423.45" y1="198.05" x2="423.86" y2="198.17"/><line class="cls-60" x1="423.24" y1="198.77" x2="424.06" y2="199.01"/><line class="cls-60" x1="423.02" y1="199.52" x2="423.43" y2="199.64"/><line class="cls-60" x1="422.81" y1="200.24" x2="423.62" y2="200.48"/><line class="cls-60" x1="422.58" y1="201" x2="422.99" y2="201.12"/><line class="cls-60" x1="422.37" y1="201.71" x2="423.19" y2="201.95"/><line class="cls-60" x1="422.15" y1="202.47" x2="422.56" y2="202.59"/><line class="cls-60" x1="421.94" y1="203.19" x2="422.76" y2="203.43"/><line class="cls-60" x1="421.72" y1="203.94" x2="422.13" y2="204.06"/><line class="cls-60" x1="421.51" y1="204.66" x2="422.33" y2="204.9"/><line class="cls-60" x1="421.29" y1="205.41" x2="421.69" y2="205.53"/><line class="cls-60" x1="421.08" y1="206.13" x2="421.89" y2="206.37"/><line class="cls-60" x1="420.85" y1="206.89" x2="421.26" y2="207.01"/><line class="cls-60" x1="420.64" y1="207.6" x2="421.46" y2="207.84"/><line class="cls-60" x1="420.42" y1="208.36" x2="420.83" y2="208.48"/><line class="cls-60" x1="420.21" y1="209.07" x2="421.03" y2="209.32"/><line class="cls-60" x1="419.99" y1="209.83" x2="420.4" y2="209.95"/><line class="cls-60" x1="419.78" y1="210.55" x2="420.59" y2="210.79"/><line class="cls-60" x1="419.55" y1="211.3" x2="419.96" y2="211.42"/><line class="cls-60" x1="419.34" y1="212.02" x2="420.16" y2="212.26"/><line class="cls-60" x1="419.12" y1="212.78" x2="419.53" y2="212.9"/><line class="cls-60" x1="418.91" y1="213.49" x2="419.73" y2="213.73"/><line class="cls-60" x1="418.69" y1="214.25" x2="419.1" y2="214.37"/><line class="cls-60" x1="418.48" y1="214.96" x2="419.3" y2="215.2"/><line class="cls-60" x1="418.26" y1="215.72" x2="418.67" y2="215.84"/><line class="cls-60" x1="418.05" y1="216.44" x2="418.86" y2="216.68"/><line class="cls-60" x1="417.82" y1="217.19" x2="418.23" y2="217.31"/><line class="cls-60" x1="417.61" y1="217.91" x2="418.43" y2="218.15"/><line class="cls-60" x1="417.39" y1="218.67" x2="417.8" y2="218.79"/><line class="cls-60" x1="417.18" y1="219.38" x2="418" y2="219.62"/><line class="cls-60" x1="416.96" y1="220.14" x2="417.37" y2="220.26"/><line class="cls-60" x1="416.75" y1="220.85" x2="417.56" y2="221.09"/><line class="cls-60" x1="416.53" y1="221.61" x2="416.93" y2="221.73"/><line class="cls-60" x1="416.32" y1="222.33" x2="417.13" y2="222.57"/><line class="cls-60" x1="416.09" y1="223.08" x2="416.5" y2="223.2"/><line class="cls-60" x1="415.88" y1="223.8" x2="416.7" y2="224.04"/><line class="cls-60" x1="415.66" y1="224.56" x2="416.07" y2="224.68"/><line class="cls-60" x1="415.45" y1="225.27" x2="416.27" y2="225.51"/><rect class="cls-6" x="417.37" y="199.6" width="7.52" height="5.82"/><rect class="cls-36" x="417.37" y="203.94" width="7.52" height="9.91"/><rect class="cls-61" x="425.69" y="188.77" width="2.17" height="1.01" rx="0.18" ry="0.18" transform="translate(70.69 -112.66) rotate(16.38)"/><path class="cls-36" d="M427.39,229H414.55a2,2,0,0,1-1.88-2.54l4.74-14.67h7.47l4.39,14.65A2,2,0,0,1,427.39,229Z"/><circle class="cls-62" cx="416.52" cy="194.58" r="1.49"/><circle class="cls-62" cx="421.34" cy="165.68" r="1.84"/><circle class="cls-62" cx="419.49" cy="175.99" r="2.5"/><circle class="cls-62" cx="420.08" cy="186.53" r="1.47"/><circle class="cls-62" cx="416.24" cy="170.39" r="1.47"/><circle class="cls-62" cx="417.22" cy="181.16" r="1.04"/><circle class="cls-62" cx="422.81" cy="179.23" r="0.67"/><circle class="cls-62" cx="420.71" cy="191.42" r="0.63"/><circle class="cls-55" cx="428.56" cy="183.57" r="5.77"/><path class="cls-63" d="M430.95,179.66a5.77,5.77,0,0,1,1.92,6.11"/><path class="cls-63" d="M428.95,178.62a5.78,5.78,0,0,1,1.28.55"/><line class="cls-64" x1="441.25" y1="185.79" x2="436.99" y2="184.65"/><line class="cls-64" x1="441.62" y1="192.59" x2="437.3" y2="190.1"/><line class="cls-64" x1="435.58" y1="195.45" x2="432.55" y2="191.49"/><circle class="cls-6" cx="415.58" cy="198.53" r="1.95"/><circle class="cls-6" cx="426.02" cy="198.72" r="1.84"/><circle class="cls-6" cx="420.16" cy="199.94" r="1.44" transform="matrix(0.99, -0.13, 0.13, 0.99, -23.11, 58.43)"/><circle class="cls-6" cx="418.48" cy="199.27" r="1.44" transform="translate(-23.03 58.2) rotate(-7.74)"/><circle class="cls-6" cx="416.93" cy="198.77" r="1.44" transform="translate(-22.98 57.99) rotate(-7.74)"/><circle class="cls-6" cx="422.47" cy="199.97" r="1.44" transform="matrix(0.99, -0.13, 0.13, 0.99, -23.09, 58.74)"/><circle class="cls-6" cx="420.1" cy="199.52" r="1.44" transform="translate(-23.05 58.42) rotate(-7.74)"/><circle class="cls-6" cx="418.26" cy="199.01" r="1.44" transform="translate(-23 58.17) rotate(-7.74)"/><circle class="cls-6" cx="417" cy="198.76" r="1.44" transform="translate(-22.98 57.99) rotate(-7.74)"/><circle class="cls-6" cx="419.44" cy="198.11" r="1.44" transform="translate(-22.87 58.32) rotate(-7.74)"/><circle class="cls-6" cx="420.35" cy="198.55" r="1.44" transform="translate(-22.92 58.44) rotate(-7.74)"/><circle class="cls-6" cx="417.37" cy="197.42" r="1.44" transform="translate(-22.79 58.03) rotate(-7.74)"/><circle class="cls-6" cx="422.15" cy="198.55" r="1.44" transform="translate(-22.9 58.69) rotate(-7.74)"/><circle class="cls-6" cx="424.52" cy="199.27" r="1.44" transform="translate(-22.98 59.01) rotate(-7.74)"/><circle class="cls-6" cx="426.08" cy="199.06" r="1.44" transform="translate(-22.93 59.22) rotate(-7.74)"/><circle class="cls-6" cx="426.56" cy="198.17" r="1.44" transform="translate(-22.81 59.28) rotate(-7.74)"/><circle class="cls-6" cx="423.97" cy="197.08" r="1.44" transform="translate(-22.69 58.92) rotate(-7.74)"/><circle class="cls-6" cx="421.72" cy="196.7" r="1.44" transform="translate(-22.66 58.61) rotate(-7.74)"/><circle class="cls-6" cx="418.91" cy="196.89" r="1.44" transform="translate(-22.71 58.23) rotate(-7.74)"/><circle class="cls-6" cx="417.71" cy="197.93" r="1.44" transform="translate(-22.86 58.08) rotate(-7.74)"/><circle class="cls-6" cx="416.45" cy="198.83" r="1.44" transform="translate(-22.99 57.92) rotate(-7.74)"/><path id="_Rectangle_43" data-name="&lt;Rectangle&gt;" class="cls-46" d="M457.72,202.22h0a6.91,6.91,0,0,1,6.91,6.91v44.28a4.89,4.89,0,0,1-4.89,4.89h-4a4.89,4.89,0,0,1-4.89-4.89V209.14a6.91,6.91,0,0,1,6.91-6.91Z" transform="translate(772.15 -174.3) rotate(101.15)"/><path id="_Path_186" data-name="&lt;Path&gt;" class="cls-8" d="M431.46,230.24l-11.6-2.57s-6.48-6.39-7.69-9.68c-1.41-3.82-.19-9,.1-10,.78-2.53,9.79,7.48,9.79,7.48l11.38,3.08Z"/><rect id="_Rectangle_44" data-name="&lt;Rectangle&gt;" class="cls-6" x="426.09" y="220.17" width="18.3" height="9.66" transform="translate(759.5 -142.3) rotate(104.1)"/></svg>