<svg id="Layer_1" data-name="Layer 1" xmlns="http://www.w3.org/2000/svg" viewBox="0 0 708.66 481.89"><defs><style>.cls-1,.cls-36{fill:#fec82b;}.cls-1{opacity:0.21;}.cls-2{fill:#141414;opacity:0.11;}.cls-3,.cls-4{fill:#a6c1e2;}.cls-4{opacity:0.89;}.cls-32,.cls-5{fill:#fff;}.cls-11,.cls-5,.cls-6,.cls-9{fill-rule:evenodd;}.cls-6{fill:#49a579;}.cls-7{fill:#212121;}.cls-38,.cls-41,.cls-7{opacity:0.07;}.cls-8{fill:#54402b;}.cls-15,.cls-9{fill:#f8ab8d;}.cls-10{fill:#8b6339;}.cls-11,.cls-14{fill:#dc846a;}.cls-12{fill:#6c4e38;}.cls-13{fill:#ffdd6c;}.cls-16{fill:#876785;}.cls-17{fill:#ee4256;}.cls-18{fill:#648ec9;}.cls-19{fill:#e7685d;}.cls-20{fill:#fdd8b8;}.cls-21{fill:#a582a2;}.cls-22{fill:none;stroke:#dc846a;stroke-linecap:round;stroke-linejoin:round;stroke-width:3.11px;}.cls-23{fill:#f9d56e;}.cls-24{fill:#9b7c9a;}.cls-25{fill:#8e8e8e;}.cls-26{fill:#618abc;}.cls-27{fill:#d84166;}.cls-28{fill:#eda08e;}.cls-29{fill:#979797;}.cls-30{fill:#e03f5e;}.cls-31{fill:#a5a4a4;}.cls-33{opacity:0.09;}.cls-34,.cls-38{fill:#191919;}.cls-35{fill:#ced8dc;}.cls-37{fill:#676868;}.cls-39{fill:#577daa;}.cls-40{fill:#f2b92a;}.cls-41{fill:#111;}.cls-42{fill:#91b985;}.cls-43{fill:#3d233e;}.cls-44{fill:#f2f2f2;}</style></defs><title>CS-L2-U6</title><circle class="cls-1" cx="356.99" cy="227.99" r="175.66"/><path class="cls-2" d="M461.17,331.13H385.3V295.58h56.95a3.72,3.72,0,1,0,0-7.44H385.3v-76.7a3.72,3.72,0,0,0-3.72-3.72h-7.44a3.72,3.72,0,0,0-3.72,3.72V341.9a5.94,5.94,0,0,0,5.12,4.11h37.69v99.85c-18.63.51-33.18,4.85-33.18,10.12h73.8c0-5.27-14.55-9.61-33.18-10.12V346h40.5a3.72,3.72,0,0,0,3.72-3.72v-7.44A3.72,3.72,0,0,0,461.17,331.13Z"/><circle class="cls-3" cx="362.27" cy="68.05" r="47.53"/><circle class="cls-4" cx="402.24" cy="121.43" r="5.77"/><circle class="cls-2" cx="312.62" cy="37.28" r="22.54"/><path class="cls-5" d="M315.61,17.18a22.54,22.54,0,1,1-22.54,22.54,22.55,22.55,0,0,1,22.54-22.54Z"/><path class="cls-6" d="M315,49.55l2-2a1.32,1.32,0,0,0,.19-.24l13.36-13.36a1.43,1.43,0,0,0,0-2l-2-2a1.43,1.43,0,0,0-2,0L314,42.47l-6.38-6.35a1.43,1.43,0,0,0-2,0l-2,2a1.43,1.43,0,0,0,0,2l7.2,7.17a1.31,1.31,0,0,0,.17.21l2,2a1.42,1.42,0,0,0,1,.42h0a1.42,1.42,0,0,0,1-.42Z"/><path class="cls-7" d="M383.33,66.86a57.36,57.36,0,0,0,1.31-11.44c0-12.29-5.55-12.16-6.45-12.05-4.68-9.26-12.9-10.52-21.85-9-12.43,2.1-25.55,11-20.89,33.13a4.4,4.4,0,0,0,0,3.7c.78,2.08,1.9,6.09,3.27,8.07a2.4,2.4,0,1,0,3.62,3.14c3.94,10.47,11.84,17.89,24.53,17.21C381.19,96.46,384.1,77,383.38,67.36,383.37,67.19,383.35,67,383.33,66.86Z"/><path id="_Path_" data-name="&lt;Path&gt;" class="cls-8" d="M381.08,44.4s6.58-1.34,6.58,12a58.43,58.43,0,0,1-1.7,13.12L376,58l-10.33-4.62,12.91-4.66Z"/><path id="_Path_2" data-name="&lt;Path&gt;" class="cls-9" d="M369.85,100.63c-15.75.85-24.12-10.79-26.7-25.25-2.71-15.23,7.48-27.82,19.83-27.86,14,0,22.25,5.43,23.4,20.86.72,9.69-2.19,29.1-16.54,32.25Z"/><g id="_Group_" data-name="&lt;Group&gt;"><line id="_Path_3" data-name="&lt;Path&gt;" class="cls-10" x1="383.68" y1="69.34" x2="377.75" y2="69.04"/><path id="_Path_4" data-name="&lt;Path&gt;" class="cls-10" d="M383.82,70.32a1,1,0,0,0-.09-2L377.8,68a1,1,0,0,0-.1,2l5.93.3Z"/></g><g id="_Group_2" data-name="&lt;Group&gt;"><line id="_Path_5" data-name="&lt;Path&gt;" class="cls-10" x1="368.19" y1="69.04" x2="362.27" y2="69.34"/><path id="_Path_6" data-name="&lt;Path&gt;" class="cls-10" d="M368.33,68.06a1,1,0,0,1-.09,2l-5.93.3a1,1,0,1,1-.1-2l5.93-.3Z"/></g><circle id="_Path_7" data-name="&lt;Path&gt;" cx="365.97" cy="75.43" r="1.34"/><circle id="_Path_8" data-name="&lt;Path&gt;" cx="380.26" cy="75.89" r="1.34"/><polygon id="_Path_9" data-name="&lt;Path&gt;" class="cls-11" points="373.23 73.53 373.05 85.15 375.55 84.59 373.23 73.53"/><path id="_Path_10" data-name="&lt;Path&gt;" class="cls-12" d="M345.85,77.12s6.93,1.29,6-6.11c-3.15-20.13,22.07-8.34,29.47-26.42-4.66-9.45-12.94-10.73-22-9.21C346,37.62,331.9,47.64,339.74,73.48,340.33,75.4,344,75.65,345.85,77.12Z"/><g id="_Group_3" data-name="&lt;Group&gt;"><path id="_Path_11" data-name="&lt;Path&gt;" class="cls-9" d="M348,70.67a7.46,7.46,0,0,0-2.6-2.71c-4-2.79-8.71-.53-6.93,4.25,1.25,3.34,3.38,11.59,6,8.62A15.85,15.85,0,0,0,348,70.67Z"/><polygon id="_Path_12" data-name="&lt;Path&gt;" class="cls-11" points="344.86 71.15 339.58 70.26 343.56 77.51 342.22 71.54 344.86 71.15"/></g><circle id="_Path_13" data-name="&lt;Path&gt;" class="cls-13" cx="343.5" cy="81.87" r="2.41"/><path class="cls-2" d="M373.84,179.29c-.62-.91-4.25-5.55-8.52-7-3.68-1.23-13.69-.07-13.69-.07l-4.92,4.15v.06l-.1,0L323,189.71l-.41-.86-14.5,7.06-14.17-21c-1.24-5.31-6.86-9.32-13.65-9.4H267v-5a27.25,27.25,0,0,0,5.39.23c14.35-3.15,17.26-22.56,16.54-32.25,0-.17,0-.34,0-.5a57.36,57.36,0,0,0,1.31-11.44c0-12.29-5.55-12.16-6.45-12.05-4.68-9.26-12.9-10.52-21.85-9A30.57,30.57,0,0,0,250.08,100a6.69,6.69,0,0,0-3-2.66c-4.08-1.79-9.25,1-11.54,6.23s-.83,10.92,3.26,12.7a6.39,6.39,0,0,0,1.45.43,38.32,38.32,0,0,0,.79,11.9,4.4,4.4,0,0,0,0,3.7c.78,2.08,1.9,6.09,3.27,8.07a2.4,2.4,0,1,0,3.62,3.14,28.21,28.21,0,0,0,8.92,12.74v9.21h-16.2a16,16,0,0,0-8.69,2.47h0a7.58,7.58,0,0,0-5.3,8.11,9.66,9.66,0,0,0-.06,1s4.23,29.43,4.23,39.24c0,11.15-3.41,42.32-4.1,48.59h-.12v86.61h6.59v90h2.45v4.18a1.42,1.42,0,0,0-1.29,1.41v9.43a2.82,2.82,0,0,0,2.82,2.82h42a1.42,1.42,0,0,0,1.42-1.42v-1.69h33.67a1.42,1.42,0,0,0,1.42-1.42v-2.41a3.72,3.72,0,0,0-2.78-3.6l-24.62-6.41a7.08,7.08,0,0,0-2.08-.21v-3.79h2.29V351.54h5.74V264.93h-.09l-2.66-32.27h1.17a1.4,1.4,0,0,0,1.38-1.41v-.67l7,.49a2.69,2.69,0,0,0,1.5-.33l2-.46a55.81,55.81,0,0,1,4.53,4.4c2.81-1.19,2.9-3.9,2.49-6h0s13.57,6.18,13.24,3.27c-.12-1.09-1.18-6.89-4.3-10.15-2.68-2.8-12.09-6.42-12.09-6.42l-12.77,3.07-1.77-.12v-1a1.4,1.4,0,0,0-1.41-1.38l-2,0L292,199.27l7.13,10.57a7.54,7.54,0,0,0,4.57,3.14,5.45,5.45,0,0,0,4.2-.14L329,202.52l-.83-1.76,22.37-12.52c5.91-1.39,5.93-1.58,11-1.87a4.06,4.06,0,0,0-.83-3.84C361.89,182.47,375.41,181.6,373.84,179.29Zm-103,259.12v4.17a1.42,1.42,0,0,0-1.43,1.42v5.76l-16.25-4.23a7.06,7.06,0,0,0-2.22-.2v-3.8h2v-90h15.74v86.87Z"/><path id="_Path_14" data-name="&lt;Path&gt;" class="cls-14" d="M351.68,188.54c7.2-1.65,6.87-1.86,12.24-2.16,1.32-5.08-5.85-6.54-5.85-6.54Z"/><rect id="_Rectangle_" data-name="&lt;Rectangle&gt;" class="cls-15" x="330.83" y="166.87" width="12.19" height="46.72" rx="6.09" ry="6.09" transform="translate(338.35 -196.68) rotate(60.76)"/><path id="_Path_15" data-name="&lt;Path&gt;" class="cls-16" d="M331.41,202.52,325,188.85l-21.15,10.3c-3.06,1.46-4.09,5.7-2.29,9.48h0c1.8,3.78,5.74,5.66,8.8,4.2Z"/><path id="_Path_16" data-name="&lt;Path&gt;" class="cls-15" d="M349.11,176.37l4.92-4.15s10-1.17,13.69.07c4.28,1.44,7.91,6.08,8.52,7,1.65,2.43-13.25,3.26-13.25,3.26l-14,7.89Z"/><path id="_Path_17" data-name="&lt;Path&gt;" class="cls-17" d="M235.1,269l56.45.46-.34,18.12a9.7,9.7,0,0,1-9.77,9.62l-37.05-.3a9.7,9.7,0,0,1-9.62-9.77Z"/><path id="_Path_18" data-name="&lt;Path&gt;" class="cls-18" d="M280.86,383h0a7.66,7.66,0,0,1,7.66,7.66V445a7.66,7.66,0,0,1-7.66,7.66h0A7.66,7.66,0,0,1,273.2,445V390.66A7.66,7.66,0,0,1,280.86,383Z"/><path id="_Rectangle_2" data-name="&lt;Rectangle&gt;" class="cls-19" d="M271,265.09h19.79a0,0,0,0,1,0,0V431.41a7,7,0,0,1-7,7H278a7,7,0,0,1-7-7V265.09A0,0,0,0,1,271,265.09Z" transform="translate(561.86 703.5) rotate(180)"/><path id="_Path_19" data-name="&lt;Path&gt;" class="cls-20" d="M271.77,444v9.36H318v-.94a3.72,3.72,0,0,0-2.78-3.6l-24.62-6.41a6.87,6.87,0,0,0-3.45,0c-6.57,1.71-11.2.95-13.57.24A1.42,1.42,0,0,0,271.77,444Z"/><path id="_Path_20" data-name="&lt;Path&gt;" class="cls-19" d="M271.77,453.36v.07a2.82,2.82,0,0,0,2.82,2.82h42a1.42,1.42,0,0,0,1.42-1.42v-1.48Z"/><path id="_Path_21" data-name="&lt;Path&gt;" class="cls-14" d="M302.28,226.29s6.72,5.55,9.17,8.39c4.84-2,1.63-8.63,1.63-8.63Z"/><rect id="_Rectangle_3" data-name="&lt;Rectangle&gt;" class="cls-16" x="289.76" y="163.6" width="15.16" height="52.79" rx="7.58" ry="7.58" transform="translate(650.09 181.27) rotate(146)"/><path id="_Path_22" data-name="&lt;Path&gt;" class="cls-21" d="M243,165.51h39.45c7.78,0,14.09,5.19,14.09,11.6l-3.93,41.33,3.93,47.6H228.93s4.23-37.27,4.23-49.7c0-9.81-4.23-39.24-4.23-39.24C228.93,170.7,235.23,165.51,243,165.51Z"/><path id="_Path_23" data-name="&lt;Path&gt;" class="cls-17" d="M283,168.61c0,8.75-8.38,15.86-18.69,15.86s-18.68-7.11-18.68-15.86a13.62,13.62,0,0,1,.36-3.1h36.65A13.62,13.62,0,0,1,283,168.61Z"/><path id="_Path_24" data-name="&lt;Path&gt;" class="cls-15" d="M248.58,168.61c0,7.14,7.05,12.92,15.75,12.92s15.75-5.79,15.75-12.92a10.62,10.62,0,0,0-.46-3.1H249A10.62,10.62,0,0,0,248.58,168.61Z"/><rect id="_Rectangle_4" data-name="&lt;Rectangle&gt;" class="cls-15" x="259.22" y="148.41" width="10.22" height="24.79" rx="3.61" ry="3.61" transform="translate(528.66 321.62) rotate(180)"/><path id="_Path_25" data-name="&lt;Path&gt;" class="cls-8" d="M286.05,104.54s6.58-1.34,6.58,12a58.43,58.43,0,0,1-1.7,13.12l-10-11.58-10.33-4.62,12.91-4.66Z"/><path id="_Path_26" data-name="&lt;Path&gt;" class="cls-9" d="M274.83,160.77c-15.75.85-24.12-10.79-26.7-25.25-2.71-15.23,7.48-27.82,19.83-27.86,14,0,22.25,5.43,23.4,20.86.72,9.69-2.19,29.1-16.54,32.25Z"/><g id="_Group_4" data-name="&lt;Group&gt;"><line id="_Path_27" data-name="&lt;Path&gt;" class="cls-10" x1="288.59" y1="129.97" x2="282.8" y2="128.68"/><path id="_Path_28" data-name="&lt;Path&gt;" class="cls-10" d="M288.56,131a1,1,0,0,0,.24-2L283,127.71a1,1,0,0,0-.43,1.93l5.79,1.29Z"/></g><g id="_Group_5" data-name="&lt;Group&gt;"><line id="_Path_29" data-name="&lt;Path&gt;" class="cls-10" x1="273.1" y1="128.68" x2="267.31" y2="129.98"/><path id="_Path_30" data-name="&lt;Path&gt;" class="cls-10" d="M273.08,127.69a1,1,0,0,1,.25,2l-5.79,1.3a1,1,0,1,1-.43-1.93l5.79-1.3Z"/></g><circle id="_Path_31" data-name="&lt;Path&gt;" cx="270.95" cy="135.57" r="1.34"/><circle id="_Path_32" data-name="&lt;Path&gt;" cx="285.23" cy="136.03" r="1.34"/><polygon id="_Path_33" data-name="&lt;Path&gt;" class="cls-11" points="278.21 133.67 278.03 145.29 280.53 144.73 278.21 133.67"/><ellipse id="_Path_34" data-name="&lt;Path&gt;" class="cls-8" cx="245.34" cy="106.84" rx="10.33" ry="8.07" transform="translate(49.14 288.81) rotate(-66.38)"/><path id="_Path_35" data-name="&lt;Path&gt;" class="cls-12" d="M250.83,137.26s6.93,1.29,6-6.11c3.76-.59,22.07-8.34,29.47-26.42-4.66-9.45-12.94-10.73-22-9.21-13.32,2.25-27.45,12.27-19.61,38.1C245.3,135.54,248.95,135.79,250.83,137.26Z"/><g id="_Group_6" data-name="&lt;Group&gt;"><path id="_Path_36" data-name="&lt;Path&gt;" class="cls-9" d="M252.94,130.81a7.46,7.46,0,0,0-2.6-2.71c-4-2.79-8.71-.53-6.93,4.25,1.25,3.34,3.38,11.59,6,8.62A15.85,15.85,0,0,0,252.94,130.81Z"/><polygon id="_Path_37" data-name="&lt;Path&gt;" class="cls-11" points="249.84 131.29 244.56 130.4 248.54 137.65 247.2 131.68 249.84 131.29"/></g><circle id="_Path_38" data-name="&lt;Path&gt;" class="cls-17" cx="248.48" cy="142.01" r="2.41"/><rect id="_Rectangle_5" data-name="&lt;Rectangle&gt;" class="cls-16" x="235.96" y="166.6" width="15.16" height="63.15" rx="7.58" ry="7.58" transform="translate(534.43 316.35) rotate(162.97)"/><path id="_Path_39" data-name="&lt;Path&gt;" class="cls-18" d="M245.63,386.11h0a7.66,7.66,0,0,1,7.66,7.66v54.31a7.66,7.66,0,0,1-7.66,7.66h0a7.66,7.66,0,0,1-7.66-7.66V393.78A7.66,7.66,0,0,1,245.63,386.11Z"/><path id="_Rectangle_6" data-name="&lt;Rectangle&gt;" class="cls-19" d="M242.52,268.21h5.79a7,7,0,0,1,7,7V441.53a0,0,0,0,1,0,0H235.52a0,0,0,0,1,0,0V275.21A7,7,0,0,1,242.52,268.21Z"/><path id="_Path_40" data-name="&lt;Path&gt;" class="cls-20" d="M236.68,447.12v9.36h46.25v-.94a3.72,3.72,0,0,0-2.78-3.6l-24.62-6.41a6.87,6.87,0,0,0-3.45,0c-6.57,1.71-11.2.95-13.57.24A1.42,1.42,0,0,0,236.68,447.12Z"/><path id="_Path_41" data-name="&lt;Path&gt;" class="cls-19" d="M236.68,456.47v.07a2.82,2.82,0,0,0,2.82,2.82h42a1.42,1.42,0,0,0,1.42-1.42v-1.48Z"/><rect class="cls-18" x="228.93" y="264.93" width="67.63" height="86.61" transform="translate(525.49 616.48) rotate(180)"/><line class="cls-22" x1="270.61" y1="149.41" x2="281.03" y2="150.71"/><circle id="_Path_42" data-name="&lt;Path&gt;" class="cls-13" cx="389.21" cy="188.92" r="2.41"/><path class="cls-2" d="M516.81,450.89l-24.62-6.41a7.06,7.06,0,0,0-2.22-.2v-3.8h2V311.88a4.21,4.21,0,0,0-4.21-4.21H483.4a14.94,14.94,0,0,0-1-5.68c-1.5-3.57-9-10.31-9-10.31l-12.19-1.58-20-9.32.47-1.08-18.75-7.83-5-15.42V244l25.6,9.26a7.58,7.58,0,0,0,9.7-4.55c.08-.22.14-.44.2-.66l11.69-15.78-1.39-1.06,17-21.06.28.06.42-1a6,6,0,0,0,.69-1.68l3-7.3s12.84-7.59,10.26-9c-1-.52-6.33-3-10.78-2.29-3.83.59-12.18,6.23-12.18,6.23L468,206.65l-13.89,17.2-.93-.71-10.27,13.8-24.93-9v-6.1a11.18,11.18,0,0,0-10.19-11.13v-3.24a27.25,27.25,0,0,0,5.39.23c14.35-3.15,17.26-22.56,16.54-32.25,0-.17,0-.34,0-.5A57.36,57.36,0,0,0,431,163.49c0-1.12,0-2.13-.13-3.05.64-1.13,1.86-2,4.11-1.88l-4.51-.79c-1.41-6.51-5.19-6.41-5.92-6.33a16.24,16.24,0,0,0-8.69-8.31c-.61-2.42.25-5.13,4.22-7.81l-13.14,6.62a38.62,38.62,0,0,0-4.24.49,30.88,30.88,0,0,0-11.36,4.2c-2.44-.53-4.5-2.5-5.13-7.27l0,11.64a21,21,0,0,0-2.83,4.21l-3.77-3.08a24,24,0,0,1,2.38,6.52,26.65,26.65,0,0,0-1.14,6.58c-1.2,1.44-3.29,2.42-6.77,2.51l6.76.69a43.54,43.54,0,0,0,.93,7.13,4.4,4.4,0,0,0,0,3.7c1.25,3.34,3.38,11.59,6,8.62l0,0c1.91,6.33,5.12,11.78,9.8,15.36v7.43h-.09a11.18,11.18,0,0,0-11.18,11.18v87.58h.58a.84.84,0,0,0-.84.84v10a10.84,10.84,0,0,0,10.84,10.84h66.46V442.22h2.45v4.18a1.42,1.42,0,0,0-1.29,1.41v9.43a2.82,2.82,0,0,0,2.82,2.82h42a1.42,1.42,0,0,0,1.42-1.42v-.32h7.44a1.42,1.42,0,0,0,1.42-1.42v-2.41A3.72,3.72,0,0,0,516.81,450.89ZM417.95,307.67V286.22l17.71,7.35.7-1.61,24.55,11.41v.28l1.1.16a6,6,0,0,0,1.8.26l7.81,1.14s1.06,1.07,2.52,2.44Z"/><path id="_Path_43" data-name="&lt;Path&gt;" class="cls-23" d="M484.7,385.06h0a7.66,7.66,0,0,1,7.66,7.66V447a7.66,7.66,0,0,1-7.66,7.66h0A7.66,7.66,0,0,1,477,447V392.73A7.66,7.66,0,0,1,484.7,385.06Z"/><path id="_Path_44" data-name="&lt;Path&gt;" class="cls-24" d="M475.74,446.07v9.36H522v-.94a3.72,3.72,0,0,0-2.78-3.6l-24.62-6.41a6.87,6.87,0,0,0-3.45,0c-6.57,1.71-11.2.95-13.57.24A1.42,1.42,0,0,0,475.74,446.07Z"/><path id="_Path_45" data-name="&lt;Path&gt;" class="cls-25" d="M475.74,455.43v.07a2.82,2.82,0,0,0,2.82,2.82h42A1.42,1.42,0,0,0,522,456.9v-1.48Z"/><path class="cls-26" d="M490.16,307.67h-92a.84.84,0,0,0-.84.84v10a10.84,10.84,0,0,0,10.84,10.84h66.46V440.48h19.79V311.88A4.21,4.21,0,0,0,490.16,307.67Z"/><rect id="_Rectangle_7" data-name="&lt;Rectangle&gt;" class="cls-27" x="403.88" y="221.97" width="15.16" height="63.15" rx="7.58" ry="7.58" transform="translate(880.77 369.01) rotate(162.18)"/><rect id="_Rectangle_8" data-name="&lt;Rectangle&gt;" class="cls-28" x="444.43" y="267.36" width="12.19" height="46.72" rx="6.09" ry="6.09" transform="translate(904.08 4.74) rotate(114.93)"/><path id="_Path_46" data-name="&lt;Path&gt;" class="cls-27" d="M438.06,293.56l6-13.87-21.7-9.06c-3.12-1.33-7,.7-8.63,4.55h0c-1.65,3.85-.45,8,2.67,9.38Z"/><path id="_Path_47" data-name="&lt;Path&gt;" class="cls-28" d="M462.81,290l13,1.69s7.49,6.74,9,10.31c1.75,4.16.66,10,.39,11-.73,2.84-11.2-7.78-11.2-7.78l-10.71-1.57Z"/><path id="_Path_48" data-name="&lt;Path&gt;" class="cls-13" d="M475.84,386.81h0a7.66,7.66,0,0,1,7.66,7.66v54.31a7.66,7.66,0,0,1-7.66,7.66h0a7.66,7.66,0,0,1-7.66-7.66V394.47A7.66,7.66,0,0,1,475.84,386.81Z"/><path id="_Path_49" data-name="&lt;Path&gt;" class="cls-21" d="M466.88,447.81v9.36h46.25v-.94a3.72,3.72,0,0,0-2.78-3.6l-24.62-6.41a6.87,6.87,0,0,0-3.45,0c-6.57,1.71-11.2.95-13.57.24A1.42,1.42,0,0,0,466.88,447.81Z"/><path id="_Path_50" data-name="&lt;Path&gt;" class="cls-29" d="M466.88,457.17v.07a2.82,2.82,0,0,0,2.82,2.82h42a1.42,1.42,0,0,0,1.42-1.42v-1.48Z"/><path class="cls-18" d="M481.3,309.41h-92a.84.84,0,0,0-.84.84v10a10.84,10.84,0,0,0,10.84,10.84h66.46V442.22h19.79V313.62A4.21,4.21,0,0,0,481.3,309.41Z"/><rect id="_Rectangle_9" data-name="&lt;Rectangle&gt;" class="cls-15" x="399.95" y="195.32" width="10.22" height="24.79" rx="3.61" ry="3.61" transform="translate(810.11 415.44) rotate(180)"/><path id="_Path_51" data-name="&lt;Path&gt;" class="cls-8" d="M426.78,151.45s6.58-1.34,6.58,12a58.43,58.43,0,0,1-1.7,13.12l-10-11.58-10.33-4.62,12.91-4.66Z"/><path id="_Path_52" data-name="&lt;Path&gt;" class="cls-9" d="M415.56,207.68c-15.75.85-24.12-10.79-26.7-25.25-2.71-15.23,7.48-27.82,19.83-27.86,14,0,22.25,5.43,23.4,20.86.72,9.69-2.19,29.1-16.54,32.25Z"/><g id="_Group_7" data-name="&lt;Group&gt;"><line id="_Path_53" data-name="&lt;Path&gt;" class="cls-10" x1="429.38" y1="176.39" x2="423.46" y2="176.09"/><path id="_Path_54" data-name="&lt;Path&gt;" class="cls-10" d="M429.52,177.37a1,1,0,0,0-.09-2l-5.93-.3a1,1,0,0,0-.1,2l5.93.3Z"/></g><g id="_Group_8" data-name="&lt;Group&gt;"><line id="_Path_55" data-name="&lt;Path&gt;" class="cls-10" x1="413.9" y1="176.09" x2="407.97" y2="176.39"/><path id="_Path_56" data-name="&lt;Path&gt;" class="cls-10" d="M414,175.11a1,1,0,0,1-.09,2l-5.93.3a1,1,0,1,1-.1-2l5.93-.3Z"/></g><circle id="_Path_57" data-name="&lt;Path&gt;" cx="411.68" cy="182.48" r="1.34"/><circle id="_Path_58" data-name="&lt;Path&gt;" cx="425.96" cy="182.94" r="1.34"/><polygon id="_Path_59" data-name="&lt;Path&gt;" class="cls-11" points="418.94 180.57 418.76 192.2 421.26 191.64 418.94 180.57"/><path id="_Path_60" data-name="&lt;Path&gt;" class="cls-12" d="M391.55,184.17s6.93,1.29,6-6.11c-3.15-20.13,22.07-8.34,29.47-26.42-4.66-9.45-12.94-10.73-22-9.21-13.32,2.25-27.45,12.27-19.61,38.1C386,182.45,389.68,182.7,391.55,184.17Z"/><g id="_Group_9" data-name="&lt;Group&gt;"><path id="_Path_61" data-name="&lt;Path&gt;" class="cls-9" d="M393.67,177.72a7.46,7.46,0,0,0-2.6-2.71c-4-2.79-8.71-.53-6.93,4.25,1.25,3.34,3.38,11.59,6,8.62A15.85,15.85,0,0,0,393.67,177.72Z"/><polygon id="_Path_62" data-name="&lt;Path&gt;" class="cls-11" points="390.57 178.2 385.28 177.31 389.27 184.56 387.93 178.59 390.57 178.2"/></g><path id="_Path_63" data-name="&lt;Path&gt;" class="cls-22" d="M411.37,198a13.56,13.56,0,0,0,5.55,1h0c2.43,0,5.33-2.54,6.54-1.86"/><path class="cls-17" d="M404.51,210.64h0a15.84,15.84,0,0,1,15.84,15.84V308a1.42,1.42,0,0,1-1.42,1.42H388.67a0,0,0,0,1,0,0V226.48a15.84,15.84,0,0,1,15.84-15.84Z"/><rect id="_Rectangle_10" data-name="&lt;Rectangle&gt;" class="cls-30" x="418.38" y="206.44" width="15.16" height="63.15" rx="7.58" ry="7.58" transform="translate(794.66 -81.61) rotate(109.88)"/><rect id="_Rectangle_11" data-name="&lt;Rectangle&gt;" class="cls-15" x="461.71" y="196.17" width="12.19" height="46.72" rx="6.09" ry="6.09" transform="translate(241.9 -245.23) rotate(38.94)"/><path id="_Path_64" data-name="&lt;Path&gt;" class="cls-30" d="M467.55,232.32l-12-9.18-14,18.87c-2,2.7-1,6.94,2.33,9.47h0c3.34,2.53,7.7,2.39,9.75-.32Z"/><path id="_Path_65" data-name="&lt;Path&gt;" class="cls-15" d="M470.07,207.43l4.79-12.23s8.35-5.64,12.18-6.23c4.46-.69,9.82,1.76,10.78,2.29,2.58,1.4-10.26,9-10.26,9l-4.11,10Z"/><path class="cls-8" d="M437.33,158.55c-6.47-.24-4.44,7.14-4.44,7.14l-8-9.31"/><path class="cls-12" d="M422.44,135.32c-11.74,7.93,3.75,16.13,3.75,16.13l-29-3.39"/><path class="cls-12" d="M388.58,139.35c1.85,14,16.11,3.86,16.11,3.86l-16,24.45"/><path class="cls-12" d="M376.49,167.73c14.17-.36,5.53-15.61,5.53-15.61l22.63,18.5"/><path class="cls-12" d="M391,162.74c14.17-.36,5.53-15.61,5.53-15.61l22.63,18.5"/><rect class="cls-31" x="372.23" y="207.72" width="14.87" height="137.89" rx="6.18" ry="6.18"/><rect class="cls-31" x="412.73" y="292.04" width="14.87" height="93.06" rx="6.18" ry="6.18" transform="translate(758.73 -81.6) rotate(90)"/><rect class="cls-31" x="415.04" y="341.65" width="7.44" height="108.69" rx="3.72" ry="3.72"/><path class="cls-29" d="M381.86,456c0-5.62,16.52-10.17,36.9-10.17s36.9,4.55,36.9,10.17"/><rect class="cls-31" x="408.17" y="255.97" width="7.44" height="71.77" rx="3.72" ry="3.72" transform="translate(703.75 -120.03) rotate(90)"/><path id="_Path_66" data-name="&lt;Path&gt;" class="cls-32" d="M372,93.53c3.38,0,6.35-1.83,6.35-3.92v-.49h-13v.49c0,1.9,2,3.92,5.67,3.92Z"/><g class="cls-33"><path class="cls-34" d="M348.91,209.71l.39-.15c.26-.11.27-.14.06-.35a3.2,3.2,0,0,0-3.74-.65c-4.33,2.35-8.68,4.66-13,7-.14.08-.33.12-.38.32l.31-.13Z"/><path class="cls-34" d="M332.22,215.88h0Z"/><path class="cls-34" d="M332.21,215.86s0,0,0,0Z"/><polygon class="cls-34" points="332.23 215.88 332.22 215.88 332.22 215.89 332.23 215.88"/><path class="cls-34" d="M350.12,210.65c-.12-.63-.12-.63-.72-.41l-24.85,9.16c-.11,0-.23.09-.34.13s-.19.15-.11.31c.3.55.6,1.1.88,1.66a1,1,0,0,0,.56.51c.65.29,1.3.59,1.95.89l0,.05c.66.31,1.33.6,2,.92a.71.71,0,0,0,.73,0L348.54,214A3.05,3.05,0,0,0,350.12,210.65Z"/><path class="cls-34" d="M326.63,223.25c-.16-.07-.27-.05-.28.15a1.11,1.11,0,0,0,0,.66q.5.92,1,1.84c.09.17.18.18.33.07l1.6-1.18c.21-.15.13-.24-.06-.32l-1.28-.59v0Z"/><path class="cls-34" d="M323.55,231.45l-.58-.61c-.22-.24-.22-.25.05-.4l2.3-1.24,2.12-1.14c.15-.08.26-.15.15-.36q-.86-1.58-1.71-3.18c-.09-.17-.19-.17-.33-.08l-.28.15c-2.85,1.53-5.71,3.06-8.55,4.61a.62.62,0,0,1-.86-.07,1.35,1.35,0,0,0-1.61-.17,1.51,1.51,0,0,0-1,1.46.83.83,0,0,1-.31.71,7.33,7.33,0,0,0-1.59,2.3c-.08.22-.23.57-.33.94a7.3,7.3,0,0,0,5.42,9.06,7.41,7.41,0,0,0,7.87-3.27A7.29,7.29,0,0,0,323.55,231.45Zm-7.12,8.38a3.91,3.91,0,1,1,5.21-1.9A3.91,3.91,0,0,1,316.43,239.83Z"/><path class="cls-34" d="M314.69,228.16c.23,0,.35-.11.35-.35a1,1,0,0,0,0-.31c-.14-.37.07-.52.37-.67,2-1,3.9-2.08,5.85-3.13l2.95-1.58c.15-.08.33-.14.2-.38-.57-1.06-1.14-2.12-1.7-3.18-.07-.13-.15-.18-.29-.1l-.32.17-4.14,2.22c-.32.17-.33.16-.41-.17s-.08-.37-.12-.56a7,7,0,0,0-5-5.38,7.36,7.36,0,0,0-8.81,4,5.93,5.93,0,0,0-.3.85,7.27,7.27,0,0,0,8.42,9.27.85.85,0,0,1,.86.16c.25.23.34.19.6-.07A2.51,2.51,0,0,1,314.69,228.16Zm-6.06-2.84a3.91,3.91,0,1,1,5.21-1.91A3.91,3.91,0,0,1,308.63,225.32Z"/></g><path class="cls-35" d="M331.55,214.67s0,0,0,0v0l.33-.14,16.37-6,.39-.15c.26-.11.27-.14.06-.35a3.2,3.2,0,0,0-3.74-.65c-4.33,2.35-8.68,4.66-13,7C331.78,214.43,331.59,214.46,331.55,214.67Z"/><path class="cls-35" d="M326.81,221.68l0,.05c.66.31,1.33.6,2,.92a.71.71,0,0,0,.73,0l18.35-9.86a3.05,3.05,0,0,0,1.59-3.34c-.12-.63-.12-.63-.72-.41l-24.85,9.16c-.11,0-.23.09-.34.13s-.19.15-.11.31c.3.55.6,1.1.88,1.66a1,1,0,0,0,.56.51C325.52,221.07,326.17,221.38,326.81,221.68Z"/><path class="cls-35" d="M327.27,222.66v0L326,222c-.16-.07-.27-.05-.28.15a1.11,1.11,0,0,0,0,.66q.5.92,1,1.84c.09.17.18.18.33.07l1.6-1.18c.21-.15.13-.24-.06-.32Z"/><path class="cls-36" d="M322.87,230.23l-.58-.61c-.22-.24-.22-.25.05-.4l2.3-1.24,2.12-1.14c.15-.08.26-.15.15-.36q-.86-1.58-1.71-3.18c-.09-.17-.19-.17-.33-.08l-.28.15c-2.85,1.53-5.71,3.06-8.55,4.61a.62.62,0,0,1-.86-.07,1.35,1.35,0,0,0-1.61-.17,1.51,1.51,0,0,0-1,1.46.83.83,0,0,1-.31.71,7.33,7.33,0,0,0-1.59,2.3c-.08.22-.23.57-.33.94a7.3,7.3,0,0,0,5.42,9.06,7.41,7.41,0,0,0,7.87-3.27A7.29,7.29,0,0,0,322.87,230.23Zm-7.12,8.38a3.91,3.91,0,1,1,5.21-1.9A3.91,3.91,0,0,1,315.75,238.62Z"/><path class="cls-36" d="M323.71,220.52c-.57-1.06-1.14-2.12-1.7-3.18-.07-.13-.15-.18-.29-.1l-.32.17-4.14,2.22c-.32.17-.33.16-.41-.17s-.08-.37-.12-.56a7,7,0,0,0-5-5.38,7.36,7.36,0,0,0-8.81,4,5.93,5.93,0,0,0-.3.85,7.27,7.27,0,0,0,8.42,9.27.85.85,0,0,1,.86.16c.25.23.34.19.6-.07a2.51,2.51,0,0,1,1.54-.82c.23,0,.35-.11.35-.35a1,1,0,0,0,0-.31c-.14-.37.07-.52.37-.67,2-1,3.9-2.08,5.85-3.13l2.95-1.58C323.66,220.82,323.84,220.77,323.71,220.52ZM308,224.1a3.91,3.91,0,1,1,5.21-1.91A3.91,3.91,0,0,1,308,224.1Z"/><path class="cls-37" d="M328.71,221.18a2.26,2.26,0,0,1-1.11-3,2.28,2.28,0,0,1,4.15,1.89A2.25,2.25,0,0,1,328.71,221.18Zm.3-.58a1.6,1.6,0,0,0,2.13-.82,1.62,1.62,0,0,0-.78-2.12,1.64,1.64,0,0,0-2.16.79A1.62,1.62,0,0,0,329,220.61Z"/><rect id="_Rectangle_12" data-name="&lt;Rectangle&gt;" class="cls-15" x="277.11" y="200.19" width="12.19" height="46.72" rx="4.5" ry="4.5" transform="translate(525.99 -43.34) rotate(94.01)"/><path id="_Path_67" data-name="&lt;Path&gt;" class="cls-16" d="M272.57,230.66l.66-15.1-23.51-.71c-3.39-.13-6.27,3.15-6.43,7.33h0c-.16,4.18,2.45,7.68,5.84,7.81Z"/><path id="_Path_68" data-name="&lt;Path&gt;" class="cls-15" d="M298,218.48l12.77-3.07s9.41,3.62,12.09,6.42c3.12,3.26,4.18,9.06,4.3,10.15.33,2.91-13.24-3.27-13.24-3.27l-10.56,2.36Z"/><rect id="_Rectangle_13" data-name="&lt;Rectangle&gt;" class="cls-17" x="284.8" y="221.16" width="16.73" height="6.28" rx="2.32" ry="2.32" transform="translate(515.18 -70.6) rotate(89.55)"/><polygon class="cls-38" points="248.76 258.67 248.76 257.66 242.93 257.66 239.93 257.66 239.93 258.67 239.93 259.42 239.93 260.43 239.93 261.19 239.93 262.19 239.93 262.95 239.93 263.95 239.93 264.71 239.93 265.71 239.93 266.47 239.93 267.47 239.93 268.23 239.93 269.24 239.93 273.63 242.93 273.63 242.93 269.24 248.76 269.24 248.76 268.23 242.93 268.23 242.93 267.47 248.76 267.47 248.76 266.47 242.93 266.47 242.93 265.71 248.76 265.71 248.76 264.71 242.93 264.71 242.93 263.95 248.76 263.95 248.76 262.95 242.93 262.95 242.93 262.19 248.76 262.19 248.76 261.19 242.93 261.19 242.93 260.43 248.76 260.43 248.76 259.42 242.93 259.42 242.93 258.67 248.76 258.67"/><rect class="cls-39" x="236.86" y="272.9" width="25" height="4.28"/><rect class="cls-40" x="240.53" y="258.26" width="8.83" height="1"/><rect class="cls-40" x="240.53" y="260.03" width="8.83" height="1"/><rect class="cls-40" x="240.53" y="261.79" width="8.83" height="1"/><rect class="cls-40" x="240.53" y="263.55" width="8.83" height="1"/><rect class="cls-40" x="240.53" y="265.31" width="8.83" height="1"/><rect class="cls-40" x="240.53" y="267.07" width="8.83" height="1"/><rect class="cls-40" x="240.53" y="268.83" width="8.83" height="1"/><rect class="cls-36" x="240.53" y="258.26" width="3" height="14.63"/><rect class="cls-3" x="543.66" y="89.78" width="25.54" height="244.54"/><path class="cls-41" d="M248.79,195.9c-5.57.19-10.2,4.1-12,5.86-7.34,2.66-13.8,9.73-18.56,20.47a85.28,85.28,0,0,0-5.63,18.58,117.6,117.6,0,0,1,2.63-33.26c1.94-1,7.53-4.44,9.4-10.05,2.28-6.84-1.81-14.36-1.81-14.36s-7.8,3.56-10.08,10.39c-1.73,5.19.21,10.77,1.25,13.16q-.73,3.28-1.29,6.54a15.47,15.47,0,0,0-2.09-6.77c-3.77-6.14-12.17-7.84-12.17-7.84s-2.28,8.26,1.49,14.4c3.25,5.3,9.94,7.29,11.72,7.73-1,8.9-.09,26.61-.17,27.24a88.22,88.22,0,0,0-6.26-22.21c-4-9.1-9.29-15.56-15.27-18.95-.45-2.42-2-8.39-6.48-11.79-5.76-4.34-14.2-2.84-14.2-2.84s.89,8.52,6.65,12.86c4.62,3.48,11,3.21,13.29,3,7,3.95,12.84,12.32,16.78,23.46-1.75-2.38-5.07-6-9.61-7.19-7-1.82-14.21,2.77-14.21,2.77s4.07,7.54,11,9.36C199,238,205,235,206.81,234a97.88,97.88,0,0,1,3.61,16.63c-1.92,0-3.66,0-4.72-.07.08,6.38,1.82,3.84,2.57,11.65S206.47,276,203.54,286s1,28.62,1.48,38.39c4.29-.09,10.86.06,15,0,.44-9.77,4.41-28.42,1.48-38.39s-5.47-16-4.73-23.78,2.49-5.27,2.57-11.65c-1.17,0-3.23.06-5.44.07q-.42-2.21-.73-4.53A95.86,95.86,0,0,1,217,229.36c1.21.58,8,3.65,14.21,1.47,6.79-2.4,10.21-10.26,10.21-10.26s-7.6-4-14.39-1.56c-5.06,1.79-8.24,6.6-9.54,8.94,4.39-12.43,11.14-21.42,19.26-24.66,1.82,1.57,6.8,5.34,12.51,5.15,7.2-.24,12.83-6.71,12.83-6.71S256,195.66,248.79,195.9Z"/><path class="cls-42" d="M249.81,195.9c-5.57.19-10.2,4.1-12,5.86-7.34,2.66-13.8,9.73-18.56,20.47a85.28,85.28,0,0,0-5.63,18.58,117.6,117.6,0,0,1,2.63-33.26c1.94-1,7.53-4.44,9.4-10.05,2.28-6.84-1.81-14.36-1.81-14.36s-7.8,3.56-10.08,10.39c-1.73,5.19.21,10.77,1.25,13.16q-.73,3.28-1.29,6.54a15.47,15.47,0,0,0-2.09-6.77c-3.77-6.14-12.17-7.84-12.17-7.84s-2.28,8.26,1.49,14.4c3.25,5.3,9.94,7.29,11.72,7.73-1,8.9-.09,26.61-.17,27.24a88.22,88.22,0,0,0-6.26-22.21c-4-9.1-9.29-15.56-15.27-18.95-.45-2.42-2-8.39-6.48-11.79-5.76-4.34-14.2-2.84-14.2-2.84s.89,8.52,6.65,12.86c4.62,3.48,11,3.21,13.29,3,7,3.95,12.84,12.32,16.78,23.46-1.75-2.38-5.07-6-9.61-7.19-7-1.82-14.21,2.77-14.21,2.77s4.07,7.54,11,9.36C200,238,206,235,207.83,234a100.73,100.73,0,0,1,4.05,20.45c1,.29,2.63.55,4,.77a75.54,75.54,0,0,1-1.75-9.11A95.86,95.86,0,0,1,218,229.36c1.21.58,8,3.65,14.21,1.47,6.79-2.4,10.21-10.26,10.21-10.26s-7.6-4-14.39-1.56c-5.06,1.79-8.24,6.6-9.54,8.94,4.39-12.43,11.14-21.42,19.26-24.66,1.82,1.57,6.8,5.34,12.51,5.15,7.2-.24,12.83-6.71,12.83-6.71S257,195.66,249.81,195.9Z"/><path class="cls-43" d="M222.48,286c-2.93-10-5.47-16-4.73-23.78s2.49-5.27,2.57-11.65c-2.8.1-10.7.1-13.59,0,.08,6.38,1.82,3.84,2.57,11.65S207.49,276,204.56,286s1,28.62,1.48,38.39c4.29-.09,10.86.06,15,0C221.44,314.62,225.41,296,222.48,286Z"/><rect class="cls-44" x="148.35" y="323.11" width="102.65" height="9.13" rx="4.56" ry="4.56"/></svg>