<svg id="Layer_1" data-name="Layer 1" xmlns="http://www.w3.org/2000/svg" viewBox="0 0 708.66 481.89"><defs><style>.cls-1{fill:#ffe4cc;}.cls-2{fill:#ddc7b6;}.cls-3{fill:#a5a4a4;}.cls-4{fill:#d1d0cf;}.cls-5{fill:#605f5e;}.cls-11,.cls-6{fill:#212121;}.cls-10,.cls-6{opacity:0.07;}.cls-7{fill:#353560;}.cls-20,.cls-8{fill:#f8ab8d;}.cls-41,.cls-9{fill:#fff;}.cls-12{fill:#ffdd6c;}.cls-13{fill:#648ec9;}.cls-14{fill:#295770;}.cls-15{fill:#527499;}.cls-16{fill:none;}.cls-17{fill:#fcfafa;}.cls-18{fill:#979797;}.cls-19{fill:#383333;}.cls-20,.cls-24,.cls-35{fill-rule:evenodd;}.cls-21{fill:#e5e5e4;}.cls-22{fill:#515180;}.cls-23{fill:gray;}.cls-24,.cls-25{fill:#dc846a;}.cls-26{fill:#3952a0;}.cls-27{fill:#efa189;}.cls-28{fill:#e7685d;}.cls-29{fill:#fdd8b8;}.cls-30{fill:#54402b;}.cls-31{fill:#8b6339;}.cls-32{fill:#6c4e38;}.cls-33{fill:#ee4256;}.cls-34{opacity:0.05;}.cls-35{fill:#070707;}.cls-36{fill:#e5b02c;}.cls-37{fill:#4c836a;}.cls-38{fill:#fec82b;}.cls-39{fill:#416d58;}.cls-40{fill:#514b59;}.cls-41{stroke:#686868;stroke-linecap:round;stroke-linejoin:round;stroke-width:2px;}</style></defs><title>CS-L2-U6</title><rect class="cls-1" x="124.1" y="27.79" width="451.53" height="212.26" rx="41.13" ry="41.13"/><rect class="cls-2" x="132.03" y="162.94" width="26.16" height="15.12"/><rect class="cls-2" x="268.14" y="97.53" width="27.39" height="27.39"/><circle class="cls-2" cx="275.74" cy="60.3" r="12.43"/><rect class="cls-2" x="180.54" y="110.08" width="26.16" height="15.12"/><rect class="cls-2" x="124.22" y="74.91" width="188.51" height="16.17"/><rect class="cls-2" x="124.1" y="127.18" width="191.07" height="16.17"/><rect class="cls-2" x="124.1" y="179.45" width="191.07" height="16.17"/><rect class="cls-3" x="382.07" y="187.38" width="101.65" height="24.41" transform="translate(865.79 399.17) rotate(-180)"/><path class="cls-4" d="M403.25,170.23h65.89a0,0,0,0,1,0,0v0a17.7,17.7,0,0,1-17.7,17.7H420.94a17.7,17.7,0,0,1-17.7-17.7v0A0,0,0,0,1,403.25,170.23Z" transform="translate(872.38 358.16) rotate(-180)"/><rect class="cls-4" x="390.07" y="121.01" width="5.65" height="66.37" transform="translate(785.78 308.39) rotate(-180)"/><rect class="cls-4" x="379.24" y="108.52" width="32" height="17.67" transform="translate(790.49 234.7) rotate(-180)"/><rect class="cls-5" x="383.89" y="111.34" width="21.76" height="12.02" transform="translate(789.55 234.7) rotate(-180)"/><rect class="cls-2" x="327.98" y="209.27" width="226.57" height="22.19" rx="11.1" ry="11.1" transform="translate(882.54 440.72) rotate(-180)"/><circle class="cls-2" cx="150.19" cy="112.83" r="12.43"/><circle class="cls-2" cx="275.74" cy="166.58" r="12.43"/><rect class="cls-2" x="138.16" y="46.29" width="27.39" height="27.39"/><path class="cls-6" d="M549,244v-9h1.31V108.56a9.43,9.43,0,0,0-9.41-9.41h0a9.41,9.41,0,0,0-.95,0A17.49,17.49,0,0,0,531.41,97h-11.3l-7.18-4.69V85.39c9.6-4.15,15.89-13.36,19.24-24.55l.2.28c3.21,4,6.42-6.59,8.22-10.85,1.72-4.08-.38-6.86-3.56-7.23.22-4.39.11-9.72-1.21-13.61,1.19-3.74,2.57-4.85,5-7.39a18.9,18.9,0,0,0-7.63,1s-5.31-11.5-22.76-13.7C499.32,8,489,14.83,489,14.83l-10-.42a28.54,28.54,0,0,0,1.1,6.65A12.22,12.22,0,0,0,483,26.41l-6-.25a6.47,6.47,0,0,0,1,4.36,8.59,8.59,0,0,0,2.63,2.76,40.87,40.87,0,0,0-2.93,11.65C476.26,57.43,479,82.74,497.4,87.59q1.91.18,3.71.17V92.3L491.19,97h-6.82a18.22,18.22,0,0,0-18.16,18.16v4.25l-8.39,33.35-15.46-33.11,4.31-2-5.43-12-6.15,2.79-6-13.79s-15-11.57-18.44-10.19c-1.3.51-8.12,3.74-11.11,8.68C397,97.45,413.74,103,413.74,103l6.08,12.42-1.25.57L424,128l3.28-1.49L452.4,180.3a8.52,8.52,0,0,0,11.29,4.79h0a8.25,8.25,0,0,0,2.52-1.79V244h6.69l.13,6.95a11.81,11.81,0,0,0,.48,3.2V441.52h2.8v12.24a8.64,8.64,0,0,0-2.54.25l-30,7.82a4.53,4.53,0,0,0-3.39,4.39v2.94a1.73,1.73,0,0,0,1.74,1.74h95.27a3.44,3.44,0,0,0,3.44-3.44V456a1.73,1.73,0,0,0-1.58-1.72V441.52h2.64V272.17a85.05,85.05,0,0,0,7.9-11.23l-.46-16.15-7.52.59,0-1.43ZM520.52,453.77a8.61,8.61,0,0,0-2.71.25l-21.06,5.49V456a1.73,1.73,0,0,0-1.75-1.73v-12.7h2.64v-179l20.09-.16V441.52h2.8Z"/><path id="_Path_" data-name="&lt;Path&gt;" class="cls-7" d="M459.44,184.61h0a8.28,8.28,0,0,0,4.11-11l-27.34-58.56a8.28,8.28,0,0,0-11-4.11h0a8.28,8.28,0,0,0-4.11,11l27.34,58.56A8.28,8.28,0,0,0,459.44,184.61Z"/><path id="_Path_2" data-name="&lt;Path&gt;" class="cls-8" d="M416.88,117.63l-7.39-15.1S392.75,97,395.32,92.73c3-4.93,9.8-8.16,11.11-8.68,3.49-1.37,18.44,10.19,18.44,10.19l6.63,15.31Z"/><path id="_Path_3" data-name="&lt;Path&gt;" class="cls-7" d="M475.23,99.82h0a8.28,8.28,0,0,1,6.11,10l-17.38,69A8.28,8.28,0,0,1,454,185h0a8.28,8.28,0,0,1-6.11-10l17.38-69A8.28,8.28,0,0,1,475.23,99.82Z"/><rect id="_Rectangle_" data-name="&lt;Rectangle&gt;" class="cls-9" x="415.92" y="109.79" width="24.9" height="13.14" transform="translate(-9.81 187.38) rotate(-24.4)"/><g class="cls-10"><path class="cls-11" d="M450.05,60.3h0a5.42,5.42,0,0,0-5.32-5.53h0l-5.42-.1-.21,10.85.31-16.27a2.72,2.72,0,0,0-2.66-2.76l-38-.73A2.72,2.72,0,0,0,396,48.42L363.69,36.95l-16.17-5.73h0a2.71,2.71,0,0,0-2.76,2.66l-.05,2.71-.31,16.27-.1,5.42-.21,10.85-.1,5.42-.31,16.27-.05,2.71a2.71,2.71,0,0,0,2.66,2.76l.1-5.42.31-16.27.1-5.42.06-3.3-.58,30.41,16.37-5.11L395.4,81a2.72,2.72,0,0,0,2.66,2.76l8.14.16-.05,2.71,21.64.41-1.3,0-19-.36-1.36,0,0,1.36,0,1.36L406,92h0a2.71,2.71,0,0,0-2.76,2.66l-.08,4.07a2.71,2.71,0,0,0,2.66,2.76l-.21,10.85a1.36,1.36,0,0,0,1.33,1.38l8.14.16a2.16,2.16,0,0,0,1.88-1.22l.61-1.44h0l2.27-5.38h0l1.14-2.69h0l2.27-5.38.52-1.22.62-1.47.17-.41,2.71-6.42h0l.53-1.25.05-2.71,8.14.16a2.72,2.72,0,0,0,2.76-2.66l.1-5.42,5.42.1a5.42,5.42,0,0,0,5.53-5.32l.1-5.45h0l.1-5.4ZM347.11,52.91l.05-2.64-.06,3.13Zm97.42,12.74,0,1.33,0,1.87.27-14h0l-.2,10.71Z"/><path class="cls-11" d="M314.18,39l23.14,8.21a1.36,1.36,0,1,0,.91-2.56l-23.14-8.21a1.36,1.36,0,1,0-.91,2.56Z"/><path class="cls-11" d="M337.85,81.6,315,90.53a1.36,1.36,0,0,0,.82,2.58l.17-.05,22.87-8.93a1.36,1.36,0,0,0-1-2.53Z"/><path class="cls-11" d="M332.13,65.79a1.36,1.36,0,0,0-.36-2.67l-30.92.66a1.36,1.36,0,1,0,.06,2.71l30.92-.66A1.37,1.37,0,0,0,332.13,65.79Z"/></g><polygon class="cls-12" points="345.94 31.21 362.11 36.95 394.44 48.42 393.82 80.96 361.07 91.19 344.69 96.3 345.94 31.21"/><path class="cls-13" d="M345.94,31.21l-.1,5.42-.31,16.27-.1,5.42-.21,10.85-.1,5.42-.31,16.27-.1,5.42A2.71,2.71,0,0,1,342,93.53l.05-2.71.31-16.27.1-5.42.21-10.85.1-5.42.31-16.27.05-2.71A2.71,2.71,0,0,1,345.94,31.21Z"/><polygon class="cls-14" points="448.47 60.3 443.05 60.2 443.15 54.77 448.47 60.3"/><path class="cls-15" d="M437.73,54.67l5.42.1-.27,14.08,0-1.87,0-1.33v-.13l.21-10.75a5.42,5.42,0,0,1,5.32,5.53l-.1,5.4h0l-.1,5.45a5.42,5.42,0,0,1-5.53,5.32l-5.42-.1Z"/><path class="cls-13" d="M393.82,81l.31-16.27.31-16.27a2.72,2.72,0,0,1,2.76-2.66l38,.73a2.72,2.72,0,0,1,2.66,2.76l-.31,16.27-.31,16.27a2.72,2.72,0,0,1-2.76,2.66l-38-.73A2.72,2.72,0,0,1,393.82,81Z"/><path class="cls-16" d="M423.49,89.67h.1l-11.09-.21h.14Z"/><path class="cls-12" d="M404.07,112.35l.21-10.85a2.71,2.71,0,0,1-2.66-2.76l.08-4.07A2.71,2.71,0,0,1,404.46,92h0l.05-2.7,0-1.36,0-1.36,1.36,0,19,.36,1.3,0-21.64-.41.05-2.71,21.69.41L426.26,87h0l-.53,1.25h0L423,94.67l-.17.41-.62,1.47-.52,1.22-2.27,5.38h0l-1.14,2.69h0L416,111.23h0l-.61,1.44a2.16,2.16,0,0,1-1.88,1.22l-8.14-.16A1.36,1.36,0,0,1,404.07,112.35Z"/><path class="cls-17" d="M358.29,42.26a1.36,1.36,0,0,0,.13-2.59l-6.74-2.39a1.36,1.36,0,0,0-.91,2.56l6.74,2.39A1.35,1.35,0,0,0,358.29,42.26Z"/><path class="cls-17" d="M389.27,53.25a1.36,1.36,0,0,0,.13-2.59l-23.14-8.21a1.36,1.36,0,0,0-.91,2.56l23.14,8.21A1.35,1.35,0,0,0,389.27,53.25Z"/><path class="cls-5" d="M336.51,47.28a1.36,1.36,0,0,0,.13-2.59L313.5,36.48A1.36,1.36,0,1,0,312.6,39l23.14,8.21A1.35,1.35,0,0,0,336.51,47.28Z"/><path class="cls-5" d="M314.21,93.11l.17-.05,22.87-8.93a1.36,1.36,0,1,0-1-2.53l-22.87,8.93a1.36,1.36,0,0,0,.82,2.58Z"/><path class="cls-5" d="M330.54,65.79a1.36,1.36,0,0,0-.36-2.67l-30.92.66a1.36,1.36,0,1,0,.06,2.71l30.92-.66A1.37,1.37,0,0,0,330.54,65.79Z"/><path id="_Path_4" data-name="&lt;Path&gt;" class="cls-13" d="M481.4,381.08h0a9.35,9.35,0,0,0-9.35,9.35v66.22A9.35,9.35,0,0,0,481.4,466h0a9.35,9.35,0,0,0,9.35-9.35V390.42A9.35,9.35,0,0,0,481.4,381.08Z"/><path id="_Path_5" data-name="&lt;Path&gt;" class="cls-18" d="M492.5,455.47v11.41H436.1v-1.14a4.53,4.53,0,0,1,3.39-4.39l30-7.82a8.37,8.37,0,0,1,4.21,0c8,2.08,13.66,1.16,16.54.3A1.74,1.74,0,0,1,492.5,455.47Z"/><path id="_Path_6" data-name="&lt;Path&gt;" class="cls-19" d="M492.5,466.88V467a3.44,3.44,0,0,1-3.44,3.44H437.83a1.73,1.73,0,0,1-1.74-1.74v-1.8Z"/><path id="_Path_7" data-name="&lt;Path&gt;" class="cls-20" d="M493.15,87.11c20.36,1.95,31.84-12.67,36-31.27,4.34-19.58-8.19-36.45-24.19-37.17-18.2-.82-29.12,5.83-31.45,25.76-1.46,12.51,1.26,37.82,19.68,42.68Z"/><path id="_Path_8" data-name="&lt;Path&gt;" class="cls-13" d="M525.54,382.63h0a9.35,9.35,0,0,0-9.35,9.35V458.2a9.35,9.35,0,0,0,9.35,9.35h0a9.35,9.35,0,0,0,9.35-9.35V392A9.35,9.35,0,0,0,525.54,382.63Z"/><path id="_Rectangle_2" data-name="&lt;Rectangle&gt;" class="cls-7" d="M524.51,237.3h2.06a11,11,0,0,1,11,11V441a0,0,0,0,1,0,0H513.47a0,0,0,0,1,0,0V248.33A11,11,0,0,1,524.51,237.3Z"/><path id="_Path_9" data-name="&lt;Path&gt;" class="cls-18" d="M536.54,455.47v11.41h-56.4v-1.14a4.53,4.53,0,0,1,3.39-4.39l30-7.82a8.37,8.37,0,0,1,4.21,0c8,2.08,13.66,1.16,16.54.3A1.74,1.74,0,0,1,536.54,455.47Z"/><path id="_Path_10" data-name="&lt;Path&gt;" class="cls-19" d="M536.54,466.88V467a3.44,3.44,0,0,1-3.44,3.44H481.88a1.73,1.73,0,0,1-1.74-1.74v-1.8Z"/><path id="_Rectangle_3" data-name="&lt;Rectangle&gt;" class="cls-7" d="M480.29,237.3h2.06a11,11,0,0,1,11,11V441a0,0,0,0,1,0,0H469.26a0,0,0,0,1,0,0V248.33A11,11,0,0,1,480.29,237.3Z"/><path id="_Path_11" data-name="&lt;Path&gt;" class="cls-7" d="M537.21,227.77l-68.83.56.41,22.1a11.82,11.82,0,0,0,11.92,11.73l45.19-.36a11.82,11.82,0,0,0,11.73-11.92Z"/><path id="_Rectangle_4" data-name="&lt;Rectangle&gt;" class="cls-18" d="M484.89,96.51h37.66a22.19,22.19,0,0,1,22.19,22.19V243.47a0,0,0,0,1,0,0H462a0,0,0,0,1,0,0v-124A22.93,22.93,0,0,1,484.89,96.51Z"/><polygon id="_Path_12" data-name="&lt;Path&gt;" class="cls-9" points="486.94 96.51 492.2 144.81 515.86 96.51 486.94 96.51"/><path id="_Path_13" data-name="&lt;Path&gt;" class="cls-8" d="M502.56,75.76h.21a6,6,0,0,0-5.91,6.12V95c0,3.38,2.53,4.43,5.91,4.43h-.11c3.38,0,6-1.05,6-4.43V81.88A6.12,6.12,0,0,0,502.56,75.76Z"/><polygon id="_Path_14" data-name="&lt;Path&gt;" class="cls-21" points="515.86 96.51 508.69 91.81 500.87 98.25 505.43 108.99 515.86 96.51"/><polygon id="_Path_15" data-name="&lt;Path&gt;" class="cls-21" points="486.94 96.51 496.86 91.81 500.87 98.25 492.2 108.99 486.94 96.51"/><polygon id="_Path_16" data-name="&lt;Path&gt;" class="cls-22" points="500.87 98.25 503.59 104.65 496.86 111.22 494.98 105.55 500.87 98.25"/><polygon id="_Path_17" data-name="&lt;Path&gt;" class="cls-22" points="498.79 108.91 499.84 129.22 492.2 144.81 490.32 127.55 496.31 108.29 498.79 108.91"/><ellipse id="_Path_18" data-name="&lt;Path&gt;" class="cls-7" cx="495.08" cy="181.36" rx="3.84" ry="4.76"/><ellipse id="_Path_19" data-name="&lt;Path&gt;" class="cls-7" cx="495.08" cy="207.37" rx="3.84" ry="4.76"/><path id="_Path_20" data-name="&lt;Path&gt;" class="cls-18" d="M531.57,29c1.71,5,1.4,12.41,1,17.11a4.71,4.71,0,0,0-4-1.17,5.64,5.64,0,0,0-.65.13h0l-.32.09-.32.1-.33.13-.24.11-.4.2-.31.18-.31.19-.3.21-.3.23c-.19.16-.38.32-.56.5,0,0,0,0,0,.05l-.11.12-.06.08-.07.08,0,0,0,0,0,0a.23.23,0,0,0,0,.05l-.36,8.59a3.86,3.86,0,0,1-1,2.85,4.68,4.68,0,0,1-.42.42,6.15,6.15,0,0,1-2.65.65c-2.24-.09-4.43-2-4.34-4.27l.13-3.07A4.44,4.44,0,0,0,511.63,48l-.78-.09c.09-3.5.23-6.27.33-8,.13-2.13-.61-3.58-5.32-4.25l-.14,0c-.41-.06-.85-.11-1.33-.16h-.1c-.82-.08-1.73-.14-2.74-.18l-21.75-.91-.25-.07c-.92-.3-4.18-1.53-5.78-4.32a6.47,6.47,0,0,1-1-4.36l6,.25a12.22,12.22,0,0,1-2.88-5.35,28.54,28.54,0,0,1-1.1-6.65l10,.42s10.3-6.85,21.36-5.45c17.45,2.21,22.76,13.7,22.76,13.7a18.89,18.89,0,0,1,7.63-1C534.14,24.12,532.76,25.22,531.57,29Z"/><path id="_Path_21" data-name="&lt;Path&gt;" class="cls-23" d="M504.29,35.51c-.82-.08-1.73-.14-2.74-.18l-21.75-.91-.25-.07c-.92-.3-4.18-1.53-5.78-4.32a6.47,6.47,0,0,1-1-4.36s4.94,6.05,8.22,6.79l.26.05C484.59,33.18,499.42,34.94,504.29,35.51Z"/><path id="_Path_22" data-name="&lt;Path&gt;" class="cls-23" d="M474.8,13.93s3.5,9,8.87,11.44c4.56,2.09,27.19,3.76,27.19,3.76a38.71,38.71,0,0,1-7.1,1.39c-2.07.13-22-.08-25-4.59A19.45,19.45,0,0,1,474.8,13.93Z"/><rect id="_Rectangle_5" data-name="&lt;Rectangle&gt;" class="cls-7" x="510" y="197.01" width="18.39" height="6.82" transform="translate(1038.4 400.84) rotate(-180)"/><g id="_Group_" data-name="&lt;Group&gt;"><line id="_Path_23" data-name="&lt;Path&gt;" class="cls-18" x1="478.28" y1="42.97" x2="485.4" y2="44.62"/><path id="_Path_24" data-name="&lt;Path&gt;" class="cls-18" d="M477.78,44.08a1.22,1.22,0,0,1,.77-2.3l7.12,1.65a1.22,1.22,0,0,1-.55,2.37L478,44.16Z"/></g><g id="_Group_2" data-name="&lt;Group&gt;"><line id="_Path_25" data-name="&lt;Path&gt;" class="cls-18" x1="497.81" y1="44.46" x2="505" y2="43.13"/><path id="_Path_26" data-name="&lt;Path&gt;" class="cls-18" d="M497.36,43.33a1.22,1.22,0,0,0,.67,2.33l7.19-1.33a1.22,1.22,0,0,0-.44-2.4l-7.19,1.33Z"/></g><circle id="_Path_27" data-name="&lt;Path&gt;" cx="500.97" cy="50.78" r="1.65" transform="translate(429.34 549.2) rotate(-87.61)"/><circle id="_Path_28" data-name="&lt;Path&gt;" cx="481.84" cy="50.54" r="1.65" transform="translate(411.24 529.86) rotate(-87.61)"/><polygon id="_Path_29" data-name="&lt;Path&gt;" class="cls-24" points="492.06 49.68 491.85 60.1 488.8 59.46 492.06 49.68"/><g id="_Group_3" data-name="&lt;Group&gt;"><path id="_Path_30" data-name="&lt;Path&gt;" class="cls-20" d="M524.09,47.29a9.68,9.68,0,0,1,3.51-3.38c5.37-3.4,11.32-.22,8.74,5.88-1.8,4.26-5,14.84-8.22,10.85C525.67,57.59,524,53,524.09,47.29Z"/><polygon id="_Path_31" data-name="&lt;Path&gt;" class="cls-24" points="528.08 48.09 534.98 47.22 529.42 56.4 531.49 48.73 528.08 48.09"/></g><path id="_Path_32" data-name="&lt;Path&gt;" class="cls-25" d="M529.08,246.67s-4.39,9.77-7,13.59c4,5.06,10.75-.88,10.75-.88Z"/><path id="_Path_33" data-name="&lt;Path&gt;" class="cls-8" d="M545,244.31l.46,16.15s-6.28,10.67-10.22,13.36c-4.58,3.13-11.82,3.24-13.17,3.17-3.6-.19,6.63-15.39,6.63-15.39l.29-16Z"/><rect id="_Rectangle_6" data-name="&lt;Rectangle&gt;" class="cls-8" x="529.16" y="195.07" width="14.97" height="57.4" rx="6.85" ry="6.85"/><rect id="_Rectangle_7" data-name="&lt;Rectangle&gt;" class="cls-9" x="524.43" y="234.49" width="24.9" height="13.14"/><path id="_Rectangle_8" data-name="&lt;Rectangle&gt;" class="cls-7" d="M536.64,98.67h0a9.41,9.41,0,0,1,9.41,9.41V234.49a0,0,0,0,1,0,0H527.24a0,0,0,0,1,0,0V108.07A9.41,9.41,0,0,1,536.64,98.67Z"/><path class="cls-25" d="M493,71.26c.55,1.86-1,3.7-3.52,4.11s-4.95-.77-5.5-2.63,1-3.7,3.52-4.11S492.45,69.4,493,71.26Z"/><path id="_Path_34" data-name="&lt;Path&gt;" class="cls-25" d="M425.35,95.36a76.9,76.9,0,0,1-8.59-2.25.73.73,0,0,0-1,.62c-.72,6.3,12.85,9.22,12.85,9.22Z"/><path id="_Path_35" data-name="&lt;Path&gt;" class="cls-26" d="M264.73,123.78h0a9,9,0,0,0-11.18-6l-35.1,10.75a9,9,0,0,0-6,11.18h0a9,9,0,0,0,11.18,6L258.7,135A9,9,0,0,0,264.73,123.78Z"/><rect id="_Rectangle_9" data-name="&lt;Rectangle&gt;" class="cls-27" x="258.86" y="68.88" width="14.44" height="55.37" rx="7.22" ry="7.22" transform="translate(43.54 -78.36) rotate(18.22)"/><path id="_Path_36" data-name="&lt;Path&gt;" class="cls-26" d="M273.78,103.75l-16.88-6-9,26.39c-1.33,3.79,1.39,8.2,6.07,9.84h0c4.68,1.64,9.55-.1,10.88-3.9Z"/><path id="_Path_37" data-name="&lt;Path&gt;" class="cls-27" d="M264.5,78.19l.85-15.54s7.3-9.45,11.39-11.55c4.76-2.44,11.71-1.67,13-1.44,3.42.61-8.21,13.93-8.21,13.93L279.29,78.9Z"/><path id="_Path_38" data-name="&lt;Path&gt;" class="cls-28" d="M172.38,465.83v.09a3.34,3.34,0,0,0,3.35,3.35h49.78a1.68,1.68,0,0,0,1.69-1.69v-1.75Z"/><path id="_Path_39" data-name="&lt;Path&gt;" class="cls-28" d="M215.23,463.05v.09a3.34,3.34,0,0,0,3.35,3.35h49.78A1.68,1.68,0,0,0,270,464.8v-1.75Z"/><path id="_Path_40" data-name="&lt;Path&gt;" class="cls-28" d="M182.85,380.46h0a9.08,9.08,0,0,0-9.08,9.08v64.37a9.08,9.08,0,0,0,9.08,9.08h0a9.08,9.08,0,0,0,9.08-9.08V389.54A9.08,9.08,0,0,0,182.85,380.46Z"/><path id="_Rectangle_10" data-name="&lt;Rectangle&gt;" class="cls-22" d="M171.39,240.71h23.45a0,0,0,0,1,0,0V439.14a7,7,0,0,1-7,7h-9.45a7,7,0,0,1-7-7V240.71a0,0,0,0,1,0,0Z" transform="translate(366.22 686.85) rotate(180)"/><path id="_Path_41" data-name="&lt;Path&gt;" class="cls-29" d="M172.38,455.55v11.09H227.2v-1.11a4.4,4.4,0,0,0-3.3-4.27l-29.19-7.6a8.14,8.14,0,0,0-4.09,0c-7.79,2-13.27,1.12-16.08.29A1.69,1.69,0,0,0,172.38,455.55Z"/><line id="_Path_42" data-name="&lt;Path&gt;" class="cls-29" x1="223.9" y1="461.26" x2="194.72" y2="453.66"/><path id="_Path_43" data-name="&lt;Path&gt;" class="cls-28" d="M226,380.46h0a9.08,9.08,0,0,1,9.08,9.08v64.37A9.08,9.08,0,0,1,226,463h0a9.08,9.08,0,0,1-9.08-9.08V389.54A9.08,9.08,0,0,1,226,380.46Z"/><path id="_Rectangle_11" data-name="&lt;Rectangle&gt;" class="cls-22" d="M214.36,240.71h23.45a0,0,0,0,1,0,0V439.14a7,7,0,0,1-7,7h-9.45a7,7,0,0,1-7-7V240.71A0,0,0,0,1,214.36,240.71Z" transform="translate(452.17 686.85) rotate(180)"/><path id="_Path_44" data-name="&lt;Path&gt;" class="cls-13" d="M181.15,122.68h46.76c9.22,0,16.7,6.16,16.7,13.75l-4.66,49,4.66,56.42H164.45s5-44.18,5-58.9c0-11.63-5-46.51-5-46.51C164.45,128.84,171.93,122.68,181.15,122.68Z"/><rect id="_Rectangle_12" data-name="&lt;Rectangle&gt;" class="cls-8" x="200.36" y="102.42" width="12.11" height="29.39" rx="3.61" ry="3.61" transform="translate(412.82 234.22) rotate(180)"/><path id="_Path_45" data-name="&lt;Path&gt;" class="cls-30" d="M232.16,50.43S240,48.84,240,64.69a69.25,69.25,0,0,1-2,15.55L226.11,66.52,213.86,61l15.31-5.53Z"/><path id="_Path_46" data-name="&lt;Path&gt;" class="cls-20" d="M218.86,117.07c-18.67,1-28.59-12.79-31.64-29.92-3.21-18,8.87-33,23.51-33,16.65-.05,26.37,6.44,27.74,24.72.86,11.48-2.59,34.49-19.6,38.22Z"/><g id="_Group_4" data-name="&lt;Group&gt;"><line id="_Path_47" data-name="&lt;Path&gt;" class="cls-31" x1="236.28" y1="78.63" x2="229.26" y2="78.27"/><path id="_Path_48" data-name="&lt;Path&gt;" class="cls-31" d="M236.45,79.79a1.17,1.17,0,0,0-.11-2.33l-7-.35a1.17,1.17,0,0,0-.12,2.34l7,.35Z"/></g><g id="_Group_5" data-name="&lt;Group&gt;"><line id="_Path_49" data-name="&lt;Path&gt;" class="cls-31" x1="218.62" y1="79.2" x2="211.69" y2="80.4"/><path id="_Path_50" data-name="&lt;Path&gt;" class="cls-31" d="M218.64,78a1.17,1.17,0,0,1,.18,2.33l-6.93,1.21a1.17,1.17,0,0,1-.4-2.31L218.42,78Z"/></g><circle id="_Path_51" data-name="&lt;Path&gt;" cx="215.84" cy="85.62" r="1.58"/><circle id="_Path_52" data-name="&lt;Path&gt;" cx="232.77" cy="86.16" r="1.58"/><polygon id="_Path_53" data-name="&lt;Path&gt;" class="cls-24" points="222.87 84.94 222.65 98.72 225.61 98.05 222.87 84.94"/><ellipse id="_Path_54" data-name="&lt;Path&gt;" class="cls-30" cx="183.9" cy="53.15" rx="12.25" ry="9.57" transform="matrix(0.4, -0.92, 0.92, 0.4, 61.51, 200.35)"/><path id="_Path_55" data-name="&lt;Path&gt;" class="cls-32" d="M190.41,89.2s8.21,1.53,7.1-7.24c4.45-.7,26.16-9.88,34.93-31.31-5.53-11.2-15.34-12.72-26-10.92-15.78,2.66-32.54,14.54-23.25,45.16C183.86,87.17,188.18,87.46,190.41,89.2Z"/><path id="_Path_56" data-name="&lt;Path&gt;" class="cls-33" d="M228.55,126.35c0,10.37-9.94,18.8-22.15,18.8s-22.14-8.43-22.14-18.8a16.14,16.14,0,0,1,.43-3.68h43.44A16.14,16.14,0,0,1,228.55,126.35Z"/><path id="_Path_57" data-name="&lt;Path&gt;" class="cls-8" d="M187.74,126.35c0,8.46,8.36,15.32,18.66,15.32s18.67-6.86,18.67-15.32a12.59,12.59,0,0,0-.54-3.67H188.29A12.59,12.59,0,0,0,187.74,126.35Z"/><rect class="cls-13" x="164.45" y="240.52" width="80.16" height="102.66" transform="translate(409.06 583.71) rotate(180)"/><rect id="_Rectangle_13" data-name="&lt;Rectangle&gt;" class="cls-26" x="151.91" y="120.73" width="17.96" height="74.85" rx="8.98" ry="8.98" transform="translate(91.06 -56.38) rotate(27.46)"/><path id="_Path_58" data-name="&lt;Path&gt;" class="cls-29" d="M215.23,452.77v11.09H270v-1.11a4.4,4.4,0,0,0-3.3-4.27l-29.19-7.6a8.14,8.14,0,0,0-4.09,0c-7.79,2-13.27,1.12-16.08.29A1.69,1.69,0,0,0,215.23,452.77Z"/><rect id="_Rectangle_14" data-name="&lt;Rectangle&gt;" class="cls-8" x="156.34" y="191.54" width="14.44" height="55.37" rx="7.22" ry="7.22" transform="translate(398.43 359.39) rotate(157.55)"/><path id="_Path_59" data-name="&lt;Path&gt;" class="cls-26" d="M150.39,211.7l16.37-7.28L155.1,179.1c-1.65-3.67-6.65-5-11.18-3h0c-4.52,2-6.85,6.66-5.21,10.32Z"/><path id="_Path_60" data-name="&lt;Path&gt;" class="cls-8" d="M176.76,232.28l10,11.93s1.12,11.89-.43,16.22c-1.81,5-7.41,9.22-8.5,9.92-2.92,1.89-3.52-15.78-3.52-15.78l-8.84-12.7Z"/><g id="_Group_6" data-name="&lt;Group&gt;" class="cls-34"><path id="_Path_61" data-name="&lt;Path&gt;" class="cls-35" d="M192.12,83.14A8.85,8.85,0,0,0,189,79.92c-4.77-3.31-10.33-.63-8.21,5,1.48,4,4,13.74,7.09,10.22A18.79,18.79,0,0,0,192.12,83.14Z"/><polygon id="_Path_62" data-name="&lt;Path&gt;" class="cls-35" points="188.45 83.71 182.18 82.66 186.9 91.25 185.31 84.17 188.45 83.71"/></g><g id="_Group_7" data-name="&lt;Group&gt;"><path id="_Path_63" data-name="&lt;Path&gt;" class="cls-20" d="M192.91,81.55a8.85,8.85,0,0,0-3.08-3.22c-4.77-3.31-10.33-.63-8.21,5,1.48,4,4,13.74,7.09,10.22A18.79,18.79,0,0,0,192.91,81.55Z"/><polygon id="_Path_64" data-name="&lt;Path&gt;" class="cls-24" points="189.24 82.13 182.97 81.07 187.7 89.67 186.11 82.59 189.24 82.13"/></g><circle id="_Path_65" data-name="&lt;Path&gt;" class="cls-33" cx="187.62" cy="94.83" r="2.85"/><ellipse class="cls-25" cx="224.13" cy="105.83" rx="4.36" ry="2.81"/><rect class="cls-36" x="154.2" y="304.65" width="24.29" height="25.84" rx="12.15" ry="12.15"/><rect class="cls-36" x="166.34" y="315.55" width="34.46" height="34.46"/><rect class="cls-37" x="140.73" y="300.08" width="23.5" height="53.44" transform="translate(-84.17 54.69) rotate(-16)"/><rect class="cls-38" x="151.76" y="317.58" width="11.75" height="11.75" transform="translate(-83.05 55.98) rotate(-16)"/><rect class="cls-37" x="169.38" y="268.78" width="23.5" height="53.44" transform="translate(273.79 629.48) rotate(-164)"/><rect class="cls-38" x="170.1" y="286.28" width="11.75" height="11.75" transform="translate(264.6 621.5) rotate(-164)"/><circle class="cls-38" cx="200.5" cy="339.25" r="16.11"/><circle class="cls-37" cx="203.14" cy="341.89" r="4.23"/><rect class="cls-39" x="172.54" y="310.33" width="26.25" height="26.25" transform="translate(-120.22 110.09) rotate(-25.25)"/><rect class="cls-39" x="139.88" y="286.54" width="26.25" height="26.25" transform="translate(-113.2 93.89) rotate(-25.25)"/><rect class="cls-38" x="193.73" y="282.2" width="24.29" height="25.84" rx="12.15" ry="12.15"/><path class="cls-6" d="M233.72,297.31a5.81,5.81,0,0,0-5.81-5.81h-7.86a12.12,12.12,0,0,0-20.77-5.33L187.1,254.52a4.82,4.82,0,0,0-6.49-4.35h0a4.49,4.49,0,0,0-2.87,4.35l-13.52,35.14a4.47,4.47,0,0,0-.29,1.84H136.54a5.81,5.81,0,0,0-.92,11.54l9.33,51.15a7.37,7.37,0,0,0,7.25,6h59.53a7.37,7.37,0,0,0,7.25-6l9.32-51.09A5.81,5.81,0,0,0,233.72,297.31Zm-51.3-30,9.29,24.14H173.13Zm-24.93,84.13a2.77,2.77,0,0,1-3.18-2.29l-5.22-32.06a2.77,2.77,0,1,1,5.47-.89l5.22,32.06A2.77,2.77,0,0,1,157.49,351.49Zm12.07,0a2.77,2.77,0,0,1-3-2.54l-2.66-32.37a2.77,2.77,0,0,1,5.53-.45l2.66,32.37A2.77,2.77,0,0,1,169.56,351.52Zm15.17-2.76a2.77,2.77,0,1,1-5.55,0V316.27a2.77,2.77,0,0,1,5.55,0Zm12.62.23a2.77,2.77,0,0,1-5.53-.45l2.66-32.37a2.77,2.77,0,0,1,5.53.45Zm17.48-31.84-5.22,32.06a2.77,2.77,0,1,1-5.47-.89l5.22-32.06a2.77,2.77,0,1,1,5.47.89Z"/><rect class="cls-37" x="198.91" y="304.65" width="17.69" height="21.13"/><rect class="cls-28" x="128.36" y="291.5" width="102.99" height="11.62" rx="5.81" ry="5.81"/><rect class="cls-40" x="182.46" y="248.54" width="8.98" height="48.54" rx="4.49" ry="4.49" transform="translate(-85.49 85.32) rotate(-21.04)"/><rect class="cls-40" x="168.65" y="248.54" width="8.98" height="48.54" rx="4.49" ry="4.49" transform="translate(236.77 589.6) rotate(-158.96)"/><path class="cls-28" d="M132.58,299.43l10,54.77a7.37,7.37,0,0,0,7.25,6h59.53a7.37,7.37,0,0,0,7.25-6l10-54.77Zm22.54,52.06a2.77,2.77,0,0,1-3.18-2.29l-5.22-32.06a2.77,2.77,0,1,1,5.47-.89l5.22,32.06A2.77,2.77,0,0,1,155.12,351.49Zm12.07,0a2.77,2.77,0,0,1-3-2.54l-2.66-32.37a2.77,2.77,0,0,1,5.53-.45l2.66,32.37A2.77,2.77,0,0,1,167.19,351.52Zm15.17-2.76a2.77,2.77,0,0,1-5.55,0V316.27a2.77,2.77,0,1,1,5.55,0ZM195,349a2.77,2.77,0,1,1-5.53-.45l2.66-32.37a2.77,2.77,0,0,1,5.53.45Zm17.48-31.84-5.22,32.06a2.77,2.77,0,1,1-5.47-.89L207,316.25a2.77,2.77,0,1,1,5.47.89Z"/><rect class="cls-9" x="501.4" y="134.59" width="21.03" height="13.2"/><line class="cls-41" x1="504.61" y1="138.11" x2="519.2" y2="138.11"/><line class="cls-41" x1="504.61" y1="142.39" x2="511.92" y2="142.39"/></svg>