<svg id="Layer_1" data-name="Layer 1" xmlns="http://www.w3.org/2000/svg" viewBox="0 0 708.66 481.89"><defs><style>.cls-1{fill:#ffdc83;}.cls-2{fill:#141414;opacity:0.07;}.cls-3{fill:#ee4256;}.cls-13,.cls-4{fill:#fff;}.cls-5,.cls-8{fill:none;stroke-linecap:round;stroke-linejoin:round;}.cls-5{stroke:#fff;stroke-width:7px;}.cls-6{opacity:0.36;}.cls-7{fill:#f2c35c;}.cls-8{stroke:#fcfcfc;stroke-width:3px;}.cls-9{font-size:31.51px;fill:#a08342;}.cls-13,.cls-9{font-family:Impact, Impact;}.cls-10{letter-spacing:-0.13em;}.cls-11{letter-spacing:0em;}.cls-12{letter-spacing:-0.08em;}.cls-13{font-size:113.28px;}.cls-14{letter-spacing:0.02em;}</style></defs><title>CS-L2-U3</title><circle class="cls-1" cx="371.03" cy="240.08" r="227.05"/><path class="cls-2" d="M516.93,151.69a2.2,2.2,0,0,0,0-.27c-43.83,0-87.66-62.88-118.15-62.88-26,0-31.23,19.06-31.23,19.06S361.3,88.54,334,88.54s-79.45,64.15-112.46,64.15c21.76,55.52,78.67,95.14,147.17,95.14,65.61,0,120.61-35,144.22-86.67C516.71,156.85,516.94,152.76,516.93,151.69Z"/><path class="cls-3" d="M221.53,147c21.76,55.52,78.67,95.14,147.17,95.14,69.65,0,127.36-39.41,148.23-96.41"/><path class="cls-4" d="M368.86,125.06c-29.76,0-59,14.91-84.13,21.88,22.58,18.56,52.71,29.89,85.82,29.89,31.83,0,60.92-10.48,83.18-27.79C419.5,143.7,402.14,125.06,368.86,125.06Z"/><path class="cls-2" d="M367.54,108.86S361.3,89.81,334,89.81,254.53,147,221.53,147c0,0,10.82,20.33,40,20.33s67.12-25.41,106-25.41,56,25.41,103.64,25.41,45.73-21.6,45.73-21.6c-43.83,0-87.66-55.9-118.15-55.9C372.73,89.81,367.54,108.86,367.54,108.86Z"/><path class="cls-3" d="M367.54,101.87S361.3,82.82,334,82.82,254.53,147,221.53,147c0,0,10.82,13.34,40,13.34s67.12-25.41,106-25.41,56,25.41,103.64,25.41,45.73-14.61,45.73-14.61c-43.83,0-87.66-62.88-118.15-62.88C372.73,82.82,367.54,101.87,367.54,101.87Z"/><path class="cls-5" d="M275.95,198c16.42,12.31,40.53,24.94,62.55,30.28"/><path class="cls-5" d="M258.46,180.92a50.42,50.42,0,0,0,8.19,9.36"/><g class="cls-6"><path class="cls-7" d="M164.84,219.88c5.27,13.44,19,23,35.63,23,16.87,0,30.84-9.54,35.89-23.34"/><path class="cls-1" d="M200.52,214.57c-7.21,0-14.28,3.61-20.37,5.3a33.48,33.48,0,0,0,40.92.51C212.78,219.09,208.58,214.57,200.52,214.57Z"/><path class="cls-7" d="M200.2,209s-1.51-4.61-8.13-4.61-19.24,15.53-27.23,15.53c0,0,2.62,3.23,9.7,3.23S190.79,217,200.2,217s13.56,6.15,25.09,6.15,11.07-3.54,11.07-3.54c-10.61,0-21.22-15.23-28.61-15.23C201.46,204.35,200.2,209,200.2,209Z"/></g><g class="cls-6"><path class="cls-7" d="M508.55,219.61c5.27,13.44,19,23,35.63,23,16.87,0,30.84-9.54,35.89-23.34"/><path class="cls-1" d="M544.22,214.3c-7.21,0-14.28,3.61-20.37,5.3a33.48,33.48,0,0,0,40.92.51C556.48,218.81,552.28,214.3,544.22,214.3Z"/><path class="cls-7" d="M543.9,208.69s-1.51-4.61-8.13-4.61-19.24,15.53-27.23,15.53c0,0,2.62,3.23,9.7,3.23s16.25-6.15,25.66-6.15,13.56,6.15,25.09,6.15,11.07-3.54,11.07-3.54c-10.61,0-21.22-15.23-28.61-15.23C545.16,204.07,543.9,208.69,543.9,208.69Z"/></g><line class="cls-8" x1="295.45" y1="48.06" x2="308.68" y2="61.29"/><line class="cls-8" x1="308.68" y1="48.06" x2="295.45" y2="61.29"/><line class="cls-8" x1="420.41" y1="44.74" x2="433.64" y2="57.97"/><line class="cls-8" x1="433.64" y1="44.74" x2="420.41" y2="57.97"/><text class="cls-9" transform="translate(221.53 394.23)">KEE<tspan class="cls-10" x="43.09" y="0">P</tspan><tspan class="cls-11" x="54.91" y="0">. I</tspan><tspan class="cls-12" x="75.36" y="0">T</tspan><tspan x="87.27" y="0">. SIMPLE. STUPID.</tspan></text><text class="cls-13" transform="translate(222.25 351.47)"><tspan class="cls-14">K</tspan><tspan x="63.28" y="0">.I.S.S.</tspan></text></svg>