<svg id="Layer_1" data-name="Layer 1" xmlns="http://www.w3.org/2000/svg" viewBox="0 0 708.66 481.89"><defs><style>.cls-1{fill:#648ec9;}.cls-15,.cls-2,.cls-4,.cls-5{fill:#0a0a0a;}.cls-15,.cls-2,.cls-3{opacity:0.07;}.cls-12,.cls-15,.cls-16,.cls-17,.cls-24,.cls-25,.cls-5,.cls-9{fill-rule:evenodd;}.cls-6{fill:#3f5aa8;}.cls-7{fill:#b3b2b3;}.cls-8{fill:#4d4e4e;}.cls-20,.cls-9{fill:#f8ab8d;}.cls-10{fill:#8b6339;}.cls-11{fill:#754d24;}.cls-12,.cls-14{fill:#dc846a;}.cls-13,.cls-22,.cls-30,.cls-31{fill:none;}.cls-13,.cls-30{stroke:#dc846a;}.cls-13,.cls-30,.cls-31{stroke-linecap:round;stroke-linejoin:round;}.cls-13,.cls-31{stroke-width:2px;}.cls-16{fill:#fc5f51;}.cls-17,.cls-27{fill:#fff;}.cls-18{fill:#e5e5e4;}.cls-19{fill:#353560;}.cls-21{fill:#fec82b;}.cls-22{stroke:#f2f6f9;stroke-miterlimit:10;stroke-width:4.46px;}.cls-23{fill:#c49a6c;}.cls-24{fill:#2a4077;}.cls-25{fill:#b57341;}.cls-26{fill:#979797;}.cls-28{fill:#515180;}.cls-29{fill:gray;}.cls-30{stroke-width:1.52px;}.cls-31{stroke:#979797;}.cls-32,.cls-33{font-size:76.63px;}.cls-32,.cls-33,.cls-34,.cls-35,.cls-37,.cls-38,.cls-39{fill:#4580ba;font-family:Impact, Impact;}.cls-33{opacity:0.49;}.cls-34{font-size:57.76px;}.cls-35{font-size:48px;}.cls-36{opacity:0.47;}.cls-37{font-size:81.36px;}.cls-38{font-size:67.34px;}.cls-39{font-size:69.72px;}</style></defs><title>CS-L2-U7</title><path class="cls-1" d="M25.4,445.22C25.4,262,173.94,113.44,357.18,113.44S689,262,689,445.22"/><path class="cls-2" d="M317.57,63.94c-1.19-.75-7.84-4.35-13.6-3.84-5,.44-16.11,6.94-16.11,6.94L280,82h0l-20.65,32.93L257,113.53l-5.57,9.66,1.26.73-3,5L246.58,127a.46.46,0,0,0-.18-.06L223.4,113a22.87,22.87,0,0,0-15.62-7v0h-2.82l-5.07-2.4,3.58-.85A8.88,8.88,0,0,0,209,98.63a15.23,15.23,0,0,0,2-6c4-5.54,6.18-12.65,7.2-19.32a26.17,26.17,0,0,0,.65-5c0,.1-.07.19-.1.29a56.47,56.47,0,0,0,.06-8.44,40.81,40.81,0,0,0-2.45-11.75,8.54,8.54,0,0,0,2.74-2.63,6.47,6.47,0,0,0,1.2-4.3h-6a12.2,12.2,0,0,0,3.1-5.21,28.5,28.5,0,0,0,1.38-6.59h-10s-10-7.27-21.09-6.33C170.16,24.76,164.38,36,164.38,36a18.87,18.87,0,0,0-7.57-1.34c2.28,2.64,3.61,3.8,4.64,7.58-1.91,4.92-1.92,12.32-1.67,17a5.05,5.05,0,0,1,1.62-.89,4.76,4.76,0,0,1,1.14-.19,35.31,35.31,0,0,0,.25,11c2.46,13.8,9,25.61,20.44,30.43v1.72L176.07,106h-6.65a22.11,22.11,0,0,0-8.66,1.75,10.34,10.34,0,0,0-1.29-1,10.46,10.46,0,0,0-14.46,3L106,168.6a8.28,8.28,0,0,0-1.41,2.12l-.7,1.06a4.84,4.84,0,0,0,.29,5.73c.06.14.11.28.18.41l4.81,9.7.08.12-2.36,1.17,5,10,2.86-1.42,12.62,24.71h0l6.49,15.55s8.16,5.77,13.46,7.74v7.32h7.23l-.08,4.4c0,.16,0,.31,0,.47v1.52c0,.11,0,.21,0,.31V450.13H157v12.7a1.73,1.73,0,0,0-1.57,1.72V476a3.44,3.44,0,0,0,3.44,3.44H254a1.73,1.73,0,0,0,1.73-1.73v-2.94a4.52,4.52,0,0,0-3.39-4.38l-30-7.81a8.63,8.63,0,0,0-2.54-.25V450.13h2.79V262.94a11.79,11.79,0,0,0,.48-3.2l.13-6.94h6.68V141.34l14.83,9a7.54,7.54,0,0,0,1,.48,12.76,12.76,0,0,0,16.79-4.65l2.85-4.66h0l4.64-7.6,1.5.87,5.57-9.66-3.25-1.88L296,87.8c1.36-1,9.13-6.68,13-8.65-.49-3.11-2.76-4.32-5-4.75C306.28,73.23,320.5,65.78,317.57,63.94Zm-190,114.69-.48.24s0-.09-.05-.13l-1.18-2.38,21.37-32.23v76.71c-1.71-1.44-3.06-2.62-3.55-3.05L129.54,190.1l3-1.48Zm73.58,284.19a1.73,1.73,0,0,0-1.74,1.73v3.54l-21-5.48a8.6,8.6,0,0,0-2.71-.24V450.13h2.79V271.19l20.06.16V450.13h2.63Z"/><g class="cls-3"><path id="_Path_" data-name="&lt;Path&gt;" class="cls-4" d="M479.27,412.07h0a6.43,6.43,0,0,0-6.43,6.43V464a6.43,6.43,0,0,0,6.43,6.43h0a6.43,6.43,0,0,0,6.43-6.43V418.49A6.43,6.43,0,0,0,479.27,412.07Z"/><path id="_Path_2" data-name="&lt;Path&gt;" class="cls-4" d="M486.78,463.23v7.85H448v-.78a3.12,3.12,0,0,1,2.33-3L471,461.89a5.76,5.76,0,0,1,2.89,0,21.24,21.24,0,0,0,11.38.2A1.19,1.19,0,0,1,486.78,463.23Z"/><path id="_Path_3" data-name="&lt;Path&gt;" class="cls-4" d="M486.78,471.08v.06a2.37,2.37,0,0,1-2.37,2.37H449.18a1.19,1.19,0,0,1-1.19-1.19v-1.24Z"/></g><g class="cls-3"><path id="_Path_4" data-name="&lt;Path&gt;" class="cls-5" d="M456,212.89c13.31.72,20.39-9.12,22.57-21.34,2.29-12.87-6.33-23.52-16.77-23.55-11.88,0-18.81,4.59-19.78,17.63-.61,8.19,1.85,24.6,14,27.26Z"/><path id="_Path_5" data-name="&lt;Path&gt;" class="cls-4" d="M480.32,174.69c1.32,3.39,1.32,8.48,1.15,11.73a3.24,3.24,0,0,0-2.77-.69l-.44.11h0l-.22.07-.22.08-.23.1-.16.08-.27.15-.21.13-.21.14-.2.15-.2.16-.37.36s0,0,0,0l-.07.09,0,.05,0,.06,0,0,0,0v0a.16.16,0,0,0,0,0v5.92a2.65,2.65,0,0,1-.63,2,3.22,3.22,0,0,1-.27.3,4.23,4.23,0,0,1-1.8.53,3.09,3.09,0,0,1-3.1-2.81v-2.12a3.06,3.06,0,0,0-2.81-3.05l-.54,0c0-2.41,0-4.32,0-5.5,0-1.47-.52-2.44-3.78-2.77h-.09l-.92-.07h-.07c-.57,0-1.19,0-1.89,0h-15l-.17,0a7.39,7.39,0,0,1-4.09-2.8,4.45,4.45,0,0,1-.83-3H444a8.4,8.4,0,0,1-2.13-3.59,19.62,19.62,0,0,1-.95-4.54h6.87s6.88-5,14.52-4.36c12.05,1,16,8.76,16,8.76a13,13,0,0,1,5.21-.92C481.94,171.28,481,172.08,480.32,174.69Z"/><path id="_Path_6" data-name="&lt;Path&gt;" class="cls-4" d="M461.76,180c-.57,0-1.19,0-1.89,0h-15l-.17,0a7.39,7.39,0,0,1-4.09-2.8,4.45,4.45,0,0,1-.83-3s3.57,4,5.85,4.43l.18,0C448.15,178.93,458.39,179.72,461.76,180Z"/><g id="_Group_" data-name="&lt;Group&gt;"><line id="_Path_7" data-name="&lt;Path&gt;" class="cls-4" x1="446.95" y1="187.08" x2="451.67" y2="186.84"/><path id="_Path_8" data-name="&lt;Path&gt;" class="cls-4" d="M446.84,187.86a.79.79,0,0,1,.07-1.57l4.72-.24a.79.79,0,1,1,.08,1.57l-4.72.24Z"/></g><g id="_Group_2" data-name="&lt;Group&gt;"><line id="_Path_9" data-name="&lt;Path&gt;" class="cls-4" x1="459.28" y1="186.84" x2="464.01" y2="187.08"/><path id="_Path_10" data-name="&lt;Path&gt;" class="cls-4" d="M459.17,186.06a.79.79,0,0,0,.07,1.57l4.72.24a.79.79,0,0,0,.08-1.57l-4.72-.24Z"/></g><circle id="_Path_11" data-name="&lt;Path&gt;" class="cls-4" cx="461.06" cy="191.94" r="1.06"/><circle id="_Path_12" data-name="&lt;Path&gt;" class="cls-4" cx="449.67" cy="192.3" r="1.06"/><path id="_Path_13" data-name="&lt;Path&gt;" class="cls-4" d="M440.87,166s2.66,6.07,6.42,7.61c3.19,1.31,18.79,1.81,18.79,1.81a26.62,26.62,0,0,1-4.84,1.16c-1.42.15-15.14.58-17.3-2.44A13.38,13.38,0,0,1,440.87,166Z"/><g id="_Group_3" data-name="&lt;Group&gt;"><path id="_Path_14" data-name="&lt;Path&gt;" class="cls-5" d="M475.26,188a6.26,6.26,0,0,1,2.18-2.28c3.38-2.34,7.31-.44,5.81,3.57-1,2.8-2.83,9.72-5,7.23A13.29,13.29,0,0,1,475.26,188Z"/><polygon id="_Path_15" data-name="&lt;Path&gt;" class="cls-5" points="477.86 188.4 482.29 187.66 478.95 193.74 480.07 188.73 477.86 188.4"/></g><polygon id="_Path_16" data-name="&lt;Path&gt;" class="cls-5" points="455.27 190.42 455.41 199.68 453.42 199.23 455.27 190.42"/><path id="_Path_17" data-name="&lt;Path&gt;" class="cls-4" d="M449.67,202.43a7.53,7.53,0,0,0,5.74,2.67h0a8.09,8.09,0,0,0,5.74-2.67"/></g><circle id="_Path_18" data-name="&lt;Path&gt;" class="cls-2" cx="443.01" cy="316.7" r="1.97"/><path id="_Rectangle_" data-name="&lt;Rectangle&gt;" class="cls-2" d="M479.21,313.19h0a8.3,8.3,0,0,1,8.3,8.3V458.54a0,0,0,0,1,0,0H470.91a0,0,0,0,1,0,0V321.48A8.3,8.3,0,0,1,479.21,313.19Z"/><path id="_Path_19" data-name="&lt;Path&gt;" class="cls-2" d="M448.86,412.07h0a6.43,6.43,0,0,0-6.43,6.43V464a6.43,6.43,0,0,0,6.43,6.43h0a6.43,6.43,0,0,0,6.43-6.43V418.49A6.43,6.43,0,0,0,448.86,412.07Z"/><path id="_Path_20" data-name="&lt;Path&gt;" class="cls-2" d="M487.23,306.63l-47.34.38.28,15.2a8.13,8.13,0,0,0,8.2,8.07l31.08-.25a8.13,8.13,0,0,0,8.07-8.2Z"/><path id="_Path_21" data-name="&lt;Path&gt;" class="cls-2" d="M456.49,463.23v7.85H417.7v-.78a3.12,3.12,0,0,1,2.33-3l20.65-5.38a5.76,5.76,0,0,1,2.89,0,21.24,21.24,0,0,0,11.38.2A1.19,1.19,0,0,1,456.49,463.23Z"/><path id="_Path_22" data-name="&lt;Path&gt;" class="cls-2" d="M456.49,471.08v.06a2.37,2.37,0,0,1-2.37,2.37H418.89a1.19,1.19,0,0,1-1.19-1.19v-1.24Z"/><g class="cls-3"><path id="_Path_23" data-name="&lt;Path&gt;" class="cls-4" d="M523.68,206.47h0a5.15,5.15,0,0,1-6.18-3.86l-9.56-43.21a5.15,5.15,0,0,1,3.86-6.18h0a5.15,5.15,0,0,1,6.18,3.86l9.56,43.21A5.15,5.15,0,0,1,523.68,206.47Z"/><path id="_Path_24" data-name="&lt;Path&gt;" class="cls-4" d="M518.5,159.41,517,149.06s-5.16-6.12-8-7.41c-3.26-1.5-7.89-.78-8.74-.59-2.27.51,5.9,9.1,5.9,9.1l1.93,10.19Z"/><path id="_Path_25" data-name="&lt;Path&gt;" class="cls-4" d="M482.12,229.93h0a5.15,5.15,0,0,0,7.16,1.31l36.16-25.51a5.15,5.15,0,0,0,1.31-7.16h0a5.15,5.15,0,0,0-7.16-1.31l-36.16,25.51A5.15,5.15,0,0,0,482.12,229.93Z"/><g id="_Clip_Group_" data-name="&lt;Clip Group&gt;"><path id="_Clipping_Path_" data-name="&lt;Clipping Path&gt;" class="cls-4" d="M507.66,204l7.44,10.58-26.34,18.68a6.49,6.49,0,0,1-9-1.57h0a6.49,6.49,0,0,1,1.57-9Z"/></g><line id="_Path_26" data-name="&lt;Path&gt;" class="cls-4" x1="503.93" y1="206.6" x2="511.48" y2="217.11"/></g><g class="cls-3"><path id="_Path_27" data-name="&lt;Path&gt;" class="cls-4" d="M403.29,207.76h0A5.15,5.15,0,0,0,410,205l16.55-41a5.15,5.15,0,0,0-2.79-6.73h0A5.15,5.15,0,0,0,417,160L400.5,201A5.15,5.15,0,0,0,403.29,207.76Z"/><path id="_Path_28" data-name="&lt;Path&gt;" class="cls-4" d="M416.15,162.2l3.15-10s6.1-5.19,9.08-6c3.46-.94,7.91.53,8.72.86,2.16.88-7.32,8-7.32,8l-3.58,9.74Z"/><path id="_Path_29" data-name="&lt;Path&gt;" class="cls-4" d="M445.72,231.95h0a5.15,5.15,0,0,1-7.16,1.32l-36.23-25.42a5.15,5.15,0,0,1-1.32-7.16h0a5.15,5.15,0,0,1,7.16-1.32l36.23,25.42A5.15,5.15,0,0,1,445.72,231.95Z"/><g id="_Clip_Group_2" data-name="&lt;Clip Group&gt;"><path id="_Clipping_Path_2" data-name="&lt;Clipping Path&gt;" class="cls-4" d="M420,205.66l-7.42,10.6L439,234.88a6.49,6.49,0,0,0,9-1.59h0a6.49,6.49,0,0,0-1.59-9Z"/></g><line id="_Path_30" data-name="&lt;Path&gt;" class="cls-4" x1="423.73" y1="208.3" x2="416.2" y2="218.82"/></g><path id="_Rectangle_2" data-name="&lt;Rectangle&gt;" class="cls-2" d="M448.8,314.73h0a8.3,8.3,0,0,1,8.3,8.3V458.54a0,0,0,0,1,0,0H440.51a0,0,0,0,1,0,0V323A8.3,8.3,0,0,1,448.8,314.73Z"/><g id="_Group_4" data-name="&lt;Group&gt;" class="cls-3"><g id="_Clip_Group_3" data-name="&lt;Clip Group&gt;"><path id="_Rectangle_3" data-name="&lt;Rectangle&gt;" class="cls-4" d="M459.87,216.36h9A23.59,23.59,0,0,1,492.41,240v77.48a0,0,0,0,1,0,0H435.49a0,0,0,0,1,0,0V240.74A24.38,24.38,0,0,1,459.87,216.36Z"/></g></g><path id="_Path_31" data-name="&lt;Path&gt;" class="cls-2" d="M463.41,206.09h.15a4.09,4.09,0,0,0-4.07,4.21v9c0,2.33,1.74,3,4.07,3h-.07c2.33,0,4.14-.72,4.14-3v-9A4.21,4.21,0,0,0,463.41,206.09Z"/><path id="_Path_32" data-name="&lt;Path&gt;" class="cls-6" d="M476.27,412.07h0a6.43,6.43,0,0,0-6.43,6.43V464a6.43,6.43,0,0,0,6.43,6.43h0a6.43,6.43,0,0,0,6.43-6.43V418.49A6.43,6.43,0,0,0,476.27,412.07Z"/><path id="_Path_33" data-name="&lt;Path&gt;" class="cls-7" d="M483.78,463.23v7.85H445v-.78a3.12,3.12,0,0,1,2.33-3L468,461.89a5.76,5.76,0,0,1,2.89,0,21.24,21.24,0,0,0,11.38.2A1.19,1.19,0,0,1,483.78,463.23Z"/><path id="_Path_34" data-name="&lt;Path&gt;" class="cls-8" d="M483.78,471.08v.06a2.37,2.37,0,0,1-2.37,2.37H446.18a1.19,1.19,0,0,1-1.19-1.19v-1.24Z"/><path id="_Path_35" data-name="&lt;Path&gt;" class="cls-9" d="M453,212.89c13.31.72,20.39-9.12,22.57-21.34,2.29-12.87-6.33-23.52-16.77-23.55-11.88,0-18.81,4.59-19.78,17.63-.61,8.19,1.85,24.6,14,27.26Z"/><path id="_Path_36" data-name="&lt;Path&gt;" class="cls-10" d="M477.32,174.69c1.32,3.39,1.32,8.48,1.15,11.73a3.24,3.24,0,0,0-2.77-.69l-.44.11h0l-.22.07-.22.08-.23.1-.16.08-.27.15-.21.13-.21.14-.2.15-.2.16-.37.36s0,0,0,0l-.07.09,0,.05,0,.06,0,0,0,0v0a.16.16,0,0,0,0,0v5.92a2.65,2.65,0,0,1-.63,2,3.22,3.22,0,0,1-.27.3,4.23,4.23,0,0,1-1.8.53,3.09,3.09,0,0,1-3.1-2.81v-2.12a3.06,3.06,0,0,0-2.81-3.05l-.54,0c0-2.41,0-4.32,0-5.5,0-1.47-.52-2.44-3.78-2.77h-.09l-.92-.07h-.07c-.57,0-1.19,0-1.89,0h-15l-.17,0a7.39,7.39,0,0,1-4.09-2.8,4.45,4.45,0,0,1-.83-3H441a8.4,8.4,0,0,1-2.13-3.59,19.62,19.62,0,0,1-.95-4.54h6.87s6.88-5,14.52-4.36c12.05,1,16,8.76,16,8.76a13,13,0,0,1,5.21-.92C478.94,171.28,478,172.08,477.32,174.69Z"/><path id="_Path_37" data-name="&lt;Path&gt;" class="cls-11" d="M458.76,180c-.57,0-1.19,0-1.89,0h-15l-.17,0a7.39,7.39,0,0,1-4.09-2.8,4.45,4.45,0,0,1-.83-3s3.57,4,5.85,4.43l.18,0C445.15,178.93,455.39,179.72,458.76,180Z"/><g id="_Group_5" data-name="&lt;Group&gt;"><line id="_Path_38" data-name="&lt;Path&gt;" class="cls-10" x1="443.95" y1="187.08" x2="448.67" y2="186.84"/><path id="_Path_39" data-name="&lt;Path&gt;" class="cls-10" d="M443.84,187.86a.79.79,0,0,1,.07-1.57l4.72-.24a.79.79,0,1,1,.08,1.57l-4.72.24Z"/></g><g id="_Group_6" data-name="&lt;Group&gt;"><line id="_Path_40" data-name="&lt;Path&gt;" class="cls-10" x1="456.28" y1="186.84" x2="461.01" y2="187.08"/><path id="_Path_41" data-name="&lt;Path&gt;" class="cls-10" d="M456.17,186.06a.79.79,0,0,0,.07,1.57l4.72.24a.79.79,0,0,0,.08-1.57l-4.72-.24Z"/></g><circle id="_Path_42" data-name="&lt;Path&gt;" cx="458.06" cy="191.94" r="1.06"/><circle id="_Path_43" data-name="&lt;Path&gt;" cx="446.67" cy="192.3" r="1.06"/><path id="_Path_44" data-name="&lt;Path&gt;" class="cls-11" d="M437.87,166s2.66,6.07,6.42,7.61c3.19,1.31,18.79,1.81,18.79,1.81a26.62,26.62,0,0,1-4.84,1.16c-1.42.15-15.14.58-17.3-2.44A13.38,13.38,0,0,1,437.87,166Z"/><g id="_Group_7" data-name="&lt;Group&gt;"><path id="_Path_45" data-name="&lt;Path&gt;" class="cls-9" d="M472.26,188a6.26,6.26,0,0,1,2.18-2.28c3.38-2.34,7.31-.44,5.81,3.57-1,2.8-2.83,9.72-5,7.23A13.29,13.29,0,0,1,472.26,188Z"/><polygon id="_Path_46" data-name="&lt;Path&gt;" class="cls-12" points="474.86 188.4 479.29 187.66 475.95 193.74 477.07 188.73 474.86 188.4"/></g><polygon id="_Path_47" data-name="&lt;Path&gt;" class="cls-12" points="452.27 190.42 452.41 199.68 450.42 199.23 452.27 190.42"/><path id="_Path_48" data-name="&lt;Path&gt;" class="cls-13" d="M446.67,202.43a7.53,7.53,0,0,0,5.74,2.67h0a8.09,8.09,0,0,0,5.74-2.67"/><path id="_Path_49" data-name="&lt;Path&gt;" class="cls-14" d="M423.41,164.14a87.59,87.59,0,0,1,7.13-6.83c-1.37-3.94-6.75-1.74-6.75-1.74Z"/><path id="_Path_50" data-name="&lt;Path&gt;" class="cls-14" d="M505.06,159.64a87.59,87.59,0,0,0-5.91-7.91c2-3.66,6.95-.61,6.95-.61Z"/><path class="cls-15" d="M461.79,54.28a60,60,0,1,0,60,60A60,60,0,0,0,461.79,54.28Z"/><path class="cls-16" d="M461.79,171.32a60,60,0,1,1,60-60,60,60,0,0,1-60,60Z"/><path class="cls-17" d="M461.8,159.25a48,48,0,1,1,47.95-48,48,48,0,0,1-47.95,48Z"/><path class="cls-16" d="M461.8,147.18a35.88,35.88,0,1,1,35.87-35.88,35.89,35.89,0,0,1-35.87,35.88Z"/><path class="cls-17" d="M461.8,135.1a23.8,23.8,0,1,1,23.8-23.8,23.81,23.81,0,0,1-23.8,23.8Z"/><path class="cls-16" d="M461.79,123a11.73,11.73,0,1,1,11.73-11.74A11.73,11.73,0,0,1,461.79,123Z"/><circle id="_Path_51" data-name="&lt;Path&gt;" class="cls-18" cx="440.01" cy="316.7" r="1.97"/><path id="_Rectangle_4" data-name="&lt;Rectangle&gt;" class="cls-19" d="M476.21,313.19h0a8.3,8.3,0,0,1,8.3,8.3V458.54a0,0,0,0,1,0,0H467.91a0,0,0,0,1,0,0V321.48A8.3,8.3,0,0,1,476.21,313.19Z"/><path id="_Path_52" data-name="&lt;Path&gt;" class="cls-6" d="M445.86,412.07h0a6.43,6.43,0,0,0-6.43,6.43V464a6.43,6.43,0,0,0,6.43,6.43h0a6.43,6.43,0,0,0,6.43-6.43V418.49A6.43,6.43,0,0,0,445.86,412.07Z"/><path id="_Path_53" data-name="&lt;Path&gt;" class="cls-19" d="M484.23,306.63l-47.34.38.28,15.2a8.13,8.13,0,0,0,8.2,8.07l31.08-.25a8.13,8.13,0,0,0,8.07-8.2Z"/><path id="_Path_54" data-name="&lt;Path&gt;" class="cls-7" d="M453.49,463.23v7.85H414.7v-.78a3.12,3.12,0,0,1,2.33-3l20.65-5.38a5.76,5.76,0,0,1,2.89,0,21.24,21.24,0,0,0,11.38.2A1.19,1.19,0,0,1,453.49,463.23Z"/><path id="_Path_55" data-name="&lt;Path&gt;" class="cls-8" d="M453.49,471.08v.06a2.37,2.37,0,0,1-2.37,2.37H415.89a1.19,1.19,0,0,1-1.19-1.19v-1.24Z"/><path id="_Path_56" data-name="&lt;Path&gt;" class="cls-20" d="M520.68,206.47h0a5.15,5.15,0,0,1-6.18-3.86l-9.56-43.21a5.15,5.15,0,0,1,3.86-6.18h0a5.15,5.15,0,0,1,6.18,3.86l9.56,43.21A5.15,5.15,0,0,1,520.68,206.47Z"/><path id="_Path_57" data-name="&lt;Path&gt;" class="cls-20" d="M515.5,159.41,514,149.06s-5.16-6.12-8-7.41c-3.26-1.5-7.89-.78-8.74-.59-2.27.51,5.9,9.1,5.9,9.1l1.93,10.19Z"/><path id="_Path_58" data-name="&lt;Path&gt;" class="cls-20" d="M479.12,229.93h0a5.15,5.15,0,0,0,7.16,1.31l36.16-25.51a5.15,5.15,0,0,0,1.31-7.16h0a5.15,5.15,0,0,0-7.16-1.31l-36.16,25.51A5.15,5.15,0,0,0,479.12,229.93Z"/><g id="_Clip_Group_4" data-name="&lt;Clip Group&gt;"><path id="_Clipping_Path_3" data-name="&lt;Clipping Path&gt;" class="cls-21" d="M504.66,204l7.44,10.58-26.34,18.68a6.49,6.49,0,0,1-9-1.57h0a6.49,6.49,0,0,1,1.57-9Z"/></g><line id="_Path_59" data-name="&lt;Path&gt;" class="cls-22" x1="500.93" y1="206.6" x2="508.48" y2="217.11"/><path id="_Path_60" data-name="&lt;Path&gt;" class="cls-20" d="M400.29,207.76h0A5.15,5.15,0,0,0,407,205l16.55-41a5.15,5.15,0,0,0-2.79-6.73h0A5.15,5.15,0,0,0,414,160L397.5,201A5.15,5.15,0,0,0,400.29,207.76Z"/><path id="_Path_61" data-name="&lt;Path&gt;" class="cls-20" d="M413.15,162.2l3.15-10s6.1-5.19,9.08-6c3.46-.94,7.91.53,8.72.86,2.16.88-7.32,8-7.32,8l-3.58,9.74Z"/><path id="_Path_62" data-name="&lt;Path&gt;" class="cls-20" d="M442.72,231.95h0a5.15,5.15,0,0,1-7.16,1.32l-36.23-25.42a5.15,5.15,0,0,1-1.32-7.16h0a5.15,5.15,0,0,1,7.16-1.32l36.23,25.42A5.15,5.15,0,0,1,442.72,231.95Z"/><g id="_Clip_Group_5" data-name="&lt;Clip Group&gt;"><path id="_Clipping_Path_4" data-name="&lt;Clipping Path&gt;" class="cls-21" d="M417,205.66l-7.42,10.6L436,234.88a6.49,6.49,0,0,0,9-1.59h0a6.49,6.49,0,0,0-1.59-9Z"/></g><line id="_Path_63" data-name="&lt;Path&gt;" class="cls-22" x1="420.73" y1="208.3" x2="413.2" y2="218.82"/><path id="_Rectangle_5" data-name="&lt;Rectangle&gt;" class="cls-19" d="M445.8,314.73h0a8.3,8.3,0,0,1,8.3,8.3V458.54a0,0,0,0,1,0,0H437.51a0,0,0,0,1,0,0V323A8.3,8.3,0,0,1,445.8,314.73Z"/><g id="_Group_8" data-name="&lt;Group&gt;"><g id="_Clip_Group_6" data-name="&lt;Clip Group&gt;"><path id="_Rectangle_6" data-name="&lt;Rectangle&gt;" class="cls-21" d="M456.87,216.36h9A23.59,23.59,0,0,1,489.41,240v77.48a0,0,0,0,1,0,0H432.49a0,0,0,0,1,0,0V240.74A24.38,24.38,0,0,1,456.87,216.36Z"/></g></g><path id="_Path_64" data-name="&lt;Path&gt;" class="cls-20" d="M460.41,206.09h.15a4.09,4.09,0,0,0-4.07,4.21v9c0,2.33,1.74,3,4.07,3h-.07c2.33,0,4.14-.72,4.14-3v-9A4.21,4.21,0,0,0,460.41,206.09Z"/><path id="_Path_65" data-name="&lt;Path&gt;" class="cls-10" d="M214.48,390.25h0a9.34,9.34,0,0,1,9.34,9.34v66.14a9.34,9.34,0,0,1-9.34,9.34h0a9.34,9.34,0,0,1-9.34-9.34V399.58A9.34,9.34,0,0,1,214.48,390.25Z"/><path id="_Path_66" data-name="&lt;Path&gt;" class="cls-23" d="M203.4,464.55v11.39h56.33v-1.14a4.52,4.52,0,0,0-3.39-4.38l-30-7.81a8.36,8.36,0,0,0-4.2,0c-8,2.08-13.64,1.16-16.52.3A1.73,1.73,0,0,0,203.4,464.55Z"/><path id="_Path_67" data-name="&lt;Path&gt;" class="cls-10" d="M203.4,475.94V476a3.44,3.44,0,0,0,3.44,3.44H258a1.73,1.73,0,0,0,1.73-1.73v-1.8Z"/><path id="_Path_68" data-name="&lt;Path&gt;" class="cls-14" d="M299.76,88s9-6.65,13.27-8.82C312,72.5,302.8,74.46,302.8,74.46Z"/><path id="_Path_69" data-name="&lt;Path&gt;" class="cls-20" d="M250.67,150.67h0a8.31,8.31,0,0,0,11.47-2.52l37.93-60.48a8.31,8.31,0,0,0-2.52-11.47h0a8.31,8.31,0,0,0-11.47,2.52L248.16,139.2A8.31,8.31,0,0,0,250.67,150.67Z"/><path id="_Path_70" data-name="&lt;Path&gt;" class="cls-20" d="M284,82,291.86,67S303,60.54,308,60.1c5.76-.51,12.41,3.09,13.6,3.84,3.18,2-13.89,10.63-13.89,10.63L299.23,89Z"/><path id="_Path_71" data-name="&lt;Path&gt;" class="cls-14" d="M147.47,217.59s8.36,7.41,12.45,9.94c-1.63,6.53-10.6,3.78-10.6,3.78Z"/><g id="_Clip_Group_7" data-name="&lt;Clip Group&gt;"><path id="_Clipping_Path_5" data-name="&lt;Clipping Path&gt;" class="cls-19" d="M259.07,147.76l6.85-11.42-44.55-27a10.46,10.46,0,0,0-14.32,3.58h0a10.46,10.46,0,0,0,3.58,14.32l38.1,23.08A7.52,7.52,0,0,0,259.07,147.76Z"/></g><path class="cls-15" d="M387.18,101.79C372.7,96.54,373.33,96.69,366,94l-5.31-8-8.57-3.15,5.33,8,.47.17-2.29-.83-1,2.66,9.87,3.6-7.63-2.7-9.2,2.75,8.61,3,9.18-2.75c6.85,2.53,6.56,2.5,20.76,7.65-.57,2.54-.17,4.7,1.1,5.18L391.74,98C390.37,97.5,388.44,99.15,387.18,101.79Z"/><polyline class="cls-24" points="367.49 97.12 358.28 99.87 349.67 96.83 358.87 94.08"/><polyline class="cls-24" points="354.09 83.18 359.42 91.17 367.99 94.32 362.66 86.33"/><path class="cls-25" d="M388.77,105a2,2,0,0,0,1-2.67c-19.9-7.21-12.23-4.57-32.14-11.79l-1,2.66c19.91,7.22,12.24,4.58,32.14,11.8Z"/><path class="cls-24" d="M389.32,110c-1.54-.58-1.8-3.66-.59-6.87s3.45-5.35,5-4.76"/><path id="_Path_72" data-name="&lt;Path&gt;" class="cls-9" d="M201.37,101.88c-20.4,1.1-31.24-14-34.58-32.7-3.51-19.72,9.69-36,25.69-36.08,18.2-.06,28.81,7,30.31,27,.94,12.55-2.84,37.69-21.42,41.77Z"/><path id="_Path_73" data-name="&lt;Path&gt;" class="cls-10" d="M170.32,390.25h0a9.34,9.34,0,0,1,9.34,9.34v66.14a9.34,9.34,0,0,1-9.34,9.34h0a9.34,9.34,0,0,1-9.34-9.34V399.58A9.34,9.34,0,0,1,170.32,390.25Z"/><path id="_Rectangle_7" data-name="&lt;Rectangle&gt;" class="cls-19" d="M158.35,246.64h24.1a0,0,0,0,1,0,0V439.1a11,11,0,0,1-11,11h-2a11,11,0,0,1-11-11V246.64A0,0,0,0,1,158.35,246.64Z" transform="translate(340.8 696.77) rotate(-180)"/><path id="_Path_74" data-name="&lt;Path&gt;" class="cls-23" d="M159.41,464.55v11.39h56.33v-1.14a4.52,4.52,0,0,0-3.39-4.38l-30-7.81a8.36,8.36,0,0,0-4.2,0c-8,2.08-13.64,1.16-16.52.3A1.73,1.73,0,0,0,159.41,464.55Z"/><path id="_Path_75" data-name="&lt;Path&gt;" class="cls-10" d="M159.41,475.94V476a3.44,3.44,0,0,0,3.44,3.44H214a1.73,1.73,0,0,0,1.73-1.73v-1.8Z"/><path id="_Rectangle_8" data-name="&lt;Rectangle&gt;" class="cls-19" d="M202.51,246.64h24.1a0,0,0,0,1,0,0V439.1a11,11,0,0,1-11,11h-2a11,11,0,0,1-11-11V246.64A0,0,0,0,1,202.51,246.64Z" transform="translate(429.13 696.77) rotate(180)"/><path id="_Path_76" data-name="&lt;Path&gt;" class="cls-19" d="M158.75,237.12l68.75.55-.41,22.07a11.81,11.81,0,0,1-11.91,11.71l-45.13-.36a11.81,11.81,0,0,1-11.71-11.91Z"/><path id="_Rectangle_9" data-name="&lt;Rectangle&gt;" class="cls-26" d="M151.23,106H233.9a0,0,0,0,1,0,0v124.6a22.19,22.19,0,0,1-22.19,22.19H174.15a22.93,22.93,0,0,1-22.93-22.93V106A0,0,0,0,1,151.23,106Z" transform="translate(385.13 358.82) rotate(-180)"/><polygon id="_Path_77" data-name="&lt;Path&gt;" class="cls-19" points="175.29 106.02 172.82 114.24 179.58 120.99 176.73 126.31 206.48 168.13 218.23 126.19 214.55 120.71 216.94 114.24 211.76 106.02 175.29 106.02"/><polygon id="_Path_78" data-name="&lt;Path&gt;" class="cls-27" points="208.95 106.02 203.69 154.26 180.06 106.02 208.95 106.02"/><path id="_Path_79" data-name="&lt;Path&gt;" class="cls-20" d="M193.35,85.29h-.21A5.94,5.94,0,0,1,199,91.41v13.07c0,3.38-2.53,4.43-5.91,4.43h.11c-3.38,0-6-1.05-6-4.43V91.41A6.12,6.12,0,0,1,193.35,85.29Z"/><polygon id="_Path_80" data-name="&lt;Path&gt;" class="cls-18" points="180.06 106.02 187.23 101.33 195.04 107.76 190.49 118.49 180.06 106.02"/><polygon id="_Path_81" data-name="&lt;Path&gt;" class="cls-18" points="208.95 106.02 199.04 101.33 195.04 107.76 203.69 118.49 208.95 106.02"/><polygon id="_Path_82" data-name="&lt;Path&gt;" class="cls-26" points="195.04 107.76 192.32 114.15 199.04 120.71 200.92 115.05 195.04 107.76"/><polygon id="_Path_83" data-name="&lt;Path&gt;" class="cls-28" points="197.12 118.4 196.07 138.69 203.69 154.26 205.57 137.03 199.59 117.78 197.12 118.4"/><ellipse id="_Path_84" data-name="&lt;Path&gt;" class="cls-19" cx="200.82" cy="190.77" rx="3.84" ry="4.75"/><ellipse id="_Path_85" data-name="&lt;Path&gt;" class="cls-19" cx="200.82" cy="216.75" rx="3.84" ry="4.75"/><path id="_Path_86" data-name="&lt;Path&gt;" class="cls-26" d="M165.45,42.26c-1.91,4.92-1.92,12.32-1.67,17a4.71,4.71,0,0,1,4-1,5.63,5.63,0,0,1,.64.15h0l.31.11.31.12.33.15.23.12.39.21.3.19.3.21.29.22.29.24c.19.16.37.34.54.52,0,0,0,0,0,.05l.11.13.06.08.07.08,0,0,0,0,0,0a.23.23,0,0,1,0,.05v8.59A3.85,3.85,0,0,0,173,72.5a4.67,4.67,0,0,0,.4.43,6.14,6.14,0,0,0,2.62.76c2.24,0,4.5-1.84,4.5-4.08V66.55a4.44,4.44,0,0,1,4.08-4.43l.78-.06c.06-3.5,0-6.27,0-8,0-2.14.76-3.55,5.49-4H191c.41,0,.85-.07,1.33-.1h.1c.82,0,1.73-.06,2.75-.06h21.74l.25-.06c.93-.26,4.24-1.35,5.95-4.07a6.47,6.47,0,0,0,1.2-4.3h-6a12.2,12.2,0,0,0,3.1-5.21,28.5,28.5,0,0,0,1.38-6.59h-10s-10-7.27-21.09-6.33C174.16,24.76,168.38,36,168.38,36a18.87,18.87,0,0,0-7.57-1.34C163.09,37.31,164.42,38.47,165.45,42.26Z"/><path id="_Path_87" data-name="&lt;Path&gt;" class="cls-29" d="M192.4,49.93c.82,0,1.73-.06,2.75-.06h21.74l.25-.06c.93-.26,4.24-1.35,5.95-4.07a6.47,6.47,0,0,0,1.2-4.3s-5.18,5.84-8.49,6.43l-.26,0C212.16,48.42,197.29,49.56,192.4,49.93Z"/><path id="_Path_88" data-name="&lt;Path&gt;" class="cls-26" d="M187.74,82.88l.5,3.11,1.13,7,0,.08.36,2.25c1,6.19,6.17,10.19,11.47,8.92l6.24-1.48A8.88,8.88,0,0,0,213,98.63a16.18,16.18,0,0,0,2.18-7.72l-.32-10.13c-.46-2.7-1.14-3.74-3.49-3.71H191C188.77,77.61,187.31,80.2,187.74,82.88Z"/><path id="_Path_89" data-name="&lt;Path&gt;" class="cls-27" d="M203.9,87c4.21,0,7.91-2.28,7.91-4.88v-.61H195.57v.61c0,2.37,2.48,4.88,7.07,4.88Z"/><path id="_Path_90" data-name="&lt;Path&gt;" class="cls-29" d="M222.73,29.62s-3.87,8.81-9.33,11c-4.64,1.9-27.29,2.62-27.29,2.62a38.66,38.66,0,0,0,7,1.68c2.06.21,22,.84,25.12-3.54A19.43,19.43,0,0,0,222.73,29.62Z"/><path id="_Path_91" data-name="&lt;Path&gt;" class="cls-26" d="M173.36,72.94a19.68,19.68,0,0,0,3.37,2.62c4.49,3,10.84,6.54,12.63,14.65l0,.06c.85,3.9,1.64,3.47,2.21,1.23,1-3.84,1.26-13-.08-14.69h0c-3.84,0-11-2.51-11-7.2S168.83,68.86,173.36,72.94Z"/><path id="_Path_92" data-name="&lt;Path&gt;" class="cls-26" d="M215.06,89.68c-.15-4.41,7.4-9.64,7.77-21.41a11.85,11.85,0,0,1-11.49,8.55C209.93,78.58,214,86.25,215.06,89.68Z"/><path id="_Path_93" data-name="&lt;Path&gt;" class="cls-29" d="M176.73,75.56c4.49,3.54,10.84,7.78,12.63,17.44l0,.08.36,2.25c1,6.19,6.17,10.19,11.47,8.92l6.24-1.48A8.88,8.88,0,0,0,213,98.63a37.63,37.63,0,0,1-9.81,2.65c-4.68.42-10.33-1.17-11.57-6.73h0A33.07,33.07,0,0,0,188.23,86C185.74,81.52,181.93,77.14,176.73,75.56Z"/><rect id="_Rectangle_10" data-name="&lt;Rectangle&gt;" class="cls-19" x="167.55" y="206.4" width="18.37" height="6.81"/><g id="_Group_9" data-name="&lt;Group&gt;"><line id="_Path_94" data-name="&lt;Path&gt;" class="cls-26" x1="218.39" y1="57.8" x2="211.09" y2="57.43"/><path id="_Path_95" data-name="&lt;Path&gt;" class="cls-26" d="M218.56,59a1.22,1.22,0,0,0-.11-2.42l-7.29-.37a1.22,1.22,0,0,0-.12,2.43l7.29.37Z"/></g><g id="_Group_10" data-name="&lt;Group&gt;"><line id="_Path_96" data-name="&lt;Path&gt;" class="cls-26" x1="197.81" y1="57.43" x2="190.52" y2="57.8"/><path id="_Path_97" data-name="&lt;Path&gt;" class="cls-26" d="M198,56.22a1.22,1.22,0,0,1-.11,2.42l-7.29.37a1.22,1.22,0,1,1-.12-2.43l7.29-.37Z"/></g><circle id="_Path_98" data-name="&lt;Path&gt;" cx="195.08" cy="65.3" r="1.64"/><circle id="_Path_99" data-name="&lt;Path&gt;" cx="214.18" cy="65.86" r="1.64"/><polygon id="_Path_100" data-name="&lt;Path&gt;" class="cls-12" points="204.01 64.57 203.79 74.98 206.87 74.47 204.01 64.57"/><path id="_Path_101" data-name="&lt;Path&gt;" class="cls-30" d="M188.94,67.52A8.58,8.58,0,0,0,194,69h0a9.21,9.21,0,0,0,5.09-1.5"/><path id="_Path_102" data-name="&lt;Path&gt;" class="cls-30" d="M209.17,67.52a8.58,8.58,0,0,0,5.09,1.5h0a9.21,9.21,0,0,0,5.09-1.5"/><g id="_Group_11" data-name="&lt;Group&gt;"><path id="_Path_103" data-name="&lt;Path&gt;" class="cls-9" d="M172.15,60.86a9.67,9.67,0,0,0-3.36-3.52c-5.21-3.61-11.29-.69-9,5.51,1.62,4.32,4.37,15,7.75,11.17C170.15,71.06,172,66.56,172.15,60.86Z"/><polygon id="_Path_104" data-name="&lt;Path&gt;" class="cls-12" points="168.14 61.48 161.29 60.33 166.45 69.72 164.71 61.98 168.14 61.48"/></g><path class="cls-19" d="M243.46,131.48h23.08a.46.46,0,0,1,.46.46v7.6a12.77,12.77,0,0,1-12.77,12.77H243.46a.46.46,0,0,1-.46-.46v-19.9a.46.46,0,0,1,.46-.46Z" transform="translate(111.36 -112.12) rotate(31.42)"/><rect class="cls-19" x="255.07" y="121.29" width="19.93" height="16.19" transform="translate(106.31 -119.19) rotate(31.42)"/><rect class="cls-27" x="256.67" y="118.57" width="23.12" height="11.15" transform="translate(98.01 -117.48) rotate(30)"/><path id="_Path_105" data-name="&lt;Path&gt;" class="cls-20" d="M112.24,166.83h0a8.31,8.31,0,0,1,11.21,3.51l24.3,47.57a8.31,8.31,0,0,1-3.51,11.21h0A8.31,8.31,0,0,1,133,225.61L108.74,178A8.31,8.31,0,0,1,112.24,166.83Z"/><path id="_Path_106" data-name="&lt;Path&gt;" class="cls-20" d="M131.27,222.19l6.49,15.55s10.55,7.45,15.45,8.32c5.69,1,12.63-2,13.88-2.64,3.34-1.72-12.91-11.8-12.91-11.8L147,216.51Z"/><g id="_Clip_Group_8" data-name="&lt;Clip Group&gt;"><path id="_Clipping_Path_6" data-name="&lt;Clipping Path&gt;" class="cls-19" d="M109.23,178.52l4.71,3.11a10.37,10.37,0,0,0,14.36-2.92l38.13-57.51a10.46,10.46,0,0,0-3-14.46h0a10.46,10.46,0,0,0-14.46,3l-41.15,62.07A4.86,4.86,0,0,0,109.23,178.52Z"/></g><path class="cls-19" d="M115.43,166.64h10.23A3.33,3.33,0,0,1,129,170V183.9a3.33,3.33,0,0,1-3.33,3.33H112.32A3.33,3.33,0,0,1,109,183.9V173.08A6.44,6.44,0,0,1,115.43,166.64Z" transform="translate(-66.24 71.31) rotate(-26.38)"/><rect class="cls-27" x="112.12" y="183.19" width="23.12" height="11.15" transform="translate(-71 74.63) rotate(-26.38)"/><line class="cls-31" x1="266.83" y1="51.7" x2="285.33" y2="59.73"/><line class="cls-31" x1="255.77" y1="52.79" x2="267.69" y2="57.96"/><line class="cls-31" x1="249.19" y1="49.93" x2="252.3" y2="51.28"/><line class="cls-31" x1="344.56" y1="81.7" x2="332.94" y2="77.08"/><line class="cls-31" x1="326.08" y1="79.2" x2="322.88" y2="77.92"/><line class="cls-31" x1="336.45" y1="83.32" x2="328.83" y2="80.29"/><line class="cls-31" x1="343.55" y1="91.69" x2="330.64" y2="86.55"/><text class="cls-32" transform="translate(324.47 286.12) rotate(18.38)">A</text><text class="cls-33" transform="translate(259.51 355.38) rotate(-28.21)">A</text><text class="cls-33" transform="translate(613.82 410.81) rotate(15.43)">A</text><text class="cls-34" transform="translate(542.55 304.16) rotate(-26.81)">B</text><text class="cls-35" transform="translate(275.13 234.94) rotate(-15.46)">C</text><g class="cls-36"><text class="cls-37" transform="translate(364.83 407.81) rotate(-15.46)">C</text></g><text class="cls-35" transform="translate(361.94 187.9) rotate(-27.03)">D</text><text class="cls-35" transform="matrix(0.9, 0.44, -0.44, 0.9, 103.67, 298.98)">D</text><text class="cls-35" transform="translate(273.9 418.98) rotate(19.87)">D</text><text class="cls-38" transform="translate(537.18 354.53) rotate(148.99)">E</text><text class="cls-39" transform="translate(105.82 411.57) rotate(-21.1)">F</text></svg>