<svg id="Layer_1" data-name="Layer 1" xmlns="http://www.w3.org/2000/svg" viewBox="0 0 708.66 481.89"><defs><style>.cls-1{fill:#dce9f4;}.cls-2{fill:#a5bdd3;}.cls-18,.cls-3{fill:#fff;}.cls-14,.cls-4{fill:#141414;}.cls-13,.cls-4{opacity:0.11;}.cls-5{fill:#7f5736;}.cls-6{fill:#29cc86;}.cls-7{fill:#ffd1c2;}.cls-8{fill:#eba48d;}.cls-15,.cls-19,.cls-9{fill:none;}.cls-15,.cls-9{stroke:#fec82b;}.cls-18,.cls-9{stroke-miterlimit:10;}.cls-9{stroke-width:16px;}.cls-10{fill:#fec82b;}.cls-11{fill:#5b3e28;}.cls-12{fill:#996948;}.cls-15,.cls-19{stroke-linecap:round;stroke-linejoin:round;}.cls-15{stroke-width:10px;}.cls-16{fill:#6d6d6d;}.cls-17{fill:#606060;}.cls-18{stroke:#29cc86;stroke-width:6px;fill-rule:evenodd;}.cls-19{stroke:#fc5f51;stroke-width:4px;}.cls-20{fill:#fc5f51;}</style></defs><title>CS-L2-U6</title><circle class="cls-1" cx="350.71" cy="202.05" r="198.55"/><path class="cls-2" d="M538.68,262.83l-56.11-74.18H230.9l-69.78,73.14a198.6,198.6,0,0,0,377.56,1Z"/><path class="cls-3" d="M466.9,96c-15.68,4.51-19.33,8.16-23.84,23.84-4.51-15.68-8.16-19.33-23.84-23.84,15.68-4.51,19.33-8.16,23.84-23.84C447.57,87.79,451.22,91.45,466.9,96Z"/><path class="cls-4" d="M442.49,68H272.27a40.72,40.72,0,0,0-40.72,40.72v85.8H483.21v-85.8A40.72,40.72,0,0,0,442.49,68Z"/><path class="cls-5" d="M294.65,63.5H420.11a63.11,63.11,0,0,1,63.11,63.11V190a0,0,0,0,1,0,0H231.54a0,0,0,0,1,0,0V126.6A63.11,63.11,0,0,1,294.65,63.5Z"/><rect class="cls-5" x="231.54" y="63.69" width="251.67" height="126.33" rx="39.69" ry="39.69"/><polygon class="cls-6" points="0 446.24 0 378.96 286.73 387.41 284.82 445.33 0 446.24"/><path class="cls-7" d="M404.52,381.1l-15.65,28.6a4.79,4.79,0,0,0,1.35,6.15l2.1,1.55a4.79,4.79,0,0,1,1,6.71l-12.12,16.28a4.79,4.79,0,0,0-.13,5.54,4.79,4.79,0,0,1-1.21,6.6l-20.74,14.6a4.79,4.79,0,0,1-4.22.65l-70.08-22.44,1.91-57.92,43.22-36a7.31,7.31,0,0,1,9.8.4l5.71,5.6a7.31,7.31,0,0,1,.4,10l-7,8a10.13,10.13,0,0,0,1,14.24l4.46,3.93a6.7,6.7,0,0,0,9.31-.44l14-14.87a4.79,4.79,0,0,0-.51-7l-6.31-5a8.75,8.75,0,0,1,10.53-14l31.79,22.61A4.79,4.79,0,0,1,404.52,381.1Z"/><path class="cls-8" d="M379.61,389.47l-10.72,12.06a14.27,14.27,0,0,1-20.07,1.29c-6.56-5.78-13.5-13.42-13.15-19.65.24-4.29,3-8.22,6.5-11.47l-3.27,3.77a10.13,10.13,0,0,0,1,14.24l4.46,3.93a6.7,6.7,0,0,0,9.31-.44l14-14.87a4.79,4.79,0,0,0-.51-7l-6.31-5a8.72,8.72,0,0,1-3.28-7.36l2.27-5.38c.19-.2.38-.4.59-.59a8.7,8.7,0,0,1,2.06-1.36l14.92,11.82A18,18,0,0,1,379.61,389.47Z"/><circle class="cls-9" cx="354.44" cy="331.56" r="25.88"/><path class="cls-7" d="M349.9,352.59a26.53,26.53,0,0,1-6.58,17.85l-2.89,3.29-21.34-13.26,7.54-6.87a28.34,28.34,0,0,1,17.61-7.36,5.36,5.36,0,0,1,5.64,5.28Z"/><rect class="cls-10" x="346.32" y="222.73" width="16.24" height="82.67"/><rect class="cls-10" x="346.32" y="222.73" width="34.88" height="6.28"/><rect class="cls-10" x="346.32" y="248.11" width="34.88" height="6.28"/><rect class="cls-10" x="346.32" y="235.42" width="26.92" height="6.28"/><rect class="cls-11" x="231.54" y="104.22" width="251.67" height="6.78"/><path class="cls-12" d="M254.49,67.77H460.27a40.55,40.55,0,0,0-17.77-4.08H272.27A40.55,40.55,0,0,0,254.49,67.77Z"/><rect class="cls-11" x="312.77" y="88.14" width="89.21" height="38.94" rx="19.47" ry="19.47"/><g class="cls-13"><rect class="cls-14" x="339.33" y="123.94" width="37.01" height="29.92" rx="5.7" ry="5.7"/><path class="cls-14" d="M343.28,123.18a3.23,3.23,0,0,0,3.23-3.23c0-7.28,5.08-13.19,11.32-13.19s11.32,5.92,11.32,13.19a3.23,3.23,0,0,0,6.45,0c0-10.83-8-19.65-17.78-19.65s-17.78,8.81-17.78,19.65A3.23,3.23,0,0,0,343.28,123.18Z"/></g><rect class="cls-10" x="339.41" y="122.01" width="37.01" height="29.92" rx="8.83" ry="8.83"/><path class="cls-15" d="M343.37,118c0-9.07,6.51-16.42,14.55-16.42s14.55,7.35,14.55,16.42"/><circle class="cls-16" cx="357.92" cy="135.04" r="3.79"/><rect class="cls-16" x="356.57" y="135.04" width="2.7" height="7.99" rx="1.35" ry="1.35"/><circle class="cls-17" cx="357.92" cy="135.04" r="3.18"/><rect class="cls-17" x="356.95" y="135.73" width="1.93" height="6.66" rx="0.97" ry="0.97"/><rect class="cls-4" x="349.9" y="92.24" width="15.87" height="27.71"/><rect class="cls-12" x="350.71" y="92.24" width="14.41" height="27.71"/><path class="cls-3" d="M356.88,304.64c-7.84,2.25-9.66,4.08-11.92,11.92-2.25-7.84-4.08-9.66-11.92-11.92,7.84-2.25,9.66-4.08,11.92-11.92C347.21,300.56,349,302.39,356.88,304.64Z"/><path class="cls-3" d="M205.81,184c-5.91,1.7-7.29,3.08-9,9-1.7-5.91-3.08-7.29-9-9,5.91-1.7,7.29-3.08,9-9C198.52,180.91,199.9,182.29,205.81,184Z"/><path class="cls-3" d="M537,214.49c-6.69,1.92-8.25,3.48-10.17,10.17-1.92-6.69-3.48-8.25-10.17-10.17,6.69-1.92,8.25-3.48,10.17-10.17C528.79,211,530.35,212.57,537,214.49Z"/><path class="cls-3" d="M379.52,145.25c-4.64,1.33-5.72,2.41-7.06,7.06-1.33-4.64-2.41-5.72-7.06-7.06,4.64-1.33,5.72-2.41,7.06-7.06C373.8,142.83,374.88,143.91,379.52,145.25Z"/><circle class="cls-4" cx="354.88" cy="51.11" r="25.43"/><path class="cls-18" d="M358.25,28.43a25.43,25.43,0,1,1-25.43,25.43,25.44,25.44,0,0,1,25.43-25.43Z"/><line class="cls-19" x1="358.25" y1="52.69" x2="358.25" y2="69.58"/><line class="cls-19" x1="351.74" y1="52.69" x2="364.76" y2="52.69"/><line class="cls-19" x1="351.74" y1="69.58" x2="364.76" y2="69.58"/><circle class="cls-20" cx="358.42" cy="42.08" r="3.93"/></svg>