<svg id="Layer_1" data-name="Layer 1" xmlns="http://www.w3.org/2000/svg" viewBox="0 0 708.66 481.89"><defs><style>.cls-1{fill:#070707;}.cls-1,.cls-6{opacity:0.07;}.cls-2{fill:#648ec9;}.cls-3{fill:#979797;}.cls-4{fill:#383333;}.cls-5{fill:#353560;}.cls-7{fill:#181919;}.cls-8{fill:#e7685d;}.cls-9{fill:#80b9e0;}.cls-10{fill:#db605a;}.cls-11{fill:#49a579;}.cls-12{fill:#e5957c;}.cls-13{fill:#77acc9;}.cls-14{fill:#d68e7b;}.cls-15{fill:#fff;}.cls-16{fill:#f4f4f4;}.cls-17,.cls-23{fill:#dc846a;}.cls-18,.cls-19{fill:#f8ab8d;}.cls-18,.cls-23,.cls-29{fill-rule:evenodd;}.cls-20{fill:#e5e5e4;}.cls-21{fill:#515180;}.cls-22{fill:gray;}.cls-24,.cls-29{fill:none;}.cls-24{stroke:#dc846a;}.cls-24,.cls-28,.cls-29{stroke-linecap:round;stroke-linejoin:round;}.cls-25{fill:#fec82b;}.cls-26{fill:#a4a6a9;}.cls-27{fill:#b9bbbd;}.cls-28{fill:#19a4a4;}.cls-28,.cls-29{stroke:#fec82b;stroke-width:4px;}</style></defs><title>CS-L2-U5</title><path class="cls-1" d="M420.9,10.94a26,26,0,0,0-26,24.71H357.67c.9-1.28,1.71-2.64,1.07-2.74a8.6,8.6,0,0,0-4.56.6,10.55,10.55,0,0,0-2.3,2.14H330a27,27,0,1,0,0,2.65h20.17l-.19,2.5-.69-.07L348.88,45l.66.07-3.07,19.81a6.16,6.16,0,0,0,.42,2.18l9,19.23V127h2.18l0,2.27a3.85,3.85,0,0,0,.16,1v61.2h.91v4a2.82,2.82,0,0,0-.83.08l-9.81,2.55a1.48,1.48,0,0,0-1.11,1.43v1a.57.57,0,0,0,.57.57h16.73a1.12,1.12,0,0,0,1.12-1.12v0h14.38v-3.73a.56.56,0,0,0-.51-.56v-4.15h.86V129.21s0-.07,0-.1l0-2.09h2.36v-.83c1.63-.36,4.92-2.72,4.92-2.72l1.33-3.25.91.4,1.74-3.92-.92-.41,8.75-17a2.69,2.69,0,0,0,.54-2s0-.09,0-.13a2.67,2.67,0,0,0-1.33-1.93L381.42,80.61a2.69,2.69,0,0,0-.37-.25A5.38,5.38,0,0,0,377.5,79h-4l-2.34-1.53v-.84a12.62,12.62,0,0,0,6.71-6.18l0,.1c.75,1.5,2.51-1.65,3.38-2.88a1.53,1.53,0,0,0-.63-2.55,12.86,12.86,0,0,0,.57-4.43,5.28,5.28,0,0,1,2.1-2,6.17,6.17,0,0,0-2.5-.21s-.89-4-6.3-6a11.63,11.63,0,0,0-7.2.24l-3.15-.83h0s0,.06,0,.16a6.89,6.89,0,0,0-.09,2h0a4,4,0,0,0,.54,1.91l-1.9-.5a2.11,2.11,0,0,0,0,1.46,2.8,2.8,0,0,0,.65,1.07,13.27,13.27,0,0,0-1.76,3.51,18.46,18.46,0,0,0-.69,2.67s0-.07,0-.1a8.56,8.56,0,0,0-.21,1.64,14.83,14.83,0,0,0,.66,6.71,5,5,0,0,0,.13,2.07,2.9,2.9,0,0,0,1.4,1.77l1.85,1a2.81,2.81,0,0,0,2.54,0v.12L364,79h-2.32a5.78,5.78,0,0,0-2.89.78L351.93,65l3-19.42,2,.21.45-4.27-1.22-.13a29.57,29.57,0,0,1,2-2.89,2.05,2.05,0,0,0-.2-.26H394.9a26,26,0,1,0,26-27.36Zm-38,107.48v-1l.75.33Zm-9.29,77.11a2.81,2.81,0,0,0-.89.08l-6.88,1.79v-1.16a.57.57,0,0,0-.57-.57v-4.15h.86V133.09l6.56-.05v58.5h.91Zm10.77-82.13-1.48,3.33V88.92l11.17,9.37-8.14,15.81Z"/><path id="_Path_" data-name="&lt;Path&gt;" class="cls-2" d="M361.64,169.6h0a3.05,3.05,0,0,0-3.05,3.05v21.62a3.05,3.05,0,0,0,3.05,3.05h0a3.05,3.05,0,0,0,3.05-3.05V172.65A3.05,3.05,0,0,0,361.64,169.6Z"/><path id="_Path_2" data-name="&lt;Path&gt;" class="cls-3" d="M365.26,193.89v3.73H346.85v-.37a1.48,1.48,0,0,1,1.11-1.43l9.81-2.55a2.73,2.73,0,0,1,1.37,0,10.08,10.08,0,0,0,5.4.1A.57.57,0,0,1,365.26,193.89Z"/><path id="_Path_3" data-name="&lt;Path&gt;" class="cls-4" d="M365.26,197.62v0a1.12,1.12,0,0,1-1.12,1.12H347.41a.57.57,0,0,1-.57-.57v-.59Z"/><path id="_Path_4" data-name="&lt;Path&gt;" class="cls-2" d="M376.08,169.6h0a3.05,3.05,0,0,0-3.05,3.05v21.62a3.05,3.05,0,0,0,3.05,3.05h0a3.05,3.05,0,0,0,3.05-3.05V172.65A3.05,3.05,0,0,0,376.08,169.6Z"/><path id="_Rectangle_" data-name="&lt;Rectangle&gt;" class="cls-5" d="M376.05,123.24h0a3.94,3.94,0,0,1,3.94,3.94v62.59a0,0,0,0,1,0,0h-7.88a0,0,0,0,1,0,0V127.18A3.94,3.94,0,0,1,376.05,123.24Z"/><path id="_Path_5" data-name="&lt;Path&gt;" class="cls-4" d="M379.64,197.62v0a1.12,1.12,0,0,1-1.12,1.12H361.79a.57.57,0,0,1-.57-.57v-.59Z"/><path id="_Rectangle_2" data-name="&lt;Rectangle&gt;" class="cls-5" d="M361.61,123.24h0a3.94,3.94,0,0,1,3.94,3.94v62.59a0,0,0,0,1,0,0h-7.88a0,0,0,0,1,0,0V127.18A3.94,3.94,0,0,1,361.61,123.24Z"/><path id="_Path_6" data-name="&lt;Path&gt;" class="cls-5" d="M379.86,120.13l-22.48.18.13,7.22a3.86,3.86,0,0,0,3.89,3.83l14.75-.12a3.86,3.86,0,0,0,3.83-3.89Z"/><g class="cls-6"><polygon class="cls-7" points="476.53 430.3 476.53 411.7 396.42 411.7 396.42 397.89 457.1 397.89 457.1 394.61 457.1 376.94 457.1 373.66 427.05 373.66 427.05 355.97 448.65 355.97 448.65 338.43 401.72 338.43 401.72 314.82 452.77 314.82 452.77 309.48 452.77 300.94 452.77 295.6 418.81 295.6 418.81 272.48 458.96 272.48 458.96 257.63 432.85 257.63 432.85 254.78 432.85 237.11 432.85 233.79 289.11 233.79 289.11 237.11 289.11 254.78 289.11 258.02 315.23 258.02 315.23 271.99 275.07 271.99 275.07 296.21 309.04 296.21 309.04 300.94 309.04 309.48 309.04 314.2 287.83 314.2 287.83 338.43 304.92 338.43 304.92 355.97 332.8 355.97 332.8 373.66 313.36 373.66 313.36 376.94 313.23 376.94 313.36 376.95 313.36 394.61 313.36 397.89 290.39 397.89 290.39 411.7 332.8 411.7 332.8 430.3 303.94 430.3 303.94 454.53 325.73 454.53 325.73 459.01 325.73 465.86 325.73 469.33 469.46 469.33 469.46 465.86 469.46 459.01 469.46 454.53 427.05 454.53 427.05 430.3 476.53 430.3"/><polygon class="cls-7" points="322.59 233.74 425.19 233.74 425.19 221.37 437.36 221.37 437.36 200.78 293.63 200.78 293.63 221.37 322.59 221.37 322.59 233.74"/></g><rect class="cls-8" x="322.79" y="452.17" width="143.73" height="14.81"/><rect class="cls-9" x="300.99" y="427.94" width="123.12" height="24.23"/><rect class="cls-10" x="329.85" y="409.34" width="143.73" height="18.6"/><rect class="cls-11" x="287.44" y="395.53" width="106.03" height="13.81"/><rect class="cls-12" x="310.42" y="371.3" width="143.73" height="24.23"/><rect class="cls-9" x="329.85" y="353.55" width="94.25" height="17.76"/><rect class="cls-11" x="301.97" y="336.07" width="143.73" height="17.54"/><rect class="cls-13" x="284.89" y="311.85" width="113.89" height="24.23"/><rect class="cls-12" x="306.09" y="293.24" width="143.73" height="19.22"/><rect class="cls-8" x="272.13" y="269.63" width="143.73" height="24.23"/><rect class="cls-11" x="312.28" y="255.27" width="143.73" height="14.85"/><rect class="cls-9" x="286.17" y="231.44" width="143.73" height="24.23"/><rect class="cls-14" x="319.64" y="216.85" width="102.6" height="14.54"/><rect class="cls-8" x="290.68" y="198.43" width="143.73" height="20.58"/><rect class="cls-15" x="286.17" y="234.75" width="143.73" height="17.67"/><rect class="cls-15" x="306.09" y="298.58" width="143.73" height="8.54"/><rect class="cls-15" x="310.42" y="374.58" width="143.73" height="17.67"/><rect class="cls-15" x="322.79" y="456.66" width="143.73" height="6.85"/><rect class="cls-15" x="318.07" y="259.1" width="68.92" height="6.87"/><rect class="cls-15" x="375.86" y="320.83" width="16.57" height="6.87" transform="translate(59.88 708.41) rotate(-90)"/><rect class="cls-15" x="313.81" y="205.28" width="16.57" height="6.87" transform="translate(113.38 530.82) rotate(-90)"/><rect class="cls-15" x="329.33" y="205.28" width="16.57" height="6.87" transform="translate(128.89 546.33) rotate(-90)"/><rect class="cls-15" x="339.15" y="415.21" width="16.57" height="6.87" transform="translate(-71.22 766.07) rotate(-90)"/><rect class="cls-15" x="306.29" y="431.32" width="5.94" height="17.48"/><rect class="cls-15" x="317.5" y="431.32" width="5.94" height="17.48"/><rect class="cls-15" x="328.72" y="431.32" width="5.94" height="17.48"/><rect class="cls-15" x="370.94" y="273" width="5.94" height="17.48"/><rect class="cls-15" x="382.16" y="273" width="5.94" height="17.48"/><rect class="cls-15" x="393.37" y="273" width="5.94" height="17.48"/><rect class="cls-15" x="404.58" y="273" width="5.94" height="17.48"/><polygon class="cls-16" points="286.17 234.75 286.17 252.42 429.9 234.75 286.17 234.75"/><polygon class="cls-16" points="454.02 374.58 454.02 392.25 310.29 374.58 454.02 374.58"/><path id="_Path_7" data-name="&lt;Path&gt;" class="cls-17" d="M384,115.16a46,46,0,0,1-4,3.26c.54,2.12,3.46,1.21,3.46,1.21Z"/><path id="_Path_8" data-name="&lt;Path&gt;" class="cls-5" d="M377,79.21h0a2.7,2.7,0,0,1,3.81-.37l17.81,14.94a2.7,2.7,0,0,1,.37,3.81h0a2.7,2.7,0,0,1-3.81.37L377.39,83A2.7,2.7,0,0,1,377,79.21Z"/><path id="_Path_9" data-name="&lt;Path&gt;" class="cls-5" d="M359.76,87.62h0a2.7,2.7,0,0,1-3.61-1.27l-9.84-21.06a2.7,2.7,0,0,1,1.27-3.61h0A2.7,2.7,0,0,1,351.19,63L361,84A2.7,2.7,0,0,1,359.76,87.62Z"/><path id="_Path_10" data-name="&lt;Path&gt;" class="cls-18" d="M364.3,74.81c6.36,2,11-1.81,13.66-7.45,2.75-5.94-.06-12.2-5.11-13.55-5.75-1.54-9.7-.18-11.83,6-1.34,3.89-2.25,12.15,3.29,15Z"/><path id="_Path_11" data-name="&lt;Path&gt;" class="cls-3" d="M379.64,193.89v3.73H361.23v-.37a1.48,1.48,0,0,1,1.11-1.43l9.81-2.55a2.73,2.73,0,0,1,1.37,0,10.08,10.08,0,0,0,5.4.1A.57.57,0,0,1,379.64,193.89Z"/><path id="_Rectangle_3" data-name="&lt;Rectangle&gt;" class="cls-3" d="M365.21,77.27h7.94a9.18,9.18,0,0,1,9.18,9.18v38.81a0,0,0,0,1,0,0h-27a0,0,0,0,1,0,0V87.18A9.92,9.92,0,0,1,365.21,77.27Z"/><polygon id="_Path_12" data-name="&lt;Path&gt;" class="cls-5" points="374.45 77.27 375.26 79.95 373.05 82.16 373.98 83.9 364.25 97.57 360.41 83.86 361.62 82.07 360.84 79.95 362.53 77.27 374.45 77.27"/><polygon id="_Path_13" data-name="&lt;Path&gt;" class="cls-15" points="363.45 77.27 365.17 93.04 372.89 77.27 363.45 77.27"/><path id="_Path_14" data-name="&lt;Path&gt;" class="cls-19" d="M368.55,70.49h.07a1.94,1.94,0,0,0-1.93,2v4.27c0,1.1.83,1.45,1.93,1.45h0c1.1,0,2-.34,2-1.45V72.49A2,2,0,0,0,368.55,70.49Z"/><polygon id="_Path_15" data-name="&lt;Path&gt;" class="cls-20" points="372.89 77.27 370.55 75.73 368 77.83 369.49 81.34 372.89 77.27"/><polygon id="_Path_16" data-name="&lt;Path&gt;" class="cls-20" points="363.45 77.27 366.69 75.73 368 77.83 365.17 81.34 363.45 77.27"/><polygon id="_Path_17" data-name="&lt;Path&gt;" class="cls-3" points="368 77.83 368.88 79.92 366.69 82.07 366.07 80.22 368 77.83"/><polygon id="_Path_18" data-name="&lt;Path&gt;" class="cls-21" points="367.32 81.31 367.66 87.95 365.17 93.04 364.55 87.4 366.51 81.11 367.32 81.31"/><ellipse id="_Path_19" data-name="&lt;Path&gt;" class="cls-5" cx="366.11" cy="104.97" rx="1.26" ry="1.55"/><ellipse id="_Path_20" data-name="&lt;Path&gt;" class="cls-5" cx="366.11" cy="113.47" rx="1.26" ry="1.55"/><path id="_Path_21" data-name="&lt;Path&gt;" class="cls-3" d="M380.62,59a15.1,15.1,0,0,1-.89,5.52,1.54,1.54,0,0,0-1.19-.65h-.44l-.12,0-.08,0-.14,0-.11,0-.11,0-.11,0-.11.05-.21.12s0,0,0,0l0,0,0,0,0,0h0v0l-.72,2.72a1.26,1.26,0,0,1-.53.83l-.16.1a2,2,0,0,1-.89,0,1.47,1.47,0,0,1-1.08-1.67l.26-1a1.45,1.45,0,0,0-.92-1.74l-.24-.08c.27-1.11.51-2,.67-2.53s.06-1.18-1.4-1.73h0l-.41-.14h0l-.86-.25-6.87-1.81-.07,0a3.51,3.51,0,0,1-1.54-1.78,2.11,2.11,0,0,1,0-1.46l1.9.5a4,4,0,0,1-.54-1.91,9.32,9.32,0,0,1,.11-2.2l3.15.83a11.63,11.63,0,0,1,7.2-.24c5.41,1.93,6.3,6,6.3,6a6.17,6.17,0,0,1,2.5.21A5.28,5.28,0,0,0,380.62,59Z"/><path id="_Path_22" data-name="&lt;Path&gt;" class="cls-22" d="M371.46,59.13l-.86-.25-6.87-1.81-.07,0a3.51,3.51,0,0,1-1.54-1.78,2.11,2.11,0,0,1,0-1.46s1.15,2.28,2.15,2.74l.08,0C365.34,57,369.95,58.61,371.46,59.13Z"/><path id="_Path_23" data-name="&lt;Path&gt;" class="cls-3" d="M370.19,69.94l-.42.94L368.83,73v0l-.3.68a3.22,3.22,0,0,1-4.37,1.86l-1.85-1a2.9,2.9,0,0,1-1.4-1.77,5.29,5.29,0,0,1,0-2.62L361.8,67c.37-.82.67-1.09,1.41-.88l6.27,1.66.15,0A1.64,1.64,0,0,1,370.19,69.94Z"/><path id="_Path_24" data-name="&lt;Path&gt;" class="cls-15" d="M364.74,69.88c-1.33-.35-2.31-1.38-2.09-2.2l.05-.19,5.14,1.35-.05.19c-.2.75-1.19,1.34-2.64,1Z"/><path id="_Path_25" data-name="&lt;Path&gt;" class="cls-22" d="M363.57,50.18s.49,3.11,2,4.27c1.31,1,8.41,3.11,8.41,3.11a12.64,12.64,0,0,1-2.36-.06c-.67-.1-7-1.57-7.65-3.21A6.35,6.35,0,0,1,363.57,50.18Z"/><path id="_Path_26" data-name="&lt;Path&gt;" class="cls-3" d="M375.56,68a6.44,6.44,0,0,1-1.28.55c-1.67.57-4,1.16-5.21,3.58v0c-.59,1.16-.81,1-.8.21,0-1.29.69-4.21,1.25-4.64h0c1.21.32,3.69.13,4.08-1.36S377.34,67.08,375.56,68Z"/><path id="_Path_27" data-name="&lt;Path&gt;" class="cls-3" d="M361,69.81c.41-1.38-1.53-3.67-.67-7.41a3.87,3.87,0,0,0,2.92,3.66C363.53,66.73,361.61,68.81,361,69.81Z"/><path id="_Path_28" data-name="&lt;Path&gt;" class="cls-22" d="M374.28,68.54c-1.71.74-4.08,1.56-5.45,4.46v0l-.3.68a3.22,3.22,0,0,1-4.37,1.86l-1.85-1a2.9,2.9,0,0,1-1.4-1.77,12.3,12.3,0,0,0,2.88,1.66c1.45.52,3.36.49,4.22-1.16h0a10.81,10.81,0,0,1,1.77-2.42A6.88,6.88,0,0,1,374.28,68.54Z"/><rect id="_Rectangle_4" data-name="&lt;Rectangle&gt;" class="cls-5" x="370.98" y="110.08" width="6.01" height="2.23" transform="translate(747.96 222.4) rotate(-180)"/><g id="_Group_" data-name="&lt;Group&gt;"><line id="_Path_29" data-name="&lt;Path&gt;" class="cls-3" x1="362.59" y1="59.45" x2="364.93" y2="59.94"/><path id="_Path_30" data-name="&lt;Path&gt;" class="cls-3" d="M362.44,59.82a.4.4,0,0,1,.24-.76l2.34.49a.4.4,0,1,1-.16.78l-2.34-.49Z"/></g><g id="_Group_2" data-name="&lt;Group&gt;"><line id="_Path_31" data-name="&lt;Path&gt;" class="cls-3" x1="369.13" y1="61.05" x2="371.4" y2="61.78"/><path id="_Path_32" data-name="&lt;Path&gt;" class="cls-3" d="M369.17,60.65a.4.4,0,0,0-.17.77l2.27.73a.4.4,0,0,0,.24-.76l-2.27-.73Z"/></g><circle id="_Path_33" data-name="&lt;Path&gt;" cx="369.34" cy="63.77" r="0.54" transform="translate(213.46 404.62) rotate(-75.22)"/><circle id="_Path_34" data-name="&lt;Path&gt;" cx="363.25" cy="62.35" r="0.54" transform="translate(210.3 397.68) rotate(-75.22)"/><polygon id="_Path_35" data-name="&lt;Path&gt;" class="cls-23" points="366.57 62.79 365.77 66.1 364.85 65.68 366.57 62.79"/><path id="_Path_36" data-name="&lt;Path&gt;" class="cls-24" d="M371.09,65a2.8,2.8,0,0,1-1.73.05h0a3,3,0,0,1-1.48-.9"/><path id="_Path_37" data-name="&lt;Path&gt;" class="cls-24" d="M364.7,63.29a2.8,2.8,0,0,1-1.73.05h0a3,3,0,0,1-1.48-.9"/><g id="_Group_3" data-name="&lt;Group&gt;"><path id="_Path_38" data-name="&lt;Path&gt;" class="cls-18" d="M377,64.27a3.16,3.16,0,0,1,1.36-.83c1.95-.71,3.63.72,2.38,2.49-.87,1.23-2.63,4.38-3.38,2.88A6.71,6.71,0,0,1,377,64.27Z"/><polygon id="_Path_39" data-name="&lt;Path&gt;" class="cls-23" points="378.17 64.81 380.43 65.01 378.02 67.55 379.21 65.25 378.17 64.81"/></g><path id="_Path_40" data-name="&lt;Path&gt;" class="cls-5" d="M398.17,93.4h0a2.7,2.7,0,0,0-3.65,1.13L383.87,115.2a2.7,2.7,0,0,0,1.13,3.65h0a2.7,2.7,0,0,0,3.65-1.13L399.3,97.05A2.7,2.7,0,0,0,398.17,93.4Z"/><path id="_Path_41" data-name="&lt;Path&gt;" class="cls-19" d="M389.33,116.63l-2.08,5.08s-3.42,2.45-5,2.74a8.6,8.6,0,0,1-4.53-.83c-1.09-.55,4.18-3.87,4.18-3.87l2.3-4.94Z"/><rect id="_Rectangle_5" data-name="&lt;Rectangle&gt;" class="cls-15" x="382.58" y="113.1" width="8.13" height="4.29" transform="translate(693.33 377.39) rotate(-156.08)"/><path id="_Path_42" data-name="&lt;Path&gt;" class="cls-5" d="M348.12,66.21h0A2.7,2.7,0,0,0,351.23,64l3.55-23a2.7,2.7,0,0,0-2.23-3.11h0a2.7,2.7,0,0,0-3.11,2.23l-3.55,23A2.7,2.7,0,0,0,348.12,66.21Z"/><path id="_Path_43" data-name="&lt;Path&gt;" class="cls-19" d="M349.25,41.37l.42-5.47s2.5-3.38,3.93-4.15a8.6,8.6,0,0,1,4.56-.6c1.21.19-2.79,5-2.79,5l-.67,5.41Z"/><rect class="cls-3" x="305.3" y="33.88" width="104.52" height="2.65"/><circle class="cls-11" cx="420.31" cy="35.2" r="26.03"/><circle class="cls-25" cx="302.47" cy="35.2" r="27.02"/><circle class="cls-15" cx="302.47" cy="35.2" r="22.51"/><path class="cls-26" d="M302.47,16.83h.35V14.2h-.7v2.64Z"/><path class="cls-26" d="M284.1,35.2c0-.12,0-.23,0-.35h-2.64c0,.12,0,.23,0,.35s0,.23,0,.35h2.64C284.1,35.44,284.1,35.32,284.1,35.2Z"/><path class="cls-26" d="M323.47,34.85h-2.64c0,.12,0,.23,0,.35s0,.23,0,.35h2.64c0-.12,0-.23,0-.35S323.48,35,323.47,34.85Z"/><path class="cls-26" d="M302.47,53.58h-.35v2.64h.7V53.57Z"/><path class="cls-26" d="M312.9,17.83l.37-.65-.61-.35-.37.65Z"/><path class="cls-26" d="M285.1,24.77l-.65-.37-.35.61.65.37Z"/><path class="cls-26" d="M320.19,25.38l.65-.37-.35-.61-.65.37Z"/><path class="cls-26" d="M292.64,17.48l-.37-.65-.61.35.37.65Z"/><path class="cls-26" d="M319.84,45.64l.65.37.35-.61-.65-.37Z"/><path class="cls-26" d="M312.3,52.93l.37.65.61-.35-.37-.65Z"/><path class="cls-26" d="M284.75,45l-.65.37.35.61.65-.37Z"/><path class="cls-26" d="M292,52.58l-.37.65.61.35.37-.65Z"/><polygon class="cls-26" points="292.61 28.06 291.7 28.44 291.74 29.42 301.99 35.88 302.86 34.52 292.61 28.06"/><polygon class="cls-26" points="317.04 27.14 317.24 26.23 316.33 25.98 302.07 34.6 302.77 35.76 317.04 27.14"/><circle class="cls-27" cx="302.47" cy="35.2" r="1.8"/><path id="_Path_44" data-name="&lt;Path&gt;" class="cls-17" d="M354.73,41.13a46,46,0,0,1,2.83-4.35c-1.17-1.85-3.66-.08-3.66-.08Z"/><rect id="_Rectangle_6" data-name="&lt;Rectangle&gt;" class="cls-15" x="348.5" y="39.37" width="8.13" height="4.29" transform="translate(6.25 -36.56) rotate(5.99)"/><line class="cls-28" x1="408.28" y1="46.52" x2="430.15" y2="46.71"/><path class="cls-29" d="M430.31,28.44a8.27,8.27,0,0,0-8.2-8.35h0a8.27,8.27,0,0,0-8.35,8.2l-.16,18.27"/><line class="cls-28" x1="408.37" y1="36.71" x2="423.84" y2="36.85"/></svg>