<svg xmlns="http://www.w3.org/2000/svg" xmlns:xlink="http://www.w3.org/1999/xlink" viewBox="0 0 708.66 481.89"><defs><style>.cls-1,.cls-17,.cls-24,.cls-32{fill:none;}.cls-2{isolation:isolate;}.cls-3{clip-path:url(#clip-path);}.cls-22,.cls-4{fill:#fec82b;}.cls-4{opacity:0.72;}.cls-30,.cls-5{fill:#191919;}.cls-5{opacity:0.05;}.cls-14,.cls-6{fill:#f8ab8d;}.cls-16,.cls-7{fill:#dc846a;}.cls-8{fill:#fff;}.cls-9{fill:#353560;}.cls-10{fill:#8b6339;}.cls-11{fill:#979797;}.cls-12{fill:#e5e5e4;}.cls-13{fill:#515180;}.cls-14,.cls-16{fill-rule:evenodd;}.cls-15{fill:gray;}.cls-17,.cls-32{stroke:#dc846a;}.cls-17,.cls-24,.cls-32{stroke-linecap:round;stroke-linejoin:round;}.cls-17{stroke-width:2.13px;}.cls-18{fill:#414042;}.cls-19{fill:#6d6e71;}.cls-20{fill:#b3b2b3;}.cls-21{fill:#4d4e4e;}.cls-23{fill:#f9dba5;}.cls-24{stroke:#000;stroke-width:0.8px;}.cls-25{fill:#474642;}.cls-26{fill:#37614d;}.cls-27{fill:#4c836a;}.cls-28{fill:#b97d4f;}.cls-29{fill:#9d6944;}.cls-30{opacity:0.18;}.cls-31{fill:#e7685d;}.cls-32{stroke-width:2.25px;}.cls-33{fill:#354546;}.cls-34{fill:#455556;}.cls-35{mix-blend-mode:multiply;}.cls-36{fill:#d5e5e6;}</style><clipPath id="clip-path"><rect class="cls-1" y="-85.85" width="709.78" height="842.18"/></clipPath></defs><title>CS-L2-U2</title><g class="cls-2"><g id="Layer_1" data-name="Layer 1"><g class="cls-3"><rect class="cls-4" x="-120.36" y="118.42" width="928.77" height="259.87" transform="translate(76.59 -81.06) rotate(15.1)"/></g><path class="cls-5" d="M342.7,442.11l-28-7.3a7.91,7.91,0,0,0-3.31-.14V423.62h2.48V257.75a10.45,10.45,0,0,0,.42-2.83l.09-4.8L316,250l.16.34a108.48,108.48,0,0,1-1.95,12.6,4.72,4.72,0,0,0,5.8-.43c-.57,2.12-4,15.13-1.16,14.36,1.14-.32,7.14-2.42,10.08-6.3,2.53-3.33,4.79-14,4.79-14l-2.89-7.91,2.06-.18-1-11.48-2.45.22-4-45.66c2.57,1.61,4.82,2.61,5,1.31s.7-7.57-1.66-11.87A24,24,0,0,0,324,175.8l-3.74-42.58a14.45,14.45,0,0,0-.22-2.48l-.36-4a8.28,8.28,0,0,0-8.94-7.5h0a8.26,8.26,0,0,0-.83.12,14.4,14.4,0,0,0-4.18-.62H298.2l-8-3.77V112c7.29-1.36,13.51-6.8,18.09-12.83a5,5,0,0,0,5.33-2.53l2-3.73-1.5-.8h0l-1-.53a47.7,47.7,0,0,0,2.29-4.94A36.18,36.18,0,0,0,318,76.32a7.6,7.6,0,0,0,3.2-1.06,5.73,5.73,0,0,0,2.61-3L319,70a10.81,10.81,0,0,0,4.47-3l0,0a18.67,18.67,0,0,0,3.38-4.33l.23-.39h0l-8-3.82s-5.2-9.63-14.43-13.13c-14.55-5.52-23.48,1.25-23.48,1.25a16.72,16.72,0,0,0-5.53-4c.81,3,1.43,4.42.81,7.84-3.05,2.86-5.64,7.88-7.3,11.67-2.18-.2-4.16,1.24-4.45,4.49-.35,3.88-2.07,12.75,1.36,12.06-1.34,13.34,4.33,27,13.68,32v4.53l-.8-.66-6.35,4.15h-11.5a14,14,0,0,0-4.6.78,8.32,8.32,0,0,0-6.44,4.11l-25.33,43.87a8.74,8.74,0,0,0,6.83,12.87L247,181.38v67.39h6.41v.5a7,7,0,0,0-.08,1v4.13c0,.09,0,.18,0,.28V423.62h2.33v13.82s0,.07,0,.11c-.45-.1-.86-.21-1.22-.32a1.62,1.62,0,0,0-2.08,1.55v10.73a3.21,3.21,0,0,0,3.21,3.21h47.8A1.62,1.62,0,0,0,305,451.1v-.54h39.21a1.62,1.62,0,0,0,1.62-1.62V446.2A4.23,4.23,0,0,0,342.7,442.11ZM245.61,164.6,247,162.1v2.59Zm29.11,259V265.06l17.78.14V423.62h2.33V435a1.61,1.61,0,0,0-1.59,1.61V442l-19.39-5a8.2,8.2,0,0,0-1.61-.24V423.62Z"/><rect id="_Rectangle_" data-name="&lt;Rectangle&gt;" class="cls-6" x="310.73" y="203.38" width="13.14" height="50.37" rx="6.57" ry="6.57" transform="translate(653.39 428.47) rotate(174.98)"/><path id="_Path_" data-name="&lt;Path&gt;" class="cls-7" d="M313.14,249.66s-.94,9.35-2,13.25c4.74,3.1,8.7-3.72,8.7-3.72Z"/><path id="_Path_2" data-name="&lt;Path&gt;" class="cls-6" d="M325.77,243.26l4.87,13.32s-2.26,10.63-4.79,14c-2.94,3.87-8.94,6-10.08,6.3-3,.85,1.24-14.66,1.24-14.66l-4.21-13.43Z"/><rect id="_Rectangle_2" data-name="&lt;Rectangle&gt;" class="cls-8" x="307.49" y="237.93" width="21.85" height="11.53" transform="translate(656.95 458.57) rotate(174.98)"/><path id="_Rectangle_3" data-name="&lt;Rectangle&gt;" class="cls-9" d="M304.65,119h16.51a0,0,0,0,1,0,0V229.91a8.25,8.25,0,0,1-8.25,8.25h0a8.25,8.25,0,0,1-8.25-8.25V119a0,0,0,0,1,0,0Z" transform="translate(640.24 329.05) rotate(174.98)"/><path id="_Path_3" data-name="&lt;Path&gt;" class="cls-10" d="M260.86,370.55h0a8.27,8.27,0,0,1,8.27,8.27v58.61a8.27,8.27,0,0,1-8.27,8.27h0a8.27,8.27,0,0,1-8.27-8.27V378.82A8.27,8.27,0,0,1,260.86,370.55Z"/><path id="_Rectangle_4" data-name="&lt;Rectangle&gt;" class="cls-9" d="M250.26,243.3h21.35a0,0,0,0,1,0,0V412.94a10.68,10.68,0,0,1-10.68,10.68h0a10.68,10.68,0,0,1-10.68-10.68V243.3a0,0,0,0,1,0,0Z" transform="translate(521.87 666.92) rotate(-180)"/><path id="_Path_4" data-name="&lt;Path&gt;" class="cls-10" d="M300,370.55h0a8.27,8.27,0,0,1,8.27,8.27v58.61A8.27,8.27,0,0,1,300,445.7h0a8.27,8.27,0,0,1-8.27-8.27V378.82A8.27,8.27,0,0,1,300,370.55Z"/><path id="_Rectangle_5" data-name="&lt;Rectangle&gt;" class="cls-9" d="M289.39,243.3h21.35a0,0,0,0,1,0,0V412.94a10.68,10.68,0,0,1-10.68,10.68h0a10.68,10.68,0,0,1-10.68-10.68V243.3a0,0,0,0,1,0,0Z" transform="translate(600.13 666.92) rotate(180)"/><path id="_Path_5" data-name="&lt;Path&gt;" class="cls-9" d="M250.61,234.87l60.92.49-.36,19.56a10.47,10.47,0,0,1-10.55,10.38l-40-.32a10.47,10.47,0,0,1-10.38-10.55Z"/><path id="_Rectangle_6" data-name="&lt;Rectangle&gt;" class="cls-11" d="M243.94,118.7H317.2a0,0,0,0,1,0,0V226.58A22.19,22.19,0,0,1,295,248.77H266.87a22.93,22.93,0,0,1-22.93-22.93V118.7A0,0,0,0,1,243.94,118.7Z" transform="translate(561.14 367.47) rotate(-180)"/><polygon id="_Path_6" data-name="&lt;Path&gt;" class="cls-9" points="265.27 118.7 263.07 125.98 269.07 131.96 266.55 136.68 292.91 173.74 303.32 136.58 300.05 131.72 302.17 125.98 297.59 118.7 265.27 118.7"/><polygon id="_Path_7" data-name="&lt;Path&gt;" class="cls-8" points="295.09 118.7 290.43 161.45 269.5 118.7 295.09 118.7"/><path id="_Path_8" data-name="&lt;Path&gt;" class="cls-6" d="M282.07,99.83h-.19a5.26,5.26,0,0,1,5.23,5.42v11.59c0,3-2.24,3.92-5.23,3.92H282c-3,0-5.33-.93-5.33-3.92V105.25A5.42,5.42,0,0,1,282.07,99.83Z"/><polygon id="_Path_9" data-name="&lt;Path&gt;" class="cls-12" points="269.5 118.7 275.85 114.55 282.76 120.24 278.73 129.75 269.5 118.7"/><polygon id="_Path_10" data-name="&lt;Path&gt;" class="cls-12" points="295.09 118.7 286.31 114.55 282.76 120.24 290.43 129.75 295.09 118.7"/><polygon id="_Path_11" data-name="&lt;Path&gt;" class="cls-11" points="282.76 120.24 280.36 125.91 286.31 131.72 287.98 126.7 282.76 120.24"/><polygon id="_Path_12" data-name="&lt;Path&gt;" class="cls-13" points="284.61 129.67 283.68 147.65 290.43 161.45 292.1 146.18 286.8 129.13 284.61 129.67"/><ellipse id="_Path_13" data-name="&lt;Path&gt;" class="cls-9" cx="287.89" cy="193.8" rx="3.4" ry="4.21"/><ellipse id="_Path_14" data-name="&lt;Path&gt;" class="cls-9" cx="287.89" cy="216.82" rx="3.4" ry="4.21"/><rect id="_Rectangle_7" data-name="&lt;Rectangle&gt;" class="cls-9" x="258.41" y="207.65" width="16.28" height="6.03"/><path id="_Path_15" data-name="&lt;Path&gt;" class="cls-14" d="M279.23,111.83c-12.43-4.3-19.62-23.13-15.12-39.37,4.74-17.1,21.54-25.09,34.34-19,14.56,6.92,20.33,16.65,13.88,33.19-4.05,10.38-16.69,29-33.1,25.18Z"/><path id="_Path_16" data-name="&lt;Path&gt;" class="cls-11" d="M273.35,50.43c-3.41,3.2-6.25,9.11-7.85,13a4.17,4.17,0,0,1,3.6.74,5,5,0,0,1,.45.37h0l.21.2.21.21.21.24.14.18.23.32.17.27.16.28.14.29.14.3c.09.2.16.41.23.62l0,0s0,.09,0,.14a.67.67,0,0,0,0,.09s0,.06,0,.09a.16.16,0,0,1,0,0,.14.14,0,0,1,0,0v0a.21.21,0,0,1,0,0l-3.29,6.87a3.41,3.41,0,0,0-.37,2.65,4.14,4.14,0,0,0,.15.5,5.44,5.44,0,0,0,1.8,1.61A4,4,0,0,0,274.89,78l1.18-2.46a3.93,3.93,0,0,1,5-2l.64.25c1.39-2.77,2.43-5,3.06-6.39.79-1.72,2-2.54,5.93-1.11l.11,0c.35.12.71.27,1.1.43l.08,0c.67.28,1.41.61,2.22,1l17.37,8.32.22,0a9.51,9.51,0,0,0,6.31-1,5.73,5.73,0,0,0,2.61-3L315.87,70a10.81,10.81,0,0,0,4.47-3A25.25,25.25,0,0,0,324,62.25l-8-3.82s-5.2-9.63-14.43-13.13c-14.55-5.52-23.48,1.25-23.48,1.25a16.72,16.72,0,0,0-5.53-4C273.36,45.57,274,47,273.35,50.43Z"/><path id="_Path_17" data-name="&lt;Path&gt;" class="cls-15" d="M292,66.87c.67.28,1.41.61,2.22,1l17.37,8.32.22,0a9.51,9.51,0,0,0,6.31-1,5.73,5.73,0,0,0,2.61-3s-6.37,2.68-9.25,1.89l-.22-.07C308.32,73.23,296,68.45,292,66.87Z"/><path id="_Path_18" data-name="&lt;Path&gt;" class="cls-8" d="M287,100.89c3.37,1.61,7.2,1.21,8.19-.87l.23-.49-13-6.22-.23.49c-.91,1.89.11,4.85,3.78,6.61Z"/><path id="_Path_19" data-name="&lt;Path&gt;" class="cls-15" d="M324,62.25s-6.46,5.56-11.68,5.26c-4.43-.26-22.81-8.35-22.81-8.35a34.26,34.26,0,0,0,5,4c1.57,1,17.25,9.09,21.43,6.79A17.21,17.21,0,0,0,324,62.25Z"/><g id="_Group_" data-name="&lt;Group&gt;"><line id="_Path_20" data-name="&lt;Path&gt;" class="cls-11" x1="309.71" y1="83.11" x2="304.02" y2="80.02"/><path id="_Path_21" data-name="&lt;Path&gt;" class="cls-11" d="M310.29,84.19a1.08,1.08,0,0,0,1-1.87L306,78.63a1.08,1.08,0,0,0-1.23,1.77l5.32,3.69Z"/></g><g id="_Group_2" data-name="&lt;Group&gt;"><line id="_Path_22" data-name="&lt;Path&gt;" class="cls-11" x1="292.56" y1="75.99" x2="286.59" y2="73.49"/><path id="_Path_23" data-name="&lt;Path&gt;" class="cls-11" d="M293.16,75.09a1.08,1.08,0,0,1-1,1.89l-6-2.5a1.08,1.08,0,0,1,.83-2l6,2.5Z"/></g><circle id="_Path_24" data-name="&lt;Path&gt;" cx="288.21" cy="80.18" r="1.46" transform="translate(91.39 305.47) rotate(-64.41)"/><polygon id="_Path_25" data-name="&lt;Path&gt;" class="cls-16" points="294.12 84.34 289.95 92.58 292.61 93.35 294.12 84.34"/><path id="_Path_26" data-name="&lt;Path&gt;" class="cls-17" d="M282.46,79.61a7.6,7.6,0,0,0,3.49,3.15h0a8.16,8.16,0,0,0,4.64.75"/><path id="_Path_27" data-name="&lt;Path&gt;" class="cls-17" d="M298.62,87.35a7.6,7.6,0,0,0,3.49,3.15h0a8.16,8.16,0,0,0,4.64.75"/><g id="_Group_3" data-name="&lt;Group&gt;"><path id="_Path_28" data-name="&lt;Path&gt;" class="cls-14" d="M272.22,69.72a8.56,8.56,0,0,0-1.34-4.1c-2.78-4.88-8.76-4.87-9.28,1-.36,4.07-2.25,13.67,1.92,11.89A18.19,18.19,0,0,0,272.22,69.72Z"/><polygon id="_Path_29" data-name="&lt;Path&gt;" class="cls-16" points="268.78 68.68 263.75 65.14 264.28 74.62 265.85 67.77 268.78 68.68"/></g><path class="cls-18" d="M298.86,85.59l13.67,7.33-2,3.73a5,5,0,0,1-6.73,2L298.89,96a5,5,0,0,1-2-6.73Z"/><path class="cls-19" d="M301.62,87.07l2.8,1.5L296.32,91a4.92,4.92,0,0,1,.54-1.7l.52-1Z"/><path class="cls-19" d="M305.37,89.08l5.67,3-12.44,3.76a5,5,0,0,1-2.32-4Z"/><rect class="cls-18" x="293.48" y="78.19" width="1.52" height="11.57" transform="translate(81.21 303.62) rotate(-61.81)"/><path class="cls-18" d="M279.66,75.29l13.67,7.33-2,3.73a5,5,0,0,1-6.73,2l-4.91-2.63a5,5,0,0,1-2-6.73Z"/><path class="cls-19" d="M282.42,76.77l2.8,1.5-8.1,2.45a4.93,4.93,0,0,1,.54-1.7l.52-1Z"/><path class="cls-19" d="M286.17,78.78l5.67,3-12.44,3.76a5,5,0,0,1-2.32-4Z"/><path id="_Path_30" data-name="&lt;Path&gt;" class="cls-20" d="M290.13,436.62v10.65h52.63V446.2a4.23,4.23,0,0,0-3.16-4.09l-28-7.3a7.81,7.81,0,0,0-3.93,0c-7.48,1.94-12.74,1.08-15.44.28A1.62,1.62,0,0,0,290.13,436.62Z"/><path id="_Path_31" data-name="&lt;Path&gt;" class="cls-21" d="M290.13,447.27v.08a3.21,3.21,0,0,0,3.21,3.21h47.8a1.62,1.62,0,0,0,1.62-1.62v-1.68Z"/><rect id="_Rectangle_8" data-name="&lt;Rectangle&gt;" class="cls-6" x="273.86" y="150.5" width="13.28" height="50.8" rx="6.64" ry="6.64" transform="translate(89.22 446.14) rotate(-86.8)"/><path id="_Path_32" data-name="&lt;Path&gt;" class="cls-7" d="M300.73,183.72s8.23,4.7,11.38,7.29c4.8-3.09.15-9.54.15-9.54Z"/><path id="_Path_33" data-name="&lt;Path&gt;" class="cls-6" d="M300.51,170.36l14.27.48s8.86,6.45,10.89,10.14c2.36,4.3,1.84,10.69,1.66,11.87-.47,3.15-13-7.16-13-7.16l-15-2.1Z"/><rect id="_Rectangle_9" data-name="&lt;Rectangle&gt;" class="cls-9" x="233.18" y="116.03" width="16.65" height="67.31" rx="8.32" ry="8.32" transform="translate(375.81 400.07) rotate(-150)"/><path id="_Rectangle_10" data-name="&lt;Rectangle&gt;" class="cls-9" d="M246.31,140.09h15.55a.75.75,0,0,1,.75.75v58.23a8.32,8.32,0,0,1-8.32,8.32h0a8.32,8.32,0,0,1-8.32-8.32V140.43a.34.34,0,0,1,.34-.34Z" transform="translate(444.84 -68.21) rotate(93.88)"/><path id="_Path_34" data-name="&lt;Path&gt;" class="cls-5" d="M252.66,439.57l-.07,10.65,52.63.34v-1.06a4.23,4.23,0,0,0-3.14-4.11l-28-7.48a7.81,7.81,0,0,0-3.93,0c-7.49,1.89-12.75,1-15.44.18A1.62,1.62,0,0,0,252.66,439.57Z"/><path id="_Path_35" data-name="&lt;Path&gt;" class="cls-20" d="M249.3,438.78v10.65h52.63v-1.06a4.23,4.23,0,0,0-3.16-4.09l-28-7.3a7.81,7.81,0,0,0-3.93,0c-7.48,1.94-12.74,1.08-15.44.28A1.62,1.62,0,0,0,249.3,438.78Z"/><path id="_Path_36" data-name="&lt;Path&gt;" class="cls-21" d="M249.3,449.42v.08a3.21,3.21,0,0,0,3.21,3.21h47.8a1.62,1.62,0,0,0,1.62-1.62v-1.68Z"/><rect id="_Rectangle_11" data-name="&lt;Rectangle&gt;" class="cls-8" x="271.1" y="169.49" width="22.03" height="11.63" transform="translate(91.34 447.2) rotate(-86.8)"/><path class="cls-22" d="M295.5,185l-4-.21a.62.62,0,0,1-.59-.65l.79-14.79,5.24.27-.79,14.79A.62.62,0,0,1,295.5,185Z"/><rect class="cls-23" x="291.23" y="178.67" width="5.24" height="0.79" transform="translate(9.76 -15.12) rotate(3)"/><rect class="cls-23" x="291.19" y="179.76" width="5.24" height="0.39" transform="translate(9.81 -15.11) rotate(3)"/><rect class="cls-23" x="289.91" y="168.95" width="8.88" height="1.46" rx="0.73" ry="0.73" transform="translate(9.27 -15.16) rotate(3)"/><path class="cls-24" d="M303.39,86.5a3.52,3.52,0,0,1,4.11,2.22"/><path class="cls-24" d="M307.06,86.18a3.51,3.51,0,0,1,.49,2.45"/><path class="cls-5" d="M477.24,331.3l-.41-5.93h0l-.2-2.94a5.11,5.11,0,0,0,0-1l-6.08-46.16a5.1,5.1,0,0,0-.1-1l-6-29.72,1.41-.3-1.48-7.34v-3.43a11.79,11.79,0,0,0-2.19-6.85,6.45,6.45,0,0,0-4.81-4,11.8,11.8,0,0,0-4.86-1h-4.08a12.73,12.73,0,0,0-6.49-3.88l-1.16-.28h0L439,217l-1-.25v-4.28a4.17,4.17,0,0,0-.06-.71,30.51,30.51,0,0,0,13-10.27l0,.06c1.63,3.8,6.41-3.72,8.73-6.63a5,5,0,0,0,1.23-3l13.51,13.24a.65.65,0,0,0,.91,0l.34-.32h0l.42-.4a.64.64,0,0,0,0-.91L461.2,188.13l2.59-2.5.08-.09.34-.33a20.52,20.52,0,0,0,.51-29l-5.81-6a20.52,20.52,0,0,0-20.39-5.48l-.05,0a19.76,19.76,0,0,0-8.24,4.55v0l-.43.37s0,.09,0,.13l-4.63,4.47-6.28-2h0s0,.15-.1.42a17.49,17.49,0,0,0-.51,5.12v0a10.13,10.13,0,0,0,1.1,4.91l-4.75-1.55a5.37,5.37,0,0,0-.16,3.71,7.78,7.78,0,0,0,2.25,3.61,38.88,38.88,0,0,0-2.63,5.3c-3.88,9.46-7.29,29.85,6.05,37.68a26.47,26.47,0,0,0,9.73,1.89v2a12.85,12.85,0,0,0-10.62,6.34,12.16,12.16,0,0,0-6.17,2.3,6.45,6.45,0,0,0-5.2,5.16l-3.12,16.65L406,246l-5.46,29.12c0,.09-.06.17-.08.26l-11.38,43.89h0l-3.88,9.62v0h0s.9,4.62,1.39,6.64l.24.06a14,14,0,0,0,1.54,3.57c2.06,2.9,6.39,4.59,7.22,4.85,1.21.38.93-2.91.42-5.94h0l-.18-.84c-.13-.7-.26-1.36-.38-1.93a3.21,3.21,0,0,0,3.2-.2,77.34,77.34,0,0,1-1.1-9.06l.48-1.38a5.09,5.09,0,0,0,.4-1L408,286.88v34.6h3.38l.17,9.19a8,8,0,0,0,.37,2.36v77.13H415v33c-1-1.68-2.31-1.93-2.68,2.16a7.14,7.14,0,0,0,0,1.55l-1.35.79c0-.07,0-.12,0-.13a1,1,0,0,0-2.07.17,5.88,5.88,0,0,0,.21,1.05l-1.78,1a3.58,3.58,0,0,1-.07-.38,1,1,0,0,0-2.07.17,6.11,6.11,0,0,0,.28,1.29l-2.27,1.32a12.4,12.4,0,0,1-4.66,1.6l-5,.66a1.94,1.94,0,0,0-1,.41,1.83,1.83,0,0,0-.36.38,4.24,4.24,0,0,0-.82,2.5c0,.05,0,.11,0,.16a4.21,4.21,0,0,0,.41,1.67l0,.08a4,4,0,0,0,3.63,2.29H421.3l0,.1,0,.08a4,4,0,0,0,3.63,2.29h31.91a1.85,1.85,0,0,0,1.83-1.58c.08-.56.17-1.25.24-2a21.7,21.7,0,0,0-.63-8.33,9,9,0,0,0-1.06-2.22,1.57,1.57,0,0,0-1.47-.66V418.4h2.52V331.16c0-.1,0-.2,0-.3s0-.38,0-.57l-.16-8.81h6.09V306.23l2.14,16.28.07,3.11a75.79,75.79,0,0,1-3.78,8.11,3.14,3.14,0,0,0,2.53,1.19c-.51.91-1.07,2-1.57,3h0c-1.12,2.31-1.9,4.51-.83,4.52.85,0,5.42-.24,8.23-2.33,2.41-1.79,6.11-8.69,6.11-8.69v0ZM443.74,436.14v8.53c-.81-.61-1.63,0-1.91,3.09a7.14,7.14,0,0,0,0,1.55l-1.35.79c0-.07,0-.12,0-.13a1,1,0,0,0-2.07.17,5.88,5.88,0,0,0,.21,1.05l-1.78,1a3.58,3.58,0,0,1-.07-.38,1,1,0,0,0-2.07.17,6.11,6.11,0,0,0,.28,1.29l-2.27,1.32a12.41,12.41,0,0,1-3.12,1.28,18.51,18.51,0,0,0-.76-5.93,9,9,0,0,0-1.06-2.22,1.81,1.81,0,0,0-.7-.57v-37h2.53v-71.6l11.06-.09V418.4h3.07Zm-5.82-214.57c0-.07,0-.14,0-.22v-1.27l3.55.86a10.15,10.15,0,0,1,1.8.63Zm-8,0h-6.48a10.19,10.19,0,0,1,6.47-2.95v2.73C429.9,221.43,429.91,221.5,429.91,221.57Z"/><rect id="_Rectangle_12" data-name="&lt;Rectangle&gt;" class="cls-6" x="410.57" y="377.82" width="12.08" height="75.87" rx="6.04" ry="6.04"/><rect id="_Rectangle_13" data-name="&lt;Rectangle&gt;" class="cls-21" x="410.57" y="438.74" width="12.08" height="16.62"/><rect id="_Rectangle_14" data-name="&lt;Rectangle&gt;" class="cls-6" x="439.31" y="377.82" width="12.08" height="75.87" rx="6.04" ry="6.04"/><rect id="_Rectangle_15" data-name="&lt;Rectangle&gt;" class="cls-6" x="410.57" y="332.37" width="12.08" height="57.53" rx="6.04" ry="6.04"/><path id="_Rectangle_16" data-name="&lt;Rectangle&gt;" class="cls-25" d="M416.34,321.69h0a8.84,8.84,0,0,1,8.84,8.84v79a0,0,0,0,1,0,0H407.51a0,0,0,0,1,0,0v-79a8.84,8.84,0,0,1,8.84-8.84Z"/><g id="_Group_4" data-name="&lt;Group&gt;"><path id="_Path_37" data-name="&lt;Path&gt;" class="cls-26" d="M411.74,446.4c.17,1.82-2.38,1.43-3,1.23-1.14-.36-.85-3-.85-3C408.49,438.12,411.49,442.68,411.74,446.4Z"/><path id="_Path_38" data-name="&lt;Path&gt;" class="cls-27" d="M421.86,454.23a4.62,4.62,0,0,1-2.3,4H399.2l-2.14-2.95s-3.86.08-6.12,0-2.78-1.06-2.78-1.06a1.94,1.94,0,0,1,1-.41l5-.66a12.4,12.4,0,0,0,4.66-1.6l10-5.87a2.54,2.54,0,0,1,1.84,0c.62.2,1.12.51,2,1.74,1.09,2,6,2.12,7.77.06s2.91-.34,2.91-.34a9,9,0,0,1,1.06,2.22C422.63,449.29,421.79,451.5,421.86,454.23Z"/><path id="_Path_39" data-name="&lt;Path&gt;" class="cls-21" d="M425.05,457.69c-.07.77-.16,1.45-.24,2a1.85,1.85,0,0,1-1.83,1.58H391.07a4,4,0,0,1-3.63-2.29l0-.08a4.21,4.21,0,0,1-.41-1.67l.36.15a10.2,10.2,0,0,0,4,.81h30.8a8,8,0,0,0,2.26-.33Z"/><path id="_Path_40" data-name="&lt;Path&gt;" class="cls-26" d="M425.05,457.69l-.67.2a8,8,0,0,1-2.26.33h-2.57a4.62,4.62,0,0,0,2.3-4c-.07-2.72.77-4.94,2.56-4.87A21.7,21.7,0,0,1,425.05,457.69Z"/><path id="_Path_41" data-name="&lt;Path&gt;" class="cls-26" d="M399.2,458.22h-7.87a10.2,10.2,0,0,1-4-.81l-.36-.15c0-.05,0-.11,0-.16a4.23,4.23,0,0,1,.82-2.5,1.83,1.83,0,0,1,.36-.38s.51,1,2.78,1.06,6.12,0,6.12,0Z"/><path id="_Path_42" data-name="&lt;Path&gt;" class="cls-8" d="M407.86,451.53a1,1,0,0,1-.4-.08c-2.69-1.13-3-4.27-3-4.4a1,1,0,0,1,2.07-.17,3.4,3.4,0,0,0,1.72,2.66,1,1,0,0,1-.4,2Z"/><path id="_Path_43" data-name="&lt;Path&gt;" class="cls-8" d="M404.16,453.41a1,1,0,0,1-.4-.08c-2.69-1.13-3-4.27-3-4.4a1,1,0,0,1,2.07-.17,3.4,3.4,0,0,0,1.72,2.66,1,1,0,0,1-.4,2Z"/></g><path id="_Path_44" data-name="&lt;Path&gt;" class="cls-6" d="M387.87,326.64h0a5.09,5.09,0,0,1-3.66-6.2l11.86-45.73a5.09,5.09,0,0,1,6.19-3.65h0a5.09,5.09,0,0,1,3.66,6.2L394.06,323A5.09,5.09,0,0,1,387.87,326.64Z"/><path id="_Path_45" data-name="&lt;Path&gt;" class="cls-6" d="M400.11,281h0a5.09,5.09,0,0,1-4.08-5.94l8.7-46.43a5.09,5.09,0,0,1,5.92-4.06h0a5.09,5.09,0,0,1,4.08,5.94L406,276.94A5.09,5.09,0,0,1,400.11,281Z"/><path id="_Path_46" data-name="&lt;Path&gt;" class="cls-27" d="M400.34,245.1l3.12-16.65a6.45,6.45,0,0,1,7.51-5.16h0a6.45,6.45,0,0,1,5.17,7.53L413,247.39Z"/><path id="_Path_47" data-name="&lt;Path&gt;" class="cls-7" d="M393.12,324.74a87,87,0,0,0,1.15,9.73c-3.54,2.15-6.27-2.93-6.27-2.93Z"/><path id="_Path_48" data-name="&lt;Path&gt;" class="cls-6" d="M384.68,318.59l-3.88,9.62s1.4,7.83,3.16,10.32c2.06,2.9,6.39,4.59,7.22,4.85,2.21.69-.55-10.75-.55-10.75l3.41-9.72Z"/><path id="_Path_49" data-name="&lt;Path&gt;" class="cls-25" d="M453.65,314.64l-46.79.38.28,15a8,8,0,0,0,8.1,8l30.72-.25a8,8,0,0,0,8-8.1Z"/><path id="_Rectangle_17" data-name="&lt;Rectangle&gt;" class="cls-27" d="M422.93,220.94h18.2a18.72,18.72,0,0,1,18.72,18.72v81.18a0,0,0,0,1,0,0H403.59a0,0,0,0,1,0,0V240.28A19.34,19.34,0,0,1,422.93,220.94Z"/><path id="_Path_50" data-name="&lt;Path&gt;" class="cls-14" d="M415.74,210.74c15.5,6,27.67-2.95,35-16.58,7.68-14.36,1.57-30.3-10.78-34.36-14.05-4.62-24-1.81-30.23,13.26-3.88,9.46-7.29,29.85,6.05,37.68Z"/><g id="_Group_5" data-name="&lt;Group&gt;"><line id="_Path_51" data-name="&lt;Path&gt;" class="cls-10" x1="413.23" y1="174.39" x2="419.29" y2="175.7"/><path id="_Path_52" data-name="&lt;Path&gt;" class="cls-10" d="M412.82,175.34a1,1,0,0,1,.62-2l6.06,1.31a1,1,0,0,1-.44,2L413,175.4Z"/></g><g id="_Group_6" data-name="&lt;Group&gt;"><line id="_Path_53" data-name="&lt;Path&gt;" class="cls-10" x1="426.4" y1="181.07" x2="432.57" y2="181.59"/><path id="_Path_54" data-name="&lt;Path&gt;" class="cls-10" d="M426.28,180a1,1,0,0,0,0,2.06l6.18.52a1,1,0,0,0,.17-2.06l-6.18-.52Z"/></g><circle id="_Path_55" data-name="&lt;Path&gt;" cx="427.83" cy="185.49" r="1.4" transform="translate(119.08 534.95) rotate(-71.98)"/><circle id="_Path_56" data-name="&lt;Path&gt;" cx="413.49" cy="181.33" r="1.4" transform="translate(113.13 518.43) rotate(-71.98)"/><polygon id="_Path_57" data-name="&lt;Path&gt;" class="cls-16" points="420.75 182.74 417.17 194.35 414.87 192.98 420.75 182.74"/><g id="_Group_7" data-name="&lt;Group&gt;"><path id="_Path_58" data-name="&lt;Path&gt;" class="cls-28" d="M456.46,176.22c.25,4.38-1.65,10.22-3.06,13.88a3.91,3.91,0,0,0-2.92-1.82,4.67,4.67,0,0,0-.55,0h-.56l-.3,0-.21,0-.36.07-.29.07-.29.09-.28.1-.29.11-.56.27s0,0,0,0l-.12.07-.07,0-.08,0,0,0,0,0,0,0,0,0-2.21,6.78a3.2,3.2,0,0,1-1.46,2,3.88,3.88,0,0,1-.43.24s0,.06,0,.08a4.7,4.7,0,0,1-2.28-.15,3.72,3.72,0,0,1-2.51-4.38l1.57-4.82c-.34-1-1.43-1.59-3.46-2.4.85-2.78,1.59-5,2.05-6.31.58-1.68.31-3-3.3-4.59l-.11,0-1-.42-.08,0c-.64-.24-1.35-.5-2.15-.76L413.89,169l-.18-.11a8.91,8.91,0,0,1-3.65-4.74,5.37,5.37,0,0,1,.16-3.71L415,162a10.13,10.13,0,0,1-1.1-4.91,23.66,23.66,0,0,1,.61-5.56l7.88,2.56s9.75-3.17,18.28.42c13.44,5.66,15.12,16,15.12,16a15.67,15.67,0,0,1,6.32.89C459.59,172.92,458.24,173.49,456.46,176.22Z"/><path id="_Path_59" data-name="&lt;Path&gt;" class="cls-29" d="M433.21,175.35c-.64-.24-1.35-.5-2.15-.76L413.89,169l-.18-.11a8.91,8.91,0,0,1-3.65-4.74,5.37,5.37,0,0,1,.16-3.71s2.59,5.94,5.05,7.26l.19.1C418,169.08,429.44,173.8,433.21,175.35Z"/><g id="_Group_8" data-name="&lt;Group&gt;"><path id="_Path_60" data-name="&lt;Path&gt;" class="cls-14" d="M446.2,189.67a7.8,7.8,0,0,1,3.46-1.86c4.9-1.47,8.83,2.29,5.51,6.46-2.32,2.91-7.1,10.43-8.73,6.63A16.56,16.56,0,0,1,446.2,189.67Z"/><polygon id="_Path_61" data-name="&lt;Path&gt;" class="cls-16" points="449.12 191.16 454.66 191.98 448.36 197.9 451.62 192.39 449.12 191.16"/></g></g><path id="_Path_62" data-name="&lt;Path&gt;" class="cls-29" d="M414.48,151.52s.79,8,4.53,11.12c3.17,2.69,20.87,9.08,20.87,9.08a32.1,32.1,0,0,1-6-.48c-1.68-.36-17.58-5-18.93-9.25A16.13,16.13,0,0,1,414.48,151.52Z"/><path class="cls-30" d="M471.17,203.27l-14.83-15.37,3-2.92a20.52,20.52,0,0,0,.51-29l-5.81-6a20.52,20.52,0,0,0-20.39-5.48l-.05,0a19.76,19.76,0,0,0-8.24,4.55s0,.1,0,.15l-.35.32L420.32,154l34.32,35.55h0l15.26,15a.65.65,0,0,0,.91,0l.34-.32A.65.65,0,0,0,471.17,203.27Z"/><path id="_Path_63" data-name="&lt;Path&gt;" class="cls-7" d="M462.33,324.35a85.52,85.52,0,0,1-4,8.75c2.65,3.09,6.76-.83,6.76-.83Z"/><path id="_Path_64" data-name="&lt;Path&gt;" class="cls-6" d="M472.06,320.59l.7,10.18s-3.69,6.89-6.11,8.69c-2.81,2.09-7.38,2.34-8.23,2.33-2.27,0,3.79-9.88,3.79-9.88L462,321.78Z"/><path id="_Path_65" data-name="&lt;Path&gt;" class="cls-6" d="M467.75,326.47h0A5.09,5.09,0,0,1,462,322.1l-6.17-46.84a5.09,5.09,0,0,1,4.37-5.71h0a5.09,5.09,0,0,1,5.72,4.38l6.17,46.84A5.09,5.09,0,0,1,467.75,326.47Z"/><path id="_Path_66" data-name="&lt;Path&gt;" class="cls-6" d="M462,279.58h0a5.09,5.09,0,0,1-6-4L446.6,229.3a5.09,5.09,0,0,1,4-6h0a5.09,5.09,0,0,1,6,4l9.36,46.31A5.09,5.09,0,0,1,462,279.58Z"/><path id="_Path_67" data-name="&lt;Path&gt;" class="cls-27" d="M448.71,246.21l-3.36-16.61a6.45,6.45,0,0,1,5-7.6h0a6.45,6.45,0,0,1,7.62,5l3.34,16.52Z"/><rect id="_Rectangle_18" data-name="&lt;Rectangle&gt;" class="cls-6" x="439.31" y="332.37" width="12.08" height="57.53" rx="6.04" ry="6.04"/><path class="cls-30" d="M448.86,232.88v0a2.94,2.94,0,0,0-1.4-3.24h0a12.84,12.84,0,0,0-9.79-11.9l-1.16-.28h0l-1.67-.4-4.51-1.09h0l-1.16-.28a12.84,12.84,0,0,0-14.15,6.1A2.94,2.94,0,0,0,412.3,224v0a1.34,1.34,0,0,0-1.37,1l-1.57,6.47a1.34,1.34,0,0,0,.74,1.55,3,3,0,0,0,.37,2.18,2.68,2.68,0,0,0,.29.39,2.84,2.84,0,0,0,1.43.9l.11,0a3,3,0,0,0,1.15.05,2.71,2.71,0,0,0,.94-.33,2.91,2.91,0,0,0,1.48-1.9l2.18-9a2.89,2.89,0,0,0-.35-2.23.92.92,0,0,0-.09-.13,1.51,1.51,0,0,0-.11-.16l.24-.38a10.16,10.16,0,0,1,10.83-4.23l1.16.28h0l7.34,1.78a10.14,10.14,0,0,1,7.73,9.17h0a2.93,2.93,0,0,0-1.64,2l-2.18,9a2.95,2.95,0,0,0,5.71,1.44,1.35,1.35,0,0,0,1.38-1l1.57-6.47A1.35,1.35,0,0,0,448.86,232.88Z"/><path id="_Rectangle_19" data-name="&lt;Rectangle&gt;" class="cls-25" d="M445.08,321.69h0a8.84,8.84,0,0,1,8.84,8.84v87.24a0,0,0,0,1,0,0H436.24a0,0,0,0,1,0,0V330.52A8.84,8.84,0,0,1,445.08,321.69Z"/><rect id="_Rectangle_20" data-name="&lt;Rectangle&gt;" class="cls-21" x="439.31" y="435.51" width="12.08" height="16.62"/><g id="_Group_9" data-name="&lt;Group&gt;"><path id="_Path_68" data-name="&lt;Path&gt;" class="cls-26" d="M441.25,448.87c.17,1.82-2.38,1.43-3,1.23-1.14-.36-.85-3-.85-3C438,440.59,441,445.14,441.25,448.87Z"/><path id="_Path_69" data-name="&lt;Path&gt;" class="cls-27" d="M451.36,456.69a4.62,4.62,0,0,1-2.3,4H428.7l-2.14-2.95s-3.86.08-6.12,0-2.78-1.06-2.78-1.06a1.94,1.94,0,0,1,1-.41l5-.66a12.4,12.4,0,0,0,4.66-1.6l10-5.87a2.54,2.54,0,0,1,1.84,0c.62.2,1.12.51,2,1.74,1.09,2,6,2.12,7.77.06s2.91-.34,2.91-.34a9,9,0,0,1,1.06,2.22C452.13,451.75,451.29,454,451.36,456.69Z"/><path id="_Path_70" data-name="&lt;Path&gt;" class="cls-21" d="M454.56,460.16c-.07.77-.16,1.45-.24,2a1.85,1.85,0,0,1-1.83,1.58H420.57a4,4,0,0,1-3.63-2.29l0-.08a4.21,4.21,0,0,1-.41-1.67l.36.15a10.2,10.2,0,0,0,4,.81h30.8a8,8,0,0,0,2.26-.33Z"/><path id="_Path_71" data-name="&lt;Path&gt;" class="cls-26" d="M454.56,460.16l-.67.2a8,8,0,0,1-2.26.33h-2.57a4.62,4.62,0,0,0,2.3-4c-.07-2.72.77-4.94,2.56-4.87A21.7,21.7,0,0,1,454.56,460.16Z"/><path id="_Path_72" data-name="&lt;Path&gt;" class="cls-26" d="M428.7,460.68h-7.87a10.2,10.2,0,0,1-4-.81l-.36-.15c0-.05,0-.11,0-.16a4.23,4.23,0,0,1,.82-2.5,1.83,1.83,0,0,1,.36-.38s.51,1,2.78,1.06,6.12,0,6.12,0Z"/><path id="_Path_73" data-name="&lt;Path&gt;" class="cls-8" d="M437.36,454a1,1,0,0,1-.4-.08c-2.69-1.13-3-4.27-3-4.4a1,1,0,0,1,2.07-.17,3.4,3.4,0,0,0,1.72,2.66,1,1,0,0,1-.4,2Z"/><path id="_Path_74" data-name="&lt;Path&gt;" class="cls-8" d="M433.66,455.88a1,1,0,0,1-.4-.08c-2.69-1.13-3-4.27-3-4.4a1,1,0,0,1,2.07-.17,3.4,3.4,0,0,0,1.72,2.66,1,1,0,0,1-.4,2Z"/></g><path class="cls-25" d="M447.65,148.41h0a24.71,24.71,0,0,1,24.71,24.71v2.37a0,0,0,0,1,0,0H422.94a0,0,0,0,1,0,0v-2.37A24.71,24.71,0,0,1,447.65,148.41Z" transform="translate(253.24 -272.59) rotate(46.01)"/><path class="cls-25" d="M450.88,194.34h23a1,1,0,0,1,1,1v.32a1,1,0,0,1-1,1h-23a0,0,0,0,1,0,0v-2.35A0,0,0,0,1,450.88,194.34Z" transform="translate(282.04 -273.29) rotate(46.01)"/><path class="cls-31" d="M427.81,152.07A5.09,5.09,0,0,0,434,144a19.76,19.76,0,0,0-8.24,4.55A5.08,5.08,0,0,0,427.81,152.07Z"/><path class="cls-32" d="M415.51,200.46c2.43-.32,7.78-.76,8.78-.44"/><path class="cls-33" d="M436.26,216.78l-.63,2.61-7.34-1.78a10.16,10.16,0,0,0-10.83,4.23l-.24.38a9.75,9.75,0,0,0-1.18,2.85,1.34,1.34,0,1,1-2.61-.63,12.58,12.58,0,0,1,1.34-3.34,12.84,12.84,0,0,1,14.15-6.1Z"/><path class="cls-34" d="M417.78,224.74l-2.18,9a2.91,2.91,0,0,1-1.48,1.9,2.71,2.71,0,0,1-.94.33,3,3,0,0,1-1.15-.05l-.11,0a2.84,2.84,0,0,1-1.43-.9,2.68,2.68,0,0,1-.29-.39,3,3,0,0,1-.37-2.18l2.2-9.07a2.94,2.94,0,0,1,2.73-2.25,2.83,2.83,0,0,1,.84.07,2.88,2.88,0,0,1,1.61,1,1.5,1.5,0,0,1,.11.16.93.93,0,0,1,.09.13A2.89,2.89,0,0,1,417.78,224.74Z"/><path class="cls-33" d="M413.28,225l-1.57,6.47a1.34,1.34,0,0,1-.56.81,1.35,1.35,0,0,1-1.07.19,1.24,1.24,0,0,1-.24-.09,1.34,1.34,0,0,1-.75-1.55l1.57-6.47a1.34,1.34,0,0,1,1.37-1l.25,0A1.34,1.34,0,0,1,413.28,225Z"/><path class="cls-33" d="M446.87,232.55a1.34,1.34,0,0,1-2.61-.63,9.79,9.79,0,0,0,.22-1.24,9,9,0,0,0,0-1.84,10.14,10.14,0,0,0-7.73-9.17l-7.34-1.78.63-2.61,7.34,1.78a12.84,12.84,0,0,1,9.79,11.9h0A12.56,12.56,0,0,1,446.87,232.55Z"/><path class="cls-34" d="M440.69,239.84a3,3,0,0,0,2.17,3.56h0a3,3,0,0,0,3.56-2.17l2.19-9a3,3,0,0,0-2.17-3.56h0a3,3,0,0,0-3.56,2.17Z"/><path class="cls-33" d="M445.17,239.62a1.35,1.35,0,0,0,1,1.63h0a1.35,1.35,0,0,0,1.63-1l1.57-6.47a1.35,1.35,0,0,0-1-1.63h0a1.35,1.35,0,0,0-1.63,1Z"/><g class="cls-35"><path class="cls-36" d="M433.65,216.15l-.63,2.61-4.73-1.15a10.16,10.16,0,0,0-10.83,4.23l-.24.38a1.5,1.5,0,0,1,.11.16.93.93,0,0,1,.09.13,2.89,2.89,0,0,1,.35,2.23l-2.18,9a2.91,2.91,0,0,1-1.48,1.9,2.71,2.71,0,0,1-.94.33,3,3,0,0,1-1.15-.05l-.11,0a2.84,2.84,0,0,1-1.43-.9,2.68,2.68,0,0,1-.29-.39,3,3,0,0,1-.37-2.18,1.34,1.34,0,0,1-.75-1.55l1.57-6.47a1.34,1.34,0,0,1,1.37-1v0a2.94,2.94,0,0,1,2.73-2.25,12.84,12.84,0,0,1,14.15-6.1Z"/></g><path id="_Path_75" data-name="&lt;Path&gt;" class="cls-6" d="M429.34,207.66h.14a4,4,0,0,0-4,4.16v8.9c0,2.3,1.72,3,4,3h-.07c2.3,0,4.09-.72,4.09-3v-8.9A4.16,4.16,0,0,0,429.34,207.66Z"/><rect class="cls-6" x="439.51" y="375.16" width="11.67" height="3.96" rx="1.98" ry="1.98"/><rect class="cls-6" x="410.96" y="387.03" width="11.06" height="2.69" rx="1.35" ry="1.35"/><path class="cls-25" d="M462.26,331.8s-1.75,2.83-3,5.47l8.44,1.15a49.62,49.62,0,0,0,5.11-7.75l-.41-5.93-10.32-1.4Z"/><path class="cls-25" d="M380.79,328.25s.9,4.62,1.39,6.64l9.45,2.55-1-4.76L394,323l-1.63-.76L384.14,320Z"/><path class="cls-8" d="M415.9,266.15v9.49a5,5,0,0,0,3,4.58v-2.78h2.36v3.21h3.36v-3.21H427v3.21h3.88v-3.2h2.36v2.52a5,5,0,0,0,2.47-4.31v-9.49Z"/><circle class="cls-8" cx="425.79" cy="259.83" r="16.34"/><circle class="cls-25" cx="418.39" cy="261.18" r="4.97"/><circle class="cls-25" cx="433.19" cy="261.18" r="4.97"/><path class="cls-25" d="M425.79,268.46l1.7,1.57a2.31,2.31,0,1,0-3.36,0Z"/></g></g></svg>