<svg xmlns="http://www.w3.org/2000/svg" xmlns:xlink="http://www.w3.org/1999/xlink" viewBox="0 0 708.66 481.89"><defs><style>.cls-1,.cls-15,.cls-28{fill:none;}.cls-2{isolation:isolate;}.cls-25,.cls-3{fill:#fff;}.cls-4{opacity:0.24;}.cls-5{fill:#1d1e1e;}.cls-6{fill:#4c4c4c;}.cls-7{fill:#efeeee;}.cls-8{fill:#4b669b;}.cls-9{fill:#ffd14d;}.cls-10{fill:#8ba9cc;}.cls-11{fill:#c0c8ce;}.cls-12{fill:#fec82b;}.cls-13{clip-path:url(#clip-path);}.cls-14{fill:#333;stroke:#d3d3d3;stroke-width:4px;}.cls-14,.cls-15{stroke-miterlimit:10;}.cls-15{stroke:#b8d8ff;stroke-width:3.95px;fill-rule:evenodd;}.cls-16{fill:#d1d2d2;}.cls-16,.cls-25{opacity:0.5;}.cls-16,.cls-20{mix-blend-mode:multiply;}.cls-17{fill:#5a739d;}.cls-18{fill:#f1f6f7;}.cls-19{fill:#e3e9eb;}.cls-20{fill:#6b7888;}.cls-20,.cls-22{opacity:0.1;}.cls-21{fill:#7689b5;}.cls-23{fill:#555655;opacity:0.15;}.cls-24{fill:#ebeeef;}.cls-26{fill:url(#linear-gradient);}.cls-27{fill:#262c38;}.cls-28{stroke:#262c38;stroke-linecap:round;stroke-linejoin:round;stroke-width:14.22px;}</style><clipPath id="clip-path"><rect class="cls-1" x="171.23" y="105.37" width="88.57" height="73.33"/></clipPath><linearGradient id="linear-gradient" x1="5533.77" y1="130.36" x2="5533.77" y2="-212.51" gradientTransform="matrix(0.4, 0, 0, -0.4, -2068.66, 372.78)" gradientUnits="userSpaceOnUse"><stop offset="0.1" stop-color="#f05766"/><stop offset="0.25" stop-color="#f3766a"/><stop offset="0.83" stop-color="#ffda6b"/></linearGradient></defs><title>CS-L2-U2</title><g class="cls-2"><g id="Layer_1" data-name="Layer 1"><circle class="cls-3" cx="389.46" cy="198.56" r="0.84"/><g class="cls-4"><rect class="cls-5" x="121.87" y="26.2" width="501.67" height="385.9" rx="38.59" ry="38.59"/></g><path class="cls-6" d="M575.37,35.72H150.88a38.7,38.7,0,0,0-38.59,38.59V382.65a38.7,38.7,0,0,0,38.59,38.59H575.37A38.7,38.7,0,0,0,614,382.65V74.31a38.7,38.7,0,0,0-38.59-38.59Z"/><path class="cls-3" d="M575.3,74.31l.07.07v308.2l-.07.07H150.95l-.07-.07V74.38l.07-.07Z"/><rect class="cls-7" x="589.84" y="211.95" width="9.65" height="38.59"/><rect class="cls-8" x="167.29" y="93.45" width="288.37" height="79.63"/><rect class="cls-9" x="167.29" y="237.9" width="288.37" height="24.44"/><rect class="cls-10" x="168.7" y="281.19" width="41.2" height="41.2"/><rect class="cls-10" x="218.73" y="281.19" width="41.2" height="41.2"/><rect class="cls-10" x="168.7" y="330.54" width="41.2" height="26.13"/><rect class="cls-10" x="217.84" y="330.54" width="41.2" height="26.13"/><rect class="cls-10" x="172.73" y="184.89" width="41.2" height="41.2"/><rect class="cls-10" x="231.8" y="184.89" width="41.2" height="41.2"/><rect class="cls-10" x="290.88" y="184.89" width="41.2" height="41.2"/><rect class="cls-10" x="349.95" y="184.89" width="41.2" height="41.2"/><rect class="cls-10" x="409.03" y="184.89" width="41.2" height="41.2"/><rect class="cls-10" x="500.62" y="98.16" width="41.2" height="41.2"/><rect class="cls-10" x="500.62" y="188.88" width="41.2" height="41.2"/><rect class="cls-10" x="500.62" y="279.6" width="41.2" height="41.2"/><rect class="cls-11" x="300.28" y="281.19" width="131.96" height="16.29"/><rect class="cls-11" x="300.28" y="314.25" width="131.96" height="16.29"/><rect class="cls-11" x="300.28" y="343.61" width="131.96" height="13.68"/><path class="cls-12" d="M192.53,106.08H232a9.33,9.33,0,0,1,9.33,9.33V169a10.79,10.79,0,0,1-10.79,10.79H194A10.79,10.79,0,0,1,183.2,169V115.41A9.33,9.33,0,0,1,192.53,106.08Z"/><g class="cls-13"><path class="cls-3" d="M202,154l7.57-.11,0-3.33c-3.55-2-6-5.49-7.6-9.69l0,0c-1.67,2-3.13-3.39-4-5.55s.22-3.34,1.75-3.55a21.14,21.14,0,0,1,.81-7.42,8.34,8.34,0,0,0-2.45-3.88,9.75,9.75,0,0,1,3.92.64s2.9-5.86,11.94-6.74c5.73-.57,10.94,3.11,10.94,3.11l5.15-.07h0s0,.09,0,.27a10.88,10.88,0,0,1-.64,3.14h0a6.3,6.3,0,0,1-1.56,2.72l3.11,0a3.34,3.34,0,0,1-.59,2.23,4.84,4.84,0,0,1-2,1.73,24.19,24.19,0,0,1,.59,3.63c.56,6.34-1.16,19.09-10.53,21.28a17.7,17.7,0,0,1-3.79-.13l0,1.55,4.43-.06a9.31,9.31,0,0,1,9.44,9.18l.75,52.86-35,.5-.76-53.46A8.71,8.71,0,0,1,202,154Z"/></g><line class="cls-14" x1="468.1" y1="93.45" x2="468.1" y2="357.29"/><rect class="cls-11" x="480.28" y="144.55" width="31" height="6.38"/><rect class="cls-11" x="517.15" y="144.55" width="31" height="6.38"/><rect class="cls-11" x="554.78" y="144.55" width="8.5" height="6.38"/><rect class="cls-11" x="532.28" y="156.28" width="31" height="6.38" transform="translate(1095.56 318.94) rotate(-180)"/><rect class="cls-9" x="495.4" y="156.28" width="31" height="6.38" transform="translate(1021.81 318.94) rotate(-180)"/><rect class="cls-11" x="480.28" y="156.28" width="8.5" height="6.38" transform="translate(969.06 318.94) rotate(-180)"/><rect class="cls-11" x="479.53" y="168.1" width="31" height="6.38"/><rect class="cls-11" x="531.9" y="168.1" width="31" height="6.38"/><rect class="cls-11" x="516.97" y="168.1" width="8.5" height="6.38"/><rect class="cls-9" x="479.9" y="234.8" width="31" height="6.38"/><rect class="cls-11" x="516.78" y="234.8" width="31" height="6.38"/><rect class="cls-11" x="554.4" y="234.8" width="8.5" height="6.38"/><rect class="cls-11" x="531.9" y="246.53" width="31" height="6.38" transform="translate(1094.81 499.44) rotate(-180)"/><rect class="cls-11" x="495.03" y="246.53" width="31" height="6.38" transform="translate(1021.06 499.44) rotate(-180)"/><rect class="cls-11" x="479.9" y="246.53" width="8.5" height="6.38" transform="translate(968.31 499.44) rotate(-180)"/><rect class="cls-11" x="479.15" y="258.35" width="31" height="6.38"/><rect class="cls-11" x="531.53" y="258.35" width="31" height="6.38"/><rect class="cls-11" x="516.59" y="258.35" width="8.5" height="6.38"/><rect class="cls-11" x="479.72" y="328.1" width="31" height="6.38"/><rect class="cls-9" x="516.59" y="328.1" width="31" height="6.38"/><rect class="cls-11" x="554.22" y="328.1" width="8.5" height="6.38"/><rect class="cls-11" x="531.72" y="339.83" width="31" height="6.38" transform="translate(1094.43 686.03) rotate(-180)"/><rect class="cls-11" x="494.84" y="339.83" width="31" height="6.38" transform="translate(1020.68 686.03) rotate(-180)"/><rect class="cls-11" x="479.72" y="339.83" width="8.5" height="6.38" transform="translate(967.93 686.03) rotate(-180)"/><rect class="cls-11" x="478.97" y="351.64" width="31" height="6.38"/><rect class="cls-11" x="531.34" y="351.64" width="31" height="6.38"/><rect class="cls-9" x="516.4" y="351.64" width="8.5" height="6.38"/><path class="cls-15" d="M227.68,180.44H196.84a15,15,0,0,1-15-15V119.6a15,15,0,0,1,15-15h30.84a15,15,0,0,1,15,15v45.82a15,15,0,0,1-15,15Z"/><path class="cls-16" d="M677.31,375.53a10.65,10.65,0,0,0-3.5-8c-1.62-1.46-4.59-3.16-9.54-3.16H617.59c1.88-9.7,4.24-25.82,4.35-26.6a5,5,0,0,0,0-.84c-.83-12.15-8.57-26.83-8.91-27.44a3.83,3.83,0,0,0-1.93-1.75,19.75,19.75,0,0,0-7.74-1.7,12.86,12.86,0,0,0-10.06,4.31,3.94,3.94,0,0,0-.81,2.49c0,.17.45,17.64.47,22.14-1.24,5.18-20.29,35.84-24.58,39.5a55.11,55.11,0,0,1-4.87,3.6,3.84,3.84,0,0,0-3.43-2.13h-54a3.93,3.93,0,0,0-2.86,1.25,3.89,3.89,0,0,0-1,2.94l5.59,71.35a3.91,3.91,0,0,0,3.87,3.61h48.38a3.88,3.88,0,0,0,3.87-3.91V444.3h2.44a14.67,14.67,0,0,1,3.44,1.85c2.59,1.65,5.8,3.74,9.61,3.74h63.83c10.93,0,18.27-8.28,18.27-16a10.81,10.81,0,0,0-2.18-6.61c4.66-3.13,7.42-8.07,7.42-12.83a10.74,10.74,0,0,0-2.18-6.62c4.65-3.13,7.43-8.07,7.43-12.83a10.85,10.85,0,0,0-2.19-6.62C674.53,385.23,677.31,380.27,677.31,375.53Zm-74.16-65.64Zm-1.22.09a1.36,1.36,0,0,0-.33.06h0a1.36,1.36,0,0,1,.33-.06Zm-1.57.31a1.13,1.13,0,0,1-.26.1h0l.27-.1Zm-1.13.43c-.08,0-.17.08-.24.1h0c.07,0,.16-.08.24-.1Zm-1.09.55a1.46,1.46,0,0,1-.14.08h0l.14-.08Zm-.7.48-.14.1h0a1.14,1.14,0,0,1,.14-.1Zm-.6.51h0s0,0,0,0h0S596.81,312.27,596.84,312.27Zm-.37.35h0a.08.08,0,0,0,.06,0h0A.08.08,0,0,1,596.48,312.62Z"/><polygon class="cls-17" points="518.44 446.69 555.62 446.69 555.62 375.33 512.85 375.33 518.44 446.69"/><path class="cls-17" d="M555.62,375.33v71.36H518.44l-5.59-71.36h42.76m0-7H512.85a7,7,0,0,0-6.95,7.51l5.6,71.39a7,7,0,0,0,6.93,6.42h37.18a7,7,0,0,0,7-7V375.33a7,7,0,0,0-7-7Z"/><path class="cls-18" d="M654.54,383.17c15.27,0,20.5-19.44,5.24-19.44H608.3c1.87-7.4,5.31-31,5.31-31-.78-11.46-8.45-25.88-8.45-25.88-9.11-3.84-13.22,1.44-13.22,1.44s.48,18.23.48,22.44-20.84,37.92-25.94,42.24-17.77,11.72-17.77,11.72c-15.12,36.48,3.47,51.28,3.47,51.28H562c3.63,0,8.11,5.61,13,5.61h63.82c15.26,0,20.51-19.46,5.24-19.46,15.27,0,20.51-19.44,5.25-19.44C664.56,402.64,669.8,383.17,654.54,383.17Z"/><path class="cls-3" d="M598.92,308a12.89,12.89,0,0,1,4.38.86c1.57,3.14,7,14.54,7.71,23.74-.39,2.67-3.51,23.74-5.22,30.51l-.81,3.21h54.79a7.83,7.83,0,0,1,5.24,1.52,4.1,4.1,0,0,1,1.33,3.21c0,3.9-4.21,9.55-11.82,9.55v5.16a7.83,7.83,0,0,1,5.24,1.52,4.12,4.12,0,0,1,1.33,3.22c0,3.91-4.21,9.57-11.81,9.57v5.16a7.83,7.83,0,0,1,5.24,1.52,4.1,4.1,0,0,1,1.33,3.2c0,3.9-4.21,9.55-11.82,9.55v5.16a7.83,7.83,0,0,1,5.24,1.52,4.11,4.11,0,0,1,1.33,3.21c0,3.91-4.21,9.56-11.82,9.56H575c-1.89,0-4-1.38-6.1-2.71-2.31-1.49-4.5-2.9-6.93-2.9h-8.76a26.6,26.6,0,0,1-6.08-10.54c-3.2-10-1.94-22.52,3.66-36.37,2.86-1.69,12.84-7.68,17.38-11.54,3.08-2.62,10.23-13.37,15.41-21.78S595,333.87,595,330.68c0-3.63-.34-17.27-.45-21.37a7.18,7.18,0,0,1,4.37-1.33h0m0-2.58a9,9,0,0,0-7,2.84s.48,18.23.48,22.44-20.84,37.92-25.94,42.24-17.77,11.73-17.77,11.73c-15.12,36.48,3.47,51.28,3.47,51.28H562c3.63,0,8.11,5.61,13,5.61h63.82c15.26,0,20.51-19.46,5.24-19.46,15.27,0,20.51-19.44,5.25-19.44,15.26,0,20.5-19.47,5.24-19.47,15.27,0,20.5-19.44,5.24-19.44H608.3c1.87-7.4,5.31-31,5.31-31-.78-11.46-8.45-25.88-8.45-25.88a16.09,16.09,0,0,0-6.24-1.4Z"/><path class="cls-19" d="M598.67,305.42s5.68,21.09,5.68,24.12-18.7,28.08-14.88,31.91,18.83,2.28,18.83,2.28c1.25-6,5.31-31,5.31-31-.78-11.46-6.17-25.88-6.17-25.88C603,304.63,600,304.58,598.67,305.42Z"/><path class="cls-19" d="M659.78,363.72H638.64c9.53,0,5.37,19.44-4.16,19.44,9.53,0,5.36,19.47-4.15,19.47,9.51,0,5.34,19.44-4.16,19.44,9.5,0,5.35,19.46-4.18,19.46h16.81c15.26,0,20.51-19.46,5.24-19.46,15.27,0,20.51-19.44,5.25-19.44,15.26,0,20.5-19.47,5.24-19.47C669.8,383.17,675,363.72,659.78,363.72Z"/><path class="cls-17" d="M598.9,305.39a16.26,16.26,0,0,1,6.25,1.4s7.68,14.42,8.45,25.88c0,0-3.44,23.64-5.31,31h51.48c15.26,0,10,19.44-5.24,19.44,15.27,0,10,19.47-5.24,19.47,15.26,0,10,19.44-5.25,19.44,15.27,0,10,19.46-5.24,19.46H575c-4.92,0-9.4-5.61-13-5.61h-9.77s-18.59-14.8-3.47-51.28c0,0,12.67-7.39,17.77-11.72s25.94-38,25.94-42.24-.48-22.44-.48-22.44a8.94,8.94,0,0,1,7-2.84m0-7h0a16.1,16.1,0,0,0-12.47,5.51,7.21,7.21,0,0,0-1.47,4.48c0,.17.42,16.47.47,21.57-2.11,6.1-19.52,34.08-23.5,37.66-3.77,3.22-13.36,9-16.73,11a7,7,0,0,0-2.93,3.36c-16.92,40.84,4.63,58.66,5.55,59.4a7,7,0,0,0,4.35,1.52h9.27a25.31,25.31,0,0,1,2.27,1.36c2.78,1.78,6.58,4.22,11.27,4.22h63.82c12.79,0,21.38-9.88,21.38-19.09a14.2,14.2,0,0,0-1.25-5.89A18.64,18.64,0,0,0,665.41,410a14.19,14.19,0,0,0-1.23-5.89,18.68,18.68,0,0,0,6.47-13.58,14,14,0,0,0-1.24-5.86A18.69,18.69,0,0,0,675.91,371a13.68,13.68,0,0,0-4.52-10.33c-2-1.78-5.67-3.93-11.6-3.93h-43c1.75-9.72,3.61-22.37,3.71-23.08a7.22,7.22,0,0,0,0-1.49c-.87-12.8-8.91-28-9.26-28.66a7,7,0,0,0-3.44-3.18,23.76,23.76,0,0,0-9-1.93Z"/><path class="cls-20" d="M550,383.86V433.7a16.33,16.33,0,0,0,2.15,2.23H562V376.32C557.65,379.29,552.42,382.44,550,383.86Z"/><path class="cls-17" d="M550,375.33v71.36H507.26l-5.62-71.36H550m0-7H501.65a7,7,0,0,0-6.92,7.51l5.6,71.39a7,7,0,0,0,6.94,6.42H550a7,7,0,0,0,7-7V375.33a7,7,0,0,0-7-7Z"/><polygon class="cls-21" points="507.26 446.69 550.03 446.69 550.03 375.33 501.64 375.33 507.26 446.69"/><g class="cls-22"><rect class="cls-3" x="501.65" y="375.33" width="48.38" height="9.06"/><path class="cls-3" d="M545.84,379.5v63H511.12l-4.95-63h39.67m4.19-4.17H501.65l5.62,71.36H550V375.33Z"/></g><path class="cls-23" d="M543,435.9a5,5,0,1,0-5,5A5,5,0,0,0,543,435.9Z"/><path class="cls-24" d="M542.4,435.37a5,5,0,1,0-5,5A5,5,0,0,0,542.4,435.37Z"/><path class="cls-18" d="M541.6,435.37a4.19,4.19,0,1,0-4.2,4.19A4.21,4.21,0,0,0,541.6,435.37Z"/><ellipse class="cls-25" cx="536.05" cy="434.53" rx="2.22" ry="2.23"/><path class="cls-21" d="M536.87,434.55a.4.4,0,0,0-.41-.4.39.39,0,1,0,0,.78A.4.4,0,0,0,536.87,434.55Z"/><path class="cls-21" d="M536.87,436.53a.41.41,0,0,0-.41-.41.41.41,0,0,0-.4.41.42.42,0,0,0,.4.41A.41.41,0,0,0,536.87,436.53Z"/><path class="cls-21" d="M538.72,434.55a.39.39,0,0,0-.4-.4.39.39,0,0,0-.38.4.38.38,0,0,0,.38.38A.39.39,0,0,0,538.72,434.55Z"/><path class="cls-21" d="M538.72,436.53a.39.39,0,1,0-.4.41A.4.4,0,0,0,538.72,436.53Z"/><polygon class="cls-19" points="647.76 429.7 637 426.81 650.83 375.56 661.59 378.45 647.76 429.7 647.76 429.7"/><polygon class="cls-18" points="628.9 422.68 623.46 421.48 632.32 380.45 637.76 381.65 628.9 422.68 628.9 422.68"/><circle class="cls-3" cx="143.74" cy="389.89" r="78"/><circle class="cls-26" cx="144.85" cy="389.52" r="68.72"/><circle class="cls-27" cx="114.31" cy="407.57" r="6.75"/><circle class="cls-27" cx="175.33" cy="407.57" r="6.75"/><path class="cls-28" d="M95,394.57s11,8.59,38.8,8.59"/><path class="cls-28" d="M194.5,394.57s-11,8.59-38.8,8.59"/><path class="cls-27" d="M166.62,431.8c0,3.82-9.78,4-21.84,4s-21.84-.16-21.84-4c0-3.37,10.07-5,22.13-5S166.62,428.42,166.62,431.8Z"/></g></g></svg>