<svg id="Layer_1" data-name="Layer 1" xmlns="http://www.w3.org/2000/svg" viewBox="0 0 708.66 481.89"><defs><style>.cls-1{fill:#b8e0f2;}.cls-2{fill:#f7efeb;}.cls-3,.cls-41{fill:#fff;}.cls-14,.cls-32,.cls-36,.cls-4{opacity:0.07;}.cls-14,.cls-32,.cls-5{fill:#0a0a0a;}.cls-6{fill:#494949;}.cls-7{fill:#fec82b;}.cls-8{fill:#e2ad29;}.cls-9{fill:#edeeef;}.cls-10{fill:#f9ce6e;}.cls-11{fill:#b78923;}.cls-12{fill:#7f5d18;}.cls-13{fill:#b8d8ff;}.cls-15{fill:#3f5aa8;}.cls-16{fill:#364d89;}.cls-17{fill:#b3b2b3;}.cls-18{fill:#4d4e4e;}.cls-19{fill:#ffdc83;}.cls-20{fill:#405aa8;}.cls-21{fill:#648ec9;}.cls-22,.cls-23{fill:#f8ab8d;}.cls-23,.cls-26{fill-rule:evenodd;}.cls-24{fill:#8b6339;}.cls-25{fill:#754d24;}.cls-26,.cls-27{fill:#dc846a;}.cls-28{fill:#888889;}.cls-29{fill:#d8e2ea;opacity:0.6;}.cls-30{opacity:0.1;}.cls-31,.cls-49{fill:none;stroke-linecap:round;stroke-linejoin:round;stroke-width:2px;}.cls-31{stroke:#b7b6b6;}.cls-32,.cls-41{font-size:12px;font-family:Impact, Impact;}.cls-33{fill:#7ebefc;}.cls-34{fill:#e6e7e8;}.cls-35{fill:#aed7ff;}.cls-36{fill:#1c1b1b;}.cls-37{fill:#e7685d;}.cls-38{fill:#515180;}.cls-39{fill:#e8908b;}.cls-40{fill:#49a579;}.cls-42{fill:#020202;}.cls-43{fill:#ffe4cc;}.cls-44{fill:#eef5f5;}.cls-45{fill:#8d5c3e;}.cls-46{fill:#556566;}.cls-47{fill:#d53d33;}.cls-48{fill:#dd4439;}.cls-49{stroke:#dc846a;}.cls-50{fill:#d73d32;}.cls-51{fill:#e54d42;}.cls-52{fill:#fece57;}</style></defs><title>CS-L2-U5</title><polygon class="cls-1" points="367.65 385.51 708.66 481.89 708.66 200.66 367.65 104.27 367.65 385.51"/><polygon class="cls-2" points="-0.31 282.52 343.64 379.73 343.64 98.5 -0.31 1.28 -0.31 282.52"/><path class="cls-3" d="M233.46,107.13a12.38,12.38,0,0,0-2.69.3,14.25,14.25,0,0,0-19.63-3.77,17.34,17.34,0,0,0-14.22-7.46,17.59,17.59,0,0,0-17.44,17.73v0h65.1A12.55,12.55,0,0,0,233.46,107.13Z"/><path class="cls-3" d="M151,241.93a25.1,25.1,0,0,0-5.45.61,28.89,28.89,0,0,0-39.8-7.65,35.14,35.14,0,0,0-28.82-15.12c-19.53,0-35.36,16.09-35.36,35.93,0,0,0,0,0,.05h132A25.43,25.43,0,0,0,151,241.93Z"/><g class="cls-4"><path class="cls-5" d="M304.58,147.17,280.68,150l-.1-.1.27-.19-14.76-14.48-.07,0-1.56-1.56,14.54-7c-19.68-5.62-66.06,9.28-66.06,9.28l7,1.69c-.31.26-.65.52-1,.78l-.19.14c-12.46,9-47.6,13.73-60.38,14.76-8.36.67-16.83-11.19-21.93-20l.15,0c-.66-1.12-1.26-2.2-1.8-3.2l-.14,0c-1.88-3.5-3-6-3-6l-16,1.69L119,166,157,181.75l73.65,6.18h.07l2.6-.1,3.63,18.69a200.78,200.78,0,0,0-22.81,4.17v8.71h0v.19s9.3.41,19.3-.17A7.45,7.45,0,0,0,248.19,218c0-.14,0-.28,0-.41,4.51-1.05,8-2.59,9-4.84h2.95l.52,0,.45,0,.52,0,.48,0,.52,0,.46,0,.54,0,.48,0,.4,0a7.44,7.44,0,0,0,14.62-1.72l.22,0,.4-.09.47-.11.38-.09.45-.12.37-.1.44-.12.35-.1.43-.13.33-.11.42-.14.31-.11.4-.15.3-.12.38-.16.27-.12.37-.17.25-.12.35-.18.23-.13.32-.19.21-.13.3-.21.19-.13.28-.22.16-.13.26-.24.14-.13.23-.26.11-.13.2-.28.09-.12c.06-.1.12-.2.17-.31l.06-.11c.05-.11.1-.22.14-.34l0-.1a3.49,3.49,0,0,0,.1-.38l0-.07a3.52,3.52,0,0,0,.05-.45v0h0a3.74,3.74,0,0,0,0-.47c-.44-5.58-12.26-5.33-23.45-3.82L263.12,186c16.15-1.38,33.16-3.61,37.59-7.07,2.28-1.78,3.66-4.7,4.44-8.07h-.07C307.4,161,304.58,147.17,304.58,147.17Zm-41.79,53.35c-9,1.4-16.89,3.37-16.89,3.37V206c-1.86,0-3.84.1-5.87.27l-3.6-18.52c5.46-.24,14.22-.7,23.58-1.44Z"/><path class="cls-5" d="M331,155.43c-.63-3-3.22-4.94-6.45-6.12-1.94-21.62-4.81-38.13-6.71-38s-2.17,15.79-.92,36.39a58.51,58.51,0,0,0-9.25-.16c2,4.5,0,22.77,0,22.77a81.49,81.49,0,0,0,10.8-3.23c1.92,19.45,4.53,33.77,6.3,33.63s2.18-16.14.87-37.08C329.2,161.42,331.67,158.67,331,155.43Z"/></g><circle class="cls-6" cx="273.69" cy="209.54" r="7.45"/><rect class="cls-7" x="236.3" y="175.97" width="3.09" height="31.57" transform="translate(-32.19 48.85) rotate(-10.99)"/><rect class="cls-8" x="262.7" y="172.83" width="3.09" height="31.57" transform="translate(-31.11 53.82) rotate(-10.99)"/><path class="cls-8" d="M247.9,202.9v8.71s44.24,2,43.4-8.71S247.9,202.9,247.9,202.9Z"/><path class="cls-9" d="M291.32,203.37,247.91,209v2.62S290.84,213.53,291.32,203.37Z"/><path class="cls-7" d="M306.58,146.17s5.06,24.74-3.94,31.77-70,9-70,9L159,180.75,121,165l-3.37-40.2,16-1.69s13.49,30.23,26.71,29.17,50.32-6.12,61.56-15.68l-7-1.69S261.32,120,281,125.65l-14.54,7L282.68,149Z"/><ellipse class="cls-10" cx="323.3" cy="155.03" rx="3.79" ry="44.84" transform="translate(-11.01 25.44) rotate(-4.43)"/><path class="cls-3" d="M309.67,146.56c2,4.5,0,22.77,0,22.77S335,164,333,154.43,309.67,146.56,309.67,146.56Z"/><ellipse class="cls-3" cx="139.79" cy="155.03" rx="12.51" ry="2.25" transform="translate(-22.08 23.22) rotate(-8.8)"/><circle class="cls-6" cx="242.74" cy="216.99" r="7.45"/><path class="cls-7" d="M216.14,209.7v8.71s44.24,2,43.4-8.71S216.14,209.7,216.14,209.7Z"/><path class="cls-8" d="M281,125.65l-66.06,9.28,7,1.69s-3.7,3-5.81,3.61l52.74-5.09-2.44-2.45Z"/><path class="cls-3" d="M302.71,177.94c2.28-1.78,3.66-4.7,4.44-8.07L159.06,180.75l73.65,6.18S293.71,185,302.71,177.94Z"/><path class="cls-3" d="M259.55,210.36,216.14,216v2.62S259.08,220.52,259.55,210.36Z"/><path class="cls-10" d="M214.94,134.93,281,125.65C261.32,120,214.94,134.93,214.94,134.93Z"/><path class="cls-3" d="M118.5,134.44l20.12-2.16c-.66-1.12-1.26-2.2-1.8-3.2l-18.61,2Z"/><rect class="cls-11" x="191.48" y="150.87" width="23.57" height="29.17" transform="translate(-12.18 16.2) rotate(-4.43)"/><rect class="cls-12" x="192.84" y="151.78" width="21.95" height="27.17" transform="translate(-12.17 16.24) rotate(-4.43)"/><path class="cls-13" d="M268.09,134.21,263.73,136l5.34,14.62s8.85,2.11,13.77-2Z"/><rect class="cls-13" x="223.44" y="144.53" width="13.53" height="15.74" rx="6.23" ry="6.23" transform="translate(-24.83 46.67) rotate(-10.99)"/><rect class="cls-13" x="243.84" y="140.97" width="13.53" height="15.74" rx="6.23" ry="6.23" transform="translate(-23.78 50.5) rotate(-10.99)"/><path class="cls-14" d="M332.38,405c-.82-3.9-7.07-12.15-7.07-12.15l-11.47-4.35.46-1.53-3.61-1.09-.33,1.1L263.72,365a6.65,6.65,0,0,0-8.33,2.17L217,388.07l8.88-12.87a6.65,6.65,0,0,0,1.13-4.44l17.77-60.28-1.56-.46.64-2.17a5,5,0,0,0,1.3.41l17.8,2.92a2.63,2.63,0,0,0,2.83-1.53L266,309l.42-1a1,1,0,0,0-.51-1.33l-27.21-12.06a2,2,0,0,0-2.64,1l0,0-2.69,6.06a1,1,0,0,0,.52,1.3l-.1.33-1,3.5-1.47-.43-18.39,62.37c-.06.19-.1.39-.14.58l-2.59,3.76a13.14,13.14,0,0,0-.43-1.57v-3.76a3.54,3.54,0,0,0-3.18-3.52,38.17,38.17,0,0,0-1-7.5,8.7,8.7,0,0,0,3.66-2.81,6.14,6.14,0,0,0,1.37-4l-5.71-.32a11.58,11.58,0,0,0,3.21-4.78v0a20,20,0,0,0,1.58-5.68c0-.3.07-.48.07-.48h0l-9.45-.53s-9.08-7.42-19.65-7.12C164,331.6,157.88,342,157.88,342s-2.88.7-7.1-1.67c.28,4.55,2.65,6.09,4,7.43-1.77,3.89-2.31,9.55-2.45,13.91a4,4,0,0,0-2.07,1.19l-15.84-53.72-1.47.43-1-3.5-.1-.33a1,1,0,0,0,.52-1.3l-2.69-6.06,0,0a2,2,0,0,0-2.64-1L99.77,309.33a1,1,0,0,0-.51,1.33l.42,1,.27.61a2.63,2.63,0,0,0,2.83,1.53l17.8-2.92a5,5,0,0,0,1.3-.41l.64,2.17-1.56.46,17.81,60.4a6.62,6.62,0,0,0,.54,1.82l0,.15a7,7,0,0,0,1.61,2.81,13.28,13.28,0,0,0,5.6,8.62,17.11,17.11,0,0,0-4.76,3L99.56,361c-.18-.12-.37-.2-.55-.29a6.64,6.64,0,0,0-5.68-1.27l-52.77,12h0l-13.36,2s-7.87,6.72-9.52,10.34c-1.91,4.22-1,10.2-.7,11.3.62,2.7,10-6.08,11.51-7.49a4.49,4.49,0,0,0,2.26,5.06,108,108,0,0,1,10-7.57l52.82-12,42.53,29.12c0,.19,0,.37,0,.56a17.12,17.12,0,0,0,14.71,16.94V421h6.32v-1.21H197v.55h6.32v-1.41A17.13,17.13,0,0,0,215,404.26l46.8-25.44,44.65,21-.29,1,3.61,1.09.09-.29a102.89,102.89,0,0,1,7.84,9.22,4.49,4.49,0,0,0,3.29-4.46c1.15,1.7,8.44,12.3,9.63,9.79C331.12,415.14,333.34,409.5,332.38,405Z"/><path id="_Path_" data-name="&lt;Path&gt;" class="cls-15" d="M226.86,349.77h0a5.43,5.43,0,0,0,6.75-3.67l10.89-36.92a5.43,5.43,0,0,0-3.67-6.75h0a5.43,5.43,0,0,0-6.75,3.67l-.28,1-10.6,36A5.43,5.43,0,0,0,226.86,349.77Z"/><path id="_Rectangle_" data-name="&lt;Rectangle&gt;" class="cls-16" d="M226.63,310.64H229a5.82,5.82,0,0,1,5.82,5.82v66.22a0,0,0,0,1,0,0h-14a0,0,0,0,1,0,0V316.46a5.82,5.82,0,0,1,5.82-5.82Z" transform="translate(348.29 743.6) rotate(-163.57)"/><path id="_Path_2" data-name="&lt;Path&gt;" class="cls-17" d="M233.37,305.43l2.69-6.06,30,13.28-.27.61a2.63,2.63,0,0,1-2.83,1.53l-17.8-2.91a4.87,4.87,0,0,1-2.24-1,18,18,0,0,0-8.72-4.05A1,1,0,0,1,233.37,305.43Z"/><path id="_Path_3" data-name="&lt;Path&gt;" class="cls-18" d="M236.05,299.37l0,0a2,2,0,0,1,2.64-1l27.21,12.06a1,1,0,0,1,.51,1.33l-.42,1Z"/><path id="_Path_4" data-name="&lt;Path&gt;" class="cls-16" d="M195.82,422.32l30-43.51a6.71,6.71,0,0,0-1.71-9.33l-.49-.34a6.71,6.71,0,0,0-9.33,1.71l-30,43.51"/><path id="_Path_5" data-name="&lt;Path&gt;" class="cls-15" d="M138.85,352.34h0a5.43,5.43,0,0,1-6.75-3.67l-10.89-36.92a5.43,5.43,0,0,1,3.67-6.75h0a5.43,5.43,0,0,1,6.75,3.67l.28,1,10.6,36A5.43,5.43,0,0,1,138.85,352.34Z"/><path id="_Rectangle_2" data-name="&lt;Rectangle&gt;" class="cls-16" d="M130.87,313.22h14a0,0,0,0,1,0,0v66.22a5.82,5.82,0,0,1-5.82,5.82h-2.39a5.82,5.82,0,0,1-5.82-5.82V313.22a0,0,0,0,1,0,0Z" transform="translate(-93.15 53.26) rotate(-16.43)"/><path id="_Path_6" data-name="&lt;Path&gt;" class="cls-17" d="M132.34,308l-2.69-6.06-30,13.28.27.61a2.63,2.63,0,0,0,2.83,1.53l17.8-2.91a4.87,4.87,0,0,0,2.24-1,18,18,0,0,1,8.72-4.05A1,1,0,0,0,132.34,308Z"/><path id="_Path_7" data-name="&lt;Path&gt;" class="cls-18" d="M129.65,301.95l0,0a2,2,0,0,0-2.64-1L99.77,312.94a1,1,0,0,0-.51,1.33l.42,1Z"/><path id="_Path_8" data-name="&lt;Path&gt;" class="cls-16" d="M169.88,423.41l-30-43.51a6.71,6.71,0,0,1,1.71-9.33l.49-.34a6.71,6.71,0,0,1,9.33,1.71l30,43.51"/><rect class="cls-19" x="140.75" y="366.2" width="69.67" height="26.58" rx="11.03" ry="11.03"/><rect class="cls-15" x="136.07" y="389.15" width="79.04" height="34.26" rx="14.21" ry="14.21"/><rect class="cls-19" x="196.99" y="387.59" width="6.32" height="36.37"/><path id="_Path_9" data-name="&lt;Path&gt;" class="cls-20" d="M205,405.68h0a6.65,6.65,0,0,0,9,2.75l50.25-27.32a6.65,6.65,0,0,0,2.75-9h0a6.65,6.65,0,0,0-9-2.75l-50.25,27.32A6.65,6.65,0,0,0,205,405.68Z"/><path id="_Path_10" data-name="&lt;Path&gt;" class="cls-20" d="M148.57,406.12h0a6.65,6.65,0,0,1-9.23,1.82L92.14,375.63a6.65,6.65,0,0,1-1.82-9.23h0a6.65,6.65,0,0,1,9.23-1.82l47.19,32.31A6.65,6.65,0,0,1,148.57,406.12Z"/><ellipse id="_Path_11" data-name="&lt;Path&gt;" class="cls-21" cx="174.09" cy="409.94" rx="6.92" ry="10.65" transform="translate(-244.95 560.83) rotate(-86.79)"/><path id="_Path_12" data-name="&lt;Path&gt;" class="cls-22" d="M175.93,390.35h-.2a5.64,5.64,0,0,1,5.27,6.11l-.69,12.39c-.18,3.2-2.63,4.06-5.83,3.88h.1c-3.2-.18-5.64-1.32-5.46-4.52l.69-12.39A5.81,5.81,0,0,1,175.93,390.35Z"/><path id="_Path_13" data-name="&lt;Path&gt;" class="cls-23" d="M185.28,405.77c-18.38,0-27.36-14.12-29.42-31.11-2.16-17.89,10.52-31.88,24.89-31.12,16.35.86,25.53,7.77,25.87,25.79.21,11.32-4.44,33.71-21.34,36.44Z"/><path id="_Path_14" data-name="&lt;Path&gt;" class="cls-24" d="M154.77,351.33c-2.07,4.56-2.47,11.57-2.49,16.05a4.47,4.47,0,0,1,3.86-.74,5.34,5.34,0,0,1,.6.18h0l.29.12.29.13.3.16.21.12.36.22.28.2.28.21.26.23.26.24c.17.17.33.34.48.52,0,0,0,0,0,0l.09.13.05.08.06.08,0,0,0,0v0a.22.22,0,0,1,0,.05l-.46,8.14a3.66,3.66,0,0,0,.72,2.78,4.44,4.44,0,0,0,.35.43,5.83,5.83,0,0,0,2.44.86c2.12.12,4.37-1.5,4.49-3.63l.16-2.91a4.21,4.21,0,0,1,4.1-4h.74c.24-3.31.36-5.94.42-7.57.08-2,.91-3.32,5.42-3.52h.13c.39,0,.81,0,1.27,0h.1c.78,0,1.65,0,2.6.09l20.6,1.15.24,0a10.18,10.18,0,0,0,5.85-3.54,6.14,6.14,0,0,0,1.37-4l-5.71-.32a11.58,11.58,0,0,0,3.21-4.78,27,27,0,0,0,1.66-6.17l-9.46-.53s-9.08-7.42-19.65-7.12c-16.67.47-22.74,10.82-22.74,10.82s-2.88.7-7.1-1.67C151.06,348.45,153.43,350,154.77,351.33Z"/><path id="_Path_15" data-name="&lt;Path&gt;" class="cls-25" d="M179.9,360c.78,0,1.65,0,2.6.09l20.6,1.15.24,0a10.18,10.18,0,0,0,5.85-3.54,6.14,6.14,0,0,0,1.37-4s-5.22,5.25-8.39,5.64l-.25,0C198.71,359.65,184.56,359.94,179.9,360Z"/><g id="_Group_" data-name="&lt;Group&gt;"><line id="_Path_16" data-name="&lt;Path&gt;" class="cls-24" x1="199.74" y1="370.96" x2="193.26" y2="370.27"/><path id="_Path_17" data-name="&lt;Path&gt;" class="cls-24" d="M199.84,372a1.09,1.09,0,0,0,0-2.16l-6.48-.69a1.09,1.09,0,0,0-.23,2.16l6.48.69Z"/></g><g id="_Group_2" data-name="&lt;Group&gt;"><line id="_Path_18" data-name="&lt;Path&gt;" class="cls-24" x1="182.78" y1="369.68" x2="176.26" y2="369.65"/><path id="_Path_19" data-name="&lt;Path&gt;" class="cls-24" d="M183,368.61a1.09,1.09,0,0,1-.22,2.15l-6.52,0a1.09,1.09,0,0,1,0-2.17l6.52,0Z"/></g><circle id="_Path_20" data-name="&lt;Path&gt;" cx="179.95" cy="376.56" r="1.47" transform="translate(-206.08 535.17) rotate(-86.79)"/><circle id="_Path_21" data-name="&lt;Path&gt;" cx="195.59" cy="377.94" r="1.47" transform="translate(-192.69 552.09) rotate(-86.79)"/><path id="_Path_22" data-name="&lt;Path&gt;" class="cls-25" d="M209.73,342.39s-4.13,8.14-9.43,10c-4.5,1.55-26,1-26,1a36.69,36.69,0,0,0,6.57,2c1.94.31,20.8,2,24-2A18.44,18.44,0,0,0,209.73,342.39Z"/><g id="_Group_3" data-name="&lt;Group&gt;"><path id="_Path_23" data-name="&lt;Path&gt;" class="cls-23" d="M160.71,370a8.63,8.63,0,0,0-2.82-3.3c-4.47-3.48-10-1.17-8.27,4.46,1.22,3.93,3.15,13.6,6.35,10.34A18.32,18.32,0,0,0,160.71,370Z"/><polygon id="_Path_24" data-name="&lt;Path&gt;" class="cls-26" points="157.1 370.4 151.06 369.03 155.19 377.65 154.03 370.67 157.1 370.4"/></g><polygon id="_Path_25" data-name="&lt;Path&gt;" class="cls-26" points="188.03 374.91 187.12 387.65 189.89 387.18 188.03 374.91"/><path id="_Path_26" data-name="&lt;Path&gt;" class="cls-20" d="M101.34,367.95h0a6.65,6.65,0,0,1-4.94,8L40.62,388.62a6.65,6.65,0,0,1-8-4.94h0a6.65,6.65,0,0,1,4.94-8L93.33,363A6.65,6.65,0,0,1,101.34,367.95Z"/><path id="_Path_27" data-name="&lt;Path&gt;" class="cls-27" d="M40.93,388.46s-7.41,5-10.18,7.7c-4.75-2.56-.83-9-.83-9Z"/><path id="_Path_28" data-name="&lt;Path&gt;" class="cls-22" d="M40.56,375l-13.36,2s-7.87,6.72-9.52,10.34c-1.91,4.22-1,10.2-.7,11.3.67,2.93,11.71-7.69,11.71-7.69l13.16-2.56Z"/><path id="_Path_29" data-name="&lt;Path&gt;" class="cls-20" d="M254.84,371.72h0a6.65,6.65,0,0,0,3.1,8.88L309.69,405a6.65,6.65,0,0,0,8.88-3.1h0a6.65,6.65,0,0,0-3.1-8.88l-51.75-24.35A6.65,6.65,0,0,0,254.84,371.72Z"/><path id="_Path_30" data-name="&lt;Path&gt;" class="cls-27" d="M309.43,404.74s6.15,6.5,8.29,9.7c5.19-1.48,2.74-8.59,2.74-8.59Z"/><path id="_Path_31" data-name="&lt;Path&gt;" class="cls-22" d="M312.69,391.65l12.63,4.79s6.25,8.25,7.07,12.15c1,4.53-1.26,10.17-1.74,11.19-1.29,2.72-9.79-10-9.79-10l-12.3-5.33Z"/><circle class="cls-27" cx="182.78" cy="395.33" r="5.96"/><rect class="cls-19" x="150.78" y="388.24" width="6.32" height="36.37"/><circle class="cls-28" cx="310.25" cy="397.48" r="4.36"/><rect class="cls-28" x="308.36" y="389.67" width="3.77" height="15.62" transform="translate(128.05 -72.68) rotate(16.79)"/><path class="cls-29" d="M191.85,369.58a.1.1,0,0,0-.1.1V384h16.11V369.58Z"/><polygon class="cls-29" points="183.75 369.58 166.43 369.58 166.43 384.01 183.75 384.01 183.75 372.82 191.73 372.82 191.73 369.91 183.75 369.91 183.75 369.58"/><g class="cls-30"><polygon class="cls-3" points="191.72 379.08 201.83 368.97 199.2 368.97 191.72 376.45 191.72 379.08"/><polygon class="cls-3" points="207.83 370.57 207.83 369.39 203.89 369.39 191.72 381.56 191.72 383.82 195.78 383.82 207.83 370.57"/></g><g class="cls-30"><polygon class="cls-3" points="166.41 379.88 176.52 369.77 173.89 369.77 166.41 377.25 166.41 379.88"/><polygon class="cls-3" points="183.73 371.38 183.73 370.19 178.59 370.19 166.41 382.37 166.41 384.63 170.48 384.63 183.73 371.38"/></g><path class="cls-18" d="M206.18,368H168.67a4.16,4.16,0,0,0-4.16,4.16v9.38a4.16,4.16,0,0,0,4.16,4.16h12.84a4.16,4.16,0,0,0,4.16-4.16v-5a2,2,0,0,1,2-2h0a2.16,2.16,0,0,1,2.17,2.15v5.45a3.55,3.55,0,0,0,3.55,3.55h12.84a3.55,3.55,0,0,0,3.55-3.55V371.5A3.55,3.55,0,0,0,206.18,368Zm-1,15.28H194.35a2.16,2.16,0,0,1-2.16-2.16v-7.76a1.19,1.19,0,0,0-1.07-1.18v0H184.4a1.2,1.2,0,0,0-1.14,1.19v6.75a3.16,3.16,0,0,1-3.16,3.16h-10a3.16,3.16,0,0,1-3.16-3.16v-6.55a3.16,3.16,0,0,1,3.16-3.16h35.08a2.16,2.16,0,0,1,2.16,2.16v8.56A2.16,2.16,0,0,1,205.16,383.23Z"/><line class="cls-31" x1="50.28" y1="190.5" x2="45.05" y2="191.13"/><line class="cls-31" x1="108.04" y1="183.46" x2="53.28" y2="190.13"/><line class="cls-31" x1="81.81" y1="176.74" x2="71.28" y2="178.02"/><line class="cls-31" x1="116.41" y1="172.52" x2="88.29" y2="175.95"/><line class="cls-31" x1="93.29" y1="309.61" x2="93.29" y2="300.02"/><line class="cls-31" x1="99.68" y1="283.1" x2="99.68" y2="280.38"/><line class="cls-31" x1="99.68" y1="300.04" x2="99.68" y2="287.35"/><line class="cls-31" x1="289.67" y1="333.45" x2="289.67" y2="328.93"/><line class="cls-31" x1="289.67" y1="368.25" x2="289.67" y2="338.2"/><line class="cls-31" x1="300.94" y1="354.26" x2="300.94" y2="337.31"/><text class="cls-32" transform="matrix(1, 0.26, 0, 1, 492.43, 315.31)">SKYDIVING<tspan x="0" y="14.4" xml:space="preserve">      TIPS</tspan></text><path class="cls-14" d="M672.68,372.67h-2.05a1.83,1.83,0,0,0,.09-.54,1.85,1.85,0,0,0-1.85-1.85h-3.24a8,8,0,0,1-1.09-4.13,7.87,7.87,0,0,1,1.26-4.42h3.07a1.85,1.85,0,1,0,0-3.7h-6.6a.61.61,0,0,0,.22-.46v-2h0a1.41,1.41,0,0,0-.1-2.81h-2.47a6.1,6.1,0,0,1-.83-3.14,6,6,0,0,1,1-3.36h2.34a1.41,1.41,0,0,0,.37-2.76h3.88a1.85,1.85,0,1,0,0-3.7h-3.24a8,8,0,0,1-1.09-4.13,7.87,7.87,0,0,1,1.26-4.42h3.07a1.85,1.85,0,0,0,1.28-3.18h10.52a.62.62,0,0,0,.62-.62v-2a.62.62,0,0,0-.62-.62H635.59l.15-.14h21a1.41,1.41,0,0,0,0-2.82h-2.47a6.1,6.1,0,0,1-.83-3.14,6,6,0,0,1,1-3.36h2.34a1.41,1.41,0,0,0,0-2.82h-8l0,0c3.41-3.41,2.76-9.59-1.46-13.79h0a13.12,13.12,0,0,0-2.36-1.86l-.33-.25L613.9,276V257.69h-4.28v-5.41h-7.07v5.41H586.44l-.83-.56a19.19,19.19,0,0,0-2-1.56c1.11-.3,2.18-.61,3.18-.94A10.83,10.83,0,0,0,593.62,241c-2.58-8-6.48-20.52-9.28-31.42.7-2.58,0-4.57-1.4-5.74l0-.09a14.42,14.42,0,0,0,2.62-1.13,69.36,69.36,0,0,1-1.85-10.79,33.11,33.11,0,0,0-8.51-20.47,36.73,36.73,0,0,0-13.88-9.53v0A45.57,45.57,0,0,0,545.5,159a44.51,44.51,0,0,0-12.52,1.5,32.24,32.24,0,0,0-13.82,7.44l-.57.52-.11.11a35.85,35.85,0,0,0-5.76,7A33.08,33.08,0,0,0,507.9,190c-.28,2.87-1.22,8-2.48,14.15a7.67,7.67,0,0,0-.72,5.45c-2.3,11.22-5.21,24.17-7,32.11a10.85,10.85,0,0,0,6.72,12.57l.22.08a19.66,19.66,0,0,0-4.85,3.37h-11.6v-5.41h-7.07v5.41h-4.28V271L442.72,290a12.21,12.21,0,0,0-1.49.83l-.43.24a9,9,0,0,0-2.08,1.62,3.23,3.23,0,0,0-2,1c-.59-1.64-1.46-2.35-2.44-2.35a1.89,1.89,0,0,1-2,0c-1,0-1.9.74-2.48,2.47-1.08-1.07-2.08-1.34-2.91-1a2,2,0,0,0-.22.12,2.07,2.07,0,0,0-1.78-.12c-1,.43-1.58,1.64-1.27,3.86a3,3,0,0,0-2.3-.11,2.41,2.41,0,0,0-2.58.38c-.9.9-.83,2.51.85,4.92a5.58,5.58,0,0,0-1.15.07c-2.24-.3-3.46.26-3.88,1.29-.5,1.21.24,2.72,2.89,4.34-3.06.5-4.32,1.62-4.32,2.92s1.29,2.46,4.47,2.95c-2.75,1.68-3.5,3.23-3,4.45.43,1,1.64,1.58,3.85,1.27a5.38,5.38,0,0,0,1,.07c-1.6,2.35-1.65,3.93-.77,4.81a2,2,0,0,0,1.34.57,1.22,1.22,0,0,0-.4.26c-.58.58-.52,1.63.57,3.19a2.38,2.38,0,0,0-.37.08c-1.68-.31-2.6,0-2.89.76s.16,1.75,1.86,2.79c-2,.32-2.78,1-2.78,1.87s.83,1.58,2.87,1.89c-1.76,1.08-2.24,2.07-1.92,2.85s1.21,1.05,2.88.74l.31.08c-1.05,1.53-1.11,2.56-.54,3.14s1.13.5,2.09.07a1.38,1.38,0,0,0,1.1.28c-.14,1.33.21,2.08.84,2.34l.08,0L427,371.52a4,4,0,0,0,.19,1.16H413.33a15.3,15.3,0,0,0,0,30.61H672.68a15.3,15.3,0,0,0,0-30.61ZM474.45,336c-.14-1-1-2.15-3-3.35.36-.06.7-.13,1-.2L474,333.8Zm140-30.7-4.68-3H610Zm-4.84,6.61.86.56h-.86ZM488.34,323.6l-.06-.08h0l-.1-.14V307.52l.07,0v-5.15h.1Zm-7.23-6.46-3.42-2.85,3.42-2.21Zm0-14.82v0L472.33,308l-4.81-4.15,9.31-5.21v3.68Zm-59.79,22.21a2.17,2.17,0,0,0,.77.18,1.29,1.29,0,0,0-.3.19,3.42,3.42,0,0,0-.84-.28Zm34.64,47,3-24.64c.05-.13.11-.28.16-.42,1.09,1.08,2.08,1.34,2.92,1l.24-.12a2.22,2.22,0,0,0,1.24.26v25.11h-7.71A4,4,0,0,0,456,371.52Zm14.58-28.81a2.78,2.78,0,0,0,0-1.93v-2.45c2.17.27,3.37-.28,3.79-1.3a1.89,1.89,0,0,0,.13-.95l1.09,5.81A68.17,68.17,0,0,0,481.11,352v20.67H470.54Zm17.64,14.87.16,0V372l2.65.7h-2.81Z"/><path class="cls-25" d="M504.41,255.24a10.85,10.85,0,0,1-6.72-12.57c3.16-13.84,9.64-42.9,10.44-51.49a34.07,34.07,0,0,1,4.61-14.38c4.64-7.75,13.85-16.88,31.4-16.61,14.23.22,23.18,6.21,28.67,12.51A33.87,33.87,0,0,1,581,193.17c.55,10.18,8.41,35.68,12.66,48.83a10.83,10.83,0,0,1-6.87,13.63C566.91,262.19,524.16,262.72,504.41,255.24Z"/><path id="_Path_32" data-name="&lt;Path&gt;" class="cls-22" d="M545.78,230.32h.31a8.8,8.8,0,0,0-8.75,9.06v19.37c0,5,3.74,6.56,8.75,6.56h-.16c5,0,8.91-1.56,8.91-6.56V239.39A9.06,9.06,0,0,0,545.78,230.32Z"/><g id="_Group_4" data-name="&lt;Group&gt;"><path id="_Path_33" data-name="&lt;Path&gt;" class="cls-23" d="M570.56,209.26a10.6,10.6,0,0,1,3.69-3.86c5.72-4,12.37-.75,9.84,6-1.77,4.74-4.79,16.46-8.49,12.24C572.76,220.45,570.71,215.51,570.56,209.26Z"/><polygon id="_Path_34" data-name="&lt;Path&gt;" class="cls-26" points="574.96 209.95 582.47 208.68 576.81 218.98 578.72 210.49 574.96 209.95"/></g><path class="cls-23" d="M508,202c0,15.24,13.11,42.2,38.12,42.2,28,0,36-28.29,36-43.54s-7.22-40-36.11-40C518.14,160.65,508,186.73,508,202Z"/><g id="_Group_5" data-name="&lt;Group&gt;"><line id="_Path_35" data-name="&lt;Path&gt;" class="cls-24" x1="532.98" y1="203.8" x2="541.74" y2="203.35"/><path id="_Path_36" data-name="&lt;Path&gt;" class="cls-24" d="M532.77,205.24a1.46,1.46,0,0,1,.13-2.91l8.77-.45a1.46,1.46,0,0,1,.15,2.92l-8.77.45Z"/></g><g id="_Group_6" data-name="&lt;Group&gt;"><line id="_Path_37" data-name="&lt;Path&gt;" class="cls-24" x1="555.32" y1="203.57" x2="564.09" y2="204.02"/><path id="_Path_38" data-name="&lt;Path&gt;" class="cls-24" d="M555.11,202.13a1.46,1.46,0,0,0,.13,2.91l8.77.45a1.46,1.46,0,0,0,.15-2.92l-8.77-.45Z"/></g><circle id="_Path_39" data-name="&lt;Path&gt;" cx="556.51" cy="211.04" r="1.98"/><circle id="_Path_40" data-name="&lt;Path&gt;" cx="535.39" cy="211.72" r="1.98"/><polygon id="_Path_41" data-name="&lt;Path&gt;" class="cls-26" points="547.04 205.5 550.03 224.01 547.03 221.82 547.04 205.5"/><polygon class="cls-27" points="544.02 224.01 550.03 224.01 547.03 221.31 544.02 224.01"/><path class="cls-25" d="M583.69,192.84a33.11,33.11,0,0,0-8.51-20.47,36.73,36.73,0,0,0-13.88-9.53v0A45.57,45.57,0,0,0,545.5,160c-18.32-.27-27.93,8.86-32.78,16.61A33.08,33.08,0,0,0,507.9,191c-.32,3.26-1.48,9.45-3,16.64,10.26,2.5,22.17-2.86,25.54-3.93,13-4.15,23.17-9.69,28.42-17.73,3.53,10.3,11.86,19.46,20,19.46a13.59,13.59,0,0,0,6.65-1.76A69.35,69.35,0,0,1,583.69,192.84Z"/><g id="_Group_7" data-name="&lt;Group&gt;"><path id="_Path_42" data-name="&lt;Path&gt;" class="cls-23" d="M513.39,209.26a10.55,10.55,0,0,0-2.32-3.86c-3.6-4-7.79-.75-6.19,6,1.12,4.74,6.94,15.35,9.27,11.13C515.93,219.34,513.3,215.51,513.39,209.26Z"/><polygon id="_Path_43" data-name="&lt;Path&gt;" class="cls-26" points="510.62 209.95 505.89 208.68 509.46 218.98 508.26 210.49 510.62 209.95"/></g><rect class="cls-33" x="481.11" y="253.28" width="7.07" height="135.7"/><rect class="cls-33" x="602.55" y="253.28" width="7.07" height="138.7"/><rect class="cls-7" x="476.83" y="258.69" width="137.07" height="44.64"/><polygon class="cls-34" points="488.25 308.48 470.45 319.97 470.45 314.69 488.25 303.2 488.25 308.48"/><rect class="cls-3" x="463.48" y="314.69" width="7.06" height="83.08"/><polygon class="cls-3" points="470.55 314.68 463.48 314.68 481.21 303.3 488.28 303.3 470.55 314.68"/><polygon class="cls-34" points="602.7 308.48 620.5 319.97 620.5 314.69 602.7 303.2 602.7 308.48"/><rect class="cls-35" x="620.41" y="314.69" width="7.06" height="83.08"/><polygon class="cls-3" points="620.4 314.68 627.47 314.68 609.74 303.3 602.67 303.3 620.4 314.68"/><path class="cls-36" d="M644.61,300.57l-59-39.44a22.15,22.15,0,0,0-14.57-5.2H515a21.62,21.62,0,0,0-16.08,6.69l-58.09,32.49a9,9,0,0,0-3.43,12.26l1.74,3.09a9,9,0,0,0,12.26,3.43l45.72-25.58c1.72,13.36,3.86,31.58,3.86,39.89,0,17.66-6,70.65-6,70.65h96.14l-5.59-67.67,4-41.58,43.15,28.84A9,9,0,0,0,645.08,316l2-2.94A9,9,0,0,0,644.61,300.57Z"/><path id="_Path_44" data-name="&lt;Path&gt;" class="cls-37" d="M437.36,304.37l1.74,3.09a9,9,0,0,0,12.26,3.43L517,274.17a9,9,0,0,0,3.43-12.26l-1.74-3.09a9,9,0,0,0-12.26-3.43l-65.66,36.73A9,9,0,0,0,437.36,304.37Z"/><path id="_Path_45" data-name="&lt;Path&gt;" class="cls-37" d="M647.06,310.06l-2,2.94a9,9,0,0,1-12.49,2.45L570,273.65a9,9,0,0,1-2.45-12.49l2-2.94a9,9,0,0,1,12.49-2.45l62.54,41.81A9,9,0,0,1,647.06,310.06Z"/><path id="_Path_46" data-name="&lt;Path&gt;" class="cls-38" d="M497.71,375.79a10.11,10.11,0,0,1,10.11-10.11h11.85a10.11,10.11,0,0,1,10.11,10.11"/><path id="_Path_47" data-name="&lt;Path&gt;" class="cls-38" d="M556.5,375.79a10.11,10.11,0,0,1,10.11-10.11h11.85a10.11,10.11,0,0,1,10.11,10.11"/><path id="_Path_48" data-name="&lt;Path&gt;" class="cls-39" d="M515,252.94H571c11.06,0,20,7.38,20,16.49l-5.59,58.76,5.59,67.67H494.93s6-53,6-70.65c0-13.94-6-55.78-6-55.78C494.93,260.32,503.9,252.94,515,252.94Z"/><path id="_Path_49" data-name="&lt;Path&gt;" class="cls-37" d="M571.82,257.34c0,12.43-11.92,22.55-26.56,22.55s-26.56-10.11-26.56-22.55a19.36,19.36,0,0,1,.51-4.41h52.1A19.36,19.36,0,0,1,571.82,257.34Z"/><path id="_Path_50" data-name="&lt;Path&gt;" class="cls-22" d="M522.87,257.34c0,10.15,10,18.37,22.38,18.37s22.39-8.23,22.39-18.37a15.1,15.1,0,0,0-.65-4.41H523.52A15.1,15.1,0,0,0,522.87,257.34Z"/><path id="_Path_51" data-name="&lt;Path&gt;" class="cls-27" d="M485.81,325.53s11.23,5.24,16.37,6.64c.33,7.46-10.08,7.36-10.08,7.36Z"/><path id="_Path_52" data-name="&lt;Path&gt;" class="cls-22" d="M441.73,296.74h0a8.66,8.66,0,0,0,1.3,12.18l32.73,27.32a8.66,8.66,0,0,0,12.18-1.3h0a8.66,8.66,0,0,0-1.3-12.18l-32.73-27.32A8.66,8.66,0,0,0,441.73,296.74Z"/><path id="_Path_53" data-name="&lt;Path&gt;" class="cls-37" d="M458,325l14.6-15.76-20.06-17.3c-3.55-3.26-9.69-2.35-13.72,2h0c-4,4.38-4.41,10.58-.86,13.84Z"/><path id="_Path_54" data-name="&lt;Path&gt;" class="cls-27" d="M601.7,333.27s-11,5.72-16.07,7.34c0,7.46,10.39,6.92,10.39,6.92Z"/><path id="_Path_55" data-name="&lt;Path&gt;" class="cls-22" d="M644.49,302.6h0a8.66,8.66,0,0,1-.77,12.22l-31.51,28.71a8.66,8.66,0,0,1-12.22-.77h0a8.66,8.66,0,0,1,.77-12.22l31.51-28.71A8.66,8.66,0,0,1,644.49,302.6Z"/><polygon class="cls-36" points="545.48 310.31 545.48 310.19 488.34 295.12 488.34 369.98 545.48 385.05 545.48 385.17 602.61 369.86 602.61 295 545.48 310.31"/><path id="_Path_56" data-name="&lt;Path&gt;" class="cls-37" d="M629.48,331.51,614.21,316.4l19.3-18.15c3.41-3.41,9.58-2.77,13.79,1.43h0c4.21,4.2,4.86,10.38,1.46,13.79Z"/><polygon class="cls-40" points="545.48 388.05 488.34 372.98 488.34 298.12 545.48 313.19 545.48 388.05"/><path id="_Path_57" data-name="&lt;Path&gt;" class="cls-36" d="M474.33,332.47l4.61,15.09s5.86,9.52,10.55,11c5.46,1.7,15.85-4.06,17.27-4.52,3.8-1.24-10.75-9.92-10.75-9.92L486.74,329Z"/><text class="cls-41" transform="matrix(1, 0.26, 0, 1, 492.43, 318.31)">SKYDIVING<tspan x="0" y="14.4" xml:space="preserve">      TIPS</tspan></text><polygon class="cls-40" points="602.61 372.86 545.48 388.17 545.48 313.31 602.61 298 602.61 372.86"/><path id="_Path_58" data-name="&lt;Path&gt;" class="cls-22" d="M472.14,324.69l3.41,18.19s5.26,12.12,10.07,14.81c5.6,3.13,17.09-1.16,18.63-1.38,4.13-.59-10.38-13.64-10.38-13.64l-5.6-18.15Z"/><g class="cls-4"><path class="cls-42" d="M579.54,322.83h-2.47a1.41,1.41,0,1,0,0,2.82h75.67a1.41,1.41,0,0,0,0-2.82h-2.47a6.1,6.1,0,0,1-.83-3.14,6,6,0,0,1,1-3.36h2.34a1.41,1.41,0,0,0,0-2.82H577.08a1.41,1.41,0,1,0,0,2.82h2.34a6,6,0,0,1,1,3.36A6.1,6.1,0,0,1,579.54,322.83Z"/><path class="cls-42" d="M674.43,325.79H589.09a.62.62,0,0,0-.62.62v2a.59.59,0,0,0,0,.1H563.27a1.85,1.85,0,1,0,0,3.7h3.07a7.87,7.87,0,0,1,1.26,4.42,8,8,0,0,1-1.09,4.13h-3.24a1.85,1.85,0,1,0,0,3.7h19.07a1.41,1.41,0,0,0,.37,2.76H585a6,6,0,0,1,1,3.36,6.1,6.1,0,0,1-.83,3.14h-2.47a1.41,1.41,0,0,0-1.17,2.19h-9a.62.62,0,0,0-.62.62v2a.61.61,0,0,0,.22.46h-6.6a1.85,1.85,0,1,0,0,3.7h3.07a7.87,7.87,0,0,1,1.26,4.42,8,8,0,0,1-1.09,4.13h-3.24a1.85,1.85,0,1,0,0,3.7h99.36a1.85,1.85,0,1,0,0-3.7h-3.24a8,8,0,0,1-1.09-4.13,7.87,7.87,0,0,1,1.26-4.42h3.07a1.85,1.85,0,1,0,0-3.7h-6.6a.61.61,0,0,0,.22-.46v-2h0a1.41,1.41,0,0,0-.1-2.81h-2.47a6.1,6.1,0,0,1-.83-3.14,6,6,0,0,1,1-3.36h2.34a1.41,1.41,0,0,0,.37-2.76h3.88a1.85,1.85,0,1,0,0-3.7h-3.24a8,8,0,0,1-1.09-4.13,7.87,7.87,0,0,1,1.26-4.42h3.07a1.85,1.85,0,0,0,1.28-3.18h10.52a.62.62,0,0,0,.62-.62v-2A.62.62,0,0,0,674.43,325.79Z"/></g><path id="_Path_59" data-name="&lt;Path&gt;" class="cls-36" d="M614.58,337.43,606,352.08s-8.37,8.72-13.47,9.39c-5.93.77-14.84-7-16.14-7.69-3.49-1.95,13.38-8.26,13.38-8.26L603,331.72Z"/><path id="_Path_60" data-name="&lt;Path&gt;" class="cls-22" d="M618.91,334.15,611,350.88s-8.17,10.39-13.5,11.77c-6.21,1.61-16.24-5.45-17.67-6.06C576,355,593.32,346,593.32,346l10-16.14Z"/><rect class="cls-43" x="398.02" y="373.67" width="289.96" height="30.61" rx="14.1" ry="14.1"/><path class="cls-44" d="M667.56,373.14H570.81c1.75-.8,3-3.18,3-6,0-3.45-1.94-6.27-4.33-6.27h99.36c-2.39,0-4.33,2.81-4.33,6.27C664.54,370,665.81,372.33,667.56,373.14Z"/><path class="cls-45" d="M670.72,360.88a1.85,1.85,0,0,1-1.85,1.85H569.51a1.85,1.85,0,0,1-1.85-1.85h0a1.85,1.85,0,0,1,1.85-1.85h99.36a1.85,1.85,0,0,1,1.85,1.85Z"/><path class="cls-45" d="M670.72,373.13a1.85,1.85,0,0,1-1.85,1.85H569.51a1.85,1.85,0,0,1-1.85-1.85h0a1.85,1.85,0,0,1,1.85-1.85h99.36a1.85,1.85,0,0,1,1.85,1.85Z"/><path class="cls-44" d="M661.39,355.16H587.7c1.33-.61,2.3-2.42,2.3-4.56,0-2.63-1.48-4.77-3.3-4.77h75.67c-1.82,0-3.3,2.14-3.3,4.77C659.08,352.74,660.05,354.55,661.39,355.16Z"/><path class="cls-46" d="M663.79,345.83a1.41,1.41,0,0,1-1.41,1.41H586.71a1.41,1.41,0,0,1-1.41-1.41h0a1.41,1.41,0,0,1,1.41-1.41h75.67a1.41,1.41,0,0,1,1.41,1.41Z"/><path class="cls-46" d="M663.79,355.16a1.41,1.41,0,0,1-1.41,1.41H586.71a1.41,1.41,0,0,1-1.41-1.41h0a1.41,1.41,0,0,1,1.41-1.41h75.67a1.41,1.41,0,0,1,1.41,1.41Z"/><rect class="cls-47" x="575.89" y="355.94" width="86.59" height="3.25" rx="0.62" ry="0.62"/><path class="cls-44" d="M568.58,342.63h96.75c-1.75-.8-3-3.18-3-6,0-3.45,1.94-6.27,4.33-6.27H567.27c2.39,0,4.33,2.81,4.33,6.27C571.6,339.45,570.33,341.83,568.58,342.63Z"/><path class="cls-48" d="M565.42,330.38a1.85,1.85,0,0,0,1.85,1.85h99.36a1.85,1.85,0,0,0,1.85-1.85h0a1.85,1.85,0,0,0-1.85-1.85H567.27a1.85,1.85,0,0,0-1.85,1.85Z"/><path class="cls-48" d="M565.42,342.62a1.85,1.85,0,0,0,1.85,1.85h99.36a1.85,1.85,0,0,0,1.85-1.85h0a1.85,1.85,0,0,0-1.85-1.85H567.27a1.85,1.85,0,0,0-1.85,1.85Z"/><path class="cls-44" d="M582.07,324.24h73.68c-1.33-.61-2.3-2.42-2.3-4.56,0-2.63,1.48-4.77,3.3-4.77H581.07c1.82,0,3.3,2.14,3.3,4.77C584.37,321.82,583.4,323.63,582.07,324.24Z"/><path class="cls-7" d="M579.67,314.91a1.41,1.41,0,0,0,1.41,1.41h75.67a1.41,1.41,0,0,0,1.41-1.41h0a1.41,1.41,0,0,0-1.41-1.41H581.08a1.41,1.41,0,0,0-1.41,1.41Z"/><path class="cls-7" d="M579.67,324.24a1.41,1.41,0,0,0,1.41,1.41h75.67a1.41,1.41,0,0,0,1.41-1.41h0a1.41,1.41,0,0,0-1.41-1.41H581.08a1.41,1.41,0,0,0-1.41,1.41Z"/><rect class="cls-33" x="592.47" y="325.79" width="86.59" height="3.25" rx="0.62" ry="0.62"/><path id="_Path_61" data-name="&lt;Path&gt;" class="cls-49" d="M558.68,227.62A15.3,15.3,0,0,1,547,233h0c-5.11,0-10-3.26-11.65-5.42"/><path class="cls-36" d="M475.76,330.76c0-1.33-1.29-2.46-4.47-2.95,2.75-1.68,3.5-3.22,3-4.45s-2.09-1.75-5.11-1c1.81-2.52,1.91-4.2,1-5.12s-2.66-.83-5.25,1.08c.76-3.13.19-4.75-1-5.26s-2.72.24-4.34,2.89c-.5-3.07-1.62-4.32-2.92-4.32s-2.46,1.29-2.95,4.47a9.59,9.59,0,0,0-1.86-2.32,2.47,2.47,0,0,0,1.68-2.16c0-1.33-1.29-2.46-4.47-3,2.75-1.68,3.5-3.23,3-4.45s-2.09-1.75-5.11-1c1.81-2.52,1.91-4.2,1-5.12s-2.66-.83-5.25,1.07c.76-3.13.19-4.75-1-5.26s-2.72.24-4.34,2.89c-.5-3.07-1.62-4.32-2.92-4.32s-2.46,1.29-2.95,4.47c-1.68-2.75-3.23-3.5-4.45-3s-1.75,2.09-1,5.11c-2.52-1.81-4.2-1.91-5.12-1s-.83,2.66,1.08,5.25c-3.13-.76-4.75-.19-5.26,1s.24,2.72,2.89,4.34c-3.06.5-4.32,1.62-4.32,2.92s1.29,2.46,4.47,2.95c-2.75,1.68-3.5,3.23-3,4.45s2.09,1.75,5.11,1c-1.81,2.52-1.91,4.2-1,5.12a2,2,0,0,0,1.34.57,1.22,1.22,0,0,0-.4.26c-.6.6-.53,1.71.69,3.37-2-.49-3.05-.12-3.37.66s.16,1.75,1.86,2.79c-2,.32-2.78,1-2.78,1.87s.83,1.58,2.87,1.89c-1.76,1.08-2.24,2.07-1.92,2.85s1.35,1.12,3.29.66c-1.16,1.62-1.23,2.7-.64,3.29s1.71.53,3.37-.69c-.48,2-.12,3.05.66,3.37l.08,0L429,372.52a4.07,4.07,0,0,0,4.06,4.06h18.85a4.07,4.07,0,0,0,4.06-4.06l3-24.64a10.69,10.69,0,0,0,.63-2.43c1.68,2.75,3.23,3.5,4.45,3s1.75-2.09,1-5.12c2.52,1.81,4.2,1.91,5.12,1s.83-2.66-1.08-5.25c3.13.76,4.75.19,5.26-1s-.24-2.72-2.89-4.35C474.51,333.18,475.76,332.06,475.76,330.76Zm-37-2c.07-.11.14-.22.2-.32l.15.14ZM425,326.61a5,5,0,0,0-2-1,6.56,6.56,0,0,0,1.84-.76A6.11,6.11,0,0,0,425,326.61Z"/><path class="cls-50" d="M458,338.74,454,372.52a4.07,4.07,0,0,1-4.06,4.06H431.05a4.07,4.07,0,0,1-4.06-4.06l-4-33.42,0-.36a4.06,4.06,0,0,1,4.07-4.06h27A4.06,4.06,0,0,1,458,338.74Z"/><path class="cls-51" d="M446,345.72v30.85h-14.9a4.07,4.07,0,0,1-4.06-4.06l-4-33.42h16.36A6.63,6.63,0,0,1,446,345.72Z"/><path class="cls-3" d="M453.36,319.5c2.32,5.53,2.87,10.58,1.24,11.26s-4.83-3.25-7.15-8.79-1.88-8.21-.25-8.89S451,314,453.36,319.5Z"/><path class="cls-3" d="M455.84,342c-2.32-5.53-2.87-10.58-1.24-11.26s4.83,3.25,7.15,8.79,1.88,8.21.25,8.89S458.16,347.55,455.84,342Z"/><path class="cls-3" d="M443.34,332c5.54-2.32,10.58-2.88,11.26-1.24s-3.25,4.83-8.79,7.15-8.2,1.88-8.89.25S437.81,334.32,443.34,332Z"/><path class="cls-3" d="M465.86,329.52c-5.54,2.32-10.58,2.87-11.26,1.24s3.25-4.83,8.79-7.15,8.21-1.88,8.89-.25S471.4,327.2,465.86,329.52Z"/><path class="cls-3" d="M461.68,321.92c-2.28,5.55-5.45,9.51-7.08,8.84s-1.12-5.71,1.16-11.27,4.47-7.13,6.11-6.46S464,316.37,461.68,321.92Z"/><path class="cls-3" d="M447.52,339.6c2.28-5.55,5.45-9.51,7.08-8.84s1.12,5.72-1.16,11.27-4.47,7.13-6.11,6.46S445.24,345.15,447.52,339.6Z"/><path class="cls-3" d="M445.76,323.68c5.55,2.28,9.51,5.45,8.84,7.08s-5.72,1.12-11.27-1.16-7.13-4.47-6.46-6.11S440.21,321.4,445.76,323.68Z"/><path class="cls-3" d="M463.44,337.84c-5.55-2.28-9.51-5.45-8.84-7.08s5.71-1.12,11.27,1.16,7.13,4.47,6.46,6.11S469,340.12,463.44,337.84Z"/><path class="cls-3" d="M457.8,319.89c0,6-1.43,10.86-3.2,10.86s-3.2-4.86-3.2-10.86,1.43-8.3,3.2-8.3S457.8,313.89,457.8,319.89Z"/><path class="cls-3" d="M451.4,341.63c0-6,1.43-10.87,3.2-10.87s3.2,4.87,3.2,10.87-1.43,8.3-3.2,8.3S451.4,347.63,451.4,341.63Z"/><path class="cls-3" d="M443.74,327.56c6,0,10.87,1.43,10.87,3.2s-4.87,3.2-10.87,3.2-8.3-1.43-8.3-3.2S437.73,327.56,443.74,327.56Z"/><path class="cls-3" d="M465.47,334c-6,0-10.86-1.43-10.86-3.2s4.86-3.2,10.86-3.2,8.3,1.43,8.3,3.2S471.47,334,465.47,334Z"/><path class="cls-3" d="M464.55,325.34c-4.24,4.25-8.7,6.67-9.95,5.42s1.18-5.7,5.42-9.95,6.88-4.85,8.13-3.6S468.79,321.1,464.55,325.34Z"/><path class="cls-3" d="M444.66,336.18c4.24-4.24,8.7-6.67,9.95-5.42s-1.18,5.7-5.42,9.95-6.88,4.85-8.13,3.6S440.41,340.42,444.66,336.18Z"/><path class="cls-3" d="M449.18,320.81c4.24,4.24,6.67,8.7,5.42,9.95s-5.7-1.17-9.95-5.42-4.85-6.88-3.6-8.13S444.94,316.57,449.18,320.81Z"/><path class="cls-3" d="M460,340.71c-4.24-4.24-6.67-8.7-5.42-9.95s5.7,1.18,9.95,5.42,4.85,6.88,3.6,8.13S464.26,344.95,460,340.71Z"/><circle class="cls-52" cx="454.6" cy="330.82" r="5.5"/><path class="cls-3" d="M431.06,300.34c2.32,5.54,2.87,10.58,1.24,11.26s-4.83-3.25-7.15-8.79-1.88-8.21-.25-8.89S428.75,294.8,431.06,300.34Z"/><path class="cls-3" d="M433.55,322.86c-2.32-5.54-2.87-10.58-1.24-11.26s4.83,3.25,7.15,8.79,1.88,8.21.25,8.89S435.86,328.39,433.55,322.86Z"/><path class="cls-3" d="M421,312.84c5.53-2.32,10.58-2.87,11.26-1.24s-3.25,4.83-8.79,7.15-8.21,1.88-8.89.25S415.51,315.16,421,312.84Z"/><path class="cls-3" d="M443.56,310.36c-5.53,2.32-10.58,2.87-11.26,1.24s3.25-4.83,8.79-7.15,8.21-1.88,8.89-.25S449.1,308,443.56,310.36Z"/><path class="cls-3" d="M439.39,302.76c-2.27,5.55-5.45,9.51-7.08,8.84s-1.12-5.72,1.16-11.27,4.47-7.13,6.11-6.46S441.67,297.21,439.39,302.76Z"/><path class="cls-3" d="M425.22,320.44c2.28-5.55,5.45-9.51,7.08-8.84s1.12,5.71-1.16,11.27-4.47,7.13-6.11,6.46S422.95,326,425.22,320.44Z"/><path class="cls-3" d="M423.47,304.51c5.55,2.28,9.51,5.45,8.84,7.08s-5.71,1.12-11.27-1.16-7.13-4.47-6.46-6.11S417.91,302.24,423.47,304.51Z"/><path class="cls-3" d="M441.15,318.68c-5.55-2.28-9.51-5.45-8.84-7.08s5.72-1.12,11.27,1.16,7.14,4.47,6.46,6.11S446.7,321,441.15,318.68Z"/><path class="cls-3" d="M435.51,300.73c0,6-1.43,10.87-3.2,10.87s-3.2-4.87-3.2-10.87,1.43-8.3,3.2-8.3S435.51,294.73,435.51,300.73Z"/><path class="cls-3" d="M429.1,322.46c0-6,1.43-10.87,3.2-10.87s3.2,4.87,3.2,10.87-1.43,8.3-3.2,8.3S429.1,328.46,429.1,322.46Z"/><path class="cls-3" d="M421.44,308.4c6,0,10.86,1.43,10.86,3.2s-4.86,3.2-10.86,3.2-8.3-1.43-8.3-3.2S415.44,308.4,421.44,308.4Z"/><path class="cls-3" d="M443.17,314.8c-6,0-10.87-1.43-10.87-3.2s4.87-3.2,10.87-3.2,8.3,1.43,8.3,3.2S449.17,314.8,443.17,314.8Z"/><path class="cls-3" d="M442.25,306.18c-4.24,4.24-8.7,6.67-9.95,5.42s1.18-5.7,5.42-9.95,6.88-4.85,8.13-3.6S446.49,301.93,442.25,306.18Z"/><path class="cls-3" d="M422.36,317c4.24-4.24,8.7-6.67,9.95-5.42s-1.17,5.7-5.42,9.95-6.88,4.85-8.13,3.6S418.11,321.26,422.36,317Z"/><path class="cls-3" d="M426.89,301.65c4.24,4.24,6.67,8.7,5.42,9.95s-5.7-1.18-9.95-5.42-4.85-6.88-3.6-8.13S422.64,297.41,426.89,301.65Z"/><path class="cls-3" d="M437.72,321.54c-4.24-4.24-6.67-8.7-5.42-9.95s5.71,1.18,9.95,5.42,4.85,6.88,3.6,8.13S442,325.79,437.72,321.54Z"/><circle class="cls-52" cx="432.3" cy="311.66" r="5.5"/><path class="cls-3" d="M427.6,327.44c1.49,3.55,1.84,6.79.8,7.23s-3.1-2.09-4.59-5.64-1.21-5.27-.16-5.71S426.11,323.89,427.6,327.44Z"/><path class="cls-3" d="M429.19,341.9c-1.49-3.55-1.84-6.79-.8-7.23s3.1,2.09,4.59,5.64,1.21,5.27.16,5.7S430.68,345.45,429.19,341.9Z"/><path class="cls-3" d="M421.17,335.47c3.55-1.49,6.79-1.84,7.23-.8s-2.09,3.1-5.64,4.59-5.27,1.2-5.71.16S417.62,337,421.17,335.47Z"/><path class="cls-3" d="M435.62,333.87c-3.55,1.49-6.79,1.84-7.23.8s2.09-3.1,5.64-4.59,5.27-1.21,5.71-.16S439.17,332.38,435.62,333.87Z"/><path class="cls-3" d="M432.94,329c-1.46,3.56-3.49,6.1-4.55,5.67s-.72-3.67.74-7.23,2.87-4.58,3.92-4.15S434.4,325.43,432.94,329Z"/><path class="cls-3" d="M423.85,340.34c1.46-3.56,3.5-6.1,4.55-5.67s.72,3.67-.74,7.23-2.87,4.58-3.92,4.15S422.39,343.91,423.85,340.34Z"/><path class="cls-3" d="M422.72,330.12c3.57,1.46,6.11,3.5,5.67,4.55s-3.67.72-7.23-.74-4.58-2.87-4.15-3.92S419.16,328.66,422.72,330.12Z"/><path class="cls-3" d="M434.07,339.22c-3.56-1.46-6.1-3.5-5.67-4.55s3.67-.72,7.23.74,4.58,2.87,4.15,3.92S437.63,340.68,434.07,339.22Z"/><path class="cls-3" d="M430.45,327.7c0,3.85-.92,7-2.06,7s-2.05-3.12-2.05-7,.92-5.33,2.05-5.33S430.45,323.84,430.45,327.7Z"/><path class="cls-3" d="M426.34,341.64c0-3.85.92-7,2.05-7s2.06,3.12,2.06,7-.92,5.33-2.06,5.33S426.34,345.5,426.34,341.64Z"/><path class="cls-3" d="M421.42,332.61c3.85,0,7,.92,7,2.05s-3.12,2.06-7,2.06-5.33-.92-5.33-2.06S417.57,332.61,421.42,332.61Z"/><path class="cls-3" d="M435.37,336.72c-3.85,0-7-.92-7-2.06s3.12-2.05,7-2.05,5.32.92,5.32,2.05S439.22,336.72,435.37,336.72Z"/><path class="cls-3" d="M434.78,331.19c-2.73,2.72-5.59,4.28-6.39,3.48s.75-3.66,3.48-6.38,4.41-3.12,5.22-2.31S437.5,328.47,434.78,331.19Z"/><path class="cls-3" d="M422,338.15c2.72-2.72,5.58-4.28,6.39-3.48s-.75,3.66-3.48,6.39-4.42,3.11-5.22,2.31S419.29,340.87,422,338.15Z"/><path class="cls-3" d="M424.92,328.28c2.72,2.72,4.28,5.58,3.48,6.38s-3.66-.76-6.39-3.48-3.11-4.42-2.31-5.22S422.19,325.56,424.92,328.28Z"/><path class="cls-3" d="M431.87,341.06c-2.73-2.73-4.28-5.58-3.48-6.39s3.66.76,6.39,3.48,3.11,4.42,2.31,5.22S434.6,343.78,431.87,341.06Z"/><circle class="cls-52" cx="428.4" cy="334.71" r="3.53"/></svg>