<svg id="Layer_1" data-name="Layer 1" xmlns="http://www.w3.org/2000/svg" xmlns:xlink="http://www.w3.org/1999/xlink" viewBox="0 0 708.66 481.89"><defs><style>.cls-1,.cls-14,.cls-40{fill:none;}.cls-2{fill:#d5eff0;}.cls-3{opacity:0.07;}.cls-4{fill:#10182b;}.cls-5,.cls-8{fill:#f8ab8d;}.cls-13,.cls-5{fill-rule:evenodd;}.cls-6{fill:#36303c;}.cls-21,.cls-7{fill:#fff;}.cls-9{fill:#e5e5e4;}.cls-10{fill:#515180;}.cls-11{fill:#979797;}.cls-12{fill:gray;}.cls-13,.cls-17{fill:#dc846a;}.cls-14{stroke:#dc846a;stroke-linecap:round;stroke-linejoin:round;stroke-width:2px;}.cls-15{clip-path:url(#clip-path);}.cls-16{fill:#443d4c;}.cls-18{fill:#e59a83;}.cls-19{fill:#7a7a7a;}.cls-20{fill:#6b6a6a;}.cls-21{font-size:56.52px;font-family:Impact, Impact;}.cls-22{fill:#c13636;}.cls-23{fill:#754d24;}.cls-24{fill:#d33b37;}.cls-25{fill:#dd4439;}.cls-26{fill:#f2f2f2;}.cls-27{fill:#8b6339;}.cls-28{fill:#e79b88;}.cls-29{fill:#8bbaea;}.cls-30{clip-path:url(#clip-path-2);}.cls-31{clip-path:url(#clip-path-3);}.cls-32{fill:#d1d1d1;}.cls-33{fill:#474747;}.cls-34{clip-path:url(#clip-path-4);}.cls-35{fill:#d8a97c;}.cls-36{clip-path:url(#clip-path-5);}.cls-37{fill:#212121;}.cls-38,.cls-39{fill:#a4e4ea;opacity:0.51;}.cls-39,.cls-40{stroke:#fccd6d;stroke-miterlimit:10;}.cls-40{stroke-width:3px;}.cls-41{fill:#fccd6d;}.cls-42{fill:#eeefef;}.cls-43{fill:#a4a6a9;}.cls-44{fill:#b9bbbd;}</style><clipPath id="clip-path"><rect class="cls-1" x="401.39" y="42.73" width="69.49" height="12.59" rx="3.08" ry="3.08" transform="translate(23.19 -99.62) rotate(13.38)"/></clipPath><clipPath id="clip-path-2"><path d="M127.78,99.78c.15-3.23,2.64-9.32,9.68-5.72a.18.18,0,0,1,.1.2,5.23,5.23,0,0,1-2.08,3.37c-1.75,1.05-5.25.7-7,2.1l-.43.22A.18.18,0,0,1,127.78,99.78Z"/></clipPath><clipPath id="clip-path-3"><path d="M109,99.78c-.15-3.23-2.64-9.32-9.68-5.72a.18.18,0,0,0-.1.2,5.23,5.23,0,0,0,2.08,3.37c1.75,1.05,5.25.7,7,2.1l.43.22A.18.18,0,0,0,109,99.78Z"/></clipPath><clipPath id="clip-path-4"><path class="cls-1" d="M127.78,102.61c.15-3.23,2.64-9.32,9.68-5.72a.18.18,0,0,1,.1.2,5.23,5.23,0,0,1-2.08,3.37c-1.75,1.05-5.25.7-7,2.1l-.43.22A.18.18,0,0,1,127.78,102.61Z"/></clipPath><clipPath id="clip-path-5"><path class="cls-1" d="M109,102.61c-.15-3.23-2.64-9.32-9.68-5.72a.18.18,0,0,0-.1.2,5.23,5.23,0,0,0,2.08,3.37c1.75,1.05,5.25.7,7,2.1l.43.22A.18.18,0,0,0,109,102.61Z"/></clipPath></defs><title>CS-L2-U8</title><rect class="cls-2" y="108.16" width="708.66" height="236.98"/><path class="cls-3" d="M487.18,154.29a20.89,20.89,0,0,0-.94-6.22V146a10.78,10.78,0,0,0-10.78-10.78c-.22,0-.43,0-.64,0a20.81,20.81,0,0,0-8.54-1.82H453.5l-8.37-5.47v-2c11.86-5,19.21-16.43,22.72-30.22.09.1.16.22.25.32,3.94,4.5,7.16-8,9-13,1.81-4.84-.77-8-4.5-8.25a58.94,58.94,0,0,0-.89-11.56l2.93.7,1.44-6-2.46-.59.82-3.47a2.87,2.87,0,0,0,0-1.43c4.31.51,6.93.29,7.24-1,.82-3.46-16.5-10.55-38.69-15.83s-40.85-6.75-41.67-3.29c-.23,1,1.06,2,3.52,3.11l-1.14,4.79,2.46.59-.75,3.17h0l-.07.29h-1.68s0,.21.05.6a24.61,24.61,0,0,0,1.55,7.07v0a14.25,14.25,0,0,0,3.61,6.09h-7a7.55,7.55,0,0,0,1.41,5,10,10,0,0,0,3.19,3.08,47.68,47.68,0,0,0-2.85,13.72,66,66,0,0,0,.07,9.86c0-.12-.08-.22-.12-.34a30.56,30.56,0,0,0,.76,5.85,58.65,58.65,0,0,0,5.49,17.78,17.09,17.09,0,0,0-1.45,3.87c-.9,3.92.49,12.44,1.3,16.76a21.45,21.45,0,0,0-9.66,3.66c-.22.14-.45.27-.66.42l-54.07,38.3a10.75,10.75,0,0,0-5.87,6.66h0a10.75,10.75,0,0,0,1.59,9.47l0,.08h0l.11.14.31.39a10.74,10.74,0,0,0,6.83,3.9l42.34,12.59v95.67h7.8l.15,8.1a13.79,13.79,0,0,0,13.9,13.68l52.71-.43a13.79,13.79,0,0,0,13.68-13.9l-.14-7.46h8.44Zm-96.56,32.38-16.34-4.86,16.34-11.57Z"/><rect id="_Rectangle_" data-name="&lt;Rectangle&gt;" class="cls-4" x="363.15" y="121.24" width="21.57" height="89.86" rx="10.78" ry="10.78" transform="translate(293.4 -235.02) rotate(54.69)"/><path id="_Path_" data-name="&lt;Path&gt;" class="cls-5" d="M424.85,128.56c23.82,1.28,36.49-16.32,40.39-38.19,4.1-23-11.32-42.08-30-42.14-21.25-.07-33.65,8.22-35.4,31.55-1.1,14.65,3.31,44,25,48.78Z"/><path id="_Path_2" data-name="&lt;Path&gt;" class="cls-6" d="M474.63,286.51l-80.3.65.48,25.78a13.79,13.79,0,0,0,13.9,13.68l52.71-.43a13.79,13.79,0,0,0,13.68-13.9Z"/><path id="_Rectangle_2" data-name="&lt;Rectangle&gt;" class="cls-6" d="M409.78,133.39h51.45a22.19,22.19,0,0,1,22.19,22.19V304.83a0,0,0,0,1,0,0H386.86a0,0,0,0,1,0,0V156.31A22.93,22.93,0,0,1,409.78,133.39Z"/><polygon id="_Path_3" data-name="&lt;Path&gt;" class="cls-4" points="455.3 133.39 458.2 142.99 450.3 150.87 453.62 157.08 418.88 205.93 405.15 156.95 409.46 150.55 406.67 142.99 412.71 133.39 455.3 133.39"/><polygon id="_Path_4" data-name="&lt;Path&gt;" class="cls-7" points="416 133.39 422.13 189.74 449.73 133.39 416 133.39"/><path id="_Path_5" data-name="&lt;Path&gt;" class="cls-8" d="M434.22,109.18h.25a6.94,6.94,0,0,0-6.9,7.14V131.6c0,3.95,3,5.17,6.9,5.17h-.12c3.95,0,7-1.23,7-5.17V116.33A7.14,7.14,0,0,0,434.22,109.18Z"/><polygon id="_Path_6" data-name="&lt;Path&gt;" class="cls-9" points="449.73 133.39 441.36 127.91 432.25 135.42 437.56 147.95 449.73 133.39"/><polygon id="_Path_7" data-name="&lt;Path&gt;" class="cls-9" points="416 133.39 427.57 127.91 432.25 135.42 422.13 147.95 416 133.39"/><polygon id="_Path_8" data-name="&lt;Path&gt;" class="cls-10" points="432.25 135.42 435.41 142.89 427.57 150.55 425.38 143.93 432.25 135.42"/><polygon id="_Path_9" data-name="&lt;Path&gt;" class="cls-10" points="429.81 147.85 431.05 171.54 422.13 189.74 419.94 169.6 426.92 147.13 429.81 147.85"/><ellipse id="_Path_10" data-name="&lt;Path&gt;" class="cls-4" cx="425.49" cy="232.37" rx="4.49" ry="5.55"/><ellipse id="_Path_11" data-name="&lt;Path&gt;" class="cls-4" cx="425.49" cy="262.71" rx="4.49" ry="5.55"/><path id="_Path_12" data-name="&lt;Path&gt;" class="cls-11" d="M466.8,58.92c2.23,5.75,2.24,14.39,1.95,19.89a5.5,5.5,0,0,0-4.7-1.17,6.58,6.58,0,0,0-.75.18h0l-.37.12-.37.14-.38.17-.27.14-.45.25-.35.22-.35.24-.33.26-.33.28c-.22.19-.43.4-.63.61,0,0,0,0,0,.06l-.12.15-.07.09-.08.1,0,0,0,0,0,0a.27.27,0,0,0,0,.06v10A4.5,4.5,0,0,1,458,94.24a5.46,5.46,0,0,1-.46.51,7.17,7.17,0,0,1-3.06.89c-2.62,0-5.26-2.15-5.26-4.77V87.29a5.18,5.18,0,0,0-4.76-5.18l-.91-.06c-.07-4.09,0-7.32,0-9.33,0-2.49-.89-4.14-6.41-4.7H437c-.48,0-1-.09-1.55-.12h-.12c-1,0-2-.07-3.21-.07H406.73l-.29-.07c-1.08-.3-5-1.58-6.95-4.75a7.55,7.55,0,0,1-1.41-5h7a14.25,14.25,0,0,1-3.61-6.09,33.29,33.29,0,0,1-1.61-7.7h11.66s11.67-8.49,24.64-7.39c20.45,1.72,27.2,14.86,27.2,14.86s-4.51-.22.31,0C461,54.69,464.58,53.39,466.8,58.92Z"/><path id="_Path_13" data-name="&lt;Path&gt;" class="cls-12" d="M435.33,67.87c-1,0-2-.07-3.21-.07H406.73l-.29-.07c-1.08-.3-5-1.58-6.95-4.75a7.55,7.55,0,0,1-1.41-5s6,6.82,9.92,7.51l.3,0C412.24,66.12,429.61,67.45,435.33,67.87Z"/><path id="_Path_14" data-name="&lt;Path&gt;" class="cls-11" d="M440.77,106.37l-.58,3.63-1.32,8.18,0,.09-.42,2.63c-1.21,7.23-7.21,11.9-13.4,10.42l-7.29-1.73a10.37,10.37,0,0,1-6.44-4.84,18.89,18.89,0,0,1-2.54-9l.37-11.83c.53-3.15,1.34-4.37,4.08-4.34h23.73C439.56,100.2,441.27,103.24,440.77,106.37Z"/><path id="_Path_15" data-name="&lt;Path&gt;" class="cls-7" d="M421.89,111.15c-4.92,0-9.24-2.66-9.24-5.7v-.71h19v.71c0,2.76-2.89,5.7-8.26,5.7Z"/><path id="_Path_16" data-name="&lt;Path&gt;" class="cls-12" d="M399.9,44.15s4.52,10.29,10.9,12.9c5.42,2.22,31.87,3.06,31.87,3.06a45.15,45.15,0,0,1-8.2,2c-2.41.25-25.69,1-29.34-4.13A22.69,22.69,0,0,1,399.9,44.15Z"/><path id="_Path_17" data-name="&lt;Path&gt;" class="cls-11" d="M457.56,94.75a23,23,0,0,1-3.94,3.06c-5.24,3.47-12.66,7.64-14.75,17.11l0,.07c-1,4.56-1.92,4-2.58,1.44-1.14-4.48-1.47-15.18.09-17.15h0c4.49,0,12.87-2.93,12.87-8.41S462.86,90,457.56,94.75Z"/><path id="_Path_18" data-name="&lt;Path&gt;" class="cls-11" d="M408.86,114.3c.17-5.15-8.64-11.26-9.07-25a13.84,13.84,0,0,0,13.42,10C414.86,101.34,410.11,110.29,408.86,114.3Z"/><path id="_Path_19" data-name="&lt;Path&gt;" class="cls-12" d="M453.62,97.82c-5.24,4.13-12.66,9.09-14.75,20.37l0,.09-.42,2.63c-1.21,7.23-7.21,11.9-13.4,10.42l-7.29-1.73a10.37,10.37,0,0,1-6.44-4.84,44,44,0,0,0,11.46,3.09c5.47.49,12.06-1.36,13.52-7.86h0a38.63,38.63,0,0,1,3.92-10C443.11,104.78,447.55,99.66,453.62,97.82Z"/><rect id="_Rectangle_3" data-name="&lt;Rectangle&gt;" class="cls-7" x="441.12" y="180.47" width="21.46" height="7.95" transform="translate(903.69 368.88) rotate(-180)"/><g id="_Group_" data-name="&lt;Group&gt;"><line id="_Path_20" data-name="&lt;Path&gt;" class="cls-11" x1="404.97" y1="77.07" x2="413.49" y2="76.63"/><path id="_Path_21" data-name="&lt;Path&gt;" class="cls-11" d="M404.77,78.48a1.42,1.42,0,0,1,.13-2.83l8.52-.43a1.42,1.42,0,0,1,.14,2.84l-8.52.43Z"/></g><g id="_Group_2" data-name="&lt;Group&gt;"><line id="_Path_22" data-name="&lt;Path&gt;" class="cls-11" x1="429" y1="76.63" x2="437.52" y2="77.07"/><path id="_Path_23" data-name="&lt;Path&gt;" class="cls-11" d="M428.8,75.23a1.42,1.42,0,0,0,.13,2.83l8.52.43a1.42,1.42,0,0,0,.14-2.84l-8.52-.43Z"/></g><circle id="_Path_24" data-name="&lt;Path&gt;" cx="432.2" cy="85.83" r="1.92"/><circle id="_Path_25" data-name="&lt;Path&gt;" cx="409.89" cy="86.49" r="1.92"/><polygon id="_Path_26" data-name="&lt;Path&gt;" class="cls-13" points="421.76 84.98 422.02 97.13 418.43 96.54 421.76 84.98"/><path id="_Path_27" data-name="&lt;Path&gt;" class="cls-14" d="M439.36,88.42a10,10,0,0,1-5.94,1.75h0a10.76,10.76,0,0,1-5.94-1.75"/><path id="_Path_28" data-name="&lt;Path&gt;" class="cls-14" d="M415.74,88.42a10,10,0,0,1-5.94,1.75h0a10.76,10.76,0,0,1-5.94-1.75"/><g id="_Group_3" data-name="&lt;Group&gt;"><path id="_Path_29" data-name="&lt;Path&gt;" class="cls-5" d="M459,80.64a11.29,11.29,0,0,1,3.93-4.11c6.09-4.22,13.18-.8,10.48,6.43-1.89,5-5.11,17.54-9,13C461.31,92.56,459.13,87.3,459,80.64Z"/><polygon id="_Path_30" data-name="&lt;Path&gt;" class="cls-13" points="463.66 81.37 471.66 80.03 465.63 91 467.66 81.96 463.66 81.37"/></g><rect class="cls-6" x="401.39" y="42.73" width="69.49" height="12.59" rx="3.53" ry="3.53" transform="translate(23.19 -99.62) rotate(13.38)"/><path class="cls-6" d="M469.09,60.59c-.7,3-17.81,9-36.48,4.57S400.79,47.46,401.49,44.5"/><g class="cls-15"><rect class="cls-7" x="400.57" y="34.7" width="6.21" height="6.21" transform="translate(19.71 -92.41) rotate(13.38)"/><rect class="cls-7" x="412.61" y="37.8" width="6.21" height="6.21" transform="translate(20.76 -95.11) rotate(13.38)"/><rect class="cls-7" x="412.61" y="37.8" width="6.21" height="6.21" transform="translate(20.76 -95.11) rotate(13.38)"/><rect class="cls-7" x="424.69" y="40.68" width="6.21" height="6.21" transform="translate(21.75 -97.83) rotate(13.38)"/><rect class="cls-7" x="436.78" y="43.55" width="6.21" height="6.21" transform="translate(22.75 -100.55) rotate(13.38)"/><rect class="cls-7" x="448.87" y="46.43" width="6.21" height="6.21" transform="translate(23.74 -103.27) rotate(13.38)"/><rect class="cls-7" x="460.96" y="49.31" width="6.21" height="6.21" transform="translate(24.73 -105.99) rotate(13.38)"/><rect class="cls-7" x="405.12" y="42.41" width="6.21" height="6.21" transform="translate(21.62 -93.25) rotate(13.38)"/><rect class="cls-7" x="417.16" y="45.51" width="6.21" height="6.21" transform="translate(22.66 -95.95) rotate(13.38)"/><rect class="cls-7" x="417.16" y="45.51" width="6.21" height="6.21" transform="translate(22.66 -95.95) rotate(13.38)"/><rect class="cls-7" x="429.25" y="48.38" width="6.21" height="6.21" transform="translate(23.66 -98.67) rotate(13.38)"/><rect class="cls-7" x="441.33" y="51.26" width="6.21" height="6.21" transform="translate(24.65 -101.39) rotate(13.38)"/><rect class="cls-7" x="453.42" y="54.14" width="6.21" height="6.21" transform="translate(25.65 -104.11) rotate(13.38)"/><rect class="cls-7" x="465.51" y="57.01" width="6.21" height="6.21" transform="translate(26.64 -106.83) rotate(13.38)"/></g><path class="cls-16" d="M477.92,51.33c-.82,3.46-18.23-.79-40.42-6.07s-40.76-9.59-39.94-13.05,19.48-2,41.67,3.29S478.74,47.87,477.92,51.33Z"/><rect id="_Rectangle_4" data-name="&lt;Rectangle&gt;" class="cls-4" x="460.91" y="135.18" width="21.57" height="89.86" rx="10.78" ry="10.78" transform="translate(943.38 360.22) rotate(-180)"/><path id="_Path_31" data-name="&lt;Path&gt;" class="cls-17" d="M431.21,135s-4-11.75-4.78-17c-7.38-1.16-8.44,9.2-8.44,9.2Z"/><rect id="_Rectangle_5" data-name="&lt;Rectangle&gt;" class="cls-18" x="429.01" y="129.35" width="17.34" height="66.47" rx="4.88" ry="4.88" transform="translate(-23.5 235.48) rotate(-29.36)"/><path id="_Path_32" data-name="&lt;Path&gt;" class="cls-18" d="M419.51,149.54l-13.09-13.36s-3.06-14-1.83-19.39c1.43-6.26,7.5-12.05,8.7-13.05,3.2-2.67,6.48,18.3,6.48,18.3l12.37,13.86Z"/><path id="_Path_33" data-name="&lt;Path&gt;" class="cls-4" d="M439.46,145.38l-18.29,11a.1.1,0,0,0,0,.14l39.91,65a10.78,10.78,0,0,0,14.81,3.65h0a10.78,10.78,0,0,0,3.65-14.81l-39.91-65A.1.1,0,0,0,439.46,145.38Z"/><path id="_Path_34" data-name="&lt;Path&gt;" class="cls-17" d="M429.13,220s10.79,6.11,14.93,9.48c6.27-4.07.14-12.49.14-12.49Z"/><rect id="_Rectangle_6" data-name="&lt;Rectangle&gt;" class="cls-18" x="397.2" y="170.5" width="17.34" height="66.47" rx="4.88" ry="4.88" transform="translate(729.26 -115.11) rotate(108.75)"/><path id="_Path_35" data-name="&lt;Path&gt;" class="cls-18" d="M428.12,201.32l18.67,1.2s11.63,8.39,14.31,13.21c3.11,5.61,2.47,14,2.24,15.52-.6,4.13-17-9.29-17-9.29l-18.46-2.06Z"/><path id="_Path_36" data-name="&lt;Path&gt;" class="cls-4" d="M416,217.74l6.24-20.44a.1.1,0,0,0-.07-.12l-73.12-21.75a10.78,10.78,0,0,0-13.46,7.17h0a10.78,10.78,0,0,0,7.17,13.46l73.13,21.75A.1.1,0,0,0,416,217.74Z"/><rect class="cls-19" x="241.33" y="212.05" width="257.15" height="239.26"/><rect class="cls-20" x="496.6" y="212.05" width="81.01" height="239.26"/><text class="cls-21" transform="translate(283.72 309.07)">POLICE</text><path class="cls-3" d="M295.1,308l.32-.23a.12.12,0,0,0,0-.17l-30-41.53-5.8-38.49V222a12.29,12.29,0,0,0-1.26-5.41,5.27,5.27,0,0,0,1-1.86c1.33-4.78,3.36-14.2,5-31.14a139.88,139.88,0,0,0-1-32.91,27.48,27.48,0,0,0-2-7.15h0s-1.16-6.27-2.91-9.69a1,1,0,0,0-.19-.36l-.06-.12a1.52,1.52,0,0,0-.37-.58h0c-1.22-1.33-5.25-3.28-10.65-4.82-6.63-2.11-15.25-3.52-23.25-1.86-6.74,1.06-13,3.89-17.37,9.62-11.28,15-10,66.29-6.68,84.46l-14,45.43a5.25,5.25,0,0,0-.08,2.82c0,.08,0,.15,0,.23a5.28,5.28,0,0,0,5.63,4.89l9.8-.67V394.72h7.66v49.47a7.75,7.75,0,0,0-.53,1.75l-.15,4.37a1.34,1.34,0,0,0,1.34,1.39h63.82a1.34,1.34,0,0,0,1.34-1.34v-1.66a1.34,1.34,0,0,0-1-1.31l-21-6a2.21,2.21,0,0,0-.93-1.2V394.72h7.9V276.11l23.9,33.07.37.69a86.19,86.19,0,0,1,.31,9.94,3.54,3.54,0,0,0,4.22-1.12c-.13,1.61-.87,11.71,1.09,10.75.8-.39,4.94-2.76,6.58-6,1.41-2.8,1.64-10.94,1.64-10.94Zm-97.25-45.47,3.34-10.83v10.6Zm41.33,181.64a7.74,7.74,0,0,0-.53,1.75v.14l-16.73-4.69a1.88,1.88,0,0,0-.51-.64v-46h17.78Z"/><path class="cls-22" d="M255,132.8c2.09,2.95,3.53,10.74,3.53,10.74l-6-3.27-4.52-9Z"/><path id="_Path_37" data-name="&lt;Path&gt;" class="cls-23" d="M231,147.16l16.23-5.34,3.18-4.92s7.87-.49,10.17,13.79a139.88,139.88,0,0,1,1,32.91c-1.67,16.93-3.7,26.36-5,31.14a5.32,5.32,0,0,1-5.58,3.87l-9-.76c-2.85-.24-26.34-2.69-26.21-5.55l2.88-62.58C216.29,148.91,231,147.16,231,147.16Z"/><rect id="_Rectangle_7" data-name="&lt;Rectangle&gt;" class="cls-8" x="236.36" y="372.16" width="12.55" height="78.79" rx="5.77" ry="5.77" transform="translate(485.26 823.1) rotate(180)"/><path id="_Path_38" data-name="&lt;Path&gt;" class="cls-24" d="M270.84,447.39l-21-6C248,436.85,242.6,445,242.6,445c-4,0-6.18-3-6.18-1.29,0,.76-.58,1.42-.6,2.22l-.15,4.37A1.34,1.34,0,0,0,237,451.7h33.5a1.34,1.34,0,0,0,1.34-1.34v-1.66A1.34,1.34,0,0,0,270.84,447.39Z"/><path id="_Path_39" data-name="&lt;Path&gt;" class="cls-24" d="M284.22,313.81l8.37-6a.12.12,0,0,0,0-.17l-31.77-44a5.28,5.28,0,0,0-7.36-1.2h0a5.28,5.28,0,0,0-1.2,7.38L284,313.78A.13.13,0,0,0,284.22,313.81Z"/><path id="_Path_40" data-name="&lt;Path&gt;" class="cls-24" d="M258.3,273.09h0a5.28,5.28,0,0,0,4.45-6l-7.31-48.52a5.28,5.28,0,0,0-6-4.44h0a5.28,5.28,0,0,0-4.45,6l7.31,48.52A5.28,5.28,0,0,0,258.3,273.09Z"/><rect id="_Rectangle_8" data-name="&lt;Rectangle&gt;" class="cls-8" x="206.03" y="324.95" width="12.55" height="59.75" rx="5.77" ry="5.77" transform="translate(424.61 709.66) rotate(180)"/><rect id="_Rectangle_9" data-name="&lt;Rectangle&gt;" class="cls-8" x="206.03" y="372.16" width="12.55" height="78.79" rx="5.77" ry="5.77" transform="translate(424.61 823.1) rotate(180)"/><path id="_Path_41" data-name="&lt;Path&gt;" class="cls-25" d="M240.51,447.39l-21.42-6c-1.83-3.49-6.33,4.52-6.33,4.52-4,0-6.66-3.92-6.66-2.19,0,.76-.58,1.42-.6,2.22l-.15,4.37a1.34,1.34,0,0,0,1.34,1.39h33.5a1.34,1.34,0,0,0,1.34-1.34v-1.66A1.34,1.34,0,0,0,240.51,447.39Z"/><path id="_Path_42" data-name="&lt;Path&gt;" class="cls-17" d="M281.07,309.76a89.11,89.11,0,0,1,.32,10c3.91,1.65,5.91-3.92,5.91-3.92Z"/><path id="_Path_43" data-name="&lt;Path&gt;" class="cls-8" d="M289.51,303.33l5.4,9.16s-.22,8.14-1.64,10.94c-1.64,3.26-5.78,5.62-6.58,6-2.13,1-1.08-11-1.08-11l-4.93-9.33Z"/><path id="_Rectangle_10" data-name="&lt;Rectangle&gt;" class="cls-25" d="M198.37,209.57h58.44a0,0,0,0,1,0,0V382a12.75,12.75,0,0,1-12.75,12.75h-32.5a13.19,13.19,0,0,1-13.19-13.19v-172a0,0,0,0,1,0,0Z" transform="translate(455.18 604.28) rotate(-180)"/><ellipse id="_Path_44" data-name="&lt;Path&gt;" class="cls-26" cx="228.94" cy="211.8" rx="9.34" ry="6.07"/><path id="_Path_45" data-name="&lt;Path&gt;" class="cls-8" d="M229.56,192.48h-.19a5.32,5.32,0,0,1,5.29,5.48v11.7c0,3-2.26,4-5.29,4h.09c-3,0-5.38-.94-5.38-4V198A5.48,5.48,0,0,1,229.56,192.48Z"/><path id="_Path_46" data-name="&lt;Path&gt;" class="cls-5" d="M238.54,202.08c-19.36,1-29.66-13.27-32.82-31-3.33-18.72,9.2-34.21,24.38-34.25,17.27-.06,27.35,6.68,28.77,25.65.89,11.91-2.69,35.78-20.33,39.65Z"/><g id="_Group_4" data-name="&lt;Group&gt;"><line id="_Path_47" data-name="&lt;Path&gt;" class="cls-27" x1="253.33" y1="167.68" x2="246.65" y2="164.95"/><path id="_Path_48" data-name="&lt;Path&gt;" class="cls-27" d="M253.09,168.86a1.2,1.2,0,0,0,.69-2.29l-6.67-2.73a1.2,1.2,0,1,0-.91,2.22l6.67,2.73Z"/></g><g id="_Group_5" data-name="&lt;Group&gt;"><line id="_Path_49" data-name="&lt;Path&gt;" class="cls-27" x1="233.66" y1="165.07" x2="226.89" y2="167.56"/><path id="_Path_50" data-name="&lt;Path&gt;" class="cls-27" d="M233.47,163.89a1.2,1.2,0,0,1,.61,2.31l-6.77,2.49a1.2,1.2,0,1,1-.83-2.26l6.77-2.49Z"/></g><circle id="_Path_51" data-name="&lt;Path&gt;" cx="230.37" cy="172.92" r="2.11"/><circle id="_Path_52" data-name="&lt;Path&gt;" cx="249.33" cy="173.64" r="2.11"/><polygon id="_Path_53" data-name="&lt;Path&gt;" class="cls-13" points="242.55 180.28 238.28 183.13 242.55 183.13 242.55 180.28"/><path id="_Path_54" data-name="&lt;Path&gt;" class="cls-24" d="M242.06,259.32l.74,10.4a.13.13,0,0,1-.12.14l-54.11,3.71a5.28,5.28,0,0,1-5.63-4.89h0a5.28,5.28,0,0,1,4.91-5.65l54.2-3.72Z"/><path id="_Path_55" data-name="&lt;Path&gt;" class="cls-24" d="M186.52,272.25h0a5.28,5.28,0,0,1-3.5-6.61l14.47-46.88a5.28,5.28,0,0,1,6.59-3.49h0a5.28,5.28,0,0,1,3.5,6.61l-14.47,46.88A5.28,5.28,0,0,1,186.52,272.25Z"/><path id="_Path_56" data-name="&lt;Path&gt;" class="cls-8" d="M237.48,270.3,248,269.08s6.36-5.1,7.74-7.91c1.6-3.27,1-8,.82-8.87-.46-2.33-9.4,5.77-9.4,5.77l-10.42,1.7Z"/><ellipse id="_Path_57" data-name="&lt;Path&gt;" class="cls-28" cx="226.23" cy="182.91" rx="5.18" ry="4.84" transform="translate(-35.66 56.21) rotate(-13.14)"/><ellipse id="_Path_58" data-name="&lt;Path&gt;" class="cls-28" cx="250.97" cy="182.6" rx="4.84" ry="5.18" transform="translate(16.15 385.56) rotate(-76.88)"/><path id="_Path_59" data-name="&lt;Path&gt;" class="cls-27" d="M219.17,215.21c-.21-12.75-.68-37.84.19-47.26,4.44-13.92,41,3.71,36.38-28.74-5.86-10.83-26.71-10-37-5-12.94,6.19-16.05,12.91-17.72,44.06a288.8,288.8,0,0,0,.09,37.83,5.08,5.08,0,0,0,3.82,4.5,42.69,42.69,0,0,0,7.72,1A6.23,6.23,0,0,0,219.17,215.21Z"/><circle class="cls-17" cx="240.8" cy="191.81" r="2.71"/><path class="cls-3" d="M255.24,134.33c4.54-1.3-33.32-20.32-49.71,1.41S198.3,237,201.91,218C209.07,180.46,243.91,137.57,255.24,134.33Z"/><path class="cls-24" d="M253.43,134.33c11.78-.39-33.32-20.32-49.71,1.41S197.39,256,201.91,218,241.66,134.73,253.43,134.33Z"/><circle class="cls-29" cx="118.31" cy="90.17" r="63.42"/><circle class="cls-29" cx="188.84" cy="129.09" r="8.01"/><g class="cls-3"><path d="M110.67,64.33c-4.61-14-23.7-23-23.7-23S71.21,51.08,83.64,80.5Z"/><path d="M124.52,64.33c4.61-14,23.7-23,23.7-23S164,51.08,151.55,80.5Z"/><path d="M130.33,67c3.54-10.71,18.2-17.66,18.2-17.66s12.1,7.49,2.56,30.08Z"/><path d="M104.86,68.08c-3.54-10.71-18.2-17.66-18.2-17.66S74.56,57.9,84.11,80.5Z"/><path d="M159.38,113c1.05-34.67-17.86-56.74-39.93-56.74-25.57,0-44.48,25.57-42,56.74,0,0,10.16-2.45,27,6l28,.35C143.62,112.67,159.38,113,159.38,113Z"/><path d="M87.23,106.71S93.88,83.6,106.49,86c8,1.56,9.46,10.16,8.41,16.81,0,0,2.73,2.06,3.85,1.75a18.09,18.09,0,0,0,3.15-1.75c-.7-6.3-.89-16.22,9.46-16.81,12.26-.7,18.21,20.66,18.21,20.66-28.37,4.55-8.41,31.52-31,31.52C94.58,138.23,115.6,110.57,87.23,106.71Z"/><ellipse cx="118.4" cy="126.33" rx="8.06" ry="5.6"/><path d="M127.78,99.78c.15-3.23,2.64-9.32,9.68-5.72a.18.18,0,0,1,.1.2,5.23,5.23,0,0,1-2.08,3.37c-1.75,1.05-5.25.7-7,2.1l-.43.22A.18.18,0,0,1,127.78,99.78Z"/><path d="M127.78,99.78c.15-3.23,2.64-9.32,9.68-5.72a.18.18,0,0,1,.1.2,5.23,5.23,0,0,1-2.08,3.37c-1.75,1.05-5.25.7-7,2.1l-.43.22A.18.18,0,0,1,127.78,99.78Z"/><g class="cls-30"><circle cx="132.79" cy="95.01" r="3.45"/></g><circle cx="132.78" cy="95.44" r="0.88"/><path d="M109,99.78c-.15-3.23-2.64-9.32-9.68-5.72a.18.18,0,0,0-.1.2,5.23,5.23,0,0,0,2.08,3.37c1.75,1.05,5.25.7,7,2.1l.43.22A.18.18,0,0,0,109,99.78Z"/><path d="M109,99.78c-.15-3.23-2.64-9.32-9.68-5.72a.18.18,0,0,0-.1.2,5.23,5.23,0,0,0,2.08,3.37c1.75,1.05,5.25.7,7,2.1l.43.22A.18.18,0,0,0,109,99.78Z"/><g class="cls-31"><circle cx="103.99" cy="95.01" r="3.45"/></g><circle cx="104.01" cy="95.44" r="0.88"/><circle cx="115.63" cy="129.68" r="0.9"/><circle cx="121.12" cy="129.68" r="0.9"/></g><path class="cls-20" d="M110.67,67.15c-4.61-14-23.7-23-23.7-23S71.21,53.9,83.64,83.32Z"/><path class="cls-20" d="M124.52,67.15c4.61-14,23.7-23,23.7-23S164,53.9,151.55,83.32Z"/><path class="cls-32" d="M130.33,69.85c3.54-10.71,18.2-17.66,18.2-17.66s12.1,7.49,2.56,30.08Z"/><path class="cls-32" d="M104.86,70.9c-3.54-10.71-18.2-17.66-18.2-17.66s-12.1,7.49-2.56,30.08Z"/><path class="cls-20" d="M159.38,115.84c1.05-34.67-17.86-56.74-39.93-56.74-25.57,0-44.48,25.57-42,56.74,0,0,10.16-2.45,27,6l28,.35C143.62,115.49,159.38,115.84,159.38,115.84Z"/><path class="cls-32" d="M87.23,109.54s6.65-23.12,19.26-20.66c8,1.56,9.46,10.16,8.41,16.81,0,0,2.73,2.06,3.85,1.75a18.09,18.09,0,0,0,3.15-1.75c-.7-6.3-.89-16.22,9.46-16.81,12.26-.7,18.21,20.66,18.21,20.66-28.37,4.55-8.41,31.52-31,31.52C94.58,141.06,115.6,113.39,87.23,109.54Z"/><ellipse class="cls-33" cx="118.4" cy="129.15" rx="8.06" ry="5.6"/><path class="cls-33" d="M127.78,102.61c.15-3.23,2.64-9.32,9.68-5.72a.18.18,0,0,1,.1.2,5.23,5.23,0,0,1-2.08,3.37c-1.75,1.05-5.25.7-7,2.1l-.43.22A.18.18,0,0,1,127.78,102.61Z"/><g class="cls-34"><circle class="cls-35" cx="132.79" cy="97.84" r="3.45"/></g><circle class="cls-33" cx="132.78" cy="98.27" r="0.88"/><path class="cls-33" d="M109,102.61c-.15-3.23-2.64-9.32-9.68-5.72a.18.18,0,0,0-.1.2,5.23,5.23,0,0,0,2.08,3.37c1.75,1.05,5.25.7,7,2.1l.43.22A.18.18,0,0,0,109,102.61Z"/><g class="cls-36"><circle class="cls-35" cx="103.99" cy="97.84" r="3.45"/></g><circle class="cls-33" cx="104.01" cy="98.27" r="0.88"/><circle class="cls-37" cx="115.63" cy="132.51" r="0.9"/><circle class="cls-37" cx="121.12" cy="132.51" r="0.9"/><circle class="cls-38" cx="101.53" cy="99.38" r="11.06"/><circle class="cls-39" cx="135.27" cy="98.9" r="11.06"/><circle class="cls-40" cx="101.53" cy="99.38" r="11.06"/><circle class="cls-40" cx="135.27" cy="98.9" r="11.06"/><rect class="cls-41" x="112.01" y="93.53" width="12.88" height="4.07"/><circle class="cls-7" cx="580.16" cy="125.65" r="48.9"/><circle class="cls-42" cx="580.16" cy="125.65" r="40.75"/><path class="cls-43" d="M580.16,92.4h.63V87.64h-1.27v4.77Z"/><path class="cls-43" d="M546.9,125.65c0-.21,0-.42,0-.63h-4.77c0,.21,0,.42,0,.63s0,.42,0,.63h4.77C546.91,126.08,546.9,125.86,546.9,125.65Z"/><path class="cls-43" d="M618.17,125H613.4c0,.21,0,.42,0,.63s0,.42,0,.63h4.77c0-.21,0-.42,0-.63S618.18,125.23,618.17,125Z"/><path class="cls-43" d="M580.16,158.91h-.63v4.77h1.27V158.9Z"/><path class="cls-43" d="M599,94.21l.67-1.17-1.1-.63-.68,1.17Z"/><path class="cls-43" d="M548.71,106.77l-1.17-.67q-.33.54-.63,1.1l1.17.67C548.28,107.5,548.49,107.13,548.71,106.77Z"/><path class="cls-43" d="M612.23,107.86l1.17-.67c-.21-.37-.42-.74-.63-1.1l-1.17.67Q611.93,107.31,612.23,107.86Z"/><path class="cls-43" d="M562.37,93.58l-.67-1.17-1.1.63.67,1.17Z"/><path class="cls-43" d="M611.6,144.54l1.17.67c.22-.36.43-.73.63-1.1l-1.17-.67Q611.93,144,611.6,144.54Z"/><path class="cls-43" d="M597.95,157.73l.67,1.17,1.1-.63L599,157.1Z"/><path class="cls-43" d="M548.08,143.44l-1.17.67q.31.55.63,1.1l1.17-.67C548.49,144.18,548.28,143.81,548.08,143.44Z"/><path class="cls-43" d="M561.27,157.1l-.67,1.17,1.1.63.67-1.17Z"/><polygon class="cls-43" points="562.3 112.72 560.65 113.41 560.74 115.18 579.29 126.88 580.86 124.42 562.3 112.72"/><polygon class="cls-43" points="606.52 111.06 606.89 109.4 605.25 108.96 579.43 124.55 580.71 126.66 606.52 111.06"/><circle class="cls-44" cx="580.16" cy="125.65" r="3.26"/></svg>