<svg id="Layer_1" data-name="Layer 1" xmlns="http://www.w3.org/2000/svg" xmlns:xlink="http://www.w3.org/1999/xlink" viewBox="0 0 708.66 481.89"><defs><style>.cls-1,.cls-22,.cls-24{fill:none;}.cls-1{clip-rule:evenodd;}.cls-2{fill:#d5eff0;}.cls-18,.cls-2,.cls-21{fill-rule:evenodd;}.cls-3{clip-path:url(#clip-path);}.cls-4{fill:#c7e5e3;}.cls-5,.cls-8{fill:#dde7ed;}.cls-5{opacity:0.85;}.cls-18,.cls-6{fill:#f8ab8d;}.cls-7{fill:#648ec9;}.cls-9{fill:#242625;opacity:0.07;}.cls-10{fill:#49a579;}.cls-11{fill:#3e8963;}.cls-12{fill:#fff;}.cls-13{fill:#f37a54;}.cls-14{fill:#353560;}.cls-15{fill:#c0e4ed;}.cls-16{fill:#3952a0;}.cls-17{fill:#515180;}.cls-19{fill:#8b6339;}.cls-20{fill:#754d24;}.cls-21{fill:#dc846a;}.cls-22{stroke:#dc846a;stroke-width:2.15px;}.cls-22,.cls-24{stroke-linecap:round;stroke-linejoin:round;}.cls-23{fill:#cecece;}.cls-24{stroke:#ee4256;stroke-width:5px;}</style><clipPath id="clip-path"><polygon class="cls-1" points="708.66 315.9 0 448.86 0 -58.11 708.66 -191.07 708.66 315.9"/></clipPath></defs><title>CS-L2-U12</title><polygon class="cls-2" points="708.66 315.24 0 448.2 0 157.51 708.66 24.56 708.66 315.24"/><g class="cls-3"><polygon class="cls-4" points="46.78 289.41 2.69 289.41 2.69 446.55 46.78 446.55 70.56 446.55 135.24 446.55 135.24 130.6 46.78 130.6 46.78 289.41"/><polygon class="cls-4" points="223.6 44.76 184.31 44.76 184.31 93.3 150.29 93.3 150.29 446.55 257.63 446.55 257.63 93.3 223.6 93.3 223.6 44.76"/><polygon class="cls-4" points="672.17 296.08 628.09 296.08 628.09 213.45 573.42 213.45 573.42 446.55 613.11 446.55 628.09 446.55 628.09 453.23 672.17 453.23 695.95 453.23 760.64 453.23 760.64 137.28 672.17 137.28 672.17 296.08"/><polygon class="cls-4" points="351.98 289.41 322.89 289.41 322.89 213.45 268.21 213.45 268.21 446.55 307.9 446.55 322.89 446.55 351.98 446.55 364.65 446.55 375.76 446.55 440.45 446.55 440.45 130.6 351.98 130.6 351.98 289.41"/><rect class="cls-4" x="455.49" y="93.3" width="107.34" height="353.25"/></g><path class="cls-5" d="M649.18,208.08l-5.82-43,1.94-.52-2.1-7.9-1.63.43.14-.94s-3.1-7.06-5.33-9c-2.6-2.27-7.07-2.87-7.91-2.93-.31,0-.47.16-.53.47-.56-.06-1-.08-1.19-.08-2.24,0,3.62,9.78,3.62,9.78l-.19,5.73-1.95.52,2.1,7.9,1.75-.47,5.17,38.19-19.62,19.62a13.08,13.08,0,0,0-5.89-1.4h-4.82l-4.47-2.92-.09.07V219c4.48-2.74,7.46-7.5,9.1-13.16a9.13,9.13,0,0,0,.57.73c2,2.27,3.62-4,4.57-6.59.79-2.13-.09-3.59-1.57-4,.07-2.88-.08-6.64-1.1-9.27.65-2.37,1.48-3.1,2.91-4.76a11.84,11.84,0,0,0-4.75.84s-3.63-7.06-14.61-8c-7-.59-13.24,4-13.24,4H578s0,.12,0,.32a13.22,13.22,0,0,0,.83,3.8h0a7.66,7.66,0,0,0,1.94,3.27H577a4.06,4.06,0,0,0,.76,2.7,5.75,5.75,0,0,0,2.31,2,26.07,26.07,0,0,0-1,5.8c-.56,7.46,1.69,22.42,12.74,24.85a21.31,21.31,0,0,0,3.17-.08v.23l-6,2.85h-1.76a13.76,13.76,0,0,0-7,2l-14.62-20.54,9.13-37.83,2.14.81,2.9-7.64-1.42-.54L575,155.59s1.31-15.48-.75-14.6c-.77.33-4.79,2.39-6.48,5.39-1.19,2.11-1.79,7.63-2,9.57l-.52-.2-2.9,7.64,1.43.54-9.73,40.34a5.8,5.8,0,0,0-.12.87,5.68,5.68,0,0,0,.67,5.33L573.45,237a13.89,13.89,0,0,0-.07,1.43v77.57h4.16l.08,4.32a7.35,7.35,0,0,0,.3,2V438.9h1.74v7.62a5.38,5.38,0,0,0-1.58.16l-18.69,4.87a2.82,2.82,0,0,0-2.11,2.73V455h62.51v-7.1a1.08,1.08,0,0,0-1-1.07V438.9h1.64V320.12c0-.06,0-.13,0-.19v-.44h0l-.07-3.52h4.51V237.64a13.19,13.19,0,0,0-.23-2.4L645.9,214A5.79,5.79,0,0,0,649.18,208.08Zm-42,238.44a5.36,5.36,0,0,0-1.69.15l-13.11,3.41v-2.21a1.08,1.08,0,0,0-1.09-1.08v-7.9h1.64V327.51l12.5-.1V438.9h1.74Z"/><path id="_Path_" data-name="&lt;Path&gt;" class="cls-6" d="M567.41,165.53l-4.7-8.89s.57-7.69,2-10.27c1.7-3,5.71-5.06,6.48-5.39,2.06-.89.75,14.6.75,14.6l4,6.11Z"/><path id="_Path_2" data-name="&lt;Path&gt;" class="cls-7" d="M561.88,159.39l11.31,2.54-10.83,44.89a5.8,5.8,0,0,1-6.93,4.38h0a5.8,5.8,0,0,1-4.38-6.93Z"/><rect id="_Rectangle_" data-name="&lt;Rectangle&gt;" class="cls-8" x="560.3" y="158.23" width="15.49" height="8.18" transform="translate(1041.62 515.54) rotate(-159.23)"/><rect id="_Rectangle_2" data-name="&lt;Rectangle&gt;" class="cls-7" x="561.23" y="198.01" width="11.59" height="48.29" rx="5.69" ry="5.69" transform="matrix(-0.81, 0.58, -0.58, -0.81, 1157.83, 74.42)"/><polygon class="cls-9" points="632.28 34.11 562.96 34.11 562.96 157.06 632.28 157.06 636.96 157.06 636.96 34.11 632.28 34.11"/><rect class="cls-10" x="561.96" y="33.11" width="74" height="122.95"/><rect class="cls-11" x="631.28" y="33.11" width="4.68" height="122.95"/><rect class="cls-10" x="66.66" y="359.11" width="74" height="95.91"/><rect class="cls-10" x="164.33" y="302.57" width="74" height="152.46"/><rect class="cls-10" x="262" y="247.87" width="74" height="207.15"/><rect class="cls-10" x="360.66" y="193.56" width="74" height="261.47"/><rect class="cls-10" x="457.33" y="150.11" width="74" height="304.91"/><circle class="cls-12" cx="607.61" cy="292.33" r="2.35"/><rect class="cls-13" x="597.05" y="298.38" width="16.74" height="25.48"/><path id="_Path_3" data-name="&lt;Path&gt;" class="cls-8" d="M610,401.58h0a5.82,5.82,0,0,0-5.82,5.82v41.21a5.82,5.82,0,0,0,5.82,5.82h0a5.82,5.82,0,0,0,5.82-5.82V407.4A5.82,5.82,0,0,0,610,401.58Z"/><path id="_Rectangle_3" data-name="&lt;Rectangle&gt;" class="cls-14" d="M609.79,312.11h.28a7.37,7.37,0,0,1,7.37,7.37V438.9a0,0,0,0,1,0,0h-15a0,0,0,0,1,0,0V319.47A7.37,7.37,0,0,1,609.79,312.11Z"/><path id="_Path_4" data-name="&lt;Path&gt;" class="cls-14" d="M616.78,447.88V455h-35.1v-.71a2.82,2.82,0,0,1,2.11-2.73l18.69-4.87a5.21,5.21,0,0,1,2.62,0,19.22,19.22,0,0,0,10.3.18A1.08,1.08,0,0,1,616.78,447.88Z"/><path id="_Path_5" data-name="&lt;Path&gt;" class="cls-15" d="M616.78,455V455a2.14,2.14,0,0,1-2.14,2.14H582.76a1.08,1.08,0,0,1-1.08-1.08V455Z"/><path id="_Path_6" data-name="&lt;Path&gt;" class="cls-8" d="M582.47,401.58h0a5.82,5.82,0,0,0-5.82,5.82v41.21a5.82,5.82,0,0,0,5.82,5.82h0a5.82,5.82,0,0,0,5.82-5.82V407.4A5.82,5.82,0,0,0,582.47,401.58Z"/><path id="_Rectangle_4" data-name="&lt;Rectangle&gt;" class="cls-14" d="M582.28,312.11h.28a7.37,7.37,0,0,1,7.37,7.37V438.9a0,0,0,0,1,0,0h-15a0,0,0,0,1,0,0V319.47A7.37,7.37,0,0,1,582.28,312.11Z"/><path id="_Path_7" data-name="&lt;Path&gt;" class="cls-14" d="M589.37,447.88V455h-35.1v-.71a2.82,2.82,0,0,1,2.11-2.73l18.69-4.87a5.21,5.21,0,0,1,2.62,0,19.22,19.22,0,0,0,10.3.18A1.08,1.08,0,0,1,589.37,447.88Z"/><path id="_Path_8" data-name="&lt;Path&gt;" class="cls-15" d="M589.37,455V455a2.14,2.14,0,0,1-2.14,2.14H555.35a1.08,1.08,0,0,1-1.08-1.08V455Z"/><path id="_Path_9" data-name="&lt;Path&gt;" class="cls-14" d="M617.2,306.17l-42.84.35.26,13.75a7.36,7.36,0,0,0,7.42,7.3l28.12-.23a7.36,7.36,0,0,0,7.3-7.42Z"/><path id="_Rectangle_5" data-name="&lt;Rectangle&gt;" class="cls-16" d="M584.26,224.49h24.46a13.15,13.15,0,0,1,13.15,13.15v78.31a0,0,0,0,1,0,0H570.37a0,0,0,0,1,0,0V238.38a13.89,13.89,0,0,1,13.89-13.89Z"/><polygon id="_Path_10" data-name="&lt;Path&gt;" class="cls-7" points="606.89 224.49 608.43 229.61 604.22 233.81 605.99 237.13 587.45 263.19 580.13 237.06 582.43 233.64 580.94 229.61 584.16 224.49 606.89 224.49"/><polygon id="_Path_11" data-name="&lt;Path&gt;" class="cls-8" points="585.92 224.49 589.19 254.55 603.91 224.49 585.92 224.49"/><polygon id="_Path_12" data-name="&lt;Path&gt;" class="cls-17" points="593.29 232.2 593.95 244.84 589.19 254.55 588.02 243.81 591.75 231.82 593.29 232.2"/><ellipse id="_Path_13" data-name="&lt;Path&gt;" class="cls-7" cx="590.98" cy="277.3" rx="2.39" ry="2.96"/><ellipse id="_Path_14" data-name="&lt;Path&gt;" class="cls-7" cx="590.98" cy="293.48" rx="2.39" ry="2.96"/><rect id="_Rectangle_6" data-name="&lt;Rectangle&gt;" class="cls-7" x="600.27" y="287.04" width="11.45" height="4.24" transform="translate(1211.98 578.32) rotate(180)"/><path id="_Path_15" data-name="&lt;Path&gt;" class="cls-6" d="M595.52,211.65h.13a3.73,3.73,0,0,0-3.71,3.84v8.2c0,2.12,1.59,2.78,3.71,2.78h-.07c2.12,0,3.77-.66,3.77-2.78v-8.2A3.84,3.84,0,0,0,595.52,211.65Z"/><path id="_Path_16" data-name="&lt;Path&gt;" class="cls-18" d="M588.78,221.49c12.13.65,18.59-8.31,20.57-19.45,2.09-11.73-5.77-21.43-15.28-21.47-10.82,0-17.14,4.19-18,16.07-.56,7.46,1.69,22.42,12.74,24.85Z"/><path id="_Path_17" data-name="&lt;Path&gt;" class="cls-19" d="M610.93,186.68c1.2,3.09,1.2,7.73,1,10.69a3,3,0,0,0-2.52-.63l-.4.1h0l-.2.07-.2.07-.21.09-.15.07-.24.13-.19.12-.19.13-.18.14-.18.15-.34.33s0,0,0,0l-.07.08,0,0,0,.05,0,0,0,0v5.44a2.42,2.42,0,0,1-.58,1.81,2.93,2.93,0,0,1-.25.27,3.85,3.85,0,0,1-1.64.48,2.81,2.81,0,0,1-2.83-2.56v-1.93a2.78,2.78,0,0,0-2.56-2.78l-.49,0c0-2.2,0-3.93,0-5,0-1.34-.48-2.22-3.45-2.52h-.09l-.83-.06H594c-.52,0-1.09,0-1.72,0H578.65l-.16,0a6.73,6.73,0,0,1-3.73-2.55,4.06,4.06,0,0,1-.75-2.7h3.78a7.66,7.66,0,0,1-1.94-3.27,17.89,17.89,0,0,1-.86-4.14h6.26s6.27-4.56,13.24-4c11,.92,14.61,8,14.61,8a11.84,11.84,0,0,1,4.75-.84C612.41,183.58,611.58,184.31,610.93,186.68Z"/><path id="_Path_18" data-name="&lt;Path&gt;" class="cls-20" d="M594,191.49c-.52,0-1.09,0-1.72,0H578.65l-.16,0a6.73,6.73,0,0,1-3.73-2.55,4.06,4.06,0,0,1-.75-2.7s3.25,3.66,5.33,4l.16,0C581.62,190.55,590.95,191.26,594,191.49Z"/><g id="_Group_" data-name="&lt;Group&gt;"><line id="_Path_19" data-name="&lt;Path&gt;" class="cls-19" x1="580.52" y1="197.98" x2="584.82" y2="197.76"/><path id="_Path_20" data-name="&lt;Path&gt;" class="cls-19" d="M580.42,198.69a.72.72,0,0,1,.06-1.43l4.3-.22a.72.72,0,0,1,.07,1.43l-4.3.22Z"/></g><g id="_Group_2" data-name="&lt;Group&gt;"><line id="_Path_21" data-name="&lt;Path&gt;" class="cls-19" x1="591.76" y1="197.76" x2="596.07" y2="197.98"/><path id="_Path_22" data-name="&lt;Path&gt;" class="cls-19" d="M591.66,197a.72.72,0,0,0,.06,1.43l4.3.22a.72.72,0,0,0,.07-1.43l-4.3-.22Z"/></g><circle id="_Path_23" data-name="&lt;Path&gt;" cx="593.38" cy="202.4" r="0.97"/><circle id="_Path_24" data-name="&lt;Path&gt;" cx="583" cy="202.73" r="0.97"/><path id="_Path_25" data-name="&lt;Path&gt;" class="cls-20" d="M575,178.75s2.43,5.53,5.85,6.93c2.91,1.19,17.13,1.65,17.13,1.65a24.26,24.26,0,0,1-4.41,1.05c-1.29.13-13.8.53-15.77-2.22A12.19,12.19,0,0,1,575,178.75Z"/><g id="_Group_3" data-name="&lt;Group&gt;"><path id="_Path_26" data-name="&lt;Path&gt;" class="cls-18" d="M606.32,198.81a5.7,5.7,0,0,1,2-2.08c3.08-2.13,6.66-.41,5.29,3.25-1,2.55-2.58,8.86-4.57,6.59A12.12,12.12,0,0,1,606.32,198.81Z"/><polygon id="_Path_27" data-name="&lt;Path&gt;" class="cls-21" points="608.69 199.18 612.73 198.5 609.69 204.04 610.71 199.47 608.69 199.18"/></g><polygon id="_Path_28" data-name="&lt;Path&gt;" class="cls-21" points="588.1 201.02 588.24 209.46 586.42 209.05 588.1 201.02"/><path id="_Path_29" data-name="&lt;Path&gt;" class="cls-22" d="M583,212a6.87,6.87,0,0,0,5.23,2.43h0a7.37,7.37,0,0,0,5.23-2.43"/><polygon id="_Path_30" data-name="&lt;Path&gt;" class="cls-17" points="594.59 225.57 596.28 229.56 592.09 233.64 590.92 230.11 594.59 225.57"/><polygon id="_Path_31" data-name="&lt;Path&gt;" class="cls-23" points="603.91 224.49 599.45 221.57 594.59 225.57 597.42 232.26 603.91 224.49"/><polygon id="_Path_32" data-name="&lt;Path&gt;" class="cls-23" points="585.92 224.49 592.09 221.57 594.59 225.57 589.19 232.26 585.92 224.49"/><rect id="_Rectangle_7" data-name="&lt;Rectangle&gt;" class="cls-7" x="622.45" y="198.6" width="11.59" height="43.72" rx="5.69" ry="5.69" transform="translate(339.9 -379.67) rotate(45)"/><path id="_Path_33" data-name="&lt;Path&gt;" class="cls-9" d="M636.93,165.67l.81-10s-3.56-6.84-5.92-8.63c-2.74-2.09-7.24-2.39-8.08-2.39-2.24,0,3.62,9.78,3.62,9.78l-.34,10Z"/><path id="_Path_34" data-name="&lt;Path&gt;" class="cls-6" d="M637.23,166.11l1.47-9.95s-3.1-7.06-5.33-9c-2.6-2.27-7.07-2.87-7.91-2.93-2.24-.15,3,10,3,10l-1,9.93Z"/><path id="_Path_35" data-name="&lt;Path&gt;" class="cls-7" d="M640,162.32l-11.51,1.38,6.19,45.76a5.8,5.8,0,0,0,6.44,5.07h0a5.8,5.8,0,0,0,5.07-6.44Z"/><rect id="_Rectangle_8" data-name="&lt;Rectangle&gt;" class="cls-8" x="626.01" y="158.52" width="15.49" height="8.18" transform="translate(-20.5 168.56) rotate(-14.91)"/><rect class="cls-11" x="526.6" y="150.49" width="4.68" height="304.54"/><rect class="cls-11" x="429.98" y="193.12" width="4.68" height="261.47"/><rect class="cls-11" x="331.31" y="247.87" width="4.68" height="207.15"/><rect class="cls-11" x="233.65" y="302.57" width="4.68" height="152.46"/><rect class="cls-11" x="135.98" y="359.11" width="4.68" height="95.91"/><polyline class="cls-24" points="38.71 359.11 135.98 320.11 152.59 270.22 239.15 255.78 311.04 183.61 410.54 168.61 450.04 107.11 528.95 95.58 539.11 33.11 525.04 46.11"/><line class="cls-24" x1="539.11" y1="33.11" x2="547.79" y2="48.86"/></svg>