<svg id="Layer_1" data-name="Layer 1" xmlns="http://www.w3.org/2000/svg" xmlns:xlink="http://www.w3.org/1999/xlink" viewBox="0 0 708.66 481.89"><defs><style>.cls-1,.cls-15,.cls-23,.cls-30{fill:none;}.cls-2{fill:#e7685d;}.cls-3{clip-path:url(#clip-path);}.cls-4{clip-path:url(#clip-path-2);}.cls-5{fill:#ee4256;}.cls-6,.cls-7{fill:#0a0a0a;}.cls-17,.cls-21,.cls-35,.cls-6{fill-rule:evenodd;}.cls-22,.cls-6,.cls-7{opacity:0.07;}.cls-8{fill:#e5e5e4;}.cls-9{fill:#3f5aa8;}.cls-10{fill:#353560;}.cls-11{fill:#b3b2b3;}.cls-12{fill:#4d4e4e;}.cls-13,.cls-17{fill:#f8ab8d;}.cls-14{fill:#efefef;}.cls-15{stroke:#648ec9;stroke-miterlimit:10;stroke-width:3.14px;}.cls-16{fill:#648ec9;}.cls-18{fill:#8b6339;}.cls-19{fill:#754d24;}.cls-20,.cls-21{fill:#dc846a;}.cls-23,.cls-30{stroke:#dc846a;stroke-linecap:round;stroke-linejoin:round;}.cls-23{stroke-width:2.09px;}.cls-24{fill:#fcba45;}.cls-25{fill:#fff;}.cls-26{fill:#a582a2;}.cls-27{fill:#e2aa49;}.cls-28{fill:#504e5c;}.cls-29{fill:#979797;}.cls-30{stroke-width:2px;}.cls-31{fill:#d9eff4;}.cls-32,.cls-35{fill:#2d2d2d;}.cls-33{fill:#fec82b;}.cls-34{fill:#333;}</style><clipPath id="clip-path"><rect class="cls-1" x="2.74" y="1.22" width="708.66" height="484.13"/></clipPath><clipPath id="clip-path-2"><polygon class="cls-2" points="-195.01 315.25 -195.01 0.76 1073.72 169.3 1073.72 483.8 -195.01 315.25"/></clipPath></defs><title>CS-L2-U8</title><g class="cls-3"><polygon class="cls-2" points="-195.01 315.25 -195.01 0.76 1073.72 169.3 1073.72 483.8 -195.01 315.25"/><g class="cls-4"><rect class="cls-5" x="1.61" y="-66.12" width="710.27" height="606.63"/></g></g><path class="cls-6" d="M660,436.29l0-.09-4.14-10.88a1.76,1.76,0,0,0-2.13-1.07l-3-7.88,2.6-1-33.9-92.09-5.6-64.69a12,12,0,0,0,1.93-6.63l-.12-6.52h7.39V112.76A17.09,17.09,0,0,0,621.1,105a7.59,7.59,0,0,0-2.17-3.65h0a7.66,7.66,0,0,0-1.05-.82,17.13,17.13,0,0,0-12.12-5H592.19c0-2.77-2.34-5.19-5.79-6.47V86.65C593.93,82.41,599,75,601.91,66.14c3.24,3.7,5.89-6.57,7.44-10.73,1.92-5.15-2.18-7.94-6.57-6.35l0-.21h.13c0-15.73-11.29-29.95-27-29.95A28.49,28.49,0,0,0,547.38,47.4l1.09,0c-.1.83-.19,1.67-.26,2.55a58.88,58.88,0,0,0,.9,14.58l-1,0c2.18,11.22,8,23.16,20.71,25.83.63,0,1.25,0,1.87.05h.63l1.11,0a6.39,6.39,0,0,0-3.17,5.13H556.48a17.83,17.83,0,0,0-10.22,3.22l-12.2,4.32L525.49,90.9S514.54,86.29,510,86.48c-5.31.22-11,4.28-11.95,5.11-2.45,2,11.4,7.14,13.62,7.94-2,.66-3.95,2-4,4.92a90.26,90.26,0,0,1,9.68,4.6l-26.68,9.44L459,70.42h0l-7.5-13.56s-10.39-5.75-15-6.05c-5.31-.35-11.35,3.09-12.43,3.81-2.65,1.76,10.58,8.31,12.69,9.34-2.08.44-4.14,1.6-4.53,4.47,3.63,1.73,10.89,6.79,12.16,7.69l36,54.71a9.94,9.94,0,0,0,9.92,4L529,121.1l9.49,11.52V245.5h6.68a12.36,12.36,0,0,0-.7,1.33L510,324.68a12.25,12.25,0,0,0-.58,8.37,12.26,12.26,0,0,0,0,4.6l19.24,95.52,2.72-.55,1.63,7.63a8.92,8.92,0,0,0-2.05.28l-30.61,8.06a4.62,4.62,0,0,0-3.45,4.49v3a1.77,1.77,0,0,0,1.77,1.77l52.25-.13a3.51,3.51,0,0,0,3.5-3.52v-.09l0-11.64a1.77,1.77,0,0,0-1.84-1.77c0-.23-.06-.47-.11-.7l-.37-1.72-2-9.41,2.71-.55-19.24-95.52c0-.13-.07-.26-.1-.38l30.06-67.9,26-.21L595,327.66a12.25,12.25,0,0,0,1.49,4.88l33.64,91.39,2.6-1,2.91,7.63a8.78,8.78,0,0,0-2.5,1.22l-25.79,18.36a4.62,4.62,0,0,0-1.64,5.41l.41,1.09.65,1.71a1.77,1.77,0,0,0,2.28,1l48.83-18.6A3.51,3.51,0,0,0,660,436.29Z"/><path class="cls-7" d="M211.88,448.28h-.59a4.31,4.31,0,0,0-2.64-2L180,438.8a8.41,8.41,0,0,0-1.48-.23l1.25-8.42h0l5.43-36.77,2.26-15.24c0-.06,0-.13,0-.19l7.17-48.57a8.61,8.61,0,0,0-.64-4.73l-22.14-78.19a11.09,11.09,0,0,0,.13-1.53l.09-4.53,4.52-1.27-4.21-15v-.3h-.09L145.38,128l26.07-15.18-.86-1.49,15.32-8.86a7.11,7.11,0,0,0,3.68-3.31l.09-.2.14-.3.09-.2a7.13,7.13,0,0,0-.37-6.27h0a7.11,7.11,0,0,0-4.09-3.29l-50-26.92h0l-1.6-1,.12-.21-1.72-.81-9-5.78s-3,0-6.49.19a6.8,6.8,0,0,0,.3-.79,6.18,6.18,0,0,0,0-4.27l-5.54,1.56a11.66,11.66,0,0,0,1.5-5.6v0a20.14,20.14,0,0,0-.35-5.92c-.05-.31-.09-.48-.09-.48h0l-9.18,2.58s-11.07-4.1-21-.37C66.59,46.87,64.18,58.72,64.18,58.72a18,18,0,0,0-7.31.72c2.78,1.84,4.31,2.56,6.23,5.78-.41,4.28.91,9.85,2.2,14-2,1.26-2.68,3.77-.64,6.56,2.45,3.35,7.44,11.93,9.42,7.78a13.9,13.9,0,0,0,.54-1.29c4.73,7.62,11.06,13.41,18.77,15.58l.66,2.34c-2.91,2-4.48,4.88-3.76,7.43l-5,1.4a23.53,23.53,0,0,0-7.56,3.68,9,9,0,0,0-9.85,2.4l-29.78,33.5,1.28,1.15-12.51,14a7.76,7.76,0,0,0,.45,10.61l42.91,39.2h0l9.92,10.58s8.83,2.32,13.61,2.18l6.78,24.13,4.32-1.21V434.14h2.52V439a1.65,1.65,0,0,0-1.5,1.64v10.89h2.48a3.27,3.27,0,0,0,.8.11h48.89a1.65,1.65,0,0,0,.58-.11h1.88a3.27,3.27,0,0,0,.8.11h48.89a1.65,1.65,0,0,0,.58-.11h1.07v-1.09c0-.08,0-.17,0-.25a1.64,1.64,0,0,0,0-.21Zm-49.4-351-27.84,16.21a24.33,24.33,0,0,0-19.45-2.79l-4.24,1.19a6,6,0,0,0-4.16-3.82c1-.24,2.08-.54,3.14-.9,12.38-6.6,12.78-23,10.39-34.61,2.63.23,4.93.49,5.63.57L168.52,96l-5.07,2.94Zm-111,73.38,18.09-20.35,18.86,67.1c-2.88-1-5.55-2-6.3-2.27L41.94,178.39l8.1-9.06ZM127.9,434.14V255.85l21.54.17,20.67,73-14.52,98.31,6.43.75-1.24,8.34-.24,1.63a9,9,0,0,0-.09,1.09l-.28-.08a1.66,1.66,0,0,0-2.13,1.59V447a4.3,4.3,0,0,0-1.56-.78l-28.66-7.47a8.22,8.22,0,0,0-2.59-.23v-4.42Z"/><circle id="_Path_" data-name="&lt;Path&gt;" class="cls-8" cx="170.63" cy="237.27" r="2.74"/><path id="_Path_2" data-name="&lt;Path&gt;" class="cls-9" d="M120.31,369.64h0a8.92,8.92,0,0,1,8.92,8.92v63.22a8.92,8.92,0,0,1-8.92,8.92h0a8.92,8.92,0,0,1-8.92-8.92V378.56A8.92,8.92,0,0,1,120.31,369.64Z"/><path id="_Rectangle_" data-name="&lt;Rectangle&gt;" class="cls-10" d="M108.87,232.39h23a0,0,0,0,1,0,0V422.62a11.52,11.52,0,0,1-11.52,11.52h0a11.52,11.52,0,0,1-11.52-11.52V232.39A0,0,0,0,1,108.87,232.39Z" transform="translate(240.78 666.53) rotate(-180)"/><path id="_Path_3" data-name="&lt;Path&gt;" class="cls-11" d="M109.89,440.65v10.89h53.84v-1.09a4.32,4.32,0,0,0-3.24-4.19l-28.66-7.47a8,8,0,0,0-4,0c-7.65,2-13,1.1-15.79.28A1.66,1.66,0,0,0,109.89,440.65Z"/><path id="_Path_4" data-name="&lt;Path&gt;" class="cls-12" d="M109.89,448.28v.09a3.28,3.28,0,0,0,3.29,3.29h48.89a1.65,1.65,0,0,0,1.66-1.66v-1.72Z"/><path id="_Path_5" data-name="&lt;Path&gt;" class="cls-9" d="M184,368h0a8.92,8.92,0,0,1,7.52,10.13l-9.28,62.53a8.92,8.92,0,0,1-10.13,7.52h0A8.92,8.92,0,0,1,164.54,438l.24-1.63,9-60.9A8.92,8.92,0,0,1,184,368Z"/><path id="_Path_6" data-name="&lt;Path&gt;" class="cls-11" d="M162,440.65v10.89h53.84v-1.09a4.32,4.32,0,0,0-3.24-4.19L184,438.8a8,8,0,0,0-4,0c-7.65,2-13,1.1-15.79.28A1.66,1.66,0,0,0,162,440.65Z"/><path id="_Path_7" data-name="&lt;Path&gt;" class="cls-12" d="M162,448.28v.09a3.28,3.28,0,0,0,3.29,3.29h48.89a1.65,1.65,0,0,0,1.66-1.66v-1.72Z"/><path id="_Path_8" data-name="&lt;Path&gt;" class="cls-10" d="M109.26,223.29l67.15.54-.4,21.09a11.41,11.41,0,0,1-11.63,11.19l-44.08-.36a11.41,11.41,0,0,1-11.44-11.38Z"/><path id="_Path_9" data-name="&lt;Path&gt;" class="cls-10" d="M186.66,318.25l2.64.31c5.95.69,10.14,5.54,9.36,10.82L183.78,430.15l-24.18-2.82,14.89-100.77C175.26,321.27,180.71,317.55,186.66,318.25Z"/><path id="_Path_10" data-name="&lt;Path&gt;" class="cls-10" d="M175.68,245.72,198.1,324.9c1.57,5.55-2.22,11.19-8.47,12.58l-1,.23c-6.25,1.4-12.6-2-14.17-7.53L152,251"/><path id="_Path_11" data-name="&lt;Path&gt;" class="cls-13" d="M127.94,130h0a7.15,7.15,0,0,0,9.74,2.7l53.17-30.77a7.15,7.15,0,0,0,2.7-9.74h0a7.15,7.15,0,0,0-9.74-2.7l-53.17,30.77A7.15,7.15,0,0,0,127.94,130Z"/><g id="_Clip_Group_" data-name="&lt;Clip Group&gt;"><path id="_Clipping_Path_" data-name="&lt;Clipping Path&gt;" class="cls-14" d="M166.48,97.24l9,15.55-38.74,22.56a9,9,0,0,1-12.26-3.29h0a9,9,0,0,1,3.29-12.26Z"/></g><line id="_Path_12" data-name="&lt;Path&gt;" class="cls-15" x1="160.39" y1="100.48" x2="169.52" y2="115.94"/><g id="_Group_" data-name="&lt;Group&gt;"><g id="_Clip_Group_2" data-name="&lt;Clip Group&gt;"><path id="_Rectangle_2" data-name="&lt;Rectangle&gt;" class="cls-16" d="M84.1,112.14h79a0,0,0,0,1,0,0v116.7a23.59,23.59,0,0,1-23.59,23.59h-31A24.38,24.38,0,0,1,84.1,228V112.14a0,0,0,0,1,0,0Z" transform="translate(291.93 324.32) rotate(164.3)"/></g></g><path id="_Path_13" data-name="&lt;Path&gt;" class="cls-13" d="M81.91,127.52h0a7.15,7.15,0,0,0-10.1.47l-40.93,45.8a7.15,7.15,0,0,0,.47,10.1h0a7.15,7.15,0,0,0,10.1-.47l40.93-45.8A7.15,7.15,0,0,0,81.91,127.52Z"/><g id="_Clip_Group_3" data-name="&lt;Clip Group&gt;"><path id="_Clipping_Path_2" data-name="&lt;Clipping Path&gt;" class="cls-14" d="M55.48,170.62l-13.37-12,29.78-33.5a9,9,0,0,1,12.68-.69h0a9,9,0,0,1,.69,12.68Z"/></g><line id="_Path_14" data-name="&lt;Path&gt;" class="cls-15" x1="59.71" y1="165.88" x2="46.21" y2="154.03"/><ellipse id="_Path_15" data-name="&lt;Path&gt;" class="cls-14" cx="104.62" cy="114.76" rx="10.72" ry="6.97" transform="translate(-27.15 32.59) rotate(-15.7)"/><path id="_Path_16" data-name="&lt;Path&gt;" class="cls-13" d="M193.59,99.13h0a7.15,7.15,0,0,1-9.65,3L129.84,73a7.15,7.15,0,0,1-3-9.65h0a7.15,7.15,0,0,1,9.65-3l54.1,29.1A7.15,7.15,0,0,1,193.59,99.13Z"/><path id="_Path_17" data-name="&lt;Path&gt;" class="cls-13" d="M100,95.48l-.19.05a5.68,5.68,0,0,1,7,4.1l3.38,12c.87,3.11-1.18,4.73-4.29,5.6l.1,0c-3.11.87-5.8.59-6.68-2.52l-3.38-12A5.85,5.85,0,0,1,100,95.48Z"/><path id="_Path_18" data-name="&lt;Path&gt;" class="cls-17" d="M113.93,107.13c-17.52,6-30.68-4.53-38.17-20-7.9-16.34-.38-33.8,13.56-37.77,15.86-4.51,26.86-.93,33.06,16.13,3.89,10.71,6.77,33.57-8.44,41.68Z"/><path id="_Path_19" data-name="&lt;Path&gt;" class="cls-18" d="M67.1,65.22c-.49,5,1.42,11.83,2.87,16.1a4.5,4.5,0,0,1,3.44-2,5.38,5.38,0,0,1,.63,0h0l.32,0,.32,0,.34.05.24,0,.41.09.33.1.33.11.32.13.32.15c.21.1.42.22.63.34,0,0,0,0,0,.05l.13.09.07.06.09.06,0,0,0,0,0,0,0,0,2.22,7.9a3.68,3.68,0,0,0,1.59,2.42,4.47,4.47,0,0,0,.48.3,5.87,5.87,0,0,0,2.61,0c2.06-.58,3.67-2.86,3.09-4.92l-.79-2.83a4.24,4.24,0,0,1,2.6-5.13l.7-.25c-.85-3.23-1.59-5.78-2.07-7.35-.59-2-.22-3.46,4-5.12l.12,0c.37-.15.77-.29,1.2-.44l.09,0c.74-.25,1.58-.51,2.51-.77l20-5.62.21-.12A10.25,10.25,0,0,0,121,53.51a6.18,6.18,0,0,0,0-4.27l-5.54,1.56a11.66,11.66,0,0,0,1.5-5.6,27.24,27.24,0,0,0-.44-6.42l-9.18,2.58s-11.07-4.1-21-.37C70.59,46.87,68.18,58.72,68.18,58.72a18,18,0,0,0-7.31.72C63.65,61.28,65.18,62,67.1,65.22Z"/><path id="_Path_20" data-name="&lt;Path&gt;" class="cls-19" d="M93.88,65.31c.74-.25,1.58-.51,2.51-.77l20-5.62.21-.12A10.25,10.25,0,0,0,121,53.51a6.18,6.18,0,0,0,0-4.27s-3.25,6.71-6.15,8.11l-.23.11C111.68,58.81,98.29,63.7,93.88,65.31Z"/><g id="_Group_2" data-name="&lt;Group&gt;"><line id="_Path_21" data-name="&lt;Path&gt;" class="cls-18" x1="116.96" y1="70.74" x2="110.45" y2="71.6"/><path id="_Path_22" data-name="&lt;Path&gt;" class="cls-18" d="M117.3,71.78a1.09,1.09,0,0,0-.49-2.12l-6.51.85a1.09,1.09,0,1,0,.28,2.17l6.51-.85Z"/></g><g id="_Group_3" data-name="&lt;Group&gt;"><line id="_Path_23" data-name="&lt;Path&gt;" class="cls-18" x1="100.1" y1="74.23" x2="94.34" y2="77.38"/><path id="_Path_24" data-name="&lt;Path&gt;" class="cls-18" d="M99.77,73.19a1.09,1.09,0,0,1,.86,2l-5.76,3.15a1.09,1.09,0,1,1-1-1.92l5.76-3.15Z"/></g><path id="_Path_25" data-name="&lt;Path&gt;" class="cls-20" d="M130.2,73.12s-9.54-1.16-13.67-1c-2-5.42,5.66-7.86,5.66-7.86Z"/><circle id="_Path_26" data-name="&lt;Path&gt;" cx="99.52" cy="82.63" r="1.48" transform="translate(-18.65 30.01) rotate(-15.7)"/><circle id="_Path_27" data-name="&lt;Path&gt;" cx="114.86" cy="78.85" r="1.48" transform="translate(-17.05 34.03) rotate(-15.7)"/><path id="_Path_28" data-name="&lt;Path&gt;" class="cls-19" d="M116.54,38.77s-1.28,9.11-5.73,12.58C107,54.3,86.38,60.82,86.38,60.82a37,37,0,0,0,6.9-.27c2-.34,20.45-4.92,22.2-9.75A18.57,18.57,0,0,0,116.54,38.77Z"/><g id="_Group_4" data-name="&lt;Group&gt;"><path id="_Path_29" data-name="&lt;Path&gt;" class="cls-17" d="M78.86,81.1a8.69,8.69,0,0,0-3.76-2.22C69.7,77,65.16,81,68.67,85.83c2.45,3.35,7.44,11.93,9.42,7.78A18.45,18.45,0,0,0,78.86,81.1Z"/><polygon id="_Path_30" data-name="&lt;Path&gt;" class="cls-21" points="75.54 82.62 69.33 83.29 76.08 90.16 72.7 83.89 75.54 82.62"/></g><polygon id="_Path_31" data-name="&lt;Path&gt;" class="cls-21" points="106.48 76.83 109.77 89.27 112.26 87.92 106.48 76.83"/><path id="_Path_32" data-name="&lt;Path&gt;" class="cls-22" d="M137.93,60.7l-13.1-6.21s-11,1.3-14.67,3.57c-4.22,2.63-6.93,8.55-7.36,9.68-1.15,3,15,.12,15,.12l13.28,5.56Z"/><path id="_Path_33" data-name="&lt;Path&gt;" class="cls-13" d="M139.41,61.94l-12.2-7.84s-11.12-.12-15,1.66c-4.52,2.07-8,7.59-8.54,8.66-1.53,2.85,14.91,2,14.91,2L131,73.67Z"/><path id="_Path_34" data-name="&lt;Path&gt;" class="cls-20" d="M85.9,215s9,3.45,13,4.26c.65,5.76-7.41,6.24-7.41,6.24Z"/><path id="_Path_35" data-name="&lt;Path&gt;" class="cls-13" d="M30.78,174.31h0a7.15,7.15,0,0,1,10.09-.55L86.23,215.2a7.15,7.15,0,0,1,.55,10.09h0a7.15,7.15,0,0,1-10.09.55L31.34,184.4A7.15,7.15,0,0,1,30.78,174.31Z"/><path id="_Path_36" data-name="&lt;Path&gt;" class="cls-13" d="M74.24,223.61l9.92,10.58s10.75,2.83,15,2.05c4.89-.9,9.58-5.41,10.4-6.31,2.18-2.39-14-5.62-14-5.62l-10.33-10Z"/><line class="cls-23" x1="114.81" y1="91.8" x2="104.62" y2="98.85"/><path class="cls-7" d="M343.13,224.43,328.9,203.77l1.58-1a4,4,0,0,0,1.13-5.53l-2.73-4.13a4,4,0,0,0-4.77-1.52l-2.82-3.88V130.82a21.79,21.79,0,0,0-.62-5.15l.31-.72a9.55,9.55,0,0,0-5-12.56h0a9.52,9.52,0,0,0-3.62-.78,15.83,15.83,0,0,0-8.61-2.54h-2.43a9.48,9.48,0,0,0-2.71-3.12c14.55-3.93,19.2-21.69,19.69-34.16a66.37,66.37,0,0,0,1.79-13.94A8,8,0,0,0,318.2,43.4a8,8,0,0,0-11.29-10.06,8,8,0,0,0-13-4.24,8,8,0,0,0-12.33-.37,8,8,0,0,0-11.71,6.85,8,8,0,0,0-9.47,11.37,8,8,0,0,0-2.59,14A8,8,0,0,0,260,75.89c1,2.82,2.21,6.71,3.68,8.68a2.71,2.71,0,0,0,4.54,2.94,33.23,33.23,0,0,0,10.64,13.6v1.34c-5.28,1.06-9.39,3.53-11,6.62h-8.67a16,16,0,0,0-1.82.11,9.54,9.54,0,0,0-8.92,3.54l-37.36,47.57a9.51,9.51,0,0,0,2.55,14.05L234,193.11a4,4,0,0,0,.56,4.89l3.49,3.52a4,4,0,0,0,5.2.38V247h6.84l-3,90H255v74.46l-4.38,4.35V421l5.5,14.33h4l.05-9,23,9h18.38l.05-9,23,9h16.81l1.49-2.79-26.36-14.24h0l-6.93-4,3.87-77.24h8l-6-90h5.91V215.59L332.64,232l.33.59a105.28,105.28,0,0,1,.59,12.13,4.32,4.32,0,0,0,5.13-1.46c-.12,2-.81,14.32,1.57,13.11,1-.49,6-3.47,7.91-7.48,1.66-3.45,1.76-13.4,1.76-13.4Zm-46.59,186.9L292,415.87V421l3.11,8.11-20-10.81h0l-7-4.08V337.06h32.16ZM243.3,175.66,231.7,165l11.59-14.76Z"/><path id="_Path_37" data-name="&lt;Path&gt;" class="cls-24" d="M319,210.08,334.54,199l-22.73-31.25a9.55,9.55,0,0,0-13.32-2.25h0a9.55,9.55,0,0,0-2.25,13.32Z"/><polygon id="_Path_38" data-name="&lt;Path&gt;" class="cls-13" points="318.08 203.73 328.96 196.6 348.13 224.43 337.82 232.27 318.08 203.73"/><rect id="_Rectangle_3" data-name="&lt;Rectangle&gt;" class="cls-25" x="312.04" y="195.64" width="25.3" height="12.93" rx="3.99" ry="3.99" transform="translate(707 191.76) rotate(146.55)"/><path id="_Path_39" data-name="&lt;Path&gt;" class="cls-20" d="M338,232.47a108.85,108.85,0,0,1,.6,12.26c4.81,1.93,7.14-4.92,7.14-4.92Z"/><path id="_Path_40" data-name="&lt;Path&gt;" class="cls-13" d="M348.13,224.43l6.79,11.07s-.1,10-1.76,13.4c-1.94,4-6.94,7-7.91,7.48C342.67,257.7,343.7,243,343.7,243l-6.22-11.29Z"/><rect id="_Rectangle_4" data-name="&lt;Rectangle&gt;" class="cls-13" x="303.34" y="327.67" width="13.13" height="95.84" transform="translate(600.65 766.19) rotate(-177.13)"/><rect id="_Rectangle_5" data-name="&lt;Rectangle&gt;" class="cls-13" x="259.97" y="328.73" width="13.13" height="94.77" transform="translate(533.07 752.23) rotate(-180)"/><polygon id="_Path_41" data-name="&lt;Path&gt;" class="cls-26" points="252.13 337.06 326.39 337.06 320.02 241.6 255.31 241.6 252.13 337.06"/><rect id="_Rectangle_6" data-name="&lt;Rectangle&gt;" class="cls-24" x="295.66" y="109.12" width="19.1" height="79.59" rx="9.55" ry="9.55" transform="translate(526.23 406.76) rotate(-156.61)"/><path id="_Path_42" data-name="&lt;Path&gt;" class="cls-27" d="M264.21,109.07h44.57A15.92,15.92,0,0,1,324.7,125V247H248.3s4.78-51.14,4.78-68.19c0-13.46-4.78-53.84-4.78-53.84A15.92,15.92,0,0,1,264.21,109.07Z"/><path id="_Path_43" data-name="&lt;Path&gt;" class="cls-13" d="M321.47,418.35l-11.32-6.6s-5,0-5.57,4.82-.15,6.12,3.38,7.76,12.19,3.38,12.19,3.38l2.84-6.79S323.63,419.6,321.47,418.35Z"/><polygon id="_Path_44" data-name="&lt;Path&gt;" class="cls-28" points="301.63 411.25 296.98 415.88 296.98 421.05 302.48 435.37 306.53 435.37 306.58 426.39 329.53 435.37 346.34 435.37 347.83 432.59 321.47 418.35 318.6 422.64 315.15 422.64 301.49 414.68 301.63 411.25"/><path id="_Path_45" data-name="&lt;Path&gt;" class="cls-13" d="M280.09,418.35l-11.32-6.6s-5,0-5.57,4.82-.15,6.12,3.38,7.76,12.19,3.38,12.19,3.38l2.84-6.79S282.24,419.6,280.09,418.35Z"/><polygon id="_Path_46" data-name="&lt;Path&gt;" class="cls-28" points="260.24 411.25 255.59 415.88 255.59 421.05 261.1 435.37 265.14 435.37 265.19 426.39 288.14 435.37 304.96 435.37 306.44 432.59 280.09 418.35 277.21 422.64 273.76 422.64 260.1 414.68 260.24 411.25"/><ellipse id="_Path_47" data-name="&lt;Path&gt;" class="cls-25" cx="289.61" cy="111.85" rx="17.44" ry="9.98"/><rect id="_Rectangle_7" data-name="&lt;Rectangle&gt;" class="cls-13" x="283.84" y="89.97" width="11.54" height="22.28" rx="4.46" ry="4.46" transform="translate(579.23 202.22) rotate(-180)"/><ellipse id="_Path_48" data-name="&lt;Path&gt;" class="cls-24" cx="294.51" cy="135.68" rx="2.47" ry="4.01"/><ellipse id="_Path_49" data-name="&lt;Path&gt;" class="cls-24" cx="294.51" cy="153.09" rx="2.47" ry="4.01"/><ellipse id="_Path_50" data-name="&lt;Path&gt;" class="cls-24" cx="294.51" cy="170.5" rx="2.47" ry="4.01"/><ellipse id="_Path_51" data-name="&lt;Path&gt;" class="cls-24" cx="294.51" cy="187.91" rx="2.47" ry="4.01"/><ellipse id="_Path_52" data-name="&lt;Path&gt;" class="cls-24" cx="294.51" cy="205.33" rx="2.47" ry="4.01"/><ellipse id="_Path_53" data-name="&lt;Path&gt;" class="cls-24" cx="294.51" cy="222.74" rx="2.47" ry="4.01"/><rect id="_Rectangle_8" data-name="&lt;Rectangle&gt;" class="cls-24" x="232.75" y="102.61" width="19.1" height="79.59" rx="9.55" ry="9.55" transform="translate(344.88 404.06) rotate(-141.85)"/><path id="_Path_54" data-name="&lt;Path&gt;" class="cls-29" d="M317.7,43.87s7.43-1.51,7.43,13.6a66,66,0,0,1-1.92,14.82L311.93,59.21,300.26,54l14.59-5.27Z"/><path id="_Path_55" data-name="&lt;Path&gt;" class="cls-17" d="M302.64,106.2c-19.63,1.05-30.07-13.45-33.28-31.47-3.38-19,9.33-34.68,24.72-34.72,17.51-.06,27.73,6.77,29.17,26,.9,12.07-2.73,36.27-20.61,40.19Z"/><g id="_Group_5" data-name="&lt;Group&gt;"><line id="_Path_56" data-name="&lt;Path&gt;" class="cls-29" x1="316.29" y1="69.43" x2="309.27" y2="69.07"/><path id="_Path_57" data-name="&lt;Path&gt;" class="cls-29" d="M316.46,70.59a1.17,1.17,0,0,0-.11-2.33l-7-.36a1.17,1.17,0,1,0-.12,2.34l7,.36Z"/></g><g id="_Group_6" data-name="&lt;Group&gt;"><line id="_Path_58" data-name="&lt;Path&gt;" class="cls-29" x1="297.96" y1="69.07" x2="290.94" y2="69.43"/><path id="_Path_59" data-name="&lt;Path&gt;" class="cls-29" d="M298.12,67.91a1.17,1.17,0,0,1-.11,2.33l-7,.36a1.17,1.17,0,1,1-.12-2.34l7-.36Z"/></g><circle id="_Path_60" data-name="&lt;Path&gt;" cx="295.32" cy="76.65" r="1.58"/><circle id="_Path_61" data-name="&lt;Path&gt;" cx="312.24" cy="77.19" r="1.58"/><polygon id="_Path_62" data-name="&lt;Path&gt;" class="cls-21" points="303.76 79.12 302.24 88.57 306.16 88.62 303.76 79.12"/><path id="_Path_63" data-name="&lt;Path&gt;" class="cls-30" d="M296.06,88.4a9.52,9.52,0,0,1-4.34,6.71h0a10.21,10.21,0,0,1-7.93,1"/><path id="_Path_64" data-name="&lt;Path&gt;" class="cls-30" d="M310.84,88.4a5.63,5.63,0,0,0,1.67,4.3h0a6,6,0,0,0,4.31,1.64"/><circle id="_Path_65" data-name="&lt;Path&gt;" class="cls-29" cx="320.85" cy="51.07" r="8.02"/><circle id="_Path_66" data-name="&lt;Path&gt;" class="cls-29" cx="266.64" cy="68.04" r="8.02"/><path id="_Path_67" data-name="&lt;Path&gt;" class="cls-29" d="M275.69,78.31s7.14-1.31,6.34-13c4.24-.66,25.71,4.81,32.27-21.24C309,33.4,299.68,32,289.51,33.67c-15,2.54-31,13.86-22.16,43C268,78.88,273.57,76.66,275.69,78.31Z"/><circle id="_Path_68" data-name="&lt;Path&gt;" class="cls-29" cx="267.74" cy="54.63" r="8.02"/><circle id="_Path_69" data-name="&lt;Path&gt;" class="cls-29" cx="272.55" cy="43.25" r="8.02"/><circle id="_Path_70" data-name="&lt;Path&gt;" class="cls-29" cx="292.63" cy="34.03" r="8.02"/><circle id="_Path_71" data-name="&lt;Path&gt;" class="cls-29" cx="282.92" cy="35.84" r="8.02"/><circle id="_Path_72" data-name="&lt;Path&gt;" class="cls-29" cx="304.12" cy="35.23" r="8.02"/><circle id="_Path_73" data-name="&lt;Path&gt;" class="cls-29" cx="315.78" cy="40.36" r="8.02"/><g id="_Group_7" data-name="&lt;Group&gt;"><g id="_Group_8" data-name="&lt;Group&gt;"><path id="_Path_74" data-name="&lt;Path&gt;" class="cls-17" d="M276.28,72.35A9.3,9.3,0,0,0,273,69c-5-3.48-10.86-.66-8.63,5.3,1.55,4.16,4.21,14.45,7.45,10.75C274.36,82.17,276.15,77.84,276.28,72.35Z"/><polygon id="_Path_75" data-name="&lt;Path&gt;" class="cls-21" points="272.42 72.95 265.83 71.84 270.8 80.88 269.13 73.43 272.42 72.95"/></g><circle id="_Path_76" data-name="&lt;Path&gt;" class="cls-8" cx="271" cy="85.94" r="2.72"/></g><path id="_Path_77" data-name="&lt;Path&gt;" class="cls-30" d="M290.21,76.63h-2.84"/><path id="_Path_78" data-name="&lt;Path&gt;" class="cls-30" d="M319.43,77.37l-2-.19"/><path id="_Path_79" data-name="&lt;Path&gt;" class="cls-25" d="M300.72,99.58c-3.73,0-7-2-7-4.33v-.54H308.1v.54c0,2.1-2.19,4.33-6.26,4.33Z"/><path id="_Path_80" data-name="&lt;Path&gt;" class="cls-24" d="M246.29,199.78l13.09-13.91L231,159.69a9.55,9.55,0,0,0-13.5.41h0a9.55,9.55,0,0,0,.41,13.5Z"/><polygon id="_Path_81" data-name="&lt;Path&gt;" class="cls-13" points="244.17 193.72 253.44 184.6 278.41 208.7 269.14 217.82 244.17 193.72"/><rect id="_Rectangle_9" data-name="&lt;Rectangle&gt;" class="cls-25" x="237.68" y="184.37" width="25.3" height="12.93" rx="3.99" ry="3.99" transform="translate(562.44 149.9) rotate(135.21)"/><path id="_Path_82" data-name="&lt;Path&gt;" class="cls-13" d="M277.51,207.59l9.67,8.67s2.74,9.57,2.13,13.35c-.71,4.4-4.66,8.68-5.44,9.43-2.1,2-5.3-12.38-5.3-12.38l-9.18-9Z"/><path class="cls-7" d="M331.47,120.36a11.15,11.15,0,0,1,8.46-4.18h1.41a11.24,11.24,0,0,1,8.74,4.52c7.63,9.57,27.37,31.34,52,35.51,0,0-21.52,121.3-60.75,123.39v0h-1.15v0c-39.23-2.1-62.86-123.39-62.86-123.39C302.27,152,323.49,129.75,331.47,120.36Z"/><path class="cls-31" d="M281.57,151.46c24.94-4.22,46.16-26.47,54.14-35.85a11.15,11.15,0,0,1,8.46-4.18h1.41a11.24,11.24,0,0,1,8.74,4.52c7.63,9.57,27.37,31.34,52,35.51,0,0-21.52,121.3-60.75,123.39v0h-1.15v0C305.19,272.76,281.57,151.46,281.57,151.46Z"/><path class="cls-16" d="M289.84,157c21.63-3.66,40-23,47-31.09a9.67,9.67,0,0,1,7.33-3.63h1.22a9.75,9.75,0,0,1,7.58,3.92c6.62,8.3,23.74,27.18,45.11,30.8,0,0-18.66,105.2-52.69,107v0h-1v0C310.33,262.19,289.84,157,289.84,157Z"/><path class="cls-25" d="M354.65,171.55c4.35,1.55,5.36,2.8,6.61,8.18,1.25-5.38,2.26-6.63,6.61-8.18-4.35-1.55-5.36-2.8-6.61-8.18C360,168.75,359,170,354.65,171.55Z"/><path class="cls-25" d="M361.79,188.05c3.57,1,4.4,1.86,5.42,5.42,1-3.57,1.86-4.4,5.42-5.42-3.57-1-4.4-1.86-5.42-5.42C366.19,186.2,365.36,187,361.79,188.05Z"/><path id="_Path_83" data-name="&lt;Path&gt;" class="cls-24" d="M319,210.08,334.54,199l-22.73-31.25a9.55,9.55,0,0,0-13.32-2.25h0a9.55,9.55,0,0,0-2.25,13.32Z"/><polygon id="_Path_84" data-name="&lt;Path&gt;" class="cls-13" points="318.08 203.73 328.96 196.6 348.13 224.43 337.82 232.27 318.08 203.73"/><rect id="_Rectangle_10" data-name="&lt;Rectangle&gt;" class="cls-25" x="312.04" y="195.64" width="25.3" height="12.93" rx="3.99" ry="3.99" transform="translate(707 191.76) rotate(146.55)"/><path id="_Path_85" data-name="&lt;Path&gt;" class="cls-20" d="M338,232.47a108.85,108.85,0,0,1,.6,12.26c4.81,1.93,7.14-4.92,7.14-4.92Z"/><path id="_Path_86" data-name="&lt;Path&gt;" class="cls-13" d="M348.13,224.43l6.79,11.07s-.1,10-1.76,13.4c-1.94,4-6.94,7-7.91,7.48C342.67,257.7,343.7,243,343.7,243l-6.22-11.29Z"/><rect id="_Rectangle_11" data-name="&lt;Rectangle&gt;" class="cls-13" x="303.34" y="327.67" width="13.13" height="95.84" transform="translate(600.65 766.19) rotate(-177.13)"/><rect id="_Rectangle_12" data-name="&lt;Rectangle&gt;" class="cls-13" x="259.97" y="328.73" width="13.13" height="94.77" transform="translate(533.07 752.23) rotate(-180)"/><polygon id="_Path_87" data-name="&lt;Path&gt;" class="cls-26" points="252.13 337.06 326.39 337.06 320.02 241.6 255.31 241.6 252.13 337.06"/><rect id="_Rectangle_13" data-name="&lt;Rectangle&gt;" class="cls-24" x="295.66" y="109.12" width="19.1" height="79.59" rx="9.55" ry="9.55" transform="translate(526.23 406.76) rotate(-156.61)"/><path id="_Path_88" data-name="&lt;Path&gt;" class="cls-27" d="M264.21,109.07h44.57A15.92,15.92,0,0,1,324.7,125V247H248.3s4.78-51.14,4.78-68.19c0-13.46-4.78-53.84-4.78-53.84A15.92,15.92,0,0,1,264.21,109.07Z"/><path id="_Path_89" data-name="&lt;Path&gt;" class="cls-13" d="M321.47,418.35l-11.32-6.6s-5,0-5.57,4.82-.15,6.12,3.38,7.76,12.19,3.38,12.19,3.38l2.84-6.79S323.63,419.6,321.47,418.35Z"/><polygon id="_Path_90" data-name="&lt;Path&gt;" class="cls-28" points="301.63 411.25 296.98 415.88 296.98 421.05 302.48 435.37 306.53 435.37 306.58 426.39 329.53 435.37 346.34 435.37 347.83 432.59 321.47 418.35 318.6 422.64 315.15 422.64 301.49 414.68 301.63 411.25"/><path id="_Path_91" data-name="&lt;Path&gt;" class="cls-13" d="M280.09,418.35l-11.32-6.6s-5,0-5.57,4.82-.15,6.12,3.38,7.76,12.19,3.38,12.19,3.38l2.84-6.79S282.24,419.6,280.09,418.35Z"/><polygon id="_Path_92" data-name="&lt;Path&gt;" class="cls-28" points="260.24 411.25 255.59 415.88 255.59 421.05 261.1 435.37 265.14 435.37 265.19 426.39 288.14 435.37 304.96 435.37 306.44 432.59 280.09 418.35 277.21 422.64 273.76 422.64 260.1 414.68 260.24 411.25"/><ellipse id="_Path_93" data-name="&lt;Path&gt;" class="cls-25" cx="289.61" cy="111.85" rx="17.44" ry="9.98"/><rect id="_Rectangle_14" data-name="&lt;Rectangle&gt;" class="cls-13" x="283.84" y="89.97" width="11.54" height="22.28" rx="4.46" ry="4.46" transform="translate(579.23 202.22) rotate(-180)"/><ellipse id="_Path_94" data-name="&lt;Path&gt;" class="cls-24" cx="294.51" cy="135.68" rx="2.47" ry="4.01"/><ellipse id="_Path_95" data-name="&lt;Path&gt;" class="cls-24" cx="294.51" cy="153.09" rx="2.47" ry="4.01"/><ellipse id="_Path_96" data-name="&lt;Path&gt;" class="cls-24" cx="294.51" cy="170.5" rx="2.47" ry="4.01"/><ellipse id="_Path_97" data-name="&lt;Path&gt;" class="cls-24" cx="294.51" cy="187.91" rx="2.47" ry="4.01"/><ellipse id="_Path_98" data-name="&lt;Path&gt;" class="cls-24" cx="294.51" cy="205.33" rx="2.47" ry="4.01"/><ellipse id="_Path_99" data-name="&lt;Path&gt;" class="cls-24" cx="294.51" cy="222.74" rx="2.47" ry="4.01"/><rect id="_Rectangle_15" data-name="&lt;Rectangle&gt;" class="cls-24" x="232.75" y="102.61" width="19.1" height="79.59" rx="9.55" ry="9.55" transform="translate(344.88 404.06) rotate(-141.85)"/><path id="_Path_100" data-name="&lt;Path&gt;" class="cls-29" d="M317.7,43.87s7.43-1.51,7.43,13.6a66,66,0,0,1-1.92,14.82L311.93,59.21,300.26,54l14.59-5.27Z"/><path id="_Path_101" data-name="&lt;Path&gt;" class="cls-17" d="M302.64,106.2c-19.63,1.05-30.07-13.45-33.28-31.47-3.38-19,9.33-34.68,24.72-34.72,17.51-.06,27.73,6.77,29.17,26,.9,12.07-2.73,36.27-20.61,40.19Z"/><g id="_Group_9" data-name="&lt;Group&gt;"><line id="_Path_102" data-name="&lt;Path&gt;" class="cls-29" x1="316.26" y1="68.75" x2="309.31" y2="69.75"/><path id="_Path_103" data-name="&lt;Path&gt;" class="cls-29" d="M316.65,69.85a1.17,1.17,0,0,0-.55-2.27l-7,1a1.17,1.17,0,1,0,.34,2.32l7-1Z"/></g><g id="_Group_10" data-name="&lt;Group&gt;"><line id="_Path_104" data-name="&lt;Path&gt;" class="cls-29" x1="297.89" y1="69.96" x2="291.01" y2="68.54"/><path id="_Path_105" data-name="&lt;Path&gt;" class="cls-29" d="M298.34,68.88a1.17,1.17,0,0,1-.69,2.23l-6.88-1.42a1.17,1.17,0,1,1,.47-2.29l6.88,1.42Z"/></g><circle id="_Path_106" data-name="&lt;Path&gt;" cx="295.32" cy="76.65" r="1.58"/><circle id="_Path_107" data-name="&lt;Path&gt;" cx="312.24" cy="77.19" r="1.58"/><polygon id="_Path_108" data-name="&lt;Path&gt;" class="cls-21" points="303.76 79.12 302.24 88.57 306.16 88.62 303.76 79.12"/><path id="_Path_109" data-name="&lt;Path&gt;" class="cls-30" d="M296.06,88.4a9.52,9.52,0,0,1-4.34,6.71h0a10.21,10.21,0,0,1-7.93,1"/><path id="_Path_110" data-name="&lt;Path&gt;" class="cls-30" d="M310.84,88.4a5.63,5.63,0,0,0,1.67,4.3h0a6,6,0,0,0,4.31,1.64"/><circle id="_Path_111" data-name="&lt;Path&gt;" class="cls-29" cx="320.85" cy="51.07" r="8.02"/><circle id="_Path_112" data-name="&lt;Path&gt;" class="cls-29" cx="266.64" cy="68.04" r="8.02"/><path id="_Path_113" data-name="&lt;Path&gt;" class="cls-29" d="M275.69,78.31s7.14-1.31,6.34-13c4.24-.66,25.71,4.81,32.27-21.24C309,33.4,299.68,32,289.51,33.67c-15,2.54-31,13.86-22.16,43C268,78.88,273.57,76.66,275.69,78.31Z"/><circle id="_Path_114" data-name="&lt;Path&gt;" class="cls-29" cx="267.74" cy="54.63" r="8.02"/><circle id="_Path_115" data-name="&lt;Path&gt;" class="cls-29" cx="272.55" cy="43.25" r="8.02"/><circle id="_Path_116" data-name="&lt;Path&gt;" class="cls-29" cx="292.63" cy="34.03" r="8.02"/><circle id="_Path_117" data-name="&lt;Path&gt;" class="cls-29" cx="282.92" cy="35.84" r="8.02"/><circle id="_Path_118" data-name="&lt;Path&gt;" class="cls-29" cx="304.12" cy="35.23" r="8.02"/><circle id="_Path_119" data-name="&lt;Path&gt;" class="cls-29" cx="315.78" cy="40.36" r="8.02"/><g id="_Group_11" data-name="&lt;Group&gt;"><g id="_Group_12" data-name="&lt;Group&gt;"><path id="_Path_120" data-name="&lt;Path&gt;" class="cls-17" d="M276.28,72.35A9.3,9.3,0,0,0,273,69c-5-3.48-10.86-.66-8.63,5.3,1.55,4.16,4.21,14.45,7.45,10.75C274.36,82.17,276.15,77.84,276.28,72.35Z"/><polygon id="_Path_121" data-name="&lt;Path&gt;" class="cls-21" points="272.42 72.95 265.83 71.84 270.8 80.88 269.13 73.43 272.42 72.95"/></g><circle id="_Path_122" data-name="&lt;Path&gt;" class="cls-8" cx="271" cy="85.94" r="2.72"/></g><path id="_Path_123" data-name="&lt;Path&gt;" class="cls-30" d="M290.21,76.63h-2.84"/><path id="_Path_124" data-name="&lt;Path&gt;" class="cls-30" d="M319.43,77.37l-2-.19"/><path id="_Path_125" data-name="&lt;Path&gt;" class="cls-25" d="M300.72,99.58c-3.73,0-7-2-7-4.33v-.54H308.1v.54c0,2.1-2.19,4.33-6.26,4.33Z"/><path id="_Path_126" data-name="&lt;Path&gt;" class="cls-24" d="M246.29,199.78l13.09-13.91L231,159.69a9.55,9.55,0,0,0-13.5.41h0a9.55,9.55,0,0,0,.41,13.5Z"/><polygon id="_Path_127" data-name="&lt;Path&gt;" class="cls-13" points="244.17 193.72 253.44 184.6 278.41 208.7 269.14 217.82 244.17 193.72"/><rect id="_Rectangle_16" data-name="&lt;Rectangle&gt;" class="cls-25" x="237.68" y="184.37" width="25.3" height="12.93" rx="3.99" ry="3.99" transform="translate(562.44 149.9) rotate(135.21)"/><path id="_Path_128" data-name="&lt;Path&gt;" class="cls-13" d="M277.51,207.59l9.67,8.67s2.74,9.57,2.13,13.35c-.71,4.4-4.66,8.68-5.44,9.43-2.1,2-5.3-12.38-5.3-12.38l-9.18-9Z"/><path class="cls-7" d="M331.47,120.36a11.15,11.15,0,0,1,8.46-4.18h1.41a11.24,11.24,0,0,1,8.74,4.52c7.63,9.57,27.37,31.34,52,35.51,0,0-21.52,121.3-60.75,123.39v0h-1.15v0c-39.23-2.1-62.86-123.39-62.86-123.39C302.27,152,323.49,129.75,331.47,120.36Z"/><path class="cls-31" d="M281.57,151.46c24.94-4.22,46.16-26.47,54.14-35.85a11.15,11.15,0,0,1,8.46-4.18h1.41a11.24,11.24,0,0,1,8.74,4.52c7.63,9.57,27.37,31.34,52,35.51,0,0-21.52,121.3-60.75,123.39v0h-1.15v0C305.19,272.76,281.57,151.46,281.57,151.46Z"/><path class="cls-16" d="M289.84,157c21.63-3.66,40-23,47-31.09a9.67,9.67,0,0,1,7.33-3.63h1.22a9.75,9.75,0,0,1,7.58,3.92c6.62,8.3,23.74,27.18,45.11,30.8,0,0-18.66,105.2-52.69,107v0h-1v0C310.33,262.19,289.84,157,289.84,157Z"/><path class="cls-25" d="M354.65,171.55c4.35,1.55,5.36,2.8,6.61,8.18,1.25-5.38,2.26-6.63,6.61-8.18-4.35-1.55-5.36-2.8-6.61-8.18C360,168.75,359,170,354.65,171.55Z"/><path class="cls-25" d="M361.79,188.05c3.57,1,4.4,1.86,5.42,5.42,1-3.57,1.86-4.4,5.42-5.42-3.57-1-4.4-1.86-5.42-5.42C366.19,186.2,365.36,187,361.79,188.05Z"/><circle id="_Path_129" data-name="&lt;Path&gt;" class="cls-8" cx="543.67" cy="244.42" r="2.93"/><rect id="_Rectangle_17" data-name="&lt;Rectangle&gt;" class="cls-32" x="520.2" y="235.86" width="24.61" height="109.75" rx="12.31" ry="12.31" transform="translate(163.29 -190.69) rotate(23.88)"/><path id="_Path_130" data-name="&lt;Path&gt;" class="cls-32" d="M609.26,229.48,539,230l.42,22.54a12.06,12.06,0,0,0,12.16,12l46.1-.37a12.06,12.06,0,0,0,12-12.16Z"/><g id="_Group_13" data-name="&lt;Group&gt;"><g id="_Clip_Group_6" data-name="&lt;Clip Group&gt;"><path id="_Rectangle_18" data-name="&lt;Rectangle&gt;" class="cls-32" d="M550.48,95.57h49.28a17.18,17.18,0,0,1,17.18,17.18V245.5a0,0,0,0,1,0,0H532.51a0,0,0,0,1,0,0v-132A18,18,0,0,1,550.48,95.57Z"/></g></g><ellipse id="_Path_131" data-name="&lt;Path&gt;" class="cls-32" cx="574.73" cy="95.57" rx="11.46" ry="7.45"/><rect id="_Rectangle_19" data-name="&lt;Rectangle&gt;" class="cls-32" x="585.31" y="229.32" width="24.61" height="109.75" rx="12.31" ry="12.31" transform="translate(-22.29 52.62) rotate(-4.95)"/><path id="_Path_132" data-name="&lt;Path&gt;" class="cls-33" d="M612.36,358.37h0a9.53,9.53,0,0,0-5.52,12.3l24,63.14a9.53,9.53,0,0,0,12.3,5.52h0a9.53,9.53,0,0,0,5.52-12.3l-.63-1.64-23.42-61.49A9.53,9.53,0,0,0,612.36,358.37Z"/><path id="_Path_133" data-name="&lt;Path&gt;" class="cls-11" d="M649.78,425.33l4.14,10.88-53.77,20.48-.41-1.09a4.62,4.62,0,0,1,1.64-5.41l25.79-18.36a8.54,8.54,0,0,1,4-1.55c8.4-.93,13.44-3.86,15.88-5.72A1.77,1.77,0,0,1,649.78,425.33Z"/><path id="_Path_134" data-name="&lt;Path&gt;" class="cls-12" d="M653.93,436.2l0,.09a3.51,3.51,0,0,1-2,4.53l-48.83,18.6a1.77,1.77,0,0,1-2.28-1l-.65-1.71Z"/><path id="_Rectangle_20" data-name="&lt;Rectangle&gt;" class="cls-32" d="M614.55,313.31H619a10.11,10.11,0,0,1,10.11,10.11v99.64a0,0,0,0,1,0,0H604.44a0,0,0,0,1,0,0V323.42A10.11,10.11,0,0,1,614.55,313.31Z" transform="translate(-89.22 235.72) rotate(-20.21)"/><path id="_Path_135" data-name="&lt;Path&gt;" class="cls-33" d="M612.36,358.37h0a9.53,9.53,0,0,0-5.52,12.3l24,63.14a9.53,9.53,0,0,0,12.3,5.52h0a9.53,9.53,0,0,0,5.52-12.3l-.63-1.64-23.42-61.49A9.53,9.53,0,0,0,612.36,358.37Z"/><path id="_Path_136" data-name="&lt;Path&gt;" class="cls-11" d="M649.78,425.33l4.14,10.88-53.77,20.48-.41-1.09a4.62,4.62,0,0,1,1.64-5.41l25.79-18.36a8.54,8.54,0,0,1,4-1.55c8.4-.93,13.44-3.86,15.88-5.72A1.77,1.77,0,0,1,649.78,425.33Z"/><path id="_Path_137" data-name="&lt;Path&gt;" class="cls-12" d="M653.93,436.2l0,.09a3.51,3.51,0,0,1-2,4.53l-48.83,18.6a1.77,1.77,0,0,1-2.28-1l-.65-1.71Z"/><path id="_Rectangle_21" data-name="&lt;Rectangle&gt;" class="cls-32" d="M614.55,313.31H619a10.11,10.11,0,0,1,10.11,10.11v99.64a0,0,0,0,1,0,0H604.44a0,0,0,0,1,0,0V323.42A10.11,10.11,0,0,1,614.55,313.31Z" transform="translate(-89.22 235.72) rotate(-20.21)"/><path id="_Path_138" data-name="&lt;Path&gt;" class="cls-33" d="M521.12,366.57h0a9.53,9.53,0,0,0-7.34,11.31L527.86,444a9.53,9.53,0,0,0,11.31,7.34h0A9.53,9.53,0,0,0,546.51,440l-.37-1.72-13.71-64.36A9.53,9.53,0,0,0,521.12,366.57Z"/><path id="_Path_139" data-name="&lt;Path&gt;" class="cls-11" d="M548.47,442.46l0,11.64-57.54.15v-1.16a4.62,4.62,0,0,1,3.45-4.49L525,440.54a8.54,8.54,0,0,1,4.29,0c8.18,2.1,13.94,1.14,16.88.26A1.77,1.77,0,0,1,548.47,442.46Z"/><path id="_Path_140" data-name="&lt;Path&gt;" class="cls-12" d="M548.5,454.1v.09a3.51,3.51,0,0,1-3.5,3.52l-52.25.13a1.77,1.77,0,0,1-1.77-1.77v-1.84Z"/><path id="_Rectangle_22" data-name="&lt;Rectangle&gt;" class="cls-32" d="M524,322.07h0a12.31,12.31,0,0,1,12.31,12.31v97.44a0,0,0,0,1,0,0H511.65a0,0,0,0,1,0,0V334.38A12.31,12.31,0,0,1,524,322.07Z" transform="translate(-64.12 110.88) rotate(-11.39)"/><ellipse id="_Path_141" data-name="&lt;Path&gt;" class="cls-32" cx="574.73" cy="95.57" rx="11.46" ry="7.45"/><path id="_Path_142" data-name="&lt;Path&gt;" class="cls-34" d="M612.94,101.4h0a7.64,7.64,0,0,0-10.79.36l-44.37,48.38a7.64,7.64,0,0,0,.36,10.79h0a7.64,7.64,0,0,0,10.79-.36l44.37-48.38A7.64,7.64,0,0,0,612.94,101.4Z"/><path id="_Path_143" data-name="&lt;Path&gt;" class="cls-32" d="M550.81,103.08h0a7.64,7.64,0,0,1-4.56,9.79l-61.89,21.9a7.64,7.64,0,0,1-9.79-4.56h0a7.64,7.64,0,0,1,4.56-9.79L541,98.53A7.64,7.64,0,0,1,550.81,103.08Z"/><path id="_Path_144" data-name="&lt;Path&gt;" class="cls-32" d="M485,132.9h0a7.64,7.64,0,0,1-10.6-2.08L438.34,76a7.64,7.64,0,0,1,2.08-10.6h0A7.64,7.64,0,0,1,451,67.47l36.11,54.83A7.64,7.64,0,0,1,485,132.9Z"/><path id="_Path_145" data-name="&lt;Path&gt;" class="cls-32" d="M438.63,76.26s-8.39-5.93-12.38-7.84c.83-6.13,9.31-4.52,9.31-4.52Z"/><path id="_Path_146" data-name="&lt;Path&gt;" class="cls-32" d="M453,70.42l-7.5-13.56s-10.39-5.75-15-6.05c-5.31-.35-11.35,3.09-12.43,3.81-2.88,1.91,13,9.48,13,9.48l8.06,13.1Z"/><path id="_Path_147" data-name="&lt;Path&gt;" class="cls-34" d="M528.39,103.59l-8.9-12.69S508.54,86.29,504,86.48c-5.31.22-11,4.28-11.95,5.11-2.66,2.2,13.92,8,13.92,8l9.41,12.17Z"/><path id="_Path_148" data-name="&lt;Path&gt;" class="cls-34" d="M566.93,162.3h0a7.64,7.64,0,0,1-10.76-.94l-41.73-50.68a7.64,7.64,0,0,1,.94-10.76h0a7.64,7.64,0,0,1,10.76.94l41.73,50.68A7.64,7.64,0,0,1,566.93,162.3Z"/><path id="_Path_149" data-name="&lt;Path&gt;" class="cls-34" d="M514.75,110.92s-9-5-13.14-6.47c.18-6.19,8.78-5.48,8.78-5.48Z"/><path id="_Path_150" data-name="&lt;Path&gt;" class="cls-13" d="M574.15,72.87h.22a6.07,6.07,0,0,0-6,6.25V92.48c0,3.45,2.58,4.52,6,4.52h-.11c3.45,0,6.14-1.07,6.14-4.52V79.12A6.25,6.25,0,0,0,574.15,72.87Z"/><path id="_Path_151" data-name="&lt;Path&gt;" class="cls-17" d="M562.95,90.42c19.75,1.06,30.25-13.53,33.48-31.66,3.4-19.09-9.38-34.89-24.87-34.94-17.62-.06-27.9,6.81-29.34,26.16-.91,12.15,2.75,36.49,20.74,40.44Z"/><g id="_Group_14" data-name="&lt;Group&gt;"><line id="_Path_152" data-name="&lt;Path&gt;" class="cls-18" x1="549.66" y1="50.9" x2="556.35" y2="53.03"/><path id="_Path_153" data-name="&lt;Path&gt;" class="cls-18" d="M549.1,51.93a1.17,1.17,0,0,1,.91-2.14l6.69,2.12a1.17,1.17,0,1,1-.71,2.23L549.31,52Z"/></g><g id="_Group_15" data-name="&lt;Group&gt;"><line id="_Path_154" data-name="&lt;Path&gt;" class="cls-18" x1="567.89" y1="52.75" x2="574.73" y2="51.18"/><path id="_Path_155" data-name="&lt;Path&gt;" class="cls-18" d="M567.41,51.68a1.17,1.17,0,0,0,.74,2.21L575,52.32a1.17,1.17,0,1,0-.52-2.28l-6.84,1.57Z"/></g><circle id="_Path_156" data-name="&lt;Path&gt;" cx="570.44" cy="59.35" r="1.58"/><circle id="_Path_157" data-name="&lt;Path&gt;" cx="553.55" cy="59.89" r="1.58"/><polygon id="_Path_158" data-name="&lt;Path&gt;" class="cls-21" points="561.85 57.09 562.06 70.84 559.11 70.17 561.85 57.09"/><path id="_Path_159" data-name="&lt;Path&gt;" class="cls-30" d="M553.55,74.91a11.17,11.17,0,0,0,8.51,4h0a12,12,0,0,0,8.51-4"/><path class="cls-32" d="M596.89,48.86c0-15.73-11.29-29.95-27-29.95A28.49,28.49,0,0,0,541.38,47.4"/><path class="cls-35" d="M596.89,62.78c-4.19,16.21-15,28.62-34.07,27.64-12.68-2.66-18.53-14.61-20.71-25.83Z"/><g id="_Group_16" data-name="&lt;Group&gt;"><path id="_Path_160" data-name="&lt;Path&gt;" class="cls-17" d="M591.5,53.5a9.28,9.28,0,0,1,3.23-3.38c5-3.47,10.84-.66,8.62,5.29-1.55,4.15-4.2,14.42-7.44,10.73C593.42,63.31,591.63,59,591.5,53.5Z"/><polygon id="_Path_161" data-name="&lt;Path&gt;" class="cls-21" points="595.36 54.11 601.93 53 596.98 62.02 598.64 54.59 595.36 54.11"/></g></svg>