<svg id="Layer_1" data-name="Layer 1" xmlns="http://www.w3.org/2000/svg" viewBox="0 0 708.66 481.89"><defs><style>.cls-1{fill:#d5eff0;}.cls-19,.cls-2{opacity:0.07;}.cls-3{fill:#3a3a3a;}.cls-15,.cls-4{fill:#fff;}.cls-5{fill:#a57c52;}.cls-14,.cls-6{fill:#f8ab8d;}.cls-7{fill:#353560;}.cls-8{fill:#66a7a9;}.cls-9{fill:#3d233e;}.cls-10{fill:#d0bd56;}.cls-11{fill:#3952a0;}.cls-12{fill:#fab53c;}.cls-13{fill:#c49a6c;}.cls-14,.cls-15,.cls-23{fill-rule:evenodd;}.cls-16,.cls-24,.cls-35{fill:none;}.cls-16{stroke:#fc5f51;stroke-width:2px;}.cls-16,.cls-24{stroke-linecap:round;stroke-linejoin:round;}.cls-17{fill:#fc5f51;}.cls-18{fill:#979797;}.cls-19{fill:#070707;}.cls-20{fill:#e5e5e4;}.cls-21{fill:#515180;}.cls-22{fill:gray;}.cls-23,.cls-28{fill:#dc846a;}.cls-24{stroke:#dc846a;stroke-width:1.98px;}.cls-25{fill:#d8e2ea;opacity:0.6;}.cls-26{opacity:0.1;}.cls-27{fill:#414042;}.cls-29{fill:#8b6339;}.cls-30{fill:#754d24;}.cls-31{fill:#cecece;}.cls-32{fill:#19a4a4;}.cls-33{fill:#f4f4f4;}.cls-34{fill:#9b9b9a;}.cls-35{stroke:#3952a0;stroke-miterlimit:10;}.cls-36{fill:#4c4c4c;}.cls-37{fill:#eef5f5;}.cls-38{fill:#d53d33;}.cls-39{fill:#e54d42;}.cls-40{fill:#e1e5e5;}.cls-41{fill:#f7fafa;}.cls-42{fill:#8d5c3e;}.cls-43{fill:#556566;}</style></defs><title>CS-L2-U9</title><circle class="cls-1" cx="371.67" cy="244.61" r="231.8"/><path class="cls-2" d="M339.65,288.06H316L309,249.94c-.18-1-.55-1.76-.82-1.72l-4.41.8c-.27,0-.35.9-.16,1.89l6.74,37.14h-1.06l-10-55c-.22-1.2-.73-2.1-1.13-2l-6.63,1.2h0l-35.61-40.59a23,23,0,0,0-20.19-10.71l-7.61.27-10.79-4.64c.45,0,.89,0,1.34-.09,22.55-5.79,26.08-36.71,24.39-52a50,50,0,0,0-3.5-14.26,10.5,10.5,0,0,0,3.23-3.35c1.8-3.11,1.29-5.32,1.29-5.32l-7.36.26a14.94,14.94,0,0,0,3.56-6.51,34.89,34.89,0,0,0,1.4-8.12l-12.21.43S217,79.11,203.43,80.74C182.08,83.3,175.5,97.31,175.5,97.31A23.1,23.1,0,0,0,166.18,96c2.9,3.13,4.59,4.49,6,9.08-1.65,4.74-1.83,11.25-1.59,16.62-3.9.43-6.49,3.8-4.41,8.8,2.16,5.22,6,18.18,10,13.32.09-.11.17-.23.25-.34,4.18,14.31,12.31,26,24.91,30.81l.21,6a6,6,0,0,0,.34,1.87l-22.15.78a22.09,22.09,0,0,0-9.2,2.36,11.82,11.82,0,0,0-9.45,4l-39.28,44.77a11.78,11.78,0,0,0-2.82,6.38L97.51,303.19l-2.33-1-6.27,15.3,4.87,2L87.23,334.3s2.22,15.43,5.52,20.43c3.84,5.82,19.16,1.81,20.76,2.37,4.28,1.5-7.31-13.49-7.31-13.49l6.37-16.38,5.32,2.18,6.27-15.3-4.71-1.93,22.18-64.84,17.31-19.73,3.84,134.84,1.62,0,.06,31.17c.13,14.59,7.82,26.35,17.19,26.27l64.82-.56c9.37-.08,16.86-12,16.73-26.56l-.05-27.71,3.16.08-1.13-26.8h74.47ZM292,250.77h0a11.84,11.84,0,0,0,1.8-2l7.13,39.26h-4.12V273.77a1.24,1.24,0,0,0-1.17-1.3H285.16a1.24,1.24,0,0,0-1.18,1.3v14.29h-1.4v-31c0-.92-.37-1.67-.83-1.67H274.4c-.45,0-.83.75-.83,1.67v31h-1.31V246.12l3,3.47A11.84,11.84,0,0,0,292,250.77ZM260.74,233l2.13,2.42h-2Zm4.55,5.18,1,1.17v48.72h-1Z"/><path class="cls-3" d="M424.1,231.49c-5.35,0-11.14,4-12.87,8.79,0,0-13.43,37.57-13.43,65.66,0,66.67,1.84,120.71,77.91,120.71,68.66,0,77.9-54,77.9-120.71,0-28.09-13.43-65.66-13.43-65.66-1.73-4.84-7.52-8.79-12.87-8.79Z"/><circle class="cls-4" cx="318.68" cy="106.34" r="39.62"/><circle class="cls-4" cx="269.5" cy="146.85" r="7.61"/><path id="_Path_" data-name="&lt;Path&gt;" class="cls-5" d="M419.92,370.91h0c-.67-6.45-5.29-11.25-10.32-10.73l-78.26,9.06c-5,.52-8.58,6.17-7.91,12.61h0c.67,6.45,5.29,11.25,10.32,10.73L412,383.52C417,383,420.59,377.35,419.92,370.91Z"/><path id="_Path_2" data-name="&lt;Path&gt;" class="cls-6" d="M324.35,367.72l-19.52-2.45s-13.67,6.36-17.39,10.82c-4.33,5.18-5.31,14-5.39,15.59-.2,4.38,19.44-6.23,19.44-6.23L321,387Z"/><rect id="_Rectangle_" data-name="&lt;Rectangle&gt;" class="cls-4" x="311.85" y="371.4" width="30.32" height="16" transform="translate(-131.39 581.27) rotate(-73.01)"/><path id="_Path_3" data-name="&lt;Path&gt;" class="cls-7" d="M297,250.77h0a11.84,11.84,0,0,0,1.18-16.7l-39.28-44.77a11.87,11.87,0,0,0-16.7-1.18h0a11.87,11.87,0,0,0-1.18,16.7l39.28,44.77A11.84,11.84,0,0,0,297,250.77Z"/><path id="_Rectangle_2" data-name="&lt;Rectangle&gt;" class="cls-7" d="M296.39,230.33h10.11a6.78,6.78,0,0,1,6.78,6.78v79.66a9.58,9.58,0,0,1-9.58,9.58h-4.5a9.58,9.58,0,0,1-9.58-9.58V237.11a6.78,6.78,0,0,1,6.78-6.78Z" transform="translate(676.76 444.14) rotate(161.12)"/><rect id="_Rectangle_3" data-name="&lt;Rectangle&gt;" class="cls-4" x="297.77" y="307.56" width="31.33" height="16.53" transform="translate(-96.36 142.46) rotate(-22.29)"/><path class="cls-8" d="M196.76,331.84c-.1,1-.58,1.81-1.08,1.77l-8.05-.79c-.5,0-.82-.92-.72-1.94l8.1-83.12c.1-1,.58-1.81,1.08-1.77l8,.78c.5,0,.82.92.72,1.94Z"/><path class="cls-9" d="M210.43,331.49c-.13,1.24-.76,2.18-1.41,2.12l-10.58-1.07c-.66-.07-1.09-1.12-1-2.36l10.14-100.32c.13-1.24.76-2.18,1.41-2.12l10.59,1.07c.65.07,1.08,1.12,1,2.36Z"/><path class="cls-10" d="M242.55,331.41a2.1,2.1,0,0,1-2,2.2H222.9a2.1,2.1,0,0,1-2-2.2V232.77a2.1,2.1,0,0,1,2-2.2h17.67a2.1,2.1,0,0,1,2,2.2Z"/><path class="cls-1" d="M301.82,332.3a1.24,1.24,0,0,1-1.17,1.3H290.16a1.24,1.24,0,0,1-1.18-1.3V273.77a1.24,1.24,0,0,1,1.18-1.3h10.48a1.24,1.24,0,0,1,1.17,1.3Z"/><path class="cls-9" d="M254.23,331.6c0,1.11-.43,2-1,2h-8.58c-.53,0-1-.9-1-2V241.5c0-1.11.43-2,1-2h8.58c.53,0,1,.9,1,2Z"/><path class="cls-1" d="M270.29,331.51c0,1.16-.61,2.09-1.36,2.09H256.81c-.75,0-1.36-.94-1.36-2.09v-94c0-1.16.61-2.09,1.36-2.09h12.12c.75,0,1.36.94,1.36,2.09Z"/><path class="cls-11" d="M322,330.1c.22,1.2.06,2.22-.35,2.3L315,333.6c-.41.08-.92-.83-1.14-2l-17.62-97.05c-.22-1.19-.06-2.22.35-2.3l6.63-1.2c.41-.08.92.83,1.13,2Z"/><path class="cls-12" d="M328.73,330.91c.18,1,.11,1.85-.17,1.9l-4.41.8c-.27,0-.64-.72-.82-1.72l-14.7-81c-.18-1-.11-1.84.16-1.89l4.41-.8c.27,0,.64.72.82,1.72Z"/><path class="cls-12" d="M287.59,331.94c0,.92-.37,1.67-.83,1.67H279.4c-.45,0-.83-.74-.83-1.67V257.09c0-.92.37-1.67.83-1.67h7.36c.46,0,.83.75.83,1.67Z"/><path class="cls-11" d="M277.26,331.34c0,1.25-.24,2.26-.54,2.26h-4.86c-.3,0-.55-1-.55-2.26V229.77c0-1.25.25-2.26.55-2.26h4.86c.3,0,.54,1,.54,2.26Z"/><rect class="cls-13" x="169.29" y="288.06" width="175.36" height="50.33"/><path id="_Path_4" data-name="&lt;Path&gt;" class="cls-14" d="M223.7,176.46c-24.9,2.22-38.82-15.74-43.71-38.5-5.15-24,10.3-44.5,29.86-45.25,22.26-.86,35.55,7.36,38.24,31.74,1.69,15.31-1.84,46.22-24.39,52Z"/><path class="cls-15" d="M257.72,293a19.33,19.33,0,1,1-19.33,19.33A19.34,19.34,0,0,1,257.72,293Z"/><line class="cls-16" x1="257.72" y1="311.4" x2="257.72" y2="324.24"/><line class="cls-16" x1="252.77" y1="311.4" x2="262.67" y2="311.4"/><line class="cls-16" x1="252.77" y1="324.24" x2="262.67" y2="324.24"/><circle class="cls-17" cx="257.85" cy="303.33" r="2.99"/><path id="_Path_5" data-name="&lt;Path&gt;" class="cls-14" d="M223.7,176.46c-24.9,2.22-38.82-15.74-43.71-38.5-5.15-24,10.3-44.5,29.86-45.25,22.26-.86,35.55,7.36,38.24,31.74,1.69,15.31-1.84,46.22-24.39,52Z"/><path id="_Path_6" data-name="&lt;Path&gt;" class="cls-7" d="M169.37,344.29l98.74-.86.1,49.37c.13,14.59-7.36,26.48-16.73,26.56l-64.82.56c-9.37.08-17.06-11.68-17.19-26.27Z"/><path id="_Path_7" data-name="&lt;Path&gt;" class="cls-18" d="M184.71,182.9l56-2A23,23,0,0,1,264.48,203l6.83,162.16-103.53-2.73-4.46-156.6A22.19,22.19,0,0,1,184.71,182.9Z"/><polygon id="_Path_8" data-name="&lt;Path&gt;" class="cls-7" points="191.98 182.64 189.31 192.8 197.87 200.77 194.62 207.4 232.82 257.28 245.38 205.47 240.63 198.92 243.28 190.9 236.59 181.07 191.98 182.64"/><path class="cls-19" d="M217.45,303.15,210.53,265c-.18-1-.55-1.76-.82-1.72l-4.41.8c-.27,0-.35.9-.16,1.89l6.74,37.14h-1.06l-10-55c-.22-1.2-.73-2.1-1.13-2l-6.63,1.2c-.41.07-.57,1.1-.35,2.3l9.72,53.54h-4.12V288.87a1.24,1.24,0,0,0-1.17-1.3H186.65a1.24,1.24,0,0,0-1.18,1.3v14.29h-1.4v-31c0-.92-.37-1.67-.83-1.67H175.9c-.45,0-.83.75-.83,1.67v31h-1.31V244.87c0-1.25-.24-2.26-.54-2.26h-4.86c-.3,0-.55,1-.55,2.26v58.29h-1V252.6c0-1.16-.61-2.09-1.36-2.09H153.31c-.75,0-1.36.94-1.36,2.09v50.55h-1.22V256.59c0-1.11-.43-2-1-2h-8.58c-.53,0-1,.9-1,2v46.56H139V247.86a2.1,2.1,0,0,0-2-2.2H119.4a2.1,2.1,0,0,0-2,2.2v55.29h-6.1l5.75-56.9c.12-1.23-.31-2.29-1-2.36l-10.59-1.07c-.66-.07-1.29.88-1.41,2.12l-5.88,58.21h-.71l3.83-39.34c.1-1-.22-1.89-.72-1.94l-8-.78c-.5,0-1,.74-1.08,1.77l-3.93,40.3H65.78v50.33H241.15V303.15Z"/><path class="cls-1" d="M90.25,348.93c-.1,1-.58,1.81-1.08,1.77l-8.05-.79c-.5,0-.82-.92-.72-1.94l8.1-83.12c.1-1,.58-1.81,1.08-1.77l8,.78c.5,0,.82.92.72,1.94Z"/><path class="cls-11" d="M103.93,348.58c-.13,1.24-.76,2.18-1.41,2.12l-10.58-1.07c-.66-.07-1.09-1.12-1-2.36l10.14-100.32c.13-1.24.76-2.18,1.41-2.12l10.59,1.07c.65.07,1.08,1.12,1,2.36Z"/><path class="cls-12" d="M136,348.5a2.1,2.1,0,0,1-2,2.2H116.4a2.1,2.1,0,0,1-2-2.2V249.86a2.1,2.1,0,0,1,2-2.2h17.67a2.1,2.1,0,0,1,2,2.2Z"/><path class="cls-1" d="M195.31,349.4a1.24,1.24,0,0,1-1.17,1.3H183.65a1.24,1.24,0,0,1-1.18-1.3V290.87a1.24,1.24,0,0,1,1.18-1.3h10.48a1.24,1.24,0,0,1,1.17,1.3Z"/><path class="cls-11" d="M147.72,348.69c0,1.11-.43,2-1,2h-8.58c-.53,0-1-.9-1-2v-90.1c0-1.11.43-2,1-2h8.58c.53,0,1,.9,1,2Z"/><path class="cls-1" d="M163.78,348.61c0,1.16-.61,2.09-1.36,2.09H150.31c-.75,0-1.36-.94-1.36-2.09v-94c0-1.16.61-2.09,1.36-2.09h12.12c.75,0,1.36.94,1.36,2.09Z"/><path class="cls-11" d="M215.45,347.19c.22,1.2.06,2.22-.35,2.3l-6.63,1.2c-.41.08-.92-.83-1.14-2l-17.62-97.05c-.22-1.19-.06-2.22.35-2.3l6.63-1.2c.41-.08.92.83,1.13,2Z"/><path class="cls-12" d="M222.23,348c.18,1,.11,1.85-.17,1.9l-4.41.8c-.27,0-.64-.72-.82-1.72l-14.7-81c-.18-1-.11-1.84.16-1.89l4.41-.8c.27,0,.64.72.82,1.72Z"/><path class="cls-12" d="M181.08,349c0,.92-.37,1.67-.83,1.67H172.9c-.45,0-.83-.74-.83-1.67V274.19c0-.92.37-1.67.83-1.67h7.36c.46,0,.83.75.83,1.67Z"/><path class="cls-11" d="M170.76,348.44c0,1.25-.24,2.26-.54,2.26h-4.86c-.3,0-.55-1-.55-2.26V246.87c0-1.25.25-2.26.55-2.26h4.86c.3,0,.54,1,.54,2.26Z"/><polygon id="_Path_9" data-name="&lt;Path&gt;" class="cls-4" points="233.15 181.19 228.81 240.43 197.82 182.44 233.15 181.19"/><path id="_Path_10" data-name="&lt;Path&gt;" class="cls-6" d="M213.17,156.51h-.26a7.27,7.27,0,0,1,7.49,7.23l.56,16c.15,4.13-2.9,5.53-7,5.67h.13c-4.13.15-7.4-1-7.54-5.16l-.56-16A7.49,7.49,0,0,1,213.17,156.51Z"/><polygon id="_Path_11" data-name="&lt;Path&gt;" class="cls-20" points="197.82 182.44 206.38 176.4 216.21 183.92 211.1 197.24 197.82 182.44"/><polygon id="_Path_12" data-name="&lt;Path&gt;" class="cls-20" points="233.15 181.19 220.83 175.89 216.21 183.92 227.26 196.67 233.15 181.19"/><polygon id="_Path_13" data-name="&lt;Path&gt;" class="cls-18" points="216.21 183.92 213.17 191.86 221.67 199.59 223.72 192.58 216.21 183.92"/><polygon id="_Path_14" data-name="&lt;Path&gt;" class="cls-21" points="219.22 196.85 218.8 221.71 228.81 240.43 230.36 219.27 222.21 195.99 219.22 196.85"/><ellipse id="_Path_15" data-name="&lt;Path&gt;" class="cls-7" cx="223.56" cy="317.65" rx="4.7" ry="5.82" transform="translate(-43.98 36.05) rotate(-8.4)"/><path id="_Path_16" data-name="&lt;Path&gt;" class="cls-18" d="M177.19,105.08c-2.13,6.11-1.81,15.16-1.31,20.91a5.76,5.76,0,0,1,4.88-1.4,6.89,6.89,0,0,1,.79.16h0l.39.12.39.13.41.17.29.13.48.24.38.22.38.24.36.26.36.28c.23.19.46.4.68.61,0,0,0,0,0,.07l.14.15.07.09.09.1,0,.05,0,0,0,0a.29.29,0,0,1,0,.06l.37,10.51a4.71,4.71,0,0,0,1.25,3.49,5.72,5.72,0,0,0,.5.51,7.52,7.52,0,0,0,3.24.82c2.74-.1,5.43-2.44,5.33-5.19l-.13-3.76a5.43,5.43,0,0,1,4.79-5.6l1-.1c-.08-4.28-.23-7.67-.35-9.78-.14-2.61.77-4.37,6.54-5.16l.17,0c.5-.07,1-.13,1.62-.18h.12c1-.09,2.12-.15,3.36-.2l26.59-.94.3-.09c1.12-.36,5.13-1.84,7.1-5.24,1.8-3.11,1.29-5.32,1.29-5.32l-7.36.26a14.94,14.94,0,0,0,3.56-6.51,34.89,34.89,0,0,0,1.4-8.12l-12.21.43S222,79.11,208.43,80.74C187.08,83.3,180.5,97.31,180.5,97.31A23.1,23.1,0,0,0,171.18,96C174.08,99.13,175.77,100.49,177.19,105.08Z"/><path id="_Path_17" data-name="&lt;Path&gt;" class="cls-22" d="M210.48,113.29c1-.09,2.12-.15,3.36-.2l26.59-.94.3-.09c1.12-.36,5.13-1.84,7.1-5.24,1.8-3.11,1.29-5.32,1.29-5.32S243,108.88,239,109.75l-.32.06C234.59,110.6,216.45,112.63,210.48,113.29Z"/><path id="_Path_18" data-name="&lt;Path&gt;" class="cls-22" d="M246.71,87.14s-4.35,10.94-10.93,13.92c-5.59,2.52-33.27,4.39-33.27,4.39a47.32,47.32,0,0,0,8.66,1.75c2.53.17,26.94.08,30.58-5.41A23.78,23.78,0,0,0,246.71,87.14Z"/><rect id="_Rectangle_4" data-name="&lt;Rectangle&gt;" class="cls-7" x="181.91" y="309.39" width="22.49" height="8.33" transform="translate(-43.71 31.56) rotate(-8.4)"/><circle id="_Path_19" data-name="&lt;Path&gt;" cx="214.42" cy="131.98" r="2.01" transform="translate(-4.52 7.65) rotate(-2.02)"/><circle id="_Path_20" data-name="&lt;Path&gt;" cx="237.81" cy="131.85" r="2.01" transform="matrix(1, -0.04, 0.04, 1, -4.5, 8.47)"/><polygon id="_Path_21" data-name="&lt;Path&gt;" class="cls-23" points="225.32 130.7 225.5 143.44 229.24 142.69 225.32 130.7"/><path id="_Path_22" data-name="&lt;Path&gt;" class="cls-24" d="M207,135a10.5,10.5,0,0,0,6.29,1.62h0a11.27,11.27,0,0,0,6.16-2.06"/><path id="_Path_23" data-name="&lt;Path&gt;" class="cls-24" d="M231.76,134.09A10.5,10.5,0,0,0,238,135.7h0a11.27,11.27,0,0,0,6.16-2.06"/><g id="_Group_" data-name="&lt;Group&gt;"><path id="_Path_24" data-name="&lt;Path&gt;" class="cls-14" d="M186.19,127.54a11.83,11.83,0,0,0-4.26-4.16c-6.53-4.2-13.84-.35-10.74,7.12,2.16,5.22,6,18.18,10,13.32C184.18,140.11,186.27,134.52,186.19,127.54Z"/><polygon id="_Path_25" data-name="&lt;Path&gt;" class="cls-23" points="181.3 128.48 172.88 127.36 179.6 138.63 177.14 129.24 181.3 128.48"/></g><polygon id="_Path_26" data-name="&lt;Path&gt;" class="cls-7" points="191.98 182.64 189.31 192.8 197.87 200.77 194.62 207.4 232.82 257.28 245.38 205.47 240.63 198.92 243.28 190.9 236.59 181.07 191.98 182.64"/><polygon id="_Path_27" data-name="&lt;Path&gt;" class="cls-4" points="233.15 181.19 228.81 240.43 197.82 182.44 233.15 181.19"/><path id="_Path_28" data-name="&lt;Path&gt;" class="cls-6" d="M213.17,156.51h-.26a7.27,7.27,0,0,1,7.49,7.23l.56,16c.15,4.13-2.9,5.53-7,5.67h.13c-4.13.15-7.4-1-7.54-5.16l-.56-16A7.49,7.49,0,0,1,213.17,156.51Z"/><polygon id="_Path_29" data-name="&lt;Path&gt;" class="cls-20" points="197.82 182.44 206.38 176.4 216.21 183.92 211.1 197.24 197.82 182.44"/><polygon id="_Path_30" data-name="&lt;Path&gt;" class="cls-20" points="233.15 181.19 220.83 175.89 216.21 183.92 227.26 196.67 233.15 181.19"/><polygon id="_Path_31" data-name="&lt;Path&gt;" class="cls-18" points="216.21 183.92 213.17 191.86 221.67 199.59 223.72 192.58 216.21 183.92"/><polygon id="_Path_32" data-name="&lt;Path&gt;" class="cls-21" points="219.22 196.85 218.8 221.71 228.81 240.43 230.36 219.27 222.21 195.99 219.22 196.85"/><ellipse id="_Path_33" data-name="&lt;Path&gt;" class="cls-7" cx="223.56" cy="317.65" rx="4.7" ry="5.82" transform="translate(-43.98 36.05) rotate(-8.4)"/><path id="_Path_34" data-name="&lt;Path&gt;" class="cls-22" d="M210.48,113.29c1-.09,2.12-.15,3.36-.2l26.59-.94.3-.09c1.12-.36,5.13-1.84,7.1-5.24,1.8-3.11,1.29-5.32,1.29-5.32S243,108.88,239,109.75l-.32.06C234.59,110.6,216.45,112.63,210.48,113.29Z"/><path id="_Path_35" data-name="&lt;Path&gt;" class="cls-22" d="M246.71,87.14s-4.35,10.94-10.93,13.92c-5.59,2.52-33.27,4.39-33.27,4.39a47.32,47.32,0,0,0,8.66,1.75c2.53.17,26.94.08,30.58-5.41A23.78,23.78,0,0,0,246.71,87.14Z"/><rect id="_Rectangle_5" data-name="&lt;Rectangle&gt;" class="cls-7" x="181.91" y="309.39" width="22.49" height="8.33" transform="translate(-43.71 31.56) rotate(-8.4)"/><g id="_Group_2" data-name="&lt;Group&gt;"><line id="_Path_36" data-name="&lt;Path&gt;" class="cls-18" x1="241.73" y1="116.39" x2="233.89" y2="120.68"/><path id="_Path_37" data-name="&lt;Path&gt;" class="cls-18" d="M242.68,117.53a1.49,1.49,0,0,0-1.67-2.45l-7.84,4.29a1.49,1.49,0,1,0,1.43,2.61l7.84-4.29A1.51,1.51,0,0,0,242.68,117.53Z"/></g><g id="_Group_3" data-name="&lt;Group&gt;"><line id="_Path_38" data-name="&lt;Path&gt;" class="cls-18" x1="217.73" y1="120.76" x2="209.19" y2="118.13"/><path id="_Path_39" data-name="&lt;Path&gt;" class="cls-18" d="M218.43,119.45a1.49,1.49,0,0,1-1.14,2.74l-8.54-2.63a1.49,1.49,0,0,1,.88-2.85l8.54,2.63Z"/></g><circle id="_Path_40" data-name="&lt;Path&gt;" cx="214.42" cy="131.98" r="2.01" transform="translate(-4.52 7.65) rotate(-2.02)"/><circle id="_Path_41" data-name="&lt;Path&gt;" cx="237.81" cy="131.85" r="2.01" transform="matrix(1, -0.04, 0.04, 1, -4.5, 8.47)"/><polygon id="_Path_42" data-name="&lt;Path&gt;" class="cls-23" points="225.32 130.7 225.5 143.44 229.24 142.69 225.32 130.7"/><path id="_Path_43" data-name="&lt;Path&gt;" class="cls-24" d="M207,135a10.5,10.5,0,0,0,6.29,1.62h0a11.27,11.27,0,0,0,6.16-2.06"/><path id="_Path_44" data-name="&lt;Path&gt;" class="cls-24" d="M231.76,134.09A10.5,10.5,0,0,0,238,135.7h0a11.27,11.27,0,0,0,6.16-2.06"/><path class="cls-25" d="M229.41,122a.11.11,0,0,0-.1.11l.54,15.24,18.42-.65-.54-15.35Z"/><polygon class="cls-25" points="220.78 122.34 202.37 123 202.91 138.35 221.33 137.7 220.91 125.79 229.4 125.49 229.29 122.39 220.8 122.69 220.78 122.34"/><g class="cls-26"><polygon class="cls-4" points="229.62 132.15 239.99 121.01 237.19 121.11 229.52 129.35 229.62 132.15"/><polygon class="cls-4" points="247.72 122.45 247.67 121.19 242.2 121.39 229.71 134.79 229.8 137.19 234.12 137.04 247.72 122.45"/></g><g class="cls-26"><polygon class="cls-4" points="202.74 133.95 213.11 122.82 210.31 122.92 202.64 131.15 202.74 133.95"/><polygon class="cls-4" points="220.83 124.25 220.79 123 215.32 123.19 202.83 136.59 202.92 139 207.24 138.84 220.83 124.25"/></g><path class="cls-27" d="M248.15,119.64l-19.29.68h-.23l-6.72.24-1.19,0-16.82.59a3.64,3.64,0,0,0-3.5,3.76l.41,11.55a3.64,3.64,0,0,0,3.76,3.5l15.23-.54a3.64,3.64,0,0,0,3.5-3.76l-.28-7.86a6.85,6.85,0,0,1,4.38-.18l.35,10a1.49,1.49,0,0,0,1.54,1.43l19.52-.69a1.49,1.49,0,0,0,1.43-1.54l-.56-15.85A1.49,1.49,0,0,0,248.15,119.64Zm-.5,16.29-17.37.61L229.91,126a1.27,1.27,0,0,0-1.19-1.21v0h-.2l-6.86.24h-.09a1.27,1.27,0,0,0-1.17,1.31l.33,9.47a1.07,1.07,0,0,1-1,1.11l-15.23.54a1.07,1.07,0,0,1-1.11-1L203,124.87a1.07,1.07,0,0,1,1-1.11l16.19-.57h0l.63,0h0l8.14-.29h0l1,0h0l17.26-.62Z"/><rect class="cls-13" x="62.78" y="305.15" width="175.36" height="50.33"/><path id="_Path_45" data-name="&lt;Path&gt;" class="cls-7" d="M128,250.77h0a11.84,11.84,0,0,1-1.18-16.7l39.28-44.77a11.87,11.87,0,0,1,16.7-1.18h0a11.87,11.87,0,0,1,1.18,16.7l-39.28,44.77A11.84,11.84,0,0,1,128,250.77Z"/><ellipse class="cls-28" cx="229.76" cy="158.37" rx="6.04" ry="4.01"/><path id="_Path_46" data-name="&lt;Path&gt;" class="cls-5" d="M428.14,270.08h0a11.09,11.09,0,0,1,9.52,12.46l-15.46,91.67a11.09,11.09,0,0,1-12.9,8.91h0a11.09,11.09,0,0,1-9.52-12.46L415.23,279A11.09,11.09,0,0,1,428.14,270.08Z"/><circle class="cls-4" cx="488.65" cy="408.55" r="4.75"/><path id="_Rectangle_6" data-name="&lt;Rectangle&gt;" class="cls-20" d="M436.26,271.35h59.07a22.19,22.19,0,0,1,22.19,22.19V423.93a0,0,0,0,1,0,0H413.34a0,0,0,0,1,0,0V294.28A22.93,22.93,0,0,1,436.26,271.35Z"/><polygon id="_Path_47" data-name="&lt;Path&gt;" class="cls-5" points="487.19 271.35 490.31 281.71 481.79 290.21 485.37 296.92 447.88 349.63 433.08 296.78 437.72 289.87 434.71 281.71 441.23 271.35 487.19 271.35"/><polygon id="_Path_48" data-name="&lt;Path&gt;" class="cls-4" points="444.78 271.35 451.4 332.15 481.18 271.35 444.78 271.35"/><polygon id="_Path_49" data-name="&lt;Path&gt;" class="cls-21" points="459.68 286.96 461.01 312.52 451.4 332.15 449.03 310.43 456.57 286.18 459.68 286.96"/><ellipse id="_Path_50" data-name="&lt;Path&gt;" class="cls-5" cx="455.02" cy="410.89" rx="4.84" ry="5.99"/><rect id="_Rectangle_7" data-name="&lt;Rectangle&gt;" class="cls-5" x="473.8" y="397.85" width="23.15" height="8.58" transform="translate(970.75 804.29) rotate(180)"/><path id="_Path_51" data-name="&lt;Path&gt;" class="cls-6" d="M464.2,245.4h.27a7.54,7.54,0,0,0-7.49,7.76v16.59c0,4.29,3.21,5.62,7.49,5.62h-.13c4.29,0,7.63-1.33,7.63-5.62V253.16A7.76,7.76,0,0,0,464.2,245.4Z"/><path id="_Path_52" data-name="&lt;Path&gt;" class="cls-14" d="M450.56,265.29c24.54,1.32,37.59-16.81,41.6-39.34,4.22-23.72-11.66-43.35-30.9-43.41-21.89-.07-34.67,8.46-36.46,32.5-1.13,15.09,3.41,45.34,25.77,50.25Z"/><path id="_Path_53" data-name="&lt;Path&gt;" class="cls-29" d="M495.37,194.89c2.43,6.25,2.43,15.64,2.12,21.62a6,6,0,0,0-5.11-1.27,7.15,7.15,0,0,0-.81.2h0l-.4.13-.4.15-.42.19-.3.15-.49.27-.38.24-.38.26-.36.28-.36.3c-.24.21-.46.43-.69.66,0,0,0,0,0,.07l-.13.16-.07.1-.09.11,0,.05,0,0,0,0a.3.3,0,0,0,0,.07v10.9a4.89,4.89,0,0,1-1.16,3.66,5.93,5.93,0,0,1-.5.55,7.79,7.79,0,0,1-3.32,1c-2.85,0-5.72-2.33-5.72-5.18v-3.9a5.63,5.63,0,0,0-5.17-5.63l-1-.07c-.07-4.44,0-8,0-10.14,0-2.71-1-4.5-7-5.11H463c-.52-.05-1.08-.09-1.69-.13h-.13c-1-.05-2.2-.08-3.48-.08H430.09l-.32-.08c-1.18-.33-5.38-1.72-7.55-5.17-2-3.16-1.53-5.46-1.53-5.46h7.64a15.49,15.49,0,0,1-3.93-6.62,36.17,36.17,0,0,1-1.75-8.37h12.67s12.68-9.22,26.77-8c22.22,1.87,29.55,16.15,29.55,16.15a24,24,0,0,1,9.61-1.7C498.37,188.61,496.67,190.09,495.37,194.89Z"/><path id="_Path_54" data-name="&lt;Path&gt;" class="cls-30" d="M461.16,204.62c-1-.05-2.2-.08-3.48-.08H430.09l-.32-.08c-1.18-.33-5.38-1.72-7.55-5.17-2-3.16-1.53-5.46-1.53-5.46s6.57,7.41,10.78,8.16l.33.05C436.08,202.71,455,204.16,461.16,204.62Z"/><g id="_Group_4" data-name="&lt;Group&gt;"><line id="_Path_55" data-name="&lt;Path&gt;" class="cls-29" x1="433.86" y1="217.73" x2="442.57" y2="217.29"/><path id="_Path_56" data-name="&lt;Path&gt;" class="cls-29" d="M433.66,219.17a1.45,1.45,0,0,1,.13-2.89l8.71-.44a1.45,1.45,0,1,1,.15,2.9l-8.71.44Z"/></g><g id="_Group_5" data-name="&lt;Group&gt;"><line id="_Path_57" data-name="&lt;Path&gt;" class="cls-29" x1="456.6" y1="217.29" x2="465.31" y2="217.73"/><path id="_Path_58" data-name="&lt;Path&gt;" class="cls-29" d="M456.4,215.85a1.45,1.45,0,0,0,.13,2.89l8.71.44a1.45,1.45,0,0,0,.15-2.9l-8.71-.44Z"/></g><circle id="_Path_59" data-name="&lt;Path&gt;" cx="456.6" cy="223.44" r="1.96"/><circle id="_Path_60" data-name="&lt;Path&gt;" cx="435.82" cy="223.7" r="1.96"/><path id="_Path_61" data-name="&lt;Path&gt;" class="cls-30" d="M422.67,178.85s4.91,11.18,11.84,14c5.89,2.41,34.64,3.33,34.64,3.33a49.07,49.07,0,0,1-8.91,2.13c-2.62.27-27.91,1.06-31.89-4.49A24.66,24.66,0,0,1,422.67,178.85Z"/><g id="_Group_6" data-name="&lt;Group&gt;"><path id="_Path_62" data-name="&lt;Path&gt;" class="cls-14" d="M486,219.42a11.54,11.54,0,0,1,4-4.2c6.22-4.31,13.47-.82,10.71,6.57-1.93,5.16-5.22,17.92-9.25,13.33C488.43,231.6,486.21,226.23,486,219.42Z"/><polygon id="_Path_63" data-name="&lt;Path&gt;" class="cls-23" points="490.84 220.17 499.01 218.8 492.85 230 494.92 220.77 490.84 220.17"/></g><polygon id="_Path_64" data-name="&lt;Path&gt;" class="cls-23" points="449.2 223.88 449.46 240.96 445.8 240.13 449.2 223.88"/><polygon id="_Path_65" data-name="&lt;Path&gt;" class="cls-21" points="462.31 273.55 465.73 281.6 457.26 289.87 454.9 282.73 462.31 273.55"/><polygon id="_Path_66" data-name="&lt;Path&gt;" class="cls-31" points="481.18 271.35 472.14 265.45 462.31 273.55 468.05 287.07 481.18 271.35"/><polygon id="_Path_67" data-name="&lt;Path&gt;" class="cls-31" points="444.78 271.35 457.26 265.45 462.31 273.55 451.4 287.07 444.78 271.35"/><g class="cls-2"><rect x="495.2" y="230.2" width="9.51" height="35.13" transform="translate(274.73 -262.74) rotate(39.83)"/><path d="M509.13,212.3h3.73a9.71,9.71,0,0,1,9.71,9.71v13.44a0,0,0,0,1,0,0H509.13a9.71,9.71,0,0,1-9.71-9.71V222a9.71,9.71,0,0,1,9.71-9.71Z" transform="translate(261.99 -275.36) rotate(39.83)"/><path d="M480.63,246.48h13.44a0,0,0,0,1,0,0v13.44a9.71,9.71,0,0,1-9.71,9.71h-3.73a9.71,9.71,0,0,1-9.71-9.71v-3.73A9.71,9.71,0,0,1,480.63,246.48Z" transform="translate(277.27 -249.17) rotate(39.83)"/></g><rect class="cls-11" x="497.2" y="230.2" width="9.51" height="35.13" transform="translate(275.19 -264.02) rotate(39.83)"/><path class="cls-11" d="M511.13,212.3h3.73a9.71,9.71,0,0,1,9.71,9.71v13.44a0,0,0,0,1,0,0H511.13a9.71,9.71,0,0,1-9.71-9.71V222A9.71,9.71,0,0,1,511.13,212.3Z" transform="translate(262.46 -276.64) rotate(39.83)"/><path class="cls-11" d="M482.63,246.48h13.44a0,0,0,0,1,0,0v13.44a9.71,9.71,0,0,1-9.71,9.71h-3.73a9.71,9.71,0,0,1-9.71-9.71v-3.73a9.71,9.71,0,0,1,9.71-9.71Z" transform="translate(277.73 -250.45) rotate(39.83)"/><rect class="cls-32" x="150.86" y="394.87" width="468.94" height="37.27" rx="14.52" ry="14.52"/><path id="_Path_68" data-name="&lt;Path&gt;" class="cls-5" d="M518.19,356.26h0c6.45-.57,11.32-5.13,10.88-10.17l-7.92-78.39c-.45-5-6-8.66-12.5-8.09h0c-6.45.57-11.32,5.13-10.88,10.17l7.92,78.39C506.14,353.21,511.74,356.84,518.19,356.26Z"/><path id="_Path_69" data-name="&lt;Path&gt;" class="cls-6" d="M520.54,263.2l7.83-18s-2.27-14.91-5.5-19.73c-3.76-5.61-11.9-9-13.45-9.55-4.15-1.42.52,20.4.52,20.4L503,254.55Z"/><rect id="_Rectangle_8" data-name="&lt;Rectangle&gt;" class="cls-4" x="495.02" y="255.2" width="30.32" height="16" transform="translate(18.98 -33.91) rotate(3.88)"/><path class="cls-2" d="M458.66,359.63h77.49a13.5,13.5,0,0,1,13.5,13.5v41.4a0,0,0,0,1,0,0H445.16a0,0,0,0,1,0,0v-41.4A13.5,13.5,0,0,1,458.66,359.63Z"/><path class="cls-11" d="M456.66,361.63h77.49a13.5,13.5,0,0,1,13.5,13.5v41.4a0,0,0,0,1,0,0H443.16a0,0,0,0,1,0,0v-41.4A13.5,13.5,0,0,1,456.66,361.63Z"/><circle class="cls-2" cx="497.4" cy="388.63" r="21.69"/><circle class="cls-33" cx="495.4" cy="390.63" r="21.69"/><circle class="cls-34" cx="495.4" cy="374.61" r="3.62"/><circle class="cls-34" cx="487.4" cy="376.76" r="3.62" transform="translate(-123.08 294.17) rotate(-30)"/><circle class="cls-34" cx="481.53" cy="382.62" r="3.62" transform="translate(-90.59 608.33) rotate(-60)"/><circle class="cls-34" cx="479.39" cy="390.63" r="3.62"/><circle class="cls-34" cx="481.53" cy="398.63" r="3.62" transform="translate(-134.8 294.17) rotate(-30)"/><circle class="cls-34" cx="487.4" cy="404.49" r="3.62" transform="translate(-106.6 624.34) rotate(-60)"/><circle class="cls-34" cx="495.4" cy="406.64" r="3.62"/><circle class="cls-34" cx="503.41" cy="404.49" r="3.62" transform="translate(-134.8 305.9) rotate(-30)"/><circle class="cls-34" cx="509.27" cy="398.63" r="3.62" transform="translate(-90.59 640.36) rotate(-60)"/><circle class="cls-34" cx="511.41" cy="390.63" r="3.62"/><circle class="cls-34" cx="509.27" cy="382.62" r="3.62" transform="translate(-123.08 305.9) rotate(-30)"/><circle class="cls-34" cx="503.41" cy="376.76" r="3.62" transform="translate(-74.58 624.34) rotate(-60)"/><ellipse class="cls-28" cx="446.5" cy="249" rx="6.29" ry="4.09"/><path class="cls-35" d="M477.12,263.2c-20,15.94-1.32,31.94-5.15,60.94s-32.82,16.75-47.33,51.62-.48,40.27,20.52,38.76"/><rect class="cls-36" x="179.74" y="405.67" width="68.2" height="7.29" transform="translate(427.68 818.62) rotate(-180)"/><rect class="cls-36" x="209.47" y="313.02" width="7.28" height="95.3" transform="translate(426.22 721.33) rotate(-180)"/><rect class="cls-19" x="155.03" y="317.72" width="125.91" height="15" rx="2.23" ry="2.23" transform="translate(45.33 676.62) rotate(-120)"/><rect class="cls-36" x="157.03" y="317.72" width="125.91" height="15" rx="2.23" ry="2.23" transform="translate(48.33 678.35) rotate(-120)"/><g class="cls-2"><path d="M606.23,385.71H512c1.71-.78,2.94-3.1,2.94-5.83,0-3.37-1.89-6.1-4.22-6.1H607.5c-2.33,0-4.22,2.74-4.22,6.1C603.28,382.61,604.52,384.93,606.23,385.71Z"/><path d="M609.3,373.78a1.8,1.8,0,0,1-1.8,1.8H510.73a1.8,1.8,0,0,1-1.8-1.8h0a1.8,1.8,0,0,1,1.8-1.8H607.5a1.81,1.81,0,0,1,1.8,1.8Z"/><path d="M609.3,385.71a1.8,1.8,0,0,1-1.8,1.8H510.73a1.8,1.8,0,0,1-1.8-1.8h0a1.8,1.8,0,0,1,1.8-1.8H607.5a1.8,1.8,0,0,1,1.8,1.8Z"/><path d="M590.64,358.14H508c1.5-.68,2.58-2.72,2.58-5.11,0-2.95-1.66-5.35-3.7-5.35h84.88c-2,0-3.7,2.4-3.7,5.35C588.05,355.43,589.14,357.46,590.64,358.14Z"/><path d="M593.33,347.68a1.58,1.58,0,0,1-1.58,1.58H506.87a1.58,1.58,0,0,1-1.58-1.58h0a1.58,1.58,0,0,1,1.58-1.58h84.88a1.58,1.58,0,0,1,1.58,1.58Z"/><path d="M593.33,358.14a1.58,1.58,0,0,1-1.58,1.58H506.87a1.58,1.58,0,0,1-1.58-1.58h0a1.58,1.58,0,0,1,1.58-1.58h84.88a1.58,1.58,0,0,1,1.58,1.58Z"/><rect x="497.43" y="358.86" width="110.7" height="13.14" rx="2.33" ry="2.33"/></g><g class="cls-2"><path d="M495.76,419.16H605.33c-2-.91-3.42-3.6-3.42-6.78,0-3.91,2.19-7.1,4.9-7.1H494.28c2.71,0,4.9,3.18,4.9,7.1C499.19,415.56,497.75,418.25,495.76,419.16Z"/><path d="M492.19,405.29a2.1,2.1,0,0,0,2.1,2.09H606.81a2.1,2.1,0,0,0,2.1-2.09h0a2.1,2.1,0,0,0-2.1-2.1H494.28a2.1,2.1,0,0,0-2.1,2.1Z"/><path d="M492.19,419.15a2.1,2.1,0,0,0,2.1,2.1H606.81a2.1,2.1,0,0,0,2.1-2.1h0a2.1,2.1,0,0,0-2.1-2.09H494.28a2.1,2.1,0,0,0-2.1,2.09Z"/><path d="M502.75,399.94H586.2c-1.51-.69-2.61-2.74-2.61-5.16,0-3,1.67-5.41,3.73-5.41h-85.7c2.06,0,3.73,2.43,3.73,5.41C505.36,397.19,504.27,399.25,502.75,399.94Z"/><path d="M500,389.37a1.6,1.6,0,0,0,1.6,1.6h85.7a1.6,1.6,0,0,0,1.6-1.6h0a1.6,1.6,0,0,0-1.6-1.6h-85.7a1.6,1.6,0,0,0-1.6,1.6Z"/><path d="M500,399.93a1.6,1.6,0,0,0,1.6,1.6h85.7a1.59,1.59,0,0,0,1.6-1.6h0a1.6,1.6,0,0,0-1.6-1.6h-85.7a1.6,1.6,0,0,0-1.6,1.6Z"/><rect x="522.82" y="400.09" width="98.06" height="3.68" rx="0.71" ry="0.71"/></g><rect class="cls-36" x="258.79" y="393.62" width="77.28" height="4.91" transform="translate(594.86 792.15) rotate(-180)"/><rect class="cls-36" x="316.69" y="391.61" width="6.12" height="2.5" transform="translate(639.51 785.72) rotate(-180)"/><rect class="cls-36" x="306.69" y="391.61" width="6.12" height="2.5" transform="translate(619.5 785.72) rotate(-180)"/><rect class="cls-36" x="297.36" y="391.61" width="6.12" height="2.5" transform="translate(600.84 785.72) rotate(-180)"/><rect class="cls-36" x="287.45" y="391.61" width="6.12" height="2.5" transform="translate(581.02 785.72) rotate(-180)"/><rect class="cls-36" x="277.64" y="391.61" width="6.12" height="2.5" transform="translate(561.4 785.72) rotate(-180)"/><rect class="cls-36" x="267.05" y="391.61" width="6.12" height="2.5" transform="translate(540.22 785.72) rotate(-180)"/><path class="cls-37" d="M610.23,385.71H516c1.71-.78,2.94-3.1,2.94-5.83,0-3.37-1.89-6.1-4.22-6.1H611.5c-2.33,0-4.22,2.74-4.22,6.1C607.28,382.61,608.52,384.93,610.23,385.71Z"/><path class="cls-38" d="M613.3,373.78a1.8,1.8,0,0,1-1.8,1.8H514.73a1.8,1.8,0,0,1-1.8-1.8h0a1.8,1.8,0,0,1,1.8-1.8H611.5a1.81,1.81,0,0,1,1.8,1.8Z"/><path class="cls-38" d="M613.3,385.71a1.8,1.8,0,0,1-1.8,1.8H514.73a1.8,1.8,0,0,1-1.8-1.8h0a1.8,1.8,0,0,1,1.8-1.8H611.5a1.8,1.8,0,0,1,1.8,1.8Z"/><path class="cls-37" d="M594.64,358.14H512c1.5-.68,2.58-2.72,2.58-5.11,0-2.95-1.66-5.35-3.7-5.35h84.88c-2,0-3.7,2.4-3.7,5.35C592.05,355.43,593.14,357.46,594.64,358.14Z"/><path class="cls-12" d="M597.33,347.68a1.58,1.58,0,0,1-1.58,1.58H510.87a1.58,1.58,0,0,1-1.58-1.58h0a1.58,1.58,0,0,1,1.58-1.58h84.88a1.58,1.58,0,0,1,1.58,1.58Z"/><path class="cls-12" d="M597.33,358.14a1.58,1.58,0,0,1-1.58,1.58H510.87a1.58,1.58,0,0,1-1.58-1.58h0a1.58,1.58,0,0,1,1.58-1.58h84.88a1.58,1.58,0,0,1,1.58,1.58Z"/><rect class="cls-39" x="501.43" y="358.86" width="110.7" height="13.14" rx="2.33" ry="2.33"/><path class="cls-40" d="M391.1,380.5c-2.19-3-6.36-4.18-11.05-3.18l1.15,4.21c2.86-.56,5.26,0,6.39,1.54s.64,3.94.18,5.14a15.28,15.28,0,0,1-5.3,6.54l-1.2.88a22.87,22.87,0,0,1-3.68,7.61,21.14,21.14,0,0,0,3.42-2l4-2.94a19.36,19.36,0,0,0,6.8-8.5C393.16,386.25,392.9,383,391.1,380.5Z"/><path class="cls-40" d="M381.56,377.26v35.51a5.44,5.44,0,0,1-5.44,5.44h-20a5.43,5.43,0,0,1-5.44-5.44V377.26a5.44,5.44,0,0,1,5.44-5.44h20A5.44,5.44,0,0,1,381.56,377.26Z"/><path class="cls-41" d="M367.37,382.27v35.94H356.12a5.43,5.43,0,0,1-5.44-5.44V377.88a5.25,5.25,0,0,1,3.2-1.06h8.05A5.44,5.44,0,0,1,367.37,382.27Z"/><path class="cls-15" d="M146.09,310.91a19.33,19.33,0,1,1-19.33,19.33,19.34,19.34,0,0,1,19.33-19.33Z"/><line class="cls-16" x1="146.09" y1="329.35" x2="146.09" y2="342.19"/><line class="cls-16" x1="141.14" y1="329.35" x2="151.04" y2="329.35"/><line class="cls-16" x1="141.14" y1="342.19" x2="151.04" y2="342.19"/><circle class="cls-17" cx="146.22" cy="321.28" r="2.99"/><line class="cls-16" x1="318.68" y1="103.16" x2="318.68" y2="125.72"/><line class="cls-16" x1="309.99" y1="103.16" x2="327.38" y2="103.16"/><line class="cls-16" x1="309.99" y1="125.72" x2="327.38" y2="125.72"/><circle class="cls-17" cx="318.91" cy="88.99" r="5.25"/><path class="cls-19" d="M140.76,232.56l-4.34-1.22A9.61,9.61,0,0,0,124.6,238L106,304.15l-2.38-.83-5.41,15.62,5,1.72-5.72,15.11s3.07,15.28,6.65,20.09c4.16,5.6,19.23.74,20.86,1.22,4.35,1.26-8.05-13.06-8.05-13.06l5.45-16.71,5.44,1.88,5.41-15.62-4.81-1.67,19-67.53A9.61,9.61,0,0,0,140.76,232.56Z"/><path id="_Rectangle_9" data-name="&lt;Rectangle&gt;" class="cls-7" d="M121.27,230.33h4.5a9.58,9.58,0,0,1,9.58,9.58v79.66a6.78,6.78,0,0,1-6.78,6.78H118.46a6.78,6.78,0,0,1-6.78-6.78V239.91A9.58,9.58,0,0,1,121.27,230.33Z" transform="translate(96.73 -25) rotate(18.88)"/><path id="_Path_70" data-name="&lt;Path&gt;" class="cls-6" d="M100.47,315.71,92.23,334.3s2.22,15.43,5.52,20.43c3.84,5.82,19.16,1.81,20.76,2.37,4.28,1.5-7.31-13.49-7.31-13.49l7.31-18.81Z"/><rect id="_Rectangle_10" data-name="&lt;Rectangle&gt;" class="cls-4" x="95.87" y="307.56" width="31.33" height="16.53" transform="translate(94.97 650.36) rotate(-157.71)"/><path class="cls-37" d="M499.76,419.16H609.33c-2-.91-3.42-3.6-3.42-6.78,0-3.91,2.19-7.1,4.9-7.1H498.28c2.71,0,4.9,3.18,4.9,7.1C503.19,415.56,501.75,418.25,499.76,419.16Z"/><path class="cls-42" d="M496.19,405.29a2.1,2.1,0,0,0,2.1,2.09H610.81a2.1,2.1,0,0,0,2.1-2.09h0a2.1,2.1,0,0,0-2.1-2.1H498.28a2.1,2.1,0,0,0-2.1,2.1Z"/><path class="cls-42" d="M496.19,419.15a2.1,2.1,0,0,0,2.1,2.1H610.81a2.1,2.1,0,0,0,2.1-2.1h0a2.1,2.1,0,0,0-2.1-2.09H498.28a2.1,2.1,0,0,0-2.1,2.09Z"/><path class="cls-37" d="M506.76,399.94H590.2c-1.51-.69-2.61-2.74-2.61-5.16,0-3,1.67-5.41,3.73-5.41h-85.7c2.06,0,3.73,2.43,3.73,5.41C509.36,397.19,508.27,399.25,506.76,399.94Z"/><path class="cls-43" d="M504,389.37a1.6,1.6,0,0,0,1.6,1.6h85.7a1.6,1.6,0,0,0,1.6-1.6h0a1.6,1.6,0,0,0-1.6-1.6h-85.7a1.6,1.6,0,0,0-1.6,1.6Z"/><path class="cls-43" d="M504,399.93a1.6,1.6,0,0,0,1.6,1.6h85.7a1.59,1.59,0,0,0,1.6-1.6h0a1.6,1.6,0,0,0-1.6-1.6h-85.7a1.6,1.6,0,0,0-1.6,1.6Z"/><rect class="cls-12" x="526.82" y="400.09" width="98.06" height="3.68" rx="0.71" ry="0.71"/></svg>