<svg id="Layer_1" data-name="Layer 1" xmlns="http://www.w3.org/2000/svg" viewBox="0 0 708.66 481.89"><defs><style>.cls-1{fill:#ee4256;}.cls-1,.cls-13,.cls-15{fill-rule:evenodd;}.cls-2{opacity:0.05;}.cls-18,.cls-21,.cls-3{fill:#191919;}.cls-13,.cls-4{fill:#f8ab8d;}.cls-5{fill:#4d4e4e;}.cls-6{fill:#474642;}.cls-7{fill:#37614d;}.cls-8{fill:#4c836a;}.cls-9{fill:#fff;}.cls-10,.cls-15{fill:#dc846a;}.cls-11{fill:#354546;}.cls-12{fill:#455556;}.cls-14{fill:#8b6339;}.cls-16{fill:#b97d4f;}.cls-17{fill:#9d6944;}.cls-18{opacity:0.18;}.cls-19{fill:#e7685d;}.cls-20,.cls-26,.cls-29{fill:none;stroke-linecap:round;stroke-linejoin:round;}.cls-20{stroke:#d3d3d3;stroke-width:2.18px;}.cls-21{opacity:0.07;}.cls-22{fill:#a582a2;}.cls-23{fill:#e2aa49;}.cls-24{fill:#846a83;}.cls-25{fill:#979797;}.cls-26{stroke:#dc846a;}.cls-26,.cls-29{stroke-width:2px;}.cls-27{fill:#e5e5e4;}.cls-28{fill:#504e5c;}.cls-29{stroke:#545354;}.cls-30{fill:#d3d3d3;}</style></defs><title>CS-L2-U2</title><path class="cls-1" d="M137.44,390.55c0-119.78,97.11-216.89,216.89-216.89s216.89,97.11,216.89,216.89"/><g class="cls-2"><path class="cls-3" d="M356.29,162.89c.07-4.43-3-9.32-3.68-10.19-.94-1.28-3.07,2.24-4.8,5.66l0,0-.44,1c-.39.8-.74,1.56-1.05,2.23a4,4,0,0,0-3.35-2.17,96.23,96.23,0,0,1-5.56,9.91l-1.5,1a6.34,6.34,0,0,0-1.17.75l-35,28.58-16.05-27.57,1.39-.8L274.39,153a8,8,0,0,0-11-2.91c-.21.12-.41.25-.6.39a15.11,15.11,0,0,0-5.79,1l-11.19,4.32c0-.09-.05-.17-.08-.26l-2-5.22c7.84-2.32,14.05-8.84,18.5-16a5.11,5.11,0,0,0,4.65-3.4,2.33,2.33,0,0,0,2.53-1.57l3.65-11a2.34,2.34,0,0,0-1.08-2.78v0a5.11,5.11,0,0,0-.73-4.64,9.36,9.36,0,0,0,4.41-1.81,6.69,6.69,0,0,0,2.64-3.79l-5.88-2.05a12.62,12.62,0,0,0,4.8-4l0,0a21.78,21.78,0,0,0,3.36-5.46c.15-.31.22-.48.22-.48h0l-7.76-2.71-1.22-7.92.12-.11c0-.24-.1-.46-.15-.7l0,0a24.61,24.61,0,0,0-4.74-10.72H267a25.55,25.55,0,0,0-24.34-9.94l-10.3,1.59A25.56,25.56,0,0,0,211,92l.09.59s0,.1,0,.15l.68,4.44-26.29,4a.8.8,0,0,0-.67.92l.11.71s0,0,0,0l.09.57a.8.8,0,0,0,.92.67L209,101.17a2.31,2.31,0,0,0-.52,1.12l-1.85,11.4a2.33,2.33,0,0,0,1.52,2.57,5.11,5.11,0,0,0,4,5.72c1,12.89,7.24,23.82,20.92,28.53l3.35,8.68c0,.09.07.16.11.25l-16.85,6.5a14.69,14.69,0,0,0-7,5.61L201,182l1.19,1.35-28.23,25.08a6.3,6.3,0,0,0-1.8,2.74l0,.06c-.05.17-.1.34-.14.51l0,.16c0,.14-.05.29-.07.43s0,.14,0,.21,0,.26,0,.38,0,.16,0,.24,0,.24,0,.36,0,.17,0,.25,0,.24,0,.36,0,.17,0,.25,0,.23.08.34l.07.26c0,.1.06.21.1.31l.12.3.11.25c.06.12.12.24.19.36l.09.16c.09.15.18.3.28.44l0,.06a6.29,6.29,0,0,0,1.84,1.7l0,0,.14.09,51.09,29.18a6.37,6.37,0,0,0,1.16.52l3.3,1.62,0,.06,6.64,3.26h.14l.21,0,13.14,34.08,7.08-2.73,1.87,5.12c0,.18-.1.36-.13.55l-12.38,64.07-20.24,30.91a.06.06,0,0,0,0,.08l3.32,2.17L214,410.09l-.16-.11-8.64,12.4h0l-.93,1.33a2,2,0,0,0-2-.37,11.16,11.16,0,0,0-2.66,1.51,27,27,0,0,0-6.58,8.06c-.48.83-.87,1.6-1.19,2.23a2.3,2.3,0,0,0,.74,2.92l32.6,22.72a5,5,0,0,0,5.34.25l.09-.05a5.25,5.25,0,0,0,1.61-1.41l.12-.17a5.27,5.27,0,0,0,.95-3.14,2.29,2.29,0,0,0-.1-.64,2.41,2.41,0,0,0-.69-1.1l-4.65-4.24a15.44,15.44,0,0,1-3.63-5l-1.37-3a7.61,7.61,0,0,0,1.21-1.12,1.29,1.29,0,0,0-2-1.64,4.41,4.41,0,0,1-.33.34l-1.07-2.33a7.33,7.33,0,0,0,1-.93,1.29,1.29,0,0,0-2-1.64l-.11.12-.82-1.77a8.89,8.89,0,0,0,1.12-1.57c1.88-3.3,1.53-4.52.32-4.52l22.59-31.55,2.45,1.6L265.77,366a102.08,102.08,0,0,0,2.85-7l11.68-60.42,14.61-5.5v87.16H298v46.14a2.26,2.26,0,0,0-.87.7,11.16,11.16,0,0,0-1.32,2.76,27,27,0,0,0-.79,10.38c.08,1,.2,1.81.3,2.51a2.3,2.3,0,0,0,2.28,2h39.74a5,5,0,0,0,4.53-2.85l0-.1a5.25,5.25,0,0,0,.51-2.08c0-.07,0-.14,0-.2a5.28,5.28,0,0,0-1-3.12,2.28,2.28,0,0,0-.45-.47,2.41,2.41,0,0,0-1.2-.51l-6.24-.82a15.45,15.45,0,0,1-5.8-2l-2.82-1.65a7.61,7.61,0,0,0,.35-1.61,1.29,1.29,0,0,0-2.57-.21,4.51,4.51,0,0,1-.08.47l-2.21-1.29a7.33,7.33,0,0,0,.26-1.31,1.29,1.29,0,0,0-2.57-.21s0,.07,0,.16l-1.69-1a8.89,8.89,0,0,0,0-1.93c-.46-5.1-2.1-4.78-3.34-2.69V380.19h3.82V281.8a11,11,0,0,0-.32-2.59,10,10,0,0,0-.56-4.83l-3.92-10.76,3.92-1.51-17.45-45.25,42.28-34.48h0l11-6.8,0,0h0s2.5-5.3,3.5-7.69l-.19-.24A17.42,17.42,0,0,0,356.29,162.89ZM211.57,194l2.32-2.06,17,44L188.94,212l21.58-19.17Z"/><path class="cls-3" d="M302.1,101.27a3,3,0,0,0,3.36-2.62s0,0,0,0h0l1.63-13.23,9,1.11L314.92,96a3,3,0,1,0,1.11,3h0l1.8-14.58h0l.17-1.4-11.95-1.47-.3,2.4h0l-.12,1,0,.38h0L304.3,95.9a3,3,0,1,0-2.2,5.37Z"/><path class="cls-3" d="M320.16,74.45a2.13,2.13,0,0,0,2.83-1v0h0l4-8.54,5.8,2.71-2.85,6.1a2.11,2.11,0,0,0-.85-.73,2.13,2.13,0,1,0,1,3h0l.06-.14h0l4.32-9.27h0l.42-.9L327.16,62l-1,2.14-3.35,7.18a2.13,2.13,0,1,0-2.65,3.13Z"/><path class="cls-3" d="M331.93,102.12l1.38,1.38,5.89,5.9a2.12,2.12,0,1,0,2,.55h0l-6.65-6.67,4.53-4.52,4.75,4.77a2.13,2.13,0,1,0,2.13.67h0l-7.33-7.35h0l-.7-.71Z"/></g><rect id="_Rectangle_" data-name="&lt;Rectangle&gt;" class="cls-4" x="292.53" y="339.91" width="15.05" height="94.48" rx="7.52" ry="7.52" transform="translate(600.1 774.3) rotate(-180)"/><rect id="_Rectangle_2" data-name="&lt;Rectangle&gt;" class="cls-5" x="292.53" y="415.77" width="15.05" height="20.7" transform="translate(600.1 852.25) rotate(-180)"/><rect id="_Rectangle_3" data-name="&lt;Rectangle&gt;" class="cls-4" x="292.53" y="283.31" width="15.05" height="71.65" rx="7.52" ry="7.52" transform="translate(600.1 638.28) rotate(-180)"/><path id="_Rectangle_4" data-name="&lt;Rectangle&gt;" class="cls-6" d="M289.38,270h22a0,0,0,0,1,0,0v98.38a11,11,0,0,1-11,11h0a11,11,0,0,1-11-11V270a0,0,0,0,1,0,0Z" transform="translate(600.78 649.41) rotate(180)"/><g id="_Group_" data-name="&lt;Group&gt;"><path id="_Path_" data-name="&lt;Path&gt;" class="cls-7" d="M306.12,425.32c-.21,2.26,3,1.78,3.74,1.53,1.42-.45,1.05-3.7,1.05-3.7C310.18,415,306.44,420.68,306.12,425.32Z"/><path id="_Path_2" data-name="&lt;Path&gt;" class="cls-8" d="M293.52,435.06a5.76,5.76,0,0,0,2.87,5h25.35l2.67-3.67s4.81.1,7.63,0,3.46-1.32,3.46-1.32a2.41,2.41,0,0,0-1.2-.51l-6.24-.82a15.45,15.45,0,0,1-5.8-2l-12.49-7.3a3.17,3.17,0,0,0-2.29,0c-.78.25-1.39.64-2.51,2.17-1.36,2.49-7.52,2.65-9.68.07s-3.62-.42-3.62-.42a11.16,11.16,0,0,0-1.32,2.76C292.57,428.91,293.61,431.67,293.52,435.06Z"/><path id="_Path_3" data-name="&lt;Path&gt;" class="cls-5" d="M289.54,439.38c.08,1,.2,1.81.3,2.51a2.3,2.3,0,0,0,2.28,2h39.74a5,5,0,0,0,4.53-2.85l0-.1a5.25,5.25,0,0,0,.51-2.08l-.45.19a12.71,12.71,0,0,1-5,1H293.19a10,10,0,0,1-2.81-.41Z"/><path id="_Path_4" data-name="&lt;Path&gt;" class="cls-7" d="M289.54,439.38l.84.25a10,10,0,0,0,2.81.41h3.2a5.76,5.76,0,0,1-2.87-5c.08-3.39-1-6.15-3.19-6.06A27,27,0,0,0,289.54,439.38Z"/><path id="_Path_5" data-name="&lt;Path&gt;" class="cls-7" d="M321.74,440h9.8a12.71,12.71,0,0,0,5-1l.45-.19c0-.07,0-.14,0-.2a5.27,5.27,0,0,0-1-3.12,2.28,2.28,0,0,0-.45-.47s-.64,1.21-3.46,1.32-7.63,0-7.63,0Z"/><path id="_Path_6" data-name="&lt;Path&gt;" class="cls-9" d="M311,431.7a1.29,1.29,0,0,0,.5-.1c3.36-1.41,3.7-5.31,3.71-5.48a1.29,1.29,0,0,0-2.57-.21c0,.06-.26,2.52-2.14,3.31a1.29,1.29,0,0,0,.5,2.48Z"/><path id="_Path_7" data-name="&lt;Path&gt;" class="cls-9" d="M315.56,434a1.29,1.29,0,0,0,.5-.1c3.36-1.41,3.7-5.31,3.71-5.48a1.29,1.29,0,0,0-2.57-.21c0,.06-.26,2.52-2.14,3.31a1.29,1.29,0,0,0,.5,2.48Z"/></g><path id="_Path_8" data-name="&lt;Path&gt;" class="cls-6" d="M266.84,280.74h0a11,11,0,0,1,8.73,12.88L263.1,358.16a11,11,0,0,1-12.88,8.73h0A11,11,0,0,1,241.48,354L254,289.47A11,11,0,0,1,266.84,280.74Z"/><path id="_Path_9" data-name="&lt;Path&gt;" class="cls-4" d="M238.7,379.86h0a7.52,7.52,0,0,1,1.87,10.47L212,430.19a7.52,7.52,0,0,1-10.47,1.87h0a7.52,7.52,0,0,1-1.87-10.47l28.54-39.85A7.52,7.52,0,0,1,238.7,379.86Z"/><rect id="_Rectangle_5" data-name="&lt;Rectangle&gt;" class="cls-5" x="201.06" y="411.63" width="15.05" height="20.7" transform="translate(138.48 887.45) rotate(-145.13)"/><g id="_Group_2" data-name="&lt;Group&gt;"><path id="_Path_10" data-name="&lt;Path&gt;" class="cls-7" d="M209.19,430.06c-1.46,1.74,1.42,3.16,2.2,3.4,1.42.44,3-2.43,3-2.43C218.41,423.92,212.1,426.44,209.19,430.06Z"/><path id="_Path_11" data-name="&lt;Path&gt;" class="cls-8" d="M193.28,430.85a5.76,5.76,0,0,0-.49,5.72l20.8,14.49,4.29-1.49s3.89,2.83,6.26,4.36,3.59.9,3.59.9a2.41,2.41,0,0,0-.69-1.1l-4.65-4.24a15.45,15.45,0,0,1-3.63-5l-6.07-13.13a3.17,3.17,0,0,0-1.88-1.31c-.78-.24-1.5-.27-3.3.35-2.54,1.27-7.68-2.13-8-5.47s-2.73-2.41-2.73-2.41a11.16,11.16,0,0,0-2.66,1.51C196,425.26,195.29,428.12,193.28,430.85Z"/><path id="_Path_12" data-name="&lt;Path&gt;" class="cls-5" d="M187.55,432.12c-.48.83-.87,1.6-1.19,2.23a2.3,2.3,0,0,0,.74,2.92L219.71,460a5,5,0,0,0,5.34.25l.09-.05a5.25,5.25,0,0,0,1.61-1.41l-.48-.1a12.71,12.71,0,0,1-4.64-2l-31.46-21.92a10,10,0,0,1-2.07-1.94Z"/><path id="_Path_13" data-name="&lt;Path&gt;" class="cls-7" d="M187.55,432.12l.55.68a10,10,0,0,0,2.07,1.94l2.62,1.83a5.76,5.76,0,0,1,.49-5.72c2-2.73,2.73-5.59.85-6.79A27,27,0,0,0,187.55,432.12Z"/><path id="_Path_14" data-name="&lt;Path&gt;" class="cls-7" d="M213.59,451.06l8,5.6a12.71,12.71,0,0,0,4.64,2l.48.1.12-.17a5.27,5.27,0,0,0,.95-3.14,2.28,2.28,0,0,0-.1-.64s-1.21.63-3.59-.9-6.26-4.36-6.26-4.36Z"/><path id="_Path_15" data-name="&lt;Path&gt;" class="cls-9" d="M209.51,438.06a1.29,1.29,0,0,0,.47.2c3.56.76,6.07-2.24,6.18-2.37a1.29,1.29,0,0,0-2-1.64s-1.65,1.92-3.65,1.49a1.29,1.29,0,0,0-1,2.32Z"/><path id="_Path_16" data-name="&lt;Path&gt;" class="cls-9" d="M211.95,442.62a1.29,1.29,0,0,0,.47.2c3.56.76,6.07-2.24,6.18-2.37a1.29,1.29,0,0,0-2-1.64s-1.65,1.92-3.65,1.49a1.29,1.29,0,0,0-1,2.32Z"/></g><path id="_Path_17" data-name="&lt;Path&gt;" class="cls-6" d="M257.06,350h0a11,11,0,0,1,3.18,15.24l-20.53,31.35-18.37-12a.06.06,0,0,1,0-.08l20.49-31.3A11,11,0,0,1,257.06,350Z"/><rect class="cls-4" x="247.58" y="339.51" width="14.54" height="4.93" rx="2.12" ry="2.12" transform="translate(440.57 725.91) rotate(-169.12)"/><rect class="cls-4" x="293.33" y="351.38" width="13.77" height="3.35" rx="1.68" ry="1.68" transform="translate(600.42 706.11) rotate(180)"/><path id="_Path_18" data-name="&lt;Path&gt;" class="cls-4" d="M338.08,171.16h0a6.33,6.33,0,0,1-.89,8.92l-45.59,37.19a6.33,6.33,0,0,1-8.9-.89h0a6.33,6.33,0,0,1,.89-8.92l45.59-37.19A6.33,6.33,0,0,1,338.08,171.16Z"/><path id="_Path_19" data-name="&lt;Path&gt;" class="cls-10" d="M331.4,169.2a108.28,108.28,0,0,0,6-10.62c5.14.44,4.14,7.56,4.14,7.56Z"/><path id="_Path_20" data-name="&lt;Path&gt;" class="cls-4" d="M335.36,181.6l11-6.8s4.36-8.89,4.42-12.7c.07-4.43-3-9.32-3.68-10.19-1.71-2.32-7.36,11.2-7.36,11.2l-10.58,7.25Z"/><path class="cls-6" d="M346.37,174.75s2.5-5.3,3.5-7.69l-7.61-9.52-2.5,5.52-10.58,7.25,1.08,2,6.65,8.32Z"/><path id="_Path_21" data-name="&lt;Path&gt;" class="cls-4" d="M294.74,212.51h0a6.33,6.33,0,0,0,2.3-8.67L267.45,153a6.33,6.33,0,0,0-8.65-2.3h0a6.33,6.33,0,0,0-2.3,8.67l29.6,50.84A6.33,6.33,0,0,0,294.74,212.51Z"/><path id="_Path_22" data-name="&lt;Path&gt;" class="cls-8" d="M279.48,170.48l-10.61-18.23a8,8,0,0,0-11-2.91h0a8,8,0,0,0-2.92,11l10.56,18.14Z"/><path id="_Path_23" data-name="&lt;Path&gt;" class="cls-6" d="M249.57,276.54,304.11,256l6.41,17.58a10,10,0,0,1-5.84,12.9L268.87,300a10,10,0,0,1-12.9-5.84Z"/><path id="_Rectangle_6" data-name="&lt;Rectangle&gt;" class="cls-8" d="M220.41,153.68h70.07a0,0,0,0,1,0,0V259.37a18.72,18.72,0,0,1-18.72,18.72h-32a19.34,19.34,0,0,1-19.34-19.34V153.68a0,0,0,0,1,0,0Z" transform="translate(571.47 325.39) rotate(158.91)"/><path id="_Path_24" data-name="&lt;Path&gt;" class="cls-4" d="M167.87,216.52h0a6.33,6.33,0,0,0,9,.54l44-39.07a6.33,6.33,0,0,0,.54-8.93h0a6.33,6.33,0,0,0-9-.54l-44,39.07A6.33,6.33,0,0,0,167.87,216.52Z"/><path id="_Path_25" data-name="&lt;Path&gt;" class="cls-8" d="M206,193.25l15.77-14a8,8,0,0,0,.68-11.33h0a8,8,0,0,0-11.36-.69l-15.7,13.94Z"/><path id="_Path_26" data-name="&lt;Path&gt;" class="cls-4" d="M229.88,141.35l-.17.06a5,5,0,0,1,6.54,3l4,10.34c1,2.67-.65,4.27-3.32,5.3l.08,0c-2.67,1-5.07,1-6.1-1.67l-4-10.34A5.18,5.18,0,0,1,229.88,141.35Z"/><path id="_Path_27" data-name="&lt;Path&gt;" class="cls-10" d="M229.3,237.43a106.5,106.5,0,0,0,12-.54c2.32,4.51-4.14,7.4-4.14,7.4Z"/><path id="_Path_28" data-name="&lt;Path&gt;" class="cls-4" d="M220.38,246.88l11.4,5.6s9.69-1,12.89-2.95c3.73-2.25,6.18-7.4,6.57-8.39,1-2.63-13.18-.28-13.18-.28l-11.57-5Z"/><path id="_Path_29" data-name="&lt;Path&gt;" class="cls-4" d="M229.2,244.68h0a6.33,6.33,0,0,0-2.35-8.66l-51.09-29.18a6.33,6.33,0,0,0-8.63,2.34h0a6.33,6.33,0,0,0,2.35,8.66L220.56,247A6.33,6.33,0,0,0,229.2,244.68Z"/><path class="cls-6" d="M237.93,240.86s4.09-.68,7.72-.9L243,250.24c-4,1.47-11.35,2.24-11.35,2.24L225,249.22l3.25-12.56Z"/><path class="cls-9" d="M271.7,203.28l4.25,11a6.22,6.22,0,0,1-1.42,6.66l-1.25-3.24-2.74,1.06,1.44,3.73-3.9,1.5-1.44-3.73-2.74,1.06,1.44,3.73L261,226.74l-.2.07-1.43-3.72-2.74,1.06,1.13,2.92a6.22,6.22,0,0,1-4.8-3.9l-4.25-11Z"/><circle class="cls-9" cx="257.38" cy="200.37" r="20.35" transform="matrix(0.93, -0.36, 0.36, 0.93, -54.86, 106.04)"/><circle class="cls-6" cx="266.58" cy="198.62" r="6.19" transform="translate(-53.62 109.23) rotate(-21.09)"/><circle class="cls-6" cx="249.39" cy="205.25" r="6.19" transform="translate(-57.15 103.49) rotate(-21.09)"/><path class="cls-6" d="M261.25,210.4,260,213a2.88,2.88,0,1,1,3.92-1.46Z"/><path class="cls-11" d="M264.54,109h0a21.79,21.79,0,0,1-1.11,6.13,2.33,2.33,0,0,1-4.42-1.47,17,17,0,0,0,.55-2.11c.22-1.05,0-2.16.34-3.17"/><path class="cls-12" d="M251.7,126.9a5.11,5.11,0,0,0,3.24,6.47h0a5.11,5.11,0,0,0,6.47-3.24l5.08-15.26a5.12,5.12,0,0,0-3.24-6.47h0a5.11,5.11,0,0,0-6.47,3.24Z"/><path class="cls-11" d="M259.46,127.16a2.34,2.34,0,0,0,1.48,3h0a2.34,2.34,0,0,0,3-1.48l3.65-11a2.34,2.34,0,0,0-1.48-3h0a2.34,2.34,0,0,0-3,1.48Z"/><path id="_Path_30" data-name="&lt;Path&gt;" class="cls-13" d="M229.41,150.31c-19.87-5.76-25.21-23.78-22.15-42.8,3.22-20,21.29-31.21,36.59-25.93,17.41,6,25.2,16.34,20,35.94-3.29,12.31-15.28,35.08-34.41,32.78Z"/><g id="_Group_3" data-name="&lt;Group&gt;"><line id="_Path_31" data-name="&lt;Path&gt;" class="cls-14" x1="260.09" y1="116.82" x2="253.1" y2="113.55"/><path id="_Path_32" data-name="&lt;Path&gt;" class="cls-14" d="M259.78,118.07a1.29,1.29,0,0,0,.86-2.41l-7-3.27a1.29,1.29,0,0,0-1.09,2.33l7,3.27Z"/></g><g id="_Group_4" data-name="&lt;Group&gt;"><line id="_Path_33" data-name="&lt;Path&gt;" class="cls-14" x1="242.11" y1="109.52" x2="234.65" y2="107.56"/><path id="_Path_34" data-name="&lt;Path&gt;" class="cls-14" d="M242.67,108.36a1.29,1.29,0,0,1-.89,2.4l-7.47-2a1.29,1.29,0,1,1,.65-2.49l7.47,2Z"/></g><circle id="_Path_35" data-name="&lt;Path&gt;" cx="236.53" cy="115.8" r="1.74" transform="translate(49.26 300.96) rotate(-70.76)"/><circle id="_Path_36" data-name="&lt;Path&gt;" cx="254.61" cy="121.82" r="1.74" transform="translate(55.7 322.08) rotate(-70.76)"/><polygon id="_Path_37" data-name="&lt;Path&gt;" class="cls-15" points="245.56 118.78 240.36 132.99 243.67 133.36 245.56 118.78"/><g id="_Group_5" data-name="&lt;Group&gt;"><path id="_Path_38" data-name="&lt;Path&gt;" class="cls-16" d="M215.09,85.39c-3.55,4.15-6.07,11.38-7.43,16.06a4.87,4.87,0,0,1,4.27.39,5.82,5.82,0,0,1,.57.37h0l.27.21.27.22.27.26.19.19.31.34.23.29.22.3.2.31.2.33c.13.22.24.46.35.69l0,0s0,.11.06.16a.78.78,0,0,0,0,.1s0,.07,0,.11a.19.19,0,0,1,0,.05v.08a.24.24,0,0,1,0,.06l-2.93,8.39a4,4,0,0,0-.09,3.13,4.83,4.83,0,0,0,.24.56l-.08.07a5.86,5.86,0,0,0,2.37,1.57c2.19.76,5-.26,5.79-2.45l2.08-6c1.13-.78,2.62-.5,5.24.23,1.25-3.39,2.17-6.11,2.72-7.8.69-2.1,1.95-3.2,6.73-2.06l.14,0c.42.1.86.22,1.33.35l.1,0c.82.24,1.71.53,2.7.87l21.22,7.41.26,0c1,.06,4.6.13,7.19-1.95a6.69,6.69,0,0,0,2.64-3.79l-5.88-2.05a12.62,12.62,0,0,0,4.8-4,29.47,29.47,0,0,0,3.59-6l-9.74-3.4s-7.28-10.5-18.44-13.36c-17.59-4.53-27.07,4.49-27.07,4.49a19.51,19.51,0,0,0-6.93-3.89C214.46,79.76,215.37,81.35,215.09,85.39Z"/><path id="_Path_39" data-name="&lt;Path&gt;" class="cls-17" d="M238.78,102.06c.82.24,1.71.53,2.7.87l21.22,7.41.26,0c1,.06,4.6.13,7.19-1.95a6.69,6.69,0,0,0,2.64-3.79s-7,3.93-10.48,3.38l-.27,0C258.59,107.32,243.68,103.37,238.78,102.06Z"/><g id="_Group_6" data-name="&lt;Group&gt;"><path id="_Path_40" data-name="&lt;Path&gt;" class="cls-13" d="M215.11,106.46a9.71,9.71,0,0,0-2-4.45c-3.75-5.15-10.48-4.39-10.33,2.25.1,4.63-.82,15.69,3.65,13.15C209.83,115.48,213.09,111.82,215.11,106.46Z"/><polygon id="_Path_41" data-name="&lt;Path&gt;" class="cls-15" points="211.09 105.73 204.98 102.37 206.77 112.98 207.68 105.07 211.09 105.73"/></g></g><path id="_Path_42" data-name="&lt;Path&gt;" class="cls-17" d="M275.31,92.57s-6.78,7.28-12.87,7.61c-5.17.27-27.54-6.74-27.54-6.74a40,40,0,0,0,6.29,4c1.94.91,21.18,8.31,25.73,5.11A20.09,20.09,0,0,0,275.31,92.57Z"/><path class="cls-18" d="M180.11,101.11l26.29-4-.8-5.17A25.56,25.56,0,0,1,227,62.76l10.3-1.59a25.55,25.55,0,0,1,24.34,9.94h.09a24.61,24.61,0,0,1,4.74,10.72l-.14.13c0,.2.08.39.11.59l1.24,8.06L206.84,100h0l-26.4,3.31a.8.8,0,0,1-.92-.67l-.09-.57A.8.8,0,0,1,180.11,101.11Z"/><path class="cls-11" d="M209.67,95.24h0a21.79,21.79,0,0,0-1.87,5.95,2.33,2.33,0,0,0,4.6.75,17,17,0,0,1,.48-2.12c.29-1,1-1.93,1.17-3"/><path class="cls-12" d="M212.76,117a5.11,5.11,0,0,1-5.87,4.23h0a5.11,5.11,0,0,1-4.23-5.87l2.58-15.88a5.12,5.12,0,0,1,5.87-4.23h0a5.11,5.11,0,0,1,4.23,5.87Z"/><path class="cls-11" d="M205.76,113.65a2.34,2.34,0,0,1-2.68,1.93h0a2.34,2.34,0,0,1-1.93-2.68L203,101.5a2.34,2.34,0,0,1,2.69-1.93h0a2.34,2.34,0,0,1,1.93,2.69Z"/><path id="_Path_43" data-name="&lt;Path&gt;" class="cls-9" d="M234.7,141.56c-4.09-1.53-6.86-5.09-5.91-7.62l.22-.59,15.78,5.91-.22.59c-.86,2.3-4.18,3.84-8.64,2.17Z"/><path class="cls-6" d="M203.81,61h61.54a0,0,0,0,1,0,0V64a30.77,30.77,0,0,1-30.77,30.77h0A30.77,30.77,0,0,1,203.81,64V61a0,0,0,0,1,0,0Z" transform="translate(478.27 119.21) rotate(171.25)"/><path class="cls-6" d="M179.25,98.22h28.84a1,1,0,0,1,1,1v.89a1,1,0,0,1-1,1H179.25a0,0,0,0,1,0,0V98.22A0,0,0,0,1,179.25,98.22Z" transform="translate(401.26 168.67) rotate(171.25)"/><path class="cls-19" d="M261.68,83.05a6.34,6.34,0,0,1-.08-12.68,24.61,24.61,0,0,1,4.74,10.72A6.32,6.32,0,0,1,261.68,83.05Z"/><line class="cls-20" x1="176.49" y1="125.62" x2="189.51" y2="120.6"/><line class="cls-20" x1="178.71" y1="111.97" x2="190.58" y2="113.15"/><line class="cls-20" x1="290.45" y1="130.54" x2="277.76" y2="124.73"/><line class="cls-20" x1="289.08" y1="116.78" x2="277.16" y2="117.22"/><path class="cls-21" d="M523.82,151.19l-5.51-31.12.24-.05a3.15,3.15,0,0,0,2.38-3.76l-1.67-7.46a3.15,3.15,0,0,0-3.76-2.38l-3.1.69-5.24-26,.19,0-2.26-13.81s-.82-.93-2.05-2.22a8.64,8.64,0,0,0-2.13-13.63,8.64,8.64,0,0,0-2.79-15.12A8.65,8.65,0,0,0,487.91,24a8.63,8.63,0,0,0-12.62-7.39,8.62,8.62,0,0,0-13.29.4,8.63,8.63,0,0,0-14,4.57,8.64,8.64,0,0,0-12.17,10.84,8.64,8.64,0,0,0-2.08,15.57,71.61,71.61,0,0,0,1.94,15v.19C431.36,65,424.57,70,424.57,70l-5.07,13L411,108.77l-3-1.06a3.15,3.15,0,0,0-4,1.93l-2.53,7.22a3.15,3.15,0,0,0,1.93,4l.23.08-9.11,30.27a10.29,10.29,0,0,0,17.29,10.16l20.7-16V252h6.37l-6.48,97.07H441l4.26,85.19-4.19,2.44a3.19,3.19,0,0,0-1.67,1.84l-.34-.51-26.84,14.77,1.52,2.89h17.12l23.38-9.31.05,9.31h4.12l.09-.24.13.24h17.12l23.38-9.31.05,9.31h4.12l5.61-14.86v-5.36l-4.74-4.8.15,3.56-.31.18V349.06h8.45L509.23,252h7.37V163A10.3,10.3,0,0,0,523.82,151.19Zm-34,283.08-4.16,2.42a3.52,3.52,0,0,0-1.58,1.57L484,438l-23.83,13.11L464,440.83v-5.36l-4.74-4.8.09,2.15-4.19-83.75h34.67Zm7.48-331H490.1c-1.69-3.34-6.13-6-11.83-7.15V94.69A35.82,35.82,0,0,0,489.74,80a2.9,2.9,0,0,0,3.45,1l.34,1.6h.11l-.45.1ZM432.84,87.14l.29-.66c.54-.5,3.25-3,6-5.27,3.1,8.59,8.63,16.2,17.82,18.69a10.21,10.21,0,0,0-2.91,3.37h-4.33a17.16,17.16,0,0,0-17.12,16.1l-4.17,3.22,1.38-3.92a3.15,3.15,0,0,0-1.93-4l-3.57-1.25Z"/><path id="_Path_44" data-name="&lt;Path&gt;" class="cls-22" d="M422.25,119l-19.65-6.15-12,39.89a10.3,10.3,0,0,0,6.75,12.9h0a10.3,10.3,0,0,0,12.9-6.75Z"/><polygon id="_Path_45" data-name="&lt;Path&gt;" class="cls-4" points="417.37 123.95 404.16 119.26 415.55 84.66 429 88.39 417.37 123.95"/><rect id="_Rectangle_7" data-name="&lt;Rectangle&gt;" class="cls-9" x="398.03" y="112.37" width="27.28" height="13.94" rx="3.99" ry="3.99" transform="translate(62.69 -129.52) rotate(19.33)"/><path id="_Path_46" data-name="&lt;Path&gt;" class="cls-10" d="M429.09,88.15s6.79-6.32,10.13-8.51c-1.49-5.39-8.88-2.92-8.88-2.92Z"/><path id="_Path_47" data-name="&lt;Path&gt;" class="cls-4" d="M415.55,84.66l5.07-13s8.61-6.4,12.65-7.22c4.71-1,10.53,1.4,11.58,1.91,2.81,1.36-10.48,10.06-10.48,10.06l-5.63,12.7Z"/><path id="_Path_48" data-name="&lt;Path&gt;" class="cls-4" d="M437.14,438.27l12.2-7.11s5.36-.05,6,5.2.16,6.6-3.65,8.37-13.14,3.65-13.14,3.65l-3.06-7.32S434.82,439.63,437.14,438.27Z"/><path id="_Path_49" data-name="&lt;Path&gt;" class="cls-4" d="M481.75,438.27l12.2-7.11s5.36-.05,6,5.2.16,6.6-3.65,8.37-13.14,3.65-13.14,3.65l-3.06-7.32S479.43,439.63,481.75,438.27Z"/><rect id="_Rectangle_8" data-name="&lt;Rectangle&gt;" class="cls-4" x="439.15" y="340.51" width="14.16" height="103.32" transform="translate(-19.05 22.8) rotate(-2.87)"/><rect id="_Rectangle_9" data-name="&lt;Rectangle&gt;" class="cls-4" x="485.91" y="341.66" width="14.16" height="102.17"/><polygon id="_Path_50" data-name="&lt;Path&gt;" class="cls-23" points="508.52 350.64 428.46 350.64 435.33 247.73 505.09 247.73 508.52 350.64"/><rect id="_Rectangle_10" data-name="&lt;Rectangle&gt;" class="cls-22" x="416.49" y="92.46" width="20.59" height="85.8" rx="10.3" ry="10.3" transform="translate(273.28 -285.24) rotate(52.35)"/><path id="_Path_51" data-name="&lt;Path&gt;" class="cls-22" d="M495.49,104.85h-48A17.16,17.16,0,0,0,430.28,122V253.57h82.37s-5.15-55.14-5.15-73.51c0-14.51,5.15-58,5.15-58A17.16,17.16,0,0,0,495.49,104.85Z"/><ellipse id="_Path_52" data-name="&lt;Path&gt;" class="cls-9" cx="468.11" cy="107.85" rx="18.8" ry="10.76"/><rect id="_Rectangle_11" data-name="&lt;Rectangle&gt;" class="cls-4" x="461.89" y="84.26" width="12.44" height="24.02" rx="6.22" ry="6.22"/><ellipse id="_Path_53" data-name="&lt;Path&gt;" class="cls-24" cx="462.83" cy="133.54" rx="2.66" ry="4.32"/><ellipse id="_Path_54" data-name="&lt;Path&gt;" class="cls-24" cx="462.83" cy="152.31" rx="2.66" ry="4.32"/><ellipse id="_Path_55" data-name="&lt;Path&gt;" class="cls-24" cx="462.83" cy="171.08" rx="2.66" ry="4.32"/><ellipse id="_Path_56" data-name="&lt;Path&gt;" class="cls-24" cx="462.83" cy="189.85" rx="2.66" ry="4.32"/><ellipse id="_Path_57" data-name="&lt;Path&gt;" class="cls-24" cx="462.83" cy="208.62" rx="2.66" ry="4.32"/><ellipse id="_Path_58" data-name="&lt;Path&gt;" class="cls-24" cx="462.83" cy="227.39" rx="2.66" ry="4.32"/><path id="_Path_59" data-name="&lt;Path&gt;" class="cls-25" d="M437.83,34.56s-8-1.63-8,14.66a71.16,71.16,0,0,0,2.07,16L444,51.1l12.58-5.63-15.73-5.68Z"/><path id="_Path_60" data-name="&lt;Path&gt;" class="cls-13" d="M454.06,101.76c21.16,1.14,32.41-14.5,35.87-33.92,3.64-20.46-10.05-37.38-26.65-37.44-18.88-.06-29.89,7.3-31.44,28-1,13,2.94,39.1,22.22,43.33Z"/><g id="_Group_7" data-name="&lt;Group&gt;"><line id="_Path_61" data-name="&lt;Path&gt;" class="cls-25" x1="442.44" y1="62.29" x2="449.03" y2="66.02"/><path id="_Path_62" data-name="&lt;Path&gt;" class="cls-25" d="M441.62,65.9a1.26,1.26,0,0,1,1.44-2.06l6.59,3.73a1.26,1.26,0,1,1-1.24,2.2L441.82,66Z"/></g><g id="_Group_8" data-name="&lt;Group&gt;"><line id="_Path_63" data-name="&lt;Path&gt;" class="cls-25" x1="457.69" y1="68.71" x2="464.55" y2="65.5"/><path id="_Path_64" data-name="&lt;Path&gt;" class="cls-25" d="M456.94,67.69a1.26,1.26,0,0,0,1.28,2.16l6.86-3.22A1.26,1.26,0,0,0,464,64.35l-6.86,3.22Z"/></g><polygon id="_Path_65" data-name="&lt;Path&gt;" class="cls-15" points="452.86 72.56 454.5 82.75 450.27 82.8 452.86 72.56"/><path id="_Path_66" data-name="&lt;Path&gt;" class="cls-26" d="M446.5,93.49a8.8,8.8,0,0,1,6.7-3.11h0a9.44,9.44,0,0,1,6.7,3.11"/><circle id="_Path_67" data-name="&lt;Path&gt;" class="cls-25" cx="434.44" cy="42.32" r="8.65"/><circle id="_Path_68" data-name="&lt;Path&gt;" class="cls-25" cx="492.88" cy="60.62" r="8.65"/><path id="_Path_69" data-name="&lt;Path&gt;" class="cls-25" d="M483.12,71.69s-7.7-1.41-6.84-14c-4.58-.71-27.72,5.19-34.79-22.9,5.68-11.51,15.76-13.07,26.74-11.22C484.44,26.3,501.66,38.5,492.11,70,491.4,72.31,485.4,69.91,483.12,71.69Z"/><circle id="_Path_70" data-name="&lt;Path&gt;" class="cls-25" cx="491.69" cy="46.16" r="8.65"/><circle id="_Path_71" data-name="&lt;Path&gt;" class="cls-25" cx="486.5" cy="33.89" r="8.65"/><circle id="_Path_72" data-name="&lt;Path&gt;" class="cls-25" cx="464.86" cy="23.95" r="8.65"/><circle id="_Path_73" data-name="&lt;Path&gt;" class="cls-25" cx="475.33" cy="25.91" r="8.65"/><circle id="_Path_74" data-name="&lt;Path&gt;" class="cls-25" cx="452.47" cy="25.25" r="8.65"/><circle id="_Path_75" data-name="&lt;Path&gt;" class="cls-25" cx="439.9" cy="30.79" r="8.65"/><g id="_Group_9" data-name="&lt;Group&gt;"><g id="_Group_10" data-name="&lt;Group&gt;"><path id="_Path_76" data-name="&lt;Path&gt;" class="cls-13" d="M482.48,65.27A10,10,0,0,1,486,61.62c5.41-3.75,11.71-.71,9.31,5.71-1.68,4.48-4.54,15.58-8,11.58C484.55,75.86,482.62,71.18,482.48,65.27Z"/><polygon id="_Path_77" data-name="&lt;Path&gt;" class="cls-15" points="486.64 65.92 493.75 64.72 488.39 74.47 490.19 66.44 486.64 65.92"/></g><circle id="_Path_78" data-name="&lt;Path&gt;" class="cls-27" cx="488.18" cy="79.92" r="2.93"/></g><path id="_Path_79" data-name="&lt;Path&gt;" class="cls-26" d="M471.47,71.69h3.06"/><path id="_Path_80" data-name="&lt;Path&gt;" class="cls-22" d="M492.38,115.56l20.24-3.81,7.27,41a10.3,10.3,0,0,1-8.21,12h0a10.3,10.3,0,0,1-12-8.21Z"/><polygon id="_Path_81" data-name="&lt;Path&gt;" class="cls-4" points="496.64 121 510.31 117.88 502.92 81.21 489.25 84.33 496.64 121"/><rect id="_Rectangle_12" data-name="&lt;Rectangle&gt;" class="cls-9" x="489.2" y="110.11" width="27.28" height="13.94" rx="3.99" ry="3.99" transform="translate(1019.12 121.43) rotate(167.38)"/><path id="_Path_82" data-name="&lt;Path&gt;" class="cls-4" d="M503.41,82.67l-2.26-13.81s-7.1-8-10.89-9.69c-4.41-1.91-10.59-.81-11.72-.53-3,.75,8.17,12,8.17,12l2.89,13.59Z"/><polygon id="_Path_83" data-name="&lt;Path&gt;" class="cls-28" points="455.34 432.24 460.08 437.04 460.08 442.4 454.48 457.26 450.35 457.26 450.3 447.94 426.93 457.26 409.8 457.26 408.29 454.37 435.13 439.6 438.06 444.05 441.57 444.05 455.49 435.8 455.34 432.24"/><polygon id="_Path_84" data-name="&lt;Path&gt;" class="cls-28" points="500.23 432.24 504.97 437.04 504.97 442.4 499.36 457.26 495.24 457.26 495.19 447.94 471.81 457.26 454.69 457.26 453.18 454.37 480.02 439.6 482.95 444.05 486.46 444.05 500.38 435.8 500.23 432.24"/><path class="cls-29" d="M445.73,72.18a2.85,2.85,0,0,1-5.12.38"/><path class="cls-29" d="M464.35,72.56a2.85,2.85,0,0,1-4.93,0"/><circle class="cls-30" cx="296.95" cy="97.49" r="3.01" transform="translate(163.86 380.28) rotate(-82.97)"/><circle class="cls-30" cx="307.57" cy="97.54" r="3.01" transform="translate(173.13 390.87) rotate(-82.97)"/><rect class="cls-30" x="299.36" y="83.1" width="1.49" height="14.69" transform="translate(13.32 -36.03) rotate(7.03)"/><rect class="cls-30" x="309.95" y="83.4" width="1.49" height="14.69" transform="translate(13.43 -37.33) rotate(7.03)"/><rect class="cls-30" x="300.28" y="81.39" width="12.04" height="3.77" transform="translate(12.49 -36.84) rotate(7.03)"/><circle class="cls-30" cx="315.54" cy="71.73" r="2.13" transform="translate(117.14 327.37) rotate(-64.99)"/><circle class="cls-30" cx="322.67" cy="74.08" r="2.13" transform="translate(119.13 335.19) rotate(-64.99)"/><rect class="cls-30" x="318.67" y="62.5" width="1.05" height="10.38" transform="translate(58.54 -128.59) rotate(25.01)"/><rect class="cls-30" x="325.73" y="65" width="1.05" height="10.38" transform="translate(60.26 -131.33) rotate(25.01)"/><rect class="cls-30" x="320.67" y="62.89" width="8.51" height="2.67" transform="translate(57.61 -131.33) rotate(25.01)"/><circle class="cls-30" cx="334.2" cy="110.67" r="2.13" transform="translate(19.41 268.29) rotate(-44.92)"/><circle class="cls-30" cx="338.85" cy="104.78" r="2.13" transform="translate(24.93 269.86) rotate(-44.92)"/><rect class="cls-30" x="331.13" y="100.65" width="1.05" height="10.38" transform="translate(22.07 265.09) rotate(-44.92)"/><rect class="cls-30" x="335.91" y="94.89" width="1.05" height="10.38" transform="translate(27.54 266.78) rotate(-44.92)"/><rect class="cls-30" x="326.11" y="97.94" width="8.51" height="2.67" transform="translate(26.34 262.26) rotate(-44.92)"/></svg>