<svg id="Layer_1" data-name="Layer 1" xmlns="http://www.w3.org/2000/svg" xmlns:xlink="http://www.w3.org/1999/xlink" viewBox="0 0 708.66 757"><defs><style>.cls-1,.cls-10,.cls-21,.cls-26,.cls-27,.cls-28,.cls-29,.cls-30,.cls-31,.cls-32{fill:none;}.cls-2{fill:#e7685d;}.cls-3{clip-path:url(#clip-path);}.cls-4{fill:#d3e3f2;}.cls-38,.cls-5{fill:#141414;}.cls-37,.cls-5{opacity:0.11;}.cls-6{fill:#e5b02c;}.cls-7{fill:#405aa8;}.cls-17,.cls-8{fill:#f8ab8d;}.cls-20,.cls-9{fill:#dc846a;}.cls-10{stroke:#648ec9;stroke-width:3px;}.cls-10,.cls-26,.cls-27,.cls-28,.cls-29,.cls-30,.cls-31,.cls-32{stroke-miterlimit:10;}.cls-11{fill:#e5e5e4;}.cls-12{fill:#3f5aa8;}.cls-13{fill:#353560;}.cls-14{fill:#b3b2b3;}.cls-15{fill:#4d4e4e;}.cls-16{fill:#648ec9;}.cls-17,.cls-20{fill-rule:evenodd;}.cls-18{fill:#8b6339;}.cls-19{fill:#754d24;}.cls-21{stroke:#dc846a;stroke-linecap:round;stroke-linejoin:round;stroke-width:2px;}.cls-22{fill:#ee4256;}.cls-23{fill:#515180;}.cls-24{fill:#fdd8b8;}.cls-25{clip-path:url(#clip-path-2);}.cls-26,.cls-27,.cls-28,.cls-29,.cls-30,.cls-31,.cls-32{stroke:#ee4256;}.cls-27{stroke-width:11px;}.cls-28{stroke-width:7.5px;}.cls-29{stroke-width:6.31px;}.cls-30{stroke-width:4.29px;}.cls-31{stroke-width:3.52px;}.cls-32{stroke-width:2.98px;}.cls-33{fill:#54402b;}.cls-34{fill:#fff;}.cls-35{fill:#6c4e38;}.cls-36{fill:#fec82b;}.cls-39{fill:#4c836a;}.cls-40{fill:#416d58;}.cls-41{fill:#514b59;}</style><clipPath id="clip-path"><rect class="cls-1" x="0.73" width="709.54" height="841.89"/></clipPath><clipPath id="clip-path-2"><path id="_Clipping_Path_" data-name="&lt;Clipping Path&gt;" class="cls-2" d="M223.77,240H291a24,24,0,0,1,24,24V448H199.78s7.2-77.1,7.2-102.8c0-20.29-7.2-81.17-7.2-81.17A24,24,0,0,1,223.77,240Z"/></clipPath></defs><title>CS-L2-U2</title><g class="cls-3"><rect class="cls-4" x="-207.71" y="179.1" width="1193.57" height="333.97" transform="translate(103.61 -89.42) rotate(15.1)"/></g><path class="cls-5" d="M597.51,483.73h-9.1a15.33,15.33,0,0,0-14.16-9.46h0a15.3,15.3,0,0,0-11.8,5.54l-.45-1.17,4.56-15.91-12-3.44-4.5-11.69c4.35-4.56,9.58-19.82,9.58-19.82l-4.84-20.66h0l-12.93-84a10.4,10.4,0,0,0-1.54-4.12l-7.72-24.73,2.71-.84L515.6,230.83a13,13,0,0,0-2.28-4.27A24,24,0,0,0,495.6,215a24.14,24.14,0,0,0-9-1.75H468.85c0-2.73-1.66-5.2-4.34-7,1.55.07,3.14.06,4.78,0,24.63-5.41,29.63-38.73,28.39-55.36a58.16,58.16,0,0,0-2.31-12.91,12.88,12.88,0,0,0,5.14-4.44c2.18-3.48,1.68-6,1.68-6h-8.42a17.06,17.06,0,0,0,4.33-7.29v0a29.46,29.46,0,0,0,1.85-8.47c0-.46.06-.72.06-.72h-14s-14-10.16-29.49-8.85C432.1,104.14,424,119.88,424,119.88A26.39,26.39,0,0,0,413.44,118c3.19,3.69,5.05,5.31,6.49,10.6-2.28,5.86-2.62,14.22-2.46,20.65-3.3,1-5.26,4.26-3.49,9,2.12,5.68,5.75,19.75,10.19,14.68a20.31,20.31,0,0,0,1.27-1.61c3.65,12.61,10.27,23.26,20.28,29.37v3.56c-4.9,1.72-8.24,5.1-8.24,9H425.65a24,24,0,0,0-24,5,13,13,0,0,0-3.41,3.43l-36.9,54.22,2.36,1.59L348.2,300.4a10.41,10.41,0,0,0-1.7,4.88c-.08.16-.16.31-.23.47a10.46,10.46,0,0,0,5.46,13.74l9.09,4L319.11,339V282.11c0-.19,0-.37,0-.56s0-.38,0-.56V265.31c0-.77,0-1.53-.11-2.28.07-.15.12-.3.18-.45l-.35-4.39L315.24,252l-.29-.16a24,24,0,0,0-14.49-9.89,5.81,5.81,0,0,0-.31-.6h-29.9a6.29,6.29,0,0,0,.27-1.82v-6.63a46.43,46.43,0,0,0,9.18.39c24.43-5.36,29.4-38.43,28.16-54.92,0-.29-.05-.57-.08-.86A97.67,97.67,0,0,0,310,158c0-20.94-9.45-20.7-11-20.53-8-15.77-22-17.91-37.21-15.34a52.07,52.07,0,0,0-20.18,7.69,11.4,11.4,0,0,0-5.12-4.52c-7-3-15.75,1.71-19.65,10.61s-1.41,18.59,5.55,21.63a10.88,10.88,0,0,0,2.47.74,65.27,65.27,0,0,0,1.35,20.27,7.49,7.49,0,0,0,0,6.3c1.33,3.55,3.24,10.37,5.57,13.75a4.08,4.08,0,1,0,6.16,5.35c3.34,8.87,8.34,16.45,15.19,21.69V239.5a6.29,6.29,0,0,0,.27,1.82h-35l-.13.18a14.36,14.36,0,0,0-10.12,6.79l-1,1.67a24,24,0,0,0-3.76,6.24L161.23,326a14.32,14.32,0,0,0,3.35,21.73l22.9,13.76v.32l0,0V381h-31v83.25A23.4,23.4,0,0,0,178.59,487h32.9V706.1h3.68v7.12a2.41,2.41,0,0,0-2.2,2.4v16.06a4.8,4.8,0,0,0,4.81,4.81h133a2.42,2.42,0,0,0,2.42-2.42V730a6.33,6.33,0,0,0-4.74-6.13l-41.94-10.92a12.06,12.06,0,0,0-3.55-.36V706.1h3.91V453.71a16.49,16.49,0,0,0,.66-4.43h11.5V369.74l63.41-23.59v0l2.92-1.12,6.25-2.33,0-.07.83-.32-1.36-3.53,1.84-1.08,2.36,1v79.7h10.11l-.1,5.13c0,.34-.05.68-.05,1v1.77l0,1c0,.15,0,.29,0,.44V705H409v7.12a2.41,2.41,0,0,0-2.2,2.4v16.06a4.8,4.8,0,0,0,4.81,4.81h133a2.42,2.42,0,0,0,2.42-2.42V728.9a6.33,6.33,0,0,0-4.74-6.13l-41.94-10.92a12.07,12.07,0,0,0-3.55-.36V705h3.91V570.42a9.34,9.34,0,0,0,1.16.08h75.14a9.3,9.3,0,0,0,9.15-7.64L598,498.37a7.33,7.33,0,0,0-.49-14.64ZM201.53,381h-3.15V368.09l3.15,1.89Zm75.4,332.2a2.42,2.42,0,0,0-2.44,2.42v5l-29.42-7.66a12,12,0,0,0-3.79-.34V706.1h3.91V487h.9a21.25,21.25,0,0,0,21.25-21.25v-.28l5.9,0V706.1h3.68ZM395.36,311.08a2.48,2.48,0,0,0-1.47,1L390.94,314l-20.53-9.08L381,289.2l2.09,1.41,12.25-18Zm75.4,401.06a2.42,2.42,0,0,0-2.44,2.42v5l-29.42-7.66a12,12,0,0,0-3.79-.34V705H439V444.2l28.06.23V705h3.68Zm53.59-174.36-.74-2.59c.25,0,.49,0,.74,0Zm5.33-54.06h-1.32l5.16-13.42Zm4.7-48.37a5.64,5.64,0,0,0-.19,1.68l-16.31,42.41-2.44-5.17-14.66,6.91V432.66a16.49,16.49,0,0,0,.67-4.47l.18-9.7H511V300.95l1.67-.52,8.19,26.23a10.48,10.48,0,0,0,.69,1.71L534.8,414.7c-.49,2.17-3.21,13.91-5.3,19A6.58,6.58,0,0,0,534.38,435.36Zm5.06,19.59.54-1.41.2-.07.73,1.9Zm22.85,60.46-.06.7-2-4.14A3.49,3.49,0,0,1,562.29,515.41Zm16.54,14-.23-.14h.25Z"/><rect class="cls-6" x="507.26" y="501.28" width="30.67" height="32.62" rx="15.33" ry="15.33"/><circle id="_Path_" data-name="&lt;Path&gt;" class="cls-7" cx="490.95" cy="237.44" r="23.97" transform="translate(-45.12 137.24) rotate(-15.22)"/><path id="_Path_2" data-name="&lt;Path&gt;" class="cls-8" d="M528.27,312.88h0a10.46,10.46,0,0,0-8.86,11.84l13.67,88.83a10.46,10.46,0,0,0,11.84,8.86h0a10.46,10.46,0,0,0,8.86-11.84l-13.67-88.83A10.46,10.46,0,0,0,528.27,312.88Z"/><path id="_Path_3" data-name="&lt;Path&gt;" class="cls-8" d="M499.27,226.5h0a10.46,10.46,0,0,0-7,13l26.79,85.79a10.46,10.46,0,0,0,13,7h0a10.46,10.46,0,0,0,7-13L512.3,233.49A10.46,10.46,0,0,0,499.27,226.5Z"/><g id="_Clip_Group_" data-name="&lt;Clip Group&gt;"><path id="_Clipping_Path_2" data-name="&lt;Clipping Path&gt;" class="cls-7" d="M533.56,292l-25.09,7.79-19.71-62.55a13.17,13.17,0,0,1,8.65-16.44h0a13.17,13.17,0,0,1,16.44,8.65Z"/></g><path id="_Path_4" data-name="&lt;Path&gt;" class="cls-9" d="M533.13,413s-3.08,13.73-5.38,19.32c6.48,5.46,13.6-4,13.6-4Z"/><path id="_Path_5" data-name="&lt;Path&gt;" class="cls-8" d="M553,405.78l4.84,20.66s-5.28,15.39-9.63,19.88c-5.07,5.23-14.36,7.28-16.11,7.54-4.68.71,4.48-21.55,4.48-21.55l-3.84-20.71Z"/><line id="_Path_6" data-name="&lt;Path&gt;" class="cls-10" x1="530.77" y1="283.18" x2="505.76" y2="291.23"/><circle id="_Path_7" data-name="&lt;Path&gt;" class="cls-11" cx="493.93" cy="415.67" r="4.01"/><path id="_Path_8" data-name="&lt;Path&gt;" class="cls-12" d="M420.31,609.33h0a13.05,13.05,0,0,1,13.05,13.05v92.49a13.05,13.05,0,0,1-13.05,13.05h0a13.05,13.05,0,0,1-13.05-13.05V622.39A13.05,13.05,0,0,1,420.31,609.33Z"/><path id="_Rectangle_" data-name="&lt;Rectangle&gt;" class="cls-13" d="M403.57,408.53h33.7a0,0,0,0,1,0,0v280.4a14.78,14.78,0,0,1-14.78,14.78h-4.13a14.78,14.78,0,0,1-14.78-14.78V408.53a0,0,0,0,1,0,0Z" transform="translate(840.84 1112.24) rotate(-180)"/><path id="_Path_9" data-name="&lt;Path&gt;" class="cls-14" d="M405.06,713.23v15.93h78.77v-1.59a6.33,6.33,0,0,0-4.74-6.13l-41.94-10.92a11.69,11.69,0,0,0-5.88,0c-11.2,2.9-19.07,1.62-23.11.41A2.42,2.42,0,0,0,405.06,713.23Z"/><path id="_Path_10" data-name="&lt;Path&gt;" class="cls-15" d="M405.06,729.17v.13a4.8,4.8,0,0,0,4.81,4.81H481.4a2.42,2.42,0,0,0,2.42-2.42v-2.51Z"/><path id="_Path_11" data-name="&lt;Path&gt;" class="cls-12" d="M482.06,609.33h0a13.05,13.05,0,0,1,13.05,13.05v92.49a13.05,13.05,0,0,1-13.05,13.05h0A13.05,13.05,0,0,1,469,714.88V622.39A13.05,13.05,0,0,1,482.06,609.33Z"/><path id="_Rectangle_2" data-name="&lt;Rectangle&gt;" class="cls-13" d="M465.33,408.53H499a0,0,0,0,1,0,0v280.4a14.78,14.78,0,0,1-14.78,14.78h-4.13a14.78,14.78,0,0,1-14.78-14.78V408.53A0,0,0,0,1,465.33,408.53Z" transform="translate(964.35 1112.24) rotate(-180)"/><path id="_Path_12" data-name="&lt;Path&gt;" class="cls-14" d="M466.57,713.23v15.93h78.77v-1.59a6.33,6.33,0,0,0-4.74-6.13l-41.94-10.92a11.69,11.69,0,0,0-5.88,0c-11.2,2.9-19.07,1.62-23.11.41A2.42,2.42,0,0,0,466.57,713.23Z"/><path id="_Path_13" data-name="&lt;Path&gt;" class="cls-15" d="M466.57,729.17v.13a4.8,4.8,0,0,0,4.81,4.81h71.53a2.42,2.42,0,0,0,2.42-2.42v-2.51Z"/><path id="_Path_14" data-name="&lt;Path&gt;" class="cls-13" d="M404.13,395.22l96.13.78-.57,30.86A16.51,16.51,0,0,1,483,443.24l-63.11-.51a16.51,16.51,0,0,1-16.38-16.65Z"/><g id="_Group_" data-name="&lt;Group&gt;"><g id="_Clip_Group_2" data-name="&lt;Clip Group&gt;"><path id="_Rectangle_3" data-name="&lt;Rectangle&gt;" class="cls-12" d="M393.61,211.9h115.6a0,0,0,0,1,0,0V393.56a23.59,23.59,0,0,1-23.59,23.59H418a24.38,24.38,0,0,1-24.38-24.38V211.9a0,0,0,0,1,0,0Z" transform="translate(902.82 629.05) rotate(-180)"/></g></g><path id="_Path_15" data-name="&lt;Path&gt;" class="cls-8" d="M411.32,221.7h0a10.46,10.46,0,0,1,2.94,14.49l-50.38,74.43a10.46,10.46,0,0,1-14.49,2.94h0a10.46,10.46,0,0,1-2.94-14.49l50.38-74.43A10.46,10.46,0,0,1,411.32,221.7Z"/><g id="_Clip_Group_3" data-name="&lt;Clip Group&gt;"><path id="_Clipping_Path_3" data-name="&lt;Clipping Path&gt;" class="cls-7" d="M359.59,274.59l21.78,14.69,36.9-54.22a13.17,13.17,0,0,0-3.54-18.23h0a13.17,13.17,0,0,0-18.23,3.54Z"/></g><circle id="_Path_16" data-name="&lt;Path&gt;" class="cls-7" cx="416.13" cy="234.57" r="23.97" transform="translate(-3.2 463.37) rotate(-58.03)"/><line id="_Path_17" data-name="&lt;Path&gt;" class="cls-10" x1="364.82" y1="266.9" x2="386.44" y2="281.82"/><ellipse id="_Path_18" data-name="&lt;Path&gt;" class="cls-16" cx="451.41" cy="211.9" rx="15.69" ry="10.2"/><path id="_Path_19" data-name="&lt;Path&gt;" class="cls-8" d="M452.51,182.92h-.29a8.31,8.31,0,0,1,8.26,8.55v18.28c0,4.72-3.53,6.19-8.26,6.19h.15c-4.72,0-8.4-1.47-8.4-6.19V191.48A8.55,8.55,0,0,1,452.51,182.92Z"/><path id="_Path_20" data-name="&lt;Path&gt;" class="cls-17" d="M467.54,204.84c-27,1.45-41.41-18.52-45.83-43.34-4.65-26.14,12.85-47.76,34-47.83,24.12-.08,38.19,9.33,40.17,35.81,1.24,16.63-3.76,50-28.39,55.36Z"/><path id="_Path_21" data-name="&lt;Path&gt;" class="cls-18" d="M418.18,127.28c-2.68,6.88-2.68,17.23-2.33,23.82a6.58,6.58,0,0,1,5.62-1.4,7.87,7.87,0,0,1,.9.21h0l.44.15.44.16.46.21.33.16.54.3.42.27.42.29.4.31.4.33c.26.23.51.47.76.73,0,0,0,.05,0,.07s.1.12.15.18l.08.11.1.12a.26.26,0,0,1,0,.06l0,.05,0,0a.33.33,0,0,1,0,.07v12a5.39,5.39,0,0,0,1.28,4,6.54,6.54,0,0,0,.56.61,8.59,8.59,0,0,0,3.66,1.07c3.13,0,6.3-2.57,6.3-5.71v-4.3a6.21,6.21,0,0,1,5.7-6.2L446,155c.08-4.89,0-8.77,0-11.18-.05-3,1.06-5,7.68-5.62h.19c.58-.06,1.19-.1,1.86-.14h.14c1.15-.06,2.42-.09,3.84-.09h30.4l.35-.09c1.3-.36,5.93-1.89,8.31-5.69,2.18-3.48,1.68-6,1.68-6H492a17.06,17.06,0,0,0,4.33-7.29,39.85,39.85,0,0,0,1.93-9.22h-14s-14-10.16-29.49-8.85c-24.48,2.06-32.56,17.79-32.56,17.79a26.39,26.39,0,0,0-10.58-1.87C414.87,120.36,416.74,122,418.18,127.28Z"/><path id="_Path_22" data-name="&lt;Path&gt;" class="cls-19" d="M455.86,138c1.15-.06,2.42-.09,3.84-.09h30.4l.35-.09c1.3-.36,5.93-1.89,8.31-5.69,2.18-3.48,1.68-6,1.68-6s-7.24,8.16-11.87,9l-.36.06C483.49,135.89,462.7,137.49,455.86,138Z"/><g id="_Group_2" data-name="&lt;Group&gt;"><line id="_Path_23" data-name="&lt;Path&gt;" class="cls-18" x1="485.94" y1="152.44" x2="476.35" y2="151.96"/><path id="_Path_24" data-name="&lt;Path&gt;" class="cls-18" d="M486.17,154a1.6,1.6,0,0,0-.14-3.18l-9.59-.49a1.6,1.6,0,1,0-.16,3.2l9.59.49Z"/></g><g id="_Group_3" data-name="&lt;Group&gt;"><line id="_Path_25" data-name="&lt;Path&gt;" class="cls-18" x1="460.89" y1="151.96" x2="451.3" y2="152.44"/><path id="_Path_26" data-name="&lt;Path&gt;" class="cls-18" d="M461.11,150.37a1.6,1.6,0,0,1-.14,3.18l-9.59.49a1.6,1.6,0,1,1-.16-3.2l9.59-.49Z"/></g><circle id="_Path_27" data-name="&lt;Path&gt;" cx="457.29" cy="162.31" r="2.16"/><circle id="_Path_28" data-name="&lt;Path&gt;" cx="480.4" cy="163.05" r="2.16"/><path id="_Path_29" data-name="&lt;Path&gt;" class="cls-19" d="M498.28,109.6s-5.41,12.32-13,15.45c-6.48,2.66-38.16,3.67-38.16,3.67a54.06,54.06,0,0,0,9.82,2.35c2.88.3,30.75,1.17,35.13-4.95A27.16,27.16,0,0,0,498.28,109.6Z"/><g id="_Group_4" data-name="&lt;Group&gt;"><path id="_Path_30" data-name="&lt;Path&gt;" class="cls-17" d="M428.45,154.3s-1-2.23-4.42-4.62c-6.86-4.75-14.84-.9-11.8,7.24,2.12,5.68,5.75,19.75,10.19,14.68C425.82,167.73,428.27,161.8,428.45,154.3Z"/><polygon id="_Path_31" data-name="&lt;Path&gt;" class="cls-20" points="423.17 155.13 414.17 153.61 420.95 165.96 418.67 155.79 423.17 155.13"/></g><polygon id="_Path_32" data-name="&lt;Path&gt;" class="cls-20" points="469.04 159.22 468.75 178.04 472.79 177.12 469.04 159.22"/><path id="_Path_33" data-name="&lt;Path&gt;" class="cls-21" d="M480.4,183.61A15.3,15.3,0,0,1,468.75,189h0c-5.11,0-10-3.26-11.66-5.42"/><polygon id="_Path_34" data-name="&lt;Path&gt;" class="cls-8" points="339.3 355.2 333.3 336.54 382.69 319.29 388.69 337.95 339.3 355.2"/><path id="_Path_35" data-name="&lt;Path&gt;" class="cls-8" d="M374.53,322.14l17.61-11.42s1.44-2.56,7.08,0c6.56,3,26.32,14,27.15,15.58,2.22,4.12-21.65,2.25-21.65,2.25l-18,10.51Z"/><path id="_Path_36" data-name="&lt;Path&gt;" class="cls-2" d="M390,341.41l-9.85-27.06-95.6,35.56a14.4,14.4,0,0,0-8.61,18.45h0A14.4,14.4,0,0,0,294.36,377Z"/><rect id="_Rectangle_4" data-name="&lt;Rectangle&gt;" class="cls-22" x="366.42" y="324.3" width="28.49" height="10.69" transform="translate(551.64 -143.99) rotate(68.96)"/><path id="_Path_37" data-name="&lt;Path&gt;" class="cls-8" d="M344.51,304.41h0A10.46,10.46,0,0,1,358.25,299l82.19,36.36A10.46,10.46,0,0,1,445.91,349h0a10.46,10.46,0,0,1-13.74,5.46L350,318.15A10.46,10.46,0,0,1,344.51,304.41Z"/><path id="_Path_38" data-name="&lt;Path&gt;" class="cls-9" d="M439.92,335.22s14.05.61,20.05-.15c3.59,7.68-7.37,12.1-7.37,12.1Z"/><path id="_Path_39" data-name="&lt;Path&gt;" class="cls-2" d="M226.48,610.39h0a13.05,13.05,0,0,1,13.05,13.05v92.49A13.05,13.05,0,0,1,226.48,729h0a13.05,13.05,0,0,1-13.05-13.05V623.44A13.05,13.05,0,0,1,226.48,610.39Z"/><path id="_Rectangle_5" data-name="&lt;Rectangle&gt;" class="cls-23" d="M209.74,409.59h33.7a0,0,0,0,1,0,0V690a14.78,14.78,0,0,1-14.78,14.78h-4.13A14.78,14.78,0,0,1,209.74,690V409.59a0,0,0,0,1,0,0Z" transform="translate(453.18 1114.35) rotate(-180)"/><path id="_Path_40" data-name="&lt;Path&gt;" class="cls-24" d="M211.23,714.29v15.93H290v-1.59a6.33,6.33,0,0,0-4.74-6.13l-41.94-10.92a11.69,11.69,0,0,0-5.88,0c-11.2,2.9-19.07,1.62-23.11.41A2.42,2.42,0,0,0,211.23,714.29Z"/><path id="_Path_41" data-name="&lt;Path&gt;" class="cls-2" d="M211.23,730.22v.13a4.8,4.8,0,0,0,4.81,4.81h71.53a2.42,2.42,0,0,0,2.42-2.42v-2.51Z"/><path id="_Path_42" data-name="&lt;Path&gt;" class="cls-2" d="M288.23,610.39h0a13.05,13.05,0,0,1,13.05,13.05v92.49A13.05,13.05,0,0,1,288.23,729h0a13.05,13.05,0,0,1-13.05-13.05V623.44A13.05,13.05,0,0,1,288.23,610.39Z"/><path id="_Rectangle_6" data-name="&lt;Rectangle&gt;" class="cls-23" d="M271.5,409.59h33.7a0,0,0,0,1,0,0V690a14.78,14.78,0,0,1-14.78,14.78h-4.13A14.78,14.78,0,0,1,271.5,690V409.59a0,0,0,0,1,0,0Z" transform="translate(576.69 1114.35) rotate(-180)"/><path id="_Path_43" data-name="&lt;Path&gt;" class="cls-24" d="M272.74,714.29v15.93h78.77v-1.59a6.33,6.33,0,0,0-4.74-6.13l-41.94-10.92a11.69,11.69,0,0,0-5.88,0c-11.2,2.9-19.07,1.62-23.11.41A2.42,2.42,0,0,0,272.74,714.29Z"/><path id="_Path_44" data-name="&lt;Path&gt;" class="cls-2" d="M272.74,730.22v.13a4.8,4.8,0,0,0,4.81,4.81h71.53a2.42,2.42,0,0,0,2.42-2.42v-2.51Z"/><path id="_Path_45" data-name="&lt;Path&gt;" class="cls-23" d="M210.3,416.28l96.13.78-.57,30.86a16.51,16.51,0,0,1-16.65,16.38l-63.11-.51a16.51,16.51,0,0,1-16.38-16.65Z"/><g id="_Clip_Group_4" data-name="&lt;Clip Group&gt;"><path id="_Clipping_Path_4" data-name="&lt;Clipping Path&gt;" class="cls-2" d="M223.77,240H291a24,24,0,0,1,24,24V448H199.78s7.2-77.1,7.2-102.8c0-20.29-7.2-81.17-7.2-81.17A24,24,0,0,1,223.77,240Z"/><g class="cls-25"><g id="_Group_5" data-name="&lt;Group&gt;"><g id="_Clip_Group_5" data-name="&lt;Clip Group&gt;"><path id="_Rectangle_7" data-name="&lt;Rectangle&gt;" class="cls-26" d="M199.78,240H317.36a0,0,0,0,1,0,0V424a24,24,0,0,1-24,24H223.77a24,24,0,0,1-24-24V240A0,0,0,0,1,199.78,240Z" transform="translate(517.14 687.94) rotate(-180)"/></g><circle id="_Path_46" data-name="&lt;Path&gt;" class="cls-27" cx="300.1" cy="383.23" r="21.67"/><circle id="_Path_47" data-name="&lt;Path&gt;" class="cls-28" cx="270.77" cy="339.9" r="14.77"/><circle id="_Path_48" data-name="&lt;Path&gt;" class="cls-29" cx="250.71" cy="374" r="12.43"/><circle id="_Path_49" data-name="&lt;Path&gt;" class="cls-30" cx="236.99" cy="345.95" r="8.45"/><circle id="_Path_50" data-name="&lt;Path&gt;" class="cls-31" cx="218.15" cy="363.55" r="6.93"/><circle id="_Path_51" data-name="&lt;Path&gt;" class="cls-30" cx="303.17" cy="339.9" r="8.45"/><circle id="_Path_52" data-name="&lt;Path&gt;" class="cls-30" cx="260.08" cy="401.46" r="8.45"/><circle id="_Path_53" data-name="&lt;Path&gt;" class="cls-31" cx="278.3" cy="418.14" r="6.93"/><circle id="_Path_54" data-name="&lt;Path&gt;" class="cls-32" cx="236.04" cy="397.68" r="5.88"/><circle id="_Path_55" data-name="&lt;Path&gt;" class="cls-32" cx="244.83" cy="322.64" r="5.88"/><circle id="_Path_56" data-name="&lt;Path&gt;" class="cls-27" cx="202.92" cy="320.69" r="21.67"/><circle id="_Path_57" data-name="&lt;Path&gt;" class="cls-27" cx="241.92" cy="439.8" r="21.67"/><circle id="_Path_58" data-name="&lt;Path&gt;" class="cls-27" cx="270.77" cy="274.34" r="21.67"/><circle id="_Path_59" data-name="&lt;Path&gt;" class="cls-29" cx="209.75" cy="404.9" r="12.43"/><circle id="_Path_60" data-name="&lt;Path&gt;" class="cls-32" cx="224.07" cy="382.23" r="5.88"/><circle id="_Path_61" data-name="&lt;Path&gt;" class="cls-29" cx="304.17" cy="429.15" r="12.43"/><circle id="_Path_62" data-name="&lt;Path&gt;" class="cls-32" cx="279.65" cy="437.33" r="5.88"/><circle id="_Path_63" data-name="&lt;Path&gt;" class="cls-28" cx="228.55" cy="248.63" r="14.77"/><circle id="_Path_64" data-name="&lt;Path&gt;" class="cls-32" cx="203.92" cy="434.03" r="5.88"/><circle id="_Path_65" data-name="&lt;Path&gt;" class="cls-30" cx="228.48" cy="283.78" r="8.45"/><circle id="_Path_66" data-name="&lt;Path&gt;" class="cls-32" cx="209.8" cy="271.02" r="5.88"/><circle id="_Path_67" data-name="&lt;Path&gt;" class="cls-29" cx="307.96" cy="307.4" r="12.43"/><circle id="_Path_68" data-name="&lt;Path&gt;" class="cls-32" cx="281.65" cy="310.88" r="5.88"/><circle id="_Path_69" data-name="&lt;Path&gt;" class="cls-32" cx="245.44" cy="301.88" r="5.88"/><circle id="_Path_70" data-name="&lt;Path&gt;" class="cls-32" cx="262.64" cy="312.14" r="5.88"/><circle id="_Path_71" data-name="&lt;Path&gt;" class="cls-32" cx="293.29" cy="242.86" r="5.88"/><circle id="_Path_72" data-name="&lt;Path&gt;" class="cls-30" cx="309.61" cy="258.11" r="8.45"/><circle id="_Path_73" data-name="&lt;Path&gt;" class="cls-32" cx="258.57" cy="237.98" r="5.88"/><circle id="_Path_74" data-name="&lt;Path&gt;" class="cls-32" cx="311.51" cy="280.22" r="5.88"/></g></g></g><path id="_Path_75" data-name="&lt;Path&gt;" class="cls-22" d="M291.89,245.27c0,14.89-14.28,27-31.82,27s-31.82-12.12-31.82-27a23.2,23.2,0,0,1,.61-5.28h62.42A23.2,23.2,0,0,1,291.89,245.27Z"/><path id="_Path_76" data-name="&lt;Path&gt;" class="cls-8" d="M233.25,245.27c0,12.16,12,22,26.82,22s26.82-9.86,26.82-22a18.09,18.09,0,0,0-.78-5.28H234A18.09,18.09,0,0,0,233.25,245.27Z"/><path id="_Rectangle_8" data-name="&lt;Rectangle&gt;" class="cls-8" d="M257.67,210.87h4.8a6.3,6.3,0,0,1,6.3,6.3v18.6a8.7,8.7,0,0,1-8.7,8.7h0a8.7,8.7,0,0,1-8.7-8.7v-18.6a6.3,6.3,0,0,1,6.3-6.3Z" transform="translate(520.14 455.34) rotate(180)"/><path class="cls-5" d="M236.29,381.13v-37.8a4.63,4.63,0,0,0-4.63-4.63H191.25a4.63,4.63,0,0,0-4.63,4.63v37.8h-31v83.25a21.25,21.25,0,0,0,21.25,21.25h67.5a21.25,21.25,0,0,0,21.25-21.25V381.13Zm-39.66-27.8a4.63,4.63,0,0,1,4.63-4.63h20.41a4.63,4.63,0,0,1,4.63,4.63v27.8H196.63Z"/><g id="_Group_6" data-name="&lt;Group&gt;"><path id="_Path_77" data-name="&lt;Path&gt;" class="cls-33" d="M297.07,136.16s11.2-2.28,11.2,20.5a99.51,99.51,0,0,1-2.9,22.35l-17-19.71-17.6-7.87,22-7.94Z"/><g id="_Group_7" data-name="&lt;Group&gt;"><path id="_Path_78" data-name="&lt;Path&gt;" class="cls-17" d="M278,231.92c-26.82,1.44-41.09-18.38-45.47-43-4.62-25.93,12.74-47.38,33.78-47.45,23.93-.08,37.89,9.25,39.85,35.52,1.23,16.5-3.73,49.56-28.16,54.92Z"/><g id="_Group_8" data-name="&lt;Group&gt;"><line id="_Path_79" data-name="&lt;Path&gt;" class="cls-18" x1="301.5" y1="178.63" x2="291.41" y2="178.11"/><path id="_Path_80" data-name="&lt;Path&gt;" class="cls-18" d="M301.74,180.3a1.68,1.68,0,0,0-.15-3.35l-10.09-.51a1.68,1.68,0,1,0-.17,3.36l10.09.51A1.71,1.71,0,0,0,301.74,180.3Z"/></g><g id="_Group_9" data-name="&lt;Group&gt;"><line id="_Path_81" data-name="&lt;Path&gt;" class="cls-18" x1="275.13" y1="178.11" x2="265.04" y2="178.63"/><path id="_Path_82" data-name="&lt;Path&gt;" class="cls-18" d="M275.37,176.45a1.68,1.68,0,0,1-.15,3.35l-10.09.51a1.68,1.68,0,0,1-.17-3.36l10.09-.51A1.71,1.71,0,0,1,275.37,176.45Z"/></g><circle id="_Path_83" data-name="&lt;Path&gt;" cx="271.34" cy="189.01" r="2.27"/><circle id="_Path_84" data-name="&lt;Path&gt;" cx="295.67" cy="189.79" r="2.27"/><polygon id="_Path_85" data-name="&lt;Path&gt;" class="cls-20" points="283.71 185.76 283.41 205.56 287.66 204.6 283.71 185.76"/><path id="_Path_86" data-name="&lt;Path&gt;" class="cls-34" d="M282.53,218.53c5.7,0,10.71-3.09,10.71-6.61v-.83h-22v.83c0,3.2,3.35,6.61,9.57,6.61Z"/></g><ellipse id="_Path_87" data-name="&lt;Path&gt;" class="cls-33" cx="227.72" cy="140.08" rx="17.6" ry="13.75" transform="translate(8.13 292.6) rotate(-66.38)"/><path id="_Path_88" data-name="&lt;Path&gt;" class="cls-35" d="M237.07,191.87s11.8,2.2,10.2-10.4c6.4-1,37.6-14.2,50.19-45-7.94-16.1-22-18.28-37.39-15.69-22.68,3.83-46.75,20.89-33.4,64.88C227.67,189,233.87,189.38,237.07,191.87Z"/><g id="_Group_10" data-name="&lt;Group&gt;"><path id="_Path_89" data-name="&lt;Path&gt;" class="cls-17" d="M240.67,180.89s-1-2.23-4.42-4.62c-6.86-4.75-14.84-.9-11.8,7.24,2.12,5.68,5.75,19.75,10.19,14.68C238,194.31,240.5,188.39,240.67,180.89Z"/><polygon id="_Path_90" data-name="&lt;Path&gt;" class="cls-20" points="235.4 181.72 226.39 180.2 233.18 192.55 230.9 182.37 235.4 181.72"/></g><circle id="_Path_91" data-name="&lt;Path&gt;" class="cls-22" cx="233.08" cy="199.97" r="4.1"/></g><path class="cls-36" d="M190.39,337.25a4.63,4.63,0,0,0-4.63,4.63V383a4.63,4.63,0,0,0,4.63,4.63h.75a4.63,4.63,0,0,0,4.63-4.63V351.87a4.63,4.63,0,0,1,4.63-4.63h20.41a4.63,4.63,0,0,1,4.63,4.63v32.2a4.63,4.63,0,0,0,4.63,4.63h.75a4.63,4.63,0,0,0,4.63-4.63v-42.2a4.63,4.63,0,0,0-4.63-4.63Z"/><rect id="_Rectangle_9" data-name="&lt;Rectangle&gt;" class="cls-2" x="180.74" y="233.44" width="28.8" height="119.98" rx="14.4" ry="14.4" transform="translate(210.78 645.48) rotate(-148.92)"/><path class="cls-5" d="M423.85,327.38l-31.51,5.47-7.9-12,8.11-9.5a1.25,1.25,0,0,1,1.55-.29l29.81,16A.18.18,0,0,1,423.85,327.38Z"/><polyline class="cls-8" points="426.37 326.3 394.34 331.86 386.44 319.87 395.21 309.6"/><g class="cls-37"><rect class="cls-38" x="448.26" y="321.11" width="51.29" height="28.26" transform="translate(-66.35 122.89) rotate(-13.82)"/></g><rect class="cls-36" x="447.26" y="323.11" width="51.29" height="28.26" transform="translate(-66.86 122.7) rotate(-13.82)"/><path id="_Path_92" data-name="&lt;Path&gt;" class="cls-5" d="M428.74,351.56l18.68,10.06s16.23-1.08,21.7-4.11c6.37-3.53,10.77-12,11.48-13.59,1.9-4.33-22-1.29-22-1.29l-20-8.11Z"/><path id="_Path_93" data-name="&lt;Path&gt;" class="cls-8" d="M427.74,352.56l18.68,10.06s16.23-1.08,21.7-4.11c6.37-3.53,10.77-12,11.48-13.59,1.9-4.33-22-1.29-22-1.29l-19-9.11Z"/><path class="cls-36" d="M154.72,379.67h110a0,0,0,0,1,0,0v83.25a21.25,21.25,0,0,1-21.25,21.25H176a21.25,21.25,0,0,1-21.25-21.25V379.67A0,0,0,0,1,154.72,379.67Z"/><path id="_Path_94" data-name="&lt;Path&gt;" class="cls-9" d="M262.64,378.42s13.9.54,19.83-.24c3.58,7.58-7.23,12-7.23,12Z"/><path id="_Path_95" data-name="&lt;Path&gt;" class="cls-8" d="M250.67,395.62l18.52,9.87s16-1.14,21.44-4.16c6.28-3.52,10.6-11.88,11.3-13.49,1.86-4.29-21.74-1.18-21.74-1.18l-18.83-8.93Z"/><path id="_Path_96" data-name="&lt;Path&gt;" class="cls-2" d="M250.25,399l15-24.58-87.43-52.54A14.4,14.4,0,0,0,158,326.65h0a14.4,14.4,0,0,0,4.78,19.79Z"/><rect id="_Rectangle_10" data-name="&lt;Rectangle&gt;" class="cls-22" x="239.4" y="379.03" width="28.49" height="10.69" transform="translate(713.5 359.82) rotate(120.36)"/><path class="cls-5" d="M196.63,366.75l.11-14c0-2.59,2.06-3.77,4.64-3.77l21.3-.19-18.42-11.18-11.8,1.07a5.88,5.88,0,0,0-5.82,6v16.23Z"/><path class="cls-36" d="M195.76,367.12l.05-15a4.68,4.68,0,0,1,4.67-4.69l20.48-.13-17.38-10h-13.2a4.68,4.68,0,0,0-4.67,4.69v18.59Z"/><circle class="cls-39" cx="208.07" cy="428.97" r="24.61"/><rect class="cls-6" x="522.6" y="515.03" width="43.5" height="43.5"/><rect class="cls-39" x="490.26" y="495.51" width="29.67" height="67.46" transform="translate(-126.31 159.73) rotate(-16)"/><rect class="cls-36" x="504.18" y="517.6" width="14.83" height="14.83" transform="translate(-124.9 161.36) rotate(-16)"/><rect class="cls-39" x="526.42" y="456" width="29.67" height="67.46" transform="translate(926.56 1109.68) rotate(-164)"/><rect class="cls-36" x="527.34" y="478.09" width="14.83" height="14.83" transform="translate(914.96 1099.61) rotate(-164)"/><circle class="cls-36" cx="565.71" cy="544.95" r="20.33"/><circle class="cls-39" cx="569.04" cy="548.28" r="5.33"/><rect class="cls-40" x="530.42" y="508.45" width="33.14" height="33.14" transform="translate(-171.68 283.45) rotate(-25.25)"/><rect class="cls-40" x="489.19" y="478.42" width="33.14" height="33.14" transform="translate(-162.81 263) rotate(-25.25)"/><rect class="cls-36" x="557.17" y="472.94" width="30.67" height="32.62" rx="15.33" ry="15.33"/><rect class="cls-39" x="563.71" y="501.28" width="22.33" height="26.67"/><rect class="cls-2" x="473.09" y="482.4" width="130" height="14.67" rx="7.33" ry="7.33"/><rect class="cls-41" x="541.39" y="428.17" width="11.33" height="61.27" rx="5.67" ry="5.67" transform="translate(-128.26 227.03) rotate(-21.04)"/><rect class="cls-41" x="523.95" y="428.17" width="11.33" height="61.27" rx="5.67" ry="5.67" transform="translate(859.18 1077.18) rotate(-158.96)"/><path class="cls-2" d="M478.42,492.4,491,561.53a9.3,9.3,0,0,0,9.15,7.64h75.14a9.3,9.3,0,0,0,9.15-7.64l12.61-69.14Zm28.45,65.72a3.5,3.5,0,0,1-4-2.89l-6.58-40.47a3.5,3.5,0,1,1,6.91-1.12l6.58,40.47A3.5,3.5,0,0,1,506.87,558.11Zm15.24,0a3.5,3.5,0,0,1-3.77-3.2L515,514.08a3.5,3.5,0,0,1,7-.57l3.35,40.86A3.5,3.5,0,0,1,522.11,558.15Zm19.15-3.49a3.5,3.5,0,0,1-7,0v-41a3.5,3.5,0,0,1,7,0Zm15.93.29a3.5,3.5,0,0,1-7-.57l3.35-40.86a3.5,3.5,0,0,1,7,.57Zm22.06-40.19-6.58,40.47a3.5,3.5,0,1,1-6.91-1.12l6.58-40.47a3.5,3.5,0,1,1,6.91,1.12Z"/></svg>