<svg id="Layer_1" data-name="Layer 1" xmlns="http://www.w3.org/2000/svg" xmlns:xlink="http://www.w3.org/1999/xlink" viewBox="0 0 708.66 481.89"><defs><style>.cls-1,.cls-31,.cls-33,.cls-9{fill:none;}.cls-2{fill:#d1d0cf;}.cls-3{fill:#ffdc83;}.cls-11,.cls-4{fill:#fff;}.cls-5{fill:#ffc3c0;}.cls-6{fill:#bbd2ef;}.cls-7{fill:#fc5f51;}.cls-8{fill:#c0e4ed;}.cls-9{stroke:#b2b2b2;stroke-miterlimit:10;stroke-width:7px;}.cls-10{clip-path:url(#clip-path);}.cls-11{opacity:0.4;}.cls-12{clip-path:url(#clip-path-2);}.cls-13{fill:#4c836a;}.cls-14{fill:#49a579;}.cls-15{fill:#c6c6c6;}.cls-16{fill:#fec82b;}.cls-17{fill:#8ba9cc;}.cls-18{fill:#979797;}.cls-19{fill:#4d4e4e;}.cls-20{fill:#19e06f;}.cls-21{fill:gray;}.cls-22,.cls-23{fill:#333;}.cls-22{opacity:0.07;}.cls-24{fill:#515180;}.cls-25{fill:#ee4256;}.cls-26{fill:#515150;}.cls-27{fill:#b3b3b3;}.cls-28{fill:#acd2e2;}.cls-29{fill:#fcf47e;}.cls-30{opacity:0.23;}.cls-31{stroke:#3f3e3d;}.cls-31,.cls-33{stroke-linecap:round;stroke-linejoin:round;stroke-width:4px;fill-rule:evenodd;}.cls-32{opacity:0.25;}.cls-33{stroke:#aaa;}</style><clipPath id="clip-path"><path class="cls-1" d="M305.15,224.1h12.29a0,0,0,0,1,0,0v66.38a0,0,0,0,1,0,0H288.77a0,0,0,0,1,0,0v-50A16.38,16.38,0,0,1,305.15,224.1Z"/></clipPath><clipPath id="clip-path-2"><path class="cls-1" d="M317.35,224.1H346a0,0,0,0,1,0,0v66.38a0,0,0,0,1,0,0H333.72a16.38,16.38,0,0,1-16.37-16.37v-50A0,0,0,0,1,317.35,224.1Z" transform="translate(663.36 514.58) rotate(180)"/></clipPath></defs><title>CS-L2-U3</title><polygon class="cls-2" points="0 294.53 0 432.68 708.66 473.99 708.66 335.83 0 294.53"/><rect class="cls-3" x="385.58" y="151.32" width="85.16" height="163.65"/><rect class="cls-4" x="402.34" y="170.71" width="20.32" height="32.28"/><rect class="cls-4" x="433.67" y="170.71" width="20.32" height="32.28"/><rect class="cls-4" x="402.34" y="220.81" width="20.32" height="32.28"/><rect class="cls-4" x="433.67" y="220.81" width="20.32" height="32.28"/><rect class="cls-3" x="164.79" y="151.32" width="85.16" height="163.65"/><rect class="cls-4" x="181.55" y="170.71" width="20.32" height="32.28"/><rect class="cls-4" x="212.88" y="170.71" width="20.32" height="32.28"/><rect class="cls-4" x="181.55" y="220.81" width="20.32" height="32.28"/><rect class="cls-4" x="212.88" y="220.81" width="20.32" height="32.28"/><rect class="cls-5" x="177.88" y="202.16" width="27.65" height="4.64"/><rect class="cls-5" x="209.21" y="202.16" width="27.65" height="4.64"/><rect class="cls-5" x="177.88" y="250.77" width="27.65" height="4.64"/><rect class="cls-5" x="209.21" y="250.77" width="27.65" height="4.64"/><rect class="cls-5" x="399.3" y="202.16" width="27.65" height="4.64"/><rect class="cls-5" x="430.63" y="202.16" width="27.65" height="4.64"/><rect class="cls-5" x="399.3" y="250.77" width="27.65" height="4.64"/><rect class="cls-5" x="430.63" y="250.77" width="27.65" height="4.64"/><rect class="cls-4" x="230.7" y="292.01" width="173.39" height="36.74"/><path class="cls-6" d="M275.18,80.36h84.43a26.25,26.25,0,0,1,26.25,26.25V292.52a0,0,0,0,1,0,0H248.93a0,0,0,0,1,0,0V106.61A26.25,26.25,0,0,1,275.18,80.36Z"/><rect class="cls-4" x="260.24" y="96.5" width="20.32" height="32.28"/><rect class="cls-4" x="291.57" y="96.5" width="20.32" height="32.28"/><rect class="cls-4" x="322.9" y="96.5" width="20.32" height="32.28"/><rect class="cls-4" x="354.23" y="96.5" width="20.32" height="32.28"/><rect class="cls-4" x="260.24" y="145.2" width="20.32" height="32.28"/><rect class="cls-4" x="291.57" y="145.2" width="20.32" height="32.28"/><rect class="cls-4" x="322.9" y="145.2" width="20.32" height="32.28"/><rect class="cls-4" x="354.23" y="145.2" width="20.32" height="32.28"/><rect class="cls-4" x="242.9" y="203.89" width="148.99" height="8.05"/><rect class="cls-4" x="257.52" y="214.12" width="20.3" height="75.71"/><rect class="cls-4" x="254.77" y="211.34" width="25.8" height="3.51"/><rect class="cls-4" x="254.77" y="289.03" width="25.8" height="3.51"/><rect class="cls-4" x="356.97" y="214.12" width="20.3" height="75.71"/><rect class="cls-4" x="354.22" y="211.34" width="25.8" height="3.51"/><rect class="cls-4" x="354.22" y="289.03" width="25.8" height="3.51"/><path class="cls-7" d="M237.6,200.43l79.31-20.59a1.92,1.92,0,0,1,1,0l79.31,20.59a1.92,1.92,0,0,1-.48,3.77H238.08A1.92,1.92,0,0,1,237.6,200.43Z"/><path class="cls-8" d="M305.15,224.1h12.29a0,0,0,0,1,0,0v66.38a0,0,0,0,1,0,0H288.77a0,0,0,0,1,0,0v-50A16.38,16.38,0,0,1,305.15,224.1Z"/><path class="cls-9" d="M305.15,224.1h12.29a0,0,0,0,1,0,0v66.38a0,0,0,0,1,0,0H288.77a0,0,0,0,1,0,0v-50A16.38,16.38,0,0,1,305.15,224.1Z"/><g class="cls-10"><rect class="cls-11" x="257.14" y="239.08" width="86.83" height="9.46" transform="translate(-84.37 283.94) rotate(-45)"/><rect class="cls-11" x="257.14" y="258.38" width="86.83" height="9.46" transform="translate(-98.02 289.59) rotate(-45)"/></g><path class="cls-8" d="M317.35,224.1H346a0,0,0,0,1,0,0v66.38a0,0,0,0,1,0,0H333.72a16.38,16.38,0,0,1-16.37-16.37v-50A0,0,0,0,1,317.35,224.1Z" transform="translate(663.36 514.58) rotate(180)"/><path class="cls-9" d="M317.35,224.1H346a0,0,0,0,1,0,0v66.38a0,0,0,0,1,0,0H333.72a16.38,16.38,0,0,1-16.37-16.37v-50A0,0,0,0,1,317.35,224.1Z" transform="translate(663.36 514.58) rotate(180)"/><g class="cls-12"><rect class="cls-11" x="290.82" y="239.08" width="86.83" height="9.46" transform="translate(-74.51 307.75) rotate(-45)"/><rect class="cls-11" x="290.82" y="258.38" width="86.83" height="9.46" transform="translate(-88.15 313.4) rotate(-45)"/></g><polygon class="cls-13" points="427.77 295.83 439.63 275.3 451.49 295.83 427.77 295.83"/><polygon class="cls-13" points="422.61 311.55 439.63 282.07 456.65 311.55 422.61 311.55"/><polygon class="cls-13" points="419.06 325.87 439.63 290.23 460.21 325.87 419.06 325.87"/><path class="cls-14" d="M432.33,325.29A17.75,17.75,0,0,0,414.58,343h35.5A17.75,17.75,0,0,0,432.33,325.29Z"/><path class="cls-14" d="M458.26,316A27.06,27.06,0,0,0,431.2,343h54.13A27.06,27.06,0,0,0,458.26,316Z"/><path class="cls-14" d="M483.84,327.91A15.13,15.13,0,0,0,468.71,343H499A15.13,15.13,0,0,0,483.84,327.91Z"/><polygon class="cls-13" points="189.38 280.62 206.43 251.09 223.48 280.62 189.38 280.62"/><polygon class="cls-13" points="181.95 303.23 206.43 260.83 230.91 303.23 181.95 303.23"/><polygon class="cls-13" points="176.84 323.83 206.43 272.57 236.03 323.83 176.84 323.83"/><path class="cls-14" d="M157.29,318a15.18,15.18,0,0,0-15.18,15.18h30.35A15.18,15.18,0,0,0,157.29,318Z"/><path class="cls-14" d="M179.47,310.08a23.14,23.14,0,0,0-23.14,23.14h46.28A23.14,23.14,0,0,0,179.47,310.08Z"/><path class="cls-14" d="M201.34,320.28a12.94,12.94,0,0,0-12.94,12.94h25.88A12.94,12.94,0,0,0,201.34,320.28Z"/><rect class="cls-15" x="230.7" y="292.01" width="173.39" height="8.07"/><rect class="cls-15" x="230.7" y="307.94" width="173.39" height="8.07"/><rect class="cls-15" x="230.7" y="323.87" width="173.39" height="8.07"/><path class="cls-16" d="M231,278.6h0a6.82,6.82,0,0,1,6.82,6.82v52.09a0,0,0,0,1,0,0H224.16a0,0,0,0,1,0,0V285.42A6.82,6.82,0,0,1,231,278.6Z"/><path class="cls-16" d="M402.28,278.6h0a6.82,6.82,0,0,1,6.82,6.82v52.09a0,0,0,0,1,0,0H395.46a0,0,0,0,1,0,0V285.42A6.82,6.82,0,0,1,402.28,278.6Z"/><rect class="cls-17" x="256.35" y="126.74" width="27.65" height="4.64"/><rect class="cls-17" x="350.6" y="126.74" width="27.65" height="4.64"/><rect class="cls-17" x="319.19" y="126.74" width="27.65" height="4.64"/><rect class="cls-17" x="287.77" y="126.74" width="27.65" height="4.64"/><rect class="cls-17" x="256.35" y="173.5" width="27.65" height="4.64"/><rect class="cls-17" x="350.6" y="173.5" width="27.65" height="4.64"/><rect class="cls-17" x="319.19" y="173.5" width="27.65" height="4.64"/><rect class="cls-17" x="287.77" y="173.5" width="27.65" height="4.64"/><rect class="cls-18" x="518.28" y="254.22" width="7.28" height="105.68"/><rect class="cls-19" x="511.3" y="195.77" width="21.24" height="61.91" rx="10.62" ry="10.62"/><circle class="cls-7" cx="521.92" cy="208.43" r="6.57"/><circle class="cls-16" cx="521.92" cy="226.72" r="6.57"/><circle class="cls-20" cx="521.92" cy="245.01" r="6.57"/><rect class="cls-21" x="515.69" y="329.69" width="12.44" height="30.22"/><path class="cls-22" d="M551.17,395.39l.89,3.34.76-15.49-.41-4.07a23.18,23.18,0,0,0-1-4.65l.92,0-1.57-1.83a23.19,23.19,0,0,0-2.17-4.1l-1.38-2.07c-6.88-27.5-94.62-32.41-94.62-32.41s-41.58-23.25-63.19-31.43-60.9-7.2-91.35-6.88c-25.59.28-63,4.71-74.25,6.12a1.92,1.92,0,0,0-1.28,3.09l.22.29c-7.53,6.22-28.48,29.47-31.1,35a18.55,18.55,0,0,0-1.29,5.9h-.94a50.7,50.7,0,0,0-.56,10.67,16.56,16.56,0,0,1-.24,3.38h.53a16.76,16.76,0,0,1-3.57,5.67l-.84.88a7.66,7.66,0,0,0-2,3.88,104.09,104.09,0,0,0-1.16,16.31,10.19,10.19,0,0,0,8.06,10l18.38,3.92h0l2.73.23a31.12,31.12,0,0,0,59.58,10.1H458a31.12,31.12,0,0,0,59.18-3.69h.17c.83,0,1.54-.05,2.1-.09,10.15-.65,31.76-6.87,31.76-6.87,1.17-.35,1.25-1.08.88-1.87A9.75,9.75,0,0,1,551.17,395.39Z"/><polygon class="cls-23" points="278.58 404.96 211.88 399.39 206.31 348.09 281.62 348.09 290.68 393.09 278.58 404.96"/><polygon class="cls-23" points="521.14 406.03 458.61 405.05 431.69 348.09 525.75 348.09 534.81 393.08 521.14 406.03"/><path class="cls-24" d="M555,393.85l.89,3.35.76-15.49-.41-4.07a23.19,23.19,0,0,0-3.78-10.56L551.07,365c-6.88-27.5-94.62-32.41-94.62-32.41s-41.58-23.25-63.19-31.43-60.9-7.2-91.35-6.88c-25.59.28-63,4.71-74.25,6.12a1.92,1.92,0,0,0-1.28,3.09l.22.29c-7.53,6.22-28.48,29.47-31.1,35-1.44,3.06-1.59,8.9-1.44,13.54a16.69,16.69,0,0,1-4.63,12.09l-.84.88a7.66,7.66,0,0,0-2,3.88,104.1,104.1,0,0,0-1.16,16.31,10.19,10.19,0,0,0,8.06,10l18.38,3.92,1,.08a33.5,33.5,0,1,1,64.55,5.2L281,405H455.14l3.46.09a33.51,33.51,0,1,1,62.53,1c.83,0,1.54-.05,2.1-.09,10.15-.65,31.76-6.87,31.76-6.87,1.17-.35,1.25-1.08.88-1.87A9.75,9.75,0,0,1,555,393.85Z"/><rect class="cls-23" x="234.48" y="403.11" width="269.95" height="6.36"/><path class="cls-25" d="M211.16,358.78a3.37,3.37,0,0,0,3.37-3.37V348.1a3.37,3.37,0,0,0-3.37-3.37H193.27a50.7,50.7,0,0,0-.56,10.67,16.56,16.56,0,0,1-.24,3.38Z"/><circle class="cls-26" cx="245.65" cy="397.33" r="31.12"/><circle class="cls-27" cx="245.65" cy="397.33" r="20.92"/><circle class="cls-23" cx="245.65" cy="397.33" r="5.07"/><circle class="cls-26" cx="490.79" cy="398.42" r="31.12"/><circle class="cls-27" cx="490.79" cy="398.42" r="20.92"/><circle class="cls-23" cx="490.79" cy="398.42" r="5.07"/><path class="cls-28" d="M343.38,299.32l8.73,31.43L449,337.3C397.94,295.5,343.38,299.32,343.38,299.32Z"/><path class="cls-28" d="M287.14,300.69h0l-3.16.17v0l-2.88.2c-1,.06-3.28.25-7.17.85-4.32.66-10.51,15.18-13.1,20.52-3.49,7.2,2.4,6.55,2.4,6.55l17.87.18v0l5.93.21h0l55,1.75-4.8-31.65C329.2,298.55,297.33,300.14,287.14,300.69Z"/><path class="cls-22" d="M375.35,350.46c0,1.33-1.08,1.77-2.41,1.77h-12c-1.33,0-2.41-.44-2.41-1.77h0c0-1.33,1.08-1.77,2.41-1.77h12c1.33,0,2.41.44,2.41,1.77Z"/><path class="cls-23" d="M375.35,349.76c0,1.33-1.08,1.77-2.41,1.77h-12c-1.33,0-2.41-.44-2.41-1.77h0c0-1.33,1.08-1.77,2.41-1.77h12c1.33,0,2.41.44,2.41,1.77Z"/><path class="cls-29" d="M521.92,360.51v2.64S525,373.73,531,374a40.15,40.15,0,0,0,11.39-1.12c1.83-.31,13.83.1,13.83.1l-6.51-7.63Z"/><g class="cls-30"><path class="cls-31" d="M437.22,77.7a8.66,8.66,0,1,1,17.32,0"/><path class="cls-31" d="M455.58,77.7a8.66,8.66,0,0,1,17.32,0"/></g><g class="cls-32"><path class="cls-31" d="M391.79,51.58a8.66,8.66,0,1,1,17.32,0"/><path class="cls-31" d="M410.16,51.58a8.66,8.66,0,1,1,17.32,0"/></g><circle class="cls-3" cx="533.02" cy="103.69" r="46.63"/><path class="cls-33" d="M489.26,45a8.66,8.66,0,1,1,17.32,0"/><path class="cls-33" d="M507.63,45a8.66,8.66,0,0,1,17.32,0"/></svg>