<svg id="Layer_1" data-name="Layer 1" xmlns="http://www.w3.org/2000/svg" xmlns:xlink="http://www.w3.org/1999/xlink" viewBox="0 0 708.66 458.62"><defs><style>.cls-1,.cls-11,.cls-14,.cls-2,.cls-28,.cls-29,.cls-32{fill:none;}.cls-1{clip-rule:evenodd;}.cls-3{fill:#d1d3d4;}.cls-11,.cls-20,.cls-22,.cls-3,.cls-33,.cls-34,.cls-5,.cls-7{fill-rule:evenodd;}.cls-4,.cls-5{fill:#e6e7e8;}.cls-22,.cls-6{fill:#dc846a;}.cls-7{fill:#c0e4ed;}.cls-38,.cls-7{opacity:0.4;}.cls-8{opacity:0.8;}.cls-9{clip-path:url(#clip-path);}.cls-10,.cls-34{fill:#e7685d;}.cls-11{stroke:#a1ccd6;stroke-width:1.64px;}.cls-11,.cls-14,.cls-29,.cls-32{stroke-miterlimit:10;}.cls-12,.cls-20{fill:#f8ab8d;}.cls-13{fill:#648ec9;}.cls-14{stroke:#fec82b;stroke-width:2px;}.cls-15{fill:#b97d4f;}.cls-16{fill:#515180;}.cls-17{fill:#4d4e4e;}.cls-18{fill:#fec82b;}.cls-19{fill:#54402b;}.cls-21{fill:#8b6339;}.cls-23,.cls-30,.cls-31,.cls-33{fill:#fff;}.cls-24{fill:#6c4e38;}.cls-25{fill:#ee4256;}.cls-26{fill:#fec228;}.cls-27{fill:#754d24;}.cls-28{stroke:#dc846a;stroke-linejoin:round;stroke-width:1.33px;}.cls-28,.cls-29,.cls-32{stroke-linecap:round;}.cls-29{stroke:#3f5aa8;stroke-width:2.35px;}.cls-30{font-size:78.29px;}.cls-30,.cls-31{font-family:Impact, Impact;}.cls-31{font-size:53.88px;}.cls-32{stroke:#515180;stroke-width:7px;}.cls-35{clip-path:url(#clip-path-2);}.cls-36{fill:#3f5aa8;}.cls-37{clip-path:url(#clip-path-3);}.cls-39{fill:#58595b;}.cls-40{clip-path:url(#clip-path-4);}</style><clipPath id="clip-path"><path id="_Clipping_Path_" data-name="&lt;Clipping Path&gt;" class="cls-1" d="M325.38,73.14,307.22,53.47l-3.86-17.12a1.42,1.42,0,0,0,.85-1.62h0a1.42,1.42,0,0,0-1.7-1.07L294,35.58a1.42,1.42,0,0,0-1.07,1.7h0a1.42,1.42,0,0,0,1.46,1.1l3.86,17.12-8,25.56a5.83,5.83,0,0,0,6.85,7.42l25.26-5.7A5.83,5.83,0,0,0,325.38,73.14Z"/></clipPath><clipPath id="clip-path-2"><path id="_Clipping_Path_2" data-name="&lt;Clipping Path&gt;" class="cls-1" d="M455,87.29l-.82-26.09a1.73,1.73,0,0,0-.11-3.43h-.21l-9.28.29h-.21a1.73,1.73,0,0,0,.11,3.43l.82,26.09a15.51,15.51,0,1,0,9.7-.3Z"/></clipPath><clipPath id="clip-path-3"><path id="_Clipping_Path_3" data-name="&lt;Clipping Path&gt;" class="cls-2" d="M181.38,65.43H182l20-.12,0,4.81a7.2,7.2,0,0,1-7.16,7.24l-6,0c-2.25,0-4.27-2.45-5.65-5a1.7,1.7,0,0,0-3,0c-1.35,2.56-3.35,5-5.6,5.06l-6,0a7.2,7.2,0,0,1-7.24-7.16l0-4.81Z"/></clipPath><clipPath id="clip-path-4"><path id="_Clipping_Path_4" data-name="&lt;Clipping Path&gt;" class="cls-2" d="M590.55,50.17h.65l20-.12,0,4.81a7.2,7.2,0,0,1-7.16,7.24l-6,0c-2.25,0-4.27-2.45-5.65-5a1.7,1.7,0,0,0-3,0c-1.35,2.56-3.35,5-5.6,5.06l-6,0a7.2,7.2,0,0,1-7.24-7.16l0-4.81Z"/></clipPath></defs><title>CS-L2-U25</title><path id="_Path_" data-name="&lt;Path&gt;" class="cls-3" d="M334.11,371.89a62.66,62.66,0,1,1,125.32,0"/><path id="_Path_2" data-name="&lt;Path&gt;" class="cls-3" d="M204.46,371.89a101.41,101.41,0,0,1,202.83,0"/><circle id="_Path_3" data-name="&lt;Path&gt;" class="cls-4" cx="444.67" cy="337.92" r="16.01"/><g id="_Group_" data-name="&lt;Group&gt;"><path id="_Path_4" data-name="&lt;Path&gt;" class="cls-5" d="M507.67,381.77a48.84,48.84,0,1,0-97.69,0"/><path id="_Path_5" data-name="&lt;Path&gt;" class="cls-5" d="M608.73,381.77a79.05,79.05,0,1,0-158.1,0"/><path id="_Path_6" data-name="&lt;Path&gt;" class="cls-5" d="M654.47,381.77a41,41,0,1,0-82,0"/></g><circle id="_Path_7" data-name="&lt;Path&gt;" class="cls-4" cx="620.18" cy="324.78" r="11.45"/><circle id="_Path_8" data-name="&lt;Path&gt;" class="cls-4" cx="634.51" cy="310.51" r="4.44"/><circle id="_Path_9" data-name="&lt;Path&gt;" class="cls-4" cx="107.1" cy="341.58" r="24.42"/><g id="_Group_2" data-name="&lt;Group&gt;"><path id="_Path_10" data-name="&lt;Path&gt;" class="cls-5" d="M203.21,408.47a74.51,74.51,0,0,0-149,0"/><path id="_Path_11" data-name="&lt;Path&gt;" class="cls-5" d="M357.37,408.47a120.59,120.59,0,1,0-241.17,0"/><path id="_Path_12" data-name="&lt;Path&gt;" class="cls-5" d="M427.14,408.47a62.56,62.56,0,0,0-125.11,0"/></g><circle id="_Path_13" data-name="&lt;Path&gt;" class="cls-4" cx="374.83" cy="321.54" r="17.46"/><circle id="_Path_14" data-name="&lt;Path&gt;" class="cls-4" cx="396.69" cy="299.77" r="6.77"/><path id="_Path_15" data-name="&lt;Path&gt;" class="cls-6" d="M294,64.38s8-4.87,11.74-6.36c-.38-5.63-8.19-4.69-8.19-4.69Z"/><path id="_Path_16" data-name="&lt;Path&gt;" class="cls-7" d="M325.38,73.14,307.22,53.47l-3.86-17.12a1.42,1.42,0,0,0,.85-1.62h0a1.42,1.42,0,0,0-1.7-1.07L294,35.58a1.42,1.42,0,0,0-1.07,1.7h0a1.42,1.42,0,0,0,1.46,1.1l3.86,17.12-8,25.56a5.83,5.83,0,0,0,6.85,7.42l25.26-5.7A5.83,5.83,0,0,0,325.38,73.14Z"/><g id="_Clip_Group_" data-name="&lt;Clip Group&gt;" class="cls-8"><g class="cls-9"><rect id="_Rectangle_" data-name="&lt;Rectangle&gt;" class="cls-10" x="283.53" y="65.05" width="46.73" height="23.31" transform="translate(-9.36 69.43) rotate(-12.71)"/></g></g><path id="_Path_17" data-name="&lt;Path&gt;" class="cls-11" d="M325.38,73.14,307.22,53.47l-3.86-17.12a1.42,1.42,0,0,0,.85-1.62h0a1.42,1.42,0,0,0-1.7-1.07L294,35.58a1.42,1.42,0,0,0-1.07,1.7h0a1.42,1.42,0,0,0,1.46,1.1l3.86,17.12-8,25.56a5.83,5.83,0,0,0,6.85,7.42l25.26-5.7A5.83,5.83,0,0,0,325.38,73.14Z"/><path id="_Path_18" data-name="&lt;Path&gt;" class="cls-12" d="M185.72,116h0a7,7,0,0,1,6-7.81l59.41-7.21a7,7,0,0,1,7.81,6h0a7,7,0,0,1-6,7.81L193.53,122A7,7,0,0,1,185.72,116Z"/><g id="_Clip_Group_2" data-name="&lt;Clip Group&gt;"><path id="_Clipping_Path_5" data-name="&lt;Clipping Path&gt;" class="cls-13" d="M234.9,118.84l-2.13-17.36-43.37,5.15a8.77,8.77,0,0,0-7.61,9.75h0a8.77,8.77,0,0,0,9.75,7.61Z"/></g><path id="_Path_19" data-name="&lt;Path&gt;" class="cls-12" d="M248.23,113h0a7,7,0,0,0,9.77-1.23l36.25-47.62A7,7,0,0,0,293,54.39h0a7,7,0,0,0-9.77,1.23L247,103.24A7,7,0,0,0,248.23,113Z"/><path id="_Path_20" data-name="&lt;Path&gt;" class="cls-12" d="M281.29,58.19l7.66-11.87s9.81-4.59,14-4.58c4.85,0,10.13,3.52,11.06,4.23,2.5,1.91-12.4,7.82-12.4,7.82l-8.15,11.42Z"/><line id="_Path_21" data-name="&lt;Path&gt;" class="cls-14" x1="228.75" y1="119.57" x2="226.8" y2="102.19"/><path id="_Path_22" data-name="&lt;Path&gt;" class="cls-6" d="M213.56,182s9.32-.93,13.2-2c3.09,4.72-3.71,8.67-3.71,8.67Z"/><path id="_Path_23" data-name="&lt;Path&gt;" class="cls-6" d="M464.18,88.57s-9.3-1.15-13.32-1c-2-5.29,5.53-7.64,5.53-7.64Z"/><path id="_Path_24" data-name="&lt;Path&gt;" class="cls-12" d="M584.55,97.12h0a7,7,0,0,0-8.18-5.48l-58.6,12.14a7,7,0,0,0-5.48,8.18h0a7,7,0,0,0,8.18,5.48l58.6-12.14A7,7,0,0,0,584.55,97.12Z"/><g id="_Clip_Group_3" data-name="&lt;Clip Group&gt;"><path id="_Clipping_Path_6" data-name="&lt;Clipping Path&gt;" class="cls-13" d="M538.87,115.55l-3.52-17.13,42.74-9a8.77,8.77,0,0,1,10.33,6.81h0a8.77,8.77,0,0,1-6.81,10.33Z"/></g><path id="_Path_25" data-name="&lt;Path&gt;" class="cls-12" d="M525.87,114.08h0a7,7,0,0,1-9.41,2.9L463.83,88.48a7,7,0,0,1-2.9-9.41h0a7,7,0,0,1,9.41-2.9L523,104.67A7,7,0,0,1,525.87,114.08Z"/><line id="_Path_26" data-name="&lt;Path&gt;" class="cls-14" x1="544.93" y1="114.28" x2="541.23" y2="97.18"/><path id="_Path_27" data-name="&lt;Path&gt;" class="cls-6" d="M544.78,167.17s-9.32-.93-13.2-2c-3.09,4.72,3.71,8.67,3.71,8.67Z"/><path id="_Path_28" data-name="&lt;Path&gt;" class="cls-10" d="M231.54,234l293.54-9.75a8.78,8.78,0,0,0,8.48-9.06l-3.37-101.55a8.78,8.78,0,0,0-9.06-8.48L227.58,114.9A8.78,8.78,0,0,0,219.1,124l1.69,50.78,1.69,50.78A8.78,8.78,0,0,0,231.54,234Z"/><path id="_Path_29" data-name="&lt;Path&gt;" class="cls-10" d="M546.55,337.1h0a8.82,8.82,0,0,0-6.7,10.52l13.53,61a8.82,8.82,0,0,0,10.52,6.7h0c4.76-1.05,7.76-4.77,6.7-9.52l-.35-1.59-13.18-60.44A8.82,8.82,0,0,0,546.55,337.1Z"/><path id="_Path_30" data-name="&lt;Path&gt;" class="cls-15" d="M571.71,407v10.77l-53.24-1v-1.08a4.28,4.28,0,0,1,3.2-4.14L550,404.13a7.9,7.9,0,0,1,4,0c7.57,2,12.89,2.09,15.62,1.28A1.64,1.64,0,0,1,571.71,407Z"/><path id="_Path_31" data-name="&lt;Path&gt;" class="cls-16" d="M529.1,304l.5.42A11.06,11.06,0,0,0,545.19,303l61.52-72.47L589.25,215.9l-61.52,72.47A11.06,11.06,0,0,0,529.1,304Z"/><path id="_Path_32" data-name="&lt;Path&gt;" class="cls-16" d="M534.05,284.38h0A11.39,11.39,0,0,0,525.42,298l16.51,102.4,34.29-6.65L547.65,293A11.39,11.39,0,0,0,534.05,284.38Z"/><path id="_Rectangle_2" data-name="&lt;Rectangle&gt;" class="cls-16" d="M615.54,215.1h.65a11.06,11.06,0,0,1,11.06,11.06V322a0,0,0,0,1,0,0H604.48a0,0,0,0,1,0,0V226.16A11.06,11.06,0,0,1,615.54,215.1Z" transform="translate(1164.91 655.79) rotate(-168.36)"/><path id="_Path_33" data-name="&lt;Path&gt;" class="cls-10" d="M610.4,351h0a8.82,8.82,0,0,0-8,9.56l5.48,62.27a8.82,8.82,0,0,0,9.56,8h0a8.82,8.82,0,0,0,8-9.56l-.14-1.62L620,359A8.82,8.82,0,0,0,610.4,351Z"/><path id="_Path_34" data-name="&lt;Path&gt;" class="cls-16" d="M605.84,300.09h0a11.39,11.39,0,0,0-10.35,12.34l2.92,103.68,35-3.08-15.22-102.6A11.39,11.39,0,0,0,605.84,300.09Z"/><path id="_Path_35" data-name="&lt;Path&gt;" class="cls-15" d="M627.9,421v10.77H574.66v-1.08a4.28,4.28,0,0,1,3.2-4.14l28.35-7.38a7.9,7.9,0,0,1,4,0c7.57,2,12.89,1.09,15.62.28A1.64,1.64,0,0,1,627.9,421Z"/><path id="_Path_36" data-name="&lt;Path&gt;" class="cls-17" d="M627.9,431.82V432c0,3.35-1.45,6.06-3.25,6.06H576.3c-.91,0-1.64-1.36-1.64-3.05v-3.17Z"/><path id="_Path_37" data-name="&lt;Path&gt;" class="cls-16" d="M632.53,219.62l-65,.52.39,20.86a11.16,11.16,0,0,0,11.25,11.07l42.65-.34a11.16,11.16,0,0,0,11.07-11.25Z"/><path id="_Path_38" data-name="&lt;Path&gt;" class="cls-10" d="M202.54,353.47h0a8.57,8.57,0,0,1,6.51,10.22L195.91,423a8.57,8.57,0,0,1-10.22,6.51h0a8.57,8.57,0,0,1-6.51-10.22l.34-1.54L192.31,360A8.57,8.57,0,0,1,202.54,353.47Z"/><path id="_Path_39" data-name="&lt;Path&gt;" class="cls-16" d="M216.52,320.47h0a11.06,11.06,0,0,1-14.49-5.9l-36-92.51,20.39-8.59,36,92.51A11.06,11.06,0,0,1,216.52,320.47Z"/><path id="_Path_40" data-name="&lt;Path&gt;" class="cls-16" d="M214.68,299.66h0a11.06,11.06,0,0,1,8.39,13.21l-16,99.48-33.31-7.43,27.75-96.87A11.06,11.06,0,0,1,214.68,299.66Z"/><path id="_Rectangle_3" data-name="&lt;Rectangle&gt;" class="cls-16" d="M133.29,213.69h22.13a0,0,0,0,1,0,0v99.78a11.06,11.06,0,0,1-11.06,11.06h0a11.06,11.06,0,0,1-11.06-11.06V213.69a0,0,0,0,1,0,0Z"/><path id="_Path_41" data-name="&lt;Path&gt;" class="cls-10" d="M144.28,352.55h0a8.57,8.57,0,0,1,8.57,8.57v60.73a8.57,8.57,0,0,1-8.57,8.57h0a8.57,8.57,0,0,1-8.57-8.57V361.12A8.57,8.57,0,0,1,144.28,352.55Z"/><path id="_Path_42" data-name="&lt;Path&gt;" class="cls-16" d="M144.35,302.87h0a11.06,11.06,0,0,1,11.06,11.06l6,100.59H127.29l6-100.59A11.06,11.06,0,0,1,144.35,302.87Z"/><path id="_Path_43" data-name="&lt;Path&gt;" class="cls-16" d="M133.65,218.08l63.13.51-.38,20.26a10.84,10.84,0,0,1-10.93,10.76L144,249.28a10.84,10.84,0,0,1-10.76-10.93Z"/><path id="_Path_44" data-name="&lt;Path&gt;" class="cls-18" d="M142.5,102.32h44.12a15.76,15.76,0,0,1,15.76,15.76s-4,39.39-4,52.53c0,17.07,4,68.28,4,68.28H126.74s4.73-50.63,4.73-67.51c0-13.33-4.73-53.3-4.73-53.3A15.76,15.76,0,0,1,142.5,102.32Z"/><path id="_Path_45" data-name="&lt;Path&gt;" class="cls-19" d="M190.63,36.15S198,34.65,198,49.6a65.35,65.35,0,0,1-1.9,14.67L184.92,51.33l-11.56-5.17,14.44-5.22Z"/><path id="_Path_46" data-name="&lt;Path&gt;" class="cls-20" d="M178.08,99c-17.61.95-27-12.07-29.86-28.23-3-17,8.37-31.11,22.18-31.16,15.71-.05,24.88,6.08,26.17,23.33.81,10.83-2.45,32.54-18.49,36.07Z"/><g id="_Group_3" data-name="&lt;Group&gt;"><line id="_Path_47" data-name="&lt;Path&gt;" class="cls-21" x1="193.54" y1="62.03" x2="186.91" y2="61.69"/><path id="_Path_48" data-name="&lt;Path&gt;" class="cls-21" d="M193.7,63.12a1.11,1.11,0,0,0-.1-2.2L187,60.59a1.11,1.11,0,0,0-.11,2.21l6.63.34Z"/></g><g id="_Group_4" data-name="&lt;Group&gt;"><line id="_Path_49" data-name="&lt;Path&gt;" class="cls-21" x1="176.22" y1="61.69" x2="169.6" y2="62.03"/><path id="_Path_50" data-name="&lt;Path&gt;" class="cls-21" d="M176.38,60.6a1.11,1.11,0,0,1-.1,2.2l-6.63.34a1.11,1.11,0,1,1-.11-2.21l6.63-.34Z"/></g><circle id="_Path_51" data-name="&lt;Path&gt;" cx="173.74" cy="70.85" r="1.49"/><circle id="_Path_52" data-name="&lt;Path&gt;" cx="189.71" cy="71.36" r="1.49"/><polygon id="_Path_53" data-name="&lt;Path&gt;" class="cls-22" points="181.86 68.71 181.66 81.72 184.45 81.08 181.86 68.71"/><path id="_Path_54" data-name="&lt;Path&gt;" class="cls-23" d="M181.08,90.23c3.75,0,7-2,7-4.34v-.54H173.67v.54c0,2.1,2.2,4.34,6.28,4.34Z"/><ellipse id="_Path_55" data-name="&lt;Path&gt;" class="cls-19" cx="145.09" cy="38.72" rx="11.56" ry="9.03" transform="translate(51.48 156.14) rotate(-66.38)"/><path id="_Path_56" data-name="&lt;Path&gt;" class="cls-24" d="M151.23,72.73s7.75,1.44,6.7-6.83c4.2-.66,24.69-9.32,33-29.55-5.22-10.57-14.48-12-24.55-10.3-14.89,2.51-30.7,13.72-21.93,42.61C145.06,70.81,149.13,71.09,151.23,72.73Z"/><g id="_Group_5" data-name="&lt;Group&gt;"><path id="_Path_57" data-name="&lt;Path&gt;" class="cls-20" d="M153.6,65.52a8.35,8.35,0,0,0-2.9-3c-4.5-3.12-9.75-.59-7.75,4.76,1.39,3.73,3.78,13,6.69,9.64A17.73,17.73,0,0,0,153.6,65.52Z"/><polygon id="_Path_58" data-name="&lt;Path&gt;" class="cls-22" points="150.13 66.06 144.22 65.06 148.68 73.17 147.18 66.49 150.13 66.06"/></g><circle id="_Path_59" data-name="&lt;Path&gt;" class="cls-25" cx="148.61" cy="78.04" r="2.69"/><path id="_Path_60" data-name="&lt;Path&gt;" class="cls-13" d="M180.34,104.64c0,6.56-6.28,11.89-14,11.89s-14-5.33-14-11.89a10.21,10.21,0,0,1,.27-2.32h27.48A10.21,10.21,0,0,1,180.34,104.64Z"/><path id="_Path_61" data-name="&lt;Path&gt;" class="cls-12" d="M154.53,104.64c0,5.35,5.29,9.69,11.8,9.69s11.81-4.34,11.81-9.69a8,8,0,0,0-.34-2.32H154.87A8,8,0,0,0,154.53,104.64Z"/><path id="_Rectangle_4" data-name="&lt;Rectangle&gt;" class="cls-12" d="M166.33,79.54h1.58A4.14,4.14,0,0,1,172,83.67v22.23a5.71,5.71,0,0,1-5.71,5.71h0a5.71,5.71,0,0,1-5.71-5.71V85.25a5.71,5.71,0,0,1,5.71-5.71Z" transform="translate(332.67 191.15) rotate(-180)"/><g id="_Group_6" data-name="&lt;Group&gt;"><g id="_Clip_Group_4" data-name="&lt;Clip Group&gt;"><path id="_Rectangle_5" data-name="&lt;Rectangle&gt;" class="cls-26" d="M588.72,87.12h29a23.59,23.59,0,0,1,23.59,23.59V223.79a0,0,0,0,1,0,0h-77a0,0,0,0,1,0,0V111.5A24.38,24.38,0,0,1,588.72,87.12Z"/></g></g><path id="_Path_62" data-name="&lt;Path&gt;" class="cls-12" d="M628.63,95.43h0a7,7,0,0,0-9.05,3.87L597.8,155a7,7,0,0,0,3.87,9.05h0a7,7,0,0,0,9.05-3.87l21.77-55.74A7,7,0,0,0,628.63,95.43Z"/><g id="_Clip_Group_5" data-name="&lt;Clip Group&gt;"><path id="_Clipping_Path_7" data-name="&lt;Clipping Path&gt;" class="cls-13" d="M619.18,143.77l-16.28-6.39,15.78-40.72A8.77,8.77,0,0,1,630,91.72h0A8.77,8.77,0,0,1,635,103.05Z"/></g><path id="_Path_63" data-name="&lt;Path&gt;" class="cls-12" d="M610.57,155.88h0A7,7,0,0,0,602,151l-57.61,16.2a7,7,0,0,0-4.9,8.54h0a7,7,0,0,0,8.54,4.9l57.61-16.2A7,7,0,0,0,610.57,155.88Z"/><path id="_Path_64" data-name="&lt;Path&gt;" class="cls-12" d="M551.17,179.75l-13.27,4.86s-10.59-2.25-13.91-4.76c-3.86-2.93-6-8.91-6.28-10-.85-3,14.61,1.22,14.61,1.22l13.38-4.21Z"/><line id="_Path_65" data-name="&lt;Path&gt;" class="cls-14" x1="621.42" y1="138" x2="605.07" y2="131.78"/><ellipse id="_Path_66" data-name="&lt;Path&gt;" class="cls-13" cx="602.83" cy="87.12" rx="10.45" ry="6.79"/><path id="_Path_67" data-name="&lt;Path&gt;" class="cls-12" d="M602.1,67.83h.2a5.53,5.53,0,0,0-5.5,5.7V85.7c0,3.15,2.35,4.12,5.5,4.12h-.1c3.15,0,5.6-1,5.6-4.12V73.52A5.7,5.7,0,0,0,602.1,67.83Z"/><path id="_Path_68" data-name="&lt;Path&gt;" class="cls-20" d="M592.09,82.42c18,1,27.58-12.33,30.52-28.86,3.1-17.4-8.55-31.8-22.67-31.85-16.06-.05-25.43,6.21-26.75,23.84-.83,11.07,2.5,33.26,18.9,36.86Z"/><path id="_Path_69" data-name="&lt;Path&gt;" class="cls-21" d="M625,30.77c1.78,4.58,1.79,11.47,1.55,15.86a4.38,4.38,0,0,0-3.75-.93,5.24,5.24,0,0,0-.6.14h0l-.29.1-.29.11-.31.14-.22.11-.36.2-.28.18-.28.19-.27.21-.27.22c-.17.15-.34.32-.5.48,0,0,0,0,0,0l-.1.12L619,48l-.06.08,0,0,0,0v0a.22.22,0,0,0,0,0v8a3.59,3.59,0,0,1-.85,2.68,4.35,4.35,0,0,1-.37.4,5.72,5.72,0,0,1-2.44.71c-2.09,0-4.19-1.71-4.19-3.8V53.39a4.13,4.13,0,0,0-3.79-4.13l-.73-.05c-.05-3.26,0-5.84,0-7.44,0-2-.71-3.3-5.11-3.75h-.13c-.38,0-.79-.07-1.24-.09h-.09c-.76,0-1.61-.06-2.56-.06H577.07l-.23-.06A10,10,0,0,1,571.3,34a6,6,0,0,1-1.12-4h5.61a11.36,11.36,0,0,1-2.88-4.86A26.54,26.54,0,0,1,571.62,19h9.29s9.3-6.77,19.64-5.89C616.85,14.48,622.23,25,622.23,25a17.57,17.57,0,0,1,7-1.25C627.16,26.17,625.91,27.25,625,30.77Z"/><path id="_Path_70" data-name="&lt;Path&gt;" class="cls-27" d="M599.86,37.91c-.76,0-1.61-.06-2.56-.06H577.07l-.23-.06A10,10,0,0,1,571.3,34a6,6,0,0,1-1.12-4s4.82,5.43,7.91,6l.24,0C581.46,36.51,595.31,37.57,599.86,37.91Z"/><g id="_Group_7" data-name="&lt;Group&gt;"><line id="_Path_71" data-name="&lt;Path&gt;" class="cls-21" x1="579.83" y1="47.53" x2="586.22" y2="47.21"/><path id="_Path_72" data-name="&lt;Path&gt;" class="cls-21" d="M579.68,48.59a1.07,1.07,0,0,1,.1-2.12l6.39-.32a1.07,1.07,0,0,1,.11,2.13l-6.39.32Z"/></g><g id="_Group_8" data-name="&lt;Group&gt;"><line id="_Path_73" data-name="&lt;Path&gt;" class="cls-21" x1="596.52" y1="47.21" x2="602.9" y2="47.53"/><path id="_Path_74" data-name="&lt;Path&gt;" class="cls-21" d="M596.37,46.15a1.07,1.07,0,0,0,.1,2.12l6.39.32a1.07,1.07,0,0,0,.11-2.13l-6.39-.32Z"/></g><circle id="_Path_75" data-name="&lt;Path&gt;" cx="598.92" cy="54.1" r="1.44"/><circle id="_Path_76" data-name="&lt;Path&gt;" cx="583.52" cy="54.59" r="1.44"/><path id="_Path_77" data-name="&lt;Path&gt;" class="cls-27" d="M571.62,19s3.6,8.2,8.69,10.29c4.32,1.77,25.41,2.44,25.41,2.44a36,36,0,0,1-6.54,1.56c-1.92.2-20.48.78-23.39-3.29A18.09,18.09,0,0,1,571.62,19Z"/><g id="_Group_9" data-name="&lt;Group&gt;"><path id="_Path_78" data-name="&lt;Path&gt;" class="cls-20" d="M618.12,48.77a8.46,8.46,0,0,1,2.94-3.08c4.57-3.16,9.88-.6,7.86,4.82-1.41,3.78-3.83,13.15-6.78,9.78A18,18,0,0,1,618.12,48.77Z"/><polygon id="_Path_79" data-name="&lt;Path&gt;" class="cls-22" points="621.63 49.32 627.63 48.31 623.11 56.53 624.63 49.76 621.63 49.32"/></g><polygon id="_Path_80" data-name="&lt;Path&gt;" class="cls-22" points="591.09 52.04 591.28 64.57 588.59 63.96 591.09 52.04"/><path id="_Path_81" data-name="&lt;Path&gt;" class="cls-28" d="M583.52,68.28a10.19,10.19,0,0,0,7.76,3.61h0A10.93,10.93,0,0,0,599,68.28"/><path id="_Path_82" data-name="&lt;Path&gt;" class="cls-17" d="M571.71,416.73v.16c0,3.35-1.45,6.06-3.25,6.06H520.11c-.91,0-1.64-1.36-1.64-3.05v-3.17Z"/><circle id="_Path_83" data-name="&lt;Path&gt;" class="cls-17" cx="545.29" cy="407.57" r="1.76" transform="translate(-84.83 149.88) rotate(-14.53)"/><circle id="_Path_84" data-name="&lt;Path&gt;" class="cls-17" cx="539.64" cy="409.04" r="1.76" transform="translate(-85.38 148.51) rotate(-14.53)"/><circle id="_Path_85" data-name="&lt;Path&gt;" class="cls-17" cx="533.99" cy="410.5" r="1.76" transform="translate(-85.93 147.14) rotate(-14.53)"/><line id="_Path_86" data-name="&lt;Path&gt;" class="cls-29" x1="545.29" y1="407.57" x2="543.97" y2="403.86"/><line id="_Path_87" data-name="&lt;Path&gt;" class="cls-29" x1="539.64" y1="409.04" x2="538.32" y2="405.33"/><line id="_Path_88" data-name="&lt;Path&gt;" class="cls-29" x1="533.99" y1="410.5" x2="532.67" y2="406.79"/><circle id="_Path_89" data-name="&lt;Path&gt;" class="cls-17" cx="601.47" cy="422.66" r="1.76" transform="translate(-86.82 164.46) rotate(-14.53)"/><circle id="_Path_90" data-name="&lt;Path&gt;" class="cls-17" cx="595.82" cy="424.13" r="1.76" transform="matrix(0.97, -0.25, 0.25, 0.97, -87.37, 163.09)"/><circle id="_Path_91" data-name="&lt;Path&gt;" class="cls-17" cx="590.17" cy="425.59" r="1.76" transform="translate(-87.92 161.72) rotate(-14.53)"/><line id="_Path_92" data-name="&lt;Path&gt;" class="cls-29" x1="601.47" y1="422.66" x2="600.16" y2="418.95"/><line id="_Path_93" data-name="&lt;Path&gt;" class="cls-29" x1="595.82" y1="424.13" x2="594.51" y2="420.41"/><line id="_Path_94" data-name="&lt;Path&gt;" class="cls-29" x1="590.17" y1="425.59" x2="588.85" y2="421.88"/><rect id="_Rectangle_6" data-name="&lt;Rectangle&gt;" class="cls-13" x="164.5" y="122.2" width="3.06" height="88.17" rx="1.53" ry="1.53" transform="translate(332.05 332.57) rotate(-180)"/><text class="cls-30" transform="translate(263.24 198.72) rotate(-0.84)">COSHH</text><path id="_Path_95" data-name="&lt;Path&gt;" class="cls-10" d="M317.57,316l107.76-2.2a9.47,9.47,0,0,0,9.27-9.66l-1.18-57.77a9.47,9.47,0,0,0-9.66-9.27L316,239.28a9.47,9.47,0,0,0-9.27,9.66l.59,28.88.59,28.88A9.47,9.47,0,0,0,317.57,316Z"/><text class="cls-31" transform="matrix(1, -0.02, 0.02, 1, 317.88, 301.99)">2002</text><circle id="_Path_96" data-name="&lt;Path&gt;" class="cls-23" cx="421.29" cy="216.68" r="6"/><circle id="_Path_97" data-name="&lt;Path&gt;" class="cls-23" cx="421.29" cy="245.68" r="6"/><line id="_Path_98" data-name="&lt;Path&gt;" class="cls-32" x1="421.29" y1="216.68" x2="421.29" y2="247.03"/><circle id="_Path_99" data-name="&lt;Path&gt;" class="cls-23" cx="317.54" cy="219.5" r="6"/><circle id="_Path_100" data-name="&lt;Path&gt;" class="cls-23" cx="317.54" cy="248.5" r="6"/><line id="_Path_101" data-name="&lt;Path&gt;" class="cls-32" x1="317.54" y1="219.5" x2="317.54" y2="249.85"/><g id="_Group_10" data-name="&lt;Group&gt;"><g id="_Group_11" data-name="&lt;Group&gt;"><rect id="_Rectangle_7" data-name="&lt;Rectangle&gt;" class="cls-23" x="496.99" y="114.58" width="3.89" height="37.98" transform="translate(125.29 490.17) rotate(-58.65)"/><g id="_Group_12" data-name="&lt;Group&gt;"><circle id="_Path_102" data-name="&lt;Path&gt;" class="cls-23" cx="482.23" cy="125.63" r="2.46" transform="matrix(0.52, -0.85, 0.85, 0.52, 124.05, 472.1)"/><circle id="_Path_103" data-name="&lt;Path&gt;" class="cls-23" cx="484.23" cy="122.36" r="2.46" transform="translate(127.8 472.23) rotate(-58.65)"/></g><g id="_Group_13" data-name="&lt;Group&gt;"><circle id="_Path_104" data-name="&lt;Path&gt;" class="cls-23" cx="514.36" cy="145.21" r="2.46" transform="translate(122.75 508.93) rotate(-58.65)"/><circle id="_Path_105" data-name="&lt;Path&gt;" class="cls-23" cx="516.36" cy="141.93" r="2.46" transform="translate(126.5 509.06) rotate(-58.65)"/></g></g><g id="_Group_14" data-name="&lt;Group&gt;"><rect id="_Rectangle_8" data-name="&lt;Rectangle&gt;" class="cls-23" x="497.57" y="114.44" width="3.89" height="37.98" transform="matrix(-0.85, -0.52, 0.52, -0.85, 856.68, 507.26)"/><g id="_Group_15" data-name="&lt;Group&gt;"><circle id="_Path_106" data-name="&lt;Path&gt;" class="cls-23" cx="510.72" cy="118.72" r="2.46" transform="translate(143.62 493.11) rotate(-58.65)"/><circle id="_Path_107" data-name="&lt;Path&gt;" class="cls-23" cx="507.45" cy="116.72" r="2.46" transform="translate(143.75 489.35) rotate(-58.65)"/></g><g id="_Group_16" data-name="&lt;Group&gt;"><circle id="_Path_108" data-name="&lt;Path&gt;" class="cls-23" cx="491.15" cy="150.85" r="2.46" transform="translate(106.79 491.8) rotate(-58.65)"/><circle id="_Path_109" data-name="&lt;Path&gt;" class="cls-23" cx="487.87" cy="148.85" r="2.46" transform="translate(106.93 488.05) rotate(-58.65)"/></g></g></g><g id="_Group_17" data-name="&lt;Group&gt;"><path class="cls-33" d="M497.92,146.73a4.07,4.07,0,0,1-4-3.11l-.24-1a11.61,11.61,0,1,1,14.58-3.54l.24,1a4.08,4.08,0,0,1-3,4.92l-6.65,1.62A4.1,4.1,0,0,1,497.92,146.73Z"/><path class="cls-10" d="M498.94,121a11.24,11.24,0,0,1,9,18l.28,1.14a3.71,3.71,0,0,1-2.73,4.48l-6.65,1.62a3.71,3.71,0,0,1-4.48-2.73l-.28-1.14A11.24,11.24,0,0,1,498.94,121m0-.73a12,12,0,0,0-5.52,22.6l.2.8A4.44,4.44,0,0,0,499,147l6.65-1.62A4.44,4.44,0,0,0,508.9,140l-.2-.8a12,12,0,0,0-9.77-18.89Z"/></g><path id="_Path_110" data-name="&lt;Path&gt;" class="cls-34" d="M498.4,138.57l.65-2.23a1,1,0,0,1,1.63-.39l1.61,1.68a1,1,0,0,1-.47,1.6l-2.26.55A1,1,0,0,1,498.4,138.57Z"/><g id="_Group_18" data-name="&lt;Group&gt;"><path id="_Rectangle_9" data-name="&lt;Rectangle&gt;" class="cls-10" d="M492.34,131.44h3.29a1.41,1.41,0,0,1,1.41,1.41v.93a2.46,2.46,0,0,1-2.46,2.46h-2.33a1.34,1.34,0,0,1-1.34-1.34v-2A1.41,1.41,0,0,1,492.34,131.44Z" transform="translate(-17.63 120.35) rotate(-13.65)"/><path id="_Rectangle_10" data-name="&lt;Rectangle&gt;" class="cls-10" d="M502.32,129h2.33a2.46,2.46,0,0,1,2.46,2.46v.93a1.41,1.41,0,0,1-1.41,1.41H502.4a1.41,1.41,0,0,1-1.41-1.41v-2a1.34,1.34,0,0,1,1.34-1.34Z" transform="translate(1024.86 140.15) rotate(166.35)"/></g><path id="_Path_111" data-name="&lt;Path&gt;" class="cls-7" d="M455,87.29l-.82-26.09a1.73,1.73,0,0,0-.11-3.43h-.21l-9.28.29h-.21a1.73,1.73,0,0,0,.11,3.43l.82,26.09a15.51,15.51,0,1,0,9.7-.3Z"/><g id="_Clip_Group_6" data-name="&lt;Clip Group&gt;" class="cls-8"><g class="cls-35"><rect id="_Rectangle_11" data-name="&lt;Rectangle&gt;" class="cls-36" x="434.41" y="100.67" width="37.71" height="19.45" transform="translate(-3.23 14.25) rotate(-1.79)"/></g></g><path id="_Path_112" data-name="&lt;Path&gt;" class="cls-11" d="M455,87.29l-.82-26.09a1.73,1.73,0,0,0-.11-3.43h-.21l-9.49.31a1.73,1.73,0,0,0,.11,3.43l.82,26.09a15.51,15.51,0,1,0,9.7-.3Z"/><g id="_Group_19" data-name="&lt;Group&gt;"><path id="_Path_113" data-name="&lt;Path&gt;" class="cls-13" d="M181.38,65.43H182l20-.12,0,4.81a7.2,7.2,0,0,1-7.16,7.24l-6,0c-2.25,0-4.27-2.45-5.65-5a1.7,1.7,0,0,0-3,0c-1.35,2.56-3.35,5-5.6,5.06l-6,0a7.2,7.2,0,0,1-7.24-7.16l0-4.81Z"/><g id="_Clip_Group_7" data-name="&lt;Clip Group&gt;"><g class="cls-37"><g id="_Group_20" data-name="&lt;Group&gt;" class="cls-38"><rect id="_Rectangle_12" data-name="&lt;Rectangle&gt;" class="cls-23" x="192.1" y="49.54" width="5.1" height="38.63" transform="translate(380.45 -21.17) rotate(134.67)"/><rect id="_Rectangle_13" data-name="&lt;Rectangle&gt;" class="cls-23" x="189.32" y="53.55" width="2.73" height="38.63" transform="translate(376.55 -11.51) rotate(134.67)"/><rect id="_Rectangle_14" data-name="&lt;Rectangle&gt;" class="cls-23" x="167.65" y="49.68" width="5.1" height="38.63" transform="translate(338.92 -3.54) rotate(134.67)"/><rect id="_Rectangle_15" data-name="&lt;Rectangle&gt;" class="cls-23" x="164.87" y="53.69" width="2.73" height="38.63" transform="translate(335.02 6.11) rotate(134.67)"/></g></g></g><polygon id="_Path_114" data-name="&lt;Path&gt;" class="cls-39" points="161.96 64.41 201.44 64.19 202.42 64.18 202.43 65.8 202.45 69.84 201.96 69.84 201.59 65.8 161.83 66.03 161.5 70.07 161.01 70.08 160.99 66.04 160.98 64.42 161.96 64.41"/></g><g id="_Group_21" data-name="&lt;Group&gt;"><path id="_Path_115" data-name="&lt;Path&gt;" class="cls-13" d="M590.55,50.17h.65l20-.12,0,4.81a7.2,7.2,0,0,1-7.16,7.24l-6,0c-2.25,0-4.27-2.45-5.65-5a1.7,1.7,0,0,0-3,0c-1.35,2.56-3.35,5-5.6,5.06l-6,0a7.2,7.2,0,0,1-7.24-7.16l0-4.81Z"/><g id="_Clip_Group_8" data-name="&lt;Clip Group&gt;"><g class="cls-40"><g id="_Group_22" data-name="&lt;Group&gt;" class="cls-38"><rect id="_Rectangle_16" data-name="&lt;Rectangle&gt;" class="cls-23" x="601.26" y="34.28" width="5.1" height="38.63" transform="translate(1066.42 -338.14) rotate(134.67)"/><rect id="_Rectangle_17" data-name="&lt;Rectangle&gt;" class="cls-23" x="598.48" y="38.29" width="2.73" height="38.63" transform="translate(1062.52 -328.48) rotate(134.67)"/><rect id="_Rectangle_18" data-name="&lt;Rectangle&gt;" class="cls-23" x="576.82" y="34.42" width="5.1" height="38.63" transform="translate(1024.89 -320.51) rotate(134.67)"/><rect id="_Rectangle_19" data-name="&lt;Rectangle&gt;" class="cls-23" x="574.04" y="38.44" width="2.73" height="38.63" transform="translate(1020.99 -310.86) rotate(134.67)"/></g></g></g><polygon id="_Path_116" data-name="&lt;Path&gt;" class="cls-39" points="571.13 49.16 610.6 48.93 611.59 48.92 611.59 50.54 611.62 54.58 611.13 54.58 610.75 50.55 571 50.77 570.67 54.81 570.18 54.82 570.16 50.78 570.15 49.16 571.13 49.16"/></g><path id="_Path_117" data-name="&lt;Path&gt;" class="cls-15" d="M176.72,418.65v10.77H230v-1.08a4.28,4.28,0,0,0-3.2-4.14l-28.35-7.38a7.9,7.9,0,0,0-4,0c-7.57,2-12.89,1.09-15.62.28A1.64,1.64,0,0,0,176.72,418.65Z"/><path id="_Path_118" data-name="&lt;Path&gt;" class="cls-17" d="M176.72,429.42v.16c0,3.35,1.45,6.06,3.25,6.06h48.35c.91,0,1.64-1.36,1.64-3.05v-3.17Z"/><circle id="_Path_119" data-name="&lt;Path&gt;" class="cls-17" cx="203.15" cy="420.27" r="1.76" transform="translate(-254.65 511.45) rotate(-75.47)"/><circle id="_Path_120" data-name="&lt;Path&gt;" class="cls-17" cx="208.8" cy="421.73" r="1.76" transform="matrix(0.25, -0.97, 0.97, 0.25, -251.84, 518.02)"/><circle id="_Path_121" data-name="&lt;Path&gt;" class="cls-17" cx="214.45" cy="423.2" r="1.76" transform="translate(-249.02 524.58) rotate(-75.47)"/><line id="_Path_122" data-name="&lt;Path&gt;" class="cls-29" x1="203.15" y1="420.27" x2="204.46" y2="416.56"/><line id="_Path_123" data-name="&lt;Path&gt;" class="cls-29" x1="208.8" y1="421.73" x2="210.11" y2="418.02"/><line id="_Path_124" data-name="&lt;Path&gt;" class="cls-29" x1="214.45" y1="423.2" x2="215.76" y2="419.49"/><path id="_Path_125" data-name="&lt;Path&gt;" class="cls-15" d="M133.29,422.26V433h53.24v-1.08a4.28,4.28,0,0,0-3.2-4.14L155,420.42a7.9,7.9,0,0,0-4,0c-7.57,2-12.89,1.09-15.62.28A1.64,1.64,0,0,0,133.29,422.26Z"/><path id="_Path_126" data-name="&lt;Path&gt;" class="cls-17" d="M133.29,433v.16c0,3.35,1.45,6.06,3.25,6.06h48.35c.91,0,1.64-1.36,1.64-3.05V433Z"/><circle id="_Path_127" data-name="&lt;Path&gt;" class="cls-17" cx="159.71" cy="423.87" r="1.76" transform="translate(-290.68 472.1) rotate(-75.47)"/><circle id="_Path_128" data-name="&lt;Path&gt;" class="cls-17" cx="165.36" cy="425.34" r="1.76" transform="translate(-287.86 478.67) rotate(-75.47)"/><circle id="_Path_129" data-name="&lt;Path&gt;" class="cls-17" cx="171.01" cy="426.8" r="1.76" transform="translate(-285.05 485.24) rotate(-75.47)"/><line id="_Path_130" data-name="&lt;Path&gt;" class="cls-29" x1="159.71" y1="423.87" x2="161.03" y2="420.16"/><line id="_Path_131" data-name="&lt;Path&gt;" class="cls-29" x1="165.36" y1="425.34" x2="166.68" y2="421.63"/><line id="_Path_132" data-name="&lt;Path&gt;" class="cls-29" x1="171.01" y1="426.8" x2="172.33" y2="423.09"/><path id="_Path_133" data-name="&lt;Path&gt;" class="cls-12" d="M473.18,77.71,461.31,70s-10.83-.14-14.62,1.58c-4.41,2-7.78,7.37-8.34,8.41-1.49,2.77,14.52,2,14.52,2L465,89.11Z"/><path id="_Path_134" data-name="&lt;Path&gt;" class="cls-12" d="M129.71,110.3h0a7,7,0,0,1,9.05,3.87l21.77,55.74a7,7,0,0,1-3.87,9.05h0a7,7,0,0,1-9.05-3.87l-21.77-55.74A7,7,0,0,1,129.71,110.3Z"/><g id="_Clip_Group_9" data-name="&lt;Clip Group&gt;"><path id="_Clipping_Path_8" data-name="&lt;Clipping Path&gt;" class="cls-13" d="M139.16,158.65l16.28-6.39-15.78-40.72a8.77,8.77,0,0,0-11.34-4.95h0a8.77,8.77,0,0,0-4.95,11.34Z"/></g><path id="_Path_135" data-name="&lt;Path&gt;" class="cls-12" d="M147.76,170.76h0a7,7,0,0,1,8.54-4.9l57.61,16.2a7,7,0,0,1,4.9,8.54h0a7,7,0,0,1-8.54,4.9l-57.61-16.2A7,7,0,0,1,147.76,170.76Z"/><path id="_Path_136" data-name="&lt;Path&gt;" class="cls-12" d="M207.17,194.63l13.27,4.86s10.59-2.25,13.91-4.76c3.86-2.93,6-8.91,6.28-10,.85-3-14.61,1.22-14.61,1.22l-13.38-4.21Z"/><line id="_Path_137" data-name="&lt;Path&gt;" class="cls-14" x1="136.92" y1="152.88" x2="153.27" y2="146.66"/><path id="_Path_138" data-name="&lt;Path&gt;" class="cls-5" d="M469.73,439.16a30.46,30.46,0,1,0-60.91,0"/><path id="_Path_139" data-name="&lt;Path&gt;" class="cls-5" d="M532.75,439.16a49.29,49.29,0,0,0-98.58,0"/></svg>