<svg id="Layer_1" data-name="Layer 1" xmlns="http://www.w3.org/2000/svg" xmlns:xlink="http://www.w3.org/1999/xlink" viewBox="0 0 708.66 481.89"><defs><style>.cls-1{fill:none;}.cls-2{fill:#f7e9b2;}.cls-3{fill:#c48562;}.cls-4{fill:#b57b5b;}.cls-5{fill:#7a7a7a;}.cls-6{fill:#bababa;}.cls-12,.cls-7{fill:#a8a8a8;}.cls-8{fill:#648ec9;}.cls-9{fill:#fff;}.cls-10{fill:#efeeee;}.cls-11{fill:#ee4256;}.cls-11,.cls-12{fill-rule:evenodd;}.cls-13{fill:#939393;}.cls-14{fill:#fcb97e;}.cls-15{fill:#ffcaad;}.cls-16{clip-path:url(#clip-path);}.cls-17{fill:#dd4439;}.cls-18{fill:#bc3633;}</style><clipPath id="clip-path"><rect class="cls-1" x="41.68" y="72.29" width="622" height="300.54" rx="67.36" ry="67.36"/></clipPath></defs><title>CS-L2-U9</title><rect class="cls-2" x="41.68" y="72.29" width="622" height="300.54" rx="67.36" ry="67.36"/><path class="cls-3" d="M418.31,166.13l-37.8,37.09-6.73,18.15L428.31,233l67.6-48.07C508.08,179.3,418.31,166.13,418.31,166.13Z"/><path class="cls-4" d="M442.27,182.55c-2.74,3.38-41.16,38.24-41.16,38.24l12.33-4.21L455,179.75l-4.45-3.47S445,179.18,442.27,182.55Z"/><path class="cls-4" d="M469.64,180.3c-2.74,3.38-41.16,38.24-41.16,38.24l12.33-4.21,41.57-36.83L477.93,174S472.38,176.92,469.64,180.3Z"/><rect class="cls-5" x="114.91" y="397.06" width="21.58" height="21.58"/><path class="cls-6" d="M125.7,222.07c-31.19,0-56.47,23.2-56.47,56.47s28.64,54.94,28.64,79.17h55.67c0-24.23,28.64-45.91,28.64-79.17S156.89,222.07,125.7,222.07Z"/><path class="cls-7" d="M125.7,366.34H97.87v25.87a21.63,21.63,0,0,0,21.57,21.57H132a21.63,21.63,0,0,0,21.57-21.57V366.34Z"/><path class="cls-5" d="M144.9,357.71h-47v8.63h55.67v-8.63Z"/><rect class="cls-5" x="264.5" y="397.06" width="21.58" height="21.58"/><path class="cls-6" d="M275.29,222.07c-31.19,0-56.47,23.2-56.47,56.47s28.64,54.94,28.64,79.17h55.67c0-24.23,28.64-45.91,28.64-79.17S306.47,222.07,275.29,222.07Z"/><path class="cls-7" d="M275.29,366.34H247.45V393.7a20.14,20.14,0,0,0,20.08,20.08H283a20.14,20.14,0,0,0,20.08-20.08V366.34Z"/><path class="cls-5" d="M294.49,357.71h-47v8.63h55.67v-8.63Z"/><rect class="cls-8" x="414.94" y="366.89" width="21.58" height="21.58"/><path class="cls-9" d="M425.73,191.91c-31.19,0-56.47,23.2-56.47,56.47s28.64,54.94,28.64,79.17h55.67c0-24.23,28.64-45.91,28.64-79.17S456.92,191.91,425.73,191.91Z"/><path class="cls-10" d="M425.73,336.18H397.9v27.66a19.84,19.84,0,0,0,19.78,19.78h16.1a19.84,19.84,0,0,0,19.78-19.78V336.18Z"/><path class="cls-8" d="M444.93,327.55h-47v8.63h55.67v-8.63Z"/><rect class="cls-5" x="563.67" y="397.06" width="21.58" height="21.58"/><path class="cls-6" d="M574.45,222.07c-31.19,0-56.47,23.2-56.47,56.47s28.64,54.94,28.64,79.17h55.67c0-24.23,28.64-45.91,28.64-79.17S605.64,222.07,574.45,222.07Z"/><path class="cls-7" d="M574.45,366.34H546.62v28.59a18.91,18.91,0,0,0,18.85,18.85h18a18.9,18.9,0,0,0,18.85-18.85V366.34Z"/><path class="cls-5" d="M593.66,357.71h-47v8.63h55.67v-8.63Z"/><path class="cls-11" d="M429.61,286h-8.24a4.13,4.13,0,0,1-4.12-4.12V258.55a4.13,4.13,0,0,1,4.12-4.12h4.1c5.63-.18,10.21-4.17,10.21-10a10,10,0,1,0-19.92,0c0,4.55-3.69,4.58-8.24,4.58s-8.24,0-8.24-4.58a26.44,26.44,0,1,1,34.44,25.2v12.22a4.13,4.13,0,0,1-4.12,4.12Zm0,20.59h-8.24a4.13,4.13,0,0,1-4.12-4.12V294.7a4.13,4.13,0,0,1,4.12-4.12h8.24a4.13,4.13,0,0,1,4.12,4.12v7.78a4.14,4.14,0,0,1-4.12,4.12Z"/><path class="cls-12" d="M279.17,316.17h-8.24a4.13,4.13,0,0,1-4.12-4.12V288.71a4.13,4.13,0,0,1,4.12-4.12H275c5.63-.18,10.21-4.17,10.21-10a10,10,0,1,0-19.92,0c0,4.55-3.69,4.58-8.24,4.58s-8.24,0-8.24-4.58a26.44,26.44,0,1,1,34.44,25.2v12.22a4.13,4.13,0,0,1-4.12,4.12Zm0,20.59h-8.24a4.13,4.13,0,0,1-4.12-4.12v-7.78a4.13,4.13,0,0,1,4.12-4.12h8.24a4.13,4.13,0,0,1,4.12,4.12v7.78a4.14,4.14,0,0,1-4.12,4.12Z"/><path class="cls-12" d="M128.19,316.17H120a4.13,4.13,0,0,1-4.12-4.12V288.71a4.13,4.13,0,0,1,4.12-4.12h4.1c5.63-.18,10.21-4.17,10.21-10a10,10,0,1,0-19.92,0c0,4.55-3.69,4.58-8.24,4.58s-8.24,0-8.24-4.58a26.44,26.44,0,1,1,34.44,25.2v12.22a4.13,4.13,0,0,1-4.12,4.12Zm0,20.59H120a4.13,4.13,0,0,1-4.12-4.12v-7.78a4.13,4.13,0,0,1,4.12-4.12h8.24a4.13,4.13,0,0,1,4.12,4.12v7.78a4.14,4.14,0,0,1-4.12,4.12Z"/><path class="cls-12" d="M579.73,316.17h-8.24a4.13,4.13,0,0,1-4.12-4.12V288.71a4.13,4.13,0,0,1,4.12-4.12h4.1c5.63-.18,10.21-4.17,10.21-10a10,10,0,1,0-19.92,0c0,4.55-3.69,4.58-8.24,4.58s-8.24,0-8.24-4.58a26.44,26.44,0,1,1,34.44,25.2v12.22a4.13,4.13,0,0,1-4.12,4.12Zm0,20.59h-8.24a4.13,4.13,0,0,1-4.12-4.12v-7.78a4.13,4.13,0,0,1,4.12-4.12h8.24a4.13,4.13,0,0,1,4.12,4.12v7.78a4.14,4.14,0,0,1-4.12,4.12Z"/><ellipse class="cls-13" cx="576.14" cy="439.45" rx="47.11" ry="9.91"/><ellipse class="cls-13" cx="425.73" cy="440.16" rx="36.22" ry="7.62"/><ellipse class="cls-13" cx="275.32" cy="439.45" rx="47.11" ry="9.91"/><ellipse class="cls-13" cx="124.91" cy="439.45" rx="47.11" ry="9.91"/><path class="cls-14" d="M440,135.49c-34.48,4.35-88.84,97.59-88.84,97.59s9.36,11.35,19.53,2,44.34-48,53.56-53.94,65.37,2.5,65.37,2.5,11.27-3.34,8.44,14.18L474,219.7a59.31,59.31,0,0,1-11.39,7.93C448.39,235.45,440,252.5,440,252.5s-6.66,16.34,11,13.9c12.5-1.72,33.2-19.1,38.28-23.31,17.53-14.54,26.78-13.53,39.62-17.71s33.74-19.88,39.81-30.52,33.77-21.8,33.77-21.8l-20.36-59.63S469,131.84,440,135.49Z"/><path class="cls-15" d="M445.63,258.3c3.52,8.23,17.56,1.86,19.59-2.46s-10-14.36-10-14.36C451.81,238.33,442.11,250.07,445.63,258.3Z"/><g class="cls-16"><polygon class="cls-9" points="557.37 110.53 584.53 185.06 607.85 177.31 575.88 104.77 557.37 110.53"/><path class="cls-17" d="M976.36,78.67c-54.49-16-113.13-23.34-174.28-21.84-75.35,1.85-154.73,17.22-236,45.69l28.81,82.19c127.12-44.56,248.82-52.82,352-23.89,77.59,21.76,118.4,57.22,118.8,57.58l-.22-.2L1124,153.7C1121.88,151.78,1071.25,106.53,976.36,78.67Z"/><path class="cls-18" d="M976.36,78.67c-54.49-16-113.13-23.34-174.28-21.84-75.35,1.85-154.73,17.22-236,45.69L575,127.75c78.88-27,156-41.61,229.25-43.41,61.15-1.5,119.79,5.85,174.28,21.84,65.51,19.23,109.92,46.75,131.83,62.58L1124,153.7C1121.88,151.78,1071.25,106.53,976.36,78.67Z"/></g></svg>