<svg id="Layer_1" data-name="Layer 1" xmlns="http://www.w3.org/2000/svg" viewBox="0 0 708.66 481.89"><defs><style>.cls-1,.cls-13{fill:#070707;}.cls-1{opacity:0.03;}.cls-2{fill:#49a579;}.cls-3{fill:#e8e7e6;}.cls-4{fill:#b8d8ff;}.cls-38,.cls-5{fill:none;}.cls-5{stroke:#e8e7e6;stroke-width:14px;}.cls-37,.cls-38,.cls-5{stroke-miterlimit:10;}.cls-6{fill:#90ccfc;}.cls-12,.cls-25,.cls-7{fill:#fff;}.cls-8{fill:#ffdc83;}.cls-9{fill:#e7685d;}.cls-10{fill:#3952a0;}.cls-11{fill:#29cc86;}.cls-12{font-size:28.47px;font-family:Impact, Impact;}.cls-13{opacity:0.07;}.cls-14,.cls-18{fill:#f8ab8d;}.cls-15{fill:#353560;}.cls-16{fill:#979797;}.cls-17{fill:#606060;}.cls-18,.cls-22,.cls-29,.cls-30,.cls-31,.cls-32,.cls-33{fill-rule:evenodd;}.cls-19{fill:#e5e5e4;}.cls-20{fill:#515180;}.cls-21{fill:gray;}.cls-22,.cls-26{fill:#dc846a;}.cls-23{fill:#c63734;}.cls-24{fill:#dd4439;}.cls-25{stroke:#979797;stroke-linecap:round;stroke-linejoin:round;}.cls-25,.cls-38{stroke-width:3px;}.cls-27,.cls-29{fill:#99724e;}.cls-28{fill:#f79f84;}.cls-30{fill:#7c5736;}.cls-31{fill:#ce9f7a;}.cls-32{fill:#4b3421;}.cls-34{fill:#353660;}.cls-35{fill:#405aa8;}.cls-36,.cls-37{fill:#e1f4f9;opacity:0.51;}.cls-37,.cls-38{stroke:#fccd6d;}.cls-39{fill:#fccd6d;}</style></defs><title>CS-L2-U5</title><polygon class="cls-1" points="608.63 244 608.63 14.55 300.21 14.55 300.21 244 446.91 244 446.91 361.44 371.38 361.44 371.38 376.5 537.47 376.5 537.47 361.44 461.94 361.44 461.94 244 608.63 244"/><rect class="cls-2" x="108.99" y="122.04" width="519.29" height="185.91" rx="70.79" ry="70.79"/><rect class="cls-3" x="442.44" y="223.4" width="15.03" height="138.54"/><rect class="cls-4" x="295.75" y="13.89" width="308.41" height="229.45"/><rect class="cls-5" x="295.75" y="13.89" width="308.41" height="229.45"/><rect class="cls-6" x="342.97" y="41.68" width="213.97" height="115.86" rx="22.84" ry="22.84"/><rect class="cls-7" x="356" y="61.1" width="184.02" height="17.23"/><rect class="cls-7" x="356" y="87.59" width="184.02" height="16.75"/><rect class="cls-7" x="356" y="114.08" width="116.79" height="16.52"/><rect class="cls-3" x="366.91" y="360.78" width="166.09" height="15.07"/><circle class="cls-8" cx="343.42" cy="192.14" r="23.16"/><circle class="cls-9" cx="416.68" cy="194.08" r="23.16"/><circle class="cls-10" cx="487.33" cy="194.08" r="23.16"/><circle class="cls-11" cx="551.78" cy="194.08" r="23.16"/><polyline class="cls-6" points="438.94 156.48 450.78 174.49 462.63 156.48"/><text class="cls-12" transform="translate(335.97 202.94) scale(1.03 1)">A</text><text class="cls-12" transform="translate(409 205.42) scale(1.03 1)">B</text><text class="cls-12" transform="translate(479.18 205.42) scale(1.03 1)">C</text><text class="cls-12" transform="translate(544.34 205.42) scale(1.03 1)">D</text><rect class="cls-13" x="369.23" y="67.75" width="2.77" height="100.45" rx="1.38" ry="1.38" transform="translate(99.88 -161.27) rotate(28.23)"/><path class="cls-13" d="M368.28,131.51c-.72-3.44-7,4.36-7,4.36l-3.13.55-7,1.22h0l-1,.17-.47-4.67L337,134.43l.38,3.8-56.78,3.56-19.22-41.05a12.55,12.55,0,0,0-12.49-12H237l-5-2.34,3.49-.83a8.67,8.67,0,0,0,5.39-4,14.88,14.88,0,0,0,2-5.91c3.88-5.41,6-12.35,7-18.86a25.55,25.55,0,0,0,.63-4.89c0,.1-.07.19-.1.28a55.19,55.19,0,0,0,.06-8.25,39.89,39.89,0,0,0-2.39-11.47,8.38,8.38,0,0,0,2.67-2.58,6.32,6.32,0,0,0,1.18-4.2H246.1a11.92,11.92,0,0,0,3-5.09v0a20.59,20.59,0,0,0,1.29-5.91c0-.32,0-.5,0-.5h-9.75S231,7,220.11,7.92C203,9.36,197.36,20.36,197.36,20.36A18.44,18.44,0,0,0,190,19c2.23,2.58,3.53,3.71,4.54,7.41-1.45,3.74-1.78,8.93-1.74,13.22-3.12.23-5.28,2.85-3.77,6.9,1.58,4.22,4.27,14.67,7.57,10.91l.21-.27c2.93,11.53,9.08,21.09,19,25.28v1.68l-7,4.58H192.72a12,12,0,0,0-6.19,1.71A9.06,9.06,0,0,0,178.8,95l-28.25,48.93a8.9,8.9,0,0,0-1.69,5c0,.14,0,.28,0,.42s0,.22,0,.32a9,9,0,0,0,7.19,8.51l12.85,4.72v35.72a1.14,1.14,0,0,0,1.14,1.14h.45v.45a1.14,1.14,0,0,0,1.14,1.14h9v30.82h7v6.24c0,.1,0,.2,0,.3V424.93h2.57v12.41A1.69,1.69,0,0,0,188.6,439v11.22a3.36,3.36,0,0,0,3.36,3.36h93a1.69,1.69,0,0,0,1.69-1.69V449a4.42,4.42,0,0,0-3.31-4.28L254,437.12a8.44,8.44,0,0,0-2.48-.25V424.93h2.73V242.05a11.51,11.51,0,0,0,.47-3.12l.13-6.78h6.53V143.59l5.46,11.66a9.07,9.07,0,0,0,10.55,4.91l61.79-3.87.23,2.27,12.74-1.29-.38-3.72,10.94-1.39s5.59-7.81,6.2-12.41C369.7,133.85,368.55,132.8,368.28,131.51Zm-135,305.81a1.69,1.69,0,0,0-1.7,1.69v3.46L211,437.12a8.4,8.4,0,0,0-2.65-.24V424.93h2.73V250.11l19.6.16V424.93h2.57Z"/><path id="_Path_" data-name="&lt;Path&gt;" class="cls-14" d="M344.17,153l15.62-2s5.59-7.81,6.2-12.41c.79-5.91-.36-7-.63-8.25-.72-3.44-7,4.36-7,4.36L343,137.45Z"/><path id="_Path_2" data-name="&lt;Path&gt;" class="cls-15" d="M335.88,137l1.26,18.1-64.16,4a9.07,9.07,0,0,1-9.68-8.42h0a9.07,9.07,0,0,1,8.42-9.68Z"/><rect id="_Rectangle_" data-name="&lt;Rectangle&gt;" class="cls-7" x="329.51" y="138.34" width="24.26" height="12.8" transform="translate(231.96 499.2) rotate(-95.77)"/><rect id="_Rectangle_2" data-name="&lt;Rectangle&gt;" class="cls-15" x="250.88" y="86.46" width="18.15" height="75.62" rx="9.07" ry="9.07" transform="translate(548.07 126.6) rotate(154.91)"/><path id="_Path_3" data-name="&lt;Path&gt;" class="cls-8" d="M239.49,365.31h0a9.12,9.12,0,0,1,9.12,9.12V439a9.12,9.12,0,0,1-9.12,9.12h0a9.12,9.12,0,0,1-9.12-9.12V374.43A9.12,9.12,0,0,1,239.49,365.31Z"/><path id="_Path_4" data-name="&lt;Path&gt;" class="cls-16" d="M228.66,437.9V449h55v-1.11a4.42,4.42,0,0,0-3.31-4.28L251.09,436a8.17,8.17,0,0,0-4.11,0c-7.82,2-13.33,1.13-16.14.29A1.69,1.69,0,0,0,228.66,437.9Z"/><path id="_Path_5" data-name="&lt;Path&gt;" class="cls-17" d="M228.66,449v.09a3.36,3.36,0,0,0,3.36,3.36h50a1.69,1.69,0,0,0,1.69-1.69V449Z"/><path id="_Path_6" data-name="&lt;Path&gt;" class="cls-18" d="M226.68,83.59c-19.93,1.07-30.52-13.65-33.78-31.95-3.43-19.26,9.47-35.2,25.09-35.25,17.78-.06,28.15,6.87,29.61,26.39.92,12.26-2.77,36.82-20.92,40.81Z"/><path id="_Path_7" data-name="&lt;Path&gt;" class="cls-8" d="M196.34,365.31h0a9.12,9.12,0,0,1,9.12,9.12V439a9.12,9.12,0,0,1-9.12,9.12h0a9.12,9.12,0,0,1-9.12-9.12V374.43A9.12,9.12,0,0,1,196.34,365.31Z"/><path id="_Rectangle_3" data-name="&lt;Rectangle&gt;" class="cls-15" d="M184.65,225h23.54a0,0,0,0,1,0,0V419.27a4.54,4.54,0,0,1-4.54,4.54H189.19a4.54,4.54,0,0,1-4.54-4.54V225a0,0,0,0,1,0,0Z" transform="translate(392.84 648.82) rotate(-180)"/><path id="_Path_8" data-name="&lt;Path&gt;" class="cls-16" d="M185.68,437.9V449h55v-1.11a4.42,4.42,0,0,0-3.31-4.28L208.11,436a8.17,8.17,0,0,0-4.11,0c-7.82,2-13.33,1.13-16.14.29A1.69,1.69,0,0,0,185.68,437.9Z"/><path id="_Path_9" data-name="&lt;Path&gt;" class="cls-17" d="M185.68,449v.09a3.36,3.36,0,0,0,3.36,3.36h50a1.69,1.69,0,0,0,1.69-1.69V449Z"/><path id="_Rectangle_4" data-name="&lt;Rectangle&gt;" class="cls-15" d="M227.79,225h23.54a0,0,0,0,1,0,0V419.27a4.54,4.54,0,0,1-4.54,4.54H232.33a4.54,4.54,0,0,1-4.54-4.54V225A0,0,0,0,1,227.79,225Z" transform="translate(479.13 648.82) rotate(180)"/><path id="_Path_10" data-name="&lt;Path&gt;" class="cls-15" d="M185,215.71l67.17.54-.4,21.56a11.54,11.54,0,0,1-11.63,11.44l-44.09-.36a11.54,11.54,0,0,1-11.44-11.63Z"/><path id="_Rectangle_5" data-name="&lt;Rectangle&gt;" class="cls-16" d="M177.69,87.63h80.77a0,0,0,0,1,0,0V215.72A15.32,15.32,0,0,1,243.14,231H193.51a15.83,15.83,0,0,1-15.83-15.83V87.63a0,0,0,0,1,0,0Z" transform="translate(436.14 318.66) rotate(-180)"/><polygon id="_Path_11" data-name="&lt;Path&gt;" class="cls-15" points="201.2 87.63 198.78 95.66 205.39 102.25 202.61 107.45 231.67 148.31 243.15 107.34 239.55 101.99 241.89 95.66 236.83 87.63 201.2 87.63"/><polygon id="_Path_12" data-name="&lt;Path&gt;" class="cls-7" points="234.08 87.63 228.95 134.76 205.86 87.63 234.08 87.63"/><path id="_Path_13" data-name="&lt;Path&gt;" class="cls-14" d="M218.84,67.38h-.21a5.8,5.8,0,0,1,5.77,6V86.13c0,3.3-2.47,4.33-5.77,4.33h.1c-3.3,0-5.87-1-5.87-4.33V73.36A6,6,0,0,1,218.84,67.38Z"/><polygon id="_Path_14" data-name="&lt;Path&gt;" class="cls-19" points="205.86 87.63 212.87 83.05 220.49 89.33 216.04 99.81 205.86 87.63"/><polygon id="_Path_15" data-name="&lt;Path&gt;" class="cls-19" points="234.08 87.63 224.4 83.05 220.49 89.33 228.95 99.81 234.08 87.63"/><polygon id="_Path_16" data-name="&lt;Path&gt;" class="cls-16" points="220.49 89.33 217.84 95.58 224.4 101.99 226.24 96.45 220.49 89.33"/><polygon id="_Path_17" data-name="&lt;Path&gt;" class="cls-20" points="222.53 99.73 221.49 119.55 228.95 134.76 230.78 117.92 224.94 99.12 222.53 99.73"/><ellipse id="_Path_18" data-name="&lt;Path&gt;" class="cls-15" cx="226.14" cy="170.43" rx="3.75" ry="4.64"/><ellipse id="_Path_19" data-name="&lt;Path&gt;" class="cls-15" cx="226.14" cy="195.81" rx="3.75" ry="4.64"/><path id="_Path_20" data-name="&lt;Path&gt;" class="cls-16" d="M191.58,25.34c-1.87,4.81-1.87,12-1.63,16.64a4.6,4.6,0,0,1,3.93-1,5.5,5.5,0,0,1,.63.15h0l.31.1.31.11.32.14.23.11.38.21.3.19.3.2.28.22.28.23c.18.16.36.33.53.51,0,0,0,0,0,.05l.1.12.06.08.07.08,0,0,0,0,0,0a.23.23,0,0,1,0,.05v8.39a3.76,3.76,0,0,0,.9,2.82,4.57,4.57,0,0,0,.39.42,6,6,0,0,0,2.56.75c2.19,0,4.4-1.8,4.4-4v-3a4.34,4.34,0,0,1,4-4.33l.76-.05c.06-3.42,0-6.13,0-7.81,0-2.09.74-3.46,5.36-3.93h.13c.4,0,.83-.07,1.3-.1h.1c.8,0,1.69-.06,2.68-.06h21.24l.24-.06c.91-.25,4.14-1.32,5.81-4a6.32,6.32,0,0,0,1.18-4.2h-5.88a11.92,11.92,0,0,0,3-5.09A27.84,27.84,0,0,0,247.55,13H237.8S228,5.89,217.19,6.81c-17.1,1.44-22.75,12.43-22.75,12.43A18.44,18.44,0,0,0,187,17.93C189.28,20.51,190.58,21.64,191.58,25.34Z"/><path id="_Path_21" data-name="&lt;Path&gt;" class="cls-21" d="M217.91,32.83c.8,0,1.69-.06,2.68-.06h21.24l.24-.06c.91-.25,4.14-1.32,5.81-4a6.32,6.32,0,0,0,1.18-4.2s-5.06,5.7-8.29,6.28l-.25,0C237.22,31.36,222.69,32.47,217.91,32.83Z"/><path id="_Path_22" data-name="&lt;Path&gt;" class="cls-16" d="M213.36,65l.49,3,1.1,6.85,0,.07.35,2.2c1,6,6,10,11.21,8.72l6.1-1.45a8.67,8.67,0,0,0,5.39-4,15.8,15.8,0,0,0,2.13-7.54l-.31-9.9c-.45-2.64-1.12-3.65-3.41-3.63H216.57C214.37,59.87,212.94,62.41,213.36,65Z"/><path id="_Path_23" data-name="&lt;Path&gt;" class="cls-7" d="M229.15,69c4.12,0,7.73-2.23,7.73-4.77v-.6H221v.6c0,2.31,2.42,4.77,6.91,4.77Z"/><path id="_Path_24" data-name="&lt;Path&gt;" class="cls-21" d="M247.55,13s-3.78,8.61-9.11,10.79c-4.53,1.86-26.66,2.56-26.66,2.56A37.77,37.77,0,0,0,218.63,28c2,.21,21.49.82,24.54-3.46A19,19,0,0,0,247.55,13Z"/><path id="_Path_25" data-name="&lt;Path&gt;" class="cls-16" d="M199.31,55.31a19.23,19.23,0,0,0,3.29,2.56c4.39,2.9,10.59,6.39,12.34,14.32l0,.06c.83,3.81,1.61,3.39,2.16,1.21,1-3.75,1.23-12.7-.08-14.35h0c-3.75,0-10.76-2.45-10.76-7S194.88,51.33,199.31,55.31Z"/><path id="_Path_26" data-name="&lt;Path&gt;" class="cls-16" d="M240.05,71.66c-.15-4.3,7.23-9.42,7.59-20.91a11.57,11.57,0,0,1-11.23,8.36C235,60.83,239,68.31,240.05,71.66Z"/><path id="_Path_27" data-name="&lt;Path&gt;" class="cls-21" d="M202.61,57.87c4.39,3.46,10.59,7.6,12.34,17l0,.07.35,2.2c1,6,6,10,11.21,8.72l6.1-1.45a8.67,8.67,0,0,0,5.39-4A36.76,36.76,0,0,1,228.43,83c-4.58.41-10.09-1.14-11.31-6.57h0a32.31,32.31,0,0,0-3.28-8.35C211.4,63.7,207.69,59.42,202.61,57.87Z"/><rect id="_Rectangle_6" data-name="&lt;Rectangle&gt;" class="cls-15" x="193.63" y="185.7" width="17.95" height="6.65"/><g id="_Group_" data-name="&lt;Group&gt;"><line id="_Path_28" data-name="&lt;Path&gt;" class="cls-16" x1="243.3" y1="40.52" x2="236.18" y2="40.16"/><path id="_Path_29" data-name="&lt;Path&gt;" class="cls-16" d="M243.47,41.7a1.19,1.19,0,0,0-.11-2.37L236.24,39a1.19,1.19,0,1,0-.12,2.38l7.13.36Z"/></g><g id="_Group_2" data-name="&lt;Group&gt;"><line id="_Path_30" data-name="&lt;Path&gt;" class="cls-16" x1="223.2" y1="40.16" x2="216.08" y2="40.52"/><path id="_Path_31" data-name="&lt;Path&gt;" class="cls-16" d="M223.37,39a1.19,1.19,0,0,1-.11,2.37l-7.13.36a1.19,1.19,0,0,1-.12-2.38l7.13-.36Z"/></g><circle id="_Path_32" data-name="&lt;Path&gt;" cx="220.53" cy="47.85" r="1.61"/><circle id="_Path_33" data-name="&lt;Path&gt;" cx="239.19" cy="48.4" r="1.61"/><polygon id="_Path_34" data-name="&lt;Path&gt;" class="cls-22" points="229.26 47.14 229.04 57.3 232.04 56.81 229.26 47.14"/><g id="_Group_3" data-name="&lt;Group&gt;"><path id="_Path_35" data-name="&lt;Path&gt;" class="cls-18" d="M198.13,43.51a9.44,9.44,0,0,0-3.28-3.44c-5.09-3.53-11-.67-8.76,5.38,1.58,4.22,4.27,14.67,7.57,10.91C196.18,53.48,198,49.08,198.13,43.51Z"/><polygon id="_Path_36" data-name="&lt;Path&gt;" class="cls-22" points="194.21 44.12 187.52 43 192.56 52.17 190.87 44.61 194.21 44.12"/></g><rect id="_Rectangle_7" data-name="&lt;Rectangle&gt;" class="cls-15" x="160.3" y="85.48" width="18.15" height="75.62" rx="9.07" ry="9.07" transform="translate(254.41 314.75) rotate(-150)"/><path class="cls-13" d="M219.48,127.43H168.71a1.14,1.14,0,0,0-1.14,1.14v70.5a1.14,1.14,0,0,0,1.14,1.14h55.66V127.43Z"/><rect class="cls-23" x="170.88" y="125.85" width="51.91" height="72.78"/><rect class="cls-7" x="199.86" y="128.74" width="21.17" height="66.79"/><path class="cls-24" d="M167.43,125.85H217.9a0,0,0,0,1,0,0v72.78a0,0,0,0,1,0,0H167.43a1.44,1.44,0,0,1-1.44-1.44v-69.9A1.44,1.44,0,0,1,167.43,125.85Z"/><rect class="cls-7" x="174.36" y="137.3" width="35.46" height="16.61"/><line class="cls-25" x1="178" y1="143.23" x2="202.61" y2="143.23"/><line class="cls-25" x1="179.78" y1="148.31" x2="193.63" y2="148.31"/><path id="_Path_37" data-name="&lt;Path&gt;" class="cls-26" d="M224.76,179.51s8.74,5.7,12,8.75c5.48-3.09.78-10.48.78-10.48Z"/><rect id="_Rectangle_8" data-name="&lt;Rectangle&gt;" class="cls-14" x="197.09" y="138.38" width="14.59" height="55.94" rx="4.88" ry="4.88" transform="translate(435.95 40.55) rotate(112.35)"/><path id="_Path_38" data-name="&lt;Path&gt;" class="cls-14" d="M223.2,165.49l15.62,2s9.33,7.66,11.32,11.85c2.32,4.88,1.33,11.87,1.06,13.16-.72,3.44-13.82-8.7-13.82-8.7L222,181.09Z"/><path id="_Path_39" data-name="&lt;Path&gt;" class="cls-15" d="M212.16,178.72l6.38-17-60.34-22.16a9.07,9.07,0,0,0-11.68,5.31h0a9.07,9.07,0,0,0,5.31,11.68Z"/><rect id="_Rectangle_9" data-name="&lt;Rectangle&gt;" class="cls-7" x="207.75" y="166.56" width="24.26" height="12.8" transform="translate(463.45 35.36) rotate(112.35)"/><rect class="cls-27" x="367.64" y="67.75" width="2.77" height="100.45" rx="1.38" ry="1.38" transform="translate(99.69 -160.52) rotate(28.23)"/><path id="_Path_40" data-name="&lt;Path&gt;" class="cls-28" d="M356.93,135a15.72,15.72,0,0,1,2.51,7c-4.61,1.65-11.18-5.51-11.18-5.51Z"/><path class="cls-13" d="M312,246a17,17,0,0,0,.06-6.16c1.69-2.2,1.61-6.18,1.33-8.9-.6-4.9-3.29-2.06-8.27-.69a1.74,1.74,0,0,0-.6.74l-16.54,4.19-2.41-3.38a11.05,11.05,0,0,0-5.92-3.83l.14-.11a1.45,1.45,0,0,0,.25-2,1.49,1.49,0,0,0-2.06-.23l-2.09,1.65a24.06,24.06,0,0,0-4.71.1c-7.75-11.4-19.28-26.23-19.68-24.31a32.47,32.47,0,0,0-.64,10.46c-4.46-5.7-8-9.7-8.26-8.64-3,13.81,2.88,21.75,8,33.63a22.13,22.13,0,0,0-4.41,10.24l-9.68,48.66-2.69-.28-.28,2.65-1.67-.17-.66,6.36,1.67.17-.28,2.65,2.27.24c-16.88,21.77-47,59.55-74.82,89.32-13.14,14-18,27.65-19.21,38.83a36.08,36.08,0,0,0-.36,5v8.37a30.29,30.29,0,0,0,1.83,10.48,39.19,39.19,0,0,1-15.39-4.22c-18.32-9.46-22.88-36.16-15.74-62.7-11.21,29.82-6.71,59.65,12.75,72,7.45,4.72,16.21,6.32,25.38,5.17a14,14,0,0,0,8.81,3.38l.14-.12a8.3,8.3,0,0,0,1.38.11h80.31v-7.35l-10.11-6.64-4.51-1.47H190c0-4.93,28.51-19.77,29.16-20.14l0,0h0c10.9-7.23,13-11.95,13-22.28A26.58,26.58,0,0,0,229.83,406c1.54-1,3.14-2.14,4.81-3.4.21,2.43.37,4.76.52,7.09l0,2.83a7.63,7.63,0,0,0,0,1l2.77,39.85a7.77,7.77,0,0,0,.37,3.32l4.5,12.57a7.79,7.79,0,0,0,7.24,5.16h15.37v-.7a7.92,7.92,0,0,0,3.11.7H283.9V467l-9.27-6.47-2.81-7.89c0-.2,0-.4,0-.61l-2.88-41.53c0-.08,0-.15,0-.23-1.14-12,3.14-42.56,5.17-56a71.87,71.87,0,0,0,5.41-26.74l.09,0s-.36-6-.83-13.9l2.23.23.28-2.65,1.67.17.66-6.36-1.67-.17.28-2.65-4.15-.43c-.69-11.62-1.37-23.21-1.46-25.21,0-1.17.09-4,.05-7.52,0,0,0-.08,0-.13,0-3.77,1-5.77,3.38-7.19h0s10.29-1.69,17.54-.77,11.76.76,13.43-1.46.86-8.26.86-8.26l-4.11.37A10.4,10.4,0,0,0,312,246ZM253.38,452.74,250.7,414c0-.1,0-.19.06-.3.24-1.38.62-3,1.12-4.76,1.06,2.84,1.72,4.73,1.82,5l2.72,39.16c0,.09,0,.17,0,.25a7.69,7.69,0,0,0,.41,3.28l2.06,5.82-2.75-1.92Z"/><path id="_Path_41" data-name="&lt;Path&gt;" class="cls-29" d="M227.41,460.71l-4.51-1.47H170.11a7.74,7.74,0,1,0,0,15.47h67.41v-7.35Z"/><path id="_Path_42" data-name="&lt;Path&gt;" class="cls-29" d="M229.79,416.8c0-14.13-11.46-26.64-25.51-25.58-15.69,1.18-29.66,8.87-36.89,16.72-9,9.8-16.41,21-16.43,34.3v8.37c0,13.25,8.32,24.09,17.63,24.09l19-15.47c0-4.93,28.51-19.77,29.16-20.14l0,0h0C227.71,431.85,229.79,427.13,229.79,416.8Z"/><path id="_Path_43" data-name="&lt;Path&gt;" class="cls-29" d="M259.14,446.77h0a7.79,7.79,0,0,1,9.88,4.66l3.24,9.11,9.27,6.47v7.35H266.17a7.79,7.79,0,0,1-7.24-5.16l-4.45-12.57a7.74,7.74,0,0,1,4.67-9.88Z"/><path id="_Path_44" data-name="&lt;Path&gt;" class="cls-29" d="M251.33,414s-7.1-20.51-14.26-33.39-1.48-33.81,10.81-37.87,24.83,5.09,24.83,5.09S265,395,266.54,410.41s-14.38,11.53-15.2,3.6Z"/><path id="_Path_45" data-name="&lt;Path&gt;" class="cls-29" d="M258.29,403.38h0a7.74,7.74,0,0,1,8.26,7.13L269.44,452a7.71,7.71,0,0,1-7.19,8.27h0a7.68,7.68,0,0,1-8.21-7.2l-2.88-41.53a7.66,7.66,0,0,1,7.14-8.21Z"/><path id="_Path_46" data-name="&lt;Path&gt;" class="cls-30" d="M259.17,242.12c3.67,6.33,11.9,8.52,14,9.54s5.23-6,2.2-13.35-25.71-37.91-26.28-35.19c-3.41,15.79,4.69,23.93,10.08,39Z"/><path id="_Path_47" data-name="&lt;Path&gt;" class="cls-31" d="M151.58,470.5c-10.86,2.44-21.37,1.18-30.09-4.35-19.46-12.33-24-42.17-12.75-72-7.14,26.54-2.58,53.24,15.74,62.7,20.91,10.8,44.07-2,44.07-2Z"/><path id="_Path_48" data-name="&lt;Path&gt;" class="cls-31" d="M240.67,446.77h0a7.79,7.79,0,0,1,9.88,4.66l3.24,9.11,9.27,6.47v7.35H247.69a7.79,7.79,0,0,1-7.24-5.16l-4.5-12.57a7.81,7.81,0,0,1,4.72-9.88Z"/><path id="_Path_49" data-name="&lt;Path&gt;" class="cls-31" d="M142.79,464.56s-17.36-31.75,14.85-66.18c41.64-44.51,88.31-107,88.31-107s6.49-13.27,22.94,9.4,5,54.88-5.81,69.13c-37.76,49.69-46.91,33.4-69,62.72C167.9,467.41,142.79,464.56,142.79,464.56Z"/><path id="_Path_50" data-name="&lt;Path&gt;" class="cls-31" d="M232.79,409.66A169.86,169.86,0,0,0,228,377.1c-3.44-14.28,7.73-33,20.59-33.6s22.58,11.58,22.58,11.58-20.13,43.32-22.8,58.62-15,8.22-15.57-.62Z"/><path id="_Path_51" data-name="&lt;Path&gt;" class="cls-31" d="M240,405.27h0a7.74,7.74,0,0,1,8.26,7.13l2.88,41.53a7.74,7.74,0,0,1-7.19,8.27h0a7.68,7.68,0,0,1-8.21-7.2l-2.88-41.53a7.66,7.66,0,0,1,7.14-8.21Z"/><path id="_Path_52" data-name="&lt;Path&gt;" class="cls-31" d="M233.77,299.06l10-50.27s8.55-9.91,20.46-5.9,9.85,29.45,10,33.68,3,51,3,51-52.13,14.93-43.44-28.49Z"/><path id="_Path_53" data-name="&lt;Path&gt;" class="cls-31" d="M243.76,248.8c.53-4.92,5.14-16.32,19.85-20.36s19.54,3.4,19.54,3.4l2.41,3.38,21.71-5.5S311,240.88,309.59,246s-8.27,9-19.76,12-15.54,3.3-15.56,10.93-25.61,3.73-30.51-20.14Z"/><path id="_Path_54" data-name="&lt;Path&gt;" class="cls-32" d="M302.71,230.29c5-1.37,7.67-4.21,8.27.69.38,3.65.4,9.56-3.74,10.41-6,1.2-6.72-9.76-4.53-11.11Z"/><path id="_Path_55" data-name="&lt;Path&gt;" class="cls-29" d="M250.28,243.93c3.73,6.32,11.9,8.52,14,9.53s5.23-6,2.2-13.35-25.71-37.91-26.27-35.19c-3.41,15.79,4.74,23.91,10.08,39Z"/><path id="_Path_56" data-name="&lt;Path&gt;" class="cls-33" d="M281.66,238.4c1.43-.39,2.16-2.3,1.62-4.26s-2.12-3.17-3.55-2.78-2.16,2.3-1.64,4.2,2.14,3.23,3.57,2.83Z"/><path id="_Path_57" data-name="&lt;Path&gt;" class="cls-32" d="M269.59,230.38l6-4.72a1.49,1.49,0,0,1,2.06.23h0a1.45,1.45,0,0,1-.25,2l-6,4.73a1.37,1.37,0,0,1-2-.25h0a1.38,1.38,0,0,1,.25-2Z"/><path id="_Path_58" data-name="&lt;Path&gt;" class="cls-31" d="M277.65,261.75s10.29-1.69,17.54-.77,11.76.76,13.43-1.46.87-8.26.87-8.26-18.72,1.67-21,2-10.82,8.49-10.82,8.49Z"/><path id="_Path_59" data-name="&lt;Path&gt;" class="cls-31" d="M214.51,460.71,210,459.24H157.21a7.74,7.74,0,1,0,0,15.47h67.41v-7.35Z"/><path id="_Path_60" data-name="&lt;Path&gt;" class="cls-31" d="M216.89,416.8c0-14.13-11.46-26.64-25.51-25.58-15.69,1.18-29.66,8.87-36.89,16.72-9,9.8-16.41,21-16.43,34.3v8.37c0,13.25,8.32,24.09,17.63,24.09l19-15.47c0-4.93,28.51-19.77,29.16-20.14l0,0h0C214.81,431.85,216.89,427.13,216.89,416.8Z"/><path id="_Path_61" data-name="&lt;Path&gt;" class="cls-29" d="M179.92,398.22c4.09-1,10.81-1.59,19.86.49,8.61,2,15.85,8.45,17,15.29,1.52-1.64,1.52-1.64,5.59-3.23-2.22-8.06-14.16-15.65-23.93-16.6-6.08-.59-11.82-.46-18.21,1.83-2,.72-11.83,5.66-13.58,8.46C168.61,402.21,175.69,399.26,179.92,398.22Z"/><g id="_Group_4" data-name="&lt;Group&gt;"><rect id="_Path_62" data-name="&lt;Path&gt;" class="cls-34" x="249.14" y="281.19" width="11.72" height="48.68" transform="matrix(0.1, -0.99, 0.99, 0.1, -75.34, 527.45)"/><rect id="_Path_63" data-name="&lt;Path&gt;" class="cls-35" x="251.8" y="279.51" width="6.39" height="52.04" transform="translate(-75.34 527.44) rotate(-84.04)"/></g><circle class="cls-36" cx="216.53" cy="49.64" r="8.34"/><circle class="cls-37" cx="241.99" cy="49.27" r="8.34"/><circle class="cls-38" cx="216.53" cy="49.64" r="8.34"/><circle class="cls-38" cx="241.99" cy="49.27" r="8.34"/><rect class="cls-39" x="224.44" y="45.22" width="9.71" height="3.07"/></svg>