<svg id="Layer_1" data-name="Layer 1" xmlns="http://www.w3.org/2000/svg" xmlns:xlink="http://www.w3.org/1999/xlink" viewBox="0 0 708.66 481.89"><defs><style>.cls-1,.cls-14,.cls-40,.cls-50,.cls-9{fill:none;}.cls-2{fill:#ffdc83;}.cls-3{fill:#5dc18d;}.cls-4{fill:#ffe4cc;}.cls-5{fill:#fece57;}.cls-21,.cls-51,.cls-6{fill:#ee4256;}.cls-13,.cls-7{fill:#d5eff0;}.cls-8{fill:#395672;}.cls-9{stroke:#aed0ed;}.cls-50,.cls-9{stroke-linecap:round;stroke-linejoin:round;}.cls-10{clip-path:url(#clip-path);}.cls-11{fill:#eaf4f4;}.cls-12{clip-path:url(#clip-path-2);}.cls-13,.cls-14{stroke:#704d2d;stroke-width:4px;}.cls-13,.cls-14,.cls-40{stroke-miterlimit:10;}.cls-15{fill:#878686;}.cls-16,.cls-19{opacity:0.07;}.cls-17{fill:#c49a6c;}.cls-18{fill:#eaeaea;}.cls-19,.cls-21{font-size:9.92px;}.cls-19,.cls-21,.cls-30{font-family:Impact, Impact;}.cls-20,.cls-30{fill:#fff;}.cls-22{fill:#af8962;}.cls-23{fill:#b79069;}.cls-24{fill:#2d2d2d;}.cls-25{fill:#515180;}.cls-26{fill:#7979bc;}.cls-27{fill:#6b6a6a;}.cls-28{fill:#bababa;}.cls-29{fill:#969696;}.cls-30{font-size:35.52px;}.cls-31{clip-path:url(#clip-path-3);}.cls-32{fill:#8b6339;}.cls-33{fill:#704d2d;}.cls-34{fill:#648ec9;}.cls-35{fill:#486a93;}.cls-36{fill:#f4f4f4;}.cls-37{fill:#41607f;}.cls-38,.cls-47{fill:#f8ab8d;}.cls-39{fill:#4c6dc1;}.cls-40{stroke:#fff;stroke-width:3px;}.cls-41,.cls-49{fill:#dc846a;}.cls-42{fill:#e5e5e4;}.cls-43{fill:#3f5aa8;}.cls-44{fill:#353560;}.cls-45{fill:#b3b2b3;}.cls-46{fill:#4d4e4e;}.cls-47,.cls-49,.cls-51{fill-rule:evenodd;}.cls-48{fill:#754d24;}.cls-50{stroke:#dc846a;}</style><clipPath id="clip-path"><rect class="cls-1" x="414.66" y="147.43" width="43.33" height="43.33"/></clipPath><clipPath id="clip-path-2"><rect class="cls-1" x="341.57" y="147.43" width="43.33" height="43.33"/></clipPath><clipPath id="clip-path-3"><polygon class="cls-1" points="677.89 361.31 614 361.31 614 307.44 654.91 307.44 677.89 361.31"/></clipPath></defs><title>CS-L2-U8</title><polygon class="cls-2" points="200.48 115.15 351.98 11.76 503.48 115.15 487.71 132.85 220.37 136.85 200.48 115.15"/><rect class="cls-3" x="37.96" y="141.19" width="642.47" height="212.86" rx="39.73" ry="39.73"/><rect class="cls-4" x="227.51" y="141.19" width="84.3" height="212.86"/><rect class="cls-5" x="200.48" y="115.15" width="303" height="132.92"/><rect class="cls-6" x="241.65" y="141.19" width="64.16" height="106.43"/><rect class="cls-7" x="341.81" y="147.43" width="43.33" height="43.33"/><rect class="cls-7" x="414.66" y="147.43" width="43.33" height="43.33"/><circle class="cls-8" cx="298.98" cy="196.35" r="4.5"/><path class="cls-9" d="M301.89,195.28a4.5,4.5,0,0,0-4-2.35"/><path class="cls-9" d="M302.43,197.42a4.53,4.53,0,0,0-.06-.76"/><g class="cls-10"><rect class="cls-11" x="415.9" y="107.56" width="11.91" height="102.88" transform="translate(235.98 -251.73) rotate(45)"/><rect class="cls-11" x="429.47" y="119.08" width="7.83" height="102.88" transform="translate(247.51 -256.5) rotate(45)"/></g><g class="cls-12"><rect class="cls-11" x="342.81" y="107.56" width="11.91" height="102.88" transform="translate(214.58 -200.05) rotate(45)"/><rect class="cls-11" x="356.38" y="119.08" width="7.83" height="102.88" transform="translate(226.1 -204.82) rotate(45)"/></g><polygon class="cls-13" points="347.4 38.43 347.4 93.09 264.23 93.09 347.4 38.43"/><polygon class="cls-13" points="356.57 38.43 356.57 93.09 439.73 93.09 356.57 38.43"/><rect class="cls-14" x="341.81" y="147.43" width="43.33" height="43.33"/><rect class="cls-14" x="414.66" y="147.43" width="43.33" height="43.33"/><polygon class="cls-15" points="533.69 124.5 528.96 131.76 345.78 12.35 351.98 6.05 533.69 124.5"/><polygon class="cls-15" points="170.27 124.5 175 131.76 358.19 12.35 351.98 6.05 170.27 124.5"/><polygon class="cls-16" points="227.24 213.9 227.24 171.13 209.32 171.13 202.53 171.13 183.98 171.13 183.98 213.9 175.55 213.9 175.55 273.14 234.79 273.14 234.79 213.9 227.24 213.9"/><rect class="cls-17" x="185.22" y="170.13" width="43.26" height="43.26"/><rect class="cls-18" x="203.78" y="170.13" width="6.79" height="9.98"/><text class="cls-19" transform="matrix(0.98, 0.18, -0.18, 0.98, 189.38, 243.97)">FRAGILE</text><polygon class="cls-16" points="211.5 211.33 202.21 211.33 176.8 211.33 176.8 270.56 236.03 270.56 236.03 211.33 211.5 211.33"/><rect class="cls-17" x="176.8" y="212.9" width="59.24" height="59.24"/><rect class="cls-18" x="202.2" y="212.9" width="9.3" height="13.66"/><rect class="cls-20" x="182.76" y="238.12" width="47.3" height="16.06" transform="matrix(0.98, 0.18, -0.18, 0.98, 48.56, -33.63)"/><text class="cls-21" transform="matrix(0.98, 0.18, -0.18, 0.98, 190.38, 246.97)">FRAGILE</text><text class="cls-21" transform="matrix(0.98, 0.18, -0.18, 0.98, 190.38, 246.97)">FRAGILE</text><rect class="cls-16" x="360.27" y="217.93" width="43.26" height="43.26"/><rect class="cls-22" x="360.27" y="219.93" width="43.26" height="43.26"/><rect class="cls-18" x="378.83" y="219.93" width="6.79" height="9.98"/><rect class="cls-16" x="320.65" y="227.33" width="59.24" height="59.24"/><rect class="cls-17" x="318.65" y="226.33" width="59.24" height="59.24"/><rect class="cls-18" x="344.06" y="226.33" width="9.3" height="13.66"/><polygon class="cls-16" points="413.56 232.12 406.78 232.12 388.22 232.12 388.22 275.38 431.48 275.38 431.48 232.12 413.56 232.12"/><rect class="cls-23" x="390.22" y="231.12" width="43.26" height="43.26"/><rect class="cls-18" x="408.78" y="231.12" width="6.79" height="9.98"/><path class="cls-16" d="M691.35,367.33,657.48,295H583.15V402.85h-8.88v-144H339.46v144h-4.6v18.42h4.6v18.91H377a25.49,25.49,0,1,0,51,0h21.43a25.48,25.48,0,0,0,50.86,0H612.81a25.48,25.48,0,0,0,50.86,0h27.68V421.26h0Z"/><rect class="cls-24" x="339.15" y="405.55" width="270" height="18.42" transform="translate(948.29 829.51) rotate(-180)"/><rect class="cls-25" x="343.75" y="261.5" width="234.81" height="162.46" transform="translate(922.31 685.47) rotate(-180)"/><polygon class="cls-26" points="661.76 297.68 695.64 370.03 695.64 423.96 587.44 423.96 587.44 370.03 587.44 297.68 661.76 297.68"/><rect class="cls-27" x="343.75" y="421.16" width="351.89" height="21.71" transform="translate(1039.39 864.03) rotate(-180)"/><polygon class="cls-7" points="677.89 361.31 614 361.31 614 307.44 654.91 307.44 677.89 361.31"/><path class="cls-28" d="M674.3,442.79a31.78,31.78,0,0,0-63.56,0"/><circle class="cls-24" cx="642.53" cy="441.23" r="25.49"/><circle class="cls-29" cx="642.53" cy="441.23" r="13.04"/><path class="cls-28" d="M511.84,442.79a31.78,31.78,0,0,0-63.56,0"/><circle class="cls-24" cx="479.08" cy="441.23" r="25.49"/><circle class="cls-29" cx="479.08" cy="441.23" r="13.04"/><path class="cls-28" d="M439.08,442.79a31.78,31.78,0,0,0-63.56,0"/><circle class="cls-24" cx="406.73" cy="442.87" r="25.49"/><circle class="cls-29" cx="406.73" cy="442.87" r="13.04"/><text class="cls-30" transform="translate(375.52 377.6)">MOVING </text><path class="cls-20" d="M401.91,281.82l33.56,19.38a7.21,7.21,0,0,1,0,12.49l-33.56,19.38a7.21,7.21,0,0,1-10.81-6.24V288.06A7.21,7.21,0,0,1,401.91,281.82Z"/><path class="cls-20" d="M408.59,321.42H343.78a.09.09,0,0,1-.09-.09V293.56a.09.09,0,0,1,.09-.09h64.81a8,8,0,0,1,8,8v12.05A8,8,0,0,1,408.59,321.42Z"/><g class="cls-31"><rect class="cls-11" x="647.68" y="270.03" width="13.57" height="117.21" transform="translate(1349.63 98.24) rotate(135)"/><rect class="cls-11" x="636.88" y="283.16" width="8.92" height="117.21" transform="translate(1336.5 129.93) rotate(135)"/></g><path class="cls-16" d="M177.51,272.78V245.05h0c0-.12,0-.23,0-.35a15.26,15.26,0,0,0-15.26-15.26h0l0-.14-22-1.6v-7.15a1.13,1.13,0,0,0-2.15-.49l-4.66,1.43v5.73l-13.82-1a13.28,13.28,0,0,0-15.1,13.24v26l25.62,6.4V385.91h8.61V274L147,276v.13h.11c1.8,2,26.77,29.77,44.07,20.9C209.1,287.86,177.51,272.78,177.51,272.78Z"/><rect class="cls-32" x="131.87" y="269.24" width="8.61" height="117.04" transform="translate(272.36 655.52) rotate(-180)"/><rect class="cls-33" x="131.87" y="269.24" width="4.3" height="117.04" transform="translate(268.05 655.52) rotate(-180)"/><circle class="cls-34" cx="119.61" cy="239.45" r="13.36"/><polygon class="cls-34" points="106.25 265.44 136.08 262.03 136.08 234.31 106.25 239.45 106.25 265.44"/><polyline class="cls-34" points="119.61 226.09 164 229.31 150.09 274.44 148.74 276.05 106.25 265.44"/><path class="cls-35" d="M179.27,272.78s31.59,15.08,13.65,24.29-44.17-21-44.17-21Z"/><path class="cls-35" d="M148.74,244.7a15.26,15.26,0,1,1,30.53,0c0,.12,0,.23,0,.35h0v27.72l-30.53,3.4V245.05h0C148.75,244.94,148.74,244.82,148.74,244.7Z"/><polygon class="cls-8" points="179.27 272.78 148.74 262.17 148.74 276.18 179.27 272.78"/><polyline class="cls-6" points="140.85 227.76 135.18 229.09 135.18 221.49 140.85 219.75"/><path class="cls-36" d="M139.72,219.42H142a0,0,0,0,1,0,0v30.29a1.13,1.13,0,0,1-1.13,1.13h0a1.13,1.13,0,0,1-1.13-1.13V219.42A0,0,0,0,1,139.72,219.42Z" transform="translate(281.7 470.27) rotate(-180)"/><circle class="cls-28" cx="140.85" cy="251.65" r="1.94"/><circle class="cls-37" cx="140.85" cy="251.65" r="1.13"/><path id="_Path_" data-name="&lt;Path&gt;" class="cls-38" d="M235.32,222.38h0a3.76,3.76,0,0,1,1.23,5.18l-17.25,27.37a3.76,3.76,0,0,1-5.18,1.23h0a3.76,3.76,0,0,1-1.23-5.18l17.25-27.37A3.76,3.76,0,0,1,235.32,222.38Z"/><g id="_Clip_Group_" data-name="&lt;Clip Group&gt;"><path id="_Clipping_Path_" data-name="&lt;Clipping Path&gt;" class="cls-39" d="M217.33,242l8,5L238,227.11a4.74,4.74,0,0,0-1.49-6.52h0a4.74,4.74,0,0,0-6.52,1.49Z"/></g><line id="_Path_2" data-name="&lt;Path&gt;" class="cls-40" x1="219.12" y1="239.19" x2="227.08" y2="244.3"/><path id="_Path_3" data-name="&lt;Path&gt;" class="cls-38" d="M218.29,251.62h0a3.76,3.76,0,0,1-.83,5.26L191.1,275.63a3.76,3.76,0,0,1-5.26-.83h0a3.76,3.76,0,0,1,.83-5.26L213,250.78A3.76,3.76,0,0,1,218.29,251.62Z"/><path id="_Path_4" data-name="&lt;Path&gt;" class="cls-41" d="M191.22,275.49a64,64,0,0,0-3.64,6.24c-3-.3-2.39-4.5-2.39-4.5Z"/><path id="_Path_5" data-name="&lt;Path&gt;" class="cls-38" d="M188.09,268.53l-6.55,3.94s-2.65,5.22-2.71,7.47c-.08,2.62,1.73,5.53,2.1,6.05,1,1.39,4.44-6.56,4.44-6.56l6.31-4.21Z"/><circle id="_Path_6" data-name="&lt;Path&gt;" class="cls-42" cx="235.16" cy="292.85" r="1.44"/><path id="_Path_7" data-name="&lt;Path&gt;" class="cls-43" d="M261.67,362.57h0a4.7,4.7,0,0,0-4.7,4.7v33.29a4.7,4.7,0,0,0,4.7,4.7h0a4.7,4.7,0,0,0,4.7-4.7V367.26A4.7,4.7,0,0,0,261.67,362.57Z"/><path id="_Rectangle_" data-name="&lt;Rectangle&gt;" class="cls-44" d="M261.08,290.28h1.09a5.52,5.52,0,0,1,5.52,5.52V396.54a0,0,0,0,1,0,0H255.56a0,0,0,0,1,0,0V295.8A5.52,5.52,0,0,1,261.08,290.28Z"/><path id="_Path_8" data-name="&lt;Path&gt;" class="cls-45" d="M267.16,400v5.74H238.8v-.57a2.28,2.28,0,0,1,1.7-2.21L255.6,399a4.21,4.21,0,0,1,2.12,0,15.53,15.53,0,0,0,8.32.15A.87.87,0,0,1,267.16,400Z"/><path id="_Path_9" data-name="&lt;Path&gt;" class="cls-46" d="M267.16,405.7v0a1.73,1.73,0,0,1-1.73,1.73H239.67a.87.87,0,0,1-.87-.87v-.9Z"/><path id="_Path_10" data-name="&lt;Path&gt;" class="cls-43" d="M239.44,362.57h0a4.7,4.7,0,0,0-4.7,4.7v33.29a4.7,4.7,0,0,0,4.7,4.7h0a4.7,4.7,0,0,0,4.7-4.7V367.26A4.7,4.7,0,0,0,239.44,362.57Z"/><path id="_Rectangle_2" data-name="&lt;Rectangle&gt;" class="cls-44" d="M238.85,290.28h1.09a5.52,5.52,0,0,1,5.52,5.52V396.54a0,0,0,0,1,0,0H233.33a0,0,0,0,1,0,0V295.8A5.52,5.52,0,0,1,238.85,290.28Z"/><path id="_Path_11" data-name="&lt;Path&gt;" class="cls-45" d="M245,400v5.74H216.66v-.57a2.28,2.28,0,0,1,1.7-2.21l15.1-3.93a4.21,4.21,0,0,1,2.12,0,15.53,15.53,0,0,0,8.32.15A.87.87,0,0,1,245,400Z"/><path id="_Path_12" data-name="&lt;Path&gt;" class="cls-46" d="M245,405.7v0a1.73,1.73,0,0,1-1.73,1.73H217.53a.87.87,0,0,1-.87-.87v-.9Z"/><path id="_Path_13" data-name="&lt;Path&gt;" class="cls-44" d="M267.49,285.49l-34.61.28.21,11.11a5.94,5.94,0,0,0,6,5.9l22.72-.18a5.94,5.94,0,0,0,5.9-6Z"/><g id="_Group_" data-name="&lt;Group&gt;"><g id="_Clip_Group_2" data-name="&lt;Clip Group&gt;"><path id="_Rectangle_3" data-name="&lt;Rectangle&gt;" class="cls-20" d="M234.72,219.5h28.58a8,8,0,0,1,8,8v65.9a0,0,0,0,1,0,0H229.66a0,0,0,0,1,0,0V224.55A5.05,5.05,0,0,1,234.72,219.5Z"/></g></g><path id="_Path_14" data-name="&lt;Path&gt;" class="cls-38" d="M298.87,211.69h0a3.76,3.76,0,0,1-5.27.74l-25.66-19.7a3.76,3.76,0,0,1-.74-5.27h0a3.76,3.76,0,0,1,5.27-.74l25.66,19.7A3.76,3.76,0,0,1,298.87,211.69Z"/><path id="_Path_15" data-name="&lt;Path&gt;" class="cls-41" d="M268.12,192.81a64,64,0,0,0-7-1.65c-.6-3,3.61-3.61,3.61-3.61Z"/><path id="_Path_16" data-name="&lt;Path&gt;" class="cls-38" d="M273.85,187.78l-5.68-5.11s-5.77-1-7.94-.4c-2.53.69-4.78,3.27-5.17,3.78-1,1.35,7.58,2.32,7.58,2.32l5.87,4.8Z"/><path id="_Path_17" data-name="&lt;Path&gt;" class="cls-38" d="M265.13,227.87h0a3.76,3.76,0,0,0,5.15,1.33L298,212.49a3.76,3.76,0,0,0,1.33-5.15h0a3.76,3.76,0,0,0-5.15-1.33l-27.7,16.71A3.76,3.76,0,0,0,265.13,227.87Z"/><g id="_Clip_Group_3" data-name="&lt;Clip Group&gt;"><path id="_Clipping_Path_2" data-name="&lt;Clipping Path&gt;" class="cls-39" d="M285.11,210.27l4.87,8.1L269.8,230.62a4.74,4.74,0,0,1-6.49-1.62h0a4.74,4.74,0,0,1,1.62-6.49Z"/></g><line id="_Path_18" data-name="&lt;Path&gt;" class="cls-40" x1="282.25" y1="212" x2="287.2" y2="220.06"/><ellipse id="_Path_19" data-name="&lt;Path&gt;" class="cls-34" cx="250.47" cy="219.5" rx="5.65" ry="3.67"/><path id="_Path_20" data-name="&lt;Path&gt;" class="cls-38" d="M250.07,209.07h.11a3,3,0,0,0-3,3.08v6.58c0,1.7,1.27,2.23,3,2.23h-.05c1.7,0,3-.53,3-2.23v-6.58A3.08,3.08,0,0,0,250.07,209.07Z"/><path id="_Path_21" data-name="&lt;Path&gt;" class="cls-47" d="M244.66,217c9.73.52,14.91-6.67,16.5-15.6,1.68-9.41-4.62-17.19-12.26-17.22-8.68,0-13.75,3.36-14.46,12.89-.45,6,1.35,18,10.22,19.93Z"/><path id="_Path_22" data-name="&lt;Path&gt;" class="cls-32" d="M262.43,189c1,2.48,1,6.2.84,8.57a2.37,2.37,0,0,0-2-.5l-.32.08h0l-.16.05-.16.06-.17.07-.12.06-.19.11-.15.1-.15.1-.14.11-.14.12-.27.26s0,0,0,0l-.05.06,0,0,0,0v4.41a1.94,1.94,0,0,1-.46,1.45,2.35,2.35,0,0,1-.2.22,3.09,3.09,0,0,1-1.32.38,2.26,2.26,0,0,1-2.27-2.05v-1.55a2.23,2.23,0,0,0-2.05-2.23l-.39,0c0-1.76,0-3.16,0-4,0-1.08-.38-1.78-2.76-2h-.07l-.67-.05h-.05c-.41,0-.87,0-1.38,0H236.54l-.13,0a5.4,5.4,0,0,1-3-2,3.26,3.26,0,0,1-.61-2.17h3a6.14,6.14,0,0,1-1.56-2.62,14.35,14.35,0,0,1-.69-3.32h5s5-3.66,10.62-3.19c8.81.74,11.72,6.41,11.72,6.41a9.5,9.5,0,0,1,3.81-.67A8.12,8.12,0,0,0,262.43,189Z"/><path id="_Path_23" data-name="&lt;Path&gt;" class="cls-48" d="M248.87,192.89c-.41,0-.87,0-1.38,0H236.54l-.13,0a5.4,5.4,0,0,1-3-2,3.26,3.26,0,0,1-.61-2.17s2.61,2.94,4.27,3.24l.13,0C238.92,192.14,246.41,192.71,248.87,192.89Z"/><g id="_Group_2" data-name="&lt;Group&gt;"><line id="_Path_24" data-name="&lt;Path&gt;" class="cls-32" x1="238.04" y1="198.09" x2="241.49" y2="197.92"/><path id="_Path_25" data-name="&lt;Path&gt;" class="cls-32" d="M238,198.67a.58.58,0,0,1,.05-1.15l3.45-.18a.58.58,0,1,1,.06,1.15l-3.45.18Z"/></g><g id="_Group_3" data-name="&lt;Group&gt;"><line id="_Path_26" data-name="&lt;Path&gt;" class="cls-32" x1="247.06" y1="197.92" x2="250.51" y2="198.09"/><path id="_Path_27" data-name="&lt;Path&gt;" class="cls-32" d="M247,197.35a.58.58,0,0,0,.05,1.15l3.45.18a.58.58,0,1,0,.06-1.15l-3.45-.18Z"/></g><circle id="_Path_28" data-name="&lt;Path&gt;" cx="248.35" cy="201.65" r="0.78"/><circle id="_Path_29" data-name="&lt;Path&gt;" cx="240.03" cy="201.91" r="0.78"/><path id="_Path_30" data-name="&lt;Path&gt;" class="cls-48" d="M233.6,182.67s1.95,4.43,4.7,5.56c2.33,1,13.74,1.32,13.74,1.32a19.46,19.46,0,0,1-3.54.84c-1,.11-11.07.42-12.65-1.78A9.78,9.78,0,0,1,233.6,182.67Z"/><g id="_Group_4" data-name="&lt;Group&gt;"><path id="_Path_31" data-name="&lt;Path&gt;" class="cls-47" d="M258.74,198.76a4.58,4.58,0,0,1,1.59-1.66c2.47-1.71,5.34-.32,4.25,2.61-.76,2-2.07,7.11-3.67,5.29A9.72,9.72,0,0,1,258.74,198.76Z"/><polygon id="_Path_32" data-name="&lt;Path&gt;" class="cls-49" points="260.64 199.06 263.88 198.52 261.43 202.96 262.26 199.3 260.64 199.06"/></g><polygon id="_Path_33" data-name="&lt;Path&gt;" class="cls-49" points="244.12 200.53 244.23 207.31 242.77 206.98 244.12 200.53"/><line class="cls-50" x1="240.42" y1="209.73" x2="246.13" y2="211.47"/><path class="cls-51" d="M523.55,357.9h-8.18a4.1,4.1,0,0,1-4.09-4.09V330.64a4.1,4.1,0,0,1,4.09-4.09h4.07c5.59-.18,10.14-4.14,10.14-9.89a9.89,9.89,0,1,0-19.78,0c0,4.51-3.66,4.54-8.18,4.54s-8.18,0-8.18-4.54a26.25,26.25,0,1,1,34.19,25v12.14a4.1,4.1,0,0,1-4.09,4.09Zm0,20.45h-8.18a4.1,4.1,0,0,1-4.09-4.09v-7.72a4.1,4.1,0,0,1,4.09-4.09h8.18a4.1,4.1,0,0,1,4.09,4.09v7.72a4.11,4.11,0,0,1-4.09,4.09Z"/></svg>