<svg id="Layer_1" data-name="Layer 1" xmlns="http://www.w3.org/2000/svg" xmlns:xlink="http://www.w3.org/1999/xlink" viewBox="0 0 708.66 481.89"><defs><style>.cls-1,.cls-11,.cls-22,.cls-24,.cls-27,.cls-40{fill:none;}.cls-2{fill:#d5eff0;}.cls-3{fill:#ee4256;}.cls-4{opacity:0.07;}.cls-5{fill:#095a70;}.cls-6{fill:#e59a83;}.cls-38,.cls-42,.cls-7{fill:#648ec9;}.cls-13,.cls-8{fill:#f8ab8d;}.cls-9{fill:#fff;}.cls-10{fill:#3952a0;}.cls-11,.cls-24,.cls-27{stroke:#fff;}.cls-11,.cls-38,.cls-42{stroke-miterlimit:10;}.cls-11,.cls-24{stroke-width:2px;}.cls-12{fill:#e5e5e4;}.cls-13,.cls-17{fill-rule:evenodd;}.cls-14{fill:#8b6339;}.cls-15{fill:#754d24;}.cls-16{fill:#979797;}.cls-17,.cls-39{fill:#dc846a;}.cls-18{fill:#686867;}.cls-19{fill:#f4f4f4;}.cls-20{fill:#9b9b9a;}.cls-21{fill:#878787;}.cls-22{stroke:#f4f4f4;}.cls-22,.cls-24,.cls-27,.cls-40{stroke-linecap:round;stroke-linejoin:round;}.cls-22,.cls-42{stroke-width:3px;}.cls-23{fill:#f4c362;}.cls-25{fill:#efc881;}.cls-26{fill:#7f653e;}.cls-27,.cls-38{stroke-width:7px;}.cls-28{fill:#19a4a4;}.cls-29{opacity:0.2;}.cls-30{fill:#54402b;}.cls-31{fill:#6c4e38;}.cls-32{fill:#fce36a;}.cls-33,.cls-35,.cls-37{opacity:0.1;}.cls-34,.cls-35{fill:#151516;}.cls-36{fill:#ffdc83;}.cls-37{fill:#161616;}.cls-38{stroke:#efefef;}.cls-40{stroke:#dc846a;}.cls-41{fill:#079347;}.cls-42{stroke:#f9f9f9;}.cls-43{clip-path:url(#clip-path);}.cls-44{fill:#515180;}.cls-45{fill:#eeefef;}.cls-46{fill:#a4a6a9;}.cls-47{fill:#b9bbbd;}</style><clipPath id="clip-path"><rect class="cls-1" x="146.06" y="377.52" width="45.47" height="24.19" rx="2.86" ry="2.86"/></clipPath></defs><title>CS-L2-U9</title><path class="cls-2" d="M112.16,373.63c0-142.14,115.23-257.37,257.37-257.37S626.89,231.49,626.89,373.63"/><rect class="cls-3" x="417.71" y="190.12" width="144.63" height="197.84" rx="13.22" ry="13.22"/><path class="cls-4" d="M570.15,292.09,529.22,214.7a13.81,13.81,0,0,0-11.78-7.34,23.7,23.7,0,0,0-10.15-4l-16.71-2.48h0l-9-8h0l1.18-8c17.28-6.47,26.18-22.87,28.72-42.19.12.11.23.24.35.35,5.37,4.83,7.45-10.61,9-16.94s-2.2-9.59-6.84-9.24c-.67-6.16-2.05-13.53-4.91-18.62.91-5.49,2.71-7.35,5.67-11.45A30,30,0,0,0,503.64,90s-10.51-14.74-36.89-13.7C450,76.94,436.3,88.9,436.3,88.9l-14.9,1.77a38,38,0,0,0,3.16,9,17.15,17.15,0,0,0,5.49,6.76l-9,1.07s-.23,2.6,2.51,5.82c3,3.48,8,4.43,9.51,4.64a60.63,60.63,0,0,0-1,14.79c.74,16.93,9.42,49.22,33.45,54.4l-1.13,7.63a7.21,7.21,0,0,0,0,2.19l-24.63-3.65a24.4,24.4,0,0,0-6.64-.07c-.42-.18-.85-.34-1.29-.47h0a13.82,13.82,0,0,0-17.29,9.11l-23.43,75.64a13.85,13.85,0,0,0-1.89.91l-83.87,50.3a.13.13,0,0,0,0,.17l13.92,23.59a.13.13,0,0,0,.18,0l78.87-47.3L385,394.61l115.41,17.12L511.68,336l51.53-23.87a15.41,15.41,0,0,0,6.94-20.07Zm-30.9.71-22.72,10.52,6.2-41.77Z"/><rect id="_Rectangle_" data-name="&lt;Rectangle&gt;" class="cls-5" x="397.76" y="190.18" width="27.64" height="115.18" rx="12.88" ry="12.88" transform="matrix(0.96, 0.3, -0.3, 0.96, 91.73, -110.67)"/><rect id="_Rectangle_2" data-name="&lt;Rectangle&gt;" class="cls-6" x="313.03" y="288.8" width="22.22" height="85.21" rx="10.35" ry="10.35" transform="translate(189.65 775.03) rotate(-118.77)"/><path id="_Path_" data-name="&lt;Path&gt;" class="cls-5" d="M302.11,328.9,316,352.48a.13.13,0,0,0,.18,0l83.86-50.3a13.82,13.82,0,0,0,4.88-18.93h0A13.82,13.82,0,0,0,386,278.42l-83.87,50.3A.13.13,0,0,0,302.11,328.9Z"/><path id="_Rectangle_3" data-name="&lt;Rectangle&gt;" class="cls-7" d="M419.31,197.13h71.56a22.19,22.19,0,0,1,22.19,22.19v185a0,0,0,0,1,0,0H396.38a0,0,0,0,1,0,0V220.06a22.93,22.93,0,0,1,22.93-22.93Z" transform="translate(49.06 -63.48) rotate(8.44)"/><path id="_Path_2" data-name="&lt;Path&gt;" class="cls-8" d="M473.12,169.16l.29,0a8.38,8.38,0,0,0-9.51,7.32l-2.71,18.25c-.7,4.72,2.61,6.71,7.33,7.41l-.15,0c4.72.7,8.61-.22,9.31-4.94L480.39,179A8.63,8.63,0,0,0,473.12,169.16Z"/><rect class="cls-4" x="59.35" y="365.69" width="608.95" height="53.56" rx="24.95" ry="24.95"/><polygon id="_Path_3" data-name="&lt;Path&gt;" class="cls-5" points="497.49 202.81 499.42 216 487.49 224.83 490.65 233.66 435.38 291.13 426.9 224 433.82 216.42 431.63 205.92 441.45 194.48 497.49 202.81"/><polygon id="_Path_4" data-name="&lt;Path&gt;" class="cls-9" points="447.05 194.86 444.39 263.3 487.37 200.84 447.05 194.86"/><rect class="cls-10" x="59.35" y="369.72" width="608.95" height="62.84" rx="24.95" ry="24.95"/><path id="_Path_5" data-name="&lt;Path&gt;" class="cls-6" d="M306.42,353.81l-16.55,17.32s-18,3.74-24.87,2.09c-8-1.92-15.35-9.77-16.62-11.32-3.38-4.14,23.54-8.06,23.54-8.06l17.92-15.67Z"/><path class="cls-11" d="M525.38,376.44S438.63,363.51,454.9,412c8.6,25.61-134,13.56-87.7-7.78,53.58-24.68-24.36-19.84-34.82-17.36-9.78,2.31-97.11,29-84.29,5.65"/><polygon id="_Path_6" data-name="&lt;Path&gt;" class="cls-12" points="487.37 200.84 478.33 192.81 466.11 200.17 470.24 216.09 487.37 200.84"/><polygon id="_Path_7" data-name="&lt;Path&gt;" class="cls-12" points="447.05 194.86 461.85 190.37 466.11 200.17 451.8 213.35 447.05 194.86"/><ellipse id="_Path_8" data-name="&lt;Path&gt;" class="cls-5" cx="428.96" cy="314.52" rx="6.71" ry="5.42" transform="translate(54.89 692.68) rotate(-81.56)"/><ellipse id="_Path_9" data-name="&lt;Path&gt;" class="cls-5" cx="423.44" cy="347.97" rx="6.71" ry="5.42" transform="matrix(0.27, -0.96, 0.96, 0.27, -24.35, 663.98)"/><rect id="_Rectangle_4" data-name="&lt;Rectangle&gt;" class="cls-5" x="520.43" y="202.27" width="27.64" height="115.18" rx="12.88" ry="12.88" transform="translate(1128 239.82) rotate(152.13)"/><path id="_Path_10" data-name="&lt;Path&gt;" class="cls-13" d="M465.84,187.71c28.77-1.86,41.46-24.79,43-51.59,1.64-28.22-19.58-48.88-42-46.29-25.51,2.95-39.21,14.66-38,42.91.78,17.74,10.25,52.35,37,55Z"/><path id="_Path_11" data-name="&lt;Path&gt;" class="cls-14" d="M505.83,98.22c3.68,6.56,4.92,16.93,5.33,23.57a7.76,7.76,0,0,0-2.57-1,8.15,8.15,0,0,0-3.6.27,8.93,8.93,0,0,0-.93.33h0l-.45.2-.45.22-.47.27-.33.2-.54.37-.42.32-.42.34-.39.36-.39.38c-.25.26-.49.54-.72.82,0,0,0,.05,0,.07s-.09.13-.14.2l-.07.12s-.05.09-.09.13a.26.26,0,0,0,0,.06l0,.06,0,0a.31.31,0,0,0,0,.08l1.43,12a5.22,5.22,0,0,1-.89,4.2,6.77,6.77,0,0,1-.52.68,9.68,9.68,0,0,1-3.78,1.53c-3.35.4-7-1.78-7.41-4.92l-.51-4.31a6.44,6.44,0,0,0-6.82-5.49l-1.17.06c-.67-4.89-1.09-8.78-1.33-11.2-.3-3-1.72-4.83-8.87-4.66H469c-.62,0-1.29,0-2,.09h-.15c-1.23.09-2.6.22-4.11.4L430.29,118l-.38,0c-1.43-.2-6.56-1.14-9.56-4.65-2.74-3.21-2.51-5.82-2.51-5.82l9-1.07a17.15,17.15,0,0,1-5.49-6.76,38,38,0,0,1-3.16-9l14.9-1.77s13.71-12,30.44-12.61c26.39-1,36.89,13.7,36.89,13.7a30,30,0,0,1,11.08-3.22C508.53,90.87,506.73,92.73,505.83,98.22Z"/><path id="_Path_12" data-name="&lt;Path&gt;" class="cls-15" d="M466.86,113.75c-1.23.09-2.6.22-4.11.4L430.29,118l-.38,0c-1.43-.2-6.56-1.14-9.56-4.65-2.74-3.21-2.51-5.82-2.51-5.82s8.7,7.26,13.75,7.5H432C437.1,115.14,459.5,114.1,466.86,113.75Z"/><path id="_Path_13" data-name="&lt;Path&gt;" class="cls-15" d="M418.18,90.67s7.25,11.66,15.77,13.82c7.24,1.84,41.19-1.17,41.19-1.17a61.28,61.28,0,0,1-10.21,3.6c-3,.67-32.7,5.08-38.11-.5A26.46,26.46,0,0,1,418.18,90.67Z"/><g id="_Group_" data-name="&lt;Group&gt;"><line id="_Path_14" data-name="&lt;Path&gt;" class="cls-16" x1="435.99" y1="134.72" x2="446.15" y2="132.99"/><path id="_Path_15" data-name="&lt;Path&gt;" class="cls-14" d="M436,136.44a1.72,1.72,0,0,1-.25-3.41l10.16-1.73a1.72,1.72,0,0,1,.58,3.39l-10.16,1.73A1.74,1.74,0,0,1,436,136.44Z"/></g><g id="_Group_2" data-name="&lt;Group&gt;"><line id="_Path_16" data-name="&lt;Path&gt;" class="cls-16" x1="464.77" y1="130.78" x2="475.05" y2="130.08"/><path id="_Path_17" data-name="&lt;Path&gt;" class="cls-14" d="M464.32,129.12a1.72,1.72,0,0,0,.56,3.37l10.28-.7a1.72,1.72,0,0,0-.23-3.43l-10.28.7A1.74,1.74,0,0,0,464.32,129.12Z"/></g><polygon id="_Path_18" data-name="&lt;Path&gt;" class="cls-17" points="457.27 144.26 459.31 158.81 454.92 158.61 457.27 144.26"/><g id="_Group_3" data-name="&lt;Group&gt;"><path id="_Path_19" data-name="&lt;Path&gt;" class="cls-13" d="M500,125.34s.75-2.5,4.13-5.49c6.71-5.93,15.7-2.84,13.49,6.22-1.54,6.33-3.63,21.77-9,16.94C504.47,139.32,501.1,133.31,500,125.34Z"/><polygon id="_Path_20" data-name="&lt;Path&gt;" class="cls-17" points="505.69 125.56 515.09 122.8 509.43 136.82 510.57 125.69 505.69 125.56"/></g><circle id="_Path_21" data-name="&lt;Path&gt;" cx="442.22" cy="145.37" r="2.11" transform="translate(-17.1 69.74) rotate(-8.85)"/><g class="cls-4"><path class="cls-9" d="M414,429.57c-25.15,0-53.31-4.73-56.78-13-1.58-3.77,1.63-7.53,9.53-11.17,17.46-8,18.36-11.78,17.93-13-2.18-6.32-42.57-4.58-52.06-2.33-1.16.27-3.43.9-6.57,1.76-33.37,9.17-72.54,18.59-79.27,10.08-1.53-1.93-1.41-4.54.36-7.75l1.88,1c-1.31,2.38-1.49,4.2-.55,5.39,6.71,8.49,59.62-6,77-10.82,3.16-.87,5.44-1.49,6.64-1.78,6.14-1.45,51.43-5.43,54.58,3.72,1.4,4-4.66,9-19.07,15.66-4.57,2.11-9.75,5.27-8.44,8.39,2,4.73,16.75,9.14,36.76,11,20.49,1.87,40.35.59,50.59-3.26,6.09-2.29,8.56-5.3,7.33-9-3.51-10.44-2.59-19,2.74-25.31,16.12-19.24,66.77-11.94,68.92-11.61l-.32,2.12c-.52-.08-51.61-7.45-67,10.87-4.81,5.74-5.6,13.56-2.35,23.25,1.14,3.4.58,8.19-8.61,11.64C439.8,428.24,427.32,429.57,414,429.57Z"/></g><circle id="_Path_22" data-name="&lt;Path&gt;" cx="467.92" cy="142.11" r="2.11" transform="translate(-16.29 73.66) rotate(-8.85)"/><path class="cls-18" d="M536.67,316.42h96.71a13.5,13.5,0,0,1,13.5,13.5v51.5a0,0,0,0,1,0,0H523.17a0,0,0,0,1,0,0v-51.5A13.5,13.5,0,0,1,536.67,316.42Z"/><circle class="cls-19" cx="585.03" cy="350.76" r="25.69"/><circle class="cls-20" cx="585.03" cy="331.8" r="4.28"/><circle class="cls-20" cx="575.55" cy="334.34" r="4.28" transform="translate(-90.06 332.57) rotate(-30)"/><circle class="cls-20" cx="568.61" cy="341.28" r="4.28" transform="translate(-11.25 663.07) rotate(-60)"/><circle class="cls-20" cx="566.07" cy="350.76" r="4.28"/><circle class="cls-20" cx="568.61" cy="360.24" r="4.28" transform="translate(-103.94 332.57) rotate(-30)"/><circle class="cls-20" cx="575.55" cy="367.18" r="4.28" transform="translate(-30.21 682.03) rotate(-60)"/><circle class="cls-20" cx="585.03" cy="369.72" r="4.28"/><circle class="cls-20" cx="594.51" cy="367.18" r="4.28" transform="translate(-103.94 346.44) rotate(-30)"/><circle class="cls-20" cx="601.44" cy="360.24" r="4.28" transform="translate(-11.25 700.98) rotate(-60)"/><circle class="cls-20" cx="603.98" cy="350.76" r="4.28"/><circle class="cls-20" cx="601.44" cy="341.28" r="4.28" transform="translate(-90.06 346.44) rotate(-30)"/><circle class="cls-20" cx="594.51" cy="334.34" r="4.28" transform="translate(7.71 682.03) rotate(-60)"/><path class="cls-4" d="M283.41,302.61h0a17.79,17.79,0,1,0-16.16,31.69l2.83,1.44L255.16,365l-2.83-1.44a17.79,17.79,0,0,0-23.93,7.77h0a17.79,17.79,0,0,0,7.77,23.93h0a17.79,17.79,0,0,0,23.93-7.76l4.73-9.28h0l20.86-40.9-.17-.09a7.38,7.38,0,0,0,.92-1.39l4.73-9.28A17.79,17.79,0,0,0,283.41,302.61Z"/><rect class="cls-18" x="258.27" y="328.98" width="14.61" height="54" transform="translate(190.66 -81.79) rotate(27.01)"/><path class="cls-18" d="M272.77,298.62h2.43a16.57,16.57,0,0,1,16.57,16.57v12.13a6.87,6.87,0,0,1-6.87,6.87H272.77a16.57,16.57,0,0,1-16.57-16.57V315.2a16.57,16.57,0,0,1,16.57-16.57Z" transform="translate(173.61 -89.92) rotate(27.01)"/><path class="cls-18" d="M241.7,359.56h12.13a6.87,6.87,0,0,1,6.87,6.87v12.13a16.57,16.57,0,0,1-16.57,16.57H241.7a16.57,16.57,0,0,1-16.57-16.57v-2.43a16.57,16.57,0,0,1,16.57-16.57Z" transform="translate(197.89 -69.16) rotate(27.01)"/><circle class="cls-21" cx="271.11" cy="314.59" r="12.39" transform="translate(-132.3 413.23) rotate(-62.99)"/><circle class="cls-21" cx="240.37" cy="376.05" r="12.39" transform="translate(-203.83 419.39) rotate(-62.99)"/><line class="cls-22" x1="261.86" y1="311.02" x2="245.77" y2="301.62"/><line class="cls-22" x1="266.51" y1="304.27" x2="255.02" y2="279.26"/><path class="cls-23" d="M165.84,322.31a124.28,124.28,0,0,1-17.88-9.2A93.81,93.81,0,0,1,131.61,300a67.47,67.47,0,0,1-13-18.39,52,52,0,0,1-5.09-25,44.28,44.28,0,0,1,3.29-14.15,45.07,45.07,0,0,1,3.5-6.81c.69-1.09,1.48-2.1,2.26-3.15l1.19-1.55c.4-.51.86-1,1.3-1.43q1.33-1.41,2.72-2.79c.94-.88,1.95-1.65,2.95-2.47A49.39,49.39,0,0,1,137,220a33.27,33.27,0,0,1,3.29-1.72c1.11-.53,2.23-1.07,3.36-1.56l3.37-1.22,1.71-.59.86-.29.84-.22a83.74,83.74,0,0,1,26.41-2.79,135.39,135.39,0,0,1,24.12,3.6l1.18.28a26.79,26.79,0,0,1-12.18,52.17,27.5,27.5,0,0,1-7.84-3.2,92.82,92.82,0,0,0-12.82-6.65,46.15,46.15,0,0,0-11.81-3.13,19.75,19.75,0,0,0-9,.79,3.35,3.35,0,0,0-.49.16l-.42.23c-.28.16-.63.27-.92.45a11.48,11.48,0,0,0-1.66,1.27,12.48,12.48,0,0,0-2.88,3.93,24.73,24.73,0,0,0-1.57,12.9,46.76,46.76,0,0,0,4.89,15.39,79.2,79.2,0,0,0,9.87,14.79,115.74,115.74,0,0,0,13.28,13.16l.08.07a2.7,2.7,0,0,1-2.84,4.53Z"/><path class="cls-24" d="M140.78,222.62c10.05-5.11,23.5-9.57,42.09-5.69"/><path class="cls-24" d="M128.86,232.88a29.36,29.36,0,0,1,6.22-6.65l.57-.44"/><ellipse class="cls-4" cx="211.27" cy="249.5" rx="48.04" ry="27.98" transform="translate(-114.55 276.35) rotate(-54.45)"/><ellipse class="cls-25" cx="213.42" cy="250.57" rx="48.04" ry="27.98" transform="translate(-114.53 278.54) rotate(-54.45)"/><ellipse class="cls-26" cx="213.42" cy="252.5" rx="30.53" ry="17.78" transform="translate(-116.1 279.36) rotate(-54.45)"/><rect class="cls-4" x="74.68" y="293.81" width="142.81" height="116.02" rx="21.84" ry="21.84"/><rect class="cls-23" x="74.68" y="297.03" width="142.81" height="116.02" rx="20.35" ry="20.35"/><path class="cls-7" d="M197.13,358a51.37,51.37,0,1,0-101.81,9.79H196.2A51.63,51.63,0,0,0,197.13,358Z"/><line class="cls-27" x1="123.1" y1="319.66" x2="139.54" y2="344.91"/><line class="cls-27" x1="166.94" y1="319.41" x2="150.34" y2="344.91"/><path class="cls-27" d="M160,358.59a14.52,14.52,0,1,0-29,0l-30.32,0a44.85,44.85,0,0,1,89.69,0l-30.32,0"/><path class="cls-28" d="M167.22,320l-16,24.63A15.12,15.12,0,0,1,160.52,358l29.2,0A44.31,44.31,0,0,0,167.22,320Z"/><path class="cls-29" d="M179.41,335.13c-.7-1.61-2.29-2.46-3.54-1.91a2.05,2.05,0,0,0-.92.81,9.39,9.39,0,0,0-3.64-1.39c-2.75-.46-5.27-.08-6.71,2.77-.28,0-2-.07-2,3.7a17.61,17.61,0,0,0,.4,3.51v.15c-.22,3,.67,8.94,5.08,9.9,3.9.21,6.32-2.07,7.53-5.29a.74.74,0,1,0,1.11-1,13.39,13.39,0,0,0,1-2.48,1.35,1.35,0,0,0,0-1.14,11.77,11.77,0,0,0,.24-3.66,2,2,0,0,0,.44-.13C179.66,338.48,180.11,336.73,179.41,335.13Z"/><path id="_Path_23" data-name="&lt;Path&gt;" class="cls-30" d="M165.6,335.41s-2-.41-2,3.7a17.94,17.94,0,0,0,.52,4l3.07-3.55,3.17-1.42-4-1.43Z"/><g id="_Group_4" data-name="&lt;Group&gt;"><path id="_Path_24" data-name="&lt;Path&gt;" class="cls-13" d="M169.05,352.68c4.84.26,7.41-3.31,8.2-7.75.83-4.68-2.3-8.54-6.09-8.56-4.31,0-6.83,1.67-7.19,6.41-.22,3,.67,8.94,5.08,9.9Z"/><g id="_Group_5" data-name="&lt;Group&gt;"><line id="_Path_25" data-name="&lt;Path&gt;" class="cls-14" x1="164.8" y1="343.07" x2="166.62" y2="342.98"/><path id="_Path_26" data-name="&lt;Path&gt;" class="cls-14" d="M164.76,343.37a.3.3,0,0,1,0-.6l1.82-.09a.3.3,0,0,1,0,.61l-1.82.09Z"/></g><g id="_Group_6" data-name="&lt;Group&gt;"><line id="_Path_27" data-name="&lt;Path&gt;" class="cls-14" x1="169.56" y1="342.98" x2="171.38" y2="343.07"/><path id="_Path_28" data-name="&lt;Path&gt;" class="cls-14" d="M169.52,342.68a.3.3,0,0,0,0,.6l1.82.09a.3.3,0,0,0,0-.61l-1.82-.09Z"/></g><circle id="_Path_29" data-name="&lt;Path&gt;" cx="170.24" cy="344.94" r="0.41"/><circle id="_Path_30" data-name="&lt;Path&gt;" cx="165.85" cy="345.08" r="0.41"/><polygon id="_Path_31" data-name="&lt;Path&gt;" class="cls-17" points="168.01 344.36 168.07 347.93 167.3 347.75 168.01 344.36"/><path id="_Path_32" data-name="&lt;Path&gt;" class="cls-9" d="M168.23,350.27c-1,0-1.93-.56-1.93-1.19v-.15h4v.15c0,.58-.6,1.19-1.73,1.19Z"/></g><ellipse id="_Path_33" data-name="&lt;Path&gt;" class="cls-30" cx="178.11" cy="336.12" rx="2.48" ry="3.17" transform="translate(-119.76 99.53) rotate(-23.62)"/><path id="_Path_34" data-name="&lt;Path&gt;" class="cls-31" d="M176.42,345.46a1.5,1.5,0,0,1-1.84-1.88,14.71,14.71,0,0,1-9.05-8.11c1.43-2.9,4-3.3,6.74-2.83,4.09.69,8.43,3.77,6,11.7C178.12,344.93,177,345,176.42,345.46Z"/><g id="_Group_7" data-name="&lt;Group&gt;"><path id="_Path_35" data-name="&lt;Path&gt;" class="cls-13" d="M175.77,343.48a2.29,2.29,0,0,1,.8-.83c1.24-.86,2.68-.16,2.13,1.31-.38,1-1,3.56-1.84,2.65A4.87,4.87,0,0,1,175.77,343.48Z"/><polygon id="_Path_36" data-name="&lt;Path&gt;" class="cls-17" points="176.72 343.63 178.35 343.36 177.12 345.58 177.54 343.75 176.72 343.63"/></g><circle id="_Path_37" data-name="&lt;Path&gt;" class="cls-32" cx="177.14" cy="346.92" r="0.74"/><path class="cls-3" d="M138.91,345l-16-24.55A44.3,44.3,0,0,0,101.17,358l29.2,0A15.11,15.11,0,0,1,138.91,345Z"/><g class="cls-33"><path class="cls-34" d="M141.26,351.74l29.41-19a.29.29,0,0,1,.39.41l-20.34,28.93"/><circle class="cls-35" cx="146.09" cy="357.03" r="7.02"/><circle class="cls-34" cx="145.77" cy="357.19" r="7.02"/></g><path class="cls-36" d="M150.1,344.24l16.12-24.77a44.2,44.2,0,0,0-42.31.41l16,24.66a15.09,15.09,0,0,1,10.14-.29Z"/><path class="cls-7" d="M140.94,351.26l29.41-19a.29.29,0,0,1,.39.41L150.4,361.57"/><circle class="cls-37" cx="145.77" cy="356.54" r="7.02"/><circle class="cls-38" cx="145.44" cy="356.71" r="7.02"/><path class="cls-29" d="M153.2,328.63a15.34,15.34,0,0,1-.41-2.39,7.32,7.32,0,0,0-1.88-4.53,8.12,8.12,0,0,0-3-2.08A2,2,0,0,0,148,319c0-1.37-1.49-2.44-3.24-2.39s-3.14,1.2-3.1,2.57c0,0,0,.05,0,.08a7.53,7.53,0,0,0-4.55,3.36,7.31,7.31,0,0,0-1.06,3.18c-.06.6-.25,1.66-.51,2.93a1.75,1.75,0,0,0-.16,1.46,6.65,6.65,0,0,0,1.11,2.22.63.63,0,1,0,1.13,0c1.67,2.62,4.41,5,6.87,5,2.62,0,4.87-2.08,6.3-4.49a.63.63,0,1,0,1.1-.25,14.33,14.33,0,0,0,1-2.5,1.26,1.26,0,0,0-.16-1.37A3.22,3.22,0,0,0,153.2,328.63Zm-15.66,3.68h0Z"/><ellipse id="_Path_38" data-name="&lt;Path&gt;" class="cls-30" cx="145.62" cy="319.12" rx="3.17" ry="2.48" transform="translate(-9.17 4.35) rotate(-1.66)"/><path class="cls-13" d="M136.86,328.13c0,3.37,4.56,9.33,8.43,9.33,4.55,0,8-6.26,8-9.63s-1.6-8.84-8-8.84C139.11,319,136.86,324.76,136.86,328.13Z"/><g id="_Group_8" data-name="&lt;Group&gt;"><line id="_Path_39" data-name="&lt;Path&gt;" class="cls-14" x1="141.97" y1="328.55" x2="143.91" y2="328.45"/><path id="_Path_40" data-name="&lt;Path&gt;" class="cls-14" d="M141.92,328.87a.32.32,0,0,1,0-.64l1.94-.1a.32.32,0,0,1,0,.65l-1.94.1Z"/></g><g id="_Group_9" data-name="&lt;Group&gt;"><line id="_Path_41" data-name="&lt;Path&gt;" class="cls-14" x1="146.74" y1="328.36" x2="148.68" y2="328.46"/><path id="_Path_42" data-name="&lt;Path&gt;" class="cls-14" d="M146.7,328a.32.32,0,0,0,0,.64l1.94.1a.32.32,0,1,0,0-.65l-1.94-.1Z"/></g><circle id="_Path_43" data-name="&lt;Path&gt;" cx="147.55" cy="329.78" r="0.44"/><circle id="_Path_44" data-name="&lt;Path&gt;" cx="142.88" cy="329.84" r="0.44"/><polygon id="_Path_45" data-name="&lt;Path&gt;" class="cls-17" points="145.5 328.91 146.16 333 145.49 332.52 145.5 328.91"/><polygon class="cls-39" points="144.83 333 146.16 333 145.49 332.4 144.83 333"/><path class="cls-15" d="M153.6,326.25a7.32,7.32,0,0,0-1.88-4.53,8.12,8.12,0,0,0-3.07-2.11h0a10.08,10.08,0,0,0-3.49-.64,7.87,7.87,0,0,0-7.25,3.67,7.31,7.31,0,0,0-1.06,3.18c-.07.72-.33,2.09-.66,3.68,2.27.55,4.9-.63,5.65-.87,2.87-.92,5.12-2.14,6.28-3.92.78,2.28,2.62,4.3,4.43,4.3a3,3,0,0,0,1.47-.39A15.33,15.33,0,0,1,153.6,326.25Z"/><g id="_Group_10" data-name="&lt;Group&gt;"><path id="_Path_46" data-name="&lt;Path&gt;" class="cls-13" d="M138.06,329.74a2.33,2.33,0,0,0-.51-.85c-.8-.88-1.72-.17-1.37,1.34.25,1,1.53,3.39,2,2.46C138.62,332,138,331.12,138.06,329.74Z"/><polygon id="_Path_47" data-name="&lt;Path&gt;" class="cls-17" points="137.44 329.89 136.4 329.61 137.19 331.89 136.92 330.01 137.44 329.89"/></g><g id="_Group_11" data-name="&lt;Group&gt;"><path id="_Path_48" data-name="&lt;Path&gt;" class="cls-13" d="M150.7,329.74a2.34,2.34,0,0,1,.82-.85c1.26-.88,2.74-.17,2.17,1.34-.39,1-1.06,3.64-1.88,2.71A5,5,0,0,1,150.7,329.74Z"/><polygon id="_Path_49" data-name="&lt;Path&gt;" class="cls-17" points="151.67 329.89 153.33 329.61 152.08 331.89 152.5 330.01 151.67 329.89"/></g><circle id="_Path_50" data-name="&lt;Path&gt;" class="cls-3" cx="137.86" cy="332.7" r="0.63"/><circle id="_Path_51" data-name="&lt;Path&gt;" class="cls-3" cx="152.19" cy="333.11" r="0.63"/><line class="cls-40" x1="143.51" y1="334.51" x2="147.47" y2="334.77"/><path class="cls-29" d="M127.19,344.57a17.61,17.61,0,0,0,.4-3.51c0-3.78-1.7-3.73-2-3.7-1.44-2.84-4-3.23-6.71-2.77a9.39,9.39,0,0,0-3.64,1.39,2.05,2.05,0,0,0-.92-.81c-1.25-.55-2.84.31-3.54,1.91s-.25,3.35,1,3.9a2,2,0,0,0,.44.13,11.77,11.77,0,0,0,.24,3.66,1.35,1.35,0,0,0,0,1.14,13.38,13.38,0,0,0,1,2.48.74.74,0,1,0,1.11,1c1.21,3.22,3.64,5.49,7.53,5.29,4.41-1,5.3-6.93,5.08-9.9Z"/><path id="_Path_52" data-name="&lt;Path&gt;" class="cls-30" d="M126.54,336.71s2-.41,2,3.7a17.94,17.94,0,0,1-.52,4L125,340.88l-3.17-1.42,4-1.43Z"/><path id="_Path_53" data-name="&lt;Path&gt;" class="cls-13" d="M123.1,354c-4.84.26-7.41-3.31-8.2-7.75-.83-4.68,2.3-8.54,6.09-8.56,4.31,0,6.83,1.67,7.19,6.41.22,3-.67,8.94-5.08,9.9Z"/><g id="_Group_12" data-name="&lt;Group&gt;"><line id="_Path_54" data-name="&lt;Path&gt;" class="cls-14" x1="127.34" y1="344.37" x2="125.52" y2="344.27"/><path id="_Path_55" data-name="&lt;Path&gt;" class="cls-14" d="M127.39,344.67a.3.3,0,0,0,0-.6l-1.82-.09a.3.3,0,0,0,0,.61l1.82.09Z"/></g><g id="_Group_13" data-name="&lt;Group&gt;"><line id="_Path_56" data-name="&lt;Path&gt;" class="cls-14" x1="122.59" y1="344.27" x2="120.77" y2="344.37"/><path id="_Path_57" data-name="&lt;Path&gt;" class="cls-14" d="M122.63,344a.3.3,0,0,1,0,.6l-1.82.09a.3.3,0,0,1,0-.61l1.82-.09Z"/></g><circle id="_Path_58" data-name="&lt;Path&gt;" cx="121.91" cy="346.24" r="0.41"/><circle id="_Path_59" data-name="&lt;Path&gt;" cx="126.29" cy="346.38" r="0.41"/><polygon id="_Path_60" data-name="&lt;Path&gt;" class="cls-17" points="124.14 345.65 124.08 349.22 124.85 349.05 124.14 345.65"/><ellipse id="_Path_61" data-name="&lt;Path&gt;" class="cls-30" cx="114.04" cy="337.42" rx="3.17" ry="2.48" transform="translate(-240.8 306.7) rotate(-66.38)"/><path id="_Path_62" data-name="&lt;Path&gt;" class="cls-31" d="M115.73,346.76a1.5,1.5,0,0,0,1.84-1.88,14.71,14.71,0,0,0,9.05-8.11c-1.43-2.9-4-3.3-6.74-2.83-4.09.69-8.43,3.77-6,11.7C114,346.23,115.15,346.3,115.73,346.76Z"/><g id="_Group_14" data-name="&lt;Group&gt;"><path id="_Path_63" data-name="&lt;Path&gt;" class="cls-13" d="M116.38,344.77a2.29,2.29,0,0,0-.8-.83c-1.24-.86-2.68-.16-2.13,1.31.38,1,1,3.56,1.84,2.65A4.87,4.87,0,0,0,116.38,344.77Z"/><polygon id="_Path_64" data-name="&lt;Path&gt;" class="cls-17" points="115.42 344.92 113.8 344.65 115.02 346.88 114.61 345.04 115.42 344.92"/></g><circle id="_Path_65" data-name="&lt;Path&gt;" class="cls-41" cx="115.01" cy="348.22" r="0.74"/><path class="cls-40" d="M126.28,351.11c-.17-.55-.81-.87-1.84-.79s-1.7.57-1.78,1.14"/><circle class="cls-29" cx="111.64" cy="390.28" r="9.18"/><circle class="cls-28" cx="112.31" cy="389.61" r="9.18"/><rect class="cls-42" x="146.06" y="377.52" width="45.47" height="24.19" rx="2.86" ry="2.86"/><g class="cls-43"><polygon class="cls-9" points="149.3 397.32 142.43 397.32 142.43 396.45 148.96 396.45 155.7 390.1 163.73 391.82 168.19 387.55 180.6 387.48 186.17 381.9 188.7 384.44 197.75 384.39 197.75 385.26 188.35 385.31 186.17 383.13 180.96 388.34 168.54 388.42 164 392.77 155.96 391.04 149.3 397.32"/></g><path id="_Path_66" data-name="&lt;Path&gt;" class="cls-39" d="M454.9,358.46s-12.56,9.74-17.18,14.78c-8.7-4-2.48-15.81-2.48-15.81Z"/><rect id="_Rectangle_5" data-name="&lt;Rectangle&gt;" class="cls-6" x="470.29" y="290.96" width="22.22" height="85.21" rx="4.88" ry="4.88" transform="translate(559.68 -246.85) rotate(62.96)"/><path id="_Path_67" data-name="&lt;Path&gt;" class="cls-5" d="M471.08,353.2,459.4,328.43a.13.13,0,0,1,.06-.17l88.73-41.1a13.82,13.82,0,0,1,18.4,6.6h0a13.82,13.82,0,0,1-6.6,18.4l-88.74,41.1A.13.13,0,0,1,471.08,353.2Z"/><path id="_Path_68" data-name="&lt;Path&gt;" class="cls-6" d="M452.9,335.63l-23.62,4s-13.2,12.79-15.71,19.4c-2.91,7.69-.54,18.19,0,20.11,1.52,5.13,19.9-14.94,19.9-14.94l19.68-3.71Z"/><path id="_Path_69" data-name="&lt;Path&gt;" class="cls-6" d="M288.66,339.33s-15.12,4.92-21.88,5.91c-1.58,9.45,23.68,7.31,23.68,7.31Z"/><path id="_Path_70" data-name="&lt;Path&gt;" class="cls-9" d="M461.27,172c-6.08.73-11.8-1.92-12.25-5.68l-.11-.88,23.43-2.8.11.88c.41,3.41-2.73,7.47-9.35,8.26Z"/><polygon id="_Path_71" data-name="&lt;Path&gt;" class="cls-44" points="460.53 216.14 458.69 243.33 443.06 265.72 444.96 238.64 456.87 214.62 460.53 216.14"/><polygon id="_Path_72" data-name="&lt;Path&gt;" class="cls-44" points="466.17 200.26 468.87 210.7 457.05 219.25 455.46 210.12 466.17 200.26"/><g class="cls-4"><circle cx="307.32" cy="132.58" r="52.48"/><circle cx="307.32" cy="132.58" r="43.74"/><path d="M307.32,96.89H308V91.78h-1.36V96.9Z"/><path d="M271.63,132.58c0-.23,0-.45,0-.68h-5.12c0,.23,0,.45,0,.68s0,.45,0,.68h5.12C271.63,133,271.63,132.8,271.63,132.58Z"/><path d="M348.12,131.9H343c0,.23,0,.45,0,.68s0,.45,0,.68h5.12c0-.23,0-.45,0-.68S348.13,132.12,348.12,131.9Z"/><path d="M307.32,168.27h-.68v5.12H308v-5.12Z"/><path d="M327.59,98.83l.72-1.25-1.18-.68-.72,1.25Z"/><path d="M273.57,112.31l-1.26-.72q-.35.58-.68,1.18l1.26.72C273.11,113.09,273.34,112.7,273.57,112.31Z"/><path d="M341.75,113.49l1.26-.72c-.22-.4-.45-.79-.68-1.18l-1.25.72Q341.42,112.89,341.75,113.49Z"/><path d="M288.23,98.15l-.72-1.25-1.18.68.72,1.25Z"/><path d="M341.07,152.85l1.25.72c.23-.39.46-.78.68-1.18l-1.26-.72Q341.42,152.26,341.07,152.85Z"/><path d="M326.41,167l.72,1.25,1.18-.68-.72-1.25Z"/><path d="M272.89,151.67l-1.26.72q.33.59.68,1.18l1.26-.72C273.34,152.46,273.11,152.07,272.89,151.67Z"/><path d="M287.05,166.33l-.72,1.25,1.18.68.72-1.25Z"/><polygon points="288.16 118.69 286.39 119.43 286.48 121.34 306.39 133.9 308.08 131.25 288.16 118.69"/><polygon points="335.62 116.92 336.01 115.14 334.25 114.66 306.54 131.4 307.91 133.66 335.62 116.92"/><circle cx="307.32" cy="132.58" r="3.5"/></g><circle class="cls-9" cx="309.47" cy="134.72" r="52.48"/><circle class="cls-45" cx="309.47" cy="134.72" r="43.74"/><path class="cls-46" d="M309.47,99h.68V93.92h-1.36V99Z"/><path class="cls-46" d="M273.78,134.72c0-.23,0-.45,0-.68h-5.12c0,.23,0,.45,0,.68s0,.45,0,.68h5.12C273.78,135.18,273.78,135,273.78,134.72Z"/><path class="cls-46" d="M350.27,134h-5.12c0,.23,0,.45,0,.68s0,.45,0,.68h5.12c0-.23,0-.45,0-.68S350.27,134.27,350.27,134Z"/><path class="cls-46" d="M309.47,170.41h-.68v5.12h1.36V170.4Z"/><path class="cls-46" d="M329.74,101l.72-1.25L329.28,99l-.72,1.25Z"/><path class="cls-46" d="M275.72,114.46l-1.26-.72q-.35.58-.68,1.18l1.26.72C275.26,115.24,275.49,114.84,275.72,114.46Z"/><path class="cls-46" d="M343.89,115.63l1.26-.72c-.22-.4-.45-.79-.68-1.18l-1.25.72Q343.56,115,343.89,115.63Z"/><path class="cls-46" d="M290.37,100.3,289.65,99l-1.18.68.72,1.25Z"/><path class="cls-46" d="M343.21,155l1.25.72c.23-.39.46-.78.68-1.18l-1.26-.72Q343.56,154.41,343.21,155Z"/><path class="cls-46" d="M328.56,169.15l.72,1.25,1.18-.68-.72-1.25Z"/><path class="cls-46" d="M275,153.82l-1.26.72q.33.59.68,1.18l1.26-.72C275.49,154.61,275.26,154.21,275,153.82Z"/><path class="cls-46" d="M289.2,168.47l-.72,1.25,1.18.68.72-1.25Z"/><polygon class="cls-46" points="290.3 120.84 288.54 121.58 288.62 123.49 308.54 136.04 310.22 133.4 290.3 120.84"/><polygon class="cls-46" points="337.77 119.07 338.16 117.28 336.4 116.8 308.69 133.54 310.06 135.81 337.77 119.07"/><circle class="cls-47" cx="309.47" cy="134.72" r="3.5"/></svg>