<svg id="Layer_1" data-name="Layer 1" xmlns="http://www.w3.org/2000/svg" xmlns:xlink="http://www.w3.org/1999/xlink" viewBox="0 0 708.66 481.89"><defs><style>.cls-1,.cls-18{fill:none;}.cls-2{fill:#648ec9;}.cls-3,.cls-31,.cls-9{opacity:0.07;}.cls-19,.cls-20,.cls-4{fill:#2d2d2d;}.cls-5{fill:#6b6a6a;}.cls-6{fill:#e2e1e0;}.cls-7{fill:#494949;}.cls-8{clip-path:url(#clip-path);}.cls-15,.cls-17,.cls-19,.cls-9{fill-rule:evenodd;}.cls-10{fill:#e5e5e4;}.cls-11{fill:#fec82b;}.cls-12{fill:#b3b2b3;}.cls-13{fill:#4d4e4e;}.cls-14,.cls-15{fill:#f8ab8d;}.cls-16{fill:#8b6339;}.cls-17,.cls-21{fill:#dc846a;}.cls-18{stroke:#dc846a;}.cls-18,.cls-20{stroke-linecap:round;stroke-linejoin:round;stroke-width:2px;}.cls-20{stroke:#fff;}.cls-22{fill:#ffdc83;}.cls-23{fill:#fff;}.cls-24{fill:#bababa;}.cls-25{fill:#ee4256;}.cls-26{fill:#c49a6c;}.cls-27{fill:#19a4a4;}.cls-28{fill:#979797;}.cls-29{fill:#7a7a7a;}.cls-30{fill:#755232;}.cls-31{fill:#1d1e1e;}</style><clipPath id="clip-path"><polygon class="cls-1" points="576.23 340.61 366.48 499.27 102.33 150.89 312.07 -7.76 576.23 340.61"/></clipPath></defs><title>CS-L2-U8</title><circle class="cls-2" cx="353.86" cy="253.37" r="195.5"/><path class="cls-3" d="M466.53,203l-11-10.9h0l-39-45a7.62,7.62,0,0,0-4.56-4.56l-61.89-21.9a7.64,7.64,0,0,0-5.23,14.35L404,155.84l42.13,48.68c.51,1.47,3.41,9.83,4.09,13.79,2.86.4,4.54-1.26,5.53-3.15.42,2.32,3.13,16.83,5.54,14.75,1-.84,5.93-5.72,7-10.92C469.25,214.52,466.53,203,466.53,203Z"/><path class="cls-3" d="M291.18,125.81a7.64,7.64,0,0,0-10.8.16L234.74,172.1c-.14.13-.27.27-.41.41l-.13.13a7.66,7.66,0,0,0-.65.77l-39.27,47.19h0L183.48,231.7S181,243.32,182,247.77c1.21,5.18,6.25,10,7.25,10.79,2.66,2.2,5.31-15.18,5.31-15.18l8.49-9.59a7.65,7.65,0,0,0,.78-.81l41.64-50,45.84-46.33A7.64,7.64,0,0,0,291.18,125.81Z"/><path id="_Path_" data-name="&lt;Path&gt;" class="cls-4" d="M198.07,219.71l-10.46,11.43s-2.14,11.69-1,16.1c1.36,5.14,6.55,9.77,7.57,10.56,2.73,2.12,4.85-15.33,4.85-15.33l9.85-11.82Z"/><path class="cls-5" d="M365.75,160.24,169.08,261.57c-5.48,2.82-6.85,9.15-3.06,14.14l68.63,90.22a13.9,13.9,0,0,0,16.79,3.91L448.11,268.5c5.48-2.82,6.85-9.15,3.06-14.14l-68.63-90.22A13.9,13.9,0,0,0,365.75,160.24Z"/><path class="cls-6" d="M387,155.46l68.63,90.22c3.79,5,2.42,11.31-3.06,14.14L255.86,361.16a13.9,13.9,0,0,1-16.79-3.91L170.44,267c-3.79-5-2.42-11.31,3.06-14.14L370.17,151.55A13.9,13.9,0,0,1,387,155.46Z"/><polygon class="cls-7" points="355.91 175.34 420.3 259.99 251.02 347.21 186.63 262.56 355.91 175.34"/><path class="cls-5" d="M397.75,200.36a14.4,14.4,0,0,1,17.4,4.05c3.93,5.16,2.51,11.72-3.17,14.65a14.4,14.4,0,0,1-17.4-4.05C390.65,209.85,392.07,203.29,397.75,200.36Z"/><polygon class="cls-5" points="198.85 290.52 226.56 326.93 223.31 328.61 195.61 292.19 198.85 290.52"/><g class="cls-8"><path class="cls-9" d="M413.59,398.63l-28.3-14.19a8.79,8.79,0,0,0-2.65-.82l1.7-8,2.72.55,18.06-89.65a10,10,0,0,0,1.72-5.15l.21-4.4a10.1,10.1,0,0,0-8.93-10.52l-3.61-.73a10.05,10.05,0,0,0-5,.27l-32.85-1.6V137.59a18,18,0,0,0-18-18H325.86a6.39,6.39,0,0,0-3.17-5.13l1.11,0h.63c.61,0,1.24,0,1.87-.05C339,111.8,344.83,99.86,347,88.64l-1,0a58.88,58.88,0,0,0,.9-14.58c-.07-.88-.16-1.73-.26-2.55l1.09,0A28.49,28.49,0,0,0,319.26,43c-15.73,0-27,14.22-27,29.95h.13l0,.21c-4.39-1.59-8.49,1.2-6.57,6.35,1.55,4.15,4.2,14.42,7.44,10.73h0c2.93,8.95,8.08,16.42,15.74,20.63v2.24c-3.58,1.26-6,3.72-6,6.56H289.36a17.19,17.19,0,0,0-17.19,17.18V267.76l-46.35,28.93a13.09,13.09,0,0,0-7.65,9.87l-39,86.14,2.53,1.14-3.29,7.47a8.79,8.79,0,0,0-2.63-.88l-31.25-5a4.62,4.62,0,0,0-5,2.71l-.47,1.07-.74,1.68a1.77,1.77,0,0,0,.91,2.33l47.83,21a3.51,3.51,0,0,0,4.63-1.8l0-.08,4.68-10.65a1.76,1.76,0,0,0-.77-2.25l3.39-7.72,2.52,1.14,39.16-86.46,46.43-29a12,12,0,0,0,4.24.82l46.1.37a12.05,12.05,0,0,0,2.9-.34l38.88,1.89-16.35,81.17,2.71.55-1.76,8.24a1.76,1.76,0,0,0-1.94,1.38l-2.43,11.38,0,.09a3.51,3.51,0,0,0,2.7,4.17L413.31,408a1.77,1.77,0,0,0,2.1-1.36l.38-1.79.24-1.14A4.62,4.62,0,0,0,413.59,398.63Z"/><circle id="_Path_2" data-name="&lt;Path&gt;" class="cls-10" cx="349.45" cy="264.46" r="2.93"/><rect id="_Rectangle_" data-name="&lt;Rectangle&gt;" class="cls-4" x="259.09" y="226.37" width="24.61" height="109.75" rx="10.11" ry="10.11" transform="translate(176.52 660.39) rotate(-121.97)"/><path id="_Path_3" data-name="&lt;Path&gt;" class="cls-11" d="M220.77,333.72h0a9.53,9.53,0,0,0-12.57,4.89L181,400.46A9.53,9.53,0,0,0,185.91,413h0a9.53,9.53,0,0,0,12.57-4.89l.71-1.61,26.48-60.24A9.53,9.53,0,0,0,220.77,333.72Z"/><path id="_Path_4" data-name="&lt;Path&gt;" class="cls-12" d="M200.43,407.68l-4.68,10.65-52.67-23.15.47-1.07a4.62,4.62,0,0,1,5-2.71l31.25,5a8.54,8.54,0,0,1,3.94,1.71c6.63,5.23,12.28,6.69,15.33,7.07A1.77,1.77,0,0,1,200.43,407.68Z"/><path id="_Path_5" data-name="&lt;Path&gt;" class="cls-13" d="M195.74,418.33l0,.08a3.51,3.51,0,0,1-4.63,1.8l-47.83-21a1.77,1.77,0,0,1-.91-2.33l.74-1.68Z"/><path id="_Rectangle_2" data-name="&lt;Rectangle&gt;" class="cls-4" d="M214.8,288.92h4.4A10.11,10.11,0,0,1,229.31,299v99.64a0,0,0,0,1,0,0H204.7a0,0,0,0,1,0,0V299a10.11,10.11,0,0,1,10.11-10.11Z" transform="translate(161.18 -58.91) rotate(24.37)"/><path id="_Path_6" data-name="&lt;Path&gt;" class="cls-11" d="M392.66,305.59h0A9.53,9.53,0,0,1,400,316.9L385.92,383a9.53,9.53,0,0,1-11.31,7.34h0A9.53,9.53,0,0,1,367.27,379l.37-1.72,13.71-64.36A9.53,9.53,0,0,1,392.66,305.59Z"/><path id="_Path_7" data-name="&lt;Path&gt;" class="cls-12" d="M365.95,377.49l-2.43,11.38,56.27,12,.24-1.14a4.62,4.62,0,0,0-2.45-5.1l-28.3-14.19a8.54,8.54,0,0,0-4.19-.92c-8.44.37-13.87-1.75-16.57-3.22A1.77,1.77,0,0,0,365.95,377.49Z"/><path id="_Path_8" data-name="&lt;Path&gt;" class="cls-13" d="M363.52,388.88l0,.09a3.51,3.51,0,0,0,2.7,4.17L417.31,404a1.77,1.77,0,0,0,2.1-1.36l.38-1.79Z"/><rect id="_Rectangle_3" data-name="&lt;Rectangle&gt;" class="cls-4" x="343.83" y="217.64" width="24.61" height="109.75" rx="10.11" ry="10.11" transform="translate(645.65 -69.95) rotate(92.79)"/><path id="_Rectangle_4" data-name="&lt;Rectangle&gt;" class="cls-4" d="M377.52,261.09h24.61a0,0,0,0,1,0,0v99.64A10.11,10.11,0,0,1,392,370.83h-4.4a10.11,10.11,0,0,1-10.11-10.11V261.09A0,0,0,0,1,377.52,261.09Z" transform="translate(709.59 702.67) rotate(-168.61)"/><path id="_Path_9" data-name="&lt;Path&gt;" class="cls-4" d="M283.86,249.53l70.22.57-.42,22.54a12.06,12.06,0,0,1-12.16,12l-46.1-.37a12.06,12.06,0,0,1-12-12.16Z"/><g id="_Group_" data-name="&lt;Group&gt;"><g id="_Clip_Group_" data-name="&lt;Clip Group&gt;"><path id="_Rectangle_5" data-name="&lt;Rectangle&gt;" class="cls-4" d="M276.17,115.62h84.44a0,0,0,0,1,0,0V248.36a17.18,17.18,0,0,1-17.18,17.18H294.15a18,18,0,0,1-18-18v-132a0,0,0,0,1,0,0Z" transform="translate(636.79 381.17) rotate(-180)"/></g></g><ellipse id="_Path_10" data-name="&lt;Path&gt;" class="cls-4" cx="318.39" cy="115.62" rx="11.46" ry="7.45"/><path id="_Path_11" data-name="&lt;Path&gt;" class="cls-14" d="M319.2,94.46H319a6.07,6.07,0,0,1,6,6.25v13.35c0,3.45-2.58,4.52-6,4.52h.11c-3.45,0-6.14-1.07-6.14-4.52V100.7A6.25,6.25,0,0,1,319.2,94.46Z"/><path id="_Path_12" data-name="&lt;Path&gt;" class="cls-15" d="M330.18,110.47c-19.75,1.06-30.25-13.53-33.48-31.66-3.4-19.09,9.38-34.89,24.87-34.94,17.62-.06,27.9,6.81,29.34,26.16.91,12.15-2.75,36.49-20.74,40.44Z"/><g id="_Group_2" data-name="&lt;Group&gt;"><line id="_Path_13" data-name="&lt;Path&gt;" class="cls-16" x1="343.55" y1="71.3" x2="336.68" y2="72.73"/><path id="_Path_14" data-name="&lt;Path&gt;" class="cls-16" d="M344,72.37a1.17,1.17,0,0,0-.69-2.22l-6.87,1.44a1.17,1.17,0,0,0,.48,2.29l6.87-1.44Z"/></g><g id="_Group_3" data-name="&lt;Group&gt;"><line id="_Path_15" data-name="&lt;Path&gt;" class="cls-16" x1="325.3" y1="72.38" x2="318.33" y2="71.65"/><path id="_Path_16" data-name="&lt;Path&gt;" class="cls-16" d="M325.64,71.26a1.17,1.17,0,0,1-.46,2.28l-7-.73a1.17,1.17,0,1,1,.24-2.33l7,.73Z"/></g><circle id="_Path_17" data-name="&lt;Path&gt;" cx="322.69" cy="79.4" r="1.58"/><circle id="_Path_18" data-name="&lt;Path&gt;" cx="339.57" cy="79.94" r="1.58"/><polygon id="_Path_19" data-name="&lt;Path&gt;" class="cls-17" points="331.27 77.14 331.06 90.89 334.01 90.22 331.27 77.14"/><path id="_Path_20" data-name="&lt;Path&gt;" class="cls-18" d="M339.57,95a11.17,11.17,0,0,1-8.51,4h0a12,12,0,0,1-8.51-4"/><path class="cls-4" d="M296.23,68.91c0-15.73,11.29-29.95,27-29.95a28.49,28.49,0,0,1,28.49,28.49"/><path class="cls-19" d="M296.23,82.83c4.19,16.21,15,28.62,34.07,27.64C343,107.8,348.83,95.86,351,84.64Z"/><rect id="_Rectangle_6" data-name="&lt;Rectangle&gt;" class="cls-4" x="259.09" y="226.37" width="24.61" height="109.75" rx="10.11" ry="10.11" transform="translate(176.52 660.39) rotate(-121.97)"/><path id="_Path_21" data-name="&lt;Path&gt;" class="cls-11" d="M220.77,333.72h0a9.53,9.53,0,0,0-12.57,4.89L181,400.46A9.53,9.53,0,0,0,185.91,413h0a9.53,9.53,0,0,0,12.57-4.89l.71-1.61,26.48-60.24A9.53,9.53,0,0,0,220.77,333.72Z"/><path id="_Path_22" data-name="&lt;Path&gt;" class="cls-12" d="M200.43,407.68l-4.68,10.65-52.67-23.15.47-1.07a4.62,4.62,0,0,1,5-2.71l31.25,5a8.54,8.54,0,0,1,3.94,1.71c6.63,5.23,12.28,6.69,15.33,7.07A1.77,1.77,0,0,1,200.43,407.68Z"/><path id="_Path_23" data-name="&lt;Path&gt;" class="cls-13" d="M195.74,418.33l0,.08a3.51,3.51,0,0,1-4.63,1.8l-47.83-21a1.77,1.77,0,0,1-.91-2.33l.74-1.68Z"/><path id="_Rectangle_7" data-name="&lt;Rectangle&gt;" class="cls-4" d="M214.8,288.92h4.4A10.11,10.11,0,0,1,229.31,299v99.64a0,0,0,0,1,0,0H204.7a0,0,0,0,1,0,0V299a10.11,10.11,0,0,1,10.11-10.11Z" transform="translate(161.18 -58.91) rotate(24.37)"/><path id="_Path_24" data-name="&lt;Path&gt;" class="cls-11" d="M392.66,305.59h0A9.53,9.53,0,0,1,400,316.9L385.92,383a9.53,9.53,0,0,1-11.31,7.34h0A9.53,9.53,0,0,1,367.27,379l.37-1.72,13.71-64.36A9.53,9.53,0,0,1,392.66,305.59Z"/><path id="_Path_25" data-name="&lt;Path&gt;" class="cls-12" d="M365.95,377.49l-2.43,11.38,56.27,12,.24-1.14a4.62,4.62,0,0,0-2.45-5.1l-28.3-14.19a8.54,8.54,0,0,0-4.19-.92c-8.44.37-13.87-1.75-16.57-3.22A1.77,1.77,0,0,0,365.95,377.49Z"/><path id="_Path_26" data-name="&lt;Path&gt;" class="cls-13" d="M363.52,388.88l0,.09a3.51,3.51,0,0,0,2.7,4.17L417.31,404a1.77,1.77,0,0,0,2.1-1.36l.38-1.79Z"/><path id="_Rectangle_8" data-name="&lt;Rectangle&gt;" class="cls-4" d="M377.52,261.09h24.61a0,0,0,0,1,0,0v99.64A10.11,10.11,0,0,1,392,370.83h-4.4a10.11,10.11,0,0,1-10.11-10.11V261.09A0,0,0,0,1,377.52,261.09Z" transform="translate(709.59 702.67) rotate(-168.61)"/><path id="_Path_27" data-name="&lt;Path&gt;" class="cls-4" d="M283.86,249.53l70.22.57-.42,22.54a12.06,12.06,0,0,1-12.16,12l-46.1-.37a12.06,12.06,0,0,1-12-12.16Z"/><g id="_Group_4" data-name="&lt;Group&gt;"><g id="_Clip_Group_2" data-name="&lt;Clip Group&gt;"><path id="_Rectangle_9" data-name="&lt;Rectangle&gt;" class="cls-4" d="M276.17,115.62h84.44a0,0,0,0,1,0,0V248.36a17.18,17.18,0,0,1-17.18,17.18H294.15a18,18,0,0,1-18-18v-132a0,0,0,0,1,0,0Z" transform="translate(636.79 381.17) rotate(-180)"/></g></g><ellipse id="_Path_28" data-name="&lt;Path&gt;" class="cls-4" cx="318.39" cy="115.62" rx="11.46" ry="7.45"/><path id="_Path_29" data-name="&lt;Path&gt;" class="cls-14" d="M319.2,94.46H319a6.07,6.07,0,0,1,6,6.25v13.35c0,3.45-2.58,4.52-6,4.52h.11c-3.45,0-6.14-1.07-6.14-4.52V100.7A6.25,6.25,0,0,1,319.2,94.46Z"/><path class="cls-4" d="M296.23,68.91c0-15.73,11.29-29.95,27-29.95a28.49,28.49,0,0,1,28.49,28.49"/><path class="cls-19" d="M296.23,82.83c4.19,16.21,15,28.62,34.07,27.64C343,107.8,348.83,95.86,351,84.64Z"/><g id="_Group_5" data-name="&lt;Group&gt;"><path id="_Path_30" data-name="&lt;Path&gt;" class="cls-15" d="M301.62,73.55a9.28,9.28,0,0,0-3.23-3.38c-5-3.47-10.84-.66-8.62,5.29,1.55,4.15,4.2,14.42,7.44,10.73C299.7,83.36,301.49,79,301.62,73.55Z"/><polygon id="_Path_31" data-name="&lt;Path&gt;" class="cls-17" points="297.76 74.16 291.19 73.05 296.14 82.07 294.48 74.63 297.76 74.16"/></g></g><path id="_Path_32" data-name="&lt;Path&gt;" class="cls-4" d="M247,169.38h0a7.64,7.64,0,0,1,1.41,10.71L208,231.8a7.64,7.64,0,0,1-10.71,1.41h0a7.64,7.64,0,0,1-1.41-10.71l40.45-51.71A7.64,7.64,0,0,1,247,169.38Z"/><path id="_Path_33" data-name="&lt;Path&gt;" class="cls-4" d="M292,122h0a7.64,7.64,0,0,1,.49,10.79l-44.74,48a7.64,7.64,0,0,1-10.79.49h0a7.64,7.64,0,0,1-.49-10.79l44.74-48A7.64,7.64,0,0,1,292,122Z"/><path id="_Path_34" data-name="&lt;Path&gt;" class="cls-4" d="M208.17,231.44s-2.94,9.84-3.48,14.23c-6.08,1.17-7.25-7.38-7.25-7.38Z"/><path id="_Path_35" data-name="&lt;Path&gt;" class="cls-4" d="M342.31,123.13h0a7.64,7.64,0,0,0,4.56,9.79l61.89,21.9a7.64,7.64,0,0,0,9.79-4.56h0a7.64,7.64,0,0,0-4.56-9.79l-61.89-21.9A7.64,7.64,0,0,0,342.31,123.13Z"/><path id="_Path_36" data-name="&lt;Path&gt;" class="cls-4" d="M406.1,142.22h0a7.64,7.64,0,0,0-.88,10.76l43,49.64a7.64,7.64,0,0,0,10.76.88h0a7.64,7.64,0,0,0,.88-10.76l-43-49.64A7.64,7.64,0,0,0,406.1,142.22Z"/><path id="_Path_37" data-name="&lt;Path&gt;" class="cls-4" d="M448,202.27s3.43,9.69,4.18,14c6.13.86,6.88-7.73,6.88-7.73Z"/><path id="_Path_38" data-name="&lt;Path&gt;" class="cls-4" d="M457.51,190.06l11,10.9s2.71,11.57,1.76,16c-1.1,5.2-6.06,10.08-7,10.92-2.62,2.26-5.6-15.07-5.6-15.07l-10.42-11.32Z"/><line class="cls-20" x1="351.73" y1="345.83" x2="359.62" y2="341.57"/><line class="cls-20" x1="298.56" y1="374.58" x2="343.65" y2="350.2"/><line class="cls-20" x1="277.55" y1="371.68" x2="338.61" y2="338.66"/><g class="cls-3"><path d="M643.41,210.49l-.51.32-1.28-5.08,1.95-.56a.07.07,0,0,0,.05-.09l-16.14-54.94a8.07,8.07,0,0,0-4.69-5.25l-40.13-31.34a7.13,7.13,0,0,0-4.84-1.5,15.16,15.16,0,0,0-5.74-1.13H546.79l-8.39-1.83-.4,1.83h-7a15.92,15.92,0,0,0-1.75.1,7.12,7.12,0,0,0-1,.16,15.81,15.81,0,0,0-4.6,1.58l-46.22,16.29a7.15,7.15,0,0,0-4.12,3.75l-34.61,45.11a.07.07,0,0,0,0,.1l1.62,1.22-3,4.28-.36-.49L426,192s-3.37,10.22-2.87,14.33c.58,4.78,4.66,9.58,5.48,10.42,2,2.07,5.62-10.81,6.18-12.87.74,1.78,2.12,3.42,4.74,3.28A100.65,100.65,0,0,1,443.92,196a4.84,4.84,0,0,0,1.23-1.19l5.49-7.75.79.6a.07.07,0,0,0,.1,0l34-44.36L515,132.94V239.26h5.84l.11,6.07a10.31,10.31,0,0,0,.42,2.8V411.77h2.44v10.69a7.54,7.54,0,0,0-2.22.22l-26.22,6.83a4,4,0,0,0-3,3.83v2.57a1.51,1.51,0,0,0,1.52,1.52h83.19a3,3,0,0,0,3-3v-10a1.51,1.51,0,0,0-1.38-1.5v-11.1h2.3V245.11c0-.09,0-.18,0-.27V243.2c0-.2,0-.4,0-.59l-.06-3.35h6.32V137.71l25.51,19.93,15.24,51.89a.07.07,0,0,0,.09.05l1-.27,2.33,9.2a4.83,4.83,0,0,0,.72,1.56,100.61,100.61,0,0,1,0,11.94c2.39,1.07,4.27,0,5.6-1.35-.22,2.12-1.49,15.44,1.13,14.23,1.06-.49,6.6-3.5,8.86-7.75,1.95-3.65,2.48-14.4,2.48-14.4Zm-81,212a7.52,7.52,0,0,0-2.37.21l-18.39,4.79v-3.1a1.51,1.51,0,0,0-1.53-1.51V411.77h2.3V255.47l17.54-.14V411.77h2.44Z"/><path d="M520.45,41.14l5.42,3h-1.1s0,.16,0,.45a18.41,18.41,0,0,0,1.16,5.3v0a10.67,10.67,0,0,0,2.71,4.56h-5.26a5.66,5.66,0,0,0,1.05,3.76,7.47,7.47,0,0,0,2.39,2.3,35.68,35.68,0,0,0-2.14,10.28c-.82,11,2.48,33,18.72,36.52,16.36.88,25.69-10.14,29.37-24.6l.19.24c2.82,3.21,5.14-5.16,6.57-9.21l3.61,2A3.55,3.55,0,0,0,588,74.33l.44-.8h0l.37-.68A3.55,3.55,0,0,0,587.44,68l-5.32-2.93,6.72-12.54c1.63-4.07,2.32-15.48-7.51-17.74h0c-10.16-3.07-15.4-5.28-22-11.68l-2.73-2.62c-6.2-4.26-13.53.51-16.39,5.18l-7.85,12-7.72-4.25a3.55,3.55,0,0,0-4.82,1.39l-.44.8h0l-.37.68A3.55,3.55,0,0,0,520.45,41.14Z"/></g><path id="_Path_39" data-name="&lt;Path&gt;" class="cls-21" d="M440.47,194.82s-3.87,8.47-4.9,12.33c-5.6.29-5.59-7.53-5.59-7.53Z"/><rect id="_Rectangle_10" data-name="&lt;Rectangle&gt;" class="cls-14" x="440.94" y="149.76" width="13.01" height="49.89" rx="4.88" ry="4.88" transform="translate(183.3 -226.49) rotate(35.31)"/><path id="_Path_40" data-name="&lt;Path&gt;" class="cls-14" d="M432.86,183,422,192s-3.37,10.22-2.87,14.33c.58,4.78,4.66,9.58,5.48,10.42,2.18,2.24,6.26-13.15,6.26-13.15l10.31-9.38Z"/><path id="_Path_41" data-name="&lt;Path&gt;" class="cls-22" d="M447.43,187.69,434.64,178a.07.07,0,0,1,0-.1l34.85-45.43a8.09,8.09,0,0,1,11.34-1.58h0a8.09,8.09,0,0,1,1.58,11.34l-34.86,45.43A.07.07,0,0,1,447.43,187.69Z"/><path id="_Path_42" data-name="&lt;Path&gt;" class="cls-21" d="M628.07,218.74s.56,9.29.12,13.27c5.12,2.29,7.92-5,7.92-5Z"/><rect id="_Rectangle_11" data-name="&lt;Rectangle&gt;" class="cls-14" x="622.31" y="172.52" width="13.01" height="49.89" rx="4.88" ry="4.88" transform="translate(1286.84 234.8) rotate(165.81)"/><path id="_Path_43" data-name="&lt;Path&gt;" class="cls-14" d="M639.41,210.49l6.86,12.25s-.54,10.75-2.48,14.4c-2.27,4.25-7.8,7.26-8.86,7.75-2.84,1.31-1.1-14.53-1.1-14.53l-6.24-12.47Z"/><path id="_Path_44" data-name="&lt;Path&gt;" class="cls-22" d="M624.14,209.59l15.42-4.41a.07.07,0,0,0,.05-.09l-16.14-54.94a8.09,8.09,0,0,0-10-5.56h0a8.09,8.09,0,0,0-5.56,10l16.14,54.94A.07.07,0,0,0,624.14,209.59Z"/><rect id="_Rectangle_12" data-name="&lt;Rectangle&gt;" class="cls-22" x="586.51" y="102.55" width="16.19" height="67.44" rx="7.17" ry="7.17" transform="translate(121.2 520.99) rotate(-52.01)"/><rect id="_Rectangle_13" data-name="&lt;Rectangle&gt;" class="cls-22" x="493" y="94.14" width="16.19" height="67.44" rx="7.17" ry="7.17" transform="translate(455.11 -387.24) rotate(70.59)"/><rect id="_Rectangle_14" data-name="&lt;Rectangle&gt;" class="cls-23" x="526.83" y="115.2" width="21.74" height="11.47" transform="translate(304.9 620.49) rotate(-77.69)"/><path id="_Path_45" data-name="&lt;Path&gt;" class="cls-15" d="M539.45,107.31c17.83,1,27.32-12.22,30.23-28.59,3.07-17.24-8.47-31.5-22.46-31.55-15.91-.05-25.19,6.15-26.5,23.62-.82,11,2.48,33,18.72,36.52Z"/><path id="_Path_46" data-name="&lt;Path&gt;" class="cls-24" d="M566.6,359.42h0a8.16,8.16,0,0,0-8.16,8.16v57.83a8.16,8.16,0,0,0,8.16,8.16h0a8.16,8.16,0,0,0,8.16-8.16V367.58A8.16,8.16,0,0,0,566.6,359.42Z"/><path id="_Rectangle_15" data-name="&lt;Rectangle&gt;" class="cls-25" d="M565.33,233.87h2.4a9.33,9.33,0,0,1,9.33,9.33V411.77a0,0,0,0,1,0,0H556a0,0,0,0,1,0,0V243.2A9.33,9.33,0,0,1,565.33,233.87Z"/><path id="_Path_47" data-name="&lt;Path&gt;" class="cls-26" d="M576.14,424.38v10H526.89v-1a4,4,0,0,1,3-3.83l26.22-6.83a7.31,7.31,0,0,1,3.67,0c7,1.82,11.93,1,14.45.26A1.52,1.52,0,0,1,576.14,424.38Z"/><path id="_Path_48" data-name="&lt;Path&gt;" class="cls-16" d="M576.14,434.34v.08a3,3,0,0,1-3,3H528.4a1.51,1.51,0,0,1-1.52-1.52v-1.57Z"/><path id="_Path_49" data-name="&lt;Path&gt;" class="cls-24" d="M528,359.42h0a8.16,8.16,0,0,0-8.16,8.16v57.83a8.16,8.16,0,0,0,8.16,8.16h0a8.16,8.16,0,0,0,8.16-8.16V367.58A8.16,8.16,0,0,0,528,359.42Z"/><path id="_Rectangle_16" data-name="&lt;Rectangle&gt;" class="cls-25" d="M526.72,233.87h2.4a9.33,9.33,0,0,1,9.33,9.33V411.77a0,0,0,0,1,0,0H517.39a0,0,0,0,1,0,0V243.2A9.33,9.33,0,0,1,526.72,233.87Z"/><path id="_Path_50" data-name="&lt;Path&gt;" class="cls-26" d="M537.68,424.38v10H488.43v-1a4,4,0,0,1,3-3.83l26.22-6.83a7.31,7.31,0,0,1,3.67,0c7,1.82,11.93,1,14.45.26A1.52,1.52,0,0,1,537.68,424.38Z"/><path id="_Path_51" data-name="&lt;Path&gt;" class="cls-16" d="M537.68,434.34v.08a3,3,0,0,1-3,3H489.94a1.51,1.51,0,0,1-1.52-1.52v-1.57Z"/><path id="_Path_52" data-name="&lt;Path&gt;" class="cls-25" d="M576.72,225.54l-60.11.49.36,19.29a10.33,10.33,0,0,0,10.41,10.24l39.46-.32a10.33,10.33,0,0,0,10.24-10.41Z"/><path id="_Rectangle_17" data-name="&lt;Rectangle&gt;" class="cls-22" d="M527,110.92h41.1a15.22,15.22,0,0,1,15.22,15.22V239.26a0,0,0,0,1,0,0H511a0,0,0,0,1,0,0V126.88A16,16,0,0,1,527,110.92Z"/><polygon id="_Path_53" data-name="&lt;Path&gt;" class="cls-27" points="532.83 110.92 537.42 153.1 558.08 110.92 532.83 110.92"/><ellipse id="_Path_54" data-name="&lt;Path&gt;" class="cls-28" cx="539.94" cy="185.02" rx="3.36" ry="4.15"/><ellipse id="_Path_55" data-name="&lt;Path&gt;" class="cls-29" cx="538.13" cy="184.76" rx="0.9" ry="1.12"/><ellipse id="_Path_56" data-name="&lt;Path&gt;" class="cls-29" cx="541.38" cy="184.76" rx="0.9" ry="1.12"/><ellipse id="_Path_57" data-name="&lt;Path&gt;" class="cls-28" cx="539.94" cy="207.73" rx="3.36" ry="4.15"/><path id="_Path_58" data-name="&lt;Path&gt;" class="cls-16" d="M570.86,55.18c1.67,4.3,1.68,10.77,1.46,14.89a4.12,4.12,0,0,0-3.52-.88,4.92,4.92,0,0,0-.56.13h0l-.27.09-.27.1-.29.13-.2.1-.34.19-.26.17-.26.18-.25.19-.25.21c-.16.14-.32.3-.47.45,0,0,0,0,0,0l-.09.11-.05.07-.06.07,0,0,0,0v0a.2.2,0,0,0,0,0V79.1a3.37,3.37,0,0,1-.8,2.52,4.09,4.09,0,0,1-.35.38,5.37,5.37,0,0,1-2.29.67,3.92,3.92,0,0,1-3.94-3.57V76.42a3.88,3.88,0,0,0-3.56-3.88l-.68,0c-.05-3.06,0-5.48,0-7,0-1.87-.66-3.1-4.8-3.52h-.12l-1.16-.09h-.09c-.72,0-1.52-.06-2.4-.06h-19l-.22-.06a9.38,9.38,0,0,1-5.2-3.56,5.65,5.65,0,0,1-1.05-3.76h5.26A10.67,10.67,0,0,1,522,49.89a24.92,24.92,0,0,1-1.2-5.76h8.72s8.73-6.35,18.44-5.53c15.3,1.29,20.36,11.12,20.36,11.12a16.5,16.5,0,0,1,6.62-1.17C572.92,50.86,571.76,51.87,570.86,55.18Z"/><path id="_Path_59" data-name="&lt;Path&gt;" class="cls-30" d="M547.3,61.88c-.72,0-1.52-.06-2.4-.06h-19l-.22-.06a9.38,9.38,0,0,1-5.2-3.56,5.65,5.65,0,0,1-1.05-3.76s4.53,5.1,7.42,5.62l.23,0C530,60.57,543,61.57,547.3,61.88Z"/><path id="_Path_60" data-name="&lt;Path&gt;" class="cls-30" d="M520.78,44.13s3.38,7.7,8.16,9.66c4.05,1.66,23.86,2.29,23.86,2.29a33.8,33.8,0,0,1-6.14,1.47c-1.8.19-19.23.73-22-3.09A17,17,0,0,1,520.78,44.13Z"/><g id="_Group_6" data-name="&lt;Group&gt;"><line id="_Path_61" data-name="&lt;Path&gt;" class="cls-28" x1="524.58" y1="68.77" x2="530.95" y2="68.44"/><path id="_Path_62" data-name="&lt;Path&gt;" class="cls-16" d="M524.43,69.82a1.06,1.06,0,0,1,.1-2.12l6.38-.32a1.06,1.06,0,0,1,.11,2.13l-6.38.32Z"/></g><g id="_Group_7" data-name="&lt;Group&gt;"><line id="_Path_63" data-name="&lt;Path&gt;" class="cls-28" x1="542.56" y1="68.44" x2="548.94" y2="68.77"/><path id="_Path_64" data-name="&lt;Path&gt;" class="cls-16" d="M542.41,67.39a1.06,1.06,0,0,0,.1,2.12l6.38.32A1.06,1.06,0,0,0,549,67.7l-6.38-.32Z"/></g><circle id="_Path_65" data-name="&lt;Path&gt;" cx="544.96" cy="75.32" r="1.44"/><circle id="_Path_66" data-name="&lt;Path&gt;" cx="528.26" cy="75.82" r="1.44"/><polygon id="_Path_67" data-name="&lt;Path&gt;" class="cls-17" points="537.14 74.69 537.34 83.79 534.65 83.34 537.14 74.69"/><g id="_Group_8" data-name="&lt;Group&gt;"><path id="_Path_68" data-name="&lt;Path&gt;" class="cls-15" d="M565,71.44a8.45,8.45,0,0,1,2.94-3.07c4.56-3.16,9.87-.6,7.84,4.82C574.37,77,572,86.31,569,82.94A18,18,0,0,1,565,71.44Z"/><polygon id="_Path_69" data-name="&lt;Path&gt;" class="cls-17" points="568.51 71.99 574.5 70.98 569.98 79.19 571.5 72.42 568.51 71.99"/></g><path class="cls-24" d="M577.2,66.81,527.34,39.34l8.91-13.63c2.86-4.67,10.19-9.44,16.39-5.18l2.73,2.62c6.56,6.4,11.8,8.61,22,11.68h0c9.83,2.26,9.14,13.67,7.51,17.74Z"/><rect class="cls-31" x="510.76" y="50.25" width="78.74" height="8.01" rx="3.55" ry="3.55" transform="translate(94.51 -258.8) rotate(28.86)"/><rect class="cls-24" x="510.39" y="50.92" width="78.74" height="8.01" rx="3.55" ry="3.55" transform="translate(94.79 -258.53) rotate(28.86)"/><ellipse id="_Path_70" data-name="&lt;Path&gt;" class="cls-29" cx="538.13" cy="207.73" rx="0.9" ry="1.12"/><ellipse id="_Path_71" data-name="&lt;Path&gt;" class="cls-29" cx="541.38" cy="207.73" rx="0.9" ry="1.12"/><ellipse class="cls-21" cx="538.11" cy="94.66" rx="8.42" ry="7.48"/></svg>