<svg id="Layer_1" data-name="Layer 1" xmlns="http://www.w3.org/2000/svg" xmlns:xlink="http://www.w3.org/1999/xlink" viewBox="0 0 708.66 711.07"><defs><style>.cls-1{fill:none;}.cls-2{clip-path:url(#clip-path);}.cls-3{fill:#e7685d;}.cls-10,.cls-4{fill:#dc846a;}.cls-5,.cls-8{fill:#f8ab8d;}.cls-6{fill:#ee4256;}.cls-7{fill:#54402b;}.cls-10,.cls-8{fill-rule:evenodd;}.cls-9{fill:#8b6339;}.cls-11{fill:#fff;}.cls-12{fill:#6c4e38;}.cls-13{opacity:0.24;}.cls-14,.cls-15,.cls-16{fill:#5ea2e5;}.cls-15,.cls-16{opacity:0.78;}.cls-16{font-size:33.55px;font-family:Impact, Impact;}.cls-17{opacity:0.21;}</style><clipPath id="clip-path"><circle class="cls-1" cx="376.23" cy="337.94" r="110.53"/></clipPath></defs><title>CS-L2-U3</title><g class="cls-2"><g id="_Group_" data-name="&lt;Group&gt;"><rect id="_Rectangle_" data-name="&lt;Rectangle&gt;" class="cls-3" x="306.71" y="364.57" width="29.16" height="121.52" rx="14.58" ry="14.58" transform="translate(509.89 923.89) rotate(-163.65)"/><path id="_Path_" data-name="&lt;Path&gt;" class="cls-4" d="M318.23,573.82s6.79,12.34,10.57,17.08c-4.7,7.07-14.19,0-14.19,0Z"/><path id="_Path_2" data-name="&lt;Path&gt;" class="cls-5" d="M297,572.42l1.12,21.22S307.54,607,313,610.08c6.33,3.61,15.85,3,17.61,2.76,4.7-.63-10.33-19.48-10.33-19.48l-2.09-21Z"/><path id="_Path_3" data-name="&lt;Path&gt;" class="cls-3" d="M293.92,573.82l29.16.18L323,470.7A14.58,14.58,0,0,0,308.5,456h0a14.58,14.58,0,0,0-14.67,14.49Z"/><rect id="_Rectangle_2" data-name="&lt;Rectangle&gt;" class="cls-6" x="293.94" y="563.72" width="28.85" height="10.83" transform="matrix(-1, 0.01, -0.01, -1, 623.53, 1134.52)"/></g><path id="_Path_4" data-name="&lt;Path&gt;" class="cls-3" d="M413.65,366.43h-68a24.3,24.3,0,0,0-24.3,24.3V577.06H437.95s-7.29-78.09-7.29-104.12c0-20.55,7.29-82.21,7.29-82.21A24.3,24.3,0,0,0,413.65,366.43Z"/><path id="_Path_5" data-name="&lt;Path&gt;" class="cls-6" d="M344.66,371.78c0,15.08,14.46,27.36,32.23,27.36s32.22-12.27,32.22-27.36a23.49,23.49,0,0,0-.62-5.35H345.28A23.49,23.49,0,0,0,344.66,371.78Z"/><path id="_Path_6" data-name="&lt;Path&gt;" class="cls-5" d="M404,371.78c0,12.31-12.16,22.29-27.16,22.29s-27.17-10-27.17-22.29a18.32,18.32,0,0,1,.79-5.35h52.75A18.32,18.32,0,0,1,404,371.78Z"/><path id="_Rectangle_3" data-name="&lt;Rectangle&gt;" class="cls-5" d="M373.51,336.95h6.76a5.43,5.43,0,0,1,5.43,5.43V367a3.93,3.93,0,0,1-3.93,3.93H372a3.93,3.93,0,0,1-3.93-3.93V342.38A5.43,5.43,0,0,1,373.51,336.95Z"/><g id="_Group_2" data-name="&lt;Group&gt;"><path id="_Path_7" data-name="&lt;Path&gt;" class="cls-7" d="M340.43,261.28S329.08,259,329.08,282A100.78,100.78,0,0,0,332,304.68l17.21-20,17.82-8-22.27-8Z"/><g id="_Group_3" data-name="&lt;Group&gt;"><path id="_Path_8" data-name="&lt;Path&gt;" class="cls-8" d="M359.79,358.27c27.17,1.46,41.61-18.61,46.05-43.55,4.68-26.26-12.91-48-34.21-48.06-24.23-.08-38.37,9.37-40.36,36-1.25,16.71,3.78,50.19,28.52,55.63Z"/><g id="_Group_4" data-name="&lt;Group&gt;"><line id="_Path_9" data-name="&lt;Path&gt;" class="cls-9" x1="335.94" y1="304.29" x2="346.16" y2="303.77"/><path id="_Path_10" data-name="&lt;Path&gt;" class="cls-9" d="M335.7,306a1.71,1.71,0,0,1,.15-3.39l10.22-.52a1.71,1.71,0,0,1,.17,3.41L336,306A1.73,1.73,0,0,1,335.7,306Z"/></g><g id="_Group_5" data-name="&lt;Group&gt;"><line id="_Path_11" data-name="&lt;Path&gt;" class="cls-9" x1="362.64" y1="303.77" x2="372.87" y2="304.29"/><path id="_Path_12" data-name="&lt;Path&gt;" class="cls-9" d="M362.4,302.08a1.71,1.71,0,0,0,.15,3.39l10.22.52a1.71,1.71,0,1,0,.17-3.41l-10.22-.52A1.73,1.73,0,0,0,362.4,302.08Z"/></g><circle id="_Path_13" data-name="&lt;Path&gt;" cx="366.48" cy="314.81" r="2.3"/><circle id="_Path_14" data-name="&lt;Path&gt;" cx="341.84" cy="315.6" r="2.3"/><polygon id="_Path_15" data-name="&lt;Path&gt;" class="cls-10" points="353.95 311.51 354.26 331.57 349.96 330.59 353.95 311.51"/><path id="_Path_16" data-name="&lt;Path&gt;" class="cls-11" d="M355.15,344.7c-5.78,0-10.85-3.13-10.85-6.69v-.84h22.27V338c0,3.24-3.4,6.69-9.69,6.69Z"/></g><ellipse id="_Path_17" data-name="&lt;Path&gt;" class="cls-7" cx="410.82" cy="265.25" rx="13.92" ry="17.82" transform="translate(-71.86 186.83) rotate(-23.62)"/><path id="_Path_18" data-name="&lt;Path&gt;" class="cls-12" d="M401.35,317.71S389.4,319.94,391,307.18c-6.48-1-38.08-14.38-50.83-45.57,8-16.3,22.33-18.51,37.86-15.89,23,3.87,47.35,21.16,33.83,65.71C410.88,314.75,404.59,315.18,401.35,317.71Z"/><g id="_Group_6" data-name="&lt;Group&gt;"><path id="_Path_19" data-name="&lt;Path&gt;" class="cls-8" d="M397.54,306.58s1-2.26,4.48-4.68c6.94-4.81,15-.91,11.95,7.33-2.15,5.76-5.82,20-10.32,14.87C400.21,320.18,397.72,314.18,397.54,306.58Z"/><polygon id="_Path_20" data-name="&lt;Path&gt;" class="cls-10" points="402.89 307.42 412 305.88 405.13 318.39 407.45 308.08 402.89 307.42"/></g><circle id="_Path_21" data-name="&lt;Path&gt;" class="cls-6" cx="405.4" cy="325.91" r="4.15"/></g><g id="_Group_7" data-name="&lt;Group&gt;"><rect id="_Rectangle_4" data-name="&lt;Rectangle&gt;" class="cls-3" x="422.41" y="366.23" width="29.16" height="121.52" rx="14.58" ry="14.58" transform="translate(-73.44 91.22) rotate(-11)"/><path id="_Path_22" data-name="&lt;Path&gt;" class="cls-4" d="M426.2,575.13s-7.91,11.66-12.11,16c4,7.47,14.13,1.31,14.13,1.31Z"/><path id="_Path_23" data-name="&lt;Path&gt;" class="cls-5" d="M447.42,575.71l-3.09,21s-10.57,12.39-16.28,15c-6.64,3-16.06,1.5-17.79,1.1-4.62-1.06,12.1-18.43,12.1-18.43l4-20.71Z"/><path id="_Path_24" data-name="&lt;Path&gt;" class="cls-3" d="M450.41,577.38l-29.05-2.53L431.07,472a14.58,14.58,0,0,1,15.79-13.26h0a14.58,14.58,0,0,1,13.26,15.79Z"/><rect id="_Rectangle_5" data-name="&lt;Rectangle&gt;" class="cls-6" x="422.04" y="565.96" width="28.85" height="10.83" transform="translate(62.49 -42.72) rotate(6.03)"/></g></g><g class="cls-13"><polygon class="cls-14" points="173.22 53.9 173.22 22.28 160.48 21.95 160.48 53.9 173.22 53.9"/><polygon class="cls-14" points="200.8 53.9 200.8 22.95 188.06 22.64 188.06 53.9 200.8 53.9"/><polygon class="cls-14" points="228.39 53.9 228.39 23.64 215.65 23.32 215.65 53.9 228.39 53.9"/><polygon class="cls-14" points="255.98 53.9 255.98 24.33 243.24 24.01 243.24 53.9 255.98 53.9"/><polygon class="cls-14" points="283.56 53.9 283.56 25 270.83 24.68 270.83 53.9 283.56 53.9"/><polygon class="cls-14" points="311.17 53.9 311.17 25.68 298.42 25.37 298.42 53.9 311.17 53.9"/><polygon class="cls-14" points="338.76 53.9 338.76 26.37 326.02 26.06 326.02 53.9 338.76 53.9"/><polygon class="cls-14" points="366.35 53.9 366.35 27.04 353.61 26.73 353.61 53.9 366.35 53.9"/><polygon class="cls-14" points="393.93 53.9 393.93 27.73 381.19 27.41 381.19 53.9 393.93 53.9"/><polygon class="cls-14" points="421.52 53.9 421.52 28.41 408.78 28.1 408.78 53.9 421.52 53.9"/><polygon class="cls-14" points="449.11 53.9 449.11 29.09 436.37 28.77 436.37 53.9 449.11 53.9"/><polygon class="cls-14" points="476.7 53.9 476.7 29.77 463.96 29.46 463.96 53.9 476.7 53.9"/><polygon class="cls-14" points="504.28 53.9 504.28 30.46 491.55 30.15 491.55 53.9 504.28 53.9"/><polygon class="cls-14" points="531.87 53.9 531.87 31.13 519.13 30.82 519.13 53.9 531.87 53.9"/><polygon class="cls-14" points="559.46 53.9 559.46 31.82 546.72 31.5 546.72 53.9 559.46 53.9"/></g><rect class="cls-15" x="165.09" y="64.55" width="398.98" height="7.23"/><rect class="cls-15" x="395.74" y="485.28" width="1.46" height="120.1" transform="translate(-275.16 486.28) rotate(-48.96)"/><rect class="cls-15" x="441.21" y="583.8" width="93" height="1.46"/><rect class="cls-15" x="534.21" y="579.56" width="9.95" height="9.95"/><path class="cls-15" d="M206.88,420.29l15-7.29,6.15-3c.15-.08.15.06.22.21l1,1.9c1.41,2.73,2.82,5.44,4.37,8.09a170.72,170.72,0,0,0,11.5,17.35,167,167,0,0,0,12,14.06,163.09,163.09,0,0,0,33.33,26.84A166.64,166.64,0,0,0,329,495.69,164.5,164.5,0,0,0,516,425,164.48,164.48,0,0,0,538.39,309a147.34,147.34,0,0,0-5.26-21.18c-1.2-3.56-2.43-7.08-3.82-10.57s-2.87-6.79-4.41-10.16-3.33-6.69-5.15-9.93-3.7-6.32-5.7-9.39a166.45,166.45,0,0,0-12.92-17.22,163.65,163.65,0,0,0-31.23-28.1,156.41,156.41,0,0,0-18.42-11c-3.21-1.62-6.46-3.17-9.77-4.58s-6.77-2.76-10.21-4a148.27,148.27,0,0,0-20.89-5.92A166.92,166.92,0,0,0,391.76,174a160.51,160.51,0,0,0-35.11.42l-.37,0-.51-4.15-.2-1.62s2.91-.37,3.15-.4a160,160,0,0,1,20.38-.83,165.38,165.38,0,0,1,21.32,1.68c3.57.55,7.14,1.15,10.67,1.91s7,1.61,10.47,2.54a166.64,166.64,0,0,1,38.76,16,170.73,170.73,0,0,1,86.18,138.78,162,162,0,0,1,0,18.3,189.65,189.65,0,0,1-2.3,20.3,163.93,163.93,0,0,1-10.59,36.45l7.66,3.19,3.28,1.36c.12.05.1,0,.15-.13l.8-1.9c.5-1.19.92-2.42,1.38-3.64a195.81,195.81,0,0,0,6-19,157.38,157.38,0,0,0,4.15-21.19c.78-6.45,1.39-12.9,1.58-19.4a177.82,177.82,0,0,0-.46-18.63,182.74,182.74,0,0,0-52.46-114.77,182.71,182.71,0,0,0-70.59-44.11,186.75,186.75,0,0,0-42.42-9.06,177.78,177.78,0,0,0-38.6.6l-.51-4.15c-.07-.54-.13-1.08-.2-1.63,0,0,2.65-.34,2.9-.37,3.18-.38,6.4-.58,9.59-.77,3.43-.21,6.92-.31,10.35-.27a195.7,195.7,0,0,1,21.37,1.26,198,198,0,0,1,20.9,3.6,188.6,188.6,0,0,1,142,144.7,185.73,185.73,0,0,1,4,41.86,192.64,192.64,0,0,1-5.05,40.21,169.21,169.21,0,0,1-5.92,20c-1.18,3.21-2.38,6.41-3.73,9.56q-.89,2.1-1.8,4.19c-.29.67-.59,1.35-.91,2l-.43.89c0,.05-.14.41-.2.42s-.43-.2-.51-.24l-1.37-.65-4.4-2.08-8.77-4.14-.81-.38c-.13-.06-.58,1.06-.64,1.19-1.4,2.89-2.88,5.73-4.42,8.56q-3.94,7.11-8.51,13.85a170.06,170.06,0,0,1-25.86,29.68A165.74,165.74,0,0,1,455.62,489c-5.16,2.66-10.4,5.15-15.8,7.31a178.18,178.18,0,0,1-19.73,6.58,168,168,0,0,1-42.69,5.74,170.24,170.24,0,0,1-39-4.26c-5.42-1.24-10.75-2.8-16-4.5-2.56-.82-5.08-1.79-7.6-2.73a11.8,11.8,0,0,0-.71,1.72l-3.72,9.63-1.55,4-.37.95c-.1.27-1.31-.37-1.52-.45-2.89-1.07-5.7-2.39-8.53-3.62-1.62-.7-3.2-1.52-4.79-2.3s-3.13-1.5-4.66-2.33c-3.13-1.68-6.25-3.38-9.29-5.22s-6.12-3.79-9.11-5.81a184.93,184.93,0,0,1-32.72-28.14,182.72,182.72,0,0,1-23.06-30.93c-1.74-3-3.45-5.94-5-9l-2.76-5.37Z"/><path class="cls-14" d="M234.37,406.92c2.36,4.58,4.75,9.12,7.43,13.52a149.82,149.82,0,0,0,9.71,14.09,158.18,158.18,0,0,0,107.18,60.15,157.51,157.51,0,0,0,98.57-21.45,149.4,149.4,0,0,0,18.09-12.6,156,156,0,0,0,23.49-23.48,157.64,157.64,0,0,0,31.54-66,154.18,154.18,0,0,0,3.52-28.95c.09-4,0-8-.1-12-.19-4.43-.66-8.83-1.23-13.22a142.91,142.91,0,0,0-4.14-20.46,173.65,173.65,0,0,0-5.64-16.85,169.75,169.75,0,0,0-7.2-15.6A172.86,172.86,0,0,0,506.51,249c-1-1.55-2.13-3-3.22-4.51-.65-.89-1.27-1.81-2-2.67-2.38-3-4.76-5.92-7.3-8.76a163.32,163.32,0,0,0-19.61-18.6,158.19,158.19,0,0,0-23.17-15.25c-4.8-2.62-9.76-4.88-14.78-7-3.32-1.42-6.76-2.72-10.2-3.81A176.2,176.2,0,0,0,405.62,183a158.89,158.89,0,0,0-20.25-2.52,161.41,161.41,0,0,0-32.1,1.4,159,159,0,0,0-75.5,32.85c-2.86,2.3-5.61,4.68-8.34,7.13-1.35,1.21-2.63,2.47-3.92,3.74s-2.59,2.48-3.77,3.82a160.55,160.55,0,0,0-13.27,16,156.92,156.92,0,0,0-19.47,36,159.84,159.84,0,0,0-9.7,40.55,153.27,153.27,0,0,0,1.43,42.57,165.21,165.21,0,0,0,4.67,19.68c1.52,5,3.38,9.77,5.29,14.58,1,2.62,2.3,5.18,3.48,7.74,0,0,.22.4.17.43l-.76.37-1.77.86c-2.13-4.66-4.22-9.32-6-14.11a152.86,152.86,0,0,1-5.1-16.15,160.58,160.58,0,0,1,42.83-154.36,162.07,162.07,0,0,1,50.77-33.76,175.57,175.57,0,0,1,20.8-7.07,152.58,152.58,0,0,1,34.78-5.25,166.5,166.5,0,0,1,38.85,3.22,161.4,161.4,0,0,1,30.88,9.73c4.53,1.94,9,4.07,13.3,6.44,5.15,2.82,10.11,5.9,15,9.2a149.14,149.14,0,0,1,21.81,18.2c2.14,2.16,4.22,4.35,6.25,6.61,2.62,2.93,5.09,6,7.55,9,.69.85,1.31,1.76,2,2.65,1.14,1.57,2.33,3.12,3.39,4.74,1.59,2.43,3.23,4.82,4.7,7.32a159.49,159.49,0,0,1,7.78,14.46,175.32,175.32,0,0,1,6.8,16.67,178.56,178.56,0,0,1,5.4,19.5,159,159,0,0,1,2.91,21,151.25,151.25,0,0,1-.58,29.52,159,159,0,0,1-6.18,29.62,167.57,167.57,0,0,1-13.39,31.21,159.93,159.93,0,0,1-11.1,17.15,135.43,135.43,0,0,1-8.53,10.55c-1.76,1.93-3.47,3.91-5.32,5.74-2.61,2.57-5.22,5.1-7.92,7.57A140.85,140.85,0,0,1,466,471.07c-3.08,2-6.18,4-9.37,5.83s-6.47,3.58-9.78,5.25a157.4,157.4,0,0,1-20.49,8.32,154.42,154.42,0,0,1-38.1,7.6,160.2,160.2,0,0,1-80.45-14.9,158,158,0,0,1-35.12-22.5,162.93,162.93,0,0,1-28.22-30.95q-3.48-5-6.55-10.29c-2.15-3.69-4.12-7.46-6.08-11.26l2.56-1.24Z"/><path class="cls-15" d="M290.6,210.5l9.41,14,1,1.47A126.29,126.29,0,0,0,286,237.63c-2.62,2.34-5.22,4.76-7.59,7.35l-2.78,3c-.13.14-.46.71-.65.54l-6.84-6-1.45-1.28c-.28-.25-.38-.53-.65-.23-2,2.24-3.91,4.54-5.7,6.93a144.56,144.56,0,0,0-11.78,17.71c-1.64,3-3.23,6-4.72,9.1-1.07,2.21-2,4.46-3,6.73A145.17,145.17,0,0,0,230.54,321l-.07.63L242.19,323a131.25,131.25,0,0,0-.78,19,117.26,117.26,0,0,0,1.61,17.2,138.23,138.23,0,0,0,4.34,18.59c1.1,3.37,2.28,6.7,3.58,10,1.13,2.86,2.4,5.64,3.67,8.43.09.2.45.61.19.73l-.9.44-3.76,1.83-9.51,4.63-2.49,1.21a176.23,176.23,0,0,1-6.91-16.69c-1.15-3.4-2.21-6.81-3.19-10.26-.9-3.19-1.64-6.43-2.3-9.68A155,155,0,0,1,223,348.28a160.63,160.63,0,0,1,.1-21.72A147.77,147.77,0,0,1,230,291.2a153.29,153.29,0,0,1,45.42-69.09A143.13,143.13,0,0,1,290.6,210.5Z"/><path class="cls-15" d="M321.86,129.55a217,217,0,0,0-40.54,15.11c-6.26,3.12-12.42,6.45-18.37,10.13-6.22,3.84-12.16,8.07-18,12.43-5.77,4.58-11.43,9.26-16.77,14.34S218,191.7,213.28,197.14a215.4,215.4,0,0,0-51.73,158q.86,10.44,2.71,20.76c1.27,7.12,3,14.12,4.9,21.07A201,201,0,0,0,176,417.14c2,5.07,4.26,10,6.55,15L228.06,410c.09,0-1.85-4.14-2-4.52A165,165,0,0,1,236,251.54a164.93,164.93,0,0,1,94.43-71.81A159.81,159.81,0,0,1,347,175.83l3.52-.62c.17,0,.2,0,.18-.14-.07-.45-.14-.89-.21-1.34l-2.55-16.25q-1.7-10.78-3.39-21.56l-1.69-10.77c-7.06,1.23-14.09,2.53-21,4.39Zm17.35,2.67,3.44,19.08L346,170c.13.73.26,1.46.39,2.19l.09.5c0,.17-.23.13-.37.15-2.87.52-5.71,1.14-8.56,1.8-3.35.77-6.63,1.73-9.94,2.67s-6.65,2.11-9.88,3.33-6.63,2.59-9.88,4.07-6.58,3.09-9.83,4.77-6.31,3.47-9.4,5.31a153.7,153.7,0,0,0-17.47,12.29,162.25,162.25,0,0,0-15.68,14.27,168.32,168.32,0,0,0-46.95,110.25,165.38,165.38,0,0,0,3.86,42.65,169,169,0,0,0,11.08,33c.28.63.37.56-.19.82l-1.94.89-7.29,3.35-19.84,9.11-10.88,5c-1.46-3.23-2.88-6.45-4.18-9.74A211.68,211.68,0,0,1,169,292a215.8,215.8,0,0,1,12.28-38,209.85,209.85,0,0,1,20.17-36.55,216.65,216.65,0,0,1,28-32.91,207.8,207.8,0,0,1,16.68-14.33c5.65-4.37,11.52-8.39,17.53-12.25,3-1.92,6.12-3.67,9.21-5.43s6.54-3.52,9.85-5.17a214.75,214.75,0,0,1,19.92-8.54,207.74,207.74,0,0,1,36-9.82q.29,1.59.58,3.19Z"/><path class="cls-15" d="M276.18,396.23l6.3-3.87c.59,1.07,1.32,2.06,2,3.08.91,1.4,1.87,2.75,2.85,4.11,1.8,2.48,3.69,4.89,5.71,7.2a110.26,110.26,0,0,0,14.28,13.67,107.58,107.58,0,0,0,36,18.9,109.15,109.15,0,0,0,20.87,4.05,100.6,100.6,0,0,0,18.54.16,98.4,98.4,0,0,0,9.94-1.22c2.7-.53,5.39-1.08,8.07-1.72a98.36,98.36,0,0,0,18.31-6.43,104.2,104.2,0,0,0,21.42-13,112.53,112.53,0,0,0,11.05-9.87c1.66-1.74,3.29-3.51,4.84-5.35s3.06-3.76,4.55-5.68c2.12-2.74,3.93-5.7,5.78-8.63a74,74,0,0,0,3.77-6.83c1.57-3.19,3.07-6.39,4.34-9.71a107.7,107.7,0,0,0,7-31.25,105.41,105.41,0,0,0-.41-20.34,113.93,113.93,0,0,0-3.85-18.47l-7.08,2.13c-.34-1.14-.68-2.27-1.08-3.4l7.21-2.46,4.83-1.65,1.5-.51c.27-.09.41-.26.51,0a101.87,101.87,0,0,1,4.7,19.22c.49,3.48,1,7,1.15,10.5.09,1.8.14,3.59.21,5.39s-.06,3.65-.06,5.47-.2,3.56-.31,5.32-.33,3.42-.52,5.13c-.39,3.4-1,6.78-1.68,10.12a105.87,105.87,0,0,1-6.55,20.74c-1.47,3.36-3,6.71-4.79,9.91a105.64,105.64,0,0,1-5.57,9.21c-1.75,2.47-3.45,5-5.32,7.33s-3.88,4.7-6,6.93a115.19,115.19,0,0,1-68.89,35.73,115.06,115.06,0,0,1-103.43-39.79c-2-2.35-3.84-4.78-5.64-7.26a75.64,75.64,0,0,1-4.62-6.92Z"/><text class="cls-16" transform="translate(445.76 576.6)">MARIE</text><g class="cls-17"><rect class="cls-14" x="116.9" y="82.77" width="6.5" height="539.73"/><rect class="cls-14" x="99.32" y="111.78" width="40.06" height="5"/><rect class="cls-14" x="99.32" y="178.78" width="40.06" height="5"/><rect class="cls-14" x="99.32" y="245.78" width="40.06" height="5"/><rect class="cls-14" x="99.32" y="312.78" width="40.06" height="5"/><rect class="cls-14" x="99.32" y="379.78" width="40.06" height="5"/><rect class="cls-14" x="99.32" y="446.78" width="40.06" height="5"/><rect class="cls-14" x="99.32" y="513.78" width="40.06" height="5"/><rect class="cls-14" x="99.32" y="580.78" width="40.06" height="5"/></g><rect class="cls-15" x="448.93" y="602.6" width="191.51" height="12.72"/><rect class="cls-15" x="448.93" y="635.99" width="191.51" height="12.72"/><rect class="cls-15" x="448.93" y="669.47" width="191.51" height="12.72"/></svg>