<svg id="Layer_1" data-name="Layer 1" xmlns="http://www.w3.org/2000/svg" xmlns:xlink="http://www.w3.org/1999/xlink" viewBox="0 0 708.66 481.89"><defs><style>.cls-1,.cls-41{fill:none;}.cls-2{fill:#fec82b;}.cls-3{fill:#edeceb;}.cls-22,.cls-37,.cls-4{fill:#181919;}.cls-21,.cls-4{opacity:0.03;}.cls-5{fill:#c0e4ed;}.cls-30,.cls-6{fill:#fff;}.cls-7{fill:#fc5f51;}.cls-8{fill:#2a5991;}.cls-9{fill:#4692d1;}.cls-10{fill:#d1cecb;}.cls-11{fill:#e0f6fc;}.cls-12{fill:#c6c6c6;}.cls-13{fill:#9a724e;}.cls-13,.cls-14,.cls-15,.cls-16,.cls-17,.cls-18,.cls-27,.cls-28{fill-rule:evenodd;}.cls-14{fill:#cfa07a;}.cls-15{fill:#7c5736;}.cls-16{fill:#4b3421;}.cls-18{fill:#f1696a;}.cls-19{fill:#e3e5e4;}.cls-20{fill:#49a579;}.cls-23{fill:#efc865;}.cls-24{fill:#eab634;}.cls-25{fill:#e7685d;}.cls-26,.cls-27{fill:#f8ab8d;}.cls-28{fill:#dc846a;}.cls-29{clip-path:url(#clip-path);}.cls-30{opacity:0.33;}.cls-31{fill:#754d24;}.cls-32{fill:#4c4c4c;}.cls-33{fill:#507db2;}.cls-34{fill:#979797;}.cls-35{fill:#ce4949;}.cls-36{fill:#e85a56;}.cls-37{opacity:0.07;}.cls-38{fill:#648ec9;}.cls-39{fill:#6cc074;}.cls-40{opacity:0.26;}.cls-41{stroke:#757575;stroke-linecap:round;stroke-linejoin:round;stroke-width:3.78px;}</style><clipPath id="clip-path"><rect class="cls-1" x="241.61" y="29.93" width="246.57" height="182.54"/></clipPath></defs><title>CS-L2-U5</title><rect class="cls-2" x="137.91" y="33.33" width="448.51" height="160.57" rx="70.79" ry="70.79"/><rect class="cls-3" x="355.65" y="136.31" width="18.49" height="144.13"/><rect class="cls-4" x="285.1" y="268.45" width="152.75" height="21.96" rx="6.31" ry="6.31"/><rect class="cls-4" x="220.87" y="16.63" width="282.57" height="210.72" rx="12.16" ry="12.16"/><rect class="cls-3" x="288.52" y="271.19" width="152.75" height="21.96" rx="6.31" ry="6.31"/><rect class="cls-3" x="223.61" y="15.94" width="282.57" height="210.72" rx="12.16" ry="12.16"/><rect class="cls-5" x="241.61" y="30.04" width="246.57" height="182.54"/><rect class="cls-6" x="254.02" y="50.58" width="167.07" height="26.1" rx="3.17" ry="3.17"/><rect class="cls-7" x="254.02" y="63.63" width="167.07" height="121.73"/><rect class="cls-6" x="274.6" y="90.32" width="125.9" height="48.26"/><rect class="cls-6" x="274.6" y="74.68" width="125.9" height="10.67"/><rect class="cls-6" x="274.6" y="143.53" width="38.67" height="32.02"/><rect class="cls-6" x="318.22" y="143.53" width="38.67" height="32.02"/><rect class="cls-6" x="361.84" y="143.53" width="38.67" height="32.02"/><rect class="cls-6" x="276.96" y="41.05" width="181.56" height="28.37" rx="3.45" ry="3.45"/><rect class="cls-8" x="276.96" y="57.41" width="181.56" height="132.29"/><rect class="cls-9" x="406.98" y="146.7" width="42.02" height="34.79"/><rect class="cls-9" x="406.98" y="106.01" width="42.02" height="34.79"/><rect class="cls-9" x="406.98" y="67.15" width="42.02" height="34.79"/><rect class="cls-10" x="159.22" y="286.03" width="405.67" height="19.39" rx="9.7" ry="9.7"/><rect class="cls-6" x="287.55" y="67.15" width="111.79" height="7.83"/><rect class="cls-9" x="286.99" y="150" width="111.79" height="5.18"/><rect class="cls-9" x="286.99" y="156.95" width="111.79" height="5.18"/><rect class="cls-9" x="286.99" y="164.09" width="111.79" height="5.18"/><rect class="cls-9" x="286.99" y="171.24" width="111.79" height="5.18"/><rect class="cls-9" x="286.99" y="178.39" width="111.79" height="5.18"/><rect class="cls-11" x="287.55" y="79.59" width="111.79" height="65.79"/><polygon class="cls-12" points="399.34 143.93 287.55 133.82 287.55 105.08 399.34 115.18 399.34 143.93"/><path class="cls-13" d="M351.23,117.81h0a1.4,1.4,0,0,1,2,.25l1.06,1.38,2,.59.41,1.26-2.63.86a1.4,1.4,0,0,1-1.53-.48L351,119.76a1.4,1.4,0,0,1,.25-2Z"/><path class="cls-13" d="M344.34,118.72a47.24,47.24,0,0,0-6.54.24c-2.62.38-5.79-1.93-5.68-4.26s2.46-3.85,2.46-3.85,7.44,4.34,10.13,5.08,1,3.16-.38,2.79Z"/><path class="cls-13" d="M343.29,117h0a1.4,1.4,0,0,1,1.65-1.07l7.33,1.61a1.39,1.39,0,0,1,1.07,1.66h0a1.38,1.38,0,0,1-1.66,1.06l-7.33-1.61a1.38,1.38,0,0,1-1.06-1.65Z"/><path class="cls-13" d="M305.82,135.8h0a1.4,1.4,0,0,1,1.91.47l.87,1.46,1.94.84.26,1.3-2.72.55h0a1.4,1.4,0,0,1-1.5-.65l-1.24-2.06a1.41,1.41,0,0,1,.48-1.91Z"/><path class="cls-13" d="M306.32,131h0a1.39,1.39,0,0,1,1.44,1.34l.16,4.54a1.39,1.39,0,0,1-1.34,1.44h0a1.41,1.41,0,0,1-1.44-1.34L305,132.4a1.4,1.4,0,0,1,1.34-1.44Z"/><path class="cls-13" d="M309.81,131.35l-.12.1-.11.09-.11.09-.1.09-.1.08-.1.08-.1.08L309,132l-.09.07-.09.07-.09.07-.08.07-.08.07-.08.07-.07.05-.07.05-.07.05-.06.05-.06.05-.06,0-.05.05-.05,0-.05,0-.05,0,0,0,0,0,0,0,0,0,0,0,0,0,0,0,0,0,0,0,0,0h0l0,0,0,0h0l0,0h-.16a1.4,1.4,0,0,1-2-.2h0a1.4,1.4,0,0,1,.2-2l2.23-1.81s4.35-4.24,3.78-9.07,2.82-6.88,5-6.74,3,3.52,1.35,8.28-5.43,7.33-8,9.41Z"/><path class="cls-14" d="M310.55,117.1A11.3,11.3,0,0,1,298.95,103a11.3,11.3,0,0,0,10.27,12.56h0Z"/><path class="cls-14" d="M301.49,137.69h0a1.39,1.39,0,0,1,1.9.48l.88,1.46,1.93.83.26,1.3-2.72.55h0a1.39,1.39,0,0,1-1.5-.65L301,139.61a1.4,1.4,0,0,1,.48-1.91Z"/><path class="cls-14" d="M302,132.85h0a1.41,1.41,0,0,1,1.44,1.34l.16,4.54a1.4,1.4,0,0,1-1.34,1.44h0a1.39,1.39,0,0,1-1.44-1.34l-.16-4.55a1.4,1.4,0,0,1,1.35-1.44Z"/><path class="cls-14" d="M305.48,133.25l-.12.09-.11.09-.11.09-.11.08-.1.08-.09.08-.1.08-.09.08-.1.08-.09.07-.08.07-.09.07-.08.07-.07.05-.08.06-.07.06-.06.05-.07,0-.06.05-.05.05-.06,0-.05,0-.05,0,0,0,0,0,0,0,0,0,0,0,0,0,0,0,0,0,0,0,0,0,0,0,0,0,0,0,0,0,0,0h-.16a1.39,1.39,0,0,1-2-.2h0a1.39,1.39,0,0,1,.21-2l2.22-1.81s4.35-4.24,3.79-9.06,2.82-6.88,5-6.74,3,3.51,1.35,8.27-5.43,7.33-8,9.42Z"/><path class="cls-14" d="M307.65,123.84s-3.24-8.2,7-11.48,15.17-9,15.17-9,7.38-.13,8,4.79-3.66,9.29-6.52,10.67-14.06-1.24-16.85,2.9-5.81,5.75-6.83,2.12Z"/><path class="cls-14" d="M345.07,118.89h0a1.4,1.4,0,0,1,1.88.59l.8,1.55,1.82.93.18,1.31-2.74.38a1.4,1.4,0,0,1-1.42-.74l-1.11-2.13a1.41,1.41,0,0,1,.6-1.88Z"/><path class="cls-14" d="M340.06,120.78a33.38,33.38,0,0,0-6.54.28c-5.23,1-7.49-1.5-5.7-4.24,1.27-2,6.25-6.73,6.25-6.73s-2.27,3.74,6.35,7.9c2.52,1.22,1,3.16-.36,2.79Z"/><path class="cls-14" d="M336.7,119.09h0a1.4,1.4,0,0,1,1.52-1.25l7.46.77a1.4,1.4,0,0,1,1.25,1.53h0a1.38,1.38,0,0,1-1.53,1.24l-7.46-.77a1.38,1.38,0,0,1-1.24-1.52Z"/><path class="cls-15" d="M336.53,94.45a4.87,4.87,0,0,0,2.05,2.26c.33.26,1.17-.84,1-2.25s-2.9-7.73-3.12-7.28c-1.27,2.62-.19,4.39.12,7.26Z"/><path class="cls-14" d="M329.67,103.36,333.55,95a3.61,3.61,0,0,1,3.84-.17c1.92,1.21.48,5.58.32,6.32s-.92,4.6-.92,4.6-10.48,4.87-7.12-2.37Z"/><path class="cls-14" d="M333.55,95a4.65,4.65,0,0,1,4.34-2.73c2.75-.09,3.28,1.42,3.28,1.42l.28.69,4,0a7.52,7.52,0,0,1-.28,3c-.45.85-1.83,1.23-4,1.26s-2.86-.08-3.19,1.26-4.65-.43-4.49-4.82Z"/><path class="cls-16" d="M344.66,94.22c1-.23,1.55-.24,1.42.47s-.33,1.69-1.1,1.67c-1.11,0-.77-2-.32-2.14Z"/><path class="cls-13" d="M334.9,94.4a4.91,4.91,0,0,0,2,2.26c.33.26,1.17-.84,1-2.25s-2.9-7.73-3.12-7.28c-1.26,2.62-.18,4.39.12,7.26Z"/><path class="cls-17" d="M340.63,94.75c.27,0,.48-.31.46-.68s-.24-.65-.51-.64-.48.31-.46.67.24.66.5.65Z"/><path class="cls-16" d="M339.38,93.26l1.25-.57a.27.27,0,0,1,.35.13h0a.26.26,0,0,1-.13.34l-1.26.57a.25.25,0,0,1-.34-.13h0a.25.25,0,0,1,.13-.34Z"/><path class="cls-14" d="M338.94,98.68a13.67,13.67,0,0,1,3.11.61c1.24.46,2,.63,2.41.31s.5-1.41.5-1.41-3.35-.5-3.77-.54a10.29,10.29,0,0,0-2.25,1Z"/><path class="cls-18" d="M342.89,98.46c1.9.22,1,3,2.37,2.78.42-.08.56-.49.36-1.48-.28-1.39-.82-2.35-2.73-1.3Z"/><path class="cls-19" d="M335.64,115.16l.84.63a15.61,15.61,0,0,0,2.31-2.87l-1.32-.86A13.84,13.84,0,0,1,335.64,115.16Z"/><path class="cls-6" d="M330.2,101.57l1.19.92a5.09,5.09,0,0,0,5.58.3l.68-.39.95,5c.42,2.25-1.48,6.1-2.78,7.63h0l1.27,1a21.77,21.77,0,0,1-6.58,5.65l-1.51-.49-1.59-1.34L317.66,121l-.57-3.28a16.28,16.28,0,0,0-2.09-5.6l-.36-.49s7.82-3.5,8.17-3.71l4.08-2.4a5.53,5.53,0,0,0,1.56-1.37Z"/><path class="cls-20" d="M381.8,95.51a15,15,0,0,0-15,15h30A15,15,0,0,0,381.8,95.51Z"/><g class="cls-21"><polygon class="cls-22" points="206.85 286.28 238.86 286.28 245.09 227.01 200.34 227.01 206.85 286.28"/><path class="cls-22" d="M211.37,239.85a11.32,11.32,0,0,0-9.16,4.68l1.66,15.16a11.34,11.34,0,1,0,7.5-19.84Z"/><rect class="cls-22" x="197.18" y="223.14" width="50.13" height="6.33" rx="1.41" ry="1.41"/></g><polygon class="cls-23" points="209.58 286.28 241.59 286.28 247.82 227.01 203.08 227.01 209.58 286.28"/><path class="cls-24" d="M214.11,239.85a11.32,11.32,0,0,0-9.16,4.68l1.66,15.16a11.34,11.34,0,1,0,7.5-19.84Z"/><rect class="cls-25" x="199.91" y="223.14" width="50.13" height="6.33" rx="1.41" ry="1.41"/><rect class="cls-7" x="287.53" y="134.73" width="19.39" height="12.16"/><polygon class="cls-6" points="294.65 138.46 294.65 143.17 299.79 140.81 294.65 138.46"/><path id="_Path_" data-name="&lt;Path&gt;" class="cls-26" d="M395.88,195.75h.42c-6.74,0-11.78,5.46-11.78,12.2V234c0,6.74,5,8.84,11.78,8.84h-.21c6.74,0,12-2.1,12-8.84V207.95A12.2,12.2,0,0,0,395.88,195.75Z"/><g id="_Group_" data-name="&lt;Group&gt;"><path id="_Path_2" data-name="&lt;Path&gt;" class="cls-27" d="M429.25,167.38s1.09-2.51,5-5.19c7.7-5.34,16.66-1,13.24,8.13-2.38,6.38-6.45,22.17-11.44,16.48C432.2,182.45,429.45,175.8,429.25,167.38Z"/><polygon id="_Path_3" data-name="&lt;Path&gt;" class="cls-28" points="435.17 168.31 445.28 166.61 437.66 180.47 440.23 169.05 435.17 168.31"/></g><g class="cls-29"><rect class="cls-30" x="305.33" y="-49.33" width="33.06" height="314.96" transform="translate(170.74 -195.91) rotate(45)"/><rect class="cls-30" x="341.93" y="-24.89" width="8.74" height="314.96" transform="translate(195.19 -206.04) rotate(45)"/></g><path class="cls-27" d="M345,157.58c0,20.52,17.65,56.82,51.32,56.82,37.66,0,48.47-38.09,48.47-58.62s-9.73-53.84-48.62-53.84C358.67,101.94,345,137.06,345,157.58Z"/><g id="_Group_2" data-name="&lt;Group&gt;"><path id="_Path_4" data-name="&lt;Path&gt;" class="cls-27" d="M352.28,167.38a14.2,14.2,0,0,0-3.13-5.19c-4.85-5.34-10.49-1-8.34,8.13,1.5,6.38,9.34,20.67,12.48,15C355.7,181,352.15,175.8,352.28,167.38Z"/><polygon id="_Path_5" data-name="&lt;Path&gt;" class="cls-28" points="348.55 168.31 342.18 166.61 346.98 180.47 345.36 169.05 348.55 168.31"/></g><path class="cls-31" d="M341.41,227.73a14.61,14.61,0,0,1-9-16.92c4.25-18.64,13-57.75,14.06-69.32a45.87,45.87,0,0,1,6.21-19.36c6.25-10.44,18.65-22.73,42.27-22.36,19.16.3,31.21,8.36,38.6,16.84a45.61,45.61,0,0,1,11,27.56c.74,13.7,11.33,48,17,65.75a14.59,14.59,0,0,1-9.25,18.35C425.56,237.07,368,237.79,341.41,227.73Z"/><path class="cls-7" d="M356.81,236.64h79a21.49,21.49,0,0,1,21.49,21.49V434.56a0,0,0,0,1,0,0h-122a0,0,0,0,1,0,0V258.13A21.49,21.49,0,0,1,356.81,236.64Z"/><path class="cls-32" d="M455.62,414h-117a22.55,22.55,0,0,0-22.55,22.55v16c0,.71,0,1.4.1,2.09,21.91,10.2,50.22,16.26,81.53,16.26,30.72,0,58.56-5.85,80.31-15.71a22.07,22.07,0,0,0,.16-2.65v-16A22.55,22.55,0,0,0,455.62,414Z"/><path class="cls-33" d="M455.62,414h-117a22.55,22.55,0,0,0-22.55,22.55V444c21.14,10.76,49.92,17.4,81.63,17.4,31.14,0,59.44-6.4,80.48-16.82v-8A22.55,22.55,0,0,0,455.62,414Z"/><path class="cls-32" d="M305.76,443a11.44,11.44,0,0,0,10.49,11.39V383.2H305.76Z"/><path class="cls-34" d="M325.79,380.18a5.24,5.24,0,0,1-5.24,5.24H300.84a5.25,5.25,0,0,1-5.25-5.24h0a5.25,5.25,0,0,1,5.25-5.24h19.71a5.24,5.24,0,0,1,5.24,5.24Z"/><path class="cls-32" d="M488.52,444.54A11.44,11.44,0,0,1,478,455.94V384.79h10.49Z"/><path class="cls-34" d="M468.49,381.77a5.25,5.25,0,0,0,5.24,5.25h19.71a5.25,5.25,0,0,0,5.24-5.25h0a5.24,5.24,0,0,0-5.24-5.24H473.74a5.25,5.25,0,0,0-5.24,5.24Z"/><rect class="cls-35" x="453.34" y="276.5" width="30.31" height="78.5" rx="15.16" ry="15.16" transform="translate(84.63 -98.77) rotate(13.22)"/><path class="cls-26" d="M476.41,271.19l7.88,3.5a8.59,8.59,0,0,1,5,9.47l-.73,3.79-12.11-5.78Z"/><rect class="cls-36" x="446.1" y="237" width="30.31" height="125.36" rx="15.16" ry="15.16"/><rect class="cls-36" x="320.9" y="236.12" width="30.31" height="125.36" rx="15.16" ry="15.16"/><path class="cls-37" d="M346.76,266.59a14.13,14.13,0,0,0-12.48,8.92s-13,38.12-13,66.62c0,67.65,33.82,122.48,75.54,122.48s75.54-54.84,75.54-122.48c0-28.5-13-66.62-13-66.62a14.13,14.13,0,0,0-12.48-8.92Z"/><path class="cls-38" d="M346.76,270.69a14.13,14.13,0,0,0-12.48,8.92s-13,38.12-13,66.62c0,67.65,33.82,122.48,75.54,122.48s75.54-54.84,75.54-122.48c0-28.5-13-66.62-13-66.62a14.13,14.13,0,0,0-12.48-8.92Z"/><rect class="cls-7" x="287.74" y="41.83" width="3.68" height="15.32" rx="1.84" ry="1.84" transform="translate(119.49 -190.05) rotate(44.92)"/><rect class="cls-7" x="287.74" y="41.83" width="3.68" height="15.32" rx="1.84" ry="1.84" transform="translate(529.11 -120.6) rotate(134.92)"/><rect class="cls-39" x="311.09" y="62.16" width="9.32" height="24.63" transform="translate(39.82 245.08) rotate(-45)"/><polygon class="cls-39" points="293.62 52.34 301.66 77.54 318.81 60.39 293.62 52.34"/><g class="cls-40"><path class="cls-41" d="M231.16,178.46c0,2.43-2.5,2.43-2.5,4.86s2.5,2.43,2.5,4.86-2.5,2.43-2.5,4.87,2.5,2.44,2.5,4.87-2.5,2.44-2.5,4.87"/></g><g class="cls-40"><path class="cls-41" d="M217.87,188.7c0,2.43-2.5,2.43-2.5,4.86s2.5,2.43,2.5,4.86-2.5,2.43-2.5,4.87,2.5,2.44,2.5,4.87-2.5,2.44-2.5,4.87"/></g></svg>