<svg id="Layer_1" data-name="Layer 1" xmlns="http://www.w3.org/2000/svg" xmlns:xlink="http://www.w3.org/1999/xlink" viewBox="0 0 708.66 481.89"><defs><style>.cls-1,.cls-16,.cls-17,.cls-18,.cls-26,.cls-27{fill:none;}.cls-2{fill:#648ec9;}.cls-3{clip-path:url(#clip-path);}.cls-4{fill:#a57c52;}.cls-12,.cls-5{fill:#f8ab8d;}.cls-6{fill:#fff;}.cls-7{fill:#c49a6c;}.cls-8{fill:#e5e5e4;}.cls-9{fill:#515180;}.cls-10{fill:#7f7f7f;}.cls-11{fill:#ededed;}.cls-12,.cls-15{fill-rule:evenodd;}.cls-13{fill:#979797;}.cls-14{fill:gray;}.cls-15{fill:#dc846a;}.cls-16,.cls-17{stroke:#dc846a;}.cls-16,.cls-17,.cls-18,.cls-26,.cls-27{stroke-linecap:round;stroke-linejoin:round;}.cls-16{stroke-width:1.14px;}.cls-17{stroke-width:2.28px;}.cls-18{stroke:#7f7f7f;}.cls-18,.cls-26{stroke-width:4px;}.cls-19{fill:#3952a0;}.cls-20{fill:#2a4077;}.cls-21{fill:#f2f1f0;}.cls-22{fill:#4c4c4c;}.cls-23{fill:#e8e6e6;}.cls-24{fill:#8b6339;}.cls-25{fill:#754d24;}.cls-26{stroke:#4c4c4c;}.cls-27{stroke:#fcfcfc;stroke-width:2px;}.cls-28{fill:#fec82b;}</style><clipPath id="clip-path"><circle class="cls-1" cx="362.49" cy="237.31" r="225.54"/></clipPath></defs><title>CS-L2-U7</title><circle class="cls-2" cx="362.49" cy="237.31" r="225.54"/><g class="cls-3"><rect id="_Rectangle_" data-name="&lt;Rectangle&gt;" class="cls-4" x="135.79" y="311.79" width="22.92" height="8.49" transform="translate(170.25 -31.86) rotate(28.77)"/><rect id="_Rectangle_2" data-name="&lt;Rectangle&gt;" class="cls-5" x="233.75" y="282.45" width="23.64" height="90.65" rx="4.88" ry="4.88" transform="translate(-102.24 544.03) rotate(-85.03)"/><path id="_Path_" data-name="&lt;Path&gt;" class="cls-5" d="M272,343l24,8.74s19.12-4.09,25.11-8.65c7-5.3,10.75-16.1,11.31-18.15,1.52-5.48-32.57.32-32.57.32l-11.92-5.66Z"/><rect id="_Rectangle_3" data-name="&lt;Rectangle&gt;" class="cls-4" x="179.97" y="222.06" width="29.41" height="122.54" rx="14.7" ry="14.7" transform="translate(269.4 -52.21) rotate(47.05)"/><path id="_Path_2" data-name="&lt;Path&gt;" class="cls-4" d="M266,315.74l-3.45,29.21L159.15,332a14.7,14.7,0,0,1-12.88-16.33h0a14.7,14.7,0,0,1,16.33-12.88Z"/><rect id="_Rectangle_4" data-name="&lt;Rectangle&gt;" class="cls-6" x="253.14" y="319.39" width="39.31" height="20.75" transform="translate(-79.36 572.96) rotate(-85.03)"/><path id="_Rectangle_5" data-name="&lt;Rectangle&gt;" class="cls-7" d="M113.18,200h45.69a42.51,42.51,0,0,1,42.51,42.51V409.91a22.19,22.19,0,0,1-22.19,22.19H93.6a22.93,22.93,0,0,1-22.93-22.93V242.53A42.51,42.51,0,0,1,113.18,200Z" transform="translate(103.17 658.57) rotate(-151.23)"/><polygon id="_Path_3" data-name="&lt;Path&gt;" class="cls-4" points="167.93 201.21 158.25 210.71 162.49 225.21 154.49 230.42 163.9 311.02 212.09 261.83 211.15 251.44 219.39 244.28 218.48 228.95 167.93 201.21"/><polygon id="_Path_4" data-name="&lt;Path&gt;" class="cls-6" points="214.57 226.81 170.58 289.68 174.54 204.83 214.57 226.81"/><path id="_Path_5" data-name="&lt;Path&gt;" class="cls-5" d="M208.72,186.22l-.29-.16A9.39,9.39,0,0,1,212,199L202,217.15c-2.57,4.68-6.87,4.22-11.55,1.65l.15.08c-4.68-2.57-7.53-6-5-10.71L195.59,190A9.67,9.67,0,0,1,208.72,186.22Z"/><polygon id="_Path_6" data-name="&lt;Path&gt;" class="cls-8" points="174.54 204.83 188.04 203.79 193.97 218.64 179.5 230.04 174.54 204.83"/><polygon id="_Path_7" data-name="&lt;Path&gt;" class="cls-8" points="214.57 226.81 204.41 212.78 193.97 218.64 197.8 240.09 214.57 226.81"/><polygon id="_Path_8" data-name="&lt;Path&gt;" class="cls-9" points="193.97 218.64 185.35 225.43 189.66 239.64 196.57 233.22 193.97 218.64"/><polygon id="_Path_9" data-name="&lt;Path&gt;" class="cls-9" points="188.76 234.97 171.86 262.29 170.58 289.68 186.3 267.22 192.66 236 188.76 234.97"/><ellipse id="_Path_10" data-name="&lt;Path&gt;" class="cls-4" cx="138.82" cy="338.09" rx="7.51" ry="6.07" transform="translate(-224.35 297.08) rotate(-61.23)"/><ellipse id="_Path_11" data-name="&lt;Path&gt;" class="cls-4" cx="119.06" cy="374.08" rx="7.51" ry="6.07" transform="translate(-266.16 298.44) rotate(-61.23)"/><rect class="cls-10" x="275.23" y="190.44" width="74.02" height="181.49" transform="translate(214.87 -127.56) rotate(34.6)"/><rect class="cls-11" x="240.52" y="325.12" width="10.09" height="6.25" rx="1.04" ry="1.04" transform="translate(-164.07 344.01) rotate(-55.4)"/><rect class="cls-11" x="247.41" y="315.14" width="10.09" height="6.25" rx="1.04" ry="1.04" transform="translate(-152.87 345.36) rotate(-55.4)"/><rect class="cls-11" x="253.88" y="305.74" width="10.09" height="6.25" rx="1.04" ry="1.04" transform="translate(-142.34 346.64) rotate(-55.4)"/><rect class="cls-11" x="260.5" y="296.15" width="10.09" height="6.25" rx="1.04" ry="1.04" transform="translate(-131.59 347.94) rotate(-55.4)"/><rect class="cls-11" x="267.11" y="286.56" width="10.09" height="6.25" rx="1.04" ry="1.04" transform="translate(-120.83 349.24) rotate(-55.4)"/><rect class="cls-11" x="273.73" y="276.97" width="10.09" height="6.25" rx="1.04" ry="1.04" transform="translate(-110.08 350.54) rotate(-55.4)"/><rect class="cls-11" x="280.48" y="267.18" width="10.09" height="6.25" rx="1.04" ry="1.04" transform="translate(-99.1 351.86) rotate(-55.4)"/><rect class="cls-11" x="286.96" y="257.79" width="10.09" height="6.25" rx="1.04" ry="1.04" transform="translate(-88.57 353.14) rotate(-55.4)"/><rect class="cls-11" x="293.58" y="248.2" width="10.09" height="6.25" rx="1.04" ry="1.04" transform="translate(-77.82 354.44) rotate(-55.4)"/><rect class="cls-11" x="300.46" y="238.22" width="10.09" height="6.25" rx="1.04" ry="1.04" transform="translate(-66.62 355.79) rotate(-55.4)"/><rect class="cls-11" x="306.94" y="228.82" width="10.09" height="6.25" rx="1.04" ry="1.04" transform="translate(-56.09 357.07) rotate(-55.4)"/><rect class="cls-11" x="313.56" y="219.23" width="10.09" height="6.25" rx="1.04" ry="1.04" transform="translate(-45.33 358.37) rotate(-55.4)"/><rect class="cls-11" x="320.31" y="209.44" width="10.09" height="6.25" rx="1.04" ry="1.04" transform="translate(-34.36 359.69) rotate(-55.4)"/><rect class="cls-11" x="360.47" y="250.43" width="10.09" height="6.25" transform="translate(-50.74 410.47) rotate(-55.4)"/><rect class="cls-11" x="373.41" y="231.67" width="10.09" height="6.25" transform="translate(-29.7 413.01) rotate(-55.4)"/><rect class="cls-11" x="327.04" y="199.68" width="10.09" height="6.25" rx="1.04" ry="1.04" transform="translate(-23.41 361.02) rotate(-55.4)"/><rect class="cls-11" x="248.03" y="328.38" width="10.09" height="10.09" rx="0.36" ry="0.36" transform="translate(-165.09 352.43) rotate(-55.4)"/><rect class="cls-11" x="254.43" y="318.9" width="10.09" height="10.09" rx="0.36" ry="0.36" transform="translate(-154.51 353.6) rotate(-55.4)"/><rect class="cls-11" x="260.74" y="309.75" width="10.09" height="10.09" rx="0.36" ry="0.36" transform="matrix(0.57, -0.82, 0.82, 0.57, -144.26, 354.84)"/><rect class="cls-11" x="267.13" y="300.7" width="10.09" height="10.09" rx="0.36" ry="0.36" transform="translate(-134.05 356.19) rotate(-55.4)"/><rect class="cls-11" x="273.54" y="291.19" width="10.09" height="10.09" rx="0.36" ry="0.36" transform="matrix(0.57, -0.82, 0.82, 0.57, -123.44, 357.36)"/><rect class="cls-11" x="286.35" y="272.63" width="10.09" height="10.09" rx="0.36" ry="0.36" transform="translate(-102.63 359.87) rotate(-55.4)"/><rect class="cls-11" x="292.75" y="263.34" width="10.09" height="10.09" rx="0.36" ry="0.36" transform="translate(-92.22 361.13) rotate(-55.4)"/><rect class="cls-11" x="299.15" y="254.06" width="10.09" height="10.09" rx="0.36" ry="0.36" transform="translate(-81.82 362.39) rotate(-55.4)"/><rect class="cls-11" x="305.6" y="244.92" width="10.09" height="10.09" rx="0.36" ry="0.36" transform="translate(-71.5 363.75) rotate(-55.4)"/><rect class="cls-11" x="312.01" y="235.64" width="10.09" height="10.09" rx="0.31" ry="0.31" transform="translate(-61.09 365.01) rotate(-55.4)"/><rect class="cls-11" x="318.45" y="226.29" width="10.09" height="10.09" rx="0.31" ry="0.31" transform="translate(-50.61 366.28) rotate(-55.4)"/><rect class="cls-11" x="324.76" y="216.94" width="10.09" height="10.09" rx="0.31" ry="0.31" transform="translate(-40.19 367.42) rotate(-55.4)"/><rect class="cls-11" x="337.05" y="218.05" width="10.09" height="10.09" rx="0.31" ry="0.31" transform="translate(-35.79 378.02) rotate(-55.4)"/><rect class="cls-11" x="330.57" y="227.87" width="10.09" height="10.09" rx="0.31" ry="0.31" transform="translate(-46.68 376.93) rotate(-55.4)"/><rect class="cls-11" x="324.01" y="236.96" width="10.09" height="10.09" rx="0.31" ry="0.31" transform="translate(-56.99 375.46) rotate(-55.4)"/><rect class="cls-11" x="317.65" y="246.18" width="10.09" height="10.09" rx="0.31" ry="0.31" transform="matrix(0.57, -0.82, 0.82, 0.57, -67.33, 374.21)"/><rect class="cls-11" x="311.29" y="255.4" width="10.09" height="10.09" rx="0.31" ry="0.31" transform="translate(-77.67 372.96) rotate(-55.4)"/><rect class="cls-11" x="304.72" y="264.91" width="10.09" height="10.09" rx="0.31" ry="0.31" transform="translate(-88.34 371.67) rotate(-55.4)"/><rect class="cls-11" x="298.67" y="274.01" width="10.09" height="10.09" rx="0.31" ry="0.31" transform="translate(-98.45 370.62) rotate(-55.4)"/><rect class="cls-11" x="292.41" y="283.19" width="10.09" height="10.09" rx="0.31" ry="0.31" transform="translate(-108.71 369.43) rotate(-55.4)"/><rect class="cls-11" x="285.53" y="292.74" width="10.09" height="10.09" rx="0.36" ry="0.36" transform="translate(-119.54 367.9) rotate(-55.4)"/><rect class="cls-11" x="279.08" y="302.09" width="10.09" height="10.09" rx="0.36" ry="0.36" transform="translate(-130.02 366.63) rotate(-55.4)"/><rect class="cls-11" x="272.76" y="311.26" width="10.09" height="10.09" rx="0.36" ry="0.36" transform="translate(-140.3 365.38) rotate(-55.4)"/><rect class="cls-11" x="266.63" y="320.56" width="10.09" height="10.09" rx="0.36" ry="0.36" transform="translate(-150.61 364.36) rotate(-55.4)"/><rect class="cls-11" x="341.24" y="231.7" width="10.09" height="10.09" rx="0.01" ry="0.01" transform="translate(-45.21 387.37) rotate(-55.4)"/><rect class="cls-11" x="334.68" y="240.78" width="10.09" height="10.09" rx="0.01" ry="0.01" transform="translate(-55.53 385.9) rotate(-55.4)"/><rect class="cls-11" x="328.32" y="250" width="10.09" height="10.09" rx="0.01" ry="0.01" transform="translate(-65.86 384.65) rotate(-55.4)"/><rect class="cls-11" x="321.96" y="259.22" width="10.09" height="10.09" rx="0.01" ry="0.01" transform="translate(-76.2 383.4) rotate(-55.4)"/><path class="cls-11" d="M327.33,272.69l-5.59,8.11-8.11-5.59a.24.24,0,0,1-.06-.33L319,267a.24.24,0,0,1,.33-.06l7.92,5.46A.24.24,0,0,1,327.33,272.69Z"/><rect class="cls-11" x="309.34" y="277.84" width="10.09" height="10.09" rx="0.01" ry="0.01" transform="translate(-96.98 381.06) rotate(-55.4)"/><rect class="cls-11" x="303.08" y="287.02" width="10.09" height="10.09" rx="0.01" ry="0.01" transform="translate(-107.24 379.87) rotate(-55.4)"/><rect class="cls-11" x="296.2" y="296.57" width="10.09" height="10.09" rx="0.01" ry="0.01" transform="translate(-118.08 378.34) rotate(-55.4)"/><rect class="cls-11" x="289.76" y="305.91" width="10.09" height="10.09" rx="0.01" ry="0.01" transform="translate(-128.56 377.07) rotate(-55.4)"/><rect class="cls-11" x="283.43" y="315.08" width="10.09" height="10.09" rx="0.36" ry="0.36" transform="translate(-138.84 375.83) rotate(-55.4)"/><rect class="cls-11" x="277.31" y="324.39" width="10.09" height="10.09" rx="0.36" ry="0.36" transform="translate(-149.15 374.8) rotate(-55.4)"/><rect class="cls-11" x="346.93" y="242.73" width="10.09" height="10.09" rx="0.01" ry="0.01" transform="translate(-51.84 396.82) rotate(-55.4)"/><rect class="cls-11" x="340.37" y="251.82" width="10.09" height="10.09" rx="0.01" ry="0.01" transform="translate(-62.15 395.35) rotate(-55.4)"/><rect class="cls-11" x="334.01" y="261.04" width="10.09" height="10.09" rx="0.01" ry="0.01" transform="translate(-72.49 394.1) rotate(-55.4)"/><rect class="cls-11" x="327.65" y="270.26" width="10.09" height="10.09" rx="0.01" ry="0.01" transform="translate(-82.83 392.85) rotate(-55.4)"/><rect class="cls-11" x="321.09" y="279.77" width="10.09" height="10.09" rx="0.01" ry="0.01" transform="translate(-93.5 391.56) rotate(-55.4)"/><rect class="cls-11" x="315.03" y="288.87" width="10.09" height="10.09" rx="0.01" ry="0.01" transform="translate(-103.61 390.51) rotate(-55.4)"/><rect class="cls-11" x="308.77" y="298.05" width="10.09" height="10.09" rx="0.01" ry="0.01" transform="translate(-113.87 389.32) rotate(-55.4)"/><rect class="cls-11" x="301.89" y="307.6" width="10.09" height="10.09" rx="0.01" ry="0.01" transform="translate(-124.71 387.79) rotate(-55.4)"/><rect class="cls-11" x="295.44" y="316.95" width="10.09" height="10.09" rx="0.36" ry="0.36" transform="translate(-135.18 386.52) rotate(-55.4)"/><rect class="cls-11" x="289.12" y="326.12" width="10.09" height="10.09" rx="0.36" ry="0.36" transform="translate(-145.46 385.27) rotate(-55.4)"/><rect class="cls-11" x="279.94" y="281.91" width="10.09" height="10.09" rx="0.36" ry="0.36" transform="translate(-113.04 358.61) rotate(-55.4)"/><rect class="cls-11" x="255.56" y="332.28" width="15.73" height="9.73" rx="0.13" ry="0.13" transform="translate(-163.67 362.56) rotate(-55.4)"/><rect class="cls-11" x="364.3" y="237.17" width="10.93" height="10.93" rx="0.9" ry="0.9" transform="translate(-39.92 409.24) rotate(-55.4)"/><rect class="cls-11" x="264.03" y="336.88" width="18.86" height="10.57" rx="0.16" ry="0.16" transform="translate(-163.47 372.99) rotate(-55.4)"/><rect class="cls-11" x="345.6" y="218.63" width="18.86" height="10.57" rx="0.16" ry="0.16" transform="matrix(0.57, -0.82, 0.82, 0.57, -30.88, 389.02)"/><rect class="cls-11" x="271.86" y="341.22" width="24.26" height="9.85" rx="0.31" ry="0.31" transform="translate(-162.19 383.38) rotate(-55.4)"/><rect class="cls-11" x="350.36" y="227.42" width="24.26" height="9.85" transform="translate(-34.59 398.81) rotate(-55.4)"/><rect class="cls-11" x="303.08" y="323.9" width="13.21" height="11.65" transform="translate(-137.57 397.44) rotate(-55.4)"/><rect class="cls-11" x="343.05" y="265.96" width="13.21" height="11.65" transform="translate(-72.61 405.29) rotate(-55.4)"/><rect class="cls-11" x="343.45" y="209.07" width="10.15" height="10.15" rx="0.35" ry="0.35" transform="translate(-25.64 379.45) rotate(-55.4)"/><rect class="cls-11" x="351.86" y="256.16" width="10.15" height="10.15" rx="0.35" ry="0.35" transform="translate(-60.77 406.72) rotate(-55.4)"/><path class="cls-11" d="M304,346.91l5.57-8.07-8.07-5.57a.35.35,0,0,0-.48.09l-5.37,7.78a.35.35,0,0,0,.09.48l7.78,5.37A.35.35,0,0,0,304,346.91Z"/><rect class="cls-11" x="291.13" y="344.2" width="10.15" height="10.15" rx="0.05" ry="0.05" transform="translate(-159.49 394.78) rotate(-55.4)"/><rect class="cls-11" x="284.63" y="353.62" width="10.15" height="10.15" rx="0.05" ry="0.05" transform="translate(-170.05 393.51) rotate(-55.4)"/><rect class="cls-11" x="329.87" y="205.39" width="16.09" height="10.09" transform="translate(-27.17 369.11) rotate(-55.4)"/><rect class="cls-11" x="303.37" y="294.87" width="52.81" height="11.48" transform="translate(-104.92 401.38) rotate(-55.4)"/><rect id="_Rectangle_6" data-name="&lt;Rectangle&gt;" class="cls-5" x="200.21" y="263.9" width="23.64" height="90.65" rx="4.88" ry="4.88" transform="translate(-114.4 493.67) rotate(-85.03)"/><path id="_Path_12" data-name="&lt;Path&gt;" class="cls-5" d="M238.48,324.44l24,8.74s19.12-4.09,25.11-8.65c7-5.3,10.75-16.1,11.31-18.15,1.52-5.48-32.57.32-32.57.32L254.38,301Z"/><rect id="_Rectangle_7" data-name="&lt;Rectangle&gt;" class="cls-4" x="119.21" y="191.44" width="29.41" height="122.54" rx="14.7" ry="14.7" transform="translate(32.65 -14.76) rotate(7.18)"/><path id="_Path_13" data-name="&lt;Path&gt;" class="cls-4" d="M232.42,297.19,229,326.39l-103.36-13a14.7,14.7,0,0,1-12.88-16.33h0a14.7,14.7,0,0,1,16.33-12.88Z"/><rect id="_Rectangle_8" data-name="&lt;Rectangle&gt;" class="cls-6" x="219.6" y="300.84" width="39.31" height="20.75" transform="translate(-91.51 522.6) rotate(-85.03)"/><path id="_Path_14" data-name="&lt;Path&gt;" class="cls-12" d="M227.42,220.73c-32-4.36-44.37-31-44-61,.4-31.66,25.75-53.08,50.6-48.41,28.27,5.31,42.66,19.48,39,51-2.27,19.76-15.6,57.68-45.66,58.5Z"/><path id="_Path_15" data-name="&lt;Path&gt;" class="cls-13" d="M189.35,117.47c-4.43,7.08-6.64,18.56-7.65,26a7.45,7.45,0,0,1,6.54-.36,8.9,8.9,0,0,1,1,.43h0l.45.26.45.27.47.33.33.25c.18.14.36.29.54.44l.41.39.41.41.38.43.37.46c.24.31.47.64.69,1,0,0,0,.05,0,.08s.08.15.13.23a1.2,1.2,0,0,0,.07.14s0,.1.08.15a.29.29,0,0,1,0,.07l0,.07,0,.05a.37.37,0,0,1,0,.09l-2.55,13.34a6.09,6.09,0,0,0,.57,4.75,7.39,7.39,0,0,0,.49.79,9.71,9.71,0,0,0,3.84,2c3.48.67,7.54-1.52,8.21-5l.91-4.77a7,7,0,0,1,7.65-5.68l1.23.15c1.13-5.41,1.91-9.73,2.37-12.41.58-3.33,2.23-5.28,9.72-4.62l.22,0c.65.06,1.35.14,2.1.24l.16,0c1.29.18,2.71.42,4.28.72L267,144.56l.41,0c1.52-.13,7-.84,10.44-4.55,3.16-3.41,3.15-6.33,3.15-6.33l-9.35-1.79s3.41-1.93,6.35-7.18a45.06,45.06,0,0,0,4.1-9.83l-15.5-3S253.21,97.64,235.69,95.8c-27.62-2.91-39.94,12.84-39.94,12.84a29.84,29.84,0,0,0-11.35-4.33C187.15,109.09,188.88,111.29,189.35,117.47Z"/><path id="_Path_16" data-name="&lt;Path&gt;" class="cls-14" d="M228.92,137.38c1.29.18,2.71.42,4.28.72L267,144.56l.41,0c1.52-.13,7-.84,10.44-4.55,3.16-3.41,3.15-6.33,3.15-6.33s-9.77,7.52-15.09,7.46h-.42C260.06,140.92,236.63,138.27,228.92,137.38Z"/><path id="_Path_17" data-name="&lt;Path&gt;" class="cls-14" d="M282.06,114.85s-8.63,12.53-17.77,14.38c-7.77,1.57-43.16-4-43.16-4a61.12,61.12,0,0,0,10.41,4.69c3.14.95,33.9,7.83,40.06,2A30.71,30.71,0,0,0,282.06,114.85Z"/><g id="_Group_" data-name="&lt;Group&gt;"><line id="_Path_18" data-name="&lt;Path&gt;" class="cls-13" x1="267.1" y1="156.06" x2="255.56" y2="155.85"/><path id="_Path_19" data-name="&lt;Path&gt;" class="cls-13" d="M267.44,158a1.92,1.92,0,0,0-.3-3.82l-11.54-.21a1.92,1.92,0,0,0-.07,3.85l11.54.21A2,2,0,0,0,267.44,158Z"/></g><g id="_Group_2" data-name="&lt;Group&gt;"><line id="_Path_20" data-name="&lt;Path&gt;" class="cls-13" x1="235" y1="151.18" x2="223.77" y2="148.51"/><path id="_Path_21" data-name="&lt;Path&gt;" class="cls-13" d="M235.8,149.43a1.92,1.92,0,0,1-1.24,3.63l-11.23-2.67a1.92,1.92,0,0,1,.89-3.74l11.23,2.67A2,2,0,0,1,235.8,149.43Z"/></g><circle id="_Path_22" data-name="&lt;Path&gt;" cx="228.51" cy="162.05" r="2.6" transform="translate(26.42 356.06) rotate(-79.17)"/><circle id="_Path_23" data-name="&lt;Path&gt;" cx="258.01" cy="168.6" r="2.6" transform="translate(43.94 390.34) rotate(-79.17)"/><polygon id="_Path_24" data-name="&lt;Path&gt;" class="cls-15" points="242.61 163.57 239.17 179.67 244.1 179.79 242.61 163.57"/><path id="_Path_25" data-name="&lt;Path&gt;" class="cls-16" d="M218.33,163.68a13.56,13.56,0,0,0,7.46,3.84h0a14.56,14.56,0,0,0,8.35-.82"/><path id="_Path_26" data-name="&lt;Path&gt;" class="cls-16" d="M249.74,169.68a13.56,13.56,0,0,0,7.46,3.84h0a14.56,14.56,0,0,0,8.35-.82"/><g id="_Group_3" data-name="&lt;Group&gt;"><path id="_Path_27" data-name="&lt;Path&gt;" class="cls-12" d="M194.23,148.34s-.64-2.86-4.18-6.46c-7-7.16-17.32-4.42-15.57,5.89,1.23,7.19,2.33,24.62,8.71,19.64C188.09,163.6,192.33,157.16,194.23,148.34Z"/><polygon id="_Path_28" data-name="&lt;Path&gt;" class="cls-15" points="187.81 148.13 177.52 144.3 182.75 160.42 182.35 147.88 187.81 148.13"/></g><line class="cls-17" x1="226.5" y1="190.59" x2="248.07" y2="201.5"/><path class="cls-18" d="M267.1,359.69s-13.85,20.69-3.68,38,89.3,10,76.38,65.15"/><polygon class="cls-10" points="263.43 357.76 259.47 365.81 265.96 368.96 269.99 362.28 263.43 357.76"/><rect id="_Rectangle_9" data-name="&lt;Rectangle&gt;" class="cls-5" x="452.49" y="294.81" width="23.64" height="90.65" rx="4.88" ry="4.88" transform="translate(165.67 832.17) rotate(-94.97)"/><path id="_Path_29" data-name="&lt;Path&gt;" class="cls-5" d="M437.86,355.36l-24,8.74s-19.12-4.09-25.11-8.65c-7-5.3-10.75-16.1-11.31-18.15-1.52-5.48,32.57.32,32.57.32L422,332Z"/><rect id="_Rectangle_10" data-name="&lt;Rectangle&gt;" class="cls-19" x="500.5" y="234.42" width="29.41" height="122.54" rx="14.7" ry="14.7" transform="translate(1082.69 120.08) rotate(132.95)"/><path id="_Path_30" data-name="&lt;Path&gt;" class="cls-20" d="M443.91,328.1l3.45,29.21,103.36-13A14.7,14.7,0,0,0,563.61,328h0a14.7,14.7,0,0,0-16.33-12.88Z"/><rect id="_Rectangle_11" data-name="&lt;Rectangle&gt;" class="cls-6" x="417.43" y="331.76" width="39.31" height="20.75" transform="translate(134.11 807.21) rotate(-94.97)"/><path id="_Path_31" data-name="&lt;Path&gt;" class="cls-19" d="M556.72,208.72,481,248.65a23,23,0,0,0-9.59,31L551.19,430.9a37.78,37.78,0,0,0,51.34,15.64l47-25.31a37.78,37.78,0,0,0,15.68-50.53L586.69,218A22.19,22.19,0,0,0,556.72,208.72Z"/><polygon id="_Path_32" data-name="&lt;Path&gt;" class="cls-2" points="542.68 216.12 552.21 225.79 547.73 240.22 555.63 245.56 544.87 325.99 497.51 276 498.62 265.62 490.5 258.32 491.68 243.02 542.68 216.12"/><polygon id="_Path_33" data-name="&lt;Path&gt;" class="cls-21" points="495.62 240.94 538.54 304.54 536.01 219.64 495.62 240.94"/><polygon id="_Path_34" data-name="&lt;Path&gt;" class="cls-9" points="521.29 249.54 537.73 277.13 538.54 304.54 523.21 281.82 517.38 250.5 521.29 249.54"/><ellipse id="_Path_35" data-name="&lt;Path&gt;" class="cls-2" cx="523.12" cy="322.38" rx="4.79" ry="5.93" transform="translate(-89.98 281.23) rotate(-27.8)"/><ellipse id="_Path_36" data-name="&lt;Path&gt;" class="cls-2" cx="538.23" cy="351.04" rx="4.79" ry="5.93" transform="translate(-101.6 291.59) rotate(-27.8)"/><path id="_Path_37" data-name="&lt;Path&gt;" class="cls-5" d="M502,200.77l.3-.16a9.46,9.46,0,0,0-3.77,13L508.22,232c2.51,4.76,6.85,4.36,11.61,1.85l-.15.08c4.76-2.51,7.68-5.95,5.18-10.7l-9.71-18.41A9.74,9.74,0,0,0,502,200.77Z"/><rect class="cls-22" x="365.34" y="189.57" width="74.02" height="181.49" transform="translate(-86.25 238.73) rotate(-30)"/><polygon id="_Path_38" data-name="&lt;Path&gt;" class="cls-9" points="516.36 233.12 524.86 240.06 520.31 254.19 513.51 247.65 516.36 233.12"/><polygon id="_Path_39" data-name="&lt;Path&gt;" class="cls-23" points="536.01 219.64 522.53 218.37 516.36 233.12 530.63 244.76 536.01 219.64"/><polygon id="_Path_40" data-name="&lt;Path&gt;" class="cls-23" points="495.62 240.94 506.01 227.08 516.36 233.12 512.16 254.5 495.62 240.94"/><rect id="_Rectangle_12" data-name="&lt;Rectangle&gt;" class="cls-5" x="486.03" y="276.26" width="23.64" height="90.65" rx="4.88" ry="4.88" transform="translate(220.6 845.42) rotate(-94.97)"/><path id="_Path_41" data-name="&lt;Path&gt;" class="cls-5" d="M471.4,336.81l-24,8.74s-19.12-4.09-25.11-8.65c-7-5.3-10.75-16.1-11.31-18.15-1.52-5.48,32.57.32,32.57.32l11.92-5.66Z"/><rect id="_Rectangle_13" data-name="&lt;Rectangle&gt;" class="cls-20" x="561.26" y="203.81" width="29.41" height="122.54" rx="14.7" ry="14.7" transform="translate(1180.55 456.05) rotate(172.82)"/><path id="_Path_42" data-name="&lt;Path&gt;" class="cls-20" d="M477.46,309.55l3.45,29.21,103.36-13a14.7,14.7,0,0,0,12.88-16.33h0a14.7,14.7,0,0,0-16.33-12.88Z"/><rect id="_Rectangle_14" data-name="&lt;Rectangle&gt;" class="cls-6" x="450.97" y="313.21" width="39.31" height="20.75" transform="translate(189.03 820.47) rotate(-94.97)"/><path id="_Path_43" data-name="&lt;Path&gt;" class="cls-12" d="M479.74,216.39C510.53,218,526.9,195.3,531.93,167c5.3-29.76-14.63-54.39-38.77-54.47-27.47-.09-43.49,10.62-45.75,40.78-1.42,18.94,4.28,56.89,32.33,63Z"/><path id="_Path_44" data-name="&lt;Path&gt;" class="cls-24" d="M536,128.06c3,7.84,3.05,19.62,2.66,27.12a7.5,7.5,0,0,0-6.41-1.59,9,9,0,0,0-1,.24h0l-.5.17-.5.19-.52.24-.37.19-.62.34-.48.3-.48.33-.46.35-.46.38c-.3.26-.58.54-.86.83,0,0,0,.06,0,.08s-.11.14-.17.2l-.09.13-.11.13a.3.3,0,0,0,0,.07l0,.06,0,.05a.37.37,0,0,0,0,.08v13.68a6.13,6.13,0,0,1-1.46,4.59,7.44,7.44,0,0,1-.63.69,9.78,9.78,0,0,1-4.17,1.22c-3.57,0-7.17-2.93-7.17-6.5v-4.89a7.07,7.07,0,0,0-6.49-7.06l-1.24-.09c-.09-5.57-.05-10,0-12.73.06-3.4-1.21-5.65-8.74-6.41l-.22,0c-.66-.07-1.36-.12-2.12-.16H493c-1.31-.07-2.76-.1-4.37-.1H454.05l-.4-.1c-1.48-.41-6.75-2.15-9.47-6.48-2.48-4-1.92-6.85-1.92-6.85h9.59s-3-2.56-4.93-8.3a45.38,45.38,0,0,1-2.19-10.5h15.89s15.91-11.57,33.59-10.08c27.87,2.35,37.08,20.26,37.08,20.26A30.05,30.05,0,0,1,543.34,116C539.71,120.19,537.59,122,536,128.06Z"/><path id="_Path_45" data-name="&lt;Path&gt;" class="cls-25" d="M493,140.27c-1.31-.07-2.76-.1-4.37-.1H454.05l-.4-.1c-1.48-.41-6.75-2.15-9.47-6.48-2.48-4-1.92-6.85-1.92-6.85S450.51,136,455.79,137l.41.07C461.57,137.88,485.25,139.69,493,140.27Z"/><g id="_Group_4" data-name="&lt;Group&gt;"><line id="_Path_46" data-name="&lt;Path&gt;" class="cls-24" x1="458.8" y1="155.96" x2="469.69" y2="156.94"/><path id="_Path_47" data-name="&lt;Path&gt;" class="cls-24" d="M458.29,157.71a1.82,1.82,0,0,1,.67-3.57l10.89,1a1.82,1.82,0,1,1-.33,3.63l-10.89-1A1.85,1.85,0,0,1,458.29,157.71Z"/></g><g id="_Group_5" data-name="&lt;Group&gt;"><line id="_Path_48" data-name="&lt;Path&gt;" class="cls-24" x1="487.34" y1="157.02" x2="498.21" y2="155.88"/><path id="_Path_49" data-name="&lt;Path&gt;" class="cls-24" d="M486.8,155.27a1.82,1.82,0,0,0,.72,3.56l10.88-1.14a1.82,1.82,0,0,0-.38-3.63l-10.88,1.14A1.85,1.85,0,0,0,486.8,155.27Z"/></g><circle id="_Path_50" data-name="&lt;Path&gt;" cx="491.41" cy="167.96" r="2.46"/><circle id="_Path_51" data-name="&lt;Path&gt;" cx="465.09" cy="168.8" r="2.46"/><path id="_Path_52" data-name="&lt;Path&gt;" class="cls-25" d="M444.74,107.93s6.16,14,14.85,17.59c7.38,3,43.46,4.18,43.46,4.18a61.56,61.56,0,0,1-11.18,2.67c-3.28.34-35,1.34-40-5.63A30.93,30.93,0,0,1,444.74,107.93Z"/><g id="_Group_6" data-name="&lt;Group&gt;"><path id="_Path_53" data-name="&lt;Path&gt;" class="cls-12" d="M524.26,158.84s1.11-2.54,5-5.27c7.81-5.41,16.9-1,13.43,8.25-2.42,6.47-6.55,22.49-11.6,16.72C527.25,174.13,524.46,167.38,524.26,158.84Z"/><polygon id="_Path_54" data-name="&lt;Path&gt;" class="cls-15" points="530.26 159.78 540.52 158.06 532.79 172.12 535.39 160.53 530.26 159.78"/></g><polygon id="_Path_55" data-name="&lt;Path&gt;" class="cls-15" points="478.03 164.44 478.36 185.87 473.76 184.82 478.03 164.44"/><line class="cls-17" x1="488.95" y1="191.43" x2="467.63" y2="197.78"/><path class="cls-26" d="M442.21,362.33s22.16,24,11.66,34.69-38.4,28.63-7.74,54"/><polygon class="cls-22" points="446.35 359.69 450 364.1 442.22 369.83 437.86 364.76 446.35 359.69"/><line class="cls-27" x1="355.55" y1="190.02" x2="348.53" y2="179.4"/><line class="cls-27" x1="360.14" y1="189.04" x2="360.14" y2="171.68"/><line class="cls-27" x1="364.74" y1="189.86" x2="369.65" y2="179.57"/></g><polyline class="cls-28" points="383.71 118.92 369.08 138.45 392.51 135.09 371.61 162.99"/><polyline class="cls-28" points="329.61 64.88 327.87 105.41 356.86 78.81 354.37 136.71"/></svg>