<svg id="Layer_1" data-name="Layer 1" xmlns="http://www.w3.org/2000/svg" viewBox="0 0 708.66 481.89"><defs><style>.cls-1{fill:#ee4256;}.cls-2{fill:#ffe4cc;}.cls-3{fill:#6d9;}.cls-4{fill:#d5eff0;}.cls-33,.cls-5{opacity:0.07;}.cls-6{fill:#e5e5e4;}.cls-7{fill:#353560;}.cls-8{fill:#fff;}.cls-9{fill:#f37a54;}.cls-10{fill:#648ec9;}.cls-11{fill:#3952a0;}.cls-12{fill:#dde7ed;}.cls-13{fill:#515180;}.cls-14,.cls-15{fill:#f8ab8d;}.cls-15,.cls-18{fill-rule:evenodd;}.cls-16{fill:#8b6339;}.cls-17{fill:#754d24;}.cls-18,.cls-20{fill:#dc846a;}.cls-19{fill:#cecece;}.cls-21{fill:#aaa4ae;}.cls-22{fill:#5d5d5d;}.cls-23,.cls-29,.cls-38{fill:none;stroke-linecap:round;stroke-linejoin:round;}.cls-23,.cls-29{stroke:#dc846a;}.cls-24{fill:#a57c52;}.cls-25{fill:#c49a6c;}.cls-26{fill:#6c4e38;}.cls-27{fill:#493426;}.cls-28{fill:#979797;}.cls-29{stroke-width:1.37px;}.cls-30{fill:#19a4a4;}.cls-31{fill:#fec82b;}.cls-32{fill:#79cabb;}.cls-33{fill:#020202;}.cls-34{fill:#e7685d;}.cls-35{fill:#fdd8b8;}.cls-36{fill:#47476d;}.cls-37{fill:#54402b;}.cls-38{stroke:#db8369;}.cls-39{fill:#bfbfbf;}.cls-40{fill:#3f5aa8;}.cls-41{fill:#b3b2b3;}.cls-42{fill:#4d4e4e;}.cls-43{fill:#e2e2e2;}.cls-44{fill:#a09f9f;}.cls-45{fill:#070707;opacity:0.15;}.cls-46{fill:#29cc86;}.cls-47{fill:#fc5f51;}</style></defs><title>CS-L2-U8</title><polygon class="cls-1" points="125.1 340.26 -2.09 340.26 -2.09 175.59 145.3 175.59 125.1 340.26"/><circle class="cls-2" cx="268.67" cy="97.97" r="75.34"/><polygon class="cls-3" points="526.99 207.65 708.66 207.65 708.66 37.31 546.32 37.31 526.99 207.65"/><rect class="cls-4" x="390.31" y="172.51" width="105.82" height="226.94" rx="23.56" ry="23.56"/><path class="cls-5" d="M199.16,229.63l-27.27-25.85a5.92,5.92,0,0,0-1.5-1l-.12-.12,1.72-.15a5.93,5.93,0,0,0,4.05-2.19,10.16,10.16,0,0,0,1.92-3.78,30.28,30.28,0,0,0,6.67-12,17.46,17.46,0,0,0,.92-3.24l-.1.18a37.7,37.7,0,0,0,.88-5.57,27.1,27.1,0,0,0-.47-8A5.71,5.71,0,0,0,188,166.4a4.32,4.32,0,0,0,1.22-2.72l-4-.6a8.14,8.14,0,0,0,2.56-3.14h0a14.06,14.06,0,0,0,1.47-3.87c.06-.21.08-.33.08-.33h0l-6.59-1s-5.87-5.78-13.3-6.26c-11.7-.76-16.63,6.09-16.63,6.09a12.59,12.59,0,0,0-4.86-1.63c1.24,2,2,2.87,2.31,5.47a26.26,26.26,0,0,0-2.51,8.76c-2.13-.16-3.86,1.38-3.24,4.27s1.4,10.34,4,8.14l.17-.16A29.69,29.69,0,0,0,152.61,192l-1.64.26v.13a21.59,21.59,0,0,0-20,3.51l-27.82,12.58a6.32,6.32,0,0,0-4.57,10.19l7.79,26.06-13,29.09,1.53.29a7.49,7.49,0,0,0-.3,1.93l-1.17,55.58a7.78,7.78,0,0,0-.3.79L73.45,393.77l1.45.46-3.84,11-.36,1c0,.07,0,.14-.06.21a1.11,1.11,0,0,0-1.46,1l-.57,7.27v.06a2.2,2.2,0,0,0,2,2.36l32.63,2.55a1.11,1.11,0,0,0,1.19-1l.09-1.15.06-.73a2.89,2.89,0,0,0-1.94-3l-18.74-6.48a5.67,5.67,0,0,0-.87-.21l3.24-9.28,1.86.59,19.68-61.37h0a7.47,7.47,0,0,0,1-3.57l1-46.3,17.39.14,17.93,51.31v64h2.07v4.18a1.11,1.11,0,0,0-1.12,1.11v7.35a2.2,2.2,0,0,0,2.2,2.2H181a1.11,1.11,0,0,0,1.11-1.11v-1.88a2.89,2.89,0,0,0-2.17-2.8l-19.19-5a5.53,5.53,0,0,0-1.62-.16v-3.88h1.41V338c0-.09,0-.18,0-.27a7.68,7.68,0,0,0-.42-2.91l-17.82-51a7.86,7.86,0,0,0,.42-.74l1.69.32,30.27-56.06a22.21,22.21,0,0,0,1.17-3.3L189,236.45l-13.06,34.09,0,0-4,7.41,1.62.88-2,4.44s-9.87,6.41-7.79,7.42c.78.38,5.09,2.14,8.58,1.45,3-.6,9.4-5.32,9.4-5.32l1.14-2.9,3.08,1.68,4-7.41-3.41-1.86,15.14-39.49A6,6,0,0,0,199.16,229.63Zm-88.23-11.53,9.26-4.19L113.88,228Z"/><path class="cls-5" d="M607.17,138.68l21.74-28.19a5.67,5.67,0,0,0,1.62-4.72l-4.67-39.45,1.41-.22L626,58.19l-3.07.48.66-6.17s-3.31-6.8-5.58-8.62c-2.64-2.12-7-2.54-7.86-2.56-2.2-.06,3.3,9.69,3.3,9.69l0,.28a3.15,3.15,0,0,0-3.51.85,64.77,64.77,0,0,1,3,7.09l-.06,1-1.91.3,1.25,7.92,2.29-.36.32,2,4.1,34.65-19,24.58a13.09,13.09,0,0,0-7.33-2.23H588.2l-4.38-2.86-.09.07v-2.58c4.4-2.69,7.32-7.36,8.93-12.91a8.92,8.92,0,0,0,.56.71c2,2.23,3.55-4,4.49-6.46.78-2.09-.09-3.52-1.54-4,.07-2.83-.08-6.51-1.08-9.1.63-2.33,1.46-3,2.86-4.67a11.62,11.62,0,0,0-4.66.83s-3.56-6.93-14.34-7.83c-6.84-.58-13,3.9-13,3.9h-6.14s0,.11,0,.31a13,13,0,0,0,.82,3.73h0a7.51,7.51,0,0,0,1.91,3.21h-3.71a4,4,0,0,0,.74,2.65,5.64,5.64,0,0,0,2.27,2,25.57,25.57,0,0,0-1,5.69c-.55,7.32,1.65,22,12.5,24.38a20.92,20.92,0,0,0,3.11-.08v.22l-5.92,2.8h-1.72v0a13.93,13.93,0,0,0-13.07,10.44l-16.94,12.7-11.59-31.47,1.73-.4-1.81-7.82-.56.13,0-.15s-2.22-7.23-4.18-9.38c-2.28-2.5-6.56-3.6-7.37-3.75-2.16-.4,1.76,10.08,1.76,10.08l-1.26,5.74-3.24.75,1.81,7.82,1.92-.44,14.72,39.95a6.33,6.33,0,0,0,9.3,2.21l15.23-11.42v64.72h4.08l0,1.75L542.15,268a7.48,7.48,0,0,0-.41,3c0,.11,0,.22,0,.33v62.77h1.37v3.78a5.37,5.37,0,0,0-1.58.16l-18.68,4.87a2.82,2.82,0,0,0-2.11,2.73v1.83a1.08,1.08,0,0,0,1.08,1.08h31.87a2.14,2.14,0,0,0,2.14-2.14V339.2a1.08,1.08,0,0,0-1.09-1.08v-4.07h2V271.74L572,228.22l12.6-.1-8.14,32.43a13.13,13.13,0,0,0,.35,5.15l19.17,59.77,1.81-.57,3.15,9a5.49,5.49,0,0,0-.85.21l-18.25,6.31a2.82,2.82,0,0,0-1.89,2.89l.06.71.09,1.12a1.08,1.08,0,0,0,1.16,1L613,343.67a2.14,2.14,0,0,0,2-2.3v-.06l-.55-7.08a1.08,1.08,0,0,0-1.42-.94c0-.07,0-.14-.06-.2l-.35-1-3.74-10.71,1.41-.45-18.79-58.6,11.42-45.47h3V140.28c0-.12,0-.24,0-.36A5.63,5.63,0,0,0,607.17,138.68Z"/><path id="_Path_" data-name="&lt;Path&gt;" class="cls-6" d="M545.92,294.91h0a5.82,5.82,0,0,0-5.82,5.82v41.21a5.82,5.82,0,0,0,5.82,5.82h0a5.82,5.82,0,0,0,5.82-5.82V300.73A5.82,5.82,0,0,0,545.92,294.91Z"/><path id="_Path_2" data-name="&lt;Path&gt;" class="cls-6" d="M588.94,292.62h0a5.82,5.82,0,0,0-3.58,7.41l13.58,38.91a5.82,5.82,0,0,0,7.41,3.58h0a5.82,5.82,0,0,0,3.58-7.41l-.35-1-13.22-37.9A5.82,5.82,0,0,0,588.94,292.62Z"/><rect id="_Rectangle_" data-name="&lt;Rectangle&gt;" class="cls-7" x="579.92" y="202.44" width="15.01" height="70.27" rx="7.51" ry="7.51" transform="translate(75.53 -135.88) rotate(14.09)"/><path id="_Rectangle_2" data-name="&lt;Rectangle&gt;" class="cls-7" d="M546.24,265.78h0a7.51,7.51,0,0,1,7.51,7.51v62.77a0,0,0,0,1,0,0h-15a0,0,0,0,1,0,0V273.28a7.51,7.51,0,0,1,7.51-7.51Z"/><path id="_Path_3" data-name="&lt;Path&gt;" class="cls-7" d="M567,213.22h0a7.51,7.51,0,0,0-9.58,4.58L539.15,270a7.51,7.51,0,0,0,4.59,9.56h0a7.51,7.51,0,0,0,9.58-4.6l18.22-52.15A7.51,7.51,0,0,0,567,213.22Z"/><path id="_Path_4" data-name="&lt;Path&gt;" class="cls-7" d="M578.65,258.28h0a7.51,7.51,0,0,0-4.88,9.43l19.17,59.77,14.31-4.54-19.17-59.77A7.51,7.51,0,0,0,578.65,258.28Z"/><circle class="cls-8" cx="588.83" cy="195.68" r="2.31"/><rect class="cls-9" x="578.46" y="201.62" width="16.42" height="24.99"/><rect id="_Rectangle_3" data-name="&lt;Rectangle&gt;" class="cls-10" x="542.37" y="126.52" width="11.37" height="47.38" rx="5.69" ry="5.69" transform="matrix(0.6, 0.8, -0.8, 0.6, 339.44, -378.38)"/><path id="_Path_5" data-name="&lt;Path&gt;" class="cls-7" d="M598.23,209.27l-42,.34.25,13.49a7.22,7.22,0,0,0,7.28,7.16l27.59-.22a7.22,7.22,0,0,0,7.16-7.28Z"/><path id="_Rectangle_4" data-name="&lt;Rectangle&gt;" class="cls-11" d="M566.18,129.13h23.49a13.15,13.15,0,0,1,13.15,13.15v76.58a0,0,0,0,1,0,0H552.29a0,0,0,0,1,0,0V143A13.89,13.89,0,0,1,566.18,129.13Z"/><polygon id="_Path_6" data-name="&lt;Path&gt;" class="cls-10" points="588.12 129.13 589.63 134.15 585.5 138.28 587.24 141.53 569.05 167.1 561.87 141.46 564.12 138.11 562.66 134.15 565.82 129.13 588.12 129.13"/><polygon id="_Path_7" data-name="&lt;Path&gt;" class="cls-12" points="567.54 129.13 570.75 158.62 585.2 129.13 567.54 129.13"/><polygon id="_Path_8" data-name="&lt;Path&gt;" class="cls-13" points="574.77 136.7 575.42 149.1 570.75 158.62 569.61 148.08 573.26 136.32 574.77 136.7"/><ellipse id="_Path_9" data-name="&lt;Path&gt;" class="cls-10" cx="572.51" cy="180.94" rx="2.35" ry="2.9"/><ellipse id="_Path_10" data-name="&lt;Path&gt;" class="cls-10" cx="572.51" cy="196.82" rx="2.35" ry="2.9"/><rect id="_Rectangle_5" data-name="&lt;Rectangle&gt;" class="cls-10" x="581.62" y="190.49" width="11.23" height="4.16" transform="translate(1174.47 385.15) rotate(180)"/><path id="_Path_11" data-name="&lt;Path&gt;" class="cls-14" d="M577,116.54h.13a3.66,3.66,0,0,0-3.64,3.77v8c0,2.08,1.56,2.73,3.64,2.73H577c2.08,0,3.7-.65,3.7-2.73v-8A3.77,3.77,0,0,0,577,116.54Z"/><path id="_Path_12" data-name="&lt;Path&gt;" class="cls-15" d="M570.35,126.19c11.9.64,18.23-8.16,20.18-19.08,2-11.51-5.66-21-15-21.06-10.62,0-16.82,4.11-17.69,15.77-.55,7.32,1.65,22,12.5,24.38Z"/><path id="_Path_13" data-name="&lt;Path&gt;" class="cls-16" d="M592.08,92c1.18,3,1.18,7.59,1,10.49a2.9,2.9,0,0,0-2.48-.62l-.39.09h0l-.19.07-.19.07-.2.09-.14.07-.24.13-.19.12-.19.13-.18.14-.18.15-.33.32s0,0,0,0l-.07.08,0,0,0,.05,0,0,0,0v5.34a2.37,2.37,0,0,1-.56,1.78,2.88,2.88,0,0,1-.24.27,3.78,3.78,0,0,1-1.61.47,2.76,2.76,0,0,1-2.77-2.51V107a2.73,2.73,0,0,0-2.51-2.73l-.48,0c0-2.15,0-3.86,0-4.92,0-1.31-.47-2.18-3.38-2.48h-.08l-.82-.06h-.06c-.51,0-1.07,0-1.69,0H560.42l-.15,0a6.61,6.61,0,0,1-3.66-2.51,4,4,0,0,1-.74-2.65h3.71a7.51,7.51,0,0,1-1.91-3.21,17.55,17.55,0,0,1-.85-4.06H563s6.15-4.47,13-3.9c10.78.91,14.34,7.83,14.34,7.83a11.62,11.62,0,0,1,4.66-.83C593.54,89,592.72,89.7,592.08,92Z"/><path id="_Path_14" data-name="&lt;Path&gt;" class="cls-17" d="M575.49,96.76c-.51,0-1.07,0-1.69,0H560.42l-.15,0a6.61,6.61,0,0,1-3.66-2.51,4,4,0,0,1-.74-2.65s3.19,3.59,5.23,4l.16,0C563.32,95.83,572.48,96.53,575.49,96.76Z"/><g id="_Group_" data-name="&lt;Group&gt;"><line id="_Path_15" data-name="&lt;Path&gt;" class="cls-16" x1="562.19" y1="102.3" x2="566.41" y2="102.09"/><path id="_Path_16" data-name="&lt;Path&gt;" class="cls-16" d="M562.09,103a.7.7,0,0,1,.06-1.4l4.22-.21a.7.7,0,1,1,.07,1.41l-4.22.21Z"/></g><g id="_Group_2" data-name="&lt;Group&gt;"><line id="_Path_17" data-name="&lt;Path&gt;" class="cls-16" x1="573.22" y1="102.09" x2="577.44" y2="102.3"/><path id="_Path_18" data-name="&lt;Path&gt;" class="cls-16" d="M573.12,101.39a.7.7,0,0,0,.06,1.4l4.22.21a.7.7,0,0,0,.07-1.41l-4.22-.21Z"/></g><path id="_Path_19" data-name="&lt;Path&gt;" class="cls-17" d="M556.82,84.25s2.38,5.42,5.74,6.8c2.86,1.17,16.8,1.62,16.8,1.62a23.8,23.8,0,0,1-4.32,1c-1.27.13-13.54.52-15.47-2.18A12,12,0,0,1,556.82,84.25Z"/><g id="_Group_3" data-name="&lt;Group&gt;"><path id="_Path_20" data-name="&lt;Path&gt;" class="cls-15" d="M587.56,103.93a5.6,5.6,0,0,1,1.95-2c3-2.09,6.53-.4,5.19,3.19-.94,2.5-2.53,8.69-4.49,6.46A11.89,11.89,0,0,1,587.56,103.93Z"/><polygon id="_Path_21" data-name="&lt;Path&gt;" class="cls-18" points="589.88 104.3 593.85 103.63 590.86 109.07 591.87 104.59 589.88 104.3"/></g><polygon id="_Path_22" data-name="&lt;Path&gt;" class="cls-18" points="569.69 106.1 569.82 114.38 568.04 113.98 569.69 106.1"/><polygon id="_Path_23" data-name="&lt;Path&gt;" class="cls-13" points="576.05 130.19 577.71 134.1 573.6 138.11 572.45 134.65 576.05 130.19"/><polygon id="_Path_24" data-name="&lt;Path&gt;" class="cls-19" points="585.2 129.13 580.82 126.26 576.05 130.19 578.83 136.75 585.2 129.13"/><polygon id="_Path_25" data-name="&lt;Path&gt;" class="cls-19" points="567.54 129.13 573.6 126.26 576.05 130.19 570.75 136.75 567.54 129.13"/><path id="_Path_26" data-name="&lt;Path&gt;" class="cls-20" d="M610.53,62.74a82.69,82.69,0,0,0-3.58-8.61c2.68-2.89,6.5,1.05,6.5,1.05Z"/><rect id="_Rectangle_6" data-name="&lt;Rectangle&gt;" class="cls-14" x="612.13" y="55.99" width="9.14" height="35.05" rx="4.57" ry="4.57" transform="translate(1237.33 50.39) rotate(171.07)"/><path id="_Path_27" data-name="&lt;Path&gt;" class="cls-14" d="M619.56,64.3l1.05-9.81s-3.31-6.8-5.58-8.62c-2.64-2.12-7-2.54-7.86-2.56-2.2-.06,3.3,9.69,3.3,9.69l-.59,9.78Z"/><path id="_Path_28" data-name="&lt;Path&gt;" class="cls-10" d="M611.5,69.19l11.28-1.42,4.73,40a5.69,5.69,0,0,1-4.93,6.35h0a5.69,5.69,0,0,1-6.35-4.93Z"/><rect id="_Rectangle_7" data-name="&lt;Rectangle&gt;" class="cls-12" x="608.53" y="61.32" width="15.2" height="8.02" transform="translate(1234.94 34.2) rotate(171.07)"/><rect id="_Rectangle_8" data-name="&lt;Rectangle&gt;" class="cls-10" x="604.97" y="99.26" width="11.37" height="47.38" rx="5.69" ry="5.69" transform="translate(202.15 -347.3) rotate(37.64)"/><rect id="_Rectangle_9" data-name="&lt;Rectangle&gt;" class="cls-14" x="516.75" y="112.95" width="9.14" height="35.05" rx="4.57" ry="4.57" transform="translate(1052.35 47.97) rotate(157.12)"/><path id="_Path_29" data-name="&lt;Path&gt;" class="cls-14" d="M521.05,122.11l2.56-9.53s-2.22-7.23-4.18-9.38c-2.28-2.5-6.56-3.6-7.37-3.75-2.16-.4,1.76,10.08,1.76,10.08l-2.1,9.57Z"/><path id="_Path_30" data-name="&lt;Path&gt;" class="cls-10" d="M512.1,120.85l10.61-4.09,15.66,42.51a5.69,5.69,0,0,1-3.26,7.35h0a5.69,5.69,0,0,1-7.35-3.26Z"/><rect id="_Rectangle_10" data-name="&lt;Rectangle&gt;" class="cls-12" x="510.03" y="114.22" width="15.2" height="8.02" transform="translate(1048.58 116.82) rotate(166.98)"/><path id="_Path_31" data-name="&lt;Path&gt;" class="cls-21" d="M552.82,341.2v7.1H517.72v-.71a2.82,2.82,0,0,1,2.11-2.73L538.52,340a5.21,5.21,0,0,1,2.62,0,19.22,19.22,0,0,0,10.29.18A1.08,1.08,0,0,1,552.82,341.2Z"/><path id="_Path_32" data-name="&lt;Path&gt;" class="cls-22" d="M552.82,348.3v.06a2.14,2.14,0,0,1-2.14,2.14H518.8a1.08,1.08,0,0,1-1.08-1.08V348.3Z"/><path id="_Path_33" data-name="&lt;Path&gt;" class="cls-21" d="M611.4,336.24l.55,7.08L577,346l-.06-.71a2.82,2.82,0,0,1,1.89-2.89L597,336.15a5.21,5.21,0,0,1,2.61-.22,19.22,19.22,0,0,0,10.28-.62A1.08,1.08,0,0,1,611.4,336.24Z"/><path id="_Path_34" data-name="&lt;Path&gt;" class="cls-22" d="M612,343.32v.06a2.14,2.14,0,0,1-2,2.3l-31.78,2.48a1.08,1.08,0,0,1-1.16-1L577,346Z"/><path id="_Path_35" data-name="&lt;Path&gt;" class="cls-23" d="M560.93,106.76a5,5,0,0,1,3-.82h0a5.38,5.38,0,0,1,3,.93"/><path id="_Path_36" data-name="&lt;Path&gt;" class="cls-23" d="M572.75,107a5,5,0,0,1,3-.82h0a5.38,5.38,0,0,1,3,.93"/><path id="_Path_37" data-name="&lt;Path&gt;" class="cls-8" d="M570,120.23c2.83,0,5.32-1.53,5.32-3.28v-.41H564.36v.41c0,1.59,1.66,3.28,4.75,3.28Z"/><rect id="_Rectangle_11" data-name="&lt;Rectangle&gt;" class="cls-24" x="178.54" y="197.23" width="11.96" height="49.84" rx="5.98" ry="5.98" transform="translate(-103.65 203.19) rotate(-46.52)"/><path id="_Path_38" data-name="&lt;Path&gt;" class="cls-14" d="M188.42,278.14l-3.8,9.66s-6.4,4.72-9.4,5.32c-3.49.69-7.8-1.07-8.58-1.45-2.08-1,7.79-7.42,7.79-7.42l4.21-9.4Z"/><path id="_Path_39" data-name="&lt;Path&gt;" class="cls-24" d="M189.46,277.39l-11.2-4.2,15.16-39.56a6,6,0,0,1,7.7-3.5h0a6,6,0,0,1,3.5,7.7Z"/><rect id="_Rectangle_12" data-name="&lt;Rectangle&gt;" class="cls-8" x="175.86" y="274.83" width="15.99" height="8.44" transform="translate(156.29 -53.98) rotate(28.65)"/><path id="_Path_40" data-name="&lt;Path&gt;" class="cls-6" d="M156.15,361.38h0a6,6,0,0,1,6,6v42.31a6,6,0,0,1-6,6h0a6,6,0,0,1-6-6V367.35A6,6,0,0,1,156.15,361.38Z"/><rect id="_Rectangle_13" data-name="&lt;Rectangle&gt;" class="cls-24" x="97" y="269.68" width="15.42" height="72.16" rx="7.51" ry="7.51" transform="translate(202.97 613.66) rotate(-178.79)"/><path id="_Rectangle_14" data-name="&lt;Rectangle&gt;" class="cls-24" d="M148.11,331.47h15.42a0,0,0,0,1,0,0v64.65a7.51,7.51,0,0,1-7.51,7.51h-.4a7.51,7.51,0,0,1-7.51-7.51V331.47A0,0,0,0,1,148.11,331.47Z" transform="translate(311.64 735.09) rotate(-180)"/><path id="_Path_41" data-name="&lt;Path&gt;" class="cls-24" d="M134.54,277.49h0a7.71,7.71,0,0,1,9.83,4.71l18.72,53.59a7.71,7.71,0,0,1-4.71,9.81h0a7.71,7.71,0,0,1-9.84-4.73l-18.71-53.55A7.71,7.71,0,0,1,134.54,277.49Z"/><path id="_Path_42" data-name="&lt;Path&gt;" class="cls-21" d="M149.06,408.92v7.29h36v-.73a2.89,2.89,0,0,0-2.17-2.8l-19.19-5a5.35,5.35,0,0,0-2.69,0,19.73,19.73,0,0,1-10.57.19A1.11,1.11,0,0,0,149.06,408.92Z"/><path id="_Path_43" data-name="&lt;Path&gt;" class="cls-22" d="M149.06,416.2v.06a2.2,2.2,0,0,0,2.2,2.2H184a1.11,1.11,0,0,0,1.11-1.11V416.2Z"/><path id="_Path_44" data-name="&lt;Path&gt;" class="cls-6" d="M95.25,363.64h0a6,6,0,0,1,3.67,7.61L85,411.2a6,6,0,0,1-7.61,3.67h0a6,6,0,0,1-3.67-7.61l.36-1,13.58-38.91A6,6,0,0,1,95.25,363.64Z"/><path id="_Path_45" data-name="&lt;Path&gt;" class="cls-24" d="M105.81,328.39h0a7.71,7.71,0,0,1,5,9.68L91.15,399.44l-14.69-4.67L96.13,333.4A7.71,7.71,0,0,1,105.81,328.39Z"/><path id="_Path_46" data-name="&lt;Path&gt;" class="cls-21" d="M72.18,408.44l-.57,7.27,35.93,2.81.06-.73a2.89,2.89,0,0,0-1.94-3l-18.74-6.48a5.35,5.35,0,0,0-2.68-.22,19.73,19.73,0,0,1-10.55-.63A1.11,1.11,0,0,0,72.18,408.44Z"/><path id="_Path_47" data-name="&lt;Path&gt;" class="cls-22" d="M71.62,415.7v.06a2.2,2.2,0,0,0,2,2.37l32.63,2.55a1.11,1.11,0,0,0,1.19-1l.09-1.15Z"/><path id="_Path_48" data-name="&lt;Path&gt;" class="cls-24" d="M100.92,265.48l45.89.37-.27,14.73a7.88,7.88,0,0,1-7.95,7.82l-30.12-.24a7.88,7.88,0,0,1-7.82-7.95Z"/><path id="_Path_49" data-name="&lt;Path&gt;" class="cls-25" d="M156.1,194.22l10.31,4.61a22.37,22.37,0,0,1,11.24,29.47l-30.27,56.06-51-9.54,31.2-69.72A21.58,21.58,0,0,1,156.1,194.22Z"/><polygon id="_Path_50" data-name="&lt;Path&gt;" class="cls-8" points="171.56 201.14 155.21 229.1 153.97 193.26 171.56 201.14"/><path id="_Path_51" data-name="&lt;Path&gt;" class="cls-14" d="M167.71,184.26l-.13-.06a4,4,0,0,1,1.93,5.34l-3.56,8c-.92,2.06-2.75,2-4.81,1.09l.06,0c-2.06-.92-3.37-2.28-2.45-4.34l3.56-8A4.08,4.08,0,0,1,167.71,184.26Z"/><polygon id="_Path_52" data-name="&lt;Path&gt;" class="cls-6" points="153.97 193.26 159.61 192.36 162.61 198.41 156.91 203.7 153.97 193.26"/><polygon id="_Path_53" data-name="&lt;Path&gt;" class="cls-6" points="171.56 201.14 166.81 195.58 162.61 198.41 164.96 207.3 171.56 201.14"/><polygon id="_Path_54" data-name="&lt;Path&gt;" class="cls-13" points="162.61 198.41 159.22 201.56 161.52 207.39 164.21 204.45 162.61 198.41"/><polygon id="_Path_55" data-name="&lt;Path&gt;" class="cls-13" points="160.98 205.46 154.81 217.53 155.21 229.1 161.05 219.11 162.66 205.76 160.98 205.46"/><path id="_Path_56" data-name="&lt;Path&gt;" class="cls-15" d="M171.07,202.32c-13.57-1.3-19.24-12.32-19.59-25-.37-13.36,10-22.82,20.53-21.27,12,1.76,18.32,7.5,17.33,20.83-.62,8.37-5.6,24.59-18.27,25.45Z"/><path id="_Path_57" data-name="&lt;Path&gt;" class="cls-26" d="M153.26,159.41c-1.75,3.06-2.49,7.94-2.79,11.08a3.14,3.14,0,0,1,2.75-.26l.41.16h0l.2.1.19.11.2.13.14.1.23.18.18.16.18.17.17.18.17.19c.11.13.21.26.31.4v0l.06.09,0,.06,0,.06v.08a.16.16,0,0,1,0,0l-.85,5.67a2.57,2.57,0,0,0,.32,2,3.12,3.12,0,0,0,.22.33,4.1,4.1,0,0,0,1.65.76,3,3,0,0,0,3.38-2.25l.3-2a3,3,0,0,1,3.13-2.52l.52,0c.38-2.3.64-4.13.79-5.27.19-1.41.85-2.27,4-2.11h.09l.89.07h.07c.55.05,1.15.13,1.82.23l14.35,2.15.17,0a7.16,7.16,0,0,0,4.33-2.1,4.32,4.32,0,0,0,1.22-2.72l-4-.6a8.14,8.14,0,0,0,2.56-3.14,19,19,0,0,0,1.56-4.22l-6.59-1s-5.87-5.78-13.3-6.27c-11.7-.76-16.63,6.09-16.63,6.09a12.6,12.6,0,0,0-4.86-1.63C152.19,155.91,153,156.81,153.26,159.41Z"/><path id="_Path_58" data-name="&lt;Path&gt;" class="cls-27" d="M170.29,167.14c.55.05,1.15.13,1.82.23l14.35,2.15.17,0a7.16,7.16,0,0,0,4.33-2.1,4.32,4.32,0,0,0,1.22-2.72s-4,3.34-6.24,3.4h-.18C183.48,168.1,173.56,167.38,170.29,167.14Z"/><path id="_Path_59" data-name="&lt;Path&gt;" class="cls-26" d="M163.95,188.43l0,2.1.05,4.74v1.57c.07,4.19,3.07,7.33,6.69,7l4.27-.36a5.93,5.93,0,0,0,4.05-2.19,10.8,10.8,0,0,0,2.2-4.88l.79-6.72c0-1.83-.39-2.58-1.94-2.8L167,185l-.32,0A3.35,3.35,0,0,0,163.95,188.43Z"/><path id="_Path_60" data-name="&lt;Path&gt;" class="cls-27" d="M192.32,156.73s-3.43,5.43-7.25,6.37c-3.25.79-18.27-1-18.27-1a25.8,25.8,0,0,0,4.47,1.8c1.34.35,14.43,2.73,16.93.15A13,13,0,0,0,192.32,156.73Z"/><path id="_Path_61" data-name="&lt;Path&gt;" class="cls-26" d="M155.45,180.44a13.14,13.14,0,0,0,2,2.07c2.67,2.41,6.51,5.39,6.88,10.92v0c.17,2.66.74,2.45,1.34,1,1-2.44,2.12-8.45,1.4-9.7h0c-2.54-.38-7-2.75-6.56-5.84S152.86,177.3,155.45,180.44Z"/><path id="_Path_62" data-name="&lt;Path&gt;" class="cls-26" d="M181.31,195.62c.34-2.92,5.84-5.63,7.25-13.36a7.91,7.91,0,0,1-8.43,4.51C179,187.79,180.95,193.25,181.31,195.62Z"/><path id="_Path_63" data-name="&lt;Path&gt;" class="cls-27" d="M157.41,182.51c2.61,2.78,6.38,6.21,6.61,12.76v1.57c.07,4.19,3.07,7.33,6.69,7l4.27-.36a5.93,5.93,0,0,0,4.05-2.19,25.11,25.11,0,0,1-6.74.78c-3.13-.19-6.7-1.79-7-5.59h0a22.07,22.07,0,0,0-1.37-6C162.77,187.33,160.69,184.06,157.41,182.51Z"/><g id="_Group_4" data-name="&lt;Group&gt;"><line id="_Path_64" data-name="&lt;Path&gt;" class="cls-28" x1="184.52" y1="173.56" x2="179.86" y2="175"/><path id="_Path_65" data-name="&lt;Path&gt;" class="cls-26" d="M184.9,174.28a.81.81,0,0,0-.62-1.49l-4.66,1.44a.81.81,0,0,0,.48,1.55l4.66-1.44Z"/></g><g id="_Group_5" data-name="&lt;Group&gt;"><line id="_Path_66" data-name="&lt;Path&gt;" class="cls-28" x1="174.16" y1="174.89" x2="169.9" y2="172.51"/><path id="_Path_67" data-name="&lt;Path&gt;" class="cls-26" d="M174.68,174.27a.81.81,0,0,1-.92,1.33l-4.25-2.38a.81.81,0,0,1,.79-1.42l4.25,2.38Z"/></g><circle id="_Path_68" data-name="&lt;Path&gt;" cx="170.53" cy="177.55" r="1.1" transform="translate(-30.35 319.86) rotate(-81.47)"/><circle id="_Path_69" data-name="&lt;Path&gt;" cx="183.09" cy="179.81" r="1.1" transform="translate(-21.9 334.2) rotate(-81.47)"/><polygon id="_Path_70" data-name="&lt;Path&gt;" class="cls-18" points="176.51 177.95 175.33 184.8 177.41 184.77 176.51 177.95"/><path id="_Path_71" data-name="&lt;Path&gt;" class="cls-29" d="M166.27,178.41a5.72,5.72,0,0,0,3.21,1.49h0a6.15,6.15,0,0,0,3.51-.49"/><path id="_Path_72" data-name="&lt;Path&gt;" class="cls-29" d="M179.62,180.41a5.72,5.72,0,0,0,3.21,1.49h0a6.15,6.15,0,0,0,3.51-.49"/><g id="_Group_6" data-name="&lt;Group&gt;"><path id="_Path_73" data-name="&lt;Path&gt;" class="cls-15" d="M155.84,172.35a6.45,6.45,0,0,0-1.87-2.65c-3.08-2.9-7.38-1.57-6.47,2.75.64,3,1.4,10.34,4,8.14A13.7,13.7,0,0,0,155.84,172.35Z"/><polygon id="_Path_74" data-name="&lt;Path&gt;" class="cls-18" points="153.13 172.36 148.73 170.92 151.2 177.63 150.82 172.35 153.13 172.36"/></g><rect id="_Rectangle_15" data-name="&lt;Rectangle&gt;" class="cls-24" x="117.59" y="183.26" width="11.96" height="49.84" rx="5.98" ry="5.98" transform="translate(-15.25 406.53) rotate(-114.32)"/><path id="_Path_75" data-name="&lt;Path&gt;" class="cls-24" d="M113,257.71l11.48-3.34-12.14-40.59a6,6,0,0,0-7.41-4.07h0a6,6,0,0,0-4.07,7.41Z"/><path id="_Path_76" data-name="&lt;Path&gt;" class="cls-14" d="M114,258.54l3.06,9.92s6,5.19,9,6c3.43,1,7.86-.47,8.66-.79,2.15-.86-7.21-8-7.21-8L123.95,256Z"/><rect id="_Rectangle_16" data-name="&lt;Rectangle&gt;" class="cls-8" x="110.45" y="255.57" width="15.99" height="8.44" transform="translate(333.38 447.74) rotate(155.68)"/><path class="cls-20" d="M168,193l11,1.87c.31.05.57-.1.54-.32L179,191a.48.48,0,0,0-.42-.34l-8.84-1.51a.48.48,0,0,0-.51.18l-1.59,3.12C167.49,192.67,167.69,192.9,168,193Z"/><rect class="cls-8" x="169.24" y="189.93" width="9.58" height="1.9" transform="translate(313.55 408.27) rotate(-170.33)"/><rect class="cls-8" x="168.89" y="191.97" width="9.58" height="1.94" transform="translate(312.51 412.3) rotate(-170.33)"/><path class="cls-30" d="M249.09,116.61a6.42,6.42,0,0,0-5.66,4.05s-5.91,17.31-5.91,30.25c0,30.71,15.35,55.61,34.3,55.61s34.3-24.9,34.3-55.61c0-12.94-5.91-30.25-5.91-30.25a6.42,6.42,0,0,0-5.66-4.05Z"/><path class="cls-30" d="M302.67,190.27H242.55A11.59,11.59,0,0,0,231,201.86v8.21c0,.37,0,.72.05,1.08,11.26,5.24,25.81,8.36,41.89,8.36,15.79,0,30.09-3,41.27-8.07a11.34,11.34,0,0,0,.08-1.36v-8.21A11.59,11.59,0,0,0,302.67,190.27Z"/><path class="cls-31" d="M302.67,190.27H242.55A11.59,11.59,0,0,0,231,201.86v3.8c10.86,5.53,25.65,8.94,41.95,8.94,16,0,30.54-3.29,41.35-8.64v-4.1A11.59,11.59,0,0,0,302.67,190.27Z"/><path class="cls-30" d="M225.67,205.13a5.88,5.88,0,0,0,5.39,5.85V174.43h-5.39Z"/><path class="cls-31" d="M236,172.87a2.69,2.69,0,0,1-2.69,2.69H223.14a2.7,2.7,0,0,1-2.7-2.69h0a2.7,2.7,0,0,1,2.7-2.69h10.13a2.69,2.69,0,0,1,2.69,2.69Z"/><path class="cls-30" d="M319.58,205.95a5.88,5.88,0,0,1-5.39,5.86V175.24h5.39Z"/><path class="cls-31" d="M309.29,173.69a2.7,2.7,0,0,0,2.69,2.7h10.13a2.7,2.7,0,0,0,2.69-2.7h0a2.69,2.69,0,0,0-2.69-2.69H312a2.7,2.7,0,0,0-2.69,2.69Z"/><rect class="cls-31" x="269.52" y="219.62" width="5.85" height="8.6"/><rect class="cls-31" x="219.82" y="261.07" width="3.95" height="5.27"/><path class="cls-30" d="M223.85,250.78c-2.12.8-5.27,2.36-5.27,5.27v5.16h6.26V256A91.39,91.39,0,0,1,236,253.08c13.44-2.63,26-2.1,34.53.88V242.88C247.84,243,223.85,250.78,223.85,250.78Z"/><rect class="cls-31" x="321.12" y="261.07" width="3.95" height="5.27"/><path class="cls-30" d="M321,250.78c2.12.8,5.27,2.36,5.27,5.27v5.16h-6.26V256a91.34,91.34,0,0,0-11.17-2.92c-13.44-2.63-26-2.1-34.53.88V242.88C297.06,243,321,250.78,321,250.78Z"/><rect class="cls-32" x="268.86" y="243.09" width="7.17" height="28.62"/><rect class="cls-31" x="270.47" y="271.57" width="3.95" height="5.27"/><rect class="cls-30" x="266.15" y="226.32" width="12.59" height="16.7"/><path class="cls-5" d="M374.59,222.53l-1-.78-.64-.5a3.21,3.21,0,0,0-3.92,0L351.61,234.6a6.09,6.09,0,0,0-1.32,1.41l-2.59-2,1.22-1.56-56.35-43.9a8.55,8.55,0,0,0-1.06-.7l-1.7-27.41,2.4-20.74,23.56-12.45a6.17,6.17,0,0,0,4.23-3.61,5.74,5.74,0,0,0,.35-3.69,6.16,6.16,0,0,0-1.49-2.91L291.81,88h0l-.93-1-2-2.1,0,0,0,0,.08-.13L284,82c0-.46-.08-.92-.13-1.39-1.1-9.27-5.28-8.65-5.94-8.49-4.36-6.55-10.65-6.76-17.24-4.82a23.17,23.17,0,0,0-8.51,4.46,5.07,5.07,0,0,0-2.5-1.73c-3.23-1-6.87,1.59-8.12,5.73-1,3.46-.09,6.92,2.14,8.53L212.3,108.53a6.16,6.16,0,0,0-2.13,3.18,5.67,5.67,0,0,0-.19.9v.06a5.72,5.72,0,0,0,0,1c0,.06,0,.11,0,.17s0,.31.06.46a6.16,6.16,0,0,0,1.25,2.89h0a6.17,6.17,0,0,0,2.45,1.88l27.47,20.81a5.68,5.68,0,0,0,2.43,1c.64,6.34,1.24,13.37,1.17,17-.15,7.17-2.37,25.21-3.43,33.41a7.72,7.72,0,0,0-.55,2.85,7.79,7.79,0,0,0,.06.91l-.06.43h.12a7.75,7.75,0,0,0,7.63,6.41H275c0,.05,0,.11,0,.16l21.85,67,1.77-.58,1.12,3.42a1.23,1.23,0,0,0-.79,1.55l2.5,7.67,0,.06a2.43,2.43,0,0,0,3.07,1.56l34.45-11.23a1.23,1.23,0,0,0,.79-1.55l-.39-1.21-.25-.77a3.2,3.2,0,0,0-3.24-2.21l-21.91,1.32a6.12,6.12,0,0,0-1.77.39l-1-3.11,1.88-.61L296.72,213.4l41.71,32.49,1.15-1.47,2.85,2.22a1.22,1.22,0,0,0,.27,1.63l6.37,5,.05,0a2.43,2.43,0,0,0,3.42-.42l22.27-28.59A1.23,1.23,0,0,0,374.59,222.53ZM225.73,113.8l22.32-17.27c0,.11.09.23.15.34.77,1.5,2,4.41,3.18,5.78a1.82,1.82,0,1,0,3,2c3.9,7.53,10.51,12.4,20,10.75,7.18-2.5,9.66-10.22,10.07-17.16l20.29,21.78-11.85,6.26c-1.36-3.49-5.29-6.07-10-6.17L253,119.54c-5.2-.11-9.59,2.87-10.62,6.9Z"/><rect id="_Rectangle_17" data-name="&lt;Rectangle&gt;" class="cls-13" x="226.4" y="98.42" width="11.49" height="47.86" rx="5.74" ry="5.74" transform="translate(-5.56 233.53) rotate(-52.86)"/><path id="_Path_77" data-name="&lt;Path&gt;" class="cls-33" d="M249,79.52l8.5-3.06s6.76,1.14,8.88,2.77c2.46,1.89,4.62,3.7,4.82,4.43.53,1.94-10.17,1.51-10.17,1.51l-8.57,2.64Z"/><path id="_Path_78" data-name="&lt;Path&gt;" class="cls-14" d="M248.93,79.91l8.5-3.06s6.76,1.14,8.88,2.77c2.46,1.89,4.62,3.7,4.82,4.43C271.65,86,261,85.55,261,85.55l-8.57,2.64Z"/><path id="_Path_79" data-name="&lt;Path&gt;" class="cls-13" d="M249,79.67l7.65,9.75L222,116.27a6.2,6.2,0,0,1-8.7-1h0a6.2,6.2,0,0,1,1-8.7Z"/><rect id="_Rectangle_18" data-name="&lt;Rectangle&gt;" class="cls-1" x="245.01" y="83.55" width="12.54" height="4.6" transform="translate(334.35 338.07) rotate(-127.09)"/><rect id="_Rectangle_19" data-name="&lt;Rectangle&gt;" class="cls-13" x="294.95" y="103.83" width="11.49" height="47.86" rx="5.74" ry="5.74" transform="translate(328.26 453.31) rotate(-117.86)"/><path id="_Path_80" data-name="&lt;Path&gt;" class="cls-34" d="M307.93,207.83h0a6.61,6.61,0,0,1,9.28-1.15l37,28.79a6.61,6.61,0,0,1,1.15,9.28h0A6.61,6.61,0,0,1,346,245.9l-1-.75-36-28A6.61,6.61,0,0,1,307.93,207.83Z"/><path id="_Path_81" data-name="&lt;Path&gt;" class="cls-35" d="M344.7,246.27l6.37,5,24.52-31.48-.64-.5a3.21,3.21,0,0,0-3.92,0L353.61,232.6a5.92,5.92,0,0,0-1.84,2.34c-2.32,5.38-5.29,8.13-7,9.36A1.23,1.23,0,0,0,344.7,246.27Z"/><path id="_Path_82" data-name="&lt;Path&gt;" class="cls-34" d="M351.07,251.23l.05,0a2.43,2.43,0,0,0,3.42-.42l22.27-28.59a1.23,1.23,0,0,0-.21-1.72l-1-.78Z"/><path id="_Path_83" data-name="&lt;Path&gt;" class="cls-34" d="M292.17,219h0a6.61,6.61,0,0,1,8.34,4.24L315,267.8a6.61,6.61,0,0,1-4.24,8.34h0a6.61,6.61,0,0,1-8.34-4.24l-.38-1.16-14.14-43.38A6.61,6.61,0,0,1,292.17,219Z"/><path id="_Rectangle_20" data-name="&lt;Rectangle&gt;" class="cls-36" d="M286.26,187.37h17.07a0,0,0,0,1,0,0v70.5a8.53,8.53,0,0,1-8.53,8.53h0a8.53,8.53,0,0,1-8.53-8.53v-70.5A0,0,0,0,1,286.26,187.37Z" transform="translate(645.4 351.21) rotate(161.94)"/><path id="_Path_84" data-name="&lt;Path&gt;" class="cls-35" d="M301,271.49l2.5,7.67,37.94-12.37-.25-.77a3.21,3.21,0,0,0-3.24-2.21l-21.91,1.32a5.92,5.92,0,0,0-2.83.91c-4.94,3.16-8.93,3.77-11.06,3.83A1.23,1.23,0,0,0,301,271.49Z"/><path id="_Path_85" data-name="&lt;Path&gt;" class="cls-34" d="M303.53,279.16l0,.06a2.43,2.43,0,0,0,3.07,1.56l34.45-11.23a1.23,1.23,0,0,0,.79-1.55l-.39-1.21Z"/><rect id="_Rectangle_21" data-name="&lt;Rectangle&gt;" class="cls-14" x="268.8" y="106.73" width="7.74" height="18.79" rx="3.87" ry="3.87" transform="translate(542.92 237.79) rotate(-178.83)"/><path id="_Path_86" data-name="&lt;Path&gt;" class="cls-1" d="M255,117.54l29.89.61c5.9.12,10.6,4.15,10.5,9l-3.62,31.26,2.24,36.13-51.25-1s3.78-28.18,4-37.59c.15-7.43-2.6-29.8-2.6-29.8C244.28,121.26,249.14,117.42,255,117.54Z"/><path id="_Path_87" data-name="&lt;Path&gt;" class="cls-14" d="M259.2,120c-.11,5.41,5.14,9.9,11.73,10s12-4.14,12.13-9.55a8,8,0,0,0-.3-2.36l-23.17-.47A8,8,0,0,0,259.2,120Z"/><polygon id="_Path_88" data-name="&lt;Path&gt;" class="cls-13" points="259.7 117.5 258.01 122.73 262.25 127.14 260.36 130.51 278.85 157.67 286.92 130.98 284.63 127.42 286.25 123.31 283.04 117.98 259.7 117.5"/><polygon id="_Path_89" data-name="&lt;Path&gt;" class="cls-2" points="280.93 117.94 276.94 148.75 262.45 117.56 280.93 117.94"/><path id="_Path_90" data-name="&lt;Path&gt;" class="cls-33" d="M291,82.76l-7.89-4.39s-6.86,0-9.21,1.3c-2.73,1.46-5.15,2.91-5.47,3.59-.84,1.83,9.79,3.13,9.79,3.13l8,4Z"/><path id="_Path_91" data-name="&lt;Path&gt;" class="cls-14" d="M291,83.16l-7.89-4.39s-6.86,0-9.21,1.3c-2.73,1.46-5.15,2.91-5.47,3.59-.84,1.83,9.79,3.13,9.79,3.13l8,4Z"/><path id="_Path_92" data-name="&lt;Path&gt;" class="cls-13" d="M290.94,82.91l-9.13,8.38,29.93,32.11a6.2,6.2,0,0,0,8.75.37h0a6.2,6.2,0,0,0,.37-8.75Z"/><rect id="_Rectangle_22" data-name="&lt;Rectangle&gt;" class="cls-1" x="281.43" y="86.35" width="12.54" height="4.6" transform="translate(18.28 222.97) rotate(-43.62)"/><path id="_Path_93" data-name="&lt;Path&gt;" class="cls-37" d="M279.8,70.13s4.83-1.6,6,8.47a44.28,44.28,0,0,1-.1,10l-8.55-7.82L269,78.25l9.3-4.67Z"/><path id="_Path_94" data-name="&lt;Path&gt;" class="cls-15" d="M276.39,113.45c-11.78,2-19.12-6-22.36-16.6-3.41-11.21,3.14-21.61,12.43-22.75,10.57-1.29,17.23,2.09,19.48,13.6,1.41,7.22,1,22.1-9.55,25.75Z"/><g id="_Group_7" data-name="&lt;Group&gt;"><line id="_Path_95" data-name="&lt;Path&gt;" class="cls-16" x1="283.5" y1="86.82" x2="279.03" y2="87.33"/><path id="_Path_96" data-name="&lt;Path&gt;" class="cls-16" d="M283.55,88.2a.75.75,0,0,0-.53-1.39L278.68,88a.75.75,0,0,0,.4,1.45l4.34-1.2Z"/></g><g id="_Group_8" data-name="&lt;Group&gt;"><line id="_Path_97" data-name="&lt;Path&gt;" class="cls-16" x1="273.46" y1="90.3" x2="269" y2="90.87"/><path id="_Path_98" data-name="&lt;Path&gt;" class="cls-16" d="M273.37,89.28a.75.75,0,0,1,.23,1.47l-4.36,1.11a.75.75,0,0,1-.37-1.45l4.36-1.11Z"/></g><circle id="_Path_99" data-name="&lt;Path&gt;" cx="271.86" cy="93.8" r="1.01" transform="translate(-9.19 32.84) rotate(-6.8)"/><circle id="_Path_100" data-name="&lt;Path&gt;" cx="281.8" cy="92.3" r="1.01" transform="translate(-8.94 34.01) rotate(-6.8)"/><polygon id="_Path_101" data-name="&lt;Path&gt;" class="cls-18" points="276.51 92.75 277.42 101.51 279.24 100.86 276.51 92.75"/><ellipse id="_Path_102" data-name="&lt;Path&gt;" class="cls-37" cx="249.36" cy="75.51" rx="7.83" ry="6.12" transform="translate(104.91 292.34) rotate(-73.18)"/><path id="_Path_103" data-name="&lt;Path&gt;" class="cls-26" d="M256.22,97.9s5.33.35,4-5.13C263,92,276,84.52,280,70.25c-4.36-6.69-10.7-6.92-17.35-5C252.82,68.17,243.08,77,251.3,95.71,251.91,97.11,254.67,97,256.22,97.9Z"/><g id="_Group_9" data-name="&lt;Group&gt;"><path id="_Path_104" data-name="&lt;Path&gt;" class="cls-15" d="M257.23,92.86a5.66,5.66,0,0,0-2.2-1.81c-3.28-1.74-6.61.38-4.83,3.82,1.24,2.4,3.58,8.42,5.27,6A12,12,0,0,0,257.23,92.86Z"/><polygon id="_Path_105" data-name="&lt;Path&gt;" class="cls-18" points="254.94 93.5 250.89 93.31 254.53 98.41 252.99 94.03 254.94 93.5"/></g><circle id="_Path_106" data-name="&lt;Path&gt;" class="cls-31" cx="254.88" cy="101.69" r="1.82" transform="translate(-10.25 30.88) rotate(-6.8)"/><path id="_Path_107" data-name="&lt;Path&gt;" class="cls-38" d="M272.45,104.28a7,7,0,0,0,5.69,1.39h0a7.48,7.48,0,0,0,4.73-3.45"/><path id="_Rectangle_23" data-name="&lt;Rectangle&gt;" class="cls-13" d="M305.6,172.61h17.07a0,0,0,0,1,0,0V244a8.53,8.53,0,0,1-8.53,8.53h0A8.53,8.53,0,0,1,305.6,244V172.61A0,0,0,0,1,305.6,172.61Z" transform="translate(674.89 95.42) rotate(127.92)"/><rect class="cls-13" x="242.8" y="184.42" width="52.63" height="15.5" rx="7.75" ry="7.75"/><path class="cls-5" d="M501.21,250.31l0-.26a6.88,6.88,0,0,0-2.22-4.25L483.06,211l1.49-.78L480,201.49l-2.78,1.45L473,194.28s-1.12-.7-2.7-1.59a3.62,3.62,0,0,0,.27-.65,3.17,3.17,0,0,0-1.92-4,2.87,2.87,0,0,0-2.37.35,5,5,0,0,0-7-2.33,5,5,0,0,0-8.12-2.65,5,5,0,0,0-7.72-.24,4.94,4.94,0,0,0-6.57,1.79,2.76,2.76,0,0,0-1.23-.79,2.89,2.89,0,0,0-2.54.48,2.83,2.83,0,0,0-1.64-1.36,3.17,3.17,0,0,0-3.83,2.3s0,.06,0,.09a4.17,4.17,0,0,0-1.44-.28,4.72,4.72,0,0,0-4.5,4.2c-2.14.92-3.78,1.75-3.78,1.75l-5,8.22-2.63-1.7-5.34,8.27,1.41.91-19.78,34.39a6.86,6.86,0,0,0-1.1,2.26,6.94,6.94,0,0,0,.28,4.8l0,.07q.1.23.22.44l.12.22.17.28.23.34.1.13a7.29,7.29,0,0,0,5.88,2.78l30.52,2.7v99.28h5v85.52h1.7V443a5.25,5.25,0,0,0-1.54.15l-18.24,4.75a2.75,2.75,0,0,0-2.06,2.67v1.79a1.05,1.05,0,0,0,1.05,1.05h57.86a2.09,2.09,0,0,0,2.09-2.09v-7a1,1,0,0,0-1-1v-3.1h1.6V354.72h3.33V260.9L495.22,258A6.91,6.91,0,0,0,501.21,250.31Zm-40.75-12.55h-5l-4.32-2.82v-1a18.4,18.4,0,0,0,8.78-8.13,5,5,0,0,0,7.28-5.93,5,5,0,0,0,3.48-2l12.57,27.54-10.9,1.39A12.39,12.39,0,0,0,460.45,237.77Zm-39.85-21.54,5.34-8.27-2.88-1.86,1.71-2.55a5,5,0,0,0,4.91,4c.12,0,.23,0,.34,0-.13.84-.25,1.7-.32,2.63-.57,7.56,1.71,22.71,12.91,25.17l.66,0-5.23,2.47h-1.91a13.09,13.09,0,0,0-9.28,3.87l-23-2,14.34-24.93Zm36,224V443a5.23,5.23,0,0,0-1.65.15l-12.79,3.33v-2.15a1.05,1.05,0,0,0-1.06-1.05v-3.09h1.6V354.72h12.2v85.52Z"/><path id="_Path_108" data-name="&lt;Path&gt;" class="cls-14" d="M444,225.54h.13a3.58,3.58,0,0,0-3.56,3.69v7.88c0,2,1.52,2.67,3.56,2.67H444c2,0,3.62-.63,3.62-2.67v-7.88A3.69,3.69,0,0,0,444,225.54Z"/><rect id="_Rectangle_24" data-name="&lt;Rectangle&gt;" class="cls-39" x="462.29" y="225.49" width="14.09" height="57.15" rx="6.91" ry="6.91" transform="translate(276.72 751.78) rotate(-97.27)"/><rect id="_Rectangle_25" data-name="&lt;Rectangle&gt;" class="cls-39" x="403.16" y="219.23" width="14.09" height="57.15" rx="6.91" ry="6.91" transform="translate(693.18 -138.97) rotate(95.05)"/><path id="_Path_109" data-name="&lt;Path&gt;" class="cls-40" d="M458.73,399.46h0a5.68,5.68,0,0,0-5.68,5.68v40.22a5.68,5.68,0,0,0,5.68,5.68h0a5.68,5.68,0,0,0,5.68-5.68V405.13A5.68,5.68,0,0,0,458.73,399.46Z"/><path id="_Rectangle_26" data-name="&lt;Rectangle&gt;" class="cls-7" d="M458.55,312.14h.27a7.19,7.19,0,0,1,7.19,7.19V440.5a0,0,0,0,1,0,0H451.36a0,0,0,0,1,0,0V319.33a7.19,7.19,0,0,1,7.19-7.19Z"/><path id="_Path_110" data-name="&lt;Path&gt;" class="cls-41" d="M465.37,444.64v6.93H431.12v-.69a2.75,2.75,0,0,1,2.06-2.67l18.24-4.75a5.09,5.09,0,0,1,2.56,0,18.76,18.76,0,0,0,10,.18A1.05,1.05,0,0,1,465.37,444.64Z"/><path id="_Path_111" data-name="&lt;Path&gt;" class="cls-42" d="M465.37,451.57v.05a2.09,2.09,0,0,1-2.09,2.09H432.17a1.05,1.05,0,0,1-1.05-1.05v-1.09Z"/><path id="_Path_112" data-name="&lt;Path&gt;" class="cls-40" d="M431.88,399.46h0a5.68,5.68,0,0,0-5.68,5.68v40.22a5.68,5.68,0,0,0,5.68,5.68h0a5.68,5.68,0,0,0,5.68-5.68V405.13A5.68,5.68,0,0,0,431.88,399.46Z"/><path id="_Rectangle_27" data-name="&lt;Rectangle&gt;" class="cls-7" d="M431.7,312.14H432a7.19,7.19,0,0,1,7.19,7.19V440.5a0,0,0,0,1,0,0H424.51a0,0,0,0,1,0,0V319.33a7.19,7.19,0,0,1,7.19-7.19Z"/><path id="_Path_113" data-name="&lt;Path&gt;" class="cls-41" d="M438.62,444.64v6.93H404.37v-.69a2.75,2.75,0,0,1,2.06-2.67l18.24-4.75a5.09,5.09,0,0,1,2.56,0,18.76,18.76,0,0,0,10,.18A1.05,1.05,0,0,1,438.62,444.64Z"/><path id="_Path_114" data-name="&lt;Path&gt;" class="cls-42" d="M438.62,451.57v.05a2.09,2.09,0,0,1-2.09,2.09H405.42a1.05,1.05,0,0,1-1.05-1.05v-1.09Z"/><path id="_Path_115" data-name="&lt;Path&gt;" class="cls-15" d="M439.12,235.54c12.29.66,18.83-8.42,20.84-19.71,2.12-11.88-5.84-21.71-15.48-21.75-11,0-17.36,4.24-18.27,16.28-.57,7.56,1.71,22.71,12.91,25.17Z"/><path id="_Rectangle_28" data-name="&lt;Rectangle&gt;" class="cls-43" d="M432.65,238H457a12.39,12.39,0,0,1,12.39,12.39V355a0,0,0,0,1,0,0H419.52a0,0,0,0,1,0,0V251.16A13.13,13.13,0,0,1,432.65,238Z"/><polygon id="_Path_116" data-name="&lt;Path&gt;" class="cls-39" points="454.83 238.03 456.33 242.98 452.25 247.05 453.97 250.26 436.04 275.46 428.96 250.19 431.18 246.89 429.74 242.98 432.86 238.03 454.83 238.03"/><polygon id="_Path_117" data-name="&lt;Path&gt;" class="cls-8" points="434.55 238.03 437.72 267.11 451.96 238.03 434.55 238.03"/><polygon id="_Path_118" data-name="&lt;Path&gt;" class="cls-6" points="451.96 238.03 447.64 235.21 442.94 239.08 445.68 245.55 451.96 238.03"/><polygon id="_Path_119" data-name="&lt;Path&gt;" class="cls-6" points="434.55 238.03 440.52 235.21 442.94 239.08 437.72 245.55 434.55 238.03"/><ellipse id="_Path_120" data-name="&lt;Path&gt;" class="cls-44" cx="439.45" cy="289.11" rx="2.31" ry="2.86"/><ellipse id="_Path_121" data-name="&lt;Path&gt;" class="cls-44" cx="439.45" cy="304.76" rx="2.31" ry="2.86"/><path id="_Path_122" data-name="&lt;Path&gt;" class="cls-28" d="M432.26,192s6-4.38,12.71-3.81c10.55.89,14,7.67,14,7.67a11.37,11.37,0,0,1,4.56-.81c-1.37,1.59-2.18,2.29-2.8,4.57,1.15,3,1.16,7.43,1,10.27a2.84,2.84,0,0,0-2.42-.6l-.39.09h0l-.19.06-.19.07-.2.09-.14.07-.23.13-.18.11-.18.12-.17.13-.17.14-.33.31s0,0,0,0l-.06.08,0,0,0,.05,0,0,0,0v5.23a2.32,2.32,0,0,1-.55,1.74,2.82,2.82,0,0,1-.24.26,3.7,3.7,0,0,1-1.58.46,2.7,2.7,0,0,1-2.71-2.46v-1.85a2.67,2.67,0,0,0-2.46-2.67l-.47,0c0-2.11,0-3.78,0-4.82,0-1.29-.46-2.14-3.31-2.42h-.08l-.8-.06h-.06c-.5,0-1,0-1.65,0h-13.1l-.15,0A6.47,6.47,0,0,1,426,201.7"/><g id="_Group_10" data-name="&lt;Group&gt;"><line id="_Path_123" data-name="&lt;Path&gt;" class="cls-28" x1="429.02" y1="209.8" x2="433.4" y2="209.38"/><path id="_Path_124" data-name="&lt;Path&gt;" class="cls-28" d="M428.95,210.53a.73.73,0,0,1,0-1.46l4.38-.42a.73.73,0,1,1,.14,1.46l-4.38.42Z"/></g><g id="_Group_11" data-name="&lt;Group&gt;"><line id="_Path_125" data-name="&lt;Path&gt;" class="cls-28" x1="442.28" y1="209.66" x2="446.58" y2="210.59"/><path id="_Path_126" data-name="&lt;Path&gt;" class="cls-28" d="M442.29,208.93a.73.73,0,0,0-.17,1.45l4.3.93a.73.73,0,1,0,.31-1.43l-4.3-.93Z"/></g><circle id="_Path_127" data-name="&lt;Path&gt;" cx="442.91" cy="213.49" r="0.99"/><circle id="_Path_128" data-name="&lt;Path&gt;" cx="431.4" cy="213.83" r="0.99"/><polygon id="_Path_129" data-name="&lt;Path&gt;" class="cls-18" points="437.53 214.46 437.66 220.73 435.81 220.42 437.53 214.46"/><path id="_Path_130" data-name="&lt;Path&gt;" class="cls-23" d="M446.61,214.83a5.17,5.17,0,0,1-3.07.9h0a5.55,5.55,0,0,1-3.07-.9"/><path id="_Path_131" data-name="&lt;Path&gt;" class="cls-23" d="M434.42,214.83a5.17,5.17,0,0,1-3.07.9h0a5.55,5.55,0,0,1-3.07-.9"/><g id="_Group_12" data-name="&lt;Group&gt;"><path id="_Path_132" data-name="&lt;Path&gt;" class="cls-15" d="M456.73,210.81a5.82,5.82,0,0,1,2-2.12c3.14-2.18,6.8-.41,5.41,3.32-1,2.6-2.63,9-4.67,6.73A12.37,12.37,0,0,1,456.73,210.81Z"/><polygon id="_Path_133" data-name="&lt;Path&gt;" class="cls-18" points="459.15 211.19 463.27 210.5 460.17 216.16 461.21 211.49 459.15 211.19"/></g><circle id="_Path_134" data-name="&lt;Path&gt;" class="cls-28" cx="428.13" cy="197.88" r="5.02"/><circle id="_Path_135" data-name="&lt;Path&gt;" class="cls-28" cx="426.19" cy="202.75" r="5.02"/><circle id="_Path_136" data-name="&lt;Path&gt;" class="cls-28" cx="434.42" cy="200.71" r="5.02"/><circle id="_Path_137" data-name="&lt;Path&gt;" class="cls-28" cx="441.92" cy="200.71" r="5.02"/><circle id="_Path_138" data-name="&lt;Path&gt;" class="cls-28" cx="448.48" cy="202.75" r="5.02"/><circle id="_Path_139" data-name="&lt;Path&gt;" class="cls-28" cx="452.23" cy="207.78" r="5.02"/><circle id="_Path_140" data-name="&lt;Path&gt;" class="cls-28" cx="431.06" cy="192.85" r="5.02"/><circle id="_Path_141" data-name="&lt;Path&gt;" class="cls-28" cx="443.73" cy="186.7" r="5.02"/><circle id="_Path_142" data-name="&lt;Path&gt;" class="cls-28" cx="437.65" cy="187.83" r="5.02"/><ellipse id="_Path_143" data-name="&lt;Path&gt;" class="cls-28" cx="422.69" cy="190.66" rx="4.58" ry="5.02"/><circle id="_Path_144" data-name="&lt;Path&gt;" class="cls-28" cx="450.92" cy="187.45" r="5.02"/><circle id="_Path_145" data-name="&lt;Path&gt;" class="cls-28" cx="458.23" cy="190.66" r="5.02"/><ellipse id="_Path_146" data-name="&lt;Path&gt;" class="cls-28" cx="464.22" cy="191.44" rx="3.31" ry="3.01" transform="translate(146.88 580.59) rotate(-73.21)"/><ellipse id="_Path_147" data-name="&lt;Path&gt;" class="cls-28" cx="431.21" cy="187.57" rx="3.31" ry="3.01" transform="translate(127.1 546.24) rotate(-73.21)"/><ellipse id="_Path_148" data-name="&lt;Path&gt;" class="cls-28" cx="427.02" cy="186.7" rx="3.31" ry="3.01" transform="translate(124.96 541.61) rotate(-73.21)"/><circle id="_Path_149" data-name="&lt;Path&gt;" class="cls-28" cx="462.2" cy="196.74" r="5.02"/><circle id="_Path_150" data-name="&lt;Path&gt;" class="cls-28" cx="465.05" cy="202.75" r="5.02"/><circle id="_Path_151" data-name="&lt;Path&gt;" class="cls-28" cx="458.14" cy="210.5" r="5.02"/><circle id="_Path_152" data-name="&lt;Path&gt;" class="cls-28" cx="458.1" cy="216.86" r="5.02"/><circle id="_Path_153" data-name="&lt;Path&gt;" class="cls-28" cx="465.05" cy="208.97" r="5.02"/><circle id="_Path_154" data-name="&lt;Path&gt;" class="cls-28" cx="458.97" cy="221.73" r="5.02"/><circle id="_Path_155" data-name="&lt;Path&gt;" class="cls-28" cx="463.13" cy="215.15" r="5.02"/><rect id="_Rectangle_29" data-name="&lt;Rectangle&gt;" class="cls-45" x="423.11" y="267.11" width="9.02" height="4.1" transform="translate(855.24 538.32) rotate(-180)"/><path class="cls-45" d="M429.65,265.46h1a0,0,0,0,1,0,0v1.63a.49.49,0,0,1-.49.49h0a.49.49,0,0,1-.49-.49v-1.63A0,0,0,0,1,429.65,265.46Z" transform="translate(860.31 533.04) rotate(-180)"/><path class="cls-45" d="M427.1,265.46h1a0,0,0,0,1,0,0v1.63a.49.49,0,0,1-.49.49h0a.49.49,0,0,1-.49-.49v-1.63A0,0,0,0,1,427.1,265.46Z" transform="translate(855.21 533.04) rotate(-180)"/><path class="cls-46" d="M427,265.54h1a0,0,0,0,1,0,0v1.63a.49.49,0,0,1-.49.49h0a.49.49,0,0,1-.49-.49v-1.63A0,0,0,0,1,427,265.54Z" transform="translate(855.07 533.19) rotate(-180)"/><path class="cls-47" d="M429.59,265.54h1a0,0,0,0,1,0,0v1.63a.49.49,0,0,1-.49.49h0a.49.49,0,0,1-.49-.49v-1.63A0,0,0,0,1,429.59,265.54Z" transform="translate(860.17 533.19) rotate(-180)"/><path class="cls-45" d="M424.81,265.46h1a0,0,0,0,1,0,0v1.63a.49.49,0,0,1-.49.49h0a.49.49,0,0,1-.49-.49v-1.63A0,0,0,0,1,424.81,265.46Z" transform="translate(850.62 533.04) rotate(-180)"/><path class="cls-31" d="M424.74,265.54h1a0,0,0,0,1,0,0v1.63a.49.49,0,0,1-.49.49h0a.49.49,0,0,1-.49-.49v-1.63A0,0,0,0,1,424.74,265.54Z" transform="translate(850.49 533.19) rotate(-180)"/><rect id="_Rectangle_30" data-name="&lt;Rectangle&gt;" class="cls-44" x="423.11" y="267.22" width="9.02" height="4.1" transform="translate(855.24 538.55) rotate(-180)"/><path class="cls-10" d="M430.05,265.54h0a.24.24,0,0,1,.24.24v4.92a0,0,0,0,1,0,0h-.49a0,0,0,0,1,0,0v-4.92A.24.24,0,0,1,430.05,265.54Z" transform="translate(860.12 536.23) rotate(180)"/><path class="cls-10" d="M427.53,265.54h0a.24.24,0,0,1,.24.24v4.92a0,0,0,0,1,0,0h-.49a0,0,0,0,1,0,0v-4.92A.24.24,0,0,1,427.53,265.54Z" transform="translate(855.07 536.23) rotate(-180)"/><path class="cls-10" d="M425.24,265.54h0a.24.24,0,0,1,.24.24v4.92a0,0,0,0,1,0,0H425a0,0,0,0,1,0,0v-4.92A.24.24,0,0,1,425.24,265.54Z" transform="translate(850.49 536.23) rotate(-180)"/><path id="_Rectangle_31" data-name="&lt;Rectangle&gt;" class="cls-39" d="M399.36,198.69h.26a6.91,6.91,0,0,1,6.91,6.91V251a4.89,4.89,0,0,1-4.89,4.89h-4.31a4.89,4.89,0,0,1-4.89-4.89V205.6a6.91,6.91,0,0,1,6.91-6.91Z" transform="translate(632.46 623.45) rotate(-150.09)"/><path id="_Path_156" data-name="&lt;Path&gt;" class="cls-14" d="M408.12,201.93l6.28-10.35s8.29-4.16,11.86-4.25c4.15-.11,8.76,2.77,9.57,3.36,2.19,1.58-10.43,7-10.43,7l-6.7,10Z"/><rect id="_Rectangle_32" data-name="&lt;Rectangle&gt;" class="cls-8" x="402.62" y="202.38" width="18.65" height="9.84" transform="translate(645.48 604.95) rotate(-147.14)"/><path id="_Rectangle_33" data-name="&lt;Rectangle&gt;" class="cls-39" d="M478.88,202.89h4.31a4.89,4.89,0,0,1,4.89,4.89v45.35a6.91,6.91,0,0,1-6.91,6.91h-.26a6.91,6.91,0,0,1-6.91-6.91V207.78A4.89,4.89,0,0,1,478.88,202.89Z" transform="translate(-52.68 220.69) rotate(-24.54)"/><path id="_Path_157" data-name="&lt;Path&gt;" class="cls-14" d="M474.81,205.44l-5.28-10.89s-7.86-4.92-11.41-5.34c-4.12-.49-9,1.94-9.85,2.45-2.33,1.37,9.73,7.94,9.73,7.94l5.74,10.55Z"/><rect id="_Rectangle_34" data-name="&lt;Rectangle&gt;" class="cls-8" x="461.18" y="205.5" width="18.65" height="9.84" transform="translate(-44 240.97) rotate(-27.49)"/><path class="cls-20" d="M442.73,226.91c0,2.11-2.31.5-5.17.5s-5.17,1.61-5.17-.5,2.31-3.82,5.17-3.82S442.73,224.8,442.73,226.91Z"/><path class="cls-8" d="M433.17,224.91h8.78a6.19,6.19,0,0,0-8.78,0Z"/><path class="cls-8" d="M432.39,226.91c0,2.11,2.31.5,5.17.5s5.17,1.61,5.17-.5a2.81,2.81,0,0,0,0-.35H432.44A2.81,2.81,0,0,0,432.39,226.91Z"/></svg>