<svg xmlns="http://www.w3.org/2000/svg" xmlns:xlink="http://www.w3.org/1999/xlink" viewBox="0 0 708.66 481.89"><defs><style>.cls-1,.cls-24,.cls-31{fill:none;}.cls-2{isolation:isolate;}.cls-3{clip-path:url(#clip-path);}.cls-4{fill:#f7e3d5;}.cls-5{fill:#354546;}.cls-6{fill:#263536;}.cls-7{fill:#455556;}.cls-8{fill:#657576;}.cls-9{clip-path:url(#clip-path-2);}.cls-10{fill:#f7fafa;}.cls-11{fill:#fff;}.cls-12{fill:#eef5f5;}.cls-13{fill:#b5c5c6;}.cls-14{fill:#c5d5d6;}.cls-15{fill:#c5e0f9;}.cls-16{fill:#efeeee;}.cls-17{fill:#878787;}.cls-18{fill:#d6dadd;}.cls-19{fill:#0e3656;}.cls-20{fill:#222223;opacity:0.07;}.cls-21{fill:#57758e;}.cls-22{fill:#80b9e0;}.cls-23{fill:#364956;}.cls-24{stroke:#c1c4c6;stroke-width:3px;}.cls-24,.cls-31{stroke-linecap:round;stroke-linejoin:round;}.cls-25{fill:#c38361;}.cls-26{fill:#b47b5b;}.cls-27{fill:#fbb87d;}.cls-28{fill:#fbc9ad;}.cls-29{fill:#8ba9cc;}.cls-30{fill:#6b8daf;}.cls-31{stroke:#d6dadd;stroke-width:4px;}.cls-32{mix-blend-mode:multiply;}.cls-33{fill:#d5e5e6;}</style><clipPath id="clip-path"><rect class="cls-1" y="-7.75" width="708.66" height="486.61"/></clipPath><clipPath id="clip-path-2"><circle class="cls-1" cx="348.94" cy="242.33" r="228"/></clipPath></defs><title>CS-L2-U3</title><g class="cls-2"><g id="Layer_1" data-name="Layer 1"><g class="cls-3"><circle class="cls-4" cx="348.94" cy="242.33" r="228"/><path class="cls-5" d="M209.14,312.66a5.08,5.08,0,0,1-5.08,5.08H161.6a5.08,5.08,0,0,1-5.08-5.08V223.58a5.08,5.08,0,0,1,5.08-5.08h42.47a5.08,5.08,0,0,1,5.08,5.08Z"/><path class="cls-6" d="M202,283.56v.29a23.4,23.4,0,0,1-.21,2.64,19.66,19.66,0,0,1-3.35,8.2,18.89,18.89,0,0,1-8.55,6.7,18.36,18.36,0,0,1-4.72,1.21,18.86,18.86,0,0,1-2.37.16,15.23,15.23,0,0,1-1.66-.08,19.51,19.51,0,0,1-2.64-.41,17,17,0,0,1-2.82-.88c-.41-.16-.82-.33-1.21-.53a19.15,19.15,0,0,1-8.87-8.73,19.53,19.53,0,0,1-.8-1.84v0a17.68,17.68,0,0,1-.82-2.84,17.38,17.38,0,0,1-.31-2.25,14.53,14.53,0,0,1-.08-1.62c0-.65,0-1.27.1-1.9v0a17.35,17.35,0,0,1,.51-2.86v0a19.2,19.2,0,0,1,18.41-14.43h.21a17.85,17.85,0,0,1,2.74.19,19.5,19.5,0,0,1,3.43.82,16.39,16.39,0,0,1,2,.82h0A19.24,19.24,0,0,1,200,274.9a12.71,12.71,0,0,1,.63,1.37v0a18.06,18.06,0,0,1,.82,2.45v0a19.12,19.12,0,0,1,.43,2.13A19.84,19.84,0,0,1,202,283.56Z"/><circle class="cls-7" cx="182.83" cy="283.55" r="7.94"/><path class="cls-8" d="M182.83,265.22a18.33,18.33,0,1,0,18.33,18.33A18.35,18.35,0,0,0,182.83,265.22Z"/><path class="cls-6" d="M195.85,241.42v.2a15.77,15.77,0,0,1-.15,1.79,13.3,13.3,0,0,1-2.27,5.56,12.79,12.79,0,0,1-5.8,4.54,12.49,12.49,0,0,1-3.2.82,12.7,12.7,0,0,1-1.61.11,9.93,9.93,0,0,1-1.13-.06,12.83,12.83,0,0,1-1.79-.28,11.35,11.35,0,0,1-1.91-.6c-.28-.11-.56-.23-.82-.36a13,13,0,0,1-6-5.92,12.79,12.79,0,0,1-.54-1.25h0a12.07,12.07,0,0,1-.56-1.93,11.71,11.71,0,0,1-.21-1.53,9.48,9.48,0,0,1-.06-1.1c0-.44,0-.86.07-1.29h0a11.8,11.8,0,0,1,.35-1.94h0a13,13,0,0,1,12.47-9.78h.15a12.09,12.09,0,0,1,1.86.13,13.3,13.3,0,0,1,2.32.56,11.14,11.14,0,0,1,1.37.56h0a13,13,0,0,1,6.06,5.92,8.56,8.56,0,0,1,.43.93h0a12.61,12.61,0,0,1,.56,1.66h0a12.68,12.68,0,0,1,.29,1.45A13.36,13.36,0,0,1,195.85,241.42Z"/><circle class="cls-7" cx="182.83" cy="241.42" r="5.38"/><path class="cls-8" d="M182.83,255a13.63,13.63,0,1,1,13.63-13.63A13.64,13.64,0,0,1,182.83,255Z"/><g class="cls-9"><rect class="cls-10" x="147.05" y="328.78" width="18.44" height="180.15" rx="3.58" ry="3.58"/><rect class="cls-10" x="526.47" y="328.78" width="18.44" height="180.15" rx="3.58" ry="3.58"/><rect class="cls-11" x="133.01" y="317.31" width="431.14" height="26.09" rx="3.58" ry="3.58"/><rect class="cls-12" x="165.5" y="343.73" width="360.98" height="27.85" rx="2.74" ry="2.74"/><rect class="cls-13" x="351.52" y="343.73" width="1.79" height="27.85"/><path class="cls-14" d="M219.66,343.73v3.58a3.58,3.58,0,0,0,3.58,3.58h34.85a3.58,3.58,0,0,0,3.58-3.58v-3.58Z"/><path class="cls-14" d="M433.38,343.73v3.58a3.58,3.58,0,0,0,3.58,3.58h34.85a3.58,3.58,0,0,0,3.58-3.58v-3.58Z"/></g><path class="cls-15" d="M477.73,150.74H259.26a10,10,0,0,0-10,9.95v139H487.57v-139A9.87,9.87,0,0,0,477.73,150.74Z"/><polygon class="cls-15" points="447.89 200.35 408.21 239.8 368.3 239.8 328.77 215.24 289.01 240.11 249.24 255.04 249.24 309.62 289.05 309.62 328.77 309.62 368.3 309.62 408.21 309.62 447.94 309.62 487.57 309.62 487.57 195.46 447.89 200.35"/><circle class="cls-16" cx="289.05" cy="240.15" r="4.97"/><circle class="cls-16" cx="328.77" cy="215.32" r="4.97"/><path class="cls-17" d="M219.51,299.71a19.86,19.86,0,0,0,19.86,19.86h257.9a19.86,19.86,0,0,0,19.86-19.86Z"/><path class="cls-18" d="M338.65,299.71a9.93,9.93,0,0,0,9.93,9.93v-9.93Z"/><path class="cls-18" d="M388.4,309.64a9.93,9.93,0,0,0,9.93-9.93H388.4Z"/><path class="cls-18" d="M378.47,299.71h-20a9.93,9.93,0,0,1-9.93,9.93H388.4A9.93,9.93,0,0,1,378.47,299.71Z"/><path class="cls-18" d="M358.51,299.71h-9.93v9.93A9.93,9.93,0,0,0,358.51,299.71Z"/><path class="cls-18" d="M378.47,299.71a9.93,9.93,0,0,0,9.93,9.93v-9.93Z"/><path class="cls-19" d="M477.73,160.68h0v129.1H259.26V160.68Zm0-9.93H259.26a9.93,9.93,0,0,0-9.93,9.93v139H487.66v-139a9.93,9.93,0,0,0-9.93-9.93Z"/><path class="cls-20" d="M352.52,279.54c-18.88,1-33-3.82-43.52-11.18,27.61-3.5,27.11-22.46,27.11-22.46-4.17.93-11-.32-12.9-.7l.15-.33c25.31-8.05,23.4-30.15,23.4-30.15-4.27,3.12-13.22,3.53-13.22,3.53,22.92-18.72,9.09-40.41,9.09-40.41a86.68,86.68,0,0,1-28,22.21,28,28,0,0,0-5.52-8.73c-1.2,5.15-7.71,11.3-7.71,11.3,5.14-29.14-19.5-36.55-19.5-36.55a85.87,85.87,0,0,1-3.35,25.5A28.91,28.91,0,0,0,266.27,177c-19.6-12.31-36.27,2.13-38.63,4.33-4.1.22-7.08-1.18-19.28-6.77,0,0,3.69,11.8,13,16.41a56.58,56.58,0,0,1-17.17-4.2s9.76,12.75,15.05,15.6c0,0,.41,29.77,9.56,46.41h0c5,9.89,12.89,19.55,25,27.91A101.42,101.42,0,0,0,268,284.92l3.21,8.55L266,295a1.14,1.14,0,0,0-.78,1.41l.1.35a1.14,1.14,0,0,0,1.41.78l2.87-.83-2.15,1.67a1.14,1.14,0,0,0-.2,1.6l.22.29a1.14,1.14,0,0,0,1.6.2l2.52-1.95-2,2.64a1.14,1.14,0,0,0,.21,1.6l.29.22a1.14,1.14,0,0,0,1.6-.21l4.76-6.17a1.14,1.14,0,0,0-.21-1.6l0,0-2.93-7.79c2.61,1,5.19,1.92,7.74,2.67l4.31,11.45L280,302.83a1.14,1.14,0,0,0-.78,1.41l.1.35a1.14,1.14,0,0,0,1.41.78l2.87-.83-2.15,1.67a1.14,1.14,0,0,0-.2,1.6l.22.29a1.14,1.14,0,0,0,1.6.2l2.52-1.95-2,2.64a1.14,1.14,0,0,0,.21,1.6l.29.22a1.14,1.14,0,0,0,1.6-.21l4.76-6.17a1.14,1.14,0,0,0-.21-1.6l0,0-4.4-11.69C323.44,299.87,352.52,279.54,352.52,279.54Z"/><rect class="cls-21" x="249.9" y="251.81" width="4.61" height="39.85" transform="translate(583.92 437.28) rotate(159.39)"/><rect class="cls-21" x="251.73" y="291.61" width="11.4" height="2.99" rx="1.27" ry="1.27" transform="translate(646.75 268.36) rotate(127.65)"/><rect class="cls-21" x="249.88" y="289.52" width="11.4" height="2.99" rx="1.27" ry="1.27" transform="translate(635.83 364.6) rotate(142.24)"/><rect class="cls-21" x="248.48" y="287.43" width="11.4" height="2.99" rx="1.27" ry="1.27" transform="translate(578.76 495.65) rotate(163.83)"/><path class="cls-21" d="M236.2,217.57s32.21-28.37,31.3-74.82c0,0,27.9,8.38,22.08,41.38,0,0,7.38-7,8.73-12.8,0,0,18.33,17.85,1.81,43.85,0,0,8.73-4.69,12.12-9.23,0,0,15.48,17-9,41.78S236.2,217.57,236.2,217.57Z"/><path class="cls-22" d="M298.22,258.57c31.26-4,30.7-25.43,30.7-25.43-5.53,1.23-15.2-.92-15.2-.92,29.48-8.91,27.26-34.39,27.26-34.39-4.84,3.53-15,4-15,4,25.95-21.19,10.29-45.76,10.29-45.76-26.66,32.19-64.07,35.79-71.31,36.19,1.68-8.32,2.66-25.93-15.13-37.11-22.19-13.94-41.07,2.41-43.73,4.9-4.64.25-8-1.33-21.83-7.67,0,0,4.18,13.36,14.68,18.58a64.06,64.06,0,0,1-19.44-4.76s11.06,14.43,17,17.66c0,0,.46,33.7,10.82,52.55h0C213,247.6,222,258.54,235.71,268c58.66,40.38,111.78,3.22,111.78,3.22C326.12,272.3,310.14,266.9,298.22,258.57Z"/><circle class="cls-23" cx="218.62" cy="166.84" r="3.02"/><rect class="cls-22" x="265.78" y="260.69" width="4.61" height="39.85" transform="translate(-81.63 112.35) rotate(-20.61)"/><rect class="cls-22" x="267.61" y="300.49" width="11.4" height="2.99" rx="1.27" ry="1.27" transform="translate(-132.74 333.89) rotate(-52.35)"/><rect class="cls-22" x="265.76" y="298.4" width="11.4" height="2.99" rx="1.27" ry="1.27" transform="translate(-126.79 229.02) rotate(-37.76)"/><rect class="cls-22" x="264.36" y="296.3" width="11.4" height="2.99" rx="1.27" ry="1.27" transform="translate(-72.24 86.97) rotate(-16.17)"/><path class="cls-24" d="M145.62,145.67a37.68,37.68,0,0,1,41.75-22.83"/><path class="cls-24" d="M156,148.75a25.82,25.82,0,0,1,28.61-15.64"/><path class="cls-24" d="M166,151.78A14.5,14.5,0,0,1,182.06,143"/><path class="cls-20" d="M796,201.75l.12-.17c-.23.31-23.19,31.54-74,59C654.5,297,553.13,308,457.2,296.79l-.32,2.73a16.81,16.81,0,0,1-4.66-3.31c-5.92-6.48-23-14.18-32.65-15.09s-15.95,1.25-30.5-6.16c-4.21-2.15-21.43-11-30.44-10.28-12.75,1.07-5.52,11.46-5.52,11.46s8.54,10.61,19.73,13.84a42.53,42.53,0,0,1,9.22,3.75l20.28,11.49c2,5.09,1.63,7.88.52,9.41h0l-54.85-23-30.54,14c-4.27-2.86-7.88-5.23-10.08-6.49-8.58-4.91-13.34,4.5-13.34,4.5s52.7,56.68,77.5,54.3c13.59-1.3,53.27-3.86,79.19-5.47l-.73,6.29c61.29,7.14,134.18,7.81,187.18-2.75,43-8.57,82.88-22.93,118.48-42.69,62-34.41,90.3-74,91.47-75.7Z"/><path class="cls-25" d="M404.33,312.39l-54.85-23-36.33,16.69,7.56,11.63,32.28,20S413.72,314.39,404.33,312.39Z"/><path class="cls-26" d="M332.36,302.19s32.36,18.34,34.81,20.27a22.67,22.67,0,0,0,6.78,3.08l2.57-3.13L341.64,303.2Z"/><path class="cls-26" d="M351.87,299.47s32.36,18.34,34.81,20.27a22.68,22.68,0,0,0,6.78,3.08L396,319.7l-34.88-19.23Z"/><path class="cls-27" d="M421.06,278.88c-9.64-.91-15.95,1.25-30.5-6.16-4.21-2.15-21.43-11-30.44-10.28-12.75,1.07-5.52,11.46-5.52,11.46s8.54,10.61,19.73,13.84a42.54,42.54,0,0,1,9.22,3.75L403.81,303c4.73,11.81-3.68,11.25-3.68,11.25s-37.94,14.75-45.34,12-37.38-24.39-46-29.31-13.34,4.5-13.34,4.5,52.7,56.68,77.5,54.3c20.82-2,102.9-6.92,102.9-6.92l4.86-44.92s-21.13-3.46-27.05-9.94S430.7,279.79,421.06,278.88Z"/><path class="cls-28" d="M356.51,268.45c-1.16,6.31,7.46,13,9.37,10.25,0,0,6.82-8.92,4.72-11.62S357.67,262.14,356.51,268.45Z"/><path class="cls-29" d="M797.64,199.33c-.23.31-23.19,31.54-74,59-67.6,36.46-169,47.42-264.9,36.25l-7.22,62c61.29,7.14,134.18,7.81,187.18-2.75,43-8.57,82.88-22.93,118.48-42.69,62-34.41,90.3-74,91.47-75.7l-51.08-35.92Z"/><path class="cls-30" d="M754.29,291.55c-35.61,19.76-75.47,34.12-118.48,42.69-51.54,10.27-122.7,9.76-182.13,3.29l-2.22,19c61.29,7.14,134.18,7.81,187.18-2.75,43-8.57,82.88-22.93,118.48-42.69,62-34.41,90.3-74,91.47-75.7L836.67,227C823.83,241.56,797.1,267.79,754.29,291.55Z"/><rect class="cls-11" x="360.9" y="192.3" width="97.54" height="50.03"/><rect class="cls-18" x="367.43" y="199.77" width="12.4" height="12.4"/><line class="cls-31" x1="385.64" y1="202.57" x2="413.19" y2="202.57"/><line class="cls-31" x1="385.64" y1="210.06" x2="398.25" y2="210.06"/><line class="cls-31" x1="367.43" y1="221.02" x2="451.47" y2="221.02"/><line class="cls-31" x1="367.43" y1="227.65" x2="451.47" y2="227.65"/><line class="cls-31" x1="367.43" y1="234.28" x2="451.47" y2="234.28"/><rect class="cls-22" x="425.33" y="200.71" width="26.14" height="7.48" rx="3.74" ry="3.74"/><path class="cls-5" d="M527.41,165.5,519.73,170,507,148.43a33.76,33.76,0,0,0-35.14-16c-.51.09-1,.2-1.47.32a32.4,32.4,0,0,0-9.53,3.78,4.45,4.45,0,1,1-4.53-7.67,41.79,41.79,0,0,1,11-4.55,42.64,42.64,0,0,1,47.31,19.57Z"/><path class="cls-7" d="M465.63,139.92l-26.52,15.66a9.67,9.67,0,0,1-8,.88,9,9,0,0,1-2.94-1.47,9.91,9.91,0,0,1-2.53-2.85,1.41,1.41,0,0,1-.16-.33,9.42,9.42,0,0,1-1.16-5.49,8.9,8.9,0,0,1,.27-1.6,9.82,9.82,0,0,1,4.33-5.92L455.66,123a9.78,9.78,0,0,1,11.67,1.3,9.4,9.4,0,0,1,1.77,2.16,9.57,9.57,0,0,1,1.25,6.27,5,5,0,0,1-.12.62,3.09,3.09,0,0,1-.1.52A9.61,9.61,0,0,1,465.63,139.92Z"/><path class="cls-5" d="M454.51,129.89l-19,11.24a4.44,4.44,0,0,1-3.22.53,4.49,4.49,0,0,1-2.92-2.1,4.11,4.11,0,0,1-.35-.77,4.47,4.47,0,0,1,2-5.35l19-11.24a4.44,4.44,0,0,1,5.62.88,4.37,4.37,0,0,1,.5.68A4.46,4.46,0,0,1,454.51,129.89Z"/><path class="cls-5" d="M514.41,227.28a4.46,4.46,0,0,1-4.54-7.68,32.51,32.51,0,0,0,3.45-2.34,30,30,0,0,0,4.47-4.16,33.68,33.68,0,0,0,3.95-39.63L509,151.85l7.68-4.54,12.76,21.61a42.67,42.67,0,0,1-5.68,50.87h0A41.73,41.73,0,0,1,514.41,227.28Z"/><path class="cls-7" d="M482.74,229.45a9.79,9.79,0,0,0-3.46,13.41h0a9.8,9.8,0,0,0,13.42,3.45l26.53-15.67a9.8,9.8,0,0,0,3.45-13.42h0a9.8,9.8,0,0,0-13.42-3.45Z"/><path class="cls-5" d="M493.63,239.6a4.48,4.48,0,0,0-1.58,6.13h0a4.48,4.48,0,0,0,6.13,1.58l19-11.25a4.49,4.49,0,0,0,1.58-6.14h0a4.48,4.48,0,0,0-6.14-1.58Z"/><g class="cls-32"><path class="cls-33" d="M522.87,157.83l-7.68,4.54L507,148.43a33.76,33.76,0,0,0-35.14-16c-.51.09-1,.2-1.47.32a5,5,0,0,1-.12.62,3.09,3.09,0,0,1-.1.52,9.61,9.61,0,0,1-4.5,6l-26.52,15.66a9.67,9.67,0,0,1-8,.88,9,9,0,0,1-2.94-1.47,9.91,9.91,0,0,1-2.53-2.85,1.41,1.41,0,0,1-.16-.33,9.42,9.42,0,0,1-1.16-5.49,8.9,8.9,0,0,1,.27-1.6,9.82,9.82,0,0,1,4.33-5.92,4.47,4.47,0,0,1,2-5.35l19-11.24a4.44,4.44,0,0,1,5.62.88l.07,0a9.78,9.78,0,0,1,11.67,1.3,42.64,42.64,0,0,1,47.31,19.57Z"/></g></g></g></g></svg>