<svg id="Layer_1" data-name="Layer 1" xmlns="http://www.w3.org/2000/svg" viewBox="0 0 708.66 481.89"><defs><style>.cls-1{opacity:0.1;}.cls-2,.cls-3{fill:#231f20;}.cls-25,.cls-27,.cls-3,.cls-33,.cls-37,.cls-7,.cls-9{fill-rule:evenodd;}.cls-29,.cls-4{fill:#fff;}.cls-36,.cls-5,.cls-7,.cls-8{fill:#19a4a4;}.cls-6{fill:#fff3e9;}.cls-6,.cls-8,.cls-9{stroke:#19a4a4;stroke-width:1.35px;}.cls-28,.cls-33,.cls-34,.cls-36,.cls-37,.cls-38,.cls-40,.cls-43,.cls-6,.cls-8,.cls-9{stroke-linecap:round;stroke-linejoin:round;}.cls-28,.cls-32,.cls-33,.cls-34,.cls-37,.cls-38,.cls-40,.cls-43,.cls-9{fill:none;}.cls-10{fill:#fccd6d;}.cls-11{fill:#161616;opacity:0.07;}.cls-12,.cls-27{fill:#dc846a;}.cls-13{fill:#178481;}.cls-14{fill:#414042;}.cls-15{fill:#6d6e71;}.cls-16{fill:#8b6339;}.cls-17{fill:#262644;}.cls-18{fill:#b3b2b3;}.cls-19{fill:#4d4e4e;}.cls-20{fill:#353560;}.cls-21{fill:#979797;}.cls-22,.cls-25{fill:#f8ab8d;}.cls-23{fill:#e5e5e4;}.cls-24{fill:#515180;}.cls-26{fill:gray;}.cls-28{stroke:#dc846a;stroke-width:2.13px;}.cls-29{font-size:20.85px;font-family:Impact, Impact;}.cls-30{letter-spacing:-0.04em;}.cls-31{letter-spacing:0.02em;}.cls-32,.cls-33,.cls-34{stroke:#cbdcf4;stroke-width:12px;}.cls-32{stroke-miterlimit:10;}.cls-35{fill:#fec82b;}.cls-36,.cls-37,.cls-38{stroke:#fec82b;stroke-width:4px;}.cls-39{fill:#f9dba5;}.cls-40{stroke:#cecdcc;}.cls-40,.cls-43{stroke-width:2px;}.cls-41{fill:#848484;}.cls-42{fill:#cbdcf4;}.cls-43{stroke:#353560;}</style></defs><title>CS-L2-U4</title><g class="cls-1"><rect class="cls-2" x="380.44" y="289.16" width="33.9" height="18.27" transform="translate(-99.29 283.82) rotate(-35.22)"/><circle class="cls-2" cx="397.39" cy="298.29" r="6.38" transform="translate(-99.29 283.82) rotate(-35.22)"/><path class="cls-3" d="M378.27,300.61l3.17,4.49a6,6,0,0,0,1.69-7.93Z"/><line class="cls-2" x1="396.45" y1="302.89" x2="401.34" y2="299.43"/><path class="cls-3" d="M398.46,295.35a2.27,2.27,0,0,0-3.16-.54h0a2.27,2.27,0,0,0-.54,3.16l2.89,4.09"/><line class="cls-2" x1="394.9" y1="300.7" x2="398.36" y2="298.25"/><path class="cls-3" d="M388.81,315.53,385.64,311a6,6,0,0,1,8,1.06Z"/><path class="cls-3" d="M406,281.06l3.17,4.49a6,6,0,0,1-8-1.06Z"/><path class="cls-3" d="M416.5,296l-3.17-4.49a6,6,0,0,0-1.69,7.93Z"/></g><rect class="cls-4" x="382.54" y="288.95" width="30.38" height="14.75" transform="translate(-98.09 283.66) rotate(-35.22)"/><path class="cls-5" d="M405.46,284l6.48,9.17L390,308.66l-6.48-9.17L405.46,284m.85-4.9-27.69,19.55,10.54,14.92L416.84,294l-10.54-14.92Z"/><circle class="cls-6" cx="397.73" cy="296.33" r="6.38" transform="translate(-98.09 283.66) rotate(-35.22)"/><path class="cls-7" d="M378.61,298.64l3.17,4.49a6,6,0,0,0,1.69-7.93Z"/><line class="cls-8" x1="396.79" y1="300.92" x2="401.68" y2="297.47"/><path class="cls-9" d="M398.79,293.38a2.27,2.27,0,0,0-3.16-.54h0a2.27,2.27,0,0,0-.54,3.16l2.89,4.09"/><line class="cls-8" x1="395.24" y1="298.73" x2="398.7" y2="296.28"/><path class="cls-7" d="M389.15,313.56,386,309.07a6,6,0,0,1,8,1.06Z"/><path class="cls-7" d="M406.31,279.09l3.17,4.49a6,6,0,0,1-8-1.06Z"/><path class="cls-7" d="M416.84,294l-3.17-4.49a6,6,0,0,0-1.69,7.93Z"/><rect class="cls-10" x="215.67" y="13.72" width="286.48" height="115.89" rx="37.46" ry="37.46"/><path class="cls-11" d="M364.8,192.45V166.91a16.13,16.13,0,0,0-1-31.69V15.7h-5V58.48H307.46V84.05h51.39v51.17a16.13,16.13,0,0,0-1,31.69v25.53h0v2.43a3.49,3.49,0,0,0,.07.69c.62,14,5.54,22.38,14.68,24.93l1.85-6.67C369.17,212.36,364.8,207.42,364.8,192.45Zm-12.66-41.29a9.19,9.19,0,0,1,6.7-8.83v1a2.48,2.48,0,0,0,2.48,2.48h0a2.48,2.48,0,0,0,2.48-2.48v-1a9.18,9.18,0,1,1-11.66,8.83Z"/><path id="_Path_" data-name="&lt;Path&gt;" class="cls-12" d="M345.95,336.71s3.21,8,5.16,11.23c-3.41,4-8.66-1.08-8.66-1.08Z"/><ellipse class="cls-13" cx="376.36" cy="374.26" rx="4.52" ry="10.22" transform="translate(-138.69 502.46) rotate(-58.82)"/><path class="cls-13" d="M384.37,377.47s4.9.78,6.53,4.69-6.86,4-6.86,4L379.72,381S381.31,377.66,384.37,377.47Z"/><path class="cls-13" d="M369.37,368.57s-2.79-4.1-7-3.92-.69,7.9-.69,7.9l6.51,1.71S370.5,371.42,369.37,368.57Z"/><path class="cls-14" d="M309.94,445.81l3,13.86,3.78-.82a4.56,4.56,0,0,0,3.47-5.4l-1.08-5a4.56,4.56,0,0,0-5.4-3.47Z"/><path class="cls-15" d="M310.55,448.61l.62,2.84,4.19-6.51a4.5,4.5,0,0,0-1.63,0l-1,.21Z"/><path class="cls-15" d="M311.37,452.41l1.25,5.74,6.43-10a4.56,4.56,0,0,0-3-3.05Z"/><rect class="cls-14" x="308.98" y="436.05" width="1.39" height="10.58" transform="translate(-86.68 75.85) rotate(-12.26)"/><path class="cls-14" d="M305.71,426.35l3,13.86,3.78-.82A4.56,4.56,0,0,0,316,434l-1.08-5a4.56,4.56,0,0,0-5.4-3.47Z"/><path class="cls-15" d="M306.31,429.14l.62,2.84,4.19-6.51a4.51,4.51,0,0,0-1.63,0l-1,.21Z"/><path class="cls-15" d="M307.14,432.94l1.25,5.74,6.43-10a4.56,4.56,0,0,0-3-3.05Z"/><path id="_Path_2" data-name="&lt;Path&gt;" class="cls-16" d="M454.79,387.63h0a7.56,7.56,0,0,0-2.51,10.4l27.94,45.72a7.56,7.56,0,0,0,10.4,2.51h0a7.56,7.56,0,0,0,2.51-10.4l-.73-1.19-27.22-44.53A7.56,7.56,0,0,0,454.79,387.63Z"/><rect id="_Rectangle_" data-name="&lt;Rectangle&gt;" class="cls-17" x="426.83" y="276.55" width="19.52" height="89.75" rx="9.76" ry="9.76" transform="translate(12.95 -16.88) rotate(2.25)"/><path id="_Rectangle_2" data-name="&lt;Rectangle&gt;" class="cls-17" d="M453.49,341.49h0a9.76,9.76,0,0,1,9.76,9.76v80a0,0,0,0,1,0,0H443.73a0,0,0,0,1,0,0v-80A9.76,9.76,0,0,1,453.49,341.49Z" transform="translate(-134.94 293.17) rotate(-31.43)"/><path id="_Path_3" data-name="&lt;Path&gt;" class="cls-17" d="M433.57,238l-28.19,53,17.1,8.87a10.31,10.31,0,0,0,13.94-4.26l18.51-34.78a10.31,10.31,0,0,0-4.26-13.94Z"/><path id="_Path_4" data-name="&lt;Path&gt;" class="cls-18" d="M494,434.48l5.08,8.3L458,467.87l-.51-.83a3.87,3.87,0,0,1,.52-4.7l18.38-19.05a7.14,7.14,0,0,1,3.05-1.89c6.76-2.05,10.46-5.23,12.18-7.14A1.48,1.48,0,0,1,494,434.48Z"/><path id="_Path_5" data-name="&lt;Path&gt;" class="cls-19" d="M499.07,442.78l0,.07a2.93,2.93,0,0,1-1,4l-37.29,22.79a1.48,1.48,0,0,1-2-.49l-.8-1.31Z"/><path id="_Path_6" data-name="&lt;Path&gt;" class="cls-16" d="M481.53,344.75h0a7.56,7.56,0,0,0,1.17,10.63l41.82,33.5a7.56,7.56,0,0,0,10.63-1.17h0A7.56,7.56,0,0,0,534,377.07l-1.09-.87-40.73-32.63A7.56,7.56,0,0,0,481.53,344.75Z"/><rect id="_Rectangle_3" data-name="&lt;Rectangle&gt;" class="cls-20" x="439.52" y="240.9" width="19.52" height="89.75" rx="9.76" ry="9.76" transform="matrix(1, -0.08, 0.08, 1, -20.62, 35.35)"/><path id="_Rectangle_4" data-name="&lt;Rectangle&gt;" class="cls-20" d="M479.87,299.13h0a9.76,9.76,0,0,1,9.76,9.76v80a0,0,0,0,1,0,0H470.11a0,0,0,0,1,0,0v-80a9.76,9.76,0,0,1,9.76-9.76Z" transform="matrix(0.63, -0.78, 0.78, 0.63, -88.62, 503.46)"/><path id="_Path_7" data-name="&lt;Path&gt;" class="cls-18" d="M531.41,372.78l9.34,2.73L527.28,421.7l-.93-.27a3.87,3.87,0,0,1-2.78-3.83l.77-26.46a7.14,7.14,0,0,1,1-3.45c3.62-6.07,4.21-10.91,4.2-13.48A1.48,1.48,0,0,1,531.41,372.78Z"/><path id="_Path_8" data-name="&lt;Path&gt;" class="cls-19" d="M540.76,375.51l.07,0a2.93,2.93,0,0,1,2,3.64l-12.24,41.95a1.48,1.48,0,0,1-1.84,1l-1.47-.43Z"/><rect id="_Rectangle_5" data-name="&lt;Rectangle&gt;" class="cls-17" x="321.6" y="250.7" width="15.22" height="61.54" rx="7.61" ry="7.61" transform="translate(709.81 488.22) rotate(167.98)"/><path id="_Path_9" data-name="&lt;Path&gt;" class="cls-21" d="M327.63,218.6l-11.21,39.28a13.32,13.32,0,0,0,9.12,16.41l101.58,29L449.28,241,343.52,209.77A12.85,12.85,0,0,0,327.63,218.6Z"/><polygon id="_Path_10" data-name="&lt;Path&gt;" class="cls-20" points="325.81 224.99 332.76 224.89 336.51 231.66 341.29 230.63 367.26 263.1 331.98 262.93 328.53 258.84 322.95 259.26 317.7 253.4 325.81 224.99"/><polygon id="_Path_11" data-name="&lt;Path&gt;" class="cls-4" points="318.32 251.21 357.08 257.84 324.75 228.71 318.32 251.21"/><path id="_Path_12" data-name="&lt;Path&gt;" class="cls-22" d="M305,235l0-.16a4.81,4.81,0,0,0,3.45,6l10.19,2.91c2.63.75,4-1,4.76-3.62l0,.08c.75-2.63.52-4.92-2.11-5.67l-10.19-2.91A5,5,0,0,0,305,235Z"/><polygon id="_Path_13" data-name="&lt;Path&gt;" class="cls-23" points="324.75 228.71 319.5 233.25 322.77 240.76 332.14 239.6 324.75 228.71"/><polygon id="_Path_14" data-name="&lt;Path&gt;" class="cls-23" points="318.32 251.21 316.88 242.45 322.77 240.76 329.21 249.89 318.32 251.21"/><polygon id="_Path_15" data-name="&lt;Path&gt;" class="cls-21" points="322.77 240.76 328.36 240.07 331.97 246.76 327.14 246.96 322.77 240.76"/><polygon id="_Path_16" data-name="&lt;Path&gt;" class="cls-24" points="330.6 244.75 346.64 248.44 357.08 257.84 343.23 255.47 329.57 246.54 330.6 244.75"/><ellipse id="_Path_17" data-name="&lt;Path&gt;" class="cls-20" cx="386.16" cy="263.72" rx="3.11" ry="3.85" transform="translate(26.57 562.66) rotate(-74.07)"/><ellipse id="_Path_18" data-name="&lt;Path&gt;" class="cls-20" cx="406.39" cy="269.5" rx="3.11" ry="3.85" transform="translate(35.7 586.31) rotate(-74.07)"/><rect id="_Rectangle_6" data-name="&lt;Rectangle&gt;" class="cls-20" x="398.9" y="246.43" width="14.88" height="5.52" transform="translate(757.5 -73.14) rotate(105.93)"/><path id="_Path_19" data-name="&lt;Path&gt;" class="cls-25" d="M305.33,246.88c11-4.75,16.35-22.39,11.17-36.9-5.46-15.28-21.31-21.44-32.58-15-12.82,7.28-17.43,16.54-10.45,31.19,4.39,9.2,17.15,25.36,31.86,20.76Z"/><path id="_Path_20" data-name="&lt;Path&gt;" class="cls-21" d="M306.61,190.5c3.33,2.69,6.3,7.89,8,11.31a3.82,3.82,0,0,0-3.23.91,4.56,4.56,0,0,0-.39.37h0l-.18.2-.17.21-.17.24-.12.18-.19.3-.14.26-.13.27-.11.27-.11.28c-.06.19-.12.39-.17.58l0,0s0,.09,0,.13a.61.61,0,0,1,0,.08s0,.06,0,.09a.15.15,0,0,0,0,0,.13.13,0,0,0,0,0v.07l3.45,6a3.12,3.12,0,0,1,.51,2.4,3.79,3.79,0,0,1-.1.47,5,5,0,0,1-1.53,1.59,3.63,3.63,0,0,1-4.81-1.06l-1.24-2.16a3.6,3.6,0,0,0-4.65-1.48l-.57.27c-1.45-2.44-2.54-4.4-3.21-5.62-.83-1.52-2-2.19-5.48-.62l-.1,0-1,.46-.07,0c-.59.3-1.24.65-2,1.06l-15.29,8.74-.2.06a8.69,8.69,0,0,1-5.82-.47,5.24,5.24,0,0,1-2.58-2.54l4.23-2.42a9.89,9.89,0,0,1-4.27-2.42,23.09,23.09,0,0,1-3.62-4.08l7-4s4.1-9.13,12.29-12.93c12.9-6,21.49-.42,21.49-.42A17.57,17.57,0,0,1,306.61,190.5Z"/><path id="_Path_21" data-name="&lt;Path&gt;" class="cls-26" d="M290.75,206.73c-.59.3-1.24.65-2,1.06l-15.29,8.74-.2.06a8.69,8.69,0,0,1-5.82-.47,5.24,5.24,0,0,1-2.58-2.54s6,2,8.56,1.11l.2-.07C276.24,213.62,287.16,208.44,290.75,206.73Z"/><path id="_Path_22" data-name="&lt;Path&gt;" class="cls-26" d="M261.24,204.65s6.26,4.64,11,4c4-.53,20.25-9.13,20.25-9.13a31.32,31.32,0,0,1-4.26,4c-1.36,1-15.13,9.43-19.09,7.62A15.74,15.74,0,0,1,261.24,204.65Z"/><g id="_Group_" data-name="&lt;Group&gt;"><line id="_Path_23" data-name="&lt;Path&gt;" class="cls-21" x1="275.63" y1="222.72" x2="280.61" y2="219.53"/><path id="_Path_24" data-name="&lt;Path&gt;" class="cls-21" d="M275.17,223.75a1,1,0,0,1-1.08-1.64l4.6-3.72a1,1,0,1,1,1.24,1.53l-4.6,3.72Z"/></g><g id="_Group_2" data-name="&lt;Group&gt;"><line id="_Path_25" data-name="&lt;Path&gt;" class="cls-21" x1="290.8" y1="215.09" x2="296.08" y2="212.42"/><path id="_Path_26" data-name="&lt;Path&gt;" class="cls-21" d="M290.19,214.31a1,1,0,0,0,1.05,1.66l5.28-2.67a1,1,0,1,0-.89-1.76l-5.28,2.67Z"/></g><circle id="_Path_27" data-name="&lt;Path&gt;" cx="295.9" cy="220.06" r="1.33" transform="translate(-70.21 175.92) rotate(-29.76)"/><circle id="_Path_28" data-name="&lt;Path&gt;" cx="282.39" cy="226.77" r="1.33" transform="translate(-75.32 170.1) rotate(-29.76)"/><polygon id="_Path_29" data-name="&lt;Path&gt;" class="cls-27" points="289.93 222.81 294.28 230.04 291.91 230.92 289.93 222.81"/><path id="_Path_30" data-name="&lt;Path&gt;" class="cls-28" d="M300.62,219.17a7,7,0,0,1-3,3.1h0a7.46,7.46,0,0,1-4.18,1"/><path id="_Path_31" data-name="&lt;Path&gt;" class="cls-28" d="M286.4,227.31a7,7,0,0,1-3,3.1h0a7.46,7.46,0,0,1-4.18,1"/><g id="_Group_3" data-name="&lt;Group&gt;"><path id="_Path_32" data-name="&lt;Path&gt;" class="cls-25" d="M308.92,208a7.83,7.83,0,0,1,1-3.83c2.21-4.64,7.66-5,8.52.27.6,3.69,3,12.32-1,11A16.63,16.63,0,0,1,308.92,208Z"/><polygon id="_Path_33" data-name="&lt;Path&gt;" class="cls-27" points="312 206.85 316.35 203.28 316.5 211.96 314.61 205.82 312 206.85"/></g><path class="cls-12" d="M300.52,235.09c.52,1.43-2.13.78-4.77,1.74s-4.25,3.17-4.77,1.74,1.19-3.37,3.82-4.33S300,233.67,300.52,235.09Z"/><rect id="_Rectangle_7" data-name="&lt;Rectangle&gt;" class="cls-22" x="315.1" y="327.12" width="12.15" height="46.45" rx="6.07" ry="6.07" transform="translate(529.18 777.69) rotate(-163.44)"/><path id="_Path_34" data-name="&lt;Path&gt;" class="cls-12" d="M321.65,370.16s1.5,8.54,2.76,12c-4.14,3.18-8.26-2.82-8.26-2.82Z"/><path id="_Path_35" data-name="&lt;Path&gt;" class="cls-22" d="M310.23,365.85l-4,12.43s2.81,9.62,5.36,12.51c3,3.36,8.63,4.89,9.7,5.1,2.86.57-2.14-13.39-2.14-13.39L322,368.9Z"/><path id="_Rectangle_8" data-name="&lt;Rectangle&gt;" class="cls-17" d="M327.42,296.35h0A7.61,7.61,0,0,1,335,304V357.2a.69.69,0,0,1-.69.69H320.12a.31.31,0,0,1-.31-.31V304A7.61,7.61,0,0,1,327.42,296.35Z" transform="translate(101.99 -77.1) rotate(15.88)"/><rect id="_Rectangle_9" data-name="&lt;Rectangle&gt;" class="cls-4" x="310.09" y="346.24" width="20.14" height="10.63" transform="translate(526.86 779.77) rotate(-163.44)"/><rect id="_Rectangle_10" data-name="&lt;Rectangle&gt;" class="cls-20" x="335.71" y="209.3" width="15.22" height="61.54" rx="7.61" ry="7.61" transform="translate(-42.47 76.76) rotate(-12.02)"/><rect class="cls-24" x="306.28" y="58.23" width="51.39" height="25.57"/><text class="cls-29" transform="translate(316.99 78.59)"><tspan class="cls-30">T</tspan><tspan class="cls-31" x="8.78" y="0">A</tspan><tspan x="19.88" y="0">X</tspan></text><circle class="cls-32" cx="360.14" cy="150.91" r="12.66"/><path class="cls-33" d="M378,217.6a20.64,20.64,0,0,1-5.61-.71c-9.58-2.7-12.25-12.73-12.25-24.7"/><line class="cls-34" x1="360.14" y1="163.57" x2="360.14" y2="194.63"/><path class="cls-16" d="M357.66,14h5a0,0,0,0,1,0,0V143.11a2.48,2.48,0,0,1-2.48,2.48h0a2.48,2.48,0,0,1-2.48-2.48V14A0,0,0,0,1,357.66,14Z"/><ellipse class="cls-5" cx="374.34" cy="377.2" rx="4.52" ry="10.22" transform="translate(-142.19 502.15) rotate(-58.82)"/><path class="cls-21" d="M392.56,221.8a32.68,32.68,0,0,1-2-5c-4.6,2.84-6.4,3.91-12,4.36a20.76,20.76,0,0,1-6.29-.42L373.8,214a18.8,18.8,0,0,0,4.1.4,12,12,0,0,0,9.33-3.52,16.6,16.6,0,0,0-11.84-4.69,17.52,17.52,0,0,0-7.86,1.82h0a15.51,15.51,0,0,0-6.23,5.41c-.07,0-.38.15-.4.17-2.47.83-6.73-.68-8.57-1.22,0,0,4,5.15,14,8.87a41.52,41.52,0,0,0,5.12,2.06c17.07,6.13,45.41,11,45.41,11C417.51,232.66,397.52,231.45,392.56,221.8Z"/><path class="cls-5" d="M379.39,416.8c-8.45,14-24.82,19.54-36.55,12.44s-14.39-24.18-5.93-38.15c5.05-8.35,12.42-13.64,20.44-15.08,5.41-1-1.68-8.13,16.11,2.64s8.12,7.53,9.73,12.92C385.5,399.27,384.37,408.57,379.39,416.8Z"/><path class="cls-5" d="M382.49,379.27s5-.27,7.37,3.21-5.87,5.33-5.87,5.33l-5.3-4.15S379.54,380.1,382.49,379.27Z"/><path class="cls-5" d="M368.5,370.8s-2.06-4.51-6.26-5-2,7.68-2,7.68l6.13,2.77S369.13,373.8,368.5,370.8Z"/><path class="cls-35" d="M360.23,373.44a86.33,86.33,0,0,0,11.67,8.48,63.41,63.41,0,0,0,12.28,5.85l-.76,1.56s-3,.31-13-5.74-11.5-8.69-11.5-8.69Z"/><line class="cls-36" x1="345.73" y1="407.76" x2="358.83" y2="415.63"/><path class="cls-37" d="M365.4,404.69a5.78,5.78,0,0,0-2-7.93h0a5.78,5.78,0,0,0-7.93,2l-6.58,10.94"/><line class="cls-36" x1="349.26" y1="401.88" x2="358.52" y2="407.45"/><path class="cls-38" d="M375.88,385.73c-3-11.57-70.67-35.39-21.07-45.88"/><path class="cls-38" d="M374.33,384.46c14.09,12.55-2.44,47.2,7.29,54.11"/><rect id="_Rectangle_11" data-name="&lt;Rectangle&gt;" class="cls-22" x="336.86" y="289.18" width="12.15" height="46.45" rx="6.07" ry="6.07" transform="translate(644.92 664.53) rotate(-172.95)"/><path id="_Path_36" data-name="&lt;Path&gt;" class="cls-22" d="M334.7,329.5l-1.89,12.92s4.36,9,7.35,11.45c3.48,2.82,9.32,3.4,10.41,3.43,2.91.09-4.32-12.85-4.32-12.85l.56-13.87Z"/><path id="_Rectangle_12" data-name="&lt;Rectangle&gt;" class="cls-20" d="M345.25,257.7h0a7.61,7.61,0,0,1,7.61,7.61v53.24a.69.69,0,0,1-.69.69H338a.31.31,0,0,1-.31-.31V265.31a7.61,7.61,0,0,1,7.61-7.61Z" transform="translate(34.13 -36.52) rotate(6.37)"/><rect id="_Rectangle_13" data-name="&lt;Rectangle&gt;" class="cls-4" x="332.06" y="308.45" width="20.14" height="10.63" transform="translate(643.17 667.14) rotate(-172.95)"/><path class="cls-35" d="M348.69,327.38l.46-3.63a.57.57,0,0,0-.49-.64l-13.44-1.7-.61,4.75,13.44,1.7A.57.57,0,0,0,348.69,327.38Z"/><rect class="cls-39" x="341.21" y="324.57" width="4.79" height="0.72" transform="matrix(-0.13, 0.99, -0.99, -0.13, 709.32, 25.1)"/><rect class="cls-39" x="342.02" y="324.85" width="4.79" height="0.36" transform="translate(710.34 24.41) rotate(97.25)"/><rect class="cls-39" x="331.02" y="323.18" width="8.12" height="1.33" rx="0.67" ry="0.67" transform="matrix(-0.13, 0.99, -0.99, -0.13, 698.64, 32.33)"/><circle class="cls-35" cx="375.88" cy="386.76" r="3"/><polyline class="cls-40" points="303.4 419.2 303.4 407.86 303.4 406.89 303.4 406.17 303.4 402.55"/><line class="cls-40" x1="307.87" y1="396.18" x2="307.87" y2="394.48"/><line class="cls-40" x1="307.87" y1="411.13" x2="307.87" y2="398.4"/><path class="cls-40" d="M333.9,353.45a18.89,18.89,0,0,1,.22-1.9"/><path class="cls-40" d="M339.53,368.05a18.68,18.68,0,0,1-5.66-12.83"/><circle class="cls-41" cx="375.53" cy="217.6" r="4.71" transform="translate(117.37 566.5) rotate(-83.59)"/><path class="cls-11" d="M397.65,189.81a3.48,3.48,0,0,0-3.62,3.32q0,.75-.08,1.5t-.11,1.43q-.06.68-.14,1.36t-.17,1.29q-.09.61-.2,1.22t-.23,1.16q-.12.55-.25,1.1t-.27,1q-.14.49-.29,1t-.32.92q-.16.43-.33.86t-.35.81q-.18.38-.37.76t-.38.7q-.19.33-.4.66t-.41.61l-.42.56-.43.52-.44.48-.45.44-.45.4-.46.36-.46.33-.46.29-.47.26-.46.23-.46.2-.46.18-.46.15-.45.13-.44.11-.43.09-.42.07-.41.05a15.48,15.48,0,0,1-1.66.09q-.84,0-1.68-.07c-.23,0-.46-.06-.69-.07h-.35a4.15,4.15,0,0,0-.93.1,3.5,3.5,0,0,0,.66,6.89h.4l1,.07c7.54.33,13.55-2.57,17.4-8.37,3.07-4.64,4.82-11.22,5.18-19.55A3.48,3.48,0,0,0,397.65,189.81Z"/><path class="cls-42" d="M396.26,189.51a3.48,3.48,0,0,0-3.62,3.32q0,.75-.08,1.5t-.11,1.43q-.06.68-.14,1.36t-.17,1.29q-.09.61-.2,1.22t-.23,1.16q-.12.55-.25,1.1t-.27,1q-.14.49-.29,1t-.32.92q-.16.43-.33.86t-.35.81q-.18.38-.37.76t-.38.7q-.19.33-.4.66t-.41.61l-.42.56-.43.52-.44.48-.45.44-.45.4-.46.36-.46.33-.46.29-.47.26-.46.23-.46.2-.46.18-.46.15-.45.13-.44.11-.43.09-.42.07-.41.05a15.48,15.48,0,0,1-1.66.09q-.84,0-1.68-.07c-.23,0-.46-.06-.69-.07h-.35a4.15,4.15,0,0,0-.93.1,3.5,3.5,0,0,0,.66,6.89h.4l1,.07c7.54.33,13.55-2.57,17.4-8.37,3.07-4.64,4.82-11.22,5.18-19.55A3.48,3.48,0,0,0,396.26,189.51Z"/><line class="cls-43" x1="373.66" y1="111.63" x2="373.66" y2="66.76"/><line class="cls-43" x1="380.58" y1="79.78" x2="380.58" y2="28.06"/><line class="cls-43" x1="380.58" y1="90.42" x2="380.58" y2="84.19"/><g class="cls-1"><rect class="cls-2" x="277.33" y="299.71" width="33.9" height="18.27" transform="translate(-132.26 302.23) rotate(-45.5)"/><circle class="cls-2" cx="294.28" cy="308.84" r="6.38" transform="translate(-132.26 302.23) rotate(-45.5)"/><path class="cls-3" d="M275.89,314.53l3.92,3.85a6,6,0,0,0,.25-8.1Z"/><line class="cls-2" x1="294.18" y1="313.53" x2="298.38" y2="309.26"/><path class="cls-3" d="M294.81,305.75a2.27,2.27,0,0,0-3.2,0h0a2.27,2.27,0,0,0,0,3.2l3.57,3.51"/><line class="cls-2" x1="292.26" y1="311.65" x2="295.23" y2="308.63"/><path class="cls-3" d="M288.92,327.33,285,323.48a6,6,0,0,1,8.1-.39Z"/><path class="cls-3" d="M299.65,290.35l3.92,3.85a6,6,0,0,1-8.1.39Z"/><path class="cls-3" d="M312.68,303.16l-3.92-3.85a6,6,0,0,0-.25,8.1Z"/></g><rect class="cls-4" x="279.08" y="299.47" width="30.38" height="14.75" transform="translate(-130.84 301.63) rotate(-45.5)"/><path class="cls-5" d="M299.68,293.33l8,7.87-18.83,19.16-8-7.87,18.83-19.16m0-5-23.76,24.18,13,12.81,23.76-24.18-13-12.81Z"/><circle class="cls-6" cx="294.27" cy="306.85" r="6.38" transform="translate(-130.84 301.62) rotate(-45.5)"/><path class="cls-7" d="M275.87,312.53l3.92,3.85a6,6,0,0,0,.25-8.1Z"/><line class="cls-8" x1="294.16" y1="311.54" x2="298.36" y2="307.26"/><path class="cls-9" d="M294.79,303.75a2.27,2.27,0,0,0-3.2,0h0a2.27,2.27,0,0,0,0,3.2l3.57,3.51"/><line class="cls-8" x1="292.24" y1="309.65" x2="295.22" y2="306.63"/><path class="cls-7" d="M288.9,325.34,285,321.48a6,6,0,0,1,8.1-.39Z"/><path class="cls-7" d="M299.63,288.35l3.92,3.85a6,6,0,0,1-8.1.39Z"/><path class="cls-7" d="M312.66,301.16l-3.92-3.85a6,6,0,0,0-.25,8.1Z"/><g class="cls-1"><rect class="cls-2" x="377.99" y="319.5" width="18.27" height="33.9" transform="translate(-97.19 505.3) rotate(-60.21)"/><circle class="cls-2" cx="387.12" cy="336.45" r="6.38" transform="translate(-97.19 505.3) rotate(-60.21)"/><path class="cls-3" d="M397.29,352.8,400,348a6,6,0,0,0-7.9,1.81Z"/><line class="cls-2" x1="391.68" y1="335.36" x2="386.48" y2="332.39"/><path class="cls-3" d="M384,336.73a2.27,2.27,0,0,0,.84,3.09h0a2.27,2.27,0,0,0,3.09-.84l2.49-4.34"/><line class="cls-2" x1="390.35" y1="337.7" x2="386.67" y2="335.59"/><path class="cls-3" d="M406.37,336.94l-2.73,4.77A6,6,0,0,1,401.2,334Z"/><path class="cls-3" d="M367.87,336l2.73-4.77a6,6,0,0,1,2.44,7.73Z"/><path class="cls-3" d="M376.95,320.1l-2.73,4.77a6,6,0,0,0,7.9-1.81Z"/></g><rect class="cls-4" x="377.82" y="321.79" width="14.75" height="30.38" transform="translate(-98.62 503.88) rotate(-60.21)"/><path class="cls-5" d="M376.32,325.43l23.31,13.34-5.58,9.75-23.31-13.34,5.58-9.75m-1.31-4.8-9.07,15.86,29.42,16.84,9.07-15.86L375,320.63Z"/><circle class="cls-6" cx="385.19" cy="336.98" r="6.38" transform="translate(-98.61 503.89) rotate(-60.21)"/><path class="cls-7" d="M395.37,353.32l2.73-4.77a6,6,0,0,0-7.9,1.81Z"/><line class="cls-8" x1="389.76" y1="335.89" x2="384.56" y2="332.91"/><path class="cls-9" d="M382.07,337.26a2.27,2.27,0,0,0,.84,3.09h0a2.27,2.27,0,0,0,3.09-.84l2.49-4.34"/><line class="cls-8" x1="388.42" y1="338.22" x2="384.74" y2="336.11"/><path class="cls-7" d="M404.44,337.47l-2.73,4.77a6,6,0,0,1-2.44-7.73Z"/><path class="cls-7" d="M365.94,336.48l2.73-4.77a6,6,0,0,1,2.44,7.73Z"/><path class="cls-7" d="M375,320.63l-2.73,4.77a6,6,0,0,0,7.9-1.81Z"/></svg>