<svg id="Layer_1" data-name="Layer 1" xmlns="http://www.w3.org/2000/svg" viewBox="0 0 708.66 481.89"><defs><style>.cls-1{fill:#f7e3d5;}.cls-2{fill:#754d24;}.cls-10,.cls-3{fill:#f8ab8d;}.cls-3,.cls-5{fill-rule:evenodd;}.cls-4{fill:#8b6339;}.cls-5,.cls-9{fill:#dc846a;}.cls-6{fill:#fff;}.cls-7{fill:#cbdcf4;}.cls-8{fill:#111;}.cls-29,.cls-8{opacity:0.07;}.cls-11{fill:#a6bef4;}.cls-12{fill:#95bffc;}.cls-13{fill:#f294a6;}.cls-14{fill:#b2b2b2;}.cls-15{fill:#c5dfff;}.cls-16{fill:#b4d8fc;}.cls-17,.cls-21,.cls-23{fill:none;}.cls-17{stroke:#b4d8fc;}.cls-17,.cls-21,.cls-29{stroke-linecap:round;stroke-linejoin:round;}.cls-17,.cls-29{stroke-width:2px;}.cls-18{fill:#c4d7f7;}.cls-19{fill:#e8eef9;}.cls-20{fill:#a3a3a3;}.cls-21{stroke:#b2b2b2;}.cls-22{fill:#405aa8;}.cls-23,.cls-29{stroke:#fff;}.cls-23{stroke-miterlimit:10;stroke-width:3px;}.cls-24{fill:#e5e5e4;}.cls-25{fill:#3f5aa8;}.cls-26{fill:#353560;}.cls-27{fill:#f2f2f2;}.cls-28{font-size:7.15px;fill:#959799;font-family:Impact, Impact;}.cls-29{fill:#070707;}.cls-30{fill:#f2b8c1;}.cls-31{fill:#e0adb7;}.cls-32{fill:#605f5f;}.cls-33{fill:#e2e0e0;}.cls-34{fill:#636363;}.cls-35{fill:#91b985;}.cls-36{fill:#3d233e;}</style></defs><title>CS-L2-U4</title><circle class="cls-1" cx="349.18" cy="193.94" r="184.69"/><path id="_Path_" data-name="&lt;Path&gt;" class="cls-2" d="M513.69,162.81l-7.54-7-.5-3.5s-4.19-2.26-9.07,5A84.44,84.44,0,0,0,487.72,175c-3.37,9.7-4.64,15.38-5.12,18.34a3.21,3.21,0,0,0,2.08,3.53l5.13,1.86c1.62.59,15.12,5.19,15.77,3.59l14.26-35C521.29,167.49,513.69,162.81,513.69,162.81Z"/><g id="_Group_" data-name="&lt;Group&gt;"><path id="_Path_2" data-name="&lt;Path&gt;" class="cls-3" d="M495.64,191c10.35,5.47,19.61.24,25.85-8.7,6.57-9.41,3.62-21.07-4.69-24.94-9.45-4.4-16.68-3.26-22.26,6.77-3.5,6.3-7.58,20.29,1.1,26.87Z"/><g id="_Group_2" data-name="&lt;Group&gt;"><line id="_Path_3" data-name="&lt;Path&gt;" class="cls-4" x1="496.4" y1="167.68" x2="500.44" y2="169.31"/><path id="_Path_4" data-name="&lt;Path&gt;" class="cls-4" d="M496,168.29a.73.73,0,0,1,.66-1.28l4,1.62a.73.73,0,0,1-.54,1.35l-4-1.62Z"/></g><g id="_Group_3" data-name="&lt;Group&gt;"><line id="_Path_5" data-name="&lt;Path&gt;" class="cls-4" x1="507.29" y1="172.47" x2="511.15" y2="174.5"/><path id="_Path_6" data-name="&lt;Path&gt;" class="cls-4" d="M507.5,171.78a.73.73,0,0,0-.55,1.34l3.85,2a.73.73,0,0,0,.67-1.28l-3.85-2Z"/></g><circle id="_Path_7" data-name="&lt;Path&gt;" cx="507.49" cy="177.08" r="1.27" transform="translate(133.93 563.54) rotate(-65.21)"/><circle id="_Path_8" data-name="&lt;Path&gt;" cx="496.93" cy="172.68" r="1.27" transform="translate(131.78 551.39) rotate(-65.21)"/><polygon id="_Path_9" data-name="&lt;Path&gt;" class="cls-5" points="498.96 178.03 500.58 180.68 498.24 179.59 498.96 178.03"/></g><path id="_Path_10" data-name="&lt;Path&gt;" class="cls-6" d="M496.7,185.74c-2.2-.79-3.7-2.67-3.21-4l.11-.32,8.47,3-.11.32c-.44,1.23-2.21,2.08-4.6,1.22Z"/><rect class="cls-7" x="308.18" y="262.02" width="211.94" height="12.23" rx="6.12" ry="6.12"/><path class="cls-7" d="M503.71,260l5.6,1.08a6.33,6.33,0,0,0,7.41-5l11.8-61.17a6.33,6.33,0,0,0-5-7.41l-1.25,0a6.33,6.33,0,0,0-7.41,5L498.7,252.55A6.33,6.33,0,0,0,503.71,260Z"/><path class="cls-8" d="M525.14,158.8c-4.41-5.33-15.62-11.07-21.58-6.62-10.72,16.63,13.75,16.21,12.66,25-1.56,4.41-6.27,14.34-9.76,21.6l-6.4-2.72a9.39,9.39,0,0,0-3.88-.75,4,4,0,0,0-2.71-.42l-10.42,2,.16.79L467,200.84,455,176.77l.1-.08-.41-.45a3.16,3.16,0,0,0-.71-.78l-3.2-3.53s-4.74-1.33-6.6-1a10,10,0,0,0-4.64,2.72c-.69.74,2.68,1.73,4.71,2.24a2,2,0,0,0,.19,1.88,22.44,22.44,0,0,1,2.36-.41l2.73,2.74,12.67,25.25a3.17,3.17,0,0,0,2.66,2.26h.49a3.15,3.15,0,0,0,.49,0h.07l.28-.05,18.32-3.58.18.89,1.54-.3-17.91,42,32.45,13.83,19.41-45.56a9.43,9.43,0,0,0-3.48-11.56c2.39-4.74,4.68-9.92,7-15.83C530.67,169.94,530.67,165.47,525.14,158.8Z"/><path id="_Path_11" data-name="&lt;Path&gt;" class="cls-4" d="M502.93,203.09c3.34-6.93,9.95-20.57,11.86-25.95,1.09-8.75-23.38-8.33-12.66-25,6-4.45,17.17,1.29,21.58,6.62,5.53,6.67,5.53,11.14-1.44,28.63a174.33,174.33,0,0,1-9.62,20.71,3.06,3.06,0,0,1-3.23,1.5,25.77,25.77,0,0,1-4.48-1.42A3.76,3.76,0,0,1,502.93,203.09Z"/><rect id="_Rectangle_" data-name="&lt;Rectangle&gt;" class="cls-9" x="380.21" y="232.38" width="7.58" height="47.56" rx="3.79" ry="3.79" transform="translate(636.49 -130.25) rotate(89.45)"/><path id="_Path_12" data-name="&lt;Path&gt;" class="cls-9" d="M362.2,239.35,365.74,253a3.78,3.78,0,0,1-1.12,7.08c-.46,0-.85.36-1.34.38l-2.64.12a.81.81,0,0,1-.85-.8l-.19-20.22a.81.81,0,0,1,.8-.82h1A.81.81,0,0,1,362.2,239.35Z"/><path id="_Path_13" data-name="&lt;Path&gt;" class="cls-10" d="M460.64,205.06h0a3.19,3.19,0,0,1,2.52-3.75l29.07-5.68a3.19,3.19,0,0,1,3.74,2.51h0a3.19,3.19,0,0,1-2.52,3.75l-29.07,5.68A3.19,3.19,0,0,1,460.64,205.06Z"/><path id="_Path_14" data-name="&lt;Path&gt;" class="cls-6" d="M481.61,196.89l10.42-2a4,4,0,0,1,4.74,3.18h0a4,4,0,0,1-3.19,4.76l-10.37,2Z"/><path id="_Rectangle_2" data-name="&lt;Rectangle&gt;" class="cls-11" d="M490.17,196.87h8.9a13.19,13.19,0,0,1,13.19,13.19v45.77a0,0,0,0,1,0,0H477a0,0,0,0,1,0,0V210.06A13.19,13.19,0,0,1,490.17,196.87Z" transform="translate(128.28 -175.75) rotate(23.07)"/><ellipse id="_Path_15" data-name="&lt;Path&gt;" class="cls-6" cx="502.98" cy="200.11" rx="3.67" ry="5.64" transform="translate(259.84 683.75) rotate(-85)"/><rect id="_Rectangle_3" data-name="&lt;Rectangle&gt;" class="cls-10" x="412.54" y="239.01" width="7.58" height="36.07" rx="3.79" ry="3.79" transform="translate(667.75 -162.7) rotate(89.23)"/><rect id="_Rectangle_4" data-name="&lt;Rectangle&gt;" class="cls-10" x="378.3" y="233.72" width="7.58" height="47.56" rx="3.79" ry="3.79" transform="translate(634.44 -128.01) rotate(89.23)"/><path id="_Path_16" data-name="&lt;Path&gt;" class="cls-10" d="M360.23,240.77l3.59,13.66a3.78,3.78,0,0,1-1.09,7.08c-.46,0-.85.36-1.34.38l-2.64.13a.81.81,0,0,1-.85-.8L357.63,241a.81.81,0,0,1,.8-.82h1A.81.81,0,0,1,360.23,240.77Z"/><path id="_Path_17" data-name="&lt;Path&gt;" class="cls-10" d="M503.62,188.45h.11a3.21,3.21,0,0,0-3.47,3l-.62,7c-.16,1.82,1.15,2.5,3,2.66h-.06c1.82.16,3.29-.28,3.44-2.1l.62-7A3.31,3.31,0,0,0,503.62,188.45Z"/><path id="_Path_18" data-name="&lt;Path&gt;" class="cls-9" d="M449,177a53.79,53.79,0,0,0-6,.8c-1.37-2.17,1.75-3.91,1.75-3.91Z"/><path id="_Path_19" data-name="&lt;Path&gt;" class="cls-10" d="M465.28,207.29h0a3.19,3.19,0,0,1-4.29-1.42L447.71,179.4a3.19,3.19,0,0,1,1.41-4.28h0a3.19,3.19,0,0,1,4.29,1.42L466.69,203A3.19,3.19,0,0,1,465.28,207.29Z"/><path id="_Path_20" data-name="&lt;Path&gt;" class="cls-10" d="M453.63,176.69l-4.31-4.75s-4.74-1.33-6.6-1a10,10,0,0,0-4.64,2.72c-1,1,6.13,2.59,6.13,2.59l4.5,4.51Z"/><rect class="cls-12" x="301.68" y="274.25" width="226.41" height="13.51"/><rect class="cls-12" x="524.07" y="187.38" width="10.73" height="186.43"/><rect class="cls-12" x="296.31" y="256.22" width="10.73" height="112.7"/><path class="cls-11" d="M396,246.46H500.54a0,0,0,0,1,0,0v9.24a6.32,6.32,0,0,1-6.32,6.32H396a0,0,0,0,1,0,0V246.46A0,0,0,0,1,396,246.46Z"/><path class="cls-8" d="M474.09,302.43H320.19a4.41,4.41,0,0,1-4.41-4.41s-8.37-51.68,1.17-59.28,137.79-19,160.84-14.5.71,73.78.71,73.78A4.41,4.41,0,0,1,474.09,302.43Z"/><path class="cls-13" d="M472.66,302.43H318.76a4.41,4.41,0,0,1-4.41-4.41s-8.37-51.68,1.17-59.28,137.79-19,160.84-14.5.71,73.78.71,73.78A4.41,4.41,0,0,1,472.66,302.43Z"/><path class="cls-8" d="M518.37,206.72a4,4,0,0,0-5.62,1l-6,8.74.67.45-10.08,14.6-2.12.35-.26-1.19L484.17,233l.15.7-14.57,2.42v0l-.28.07-.1,0a3.2,3.2,0,0,0-.63.17l-.14,0a39.76,39.76,0,0,1-4.66-.83,2,2,0,0,0-.17,2.07l-.33.08s-6.94-2.19-6.61-.8a10,10,0,0,0,2.69,4.66c1.47,1.2,6.24,2.39,6.24,2.39l4.58-1.49h.07l15.26-2.54.27,1.25,10.76-2.31-.16-.75,3.1-.52a3.8,3.8,0,0,0,2.24-1.45l10.8-15.64.75.51,6-8.7A4,4,0,0,0,518.37,206.72Z"/><path id="_Path_21" data-name="&lt;Path&gt;" class="cls-10" d="M467.51,240.18h0a3.19,3.19,0,0,1,2.57-3.71l29.14-5.28a3.19,3.19,0,0,1,3.7,2.56h0a3.19,3.19,0,0,1-2.57,3.71l-29.14,5.28A3.19,3.19,0,0,1,467.51,240.18Z"/><rect class="cls-6" x="485.64" y="231.73" width="11" height="8.37" transform="translate(-40.29 115.66) rotate(-12.91)"/><path id="_Path_22" data-name="&lt;Path&gt;" class="cls-9" d="M470.64,236.83a53.79,53.79,0,0,1-6-.91c-1.4,2.14,1.68,3.94,1.68,3.94Z"/><path id="_Path_23" data-name="&lt;Path&gt;" class="cls-10" d="M472.66,242.23l-6.07,2.07s-4.79-1.13-6.27-2.3a10,10,0,0,1-2.75-4.62c-.35-1.39,6.62.7,6.62.7l6.28-1.71Z"/><path id="_Path_24" data-name="&lt;Path&gt;" class="cls-10" d="M498.16,236.86h0a3.19,3.19,0,0,1-.88-4.43l16.48-24.61a3.19,3.19,0,0,1,4.42-.88h0a3.19,3.19,0,0,1,.88,4.43L502.58,236A3.19,3.19,0,0,1,498.16,236.86Z"/><path id="_Path_25" data-name="&lt;Path&gt;" class="cls-6" d="M507.16,216.23l5.91-8.82a4,4,0,0,1,5.6-1.12h0a4,4,0,0,1,1.12,5.62l-5.88,8.78Z"/><circle class="cls-14" cx="526.3" cy="376.4" r="7.27"/><circle class="cls-14" cx="568.3" cy="376.4" r="7.27"/><rect class="cls-14" x="514.5" y="364.83" width="65.42" height="5.72" rx="2.86" ry="2.86"/><rect class="cls-14" x="545.07" y="107.81" width="4.53" height="258.45"/><rect class="cls-14" x="518.88" y="105.36" width="56.91" height="3.52"/><rect class="cls-14" x="574.45" y="101.21" width="1.34" height="7.67"/><rect class="cls-14" x="518.88" y="101.21" width="1.34" height="7.67"/><rect class="cls-15" x="520.02" y="112.12" width="19.05" height="25.75"/><polyline class="cls-16" points="520.02 137.88 525 147.18 534.8 147.18 539.07 137.88"/><rect class="cls-14" x="529.14" y="107.81" width="0.82" height="4.61"/><path class="cls-17" d="M530,145.92c-.13,17.53,5.18,78.69-39.5,87.64"/><circle class="cls-18" cx="490.6" cy="233.56" r="1.27"/><rect class="cls-19" x="524.76" y="118.5" width="10.08" height="4.65"/><circle class="cls-20" cx="568.3" cy="377.03" r="3.22"/><circle class="cls-20" cx="526.21" cy="377.03" r="3.22"/><line class="cls-21" x1="526.21" y1="120.18" x2="533.27" y2="120.18"/><line class="cls-21" x1="526.27" y1="121.47" x2="531.04" y2="121.47"/><path class="cls-8" d="M386,107.59c-1.08-.38-7-2-11.52-.54-3.86,1.26-11.53,8.49-11.53,8.49l-3.47,13.31h0l-14.44,41.82-4.77-5.54,1.4-1.2-27.8-32.17a8.51,8.51,0,0,0-7.1-2.93,17.3,17.3,0,0,0-4.64-1.27l-9.78-1.25h0a5.67,5.67,0,0,0-2.21-4.88c1,.17,2,.3,3.08.37,16.28-1.45,22.23-22.47,22.8-33.27a37.7,37.7,0,0,0-.42-8.49,8.35,8.35,0,0,0,3.67-2.43,5.86,5.86,0,0,0,1.58-3.73l-5.41-.69a11.06,11.06,0,0,0,3.38-4.33v0a19.1,19.1,0,0,0,1.89-5.29c.07-.29.1-.46.1-.46h0l-9-1.15s-8.15-7.68-18.24-8.11c-15.91-.69-22.4,8.77-22.4,8.77a17.11,17.11,0,0,0-6.65-2.07c1.75,2.63,2.81,3.83,3.3,7.35C266,71.46,265,76.81,264.63,81c-2.2.36-3.73,2.3-3,5.49.9,3.83,2.08,13.17,5.34,10.28a13.21,13.21,0,0,0,.95-.93c1.31,8.41,4.69,15.8,10.63,20.55l-.29,2.29c-3.3.71-5.72,2.6-6,5.09l-10.34-1.32a16.83,16.83,0,0,0-6.27.38,8.49,8.49,0,0,0-6.6,1.88l-28.68,23.7,8.17-33a110.08,110.08,0,0,1,7.9-10,4.58,4.58,0,0,0-5.1-2.41c1.5-1.52,10.58-10.88,7.85-11.56C238,91,232,90,227.64,91.81c-3.73,1.6-10.72,9.49-10.72,9.49l-2.26,13.57h0l-13,52.7a6.81,6.81,0,0,0,11.81,6.53l12.66-10.52,1,1.25,13.76-11.37L228.3,252.25l8.09,1-.16,8.62s0,.06,0,.09v.8c0,.1,0,.19,0,.28V446.34h2.39v8a1.56,1.56,0,0,0-1.43,1.56v10.41a3.11,3.11,0,0,0,3.12,3.12h46.37a1.57,1.57,0,0,0,1.57-1.57v-2.66a4.1,4.1,0,0,0-3.07-4L258,454.09a7.8,7.8,0,0,0-2.46-.22v-7.53h2.53V273.67l19.94.16,16.46,83.94a11,11,0,0,0,.33,1.26l.25,83.64h2.73v8.27a1.57,1.57,0,0,0-1.58,1.57v10.41a3.11,3.11,0,0,0,3.12,3.12h46.37a1.57,1.57,0,0,0,1.57-1.57v-2.66a4.1,4.1,0,0,0-3.07-4L317,450.75a7.82,7.82,0,0,0-2.3-.23v-7.85h1.68a.51.51,0,0,0,.51-.51l-.25-84.5A10.53,10.53,0,0,0,316,354c0-.13,0-.25-.05-.38l-17.46-89.05a10.81,10.81,0,0,0,.09-1.23l0-2.07,4.06.52,13-101.95L328.8,175l1.24-1.06,11.61,13.51a7.8,7.8,0,0,0,12.67-2l19-55a110.08,110.08,0,0,1,8.77-9.28,4.58,4.58,0,0,0-4.87-2.86C378.82,117,388.71,108.52,386,107.59Z"/><path id="_Path_26" data-name="&lt;Path&gt;" class="cls-10" d="M347.57,189.18h0a6.78,6.78,0,0,0,8.66-4.11l19-55.07a6.78,6.78,0,0,0-4.11-8.66h0a6.78,6.78,0,0,0-8.66,4.11l-19,55.07A6.78,6.78,0,0,0,347.57,189.18Z"/><path id="_Path_27" data-name="&lt;Path&gt;" class="cls-9" d="M375,130.28s5.91-6.94,8.92-9.46c-2.06-5.09-9-1.84-9-1.84Z"/><path id="_Path_28" data-name="&lt;Path&gt;" class="cls-10" d="M361.44,128.41l3.47-13.31s7.68-7.23,11.53-8.49c4.49-1.47,10.44.17,11.52.54,2.9,1-9.08,11-9.08,11l-4.06,13Z"/><path id="_Path_29" data-name="&lt;Path&gt;" class="cls-10" d="M306.39,133.29h0a6.78,6.78,0,0,0-.81,9.55l38,44.18a6.78,6.78,0,0,0,9.55.81h0a6.78,6.78,0,0,0,.81-9.55l-38-44.18A6.78,6.78,0,0,0,306.39,133.29Z"/><g id="_Clip_Group_" data-name="&lt;Clip Group&gt;"><path id="_Clipping_Path_" data-name="&lt;Clipping Path&gt;" class="cls-22" d="M343.64,163.5l-12.93,11.08-27.8-32.17a8.54,8.54,0,0,1,.92-12h0a8.54,8.54,0,0,1,12,.92Z"/></g><line id="_Path_30" data-name="&lt;Path&gt;" class="cls-23" x1="339.7" y1="158.94" x2="326.88" y2="170.15"/><circle id="_Path_31" data-name="&lt;Path&gt;" class="cls-24" cx="296.71" cy="255.62" r="2.6"/><path id="_Path_32" data-name="&lt;Path&gt;" class="cls-25" d="M249,388.07h0a8.46,8.46,0,0,1,8.46,8.46v60a8.46,8.46,0,0,1-8.46,8.46h0a8.46,8.46,0,0,1-8.46-8.46v-60A8.46,8.46,0,0,1,249,388.07Z"/><path id="_Rectangle_5" data-name="&lt;Rectangle&gt;" class="cls-26" d="M238.14,251H260a0,0,0,0,1,0,0V435a10.92,10.92,0,0,1-10.92,10.92h0A10.92,10.92,0,0,1,238.14,435V251A0,0,0,0,1,238.14,251Z" transform="translate(498.12 696.9) rotate(180)"/><path class="cls-12" d="M287.09,460.74l-27.18-7.08a7.58,7.58,0,0,0-3.81,0c-7.26,1.88-12.36,1-15,.27a1.57,1.57,0,0,0-2,1.51v10.41a3.11,3.11,0,0,0,3.12,3.12h46.37a1.57,1.57,0,0,0,1.57-1.57v-2.66A4.1,4.1,0,0,0,287.09,460.74Z"/><path id="_Path_33" data-name="&lt;Path&gt;" class="cls-25" d="M308.16,384.73h0a8.46,8.46,0,0,1,8.46,8.46v60a8.46,8.46,0,0,1-8.46,8.46h0a8.46,8.46,0,0,1-8.46-8.46v-60A8.46,8.46,0,0,1,308.16,384.73Z"/><path id="_Path_34" data-name="&lt;Path&gt;" class="cls-26" d="M286.78,253.27l.68-.13a10.57,10.57,0,0,1,12.39,8.37l18,91.63A10.92,10.92,0,0,1,309.17,366h0a10.92,10.92,0,0,1-12.79-8.62l-18-91.69A10.57,10.57,0,0,1,286.78,253.27Z"/><path id="_Path_35" data-name="&lt;Path&gt;" class="cls-26" d="M307.28,346.66H308a10.57,10.57,0,0,1,10.57,10.57l.25,84.5a.51.51,0,0,1-.51.51H297l-.25-85A10.57,10.57,0,0,1,307.28,346.66Z"/><path class="cls-12" d="M346.11,457.4l-27.18-7.08a7.58,7.58,0,0,0-3.81,0c-7.26,1.88-12.36,1-15,.27a1.57,1.57,0,0,0-2,1.51v10.41a3.11,3.11,0,0,0,3.12,3.12h46.37a1.57,1.57,0,0,0,1.57-1.57v-2.66A4.1,4.1,0,0,0,346.11,457.4Z"/><path id="_Path_36" data-name="&lt;Path&gt;" class="cls-26" d="M238.5,242.36l62.32.5-.37,20a10.71,10.71,0,0,1-10.79,10.62l-40.91-.33a10.71,10.71,0,0,1-10.62-10.79Z"/><g id="_Group_4" data-name="&lt;Group&gt;"><g id="_Clip_Group_2" data-name="&lt;Clip Group&gt;"><path id="_Rectangle_6" data-name="&lt;Rectangle&gt;" class="cls-6" d="M238.34,124.05h74.94a0,0,0,0,1,0,0V233.51a23.59,23.59,0,0,1-23.59,23.59h-27a24.38,24.38,0,0,1-24.38-24.38V124.05a0,0,0,0,1,0,0Z" transform="translate(525.24 414.57) rotate(-172.72)"/></g></g><path id="_Path_37" data-name="&lt;Path&gt;" class="cls-10" d="M259.93,127.74h0a6.78,6.78,0,0,1-.79,9.55l-44.81,37.23a6.78,6.78,0,0,1-9.55-.79h0a6.78,6.78,0,0,1,.79-9.55L250.38,127A6.78,6.78,0,0,1,259.93,127.74Z"/><g id="_Clip_Group_3" data-name="&lt;Clip Group&gt;"><path id="_Clipping_Path_2" data-name="&lt;Clipping Path&gt;" class="cls-22" d="M218.17,151.32l10.9,13.08,32.77-27.08a8.54,8.54,0,0,0,1.09-12h0a8.54,8.54,0,0,0-12-1.09Z"/></g><line id="_Path_38" data-name="&lt;Path&gt;" class="cls-23" x1="222.81" y1="147.48" x2="233.58" y2="160.67"/><ellipse id="_Path_39" data-name="&lt;Path&gt;" class="cls-22" cx="284.23" cy="124.59" rx="6.61" ry="10.17" transform="translate(124.63 390.75) rotate(-82.72)"/><path id="_Path_40" data-name="&lt;Path&gt;" class="cls-10" d="M287.32,106l-.19,0a5.38,5.38,0,0,1,4.61,6.18L290.24,124c-.39,3-2.78,3.69-5.82,3.3h.09c-3-.39-5.28-1.64-4.9-4.67l1.5-11.76A5.54,5.54,0,0,1,287.32,106Z"/><path id="_Path_41" data-name="&lt;Path&gt;" class="cls-3" d="M295.18,121.38c-17.5-1.29-25.11-15.31-25.91-31.63-.85-17.19,12.18-29.66,25.82-28,15.51,1.93,23.79,9.13,22.89,26.32-.57,10.79-6.52,31.81-22.8,33.27Z"/><path id="_Path_42" data-name="&lt;Path&gt;" class="cls-4" d="M269.81,67.45c-2.29,4.21-3.14,10.86-3.46,15.12a4.27,4.27,0,0,1,3.73-.44,5.1,5.1,0,0,1,.56.21h0l.27.13.27.14.28.17.2.13.32.24.25.21.25.22.23.23.23.25c.15.17.29.35.43.53,0,0,0,0,0,0l.08.13,0,.08.05.08,0,0,0,0v0a.21.21,0,0,1,0,0l-1,7.72a3.49,3.49,0,0,0,.49,2.7,4.24,4.24,0,0,0,.31.44,5.57,5.57,0,0,0,2.27,1,4.06,4.06,0,0,0,4.52-3.15l.35-2.76a4,4,0,0,1,4.17-3.52l.71,0c.45-3.14.75-5.63.92-7.19.21-1.92,1.09-3.1,5.4-3h.13c.38,0,.78,0,1.21.06h.09c.74.06,1.57.14,2.48.26l19.55,2.5.23,0a9.73,9.73,0,0,0,5.81-3,5.86,5.86,0,0,0,1.58-3.73l-5.41-.69a11.06,11.06,0,0,0,3.38-4.33,25.83,25.83,0,0,0,2-5.77l-9-1.15s-8.15-7.68-18.24-8.11c-15.91-.69-22.4,8.77-22.4,8.77a17.11,17.11,0,0,0-6.65-2.07C268.26,62.73,269.32,63.93,269.81,67.45Z"/><path id="_Path_43" data-name="&lt;Path&gt;" class="cls-2" d="M293.16,77.44c.74.06,1.57.14,2.48.26l19.55,2.5.23,0a9.73,9.73,0,0,0,5.81-3,5.86,5.86,0,0,0,1.58-3.73s-5.33,4.65-8.37,4.8h-.24C311.11,78.35,297.6,77.67,293.16,77.44Z"/><g id="_Group_5" data-name="&lt;Group&gt;"><line id="_Path_44" data-name="&lt;Path&gt;" class="cls-4" x1="311.32" y1="89.2" x2="305.19" y2="88.09"/><path id="_Path_45" data-name="&lt;Path&gt;" class="cls-4" d="M311.33,90.23a1,1,0,0,0,.17-2.06l-6.13-1.1a1,1,0,0,0-.37,2l6.13,1.1Z"/></g><g id="_Group_6" data-name="&lt;Group&gt;"><line id="_Path_46" data-name="&lt;Path&gt;" class="cls-4" x1="295.25" y1="86.82" x2="289.04" y2="86.35"/><path id="_Path_47" data-name="&lt;Path&gt;" class="cls-4" d="M295.53,85.82a1,1,0,0,1-.35,2L289,87.38a1,1,0,0,1,.16-2.07l6.21.47Z"/></g><circle id="_Path_48" data-name="&lt;Path&gt;" cx="292.08" cy="93.18" r="1.4" transform="matrix(0.13, -0.99, 0.99, 0.13, 162.64, 371.11)"/><circle id="_Path_49" data-name="&lt;Path&gt;" cx="306.89" cy="95.56" r="1.4" transform="translate(173.21 387.87) rotate(-82.72)"/><path id="_Path_50" data-name="&lt;Path&gt;" class="cls-2" d="M322.77,62.66s-4.49,7.48-9.66,8.86c-4.39,1.17-24.84-.78-24.84-.78a35,35,0,0,0,6.12,2.32c1.83.43,19.68,3.28,23-.3A17.61,17.61,0,0,0,322.77,62.66Z"/><g id="_Group_7" data-name="&lt;Group&gt;"><path id="_Path_51" data-name="&lt;Path&gt;" class="cls-3" d="M274.2,85.67a8.24,8.24,0,0,0-2.46-3.34c-4-3.62-9.47-1.8-8.18,3.69.9,3.83,2.08,13.17,5.34,10.28A17.5,17.5,0,0,0,274.2,85.67Z"/><polygon id="_Path_52" data-name="&lt;Path&gt;" class="cls-5" points="270.74 85.77 265.07 84.05 268.42 92.55 267.79 85.82 270.74 85.77"/></g><polygon id="_Path_53" data-name="&lt;Path&gt;" class="cls-5" points="299.9 92.17 298.16 104.24 300.84 103.98 299.9 92.17"/><rect class="cls-27" x="293.69" y="155.47" width="16.6" height="8.73" transform="translate(22.69 -36.98) rotate(7.28)"/><text class="cls-28" transform="translate(296.37 161.95) rotate(7.28)">Ben</text><path id="_Path_54" data-name="&lt;Path&gt;" class="cls-10" d="M208.22,176.21h0a6.78,6.78,0,0,0,8.25-4.87l14-56.56a6.78,6.78,0,0,0-4.87-8.25h0a6.78,6.78,0,0,0-8.25,4.87l-14,56.56A6.78,6.78,0,0,0,208.22,176.21Z"/><path id="_Path_55" data-name="&lt;Path&gt;" class="cls-9" d="M230.29,115.08s5.26-7.45,8-10.22c-2.51-4.89-9.13-1-9.13-1Z"/><path id="_Path_56" data-name="&lt;Path&gt;" class="cls-10" d="M216.57,114.44l2.26-13.57s7-7.89,10.72-9.49c4.34-1.86,10.41-.77,11.52-.49,3,.74-8.06,11.78-8.06,11.78L230.14,116Z"/><ellipse class="cls-9" cx="301.42" cy="110.66" rx="2.73" ry="1.92"/><path class="cls-29" d="M247.09,92.81a3.1,3.1,0,0,0-4.38,0l-.83.83a13.24,13.24,0,0,0,0-2.77L245,85.17c1.39-2.54-2.09-7.12-2.09-7.12s-5.73-.45-7.12,2.09l-.45.82a13.29,13.29,0,0,0-4.56-1.65h0a13.3,13.3,0,0,0-5.42.24l-.11-.72c-.42-2.87-6-4.43-6-4.43h0s-4.85,3.09-4.43,6L216,88.17a13.35,13.35,0,0,0-.69,3.23l-.15,1.78-1.05-1.6A3.1,3.1,0,0,0,208.9,95l5.3,8-4.79,17.4,28.34,4.6,1.32-18.56.37-1.61c.06-.05.13-.1.19-.16l7.47-7.52A3.1,3.1,0,0,0,247.09,92.81Z"/><path class="cls-29" d="M399.49,89a5.25,5.25,0,0,0-7.42.34l-7,7.65a13.43,13.43,0,0,0-2.47-1.36h0a13.51,13.51,0,0,0-1.43-.51l1-10.87a5.25,5.25,0,1,0-10.45-1l-1.24,13.24a13.28,13.28,0,0,0-5.77,7.2l-.57,1.69-.64-1.8a3.1,3.1,0,0,0-4-1.87h0a3.1,3.1,0,0,0-1.87,4l3.24,9.06-8.78,15.76,26.44,11.2L384.3,124l.74-1.48.22-.11,9-5.53a3.1,3.1,0,0,0-3.24-5.29l-1,.61a13.24,13.24,0,0,0,.62-5.75l9.14-10A5.25,5.25,0,0,0,399.49,89Z"/><rect class="cls-30" x="371.47" y="77.1" width="10.5" height="26.53" rx="5.25" ry="5.25" transform="translate(10.11 -34.87) rotate(5.37)"/><rect class="cls-30" x="386.22" y="84.34" width="10.5" height="25.22" rx="5.25" ry="5.25" transform="translate(167.43 -238.39) rotate(42.34)"/><rect class="cls-31" x="388.57" y="88.54" width="6.56" height="15.98" rx="3.28" ry="3.28" transform="translate(167.25 -238.76) rotate(42.34)"/><rect class="cls-31" x="373.6" y="80.67" width="6.56" height="15.98" rx="3.28" ry="3.28" transform="matrix(1, 0.09, -0.09, 1, 9.95, -34.89)"/><path class="cls-30" d="M379.08,140.33l-26.44-11.2,9.07-16.28,3.51-10.53a13.36,13.36,0,0,1,17.88-8.07h0a13.36,13.36,0,0,1,6.72,18.3l-5.06,10.06Z"/><rect class="cls-30" x="385.54" y="107.23" width="6.2" height="16.8" rx="3.1" ry="3.1" transform="translate(284.46 -276.24) rotate(58.54)"/><rect class="cls-30" x="359.79" y="99.86" width="6.2" height="16.8" rx="3.1" ry="3.1" transform="translate(-15.25 128.66) rotate(-19.7)"/><circle class="cls-32" cx="374.85" cy="102.99" r="3.26" transform="translate(133.84 408) rotate(-67.05)"/><circle class="cls-32" cx="382.94" cy="106.3" r="3.26" transform="translate(135.72 417.47) rotate(-67.05)"/><ellipse class="cls-32" cx="376.91" cy="109.56" rx="0.65" ry="1.2" transform="translate(129.04 413.91) rotate(-67.05)"/><circle class="cls-6" cx="375.97" cy="102.75" r="1.19" transform="translate(134.74 408.89) rotate(-67.05)"/><circle class="cls-6" cx="384.54" cy="106.38" r="1.19" transform="translate(136.63 418.99) rotate(-67.05)"/><path class="cls-6" d="M381.28,112.95a5.7,5.7,0,1,1-10.5-4.44"/><path class="cls-33" d="M222.91,98.87h0a5.25,5.25,0,0,1-6-4.43l-2.33-15.87c-.42-2.87,4.43-6,4.43-6h0s5.53,1.56,6,4.43l2.33,15.87A5.25,5.25,0,0,1,222.91,98.87Z"/><path class="cls-33" d="M230.59,98.4h0a5.25,5.25,0,0,1-2.09-7.12l7.05-12.93c1.39-2.54,7.12-2.09,7.12-2.09h0s3.48,4.58,2.09,7.12L237.71,96.3A5.25,5.25,0,0,1,230.59,98.4Z"/><path class="cls-34" d="M233.08,93.84h0a3.28,3.28,0,0,1-1.31-4.45l4.51-8.27c.87-1.59,4.45-1.31,4.45-1.31h0s2.18,2.86,1.31,4.45l-4.51,8.27A3.28,3.28,0,0,1,233.08,93.84Z"/><path class="cls-34" d="M221.9,92h0a3.28,3.28,0,0,1-3.72-2.77l-1.37-9.32c-.26-1.79,2.77-3.72,2.77-3.72h0s3.46,1,3.72,2.77l1.37,9.32A3.28,3.28,0,0,1,221.9,92Z"/><path class="cls-33" d="M237.56,123.24l-28.34-4.6,4.95-18,.92-11.06a13.36,13.36,0,0,1,15.45-12.08h0a13.36,13.36,0,0,1,10.87,16.18l-2.53,11Z"/><rect class="cls-33" x="237.88" y="88.57" width="6.2" height="16.8" rx="3.1" ry="3.1" transform="translate(138.4 -141.68) rotate(44.82)"/><rect class="cls-33" x="211.12" y="87.52" width="6.2" height="16.8" rx="3.1" ry="3.1" transform="matrix(0.83, -0.55, 0.55, 0.83, -17.41, 133.86)"/><circle class="cls-32" cx="224.59" cy="87.96" r="3.26" transform="matrix(0.16, -0.99, 0.99, 0.16, 101.75, 295.54)"/><circle class="cls-32" cx="233.23" cy="89.27" r="3.26" transform="matrix(0.16, -0.99, 0.99, 0.16, 107.72, 305.17)"/><ellipse class="cls-32" cx="228.15" cy="93.87" rx="0.65" ry="1.2" transform="translate(98.91 304.01) rotate(-80.77)"/><circle class="cls-6" cx="225.63" cy="87.47" r="1.19" transform="translate(103.11 296.15) rotate(-80.77)"/><circle class="cls-6" cx="234.81" cy="88.96" r="1.19" transform="translate(109.34 306.46) rotate(-80.77)"/><polygon class="cls-34" points="224.95 96.41 234.47 95.55 228.2 98.65 224.95 96.41"/><path class="cls-8" d="M214.68,168.45c-6.63.23-12.13,4.88-14.29,7-8.73,3.17-16.41,11.57-22.08,24.35a101.44,101.44,0,0,0-6.7,22.11,139.89,139.89,0,0,1,3.13-39.57c2.31-1.23,9-5.28,11.19-12,2.72-8.13-2.16-17.09-2.16-17.09s-9.27,4.23-12,12.36c-2.06,6.17.25,12.82,1.48,15.66q-.87,3.9-1.53,7.78a18.4,18.4,0,0,0-2.48-8c-4.49-7.31-14.48-9.33-14.48-9.33s-2.72,9.83,1.77,17.13c3.87,6.3,11.83,8.67,13.95,9.2-1.17,10.58-.11,31.65-.2,32.4A105,105,0,0,0,162.83,204c-4.8-10.83-11.06-18.51-18.17-22.54-.53-2.88-2.35-10-7.71-14-6.85-5.16-16.89-3.38-16.89-3.38s1.06,10.14,7.91,15.3c5.49,4.14,13,3.81,15.81,3.52,8.34,4.69,15.28,14.65,20,27.9-2.09-2.83-6-7.13-11.44-8.55-8.3-2.17-16.91,3.29-16.91,3.29s4.84,9,13.14,11.14c6.9,1.8,14-1.67,16.21-2.89A116.43,116.43,0,0,1,169,233.56c-2.28,0-4.35,0-5.61-.08.09,7.59,2.17,4.57,3.05,13.86s-2.14,16.42-5.62,28.29,1.24,34,1.76,45.67c5.1-.11,12.92.07,17.8,0,.52-11.62,5.24-33.8,1.76-45.67s-6.51-19-5.62-28.29,3-6.27,3.05-13.86c-1.39,0-3.84.07-6.47.08q-.5-2.63-.86-5.38a114,114,0,0,1,4.57-19.93c1.43.69,9.56,4.34,16.9,1.74,8.08-2.86,12.15-12.21,12.15-12.21s-9-4.71-17.12-1.85c-6,2.13-9.81,7.85-11.35,10.64,5.22-14.79,13.26-25.48,22.9-29.33,2.17,1.87,8.09,6.35,14.88,6.12,8.57-.29,15.26-8,15.26-8S223.25,168.16,214.68,168.45Z"/><path class="cls-35" d="M215.9,168.45c-6.63.23-12.13,4.88-14.29,7-8.73,3.17-16.41,11.57-22.08,24.35a101.45,101.45,0,0,0-6.7,22.11A139.89,139.89,0,0,1,176,182.31c2.31-1.23,9-5.28,11.19-12,2.72-8.13-2.16-17.09-2.16-17.09s-9.27,4.23-12,12.36c-2.06,6.17.25,12.82,1.48,15.66q-.87,3.9-1.53,7.78a18.4,18.4,0,0,0-2.48-8C166,173.71,156,171.69,156,171.69s-2.72,9.83,1.77,17.13c3.87,6.3,11.83,8.67,13.95,9.2-1.17,10.58-.11,31.65-.2,32.4A104.94,104.94,0,0,0,164.05,204c-4.8-10.83-11.06-18.51-18.17-22.54-.53-2.88-2.35-10-7.71-14-6.85-5.16-16.89-3.38-16.89-3.38s1.06,10.14,7.91,15.3c5.49,4.14,13,3.81,15.81,3.52,8.34,4.69,15.28,14.65,20,27.9-2.09-2.83-6-7.13-11.44-8.55-8.3-2.17-16.91,3.29-16.91,3.29s4.84,9,13.14,11.14c6.9,1.8,14-1.67,16.21-2.89a119.82,119.82,0,0,1,4.82,24.32c1.23.34,3.13.65,4.77.91a89.86,89.86,0,0,1-2.08-10.84A114,114,0,0,1,178,208.25c1.43.69,9.56,4.34,16.9,1.74,8.08-2.86,12.15-12.21,12.15-12.21s-9-4.71-17.12-1.85c-6,2.13-9.81,7.85-11.35,10.64,5.22-14.79,13.26-25.48,22.9-29.33,2.17,1.87,8.09,6.35,14.88,6.12,8.57-.29,15.26-8,15.26-8S224.47,168.16,215.9,168.45Z"/><path class="cls-36" d="M183.38,275.63c-3.48-11.86-6.51-19-5.62-28.29s3-6.27,3.05-13.86c-3.33.11-12.73.11-16.17,0,.09,7.59,2.17,4.57,3.05,13.86s-2.14,16.42-5.62,28.29,1.24,34,1.76,45.67c5.1-.11,12.92.07,17.8,0C182.15,309.67,186.87,287.49,183.38,275.63Z"/><rect class="cls-27" x="101.22" y="323.08" width="149.3" height="10.86" rx="5.43" ry="5.43"/></svg>