<svg id="Layer_1" data-name="Layer 1" xmlns="http://www.w3.org/2000/svg" viewBox="0 0 708.66 481.89"><defs><style>.cls-1{fill:#ffe4cc;}.cls-2{fill:#e5ccb7;}.cls-3,.cls-6{opacity:0.07;}.cls-4{fill:#a5c4d6;}.cls-5{fill:#a1b8d3;}.cls-6{fill:#212121;}.cls-7{fill:#648ec9;}.cls-8{fill:#ee4256;}.cls-9{fill:#fdd8b8;}.cls-10{fill:#e7685d;}.cls-11{fill:#876785;}.cls-12{fill:#a582a2;}.cls-13,.cls-15{fill:#f8ab8d;}.cls-14{fill:#54402b;}.cls-15,.cls-17,.cls-29,.cls-30,.cls-31,.cls-32,.cls-33,.cls-34,.cls-37{fill-rule:evenodd;}.cls-16{fill:#8b6339;}.cls-17,.cls-20{fill:#dc846a;}.cls-18{fill:#6c4e38;}.cls-19,.cls-27,.cls-28,.cls-37{fill:none;}.cls-19{stroke:#dc846a;stroke-width:3.11px;}.cls-19,.cls-37{stroke-linecap:round;stroke-linejoin:round;}.cls-21{fill:#e5b02c;}.cls-22,.cls-25{fill:#fec82b;}.cls-23{fill:#377f5b;}.cls-24{fill:#514b59;}.cls-25{font-size:11px;font-family:Impact, Impact;}.cls-26{letter-spacing:-0.01em;}.cls-27,.cls-28{stroke:#334c89;stroke-miterlimit:10;}.cls-28{stroke-dasharray:1.93 1.93;}.cls-29{fill:#99724e;}.cls-30{fill:#7c5736;}.cls-31{fill:#ce9f7a;}.cls-32{fill:#4b3421;}.cls-34{fill:#ef696a;}.cls-35{fill:#353660;}.cls-36{fill:#405aa8;}.cls-37{stroke:#bababa;stroke-width:2px;}</style></defs><title>CS-L2-U12</title><rect class="cls-1" x="82.43" y="82.95" width="567.85" height="239.07" rx="50.28" ry="50.28"/><rect class="cls-2" x="98.3" y="161.75" width="342.79" height="14.16"/><ellipse class="cls-2" cx="134.7" cy="138.81" rx="20.12" ry="20.82"/><rect class="cls-2" x="237.14" y="120.96" width="59.7" height="35.68"/><ellipse class="cls-2" cx="333.22" cy="144.14" rx="12.02" ry="12.43"/><rect class="cls-2" x="179.85" y="129.86" width="27.61" height="28.56" rx="6.97" ry="6.97"/><ellipse class="cls-2" cx="599.28" cy="240.46" rx="18.56" ry="19.38"/><rect class="cls-2" x="391.57" y="223.1" width="48.15" height="35.68" rx="7.88" ry="7.88" transform="translate(831.29 481.89) rotate(-180)"/><rect class="cls-2" x="458.25" y="213.58" width="61.74" height="27.47" transform="translate(261.81 716.44) rotate(-90)"/><ellipse class="cls-2" cx="343.92" cy="243.13" rx="14.99" ry="15.65"/><rect class="cls-2" x="296.94" y="263.16" width="339.52" height="14.16"/><path class="cls-3" d="M573.29,208.51H562.45v-.18a12.15,12.15,0,0,0-12.15-12.15h-3.72a12.08,12.08,0,0,0-5.47,1.31q-.15-1.82-.3-3.61l1.91-6.65-2.45-.7c-.09-1.34-.17-2.64-.24-3.88l6.69-59.56a9.47,9.47,0,0,0-11-10.41,20.62,20.62,0,0,0-8.28-1.7H507.12V99.47c5-3.85,8.71-9.43,11.16-15.95a3,3,0,1,0,4.53-3.93c1.71-2.49,3.12-7.5,4.09-10.11a5.5,5.5,0,0,0,0-4.63,48,48,0,0,0,1-14.9,8,8,0,0,0,1.82-.54c5.11-2.24,6.94-9.36,4.08-15.9s-9.33-10-14.44-7.8A8.38,8.38,0,0,0,515.55,29a38.27,38.27,0,0,0-14.84-5.65c-11.19-1.89-21.49-.32-27.35,11.28-1.12-.13-8.08-.3-8.07,15.09a71.8,71.8,0,0,0,1.64,14.32c0,.21,0,.42-.06.63-.91,12.13,2.74,36.43,20.7,40.37a34.12,34.12,0,0,0,6.75-.29V111H477.78c-7.16.08-13.29,3.66-16,8.77L433,140.22,415.95,128l-.68,1-22.73-18.32-4.6-4s-12.11-3.53-16.91-2.78c-5.58.88-11,5.85-12,6.84-2.54,2.65,15.67,6.79,15.67,6.79l13.45,9.33,0-.1,18.32,14.76-1.39,2L429,160.65c2.91,2,7.07,1.32,10.12-1.5l.4-.25,22.52-16,3.27,34.36-2.68,32.46a5.83,5.83,0,0,0-1.47,1.66,6.68,6.68,0,0,0,.5,10.09l-1.16,14h-.11V343.89h7.18V452.64h2.87v4.75a8.87,8.87,0,0,0-2.61.26l-30.83,8a4.65,4.65,0,0,0-3.48,4.5v3a1.78,1.78,0,0,0,1.78,1.78h52.58a3.53,3.53,0,0,0,3.54-3.54v-11.8a1.78,1.78,0,0,0-1.79-1.78v-5.22h2.71V343.89h20.62V452.64H516v5.24a1.77,1.77,0,0,0-1.62,1.77v11.8a3.53,3.53,0,0,0,3.54,3.54h52.58a1.78,1.78,0,0,0,1.78-1.78v-3a4.65,4.65,0,0,0-3.48-4.5l-30.83-8a8.84,8.84,0,0,0-2.78-.25v-4.76h2.51V343.89H545v-55.1h7.44a11.08,11.08,0,0,0,9.62-8l10.59-58.09a6.68,6.68,0,0,0,2.37-1.08,5.81,5.81,0,0,0,4-5.53v-1.78A5.81,5.81,0,0,0,573.29,208.51Zm-18.71,39.61a18.62,18.62,0,0,0-2.17-1.68h2.45Z"/><circle class="cls-4" cx="531.93" cy="254.26" r="2.3" transform="translate(-9.8 486.92) rotate(-48.79)"/><circle class="cls-4" cx="532.09" cy="255.23" r="2.3" transform="translate(-10.47 487.37) rotate(-48.79)"/><path class="cls-4" d="M537.41,248.19l-12.08,1.64L522.39,257l3.89,28.58,19.48-2.65-3.87-28.45Zm5.79,32.72-15,2-3.49-25.64,2.25-5.51,9.28-1.26,3.45,4.84Z"/><path class="cls-5" d="M527,251.81l-2.25,5.51L528.22,283l15-2-3.47-25.53-3.45-4.84Zm5.13,3.74a1.59,1.59,0,1,1,1.36-1.79A1.59,1.59,0,0,1,532.12,255.54Z"/><rect class="cls-4" x="530.22" y="246.1" width="2.54" height="7.98" rx="0.79" ry="0.79" transform="matrix(0.99, -0.13, 0.13, 0.99, -28.8, 73.73)"/><rect class="cls-6" x="308.5" y="95.42" width="74.66" height="43.14" transform="translate(324.28 481.44) rotate(-105.31)"/><path id="_Path_" data-name="&lt;Path&gt;" class="cls-7" d="M522.61,382.26h0a9.59,9.59,0,0,1,9.59,9.59v68a9.59,9.59,0,0,1-9.59,9.59h0a9.59,9.59,0,0,1-9.59-9.59v-68A9.59,9.59,0,0,1,522.61,382.26Z"/><path id="_Rectangle_" data-name="&lt;Rectangle&gt;" class="cls-8" d="M516.95,234.66h10.77a7,7,0,0,1,7,7v210a0,0,0,0,1,0,0H509.95a0,0,0,0,1,0,0v-210A7,7,0,0,1,516.95,234.66Z"/><path id="_Path_2" data-name="&lt;Path&gt;" class="cls-9" d="M511.4,458.64v11.71h57.9v-1.17a4.65,4.65,0,0,0-3.48-4.5l-30.83-8a8.6,8.6,0,0,0-4.32,0c-8.23,2.14-14,1.19-17,.31A1.78,1.78,0,0,0,511.4,458.64Z"/><path id="_Path_3" data-name="&lt;Path&gt;" class="cls-10" d="M511.4,470.35v.09a3.53,3.53,0,0,0,3.54,3.54h52.58a1.78,1.78,0,0,0,1.78-1.78v-1.85Z"/><path id="_Path_4" data-name="&lt;Path&gt;" class="cls-7" d="M477,382.26h0a9.59,9.59,0,0,0-9.59,9.59v68a9.59,9.59,0,0,0,9.59,9.59h0a9.59,9.59,0,0,0,9.59-9.59v-68A9.59,9.59,0,0,0,477,382.26Z"/><path id="_Rectangle_2" data-name="&lt;Rectangle&gt;" class="cls-8" d="M471.55,234.66h10.77a7,7,0,0,1,7,7v210a0,0,0,0,1,0,0H464.55a0,0,0,0,1,0,0v-210A7,7,0,0,1,471.55,234.66Z"/><path id="_Path_5" data-name="&lt;Path&gt;" class="cls-9" d="M488.41,458.64v11.71h-57.9v-1.17a4.65,4.65,0,0,1,3.48-4.5l30.83-8a8.6,8.6,0,0,1,4.32,0c8.23,2.14,14,1.19,17,.31A1.78,1.78,0,0,1,488.41,458.64Z"/><path id="_Path_6" data-name="&lt;Path&gt;" class="cls-10" d="M488.41,470.35v.09a3.53,3.53,0,0,1-3.54,3.54H432.29a1.78,1.78,0,0,1-1.78-1.78v-1.85Z"/><rect class="cls-11" x="457.37" y="234.46" width="84.67" height="108.43"/><rect id="_Rectangle_3" data-name="&lt;Rectangle&gt;" class="cls-11" x="440.72" y="103.47" width="18.97" height="66.09" rx="9.49" ry="9.49" transform="translate(300.67 -309.53) rotate(54.6)"/><path id="_Path_7" data-name="&lt;Path&gt;" class="cls-12" d="M524.4,110H475c-9.74,0-17.64,6.5-17.64,14.52l4.92,51.75-4.92,59.59H542s-5.29-46.66-5.29-62.21c0-12.28,5.29-49.12,5.29-49.12C542,116.49,534.14,110,524.4,110Z"/><path id="_Path_8" data-name="&lt;Path&gt;" class="cls-8" d="M474.33,113.87c0,10.95,10.49,19.86,23.39,19.86s23.39-8.91,23.39-19.86a17.05,17.05,0,0,0-.45-3.88H474.78A17.05,17.05,0,0,0,474.33,113.87Z"/><path id="_Path_9" data-name="&lt;Path&gt;" class="cls-13" d="M517.44,113.87c0,8.94-8.83,16.18-19.71,16.18S478,122.81,478,113.87a13.29,13.29,0,0,1,.57-3.88h38.28A13.29,13.29,0,0,1,517.44,113.87Z"/><rect id="_Rectangle_4" data-name="&lt;Rectangle&gt;" class="cls-13" x="491.33" y="88.59" width="12.79" height="31.04" rx="3.61" ry="3.61"/><path id="_Path_10" data-name="&lt;Path&gt;" class="cls-14" d="M470.52,33.67s-8.23-1.68-8.23,15.07a73.15,73.15,0,0,0,2.13,16.43l12.49-14.49,12.94-5.78-16.17-5.84Z"/><path id="_Path_11" data-name="&lt;Path&gt;" class="cls-15" d="M484.58,104.06c19.72,1.06,30.2-13.51,33.42-31.61,3.39-19.06-9.37-34.83-24.83-34.88-17.59-.06-27.85,6.8-29.3,26.11-.91,12.13,2.74,36.43,20.7,40.37Z"/><g id="_Group_" data-name="&lt;Group&gt;"><line id="_Path_12" data-name="&lt;Path&gt;" class="cls-16" x1="467.27" y1="64.89" x2="474.69" y2="64.51"/><path id="_Path_13" data-name="&lt;Path&gt;" class="cls-16" d="M467.09,66.11a1.24,1.24,0,0,1,.11-2.46l7.42-.38a1.24,1.24,0,0,1,.13,2.47l-7.42.38Z"/></g><g id="_Group_2" data-name="&lt;Group&gt;"><line id="_Path_14" data-name="&lt;Path&gt;" class="cls-16" x1="486.65" y1="64.51" x2="494.07" y2="64.89"/><path id="_Path_15" data-name="&lt;Path&gt;" class="cls-16" d="M486.47,63.28a1.24,1.24,0,0,0,.11,2.46l7.42.38a1.24,1.24,0,1,0,.13-2.47l-7.42-.38Z"/></g><circle id="_Path_16" data-name="&lt;Path&gt;" cx="489.44" cy="72.52" r="1.67"/><circle id="_Path_17" data-name="&lt;Path&gt;" cx="471.55" cy="73.09" r="1.67"/><polygon id="_Path_18" data-name="&lt;Path&gt;" class="cls-17" points="480.34 70.13 480.57 84.69 477.44 83.98 480.34 70.13"/><ellipse id="_Path_19" data-name="&lt;Path&gt;" class="cls-14" cx="521.5" cy="36.55" rx="10.11" ry="12.94" transform="translate(29.05 212.02) rotate(-23.62)"/><path id="_Path_20" data-name="&lt;Path&gt;" class="cls-18" d="M514.63,74.63S506,76.24,507.13,67c-4.7-.73-27.63-10.44-36.9-33.07,5.84-11.83,16.2-13.44,27.48-11.53,16.67,2.81,34.37,15.36,24.55,47.69C521.54,72.48,517,72.79,514.63,74.63Z"/><g id="_Group_3" data-name="&lt;Group&gt;"><path id="_Path_21" data-name="&lt;Path&gt;" class="cls-15" d="M512,66.55a9.34,9.34,0,0,1,3.25-3.4c5-3.49,10.91-.66,8.67,5.32-1.56,4.18-4.23,14.51-7.49,10.79C513.91,76.42,512.11,72.06,512,66.55Z"/><polygon id="_Path_22" data-name="&lt;Path&gt;" class="cls-17" points="515.86 67.16 522.48 66.05 517.49 75.12 519.17 67.64 515.86 67.16"/></g><circle id="_Path_23" data-name="&lt;Path&gt;" class="cls-8" cx="517.56" cy="80.58" r="3.01"/><path id="_Path_24" data-name="&lt;Path&gt;" class="cls-19" d="M489.82,91.95a17,17,0,0,1-6.95,1.28h0a18.25,18.25,0,0,1-6.95-1.28"/><rect id="_Rectangle_5" data-name="&lt;Rectangle&gt;" class="cls-11" x="521.45" y="111.36" width="18.97" height="79.06" rx="9.49" ry="9.49" transform="translate(20.17 -58.34) rotate(6.41)"/><path id="_Path_25" data-name="&lt;Path&gt;" class="cls-20" d="M470.37,148.74s-10.12-4.07-14.71-5.06c-.65-6.54,8.51-7,8.51-7Z"/><rect id="_Rectangle_6" data-name="&lt;Rectangle&gt;" class="cls-13" x="486.55" y="129.05" width="15.25" height="58.49" rx="7.63" ry="7.63" transform="translate(895.09 -171.16) rotate(122.83)"/><path id="_Path_26" data-name="&lt;Path&gt;" class="cls-11" d="M499.49,173.4l10.67-15.62,24.09,16.93c3.49,2.41,3.92,7.86.94,12.18h0c-3,4.31-8.22,5.85-11.72,3.44Z"/><path id="_Path_27" data-name="&lt;Path&gt;" class="cls-13" d="M483.13,142.09l-10.49-12.66s-12.14-3.43-16.93-2.64c-5.57.92-11,5.94-11.93,6.94-2.52,2.67,15.72,6.66,15.72,6.66l10.86,11.31Z"/><rect id="_Rectangle_7" data-name="&lt;Rectangle&gt;" class="cls-8" x="473.16" y="147.64" width="20.94" height="7.86" rx="2.32" ry="2.32" transform="translate(897.17 -141.45) rotate(127.28)"/><path id="_Path_28" data-name="&lt;Path&gt;" class="cls-13" d="M391.76,111.58l-6.82-5.91s-12.11-3.53-16.91-2.78c-5.58.88-11,5.85-12,6.84-2.54,2.65,15.67,6.79,15.67,6.79l13.45,9.33Z"/><rect class="cls-7" x="311.5" y="96.42" width="74.66" height="43.14" transform="translate(327.11 485.6) rotate(-105.31)"/><rect class="cls-8" x="318.06" y="93" width="57.56" height="33.27" transform="translate(333.49 473.14) rotate(-105.44)"/><path class="cls-6" d="M574.84,215.21a6.7,6.7,0,0,0-6.7-6.7h-9.06a14,14,0,0,0-24-6.14l-14-36.51a5.56,5.56,0,0,0-7.48-5h0a5.18,5.18,0,0,0-3.31,5L494.7,206.39a5.15,5.15,0,0,0-.34,2.13H462.78a6.7,6.7,0,0,0-1.07,13.31l10.76,59a8.5,8.5,0,0,0,8.36,7h68.65a8.5,8.5,0,0,0,8.36-7l10.74-58.92A6.69,6.69,0,0,0,574.84,215.21Zm-59.16-34.54,10.71,27.84H505Zm-28.75,97a3.2,3.2,0,0,1-3.67-2.64l-6-37a3.2,3.2,0,1,1,6.31-1l6,37A3.2,3.2,0,0,1,486.94,277.69Zm13.92,0a3.2,3.2,0,0,1-3.45-2.93l-3.06-37.33a3.2,3.2,0,0,1,6.37-.52l3.06,37.33A3.2,3.2,0,0,1,500.86,277.72Zm17.5-3.19a3.2,3.2,0,1,1-6.4,0V237.08a3.2,3.2,0,0,1,6.4,0Zm14.55.26a3.2,3.2,0,1,1-6.37-.52l3.06-37.33a3.2,3.2,0,0,1,6.37.52Zm20.16-36.72-6,37a3.2,3.2,0,1,1-6.31-1l6-37a3.2,3.2,0,1,1,6.31,1Z"/><rect class="cls-21" x="485.84" y="221.08" width="28.02" height="29.8" rx="12.15" ry="12.15"/><rect class="cls-21" x="499.85" y="233.64" width="39.74" height="39.74"/><rect class="cls-7" x="470.31" y="215.8" width="27.1" height="61.63" transform="matrix(0.96, -0.28, 0.28, 0.96, -49.23, 142.93)"/><rect class="cls-8" x="483.03" y="235.98" width="13.55" height="13.55" transform="translate(-47.94 144.41) rotate(-16)"/><circle class="cls-22" cx="539.23" cy="260.97" r="18.58"/><circle class="cls-8" cx="542.28" cy="264.02" r="4.87"/><rect class="cls-7" x="507" y="227.62" width="30.27" height="30.27" transform="translate(-53.67 245.89) rotate(-25.25)"/><rect class="cls-7" x="469.33" y="200.19" width="30.27" height="30.27" transform="translate(-45.57 227.2) rotate(-25.25)"/><rect class="cls-22" x="531.43" y="195.18" width="28.02" height="29.8" rx="12.15" ry="12.15"/><rect class="cls-7" x="537.41" y="221.08" width="20.4" height="24.36"/><rect class="cls-7" x="504.64" y="181.31" width="27.1" height="61.63" transform="translate(957.84 558.86) rotate(-164)"/><rect class="cls-8" x="505.48" y="201.49" width="13.55" height="13.55" transform="translate(947.25 549.66) rotate(-164)"/><rect class="cls-23" x="457.34" y="207.51" width="118.76" height="13.4" rx="5.81" ry="5.81"/><rect class="cls-24" x="519.73" y="157.97" width="10.35" height="55.97" rx="4.49" ry="4.49" transform="translate(-31.77 200.88) rotate(-21.04)"/><rect class="cls-24" x="503.8" y="157.97" width="10.35" height="55.97" rx="4.49" ry="4.49" transform="matrix(-0.93, -0.36, 0.36, -0.93, 917.25, 542.27)"/><path class="cls-23" d="M462.21,216.65l11.52,63.16a8.5,8.5,0,0,0,8.36,7h68.65a8.5,8.5,0,0,0,8.36-7l11.52-63.16Zm26,60a3.2,3.2,0,0,1-3.67-2.64l-6-37a3.2,3.2,0,1,1,6.31-1l6,37A3.2,3.2,0,0,1,488.2,276.69Zm13.92,0a3.2,3.2,0,0,1-3.45-2.93l-3.06-37.33a3.2,3.2,0,0,1,6.37-.52L505,273.27A3.2,3.2,0,0,1,502.12,276.72Zm17.5-3.19a3.2,3.2,0,1,1-6.4,0V236.08a3.2,3.2,0,1,1,6.4,0Zm14.55.26a3.2,3.2,0,0,1-6.37-.52l3.06-37.33a3.2,3.2,0,0,1,6.37.52Zm20.16-36.72-6,37a3.2,3.2,0,1,1-6.31-1l6-37a3.2,3.2,0,1,1,6.31,1Z"/><rect id="_Rectangle_8" data-name="&lt;Rectangle&gt;" class="cls-13" x="390.28" y="96.95" width="15.25" height="58.49" rx="7.63" ry="7.63" transform="translate(745.84 -104.46) rotate(128.86)"/><text class="cls-25" transform="translate(337.19 119.63) rotate(-15.53)">BUY 1<tspan x="0" y="17">G</tspan><tspan class="cls-26" x="6.06" y="17">E</tspan><tspan x="10.49" y="17" xml:space="preserve">T  1</tspan><tspan x="0" y="34" xml:space="preserve"> FREE</tspan></text><path id="_Path_29" data-name="&lt;Path&gt;" class="cls-13" d="M379.23,120.36s-10.08-4.19-14.65-5.23c-.57-6.55,8.59-6.85,8.59-6.85Z"/><path id="_Path_30" data-name="&lt;Path&gt;" class="cls-11" d="M402.14,142.52,412.95,127l23.94,17.13c3.47,2.44,3.85,7.89.84,12.18h0c-3,4.29-8.27,5.79-11.74,3.35Z"/><line class="cls-27" x1="320.3" y1="93.22" x2="321.26" y2="92.95"/><line class="cls-28" x1="323.12" y1="92.43" x2="359.27" y2="82.3"/><line class="cls-27" x1="360.19" y1="82.04" x2="361.16" y2="81.77"/><g class="cls-3"><path d="M312.92,223.31a17.8,17.8,0,0,0,.13-6.43c1.79-2.28,1.75-6.43,1.49-9.27-.57-5.12-3.41-2.19-8.62-.82a1.82,1.82,0,0,0-.63.76L288,211.73l-2.47-3.55a11.52,11.52,0,0,0-6.09-4.06l.3-.41a1.52,1.52,0,0,0-.29-2.08,1.56,1.56,0,0,0-2.14.33l-1.09,1.46a24.41,24.41,0,0,0-5.66,0c-8-12-19.81-27.61-20.25-25.6a33.89,33.89,0,0,0-.79,10.91c-4.59-6-8.27-10.22-8.51-9.12-3.27,14.38,2.75,22.74,7.92,35.19a23.1,23.1,0,0,0-4.72,10.64l-11,52.34c-.13.59-.23,1.17-.34,1.75l-3.09-.21-.19,2.77-1.75-.12-.46,6.66,1.75.12-.19,2.77,1.08.07c-17.85,23-48.4,61.18-76.72,91.46-13.72,14.67-18.82,28.86-20.05,40.54a37.64,37.64,0,0,0-.38,5.24v8.74a31.62,31.62,0,0,0,1.91,10.94,40.91,40.91,0,0,1-16.06-4.4c-19.12-9.88-23.88-37.74-16.43-65.45-11.7,31.12-7,62.27,13.31,75.14,7.78,4.93,16.92,6.6,26.49,5.39a14.61,14.61,0,0,0,9.19,3.53l.15-.12a8.66,8.66,0,0,0,1.44.12h83.83V455l-10.55-6.93-4.71-1.53H184.53c0-5.15,29.76-20.63,30.44-21l0,0h0c11.38-7.55,13.55-12.47,13.55-23.25a27.75,27.75,0,0,0-2.43-11.3c1.61-1.06,3.27-2.23,5-3.55.22,2.53.39,5,.54,7.4l0,3a7.93,7.93,0,0,0,0,1l2.89,41.6a8.11,8.11,0,0,0,.39,3.46l4.7,13.12a8.13,8.13,0,0,0,7.56,5.38h16v-.74a8.26,8.26,0,0,0,3.24.74h16v-7.68l-9.68-6.76-2.93-8.24c0-.21,0-.42,0-.63l-3-43.35c0-.08,0-.16,0-.24-1.19-12.5,3.28-44.42,5.4-58.42a74.44,74.44,0,0,0,5.65-29l.21-.06s-.27-5.6-.64-13.17l2.06.14.19-2.77,1.75.12.46-6.66-1.75-.12.19-2.77-3.49-.24c-.61-12.6-1.22-25.59-1.3-27.76,0-1.23.15-4.16.14-7.85,0,0,0-.08,0-.13.05-3.93,1.11-6,3.62-7.46h0s10.76-1.64,18.32-.6a61.37,61.37,0,0,0,7.52.6c1.11,3.44,2.12,6.33,5.51,5.52,2.32-.61,3-2.91,1.53-8.4v0c1.08-2.71.48-7.67.48-7.67l-3.86.3-.16-.17A10.62,10.62,0,0,0,312.92,223.31ZM250.7,439.76l-2.8-40.43c0-.11,0-.2.06-.31.25-1.44.65-3.11,1.17-5,1.1,3,1.79,4.94,1.9,5.23l2.84,40.87c0,.09,0,.17,0,.26a8,8,0,0,0,.43,3.42l2.15,6.07-2.87-2Z"/><path d="M107.36,366.54a1,1,0,1,0,.36-2,21,21,0,0,0-24.43,16.87,1,1,0,0,0,.8,1.16l.18,0a1,1,0,0,0,1-.82,19,19,0,0,1,22.11-15.26Z"/><path d="M96.46,362.26a14.06,14.06,0,0,1,19.48,3.91,1,1,0,1,0,1.66-1.11,16.07,16.07,0,0,0-22.25-4.47,1,1,0,0,0,1.11,1.67Z"/></g><path id="_Path_31" data-name="&lt;Path&gt;" class="cls-29" d="M232.06,447.08l-4.71-1.53h-55.1a8.08,8.08,0,1,0,0,16.14h70.36V454Z"/><path id="_Path_32" data-name="&lt;Path&gt;" class="cls-29" d="M234.55,401.25c0-14.75-12-27.8-26.63-26.7-16.38,1.23-31,9.26-38.5,17.46-9.42,10.23-17.13,21.88-17.15,35.8v8.74c0,13.83,8.69,25.14,18.41,25.14l19.87-16.14c0-5.15,29.76-20.63,30.44-21l0,0h0C232.38,417,234.55,412,234.55,401.25Z"/><path id="_Path_33" data-name="&lt;Path&gt;" class="cls-29" d="M265.18,432.53h0a8.13,8.13,0,0,1,10.31,4.87l3.38,9.51,9.68,6.76v7.68h-16A8.13,8.13,0,0,1,265,456l-4.64-13.12a8.08,8.08,0,0,1,4.87-10.31Z"/><path id="_Path_34" data-name="&lt;Path&gt;" class="cls-29" d="M257,398.33s-7.41-21.41-14.89-34.86-1.54-35.29,11.28-39.52,25.92,5.31,25.92,5.31-8,49.2-6.44,65.31-15,12-15.87,3.76Z"/><path id="_Path_35" data-name="&lt;Path&gt;" class="cls-29" d="M264.3,387.24h0a8.08,8.08,0,0,1,8.62,7.45l3,43.35a8.05,8.05,0,0,1-7.5,8.63h0a8,8,0,0,1-8.57-7.51l-3-43.35a8,8,0,0,1,7.45-8.57Z"/><path id="_Path_36" data-name="&lt;Path&gt;" class="cls-30" d="M266.34,217.62c3.76,6.65,12.32,9,14.5,10.12s5.53-6.25,2.45-13.91-26.39-39.87-27-37c-3.74,16.44,4.61,25,10.06,40.83Z"/><path id="_Path_37" data-name="&lt;Path&gt;" class="cls-31" d="M152.92,457.3c-11.34,2.55-22.3,1.23-31.41-4.54-20.31-12.87-25-44-13.31-75.14-7.45,27.71-2.69,55.57,16.43,65.45,21.82,11.27,46-2.08,46-2.08Z"/><path id="_Path_38" data-name="&lt;Path&gt;" class="cls-31" d="M245.9,432.53h0a8.13,8.13,0,0,1,10.31,4.87l3.38,9.51,9.68,6.76v7.68h-16a8.13,8.13,0,0,1-7.56-5.38L241,442.84a8.16,8.16,0,0,1,4.93-10.31Z"/><path id="_Path_39" data-name="&lt;Path&gt;" class="cls-31" d="M143.73,451.1S125.61,418,159.23,382c43.46-46.46,92.17-111.64,92.17-111.64s6.77-13.85,23.94,9.81,5.24,57.29-6.06,72.15c-39.41,51.86-49,34.87-72,65.47C170,454.08,143.73,451.1,143.73,451.1Z"/><path id="_Path_40" data-name="&lt;Path&gt;" class="cls-31" d="M237.68,393.8a177.3,177.3,0,0,0-5-34c-3.6-14.91,8.06-34.45,21.49-35.07s23.57,12.09,23.57,12.09S256.74,382,254,398s-15.64,8.59-16.26-.65Z"/><path id="_Path_41" data-name="&lt;Path&gt;" class="cls-31" d="M245.15,389.21h0a8.08,8.08,0,0,1,8.62,7.45l3,43.35a8.08,8.08,0,0,1-7.5,8.63h0a8,8,0,0,1-8.57-7.51l-3-43.35a8,8,0,0,1,7.45-8.57Z"/><path id="_Path_42" data-name="&lt;Path&gt;" class="cls-31" d="M239.15,276.75l11-52.34s9-10.25,21.43-5.91,9.93,30.86,10,35.27S284.15,307,284.15,307s-54.59,15-45-30.25Z"/><path id="_Path_43" data-name="&lt;Path&gt;" class="cls-31" d="M250.18,224.41c.61-5.13,5.56-17,21-21s20.36,3.78,20.36,3.78l2.47,3.55,22.72-5.49s3.72,11.7,2.22,17.07-8.74,9.34-20.77,12.26-16.26,3.26-16.37,11.22-26.77,3.59-31.6-21.38Z"/><path id="_Path_44" data-name="&lt;Path&gt;" class="cls-32" d="M311.92,205.79c5.21-1.37,8.05-4.3,8.62.82.35,3.82.31,10-4,10.83-6.32,1.19-6.9-10.27-4.6-11.64Z"/><path id="_Path_45" data-name="&lt;Path&gt;" class="cls-29" d="M257,219.41c3.82,6.64,12.32,9,14.5,10.12s5.53-6.25,2.45-13.91-26.38-39.87-27-37c-3.74,16.44,4.66,25,10.06,40.83Z"/><path id="_Path_46" data-name="&lt;Path&gt;" class="cls-33" d="M289.85,214c1.5-.39,2.28-2.37,1.74-4.42s-2.18-3.34-3.68-2.94-2.28,2.37-1.76,4.37,2.19,3.39,3.69,3Z"/><path id="_Path_47" data-name="&lt;Path&gt;" class="cls-32" d="M275.77,206l4.75-6.39a1.56,1.56,0,0,1,2.14-.33h0a1.52,1.52,0,0,1,.29,2.08l-4.8,6.42a1.43,1.43,0,0,1-2.09.3h0a1.44,1.44,0,0,1-.3-2.08Z"/><path id="_Path_48" data-name="&lt;Path&gt;" class="cls-31" d="M285.39,238.33s10.76-1.64,18.32-.6,12.27.93,14-1.37,1-8.61,1-8.61-19.56,1.52-22,1.85-11.39,8.73-11.39,8.73Z"/><path id="_Path_49" data-name="&lt;Path&gt;" class="cls-34" d="M302.63,229.07c10.71.63,6.7,16.54,14.12,14.77,2.32-.61,3-2.91,1.53-8.4-2-7.65-5.33-12.88-15.65-6.38Z"/><path id="_Path_50" data-name="&lt;Path&gt;" class="cls-31" d="M218.59,447.08l-4.71-1.53h-55.1a8.08,8.08,0,1,0,0,16.14h70.36V454Z"/><path id="_Path_51" data-name="&lt;Path&gt;" class="cls-31" d="M221.08,401.25c0-14.75-12-27.8-26.63-26.7-16.38,1.23-31,9.26-38.5,17.46-9.42,10.23-17.13,21.88-17.15,35.8v8.74c0,13.83,8.69,25.14,18.41,25.14l19.87-16.14c0-5.15,29.76-20.63,30.44-21l0,0h0C218.91,417,221.08,412,221.08,401.25Z"/><path id="_Path_52" data-name="&lt;Path&gt;" class="cls-29" d="M182.49,381.86c4.27-1.05,11.29-1.66,20.72.51,9,2.07,16.55,8.82,17.71,16,1.58-1.71,1.58-1.71,5.84-3.37-2.32-8.41-14.78-16.33-25-17.33-6.34-.62-12.33-.48-19,1.91-2.1.75-12.35,5.91-14.18,8.83C170.69,386,178.08,382.94,182.49,381.86Z"/><g id="_Group_4" data-name="&lt;Group&gt;"><rect id="_Path_53" data-name="&lt;Path&gt;" class="cls-35" x="254.53" y="260.72" width="12.23" height="50.82" transform="translate(-42.68 526.54) rotate(-86.07)"/><rect id="_Path_54" data-name="&lt;Path&gt;" class="cls-36" x="257.31" y="258.97" width="6.67" height="54.32" transform="translate(-42.69 526.54) rotate(-86.07)"/></g><path class="cls-37" d="M113.54,364.55a20,20,0,0,0-23.27,16.07"/><path class="cls-37" d="M122.77,364.62a15,15,0,0,0-20.86-4.19"/></svg>