<svg id="Layer_1" data-name="Layer 1" xmlns="http://www.w3.org/2000/svg" viewBox="0 0 708.66 481.89"><defs><style>.cls-1{fill:#648ec9;}.cls-2{fill:#fff;}.cls-3{fill:#f2f2f2;}.cls-4{fill:#bddbda;}.cls-5{fill:silver;}.cls-6{fill:#dd4439;}.cls-7{fill:#fec82b;}.cls-8{fill:#e2e2e2;}.cls-9{fill:#bababa;}.cls-10{opacity:0.07;}.cls-11{fill:#754d24;}.cls-12{fill:#7a5435;}.cls-13{fill:#8b6339;}.cls-14{fill:#a2a3a3;}.cls-15{fill:#9b6d45;}.cls-16{fill:#a36e4a;}.cls-17{fill:#ffdc83;}.cls-18{fill:#fccf6b;}.cls-19{fill:none;stroke:#fff;stroke-linecap:round;stroke-linejoin:round;stroke-width:2px;}</style></defs><title>CS-L2-U12</title><path class="cls-1" d="M75.67,382.54c0-152.91,124-276.87,276.87-276.87s276.87,124,276.87,276.87"/><rect class="cls-2" x="311.66" y="101.58" width="208.52" height="279.57"/><path class="cls-3" d="M343,339.74a5.4,5.4,0,0,0,5.41,5.41H484.14a5.41,5.41,0,0,0,5.41-5.41V139.52a5.41,5.41,0,0,0-5.41-5.4H348.43a5.4,5.4,0,0,0-5.41,5.4Z"/><path class="cls-4" d="M378.5,168.59a3.59,3.59,0,0,0,3.58,3.58h68.4a3.57,3.57,0,0,0,3.56-3.58V157a3.57,3.57,0,0,0-3.56-3.57h-68.4A3.58,3.58,0,0,0,378.5,157Z"/><path class="cls-5" d="M360.17,204.62a1.12,1.12,0,0,0,1.11,1.11H470.82a1.11,1.11,0,0,0,1.12-1.11h0a1.11,1.11,0,0,0-1.12-1.12H361.28a1.11,1.11,0,0,0-1.11,1.12Z"/><path class="cls-5" d="M384.39,195.47a1.11,1.11,0,0,0-1.11,1.12h0a1.11,1.11,0,0,0,1.11,1.12h63.8a1.11,1.11,0,0,0,1.11-1.12h0a1.11,1.11,0,0,0-1.11-1.12"/><path class="cls-5" d="M383.28,266.4a1.11,1.11,0,0,0,1.11,1.12h63.8a1.11,1.11,0,0,0,1.11-1.12h0a1.11,1.11,0,0,0-1.11-1.12h-63.8a1.11,1.11,0,0,0-1.11,1.12Z"/><path class="cls-5" d="M360.17,213.56a1.12,1.12,0,0,0,1.11,1.12H470.82a1.11,1.11,0,0,0,1.12-1.12h0a1.1,1.1,0,0,0-1.12-1.11H361.28a1.11,1.11,0,0,0-1.11,1.11Z"/><path class="cls-5" d="M360.17,222.49a1.12,1.12,0,0,0,1.11,1.12H470.82a1.12,1.12,0,0,0,1.12-1.12h0a1.11,1.11,0,0,0-1.12-1.11H361.28a1.11,1.11,0,0,0-1.11,1.11Z"/><path class="cls-5" d="M360.17,231.44a1.12,1.12,0,0,0,1.11,1.12H470.82a1.11,1.11,0,0,0,1.12-1.12h0a1.11,1.11,0,0,0-1.12-1.11H361.28a1.11,1.11,0,0,0-1.11,1.11Z"/><path class="cls-5" d="M360.17,240.38a1.12,1.12,0,0,0,1.11,1.13H470.82a1.12,1.12,0,0,0,1.12-1.13h0a1.1,1.1,0,0,0-1.12-1.11H361.28a1.11,1.11,0,0,0-1.11,1.11Z"/><path class="cls-5" d="M360.17,249.32a1.12,1.12,0,0,0,1.11,1.12H470.82a1.11,1.11,0,0,0,1.12-1.12h0a1.11,1.11,0,0,0-1.12-1.11H361.28a1.12,1.12,0,0,0-1.11,1.11Z"/><path class="cls-5" d="M360.17,258.26a1.12,1.12,0,0,0,1.11,1.12H470.82a1.12,1.12,0,0,0,1.12-1.12h0a1.11,1.11,0,0,0-1.12-1.11H361.28a1.11,1.11,0,0,0-1.11,1.11Z"/><path class="cls-5" d="M417.41,297.51a1.11,1.11,0,0,0,1.11,1.12h52.31a1.11,1.11,0,0,0,1.12-1.12h0a1.11,1.11,0,0,0-1.12-1.12H418.51a1.11,1.11,0,0,0-1.11,1.12Z"/><path class="cls-5" d="M417.41,307.44a1.11,1.11,0,0,0,1.11,1.11h52.31a1.11,1.11,0,0,0,1.12-1.11h0a1.11,1.11,0,0,0-1.12-1.12H418.51a1.11,1.11,0,0,0-1.11,1.12Z"/><path class="cls-5" d="M417.41,317.38a1.11,1.11,0,0,0,1.11,1.12h52.31a1.11,1.11,0,0,0,1.12-1.12h0a1.11,1.11,0,0,0-1.12-1.11H418.51a1.11,1.11,0,0,0-1.11,1.11Z"/><polygon class="cls-6" points="360.65 331.77 369.34 329.45 372.55 337.84 387.07 309.39 375.17 303.32 360.65 331.77"/><polygon class="cls-6" points="405.93 331.77 397.23 329.45 394.03 337.84 379.51 309.39 391.39 303.32 405.93 331.77"/><path class="cls-7" d="M369.18,307.74a14.54,14.54,0,1,0,14.53-14.54A14.53,14.53,0,0,0,369.18,307.74Z"/><path class="cls-6" d="M372.33,307.74a11.39,11.39,0,1,0,11.38-11.4A11.38,11.38,0,0,0,372.33,307.74Z"/><path class="cls-8" d="M530.17,90.22H302.39v302.3H530.17Zm-19.56,21.84V370.68H322V112.07Z"/><path class="cls-9" d="M514.37,107.87v267H318.2v-267Zm-7.53,258.61V116.27H325.72V366.48Z"/><path class="cls-10" d="M360.54,220.6a12,12,0,0,0-12-12H280.27V193.43a19.54,19.54,0,0,0-19.49-19.53H182.93a19.57,19.57,0,0,0-19.54,19.53V208.6H95.16a12,12,0,0,0-12,12L71.87,382.06c0,6.63,5.36,19.52,12,19.52h276c6.62,0,12-12.89,12-19.52ZM178.47,193.43a4.45,4.45,0,0,1,4.45-4.45h77.85a4.45,4.45,0,0,1,4.44,4.45V208.6H178.47Z"/><path class="cls-11" d="M367.81,386.06c0,6.63-5.38,19.52-12,19.52h-276c-6.62,0-12-12.89-12-19.52L79.17,224.6a12,12,0,0,1,12-12H344.54a12,12,0,0,1,12,12Z"/><path class="cls-12" d="M356.54,393.58a12,12,0,0,1-12,12H91.16a12,12,0,0,1-12-12v-169a12,12,0,0,1,12-12H344.54a12,12,0,0,1,12,12Z"/><path class="cls-11" d="M256.78,241.46H178.93a19.57,19.57,0,0,1-19.54-19.52V197.43a19.57,19.57,0,0,1,19.54-19.53h77.85a19.54,19.54,0,0,1,19.49,19.53v24.52A19.53,19.53,0,0,1,256.78,241.46ZM178.93,193a4.45,4.45,0,0,0-4.45,4.45v24.52a4.43,4.43,0,0,0,4.45,4.44h77.85a4.43,4.43,0,0,0,4.44-4.44V197.43a4.45,4.45,0,0,0-4.44-4.45Z"/><path class="cls-13" d="M356.54,303.41a12,12,0,0,1-12,12H91.16a12,12,0,0,1-12-12V224.6a12,12,0,0,1,12-12H344.54a12,12,0,0,1,12,12Z"/><path class="cls-9" d="M240.14,318.07a9,9,0,0,1-9,9H204.51a9,9,0,0,1-9-9h0a9,9,0,0,1,9-9h26.67a9,9,0,0,1,9,9Z"/><path class="cls-2" d="M236.52,317.52a3.78,3.78,0,0,1-3.76,3.78H209.83a3.79,3.79,0,0,1-3.76-3.78v-1.44a3.78,3.78,0,0,1,3.76-3.77h22.93a3.77,3.77,0,0,1,3.76,3.77Z"/><ellipse class="cls-14" cx="451.96" cy="413.88" rx="32.8" ry="3.2"/><path class="cls-10" d="M651.75,377.87l-40.69-14.58a4.4,4.4,0,0,0-5.63,2.66l-.6,1.68-6.47-2.32.43-1.19a2.57,2.57,0,0,0-4-2.88,7.62,7.62,0,0,0-1.85,2.12L516.42,336l6.21-17.34a6.06,6.06,0,0,0-2.26-7l4.4-12.27a2.25,2.25,0,0,1,2.88-1.36h0a2.25,2.25,0,0,0,2.88-1.36l4.12-11.5a2.25,2.25,0,0,0-1.36-2.88l-65.14-23.34a2.25,2.25,0,0,0-2.88,1.36l-4.12,11.5a2.25,2.25,0,0,0,1.36,2.88,2.25,2.25,0,0,1,1.36,2.88l-4.4,12.27a6.06,6.06,0,0,0-6.21,4L432,353a6.06,6.06,0,0,0,2.26,7l-4.4,12.27a2.25,2.25,0,0,1-2.88,1.36,2.25,2.25,0,0,0-2.88,1.36L420,386.52a2.25,2.25,0,0,0,1.36,2.88l65.14,23.34a2.25,2.25,0,0,0,2.88-1.36l4.12-11.5a2.25,2.25,0,0,0-1.36-2.88h0a2.25,2.25,0,0,1-1.36-2.88l4.4-12.27a6.06,6.06,0,0,0,6.21-4l6.21-17.34,76.49,27.41a7.62,7.62,0,0,0,.09,2.81,2.57,2.57,0,0,0,4.93.33l.43-1.19L596,392.2l-.6,1.68a4.4,4.4,0,0,0,2.66,5.63l40.69,14.58a14.45,14.45,0,0,0,18.48-8.73l3.23-9A14.45,14.45,0,0,0,651.75,377.87Z"/><rect class="cls-15" x="544.97" y="280.57" width="26.1" height="173.18" transform="matrix(0.34, -0.94, 0.94, 0.34, 24.15, 768.62)"/><path class="cls-15" d="M458.51,275.61h0a2.25,2.25,0,0,1,1.36,2.88l-34,94.81a2.25,2.25,0,0,1-2.88,1.36h0a2.25,2.25,0,0,0-2.88,1.36L416,387.52a2.25,2.25,0,0,0,1.36,2.88l65.14,23.34a2.25,2.25,0,0,0,2.88-1.36l4.12-11.5a2.25,2.25,0,0,0-1.36-2.88h0a2.25,2.25,0,0,1-1.36-2.88l34-94.81a2.25,2.25,0,0,1,2.88-1.36h0a2.25,2.25,0,0,0,2.88-1.36l4.12-11.5a2.25,2.25,0,0,0-1.36-2.88l-65.14-23.34a2.25,2.25,0,0,0-2.88,1.36l-4.12,11.5A2.25,2.25,0,0,0,458.51,275.61Z"/><path class="cls-16" d="M464.37,259.9a2.25,2.25,0,0,0-2.88,1.36l-4.12,11.5a2.25,2.25,0,0,0,1.36,2.88,2.25,2.25,0,0,1,1.36,2.88l-34,94.81a2.25,2.25,0,0,1-2.88,1.36,2.25,2.25,0,0,0-2.88,1.36l-4.12,11.5a2.25,2.25,0,0,0,1.36,2.88l31.28,11.21,47.6-130.23Z"/><rect class="cls-7" x="435.8" y="299.96" width="75.06" height="73.7" rx="6.06" ry="6.06" transform="translate(-3.41 668.78) rotate(-70.29)"/><path class="cls-17" d="M594.78,365.12a2.57,2.57,0,0,0-4-2.88,7.63,7.63,0,0,0-2.51,3.47l-7.8,21.77a7.63,7.63,0,0,0-.26,4.27,2.57,2.57,0,0,0,4.93.33Z"/><path class="cls-7" d="M647.75,378.87l-40.69-14.58a4.4,4.4,0,0,0-5.63,2.66l-10,27.94a4.4,4.4,0,0,0,2.66,5.63l40.69,14.58a14.45,14.45,0,0,0,18.48-8.73l3.23-9A14.45,14.45,0,0,0,647.75,378.87Z"/><path class="cls-18" d="M485.57,301.33,456.64,290.5a6.06,6.06,0,0,0-7.35,2.78l-21.88,61.06a6.06,6.06,0,0,0,3.91,6.82l28.49,10.67Z"/><line class="cls-19" x1="450.66" y1="315.07" x2="439.39" y2="346.34"/><line class="cls-19" x1="454.05" y1="305.65" x2="452.27" y2="310.6"/></svg>