<svg id="Layer_1" data-name="Layer 1" xmlns="http://www.w3.org/2000/svg" viewBox="0 0 708.66 481.89"><defs><style>.cls-1{fill:#f4d99d;opacity:0.72;}.cls-2{fill:#141414;opacity:0.11;}.cls-3{fill:#fff;}.cls-4{fill:#070707;opacity:0.05;}.cls-5{fill:#fec82b;}.cls-6{fill:#8ba9cc;}.cls-10,.cls-7{opacity:0.4;}.cls-10,.cls-8{fill:#e1e3e5;}.cls-9{fill:none;stroke:#eaedef;stroke-miterlimit:10;stroke-width:0.83px;}.cls-11{fill:#91b985;}.cls-12{fill:#ee4256;}.cls-13,.cls-21{fill:#dc846a;}.cls-14{fill:#3a3942;}.cls-15,.cls-20{fill:#f8ab8d;}.cls-16{fill:#504e5c;}.cls-17{fill:#3952a0;}.cls-18,.cls-28{fill:#648ec9;}.cls-19{fill:#754d24;}.cls-20,.cls-21{fill-rule:evenodd;}.cls-22{fill:#8b6339;}.cls-23{fill:#ffe4cc;}.cls-24{fill:#efefef;}.cls-25{fill:#474646;}.cls-26{fill:#a8a8a8;}.cls-27{fill:#ffd14d;}.cls-28{font-size:28.13px;font-family:Impact, Impact;}.cls-29{fill:#d3e3f2;}</style></defs><title>CS-L2-U2</title><rect class="cls-1" x="108.16" y="49.11" width="499.35" height="193.85" rx="76.42" ry="76.42"/><path class="cls-2" d="M546.53,178.88a11.2,11.2,0,0,0-1.91-8l-26.25-60.45a16.67,16.67,0,0,0-1.66-3.79,11.18,11.18,0,0,0-4.82-5.22,16.7,16.7,0,0,0-9.63-3h-.78l-.14-.29H495l-.47-.27c.13-.2.24-.4.36-.6a87.65,87.65,0,0,0,16.41-3.34,9.63,9.63,0,0,0,6.1-12.11c-2.29-7.09-5.76-18.22-8.24-27.89.64-2.31,0-4.08-1.25-5.13l0-.08a12.81,12.81,0,0,0,2.33-1A61.64,61.64,0,0,1,508.56,38,29.42,29.42,0,0,0,501,19.84a32.64,32.64,0,0,0-12.33-8.47h0a40.5,40.5,0,0,0-14-2.56,39.69,39.69,0,0,0-11,1.3A28.67,28.67,0,0,0,451,16.9a31.68,31.68,0,0,0-5.56,6.68,29.4,29.4,0,0,0-4.28,12.78c-.25,2.55-1.09,7.14-2.2,12.57a6.82,6.82,0,0,0-.64,4.84c-2,10-4.63,21.48-6.24,28.54a9.64,9.64,0,0,0,6,11.17c5.09,1.93,11.91,3.25,19.45,4l-1.07.54h-3.75l-.06.13h-2.3l-.08.16h-1.6a16.83,16.83,0,0,0-2.41.19,11.24,11.24,0,0,0-12.13,6.12l-29.7,60.86a11.18,11.18,0,0,0-2.12,4.43,11.25,11.25,0,0,0,17.22,13.39l12.35-9.77v88.69h5.89l9.53,93.13H460L464.52,446l-7,4.1h0l-33,17.86,1.87,3.49h21.08l28-11,.76,2,.05,9h5.07l.3-.78h2.8l0-7.4,1.3-3.37,27.51,10.77h21.08l1.87-3.49-33-17.86h0l-6.25-3.64V355.39h10.25l4.14-70.25c2.91.22,7,.14,10.21-1.32,4.4-2,12.56-11.55,12.56-11.55l2.12-14.42,1.66.18v-.08l.77.08.07-.69h.06l.49-5.19.26-2.43h0l6.05-64.11Zm-23.36,4-4.11,26.92v-41.3l4.49,10.34ZM519.06,256l.65.07-.65.93Zm-3.74,6.22c-1,1.31-2,2.63-2.91,3.76l.22-3.76Zm-3.53,14.13.39-6.66a6,6,0,0,0,4.66,1C516.13,271.46,513.92,273.82,511.79,276.39Z"/><rect class="cls-2" x="199.96" y="113.34" width="254.28" height="162.31"/><rect class="cls-3" x="199.96" y="113.34" width="254.28" height="162.31"/><path class="cls-4" d="M414.35,109.47H282.11v1.09a1.09,1.09,0,0,0-1.09-1.09h-41.9a1.09,1.09,0,0,0-1.09,1.09v-1.09H194v28.8a21.13,21.13,0,0,0,21.19,21.07h1.7A21.13,21.13,0,0,0,238,138.27a21.13,21.13,0,0,0,21.19,21.07h1.7a21.13,21.13,0,0,0,21.19-21.07,21.13,21.13,0,0,0,21.19,21.07H305a21.13,21.13,0,0,0,21.19-21.07,21.13,21.13,0,0,0,21.19,21.07h1.7a21.13,21.13,0,0,0,21.19-21.07,21.13,21.13,0,0,0,21.19,21.07h1.7a21.13,21.13,0,0,0,21.19-21.07,21.13,21.13,0,0,0,21.19,21.07h1.7a21.13,21.13,0,0,0,21.19-21.07v-28.8Z"/><path class="cls-5" d="M414.35,105.6H282.11v.07a.07.07,0,0,0-.07-.07H238.11a.07.07,0,0,0-.07.07v-.07H194v28.8a21.13,21.13,0,0,0,21.19,21.07h1.7A21.13,21.13,0,0,0,238,134.41v1a20.12,20.12,0,0,0,20.17,20.06h3.73a20.12,20.12,0,0,0,20.17-20.06v-1a21.13,21.13,0,0,0,21.19,21.07H305a21.13,21.13,0,0,0,21.19-21.07,21.13,21.13,0,0,0,21.19,21.07h1.7a21.13,21.13,0,0,0,21.19-21.07,21.13,21.13,0,0,0,21.19,21.07h1.7a21.13,21.13,0,0,0,21.19-21.07,21.13,21.13,0,0,0,21.19,21.07h1.7a21.13,21.13,0,0,0,21.19-21.07V105.6Z"/><path class="cls-6" d="M371.5,169h29.22a21.17,21.17,0,0,1,21.17,21.17v50a0,0,0,0,1,0,0H350.33a0,0,0,0,1,0,0v-50A21.17,21.17,0,0,1,371.5,169Z"/><rect class="cls-6" x="240.88" y="179.83" width="61.54" height="95.82"/><g class="cls-7"><polygon class="cls-8" points="240.88 245.15 302.42 183.96 302.42 179.83 281.49 179.83 240.88 220.2 240.88 245.15"/><polygon class="cls-8" points="240.88 263.76 302.42 202.57 302.42 190.1 240.88 251.29 240.88 263.76"/></g><line class="cls-9" x1="271.65" y1="179.83" x2="271.65" y2="275.65"/><path class="cls-10" d="M375,240.2l46.9-46.63V182.69a13.51,13.51,0,0,0-1.55-6.28L356.19,240.2Z"/><polygon class="cls-10" points="395.15 240.2 421.89 213.62 421.89 202.53 384 240.2 395.15 240.2"/><path class="cls-4" d="M422.07,247.3H350.15c-1.94-.82-3.51-2.39-3.51-4.32h0a3.45,3.45,0,0,1,3.46-3.44h72a3.45,3.45,0,0,1,3.46,3.44h0C425.58,244.91,424,246.47,422.07,247.3Z"/><path class="cls-5" d="M422.07,245.15H350.15c-1.94-.82-3.51-2.39-3.51-4.32h0a3.45,3.45,0,0,1,3.46-3.44h72a3.45,3.45,0,0,1,3.46,3.44h0C425.58,242.76,424,244.32,422.07,245.15Z"/><path class="cls-4" d="M230.36,225.58c1.5,0,5.57-.22,8.3-2.72,3.4-3.12,3.43-8.59,3.43-8.59s-5.49-.41-8.89,2.7c-2.67,2.44-3.26,6.33-3.39,7.9-3.6,2.53-6.55,7-8.55,13a55.14,55.14,0,0,0-2.51,13.39h-.17c-.21-3.06-.77-11.56-1.75-16.17,1.11-.4,5.26-2.08,7-5.66,2-4.14,0-9.25,0-9.25s-5.26,1.61-7.28,5.75a9.83,9.83,0,0,0-.9,4.43q-.56-2-1.24-4.08c.51-1.58,1.4-5.26,0-8.44-1.89-4.2-7.1-6-7.1-6s-2.14,5-.25,9.24c1.55,3.45,5.34,5.26,6.65,5.79a74.7,74.7,0,0,1,3.8,21,54.28,54.28,0,0,0-4.78-11.45c-3.73-6.52-8.3-10.6-13.16-11.83-1.27-1-4.47-3.2-8-3-4.62.3-8.1,4.54-8.1,4.54s4,3.75,8.63,3.45c3.66-.24,6.6-2.95,7.67-4.06,5.39,1.54,10.28,6.83,13.87,14.45-1-1.41-3.32-4.26-6.67-5.08-4.5-1.1-9.1,1.9-9.1,1.9s2.68,4.78,7.18,5.87c4.08,1,8.25-1.38,9-1.83a60.87,60.87,0,0,1,3.51,10.37l-20.39-.16,3.3,24.27h-2v3h35.18v-3h-2l4.59-24-16.59-.13a59.93,59.93,0,0,1,1.11-8.07c1.25.54,5.25,2,8.86.68,4.34-1.6,6.46-6.65,6.46-6.65s-4.92-2.46-9.26-.86a11.94,11.94,0,0,0-5.69,5.17C222.93,234.22,226.13,228.53,230.36,225.58Z"/><path class="cls-11" d="M193.15,222.66c3.57-.23,6.78,2,8,3,4.86,1.23,9.44,5.31,13.16,11.83a54.28,54.28,0,0,1,4.78,11.45,74.7,74.7,0,0,0-3.8-21c-1.31-.54-5.1-2.34-6.65-5.79-1.89-4.2.25-9.24.25-9.24s5.21,1.77,7.1,6c1.44,3.19.55,6.86,0,8.44q.68,2,1.24,4.08a9.83,9.83,0,0,1,.9-4.43c2-4.14,7.28-5.75,7.28-5.75s2,5.1,0,9.25c-1.74,3.57-5.89,5.26-7,5.66,1.19,5.59,1.75,16.9,1.84,17.3a56,56,0,0,1,2.59-14.51c2-6,4.95-10.48,8.55-13,.13-1.57.73-5.46,3.39-7.9,3.4-3.12,8.89-2.7,8.89-2.7s0,5.47-3.43,8.59c-2.73,2.5-6.8,2.73-8.3,2.72-4.23,3-7.42,8.64-9.23,16a11.94,11.94,0,0,1,5.69-5.17c4.34-1.6,9.26.86,9.26.86s-2.12,5-6.46,6.65c-3.61,1.33-7.61-.15-8.86-.68a64,64,0,0,0-1.29,13.25c-.64.25-1.65.52-2.51.74a48,48,0,0,0,.54-5.9,60.9,60.9,0,0,0-3.52-10.4c-.73.45-4.9,2.83-9,1.83-4.49-1.1-7.18-5.87-7.18-5.87s4.6-3,9.1-1.9c3.35.82,5.69,3.67,6.67,5.08-3.59-7.62-8.48-12.91-13.87-14.45-1.07,1.12-4,3.82-7.67,4.06-4.62.3-8.63-3.45-8.63-3.45S188.53,223,193.15,222.66Z"/><polygon class="cls-5" points="237.88 252.42 233.17 276.99 202.21 277.6 198.74 252.11 237.88 252.42"/><rect class="cls-12" x="200.09" y="276.38" width="35.18" height="3.03"/><rect id="_Rectangle_" data-name="&lt;Rectangle&gt;" class="cls-13" x="467.15" y="337.01" width="18.17" height="120.18" transform="translate(-19.26 24.31) rotate(-2.87)"/><path id="_Path_" data-name="&lt;Path&gt;" class="cls-13" d="M462.58,450.68l14.19-8.28s6.24-.06,7,6.05.19,7.67-4.24,9.73-15.28,4.24-15.28,4.24l-3.56-8.51S459.88,452.26,462.58,450.68Z"/><polygon id="_Path_2" data-name="&lt;Path&gt;" class="cls-14" points="487.46 441.78 493.3 447.58 493.3 454.07 486.4 472.04 481.32 472.04 481.26 460.77 452.48 472.04 431.39 472.04 429.53 468.54 462.58 450.68 466.19 456.07 470.51 456.07 487.64 446.09 487.46 441.78"/><rect id="_Rectangle_2" data-name="&lt;Rectangle&gt;" class="cls-15" x="481.29" y="338.44" width="19.92" height="118.85" transform="translate(982.5 795.73) rotate(-180)"/><path id="_Path_3" data-name="&lt;Path&gt;" class="cls-15" d="M507.46,451.46l-14.19-8.28s-6.24-.06-7,6.05-.19,7.67,4.24,9.73,15.28,4.24,15.28,4.24l3.56-8.51S510.16,453,507.46,451.46Z"/><polygon id="_Path_4" data-name="&lt;Path&gt;" class="cls-16" points="481.79 442.56 475.96 448.37 475.96 454.85 482.86 472.82 487.93 472.82 488 461.55 516.78 472.82 537.86 472.82 539.73 469.32 506.68 451.46 503.07 456.85 498.75 456.85 481.61 446.87 481.79 442.56"/><polygon id="_Path_5" data-name="&lt;Path&gt;" class="cls-17" points="512.24 355.95 452.41 355.95 440.56 240.15 519.05 240.15 512.24 355.95"/><rect id="_Rectangle_3" data-name="&lt;Rectangle&gt;" class="cls-18" x="514.5" y="97.58" width="22.5" height="93.74" rx="11.25" ry="11.25" transform="translate(-14.03 221.36) rotate(-23.47)"/><rect id="_Rectangle_4" data-name="&lt;Rectangle&gt;" class="cls-18" x="422.47" y="95.29" width="22.5" height="93.74" rx="11.25" ry="11.25" transform="translate(761.17 460.12) rotate(-153.99)"/><path class="cls-18" d="M458.48,98.89h44.19a21.49,21.49,0,0,1,21.49,21.49V262.82a0,0,0,0,1,0,0H437a0,0,0,0,1,0,0V120.39A21.49,21.49,0,0,1,458.48,98.89Z"/><path class="cls-19" d="M443.2,94a9.64,9.64,0,0,1-6-11.17c2.81-12.3,8.57-38.12,9.28-45.76a30.28,30.28,0,0,1,4.1-12.78c4.13-6.89,12.31-15,27.9-14.76,12.65.2,20.6,5.52,25.48,11.12a30.1,30.1,0,0,1,7.24,18.19c.49,9,7.48,31.71,11.25,43.4a9.63,9.63,0,0,1-6.1,12.11C498.74,100.22,460.75,100.69,443.2,94Z"/><polygon id="_Path_6" data-name="&lt;Path&gt;" class="cls-4" points="504.08 98.74 509.12 109.48 501.53 118.31 506.45 125.26 477.21 179.94 451.09 125.11 454.85 117.95 450.29 109.48 455.45 98.74 504.08 98.74"/><path id="_Path_7" data-name="&lt;Path&gt;" class="cls-15" d="M480,71.9h.28A7.82,7.82,0,0,0,472.47,80V97.17c0,4.45,3.33,5.83,7.78,5.83h-.14c4.45,0,7.91-1.38,7.91-5.83V80A8.05,8.05,0,0,0,480,71.9Z"/><g id="_Group_" data-name="&lt;Group&gt;"><path id="_Path_8" data-name="&lt;Path&gt;" class="cls-20" d="M502,53.18a9.42,9.42,0,0,1,3.28-3.43c5.08-3.52,11-.67,8.74,5.37-1.57,4.21-4.26,14.63-7.55,10.88C503.94,63.13,502.12,58.74,502,53.18Z"/><polygon id="_Path_9" data-name="&lt;Path&gt;" class="cls-21" points="505.9 53.79 512.57 52.67 507.55 61.82 509.24 54.28 505.9 53.79"/></g><path class="cls-20" d="M446.37,46.71c0,13.55,11.65,37.5,33.87,37.5,24.86,0,32-25.15,32-38.69S505.82,10,480.14,10C455.41,10,446.37,33.16,446.37,46.71Z"/><g id="_Group_2" data-name="&lt;Group&gt;"><line id="_Path_10" data-name="&lt;Path&gt;" class="cls-22" x1="468.44" y1="45.44" x2="476.23" y2="45.04"/><path id="_Path_11" data-name="&lt;Path&gt;" class="cls-22" d="M468.26,46.72a1.3,1.3,0,0,1,.12-2.59l7.79-.4a1.3,1.3,0,0,1,.13,2.6l-7.79.4Z"/></g><g id="_Group_3" data-name="&lt;Group&gt;"><line id="_Path_12" data-name="&lt;Path&gt;" class="cls-22" x1="488.3" y1="45.24" x2="496.09" y2="45.63"/><path id="_Path_13" data-name="&lt;Path&gt;" class="cls-22" d="M488.11,44a1.3,1.3,0,0,0,.12,2.59l7.79.4a1.3,1.3,0,0,0,.13-2.6l-7.79-.4Z"/></g><circle id="_Path_14" data-name="&lt;Path&gt;" cx="489.36" cy="51.88" r="1.76"/><circle id="_Path_15" data-name="&lt;Path&gt;" cx="470.58" cy="52.48" r="1.76"/><polygon id="_Path_16" data-name="&lt;Path&gt;" class="cls-21" points="481.09 49.84 483.75 66.29 481.08 64.35 481.09 49.84"/><polygon class="cls-13" points="478.4 66.29 483.75 66.29 481.08 63.89 478.4 66.29"/><path class="cls-19" d="M513.66,38.59A29.42,29.42,0,0,0,506.1,20.4a32.64,32.64,0,0,0-12.33-8.47h0a40.5,40.5,0,0,0-14-2.56c-16.28-.24-24.82,7.87-29.13,14.76a29.39,29.39,0,0,0-4.28,12.78c-.28,2.89-1.32,8.4-2.66,14.79,9.12,2.23,19.7-2.54,22.69-3.5,11.53-3.69,20.59-8.61,25.26-15.76,3.14,9.16,10.54,17.29,17.8,17.29a12.08,12.08,0,0,0,5.91-1.57A61.63,61.63,0,0,1,513.66,38.59Z"/><g id="_Group_4" data-name="&lt;Group&gt;"><path id="_Path_17" data-name="&lt;Path&gt;" class="cls-20" d="M451.18,53.18a9.37,9.37,0,0,0-2.06-3.43c-3.2-3.52-6.93-.67-5.51,5.37,1,4.21,6.17,13.64,8.24,9.89C453.44,62.14,451.1,58.74,451.18,53.18Z"/><polygon id="_Path_18" data-name="&lt;Path&gt;" class="cls-21" points="448.72 53.79 444.52 52.67 447.69 61.82 446.62 54.28 448.72 53.79"/></g><rect id="_Rectangle_5" data-name="&lt;Rectangle&gt;" class="cls-4" x="521.16" y="249.08" width="22.26" height="8.35" transform="translate(29.58 -54.56) rotate(6.03)"/><polygon id="_Path_19" data-name="&lt;Path&gt;" class="cls-23" points="506.45 98.61 511.49 109.35 503.89 118.17 508.82 125.13 477.98 179.81 453.46 124.98 457.21 117.82 452.66 109.35 457.82 98.61 506.45 98.61"/><polygon id="_Path_20" data-name="&lt;Path&gt;" class="cls-16" points="461.57 98.61 478.77 161.68 500.09 98.61 461.57 98.61"/><polygon id="_Path_21" data-name="&lt;Path&gt;" class="cls-4" points="461.57 98.61 473.16 94.65 480.49 100.88 470.34 116.57 461.57 98.61"/><polygon id="_Path_22" data-name="&lt;Path&gt;" class="cls-24" points="500.09 98.61 489.54 92.48 480.49 100.88 488.83 114.91 500.09 98.61"/><polygon id="_Path_23" data-name="&lt;Path&gt;" class="cls-24" points="461.57 98.61 473.79 92.48 480.49 100.88 471.22 114.91 461.57 98.61"/><ellipse class="cls-13" cx="482.41" cy="73.23" rx="5.45" ry="2"/><path id="_Path_24" data-name="&lt;Path&gt;" class="cls-13" d="M475.09,117.65s8.75-6.45,12-9.82c5.88,2.88,1.44,10.85,1.44,10.85Z"/><path class="cls-4" d="M499.93,91a11.81,11.81,0,1,0-16.15,11.14L485,141.38l7.52-.12.16-39.19A11.81,11.81,0,0,0,499.93,91Z"/><polygon class="cls-25" points="494.04 142.04 486.52 142.16 485.14 96.07 494.23 95.95 494.04 142.04"/><circle class="cls-26" cx="489.69" cy="91.95" r="11.81" transform="translate(-1.15 6.32) rotate(-0.74)"/><rect class="cls-4" x="481.03" y="103.83" width="13.54" height="8.76"/><rect class="cls-25" x="482.07" y="101.4" width="15.82" height="10.24"/><rect class="cls-27" x="484.73" y="103.39" width="10.5" height="6.25"/><path id="_Path_25" data-name="&lt;Path&gt;" class="cls-15" d="M476.19,134l16.11-3s9.23-8.53,11-13c2.11-5.21.67-12.42.31-13.74-1-3.53-13.84,9.89-13.84,9.89L474,117.84Z"/><path id="_Path_26" data-name="&lt;Path&gt;" class="cls-4" d="M486.13,129.79,471.61,112.6,411.1,164.46a11.25,11.25,0,0,0-1.33,15.85h0a11.25,11.25,0,0,0,15.85,1.33Z"/><path id="_Path_27" data-name="&lt;Path&gt;" class="cls-18" d="M487.12,134.44,473.29,116.7,410.8,166.16a11.25,11.25,0,0,0-2,15.79h0a11.25,11.25,0,0,0,15.79,2Z"/><rect id="_Rectangle_6" data-name="&lt;Rectangle&gt;" class="cls-23" x="465.16" y="123.29" width="24.84" height="8.35" transform="translate(300.44 -334) rotate(54.06)"/><path id="_Path_28" data-name="&lt;Path&gt;" class="cls-13" d="M525.15,256.15s-6.1,9-9.34,12.36c3.11,5.76,10.9,1,10.9,1Z"/><path id="_Path_29" data-name="&lt;Path&gt;" class="cls-15" d="M541.52,256.6l-2.38,16.22s-8.16,9.56-12.56,11.55c-5.12,2.32-12.39,1.16-13.72.85-3.56-.82,9.33-14.22,9.33-14.22l3.11-16Z"/><path id="_Path_30" data-name="&lt;Path&gt;" class="cls-4" d="M539.61,258.21,517.34,255l12-78.78a11.25,11.25,0,0,1,12.75-9.51h0a11.25,11.25,0,0,1,9.51,12.75Z"/><path id="_Path_31" data-name="&lt;Path&gt;" class="cls-18" d="M543.83,257.89l-22.41-2,7.49-79.33a11.25,11.25,0,0,1,12.18-10.23h0a11.25,11.25,0,0,1,10.23,12.18Z"/><rect id="_Rectangle_7" data-name="&lt;Rectangle&gt;" class="cls-23" x="521.94" y="249.08" width="22.26" height="8.35" transform="translate(29.58 -54.64) rotate(6.03)"/><rect class="cls-3" x="212.19" y="64.49" width="110.18" height="60.31" rx="9.17" ry="9.17"/><text class="cls-28" transform="translate(237.28 104.03) scale(1.01 1)">SHOP</text><circle class="cls-29" cx="222.47" cy="112.42" r="3.41"/><circle class="cls-29" cx="312.79" cy="112.42" r="3.41"/></svg>