<svg xmlns="http://www.w3.org/2000/svg" viewBox="0 0 708.66 481.89"><defs><style>.cls-1{isolation:isolate;}.cls-2{fill:#648ec9;}.cls-3{fill:#ee4256;}.cls-14,.cls-18,.cls-4{fill-rule:evenodd;}.cls-10,.cls-4{opacity:0.07;}.cls-5{fill:#a57c52;}.cls-6{fill:#c49a6c;}.cls-7{fill:#fff;}.cls-14,.cls-8{fill:#f8ab8d;}.cls-9{fill:#e5e5e4;}.cls-11{fill:#fece57;}.cls-12,.cls-18{fill:#dc846a;}.cls-13{fill:#e59a83;}.cls-15{fill:#eaeaea;}.cls-16{fill:#d6d7d8;}.cls-17{fill:#979797;}.cls-19,.cls-21,.cls-26{fill:none;}.cls-19{stroke:#dc846a;}.cls-19,.cls-21{stroke-linecap:round;stroke-linejoin:round;}.cls-19,.cls-26{stroke-width:2px;}.cls-20{fill:#844c46;}.cls-21{stroke:#f4f4f4;stroke-width:3px;}.cls-22{fill:#686867;}.cls-23{fill:#f4f4f4;}.cls-24{fill:#9b9b9a;}.cls-25{fill:#878787;}.cls-26{stroke:#686867;stroke-miterlimit:10;}.cls-27{fill:#252525;opacity:0.6;mix-blend-mode:color-burn;}.cls-28{fill:#dd4439;}.cls-29{fill:#af322f;}.cls-30{fill:#c6c5c5;}.cls-31{fill:#e26057;}.cls-32{fill:#e9efb3;}.cls-33{fill:#ca4036;}</style></defs><title>CS-L2-U8</title><g class="cls-1"><g id="Layer_1" data-name="Layer 1"><circle class="cls-2" cx="354.49" cy="248.67" r="209.46"/><rect class="cls-3" x="176.5" y="196.34" width="30.13" height="184.34" rx="13.22" ry="13.22"/><path class="cls-4" d="M448.25,344.33c2.67-1.49,5-4,4.31-8.09-4.33-.63-12.31-3-16.9-4.4a4.83,4.83,0,0,0-1-.8l-15.77-8.66.8-1.36a.12.12,0,0,0,0-.16L342.47,274.6,303.4,206.91a12.8,12.8,0,0,0-5.16-4.95,22.88,22.88,0,0,0-18.12-5.17l-35.63,5.29a42.24,42.24,0,0,0,12.89-11.4c11.82-22-10.06-47.32-23.4-57.12A53.68,53.68,0,0,0,220.16,126a11.29,11.29,0,0,0-.3-5c-1.15-3.69-3.27-4.88-3.27-4.88l-5.15,6a16,16,0,0,0-2.56-7.55,37.48,37.48,0,0,0-5.41-7l-8.54,10s-15.8,3.76-24.36,15.65c-13.5,18.74-7.21,34.14-7.21,34.14a24.82,24.82,0,0,0-7.81,6.41c4.59,0,6.89-.36,11.55,1.85,2.55,4.75,7.57,9.63,12,13.35-2.5,3.39-1.71,7.89,3.76,9.89,5.7,2.08,18.74,8.48,17.78,1.81,0-.15-.05-.29-.07-.44A64.65,64.65,0,0,0,217.87,206l-.66.1a22.22,22.22,0,0,0-5.3,1.47A12.88,12.88,0,0,0,201,217l-.22.8a22.07,22.07,0,0,0-2.52,9.14l-18.9,68.7a12.82,12.82,0,0,0,.75,8.86l25.39,85.33a.12.12,0,0,0,.15.08l1.52-.44,4.47,17.43a4.83,4.83,0,0,0,.52,1.22c.23,4.8.53,13.12.07,17.47,3.8,1.68,6.8.06,8.91-2.16-.34,3.45-2.27,24.55,1.88,22.62,1.69-.78,10.48-5.6,14.06-12.38,3.08-5.83,3.87-22.93,3.87-22.93l-6.75-12,96.89-14.38L315.56,279.5l6.31,10.93a12.81,12.81,0,0,0,5.71,5.22c.26.18.51.36.79.52L406.51,343a.12.12,0,0,0,.16,0l1.64-2.78,7.31,4-.7.66L431,360.37s16.77,3.48,23.18,1.95c7.45-1.79,14.3-9.1,15.48-10.55C472.59,348.22,451.67,344.85,448.25,344.33ZM211.69,320.15l-6.41-21.53,2.09-7.59Z"/><rect id="_Rectangle_" data-name="&lt;Rectangle&gt;" class="cls-5" x="303.76" y="195.01" width="25.76" height="107.32" rx="12.88" ry="12.88" transform="translate(715.18 305.71) rotate(150)"/><path id="_Rectangle_2" data-name="&lt;Rectangle&gt;" class="cls-6" d="M212.83,200.36H321.55a0,0,0,0,1,0,0V371.19a22.19,22.19,0,0,1-22.19,22.19h-63.6a22.93,22.93,0,0,1-22.93-22.93V200.36a0,0,0,0,1,0,0Z" transform="translate(575.05 551.31) rotate(171.56)"/><polygon id="_Path_" data-name="&lt;Path&gt;" class="cls-7" points="274.34 198.24 276.81 262.01 236.77 203.82 274.34 198.24"/><path id="_Path_2" data-name="&lt;Path&gt;" class="cls-8" d="M250,174.3l-.27,0a7.81,7.81,0,0,1,8.86,6.82l2.52,17c.65,4.39-2.43,6.25-6.83,6.9l.14,0c-4.39.65-8-.21-8.67-4.6l-2.52-17A8,8,0,0,1,250,174.3Z"/><polygon id="_Path_3" data-name="&lt;Path&gt;" class="cls-9" points="236.77 203.82 245.19 196.34 256.58 203.19 252.73 218.03 236.77 203.82"/><polygon id="_Path_4" data-name="&lt;Path&gt;" class="cls-9" points="274.34 198.24 260.55 194.06 256.58 203.19 269.91 215.48 274.34 198.24"/><ellipse id="_Path_5" data-name="&lt;Path&gt;" class="cls-5" cx="291.19" cy="309.74" rx="5.05" ry="6.25" transform="translate(-42.3 46.09) rotate(-8.44)"/><ellipse id="_Path_6" data-name="&lt;Path&gt;" class="cls-5" cx="296.34" cy="340.9" rx="5.05" ry="6.25" transform="translate(-79.79 90.78) rotate(-15.38)"/><rect class="cls-10" x="70.8" y="356.65" width="567.39" height="49.91" rx="24.95" ry="24.95"/><rect class="cls-11" x="70.8" y="359.65" width="567.39" height="49.91" rx="24.95" ry="24.95"/><rect id="_Rectangle_3" data-name="&lt;Rectangle&gt;" class="cls-5" x="193.76" y="206.04" width="25.76" height="107.32" rx="12.88" ry="12.88" transform="translate(76.3 -45.51) rotate(15.38)"/><path id="_Path_7" data-name="&lt;Path&gt;" class="cls-12" d="M216,404.43s.94,14.78.27,21.12c8.16,3.61,12.58-8,12.58-8Z"/><rect id="_Rectangle_4" data-name="&lt;Rectangle&gt;" class="cls-13" x="206.7" y="330.87" width="20.71" height="79.39" rx="4.88" ry="4.88" transform="translate(519.38 675.57) rotate(165.61)"/><path id="_Path_8" data-name="&lt;Path&gt;" class="cls-5" d="M209.69,389.88l24.51-7.1a.12.12,0,0,0,.08-.15l-26-87.33a12.88,12.88,0,0,0-16-8.78h0a12.88,12.88,0,0,0-8.78,16l26,87.33A.12.12,0,0,0,209.69,389.88Z"/><path id="_Path_9" data-name="&lt;Path&gt;" class="cls-12" d="M436.17,330.74s14.09,4.58,20.39,5.5c1.47,8.8-10.89,10.2-10.89,10.2Z"/><rect id="_Rectangle_5" data-name="&lt;Rectangle&gt;" class="cls-13" x="392.75" y="283.66" width="20.71" height="79.39" rx="4.88" ry="4.88" transform="translate(-74.34 521.08) rotate(-61.23)"/><path id="_Path_10" data-name="&lt;Path&gt;" class="cls-13" d="M418.92,344.9,435,360.37s16.77,3.48,23.18,1.95c7.45-1.79,14.3-9.1,15.48-10.55,3.15-3.86-21.93-7.51-21.93-7.51l-16.7-14.6Z"/><path id="_Path_11" data-name="&lt;Path&gt;" class="cls-5" d="M423.64,321l-13,22a.12.12,0,0,1-.16,0l-78.14-46.86a12.88,12.88,0,0,1-4.55-17.64h0A12.88,12.88,0,0,1,345.46,274l78.14,46.87A.12.12,0,0,1,423.64,321Z"/><path id="_Path_12" data-name="&lt;Path&gt;" class="cls-14" d="M261.38,190.67C245,212,220.69,209.93,199.14,197.24c-22.7-13.36-27.7-40.5-14.07-56.52C200.58,122.5,216.75,118,238,133.56c13.33,9.79,35.22,35.07,23.4,57.12Z"/><path id="_Path_13" data-name="&lt;Path&gt;" class="cls-15" d="M171.1,175.55c3.28,6.12,10.67,12.46,15.58,16.24a6.19,6.19,0,0,1,2.44-4.87,7.4,7.4,0,0,1,.7-.51h0l.37-.22.38-.21.43-.2.32-.13.54-.21.45-.14.46-.12.47-.1.48-.08c.32,0,.65-.08,1-.1l0,.06h.66l.06,0,8.58,7.35a5.06,5.06,0,0,0,3.66,1.55,6.15,6.15,0,0,0,.77,0,8.08,8.08,0,0,0,3-2c1.92-2.24,2-6.07-.22-8l-3.07-2.63a5.84,5.84,0,0,1-.94-7.86l.61-.83c-3.44-3.05-6.23-5.39-8-6.84-2.16-1.79-2.89-3.79.68-8.92l.11-.15c.31-.45.66-.92,1-1.41l.08-.11c.66-.86,1.42-1.79,2.28-2.8l18.6-21.71.15-.3c.53-1.15,2.28-5.39,1-9.42-1.15-3.69-3.27-4.88-3.27-4.88l-5.15,6a16,16,0,0,0-2.56-7.55,37.48,37.48,0,0,0-5.41-7l-8.54,10s-15.8,3.76-24.36,15.65c-13.5,18.74-7.21,34.14-7.21,34.14a24.82,24.82,0,0,0-7.81,6.41C164.14,173.68,166.44,173.34,171.1,175.55Z"/><path id="_Path_14" data-name="&lt;Path&gt;" class="cls-16" d="M201.81,155.19c.66-.86,1.42-1.79,2.28-2.8l18.6-21.71.15-.3c.53-1.15,2.28-5.39,1-9.42-1.15-3.69-3.27-4.88-3.27-4.88s1.4,10.16-.84,14l-.18.3C217.21,134.17,205.63,150,201.81,155.19Z"/><path id="_Path_15" data-name="&lt;Path&gt;" class="cls-16" d="M207.47,107.52s5.49,11.4,3.05,18.77c-2.07,6.26-20.72,29.5-20.72,29.5a50.84,50.84,0,0,0,7.68-5.58c2-1.88,19.65-21.25,18-28.12A25.55,25.55,0,0,0,207.47,107.52Z"/><g id="_Group_" data-name="&lt;Group&gt;"><line id="_Path_16" data-name="&lt;Path&gt;" class="cls-17" x1="231.9" y1="135.97" x2="225.29" y2="142.94"/><path id="_Path_17" data-name="&lt;Path&gt;" class="cls-15" d="M233.25,136.83a1.6,1.6,0,0,0-2.51-2l-6.61,7a1.6,1.6,0,0,0,2.32,2.2l6.61-7A1.62,1.62,0,0,0,233.25,136.83Z"/></g><g id="_Group_2" data-name="&lt;Group&gt;"><line id="_Path_18" data-name="&lt;Path&gt;" class="cls-17" x1="213.94" y1="156.2" x2="208.07" y2="163.8"/><path id="_Path_19" data-name="&lt;Path&gt;" class="cls-15" d="M212.88,155a1.6,1.6,0,0,1,2.32,2.18l-5.87,7.6a1.6,1.6,0,1,1-2.53-2l5.87-7.6A1.62,1.62,0,0,1,212.88,155Z"/></g><polygon id="_Path_20" data-name="&lt;Path&gt;" class="cls-18" points="226.37 156.12 236.58 165.24 238.7 161.74 226.37 156.12"/><path id="_Path_21" data-name="&lt;Path&gt;" class="cls-19" d="M216.43,173.69a11.28,11.28,0,0,0,5.85-3.8h0a12.11,12.11,0,0,0,2.85-6.37"/><path id="_Path_22" data-name="&lt;Path&gt;" class="cls-19" d="M233.73,153.49a11.28,11.28,0,0,0,5.85-3.8h0a12.11,12.11,0,0,0,2.85-6.37"/><g id="_Group_3" data-name="&lt;Group&gt;"><path id="_Path_23" data-name="&lt;Path&gt;" class="cls-14" d="M195.41,184.77s-2.33-.71-6.39.35c-8.07,2.12-10.34,10.69-2.17,13.67,5.7,2.08,18.74,8.48,17.78,1.81C203.89,195.5,201,189.78,195.41,184.77Z"/><polygon id="_Path_24" data-name="&lt;Path&gt;" class="cls-18" points="192.6 189.31 185.59 195.16 199.39 198.04 190.17 193.16 192.6 189.31"/></g><path id="_Path_25" data-name="&lt;Path&gt;" class="cls-15" d="M231.43,185.32l3.83,2.39,8.63,5.38.1.05,2.77,1.73c7.66,4.71,16.59,3.12,19.94-3.56l4-7.86a12.22,12.22,0,0,0,.41-9.6,24.06,24.06,0,0,0-6.46-9.48l-11.31-9.14c-3.34-2.05-5.09-2.31-7.16.15L228.47,176l-.43.5C226.61,179.3,228.13,183.26,231.43,185.32Z"/><path id="_Path_26" data-name="&lt;Path&gt;" class="cls-15" d="M209.18,193.91a27.37,27.37,0,0,0,5.77-1.43c7.11-2.35,16.47-6.22,26.88-1.19l.08,0c5,2.43,5.2,1.19,3.25-1.35C241.8,185.61,232,177.42,229,177.43h0c-3.31,4.2-14.55,8.88-19.69,4.84S200.82,195.35,209.18,193.91Z"/><path id="_Path_27" data-name="&lt;Path&gt;" class="cls-15" d="M263.34,162.74c-4.94-3.63-3.62-10.54-16.15-21.07,5.41,7.8,2.21,9.88-1.09,14.08C246.8,158.81,258.67,161,263.34,162.74Z"/><path class="cls-15" d="M210.55,190.7c-64.1-45.34,86.26,111.62,91.19,70.25,5.49-59.7-29.22-62.68-35.94-81.15-4.87-13.39-10.33-9.55-10.92-14.38-1.16-9.61-17.36,7.61-17.36,7.61s-12.43,9.26-21.09,14A45.65,45.65,0,0,0,210.55,190.7Z"/><g class="cls-10"><path d="M236.07,267.17a.56.56,0,0,0,0-.11C235.87,267.64,235.86,267.93,236.07,267.17Z"/><path d="M313.5,249.77c-2.15-2.79-10-10.45-7.54-11.36s4-12.33,1.35-14.81a10,10,0,0,1-2.92-4.76.56.56,0,0,1,.29-.62l1.33-.7-11.79-8.93q-1-.77-2.08-1.47c-.73-.48,0-1.52,0-1.66L290,203.16a38.6,38.6,0,0,0-2.74-9.16c-2-4.06-12.47-10.5-17-14.18s-2.54-5.65-.78-4.66-5.35-6.54-5.35-6.54l-62,28.05c-1,13.13,1.53,19.21,3.37,20.73s-.09-2.86,1.88-1.13,3.33,16.12,4.48,21.85c1,4.75,4.86,5.12,6.66,6.81a.56.56,0,0,0,.93-.38.56.56,0,0,1,1-.31c3.45,4.44,15.82,20.56,15.73,22.82.37-1,1.37-3,2.91-1.64,2.38,2,5.11,9.61,17.11,8.81a.54.54,0,0,1,.47.21C258,276.36,268.48,290,273,291.7a.56.56,0,0,0,.77-.56l-.05-1a.56.56,0,0,1,1-.42,13.27,13.27,0,0,0,8.77,4.19c6.34.42,11.16.12,16.64,6.24a.56.56,0,0,0,.92-.11l.95-1.86a.56.56,0,0,1,.93-.11l7.64,9.17a.56.56,0,0,0,1-.52c-1.33-4.28-3.58-12.27-2.53-14.17.49-.88,1-.66,1.36,0a.56.56,0,0,0,1.05-.26c0-2.47.23-5.31,1.22-6.9,2-3.25,5.46-12.62,1.47-19.26-3-4.91.08-2.41,1.86-.78a.56.56,0,0,0,.93-.48C316.45,261.26,315.21,252,313.5,249.77Z"/></g><path class="cls-15" d="M199.11,189.08c-.91,13.13,1.61,19.2,3.46,20.71s-.1-2.86,1.88-1.14,3.4,16.11,4.57,21.83c1,4.75,4.88,5.1,6.68,6.78a.56.56,0,0,0,.93-.38h0a.56.56,0,0,1,1-.31c3.52,4.5,16.33,21,15.82,22.87-.59,2.11.49-3.81,2.9-1.76s5.15,9.59,17.15,8.74a.54.54,0,0,1,.47.21c1.47,1.93,12,15.51,16.52,17.21a.56.56,0,0,0,.77-.56l-.05-1a.56.56,0,0,1,1-.42,13.27,13.27,0,0,0,8.78,4.15c6.35.39,11.16.07,16.67,6.18a.56.56,0,0,0,.92-.11l.94-1.86a.56.56,0,0,1,.93-.11l7.68,9.14a.56.56,0,0,0,1-.53c-1.35-4.28-3.63-12.26-2.58-14.16.49-.89,1-.67,1.36,0a.56.56,0,0,0,1.05-.27c0-2.47.21-5.31,1.19-6.91,2-3.26,5.41-12.64,1.39-19.27-3-4.9.07-2.41,1.86-.79a.56.56,0,0,0,.93-.48c-.45-3.68-1.73-12.94-3.44-15.16-2.16-2.78-10.07-10.41-7.59-11.33s4-12.35,1.29-14.82a10,10,0,0,1-2.94-4.75.56.56,0,0,1,.28-.63l1.33-.7-11.82-8.89q-1-.76-2.08-1.46c-.73-.48-.05-1.52,0-1.66l-7-7.32,4.51,5.57a.32.32,0,0,0,.35-.38,39,39,0,0,0-2.8-9.29c-2-4.05-12.51-10.45-17.07-14.11s-2.56-5.64-.8-4.66-5.37-6.52-5.37-6.52"/><ellipse class="cls-12" cx="250.82" cy="174.99" rx="11.23" ry="9.92" transform="translate(42.08 398.51) rotate(-81.86)"/><path class="cls-20" d="M249.3,186.11a12.56,12.56,0,0,1,0-3.51c.87-6.12,5.95-10.45,11.35-9.71-.64-4.63-3.88-8.38-8.24-9-5.42-.78-10.53,3.57-11.41,9.71s2.81,11.74,8.23,12.52Z"/><polyline class="cls-21" points="269.54 132.79 281.01 127.34 275.26 143.48 286.5 138.15"/><polyline class="cls-21" points="283.36 101.71 299.18 94.2 291.26 116.46 306.76 109.1"/><path class="cls-10" d="M604.73,309.74H516.46a13.5,13.5,0,0,0-13.5,13.5v42c-6.86,2.78-29.2,18.5-24.12,104.7.23,3.93-2.92,6.53-9.38,7.73-20,3.71-65.87-8.81-69.94-21.62-1.21-3.82,1.73-7.4,8.74-10.62,15.17-7,22.11-12.29,22.48-17.18.34-4.35-4.4-7.5-9.42-10.84-5.91-3.93-12.61-8.38-12-15.3.83-9.1-3.71-16.7-7.71-23.41-3.1-5.2-5.78-9.69-4.84-13.32.5-1.92,2-3.59,4.62-5.12l-1-1.73c-3.1,1.81-4.91,3.88-5.55,6.35-1.15,4.44,1.73,9.26,5.06,14.84,3.84,6.45,8.2,13.76,7.44,22.21-.74,8.1,6.49,12.91,12.87,17.14,4.52,3,8.78,5.84,8.54,9-.31,4-7.28,9-21.33,15.52-8.07,3.72-11.37,8.11-9.81,13,2,6.44,13.25,13.28,30,18.29,11.65,3.49,23.78,5.41,33.34,5.41a49.66,49.66,0,0,0,8.89-.71c9.47-1.75,11.22-6.3,11-9.81C476,388.52,496.12,371.08,503,367.52v2.78H618.23V323.24A13.5,13.5,0,0,0,604.73,309.74Z"/><polyline class="cls-21" points="306.76 65.35 328.62 54.96 317.67 85.73 339.1 75.56"/><path class="cls-22" d="M516.46,307.74h88.27a13.5,13.5,0,0,1,13.5,13.5v47.07a0,0,0,0,1,0,0H503a0,0,0,0,1,0,0V321.24A13.5,13.5,0,0,1,516.46,307.74Z"/><circle class="cls-23" cx="560.6" cy="339.73" r="23.93"/><circle class="cls-24" cx="560.6" cy="322.07" r="3.99"/><circle class="cls-24" cx="551.76" cy="324.43" r="3.99" transform="translate(-88.29 319.35) rotate(-30)"/><circle class="cls-24" cx="545.3" cy="330.9" r="3.99" transform="translate(-13.92 637.69) rotate(-60)"/><circle class="cls-24" cx="542.93" cy="339.73" r="3.99"/><circle class="cls-24" cx="545.3" cy="348.56" r="3.99" transform="translate(-101.23 319.35) rotate(-30)"/><circle class="cls-24" cx="551.76" cy="355.03" r="3.99" transform="matrix(0.5, -0.87, 0.87, 0.5, -31.58, 655.36)"/><circle class="cls-24" cx="560.6" cy="357.4" r="3.99"/><circle class="cls-24" cx="569.43" cy="355.03" r="3.99" transform="translate(-101.23 332.28) rotate(-30)"/><circle class="cls-24" cx="575.89" cy="348.56" r="3.99" transform="translate(-13.92 673.02) rotate(-60)"/><circle class="cls-24" cx="578.26" cy="339.73" r="3.99"/><circle class="cls-24" cx="575.89" cy="330.9" r="3.99" transform="translate(-88.29 332.28) rotate(-30)"/><circle class="cls-24" cx="569.43" cy="324.43" r="3.99" transform="translate(3.75 655.36) rotate(-60)"/><path class="cls-10" d="M488.92,325.35h0a16.57,16.57,0,0,0-31.19,11.21l1,2.79-28.78,10.35-1-2.79a16.57,16.57,0,0,0-21.2-10h0a16.57,16.57,0,0,0-10,21.2h0a16.57,16.57,0,0,0,21.2,10l9.13-3.28h0l40.26-14.47-.06-.17a6.87,6.87,0,0,0,1.51-.35l9.13-3.28A16.57,16.57,0,0,0,488.92,325.35Z"/><rect class="cls-22" x="435.56" y="325.3" width="13.61" height="50.31" transform="translate(622.51 -184.39) rotate(70.23)"/><path class="cls-22" d="M473.32,312.38h0A16.57,16.57,0,0,1,489.89,329v9.71a6.87,6.87,0,0,1-6.87,6.87h-9.71A16.57,16.57,0,0,1,456.75,329v0A16.57,16.57,0,0,1,473.32,312.38Z" transform="translate(622.75 -227.74) rotate(70.23)"/><path class="cls-22" d="M413.35,333.94h9.71a6.87,6.87,0,0,1,6.87,6.87v9.71a16.57,16.57,0,0,1-16.57,16.57h0a16.57,16.57,0,0,1-16.57-16.57v0a16.57,16.57,0,0,1,16.57-16.57Z" transform="translate(603.36 -157.04) rotate(70.23)"/><circle class="cls-25" cx="472.53" cy="325.88" r="11.54" transform="translate(-82.38 179.07) rotate(-19.77)"/><circle class="cls-25" cx="412.45" cy="348.01" r="11.54" transform="translate(-93.41 160.05) rotate(-19.77)"/><path class="cls-26" d="M505,363.67s-31,4.64-25.18,104.22c1.48,25.13-115.16-5.48-72-25.37,49.92-23-1.3-22.71.5-42.5S385,366.68,400.9,357.4"/><line class="cls-21" x1="465.97" y1="307.74" x2="456" y2="293.52"/><line class="cls-21" x1="472.53" y1="303.83" x2="472.53" y2="278.19"/><path class="cls-27" d="M538.28,95.32h-6.1V92.61a3.29,3.29,0,1,0-6.59,0v2.71H480V92.61a3.29,3.29,0,1,0-6.59,0v2.71h-7.6a8.36,8.36,0,0,0-8.36,8.36v90.72a8.36,8.36,0,0,0,8.36,8.36h72.49a8.36,8.36,0,0,0,8.36-8.36V103.68A8.36,8.36,0,0,0,538.28,95.32Zm-12.64,8.8a3.28,3.28,0,0,0,6.51,0,4.81,4.81,0,1,1-6.51,0Zm-52.21,0a3.28,3.28,0,0,0,6.51,0,4.81,4.81,0,1,1-6.51,0Z"/><path class="cls-7" d="M536.24,93.28H463.75a8.36,8.36,0,0,0-8.36,8.36v90.72a8.36,8.36,0,0,0,8.36,8.36h72.49a8.36,8.36,0,0,0,8.36-8.36V101.64A8.36,8.36,0,0,0,536.24,93.28Zm-61.6,17.13a4.81,4.81,0,1,1,4.8-4.81A4.8,4.8,0,0,1,474.64,110.42Zm52.21,0a4.81,4.81,0,1,1,4.81-4.81A4.8,4.8,0,0,1,526.85,110.42Z"/><path class="cls-28" d="M536.24,93.28H463.75a8.36,8.36,0,0,0-8.36,8.36v15.11H544.6V101.64A8.36,8.36,0,0,0,536.24,93.28Zm-61.6,17.13a4.81,4.81,0,1,1,4.8-4.81A4.8,4.8,0,0,1,474.64,110.42Zm52.21,0a4.81,4.81,0,1,1,4.81-4.81A4.8,4.8,0,0,1,526.85,110.42Z"/><rect class="cls-29" x="455.39" y="116.24" width="89.21" height="8.28"/><path class="cls-29" d="M474.64,98.69a6.92,6.92,0,1,0,6.92,6.92A6.92,6.92,0,0,0,474.64,98.69Zm0,11.73a4.81,4.81,0,1,1,4.8-4.81A4.8,4.8,0,0,1,474.64,110.42Z"/><path class="cls-29" d="M526.85,98.69a6.92,6.92,0,1,0,6.92,6.92A6.92,6.92,0,0,0,526.85,98.69Zm0,11.73a4.81,4.81,0,1,1,4.81-4.81A4.8,4.8,0,0,1,526.85,110.42Z"/><path class="cls-29" d="M477.94,101.67a3.29,3.29,0,0,1-3.3,3.3h0a3.29,3.29,0,0,1-3.29-3.3V90.57a3.29,3.29,0,0,1,3.29-3.3h0a3.29,3.29,0,0,1,3.3,3.3Z"/><path class="cls-29" d="M530.14,101.67a3.29,3.29,0,0,1-3.29,3.3h0a3.29,3.29,0,0,1-3.3-3.3V90.57a3.29,3.29,0,0,1,3.3-3.3h0a3.29,3.29,0,0,1,3.29,3.3Z"/><rect class="cls-30" x="485.13" y="136.29" width="12.08" height="12.07"/><rect class="cls-30" x="502.79" y="136.29" width="12.08" height="12.08"/><rect class="cls-30" x="520.44" y="136.29" width="12.08" height="12.08"/><rect class="cls-30" x="467.47" y="155.82" width="12.08" height="12.08"/><rect class="cls-30" x="485.13" y="155.82" width="12.08" height="12.08"/><rect class="cls-28" x="502.79" y="155.82" width="12.08" height="12.08"/><rect class="cls-28" x="520.44" y="155.82" width="12.08" height="12.08"/><rect class="cls-28" x="467.47" y="175.35" width="12.08" height="12.08"/><rect class="cls-28" x="485.13" y="175.35" width="12.08" height="12.08"/><rect class="cls-28" x="502.79" y="175.35" width="12.08" height="12.08"/><rect class="cls-28" x="520.44" y="175.35" width="12.08" height="12.08"/><path class="cls-31" d="M271.48,431.35a2.64,2.64,0,0,0,.15,1.05l4.12-.82L272.53,429A3.06,3.06,0,0,0,271.48,431.35Z"/><polygon class="cls-32" points="266 433.69 264.9 430.87 265.65 427.2 267.71 425.18 272.69 429.11 272.09 432.34 266 433.69"/><polygon class="cls-28" points="199.73 415.23 199.73 415.23 200.59 418.08 266 433.68 275.67 431.55 264.9 430.87 199.73 415.23"/><polygon class="cls-28" points="272.23 431.33 275.67 431.55 272.39 430.13 272.23 431.33"/><polygon class="cls-28" points="200.4 411.57 199.73 415.23 264.9 430.87 265.65 427.2 200.4 411.57"/><polygon class="cls-28" points="200.4 411.57 200.4 411.57 265.65 427.2 267.72 425.17 202.54 409.55 200.4 411.57"/><polygon class="cls-33" points="272.39 430.13 275.67 431.55 275.75 431.53 267.72 425.17 272.53 429.04 272.39 430.13"/><polygon class="cls-32" points="266 433.68 272.09 432.34 272.23 431.33 264.9 430.87 266 433.68"/><polygon class="cls-32" points="265.65 427.2 264.9 430.87 272.23 431.33 272.39 430.13 265.65 427.2"/><polygon class="cls-32" points="272.39 430.13 272.54 428.99 267.72 425.17 265.65 427.2 272.39 430.13"/><path class="cls-28" d="M271.45,431.33l.32-1.47,4,1.74L272.54,429A2.58,2.58,0,0,0,271.45,431.33Z"/><path class="cls-28" d="M271.45,431.46a2,2,0,0,0,.36,1l4-.83-4.34-.25S271.45,431.43,271.45,431.46Z"/><polygon class="cls-28" points="271.45 431.33 271.44 431.35 271.45 431.35 275.79 431.6 271.77 429.86 271.45 431.33"/><path id="_Path_28" data-name="&lt;Path&gt;" class="cls-13" d="M233.18,391.75,245,410.69s-.79,17.11-3.87,22.93C237.53,440.4,228.74,445.22,227,446c-4.52,2.1-1.83-23.11-1.83-23.11l-9.54-16Z"/></g></g></svg>