<svg id="Layer_1" data-name="Layer 1" xmlns="http://www.w3.org/2000/svg" viewBox="0 0 708.66 622.11"><defs><style>.cls-1{fill:#ffdc83;}.cls-14,.cls-2,.cls-21,.cls-24,.cls-25,.cls-3,.cls-32,.cls-34,.cls-35,.cls-38,.cls-40,.cls-41,.cls-42,.cls-45,.cls-49,.cls-52,.cls-53,.cls-54,.cls-58,.cls-8{fill:none;}.cls-2,.cls-3,.cls-53,.cls-57,.cls-58{stroke:#fec82b;}.cls-14,.cls-2,.cls-21,.cls-24,.cls-25,.cls-3,.cls-32,.cls-38,.cls-40,.cls-41,.cls-42,.cls-45,.cls-49,.cls-52,.cls-53,.cls-54,.cls-57,.cls-58{stroke-linecap:round;}.cls-2,.cls-3,.cls-34,.cls-35,.cls-38,.cls-40,.cls-41,.cls-42,.cls-49,.cls-53,.cls-54,.cls-57,.cls-58,.cls-8{stroke-miterlimit:10;}.cls-2,.cls-3,.cls-57,.cls-58{stroke-width:6px;}.cls-3{stroke-dasharray:9.95 9.95;}.cls-4,.cls-56{fill:#e7685d;}.cls-5{fill:#b97d4f;}.cls-6{fill:#8b6339;}.cls-7{fill:#c0e4ed;}.cls-8{stroke:#39b54a;}.cls-9{fill:#4c836a;}.cls-10,.cls-20{fill:#dc846a;}.cls-11{fill:#fec82b;}.cls-12{fill:#58595b;}.cls-13,.cls-17{fill:#f8ab8d;}.cls-14{stroke:#414042;stroke-width:0.6px;}.cls-14,.cls-21,.cls-24,.cls-25,.cls-32,.cls-45,.cls-52{stroke-linejoin:round;}.cls-15{fill:#414042;}.cls-16,.cls-57{fill:#fff;}.cls-17,.cls-20,.cls-25{fill-rule:evenodd;}.cls-18{fill:#979797;}.cls-19{fill:gray;}.cls-21,.cls-32,.cls-45,.cls-52{stroke:#dc846a;}.cls-21{stroke-width:0.62px;}.cls-22{fill:#dd4439;}.cls-23{fill:#0d5b70;}.cls-24,.cls-25{stroke:#ffdc83;stroke-width:1.2px;}.cls-26{fill:#b18a64;}.cls-27{fill:#648ec9;}.cls-28{fill:#3f5aa8;}.cls-29{fill:#54402b;}.cls-30{fill:#6c4e38;}.cls-31{fill:#ee4256;}.cls-32{stroke-width:1.21px;}.cls-33{fill:#6d6e71;}.cls-34{stroke:#dd4439;}.cls-35{stroke:#e7685d;stroke-width:3.61px;}.cls-36{fill:#353560;}.cls-37{fill:#4d4e4e;}.cls-38,.cls-42,.cls-49{stroke:#3f5aa8;}.cls-38{stroke-width:1.5px;}.cls-39{fill:#939598;}.cls-40{stroke:#fff;stroke-width:1.2px;}.cls-41,.cls-54{stroke:#8b6339;}.cls-41{stroke-width:5.42px;}.cls-42{stroke-width:1.29px;}.cls-43{fill:#e5e5e4;}.cls-44{fill:#754d24;}.cls-45{stroke-width:1.1px;}.cls-46{fill:#f1f2f2;}.cls-47{fill:#8ecedd;}.cls-48{fill:#808285;}.cls-49{stroke-width:1.33px;}.cls-50{fill:#d6742b;}.cls-51{fill:#bc5f20;}.cls-52{stroke-width:0.75px;}.cls-53{stroke-width:2.54px;}.cls-54{stroke-width:3.17px;}.cls-55{fill:#e6e7e8;}.cls-56{font-size:18.84px;font-family:Chevin-Bold, Chevin;font-weight:700;}.cls-58{stroke-dasharray:10;}</style></defs><title>Diagram_01</title><path class="cls-1" d="M149.33,341.2h440.5A53.75,53.75,0,0,1,643.58,395V548.13a0,0,0,0,1,0,0h-548a0,0,0,0,1,0,0V395A53.75,53.75,0,0,1,149.33,341.2Z"/><line class="cls-2" x1="643.58" y1="548.13" x2="643.58" y2="543.13"/><path class="cls-3" d="M643.58,533.18V395a53.75,53.75,0,0,0-53.75-53.75H149.33A53.75,53.75,0,0,0,95.58,395v143.2"/><line class="cls-2" x1="95.58" y1="543.13" x2="95.58" y2="548.13"/><rect class="cls-4" x="340.81" y="77.53" width="57.53" height="68.83" rx="16.04" ry="16.04"/><rect class="cls-5" x="283.24" y="115.97" width="172.67" height="13.83"/><rect class="cls-6" x="325.66" y="128.2" width="88.87" height="62.51"/><path class="cls-7" d="M319.77,63.26V61.88a17.5,17.5,0,0,0-17.5,17.5v22h6.81v-22A17.5,17.5,0,0,1,319.77,63.26Z"/><line class="cls-8" x1="299.51" y1="39.13" x2="299.51" y2="90.92"/><path class="cls-9" d="M301.7,58.8a8.68,8.68,0,0,0-2.49,7.11,8.69,8.69,0,0,0,9.6-9.6A8.68,8.68,0,0,0,301.7,58.8Z"/><path class="cls-9" d="M301.7,68.94A8.68,8.68,0,0,0,299.21,76a8.69,8.69,0,0,0,9.6-9.6A8.68,8.68,0,0,0,301.7,68.94Z"/><path class="cls-9" d="M301.7,79.07a8.68,8.68,0,0,0-2.49,7.11,8.69,8.69,0,0,0,9.6-9.6A8.68,8.68,0,0,0,301.7,79.07Z"/><path class="cls-9" d="M292.7,68.55a8.68,8.68,0,0,1-2.49-7.11,8.69,8.69,0,0,1,9.6,9.6A8.68,8.68,0,0,1,292.7,68.55Z"/><path class="cls-9" d="M292.7,58.41a8.68,8.68,0,0,1-2.49-7.11,8.69,8.69,0,0,1,9.6,9.6A8.68,8.68,0,0,1,292.7,58.41Z"/><path class="cls-9" d="M292.7,78.69a8.68,8.68,0,0,1-2.49-7.11,8.69,8.69,0,0,1,9.6,9.6A8.68,8.68,0,0,1,292.7,78.69Z"/><path id="_Path_" data-name="&lt;Path&gt;" class="cls-10" d="M357.27,55.31a63.2,63.2,0,0,0-7.12,0c-1.24-2.74,2.68-4.26,2.68-4.26Z"/><path class="cls-11" d="M348.83,53.81l-11.4,2.3a6.49,6.49,0,0,0-4.87,4.31l-10.92-.65-1.32,4.6,5.16,2.69,5.07,2.65a7.92,7.92,0,0,1,4.1,5.45h0a6.5,6.5,0,0,0,7.66,5.09l11.4-2.3a6.5,6.5,0,0,0,5.09-7.66l-2.3-11.4A6.5,6.5,0,0,0,348.83,53.81Z"/><path class="cls-11" d="M342,48.59a9.69,9.69,0,1,0,11.42,7.58A9.69,9.69,0,0,0,342,48.59Zm3.3,16.35a7,7,0,1,1,5.47-8.24A7,7,0,0,1,345.26,64.94Z"/><path id="_Rectangle_" data-name="&lt;Rectangle&gt;" class="cls-12" d="M386.65,46.28h0A4.35,4.35,0,0,1,391,50.63V78.15a4.34,4.34,0,0,1-4.34,4.34h0a4.35,4.35,0,0,1-4.35-4.35V50.63A4.35,4.35,0,0,1,386.65,46.28Z" transform="translate(747.47 217.51) rotate(-166.46)"/><path id="_Path_2" data-name="&lt;Path&gt;" class="cls-12" d="M358.92,59l6.25-6,21.21,22.31a4.34,4.34,0,0,1-.11,6.14h0a4.35,4.35,0,0,1-6.14-.11Z"/><path id="_Path_3" data-name="&lt;Path&gt;" class="cls-13" d="M361.68,49.2l-6.59-3.66s-5.77.31-7.73,1.36c-2.28,1.22-3.88,4.2-4.14,4.77-.7,1.53,7.8.57,7.8.57l6.7,3.33Z"/><rect id="_Rectangle_2" data-name="&lt;Rectangle&gt;" class="cls-4" x="354.18" y="50.99" width="11.62" height="6.13" transform="translate(649.92 -166.06) rotate(134.26)"/><line id="_Path_4" data-name="&lt;Path&gt;" class="cls-14" x1="391.35" y1="26.25" x2="395.5" y2="25.09"/><path id="_Path_5" data-name="&lt;Path&gt;" class="cls-10" d="M425,94.27a63.2,63.2,0,0,1-4.8,5.26c1.18,2.77,4.95.93,4.95.93Z"/><path id="_Rectangle_3" data-name="&lt;Rectangle&gt;" class="cls-15" d="M394.63,46.08h20.64a8.79,8.79,0,0,1,8.79,8.79v59.78a0,0,0,0,1,0,0H385.44a0,0,0,0,1,0,0V55.27A9.19,9.19,0,0,1,394.63,46.08Z" transform="translate(1.54 -7.38) rotate(1.05)"/><polygon id="_Path_6" data-name="&lt;Path&gt;" class="cls-12" points="413.44 46.23 414.53 50.09 411.31 53.19 412.6 55.7 398.34 74.98 393.21 55.29 394.98 52.76 393.92 49.72 396.41 45.92 413.44 46.23"/><polygon id="_Path_7" data-name="&lt;Path&gt;" class="cls-4" points="397.72 45.94 399.76 68.52 411.21 46.19 397.72 45.94"/><polygon id="_Path_8" data-name="&lt;Path&gt;" class="cls-16" points="403.14 51.83 403.46 61.31 399.76 68.52 399.04 60.46 401.99 51.52 403.14 51.83"/><ellipse id="_Path_9" data-name="&lt;Path&gt;" class="cls-12" cx="400.8" cy="85.6" rx="2.22" ry="1.79" transform="translate(307.89 484.77) rotate(-88.95)"/><ellipse id="_Path_10" data-name="&lt;Path&gt;" class="cls-12" cx="400.57" cy="97.73" rx="2.22" ry="1.79" transform="translate(295.54 496.46) rotate(-88.95)"/><rect id="_Rectangle_4" data-name="&lt;Rectangle&gt;" class="cls-12" x="407.59" y="93.11" width="8.58" height="3.18" transform="translate(821.97 196.9) rotate(-178.95)"/><rect id="_Rectangle_5" data-name="&lt;Rectangle&gt;" class="cls-13" x="429.69" y="73.01" width="6.99" height="26.78" rx="2.19" ry="2.19" transform="translate(771.57 370.33) rotate(-151.28)"/><path id="_Path_11" data-name="&lt;Path&gt;" class="cls-13" d="M432.59,95.4l-1.78,7.33s-4.14,4-6.24,4.76c-2.44.84-5.72,0-6.32-.19-1.6-.53,4.88-6.11,4.88-6.11l2.1-7.18Z"/><rect id="_Rectangle_6" data-name="&lt;Rectangle&gt;" class="cls-12" x="427.59" y="39.61" width="8.69" height="36.21" rx="4.35" ry="4.35" transform="translate(676.35 -303.07) rotate(116.51)"/><path id="_Path_12" data-name="&lt;Path&gt;" class="cls-12" d="M426.89,89.44l7.75,3.94,13.75-27.54a4.35,4.35,0,0,0-1.9-5.84h0a4.35,4.35,0,0,0-5.84,1.9Z"/><rect id="_Rectangle_7" data-name="&lt;Rectangle&gt;" class="cls-4" x="423.41" y="90.35" width="11.62" height="6.13" transform="translate(760.74 381.59) rotate(-151.28)"/><path id="_Path_13" data-name="&lt;Path&gt;" class="cls-17" d="M401.61,42.41c8.27.6,12.79-5.44,14.28-13,1.57-8-3.67-14.7-10.16-14.84-7.39-.16-11.75,2.64-12.5,10.74-.47,5.09.87,15.32,8.39,17.12Z"/><path id="_Path_14" data-name="&lt;Path&gt;" class="cls-13" d="M404.93,38.95H405a2.41,2.41,0,0,0-2.44,2.44l-.1,5.31c0,1.37,1,1.82,2.36,1.84h0c1.37,0,2.45-.38,2.47-1.75l.1-5.31A2.48,2.48,0,0,0,404.93,38.95Z"/><path id="_Path_15" data-name="&lt;Path&gt;" class="cls-18" d="M416.64,18.47a18.76,18.76,0,0,1,.55,6.93,1.91,1.91,0,0,0-1.63-.44l-.26.06h0l-.13,0-.13,0-.13.06-.1,0-.16.08-.12.08-.12.08-.12.09-.12.09-.22.21v0l0,.05,0,0,0,0v0h0v0l-.06,3.49a1.56,1.56,0,0,1-.39,1.16,1.9,1.9,0,0,1-.16.17,2.49,2.49,0,0,1-1.07.29,1.82,1.82,0,0,1-1.8-1.69l0-1.25a1.8,1.8,0,0,0-1.62-1.83l-.32,0c0-1.42,0-2.55.06-3.24,0-.87-.28-1.45-2.2-1.67h-.06l-.54-.05h0l-1.11,0-8.83-.16-.1,0a4.36,4.36,0,0,1-2.38-1.7,2.63,2.63,0,0,1-.46-1.76l2.44,0A5,5,0,0,1,394,15.6a11.57,11.57,0,0,1-.51-2.69l4.05.07s4.11-2.88,8.61-2.41c7.1.73,9.36,5.34,9.36,5.34a7.66,7.66,0,0,1,3.08-.49A6.55,6.55,0,0,0,416.64,18.47Z"/><path id="_Path_16" data-name="&lt;Path&gt;" class="cls-19" d="M405.64,21.38l-1.11,0-8.83-.16-.1,0a4.36,4.36,0,0,1-2.38-1.7,2.63,2.63,0,0,1-.46-1.76s2.06,2.41,3.4,2.67l.11,0C397.63,20.63,403.66,21.2,405.64,21.38Z"/><path id="_Path_17" data-name="&lt;Path&gt;" class="cls-18" d="M407.29,34.8l-.23,1.26-.51,2.84v0l-.16.91c-.47,2.5-2.58,4.09-4.72,3.54l-2.52-.65A3.61,3.61,0,0,1,396.93,41a6.57,6.57,0,0,1-.83-3.15l.2-4.11c.21-1.09.49-1.51,1.45-1.48l8.05.15h.2A2,2,0,0,1,407.29,34.8Z"/><path id="_Path_18" data-name="&lt;Path&gt;" class="cls-16" d="M400.69,36.34c-1.71,0-3.19-1-3.18-2v-.25l6.59.12v.25c0,1-1,2-2.91,1.93Z"/><path id="_Path_19" data-name="&lt;Path&gt;" class="cls-19" d="M393.47,12.91s1.51,3.61,3.71,4.55c1.87.81,11.06,1.27,11.06,1.27a15.7,15.7,0,0,1-2.86.63c-.84.07-8.93.18-10.17-1.62A7.89,7.89,0,0,1,393.47,12.91Z"/><path id="_Path_20" data-name="&lt;Path&gt;" class="cls-18" d="M413.2,30.87a8,8,0,0,1-1.39,1c-1.84,1.17-4.45,2.57-5.24,5.86v0c-.37,1.58-.69,1.39-.91.48-.37-1.56-.42-5.29.14-6h0c1.56,0,4.49-.94,4.53-2.84S415.07,29.24,413.2,30.87Z"/><path id="_Path_21" data-name="&lt;Path&gt;" class="cls-18" d="M396.14,37.35c.09-1.79-2.93-4-3-8.75a4.81,4.81,0,0,0,4.6,3.56C398.31,32.89,396.6,36,396.14,37.35Z"/><path id="_Path_22" data-name="&lt;Path&gt;" class="cls-19" d="M411.81,31.91c-1.85,1.4-4.46,3.08-5.26,7v0l-.16.91c-.47,2.5-2.58,4.09-4.72,3.54l-2.52-.65A3.61,3.61,0,0,1,396.93,41a15.28,15.28,0,0,0,4,1.15c1.9.2,4.2-.4,4.75-2.65h0a13.43,13.43,0,0,1,1.43-3.44A8.54,8.54,0,0,1,411.81,31.91Z"/><g id="_Group_" data-name="&lt;Group&gt;"><line id="_Path_23" data-name="&lt;Path&gt;" class="cls-18" x1="395.03" y1="24.39" x2="397.99" y2="24.29"/><path id="_Path_24" data-name="&lt;Path&gt;" class="cls-18" d="M395,24.87a.49.49,0,0,1,.06-1l3-.1a.49.49,0,0,1,0,1l-3,.1Z"/></g><g id="_Group_2" data-name="&lt;Group&gt;"><line id="_Path_25" data-name="&lt;Path&gt;" class="cls-18" x1="403.38" y1="24.39" x2="406.34" y2="24.59"/><path id="_Path_26" data-name="&lt;Path&gt;" class="cls-18" d="M403.32,23.9a.49.49,0,0,0,0,1l3,.2a.49.49,0,1,0,.07-1l-3-.2Z"/></g><circle id="_Path_27" data-name="&lt;Path&gt;" cx="404.44" cy="27.6" r="0.67" transform="translate(369.45 431.47) rotate(-88.95)"/><circle id="_Path_28" data-name="&lt;Path&gt;" cx="396.68" cy="27.69" r="0.67" transform="translate(361.75 423.8) rotate(-88.95)"/><polygon id="_Path_29" data-name="&lt;Path&gt;" class="cls-20" points="400.81 27.24 400.83 31.47 399.58 31.24 400.81 27.24"/><path id="_Path_30" data-name="&lt;Path&gt;" class="cls-21" d="M406.91,28.55a3.48,3.48,0,0,1-2.08.57h0a3.74,3.74,0,0,1-2.05-.65"/><path id="_Path_31" data-name="&lt;Path&gt;" class="cls-21" d="M398.7,28.4a3.48,3.48,0,0,1-2.08.57h0a3.74,3.74,0,0,1-2.05-.65"/><polygon id="_Path_32" data-name="&lt;Path&gt;" class="cls-22" points="411.21 46.19 407.9 43.94 404.21 46.88 406.24 51.93 411.21 46.19"/><polygon id="_Path_33" data-name="&lt;Path&gt;" class="cls-22" points="397.72 45.94 402.39 43.84 404.21 46.88 400.07 51.81 397.72 45.94"/><polygon id="_Path_34" data-name="&lt;Path&gt;" class="cls-16" points="404.21 46.88 405.42 49.88 402.22 52.89 401.4 50.23 404.21 46.88"/><path id="_Path_35" data-name="&lt;Path&gt;" class="cls-14" d="M399.09,26.25v.57a3.87,3.87,0,0,1-3.87,3.87h0a3.87,3.87,0,0,1-3.87-3.87v-.57"/><path id="_Path_36" data-name="&lt;Path&gt;" class="cls-14" d="M410.28,26.25v.57a3.87,3.87,0,0,1-3.87,3.87h0a3.87,3.87,0,0,1-3.87-3.87v-.57"/><line id="_Path_37" data-name="&lt;Path&gt;" class="cls-14" x1="399.09" y1="26.25" x2="402.54" y2="26.25"/><line id="_Path_38" data-name="&lt;Path&gt;" class="cls-14" x1="410.28" y1="26.25" x2="416.8" y2="24.39"/><g id="_Group_3" data-name="&lt;Group&gt;"><path id="_Path_39" data-name="&lt;Path&gt;" class="cls-17" d="M413.78,26a3.92,3.92,0,0,1,1.39-1.4c2.14-1.43,4.59-.19,3.6,2.3-.69,1.74-1.89,6.06-3.23,4.48A8.34,8.34,0,0,1,413.78,26Z"/><polygon id="_Path_40" data-name="&lt;Path&gt;" class="cls-20" points="415.4 26.25 418.19 25.84 416.03 29.61 416.79 26.48 415.4 26.25"/></g><path class="cls-23" d="M305.24,111.95H293.77c-1.87,0-3.44-1.05-3.67-2.46l-3.57-22.24h25.94l-3.57,22.24C308.68,110.89,307.11,111.95,305.24,111.95Z"/><g id="_Group_4" data-name="&lt;Group&gt;"><circle id="_Path_41" data-name="&lt;Path&gt;" class="cls-1" cx="299.51" cy="43.18" r="7.71"/><circle id="_Path_42" data-name="&lt;Path&gt;" class="cls-11" cx="299.51" cy="43.18" r="7.11"/><g id="_Group_5" data-name="&lt;Group&gt;"><line id="_Path_43" data-name="&lt;Path&gt;" class="cls-24" x1="297.2" y1="47.47" x2="303.28" y2="46.26"/><path id="_Path_44" data-name="&lt;Path&gt;" class="cls-25" d="M302.27,41.18a2.34,2.34,0,0,0-2.75-1.84h0a2.34,2.34,0,0,0-1.84,2.75l1,5.07"/><line id="_Path_45" data-name="&lt;Path&gt;" class="cls-24" x1="296.66" y1="44.74" x2="300.96" y2="43.89"/></g></g><polygon class="cls-11" points="319.1 56.69 316.56 65.53 320.33 64.37 321.64 59.77 319.1 56.69"/><rect class="cls-6" x="262.7" y="111.95" width="213.75" height="5.01"/><rect class="cls-6" x="276.23" y="124.45" width="52.06" height="70.01"/><path class="cls-26" d="M325.8,127v65H278.74V127H325.8m5-5H273.74v75H330.8V122Z"/><rect class="cls-6" x="411.89" y="124.45" width="52.06" height="70.01"/><path class="cls-26" d="M461.45,127v65H414.39V127h47.06m5-5H409.39v75h57.06V122Z"/><path id="_Path_46" data-name="&lt;Path&gt;" class="cls-10" d="M155.68,148.53a67.26,67.26,0,0,0-4.83-5.85c1.4-2.88,5.31-.72,5.31-.72Z"/><rect class="cls-12" x="141.53" y="129.81" width="12.25" height="20.92" rx="2.85" ry="2.85" transform="translate(-25.34 32.79) rotate(-11.68)"/><rect class="cls-7" x="142.99" y="132.27" width="9.33" height="15.99" transform="matrix(0.98, -0.2, 0.2, 0.98, -25.34, 32.79)"/><rect class="cls-12" x="102.13" y="182.24" width="65.43" height="78.28" rx="18.24" ry="18.24"/><path id="_Path_47" data-name="&lt;Path&gt;" class="cls-10" d="M162.09,220.23a67.26,67.26,0,0,1,7.58-.32c1.21-3-3-4.43-3-4.43Z"/><path id="_Path_48" data-name="&lt;Path&gt;" class="cls-13" d="M137.69,165.09h0a4,4,0,0,0,2,5.2L171,183.59a4,4,0,0,0,5.2-2h0a4,4,0,0,0-2-5.2L142.89,163A4,4,0,0,0,137.69,165.09Z"/><path id="_Path_49" data-name="&lt;Path&gt;" class="cls-27" d="M166.09,171.24l-3.9,9.13-22.84-9.64a5,5,0,0,1-2.62-6.52h0a5,5,0,0,1,6.52-2.62Z"/><path id="_Path_50" data-name="&lt;Path&gt;" class="cls-28" d="M118.57,162.06l23.95-1.33a8.57,8.57,0,0,1,9,8.08s-1,21.5-.59,28.63c.52,9.26,4.23,36.94,4.23,36.94l-41.05,2.28s1-27.62.53-36.78c-.4-7.23-4.18-28.79-4.18-28.79A8.57,8.57,0,0,1,118.57,162.06Z"/><path id="_Path_51" data-name="&lt;Path&gt;" class="cls-29" d="M142.7,124.69s3.95-1,4.4,7.08a35.52,35.52,0,0,1-.59,8l-6.45-6.69-6.43-2.46,7.68-3.27Z"/><path id="_Path_52" data-name="&lt;Path&gt;" class="cls-17" d="M137.78,159.2c-9.53,1-15-5.73-17.06-14.42-2.16-9.15,3.6-17.14,11.1-17.58,8.53-.5,13.69,2.55,14.91,11.87.77,5.85-.35,17.74-8.95,20.13Z"/><g id="_Group_6" data-name="&lt;Group&gt;"><line id="_Path_53" data-name="&lt;Path&gt;" class="cls-6" x1="145.05" y1="140.22" x2="141.57" y2="139.27"/><path id="_Path_54" data-name="&lt;Path&gt;" class="cls-6" d="M145,140.82a.6.6,0,0,0,.2-1.18l-3.48-1a.6.6,0,0,0-.32,1.16l3.48,1Z"/></g><g id="_Group_7" data-name="&lt;Group&gt;"><line id="_Path_55" data-name="&lt;Path&gt;" class="cls-6" x1="135.64" y1="139.75" x2="132.19" y2="140.79"/><path id="_Path_56" data-name="&lt;Path&gt;" class="cls-6" d="M135.58,139.15a.6.6,0,0,1,.23,1.17l-3.45,1a.6.6,0,1,1-.35-1.15l3.45-1Z"/></g><circle id="_Path_57" data-name="&lt;Path&gt;" cx="134.58" cy="144.03" r="0.81" transform="translate(-7.79 7.7) rotate(-3.18)"/><circle id="_Path_58" data-name="&lt;Path&gt;" cx="143.26" cy="143.83" r="0.81" transform="translate(-7.77 8.18) rotate(-3.18)"/><polygon id="_Path_59" data-name="&lt;Path&gt;" class="cls-20" points="138.92 142.63 139.2 149.69 140.7 149.27 138.92 142.63"/><ellipse id="_Path_60" data-name="&lt;Path&gt;" class="cls-29" cx="118.06" cy="127.46" rx="6.28" ry="4.91" transform="translate(-42.6 193.58) rotate(-69.56)"/><path id="_Path_61" data-name="&lt;Path&gt;" class="cls-30" d="M122.42,145.73s4.25.55,3.43-3.91c2.26-.48,13.12-5.81,17-17-3.15-5.58-8.22-6.08-13.64-4.85-8,1.81-16.25,8.37-10.62,23.79C119,144.88,121.23,144.91,122.42,145.73Z"/><g id="_Group_8" data-name="&lt;Group&gt;"><path id="_Path_62" data-name="&lt;Path&gt;" class="cls-17" d="M123.48,141.75a4.54,4.54,0,0,0-1.67-1.56c-2.54-1.56-5.31,0-4.06,2.81.87,2,2.44,6.92,3.92,5A9.64,9.64,0,0,0,123.48,141.75Z"/><polygon id="_Path_63" data-name="&lt;Path&gt;" class="cls-20" points="121.62 142.15 118.38 141.79 121.05 146.05 120.03 142.47 121.62 142.15"/></g><circle id="_Path_64" data-name="&lt;Path&gt;" class="cls-31" cx="121.16" cy="148.7" r="1.46" transform="translate(-8.07 6.96) rotate(-3.18)"/><path id="_Path_65" data-name="&lt;Path&gt;" class="cls-27" d="M143,162.59c.3,5.31-4.55,9.91-10.81,10.26s-11.58-3.69-11.87-9a8.28,8.28,0,0,1,.11-1.89l22.24-1.24A8.28,8.28,0,0,1,143,162.59Z"/><path id="_Path_66" data-name="&lt;Path&gt;" class="cls-13" d="M122.05,163.75c.24,4.33,4.72,7.61,10,7.31s9.36-4,9.12-8.38a6.46,6.46,0,0,0-.38-1.87l-18.56,1A6.46,6.46,0,0,0,122.05,163.75Z"/><path id="_Rectangle_8" data-name="&lt;Rectangle&gt;" class="cls-13" d="M131.48,152h.86a2.25,2.25,0,0,1,2.25,2.25v12.09a3.1,3.1,0,0,1-3.1,3.1h0a3.1,3.1,0,0,1-3.1-3.1V155.14A3.1,3.1,0,0,1,131.48,152Z" transform="translate(271.68 313.96) rotate(176.82)"/><path id="_Path_67" data-name="&lt;Path&gt;" class="cls-13" d="M112.64,166.82h0a4,4,0,0,1,5.3,1.77l14.9,30.54a4,4,0,0,1-1.77,5.3h0a4,4,0,0,1-5.3-1.77l-14.9-30.54A4,4,0,0,1,112.64,166.82Z"/><path id="_Path_68" data-name="&lt;Path&gt;" class="cls-27" d="M120.22,193.74l8.92-4.37-10.82-22.31a5,5,0,0,0-6.64-2.28h0a5,5,0,0,0-2.27,6.64Z"/><path id="_Path_69" data-name="&lt;Path&gt;" class="cls-13" d="M126.09,199.17h0a4,4,0,0,0,1.54,5.37l29.88,16.19a4,4,0,0,0,5.37-1.54h0a4,4,0,0,0-1.54-5.37l-29.88-16.19A4,4,0,0,0,126.09,199.17Z"/><rect id="_Rectangle_9" data-name="&lt;Rectangle&gt;" class="cls-11" x="136.59" y="183.5" width="9.22" height="4.14" transform="translate(293.15 362.44) rotate(176.6)"/><path id="_Path_70" data-name="&lt;Path&gt;" class="cls-13" d="M174.25,183.52h0a4,4,0,0,1-5.19-2.07l-13.15-31.33a4,4,0,0,1,2.07-5.19h0a4,4,0,0,1,5.19,2.07l13.15,31.33A4,4,0,0,1,174.25,183.52Z"/><path id="_Path_71" data-name="&lt;Path&gt;" class="cls-13" d="M163.67,148l-1.51-7.88s-4.19-4.5-6.38-5.38c-2.55-1-6.08-.3-6.73-.13-1.72.47,4.86,6.76,4.86,6.76l1.86,7.74Z"/><path id="_Path_72" data-name="&lt;Path&gt;" class="cls-32" d="M140.71,153.3h0a8,8,0,0,1-4.56-.45"/><rect class="cls-5" x="85.62" y="225.41" width="172.67" height="13.83"/><rect class="cls-6" x="128.04" y="237.64" width="88.87" height="62.51"/><rect class="cls-6" x="65.08" y="221.39" width="213.75" height="5.01"/><rect class="cls-6" x="78.61" y="233.89" width="52.06" height="70.01"/><path class="cls-26" d="M128.18,236.39v65H81.11v-65h47.06m5-5H76.11v75h57.06v-75Z"/><rect class="cls-6" x="214.27" y="233.89" width="52.06" height="70.01"/><path class="cls-26" d="M263.83,236.39v65H216.77v-65h47.06m5-5H211.77v75h57.06v-75Z"/><path class="cls-4" d="M170,213.41h3.41A6.61,6.61,0,0,1,180,220v0a1.37,1.37,0,0,1-1.37,1.37H164.75a1.37,1.37,0,0,1-1.37-1.37v0a6.61,6.61,0,0,1,6.61-6.61Z"/><path id="_Path_73" data-name="&lt;Path&gt;" class="cls-13" d="M157.17,213.91l6.87-4.15s6.15.1,8.27,1.15c2.47,1.21,4.29,4.32,4.59,4.92.8,1.6-8.27.9-8.27.9l-7,3.8Z"/><rect class="cls-15" x="174.28" y="159.93" width="58.17" height="46.07" rx="3.82" ry="3.82"/><path class="cls-33" d="M203.37,183.84h0a6.54,6.54,0,0,1,6.54,6.54v27.18a0,0,0,0,1,0,0H196.83a0,0,0,0,1,0,0V190.39A6.54,6.54,0,0,1,203.37,183.84Z"/><rect class="cls-15" x="187.81" y="216.66" width="31.13" height="4.73" rx="2.36" ry="2.36"/><rect class="cls-15" x="90.03" y="216.66" width="57.98" height="4.73" rx="2.36" ry="2.36"/><path class="cls-34" d="M190.45,188v19A12.42,12.42,0,0,1,178,219.39h0"/><circle class="cls-22" cx="190.45" cy="188" r="1.38"/><path id="_Path_74" data-name="&lt;Path&gt;" class="cls-10" d="M488.61,457a60.68,60.68,0,0,0-5.08,4.58c-2.65-1.15-.86-4.75-.86-4.75Z"/><path class="cls-6" d="M370.71,479.56h53.53a0,0,0,0,1,0,0v40.85a0,0,0,0,1,0,0H377.84a7.12,7.12,0,0,1-7.12-7.12V479.56a0,0,0,0,1,0,0Z" transform="translate(794.96 999.97) rotate(-180)"/><rect class="cls-6" x="431.36" y="457.95" width="52.96" height="34.37" transform="translate(915.68 950.28) rotate(-180)"/><rect class="cls-6" x="429.26" y="520.41" width="64.57" height="41.96" transform="translate(923.08 1082.78) rotate(-180)"/><rect class="cls-11" x="388.79" y="520.41" width="40.47" height="41.96"/><path class="cls-27" d="M354.83,520.41h34a0,0,0,0,1,0,0v34a8,8,0,0,1-8,8h-26a0,0,0,0,1,0,0v-42A0,0,0,0,1,354.83,520.41Z" transform="translate(743.62 1082.78) rotate(-180)"/><rect class="cls-23" x="424.24" y="492.32" width="44.63" height="28.09" transform="translate(893.12 1012.74) rotate(-180)"/><path id="_Path_75" data-name="&lt;Path&gt;" class="cls-13" d="M406,410.32h0a4.11,4.11,0,0,1-5.75.8l-27.94-21.55a4.11,4.11,0,0,1-.8-5.75h0a4.11,4.11,0,0,1,5.75-.8l27.94,21.55A4.11,4.11,0,0,1,406,410.32Z"/><path id="_Path_76" data-name="&lt;Path&gt;" class="cls-27" d="M386.57,388.76l-6.29,8.18,20.35,15.78a5.17,5.17,0,0,0,7.23-.94h0a5.17,5.17,0,0,0-.94-7.23Z"/><path id="_Path_77" data-name="&lt;Path&gt;" class="cls-13" d="M371.31,388.71h0a4.11,4.11,0,0,1,.29-5.8L398,359.5a4.11,4.11,0,0,1,5.8.29h0a4.11,4.11,0,0,1-.29,5.8L377.11,389A4.11,4.11,0,0,1,371.31,388.71Z"/><path id="_Path_78" data-name="&lt;Path&gt;" class="cls-10" d="M398,359.5a69.84,69.84,0,0,0,5.77-5.36c3.07,1.27,1.08,5.46,1.08,5.46Z"/><path class="cls-35" d="M519.9,458.81H506.77a27.59,27.59,0,0,0-27.59,27.59l12,68.31"/><rect class="cls-4" x="356.62" y="562.37" width="135.5" height="6" transform="translate(848.74 1130.74) rotate(-180)"/><path id="_Path_79" data-name="&lt;Path&gt;" class="cls-13" d="M526.26,404h0a3.57,3.57,0,0,0-4.74,1.72l-12.71,27.9a3.57,3.57,0,0,0,1.72,4.74h0a3.57,3.57,0,0,0,4.74-1.72L528,408.71A3.57,3.57,0,0,0,526.26,404Z"/><path id="_Path_80" data-name="&lt;Path&gt;" class="cls-27" d="M520.07,428.43l-8.15-3.73,9.22-20.38a4.49,4.49,0,0,1,5.94-2.21h0a4.49,4.49,0,0,1,2.21,5.94Z"/><path id="_Path_81" data-name="&lt;Path&gt;" class="cls-13" d="M514.68,432.89h0a3.57,3.57,0,0,1-.59,5l-24.23,18.78a3.57,3.57,0,0,1-5-.59h0a3.57,3.57,0,0,1,.59-5l24.23-18.78A3.57,3.57,0,0,1,514.68,432.89Z"/><path id="_Path_82" data-name="&lt;Path&gt;" class="cls-13" d="M487.78,449.84l-7,1.67s-3.89,4-4.6,6a11.33,11.33,0,0,0,.15,6.07c.5,1.54,5.9-4.65,5.9-4.65l7.19-4.08Z"/><g id="_Group_9" data-name="&lt;Group&gt;"><path id="_Rectangle_10" data-name="&lt;Rectangle&gt;" class="cls-36" d="M524.22,459.94h0a5.7,5.7,0,0,1,5.7,5.7v47.78a0,0,0,0,1,0,0H518.53a0,0,0,0,1,0,0V465.64a5.7,5.7,0,0,1,5.7-5.7Z" transform="translate(1045.14 976.9) rotate(-179.61)"/><path id="_Path_83" data-name="&lt;Path&gt;" class="cls-4" d="M525.77,530.52h0a4.41,4.41,0,0,0-4.09,4.71l2.19,31.2a4.41,4.41,0,0,0,4.71,4.09h0a4.41,4.41,0,0,0,4.09-4.71l-.06-.81-2.13-30.39A4.41,4.41,0,0,0,525.77,530.52Z"/><path id="_Path_84" data-name="&lt;Path&gt;" class="cls-36" d="M523.68,502.19h0a5.7,5.7,0,0,0-5.28,6.09l.61,51.89,17.53-1.25-6.78-51.45A5.7,5.7,0,0,0,523.68,502.19Z"/><path id="_Path_85" data-name="&lt;Path&gt;" class="cls-5" d="M534.54,565.61V571H507.91v-.54a2.14,2.14,0,0,1,1.6-2.07l14.18-3.69a4,4,0,0,1,2,0,14.59,14.59,0,0,0,7.81.14A.82.82,0,0,1,534.54,565.61Z"/><path id="_Path_86" data-name="&lt;Path&gt;" class="cls-37" d="M534.54,571v.19c0,3.95-.73,3.62-1.63,3.62H508.73c-.45,0-.82-1.6-.82-3.59V571Z"/><circle id="_Path_87" data-name="&lt;Path&gt;" class="cls-37" cx="514.09" cy="568.9" r="1.03" transform="translate(-109.96 123.38) rotate(-12.37)"/><circle id="_Path_88" data-name="&lt;Path&gt;" class="cls-37" cx="517.43" cy="568.17" r="1.03" transform="translate(-109.73 124.08) rotate(-12.37)"/><circle id="_Path_89" data-name="&lt;Path&gt;" class="cls-37" cx="520.78" cy="567.43" r="1.03" transform="translate(-109.5 124.78) rotate(-12.37)"/><line id="_Path_90" data-name="&lt;Path&gt;" class="cls-38" x1="514.09" y1="568.9" x2="513.8" y2="566.61"/><line id="_Path_91" data-name="&lt;Path&gt;" class="cls-38" x1="517.43" y1="568.17" x2="517.14" y2="565.88"/><line id="_Path_92" data-name="&lt;Path&gt;" class="cls-38" x1="520.78" y1="567.43" x2="520.48" y2="565.14"/></g><path id="_Path_93" data-name="&lt;Path&gt;" class="cls-36" d="M552.06,459.64l-32.51.26.19,10.44a5.58,5.58,0,0,0,5.63,5.54l21.34-.17a5.58,5.58,0,0,0,5.54-5.63Z"/><path id="_Rectangle_11" data-name="&lt;Rectangle&gt;" class="cls-36" d="M552.45,463h0a5.7,5.7,0,0,1,5.7,5.7v47.78a0,0,0,0,1,0,0H546.75a0,0,0,0,1,0,0V468.66A5.7,5.7,0,0,1,552.45,463Z" transform="translate(1236.7 766.84) rotate(160.49)"/><path id="_Path_94" data-name="&lt;Path&gt;" class="cls-4" d="M580.3,518.83h0a4.41,4.41,0,0,0,2.25,5.82l28.61,12.64A4.41,4.41,0,0,0,617,535h0a4.41,4.41,0,0,0-2.25-5.82l-.74-.33-27.86-12.31A4.41,4.41,0,0,0,580.3,518.83Z"/><path id="_Path_95" data-name="&lt;Path&gt;" class="cls-36" d="M554.28,507.45h0a5.7,5.7,0,0,0,2.92,7.51l46.16,23.71,7.08-16.08-48.65-18.05A5.7,5.7,0,0,0,554.28,507.45Z"/><path id="_Path_96" data-name="&lt;Path&gt;" class="cls-5" d="M615.42,527.48l4.76,2.52-12.45,23.55-.48-.25a2.14,2.14,0,0,1-1.08-2.38l3.36-14.26a4,4,0,0,1,.92-1.76,14.59,14.59,0,0,0,3.78-6.84A.82.82,0,0,1,615.42,527.48Z"/><path id="_Path_97" data-name="&lt;Path&gt;" class="cls-37" d="M620.18,530l.17.09c3.49,1.84,2.86,2.33,2.44,3.13l-3.9,7.38-2.9,5.49-4.5,8.52c-.21.4-1.8,0-3.56-1l-.18-.1Z"/><circle id="_Path_98" data-name="&lt;Path&gt;" class="cls-37" cx="608.78" cy="547.1" r="1.03" transform="matrix(0.27, -0.96, 0.96, 0.27, -81.02, 987.67)"/><circle id="_Path_99" data-name="&lt;Path&gt;" class="cls-37" cx="609.69" cy="543.8" r="1.03" transform="translate(-77.17 986.13) rotate(-74.51)"/><circle id="_Path_100" data-name="&lt;Path&gt;" class="cls-37" cx="610.6" cy="540.5" r="1.03" transform="matrix(0.27, -0.96, 0.96, 0.27, -73.32, 984.6)"/><line id="_Path_101" data-name="&lt;Path&gt;" class="cls-38" x1="608.78" y1="547.1" x2="606.61" y2="546.29"/><line id="_Path_102" data-name="&lt;Path&gt;" class="cls-38" x1="609.69" y1="543.8" x2="607.53" y2="542.99"/><line id="_Path_103" data-name="&lt;Path&gt;" class="cls-38" x1="610.6" y1="540.5" x2="608.44" y2="539.69"/><path id="_Path_104" data-name="&lt;Path&gt;" class="cls-28" d="M550.42,400.39l-22.69-1.23a8.11,8.11,0,0,0-8.54,7.66s1,20.37.59,27.12c-.48,8.78-4,35-4,35l38.89,2.11s-1-26.17-.55-34.84c.37-6.85,3.92-27.28,3.92-27.28A8.11,8.11,0,0,0,550.42,400.39Z"/><path id="_Path_105" data-name="&lt;Path&gt;" class="cls-4" d="M527.51,365s-3.74-1-4.16,6.72a33.65,33.65,0,0,0,.57,7.6L530,373l6.09-2.34-7.28-3.09Z"/><path id="_Path_106" data-name="&lt;Path&gt;" class="cls-17" d="M532.21,397.7c9,1,14.21-5.45,16.14-13.69,2-8.67-3.44-16.23-10.54-16.64-8.08-.46-13,2.43-14.11,11.27-.72,5.55.35,16.8,8.5,19.06Z"/><g id="_Group_10" data-name="&lt;Group&gt;"><line id="_Path_107" data-name="&lt;Path&gt;" class="cls-6" x1="525.3" y1="379.73" x2="528.6" y2="378.83"/><path id="_Path_108" data-name="&lt;Path&gt;" class="cls-6" d="M525.34,380.3a.57.57,0,0,1-.19-1.12l3.3-.91a.57.57,0,0,1,.3,1.1l-3.3.91Z"/></g><g id="_Group_11" data-name="&lt;Group&gt;"><line id="_Path_109" data-name="&lt;Path&gt;" class="cls-6" x1="534.21" y1="379.27" x2="537.49" y2="380.25"/><path id="_Path_110" data-name="&lt;Path&gt;" class="cls-6" d="M534.27,378.71a.57.57,0,0,0-.22,1.11l3.27,1a.57.57,0,0,0,.33-1.09l-3.27-1Z"/></g><circle id="_Path_111" data-name="&lt;Path&gt;" cx="535.23" cy="383.33" r="0.77" transform="translate(123.48 897.02) rotate(-86.9)"/><circle id="_Path_112" data-name="&lt;Path&gt;" cx="527" cy="383.15" r="0.77" transform="translate(115.88 888.63) rotate(-86.9)"/><polygon id="_Path_113" data-name="&lt;Path&gt;" class="cls-20" points="531.11 382.01 530.86 388.7 529.44 388.3 531.11 382.01"/><ellipse id="_Path_114" data-name="&lt;Path&gt;" class="cls-22" cx="550.86" cy="367.61" rx="4.65" ry="5.95" transform="translate(-93.9 216.39) rotate(-20.52)"/><path id="_Path_115" data-name="&lt;Path&gt;" class="cls-4" d="M546.75,384.93s-4,.53-3.25-3.7c-2.14-.45-12.43-5.48-16.12-16.11,3-5.29,7.78-5.77,12.91-4.61,7.59,1.71,15.4,7.91,10.09,22.52C550,384.11,547.88,384.14,546.75,384.93Z"/><g id="_Group_12" data-name="&lt;Group&gt;"><path id="_Path_116" data-name="&lt;Path&gt;" class="cls-17" d="M545.74,381.15a4.3,4.3,0,0,1,1.58-1.48c2.4-1.48,5,0,3.85,2.66-.82,1.88-2.3,6.56-3.71,4.77A9.13,9.13,0,0,1,545.74,381.15Z"/><polygon id="_Path_117" data-name="&lt;Path&gt;" class="cls-20" points="547.5 381.53 550.57 381.18 548.05 385.23 549.01 381.83 547.5 381.53"/></g><circle id="_Path_118" data-name="&lt;Path&gt;" class="cls-31" cx="547.95" cy="387.73" r="1.39" transform="translate(131.11 913.89) rotate(-86.9)"/><path id="_Path_119" data-name="&lt;Path&gt;" class="cls-27" d="M527.32,400.92c-.27,5,4.33,9.38,10.25,9.7s11-3.51,11.24-8.54a7.84,7.84,0,0,0-.11-1.79l-21.08-1.14A7.84,7.84,0,0,0,527.32,400.92Z"/><path id="_Path_120" data-name="&lt;Path&gt;" class="cls-13" d="M547.12,402c-.22,4.1-4.46,7.21-9.46,6.94s-8.88-3.82-8.65-7.92a6.12,6.12,0,0,1,.36-1.77l17.59,1A6.12,6.12,0,0,1,547.12,402Z"/><path id="_Rectangle_12" data-name="&lt;Rectangle&gt;" class="cls-13" d="M538.19,390.91h0a2.94,2.94,0,0,1,2.94,2.94V405.3a2.13,2.13,0,0,1-2.13,2.13h-.81a2.94,2.94,0,0,1-2.94-2.94V393.85a2.94,2.94,0,0,1,2.94-2.94Z" transform="translate(22.41 -28.56) rotate(3.1)"/><path id="_Path_121" data-name="&lt;Path&gt;" class="cls-16" d="M531,393.52c-2.3-.17-4.23-1.56-4.12-3l0-.33,8.87.65,0,.33c-.1,1.29-1.55,2.57-4.06,2.38Z"/><rect id="_Rectangle_13" data-name="&lt;Rectangle&gt;" class="cls-11" x="524.65" y="420.73" width="8.73" height="3.92" transform="translate(25.35 -29.91) rotate(3.32)"/><path id="_Path_122" data-name="&lt;Path&gt;" class="cls-13" d="M556.22,405.11h0a3.57,3.57,0,0,0-4.74,1.72l-12.71,27.9a3.57,3.57,0,0,0,1.72,4.74h0a3.57,3.57,0,0,0,4.74-1.72l12.71-27.9A3.57,3.57,0,0,0,556.22,405.11Z"/><path id="_Path_123" data-name="&lt;Path&gt;" class="cls-27" d="M550,429.57l-8.15-3.73,9.22-20.38a4.49,4.49,0,0,1,5.94-2.21h0a4.49,4.49,0,0,1,2.21,5.94Z"/><path id="_Path_124" data-name="&lt;Path&gt;" class="cls-13" d="M544.64,434h0a3.57,3.57,0,0,1-.59,5l-24.23,18.78a3.57,3.57,0,0,1-5-.59h0a3.57,3.57,0,0,1,.59-5l24.23-18.78A3.57,3.57,0,0,1,544.64,434Z"/><path id="_Path_125" data-name="&lt;Path&gt;" class="cls-10" d="M518.56,458.16a60.68,60.68,0,0,0-5.08,4.58c-2.65-1.15-.86-4.75-.86-4.75Z"/><circle class="cls-15" cx="492.12" cy="565.37" r="13.27"/><circle class="cls-39" cx="492.12" cy="565.37" r="5.25"/><path class="cls-40" d="M492.12,555a10.39,10.39,0,0,0-10.39,10.39"/><circle class="cls-15" cx="356.62" cy="565.37" r="13.27"/><circle class="cls-39" cx="356.62" cy="565.37" r="5.25"/><path class="cls-40" d="M356.62,555a10.39,10.39,0,0,0-10.39,10.39"/><line class="cls-41" x1="519.9" y1="458.81" x2="506.77" y2="458.81"/><path id="_Path_126" data-name="&lt;Path&gt;" class="cls-13" d="M517.74,451l-7,1.67s-3.89,4-4.6,6a11.33,11.33,0,0,0,.15,6.07c.5,1.54,5.9-4.65,5.9-4.65l7.19-4.08Z"/><path id="_Path_127" data-name="&lt;Path&gt;" class="cls-36" d="M334.9,469.13h0a6.11,6.11,0,0,0,6.22,6l44.67-1.05.92-11.72a.26.26,0,0,0-.27-.26l-45.54.81A6.11,6.11,0,0,0,334.9,469.13Z"/><path id="_Path_128" data-name="&lt;Path&gt;" class="cls-28" d="M328,488.46h0a4.73,4.73,0,0,0-6.57,1.3l-18.68,27.87a4.73,4.73,0,0,0,1.3,6.57h0a4.73,4.73,0,0,0,6.57-1.3l.49-.73L329.33,495A4.73,4.73,0,0,0,328,488.46Z"/><path id="_Rectangle_14" data-name="&lt;Rectangle&gt;" class="cls-36" d="M325.5,459.4h1.84a5.19,5.19,0,0,1,5.19,5.19v57.6a0,0,0,0,1,0,0H320.31a0,0,0,0,1,0,0v-57.6A5.19,5.19,0,0,1,325.5,459.4Z" transform="translate(328.51 -98.63) rotate(33.83)"/><g id="_Group_13" data-name="&lt;Group&gt;"><path id="_Path_129" data-name="&lt;Path&gt;" class="cls-5" d="M311.07,525l-3.44,4.64-22.95-17,.34-.46a2.29,2.29,0,0,1,2.7-.76l14.58,5.88a4.24,4.24,0,0,1,1.72,1.26,15.64,15.64,0,0,0,6.64,5.11A.88.88,0,0,1,311.07,525Z"/><path id="_Path_130" data-name="&lt;Path&gt;" class="cls-37" d="M307.63,529.62l0,0a1.74,1.74,0,0,1-2.44.36l-20.84-15.45a.88.88,0,0,1-.18-1.23l.54-.73Z"/><circle id="_Path_131" data-name="&lt;Path&gt;" class="cls-37" cx="300.24" cy="518.09" r="0.97" transform="translate(-292.62 602.15) rotate(-67.98)"/><circle id="_Path_132" data-name="&lt;Path&gt;" class="cls-37" cx="297.27" cy="516.88" r="0.97" transform="translate(-293.37 598.64) rotate(-67.98)"/><circle id="_Path_133" data-name="&lt;Path&gt;" class="cls-37" cx="294.3" cy="515.68" r="0.97" transform="translate(-294.11 595.13) rotate(-67.98)"/><line id="_Path_134" data-name="&lt;Path&gt;" class="cls-42" x1="300.24" y1="518.09" x2="300.88" y2="516.02"/><line id="_Path_135" data-name="&lt;Path&gt;" class="cls-42" x1="297.27" y1="516.88" x2="297.9" y2="514.81"/><line id="_Path_136" data-name="&lt;Path&gt;" class="cls-42" x1="294.3" y1="515.68" x2="294.93" y2="513.61"/></g><circle id="_Path_137" data-name="&lt;Path&gt;" class="cls-43" cx="373.36" cy="468.39" r="1.45" transform="translate(-199.89 642.09) rotate(-68.3)"/><path id="_Path_138" data-name="&lt;Path&gt;" class="cls-36" d="M403,472.24l-29.15-11.33-4,10.47c-1.2,3.08.07,6.45,2.84,7.53l19.14,7.44c2.77,1.07,6-.55,7.18-3.64Z"/><path id="_Path_139" data-name="&lt;Path&gt;" class="cls-36" d="M343.72,488.23h0a6.11,6.11,0,0,0,7,5.13l44.14-6.9-.62-11.74a.26.26,0,0,0-.3-.22l-45,6.77A6.11,6.11,0,0,0,343.72,488.23Z"/><path id="_Path_140" data-name="&lt;Path&gt;" class="cls-28" d="M339.45,508.29h0a4.73,4.73,0,0,0-6.34,2.15l-14.86,30.07a4.73,4.73,0,0,0,2.15,6.34h0a4.73,4.73,0,0,0,6.34-2.15l.39-.78,14.48-29.29A4.73,4.73,0,0,0,339.45,508.29Z"/><path id="_Rectangle_15" data-name="&lt;Rectangle&gt;" class="cls-36" d="M337.23,479.42h1.84a5.19,5.19,0,0,1,5.19,5.19v57.6a0,0,0,0,1,0,0H332a0,0,0,0,1,0,0v-57.6A5.19,5.19,0,0,1,337.23,479.42Z" transform="translate(261.36 -96.95) rotate(26.3)"/><g id="_Group_14" data-name="&lt;Group&gt;"><path id="_Path_141" data-name="&lt;Path&gt;" class="cls-5" d="M327.42,546.71l-2.8,5.05-25-13.86.28-.51a2.29,2.29,0,0,1,2.58-1.11l15.22,3.92a4.24,4.24,0,0,1,1.87,1,15.64,15.64,0,0,0,7.26,4.2A.88.88,0,0,1,327.42,546.71Z"/><path id="_Path_142" data-name="&lt;Path&gt;" class="cls-37" d="M324.61,551.76l0,0a1.74,1.74,0,0,1-2.37.68l-22.69-12.59a.88.88,0,0,1-.34-1.2l.44-.8Z"/><circle id="_Path_143" data-name="&lt;Path&gt;" class="cls-37" cx="315.78" cy="541.3" r="0.97" transform="translate(-287.33 711.55) rotate(-75.51)"/><circle id="_Path_144" data-name="&lt;Path&gt;" class="cls-37" cx="312.67" cy="540.5" r="0.97" transform="matrix(0.25, -0.97, 0.97, 0.25, -288.88, 707.94)"/><circle id="_Path_145" data-name="&lt;Path&gt;" class="cls-37" cx="309.57" cy="539.69" r="0.97" transform="matrix(0.25, -0.97, 0.97, 0.25, -290.43, 704.33)"/><line id="_Path_146" data-name="&lt;Path&gt;" class="cls-42" x1="315.78" y1="541.3" x2="316.14" y2="539.16"/><line id="_Path_147" data-name="&lt;Path&gt;" class="cls-42" x1="312.67" y1="540.5" x2="313.03" y2="538.36"/><line id="_Path_148" data-name="&lt;Path&gt;" class="cls-42" x1="309.57" y1="539.69" x2="309.93" y2="537.56"/></g><path id="_Rectangle_16" data-name="&lt;Rectangle&gt;" class="cls-28" d="M397.19,402.65h10.43a13,13,0,0,1,13,13V477.1a0,0,0,0,1,0,0H383.8a0,0,0,0,1,0,0V416a13.4,13.4,0,0,1,13.4-13.4Z" transform="translate(225 -129.2) rotate(25.14)"/><ellipse id="_Path_149" data-name="&lt;Path&gt;" class="cls-27" cx="415.88" cy="407.7" rx="3.7" ry="5.69" transform="translate(-21.03 792.78) rotate(-85.82)"/><path id="_Path_150" data-name="&lt;Path&gt;" class="cls-13" d="M417.2,396.66l.11,0a3,3,0,0,0-3.49,2.53l-1.16,6.53c-.3,1.69.87,2.44,2.55,2.74h-.05c1.69.3,3.09,0,3.4-1.68l1.16-6.53A3.1,3.1,0,0,0,417.2,396.66Z"/><path id="_Path_151" data-name="&lt;Path&gt;" class="cls-17" d="M410.44,403.53c9.56,2.24,16-4,19.12-12.56,3.32-9-1.55-17.87-9.12-19.24-8.61-1.56-14.23.9-16.62,10.23-1.5,5.86-1.84,18.08,6.62,21.57Z"/><path id="_Path_152" data-name="&lt;Path&gt;" class="cls-6" d="M433,379c.52,2.63-.14,6.32-.68,8.65a2.39,2.39,0,0,0-1.92-.86l-.33,0h0l-.17,0-.17,0-.18,0-.13,0-.21.07-.17.07-.17.08-.16.09-.16.09-.32.21s0,0,0,0l-.06.05,0,0,0,0,0,0,0,0h0v0l-.76,4.29a2,2,0,0,1-.71,1.36,2.37,2.37,0,0,1-.24.18,3.11,3.11,0,0,1-1.38.15,2.27,2.27,0,0,1-1.89-2.44l.27-1.53a2.25,2.25,0,0,0-1.64-2.58l-.38-.1c.28-1.75.54-3.13.71-4,.21-1.06-.06-1.84-2.38-2.5l-.07,0-.66-.17h0c-.41-.09-.86-.19-1.37-.28l-10.85-1.93-.12-.05a5.44,5.44,0,0,1-2.61-2.56,3.28,3.28,0,0,1-.22-2.26l3,.54a6.19,6.19,0,0,1-1.08-2.88,14.46,14.46,0,0,1-.1-3.41l5,.89s5.63-2.74,11.09-1.28c8.61,2.29,10.5,8.42,10.5,8.42a9.57,9.57,0,0,1,3.9,0A8.18,8.18,0,0,0,433,379Z"/><path id="_Path_153" data-name="&lt;Path&gt;" class="cls-44" d="M418.86,380.4c-.41-.09-.86-.19-1.37-.28l-10.85-1.93-.12-.05a5.44,5.44,0,0,1-2.61-2.56,3.28,3.28,0,0,1-.22-2.26s2.07,3.37,3.67,4l.13,0C409.13,377.89,416.45,379.78,418.86,380.4Z"/><g id="_Group_15" data-name="&lt;Group&gt;"><line id="_Path_154" data-name="&lt;Path&gt;" class="cls-6" x1="407.2" y1="383.65" x2="410.66" y2="384.08"/><path id="_Path_155" data-name="&lt;Path&gt;" class="cls-6" d="M407,384.2a.58.58,0,0,1,.25-1.13l3.46.44a.58.58,0,1,1-.15,1.15l-3.46-.44Z"/></g><g id="_Group_16" data-name="&lt;Group&gt;"><line id="_Path_156" data-name="&lt;Path&gt;" class="cls-6" x1="416.18" y1="385.07" x2="419.57" y2="385.85"/><path id="_Path_157" data-name="&lt;Path&gt;" class="cls-6" d="M416.2,384.49a.58.58,0,0,0-.15,1.15l3.39.78a.58.58,0,1,0,.26-1.13l-3.39-.78Z"/></g><circle id="_Path_158" data-name="&lt;Path&gt;" cx="416.81" cy="388.99" r="0.78" transform="translate(-39.25 731.13) rotate(-79.9)"/><circle id="_Path_159" data-name="&lt;Path&gt;" cx="408.5" cy="387.79" r="0.78" transform="translate(-44.91 721.96) rotate(-79.9)"/><path id="_Path_160" data-name="&lt;Path&gt;" class="cls-44" d="M405.52,367.56s1.15,4.74,3.68,6.35c2.15,1.36,13.39,3.74,13.39,3.74a19.61,19.61,0,0,1-3.66.21c-1-.08-11.06-1.54-12.23-4A9.85,9.85,0,0,1,405.52,367.56Z"/><g id="_Group_17" data-name="&lt;Group&gt;"><path id="_Path_161" data-name="&lt;Path&gt;" class="cls-17" d="M427.61,388a4.61,4.61,0,0,1,1.87-1.37c2.75-1.26,5.36.62,3.75,3.34-1.12,1.89-3.31,6.69-4.57,4.6A9.79,9.79,0,0,1,427.61,388Z"/><polygon id="_Path_162" data-name="&lt;Path&gt;" class="cls-20" points="429.44 388.6 432.76 388.63 429.55 392.61 431.01 389.12 429.44 388.6"/></g><polygon id="_Path_163" data-name="&lt;Path&gt;" class="cls-20" points="412.8 387.14 411.71 393.88 410.33 393.29 412.8 387.14"/><path id="_Path_164" data-name="&lt;Path&gt;" class="cls-45" d="M406.84,395.49a6.77,6.77,0,0,0,3.68,2h0a7.27,7.27,0,0,0,4.15-.34"/><rect id="_Rectangle_17" data-name="&lt;Rectangle&gt;" class="cls-11" x="412.14" y="421.66" width="9.05" height="4.06" transform="translate(615.12 983.82) rotate(-154.99)"/><path id="_Path_165" data-name="&lt;Path&gt;" class="cls-13" d="M427.3,416.34h0a4.11,4.11,0,0,1,4.06,4.15l-.74,35.28a4.11,4.11,0,0,1-4.15,4.06h0a4.11,4.11,0,0,1-4.06-4.15l.74-35.28A4.11,4.11,0,0,1,427.3,416.34Z"/><path id="_Path_166" data-name="&lt;Path&gt;" class="cls-27" d="M421.52,444.81l10.31.2.61-25.74a5.17,5.17,0,0,0-5.06-5.26h0a5.17,5.17,0,0,0-5.26,5.06Z"/><path id="_Path_167" data-name="&lt;Path&gt;" class="cls-13" d="M424.93,452.15h0a4.11,4.11,0,0,0-1.91,5.48l15.66,31.62a4.11,4.11,0,0,0,5.48,1.91h0a4.11,4.11,0,0,0,1.91-5.48l-15.66-31.62A4.11,4.11,0,0,0,424.93,452.15Z"/><rect class="cls-4" x="436.24" y="445.63" width="34.94" height="12.32" transform="translate(907.42 903.58) rotate(-180)"/><rect class="cls-16" x="436.24" y="541.12" width="7.15" height="17.32" transform="translate(879.63 1099.57) rotate(-180)"/><polygon class="cls-16" points="439.81 532.63 447.16 545.35 432.47 545.35 439.81 532.63"/><rect class="cls-16" x="454.27" y="541.12" width="7.15" height="17.32" transform="translate(915.68 1099.57) rotate(-180)"/><polygon class="cls-16" points="457.84 532.63 465.19 545.35 450.5 545.35 457.84 532.63"/><path id="_Path_168" data-name="&lt;Path&gt;" class="cls-10" d="M440.72,491.11a69.84,69.84,0,0,1,6.79,4c2.73-1.91-.13-5.56-.13-5.56Z"/><path id="_Path_169" data-name="&lt;Path&gt;" class="cls-13" d="M439.81,483.57l8.33.25s5.3,3.56,6.57,5.66c1.47,2.45,1.31,6.18,1.23,6.88-.2,1.85-7.72-3.88-7.72-3.88l-7.5-1.37Z"/><rect class="cls-22" x="434.55" y="445.63" width="38.32" height="4.21" transform="translate(907.42 895.47) rotate(-180)"/><rect class="cls-37" x="405.03" y="328.62" width="1.96" height="29.79" transform="translate(785.22 716.4) rotate(-175.72)"/><path id="_Path_170" data-name="&lt;Path&gt;" class="cls-13" d="M398.75,367.06l8.08-2s4.41-4.62,5.19-6.95c.91-2.71-.06-6.32-.28-7-.6-1.76-6.71,5.45-6.71,5.45l-7,3Z"/><rect class="cls-37" x="443.62" y="331.6" width="5.12" height="5.12" transform="translate(866.16 700.7) rotate(-175.72)"/><rect class="cls-46" x="443.62" y="331.6" width="5.12" height="5.12" transform="translate(866.16 700.7) rotate(-175.72)"/><rect class="cls-37" x="438.52" y="331.21" width="5.12" height="5.12" transform="matrix(-1, -0.07, 0.07, -1, 856, 699.56)"/><rect class="cls-37" x="433.42" y="330.83" width="5.12" height="5.12" transform="translate(845.84 698.41) rotate(-175.72)"/><rect class="cls-46" x="433.42" y="330.83" width="5.12" height="5.12" transform="translate(845.84 698.41) rotate(-175.72)"/><rect class="cls-37" x="428.32" y="330.45" width="5.12" height="5.12" transform="translate(835.68 697.27) rotate(-175.72)"/><rect class="cls-37" x="423.2" y="330.07" width="5.12" height="5.12" transform="translate(825.48 696.12) rotate(-175.72)"/><rect class="cls-46" x="423.2" y="330.07" width="5.12" height="5.12" transform="translate(825.48 696.12) rotate(-175.72)"/><rect class="cls-37" x="418.1" y="329.68" width="5.12" height="5.12" transform="translate(815.32 694.98) rotate(-175.72)"/><rect class="cls-37" x="413" y="329.3" width="5.12" height="5.12" transform="translate(805.16 693.83) rotate(-175.72)"/><rect class="cls-46" x="413" y="329.3" width="5.12" height="5.12" transform="translate(805.16 693.83) rotate(-175.72)"/><rect class="cls-37" x="407.89" y="328.92" width="5.12" height="5.12" transform="translate(795 692.69) rotate(-175.72)"/><rect class="cls-37" x="443.24" y="336.7" width="5.12" height="5.12" transform="translate(865.01 710.86) rotate(-175.72)"/><rect class="cls-37" x="443.24" y="336.7" width="5.12" height="5.12" transform="translate(865.01 710.86) rotate(-175.72)"/><rect class="cls-46" x="438.14" y="336.32" width="5.12" height="5.12" transform="translate(854.85 709.72) rotate(-175.72)"/><rect class="cls-37" x="433.04" y="335.93" width="5.12" height="5.12" transform="translate(844.69 708.57) rotate(-175.72)"/><rect class="cls-37" x="433.04" y="335.93" width="5.12" height="5.12" transform="translate(844.69 708.57) rotate(-175.72)"/><rect class="cls-46" x="427.94" y="335.55" width="5.12" height="5.12" transform="translate(834.53 707.43) rotate(-175.72)"/><rect class="cls-37" x="422.82" y="335.17" width="5.12" height="5.12" transform="translate(824.33 706.28) rotate(-175.72)"/><rect class="cls-37" x="422.82" y="335.17" width="5.12" height="5.12" transform="translate(824.33 706.28) rotate(-175.72)"/><rect class="cls-46" x="417.71" y="334.79" width="5.12" height="5.12" transform="translate(814.17 705.14) rotate(-175.72)"/><rect class="cls-37" x="412.61" y="334.4" width="5.12" height="5.12" transform="matrix(-1, -0.07, 0.07, -1, 804.01, 703.99)"/><rect class="cls-37" x="412.61" y="334.4" width="5.12" height="5.12" transform="matrix(-1, -0.07, 0.07, -1, 804.01, 703.99)"/><rect class="cls-46" x="407.51" y="334.02" width="5.12" height="5.12" transform="translate(793.85 702.85) rotate(-175.72)"/><rect class="cls-37" x="442.86" y="341.8" width="5.12" height="5.12" transform="translate(863.87 721.02) rotate(-175.72)"/><rect class="cls-46" x="442.86" y="341.8" width="5.12" height="5.12" transform="translate(863.87 721.02) rotate(-175.72)"/><rect class="cls-37" x="437.76" y="341.42" width="5.12" height="5.12" transform="translate(853.71 719.88) rotate(-175.72)"/><rect class="cls-37" x="432.66" y="341.03" width="5.12" height="5.12" transform="translate(843.55 718.73) rotate(-175.72)"/><rect class="cls-46" x="432.66" y="341.03" width="5.12" height="5.12" transform="translate(843.55 718.73) rotate(-175.72)"/><rect class="cls-37" x="427.56" y="340.65" width="5.12" height="5.12" transform="translate(833.39 717.59) rotate(-175.72)"/><rect class="cls-37" x="422.43" y="340.27" width="5.12" height="5.12" transform="translate(823.19 716.44) rotate(-175.72)"/><rect class="cls-46" x="422.43" y="340.27" width="5.12" height="5.12" transform="translate(823.19 716.44) rotate(-175.72)"/><rect class="cls-37" x="417.33" y="339.89" width="5.12" height="5.12" transform="translate(813.03 715.3) rotate(-175.72)"/><rect class="cls-37" x="412.23" y="339.5" width="5.12" height="5.12" transform="translate(802.87 714.15) rotate(-175.72)"/><rect class="cls-46" x="412.23" y="339.5" width="5.12" height="5.12" transform="translate(802.87 714.15) rotate(-175.72)"/><rect class="cls-37" x="407.13" y="339.12" width="5.12" height="5.12" transform="translate(792.71 713.01) rotate(-175.72)"/><rect class="cls-37" x="442.48" y="346.9" width="5.12" height="5.12" transform="translate(862.72 731.18) rotate(-175.72)"/><rect class="cls-37" x="442.48" y="346.9" width="5.12" height="5.12" transform="translate(862.72 731.18) rotate(-175.72)"/><rect class="cls-46" x="437.38" y="346.52" width="5.12" height="5.12" transform="translate(852.57 730.04) rotate(-175.72)"/><rect class="cls-37" x="432.28" y="346.14" width="5.12" height="5.12" transform="translate(842.41 728.89) rotate(-175.72)"/><rect class="cls-37" x="432.28" y="346.14" width="5.12" height="5.12" transform="translate(842.41 728.89) rotate(-175.72)"/><rect class="cls-46" x="427.17" y="345.75" width="5.12" height="5.12" transform="translate(832.25 727.75) rotate(-175.72)"/><rect class="cls-37" x="422.05" y="345.37" width="5.12" height="5.12" transform="matrix(-1, -0.07, 0.07, -1, 822.04, 726.6)"/><rect class="cls-37" x="422.05" y="345.37" width="5.12" height="5.12" transform="matrix(-1, -0.07, 0.07, -1, 822.04, 726.6)"/><rect class="cls-46" x="416.95" y="344.99" width="5.12" height="5.12" transform="translate(811.88 725.45) rotate(-175.72)"/><rect class="cls-37" x="411.85" y="344.61" width="5.12" height="5.12" transform="translate(801.72 724.31) rotate(-175.72)"/><rect class="cls-37" x="411.85" y="344.61" width="5.12" height="5.12" transform="translate(801.72 724.31) rotate(-175.72)"/><rect class="cls-46" x="406.75" y="344.22" width="5.12" height="5.12" transform="translate(791.57 723.17) rotate(-175.72)"/><rect class="cls-47" x="256.73" y="513.85" width="6.5" height="23.85" rx="3.25" ry="3.25"/><path class="cls-48" d="M249.6,355.75h0a2,2,0,0,1,2,2v17.1h17.1V358.09a16,16,0,0,0-31.14-5.22c-.56,1.64,10.11,4.84,10.11,4.84A2,2,0,0,1,249.6,355.75Z"/><path id="_Path_171" data-name="&lt;Path&gt;" class="cls-36" d="M175,504.05h0a6.27,6.27,0,0,1-7.52-4.69l-10.11-44.68,11.43-3.84a.27.27,0,0,1,.32.2l10.56,45.49A6.27,6.27,0,0,1,175,504.05Z"/><path id="_Path_172" data-name="&lt;Path&gt;" class="cls-28" d="M169.95,521.07h0A4.85,4.85,0,0,1,174,526.6l-5.15,34a4.85,4.85,0,0,1-5.53,4.07h0a4.85,4.85,0,0,1-4.07-5.53l.13-.89,5-33.12A4.85,4.85,0,0,1,169.95,521.07Z"/><path id="_Rectangle_18" data-name="&lt;Rectangle&gt;" class="cls-36" d="M163.29,491.76h12.53a0,0,0,0,1,0,0v59.06a5.32,5.32,0,0,1-5.32,5.32h-1.89a5.32,5.32,0,0,1-5.32-5.32V491.76a0,0,0,0,1,0,0Z" transform="translate(258.68 1067.39) rotate(-171.38)"/><g id="_Group_18" data-name="&lt;Group&gt;"><path id="_Path_173" data-name="&lt;Path&gt;" class="cls-5" d="M157.94,559.71v5.92h29.29V565a2.35,2.35,0,0,0-1.76-2.28l-15.59-4.06a4.35,4.35,0,0,0-2.19,0,16,16,0,0,1-8.59.15A.9.9,0,0,0,157.94,559.71Z"/><path id="_Path_174" data-name="&lt;Path&gt;" class="cls-37" d="M157.94,565.63v0a1.79,1.79,0,0,0,1.79,1.79h26.6a.9.9,0,0,0,.9-.9v-.93Z"/><circle id="_Path_175" data-name="&lt;Path&gt;" class="cls-37" cx="171.06" cy="560.65" r="0.99" transform="translate(-414.58 585.44) rotate(-75.46)"/><circle id="_Path_176" data-name="&lt;Path&gt;" class="cls-37" cx="174.25" cy="561.47" r="0.99" transform="matrix(0.25, -0.97, 0.97, 0.25, -412.99, 589.14)"/><circle id="_Path_177" data-name="&lt;Path&gt;" class="cls-37" cx="177.43" cy="562.3" r="0.99" transform="translate(-411.41 592.84) rotate(-75.46)"/><line id="_Path_178" data-name="&lt;Path&gt;" class="cls-49" x1="171.06" y1="560.65" x2="171.81" y2="558.56"/><line id="_Path_179" data-name="&lt;Path&gt;" class="cls-49" x1="174.25" y1="561.47" x2="174.99" y2="559.38"/><line id="_Path_180" data-name="&lt;Path&gt;" class="cls-49" x1="177.43" y1="562.3" x2="178.17" y2="560.21"/></g><path id="_Path_181" data-name="&lt;Path&gt;" class="cls-13" d="M165.12,394.53h0a3.89,3.89,0,0,0,0,5.5l23.72,23.55a3.89,3.89,0,0,0,5.5,0h0a3.89,3.89,0,0,0,0-5.5l-23.72-23.55A3.89,3.89,0,0,0,165.12,394.53Z"/><path id="_Path_182" data-name="&lt;Path&gt;" class="cls-27" d="M187.79,410.12,180.9,417l-17.35-17.14a4.9,4.9,0,0,1,0-6.91h0a4.9,4.9,0,0,1,6.91,0Z"/><path id="_Path_183" data-name="&lt;Path&gt;" class="cls-36" d="M155.23,511.87h0a6.27,6.27,0,0,1-7.52-4.69L137.6,462.51,149,458.67a.27.27,0,0,1,.32.2l10.56,45.49A6.27,6.27,0,0,1,155.23,511.87Z"/><path id="_Path_184" data-name="&lt;Path&gt;" class="cls-28" d="M150.19,528.89h0a4.85,4.85,0,0,1,4.07,5.53l-5.15,34a4.85,4.85,0,0,1-5.53,4.07h0a4.85,4.85,0,0,1-4.07-5.53l.13-.89,5-33.12A4.85,4.85,0,0,1,150.19,528.89Z"/><path id="_Rectangle_19" data-name="&lt;Rectangle&gt;" class="cls-36" d="M143.53,499.58h12.53a0,0,0,0,1,0,0v59.06a5.32,5.32,0,0,1-5.32,5.32h-1.89a5.32,5.32,0,0,1-5.32-5.32V499.58a0,0,0,0,1,0,0Z" transform="translate(218.21 1079.98) rotate(-171.38)"/><g id="_Group_19" data-name="&lt;Group&gt;"><path id="_Path_185" data-name="&lt;Path&gt;" class="cls-5" d="M138.18,567.53v5.92h29.29v-.59a2.35,2.35,0,0,0-1.76-2.28l-15.59-4.06a4.35,4.35,0,0,0-2.19,0,16,16,0,0,1-8.59.15A.9.9,0,0,0,138.18,567.53Z"/><path id="_Path_186" data-name="&lt;Path&gt;" class="cls-37" d="M138.18,573.45v0a1.79,1.79,0,0,0,1.79,1.79h26.6a.9.9,0,0,0,.9-.9v-.93Z"/><circle id="_Path_187" data-name="&lt;Path&gt;" class="cls-37" cx="151.3" cy="568.47" r="0.99" transform="translate(-436.94 572.17) rotate(-75.46)"/><circle id="_Path_188" data-name="&lt;Path&gt;" class="cls-37" cx="154.49" cy="569.29" r="0.99" transform="matrix(0.25, -0.97, 0.97, 0.25, -435.36, 575.87)"/><circle id="_Path_189" data-name="&lt;Path&gt;" class="cls-37" cx="157.67" cy="570.12" r="0.99" transform="translate(-433.77 579.57) rotate(-75.46)"/><line id="_Path_190" data-name="&lt;Path&gt;" class="cls-49" x1="151.3" y1="568.47" x2="152.05" y2="566.37"/><line id="_Path_191" data-name="&lt;Path&gt;" class="cls-49" x1="154.49" y1="569.29" x2="155.23" y2="567.2"/><line id="_Path_192" data-name="&lt;Path&gt;" class="cls-49" x1="157.67" y1="570.12" x2="158.41" y2="568.03"/></g><circle id="_Path_193" data-name="&lt;Path&gt;" class="cls-43" cx="168.79" cy="464.32" r="1.49" transform="translate(-304.61 605.64) rotate(-86.64)"/><path id="_Path_194" data-name="&lt;Path&gt;" class="cls-36" d="M139.58,455l32,2.14-.87,11.44c-.23,3.38-2.87,6-5.9,5.76l-21-1.4c-3-.2-5.31-3.11-5.09-6.49Z"/><path id="_Rectangle_20" data-name="&lt;Rectangle&gt;" class="cls-28" d="M137.27,391H175a0,0,0,0,1,0,0v63a13.29,13.29,0,0,1-13.29,13.29H151a13.74,13.74,0,0,1-13.74-13.74V391a0,0,0,0,1,0,0Z" transform="translate(305.57 860.66) rotate(-179.11)"/><rect id="_Rectangle_21" data-name="&lt;Rectangle&gt;" class="cls-11" x="145.44" y="405.64" width="9.28" height="4.16" transform="translate(7.29 -2.61) rotate(1.02)"/><path id="_Path_195" data-name="&lt;Path&gt;" class="cls-13" d="M140.56,394.88h0a3.89,3.89,0,0,0-3.31,4.39l4.93,33.05a3.89,3.89,0,0,0,4.39,3.31h0a3.89,3.89,0,0,0,3.31-4.39L145,398.2A3.89,3.89,0,0,0,140.56,394.88Z"/><path id="_Path_196" data-name="&lt;Path&gt;" class="cls-27" d="M149.41,420.93l-9.66,1.43-3.66-24.11a4.9,4.9,0,0,1,4.12-5.54h0a4.9,4.9,0,0,1,5.54,4.12Z"/><path id="_Path_197" data-name="&lt;Path&gt;" class="cls-13" d="M142.31,431.77h0a3.89,3.89,0,0,0,3.36,4.35l33.18,4a3.89,3.89,0,0,0,4.35-3.36h0a3.89,3.89,0,0,0-3.36-4.35l-33.18-4A3.89,3.89,0,0,0,142.31,431.77Z"/><path id="_Path_198" data-name="&lt;Path&gt;" class="cls-10" d="M180.42,439.89a66.15,66.15,0,0,1,6.83,3c2.35-2.1-.75-5.21-.75-5.21Z"/><path id="_Path_199" data-name="&lt;Path&gt;" class="cls-13" d="M189.35,423.69h0a3.89,3.89,0,0,0,5.47.55l25.69-21.37a3.89,3.89,0,0,0,.55-5.47h0a3.89,3.89,0,0,0-5.47-.55L189.9,418.22A3.89,3.89,0,0,0,189.35,423.69Z"/><path id="_Path_200" data-name="&lt;Path&gt;" class="cls-10" d="M215,397.52a66.15,66.15,0,0,0-2.14-7.14c2.37-2.08,5.09,1.37,5.09,1.37Z"/><ellipse id="_Path_201" data-name="&lt;Path&gt;" class="cls-27" cx="156.83" cy="392.07" rx="6.4" ry="4.16" transform="translate(-0.51 0.2) rotate(-0.07)"/><path id="_Path_202" data-name="&lt;Path&gt;" class="cls-13" d="M156.25,379.57h-.12a3.39,3.39,0,0,1,3.71,3.12l.78,7.42c.2,1.92-1.17,2.66-3.09,2.86h.06c-1.92.2-3.47-.24-3.67-2.15l-.78-7.42A3.49,3.49,0,0,1,156.25,379.57Z"/><path id="_Path_203" data-name="&lt;Path&gt;" class="cls-17" d="M161.36,388.86c-10.07.74-15.58-6.59-17.41-15.81-1.93-9.71,4.43-17.9,12.33-18.08,9-.21,14.31,3.19,15.24,13,.59,6.19-1,18.65-10.17,20.85Z"/><path id="_Path_204" data-name="&lt;Path&gt;" class="cls-50" d="M143,359.76c-.9,2.45-.83,6.11-.66,8.43a2.33,2.33,0,0,1,2-.53l.32.07h0l.16,0,.16.05.16.07.12.06.19.1.15.09.15.1.14.11.14.11.27.25s0,0,0,0l.05.06,0,0,0,0V369l.09,4.24a1.9,1.9,0,0,0,.48,1.42,2.31,2.31,0,0,0,.2.21,3,3,0,0,0,1.3.35,2.21,2.21,0,0,0,2.19-2.06l0-1.52a2.19,2.19,0,0,1,2-2.23l.38,0c0-1.73,0-3.1-.08-3.95,0-1.05.34-1.76,2.67-2h.07l.66-.06h0c.41,0,.86,0,1.36-.06L168.5,363l.12,0a5.3,5.3,0,0,0,2.9-2.07,3.2,3.2,0,0,0,.55-2.14l-3,.06a6,6,0,0,0,1.48-2.61,14.08,14.08,0,0,0,.62-3.27l-4.93.1s-5-3.49-10.48-2.92c-8.63.9-11.38,6.52-11.38,6.52a9.33,9.33,0,0,0-3.75-.59A8,8,0,0,1,143,359.76Z"/><path id="_Path_205" data-name="&lt;Path&gt;" class="cls-51" d="M156.41,363.28c.41,0,.86,0,1.36-.06L168.5,363l.12,0a5.3,5.3,0,0,0,2.9-2.07,3.2,3.2,0,0,0,.55-2.14s-2.5,2.93-4.13,3.26l-.13,0C166.16,362.34,158.82,363.05,156.41,363.28Z"/><path id="_Path_206" data-name="&lt;Path&gt;" class="cls-50" d="M154.43,379.61l.28,1.53.63,3.45v0l.2,1.11c.57,3,3.15,5,5.76,4.3l3.07-.79a4.39,4.39,0,0,0,2.68-2.1,8,8,0,0,0,1-3.84l-.26-5c-.25-1.33-.6-1.84-1.76-1.8l-9.8.2H156A2.48,2.48,0,0,0,154.43,379.61Z"/><path id="_Path_207" data-name="&lt;Path&gt;" class="cls-16" d="M162.46,381.48c2.08,0,3.89-1.21,3.86-2.49v-.3l-8,.16v.3c0,1.17,1.27,2.39,3.54,2.34Z"/><path id="_Path_208" data-name="&lt;Path&gt;" class="cls-51" d="M171.19,352.95s-1.82,4.39-4.5,5.55c-2.27,1-13.46,1.57-13.46,1.57a19.1,19.1,0,0,0,3.49.76c1,.09,10.87.2,12.38-2A9.6,9.6,0,0,0,171.19,352.95Z"/><path id="_Path_209" data-name="&lt;Path&gt;" class="cls-50" d="M147.23,374.84a9.73,9.73,0,0,0,1.69,1.26c2.25,1.42,5.42,3.12,6.39,7.11v0c.46,1.92.85,1.7,1.1.59.44-1.91.49-6.43-.19-7.26h0c-1.9,0-5.47-1.13-5.52-3.45S144.95,372.87,147.23,374.84Z"/><path id="_Path_210" data-name="&lt;Path&gt;" class="cls-50" d="M168,382.7c-.12-2.18,3.56-4.84,3.62-10.65a5.85,5.85,0,0,1-5.59,4.34C165.35,377.27,167.44,381,168,382.7Z"/><path id="_Path_211" data-name="&lt;Path&gt;" class="cls-51" d="M148.92,376.1c2.25,1.7,5.43,3.74,6.41,8.49v0l.2,1.11c.57,3,3.15,5,5.76,4.3l3.07-.79a4.39,4.39,0,0,0,2.68-2.1,18.6,18.6,0,0,1-4.82,1.41c-2.31.25-5.12-.47-5.79-3.21h0a16.34,16.34,0,0,0-1.74-4.19A10.4,10.4,0,0,0,148.92,376.1Z"/><g id="_Group_20" data-name="&lt;Group&gt;"><line id="_Path_212" data-name="&lt;Path&gt;" class="cls-50" x1="169.33" y1="366.91" x2="165.72" y2="366.8"/><path id="_Path_213" data-name="&lt;Path&gt;" class="cls-50" d="M169.42,367.51a.6.6,0,0,0-.08-1.2l-3.61-.11a.6.6,0,1,0,0,1.2l3.61.11Z"/></g><g id="_Group_21" data-name="&lt;Group&gt;"><line id="_Path_214" data-name="&lt;Path&gt;" class="cls-50" x1="159.16" y1="366.93" x2="155.56" y2="367.19"/><path id="_Path_215" data-name="&lt;Path&gt;" class="cls-50" d="M159.23,366.34a.6.6,0,0,1,0,1.2l-3.6.26a.6.6,0,0,1-.09-1.2l3.6-.26Z"/></g><circle id="_Path_216" data-name="&lt;Path&gt;" cx="157.88" cy="370.85" r="0.81" transform="translate(-7.43 3.25) rotate(-1.15)"/><circle id="_Path_217" data-name="&lt;Path&gt;" cx="167.33" cy="370.94" r="0.81" transform="translate(-7.43 3.44) rotate(-1.15)"/><polygon id="_Path_218" data-name="&lt;Path&gt;" class="cls-20" points="162.29 370.4 162.28 375.55 163.8 375.26 162.29 370.4"/><path id="_Path_219" data-name="&lt;Path&gt;" class="cls-52" d="M154.87,372a4.24,4.24,0,0,0,2.53.69h0a4.55,4.55,0,0,0,2.5-.79"/><path id="_Path_220" data-name="&lt;Path&gt;" class="cls-52" d="M164.87,371.81a4.24,4.24,0,0,0,2.53.69h0a4.55,4.55,0,0,0,2.5-.79"/><g id="_Group_22" data-name="&lt;Group&gt;"><path id="_Path_221" data-name="&lt;Path&gt;" class="cls-17" d="M146.51,368.88a4.78,4.78,0,0,0-1.7-1.7c-2.61-1.73-5.58-.23-4.38,2.81.84,2.12,2.31,7.38,3.94,5.44A10.14,10.14,0,0,0,146.51,368.88Z"/><polygon id="_Path_222" data-name="&lt;Path&gt;" class="cls-20" points="144.53 369.23 141.14 368.73 143.78 373.32 142.85 369.51 144.53 369.23"/></g><path class="cls-11" d="M224,522.64h55.15a0,0,0,0,1,0,0v28.84A10.82,10.82,0,0,1,268.3,562.3H234.79A10.82,10.82,0,0,1,224,551.48V522.64A0,0,0,0,1,224,522.64Z"/><circle class="cls-15" cx="235.58" cy="564.73" r="5.86"/><circle class="cls-23" cx="235.58" cy="564.73" r="2.77"/><circle class="cls-15" cx="267.51" cy="564.73" r="5.86"/><circle class="cls-23" cx="267.51" cy="564.73" r="2.77"/><rect class="cls-23" x="221.86" y="521.02" width="59.37" height="4.75" rx="1.58" ry="1.58"/><circle class="cls-27" cx="251.54" cy="523.39" r="1.96"/><line class="cls-53" x1="251.54" y1="523.39" x2="224.54" y2="519.1"/><line class="cls-54" x1="240.45" y1="358.24" x2="172.41" y2="458.96"/><path id="_Path_223" data-name="&lt;Path&gt;" class="cls-13" d="M178.79,432.18l7.86-.7s5.39,2.75,6.82,4.58c1.66,2.14,1.93,5.67,1.94,6.33,0,1.76-7.7-2.77-7.7-2.77l-7.83.33Z"/><path id="_Path_224" data-name="&lt;Path&gt;" class="cls-13" d="M221.8,400l1.64-7.72s-2.08-5.68-3.73-7.32c-1.92-1.9-5.39-2.6-6-2.68-1.74-.23,1.83,8,1.83,8l-.77,8.92Z"/><path class="cls-11" d="M238.13,350.71l10.2,6.69-.91,1.39a6.1,6.1,0,0,1-8.45,1.75h0a6.1,6.1,0,0,1-1.75-8.45Z"/><rect class="cls-23" x="242.26" y="345.9" width="2.77" height="15.05" rx="1.39" ry="1.39" transform="translate(-185.52 363.28) rotate(-56.73)"/><rect class="cls-47" x="251.54" y="365.38" width="6.5" height="23.85" rx="3.25" ry="3.25"/><rect class="cls-47" x="256.73" y="360.75" width="6.5" height="23.85" rx="3.25" ry="3.25"/><rect class="cls-47" x="262.16" y="365.38" width="6.5" height="23.85" rx="3.25" ry="3.25"/><rect class="cls-47" x="256.73" y="372.13" width="6.5" height="23.85" rx="3.25" ry="3.25"/><rect class="cls-47" x="262.16" y="380.67" width="6.5" height="23.85" rx="3.25" ry="3.25"/><rect class="cls-47" x="256.73" y="423.75" width="6.5" height="23.85" rx="3.25" ry="3.25"/><rect class="cls-47" x="262.16" y="468.36" width="6.5" height="23.85" rx="3.25" ry="3.25"/><rect class="cls-16" x="297.27" y="366.2" width="37.62" height="54.95"/><rect class="cls-55" x="307.61" y="363.03" width="37.62" height="54.95" transform="translate(65.32 -46.38) rotate(9.03)"/><circle class="cls-4" cx="332.14" cy="363.99" r="2.75"/><circle class="cls-27" cx="309.62" cy="377.92" r="2.75"/><text class="cls-56" transform="translate(187.17 606.86)">STAFF</text><text class="cls-56" transform="translate(342.78 606.86)">STAFF</text><text class="cls-56" transform="translate(498.4 606.86)">STAFF</text><rect class="cls-57" x="319.65" y="135.89" width="99.86" height="47.13" rx="19.47" ry="19.47"/><line class="cls-58" x1="369.58" y1="183.02" x2="369.58" y2="339.26"/><text class="cls-56" transform="translate(335.85 166.72)">Director</text><rect class="cls-57" x="122.03" y="244.56" width="99.86" height="47.13" rx="19.47" ry="19.47"/><line class="cls-58" x1="369.58" y1="267.41" x2="221.89" y2="267.41"/><text class="cls-56" transform="translate(135.02 273.94)">Manager</text></svg>