<svg id="Layer_1" data-name="Layer 1" xmlns="http://www.w3.org/2000/svg" xmlns:xlink="http://www.w3.org/1999/xlink" viewBox="0 0 708.66 481.89"><defs><style>.cls-1,.cls-18,.cls-2{fill:none;}.cls-2{stroke:#dbdddd;stroke-width:2px;}.cls-18,.cls-2{stroke-linecap:round;stroke-linejoin:round;}.cls-26,.cls-3{fill:#dd4439;}.cls-13,.cls-27,.cls-4{fill:#fff;}.cls-5{fill:#494949;}.cls-24,.cls-6{fill:#fec82b;}.cls-7{fill:#e2ad29;}.cls-8{fill:#edeeef;}.cls-9{fill:#f9ce6e;}.cls-10{fill:#b8d8ff;}.cls-11,.cls-20{fill:#d5eff0;}.cls-11{opacity:0.34;}.cls-12{clip-path:url(#clip-path);}.cls-13{opacity:0.39;}.cls-14{opacity:0.07;}.cls-15{fill:#3d3d3d;}.cls-16{fill:#bababa;}.cls-17{fill:#515180;}.cls-18{stroke:#515180;stroke-width:12px;}.cls-19{fill:#648ec9;}.cls-19,.cls-22,.cls-24,.cls-26{stroke:#f9f9f9;stroke-miterlimit:10;}.cls-19,.cls-22{stroke-width:4px;}.cls-20,.cls-25,.cls-27{font-size:21px;}.cls-20,.cls-23,.cls-25,.cls-27{font-family:Impact, Impact;}.cls-21{letter-spacing:0.02em;}.cls-22{fill:#19a4a4;}.cls-23{font-size:19.08px;fill:#ffdc83;}.cls-24{stroke-width:6px;}.cls-25{fill:#3952a0;}.cls-26{stroke-width:7px;}</style><clipPath id="clip-path"><rect class="cls-1" x="53.1" y="57.4" width="607" height="303.8" rx="40.06" ry="40.06"/></clipPath></defs><title>CS-L2-U12</title><line class="cls-2" x1="80.03" y1="220.59" x2="75.14" y2="222.54"/><line class="cls-2" x1="134.11" y1="199.11" x2="82.84" y2="219.48"/><line class="cls-2" x1="107.03" y1="199.28" x2="97.18" y2="203.19"/><line class="cls-2" x1="139.43" y1="186.41" x2="113.1" y2="196.87"/><path class="cls-3" d="M261.56,110.66a18.46,18.46,0,0,0-6.13.19,9.2,9.2,0,0,1-5.69-.85c-5.07-2.57-16.12-7.57-21.78-5.56-6.33,2.25-65.18,29.33-83.33,37.7a14.47,14.47,0,0,1-10.82.52l-21.64-7.54a10.87,10.87,0,0,0-8.37.51l-8.42,4.14a1,1,0,0,0-.28,1.5l15.41,16.8a1,1,0,0,1-.28,1.5l-.81.4a1,1,0,0,0-.11,1.64c5.81,3.84,29.34,17.92,50.76,10L183.53,163a1,1,0,0,1,1.28.83l1.79,29a1,1,0,0,0,1.28.83l16.37-6.19a1,1,0,0,0,.56-.57l12-33.82a6.84,6.84,0,0,1,4.06-4.13c10.55-3.94,45.6-17.84,47.52-29.13h0A8.33,8.33,0,0,0,261.56,110.66Z"/><rect class="cls-4" x="190.72" y="124.28" width="10.78" height="12.54" rx="5.39" ry="5.39" transform="translate(-36.39 92.54) rotate(-24.37)"/><rect class="cls-4" x="205.88" y="117.76" width="10.78" height="12.54" rx="5.39" ry="5.39" transform="translate(-32.35 98.22) rotate(-24.37)"/><rect class="cls-4" x="159.02" y="138.46" width="10.78" height="12.54" rx="5.39" ry="5.39" transform="translate(-45.07 80.73) rotate(-24.37)"/><rect class="cls-4" x="174.18" y="131.94" width="10.78" height="12.54" rx="5.39" ry="5.39" transform="translate(-41.03 86.4) rotate(-24.37)"/><path class="cls-4" d="M250,110c-3.35-1.7-9.32-4.46-14.62-5.55l-8.21,7.69a1.31,1.31,0,0,0,.28,2.12l11.31,6.06a1.31,1.31,0,0,0,1.52-.21l10.33-9.82C250.41,110.23,250.2,110.14,250,110Z"/><path class="cls-4" d="M137.39,173.39l.1,0,4.18.58a41.4,41.4,0,0,0,18.46-2.11l23.47-8.63,35.82-13.3h0a6.83,6.83,0,0,1,1.47-.77c10.55-3.94,45.6-17.84,47.52-29.13a8.42,8.42,0,0,0-1.83-6.23h0Z"/><polygon class="cls-3" points="227.5 129.83 183.95 149.97 184.81 163.85 216.77 153.08 227.5 129.83"/><circle class="cls-5" cx="526.44" cy="186.67" r="3.62" transform="translate(324.49 707.44) rotate(-88.33)"/><rect class="cls-6" x="543.33" y="170.89" width="1.5" height="15.33" transform="translate(1035.8 472) rotate(-167.34)"/><rect class="cls-7" x="530.57" y="168.99" width="1.5" height="15.33" transform="translate(1011 465.46) rotate(-167.34)"/><path class="cls-7" d="M539,183.82l-.12,4.23s-21.5.33-20.94-4.84S539,183.82,539,183.82Z"/><path class="cls-8" d="M518,183.43l21,3.34,0,1.27S518.06,188.36,518,183.43Z"/><path class="cls-6" d="M511.38,155.46s-2.81,11.93,1.46,15.47,33.84,5.36,33.84,5.36l35.82-2,18.64-7.1,2.21-19.46-7.75-1s-7,14.48-13.37,13.78-24.33-3.68-29.65-8.48l3.43-.72s-22.29-7.89-31.92-5.44l7,3.62-8.1,7.68Z"/><ellipse class="cls-9" cx="503.14" cy="159.52" rx="21.76" ry="1.84" transform="translate(291.03 642.84) rotate(-83.9)"/><path class="cls-4" d="M509.87,155.6c-1,2.15-.32,11-.32,11s-12.2-2.95-11.11-7.56S509.87,155.6,509.87,155.6Z"/><ellipse class="cls-4" cx="592.18" cy="162.12" rx="1.09" ry="6.07" transform="translate(325.1 714.95) rotate(-79.52)"/><circle class="cls-5" cx="541.35" cy="190.72" r="3.62" transform="translate(334.91 726.27) rotate(-88.33)"/><path class="cls-6" d="M554.36,187.57l-.12,4.23s-21.5.33-20.94-4.84S554.36,187.57,554.36,187.57Z"/><path class="cls-7" d="M524.08,145.86,556,151.3l-3.43.72a11.33,11.33,0,0,0,2.77,1.83l-25.52-3.22,1.22-1.15Z"/><path class="cls-4" d="M512.81,170.93a6.79,6.79,0,0,1-2-4l71.7,7.38-35.82,2S517.07,174.46,512.81,170.93Z"/><path class="cls-4" d="M533.29,187.27l21,3.34,0,1.27S533.37,192.2,533.29,187.27Z"/><path class="cls-9" d="M556,151.3l-31.92-5.44C533.71,143.42,556,151.3,556,151.3Z"/><path class="cls-4" d="M602.8,152.43l-9.73-1.33c.33-.54.64-1.05.92-1.53l9,1.23Z"/><path class="cls-10" d="M530.22,150.2l2.09.95-2.8,7s-4.33.9-6.66-1.15Z"/><rect class="cls-10" x="545.06" y="155.74" width="6.57" height="7.64" rx="3.28" ry="3.28" transform="translate(1048.39 435.42) rotate(-167.34)"/><rect class="cls-10" x="535.21" y="153.73" width="6.57" height="7.64" rx="3.28" ry="3.28" transform="matrix(-0.98, -0.22, 0.22, -0.98, 1029.37, 429.29)"/><rect class="cls-11" x="53.1" y="57.4" width="607" height="303.8" rx="40.06" ry="40.06"/><g class="cls-12"><rect class="cls-13" x="320.89" y="-149.86" width="86.77" height="672.42" transform="translate(238.47 -203) rotate(45)"/><rect class="cls-13" x="405.22" y="-87.21" width="43.39" height="672.42" transform="translate(301.11 -228.95) rotate(45)"/></g><g class="cls-14"><path d="M317.38,100.46h2.33V97.69h70.17v2.77h2.5V201.79h11.33V91.49a15.13,15.13,0,0,0-15.13-15.13h-67.4A15.13,15.13,0,0,0,306,91.49v109.3h11.33Z"/><path d="M550.11,319.23c0-23.6-3.43-40-20.38-48.47a9,9,0,0,0-9-8.86,2.79,2.79,0,0,0-1.61.52V229.23a24.33,24.33,0,0,0-24.33-24.33H210.38A24.33,24.33,0,0,0,186,229.23V415.46a24.33,24.33,0,0,0,24.33,24.33h36.39a15.66,15.66,0,0,0,15.61,14.56h0A15.66,15.66,0,0,0,278,439.79H431.38V440a14.33,14.33,0,0,0,14.33,14.33h0A14.33,14.33,0,0,0,460,440v-.23h34.77a24.33,24.33,0,0,0,24.33-24.33V376.71a2.79,2.79,0,0,0,1.61.52,9,9,0,0,0,9-9v-.58C546.95,357.72,550.11,343.53,550.11,319.23ZM529.73,353v-1.63a2.8,2.8,0,0,0-2.8-2.8h-6.17a2.79,2.79,0,0,0-1.61.52V290a2.79,2.79,0,0,0,1.61.52h6.17a2.8,2.8,0,0,0,2.8-2.8v-2.64c5.47,5.12,8.38,14.12,8.38,34.11C538.11,338.93,535.8,347.34,529.73,353Z"/></g><rect class="cls-15" x="250.71" y="411.35" width="31.33" height="42" rx="15.67" ry="15.67"/><rect class="cls-15" x="435.38" y="411.35" width="28.67" height="42" rx="14.33" ry="14.33"/><rect class="cls-16" x="310.04" y="95.79" width="11.33" height="104"/><rect class="cls-16" x="396.38" y="96.79" width="11.33" height="104"/><path class="cls-17" d="M325.18,75.36h67.4a15.13,15.13,0,0,1,15.13,15.13v6.2a0,0,0,0,1,0,0H310a0,0,0,0,1,0,0v-6.2A15.13,15.13,0,0,1,325.18,75.36Z"/><rect class="cls-17" x="393.88" y="91.69" width="13.83" height="7.77"/><rect class="cls-17" x="310.04" y="91.69" width="13.67" height="7.77"/><rect class="cls-17" x="239.15" y="154.79" width="234.9" height="333.1" rx="24.33" ry="24.33" transform="translate(35.25 677.94) rotate(-90)"/><g class="cls-14"><path d="M315,200.93a6,6,0,0,1-5.4-8.62c8.43-17.4,24.9-20.89,48.73-20.89,24.37,0,38.57,3.17,48.54,20.52a6,6,0,1,1-10.4,6c-6.15-10.7-12.83-14.5-38.13-14.5-26.13,0-33.49,5-37.93,14.12A6,6,0,0,1,315,200.93Z"/></g><path class="cls-18" d="M315,197.93c6.33-13.07,17.74-17.51,43.33-17.51s35.5,3.88,43.33,17.51"/><path class="cls-16" d="M310,194.79h16.89a2.8,2.8,0,0,1,2.8,2.8v6.17a2.8,2.8,0,0,1-2.8,2.8H303.85a2.8,2.8,0,0,1-2.8-2.8v0a9,9,0,0,1,9-9Z"/><path class="cls-16" d="M390.51,194.79h16.89a9,9,0,0,1,9,9v0a2.8,2.8,0,0,1-2.8,2.8H390.51a2.8,2.8,0,0,1-2.8-2.8V197.6a2.8,2.8,0,0,1,2.8-2.8Z"/><path class="cls-18" d="M530.6,274.9c13.07,6.33,17.51,17.74,17.51,43.33s-3.87,35.5-17.51,43.33"/><path class="cls-16" d="M522.48,269.34h16.89a2.8,2.8,0,0,1,2.8,2.8v6.17a2.8,2.8,0,0,1-2.8,2.8H516.32a2.8,2.8,0,0,1-2.8-2.8v0a9,9,0,0,1,9-9Z" transform="translate(803.07 -252.62) rotate(90)"/><path class="cls-16" d="M516.32,356h16.89a9,9,0,0,1,9,9v0a2.8,2.8,0,0,1-2.8,2.8H516.32a2.8,2.8,0,0,1-2.8-2.8v-6.17a2.8,2.8,0,0,1,2.8-2.8Z" transform="translate(889.74 -165.95) rotate(90)"/><rect class="cls-14" x="235.97" y="234.09" width="83.05" height="83.05" rx="8.05" ry="8.05" transform="translate(400.68 -95.6) rotate(63.55)"/><rect class="cls-19" x="232.04" y="236.26" width="83.05" height="83.05" rx="8.05" ry="8.05" transform="translate(400.44 -90.87) rotate(63.55)"/><text class="cls-20" transform="translate(239.15 277.78) rotate(13.49)">QUALI<tspan class="cls-21" x="47.66" y="0">T</tspan><tspan x="57.86" y="0">Y</tspan></text><rect class="cls-14" x="365.69" y="250.92" width="99.05" height="48.62" rx="5.87" ry="5.87" transform="translate(72.18 -85.99) rotate(12.94)"/><rect class="cls-22" x="369.5" y="248.84" width="99.05" height="48.62" rx="5.87" ry="5.87" transform="translate(71.81 -86.9) rotate(12.94)"/><text class="cls-23" transform="translate(390.15 265.39) rotate(26.25)">SERVICE</text><rect class="cls-14" x="298.3" y="317.54" width="52.53" height="107" rx="11.41" ry="11.41" transform="translate(-74.74 660.11) rotate(-84.72)"/><rect class="cls-24" x="267.99" y="340.23" width="107" height="52.53" rx="11.41" ry="11.41" transform="translate(35.06 -28.01) rotate(5.28)"/><text class="cls-25" transform="translate(276.83 371.57) rotate(5.64)">PRODUCTS</text><circle class="cls-14" cx="447.48" cy="373.59" r="37.77"/><circle class="cls-26" cx="454.14" cy="370.36" r="37.77"/><text class="cls-27" transform="translate(437.37 390.23) rotate(-32.1)">PRICE</text></svg>