<svg id="Layer_1" data-name="Layer 1" xmlns="http://www.w3.org/2000/svg" xmlns:xlink="http://www.w3.org/1999/xlink" viewBox="0 0 708.66 481.89"><defs><style>.cls-1{mask:url(#mask);filter:url(#luminosity-noclip-3);}.cls-2,.cls-4{mix-blend-mode:multiply;}.cls-2{fill:url(#linear-gradient);}.cls-3{mask:url(#mask-2);filter:url(#luminosity-noclip-4);}.cls-4{fill:url(#linear-gradient-2);}.cls-5{mask:url(#mask-3);}.cls-6{fill:#c5e0f9;}.cls-7{mask:url(#mask-4);}.cls-8{fill:#b6b6b7;}.cls-9{fill:#ee4256;}.cls-10{fill:#80b9e0;}.cls-11{fill:#fdd8b8;}.cls-12{fill:#91b985;}.cls-13{fill:#648ec9;}.cls-14{fill:#ffdc83;}.cls-15{fill:#979797;}.cls-16{opacity:0.1;}.cls-17,.cls-18{fill:#0e333e;}.cls-17{opacity:0.15;}.cls-19{fill:gray;}.cls-20,.cls-30{fill:#f8ab8d;}.cls-21{fill:#353560;}.cls-22{fill:#4d4e4e;}.cls-23{fill:#dce0dd;}.cls-24,.cls-34{fill:none;}.cls-25{fill:#474747;}.cls-26{fill:#414042;}.cls-27{fill:#fc5f51;}.cls-28{fill:#fec82b;}.cls-29{fill:#00a7c9;}.cls-30,.cls-33{fill-rule:evenodd;}.cls-31{fill:#8b6339;}.cls-32{fill:#754d24;}.cls-33{fill:#dc846a;}.cls-34{stroke:#dc846a;stroke-linecap:round;stroke-linejoin:round;stroke-width:2px;}.cls-35{fill:#775231;}.cls-36{fill:#49a579;}.cls-37{fill:#4c836a;}.cls-38,.cls-39{fill:#333;}.cls-38{opacity:0.07;}.cls-40{fill:#edeceb;}.cls-41{fill:#fcf47e;}.cls-42{fill:#ed1c24;}.cls-43{fill:#acd2e2;}.cls-44{fill:#3f3f3f;}.cls-45{fill:#b3b3b3;}.cls-46{filter:url(#luminosity-noclip-2);}.cls-47{filter:url(#luminosity-noclip);}</style><filter id="luminosity-noclip" x="435.29" y="-6297.05" width="156.84" height="32766" filterUnits="userSpaceOnUse" color-interpolation-filters="sRGB"><feFlood flood-color="#fff" result="bg"/><feBlend in="SourceGraphic" in2="bg"/></filter><mask id="mask" x="435.29" y="-6297.05" width="156.84" height="32766" maskUnits="userSpaceOnUse"><g class="cls-47"/></mask><linearGradient id="linear-gradient" x1="435.29" y1="95" x2="592.13" y2="95" gradientUnits="userSpaceOnUse"><stop offset="0" stop-color="#b3b3b3"/><stop offset="0.01" stop-color="#b5b5b5"/><stop offset="0.11" stop-color="#c2c2c2"/><stop offset="0.23" stop-color="#cacaca"/><stop offset="0.49" stop-color="#ccc"/><stop offset="0.69" stop-color="#c8c8c8"/><stop offset="0.9" stop-color="#bbb"/><stop offset="1" stop-color="#b3b3b3"/></linearGradient><filter id="luminosity-noclip-2" x="265.68" y="-6297.05" width="156.84" height="32766" filterUnits="userSpaceOnUse" color-interpolation-filters="sRGB"><feFlood flood-color="#fff" result="bg"/><feBlend in="SourceGraphic" in2="bg"/></filter><mask id="mask-2" x="265.68" y="-6297.05" width="156.84" height="32766" maskUnits="userSpaceOnUse"><g class="cls-46"/></mask><linearGradient id="linear-gradient-2" x1="214.41" y1="48.17" x2="371.25" y2="48.17" gradientTransform="matrix(-1, 0, 0, 1, 636.93, 0)" xlink:href="#linear-gradient"/><filter id="luminosity-noclip-3" x="435.29" y="73.62" width="156.84" height="42.76" filterUnits="userSpaceOnUse" color-interpolation-filters="sRGB"><feFlood flood-color="#fff" result="bg"/><feBlend in="SourceGraphic" in2="bg"/></filter><mask id="mask-3" x="435.29" y="73.62" width="156.84" height="42.76" maskUnits="userSpaceOnUse"><g class="cls-1"><path class="cls-2" d="M565.34,100a29.83,29.83,0,0,0-6.48.72,34.34,34.34,0,0,0-47.3-9.09,41.76,41.76,0,0,0-34.25-18c-23.21,0-42,19.12-42,42.7,0,0,0,0,0,.06H592.13A30.22,30.22,0,0,0,565.34,100Z"/></g></mask><filter id="luminosity-noclip-4" x="265.68" y="26.78" width="156.84" height="42.76" filterUnits="userSpaceOnUse" color-interpolation-filters="sRGB"><feFlood flood-color="#fff" result="bg"/><feBlend in="SourceGraphic" in2="bg"/></filter><mask id="mask-4" x="265.68" y="26.78" width="156.84" height="42.76" maskUnits="userSpaceOnUse"><g class="cls-3"><path class="cls-4" d="M292.47,53.12a29.83,29.83,0,0,1,6.48.72,34.34,34.34,0,0,1,47.3-9.09,41.76,41.76,0,0,1,34.25-18c23.21,0,42,19.12,42,42.7,0,0,0,0,0,.06H265.68A30.22,30.22,0,0,1,292.47,53.12Z"/></g></mask></defs><title>CS-L2-U3</title><g class="cls-5"><path class="cls-6" d="M565.34,100a29.83,29.83,0,0,0-6.48.72,34.34,34.34,0,0,0-47.3-9.09,41.76,41.76,0,0,0-34.25-18c-23.21,0-42,19.12-42,42.7,0,0,0,0,0,.06H592.13A30.22,30.22,0,0,0,565.34,100Z"/></g><g class="cls-7"><path class="cls-6" d="M292.47,53.12a29.83,29.83,0,0,1,6.48.72,34.34,34.34,0,0,1,47.3-9.09,41.76,41.76,0,0,1,34.25-18c23.21,0,42,19.12,42,42.7,0,0,0,0,0,.06H265.68A30.22,30.22,0,0,1,292.47,53.12Z"/></g><path class="cls-8" d="M468,70.28l-13.11-23-.38-.67h15.91l2.86,23.68Zm.52-.89h3.75l-2.64-21.89H456l12.47,21.89ZM455.28,47.49v0Z"/><path class="cls-8" d="M472.38,70.28,469.58,47.1l-.06-.5h13l-3.46,23.68Zm.79-.89h5.16l3.2-21.89h-11l2.64,21.89ZM470,47.49v0Z"/><path class="cls-8" d="M478.2,70.28,481.61,47l.06-.38h16L484.14,70.28Zm1-.89h4.39l12.47-21.89H482.44l-3.2,21.89Zm2.81-21.89v0Z"/><path class="cls-9" d="M467.5,69.39s1,10,2.4,11.31c1.66,1.57,10.75,1.37,12.34-.13s2.35-11.19,2.35-11.19Z"/><path class="cls-10" d="M498.72,36.17a20.88,20.88,0,0,0-2.88-7.53,22,22,0,0,0-3.06-3.85,23,23,0,0,0-5.86-4.26,23.66,23.66,0,0,0-5.09-1.89,24.36,24.36,0,0,0-13.79.63A23.49,23.49,0,0,0,463,21.74a22.62,22.62,0,0,0-5.49,5,21.86,21.86,0,0,0-1.31,1.86,20.81,20.81,0,0,0-3.18,11,14,14,0,0,0,.12,2.21A31.08,31.08,0,0,0,454.33,47,21.44,21.44,0,0,0,458,53.27a7.77,7.77,0,0,1,2.19-3,7.89,7.89,0,0,1,4.17-1.84,7.71,7.71,0,0,1,2.21.06,5.82,5.82,0,0,1,3.33,2.29c.23.3.35.5.35.5a6.37,6.37,0,0,1,5.34-2.79,6.78,6.78,0,0,1,5.92,2.87l.07-.14a5.29,5.29,0,0,1,4-2.73,8.12,8.12,0,0,1,1.49,0,8,8,0,0,1,4.33,1.61,7.59,7.59,0,0,1,2.49,3.24A21.43,21.43,0,0,0,497.66,47a20.66,20.66,0,0,0,1.06-10.87Z"/><path class="cls-8" d="M379.24,96.65l-13.11-23-.38-.67h15.91l2.86,23.68Zm.52-.89h3.75l-2.64-21.89H367.28l12.47,21.89ZM366.52,73.86v0Z"/><path class="cls-8" d="M383.61,96.65l-2.79-23.18-.06-.5h13l-3.46,23.68Zm.79-.89h5.16l3.2-21.89h-11l2.64,21.89Zm-3.14-21.89v0Z"/><path class="cls-8" d="M389.44,96.65l3.41-23.3.06-.38h16L395.38,96.65Zm1-.89h4.39l12.47-21.89H393.67l-3.2,21.89Zm2.81-21.89v0Z"/><path class="cls-11" d="M378.74,95.76s1,10,2.4,11.31c1.66,1.57,10.75,1.37,12.34-.13s2.35-11.19,2.35-11.19Z"/><path class="cls-12" d="M410,62.54A20.88,20.88,0,0,0,407.07,55,22,22,0,0,0,404,51.15a23,23,0,0,0-5.86-4.26A23.66,23.66,0,0,0,393.07,45a24.36,24.36,0,0,0-13.79.63,23.49,23.49,0,0,0-5.09,2.49,22.62,22.62,0,0,0-5.49,5A21.86,21.86,0,0,0,367.39,55a20.81,20.81,0,0,0-3.18,11,14,14,0,0,0,.12,2.21,31.08,31.08,0,0,0,1.23,5.16,21.44,21.44,0,0,0,3.69,6.24,7.77,7.77,0,0,1,2.19-3,7.89,7.89,0,0,1,4.17-1.84,7.71,7.71,0,0,1,2.21.06,5.82,5.82,0,0,1,3.33,2.29c.23.3.35.5.35.5a6.37,6.37,0,0,1,5.34-2.79,6.78,6.78,0,0,1,5.92,2.87l.07-.14a5.29,5.29,0,0,1,4-2.73,8.12,8.12,0,0,1,1.49,0,8,8,0,0,1,4.33,1.61,7.59,7.59,0,0,1,2.49,3.24,21.43,21.43,0,0,0,3.71-6.26A20.66,20.66,0,0,0,410,62.54Z"/><polygon class="cls-13" points="-1 80.84 -1 351.94 709.73 432.99 709.73 161.88 -1 80.84"/><polygon class="cls-14" points="-1 122.42 -1 381.99 709.73 463.04 709.73 203.46 -1 122.42"/><polygon class="cls-15" points="-1 346.8 -1 386.76 709.73 467.81 709.73 427.85 -1 346.8"/><g class="cls-16"><path class="cls-17" d="M547,356.37a40.46,40.46,0,0,0-15.78,3.18c-1.34-3.61-2.62-7.42-3.77-11.38h0l.22-6.9,4.86-.41,6.49,5.07h0l4.62,4.22a10.2,10.2,0,0,1-5.42.07c-.35-.08-.66-.11-1-.22a2.1,2.1,0,0,0-2.52,1.38,2,2,0,0,0,1.38,2.52,19.28,19.28,0,0,0,1.95.43,16.62,16.62,0,0,0,3,.32,11.19,11.19,0,0,0,8.48-3.53,4,4,0,0,0,.93-.1c2.1-.56,3.87-3.11,4.2-3.52.48-.61-1.47-1.15-3.32-1.51v-8.56a2,2,0,0,0-2.2-2l-2.82.24-9.27.78L523.62,326l-7.39-16.24a11.45,11.45,0,0,0,2-7.84,2,2,0,0,0,1.19-.65l1.18-1.24a16,16,0,0,0,1.67,1.69c7.24,4.41,16.2-2.53,19.76-6.86a20.81,20.81,0,0,0,2-2.84l.1.1.11.06a5,5,0,0,0,3.34.55,3,3,0,0,0,1.81-1.07l-1.13-1.08a2,2,0,0,0,.32-.34l-.64,0-.59-.57a5.74,5.74,0,0,0,2.75-.77,13.4,13.4,0,0,0,2.61-1.79L551.51,286l.35-.31-.49.18-2.09-2s-1-5.71-5.11-9c-6.43-5.19-12-3.24-12-3.24a8.87,8.87,0,0,0-2.14-2.91,7.58,7.58,0,0,1-.89,4.08,20,20,0,0,0-5.51,4.57,2.26,2.26,0,0,0-2,1.6c-.37.86-1.06,2.21-1.5,3.41-2.29,4.1-3.31,8.47-2.25,12.49l-1.64,1.72a11.42,11.42,0,0,0-15-3.28L452.9,321.43h0c-.27.15-.54.31-.8.48a11.3,11.3,0,0,0-3.77,14.53l-1.49-.25a1,1,0,0,0-1.09.6l-.47,1.14a1,1,0,0,0,.28,1.15l5.83,4.91a1,1,0,0,0,.45.22l6.76,1.31a1,1,0,0,0,.43,0l1.44-.35,3,4,5,17-4.4,3.75a40.59,40.59,0,1,0,1.64,52.16l4.25,2.62-.09.14-2.63-1.71a1.36,1.36,0,0,0-1.87.4l-.74,1.14a1.36,1.36,0,0,0,.4,1.87l7.26,4.7a1.36,1.36,0,0,0,1.87-.4l.74-1.14a1.36,1.36,0,0,0-.4-1.87l-2.63-1.71.12-.19,4.54,2.8a2.85,2.85,0,0,0,3,0l.05,0a3,3,0,0,0,.87-.85h0l.06-.1a3,3,0,0,0,.44-1.81,1.3,1.3,0,0,0-.08-.36,1.36,1.36,0,0,0-.43-.6l-2.77-2.25a8.75,8.75,0,0,1-2-2.37l2.46-3.73a11.85,11.85,0,0,0,13.48-18.93l1.16-1.41,10,4.48a2.85,2.85,0,0,0,3-.42l0,0a3,3,0,0,0,.71-.9,40.59,40.59,0,1,0,40.51-43Zm-40.58,40.31a1.4,1.4,0,0,0-.28-.23l-3-1.87a8.75,8.75,0,0,1-2.54-2.38l-2.09-2.93,26.23-31.85q.8,2.34,1.64,4.59A40.56,40.56,0,0,0,506.45,396.68Zm-68.76.06a3.87,3.87,0,0,0-.18-.67l25-21.32A36.11,36.11,0,0,1,470,394.22l-3.35,7.71Zm33.07-53.39,29.48,1.92-3.47,9.38-15.88,2.21ZM495.17,359l-6.5,17.58,1.56.58-2.41,6.2c-.52-1.81-1.77-1-1.77-1a6,6,0,0,0-1,.82l4.1-9.43a9.22,9.22,0,0,0-.06-5.92l-5.39-7.18ZM483,393.89a11.89,11.89,0,0,0-2,.18l-.29-1,.93-2.15a1.29,1.29,0,0,0,.58.55l6.59,3-.46.72A11.8,11.8,0,0,0,483,393.89Zm.68-4.12a5.66,5.66,0,0,1-.81-.45,5.62,5.62,0,0,0,.81.45l1.65.74,4.69,2.1h0Zm10.13-4.67a5,5,0,0,0-.69.32l2.47-6.33,1.88.7,8.24-22.27,15.52-2.15L496.76,385C498.13,380.86,495,382.83,493.77,385.1ZM543,340l4.06-.34v4.79l-2.83-2.35a3,3,0,0,0-.23-.22l-2.27-1.77Zm-73.34-6.93,41.57-19.31,6.7,14.71a3.09,3.09,0,0,0,1.15,1.86l8.79,6.86-1.94.16a2,2,0,0,0-1.8,1.55l-.36,2.13-.29,0-.07,2.11-1.09,6.52c.13.46.27.91.41,1.37l-15.43,2.14,3.21-8.67a4.39,4.39,0,0,0,1.39-2.92l0-.51a4.41,4.41,0,0,0-4.12-4.69l-38.41-2.5q.11-.45.18-.92ZM480,371.23l-3.45,7.94-5-16.93,1.56-.22ZM469.31,369,474,385l-.87,2a40.43,40.43,0,0,0-7.37-15Zm-35.49,64.27a36.3,36.3,0,1,1,27-60.59L435.74,394a3.88,3.88,0,0,0-1.92-.52,3.93,3.93,0,1,0,3.37,5.91l28.36,5.08L464.9,406l.85.37-1.68,3.47a2.23,2.23,0,0,1-.1-.31c-.28-1.89-1.62-1.28-1.62-1.28a6.31,6.31,0,0,0-1.46.94,15.31,15.31,0,0,0-3.46,4.78l.1.11-.1-.11c-.24.48-.44.93-.6,1.3a1.31,1.31,0,0,0,.52,1.63l4.7,2.89A36.23,36.23,0,0,1,433.83,433.26Zm29.53-15.2h0L459,415.38a5.6,5.6,0,0,1-.67-.48,5.62,5.62,0,0,0,.67.48l1.54.95Zm3.66,2.25h0l4.14,2.55h0Zm12,7.13a7.17,7.17,0,0,0,1.11.28A7.17,7.17,0,0,1,479,427.45Zm-1.46-.68-4.33-2.67h0ZM474.39,418,472,413.42a5.21,5.21,0,0,0,.59-.92c.11-.21.19-.4.27-.59a11.91,11.91,0,0,0,3.24,3.5Zm19.81-23.45h0l4.2,1.88,5.07,2.27ZM547,433.26a36.3,36.3,0,0,1-19.08-67.19,186.4,186.4,0,0,0,14.85,29.37,4.5,4.5,0,1,0,4.54-3,185.16,185.16,0,0,1-14.56-28.92A36.31,36.31,0,1,1,547,433.26Z"/><path class="cls-18" d="M433.41,393.54a3.83,3.83,0,0,1,.42,0h-.32S433.45,393.53,433.41,393.54Z"/><polygon class="cls-18" points="521.45 348.63 521.38 350.74 521.74 348.61 521.45 348.63"/></g><path class="cls-19" d="M481,411.68l-8.66,13.14-2.63-1.71a1.36,1.36,0,0,0-1.87.4l-.74,1.14a1.36,1.36,0,0,0,.4,1.87l7.26,4.7a1.36,1.36,0,0,0,1.87-.4l.74-1.14a1.36,1.36,0,0,0-.4-1.87l-2.64-1.71,8.59-13A2,2,0,0,1,481,411.68Z"/><rect class="cls-20" x="472.07" y="382.7" width="5.67" height="32.76" rx="2.16" ry="2.16" transform="translate(221.42 -167.09) rotate(25.84)"/><path id="_Rectangle_" data-name="&lt;Rectangle&gt;" class="cls-21" d="M472.12,323.62h3a3.15,3.15,0,0,1,3.15,3.15V375a4.67,4.67,0,0,1-4.67,4.67h0A4.67,4.67,0,0,1,469,375V326.77a3.15,3.15,0,0,1,3.15-3.15Z" transform="translate(-116.26 354.63) rotate(-36.88)"/><path id="_Rectangle_2" data-name="&lt;Rectangle&gt;" class="cls-21" d="M475.7,366H485a0,0,0,0,1,0,0V405a4.67,4.67,0,0,1-4.67,4.67h0A4.67,4.67,0,0,1,475.7,405V366A0,0,0,0,1,475.7,366Z" transform="translate(766.4 934.94) rotate(-156.52)"/><path id="_Path_" data-name="&lt;Path&gt;" class="cls-22" d="M459.9,414c-.24.48-.44.93-.6,1.3a1.31,1.31,0,0,0,.52,1.63L479,428.72a2.85,2.85,0,0,0,3,0l.05,0a3,3,0,0,0,.87-.85l-.28,0a7.2,7.2,0,0,1-2.69-1l-18.52-11.39a5.65,5.65,0,0,1-1.24-1Z"/><path class="cls-23" d="M483.45,425.9a1.3,1.3,0,0,0-.08-.36,1.37,1.37,0,0,0-.43-.6l-2.77-2.25A8.75,8.75,0,0,1,478,420l-3.51-6.58a5.2,5.2,0,0,0,.59-.92c2-4.12-1.37-2.55-2.92-.43a5.36,5.36,0,0,0-1,.32c-1.4.8-4.42-1-4.69-2.84s-1.63-1.28-1.63-1.28a6.33,6.33,0,0,0-1.46.94A15.32,15.32,0,0,0,459.9,414l.33.37a5.65,5.65,0,0,0,1.24,1l1.54.95,12.24,7.53,4.73,2.91a7.2,7.2,0,0,0,2.69,1l.28,0,.06-.1A3,3,0,0,0,483.45,425.9Z"/><polygon class="cls-24" points="525.85 343.16 526.2 341.03 525.91 341.05 525.85 343.16"/><path class="cls-24" d="M549.49,347.67c.07-.11.15-.23.2-.32v-7.72l-.19,0v8S549.49,347.65,549.49,347.67Z"/><path class="cls-25" d="M549.5,356.37A40.59,40.59,0,1,0,590.09,397,40.59,40.59,0,0,0,549.5,356.37Zm0,76.89a36.3,36.3,0,1,1,36.3-36.3A36.3,36.3,0,0,1,549.5,433.26Z"/><path class="cls-25" d="M436.31,356.37A40.59,40.59,0,1,0,476.9,397,40.59,40.59,0,0,0,436.31,356.37Zm0,76.89a36.3,36.3,0,1,1,36.3-36.3A36.3,36.3,0,0,1,436.31,433.26Z"/><path class="cls-26" d="M436,393.5s-.07,0-.1,0a3.86,3.86,0,0,1,.42,0Z"/><path class="cls-27" d="M484.79,407.78a2,2,0,0,1-.4,0,2,2,0,0,1-1.54-1.41l-21-70.92a2,2,0,0,1,3.89-1.15l7.12,24.06,55.39-7.69a2,2,0,0,1,1.85,3.3L486.36,407A2,2,0,0,1,484.79,407.78ZM474,362.25l11.62,39.27,38-46.16Z"/><path class="cls-26" d="M467.55,337.91h-.08l-7.61,0h-.17l-10.38-1.71a1,1,0,0,0-1.09.6l-.47,1.14a1,1,0,0,0,.28,1.15l5.83,4.91a1,1,0,0,0,.45.22l6.76,1.31a1,1,0,0,0,.43,0l11.13-2.69a1,1,0,0,1,.25,0l8.18.11a1,1,0,0,0,1-1.35l-.74-2"/><path class="cls-25" d="M553.1,335.93a2,2,0,0,0-1.54-.53l-2.82.24-20.37,1.71a2,2,0,0,0-1.8,1.55L526.2,341l-.36,2.13-1.09,6.52a1.54,1.54,0,0,0,.36.66c.42.44,1.07.4,1.88.6,1.1.26,2.64,0,2.9-1.11l.28-8.56L545.45,340l4.06-.34.19,0v7.72c0,.09-.13.21-.2.32-.83,1.28-3.27,3.77-8.77,2.55-.35-.08-.66-.11-1-.22a2.1,2.1,0,0,0-2.52,1.38,2,2,0,0,0,1.38,2.52,19.2,19.2,0,0,0,1.95.43,16.61,16.61,0,0,0,3,.32c5.91,0,9.15-3.65,10.14-6.05a2,2,0,0,0,.15-.78v-10.4A2,2,0,0,0,553.1,335.93Z"/><path class="cls-27" d="M547.28,398.51a182.32,182.32,0,0,1-22.53-48.82l5.2-1.51a179.81,179.81,0,0,0,21.78,47.24Z"/><path class="cls-27" d="M482.76,407.11l-.24,0-46.45-8.33a1.35,1.35,0,0,1-.64-2.36l36.76-31.29a1.35,1.35,0,1,1,1.75,2.06L439.36,396.6,483,404.42a1.35,1.35,0,0,1-.24,2.68Z"/><path class="cls-28" d="M485.44,393.89a11.87,11.87,0,1,0,11.87,11.87A11.87,11.87,0,0,0,485.44,393.89Z"/><path class="cls-19" d="M500.16,390.83l-7.26-4.7a1.36,1.36,0,0,0-1.87.4l-.73,1.14a1.36,1.36,0,0,0,.4,1.87l2.64,1.71-8.44,13.12h-.07a1.49,1.49,0,0,0-.88,1.36h0a1.5,1.5,0,0,0,1.49,1.48,1.41,1.41,0,0,0,.41-.08h0a1.48,1.48,0,0,0,1.08-1.41.52.52,0,0,0,0-.13l8.41-13.08,2.64,1.71a1.36,1.36,0,0,0,1.87-.4l.73-1.14A1.36,1.36,0,0,0,500.16,390.83Z"/><polygon class="cls-24" points="523.86 350.74 524.21 348.61 523.92 348.63 523.86 350.74"/><path class="cls-24" d="M511.13,292.23s-2.2.72-6.67,2.66Z"/><path class="cls-29" d="M523.08,300l.06,0Z"/><path id="_Path_2" data-name="&lt;Path&gt;" class="cls-20" d="M526.18,292.89l-.07-.07a2.79,2.79,0,0,1,0,4l-4.25,4.44c-1.1,1.15-2.3.68-3.45-.41l0,0c-1.15-1.1-1.7-2.31-.6-3.46l4.25-4.44A2.88,2.88,0,0,1,526.18,292.89Z"/><path id="_Path_3" data-name="&lt;Path&gt;" class="cls-30" d="M524.74,301.71c-6.91-5.93-5.76-14.12-1.07-21.18,4.94-7.43,14.22-8.62,19.38-3.71,5.88,5.58,7.11,11.14,1.44,18-3.56,4.33-12.52,11.27-19.76,6.86Z"/><path id="_Path_4" data-name="&lt;Path&gt;" class="cls-31" d="M531.58,272.81c-2.25,1.05-4.65,3.56-6.1,5.25a2.21,2.21,0,0,1,1.69,1,2.65,2.65,0,0,1,.17.26h0l.07.14.07.14.06.16,0,.12.06.2,0,.16,0,.17,0,.17c0,.06,0,.12,0,.17s0,.23,0,.35h0s0,.05,0,.08a.36.36,0,0,0,0,0s0,0,0,.05v.08l-2.79,2.92a1.81,1.81,0,0,0-.62,1.28,2.2,2.2,0,0,0,0,.28,2.89,2.89,0,0,0,.64,1.11,2.11,2.11,0,0,0,2.86.08l1-1a2.09,2.09,0,0,1,2.83-.18l.28.23c1.16-1.17,2-2.12,2.6-2.72s1.41-1,3.17.42l.05,0,.48.4,0,0c.29.25.61.54,1,.87l7.39,7.06.11.06a5,5,0,0,0,3.34.55,3,3,0,0,0,1.81-1.07l-2-2a5.74,5.74,0,0,0,2.75-.77,13.4,13.4,0,0,0,2.61-1.79l-3.39-3.24s-1-5.71-5.11-9c-6.43-5.19-12-3.24-12-3.24a8.87,8.87,0,0,0-2.14-2.91A7.59,7.59,0,0,1,531.58,272.81Z"/><path id="_Path_5" data-name="&lt;Path&gt;" class="cls-32" d="M537.43,282.75c.29.25.61.54,1,.87l7.39,7.06.11.06a5,5,0,0,0,3.34.55,3,3,0,0,0,1.81-1.07s-3.65.3-5-.57l-.1-.07C544.64,288.66,539.21,284.21,537.43,282.75Z"/><path id="_Path_6" data-name="&lt;Path&gt;" class="cls-32" d="M554.34,285.7s-4.18,1.74-6.76.72c-2.19-.86-10.13-8-10.13-8a18.17,18.17,0,0,0,1.84,2.85c.63.74,7.2,7.43,9.69,7A9.13,9.13,0,0,0,554.34,285.7Z"/><path id="_Path_7" data-name="&lt;Path&gt;" class="cls-30" d="M528.59,282.12a4.27,4.27,0,0,0,0-2.15c-.56-2.75-3.4-3.67-4.55-1-.8,1.87-3.19,6.13-.94,5.93A9.08,9.08,0,0,0,528.59,282.12Z"/><path id="_Path_8" data-name="&lt;Path&gt;" class="cls-20" d="M520.94,326h0a3.12,3.12,0,0,1,4.37-.58l21.13,16.49a3.12,3.12,0,0,1,.58,4.37h0a3.12,3.12,0,0,1-4.37.58l-21.13-16.49A3.12,3.12,0,0,1,520.94,326Z"/><path id="_Path_9" data-name="&lt;Path&gt;" class="cls-20" d="M541.51,345.94l4.67,4.27s4.89,1.29,6.69.81c2.1-.56,3.87-3.11,4.2-3.52.87-1.11-6.26-2-6.26-2l-4.83-4Z"/><circle id="_Path_10" data-name="&lt;Path&gt;" class="cls-21" cx="460.85" cy="331.3" r="11.3" transform="translate(-106.4 312.05) rotate(-33.77)"/><rect class="cls-20" x="493.51" y="359.21" width="5.67" height="32.76" rx="2.16" ry="2.16" transform="translate(170.11 -154.49) rotate(21.27)"/><path id="_Rectangle_3" data-name="&lt;Rectangle&gt;" class="cls-21" d="M484.86,311.5h3a3.15,3.15,0,0,1,3.15,3.15V362.9a4.67,4.67,0,0,1-4.67,4.67h0a4.67,4.67,0,0,1-4.67-4.67V314.65a3.15,3.15,0,0,1,3.15-3.15Z" transform="translate(116.03 802.87) rotate(-86.28)"/><path id="_Rectangle_4" data-name="&lt;Rectangle&gt;" class="cls-21" d="M498.44,335.79h9.33a0,0,0,0,1,0,0v39.06a4.67,4.67,0,0,1-4.67,4.67h0a4.67,4.67,0,0,1-4.67-4.67V335.79A0,0,0,0,1,498.44,335.79Z" transform="translate(850.89 867.64) rotate(-159.7)"/><path id="_Path_11" data-name="&lt;Path&gt;" class="cls-22" d="M484.38,388.58c-.18.51-.32,1-.43,1.37a1.31,1.31,0,0,0,.72,1.55l20.55,9.22a2.85,2.85,0,0,0,3-.42l0,0a3,3,0,0,0,.75-1h-.28a7.2,7.2,0,0,1-2.8-.63l-19.84-8.9a5.65,5.65,0,0,1-1.36-.86Z"/><path class="cls-23" d="M509.27,397.35a1.3,1.3,0,0,0-.12-.35,1.37,1.37,0,0,0-.5-.54l-3-1.87a8.75,8.75,0,0,1-2.54-2.38l-4.34-6.07a5.2,5.2,0,0,0,.46-1c1.49-4.35-1.69-2.35-3,0a5.36,5.36,0,0,0-.93.44c-1.28,1-4.5-.38-5-2.21s-1.78-1.06-1.78-1.06a6.33,6.33,0,0,0-1.32,1.12,15.32,15.32,0,0,0-2.82,5.18l.38.32a5.65,5.65,0,0,0,1.36.86l1.65.74,13.11,5.88,5.07,2.27a7.2,7.2,0,0,0,2.8.63H509l0-.11A3,3,0,0,0,509.27,397.35Z"/><path class="cls-13" d="M455.37,321.43l16.73,11.63,43-19.95a11.42,11.42,0,0,0,4.18-15.6h0a11.42,11.42,0,0,0-15.6-4.18Z"/><g id="_Group_" data-name="&lt;Group&gt;"><line id="_Path_12" data-name="&lt;Path&gt;" class="cls-31" x1="542.12" y1="295.11" x2="540.14" y2="292.92"/><path id="_Path_13" data-name="&lt;Path&gt;" class="cls-31" d="M541.83,295.5a.49.49,0,0,0,.66-.72l-2-2.19a.49.49,0,0,0-.73.66l2,2.19Z"/></g><g id="_Group_2" data-name="&lt;Group&gt;"><line id="_Path_14" data-name="&lt;Path&gt;" class="cls-31" x1="536.79" y1="289.57" x2="534.6" y2="287.59"/><path id="_Path_15" data-name="&lt;Path&gt;" class="cls-31" d="M537.18,289.27a.49.49,0,0,1-.72.66l-2.19-2a.49.49,0,1,1,.66-.73l2.19,2Z"/></g><circle id="_Path_16" data-name="&lt;Path&gt;" cx="533.76" cy="291.03" r="0.66" transform="translate(-49.46 462.67) rotate(-45)"/><circle id="_Path_17" data-name="&lt;Path&gt;" cx="538.62" cy="296.21" r="0.66" transform="translate(-51.7 467.62) rotate(-45)"/><polygon id="_Path_18" data-name="&lt;Path&gt;" class="cls-33" points="536.98 292.91 532.84 296.93 533.91 297.61 536.98 292.91"/><path id="_Path_19" data-name="&lt;Path&gt;" class="cls-34" d="M534.15,300.67a4.7,4.7,0,0,1-3.71-1.35h0a5,5,0,0,1-1.35-3.71"/><path id="_Path_20" data-name="&lt;Path&gt;" class="cls-20" d="M511.14,300.73h0a3.12,3.12,0,0,1,4.14,1.51l11.1,24.4a3.12,3.12,0,0,1-1.51,4.14h0a3.12,3.12,0,0,1-4.14-1.51l-11.1-24.4A3.12,3.12,0,0,1,511.14,300.73Z"/><path class="cls-35" d="M222.05,71.39C170.19,180.22,164.89,332,193.34,406.68c0,0,9.68,12.62,40.69-8.3,0,0-84.27-33.35-10.26-317.1Z"/><path class="cls-36" d="M231.1,72.69C224.88,46.08,202.39-7.46,123.57,17a3.83,3.83,0,0,0-.34,7.2c19.72,8.1,72.64,23.12,101.47,52.1C229.82,81.44,232.76,79.76,231.1,72.69Z"/><path class="cls-37" d="M225,72.5c-27.21,2.5-83.34,17.41-70,98.85a3.83,3.83,0,0,0,7.08,1.32c10.74-18.41,32.89-68.76,65.56-93.34C233.45,75,232.19,71.84,225,72.5Z"/><path class="cls-37" d="M223.8,68.3C202,51.87,150.38,25.2,105.56,94.49a3.83,3.83,0,0,0,4.36,5.74c20.32-6.42,70.57-28.82,111.27-25.07C228.42,75.84,229.6,72.67,223.8,68.3Z"/><path class="cls-37" d="M211,72.5c27.21,2.5,83.34,17.41,70,98.85a3.83,3.83,0,0,1-7.08,1.32c-10.74-18.41-32.89-68.76-65.56-93.34C202.47,75,203.72,71.84,211,72.5Z"/><path class="cls-37" d="M212.12,68.3C234,51.87,285.53,25.2,330.35,94.49a3.83,3.83,0,0,1-4.36,5.74c-20.32-6.42-70.57-28.82-111.27-25.07C207.49,75.84,206.31,72.67,212.12,68.3Z"/><path class="cls-38" d="M487.85,385.36c-17.9-2.55-71.94-7.29-71.94-7.29-58.13-34.64-75.82-36-99.72-37.15-15.25-.74-49.82-1.59-49.82-1.59-57.88-3.43-115.84,31.78-115.84,31.78-.35.21-.68.43-1,.66l-.2.15c-.31.23-.6.47-.87.71l-.11.11q-.38.36-.73.73l-.1.11c-.25.28-.47.56-.69.86l-.09.13a11.74,11.74,0,0,0-1.12,2l0,.07c-3.36,7.59.7,19.12,5.92,29.69l-3.56-.21c-1.67-.1-3,.41-3.15,2.07l2,17.89c-.1,1.66,1.19,2.72,2.86,2.82l15.68.93c7.07,8,14.37,6.9,14.37,6.9l17.3,1.08A37.64,37.64,0,0,0,259.23,449l177.34,10.52a37.63,37.63,0,0,0,62.74-3.09l14,.84c14.32.85,33.51-15.41,34.95-39.66C549.29,400.83,509.11,388.39,487.85,385.36Z"/><path class="cls-39" d="M177.81,404.72c.1-1.67-.09-1.5-1.75-1.6l-33.17-2c-1.67-.1-3,.41-3.15,2.07l2,17.89c-.1,1.66,1.19,2.72,2.86,2.82l30.16,1.79c1.67.1,1.92-1.25,2-2.91Z"/><path class="cls-40" d="M410.85,373.16s54,4.75,71.94,7.29c21.25,3,61.43,15.46,60.44,32.21-1.44,24.25-20.63,40.51-34.95,39.66-88.08-5.22-333.67-20.55-333.67-20.55s-10.38,1.57-18.38-12.59-26.57-43.54-10.77-53c0,0,58-35.21,115.84-31.78,0,0,34.57.85,49.82,1.59C335,337.17,352.72,338.51,410.85,373.16Z"/><ellipse class="cls-41" cx="515.39" cy="399.31" rx="3.79" ry="22.22" transform="translate(-46.12 730.65) rotate(-68.31)"/><path class="cls-42" d="M151.33,374.29a11.23,11.23,0,0,0-3.91-9.24c-1.26.71-2,1.14-2,1.14-6.3,3.76-7.12,10.7-5.35,18.58A11,11,0,0,0,151.33,374.29Z"/><path class="cls-43" d="M217.41,348c-1.66.74-6.07,6.69,4.73,11.62s22.91,11.31,52.31,13.05l96.75,5.74s22.12.68,39.61-4.48h0c-20.84-12.42-36.45-20.93-49-26.32C240.14,335.11,223.73,345.19,217.41,348Z"/><rect class="cls-40" x="238.62" y="352.37" width="36.98" height="6.04" transform="translate(-112.88 591) rotate(-86.61)"/><rect class="cls-40" x="356.52" y="321.61" width="6.04" height="78.48" transform="translate(-134.03 486.85) rotate(-59.42)"/><path class="cls-38" d="M291.9,388.83c-.1,1.66-1.48,2.18-3.15,2.08L273.67,390c-1.67-.1-3-.77-2.88-2.44h0c.1-1.66,1.48-2.18,3.15-2.08l15.08.89c1.67.1,3,.77,2.88,2.44Z"/><path class="cls-39" d="M291.95,388.07c-.1,1.66-1.48,2.18-3.15,2.08l-15.08-.89c-1.67-.1-3-.77-2.88-2.44h0c.1-1.66,1.48-2.18,3.15-2.08l15.08.89c1.67.1,3,.77,2.88,2.44Z"/><rect class="cls-44" x="339.5" y="350.48" width="8.3" height="189.45" transform="translate(-121.12 761.88) rotate(-86.61)"/><circle class="cls-39" cx="461.86" cy="432.33" r="37.63" transform="translate(2.94 867.78) rotate(-86.61)"/><circle class="cls-45" cx="461.86" cy="432.33" r="25.29" transform="translate(2.94 867.77) rotate(-86.61)"/><circle class="cls-39" cx="461.86" cy="432.33" r="6.13" transform="translate(2.94 867.78) rotate(-86.61)"/><circle class="cls-39" cx="226.65" cy="418.37" r="37.63" transform="translate(-204.41 619.85) rotate(-86.61)"/><circle class="cls-45" cx="226.65" cy="418.37" r="25.29" transform="translate(-204.41 619.85) rotate(-86.61)"/><circle class="cls-39" cx="226.65" cy="418.37" r="6.13" transform="translate(-204.41 619.86) rotate(-86.61)"/></svg>