<svg id="Layer_1" data-name="Layer 1" xmlns="http://www.w3.org/2000/svg" xmlns:xlink="http://www.w3.org/1999/xlink" viewBox="0 0 708.66 481.89"><defs><style>.cls-1,.cls-20,.cls-25,.cls-36,.cls-38,.cls-39{fill:none;}.cls-2{clip-path:url(#clip-path);}.cls-3{fill:#f0626e;}.cls-4{fill:#d35766;}.cls-5{fill:#648ec9;}.cls-6{fill:#597ca5;}.cls-7{fill:#ffdc83;}.cls-26,.cls-8{opacity:0.05;}.cls-10,.cls-26,.cls-9{fill:#191919;}.cls-10,.cls-21,.cls-24,.cls-27,.cls-28,.cls-29,.cls-30,.cls-31,.cls-32{fill-rule:evenodd;}.cls-11{fill:#efefef;}.cls-12{fill:#353560;}.cls-13{fill:#3f5aa8;}.cls-14{fill:#4d4e4e;}.cls-15{fill:#fff;}.cls-16{fill:#3c3c68;}.cls-17,.cls-21{fill:#f8ab8d;}.cls-18,.cls-24{fill:#dc846a;}.cls-19{fill:#405aa8;}.cls-20{stroke:#648ec9;stroke-miterlimit:10;stroke-width:1.97px;}.cls-22{fill:#8b6339;}.cls-23{fill:#754d24;}.cls-25,.cls-38{stroke:#dc846a;}.cls-25,.cls-36,.cls-38,.cls-39{stroke-linecap:round;stroke-linejoin:round;}.cls-25{stroke-width:1.31px;}.cls-27{fill:#9a724e;}.cls-28{fill:#cfa07a;}.cls-29{fill:#7c5736;}.cls-30{fill:#4b3421;}.cls-32{fill:#f1696a;}.cls-33{fill:#4c836a;}.cls-34{fill:#4c4c4c;}.cls-35{fill:#6d2a26;opacity:0.32;}.cls-36,.cls-39{stroke:#0e333e;}.cls-36,.cls-38{stroke-width:2.32px;}.cls-37{fill:#0e333e;}.cls-39{stroke-width:3.86px;}.cls-40{fill:#c3c6c9;}</style><clipPath id="clip-path"><rect class="cls-1" x="-0.44" y="-54.8" width="709.1" height="591.48"/></clipPath></defs><title>CS-L2-U2</title><g class="cls-2"><polygon class="cls-3" points="-177.99 -18.74 -226.93 311.62 368.84 399.88 328.63 56.31 -177.99 -18.74"/><rect class="cls-4" x="42.06" y="133.96" width="189.39" height="9.02"/><rect class="cls-4" x="42.06" y="225.65" width="189.39" height="9.02"/><path class="cls-4" d="M192.91,222a21.65,21.65,0,0,0,3.65-3.87,1.93,1.93,0,0,0,2.42,0A50.67,50.67,0,0,0,206.3,211a5.81,5.81,0,0,0,.89-5.33,4.19,4.19,0,0,0-3.4-2.55,3.76,3.76,0,0,0-3.24,1.46,18.41,18.41,0,0,0-.36-2.12c-1.88-.11-26.7-.31-28.87-.21-2.87,11.76,7,19.57,7,19.57Zm7.66-13.82a5.8,5.8,0,0,1,2-1.87,1.51,1.51,0,0,1,2.06,1.26c.24,1.52-1,2.81-3.43,5.23a8.84,8.84,0,0,1-2.41,1.64A18.43,18.43,0,0,0,200.58,208.13Z"/><path class="cls-4" d="M108.7,131.32l5.28.52c.33,0,.64-.49.71-1.16L120,76.15c.06-.67-.15-1.24-.47-1.27l-5.28-.51c-.33,0-.65.49-.71,1.16L108.22,130C108.16,130.72,108.37,131.29,108.7,131.32Z"/><path class="cls-4" d="M115.79,131.13l6.94.7c.43,0,.84-.58.93-1.39l6.65-65.81c.08-.81-.2-1.5-.63-1.55l-6.94-.7c-.43,0-.84.58-.93,1.39l-6.65,65.81C115.08,130.4,115.36,131.09,115.79,131.13Z"/><path class="cls-4" d="M131.84,131.83h11.59a1.38,1.38,0,0,0,1.3-1.44V65.69a1.38,1.38,0,0,0-1.3-1.44H131.84a1.38,1.38,0,0,0-1.3,1.44v64.71A1.38,1.38,0,0,0,131.84,131.83Z"/><path class="cls-4" d="M176,131.83h6.88a.82.82,0,0,0,.77-.85V92.58a.82.82,0,0,0-.77-.86H176a.82.82,0,0,0-.77.86V131A.81.81,0,0,0,176,131.83Z"/><path class="cls-4" d="M146.13,131.83h5.63c.35,0,.63-.59.63-1.32V71.41c0-.73-.28-1.32-.63-1.32h-5.63c-.35,0-.63.59-.63,1.32v59.1C145.5,131.24,145.78,131.83,146.13,131.83Z"/><path class="cls-4" d="M154.08,131.83h8c.49,0,.89-.61.89-1.37V68.8c0-.76-.4-1.37-.89-1.37h-8c-.49,0-.89.61-.89,1.37v61.66C153.19,131.22,153.59,131.83,154.08,131.83Z"/><path class="cls-4" d="M191.49,130.5c.14.79.48,1.38.75,1.33l4.35-.79c.27,0,.37-.72.23-1.51L185.25,65.87c-.14-.78-.48-1.38-.74-1.33l-4.35.79c-.27,0-.37.72-.23,1.51Z"/><path class="cls-4" d="M197.72,130.71c.12.65.36,1.16.54,1.13l2.89-.53c.18,0,.23-.59.11-1.24L191.62,77c-.12-.65-.36-1.16-.54-1.13l-2.89.53c-.18,0-.23.59-.11,1.24Z"/><path class="cls-4" d="M168.9,131.83h4.83c.3,0,.54-.49.54-1.09V81.64c0-.6-.24-1.09-.54-1.09H168.9c-.3,0-.54.49-.54,1.09v49.1C168.36,131.35,168.6,131.83,168.9,131.83Z"/><path class="cls-4" d="M164,131.83h3.19c.2,0,.36-.66.36-1.48V63.72c0-.82-.16-1.48-.36-1.48H164c-.2,0-.36.66-.36,1.48v66.63C163.6,131.17,163.76,131.83,164,131.83Z"/><path class="cls-4" d="M63.52,94.25H62.46v36.64H82.65V94.25h-.21l10.31-26h0c0-.1-.36-.36-.89-.57s-1-.3-1-.19,0,0,0,0h0L80.22,94.25H78.55l11.11-33c0-.09.06-1.76.09-3,0-.31,0-.52,0-.52h0c0-.5,0-.86,0-.86l-.51.69h0l-.1.14c-.75,1-1.94,2.64-2,2.74s0,0,0,0-8.42,24.94-11.4,33.81h-1l5-27.59.06-.31h0l.41-2.3-2-.36L77.78,66h0l-.05.31-5,28H70.22l-2-22.63h0l0,0c0-.11-.48-.16-1-.11s-1,.18-1,.3l0,0h0s1.39,15.51,2,22.44H66.26c-1-7.95-3.58-27.81-3.72-28.9h0v-.05h0a3.13,3.13,0,0,0-2.58.33h-.05S62.56,86.73,63.52,94.25ZM60.79,65.88h0c.36,2.77,2.75,21.33,3.65,28.37h0C63.5,87,61.14,68.64,60.79,65.88Z"/><path class="cls-4" d="M94.12,222.58c.37,0,.67-.63.67-1.41V157.86c0-.78-.3-1.41-.67-1.41h-6c-.37,0-.67.63-.67,1.41v63.31c0,.78.3,1.41.67,1.41Z"/><path class="cls-4" d="M101.9,222.8c.31,0,.57-.59.57-1.32V162.16c0-.73-.25-1.32-.57-1.32H96.83c-.31,0-.57.59-.57,1.32v59.32c0,.73.25,1.32.57,1.32Z"/><path class="cls-4" d="M115,222.58a1.16,1.16,0,0,0,1.09-1.21V167A1.16,1.16,0,0,0,115,165.8h-9.74a1.16,1.16,0,0,0-1.09,1.21v54.35a1.16,1.16,0,0,0,1.09,1.21Z"/><path class="cls-4" d="M128.88,222.58a1.23,1.23,0,0,0,1.16-1.29V163.36a1.23,1.23,0,0,0-1.16-1.29H118.51a1.23,1.23,0,0,0-1.16,1.29v57.93a1.23,1.23,0,0,0,1.16,1.29Z"/><path class="cls-4" d="M73,222.57c.31.08.69-.38.84-1L86.3,169.4c.15-.64,0-1.22-.29-1.3L81,166.9c-.31-.08-.69.39-.84,1L67.69,220.07c-.15.64,0,1.22.29,1.3Z"/><path class="cls-4" d="M143.34,222.57,151.6,221c.51-.09.81-.79.67-1.56l-11.42-62.27c-.14-.77-.67-1.31-1.18-1.22l-8.26,1.52c-.51.09-.81.79-.67,1.56l11.43,62.27C142.3,222.12,142.83,222.66,143.34,222.57Z"/><polygon class="cls-5" points="1002.73 156.41 328.66 56.55 368.87 400.12 953.78 486.77 1002.73 156.41"/><polygon class="cls-6" points="633.92 249.62 683.74 163.33 733.56 249.62 633.92 249.62"/><polygon class="cls-6" points="612.22 315.66 683.74 191.79 755.25 315.66 612.22 315.66"/><polygon class="cls-6" points="597.27 375.86 683.74 226.09 770.21 375.86 597.27 375.86"/><path class="cls-7" d="M598,309.22A101.07,101.07,0,0,0,496.9,410.29H699A101.07,101.07,0,0,0,598,309.22Z"/><path class="cls-7" d="M501.12,344a66.28,66.28,0,0,0-66.28,66.28H567.4A66.28,66.28,0,0,0,501.12,344Z"/><path class="cls-7" d="M693.49,353.78A56.51,56.51,0,0,0,637,410.29H750A56.51,56.51,0,0,0,693.49,353.78Z"/></g><g class="cls-8"><path id="_Path_" data-name="&lt;Path&gt;" class="cls-9" d="M500.81,341.29h0c-1.71,4.41-6.17,6.79-10,5.31L442,327.7c-3.8-1.47-5.5-6.24-3.79-10.65h0c1.71-4.41,6.17-6.79,10-5.31l1.27.49L497,330.64C500.81,332.11,502.51,336.88,500.81,341.29Z"/><path id="_Path_2" data-name="&lt;Path&gt;" class="cls-9" d="M515.49,346.81l-.71,1.73a10.11,10.11,0,0,1-13.19,5.51L452.5,333.87a.11.11,0,0,1-.06-.15l8.31-20.22a.11.11,0,0,1,.15-.06L510,333.62A10.11,10.11,0,0,1,515.49,346.81Z"/><path id="_Rectangle_" data-name="&lt;Rectangle&gt;" class="cls-9" d="M526.93,257.5h0a11,11,0,0,1,11,11V349.8a10.09,10.09,0,0,1-10.09,10.09H526a10.09,10.09,0,0,1-10.09-10.09V268.54A11,11,0,0,1,526.93,257.5Z" transform="translate(802.75 853.54) rotate(-147.21)"/><g id="_Group_" data-name="&lt;Group&gt;"><path id="_Path_3" data-name="&lt;Path&gt;" class="cls-9" d="M442.57,326.29c-1.89-2-4.22,1.69-4.67,2.69-.83,1.81,2.46,3.95,2.46,3.95C448.45,338.45,446.53,330.21,442.57,326.29Z"/><path id="_Path_4" data-name="&lt;Path&gt;" class="cls-9" d="M444.68,305.74c-3-2.71-7-.87-7-.87l-22.16,26.21,1,5.6s-4.29,4.89-6.67,7.89-1.82,4.59-1.82,4.59a3.5,3.5,0,0,0,1.51-.85l6.2-5.82a22.81,22.81,0,0,1,6.89-4.47l17.6-7.27a4.81,4.81,0,0,0,2-2.37c.45-1,.64-1.93.21-4.27-1.09-3.34,4.16-9.82,8.4-10.06s3.55-3.42,3.55-3.42a12.75,12.75,0,0,0-1.37-3.5C451.14,309.5,447.7,308.44,444.68,305.74Z"/><path id="_Path_5" data-name="&lt;Path&gt;" class="cls-9" d="M444.21,298.29c-.94-.65-1.83-1.2-2.55-1.63a3,3,0,0,0-3.8.84l-34.74,41.09a6.92,6.92,0,0,0-1.35,6.88l0,.12a5.7,5.7,0,0,0,1.45,2.14l.22-.62a19.18,19.18,0,0,1,3.41-5.9l33.53-39.66a15.15,15.15,0,0,1,2.83-2.59Z"/><path id="_Path_6" data-name="&lt;Path&gt;" class="cls-9" d="M444.21,298.29l-1,.68a15.15,15.15,0,0,0-2.83,2.59l-2.79,3.31s4-1.83,7,.87,6.46,3.76,8.33,1.38C450.93,303.41,447.21,300.34,444.21,298.29Z"/><path id="_Path_7" data-name="&lt;Path&gt;" class="cls-9" d="M415.47,331.08l-8.57,10.14a19.18,19.18,0,0,0-3.41,5.9l-.22.62.18.16a5.83,5.83,0,0,0,3.74,1.36,2.92,2.92,0,0,0,.82-.11s-.55-1.59,1.82-4.59,6.67-7.89,6.67-7.89Z"/><path id="_Path_8" data-name="&lt;Path&gt;" class="cls-9" d="M432.51,326.36a2,2,0,0,0-.34.59,8,8,0,0,0,1.76,8.07,1.62,1.62,0,0,0,2.31-.15,1.71,1.71,0,0,0,.14-2.35s-2.08-2.21-1.15-4.77a1.49,1.49,0,0,0-.94-2A1.77,1.77,0,0,0,432.51,326.36Z"/><path id="_Path_9" data-name="&lt;Path&gt;" class="cls-9" d="M426.34,329.31a2,2,0,0,0-.34.59,8,8,0,0,0,1.76,8.07,1.62,1.62,0,0,0,2.31-.15,1.71,1.71,0,0,0,.14-2.35s-2.08-2.21-1.15-4.77a1.49,1.49,0,0,0-.94-2A1.77,1.77,0,0,0,426.34,329.31Z"/></g><path id="_Path_10" data-name="&lt;Path&gt;" class="cls-9" d="M581.24,359.76h0a8.56,8.56,0,0,1,8.56,8.56v60.64a8.56,8.56,0,0,1-8.56,8.56h0a8.56,8.56,0,0,1-8.56-8.56V368.31A8.56,8.56,0,0,1,581.24,359.76Z"/><path id="_Rectangle_2" data-name="&lt;Rectangle&gt;" class="cls-9" d="M571.53,323.39H593a.32.32,0,0,1,.32.32v85.78a11,11,0,0,1-11,11h0a11,11,0,0,1-11-11V323.72A.32.32,0,0,1,571.53,323.39Z" transform="translate(1164.51 743.93) rotate(180)"/><rect id="_Rectangle_3" data-name="&lt;Rectangle&gt;" class="cls-9" x="544.38" y="250.38" width="22.09" height="102.39" rx="11.05" ry="11.05" transform="translate(1169.98 154.07) rotate(138)"/><g id="_Group_2" data-name="&lt;Group&gt;"><path id="_Path_11" data-name="&lt;Path&gt;" class="cls-9" d="M589.87,423.06c-.28,2.71,4,2.13,5.07,1.83,1.92-.54,1.43-4.43,1.43-4.43C595.36,410.71,590.31,417.5,589.87,423.06Z"/><path id="_Path_12" data-name="&lt;Path&gt;" class="cls-9" d="M572.81,434.71c-.11,4.06,3.88,5.95,3.88,5.95H611l3.61-4.4s6.51.12,10.33,0,4.68-1.58,4.68-1.58a3.5,3.5,0,0,0-1.62-.61l-8.45-1a22.81,22.81,0,0,1-7.86-2.38L594.79,422a4.81,4.81,0,0,0-3.1,0c-1.05.3-1.88.76-3.4,2.6-1.84,3-10.19,3.17-13.11.09s-4.91-.5-4.91-.5a12.75,12.75,0,0,0-1.79,3.31C571.52,427.35,572.93,430.66,572.81,434.71Z"/><path id="_Path_13" data-name="&lt;Path&gt;" class="cls-9" d="M567.43,439.88c.11,1.14.27,2.17.41,3a3,3,0,0,0,3.09,2.36h53.81a6.92,6.92,0,0,0,6.13-3.41l.06-.12a5.7,5.7,0,0,0,.7-2.49l-.61.23a19.18,19.18,0,0,1-6.71,1.21H572.37a15.15,15.15,0,0,1-3.8-.49Z"/><path id="_Path_14" data-name="&lt;Path&gt;" class="cls-9" d="M567.43,439.88l1.14.3a15.15,15.15,0,0,0,3.8.49h4.33s-4-1.89-3.88-5.95-1.3-7.36-4.32-7.25C567,431.45,567.06,436.27,567.43,439.88Z"/><path id="_Path_15" data-name="&lt;Path&gt;" class="cls-9" d="M611,440.66H624.3a19.18,19.18,0,0,0,6.71-1.21l.61-.23c0-.08,0-.17,0-.25a5.83,5.83,0,0,0-1.38-3.73,2.92,2.92,0,0,0-.61-.56s-.86,1.45-4.68,1.58-10.33,0-10.33,0Z"/><path id="_Path_16" data-name="&lt;Path&gt;" class="cls-9" d="M596.42,430.69a2,2,0,0,0,.68-.12,8,8,0,0,0,5-6.56,1.62,1.62,0,0,0-1.61-1.66,1.71,1.71,0,0,0-1.88,1.41c0,.07-.35,3-2.9,4a1.49,1.49,0,0,0-.94,2A1.77,1.77,0,0,0,596.42,430.69Z"/><path id="_Path_17" data-name="&lt;Path&gt;" class="cls-9" d="M602.66,433.5a2,2,0,0,0,.68-.12,8,8,0,0,0,5-6.56,1.62,1.62,0,0,0-1.61-1.66,1.71,1.71,0,0,0-1.88,1.41c0,.07-.35,3-2.9,4a1.49,1.49,0,0,0-.94,2A1.77,1.77,0,0,0,602.66,433.5Z"/></g><path id="_Path_18" data-name="&lt;Path&gt;" class="cls-9" d="M532.18,206.69h0a6.85,6.85,0,0,1,5.24-8.16l57.69-12a6.85,6.85,0,0,1,8.16,5.24h0a6.85,6.85,0,0,1-5.24,8.16l-57.69,12A6.85,6.85,0,0,1,532.18,206.69Z"/><path id="_Path_19" data-name="&lt;Path&gt;" class="cls-9" d="M594.78,186.68s7.72-5,10.63-7.74c4.84,2.72.69,9.26.69,9.26Z"/><path id="_Path_20" data-name="&lt;Path&gt;" class="cls-9" d="M594.91,200.57l13.8-1.77s8.24-6.77,10-10.48c2-4.31,1.17-10.49.93-11.63-.64-3-12.21,7.7-12.21,7.7l-13.6,2.4Z"/><path id="_Path_21" data-name="&lt;Path&gt;" class="cls-9" d="M538.34,162.47h0a6.85,6.85,0,0,1,7.38,6.29l4.11,58.78a6.85,6.85,0,0,1-6.29,7.38h0a6.85,6.85,0,0,1-7.38-6.29l-4.11-58.78A6.85,6.85,0,0,1,538.34,162.47Z"/><g id="_Clip_Group_" data-name="&lt;Clip Group&gt;"><path id="_Clipping_Path_" data-name="&lt;Clipping Path&gt;" class="cls-9" d="M533,210.67l17.18-1.23-2.88-42.9a8.64,8.64,0,0,0-9.2-8h0a8.64,8.64,0,0,0-8,9.2Z"/></g><circle id="_Path_22" data-name="&lt;Path&gt;" class="cls-9" cx="546.03" cy="167.16" r="15.71" transform="translate(-14.7 59.13) rotate(-6.12)"/><line id="_Path_23" data-name="&lt;Path&gt;" class="cls-9" x1="532.63" y1="204.59" x2="549.82" y2="203.54"/><path id="_Path_24" data-name="&lt;Path&gt;" class="cls-9" d="M518.53,252l44.71,2-1,18.49c-.25,5.46-3.88,9.74-8.13,9.55l-29.35-1.32c-4.24-.19-7.48-4.78-7.24-10.24Z"/><path id="_Path_25" data-name="&lt;Path&gt;" class="cls-9" d="M538.69,141.8l14.26.53a16,16,0,0,1,15.38,16.56L564,256.41l-45.69-1.69,4.39-98A15.47,15.47,0,0,1,538.69,141.8Z"/><path id="_Path_26" data-name="&lt;Path&gt;" class="cls-9" d="M536.25,153.12h0a6.85,6.85,0,0,1-2.16,9.45L483.9,193.44a6.85,6.85,0,0,1-9.45-2.16h0a6.85,6.85,0,0,1,2.16-9.45L526.8,151A6.85,6.85,0,0,1,536.25,153.12Z"/><g id="_Clip_Group_2" data-name="&lt;Clip Group&gt;"><path id="_Clipping_Path_2" data-name="&lt;Clipping Path&gt;" class="cls-9" d="M491.07,170.75l9,14.66L536.8,163a8.64,8.64,0,0,0,2.81-11.85h0a8.64,8.64,0,0,0-11.85-2.81Z"/></g><path id="_Path_27" data-name="&lt;Path&gt;" class="cls-9" d="M476.66,183.39h0A6.85,6.85,0,0,1,486,186l28.56,51.53a6.85,6.85,0,0,1-2.58,9.34h0a6.85,6.85,0,0,1-9.34-2.58l-28.56-51.53A6.85,6.85,0,0,1,476.66,183.39Z"/><path id="_Path_28" data-name="&lt;Path&gt;" class="cls-9" d="M514.33,237.25s7.1,5.88,10.54,7.86c-1.16,5.43-8.64,3.41-8.64,3.41Z"/><path id="_Path_29" data-name="&lt;Path&gt;" class="cls-9" d="M501.1,241.49l5.78,12.65s8.91,5.86,13,6.44c4.72.68,10.37-2,11.38-2.56,2.71-1.51-11-9.37-11-9.37l-6.32-12.28Z"/><path id="_Path_30" data-name="&lt;Path&gt;" class="cls-9" d="M544.57,123.44h-.19a5.45,5.45,0,0,1,5.41,5.61v12c0,3.1-2.32,4.06-5.41,4.06h.1c-3.1,0-5.51-1-5.51-4.06V129A5.61,5.61,0,0,1,544.57,123.44Z"/><path id="_Path_31" data-name="&lt;Path&gt;" class="cls-10" d="M554.42,137.81c-17.73,1-27.15-12.14-30-28.41-3.05-17.14,8.42-31.31,22.32-31.36,15.81-.05,25,6.11,26.34,23.48.82,10.9-2.46,32.75-18.61,36.3Z"/><path id="_Path_32" data-name="&lt;Path&gt;" class="cls-9" d="M522.06,87c-1.75,4.51-1.76,11.3-1.53,15.61a4.32,4.32,0,0,1,3.69-.92,5.16,5.16,0,0,1,.59.14h0l.29.1.29.11.3.14.21.11.35.19.28.17.28.19.26.2.26.22c.17.15.34.31.5.48,0,0,0,0,0,0l.1.12.05.07.06.08,0,0,0,0v0a.21.21,0,0,1,0,0V112a3.53,3.53,0,0,0,.84,2.64,4.29,4.29,0,0,0,.36.4,5.63,5.63,0,0,0,2.4.7,4.11,4.11,0,0,0,4.13-3.74v-2.82a4.07,4.07,0,0,1,3.74-4.06l.71-.05c.05-3.21,0-5.75,0-7.33,0-2,.69-3.25,5-3.69h.13c.38,0,.78-.07,1.22-.09h.09c.75,0,1.59-.06,2.52-.06h19.93l.23-.06a9.84,9.84,0,0,0,5.45-3.73,5.93,5.93,0,0,0,1.1-3.95h-5.52a11.19,11.19,0,0,0,2.84-4.78,26.13,26.13,0,0,0,1.26-6h-9.15s-9.16-6.66-19.34-5.8c-16,1.35-21.35,11.66-21.35,11.66A17.3,17.3,0,0,0,517.8,80C519.89,82.42,521.11,83.49,522.06,87Z"/><path id="_Path_33" data-name="&lt;Path&gt;" class="cls-9" d="M546.76,94c.75,0,1.59-.06,2.52-.06h19.93l.23-.06a9.84,9.84,0,0,0,5.45-3.73,5.93,5.93,0,0,0,1.1-3.95s-4.75,5.35-7.78,5.89l-.24,0C564.88,92.61,551.25,93.65,546.76,94Z"/><g id="_Group_3" data-name="&lt;Group&gt;"><line id="_Path_34" data-name="&lt;Path&gt;" class="cls-9" x1="566.48" y1="103.46" x2="560.2" y2="103.14"/><path id="_Path_35" data-name="&lt;Path&gt;" class="cls-9" d="M566.63,104.5a1,1,0,0,0-.09-2.09l-6.29-.32a1,1,0,0,0-.11,2.1l6.29.32Z"/></g><g id="_Group_4" data-name="&lt;Group&gt;"><line id="_Path_36" data-name="&lt;Path&gt;" class="cls-9" x1="550.06" y1="103.14" x2="543.77" y2="103.46"/><path id="_Path_37" data-name="&lt;Path&gt;" class="cls-9" d="M550.21,102.1a1,1,0,0,1-.09,2.09l-6.29.32a1,1,0,1,1-.11-2.1l6.29-.32Z"/></g><circle id="_Path_38" data-name="&lt;Path&gt;" class="cls-9" cx="547.7" cy="109.92" r="1.42"/><circle id="_Path_39" data-name="&lt;Path&gt;" class="cls-9" cx="562.85" cy="110.41" r="1.42"/><path id="_Path_40" data-name="&lt;Path&gt;" class="cls-9" d="M574.57,75.37S571,83.44,566,85.49c-4.25,1.74-25,2.41-25,2.41a35.44,35.44,0,0,0,6.44,1.54c1.89.2,20.16.77,23-3.24A17.81,17.81,0,0,0,574.57,75.37Z"/><g id="_Group_5" data-name="&lt;Group&gt;"><path id="_Path_41" data-name="&lt;Path&gt;" class="cls-10" d="M528.79,104.68a8.33,8.33,0,0,0-2.9-3c-4.5-3.12-9.73-.59-7.73,4.75,1.39,3.73,3.77,12.95,6.68,9.63A17.7,17.7,0,0,0,528.79,104.68Z"/><polygon id="_Path_42" data-name="&lt;Path&gt;" class="cls-10" points="525.33 105.22 519.43 104.22 523.88 112.32 522.38 105.65 525.33 105.22"/></g><polygon id="_Path_43" data-name="&lt;Path&gt;" class="cls-10" points="555.4 107.9 555.21 120.23 557.86 119.63 555.4 107.9"/><path id="_Path_44" data-name="&lt;Path&gt;" class="cls-9" d="M562.85,123.89a10,10,0,0,1-7.64,3.55h0a10.77,10.77,0,0,1-7.64-3.55"/><rect class="cls-9" x="494.18" y="170.65" width="18.02" height="6.02" transform="matrix(0.55, 0.84, -0.84, 0.55, 372.78, -342.44)"/></g><path id="_Path_45" data-name="&lt;Path&gt;" class="cls-11" d="M496.81,340.29h0c-1.71,4.41-6.17,6.79-10,5.31L438,326.7c-3.8-1.47-5.5-6.24-3.79-10.65h0c1.71-4.41,6.17-6.79,10-5.31l1.27.49L493,329.64C496.81,331.11,498.51,335.88,496.81,340.29Z"/><path id="_Path_46" data-name="&lt;Path&gt;" class="cls-12" d="M511.49,345.81l-.71,1.73a10.11,10.11,0,0,1-13.19,5.51L448.5,332.87a.11.11,0,0,1-.06-.15l8.31-20.22a.11.11,0,0,1,.15-.06L506,332.62A10.11,10.11,0,0,1,511.49,345.81Z"/><path id="_Rectangle_4" data-name="&lt;Rectangle&gt;" class="cls-12" d="M522.93,256.5h0a11,11,0,0,1,11,11V348.8a10.09,10.09,0,0,1-10.09,10.09H522a10.09,10.09,0,0,1-10.09-10.09V267.54A11,11,0,0,1,522.93,256.5Z" transform="translate(795.93 849.53) rotate(-147.21)"/><g id="_Group_6" data-name="&lt;Group&gt;"><path id="_Path_47" data-name="&lt;Path&gt;" class="cls-13" d="M438.57,325.29c-1.89-2-4.22,1.69-4.67,2.69-.83,1.81,2.46,3.95,2.46,3.95C444.45,337.45,442.53,329.21,438.57,325.29Z"/><path id="_Path_48" data-name="&lt;Path&gt;" class="cls-13" d="M440.68,304.74c-3-2.71-7-.87-7-.87l-22.16,26.21,1,5.6s-4.29,4.89-6.67,7.89-1.82,4.59-1.82,4.59a3.5,3.5,0,0,0,1.51-.85l6.2-5.82a22.81,22.81,0,0,1,6.89-4.47l17.6-7.27a4.81,4.81,0,0,0,2-2.37c.45-1,.64-1.93.21-4.27-1.09-3.34,4.16-9.82,8.4-10.06s3.55-3.42,3.55-3.42a12.75,12.75,0,0,0-1.37-3.5C447.14,308.5,443.7,307.44,440.68,304.74Z"/><path id="_Path_49" data-name="&lt;Path&gt;" class="cls-14" d="M440.21,297.29c-.94-.65-1.83-1.2-2.55-1.63a3,3,0,0,0-3.8.84l-34.74,41.09a6.92,6.92,0,0,0-1.35,6.88l0,.12a5.7,5.7,0,0,0,1.45,2.14l.22-.62a19.18,19.18,0,0,1,3.41-5.9l33.53-39.66a15.15,15.15,0,0,1,2.83-2.59Z"/><path id="_Path_50" data-name="&lt;Path&gt;" class="cls-13" d="M440.21,297.29l-1,.68a15.15,15.15,0,0,0-2.83,2.59l-2.79,3.31s4-1.83,7,.87,6.46,3.76,8.33,1.38C446.93,302.41,443.21,299.34,440.21,297.29Z"/><path id="_Path_51" data-name="&lt;Path&gt;" class="cls-13" d="M411.47,330.08l-8.57,10.14a19.18,19.18,0,0,0-3.41,5.9l-.22.62.18.16a5.83,5.83,0,0,0,3.74,1.36,2.92,2.92,0,0,0,.82-.11s-.55-1.59,1.82-4.59,6.67-7.89,6.67-7.89Z"/><path id="_Path_52" data-name="&lt;Path&gt;" class="cls-15" d="M428.51,325.36a2,2,0,0,0-.34.59,8,8,0,0,0,1.76,8.07,1.62,1.62,0,0,0,2.31-.15,1.71,1.71,0,0,0,.14-2.35s-2.08-2.21-1.15-4.77a1.49,1.49,0,0,0-.94-2A1.77,1.77,0,0,0,428.51,325.36Z"/><path id="_Path_53" data-name="&lt;Path&gt;" class="cls-15" d="M422.34,328.31a2,2,0,0,0-.34.59,8,8,0,0,0,1.76,8.07,1.62,1.62,0,0,0,2.31-.15,1.71,1.71,0,0,0,.14-2.35s-2.08-2.21-1.15-4.77a1.49,1.49,0,0,0-.94-2A1.77,1.77,0,0,0,422.34,328.31Z"/></g><path id="_Path_54" data-name="&lt;Path&gt;" class="cls-11" d="M577.24,358.76h0a8.56,8.56,0,0,1,8.56,8.56v60.64a8.56,8.56,0,0,1-8.56,8.56h0a8.56,8.56,0,0,1-8.56-8.56V367.31A8.56,8.56,0,0,1,577.24,358.76Z"/><path id="_Rectangle_5" data-name="&lt;Rectangle&gt;" class="cls-16" d="M567.53,322.39H589a.32.32,0,0,1,.32.32v85.78a11,11,0,0,1-11,11h0a11,11,0,0,1-11-11V322.72a.32.32,0,0,1,.32-.32Z" transform="translate(1156.51 741.93) rotate(180)"/><rect id="_Rectangle_6" data-name="&lt;Rectangle&gt;" class="cls-16" x="540.38" y="249.38" width="22.09" height="102.39" rx="11.05" ry="11.05" transform="translate(1162.34 155) rotate(138)"/><g id="_Group_7" data-name="&lt;Group&gt;"><path id="_Path_55" data-name="&lt;Path&gt;" class="cls-13" d="M585.87,422.06c-.28,2.71,4,2.13,5.07,1.83,1.92-.54,1.43-4.43,1.43-4.43C591.36,409.71,586.31,416.5,585.87,422.06Z"/><path id="_Path_56" data-name="&lt;Path&gt;" class="cls-13" d="M568.81,433.71c-.11,4.06,3.88,5.95,3.88,5.95H607l3.61-4.4s6.51.12,10.33,0,4.68-1.58,4.68-1.58a3.5,3.5,0,0,0-1.62-.61l-8.45-1a22.81,22.81,0,0,1-7.86-2.38L590.79,421a4.81,4.81,0,0,0-3.1,0c-1.05.3-1.88.76-3.4,2.6-1.84,3-10.19,3.17-13.11.09s-4.91-.5-4.91-.5a12.75,12.75,0,0,0-1.79,3.31C567.52,426.35,568.93,429.66,568.81,433.71Z"/><path id="_Path_57" data-name="&lt;Path&gt;" class="cls-14" d="M563.43,438.88c.11,1.14.27,2.17.41,3a3,3,0,0,0,3.09,2.36h53.81a6.92,6.92,0,0,0,6.13-3.41l.06-.12a5.7,5.7,0,0,0,.7-2.49l-.61.23a19.18,19.18,0,0,1-6.71,1.21H568.37a15.15,15.15,0,0,1-3.8-.49Z"/><path id="_Path_58" data-name="&lt;Path&gt;" class="cls-13" d="M563.43,438.88l1.14.3a15.15,15.15,0,0,0,3.8.49h4.33s-4-1.89-3.88-5.95-1.3-7.36-4.32-7.25C563,430.45,563.06,435.27,563.43,438.88Z"/><path id="_Path_59" data-name="&lt;Path&gt;" class="cls-13" d="M607,439.66H620.3a19.18,19.18,0,0,0,6.71-1.21l.61-.23c0-.08,0-.17,0-.25a5.83,5.83,0,0,0-1.38-3.73,2.92,2.92,0,0,0-.61-.56s-.86,1.45-4.68,1.58-10.33,0-10.33,0Z"/><path id="_Path_60" data-name="&lt;Path&gt;" class="cls-15" d="M592.42,429.69a2,2,0,0,0,.68-.12,8,8,0,0,0,5-6.56,1.62,1.62,0,0,0-1.61-1.66,1.71,1.71,0,0,0-1.88,1.41c0,.07-.35,3-2.9,4a1.49,1.49,0,0,0-.94,2A1.77,1.77,0,0,0,592.42,429.69Z"/><path id="_Path_61" data-name="&lt;Path&gt;" class="cls-15" d="M598.66,432.5a2,2,0,0,0,.68-.12,8,8,0,0,0,5-6.56,1.62,1.62,0,0,0-1.61-1.66,1.71,1.71,0,0,0-1.88,1.41c0,.07-.35,3-2.9,4a1.49,1.49,0,0,0-.94,2A1.77,1.77,0,0,0,598.66,432.5Z"/></g><path id="_Path_62" data-name="&lt;Path&gt;" class="cls-17" d="M528.18,205.69h0a6.85,6.85,0,0,1,5.24-8.16l57.69-12a6.85,6.85,0,0,1,8.16,5.24h0a6.85,6.85,0,0,1-5.24,8.16l-57.69,12A6.85,6.85,0,0,1,528.18,205.69Z"/><path id="_Path_63" data-name="&lt;Path&gt;" class="cls-18" d="M590.78,185.68s7.72-5,10.63-7.74c4.84,2.72.69,9.26.69,9.26Z"/><path id="_Path_64" data-name="&lt;Path&gt;" class="cls-17" d="M590.91,199.57l13.8-1.77s8.24-6.77,10-10.48c2-4.31,1.17-10.49.93-11.63-.64-3-12.21,7.7-12.21,7.7l-13.6,2.4Z"/><path id="_Path_65" data-name="&lt;Path&gt;" class="cls-17" d="M534.34,161.47h0a6.85,6.85,0,0,1,7.38,6.29l4.11,58.78a6.85,6.85,0,0,1-6.29,7.38h0a6.85,6.85,0,0,1-7.38-6.29l-4.11-58.78A6.85,6.85,0,0,1,534.34,161.47Z"/><g id="_Clip_Group_3" data-name="&lt;Clip Group&gt;"><path id="_Clipping_Path_3" data-name="&lt;Clipping Path&gt;" class="cls-19" d="M529,209.67l17.18-1.23-2.88-42.9a8.64,8.64,0,0,0-9.2-8h0a8.64,8.64,0,0,0-8,9.2Z"/></g><circle id="_Path_66" data-name="&lt;Path&gt;" class="cls-19" cx="542.03" cy="166.16" r="15.71" transform="translate(-14.62 58.7) rotate(-6.12)"/><line id="_Path_67" data-name="&lt;Path&gt;" class="cls-20" x1="528.63" y1="203.59" x2="545.82" y2="202.54"/><path id="_Path_68" data-name="&lt;Path&gt;" class="cls-16" d="M514.53,251l44.71,2-1,18.49c-.25,5.46-3.88,9.74-8.13,9.55l-29.35-1.32c-4.24-.19-7.48-4.78-7.24-10.24Z"/><path id="_Path_69" data-name="&lt;Path&gt;" class="cls-11" d="M534.69,140.8l14.26.53a16,16,0,0,1,15.38,16.56L560,255.41l-45.69-1.69,4.39-98A15.47,15.47,0,0,1,534.69,140.8Z"/><path id="_Path_70" data-name="&lt;Path&gt;" class="cls-17" d="M532.25,152.12h0a6.85,6.85,0,0,1-2.16,9.45L479.9,192.44a6.85,6.85,0,0,1-9.45-2.16h0a6.85,6.85,0,0,1,2.16-9.45L522.8,150A6.85,6.85,0,0,1,532.25,152.12Z"/><g id="_Clip_Group_4" data-name="&lt;Clip Group&gt;"><path id="_Clipping_Path_4" data-name="&lt;Clipping Path&gt;" class="cls-19" d="M487.07,169.75l9,14.66L532.8,162a8.64,8.64,0,0,0,2.81-11.85h0a8.64,8.64,0,0,0-11.85-2.81Z"/></g><path id="_Path_71" data-name="&lt;Path&gt;" class="cls-17" d="M472.66,182.39h0A6.85,6.85,0,0,1,482,185l28.56,51.53a6.85,6.85,0,0,1-2.58,9.34h0a6.85,6.85,0,0,1-9.34-2.58l-28.56-51.53A6.85,6.85,0,0,1,472.66,182.39Z"/><path id="_Path_72" data-name="&lt;Path&gt;" class="cls-18" d="M510.33,236.25s7.1,5.88,10.54,7.86c-1.16,5.43-8.64,3.41-8.64,3.41Z"/><path id="_Path_73" data-name="&lt;Path&gt;" class="cls-17" d="M497.1,240.49l5.78,12.65s8.91,5.86,13,6.44c4.72.68,10.37-2,11.38-2.56,2.71-1.51-11-9.37-11-9.37l-6.32-12.28Z"/><path id="_Path_74" data-name="&lt;Path&gt;" class="cls-17" d="M540.57,122.44h-.19a5.45,5.45,0,0,1,5.41,5.61v12c0,3.1-2.32,4.06-5.41,4.06h.1c-3.1,0-5.51-1-5.51-4.06V128A5.61,5.61,0,0,1,540.57,122.44Z"/><path id="_Path_75" data-name="&lt;Path&gt;" class="cls-21" d="M550.42,136.81c-17.73,1-27.15-12.14-30-28.41-3.05-17.14,8.42-31.31,22.32-31.36,15.81-.05,25,6.11,26.34,23.48.82,10.9-2.46,32.75-18.61,36.3Z"/><path id="_Path_76" data-name="&lt;Path&gt;" class="cls-22" d="M518.06,86c-1.75,4.51-1.76,11.3-1.53,15.61a4.32,4.32,0,0,1,3.69-.92,5.16,5.16,0,0,1,.59.14h0l.29.1.29.11.3.14.21.11.35.19.28.17.28.19.26.2.26.22c.17.15.34.31.5.48,0,0,0,0,0,0l.1.12.05.07.06.08,0,0,0,0v0a.21.21,0,0,1,0,0V111a3.53,3.53,0,0,0,.84,2.64,4.29,4.29,0,0,0,.36.4,5.63,5.63,0,0,0,2.4.7,4.11,4.11,0,0,0,4.13-3.74v-2.82a4.07,4.07,0,0,1,3.74-4.06l.71-.05c.05-3.21,0-5.75,0-7.33,0-2,.69-3.25,5-3.69h.13c.38,0,.78-.07,1.22-.09h.09c.75,0,1.59-.06,2.52-.06h19.93l.23-.06a9.84,9.84,0,0,0,5.45-3.73,5.93,5.93,0,0,0,1.1-3.95h-5.52a11.19,11.19,0,0,0,2.84-4.78,26.13,26.13,0,0,0,1.26-6h-9.15s-9.16-6.66-19.34-5.8c-16,1.35-21.35,11.66-21.35,11.66A17.3,17.3,0,0,0,513.8,79C515.89,81.42,517.11,82.49,518.06,86Z"/><path id="_Path_77" data-name="&lt;Path&gt;" class="cls-23" d="M542.76,93c.75,0,1.59-.06,2.52-.06h19.93l.23-.06a9.84,9.84,0,0,0,5.45-3.73,5.93,5.93,0,0,0,1.1-3.95s-4.75,5.35-7.78,5.89l-.24,0C560.88,91.61,547.25,92.65,542.76,93Z"/><g id="_Group_8" data-name="&lt;Group&gt;"><line id="_Path_78" data-name="&lt;Path&gt;" class="cls-22" x1="562.48" y1="102.46" x2="556.2" y2="102.14"/><path id="_Path_79" data-name="&lt;Path&gt;" class="cls-22" d="M562.63,103.5a1,1,0,0,0-.09-2.09l-6.29-.32a1,1,0,0,0-.11,2.1l6.29.32Z"/></g><g id="_Group_9" data-name="&lt;Group&gt;"><line id="_Path_80" data-name="&lt;Path&gt;" class="cls-22" x1="546.06" y1="102.14" x2="539.77" y2="102.46"/><path id="_Path_81" data-name="&lt;Path&gt;" class="cls-22" d="M546.21,101.1a1,1,0,0,1-.09,2.09l-6.29.32a1,1,0,1,1-.11-2.1l6.29-.32Z"/></g><circle id="_Path_82" data-name="&lt;Path&gt;" cx="543.7" cy="108.92" r="1.42"/><circle id="_Path_83" data-name="&lt;Path&gt;" cx="558.85" cy="109.41" r="1.42"/><path id="_Path_84" data-name="&lt;Path&gt;" class="cls-23" d="M570.57,74.37S567,82.44,562,84.49c-4.25,1.74-25,2.41-25,2.41a35.44,35.44,0,0,0,6.44,1.54c1.89.2,20.16.77,23-3.24A17.81,17.81,0,0,0,570.57,74.37Z"/><g id="_Group_10" data-name="&lt;Group&gt;"><path id="_Path_85" data-name="&lt;Path&gt;" class="cls-21" d="M524.79,103.68a8.33,8.33,0,0,0-2.9-3c-4.5-3.12-9.73-.59-7.73,4.75,1.39,3.73,3.77,12.95,6.68,9.63A17.7,17.7,0,0,0,524.79,103.68Z"/><polygon id="_Path_86" data-name="&lt;Path&gt;" class="cls-24" points="521.33 104.22 515.43 103.22 519.88 111.32 518.38 104.65 521.33 104.22"/></g><polygon id="_Path_87" data-name="&lt;Path&gt;" class="cls-24" points="551.4 106.9 551.21 119.23 553.86 118.63 551.4 106.9"/><path id="_Path_88" data-name="&lt;Path&gt;" class="cls-25" d="M558.85,122.89a10,10,0,0,1-7.64,3.55h0a10.77,10.77,0,0,1-7.64-3.55"/><rect class="cls-11" x="490.18" y="169.65" width="18.02" height="6.02" transform="matrix(0.55, 0.84, -0.84, 0.55, 370.14, -339.54)"/><path class="cls-26" d="M644.38,413.92l-7.72-4.15-3.32-6.72a6,6,0,0,0-3.55-3l-29.4-12.94a6,6,0,0,0-1.29-.39c-5.39-2.82-14.66-10.07-22.71-16.71.24-.27.47-.52.67-.76l-4.5-4.43c4.48-6.15,8.26-13.4,8.33-19.06l.26-21.88-1,.34c1.05-2.52,2-4.67,2.34-5.61s1.37-2.77,2.49-5.26l.05-.09c1.24-2.64,2.59-3.73,4.73-3.95h0s7.78,2.18,12.58,5.19c3.93,2.41,6.74,3.76,8.68,3.66.38,3.59-.18,7.25,3.18,7.33,1.85,0,2.77-1.59,2.77-5.94,0-2.8-.32-5.26-1.53-6.84l.12-.36-.69-.25a4.42,4.42,0,0,0-1.77-1,7.7,7.7,0,0,0,4.24-2.42,13.26,13.26,0,0,0,2.06-4.33c1.87-1,3.05-3.84,3.84-5.8,1.15-2.89-1.18-3.29-5.59-3.19a1.37,1.37,0,0,0-.65.33l-13-2.46-.59-3.16a6.9,6.9,0,0,0-1-2.42l.1,0a1.13,1.13,0,0,0,.83-1.32,1.16,1.16,0,0,0-1.37-.83l-1.13.27a15.64,15.64,0,0,0-6.07-3.47c-1.72-10.54-5-24.73-5.88-23.51A25.16,25.16,0,0,0,585,265.9c-1.27-5.46-2.47-9.44-3-8.77-6.61,8.73-5.09,16.23-5.4,26.24a17.17,17.17,0,0,0-6.44,5.75L551.26,315l-.8-.92L541,323.29a23.78,23.78,0,0,1-7.74,4.45L514,334.39c-1.66.57-37.58,8.68-37.58,8.68l1.1,2.39c.07.2.13.4.2.6l-2,.25c-11.59,1.31-19.82,4.67-25.66,9a48.55,48.55,0,0,1-32.55-61.63,48.62,48.62,0,0,0,27,66.72,32.93,32.93,0,0,0-6.34,11.17,33.69,33.69,0,0,0-2.4,10.37c-1.7,20.8-23.65,35-23.65,35l-10.89,5.74,0,0-.38.22-.18.12-.24.17-.27.21-.12.11-.33.32,0,0a6,6,0,0,0-1.63,3.73L395,446.21a5.82,5.82,0,0,0-.07.62,5.89,5.89,0,0,0,.28,2.78l3.49,9.74a6,6,0,0,0,5.78,4h11.91v-5.7l-7.44-5.15L407,447.05l2.52-15.23.19-.12.21-.13.21-.13.26-.13.25-.13.3-.13.26-.17.3-.17.34-.13.3-.17.34-.21.38-.17.34-.17.38-.21.42-.21.38-.21.42-.21.47-.25.47-.26.47-.25.47-.25.51-.26-2.34,14.12a6.09,6.09,0,0,0-.06.77,6,6,0,0,0,.28,2.67l3.49,9.74a6,6,0,0,0,5.78,4h11.91v-5.7l-7.44-5.19-1.93-5.5,2.51-15.18.19-.07.21-.13.25-.13.25-.13.26-.13.25-.17.3-.13.3-.17.3-.17.34-.17.34-.17.34-.17.38-.21.38-.21.38-.21.42-.21.42-.21.43-.21.47-.25.47-.26.51-.25.51-.25.51-.3.55-.3.55-.3.6-.3c12.59-6.59,30.92-14.2,41.68-32.88.8-1.39,1.53-2.75,2.21-4.09l40.06,3.25,1.68,2.12a11.88,11.88,0,0,0,1.15,1.45l2.71,3.42,5.94,3.32c1-.23,2-.53,3-.89A49.2,49.2,0,0,0,547.94,399c8,.06,18.58,2.21,24.08,3.46l23,7.17,2.13,7.37a6,6,0,0,0,5.35,4.34l11.88.74.35-5.69L607.92,411l-2.07-7.2a5.88,5.88,0,0,0-.68-1.5l18.44,8.11,3.57,7.27a6,6,0,0,0,6,3.32L645,419.58Z"/><path class="cls-27" d="M621.32,400.35h0a6,6,0,0,1,8,2.7l3.32,6.72,7.72,4.15.66,5.66L629.22,421a6,6,0,0,1-6-3.32l-4.56-9.27a6,6,0,0,1,2.7-8Z"/><path class="cls-27" d="M591.51,398.34s-16.37-3.86-27.77-4.52S541,380.76,543.43,371s13.63-14.14,13.63-14.14,27.66,24.6,38.39,30,1.58,14.19-4,11.44Z"/><path class="cls-27" d="M588.52,390.19h0a6,6,0,0,1,7.87-3.1l29.53,13A6,6,0,0,1,629,408h0a6,6,0,0,1-7.9,3l-29.53-13a5.94,5.94,0,0,1-3.06-7.86Z"/><path class="cls-27" d="M414.7,437.66h0a6,6,0,0,1,7.66,3.62l2.42,6.89,7.44,5.19v5.7H420.32a6,6,0,0,1-5.78-4L411,445.31a6.06,6.06,0,0,1,3.66-7.65Z"/><path class="cls-27" d="M420.91,417.67h0a6,6,0,0,1,4.93,6.89l-3.19,19.27a6,6,0,0,1-6.89,4.93h0a6,6,0,0,1-4.93-6.89L414,422.6a6,6,0,0,1,6.89-4.93Z"/><path class="cls-27" d="M435.29,422.26l-.6.3-.55.3-.55.3-.51.3-.51.25-.51.25-.47.26-.47.25-.43.21-.42.21-.42.21-.38.21-.38.21-.38.21-.34.17-.34.17-.34.17-.3.17-.3.17-.3.13-.25.17-.26.13-.25.13-.25.13-.21.13-.21.08-.21.13-.17.09-.21.08-.17.09-.13.08-.17.08-.13.09-.17.08-.09,0-.13.09-.13,0-.08,0-.09.08-.08,0-.08,0h-.09l-.08,0,0,0,0,0h0l0,0h0l0,0h-.09v0h0l0,0h0a6,6,0,0,1-8.08-2.51h0a6,6,0,0,1,2.51-8.08l10.93-5.74s21.9-14.16,23.6-35,17.73-26.58,26.62-24.2,9.48,17.35-1.32,36-29.09,26.29-41.68,32.88Z"/><path class="cls-28" d="M450.49,362.86a48.59,48.59,0,0,1-37-69.21,48.56,48.56,0,0,0,32.63,61.66l0,0Z"/><path class="cls-28" d="M394.84,442h0a6,6,0,0,1,7.61,3.66l2.47,6.89,7.44,5.15v5.7H400.45a6,6,0,0,1-5.78-4l-3.49-9.74a6,6,0,0,1,3.66-7.65Z"/><path class="cls-28" d="M401,422h0a6.06,6.06,0,0,1,4.93,6.89l-3.19,19.26a6,6,0,0,1-6.89,4.93h0a6,6,0,0,1-4.93-6.85l3.19-19.31A6,6,0,0,1,401,422Z"/><path class="cls-28" d="M415.42,426.6l-.59.3-.55.3-.55.3-.55.25-.51.26-.47.25-.47.25-.47.26-.47.25-.42.21-.38.21-.42.21-.38.21-.34.17-.38.17-.34.21-.3.17-.34.13-.3.17-.26.17-.3.13-.25.13-.26.13-.21.13-.21.13-.21.13-.21.08L405,432l-.17.08-.17.09-.17.08-.13.09-.17.08-.13,0-.13.08-.13,0-.09.09-.13,0-.09,0-.08,0-.09,0,0,0-.08,0h0l-.09,0,0,0h0l0,0h0v0h-.09v0h0a6,6,0,0,1-8.08-2.51h0a6,6,0,0,1,2.55-8.08l10.89-5.74s21.95-14.16,23.65-35,17.73-26.58,26.62-24.2,9.48,17.31-1.32,36S428,420,415.42,426.6Z"/><path class="cls-28" d="M432.57,388.78s-6.69-37.29,39.16-42.47,71.56-25.07,71.56-25.07,31.21,5.72,29.84,27-23.32,36.06-36.51,39.43-58.22-17.14-73.46-2.07-29.36,19.32-30.59,3.15Z"/><path class="cls-28" d="M594.43,399.69h0a6,6,0,0,1,7.42,4.08l2.07,7.2,6.86,5.45-.35,5.69-11.88-.74a6,6,0,0,1-5.35-4.34l-2.88-9.94a6.05,6.05,0,0,1,4.12-7.41Z"/><path class="cls-28" d="M571.74,403.39s-16.41-4.27-27.79-4.35c-22.9-.17-30.29-12.66-20.44-22.69,7-7.15,32.07-23.07,32.07-23.07s-12.75,13.85,20,38.68c9.6,7.27,1.65,14.17-3.89,11.44Z"/><path class="cls-28" d="M559,393.44h0a6,6,0,0,1,7.47-4l30.8,9.6a6,6,0,0,1,3.95,7.51h0a6,6,0,0,1-7.51,3.91l-30.8-9.59a5.94,5.94,0,0,1-3.92-7.46Z"/><path class="cls-29" d="M579.19,289.46c.51,5.65,5.58,9.87,6.72,11.28s5.65-2.54,5.91-8.66-5.67-35-7-33.31c-7.56,10-4.53,18.34-5.67,30.7Z"/><path class="cls-28" d="M542.73,321.16l23.46-32s9.25-4.17,16.31,2.55-2.71,23.91-4,26.93-7.79,18.61-7.79,18.61-48.28,11.63-28-16Z"/><path class="cls-28" d="M566.18,289.12c2-3.29,8.95-9.79,20.6-7.81s12.62,8.78,12.62,8.78l.59,3.16L617,296.47s-1.06,9.05-3.71,12.23-8.77,3.65-17.8,1.95-12-2.76-14.5,2.59-19.21-5.75-14.85-24.12Z"/><path class="cls-30" d="M613.65,295.38c4.41-.1,6.74.29,5.59,3.19-1.05,2.64-2.84,6.85-6,6.09-4.64-1.13-1.53-9.06.45-9.28Z"/><path class="cls-27" d="M572.35,287.83c.55,5.66,5.58,9.87,6.72,11.27s5.65-2.54,5.91-8.66-5.67-35-7-33.31c-7.55,10-4.48,18.35-5.67,30.7Z"/><path class="cls-31" d="M596.2,294.2c1.13.19,2.27-.91,2.53-2.46s-.45-2.92-1.59-3.12-2.27.91-2.52,2.42.45,3,1.58,3.16Z"/><path class="cls-30" d="M592.19,286.83l5.75-1.36a1.16,1.16,0,0,1,1.37.83h0a1.13,1.13,0,0,1-.83,1.32L592.69,289a1.06,1.06,0,0,1-1.33-.83h0a1.07,1.07,0,0,1,.83-1.32Z"/><path class="cls-28" d="M585.76,309.3s7.78,2.18,12.58,5.19,8,4.38,9.91,3.36,3.31-5.52,3.31-5.52-13.7-4.95-15.42-5.46-10.38,2.43-10.38,2.43Z"/><path class="cls-32" d="M602.57,311.73c7.84,2.55,1.76,13.6,7.62,13.74,1.85,0,2.77-1.59,2.77-5.94,0-6.08-1.45-10.61-10.39-7.79Z"/><path class="cls-33" d="M557.86,376l3,3.39c5.51-3.8,10.23-7.7,12.19-10.13l-4.82-4.75A59.5,59.5,0,0,1,557.86,376Z"/><path class="cls-33" d="M546.46,314.06l4.25,4.88a21.88,21.88,0,0,0,23.25,6l3.19-1.09-.26,21.88c-.12,9.83-11.43,24.45-18.17,29.79h0l4.53,5.09c-4.53,4.9-22.08,15.72-32.52,18.24l-5.94-3.32-5.55-7-42.06-3.42.39-14.29a70,70,0,0,0-4-25.38l-1.1-2.39S508.35,335,510,334.39l19.23-6.65a23.78,23.78,0,0,0,7.74-4.45Z"/><path class="cls-26" d="M225.13,221.36H117A15.27,15.27,0,0,0,103.51,231s-14.07,41.19-14.07,72a206.08,206.08,0,0,0,5.62,48.35,166.35,166.35,0,0,0,152.4-1.66A206.69,206.69,0,0,0,252.68,303c0-30.8-14.07-72-14.07-72A15.27,15.27,0,0,0,225.13,221.36Z"/><path class="cls-34" d="M222.13,221.36H114A15.27,15.27,0,0,0,100.51,231s-14.07,41.19-14.07,72a206.08,206.08,0,0,0,5.62,48.35,166.35,166.35,0,0,0,152.4-1.66A206.69,206.69,0,0,0,249.68,303c0-30.8-14.07-72-14.07-72A15.27,15.27,0,0,0,222.13,221.36Z"/><path class="cls-26" d="M204.46,272.82h-11l.07-.1-1.32-.78a104.63,104.63,0,0,0,21.33-4,10.69,10.69,0,0,0,6.78-13.45c-1.61-5-3.73-11.74-5.78-18.76a9.76,9.76,0,0,0,2.26-4.94L218.38,220a9.81,9.81,0,0,0-7.62-11c-.12-.89-.2-1.71-.24-2.44a32.67,32.67,0,0,0-8.4-20.2,36.24,36.24,0,0,0-13.69-9.41v0a41.08,41.08,0,0,0-6.71-1.92,44.08,44.08,0,0,0-10.21-1.31c-17.32-.27-26.4,8.74-31,16.39a32.16,32.16,0,0,0-2.73,5.85,33.47,33.47,0,0,0-2.05,8.74c-.31,3.21-1.46,9.32-3,16.42l.26.05c-2.33,11.55-5.47,25.57-7.39,33.95a10.71,10.71,0,0,0,6.63,12.4c5.5,2.08,12.81,3.53,20.9,4.4l-1.58.81.06.1h-8a30,30,0,0,0-29.87,29.87v52.84a183.25,183.25,0,0,0,120-.3V302.16A29.34,29.34,0,0,0,204.46,272.82Z"/><path class="cls-23" d="M128.27,267.51a10.71,10.71,0,0,1-6.63-12.4c3.12-13.66,9.52-42.33,10.3-50.81a33.62,33.62,0,0,1,4.55-14.19c4.58-7.65,13.67-16.66,31-16.39,14,.22,22.87,6.13,28.3,12.34a33.43,33.43,0,0,1,8,20.2c.55,10,8.3,35.21,12.49,48.19a10.69,10.69,0,0,1-6.78,13.45C189.95,274.36,147.76,274.89,128.27,267.51Z"/><path class="cls-5" d="M200.46,272.82H139.65a30,30,0,0,0-29.87,29.87v52.84a183.25,183.25,0,0,0,120-.3V302.16A29.34,29.34,0,0,0,200.46,272.82Z"/><path id="_Path_89" data-name="&lt;Path&gt;" class="cls-17" d="M169.1,242.92h.31a8.69,8.69,0,0,0-8.63,8.94V271c0,4.94,3.7,6.48,8.63,6.48h-.15c4.94,0,8.79-1.54,8.79-6.48V251.86A8.94,8.94,0,0,0,169.1,242.92Z"/><polygon id="_Path_90" data-name="&lt;Path&gt;" class="cls-11" points="196.44 272.72 201.93 284.65 193.66 294.45 199.02 302.18 165.45 362.89 138.75 302.01 142.84 294.05 137.88 284.65 143.5 272.72 196.44 272.72"/><polygon id="_Path_91" data-name="&lt;Path&gt;" class="cls-5" points="147.59 272.72 166.31 342.76 189.52 272.72 147.59 272.72"/><g id="_Group_11" data-name="&lt;Group&gt;"><path id="_Path_92" data-name="&lt;Path&gt;" class="cls-21" d="M193.55,222.13a10.46,10.46,0,0,1,3.64-3.8c5.64-3.91,12.21-.74,9.71,6-1.75,4.68-4.73,16.25-8.38,12.08C195.72,233.18,193.7,228.3,193.55,222.13Z"/><polygon id="_Path_93" data-name="&lt;Path&gt;" class="cls-24" points="197.9 222.81 205.3 221.56 199.72 231.72 201.6 223.35 197.9 222.81"/></g><polygon id="_Path_94" data-name="&lt;Path&gt;" class="cls-11" points="189.52 272.72 178.03 265.92 168.18 275.25 177.26 290.82 189.52 272.72"/><polygon id="_Path_95" data-name="&lt;Path&gt;" class="cls-11" points="147.59 272.72 160.89 265.92 168.18 275.25 158.08 290.82 147.59 272.72"/><path class="cls-35" d="M207.4,361.57V315.64a.67.67,0,1,0-1.34,0v46.21Z"/><path class="cls-35" d="M133.88,362V315.54a.67.67,0,1,0-1.34,0v46.18Z"/><path class="cls-36" d="M175.9,256.2c17.79,0,32.21-12,32.21-20.93"/><path class="cls-21" d="M131.79,214.94c0,15,12.94,41.65,37.62,41.65,27.6,0,35.53-27.92,35.53-43s-7.13-39.46-35.64-39.46C141.82,174.16,131.79,199.9,131.79,214.94Z"/><g id="_Group_12" data-name="&lt;Group&gt;"><line id="_Path_96" data-name="&lt;Path&gt;" class="cls-22" x1="154.3" y1="217.53" x2="162.95" y2="217.09"/><path id="_Path_97" data-name="&lt;Path&gt;" class="cls-22" d="M154.1,219a1.44,1.44,0,0,1,.13-2.87l8.65-.44a1.44,1.44,0,1,1,.15,2.88l-8.65.44Z"/></g><ellipse class="cls-37" cx="168.25" cy="255.92" rx="9.07" ry="4.74"/><g id="_Group_13" data-name="&lt;Group&gt;"><line id="_Path_98" data-name="&lt;Path&gt;" class="cls-22" x1="176.35" y1="217.31" x2="185" y2="217.75"/><path id="_Path_99" data-name="&lt;Path&gt;" class="cls-22" d="M176.14,215.88a1.44,1.44,0,0,0,.13,2.87l8.65.44a1.44,1.44,0,0,0,.15-2.88l-8.65-.44Z"/></g><circle id="_Path_100" data-name="&lt;Path&gt;" cx="179.53" cy="225.68" r="1.95"/><circle id="_Path_101" data-name="&lt;Path&gt;" cx="158.67" cy="226.35" r="1.95"/><polygon id="_Path_102" data-name="&lt;Path&gt;" class="cls-24" points="170.34 218.42 173.29 236.69 170.33 234.53 170.34 218.42"/><path id="_Path_103" data-name="&lt;Path&gt;" class="cls-38" d="M178.2,244.58a13.34,13.34,0,0,1-7.88,2.31h0a14.33,14.33,0,0,1-7.88-2.31"/><polygon class="cls-18" points="167.36 236.69 173.29 236.69 170.33 234.03 167.36 236.69"/><path class="cls-23" d="M206.51,206.54a32.67,32.67,0,0,0-8.4-20.2,36.24,36.24,0,0,0-13.69-9.41v0a45,45,0,0,0-15.59-2.84c-18.08-.27-27.56,8.74-32.35,16.39a32.64,32.64,0,0,0-4.75,14.19c-.31,3.21-1.46,9.32-3,16.42,10.12,2.47,21.88-2.82,25.2-3.88,12.81-4.1,22.86-9.56,28-17.5,3.48,10.17,11.71,19.2,19.77,19.2a13.41,13.41,0,0,0,6.56-1.74A68.44,68.44,0,0,1,206.51,206.54Z"/><path class="cls-39" d="M206.77,214.29c0-18.61-17.28-33.7-38.59-33.7s-38.59,15-38.59,37.26"/><g id="_Group_14" data-name="&lt;Group&gt;"><path id="_Path_104" data-name="&lt;Path&gt;" class="cls-21" d="M137.13,222.13a10.41,10.41,0,0,0-2.29-3.8c-3.55-3.91-7.69-.74-6.11,6,1.1,4.68,6.85,15.15,9.15,11C139.64,232.08,137,228.3,137.13,222.13Z"/><polygon id="_Path_105" data-name="&lt;Path&gt;" class="cls-24" points="134.4 222.81 129.73 221.56 133.25 231.72 132.07 223.35 134.4 222.81"/></g><path class="cls-37" d="M202.57,209.32h1.25a9.82,9.82,0,0,1,9.82,9.82V230a9.82,9.82,0,0,1-9.82,9.82h-1.25a0,0,0,0,1,0,0V209.32A0,0,0,0,1,202.57,209.32Z" transform="translate(35.12 -28.05) rotate(8.42)"/><rect class="cls-34" x="265.35" y="346.66" width="45.92" height="2.72"/><rect class="cls-34" x="286.35" y="282.49" width="3.92" height="64.17"/><rect class="cls-34" x="241.78" y="285.66" width="84.78" height="10.1" rx="2.23" ry="2.23" transform="translate(-109.68 391.46) rotate(-60)"/><rect class="cls-34" x="111.54" y="345.48" width="116.5" height="5.08"/><rect class="cls-40" x="62.95" y="348.95" width="274.03" height="22.68" rx="11.34" ry="11.34"/><path class="cls-17" d="M132.36,340.58h22.23a2.62,2.62,0,0,1,2.62,2.62v3.45a0,0,0,0,1,0,0H129.73a0,0,0,0,1,0,0v-3.45a2.62,2.62,0,0,1,2.62-2.62Z"/><path class="cls-17" d="M179.91,339.72h22.23a2.63,2.63,0,0,1,2.63,2.63v3.45a0,0,0,0,1,0,0H177.29a0,0,0,0,1,0,0v-3.45A2.63,2.63,0,0,1,179.91,339.72Z"/><rect class="cls-34" x="122.22" y="343.96" width="7" height="2.7"/><rect class="cls-34" x="132.05" y="343.96" width="7" height="2.7"/><rect class="cls-34" x="141.88" y="343.96" width="7" height="2.7"/><rect class="cls-34" x="151.71" y="343.96" width="7" height="2.7"/><rect class="cls-34" x="161.54" y="343.96" width="7" height="2.7"/><rect class="cls-34" x="171.37" y="343.96" width="7" height="2.7"/><rect class="cls-34" x="181.2" y="343.96" width="7" height="2.7"/><rect class="cls-34" x="191.03" y="343.96" width="7" height="2.7"/><rect class="cls-34" x="200.86" y="343.96" width="7" height="2.7"/><rect class="cls-34" x="210.69" y="343.96" width="7" height="2.7"/></svg>