<svg id="Layer_1" data-name="Layer 1" xmlns="http://www.w3.org/2000/svg" viewBox="0 0 708.66 606.34"><defs><style>.cls-1{fill:#58595b;}.cls-2,.cls-6{fill:#f8ab8d;}.cls-3,.cls-9{fill:#dc846a;}.cls-4{fill:#648ec9;}.cls-5{fill:#3f5aa8;}.cls-30,.cls-6,.cls-9{fill-rule:evenodd;}.cls-7{fill:#8b6339;}.cls-8{fill:#754d24;}.cls-10,.cls-15,.cls-20,.cls-22,.cls-25,.cls-29,.cls-30,.cls-33,.cls-36,.cls-40,.cls-41,.cls-42,.cls-44{fill:none;}.cls-10,.cls-15,.cls-25,.cls-40{stroke:#dc846a;}.cls-10,.cls-15,.cls-22,.cls-25,.cls-29,.cls-30,.cls-32,.cls-33,.cls-40,.cls-41,.cls-42,.cls-44{stroke-linecap:round;}.cls-10,.cls-15,.cls-22,.cls-25,.cls-29,.cls-30,.cls-40{stroke-linejoin:round;}.cls-10{stroke-width:0.86px;}.cls-11{fill:#fec82b;}.cls-12{fill:#d6742b;}.cls-13{fill:#bc5f20;}.cls-14,.cls-32{fill:#fff;}.cls-15{stroke-width:0.58px;}.cls-16{fill:#414042;}.cls-17,.cls-34,.cls-43{fill:#e7685d;}.cls-18{fill:#b97d4f;}.cls-19{fill:#c0e4ed;}.cls-20{stroke:#39b54a;stroke-width:0.8px;}.cls-20,.cls-32,.cls-33,.cls-36,.cls-41,.cls-42,.cls-44{stroke-miterlimit:10;}.cls-21{fill:#4c836a;}.cls-22{stroke:#414042;stroke-width:0.48px;}.cls-23{fill:#979797;}.cls-24{fill:gray;}.cls-25{stroke-width:0.5px;}.cls-26{fill:#dd4439;}.cls-27{fill:#0d5b70;}.cls-28{fill:#ffdc83;}.cls-29,.cls-30{stroke:#ffdc83;stroke-width:0.96px;}.cls-31{fill:#b18a64;}.cls-32,.cls-33,.cls-41,.cls-42,.cls-44{stroke:#fec82b;stroke-width:4.82px;}.cls-33{stroke-dasharray:8.04;}.cls-34{font-size:15.14px;}.cls-34,.cls-43{font-family:Chevin-Bold, Chevin;font-weight:700;}.cls-35{fill:#6d6e71;}.cls-36{stroke:#dd4439;stroke-width:0.7px;}.cls-37{fill:#54402b;}.cls-38{fill:#6c4e38;}.cls-39{fill:#ee4256;}.cls-40{stroke-width:0.85px;}.cls-42{stroke-dasharray:8.05 8.05;}.cls-43{font-size:14.19px;}.cls-44{stroke-dasharray:8.18 8.18;}</style></defs><title>Diagram_01</title><rect class="cls-1" x="92.67" y="239.73" width="46.07" height="55.11" rx="12.84" ry="12.84"/><path id="_Path_" data-name="&lt;Path&gt;" class="cls-2" d="M156.61,224.07h0a3.17,3.17,0,0,1-4.5-.31l-17.83-20.94a3.22,3.22,0,0,1,.3-4.53h0a3.17,3.17,0,0,1,4.5.31l17.83,20.94A3.22,3.22,0,0,1,156.61,224.07Z"/><path id="_Path_2" data-name="&lt;Path&gt;" class="cls-3" d="M134.28,202.82a54.48,54.48,0,0,0-4.09-4.58c1-2.39,4.25-.77,4.25-.77Z"/><path id="_Path_3" data-name="&lt;Path&gt;" class="cls-2" d="M140.16,202.34,138.68,196s-3.53-3.51-5.33-4.15a10.07,10.07,0,0,0-5.42.13c-1.37.44,4.15,5.31,4.15,5.31l2.2,5.53Z"/><path id="_Path_4" data-name="&lt;Path&gt;" class="cls-2" d="M124.77,229.62h0a3.19,3.19,0,0,0,3.89,2.29l26.44-7.24a3.21,3.21,0,0,0,2.28-3.92h0a3.19,3.19,0,0,0-3.89-2.29L127,225.7A3.21,3.21,0,0,0,124.77,229.62Z"/><path id="_Path_5" data-name="&lt;Path&gt;" class="cls-4" d="M145.13,219.84l2.09,7.78L127.94,233a4,4,0,0,1-4.91-2.84h0a4,4,0,0,1,2.82-4.94Z"/><path id="_Rectangle_" data-name="&lt;Rectangle&gt;" class="cls-5" d="M104.49,223h28.58a0,0,0,0,1,0,0v48.09a10.1,10.1,0,0,1-10.1,10.1h-8a10.44,10.44,0,0,1-10.44-10.44V223A0,0,0,0,1,104.49,223Z" transform="translate(249.5 498.26) rotate(177.25)"/><path id="_Path_6" data-name="&lt;Path&gt;" class="cls-4" d="M122.67,226.18c.5-1.52-1-3.37-3.3-4.14s-4.6-.16-5.1,1.35,1,3.37,3.3,4.14S122.18,227.7,122.67,226.18Z"/><path id="_Path_7" data-name="&lt;Path&gt;" class="cls-2" d="M120.8,216.42l-.08,0a2.36,2.36,0,0,1,1.76,2.87l-1.1,5.06c-.28,1.31-1.34,1.5-2.64,1.22h0c-1.3-.29-2.22-.92-1.94-2.22l1.1-5.06A2.41,2.41,0,0,1,120.8,216.42Z"/><path id="_Path_8" data-name="&lt;Path&gt;" class="cls-6" d="M123.62,223.4c-7.53-1.23-10.28-7.63-10-14.78.29-7.52,6.4-12.45,12.24-11.19,6.64,1.44,10,4.89,8.9,12.35-.66,4.68-4,13.61-11.14,13.62Z"/><path id="_Path_9" data-name="&lt;Path&gt;" class="cls-7" d="M114.7,198.93a18.4,18.4,0,0,0-2.07,6.46,1.84,1.84,0,0,1,1.63,0l.23.11h0l.11.07.11.07.11.09.08.06.13.11.1.1.1.11.09.11.09.12.16.25v0l0,.06,0,0,0,0v0h0a.09.09,0,0,1,0,0l-.72,3.33a1.54,1.54,0,0,0,.11,1.19,1.86,1.86,0,0,0,.12.2,2.41,2.41,0,0,0,.94.52,1.76,1.76,0,0,0,2.08-1.2l.26-1.19a1.75,1.75,0,0,1,1.94-1.37l.3,0c.32-1.35.54-2.43.67-3.1.17-.83.59-1.31,2.45-1.09h.05l.52.07h0l1.06.21,8.37,1.84h.1a4.21,4.21,0,0,0,2.63-1.07,2.57,2.57,0,0,0,.82-1.56l-2.32-.51a4.82,4.82,0,0,0,1.63-1.76,11.34,11.34,0,0,0,1.08-2.44L134,198s-3.23-3.66-7.59-4.23c-6.86-.91-10,3-10,3a7.41,7.41,0,0,0-2.8-1.16A6.42,6.42,0,0,1,114.7,198.93Z"/><path id="_Path_10" data-name="&lt;Path&gt;" class="cls-8" d="M124.42,204.18l1.06.21,8.37,1.84h.1a4.21,4.21,0,0,0,2.63-1.07,2.57,2.57,0,0,0,.82-1.56s-2.48,1.82-3.81,1.77h-.1C132.15,205.27,126.34,204.45,124.42,204.18Z"/><g id="_Group_" data-name="&lt;Group&gt;"><line id="_Path_11" data-name="&lt;Path&gt;" class="cls-7" x1="131.83" y1="210" x2="129.22" y2="209.28"/><path id="_Path_12" data-name="&lt;Path&gt;" class="cls-7" d="M131.8,210.45a.45.45,0,0,0,.15-.89l-2.61-.71a.45.45,0,0,0-.24.88l2.61.71Z"/></g><g id="_Group_2" data-name="&lt;Group&gt;"><line id="_Path_13" data-name="&lt;Path&gt;" class="cls-7" x1="124.97" y1="208.35" x2="122.3" y2="207.9"/><path id="_Path_14" data-name="&lt;Path&gt;" class="cls-7" d="M125.13,207.92a.45.45,0,0,1-.23.87l-2.67-.44a.45.45,0,0,1,.15-.9l2.67.44Z"/></g><circle id="_Path_15" data-name="&lt;Path&gt;" cx="123.36" cy="211" r="0.61" transform="translate(-109.2 286.2) rotate(-77.61)"/><circle id="_Path_16" data-name="&lt;Path&gt;" cx="129.67" cy="212.6" r="0.61" transform="translate(-105.8 293.63) rotate(-77.61)"/><path id="_Path_17" data-name="&lt;Path&gt;" class="cls-8" d="M137.8,198.88s-2.23,3.09-4.52,3.49c-1.94.34-10.72-1.29-10.72-1.29a15.19,15.19,0,0,0,2.56,1.24c.78.26,8.39,2.18,10,.75A7.71,7.71,0,0,0,137.8,198.88Z"/><g id="_Group_3" data-name="&lt;Group&gt;"><path id="_Path_18" data-name="&lt;Path&gt;" class="cls-6" d="M115.9,207a3.61,3.61,0,0,0-.94-1.55c-1.6-1.73-4-1.15-3.68,1.29.24,1.7.4,5.82,1.92,4.68A7.66,7.66,0,0,0,115.9,207Z"/><polygon id="_Path_19" data-name="&lt;Path&gt;" class="cls-9" points="114.4 206.95 112.01 205.98 113.14 209.81 113.12 206.86 114.4 206.95"/></g><polygon id="_Path_20" data-name="&lt;Path&gt;" class="cls-9" points="126.78 210.85 125.56 216.05 126.73 216.04 126.78 210.85"/><path id="_Path_21" data-name="&lt;Path&gt;" class="cls-10" d="M128.58,218.66a5.23,5.23,0,0,1-3.22.31h0a5.64,5.64,0,0,1-2.88-1.48"/><rect id="_Rectangle_2" data-name="&lt;Rectangle&gt;" class="cls-11" x="109.67" y="234.53" width="7.03" height="3.17" transform="translate(-10.65 5.41) rotate(-2.61)"/><path id="_Path_22" data-name="&lt;Path&gt;" class="cls-2" d="M107.72,227.63h0a3.18,3.18,0,0,0-4.14,1.79l-9.91,25.71a3.22,3.22,0,0,0,1.78,4.17h0a3.18,3.18,0,0,0,4.14-1.79l9.91-25.71A3.22,3.22,0,0,0,107.72,227.63Z"/><path id="_Path_23" data-name="&lt;Path&gt;" class="cls-4" d="M103.44,249.92,96,247l7.19-18.78a4,4,0,0,1,5.19-2.29h0a4.05,4.05,0,0,1,2.28,5.22Z"/><path id="_Path_24" data-name="&lt;Path&gt;" class="cls-2" d="M93.46,256.9h0a3.2,3.2,0,0,1,2.9-3.48l27.32-2.15a3.19,3.19,0,0,1,3.45,2.92h0a3.2,3.2,0,0,1-2.9,3.48l-27.32,2.15A3.19,3.19,0,0,1,93.46,256.9Z"/><path id="_Path_25" data-name="&lt;Path&gt;" class="cls-3" d="M124.69,251.68a54.14,54.14,0,0,0,5.69-2.26c1.88,1.79-.74,4.26-.74,4.26Z"/><path id="_Path_26" data-name="&lt;Path&gt;" class="cls-3" d="M572.91,221.71a51.07,51.07,0,0,1,3.5-4.57c-1.14-2.15-4-.4-4-.4Z"/><rect class="cls-1" x="574.01" y="239.73" width="46.07" height="55.11" rx="12.84" ry="12.84" transform="translate(1194.09 534.57) rotate(-180)"/><path id="_Path_27" data-name="&lt;Path&gt;" class="cls-2" d="M589.67,232.63h0a3,3,0,0,1-1.17,4.08L565.8,249a3,3,0,0,1-4.08-1.17h0a3,3,0,0,1,1.17-4.08l22.69-12.28A3,3,0,0,1,589.67,232.63Z"/><path id="_Path_28" data-name="&lt;Path&gt;" class="cls-4" d="M569.48,239.24l3.6,6.63L589.67,237a3.78,3.78,0,0,0,1.51-5.11h0a3.78,3.78,0,0,0-5.11-1.51Z"/><path id="_Rectangle_3" data-name="&lt;Rectangle&gt;" class="cls-5" d="M591.74,229.9H600a10.26,10.26,0,0,1,10.26,10.26v48.67a0,0,0,0,1,0,0H581.13a0,0,0,0,1,0,0V240.51A10.61,10.61,0,0,1,591.74,229.9Z" transform="translate(-3.96 9.29) rotate(-0.89)"/><rect id="_Rectangle_4" data-name="&lt;Rectangle&gt;" class="cls-11" x="596.78" y="241.22" width="7.17" height="3.21" transform="matrix(-1, 0.02, -0.02, -1, 1204.97, 474.92)"/><path id="_Path_29" data-name="&lt;Path&gt;" class="cls-2" d="M607.71,232.91h0a3,3,0,0,1,2.56,3.39l-3.8,25.52a3,3,0,0,1-3.39,2.56h0a3,3,0,0,1-2.56-3.39l3.8-25.52A3,3,0,0,1,607.71,232.91Z"/><path id="_Path_30" data-name="&lt;Path&gt;" class="cls-4" d="M600.89,253l7.46,1.1,2.82-18.62a3.78,3.78,0,0,0-3.18-4.28h0a3.78,3.78,0,0,0-4.28,3.18Z"/><path id="_Path_31" data-name="&lt;Path&gt;" class="cls-2" d="M606.49,261.92h0a3,3,0,0,1-3.15,2.85l-25.76-1.51a3,3,0,0,1-2.85-3.15h0a3,3,0,0,1,3.15-2.85l25.76,1.51A3,3,0,0,1,606.49,261.92Z"/><path id="_Path_32" data-name="&lt;Path&gt;" class="cls-3" d="M576.42,262.89a51.07,51.07,0,0,0-5.6,1.34c-1.5-1.92,1.28-3.86,1.28-3.86Z"/><path id="_Path_33" data-name="&lt;Path&gt;" class="cls-2" d="M563.08,249.48h0a3,3,0,0,1-2.18-3.64l6.55-25a3,3,0,0,1,3.64-2.18h0a3,3,0,0,1,2.18,3.64l-6.55,25A3,3,0,0,1,563.08,249.48Z"/><ellipse id="_Path_34" data-name="&lt;Path&gt;" class="cls-4" cx="595.15" cy="230.74" rx="3.21" ry="4.94" transform="translate(363.64 825.59) rotate(-89.93)"/><path id="_Path_35" data-name="&lt;Path&gt;" class="cls-2" d="M595.61,221.09h.09a2.62,2.62,0,0,0-2.87,2.41l-.6,5.73c-.16,1.48.9,2.06,2.38,2.21h0c1.48.16,2.68-.18,2.84-1.66l.6-5.73A2.69,2.69,0,0,0,595.61,221.09Z"/><path id="_Path_36" data-name="&lt;Path&gt;" class="cls-6" d="M591.66,228.27c7.77.57,12-5.09,13.44-12.21,1.49-7.5-3.42-13.82-9.52-14-6.94-.16-11,2.46-11.77,10.07-.45,4.78.79,14.4,7.85,16.1Z"/><path id="_Path_37" data-name="&lt;Path&gt;" class="cls-12" d="M605.82,205.8a17.63,17.63,0,0,1,.51,6.51,1.8,1.8,0,0,0-1.53-.41l-.25.05h0l-.12,0-.12,0-.13.05-.09,0-.15.08-.12.07-.12.08-.11.08-.11.09-.21.19v0l0,0,0,0,0,0v0h0v0l-.07,3.28a1.47,1.47,0,0,1-.37,1.09,1.78,1.78,0,0,1-.15.16,2.34,2.34,0,0,1-1,.27,1.71,1.71,0,0,1-1.69-1.59l0-1.17a1.69,1.69,0,0,0-1.52-1.72l-.3,0c0-1.33,0-2.39.06-3,0-.81-.26-1.36-2.06-1.58H596l-.51,0h0l-1,0-8.29-.17-.09,0a4.09,4.09,0,0,1-2.24-1.6,2.47,2.47,0,0,1-.43-1.65l2.3,0a4.66,4.66,0,0,1-1.14-2,10.87,10.87,0,0,1-.48-2.53l3.81.08s3.87-2.7,8.1-2.25c6.67.7,8.79,5,8.79,5a7.2,7.2,0,0,1,2.9-.45A6.16,6.16,0,0,0,605.82,205.8Z"/><path id="_Path_38" data-name="&lt;Path&gt;" class="cls-13" d="M595.48,208.51l-1,0-8.29-.17-.09,0a4.09,4.09,0,0,1-2.24-1.6,2.47,2.47,0,0,1-.43-1.65s1.93,2.27,3.19,2.52l.1,0C588,207.79,593.62,208.34,595.48,208.51Z"/><path id="_Path_39" data-name="&lt;Path&gt;" class="cls-12" d="M597,221.12l-.21,1.18-.48,2.66v0l-.15.86c-.44,2.35-2.43,3.84-4.45,3.32l-2.37-.61a3.39,3.39,0,0,1-2.07-1.62,6.17,6.17,0,0,1-.77-3l.2-3.86c.19-1,.47-1.42,1.36-1.39l7.57.15h.18A1.91,1.91,0,0,1,597,221.12Z"/><path id="_Path_40" data-name="&lt;Path&gt;" class="cls-14" d="M590.81,222.56c-1.61,0-3-.93-3-1.92v-.23l6.2.12v.23c0,.9-1,1.84-2.73,1.81Z"/><path id="_Path_41" data-name="&lt;Path&gt;" class="cls-13" d="M584.07,200.53s1.41,3.39,3.47,4.29c1.75.76,10.39,1.21,10.39,1.21a14.75,14.75,0,0,1-2.69.59c-.79.07-8.4.15-9.56-1.54A7.41,7.41,0,0,1,584.07,200.53Z"/><path id="_Path_42" data-name="&lt;Path&gt;" class="cls-12" d="M602.57,217.44a7.51,7.51,0,0,1-1.31,1c-1.74,1.1-4.18,2.41-4.93,5.49v0c-.35,1.48-.65,1.31-.85.45-.34-1.47-.38-5,.14-5.6h0c1.47,0,4.22-.87,4.26-2.66S604.33,215.92,602.57,217.44Z"/><path id="_Path_43" data-name="&lt;Path&gt;" class="cls-12" d="M586.53,223.5c.09-1.68-2.75-3.74-2.8-8.23a4.52,4.52,0,0,0,4.32,3.35C588.58,219.31,587,222.2,586.53,223.5Z"/><path id="_Path_44" data-name="&lt;Path&gt;" class="cls-13" d="M601.26,218.41c-1.74,1.32-4.19,2.89-5,6.56v0l-.15.86c-.44,2.35-2.43,3.84-4.45,3.32l-2.37-.61a3.39,3.39,0,0,1-2.07-1.62A14.36,14.36,0,0,0,591,228c1.78.19,3.95-.37,4.47-2.48h0a12.62,12.62,0,0,1,1.35-3.23A8,8,0,0,1,601.26,218.41Z"/><g id="_Group_4" data-name="&lt;Group&gt;"><line id="_Path_45" data-name="&lt;Path&gt;" class="cls-12" x1="585.51" y1="211.32" x2="588.29" y2="211.23"/><path id="_Path_46" data-name="&lt;Path&gt;" class="cls-12" d="M585.43,211.78a.46.46,0,0,1,.06-.92l2.79-.09a.46.46,0,1,1,0,.93l-2.79.09Z"/></g><g id="_Group_5" data-name="&lt;Group&gt;"><line id="_Path_47" data-name="&lt;Path&gt;" class="cls-12" x1="593.36" y1="211.33" x2="596.14" y2="211.53"/><path id="_Path_48" data-name="&lt;Path&gt;" class="cls-12" d="M593.3,210.87a.46.46,0,0,0,0,.92l2.78.2a.46.46,0,1,0,.07-.93l-2.78-.2Z"/></g><circle id="_Path_49" data-name="&lt;Path&gt;" cx="594.34" cy="214.36" r="0.63" transform="translate(368.07 804.27) rotate(-88.85)"/><circle id="_Path_50" data-name="&lt;Path&gt;" cx="587.05" cy="214.43" r="0.63" transform="translate(360.86 797.05) rotate(-88.85)"/><polygon id="_Path_51" data-name="&lt;Path&gt;" class="cls-9" points="590.94 214.01 590.94 217.98 589.77 217.77 590.94 214.01"/><path id="_Path_52" data-name="&lt;Path&gt;" class="cls-15" d="M596.67,215.25a3.27,3.27,0,0,1-2,.53h0a3.51,3.51,0,0,1-1.93-.61"/><path id="_Path_53" data-name="&lt;Path&gt;" class="cls-15" d="M588.95,215.1a3.27,3.27,0,0,1-2,.53h0a3.51,3.51,0,0,1-1.93-.61"/><g id="_Group_6" data-name="&lt;Group&gt;"><path id="_Path_54" data-name="&lt;Path&gt;" class="cls-6" d="M603.12,212.84a3.69,3.69,0,0,1,1.31-1.32c2-1.34,4.31-.18,3.38,2.17-.65,1.64-1.78,5.69-3,4.2A7.83,7.83,0,0,1,603.12,212.84Z"/><polygon id="_Path_55" data-name="&lt;Path&gt;" class="cls-9" points="604.65 213.11 607.27 212.72 605.23 216.26 605.95 213.33 604.65 213.11"/></g><rect class="cls-16" x="537.78" y="263.96" width="40.82" height="3.33" rx="1.66" ry="1.66" transform="translate(1116.37 531.25) rotate(-180)"/><rect class="cls-17" x="331.2" y="68.18" width="46.25" height="55.34" rx="12.9" ry="12.9"/><rect class="cls-18" x="284.92" y="99.08" width="138.81" height="11.12"/><rect class="cls-7" x="319.02" y="108.92" width="71.45" height="50.26"/><path class="cls-19" d="M314.29,56.71V55.6a14.07,14.07,0,0,0-14.07,14.07V87.38h5.48V69.67A14.07,14.07,0,0,1,314.29,56.71Z"/><line class="cls-20" x1="298" y1="37.31" x2="298" y2="78.94"/><path class="cls-21" d="M299.76,53.12a7,7,0,0,0-2,5.71,7,7,0,0,0,7.71-7.71A7,7,0,0,0,299.76,53.12Z"/><path class="cls-21" d="M299.76,61.27a7,7,0,0,0-2,5.71,7,7,0,0,0,7.71-7.71A7,7,0,0,0,299.76,61.27Z"/><path class="cls-21" d="M299.76,69.42a7,7,0,0,0-2,5.71,7,7,0,0,0,7.71-7.71A7,7,0,0,0,299.76,69.42Z"/><path class="cls-21" d="M292.53,61a7,7,0,0,1-2-5.71A7,7,0,0,1,298.24,63,7,7,0,0,1,292.53,61Z"/><path class="cls-21" d="M292.53,52.81a7,7,0,0,1-2-5.71,7,7,0,0,1,7.71,7.71A7,7,0,0,1,292.53,52.81Z"/><path class="cls-21" d="M292.53,69.11a7,7,0,0,1-2-5.71,7,7,0,0,1,7.71,7.71A7,7,0,0,1,292.53,69.11Z"/><path id="_Path_56" data-name="&lt;Path&gt;" class="cls-3" d="M344.43,50.31a50.81,50.81,0,0,0-5.73,0c-1-2.21,2.15-3.43,2.15-3.43Z"/><path class="cls-11" d="M337.65,49.11,328.49,51a5.22,5.22,0,0,0-3.92,3.46l-8.78-.52-1.06,3.7,4.15,2.17L323,61.89a6.37,6.37,0,0,1,3.29,4.38h0a5.23,5.23,0,0,0,6.16,4.09l9.16-1.85a5.23,5.23,0,0,0,4.09-6.16l-1.85-9.16A5.23,5.23,0,0,0,337.65,49.11Z"/><path class="cls-11" d="M332.13,44.91a7.79,7.79,0,1,0,9.18,6.1A7.79,7.79,0,0,0,332.13,44.91Zm2.65,13.15a5.62,5.62,0,1,1,4.4-6.62A5.62,5.62,0,0,1,334.78,58.06Z"/><rect id="_Rectangle_5" data-name="&lt;Rectangle&gt;" class="cls-1" x="364.56" y="43.06" width="6.99" height="29.11" rx="3.49" ry="3.49" transform="translate(712.39 199.8) rotate(-166.46)"/><path id="_Path_57" data-name="&lt;Path&gt;" class="cls-1" d="M345.76,53.27l5-4.85,17.05,17.93a3.49,3.49,0,0,1-.09,4.94h0a3.49,3.49,0,0,1-4.94-.09Z"/><path id="_Path_58" data-name="&lt;Path&gt;" class="cls-2" d="M348,45.41l-5.3-2.94s-4.64.25-6.21,1.09a9.49,9.49,0,0,0-3.33,3.84c-.56,1.23,6.27.46,6.27.46l5.39,2.68Z"/><rect id="_Rectangle_6" data-name="&lt;Rectangle&gt;" class="cls-17" x="341.95" y="46.84" width="9.34" height="4.93" transform="translate(623.82 -164.54) rotate(134.26)"/><line id="_Path_59" data-name="&lt;Path&gt;" class="cls-22" x1="371.84" y1="26.96" x2="375.17" y2="26.02"/><path id="_Path_60" data-name="&lt;Path&gt;" class="cls-3" d="M398.85,81.64A50.8,50.8,0,0,1,395,85.87c.95,2.23,4,.75,4,.75Z"/><path id="_Rectangle_7" data-name="&lt;Rectangle&gt;" class="cls-16" d="M374.47,42.9h16.6A7.07,7.07,0,0,1,398.13,50V98a0,0,0,0,1,0,0h-31a0,0,0,0,1,0,0V50.28A7.39,7.39,0,0,1,374.47,42.9Z" transform="translate(1.35 -6.98) rotate(1.05)"/><polygon id="_Path_61" data-name="&lt;Path&gt;" class="cls-1" points="389.59 43.02 390.47 46.12 387.88 48.61 388.92 50.63 377.46 66.13 373.33 50.3 374.75 48.27 373.9 45.82 375.9 42.77 389.59 43.02"/><polygon id="_Path_62" data-name="&lt;Path&gt;" class="cls-17" points="376.96 42.79 378.6 60.94 387.8 42.99 376.96 42.79"/><polygon id="_Path_63" data-name="&lt;Path&gt;" class="cls-14" points="381.31 47.52 381.57 55.14 378.6 60.94 378.01 54.45 380.39 47.27 381.31 47.52"/><ellipse id="_Path_64" data-name="&lt;Path&gt;" class="cls-1" cx="379.43" cy="74.67" rx="1.78" ry="1.44" transform="translate(297.84 452.67) rotate(-88.95)"/><ellipse id="_Path_65" data-name="&lt;Path&gt;" class="cls-1" cx="379.25" cy="84.42" rx="1.78" ry="1.44" transform="translate(287.92 462.07) rotate(-88.95)"/><rect id="_Rectangle_8" data-name="&lt;Rectangle&gt;" class="cls-1" x="384.89" y="80.7" width="6.9" height="2.56" transform="translate(775.12 171.04) rotate(-178.95)"/><rect id="_Rectangle_9" data-name="&lt;Rectangle&gt;" class="cls-2" x="402.66" y="64.54" width="5.62" height="21.53" rx="1.76" ry="1.76" transform="translate(724.87 336.19) rotate(-151.28)"/><path id="_Path_66" data-name="&lt;Path&gt;" class="cls-2" d="M405,82.54l-1.43,5.89s-3.33,3.24-5,3.82a9.49,9.49,0,0,1-5.08-.16c-1.28-.42,3.92-4.91,3.92-4.91l1.69-5.77Z"/><rect id="_Rectangle_10" data-name="&lt;Rectangle&gt;" class="cls-1" x="400.97" y="37.69" width="6.99" height="29.11" rx="3.49" ry="3.49" transform="translate(631.73 -286.38) rotate(116.51)"/><path id="_Path_67" data-name="&lt;Path&gt;" class="cls-1" d="M400.4,77.75l6.23,3.17,11.06-22.14a3.49,3.49,0,0,0-1.53-4.7h0a3.49,3.49,0,0,0-4.7,1.53Z"/><rect id="_Rectangle_11" data-name="&lt;Rectangle&gt;" class="cls-17" x="397.61" y="78.49" width="9.34" height="4.93" transform="translate(716.16 345.25) rotate(-151.28)"/><path id="_Path_68" data-name="&lt;Path&gt;" class="cls-6" d="M380.08,39.95c6.65.48,10.28-4.37,11.48-10.47,1.26-6.42-2.95-11.82-8.17-11.93-5.94-.13-9.45,2.12-10.05,8.64-.38,4.09.7,12.32,6.74,13.76Z"/><path id="_Path_69" data-name="&lt;Path&gt;" class="cls-2" d="M382.75,37.16h.07a1.94,1.94,0,0,0-2,2l-.08,4.27c0,1.1.8,1.46,1.9,1.48h0c1.1,0,2-.31,2-1.41l.08-4.27A2,2,0,0,0,382.75,37.16Z"/><path id="_Path_70" data-name="&lt;Path&gt;" class="cls-23" d="M392.16,20.7a15.08,15.08,0,0,1,.44,5.57,1.54,1.54,0,0,0-1.31-.35l-.21,0h0l-.1,0-.1,0-.11,0-.08,0-.13.07-.1.06-.1.07-.09.07-.09.08-.18.17v0l0,0,0,0,0,0h0v0l-.05,2.8a1.26,1.26,0,0,1-.32.94,1.53,1.53,0,0,1-.13.14,2,2,0,0,1-.86.23,1.46,1.46,0,0,1-1.45-1.36l0-1a1.45,1.45,0,0,0-1.3-1.47l-.25,0c0-1.14,0-2,0-2.61s-.23-1.16-1.77-1.35h0l-.43,0h0l-.9,0-7.1-.13-.08,0a3.5,3.5,0,0,1-1.92-1.36,2.11,2.11,0,0,1-.37-1.41l2,0a4,4,0,0,1-1-1.72,9.3,9.3,0,0,1-.41-2.16l3.26.06a11.62,11.62,0,0,1,6.92-1.94c5.7.59,7.52,4.29,7.52,4.29a6.16,6.16,0,0,1,2.48-.39A5.27,5.27,0,0,0,392.16,20.7Z"/><path id="_Path_71" data-name="&lt;Path&gt;" class="cls-24" d="M383.32,23l-.9,0-7.1-.13-.08,0a3.5,3.5,0,0,1-1.92-1.36,2.11,2.11,0,0,1-.37-1.41s1.66,1.94,2.73,2.15l.08,0C376.88,22.43,381.73,22.89,383.32,23Z"/><path id="_Path_72" data-name="&lt;Path&gt;" class="cls-23" d="M384.65,33.83l-.18,1-.41,2.28v0l-.13.73a3.22,3.22,0,0,1-3.8,2.84l-2-.52a2.9,2.9,0,0,1-1.78-1.39,5.28,5.28,0,0,1-.66-2.53l.16-3.3c.16-.88.4-1.21,1.16-1.19l6.47.12h.16A1.64,1.64,0,0,1,384.65,33.83Z"/><path id="_Path_73" data-name="&lt;Path&gt;" class="cls-14" d="M379.35,35.07c-1.38,0-2.57-.79-2.55-1.64v-.2l5.3.1v.2c0,.77-.84,1.58-2.34,1.55Z"/><path id="_Path_74" data-name="&lt;Path&gt;" class="cls-24" d="M373.54,16.23s1.21,2.9,3,3.66c1.5.65,8.89,1,8.89,1a12.62,12.62,0,0,1-2.3.51c-.67.06-7.18.14-8.18-1.3A6.34,6.34,0,0,1,373.54,16.23Z"/><path id="_Path_75" data-name="&lt;Path&gt;" class="cls-23" d="M389.4,30.67a6.43,6.43,0,0,1-1.12.84c-1.48.94-3.58,2.07-4.21,4.71v0c-.3,1.27-.56,1.12-.73.39-.3-1.26-.33-4.25.11-4.79h0c1.25,0,3.61-.75,3.64-2.29S390.9,29.36,389.4,30.67Z"/><path id="_Path_76" data-name="&lt;Path&gt;" class="cls-23" d="M375.69,35.88c.07-1.44-2.36-3.19-2.41-7a3.87,3.87,0,0,0,3.7,2.86C377.43,32.29,376.06,34.77,375.69,35.88Z"/><path id="_Path_77" data-name="&lt;Path&gt;" class="cls-24" d="M388.28,31.5c-1.49,1.13-3.58,2.48-4.23,5.62v0l-.13.73a3.22,3.22,0,0,1-3.8,2.84l-2-.52a2.9,2.9,0,0,1-1.78-1.39,12.28,12.28,0,0,0,3.19.92c1.53.16,3.38-.32,3.82-2.13h0a10.8,10.8,0,0,1,1.15-2.77A6.87,6.87,0,0,1,388.28,31.5Z"/><g id="_Group_7" data-name="&lt;Group&gt;"><line id="_Path_78" data-name="&lt;Path&gt;" class="cls-23" x1="374.79" y1="25.46" x2="377.17" y2="25.38"/><path id="_Path_79" data-name="&lt;Path&gt;" class="cls-23" d="M374.73,25.85a.4.4,0,0,1,.05-.79l2.38-.08a.4.4,0,0,1,0,.79l-2.38.08Z"/></g><g id="_Group_8" data-name="&lt;Group&gt;"><line id="_Path_80" data-name="&lt;Path&gt;" class="cls-23" x1="381.51" y1="25.46" x2="383.89" y2="25.62"/><path id="_Path_81" data-name="&lt;Path&gt;" class="cls-23" d="M381.46,25.06a.4.4,0,0,0,0,.79l2.38.16a.4.4,0,0,0,.05-.79l-2.38-.16Z"/></g><circle id="_Path_82" data-name="&lt;Path&gt;" cx="382.36" cy="28.04" r="0.54" transform="translate(347.33 409.82) rotate(-88.95)"/><circle id="_Path_83" data-name="&lt;Path&gt;" cx="376.12" cy="28.11" r="0.54" transform="matrix(0.02, -1, 1, 0.02, 341.14, 403.66)"/><polygon id="_Path_84" data-name="&lt;Path&gt;" class="cls-9" points="379.44 27.75 379.45 31.15 378.45 30.97 379.44 27.75"/><path id="_Path_85" data-name="&lt;Path&gt;" class="cls-25" d="M384.34,28.8a2.8,2.8,0,0,1-1.67.46h0a3,3,0,0,1-1.65-.52"/><path id="_Path_86" data-name="&lt;Path&gt;" class="cls-25" d="M377.74,28.68a2.8,2.8,0,0,1-1.67.46h0a3,3,0,0,1-1.65-.52"/><polygon id="_Path_87" data-name="&lt;Path&gt;" class="cls-26" points="387.8 42.99 385.14 41.18 382.17 43.54 383.8 47.6 387.8 42.99"/><polygon id="_Path_88" data-name="&lt;Path&gt;" class="cls-26" points="376.96 42.79 380.71 41.1 382.17 43.54 378.85 47.51 376.96 42.79"/><polygon id="_Path_89" data-name="&lt;Path&gt;" class="cls-14" points="382.17 43.54 383.14 45.96 380.58 48.37 379.91 46.23 382.17 43.54"/><path id="_Path_90" data-name="&lt;Path&gt;" class="cls-22" d="M378.06,27v.46a3.11,3.11,0,0,1-3.11,3.11h0a3.11,3.11,0,0,1-3.11-3.11V27"/><path id="_Path_91" data-name="&lt;Path&gt;" class="cls-22" d="M387.06,27v.46a3.11,3.11,0,0,1-3.11,3.11h0a3.11,3.11,0,0,1-3.11-3.11V27"/><line id="_Path_92" data-name="&lt;Path&gt;" class="cls-22" x1="378.06" y1="26.96" x2="380.83" y2="26.96"/><line id="_Path_93" data-name="&lt;Path&gt;" class="cls-22" x1="387.06" y1="26.96" x2="392.29" y2="25.46"/><g id="_Group_9" data-name="&lt;Group&gt;"><path id="_Path_94" data-name="&lt;Path&gt;" class="cls-6" d="M389.87,26.73A3.16,3.16,0,0,1,391,25.6c1.72-1.15,3.69-.16,2.9,1.85-.55,1.4-1.52,4.87-2.59,3.6A6.7,6.7,0,0,1,389.87,26.73Z"/><polygon id="_Path_95" data-name="&lt;Path&gt;" class="cls-9" points="391.17 26.96 393.41 26.62 391.67 29.66 392.29 27.14 391.17 26.96"/></g><path class="cls-27" d="M302.61,95.85h-9.22a2.8,2.8,0,0,1-2.95-2L287.57,76h20.86l-2.87,17.88A2.8,2.8,0,0,1,302.61,95.85Z"/><g id="_Group_10" data-name="&lt;Group&gt;"><circle id="_Path_96" data-name="&lt;Path&gt;" class="cls-28" cx="298" cy="40.56" r="6.2"/><circle id="_Path_97" data-name="&lt;Path&gt;" class="cls-11" cx="298" cy="40.56" r="5.72"/><g id="_Group_11" data-name="&lt;Group&gt;"><line id="_Path_98" data-name="&lt;Path&gt;" class="cls-29" x1="296.15" y1="44.01" x2="301.03" y2="43.04"/><path id="_Path_99" data-name="&lt;Path&gt;" class="cls-30" d="M300.22,39A1.88,1.88,0,0,0,298,37.48h0a1.88,1.88,0,0,0-1.48,2.21l.81,4.08"/><line id="_Path_100" data-name="&lt;Path&gt;" class="cls-29" x1="295.71" y1="41.82" x2="299.16" y2="41.14"/></g></g><polygon class="cls-11" points="313.75 51.42 311.71 58.54 314.74 57.6 315.8 53.91 313.75 51.42"/><rect class="cls-7" x="268.41" y="95.85" width="171.84" height="4.03"/><rect class="cls-7" x="279.29" y="105.9" width="41.85" height="56.29"/><path class="cls-31" d="M319.13,107.91v52.27H281.3V107.91h37.83m4-4H277.28V164.2h45.87V103.89Z"/><rect class="cls-7" x="388.35" y="105.9" width="41.85" height="56.29"/><path class="cls-31" d="M428.19,107.91v52.27H390.36V107.91h37.83m4-4H386.34V164.2h45.87V103.89Z"/><rect class="cls-32" x="314.19" y="115.1" width="80.28" height="37.89" rx="15.65" ry="15.65"/><line class="cls-33" x1="354.33" y1="152.99" x2="354.33" y2="176.92"/><text class="cls-34" transform="translate(327.21 139.88)">Director</text><rect class="cls-18" x="81.05" y="270.11" width="121.56" height="9.74"/><rect class="cls-7" x="110.91" y="278.73" width="62.57" height="44.01"/><rect class="cls-7" x="66.59" y="267.29" width="150.49" height="3.53"/><rect class="cls-7" x="76.11" y="276.09" width="36.65" height="49.29"/><path class="cls-31" d="M111,277.85v45.77H77.87V277.85H111m3.52-3.52H74.35v52.81h40.17V274.33Z"/><rect class="cls-7" x="171.62" y="276.09" width="36.65" height="49.29"/><path class="cls-31" d="M206.51,277.85v45.77H173.38V277.85h33.13m3.52-3.52H169.86v52.81H210V274.33Z"/><rect class="cls-16" x="143.47" y="224.02" width="40.95" height="32.44" rx="2.69" ry="2.69"/><path class="cls-35" d="M163.95,240.85h0a4.61,4.61,0,0,1,4.61,4.61v19.13a0,0,0,0,1,0,0h-9.21a0,0,0,0,1,0,0V245.46A4.61,4.61,0,0,1,163.95,240.85Z"/><rect class="cls-16" x="152.99" y="263.96" width="21.91" height="3.33" rx="1.66" ry="1.66"/><rect class="cls-16" x="84.15" y="263.96" width="40.82" height="3.33" rx="1.66" ry="1.66"/><path class="cls-36" d="M154.85,243.78v13.36a8.74,8.74,0,0,1-8.74,8.74h0"/><circle class="cls-26" cx="154.85" cy="243.78" r="0.97"/><path id="_Path_101" data-name="&lt;Path&gt;" class="cls-3" d="M342.87,216a47.35,47.35,0,0,0-3.4-4.12c1-2,3.74-.51,3.74-.51Z"/><rect class="cls-1" x="332.91" y="202.81" width="8.62" height="14.73" rx="2" ry="2" transform="translate(-35.56 72.61) rotate(-11.68)"/><rect class="cls-19" x="333.94" y="204.54" width="6.57" height="11.26" transform="translate(-35.56 72.61) rotate(-11.68)"/><rect class="cls-1" x="305.17" y="239.73" width="46.07" height="55.11" rx="12.84" ry="12.84"/><path id="_Path_102" data-name="&lt;Path&gt;" class="cls-3" d="M347.38,266.47a47.35,47.35,0,0,1,5.33-.22c.85-2.09-2.12-3.12-2.12-3.12Z"/><path id="_Path_103" data-name="&lt;Path&gt;" class="cls-2" d="M330.2,227.65h0a2.78,2.78,0,0,0,1.44,3.66l22,9.36a2.78,2.78,0,0,0,3.66-1.44h0a2.78,2.78,0,0,0-1.44-3.66l-22-9.36A2.78,2.78,0,0,0,330.2,227.65Z"/><path id="_Path_104" data-name="&lt;Path&gt;" class="cls-4" d="M350.2,232l-2.75,6.43-16.08-6.79a3.51,3.51,0,0,1-1.84-4.59h0a3.51,3.51,0,0,1,4.59-1.84Z"/><path id="_Path_105" data-name="&lt;Path&gt;" class="cls-5" d="M316.75,225.52l16.86-.94a6,6,0,0,1,6.36,5.69s-.69,15.14-.41,20.16c.36,6.52,3,26,3,26L313.63,278s.73-19.45.37-25.9c-.28-5.09-2.94-20.27-2.94-20.27A6,6,0,0,1,316.75,225.52Z"/><path id="_Path_106" data-name="&lt;Path&gt;" class="cls-37" d="M333.73,199.21s2.78-.73,3.1,5a25,25,0,0,1-.42,5.65l-4.54-4.71-4.53-1.73,5.41-2.3Z"/><path id="_Path_107" data-name="&lt;Path&gt;" class="cls-6" d="M330.27,223.5c-6.71.74-10.57-4-12-10.15-1.52-6.44,2.54-12.07,7.81-12.38,6-.35,9.64,1.79,10.5,8.36.54,4.12-.24,12.49-6.3,14.17Z"/><g id="_Group_12" data-name="&lt;Group&gt;"><line id="_Path_108" data-name="&lt;Path&gt;" class="cls-7" x1="335.39" y1="210.14" x2="332.94" y2="209.47"/><path id="_Path_109" data-name="&lt;Path&gt;" class="cls-7" d="M335.36,210.56a.42.42,0,0,0,.14-.83l-2.45-.67a.42.42,0,1,0-.22.82l2.45.67Z"/></g><g id="_Group_13" data-name="&lt;Group&gt;"><line id="_Path_110" data-name="&lt;Path&gt;" class="cls-7" x1="328.76" y1="209.81" x2="326.33" y2="210.54"/><path id="_Path_111" data-name="&lt;Path&gt;" class="cls-7" d="M328.72,209.39a.42.42,0,0,1,.16.83l-2.43.73a.42.42,0,0,1-.24-.81l2.43-.73Z"/></g><circle id="_Path_112" data-name="&lt;Path&gt;" cx="328.01" cy="212.83" r="0.57" transform="translate(-11.31 18.55) rotate(-3.18)"/><circle id="_Path_113" data-name="&lt;Path&gt;" cx="334.13" cy="212.68" r="0.57" transform="translate(-11.3 18.89) rotate(-3.18)"/><polygon id="_Path_114" data-name="&lt;Path&gt;" class="cls-9" points="331.07 211.84 331.27 216.81 332.32 216.51 331.07 211.84"/><ellipse id="_Path_115" data-name="&lt;Path&gt;" class="cls-37" cx="316.39" cy="201.16" rx="4.42" ry="3.45" transform="translate(17.41 427.39) rotate(-69.56)"/><path id="_Path_116" data-name="&lt;Path&gt;" class="cls-38" d="M319.45,214a2.1,2.1,0,0,0,2.41-2.75c1.59-.34,9.23-4.09,12-12-2.22-3.93-5.79-4.28-9.6-3.42-5.64,1.28-11.44,5.89-7.48,16.75C317.05,213.42,318.62,213.44,319.45,214Z"/><g id="_Group_14" data-name="&lt;Group&gt;"><path id="_Path_117" data-name="&lt;Path&gt;" class="cls-6" d="M320.2,211.22a3.19,3.19,0,0,0-1.17-1.1c-1.79-1.1-3.74,0-2.86,2,.61,1.4,1.72,4.87,2.76,3.54A6.78,6.78,0,0,0,320.2,211.22Z"/><polygon id="_Path_118" data-name="&lt;Path&gt;" class="cls-9" points="318.89 211.5 316.61 211.24 318.49 214.25 317.77 211.72 318.89 211.5"/></g><circle id="_Path_119" data-name="&lt;Path&gt;" class="cls-39" cx="318.56" cy="216.11" r="1.03" transform="translate(-11.51 18.03) rotate(-3.18)"/><path id="_Path_120" data-name="&lt;Path&gt;" class="cls-4" d="M333.91,225.89c.21,3.74-3.21,7-7.61,7.22s-8.15-2.6-8.36-6.33a5.83,5.83,0,0,1,.08-1.33l15.66-.87A5.83,5.83,0,0,1,333.91,225.89Z"/><path id="_Path_121" data-name="&lt;Path&gt;" class="cls-2" d="M319.2,226.71c.17,3.05,3.32,5.36,7,5.15s6.59-2.85,6.42-5.9a4.55,4.55,0,0,0-.27-1.31l-13.07.73A4.55,4.55,0,0,0,319.2,226.71Z"/><path id="_Rectangle_12" data-name="&lt;Rectangle&gt;" class="cls-2" d="M325.83,218.46h.6A1.58,1.58,0,0,1,328,220v8.51a2.19,2.19,0,0,1-2.19,2.19h0a2.19,2.19,0,0,1-2.19-2.19v-7.91a2.19,2.19,0,0,1,2.19-2.19Z" transform="translate(663.63 430.75) rotate(176.82)"/><path id="_Path_122" data-name="&lt;Path&gt;" class="cls-2" d="M312.57,228.87h0a2.78,2.78,0,0,1,3.73,1.25l10.49,21.5a2.78,2.78,0,0,1-1.25,3.73h0a2.78,2.78,0,0,1-3.73-1.25l-10.49-21.5A2.78,2.78,0,0,1,312.57,228.87Z"/><path id="_Path_123" data-name="&lt;Path&gt;" class="cls-4" d="M317.91,247.82l6.28-3.08L316.57,229a3.51,3.51,0,0,0-4.68-1.6h0a3.51,3.51,0,0,0-1.6,4.68Z"/><path id="_Path_124" data-name="&lt;Path&gt;" class="cls-2" d="M322,251.64h0a2.78,2.78,0,0,0,1.09,3.78l21,11.4a2.78,2.78,0,0,0,3.78-1.09h0a2.78,2.78,0,0,0-1.09-3.78l-21-11.4A2.78,2.78,0,0,0,322,251.64Z"/><rect id="_Rectangle_13" data-name="&lt;Rectangle&gt;" class="cls-11" x="329.43" y="240.61" width="6.49" height="2.91" transform="translate(679.11 463.99) rotate(176.6)"/><path id="_Path_125" data-name="&lt;Path&gt;" class="cls-2" d="M355.95,240.63h0a2.78,2.78,0,0,1-3.66-1.45L343,217.11a2.78,2.78,0,0,1,1.45-3.66h0a2.78,2.78,0,0,1,3.66,1.45L357.4,237A2.78,2.78,0,0,1,355.95,240.63Z"/><path id="_Path_126" data-name="&lt;Path&gt;" class="cls-2" d="M348.5,215.6,347.44,210s-2.95-3.17-4.49-3.79a8.84,8.84,0,0,0-4.73-.09c-1.21.33,3.42,4.76,3.42,4.76l1.31,5.45Z"/><path id="_Path_127" data-name="&lt;Path&gt;" class="cls-40" d="M332.33,219.35h0a5.63,5.63,0,0,1-3.21-.32"/><rect class="cls-18" x="293.55" y="270.11" width="121.56" height="9.74"/><rect class="cls-7" x="323.41" y="278.73" width="62.57" height="44.01"/><rect class="cls-7" x="279.09" y="267.29" width="150.49" height="3.53"/><rect class="cls-7" x="288.61" y="276.09" width="36.65" height="49.29"/><path class="cls-31" d="M323.51,277.85v45.77H290.37V277.85h33.13m3.52-3.52H286.85v52.81H327V274.33Z"/><rect class="cls-7" x="384.12" y="276.09" width="36.65" height="49.29"/><path class="cls-31" d="M419,277.85v45.77H385.88V277.85H419m3.52-3.52H382.36v52.81h40.17V274.33Z"/><path class="cls-17" d="M352.94,261.67h2.4a4.65,4.65,0,0,1,4.65,4.65v0a1,1,0,0,1-1,1h-9.78a1,1,0,0,1-1-1v0A4.65,4.65,0,0,1,352.94,261.67Z"/><path id="_Path_128" data-name="&lt;Path&gt;" class="cls-2" d="M343.92,262l4.83-2.92s4.33.07,5.82.81a8.85,8.85,0,0,1,3.23,3.46c.56,1.13-5.83.63-5.83.63l-4.93,2.67Z"/><rect class="cls-16" x="355.97" y="224.02" width="40.95" height="32.44" rx="2.69" ry="2.69"/><path class="cls-35" d="M376.45,240.85h0a4.61,4.61,0,0,1,4.61,4.61v19.13a0,0,0,0,1,0,0h-9.21a0,0,0,0,1,0,0V245.46A4.61,4.61,0,0,1,376.45,240.85Z"/><rect class="cls-16" x="365.49" y="263.96" width="21.91" height="3.33" rx="1.66" ry="1.66"/><rect class="cls-16" x="296.65" y="263.96" width="40.82" height="3.33" rx="1.66" ry="1.66"/><path class="cls-36" d="M367.35,243.78v13.36a8.74,8.74,0,0,1-8.74,8.74h0"/><circle class="cls-26" cx="367.35" cy="243.78" r="0.97"/><rect class="cls-18" x="506.05" y="270.11" width="121.56" height="9.74" transform="translate(1133.66 549.97) rotate(-180)"/><rect class="cls-7" x="535.18" y="278.73" width="62.57" height="44.01" transform="translate(1132.94 601.47) rotate(-180)"/><rect class="cls-7" x="491.59" y="267.29" width="150.49" height="3.53" transform="translate(1133.66 538.11) rotate(-180)"/><rect class="cls-7" x="595.89" y="276.09" width="36.65" height="49.29"/><path class="cls-31" d="M630.79,277.85v45.77H597.65V277.85h33.13m3.52-3.52H594.13v52.81h40.17V274.33Z"/><rect class="cls-7" x="500.39" y="276.09" width="36.65" height="49.29"/><path class="cls-31" d="M535.28,277.85v45.77H502.15V277.85h33.13m3.52-3.52H498.63v52.81H538.8V274.33Z"/><path class="cls-17" d="M542.13,261.67h9.78a1,1,0,0,1,1,1v0a4.65,4.65,0,0,1-4.65,4.65h-2.4a4.65,4.65,0,0,1-4.65-4.65v0a1,1,0,0,1,1-1Z" transform="translate(1094.04 528.95) rotate(180)"/><rect class="cls-16" x="504.24" y="224.02" width="40.95" height="32.44" rx="2.69" ry="2.69" transform="translate(1049.43 480.48) rotate(-180)"/><path class="cls-35" d="M520.11,240.85h9.21a0,0,0,0,1,0,0V260a4.61,4.61,0,0,1-4.61,4.61h0a4.61,4.61,0,0,1-4.61-4.61V240.85a0,0,0,0,1,0,0Z" transform="translate(1049.43 505.45) rotate(-180)"/><rect class="cls-16" x="513.76" y="263.96" width="21.91" height="3.33" rx="1.66" ry="1.66" transform="translate(1049.43 531.25) rotate(180)"/><path class="cls-36" d="M533.81,243.78v13.36a8.74,8.74,0,0,0,8.74,8.74h0"/><circle class="cls-26" cx="533.81" cy="243.78" r="0.97"/><line class="cls-41" x1="563.75" y1="176.92" x2="559.73" y2="176.92"/><line class="cls-42" x1="551.67" y1="176.92" x2="152.98" y2="176.92"/><line class="cls-41" x1="148.95" y1="176.92" x2="144.93" y2="176.92"/><line class="cls-33" x1="354.33" y1="201.16" x2="354.33" y2="176.92"/><line class="cls-33" x1="563.75" y1="201.16" x2="563.75" y2="176.92"/><line class="cls-33" x1="144.93" y1="201.16" x2="144.93" y2="176.92"/><path class="cls-11" d="M561.83,252.44h10.88a0,0,0,0,1,0,0v13.2a1.67,1.67,0,0,1-1.67,1.67H563.5a1.67,1.67,0,0,1-1.67-1.67v-13.2A0,0,0,0,1,561.83,252.44Z"/><path id="_Path_129" data-name="&lt;Path&gt;" class="cls-2" d="M578.71,257.25l-5.88-1.61s-4.47,1.35-5.81,2.55a9.54,9.54,0,0,0-2.33,4.54c-.25,1.33,6.23-1.06,6.23-1.06l5.9,1.32Z"/><path class="cls-26" d="M578.89,217.09a1.7,1.7,0,0,1,.42-2.44,4.45,4.45,0,1,0-1.1,7,6.17,6.17,0,0,0,0-3.19A1.7,1.7,0,0,1,578.89,217.09Z"/><path id="_Path_130" data-name="&lt;Path&gt;" class="cls-2" d="M567.3,221.64l.92-6s3.05-3.53,4.69-4.26a9.54,9.54,0,0,1,5.1-.28c1.32.31-3.5,5.26-3.5,5.26L572.64,223Z"/><path class="cls-36" d="M137.46,247v10.12a8.74,8.74,0,0,0,8.74,8.74h0"/><path class="cls-17" d="M131.41,245.53h2.4a4.65,4.65,0,0,1,4.65,4.65v0a1,1,0,0,1-1,1h-9.78a1,1,0,0,1-1-1v0a4.65,4.65,0,0,1,4.65-4.65Z" transform="matrix(-1, 0.08, -0.08, -1, 284.03, 485.68)"/><path id="_Path_131" data-name="&lt;Path&gt;" class="cls-2" d="M123.12,257.37l6.45.81s4.5-2.1,5.72-3.57a10.1,10.1,0,0,0,1.74-5.14c.06-1.44-6.4,2.06-6.4,2.06l-5.94.15Z"/><rect class="cls-32" x="104.58" y="282.98" width="75.24" height="35.51" rx="14.67" ry="14.67"/><text class="cls-43" transform="translate(114.37 305.12)">Manager</text><rect class="cls-32" x="316.71" y="282.98" width="75.24" height="35.51" rx="14.67" ry="14.67"/><text class="cls-43" transform="translate(326.5 305.12)">Manager</text><rect class="cls-32" x="528.85" y="282.98" width="75.24" height="35.51" rx="14.67" ry="14.67"/><text class="cls-43" transform="translate(538.64 305.12)">Manager</text><rect class="cls-14" x="104.58" y="373.52" width="75.24" height="35.51" rx="14.67" ry="14.67"/><rect class="cls-44" x="104.58" y="373.52" width="75.24" height="35.51" rx="14.67" ry="14.67"/><text class="cls-43" transform="translate(126.3 395.66)">Staff</text><rect class="cls-14" x="317.08" y="373.52" width="75.24" height="35.51" rx="14.67" ry="14.67"/><rect class="cls-44" x="317.08" y="373.52" width="75.24" height="35.51" rx="14.67" ry="14.67"/><text class="cls-43" transform="translate(338.8 395.66)">Staff</text><rect class="cls-14" x="528.85" y="373.52" width="75.24" height="35.51" rx="14.67" ry="14.67"/><rect class="cls-44" x="528.85" y="373.52" width="75.24" height="35.51" rx="14.67" ry="14.67"/><text class="cls-43" transform="translate(550.57 395.66)">Staff</text><line class="cls-33" x1="354.33" y1="373" x2="354.33" y2="318.76"/><line class="cls-33" x1="563.75" y1="373" x2="563.75" y2="318.76"/><line class="cls-33" x1="144.93" y1="373" x2="144.93" y2="318.76"/><rect class="cls-14" x="104.58" y="464.52" width="75.24" height="35.51" rx="14.67" ry="14.67"/><rect class="cls-44" x="104.58" y="464.52" width="75.24" height="35.51" rx="14.67" ry="14.67"/><text class="cls-43" transform="translate(126.3 486.66)">Staff</text><rect class="cls-14" x="317.08" y="464.52" width="75.24" height="35.51" rx="14.67" ry="14.67"/><rect class="cls-44" x="317.08" y="464.52" width="75.24" height="35.51" rx="14.67" ry="14.67"/><text class="cls-43" transform="translate(338.8 486.66)">Staff</text><rect class="cls-14" x="528.85" y="464.52" width="75.24" height="35.51" rx="14.67" ry="14.67"/><rect class="cls-44" x="528.85" y="464.52" width="75.24" height="35.51" rx="14.67" ry="14.67"/><text class="cls-43" transform="translate(550.57 486.66)">Staff</text><line class="cls-33" x1="354.33" y1="464" x2="354.33" y2="409.76"/><line class="cls-33" x1="563.75" y1="464" x2="563.75" y2="409.76"/><line class="cls-33" x1="144.93" y1="464" x2="144.93" y2="409.76"/><rect class="cls-14" x="104.58" y="556.52" width="75.24" height="35.51" rx="14.67" ry="14.67"/><rect class="cls-44" x="104.58" y="556.52" width="75.24" height="35.51" rx="14.67" ry="14.67"/><text class="cls-43" transform="translate(126.3 578.66)">Staff</text><rect class="cls-14" x="317.08" y="556.52" width="75.24" height="35.51" rx="14.67" ry="14.67"/><rect class="cls-44" x="317.08" y="556.52" width="75.24" height="35.51" rx="14.67" ry="14.67"/><text class="cls-43" transform="translate(338.8 578.66)">Staff</text><rect class="cls-14" x="528.85" y="556.52" width="75.24" height="35.51" rx="14.67" ry="14.67"/><rect class="cls-44" x="528.85" y="556.52" width="75.24" height="35.51" rx="14.67" ry="14.67"/><text class="cls-43" transform="translate(550.57 578.66)">Staff</text><line class="cls-33" x1="354.33" y1="556" x2="354.33" y2="501.76"/><line class="cls-33" x1="563.75" y1="556" x2="563.75" y2="501.76"/><line class="cls-33" x1="144.93" y1="556" x2="144.93" y2="501.76"/></svg>