<svg id="Layer_1" data-name="Layer 1" xmlns="http://www.w3.org/2000/svg" xmlns:xlink="http://www.w3.org/1999/xlink" viewBox="0 0 708.66 481.89"><defs><style>.cls-1,.cls-16,.cls-33,.cls-39,.cls-40,.cls-8{fill:none;}.cls-2{fill:#754d24;}.cls-3{fill:#d5eff0;}.cls-10,.cls-4,.cls-5{opacity:0.07;}.cls-28,.cls-30,.cls-5{fill-rule:evenodd;}.cls-6{clip-path:url(#clip-path);}.cls-7{fill:#515180;}.cls-8{stroke:#fec82b;stroke-width:3px;}.cls-16,.cls-39,.cls-8{stroke-miterlimit:10;}.cls-9{fill:#fec82b;}.cls-10{fill:#161616;}.cls-11{fill:#444443;}.cls-12{fill:#a5c4d6;}.cls-13{fill:#a1b8d3;}.cls-14{fill:#bbd8f9;}.cls-14,.cls-15{opacity:0.44;}.cls-15{fill:#e8f1f9;}.cls-16{stroke:#8b6339;stroke-width:9px;}.cls-17,.cls-28{fill:#f8ab8d;}.cls-18{fill:#ffdc83;}.cls-19{fill:#58595b;}.cls-20{fill:#19a4a4;}.cls-21{fill:#bbbdbf;}.cls-22{fill:#404041;}.cls-23{fill:#648ec9;}.cls-24,.cls-30{fill:#dc846a;}.cls-25{fill:#e59a83;}.cls-26{fill:#353560;}.cls-27{fill:#3952a0;}.cls-29{fill:#8b6339;}.cls-31{fill:#f4c362;}.cls-32{fill:#fff;}.cls-33{stroke:#9b9b9b;}.cls-33,.cls-40{stroke-linecap:round;stroke-linejoin:round;}.cls-34{fill:#54402b;}.cls-35{fill:#6c4e38;}.cls-36{fill:#686867;}.cls-37{fill:#f4f4f4;}.cls-38{fill:#9b9b9a;}.cls-39{stroke:#686867;}.cls-40{stroke:#dc846a;stroke-width:2px;}.cls-41{font-size:12px;fill:#2d2d2d;font-family:Impact, Impact;}.cls-42{fill:#5e8bb7;}.cls-43{fill:#5378a5;}.cls-44{fill:#fece57;}</style><clipPath id="clip-path"><rect class="cls-1" x="45.46" y="144.15" width="631.47" height="239.07" rx="50.28" ry="50.28"/></clipPath></defs><title>CS-L2-U8</title><path id="_Path_" data-name="&lt;Path&gt;" class="cls-2" d="M453.18,54.58c-1.19-.06-2.5-.09-4-.09H417.83l-.36-.09c-1.34-.37-6.12-2-8.59-5.88-2.25-3.6-1.74-6.21-1.74-6.21s7.48,8.42,12.26,9.28l.37.06C424.65,52.4,446.12,54,453.18,54.58Z"/><path id="_Path_2" data-name="&lt;Path&gt;" class="cls-2" d="M409.39,25.25S415,38,422.86,41.2c6.7,2.74,39.4,3.79,39.4,3.79a55.82,55.82,0,0,1-10.14,2.42c-3,.31-31.75,1.21-36.27-5.11A28,28,0,0,1,409.39,25.25Z"/><rect class="cls-3" x="45.46" y="144.15" width="631.47" height="239.07" rx="50.28" ry="50.28"/><g class="cls-4"><path d="M410.19,53.1a60.06,60.06,0,0,0-2.38,13.33c-1.28,17.17,3.88,51.58,29.31,57.16,24.65,1.32,39.1-14.6,45.29-36a21,21,0,0,0,1.31,1.66C488.3,94.5,492,80,494.23,74.12c1.83-4.89-.2-8.28-3.6-9.29.17-6.63-.19-15.27-2.54-21.32,1.48-5.46,3.41-7.14,6.7-10.95a27.25,27.25,0,0,0-10.93,1.94s-8.35-16.24-33.62-18.37c-16-1.35-30.45,9.14-30.45,9.14H405.38a41.15,41.15,0,0,0,2,9.52,17.62,17.62,0,0,0,4.47,7.53h-8.69s-.51,2.62,1.74,6.21A13.3,13.3,0,0,0,410.19,53.1Z"/><path d="M561.92,204.29l-50.6-69.2,2.41-1.43-9-15.24-20.4,12.07H417.7a22.93,22.93,0,0,0-18.63,9.61l-60.61,24.64-93.35,3.4a.12.12,0,0,0-.12.13l0,1.63-18.8,0A4.83,4.83,0,0,0,225,170c-4.88-1-13.22-2.86-17.44-4.44-2.67,3.38-1.82,6.8-.14,9.49-3.37-1.24-24-8.64-23.16-4,.35,1.9,2.9,12,8.76,17.3,5,4.59,22,9.82,22,9.82l22.35-6-.31-1,8.64,0,.1,3.34a.12.12,0,0,0,.13.12l89.63-3.26a10.45,10.45,0,0,0,7.87,0l51.4-20.89V352.91H513.29V183l27,36.92a13.33,13.33,0,0,0,21.64-15.59Z"/></g><path class="cls-5" d="M388,237.57c-1.14-1.23-9.08-3.41-15.5-4.85-4.32-1-12.85,3.06-16.36,4.86v-.45h-.74v-.06l-5.51.16-2.59,0v0l-43.78,1.23,4.58-48.16c0-10.81-10.65-19.58-23.78-19.58h-22v-8.37a46,46,0,0,0,9.1.38c24.22-5.32,29.13-38.08,27.91-54.43,0-.29-.05-.57-.08-.85a96.81,96.81,0,0,0,2.21-19.31c0-20.75-9.37-20.52-10.89-20.34-7.9-15.63-21.78-17.75-36.87-15.21a51.6,51.6,0,0,0-20,7.62,11.3,11.3,0,0,0-5.07-4.48c-6.89-3-15.61,1.69-19.47,10.52s-1.4,18.42,5.5,21.44a10.79,10.79,0,0,0,2.45.73,64.68,64.68,0,0,0,1.34,20.08,7.42,7.42,0,0,0,0,6.25c2.11,5.63,5.7,19.57,10.1,14.55l0,0c3.22,10.68,8.65,19.87,16.55,25.92v15.54H217.75c-13.13,0-23.78,8.77-23.78,19.58,0,0,7.14,49.67,7.14,66.23,0,21-7.62,108.68-7.62,108.68H307.64l-6-102.88,54.11-1.52.24.22.53-.43h.06v0l9.86-8S391.08,240.85,388,237.57Z"/><g class="cls-6"><rect class="cls-7" x="512.34" y="48.31" width="252.34" height="211.47"/><circle class="cls-8" cx="555.88" cy="91.85" r="10.66"/><rect class="cls-9" x="551.43" y="103.4" width="7.11" height="33.76" transform="translate(1109.97 240.56) rotate(180)"/><rect class="cls-9" x="544.32" y="135.39" width="14.22" height="1.78" transform="translate(1102.87 272.55) rotate(180)"/><rect class="cls-9" x="546.1" y="130.05" width="12.44" height="1.78" transform="translate(1104.64 261.89) rotate(180)"/><circle class="cls-10" cx="555.88" cy="84.74" r="2.67"/><circle class="cls-11" cx="555.88" cy="84.74" r="2.67"/><circle class="cls-12" cx="563.22" cy="104.03" r="2.1" transform="translate(187.31 536.15) rotate(-59.44)"/><circle class="cls-12" cx="563.53" cy="104.87" r="2.1" transform="translate(186.74 536.83) rotate(-59.44)"/><path class="cls-12" d="M567.11,97.66l-10.55,3.51-1.42,6.92,8.3,25,17-5.66-8.26-24.84ZM577.81,126l-13.08,4.35L557.29,108l1.09-5.32,8.11-2.7,3.91,3.76Z"/><path class="cls-13" d="M558.38,102.66,557.29,108l7.45,22.39L577.81,126l-7.42-22.29L566.49,100Zm5.23,2.49a1.45,1.45,0,1,1,.92-1.83A1.45,1.45,0,0,1,563.61,105.14Z"/><rect class="cls-12" x="560.97" y="96.73" width="2.31" height="7.28" rx="0.72" ry="0.72" transform="translate(-2.97 182.37) rotate(-18.38)"/><circle class="cls-8" cx="662.5" cy="91.85" r="10.66"/><rect class="cls-9" x="658.05" y="103.4" width="7.11" height="33.76" transform="translate(1323.22 240.56) rotate(180)"/><rect class="cls-9" x="650.95" y="135.39" width="14.22" height="1.78" transform="translate(1316.11 272.55) rotate(180)"/><rect class="cls-9" x="652.72" y="130.05" width="12.44" height="1.78" transform="translate(1317.89 261.89) rotate(180)"/><circle class="cls-12" cx="657.57" cy="106.47" r="2.1" transform="translate(-5.77 167.38) rotate(-14.44)"/><circle class="cls-12" cx="657.19" cy="107.29" r="2.1" transform="translate(-5.99 167.31) rotate(-14.44)"/><path class="cls-12" d="M664.82,104.72l-9.94-5-5.9,3.89L637.2,127.15l16,8L665,111.77Zm-12.48,27.61L640,126.17l10.56-21.09,4.53-3,7.64,3.83.1,5.42Z"/><path class="cls-13" d="M655.11,102.08l-4.53,3L640,126.17l12.32,6.17,10.52-21-.1-5.42Zm1.94,5.45a1.45,1.45,0,1,1,1.95-.65A1.45,1.45,0,0,1,657.05,107.54Z"/><rect class="cls-12" x="655.74" y="101.95" width="7.28" height="2.31" rx="0.72" ry="0.72" transform="translate(271.75 646.39) rotate(-63.38)"/><circle class="cls-8" cx="715.81" cy="91.85" r="10.66"/><rect class="cls-9" x="704.26" y="135.39" width="14.22" height="1.78" transform="translate(1422.73 272.55) rotate(180)"/><rect class="cls-9" x="706.03" y="130.05" width="12.44" height="1.78" transform="translate(1424.51 261.89) rotate(180)"/><path class="cls-12" d="M719.82,101.08l-11.06,1.14-2.88,6.45,2.7,26.17L726.42,133l-2.69-26Zm4.31,30-13.71,1.42L708,109l2.22-5,8.5-.88,3,4.52Z"/><path class="cls-13" d="M710.22,104.07,708,109l2.42,23.47,13.71-1.42-2.41-23.37-3-4.52Zm4.56,3.56a1.45,1.45,0,1,1,1.29-1.59A1.45,1.45,0,0,1,714.79,107.62Z"/><circle class="cls-8" cx="554.1" cy="180.7" r="10.66"/><rect class="cls-9" x="549.66" y="192.25" width="7.11" height="33.76" transform="translate(1106.42 418.27) rotate(180)"/><rect class="cls-9" x="542.55" y="224.24" width="14.22" height="1.78" transform="translate(1099.31 450.25) rotate(180)"/><rect class="cls-9" x="544.32" y="218.91" width="12.44" height="1.78" transform="translate(1101.09 439.59) rotate(180)"/><circle class="cls-8" cx="607.41" cy="180.7" r="10.66"/><rect class="cls-9" x="602.97" y="192.25" width="7.11" height="33.76" transform="translate(1213.04 418.27) rotate(180)"/><rect class="cls-9" x="595.86" y="224.24" width="14.22" height="1.78" transform="translate(1205.93 450.25) rotate(180)"/><rect class="cls-9" x="597.64" y="218.91" width="12.44" height="1.78" transform="translate(1207.71 439.59) rotate(180)"/><circle class="cls-8" cx="660.72" cy="180.7" r="10.66"/><rect class="cls-9" x="656.28" y="192.25" width="7.11" height="33.76" transform="translate(1319.66 418.27) rotate(180)"/><rect class="cls-9" x="649.17" y="224.24" width="14.22" height="1.78" transform="translate(1312.55 450.25) rotate(180)"/><rect class="cls-9" x="650.95" y="218.91" width="12.44" height="1.78" transform="translate(1314.33 439.59) rotate(180)"/><circle class="cls-12" cx="657.43" cy="194.24" r="2.1" transform="translate(19.99 446.45) rotate(-38.05)"/><circle class="cls-12" cx="657.41" cy="195.13" r="2.1" transform="translate(19.44 446.63) rotate(-38.05)"/><path class="cls-12" d="M663.37,189.73l-11.1-.58-3.85,5.93L647,221.34l17.9.94,1.37-26.14ZM663,220l-13.76-.72,1.23-23.56,3-4.56,8.53.45,2.27,4.93Z"/><path class="cls-13" d="M653.42,191.19l-3,4.56-1.23,23.56L663,220l1.23-23.46L662,191.64Zm4,4.22A1.45,1.45,0,1,1,658.9,194,1.45,1.45,0,0,1,657.38,195.42Z"/><rect class="cls-12" x="654.1" y="189.27" width="7.28" height="2.31" rx="0.72" ry="0.72" transform="translate(432.97 837.23) rotate(-86.98)"/><circle class="cls-8" cx="714.03" cy="180.7" r="10.66"/><rect class="cls-9" x="702.48" y="224.24" width="14.22" height="1.78" transform="translate(1419.18 450.25) rotate(180)"/><rect class="cls-9" x="704.26" y="218.91" width="12.44" height="1.78" transform="translate(1420.95 439.59) rotate(180)"/><circle class="cls-10" cx="609.19" cy="84.74" r="2.67"/><circle class="cls-10" cx="662.5" cy="84.74" r="2.67"/><circle class="cls-10" cx="660.72" cy="173.59" r="2.67"/><circle class="cls-10" cx="554.1" cy="173.59" r="2.67"/><circle class="cls-10" cx="607.41" cy="173.59" r="2.67"/><circle class="cls-11" cx="607.41" cy="173.59" r="2.67"/><circle class="cls-11" cx="552.32" cy="173.59" r="2.67"/><circle class="cls-11" cx="660.72" cy="173.59" r="2.67"/><circle class="cls-8" cx="609.19" cy="91.85" r="10.66"/><rect class="cls-9" x="604.74" y="103.4" width="7.11" height="33.76" transform="translate(1216.6 240.56) rotate(180)"/><rect class="cls-9" x="597.64" y="135.39" width="14.22" height="1.78" transform="translate(1209.49 272.55) rotate(180)"/><rect class="cls-9" x="599.41" y="130.05" width="12.44" height="1.78" transform="translate(1211.26 261.89) rotate(180)"/><circle class="cls-11" cx="609.19" cy="84.74" r="2.67"/><circle class="cls-12" cx="606.68" cy="106.05" r="2.1" transform="translate(30.07 322.45) rotate(-30.49)"/><circle class="cls-12" cx="606.54" cy="106.93" r="2.1" transform="translate(29.6 322.5) rotate(-30.49)"/><path class="cls-12" d="M613.16,102.36l-10.93-2-4.59,5.37-4.82,25.86,17.62,3.29,4.8-25.74Zm-4.36,30-13.55-2.53,4.32-23.19,3.53-4.13,8.4,1.57,1.6,5.18Z"/><path class="cls-13" d="M603.11,102.51l-3.53,4.13-4.32,23.19,13.55,2.53,4.31-23.1-1.6-5.18Zm3.37,4.71a1.45,1.45,0,1,1,1.69-1.16A1.45,1.45,0,0,1,606.48,107.21Z"/><rect class="cls-12" x="603.85" y="101.15" width="7.28" height="2.31" rx="0.72" ry="0.72" transform="translate(395.4 680.7) rotate(-79.42)"/><circle class="cls-11" cx="662.5" cy="84.74" r="2.67"/><circle class="cls-12" cx="605.63" cy="194.92" r="2.67"/><path class="cls-12" d="M611.08,189.75,600,189.42l-3.72,6-.8,26.29,17.92.54.8-26.17Zm.29,30.3-13.77-.42.72-23.58,2.86-4.62,8.54.26,2.37,4.87Z"/><path class="cls-13" d="M601.17,191.44l-2.86,4.62-.72,23.58,13.77.42.71-23.48-2.37-4.87Zm4.05,4.13a1.45,1.45,0,1,1,1.49-1.41A1.45,1.45,0,0,1,605.22,195.57Z"/><rect class="cls-12" x="601.83" y="189.42" width="7.28" height="2.31" rx="0.72" ry="0.72" transform="translate(396.38 789.9) rotate(-88.24)"/><circle class="cls-12" cx="550.54" cy="194.92" r="2.67"/><path class="cls-12" d="M557.37,192.07l-10.5-3.63-5.34,4.63-8.6,24.86,16.94,5.86L558.43,199Zm-8.76,29-13-4.51,7.71-22.29,4.1-3.56,8.07,2.79.81,5.36Z"/><path class="cls-13" d="M547.4,190.72l-4.1,3.56-7.71,22.29,13,4.51,7.68-22.2-.81-5.36Zm2.63,5.15a1.45,1.45,0,1,1,1.85-.9A1.45,1.45,0,0,1,550,195.87Z"/><rect class="cls-12" x="548.13" y="190.02" width="7.28" height="2.31" rx="0.72" ry="0.72" transform="translate(190.54 649.99) rotate(-70.9)"/><rect class="cls-14" x="510.56" y="44.76" width="252.34" height="220.35"/><polygon class="cls-15" points="507.01 223.81 507.01 255.22 719.25 42.98 687.84 42.98 507.01 223.81"/><polygon class="cls-15" points="510.56 141.92 510.56 204.75 668.77 46.53 605.95 46.53 510.56 141.92"/><rect class="cls-16" x="511.45" y="43.87" width="252.34" height="220.35"/></g><path id="_Path_3" data-name="&lt;Path&gt;" class="cls-17" d="M337.61,248.28l13-9.86s12.41-6.93,17.92-5.69c6.42,1.44,14.36,3.62,15.5,4.85,3.05,3.28-21.6,15.06-21.6,15.06L352,261.12Z"/><path id="_Path_4" data-name="&lt;Path&gt;" class="cls-7" d="M351.43,237.1l.84,23.79L268,263.25a11.9,11.9,0,0,1-12.31-11.47h0a11.9,11.9,0,0,1,11.47-12.31Z"/><rect id="_Rectangle_" data-name="&lt;Rectangle&gt;" class="cls-18" x="336.17" y="244.57" width="23.55" height="8.84" transform="translate(104.88 601.11) rotate(-90.97)"/><rect id="_Rectangle_2" data-name="&lt;Rectangle&gt;" class="cls-19" x="371.15" y="253.15" width="5.73" height="2.37" transform="matrix(0.84, -0.54, 0.54, 0.84, -78.16, 243.84)"/><rect id="_Rectangle_3" data-name="&lt;Rectangle&gt;" class="cls-20" x="358.15" y="212.32" width="6.39" height="44.85" rx="3" ry="3" transform="translate(-69.55 233.83) rotate(-32.89)"/><path id="_Rectangle_4" data-name="&lt;Rectangle&gt;" class="cls-20" d="M347.12,211.29h.14a3.13,3.13,0,0,1,3.13,3.13v0a0,0,0,0,1,0,0H344a0,0,0,0,1,0,0v0A3.13,3.13,0,0,1,347.12,211.29Z" transform="translate(-59.93 222.63) rotate(-32.89)"/><polygon id="_Path_5" data-name="&lt;Path&gt;" class="cls-21" points="372.24 256.87 377.06 253.76 378.28 260.94 372.24 256.87"/><rect id="_Rectangle_5" data-name="&lt;Rectangle&gt;" class="cls-19" x="346.29" y="214" width="4.62" height="2.08" transform="translate(-60.9 223.75) rotate(-32.89)"/><rect id="_Rectangle_6" data-name="&lt;Rectangle&gt;" class="cls-19" x="357.38" y="232.83" width="6.8" height="2.08" transform="matrix(0.84, -0.54, 0.54, 0.84, -69.17, 233.38)"/><polygon id="_Path_6" data-name="&lt;Path&gt;" class="cls-22" points="376.91 260.01 378 259.31 378.28 260.94 376.91 260.01"/><rect id="_Rectangle_7" data-name="&lt;Rectangle&gt;" class="cls-23" x="370.77" y="106.65" width="26.67" height="111.11" rx="10.49" ry="10.49" transform="translate(378.46 579.12) rotate(-112.12)"/><path id="_Path_7" data-name="&lt;Path&gt;" class="cls-24" d="M232.77,170.81s-15.06-2.89-21.23-5.2c-5.73,7.24,4.77,14.69,4.77,14.69Z"/><rect id="_Rectangle_8" data-name="&lt;Rectangle&gt;" class="cls-25" x="255.72" y="139.55" width="21.44" height="82.19" rx="4.88" ry="4.88" transform="translate(85.32 446.76) rotate(-89.9)"/><path id="_Path_8" data-name="&lt;Path&gt;" class="cls-25" d="M241.33,192.27l-22.35,6S202,193,197,188.42c-5.87-5.34-8.42-15.4-8.76-17.3-.93-5.07,23.64,4.15,23.64,4.15l22.44-4.89Z"/><path id="_Path_9" data-name="&lt;Path&gt;" class="cls-23" d="M249,168.26l.77,26.41a.12.12,0,0,0,.13.12l94.27-3.43a13.33,13.33,0,0,0,12.94-13.72h0a13.33,13.33,0,0,0-13.72-12.94l-94.27,3.43A.12.12,0,0,0,249,168.26Z"/><path id="_Path_10" data-name="&lt;Path&gt;" class="cls-26" d="M506.51,318.43l-98.56.8.59,31.64a16.93,16.93,0,0,0,17.07,16.79l64.7-.52a16.93,16.93,0,0,0,16.79-17.07Z"/><path id="_Rectangle_9" data-name="&lt;Rectangle&gt;" class="cls-27" d="M421.7,130.49h73.4a22.19,22.19,0,0,1,22.19,22.19V352.91a0,0,0,0,1,0,0H398.78a0,0,0,0,1,0,0V153.42A22.93,22.93,0,0,1,421.7,130.49Z"/><polygon id="_Path_11" data-name="&lt;Path&gt;" class="cls-23" points="482.79 130.49 486.34 142.27 476.64 151.95 480.72 159.58 438.08 219.53 421.23 159.41 426.52 151.56 423.09 142.27 430.5 130.49 482.79 130.49"/><polygon id="_Path_12" data-name="&lt;Path&gt;" class="cls-18" points="434.54 130.49 442.08 199.65 475.95 130.49 434.54 130.49"/><polygon id="_Path_13" data-name="&lt;Path&gt;" class="cls-7" points="451.5 148.24 453.01 177.32 442.08 199.65 439.38 174.94 447.95 147.36 451.5 148.24"/><ellipse id="_Path_14" data-name="&lt;Path&gt;" class="cls-23" cx="446.2" cy="251.99" rx="5.51" ry="6.81"/><ellipse id="_Path_15" data-name="&lt;Path&gt;" class="cls-23" cx="446.2" cy="289.22" rx="5.51" ry="6.81"/><rect id="_Rectangle_10" data-name="&lt;Rectangle&gt;" class="cls-23" x="467.56" y="274.4" width="26.34" height="9.76" transform="translate(961.45 558.55) rotate(-180)"/><path id="_Path_16" data-name="&lt;Path&gt;" class="cls-17" d="M456.64,101h.3a8.58,8.58,0,0,0-8.53,8.83v18.88c0,4.88,3.65,6.4,8.53,6.4h-.15c4.88,0,8.68-1.52,8.68-6.4V109.79A8.83,8.83,0,0,0,456.64,101Z"/><path id="_Path_17" data-name="&lt;Path&gt;" class="cls-28" d="M441.12,123.6c27.92,1.5,42.76-19.13,47.32-44.75,4.81-27-13.26-49.31-35.15-49.38-24.9-.08-39.44,9.63-41.48,37-1.28,17.17,3.88,51.58,29.31,57.16Z"/><path id="_Path_18" data-name="&lt;Path&gt;" class="cls-29" d="M492.09,43.51c2.76,7.11,2.77,17.79,2.41,24.59a6.8,6.8,0,0,0-5.81-1.45,8.13,8.13,0,0,0-.93.22h0l-.45.15-.45.17-.47.21-.34.17-.56.31-.44.28-.44.3-.41.32-.41.34c-.27.24-.53.49-.78.75,0,0,0,.05,0,.08s-.1.12-.15.18l-.08.11-.1.12a.27.27,0,0,0,0,.06l0,.05,0,0a.34.34,0,0,0,0,.08V83a5.56,5.56,0,0,1-1.32,4.16,6.75,6.75,0,0,1-.57.63,8.87,8.87,0,0,1-3.78,1.1c-3.24,0-6.5-2.66-6.5-5.89V78.57a6.41,6.41,0,0,0-5.88-6.4l-1.12-.08c-.08-5.05,0-9.05,0-11.54.05-3.08-1.09-5.12-7.93-5.81l-.2,0c-.6-.06-1.23-.11-1.92-.15h-.15c-1.19-.06-2.5-.09-4-.09H417.83l-.36-.09c-1.34-.37-6.12-2-8.59-5.88-2.25-3.6-1.74-6.21-1.74-6.21h8.69a17.62,17.62,0,0,1-4.47-7.53,41.15,41.15,0,0,1-2-9.52h14.41s14.42-10.49,30.45-9.14c25.27,2.13,33.62,18.37,33.62,18.37a27.25,27.25,0,0,1,10.93-1.94C495.5,36.37,493.58,38,492.09,43.51Z"/><g id="_Group_" data-name="&lt;Group&gt;"><line id="_Path_19" data-name="&lt;Path&gt;" class="cls-29" x1="422.12" y1="69.49" x2="432.03" y2="68.99"/><path id="_Path_20" data-name="&lt;Path&gt;" class="cls-29" d="M421.89,71.13a1.65,1.65,0,0,1,.15-3.29l9.9-.5a1.65,1.65,0,0,1,.17,3.3l-9.9.5A1.68,1.68,0,0,1,421.89,71.13Z"/></g><g id="_Group_2" data-name="&lt;Group&gt;"><line id="_Path_21" data-name="&lt;Path&gt;" class="cls-29" x1="447.99" y1="68.99" x2="457.89" y2="69.49"/><path id="_Path_22" data-name="&lt;Path&gt;" class="cls-29" d="M447.76,67.35a1.65,1.65,0,0,0,.15,3.29l9.9.5a1.65,1.65,0,1,0,.17-3.3l-9.9-.5A1.68,1.68,0,0,0,447.76,67.35Z"/></g><circle id="_Path_23" data-name="&lt;Path&gt;" cx="451.71" cy="79.68" r="2.23"/><circle id="_Path_24" data-name="&lt;Path&gt;" cx="427.84" cy="80.44" r="2.23"/><g id="_Group_3" data-name="&lt;Group&gt;"><path id="_Path_25" data-name="&lt;Path&gt;" class="cls-28" d="M481.49,71.41s1-2.31,4.57-4.77c7.08-4.91,15.32-.93,12.18,7.48C496,80,492.3,94.5,487.71,89.28,484.2,85.27,481.67,79.15,481.49,71.41Z"/><polygon id="_Path_26" data-name="&lt;Path&gt;" class="cls-30" points="486.94 72.27 496.23 70.7 489.23 83.45 491.58 72.94 486.94 72.27"/></g><polygon id="_Path_27" data-name="&lt;Path&gt;" class="cls-30" points="439.57 76.49 439.88 95.92 435.7 94.97 439.57 76.49"/><polygon id="_Path_28" data-name="&lt;Path&gt;" class="cls-7" points="454.49 132.99 458.37 142.15 448.74 151.56 446.05 143.44 454.49 132.99"/><polygon id="_Path_29" data-name="&lt;Path&gt;" class="cls-31" points="475.95 130.49 465.67 123.77 454.49 132.99 461.01 148.37 475.95 130.49"/><polygon id="_Path_30" data-name="&lt;Path&gt;" class="cls-31" points="434.54 130.49 448.74 123.77 454.49 132.99 442.08 148.37 434.54 130.49"/><path id="_Path_31" data-name="&lt;Path&gt;" class="cls-32" d="M440.18,111c6.07,0,11.39-3.29,11.39-7v-.88h-23.4V104c0,3.41,3.57,7,10.18,7Z"/><rect class="cls-32" x="402.8" y="181.1" width="21.33" height="11.76" transform="translate(826.94 373.96) rotate(-180)"/><line class="cls-33" x1="419.9" y1="184.84" x2="407.04" y2="184.84"/><line class="cls-33" x1="419.9" y1="187.06" x2="407.04" y2="187.06"/><line class="cls-33" x1="419.9" y1="189.13" x2="414.34" y2="189.13"/><path class="cls-7" d="M197.88,353.57h96.56a0,0,0,0,1,0,0v22.68a6.11,6.11,0,0,1-6.11,6.11H204a6.11,6.11,0,0,1-6.11-6.11V353.57A0,0,0,0,1,197.88,353.57Z"/><rect id="_Rectangle_11" data-name="&lt;Rectangle&gt;" class="cls-17" x="241.1" y="141.96" width="17.24" height="41.85" rx="4.58" ry="4.58" transform="translate(499.45 325.77) rotate(180)"/><path id="_Path_32" data-name="&lt;Path&gt;" class="cls-18" d="M213.75,170.81h66.59c13.13,0,23.78,8.77,23.78,19.58l-6.63,69.77,6.15,105.14H189.48s7.62-87.71,7.62-108.68c0-16.56-7.14-66.23-7.14-66.23C190,179.58,200.62,170.81,213.75,170.81Z"/><path id="_Path_33" data-name="&lt;Path&gt;" class="cls-34" d="M286.39,67.92s11.1-2.26,11.1,20.31a98.62,98.62,0,0,1-2.87,22.15L277.77,90.84,260.33,83l21.8-7.87Z"/><path id="_Path_34" data-name="&lt;Path&gt;" class="cls-28" d="M267.45,162.82c-26.58,1.43-40.72-18.21-45.06-42.61-4.58-25.7,12.63-47,33.48-47,23.71-.08,37.55,9.17,39.5,35.21,1.22,16.35-3.7,49.12-27.91,54.43Z"/><g id="_Group_4" data-name="&lt;Group&gt;"><line id="_Path_35" data-name="&lt;Path&gt;" class="cls-29" x1="290.56" y1="109.63" x2="280.58" y2="108.67"/><path id="_Path_36" data-name="&lt;Path&gt;" class="cls-29" d="M290.72,111.29a1.67,1.67,0,0,0,0-3.32l-10-1a1.67,1.67,0,1,0-.32,3.32l10,1A1.69,1.69,0,0,0,290.72,111.29Z"/></g><g id="_Group_5" data-name="&lt;Group&gt;"><line id="_Path_37" data-name="&lt;Path&gt;" class="cls-29" x1="265.4" y1="108.95" x2="255.4" y2="109.6"/><path id="_Path_38" data-name="&lt;Path&gt;" class="cls-29" d="M265.61,107.3a1.67,1.67,0,0,1-.11,3.32l-10,.64a1.67,1.67,0,0,1-.21-3.33l10-.64A1.69,1.69,0,0,1,265.61,107.3Z"/></g><circle id="_Path_39" data-name="&lt;Path&gt;" cx="263.15" cy="117.33" r="2.25"/><circle id="_Path_40" data-name="&lt;Path&gt;" cx="285.78" cy="117.33" r="2.25"/><polygon id="_Path_41" data-name="&lt;Path&gt;" class="cls-30" points="273.16 115.37 272.85 135 277.07 134.04 273.16 115.37"/><ellipse id="_Path_42" data-name="&lt;Path&gt;" class="cls-34" cx="217.67" cy="71.8" rx="17.44" ry="13.63" transform="translate(64.67 242.46) rotate(-66.38)"/><path id="_Path_43" data-name="&lt;Path&gt;" class="cls-35" d="M226.93,123.13s11.69,2.18,10.11-10.31c6.34-1,37.26-14.07,49.75-44.59-7.87-16-21.85-18.12-37.05-15.55-22.48,3.79-46.33,20.7-33.11,64.3C217.61,120.24,223.76,120.66,226.93,123.13Z"/><g id="_Group_6" data-name="&lt;Group&gt;"><path id="_Path_44" data-name="&lt;Path&gt;" class="cls-28" d="M230.5,112.25a12.6,12.6,0,0,0-4.38-4.58c-6.8-4.71-14.71-.89-11.69,7.18,2.11,5.63,5.7,19.57,10.1,14.55C227.89,125.55,230.33,119.68,230.5,112.25Z"/><polygon id="_Path_45" data-name="&lt;Path&gt;" class="cls-30" points="225.27 113.06 216.35 111.56 223.07 123.8 220.81 113.72 225.27 113.06"/></g><circle id="_Path_46" data-name="&lt;Path&gt;" class="cls-9" cx="222.97" cy="131.16" r="4.06"/><path id="_Path_47" data-name="&lt;Path&gt;" class="cls-17" d="M223.14,176c0,12,11.9,21.81,26.58,21.81S276.3,188.09,276.3,176a17.92,17.92,0,0,0-.77-5.23H223.92A17.92,17.92,0,0,0,223.14,176Z"/><polygon id="_Path_48" data-name="&lt;Path&gt;" class="cls-7" points="224.13 170.51 220.6 182.23 230.25 191.85 226.19 199.44 268.6 259.07 285.36 199.27 280.1 191.46 283.51 182.23 276.13 170.51 224.13 170.51"/><polygon id="_Path_49" data-name="&lt;Path&gt;" class="cls-32" points="271.43 170.51 263.94 239.3 230.25 170.51 271.43 170.51"/><path id="_Path_50" data-name="&lt;Path&gt;" class="cls-4" d="M355,243.81s14.95,2.61,16.56-4.45a2.08,2.08,0,0,0-1.91-2.53,95.36,95.36,0,0,0-11.25,1.42Z"/><path id="_Path_51" data-name="&lt;Path&gt;" class="cls-17" d="M352.91,244.58s16.15,1.55,18.36-5.36a1.8,1.8,0,0,0-1.92-2.31C364.13,237.4,357,238,357,238Z"/><rect class="cls-4" x="102.99" y="344" width="517" height="44" rx="10.05" ry="10.05"/><rect class="cls-29" x="102.99" y="348" width="517" height="44" rx="10.05" ry="10.05"/><path id="_Path_52" data-name="&lt;Path&gt;" class="cls-24" d="M498.87,116.11s-6.05-14.09-7.59-20.5c-9.21-.69-9.49,12.19-9.49,12.19Z"/><path class="cls-4" d="M381,299.74h77.49a13.5,13.5,0,0,1,13.5,13.5v41.4a0,0,0,0,1,0,0H367.5a0,0,0,0,1,0,0v-41.4A13.5,13.5,0,0,1,381,299.74Z"/><path class="cls-36" d="M379,301.74h77.49a13.5,13.5,0,0,1,13.5,13.5v41.4a0,0,0,0,1,0,0H365.5a0,0,0,0,1,0,0v-41.4A13.5,13.5,0,0,1,379,301.74Z"/><circle class="cls-4" cx="419.75" cy="328.74" r="21.69"/><circle class="cls-37" cx="417.75" cy="330.74" r="21.69"/><circle class="cls-38" cx="417.75" cy="314.73" r="3.62"/><circle class="cls-38" cx="409.74" cy="316.87" r="3.62" transform="translate(-103.54 247.32) rotate(-30)"/><circle class="cls-38" cx="403.88" cy="322.73" r="3.62" transform="translate(-77.56 511.14) rotate(-60)"/><circle class="cls-38" cx="401.73" cy="330.74" r="3.62"/><circle class="cls-38" cx="403.88" cy="338.75" r="3.62" transform="translate(-115.26 247.32) rotate(-30)"/><circle class="cls-38" cx="409.74" cy="344.61" r="3.62" transform="translate(-93.57 527.15) rotate(-60)"/><circle class="cls-38" cx="417.75" cy="346.75" r="3.62"/><circle class="cls-38" cx="425.75" cy="344.61" r="3.62" transform="translate(-115.26 259.04) rotate(-30)"/><circle class="cls-38" cx="431.61" cy="338.75" r="3.62" transform="translate(-77.56 543.16) rotate(-60)"/><circle class="cls-38" cx="433.76" cy="330.74" r="3.62"/><circle class="cls-38" cx="431.61" cy="322.73" r="3.62" transform="translate(-103.54 259.04) rotate(-30)"/><circle class="cls-38" cx="425.75" cy="316.87" r="3.62" transform="matrix(0.5, -0.87, 0.87, 0.5, -61.54, 527.15)"/><rect class="cls-36" x="476.44" y="90.19" width="9.51" height="35.13" transform="translate(180.69 -283.21) rotate(39.83)"/><path class="cls-36" d="M490.37,72.3h3.73A9.71,9.71,0,0,1,503.81,82V95.44a0,0,0,0,1,0,0H490.37a9.71,9.71,0,0,1-9.71-9.71V82A9.71,9.71,0,0,1,490.37,72.3Z" transform="translate(167.96 -295.83) rotate(39.83)"/><path class="cls-36" d="M461.86,106.47H475.3a0,0,0,0,1,0,0v13.44a9.71,9.71,0,0,1-9.71,9.71h-3.73a9.71,9.71,0,0,1-9.71-9.71v-3.73a9.71,9.71,0,0,1,9.71-9.71Z" transform="translate(183.23 -269.64) rotate(39.83)"/><path class="cls-39" d="M366.94,353.4s-22.72,1.61-14.45-13.9c11.68-21.88.57-17.91,8-34,12-26,67.9-53.36,57-93-11-40,28-74,39-87"/><rect id="_Rectangle_12" data-name="&lt;Rectangle&gt;" class="cls-17" x="498.88" y="108.41" width="21.44" height="82.19" rx="4.88" ry="4.88" transform="translate(3.5 310.45) rotate(-33.99)"/><path id="_Path_53" data-name="&lt;Path&gt;" class="cls-4" d="M483,130l-12.57-10.93S471,112.75,472,106c1.14-7.85,10-14,12-14,5.16,0,1.47,8.31,1.47,8.31L500,117Z"/><path id="_Path_54" data-name="&lt;Path&gt;" class="cls-17" d="M485.89,135.23l-17.47-15.16S469,113.75,470,107c1.14-7.85,10-14,12-14,5.16,0,1.47,8.31,1.47,8.31l16.63,15.84Z"/><path id="_Path_55" data-name="&lt;Path&gt;" class="cls-23" d="M510.07,128.11l-21.44,15.44a.12.12,0,0,0,0,.17l55.68,76.14a13.33,13.33,0,0,0,18.61,3h0a13.33,13.33,0,0,0,3-18.61l-55.68-76.15A.12.12,0,0,0,510.07,128.11Z"/><rect class="cls-32" x="482.5" y="125.59" width="33.03" height="17.71" transform="translate(1.06 272.79) rotate(-30.61)"/><path id="_Path_56" data-name="&lt;Path&gt;" class="cls-40" d="M284.33,140.67a15.3,15.3,0,0,1-11.66,5.42h0c-5.11,0-10-3.26-11.66-5.42"/><polygon class="cls-32" points="371.99 312.47 331.99 319.53 331.99 263.53 371.99 256.47 371.99 312.47"/><text class="cls-41" transform="matrix(1, -0.18, 0, 1, 337.01, 277.98)">NOTES</text><path class="cls-4" d="M346.56,290.31l-13.24-.5,2.42-5.94L326.24,280l-.25.62L246.12,247.1l-34.06-63.89a10.73,10.73,0,0,0-14.37-4.86l-3.7,1.83a10.73,10.73,0,0,0-4.86,14.37l37.74,71.32a10.68,10.68,0,0,0,5.25,5,13.83,13.83,0,0,0,2,1.08l81.47,34.2v0l2.78,1.13,5.89,2.47,0-.07.79.32.25-.61L344,311.06s13.9-6.35,17.51-11.05c4.2-5.47,7.81-10.62,7.82-12.29C369.33,283.23,346.56,290.31,346.56,290.31Z"/><rect id="_Rectangle_13" data-name="&lt;Rectangle&gt;" class="cls-7" x="204.67" y="170.74" width="25.58" height="106.6" rx="10.73" ry="10.73" transform="translate(511.69 328.48) rotate(153.69)"/><path id="_Path_57" data-name="&lt;Path&gt;" class="cls-17" d="M321.94,311.36l20,1.7s13.9-6.35,17.51-11.05c4.2-5.47,7.81-10.62,7.82-12.29,0-4.48-22.75,2.6-22.75,2.6l-20-.76Z"/><path id="_Path_58" data-name="&lt;Path&gt;" class="cls-7" d="M322.25,311.83l10.86-25.37L243,248.62a13.8,13.8,0,0,0-18.12,7.25h0A13.8,13.8,0,0,0,232.12,274Z"/><rect id="_Rectangle_14" data-name="&lt;Rectangle&gt;" class="cls-18" x="309.5" y="291.92" width="28.3" height="10.25" transform="translate(720.75 109.15) rotate(112.13)"/><path class="cls-42" d="M175,302.38l-5.82,48.42a5.83,5.83,0,0,1-5.81,5.82h-27a5.83,5.83,0,0,1-5.82-5.82l-5.78-47.91-.06-.51a5.82,5.82,0,0,1,5.84-5.82h38.66A5.82,5.82,0,0,1,175,302.38Z"/><path class="cls-43" d="M157.66,312.39v44.23H136.3a5.83,5.83,0,0,1-5.82-5.82l-5.78-47.91h23.45A9.51,9.51,0,0,1,157.66,312.39Z"/><path class="cls-32" d="M168.28,274.8c3.32,7.93,4.12,15.16,1.78,16.14s-6.93-4.66-10.25-12.59-2.7-11.77-.36-12.74S165,266.86,168.28,274.8Z"/><path class="cls-32" d="M171.83,307.08c-3.32-7.93-4.12-15.16-1.78-16.14s6.93,4.66,10.25,12.6,2.7,11.76.36,12.74S175.16,315,171.83,307.08Z"/><path class="cls-32" d="M153.91,292.72c7.94-3.32,15.16-4.12,16.14-1.78s-4.66,6.93-12.6,10.25-11.76,2.7-12.74.36S146,296,153.91,292.72Z"/><path class="cls-32" d="M186.2,289.16c-7.94,3.32-15.16,4.12-16.14,1.78s4.66-6.92,12.6-10.25,11.76-2.7,12.74-.36S194.13,285.84,186.2,289.16Z"/><path class="cls-32" d="M180.21,278.27c-3.26,8-7.81,13.63-10.15,12.67s-1.6-8.19,1.66-16.15,6.41-10.23,8.76-9.27S183.47,270.31,180.21,278.27Z"/><path class="cls-32" d="M159.9,303.61c3.26-8,7.81-13.63,10.16-12.67s1.6,8.2-1.66,16.16-6.41,10.23-8.76,9.27S156.64,311.57,159.9,303.61Z"/><path class="cls-32" d="M157.38,280.79c8,3.26,13.63,7.81,12.67,10.15s-8.19,1.61-16.15-1.66-10.23-6.41-9.27-8.76S149.42,277.52,157.38,280.79Z"/><path class="cls-32" d="M182.73,301.1c-8-3.26-13.64-7.81-12.67-10.16s8.19-1.6,16.15,1.66,10.23,6.41,9.27,8.76S190.69,304.36,182.73,301.1Z"/><path class="cls-32" d="M174.64,275.37c0,8.6-2.05,15.57-4.59,15.57s-4.59-7-4.59-15.57,2.05-11.9,4.59-11.9S174.64,266.76,174.64,275.37Z"/><path class="cls-32" d="M165.47,306.52c0-8.6,2.05-15.58,4.59-15.58s4.59,7,4.59,15.58-2.05,11.89-4.59,11.89S165.47,315.12,165.47,306.52Z"/><path class="cls-32" d="M154.48,286.35c8.6,0,15.58,2.05,15.58,4.59s-7,4.59-15.58,4.59-11.89-2.05-11.89-4.59S145.87,286.35,154.48,286.35Z"/><path class="cls-32" d="M185.63,295.53c-8.6,0-15.58-2.05-15.58-4.59s7-4.59,15.58-4.59,11.9,2.05,11.9,4.59S194.23,295.53,185.63,295.53Z"/><path class="cls-32" d="M184.31,283.17c-6.08,6.09-12.47,9.56-14.26,7.77s1.69-8.18,7.77-14.26,9.86-7,11.66-5.16S190.4,277.09,184.31,283.17Z"/><path class="cls-32" d="M155.8,298.71c6.08-6.08,12.47-9.56,14.26-7.77s-1.69,8.18-7.77,14.26-9.86,7-11.66,5.17S149.71,304.79,155.8,298.71Z"/><path class="cls-32" d="M162.29,276.68c6.08,6.08,9.56,12.47,7.77,14.26s-8.18-1.68-14.26-7.77-7-9.86-5.17-11.65S156.2,270.6,162.29,276.68Z"/><path class="cls-32" d="M177.82,305.2c-6.08-6.08-9.56-12.47-7.77-14.26s8.18,1.69,14.26,7.77,7,9.86,5.17,11.66S183.91,311.28,177.82,305.2Z"/><circle class="cls-44" cx="170.05" cy="291.03" r="7.88"/><path class="cls-32" d="M136.31,247.33c3.32,7.94,4.12,15.16,1.78,16.14s-6.92-4.66-10.25-12.6-2.7-11.76-.36-12.74S133,239.4,136.31,247.33Z"/><path class="cls-32" d="M139.87,279.61c-3.32-7.94-4.12-15.16-1.78-16.14s6.93,4.66,10.25,12.6,2.7,11.76.36,12.74S143.19,287.55,139.87,279.61Z"/><path class="cls-32" d="M121.95,265.25c7.93-3.32,15.16-4.12,16.14-1.78s-4.66,6.93-12.6,10.25-11.76,2.7-12.74.36S114,268.57,121.95,265.25Z"/><path class="cls-32" d="M154.23,261.69c-7.93,3.32-15.16,4.12-16.14,1.78s4.66-6.93,12.6-10.25,11.76-2.7,12.74-.36S162.17,258.37,154.23,261.69Z"/><path class="cls-32" d="M148.25,250.8c-3.26,8-7.81,13.63-10.16,12.67s-1.6-8.19,1.66-16.15,6.41-10.23,8.76-9.27S151.51,242.84,148.25,250.8Z"/><path class="cls-32" d="M127.94,276.14c3.26-8,7.81-13.63,10.15-12.67s1.6,8.19-1.66,16.15-6.41,10.23-8.76,9.27S124.67,284.11,127.94,276.14Z"/><path class="cls-32" d="M125.42,253.32c8,3.26,13.63,7.81,12.67,10.15s-8.19,1.6-16.15-1.66-10.23-6.41-9.27-8.76S117.46,250.05,125.42,253.32Z"/><path class="cls-32" d="M150.76,273.63c-8-3.26-13.64-7.81-12.67-10.15s8.2-1.6,16.15,1.66,10.23,6.41,9.27,8.76S158.72,276.89,150.76,273.63Z"/><path class="cls-32" d="M142.68,247.89c0,8.6-2.05,15.58-4.59,15.58s-4.59-7-4.59-15.58S135.55,236,138.09,236,142.68,239.29,142.68,247.89Z"/><path class="cls-32" d="M133.5,279c0-8.6,2.05-15.58,4.59-15.58s4.59,7,4.59,15.58-2.05,11.89-4.59,11.89S133.5,287.65,133.5,279Z"/><path class="cls-32" d="M122.51,258.88c8.6,0,15.58,2.05,15.58,4.59s-7,4.59-15.58,4.59-11.89-2.05-11.89-4.59S113.91,258.88,122.51,258.88Z"/><path class="cls-32" d="M153.67,268.06c-8.6,0-15.58-2.05-15.58-4.59s7-4.59,15.58-4.59,11.9,2.05,11.9,4.59S162.27,268.06,153.67,268.06Z"/><path class="cls-32" d="M152.35,255.7c-6.08,6.08-12.47,9.56-14.26,7.77s1.69-8.18,7.77-14.26,9.86-7,11.66-5.16S158.43,249.62,152.35,255.7Z"/><path class="cls-32" d="M123.83,271.24c6.08-6.08,12.47-9.56,14.26-7.77s-1.68,8.18-7.77,14.26-9.86,7-11.66,5.16S117.75,277.32,123.83,271.24Z"/><path class="cls-32" d="M130.32,249.21c6.08,6.08,9.56,12.47,7.77,14.26s-8.18-1.69-14.26-7.77-7-9.86-5.16-11.66S124.24,243.13,130.32,249.21Z"/><path class="cls-32" d="M145.86,277.73c-6.08-6.08-9.56-12.47-7.77-14.26s8.18,1.69,14.26,7.77,7,9.86,5.17,11.66S151.94,283.81,145.86,277.73Z"/><circle class="cls-44" cx="138.09" cy="263.56" r="7.88"/><path class="cls-32" d="M131.34,286.19c2.13,5.09,2.64,9.73,1.14,10.36s-4.45-3-6.58-8.09-1.73-7.55-.23-8.18S129.21,281.09,131.34,286.19Z"/><path class="cls-32" d="M133.63,306.91c-2.13-5.09-2.64-9.73-1.14-10.36s4.45,3,6.58,8.09,1.73,7.55.23,8.18S135.76,312,133.63,306.91Z"/><path class="cls-32" d="M122.12,297.69c5.09-2.13,9.73-2.64,10.36-1.14s-3,4.45-8.09,6.58-7.55,1.73-8.18.23S117,299.82,122.12,297.69Z"/><path class="cls-32" d="M142.85,295.4c-5.09,2.13-9.73,2.64-10.36,1.14s3-4.45,8.09-6.58,7.55-1.73,8.18-.23S147.94,293.27,142.85,295.4Z"/><path class="cls-32" d="M139,288.41c-2.09,5.11-5,8.75-6.52,8.13s-1-5.26,1.07-10.37,4.11-6.56,5.62-5.95S141.1,283.3,139,288.41Z"/><path class="cls-32" d="M126,304.68c2.1-5.11,5-8.75,6.52-8.13s1,5.26-1.06,10.37-4.12,6.56-5.63,5.94S123.87,309.79,126,304.68Z"/><path class="cls-32" d="M124.35,290c5.11,2.1,8.75,5,8.13,6.52s-5.26,1-10.37-1.07-6.56-4.12-5.95-5.62S119.24,287.93,124.35,290Z"/><path class="cls-32" d="M140.62,303.06c-5.11-2.09-8.75-5-8.13-6.52s5.26-1,10.37,1.07,6.57,4.12,6,5.62S145.73,305.16,140.62,303.06Z"/><path class="cls-32" d="M135.43,286.55c0,5.52-1.32,10-2.95,10s-2.95-4.48-2.95-10,1.32-7.64,2.95-7.64S135.43,281,135.43,286.55Z"/><path class="cls-32" d="M129.54,306.55c0-5.52,1.32-10,2.95-10s2.95,4.48,2.95,10-1.32,7.64-2.95,7.64S129.54,312.07,129.54,306.55Z"/><path class="cls-32" d="M122.49,293.6c5.52,0,10,1.32,10,2.94s-4.48,2.95-10,2.95-7.64-1.32-7.64-2.95S117,293.6,122.49,293.6Z"/><path class="cls-32" d="M142.49,299.49c-5.52,0-10-1.32-10-2.95s4.48-2.94,10-2.94,7.63,1.32,7.63,2.94S148,299.49,142.49,299.49Z"/><path class="cls-32" d="M141.64,291.56c-3.91,3.9-8,6.14-9.16,5s1.08-5.25,5-9.15,6.33-4.47,7.48-3.32S145.54,287.66,141.64,291.56Z"/><path class="cls-32" d="M123.33,301.53c3.91-3.9,8-6.14,9.15-5s-1.08,5.25-5,9.16-6.33,4.46-7.48,3.31S119.43,305.44,123.33,301.53Z"/><path class="cls-32" d="M127.5,287.39c3.9,3.9,6.14,8,5,9.15s-5.25-1.08-9.15-5-4.47-6.33-3.31-7.48S123.59,283.49,127.5,287.39Z"/><path class="cls-32" d="M137.47,305.7c-3.91-3.91-6.14-8-5-9.16s5.25,1.08,9.16,5,4.46,6.33,3.31,7.49S141.38,309.61,137.47,305.7Z"/><circle class="cls-44" cx="132.49" cy="296.6" r="5.06"/></svg>