<svg id="Layer_1" data-name="Layer 1" xmlns="http://www.w3.org/2000/svg" xmlns:xlink="http://www.w3.org/1999/xlink" viewBox="0 0 708.66 506.96"><defs><style>.cls-1{fill:none;}.cls-2{fill:#8ba9cc;}.cls-3{fill:#161616;opacity:0.07;}.cls-4{fill:#efb82e;}.cls-5{fill:#d3d1cf;}.cls-6{fill:#e5e1df;}.cls-7{fill:#fff9f3;}.cls-8{fill:#f2ba2f;}.cls-9{fill:#fff2d4;}.cls-10{fill:#4c4b4b;}.cls-11{font-size:56.75px;font-family:MyriadPro-Regular, Myriad Pro;}.cls-11,.cls-20{fill:#fff;}.cls-12{fill:#e5e5e5;}.cls-13{fill:#f3aa43;}.cls-14{fill:#fce2aa;}.cls-15{fill:#bd8c6d;}.cls-16{fill:#455556;}.cls-17{fill:#d3a283;}.cls-18{fill:#cd9c7d;}.cls-19{fill:#f8be49;}.cls-21{fill:#666;}.cls-22{fill:#333;}.cls-23{fill:#b5c5c6;}.cls-24{fill:#263536;}.cls-25{fill:#152d3d;}.cls-26{fill:#34495e;}.cls-27{fill:#c52e25;}.cls-28{fill:#d53d33;}.cls-29{fill:#fece57;}.cls-30{fill:#518cbc;}.cls-31{fill:#2f6396;}.cls-32{clip-path:url(#clip-path);}</style><clipPath id="clip-path"><circle class="cls-1" cx="354.33" cy="1307.39" r="321.09"/></clipPath></defs><title>CS-L2-U3</title><polygon class="cls-2" points="-0.45 428.56 -0.45 145.81 708.7 50.05 708.7 332.79 -0.45 428.56"/><path class="cls-3" d="M577.15,99.18H291V92.62C291,84,284.62,77,276.71,77H145.16c-7.92,0-14.33,7-14.33,15.62v95.77h.32a20.27,20.27,0,0,0-.32,3.52V405.28c0,10.26,7.63,18.58,17.05,18.58H572.42c9.42,0,17.05-8.32,17.05-18.58V112.61C589.47,105.19,584,99.18,577.15,99.18Z"/><path class="cls-4" d="M281.22,103.49H573.33a12.32,12.32,0,0,1,12.32,12.32v72a1.24,1.24,0,0,1-1.24,1.24H282a1.24,1.24,0,0,1-1.24-1.24V104A.5.5,0,0,1,281.22,103.49Z"/><path class="cls-4" d="M141.34,81.31H272.89a14.33,14.33,0,0,1,14.33,14.33v97.06a0,0,0,0,1,0,0H127a0,0,0,0,1,0,0V95.64A14.33,14.33,0,0,1,141.34,81.31Z"/><rect class="cls-5" x="137.22" y="50.85" width="417.74" height="81.79" transform="translate(692.18 183.49) rotate(-180)"/><rect class="cls-6" x="144.61" y="56.51" width="417.74" height="81.79" transform="translate(706.96 194.8) rotate(-180)"/><polygon class="cls-7" points="571.03 145.91 153.29 145.91 153.29 105.02 153.29 105.02 195.93 62.39 571.03 64.13 571.03 145.91"/><rect class="cls-8" x="127.01" y="132.13" width="458.64" height="296.05" rx="17.05" ry="17.05" transform="translate(712.66 560.31) rotate(-180)"/><path class="cls-8" d="M309.22,94.18H572.56a13.09,13.09,0,0,1,13.09,13.09v86.64a20.45,20.45,0,0,1-20.45,20.45h-256a13.09,13.09,0,0,1-13.09-13.09v-94a13.09,13.09,0,0,1,13.09-13.09Z" transform="translate(881.77 308.53) rotate(-180)"/><rect class="cls-3" x="202.25" y="192.71" width="299.26" height="156.31" rx="5.26" ry="5.26"/><rect class="cls-9" x="205.39" y="195.06" width="293.76" height="151.4" rx="5.92" ry="5.92"/><rect class="cls-10" x="229.74" y="205.18" width="49.48" height="18.16"/><rect class="cls-10" x="229.74" y="231.73" width="49.48" height="49.48"/><rect class="cls-10" x="229.74" y="289.61" width="49.48" height="46.74"/><rect class="cls-10" x="294.54" y="205.18" width="49.48" height="29.65"/><rect class="cls-10" x="294.54" y="243.47" width="49.48" height="49.48"/><rect class="cls-10" x="294.54" y="301.59" width="49.48" height="34.76"/><rect class="cls-10" x="360.13" y="205.18" width="49.48" height="43.59"/><rect class="cls-10" x="360.13" y="257.21" width="49.48" height="49.48"/><rect class="cls-10" x="360.13" y="314.65" width="49.48" height="21.7"/><rect class="cls-10" x="425.32" y="205.18" width="49.48" height="29.65"/><rect class="cls-3" x="423.36" y="241.11" width="54.1" height="54.1"/><rect class="cls-3" x="357.82" y="254.91" width="54.1" height="54.1"/><rect class="cls-3" x="292.23" y="241.36" width="54.1" height="54.1"/><rect class="cls-3" x="227.43" y="229.43" width="54.1" height="54.1"/><rect class="cls-10" x="425.32" y="243.47" width="49.48" height="49.48"/><rect class="cls-10" x="425.32" y="301.59" width="49.48" height="34.76"/><text class="cls-11" transform="translate(241.13 274.39)">2</text><text class="cls-11" transform="translate(305.65 286.18)">9</text><text class="cls-11" transform="translate(370.54 301.59)">4</text><text class="cls-11" transform="translate(437.2 286.18)">7</text><path class="cls-12" d="M260.23,206.55c.06,3.05-1.92,7.13-8.31,7.13a16.63,16.63,0,0,1-8.14-2.32l-1.36,3.85a18.69,18.69,0,0,0,9.56,2.49c8.82,0,13.4-5.15,13.4-11,0-.34,0-.67,0-1h-5.16A8,8,0,0,1,260.23,206.55Z"/><polygon class="cls-12" points="247.17 307 248.13 310.79 254.52 307.34 254.63 307.34 254.63 335.24 259.44 335.24 259.44 302.7 255.2 302.7 247.17 307"/><path class="cls-12" d="M385.78,319a17.48,17.48,0,0,0-9.62,2.83l1.3,3.62a13.49,13.49,0,0,1,7.35-2.43c4.58,0,6.45,2.6,6.45,5.54,0,4.35-4.58,6.22-8.2,6.22h-2.77v.45h11.65a8.56,8.56,0,0,0,4.36-7.47C396.3,323.31,393,319,385.78,319Z"/><path class="cls-12" d="M395.56,209.41v-3.26H377.84l-2.25,16.72a38.14,38.14,0,0,1,5.09-.4c7.35,0,10.52,3.39,10.58,8.14,0,4.92-4,8-8.71,8a16.45,16.45,0,0,1-7.86-2l-1.24,3.79a18,18,0,0,0,9.16,2.26c8,0,13.69-5.37,13.69-12.56a10.48,10.48,0,0,0-5.26-9.45,15.53,15.53,0,0,0-7.92-2,19.69,19.69,0,0,0-3,.23l1.41-9.45Z"/><path class="cls-12" d="M458.74,206.21h-5.54a10.62,10.62,0,0,1-2.44,1.19,16.4,16.4,0,0,1-3.19-1.19H441a11,11,0,0,0,3.92,3l.06.17c-4.53,1.92-7.3,5.2-7.3,9.84,0,5.37,4.64,10,12.33,10,7,0,12.5-4.3,12.5-10.69,0-4.47-2.83-7.69-7.41-9.5v-.17A12,12,0,0,0,458.74,206.21ZM457.44,219c0,3.79-2.88,6.56-7.35,6.56-4.69,0-7.52-3.28-7.35-7,0-3.51,2.32-6.33,6.62-7.58C454.33,212.37,457.44,214.52,457.44,219Z"/><path class="cls-12" d="M326.78,210.06c0,9.39-2.43,15.33-7.52,15.33-4.52,0-7.47-5.43-7.47-15a39.49,39.49,0,0,1,.22-4.25h-5a37.61,37.61,0,0,0-.23,4.19c.11,12.16,5,18.89,12.16,18.89,8.14,0,12.78-6.9,12.78-19.4,0-1.29-.06-2.51-.17-3.68h-5C326.72,207.38,326.78,208.68,326.78,210.06Z"/><path class="cls-12" d="M451.59,321.53a11,11,0,0,0-8.88,4.24h-.17a14.94,14.94,0,0,1,12.78-13.06,18,18,0,0,1,3.73-.23v-4.07a23.84,23.84,0,0,0-3.62.28,20,20,0,0,0-11.76,5.43c-3.62,3.62-6.22,9.33-6.22,16.57a22.58,22.58,0,0,0,.56,5.1h4.85a17,17,0,0,1-.48-3.8,4.25,4.25,0,0,1,.56-2.21,8.19,8.19,0,0,1,7.13-4.53c4.58,0,7.58,3.17,7.58,8.43a12.94,12.94,0,0,1-.17,2.1h5a14.68,14.68,0,0,0,.2-2.39C462.68,326.22,458.09,321.53,451.59,321.53Z"/><path class="cls-12" d="M331.05,318c0-4.58-3.56-9-10.69-9-6.45,0-11.37,4-11.37,9.78,0,3.17,1.75,6.33,5.83,8.26l.06.17c-3.92,1.67-6.52,4.36-7.14,8.07h5c.44-3,2.69-5.37,6.52-6.48,4.36,1.24,7.29,3,7.95,6.48h5.09c-.41-3.92-3.11-6.8-7.32-8.46v-.17C329.52,324.46,331.05,321.12,331.05,318Zm-10.35,7.18c-4.24-1.13-7-3.11-7-6.79,0-3.17,2.26-5.88,6.39-5.88,4.47,0,6.22,3.05,6.22,6C326.3,321.86,323.87,324.12,320.7,325.19Z"/><rect class="cls-3" x="425.32" y="330.57" width="49.48" height="5.78"/><rect class="cls-3" x="359.93" y="330.57" width="49.48" height="5.78"/><rect class="cls-3" x="359.93" y="205.18" width="49.48" height="5.78"/><rect class="cls-3" x="294.54" y="205.18" width="49.48" height="5.78"/><rect class="cls-3" x="229.74" y="205.18" width="49.48" height="5.78"/><rect class="cls-3" x="229.74" y="330.01" width="49.48" height="5.78"/><rect class="cls-3" x="425.32" y="205.18" width="49.48" height="5.78"/><polygon class="cls-5" points="195.93 103.28 195.93 62.39 153.29 105.02 195.93 103.28"/><rect class="cls-13" x="121.2" y="228.35" width="17.19" height="17.23" rx="5.81" ry="5.81"/><polygon class="cls-14" points="138.55 380.24 133.74 388.74 129.87 395.57 126.02 388.74 121.2 380.24 138.55 380.24"/><rect class="cls-15" x="121.2" y="238.15" width="17.35" height="142.08"/><polygon class="cls-16" points="133.74 388.74 129.87 395.57 126.02 388.74 133.74 388.74"/><rect class="cls-17" x="121.2" y="238.15" width="4.83" height="142.08"/><rect class="cls-18" x="133.74" y="238.15" width="4.83" height="142.08"/><path class="cls-19" d="M139.87,238a2.23,2.23,0,0,1-2.23,2.23H122.21A2.23,2.23,0,0,1,120,238h0a2.23,2.23,0,0,1,2.24-2.23h15.43a2.23,2.23,0,0,1,2.23,2.23Z"/><path class="cls-20" d="M17.18,302.79l29.55,25.09a14,14,0,0,0,15.92,1.49,13.46,13.46,0,0,0,3.76-3.13l3.83-4.5L102.91,343l18.5,16.62,34.27,30.77a5.75,5.75,0,0,0,7,1,5.35,5.35,0,0,0,1.27-1,5.88,5.88,0,0,0,0-8.26l-47.2-46.94,0,0L95.87,314.55,76.25,295l-.13-.15a.34.34,0,0,0-.17-.14c-.21-.2-.39-.37-.6-.58L45.77,269.12a14,14,0,0,0-19.67,1.57L15.56,283.14a13.76,13.76,0,0,0-3.25,10.16A13.94,13.94,0,0,0,17.18,302.79Zm4.39-10.24a4.78,4.78,0,0,1,1.09-3.41l10.52-12.4a4.79,4.79,0,0,1,6.58-.56l26.81,22.74,2.75,2.37a4.55,4.55,0,0,1,1.61,3.16,4.65,4.65,0,0,1-1.05,3.38l-2.34,2.74-8.23,9.68a4.49,4.49,0,0,1-1.24,1,4.71,4.71,0,0,1-5.3-.48L23.2,295.69A4.55,4.55,0,0,1,21.57,292.55Z"/><path class="cls-20" d="M114.79,418.24a5.52,5.52,0,0,0,1.5-.57,5.76,5.76,0,0,0,2.73-6.48L110.29,366l-4.73-24.43-1.45-38.41,5.85-.95a14.3,14.3,0,0,0,4.6-1.64,14,14,0,0,0,6.91-14.36l-6.26-38.27a14,14,0,0,0-5.65-9.09,13.75,13.75,0,0,0-10.38-2.45L83.1,239a13.63,13.63,0,0,0-4.62,1.61A14,14,0,0,0,71.6,255l6.26,38.26a18.29,18.29,0,0,0,.79,2.85l6.11,24.69,7,28.49L107.71,414A5.86,5.86,0,0,0,114.79,418.24Zm-34-164.68a4.81,4.81,0,0,1,3.85-5.38l16.07-2.6a4.58,4.58,0,0,1,3.47.78,4.68,4.68,0,0,1,1.86,3.06l6.29,38.24a4.68,4.68,0,0,1-2.3,4.82,4.31,4.31,0,0,1-1.54.51L96.3,295l-3.92.66a4.73,4.73,0,0,1-3.47-.81,4.58,4.58,0,0,1-1.85-3l-.68-4.19Z"/><path class="cls-21" d="M90.49,329.69a5.38,5.38,0,1,1,7.34,2A5.39,5.39,0,0,1,90.49,329.69Z"/><path class="cls-22" d="M92.55,328.46a3,3,0,1,1,4.06,1.13A3,3,0,0,1,92.55,328.46Z"/><path class="cls-20" d="M106.55,396a1.86,1.86,0,0,1,1.32-2.31h0a1.88,1.88,0,0,1,2.31,1.32l4,14.83a1.86,1.86,0,0,1-1.31,2.3h0a1.88,1.88,0,0,1-2.32-1.32Z"/><path class="cls-23" d="M175.55,332.45a2.74,2.74,0,0,1-.83-.29c-.45-.25-11-6.17-9-20.59.54-3.89,3.17-8.48,6-13.33,3.3-5.75,7-12.26,7-17.38,0-7.6-4.94-8.84-5.51-9a2.78,2.78,0,0,1-2.17-3.23,2.74,2.74,0,0,1,3.18-2.19c3.45.61,10,4.4,10,14.36,0,6.6-4.11,13.8-7.75,20.15-2.51,4.38-4.88,8.51-5.29,11.35-1.5,10.66,6.11,14.92,6.18,15a2.76,2.76,0,0,1-1.8,5.14Z"/><path class="cls-24" d="M170,268.9a4.84,4.84,0,0,1-5.61,3.92h0a4.84,4.84,0,0,1-3.92-5.61l1.35-7.57a4.83,4.83,0,0,1,5.6-3.92h0a4.83,4.83,0,0,1,3.92,5.6Z"/><path class="cls-25" d="M134,457.12a2.08,2.08,0,0,1-2.4,1.69h0A2.08,2.08,0,0,1,130,456.4l2.43-13.67a2.08,2.08,0,0,1,2.4-1.68h0a2.08,2.08,0,0,1,1.68,2.41Z"/><path class="cls-26" d="M143.78,437.77c-.54,3-4.85,13.17-7.85,12.64l-5.44-1c-3-.53-3.56-11.56-3-14.56L145.72,332a5.52,5.52,0,0,1,6.4-4.47l5.44,1a5.52,5.52,0,0,1,4.47,6.41Z"/><path class="cls-16" d="M155.19,373.45a5.52,5.52,0,0,1-6.4,4.47l-5.44-1a5.52,5.52,0,0,1-4.47-6.4l18.26-102.92a5.52,5.52,0,0,1,6.4-4.47l5.44,1a5.53,5.53,0,0,1,4.48,6.4Z"/><path class="cls-27" d="M168.57,343.43v137a5.83,5.83,0,0,1-5.81,5.81H67.08a5.83,5.83,0,0,1-5.82-5.81v-137a5.83,5.83,0,0,1,5.82-5.81h95.68A5.83,5.83,0,0,1,168.57,343.43Z"/><path class="cls-28" d="M147.64,366.34v120H67.08a5.83,5.83,0,0,1-5.82-5.81V351.81h71.85A14.54,14.54,0,0,1,147.64,366.34Z"/><circle class="cls-19" cx="155.04" cy="443.53" r="38.42"/><path class="cls-29" d="M166.91,405.13a38.42,38.42,0,1,0,38.41,38.42A38.4,38.4,0,0,0,166.91,405.13Zm0,51.58a13.16,13.16,0,1,1,13.16-13.16A13.2,13.2,0,0,1,166.91,456.7Z"/><path class="cls-16" d="M166.91,427a16.5,16.5,0,1,0,16.5,16.5A16.52,16.52,0,0,0,166.91,427Zm0,29.66a13.16,13.16,0,1,1,13.16-13.16A13.2,13.2,0,0,1,166.91,456.7Z"/><path class="cls-30" d="M207.67,453v27.47a5.83,5.83,0,0,1-5.82,5.81H120.09a5.83,5.83,0,0,1-5.81-5.81V453a5.81,5.81,0,0,1,5.81-5.81h81.76A5.81,5.81,0,0,1,207.67,453Z"/><path class="cls-31" d="M193.45,473.36v12.93H120.09a5.83,5.83,0,0,1-5.81-5.81V458.83h64.64A14.54,14.54,0,0,1,193.45,473.36Z"/></svg>