<svg id="Layer_1" data-name="Layer 1" xmlns="http://www.w3.org/2000/svg" viewBox="0 0 708.66 481.89"><defs><style>.cls-1{fill:#d5eff0;}.cls-2{fill:#5e8bb7;}.cls-3{fill:#5378a5;}.cls-4{fill:#fff;}.cls-5{fill:#fece57;}.cls-43,.cls-6{fill:#111010;}.cls-22,.cls-27,.cls-34,.cls-42,.cls-6{opacity:0.07;}.cls-7{fill:#515180;}.cls-13,.cls-8{fill:#f8ab8d;}.cls-9{fill:#ee4256;}.cls-10{fill:#fdd8b8;}.cls-11{fill:#ffdc83;}.cls-12{fill:#54402b;}.cls-13,.cls-15,.cls-38{fill-rule:evenodd;}.cls-14{fill:#8b6339;}.cls-15,.cls-18{fill:#dc846a;}.cls-16{fill:#6c4e38;}.cls-17{fill:#fec82b;}.cls-19{fill:#686867;}.cls-20{fill:#f4f4f4;}.cls-21{fill:#9b9b9a;}.cls-22{fill:#141414;}.cls-23{fill:#878787;}.cls-24,.cls-25,.cls-26,.cls-33,.cls-36{fill:none;}.cls-24{stroke:#686867;}.cls-24,.cls-26,.cls-33{stroke-miterlimit:10;}.cls-25{stroke:#d3d3d3;}.cls-25,.cls-36{stroke-linecap:round;stroke-linejoin:round;}.cls-26{stroke:#fec82b;stroke-width:3px;}.cls-27{fill:#161616;}.cls-28{fill:#444443;}.cls-29{fill:#a5c4d6;}.cls-30{fill:#a1b8d3;}.cls-31{fill:#bbd8f9;}.cls-31,.cls-32{opacity:0.44;}.cls-32{fill:#e8f1f9;}.cls-33{stroke:#8b6339;stroke-width:9px;}.cls-34{fill:#141413;}.cls-35{fill:#5b4027;}.cls-36{stroke:#a37b5d;stroke-width:0.25px;}.cls-37{fill:#f5bd5f;}.cls-38{fill:#eeab3f;}.cls-39{fill:#ffd164;}.cls-40{font-size:36px;fill:#f9f8f7;font-family:Impact, Impact;}.cls-41{fill:#6d4c2e;}</style></defs><title>CS-L2-U8</title><rect class="cls-1" x="44.69" y="71.02" width="631.47" height="239.07" rx="50.28" ry="50.28"/><path class="cls-2" d="M203.06,194.32,199,228.51a4.12,4.12,0,0,1-4.11,4.11H175.76a4.12,4.12,0,0,1-4.11-4.11l-4.08-33.83,0-.36a4.11,4.11,0,0,1,4.12-4.11H199A4.11,4.11,0,0,1,203.06,194.32Z"/><path class="cls-3" d="M190.85,201.39v31.23H175.76a4.12,4.12,0,0,1-4.11-4.11l-4.08-33.83h16.56A6.71,6.71,0,0,1,190.85,201.39Z"/><path class="cls-4" d="M198.34,174.84c2.34,5.6,2.91,10.71,1.26,11.4s-4.89-3.29-7.24-8.89-1.91-8.31-.25-9S196,169.24,198.34,174.84Z"/><path class="cls-4" d="M200.86,197.64c-2.34-5.6-2.91-10.71-1.26-11.4s4.89,3.29,7.24,8.9,1.9,8.31.25,9S203.2,203.24,200.86,197.64Z"/><path class="cls-4" d="M188.2,187.5c5.6-2.35,10.71-2.91,11.4-1.26s-3.29,4.89-8.9,7.24-8.31,1.91-9,.25S182.6,189.84,188.2,187.5Z"/><path class="cls-4" d="M211,185c-5.6,2.35-10.71,2.91-11.4,1.26s3.29-4.89,8.9-7.24,8.31-1.9,9-.25S216.6,182.64,211,185Z"/><path class="cls-4" d="M206.77,177.29c-2.3,5.62-5.51,9.63-7.17,8.95s-1.13-5.79,1.17-11.41,4.53-7.22,6.18-6.54S209.07,171.67,206.77,177.29Z"/><path class="cls-4" d="M192.43,195.19c2.31-5.62,5.51-9.63,7.17-8.95s1.13,5.79-1.17,11.41-4.53,7.22-6.19,6.54S190.13,200.81,192.43,195.19Z"/><path class="cls-4" d="M190.65,179.07c5.62,2.31,9.63,5.52,8.95,7.17s-5.79,1.13-11.41-1.17-7.22-4.53-6.54-6.18S185,176.77,190.65,179.07Z"/><path class="cls-4" d="M208.55,193.41c-5.62-2.3-9.63-5.52-8.95-7.17s5.79-1.13,11.41,1.17,7.22,4.53,6.54,6.19S214.17,195.71,208.55,193.41Z"/><path class="cls-4" d="M202.84,175.24c0,6.07-1.45,11-3.24,11s-3.24-4.92-3.24-11,1.45-8.4,3.24-8.4S202.84,169.17,202.84,175.24Z"/><path class="cls-4" d="M196.36,197.24c0-6.08,1.45-11,3.24-11s3.24,4.93,3.24,11-1.45,8.4-3.24,8.4S196.36,203.32,196.36,197.24Z"/><path class="cls-4" d="M188.6,183c6.07,0,11,1.45,11,3.24s-4.93,3.24-11,3.24-8.4-1.45-8.4-3.24S182.52,183,188.6,183Z"/><path class="cls-4" d="M210.6,189.48c-6.07,0-11-1.45-11-3.24s4.92-3.24,11-3.24,8.4,1.45,8.4,3.24S216.67,189.48,210.6,189.48Z"/><path class="cls-4" d="M209.67,180.75c-4.29,4.3-8.8,6.75-10.07,5.49s1.19-5.77,5.49-10.07,7-4.91,8.23-3.65S214,176.46,209.67,180.75Z"/><path class="cls-4" d="M189.53,191.73c4.29-4.3,8.8-6.75,10.07-5.49s-1.19,5.78-5.49,10.07-7,4.91-8.23,3.65S185.23,196,189.53,191.73Z"/><path class="cls-4" d="M194.11,176.17c4.29,4.29,6.75,8.8,5.49,10.07s-5.77-1.19-10.07-5.49-4.91-7-3.65-8.23S189.82,171.88,194.11,176.17Z"/><path class="cls-4" d="M205.09,196.31c-4.29-4.3-6.75-8.81-5.49-10.07s5.77,1.19,10.07,5.49,4.91,7,3.65,8.23S209.38,200.61,205.09,196.31Z"/><circle class="cls-5" cx="199.6" cy="186.3" r="5.57"/><path class="cls-4" d="M175.77,155.44c2.35,5.6,2.91,10.71,1.26,11.4s-4.89-3.29-7.24-8.9-1.91-8.31-.25-9S173.43,149.84,175.77,155.44Z"/><path class="cls-4" d="M178.29,178.24c-2.34-5.6-2.91-10.71-1.26-11.4s4.89,3.29,7.24,8.9,1.9,8.31.25,9S180.63,183.84,178.29,178.24Z"/><path class="cls-4" d="M165.63,168.1c5.6-2.35,10.71-2.91,11.4-1.26s-3.29,4.89-8.9,7.24-8.31,1.91-9,.25S160,170.44,165.63,168.1Z"/><path class="cls-4" d="M188.43,165.59c-5.6,2.35-10.71,2.91-11.4,1.26s3.29-4.89,8.9-7.24,8.31-1.9,9-.25S194,163.24,188.43,165.59Z"/><path class="cls-4" d="M184.2,157.89c-2.3,5.62-5.52,9.63-7.17,9s-1.13-5.79,1.17-11.41,4.53-7.22,6.18-6.54S186.5,152.27,184.2,157.89Z"/><path class="cls-4" d="M169.86,175.79c2.3-5.62,5.52-9.63,7.17-8.95s1.13,5.79-1.17,11.41-4.53,7.22-6.19,6.54S167.55,181.41,169.86,175.79Z"/><path class="cls-4" d="M168.08,159.67c5.62,2.3,9.63,5.51,8.95,7.17s-5.79,1.13-11.41-1.17-7.22-4.53-6.54-6.18S162.46,157.37,168.08,159.67Z"/><path class="cls-4" d="M186,174c-5.62-2.3-9.63-5.51-9-7.17s5.79-1.13,11.41,1.17,7.22,4.53,6.54,6.18S191.6,176.32,186,174Z"/><path class="cls-4" d="M180.27,155.84c0,6.07-1.45,11-3.24,11s-3.24-4.93-3.24-11,1.45-8.4,3.24-8.4S180.27,149.77,180.27,155.84Z"/><path class="cls-4" d="M173.79,177.84c0-6.07,1.45-11,3.24-11s3.24,4.93,3.24,11-1.45,8.4-3.24,8.4S173.79,183.92,173.79,177.84Z"/><path class="cls-4" d="M166,163.6c6.07,0,11,1.45,11,3.24s-4.92,3.24-11,3.24-8.4-1.45-8.4-3.24S160,163.6,166,163.6Z"/><path class="cls-4" d="M188,170.08c-6.07,0-11-1.45-11-3.24s4.93-3.24,11-3.24,8.4,1.45,8.4,3.24S194.1,170.08,188,170.08Z"/><path class="cls-4" d="M187.1,161.36c-4.29,4.29-8.8,6.75-10.07,5.49s1.19-5.77,5.49-10.07,7-4.91,8.23-3.65S191.39,157.06,187.1,161.36Z"/><path class="cls-4" d="M167,172.33c4.29-4.29,8.8-6.75,10.07-5.49s-1.19,5.77-5.48,10.07-7,4.91-8.23,3.65S162.66,176.62,167,172.33Z"/><path class="cls-4" d="M171.54,156.77c4.3,4.3,6.75,8.8,5.48,10.07s-5.77-1.19-10.07-5.49-4.91-7-3.65-8.23S167.25,152.48,171.54,156.77Z"/><path class="cls-4" d="M182.51,176.91c-4.29-4.3-6.75-8.8-5.49-10.07s5.78,1.19,10.07,5.49,4.91,7,3.65,8.23S186.81,181.21,182.51,176.91Z"/><circle class="cls-5" cx="177.03" cy="166.91" r="5.57"/><path class="cls-4" d="M172.26,182.88c1.51,3.6,1.87,6.87.81,7.32s-3.14-2.11-4.64-5.71-1.22-5.33-.16-5.78S170.76,179.28,172.26,182.88Z"/><path class="cls-4" d="M173.88,197.51c-1.5-3.6-1.87-6.87-.81-7.32s3.14,2.11,4.65,5.71,1.22,5.33.16,5.77S175.38,201.11,173.88,197.51Z"/><path class="cls-4" d="M165.75,191c3.6-1.51,6.87-1.87,7.32-.81s-2.11,3.14-5.71,4.65-5.33,1.22-5.78.16S162.16,192.51,165.75,191Z"/><path class="cls-4" d="M180.39,189.39c-3.6,1.51-6.87,1.87-7.32.81s2.11-3.14,5.71-4.65,5.33-1.22,5.78-.16S184,187.89,180.39,189.39Z"/><path class="cls-4" d="M177.67,184.46c-1.48,3.61-3.54,6.18-4.6,5.74s-.73-3.71.75-7.32,2.91-4.63,4-4.2S179.15,180.85,177.67,184.46Z"/><path class="cls-4" d="M168.47,195.94c1.48-3.61,3.54-6.18,4.6-5.74s.73,3.71-.75,7.32-2.91,4.63-4,4.2S167,199.55,168.47,195.94Z"/><path class="cls-4" d="M167.33,185.6c3.61,1.48,6.18,3.54,5.74,4.6s-3.71.73-7.32-.75-4.64-2.91-4.2-4S163.72,184.12,167.33,185.6Z"/><path class="cls-4" d="M178.81,194.8c-3.61-1.48-6.18-3.54-5.74-4.6s3.72-.73,7.32.75,4.64,2.91,4.2,4S182.42,196.28,178.81,194.8Z"/><path class="cls-4" d="M175.15,183.14c0,3.9-.93,7.06-2.08,7.06S171,187,171,183.14s.93-5.39,2.08-5.39S175.15,179.24,175.15,183.14Z"/><path class="cls-4" d="M171,197.26c0-3.9.93-7.06,2.08-7.06s2.08,3.16,2.08,7.06-.93,5.39-2.08,5.39S171,201.16,171,197.26Z"/><path class="cls-4" d="M166,188.12c3.9,0,7.06.93,7.06,2.08s-3.16,2.08-7.06,2.08-5.39-.93-5.39-2.08S162.11,188.12,166,188.12Z"/><path class="cls-4" d="M180.13,192.28c-3.9,0-7.06-.93-7.06-2.08s3.16-2.08,7.06-2.08,5.39.93,5.39,2.08S184,192.28,180.13,192.28Z"/><path class="cls-4" d="M179.54,186.68c-2.76,2.76-5.65,4.33-6.47,3.52s.76-3.71,3.52-6.46,4.47-3.15,5.28-2.34S182.29,183.92,179.54,186.68Z"/><path class="cls-4" d="M166.61,193.72c2.76-2.75,5.65-4.33,6.46-3.52s-.76,3.71-3.52,6.47-4.47,3.15-5.28,2.34S163.85,196.48,166.61,193.72Z"/><path class="cls-4" d="M169.55,183.74c2.76,2.76,4.33,5.65,3.52,6.46s-3.71-.77-6.46-3.52-3.15-4.47-2.34-5.28S166.79,181,169.55,183.74Z"/><path class="cls-4" d="M176.59,196.67c-2.76-2.76-4.33-5.65-3.52-6.47s3.71.77,6.47,3.52,3.15,4.47,2.34,5.29S179.35,199.42,176.59,196.67Z"/><circle class="cls-5" cx="173.07" cy="190.24" r="3.57"/><path class="cls-6" d="M388,97.26c-1.67-2.59-13.66,11.87-13.66,11.87l-7.4,5.54.1.2-10.24,36.3L337,116.75a6.41,6.41,0,0,0-6.47-3.13,19.13,19.13,0,0,0-7.43-1.48h-2.76l-.13-.21H307.94v-5.55a31.61,31.61,0,0,0,6.26.26c16.64-3.65,20-26.17,19.18-37.41,0-.2,0-.39-.05-.58a66.52,66.52,0,0,0,1.52-13.27c0-14.29-6.46-14.1-7.49-14-5.43-10.74-15-12.2-25.33-10.45a35.46,35.46,0,0,0-13.75,5.24,7.76,7.76,0,0,0-3.49-3.08C280,31,274.06,34.28,271.4,40.35s-1,12.66,3.78,14.73a7.41,7.41,0,0,0,1.68.5,44.45,44.45,0,0,0,.92,13.81,5.1,5.1,0,0,0,0,4.29c.9,2.42,2.21,7.06,3.79,9.37a2.78,2.78,0,1,0,4.19,3.64c2.27,6,5.68,11.21,10.34,14.78v10.47H284.43l-.06.21h-7.07a18.73,18.73,0,0,0-9.42,2.47,7.66,7.66,0,0,0-3.29.79l-2,1a7.7,7.7,0,0,0-3.49,10.32l2.72,5.5c1.42,10.5,4,30.68,4,38.92,0,14.41-5.24,74.68-5.24,74.68h78.45l-2.52-43.18,9.36,3.93v0l1.91.78,4.05,1.7,0,0,.54.22.17-.42,12.83,1.09s9.55-4.36,12-7.6c2.89-3.76,5.37-7.29,5.37-8.45,0-3.08-15.63,1.79-15.63,1.79l-9.1-.34,1.66-4.08-6.52-2.65L353,189l-17.74-7.45-.47-8,2.23-23.44,14.49,25.09a8.21,8.21,0,0,0,1.84,3,6.4,6.4,0,0,0,4.12,2.31,8.17,8.17,0,0,0,8.89-4,6.42,6.42,0,0,0,1.6-4.79l14.86-52.7-.57-.17c1.49-1.65,6.27-7.22,6.35-10.5C388.77,103.88,388.65,98.22,388,97.26Z"/><path class="cls-7" d="M268.38,237.73h66.36a0,0,0,0,1,0,0v13.68a6.11,6.11,0,0,1-6.11,6.11H274.49a6.11,6.11,0,0,1-6.11-6.11V237.73A0,0,0,0,1,268.38,237.73Z"/><path id="_Path_" data-name="&lt;Path&gt;" class="cls-7" d="M271.26,445.57v.09a3.27,3.27,0,0,0,3.28,3.28h48.72a1.65,1.65,0,0,0,1.65-1.65v-1.71Z"/><path id="_Path_2" data-name="&lt;Path&gt;" class="cls-7" d="M312.64,446v.09a3.27,3.27,0,0,0,3.28,3.28h48.72a1.65,1.65,0,0,0,1.65-1.65V446Z"/><rect id="_Rectangle_" data-name="&lt;Rectangle&gt;" class="cls-8" x="298.09" y="92.31" width="11.85" height="28.76" rx="4.58" ry="4.58" transform="translate(608.03 213.38) rotate(180)"/><rect id="_Rectangle_2" data-name="&lt;Rectangle&gt;" class="cls-7" x="338.6" y="110.44" width="16.58" height="73.25" rx="6.41" ry="6.41" transform="translate(720.84 100.99) rotate(150)"/><path id="_Path_3" data-name="&lt;Path&gt;" class="cls-9" d="M281,364.41h0a8.89,8.89,0,0,0-8.89,8.89v63a8.89,8.89,0,0,0,8.89,8.89h0a8.89,8.89,0,0,0,8.89-8.89v-63A8.89,8.89,0,0,0,281,364.41Z"/><path id="_Rectangle_3" data-name="&lt;Rectangle&gt;" class="cls-7" d="M269.74,227.65h22.95a0,0,0,0,1,0,0v194a7,7,0,0,1-7,7h-9a7,7,0,0,1-7-7v-194a0,0,0,0,1,0,0Z" transform="translate(562.42 656.34) rotate(180)"/><line id="_Path_4" data-name="&lt;Path&gt;" class="cls-10" x1="321.69" y1="440.31" x2="293.12" y2="432.87"/><path id="_Path_5" data-name="&lt;Path&gt;" class="cls-9" d="M323.19,364.41h0a8.89,8.89,0,0,1,8.89,8.89v63a8.89,8.89,0,0,1-8.89,8.89h0a8.89,8.89,0,0,1-8.89-8.89v-63A8.89,8.89,0,0,1,323.19,364.41Z"/><path id="_Rectangle_4" data-name="&lt;Rectangle&gt;" class="cls-7" d="M311.8,227.65h22.95a0,0,0,0,1,0,0v194a7,7,0,0,1-7,7h-9a7,7,0,0,1-7-7v-194a0,0,0,0,1,0,0Z" transform="translate(646.54 656.34) rotate(180)"/><path id="_Path_6" data-name="&lt;Path&gt;" class="cls-11" d="M279.29,112.14h45.76c9,0,16.34,6,16.34,13.46l-4.56,47.95,4.22,72.25H262.62s5.24-60.27,5.24-74.68c0-11.38-4.9-45.51-4.9-45.51C262.95,118.16,270.27,112.14,279.29,112.14Z"/><path id="_Path_7" data-name="&lt;Path&gt;" class="cls-12" d="M329.21,41.43s7.63-1.55,7.63,14a67.78,67.78,0,0,1-2,15.22L323.29,57.18l-12-5.36,15-5.41Z"/><path id="_Path_8" data-name="&lt;Path&gt;" class="cls-13" d="M316.19,106.65c-18.27,1-28-12.52-31-29.29-3.14-17.66,8.68-32.27,23-32.32,16.3-.05,25.81,6.3,27.14,24.2.84,11.24-2.54,33.75-19.18,37.41Z"/><g id="_Group_" data-name="&lt;Group&gt;"><line id="_Path_9" data-name="&lt;Path&gt;" class="cls-14" x1="331" y1="68.98" x2="324.3" y2="70.55"/><path id="_Path_10" data-name="&lt;Path&gt;" class="cls-14" d="M331.47,70a1.15,1.15,0,0,0-.73-2.16L324,69.43a1.15,1.15,0,0,0,.52,2.23l6.7-1.57Z"/></g><g id="_Group_2" data-name="&lt;Group&gt;"><line id="_Path_11" data-name="&lt;Path&gt;" class="cls-14" x1="314.77" y1="70.23" x2="307.93" y2="69.47"/><path id="_Path_12" data-name="&lt;Path&gt;" class="cls-14" d="M315.11,69.14a1.15,1.15,0,0,1-.47,2.24l-6.84-.77a1.15,1.15,0,1,1,.26-2.28l6.84.77Z"/></g><circle id="_Path_13" data-name="&lt;Path&gt;" cx="313.24" cy="75.38" r="1.55"/><circle id="_Path_14" data-name="&lt;Path&gt;" cx="328.79" cy="75.38" r="1.55"/><polygon id="_Path_15" data-name="&lt;Path&gt;" class="cls-15" points="320.12 74.04 319.91 87.53 322.81 86.87 320.12 74.04"/><ellipse id="_Path_16" data-name="&lt;Path&gt;" class="cls-12" cx="281.98" cy="44.1" rx="11.99" ry="9.36" transform="translate(128.59 284.79) rotate(-66.38)"/><path id="_Path_17" data-name="&lt;Path&gt;" class="cls-16" d="M288.35,79.37s8,1.5,6.95-7.08c4.36-.68,25.6-9.67,34.19-30.64-5.41-11-15-12.45-25.46-10.69-15.45,2.61-31.84,14.23-22.75,44.19C281.95,77.38,286.17,77.67,288.35,79.37Z"/><g id="_Group_3" data-name="&lt;Group&gt;"><path id="_Path_18" data-name="&lt;Path&gt;" class="cls-13" d="M290.8,71.89a8.66,8.66,0,0,0-3-3.15c-4.67-3.24-10.11-.61-8,4.93,1.45,3.87,3.92,13.45,6.94,10A18.39,18.39,0,0,0,290.8,71.89Z"/><polygon id="_Path_19" data-name="&lt;Path&gt;" class="cls-15" points="287.21 72.45 281.08 71.42 285.7 79.83 284.14 72.9 287.21 72.45"/></g><circle id="_Path_20" data-name="&lt;Path&gt;" class="cls-17" cx="285.63" cy="84.89" r="2.79"/><path id="_Path_21" data-name="&lt;Path&gt;" class="cls-8" d="M285.75,115.74c0,8.28,8.18,15,18.26,15s18.27-6.71,18.27-15a12.32,12.32,0,0,0-.53-3.6H286.28A12.32,12.32,0,0,0,285.75,115.74Z"/><path id="_Path_22" data-name="&lt;Path&gt;" class="cls-10" d="M312.64,435.18V446h53.65v-1.09a4.31,4.31,0,0,0-3.23-4.17l-28.56-7.44a8,8,0,0,0-4,0c-7.63,2-13,1.1-15.74.28A1.65,1.65,0,0,0,312.64,435.18Z"/><path id="_Path_23" data-name="&lt;Path&gt;" class="cls-8" d="M375.1,126.39l8.75-7s6.7-7.1,6.8-11c.12-4.52,0-10.17-.63-11.14-1.67-2.59-13.67,11.87-13.67,11.87l-7.4,5.54Z"/><path id="_Path_24" data-name="&lt;Path&gt;" class="cls-7" d="M384.87,119.06l-15.71-4.55-15.73,55.76A8.18,8.18,0,0,0,359,180.41h0a8.18,8.18,0,0,0,10.13-5.58Z"/><rect id="_Rectangle_5" data-name="&lt;Rectangle&gt;" class="cls-11" x="368.27" y="116.35" width="16.18" height="6.07" transform="translate(44.13 -93.97) rotate(15.11)"/><polygon id="_Path_25" data-name="&lt;Path&gt;" class="cls-7" points="286.43 111.93 284 119.98 290.63 126.6 287.84 131.81 316.99 172.79 328.5 131.7 324.89 126.33 327.23 119.98 322.16 111.93 286.43 111.93"/><polygon id="_Path_26" data-name="&lt;Path&gt;" class="cls-4" points="318.93 111.93 313.78 159.2 290.63 111.93 318.93 111.93"/><rect id="_Rectangle_6" data-name="&lt;Rectangle&gt;" class="cls-7" x="273.05" y="112.09" width="17.58" height="73.25" rx="7.7" ry="7.7" transform="translate(600.4 157.11) rotate(153.69)"/><path id="_Path_27" data-name="&lt;Path&gt;" class="cls-8" d="M353.64,208.72l13.77,1.17s9.55-4.36,12-7.6c2.89-3.76,5.37-7.29,5.37-8.45,0-3.08-15.63,1.79-15.63,1.79l-13.71-.52Z"/><path id="_Path_28" data-name="&lt;Path&gt;" class="cls-7" d="M353.86,209l7.47-17.43-61.94-26a9.48,9.48,0,0,0-12.45,5h0a9.48,9.48,0,0,0,5,12.45Z"/><rect id="_Rectangle_7" data-name="&lt;Rectangle&gt;" class="cls-11" x="345.09" y="195.37" width="19.45" height="7.04" transform="translate(672.73 -54.86) rotate(112.13)"/><path id="_Path_29" data-name="&lt;Path&gt;" class="cls-10" d="M271.26,434.72v10.85h53.65v-1.09a4.31,4.31,0,0,0-3.23-4.17l-28.56-7.44a8,8,0,0,0-4,0c-7.63,2-13,1.1-15.74.28A1.65,1.65,0,0,0,271.26,434.72Z"/><ellipse class="cls-18" cx="317.77" cy="94.33" rx="5.26" ry="4.33"/><path class="cls-19" d="M418.67,194.21h40.5a13.5,13.5,0,0,1,13.5,13.5v22a0,0,0,0,1,0,0h-67.5a0,0,0,0,1,0,0v-22A13.5,13.5,0,0,1,418.67,194.21Z"/><circle class="cls-20" cx="438.92" cy="212.94" r="14.01"/><circle class="cls-21" cx="438.92" cy="202.6" r="2.34"/><circle class="cls-21" cx="433.75" cy="203.98" r="2.34" transform="translate(-43.88 244.2) rotate(-30)"/><circle class="cls-21" cx="429.96" cy="207.77" r="2.34" transform="translate(35.05 476.24) rotate(-60)"/><circle class="cls-21" cx="428.58" cy="212.94" r="2.34"/><circle class="cls-21" cx="429.96" cy="218.11" r="2.34" transform="translate(-51.45 244.2) rotate(-30)"/><circle class="cls-21" cx="433.75" cy="221.9" r="2.34" transform="translate(24.7 486.59) rotate(-60)"/><circle class="cls-21" cx="438.92" cy="223.28" r="2.34"/><circle class="cls-21" cx="444.09" cy="221.9" r="2.34" transform="translate(-51.45 251.77) rotate(-30)"/><circle class="cls-21" cx="447.88" cy="218.11" r="2.34" transform="translate(35.05 496.93) rotate(-60)"/><circle class="cls-21" cx="449.26" cy="212.94" r="2.34"/><circle class="cls-21" cx="447.88" cy="207.77" r="2.34" transform="translate(-43.88 251.77) rotate(-30)"/><circle class="cls-21" cx="444.09" cy="203.98" r="2.34" transform="matrix(0.5, -0.87, 0.87, 0.5, 45.39, 486.59)"/><path class="cls-22" d="M384,130.18h0l6-28.84h0l1.34-6.45a9.71,9.71,0,1,0-11.48,7.53l1.7.35-3.65,17.53-1.7-.35a9.71,9.71,0,1,0,7.53,11.48Z"/><rect class="cls-19" x="378.13" y="99.05" width="7.97" height="29.46" transform="translate(31.17 -75.42) rotate(11.75)"/><path class="cls-19" d="M380.86,82h0a9.71,9.71,0,0,1,9.71,9.71v9.71a0,0,0,0,1,0,0h-9.71a9.71,9.71,0,0,1-9.71-9.71v0A9.71,9.71,0,0,1,380.86,82Z" transform="translate(26.66 -75.62) rotate(11.75)"/><path class="cls-19" d="M373.26,118.57H383a0,0,0,0,1,0,0v9.71a9.71,9.71,0,0,1-9.71,9.71h0a9.71,9.71,0,0,1-9.71-9.71v0a9.71,9.71,0,0,1,9.71-9.71Z" transform="translate(33.94 -73.31) rotate(11.75)"/><circle class="cls-23" cx="379.08" cy="91.2" r="6.76" transform="translate(212.61 443.77) rotate(-78.25)"/><circle class="cls-23" cx="371.73" cy="127.96" r="6.76" transform="translate(170.77 465.85) rotate(-78.25)"/><path id="_Path_30" data-name="&lt;Path&gt;" class="cls-8" d="M371.09,113.52s10.33,4.19,13.15.08a1.24,1.24,0,0,0-.81-1.9c-3.54-.7-5.86-1.14-5.86-1.14Z"/><path class="cls-24" d="M406.38,227S395,225.21,397,210.6s9.5-17.22,6.63-23.66-20.23-10.51-19.18-22.1-13.36-19.42-10.7-27.34"/><polyline class="cls-25" points="347.93 116.68 346.97 115.74 345.7 114.52 335.21 104.39"/><line class="cls-25" x1="352.48" y1="106.08" x2="338.05" y2="101.6"/><rect class="cls-7" x="442" y="46" width="142" height="119"/><circle class="cls-26" cx="466.5" cy="70.5" r="6"/><rect class="cls-17" x="464" y="77" width="4" height="19" transform="translate(932 173) rotate(180)"/><rect class="cls-17" x="460" y="95" width="8" height="1" transform="translate(928 191) rotate(180)"/><rect class="cls-17" x="461" y="92" width="7" height="1" transform="translate(929 185) rotate(180)"/><circle class="cls-27" cx="466.5" cy="66.5" r="1.5"/><circle class="cls-28" cx="466.5" cy="66.5" r="1.5"/><circle class="cls-29" cx="470.64" cy="77.35" r="1.18" transform="translate(164.76 443.31) rotate(-59.44)"/><circle class="cls-29" cx="470.81" cy="77.83" r="1.18" transform="matrix(0.51, -0.86, 0.86, 0.51, 164.44, 443.69)"/><path class="cls-29" d="M472.82,73.77l-5.93,2-.8,3.89,4.67,14,9.57-3.18-4.65-14Zm6,16-7.36,2.45-4.19-12.6.61-3,4.56-1.52,2.2,2.12Z"/><path class="cls-30" d="M467.91,76.58l-.61,3,4.19,12.6,7.36-2.45-4.17-12.55-2.2-2.12Zm2.94,1.4a.82.82,0,1,1,.52-1A.82.82,0,0,1,470.85,78Z"/><rect class="cls-29" x="469.36" y="73.24" width="1.3" height="4.09" rx="0.41" ry="0.41" transform="translate(0.24 152.04) rotate(-18.38)"/><circle class="cls-26" cx="526.5" cy="70.5" r="6"/><rect class="cls-17" x="524" y="77" width="4" height="19" transform="translate(1052 173) rotate(180)"/><rect class="cls-17" x="520" y="95" width="8" height="1" transform="translate(1048 191) rotate(180)"/><rect class="cls-17" x="521" y="92" width="7" height="1" transform="translate(1049 185) rotate(180)"/><circle class="cls-29" cx="523.73" cy="78.73" r="1.18" transform="translate(-3.08 133.12) rotate(-14.44)"/><circle class="cls-29" cx="523.51" cy="79.19" r="1.18" transform="translate(-3.2 133.08) rotate(-14.44)"/><path class="cls-29" d="M527.8,77.74l-5.59-2.8-3.32,2.19-6.63,13.24,9,4.52,6.6-13.17Zm-7,15.54-6.93-3.47,5.94-11.87,2.55-1.68,4.3,2.15.06,3.05Z"/><path class="cls-30" d="M522.34,76.26l-2.55,1.68-5.94,11.87,6.93,3.47,5.92-11.82-.06-3.05Zm1.09,3.07a.82.82,0,1,1,1.1-.36A.82.82,0,0,1,523.44,79.33Z"/><rect class="cls-29" x="522.7" y="76.18" width="4.09" height="1.3" rx="0.41" ry="0.41" transform="translate(220.93 511.53) rotate(-63.38)"/><circle class="cls-26" cx="556.5" cy="70.5" r="6"/><rect class="cls-17" x="554" y="77" width="4" height="19" transform="translate(1112 173) rotate(180)"/><rect class="cls-17" x="550" y="95" width="8" height="1" transform="translate(1108 191) rotate(180)"/><rect class="cls-17" x="551" y="92" width="7" height="1" transform="translate(1109 185) rotate(180)"/><circle class="cls-29" cx="555.85" cy="78.72" r="1.18" transform="translate(118.84 431.12) rotate(-46.94)"/><circle class="cls-29" cx="555.92" cy="79.22" r="1.18" transform="translate(118.49 431.32) rotate(-46.94)"/><path class="cls-29" d="M558.76,75.69l-6.22.64L550.92,80l1.52,14.72,10-1L561,79Zm2.43,16.88-7.71.8-1.36-13.21,1.25-2.79,4.78-.49,1.69,2.54Z"/><path class="cls-30" d="M553.36,77.38l-1.25,2.79,1.36,13.21,7.71-.8-1.36-13.15-1.69-2.54Zm2.57,2a.82.82,0,1,1,.73-.9A.82.82,0,0,1,555.93,79.38Z"/><rect class="cls-29" x="555.04" y="74.52" width="1.3" height="4.09" rx="0.41" ry="0.41" transform="translate(-4.92 57.32) rotate(-5.88)"/><circle class="cls-26" cx="465.5" cy="120.5" r="6"/><rect class="cls-17" x="463" y="127" width="4" height="19" transform="translate(930 273) rotate(180)"/><rect class="cls-17" x="459" y="145" width="8" height="1" transform="translate(926 291) rotate(180)"/><rect class="cls-17" x="460" y="142" width="7" height="1" transform="translate(927 285) rotate(180)"/><circle class="cls-26" cx="495.5" cy="120.5" r="6"/><rect class="cls-17" x="493" y="127" width="4" height="19" transform="translate(990 273) rotate(180)"/><rect class="cls-17" x="489" y="145" width="8" height="1" transform="translate(986 291) rotate(180)"/><rect class="cls-17" x="490" y="142" width="7" height="1" transform="translate(987 285) rotate(180)"/><circle class="cls-26" cx="525.5" cy="120.5" r="6"/><rect class="cls-17" x="523" y="127" width="4" height="19" transform="translate(1050 273) rotate(180)"/><rect class="cls-17" x="519" y="145" width="8" height="1" transform="translate(1046 291) rotate(180)"/><rect class="cls-17" x="520" y="142" width="7" height="1" transform="translate(1047 285) rotate(180)"/><circle class="cls-29" cx="523.65" cy="128.12" r="1.18" transform="translate(32.31 349.95) rotate(-38.05)"/><circle class="cls-29" cx="523.64" cy="128.62" r="1.18" transform="translate(32 350.05) rotate(-38.05)"/><path class="cls-29" d="M527,125.58l-6.25-.33-2.17,3.33-.77,14.78,10.07.53.77-14.71Zm-.21,17.05-7.74-.41.69-13.26,1.66-2.56,4.8.25,1.28,2.77Z"/><path class="cls-30" d="M521.39,126.41,519.73,129,519,142.23l7.74.41.69-13.2-1.28-2.77Zm2.23,2.38a.82.82,0,1,1,.86-.77A.82.82,0,0,1,523.62,128.78Z"/><rect class="cls-29" x="521.77" y="125.32" width="4.09" height="1.3" rx="0.41" ry="0.41" transform="translate(370.46 642.44) rotate(-86.98)"/><circle class="cls-26" cx="555.5" cy="120.5" r="6"/><rect class="cls-17" x="554" y="127" width="4" height="19" transform="translate(1112 273) rotate(180)"/><rect class="cls-17" x="549" y="145" width="8" height="1" transform="translate(1106 291) rotate(180)"/><rect class="cls-17" x="550" y="142" width="7" height="1" transform="translate(1107 285) rotate(180)"/><circle class="cls-29" cx="559.21" cy="128.46" r="1.18" transform="translate(164.3 544.71) rotate(-59.44)"/><circle class="cls-29" cx="559.38" cy="128.93" r="1.18" transform="translate(163.97 545.09) rotate(-59.44)"/><path class="cls-29" d="M561.4,124.88l-5.93,2-.8,3.89,4.67,14,9.57-3.18-4.65-14Zm6,16-7.36,2.45-4.19-12.6.61-3,4.56-1.52,2.2,2.12Z"/><path class="cls-30" d="M556.49,127.69l-.61,3,4.19,12.6,7.36-2.45-4.17-12.55-2.2-2.12Zm2.94,1.4a.82.82,0,1,1,.52-1A.82.82,0,0,1,559.43,129.09Z"/><rect class="cls-29" x="557.94" y="124.35" width="1.3" height="4.09" rx="0.41" ry="0.41" transform="translate(-11.36 182.58) rotate(-18.38)"/><circle class="cls-27" cx="496.5" cy="66.5" r="1.5"/><circle class="cls-27" cx="526.5" cy="66.5" r="1.5"/><circle class="cls-27" cx="556.5" cy="66.5" r="1.5"/><circle class="cls-27" cx="555.5" cy="116.5" r="1.5"/><circle class="cls-27" cx="525.5" cy="116.5" r="1.5"/><circle class="cls-27" cx="465.5" cy="116.5" r="1.5"/><circle class="cls-27" cx="495.5" cy="116.5" r="1.5"/><circle class="cls-28" cx="495.5" cy="116.5" r="1.5"/><circle class="cls-28" cx="464.5" cy="116.5" r="1.5"/><circle class="cls-28" cx="525.5" cy="116.5" r="1.5"/><circle class="cls-28" cx="555.5" cy="116.5" r="1.5"/><circle class="cls-26" cx="496.5" cy="70.5" r="6"/><rect class="cls-17" x="494" y="77" width="4" height="19" transform="translate(992 173) rotate(180)"/><rect class="cls-17" x="490" y="95" width="8" height="1" transform="translate(988 191) rotate(180)"/><rect class="cls-17" x="491" y="92" width="7" height="1" transform="translate(989 185) rotate(180)"/><circle class="cls-28" cx="496.5" cy="66.5" r="1.5"/><circle class="cls-29" cx="495.09" cy="78.49" r="1.18" transform="translate(28.62 262.02) rotate(-30.49)"/><circle class="cls-29" cx="495.01" cy="78.99" r="1.18" transform="translate(28.36 262.05) rotate(-30.49)"/><path class="cls-29" d="M498.74,76.42l-6.15-1.15-2.59,3-2.71,14.55,9.92,1.85,2.7-14.48Zm-2.45,16.88-7.62-1.42,2.43-13.05,2-2.32,4.73.88.9,2.92Z"/><path class="cls-30" d="M493.08,76.5l-2,2.32-2.43,13.05,7.62,1.42,2.42-13-.9-2.92Zm1.9,2.65a.82.82,0,1,1,1-.65A.82.82,0,0,1,495,79.14Z"/><rect class="cls-29" x="493.5" y="75.74" width="4.09" height="1.3" rx="0.41" ry="0.41" transform="translate(329.49 549.49) rotate(-79.42)"/><circle class="cls-28" cx="526.5" cy="66.5" r="1.5"/><circle class="cls-28" cx="556.5" cy="66.5" r="1.5"/><circle class="cls-29" cx="494.5" cy="128.5" r="1.5"/><path class="cls-29" d="M497.57,125.6l-6.25-.19-2.09,3.38-.45,14.8,10.08.31.45-14.73Zm.16,17.05-7.75-.24.4-13.27,1.61-2.6,4.81.15,1.34,2.74Z"/><path class="cls-30" d="M492,126.54l-1.61,2.6-.4,13.27,7.75.24.4-13.22-1.34-2.74Zm2.28,2.33a.82.82,0,1,1,.84-.79A.82.82,0,0,1,494.27,128.87Z"/><rect class="cls-29" x="492.36" y="125.4" width="4.09" height="1.3" rx="0.41" ry="0.41" transform="translate(353.22 616.36) rotate(-88.24)"/><circle class="cls-29" cx="463.5" cy="128.5" r="1.5"/><path class="cls-29" d="M467.34,126.9l-5.91-2-3,2.6-4.84,14,9.53,3.3,4.82-13.92Zm-4.93,16.32-7.33-2.54,4.34-12.55,2.31-2,4.54,1.57.46,3Z"/><path class="cls-30" d="M461.73,126.14l-2.31,2-4.34,12.55,7.33,2.54,4.32-12.49-.46-3Zm1.48,2.9a.82.82,0,1,1,1-.5A.82.82,0,0,1,463.22,129Z"/><rect class="cls-29" x="462.14" y="125.74" width="4.09" height="1.3" rx="0.41" ry="0.41" transform="translate(192.83 523.65) rotate(-70.9)"/><rect class="cls-31" x="441" y="44" width="142" height="124"/><polygon class="cls-32" points="439 144.76 439 162.44 558.44 43 540.76 43 439 144.76"/><polygon class="cls-32" points="441 98.68 441 134.03 530.03 45 494.68 45 441 98.68"/><rect class="cls-33" x="441.5" y="43.5" width="142" height="124"/><circle class="cls-34" cx="583.5" cy="101.5" r="3.5"/><circle class="cls-35" cx="583.5" cy="100.5" r="3.5"/><path class="cls-36" d="M584.84,98.27a3.43,3.43,0,0,1,1.53,2.86"/><path class="cls-36" d="M583.83,97.82a3.41,3.41,0,0,1,.59.22"/><rect class="cls-14" x="151.48" y="228.67" width="407.33" height="224.33" rx="10.05" ry="10.05"/><path class="cls-37" d="M449.23,267.23v32.51s25.77-9,58.63-4.28c-15.24-13.56-15-21.26,0-32.31C506.79,263,463.58,258.26,449.23,267.23Z"/><path class="cls-38" d="M449.37,267.33,449,290.62l28-8.86S462.54,267.71,449.37,267.33Z"/><path class="cls-37" d="M263.91,267.23v32.51s-25.77-9-58.63-4.28c15.24-13.56,15-21.26,0-32.31C206.34,263,249.55,258.26,263.91,267.23Z"/><path class="cls-38" d="M263.78,267.33l.31,23.29-28-8.86S250.6,267.71,263.78,267.33Z"/><rect class="cls-39" x="236.49" y="281.86" width="240.54" height="38.03"/><text class="cls-40" transform="translate(309.08 315.67)">HOTEL</text><path class="cls-41" d="M548.76,228.67H524.5V453h24.26a10.05,10.05,0,0,0,10.05-10.05V238.73A10.05,10.05,0,0,0,548.76,228.67Z"/><g class="cls-42"><polygon class="cls-43" points="283.1 335.26 287.79 344.77 298.29 346.3 290.69 353.7 292.49 364.15 283.1 359.22 273.71 364.15 275.5 353.7 267.9 346.3 278.4 344.77 283.1 335.26"/><polygon class="cls-43" points="319.83 335.26 324.53 344.77 335.02 346.3 327.43 353.7 329.22 364.15 319.83 359.22 310.44 364.15 312.24 353.7 304.64 346.3 315.14 344.77 319.83 335.26"/><polygon class="cls-43" points="356.57 335.26 361.26 344.77 371.76 346.3 364.16 353.7 365.96 364.15 356.57 359.22 347.18 364.15 348.97 353.7 341.38 346.3 351.87 344.77 356.57 335.26"/><polygon class="cls-43" points="393.3 335.26 398 344.77 408.5 346.3 400.9 353.7 402.69 364.15 393.3 359.22 383.92 364.15 385.71 353.7 378.11 346.3 388.61 344.77 393.3 335.26"/><polygon class="cls-43" points="430.04 335.26 434.73 344.77 445.23 346.3 437.64 353.7 439.43 364.15 430.04 359.22 420.65 364.15 422.44 353.7 414.85 346.3 425.35 344.77 430.04 335.26"/></g><path class="cls-41" d="M161.55,228.67h24.26V453H161.55a10.05,10.05,0,0,1-10.05-10.05V238.73A10.05,10.05,0,0,1,161.55,228.67Z"/><polygon class="cls-37" points="283.1 337.26 287.79 346.77 298.29 348.3 290.69 355.7 292.49 366.15 283.1 361.22 273.71 366.15 275.5 355.7 267.9 348.3 278.4 346.77 283.1 337.26"/><polygon class="cls-37" points="319.83 337.26 324.53 346.77 335.02 348.3 327.43 355.7 329.22 366.15 319.83 361.22 310.44 366.15 312.24 355.7 304.64 348.3 315.14 346.77 319.83 337.26"/><polygon class="cls-37" points="356.57 337.26 361.26 346.77 371.76 348.3 364.16 355.7 365.96 366.15 356.57 361.22 347.18 366.15 348.97 355.7 341.38 348.3 351.87 346.77 356.57 337.26"/><polygon class="cls-37" points="393.3 337.26 398 346.77 408.5 348.3 400.9 355.7 402.69 366.15 393.3 361.22 383.92 366.15 385.71 355.7 378.11 348.3 388.61 346.77 393.3 337.26"/><polygon class="cls-37" points="430.04 337.26 434.73 346.77 445.23 348.3 437.64 355.7 439.43 366.15 430.04 361.22 420.65 366.15 422.44 355.7 414.85 348.3 425.35 346.77 430.04 337.26"/></svg>