<svg id="Layer_1" data-name="Layer 1" xmlns="http://www.w3.org/2000/svg" viewBox="0 0 708.66 481.89"><defs><style>.cls-1{fill:#ffe4cc;}.cls-13,.cls-2,.cls-20,.cls-22,.cls-4{opacity:0.07;}.cls-20,.cls-3{fill:#1e1e1e;}.cls-4{fill:#111;}.cls-5{fill:#91b985;}.cls-6{fill:#3d233e;}.cls-7{fill:#19a4a4;}.cls-8{fill:#fff;}.cls-9{fill:#ffdc83;}.cls-10{fill:#d5e1ef;}.cls-11{fill:#648ec9;}.cls-12{fill:#91b7e5;}.cls-13{fill:#191919;}.cls-14,.cls-17,.cls-19,.cls-38,.cls-49,.cls-53{fill:none;}.cls-14{stroke:#474746;}.cls-14,.cls-19,.cls-49,.cls-53{stroke-linecap:round;stroke-linejoin:round;}.cls-14,.cls-49{stroke-width:2px;}.cls-15{font-size:17.79px;font-family:Impact, Impact;}.cls-15,.cls-16{fill:#474746;}.cls-17,.cls-53{stroke:#fff;}.cls-17,.cls-37,.cls-38{stroke-miterlimit:10;}.cls-17{stroke-width:8px;}.cls-18{fill:#bcbcbc;}.cls-19{stroke:#f7f7f7;}.cls-21{fill:#e7685d;}.cls-22,.cls-28{fill:#4d4e4e;}.cls-23{fill:#a57c52;}.cls-24,.cls-35{fill:#dc846a;}.cls-25{fill:#3f5aa8;}.cls-26{fill:#8e694a;}.cls-27{fill:#b3b2b3;}.cls-29{fill:#c49a6c;}.cls-30,.cls-32{fill:#f8ab8d;}.cls-31{fill:#e5e5e4;}.cls-32,.cls-35{fill-rule:evenodd;}.cls-33{fill:#979797;}.cls-34{fill:gray;}.cls-36,.cls-37{fill:#e1f4f9;opacity:0.51;}.cls-37,.cls-38{stroke:#fccd6d;}.cls-39{fill:#fccd6d;}.cls-40{fill:#e2e1e0;}.cls-41{fill:#c1c1c1;}.cls-42{fill:#eeefef;}.cls-43{fill:#a4a6a9;}.cls-44{fill:#b9bbbd;}.cls-45{fill:#405aa8;}.cls-46{fill:#353560;}.cls-47{fill:#8b6339;}.cls-48{fill:#754d24;}.cls-49{stroke:#dc846a;}.cls-50{fill:#efedef;}.cls-51{fill:#757475;}.cls-52{fill:#bfbebf;}</style></defs><title>CS-L2-U4</title><rect class="cls-1" x="43.37" y="93.17" width="638.67" height="252" rx="36.67" ry="36.67"/><g class="cls-2"><rect class="cls-3" x="291.2" y="284.1" width="8.89" height="104.67"/><rect class="cls-3" x="205.44" y="284.1" width="8.89" height="104.67"/><rect class="cls-3" x="248.15" y="231.77" width="8.89" height="104.67" transform="translate(-31.51 536.69) rotate(-90)"/></g><path class="cls-4" d="M278.42,177.69c-4.58.16-8.39,3.37-9.88,4.82-6,2.19-11.35,8-15.26,16.83a70.13,70.13,0,0,0-4.63,15.28,96.7,96.7,0,0,1,2.16-27.35c1.6-.85,6.19-3.65,7.73-8.27,1.88-5.62-1.49-11.81-1.49-11.81s-6.41,2.92-8.29,8.55c-1.42,4.27.17,8.86,1,10.83q-.6,2.7-1.06,5.38a12.72,12.72,0,0,0-1.72-5.56c-3.1-5.05-10-6.45-10-6.45s-1.88,6.79,1.22,11.84c2.67,4.36,8.18,6,9.64,6.36-.81,7.32-.08,21.88-.14,22.4a72.55,72.55,0,0,0-5.15-18.26c-3.32-7.48-7.64-12.8-12.56-15.58-.37-2-1.62-6.9-5.33-9.69C220,173.43,213,174.65,213,174.65s.74,7,5.47,10.57c3.8,2.86,9,2.64,10.93,2.44,5.76,3.24,10.56,10.13,13.8,19.29-1.44-2-4.17-4.93-7.91-5.91-5.73-1.5-11.69,2.28-11.69,2.28s3.35,6.2,9.08,7.7c4.77,1.25,9.68-1.15,11.21-2a80.49,80.49,0,0,1,3,13.67c-1.58,0-3,0-3.88-.05.06,5.25,1.5,3.16,2.11,9.58s-1.48,11.35-3.89,19.55.85,23.53,1.22,31.57c3.52-.08,8.93,0,12.3,0,.36-8,3.62-23.37,1.22-31.57s-4.5-13.13-3.89-19.55,2-4.34,2.11-9.58c-1,0-2.65.05-4.48.06q-.34-1.81-.6-3.72a78.83,78.83,0,0,1,3.16-13.78c1,.48,6.61,3,11.68,1.21,5.59-2,8.4-8.44,8.4-8.44s-6.25-3.26-11.84-1.28c-4.16,1.47-6.78,5.43-7.85,7.36,3.61-10.22,9.16-17.61,15.83-20.28,1.5,1.29,5.6,4.39,10.29,4.23,5.92-.2,10.55-5.52,10.55-5.52S284.35,177.49,278.42,177.69Z"/><path class="cls-5" d="M279.27,177.69c-4.58.16-8.39,3.37-9.88,4.82-6,2.19-11.35,8-15.26,16.83a70.13,70.13,0,0,0-4.63,15.28,96.7,96.7,0,0,1,2.16-27.35c1.6-.85,6.19-3.65,7.73-8.27,1.88-5.62-1.49-11.81-1.49-11.81s-6.41,2.92-8.29,8.55c-1.42,4.27.17,8.86,1,10.83q-.6,2.7-1.06,5.38a12.72,12.72,0,0,0-1.72-5.56c-3.1-5.05-10-6.45-10-6.45s-1.88,6.79,1.22,11.84c2.67,4.36,8.18,6,9.64,6.36-.81,7.32-.08,21.88-.14,22.4a72.55,72.55,0,0,0-5.15-18.26c-3.32-7.48-7.64-12.8-12.56-15.58-.37-2-1.62-6.9-5.33-9.69-4.73-3.57-11.67-2.34-11.67-2.34s.74,7,5.47,10.57c3.8,2.86,9,2.64,10.93,2.44,5.76,3.24,10.56,10.13,13.8,19.29-1.44-2-4.17-4.93-7.91-5.91-5.73-1.5-11.69,2.28-11.69,2.28s3.35,6.2,9.08,7.7c4.77,1.24,9.68-1.15,11.21-2a82.83,82.83,0,0,1,3.33,16.82c.85.24,2.16.45,3.3.63a62.12,62.12,0,0,1-1.44-7.49,78.83,78.83,0,0,1,3.16-13.78c1,.48,6.61,3,11.68,1.21,5.59-2,8.4-8.44,8.4-8.44s-6.25-3.26-11.84-1.28c-4.16,1.47-6.78,5.43-7.85,7.36,3.61-10.22,9.16-17.61,15.83-20.28,1.5,1.29,5.6,4.39,10.29,4.23,5.92-.2,10.55-5.52,10.55-5.52S285.19,177.49,279.27,177.69Z"/><path class="cls-6" d="M256.79,251.78c-2.41-8.2-4.5-13.13-3.89-19.55s2-4.34,2.11-9.58c-2.3.08-8.8.08-11.18,0,.06,5.25,1.5,3.16,2.11,9.58s-1.48,11.35-3.89,19.55.85,23.53,1.22,31.57c3.52-.08,8.93,0,12.3,0C255.93,275.31,259.2,260,256.79,251.78Z"/><polygon class="cls-7" points="213.2 283.24 224.3 283.26 226.51 262.7 210.98 262.67 213.2 283.24"/><path class="cls-8" d="M214.8,267.13a3.93,3.93,0,0,0-3.18,1.62l.57,5.26a3.93,3.93,0,1,0,2.62-6.88Z"/><rect class="cls-9" x="209.88" y="261.34" width="17.39" height="2.2" rx="1.1" ry="1.1" transform="translate(0.57 -0.47) rotate(0.12)"/><path class="cls-10" d="M274.66,252.77h12.24a0,0,0,0,1,0,0v27.78a3.7,3.7,0,0,1-3.7,3.7h-4.84a3.7,3.7,0,0,1-3.7-3.7V252.77A0,0,0,0,1,274.66,252.77Z"/><polyline class="cls-10" points="286.89 252.77 282.67 246.19 278.61 246.19 274.66 252.77"/><rect class="cls-11" x="277.77" y="244.49" width="5.69" height="2.31"/><rect class="cls-8" x="274.66" y="261.87" width="12.24" height="6.43"/><path class="cls-11" d="M282.63,265.51a1.85,1.85,0,0,1-3.7,0c0-1,1.85-2.7,1.85-2.7S282.63,264.49,282.63,265.51Z"/><rect class="cls-12" x="289.2" y="286.1" width="8.89" height="104.67"/><rect class="cls-12" x="203.44" y="286.1" width="8.89" height="104.67"/><rect class="cls-12" x="246.15" y="233.77" width="8.89" height="104.67" transform="translate(-35.51 536.69) rotate(-90)"/><rect class="cls-11" x="455.16" y="47.91" width="195.67" height="345.19"/><path class="cls-13" d="M605.59,134.69l-1.22.13L549,93.47a1,1,0,0,0-1.35.14l-46.1,51.9-.85.09,7.85,75.59,104.91-10.9ZM504.47,145.2l44-49.58,52.93,39.5Z"/><polyline class="cls-14" points="500.45 143.09 548.91 92.84 602.88 136.67"/><rect class="cls-8" x="501.42" y="138.79" width="105.48" height="76" transform="translate(-9.96 34.97) rotate(-3.58)"/><text class="cls-15" transform="translate(514.26 165.34) rotate(-3.58)">INTERVIEW</text><text class="cls-15" transform="translate(517.24 185.53) rotate(-3.58)"><tspan xml:space="preserve">         IN </tspan><tspan x="0" y="21.35">PROGRESS</tspan></text><circle class="cls-16" cx="549" cy="94.38" r="3.37"/><rect class="cls-17" x="451.5" y="47.91" width="202.67" height="345.19"/><circle class="cls-18" cx="478.83" cy="225.51" r="11"/><path class="cls-19" d="M470.76,226.85a8.23,8.23,0,0,1-.11-1.35"/><path class="cls-19" d="M478.83,233.68a8.18,8.18,0,0,1-7.7-5.42"/><path class="cls-20" d="M158.16,284.3c-16.06-16.06-15.17-24-39.66-24s-23.57,8.07-39.48,24c-12.13,15.26-29.78,16.32-25.15,22.06,5.74,2,10.37,3.31,12.79,13.23a59.05,59.05,0,0,0,2.93,9.65A92.5,92.5,0,0,0,89,338.29L72.53,404h4l19.63-63.58c3,.73,6,1.32,9.09,1.76l-8.84,35.34h4l10.71-34.7c2.43.19,4.89.3,7.37.3s4.94-.11,7.37-.3l10.71,34.7h4l-8.84-35.34c3.09-.44,6.12-1,9.09-1.76L160.61,404h4l-16.43-65.67a92.5,92.5,0,0,0,19.36-9.05,59,59,0,0,0,2.93-9.65c2.43-9.92,7.06-11.25,12.79-13.23C187.94,300.62,170.29,299.56,158.16,284.3Z"/><path class="cls-9" d="M148.47,339.36,141,341.12l20.14,65.22h4Zm-75.36,67h4L97.3,341.12l-7.43-1.76Z"/><polygon class="cls-9" points="124.55 312.89 117.12 314.65 137.26 379.87 141.3 379.87 124.55 312.89"/><polygon class="cls-9" points="97.04 379.87 101.09 379.87 121.22 314.65 113.8 312.89 97.04 379.87"/><path class="cls-21" d="M158.74,286.68c-16.06-16.06-15.17-24-39.66-24s-23.57,8.07-39.48,24C67.48,301.94,49.83,303,54.46,308.73c5.74,2,10.37,3.31,12.79,13.23a59,59,0,0,0,2.93,9.65,93.59,93.59,0,0,0,98,0,59,59,0,0,0,2.93-9.65c2.43-9.92,7.06-11.25,12.79-13.23C188.52,303,170.87,301.94,158.74,286.68Z"/><path class="cls-22" d="M125.15,425.14l23.06-82.5a8.37,8.37,0,0,0-5.81-10.31l-1.5-.42a8.37,8.37,0,0,0-10.31,5.81l-23.06,82.5,1.93.54-1.28,4.58-.11.4a1.31,1.31,0,0,0-1.48,1.11l-1.23,8.57v.07a2.61,2.61,0,0,0,2.22,3l38.46,5.5a1.31,1.31,0,0,0,1.49-1.12l.19-1.35.12-.86a3.44,3.44,0,0,0-2.07-3.66L124,427.86a6.59,6.59,0,0,0-1.73-.45l.79-2.84Z"/><path id="_Path_" data-name="&lt;Path&gt;" class="cls-23" d="M92.63,218.29h0a5.54,5.54,0,0,1,3.85,6.83L83.27,270.9a5.54,5.54,0,0,1-6.83,3.85h0a5.54,5.54,0,0,1-3.85-6.83l13.21-45.78A5.54,5.54,0,0,1,92.63,218.29Z"/><path id="_Path_2" data-name="&lt;Path&gt;" class="cls-24" d="M166.66,289.14a94.31,94.31,0,0,1-1.52,10.52c3.77,2.44,6.89-3,6.89-3Z"/><path id="_Path_3" data-name="&lt;Path&gt;" class="cls-23" d="M135.13,218.78h0a5.54,5.54,0,0,0-2.68,7.37l20.53,43a5.54,5.54,0,0,0,7.37,2.68h0a5.54,5.54,0,0,0,2.68-7.37l-20.53-43A5.54,5.54,0,0,0,135.13,218.78Z"/><path id="_Path_4" data-name="&lt;Path&gt;" class="cls-25" d="M128.07,373.29h0A7.09,7.09,0,0,1,133,382l-13.52,48.38a7.09,7.09,0,0,1-8.74,4.92h0a7.09,7.09,0,0,1-4.92-8.74l.35-1.26,13.17-47.12A7.09,7.09,0,0,1,128.07,373.29Z"/><path id="_Rectangle_" data-name="&lt;Rectangle&gt;" class="cls-26" d="M117.84,330.38h18.3a0,0,0,0,1,0,0V416a8.37,8.37,0,0,1-8.37,8.37h-1.56a8.37,8.37,0,0,1-8.37-8.37V330.38A0,0,0,0,1,117.84,330.38Z" transform="translate(147.72 775.04) rotate(-164.39)"/><path id="_Path_5" data-name="&lt;Path&gt;" class="cls-27" d="M104.57,426.85l-1.23,8.57,42.35,6.06.12-.86a3.44,3.44,0,0,0-2.07-3.66L122,427.86a6.35,6.35,0,0,0-3.16-.47c-6.24.7-10.38-.6-12.46-1.55A1.32,1.32,0,0,0,104.57,426.85Z"/><path id="_Path_6" data-name="&lt;Path&gt;" class="cls-28" d="M103.35,435.42v.07a2.61,2.61,0,0,0,2.22,3l38.46,5.5a1.31,1.31,0,0,0,1.49-1.12l.19-1.35Z"/><path id="_Path_7" data-name="&lt;Path&gt;" class="cls-23" d="M86.79,318.42,111,346.9a8.76,8.76,0,0,0,12.35,1l.6-.51a8.76,8.76,0,0,0,1-12.35L106.36,313"/><path id="_Path_8" data-name="&lt;Path&gt;" class="cls-26" d="M138.76,310.09,145.94,338a8.76,8.76,0,0,1-6.36,10.63l-.76.19a8.76,8.76,0,0,1-10.63-6.36L121,314.56"/><path id="_Path_9" data-name="&lt;Path&gt;" class="cls-23" d="M138.16,304.36l-47.77.39.28,15.33a8.21,8.21,0,0,0,8.27,8.14l31.36-.25a8.21,8.21,0,0,0,8.14-8.27Z"/><path id="_Rectangle_2" data-name="&lt;Rectangle&gt;" class="cls-29" d="M86,217.53h57.44a0,0,0,0,1,0,0v91.63a10.36,10.36,0,0,1-10.36,10.36h-36A11.1,11.1,0,0,1,86,308.42V217.53a0,0,0,0,1,0,0Z" transform="translate(229.41 537.06) rotate(-180)"/><path id="_Path_10" data-name="&lt;Path&gt;" class="cls-30" d="M115.25,203.13h-.15a4.13,4.13,0,0,1,4.1,4.25v9.08c0,2.35-1.76,3.08-4.1,3.08h.07c-2.35,0-4.18-.73-4.18-3.08v-9.08A4.25,4.25,0,0,1,115.25,203.13Z"/><ellipse id="_Path_11" data-name="&lt;Path&gt;" class="cls-23" cx="120.44" cy="276.42" rx="2.67" ry="3.3"/><ellipse id="_Path_12" data-name="&lt;Path&gt;" class="cls-23" cx="120.44" cy="294.47" rx="2.67" ry="3.3"/><rect id="_Rectangle_3" data-name="&lt;Rectangle&gt;" class="cls-23" x="97.33" y="287.28" width="12.76" height="4.73"/><polygon id="_Path_13" data-name="&lt;Path&gt;" class="cls-23" points="102.94 217.53 101.22 223.24 105.92 227.93 103.94 231.63 124.61 260.69 132.78 231.55 130.22 227.74 131.88 223.24 128.28 217.53 102.94 217.53"/><polygon id="_Path_14" data-name="&lt;Path&gt;" class="cls-8" points="126.09 217.1 122.44 250.62 106.02 217.1 126.09 217.1"/><polygon id="_Path_15" data-name="&lt;Path&gt;" class="cls-31" points="106.02 217.1 111 213.85 116.43 218.31 113.26 225.77 106.02 217.1"/><polygon id="_Path_16" data-name="&lt;Path&gt;" class="cls-31" points="126.09 217.1 119.21 213.85 116.43 218.31 122.44 225.77 126.09 217.1"/><polygon id="_Path_17" data-name="&lt;Path&gt;" class="cls-25" points="116.43 218.31 114.54 222.75 119.21 227.31 120.51 223.38 116.43 218.31"/><polygon id="_Path_18" data-name="&lt;Path&gt;" class="cls-25" points="117.87 225.71 117.14 239.8 122.44 250.62 123.75 238.65 119.59 225.28 117.87 225.71"/><path id="_Path_19" data-name="&lt;Path&gt;" class="cls-32" d="M120.83,214.66c-14.17.76-21.71-9.71-24-22.72-2.44-13.7,6.73-25,17.85-25.07,12.64,0,20,4.89,21.06,18.77.65,8.72-2,26.19-14.88,29Z"/><path id="_Path_20" data-name="&lt;Path&gt;" class="cls-33" d="M95.87,173.23c-1.33,3.42-1.33,8.56-1.16,11.84a3.27,3.27,0,0,1,2.79-.7l.45.11h0l.22.07.22.08.23.1.16.08.27.15.21.13.21.14.2.15.2.17.38.36s0,0,0,0l.07.09,0,.06,0,.06,0,0,0,0v0a.16.16,0,0,1,0,0v6a2.68,2.68,0,0,0,.64,2,3.25,3.25,0,0,0,.28.3,4.27,4.27,0,0,0,1.82.53,3.11,3.11,0,0,0,3.13-2.84v-2.14a3.08,3.08,0,0,1,2.83-3.08l.54,0c0-2.43,0-4.36,0-5.55,0-1.48.53-2.46,3.81-2.79h.1l.92-.07h.07c.57,0,1.2,0,1.91,0h15.11l.17,0a7.45,7.45,0,0,0,4.13-2.83,4.49,4.49,0,0,0,.84-3h-4.18a8.48,8.48,0,0,0,2.15-3.62,19.8,19.8,0,0,0,1-4.58h-6.93s-6.94-5-14.66-4.4c-12.16,1-16.18,8.84-16.18,8.84a13.11,13.11,0,0,0-5.26-.93C94.23,169.8,95.15,170.6,95.87,173.23Z"/><path id="_Path_21" data-name="&lt;Path&gt;" class="cls-34" d="M114.59,178.56c.57,0,1.2,0,1.91,0h15.11l.17,0a7.45,7.45,0,0,0,4.13-2.83,4.49,4.49,0,0,0,.84-3s-3.6,4.05-5.9,4.47l-.18,0C128.33,177.51,118,178.31,114.59,178.56Z"/><path id="_Path_22" data-name="&lt;Path&gt;" class="cls-33" d="M111.35,201.46l.35,2.16.78,4.87v.05l.25,1.56c.72,4.3,4.29,7.08,8,6.2l4.34-1a6.17,6.17,0,0,0,3.83-2.88A11.24,11.24,0,0,0,130.4,207l-.22-7c-.32-1.88-.8-2.6-2.43-2.58H113.64A3.48,3.48,0,0,0,111.35,201.46Z"/><path id="_Path_23" data-name="&lt;Path&gt;" class="cls-8" d="M122.59,204.31c2.93,0,5.5-1.59,5.5-3.39v-.42H116.8v.42c0,1.64,1.72,3.39,4.91,3.39Z"/><path id="_Path_24" data-name="&lt;Path&gt;" class="cls-34" d="M135.67,164.45s-2.69,6.12-6.48,7.68c-3.22,1.32-19,1.82-19,1.82a26.86,26.86,0,0,0,4.88,1.17c1.43.15,15.28.58,17.46-2.46A13.5,13.5,0,0,0,135.67,164.45Z"/><path id="_Path_25" data-name="&lt;Path&gt;" class="cls-33" d="M101.37,194.55a13.68,13.68,0,0,0,2.34,1.82c3.12,2.07,7.53,4.54,8.78,10.18v0c.59,2.71,1.14,2.41,1.54.86.68-2.67.88-9-.06-10.2h0c-2.67,0-7.66-1.74-7.66-5S98.21,191.71,101.37,194.55Z"/><path id="_Path_26" data-name="&lt;Path&gt;" class="cls-33" d="M130.34,206.18c-.1-3.06,5.14-6.7,5.4-14.87a8.23,8.23,0,0,1-8,5.94C126.77,198.47,129.6,203.8,130.34,206.18Z"/><path id="_Path_27" data-name="&lt;Path&gt;" class="cls-34" d="M103.71,196.37c3.12,2.46,7.53,5.41,8.78,12.12v.05l.25,1.56c.72,4.3,4.29,7.08,8,6.2l4.34-1a6.17,6.17,0,0,0,3.83-2.88,26.15,26.15,0,0,1-6.82,1.84c-3.26.29-7.18-.81-8-4.68h0a23,23,0,0,0-2.33-5.94C110,200.51,107.32,197.47,103.71,196.37Z"/><g id="_Group_" data-name="&lt;Group&gt;"><line id="_Path_28" data-name="&lt;Path&gt;" class="cls-33" x1="132.65" y1="185.92" x2="127.58" y2="185.66"/><path id="_Path_29" data-name="&lt;Path&gt;" class="cls-33" d="M132.77,186.75a.85.85,0,0,0-.08-1.68l-5.07-.26a.85.85,0,0,0-.09,1.69l5.07.26Z"/></g><g id="_Group_2" data-name="&lt;Group&gt;"><line id="_Path_30" data-name="&lt;Path&gt;" class="cls-33" x1="118.59" y1="185.79" x2="113.52" y2="186.05"/><path id="_Path_31" data-name="&lt;Path&gt;" class="cls-33" d="M118.71,185a.85.85,0,0,1-.08,1.68l-5.07.26a.85.85,0,1,1-.09-1.69l5.07-.26Z"/></g><circle id="_Path_32" data-name="&lt;Path&gt;" cx="115.95" cy="192.46" r="1.14"/><circle id="_Path_33" data-name="&lt;Path&gt;" cx="129.07" cy="192.46" r="1.14"/><polygon id="_Path_34" data-name="&lt;Path&gt;" class="cls-35" points="122.66 188.73 122.51 195.97 124.64 195.61 122.66 188.73"/><g id="_Group_3" data-name="&lt;Group&gt;"><path id="_Path_35" data-name="&lt;Path&gt;" class="cls-32" d="M100.52,186.15a6.72,6.72,0,0,0-2.34-2.44c-3.62-2.51-7.84-.48-6.23,3.83,1.12,3,3,10.43,5.38,7.76A14.26,14.26,0,0,0,100.52,186.15Z"/><polygon id="_Path_36" data-name="&lt;Path&gt;" class="cls-35" points="97.73 186.59 92.98 185.79 96.56 192.31 95.36 186.94 97.73 186.59"/></g><path id="_Path_37" data-name="&lt;Path&gt;" class="cls-24" d="M76.64,289.4a94.31,94.31,0,0,0,5.68,9c-2.46,3.76-7.51.07-7.51.07Z"/><path class="cls-22" d="M193.46,415.2l-.73-1.16-.46-.73a3.44,3.44,0,0,0-3.95-1.45L165.88,419a6.59,6.59,0,0,0-1.61.77L163,417.06l1.93-.89-35.79-77.83a8.34,8.34,0,0,0-1.51-2.23,8.76,8.76,0,0,0-.76-1.07L108.36,313l-19.58,5.44L113,346.9h0l35.36,76.91,1.82-.84,2,4.32.18.38a1.31,1.31,0,0,0-.41,1.81l4.61,7.33,0,.06a2.61,2.61,0,0,0,3.6.82L193,417A1.31,1.31,0,0,0,193.46,415.2Z"/><path id="_Path_38" data-name="&lt;Path&gt;" class="cls-25" d="M133.18,373.45h0a7.09,7.09,0,0,1,9.4,3.48l21,45.64a7.09,7.09,0,0,1-3.48,9.4h0a7.09,7.09,0,0,1-9.4-3.48l-.55-1.19L129.7,382.86A7.09,7.09,0,0,1,133.18,373.45Z"/><path id="_Rectangle_4" data-name="&lt;Rectangle&gt;" class="cls-23" d="M125.86,330.26h18.3a0,0,0,0,1,0,0v85.67a8.37,8.37,0,0,1-8.37,8.37h-1.56a8.37,8.37,0,0,1-8.37-8.37V330.26a0,0,0,0,1,0,0Z" transform="translate(415.29 663.66) rotate(155.31)"/><path id="_Path_39" data-name="&lt;Path&gt;" class="cls-27" d="M149.91,429.5l4.61,7.33L190.73,414l-.46-.73a3.44,3.44,0,0,0-3.95-1.45L163.88,419a6.35,6.35,0,0,0-2.71,1.69c-4.31,4.57-8.3,6.26-10.5,6.87A1.32,1.32,0,0,0,149.91,429.5Z"/><path id="_Path_40" data-name="&lt;Path&gt;" class="cls-28" d="M154.52,436.83l0,.06a2.61,2.61,0,0,0,3.6.82L191,417a1.31,1.31,0,0,0,.41-1.81l-.73-1.16Z"/><path id="_Path_41" data-name="&lt;Path&gt;" class="cls-23" d="M156.95,265h0c2.62-1.58,5.32-1.91,6-.74l10.64,18.52c.71,1.17-.84,3.41-3.46,5h0c-2.62,1.58-5.32,1.91-6,.74L153.48,270C152.78,268.85,154.33,266.62,156.95,265Z"/><circle class="cls-36" cx="114.92" cy="190.87" r="5.26"/><circle class="cls-37" cx="130.98" cy="190.65" r="5.26"/><circle class="cls-38" cx="114.92" cy="190.87" r="5.26"/><circle class="cls-38" cx="130.98" cy="190.65" r="5.26"/><rect class="cls-39" x="119.91" y="189.21" width="6.13" height="0.82"/><polygon class="cls-22" points="170.57 275.92 124.94 284.79 79.31 275.92 79.31 332.64 124.91 341.5 124.91 341.51 124.94 341.51 124.97 341.51 124.97 341.5 170.57 332.64 170.57 275.92"/><path id="_Path_42" data-name="&lt;Path&gt;" class="cls-30" d="M176.65,284l3.94,10.54s-1.74,8.45-3.72,11.1c-2.31,3.09-7.38,6.67-8.28,6.93-2.41.69,1.22-13.51,1.22-13.51l-3.42-10.63Z"/><rect id="_Rectangle_5" data-name="&lt;Rectangle&gt;" class="cls-8" x="164.53" y="281.26" width="14.17" height="9.12" transform="translate(415.27 513.37) rotate(164.03)"/><path id="_Path_43" data-name="&lt;Path&gt;" class="cls-23" d="M79.34,265.08h0c2.87,1.08,4.8,3,4.31,4.28L75.7,289.18c-.48,1.28-3.2,1.45-6.06.37h0c-2.87-1.08-4.8-3-4.31-4.28l7.95-19.82C73.76,264.17,76.47,264,79.34,265.08Z"/><path id="_Path_44" data-name="&lt;Path&gt;" class="cls-30" d="M65.67,286.79l.7,11.23s5,7,7.92,8.62c3.37,1.88,7.65,1,8.58.91,2.48-.35-4.81-9.8-4.81-9.8l-1.21-11.1Z"/><rect id="_Rectangle_6" data-name="&lt;Rectangle&gt;" class="cls-8" x="64.31" y="281.88" width="15.2" height="9.12" transform="translate(155.41 569.71) rotate(177.67)"/><polygon class="cls-40" points="124.97 339.51 79.31 330.64 79.31 273.92 124.97 282.79 124.97 339.51"/><polygon class="cls-41" points="100.03 296.98 84.54 293.97 84.54 278.48 100.03 281.49 100.03 296.98"/><polygon class="cls-41" points="120.53 335.55 105.04 332.54 105.04 317.05 120.53 320.06 120.53 335.55"/><polygon class="cls-41" points="121.21 305.58 84.54 298.46 84.54 296.62 121.21 303.75 121.21 305.58"/><polygon class="cls-41" points="121.21 288.1 103.21 284.6 103.21 282.77 121.21 286.27 121.21 288.1"/><polygon class="cls-41" points="121.21 291.19 103.21 287.69 103.21 285.85 121.21 289.35 121.21 291.19"/><polygon class="cls-41" points="121.21 294.27 103.21 290.77 103.21 288.94 121.21 292.44 121.21 294.27"/><polygon class="cls-41" points="121.21 297.35 103.21 293.85 103.21 292.02 121.21 295.52 121.21 297.35"/><polygon class="cls-41" points="121.21 300.44 103.21 296.94 103.21 295.1 121.21 298.6 121.21 300.44"/><polygon class="cls-41" points="102.87 319.12 84.87 315.62 84.87 313.79 102.87 317.29 102.87 319.12"/><polygon class="cls-41" points="102.87 322.2 84.87 318.71 84.87 316.87 102.87 320.37 102.87 322.2"/><polygon class="cls-41" points="102.87 325.29 84.87 321.79 84.87 319.96 102.87 323.45 102.87 325.29"/><polygon class="cls-41" points="102.87 328.37 84.87 324.87 84.87 323.04 102.87 326.54 102.87 328.37"/><polygon class="cls-41" points="102.87 331.45 84.87 327.96 84.87 326.12 102.87 329.62 102.87 331.45"/><polygon class="cls-41" points="121.21 309.42 84.54 302.29 84.54 300.46 121.21 307.59 121.21 309.42"/><polygon class="cls-41" points="121.21 313.26 84.54 306.13 84.54 304.3 121.21 311.43 121.21 313.26"/><polygon class="cls-41" points="121.21 317.1 84.54 309.97 84.54 308.13 121.21 315.26 121.21 317.1"/><polygon class="cls-40" points="124.91 339.51 170.57 330.64 170.57 273.92 124.91 282.79 124.91 339.51"/><polygon class="cls-41" points="131.56 294.46 166.43 287.68 166.43 279.2 131.56 285.98 131.56 294.46"/><polygon class="cls-41" points="131.82 315.58 166.69 308.81 166.69 290.65 131.82 297.43 131.82 315.58"/><polygon class="cls-41" points="131.83 321.17 166.68 314.4 166.68 312.56 131.83 319.34 131.83 321.17"/><polygon class="cls-41" points="131.83 324.26 166.68 317.48 166.68 315.65 131.83 322.42 131.83 324.26"/><polygon class="cls-41" points="131.83 327.34 166.68 320.56 166.68 318.73 131.83 325.51 131.83 327.34"/><polygon class="cls-41" points="131.83 330.42 166.68 323.65 166.68 321.81 131.83 328.59 131.83 330.42"/><polygon class="cls-41" points="131.83 333.51 166.68 326.73 166.68 324.9 131.83 331.67 131.83 333.51"/><path class="cls-20" d="M79.16,306.85a20.19,20.19,0,0,0,3.55-.29c1.81-.26-1.58-5.36-3.55-8.1Z"/><path class="cls-30" d="M79.16,307.85a20.19,20.19,0,0,0,3.55-.29c1.81-.26-1.58-5.36-3.55-8.1Z"/><path class="cls-20" d="M170.6,301.32c-1.77,3.82-4.57,10.37-2.79,10.26a13,13,0,0,0,2.79-1Z"/><path class="cls-30" d="M170.6,302.32c-1.77,3.82-4.57,10.37-2.79,10.26a13,13,0,0,0,2.79-1Z"/><circle class="cls-20" cx="236.91" cy="96.84" r="45.86"/><circle class="cls-8" cx="234.91" cy="92.84" r="45.86"/><circle class="cls-42" cx="234.91" cy="92.84" r="38.22"/><path class="cls-43" d="M234.91,61.65h.59V57.18h-1.19v4.48Z"/><path class="cls-43" d="M203.72,92.84c0-.2,0-.4,0-.59h-4.48c0,.2,0,.4,0,.59s0,.4,0,.59h4.48C203.73,93.24,203.72,93,203.72,92.84Z"/><path class="cls-43" d="M270.57,92.25h-4.48c0,.2,0,.4,0,.59s0,.4,0,.59h4.48c0-.2,0-.4,0-.59S270.57,92.44,270.57,92.25Z"/><path class="cls-43" d="M234.91,124h-.59v4.48h1.19V124Z"/><path class="cls-43" d="M252.62,63.35l.63-1.1-1-.59-.63,1.1Z"/><path class="cls-43" d="M205.42,75.13l-1.1-.63q-.31.51-.59,1l1.1.63C205,75.81,205.21,75.47,205.42,75.13Z"/><path class="cls-43" d="M265,76.16l1.1-.63c-.19-.35-.39-.69-.59-1l-1.1.63Q264.71,75.64,265,76.16Z"/><path class="cls-43" d="M218.23,62.75l-.63-1.1-1,.59.63,1.1Z"/><path class="cls-43" d="M264.4,110.55l1.1.63c.2-.34.4-.68.59-1l-1.1-.63Q264.71,110,264.4,110.55Z"/><path class="cls-43" d="M251.59,122.92l.63,1.1,1-.59-.63-1.1Z"/><path class="cls-43" d="M204.83,109.52l-1.1.63q.29.52.59,1l1.1-.63C205.21,110.21,205,109.87,204.83,109.52Z"/><path class="cls-43" d="M217.2,122.33l-.63,1.1,1,.59.63-1.1Z"/><polygon class="cls-43" points="218.16 80.7 216.62 81.35 216.69 83.02 234.1 93.99 235.57 91.68 218.16 80.7"/><polygon class="cls-43" points="259.64 79.16 259.99 77.6 258.45 77.18 234.23 91.81 235.43 93.78 259.64 79.16"/><circle class="cls-44" cx="234.91" cy="92.84" r="3.06"/><path class="cls-20" d="M411.84,280.29c-16.06-16.06-15.17-24-39.66-24s-23.57,8.07-39.48,24c-12.13,15.26-29.78,16.32-25.15,22.06,5.74,2,10.37,3.31,12.79,13.23a59.05,59.05,0,0,0,2.93,9.65,92.5,92.5,0,0,0,19.36,9.05L326.21,400h4l19.63-63.58c3,.73,6,1.32,9.09,1.76l-8.84,35.34h4l10.71-34.7c2.43.19,4.89.3,7.37.3s4.94-.11,7.37-.3l10.71,34.7h4l-8.84-35.34c3.09-.44,6.12-1,9.09-1.76L414.29,400h4L401.9,334.28a92.5,92.5,0,0,0,19.36-9.05,59,59,0,0,0,2.93-9.65c2.43-9.92,7.06-11.25,12.79-13.23C441.62,296.61,424,295.55,411.84,280.29Z"/><path class="cls-9" d="M402.44,336.38,395,338.14l20.14,65.22h4Zm-75.36,67h4l20.14-65.22-7.43-1.76Z"/><polygon class="cls-9" points="378.51 309.9 371.09 311.66 391.22 376.88 395.27 376.88 378.51 309.9"/><polygon class="cls-9" points="351.01 376.88 355.06 376.88 375.19 311.66 367.77 309.9 351.01 376.88"/><path class="cls-21" d="M412.71,283.69c-16.06-16.06-15.17-24-39.66-24s-23.57,8.07-39.48,24C321.44,299,303.79,300,308.43,305.75c5.74,2,10.37,3.31,12.79,13.23a59,59,0,0,0,2.93,9.65,93.59,93.59,0,0,0,98,0,59,59,0,0,0,2.93-9.65c2.43-9.92,7.06-11.25,12.79-13.23C442.48,300,424.84,299,412.71,283.69Z"/><path class="cls-20" d="M421.28,255.11,420.05,252l2.61-.68-1.57-6-2.16.56-14.62-37.19a6.89,6.89,0,0,0-1.43-2.22,12.7,12.7,0,0,0-13.62-4.92l-.53-.84h-2.24l0-.43h-1.87l-4.35-2.06-.07.11v-1.56a25.54,25.54,0,0,0,3.75.07c13.06-2.87,15.71-20.54,15.05-29.35a30.79,30.79,0,0,0-1.23-6.85,6.79,6.79,0,0,0,2.73-2.35,4.79,4.79,0,0,0,.89-3.19H397a9,9,0,0,0,2.29-3.87v0a15.62,15.62,0,0,0,1-4.49c0-.24,0-.38,0-.38h-7.4s-7.41-5.39-15.64-4.69c-13,1.09-17.26,9.43-17.26,9.43a14,14,0,0,0-5.61-1c1.69,2,2.68,2.82,3.44,5.62-1.21,3.11-1.39,7.55-1.3,11-1.75.52-2.79,2.25-1.85,4.77,1.13,3,3,10.47,5.4,7.78a10.8,10.8,0,0,0,.67-.85c1.94,6.69,5.44,12.33,10.75,15.57v4.39l-3,2H366.4l.18.38-.69.06h-2.59l-.14.45c-.63.14-1.25.3-1.86.5a12.67,12.67,0,0,0-16.53,4.73,6.89,6.89,0,0,0-1.27,2.32l-11.86,36.44-1.58-.59-2.2,5.85,3.34,1.25-1.46,4.54a6.32,6.32,0,0,0,1.93,6.49l13.12,10.2v36.51h5.36l-.06,3-6.7,26a8.32,8.32,0,0,0-.41,3.88l11.14,84.94,2.1-.28.38,2.93a6.57,6.57,0,0,0-1.77.2L332.06,436a3.44,3.44,0,0,0-2.57,3.33v2.23a1.31,1.31,0,0,0,1.32,1.32h38.86a2.61,2.61,0,0,0,2.61-2.61v-8.72a1.31,1.31,0,0,0-1.31-1.31l-.05-.42-.62-4.72,2-.26L361.4,341.88,366.26,323l17.64.14,5.28,20.5-11,83.65,2,.26-.62,4.72-.05.42A1.31,1.31,0,0,0,378.2,434v8.72a2.61,2.61,0,0,0,2.61,2.61h38.86A1.31,1.31,0,0,0,421,444v-2.23a3.44,3.44,0,0,0-2.57-3.33l-22.78-5.93a6.59,6.59,0,0,0-1.77-.2l.38-2.93,2.1.28L407.46,345a8.71,8.71,0,0,0-.06-4l-4.32-16.79a10.21,10.21,0,0,0,2.27-.85c2.93-1.55,8.1-8.45,8.1-8.45l.93-11.21h0l7.2-44.51a12.68,12.68,0,0,0-.3-4.08Zm-76.49-5.4v.36l-.1,0Zm56.23,65,.59-.1-.63.76C401,315.12,401,314.9,401,314.67Zm5.06-59,3.15-.82,1.29,3.23-4.44,27.46Zm-64.7.52.2-.63,2.5.94.71-1.88v4.23Z"/><path id="_Path_45" data-name="&lt;Path&gt;" class="cls-30" d="M396.48,204.67h0a5.54,5.54,0,0,0-3.17,7.17l22.13,54.8a5.54,5.54,0,0,0,7.17,3.17h0a5.54,5.54,0,0,0,3.17-7.17l-22.13-54.8A5.54,5.54,0,0,0,396.48,204.67Z"/><g id="_Clip_Group_" data-name="&lt;Clip Group&gt;"><path id="_Clipping_Path_" data-name="&lt;Clipping Path&gt;" class="cls-45" d="M420.24,246.19l-12.95,5.13L391.36,210.8a7,7,0,0,1,3.91-9h0a7,7,0,0,1,9,3.91Z"/></g><circle id="_Path_46" data-name="&lt;Path&gt;" class="cls-45" cx="392.52" cy="210.79" r="12.71" transform="translate(-47.96 143.86) rotate(-19.6)"/><path id="_Path_47" data-name="&lt;Path&gt;" class="cls-46" d="M350.37,294.74l51,.41-.3,16.36a8.76,8.76,0,0,1-8.83,8.68l-33.46-.27a8.76,8.76,0,0,1-8.68-8.83Z"/><g id="_Group_4" data-name="&lt;Group&gt;"><g id="_Clip_Group_2" data-name="&lt;Clip Group&gt;"><path id="_Rectangle_7" data-name="&lt;Rectangle&gt;" class="cls-25" d="M344.8,197.55h61.29a0,0,0,0,1,0,0v85.23a23.59,23.59,0,0,1-23.59,23.59H369.17A24.38,24.38,0,0,1,344.8,282V197.55A0,0,0,0,1,344.8,197.55Z" transform="translate(750.88 503.92) rotate(-180)"/></g></g><path id="_Path_48" data-name="&lt;Path&gt;" class="cls-30" d="M351.25,204.15h0a5.54,5.54,0,0,1,3.65,6.94l-14.57,45.37a5.54,5.54,0,0,1-6.94,3.65h0a5.54,5.54,0,0,1-3.65-6.94l14.57-45.37A5.54,5.54,0,0,1,351.25,204.15Z"/><g id="_Clip_Group_3" data-name="&lt;Clip Group&gt;"><path id="_Clipping_Path_2" data-name="&lt;Clipping Path&gt;" class="cls-45" d="M329.86,247.59l13.27,4.24,13.64-41.91a7,7,0,0,0-4.51-8.75h0a7,7,0,0,0-8.75,4.51Z"/></g><circle id="_Path_49" data-name="&lt;Path&gt;" class="cls-45" cx="355.61" cy="209.99" r="12.71" transform="matrix(0.27, -0.96, 0.96, 0.27, 57.33, 495.61)"/><polygon id="_Path_50" data-name="&lt;Path&gt;" class="cls-11" points="363.31 197.68 361.58 203.41 366.29 208.12 364.31 211.83 385.05 240.99 393.24 211.75 390.67 207.93 392.34 203.41 388.73 197.68 363.31 197.68"/><polygon id="_Path_51" data-name="&lt;Path&gt;" class="cls-8" points="386.54 197.25 382.87 230.89 366.4 197.25 386.54 197.25"/><path id="_Path_52" data-name="&lt;Path&gt;" class="cls-30" d="M376,182.19h-.16a4.4,4.4,0,0,1,4.38,4.54v9.69c0,2.5-1.87,3.28-4.38,3.28h.08c-2.5,0-4.46-.78-4.46-3.28v-9.69A4.53,4.53,0,0,1,376,182.19Z"/><path id="_Path_53" data-name="&lt;Path&gt;" class="cls-32" d="M384,193.81c-14.34.77-22-9.82-24.3-23-2.47-13.86,6.81-25.32,18.05-25.36,12.79,0,20.25,4.94,21.3,19,.66,8.82-2,26.49-15.05,29.35Z"/><path id="_Path_54" data-name="&lt;Path&gt;" class="cls-47" d="M357.82,152.68c-1.42,3.65-1.42,9.14-1.24,12.63a3.49,3.49,0,0,1,3-.74,4.17,4.17,0,0,1,.48.11h0l.23.08.23.09.24.11.17.09.29.16.22.14.22.15.21.17.21.18c.14.12.27.25.4.39s0,0,0,0l.08.09,0,.06.05.06,0,0,0,0v0a.17.17,0,0,1,0,0V173a2.86,2.86,0,0,0,.68,2.14,3.47,3.47,0,0,0,.29.32,4.55,4.55,0,0,0,1.94.57,3.32,3.32,0,0,0,3.34-3v-2.28a3.29,3.29,0,0,1,3-3.29l.58,0c0-2.59,0-4.65,0-5.92,0-1.58.56-2.63,4.07-3h.1l1-.07h.07c.61,0,1.28,0,2,0H396l.18,0a8,8,0,0,0,4.41-3,4.79,4.79,0,0,0,.89-3.19H397a9,9,0,0,0,2.29-3.87,21.13,21.13,0,0,0,1-4.89h-7.4s-7.41-5.39-15.64-4.69c-13,1.09-17.26,9.43-17.26,9.43a14,14,0,0,0-5.61-1C356.07,149,357.06,149.88,357.82,152.68Z"/><path id="_Path_55" data-name="&lt;Path&gt;" class="cls-48" d="M377.8,158.37c.61,0,1.28,0,2,0H396l.18,0a8,8,0,0,0,4.41-3,4.79,4.79,0,0,0,.89-3.19s-3.84,4.33-6.29,4.77l-.19,0C392.45,157.25,381.43,158.1,377.8,158.37Z"/><g id="_Group_5" data-name="&lt;Group&gt;"><line id="_Path_56" data-name="&lt;Path&gt;" class="cls-47" x1="393.75" y1="167.98" x2="388.66" y2="167.72"/><path id="_Path_57" data-name="&lt;Path&gt;" class="cls-47" d="M393.87,168.82a.85.85,0,0,0-.08-1.69l-5.09-.26a.85.85,0,0,0-.09,1.7l5.09.26Z"/></g><g id="_Group_6" data-name="&lt;Group&gt;"><line id="_Path_58" data-name="&lt;Path&gt;" class="cls-47" x1="381.05" y1="167.85" x2="375.96" y2="168.11"/><path id="_Path_59" data-name="&lt;Path&gt;" class="cls-47" d="M381.17,167a.85.85,0,0,1-.08,1.69L376,169a.85.85,0,0,1-.09-1.7L381,167Z"/></g><circle id="_Path_60" data-name="&lt;Path&gt;" cx="378.5" cy="173" r="1.15"/><circle id="_Path_61" data-name="&lt;Path&gt;" cx="390.76" cy="173.39" r="1.15"/><path id="_Path_62" data-name="&lt;Path&gt;" class="cls-48" d="M400.29,143.31s-2.87,6.53-6.92,8.19c-3.44,1.41-20.23,1.95-20.23,1.95a28.66,28.66,0,0,0,5.21,1.24c1.53.16,16.3.62,18.63-2.62A14.4,14.4,0,0,0,400.29,143.31Z"/><g id="_Group_7" data-name="&lt;Group&gt;"><path id="_Path_63" data-name="&lt;Path&gt;" class="cls-32" d="M363.27,167a6.74,6.74,0,0,0-2.34-2.45c-3.64-2.52-7.87-.48-6.25,3.84,1.13,3,3,10.47,5.4,7.78A14.31,14.31,0,0,0,363.27,167Z"/><polygon id="_Path_64" data-name="&lt;Path&gt;" class="cls-35" points="360.47 167.45 355.69 166.65 359.29 173.19 358.08 167.8 360.47 167.45"/></g><polygon id="_Path_65" data-name="&lt;Path&gt;" class="cls-35" points="384.79 169.62 384.63 179.6 386.78 179.11 384.79 169.62"/><path id="_Path_66" data-name="&lt;Path&gt;" class="cls-49" d="M390.81,182.55a8.11,8.11,0,0,1-6.18,2.87h0a8.71,8.71,0,0,1-6.18-2.87"/><polygon id="_Path_67" data-name="&lt;Path&gt;" class="cls-31" points="366.4 198.63 371.65 195.19 377.38 199.9 374.04 207.77 366.4 198.63"/><polygon id="_Path_68" data-name="&lt;Path&gt;" class="cls-31" points="387.58 198.63 380.31 195.19 377.38 199.9 383.72 207.77 387.58 198.63"/><path id="_Path_69" data-name="&lt;Path&gt;" class="cls-11" d="M356.59,372.17h0a7.09,7.09,0,0,0-6.11,8L357,429.93a7.09,7.09,0,0,0,8,6.11h0a7.09,7.09,0,0,0,6.11-8l-.17-1.3-6.36-48.51A7.09,7.09,0,0,0,356.59,372.17Z"/><path id="_Rectangle_8" data-name="&lt;Rectangle&gt;" class="cls-46" d="M356.3,329.37h1.56a8.37,8.37,0,0,1,8.37,8.37V423.4a0,0,0,0,1,0,0h-18.3a0,0,0,0,1,0,0V337.74a8.37,8.37,0,0,1,8.37-8.37Z" transform="translate(-45.92 49.64) rotate(-7.47)"/><path id="_Path_70" data-name="&lt;Path&gt;" class="cls-23" d="M372.27,428.52v8.65H329.49v-.87a3.44,3.44,0,0,1,2.57-3.33L354.84,427a6.35,6.35,0,0,1,3.19,0c6.08,1.58,10.36.88,12.55.23A1.32,1.32,0,0,1,372.27,428.52Z"/><path id="_Path_71" data-name="&lt;Path&gt;" class="cls-28" d="M372.27,437.17v.07a2.61,2.61,0,0,1-2.61,2.61H330.81a1.31,1.31,0,0,1-1.32-1.32v-1.36Z"/><path id="_Path_72" data-name="&lt;Path&gt;" class="cls-11" d="M393.88,374.64h0a7.09,7.09,0,0,1,6.11,8l-6.53,49.81a7.09,7.09,0,0,1-8,6.11h0a7.09,7.09,0,0,1-6.11-8l.17-1.3,6.36-48.51A7.09,7.09,0,0,1,393.88,374.64Z"/><path id="_Rectangle_9" data-name="&lt;Rectangle&gt;" class="cls-46" d="M384.24,331.84h18.3a0,0,0,0,1,0,0v85.67a8.37,8.37,0,0,1-8.37,8.37h-1.56a8.37,8.37,0,0,1-8.37-8.37V331.84A0,0,0,0,1,384.24,331.84Z" transform="translate(734.17 805.66) rotate(-172.53)"/><path id="_Path_73" data-name="&lt;Path&gt;" class="cls-23" d="M378.2,431v8.65H421v-.87a3.44,3.44,0,0,0-2.57-3.33l-22.78-5.93a6.35,6.35,0,0,0-3.19,0c-6.08,1.58-10.36.88-12.55.23A1.32,1.32,0,0,0,378.2,431Z"/><path id="_Path_74" data-name="&lt;Path&gt;" class="cls-28" d="M378.2,439.65v.07a2.61,2.61,0,0,0,2.61,2.61h38.86A1.31,1.31,0,0,0,421,441v-1.36Z"/><path id="_Path_75" data-name="&lt;Path&gt;" class="cls-46" d="M350.55,307.62l-7.19,27.91a8.76,8.76,0,0,0,6.36,10.63l.76.19A8.76,8.76,0,0,0,361.11,340l7.19-27.91"/><path id="_Path_76" data-name="&lt;Path&gt;" class="cls-46" d="M400.21,310.09,407.4,338A8.76,8.76,0,0,1,401,348.63l-.76.19a8.76,8.76,0,0,1-10.63-6.36l-7.19-27.91"/><path id="_Path_77" data-name="&lt;Path&gt;" class="cls-30" d="M423.91,261.18h0a5.54,5.54,0,0,0-7.75,1.16l-14.08,19.27a5.54,5.54,0,0,0,1.16,7.75h0a5.54,5.54,0,0,0,7.75-1.16l14.08-19.27A5.54,5.54,0,0,0,423.91,261.18Z"/><path id="_Path_78" data-name="&lt;Path&gt;" class="cls-24" d="M402.3,281.43a94.31,94.31,0,0,1-9.23,5.28c.4,4.47,6.6,3.58,6.6,3.58Z"/><rect class="cls-11" x="404.82" y="244.38" width="17.33" height="6.25" transform="translate(-48.97 111.99) rotate(-14.57)"/><path id="_Path_79" data-name="&lt;Path&gt;" class="cls-24" d="M375.76,280a94.31,94.31,0,0,0,10.34,2.49c.86,4.41-5.34,5.28-5.34,5.28Z"/><path id="_Path_80" data-name="&lt;Path&gt;" class="cls-30" d="M330.62,251.89h0a5.54,5.54,0,0,1,7.77-1L376,280.08a5.54,5.54,0,0,1,1,7.77h0a5.54,5.54,0,0,1-7.77,1l-37.63-29.24A5.54,5.54,0,0,1,330.62,251.89Z"/><rect class="cls-50" x="381.31" y="266.59" width="17.43" height="34.53" rx="3.03" ry="3.03"/><circle class="cls-51" cx="395.17" cy="270.67" r="1.63"/><rect class="cls-52" x="385.74" y="298.79" width="8.75" height="0.78"/><rect class="cls-11" x="328.41" y="244.38" width="17.33" height="6.25" transform="translate(108.53 -102.7) rotate(20.58)"/><path id="_Path_81" data-name="&lt;Path&gt;" class="cls-30" d="M412.5,286.13l-5.88,9.59s-7.73,3.83-11,3.9c-3.86.08-8.13-2.61-8.88-3.17-2-1.48,9.73-6.45,9.73-6.45l6.28-9.24Z"/><path id="_Path_82" data-name="&lt;Path&gt;" class="cls-30" d="M367.27,287.33l8.32,7.57s8.49,1.52,11.69.66c3.73-1,7.07-4.78,7.65-5.52,1.53-2-11.14-3.48-11.14-3.48l-8.6-7.12Z"/><path class="cls-53" d="M216.68,251.3c0,.83-.66.83-.66,1.66s.67.83.67,1.66-.66.83-.66,1.66.67.83.67,1.66-.66.83-.66,1.67"/><path class="cls-53" d="M221.45,245.92c0,.83-.66.83-.66,1.66s.67.83.67,1.66-.66.83-.66,1.66.67.83.67,1.66-.66.83-.66,1.67"/></svg>