<svg id="Layer_1" data-name="Layer 1" xmlns="http://www.w3.org/2000/svg" xmlns:xlink="http://www.w3.org/1999/xlink" viewBox="0 0 708.66 481.89"><defs><style>.cls-1{fill:none;}.cls-2{fill:#fec82b;}.cls-3{fill:#0d5b70;}.cls-4{fill:#e7685d;}.cls-5{fill:#648ec9;}.cls-10,.cls-6{fill:#fff;}.cls-7{fill:#e09780;}.cls-8{fill:#f8ab8d;}.cls-9{fill:#414042;opacity:0.2;}.cls-10{opacity:0.4;}.cls-11{fill:#3f5aa8;}.cls-12{fill:#dd4439;}.cls-13{fill:#304a89;}.cls-14{clip-path:url(#clip-path);}.cls-15{fill:#c0e4ed;}.cls-16{fill:#58595b;stroke:#e7685d;stroke-miterlimit:10;stroke-width:1.42px;}</style><clipPath id="clip-path"><polygon class="cls-1" points="354.33 47.35 311.03 101.69 397.63 101.69 354.33 47.35"/></clipPath></defs><title>Diagram_01</title><rect class="cls-2" x="243.64" y="200.38" width="221.39" height="81.54" rx="22.33" ry="22.33"/><path class="cls-2" d="M610.62,325.94h-.1a85.49,85.49,0,0,1-10.31-1,3,3,0,0,1,.93-5.93,79.49,79.49,0,0,0,9.58.91,3,3,0,0,1-.1,6Zm10-.26a3,3,0,0,1-.25-6,78.7,78.7,0,0,0,9.52-1.41,3,3,0,1,1,1.24,5.87,84.73,84.73,0,0,1-10.25,1.52Zm-29.69-2.83a3,3,0,0,1-.83-.12,84.47,84.47,0,0,1-9.77-3.46,3,3,0,1,1,2.34-5.52,78.41,78.41,0,0,0,9.08,3.21,3,3,0,0,1-.82,5.89Zm49.2-1.31a3,3,0,0,1-1-5.84A78.4,78.4,0,0,0,648,312a3,3,0,1,1,2.64,5.39,84.57,84.57,0,0,1-9.57,4A3,3,0,0,1,640.12,321.54Zm-67.57-6.49a3,3,0,0,1-1.5-.4,85.3,85.3,0,0,1-8.64-5.72,3,3,0,1,1,3.61-4.79,79.13,79.13,0,0,0,8,5.32,3,3,0,0,1-1.5,5.6ZM658,312.78a3,3,0,0,1-1.64-5.51,79,79,0,0,0,7.73-5.73,3,3,0,1,1,3.86,4.59,85.56,85.56,0,0,1-8.32,6.17A3,3,0,0,1,658,312.78ZM556.62,303a3,3,0,0,1-2.08-.84,85.54,85.54,0,0,1-7-7.63,3,3,0,1,1,4.66-3.78,79.6,79.6,0,0,0,6.51,7.09,3,3,0,0,1-2.08,5.16ZM673.3,300a3,3,0,0,1-2.19-5,79.25,79.25,0,0,0,6.13-7.43,3,3,0,1,1,4.85,3.53,85.53,85.53,0,0,1-6.59,8A3,3,0,0,1,673.3,300ZM544.06,287.56a3,3,0,0,1-2.54-1.41,84.9,84.9,0,0,1-5-9.09,3,3,0,1,1,5.44-2.54,78.67,78.67,0,0,0,4.6,8.45,3,3,0,0,1-2.54,4.59Zm141-3.74a3,3,0,0,1-2.62-4.46,78.72,78.72,0,0,0,4.15-8.69,3,3,0,1,1,5.56,2.25,84.8,84.8,0,0,1-4.47,9.35A3,3,0,0,1,685,283.82ZM535.61,269.5a3,3,0,0,1-2.85-2.07,84.59,84.59,0,0,1-2.59-10,3,3,0,1,1,5.89-1.14,78.59,78.59,0,0,0,2.41,9.32,3,3,0,0,1-2.85,3.93Zm156.91-4.18a3,3,0,0,1-2.9-3.78,78.56,78.56,0,0,0,1.91-9.43,3,3,0,0,1,5.94.83,84.67,84.67,0,0,1-2.05,10.15A3,3,0,0,1,692.51,265.32ZM531.8,249.92a3,3,0,0,1-3-2.79c-.14-2-.21-4-.21-6a3,3,0,1,1,6,0c0,1.85.06,3.72.19,5.56a3,3,0,0,1-2.78,3.2Zm163.46-4.36h-.05a3,3,0,0,1-3-3q0-.68,0-1.36a80.19,80.19,0,0,0-.43-8.26,3,3,0,0,1,6-.62,86.71,86.71,0,0,1,.46,8.88q0,.73,0,1.46A3,3,0,0,1,695.26,245.56Zm-2.07-19.83a3,3,0,0,1-2.92-2.33,78.43,78.43,0,0,0-2.73-9.23,3,3,0,1,1,5.64-2.05,84.45,84.45,0,0,1,2.94,9.93,3,3,0,0,1-2.25,3.6A3,3,0,0,1,693.19,225.73ZM686.37,207a3,3,0,0,1-2.67-1.64,78.87,78.87,0,0,0-4.89-8.28,3,3,0,0,1,5-3.36,84.88,84.88,0,0,1,5.26,8.92,3,3,0,0,1-2.67,4.37ZM675.2,190.47a3,3,0,0,1-2.26-1,79.68,79.68,0,0,0-6.75-6.87,3,3,0,1,1,4-4.46,85.92,85.92,0,0,1,7.26,7.39,3,3,0,0,1-2.26,5Zm-14.82-13.35a3,3,0,0,1-1.72-.54,78.88,78.88,0,0,0-8.2-5,3,3,0,1,1,2.82-5.29,85,85,0,0,1,8.83,5.42,3,3,0,0,1-1.73,5.46Zm-17.61-9.38a3,3,0,0,1-1.08-.2,78.45,78.45,0,0,0-9.18-2.89,3,3,0,0,1,1.45-5.82,84.44,84.44,0,0,1,9.89,3.11,3,3,0,0,1-1.08,5.8Zm-19.36-4.81-.37,0a79.85,79.85,0,0,0-9.61-.58,3,3,0,0,1,0-6,86,86,0,0,1,10.33.62,3,3,0,0,1-.36,6Z"/><path class="cls-2" d="M531.61,244.15H525a3,3,0,0,1,0-6h6.58a3,3,0,0,1,0,6Zm-16.58,0H505a3,3,0,0,1,0-6h10a3,3,0,0,1,0,6Zm-20,0H485a3,3,0,0,1,0-6h10a3,3,0,0,1,0,6Zm-20,0H465a3,3,0,0,1,0-6h10a3,3,0,0,1,0,6Z"/><path class="cls-2" d="M531.61,244.15H525a3,3,0,0,1,0-6h6.58a3,3,0,0,1,0,6Zm-16.58,0H505a3,3,0,0,1,0-6h10a3,3,0,0,1,0,6Zm-20,0H485a3,3,0,0,1,0-6h10a3,3,0,0,1,0,6Zm-20,0H465a3,3,0,0,1,0-6h10a3,3,0,0,1,0,6Z"/><path class="cls-3" d="M288.4,224.21a1.68,1.68,0,0,1-1.24.51h-4v13.91a1.79,1.79,0,1,1-3.59,0V224.72h-4a1.74,1.74,0,1,1,0-3.48h11.49a1.75,1.75,0,0,1,1.24,3Z"/><path class="cls-3" d="M304.66,239.9a1.79,1.79,0,0,1-3.07-1.27v-6.16h-6.76v6.16a1.78,1.78,0,0,1-1.79,1.79,1.69,1.69,0,0,1-1.26-.52,1.75,1.75,0,0,1-.51-1.27V222.79a1.75,1.75,0,0,1,.51-1.27A1.69,1.69,0,0,1,293,221a1.78,1.78,0,0,1,1.79,1.79v6.5h6.76v-6.5a1.79,1.79,0,1,1,3.59,0v15.83A1.73,1.73,0,0,1,304.66,239.9Z"/><path class="cls-3" d="M320.54,239.69a1.63,1.63,0,0,1-1.2.49H310.9a1.63,1.63,0,0,1-1.2-.49,1.66,1.66,0,0,1-.49-1.22V222.95a1.67,1.67,0,0,1,.49-1.21,1.61,1.61,0,0,1,1.2-.51H319a1.61,1.61,0,0,1,1.2.51,1.73,1.73,0,0,1,0,2.42,1.61,1.61,0,0,1-1.2.51h-6.24v4.39h5.64a1.69,1.69,0,0,1,1.66,1.66,1.56,1.56,0,0,1-.49,1.16,1.62,1.62,0,0,1-1.17.48h-5.64v4.42h6.58a1.69,1.69,0,0,1,1.69,1.69A1.66,1.66,0,0,1,320.54,239.69Z"/><path class="cls-3" d="M344.23,230.07a4.56,4.56,0,0,1-1.13,1.65,5.11,5.11,0,0,1-1.82,1.07,7.41,7.41,0,0,1-2.46.38h-3.3v5.46a1.78,1.78,0,0,1-1.79,1.79,1.69,1.69,0,0,1-1.26-.52,1.75,1.75,0,0,1-.51-1.27V223a1.75,1.75,0,0,1,.51-1.27,1.69,1.69,0,0,1,1.26-.52h4.94a7.52,7.52,0,0,1,2.83.47,4.93,4.93,0,0,1,1.83,1.24,4.62,4.62,0,0,1,1,1.73,6.48,6.48,0,0,1,.3,1.92v1.35A5.62,5.62,0,0,1,344.23,230.07Zm-3.2-3.41a2.45,2.45,0,0,0-.12-.75,1.6,1.6,0,0,0-.4-.65,2.11,2.11,0,0,0-.82-.47,4.21,4.21,0,0,0-1.34-.18h-2.83v5.3h3.15a3.26,3.26,0,0,0,1.13-.17,1.83,1.83,0,0,0,.73-.47,1.78,1.78,0,0,0,.39-.66,2.44,2.44,0,0,0,.12-.75Z"/><path class="cls-3" d="M358.95,239.69a1.63,1.63,0,0,1-1.2.49H349.3a1.63,1.63,0,0,1-1.2-.49,1.66,1.66,0,0,1-.49-1.22V222.95a1.67,1.67,0,0,1,.49-1.21,1.61,1.61,0,0,1,1.2-.51h8.11a1.61,1.61,0,0,1,1.2.51,1.73,1.73,0,0,1,0,2.42,1.61,1.61,0,0,1-1.2.51h-6.24v4.39h5.64a1.69,1.69,0,0,1,1.66,1.66,1.56,1.56,0,0,1-.49,1.16,1.62,1.62,0,0,1-1.17.48h-5.64v4.42h6.58a1.69,1.69,0,0,1,1.69,1.69A1.66,1.66,0,0,1,358.95,239.69Z"/><path class="cls-3" d="M375.26,238.89a1.6,1.6,0,0,1-.34.81,1.91,1.91,0,0,1-.69.53,2,2,0,0,1-.86.2,1.72,1.72,0,0,1-.86-.23,1.8,1.8,0,0,1-.7-.86q-.75-1.64-1.62-3.26t-1.86-3.26h-2.42v5.82a1.78,1.78,0,0,1-1.79,1.79,1.69,1.69,0,0,1-1.26-.52,1.75,1.75,0,0,1-.51-1.27V223a1.75,1.75,0,0,1,.51-1.27,1.69,1.69,0,0,1,1.26-.52H369a6.52,6.52,0,0,1,4.52,1.38,5.05,5.05,0,0,1,1.51,3.93v1a4.94,4.94,0,0,1-.78,2.81,4.8,4.8,0,0,1-2.21,1.77q.83,1.43,1.59,2.86t1.43,2.91A1.78,1.78,0,0,1,375.26,238.89Zm-3.78-12.35q0-1.95-2.52-1.95h-3v5h2.94a3.35,3.35,0,0,0,1.87-.49,1.68,1.68,0,0,0,.75-1.51Z"/><path class="cls-3" d="M389.31,224.16a1.64,1.64,0,0,1-1.22.51h-6v4.39h5a1.56,1.56,0,0,1,1.16.49,1.62,1.62,0,0,1,.48,1.17,1.64,1.64,0,0,1-1.64,1.64h-5v6.27a1.78,1.78,0,0,1-1.79,1.79,1.69,1.69,0,0,1-1.26-.52,1.75,1.75,0,0,1-.51-1.27V222.95a1.67,1.67,0,0,1,.49-1.21,1.61,1.61,0,0,1,1.2-.51h7.9a1.64,1.64,0,0,1,1.22.51,1.73,1.73,0,0,1,0,2.42Z"/><path class="cls-3" d="M403.85,239.69a1.63,1.63,0,0,1-1.2.49H394.2a1.62,1.62,0,0,1-1.2-.49,1.66,1.66,0,0,1-.49-1.22V222.95a1.67,1.67,0,0,1,.49-1.21,1.61,1.61,0,0,1,1.2-.51h8.11a1.61,1.61,0,0,1,1.2.51,1.73,1.73,0,0,1,0,2.42,1.61,1.61,0,0,1-1.2.51h-6.24v4.39h5.64a1.69,1.69,0,0,1,1.66,1.66,1.56,1.56,0,0,1-.49,1.16,1.62,1.62,0,0,1-1.17.48h-5.64v4.42h6.58a1.69,1.69,0,0,1,1.69,1.69A1.66,1.66,0,0,1,403.85,239.69Z"/><path class="cls-3" d="M418.24,224.64a1.56,1.56,0,0,1-1.23.52,1.36,1.36,0,0,1-.53-.1,5.74,5.74,0,0,1-.61-.31,3.33,3.33,0,0,0-.84-.38,4,4,0,0,0-1.13-.14,3,3,0,0,0-2.57,1.2,6.89,6.89,0,0,0-.86,3.93v2.78a10.89,10.89,0,0,0,.22,2.39,4.31,4.31,0,0,0,.64,1.55,2.4,2.4,0,0,0,1,.84,3.58,3.58,0,0,0,1.42.26,4.46,4.46,0,0,0,2.24-.57,3.39,3.39,0,0,1,.58-.3,1.54,1.54,0,0,1,.53-.09,1.47,1.47,0,0,1,1,.42,1.43,1.43,0,0,1,.44,1.09,1.64,1.64,0,0,1-.17.71,2.09,2.09,0,0,1-.53.66,3.92,3.92,0,0,1-.92.58,8.26,8.26,0,0,1-1.09.42,7.55,7.55,0,0,1-1.12.25,7.37,7.37,0,0,1-1,.08,7.56,7.56,0,0,1-3.17-.6,5.44,5.44,0,0,1-2.12-1.69,7.18,7.18,0,0,1-1.2-2.6,13.8,13.8,0,0,1-.38-3.35v-2.94a13.45,13.45,0,0,1,.38-3.28,7.18,7.18,0,0,1,1.21-2.61,5.68,5.68,0,0,1,2.16-1.73,7.6,7.6,0,0,1,3.25-.62,8.11,8.11,0,0,1,2.18.31,4.73,4.73,0,0,1,1.82.91,1.6,1.6,0,0,1,.35,2.42Z"/><path class="cls-3" d="M434.23,224.21a1.68,1.68,0,0,1-1.23.51h-4v13.91a1.79,1.79,0,1,1-3.59,0V224.72h-4a1.74,1.74,0,1,1,0-3.48H433a1.75,1.75,0,0,1,1.23,3Z"/><path class="cls-3" d="M335.95,250.21a1.68,1.68,0,0,1-1.24.51h-4v13.91a1.79,1.79,0,1,1-3.59,0V250.72h-4a1.74,1.74,0,1,1,0-3.48h11.49a1.75,1.75,0,0,1,1.24,3Z"/><path class="cls-3" d="M350.16,265.69a1.63,1.63,0,0,1-1.2.49h-8.45a1.63,1.63,0,0,1-1.2-.49,1.66,1.66,0,0,1-.49-1.22V248.95a1.67,1.67,0,0,1,.49-1.21,1.61,1.61,0,0,1,1.2-.51h8.11a1.61,1.61,0,0,1,1.2.51,1.73,1.73,0,0,1,0,2.42,1.61,1.61,0,0,1-1.2.51h-6.24v4.39H348a1.69,1.69,0,0,1,1.66,1.66,1.56,1.56,0,0,1-.49,1.16,1.62,1.62,0,0,1-1.17.48h-5.64v4.42H349a1.69,1.69,0,0,1,1.69,1.69A1.66,1.66,0,0,1,350.16,265.69Z"/><path class="cls-3" d="M366.24,265.16a1.54,1.54,0,0,1-.39.68,2,2,0,0,1-.64.43,1.91,1.91,0,0,1-.75.16,1.84,1.84,0,0,1-1.05-.33,1.72,1.72,0,0,1-.66-1.08q-.16-.7-.33-1.4t-.35-1.38H356c-.12.45-.24.91-.35,1.38s-.22.94-.32,1.4a1.79,1.79,0,0,1-.65,1.07,1.7,1.7,0,0,1-1,.34,1.9,1.9,0,0,1-.75-.16,1.87,1.87,0,0,1-.62-.43,1.61,1.61,0,0,1-.38-.68,1.76,1.76,0,0,1,0-.92q.94-4.11,2.16-7.89t2.7-7.5a3.07,3.07,0,0,1,1.1-1.52A2.42,2.42,0,0,1,359,247a2.56,2.56,0,0,1,1.24.35,2.88,2.88,0,0,1,1.1,1.52q1.51,3.72,2.72,7.5t2.15,7.89A1.94,1.94,0,0,1,366.24,265.16ZM359,252.59q-.6,1.61-1.13,3.21t-1.05,3.26h4.39Q360.19,255.76,359,252.59Z"/><path class="cls-3" d="M385.49,264.76a1.62,1.62,0,0,1-.48,1.17,1.56,1.56,0,0,1-1.16.49,1.59,1.59,0,0,1-1.18-.49,1.62,1.62,0,0,1-.48-1.17v-9.88l-3.54,7.36a2,2,0,0,1-.68.79,1.66,1.66,0,0,1-.94.27,1.74,1.74,0,0,1-.92-.26,1.84,1.84,0,0,1-.69-.78l-3.54-7.38v9.91a1.64,1.64,0,0,1-3.28,0V248.66a1.57,1.57,0,0,1,.49-1.2,1.67,1.67,0,0,1,1.2-.47,1.68,1.68,0,0,1,1.74,1.07l5,10.22L382.14,248a1.46,1.46,0,0,1,.73-.78,2.43,2.43,0,0,1,.94-.18,1.67,1.67,0,0,1,1.69,1.66Z"/><path class="cls-4" d="M47.48,272.66a1.13,1.13,0,0,1-.89.38,1,1,0,0,1-.39-.08,4.17,4.17,0,0,1-.44-.23,2.39,2.39,0,0,0-.61-.27,2.92,2.92,0,0,0-.82-.1,2.15,2.15,0,0,0-1.86.87,5,5,0,0,0-.62,2.84v2a7.88,7.88,0,0,0,.16,1.73,3.13,3.13,0,0,0,.46,1.12,1.74,1.74,0,0,0,.74.61,2.61,2.61,0,0,0,1,.19,3.24,3.24,0,0,0,1.62-.42,2.52,2.52,0,0,1,.42-.22,1.13,1.13,0,0,1,.39-.07,1.06,1.06,0,0,1,.75.3,1,1,0,0,1,.32.79,1.18,1.18,0,0,1-.12.52,1.49,1.49,0,0,1-.39.48,2.84,2.84,0,0,1-.67.42,6,6,0,0,1-.79.3,5.55,5.55,0,0,1-1.54.24,5.47,5.47,0,0,1-2.3-.43,3.94,3.94,0,0,1-1.54-1.22,5.2,5.2,0,0,1-.87-1.88,10,10,0,0,1-.27-2.43V276a9.77,9.77,0,0,1,.27-2.37,5.21,5.21,0,0,1,.88-1.89A4.12,4.12,0,0,1,42,270.48a5.51,5.51,0,0,1,2.35-.45,5.85,5.85,0,0,1,1.58.23,3.42,3.42,0,0,1,1.32.66,1.16,1.16,0,0,1,.25,1.75Z"/><path class="cls-4" d="M57.16,281.58a3.44,3.44,0,0,1-.73,1.27,3.54,3.54,0,0,1-1.26.87,5.32,5.32,0,0,1-3.64,0,3.53,3.53,0,0,1-1.26-.87,3.43,3.43,0,0,1-.73-1.27A5,5,0,0,1,49.3,280v-2a5,5,0,0,1,.24-1.54,3.42,3.42,0,0,1,.73-1.28,3.53,3.53,0,0,1,1.26-.87,5.32,5.32,0,0,1,3.64,0,3.54,3.54,0,0,1,1.26.87,3.43,3.43,0,0,1,.73,1.28A5,5,0,0,1,57.4,278v2A5,5,0,0,1,57.16,281.58ZM54.86,278a2,2,0,0,0-.36-1.29,1.7,1.7,0,0,0-2.29,0,2,2,0,0,0-.37,1.29v2a2,2,0,0,0,.37,1.29,1.7,1.7,0,0,0,2.29,0,2,2,0,0,0,.36-1.29Z"/><path class="cls-4" d="M72.82,283.67a1.22,1.22,0,0,1-.9.37,1.24,1.24,0,0,1-.91-.37,1.22,1.22,0,0,1-.37-.9v-4.9a3.29,3.29,0,0,0,0-.56,1.13,1.13,0,0,0-.19-.47,1,1,0,0,0-.4-.32,1.56,1.56,0,0,0-.67-.12,1.84,1.84,0,0,0-.91.22,1.93,1.93,0,0,0-.63.56,1.87,1.87,0,0,0,0,.19,1.86,1.86,0,0,1,0,.19v5.22a1.2,1.2,0,0,1-.38.9,1.25,1.25,0,0,1-.9.37,1.25,1.25,0,0,1-1.26-1.26v-4.9a2.75,2.75,0,0,0-.06-.56,1.23,1.23,0,0,0-.2-.47,1,1,0,0,0-.4-.32,1.56,1.56,0,0,0-.67-.12,1.89,1.89,0,0,0-.88.2,1.92,1.92,0,0,0-.65.54v5.63A1.25,1.25,0,0,1,61.17,284a1.24,1.24,0,0,1-.91-.37,1.22,1.22,0,0,1-.37-.9V277a1,1,0,0,0-.17-.68q-.17-.19-.4-.4a.87.87,0,0,1-.25-.29.94.94,0,0,1-.09-.44.89.89,0,0,1,.36-.79,1.57,1.57,0,0,1,.9-.25,2,2,0,0,1,1.19.4,1.65,1.65,0,0,1,.43.45,3.63,3.63,0,0,1,1.19-.72,4.53,4.53,0,0,1,1.6-.26,3.65,3.65,0,0,1,1.54.28,2.54,2.54,0,0,1,1,.79,3.38,3.38,0,0,1,1.2-.79A4.47,4.47,0,0,1,70,274a3.83,3.83,0,0,1,1.49.25,2.4,2.4,0,0,1,1,.72,2.86,2.86,0,0,1,.53,1.12,6.17,6.17,0,0,1,.16,1.45v5.22A1.22,1.22,0,0,1,72.82,283.67Z"/><path class="cls-4" d="M88.86,283.67a1.22,1.22,0,0,1-.9.37,1.24,1.24,0,0,1-.91-.37,1.22,1.22,0,0,1-.37-.9v-4.9a3.29,3.29,0,0,0,0-.56,1.13,1.13,0,0,0-.19-.47,1,1,0,0,0-.4-.32,1.56,1.56,0,0,0-.67-.12,1.84,1.84,0,0,0-.91.22,1.93,1.93,0,0,0-.63.56,1.87,1.87,0,0,0,0,.19,1.86,1.86,0,0,1,0,.19v5.22a1.2,1.2,0,0,1-.38.9,1.25,1.25,0,0,1-.9.37,1.25,1.25,0,0,1-1.26-1.26v-4.9a2.75,2.75,0,0,0-.06-.56,1.23,1.23,0,0,0-.2-.47,1,1,0,0,0-.4-.32,1.56,1.56,0,0,0-.67-.12,1.89,1.89,0,0,0-.88.2,1.92,1.92,0,0,0-.65.54v5.63A1.25,1.25,0,0,1,77.21,284a1.24,1.24,0,0,1-.91-.37,1.22,1.22,0,0,1-.37-.9V277a1,1,0,0,0-.17-.68q-.17-.19-.4-.4a.87.87,0,0,1-.25-.29.94.94,0,0,1-.09-.44.89.89,0,0,1,.36-.79,1.57,1.57,0,0,1,.9-.25,2,2,0,0,1,1.19.4,1.65,1.65,0,0,1,.43.45,3.63,3.63,0,0,1,1.19-.72,4.53,4.53,0,0,1,1.6-.26,3.65,3.65,0,0,1,1.54.28,2.54,2.54,0,0,1,1,.79,3.38,3.38,0,0,1,1.2-.79,4.47,4.47,0,0,1,1.67-.28,3.83,3.83,0,0,1,1.49.25,2.4,2.4,0,0,1,1,.72,2.86,2.86,0,0,1,.53,1.12,6.17,6.17,0,0,1,.16,1.45v5.22A1.22,1.22,0,0,1,88.86,283.67Z"/><path class="cls-4" d="M100.28,283.79a1.61,1.61,0,0,1-.91.25,2,2,0,0,1-.61-.1,2,2,0,0,1-1.06-.86,3.49,3.49,0,0,1-1.18.71,4.57,4.57,0,0,1-1.59.25,3.71,3.71,0,0,1-1.45-.25,2.44,2.44,0,0,1-1-.72,3.08,3.08,0,0,1-.56-1.11,5.3,5.3,0,0,1-.18-1.43V275.3a1.25,1.25,0,0,1,.37-.9A1.2,1.2,0,0,1,93,274a1.29,1.29,0,0,1,1.28,1.28v4.9a2.94,2.94,0,0,0,.06.59,1.14,1.14,0,0,0,.2.46.9.9,0,0,0,.4.29,1.79,1.79,0,0,0,.67.1,2,2,0,0,0,.92-.21,1.73,1.73,0,0,0,.64-.57V275.3A1.29,1.29,0,0,1,98.46,274a1.2,1.2,0,0,1,.9.38,1.25,1.25,0,0,1,.37.9v5.9a1,1,0,0,0,.17.68,3.88,3.88,0,0,0,.4.38,1,1,0,0,1,.25.3.93.93,0,0,1,.1.45A.88.88,0,0,1,100.28,283.79Z"/><path class="cls-4" d="M110.35,283.67a1.25,1.25,0,0,1-.9.37,1.25,1.25,0,0,1-1.26-1.26v-4.9a2.75,2.75,0,0,0-.06-.56,1.23,1.23,0,0,0-.2-.47,1,1,0,0,0-.41-.32,1.63,1.63,0,0,0-.68-.12,1.87,1.87,0,0,0-1.56.77v5.59A1.25,1.25,0,0,1,104,284a1.24,1.24,0,0,1-.91-.37,1.22,1.22,0,0,1-.37-.9V277a1,1,0,0,0-.17-.68q-.17-.19-.4-.4a.87.87,0,0,1-.25-.29.94.94,0,0,1-.09-.44.89.89,0,0,1,.36-.79,1.57,1.57,0,0,1,.9-.25,2.12,2.12,0,0,1,.61.09,1.74,1.74,0,0,1,.57.3,2,2,0,0,1,.43.47,3.66,3.66,0,0,1,1.21-.74,4.58,4.58,0,0,1,1.62-.26,3.78,3.78,0,0,1,1.51.26,2.58,2.58,0,0,1,1,.73,2.79,2.79,0,0,1,.54,1.12,6.16,6.16,0,0,1,.16,1.45v5.2A1.2,1.2,0,0,1,110.35,283.67Z"/><path class="cls-4" d="M115.49,272.33a1.38,1.38,0,0,1-1,.41,1.4,1.4,0,0,1-1-.41,1.43,1.43,0,0,1,0-2,1.4,1.4,0,0,1,1-.4,1.38,1.38,0,0,1,1,.4,1.43,1.43,0,0,1,0,2Zm-.1,11.34a1.22,1.22,0,0,1-.9.37,1.24,1.24,0,0,1-.91-.37,1.22,1.22,0,0,1-.37-.9V275.3a1.25,1.25,0,0,1,.37-.9,1.23,1.23,0,0,1,.91-.38,1.2,1.2,0,0,1,.9.38,1.25,1.25,0,0,1,.37.9v7.48A1.22,1.22,0,0,1,115.39,283.67Z"/><path class="cls-4" d="M124.36,276.43a.93.93,0,0,1-.75,0,3.79,3.79,0,0,0-.64-.24,3.14,3.14,0,0,0-.79-.08,1.48,1.48,0,0,0-1.22.55,2.4,2.4,0,0,0-.43,1.53v1.73a2.62,2.62,0,0,0,.39,1.52,1.34,1.34,0,0,0,1.18.56,4.6,4.6,0,0,0,.71-.06,3.12,3.12,0,0,0,.82-.26.9.9,0,0,1,.75,0,.88.88,0,0,1,.51.58,1,1,0,0,1,0,.79,1.27,1.27,0,0,1-.49.51,4,4,0,0,1-1.22.42,7.51,7.51,0,0,1-1.22.1,4.55,4.55,0,0,1-1.8-.32,3.15,3.15,0,0,1-1.21-.89,3.75,3.75,0,0,1-.7-1.36,6.13,6.13,0,0,1-.23-1.71v-1.32a5.69,5.69,0,0,1,.25-1.71,4.22,4.22,0,0,1,.74-1.41,3.45,3.45,0,0,1,1.23-1,4,4,0,0,1,1.72-.35,7.56,7.56,0,0,1,1.25.11,3.54,3.54,0,0,1,1.21.43,1.4,1.4,0,0,1,.49.53.92.92,0,0,1,0,.77A.91.91,0,0,1,124.36,276.43Z"/><path class="cls-4" d="M134.58,283.79a1.6,1.6,0,0,1-.93.25,1.78,1.78,0,0,1-.68-.12,2,2,0,0,1-.49-.27,1.64,1.64,0,0,1-.38-.4,2.86,2.86,0,0,1-1.25.63,6,6,0,0,1-1.33.16,3.57,3.57,0,0,1-2.55-.8,2.82,2.82,0,0,1-.84-2.14V281a2.55,2.55,0,0,1,1-2.1,4.36,4.36,0,0,1,2.78-.76h1.68v-.36a2.37,2.37,0,0,0-.28-1.27,1.27,1.27,0,0,0-1.15-.44,3.32,3.32,0,0,0-1,.12,4.17,4.17,0,0,0-.71.29,1,1,0,0,1-.86.1,1.13,1.13,0,0,1-.58-.45,1,1,0,0,1-.14-.71,1,1,0,0,1,.49-.68,3.82,3.82,0,0,1,1.42-.55,8.69,8.69,0,0,1,1.57-.15,5.58,5.58,0,0,1,1.73.24,2.7,2.7,0,0,1,1.17.72,3,3,0,0,1,.66,1.25,7,7,0,0,1,.21,1.82v3.15a1.18,1.18,0,0,0,.14.68,2.72,2.72,0,0,0,.35.38,1.22,1.22,0,0,1,.25.31.87.87,0,0,1,.1.44A.9.9,0,0,1,134.58,283.79Zm-3-3.86h-1.37a1.76,1.76,0,0,0-1.18.3,1,1,0,0,0-.33.77v.13a1,1,0,0,0,.34.81,1.66,1.66,0,0,0,1.07.28,1.55,1.55,0,0,0,1.06-.36,1.41,1.41,0,0,0,.41-1.11Z"/><path class="cls-4" d="M142.22,283.6a1.06,1.06,0,0,1-.79.33h-.72a4.28,4.28,0,0,1-1.72-.31,2.81,2.81,0,0,1-1.14-.89,3.74,3.74,0,0,1-.63-1.38,7.55,7.55,0,0,1-.2-1.79v-3.33h-.3a1,1,0,0,1-.73-.31,1,1,0,0,1-.3-.74,1,1,0,0,1,1-1h.3v-1.28a1.29,1.29,0,0,1,1.28-1.28,1.2,1.2,0,0,1,.9.38,1.25,1.25,0,0,1,.37.9v1.28H141a1,1,0,0,1,1,1,1,1,0,0,1-.3.74,1,1,0,0,1-.73.31h-1.45v3.3a3.4,3.4,0,0,0,.3,1.66,1.29,1.29,0,0,0,1.21.51h.36a1.09,1.09,0,0,1,1.11,1.11A1.1,1.1,0,0,1,142.22,283.6Z"/><path class="cls-4" d="M151.31,279.56a.82.82,0,0,1-.61.26h-4.5v.36a2,2,0,0,0,.39,1.32,1.43,1.43,0,0,0,1.18.47,5.39,5.39,0,0,0,1.16-.1,5.66,5.66,0,0,0,1-.31.86.86,0,0,1,.74,0,.92.92,0,0,1,.48.6,1.05,1.05,0,0,1,0,.76.93.93,0,0,1-.51.48,6.14,6.14,0,0,1-1.54.48,8.73,8.73,0,0,1-1.42.12,4.49,4.49,0,0,1-1.85-.34,3.37,3.37,0,0,1-1.22-.9,3.47,3.47,0,0,1-.68-1.31,5.81,5.81,0,0,1-.21-1.57v-1.75a5.26,5.26,0,0,1,.24-1.58,3.64,3.64,0,0,1,.73-1.32,3.55,3.55,0,0,1,1.23-.9,4.26,4.26,0,0,1,1.78-.34,4.55,4.55,0,0,1,1.83.33,3.18,3.18,0,0,1,1.21.89,3.67,3.67,0,0,1,.68,1.31,5.54,5.54,0,0,1,.22,1.55v.81A.89.89,0,0,1,151.31,279.56Zm-2.53-3.13a1.3,1.3,0,0,0-1.09-.43,1.39,1.39,0,0,0-1.12.43,1.87,1.87,0,0,0-.37,1.24v.25h2.92v-.25A2,2,0,0,0,148.77,276.43Z"/><path class="cls-4" d="M76.56,300.42a3.44,3.44,0,0,1-.73,1.27,3.54,3.54,0,0,1-1.26.87,5.32,5.32,0,0,1-3.64,0,3.53,3.53,0,0,1-1.26-.87,3.43,3.43,0,0,1-.73-1.27,5,5,0,0,1-.24-1.55v-2a5,5,0,0,1,.24-1.54,3.42,3.42,0,0,1,.73-1.28,3.53,3.53,0,0,1,1.26-.87,5.32,5.32,0,0,1,3.64,0,3.54,3.54,0,0,1,1.26.87,3.43,3.43,0,0,1,.73,1.28,5,5,0,0,1,.24,1.54v2A5,5,0,0,1,76.56,300.42Zm-2.31-3.53a2,2,0,0,0-.36-1.29,1.7,1.7,0,0,0-2.29,0,2,2,0,0,0-.37,1.29v2a2,2,0,0,0,.37,1.29,1.7,1.7,0,0,0,2.29,0,2,2,0,0,0,.36-1.29Z"/><path class="cls-4" d="M87,300.28a3.9,3.9,0,0,1-.58,1.4,2.57,2.57,0,0,1-1.06.88,4.23,4.23,0,0,1-2.69.15,3,3,0,0,1-.9-.41v2.64a1.25,1.25,0,0,1-1.26,1.26,1.25,1.25,0,0,1-.9-.37,1.2,1.2,0,0,1-.38-.9v-9.23a1.26,1.26,0,0,0-.13-.68,2.46,2.46,0,0,0-.36-.4.86.86,0,0,1-.25-.29.94.94,0,0,1-.09-.44.91.91,0,0,1,.36-.8,1.52,1.52,0,0,1,.9-.25,1.93,1.93,0,0,1,.61.1,1.87,1.87,0,0,1,.57.31,2.91,2.91,0,0,1,.36.34,4,4,0,0,1,1.11-.55,4.07,4.07,0,0,1,1.26-.21,3.39,3.39,0,0,1,2.74,1,4.52,4.52,0,0,1,.88,3v1.53A8.85,8.85,0,0,1,87,300.28Zm-2.35-3.59a2,2,0,0,0-.35-1.27,1.45,1.45,0,0,0-1.18-.42,1.88,1.88,0,0,0-.7.14,2.81,2.81,0,0,0-.68.39v4.63a2.51,2.51,0,0,0,.68.42,1.82,1.82,0,0,0,.72.16,1.33,1.33,0,0,0,1.17-.48,2.35,2.35,0,0,0,.34-1.37Z"/><path class="cls-4" d="M96.77,298.39a.82.82,0,0,1-.61.26h-4.5V299a2,2,0,0,0,.39,1.32,1.43,1.43,0,0,0,1.18.47,5.39,5.39,0,0,0,1.16-.1,5.66,5.66,0,0,0,1-.31.86.86,0,0,1,.74,0,.92.92,0,0,1,.48.6,1.05,1.05,0,0,1,0,.76.93.93,0,0,1-.51.48,6.14,6.14,0,0,1-1.54.48,8.73,8.73,0,0,1-1.42.12,4.49,4.49,0,0,1-1.85-.34,3.37,3.37,0,0,1-1.22-.9,3.47,3.47,0,0,1-.68-1.31,5.81,5.81,0,0,1-.21-1.57V297a5.26,5.26,0,0,1,.24-1.58,3.64,3.64,0,0,1,.73-1.32,3.55,3.55,0,0,1,1.23-.9,4.26,4.26,0,0,1,1.78-.34,4.55,4.55,0,0,1,1.83.33,3.18,3.18,0,0,1,1.21.89,3.67,3.67,0,0,1,.68,1.31,5.54,5.54,0,0,1,.22,1.55v.81A.89.89,0,0,1,96.77,298.39Zm-2.53-3.13a1.3,1.3,0,0,0-1.09-.43,1.39,1.39,0,0,0-1.12.43,1.87,1.87,0,0,0-.37,1.24v.25h2.92v-.25A2,2,0,0,0,94.23,295.26Z"/><path class="cls-4" d="M107,302.51a1.25,1.25,0,0,1-.9.37,1.25,1.25,0,0,1-1.26-1.26v-4.9a2.75,2.75,0,0,0-.06-.56,1.23,1.23,0,0,0-.2-.47,1,1,0,0,0-.41-.32,1.63,1.63,0,0,0-.68-.12,1.87,1.87,0,0,0-1.56.77v5.59a1.25,1.25,0,0,1-1.26,1.26,1.24,1.24,0,0,1-.91-.37,1.22,1.22,0,0,1-.37-.9v-5.78a1,1,0,0,0-.17-.68q-.17-.19-.4-.4a.87.87,0,0,1-.25-.29.94.94,0,0,1-.09-.44.89.89,0,0,1,.36-.79,1.57,1.57,0,0,1,.9-.25,2.12,2.12,0,0,1,.61.09,1.74,1.74,0,0,1,.57.3,2,2,0,0,1,.43.47,3.66,3.66,0,0,1,1.21-.74,4.58,4.58,0,0,1,1.62-.26,3.78,3.78,0,0,1,1.51.26,2.58,2.58,0,0,1,1,.73,2.79,2.79,0,0,1,.54,1.12,6.16,6.16,0,0,1,.16,1.45v5.2A1.2,1.2,0,0,1,107,302.51Z"/><path class="cls-4" d="M112.85,302.63a1.61,1.61,0,0,1-.91.25,2,2,0,0,1-.61-.1,1.89,1.89,0,0,1-.57-.31,2.45,2.45,0,0,1-.72-.87,2.89,2.89,0,0,1-.28-1.34v-9.87a1.2,1.2,0,0,1,.38-.9,1.25,1.25,0,0,1,.9-.37,1.25,1.25,0,0,1,1.26,1.26V300a1,1,0,0,0,.17.68,3.78,3.78,0,0,0,.4.38,1,1,0,0,1,.25.3.93.93,0,0,1,.1.45A.88.88,0,0,1,112.85,302.63Z"/><path class="cls-4" d="M119.92,301.37a15.19,15.19,0,0,1-.88,2,6.65,6.65,0,0,1-1,1.47,4.24,4.24,0,0,1-1.28.93,4.72,4.72,0,0,1-1.61.41,1.21,1.21,0,0,1-1-.34,1.27,1.27,0,0,1-.37-.89,1.35,1.35,0,0,1,.27-.81,1.08,1.08,0,0,1,.86-.42,3.22,3.22,0,0,0,1.14-.29,2.74,2.74,0,0,0,1.08-1.1q-.41-1-.84-2.13l-.82-2.17q-.4-1.05-.72-2t-.55-1.67a1.1,1.1,0,0,1,.22-1.12,1.25,1.25,0,0,1,.44-.31,1.37,1.37,0,0,1,.55-.11,1.07,1.07,0,0,1,.65.22,1.22,1.22,0,0,1,.42.65q.32,1,.79,2.48t1,3l1.73-5.5a1.18,1.18,0,0,1,.48-.66,1.27,1.27,0,0,1,.69-.21,1.32,1.32,0,0,1,.56.12,1.18,1.18,0,0,1,.68.89,1.38,1.38,0,0,1-.08.7Z"/><rect id="_Rectangle_" data-name="&lt;Rectangle&gt;" class="cls-5" x="43.87" y="194" width="59.35" height="53.19" rx="15.42" ry="15.42"/><path id="_Path_" data-name="&lt;Path&gt;" class="cls-5" d="M43.85,231.08A32.5,32.5,0,0,1,31.1,256.91l1,0a32.56,32.56,0,0,0,32.56-32.56H44.58C45,226.54,43.85,228.78,43.85,231.08Z"/><path class="cls-6" d="M83,214.31a9.17,9.17,0,0,1-1.1,2.22,11.13,11.13,0,0,1-1.56,1.83q-.88.83-1.81,1.56a19,19,0,0,0-1.9,1.61,8,8,0,0,0-1.05,1.25,3.05,3.05,0,0,0-.46,1.07A6.27,6.27,0,0,0,75,225a2.71,2.71,0,0,1-.83,2,3,3,0,0,1-2.2.81,2.9,2.9,0,0,1-2.22-.86,3.17,3.17,0,0,1-.81-2.27,12.59,12.59,0,0,1,.15-2,6.49,6.49,0,0,1,.54-1.73,6.59,6.59,0,0,1,1.1-1.61,15.67,15.67,0,0,1,1.88-1.71q.88-.69,1.61-1.3a13.52,13.52,0,0,0,1.3-1.22,4.64,4.64,0,0,0,.86-1.3,4,4,0,0,0,.29-1.56,3.54,3.54,0,0,0-1.27-3.13,5,5,0,0,0-2.93-.88,5.2,5.2,0,0,0-2.37.46,14.62,14.62,0,0,0-1.73,1,4.29,4.29,0,0,1-.68.32,2.47,2.47,0,0,1-.83.12,2.83,2.83,0,0,1-2.3-.93,3,3,0,0,1-.78-2,2.75,2.75,0,0,1,.66-1.78,5.56,5.56,0,0,1,1.49-1.29A12.29,12.29,0,0,1,69,202.83a15,15,0,0,1,4.15-.49,13.32,13.32,0,0,1,3.59.51,9.63,9.63,0,0,1,3.3,1.64,8.44,8.44,0,0,1,3.32,7A8.61,8.61,0,0,1,83,214.31Zm-8.18,23.38A3.75,3.75,0,0,1,72,238.84a3.68,3.68,0,0,1-2.74-1.15,4,4,0,0,1,0-5.52A3.69,3.69,0,0,1,72,231a3.75,3.75,0,0,1,2.79,1.15,4,4,0,0,1,0,5.52Z"/><rect id="_Rectangle_2" data-name="&lt;Rectangle&gt;" class="cls-4" x="89.22" y="177.71" width="59.35" height="53.19" rx="15.42" ry="15.42" transform="translate(237.78 408.62) rotate(-180)"/><path id="_Path_2" data-name="&lt;Path&gt;" class="cls-4" d="M148.59,214.8a32.5,32.5,0,0,0,12.75,25.83l-1,0a32.56,32.56,0,0,1-32.56-32.56h20.11C147.41,210.26,148.59,212.5,148.59,214.8Z"/><path class="cls-6" d="M115.66,216.16a3.24,3.24,0,1,1,.95,2.28A3.12,3.12,0,0,1,115.66,216.16Zm.44-23.87a3,3,0,0,1,.65-2.16,3,3,0,0,1,4.28,0,3,3,0,0,1,.65,2.16l-.61,14.78a4,4,0,0,1-.55,2,1.83,1.83,0,0,1-1.64.69,1.77,1.77,0,0,1-1.62-.69,4.15,4.15,0,0,1-.52-2Z"/><path class="cls-2" d="M98,325.94a3,3,0,0,1-.1-6,79.82,79.82,0,0,0,9.58-.91,3,3,0,0,1,.93,5.93,85.61,85.61,0,0,1-10.31,1Zm-10-.26h-.26a84.76,84.76,0,0,1-10.25-1.52,3,3,0,0,1,1.25-5.87,78.64,78.64,0,0,0,9.52,1.41,3,3,0,0,1-.25,6Zm29.69-2.83a3,3,0,0,1-.82-5.89,78.55,78.55,0,0,0,9.08-3.21,3,3,0,0,1,2.34,5.52,84.59,84.59,0,0,1-9.77,3.46A3,3,0,0,1,117.74,322.85Zm-49.2-1.31a3,3,0,0,1-1-.17,84.64,84.64,0,0,1-9.57-4A3,3,0,0,1,60.63,312a78.52,78.52,0,0,0,8.89,3.69,3,3,0,0,1-1,5.84Zm67.57-6.48a3,3,0,0,1-1.5-5.6,79.08,79.08,0,0,0,8-5.32,3,3,0,0,1,3.61,4.79,85.35,85.35,0,0,1-8.64,5.72A3,3,0,0,1,136.11,315.06Zm-85.49-2.27A3,3,0,0,1,49,312.3a85.17,85.17,0,0,1-8.32-6.17,3,3,0,0,1,3.86-4.59,79.48,79.48,0,0,0,7.73,5.73,3,3,0,0,1-1.64,5.51ZM152,303a3,3,0,0,1-2.08-5.16,79.52,79.52,0,0,0,6.51-7.09,3,3,0,1,1,4.66,3.78,85.44,85.44,0,0,1-7,7.63A3,3,0,0,1,152,303ZM35.36,300a3,3,0,0,1-2.19-1,85.65,85.65,0,0,1-6.59-8,3,3,0,0,1,4.85-3.53,79.36,79.36,0,0,0,6.13,7.43,3,3,0,0,1-2.19,5ZM164.6,287.56a3,3,0,0,1-2.54-4.59,78.81,78.81,0,0,0,4.6-8.45,3,3,0,1,1,5.43,2.54,85,85,0,0,1-5,9.09A3,3,0,0,1,164.6,287.56Zm-141-3.74A3,3,0,0,1,21,282.27a85,85,0,0,1-4.47-9.35,3,3,0,1,1,5.56-2.25,78.89,78.89,0,0,0,4.15,8.69,3,3,0,0,1-2.62,4.46ZM173.05,269.5a3,3,0,0,1-2.85-3.93,78.5,78.5,0,0,0,2.41-9.32,3,3,0,1,1,5.89,1.14,84.55,84.55,0,0,1-2.59,10A3,3,0,0,1,173.05,269.5ZM16.15,265.32a3,3,0,0,1-2.9-2.23,84.73,84.73,0,0,1-2.05-10.15,3,3,0,1,1,5.94-.83A78.89,78.89,0,0,0,19,261.54a3,3,0,0,1-2.9,3.77Zm160.71-15.4h-.21a3,3,0,0,1-2.78-3.2c.13-1.84.19-3.71.19-5.56a3,3,0,0,1,6,0c0,2-.07,4-.21,6A3,3,0,0,1,176.86,249.92ZM13.4,245.56a3,3,0,0,1-3-3q0-.73,0-1.46a86.36,86.36,0,0,1,.46-8.88,3,3,0,1,1,6,.62,80.38,80.38,0,0,0-.43,8.26q0,.68,0,1.36a3,3,0,0,1-2.95,3Zm2.07-19.83a3,3,0,0,1-2.93-3.67,84.54,84.54,0,0,1,2.94-9.93,3,3,0,0,1,5.64,2.05,78.34,78.34,0,0,0-2.73,9.23A3,3,0,0,1,15.47,225.73ZM22.29,207a3,3,0,0,1-2.67-4.37,85.13,85.13,0,0,1,5.26-8.92,3,3,0,0,1,5,3.36A79.39,79.39,0,0,0,25,205.35,3,3,0,0,1,22.29,207Zm11.17-16.52a3,3,0,0,1-2.26-5,85.57,85.57,0,0,1,7.26-7.39,3,3,0,1,1,4,4.46,79.62,79.62,0,0,0-6.75,6.87A3,3,0,0,1,33.46,190.47Zm14.82-13.35a3,3,0,0,1-1.73-5.46,84.87,84.87,0,0,1,8.83-5.42,3,3,0,0,1,2.82,5.29,79,79,0,0,0-8.2,5A3,3,0,0,1,48.28,177.12Zm17.61-9.38a3,3,0,0,1-1.08-5.8,84.32,84.32,0,0,1,9.89-3.11,3,3,0,1,1,1.45,5.82A78.38,78.38,0,0,0,67,167.54,3,3,0,0,1,65.89,167.74Zm19.36-4.81a3,3,0,0,1-.36-6,86.08,86.08,0,0,1,10.33-.62,3,3,0,0,1,0,6,79.89,79.89,0,0,0-9.61.58Z"/><path class="cls-2" d="M243.64,244.15h-10a3,3,0,0,1,0-6h10a3,3,0,0,1,0,6Zm-20,0h-10a3,3,0,0,1,0-6h10a3,3,0,0,1,0,6Zm-20,0h-10a3,3,0,0,1,0-6h10a3,3,0,0,1,0,6Zm-20,0h-6.58a3,3,0,1,1,0-6h6.58a3,3,0,0,1,0,6Z"/><path class="cls-2" d="M243.64,244.15h-10a3,3,0,0,1,0-6h10a3,3,0,0,1,0,6Zm-20,0h-10a3,3,0,0,1,0-6h10a3,3,0,0,1,0,6Zm-20,0h-10a3,3,0,0,1,0-6h10a3,3,0,0,1,0,6Zm-20,0h-6.58a3,3,0,1,1,0-6h6.58a3,3,0,0,1,0,6Z"/><path class="cls-4" d="M607.66,271.39c0,.06,0,.12,0,.18q-.64,2.94-1.3,5.61t-1.43,5.44a2.23,2.23,0,0,1-.64,1.09,1.53,1.53,0,0,1-1,.38,1.61,1.61,0,0,1-1-.36,2,2,0,0,1-.67-1.07q-.51-1.83-1-3.71t-.93-3.8q-.43,1.92-.92,3.8t-1,3.71a2,2,0,0,1-.67,1.07,1.61,1.61,0,0,1-1,.36,1.72,1.72,0,0,1-1.7-1.47q-.77-2.77-1.42-5.44t-1.29-5.61a.46.46,0,0,1,0-.17v-.17a1.07,1.07,0,0,1,.41-.89,1.41,1.41,0,0,1,.89-.32,1.27,1.27,0,0,1,.74.25,1.2,1.2,0,0,1,.46.77q.47,2.28,1,4.45t1.06,4.37q.54-2.09,1-4.18t.91-4.11a2.66,2.66,0,0,1,.51-1.1,1.26,1.26,0,0,1,1-.44,1.23,1.23,0,0,1,1,.43,2.84,2.84,0,0,1,.48,1.09q.41,2,.9,4.13t1,4.18q.58-2.2,1.08-4.37t1-4.45a1.12,1.12,0,0,1,.45-.77,1.31,1.31,0,0,1,.75-.25,1.41,1.41,0,0,1,.89.32,1.07,1.07,0,0,1,.41.89A1.34,1.34,0,0,1,607.66,271.39Z"/><path class="cls-4" d="M616.81,281.58a3.43,3.43,0,0,1-.73,1.27,3.54,3.54,0,0,1-1.26.87,5.32,5.32,0,0,1-3.64,0,3.52,3.52,0,0,1-1.26-.87,3.42,3.42,0,0,1-.73-1.27,5,5,0,0,1-.24-1.55v-2a5,5,0,0,1,.24-1.54,3.41,3.41,0,0,1,.73-1.28,3.53,3.53,0,0,1,1.26-.87,5.32,5.32,0,0,1,3.64,0,3.54,3.54,0,0,1,1.26.87,3.42,3.42,0,0,1,.73,1.28A5,5,0,0,1,617,278v2A5,5,0,0,1,616.81,281.58ZM614.51,278a2,2,0,0,0-.36-1.29,1.7,1.7,0,0,0-2.29,0,2,2,0,0,0-.37,1.29v2a2,2,0,0,0,.37,1.29,1.7,1.7,0,0,0,2.29,0,2,2,0,0,0,.36-1.29Z"/><path class="cls-4" d="M625.41,276.37a1.09,1.09,0,0,1-.9.15l-.29-.06-.52,0a2,2,0,0,0-1,.24,1.32,1.32,0,0,0-.61.85v5.24a1.25,1.25,0,0,1-1.26,1.26,1.24,1.24,0,0,1-.91-.37,1.22,1.22,0,0,1-.37-.9V277a1,1,0,0,0-.17-.68q-.17-.19-.4-.4a.86.86,0,0,1-.25-.29.93.93,0,0,1-.09-.44.91.91,0,0,1,.34-.79,1.55,1.55,0,0,1,.92-.25h.19a.55.55,0,0,1,.21,0,2.13,2.13,0,0,1,.86.41,2.07,2.07,0,0,1,.52.63,2.91,2.91,0,0,1,.69-.63,3.48,3.48,0,0,1,.72-.36,3.17,3.17,0,0,1,.67-.16,4.93,4.93,0,0,1,.55,0,2.71,2.71,0,0,1,.67.08,1.73,1.73,0,0,1,.5.21,1,1,0,0,1,.46.6,1.34,1.34,0,0,1,0,.75A1.32,1.32,0,0,1,625.41,276.37Z"/><path class="cls-4" d="M635.26,283a1.14,1.14,0,0,1-.24.54,1.27,1.27,0,0,1-.46.35,1.34,1.34,0,0,1-.56.12,1.19,1.19,0,0,1-.62-.18,1.17,1.17,0,0,1-.47-.59q-.41-1-.9-1.88t-1-1.77l-1.15,1.09v2.07a1.25,1.25,0,0,1-1.26,1.26,1.24,1.24,0,0,1-.91-.37,1.22,1.22,0,0,1-.37-.9V271.55a1.22,1.22,0,0,1,.37-.9,1.24,1.24,0,0,1,.91-.37,1.25,1.25,0,0,1,1.26,1.26v6.16l3.43-3.37a1.11,1.11,0,0,1,.81-.31,1.14,1.14,0,0,1,1.11,1.14,1,1,0,0,1-.34.79l-2.09,2q.68,1,1.31,2.12a19.85,19.85,0,0,1,1.12,2.29A1.17,1.17,0,0,1,635.26,283Z"/><path class="cls-4" d="M583.92,302.43a1.05,1.05,0,0,1-.79.33h-.72a4.28,4.28,0,0,1-1.72-.31,2.81,2.81,0,0,1-1.14-.89,3.75,3.75,0,0,1-.63-1.38,7.55,7.55,0,0,1-.2-1.79v-3.33h-.3a1,1,0,0,1-.73-.31,1,1,0,0,1-.3-.74,1,1,0,0,1,1-1h.3v-1.28A1.29,1.29,0,0,1,580,290.4a1.21,1.21,0,0,1,.9.38,1.25,1.25,0,0,1,.37.9V293h1.45a1,1,0,0,1,1,1,1,1,0,0,1-.3.74,1,1,0,0,1-.73.31h-1.45v3.3a3.4,3.4,0,0,0,.3,1.66,1.29,1.29,0,0,0,1.21.51h.36a1.09,1.09,0,0,1,1.11,1.11A1.1,1.1,0,0,1,583.92,302.43Z"/><path class="cls-4" d="M593.21,300.42a3.45,3.45,0,0,1-.73,1.27,3.54,3.54,0,0,1-1.26.87,5.32,5.32,0,0,1-3.63,0,3.54,3.54,0,0,1-1.26-.87,3.43,3.43,0,0,1-.73-1.27,5,5,0,0,1-.24-1.55v-2a5,5,0,0,1,.24-1.54,3.42,3.42,0,0,1,.73-1.28,3.54,3.54,0,0,1,1.26-.87,5.32,5.32,0,0,1,3.63,0,3.54,3.54,0,0,1,1.26.87,3.44,3.44,0,0,1,.73,1.28,5.06,5.06,0,0,1,.24,1.54v2A5,5,0,0,1,593.21,300.42Zm-2.31-3.53a2,2,0,0,0-.36-1.29,1.7,1.7,0,0,0-2.29,0,2,2,0,0,0-.37,1.29v2a2,2,0,0,0,.37,1.29,1.7,1.7,0,0,0,2.29,0,2,2,0,0,0,.36-1.29Z"/><path class="cls-4" d="M603.37,301.91a4.54,4.54,0,0,1-1,3.14,4,4,0,0,1-3.15,1.16,10.58,10.58,0,0,1-1.37-.09,4.78,4.78,0,0,1-1.28-.34,1.53,1.53,0,0,1-.53-.4.9.9,0,0,1-.21-.6,1,1,0,0,1,.31-.73,1,1,0,0,1,.74-.29,2.07,2.07,0,0,1,.4.08l.41.12.54.12a4.58,4.58,0,0,0,.8.06q1.83,0,1.83-2.07v-.49a4.38,4.38,0,0,1-1,.43,3.51,3.51,0,0,1-1.06.17,4.11,4.11,0,0,1-1.62-.28,2.48,2.48,0,0,1-1.05-.83,3.51,3.51,0,0,1-.57-1.35,8.9,8.9,0,0,1-.17-1.84v-.72a8.32,8.32,0,0,1,.18-1.82,3.53,3.53,0,0,1,.59-1.36,2.67,2.67,0,0,1,1.06-.85,3.88,3.88,0,0,1,1.59-.29,3.13,3.13,0,0,1,1.14.21,3.23,3.23,0,0,1,1,.58,1.38,1.38,0,0,1,.46-.57,1.17,1.17,0,0,1,.71-.23,1.2,1.2,0,0,1,.94.38,1.31,1.31,0,0,1,.34.9Zm-3.25-6.75a1.94,1.94,0,0,0-.74-.16q-1.45,0-1.45,1.79v1.53a2.19,2.19,0,0,0,.31,1.28,1.31,1.31,0,0,0,1.14.43,2.38,2.38,0,0,0,.72-.13,2.21,2.21,0,0,0,.73-.4v-3.86A2.2,2.2,0,0,0,600.12,295.16Z"/><path class="cls-4" d="M613.23,298.39a.82.82,0,0,1-.61.26h-4.5V299a2,2,0,0,0,.39,1.32,1.44,1.44,0,0,0,1.18.47,5.4,5.4,0,0,0,1.16-.1,5.64,5.64,0,0,0,1-.31.86.86,0,0,1,.74,0,.92.92,0,0,1,.48.6,1.05,1.05,0,0,1,0,.76.93.93,0,0,1-.51.48,6.14,6.14,0,0,1-1.54.48,8.73,8.73,0,0,1-1.42.12,4.5,4.5,0,0,1-1.85-.34,3.38,3.38,0,0,1-1.22-.9,3.48,3.48,0,0,1-.68-1.31,5.81,5.81,0,0,1-.21-1.57V297a5.26,5.26,0,0,1,.24-1.58,3.64,3.64,0,0,1,.73-1.32,3.55,3.55,0,0,1,1.23-.9,4.26,4.26,0,0,1,1.78-.34,4.55,4.55,0,0,1,1.83.33,3.18,3.18,0,0,1,1.21.89,3.67,3.67,0,0,1,.68,1.31,5.52,5.52,0,0,1,.22,1.55v.81A.89.89,0,0,1,613.23,298.39Zm-2.53-3.13a1.3,1.3,0,0,0-1.09-.43,1.39,1.39,0,0,0-1.12.43,1.87,1.87,0,0,0-.37,1.24v.25H611v-.25A2,2,0,0,0,610.7,295.26Z"/><path class="cls-4" d="M621,302.43a1.05,1.05,0,0,1-.79.33h-.72a4.28,4.28,0,0,1-1.72-.31,2.81,2.81,0,0,1-1.14-.89,3.75,3.75,0,0,1-.63-1.38,7.55,7.55,0,0,1-.2-1.79v-3.33h-.3a1,1,0,0,1-.73-.31,1,1,0,0,1-.3-.74,1,1,0,0,1,1-1h.3v-1.28a1.29,1.29,0,0,1,1.28-1.28,1.21,1.21,0,0,1,.9.38,1.25,1.25,0,0,1,.37.9V293h1.45a1,1,0,0,1,1,1,1,1,0,0,1-.3.74,1,1,0,0,1-.73.31h-1.45v3.3a3.4,3.4,0,0,0,.3,1.66,1.29,1.29,0,0,0,1.21.51h.36a1.09,1.09,0,0,1,1.11,1.11A1.1,1.1,0,0,1,621,302.43Z"/><path class="cls-4" d="M630.36,302.51a1.24,1.24,0,0,1-.91.37,1.25,1.25,0,0,1-1.26-1.26v-4.9a3.29,3.29,0,0,0,0-.56,1.13,1.13,0,0,0-.19-.47,1,1,0,0,0-.41-.32,1.62,1.62,0,0,0-.68-.12,2,2,0,0,0-.92.21,1.92,1.92,0,0,0-.66.57v5.59a1.25,1.25,0,0,1-1.26,1.26,1.24,1.24,0,0,1-.91-.37,1.22,1.22,0,0,1-.37-.9V290.39a1.22,1.22,0,0,1,.37-.9,1.24,1.24,0,0,1,.91-.37,1.25,1.25,0,0,1,1.26,1.26v3.09a3.31,3.31,0,0,1,1-.46,4.72,4.72,0,0,1,1.28-.16,3.8,3.8,0,0,1,1.5.26,2.48,2.48,0,0,1,1,.73,2.85,2.85,0,0,1,.53,1.12,6.16,6.16,0,0,1,.16,1.45v5.2A1.22,1.22,0,0,1,630.36,302.51Z"/><path class="cls-4" d="M640.58,298.39a.82.82,0,0,1-.61.26h-4.5V299a2,2,0,0,0,.39,1.32,1.43,1.43,0,0,0,1.18.47,5.39,5.39,0,0,0,1.16-.1,5.68,5.68,0,0,0,1-.31.86.86,0,0,1,.74,0,.92.92,0,0,1,.48.6,1.05,1.05,0,0,1,0,.76.93.93,0,0,1-.51.48,6.14,6.14,0,0,1-1.54.48,8.72,8.72,0,0,1-1.42.12,4.49,4.49,0,0,1-1.85-.34,3.36,3.36,0,0,1-1.22-.9,3.46,3.46,0,0,1-.68-1.31,5.81,5.81,0,0,1-.21-1.57V297a5.26,5.26,0,0,1,.24-1.58,3.64,3.64,0,0,1,.72-1.32,3.55,3.55,0,0,1,1.23-.9,4.25,4.25,0,0,1,1.78-.34,4.55,4.55,0,0,1,1.83.33,3.18,3.18,0,0,1,1.21.89,3.67,3.67,0,0,1,.68,1.31,5.56,5.56,0,0,1,.22,1.55v.81A.89.89,0,0,1,640.58,298.39ZM638,295.26a1.31,1.31,0,0,0-1.09-.43,1.39,1.39,0,0,0-1.12.43,1.88,1.88,0,0,0-.37,1.24v.25h2.92v-.25A2,2,0,0,0,638,295.26Z"/><path class="cls-4" d="M649,295.21a1.09,1.09,0,0,1-.9.15l-.29-.06-.52,0a2,2,0,0,0-1,.24,1.32,1.32,0,0,0-.61.85v5.24a1.25,1.25,0,0,1-1.26,1.26,1.24,1.24,0,0,1-.91-.37,1.22,1.22,0,0,1-.37-.9v-5.78a1,1,0,0,0-.17-.68q-.17-.19-.4-.4a.86.86,0,0,1-.25-.29.93.93,0,0,1-.09-.44.91.91,0,0,1,.34-.79,1.55,1.55,0,0,1,.92-.25h.19a.55.55,0,0,1,.21,0,2.13,2.13,0,0,1,.86.41,2.07,2.07,0,0,1,.52.63,2.91,2.91,0,0,1,.69-.63,3.48,3.48,0,0,1,.72-.36,3.17,3.17,0,0,1,.67-.16,4.93,4.93,0,0,1,.55,0,2.71,2.71,0,0,1,.67.08,1.73,1.73,0,0,1,.5.21,1,1,0,0,1,.46.6,1.34,1.34,0,0,1,0,.75A1.32,1.32,0,0,1,649,295.21Z"/><rect id="_Rectangle_3" data-name="&lt;Rectangle&gt;" class="cls-7" x="630.81" y="191.36" width="31.45" height="39.75" transform="translate(747.5 -461.4) rotate(80.44)"/><rect id="_Rectangle_4" data-name="&lt;Rectangle&gt;" class="cls-8" x="567.55" y="192.74" width="31.45" height="37.38" transform="translate(888.61 -328.66) rotate(99.56)"/><path id="_Rectangle_5" data-name="&lt;Rectangle&gt;" class="cls-8" d="M600.67,201.91h18.47a12.14,12.14,0,0,1,12.14,12.14v34.79a4.62,4.62,0,0,1-4.62,4.62h-36.4a4.62,4.62,0,0,1-4.62-4.62V216.93A15,15,0,0,1,600.67,201.91Z" transform="translate(10.27 481.13) rotate(-43.48)"/><path id="_Rectangle_6" data-name="&lt;Rectangle&gt;" class="cls-7" d="M597.75,200.7h36.4a4.62,4.62,0,0,1,4.62,4.62v34.79a12.14,12.14,0,0,1-12.14,12.14H608.15a15,15,0,0,1-15-15V205.33a4.62,4.62,0,0,1,4.62-4.62Z" transform="translate(847.59 840.51) rotate(-130.86)"/><path id="_Path_3" data-name="&lt;Path&gt;" class="cls-7" d="M602.32,259.51l.81.94a3.91,3.91,0,0,0,5.5.4l6.59-5.71a3.91,3.91,0,0,0,.4-5.5l-.81-.94a3.91,3.91,0,0,0-5.5-.4L602.71,254A3.91,3.91,0,0,0,602.32,259.51Z"/><path id="_Path_4" data-name="&lt;Path&gt;" class="cls-7" d="M583.11,246.68l.94,1.08a4.5,4.5,0,0,0,6.32.46l13.35-11.56a4.5,4.5,0,0,0,.46-6.32l-.94-1.08a4.5,4.5,0,0,0-6.32-.46l-13.35,11.56A4.5,4.5,0,0,0,583.11,246.68Z"/><path id="_Path_5" data-name="&lt;Path&gt;" class="cls-7" d="M592,254.07l.94,1.08a4.5,4.5,0,0,0,6.32.46l9.9-8.58a4.5,4.5,0,0,0,.46-6.32l-.94-1.08a4.5,4.5,0,0,0-6.32-.46l-9.9,8.58A4.5,4.5,0,0,0,592,254.07Z"/><path id="_Path_6" data-name="&lt;Path&gt;" class="cls-7" d="M578.25,235.78l.94,1.08a4.5,4.5,0,0,0,6.32.46l8.34-7.23a4.5,4.5,0,0,0,.46-6.32l-.94-1.08a4.5,4.5,0,0,0-6.32-.46l-8.34,7.23A4.5,4.5,0,0,0,578.25,235.78Z"/><path id="_Path_7" data-name="&lt;Path&gt;" class="cls-9" d="M617,261.5l-.9.86a3.91,3.91,0,0,1-5.51-.15l-6-6.33a3.91,3.91,0,0,1,.15-5.51l.9-.86a3.91,3.91,0,0,1,5.51.15l6,6.33A3.91,3.91,0,0,1,617,261.5Z"/><path id="_Path_8" data-name="&lt;Path&gt;" class="cls-9" d="M637.39,250.63l-1,1a4.5,4.5,0,0,1-6.34-.17l-12.14-12.82a4.5,4.5,0,0,1,.17-6.34l1-1a4.5,4.5,0,0,1,6.34.17l12.14,12.82A4.5,4.5,0,0,1,637.39,250.63Z"/><path id="_Path_9" data-name="&lt;Path&gt;" class="cls-9" d="M627.79,257.11l-1,1a4.5,4.5,0,0,1-6.34-.17l-9-9.51a4.5,4.5,0,0,1,.17-6.34l1-1a4.5,4.5,0,0,1,6.34.17l9,9.51A4.5,4.5,0,0,1,627.79,257.11Z"/><path id="_Path_10" data-name="&lt;Path&gt;" class="cls-8" d="M618.76,261.89l-.9.86a3.91,3.91,0,0,1-5.51-.15l-6-6.33a3.91,3.91,0,0,1,.15-5.51l.9-.86a3.91,3.91,0,0,1,5.51.15l6,6.33A3.91,3.91,0,0,1,618.76,261.89Z"/><path id="_Path_11" data-name="&lt;Path&gt;" class="cls-8" d="M639.15,251l-1,1a4.5,4.5,0,0,1-6.34-.17L619.63,239a4.5,4.5,0,0,1,.17-6.34l1-1a4.5,4.5,0,0,1,6.34.17l12.14,12.82A4.5,4.5,0,0,1,639.15,251Z"/><path id="_Path_12" data-name="&lt;Path&gt;" class="cls-8" d="M629.54,257.5l-1,1a4.5,4.5,0,0,1-6.34-.17l-9-9.51a4.5,4.5,0,0,1,.17-6.34l1-1a4.5,4.5,0,0,1,6.34.17l9,9.51A4.5,4.5,0,0,1,629.54,257.5Z"/><path id="_Path_13" data-name="&lt;Path&gt;" class="cls-10" d="M626.71,233.77l1.37,1.45-5.14,4.92-1.4-1.47a3.56,3.56,0,1,1,5.17-4.9Z"/><path id="_Path_14" data-name="&lt;Path&gt;" class="cls-10" d="M620.67,244.05,622,245.5l-5.14,4.92L615.5,249a3.56,3.56,0,1,1,5.17-4.9Z"/><path id="_Path_15" data-name="&lt;Path&gt;" class="cls-10" d="M613.35,251.91l1.37,1.45-5.14,4.92-1.4-1.47a3.56,3.56,0,1,1,5.17-4.9Z"/><path id="_Path_16" data-name="&lt;Path&gt;" class="cls-9" d="M643.29,240.27l-1,1a4.5,4.5,0,0,1-6.34-.17l-7.59-8a4.5,4.5,0,0,1,.17-6.34l1-1a4.5,4.5,0,0,1,6.34.17l7.59,8A4.5,4.5,0,0,1,643.29,240.27Z"/><path id="_Path_17" data-name="&lt;Path&gt;" class="cls-8" d="M645.05,240.66l-1,1a4.5,4.5,0,0,1-6.34-.17l-7.59-8a4.5,4.5,0,0,1,.17-6.34l1-1a4.5,4.5,0,0,1,6.34.17l7.59,8A4.5,4.5,0,0,1,645.05,240.66Z"/><path id="_Path_18" data-name="&lt;Path&gt;" class="cls-10" d="M637.17,228.2l1.37,1.45-5.14,4.92L632,233.1a3.56,3.56,0,1,1,5.17-4.9Z"/><path id="_Path_19" data-name="&lt;Path&gt;" class="cls-9" d="M642.94,210h0a5.06,5.06,0,0,0-4.42-5.86l-7.56.69c-6.38.58-8.52,0-14.19-2.46L609,199c-3.53-1.51-7.5,1.81-7.77,5.73-.24,3.56,2.92,6.66,6.35,7.81,0,0,11.79,4.62,28.92,2.79C639.65,215,641.95,214.08,642.94,210Z"/><path id="_Path_20" data-name="&lt;Path&gt;" class="cls-8" d="M642.19,208.63h0a5.06,5.06,0,0,0-4.42-5.86l-7.56.69c-6.38.58-8.52,0-14.19-2.46l-7.74-3.39c-3.53-1.51-7.5,1.81-7.77,5.73-.24,3.56,2.92,6.66,6.35,7.81,0,0,11.79,4.62,28.92,2.79C638.9,213.61,641.19,212.7,642.19,208.63Z"/><rect id="_Rectangle_7" data-name="&lt;Rectangle&gt;" class="cls-11" x="547.38" y="200.66" width="41.51" height="16.94" transform="translate(863.36 -319.41) rotate(98.98)"/><rect id="_Rectangle_8" data-name="&lt;Rectangle&gt;" class="cls-12" x="637.99" y="200.66" width="41.51" height="16.94" transform="translate(762.51 -474.18) rotate(81.02)"/><path class="cls-2" d="M357.15,475.92a3,3,0,0,1-.1-6,79.8,79.8,0,0,0,9.58-.91,3,3,0,1,1,.93,5.93,85.57,85.57,0,0,1-10.31,1Zm-10-.26h-.26a84.76,84.76,0,0,1-10.25-1.52,3,3,0,0,1,1.25-5.87,78.64,78.64,0,0,0,9.52,1.41,3,3,0,0,1-.25,6Zm29.69-2.83a3,3,0,0,1-.82-5.89,78.41,78.41,0,0,0,9.08-3.21,3,3,0,0,1,2.34,5.52,84.47,84.47,0,0,1-9.77,3.46A3,3,0,0,1,376.85,472.83Zm-49.2-1.31a3,3,0,0,1-1-.17,84.64,84.64,0,0,1-9.57-4,3,3,0,0,1,2.64-5.39,78.52,78.52,0,0,0,8.89,3.69,3,3,0,0,1-1,5.84ZM395.22,465a3,3,0,0,1-1.5-5.6,79.13,79.13,0,0,0,8-5.32,3,3,0,0,1,3.61,4.79,85.46,85.46,0,0,1-8.64,5.72A3,3,0,0,1,395.22,465Zm-85.49-2.27a3,3,0,0,1-1.63-.49,85.17,85.17,0,0,1-8.32-6.17,3,3,0,0,1,3.86-4.59,79.48,79.48,0,0,0,7.73,5.73,3,3,0,0,1-1.64,5.51ZM411.15,453a3,3,0,0,1-2.08-5.16,79.47,79.47,0,0,0,6.51-7.09,3,3,0,1,1,4.66,3.78,85.46,85.46,0,0,1-7,7.63A3,3,0,0,1,411.15,453Zm-116.68-3.09a3,3,0,0,1-2.19-1,85.52,85.52,0,0,1-6.59-8,3,3,0,0,1,4.85-3.53,79.56,79.56,0,0,0,6.13,7.43,3,3,0,0,1-2.19,5Zm129.24-12.39a3,3,0,0,1-2.54-4.59,78.67,78.67,0,0,0,4.6-8.45,3,3,0,1,1,5.44,2.54,84.9,84.9,0,0,1-5,9.09A3,3,0,0,1,423.71,437.54Zm-141-3.74a3,3,0,0,1-2.63-1.54,85,85,0,0,1-4.47-9.35,3,3,0,1,1,5.56-2.25,79,79,0,0,0,4.15,8.69,3,3,0,0,1-2.62,4.46Zm149.43-14.32a3,3,0,0,1-2.85-3.93,78.59,78.59,0,0,0,2.41-9.32,3,3,0,0,1,5.89,1.14,84.59,84.59,0,0,1-2.59,10A3,3,0,0,1,432.16,419.48Zm-156.91-4.18a3,3,0,0,1-2.9-2.23,84.73,84.73,0,0,1-2.05-10.15,3,3,0,1,1,5.94-.83,78.89,78.89,0,0,0,1.91,9.43,3,3,0,0,1-2.9,3.77ZM436,399.9h-.21a3,3,0,0,1-2.78-3.2c.13-1.84.19-3.71.19-5.56a3,3,0,0,1,6,0c0,2-.07,4-.21,6A3,3,0,0,1,436,399.9Zm-163.46-4.36a3,3,0,0,1-3-3q0-.73,0-1.46a86,86,0,0,1,.46-8.88,3,3,0,0,1,6,.62,79.86,79.86,0,0,0-.43,8.26q0,.68,0,1.36a3,3,0,0,1-2.95,3Zm2.07-19.83a3,3,0,0,1-2.93-3.67,84.54,84.54,0,0,1,2.94-9.93,3,3,0,0,1,5.64,2.05,78.34,78.34,0,0,0-2.73,9.23A3,3,0,0,1,274.58,375.71ZM281.4,357a3,3,0,0,1-2.67-4.37,85.13,85.13,0,0,1,5.26-8.92,3,3,0,0,1,5,3.36,79.39,79.39,0,0,0-4.89,8.28A3,3,0,0,1,281.4,357Zm11.17-16.52a3,3,0,0,1-2.26-5,85.5,85.5,0,0,1,7.26-7.39,3,3,0,1,1,4,4.46,79.53,79.53,0,0,0-6.75,6.87A3,3,0,0,1,292.57,340.45Zm14.82-13.35a3,3,0,0,1-1.73-5.46,84.87,84.87,0,0,1,8.83-5.42,3,3,0,0,1,2.82,5.29,79,79,0,0,0-8.2,5A3,3,0,0,1,307.39,327.09ZM325,317.71a3,3,0,0,1-1.08-5.8,84.32,84.32,0,0,1,9.89-3.11,3,3,0,1,1,1.45,5.82,78.38,78.38,0,0,0-9.18,2.89A3,3,0,0,1,325,317.71Zm19.36-4.81a3,3,0,0,1-.36-6,86.08,86.08,0,0,1,10.33-.62,3,3,0,1,1,0,6,79.89,79.89,0,0,0-9.61.58Z"/><path class="cls-2" d="M354.33,312.3a3,3,0,0,1-3-3v-7.37a3,3,0,1,1,6,0v7.37A3,3,0,0,1,354.33,312.3Zm0-17.37a3,3,0,0,1-3-3v-10a3,3,0,1,1,6,0v10A3,3,0,0,1,354.33,294.93Z"/><path class="cls-4" d="M352.29,416.89c0,.06,0,.12,0,.18q-.64,2.94-1.3,5.61t-1.43,5.44a2.23,2.23,0,0,1-.64,1.09,1.53,1.53,0,0,1-1,.38,1.61,1.61,0,0,1-1-.36,2,2,0,0,1-.67-1.07q-.51-1.83-1-3.71t-.93-3.8q-.43,1.92-.92,3.8t-1,3.71a2,2,0,0,1-.67,1.07,1.61,1.61,0,0,1-1,.36,1.72,1.72,0,0,1-1.7-1.47q-.77-2.77-1.42-5.44t-1.29-5.61a.46.46,0,0,1,0-.17v-.17a1.07,1.07,0,0,1,.4-.89,1.41,1.41,0,0,1,.9-.32,1.27,1.27,0,0,1,.74.25,1.2,1.2,0,0,1,.46.77q.47,2.28,1,4.45t1.06,4.37q.55-2.09,1-4.18t.91-4.11a2.66,2.66,0,0,1,.51-1.1,1.26,1.26,0,0,1,1-.44,1.23,1.23,0,0,1,1,.43,2.83,2.83,0,0,1,.48,1.09q.41,2,.9,4.13t1,4.18q.58-2.2,1.08-4.37t1-4.45a1.12,1.12,0,0,1,.45-.77,1.31,1.31,0,0,1,.75-.25,1.41,1.41,0,0,1,.89.32,1.07,1.07,0,0,1,.4.89A1.44,1.44,0,0,1,352.29,416.89Z"/><path class="cls-4" d="M361.23,425.05a.82.82,0,0,1-.61.26h-4.5v.36a2,2,0,0,0,.39,1.32,1.44,1.44,0,0,0,1.18.47,5.4,5.4,0,0,0,1.16-.1,5.64,5.64,0,0,0,1-.31.86.86,0,0,1,.74,0,.92.92,0,0,1,.48.6,1.05,1.05,0,0,1,0,.76.93.93,0,0,1-.51.48,6.14,6.14,0,0,1-1.54.48,8.73,8.73,0,0,1-1.42.12,4.5,4.5,0,0,1-1.85-.34,3.37,3.37,0,0,1-1.22-.9,3.47,3.47,0,0,1-.68-1.31,5.81,5.81,0,0,1-.21-1.57v-1.75a5.26,5.26,0,0,1,.24-1.58,3.64,3.64,0,0,1,.73-1.32,3.55,3.55,0,0,1,1.23-.9,4.26,4.26,0,0,1,1.78-.34,4.55,4.55,0,0,1,1.83.33,3.18,3.18,0,0,1,1.21.89,3.67,3.67,0,0,1,.68,1.31,5.52,5.52,0,0,1,.22,1.55v.81A.89.89,0,0,1,361.23,425.05Zm-2.53-3.13a1.3,1.3,0,0,0-1.09-.43,1.39,1.39,0,0,0-1.12.43,1.87,1.87,0,0,0-.37,1.24v.25H359v-.25A2,2,0,0,0,358.7,421.93Z"/><path class="cls-4" d="M366.58,429.29a1.62,1.62,0,0,1-.91.25,2,2,0,0,1-.61-.1,1.89,1.89,0,0,1-.57-.31,2.45,2.45,0,0,1-.72-.87,2.88,2.88,0,0,1-.28-1.34V417a1.2,1.2,0,0,1,.38-.9,1.25,1.25,0,0,1,.9-.37A1.26,1.26,0,0,1,366,417v9.64a1,1,0,0,0,.17.68,3.88,3.88,0,0,0,.4.38,1,1,0,0,1,.25.3.93.93,0,0,1,.1.45A.88.88,0,0,1,366.58,429.29Z"/><path class="cls-4" d="M371.8,429.29a1.61,1.61,0,0,1-.91.25,2,2,0,0,1-.61-.1,1.89,1.89,0,0,1-.58-.31,2.45,2.45,0,0,1-.72-.87,2.89,2.89,0,0,1-.28-1.34V417a1.21,1.21,0,0,1,.38-.9,1.25,1.25,0,0,1,.9-.37,1.25,1.25,0,0,1,1.26,1.26v9.64a1,1,0,0,0,.17.68,3.69,3.69,0,0,0,.4.38,1,1,0,0,1,.25.3.92.92,0,0,1,.1.45A.88.88,0,0,1,371.8,429.29Z"/><path class="cls-4" d="M321.9,445.92a3.44,3.44,0,0,1-.73,1.27,3.54,3.54,0,0,1-1.26.87,5.32,5.32,0,0,1-3.64,0,3.53,3.53,0,0,1-1.26-.87,3.43,3.43,0,0,1-.73-1.27,5,5,0,0,1-.24-1.55v-2a5,5,0,0,1,.24-1.54,3.42,3.42,0,0,1,.73-1.28,3.53,3.53,0,0,1,1.26-.87,5.32,5.32,0,0,1,3.64,0,3.54,3.54,0,0,1,1.26.87,3.43,3.43,0,0,1,.73,1.28,5,5,0,0,1,.24,1.54v2A5,5,0,0,1,321.9,445.92Zm-2.31-3.53a2,2,0,0,0-.36-1.29,1.7,1.7,0,0,0-2.29,0,2,2,0,0,0-.37,1.29v2a2,2,0,0,0,.37,1.29,1.7,1.7,0,0,0,2.29,0,2,2,0,0,0,.36-1.29Z"/><path class="cls-4" d="M330.5,440.71a1.09,1.09,0,0,1-.9.15l-.29-.06-.52,0a2,2,0,0,0-1,.24,1.32,1.32,0,0,0-.61.85v5.24a1.25,1.25,0,0,1-1.26,1.26A1.24,1.24,0,0,1,325,448a1.22,1.22,0,0,1-.37-.9v-5.78a1,1,0,0,0-.17-.68q-.17-.19-.4-.4a.87.87,0,0,1-.25-.29.94.94,0,0,1-.09-.44.91.91,0,0,1,.34-.79,1.55,1.55,0,0,1,.92-.25h.19a.55.55,0,0,1,.21,0,2.13,2.13,0,0,1,.86.41,2.06,2.06,0,0,1,.52.63,2.93,2.93,0,0,1,.69-.63,3.48,3.48,0,0,1,.72-.36,3.17,3.17,0,0,1,.67-.16,4.93,4.93,0,0,1,.55,0,2.71,2.71,0,0,1,.67.08,1.72,1.72,0,0,1,.5.21,1,1,0,0,1,.46.6,1.34,1.34,0,0,1,0,.75A1.32,1.32,0,0,1,330.5,440.71Z"/><path class="cls-4" d="M340.07,447.41a4.54,4.54,0,0,1-1,3.14,4,4,0,0,1-3.15,1.16,10.59,10.59,0,0,1-1.37-.09,4.77,4.77,0,0,1-1.28-.34,1.54,1.54,0,0,1-.53-.4.9.9,0,0,1-.21-.6,1,1,0,0,1,.31-.73,1,1,0,0,1,.74-.29,2.05,2.05,0,0,1,.4.08l.41.12a5.24,5.24,0,0,0,.54.12,4.57,4.57,0,0,0,.8.06q1.83,0,1.83-2.07v-.49a4.39,4.39,0,0,1-1,.43,3.51,3.51,0,0,1-1.06.17,4.11,4.11,0,0,1-1.62-.28,2.48,2.48,0,0,1-1.05-.83,3.5,3.5,0,0,1-.56-1.35,8.9,8.9,0,0,1-.17-1.84v-.72a8.35,8.35,0,0,1,.18-1.82,3.53,3.53,0,0,1,.59-1.36,2.67,2.67,0,0,1,1.06-.85,3.88,3.88,0,0,1,1.59-.29,3.13,3.13,0,0,1,1.14.21,3.23,3.23,0,0,1,1,.58,1.38,1.38,0,0,1,.46-.57,1.17,1.17,0,0,1,.71-.23,1.2,1.2,0,0,1,.94.38,1.31,1.31,0,0,1,.34.9Zm-3.25-6.75a1.94,1.94,0,0,0-.74-.16q-1.45,0-1.45,1.79v1.53a2.19,2.19,0,0,0,.31,1.28,1.31,1.31,0,0,0,1.14.43,2.38,2.38,0,0,0,.73-.13,2.21,2.21,0,0,0,.73-.4v-3.86A2.2,2.2,0,0,0,336.82,440.66Z"/><path class="cls-4" d="M350.42,448.13a1.6,1.6,0,0,1-.93.25,1.78,1.78,0,0,1-.68-.12,2,2,0,0,1-.49-.27,1.64,1.64,0,0,1-.38-.4,2.86,2.86,0,0,1-1.25.63,6,6,0,0,1-1.33.16,3.57,3.57,0,0,1-2.55-.8,2.82,2.82,0,0,1-.84-2.14v-.13a2.55,2.55,0,0,1,1-2.1,4.36,4.36,0,0,1,2.78-.76h1.68v-.36a2.37,2.37,0,0,0-.28-1.27,1.27,1.27,0,0,0-1.15-.44,3.32,3.32,0,0,0-1,.12,4.17,4.17,0,0,0-.71.29,1,1,0,0,1-.86.1,1.13,1.13,0,0,1-.58-.45,1,1,0,0,1-.14-.71,1,1,0,0,1,.49-.68,3.82,3.82,0,0,1,1.42-.55,8.69,8.69,0,0,1,1.57-.15,5.58,5.58,0,0,1,1.73.24,2.7,2.7,0,0,1,1.17.72,3,3,0,0,1,.66,1.25,7,7,0,0,1,.21,1.82v3.15a1.18,1.18,0,0,0,.14.68,2.72,2.72,0,0,0,.35.38,1.22,1.22,0,0,1,.25.31.87.87,0,0,1,.1.44A.9.9,0,0,1,350.42,448.13Zm-3-3.86H346a1.76,1.76,0,0,0-1.18.3,1,1,0,0,0-.33.77v.13a1,1,0,0,0,.34.81,1.66,1.66,0,0,0,1.07.28,1.55,1.55,0,0,0,1.06-.36,1.41,1.41,0,0,0,.41-1.11Z"/><path class="cls-4" d="M360.47,448a1.25,1.25,0,0,1-.9.37,1.25,1.25,0,0,1-1.26-1.26v-4.9a2.72,2.72,0,0,0-.06-.56,1.23,1.23,0,0,0-.2-.47,1,1,0,0,0-.41-.32,1.63,1.63,0,0,0-.68-.12,1.88,1.88,0,0,0-1.56.77v5.59a1.25,1.25,0,0,1-1.26,1.26,1.24,1.24,0,0,1-.91-.37,1.22,1.22,0,0,1-.37-.9v-5.78a1,1,0,0,0-.17-.68q-.17-.19-.4-.4a.87.87,0,0,1-.25-.29.94.94,0,0,1-.09-.44.89.89,0,0,1,.36-.79,1.57,1.57,0,0,1,.9-.25,2.12,2.12,0,0,1,.61.09,1.74,1.74,0,0,1,.57.3,2,2,0,0,1,.43.47,3.66,3.66,0,0,1,1.21-.74,4.58,4.58,0,0,1,1.62-.26,3.78,3.78,0,0,1,1.51.26,2.57,2.57,0,0,1,1,.73,2.78,2.78,0,0,1,.54,1.12,6.16,6.16,0,0,1,.16,1.45v5.2A1.2,1.2,0,0,1,360.47,448Z"/><path class="cls-4" d="M365.61,436.67a1.38,1.38,0,0,1-1,.41,1.4,1.4,0,0,1-1-.41,1.43,1.43,0,0,1,0-2,1.4,1.4,0,0,1,1-.4,1.38,1.38,0,0,1,1,.4,1.43,1.43,0,0,1,0,2Zm-.1,11.34a1.22,1.22,0,0,1-.9.37,1.24,1.24,0,0,1-.91-.37,1.22,1.22,0,0,1-.37-.9v-7.48a1.25,1.25,0,0,1,.37-.9,1.22,1.22,0,0,1,.91-.38,1.21,1.21,0,0,1,.9.38,1.25,1.25,0,0,1,.37.9v7.48A1.22,1.22,0,0,1,365.51,448Z"/><path class="cls-4" d="M374.77,440.61l-3.94,5.44H374a1.09,1.09,0,0,1,.78.32,1,1,0,0,1,.33.77,1.06,1.06,0,0,1-.33.79,1.08,1.08,0,0,1-.78.32h-5.39a.94.94,0,0,1-.37-.08,1.36,1.36,0,0,1-.37-.24,1.25,1.25,0,0,1-.15-1.66l4-5.61h-2.92a1.09,1.09,0,0,1-1.09-1.09,1.07,1.07,0,0,1,.32-.79,1.06,1.06,0,0,1,.77-.32H374a1.45,1.45,0,0,1,.79.25.92.92,0,0,1,.4.84A1.87,1.87,0,0,1,374.77,440.61Z"/><path class="cls-4" d="M384.12,443.89a.82.82,0,0,1-.61.26H379v.36a2,2,0,0,0,.39,1.32,1.43,1.43,0,0,0,1.18.47,5.39,5.39,0,0,0,1.16-.1,5.68,5.68,0,0,0,1-.31.86.86,0,0,1,.74,0,.92.92,0,0,1,.48.6,1.05,1.05,0,0,1,0,.76.93.93,0,0,1-.51.48,6.14,6.14,0,0,1-1.54.48,8.72,8.72,0,0,1-1.42.12,4.49,4.49,0,0,1-1.85-.34,3.36,3.36,0,0,1-1.22-.9,3.46,3.46,0,0,1-.68-1.31,5.81,5.81,0,0,1-.21-1.57V442.5a5.26,5.26,0,0,1,.24-1.58,3.64,3.64,0,0,1,.72-1.32,3.55,3.55,0,0,1,1.23-.9,4.25,4.25,0,0,1,1.78-.34,4.55,4.55,0,0,1,1.83.33,3.18,3.18,0,0,1,1.21.89,3.67,3.67,0,0,1,.68,1.31,5.56,5.56,0,0,1,.22,1.55v.81A.89.89,0,0,1,384.12,443.89Zm-2.53-3.13a1.31,1.31,0,0,0-1.09-.43,1.39,1.39,0,0,0-1.12.43A1.88,1.88,0,0,0,379,442v.25h2.92V442A2,2,0,0,0,381.59,440.76Z"/><path class="cls-4" d="M394.62,448.13a1.57,1.57,0,0,1-.9.25,2,2,0,0,1-.61-.1,1.88,1.88,0,0,1-.58-.31,2.8,2.8,0,0,1-.36-.34,3.54,3.54,0,0,1-1.11.56,4.26,4.26,0,0,1-1.26.2,3.44,3.44,0,0,1-2.75-1,4.48,4.48,0,0,1-.88-3v-1.53a8.89,8.89,0,0,1,.18-1.87,3.8,3.8,0,0,1,.58-1.4,2.66,2.66,0,0,1,1.06-.88,3.79,3.79,0,0,1,1.62-.31,3.69,3.69,0,0,1,1.07.16,3.49,3.49,0,0,1,.92.42l0-3.05a1.2,1.2,0,0,1,.38-.9,1.3,1.3,0,0,1,1.81,0,1.21,1.21,0,0,1,.38.9v9.64a1.25,1.25,0,0,0,.13.68,2,2,0,0,0,.36.38.85.85,0,0,1,.24.3,1,1,0,0,1,.09.45A.89.89,0,0,1,394.62,448.13Zm-3-7a2.54,2.54,0,0,0-.68-.42,1.84,1.84,0,0,0-.72-.16A1.34,1.34,0,0,0,389,441a2.31,2.31,0,0,0-.34,1.36v2.2a2,2,0,0,0,.35,1.27,1.44,1.44,0,0,0,1.18.42,2.22,2.22,0,0,0,1.38-.51Z"/><path class="cls-2" d="M354.33,175.59a3,3,0,0,1,0-6,79.84,79.84,0,0,0,9.61-.58,3,3,0,1,1,.72,6A86,86,0,0,1,354.33,175.59Zm19.8-2.41a3,3,0,0,1-.72-5.91,78.45,78.45,0,0,0,9.18-2.89,3,3,0,0,1,2.15,5.6,84.44,84.44,0,0,1-9.89,3.11A3,3,0,0,1,374.13,173.18ZM392.76,166a3,3,0,0,1-1.41-5.65,78.88,78.88,0,0,0,8.2-5,3,3,0,1,1,3.45,4.91,85,85,0,0,1-8.83,5.42A3,3,0,0,1,392.76,166Zm16.33-11.46a3,3,0,0,1-2-5.23,79.68,79.68,0,0,0,6.75-6.87,3,3,0,1,1,4.53,3.94,85.92,85.92,0,0,1-7.26,7.39A3,3,0,0,1,409.09,154.57Zm13.09-15a3,3,0,0,1-2.48-4.68,78.87,78.87,0,0,0,4.89-8.28,3,3,0,0,1,5.34,2.73,84.88,84.88,0,0,1-5.26,8.92A3,3,0,0,1,422.18,139.53Zm9.07-17.76a3,3,0,0,1-2.82-4,78.43,78.43,0,0,0,2.73-9.23,3,3,0,0,1,5.85,1.35,84.45,84.45,0,0,1-2.94,9.93A3,3,0,0,1,431.25,121.77Zm4.48-19.44-.31,0A3,3,0,0,1,432.74,99a80.17,80.17,0,0,0,.43-8.26q0-.68,0-1.36a3,3,0,0,1,6-.1q0,.73,0,1.46a86.68,86.68,0,0,1-.46,8.88A3,3,0,0,1,435.72,102.33ZM272.5,93.76a3,3,0,0,1-3-3c0-2,.07-4,.21-6a3,3,0,1,1,6,.42c-.13,1.84-.19,3.71-.19,5.56A3,3,0,0,1,272.5,93.76ZM435.38,82.39a3,3,0,0,1-3-2.59,78.56,78.56,0,0,0-1.91-9.43,3,3,0,0,1,5.8-1.55A84.68,84.68,0,0,1,438.35,79a3,3,0,0,1-2.56,3.38ZM274,78.09a3,3,0,0,1-.57-.06,3,3,0,0,1-2.37-3.52,84.55,84.55,0,0,1,2.59-10,3,3,0,0,1,5.71,1.86,78.5,78.5,0,0,0-2.41,9.32A3,3,0,0,1,274,78.09Zm156.23-15a3,3,0,0,1-2.78-1.88,78.72,78.72,0,0,0-4.15-8.69,3,3,0,0,1,5.25-2.91A84.8,84.8,0,0,1,433,59a3,3,0,0,1-2.78,4.13Zm-150.07-4a3,3,0,0,1-2.72-4.27,85,85,0,0,1,5-9.09,3,3,0,0,1,5.08,3.19,78.81,78.81,0,0,0-4.6,8.45A3,3,0,0,1,280.16,59.12ZM420.55,45.67a3,3,0,0,1-2.43-1.24A79.25,79.25,0,0,0,412,37a3,3,0,0,1,4.39-4.09,85.53,85.53,0,0,1,6.59,8,3,3,0,0,1-2.42,4.76Zm-129.8-3.44a3,3,0,0,1-2.33-4.89,85.41,85.41,0,0,1,7-7.63A3,3,0,1,1,299.59,34a79.66,79.66,0,0,0-6.51,7.09A3,3,0,0,1,290.75,42.23ZM406.94,31.08a3,3,0,0,1-1.93-.7,79,79,0,0,0-7.73-5.73,3,3,0,0,1,3.27-5,85.56,85.56,0,0,1,8.32,6.17,3,3,0,0,1-1.93,5.3Zm-101.83-2.7A3,3,0,0,1,303.3,23a85.35,85.35,0,0,1,8.64-5.72,3,3,0,0,1,3,5.2,79.08,79.08,0,0,0-8,5.32A3,3,0,0,1,305.11,28.38Zm85.12-8.17a3,3,0,0,1-1.32-.31A78.4,78.4,0,0,0,380,16.21a3,3,0,1,1,2-5.67,84.57,84.57,0,0,1,9.57,4,3,3,0,0,1-1.32,5.7ZM322.38,18.4a3,3,0,0,1-1.17-5.76A84.59,84.59,0,0,1,331,9.18a3,3,0,1,1,1.65,5.77,78.55,78.55,0,0,0-9.08,3.21A3,3,0,0,1,322.38,18.4Zm49-4.69a3,3,0,0,1-.62-.07,79,79,0,0,0-9.52-1.41,3,3,0,0,1,.52-6A84.9,84.9,0,0,1,372,7.77a3,3,0,0,1-.62,5.94Zm-29.82-.79a3,3,0,0,1-.46-6,85.52,85.52,0,0,1,10.31-1,3,3,0,1,1,.2,6,79.5,79.5,0,0,0-9.58.91A3.05,3.05,0,0,1,341.56,12.92Z"/><path class="cls-2" d="M354.33,203a3,3,0,0,1-3-3V190a3,3,0,1,1,6,0v10A3,3,0,0,1,354.33,203Zm0-20a3,3,0,0,1-3-3v-7.37a3,3,0,1,1,6,0V180A3,3,0,0,1,354.33,183Z"/><path class="cls-4" d="M307,118.16a1.13,1.13,0,0,1-.89.38,1,1,0,0,1-.39-.08,4.17,4.17,0,0,1-.44-.23,2.39,2.39,0,0,0-.61-.27,2.92,2.92,0,0,0-.82-.1,2.15,2.15,0,0,0-1.86.87,5,5,0,0,0-.62,2.84v2a7.88,7.88,0,0,0,.16,1.73,3.13,3.13,0,0,0,.46,1.12,1.74,1.74,0,0,0,.74.61,2.61,2.61,0,0,0,1,.19,3.24,3.24,0,0,0,1.62-.42,2.52,2.52,0,0,1,.42-.22,1.13,1.13,0,0,1,.39-.07,1.06,1.06,0,0,1,.75.3,1,1,0,0,1,.32.79,1.18,1.18,0,0,1-.12.52,1.49,1.49,0,0,1-.39.48,2.84,2.84,0,0,1-.67.42,6,6,0,0,1-.79.3,5.55,5.55,0,0,1-1.54.24,5.47,5.47,0,0,1-2.3-.43,3.94,3.94,0,0,1-1.54-1.22,5.2,5.2,0,0,1-.87-1.88,10,10,0,0,1-.27-2.43v-2.13a9.77,9.77,0,0,1,.27-2.37,5.21,5.21,0,0,1,.88-1.89,4.12,4.12,0,0,1,1.56-1.25,5.51,5.51,0,0,1,2.35-.45,5.85,5.85,0,0,1,1.58.23,3.42,3.42,0,0,1,1.32.66,1.16,1.16,0,0,1,.25,1.75Z"/><path class="cls-4" d="M316.67,127.08a3.44,3.44,0,0,1-.73,1.27,3.54,3.54,0,0,1-1.26.87,5.32,5.32,0,0,1-3.64,0,3.53,3.53,0,0,1-1.26-.87,3.43,3.43,0,0,1-.73-1.27,5,5,0,0,1-.24-1.55v-2A5,5,0,0,1,309,122a3.42,3.42,0,0,1,.73-1.28,3.53,3.53,0,0,1,1.26-.87,5.32,5.32,0,0,1,3.64,0,3.54,3.54,0,0,1,1.26.87,3.43,3.43,0,0,1,.73,1.28,5,5,0,0,1,.24,1.54v2A5,5,0,0,1,316.67,127.08Zm-2.31-3.53a2,2,0,0,0-.36-1.29,1.7,1.7,0,0,0-2.29,0,2,2,0,0,0-.37,1.29v2a2,2,0,0,0,.37,1.29,1.7,1.7,0,0,0,2.29,0,2,2,0,0,0,.36-1.29Z"/><path class="cls-4" d="M332.32,129.17a1.22,1.22,0,0,1-.9.37,1.24,1.24,0,0,1-.91-.37,1.22,1.22,0,0,1-.37-.9v-4.9a3.29,3.29,0,0,0,0-.56,1.13,1.13,0,0,0-.19-.47,1,1,0,0,0-.4-.32,1.56,1.56,0,0,0-.67-.12,1.84,1.84,0,0,0-.91.22,1.93,1.93,0,0,0-.63.56,1.87,1.87,0,0,0,0,.19,1.86,1.86,0,0,1,0,.19v5.22a1.2,1.2,0,0,1-.38.9,1.25,1.25,0,0,1-.9.37,1.25,1.25,0,0,1-1.26-1.26v-4.9a2.75,2.75,0,0,0-.06-.56,1.23,1.23,0,0,0-.2-.47,1,1,0,0,0-.4-.32,1.56,1.56,0,0,0-.67-.12,1.89,1.89,0,0,0-.88.2,1.92,1.92,0,0,0-.65.54v5.63a1.25,1.25,0,0,1-1.26,1.26,1.24,1.24,0,0,1-.91-.37,1.22,1.22,0,0,1-.37-.9v-5.78a1,1,0,0,0-.17-.68q-.17-.19-.4-.4a.87.87,0,0,1-.25-.29.94.94,0,0,1-.09-.44.89.89,0,0,1,.36-.79,1.57,1.57,0,0,1,.9-.25,2,2,0,0,1,1.19.4,1.65,1.65,0,0,1,.43.45,3.63,3.63,0,0,1,1.19-.72,4.53,4.53,0,0,1,1.6-.26,3.65,3.65,0,0,1,1.54.28,2.54,2.54,0,0,1,1,.79,3.38,3.38,0,0,1,1.2-.79,4.47,4.47,0,0,1,1.67-.28,3.83,3.83,0,0,1,1.49.25,2.4,2.4,0,0,1,1,.72,2.86,2.86,0,0,1,.53,1.12,6.17,6.17,0,0,1,.16,1.45v5.22A1.22,1.22,0,0,1,332.32,129.17Z"/><path class="cls-4" d="M348.37,129.17a1.22,1.22,0,0,1-.9.37,1.24,1.24,0,0,1-.91-.37,1.22,1.22,0,0,1-.37-.9v-4.9a3.29,3.29,0,0,0,0-.56,1.13,1.13,0,0,0-.19-.47,1,1,0,0,0-.4-.32,1.56,1.56,0,0,0-.67-.12,1.84,1.84,0,0,0-.91.22,1.93,1.93,0,0,0-.63.56,1.87,1.87,0,0,0,0,.19,1.86,1.86,0,0,1,0,.19v5.22a1.2,1.2,0,0,1-.38.9,1.25,1.25,0,0,1-.9.37,1.25,1.25,0,0,1-1.26-1.26v-4.9a2.75,2.75,0,0,0-.06-.56,1.23,1.23,0,0,0-.2-.47,1,1,0,0,0-.4-.32,1.56,1.56,0,0,0-.67-.12,1.89,1.89,0,0,0-.88.2,1.92,1.92,0,0,0-.65.54v5.63a1.25,1.25,0,0,1-1.26,1.26,1.24,1.24,0,0,1-.91-.37,1.22,1.22,0,0,1-.37-.9v-5.78a1,1,0,0,0-.17-.68q-.17-.19-.4-.4a.87.87,0,0,1-.25-.29.94.94,0,0,1-.09-.44.89.89,0,0,1,.36-.79,1.57,1.57,0,0,1,.9-.25,2,2,0,0,1,1.19.4,1.65,1.65,0,0,1,.43.45,3.63,3.63,0,0,1,1.19-.72,4.53,4.53,0,0,1,1.6-.26,3.65,3.65,0,0,1,1.54.28,2.54,2.54,0,0,1,1,.79,3.38,3.38,0,0,1,1.2-.79,4.47,4.47,0,0,1,1.67-.28,3.83,3.83,0,0,1,1.49.25,2.4,2.4,0,0,1,1,.72,2.86,2.86,0,0,1,.53,1.12,6.17,6.17,0,0,1,.16,1.45v5.22A1.22,1.22,0,0,1,348.37,129.17Z"/><path class="cls-4" d="M353.5,117.83a1.38,1.38,0,0,1-1,.41,1.4,1.4,0,0,1-1-.41,1.43,1.43,0,0,1,0-2,1.4,1.4,0,0,1,1-.4,1.38,1.38,0,0,1,1,.4,1.43,1.43,0,0,1,0,2Zm-.1,11.34a1.22,1.22,0,0,1-.9.37,1.24,1.24,0,0,1-.91-.37,1.22,1.22,0,0,1-.37-.9V120.8a1.25,1.25,0,0,1,.37-.9,1.23,1.23,0,0,1,.91-.38,1.2,1.2,0,0,1,.9.38,1.25,1.25,0,0,1,.37.9v7.48A1.22,1.22,0,0,1,353.4,129.17Z"/><path class="cls-4" d="M361.73,129.09a1.05,1.05,0,0,1-.79.33h-.72a4.28,4.28,0,0,1-1.72-.31,2.81,2.81,0,0,1-1.14-.89,3.75,3.75,0,0,1-.63-1.38,7.55,7.55,0,0,1-.2-1.79v-3.33h-.3a1,1,0,0,1-.73-.31,1,1,0,0,1-.3-.74,1,1,0,0,1,1-1h.3v-1.28a1.29,1.29,0,0,1,1.28-1.28,1.21,1.21,0,0,1,.9.38,1.25,1.25,0,0,1,.37.9v1.28h1.45a1,1,0,0,1,1,1,1,1,0,0,1-.3.74,1,1,0,0,1-.73.31h-1.45V125a3.4,3.4,0,0,0,.3,1.66,1.29,1.29,0,0,0,1.21.51h.36a1.09,1.09,0,0,1,1.11,1.11A1.1,1.1,0,0,1,361.73,129.09Z"/><path class="cls-4" d="M370.82,125.05a.82.82,0,0,1-.61.26h-4.5v.36a2,2,0,0,0,.39,1.32,1.43,1.43,0,0,0,1.18.47,5.39,5.39,0,0,0,1.16-.1,5.68,5.68,0,0,0,1-.31.86.86,0,0,1,.74,0,.92.92,0,0,1,.48.6,1.05,1.05,0,0,1,0,.76.93.93,0,0,1-.51.48,6.14,6.14,0,0,1-1.54.48,8.72,8.72,0,0,1-1.42.12,4.49,4.49,0,0,1-1.85-.34,3.36,3.36,0,0,1-1.22-.9,3.46,3.46,0,0,1-.68-1.31,5.81,5.81,0,0,1-.21-1.57v-1.75a5.26,5.26,0,0,1,.24-1.58,3.64,3.64,0,0,1,.72-1.32,3.55,3.55,0,0,1,1.23-.9,4.25,4.25,0,0,1,1.78-.34,4.55,4.55,0,0,1,1.83.33,3.18,3.18,0,0,1,1.21.89,3.67,3.67,0,0,1,.68,1.31,5.56,5.56,0,0,1,.22,1.55v.81A.89.89,0,0,1,370.82,125.05Zm-2.53-3.13a1.31,1.31,0,0,0-1.09-.43,1.39,1.39,0,0,0-1.12.43,1.88,1.88,0,0,0-.37,1.24v.25h2.92v-.25A2,2,0,0,0,368.29,121.93Z"/><path class="cls-4" d="M381.32,129.29a1.57,1.57,0,0,1-.9.25,2,2,0,0,1-.61-.1,1.88,1.88,0,0,1-.58-.31,2.8,2.8,0,0,1-.36-.34,3.54,3.54,0,0,1-1.11.56,4.26,4.26,0,0,1-1.26.2,3.44,3.44,0,0,1-2.75-1,4.48,4.48,0,0,1-.88-3V124a8.89,8.89,0,0,1,.18-1.87,3.8,3.8,0,0,1,.58-1.4,2.66,2.66,0,0,1,1.06-.88,3.79,3.79,0,0,1,1.62-.31,3.69,3.69,0,0,1,1.07.16,3.49,3.49,0,0,1,.92.42l0-3.05a1.2,1.2,0,0,1,.38-.9,1.3,1.3,0,0,1,1.81,0,1.21,1.21,0,0,1,.38.9v9.64a1.25,1.25,0,0,0,.13.68,2,2,0,0,0,.36.38.85.85,0,0,1,.24.3,1,1,0,0,1,.09.45A.89.89,0,0,1,381.32,129.29Zm-3-7a2.54,2.54,0,0,0-.68-.42,1.84,1.84,0,0,0-.72-.16,1.34,1.34,0,0,0-1.17.47,2.31,2.31,0,0,0-.34,1.36v2.2a2,2,0,0,0,.35,1.27,1.44,1.44,0,0,0,1.18.42,2.22,2.22,0,0,0,1.38-.51Z"/><path class="cls-4" d="M394.79,129.09a1.06,1.06,0,0,1-.79.33h-.72a4.27,4.27,0,0,1-1.72-.31,2.81,2.81,0,0,1-1.14-.89,3.74,3.74,0,0,1-.63-1.38,7.55,7.55,0,0,1-.2-1.79v-3.33h-.3a1,1,0,0,1-.74-.31,1,1,0,0,1-.3-.74,1,1,0,0,1,1-1h.3v-1.28a1.29,1.29,0,0,1,1.28-1.28,1.2,1.2,0,0,1,.89.38,1.25,1.25,0,0,1,.37.9v1.28h1.45a1,1,0,0,1,1,1,1,1,0,0,1-.3.74,1,1,0,0,1-.74.31h-1.45V125a3.4,3.4,0,0,0,.3,1.66,1.29,1.29,0,0,0,1.21.51H394a1.09,1.09,0,0,1,1.11,1.11A1.11,1.11,0,0,1,394.79,129.09Z"/><path class="cls-4" d="M404.09,127.08a3.45,3.45,0,0,1-.73,1.27,3.54,3.54,0,0,1-1.26.87,5.32,5.32,0,0,1-3.63,0,3.54,3.54,0,0,1-1.26-.87,3.43,3.43,0,0,1-.73-1.27,5,5,0,0,1-.24-1.55v-2a5,5,0,0,1,.24-1.54,3.42,3.42,0,0,1,.73-1.28,3.54,3.54,0,0,1,1.26-.87,5.32,5.32,0,0,1,3.63,0,3.54,3.54,0,0,1,1.26.87,3.44,3.44,0,0,1,.73,1.28,5.06,5.06,0,0,1,.24,1.54v2A5,5,0,0,1,404.09,127.08Zm-2.31-3.53a2,2,0,0,0-.36-1.29,1.7,1.7,0,0,0-2.29,0,2,2,0,0,0-.37,1.29v2a2,2,0,0,0,.37,1.29,1.7,1.7,0,0,0,2.29,0,2,2,0,0,0,.36-1.29Z"/><path class="cls-4" d="M326.71,147.93a1.06,1.06,0,0,1-.79.33h-.72a4.28,4.28,0,0,1-1.72-.31,2.81,2.81,0,0,1-1.14-.89,3.74,3.74,0,0,1-.63-1.38,7.55,7.55,0,0,1-.2-1.79v-3.33h-.3a1,1,0,0,1-.73-.31,1,1,0,0,1-.3-.74,1,1,0,0,1,1-1h.3v-1.28a1.29,1.29,0,0,1,1.28-1.28,1.2,1.2,0,0,1,.9.38,1.25,1.25,0,0,1,.37.9v1.28h1.45a1,1,0,0,1,1,1,1,1,0,0,1-.3.74,1,1,0,0,1-.73.31h-1.45v3.3a3.4,3.4,0,0,0,.3,1.66,1.29,1.29,0,0,0,1.21.51h.36a1.09,1.09,0,0,1,1.11,1.11A1.1,1.1,0,0,1,326.71,147.93Z"/><path class="cls-4" d="M336,148a1.24,1.24,0,0,1-.91.37,1.25,1.25,0,0,1-1.26-1.26v-4.9a3.29,3.29,0,0,0,0-.56,1.13,1.13,0,0,0-.19-.47,1,1,0,0,0-.4-.32,1.63,1.63,0,0,0-.68-.12,2,2,0,0,0-.92.21,1.92,1.92,0,0,0-.66.57v5.59a1.25,1.25,0,0,1-1.26,1.26,1.24,1.24,0,0,1-.91-.37,1.22,1.22,0,0,1-.37-.9V135.89a1.22,1.22,0,0,1,.37-.9,1.24,1.24,0,0,1,.91-.37,1.25,1.25,0,0,1,1.26,1.26V139a3.32,3.32,0,0,1,1-.46,4.72,4.72,0,0,1,1.28-.16,3.8,3.8,0,0,1,1.5.26,2.48,2.48,0,0,1,1,.73,2.86,2.86,0,0,1,.53,1.12,6.16,6.16,0,0,1,.16,1.45v5.2A1.22,1.22,0,0,1,336,148Z"/><path class="cls-4" d="M346.27,143.89a.82.82,0,0,1-.61.26h-4.5v.36a2,2,0,0,0,.39,1.32,1.43,1.43,0,0,0,1.18.47,5.39,5.39,0,0,0,1.16-.1,5.66,5.66,0,0,0,1-.31.86.86,0,0,1,.74,0,.92.92,0,0,1,.48.6,1.05,1.05,0,0,1,0,.76.93.93,0,0,1-.51.48,6.14,6.14,0,0,1-1.54.48,8.73,8.73,0,0,1-1.42.12,4.49,4.49,0,0,1-1.85-.34,3.37,3.37,0,0,1-1.22-.9,3.47,3.47,0,0,1-.68-1.31,5.81,5.81,0,0,1-.21-1.57V142.5a5.26,5.26,0,0,1,.24-1.58,3.64,3.64,0,0,1,.73-1.32,3.55,3.55,0,0,1,1.23-.9,4.26,4.26,0,0,1,1.78-.34,4.55,4.55,0,0,1,1.83.33,3.18,3.18,0,0,1,1.21.89,3.67,3.67,0,0,1,.68,1.31,5.54,5.54,0,0,1,.22,1.55v.81A.89.89,0,0,1,346.27,143.89Zm-2.53-3.13a1.3,1.3,0,0,0-1.09-.43,1.39,1.39,0,0,0-1.12.43,1.87,1.87,0,0,0-.37,1.24v.25h2.92V142A2,2,0,0,0,343.74,140.76Z"/><path class="cls-4" d="M359.86,147.93a1.06,1.06,0,0,1-.79.33h-.72a4.27,4.27,0,0,1-1.72-.31,2.82,2.82,0,0,1-1.14-.89,3.74,3.74,0,0,1-.63-1.38,7.55,7.55,0,0,1-.2-1.79v-3.33h-.3a1,1,0,0,1-.73-.31,1,1,0,0,1-.3-.74,1,1,0,0,1,1-1h.3v-1.28a1.29,1.29,0,0,1,1.28-1.28,1.2,1.2,0,0,1,.89.38,1.25,1.25,0,0,1,.37.9v1.28h1.45a1,1,0,0,1,1,1,1,1,0,0,1-.3.74,1,1,0,0,1-.74.31H357.2v3.3a3.4,3.4,0,0,0,.3,1.66,1.29,1.29,0,0,0,1.21.51h.36a1.09,1.09,0,0,1,1.11,1.11A1.11,1.11,0,0,1,359.86,147.93Z"/><path class="cls-4" d="M369.44,148.13a1.59,1.59,0,0,1-.93.25,1.78,1.78,0,0,1-.68-.12,2,2,0,0,1-.49-.27,1.64,1.64,0,0,1-.38-.4,2.86,2.86,0,0,1-1.25.63,6,6,0,0,1-1.33.16,3.57,3.57,0,0,1-2.55-.8,2.81,2.81,0,0,1-.84-2.14v-.13a2.55,2.55,0,0,1,1-2.1,4.36,4.36,0,0,1,2.78-.76h1.68v-.36a2.37,2.37,0,0,0-.28-1.27,1.27,1.27,0,0,0-1.15-.44,3.31,3.31,0,0,0-1,.12,4.19,4.19,0,0,0-.71.29,1,1,0,0,1-.86.1,1.13,1.13,0,0,1-.58-.45,1,1,0,0,1-.14-.71,1,1,0,0,1,.49-.68,3.83,3.83,0,0,1,1.42-.55,8.68,8.68,0,0,1,1.57-.15,5.58,5.58,0,0,1,1.73.24,2.7,2.7,0,0,1,1.17.72,3,3,0,0,1,.66,1.25,7,7,0,0,1,.21,1.82v3.15a1.18,1.18,0,0,0,.14.68,2.71,2.71,0,0,0,.35.38,1.24,1.24,0,0,1,.25.31.88.88,0,0,1,.1.44A.9.9,0,0,1,369.44,148.13Zm-3-3.86H365a1.76,1.76,0,0,0-1.18.3,1,1,0,0,0-.33.77v.13a1,1,0,0,0,.34.81,1.67,1.67,0,0,0,1.07.28,1.55,1.55,0,0,0,1.06-.36,1.41,1.41,0,0,0,.41-1.11Z"/><path class="cls-4" d="M378,146.7a3,3,0,0,1-.89,1,3.71,3.71,0,0,1-1.27.55,6.46,6.46,0,0,1-1.48.17,9.21,9.21,0,0,1-1.61-.11,7.7,7.7,0,0,1-1.1-.28.93.93,0,0,1-.57-.56,1.22,1.22,0,0,1,0-.8,1,1,0,0,1,.57-.65,1,1,0,0,1,.81,0,8.09,8.09,0,0,0,.84.25,5.09,5.09,0,0,0,1.16.1,2.16,2.16,0,0,0,1.12-.25.76.76,0,0,0,.41-.68.69.69,0,0,0-.24-.56,1.71,1.71,0,0,0-.6-.31,6.13,6.13,0,0,0-.85-.19,8.24,8.24,0,0,1-1-.21,6.4,6.4,0,0,1-.84-.28,2.19,2.19,0,0,1-.72-.48,2.28,2.28,0,0,1-.5-.78,3.15,3.15,0,0,1-.19-1.17,2.91,2.91,0,0,1,.28-1.32,2.77,2.77,0,0,1,.77-1,3.46,3.46,0,0,1,1.12-.58,4.48,4.48,0,0,1,1.35-.2,8.23,8.23,0,0,1,1.5.11,8.09,8.09,0,0,1,1.14.3,1.08,1.08,0,0,1,.63.54,1,1,0,0,1,0,.8,1,1,0,0,1-.51.62,1,1,0,0,1-.81.08,8,8,0,0,0-1-.27,4.37,4.37,0,0,0-.9-.08,1.6,1.6,0,0,0-1,.24.71.71,0,0,0-.3.57.65.65,0,0,0,.19.5,1.41,1.41,0,0,0,.51.29,4.78,4.78,0,0,0,.74.19l.88.17a8.45,8.45,0,0,1,.93.28,2.63,2.63,0,0,1,.83.49,2.37,2.37,0,0,1,.59.82,3.08,3.08,0,0,1,.23,1.27A2.81,2.81,0,0,1,378,146.7Z"/><path class="cls-4" d="M388.32,147.37a1.15,1.15,0,0,1-.25.54,1.26,1.26,0,0,1-.46.35,1.34,1.34,0,0,1-.56.12,1.2,1.2,0,0,1-.62-.18,1.17,1.17,0,0,1-.47-.59q-.41-1-.9-1.88t-1-1.77L382.88,145v2.07a1.25,1.25,0,0,1-1.26,1.26,1.24,1.24,0,0,1-.91-.37,1.22,1.22,0,0,1-.37-.9V135.89a1.22,1.22,0,0,1,.37-.9,1.24,1.24,0,0,1,.91-.37,1.25,1.25,0,0,1,1.26,1.26V142l3.43-3.37a1.11,1.11,0,0,1,.81-.31,1.14,1.14,0,0,1,1.11,1.14,1,1,0,0,1-.34.79l-2.09,2q.68,1,1.31,2.12a19.85,19.85,0,0,1,1.12,2.29A1.17,1.17,0,0,1,388.32,147.37Z"/><path id="_Compound_Path_" data-name="&lt;Compound Path&gt;" class="cls-5" d="M359.15,379.9v-3.47a2.6,2.6,0,0,0-2.6-2.6h-7a22.36,22.36,0,0,0-3.4-8.21l5-5a2.6,2.6,0,0,0,0-3.68l-2.45-2.45a2.6,2.6,0,0,0-3.68,0l-5,5a22.36,22.36,0,0,0-8.21-3.4v-7a2.6,2.6,0,0,0-2.6-2.6h-3.47a2.6,2.6,0,0,0-2.6,2.6v7a22.36,22.36,0,0,0-8.21,3.4l-5-5a2.6,2.6,0,0,0-3.68,0L303.82,357a2.6,2.6,0,0,0,0,3.68l5,5a22.36,22.36,0,0,0-3.4,8.21h-7a2.6,2.6,0,0,0-2.6,2.6v3.47a2.6,2.6,0,0,0,2.6,2.6h7a22.36,22.36,0,0,0,3.4,8.21l-5,5a2.6,2.6,0,0,0,0,3.68l2.45,2.45a2.6,2.6,0,0,0,3.68,0l5-5a22.36,22.36,0,0,0,8.21,3.4v7a2.6,2.6,0,0,0,2.6,2.6h3.47a2.6,2.6,0,0,0,2.6-2.6v-7a22.36,22.36,0,0,0,8.21-3.4l5,5a2.6,2.6,0,0,0,3.68,0l2.45-2.45a2.6,2.6,0,0,0,0-3.68l-5-5a22.36,22.36,0,0,0,3.4-8.21h7A2.6,2.6,0,0,0,359.15,379.9Zm-31.69,7.34a9.07,9.07,0,1,1,9.07-9.07A9.07,9.07,0,0,1,327.46,387.24Z"/><path class="cls-11" d="M327.46,365.6A12.56,12.56,0,1,0,340,378.17,12.56,12.56,0,0,0,327.46,365.6Zm0,18.59a6,6,0,1,1,6-6A6,6,0,0,1,327.46,384.2Z"/><path id="_Compound_Path_2" data-name="&lt;Compound Path&gt;" class="cls-4" d="M412.9,371.23v-3.47a2.6,2.6,0,0,0-2.6-2.6h-7a22.36,22.36,0,0,0-3.4-8.21l5-5a2.6,2.6,0,0,0,0-3.68l-2.45-2.45a2.6,2.6,0,0,0-3.68,0l-5,5a22.36,22.36,0,0,0-8.21-3.4v-7a2.6,2.6,0,0,0-2.6-2.6h-3.47a2.6,2.6,0,0,0-2.6,2.6v7a22.36,22.36,0,0,0-8.21,3.4l-5-5a2.6,2.6,0,0,0-3.68,0l-2.45,2.45a2.6,2.6,0,0,0,0,3.68l5,5a22.36,22.36,0,0,0-3.4,8.21h-7a2.6,2.6,0,0,0-2.6,2.6v3.47a2.6,2.6,0,0,0,2.6,2.6h7a22.36,22.36,0,0,0,3.4,8.21l-5,5a2.6,2.6,0,0,0,0,3.68l2.45,2.45a2.6,2.6,0,0,0,3.68,0l5-5a22.36,22.36,0,0,0,8.21,3.4v7a2.6,2.6,0,0,0,2.6,2.6h3.47a2.6,2.6,0,0,0,2.6-2.6v-7a22.36,22.36,0,0,0,8.21-3.4l5,5a2.6,2.6,0,0,0,3.68,0l2.45-2.45a2.6,2.6,0,0,0,0-3.68l-5-5a22.36,22.36,0,0,0,3.4-8.21h7A2.6,2.6,0,0,0,412.9,371.23Zm-31.69,7.34a9.07,9.07,0,1,1,9.07-9.07A9.07,9.07,0,0,1,381.21,378.57Z"/><path class="cls-12" d="M381.21,356.94a12.56,12.56,0,1,0,12.56,12.56A12.56,12.56,0,0,0,381.21,356.94Zm0,18.59a6,6,0,1,1,6-6A6,6,0,0,1,381.21,375.53Z"/><polygon class="cls-13" points="321.96 67.76 294.92 101.69 349 101.69 321.96 67.76"/><polygon class="cls-11" points="354.33 47.35 311.03 101.69 397.63 101.69 354.33 47.35"/><polygon class="cls-5" points="386.71 67.76 359.67 101.69 413.75 101.69 386.71 67.76"/><g class="cls-14"><polygon class="cls-15" points="354.33 45.19 333.04 61.35 343.66 71.97 347.91 67.72 354.33 74.15 360.75 67.72 365 71.97 375.62 61.35 354.33 45.19"/></g><line class="cls-16" x1="354.33" y1="28.85" x2="354.33" y2="54.98"/><polygon class="cls-4" points="373.85 40.1 354.33 40.1 354.33 28.85 373.85 28.85 371.96 34.48 373.85 40.1"/><polygon class="cls-4" points="354.33 40.1 373.85 40.1 371.96 34.48 354.33 34.48 354.33 40.1"/></svg>