<svg id="Layer_1" data-name="Layer 1" xmlns="http://www.w3.org/2000/svg" viewBox="0 0 708.66 481.89"><defs><style>.cls-1{opacity:0.61;}.cls-2{fill:#6b6a6a;}.cls-3{fill:#f5f5f5;}.cls-4{fill:#ffe4cc;}.cls-5{fill:#edd3be;}.cls-6{fill:#515180;}.cls-7{fill:#e7685d;}.cls-8{opacity:0.56;}.cls-9{fill:#91b985;}.cls-10{fill:#095a70;}.cls-11{fill:#754d24;}.cls-12,.cls-13{fill:#f8ab8d;}.cls-13,.cls-14{fill-rule:evenodd;}.cls-14,.cls-18{fill:#dc846a;}.cls-15,.cls-19,.cls-26,.cls-27{fill:none;}.cls-15,.cls-19{stroke:#0e333e;}.cls-15,.cls-19,.cls-26{stroke-linecap:round;stroke-linejoin:round;}.cls-15,.cls-26{stroke-width:3.76px;}.cls-16{fill:#8b6339;}.cls-17{fill:#0e333e;}.cls-19{stroke-width:6.27px;}.cls-20{fill:#648ec9;}.cls-21{fill:#efefef;}.cls-22{fill:#ffdc83;}.cls-23{fill:#070707;opacity:0.07;}.cls-24{fill:#fff;}.cls-25{font-size:25px;fill:#859596;font-family:Impact, Impact;}.cls-26{stroke:#dc846a;}.cls-28{fill:#ee4256;}.cls-29{fill:#4c836a;}.cls-30{fill:#b26677;}.cls-31{fill:#3d233e;}</style></defs><title>CS-L2-U9</title><g class="cls-1"><rect class="cls-2" x="85.24" y="57.31" width="224.41" height="166.22"/><rect class="cls-3" x="97.45" y="68.29" width="199.58" height="144.26"/><rect class="cls-4" x="136.13" y="97.05" width="122.43" height="86.35"/><polyline class="cls-5" points="136.13 183.4 160.41 114.79 187.74 183.4 219.42 101.42 258.56 183.4"/></g><path class="cls-6" d="M479.31,368.83h-247l4.74-118.67a84.82,84.82,0,0,1,84.76-81.43h67.41a84.82,84.82,0,0,1,84.74,81Z"/><path class="cls-7" d="M402.66,229.76H308.08c-25.55,0-46.45,21.84-46.45,48.54v85.87a273.47,273.47,0,0,0,186.67-.49V277.44C448.29,251.1,427.86,229.76,402.66,229.76Z"/><g class="cls-8"><path class="cls-9" d="M521.07,185.94c8.79,1.34,15.39,8.4,17.93,11.53,11.13,5.59,20,18,25.58,35.88A136,136,0,0,1,570,263.84a187.57,187.57,0,0,0,2-53.17c-2.88-2-11.1-8.43-13-17.68-2.34-11.25,5.56-22.41,5.56-22.41s11.68,7.09,14,18.34c1.77,8.54-2.35,17-4.43,20.62q.55,5.33.82,10.6a24.68,24.68,0,0,1,4.57-10.33c7.12-9,20.74-10.15,20.74-10.15s2.08,13.51-5,22.53c-6.14,7.78-17.11,9.68-20,10.06-.11,14.27-4.82,42.16-4.82,43.17a140.74,140.74,0,0,1,14.06-34c8.09-13.66,17.63-22.92,27.72-27.15,1.17-3.76,4.69-12.92,12.47-17.46,9.93-5.79,23-1.85,23-1.85s-3,13.33-12.94,19.13c-8,4.65-18,3-21.6,2.21-11.84,4.94-22.64,17.11-31,34,3.22-3.44,9.14-8.55,16.57-9.58,11.38-1.59,22,7,22,7s-7.85,11.19-19.24,12.77c-9.46,1.32-18.39-4.42-21.13-6.39a160.75,160.75,0,0,0-10.24,31.63c-1.69.27-4.27.38-6.49.47a120.57,120.57,0,0,0,4.47-14.11,152.84,152.84,0,0,0-3-27.25c-2,.7-13.41,4.28-22.77-.33-10.31-5.08-14.26-18.16-14.26-18.16s12.78-4.86,23.09.22c7.68,3.78,11.82,12,13.44,15.95-4.63-20.51-13.65-36-25.89-42.65-3.18,2.15-11.77,7.19-20.78,5.81-11.36-1.73-19.07-13-19.07-13S509.71,184.21,521.07,185.94Z"/><path class="cls-9" d="M585.51,187.17c-8.81,1.2-15.52,8.15-18.11,11.23-11.22,5.41-20.33,17.65-26.16,35.46a136,136,0,0,0-5.95,30.39,187.53,187.53,0,0,1-1.17-53.2c2.91-2,11.24-8.25,13.31-17.46,2.52-11.21-5.19-22.5-5.19-22.5s-11.8,6.89-14.32,18.11C526,197.72,530,206.27,532,209.89q-.63,5.32-1,10.59a24.68,24.68,0,0,0-4.4-10.4c-7-9.14-20.57-10.48-20.57-10.48s-2.3,13.47,4.67,22.61c6,7.88,16.95,10,19.84,10.39-.13,14.28,4.13,42.23,4.11,43.24a140.61,140.61,0,0,0-13.5-34.23c-7.87-13.8-17.25-23.2-27.27-27.61-1.1-3.78-4.48-13-12.18-17.66-9.83-6-23-2.23-23-2.23s2.79,13.38,12.62,19.34c7.88,4.78,17.9,3.33,21.56,2.56,11.75,5.14,22.36,17.48,30.39,34.52-3.16-3.49-9-8.7-16.41-9.86-11.36-1.77-22.1,6.68-22.1,6.68s7.67,11.31,19,13.08c9.44,1.47,18.46-4.11,21.23-6a160.67,160.67,0,0,1,9.72,31.79c1.69.29,4.26.45,6.49.57A120.64,120.64,0,0,1,537,272.57a152.7,152.7,0,0,1,3.4-27.2c2,.73,13.34,4.5,22.77,0,10.39-4.91,14.55-17.92,14.55-17.92s-12.69-5.07-23.09-.16c-7.74,3.65-12,11.8-13.7,15.72,5-20.43,14.24-35.78,26.59-42.22,3.15,2.21,11.66,7.38,20.68,6.15,11.39-1.54,19.28-12.71,19.28-12.71S596.91,185.63,585.51,187.17Z"/><polygon class="cls-10" points="601.26 274.59 592.46 360.54 512.8 360.54 504.05 273.57 601.26 274.59"/></g><path class="cls-11" d="M291.46,221.13A17.4,17.4,0,0,1,280.68,201c5.07-22.2,15.47-68.79,16.75-82.58a54.64,54.64,0,0,1,7.4-23.06C312.28,82.9,327,68.26,355.18,68.7c22.82.35,37.17,10,46,20.06a54.33,54.33,0,0,1,13.07,32.82c.89,16.32,13.49,57.23,20.3,78.32a17.37,17.37,0,0,1-11,21.85C391.69,232.26,323.14,233.11,291.46,221.13Z"/><path id="_Path_" data-name="&lt;Path&gt;" class="cls-12" d="M357.81,181.16h.5c-8,0-14,6.51-14,14.53v31.07c0,8,6,10.52,14,10.52h-.25c8,0,14.28-2.5,14.28-10.52V195.7A14.53,14.53,0,0,0,357.81,181.16Z"/><g id="_Group_" data-name="&lt;Group&gt;"><path id="_Path_2" data-name="&lt;Path&gt;" class="cls-13" d="M397.55,147.38s1.3-3,5.91-6.18c9.17-6.36,19.85-1.21,15.77,9.68-2.84,7.6-7.69,26.4-13.62,19.63C401.07,165.33,397.79,157.4,397.55,147.38Z"/><polygon id="_Path_3" data-name="&lt;Path&gt;" class="cls-14" points="404.61 148.48 416.65 146.46 407.58 162.97 410.63 149.36 404.61 148.48"/></g><path class="cls-15" d="M368.86,202.74c28.91,0,52.34-19.49,52.34-34"/><path class="cls-13" d="M297.18,135.7c0,24.45,21,67.68,61.13,67.68,44.86,0,57.73-45.38,57.73-69.82s-11.59-64.13-57.92-64.13C313.49,69.42,297.18,111.25,297.18,135.7Z"/><g id="_Group_2" data-name="&lt;Group&gt;"><line id="_Path_4" data-name="&lt;Path&gt;" class="cls-16" x1="337.01" y1="136.4" x2="351.07" y2="135.69"/><path id="_Path_5" data-name="&lt;Path&gt;" class="cls-16" d="M336.68,138.73a2.35,2.35,0,0,1,.21-4.67l14.06-.71a2.35,2.35,0,1,1,.24,4.69l-14.06.71A2.38,2.38,0,0,1,336.68,138.73Z"/></g><ellipse class="cls-17" cx="356.43" cy="202.29" rx="14.74" ry="7.71"/><g id="_Group_3" data-name="&lt;Group&gt;"><line id="_Path_6" data-name="&lt;Path&gt;" class="cls-16" x1="372.84" y1="136.05" x2="386.9" y2="136.76"/><path id="_Path_7" data-name="&lt;Path&gt;" class="cls-16" d="M372.51,133.72a2.35,2.35,0,0,0,.21,4.67l14.06.71a2.35,2.35,0,1,0,.24-4.69L373,133.7A2.38,2.38,0,0,0,372.51,133.72Z"/></g><circle id="_Path_8" data-name="&lt;Path&gt;" cx="374.76" cy="153.96" r="3.17"/><circle id="_Path_9" data-name="&lt;Path&gt;" cx="340.87" cy="153.96" r="3.17"/><polygon id="_Path_10" data-name="&lt;Path&gt;" class="cls-14" points="359.83 141.35 364.63 171.03 359.81 167.53 359.83 141.35"/><polygon class="cls-18" points="354.99 171.03 364.63 171.03 359.81 166.71 354.99 171.03"/><path class="cls-11" d="M418.61,122A53.09,53.09,0,0,0,405,89.22a58.9,58.9,0,0,0-22.26-15.29l0,0a73.08,73.08,0,0,0-25.34-4.61C328,68.91,312.56,83.55,304.79,96A53,53,0,0,0,297.07,119c-.51,5.22-2.38,15.15-4.8,26.68,16.45,4,35.56-4.58,41-6.31C354,132.75,370.38,123.88,378.8,111c5.66,16.52,19,31.2,32.12,31.2a21.79,21.79,0,0,0,10.66-2.83A111.22,111.22,0,0,1,418.61,122Z"/><path id="_Path_11" data-name="&lt;Path&gt;" class="cls-18" d="M437.56,190.82s-10.91-23.2-17.09-32.3c8.46-11.85,24.28,2.38,24.28,2.38Z"/><path class="cls-19" d="M419,134.64c0-30.25-28.07-54.77-62.71-54.77s-62.71,24.43-62.71,60.55"/><g id="_Group_4" data-name="&lt;Group&gt;"><path id="_Path_12" data-name="&lt;Path&gt;" class="cls-13" d="M305.87,147.38a16.91,16.91,0,0,0-3.72-6.18c-5.77-6.36-12.5-1.21-9.94,9.68,1.79,7.6,11.13,24.62,14.87,17.85C309.94,163.54,305.72,157.4,305.87,147.38Z"/><polygon id="_Path_13" data-name="&lt;Path&gt;" class="cls-14" points="301.42 148.48 293.84 146.46 299.56 162.97 297.63 149.36 301.42 148.48"/></g><path class="cls-17" d="M412.21,126.55H419a11.18,11.18,0,0,1,11.18,11.18v27.21A11.18,11.18,0,0,1,419,176.13h-6.81a0,0,0,0,1,0,0V126.55A0,0,0,0,1,412.21,126.55Z" transform="translate(26.7 -60.04) rotate(8.42)"/><polygon id="_Path_14" data-name="&lt;Path&gt;" class="cls-4" points="402.25 229.59 411.17 248.98 397.73 264.9 406.44 277.46 351.88 376.13 308.49 277.19 315.14 264.26 307.08 248.98 316.21 229.59 402.25 229.59"/><polygon id="_Path_15" data-name="&lt;Path&gt;" class="cls-20" points="322.85 229.59 353.28 343.42 391 229.59 322.85 229.59"/><polygon id="_Path_16" data-name="&lt;Path&gt;" class="cls-21" points="391 229.59 372.33 218.54 356.33 233.7 371.07 259.01 391 229.59"/><polygon id="_Path_17" data-name="&lt;Path&gt;" class="cls-21" points="322.85 229.59 344.47 218.54 356.33 233.7 339.91 259.01 322.85 229.59"/><rect class="cls-22" x="49.63" y="349.05" width="612.67" height="66.42" rx="27.08" ry="27.08"/><path id="_Path_18" data-name="&lt;Path&gt;" class="cls-18" d="M279.79,349.61s24.6-7.2,34.55-11.91c10.4,10.18-6.09,23.62-6.09,23.62Z"/><path id="_Path_19" data-name="&lt;Path&gt;" class="cls-12" d="M470.86,195.08l-.69-38.13s-15.27-25.38-24.4-31.84c-10.63-7.51-26.94-8-30-7.85-8.07.34,16.55,36.55,16.55,36.55l2.36,37.89Z"/><rect class="cls-23" x="309.65" y="265.56" width="97.64" height="127.95"/><rect class="cls-24" x="309.65" y="267.56" width="94.96" height="127.95"/><text class="cls-25" transform="translate(320.74 305.11)">SCRIPT</text><rect class="cls-7" x="212.98" y="284.87" width="38.67" height="100.32" rx="19.33" ry="19.33" transform="translate(-170.17 399.99) rotate(-64.43)"/><rect class="cls-7" x="228.25" y="214.72" width="38.04" height="143.56" rx="19.02" ry="19.02" transform="translate(323.14 -84.27) rotate(52.36)"/><rect class="cls-7" x="459.5" y="210.44" width="38.67" height="149.23" rx="19.33" ry="19.33" transform="translate(-7.45 557.21) rotate(-60)"/><rect class="cls-7" x="474.86" y="165.22" width="38.04" height="173.42" rx="19.02" ry="19.02" transform="translate(1048.19 240.54) rotate(151.8)"/><path id="_Path_20" data-name="&lt;Path&gt;" class="cls-23" d="M271.7,376.83,309,384.57s28.12-9.29,36.44-16.78c9.67-8.71,13.73-24.52,14.27-27.49,1.45-7.95-39.3,8.08-39.3,8.08l-37.47-6Z"/><path id="_Path_21" data-name="&lt;Path&gt;" class="cls-12" d="M267.92,375.12,304.47,386s28.82-6.85,37.74-13.6c10.38-7.85,15.77-23.26,16.57-26.18,2.13-7.8-39.84,4.7-39.84,4.7l-36.82-9.23Z"/><rect class="cls-4" x="259.57" y="333.09" width="28.3" height="51.73" transform="translate(145.27 -73.79) rotate(20.79)"/><rect class="cls-4" x="445.38" y="162.01" width="28.3" height="51.73" transform="translate(511.13 681.65) rotate(-118.2)"/><path class="cls-26" d="M346.06,185.73c7.36-6.93,19.94,3.93,27.28,0"/><path class="cls-20" d="M203.69,330.15c-5.53-.25-68.94.26-73.73.54a47,47,0,0,0-.91,5.41,9.6,9.6,0,0,0-8.27-3.73,10.7,10.7,0,0,0-8.7,6.51c-2,4.54-.07,10.49,2.28,13.62,4.3,5.71,15.11,15.4,18.69,18a4.94,4.94,0,0,0,6.18,0,55.31,55.31,0,0,0,9.33,9.88l37.23-.29S211,360.2,203.69,330.15Zm-76.36,26.77c-6.31-6.19-9.36-9.46-8.75-13.36a3.85,3.85,0,0,1,5.26-3.22c1.83.67,3.91,3.13,5.13,4.77a47.08,47.08,0,0,0,4.5,16A22.59,22.59,0,0,1,127.33,356.93Z"/><path class="cls-27" d="M591.51,311.28c-1.92-15-8.37-65.3-8.37-65.3s6.44,50.3,8.37,65.3Z"/><path class="cls-28" d="M593.5,311.2c-2-15.53-8.43-65.47-8.43-65.47l-1.94.25s6.46,50.29,8.37,65.3Z"/><path class="cls-28" d="M581.2,246.23l-1.94.25s6.64,51.85,8.32,64.94l2-.07C587.72,297.16,581.2,246.23,581.2,246.23Z"/><path class="cls-28" d="M591.5,311.28c-1.93-15-8.37-65.3-8.37-65.3l-1.94.25s6.65,51.6,8.37,65.12Z"/><path class="cls-29" d="M650.76,252.15l-4.18-1.66S628.57,296,623,310h4.8C631.8,300,650.76,252.15,650.76,252.15Z"/><path class="cls-20" d="M597.44,259.5l-4.47.4s3.32,37,4.55,50.8l4.42-.39Z"/><path class="cls-6" d="M622.54,248.7l-4.42-.79-11.2,62.34h4.57Z"/><rect class="cls-20" x="617.49" y="243.6" width="6.54" height="4.49" transform="translate(269.76 813.81) rotate(-79.89)"/><rect class="cls-6" x="620.05" y="245.72" width="0.68" height="4.5" transform="translate(267.29 815.15) rotate(-79.88)"/><path class="cls-28" d="M644.06,237c.1-.32.24-9.56.24-9.56s-5.52,7.43-5.63,7.74c0,0,0,0,0,0S619.49,292,613.43,310h6C625.15,293.09,644.06,237,644.06,237Z"/><path class="cls-30" d="M644.06,237c.08-.23.21-7.7.21-7.7l-1.08-.37s-4.45,6-4.52,6.25c0,0,0,0,0,0Z"/><rect class="cls-31" x="584.93" y="308.69" width="43.88" height="79.66"/></svg>