<svg id="Layer_1" data-name="Layer 1" xmlns="http://www.w3.org/2000/svg" viewBox="0 0 708.66 630.34"><defs><style>.cls-1{fill:#ffdc83;}.cls-15,.cls-2{fill:#f8ab8d;}.cls-27,.cls-3,.cls-45,.cls-49{fill:#e7685d;}.cls-4{fill:#b97d4f;}.cls-5{fill:#8b6339;}.cls-6{fill:#c0e4ed;}.cls-12,.cls-19,.cls-22,.cls-23,.cls-26,.cls-28,.cls-29,.cls-35,.cls-37,.cls-41,.cls-43,.cls-46,.cls-47,.cls-50,.cls-51,.cls-7{fill:none;}.cls-7{stroke:#39b54a;stroke-width:0.57px;}.cls-25,.cls-26,.cls-28,.cls-29,.cls-37,.cls-47,.cls-48,.cls-7{stroke-miterlimit:10;}.cls-8{fill:#4c836a;}.cls-18,.cls-9{fill:#dc846a;}.cls-10{fill:#fec82b;}.cls-11{fill:#58595b;}.cls-12{stroke:#414042;stroke-width:0.34px;}.cls-12,.cls-19,.cls-22,.cls-23,.cls-25,.cls-26,.cls-28,.cls-29,.cls-35,.cls-41,.cls-43,.cls-46,.cls-48,.cls-50,.cls-51{stroke-linecap:round;}.cls-12,.cls-19,.cls-22,.cls-23,.cls-35,.cls-41,.cls-43,.cls-46,.cls-50,.cls-51{stroke-linejoin:round;}.cls-13{fill:#414042;}.cls-14,.cls-25,.cls-48{fill:#fff;}.cls-15,.cls-18,.cls-23{fill-rule:evenodd;}.cls-16{fill:#979797;}.cls-17{fill:gray;}.cls-19,.cls-35,.cls-41,.cls-43,.cls-46,.cls-50,.cls-51{stroke:#dc846a;}.cls-19{stroke-width:0.35px;}.cls-20{fill:#dd4439;}.cls-21{fill:#0d5b70;}.cls-22,.cls-23{stroke:#ffdc83;stroke-width:0.69px;}.cls-24{fill:#b18a64;}.cls-25,.cls-26,.cls-28,.cls-29,.cls-48{stroke:#fec82b;}.cls-25,.cls-26,.cls-28,.cls-29{stroke-width:3.44px;}.cls-26{stroke-dasharray:5.73;}.cls-27{font-size:10.78px;}.cls-27,.cls-45,.cls-49{font-family:Chevin-Bold, Chevin;font-weight:700;}.cls-29{stroke-dasharray:5.78 5.78;}.cls-30{fill:#648ec9;}.cls-31{fill:#3f5aa8;}.cls-32{fill:#54402b;}.cls-33{fill:#6c4e38;}.cls-34{fill:#ee4256;}.cls-35{stroke-width:0.51px;}.cls-36{fill:#6d6e71;}.cls-37,.cls-47{stroke:#dd4439;}.cls-37{stroke-width:0.42px;}.cls-38{fill:#d1d8b8;}.cls-39{fill:#d6742b;}.cls-40{fill:#bc5f20;}.cls-41{stroke-width:0.35px;}.cls-42{fill:#bcbec0;}.cls-43{stroke-width:0.51px;}.cls-44{fill:#754d24;}.cls-45{font-size:9px;}.cls-46{stroke-width:0.47px;}.cls-47{stroke-width:0.38px;}.cls-48{stroke-width:3.12px;}.cls-49{font-size:8.16px;}.cls-50{stroke-width:0.32px;}.cls-51{stroke-width:0.46px;}</style></defs><title>Diagram_01</title><rect class="cls-1" x="306.23" y="123.37" width="16.83" height="440.2" rx="8.41" ry="8.41" transform="translate(658.11 28.83) rotate(90)"/><rect class="cls-1" x="306.23" y="201.27" width="16.83" height="440.2" rx="8.41" ry="8.41" transform="translate(736.01 106.72) rotate(90)"/><rect class="cls-1" x="306.23" y="279.16" width="16.83" height="440.2" rx="8.41" ry="8.41" transform="translate(813.9 184.61) rotate(90)"/><rect class="cls-1" x="306.23" y="357.05" width="16.83" height="440.2" rx="8.41" ry="8.41" transform="translate(891.79 262.5) rotate(90)"/><rect class="cls-2" x="640.55" y="259.44" width="16.83" height="340.28" rx="8.41" ry="8.41"/><rect class="cls-1" x="404.84" y="259.44" width="16.83" height="340.28" rx="8.41" ry="8.41"/><rect class="cls-1" x="522.7" y="259.44" width="16.83" height="340.28" rx="8.41" ry="8.41"/><rect class="cls-1" x="169.14" y="259.44" width="16.83" height="340.28" rx="8.41" ry="8.41"/><rect class="cls-1" x="286.99" y="259.44" width="16.83" height="340.28" rx="8.41" ry="8.41"/><rect class="cls-3" x="337.86" y="68.98" width="32.94" height="39.41" rx="9.18" ry="9.18"/><rect class="cls-4" x="304.9" y="90.99" width="98.85" height="7.92"/><rect class="cls-5" x="329.19" y="97.99" width="50.88" height="35.79"/><path class="cls-6" d="M325.81,60.81V60a10,10,0,0,0-10,10V82.65h3.9V70A10,10,0,0,1,325.81,60.81Z"/><line class="cls-7" x1="314.21" y1="47" x2="314.21" y2="76.65"/><path class="cls-8" d="M315.47,58.26A5,5,0,0,0,314,62.32a5,5,0,0,0,5.49-5.49A5,5,0,0,0,315.47,58.26Z"/><path class="cls-8" d="M315.47,64.06A5,5,0,0,0,314,68.13a5,5,0,0,0,5.49-5.49A5,5,0,0,0,315.47,64.06Z"/><path class="cls-8" d="M315.47,69.87A5,5,0,0,0,314,73.93a5,5,0,0,0,5.49-5.49A5,5,0,0,0,315.47,69.87Z"/><path class="cls-8" d="M310.32,63.84a5,5,0,0,1-1.43-4.07,5,5,0,0,1,5.49,5.49A5,5,0,0,1,310.32,63.84Z"/><path class="cls-8" d="M310.32,58A5,5,0,0,1,308.89,54a5,5,0,0,1,5.49,5.49A5,5,0,0,1,310.32,58Z"/><path class="cls-8" d="M310.32,69.64a5,5,0,0,1-1.43-4.07,5,5,0,0,1,5.49,5.49A5,5,0,0,1,310.32,69.64Z"/><path id="_Path_" data-name="&lt;Path&gt;" class="cls-9" d="M347.28,56.26a36.18,36.18,0,0,0-4.08,0c-.71-1.57,1.53-2.44,1.53-2.44Z"/><path class="cls-10" d="M342.45,55.4l-6.52,1.32a3.72,3.72,0,0,0-2.79,2.47l-6.25-.37-.75,2.63,3,1.54,2.9,1.51a4.53,4.53,0,0,1,2.35,3.12h0a3.72,3.72,0,0,0,4.38,2.91l6.52-1.32a3.72,3.72,0,0,0,2.91-4.38l-1.32-6.52A3.72,3.72,0,0,0,342.45,55.4Z"/><path class="cls-10" d="M338.52,52.41a5.55,5.55,0,1,0,6.54,4.34A5.55,5.55,0,0,0,338.52,52.41Zm1.89,9.36a4,4,0,1,1,3.13-4.72A4,4,0,0,1,340.41,61.78Z"/><rect id="_Rectangle_" data-name="&lt;Rectangle&gt;" class="cls-11" x="361.62" y="51.09" width="4.98" height="20.73" rx="2.49" ry="2.49" transform="translate(703.7 206.46) rotate(-166.46)"/><path id="_Path_2" data-name="&lt;Path&gt;" class="cls-11" d="M348.23,58.36l3.58-3.45L364,67.68a2.49,2.49,0,0,1-.06,3.52h0a2.49,2.49,0,0,1-3.52-.06Z"/><path id="_Path_3" data-name="&lt;Path&gt;" class="cls-2" d="M349.81,52.77,346,50.67s-3.3.17-4.42.78a6.76,6.76,0,0,0-2.37,2.73c-.4.88,4.47.32,4.47.32l3.84,1.91Z"/><rect id="_Rectangle_2" data-name="&lt;Rectangle&gt;" class="cls-3" x="345.51" y="53.79" width="6.65" height="3.51" transform="translate(632.06 -155.55) rotate(134.26)"/><line id="_Path_4" data-name="&lt;Path&gt;" class="cls-12" x1="366.8" y1="39.63" x2="369.17" y2="38.96"/><path id="_Path_5" data-name="&lt;Path&gt;" class="cls-9" d="M386,78.57a36.18,36.18,0,0,1-2.75,3c.67,1.59,2.83.53,2.83.53Z"/><path id="_Rectangle_3" data-name="&lt;Rectangle&gt;" class="cls-13" d="M368.67,51h11.82a5,5,0,0,1,5,5V90.23a0,0,0,0,1,0,0H363.41a0,0,0,0,1,0,0v-34A5.26,5.26,0,0,1,368.67,51Z" transform="translate(1.35 -6.83) rotate(1.05)"/><polygon id="_Path_6" data-name="&lt;Path&gt;" class="cls-11" points="379.44 51.06 380.07 53.27 378.22 55.05 378.96 56.48 370.8 67.52 367.86 56.25 368.88 54.8 368.27 53.06 369.69 50.88 379.44 51.06"/><polygon id="_Path_7" data-name="&lt;Path&gt;" class="cls-3" points="370.44 50.9 371.61 63.83 378.17 51.04 370.44 50.9"/><polygon id="_Path_8" data-name="&lt;Path&gt;" class="cls-14" points="373.55 54.27 373.73 59.7 371.61 63.83 371.19 59.21 372.89 54.09 373.55 54.27"/><ellipse id="_Path_9" data-name="&lt;Path&gt;" class="cls-11" cx="372.2" cy="73.6" rx="1.27" ry="1.03" transform="translate(291.82 444.4) rotate(-88.95)"/><ellipse id="_Path_10" data-name="&lt;Path&gt;" class="cls-11" cx="372.08" cy="80.55" rx="1.27" ry="1.03" transform="translate(284.75 451.09) rotate(-88.95)"/><rect id="_Rectangle_4" data-name="&lt;Rectangle&gt;" class="cls-11" x="376.09" y="77.9" width="4.91" height="1.82" transform="translate(755.6 164.52) rotate(-178.95)"/><rect id="_Rectangle_5" data-name="&lt;Rectangle&gt;" class="cls-2" x="388.75" y="66.39" width="4" height="15.33" rx="1.25" ry="1.25" transform="translate(697.84 326.77) rotate(-151.28)"/><path id="_Path_11" data-name="&lt;Path&gt;" class="cls-2" d="M390.41,79.21l-1,4.19s-2.37,2.31-3.57,2.72A6.76,6.76,0,0,1,382.2,86c-.91-.3,2.79-3.5,2.79-3.5l1.2-4.11Z"/><rect id="_Rectangle_6" data-name="&lt;Rectangle&gt;" class="cls-11" x="387.54" y="47.27" width="4.98" height="20.73" rx="2.49" ry="2.49" transform="translate(615.68 -265.68) rotate(116.51)"/><path id="_Path_12" data-name="&lt;Path&gt;" class="cls-11" d="M387.14,75.8l4.44,2.25,7.87-15.77a2.49,2.49,0,0,0-1.09-3.34h0A2.49,2.49,0,0,0,395,60Z"/><rect id="_Rectangle_7" data-name="&lt;Rectangle&gt;" class="cls-3" x="385.15" y="76.32" width="6.65" height="3.51" transform="translate(691.64 333.22) rotate(-151.28)"/><path id="_Path_13" data-name="&lt;Path&gt;" class="cls-15" d="M372.67,48.87c4.74.34,7.32-3.12,8.18-7.45.9-4.57-2.1-8.42-5.82-8.5-4.23-.09-6.73,1.51-7.16,6.15-.27,2.91.5,8.77,4.8,9.8Z"/><path id="_Path_14" data-name="&lt;Path&gt;" class="cls-2" d="M374.57,46.89h0a1.38,1.38,0,0,0-1.4,1.4l-.06,3c0,.79.57,1,1.35,1.05h0c.79,0,1.4-.22,1.42-1l.06-3A1.42,1.42,0,0,0,374.57,46.89Z"/><path id="_Path_15" data-name="&lt;Path&gt;" class="cls-16" d="M381.27,35.17a10.74,10.74,0,0,1,.32,4,1.09,1.09,0,0,0-.93-.25l-.15,0h0l-.07,0-.07,0-.08,0-.05,0-.09,0-.07,0-.07,0-.07.05-.07.05-.13.12h0l0,0v0l0,0h0l0,2a.9.9,0,0,1-.23.67l-.09.1a1.43,1.43,0,0,1-.61.17,1,1,0,0,1-1-1v-.71a1,1,0,0,0-.93-1l-.18,0c0-.81,0-1.46,0-1.86s-.16-.83-1.26-1h0l-.31,0h0l-.64,0-5.05-.09-.06,0a2.49,2.49,0,0,1-1.36-1,1.5,1.5,0,0,1-.26-1l1.4,0a2.84,2.84,0,0,1-.7-1.23A6.63,6.63,0,0,1,368,32l2.32,0a8.27,8.27,0,0,1,4.93-1.38c4.06.42,5.36,3.06,5.36,3.06a4.39,4.39,0,0,1,1.76-.28A3.75,3.75,0,0,0,381.27,35.17Z"/><path id="_Path_16" data-name="&lt;Path&gt;" class="cls-17" d="M375,36.84l-.64,0-5.05-.09-.06,0a2.49,2.49,0,0,1-1.36-1,1.5,1.5,0,0,1-.26-1s1.18,1.38,1.95,1.53h.06C370.39,36.4,373.84,36.73,375,36.84Z"/><path id="_Path_17" data-name="&lt;Path&gt;" class="cls-16" d="M375.92,44.52l-.13.72-.29,1.62v0l-.09.52a2.29,2.29,0,0,1-2.7,2l-1.44-.37a2.06,2.06,0,0,1-1.26-1,3.76,3.76,0,0,1-.47-1.8l.12-2.35c.12-.63.28-.86.83-.85l4.61.09h.11A1.17,1.17,0,0,1,375.92,44.52Z"/><path id="_Path_18" data-name="&lt;Path&gt;" class="cls-14" d="M372.14,45.4c-1,0-1.83-.56-1.82-1.17v-.14l3.78.07v.14c0,.55-.6,1.12-1.66,1.1Z"/><path id="_Path_19" data-name="&lt;Path&gt;" class="cls-17" d="M368,32s.86,2.06,2.12,2.61c1.07.46,6.33.73,6.33.73a9,9,0,0,1-1.64.36c-.48,0-5.12.1-5.82-.93A4.52,4.52,0,0,1,368,32Z"/><path id="_Path_20" data-name="&lt;Path&gt;" class="cls-16" d="M379.3,42.27a4.58,4.58,0,0,1-.79.6c-1.06.67-2.55,1.47-3,3.35h0c-.21.9-.4.8-.52.28-.21-.9-.24-3,.08-3.41h0c.89,0,2.57-.54,2.59-1.63S380.37,41.34,379.3,42.27Z"/><path id="_Path_21" data-name="&lt;Path&gt;" class="cls-16" d="M369.54,46c.05-1-1.68-2.27-1.71-5a2.75,2.75,0,0,0,2.63,2C370.78,43.42,369.8,45.19,369.54,46Z"/><path id="_Path_22" data-name="&lt;Path&gt;" class="cls-17" d="M378.51,42.86a6.4,6.4,0,0,0-3,4v0l-.09.52a2.29,2.29,0,0,1-2.7,2l-1.44-.37a2.06,2.06,0,0,1-1.26-1,8.75,8.75,0,0,0,2.27.66A2.31,2.31,0,0,0,375,47.21h0a7.69,7.69,0,0,1,.82-2A4.89,4.89,0,0,1,378.51,42.86Z"/><g id="_Group_" data-name="&lt;Group&gt;"><line id="_Path_23" data-name="&lt;Path&gt;" class="cls-16" x1="368.9" y1="38.56" x2="370.6" y2="38.5"/><path id="_Path_24" data-name="&lt;Path&gt;" class="cls-16" d="M368.86,38.84a.28.28,0,0,1,0-.56l1.7-.06a.28.28,0,1,1,0,.57l-1.7.06Z"/></g><g id="_Group_2" data-name="&lt;Group&gt;"><line id="_Path_25" data-name="&lt;Path&gt;" class="cls-16" x1="373.69" y1="38.56" x2="375.38" y2="38.67"/><path id="_Path_26" data-name="&lt;Path&gt;" class="cls-16" d="M373.65,38.28a.28.28,0,0,0,0,.56l1.69.12a.28.28,0,1,0,0-.56l-1.69-.12Z"/></g><circle id="_Path_27" data-name="&lt;Path&gt;" cx="374.29" cy="40.4" r="0.38" transform="translate(327.06 413.89) rotate(-88.95)"/><circle id="_Path_28" data-name="&lt;Path&gt;" cx="369.85" cy="40.45" r="0.38" transform="translate(322.65 409.49) rotate(-88.95)"/><polygon id="_Path_29" data-name="&lt;Path&gt;" class="cls-18" points="372.21 40.19 372.22 42.61 371.51 42.48 372.21 40.19"/><path id="_Path_30" data-name="&lt;Path&gt;" class="cls-19" d="M375.7,40.94a2,2,0,0,1-1.19.33h0a2.14,2.14,0,0,1-1.18-.37"/><path id="_Path_31" data-name="&lt;Path&gt;" class="cls-19" d="M371,40.85a2,2,0,0,1-1.19.33h0a2.14,2.14,0,0,1-1.18-.37"/><polygon id="_Path_32" data-name="&lt;Path&gt;" class="cls-20" points="378.17 51.04 376.27 49.75 374.16 51.43 375.32 54.32 378.17 51.04"/><polygon id="_Path_33" data-name="&lt;Path&gt;" class="cls-20" points="370.44 50.9 373.12 49.69 374.16 51.43 371.79 54.26 370.44 50.9"/><polygon id="_Path_34" data-name="&lt;Path&gt;" class="cls-14" points="374.16 51.43 374.85 53.16 373.02 54.88 372.55 53.35 374.16 51.43"/><path id="_Path_35" data-name="&lt;Path&gt;" class="cls-12" d="M371.23,39.63V40A2.22,2.22,0,0,1,369,42.17h0A2.22,2.22,0,0,1,366.8,40v-.33"/><path id="_Path_36" data-name="&lt;Path&gt;" class="cls-12" d="M377.63,39.63V40a2.22,2.22,0,0,1-2.22,2.22h0A2.22,2.22,0,0,1,373.2,40v-.33"/><line id="_Path_37" data-name="&lt;Path&gt;" class="cls-12" x1="371.23" y1="39.63" x2="373.2" y2="39.63"/><line id="_Path_38" data-name="&lt;Path&gt;" class="cls-12" x1="377.63" y1="39.63" x2="381.36" y2="38.56"/><g id="_Group_3" data-name="&lt;Group&gt;"><path id="_Path_39" data-name="&lt;Path&gt;" class="cls-15" d="M379.64,39.46a2.25,2.25,0,0,1,.8-.8c1.23-.82,2.63-.11,2.06,1.32-.39,1-1.08,3.47-1.85,2.56A4.77,4.77,0,0,1,379.64,39.46Z"/><polygon id="_Path_40" data-name="&lt;Path&gt;" class="cls-18" points="380.57 39.63 382.16 39.39 380.92 41.55 381.36 39.76 380.57 39.63"/></g><path class="cls-21" d="M317.5,88.69h-6.57a2,2,0,0,1-2.1-1.41l-2-12.73h14.85l-2,12.73A2,2,0,0,1,317.5,88.69Z"/><g id="_Group_4" data-name="&lt;Group&gt;"><circle id="_Path_41" data-name="&lt;Path&gt;" class="cls-1" cx="314.21" cy="49.31" r="4.42"/><circle id="_Path_42" data-name="&lt;Path&gt;" class="cls-10" cx="314.21" cy="49.31" r="4.07"/><g id="_Group_5" data-name="&lt;Group&gt;"><line id="_Path_43" data-name="&lt;Path&gt;" class="cls-22" x1="312.9" y1="51.77" x2="316.37" y2="51.08"/><path id="_Path_44" data-name="&lt;Path&gt;" class="cls-23" d="M315.79,48.17a1.34,1.34,0,0,0-1.58-1.05h0a1.34,1.34,0,0,0-1.05,1.58l.58,2.9"/><line id="_Path_45" data-name="&lt;Path&gt;" class="cls-22" x1="312.59" y1="50.21" x2="315.04" y2="49.72"/></g></g><polygon class="cls-10" points="325.43 57.05 323.98 62.11 326.13 61.45 326.89 58.82 325.43 57.05"/><rect class="cls-5" x="293.14" y="88.69" width="122.37" height="2.87"/><rect class="cls-5" x="300.89" y="95.85" width="29.81" height="40.08"/><path class="cls-24" d="M329.27,97.28V134.5H302.32V97.28h26.94m2.86-2.86H299.46v42.95h32.67V94.41Z"/><rect class="cls-5" x="378.56" y="95.85" width="29.8" height="40.08"/><path class="cls-24" d="M406.93,97.28V134.5H380V97.28h26.94m2.86-2.86H377.12v42.95h32.67V94.41Z"/><rect class="cls-25" x="325.75" y="102.4" width="57.17" height="26.98" rx="11.14" ry="11.14"/><line class="cls-26" x1="354.33" y1="130.24" x2="354.33" y2="156.98"/><text class="cls-27" transform="translate(331.59 120.04)">President</text><line class="cls-28" x1="648.96" y1="156.98" x2="646.1" y2="156.98"/><line class="cls-29" x1="640.32" y1="156.98" x2="65.45" y2="156.98"/><line class="cls-28" x1="62.56" y1="156.98" x2="59.7" y2="156.98"/><path id="_Path_46" data-name="&lt;Path&gt;" class="cls-9" d="M170.66,206.42a28.47,28.47,0,0,0-2-2.47c.59-1.22,2.25-.31,2.25-.31Z"/><rect class="cls-11" x="164.67" y="198.49" width="5.18" height="8.85" rx="1.2" ry="1.2" transform="translate(-37.61 38.06) rotate(-11.68)"/><rect class="cls-6" x="165.29" y="199.54" width="3.95" height="6.77" transform="translate(-37.61 38.06) rotate(-11.68)"/><rect class="cls-11" x="148" y="220.69" width="27.69" height="33.13" rx="7.72" ry="7.72"/><path id="_Path_47" data-name="&lt;Path&gt;" class="cls-9" d="M173.38,236.77a28.47,28.47,0,0,1,3.21-.13c.51-1.26-1.27-1.88-1.27-1.88Z"/><path id="_Path_48" data-name="&lt;Path&gt;" class="cls-2" d="M163,213.43h0a1.67,1.67,0,0,0,.86,2.2l13.23,5.63a1.67,1.67,0,0,0,2.2-.86h0a1.67,1.67,0,0,0-.86-2.2l-13.23-5.63A1.67,1.67,0,0,0,163,213.43Z"/><path id="_Path_49" data-name="&lt;Path&gt;" class="cls-30" d="M175.07,216l-1.65,3.87-9.67-4.08a2.11,2.11,0,0,1-1.11-2.76h0a2.11,2.11,0,0,1,2.76-1.11Z"/><path id="_Path_50" data-name="&lt;Path&gt;" class="cls-31" d="M155,212.14l10.13-.56a3.63,3.63,0,0,1,3.82,3.42s-.42,9.1-.25,12.12c.22,3.92,1.79,15.63,1.79,15.63l-17.37,1s.44-11.69.22-15.57c-.17-3.06-1.77-12.18-1.77-12.18A3.63,3.63,0,0,1,155,212.14Z"/><path id="_Path_51" data-name="&lt;Path&gt;" class="cls-32" d="M165.17,196.33s1.67-.44,1.86,3a15,15,0,0,1-.25,3.4L164,199.89l-2.72-1,3.25-1.38Z"/><path id="_Path_52" data-name="&lt;Path&gt;" class="cls-15" d="M163.09,210.93c-4,.44-6.35-2.43-7.22-6.1-.91-3.87,1.52-7.25,4.7-7.44,3.61-.21,5.79,1.08,6.31,5,.32,2.48-.15,7.51-3.79,8.52Z"/><g id="_Group_6" data-name="&lt;Group&gt;"><line id="_Path_53" data-name="&lt;Path&gt;" class="cls-5" x1="166.17" y1="202.9" x2="164.69" y2="202.5"/><path id="_Path_54" data-name="&lt;Path&gt;" class="cls-5" d="M166.15,203.16a.25.25,0,0,0,.09-.5l-1.47-.4a.25.25,0,0,0-.13.49l1.47.4Z"/></g><g id="_Group_7" data-name="&lt;Group&gt;"><line id="_Path_55" data-name="&lt;Path&gt;" class="cls-5" x1="162.18" y1="202.7" x2="160.72" y2="203.14"/><path id="_Path_56" data-name="&lt;Path&gt;" class="cls-5" d="M162.16,202.45a.25.25,0,0,1,.1.5l-1.46.44a.25.25,0,1,1-.15-.49l1.46-.44Z"/></g><circle id="_Path_57" data-name="&lt;Path&gt;" cx="161.73" cy="204.52" r="0.34" transform="translate(-11.11 9.3) rotate(-3.18)"/><circle id="_Path_58" data-name="&lt;Path&gt;" cx="165.41" cy="204.43" r="0.34" transform="translate(-11.1 9.5) rotate(-3.18)"/><polygon id="_Path_59" data-name="&lt;Path&gt;" class="cls-18" points="163.57 203.92 163.69 206.91 164.32 206.73 163.57 203.92"/><ellipse id="_Path_60" data-name="&lt;Path&gt;" class="cls-32" cx="154.74" cy="197.5" rx="2.66" ry="2.08" transform="translate(-84.36 273.54) rotate(-69.56)"/><path id="_Path_61" data-name="&lt;Path&gt;" class="cls-33" d="M156.59,205.24a1.26,1.26,0,0,0,1.45-1.65,12.32,12.32,0,0,0,7.19-7.21c-1.33-2.36-3.48-2.57-5.77-2.05-3.39.77-6.88,3.54-4.49,10.07C155.14,204.87,156.08,204.89,156.59,205.24Z"/><g id="_Group_8" data-name="&lt;Group&gt;"><path id="_Path_62" data-name="&lt;Path&gt;" class="cls-15" d="M157,203.55a1.92,1.92,0,0,0-.71-.66c-1.07-.66-2.25,0-1.72,1.19.37.84,1,2.93,1.66,2.13A4.08,4.08,0,0,0,157,203.55Z"/><polygon id="_Path_63" data-name="&lt;Path&gt;" class="cls-18" points="156.25 203.72 154.88 203.56 156 205.37 155.57 203.85 156.25 203.72"/></g><circle id="_Path_64" data-name="&lt;Path&gt;" class="cls-34" cx="156.05" cy="206.49" r="0.62" transform="translate(-11.23 8.99) rotate(-3.18)"/><path id="_Path_65" data-name="&lt;Path&gt;" class="cls-30" d="M165.28,212.37c.12,2.25-1.93,4.19-4.57,4.34s-4.9-1.56-5-3.81a3.5,3.5,0,0,1,0-.8l9.41-.52A3.5,3.5,0,0,1,165.28,212.37Z"/><path id="_Path_66" data-name="&lt;Path&gt;" class="cls-2" d="M156.43,212.86c.1,1.83,2,3.22,4.23,3.1s4-1.71,3.86-3.55a2.73,2.73,0,0,0-.16-.79l-7.86.44A2.73,2.73,0,0,0,156.43,212.86Z"/><path id="_Rectangle_8" data-name="&lt;Rectangle&gt;" class="cls-2" d="M160.42,207.9h.36a1,1,0,0,1,1,1V214a1.31,1.31,0,0,1-1.31,1.31h0A1.31,1.31,0,0,1,159.1,214v-4.75a1.31,1.31,0,0,1,1.31-1.31Z" transform="translate(332.34 413.95) rotate(176.82)"/><path id="_Path_67" data-name="&lt;Path&gt;" class="cls-2" d="M152.44,214.16h0a1.67,1.67,0,0,1,2.24.75L161,227.83a1.67,1.67,0,0,1-.75,2.24h0a1.67,1.67,0,0,1-2.24-.75L151.7,216.4A1.67,1.67,0,0,1,152.44,214.16Z"/><path id="_Path_68" data-name="&lt;Path&gt;" class="cls-30" d="M155.66,225.55l3.78-1.85-4.58-9.44a2.11,2.11,0,0,0-2.81-1h0a2.11,2.11,0,0,0-1,2.81Z"/><path id="_Path_69" data-name="&lt;Path&gt;" class="cls-2" d="M158.14,227.85h0a1.67,1.67,0,0,0,.65,2.27L171.44,237a1.67,1.67,0,0,0,2.27-.65h0a1.67,1.67,0,0,0-.65-2.27l-12.65-6.85A1.67,1.67,0,0,0,158.14,227.85Z"/><rect id="_Rectangle_9" data-name="&lt;Rectangle&gt;" class="cls-10" x="162.58" y="221.22" width="3.9" height="1.75" transform="translate(341.94 434.05) rotate(176.6)"/><path id="_Path_70" data-name="&lt;Path&gt;" class="cls-2" d="M178.52,221.23h0a1.67,1.67,0,0,1-2.2-.87l-5.56-13.26a1.67,1.67,0,0,1,.87-2.2h0a1.67,1.67,0,0,1,2.2.87L179.4,219A1.67,1.67,0,0,1,178.52,221.23Z"/><path id="_Path_71" data-name="&lt;Path&gt;" class="cls-2" d="M174,206.18l-.64-3.34a12.79,12.79,0,0,0-2.7-2.28,5.32,5.32,0,0,0-2.85-.05c-.73.2,2.06,2.86,2.06,2.86l.79,3.28Z"/><path id="_Path_72" data-name="&lt;Path&gt;" class="cls-35" d="M164.33,208.44h0a3.39,3.39,0,0,1-1.93-.19"/><rect class="cls-4" x="141.01" y="238.96" width="73.08" height="5.85"/><rect class="cls-5" x="158.96" y="244.13" width="37.61" height="26.46"/><rect class="cls-5" x="132.32" y="237.26" width="90.47" height="2.12"/><rect class="cls-5" x="138.05" y="242.55" width="22.04" height="29.63"/><path class="cls-24" d="M159,243.6v27.52H139.1V243.6H159m2.12-2.12H137v31.75h24.15V241.49Z"/><rect class="cls-5" x="195.46" y="242.55" width="22.04" height="29.63"/><path class="cls-24" d="M216.44,243.6v27.52H196.52V243.6h19.92m2.12-2.12H194.4v31.75h24.15V241.49Z"/><path class="cls-3" d="M176.72,233.88h1.44a2.8,2.8,0,0,1,2.8,2.8v0a.58.58,0,0,1-.58.58H174.5a.58.58,0,0,1-.58-.58v0a2.8,2.8,0,0,1,2.8-2.8Z"/><path id="_Path_73" data-name="&lt;Path&gt;" class="cls-2" d="M171.29,234.09l2.91-1.76a12.79,12.79,0,0,1,3.5.49,5.32,5.32,0,0,1,1.94,2.08c.34.68-3.5.38-3.5.38l-3,1.61Z"/><rect class="cls-13" x="178.54" y="211.25" width="24.62" height="19.5" rx="1.62" ry="1.62"/><path class="cls-36" d="M190.85,221.37h0a2.77,2.77,0,0,1,2.77,2.77v11.5a0,0,0,0,1,0,0h-5.54a0,0,0,0,1,0,0v-11.5A2.77,2.77,0,0,1,190.85,221.37Z"/><rect class="cls-13" x="184.26" y="235.25" width="13.17" height="2" rx="1" ry="1"/><rect class="cls-13" x="142.88" y="235.25" width="24.54" height="2" rx="1" ry="1"/><path class="cls-37" d="M185.38,223.12v8a5.26,5.26,0,0,1-5.26,5.26h0"/><circle class="cls-20" cx="185.38" cy="223.12" r="0.58"/><path id="_Path_74" data-name="&lt;Path&gt;" class="cls-9" d="M299.06,209.86a30.7,30.7,0,0,1,2.11-2.75c-.69-1.29-2.43-.24-2.43-.24Z"/><rect class="cls-11" x="299.72" y="220.69" width="27.69" height="33.13" rx="7.72" ry="7.72" transform="translate(627.14 474.51) rotate(-180)"/><path id="_Path_75" data-name="&lt;Path&gt;" class="cls-2" d="M309.13,216.42h0a1.8,1.8,0,0,1-.71,2.45l-13.64,7.38a1.8,1.8,0,0,1-2.45-.71h0a1.8,1.8,0,0,1,.71-2.45l13.64-7.38A1.8,1.8,0,0,1,309.13,216.42Z"/><path id="_Path_76" data-name="&lt;Path&gt;" class="cls-38" d="M297,220.4l2.16,4,10-5.36a2.27,2.27,0,0,0,.91-3.07h0A2.27,2.27,0,0,0,307,215Z"/><path id="_Rectangle_10" data-name="&lt;Rectangle&gt;" class="cls-8" d="M310.38,214.78h5a6.17,6.17,0,0,1,6.17,6.17v29.26a0,0,0,0,1,0,0H304a0,0,0,0,1,0,0V221.16A6.38,6.38,0,0,1,310.38,214.78Z" transform="translate(-3.57 4.89) rotate(-0.89)"/><rect id="_Rectangle_11" data-name="&lt;Rectangle&gt;" class="cls-10" x="313.41" y="221.59" width="4.31" height="1.93" transform="translate(635.05 439.45) rotate(178.98)"/><path id="_Path_77" data-name="&lt;Path&gt;" class="cls-2" d="M320,216.59h0a1.8,1.8,0,0,1,1.54,2L319.23,234a1.8,1.8,0,0,1-2,1.54h0a1.8,1.8,0,0,1-1.54-2l2.29-15.34A1.8,1.8,0,0,1,320,216.59Z"/><path id="_Path_78" data-name="&lt;Path&gt;" class="cls-38" d="M315.88,228.68l4.49.66,1.7-11.19a2.27,2.27,0,0,0-1.91-2.57h0a2.27,2.27,0,0,0-2.57,1.91Z"/><path id="_Path_79" data-name="&lt;Path&gt;" class="cls-2" d="M319.24,234h0a1.8,1.8,0,0,1-1.89,1.71l-15.49-.91a1.8,1.8,0,0,1-1.71-1.89h0a1.8,1.8,0,0,1,1.89-1.71l15.49.91A1.8,1.8,0,0,1,319.24,234Z"/><path id="_Path_80" data-name="&lt;Path&gt;" class="cls-9" d="M301.17,234.61a30.7,30.7,0,0,0-3.37.8c-.9-1.15.77-2.32.77-2.32Z"/><path id="_Path_81" data-name="&lt;Path&gt;" class="cls-2" d="M293.15,226.55h0a1.8,1.8,0,0,1-1.31-2.19l3.94-15A1.8,1.8,0,0,1,298,208h0a1.8,1.8,0,0,1,1.31,2.19l-3.94,15A1.8,1.8,0,0,1,293.15,226.55Z"/><ellipse id="_Path_82" data-name="&lt;Path&gt;" class="cls-38" cx="312.43" cy="215.28" rx="1.93" ry="2.97" transform="translate(96.74 527.44) rotate(-89.93)"/><path id="_Path_83" data-name="&lt;Path&gt;" class="cls-2" d="M312.7,209.48h.06a1.57,1.57,0,0,0-1.72,1.45l-.36,3.44c-.09.89.54,1.24,1.43,1.33h0c.89.09,1.61-.11,1.71-1l.36-3.44A1.62,1.62,0,0,0,312.7,209.48Z"/><path id="_Path_84" data-name="&lt;Path&gt;" class="cls-15" d="M310.33,213.8c4.67.35,7.23-3.06,8.08-7.34.9-4.51-2.06-8.31-5.72-8.39-4.17-.1-6.64,1.48-7.08,6.06-.27,2.87.48,8.66,4.72,9.68Z"/><path id="_Path_85" data-name="&lt;Path&gt;" class="cls-39" d="M318.84,200.29a10.6,10.6,0,0,1,.3,3.91,1.08,1.08,0,0,0-.92-.25l-.15,0h0l-.07,0-.07,0-.08,0-.05,0-.09,0-.07,0-.07,0-.07,0-.07.05-.13.12h0l0,0v0l0,0h0l0,2a.88.88,0,0,1-.22.66l-.09.1a1.41,1.41,0,0,1-.6.16,1,1,0,0,1-1-1v-.7a1,1,0,0,0-.91-1l-.18,0c0-.8,0-1.44,0-1.83s-.16-.82-1.24-.95h0l-.3,0h0l-.63,0-5-.1-.06,0a2.46,2.46,0,0,1-1.34-1,1.48,1.48,0,0,1-.26-1l1.38,0a2.8,2.8,0,0,1-.69-1.21,6.54,6.54,0,0,1-.29-1.52l2.29,0a8.16,8.16,0,0,1,4.87-1.35c4,.42,5.28,3,5.28,3a4.33,4.33,0,0,1,1.74-.27A3.7,3.7,0,0,0,318.84,200.29Z"/><path id="_Path_86" data-name="&lt;Path&gt;" class="cls-40" d="M312.63,201.92l-.63,0-5-.1-.06,0a2.46,2.46,0,0,1-1.34-1,1.48,1.48,0,0,1-.26-1s1.16,1.36,1.92,1.51h.06C308.1,201.49,311.51,201.82,312.63,201.92Z"/><path id="_Path_87" data-name="&lt;Path&gt;" class="cls-39" d="M313.55,209.5l-.13.71-.29,1.6v0l-.09.51a2.26,2.26,0,0,1-2.67,2l-1.42-.37a2,2,0,0,1-1.25-1,3.71,3.71,0,0,1-.46-1.78l.12-2.32c.12-.62.28-.85.82-.84l4.55.09h.11A1.15,1.15,0,0,1,313.55,209.5Z"/><path id="_Path_88" data-name="&lt;Path&gt;" class="cls-14" d="M309.82,210.37c-1,0-1.8-.56-1.79-1.16v-.14l3.73.07v.14c0,.54-.59,1.11-1.64,1.09Z"/><path id="_Path_89" data-name="&lt;Path&gt;" class="cls-40" d="M305.77,197.13s.85,2,2.09,2.58c1.05.46,6.25.73,6.25.73a8.87,8.87,0,0,1-1.62.35c-.47,0-5,.09-5.75-.93A4.46,4.46,0,0,1,305.77,197.13Z"/><path id="_Path_90" data-name="&lt;Path&gt;" class="cls-39" d="M316.89,207.29a4.52,4.52,0,0,1-.79.59c-1,.66-2.52,1.45-3,3.3h0c-.21.89-.39.79-.51.27-.21-.88-.23-3,.09-3.37h0c.88,0,2.54-.52,2.56-1.6S317.95,206.37,316.89,207.29Z"/><path id="_Path_91" data-name="&lt;Path&gt;" class="cls-39" d="M307.25,210.93c.05-1-1.65-2.25-1.68-4.95a2.72,2.72,0,0,0,2.6,2C308.48,208.41,307.51,210.15,307.25,210.93Z"/><path id="_Path_92" data-name="&lt;Path&gt;" class="cls-40" d="M316.1,207.87a6.31,6.31,0,0,0-3,3.94v0l-.09.51a2.26,2.26,0,0,1-2.67,2l-1.42-.37a2,2,0,0,1-1.25-1,8.63,8.63,0,0,0,2.24.65,2.28,2.28,0,0,0,2.69-1.49h0a7.59,7.59,0,0,1,.81-1.94A4.82,4.82,0,0,1,316.1,207.87Z"/><g id="_Group_9" data-name="&lt;Group&gt;"><line id="_Path_93" data-name="&lt;Path&gt;" class="cls-39" x1="306.63" y1="203.61" x2="308.31" y2="203.56"/><path id="_Path_94" data-name="&lt;Path&gt;" class="cls-39" d="M306.59,203.88a.28.28,0,0,1,0-.55l1.67-.05a.28.28,0,0,1,0,.56l-1.67.05Z"/></g><g id="_Group_10" data-name="&lt;Group&gt;"><line id="_Path_95" data-name="&lt;Path&gt;" class="cls-39" x1="311.35" y1="203.62" x2="313.02" y2="203.74"/><path id="_Path_96" data-name="&lt;Path&gt;" class="cls-39" d="M311.32,203.34a.28.28,0,0,0,0,.56L313,204a.28.28,0,0,0,0-.56l-1.67-.12Z"/></g><circle id="_Path_97" data-name="&lt;Path&gt;" cx="311.94" cy="205.44" r="0.38" transform="translate(100.27 513.18) rotate(-88.85)"/><circle id="_Path_98" data-name="&lt;Path&gt;" cx="307.56" cy="205.48" r="0.38" transform="translate(95.94 508.84) rotate(-88.85)"/><polygon id="_Path_99" data-name="&lt;Path&gt;" class="cls-18" points="309.9 205.23 309.9 207.62 309.2 207.49 309.9 205.23"/><path id="_Path_100" data-name="&lt;Path&gt;" class="cls-41" d="M313.34,206a2,2,0,0,1-1.17.32h0a2.11,2.11,0,0,1-1.16-.37"/><path id="_Path_101" data-name="&lt;Path&gt;" class="cls-41" d="M308.7,205.88a2,2,0,0,1-1.17.32h0a2.11,2.11,0,0,1-1.16-.37"/><g id="_Group_11" data-name="&lt;Group&gt;"><path id="_Path_102" data-name="&lt;Path&gt;" class="cls-15" d="M317.22,204.52a2.22,2.22,0,0,1,.79-.79c1.21-.8,2.59-.11,2,1.3-.39,1-1.07,3.42-1.83,2.52A4.71,4.71,0,0,1,317.22,204.52Z"/><polygon id="_Path_103" data-name="&lt;Path&gt;" class="cls-18" points="318.14 204.69 319.71 204.45 318.49 206.58 318.92 204.82 318.14 204.69"/></g><rect class="cls-13" x="277.94" y="235.25" width="24.54" height="2" rx="1" ry="1" transform="translate(580.42 472.51) rotate(-180)"/><rect class="cls-4" x="258.86" y="238.96" width="73.08" height="5.85" transform="translate(590.81 483.77) rotate(-180)"/><rect class="cls-5" x="276.38" y="244.13" width="37.61" height="26.46" transform="translate(590.37 514.73) rotate(-180)"/><rect class="cls-5" x="250.17" y="237.26" width="90.47" height="2.12" transform="translate(590.81 476.64) rotate(-180)"/><rect class="cls-5" x="312.88" y="242.55" width="22.04" height="29.63"/><path class="cls-24" d="M333.85,243.6v27.52H313.93V243.6h19.92m2.12-2.12H311.82v31.75H336V241.49Z"/><rect class="cls-5" x="255.46" y="242.55" width="22.04" height="29.63"/><path class="cls-24" d="M276.44,243.6v27.52H256.52V243.6h19.92m2.12-2.12H254.4v31.75h24.15V241.49Z"/><path class="cls-3" d="M280.56,233.88h5.88a.58.58,0,0,1,.58.58v0a2.8,2.8,0,0,1-2.8,2.8h-1.44a2.8,2.8,0,0,1-2.8-2.8v0A.58.58,0,0,1,280.56,233.88Z" transform="translate(566.99 471.13) rotate(180)"/><rect class="cls-13" x="257.78" y="211.25" width="24.62" height="19.5" rx="1.62" ry="1.62" transform="translate(540.17 441.99) rotate(-180)"/><path class="cls-36" d="M267.32,221.37h5.54a0,0,0,0,1,0,0v11.5a2.77,2.77,0,0,1-2.77,2.77h0a2.77,2.77,0,0,1-2.77-2.77v-11.5a0,0,0,0,1,0,0Z" transform="translate(540.17 457) rotate(180)"/><rect class="cls-13" x="263.5" y="235.25" width="13.17" height="2" rx="1" ry="1" transform="translate(540.17 472.51) rotate(180)"/><path class="cls-37" d="M275.55,223.12v8a5.26,5.26,0,0,0,5.26,5.26h0"/><circle class="cls-20" cx="275.55" cy="223.12" r="0.58"/><path class="cls-10" d="M292.4,228.33h6.54a0,0,0,0,1,0,0v7.93a1,1,0,0,1-1,1H293.4a1,1,0,0,1-1-1v-7.93A0,0,0,0,1,292.4,228.33Z"/><path id="_Path_104" data-name="&lt;Path&gt;" class="cls-2" d="M302.55,231.22l-3.53-1a13.8,13.8,0,0,0-3.49,1.53,5.74,5.74,0,0,0-1.4,2.73c-.15.8,3.75-.64,3.75-.64l3.55.79Z"/><path class="cls-20" d="M302.65,207.08a1,1,0,0,1,.25-1.47,2.68,2.68,0,1,0-.66,4.19,3.71,3.71,0,0,0,0-1.92A1,1,0,0,1,302.65,207.08Z"/><path id="_Path_105" data-name="&lt;Path&gt;" class="cls-2" d="M295.69,209.82l.56-3.62a13.8,13.8,0,0,1,2.82-2.56,5.73,5.73,0,0,1,3.07-.17c.79.19-2.11,3.16-2.11,3.16l-1.13,4Z"/><path id="_Path_106" data-name="&lt;Path&gt;" class="cls-9" d="M538,206.42a28.47,28.47,0,0,1,2-2.47c-.59-1.22-2.25-.31-2.25-.31Z"/><rect class="cls-11" x="538.8" y="198.49" width="5.18" height="8.85" rx="1.2" ry="1.2" transform="translate(1030.5 511.23) rotate(-168.32)"/><rect class="cls-6" x="539.42" y="199.54" width="3.95" height="6.77" transform="matrix(-0.98, -0.2, 0.2, -0.98, 1030.5, 511.23)"/><rect class="cls-11" x="532.97" y="220.69" width="27.69" height="33.13" rx="7.72" ry="7.72" transform="translate(1093.63 474.51) rotate(-180)"/><path id="_Path_107" data-name="&lt;Path&gt;" class="cls-9" d="M535.28,236.77a28.47,28.47,0,0,0-3.21-.13c-.51-1.26,1.27-1.88,1.27-1.88Z"/><path id="_Path_108" data-name="&lt;Path&gt;" class="cls-2" d="M545.61,213.43h0a1.67,1.67,0,0,1-.86,2.2l-13.23,5.63a1.67,1.67,0,0,1-2.2-.86h0a1.67,1.67,0,0,1,.86-2.2l13.23-5.63A1.67,1.67,0,0,1,545.61,213.43Z"/><path id="_Path_109" data-name="&lt;Path&gt;" class="cls-6" d="M533.59,216l1.65,3.87,9.67-4.08a2.11,2.11,0,0,0,1.11-2.76h0a2.11,2.11,0,0,0-2.76-1.11Z"/><path id="_Path_110" data-name="&lt;Path&gt;" class="cls-30" d="M553.7,212.14l-10.13-.56a3.63,3.63,0,0,0-3.82,3.42s.42,9.1.25,12.12c-.22,3.92-1.79,15.63-1.79,15.63l17.37,1s-.44-11.69-.22-15.57c.17-3.06,1.77-12.18,1.77-12.18A3.63,3.63,0,0,0,553.7,212.14Z"/><path id="_Path_111" data-name="&lt;Path&gt;" class="cls-10" d="M543.49,196.33s-1.67-.44-1.86,3a15,15,0,0,0,.25,3.4l2.73-2.83,2.72-1-3.25-1.38Z"/><path id="_Path_112" data-name="&lt;Path&gt;" class="cls-15" d="M545.57,210.93c4,.44,6.35-2.43,7.22-6.1.91-3.87-1.52-7.25-4.7-7.44-3.61-.21-5.79,1.08-6.31,5-.32,2.48.15,7.51,3.79,8.52Z"/><g id="_Group_12" data-name="&lt;Group&gt;"><line id="_Path_113" data-name="&lt;Path&gt;" class="cls-5" x1="542.5" y1="202.9" x2="543.97" y2="202.5"/><path id="_Path_114" data-name="&lt;Path&gt;" class="cls-5" d="M542.51,203.16a.25.25,0,0,1-.09-.5l1.47-.4a.25.25,0,1,1,.13.49l-1.47.4Z"/></g><g id="_Group_13" data-name="&lt;Group&gt;"><line id="_Path_115" data-name="&lt;Path&gt;" class="cls-5" x1="546.48" y1="202.7" x2="547.94" y2="203.14"/><path id="_Path_116" data-name="&lt;Path&gt;" class="cls-5" d="M546.5,202.45a.25.25,0,0,0-.1.5l1.46.44a.25.25,0,0,0,.15-.49l-1.46-.44Z"/></g><circle id="_Path_117" data-name="&lt;Path&gt;" cx="546.93" cy="204.52" r="0.34" transform="translate(312.35 739.24) rotate(-86.82)"/><circle id="_Path_118" data-name="&lt;Path&gt;" cx="543.25" cy="204.43" r="0.34" transform="translate(308.97 735.49) rotate(-86.82)"/><polygon id="_Path_119" data-name="&lt;Path&gt;" class="cls-18" points="545.09 203.92 544.97 206.91 544.34 206.73 545.09 203.92"/><ellipse id="_Path_120" data-name="&lt;Path&gt;" class="cls-1" cx="553.92" cy="197.5" rx="2.08" ry="2.66" transform="translate(-34.1 205.85) rotate(-20.44)"/><path id="_Path_121" data-name="&lt;Path&gt;" class="cls-10" d="M552.08,205.24a1.26,1.26,0,0,1-1.45-1.65,12.32,12.32,0,0,1-7.19-7.21c1.33-2.36,3.48-2.57,5.77-2.05,3.39.77,6.88,3.54,4.49,10.07C553.52,204.87,552.58,204.89,552.08,205.24Z"/><g id="_Group_14" data-name="&lt;Group&gt;"><path id="_Path_122" data-name="&lt;Path&gt;" class="cls-15" d="M551.62,203.55a1.92,1.92,0,0,1,.71-.66c1.07-.66,2.25,0,1.72,1.19-.37.84-1,2.93-1.66,2.13A4.08,4.08,0,0,1,551.62,203.55Z"/><polygon id="_Path_123" data-name="&lt;Path&gt;" class="cls-18" points="552.41 203.72 553.78 203.56 552.66 205.37 553.09 203.85 552.41 203.72"/></g><circle id="_Path_124" data-name="&lt;Path&gt;" class="cls-34" cx="552.61" cy="206.49" r="0.62" transform="translate(315.75 746.78) rotate(-86.82)"/><path id="_Path_125" data-name="&lt;Path&gt;" class="cls-30" d="M543.38,212.37c-.12,2.25,1.93,4.19,4.57,4.34s4.9-1.56,5-3.81a3.5,3.5,0,0,0,0-.8l-9.41-.52A3.5,3.5,0,0,0,543.38,212.37Z"/><path id="_Path_126" data-name="&lt;Path&gt;" class="cls-2" d="M552.23,212.86c-.1,1.83-2,3.22-4.23,3.1s-4-1.71-3.86-3.55a2.73,2.73,0,0,1,.16-.79l7.86.44A2.73,2.73,0,0,1,552.23,212.86Z"/><path id="_Rectangle_12" data-name="&lt;Rectangle&gt;" class="cls-2" d="M548.24,207.9h0a1.31,1.31,0,0,1,1.31,1.31v5.12a1,1,0,0,1-1,1h-.36a1.31,1.31,0,0,1-1.31-1.31v-4.75a1.31,1.31,0,0,1,1.31-1.31Z" transform="translate(12.6 -30.12) rotate(3.18)"/><path id="_Path_127" data-name="&lt;Path&gt;" class="cls-2" d="M556.22,214.16h0a1.67,1.67,0,0,0-2.24.75l-6.31,12.92a1.67,1.67,0,0,0,.75,2.24h0a1.67,1.67,0,0,0,2.24-.75L557,216.4A1.67,1.67,0,0,0,556.22,214.16Z"/><path id="_Path_128" data-name="&lt;Path&gt;" class="cls-6" d="M553,225.55l-3.78-1.85,4.58-9.44a2.11,2.11,0,0,1,2.81-1h0a2.11,2.11,0,0,1,1,2.81Z"/><path id="_Path_129" data-name="&lt;Path&gt;" class="cls-2" d="M550.52,227.85h0a1.67,1.67,0,0,1-.65,2.27L537.22,237a1.67,1.67,0,0,1-2.27-.65h0a1.67,1.67,0,0,1,.65-2.27l12.65-6.85A1.67,1.67,0,0,1,550.52,227.85Z"/><rect id="_Rectangle_13" data-name="&lt;Rectangle&gt;" class="cls-10" x="542.18" y="221.22" width="3.9" height="1.75" transform="translate(14.12 -31.86) rotate(3.4)"/><path id="_Path_130" data-name="&lt;Path&gt;" class="cls-2" d="M530.14,221.23h0a1.67,1.67,0,0,0,2.2-.87l5.56-13.26a1.67,1.67,0,0,0-.87-2.2h0a1.67,1.67,0,0,0-2.2.87L529.26,219A1.67,1.67,0,0,0,530.14,221.23Z"/><path id="_Path_131" data-name="&lt;Path&gt;" class="cls-2" d="M534.61,206.18l.64-3.34a12.79,12.79,0,0,1,2.7-2.28,5.32,5.32,0,0,1,2.85-.05c.73.2-2.06,2.86-2.06,2.86l-.79,3.28Z"/><path id="_Path_132" data-name="&lt;Path&gt;" class="cls-35" d="M544.33,208.44h0a3.39,3.39,0,0,0,1.93-.19"/><rect class="cls-4" x="494.57" y="238.96" width="73.08" height="5.85" transform="translate(1062.22 483.77) rotate(-180)"/><rect class="cls-5" x="512.08" y="244.13" width="37.61" height="26.46" transform="translate(1061.78 514.73) rotate(-180)"/><rect class="cls-5" x="485.88" y="237.26" width="90.47" height="2.12" transform="translate(1062.22 476.64) rotate(-180)"/><rect class="cls-5" x="548.58" y="242.55" width="22.04" height="29.63"/><path class="cls-24" d="M569.56,243.6v27.52H549.64V243.6h19.92m2.12-2.12H547.52v31.75h24.15V241.49Z"/><rect class="cls-5" x="491.17" y="242.55" width="22.04" height="29.63"/><path class="cls-24" d="M512.14,243.6v27.52H492.22V243.6h19.92m2.12-2.12H490.11v31.75h24.15V241.49Z"/><path class="cls-3" d="M528.28,233.88h5.88a.58.58,0,0,1,.58.58v0a2.8,2.8,0,0,1-2.8,2.8H530.5a2.8,2.8,0,0,1-2.8-2.8v0A.58.58,0,0,1,528.28,233.88Z" transform="translate(1062.44 471.13) rotate(180)"/><path id="_Path_133" data-name="&lt;Path&gt;" class="cls-2" d="M537.37,234.09l-2.91-1.76a12.79,12.79,0,0,0-3.5.49A5.32,5.32,0,0,0,529,234.9c-.34.68,3.5.38,3.5.38l3,1.61Z"/><rect class="cls-13" x="505.51" y="211.25" width="24.62" height="19.5" rx="1.62" ry="1.62" transform="translate(1035.63 441.99) rotate(-180)"/><path class="cls-36" d="M515,221.37h5.54a0,0,0,0,1,0,0v11.5a2.77,2.77,0,0,1-2.77,2.77h0a2.77,2.77,0,0,1-2.77-2.77v-11.5a0,0,0,0,1,0,0Z" transform="translate(1035.63 457) rotate(180)"/><rect class="cls-13" x="511.23" y="235.25" width="13.17" height="2" rx="1" ry="1" transform="translate(1035.63 472.51) rotate(-180)"/><rect class="cls-13" x="541.24" y="235.25" width="24.54" height="2" rx="1" ry="1" transform="translate(1107.03 472.51) rotate(-180)"/><path class="cls-37" d="M523.28,223.12v8a5.26,5.26,0,0,0,5.26,5.26h0"/><circle class="cls-20" cx="523.28" cy="223.12" r="0.58"/><rect class="cls-11" x="383.7" y="220.69" width="27.69" height="33.13" rx="7.72" ry="7.72"/><path id="_Path_134" data-name="&lt;Path&gt;" class="cls-2" d="M410.22,232h0a1.91,1.91,0,0,1-.28-2.7l10.6-12.69a1.94,1.94,0,0,1,2.71-.28h0a1.91,1.91,0,0,1,.28,2.7l-10.6,12.69A1.94,1.94,0,0,1,410.22,232Z"/><path id="_Path_135" data-name="&lt;Path&gt;" class="cls-9" d="M420.54,216.62a32.75,32.75,0,0,0,2.3-2.89c1.52.37.89,2.44.89,2.44Z"/><path id="_Path_136" data-name="&lt;Path&gt;" class="cls-2" d="M421.43,220.05l3.61-1.52a14.67,14.67,0,0,0,1.92-3.58,6.05,6.05,0,0,0-.63-3.2c-.4-.77-2.73,3-2.73,3l-3.05,1.87Z"/><path id="_Path_137" data-name="&lt;Path&gt;" class="cls-2" d="M403.7,213.71h0a1.92,1.92,0,0,0-1,2.54l7,14.93a1.93,1.93,0,0,0,2.55,1h0a1.92,1.92,0,0,0,1-2.54l-7-14.93A1.93,1.93,0,0,0,403.7,213.71Z"/><path id="_Path_138" data-name="&lt;Path&gt;" class="cls-10" d="M411.56,224.78l-4.4,2L402,215.93a2.41,2.41,0,0,1,1.18-3.2h0a2.43,2.43,0,0,1,3.22,1.17Z"/><path id="_Rectangle_14" data-name="&lt;Rectangle&gt;" class="cls-1" d="M390.81,210.65H408a0,0,0,0,1,0,0v28.91a6.07,6.07,0,0,1-6.07,6.07h-4.83a6.28,6.28,0,0,1-6.28-6.28V210.65A0,0,0,0,1,390.81,210.65Z" transform="translate(809.27 436.87) rotate(177.25)"/><path id="_Path_139" data-name="&lt;Path&gt;" class="cls-10" d="M402,211.62c0-1-1.15-1.77-2.62-1.81s-2.67.71-2.7,1.67,1.15,1.77,2.62,1.81S402,212.58,402,211.62Z"/><path id="_Path_140" data-name="&lt;Path&gt;" class="cls-2" d="M399.25,206.33h0a1.42,1.42,0,0,1,1.51,1.34l.25,3.1c.07.8-.51,1.1-1.31,1.16h0c-.8.06-1.44-.14-1.5-.94l-.25-3.1A1.45,1.45,0,0,1,399.25,206.33Z"/><path id="_Path_141" data-name="&lt;Path&gt;" class="cls-15" d="M402.09,209.86c-4.55.6-7.25-2.6-8.34-6.75-1.15-4.38,1.51-8.28,5.09-8.57,4.07-.33,6.58,1.08,7.28,5.55.44,2.81.05,8.53-4,9.78Z"/><path id="_Path_142" data-name="&lt;Path&gt;" class="cls-36" d="M392.68,197.34a11.06,11.06,0,0,0-.07,4.08,1.11,1.11,0,0,1,.93-.31l.15,0h0l.08,0,.08,0,.08,0,.06,0,.1,0,.07,0,.08,0,.07,0,.07.05.14.11h0l0,0,0,0,0,0h0l.17,2a.92.92,0,0,0,.27.67l.1.1a1.45,1.45,0,0,0,.63.13,1.06,1.06,0,0,0,1-1.05l-.06-.73a1.05,1.05,0,0,1,.88-1.13l.18,0c-.05-.83-.11-1.49-.15-1.9s.11-.86,1.22-1.06h0l.31,0h0l.65-.07,5.13-.4.06,0a2.53,2.53,0,0,0,1.33-1.08,1.55,1.55,0,0,0,.2-1l-1.42.11a2.9,2.9,0,0,0,.63-1.3,6.82,6.82,0,0,0,.2-1.59l-2.36.18a8.42,8.42,0,0,0-5.1-1.11c-4.11.67-5.25,3.45-5.25,3.45a4.45,4.45,0,0,0-1.81-.18A3.86,3.86,0,0,1,392.68,197.34Z"/><path id="_Path_143" data-name="&lt;Path&gt;" class="cls-42" d="M399.19,198.66l.65-.07,5.13-.4.06,0a2.53,2.53,0,0,0,1.33-1.08,1.55,1.55,0,0,0,.2-1s-1.11,1.48-1.88,1.68h-.06C403.83,197.93,400.34,198.48,399.19,198.66Z"/><g id="_Group_15" data-name="&lt;Group&gt;"><line id="_Path_144" data-name="&lt;Path&gt;" class="cls-36" x1="404.47" y1="200.71" x2="402.85" y2="200.76"/><path id="_Path_145" data-name="&lt;Path&gt;" class="cls-36" d="M404.53,201a.27.27,0,0,0-.07-.54l-1.63,0a.27.27,0,0,0,0,.55l1.63,0Z"/></g><g id="_Group_16" data-name="&lt;Group&gt;"><line id="_Path_146" data-name="&lt;Path&gt;" class="cls-36" x1="400.24" y1="200.96" x2="398.62" y2="201.17"/><path id="_Path_147" data-name="&lt;Path&gt;" class="cls-36" d="M400.25,200.69a.27.27,0,0,1,0,.54l-1.61.21a.27.27,0,0,1-.07-.54l1.61-.21Z"/></g><circle id="_Path_148" data-name="&lt;Path&gt;" cx="399.77" cy="202.77" r="0.37" transform="translate(-14.62 31.85) rotate(-4.48)"/><circle id="_Path_149" data-name="&lt;Path&gt;" cx="403.68" cy="202.59" r="0.37" transform="translate(-14.59 32.16) rotate(-4.48)"/><path id="_Path_150" data-name="&lt;Path&gt;" class="cls-42" d="M406,193.27s-.74,2.16-2,2.8c-1.06.54-6.39,1.13-6.39,1.13a9.13,9.13,0,0,0,1.69.27c.49,0,5.21-.21,5.86-1.31A4.63,4.63,0,0,0,406,193.27Z"/><g id="_Group_17" data-name="&lt;Group&gt;"><path id="_Path_151" data-name="&lt;Path&gt;" class="cls-15" d="M394.79,201.79a2.17,2.17,0,0,0-.81-.73c-1.22-.72-2.52,0-1.89,1.39.44.94,1.24,3.28,1.92,2.36A4.6,4.6,0,0,0,394.79,201.79Z"/><polygon id="_Path_152" data-name="&lt;Path&gt;" class="cls-18" points="393.91 202 392.37 201.86 393.68 203.87 393.16 202.17 393.91 202"/></g><polygon id="_Path_153" data-name="&lt;Path&gt;" class="cls-18" points="401.71 202.09 401.92 205.29 402.59 205.08 401.71 202.09"/><path id="_Path_154" data-name="&lt;Path&gt;" class="cls-43" d="M404.11,206.26a3.14,3.14,0,0,1-1.8.74h0a3.39,3.39,0,0,1-1.92-.35"/><rect id="_Rectangle_15" data-name="&lt;Rectangle&gt;" class="cls-10" x="393.92" y="217.56" width="4.23" height="1.91" transform="translate(-9.56 18.3) rotate(-2.61)"/><path id="_Path_155" data-name="&lt;Path&gt;" class="cls-2" d="M392.75,213.42h0a1.91,1.91,0,0,0-2.49,1.08l-6,15.46a1.93,1.93,0,0,0,1.07,2.51h0a1.91,1.91,0,0,0,2.49-1.08l6-15.46A1.93,1.93,0,0,0,392.75,213.42Z"/><path id="_Path_156" data-name="&lt;Path&gt;" class="cls-10" d="M390.18,226.82l-4.49-1.76L390,213.77a2.41,2.41,0,0,1,3.12-1.38h0a2.44,2.44,0,0,1,1.37,3.14Z"/><path id="_Path_157" data-name="&lt;Path&gt;" class="cls-9" d="M402.95,233.81a32.55,32.55,0,0,1,3.42,1.36c1.13-1.08-.44-2.56-.44-2.56Z"/><rect class="cls-4" x="376.72" y="238.96" width="73.08" height="5.85"/><rect class="cls-5" x="394.67" y="244.13" width="37.61" height="26.46"/><rect class="cls-5" x="368.02" y="237.26" width="90.47" height="2.12"/><rect class="cls-5" x="373.75" y="242.55" width="22.04" height="29.63"/><path class="cls-24" d="M394.73,243.6v27.52H374.81V243.6h19.92m2.12-2.12H372.69v31.75h24.15V241.49Z"/><rect class="cls-5" x="431.16" y="242.55" width="22.04" height="29.63"/><path class="cls-24" d="M452.14,243.6v27.52H432.22V243.6h19.92m2.12-2.12H430.11v31.75h24.15V241.49Z"/><rect class="cls-13" x="415.93" y="211.25" width="24.62" height="19.5" rx="1.62" ry="1.62"/><path class="cls-36" d="M428.24,221.37h0a2.77,2.77,0,0,1,2.77,2.77v11.5a0,0,0,0,1,0,0h-5.54a0,0,0,0,1,0,0v-11.5A2.77,2.77,0,0,1,428.24,221.37Z"/><rect class="cls-13" x="421.65" y="235.25" width="13.17" height="2" rx="1" ry="1"/><rect class="cls-13" x="378.58" y="235.25" width="24.54" height="2" rx="1" ry="1"/><path class="cls-37" d="M422.77,223.12v8a5.26,5.26,0,0,1-5.26,5.26h-8.94"/><circle class="cls-20" cx="422.77" cy="223.12" r="0.58"/><path class="cls-3" d="M403.84,233.88h5.88a.58.58,0,0,1,.58.58v0a2.8,2.8,0,0,1-2.8,2.8h-1.44a2.8,2.8,0,0,1-2.8-2.8v0a.58.58,0,0,1,.58-.58Z" transform="translate(813.55 471.13) rotate(180)"/><path id="_Path_158" data-name="&lt;Path&gt;" class="cls-2" d="M384.3,230.54h0a1.92,1.92,0,0,0,1.63,2.18l16.3,2.14a1.92,1.92,0,0,0,2.16-1.64h0a1.92,1.92,0,0,0-1.63-2.18l-16.3-2.14A1.92,1.92,0,0,0,384.3,230.54Z"/><path id="_Path_159" data-name="&lt;Path&gt;" class="cls-2" d="M402,231.23l3.88-.48a14.59,14.59,0,0,1,3.44,2.14,6.07,6.07,0,0,1,1,3.09c0,.87-3.85-1.24-3.85-1.24l-3.57-.09Z"/><path id="_Path_160" data-name="&lt;Path&gt;" class="cls-9" d="M665.44,218.18A30.7,30.7,0,0,0,668,215.9c1.33.6.4,2.41.4,2.41Z"/><path id="_Path_161" data-name="&lt;Path&gt;" class="cls-2" d="M649.16,225.15h0a1.8,1.8,0,0,0,2.27,1.16l14.72-4.9a1.8,1.8,0,0,0,1.16-2.27h0A1.8,1.8,0,0,0,665,218l-14.72,4.9A1.8,1.8,0,0,0,649.16,225.15Z"/><path id="_Path_162" data-name="&lt;Path&gt;" class="cls-2" d="M665.7,221.54l3.58-.79a13.8,13.8,0,0,0,2.37-3,5.73,5.73,0,0,0,0-3.07c-.24-.78-3,2.31-3,2.31l-3.92,1.39Z"/><rect class="cls-11" x="616.95" y="220.69" width="27.69" height="33.13" rx="7.72" ry="7.72"/><path id="_Path_163" data-name="&lt;Path&gt;" class="cls-2" d="M635.23,216.42h0a1.8,1.8,0,0,0,.71,2.45l13.64,7.38a1.8,1.8,0,0,0,2.45-.71h0a1.8,1.8,0,0,0-.71-2.45l-13.64-7.38A1.8,1.8,0,0,0,635.23,216.42Z"/><path id="_Path_164" data-name="&lt;Path&gt;" class="cls-30" d="M647.37,220.4l-2.16,4-10-5.36a2.27,2.27,0,0,1-.91-3.07h0a2.27,2.27,0,0,1,3.07-.91Z"/><path id="_Rectangle_16" data-name="&lt;Rectangle&gt;" class="cls-31" d="M622.85,214.78h17.51a0,0,0,0,1,0,0V244a6.17,6.17,0,0,1-6.17,6.17h-5a6.38,6.38,0,0,1-6.38-6.38V214.78A0,0,0,0,1,622.85,214.78Z" transform="translate(1259.53 474.77) rotate(-179.11)"/><rect id="_Rectangle_17" data-name="&lt;Rectangle&gt;" class="cls-10" x="626.65" y="221.59" width="4.31" height="1.93" transform="translate(4.07 -11.17) rotate(1.02)"/><path id="_Path_165" data-name="&lt;Path&gt;" class="cls-2" d="M624.38,216.59h0a1.8,1.8,0,0,0-1.54,2L625.13,234a1.8,1.8,0,0,0,2,1.54h0a1.8,1.8,0,0,0,1.54-2l-2.29-15.34A1.8,1.8,0,0,0,624.38,216.59Z"/><path id="_Path_166" data-name="&lt;Path&gt;" class="cls-30" d="M628.49,228.68l-4.49.66-1.7-11.19a2.27,2.27,0,0,1,1.91-2.57h0a2.27,2.27,0,0,1,2.57,1.91Z"/><path id="_Path_167" data-name="&lt;Path&gt;" class="cls-2" d="M625.12,234h0a1.8,1.8,0,0,0,1.89,1.71l15.49-.91a1.8,1.8,0,0,0,1.71-1.89h0a1.8,1.8,0,0,0-1.89-1.71l-15.49.91A1.8,1.8,0,0,0,625.12,234Z"/><path id="_Path_168" data-name="&lt;Path&gt;" class="cls-9" d="M643.2,234.61a30.7,30.7,0,0,1,3.37.8c.9-1.15-.77-2.32-.77-2.32Z"/><ellipse id="_Path_169" data-name="&lt;Path&gt;" class="cls-30" cx="631.94" cy="215.28" rx="2.97" ry="1.93" transform="translate(-0.28 0.82) rotate(-0.07)"/><path id="_Path_170" data-name="&lt;Path&gt;" class="cls-2" d="M631.66,209.48h-.06a1.57,1.57,0,0,1,1.72,1.45l.36,3.44c.09.89-.54,1.24-1.43,1.33h0c-.89.09-1.61-.11-1.71-1l-.36-3.44A1.62,1.62,0,0,1,631.66,209.48Z"/><path id="_Path_171" data-name="&lt;Path&gt;" class="cls-15" d="M634,213.8c-4.67.35-7.23-3.06-8.08-7.34-.9-4.51,2.06-8.31,5.72-8.39,4.17-.1,6.64,1.48,7.08,6.06.27,2.87-.48,8.66-4.72,9.68Z"/><path id="_Path_172" data-name="&lt;Path&gt;" class="cls-39" d="M625.52,200.29a10.6,10.6,0,0,0-.3,3.91,1.08,1.08,0,0,1,.92-.25l.15,0h0l.07,0,.07,0,.08,0,.05,0,.09,0,.07,0,.07,0,.07,0,.07.05.13.12h0l0,0v0l0,0h0l0,2a.88.88,0,0,0,.22.66l.09.1a1.41,1.41,0,0,0,.6.16,1,1,0,0,0,1-1v-.7a1,1,0,0,1,.91-1l.18,0c0-.8,0-1.44,0-1.83s.16-.82,1.24-.95h0l.3,0h0l.63,0,5-.1.06,0a2.46,2.46,0,0,0,1.34-1,1.48,1.48,0,0,0,.26-1l-1.38,0a2.8,2.8,0,0,0,.69-1.21,6.54,6.54,0,0,0,.29-1.52l-2.29,0a8.16,8.16,0,0,0-4.87-1.35c-4,.42-5.28,3-5.28,3a4.33,4.33,0,0,0-1.74-.27A3.7,3.7,0,0,1,625.52,200.29Z"/><path id="_Path_173" data-name="&lt;Path&gt;" class="cls-40" d="M631.74,201.92l.63,0,5-.1.06,0a2.46,2.46,0,0,0,1.34-1,1.48,1.48,0,0,0,.26-1s-1.16,1.36-1.92,1.51H637C636.26,201.49,632.86,201.82,631.74,201.92Z"/><path id="_Path_174" data-name="&lt;Path&gt;" class="cls-14" d="M634.55,210.37c1,0,1.8-.56,1.79-1.16v-.14l-3.73.07v.14c0,.54.59,1.11,1.64,1.09Z"/><path id="_Path_175" data-name="&lt;Path&gt;" class="cls-40" d="M638.6,197.13s-.85,2-2.09,2.58c-1.05.46-6.25.73-6.25.73a8.87,8.87,0,0,0,1.62.35c.47,0,5,.09,5.75-.93A4.46,4.46,0,0,0,638.6,197.13Z"/><g id="_Group_18" data-name="&lt;Group&gt;"><line id="_Path_176" data-name="&lt;Path&gt;" class="cls-39" x1="637.73" y1="203.61" x2="636.06" y2="203.56"/><path id="_Path_177" data-name="&lt;Path&gt;" class="cls-39" d="M637.78,203.88a.28.28,0,0,0,0-.55l-1.67-.05a.28.28,0,1,0,0,.56l1.67.05Z"/></g><g id="_Group_19" data-name="&lt;Group&gt;"><line id="_Path_178" data-name="&lt;Path&gt;" class="cls-39" x1="633.01" y1="203.62" x2="631.34" y2="203.74"/><path id="_Path_179" data-name="&lt;Path&gt;" class="cls-39" d="M633,203.34a.28.28,0,0,1,0,.56l-1.67.12a.28.28,0,0,1,0-.56l1.67-.12Z"/></g><circle id="_Path_180" data-name="&lt;Path&gt;" cx="632.42" cy="205.44" r="0.38" transform="translate(-4.01 12.77) rotate(-1.15)"/><circle id="_Path_181" data-name="&lt;Path&gt;" cx="636.81" cy="205.48" r="0.38" transform="translate(-4.01 12.85) rotate(-1.15)"/><polygon id="_Path_182" data-name="&lt;Path&gt;" class="cls-18" points="634.47 205.23 634.47 207.62 635.17 207.49 634.47 205.23"/><path id="_Path_183" data-name="&lt;Path&gt;" class="cls-41" d="M631,206a2,2,0,0,0,1.17.32h0a2.11,2.11,0,0,0,1.16-.37"/><path id="_Path_184" data-name="&lt;Path&gt;" class="cls-41" d="M635.66,205.88a2,2,0,0,0,1.17.32h0a2.11,2.11,0,0,0,1.16-.37"/><g id="_Group_20" data-name="&lt;Group&gt;"><path id="_Path_185" data-name="&lt;Path&gt;" class="cls-15" d="M627.14,204.52a2.22,2.22,0,0,0-.79-.79c-1.21-.8-2.59-.11-2,1.3.39,1,1.07,3.42,1.83,2.52A4.71,4.71,0,0,0,627.14,204.52Z"/><polygon id="_Path_186" data-name="&lt;Path&gt;" class="cls-18" points="626.23 204.69 624.65 204.45 625.88 206.58 625.44 204.82 626.23 204.69"/></g><rect class="cls-13" x="641.89" y="235.25" width="24.54" height="2" rx="1" ry="1"/><rect class="cls-4" x="612.42" y="238.96" width="73.08" height="5.85"/><rect class="cls-5" x="630.37" y="244.13" width="37.61" height="26.46"/><rect class="cls-5" x="603.73" y="237.26" width="90.47" height="2.12"/><rect class="cls-5" x="609.45" y="242.55" width="22.04" height="29.63"/><path class="cls-24" d="M630.43,243.6v27.52H610.51V243.6h19.92m2.12-2.12H608.4v31.75h24.15V241.49Z"/><rect class="cls-5" x="666.87" y="242.55" width="22.04" height="29.63"/><path class="cls-24" d="M687.85,243.6v27.52H667.93V243.6h19.92m2.12-2.12H665.81v31.75H690V241.49Z"/><path class="cls-3" d="M660.15,233.88h1.44a2.8,2.8,0,0,1,2.8,2.8v0a.58.58,0,0,1-.58.58h-5.88a.58.58,0,0,1-.58-.58v0a2.8,2.8,0,0,1,2.8-2.8Z"/><rect class="cls-13" x="661.97" y="211.25" width="24.62" height="19.5" rx="1.62" ry="1.62"/><path class="cls-36" d="M674.28,221.37h0a2.77,2.77,0,0,1,2.77,2.77v11.5a0,0,0,0,1,0,0h-5.54a0,0,0,0,1,0,0v-11.5A2.77,2.77,0,0,1,674.28,221.37Z"/><rect class="cls-13" x="667.69" y="235.25" width="13.17" height="2" rx="1" ry="1"/><path class="cls-37" d="M668.81,223.12v8a5.26,5.26,0,0,1-5.26,5.26h0"/><circle class="cls-20" cx="668.81" cy="223.12" r="0.58"/><path class="cls-30" d="M646.42,228.33H651a1,1,0,0,1,1,1v7.93a0,0,0,0,1,0,0h-6.54a0,0,0,0,1,0,0v-7.93A1,1,0,0,1,646.42,228.33Z" transform="translate(1297.39 465.59) rotate(-180)"/><path id="_Path_187" data-name="&lt;Path&gt;" class="cls-2" d="M641.82,231.22l3.53-1a13.8,13.8,0,0,1,3.49,1.53,5.74,5.74,0,0,1,1.4,2.73c.15.8-3.75-.64-3.75-.64l-3.55.79Z"/><line class="cls-26" x1="648.96" y1="158.49" x2="648.96" y2="185.23"/><line class="cls-26" x1="531.11" y1="158.49" x2="531.11" y2="185.23"/><line class="cls-26" x1="413.26" y1="158.49" x2="413.26" y2="185.23"/><line class="cls-26" x1="295.4" y1="158.49" x2="295.4" y2="185.23"/><line class="cls-26" x1="177.55" y1="158.49" x2="177.55" y2="185.23"/><line class="cls-26" x1="59.7" y1="158.49" x2="59.7" y2="185.23"/><rect class="cls-11" x="30.15" y="220.69" width="27.69" height="33.13" rx="7.72" ry="7.72"/><path id="_Path_188" data-name="&lt;Path&gt;" class="cls-2" d="M68.59,211.28h0a1.91,1.91,0,0,1-2.7-.18L55.16,198.5a1.94,1.94,0,0,1,.18-2.72h0a1.91,1.91,0,0,1,2.7.18l10.72,12.59A1.94,1.94,0,0,1,68.59,211.28Z"/><path id="_Path_189" data-name="&lt;Path&gt;" class="cls-9" d="M55.16,198.5a32.75,32.75,0,0,0-2.46-2.75c.62-1.43,2.56-.46,2.56-.46Z"/><path id="_Path_190" data-name="&lt;Path&gt;" class="cls-2" d="M58.7,198.21l-.89-3.81a14.67,14.67,0,0,0-3.2-2.49,6.05,6.05,0,0,0-3.26.08c-.83.27,2.49,3.19,2.49,3.19l1.33,3.33Z"/><path id="_Path_191" data-name="&lt;Path&gt;" class="cls-2" d="M49.44,214.61h0A1.92,1.92,0,0,0,51.78,216l15.9-4.35A1.93,1.93,0,0,0,69,209.28h0a1.92,1.92,0,0,0-2.34-1.38l-15.9,4.35A1.93,1.93,0,0,0,49.44,214.61Z"/><path id="_Path_192" data-name="&lt;Path&gt;" class="cls-3" d="M61.68,208.73l1.26,4.68-11.59,3.21a2.41,2.41,0,0,1-3-1.71h0a2.43,2.43,0,0,1,1.7-3Z"/><path id="_Rectangle_18" data-name="&lt;Rectangle&gt;" class="cls-20" d="M37.25,210.65H54.43a0,0,0,0,1,0,0v28.91a6.07,6.07,0,0,1-6.07,6.07H43.53a6.28,6.28,0,0,1-6.28-6.28V210.65A0,0,0,0,1,37.25,210.65Z" transform="translate(102.57 453.82) rotate(177.25)"/><path id="_Path_193" data-name="&lt;Path&gt;" class="cls-3" d="M48.18,212.55c.3-.91-.59-2-2-2.49s-2.77-.1-3.06.81.59,2,2,2.49S47.89,213.46,48.18,212.55Z"/><path id="_Path_194" data-name="&lt;Path&gt;" class="cls-2" d="M47.06,206.68h0a1.42,1.42,0,0,1,1.06,1.72l-.66,3c-.17.79-.81.9-1.59.73h0c-.78-.17-1.34-.55-1.17-1.34l.66-3A1.45,1.45,0,0,1,47.06,206.68Z"/><path id="_Path_195" data-name="&lt;Path&gt;" class="cls-15" d="M48.75,210.87c-4.53-.74-6.18-4.59-6-8.88.17-4.52,3.85-7.49,7.36-6.73,4,.86,6,2.94,5.35,7.42-.39,2.81-2.43,8.18-6.7,8.19Z"/><path id="_Path_196" data-name="&lt;Path&gt;" class="cls-5" d="M43.39,196.16A11.06,11.06,0,0,0,42.14,200a1.11,1.11,0,0,1,1,0l.14.07h0l.07,0,.07,0,.07.05,0,0,.08.07.06.06.06.06.05.07.05.07.1.15h0l0,0v0h0a.06.06,0,0,1,0,0l-.43,2a.92.92,0,0,0,.07.72,1.12,1.12,0,0,0,.07.12,1.45,1.45,0,0,0,.57.31,1.06,1.06,0,0,0,1.25-.72l.16-.72a1.05,1.05,0,0,1,1.17-.83l.18,0c.19-.81.32-1.46.4-1.86s.35-.79,1.47-.66h0l.31,0h0l.64.12,5,1.1H55a2.53,2.53,0,0,0,1.58-.65A1.55,1.55,0,0,0,57,199l-1.39-.31a2.9,2.9,0,0,0,1-1.06,6.82,6.82,0,0,0,.65-1.46L55,195.62a8.42,8.42,0,0,0-4.56-2.55c-4.12-.55-6,1.78-6,1.78a4.45,4.45,0,0,0-1.68-.7A3.86,3.86,0,0,1,43.39,196.16Z"/><path id="_Path_197" data-name="&lt;Path&gt;" class="cls-44" d="M49.24,199.32l.64.12,5,1.1H55a2.53,2.53,0,0,0,1.58-.65A1.55,1.55,0,0,0,57,199,5.66,5.66,0,0,1,54.75,200h-.06C53.88,200,50.39,199.48,49.24,199.32Z"/><g id="_Group_21" data-name="&lt;Group&gt;"><line id="_Path_198" data-name="&lt;Path&gt;" class="cls-5" x1="53.69" y1="202.82" x2="52.12" y2="202.39"/><path id="_Path_199" data-name="&lt;Path&gt;" class="cls-5" d="M53.67,203.09a.27.27,0,0,0,.09-.54l-1.57-.43a.27.27,0,0,0-.14.53l1.57.43Z"/></g><g id="_Group_22" data-name="&lt;Group&gt;"><line id="_Path_200" data-name="&lt;Path&gt;" class="cls-5" x1="49.56" y1="201.82" x2="47.96" y2="201.56"/><path id="_Path_201" data-name="&lt;Path&gt;" class="cls-5" d="M49.66,201.57a.27.27,0,0,1-.14.52l-1.6-.27a.27.27,0,0,1,.09-.54l1.6.27Z"/></g><circle id="_Path_202" data-name="&lt;Path&gt;" cx="48.59" cy="203.42" r="0.37" transform="translate(-160.51 207.23) rotate(-77.61)"/><circle id="_Path_203" data-name="&lt;Path&gt;" cx="52.39" cy="204.38" r="0.37" transform="translate(-158.47 211.69) rotate(-77.61)"/><path id="_Path_204" data-name="&lt;Path&gt;" class="cls-44" d="M57.28,196.13s-1.34,1.85-2.72,2.1c-1.17.21-6.45-.78-6.45-.78a9.13,9.13,0,0,0,1.54.75c.47.15,5,1.31,6,.45A4.63,4.63,0,0,0,57.28,196.13Z"/><g id="_Group_23" data-name="&lt;Group&gt;"><path id="_Path_205" data-name="&lt;Path&gt;" class="cls-15" d="M44.11,201a2.17,2.17,0,0,0-.56-.93c-1-1-2.42-.69-2.21.78.15,1,.24,3.5,1.16,2.82A4.6,4.6,0,0,0,44.11,201Z"/><polygon id="_Path_206" data-name="&lt;Path&gt;" class="cls-18" points="43.21 200.98 41.77 200.4 42.45 202.7 42.44 200.93 43.21 200.98"/></g><polygon id="_Path_207" data-name="&lt;Path&gt;" class="cls-18" points="50.65 203.33 49.92 206.45 50.62 206.45 50.65 203.33"/><path id="_Path_208" data-name="&lt;Path&gt;" class="cls-43" d="M51.74,208a3.14,3.14,0,0,1-1.94.19h0a3.39,3.39,0,0,1-1.73-.89"/><rect id="_Rectangle_19" data-name="&lt;Rectangle&gt;" class="cls-10" x="40.36" y="217.56" width="4.23" height="1.91" transform="translate(-9.93 2.17) rotate(-2.61)"/><path id="_Path_209" data-name="&lt;Path&gt;" class="cls-2" d="M39.19,213.42h0a1.91,1.91,0,0,0-2.49,1.08l-6,15.46a1.93,1.93,0,0,0,1.07,2.51h0a1.91,1.91,0,0,0,2.49-1.08l6-15.46A1.93,1.93,0,0,0,39.19,213.42Z"/><path id="_Path_210" data-name="&lt;Path&gt;" class="cls-3" d="M36.62,226.82l-4.49-1.76,4.32-11.29a2.41,2.41,0,0,1,3.12-1.38h0a2.44,2.44,0,0,1,1.37,3.14Z"/><path id="_Path_211" data-name="&lt;Path&gt;" class="cls-2" d="M30.62,231h0a1.93,1.93,0,0,1,1.74-2.09l16.42-1.29a1.92,1.92,0,0,1,2.08,1.75h0a1.93,1.93,0,0,1-1.74,2.09L32.7,232.77A1.92,1.92,0,0,1,30.62,231Z"/><path id="_Path_212" data-name="&lt;Path&gt;" class="cls-9" d="M49.39,227.87a32.55,32.55,0,0,0,3.42-1.36c1.13,1.08-.44,2.56-.44,2.56Z"/><rect class="cls-4" x="23.16" y="238.96" width="73.08" height="5.85"/><rect class="cls-5" x="41.11" y="244.13" width="37.61" height="26.46"/><rect class="cls-5" x="14.47" y="237.26" width="90.47" height="2.12"/><rect class="cls-5" x="20.19" y="242.55" width="22.04" height="29.63"/><path class="cls-24" d="M41.17,243.6v27.52H21.25V243.6H41.17m2.12-2.12H19.14v31.75H43.29V241.49Z"/><rect class="cls-5" x="77.61" y="242.55" width="22.04" height="29.63"/><path class="cls-24" d="M98.59,243.6v27.52H78.67V243.6H98.59m2.12-2.12H76.55v31.75H100.7V241.49Z"/><rect class="cls-13" x="60.69" y="211.25" width="24.62" height="19.5" rx="1.62" ry="1.62"/><path class="cls-36" d="M73,221.37h0a2.77,2.77,0,0,1,2.77,2.77v11.5a0,0,0,0,1,0,0H70.23a0,0,0,0,1,0,0v-11.5A2.77,2.77,0,0,1,73,221.37Z"/><rect class="cls-13" x="66.41" y="235.25" width="13.17" height="2" rx="1" ry="1"/><rect class="cls-13" x="25.03" y="235.25" width="24.54" height="2" rx="1" ry="1"/><path class="cls-37" d="M67.53,223.12v8a5.26,5.26,0,0,1-5.26,5.26h0"/><circle class="cls-20" cx="67.53" cy="223.12" r="0.58"/><path class="cls-37" d="M57.07,225.07v6.09a5.26,5.26,0,0,0,5.26,5.26h0"/><path class="cls-3" d="M53.44,224.18h1.44a2.8,2.8,0,0,1,2.8,2.8v0a.58.58,0,0,1-.58.58H51.22a.58.58,0,0,1-.58-.58v0a2.8,2.8,0,0,1,2.8-2.8Z" transform="translate(125.62 446.87) rotate(175.56)"/><path id="_Path_213" data-name="&lt;Path&gt;" class="cls-2" d="M48.45,231.3l3.88.48a14.59,14.59,0,0,0,3.44-2.14,6.07,6.07,0,0,0,1-3.09c0-.87-3.85,1.24-3.85,1.24l-3.57.09Z"/><rect class="cls-25" x="14.47" y="243.72" width="90.47" height="24.48" rx="7.19" ry="7.19"/><text class="cls-45" transform="translate(18.54 259.74)">Director of Products</text><rect class="cls-25" x="132.32" y="243.72" width="90.47" height="24.48" rx="7.19" ry="7.19"/><text class="cls-45" transform="translate(153.63 259.74)">VP - Design</text><rect class="cls-25" x="250.17" y="243.72" width="90.47" height="24.48" rx="7.19" ry="7.19"/><text class="cls-45" transform="translate(277.32 259.74)">VP - Mfg</text><rect class="cls-25" x="368.02" y="243.72" width="90.47" height="24.48" rx="7.19" ry="7.19"/><text class="cls-45" transform="translate(387.4 259.74)">VP - Finance</text><rect class="cls-25" x="485.88" y="243.72" width="90.47" height="24.48" rx="7.19" ry="7.19"/><text class="cls-45" transform="translate(500.29 259.74)">VP - Marketing</text><rect class="cls-25" x="603.73" y="243.72" width="90.47" height="24.48" rx="7.19" ry="7.19"/><text class="cls-45" transform="translate(612.61 259.74)">Human Resources</text><line class="cls-28" x1="14.47" y1="262.82" x2="14.47" y2="577.15"/><rect class="cls-11" x="37.09" y="310.2" width="25.12" height="30.05" rx="7" ry="7"/><path id="_Path_214" data-name="&lt;Path&gt;" class="cls-2" d="M61.15,320.47h0A1.73,1.73,0,0,1,60.9,318l9.61-11.52a1.76,1.76,0,0,1,2.46-.25h0a1.73,1.73,0,0,1,.25,2.45l-9.61,11.52A1.76,1.76,0,0,1,61.15,320.47Z"/><path id="_Path_215" data-name="&lt;Path&gt;" class="cls-9" d="M70.51,306.51a29.71,29.71,0,0,0,2.08-2.62c1.38.33.81,2.21.81,2.21Z"/><path id="_Path_216" data-name="&lt;Path&gt;" class="cls-2" d="M71.31,309.63l3.27-1.38A13.31,13.31,0,0,0,76.32,305a5.49,5.49,0,0,0-.57-2.9c-.37-.7-2.47,2.72-2.47,2.72l-2.77,1.69Z"/><path id="_Path_217" data-name="&lt;Path&gt;" class="cls-2" d="M55.23,303.87h0a1.74,1.74,0,0,0-.87,2.3l6.33,13.54a1.75,1.75,0,0,0,2.32.86h0a1.74,1.74,0,0,0,.87-2.3l-6.33-13.54A1.75,1.75,0,0,0,55.23,303.87Z"/><path id="_Path_218" data-name="&lt;Path&gt;" class="cls-3" d="M62.36,313.91l-4,1.84-4.65-9.87A2.19,2.19,0,0,1,54.8,303h0A2.21,2.21,0,0,1,57.72,304Z"/><path id="_Rectangle_20" data-name="&lt;Rectangle&gt;" class="cls-20" d="M43.54,301.1H59.12a0,0,0,0,1,0,0v26.22a5.51,5.51,0,0,1-5.51,5.51H49.23a5.69,5.69,0,0,1-5.69-5.69v-26a0,0,0,0,1,0,0Z" transform="translate(117.8 631.1) rotate(177.25)"/><path id="_Path_219" data-name="&lt;Path&gt;" class="cls-3" d="M53.72,302c0-.87-1-1.6-2.38-1.64s-2.43.64-2.45,1.51,1,1.6,2.38,1.64S53.7,302.85,53.72,302Z"/><path id="_Path_220" data-name="&lt;Path&gt;" class="cls-2" d="M51.19,297.18h0a1.28,1.28,0,0,1,1.37,1.22l.23,2.82c.06.73-.46,1-1.19,1.05h0c-.72.06-1.31-.13-1.36-.85L50,298.6A1.31,1.31,0,0,1,51.19,297.18Z"/><path id="_Path_221" data-name="&lt;Path&gt;" class="cls-15" d="M53.77,300.38c-4.12.55-6.58-2.36-7.56-6.13-1-4,1.37-7.51,4.62-7.78,3.69-.3,6,1,6.6,5,.4,2.55,0,7.74-3.66,8.87Z"/><path id="_Path_222" data-name="&lt;Path&gt;" class="cls-36" d="M45.24,289a10,10,0,0,0-.06,3.7,1,1,0,0,1,.84-.28l.14,0h0l.07,0,.07,0,.07,0,.05,0,.09,0,.07,0,.07,0,.07,0,.07,0,.12.1h0l0,0v0l0,0h0l.15,1.85a.84.84,0,0,0,.25.61l.09.09a1.32,1.32,0,0,0,.57.12,1,1,0,0,0,.89-1l-.05-.66a1,1,0,0,1,.8-1l.17,0c0-.75-.1-1.35-.14-1.72s.1-.78,1.11-1h0l.28,0h0l.59-.06,4.66-.36.05,0a2.3,2.3,0,0,0,1.2-1,1.4,1.4,0,0,0,.18-.95l-1.29.1a2.63,2.63,0,0,0,.57-1.18,6.18,6.18,0,0,0,.18-1.44l-2.14.17a7.64,7.64,0,0,0-4.63-1c-3.72.61-4.77,3.13-4.77,3.13a4,4,0,0,0-1.64-.16A3.5,3.5,0,0,1,45.24,289Z"/><path id="_Path_223" data-name="&lt;Path&gt;" class="cls-42" d="M51.15,290.22l.59-.06,4.66-.36.05,0a2.3,2.3,0,0,0,1.2-1,1.4,1.4,0,0,0,.18-.95s-1,1.34-1.71,1.53h-.05C55.35,289.56,52.19,290.06,51.15,290.22Z"/><g id="_Group_24" data-name="&lt;Group&gt;"><line id="_Path_224" data-name="&lt;Path&gt;" class="cls-36" x1="55.93" y1="292.08" x2="54.46" y2="292.12"/><path id="_Path_225" data-name="&lt;Path&gt;" class="cls-36" d="M56,292.33a.25.25,0,0,0-.06-.49l-1.48,0a.25.25,0,0,0,0,.49l1.48,0Z"/></g><g id="_Group_25" data-name="&lt;Group&gt;"><line id="_Path_226" data-name="&lt;Path&gt;" class="cls-36" x1="52.09" y1="292.31" x2="50.63" y2="292.5"/><path id="_Path_227" data-name="&lt;Path&gt;" class="cls-36" d="M52.11,292.06a.25.25,0,0,1,0,.49l-1.46.19a.25.25,0,0,1-.06-.49l1.46-.19Z"/></g><circle id="_Path_228" data-name="&lt;Path&gt;" cx="51.67" cy="293.95" r="0.33" transform="translate(-22.81 4.93) rotate(-4.48)"/><circle id="_Path_229" data-name="&lt;Path&gt;" cx="55.22" cy="293.78" r="0.33" transform="translate(-22.78 5.21) rotate(-4.48)"/><path id="_Path_230" data-name="&lt;Path&gt;" class="cls-42" d="M57.29,285.34a5.22,5.22,0,0,1-1.81,2.54c-1,.49-5.8,1-5.8,1a8.28,8.28,0,0,0,1.53.24c.45,0,4.73-.19,5.32-1.18A4.2,4.2,0,0,0,57.29,285.34Z"/><g id="_Group_26" data-name="&lt;Group&gt;"><path id="_Path_231" data-name="&lt;Path&gt;" class="cls-15" d="M47.15,293.06a2,2,0,0,0-.74-.66c-1.11-.65-2.28,0-1.72,1.26.4.85,1.13,3,1.74,2.14A4.18,4.18,0,0,0,47.15,293.06Z"/><polygon id="_Path_232" data-name="&lt;Path&gt;" class="cls-18" points="46.35 293.25 44.95 293.13 46.15 294.95 45.67 293.41 46.35 293.25"/></g><polygon id="_Path_233" data-name="&lt;Path&gt;" class="cls-18" points="53.43 293.33 53.62 296.23 54.23 296.04 53.43 293.33"/><path id="_Path_234" data-name="&lt;Path&gt;" class="cls-46" d="M55.61,297.12a2.85,2.85,0,0,1-1.63.67h0a3.07,3.07,0,0,1-1.74-.32"/><rect id="_Rectangle_21" data-name="&lt;Rectangle&gt;" class="cls-3" x="46.36" y="307.37" width="3.83" height="1.73" transform="translate(-14.01 2.52) rotate(-2.61)"/><path id="_Path_235" data-name="&lt;Path&gt;" class="cls-2" d="M45.3,303.61h0a1.73,1.73,0,0,0-2.26,1l-5.41,14a1.75,1.75,0,0,0,1,2.27h0a1.73,1.73,0,0,0,2.26-1l5.41-14A1.75,1.75,0,0,0,45.3,303.61Z"/><path id="_Path_236" data-name="&lt;Path&gt;" class="cls-3" d="M43,315.76l-4.07-1.6,3.92-10.24a2.19,2.19,0,0,1,2.83-1.25h0a2.21,2.21,0,0,1,1.24,2.85Z"/><path id="_Path_237" data-name="&lt;Path&gt;" class="cls-9" d="M54.55,322.11a29.52,29.52,0,0,1,3.1,1.23c1-1-.4-2.32-.4-2.32Z"/><rect class="cls-4" x="30.76" y="326.77" width="66.29" height="5.31"/><rect class="cls-5" x="47.04" y="331.47" width="34.12" height="24"/><rect class="cls-5" x="22.87" y="325.23" width="82.06" height="1.93"/><rect class="cls-5" x="28.07" y="330.03" width="19.99" height="26.88"/><path class="cls-24" d="M47.09,331v25H29V331H47.09M49,329.07H27.11v28.8H49v-28.8Z"/><rect class="cls-5" x="80.15" y="330.03" width="19.99" height="26.88"/><path class="cls-24" d="M99.17,331v25H81.11V331H99.17m1.92-1.92H79.19v28.8h21.91v-28.8Z"/><rect class="cls-13" x="66.33" y="301.64" width="22.33" height="17.69" rx="1.47" ry="1.47"/><path class="cls-36" d="M77.49,310.82h0A2.51,2.51,0,0,1,80,313.33v10.43a0,0,0,0,1,0,0H75a0,0,0,0,1,0,0V313.33A2.51,2.51,0,0,1,77.49,310.82Z"/><rect class="cls-13" x="71.52" y="323.42" width="11.95" height="1.82" rx="0.91" ry="0.91"/><rect class="cls-13" x="32.45" y="323.42" width="22.26" height="1.82" rx="0.91" ry="0.91"/><path class="cls-47" d="M72.53,312.41v7.29a4.77,4.77,0,0,1-4.77,4.77H59.66"/><circle class="cls-20" cx="72.53" cy="312.41" r="0.53"/><path class="cls-3" d="M55.36,322.17h5.33a.53.53,0,0,1,.53.53v0a2.54,2.54,0,0,1-2.54,2.54H57.37a2.54,2.54,0,0,1-2.54-2.54v0a.53.53,0,0,1,.53-.53Z" transform="translate(116.05 647.4) rotate(-180)"/><path id="_Path_238" data-name="&lt;Path&gt;" class="cls-2" d="M37.63,319.14h0a1.74,1.74,0,0,0,1.47,2l14.78,1.94a1.74,1.74,0,0,0,2-1.49h0a1.74,1.74,0,0,0-1.47-2l-14.78-1.94A1.74,1.74,0,0,0,37.63,319.14Z"/><path id="_Path_239" data-name="&lt;Path&gt;" class="cls-2" d="M53.69,319.77l3.52-.44a13.24,13.24,0,0,1,3.12,1.95,5.51,5.51,0,0,1,1,2.8c0,.79-3.49-1.12-3.49-1.12l-3.24-.08Z"/><rect class="cls-48" x="22.87" y="331.09" width="82.06" height="22.2" rx="6.52" ry="6.52"/><text class="cls-49" transform="translate(28.68 345.62)">Product Manager A</text><path id="_Path_240" data-name="&lt;Path&gt;" class="cls-9" d="M78.85,464A27.85,27.85,0,0,0,81.21,462c1.21.54.36,2.19.36,2.19Z"/><path id="_Path_241" data-name="&lt;Path&gt;" class="cls-2" d="M64.08,470.36h0a1.64,1.64,0,0,0,2.06,1.06L79.49,467a1.64,1.64,0,0,0,1.06-2.06h0a1.64,1.64,0,0,0-2.06-1.06L65.14,468.3A1.64,1.64,0,0,0,64.08,470.36Z"/><path id="_Path_242" data-name="&lt;Path&gt;" class="cls-2" d="M79.08,467.08l3.24-.72a12.52,12.52,0,0,0,2.15-2.71,5.2,5.2,0,0,0,0-2.79c-.22-.71-2.74,2.09-2.74,2.09l-3.55,1.26Z"/><rect class="cls-11" x="34.87" y="466.31" width="25.12" height="30.05" rx="7" ry="7"/><path id="_Path_243" data-name="&lt;Path&gt;" class="cls-2" d="M51.45,462.44h0a1.64,1.64,0,0,0,.64,2.22l12.38,6.7a1.64,1.64,0,0,0,2.22-.64h0a1.64,1.64,0,0,0-.64-2.22l-12.38-6.7A1.64,1.64,0,0,0,51.45,462.44Z"/><path id="_Path_244" data-name="&lt;Path&gt;" class="cls-3" d="M62.46,466l-2,3.61-9-4.86a2.06,2.06,0,0,1-.83-2.79h0a2.06,2.06,0,0,1,2.79-.83Z"/><path id="_Rectangle_22" data-name="&lt;Rectangle&gt;" class="cls-20" d="M40.22,460.95H56.1a0,0,0,0,1,0,0v26.54a5.6,5.6,0,0,1-5.6,5.6H46a5.78,5.78,0,0,1-5.78-5.78V460.95a0,0,0,0,1,0,0Z" transform="translate(88.91 954.72) rotate(-179.11)"/><rect id="_Rectangle_23" data-name="&lt;Rectangle&gt;" class="cls-10" x="43.66" y="467.12" width="3.91" height="1.75" transform="translate(8.35 -0.74) rotate(1.02)"/><path id="_Path_245" data-name="&lt;Path&gt;" class="cls-2" d="M41.61,462.59h0a1.64,1.64,0,0,0-1.4,1.85l2.07,13.92a1.64,1.64,0,0,0,1.85,1.4h0a1.64,1.64,0,0,0,1.4-1.85L43.46,464A1.64,1.64,0,0,0,41.61,462.59Z"/><path id="_Path_246" data-name="&lt;Path&gt;" class="cls-3" d="M45.33,473.56l-4.07.6L39.72,464a2.06,2.06,0,0,1,1.73-2.33h0a2.06,2.06,0,0,1,2.33,1.73Z"/><path id="_Path_247" data-name="&lt;Path&gt;" class="cls-2" d="M42.28,478.41h0A1.64,1.64,0,0,0,44,480l14-.82a1.64,1.64,0,0,0,1.55-1.72h0a1.64,1.64,0,0,0-1.72-1.55l-14,.82A1.64,1.64,0,0,0,42.28,478.41Z"/><path id="_Path_248" data-name="&lt;Path&gt;" class="cls-9" d="M58.67,478.94a27.85,27.85,0,0,1,3.05.73c.82-1-.7-2.11-.7-2.11Z"/><ellipse id="_Path_249" data-name="&lt;Path&gt;" class="cls-3" cx="48.46" cy="461.41" rx="2.69" ry="1.75" transform="translate(-0.6 0.06) rotate(-0.07)"/><path id="_Path_250" data-name="&lt;Path&gt;" class="cls-2" d="M48.21,456.14h-.05a1.43,1.43,0,0,1,1.56,1.31l.33,3.12c.08.81-.49,1.12-1.3,1.21h0c-.81.08-1.46-.1-1.55-.91l-.33-3.12A1.47,1.47,0,0,1,48.21,456.14Z"/><path id="_Path_251" data-name="&lt;Path&gt;" class="cls-15" d="M50.36,460.06c-4.24.31-6.56-2.78-7.33-6.66-.81-4.09,1.87-7.54,5.19-7.61,3.79-.09,6,1.34,6.42,5.49.25,2.61-.43,7.85-4.28,8.78Z"/><path id="_Path_252" data-name="&lt;Path&gt;" class="cls-39" d="M42.64,447.8a9.61,9.61,0,0,0-.28,3.55,1,1,0,0,1,.83-.23l.13,0h0l.07,0,.07,0,.07,0,0,0,.08,0,.06,0,.06,0,.06,0,.06,0,.11.11h0l0,0v0h0l0,1.79a.8.8,0,0,0,.2.6l.08.09a1.28,1.28,0,0,0,.55.15.93.93,0,0,0,.92-.87v-.64a.92.92,0,0,1,.83-.94h.16c0-.73,0-1.3,0-1.66s.14-.74,1.13-.86h0l.28,0h0l.57,0,4.52-.09h.05a2.23,2.23,0,0,0,1.22-.87,1.35,1.35,0,0,0,.23-.9l-1.25,0a2.54,2.54,0,0,0,.62-1.1,5.93,5.93,0,0,0,.26-1.38l-2.08,0A7.4,7.4,0,0,0,48,443.75c-3.64.38-4.79,2.74-4.79,2.74a3.93,3.93,0,0,0-1.58-.25A3.36,3.36,0,0,1,42.64,447.8Z"/><path id="_Path_253" data-name="&lt;Path&gt;" class="cls-40" d="M48.28,449.29l.57,0,4.52-.09h.05a2.23,2.23,0,0,0,1.22-.87,1.35,1.35,0,0,0,.23-.9s-1.05,1.24-1.74,1.37h-.05C52.38,448.89,49.29,449.19,48.28,449.29Z"/><path id="_Path_254" data-name="&lt;Path&gt;" class="cls-14" d="M50.83,456.95c.88,0,1.64-.51,1.63-1v-.13l-3.38.07V456c0,.49.54,1,1.49,1Z"/><path id="_Path_255" data-name="&lt;Path&gt;" class="cls-40" d="M54.5,444.93s-.77,1.85-1.89,2.34c-1,.41-5.67.66-5.67.66a8,8,0,0,0,1.47.32c.43,0,4.58.08,5.21-.84A4,4,0,0,0,54.5,444.93Z"/><g id="_Group_27" data-name="&lt;Group&gt;"><line id="_Path_256" data-name="&lt;Path&gt;" class="cls-39" x1="53.72" y1="450.81" x2="52.2" y2="450.77"/><path id="_Path_257" data-name="&lt;Path&gt;" class="cls-39" d="M53.76,451.06a.25.25,0,0,0,0-.5l-1.52,0a.25.25,0,1,0,0,.51l1.52,0Z"/></g><g id="_Group_28" data-name="&lt;Group&gt;"><line id="_Path_258" data-name="&lt;Path&gt;" class="cls-39" x1="49.44" y1="450.82" x2="47.92" y2="450.93"/><path id="_Path_259" data-name="&lt;Path&gt;" class="cls-39" d="M49.47,450.57a.25.25,0,0,1,0,.5l-1.52.11a.25.25,0,0,1,0-.51l1.52-.11Z"/></g><circle id="_Path_260" data-name="&lt;Path&gt;" cx="48.9" cy="452.47" r="0.34" transform="translate(-9.09 1.08) rotate(-1.15)"/><circle id="_Path_261" data-name="&lt;Path&gt;" cx="52.88" cy="452.51" r="0.34" transform="translate(-9.09 1.16) rotate(-1.15)"/><polygon id="_Path_262" data-name="&lt;Path&gt;" class="cls-18" points="50.76 452.28 50.75 454.45 51.39 454.33 50.76 452.28"/><path id="_Path_263" data-name="&lt;Path&gt;" class="cls-50" d="M47.63,453a1.78,1.78,0,0,0,1.06.29h0a1.92,1.92,0,0,0,1.05-.33"/><path id="_Path_264" data-name="&lt;Path&gt;" class="cls-50" d="M51.84,452.88a1.78,1.78,0,0,0,1.06.29h0a1.92,1.92,0,0,0,1.05-.33"/><g id="_Group_29" data-name="&lt;Group&gt;"><path id="_Path_265" data-name="&lt;Path&gt;" class="cls-15" d="M44.11,451.64a2,2,0,0,0-.71-.72c-1.1-.73-2.35-.1-1.84,1.18.35.89,1,3.11,1.66,2.29A4.27,4.27,0,0,0,44.11,451.64Z"/><polygon id="_Path_266" data-name="&lt;Path&gt;" class="cls-18" points="43.28 451.79 41.85 451.58 42.96 453.51 42.57 451.91 43.28 451.79"/></g><rect class="cls-13" x="57.49" y="479.52" width="22.26" height="1.82" rx="0.91" ry="0.91"/><rect class="cls-4" x="30.76" y="482.88" width="66.29" height="5.31"/><rect class="cls-5" x="47.04" y="487.57" width="34.12" height="24"/><rect class="cls-5" x="22.87" y="481.34" width="82.06" height="1.93"/><rect class="cls-5" x="28.07" y="486.14" width="19.99" height="26.88"/><path class="cls-24" d="M47.09,487.09v25H29v-25H47.09M49,485.18H27.11V514H49v-28.8Z"/><rect class="cls-5" x="80.15" y="486.14" width="19.99" height="26.88"/><path class="cls-24" d="M99.17,487.09v25H81.11v-25H99.17m1.92-1.92H79.19V514h21.91v-28.8Z"/><path class="cls-3" d="M74.05,478.27h1.31a2.54,2.54,0,0,1,2.54,2.54v0a.53.53,0,0,1-.53.53H72a.53.53,0,0,1-.53-.53v0A2.54,2.54,0,0,1,74.05,478.27Z"/><rect class="cls-13" x="75.7" y="457.74" width="22.33" height="17.69" rx="1.47" ry="1.47"/><path class="cls-36" d="M86.87,466.92h0a2.51,2.51,0,0,1,2.51,2.51v10.43a0,0,0,0,1,0,0h-5a0,0,0,0,1,0,0V469.43a2.51,2.51,0,0,1,2.51-2.51Z"/><rect class="cls-13" x="80.89" y="479.52" width="11.95" height="1.82" rx="0.91" ry="0.91"/><path class="cls-47" d="M81.91,468.51v7.29a4.77,4.77,0,0,1-4.77,4.77h0"/><circle class="cls-20" cx="81.91" cy="468.51" r="0.53"/><path class="cls-30" d="M61.6,473.24h4.12a.91.91,0,0,1,.91.91v7.2a0,0,0,0,1,0,0H60.69a0,0,0,0,1,0,0v-7.2A.91.91,0,0,1,61.6,473.24Z" transform="translate(127.32 954.58) rotate(-180)"/><path id="_Path_267" data-name="&lt;Path&gt;" class="cls-2" d="M57.42,475.86l3.2-.88a12.52,12.52,0,0,1,3.17,1.39,5.2,5.2,0,0,1,1.27,2.48c.14.73-3.4-.58-3.4-.58l-3.22.72Z"/><rect class="cls-48" x="22.87" y="487.2" width="82.06" height="22.2" rx="6.52" ry="6.52"/><text class="cls-49" transform="translate(28.81 501.73)">Product Manager C</text><path id="_Path_268" data-name="&lt;Path&gt;" class="cls-9" d="M70.15,375.29A25.82,25.82,0,0,1,72,373c-.54-1.11-2-.28-2-.28Z"/><rect class="cls-11" x="70.88" y="368.1" width="4.7" height="8.03" rx="1.09" ry="1.09" transform="translate(69.62 751.35) rotate(-168.32)"/><rect class="cls-6" x="71.44" y="369.04" width="3.58" height="6.14" transform="translate(69.62 751.35) rotate(-168.32)"/><rect class="cls-11" x="65.59" y="388.23" width="25.12" height="30.05" rx="7" ry="7" transform="translate(156.3 806.51) rotate(-180)"/><path id="_Path_269" data-name="&lt;Path&gt;" class="cls-9" d="M67.69,402.81a25.82,25.82,0,0,0-2.91-.12c-.46-1.14,1.16-1.7,1.16-1.7Z"/><path id="_Path_270" data-name="&lt;Path&gt;" class="cls-2" d="M77.06,381.64h0a1.52,1.52,0,0,1-.78,2l-12,5.11a1.52,1.52,0,0,1-2-.78h0a1.52,1.52,0,0,1,.78-2l12-5.11A1.52,1.52,0,0,1,77.06,381.64Z"/><path id="_Path_271" data-name="&lt;Path&gt;" class="cls-3" d="M66.16,384l1.5,3.51,8.77-3.7a1.91,1.91,0,0,0,1-2.5h0a1.91,1.91,0,0,0-2.5-1Z"/><path id="_Path_272" data-name="&lt;Path&gt;" class="cls-20" d="M84.4,380.48,75.2,380a3.29,3.29,0,0,0-3.47,3.1s.38,8.25.22,11c-.2,3.56-1.62,14.18-1.62,14.18l15.76.88s-.4-10.6-.2-14.12c.15-2.78,1.6-11.05,1.6-11.05A3.29,3.29,0,0,0,84.4,380.48Z"/><path id="_Path_273" data-name="&lt;Path&gt;" class="cls-10" d="M75.14,366.13s-1.52-.4-1.69,2.72a13.64,13.64,0,0,0,.23,3.08l2.48-2.57,2.47-.94-2.95-1.25Z"/><path id="_Path_274" data-name="&lt;Path&gt;" class="cls-15" d="M77,379.38c3.66.4,5.76-2.2,6.55-5.54.83-3.51-1.38-6.58-4.26-6.75-3.27-.19-5.25,1-5.72,4.56-.29,2.25.13,6.81,3.44,7.73Z"/><g id="_Group_30" data-name="&lt;Group&gt;"><line id="_Path_275" data-name="&lt;Path&gt;" class="cls-5" x1="74.23" y1="372.1" x2="75.57" y2="371.73"/><path id="_Path_276" data-name="&lt;Path&gt;" class="cls-5" d="M74.25,372.33a.23.23,0,0,1-.08-.45l1.34-.37a.23.23,0,0,1,.12.45l-1.34.37Z"/></g><g id="_Group_31" data-name="&lt;Group&gt;"><line id="_Path_277" data-name="&lt;Path&gt;" class="cls-5" x1="77.84" y1="371.91" x2="79.17" y2="372.31"/><path id="_Path_278" data-name="&lt;Path&gt;" class="cls-5" d="M77.87,371.68a.23.23,0,0,0-.09.45l1.33.4a.23.23,0,1,0,.13-.44l-1.33-.4Z"/></g><circle id="_Path_279" data-name="&lt;Path&gt;" cx="78.25" cy="373.56" r="0.31" transform="matrix(0.06, -1, 1, 0.06, -299.07, 430.94)"/><circle id="_Path_280" data-name="&lt;Path&gt;" cx="74.92" cy="373.48" r="0.31" transform="translate(-302.15 427.54) rotate(-86.82)"/><polygon id="_Path_281" data-name="&lt;Path&gt;" class="cls-18" points="76.59 373.02 76.48 375.73 75.9 375.57 76.59 373.02"/><ellipse id="_Path_282" data-name="&lt;Path&gt;" class="cls-1" cx="84.59" cy="367.2" rx="1.88" ry="2.41" transform="translate(-122.89 52.65) rotate(-20.44)"/><path id="_Path_283" data-name="&lt;Path&gt;" class="cls-10" d="M82.92,374.21a1.14,1.14,0,0,1-1.32-1.5,11.18,11.18,0,0,1-6.53-6.54c1.21-2.14,3.16-2.33,5.23-1.86,3.07.7,6.24,3.21,4.08,9.13C84.23,373.88,83.38,373.89,82.92,374.21Z"/><g id="_Group_32" data-name="&lt;Group&gt;"><path id="_Path_284" data-name="&lt;Path&gt;" class="cls-15" d="M82.51,372.68a1.74,1.74,0,0,1,.64-.6c1-.6,2,0,1.56,1.08-.33.76-.94,2.66-1.51,1.93A3.7,3.7,0,0,1,82.51,372.68Z"/><polygon id="_Path_285" data-name="&lt;Path&gt;" class="cls-18" points="83.23 372.83 84.47 372.7 83.45 374.33 83.84 372.96 83.23 372.83"/></g><circle id="_Path_286" data-name="&lt;Path&gt;" class="cls-34" cx="83.41" cy="375.35" r="0.56" transform="translate(-296 437.78) rotate(-86.82)"/><path id="_Path_287" data-name="&lt;Path&gt;" class="cls-30" d="M75,380.68c-.11,2,1.75,3.8,4.15,3.94s4.45-1.42,4.56-3.45a3.18,3.18,0,0,0,0-.73L75.16,380A3.18,3.18,0,0,0,75,380.68Z"/><path id="_Path_288" data-name="&lt;Path&gt;" class="cls-2" d="M83.06,381.13c-.09,1.66-1.81,2.92-3.84,2.81s-3.6-1.55-3.5-3.22a2.48,2.48,0,0,1,.15-.72l7.13.4A2.48,2.48,0,0,1,83.06,381.13Z"/><path id="_Rectangle_24" data-name="&lt;Rectangle&gt;" class="cls-2" d="M79.44,376.63h0a1.19,1.19,0,0,1,1.19,1.19v4.64a.86.86,0,0,1-.86.86h-.33a1.19,1.19,0,0,1-1.19-1.19v-4.31a1.19,1.19,0,0,1,1.19-1.19Z" transform="translate(21.23 -3.83) rotate(3.18)"/><path id="_Path_289" data-name="&lt;Path&gt;" class="cls-2" d="M86.68,382.31h0a1.52,1.52,0,0,0-2,.68l-5.72,11.72a1.52,1.52,0,0,0,.68,2h0a1.52,1.52,0,0,0,2-.68l5.72-11.72A1.52,1.52,0,0,0,86.68,382.31Z"/><path id="_Path_290" data-name="&lt;Path&gt;" class="cls-3" d="M83.76,392.64,80.34,391l4.15-8.57a1.91,1.91,0,0,1,2.55-.87h0a1.91,1.91,0,0,1,.87,2.55Z"/><path id="_Path_291" data-name="&lt;Path&gt;" class="cls-2" d="M81.51,394.73h0a1.52,1.52,0,0,1-.59,2.06L69.45,403a1.52,1.52,0,0,1-2.06-.59h0a1.52,1.52,0,0,1,.59-2.06l11.47-6.21A1.52,1.52,0,0,1,81.51,394.73Z"/><rect id="_Rectangle_25" data-name="&lt;Rectangle&gt;" class="cls-10" x="73.94" y="388.71" width="3.54" height="1.59" transform="translate(23.22 -3.8) rotate(3.4)"/><path id="_Path_292" data-name="&lt;Path&gt;" class="cls-2" d="M63,388.72h0a1.52,1.52,0,0,0,2-.79l5-12a1.52,1.52,0,0,0-.79-2h0a1.52,1.52,0,0,0-2,.79l-5,12A1.52,1.52,0,0,0,63,388.72Z"/><path id="_Path_293" data-name="&lt;Path&gt;" class="cls-2" d="M67.08,375.07l.58-3A11.6,11.6,0,0,1,70.11,370a4.82,4.82,0,0,1,2.58,0c.66.18-1.87,2.59-1.87,2.59l-.71,3Z"/><path id="_Path_294" data-name="&lt;Path&gt;" class="cls-51" d="M75.9,377.12h0a3.07,3.07,0,0,0,1.75-.17"/><rect class="cls-4" x="30.76" y="404.8" width="66.29" height="5.31" transform="translate(127.8 814.91) rotate(-180)"/><rect class="cls-5" x="46.64" y="409.5" width="34.12" height="24" transform="translate(127.41 843) rotate(-180)"/><rect class="cls-5" x="22.87" y="403.26" width="82.06" height="1.93" transform="translate(127.8 808.44) rotate(-180)"/><rect class="cls-5" x="79.75" y="408.06" width="19.99" height="26.88"/><path class="cls-24" d="M98.78,409v25H80.71V409H98.78m1.92-1.92H78.79v28.8H100.7V407.1Z"/><rect class="cls-5" x="27.67" y="408.06" width="19.99" height="26.88"/><path class="cls-24" d="M46.7,409v25H28.63V409H46.7m1.92-1.92H26.71v28.8H48.62V407.1Z"/><path class="cls-3" d="M61.34,400.19h5.33a.53.53,0,0,1,.53.53v0a2.54,2.54,0,0,1-2.54,2.54H63.35a2.54,2.54,0,0,1-2.54-2.54v0a.53.53,0,0,1,.53-.53Z" transform="translate(128.01 803.45) rotate(180)"/><path id="_Path_295" data-name="&lt;Path&gt;" class="cls-2" d="M69.58,400.39l-2.64-1.59a11.6,11.6,0,0,0-3.18.44A4.82,4.82,0,0,0,62,401.12c-.31.61,3.18.35,3.18.35l2.69,1.46Z"/><rect class="cls-13" x="40.68" y="379.66" width="22.33" height="17.69" rx="1.47" ry="1.47" transform="translate(103.69 777.02) rotate(-180)"/><path class="cls-36" d="M49.33,388.84h5a0,0,0,0,1,0,0v10.43a2.51,2.51,0,0,1-2.51,2.51h0a2.51,2.51,0,0,1-2.51-2.51V388.84A0,0,0,0,1,49.33,388.84Z" transform="translate(103.69 790.63) rotate(-180)"/><rect class="cls-13" x="45.87" y="401.44" width="11.95" height="1.82" rx="0.91" ry="0.91" transform="translate(103.69 804.7) rotate(180)"/><rect class="cls-13" x="73.1" y="401.44" width="22.26" height="1.82" rx="0.91" ry="0.91" transform="translate(168.45 804.7) rotate(180)"/><path class="cls-47" d="M56.8,390.44v7.29a4.77,4.77,0,0,0,4.77,4.77h0"/><circle class="cls-20" cx="56.8" cy="390.44" r="0.53"/><rect class="cls-48" x="22.87" y="409.12" width="82.06" height="22.2" rx="6.52" ry="6.52"/><text class="cls-49" transform="translate(28.42 423.65)">Product Manager B</text><path id="_Path_296" data-name="&lt;Path&gt;" class="cls-9" d="M67.22,535.33a27.85,27.85,0,0,1,1.91-2.49c-.62-1.17-2.21-.22-2.21-.22Z"/><rect class="cls-11" x="67.82" y="545.16" width="25.12" height="30.05" rx="7" ry="7" transform="translate(160.76 1120.37) rotate(-180)"/><path id="_Path_297" data-name="&lt;Path&gt;" class="cls-2" d="M76.36,541.29h0a1.64,1.64,0,0,1-.64,2.22l-12.38,6.7a1.64,1.64,0,0,1-2.22-.64h0a1.64,1.64,0,0,1,.64-2.22l12.38-6.7A1.64,1.64,0,0,1,76.36,541.29Z"/><path id="_Path_298" data-name="&lt;Path&gt;" class="cls-3" d="M65.35,544.89l2,3.61,9-4.86a2.06,2.06,0,0,0,.83-2.79h0a2.06,2.06,0,0,0-2.79-.83Z"/><path id="_Rectangle_26" data-name="&lt;Rectangle&gt;" class="cls-20" d="M77.49,539.8H82a5.6,5.6,0,0,1,5.6,5.6v26.54a0,0,0,0,1,0,0H71.7a0,0,0,0,1,0,0V545.58A5.78,5.78,0,0,1,77.49,539.8Z" transform="translate(-8.63 1.3) rotate(-0.89)"/><rect id="_Rectangle_27" data-name="&lt;Rectangle&gt;" class="cls-10" x="80.24" y="545.97" width="3.91" height="1.75" transform="translate(174.12 1092.14) rotate(178.98)"/><path id="_Path_299" data-name="&lt;Path&gt;" class="cls-2" d="M86.2,541.44h0a1.64,1.64,0,0,1,1.4,1.85L85.52,557.2a1.64,1.64,0,0,1-1.85,1.4h0a1.64,1.64,0,0,1-1.4-1.85l2.07-13.92A1.64,1.64,0,0,1,86.2,541.44Z"/><path id="_Path_300" data-name="&lt;Path&gt;" class="cls-3" d="M82.47,552.41l4.07.6,1.54-10.15a2.06,2.06,0,0,0-1.73-2.33h0A2.06,2.06,0,0,0,84,542.26Z"/><path id="_Path_301" data-name="&lt;Path&gt;" class="cls-2" d="M85.53,557.26h0a1.64,1.64,0,0,1-1.72,1.55l-14-.82a1.64,1.64,0,0,1-1.55-1.72h0a1.64,1.64,0,0,1,1.72-1.55l14,.82A1.64,1.64,0,0,1,85.53,557.26Z"/><path id="_Path_302" data-name="&lt;Path&gt;" class="cls-9" d="M69.13,557.79a27.85,27.85,0,0,0-3.05.73c-.82-1,.7-2.11.7-2.11Z"/><path id="_Path_303" data-name="&lt;Path&gt;" class="cls-2" d="M61.86,550.48h0a1.64,1.64,0,0,1-1.19-2l3.57-13.61a1.64,1.64,0,0,1,2-1.19h0a1.64,1.64,0,0,1,1.19,2l-3.57,13.61A1.64,1.64,0,0,1,61.86,550.48Z"/><ellipse id="_Path_304" data-name="&lt;Path&gt;" class="cls-3" cx="79.35" cy="540.25" rx="1.75" ry="2.69" transform="translate(-461.01 618.9) rotate(-89.93)"/><path id="_Path_305" data-name="&lt;Path&gt;" class="cls-2" d="M79.59,535h.05a1.43,1.43,0,0,0-1.56,1.31l-.33,3.12c-.08.81.49,1.12,1.3,1.21h0c.81.08,1.46-.1,1.55-.91l.33-3.12A1.47,1.47,0,0,0,79.59,535Z"/><path id="_Path_306" data-name="&lt;Path&gt;" class="cls-15" d="M77.44,538.91c4.24.31,6.56-2.78,7.33-6.66.81-4.09-1.87-7.54-5.19-7.61-3.79-.09-6,1.34-6.42,5.49-.25,2.61.43,7.85,4.28,8.78Z"/><path id="_Path_307" data-name="&lt;Path&gt;" class="cls-39" d="M85.16,526.65a9.61,9.61,0,0,1,.28,3.55,1,1,0,0,0-.83-.23l-.13,0h0l-.07,0-.07,0-.07,0,0,0-.08,0-.06,0-.06,0-.06,0-.06,0-.11.11h0l0,0v0h0l0,1.79a.8.8,0,0,1-.2.6l-.08.09a1.28,1.28,0,0,1-.55.15.93.93,0,0,1-.92-.87v-.64a.92.92,0,0,0-.83-.94h-.16c0-.73,0-1.3,0-1.66s-.14-.74-1.13-.86h0l-.28,0h0l-.57,0L74.43,528h-.05a2.23,2.23,0,0,1-1.22-.87,1.35,1.35,0,0,1-.23-.9l1.25,0a2.54,2.54,0,0,1-.62-1.1,5.93,5.93,0,0,1-.26-1.38l2.08,0a7.4,7.4,0,0,1,4.41-1.23c3.64.38,4.79,2.74,4.79,2.74a3.93,3.93,0,0,1,1.58-.25A3.36,3.36,0,0,0,85.16,526.65Z"/><path id="_Path_308" data-name="&lt;Path&gt;" class="cls-40" d="M79.53,528.14l-.57,0L74.43,528h-.05a2.23,2.23,0,0,1-1.22-.87,1.35,1.35,0,0,1-.23-.9s1.05,1.24,1.74,1.37h.05C75.42,527.74,78.51,528,79.53,528.14Z"/><path id="_Path_309" data-name="&lt;Path&gt;" class="cls-39" d="M80.36,535l-.12.64L80,537.11v0l-.08.47a2.05,2.05,0,0,1-2.42,1.81l-1.29-.33a1.85,1.85,0,0,1-1.13-.89,3.37,3.37,0,0,1-.42-1.62l.11-2.11c.11-.56.25-.77.74-.76l4.13.08h.1A1,1,0,0,1,80.36,535Z"/><path id="_Path_310" data-name="&lt;Path&gt;" class="cls-14" d="M77,535.8c-.88,0-1.64-.51-1.63-1v-.13l3.38.07v.13c0,.49-.54,1-1.49,1Z"/><path id="_Path_311" data-name="&lt;Path&gt;" class="cls-40" d="M73.3,523.78s.77,1.85,1.89,2.34c1,.41,5.67.66,5.67.66a8,8,0,0,1-1.47.32c-.43,0-4.58.08-5.21-.84A4,4,0,0,1,73.3,523.78Z"/><path id="_Path_312" data-name="&lt;Path&gt;" class="cls-39" d="M83.39,533a4.1,4.1,0,0,1-.71.53,5,5,0,0,0-2.69,3h0c-.19.81-.36.71-.46.25a6.44,6.44,0,0,1,.08-3.05h0c.8,0,2.3-.48,2.32-1.45S84.35,532.17,83.39,533Z"/><path id="_Path_313" data-name="&lt;Path&gt;" class="cls-39" d="M74.65,536.31c0-.92-1.5-2-1.53-4.49a2.46,2.46,0,0,0,2.35,1.83C75.76,534,74.88,535.6,74.65,536.31Z"/><path id="_Path_314" data-name="&lt;Path&gt;" class="cls-40" d="M82.68,533.53a5.72,5.72,0,0,0-2.7,3.58v0l-.08.47a2.05,2.05,0,0,1-2.42,1.81l-1.29-.33a1.85,1.85,0,0,1-1.13-.89,7.83,7.83,0,0,0,2,.59,2.07,2.07,0,0,0,2.44-1.35h0a6.88,6.88,0,0,1,.73-1.76A4.38,4.38,0,0,1,82.68,533.53Z"/><g id="_Group_33" data-name="&lt;Group&gt;"><line id="_Path_315" data-name="&lt;Path&gt;" class="cls-39" x1="74.09" y1="529.66" x2="75.61" y2="529.62"/><path id="_Path_316" data-name="&lt;Path&gt;" class="cls-39" d="M74,529.91a.25.25,0,0,1,0-.5l1.52,0a.25.25,0,0,1,0,.51l-1.52,0Z"/></g><g id="_Group_34" data-name="&lt;Group&gt;"><line id="_Path_317" data-name="&lt;Path&gt;" class="cls-39" x1="78.37" y1="529.67" x2="79.88" y2="529.78"/><path id="_Path_318" data-name="&lt;Path&gt;" class="cls-39" d="M78.34,529.42a.25.25,0,0,0,0,.5l1.52.11a.25.25,0,0,0,0-.51l-1.52-.11Z"/></g><circle id="_Path_319" data-name="&lt;Path&gt;" cx="78.91" cy="531.32" r="0.34" transform="translate(-453.9 599.52) rotate(-88.85)"/><circle id="_Path_320" data-name="&lt;Path&gt;" cx="74.93" cy="531.36" r="0.34" transform="translate(-457.83 595.58) rotate(-88.85)"/><polygon id="_Path_321" data-name="&lt;Path&gt;" class="cls-18" points="77.05 531.13 77.05 533.3 76.41 533.18 77.05 531.13"/><path id="_Path_322" data-name="&lt;Path&gt;" class="cls-50" d="M80.17,531.81a1.78,1.78,0,0,1-1.06.29h0a1.92,1.92,0,0,1-1.05-.33"/><path id="_Path_323" data-name="&lt;Path&gt;" class="cls-50" d="M76,531.72a1.78,1.78,0,0,1-1.06.29h0a1.92,1.92,0,0,1-1.05-.33"/><g id="_Group_35" data-name="&lt;Group&gt;"><path id="_Path_324" data-name="&lt;Path&gt;" class="cls-15" d="M83.69,530.49a2,2,0,0,1,.71-.72c1.1-.73,2.35-.1,1.84,1.18-.35.89-1,3.11-1.66,2.29A4.27,4.27,0,0,1,83.69,530.49Z"/><polygon id="_Path_325" data-name="&lt;Path&gt;" class="cls-18" points="84.53 530.64 85.95 530.43 84.84 532.36 85.23 530.76 84.53 530.64"/></g><rect class="cls-13" x="48.06" y="558.37" width="22.26" height="1.82" rx="0.91" ry="0.91" transform="translate(118.38 1118.56) rotate(-180)"/><rect class="cls-4" x="30.76" y="561.73" width="66.29" height="5.31" transform="translate(127.8 1128.76) rotate(-180)"/><rect class="cls-5" x="46.64" y="566.42" width="34.12" height="24" transform="translate(127.41 1156.85) rotate(-180)"/><rect class="cls-5" x="22.87" y="560.19" width="82.06" height="1.93" transform="translate(127.8 1122.3) rotate(-180)"/><rect class="cls-5" x="79.75" y="564.98" width="19.99" height="26.88"/><path class="cls-24" d="M98.78,565.94v25H80.71v-25H98.78M100.7,564H78.79v28.8H100.7V564Z"/><rect class="cls-5" x="27.67" y="564.98" width="19.99" height="26.88"/><path class="cls-24" d="M46.7,565.94v25H28.63v-25H46.7M48.62,564H26.71v28.8H48.62V564Z"/><path class="cls-3" d="M50.43,557.12h5.33a.53.53,0,0,1,.53.53v0a2.54,2.54,0,0,1-2.54,2.54H52.44a2.54,2.54,0,0,1-2.54-2.54v0a.53.53,0,0,1,.53-.53Z" transform="translate(106.2 1117.3) rotate(180)"/><rect class="cls-13" x="29.77" y="536.59" width="22.33" height="17.69" rx="1.47" ry="1.47" transform="translate(81.87 1090.87) rotate(-180)"/><path class="cls-36" d="M38.43,545.77h5a0,0,0,0,1,0,0V556.2a2.51,2.51,0,0,1-2.51,2.51h0a2.51,2.51,0,0,1-2.51-2.51V545.77A0,0,0,0,1,38.43,545.77Z" transform="translate(81.87 1104.49) rotate(-180)"/><rect class="cls-13" x="34.96" y="558.37" width="11.95" height="1.82" rx="0.91" ry="0.91" transform="translate(81.87 1118.56) rotate(180)"/><path class="cls-47" d="M45.9,547.36v7.29a4.77,4.77,0,0,0,4.77,4.77h0"/><circle class="cls-20" cx="45.9" cy="547.36" r="0.53"/><path class="cls-10" d="M61.18,552.09h5.93a0,0,0,0,1,0,0v7.2a.91.91,0,0,1-.91.91H62.09a.91.91,0,0,1-.91-.91v-7.2A0,0,0,0,1,61.18,552.09Z"/><path id="_Path_326" data-name="&lt;Path&gt;" class="cls-2" d="M70.38,554.71l-3.2-.88A12.52,12.52,0,0,0,64,555.23a5.2,5.2,0,0,0-1.27,2.48c-.14.73,3.4-.58,3.4-.58l3.22.72Z"/><path class="cls-20" d="M70.48,532.81a.93.93,0,0,1,.23-1.33,2.43,2.43,0,1,0-.6,3.8,3.37,3.37,0,0,0,0-1.74A.93.93,0,0,1,70.48,532.81Z"/><path id="_Path_327" data-name="&lt;Path&gt;" class="cls-2" d="M64.16,535.29l.5-3.28a12.52,12.52,0,0,1,2.56-2.32,5.2,5.2,0,0,1,2.78-.15c.72.17-1.91,2.87-1.91,2.87l-1,3.63Z"/><rect class="cls-48" x="22.87" y="566.05" width="82.06" height="22.2" rx="6.52" ry="6.52"/><text class="cls-49" transform="translate(28.36 580.58)">Product Manager D</text><line class="cls-28" x1="21.04" y1="577.15" x2="14.47" y2="577.15"/><line class="cls-28" x1="21.04" y1="498.3" x2="14.47" y2="498.3"/><line class="cls-28" x1="21.04" y1="420.22" x2="14.47" y2="420.22"/><line class="cls-28" x1="21.04" y1="342.19" x2="14.47" y2="342.19"/></svg>