<svg id="Layer_1" data-name="Layer 1" xmlns="http://www.w3.org/2000/svg" viewBox="0 0 708.66 481.89"><defs><style>.cls-1,.cls-47{fill:#83a1db;}.cls-1,.cls-20,.cls-24{fill-rule:evenodd;}.cls-11,.cls-2,.cls-25{opacity:0.07;}.cls-11,.cls-3{fill:#0c0c0c;}.cls-4{fill:#c2dbf2;}.cls-10,.cls-26,.cls-35,.cls-38,.cls-5{fill:none;}.cls-5{stroke:#fec82b;}.cls-10,.cls-26,.cls-37,.cls-38,.cls-5{stroke-linecap:round;stroke-linejoin:round;}.cls-10,.cls-37,.cls-38,.cls-5{stroke-width:2px;}.cls-6{fill:#d63e54;}.cls-7{fill:#ee4256;}.cls-8{fill:#f4f4f4;}.cls-9{fill:#9b9b9a;}.cls-10{stroke:#f2f2f2;}.cls-12,.cls-39{fill:#ddd;}.cls-13,.cls-20{fill:#f8ab8d;}.cls-14{fill:#fff;}.cls-15{fill:#e5e5e4;}.cls-16{fill:#aaa4ae;}.cls-17{fill:#5d5d5d;}.cls-18{fill:#c6c6c6;}.cls-19{fill:#515180;}.cls-21{fill:#6c4e38;}.cls-22{fill:#493426;}.cls-23{fill:#979797;}.cls-24{fill:#dc846a;}.cls-25{fill:#161616;}.cls-26{stroke:#dc846a;stroke-width:3px;}.cls-27{fill:#49a579;}.cls-28{opacity:0.09;}.cls-29{fill:#191919;}.cls-30{fill:#ced8dc;}.cls-31{fill:#676868;}.cls-32{fill:#cc9305;}.cls-33{fill:#fec82b;}.cls-34{fill:#419169;}.cls-35{stroke:#ced8dc;stroke-miterlimit:10;}.cls-36{fill:#414142;}.cls-37{fill:#c1c1c1;}.cls-37,.cls-38{stroke:#517bb7;}.cls-39{opacity:0.5;}.cls-40{fill:#070707;opacity:0.15;}.cls-41{fill:#29cc86;}.cls-42{fill:#fc5f51;}.cls-43{fill:#648ec9;}.cls-44{opacity:0.61;}.cls-45{fill:#6b6a6a;}.cls-46{fill:#f5f5f5;}</style></defs><title>CS-L2-U9</title><polygon class="cls-1" points="0.71 335.01 709.37 429.15 709.37 114.66 0.71 20.51 0.71 335.01"/><g class="cls-2"><rect class="cls-3" x="123" y="268.06" width="266.98" height="24.05" rx="12.02" ry="12.02"/><path class="cls-3" d="M132.78,250.14c2.6,1.76,6.79-.06,11.64-2.17s10.06-4.37,14.66-3.6c5.29.89,6.74,3.11,8.42,5.67,2.19,3.34,4.67,7.12,15.52,9.25a52,52,0,0,0,10,1.05c9.5,0,14.35-3.25,16-4.65l.24,4.15.92-.05h0l99-5.69h0l.92-.05-.05-.92h0l-1.61-28h0l-.7-12.23a11.81,11.81,0,0,0-6.55-9.91,19.52,19.52,0,0,0,11.05-21.85h0a22.35,22.35,0,0,0-25-16.13l-2.94.62,0-.09-65.41,13.92-1.84.24a19.52,19.52,0,0,0-16.83,21.89c0,.14,0,.28.06.41s0,.48.06.72c-4,4.18-3.48,10.56-3,16.74.53,6.67,1.09,13.56-3.7,18.07-4.14,3.9-16.69,1.57-28.83-.67-13-2.4-26.41-4.88-31.85-.5a7,7,0,0,0-2.54,5.51C130.26,246.25,131,249,132.78,250.14Zm139.37-62a19.48,19.48,0,0,0,10.22,13.32q.76.5,1.56.93l-15.28.88h0l-22.31,1.28h0l-7.58.44a19.41,19.41,0,0,0,.21-7.26c0-.41-.06-.82-.12-1.23l-.43-3.25,33.29-7.08ZM131.27,241.88a6.08,6.08,0,0,1,2.21-4.85c5.13-4.13,18.35-1.69,31.14.68s25.13,4.65,29.59.45c5.1-4.8,4.53-11.9,4-18.78-.48-6-.93-11.66,2.25-15.54.05.34.12.69.19,1h0a19.43,19.43,0,0,0,6.51,10.85,11.81,11.81,0,0,0-.21,3L209,254.56c-.78.77-8,7.37-25.79,3.87-10.49-2.07-12.86-5.68-15-8.87-1.72-2.62-3.34-5.09-9-6.05-4.86-.82-10.33,1.56-15.16,3.66-4.61,2-8.59,3.74-10.79,2.25C131.8,248.42,131.14,246,131.27,241.88Z"/><path class="cls-3" d="M330.45,249.59a.87.87,0,0,0,.59-.23c4.22-3.87,6.85-9.9,7.21-16.54s-1.61-12.83-5.41-17a.88.88,0,0,0-1.29,1.18c3.48,3.8,5.29,9.52,5,15.7s-2.76,11.77-6.65,15.34a.88.88,0,0,0,.59,1.52Z"/><path class="cls-3" d="M333.41,257.62a.88.88,0,0,0,1.18,1.29,35.63,35.63,0,0,0,2.19-50.28.88.88,0,0,0-1.29,1.18A33.87,33.87,0,0,1,333.41,257.62Z"/><path class="cls-3" d="M184.93,191.44c-5.16,2.23-9.49,7.07-11.88,13.28s-2.45,12.78-.18,18a.88.88,0,1,0,1.61-.69c-2.09-4.84-2-10.94.21-16.72s6.21-10.26,10.94-12.3a.88.88,0,1,0-.69-1.61Z"/><path class="cls-3" d="M166.53,230.55a.88.88,0,0,0,.8-1.22A33.83,33.83,0,0,1,185,184.85a.88.88,0,0,0-.69-1.61A35.58,35.58,0,0,0,165.72,230,.88.88,0,0,0,166.53,230.55Z"/></g><rect class="cls-4" x="125.52" y="270.25" width="266.98" height="24.05" rx="12.02" ry="12.02"/><path class="cls-5" d="M204.31,204.12c-10.22,7.88,2,26.57-7.88,35.92s-62.49-15-63.07,4,16.06,0,28.32,2.07,4.67,11.13,23.94,14.92S211.9,257,211.9,257"/><path class="cls-6" d="M223.7,206.13h74a13.5,13.5,0,0,1,13.5,13.5v39.56a0,0,0,0,1,0,0h-101a0,0,0,0,1,0,0V219.63a13.5,13.5,0,0,1,13.5-13.5Z" transform="translate(-12.93 15.35) rotate(-3.29)"/><path class="cls-7" d="M307.87,227.21h0a19.52,19.52,0,0,1-24.62-12.48q-.16-.5-.3-1a11.43,11.43,0,0,0-11.76-8.25l-22.31,1.28A11.46,11.46,0,0,0,238.21,216a19.52,19.52,0,0,1-13.13,15h0a19.44,19.44,0,0,1-13.76-.61.91.91,0,0,0-1.27.89l1.71,29.82a.92.92,0,0,0,1,.87l99-5.69a.92.92,0,0,0,.87-1l-1.61-28a.91.91,0,0,0-1.28-.79A19.29,19.29,0,0,1,307.87,227.21Z"/><path class="cls-2" d="M203.14,207.07h0a19.52,19.52,0,0,0,23.16,15h0a19.52,19.52,0,0,0,15-23.16l-.73-3.41,35.23-7.5.73,3.41a19.52,19.52,0,1,0,38.19-8.12h0a19.52,19.52,0,0,0-23.16-15l-2.5.53h0l-62.6,13.32h0l-8.32,1.77A19.52,19.52,0,0,0,203.14,207.07Z"/><rect class="cls-7" x="247.59" y="149" width="16.04" height="67.1" transform="translate(130.25 470.55) rotate(-102.01)"/><path class="cls-7" d="M293.78,166.77h8.5a11,11,0,0,1,11,11v8.5a19.52,19.52,0,0,1-19.52,19.52h0a19.52,19.52,0,0,1-19.52-19.52v0a19.52,19.52,0,0,1,19.52-19.52Z" transform="translate(172.7 512.4) rotate(-102.01)"/><path class="cls-7" d="M222,181.72h0a19.52,19.52,0,0,1,19.52,19.52v8.5a11,11,0,0,1-11,11H222a19.52,19.52,0,0,1-19.52-19.52v0A19.52,19.52,0,0,1,222,181.72Z" transform="translate(51.29 447.5) rotate(-97.45)"/><circle class="cls-8" cx="260.69" cy="234.15" r="20.97"/><circle class="cls-9" cx="260.69" cy="218.68" r="3.49"/><circle class="cls-9" cx="252.95" cy="220.75" r="3.49" transform="translate(-76.49 156.05) rotate(-30)"/><circle class="cls-9" cx="247.29" cy="226.42" r="3.49" transform="matrix(0.5, -0.87, 0.87, 0.5, -72.44, 327.37)"/><circle class="cls-9" cx="245.21" cy="234.15" r="3.49"/><circle class="cls-9" cx="247.29" cy="241.89" r="3.49" transform="translate(-87.81 156.05) rotate(-30)"/><circle class="cls-9" cx="252.95" cy="247.55" r="3.49" transform="translate(-87.91 342.84) rotate(-60)"/><circle class="cls-9" cx="260.69" cy="249.63" r="3.49"/><circle class="cls-9" cx="268.43" cy="247.55" r="3.49" transform="translate(-87.81 167.38) rotate(-30)"/><circle class="cls-9" cx="274.09" cy="241.89" r="3.49" transform="translate(-72.44 358.31) rotate(-60)"/><circle class="cls-9" cx="276.16" cy="234.15" r="3.49"/><circle class="cls-9" cx="274.09" cy="226.42" r="3.49" transform="translate(-76.49 167.38) rotate(-30)"/><circle class="cls-9" cx="268.43" cy="220.75" r="3.49" transform="translate(-56.96 342.84) rotate(-60)"/><path class="cls-10" d="M333,250.9c8.51-7.8,9.38-23.94,1.74-32.27"/><path class="cls-10" d="M336.53,260.45a34.71,34.71,0,0,0,2.13-49"/><path class="cls-10" d="M176.2,224.6c-4.58-10.6,1.22-25.68,11.6-30.17"/><path class="cls-10" d="M169.05,231.86a34.71,34.71,0,0,1,18.1-45.62"/><path class="cls-11" d="M578.51,197.44l-5.6-1.26,5.43-62.29A10.86,10.86,0,0,0,571,124l-53.55-16.13a34.33,34.33,0,0,0-21-8.1l.17-.51-2.22-1.06A43.89,43.89,0,0,0,505.29,82c.06.1.11.2.17.3,2.77,4.23,6.93-5.84,9.11-9.84,1.87-3.45.62-6.16-1.9-7.16l.09-.28.86-2.75a3.81,3.81,0,0,0,.09-1.86,30.16,30.16,0,0,0,.49-8.76c1.88-3.38,3.44-4.17,6.25-6.16a18.62,18.62,0,0,0-7.57-.51S510,32.8,493.6,27.23c-10.41-3.54-21.7,1.05-21.7,1.05l-9.55-2.37h0s0,.18-.08.5a20.79,20.79,0,0,0-.17,6.11v0a12,12,0,0,0,1.73,5.73l-5.77-1.43a6.38,6.38,0,0,0,.13,4.41l0,0a2.18,2.18,0,0,0-1.36,1.4l-1.71,5.47-.56,1.78h0l-1.16,3.69a2.18,2.18,0,0,0,1.29,2.68c-.48,1.49-.91,3.08-1.28,4.79-2.59,11.9-2.41,36.25,14.2,43.35q-1.46.65-2.84,1.44a8.83,8.83,0,0,0-2.64.85l-49.52,25.16a8.84,8.84,0,0,0-6.53,9.15l4.82,62.34-5.61,1.2,2.61,12.2,5.08-1.09.39,4.59s7.08,9.39,11.08,11.5c4.66,2.45,11.5,1.77,12.77,1.56,3.37-.56-7.92-13.8-7.92-13.8l-1-7.14,2.66-.57-2.61-12.2h-.06l-4.16-53.8,23.85-12.12a32.85,32.85,0,0,0,.27,5.12l0,.11,16.59,84.6-.06,5.43a3.81,3.81,0,0,0-1.47,3v10.47a3.82,3.82,0,0,0,3.31,3.78L441.84,316a11.32,11.32,0,0,0-1.69,6v95.28h2.08V423a8.16,8.16,0,0,0-2.4.24l-28.36,7.39a4.28,4.28,0,0,0-3.2,4.15v2.78a1.64,1.64,0,0,0,1.64,1.64h48.38a3.25,3.25,0,0,0,3.25-3.25V425a1.64,1.64,0,0,0-1.65-1.64v-6.18h3.52V324.6l26-73,27.7-.22-6.64,73.43a11.44,11.44,0,0,0,0,1.42,11.24,11.24,0,0,0,0,1.65l7.3,95.19,1.74-.11,1.2,11.68a8.34,8.34,0,0,0-3.3.54l-27.87,10.67a4.28,4.28,0,0,0-2.76,4.49l.13,1.07.2,1.69a1.66,1.66,0,0,0,1.86,1.44l49-5.68a3.27,3.27,0,0,0,2.91-3.61v-.08l-1.27-10.7a1.63,1.63,0,0,0-1-1.31l-1.16-11.3,3.47-.22-7.27-94.73h0l5.46-60.35,4.23,3.34a4,4,0,0,0,5.58-.66L565,248.89a4,4,0,0,0,.5-.85,1.41,1.41,0,0,0,.14-.12,2.69,2.69,0,0,0,0-2.67l0-.11c-.05-.13-.11-.26-.17-.39s-.08-.18-.13-.27a15.78,15.78,0,0,0-1.86-2.82,22.89,22.89,0,0,0-5.64-6.56c-4.71-3.93-9.66-5.76-11.05-4.09a1.46,1.46,0,0,0-.16.26,4,4,0,0,0-1,.87,9.93,9.93,0,0,0-1.95-1.51,3.81,3.81,0,0,0-1.07-1.53l-.56-4.21a5,5,0,0,0,2.44-5.38,4,4,0,0,0-.18-.58,4.88,4.88,0,0,0-3.06-3c-.14-.08-.28-.16-.43-.22l-11.39-85.77,30.72,9.25-4.63,53.13h-.05l-2.73,12.17,2.66.6-1,7.13s-11.42,13.13-8.05,13.73c1.26.22,8.1,1,12.78-1.44,4-2.07,11.19-11.39,11.19-11.39l.44-4.58,5.07,1.14Zm-37.19,22.13s0,.06,0,.09a2.65,2.65,0,0,1,0,.4Z"/><rect id="_Rectangle_" data-name="&lt;Rectangle&gt;" class="cls-12" x="426.1" y="90.45" width="17.68" height="73.68" rx="8.84" ry="8.84" transform="translate(518.43 572.71) rotate(-116.93)"/><path id="_Path_" data-name="&lt;Path&gt;" class="cls-13" d="M405.83,205l1.32,15.28s7.08,9.39,11.08,11.5c4.66,2.45,11.5,1.77,12.77,1.56,3.37-.56-7.92-13.8-7.92-13.8l-2-15.1Z"/><path id="_Path_2" data-name="&lt;Path&gt;" class="cls-12" d="M404.67,203.49l17.64-1.24-4.83-62.45a8.84,8.84,0,0,0-9.44-8.2h0a8.84,8.84,0,0,0-8.2,9.44Z"/><rect id="_Rectangle_2" data-name="&lt;Rectangle&gt;" class="cls-14" x="400.1" y="201.96" width="23.64" height="12.47" transform="translate(858.32 325.44) rotate(167.9)"/><path id="_Path_3" data-name="&lt;Path&gt;" class="cls-15" d="M444.81,354.77h0a8.83,8.83,0,0,0-8.83,8.83v62.56a8.83,8.83,0,0,0,8.83,8.83h0a8.83,8.83,0,0,0,8.83-8.83V363.59A8.83,8.83,0,0,0,444.81,354.77Z"/><rect id="_Rectangle_3" data-name="&lt;Rectangle&gt;" class="cls-12" x="507.98" y="230.75" width="23.26" height="106.68" rx="11.63" ry="11.63" transform="translate(27.97 -46.04) rotate(5.21)"/><path id="_Rectangle_4" data-name="&lt;Rectangle&gt;" class="cls-12" d="M445.53,310.54h0a11.63,11.63,0,0,1,11.63,11.63v95.05a0,0,0,0,1,0,0H433.91a0,0,0,0,1,0,0V322.17A11.63,11.63,0,0,1,445.53,310.54Z"/><path id="_Path_4" data-name="&lt;Path&gt;" class="cls-12" d="M478.06,231.55h0a11.69,11.69,0,0,0-14.83,7L435,317.73a11.34,11.34,0,0,0,7.11,14.51h0a11.69,11.69,0,0,0,14.84-7l28.23-79.16A11.34,11.34,0,0,0,478.06,231.55Z"/><path id="_Path_5" data-name="&lt;Path&gt;" class="cls-16" d="M455.29,425v10.78H402v-1.08a4.28,4.28,0,0,1,3.2-4.15l28.36-7.39a7.91,7.91,0,0,1,4,0c7.57,2,12.9,1.09,15.63.28A1.64,1.64,0,0,1,455.29,425Z"/><path id="_Path_6" data-name="&lt;Path&gt;" class="cls-17" d="M455.29,435.82v.09a3.25,3.25,0,0,1-3.25,3.25H403.66a1.64,1.64,0,0,1-1.64-1.64v-1.7Z"/><path id="_Path_7" data-name="&lt;Path&gt;" class="cls-15" d="M516.78,369.46h0a8.79,8.79,0,0,0-8,9.61l6.41,62.37a9.06,9.06,0,0,0,9.86,8h0a8.79,8.79,0,0,0,8-9.61l-.17-1.62-6.24-60.74A9.06,9.06,0,0,0,516.78,369.46Z"/><path id="_Path_8" data-name="&lt;Path&gt;" class="cls-12" d="M514.95,315.79h0a11.35,11.35,0,0,0-10.74,12.11l7.3,95.19,23.17-1.44-7.3-95.19A11.68,11.68,0,0,0,514.95,315.79Z"/><path id="_Path_9" data-name="&lt;Path&gt;" class="cls-16" d="M533.37,434.46l1.27,10.7-54,6.26-.13-1.07a4.28,4.28,0,0,1,2.76-4.49l27.87-10.67a8.23,8.23,0,0,1,4-.49c7.91,1.06,13.2-.43,15.87-1.56A1.67,1.67,0,0,1,533.37,434.46Z"/><path id="_Path_10" data-name="&lt;Path&gt;" class="cls-17" d="M534.64,445.17v.08a3.27,3.27,0,0,1-2.91,3.61l-49,5.68a1.66,1.66,0,0,1-1.86-1.44l-.2-1.69Z"/><path id="_Path_11" data-name="&lt;Path&gt;" class="cls-18" d="M529.37,214.81l-67.83.55.4,21.78c.05,6.44,5.31,8.61,11.75,8.56l44.53-.36c6.44-.05,11.61-2.31,11.56-8.75Z"/><path id="_Path_12" data-name="&lt;Path&gt;" class="cls-18" d="M484.51,100l-14.08,1.87a33.07,33.07,0,0,0-28.35,37l0,.11,19.85,101.19L537.66,239,523.13,129.57A34.4,34.4,0,0,0,484.51,100Z"/><polygon id="_Path_13" data-name="&lt;Path&gt;" class="cls-14" points="462.15 102.97 473.55 149.47 490.4 99.22 462.15 102.97"/><path id="_Path_14" data-name="&lt;Path&gt;" class="cls-13" d="M474.71,80.67l.21,0a5.86,5.86,0,0,0-5,6.75l1.7,12.79c.44,3.3,3,4,6.35,3.57h-.1c3.3-.44,5.74-1.81,5.3-5.11l-1.7-12.79A6,6,0,0,0,474.71,80.67Z"/><polygon id="_Path_15" data-name="&lt;Path&gt;" class="cls-15" points="490.4 99.22 482.78 95.56 475.98 102.86 481.82 112.77 490.4 99.22"/><polygon id="_Path_16" data-name="&lt;Path&gt;" class="cls-15" points="462.15 102.97 471.23 97.1 475.98 102.86 468.9 114.48 462.15 102.97"/><polygon id="_Path_17" data-name="&lt;Path&gt;" class="cls-19" points="475.98 102.86 479.46 108.76 473.74 116.05 471.17 110.76 475.98 102.86"/><polygon id="_Path_18" data-name="&lt;Path&gt;" class="cls-19" points="475.32 113.55 478.99 133.25 473.55 149.47 469.48 132.86 472.82 113.26 475.32 113.55"/><path id="_Path_19" data-name="&lt;Path&gt;" class="cls-20" d="M462.35,104.85c19.78,3.88,32.45-9.35,38.28-27.19,6.14-18.78-4.51-36.54-20.13-38.79-17.77-2.56-29.12,2.91-33.33,22.22-2.64,12.13-2.42,37.21,15.18,43.76Z"/><path id="_Path_20" data-name="&lt;Path&gt;" class="cls-21" d="M508,51.62c.66,5.17-1.09,12.26-2.45,16.71a4.65,4.65,0,0,0-3.61-1.91,5.56,5.56,0,0,0-.65,0h0l-.32,0-.33,0-.35.06-.25.06-.42.11-.33.11-.34.13-.33.15-.33.16c-.22.11-.43.24-.64.37,0,0,0,0,0,.05l-.13.1-.07.06-.09.06,0,0,0,0,0,0,0,0-2,8.23a3.8,3.8,0,0,1-1.56,2.54,4.61,4.61,0,0,1-.48.32,6.06,6.06,0,0,1-2.69.11c-2.15-.53-3.88-2.83-3.34-5l.73-2.94a4.38,4.38,0,0,0-2.85-5.21l-.73-.24c.77-3.36,1.46-6,1.9-7.65.54-2,.12-3.58-4.3-5.16l-.13,0c-.39-.14-.8-.27-1.25-.41l-.1,0c-.78-.24-1.64-.47-2.61-.71L456.9,46.69l-.22-.12c-.83-.47-3.74-2.3-4.73-5.31a6.38,6.38,0,0,1-.13-4.41l5.77,1.43a12,12,0,0,1-1.73-5.73,28.12,28.12,0,0,1,.25-6.64l9.56,2.37s11.29-4.59,21.7-1.05c16.41,5.57,19.28,17.72,19.28,17.72a18.62,18.62,0,0,1,7.57.51C511.4,47.44,509.84,48.24,508,51.62Z"/><path id="_Path_21" data-name="&lt;Path&gt;" class="cls-22" d="M480.33,52.56c-.78-.24-1.64-.47-2.61-.71L456.9,46.69l-.22-.12c-.83-.47-3.74-2.3-4.73-5.31a6.38,6.38,0,0,1-.13-4.41s3.57,6.82,6.6,8.17l.24.1C461.76,46.43,475.73,51.05,480.33,52.56Z"/><path id="_Path_22" data-name="&lt;Path&gt;" class="cls-22" d="M456.1,25.91s1.61,9.36,6.31,12.79c4,2.92,25.51,9,25.51,9a38.14,38.14,0,0,1-7.13-.06c-2-.28-21.26-4.42-23.22-9.35A19.17,19.17,0,0,1,456.1,25.91Z"/><g id="_Group_" data-name="&lt;Group&gt;"><line id="_Path_23" data-name="&lt;Path&gt;" class="cls-23" x1="453.6" y1="63.1" x2="460.72" y2="64.18"/><path id="_Path_24" data-name="&lt;Path&gt;" class="cls-21" d="M453.2,64.23a1.2,1.2,0,0,1,.58-2.32L460.9,63a1.2,1.2,0,0,1-.36,2.37l-7.12-1.08Z"/></g><g id="_Group_2" data-name="&lt;Group&gt;"><line id="_Path_25" data-name="&lt;Path&gt;" class="cls-23" x1="471.12" y1="66.62" x2="478.3" y2="67.21"/><path id="_Path_26" data-name="&lt;Path&gt;" class="cls-21" d="M471,65.43a1.2,1.2,0,0,0,0,2.39l7.18.59a1.2,1.2,0,0,0,.2-2.39l-7.18-.59Z"/></g><circle id="_Path_27" data-name="&lt;Path&gt;" cx="473.54" cy="72.65" r="1.62" transform="translate(335.55 531.42) rotate(-81.98)"/><circle id="_Path_28" data-name="&lt;Path&gt;" cx="454.8" cy="70.57" r="1.62" transform="translate(321.48 511.07) rotate(-81.98)"/><polygon id="_Path_29" data-name="&lt;Path&gt;" class="cls-24" points="464.01 69.81 462.8 80.01 459.86 79.09 464.01 69.81"/><rect id="_Rectangle_5" data-name="&lt;Rectangle&gt;" class="cls-12" x="526.58" y="87.51" width="17.68" height="73.68" rx="8.84" ry="8.84" transform="matrix(0.29, -0.96, 0.96, 0.29, 261.97, 601.17)"/><path class="cls-25" d="M557.65,242.58l0-.11c-.05-.13-.11-.26-.17-.39s-.08-.19-.13-.27a22.61,22.61,0,0,0-5.71-6.7c-4.71-3.93-9.66-5.76-11.05-4.09a1.46,1.46,0,0,0-.16.26,4,4,0,0,0-1,.87c-2.12-2.11-4.7-3-7-2.37a7,7,0,0,0-4.61,5,14.14,14.14,0,0,0,0,8l.84,3-5.42,6.87a4,4,0,0,0,.66,5.58l11.46,9.06a4,4,0,0,0,5.58-.66L557,246.21a4,4,0,0,0,.5-.85,1.42,1.42,0,0,0,.14-.12A2.69,2.69,0,0,0,557.65,242.58Zm-26.6.05-.22-.79a11.16,11.16,0,0,1-.08-6.15,4.09,4.09,0,0,1,2.43-2.86c1.29-.35,2.83.34,4.18,1.82Z"/><path id="_Path_30" data-name="&lt;Path&gt;" class="cls-12" d="M566.66,196.29,549,194.88l5.44-62.4a8.84,8.84,0,0,1,9.52-8.11h0a8.84,8.84,0,0,1,8.11,9.52Z"/><path id="_Path_31" data-name="&lt;Path&gt;" class="cls-13" d="M565.49,197.79,564,213.06s-7.17,9.32-11.19,11.39c-4.68,2.41-11.52,1.66-12.78,1.44-3.37-.6,8.05-13.73,8.05-13.73l2.16-15.07Z"/><rect id="_Rectangle_6" data-name="&lt;Rectangle&gt;" class="cls-14" x="547.55" y="194.7" width="23.64" height="12.47" transform="translate(57.64 -117.71) rotate(12.66)"/><path class="cls-26" d="M453.31,87.07c7.05,5.76,15.09,0,15.09,0"/><ellipse class="cls-19" cx="480.46" cy="185.32" rx="3.58" ry="4.35"/><ellipse class="cls-19" cx="482.33" cy="206.51" rx="3.58" ry="4.35"/><path class="cls-27" d="M450,49.22h53.25a4.32,4.32,0,0,1,4.32,4.32v7.19a4.32,4.32,0,0,1-4.32,4.32H450a2.45,2.45,0,0,1-2.45-2.45V51.68A2.45,2.45,0,0,1,450,49.22Z" transform="translate(38.97 -140.25) rotate(17.41)"/><rect class="cls-14" x="447.51" y="55.27" width="60.02" height="3.73" transform="translate(38.97 -140.25) rotate(17.41)"/><g id="_Group_3" data-name="&lt;Group&gt;"><path id="_Path_32" data-name="&lt;Path&gt;" class="cls-20" d="M496.55,68.78a9.54,9.54,0,0,1,3.77-3c5.59-2.81,11.12.88,8,6.62-2.17,4-6.34,14.07-9.11,9.84C497.1,79,495.89,74.37,496.55,68.78Z"/><polygon id="_Path_33" data-name="&lt;Path&gt;" class="cls-24" points="500.38 69.95 507.23 69.77 500.89 78.23 503.66 70.91 500.38 69.95"/></g><g class="cls-28"><path class="cls-29" d="M516.27,242.15l-.16.24c-.1.17-.09.18.11.22a2.16,2.16,0,0,0,2.3-1.14c1.43-3,2.87-6,4.3-9,0-.1.14-.2.08-.32l-.12.2Z"/><path class="cls-29" d="M522.9,232.12h0Z"/><path class="cls-29" d="M522.92,232.13s0,0,0,0Z"/><polygon class="cls-29" points="522.9 232.13 522.9 232.13 522.9 232.13 522.9 232.13"/><path class="cls-29" d="M515.23,242.13c.32.3.32.3.56-.07l9.89-14.91c0-.07.09-.14.14-.21s0-.16-.06-.21c-.38-.18-.77-.36-1.14-.55a.71.71,0,0,0-.51-.06l-1.42.29v0c-.48.1-1,.2-1.45.29a.48.48,0,0,0-.39.3l-6.07,12.7A2.06,2.06,0,0,0,515.23,242.13Z"/><path class="cls-29" d="M523,225.88c.12,0,.17-.08.09-.19s-.13-.28-.28-.35l-1.27-.61c-.12-.06-.17,0-.2.09-.13.43-.26.85-.4,1.28-.05.17,0,.18.16.15l.93-.19h0Z"/><path class="cls-29" d="M521.41,220.18l.56.1c.22,0,.22,0,.13.24l-.76,1.59-.7,1.46c0,.1-.08.19.06.25l2.2,1c.12.06.17,0,.21-.09l.09-.19c.94-2,1.89-3.95,2.82-5.93.11-.23.22-.34.5-.3a.91.91,0,0,0,.94-.55,1,1,0,0,0,0-1.19.56.56,0,0,1-.11-.51,5,5,0,0,0,0-1.89c0-.15-.1-.4-.19-.65a4.93,4.93,0,0,0-6.57-2.77,5,5,0,0,0-3,4.92A4.92,4.92,0,0,0,521.41,220.18Zm.53-7.41a2.64,2.64,0,1,1-2.08,3.12A2.64,2.64,0,0,1,521.95,212.76Z"/><path class="cls-29" d="M527.56,218.43c-.12.11-.15.2-.05.33a.64.64,0,0,0,.13.16c.22.15.17.31.07.51-.65,1.34-1.29,2.69-1.94,4l-1,2c0,.1-.12.21,0,.29l2.2,1.05c.09,0,.15,0,.2-.06l.11-.22,1.37-2.86c.11-.22.11-.22.29-.07l.29.26a4.76,4.76,0,0,0,4.88.93,5,5,0,0,0,3.19-5.72,4,4,0,0,0-.18-.58,4.91,4.91,0,0,0-8.29-1.69.58.58,0,0,1-.53.26c-.23,0-.26,0-.3.28A1.69,1.69,0,0,1,527.56,218.43Zm4.44-.87a2.64,2.64,0,1,1-2.08,3.12A2.64,2.64,0,0,1,532,217.56Z"/></g><path class="cls-30" d="M523.75,232.52s0,0,0,0v0l-.13.21-6.51,9.83-.16.24c-.1.17-.09.18.11.22a2.16,2.16,0,0,0,2.3-1.14c1.43-3,2.87-6,4.3-9C523.72,232.75,523.81,232.65,523.75,232.52Z"/><path class="cls-30" d="M523.54,226.81v0c-.48.1-1,.2-1.45.29a.48.48,0,0,0-.39.3l-6.07,12.7a2.06,2.06,0,0,0,.47,2.45c.32.3.32.3.56-.07l9.89-14.91c0-.07.09-.14.14-.21s0-.16-.06-.21c-.38-.18-.77-.36-1.14-.55a.71.71,0,0,0-.51-.06Z"/><path class="cls-30" d="M522.89,226.45h0l1-.2c.12,0,.17-.08.09-.19s-.13-.28-.28-.35l-1.27-.61c-.12-.06-.17,0-.2.09-.13.43-.26.85-.4,1.28-.05.17,0,.18.16.15Z"/><path class="cls-7" d="M522.27,220.57l.56.1c.22,0,.22,0,.13.24l-.76,1.59-.7,1.46c0,.1-.08.19.06.25l2.2,1c.12.06.17,0,.21-.09l.09-.19c.94-2,1.89-3.95,2.82-5.93.11-.23.22-.34.5-.3a.91.91,0,0,0,.94-.55,1,1,0,0,0,0-1.19.56.56,0,0,1-.11-.51,5,5,0,0,0,0-1.89c0-.15-.1-.4-.19-.65a4.93,4.93,0,0,0-6.57-2.77,5,5,0,0,0-3,4.92A4.92,4.92,0,0,0,522.27,220.57Zm.53-7.41a2.64,2.64,0,1,1-2.08,3.12A2.64,2.64,0,0,1,522.8,213.16Z"/><path class="cls-7" d="M525.69,226.2l2.2,1.05c.09,0,.15,0,.2-.06l.11-.22,1.37-2.86c.11-.22.11-.22.29-.07l.29.26a4.76,4.76,0,0,0,4.88.93,5,5,0,0,0,3.19-5.72,4,4,0,0,0-.18-.58,4.91,4.91,0,0,0-8.29-1.69.58.58,0,0,1-.53.26c-.23,0-.26,0-.3.28a1.69,1.69,0,0,1-.51,1.06c-.12.11-.15.2-.05.33a.64.64,0,0,0,.13.16c.22.15.17.31.07.51-.65,1.34-1.29,2.69-1.94,4l-1,2C525.6,226,525.52,226.12,525.69,226.2Zm7.16-8.24a2.64,2.64,0,1,1-2.08,3.12A2.64,2.64,0,0,1,532.85,218Z"/><path class="cls-31" d="M522.7,227.83a1.53,1.53,0,0,1,1.8,1.19,1.54,1.54,0,0,1-3,.62A1.52,1.52,0,0,1,522.7,227.83Zm.07.43a1.08,1.08,0,0,0-.84,1.3,1.09,1.09,0,0,0,1.27.84,1.11,1.11,0,0,0,.86-1.3A1.09,1.09,0,0,0,522.77,228.27Z"/><rect class="cls-27" x="457.16" y="228.13" width="80.5" height="18.13" rx="4.3" ry="4.3"/><path class="cls-32" d="M529.51,237.41a14.14,14.14,0,0,0,0,8l1,3.5a15.44,15.44,0,0,0,1,2.72,16.71,16.71,0,0,1,1.34-6l-.29-1a11.16,11.16,0,0,1-.08-6.15A4.09,4.09,0,0,1,535,235.5c1.34-.37,3,.39,4.36,2l2.56-1.89c-2.24-2.69-5.16-3.9-7.78-3.18A7,7,0,0,0,529.51,237.41Z"/><path class="cls-33" d="M559.43,245.25l0-.11c-.05-.13-.11-.26-.17-.39s-.08-.18-.13-.27a22.61,22.61,0,0,0-5.71-6.7c-4.71-3.93-9.66-5.76-11.05-4.09a1.45,1.45,0,0,0-.16.26,4,4,0,0,0-1.12,1L525,255.26a4,4,0,0,0,.66,5.58l11.46,9.06a4,4,0,0,0,5.58-.66l16.08-20.35a4,4,0,0,0,.5-.85,1.42,1.42,0,0,0,.14-.12A2.69,2.69,0,0,0,559.43,245.25Z"/><ellipse class="cls-32" cx="550.97" cy="241.18" rx="2.99" ry="9.1" transform="translate(12.77 509.64) rotate(-50.15)"/><rect class="cls-34" x="530.65" y="231.07" width="4.7" height="9.92" transform="matrix(0.87, -0.5, 0.5, 0.87, -46.6, 298.12)"/><path class="cls-35" d="M465.94,217.6c-1,4,3.1,8.65-1.86,8.59s-.59-4.84-1.89-8.72c-.89-2.64-2.54-5.14,1.89-5.09S466.86,214,465.94,217.6Z"/><rect class="cls-36" x="458.65" y="223.44" width="10.38" height="6.87" transform="translate(2.45 -4.95) rotate(0.61)"/><path class="cls-35" d="M476.84,222.14c-.66,2.68,2.15,5.81-1.19,5.81s-.43-3.26-1.34-5.87c-.62-1.78-1.75-3.45,1.24-3.45S477.44,219.71,476.84,222.14Z"/><rect class="cls-36" x="471.99" y="226.1" width="7" height="4.63"/><line class="cls-37" x1="521.09" y1="230.74" x2="488.84" y2="230.99"/><path class="cls-38" d="M513,230.8a5.37,5.37,0,0,1,5.41,5.33"/><rect class="cls-39" x="507.28" y="227.67" width="13.42" height="10.92" rx="2.82" ry="2.82" transform="translate(-1.8 4) rotate(-0.45)"/><path class="cls-38" d="M496.91,230.92a5.37,5.37,0,0,0-5.33,5.41"/><rect class="cls-39" x="488.6" y="228.09" width="13.74" height="10.36" rx="2.1" ry="2.1" transform="translate(-1.8 3.86) rotate(-0.45)"/><path class="cls-38" d="M502.23,231.93a3.87,3.87,0,0,1,5.48,0"/><rect class="cls-38" x="507.49" y="228.02" width="13" height="10.21" rx="2.42" ry="2.42" transform="translate(-1.8 4) rotate(-0.45)"/><rect class="cls-38" x="488.97" y="228.17" width="13" height="10.21" rx="2.29" ry="2.29" transform="translate(-1.8 3.86) rotate(-0.45)"/><rect class="cls-34" x="486.45" y="234.47" width="36.27" height="6"/><rect id="_Rectangle_7" data-name="&lt;Rectangle&gt;" class="cls-40" x="487.19" y="149.98" width="22.31" height="10.15" transform="translate(-14.4 57.66) rotate(-6.53)"/><path class="cls-41" d="M497.25,146.11h1.15a.67.67,0,0,1,.67.67v4.58a0,0,0,0,1,0,0h-2.48a0,0,0,0,1,0,0v-4.58A.67.67,0,0,1,497.25,146.11Z" transform="translate(-13.68 57.56) rotate(-6.53)"/><path class="cls-42" d="M491,146.83h1.13a.68.68,0,0,1,.68.68v4.57a0,0,0,0,1,0,0h-2.48a0,0,0,0,1,0,0v-4.57A.68.68,0,0,1,491,146.83Z" transform="translate(-13.8 56.86) rotate(-6.53)"/><path class="cls-33" d="M502.81,145.47h1.3a.59.59,0,0,1,.59.59v4.65a0,0,0,0,1,0,0h-2.48a0,0,0,0,1,0,0v-4.65A.59.59,0,0,1,502.81,145.47Z" transform="translate(-13.57 58.2) rotate(-6.53)"/><rect id="_Rectangle_8" data-name="&lt;Rectangle&gt;" class="cls-12" x="487.22" y="150.26" width="22.31" height="10.15" transform="translate(-14.43 57.67) rotate(-6.53)"/><path class="cls-43" d="M491.46,146.8h1.2a0,0,0,0,1,0,0v12.32a.44.44,0,0,1-.44.44h-.33a.44.44,0,0,1-.44-.44V146.8a0,0,0,0,1,0,0Z" transform="translate(-14.22 56.94) rotate(-6.53)"/><path class="cls-43" d="M497.65,146.09h1.2a0,0,0,0,1,0,0v12.32a.44.44,0,0,1-.44.44h-.33a.44.44,0,0,1-.44-.44V146.09a0,0,0,0,1,0,0Z" transform="translate(-14.1 57.64) rotate(-6.53)"/><path class="cls-43" d="M503.28,145.44h1.2a0,0,0,0,1,0,0v12.32a.44.44,0,0,1-.44.44h-.33a.44.44,0,0,1-.44-.44V145.44A0,0,0,0,1,503.28,145.44Z" transform="translate(-13.99 58.27) rotate(-6.53)"/><g class="cls-44"><rect class="cls-45" x="165.05" y="93.98" width="82.48" height="61.09"/><rect class="cls-46" x="169.54" y="98.02" width="73.35" height="53.02"/><rect class="cls-14" x="183.76" y="108.59" width="45" height="31.74"/><polyline class="cls-47" points="228.75 140.33 219.83 115.11 209.79 140.33 198.14 110.2 183.76 140.33"/></g><g class="cls-44"><rect class="cls-45" x="262.25" y="93.98" width="82.48" height="61.09"/><rect class="cls-46" x="266.74" y="98.02" width="73.35" height="53.02"/><rect class="cls-14" x="280.96" y="108.59" width="45" height="31.74"/><polyline class="cls-47" points="280.95 140.33 289.88 115.11 299.92 140.33 311.57 110.2 325.95 140.33"/></g></svg>