<svg id="Layer_1" data-name="Layer 1" xmlns="http://www.w3.org/2000/svg" xmlns:xlink="http://www.w3.org/1999/xlink" viewBox="0 0 708.66 481.89"><defs><style>.cls-1,.cls-25,.cls-36,.cls-48{fill:none;}.cls-2,.cls-52{fill:#020202;}.cls-2,.cls-30,.cls-51{opacity:0.07;}.cls-3{fill:#515180;}.cls-14,.cls-4{fill:#ffdc83;}.cls-5{fill:#95bffc;}.cls-6{font-size:7.93px;}.cls-28,.cls-6,.cls-8{fill:#fff;}.cls-28,.cls-6{font-family:Impact, Impact;}.cls-7{fill:#4c4c4b;}.cls-9{fill:#7fa5d3;}.cls-10{clip-path:url(#clip-path);}.cls-11{clip-path:url(#clip-path-2);}.cls-12,.cls-13{fill:#5a7593;}.cls-13,.cls-20,.cls-22,.cls-37,.cls-39,.cls-40,.cls-41,.cls-42,.cls-44{fill-rule:evenodd;}.cls-14{opacity:0.19;}.cls-15{fill:#e7685d;}.cls-16{fill:#fdd8b8;}.cls-17,.cls-20{fill:#f8ab8d;}.cls-18{fill:#ee4256;}.cls-19{fill:#54402b;}.cls-21{fill:#8b6339;}.cls-22,.cls-31{fill:#dc846a;}.cls-23{fill:#6c4e38;}.cls-24{fill:#fec82b;}.cls-25{stroke:#db8369;stroke-width:1.89px;}.cls-25,.cls-36{stroke-linecap:round;stroke-linejoin:round;}.cls-26{fill:#ad8a63;}.cls-27{fill:#e8e8e8;}.cls-28{font-size:13.6px;}.cls-29{clip-path:url(#clip-path-3);}.cls-30{fill:#0f0f0f;}.cls-32{fill:#353560;}.cls-33{fill:#979797;}.cls-34{fill:#e5e5e4;}.cls-35{fill:gray;}.cls-36{stroke:#dc846a;stroke-width:2px;}.cls-37,.cls-43{fill:#cfa07a;}.cls-38,.cls-39{fill:#9a724e;}.cls-40{fill:#7c5736;}.cls-41{fill:#4b3421;}.cls-44{fill:#f1696a;}.cls-45{fill:#f9dba5;}.cls-46{fill:#414042;}.cls-47{fill:#6d6e71;}.cls-48{stroke:#4c4c4b;stroke-miterlimit:10;stroke-width:8px;}.cls-49{fill:#91b985;}.cls-50{fill:#f7af7f;}</style><clipPath id="clip-path"><rect class="cls-1" x="461.14" y="159.98" width="40.06" height="56.81"/></clipPath><clipPath id="clip-path-2"><rect class="cls-1" x="459.6" y="164.34" width="42.78" height="53.98" rx="15.02" ry="15.02" transform="matrix(1, 0.01, -0.01, 1, 1.83, -4.55)"/></clipPath><clipPath id="clip-path-3"><rect class="cls-1" x="239.32" y="56.59" width="115.78" height="161.23"/></clipPath></defs><title>CS-L2-U4</title><rect class="cls-2" x="264.08" y="16.57" width="70.27" height="8.31" rx="4.16" ry="4.16"/><path class="cls-3" d="M298.32,11.47h.34a2.25,2.25,0,0,1,2.25,2.25v5.69a0,0,0,0,1,0,0h-4.84a0,0,0,0,1,0,0V13.72A2.25,2.25,0,0,1,298.32,11.47Z"/><polygon class="cls-4" points="0 22.31 0 347.09 708.66 448.5 708.66 123.72 0 22.31"/><rect class="cls-5" x="464.66" y="244.47" width="37.02" height="12.99"/><text class="cls-6" transform="translate(468.82 253.87)">Manager</text><rect class="cls-7" x="442.42" y="133.99" width="77.12" height="104.12"/><rect class="cls-8" x="447.52" y="139.84" width="66.94" height="92.6"/><rect class="cls-9" x="460.95" y="160.02" width="40.06" height="56.81"/><g class="cls-10"><g class="cls-11"><path id="_Rectangle_" data-name="&lt;Rectangle&gt;" class="cls-12" d="M480.84,199.17h0a2.5,2.5,0,0,1,2.5,2.5v11.48a2.5,2.5,0,0,1-2.5,2.5h-.69a1.81,1.81,0,0,1-1.81-1.81V201.67a2.5,2.5,0,0,1,2.5-2.5Z" transform="translate(1.99 -4.54) rotate(0.54)"/><g id="_Group_" data-name="&lt;Group&gt;"><path id="_Path_" data-name="&lt;Path&gt;" class="cls-12" d="M468.92,179.05s-3.22-.69-3.28,5.87a28.64,28.64,0,0,0,.77,6.44l4.95-5.63,5.09-2.22-6.31-2.35Z"/><path id="_Path_2" data-name="&lt;Path&gt;" class="cls-13" d="M475.2,206.16c8.51.54,13.1-5.71,14.57-13.52,1.54-8.22-3.9-15.08-10.58-15.17-7.6-.1-12.06,2.82-12.76,11.16-.44,5.23,1,15.75,8.78,17.52Z"/><g id="_Group_2" data-name="&lt;Group&gt;"><line id="_Path_3" data-name="&lt;Path&gt;" class="cls-12" x1="469.43" y1="190.15" x2="472.48" y2="190.02"/><path id="_Path_4" data-name="&lt;Path&gt;" class="cls-12" d="M469.35,190.65a.51.51,0,0,1,.06-1l3-.13a.51.51,0,1,1,0,1l-3,.13Z"/></g><g id="_Group_3" data-name="&lt;Group&gt;"><line id="_Path_5" data-name="&lt;Path&gt;" class="cls-12" x1="477.39" y1="190.07" x2="480.43" y2="190.25"/><path id="_Path_6" data-name="&lt;Path&gt;" class="cls-12" d="M477.32,189.57a.51.51,0,0,0,0,1l3,.18a.51.51,0,0,0,.06-1l-3-.18Z"/></g><circle id="_Path_7" data-name="&lt;Path&gt;" class="cls-12" cx="478.5" cy="193.37" r="0.69" transform="translate(280.61 670.02) rotate(-89.46)"/><circle id="_Path_8" data-name="&lt;Path&gt;" class="cls-12" cx="471.16" cy="193.53" r="0.69" transform="translate(273.17 662.84) rotate(-89.46)"/><polygon id="_Path_9" data-name="&lt;Path&gt;" class="cls-13" points="474.83 194.41 475.45 198.51 473.75 198.52 474.83 194.41"/><path id="_Path_10" data-name="&lt;Path&gt;" class="cls-12" d="M472.14,200.3a3.54,3.54,0,0,0,2.68,1.28h0a3.8,3.8,0,0,0,2.71-1.23"/><path id="_Path_11" data-name="&lt;Path&gt;" class="cls-12" d="M478.13,198.46a4.13,4.13,0,0,0,1.86,2.93h0a4.43,4.43,0,0,0,3.44.47"/><path id="_Path_12" data-name="&lt;Path&gt;" class="cls-12" d="M471.72,198.4a2.44,2.44,0,0,1-.74,1.86h0a2.62,2.62,0,0,1-1.88.69"/><circle id="_Path_13" data-name="&lt;Path&gt;" class="cls-12" cx="467.53" cy="182.17" r="3.48" transform="translate(280.95 647.95) rotate(-89.46)"/><circle id="_Path_14" data-name="&lt;Path&gt;" class="cls-12" cx="490.98" cy="189.75" r="3.48" transform="translate(296.58 678.91) rotate(-89.46)"/><path id="_Path_15" data-name="&lt;Path&gt;" class="cls-12" d="M487,194.17s-3.09-.6-2.7-5.66c-1.84-.31-11.17,2-13.91-9.35,2.33-4.61,6.39-5.2,10.8-4.41,6.52,1.16,13.4,6.14,9.44,18.76C490.34,194.45,487.94,193.46,487,194.17Z"/><circle id="_Path_16" data-name="&lt;Path&gt;" class="cls-12" cx="490.56" cy="183.93" r="3.48" transform="translate(301.99 672.72) rotate(-89.46)"/><circle id="_Path_17" data-name="&lt;Path&gt;" class="cls-12" cx="488.51" cy="178.97" r="3.48" transform="translate(304.93 665.77) rotate(-89.46)"/><circle id="_Path_18" data-name="&lt;Path&gt;" class="cls-12" cx="479.84" cy="174.89" r="3.48" transform="translate(300.42 653.06) rotate(-89.46)"/><circle id="_Path_19" data-name="&lt;Path&gt;" class="cls-12" cx="484.05" cy="175.71" r="3.48" transform="translate(303.76 658.08) rotate(-89.46)"/><circle id="_Path_20" data-name="&lt;Path&gt;" class="cls-12" cx="474.85" cy="175.36" r="3.48" transform="translate(295 648.53) rotate(-89.46)"/><circle id="_Path_21" data-name="&lt;Path&gt;" class="cls-12" cx="469.77" cy="177.54" r="3.48" transform="translate(287.79 645.61) rotate(-89.46)"/><g id="_Group_4" data-name="&lt;Group&gt;"><g id="_Group_5" data-name="&lt;Group&gt;"><path id="_Path_22" data-name="&lt;Path&gt;" class="cls-13" d="M486.78,191.58a4,4,0,0,1,1.42-1.45c2.19-1.49,4.71-.24,3.72,2.33-.69,1.8-1.88,6.25-3.28,4.63A8.57,8.57,0,0,1,486.78,191.58Z"/><polygon id="_Path_23" data-name="&lt;Path&gt;" class="cls-13" points="488.45 191.86 491.31 191.41 489.12 195.31 489.88 192.08 488.45 191.86"/></g><circle id="_Path_24" data-name="&lt;Path&gt;" class="cls-12" cx="489.01" cy="197.5" r="1.18" transform="translate(286.89 684.62) rotate(-89.46)"/></g><path id="_Path_25" data-name="&lt;Path&gt;" class="cls-12" d="M480.72,193.38h1.23"/><path id="_Path_26" data-name="&lt;Path&gt;" class="cls-12" d="M468,193.58l.86-.07"/></g><rect class="cls-12" x="462.52" y="207.7" width="35.1" height="20.7" rx="10.35" ry="10.35" transform="translate(2.09 -4.54) rotate(0.54)"/></g></g><rect class="cls-2" x="461.69" y="120.21" width="40.14" height="4.75" rx="2.37" ry="2.37"/><path class="cls-3" d="M481.35,117.3h0a1.38,1.38,0,0,1,1.38,1.38v3.15a0,0,0,0,1,0,0H480a0,0,0,0,1,0,0v-3.15a1.38,1.38,0,0,1,1.38-1.38Z"/><polygon class="cls-14" points="501.83 123.88 461.69 123.88 440.4 240.31 521.95 240.31 501.83 123.88"/><rect class="cls-3" x="461.69" y="121.51" width="40.14" height="4.75" rx="2.37" ry="2.37"/><path class="cls-2" d="M499.91,227.76h0a6.89,6.89,0,0,0-2.69-1.31,6.39,6.39,0,0,0-2.29-1.66l-37.42-16a6.4,6.4,0,0,0-4.95,0h-.67l-5.1.1h-.06l0-.15-8.52.17-.19-9.2a27.3,27.3,0,0,0,5.5-5.77,2,2,0,1,0,3.66-1.77c1.56-1.32,3.37-4.35,4.46-5.88a3.73,3.73,0,0,0,.8-3,32.49,32.49,0,0,0,3.29-9.56,5.42,5.42,0,0,0,1.28,0c3.74-.56,6.19-4.89,5.48-9.67s-4.32-8.21-8.06-7.66a5.67,5.67,0,0,0-3,1.51,25.92,25.92,0,0,0-8.7-6.32c-7-3.21-14-4-19.87,2.53-.71-.28-5.23-1.63-7.95,8.44a48.63,48.63,0,0,0-1.46,9.65l-.15.4c-2.74,7.77-4.65,24.3,6.39,30.06a20.52,20.52,0,0,0,9.8.92l.11,5.57-8.93.18-.09.15-2,0a14.17,14.17,0,0,0-4.27.75,6.42,6.42,0,0,0-6.89,4.94l-9.15,39.65a6.4,6.4,0,0,0-.06,2.61L394.84,299h0l-.1,1.51-.25,3.2h0l0,.43.33,0,1.33,5.57-10.43,2.59a6.33,6.33,0,0,0-3.51,7l6.12,24.64a4.82,4.82,0,0,0,5.84,3.51l15.5-3.85V453.46h2.21v3.66a6.84,6.84,0,0,0-2,.2l-23.77,6.19a3.59,3.59,0,0,0-2.68,3.47v2.33a1.37,1.37,0,0,0,1.37,1.37h75.4a2.72,2.72,0,0,0,2.73-2.73v-9.1a1.37,1.37,0,0,0-1.25-1.36v-4h2.09V294.56c0-.27,0-.53,0-.79l1.86,0s-.81-6.06-1.74-13.74l6.33-4.13-.1-.14,0-.05,0,0,2-2.5,1-1.16h0L501,237.5A6.93,6.93,0,0,0,499.91,227.76Zm-94.46,77.12,2.71.18v-.18h.11l.26-3.32v.27a9.31,9.31,0,0,0,1.11,4.34v.2l-3.52.87Zm41.42,152.24a6.82,6.82,0,0,0-2.15.19l-16.67,4.34v-2.81a1.37,1.37,0,0,0-1.38-1.37v-4h2.09V338.86l2-.49a6.33,6.33,0,0,0,3.51-7L429.2,311l15.46-.12V453.46h2.21Zm15.44-194-.32.38c-.47-4.75-.8-9-.86-11.79-.11-5.52,1.21-18.42,2.1-26.45l22.21,9.49-23,28.47Z"/><path id="_Path_27" data-name="&lt;Path&gt;" class="cls-3" d="M396.74,303.72l13.81,1.18,3.81-49a6.93,6.93,0,0,0-6.32-7.49h0a6.93,6.93,0,0,0-7.49,6.32Z"/><path id="_Path_28" data-name="&lt;Path&gt;" class="cls-15" d="M456.53,400h0a7.4,7.4,0,0,0-7.4,7.4v52.41a7.4,7.4,0,0,0,7.4,7.4h0a7.4,7.4,0,0,0,7.4-7.4V407.37A7.4,7.4,0,0,0,456.53,400Z"/><path id="_Rectangle_2" data-name="&lt;Rectangle&gt;" class="cls-3" d="M456.47,286.18h0a9.55,9.55,0,0,1,9.55,9.55V453.46a0,0,0,0,1,0,0h-19.1a0,0,0,0,1,0,0V295.73A9.55,9.55,0,0,1,456.47,286.18Z"/><path id="_Path_29" data-name="&lt;Path&gt;" class="cls-16" d="M465.18,458.85v9H420.54V467a3.59,3.59,0,0,1,2.68-3.47L447,457.32a6.63,6.63,0,0,1,3.33,0c6.35,1.65,10.81.92,13.09.24A1.37,1.37,0,0,1,465.18,458.85Z"/><path id="_Path_30" data-name="&lt;Path&gt;" class="cls-15" d="M465.18,467.88V468a2.72,2.72,0,0,1-2.73,2.73H421.92a1.37,1.37,0,0,1-1.37-1.37v-1.42Z"/><path id="_Path_31" data-name="&lt;Path&gt;" class="cls-15" d="M421.54,400h0a7.4,7.4,0,0,0-7.4,7.4v52.41a7.4,7.4,0,0,0,7.4,7.4h0a7.4,7.4,0,0,0,7.4-7.4V407.37A7.4,7.4,0,0,0,421.54,400Z"/><path id="_Rectangle_3" data-name="&lt;Rectangle&gt;" class="cls-3" d="M421.48,286.18h0a9.55,9.55,0,0,1,9.55,9.55V453.46a0,0,0,0,1,0,0h-19.1a0,0,0,0,1,0,0V295.73A9.55,9.55,0,0,1,421.48,286.18Z"/><path id="_Path_32" data-name="&lt;Path&gt;" class="cls-16" d="M430.32,458.85v9H385.68V467a3.59,3.59,0,0,1,2.68-3.47l23.77-6.19a6.63,6.63,0,0,1,3.33,0c6.35,1.65,10.81.92,13.09.24A1.37,1.37,0,0,1,430.32,458.85Z"/><path id="_Path_33" data-name="&lt;Path&gt;" class="cls-15" d="M430.32,467.88V468a2.72,2.72,0,0,1-2.73,2.73H387.06a1.37,1.37,0,0,1-1.37-1.37v-1.42Z"/><path id="_Path_34" data-name="&lt;Path&gt;" class="cls-3" d="M465,283.92l-54.48.44.32,17.49a9.36,9.36,0,0,0,9.43,9.28l35.76-.29a9.36,9.36,0,0,0,9.28-9.43Z"/><rect id="_Rectangle_4" data-name="&lt;Rectangle&gt;" class="cls-17" x="431.68" y="194.63" width="8.66" height="21.02" rx="4.33" ry="4.33" transform="translate(-4.1 8.95) rotate(-1.17)"/><rect id="_Rectangle_5" data-name="&lt;Rectangle&gt;" class="cls-3" x="404.82" y="209.63" width="12.85" height="53.55" rx="6.43" ry="6.43" transform="translate(63.67 -86.4) rotate(12.99)"/><path id="_Path_35" data-name="&lt;Path&gt;" class="cls-18" d="M454.16,208.75l-33.44.68c-6.6.13-11.85,4.65-11.74,10.08l4,35-2.51,40.42,57.33-1.17s-4.23-31.52-4.44-42.05c-.17-8.32,2.9-33.34,2.9-33.34C466.19,212.91,460.75,208.62,454.16,208.75Z"/><path id="_Path_36" data-name="&lt;Path&gt;" class="cls-19" d="M425.11,154.06s-5.09-2.55-8,8.39a49.54,49.54,0,0,0-1.51,11.12l10.73-7.26,9.48-1.49-9.54-6.68Z"/><path id="_Path_37" data-name="&lt;Path&gt;" class="cls-20" d="M421.84,202.57c12.7,4.18,22.13-3.49,27.44-14.75,5.59-11.86,0-24.43-10.06-27.19-11.49-3.15-19.41-.48-23.77,11.89-2.74,7.77-4.65,24.3,6.39,30.06Z"/><g id="_Group_6" data-name="&lt;Group&gt;"><line id="_Path_38" data-name="&lt;Path&gt;" class="cls-21" x1="417.81" y1="172.59" x2="422.67" y2="173.87"/><path id="_Path_39" data-name="&lt;Path&gt;" class="cls-21" d="M417.44,173.34a.84.84,0,0,1,.58-1.57l4.86,1.29a.84.84,0,1,1-.43,1.62l-4.86-1.29Z"/></g><g id="_Group_7" data-name="&lt;Group&gt;"><line id="_Path_40" data-name="&lt;Path&gt;" class="cls-21" x1="429.25" y1="175.79" x2="434.1" y2="177.14"/><path id="_Path_41" data-name="&lt;Path&gt;" class="cls-21" d="M429.32,175a.84.84,0,0,0-.29,1.64l4.85,1.35a.84.84,0,0,0,.45-1.62L429.47,175Z"/></g><circle id="_Path_42" data-name="&lt;Path&gt;" cx="429.9" cy="181.07" r="1.13" transform="translate(142.82 548.74) rotate(-74.86)"/><circle id="_Path_43" data-name="&lt;Path&gt;" cx="418.92" cy="178.1" r="1.13" transform="translate(137.58 535.96) rotate(-74.86)"/><polygon id="_Path_44" data-name="&lt;Path&gt;" class="cls-22" points="425.08 179.63 422.65 189.19 420.73 188.17 425.08 179.63"/><ellipse id="_Path_45" data-name="&lt;Path&gt;" class="cls-19" cx="457.92" cy="164.96" rx="6.84" ry="8.76" transform="translate(-19.32 69.32) rotate(-8.48)"/><path id="_Path_46" data-name="&lt;Path&gt;" class="cls-23" d="M446.69,188.64s-6-.48-3.55-6.32c-2.95-1.31-16.22-11.71-18.27-28.15,5.91-6.7,13-5.92,20-2.68,10.4,4.79,19.75,16.12,7.61,35.52C451.59,188.46,448.56,187.85,446.69,188.64Z"/><g id="_Group_8" data-name="&lt;Group&gt;"><path id="_Path_47" data-name="&lt;Path&gt;" class="cls-20" d="M446.39,182.89a6.33,6.33,0,0,1,2.73-1.65c3.91-1.39,7.25,1.5,4.73,5-1.76,2.45-5.33,8.74-6.8,5.73A13.44,13.44,0,0,1,446.39,182.89Z"/><polygon id="_Path_48" data-name="&lt;Path&gt;" class="cls-22" points="448.82 183.97 453.35 184.42 448.48 189.47 450.9 184.87 448.82 183.97"/></g><circle id="_Path_49" data-name="&lt;Path&gt;" class="cls-24" cx="447.56" cy="193.05" r="2.04" transform="translate(144.31 574.65) rotate(-74.86)"/><path id="_Path_50" data-name="&lt;Path&gt;" class="cls-17" d="M449.49,211.48c.12,6.05-5.75,11.08-13.12,11.23S422.92,218.07,422.8,212a9,9,0,0,1,.33-2.64l25.92-.53A9,9,0,0,1,449.49,211.48Z"/><polygon id="_Path_51" data-name="&lt;Path&gt;" class="cls-3" points="448.94 208.71 450.83 214.55 446.09 219.49 448.2 223.25 427.51 253.64 418.49 223.78 421.05 219.8 419.24 215.2 422.82 209.24 448.94 208.71"/><polygon id="_Path_52" data-name="&lt;Path&gt;" class="cls-4" points="425.19 209.19 429.65 243.66 445.87 208.77 425.19 209.19"/><rect id="_Rectangle_6" data-name="&lt;Rectangle&gt;" class="cls-3" x="469.54" y="195.93" width="12.85" height="53.55" rx="6.43" ry="6.43" transform="translate(84.18 572.91) rotate(-66.87)"/><path id="_Path_53" data-name="&lt;Path&gt;" class="cls-2" d="M472.43,275.85,464,281.37s-7.66.5-10.38-.72c-3.16-1.42-6-2.84-6.38-3.58-1.08-2,10.68-4.26,10.68-4.26l8.65-5.08Z"/><path id="_Path_54" data-name="&lt;Path&gt;" class="cls-17" d="M472.43,275.41,464,280.92s-7.66.5-10.38-.72c-3.16-1.42-6-2.84-6.38-3.58-1.08-2,10.68-4.26,10.68-4.26l8.65-5.08Z"/><path id="_Path_55" data-name="&lt;Path&gt;" class="cls-3" d="M472.4,275.69,461.56,267l30.88-38.18a6.93,6.93,0,0,1,9.74-1.1h0a6.93,6.93,0,0,1,1.1,9.74Z"/><rect id="_Rectangle_7" data-name="&lt;Rectangle&gt;" class="cls-18" x="461.32" y="266.97" width="14.03" height="5.15" transform="translate(279.29 -236.68) rotate(39.6)"/><path id="_Path_56" data-name="&lt;Path&gt;" class="cls-25" d="M427.7,193.06a7.8,7.8,0,0,1-6.52.62h0a8.37,8.37,0,0,1-4.68-4.59"/><rect class="cls-2" x="386.83" y="308.41" width="47.33" height="35.02" rx="4.82" ry="4.82" transform="translate(-66.48 108.62) rotate(-13.96)"/><rect class="cls-26" x="386.83" y="307.28" width="47.33" height="35.02" rx="8.5" ry="8.5" transform="translate(-66.21 108.58) rotate(-13.96)"/><rect class="cls-27" x="429.26" y="311.29" width="4.35" height="17.29" transform="translate(-64.42 113.49) rotate(-13.96)"/><path id="_Path_57" data-name="&lt;Path&gt;" class="cls-17" d="M396.92,303.5l2.35,9.82s5.22,5.62,8,6.61c3.27,1.14,6.3,2,7.1,1.79,2.14-.7-4.83-10.44-4.83-10.44l-2.79-9.63Z"/><rect id="_Rectangle_8" data-name="&lt;Rectangle&gt;" class="cls-18" x="396.91" y="299.47" width="13.71" height="5.15" transform="translate(786.55 630.27) rotate(-176.19)"/><rect class="cls-5" x="265.97" y="244.44" width="61.34" height="19.07"/><text class="cls-28" transform="translate(295.02 258.91)">Boss</text><rect class="cls-2" x="222.49" y="39.09" width="144.25" height="200.88"/><rect class="cls-8" x="228.64" y="41.72" width="137.14" height="190.97"/><rect class="cls-5" x="239.32" y="56.59" width="115.78" height="161.23"/><g class="cls-29"><path class="cls-30" d="M337.72,238.08h0l1.5-.13-8.18-93a12.93,12.93,0,0,0-.19-2.22l-.32-3.62a7.38,7.38,0,0,0-8.74-6.6,12.85,12.85,0,0,0-2.48-.49,14.91,14.91,0,0,0-.15-5.49c-.74-3.63-2.52-1.68-6-.28a7.88,7.88,0,0,0,.93-1.21,11.53,11.53,0,0,0,1.53-4.58c3-4.14,4.63-9.45,5.42-14.45q.14-.59.25-1.23a4.46,4.46,0,0,0,2.51-4.15l-.13-3.78-1.52.05h0l-.57,0c0-.36,0-.71-.06-1a30.92,30.92,0,0,0-1.85-8.89,6.5,6.5,0,0,0,2.07-2,4.9,4.9,0,0,0,.91-3.26h-4.56a9.24,9.24,0,0,0,2.34-3.95v0a16,16,0,0,0,1-4.59c0-.25,0-.39,0-.39h-7.56s-7.57-5.5-16-4.79c-13.26,1.12-17.64,9.64-17.64,9.64a14.29,14.29,0,0,0-5.73-1c1.73,2,2.74,2.88,3.52,5.74-1.13,2.9-1.38,6.92-1.35,10.24-2.42.18-4.09,2.21-2.92,5.35s3.31,11.37,5.87,8.46l.16-.21c2.19,8.6,6.68,15.78,13.86,19.2a1,1,0,0,0-.23.16l-.88.81a16,16,0,0,0-7.17,0c-6.85-8.55-16.91-19.6-17.11-18.05a25.82,25.82,0,0,0,.14,8.33c-3.89-4.25-7-7.19-7.08-6.34-1.43,10.58,3.14,16.47,7.68,24.83a7.39,7.39,0,0,0-.9,1.24l-22.66,39.24a7.82,7.82,0,0,0,6.11,11.51l7.59.52c-5.5,12.3-17.52,33.11-41.52,52.19l15.83,38.14c2.19-11.86,18.18-19.95,33.69-26.59-.34,7.24-1,13.16-1,13.16L278.43,267c.26-.73.58-1.54,1-2.41l3.32-.22a65.54,65.54,0,0,1,1.55-9.19l1-1.73,40.38.33.1-5.5H331v-1l7.43-.65-.58-6.57,3.52-2.27Zm-32.07-108.8-.16-.08,1.29-.31Z"/><g class="cls-29"><rect id="_Rectangle_9" data-name="&lt;Rectangle&gt;" class="cls-17" x="327.52" y="207.68" width="11.75" height="45.06" rx="5.88" ry="5.88" transform="translate(685.67 430.34) rotate(174.98)"/><path id="_Path_58" data-name="&lt;Path&gt;" class="cls-31" d="M329.67,249.08a106.31,106.31,0,0,1-1.8,11.85c4.24,2.78,7.79-3.33,7.79-3.33Z"/><path id="_Path_59" data-name="&lt;Path&gt;" class="cls-17" d="M341,243.35l4.36,11.91s-2,9.51-4.29,12.49c-2.63,3.46-8,5.35-9,5.63-2.72.76,1.11-13.11,1.11-13.11l-3.77-12Z"/><rect id="_Rectangle_10" data-name="&lt;Rectangle&gt;" class="cls-8" x="324.63" y="238.59" width="19.54" height="10.31" transform="translate(688.85 457.27) rotate(174.98)"/><path id="_Rectangle_11" data-name="&lt;Rectangle&gt;" class="cls-32" d="M322.08,132.18h14.77a0,0,0,0,1,0,0v99.23a7.38,7.38,0,0,1-7.38,7.38h0a7.38,7.38,0,0,1-7.38-7.38V132.18A0,0,0,0,1,322.08,132.18Z" transform="translate(673.9 341.41) rotate(174.98)"/><path id="_Rectangle_12" data-name="&lt;Rectangle&gt;" class="cls-32" d="M273.43,243.39h19.1a0,0,0,0,1,0,0V395.13a9.55,9.55,0,0,1-9.55,9.55h0a9.55,9.55,0,0,1-9.55-9.55V243.39A0,0,0,0,1,273.43,243.39Z" transform="translate(565.96 648.08) rotate(180)"/><path id="_Rectangle_13" data-name="&lt;Rectangle&gt;" class="cls-32" d="M308.43,243.39h19.1a0,0,0,0,1,0,0V395.13a9.55,9.55,0,0,1-9.55,9.55h0a9.55,9.55,0,0,1-9.55-9.55V243.39a0,0,0,0,1,0,0Z" transform="translate(635.96 648.08) rotate(180)"/><path id="_Path_60" data-name="&lt;Path&gt;" class="cls-32" d="M273.74,235.85l54.49.44-.32,17.49a9.36,9.36,0,0,1-9.44,9.29l-35.77-.29a9.36,9.36,0,0,1-9.29-9.44Z"/><path id="_Rectangle_14" data-name="&lt;Rectangle&gt;" class="cls-33" d="M267.78,131.94h65.53a0,0,0,0,1,0,0v94.16a22.19,22.19,0,0,1-22.19,22.19H290.71a22.93,22.93,0,0,1-22.93-22.93V131.94A0,0,0,0,1,267.78,131.94Z" transform="translate(601.09 380.22) rotate(-180)"/><polygon id="_Path_61" data-name="&lt;Path&gt;" class="cls-32" points="286.86 131.94 284.89 138.45 290.25 143.8 288 148.02 311.58 181.17 320.89 147.93 317.97 143.58 319.86 138.45 315.76 131.94 286.86 131.94"/><polygon id="_Path_62" data-name="&lt;Path&gt;" class="cls-8" points="313.53 131.94 309.37 170.18 290.64 131.94 313.53 131.94"/><path id="_Path_63" data-name="&lt;Path&gt;" class="cls-17" d="M301.52,117.32h-.16a4.5,4.5,0,0,1,4.47,4.63v9.9c0,2.56-1.91,3.35-4.47,3.35h.08c-2.56,0-4.55-.8-4.55-3.35V122A4.63,4.63,0,0,1,301.52,117.32Z"/><polygon id="_Path_64" data-name="&lt;Path&gt;" class="cls-34" points="290.64 131.94 296.32 128.22 302.5 133.32 298.9 141.82 290.64 131.94"/><polygon id="_Path_65" data-name="&lt;Path&gt;" class="cls-34" points="313.53 131.94 305.68 128.22 302.5 133.32 309.37 141.82 313.53 131.94"/><polygon id="_Path_66" data-name="&lt;Path&gt;" class="cls-33" points="302.5 133.32 300.36 138.38 305.68 143.58 307.17 139.09 302.5 133.32"/><polygon id="_Path_67" data-name="&lt;Path&gt;" class="cls-3" points="304.16 141.75 303.32 157.83 309.37 170.18 310.86 156.51 306.12 141.26 304.16 141.75"/><ellipse id="_Path_68" data-name="&lt;Path&gt;" class="cls-32" cx="307.09" cy="199.11" rx="3.04" ry="3.77"/><ellipse id="_Path_69" data-name="&lt;Path&gt;" class="cls-32" cx="307.09" cy="219.7" rx="3.04" ry="3.77"/><rect id="_Rectangle_15" data-name="&lt;Rectangle&gt;" class="cls-32" x="280.72" y="211.5" width="14.56" height="5.4"/><rect id="_Rectangle_16" data-name="&lt;Rectangle&gt;" class="cls-32" x="258.15" y="129.55" width="14.89" height="60.21" rx="7.45" ry="7.45" transform="translate(415.79 430.71) rotate(-150)"/><path id="_Path_70" data-name="&lt;Path&gt;" class="cls-20" d="M307.59,127.47c-15.45.83-23.66-10.58-26.19-24.76-2.66-14.93,7.34-27.29,19.45-27.33,13.78,0,21.82,5.33,23,20.46.71,9.5-2.15,28.54-16.22,31.63Z"/><path id="_Path_71" data-name="&lt;Path&gt;" class="cls-33" d="M280.39,82.32c-1.45,3.73-1.45,9.33-1.26,12.9a3.57,3.57,0,0,1,3-.76,4.26,4.26,0,0,1,.49.12h0l.24.08.24.09.25.11.18.09.29.16.23.14.23.16.22.17.22.18c.14.12.28.26.41.39s0,0,0,0l.08.1,0,.06.05.06,0,0,0,0v0a.18.18,0,0,1,0,0V103a2.92,2.92,0,0,0,.69,2.18,3.54,3.54,0,0,0,.3.33,4.65,4.65,0,0,0,2,.58,3.39,3.39,0,0,0,3.41-3.09v-2.33a3.36,3.36,0,0,1,3.09-3.36l.59,0c0-2.65,0-4.75,0-6.05,0-1.62.57-2.69,4.16-3h.1l1-.08h.08c.62,0,1.31,0,2.08,0h16.46l.19,0a8.13,8.13,0,0,0,4.5-3.08,4.9,4.9,0,0,0,.91-3.26h-4.56a9.24,9.24,0,0,0,2.34-3.95,21.58,21.58,0,0,0,1-5h-7.56s-7.57-5.5-16-4.79c-13.26,1.12-17.64,9.64-17.64,9.64a14.29,14.29,0,0,0-5.73-1C278.6,78.58,279.61,79.46,280.39,82.32Z"/><path id="_Path_72" data-name="&lt;Path&gt;" class="cls-35" d="M300.8,88.13c.62,0,1.31,0,2.08,0h16.46l.19,0a8.13,8.13,0,0,0,4.5-3.08,4.9,4.9,0,0,0,.91-3.26s-3.92,4.42-6.43,4.87l-.2,0C315.77,87,304.5,87.85,300.8,88.13Z"/><path id="_Path_73" data-name="&lt;Path&gt;" class="cls-33" d="M297.27,113.09l.38,2.35.85,5.31v.06l.27,1.71c.79,4.69,4.68,7.71,8.69,6.76l4.73-1.12a6.72,6.72,0,0,0,4.18-3.14,12.25,12.25,0,0,0,1.65-5.85l-.24-7.67c-.35-2-.87-2.83-2.64-2.81H299.76A3.8,3.8,0,0,0,297.27,113.09Z"/><path id="_Path_74" data-name="&lt;Path&gt;" class="cls-8" d="M309.51,116.19c3.19,0,6-1.73,6-3.7V112H303.2v.46c0,1.79,1.88,3.7,5.35,3.7Z"/><path id="_Path_75" data-name="&lt;Path&gt;" class="cls-35" d="M323.77,72.75s-2.93,6.67-7.06,8.37c-3.51,1.44-20.67,2-20.67,2a29.28,29.28,0,0,0,5.32,1.27c1.56.16,16.65.64,19-2.68A14.71,14.71,0,0,0,323.77,72.75Z"/><path id="_Path_76" data-name="&lt;Path&gt;" class="cls-33" d="M286.38,105.56a14.91,14.91,0,0,0,2.55,2c3.4,2.25,8.21,5,9.56,11.1v0c.64,3,1.24,2.62,1.67.94.74-2.91,1-9.84-.06-11.12h0c-2.91,0-8.34-1.9-8.34-5.45S282.95,102.46,286.38,105.56Z"/><path id="_Path_77" data-name="&lt;Path&gt;" class="cls-33" d="M318,118.23c-.11-3.34,5.6-7.3,5.88-16.21a9,9,0,0,1-8.7,6.48C314.07,109.83,317.15,115.63,318,118.23Z"/><path id="_Path_78" data-name="&lt;Path&gt;" class="cls-35" d="M288.94,107.54c3.4,2.68,8.21,5.89,9.56,13.21v.06l.27,1.71c.79,4.69,4.68,7.71,8.69,6.76l4.73-1.12a6.72,6.72,0,0,0,4.18-3.14,28.5,28.5,0,0,1-7.43,2c-3.55.32-7.82-.88-8.77-5.1h0a25,25,0,0,0-2.54-6.47C295.75,112.06,292.87,108.74,288.94,107.54Z"/><g id="_Group_9" data-name="&lt;Group&gt;"><line id="_Path_79" data-name="&lt;Path&gt;" class="cls-33" x1="320.48" y1="94.09" x2="314.96" y2="93.81"/><path id="_Path_80" data-name="&lt;Path&gt;" class="cls-33" d="M320.61,95a.92.92,0,0,0-.08-1.83L315,92.89a.92.92,0,0,0-.09,1.84l5.52.28Z"/></g><g id="_Group_10" data-name="&lt;Group&gt;"><line id="_Path_81" data-name="&lt;Path&gt;" class="cls-33" x1="304.9" y1="93.81" x2="299.38" y2="94.09"/><path id="_Path_82" data-name="&lt;Path&gt;" class="cls-33" d="M305,92.9a.92.92,0,0,1-.08,1.83l-5.52.28a.92.92,0,0,1-.09-1.84l5.52-.28Z"/></g><circle id="_Path_83" data-name="&lt;Path&gt;" cx="302.83" cy="99.77" r="1.24"/><circle id="_Path_84" data-name="&lt;Path&gt;" cx="317.29" cy="100.2" r="1.24"/><polygon id="_Path_85" data-name="&lt;Path&gt;" class="cls-22" points="309.6 99.22 309.43 107.1 311.75 106.72 309.6 99.22"/><path id="_Path_86" data-name="&lt;Path&gt;" class="cls-36" d="M298.18,101.45a6.49,6.49,0,0,0,3.85,1.14h0a7,7,0,0,0,3.85-1.14"/><path id="_Path_87" data-name="&lt;Path&gt;" class="cls-36" d="M313.5,101.45a6.49,6.49,0,0,0,3.85,1.14h0a7,7,0,0,0,3.85-1.14"/><g id="_Group_11" data-name="&lt;Group&gt;"><path id="_Path_88" data-name="&lt;Path&gt;" class="cls-20" d="M285.46,96.41a7.32,7.32,0,0,0-2.55-2.66c-3.95-2.74-8.55-.52-6.79,4.17,1.22,3.27,3.31,11.37,5.87,8.46A15.55,15.55,0,0,0,285.46,96.41Z"/><polygon id="_Path_89" data-name="&lt;Path&gt;" class="cls-22" points="282.43 96.88 277.24 96.01 281.15 103.12 279.83 97.26 282.43 96.88"/></g><path class="cls-37" d="M194,293a58.11,58.11,0,0,1,32.52-88,58.07,58.07,0,0,0-29.21,78.16h0Z"/><rect class="cls-38" x="216.99" y="301.85" width="37.35" height="7.78" rx="3.89" ry="3.89"/><path class="cls-39" d="M273.86,291.62h0a6.19,6.19,0,0,1,7.85,3.71l2.58,7.25,7.37,5.15v5.85H279.44a6.2,6.2,0,0,1-5.76-4.1l-3.54-10a6.16,6.16,0,0,1,3.71-7.85Z"/><path class="cls-39" d="M272.59,265.21s-2.88-17-6.81-28.06,3.27-26.71,13.44-28.28S298,216.11,298,216.11s-12.22,36-13,48.27-12.79,7.16-12.4.83Z"/><path class="cls-39" d="M279.44,257.79h0a6.16,6.16,0,0,1,5.54,6.68l-3.19,32.95a6.13,6.13,0,0,1-6.72,5.54h0a6.11,6.11,0,0,1-5.5-6.72l3.19-32.95a6.09,6.09,0,0,1,6.68-5.5Z"/><path class="cls-40" d="M281,138.54c3.31,4.79,10,6,11.69,6.69s3.77-5.12.92-10.72-22.73-28.46-23-26.27c-1.72,12.73,5.2,18.68,10.4,30.3Z"/><path class="cls-39" d="M232.29,301l-.36.25-.33.24-.33.24-.3.24-.31.21-.31.21-.28.21-.28.21-.26.18-.26.18-.26.18-.23.17-.23.17-.23.17-.21.14-.21.14-.21.14-.18.14-.18.14-.18.11-.15.13-.15.11-.15.11-.15.11-.13.1-.13.07-.13.1-.1.07-.13.07-.1.07-.07.07-.1.07-.08.07-.1.07-.05,0-.08.07-.08,0-.05,0,0,.06-.05,0-.05,0H225l-.05,0,0,0,0,0h0l0,0h0l0,0h-.06v0h0l0,0h0a4,4,0,0,1-5.49-.9h0a4,4,0,0,1,.9-5.49l6.59-4.73s13-11.21,12.18-24.93S248,251.51,254,252.26s7.75,10.43,2.42,23.56S239.89,295.57,232.29,301Z"/><path class="cls-37" d="M221.19,304.77l-.46.27-.43.27-.43.27-.43.24-.4.24-.36.23-.36.23-.36.23-.36.23-.33.19-.3.19-.33.2-.3.19-.26.16-.3.16-.26.19-.23.15-.27.13-.23.15-.2.15-.23.12-.2.12-.2.12-.16.11-.16.11-.16.11-.17.08-.16.11-.13.08-.13.08-.13.08-.1.07-.13.08-.1,0-.1.07-.1,0-.06.07-.1,0-.07,0-.07,0-.07,0,0,0-.07,0h0l-.07,0,0,0h0l0,0h0v0h-.07v0h0a5.53,5.53,0,0,1-6.92-.79h0c-1.55-1.84-.95-4.45,1.33-5.84l8.45-5.19s16.78-12.25,16.2-26.7,12.11-20.27,19.69-19.67,9.5,10.77,2.36,24.82-21.53,21.38-31.3,27.39Z"/><path class="cls-37" d="M206,302a19.72,19.72,0,0,1-13.2-11.84c-3.77-9.92-2.41-26.9,27.17-50.43,37.06-29.48,45.57-63.06,45.57-63.06s29.64-13.48,41,5.26,1.5,44-7.63,54.61-59.08,19.69-63.08,41.33S213.18,303.19,206,302Z"/><path class="cls-37" d="M269.39,294.34h0a6.19,6.19,0,0,1,7.85,3.71l2.58,7.25,7.37,5.15v5.85H275a6.19,6.19,0,0,1-5.76-4.1l-3.58-10a6.21,6.21,0,0,1,3.75-7.85Z"/><path class="cls-37" d="M268.56,264.49s1.79-17.2,1-28.85,10.39-24.87,20.56-23.65,16.19,12,16.19,12-21.47,31.33-25.57,43-14.23,3.45-12.13-2.53Z"/><path class="cls-37" d="M275,260.51h0a6.16,6.16,0,0,1,5.54,6.68l-3.19,32.95a6.16,6.16,0,0,1-6.72,5.54h0a6.11,6.11,0,0,1-5.5-6.72L268.3,266a6.09,6.09,0,0,1,6.68-5.5Z"/><path class="cls-37" d="M264.42,185.26l4.81-40.47s6.16-8.39,15.86-5.94,9.63,22.74,10,26.09,5.53,40.22,5.53,40.22-40.41,15.07-36.21-19.89Z"/><path class="cls-37" d="M296.9,153s8.06-2,13.86-1.7,9.37-.13,10.55-2,.17-6.6.17-6.6-14.74,2.48-16.54,2.89-8,7.4-8,7.4Z"/><path class="cls-37" d="M269.23,144.79c.11-3.94,3.06-13.26,14.48-17.37s15.71,1.49,15.71,1.49l2.12,2.53,16.87-5.71s3.62,8.62,2.85,12.8-6,7.68-14.93,10.71-12.12,3.58-11.66,9.63-20.07,4.54-25.43-14.08Z"/><path class="cls-41" d="M314.82,126.47c3.86-1.39,5.82-3.81,6.6,0,.53,2.87.91,7.56-2.32,8.49-4.72,1.33-5.93-7.32-4.28-8.52Z"/><path class="cls-39" d="M274.1,140.53c3.35,4.78,10,6,11.69,6.69s3.77-5.12.92-10.72S264,108,263.69,110.23c-1.72,12.73,5.24,18.66,10.4,30.3Z"/><path class="cls-42" d="M298.63,134.2c1.11-.4,1.57-2,1-3.48s-1.88-2.38-3-2-1.57,2-1,3.43,1.9,2.42,3,2Z"/><path class="cls-41" d="M291.33,129.64l4.46-4.11a1.19,1.19,0,0,1,1.64.06h0a1.16,1.16,0,0,1-.07,1.6l-4.5,4.13a1.09,1.09,0,0,1-1.6-.07h0a1.1,1.1,0,0,1,.07-1.6Z"/><rect class="cls-43" x="204.21" y="303.81" width="43.33" height="7.78" rx="3.89" ry="3.89"/><path class="cls-44" d="M314.36,143.37c5.4,1.76,1.21,9.38,5.25,9.47,1.27,0,1.91-1.09,1.91-4.1,0-4.19-1-7.32-7.17-5.37Z"/><rect id="_Rectangle_17" data-name="&lt;Rectangle&gt;" class="cls-17" x="294.54" y="160.38" width="11.88" height="45.44" rx="5.94" ry="5.94" transform="translate(100.89 472.89) rotate(-86.8)"/><path id="_Path_90" data-name="&lt;Path&gt;" class="cls-31" d="M314.6,188.85a107.22,107.22,0,0,1,5.94,10.53c5.09-.43,4.11-7.48,4.11-7.48Z"/><path id="_Path_91" data-name="&lt;Path&gt;" class="cls-17" d="M320,178.2l11.08,6.36s4.3,8.81,4.36,12.58c.07,4.39-3,9.22-3.66,10.08-1.69,2.29-7.27-11.1-7.27-11.1l-11-8Z"/><path id="_Rectangle_18" data-name="&lt;Rectangle&gt;" class="cls-32" d="M269.9,151.06h13.91a.67.67,0,0,1,.67.67v52.09a7.45,7.45,0,0,1-7.45,7.45h0a7.45,7.45,0,0,1-7.45-7.45V151.37a.31.31,0,0,1,.31-.31Z" transform="matrix(-0.07, 1, -1, -0.07, 476.54, -82.97)"/><rect id="_Rectangle_19" data-name="&lt;Rectangle&gt;" class="cls-8" x="292.08" y="177.37" width="19.71" height="10.4" transform="translate(102.79 473.84) rotate(-86.8)"/><path class="cls-24" d="M313.9,191.25l-3.57-.19a.56.56,0,0,1-.53-.58l.71-13.23,4.68.25-.71,13.23A.56.56,0,0,1,313.9,191.25Z"/><rect class="cls-45" x="310.08" y="185.58" width="4.69" height="0.71" transform="translate(10.15 -16.08) rotate(3)"/><rect class="cls-45" x="310.04" y="186.56" width="4.69" height="0.35" transform="translate(10.19 -16.08) rotate(3)"/><rect class="cls-45" x="308.89" y="176.88" width="7.94" height="1.3" rx="0.65" ry="0.65" transform="translate(9.71 -16.11) rotate(3)"/></g><path class="cls-46" d="M312.09,97.29,326,96.81l.13,3.78a4.46,4.46,0,0,1-4.29,4.59l-5,.17a4.46,4.46,0,0,1-4.59-4.29Z"/><path class="cls-47" d="M314.89,97.2l2.84-.1-5.16,5.54a4.4,4.4,0,0,1-.35-1.56l0-1Z"/><path class="cls-47" d="M318.69,97.06l5.75-.2-7.93,8.5a4.47,4.47,0,0,1-3.61-2.09Z"/><rect class="cls-46" x="302.62" y="97.44" width="10.35" height="1.36" transform="translate(-3.19 10.64) rotate(-1.97)"/><path class="cls-46" d="M292.61,98l13.86-.48.13,3.78a4.46,4.46,0,0,1-4.29,4.59l-5,.17a4.46,4.46,0,0,1-4.59-4.29Z"/><path class="cls-47" d="M295.41,97.87l2.84-.1-5.16,5.54a4.41,4.41,0,0,1-.35-1.56l0-1Z"/><path class="cls-47" d="M299.21,97.73l5.75-.2L297,106a4.47,4.47,0,0,1-3.61-2.09Z"/></g><rect class="cls-48" x="226.8" y="40.68" width="140.51" height="194.07"/><text class="cls-28" transform="translate(271.96 258.91)">The</text><circle class="cls-8" cx="325.04" cy="246.76" r="1.08"/><circle class="cls-8" cx="325.04" cy="260.7" r="1.08"/><circle class="cls-8" cx="268.19" cy="260.7" r="1.08"/><circle class="cls-8" cx="268.19" cy="246.76" r="1.08"/><path class="cls-2" d="M274.57,282.27c-4.47,2.61-6.5,7.88-7.17,10-5.81,2.44-11.28,7.76-15.94,15.61a80.3,80.3,0,0,0-7.86,18.79h-.13c.47-3.29,2.53-16.25,2.66-23.61l.25-.47c2-.28,7.88-1.46,11.27-5.75,3.21-4.06,3.17-9.71,3-12a22,22,0,0,0,4-4.08s-6.08-5-12.63-4.09a12.91,12.91,0,0,0-3.92,1.23c0-.08,0-.15,0-.23-1.34-6.47-8.06-10.54-8.06-10.54s-4.54,6.41-3.19,12.88a13.44,13.44,0,0,0,2.06,4.73,25.24,25.24,0,0,0-5.33,5.11,25.86,25.86,0,0,0-5.2-5.34,13.11,13.11,0,0,0,1.78-4.15c1.45-6.45-3-12.93-3-12.93s-6.43,3.76-8.11,9.91A13,13,0,0,0,215,276c-6.53-1-12.69,3.88-12.69,3.88a22,22,0,0,0,4,4.21c-.18,1.34-.87,8,2.72,12.76,3.46,4.53,9.74,5.73,11.41,6-.06,7,1.72,19.78,2.23,23.7h-.18A79.9,79.9,0,0,0,215,308c-4.52-7.93-9.91-13.34-15.68-15.87-.63-2.17-2.58-7.47-7-10.15-5.65-3.42-13.21-1.28-13.21-1.28s1.6,7.69,7.26,11.12c4.53,2.75,10.29,1.91,12.39,1.47,6.76,3,12.85,10,17.47,19.85-1.82-2-5.17-5-9.43-5.67-6.53-1-12.71,3.84-12.71,3.84s4.41,6.5,10.94,7.52c5.43.85,10.61-2.37,12.2-3.47a86.64,86.64,0,0,1,3.89,11.16l-16-.12,4.72,34.85h-2.79v4.36h50.22v-4.36h-2.82l6.55-34.41-16.15-.13a87.08,87.08,0,0,1,4.18-11.49c1.58,1.14,6.71,4.43,12.15,3.67,6.55-.91,11.06-7.34,11.06-7.34s-6.1-5-12.64-4c-4.27.59-7.67,3.53-9.53,5.51,4.78-9.72,11-16.72,17.79-19.56,2.1.47,7.84,1.4,12.42-1.27,5.71-3.33,7.44-11,7.44-11S280.28,278.94,274.57,282.27Zm-31.44,38.54a84.08,84.08,0,0,0-1.69-12,16.53,16.53,0,0,0,3.37-3.59A99.5,99.5,0,0,1,243.13,320.81Zm-9.48-20.66a11.79,11.79,0,0,0-1.29-.75,12.24,12.24,0,0,0-2.45-.89,39.5,39.5,0,0,1,3.61-6.4,40.75,40.75,0,0,1,3.55,6.79,12.38,12.38,0,0,0-2.78.92C234.06,299.92,233.85,300,233.65,300.15Zm15-10.4a14.19,14.19,0,0,0-2.63,5.94q-.16-3-.47-6.1a23.37,23.37,0,0,0,1.19-2.37,16.61,16.61,0,0,0,3.49.88A12.11,12.11,0,0,0,248.62,289.75Zm-9-3.9a22.39,22.39,0,0,0,4.66,4.39q.44,4.51.53,8.88a19.92,19.92,0,0,0-6.48-.42,41.77,41.77,0,0,0-4-7.68A24.29,24.29,0,0,1,239.64,285.85Zm-6.9,5.14a40.44,40.44,0,0,0-4.12,7.26,19.68,19.68,0,0,0-6.78.26q.18-4,.65-8.06a22,22,0,0,0,5.15-4.83A25,25,0,0,1,232.74,291Zm-7.53,17.42a83.35,83.35,0,0,0-2,12.63,100,100,0,0,1-1.44-16.43A16.41,16.41,0,0,0,225.2,308.41Zm-9.48-20.91a15.8,15.8,0,0,0,4.11-.8,23.26,23.26,0,0,0,1.44,3.09q-.36,3.06-.57,6.09a14.19,14.19,0,0,0-2.53-6A12.59,12.59,0,0,0,215.73,287.5Zm8.41,38.33a87.79,87.79,0,0,1,2-15.64c1.13.41,7.42,2.49,12.78.15.71-.18,1.23-.35,1.49-.44a87.87,87.87,0,0,1,1.7,15.67c-.1.38-.2.75-.3,1.12l-17.44-.14C224.26,326.31,224.2,326.07,224.14,325.83Z"/><path class="cls-49" d="M217.25,276c5.05.77,8.85,4.83,10.31,6.63,6.4,3.21,11.52,10.34,14.7,20.63a78.2,78.2,0,0,1,3.13,17.53,107.83,107.83,0,0,0,1.17-30.57c-1.66-1.15-6.38-4.85-7.48-10.16-1.34-6.47,3.19-12.88,3.19-12.88s6.72,4.08,8.06,10.54c1,4.91-1.35,9.79-2.55,11.85q.31,3.07.47,6.1a14.19,14.19,0,0,1,2.63-5.94c4.09-5.19,11.93-5.83,11.93-5.83s1.19,7.77-2.9,13c-3.53,4.47-9.84,5.57-11.51,5.78-.06,8.21-2.77,24.24-2.77,24.82a80.91,80.91,0,0,1,8.08-19.55c4.65-7.85,10.13-13.17,15.94-15.61.67-2.16,2.7-7.43,7.17-10,5.71-3.33,13.23-1.07,13.23-1.07s-1.73,7.66-7.44,11c-4.58,2.67-10.32,1.74-12.42,1.27-6.8,2.84-13,9.84-17.79,19.56,1.85-2,5.26-4.92,9.53-5.51,6.55-.91,12.64,4,12.64,4s-4.51,6.43-11.06,7.34c-5.44.76-10.57-2.54-12.15-3.67a92.42,92.42,0,0,0-5.89,18.18c-1,.15-2.45.22-3.73.27a69.32,69.32,0,0,0,2.57-8.11,87.87,87.87,0,0,0-1.7-15.67c-1.16.4-7.71,2.46-13.09-.19-5.93-2.92-8.2-10.44-8.2-10.44s7.34-2.79,13.27.13c4.41,2.17,6.8,6.9,7.73,9.17-2.66-11.79-7.85-20.7-14.89-24.52-1.83,1.24-6.77,4.13-11.94,3.34-6.53-1-11-7.49-11-7.49S210.72,275,217.25,276Z"/><path class="cls-49" d="M254.3,276.73c-5.07.69-8.92,4.68-10.41,6.46-6.45,3.11-11.69,10.15-15,20.38A78.18,78.18,0,0,0,225.42,321a107.81,107.81,0,0,1-.67-30.58c1.67-1.12,6.46-4.74,7.65-10,1.45-6.45-3-12.93-3-12.93s-6.78,4-8.23,10.41c-1.1,4.89,1.19,9.81,2.35,11.89q-.36,3.06-.57,6.09a14.19,14.19,0,0,0-2.53-6c-4-5.25-11.83-6-11.83-6s-1.32,7.75,2.69,13c3.46,4.53,9.74,5.73,11.41,6-.07,8.21,2.37,24.28,2.36,24.86A80.84,80.84,0,0,0,217.3,308c-4.52-7.93-9.91-13.34-15.68-15.87-.63-2.17-2.58-7.47-7-10.15-5.65-3.42-13.21-1.28-13.21-1.28s1.6,7.69,7.26,11.12c4.53,2.75,10.29,1.91,12.39,1.47,6.76,3,12.85,10,17.47,19.85-1.82-2-5.17-5-9.43-5.67-6.53-1-12.71,3.84-12.71,3.84s4.41,6.5,10.94,7.52c5.43.85,10.61-2.37,12.2-3.47a92.37,92.37,0,0,1,5.59,18.28c1,.17,2.45.26,3.73.33a69.36,69.36,0,0,1-2.44-8.15,87.78,87.78,0,0,1,2-15.64c1.15.42,7.67,2.59,13.09,0,6-2.82,8.37-10.3,8.37-10.3s-7.3-2.91-13.27-.09c-4.45,2.1-6.91,6.78-7.88,9,2.85-11.75,8.19-20.57,15.29-24.27,1.81,1.27,6.7,4.24,11.89,3.54,6.55-.89,11.08-7.3,11.08-7.3S260.85,275.84,254.3,276.73Z"/><polygon class="cls-16" points="263.35 326.84 256.63 362.12 212.42 362.99 207.47 326.4 263.35 326.84"/><rect class="cls-50" x="209.4" y="361.25" width="50.22" height="4.36"/><g class="cls-51"><polygon class="cls-52" points="282.71 365.33 184.1 365.33 184.1 455.96 190.49 455.96 191.39 469.8 197.67 469.8 198.57 455.96 268.47 455.96 269.37 469.8 275.65 469.8 276.55 455.96 282.71 455.96 282.71 365.33"/><rect class="cls-52" x="184.1" y="365.33" width="98.61" height="27.64"/><rect class="cls-52" x="184.1" y="397.55" width="98.61" height="26.02"/><rect class="cls-52" x="184.1" y="428.54" width="98.61" height="27.76"/></g><polygon class="cls-3" points="284.98 365.33 186.37 365.33 186.37 455.96 192.76 455.96 193.66 469.8 199.94 469.8 200.84 455.96 270.73 455.96 271.64 469.8 277.91 469.8 278.82 455.96 284.98 455.96 284.98 365.33"/><rect class="cls-5" x="186.36" y="365.33" width="98.61" height="27.64"/><rect class="cls-5" x="186.36" y="397.55" width="98.61" height="26.02"/><rect class="cls-5" x="186.36" y="428.54" width="98.61" height="27.76"/><polygon class="cls-14" points="334.35 22.99 264.08 22.99 226.8 240.42 369.58 240.42 334.35 22.99"/><rect class="cls-3" x="264.08" y="18.84" width="70.27" height="8.31" rx="4.16" ry="4.16"/></svg>