<svg id="Layer_1" data-name="Layer 1" xmlns="http://www.w3.org/2000/svg" xmlns:xlink="http://www.w3.org/1999/xlink" viewBox="0 0 708.66 481.89"><defs><style>.cls-1{fill:#ee4256;}.cls-12,.cls-2{fill:#8ba9cc;}.cls-2{opacity:0.2;}.cls-3{fill:#fff;}.cls-4,.cls-6{fill:#e0ac89;}.cls-5{fill:#141413;}.cls-19,.cls-22,.cls-5,.cls-6{fill-rule:evenodd;}.cls-11,.cls-5{opacity:0.07;}.cls-7{font-size:19.73px;fill:#5b5b5b;font-family:Impact, Impact;}.cls-8{fill:#f4e8df;}.cls-9{fill:#168986;}.cls-10{fill:#19a4a4;}.cls-11{fill:#141414;}.cls-13{fill:#dae3ea;}.cls-14,.cls-19{fill:#f8ab8d;}.cls-15{fill:#405aa8;}.cls-16{fill:#e5e5e4;}.cls-17{fill:#4c836a;}.cls-18,.cls-22{fill:#dc846a;}.cls-20{fill:#8b6339;}.cls-21{fill:#754d24;}.cls-23{fill:#4d4e4e;}.cls-24{fill:#b3b2b3;}.cls-25{fill:#020202;opacity:0.13;}.cls-26{fill:#353560;}.cls-27{fill:#c49a6c;}.cls-28{fill:#979797;}.cls-29{fill:gray;}.cls-30,.cls-33,.cls-36,.cls-46{fill:none;}.cls-30,.cls-46{stroke:#dc846a;}.cls-30,.cls-33,.cls-46{stroke-linecap:round;stroke-linejoin:round;}.cls-30{stroke-width:1.37px;}.cls-31{fill:#414042;}.cls-32{fill:#6d6e71;}.cls-33{stroke:#f8ab8d;stroke-width:1.87px;}.cls-34{fill:#e3e3e5;opacity:0.31;}.cls-35{fill:#095a70;}.cls-36{stroke:#648ec9;stroke-miterlimit:10;stroke-width:2.74px;}.cls-37{fill:#648ec9;}.cls-38{fill:#f4f4f4;opacity:0.71;}.cls-39{fill:#fcd06d;}.cls-40{fill:#e7685d;}.cls-41{fill:#fdd8b8;}.cls-42{fill:#54402b;}.cls-43{fill:#6c4e38;}.cls-44{clip-path:url(#clip-path);}.cls-45{fill:#f2f2f2;}.cls-46{stroke-width:1.27px;}.cls-47{fill:#e79b88;}.cls-48{fill:#f0626e;}</style><clipPath id="clip-path"><path id="_Clipping_Path_" data-name="&lt;Clipping Path&gt;" class="cls-1" d="M280.56,213H310a10.52,10.52,0,0,1,10.52,10.52v80.62H270s3.15-33.79,3.15-45c0-8.89-3.15-35.57-3.15-35.57A10.52,10.52,0,0,1,280.56,213Z"/></clipPath></defs><title>CS-L2-U3</title><path class="cls-2" d="M326.6,158.29V300.66h71.2V158.29ZM354.48,229H338.08V209.42h16.39Zm0-34.66H338.08V174.76h16.39ZM382.64,268H366.25V248.36h16.39Zm0-73.6H366.25V174.76h16.39Z"/><rect class="cls-3" x="338.08" y="174.76" width="16.39" height="19.59"/><rect class="cls-3" x="366.25" y="174.76" width="16.39" height="19.59"/><rect class="cls-3" x="338.08" y="209.42" width="16.39" height="19.59"/><rect class="cls-3" x="366.25" y="248.36" width="16.39" height="19.59"/><path class="cls-2" d="M239.45,300.66h71.2V68.45h-71.2ZM284.93,126.3h16.39v19.59H284.93Zm0,77.38h16.39v19.59H284.93ZM282.74,181H266.34V161.43h16.39ZM255.25,96h16.39v19.59H255.25Z"/><rect class="cls-3" x="255.25" y="95.99" width="16.39" height="19.59"/><rect class="cls-3" x="284.93" y="126.3" width="16.39" height="19.59"/><rect class="cls-3" x="266.34" y="161.43" width="16.39" height="19.59"/><rect class="cls-3" x="284.93" y="203.69" width="16.39" height="19.59"/><path class="cls-2" d="M173.07,300.66h55.4V145.89h-55.4Zm23.78-131.3h10.56V182H196.85Zm0,49.85h10.56v12.62H196.85Zm-1.41-14.6H184.88V192h10.56Zm-17.7-54.78H188.3v12.62H177.74Z"/><rect class="cls-3" x="177.74" y="149.84" width="10.56" height="12.62"/><rect class="cls-3" x="196.85" y="169.37" width="10.56" height="12.62"/><rect class="cls-3" x="184.88" y="191.99" width="10.56" height="12.62"/><rect class="cls-3" x="196.85" y="219.21" width="10.56" height="12.62"/><rect class="cls-4" x="198.33" y="177.56" width="9.87" height="146"/><polygon class="cls-5" points="208.19 182.68 198.2 185.82 198.2 179.53 208.19 179.53 208.19 182.68"/><polygon class="cls-6" points="236.86 183.27 157.34 178.45 159.57 141.65 238.6 146.44 253.82 164.41 236.86 183.27"/><text class="cls-7" transform="translate(179.94 168.84) rotate(3.47)">SHOP</text><path class="cls-8" d="M227.23,360.69H587.57a0,0,0,0,1,0,0V478.11a0,0,0,0,1,0,0H227.23A44.15,44.15,0,0,1,183.08,434V404.84a44.15,44.15,0,0,1,44.15-44.15Z"/><path class="cls-9" d="M267.7,248.39a82.86,82.86,0,0,0-82.86,82.86H350.57A82.86,82.86,0,0,0,267.7,248.39Z"/><path class="cls-9" d="M188.31,276.92A54.34,54.34,0,0,0,134,331.26H242.65A54.34,54.34,0,0,0,188.31,276.92Z"/><path class="cls-9" d="M346,284.92a46.33,46.33,0,0,0-46.33,46.33h92.67A46.33,46.33,0,0,0,346,284.92Z"/><path class="cls-10" d="M429.69,269a82.86,82.86,0,0,0-82.86,82.86H512.55A82.86,82.86,0,0,0,429.69,269Z"/><path class="cls-10" d="M350.29,297.55a54.34,54.34,0,0,0-54.34,54.34H404.63A54.34,54.34,0,0,0,350.29,297.55Z"/><path class="cls-10" d="M508,305.56a46.33,46.33,0,0,0-46.33,46.33h92.67A46.33,46.33,0,0,0,508,305.56Z"/><rect class="cls-11" x="460.53" y="4.72" width="126.59" height="361.6"/><rect class="cls-12" x="460.53" y="2.65" width="126.59" height="361.6"/><polygon class="cls-13" points="460.53 28.51 587.13 155.11 587.13 129.63 460.53 3.03 460.53 28.51"/><polygon class="cls-13" points="460.53 99.75 587.13 226.34 587.13 166.92 460.53 40.32 460.53 99.75"/><path class="cls-11" d="M472.18,420.41l-18.54-4.83a5.33,5.33,0,0,0-1.57-.16v-7.56h1.73V335.45h4.51V297.38a4,4,0,0,0,2-.88c-.39,1.5-2.69,10.67-.73,10.11.8-.23,5-1.75,7.06-4.49,1.76-2.36,3.29-9.85,3.29-9.85l-2.08-5.55,1.45-.14-.78-8.08-2.9.28h0l1.18-.11L459.32,201a5.83,5.83,0,0,0-6.34-5.22,5.74,5.74,0,0,0-2.44.82l-1-13.89v-1.73a34.44,34.44,0,0,0,1.49-6.09,15.84,15.84,0,0,0,.3-1.69,3.46,3.46,0,0,0,1.82-3v-3h-1.71c0-.16,0-.32,0-.47a28.26,28.26,0,0,0-.86-5.3c7.27-1.42,9.75-3.33,9.75-3.33L451,153.62l-2.68-24.48-19.12,8-7.86-6.25-7.5,23.58-11.08,3.75s3.42,2.06,12.15,3.44c0,.8-.05,1.59,0,2.33-2,.15-3.34,1.8-2.39,4.36s2.7,9.28,4.79,6.9l.13-.17a31.76,31.76,0,0,0,2.39,6.49l-1.5.05v0h-.07l.47,13.67.16.07v.07a15.18,15.18,0,0,0-4,1.58,5.75,5.75,0,0,0-2.71-.68,5.83,5.83,0,0,0-5.81,5.81v78.07h-2v8.11h2.59l-.15,5.23-.41.07-.62,3.42a9.21,9.21,0,0,0,1.43.67v37.64h4.41v72.42h1.63v7.85a1.07,1.07,0,0,0-1,1.06v7.1a2.12,2.12,0,0,0,2.13,2.13H473.2a1.07,1.07,0,0,0,1.07-1.07v-1.82A2.8,2.8,0,0,0,472.18,420.41Zm-45.69-12.54V335.45h12.41v72.42h1.63v7.84a1.07,1.07,0,0,0-1.08,1.07V419l-13-3.39a5.32,5.32,0,0,0-1.68-.15v-7.56Z"/><path class="cls-11" d="M548.42,422l-19.5-5.08a5.62,5.62,0,0,0-1.6-.17V353.85h1.76V287.11a7.67,7.67,0,0,0,.31-2.08l0-1.24c1.7-1.24,3-2.35,3-2.35l3.06-9.38h0l15.11-36.54a6.65,6.65,0,0,0-.08-4.61l-5.6-11.57,1.19-.57-13.36-27.41a6.07,6.07,0,0,0-2.9-2.86c-3.17-3-8.83-3.37-18.87-3.41a3.21,3.21,0,0,0,.16-1v-2.34a22.39,22.39,0,0,0,3.29.06c11.45-2.51,13.78-18,13.2-25.74a27,27,0,0,0-1.07-6A6,6,0,0,0,529,148a4.21,4.21,0,0,0,.78-2.8h-3.91a7.93,7.93,0,0,0,2-3.39v0a13.7,13.7,0,0,0,.86-3.94c0-.21,0-.33,0-.33h-6.49s-6.5-4.72-13.71-4.11c-11.38,1-15.14,8.27-15.14,8.27a12.27,12.27,0,0,0-4.92-.87c1.48,1.72,2.35,2.47,3,4.93-1.06,2.73-1.22,6.62-1.14,9.61-1.53.46-2.45,2-1.62,4.18,1,2.64,2.67,9.18,4.74,6.83a9.45,9.45,0,0,0,.59-.75c1.7,5.86,4.77,10.82,9.43,13.66v4.83a3.21,3.21,0,0,0,.15,1c-10.15,0-16.06,1.19-19.44,3.93a6.08,6.08,0,0,0-3.14,3.38L470.22,220.9l1.24.46-4.53,12a6.94,6.94,0,0,0,0,3.81l12.48,37.52h0l2.38,9.58s1.29,1.24,2.93,2.62v66.93h1.71v63.23a1.12,1.12,0,0,0-1,1.12v7.47a2.23,2.23,0,0,0,2.24,2.24h61.87a1.13,1.13,0,0,0,1.13-1.13v-1.91A2.94,2.94,0,0,0,548.42,422ZM481.33,249.75l-4.77-14.35,4-10.59ZM541,233.44,532.43,254l1.05-33.33,1.64,3.36,1.05-.51ZM500.37,353.85V292.48l13,.11v61.27h1.76v63.05c0,.06,0,.11,0,.17A1.13,1.13,0,0,0,514,418.2v2.3l-13.68-3.56a5.6,5.6,0,0,0-1.76-.16V353.85Z"/><path id="_Path_" data-name="&lt;Path&gt;" class="cls-14" d="M528.52,191.08h0a4.86,4.86,0,0,0-2.32,6.47l18.21,37.62a4.86,4.86,0,0,0,6.47,2.32h0a4.86,4.86,0,0,0,2.32-6.47L535,193.4A4.86,4.86,0,0,0,528.52,191.08Z"/><g id="_Clip_Group_" data-name="&lt;Clip Group&gt;"><path id="_Clipping_Path_2" data-name="&lt;Clipping Path&gt;" class="cls-15" d="M548.8,218.87l-11,5.31-13.36-27.41a6.13,6.13,0,0,1,2.85-8.15h0a6.13,6.13,0,0,1,8.15,2.85Z"/></g><circle id="_Path_2" data-name="&lt;Path&gt;" class="cls-16" cx="529.39" cy="279.93" r="1.86"/><path id="_Path_3" data-name="&lt;Path&gt;" class="cls-14" d="M495.15,297.45h0a6.07,6.07,0,0,1,6.07,6.07V419.07a6.07,6.07,0,0,1-6.07,6.07h0a6.07,6.07,0,0,1-6.07-6.07V303.52A6.07,6.07,0,0,1,495.15,297.45Z"/><path id="_Path_4" data-name="&lt;Path&gt;" class="cls-14" d="M523.92,295.39h0a6.07,6.07,0,0,1,6.07,6.07V417a6.07,6.07,0,0,1-6.07,6.07h0a6.07,6.07,0,0,1-6.07-6.07V301.46A6.07,6.07,0,0,1,523.92,295.39Z"/><path id="_Rectangle_" data-name="&lt;Rectangle&gt;" class="cls-15" d="M487.37,276.62H503a0,0,0,0,1,0,0v70.9A6.44,6.44,0,0,1,496.6,354h-2.79a6.44,6.44,0,0,1-6.44-6.44v-70.9a0,0,0,0,1,0,0Z" transform="translate(990.41 630.57) rotate(-180)"/><path id="_Rectangle_2" data-name="&lt;Rectangle&gt;" class="cls-15" d="M516.08,276.62h15.67a0,0,0,0,1,0,0v70.9a6.44,6.44,0,0,1-6.44,6.44h-2.79a6.44,6.44,0,0,1-6.44-6.44v-70.9A0,0,0,0,1,516.08,276.62Z" transform="translate(1047.84 630.57) rotate(180)"/><path id="_Path_5" data-name="&lt;Path&gt;" class="cls-15" d="M487.63,270.42l44.7.36-.27,14.35a7.68,7.68,0,0,1-7.74,7.62L495,292.52a7.68,7.68,0,0,1-7.62-7.74Z"/><g id="_Clip_Group_2" data-name="&lt;Clip Group&gt;"><path id="_Clipping_Path_3" data-name="&lt;Clipping Path&gt;" class="cls-17" d="M506.9,185.18h4.62c22.9,0,25,.92,25,25l-2.22,70.47H485l-2.22-71.28C482.06,191.2,482.74,185.18,506.9,185.18Z"/></g><path id="_Path_6" data-name="&lt;Path&gt;" class="cls-14" d="M472.6,231.13h0a4.86,4.86,0,0,1,6.18,3L492,273.8a4.86,4.86,0,0,1-3,6.18h0a4.86,4.86,0,0,1-6.18-3l-13.19-39.66A4.86,4.86,0,0,1,472.6,231.13Z"/><path id="_Path_7" data-name="&lt;Path&gt;" class="cls-14" d="M490.58,191.49h0a4.86,4.86,0,0,1,2.89,6.24l-14.74,39.11a4.86,4.86,0,0,1-6.24,2.89h0a4.86,4.86,0,0,1-2.89-6.24l14.74-39.11A4.86,4.86,0,0,1,490.58,191.49Z"/><g id="_Clip_Group_3" data-name="&lt;Clip Group&gt;"><path id="_Clipping_Path_4" data-name="&lt;Clipping Path&gt;" class="cls-15" d="M472.89,221l11.44,4.29,10.83-28.51a6.13,6.13,0,0,0-3.57-7.86h0a6.13,6.13,0,0,0-7.86,3.57Z"/></g><path id="_Path_8" data-name="&lt;Path&gt;" class="cls-18" d="M491.83,273.59a82.72,82.72,0,0,0,6.32,6.85c-1.52,3.64-6.47,1.25-6.47,1.25Z"/><path id="_Path_9" data-name="&lt;Path&gt;" class="cls-14" d="M482.06,274.83l2.38,9.58s5.45,5.25,8.2,6.18c3.21,1.09,7.49,0,8.27-.3,2.09-.7-6.43-8-6.43-8l-2.81-9.39Z"/><path id="_Path_10" data-name="&lt;Path&gt;" class="cls-14" d="M510.13,171.71H510a3.86,3.86,0,0,1,3.84,4v8.5c0,2.2-1.64,2.88-3.84,2.88h.07c-2.2,0-3.91-.68-3.91-2.88v-8.5A4,4,0,0,1,510.13,171.71Z"/><path id="_Path_11" data-name="&lt;Path&gt;" class="cls-19" d="M517.11,181.9c-12.57.68-19.26-8.61-21.31-20.15-2.16-12.15,6-22.21,15.83-22.24,11.22,0,17.76,4.34,18.68,16.65.58,7.73-1.75,23.23-13.2,25.74Z"/><path id="_Path_12" data-name="&lt;Path&gt;" class="cls-20" d="M494.16,145.83c-1.24,3.2-1.25,8-1.09,11.08a3.06,3.06,0,0,1,2.62-.65l.42.1h0l.2.07.2.08.21.1.15.08.25.14.2.12.2.13.19.14.19.16.35.34s0,0,0,0l.07.08,0,.05,0,.06,0,0,0,0v0a.15.15,0,0,1,0,0v5.59a2.5,2.5,0,0,0,.6,1.87,3,3,0,0,0,.26.28,4,4,0,0,0,1.7.5,2.91,2.91,0,0,0,2.93-2.65v-2a2.89,2.89,0,0,1,2.65-2.88l.51,0c0-2.27,0-4.08,0-5.2,0-1.39.49-2.31,3.57-2.62h.09l.86-.07h.07c.53,0,1.13,0,1.79,0H527.6l.16,0a7,7,0,0,0,3.87-2.65,4.21,4.21,0,0,0,.78-2.8H528.5a7.93,7.93,0,0,0,2-3.39,18.53,18.53,0,0,0,.9-4.29h-6.49s-6.5-4.72-13.71-4.11c-11.38,1-15.14,8.27-15.14,8.27a12.27,12.27,0,0,0-4.92-.87C492.62,142.62,493.49,143.37,494.16,145.83Z"/><path id="_Path_13" data-name="&lt;Path&gt;" class="cls-21" d="M511.68,150.82c.53,0,1.13,0,1.79,0H527.6l.16,0a7,7,0,0,0,3.87-2.65,4.21,4.21,0,0,0,.78-2.8s-3.37,3.79-5.52,4.18l-.17,0C524.53,149.84,514.86,150.58,511.68,150.82Z"/><g id="_Group_" data-name="&lt;Group&gt;"><line id="_Path_14" data-name="&lt;Path&gt;" class="cls-20" x1="525.67" y1="157.53" x2="521.21" y2="157.31"/><path id="_Path_15" data-name="&lt;Path&gt;" class="cls-20" d="M525.78,158.27a.74.74,0,0,0-.07-1.48l-4.46-.23a.74.74,0,1,0-.08,1.49l4.46.23Z"/></g><g id="_Group_2" data-name="&lt;Group&gt;"><line id="_Path_16" data-name="&lt;Path&gt;" class="cls-20" x1="514.02" y1="157.31" x2="509.56" y2="157.53"/><path id="_Path_17" data-name="&lt;Path&gt;" class="cls-20" d="M514.13,156.57a.74.74,0,0,1-.07,1.48l-4.46.23a.74.74,0,1,1-.08-1.49l4.46-.23Z"/></g><circle id="_Path_18" data-name="&lt;Path&gt;" cx="512.35" cy="162.12" r="1.01"/><circle id="_Path_19" data-name="&lt;Path&gt;" cx="523.1" cy="162.47" r="1.01"/><path id="_Path_20" data-name="&lt;Path&gt;" class="cls-21" d="M531.41,137.61s-2.52,5.73-6.07,7.18c-3,1.23-17.74,1.71-17.74,1.71a25.14,25.14,0,0,0,4.57,1.09c1.34.14,14.3.55,16.34-2.3A12.63,12.63,0,0,0,531.41,137.61Z"/><g id="_Group_3" data-name="&lt;Group&gt;"><path id="_Path_21" data-name="&lt;Path&gt;" class="cls-19" d="M498.94,158.4a5.91,5.91,0,0,0-2.06-2.15c-3.19-2.21-6.9-.42-5.49,3.37,1,2.64,2.67,9.18,4.74,6.83A12.55,12.55,0,0,0,498.94,158.4Z"/><polygon id="_Path_22" data-name="&lt;Path&gt;" class="cls-22" points="496.48 158.78 492.3 158.08 495.45 163.82 494.39 159.09 496.48 158.78"/></g><polygon id="_Path_23" data-name="&lt;Path&gt;" class="cls-22" points="517.81 160.69 517.68 169.43 519.56 169.01 517.81 160.69"/><path class="cls-15" d="M487.37,287.45c3,3.77,5.79,12.84,12.46,6.21,6-6-1.82-10-5.81-12.76"/><path id="_Path_24" data-name="&lt;Path&gt;" class="cls-14" d="M550.71,229.25h0a4.86,4.86,0,0,0-6.38,2.57l-16,38.62a4.86,4.86,0,0,0,2.57,6.38h0a4.86,4.86,0,0,0,6.38-2.57l16-38.62A4.86,4.86,0,0,0,550.71,229.25Z"/><path id="_Path_25" data-name="&lt;Path&gt;" class="cls-18" d="M529.2,269.83a82.72,82.72,0,0,1-6.79,6.39c1.26,3.73,6.36,1.7,6.36,1.7Z"/><path id="_Path_26" data-name="&lt;Path&gt;" class="cls-14" d="M538.18,272.17l-3.06,9.38s-5.81,4.85-8.62,5.58c-3.27.86-7.47-.57-8.23-.88-2-.85,7-7.49,7-7.49l3.46-9.16Z"/><path class="cls-15" d="M531.56,286.66c-3,3.77-5.76,11-12.22,4.53-5.86-5.86-.46-6.8,2.53-10.56"/><path id="_Path_27" data-name="&lt;Path&gt;" class="cls-3" d="M517.78,176c-2.58,0-4.84-1.4-4.84-3v-.37h9.93V173c0,1.45-1.51,3-4.32,3Z"/><path id="_Path_28" data-name="&lt;Path&gt;" class="cls-23" d="M516.66,425.71v.06A2.23,2.23,0,0,0,518.9,428h33.26a1.13,1.13,0,0,0,1.13-1.13v-1.17Z"/><path id="_Path_29" data-name="&lt;Path&gt;" class="cls-23" d="M488.06,425.71v.06A2.23,2.23,0,0,0,490.3,428h33.26a1.13,1.13,0,0,0,1.13-1.13v-1.17Z"/><path id="_Path_30" data-name="&lt;Path&gt;" class="cls-24" d="M516.66,418.3v7.41h36.63V425a2.94,2.94,0,0,0-2.2-2.85L531.59,417a5.44,5.44,0,0,0-2.73,0,20.06,20.06,0,0,1-10.74.19A1.13,1.13,0,0,0,516.66,418.3Z"/><path id="_Path_31" data-name="&lt;Path&gt;" class="cls-25" d="M491.14,419.45v7.41h36.63v-.74a2.94,2.94,0,0,0-2.2-2.85l-19.5-5.08a5.44,5.44,0,0,0-2.73,0,20.06,20.06,0,0,1-10.74.19A1.13,1.13,0,0,0,491.14,419.45Z"/><path id="_Path_32" data-name="&lt;Path&gt;" class="cls-24" d="M488.06,418.3v7.41h36.63V425a2.94,2.94,0,0,0-2.2-2.85L503,417a5.44,5.44,0,0,0-2.73,0,20.06,20.06,0,0,1-10.74.19A1.13,1.13,0,0,0,488.06,418.3Z"/><polygon class="cls-26" points="451.75 200.16 421.14 200.16 420.49 184.34 451.75 183.25 451.75 200.16"/><rect id="_Rectangle_3" data-name="&lt;Rectangle&gt;" class="cls-14" x="457.97" y="257.57" width="9.25" height="35.45" rx="4.62" ry="4.62" transform="translate(949.48 504.89) rotate(174.49)"/><path id="_Rectangle_4" data-name="&lt;Rectangle&gt;" class="cls-26" d="M453.39,198.19H465a0,0,0,0,1,0,0v78.07a5.81,5.81,0,0,1-5.81,5.81h0a5.81,5.81,0,0,1-5.81-5.81V198.19A0,0,0,0,1,453.39,198.19Z" transform="matrix(-1, 0.1, -0.1, -1, 939.33, 435.06)"/><path id="_Path_33" data-name="&lt;Path&gt;" class="cls-14" d="M468.64,285.58l3.51,9.34s-1.53,7.49-3.29,9.85c-2,2.74-6.26,4.26-7.06,4.49-2.14.61.79-10.32.79-10.32l-3-9.43Z"/><rect id="_Rectangle_5" data-name="&lt;Rectangle&gt;" class="cls-3" x="455.78" y="281.87" width="15.37" height="8.11" transform="translate(952.25 526.03) rotate(174.49)"/><path id="_Path_34" data-name="&lt;Path&gt;" class="cls-20" d="M448.48,373.49h0a5.77,5.77,0,0,1,5.77,5.77v40.9a5.77,5.77,0,0,1-5.77,5.77h0a5.77,5.77,0,0,1-5.77-5.77v-40.9A5.77,5.77,0,0,1,448.48,373.49Z"/><path id="_Path_35" data-name="&lt;Path&gt;" class="cls-27" d="M441.63,419.43v7h34.83v-.7a2.8,2.8,0,0,0-2.09-2.71l-18.54-4.83a5.17,5.17,0,0,0-2.6,0,19.07,19.07,0,0,1-10.22.18A1.07,1.07,0,0,0,441.63,419.43Z"/><path id="_Path_36" data-name="&lt;Path&gt;" class="cls-20" d="M441.63,426.48v.06a2.12,2.12,0,0,0,2.13,2.13h31.63a1.07,1.07,0,0,0,1.07-1.07v-1.11Z"/><path id="_Path_37" data-name="&lt;Path&gt;" class="cls-18" d="M459.79,290.16a83.64,83.64,0,0,1-1.34,9.33c3.35,2.16,6.1-2.67,6.1-2.67Z"/><path id="_Path_38" data-name="&lt;Path&gt;" class="cls-19" d="M440.38,195.19c-12.61.68-19.32-8.64-21.38-20.22-2.17-12.19,6-22.28,15.88-22.31,11.25,0,17.82,4.35,18.74,16.7.58,7.76-1.75,23.3-13.24,25.83Z"/><path id="_Path_39" data-name="&lt;Path&gt;" class="cls-20" d="M421.18,373.49h0a5.77,5.77,0,0,1,5.77,5.77v40.9a5.77,5.77,0,0,1-5.77,5.77h0a5.77,5.77,0,0,1-5.77-5.77v-40.9A5.77,5.77,0,0,1,421.18,373.49Z"/><path id="_Rectangle_6" data-name="&lt;Rectangle&gt;" class="cls-26" d="M413.78,284.7h14.9a0,0,0,0,1,0,0V403.07a7.45,7.45,0,0,1-7.45,7.45h0a7.45,7.45,0,0,1-7.45-7.45V284.7a0,0,0,0,1,0,0Z" transform="translate(842.45 695.22) rotate(-180)"/><path id="_Path_40" data-name="&lt;Path&gt;" class="cls-27" d="M414.43,419.43v7h34.83v-.7a2.8,2.8,0,0,0-2.09-2.71l-18.54-4.83a5.17,5.17,0,0,0-2.6,0,19.07,19.07,0,0,1-10.22.18A1.07,1.07,0,0,0,414.43,419.43Z"/><path id="_Path_41" data-name="&lt;Path&gt;" class="cls-20" d="M414.43,426.48v.06a2.12,2.12,0,0,0,2.13,2.13h31.63a1.07,1.07,0,0,0,1.07-1.07v-1.11Z"/><path id="_Rectangle_7" data-name="&lt;Rectangle&gt;" class="cls-26" d="M441.08,284.7H456a0,0,0,0,1,0,0V403.07a7.45,7.45,0,0,1-7.45,7.45h0a7.45,7.45,0,0,1-7.45-7.45V284.7A0,0,0,0,1,441.08,284.7Z" transform="translate(897.06 695.22) rotate(-180)"/><path id="_Path_42" data-name="&lt;Path&gt;" class="cls-26" d="M414,278.81l42.51.34-.25,13.65a7.3,7.3,0,0,1-7.36,7.24L421,299.82a7.3,7.3,0,0,1-7.24-7.36Z"/><path id="_Rectangle_8" data-name="&lt;Rectangle&gt;" class="cls-28" d="M409.37,197.75h51.12a0,0,0,0,1,0,0V315.92A22.19,22.19,0,0,1,438.3,338.1h-6a22.93,22.93,0,0,1-22.93-22.93V197.75A0,0,0,0,1,409.37,197.75Z" transform="translate(869.86 535.85) rotate(-180)"/><ellipse id="_Path_43" data-name="&lt;Path&gt;" class="cls-26" cx="443.13" cy="218.59" rx="2.37" ry="2.94"/><ellipse id="_Path_44" data-name="&lt;Path&gt;" class="cls-26" cx="443.13" cy="235.42" rx="2.37" ry="2.94"/><ellipse id="_Path_45" data-name="&lt;Path&gt;" class="cls-26" cx="443.13" cy="252.25" rx="2.37" ry="2.94"/><ellipse id="_Path_46" data-name="&lt;Path&gt;" class="cls-26" cx="443.13" cy="269.08" rx="2.37" ry="2.94"/><ellipse id="_Path_47" data-name="&lt;Path&gt;" class="cls-26" cx="443.13" cy="285.91" rx="2.37" ry="2.94"/><path id="_Path_48" data-name="&lt;Path&gt;" class="cls-28" d="M418.17,158.33c-1.18,3-1.19,7.62-1,10.53a2.91,2.91,0,0,1,2.49-.62l.4.1h0l.19.07.19.07.2.09.14.07.24.13.19.12.19.13.18.14.18.15.33.32s0,0,0,0l.07.08,0,0,0,.05,0,0,0,0v5.36a2.38,2.38,0,0,0,.57,1.78,2.89,2.89,0,0,0,.25.27,3.8,3.8,0,0,0,1.62.47,2.77,2.77,0,0,0,2.79-2.52v-1.9A2.74,2.74,0,0,1,430,170.6l.48,0c0-2.16,0-3.88,0-4.94,0-1.32.47-2.19,3.39-2.49h.09l.82-.06h.06c.51,0,1.07,0,1.7,0H450l.15,0a6.63,6.63,0,0,0,3.68-2.52c1-1.54-.15-3.55-.15-3.55l-2.82.89a7.55,7.55,0,0,0,1.91-3.22c.74-2.23-1.84-4.08-1.84-4.08h-3.48s-6.18-4.49-13-3.91c-10.82.91-14.4,7.87-14.4,7.87s.29-1.91-2.26-1.8C419.12,154.3,417.53,156,418.17,158.33Z"/><path id="_Path_49" data-name="&lt;Path&gt;" class="cls-29" d="M434.83,163.07c.51,0,1.07,0,1.7,0H450l.15,0a6.63,6.63,0,0,0,3.68-2.52c1-1.54-1.22-3.55-1.22-3.55s-1.23,4.49-3.28,4.86l-.16,0C447,162.14,437.85,162.84,434.83,163.07Z"/><path id="_Path_50" data-name="&lt;Path&gt;" class="cls-29" d="M451.49,151s-.3,4.93-3.67,6.32c-2.87,1.17-16.87,1.62-16.87,1.62a23.9,23.9,0,0,0,4.34,1c1.28.13,13.6.52,15.53-2.19C452.51,155.88,451.36,153.73,451.49,151Z"/><path id="_Path_51" data-name="&lt;Path&gt;" class="cls-28" d="M423.06,177.3a12.17,12.17,0,0,0,2.08,1.62c2.78,1.84,6.7,4,7.81,9.06v0c.52,2.41,1,2.14,1.37.76.6-2.37.78-8,0-9.08h0c-2.38,0-6.81-1.55-6.81-4.45S420.25,174.77,423.06,177.3Z"/><path id="_Path_52" data-name="&lt;Path&gt;" class="cls-28" d="M448.84,187.65c-.09-2.72,4.57-6,4.8-13.24a7.32,7.32,0,0,1-7.1,5.29C445.67,180.79,448.18,185.53,448.84,187.65Z"/><g id="_Group_4" data-name="&lt;Group&gt;"><line id="_Path_53" data-name="&lt;Path&gt;" class="cls-28" x1="450.9" y1="167.94" x2="446.39" y2="167.71"/><path id="_Path_54" data-name="&lt;Path&gt;" class="cls-28" d="M451,168.68a.75.75,0,0,0-.07-1.5l-4.51-.23a.75.75,0,0,0-.08,1.5l4.51.23Z"/></g><g id="_Group_5" data-name="&lt;Group&gt;"><line id="_Path_55" data-name="&lt;Path&gt;" class="cls-28" x1="438.18" y1="167.71" x2="433.67" y2="167.93"/><path id="_Path_56" data-name="&lt;Path&gt;" class="cls-28" d="M438.28,167a.75.75,0,0,1-.07,1.5l-4.51.23a.75.75,0,0,1-.08-1.5l4.51-.23Z"/></g><circle id="_Path_57" data-name="&lt;Path&gt;" cx="436.48" cy="172.57" r="1.02"/><circle id="_Path_58" data-name="&lt;Path&gt;" cx="448.29" cy="172.92" r="1.02"/><polygon id="_Path_59" data-name="&lt;Path&gt;" class="cls-22" points="442.01 172.12 441.87 178.56 443.77 178.24 442.01 172.12"/><path id="_Path_60" data-name="&lt;Path&gt;" class="cls-30" d="M432.69,173.95a5.3,5.3,0,0,0,3.15.93h0a5.69,5.69,0,0,0,3.15-.93"/><path id="_Path_61" data-name="&lt;Path&gt;" class="cls-30" d="M445.2,173.95a5.3,5.3,0,0,0,3.15.93h0a5.69,5.69,0,0,0,3.15-.93"/><g id="_Group_6" data-name="&lt;Group&gt;"><path id="_Path_62" data-name="&lt;Path&gt;" class="cls-19" d="M422.31,169.83a6,6,0,0,0-2.08-2.17c-3.22-2.23-7-.42-5.55,3.41,1,2.67,2.7,9.28,4.79,6.9A12.69,12.69,0,0,0,422.31,169.83Z"/><polygon id="_Path_63" data-name="&lt;Path&gt;" class="cls-22" points="419.83 170.21 415.59 169.5 418.78 175.31 417.71 170.52 419.83 170.21"/></g><path class="cls-31" d="M444.53,169.83h10.82v3a3.48,3.48,0,0,1-3.47,3.47H448a3.48,3.48,0,0,1-3.47-3.47Z"/><path class="cls-32" d="M446.72,169.83h2.22L444.76,174a3.43,3.43,0,0,1-.23-1.23V172Z"/><path class="cls-32" d="M449.68,169.83h4.49l-6.41,6.41a3.48,3.48,0,0,1-2.76-1.73Z"/><rect class="cls-31" x="437.12" y="169.83" width="8.07" height="1.06"/><path class="cls-31" d="M429.33,169.83h10.82v3a3.48,3.48,0,0,1-3.47,3.47H432.8a3.48,3.48,0,0,1-3.47-3.47Z"/><path class="cls-32" d="M431.51,169.83h2.22L429.56,174a3.44,3.44,0,0,1-.23-1.23V172Z"/><path class="cls-32" d="M434.48,169.83H439l-6.41,6.41a3.48,3.48,0,0,1-2.76-1.73Z"/><path id="_Path_64" data-name="&lt;Path&gt;" class="cls-18" d="M419,290.49a83.64,83.64,0,0,0,4.3,8.39c-2.47,3.13-6.64-.54-6.64-.54Z"/><rect id="_Rectangle_9" data-name="&lt;Rectangle&gt;" class="cls-14" x="409.75" y="258.62" width="9.25" height="35.45" rx="4.62" ry="4.62" transform="translate(828.74 552.7) rotate(180)"/><rect class="cls-28" x="418.77" y="263.66" width="12.05" height="8.81"/><path id="_Rectangle_10" data-name="&lt;Rectangle&gt;" class="cls-26" d="M408.56,199.09h11.62a0,0,0,0,1,0,0v78.07a5.81,5.81,0,0,1-5.81,5.81h0a5.81,5.81,0,0,1-5.81-5.81V199.09a0,0,0,0,1,0,0Z" transform="translate(828.74 482.05) rotate(-180)"/><rect id="_Rectangle_11" data-name="&lt;Rectangle&gt;" class="cls-26" x="419.46" y="259.82" width="11.36" height="4.21"/><path class="cls-26" d="M416,157.17l7.5-23.58,7.86,6.25,19.12-8,2.68,24.48,9.29,4.47s-6.25,4.82-28.05,4.82S405,160.92,405,160.92Z"/><polygon class="cls-31" points="445.04 209.03 445.04 209.03 422.41 197.81 449.13 197.26 445.04 209.03"/><path id="_Path_65" data-name="&lt;Path&gt;" class="cls-14" d="M437.83,185.31h-.13a3.67,3.67,0,0,1,3.65,3.78v8.08c0,2.09-1.56,2.74-3.65,2.74h.07c-2.09,0-3.72-.65-3.72-2.74v-8.08A3.78,3.78,0,0,1,437.83,185.31Z"/><path id="_Path_66" data-name="&lt;Path&gt;" class="cls-28" d="M431.94,183.45l.31,1.92.7,4.33v0l.22,1.39c.64,3.83,3.82,6.3,7.09,5.52l3.86-.92a5.49,5.49,0,0,0,3.41-2.56,10,10,0,0,0,1.35-4.77l-.2-6.26c-.28-1.67-.71-2.31-2.16-2.3H434A3.1,3.1,0,0,0,431.94,183.45Z"/><path id="_Path_67" data-name="&lt;Path&gt;" class="cls-29" d="M425.14,178.92c2.78,2.19,6.7,4.81,7.81,10.78v0l.22,1.39c.64,3.83,3.82,6.3,7.09,5.52l3.86-.92a5.49,5.49,0,0,0,3.41-2.56,23.27,23.27,0,0,1-6.07,1.64c-2.9.26-6.39-.72-7.16-4.16h0a20.45,20.45,0,0,0-2.07-5.28C430.71,182.6,428.36,179.89,425.14,178.92Z"/><line class="cls-33" x1="439.87" y1="183.82" x2="447.07" y2="183.82"/><polygon class="cls-26" points="420.42 184.36 420.89 198.03 444.96 209.06 434.31 186.77 420.42 184.36"/><polygon class="cls-26" points="451.65 183.82 452.75 199.54 445.04 209.03 448.9 185.61 451.65 183.82"/><circle class="cls-34" cx="432.41" cy="302.66" r="9.25" transform="translate(-94.95 324.4) rotate(-37.35)"/><polygon class="cls-35" points="423.1 302.09 420.87 301.79 421.22 299.2 423.48 299.5 423.1 302.09"/><circle class="cls-36" cx="432.19" cy="302.58" r="8.81" transform="translate(-94.95 324.25) rotate(-37.35)"/><path class="cls-37" d="M407.94,299.8l.62-3.42c3.92-.83,10.56,1,13.58,2.52l-.55,3.39C418.12,303.08,410.14,301.16,407.94,299.8Z"/><circle class="cls-38" cx="435.6" cy="300.64" r="1.51" transform="translate(-51.89 94.51) rotate(-11.69)"/><path id="_Path_68" data-name="&lt;Path&gt;" class="cls-14" d="M409.18,289l-.28,10s3.88,6.59,6.31,8.25c2.83,1.93,7.3,2,8.13,2,2.22-.11-4.09-9.51-4.09-9.51l-.18-9.9Z"/><rect id="_Rectangle_12" data-name="&lt;Rectangle&gt;" class="cls-3" x="406.53" y="282.96" width="15.37" height="8.11" transform="translate(828.44 574.04) rotate(-180)"/><path class="cls-11" d="M399,358.5a2.56,2.56,0,0,0-.27-.47L385.7,339.93l-2.19-14.58.64-.09-1.27-8.43a3.23,3.23,0,0,0-.42-1.16,2.55,2.55,0,0,0,.28-.63A91.92,91.92,0,0,0,385.19,300a67.79,67.79,0,0,0-.48-15.95,9.66,9.66,0,0,0-2.32-5.45s0-.07,0-.11c-2.84-5.25-12.95-4.84-18-2.44-6.27,3-7.78,6.26-8.59,21.35a145.83,145.83,0,0,0-.07,16.64,3.25,3.25,0,0,0-.39.57l-4,7.5.64.34-5.66,10.71-13.33-15.3-.15-.14-1.6-2.22c0-.13,0-.29,0-.48.15.32.36.46.65.34.71-.3,4.39-2.16,6-4.9,1.35-2.35,1.91-9.38,1.91-9.38l-2.52-4.83,1.38-.39,0-.16.1,0-9.38-35a6.29,6.29,0,0,0-.17-2.45l-9.73-35.7a3.66,3.66,0,0,0-1.7-4.81,6.32,6.32,0,0,0-3.37-2.42,10.48,10.48,0,0,0-3-1.62,2.56,2.56,0,0,0-4.72-.61h-9a3.79,3.79,0,0,0,.48-1.85v-1.85a20.34,20.34,0,0,0,4,.17c10.71-2.35,12.88-16.84,12.34-24.07,0-.13,0-.25,0-.38a42.8,42.8,0,0,0,1-8.54c0-9.19-4.16-9.07-4.82-9-3.5-6.91-9.63-7.85-16.3-6.72a22.81,22.81,0,0,0-8.84,3.37,5,5,0,0,0-2.24-2c-3-1.33-6.9.75-8.61,4.65s-.62,8.15,2.43,9.48a4.77,4.77,0,0,0,1.08.32,28.6,28.6,0,0,0,.59,8.88,3.28,3.28,0,0,0,0,2.76c.58,1.56,1.42,4.54,2.44,6a1.79,1.79,0,1,0,2.7,2.34,21.05,21.05,0,0,0,6.65,9.51v6.07a2.73,2.73,0,0,0,.13.8h-4.89a6.46,6.46,0,0,0-10.88.63l-.34.13a6.31,6.31,0,0,0-8.59,4.63l-4.92,25.31a9.27,9.27,0,0,0-1.14,5.88l-1.56,8a6.28,6.28,0,0,0,0,2.57L262.18,300h0l.14,1.36.28,2.91h0l0,.39,1.36-.14,1.19,8.13s4.57,5.36,7,6.48l.08,0v97.51H274v3.12a1.06,1.06,0,0,0-1,1.05v7A2.11,2.11,0,0,0,275.1,430h58.3a1.06,1.06,0,0,0,1.06-1.06v-1.8a2.77,2.77,0,0,0-2.08-2.69L314,419.64a5.29,5.29,0,0,0-1.56-.16v-2.83h1.71V306.06a7.23,7.23,0,0,0,.29-1.94h5V281.48a9.44,9.44,0,0,0,1.56-3.11l4.36,16.3h0l.37,1.32.76,2.83h0l.11.38,1.34-.38a67.09,67.09,0,0,1-.2,7.94,3.06,3.06,0,0,0,3.69-.78c-.08.62-.35,2.71-.46,4.76a1.64,1.64,0,0,0-1.24.28c-.19-1.43-.51-2.84-1-2.51a8.07,8.07,0,0,0-2.76,3.32c-.49,1.44-.06,5.36-.06,5.36l3.2,4,0,0,15.61,17.91a2.56,2.56,0,0,0,3.61.25l.08-.08a2.54,2.54,0,0,0,.94-1l5.12-9.69V401h3.71v25.2a4.06,4.06,0,0,0-.26.86l-.07,2.12a.65.65,0,0,0,.65.67h-.94v2h32.91v-2h-1a.65.65,0,0,0,.65-.65v-.8a.65.65,0,0,0-.49-.63l-3.94-1,.26-.46-1.13-.29-.25.48-5.56-1.38V401h3.83V344.79l11.58,16,.18.34a41.76,41.76,0,0,1,.15,4.82,1.71,1.71,0,0,0,2-.54c-.06.76-.42,5.68.53,5.21a8.07,8.07,0,0,0,3.19-2.91c.68-1.36.79-5.3.79-5.3Zm-98,61.27a1.06,1.06,0,0,0-1.07,1.06V423l-12.89-3.36a5.27,5.27,0,0,0-1.66-.15v-2.83h1.71V311.12l12.29.1V416.66H301Zm72,6.45a4.06,4.06,0,0,0-.26.86v.14l-1.67-.41.26-.46-1.13-.29-.25.48-5.56-1.38V401H373Z"/><path id="_Path_69" data-name="&lt;Path&gt;" class="cls-18" d="M333.39,315.77a43.19,43.19,0,0,1,.24-4.86c-1.83-.95-3,1.66-3,1.66Z"/><rect id="_Rectangle_13" data-name="&lt;Rectangle&gt;" class="cls-39" x="313.62" y="214.25" width="12.62" height="52.58" rx="6.31" ry="6.31" transform="translate(691.83 388.54) rotate(164.76)"/><path id="_Path_70" data-name="&lt;Path&gt;" class="cls-40" d="M281.75,375.3h0a5.72,5.72,0,0,1,5.72,5.72v40.53a5.72,5.72,0,0,1-5.72,5.72h0a5.72,5.72,0,0,1-5.72-5.72V381A5.72,5.72,0,0,1,281.75,375.3Z"/><path id="_Rectangle_14" data-name="&lt;Rectangle&gt;" class="cls-12" d="M274.41,287.31h14.77a0,0,0,0,1,0,0v122a7.38,7.38,0,0,1-7.38,7.38h0a7.38,7.38,0,0,1-7.38-7.38v-122a0,0,0,0,1,0,0Z" transform="translate(563.59 703.97) rotate(-180)"/><path id="_Path_71" data-name="&lt;Path&gt;" class="cls-41" d="M275.06,420.83v7h34.52v-.7a2.77,2.77,0,0,0-2.08-2.69l-18.38-4.79a5.12,5.12,0,0,0-2.58,0,18.9,18.9,0,0,1-10.13.18A1.06,1.06,0,0,0,275.06,420.83Z"/><path id="_Path_72" data-name="&lt;Path&gt;" class="cls-40" d="M275.06,427.82v.06a2.11,2.11,0,0,0,2.11,2.11h31.35a1.06,1.06,0,0,0,1.06-1.06v-1.1Z"/><path id="_Path_73" data-name="&lt;Path&gt;" class="cls-40" d="M308.81,375.3h0a5.72,5.72,0,0,1,5.72,5.72v40.53a5.72,5.72,0,0,1-5.72,5.72h0a5.72,5.72,0,0,1-5.72-5.72V381A5.72,5.72,0,0,1,308.81,375.3Z"/><path id="_Rectangle_15" data-name="&lt;Rectangle&gt;" class="cls-12" d="M301.47,287.31h14.77a0,0,0,0,1,0,0v122a7.38,7.38,0,0,1-7.38,7.38h0a7.38,7.38,0,0,1-7.38-7.38v-122A0,0,0,0,1,301.47,287.31Z" transform="translate(617.71 703.97) rotate(-180)"/><path id="_Path_74" data-name="&lt;Path&gt;" class="cls-41" d="M302,420.83v7h34.52v-.7a2.77,2.77,0,0,0-2.08-2.69l-18.38-4.79a5.12,5.12,0,0,0-2.58,0,18.9,18.9,0,0,1-10.13.18A1.06,1.06,0,0,0,302,420.83Z"/><path id="_Path_75" data-name="&lt;Path&gt;" class="cls-40" d="M302,427.82v.06a2.11,2.11,0,0,0,2.11,2.11h31.35a1.06,1.06,0,0,0,1.06-1.06v-1.1Z"/><path id="_Path_76" data-name="&lt;Path&gt;" class="cls-12" d="M274.66,290.24l42.13.34-.25,13.52a7.24,7.24,0,0,1-7.29,7.18l-27.65-.22a7.24,7.24,0,0,1-7.18-7.29Z"/><path id="_Path_77" data-name="&lt;Path&gt;" class="cls-1" d="M310.41,215.3c0,6.53-6.26,11.84-13.95,11.84s-13.94-5.31-13.94-11.84a10.17,10.17,0,0,1,.27-2.31h27.35A10.17,10.17,0,0,1,310.41,215.3Z"/><path id="_Path_78" data-name="&lt;Path&gt;" class="cls-14" d="M284.71,215.3c0,5.33,5.26,9.65,11.75,9.65s11.75-4.32,11.75-9.65a7.93,7.93,0,0,0-.34-2.31H285.06A7.93,7.93,0,0,0,284.71,215.3Z"/><path id="_Rectangle_16" data-name="&lt;Rectangle&gt;" class="cls-14" d="M296.47,200.23h1.05a2.76,2.76,0,0,1,2.76,2.76v8.15a3.81,3.81,0,0,1-3.81,3.81h0a3.81,3.81,0,0,1-3.81-3.81V204a3.81,3.81,0,0,1,3.81-3.81Z" transform="translate(592.93 415.19) rotate(-180)"/><g id="_Group_7" data-name="&lt;Group&gt;"><path id="_Path_79" data-name="&lt;Path&gt;" class="cls-42" d="M312.68,167.49s4.91-1,4.91,9a43.61,43.61,0,0,1-1.27,9.79l-7.45-8.64-7.71-3.45,9.64-3.48Z"/><g id="_Group_8" data-name="&lt;Group&gt;"><path id="_Path_80" data-name="&lt;Path&gt;" class="cls-19" d="M304.3,209.46c-11.75.63-18-8.05-19.93-18.84-2-11.36,5.58-20.76,14.8-20.79,10.49,0,16.6,4.05,17.46,15.57.54,7.23-1.63,21.72-12.34,24.07Z"/><g id="_Group_9" data-name="&lt;Group&gt;"><line id="_Path_81" data-name="&lt;Path&gt;" class="cls-20" x1="314.62" y1="186.1" x2="310.2" y2="185.88"/><path id="_Path_82" data-name="&lt;Path&gt;" class="cls-20" d="M314.73,186.83a.74.74,0,0,0-.07-1.47l-4.42-.22a.74.74,0,0,0-.07,1.47l4.42.22Z"/></g><g id="_Group_10" data-name="&lt;Group&gt;"><line id="_Path_83" data-name="&lt;Path&gt;" class="cls-20" x1="303.07" y1="185.88" x2="298.64" y2="186.1"/><path id="_Path_84" data-name="&lt;Path&gt;" class="cls-20" d="M303.17,185.15a.74.74,0,0,1-.07,1.47l-4.42.22a.74.74,0,1,1-.07-1.47l4.42-.22Z"/></g><circle id="_Path_85" data-name="&lt;Path&gt;" cx="301.41" cy="190.65" r="1"/><circle id="_Path_86" data-name="&lt;Path&gt;" cx="312.07" cy="190.99" r="1"/><polygon id="_Path_87" data-name="&lt;Path&gt;" class="cls-22" points="306.83 189.23 306.69 197.91 308.56 197.48 306.83 189.23"/><path id="_Path_88" data-name="&lt;Path&gt;" class="cls-3" d="M306.31,203.59c2.5,0,4.69-1.35,4.69-2.9v-.36h-9.63v.36c0,1.4,1.47,2.9,4.19,2.9Z"/></g><ellipse id="_Path_89" data-name="&lt;Path&gt;" class="cls-42" cx="282.29" cy="169.21" rx="7.71" ry="6.02" transform="translate(14.15 360.05) rotate(-66.38)"/><path id="_Path_90" data-name="&lt;Path&gt;" class="cls-43" d="M286.39,191.91s5.17,1,4.47-4.56c2.8-.44,16.47-6.22,22-19.72-3.48-7.05-9.66-8-16.38-6.88-9.94,1.68-20.49,9.15-14.64,28.43C282.27,190.63,285,190.81,286.39,191.91Z"/><g id="_Group_11" data-name="&lt;Group&gt;"><path id="_Path_91" data-name="&lt;Path&gt;" class="cls-19" d="M288,187.09a5.57,5.57,0,0,0-1.94-2c-3-2.08-6.5-.4-5.17,3.17.93,2.49,2.52,8.65,4.46,6.43A11.83,11.83,0,0,0,288,187.09Z"/><polygon id="_Path_92" data-name="&lt;Path&gt;" class="cls-22" points="285.65 187.46 281.71 186.79 284.68 192.2 283.68 187.75 285.65 187.46"/></g><circle id="_Path_93" data-name="&lt;Path&gt;" class="cls-1" cx="284.64" cy="195.46" r="1.8"/></g><polygon id="_Path_94" data-name="&lt;Path&gt;" class="cls-14" points="324.68 276.15 333.07 274.31 338.56 296.57 330.17 298.41 324.68 276.15"/><path id="_Path_95" data-name="&lt;Path&gt;" class="cls-39" d="M328.6,298.82l12.21-3.18-11.56-43.18a6.31,6.31,0,0,0-7.69-4.52h0a6.31,6.31,0,0,0-4.52,7.69Z"/><path id="_Path_96" data-name="&lt;Path&gt;" class="cls-18" d="M330.06,298.07a77.09,77.09,0,0,1-.18,8.69c3.31,1.6,5.28-3.12,5.28-3.12Z"/><path id="_Path_97" data-name="&lt;Path&gt;" class="cls-14" d="M337.65,292.89,341.9,301s-.56,7-1.91,9.38c-1.57,2.74-5.25,4.6-6,4.9-1.89.8-.44-9.53-.44-9.53l-3.84-8.28Z"/><rect id="_Rectangle_17" data-name="&lt;Rectangle&gt;" class="cls-1" x="327.88" y="292.91" width="12.48" height="4.69" transform="translate(735.41 489.61) rotate(164.38)"/><g id="_Clip_Group_4" data-name="&lt;Clip Group&gt;"><path id="_Clipping_Path_5" data-name="&lt;Clipping Path&gt;" class="cls-1" d="M280.56,213H310a10.52,10.52,0,0,1,10.52,10.52v80.62H270s3.15-33.79,3.15-45c0-8.89-3.15-35.57-3.15-35.57A10.52,10.52,0,0,1,280.56,213Z"/><g class="cls-44"><g id="_Group_12" data-name="&lt;Group&gt;"><g id="_Clip_Group_5" data-name="&lt;Clip Group&gt;"><path id="_Rectangle_18" data-name="&lt;Rectangle&gt;" class="cls-1" d="M270,213h51.53a0,0,0,0,1,0,0v67.14a24,24,0,0,1-24,24H294a24,24,0,0,1-24-24V213A0,0,0,0,1,270,213Z" transform="translate(591.62 517.12) rotate(-180)"/></g><circle id="_Path_98" data-name="&lt;Path&gt;" class="cls-1" cx="314.01" cy="275.76" r="9.49"/><circle id="_Path_99" data-name="&lt;Path&gt;" class="cls-1" cx="301.16" cy="256.77" r="6.47"/><circle id="_Path_100" data-name="&lt;Path&gt;" class="cls-1" cx="292.36" cy="271.72" r="5.45"/><circle id="_Path_101" data-name="&lt;Path&gt;" class="cls-1" cx="286.36" cy="259.42" r="3.7"/><circle id="_Path_102" data-name="&lt;Path&gt;" class="cls-1" cx="278.1" cy="267.14" r="3.04"/><circle id="_Path_103" data-name="&lt;Path&gt;" class="cls-1" cx="315.35" cy="256.77" r="3.7"/><circle id="_Path_104" data-name="&lt;Path&gt;" class="cls-1" cx="296.47" cy="283.75" r="3.7"/><circle id="_Path_105" data-name="&lt;Path&gt;" class="cls-1" cx="304.45" cy="291.06" r="3.04"/><circle id="_Path_106" data-name="&lt;Path&gt;" class="cls-1" cx="285.94" cy="282.09" r="2.58"/><circle id="_Path_107" data-name="&lt;Path&gt;" class="cls-1" cx="289.79" cy="249.21" r="2.58"/><circle id="_Path_108" data-name="&lt;Path&gt;" class="cls-1" cx="271.42" cy="248.35" r="9.49"/><circle id="_Path_109" data-name="&lt;Path&gt;" class="cls-1" cx="288.51" cy="300.55" r="9.49"/><circle id="_Path_110" data-name="&lt;Path&gt;" class="cls-1" cx="301.16" cy="228.04" r="9.49"/><circle id="_Path_111" data-name="&lt;Path&gt;" class="cls-1" cx="274.42" cy="285.26" r="5.45"/><circle id="_Path_112" data-name="&lt;Path&gt;" class="cls-1" cx="280.69" cy="275.33" r="2.58"/><circle id="_Path_113" data-name="&lt;Path&gt;" class="cls-1" cx="315.79" cy="295.88" r="5.45"/><circle id="_Path_114" data-name="&lt;Path&gt;" class="cls-1" cx="305.05" cy="299.47" r="2.58"/><circle id="_Path_115" data-name="&lt;Path&gt;" class="cls-1" cx="282.65" cy="216.78" r="6.47"/><circle id="_Path_116" data-name="&lt;Path&gt;" class="cls-1" cx="271.86" cy="298.02" r="2.58"/><circle id="_Path_117" data-name="&lt;Path&gt;" class="cls-1" cx="282.62" cy="232.18" r="3.7"/><circle id="_Path_118" data-name="&lt;Path&gt;" class="cls-1" cx="274.44" cy="226.59" r="2.58"/><circle id="_Path_119" data-name="&lt;Path&gt;" class="cls-1" cx="317.45" cy="242.53" r="5.45"/><circle id="_Path_120" data-name="&lt;Path&gt;" class="cls-1" cx="305.93" cy="244.06" r="2.58"/><circle id="_Path_121" data-name="&lt;Path&gt;" class="cls-1" cx="290.06" cy="240.11" r="2.58"/><circle id="_Path_122" data-name="&lt;Path&gt;" class="cls-1" cx="297.6" cy="244.61" r="2.58"/><circle id="_Path_123" data-name="&lt;Path&gt;" class="cls-1" cx="311.02" cy="214.25" r="2.58"/><circle id="_Path_124" data-name="&lt;Path&gt;" class="cls-1" cx="318.18" cy="220.93" r="3.7"/><circle id="_Path_125" data-name="&lt;Path&gt;" class="cls-1" cx="295.81" cy="212.11" r="2.58"/><circle id="_Path_126" data-name="&lt;Path&gt;" class="cls-1" cx="319.01" cy="230.62" r="2.58"/></g></g></g><g id="_Group_13" data-name="&lt;Group&gt;"><rect id="_Rectangle_19" data-name="&lt;Rectangle&gt;" class="cls-39" x="264.15" y="212.9" width="12.62" height="52.58" rx="6.31" ry="6.31" transform="translate(490.32 525.59) rotate(-169)"/><path id="_Path_127" data-name="&lt;Path&gt;" class="cls-18" d="M275.13,303.29a77.09,77.09,0,0,0,5.24,6.93c-1.74,3.23-6.11.57-6.11.57Z"/><path id="_Path_128" data-name="&lt;Path&gt;" class="cls-14" d="M265.95,303.54l1.34,9.1s4.57,5.36,7,6.48c2.87,1.3,6.95.65,7.7.48,2-.46-5.24-8-5.24-8l-1.75-9Z"/><path id="_Path_129" data-name="&lt;Path&gt;" class="cls-39" d="M264.65,304.26l12.57-1.1-4.2-44.5a6.31,6.31,0,0,0-6.83-5.74h0a6.31,6.31,0,0,0-5.74,6.83Z"/><rect id="_Rectangle_20" data-name="&lt;Rectangle&gt;" class="cls-1" x="264.45" y="299.32" width="12.48" height="4.69" transform="translate(571.59 573.2) rotate(173.97)"/></g><path id="_Path_130" data-name="&lt;Path&gt;" class="cls-21" d="M372.44,282.3l7.87-2.59,1.54-2.39s3.82-.24,4.93,6.68a67.79,67.79,0,0,1,.48,15.95A91.93,91.93,0,0,1,384.81,315a2.58,2.58,0,0,1-2.7,1.87l-4.37-.37c-1.38-.12-12.76-1.31-12.7-2.69l1.39-30.33C365.33,283.15,372.44,282.3,372.44,282.3Z"/><rect id="_Rectangle_21" data-name="&lt;Rectangle&gt;" class="cls-14" x="375.05" y="391.34" width="6.08" height="38.18" rx="3.04" ry="3.04" transform="translate(756.18 820.86) rotate(-180)"/><path id="_Path_131" data-name="&lt;Path&gt;" class="cls-14" d="M391.76,427.8l-11-2.74a3,3,0,0,0-5.67,1c0,.37-.28.69-.29,1.08l-.07,2.12a.65.65,0,0,0,.65.67H391.6a.65.65,0,0,0,.65-.65v-.8A.65.65,0,0,0,391.76,427.8Z"/><rect id="_Rectangle_22" data-name="&lt;Rectangle&gt;" class="cls-23" x="374.43" y="429.88" width="18.22" height="1.99" transform="translate(767.08 861.76) rotate(-180)"/><polygon id="_Path_132" data-name="&lt;Path&gt;" class="cls-23" points="388.08 426.35 386.95 426.06 384.58 430.49 385.72 430.49 388.08 426.35"/><path id="_Path_133" data-name="&lt;Path&gt;" class="cls-14" d="M400.27,361.61h0a2.56,2.56,0,0,0,.58-3.58l-13.93-19.27a2.56,2.56,0,0,0-3.57-.58h0a2.56,2.56,0,0,0-.58,3.58L396.7,361A2.56,2.56,0,0,0,400.27,361.61Z"/><path id="_Path_134" data-name="&lt;Path&gt;" class="cls-14" d="M385.69,343.33h0a2.56,2.56,0,0,0,2.16-2.91L384.3,316.9a2.56,2.56,0,0,0-2.91-2.15h0a2.56,2.56,0,0,0-2.16,2.91l3.54,23.51A2.56,2.56,0,0,0,385.69,343.33Z"/><path id="_Path_135" data-name="&lt;Path&gt;" class="cls-45" d="M386.22,325.27l-1.27-8.43a3.25,3.25,0,0,0-3.69-2.73h0a3.25,3.25,0,0,0-2.74,3.7l1.26,8.39Z"/><rect id="_Rectangle_23" data-name="&lt;Rectangle&gt;" class="cls-14" x="360.35" y="368.46" width="6.08" height="28.96" rx="3.04" ry="3.04" transform="translate(726.79 765.88) rotate(180)"/><rect id="_Rectangle_24" data-name="&lt;Rectangle&gt;" class="cls-14" x="360.35" y="391.34" width="6.08" height="38.18" rx="3.04" ry="3.04" transform="translate(726.79 820.86) rotate(180)"/><ellipse id="_Path_136" data-name="&lt;Path&gt;" class="cls-45" cx="371.45" cy="313.63" rx="4.53" ry="2.94"/><path id="_Path_137" data-name="&lt;Path&gt;" class="cls-14" d="M377.06,427.8l-11-2.74a3,3,0,0,0-5.67,1c0,.37-.28.69-.29,1.08l-.07,2.12a.65.65,0,0,0,.65.67h16.23a.65.65,0,0,0,.65-.65v-.8A.65.65,0,0,0,377.06,427.8Z"/><rect id="_Rectangle_25" data-name="&lt;Rectangle&gt;" class="cls-23" x="359.74" y="429.88" width="18.22" height="1.99" transform="translate(737.69 861.76) rotate(-180)"/><polygon id="_Path_138" data-name="&lt;Path&gt;" class="cls-23" points="373.38 426.35 372.25 426.06 369.89 430.49 371.02 430.49 373.38 426.35"/><path id="_Path_139" data-name="&lt;Path&gt;" class="cls-14" d="M371.75,304.26h-.09a2.58,2.58,0,0,1,2.56,2.65v5.67c0,1.47-1.1,1.92-2.56,1.92h0c-1.47,0-2.61-.46-2.61-1.92v-5.67A2.65,2.65,0,0,1,371.75,304.26Z"/><g id="_Group_14" data-name="&lt;Group&gt;"><path id="_Path_140" data-name="&lt;Path&gt;" class="cls-19" d="M376.11,308.92c-9.38.5-14.37-6.43-15.91-15-1.62-9.07,4.46-16.58,11.82-16.6,8.37,0,13.26,3.24,13.94,12.43.43,5.77-1.3,17.34-9.85,19.21Z"/><g id="_Group_15" data-name="&lt;Group&gt;"><line id="_Path_141" data-name="&lt;Path&gt;" class="cls-20" x1="383.4" y1="291.67" x2="379.91" y2="291.5"/><path id="_Path_142" data-name="&lt;Path&gt;" class="cls-20" d="M383.49,292.25a.58.58,0,0,0-.05-1.16l-3.49-.18a.58.58,0,0,0-.06,1.16l3.49.18Z"/></g><g id="_Group_16" data-name="&lt;Group&gt;"><line id="_Path_143" data-name="&lt;Path&gt;" class="cls-20" x1="373.85" y1="291.5" x2="370.36" y2="291.67"/><path id="_Path_144" data-name="&lt;Path&gt;" class="cls-20" d="M373.93,290.92a.58.58,0,0,1-.05,1.16l-3.49.18a.58.58,0,1,1-.06-1.16l3.49-.18Z"/></g><circle id="_Path_145" data-name="&lt;Path&gt;" cx="372.15" cy="294.79" r="1.02"/><circle id="_Path_146" data-name="&lt;Path&gt;" cx="381.34" cy="295.14" r="1.02"/><polygon id="_Path_147" data-name="&lt;Path&gt;" class="cls-22" points="378.05 298.35 375.98 299.74 378.05 299.74 378.05 298.35"/><path id="_Path_148" data-name="&lt;Path&gt;" class="cls-46" d="M379.74,302.82a3.7,3.7,0,0,1-3,2h0a4,4,0,0,1-3-2"/><ellipse id="_Path_149" data-name="&lt;Path&gt;" class="cls-47" cx="370.14" cy="299.62" rx="2.51" ry="2.35" transform="translate(-58.42 91.98) rotate(-13.14)"/><ellipse id="_Path_150" data-name="&lt;Path&gt;" class="cls-47" cx="382.13" cy="299.48" rx="2.35" ry="2.51" transform="translate(3.71 603.63) rotate(-76.88)"/></g><path id="_Path_151" data-name="&lt;Path&gt;" class="cls-20" d="M366.72,315.28c-.1-6.18-.33-18.34.09-22.9,2.15-6.74,19.85,1.8,17.63-13.93-2.84-5.25-12.95-4.84-18-2.44-6.27,3-7.78,6.26-8.59,21.35a140,140,0,0,0,0,18.33,2.46,2.46,0,0,0,1.85,2.18,20.69,20.69,0,0,0,3.74.47A3,3,0,0,0,366.72,315.28Z"/><path id="_Path_152" data-name="&lt;Path&gt;" class="cls-18" d="M396.72,361.1a43.19,43.19,0,0,1,.15,4.87c1.9.8,2.87-1.9,2.87-1.9Z"/><path id="_Path_153" data-name="&lt;Path&gt;" class="cls-14" d="M400.81,358l2.62,4.44s-.11,3.95-.79,5.3a8.07,8.07,0,0,1-3.19,2.91c-1,.5-.52-5.32-.52-5.32l-2.39-4.52Z"/><path id="_Rectangle_26" data-name="&lt;Rectangle&gt;" class="cls-48" d="M356.64,311.3H385a0,0,0,0,1,0,0v76.54A13.19,13.19,0,0,1,371.77,401h-1.94a13.19,13.19,0,0,1-13.19-13.19V311.3A0,0,0,0,1,356.64,311.3Z" transform="translate(741.6 712.33) rotate(-180)"/><circle class="cls-45" cx="374.74" cy="392.79" r="1.83"/><circle class="cls-45" cx="374.74" cy="367.16" r="1.83"/><circle class="cls-45" cx="374.74" cy="379.97" r="1.83"/><circle class="cls-45" cx="380.29" cy="322.02" r="1.83"/><circle class="cls-45" cx="370.43" cy="373.29" r="1.83"/><circle class="cls-45" cx="374.74" cy="354.34" r="1.83"/><circle class="cls-45" cx="370.43" cy="386.11" r="1.83"/><circle class="cls-45" cx="380.29" cy="334.84" r="1.83"/><circle class="cls-45" cx="370.43" cy="398.93" r="1.83"/><circle class="cls-45" cx="374.74" cy="328.7" r="1.83"/><circle class="cls-45" cx="374.74" cy="341.52" r="1.83"/><circle class="cls-45" cx="374.74" cy="315.89" r="1.83"/><circle class="cls-45" cx="380.29" cy="347.66" r="1.83"/><path class="cls-45" d="M356.72,326.88h-.07v3.64h.07a1.83,1.83,0,0,0,0-3.65Z"/><path class="cls-45" d="M356.72,352.51h-.07v3.64h.07a1.83,1.83,0,0,0,0-3.65Z"/><path class="cls-45" d="M356.72,339.7h-.07v3.64h.07a1.83,1.83,0,0,0,0-3.65Z"/><path class="cls-45" d="M356.72,365.33h-.07V369h.07a1.83,1.83,0,0,0,0-3.65Z"/><path class="cls-45" d="M356.72,378.15h-.07v3.64h.07a1.83,1.83,0,0,0,0-3.65Z"/><path class="cls-45" d="M358.52,316.12a9.07,9.07,0,0,0-.84,1.32A1.82,1.82,0,0,0,358.52,316.12Z"/><circle class="cls-45" cx="380.29" cy="360.47" r="1.83"/><circle class="cls-45" cx="380.29" cy="373.29" r="1.83"/><path class="cls-45" d="M358.54,392.79a1.83,1.83,0,0,0-1.83-1.83h-.07v3.64h.07A1.83,1.83,0,0,0,358.54,392.79Z"/><circle class="cls-45" cx="380.29" cy="398.93" r="1.83"/><circle class="cls-45" cx="380.29" cy="386.11" r="1.83"/><circle class="cls-45" cx="365.61" cy="367.16" r="1.83"/><path class="cls-45" d="M384.6,365.33a1.83,1.83,0,1,0,.36,3.62v-3.58A1.83,1.83,0,0,0,384.6,365.33Z"/><circle class="cls-45" cx="361.3" cy="322.02" r="1.83"/><path class="cls-45" d="M385,391a1.83,1.83,0,1,0,0,3.58Z"/><circle class="cls-45" cx="361.3" cy="398.93" r="1.83"/><circle class="cls-45" cx="370.43" cy="360.47" r="1.83"/><circle class="cls-45" cx="361.3" cy="360.47" r="1.83"/><circle class="cls-45" cx="361.3" cy="347.66" r="1.83"/><path class="cls-45" d="M384.6,326.88a1.83,1.83,0,1,0,.36,3.62v-3.58A1.84,1.84,0,0,0,384.6,326.88Z"/><path class="cls-45" d="M382.77,315.89a1.82,1.82,0,0,0,1.23,1.72,9.14,9.14,0,0,0-1.22-1.85S382.77,315.84,382.77,315.89Z"/><path class="cls-45" d="M384.6,339.7a1.83,1.83,0,1,0,.36,3.62v-3.58A1.84,1.84,0,0,0,384.6,339.7Z"/><path class="cls-45" d="M382.77,380a1.82,1.82,0,0,0,2.19,1.79v-3.58a1.82,1.82,0,0,0-2.19,1.79Z"/><path class="cls-45" d="M384.6,352.51a1.83,1.83,0,1,0,.36,3.62v-3.58A1.83,1.83,0,0,0,384.6,352.51Z"/><circle class="cls-45" cx="361.3" cy="334.84" r="1.83"/><circle class="cls-45" cx="361.3" cy="386.11" r="1.83"/><circle class="cls-45" cx="370.43" cy="322.02" r="1.83"/><circle class="cls-45" cx="365.61" cy="379.97" r="1.83"/><circle class="cls-45" cx="370.43" cy="334.84" r="1.83"/><circle class="cls-45" cx="370.43" cy="347.66" r="1.83"/><circle class="cls-45" cx="365.61" cy="315.89" r="1.83"/><circle class="cls-45" cx="361.3" cy="373.29" r="1.83"/><circle class="cls-45" cx="365.61" cy="328.7" r="1.83"/><circle class="cls-45" cx="365.61" cy="341.52" r="1.83"/><circle class="cls-45" cx="365.61" cy="392.79" r="1.83"/><circle class="cls-45" cx="365.61" cy="354.34" r="1.83"/><path id="_Path_154" data-name="&lt;Path&gt;" class="cls-14" d="M331.53,317.57h0a2.56,2.56,0,0,0-.25,3.62l15.62,17.92a2.56,2.56,0,0,0,3.61.25h0a2.56,2.56,0,0,0,.25-3.62l-15.62-17.92A2.56,2.56,0,0,0,331.53,317.57Z"/><path id="_Path_155" data-name="&lt;Path&gt;" class="cls-14" d="M348.06,339.36h0a2.56,2.56,0,0,0,3.47-1.07l11.1-21a2.56,2.56,0,0,0-1.06-3.46h0a2.56,2.56,0,0,0-3.47,1.07l-11.1,21A2.56,2.56,0,0,0,348.06,339.36Z"/><path id="_Path_156" data-name="&lt;Path&gt;" class="cls-45" d="M359.2,325.14l4-7.54a3.25,3.25,0,0,0-1.35-4.38h0a3.25,3.25,0,0,0-4.39,1.35l-4,7.5Z"/><path id="_Path_157" data-name="&lt;Path&gt;" class="cls-14" d="M331.26,321.23l-3.2-4s-.43-3.92.06-5.36a8.07,8.07,0,0,1,2.76-3.32c1-.64,1.25,5.2,1.25,5.2l3,4.15Z"/></svg>