<svg id="Layer_1" data-name="Layer 1" xmlns="http://www.w3.org/2000/svg" xmlns:xlink="http://www.w3.org/1999/xlink" viewBox="0 0 708.66 481.89"><defs><style>.cls-1,.cls-13,.cls-35{fill:none;}.cls-2{opacity:0.14;}.cls-3{clip-path:url(#clip-path);}.cls-4,.cls-49{fill:#fec82b;}.cls-4{opacity:0.98;}.cls-5{fill:#f4d99d;}.cls-6{clip-path:url(#clip-path-2);}.cls-7{fill:#d65b56;}.cls-8{fill:#3f5aa8;}.cls-15,.cls-9{fill:#f8ab8d;}.cls-12,.cls-24,.cls-25,.cls-55,.cls-56,.cls-57,.cls-9{fill-rule:evenodd;}.cls-10{fill:#8b6339;}.cls-11{fill:#754d24;}.cls-12,.cls-36{fill:#dc846a;}.cls-13,.cls-35{stroke:#dc846a;stroke-linecap:round;stroke-linejoin:round;}.cls-13{stroke-width:1.94px;}.cls-14{fill:#f2f2f2;}.cls-16{fill:#324a7c;}.cls-17{fill:#31467c;}.cls-18{fill:#a5a4a4;}.cls-19{fill:#d1d0cf;}.cls-20{fill:#605f5e;}.cls-21{opacity:0.05;}.cls-22,.cls-23,.cls-52{fill:#141414;}.cls-23{opacity:0.11;}.cls-24{fill:#f9f9f9;}.cls-25,.cls-46{fill:#ee4256;}.cls-26,.cls-37{fill:#a6c1e2;}.cls-27{fill:#353560;}.cls-28{fill:#648ec9;}.cls-29{fill:#979797;}.cls-30{fill:#383333;}.cls-31,.cls-56{fill:#fff;}.cls-32{fill:#e5e5e4;}.cls-33{fill:#515180;}.cls-34{fill:gray;}.cls-35{stroke-width:1.92px;}.cls-37{opacity:0.89;}.cls-38{clip-path:url(#clip-path-3);}.cls-39{fill:#19a4a4;}.cls-40{fill:#e8e7e6;}.cls-41{fill:#d8d8d8;}.cls-42{fill:#222223;opacity:0.2;}.cls-43{fill:#414042;}.cls-44{fill:#6d6e71;}.cls-45{fill:#e5e5e5;opacity:0.66;}.cls-47{fill:#54402b;}.cls-48{fill:#6c4e38;}.cls-50{fill:#ffdc83;}.cls-51{fill:#e7685d;}.cls-52{opacity:0.04;}.cls-53{fill:#3952a0;}.cls-54{fill:#fdd8b8;}.cls-55{fill:#070707;}.cls-57{fill:#49a579;}</style><clipPath id="clip-path"><rect class="cls-1" y="-186.48" width="708.66" height="840.85"/></clipPath><clipPath id="clip-path-2"><circle class="cls-1" cx="255.2" cy="80.68" r="45.85"/></clipPath><clipPath id="clip-path-3"><circle class="cls-1" cx="405.21" cy="66.21" r="45.15"/></clipPath></defs><title>CS-L2-U2</title><g class="cls-2"><g class="cls-3"><rect class="cls-4" x="-54.59" y="83.5" width="860.75" height="240.84" transform="translate(44.39 -66.22) rotate(10.7)"/></g></g><circle class="cls-5" cx="255.2" cy="81.26" r="45.85"/><g class="cls-6"><path id="_Path_" data-name="&lt;Path&gt;" class="cls-7" d="M251.63,86l-7.39,3.6L250,101.08c.82,1.66,3.13,2.18,5.18,1.17h0c2-1,3-3.17,2.22-4.82Z"/><g id="_Group_" data-name="&lt;Group&gt;"><g id="_Clip_Group_" data-name="&lt;Clip Group&gt;"><path id="_Rectangle_" data-name="&lt;Rectangle&gt;" class="cls-8" d="M240.1,84.49h37.12a0,0,0,0,1,0,0v47.62a18.29,18.29,0,0,1-18.29,18.29h-1.42A17.42,17.42,0,0,1,240.1,133V84.49A0,0,0,0,1,240.1,84.49Z" transform="translate(517.32 234.89) rotate(-180)"/></g></g><path id="_Path_2" data-name="&lt;Path&gt;" class="cls-9" d="M263.84,82.22c-8.68.47-13.3-5.95-14.72-13.92-1.49-8.39,4.13-15.34,10.93-15.36,7.75,0,12.26,3,12.9,11.5.4,5.34-1.21,16-9.12,17.78Z"/><path id="_Path_3" data-name="&lt;Path&gt;" class="cls-10" d="M248,57.31c-.86,2.21-.86,5.53-.75,7.65a2.11,2.11,0,0,1,1.81-.45l.29.07h0l.14,0,.14.05.15.07.1.05.17.1.14.09.14.09.13.1.13.11.24.23v0l0,.06,0,0,0,0v0h0V69.6a1.73,1.73,0,0,0,.41,1.29,2.1,2.1,0,0,0,.18.2,2.76,2.76,0,0,0,1.18.34,2,2,0,0,0,2-1.83V68.22a2,2,0,0,1,1.83-2l.35,0c0-1.57,0-2.82,0-3.59,0-1,.34-1.59,2.47-1.81h.06l.6,0h0c.37,0,.78,0,1.23,0h9.76l.11,0a4.82,4.82,0,0,0,2.67-1.83,2.9,2.9,0,0,0,.54-1.93h-2.7a5.48,5.48,0,0,0,1.39-2.34,12.8,12.8,0,0,0,.62-3h-4.48s-4.49-3.26-9.47-2.84c-7.86.66-10.46,5.71-10.46,5.71a8.47,8.47,0,0,0-3.4-.6A7.25,7.25,0,0,1,248,57.31Z"/><path id="_Path_4" data-name="&lt;Path&gt;" class="cls-11" d="M260.09,60.76c.37,0,.78,0,1.23,0h9.76l.11,0a4.82,4.82,0,0,0,2.67-1.83,2.9,2.9,0,0,0,.54-1.93s-2.33,2.62-3.81,2.89l-.12,0C269,60.08,262.28,60.59,260.09,60.76Z"/><g id="_Group_2" data-name="&lt;Group&gt;"><line id="_Path_5" data-name="&lt;Path&gt;" class="cls-10" x1="269.75" y1="65.4" x2="266.67" y2="65.24"/><path id="_Path_6" data-name="&lt;Path&gt;" class="cls-10" d="M269.82,65.9a.51.51,0,0,0,0-1l-3.08-.16a.51.51,0,0,0-.05,1l3.08.16Z"/></g><g id="_Group_3" data-name="&lt;Group&gt;"><line id="_Path_7" data-name="&lt;Path&gt;" class="cls-10" x1="261.7" y1="65.24" x2="258.62" y2="65.4"/><path id="_Path_8" data-name="&lt;Path&gt;" class="cls-10" d="M261.77,64.73a.51.51,0,0,1,0,1l-3.08.16a.51.51,0,0,1-.05-1l3.08-.16Z"/></g><circle id="_Path_9" data-name="&lt;Path&gt;" cx="260.54" cy="68.56" r="0.69"/><circle id="_Path_10" data-name="&lt;Path&gt;" cx="267.97" cy="68.8" r="0.69"/><path id="_Path_11" data-name="&lt;Path&gt;" class="cls-11" d="M273.71,51.64s-1.74,4-4.19,5c-2.08.85-12.25,1.18-12.25,1.18a17.36,17.36,0,0,0,3.15.75c.93.1,9.88.38,11.28-1.59A8.72,8.72,0,0,0,273.71,51.64Z"/><g id="_Group_4" data-name="&lt;Group&gt;"><path id="_Path_12" data-name="&lt;Path&gt;" class="cls-9" d="M251.28,66a4.08,4.08,0,0,0-1.42-1.48c-2.2-1.53-4.77-.29-3.79,2.33.68,1.82,1.85,6.34,3.27,4.72A8.67,8.67,0,0,0,251.28,66Z"/><polygon id="_Path_13" data-name="&lt;Path&gt;" class="cls-12" points="249.59 66.26 246.7 65.77 248.88 69.74 248.14 66.47 249.59 66.26"/></g><polygon id="_Path_14" data-name="&lt;Path&gt;" class="cls-12" points="264.32 67.57 264.23 73.61 265.52 73.32 264.32 67.57"/><path class="cls-13" d="M266.48,76.9a31.77,31.77,0,0,0-6.12-1.13"/><rect class="cls-14" x="256.48" y="84.69" width="5.28" height="4.26" transform="translate(518.23 173.63) rotate(-180)"/><path id="_Path_15" data-name="&lt;Path&gt;" class="cls-15" d="M259,75.18h-.09a2.67,2.67,0,0,1,2.65,2.75V83.8c0,1.52-1.13,2-2.65,2h0c-1.52,0-2.7-.47-2.7-2V77.93A2.75,2.75,0,0,1,259,75.18Z"/><polygon id="_Path_16" data-name="&lt;Path&gt;" class="cls-16" points="252.14 84.49 256.49 84.49 259.57 88.82 256.45 93.89 252.14 84.49"/><polygon id="_Path_17" data-name="&lt;Path&gt;" class="cls-16" points="266.25 84.49 261.44 84.49 259.18 88.75 263.48 94.32 266.25 84.49"/><rect class="cls-17" x="251.05" y="122.12" width="8.65" height="1.44" rx="0.72" ry="0.72" transform="translate(510.75 245.67) rotate(180)"/><rect class="cls-18" x="226.88" y="117.23" width="51.63" height="12.4" transform="translate(505.38 246.86) rotate(-180)"/><path class="cls-19" d="M237.63,108.52H271.1a0,0,0,0,1,0,0v0a9,9,0,0,1-9,9H246.62a9,9,0,0,1-9-9v0A0,0,0,0,1,237.63,108.52Z" transform="translate(508.73 226.03) rotate(-180)"/><rect class="cls-19" x="230.94" y="83.52" width="2.87" height="33.71" transform="translate(464.75 200.75) rotate(-180)"/><rect class="cls-19" x="225.44" y="77.18" width="16.25" height="8.97" transform="translate(467.14 163.33) rotate(-180)"/><rect class="cls-20" x="227.8" y="78.61" width="11.05" height="6.1" transform="translate(466.66 163.33) rotate(-180)"/></g><g class="cls-21"><path class="cls-22" d="M454.19,181.8c13.08,4.21,23-2.72,29.08-13.66l.11.23c1.67,3.36,5.63-3.71,7.58-6.47s.81-5-1.41-5.73c.85-3.11,1.61-6.93,1.27-9.92,1.44-2.49,2.6-3.06,4.71-4.51a13.84,13.84,0,0,0-5.62-.46s-2-9.06-14.13-13.38c-7.7-2.74-16.14.54-16.14.54l-7.08-1.87a20.9,20.9,0,0,0-.26,4.93,9,9,0,0,0,1.22,4.28l-4.27-1.13a4.74,4.74,0,0,0,0,3.28,6.29,6.29,0,0,0,1.44,2.38,29.94,29.94,0,0,0-3.93,7.87C443.8,156.9,441.77,175.43,454.19,181.8Z"/><path class="cls-22" d="M494.61,294.95v-6.58h1V195.79a6.89,6.89,0,0,0-7.58-6.85,12.81,12.81,0,0,0-6.25-1.62h-8.27l-5.26-3.44L464,187.32H447.29a13.34,13.34,0,0,0-13.3,13.3v94.33h4.9L439,300a8.65,8.65,0,0,0,.35,2.35V439.64h2v9a6.33,6.33,0,0,0-1.86.19l-22,5.73a3.32,3.32,0,0,0-2.48,3.21v2.15a1.27,1.27,0,0,0,1.27,1.27h69.77a2.52,2.52,0,0,0,2.52-2.52v-8.42a1.27,1.27,0,0,0-1.15-1.26v-9.31h1.93v-124a62.29,62.29,0,0,0,5.79-8.22l-.34-11.83-5.51.43,0-1ZM473.77,448.61a6.31,6.31,0,0,0-2,.18l-15.43,4v-2.6a1.27,1.27,0,0,0-1.28-1.27v-9.3H457V308.55l14.71-.12V439.64h2Z"/></g><circle class="cls-23" cx="294.44" cy="103.99" r="22.73"/><path class="cls-24" d="M291.54,80.68a22.73,22.73,0,1,1-22.73,22.73,22.73,22.73,0,0,1,22.73-22.73Z"/><path class="cls-25" d="M298,95l2,2a1.42,1.42,0,0,1,0,2l-4.44,4.44,4.44,4.44a1.42,1.42,0,0,1,0,2l-2,2a1.42,1.42,0,0,1-2,0l-4.44-4.44-4.44,4.44a1.42,1.42,0,0,1-2,0l-2-2a1.42,1.42,0,0,1,0-2l4.44-4.44L283.1,99a1.42,1.42,0,0,1,0-2l2-2a1.42,1.42,0,0,1,2,0l4.44,4.44L296,95a1.41,1.41,0,0,1,2,0Z"/><circle class="cls-26" cx="405.91" cy="65.51" r="45.85"/><path id="_Path_18" data-name="&lt;Path&gt;" class="cls-27" d="M438.4,187.23h0a6.07,6.07,0,0,1,4.8,7.11l-10.43,51.09a6.07,6.07,0,0,1-7.11,4.8h0a6.07,6.07,0,0,1-4.8-7.11L431.29,192A6.07,6.07,0,0,1,438.4,187.23Z"/><path id="_Path_19" data-name="&lt;Path&gt;" class="cls-28" d="M444.75,395.73h0a6.84,6.84,0,0,0-6.84,6.84v48.5a6.84,6.84,0,0,0,6.84,6.84h0a6.84,6.84,0,0,0,6.84-6.84v-48.5A6.84,6.84,0,0,0,444.75,395.73Z"/><path id="_Path_20" data-name="&lt;Path&gt;" class="cls-29" d="M452.87,450.21v8.36h-41.3v-.84a3.32,3.32,0,0,1,2.48-3.21l22-5.73a6.13,6.13,0,0,1,3.08,0c5.87,1.52,10,.85,12.12.22A1.27,1.27,0,0,1,452.87,450.21Z"/><path id="_Path_21" data-name="&lt;Path&gt;" class="cls-30" d="M452.87,458.57v.07a2.52,2.52,0,0,1-2.52,2.52H412.84a1.27,1.27,0,0,1-1.27-1.27v-1.32Z"/><path id="_Path_22" data-name="&lt;Path&gt;" class="cls-9" d="M450.7,181.8c14.26,4.59,24.77-4.06,30.63-16.72,6.18-13.32-.13-27.36-11.46-30.39-12.89-3.45-21.75-.4-26.54,13.48-3,8.72-5,27.25,7.37,33.62Z"/><path id="_Path_23" data-name="&lt;Path&gt;" class="cls-28" d="M477.13,395.73h0a6.84,6.84,0,0,0-6.84,6.84v48.5a6.84,6.84,0,0,0,6.84,6.84h0a6.84,6.84,0,0,0,6.84-6.84v-48.5A6.84,6.84,0,0,0,477.13,395.73Z"/><path id="_Rectangle_2" data-name="&lt;Rectangle&gt;" class="cls-27" d="M477.07,290.43h0a8.84,8.84,0,0,1,8.84,8.84V439.64a0,0,0,0,1,0,0H468.24a0,0,0,0,1,0,0V299.26A8.84,8.84,0,0,1,477.07,290.43Z"/><path id="_Path_24" data-name="&lt;Path&gt;" class="cls-29" d="M485.13,450.21v8.36h-41.3v-.84a3.32,3.32,0,0,1,2.48-3.21l22-5.73a6.13,6.13,0,0,1,3.08,0c5.87,1.52,10,.85,12.12.22A1.27,1.27,0,0,1,485.13,450.21Z"/><path id="_Path_25" data-name="&lt;Path&gt;" class="cls-30" d="M485.13,458.57v.07a2.52,2.52,0,0,1-2.52,2.52H445.09a1.27,1.27,0,0,1-1.27-1.27v-1.32Z"/><path id="_Rectangle_3" data-name="&lt;Rectangle&gt;" class="cls-27" d="M444.69,290.43h0a8.84,8.84,0,0,1,8.84,8.84V439.64a0,0,0,0,1,0,0H435.85a0,0,0,0,1,0,0V299.26a8.84,8.84,0,0,1,8.84-8.84Z"/><path id="_Path_26" data-name="&lt;Path&gt;" class="cls-27" d="M485.61,283.45l-50.41.41.3,16.18a8.66,8.66,0,0,0,8.73,8.59l33.09-.27a8.66,8.66,0,0,0,8.59-8.73Z"/><path id="_Rectangle_4" data-name="&lt;Rectangle&gt;" class="cls-29" d="M453.44,187.32h15.51a22.19,22.19,0,0,1,22.19,22.19v85.45a0,0,0,0,1,0,0H430.51a0,0,0,0,1,0,0V210.24A22.93,22.93,0,0,1,453.44,187.32Z"/><polygon id="_Path_27" data-name="&lt;Path&gt;" class="cls-27" points="473.48 187.32 475.3 193.34 470.34 198.29 472.43 202.19 450.61 232.86 442 202.11 444.7 198.09 442.95 193.34 446.74 187.32 473.48 187.32"/><polygon id="_Path_28" data-name="&lt;Path&gt;" class="cls-31" points="448.81 187.32 452.66 222.69 469.98 187.32 448.81 187.32"/><path id="_Path_29" data-name="&lt;Path&gt;" class="cls-15" d="M460.24,172.12h.15a4.36,4.36,0,0,0-4.33,4.49v9.59c0,2.48,1.85,3.25,4.33,3.25h-.08c2.48,0,4.41-.77,4.41-3.25v-9.59A4.49,4.49,0,0,0,460.24,172.12Z"/><polygon id="_Path_30" data-name="&lt;Path&gt;" class="cls-32" points="469.98 187.32 464.73 183.88 459.01 188.59 462.34 196.46 469.98 187.32"/><polygon id="_Path_31" data-name="&lt;Path&gt;" class="cls-32" points="448.81 187.32 456.07 183.88 459.01 188.59 452.66 196.46 448.81 187.32"/><polygon id="_Path_32" data-name="&lt;Path&gt;" class="cls-29" points="459.01 188.59 461 193.28 456.07 198.09 454.69 193.94 459.01 188.59"/><polygon id="_Path_33" data-name="&lt;Path&gt;" class="cls-33" points="457.48 196.4 458.25 211.27 452.66 222.69 451.28 210.06 455.67 195.94 457.48 196.4"/><ellipse id="_Path_34" data-name="&lt;Path&gt;" class="cls-27" cx="454.77" cy="249.46" rx="2.82" ry="3.48"/><ellipse id="_Path_35" data-name="&lt;Path&gt;" class="cls-27" cx="454.77" cy="268.51" rx="2.82" ry="3.48"/><path id="_Path_36" data-name="&lt;Path&gt;" class="cls-29" d="M487.32,146.25c.44,3.85-.94,9.1-2,12.39a3.45,3.45,0,0,0-2.66-1.46h-.49l-.24,0-.24,0-.26,0-.19,0-.31.08-.25.08-.25.09-.24.1-.25.12-.48.27s0,0,0,0l-.1.07-.06,0-.06,0,0,0,0,0,0,0,0,0-1.61,6.09a2.82,2.82,0,0,1-1.19,1.87,3.43,3.43,0,0,1-.36.23,4.5,4.5,0,0,1-2,.05,3.29,3.29,0,0,1-2.43-3.74l.57-2.18a3.25,3.25,0,0,0-2.06-3.91l-.54-.18c.61-2.49,1.15-4.45,1.49-5.67.43-1.51.13-2.66-3.14-3.88l-.1,0-.92-.32-.07,0c-.57-.18-1.22-.37-1.93-.56L449.44,142l-.16-.09a7.87,7.87,0,0,1-3.45-4,4.74,4.74,0,0,1,0-3.28l4.27,1.13a9,9,0,0,1-1.22-4.28,20.9,20.9,0,0,1,.26-4.93l7.08,1.87s8.44-3.28,16.14-.54c12.14,4.32,14.13,13.38,14.13,13.38a13.84,13.84,0,0,1,5.62.46C489.93,143.18,488.76,143.76,487.32,146.25Z"/><path id="_Path_37" data-name="&lt;Path&gt;" class="cls-34" d="M466.78,146.64c-.57-.18-1.22-.37-1.93-.56L449.44,142l-.16-.09a7.87,7.87,0,0,1-3.45-4,4.74,4.74,0,0,1,0-3.28s2.58,5.11,4.82,6.15l.18.08C453.05,141.88,463.38,145.47,466.78,146.64Z"/><path id="_Path_38" data-name="&lt;Path&gt;" class="cls-29" d="M463.93,170.88,463,173l-2.11,4.76,0,.05-.68,1.53c-1.89,4.19-6.28,6.07-9.8,4.18l-4.15-2.22a6.51,6.51,0,0,1-3.14-4,11.86,11.86,0,0,1-.1-5.88l2.12-7.12c.83-1.83,1.51-2.44,3.17-2l14.06,3.71.34.09A3.68,3.68,0,0,1,463.93,170.88Z"/><path id="_Path_39" data-name="&lt;Path&gt;" class="cls-31" d="M451.7,170.76c-3-.79-5.18-3.1-4.7-4.94l.11-.43,11.52,3-.11.43c-.44,1.68-2.67,3-5.92,2.14Z"/><path id="_Path_40" data-name="&lt;Path&gt;" class="cls-34" d="M449.08,126.57s1.1,7,4.55,9.58c2.93,2.21,18.86,7,18.86,7a28.35,28.35,0,0,1-5.29-.12c-1.5-.23-15.75-3.52-17.15-7.21A14.24,14.24,0,0,1,449.08,126.57Z"/><path id="_Path_41" data-name="&lt;Path&gt;" class="cls-29" d="M476,166.52a14.43,14.43,0,0,1-2.88,1.23c-3.74,1.27-8.91,2.61-11.7,8l0,0c-1.33,2.61-1.81,2.15-1.8.46,0-2.9,1.54-9.45,2.8-10.4h0c2.72.72,8.28.28,9.16-3S480,164.48,476,166.52Z"/><path id="_Path_42" data-name="&lt;Path&gt;" class="cls-29" d="M443.28,170.59c.93-3.1-3.44-8.22-1.5-16.63a8.69,8.69,0,0,0,6.55,8.21C449,163.68,444.68,168.36,443.28,170.59Z"/><path id="_Path_43" data-name="&lt;Path&gt;" class="cls-34" d="M473.1,167.75c-3.84,1.67-9.14,3.49-12.22,10l0,.05-.68,1.53c-1.89,4.19-6.28,6.07-9.8,4.18l-4.15-2.22a6.51,6.51,0,0,1-3.14-4,27.59,27.59,0,0,0,6.46,3.71c3.24,1.17,7.54,1.1,9.47-2.61h0a24.25,24.25,0,0,1,4-5.43C465.6,170.29,469.11,167.9,473.1,167.75Z"/><rect id="_Rectangle_5" data-name="&lt;Rectangle&gt;" class="cls-27" x="465.69" y="260.93" width="13.47" height="4.99" transform="translate(944.85 526.84) rotate(-180)"/><g id="_Group_5" data-name="&lt;Group&gt;"><line id="_Path_44" data-name="&lt;Path&gt;" class="cls-29" x1="446.89" y1="147.36" x2="452.13" y2="148.47"/><path id="_Path_45" data-name="&lt;Path&gt;" class="cls-29" d="M446.54,148.19a.89.89,0,0,1,.53-1.7l5.24,1.1a.89.89,0,0,1-.37,1.75l-5.24-1.1Z"/></g><g id="_Group_6" data-name="&lt;Group&gt;"><line id="_Path_46" data-name="&lt;Path&gt;" class="cls-29" x1="461.54" y1="150.95" x2="466.64" y2="152.58"/><path id="_Path_47" data-name="&lt;Path&gt;" class="cls-29" d="M461.65,150.06a.89.89,0,0,0-.38,1.74l5.1,1.63a.89.89,0,1,0,.54-1.7l-5.1-1.63Z"/></g><circle id="_Path_48" data-name="&lt;Path&gt;" cx="462.01" cy="157.04" r="1.21" transform="translate(192.31 563.71) rotate(-75.22)"/><circle id="_Path_49" data-name="&lt;Path&gt;" cx="448.36" cy="153.87" r="1.21" transform="translate(185.21 548.15) rotate(-75.22)"/><polygon id="_Path_50" data-name="&lt;Path&gt;" class="cls-12" points="455.81 154.85 454.02 162.28 451.94 161.34 455.81 154.85"/><path id="_Path_51" data-name="&lt;Path&gt;" class="cls-35" d="M465.94,159.76a6.29,6.29,0,0,1-3.89.11h0a6.75,6.75,0,0,1-3.33-2"/><path id="_Path_52" data-name="&lt;Path&gt;" class="cls-35" d="M451.6,156a6.29,6.29,0,0,1-3.89.11h0a6.75,6.75,0,0,1-3.33-2"/><g id="_Group_7" data-name="&lt;Group&gt;"><path id="_Path_53" data-name="&lt;Path&gt;" class="cls-9" d="M479.1,158.18a7.09,7.09,0,0,1,3-1.86c4.37-1.59,8.13,1.62,5.33,5.58-2,2.76-5.91,9.83-7.58,6.47A15.05,15.05,0,0,1,479.1,158.18Z"/><polygon id="_Path_54" data-name="&lt;Path&gt;" class="cls-12" points="481.82 159.38 486.89 159.84 481.48 165.53 484.16 160.37 481.82 159.38"/></g><path id="_Path_55" data-name="&lt;Path&gt;" class="cls-36" d="M479.67,297.29a99.19,99.19,0,0,1-5.09,10c2.93,3.71,7.87-.64,7.87-.64Z"/><path id="_Path_56" data-name="&lt;Path&gt;" class="cls-15" d="M491.36,295.56l.34,11.83s-4.6,7.82-7.48,9.78c-3.35,2.29-8.66,2.37-9.65,2.32-2.63-.14,4.86-11.27,4.86-11.27l.21-11.74Z"/><rect id="_Rectangle_6" data-name="&lt;Rectangle&gt;" class="cls-15" x="479.72" y="259.51" width="10.97" height="42.04" rx="5.48" ry="5.48"/><rect id="_Rectangle_7" data-name="&lt;Rectangle&gt;" class="cls-31" x="476.26" y="288.37" width="18.23" height="9.62"/><path id="_Rectangle_8" data-name="&lt;Rectangle&gt;" class="cls-27" d="M485.2,188.9h0a6.89,6.89,0,0,1,6.89,6.89v92.58a0,0,0,0,1,0,0H478.31a0,0,0,0,1,0,0V195.79a6.89,6.89,0,0,1,6.89-6.89Z"/><path id="_Path_57" data-name="&lt;Path&gt;" class="cls-27" d="M424.3,249.1h0a6.07,6.07,0,0,0,8-3l21.13-47.67a6.07,6.07,0,0,0-3-8h0a6.07,6.07,0,0,0-8,3l-21.13,47.67A6.07,6.07,0,0,0,424.3,249.1Z"/><path id="_Path_58" data-name="&lt;Path&gt;" class="cls-36" d="M453.27,198.66a103.21,103.21,0,0,1,8.67-7.76c-1.45-4.7-7.88-2.32-7.88-2.32Z"/><path id="_Path_59" data-name="&lt;Path&gt;" class="cls-15" d="M441.28,196l4.1-11.61s7.39-5.86,10.93-6.69c4.11-1,9.29.94,10.23,1.36,2.51,1.12-8.94,9.13-8.94,9.13L453,199.46Z"/><rect id="_Rectangle_9" data-name="&lt;Rectangle&gt;" class="cls-31" x="438.33" y="193.94" width="18.23" height="9.62" transform="translate(101.54 -147.74) rotate(21.1)"/><circle class="cls-37" cx="442.67" cy="115.67" r="5.57"/><g class="cls-38"><circle class="cls-39" cx="377.48" cy="66.04" r="23.98"/><path id="_Path_60" data-name="&lt;Path&gt;" class="cls-36" d="M384.41,73.49a54,54,0,0,1-3.52-5c-2.53.48-1.67,4-1.67,4Z"/><rect class="cls-40" x="361.44" y="57.14" width="32.54" height="13.31" rx="6.65" ry="6.65" transform="translate(713.28 248.53) rotate(-160.75)"/><path class="cls-41" d="M391.22,61.42l1.68.58a2.42,2.42,0,0,1,1.49,3.08l-2.79,8a2.42,2.42,0,0,1-3.08,1.49l-13.28-4.64C379.25,67.9,385.61,64.63,391.22,61.42Z"/><path class="cls-42" d="M364.93,61.23s0,0,0,0,0-.17,0-.26v-.06c0-.08,0-.17,0-.25l0-.11c0-.07,0-.13,0-.2s.06-.21.09-.31l.26-.72h0l.73-2,4.05,1.45h0l.7.25h0l4.17,1.49h0l1.1.4h0l4.69,1.68h0l1.42.51h0l1.89.68,6.14,2.2-1,2.75A3.44,3.44,0,0,1,385,70.75l-3.62-1.3-.22-.09h0l-.05,0-.24-.12-.11-.06-.3-.21-.13-.1-.16-.14-.12-.13-.13-.15-.11-.14-.13-.19-.1-.16c-.05-.09-.1-.18-.14-.27l-.06-.15-.07-.19-.05-.18,0-.17s0-.09,0-.13h0a3.41,3.41,0,0,1-.05-.55h0s0,0,0,0,0-.18,0-.27v0c0-.09,0-.17,0-.26l0-.1c0-.07,0-.14,0-.21s.06-.21.09-.31l.63-1.76-4.07-1.46-.63,1.76a3.44,3.44,0,0,1-4.38,2.07l-3.62-1.3L367,64.3h0l-.05,0-.23-.12-.11-.06-.3-.21-.12-.1-.16-.14-.12-.12-.14-.16-.11-.13-.13-.2-.09-.14c-.05-.09-.1-.19-.15-.28l-.06-.15-.07-.2-.05-.18,0-.17s0-.09,0-.13h0a3.4,3.4,0,0,1-.05-.55Z"/><path class="cls-43" d="M380.26,61.76l10.07,3.61-1,2.75A3.44,3.44,0,0,1,385,70.18l-3.62-1.3a3.43,3.43,0,0,1-2.07-4.38Z"/><path class="cls-44" d="M382.29,62.49l2.06.74-5.27,2.5a3.39,3.39,0,0,1,.2-1.22l.26-.72Z"/><path class="cls-44" d="M385,63.48l4.17,1.5-8.1,3.83a3.44,3.44,0,0,1-2-2.53Z"/><rect class="cls-43" x="376.42" y="57.14" width="1.05" height="7.97" transform="translate(192.24 395.35) rotate(-70.28)"/><path class="cls-43" d="M366.12,56.69l10.06,3.61-1,2.75a3.43,3.43,0,0,1-4.38,2.07l-3.62-1.3a3.43,3.43,0,0,1-2.07-4.38Z"/><path class="cls-44" d="M368.15,57.42l2.06.74-5.27,2.5a3.4,3.4,0,0,1,.2-1.22l.26-.72Z"/><path class="cls-44" d="M370.91,58.41l4.17,1.49L367,63.73a3.44,3.44,0,0,1-2-2.53Z"/><path class="cls-45" d="M378.57,52.46a0,0,0,0,1,0,0c-.15.21-.4.61-.36.81a1.9,1.9,0,0,0,.48.73,0,0,0,0,1,0,0,1.83,1.83,0,0,0-.8-.36c-.19,0-.52.3-.71.49a0,0,0,0,1,0,0,1.41,1.41,0,0,0,.28-.75,1.66,1.66,0,0,0-.47-.8,0,0,0,0,1,0,0,2.32,2.32,0,0,0,.87.32C378,52.9,378.39,52.62,378.57,52.46Z"/><path class="cls-45" d="M368.1,51.74a0,0,0,0,1,0,0c-.08.24-.22.7-.13.87a1.9,1.9,0,0,0,.66.57,0,0,0,0,1,0,0,1.83,1.83,0,0,0-.87-.13c-.18,0-.42.43-.54.66a0,0,0,0,1,0,0,1.41,1.41,0,0,0,.06-.8,1.66,1.66,0,0,0-.67-.64,0,0,0,0,1,0,0,2.32,2.32,0,0,0,.92.07C367.72,52.3,368,51.94,368.1,51.74Z"/><path class="cls-45" d="M368.06,58.32a0,0,0,0,1,0,0c-.25,0-.71.15-.82.32a1.9,1.9,0,0,0-.18.85,0,0,0,0,1,0,0,1.83,1.83,0,0,0-.32-.82c-.13-.14-.58-.15-.85-.15a0,0,0,0,1,0,0,1.41,1.41,0,0,0,.73-.34,1.66,1.66,0,0,0,.23-.9,0,0,0,0,1,0,0,2.32,2.32,0,0,0,.39.84A1.56,1.56,0,0,0,368.06,58.32Z"/><path class="cls-45" d="M374.19,48.15a0,0,0,0,1,0,0c-.32.19-.89.56-1,.85a2.74,2.74,0,0,0,.2,1.24,0,0,0,0,1,0,0,2.65,2.65,0,0,0-.84-.95c-.25-.12-.86.09-1.22.23a0,0,0,0,1,0,0,2,2,0,0,0,.81-.83,2.4,2.4,0,0,0-.15-1.33,0,0,0,0,1,0,0,3.35,3.35,0,0,0,1,.93A2.26,2.26,0,0,0,374.19,48.15Z"/><path class="cls-45" d="M371.76,52.63a0,0,0,0,1,0,0,2,2,0,0,0,1.16.31,2.33,2.33,0,0,0,.93-.64,0,0,0,0,1,0,0,2.51,2.51,0,0,0-.4,1.13c0,.26.47.67.75.91a0,0,0,0,1,0,0,1.94,1.94,0,0,0-1.06-.29,2.27,2.27,0,0,0-1,.73,0,0,0,0,1,0,0,3.18,3.18,0,0,0,.33-1.22C372.42,53.29,372,52.86,371.76,52.63Z"/><path id="_Path_61" data-name="&lt;Path&gt;" class="cls-15" d="M382.7,79.48l-5.43-2.23s-4.43-2.51-5.11-4.28c-.79-2.06-1.64-4.67-1.49-5.19.4-1.38,6.87,4.4,6.87,4.4l6.28,1.21Z"/><rect id="_Rectangle_10" data-name="&lt;Rectangle&gt;" class="cls-15" x="416.12" y="60.83" width="5.52" height="13.4" rx="2.76" ry="2.76"/><rect id="_Rectangle_11" data-name="&lt;Rectangle&gt;" class="cls-33" x="396.84" y="69.6" width="8.19" height="34.12" rx="4.09" ry="4.09" transform="translate(80.3 -169.18) rotate(26.39)"/><path id="_Path_62" data-name="&lt;Path&gt;" class="cls-46" d="M430.39,70.07H409.07c-4.2,0-7.61,2.81-7.61,6.27l2.12,22.33-2.12,25.72H438s-2.28-20.14-2.28-26.85c0-5.3,2.28-21.2,2.28-21.2C438,72.87,434.59,70.07,430.39,70.07Z"/><path id="_Path_63" data-name="&lt;Path&gt;" class="cls-47" d="M407.14,37.13s-3.55-.72-3.55,6.5a31.57,31.57,0,0,0,.92,7.09l5.39-6.25,5.58-2.5-7-2.52Z"/><path id="_Path_64" data-name="&lt;Path&gt;" class="cls-9" d="M413.2,67.51c8.51.46,13-5.83,14.43-13.64,1.46-8.23-4-15-10.72-15.05-7.59,0-12,2.94-12.64,11.27-.39,5.23,1.18,15.72,8.93,17.43Z"/><g id="_Group_8" data-name="&lt;Group&gt;"><line id="_Path_65" data-name="&lt;Path&gt;" class="cls-10" x1="405.73" y1="49.81" x2="408.93" y2="49.65"/><path id="_Path_66" data-name="&lt;Path&gt;" class="cls-10" d="M405.65,50.34a.53.53,0,0,1,0-1.06l3.2-.16a.53.53,0,1,1,.05,1.07l-3.2.16Z"/></g><g id="_Group_9" data-name="&lt;Group&gt;"><line id="_Path_67" data-name="&lt;Path&gt;" class="cls-10" x1="414.44" y1="49.98" x2="417.64" y2="50.14"/><path id="_Path_68" data-name="&lt;Path&gt;" class="cls-10" d="M414.36,49.45a.53.53,0,0,0,0,1.06l3.2.16a.53.53,0,0,0,.05-1.07l-3.2-.16Z"/></g><circle id="_Path_69" data-name="&lt;Path&gt;" cx="414.58" cy="52.95" r="0.72"/><circle id="_Path_70" data-name="&lt;Path&gt;" cx="407.33" cy="52.95" r="0.72"/><polygon id="_Path_71" data-name="&lt;Path&gt;" class="cls-12" points="411.37 52.86 411.47 59.15 410.12 58.84 411.37 52.86"/><ellipse id="_Path_72" data-name="&lt;Path&gt;" class="cls-47" cx="429.14" cy="38.37" rx="4.36" ry="5.58" transform="translate(20.58 175.16) rotate(-23.62)"/><path id="_Path_73" data-name="&lt;Path&gt;" class="cls-48" d="M426.17,54.8s-3.74.7-3.24-3.3C420.9,51.19,411,47,407,37.23c2.52-5.11,7-5.8,11.86-5,7.2,1.21,14.83,6.63,10.6,20.59C429.15,53.88,427.19,54,426.17,54.8Z"/><g id="_Group_10" data-name="&lt;Group&gt;"><path id="_Path_74" data-name="&lt;Path&gt;" class="cls-9" d="M425,51.32a4,4,0,0,1,1.4-1.47c2.18-1.51,4.71-.29,3.74,2.3-.67,1.8-1.82,6.26-3.23,4.66A8.56,8.56,0,0,1,425,51.32Z"/><polygon id="_Path_75" data-name="&lt;Path&gt;" class="cls-12" points="426.7 51.58 429.56 51.1 427.41 55.02 428.13 51.79 426.7 51.58"/></g><circle id="_Path_76" data-name="&lt;Path&gt;" class="cls-49" cx="427.44" cy="57.37" r="1.3"/><path id="_Path_77" data-name="&lt;Path&gt;" class="cls-15" d="M427.38,71.74c0,3.86-3.81,7-8.51,7s-8.51-3.13-8.51-7a5.74,5.74,0,0,1,.25-1.68h16.52A5.74,5.74,0,0,1,427.38,71.74Z"/><path id="_Path_78" data-name="&lt;Path&gt;" class="cls-33" d="M377.38,77.46l6.44-4.07,14.25,22.92a3.81,3.81,0,0,1-1.19,5.26h0a3.81,3.81,0,0,1-5.26-1.19Z"/><rect id="_Rectangle_12" data-name="&lt;Rectangle&gt;" class="cls-46" x="377.46" y="75.09" width="7.54" height="2.83" transform="translate(746.9 -55.67) rotate(148.78)"/><path id="_Path_79" data-name="&lt;Path&gt;" class="cls-31" d="M411.83,63.52c2.06,0,3.87-1.12,3.87-2.39v-.3h-7.94v.3c0,1.16,1.21,2.39,3.46,2.39Z"/><polygon id="_Path_80" data-name="&lt;Path&gt;" class="cls-33" points="427.07 69.97 428.2 73.72 425.11 76.8 426.41 79.23 412.83 98.32 407.47 79.18 409.15 76.68 408.06 73.72 410.42 69.97 427.07 69.97"/><polygon id="_Path_81" data-name="&lt;Path&gt;" class="cls-50" points="411.93 69.97 414.32 91.99 425.11 69.97 411.93 69.97"/><rect id="_Rectangle_13" data-name="&lt;Rectangle&gt;" class="cls-33" x="432.19" y="73.72" width="8.19" height="34.12" rx="4.09" ry="4.09" transform="translate(-9.02 73.63) rotate(-9.55)"/><path id="_Path_82" data-name="&lt;Path&gt;" class="cls-33" d="M419.5,129.34l-6.36-6.13L435,100.83a4.42,4.42,0,0,1,6.25-.12h0a4.42,4.42,0,0,1,.12,6.25Z"/></g><circle class="cls-5" cx="268.14" cy="136.82" r="5.57"/><path id="_Path_83" data-name="&lt;Path&gt;" class="cls-51" d="M242.5,459.18v.06a2.45,2.45,0,0,0,2.45,2.45h36.46a1.23,1.23,0,0,0,1.24-1.24v-1.28Z"/><path class="cls-52" d="M368.83,256.17c-2.21-2.54-10.21-6.08-10.21-6.08l-11.2,2.12v0l-15.33-1.17.08-.82-16-1.39-14.29-28.79V220c0-5.56-5.48-10.07-12.23-10.07H278.38V205.6a23.66,23.66,0,0,0,4.68.2c12.45-2.73,15-19.59,14.35-28,0-.15,0-.29,0-.44a49.77,49.77,0,0,0,1.14-9.93c0-10.67-4.82-10.55-5.6-10.46-4.07-8-11.2-9.13-19-7.82a26.54,26.54,0,0,0-10.29,3.92,5.81,5.81,0,0,0-2.61-2.3c-3.55-1.55-8,.87-10,5.41s-.72,9.47,2.83,11a5.55,5.55,0,0,0,1.26.37,37.23,37.23,0,0,0,1.8,14.65c.32,1,1.67,1.52,3,2,1.37,7.31,4.46,13.75,9.55,17.65v8H255.45c-6.75,0-12.23,4.51-12.23,10.07,0,0,3.67,25.55,3.67,34.06,0,9.68-3,36.74-3.56,42.17h-.11v75.18h5.08v75.4H250V451a16.57,16.57,0,0,1-3.05-.58,1.24,1.24,0,0,0-1.59,1.19v8.12h.06a2.45,2.45,0,0,0,2.39,1.93h71.47a1.23,1.23,0,0,0,1.24-1.24V459a3.22,3.22,0,0,0-2.41-3.12l-21.37-5.57a6.15,6.15,0,0,0-1.81-.18v-3.29h2v-75.4h5V296.21h-.08l-3.33-40.36,1-11,6.58,13.25a6.54,6.54,0,0,0,2,2.37l.07.06.06,0a4.62,4.62,0,0,0,1.5.78,6.57,6.57,0,0,0,3,.36l18.09,1.54.17-1.71,20.8,1.59a2.6,2.6,0,0,0,2-.75l6.92-.68s11.51,5.94,11.34,3.4C372.07,264.2,371.4,259.13,368.83,256.17ZM281.65,446.79v3.62a1.23,1.23,0,0,0-1.24,1.23v3.47l-17.06-4.44v-3.88h2.13v-75.4h14.3v75.4Z"/><path id="_Path_84" data-name="&lt;Path&gt;" class="cls-51" d="M277.5,459.18v.06A2.45,2.45,0,0,0,280,461.7h36.46a1.23,1.23,0,0,0,1.24-1.24v-1.28Z"/><rect id="_Rectangle_14" data-name="&lt;Rectangle&gt;" class="cls-15" x="326.45" y="236.28" width="10.58" height="40.55" rx="4.5" ry="4.5" transform="translate(612.89 -54.61) rotate(94.38)"/><rect id="_Rectangle_15" data-name="&lt;Rectangle&gt;" class="cls-53" x="293.28" y="209.16" width="13.16" height="54.82" rx="6.58" ry="6.58" transform="translate(673.63 315.2) rotate(153.61)"/><path id="_Path_85" data-name="&lt;Path&gt;" class="cls-53" d="M328,263.29l1.31-13.05-20.34-1.77c-2.93-.28-5.59,2.42-5.93,6h0c-.35,3.62,1.75,6.78,4.68,7.06Z"/><path id="_Path_86" data-name="&lt;Path&gt;" class="cls-51" d="M253.79,398.69h0a6.65,6.65,0,0,0-6.65,6.65v47.14a6.65,6.65,0,0,0,6.65,6.65h0a6.65,6.65,0,0,0,6.65-6.65V405.35A6.65,6.65,0,0,0,253.79,398.69Z"/><path id="_Rectangle_16" data-name="&lt;Rectangle&gt;" class="cls-33" d="M245.4,296.35h17.17a0,0,0,0,1,0,0V439.79a7,7,0,0,1-7,7H252.4a7,7,0,0,1-7-7V296.35a0,0,0,0,1,0,0Z" transform="translate(507.97 743.14) rotate(180)"/><path id="_Path_87" data-name="&lt;Path&gt;" class="cls-54" d="M242.5,451.65v8.12h40.15V459a3.22,3.22,0,0,0-2.41-3.12l-21.37-5.57a6,6,0,0,0-3,0c-5.71,1.48-9.72.82-11.78.21A1.24,1.24,0,0,0,242.5,451.65Z"/><line id="_Path_88" data-name="&lt;Path&gt;" class="cls-54" x1="280.23" y1="455.83" x2="258.86" y2="450.27"/><path id="_Path_89" data-name="&lt;Path&gt;" class="cls-51" d="M285.4,398.69h0a6.65,6.65,0,0,1,6.65,6.65v47.14a6.65,6.65,0,0,1-6.65,6.65h0a6.65,6.65,0,0,1-6.65-6.65V405.35A6.65,6.65,0,0,1,285.4,398.69Z"/><path id="_Rectangle_17" data-name="&lt;Rectangle&gt;" class="cls-33" d="M276.87,296.35H294a0,0,0,0,1,0,0V439.79a7,7,0,0,1-7,7h-3.17a7,7,0,0,1-7-7V296.35a0,0,0,0,1,0,0Z" transform="translate(570.91 743.14) rotate(180)"/><path id="_Path_90" data-name="&lt;Path&gt;" class="cls-28" d="M252.55,209.9h34.25c6.75,0,12.23,4.51,12.23,10.07l-3.41,35.88L299,297.17H240.32S244,264.82,244,254c0-8.52-3.67-34.06-3.67-34.06C240.32,214.41,245.79,209.9,252.55,209.9Z"/><rect id="_Rectangle_18" data-name="&lt;Rectangle&gt;" class="cls-15" x="266.61" y="195.07" width="8.87" height="21.52" rx="3.61" ry="3.61" transform="translate(542.09 411.66) rotate(180)"/><path id="_Path_91" data-name="&lt;Path&gt;" class="cls-47" d="M289.9,157s5.71-1.16,5.71,10.45a50.72,50.72,0,0,1-1.48,11.39l-8.66-10-9-4,11.21-4Z"/><path id="_Path_92" data-name="&lt;Path&gt;" class="cls-9" d="M280.16,205.8c-13.67.73-20.94-9.37-23.18-21.92-2.35-13.22,6.5-24.15,17.22-24.18,12.2,0,19.31,4.72,20.31,18.11.63,8.41-1.9,25.26-14.35,28Z"/><g id="_Group_11" data-name="&lt;Group&gt;"><line id="_Path_93" data-name="&lt;Path&gt;" class="cls-10" x1="292.13" y1="178.04" x2="287.06" y2="178.96"/><path id="_Path_94" data-name="&lt;Path&gt;" class="cls-10" d="M292.44,178.84a.86.86,0,0,0-.46-1.65l-5.07.92a.86.86,0,1,0,.31,1.69l5.07-.92Z"/></g><g id="_Group_12" data-name="&lt;Group&gt;"><line id="_Path_95" data-name="&lt;Path&gt;" class="cls-10" x1="281.27" y1="179.07" x2="276.15" y2="178.5"/><path id="_Path_96" data-name="&lt;Path&gt;" class="cls-10" d="M281.52,178.25a.86.86,0,0,1-.35,1.67l-5.12-.57a.86.86,0,1,1,.19-1.71l5.12.57Z"/></g><circle id="_Path_97" data-name="&lt;Path&gt;" cx="277.95" cy="182.76" r="1.16"/><circle id="_Path_98" data-name="&lt;Path&gt;" cx="290.35" cy="183.16" r="1.16"/><polygon id="_Path_99" data-name="&lt;Path&gt;" class="cls-12" points="283.1 182.27 282.94 192.36 285.11 191.87 283.1 182.27"/><ellipse id="_Path_100" data-name="&lt;Path&gt;" class="cls-47" cx="254.56" cy="158.99" rx="8.97" ry="7.01" transform="translate(6.9 328.51) rotate(-66.38)"/><path id="_Path_101" data-name="&lt;Path&gt;" class="cls-48" d="M259.33,185.38s6,1.12,5.2-5.3c3.26-.51,19.16-7.24,25.58-22.93-4-8.2-11.24-9.32-19.06-8-11.56,1.95-23.83,10.65-17,33.07C254.53,183.9,257.69,184.11,259.33,185.38Z"/><path id="_Path_102" data-name="&lt;Path&gt;" class="cls-46" d="M287.26,212.6c0,7.59-7.28,13.77-16.22,13.77s-16.22-6.18-16.22-13.77a11.82,11.82,0,0,1,.31-2.69H287A11.82,11.82,0,0,1,287.26,212.6Z"/><path id="_Path_103" data-name="&lt;Path&gt;" class="cls-15" d="M257.38,212.6c0,6.2,6.12,11.22,13.67,11.22s13.67-5,13.67-11.22a9.22,9.22,0,0,0-.4-2.69H257.77A9.22,9.22,0,0,0,257.38,212.6Z"/><rect class="cls-28" x="240.32" y="296.21" width="58.71" height="75.18" transform="translate(539.34 667.6) rotate(180)"/><rect id="_Rectangle_19" data-name="&lt;Rectangle&gt;" class="cls-53" x="227.99" y="179.86" width="13.16" height="54.82" rx="6.58" ry="6.58" transform="translate(545.92 239.63) rotate(144.47)"/><path id="_Path_104" data-name="&lt;Path&gt;" class="cls-54" d="M277.5,451.65v8.12h40.15V459a3.22,3.22,0,0,0-2.41-3.12l-21.37-5.57a6,6,0,0,0-3,0c-5.71,1.48-9.72.82-11.78.21A1.24,1.24,0,0,0,277.5,451.65Z"/><rect id="_Rectangle_20" data-name="&lt;Rectangle&gt;" class="cls-15" x="206.36" y="142.69" width="10.58" height="40.55" rx="4.5" ry="4.5" transform="translate(-42.51 80.76) rotate(-19.67)"/><path id="_Path_105" data-name="&lt;Path&gt;" class="cls-53" d="M221,168.94l-12.23,4.74,7.63,18.94c1.08,2.74,4.69,3.88,8.07,2.56h0c3.38-1.33,5.25-4.63,4.17-7.37Z"/><path id="_Path_106" data-name="&lt;Path&gt;" class="cls-52" d="M201.37,150.56,196,140.47s1-8.69,2.81-11.54c2.07-3.32,6.73-5.45,7.62-5.79,2.38-.9.09,11.84.09,11.84l4.37,10.45Z"/><path id="_Path_107" data-name="&lt;Path&gt;" class="cls-15" d="M202.45,152.95l-6.89-9.08s-.4-8.74.89-11.85c1.5-3.62,5.75-6.48,6.57-7,2.2-1.28,2,11.67,2,11.67l6,9.6Z"/><path id="_Path_108" data-name="&lt;Path&gt;" class="cls-15" d="M344.53,252.21l11.2-2.12s8,3.54,10.21,6.08c2.57,3,3.24,8,3.3,9,.16,2.54-11.34-3.4-11.34-3.4l-11.28,1.1Z"/><g id="_Group_13" data-name="&lt;Group&gt;" class="cls-21"><path id="_Path_109" data-name="&lt;Path&gt;" class="cls-55" d="M260.58,180.95a6.48,6.48,0,0,0-2.25-2.36c-3.49-2.42-7.56-.46-6,3.69,1.08,2.9,2.93,10.06,5.19,7.48A13.76,13.76,0,0,0,260.58,180.95Z"/><polygon id="_Path_110" data-name="&lt;Path&gt;" class="cls-55" points="257.89 181.37 253.3 180.59 256.76 186.89 255.6 181.7 257.89 181.37"/></g><g id="_Group_14" data-name="&lt;Group&gt;"><path id="_Path_111" data-name="&lt;Path&gt;" class="cls-9" d="M261.16,179.79a6.48,6.48,0,0,0-2.25-2.36c-3.49-2.42-7.56-.46-6,3.69,1.08,2.9,2.93,10.06,5.19,7.48A13.76,13.76,0,0,0,261.16,179.79Z"/><polygon id="_Path_112" data-name="&lt;Path&gt;" class="cls-12" points="258.47 180.21 253.88 179.44 257.34 185.73 256.18 180.54 258.47 180.21"/></g><circle id="_Path_113" data-name="&lt;Path&gt;" class="cls-46" cx="257.29" cy="189.51" r="2.09"/><ellipse class="cls-36" cx="284.02" cy="197.56" rx="3.19" ry="2.06"/><circle class="cls-23" cx="449.63" cy="84.97" r="21.75"/><path class="cls-56" d="M446.88,62.08a21.75,21.75,0,1,1-21.75,21.75,21.75,21.75,0,0,1,21.75-21.75Z"/><path class="cls-57" d="M446.3,93.31l1.95-1.95a1.27,1.27,0,0,0,.19-.23l12.89-12.89a1.38,1.38,0,0,0,0-1.95l-1.95-1.95a1.38,1.38,0,0,0-1.95,0L445.3,86.48l-6.16-6.13a1.38,1.38,0,0,0-1.95,0l-1.95,1.95a1.38,1.38,0,0,0,0,1.95l6.94,6.91a1.27,1.27,0,0,0,.17.2l1.95,1.95a1.37,1.37,0,0,0,1,.4h0a1.37,1.37,0,0,0,1-.4Z"/></svg>