<svg id="Layer_1" data-name="Layer 1" xmlns="http://www.w3.org/2000/svg" viewBox="0 0 708.66 481.89"><defs><style>.cls-1{fill:#d6d4d2;}.cls-2{fill:#fff;}.cls-3{fill:#ffd833;}.cls-4{fill:#161515;opacity:0.05;}.cls-5{fill:#c68f66;}.cls-6{fill:#966b4e;}.cls-7{fill:#743e18;}.cls-8{fill:#f1d029;}.cls-9{fill:#ededed;}.cls-10{fill:#ef402d;}.cls-11{fill:#8fa92c;}.cls-12{fill:#de9a51;}.cls-13{fill:#efdebd;}.cls-14{fill:#eac31c;}.cls-15{fill:#e0e0e0;}.cls-16{fill:#e2392b;}.cls-17{fill:#cc8c4c;}.cls-18{fill:#e5c99c;}.cls-19{fill:#e0ac89;}.cls-20{fill:#9ebadd;}.cls-21{fill:none;stroke:#727272;stroke-linecap:round;stroke-linejoin:round;stroke-width:3px;}.cls-22{font-size:24px;fill:#fcfcfc;font-family:Impact, Impact;}.cls-23{letter-spacing:-0.04em;}.cls-24{letter-spacing:-0.06em;}.cls-25{letter-spacing:0.02em;}</style></defs><title>CS-L2-U3</title><rect class="cls-1" x="379.6" y="83.56" width="298.99" height="188.6" rx="76.42" ry="76.42"/><path class="cls-2" d="M559.78,129.71a32.4,32.4,0,0,0-7,.79,37.3,37.3,0,0,0-51.38-9.87,45.37,45.37,0,0,0-37.2-19.52c-25.21,0-45.65,20.77-45.65,46.39,0,0,0,0,0,.07H588.88A32.83,32.83,0,0,0,559.78,129.71Z"/><path class="cls-2" d="M511.87,197.2a23.66,23.66,0,0,1,5.14.57,27.24,27.24,0,0,1,37.52-7.21A33.13,33.13,0,0,1,581.7,176.3c18.41,0,33.34,15.17,33.34,33.88,0,0,0,0,0,.05H490.62A24,24,0,0,1,511.87,197.2Z"/><circle class="cls-3" cx="117.82" cy="149.45" r="79.79"/><path class="cls-4" d="M310.22,177.81c9.48-5.55,0-8,0-8H308.7c-2.35-33.48-46-60.17-99.56-60.17s-97.31,26.75-99.57,60.28l-3.41.84c-3.16,2.49.35,9.76,8.08,9.76a13.89,13.89,0,0,0,2.16-.14,13.49,13.49,0,0,0,3,21.4l-5.84,2.94,4.41.47a13.49,13.49,0,0,0,6.16,25.25l-9.37,2.19,2.58,1.44A13.46,13.46,0,0,0,112,244.77h0a13.5,13.5,0,0,0,8.09,12.37l-6.55,3.3,4.41.47a13.49,13.49,0,0,0-3.83,20.36h-6.27l-3.86,1c-3.06,2.41.15,9.28,7.36,9.72a13.53,13.53,0,0,0-.3,2.83h0a13.48,13.48,0,0,0,5.89,11.15l-5,2.53,4.37.56a13.48,13.48,0,0,0-6.63,11.61h0a13.5,13.5,0,0,0,10.6,13.18l-6.72,1.57,2.78,1.55a13.46,13.46,0,0,0-5.28,10.7h0a13.49,13.49,0,0,0,8,12.31l-6.66,3.36,4.28.62a13.48,13.48,0,0,0-6.54,11.55h0a13.49,13.49,0,0,0,12.87,13.47l-9.42,2.2,2.55,1.73A13.47,13.47,0,0,0,111,403.36h0A13.47,13.47,0,0,0,116,413.8c-1.8,2.34-2.1,5.32-.5,6.75l.66.19a5.34,5.34,0,0,0-1.22,3.38h0a30.22,30.22,0,0,0,30.22,30.22H272.67a30.22,30.22,0,0,0,30.22-30.22h0a5.34,5.34,0,0,0-1.33-3.51c1.87-1.19,3.62-3.57-2-7.29a13.45,13.45,0,0,0,4.4-10h0a13.49,13.49,0,0,0-6.91-11.78l4.41-.47-6.55-3.3a13.5,13.5,0,0,0,8.09-12.37h0a13.46,13.46,0,0,0-5.32-10.72l2.58-1.44-9.37-2.19A13.49,13.49,0,0,0,304,347.61h0a13.49,13.49,0,0,0-6.91-11.78l4.41-.47-5.84-2.94a13.49,13.49,0,0,0,7-11.81h0a13.46,13.46,0,0,0-5.42-10.8l2.68-1.37-4.58-1.07a13.49,13.49,0,0,0,8.7-12.6h0a13.48,13.48,0,0,0-.51-3.64,11.84,11.84,0,0,0,4.51-1.82c9.48-5.55,0-8,0-8h-7.08a13.49,13.49,0,0,0-2-19.1l2.55-1.73-9.42-2.2A13.49,13.49,0,0,0,305,244.77h0a13.48,13.48,0,0,0-6.54-11.55l4.28-.62L296,229.25a13.48,13.48,0,0,0,2.69-23l2.78-1.55-6.72-1.57a13.49,13.49,0,0,0,4-24.79l2.82-.36C304,179.6,305.06,180.83,310.22,177.81Z"/><polygon class="cls-5" points="634.64 403.55 410.14 403.55 396.14 229.75 646.64 229.75 634.64 403.55"/><polygon class="cls-6" points="621.18 432.69 423.37 432.69 411.04 238.97 631.75 238.97 621.18 432.69"/><rect class="cls-7" x="106.01" y="389.86" width="193" height="27" rx="13.5" ry="13.5" transform="translate(405.03 806.73) rotate(180)"/><polygon class="cls-8" points="108.52 391.11 134.06 408.45 296.51 391.11 237.01 361.11 108.52 391.11"/><ellipse class="cls-9" cx="173.47" cy="376.96" rx="33.5" ry="17.25"/><ellipse class="cls-9" cx="144.86" cy="392.3" rx="20.7" ry="10.66"/><rect class="cls-7" x="105.06" y="361.95" width="193" height="27" rx="13.5" ry="13.5" transform="translate(403.12 750.89) rotate(-180)"/><polygon class="cls-8" points="295.32 363.28 256.82 384.78 107.32 363.28 166.82 333.28 295.32 363.28"/><ellipse class="cls-10" cx="212.49" cy="355.7" rx="33.5" ry="17.25"/><rect class="cls-7" x="106.01" y="334.11" width="193" height="27" rx="13.5" ry="13.5" transform="translate(405.03 695.23) rotate(-180)"/><polygon class="cls-8" points="108.52 335.36 138.92 352.34 296.51 335.36 237.01 305.36 108.52 335.36"/><ellipse class="cls-9" cx="156.97" cy="325.78" rx="33.5" ry="17.25"/><ellipse class="cls-9" cx="206.97" cy="331.11" rx="20.7" ry="10.66"/><rect class="cls-7" x="104.63" y="307.11" width="193" height="27" rx="13.5" ry="13.5" transform="translate(402.27 641.23) rotate(180)"/><polygon class="cls-8" points="294.9 308.45 257.26 327.7 106.9 308.45 166.4 278.45 294.9 308.45"/><ellipse class="cls-10" cx="235.06" cy="304.2" rx="33.5" ry="17.25"/><rect class="cls-7" x="106.01" y="281.27" width="193" height="27" rx="13.5" ry="13.5"/><polygon class="cls-8" points="108.75 282.61 134.63 302.94 296.75 282.61 237.25 252.61 108.75 282.61"/><path class="cls-11" d="M102.82,281.27H303s9.48,2.49,0,8-5.27-3.25-20.37-2.49-7.73,6.5-20,6.89-12.29-5.36-25.29-5.36-.7,9.09-16.68,9.09-18.09-8.08-32.14-8.08-15.1,7-33,7-8.78-8-28.45-8S114.76,292,107,292,95.8,284.72,99,282.23Z"/><rect class="cls-7" x="106.01" y="259.19" width="193" height="27" rx="13.5" ry="13.5"/><polygon class="cls-8" points="296.51 260.44 270.97 277.77 108.52 260.44 168.01 230.44 296.51 260.44"/><ellipse class="cls-9" cx="231.56" cy="246.28" rx="33.5" ry="17.25"/><ellipse class="cls-9" cx="260.17" cy="261.63" rx="20.7" ry="10.66"/><rect class="cls-7" x="106.97" y="231.27" width="193" height="27" rx="13.5" ry="13.5"/><polygon class="cls-8" points="109.71 232.61 148.21 254.11 297.71 232.61 238.21 202.61 109.71 232.61"/><ellipse class="cls-10" cx="192.54" cy="225.03" rx="33.5" ry="17.25"/><rect class="cls-7" x="106.01" y="203.44" width="193" height="27" rx="13.5" ry="13.5"/><path class="cls-11" d="M113.94,421.54H294.58s8.56-2.55,0-8.24-4.75,3.34-18.38,2.55-7-6.67-18.06-7.07-11.09,5.5-22.82,5.5-.63-9.32-15.05-9.32-16.32,8.29-29,8.29S177.64,406,161.48,406s-7.92,8.24-25.67,8.24-11.09-3.73-18.06-3.73-10.14,7.46-7.29,10Z"/><polygon class="cls-8" points="296.51 204.69 266.11 221.67 108.52 204.69 168.01 174.69 296.51 204.69"/><ellipse class="cls-9" cx="248.06" cy="195.11" rx="33.5" ry="17.25"/><ellipse class="cls-9" cx="198.06" cy="200.44" rx="20.7" ry="10.66"/><rect class="cls-7" x="107.39" y="176.44" width="193" height="27" rx="13.5" ry="13.5"/><polygon class="cls-8" points="110.13 177.77 147.76 197.03 298.13 177.77 238.63 147.77 110.13 177.77"/><ellipse class="cls-10" cx="169.97" cy="173.52" rx="33.5" ry="17.25"/><path class="cls-12" d="M115.28,418.73H292.51a5.39,5.39,0,0,1,5.39,5.39v0a30.22,30.22,0,0,1-30.22,30.22H140.12a30.22,30.22,0,0,1-30.22-30.22v0a5.39,5.39,0,0,1,5.39-5.39Z"/><path class="cls-11" d="M105,169.77h200.2s9.48,2.49,0,8-5.27-3.25-20.37-2.49-7.73,6.5-20,6.89-12.29-5.36-25.29-5.36-.7,9.09-16.68,9.09-18.09-8.08-32.14-8.08-15.1,7-33,7-8.78-8-28.45-8-12.29,3.64-20,3.64-11.24-7.27-8.08-9.76Z"/><path class="cls-12" d="M104.47,172.61c0-34.79,44.62-63,99.67-63s99.67,28.21,99.67,63"/><path class="cls-13" d="M119.61,160.32a1.67,1.67,0,1,1-1.82,2.8c-.77-.5-2.72-3.19-2.46-3.59S118.84,159.82,119.61,160.32Z"/><path class="cls-13" d="M179.75,155.19a1.67,1.67,0,1,1-1.82,2.8c-.77-.5-2.72-3.19-2.46-3.59S179,154.69,179.75,155.19Z"/><path class="cls-13" d="M145.56,130.83a1.67,1.67,0,1,1-1.82,2.8c-.77-.5-2.72-3.19-2.46-3.59S144.79,130.33,145.56,130.83Z"/><path class="cls-13" d="M167.44,121.26a1.67,1.67,0,0,1-1.82,2.8c-.77-.5-2.72-3.19-2.46-3.59S166.67,120.76,167.44,121.26Z"/><path class="cls-13" d="M204.24,116.74a1.67,1.67,0,0,1,2.95-1.56c.43.81.82,4.11.4,4.33S204.67,117.56,204.24,116.74Z"/><path class="cls-13" d="M145.31,158.34a1.67,1.67,0,1,1-3.14-1.14c.31-.87,2.49-3.37,2.94-3.21S145.63,157.47,145.31,158.34Z"/><path class="cls-13" d="M227.57,124a1.67,1.67,0,1,1-3.14-1.14c.31-.87,2.49-3.37,2.94-3.21S227.88,123.11,227.57,124Z"/><path class="cls-13" d="M159.08,142.88a1.67,1.67,0,1,1,3-1.49c.41.82.73,4.13.31,4.34S159.49,143.7,159.08,142.88Z"/><path class="cls-13" d="M272.1,138.4a1.67,1.67,0,1,1-3.14-1.14c.31-.87,2.49-3.37,2.94-3.21S272.42,137.54,272.1,138.4Z"/><path class="cls-13" d="M190.65,130.69a1.67,1.67,0,1,1-3.14-1.14c.31-.87,2.49-3.37,2.94-3.21S191,129.83,190.65,130.69Z"/><path class="cls-13" d="M220.23,161.39a1.67,1.67,0,1,1,2.69-2c.54.74,1.4,4,1,4.23S220.78,162.13,220.23,161.39Z"/><path class="cls-13" d="M289.49,165a1.67,1.67,0,0,1-3.14-1.14c.31-.87,2.49-3.37,2.94-3.21S289.81,164.15,289.49,165Z"/><path class="cls-13" d="M158.28,165.85a1.67,1.67,0,0,1-1.84-2.78c.77-.51,4-1.22,4.27-.83S159,165.35,158.28,165.85Z"/><path class="cls-13" d="M132.45,144.13a1.67,1.67,0,0,1,2.78,1.84c-.51.77-3.22,2.69-3.61,2.43S131.94,144.9,132.45,144.13Z"/><path class="cls-13" d="M190,144.25a1.67,1.67,0,0,1,3.33.19c-.05.92-1.42,3.95-1.89,3.92S190,145.17,190,144.25Z"/><path class="cls-13" d="M177.84,136.94a1.67,1.67,0,0,1-3.07,1.31c-.36-.85-.48-4.17,0-4.35S177.48,136.1,177.84,136.94Z"/><path class="cls-13" d="M207.47,136.14a1.67,1.67,0,1,1-2.62-2.06c.57-.72,3.42-2.43,3.79-2.13S208,135.41,207.47,136.14Z"/><path class="cls-13" d="M203.23,159.44a1.67,1.67,0,1,1-3.33,0c0-.92,1.2-4,1.67-4S203.23,158.51,203.23,159.44Z"/><path class="cls-13" d="M220.43,145.15a1.67,1.67,0,1,1-3.33,0c0-.92,1.2-4,1.67-4S220.43,144.23,220.43,145.15Z"/><path class="cls-13" d="M247.71,128.76a1.67,1.67,0,1,1,3-1.49c.41.82.73,4.13.31,4.34S248.12,129.58,247.71,128.76Z"/><path class="cls-13" d="M267.09,147.9a1.67,1.67,0,1,1-2.47,2.24c-.62-.68-1.82-3.78-1.47-4.1S266.47,147.22,267.09,147.9Z"/><path class="cls-13" d="M241.72,158.38a1.67,1.67,0,1,1-3.07-1.3c.36-.85,2.67-3.24,3.1-3.05S242.08,157.54,241.72,158.38Z"/><path class="cls-13" d="M285.85,149.2a1.67,1.67,0,0,1-3.33.24c-.07-.92.9-4.1,1.37-4.13S285.78,148.29,285.85,149.2Z"/><path class="cls-13" d="M240.08,140.61a1.67,1.67,0,1,1,2,2.67c-.74.55-3.93,1.46-4.22,1.08S239.34,141.16,240.08,140.61Z"/><path class="cls-13" d="M257.82,161.84a1.67,1.67,0,0,1-3.33,0c0-.92,1.2-4,1.67-4S257.82,160.92,257.82,161.84Z"/><rect class="cls-7" x="425.66" y="360.41" width="193" height="27" rx="13.5" ry="13.5"/><polygon class="cls-14" points="616.16 361.66 585.76 378.64 428.16 361.66 487.66 331.66 616.16 361.66"/><ellipse class="cls-15" cx="567.71" cy="352.08" rx="33.5" ry="17.25"/><ellipse class="cls-15" cx="517.71" cy="357.41" rx="20.7" ry="10.66"/><rect class="cls-7" x="427.04" y="333.41" width="193" height="27" rx="13.5" ry="13.5"/><polygon class="cls-14" points="429.78 334.74 467.41 354 617.78 334.74 558.28 304.74 429.78 334.74"/><ellipse class="cls-16" cx="489.62" cy="330.49" rx="33.5" ry="17.25"/><path class="cls-12" d="M424.11,334.58c0-34.79,44.62-63,99.67-63s99.67,28.21,99.67,63"/><path class="cls-17" d="M523.94,271.58c-34.76,0-65.35,11.25-83.19,28.3,46-11.28,127.41-8.69,166.76.37C589.73,283,558.95,271.58,523.94,271.58Z"/><path class="cls-18" d="M439.26,322.29a1.67,1.67,0,0,1-1.82,2.8c-.77-.5-2.72-3.19-2.46-3.59S438.49,321.79,439.26,322.29Z"/><path class="cls-18" d="M499.4,317.16a1.67,1.67,0,1,1-1.82,2.8c-.77-.5-2.72-3.19-2.46-3.59S498.62,316.66,499.4,317.16Z"/><path class="cls-18" d="M465.21,292.8a1.67,1.67,0,1,1-1.82,2.8c-.77-.5-2.72-3.19-2.46-3.59S464.44,292.3,465.21,292.8Z"/><path class="cls-18" d="M487.09,283.23a1.67,1.67,0,0,1-1.82,2.8c-.77-.5-2.72-3.19-2.46-3.59S486.32,282.73,487.09,283.23Z"/><path class="cls-18" d="M523.88,278.71a1.67,1.67,0,0,1,2.95-1.56c.43.81.82,4.11.4,4.33S524.31,279.53,523.88,278.71Z"/><path class="cls-18" d="M465,320.31a1.67,1.67,0,0,1-3.14-1.14c.31-.87,2.49-3.37,2.94-3.21S465.28,319.44,465,320.31Z"/><path class="cls-18" d="M547.21,285.94a1.67,1.67,0,1,1-3.14-1.14c.31-.87,2.49-3.37,2.94-3.21S547.53,285.08,547.21,285.94Z"/><path class="cls-18" d="M478.72,304.85a1.67,1.67,0,1,1,3-1.49c.41.82.73,4.13.31,4.34S479.14,305.67,478.72,304.85Z"/><path class="cls-18" d="M591.75,300.37a1.67,1.67,0,1,1-3.14-1.14c.31-.87,2.49-3.37,2.94-3.21S592.06,299.51,591.75,300.37Z"/><path class="cls-18" d="M510.3,292.66a1.67,1.67,0,0,1-3.14-1.14c.31-.87,2.49-3.37,2.94-3.21S510.61,291.8,510.3,292.66Z"/><path class="cls-18" d="M539.88,323.36a1.67,1.67,0,1,1,2.69-2c.54.74,1.4,4,1,4.23S540.42,324.1,539.88,323.36Z"/><path class="cls-18" d="M609.14,327a1.67,1.67,0,1,1-3.14-1.14c.31-.87,2.49-3.37,2.94-3.21S609.45,326.12,609.14,327Z"/><path class="cls-18" d="M477.93,327.82a1.67,1.67,0,0,1-1.84-2.78c.77-.51,4-1.22,4.27-.83S478.7,327.32,477.93,327.82Z"/><path class="cls-18" d="M452.1,306.1a1.67,1.67,0,0,1,2.78,1.84c-.51.77-3.22,2.69-3.61,2.43S451.59,306.87,452.1,306.1Z"/><path class="cls-18" d="M509.67,306.22a1.67,1.67,0,0,1,3.33.19c-.05.92-1.42,3.95-1.89,3.92S509.61,307.14,509.67,306.22Z"/><path class="cls-18" d="M497.49,298.91a1.67,1.67,0,1,1-3.07,1.31c-.36-.85-.48-4.17,0-4.35S497.13,298.07,497.49,298.91Z"/><path class="cls-18" d="M527.12,298.11a1.67,1.67,0,1,1-2.62-2.06c.57-.72,3.42-2.43,3.79-2.13S527.68,297.38,527.12,298.11Z"/><path class="cls-18" d="M522.88,321.41a1.67,1.67,0,1,1-3.33,0c0-.92,1.2-4,1.67-4S522.88,320.48,522.88,321.41Z"/><path class="cls-18" d="M540.08,307.12a1.67,1.67,0,0,1-3.33,0c0-.92,1.2-4,1.67-4S540.08,306.2,540.08,307.12Z"/><path class="cls-18" d="M567.36,290.73a1.67,1.67,0,1,1,3-1.49c.41.82.73,4.13.31,4.34S567.77,291.55,567.36,290.73Z"/><path class="cls-18" d="M586.73,309.87a1.67,1.67,0,0,1-2.47,2.24c-.62-.68-1.82-3.78-1.47-4.1S586.12,309.19,586.73,309.87Z"/><path class="cls-18" d="M561.36,320.35a1.67,1.67,0,0,1-3.07-1.3c.36-.85,2.67-3.24,3.1-3.05S561.72,319.51,561.36,320.35Z"/><path class="cls-18" d="M605.49,311.17a1.67,1.67,0,0,1-3.33.24c-.07-.92.9-4.1,1.37-4.13S605.43,310.26,605.49,311.17Z"/><path class="cls-18" d="M559.72,302.58a1.67,1.67,0,1,1,2,2.67c-.74.55-3.93,1.46-4.22,1.08S559,303.13,559.72,302.58Z"/><path class="cls-18" d="M577.46,323.81a1.67,1.67,0,1,1-3.33,0c0-.92,1.2-4,1.67-4S577.46,322.89,577.46,323.81Z"/><path class="cls-12" d="M433,387H610.27a5.39,5.39,0,0,1,5.39,5.39v0a30.22,30.22,0,0,1-30.22,30.22H457.88a30.22,30.22,0,0,1-30.22-30.22v0A5.39,5.39,0,0,1,433,387Z"/><polygon class="cls-4" points="646.64 455.55 396.14 455.55 427.04 397.55 621.83 397.55 646.64 455.55"/><rect class="cls-19" x="396.14" y="403.55" width="250.5" height="58"/><rect class="cls-20" x="109.89" y="32.85" width="190.5" height="28.89"/><rect class="cls-20" x="421.81" y="32.85" width="190.5" height="28.89"/><line class="cls-21" x1="360.83" y1="66.91" x2="360.83" y2="430.95"/><text class="cls-22" transform="translate(141.26 56.91)">EXPEC<tspan class="cls-23" x="56.86" y="0">T</tspan><tspan class="cls-24" x="66.96" y="0">A</tspan><tspan x="77.82" y="0">TIONS</tspan></text><text class="cls-22" transform="translate(478.79 56.91)">REALI<tspan class="cls-25" x="51.13" y="0">T</tspan><tspan x="62.79" y="0">Y</tspan></text><path class="cls-2" d="M285.25,301.24c-17,3.39-19.71,6.14-23.1,23.1-3.39-17-6.14-19.71-23.1-23.1,17-3.39,19.71-6.14,23.1-23.1C265.55,295.1,268.29,297.85,285.25,301.24Z"/><path class="cls-2" d="M189.25,428.72c-11.59,2.32-13.46,4.19-15.78,15.78-2.32-11.59-4.19-13.46-15.78-15.78,11.59-2.32,13.46-4.19,15.78-15.78C175.78,424.52,177.66,426.4,189.25,428.72Z"/><path class="cls-2" d="M238.44,116c-10.57,2.11-12.28,3.83-14.39,14.39-2.11-10.57-3.83-12.28-14.39-14.39,10.57-2.11,12.28-3.83,14.39-14.39C226.16,112.14,227.87,113.85,238.44,116Z"/><path class="cls-2" d="M144.94,216.43c-16.93,3.39-19.68,6.13-23.07,23.07-3.39-16.93-6.13-19.68-23.07-23.07,16.93-3.39,19.68-6.13,23.07-23.07C125.26,210.3,128,213,144.94,216.43Z"/><path class="cls-2" d="M174.92,99c-12.26,2.45-14.25,4.44-16.7,16.7-2.45-12.26-4.44-14.25-16.7-16.7,12.26-2.45,14.25-4.44,16.7-16.7C160.67,94.6,162.66,96.59,174.92,99Z"/><line class="cls-21" x1="433.63" y1="186.4" x2="433.63" y2="192.06"/><line class="cls-21" x1="433.63" y1="159.25" x2="433.63" y2="175.65"/><line class="cls-21" x1="441.34" y1="166.63" x2="441.34" y2="204.54"/><line class="cls-21" x1="525.24" y1="201.39" x2="525.24" y2="207.04"/><line class="cls-21" x1="525.24" y1="174.23" x2="525.24" y2="190.64"/><line class="cls-21" x1="532.95" y1="181.61" x2="532.95" y2="219.53"/><line class="cls-21" x1="465.58" y1="203.61" x2="465.58" y2="209.27"/><line class="cls-21" x1="465.58" y1="176.46" x2="465.58" y2="192.86"/><line class="cls-21" x1="457.87" y1="183.84" x2="457.87" y2="221.76"/><line class="cls-21" x1="568.25" y1="181.07" x2="568.25" y2="186.73"/><line class="cls-21" x1="568.25" y1="153.92" x2="568.25" y2="170.32"/><line class="cls-21" x1="560.54" y1="161.3" x2="560.54" y2="199.22"/><line class="cls-21" x1="511.94" y1="181.9" x2="511.94" y2="216.1"/><line class="cls-21" x1="505.61" y1="157.88" x2="505.61" y2="195.25"/></svg>