<svg id="Layer_1" data-name="Layer 1" xmlns="http://www.w3.org/2000/svg" viewBox="0 0 708.66 481.89"><defs><style>.cls-1{fill:#f4d99d;fill-rule:evenodd;opacity:0.72;}.cls-15,.cls-2{fill:#fff;}.cls-14,.cls-3,.cls-5{fill:#070707;}.cls-14,.cls-3,.cls-4{opacity:0.05;}.cls-6{fill:#fec82b;}.cls-7{fill:#8ba9cc;}.cls-11,.cls-8{opacity:0.4;}.cls-11,.cls-9{fill:#e1e3e5;}.cls-10{fill:none;stroke:#eaedef;stroke-miterlimit:10;stroke-width:0.9px;}.cls-12{fill:#979797;}.cls-13{fill:#ee4256;}.cls-14,.cls-15{font-size:59.28px;}.cls-14,.cls-15,.cls-17{font-family:Impact, Impact;}.cls-16{fill:#91b985;}.cls-17{font-size:28.81px;fill:#648ec9;}.cls-18{fill:#d3e3f2;}</style></defs><title>CS-L2-U2</title><path class="cls-1" d="M130.17,410.35c0-125.45,101.69-227.14,227.14-227.14S584.45,284.9,584.45,410.35"/><rect class="cls-2" x="216.31" y="284.08" width="282" height="181.04"/><path class="cls-3" d="M454.07,279.76H307.42V281a1.21,1.21,0,0,0-1.21-1.21H259.75a1.21,1.21,0,0,0-1.21,1.21v-1.21H209.66v32.13a23.5,23.5,0,0,0,23.5,23.5H235a23.5,23.5,0,0,0,23.5-23.5,23.5,23.5,0,0,0,23.5,23.5h1.88a23.5,23.5,0,0,0,23.5-23.5,23.5,23.5,0,0,0,23.5,23.5h1.88a23.5,23.5,0,0,0,23.5-23.5,23.5,23.5,0,0,0,23.5,23.5h1.88a23.5,23.5,0,0,0,23.5-23.5,23.5,23.5,0,0,0,23.5,23.5h1.88a23.5,23.5,0,0,0,23.5-23.5,23.5,23.5,0,0,0,23.5,23.5h1.88a23.5,23.5,0,0,0,23.5-23.5V279.76Z"/><g class="cls-4"><path class="cls-5" d="M528.34,418.56l-40.62-23.45a8.72,8.72,0,0,1,0-15.11l40.62-23.45a8.72,8.72,0,0,1,13.09,7.55V411A8.72,8.72,0,0,1,528.34,418.56Z"/><rect class="cls-5" x="510.64" y="370.64" width="70.26" height="33.83" rx="5.08" ry="5.08" transform="translate(1091.54 775.12) rotate(180)"/></g><path class="cls-6" d="M454.07,275.45H307.42v.08a.08.08,0,0,0-.08-.08H258.62a.08.08,0,0,0-.08.08v-.08H209.66v32.13a23.5,23.5,0,0,0,23.5,23.5H235a23.5,23.5,0,0,0,23.5-23.5v1.13a22.37,22.37,0,0,0,22.37,22.37h4.14a22.37,22.37,0,0,0,22.37-22.37v-1.13a23.5,23.5,0,0,0,23.5,23.5h1.88a23.5,23.5,0,0,0,23.5-23.5,23.5,23.5,0,0,0,23.5,23.5h1.88a23.5,23.5,0,0,0,23.5-23.5,23.5,23.5,0,0,0,23.5,23.5h1.88a23.5,23.5,0,0,0,23.5-23.5,23.5,23.5,0,0,0,23.5,23.5h1.88a23.5,23.5,0,0,0,23.5-23.5V275.45Z"/><path class="cls-7" d="M404.25,346.21h37a21.17,21.17,0,0,1,21.17,21.17v58.19a0,0,0,0,1,0,0H383.08a0,0,0,0,1,0,0V367.38A21.17,21.17,0,0,1,404.25,346.21Z"/><rect class="cls-7" x="261.7" y="358.24" width="68.24" height="106.87"/><g class="cls-8"><polygon class="cls-9" points="261.7 431.09 329.95 362.85 329.95 358.24 306.73 358.24 261.7 403.27 261.7 431.09"/><polygon class="cls-9" points="261.7 451.85 329.95 383.61 329.95 369.7 261.7 437.94 261.7 451.85"/></g><line class="cls-10" x1="295.83" y1="358.24" x2="295.83" y2="465.11"/><path class="cls-11" d="M410.42,425.57l52-52V361.43a15.14,15.14,0,0,0-1.71-7l-71.14,71.14Z"/><polygon class="cls-11" points="432.79 425.57 462.43 395.93 462.43 383.56 420.42 425.57 432.79 425.57"/><path class="cls-3" d="M462.63,433.49H382.88c-2.15-.92-3.9-2.66-3.9-4.82h0a3.84,3.84,0,0,1,3.84-3.84h79.87a3.84,3.84,0,0,1,3.84,3.84h0C466.53,430.83,464.79,432.57,462.63,433.49Z"/><path class="cls-6" d="M462.63,431.09H382.88c-2.15-.92-3.9-2.66-3.9-4.82h0a3.84,3.84,0,0,1,3.84-3.84h79.87a3.84,3.84,0,0,1,3.84,3.84h0C466.53,428.43,464.79,430.17,462.63,431.09Z"/><path class="cls-12" d="M539.22,418.56l-47.54-23.45c-6.81-3.36-6.81-11.75,0-15.11l47.54-23.45c6.81-3.36,15.32.84,15.32,7.55V411C554.54,417.72,546,421.92,539.22,418.56Z"/><rect class="cls-12" x="518.49" y="370.64" width="82.25" height="33.83" rx="5.08" ry="5.08" transform="translate(1119.23 775.12) rotate(180)"/><path class="cls-13" d="M389.86,200.18l-24.2,41.92a9,9,0,0,1-15.59,0l-24.2-41.92a9,9,0,0,1,7.8-13.5h48.4A9,9,0,0,1,389.86,200.18Z"/><rect class="cls-13" x="313.6" y="156.73" width="88.52" height="34.91" rx="5.08" ry="5.08" transform="translate(532.05 -183.67) rotate(90)"/><text class="cls-14" transform="translate(314.42 130.07) rotate(-16.57) scale(1.03 1)">90</text><circle class="cls-3" cx="355.46" cy="91.69" r="64.49" transform="translate(-6.55 152.57) rotate(-24.01)"/><circle class="cls-13" cx="355.46" cy="86.89" r="64.49" transform="translate(-4.6 152.15) rotate(-24.01)"/><path class="cls-2" d="M386,64.69,387.53,71a11.55,11.55,0,0,1,.46,3.84,4.57,4.57,0,0,1-1.46,2.66,8.07,8.07,0,0,1-3.83,1.94,9.33,9.33,0,0,1-4.66.23,4.78,4.78,0,0,1-2.59-1.59A9.44,9.44,0,0,1,374,74.7l-1.66-6.62a11.27,11.27,0,0,1-.45-4.18,4.5,4.5,0,0,1,1.62-2.67,10.4,10.4,0,0,1,8.17-2,4.84,4.84,0,0,1,2.71,1.63A10.85,10.85,0,0,1,386,64.69Zm-6.23-.16a6.43,6.43,0,0,0-.6-1.76q-.23-.3-.89-.14t-.71.56a5.27,5.27,0,0,0,.26,1.82l2.32,9.29a6.44,6.44,0,0,0,.64,1.87q.24.28.92.11t.67-.55a5.27,5.27,0,0,0-.26-1.75ZM394.92,55l-4.84,41.86-3.51.88,4.89-41.88ZM407.5,78.21l1.59,6.35a11.55,11.55,0,0,1,.46,3.83,4.56,4.56,0,0,1-1.46,2.67A8.08,8.08,0,0,1,404.25,93a9.25,9.25,0,0,1-4.65.22,4.83,4.83,0,0,1-2.6-1.6,9.35,9.35,0,0,1-1.41-3.37l-1.66-6.65a11.18,11.18,0,0,1-.45-4.16,4.56,4.56,0,0,1,1.62-2.68A8.71,8.71,0,0,1,398.83,73a8.86,8.86,0,0,1,4.46-.15,4.83,4.83,0,0,1,2.7,1.65A11,11,0,0,1,407.5,78.21Zm-6.23-.14a6.56,6.56,0,0,0-.6-1.77q-.24-.32-.9-.15t-.69.56a5.72,5.72,0,0,0,.28,1.84l2.32,9.29a6.32,6.32,0,0,0,.63,1.85q.24.28.9.11t.69-.55a5.62,5.62,0,0,0-.27-1.76Z"/><text class="cls-15" transform="translate(314.42 125.27) rotate(-16.57) scale(1.03 1)">90</text><path class="cls-3" d="M253.46,412.81c1.67,0,6.18-.24,9.21-3,3.77-3.48,3.81-9.58,3.81-9.58s-6.09-.46-9.86,3c-3,2.73-3.62,7.06-3.76,8.81-4,2.82-7.27,7.77-9.49,14.5a61.82,61.82,0,0,0-2.79,14.93h-.19c-.24-3.41-.85-12.89-1.94-18,1.23-.44,5.83-2.32,7.76-6.31,2.24-4.62,0-10.31,0-10.31s-5.83,1.8-8.07,6.41a11,11,0,0,0-1,4.94q-.63-2.27-1.38-4.55c.57-1.77,1.55-5.86,0-9.42-2.1-4.69-7.88-6.66-7.88-6.66s-2.37,5.62-.27,10.31c1.72,3.85,5.93,5.86,7.37,6.46a83.75,83.75,0,0,1,4.21,23.39,60.74,60.74,0,0,0-5.3-12.77c-4.13-7.27-9.21-11.83-14.6-13.2-1.41-1.12-5-3.57-8.92-3.31-5.12.33-9,5.06-9,5.06s4.44,4.19,9.57,3.85c4.06-.26,7.32-3.28,8.5-4.53,6,1.72,11.4,7.62,15.39,16.12-1.09-1.57-3.68-4.75-7.39-5.67-5-1.22-10.09,2.12-10.09,2.12s3,5.33,8,6.55c4.53,1.11,9.15-1.54,10-2a68.16,68.16,0,0,1,3.89,11.56l-22.61-.18,3.66,27.07h-2.17v3.38h39v-3.38h-2.19L260,441.6l-18.4-.14a67.21,67.21,0,0,1,1.23-9c1.39.6,5.83,2.24,9.83.76,4.81-1.78,7.17-7.42,7.17-7.42s-5.45-2.74-10.27-1c-3.14,1.16-5.23,4-6.31,5.77C245.23,422.44,248.78,416.1,253.46,412.81Z"/><path class="cls-16" d="M208.77,406c4-.26,7.52,2.19,8.92,3.31,5.39,1.37,10.47,5.92,14.6,13.2a60.73,60.73,0,0,1,5.3,12.77,83.75,83.75,0,0,0-4.21-23.39c-1.45-.6-5.65-2.61-7.37-6.46-2.1-4.68.27-10.31.27-10.31s5.78,2,7.88,6.66c1.59,3.56.61,7.65,0,9.42q.75,2.27,1.38,4.55a11,11,0,0,1,1-4.94c2.24-4.62,8.07-6.41,8.07-6.41s2.2,5.69,0,10.31c-1.93,4-6.53,5.87-7.76,6.31,1.32,6.24,1.94,18.85,2,19.29a62.8,62.8,0,0,1,2.87-16.18c2.22-6.74,5.49-11.69,9.49-14.5.15-1.75.81-6.09,3.76-8.81,3.77-3.48,9.86-3,9.86-3s0,6.1-3.81,9.58c-3,2.79-7.54,3-9.21,3-4.69,3.29-8.23,9.64-10.24,17.81,1.08-1.81,3.17-4.61,6.31-5.77,4.81-1.78,10.27,1,10.27,1s-2.35,5.63-7.17,7.42c-4,1.48-8.44-.16-9.83-.76a71.75,71.75,0,0,0-1.43,14.78c-.71.28-1.82.58-2.79.83a53.88,53.88,0,0,0,.6-6.58,68.19,68.19,0,0,0-3.9-11.6c-.81.5-5.44,3.15-10,2-5-1.22-8-6.55-8-6.55s5.11-3.34,10.09-2.12c3.71.91,6.31,4.1,7.39,5.67-4-8.5-9.41-14.4-15.39-16.12-1.18,1.24-4.45,4.26-8.5,4.53-5.12.34-9.57-3.85-9.57-3.85S203.65,406.35,208.77,406Z"/><polygon class="cls-6" points="258.37 439.2 253.15 466.61 218.81 467.29 214.96 438.86 258.37 439.2"/><rect class="cls-13" x="216.46" y="465.93" width="39.01" height="3.38"/><g class="cls-4"><path class="cls-5" d="M184.7,413.67l40.62-23.45a8.72,8.72,0,0,0,0-15.11L184.7,351.66a8.72,8.72,0,0,0-13.09,7.55v46.9A8.72,8.72,0,0,0,184.7,413.67Z"/><rect class="cls-5" x="132.14" y="365.75" width="70.26" height="33.83" rx="5.08" ry="5.08"/></g><path class="cls-12" d="M174,413.67l46-23.45c6.58-3.36,6.58-11.75,0-15.11l-46-23.45c-6.58-3.36-14.81.84-14.81,7.55v46.9C159.18,412.83,167.4,417,174,413.67Z"/><rect class="cls-12" x="114.52" y="365.75" width="79.5" height="33.83" rx="5.08" ry="5.08"/><rect class="cls-2" x="223.4" y="240.08" width="112.86" height="61.78" rx="9.17" ry="9.17"/><text class="cls-17" transform="translate(249.11 280.58) scale(1.01 1)">SHOP</text><circle class="cls-18" cx="233.93" cy="289.18" r="3.5"/><circle class="cls-18" cx="326.45" cy="289.18" r="3.5"/></svg>