<svg id="Layer_1" data-name="Layer 1" xmlns="http://www.w3.org/2000/svg" viewBox="0 0 708.66 841.89"><defs><style>.cls-1{fill:#f4d99d;opacity:0.46;}.cls-2{fill:#a5a4a4;}.cls-3{fill:#d1d0cf;}.cls-19,.cls-4{fill:#f8ab8d;}.cls-5{fill:#efefef;}.cls-27,.cls-31,.cls-6{fill:none;}.cls-6{stroke:#648ec9;stroke-miterlimit:10;stroke-width:3.14px;}.cls-7{fill:#e5e5e4;}.cls-8{fill:#3f5aa8;}.cls-9{fill:#353560;}.cls-10{fill:#b3b2b3;}.cls-11{fill:#4d4e4e;}.cls-12{fill:#648ec9;}.cls-13,.cls-21{fill:#dc846a;}.cls-14{fill:#515180;}.cls-15{fill:#ffdc83;}.cls-16{fill:#fdd8b8;}.cls-17{fill:#ee4256;}.cls-18{fill:#54402b;}.cls-19,.cls-21,.cls-28{fill-rule:evenodd;}.cls-20{fill:#8b6339;}.cls-22{fill:#6c4e38;}.cls-23{fill:#fec82b;}.cls-24,.cls-28,.cls-32{fill:#fff;}.cls-25{fill:#0e0e0f;opacity:0.05;}.cls-26{fill:#754d24;}.cls-27{stroke:#dc846a;stroke-width:2.09px;}.cls-27,.cls-31{stroke-linecap:round;stroke-linejoin:round;}.cls-28{opacity:0.99;}.cls-29{fill:#c49a6c;}.cls-30{fill:#a07248;opacity:0.49;}.cls-31{stroke:#d1d0cf;stroke-width:3px;}.cls-32{font-size:66.85px;font-family:Impact, Impact;}</style></defs><title>CS-L2-U2</title><circle class="cls-1" cx="402.47" cy="321.33" r="276.07"/><rect class="cls-2" x="266.79" y="426.34" width="115.74" height="27.79" transform="translate(649.32 880.47) rotate(-180)"/><path class="cls-3" d="M290.9,406.81h75a0,0,0,0,1,0,0v0A20.15,20.15,0,0,1,345.77,427H311.06a20.15,20.15,0,0,1-20.15-20.15v0A0,0,0,0,1,290.9,406.81Z" transform="translate(656.82 833.77) rotate(-180)"/><rect class="cls-3" x="275.9" y="350.77" width="6.43" height="75.57" transform="translate(558.23 777.1) rotate(-180)"/><rect class="cls-3" x="263.58" y="336.54" width="36.44" height="20.12" transform="translate(563.59 693.2) rotate(-180)"/><rect class="cls-3" x="222" y="453.19" width="305.42" height="43.57" rx="21.79" ry="21.79" transform="translate(749.41 949.95) rotate(180)"/><path id="_Path_" data-name="&lt;Path&gt;" class="cls-4" d="M409.31,213.84h0A11,11,0,0,0,394,216l-56,75.65A11,11,0,0,0,340.1,307h0a11,11,0,0,0,15.34-2.14l56-75.65A11,11,0,0,0,409.31,213.84Z"/><g id="_Clip_Group_" data-name="&lt;Clip Group&gt;"><path id="_Clipping_Path_" data-name="&lt;Clipping Path&gt;" class="cls-5" d="M375.06,283.33,353,266.93l40.73-55.31a13.8,13.8,0,0,1,19.25-2.84h0A13.8,13.8,0,0,1,415.78,228Z"/></g><line id="_Path_2" data-name="&lt;Path&gt;" class="cls-6" x1="381.65" y1="275.08" x2="359.39" y2="258.9"/><circle id="_Path_3" data-name="&lt;Path&gt;" class="cls-7" cx="487.19" cy="360.4" r="4.2"/><path id="_Path_4" data-name="&lt;Path&gt;" class="cls-8" d="M564.29,563.22h0a13.67,13.67,0,0,0-13.67,13.67v96.86a13.67,13.67,0,0,0,13.67,13.67h0A13.67,13.67,0,0,0,578,673.75V576.89A13.67,13.67,0,0,0,564.29,563.22Z"/><path id="_Rectangle_" data-name="&lt;Rectangle&gt;" class="cls-9" d="M561.31,352.92H567a14.78,14.78,0,0,1,14.78,14.78V662.06a0,0,0,0,1,0,0H546.53a0,0,0,0,1,0,0V367.7A14.78,14.78,0,0,1,561.31,352.92Z"/><path id="_Path_5" data-name="&lt;Path&gt;" class="cls-10" d="M580.27,672v16.69H497.77v-1.67a6.63,6.63,0,0,1,5-6.42l43.92-11.44a12.25,12.25,0,0,1,6.15,0c11.73,3,20,1.69,24.2.43A2.54,2.54,0,0,1,580.27,672Z"/><path id="_Path_6" data-name="&lt;Path&gt;" class="cls-11" d="M580.27,683.72v.13a5,5,0,0,1-5,5H500.31a2.53,2.53,0,0,1-2.54-2.54v-2.63Z"/><path id="_Path_7" data-name="&lt;Path&gt;" class="cls-8" d="M482.28,560.71h0a13.67,13.67,0,0,0-11.52,15.53L485,672.06a13.67,13.67,0,0,0,15.53,11.52h0A13.67,13.67,0,0,0,512,668l-.37-2.49L497.8,572.23A13.67,13.67,0,0,0,482.28,560.71Z"/><path id="_Path_8" data-name="&lt;Path&gt;" class="cls-10" d="M515.84,672v16.69H433.35v-1.67a6.63,6.63,0,0,1,5-6.42l43.92-11.44a12.25,12.25,0,0,1,6.15,0c11.73,3,20,1.69,24.2.43A2.54,2.54,0,0,1,515.84,672Z"/><path id="_Path_9" data-name="&lt;Path&gt;" class="cls-11" d="M515.84,683.72v.13a5,5,0,0,1-5,5H435.89a2.53,2.53,0,0,1-2.54-2.54v-2.63Z"/><path id="_Path_10" data-name="&lt;Path&gt;" class="cls-9" d="M581.24,339l-100.68.81.6,32.32a17.3,17.3,0,0,0,17.43,17.16l66.09-.53a17.3,17.3,0,0,0,17.16-17.43Z"/><path id="_Path_11" data-name="&lt;Path&gt;" class="cls-9" d="M478.13,484.48l-4,.47c-9.11,1.06-15.53,8.48-14.34,16.58l22.81,154.41,37.06-4.32L496.79,497.21C495.6,489.12,487.24,483.42,478.13,484.48Z"/><path id="_Path_12" data-name="&lt;Path&gt;" class="cls-9" d="M495,373.35,460.6,494.68c-2.41,8.51,3.4,17.14,13,19.28l1.55.35c9.58,2.14,19.3-3,21.71-11.53L531.2,381.45"/><g id="_Group_" data-name="&lt;Group&gt;"><g id="_Clip_Group_2" data-name="&lt;Clip Group&gt;"><path id="_Rectangle_2" data-name="&lt;Rectangle&gt;" class="cls-12" d="M450.45,172.25h73.1a23.59,23.59,0,0,1,23.59,23.59V387.21a0,0,0,0,1,0,0H426.07a0,0,0,0,1,0,0V196.63A24.38,24.38,0,0,1,450.45,172.25Z" transform="translate(-73.58 244.66) rotate(-26.31)"/></g></g><path id="_Path_13" data-name="&lt;Path&gt;" class="cls-4" d="M477.92,174.62h0a11,11,0,0,1,12-9.82L583.47,175a11,11,0,0,1,9.82,12h0a11,11,0,0,1-12,9.82L487.73,186.6A11,11,0,0,1,477.92,174.62Z"/><g id="_Clip_Group_3" data-name="&lt;Clip Group&gt;"><path id="_Clipping_Path_2" data-name="&lt;Clipping Path&gt;" class="cls-5" d="M552.21,196.6l2.93-27.36-68.26-7.6a13.8,13.8,0,0,0-15.14,12.21h0A13.8,13.8,0,0,0,483.95,189Z"/></g><line id="_Path_14" data-name="&lt;Path&gt;" class="cls-6" x1="542.53" y1="195.52" x2="545.75" y2="168.2"/><ellipse id="_Path_15" data-name="&lt;Path&gt;" class="cls-5" cx="438.97" cy="183.39" rx="16.43" ry="10.68" transform="translate(-35.81 213.56) rotate(-26.31)"/><path id="_Path_16" data-name="&lt;Path&gt;" class="cls-13" d="M440.76,295.16s14.12-4.19,19.81-7c6.17,6.38-3.17,14.49-3.17,14.49Z"/><path id="_Path_17" data-name="&lt;Path&gt;" class="cls-4" d="M335.79,297.19h0a11,11,0,0,1,11.74-10.1l93.79,8a11,11,0,0,1,10.1,11.74h0a11,11,0,0,1-11.74,10.1l-93.79-8A11,11,0,0,1,335.79,297.19Z"/><path id="_Path_18" data-name="&lt;Path&gt;" class="cls-14" d="M94.33,780.57v.13a4.82,4.82,0,0,0,4.82,4.82h71.7a2.43,2.43,0,0,0,2.43-2.43v-2.52Z"/><path id="_Path_19" data-name="&lt;Path&gt;" class="cls-14" d="M163.17,780.57v.13a4.82,4.82,0,0,0,4.82,4.82h71.7a2.43,2.43,0,0,0,2.43-2.43v-2.52Z"/><rect id="_Rectangle_3" data-name="&lt;Rectangle&gt;" class="cls-4" x="141.75" y="260.03" width="17.44" height="42.32" rx="7.64" ry="7.64" transform="translate(300.94 562.39) rotate(180)"/><rect id="_Rectangle_4" data-name="&lt;Rectangle&gt;" class="cls-14" x="209.01" y="238.45" width="24.4" height="107.8" rx="12.2" ry="12.2" transform="translate(363.78 -45.4) rotate(60)"/><path id="_Path_20" data-name="&lt;Path&gt;" class="cls-14" d="M116.53,660.46h0a13.08,13.08,0,0,0-13.08,13.08v92.7a13.08,13.08,0,0,0,13.08,13.08h0a13.08,13.08,0,0,0,13.08-13.08v-92.7A13.08,13.08,0,0,0,116.53,660.46Z"/><path id="_Rectangle_5" data-name="&lt;Rectangle&gt;" class="cls-15" d="M100,459.2H133.8a0,0,0,0,1,0,0V748.06a7,7,0,0,1-7,7H107a7,7,0,0,1-7-7V459.2A0,0,0,0,1,100,459.2Z" transform="translate(233.83 1214.26) rotate(180)"/><path id="_Path_21" data-name="&lt;Path&gt;" class="cls-16" d="M94.33,764.6v16h78.95V779a6.34,6.34,0,0,0-4.75-6.14l-42-10.95a11.72,11.72,0,0,0-5.89,0c-11.22,2.91-19.12,1.62-23.16.42A2.43,2.43,0,0,0,94.33,764.6Z"/><line id="_Path_22" data-name="&lt;Path&gt;" class="cls-16" x1="168.53" y1="772.83" x2="126.5" y2="761.88"/><path id="_Path_23" data-name="&lt;Path&gt;" class="cls-14" d="M178.7,660.46h0a13.08,13.08,0,0,1,13.08,13.08v92.7a13.08,13.08,0,0,1-13.08,13.08h0a13.08,13.08,0,0,1-13.08-13.08v-92.7A13.08,13.08,0,0,1,178.7,660.46Z"/><path id="_Rectangle_6" data-name="&lt;Rectangle&gt;" class="cls-15" d="M161.92,459.2H195.7a0,0,0,0,1,0,0V748.06a7,7,0,0,1-7,7H168.92a7,7,0,0,1-7-7V459.2a0,0,0,0,1,0,0Z" transform="translate(357.62 1214.26) rotate(180)"/><path id="_Path_24" data-name="&lt;Path&gt;" class="cls-17" d="M114.09,289.21h67.34c13.28,0,24.05,8.87,24.05,19.8l-6.71,70.56,6.71,81.25H90S97.26,397.2,97.26,376c0-16.75-7.22-67-7.22-67C90,298.08,100.81,289.21,114.09,289.21Z"/><path id="_Path_25" data-name="&lt;Path&gt;" class="cls-18" d="M187.55,185.15s11.23-2.29,11.22,20.54a99.74,99.74,0,0,1-2.91,22.4l-17-19.76-17.64-7.89,22-8Z"/><path id="_Path_26" data-name="&lt;Path&gt;" class="cls-19" d="M168.39,281.13c-26.89,1.44-41.18-18.42-45.57-43.1-4.63-26,12.77-47.49,33.85-47.56,24-.08,38,9.27,39.95,35.61,1.24,16.53-3.74,49.67-28.23,55Z"/><g id="_Group_2" data-name="&lt;Group&gt;"><line id="_Path_27" data-name="&lt;Path&gt;" class="cls-20" x1="192" y1="225.22" x2="181.88" y2="224.7"/><path id="_Path_28" data-name="&lt;Path&gt;" class="cls-20" d="M192.23,226.89a1.69,1.69,0,0,0-.15-3.36L182,223a1.69,1.69,0,0,0-.17,3.37l10.12.51A1.71,1.71,0,0,0,192.23,226.89Z"/></g><g id="_Group_3" data-name="&lt;Group&gt;"><line id="_Path_29" data-name="&lt;Path&gt;" class="cls-20" x1="164.49" y1="225.75" x2="154.37" y2="226.26"/><path id="_Path_30" data-name="&lt;Path&gt;" class="cls-20" d="M164.73,224.08a1.69,1.69,0,0,1-.15,3.36l-10.12.51a1.69,1.69,0,0,1-.17-3.37l10.12-.51A1.71,1.71,0,0,1,164.73,224.08Z"/></g><circle id="_Path_31" data-name="&lt;Path&gt;" cx="164.05" cy="235.12" r="2.28"/><circle id="_Path_32" data-name="&lt;Path&gt;" cx="186.94" cy="235.12" r="2.28"/><polygon id="_Path_33" data-name="&lt;Path&gt;" class="cls-21" points="174.17 234.86 173.86 254.71 178.12 253.74 174.17 234.86"/><ellipse id="_Path_34" data-name="&lt;Path&gt;" class="cls-18" cx="118.05" cy="189.08" rx="17.64" ry="13.78" transform="translate(-102.49 221.48) rotate(-66.38)"/><path id="_Path_35" data-name="&lt;Path&gt;" class="cls-22" d="M127.42,241s11.83,2.2,10.22-10.42c6.41-1,37.68-14.23,50.31-45.1-8-16.13-22.1-18.32-37.47-15.73-22.73,3.83-46.86,20.94-33.48,65C118,238.06,124.21,238.49,127.42,241Z"/><g id="_Group_4" data-name="&lt;Group&gt;"><path id="_Path_36" data-name="&lt;Path&gt;" class="cls-19" d="M131,230s-1-2.24-4.43-4.63c-6.87-4.76-14.88-.9-11.82,7.26,2.13,5.7,5.76,19.79,10.21,14.72C128.39,243.44,130.85,237.5,131,230Z"/><polygon id="_Path_37" data-name="&lt;Path&gt;" class="cls-21" points="125.74 230.81 116.72 229.29 123.52 241.67 121.23 231.47 125.74 230.81"/></g><circle id="_Path_38" data-name="&lt;Path&gt;" class="cls-23" cx="123.41" cy="249.11" r="4.11"/><path id="_Path_39" data-name="&lt;Path&gt;" class="cls-4" d="M123.59,294.5c0,12.18,12,22.06,26.88,22.06s26.89-9.88,26.89-22.06a18.13,18.13,0,0,0-.78-5.29h-52.2A18.13,18.13,0,0,0,123.59,294.5Z"/><rect class="cls-14" x="90.04" y="458.93" width="115.45" height="147.85" transform="translate(295.53 1065.71) rotate(180)"/><path id="_Path_40" data-name="&lt;Path&gt;" class="cls-16" d="M163.17,764.6v16h78.95V779a6.34,6.34,0,0,0-4.75-6.14l-42-10.95a11.72,11.72,0,0,0-5.89,0c-11.22,2.91-19.12,1.62-23.16.42A2.43,2.43,0,0,0,163.17,764.6Z"/><path id="_Path_41" data-name="&lt;Path&gt;" class="cls-13" d="M296.05,192.14s8.36-10.58,11.13-15.67c8,1.52,5.27,12.51,5.27,12.51Z"/><path id="_Path_42" data-name="&lt;Path&gt;" class="cls-4" d="M297.28,211.08l17.14-7s14-7.92,16.15-13.52c2.49-6.52,5.19-14.77,4.71-16.4-1.28-4.35-21.7,13.9-21.7,13.9l-19.84,3.83Z"/><path id="_Path_43" data-name="&lt;Path&gt;" class="cls-14" d="M314.09,204.71l-20.35-12.85-45,72.42a12,12,0,0,0,3.75,16.6h0a12,12,0,0,0,16.6-3.75Z"/><rect id="_Rectangle_7" data-name="&lt;Rectangle&gt;" class="cls-17" x="290.02" y="197.22" width="23.81" height="8.94" transform="matrix(0.86, 0.52, -0.52, 0.86, 148.27, -127.29)"/><path id="_Path_44" data-name="&lt;Path&gt;" class="cls-24" d="M172.73,268.52c-6.51,0-12.22-3.52-12.22-7.54V260h25.09V261c0,3.66-3.83,7.54-10.92,7.54Z"/><polygon id="_Path_45" data-name="&lt;Path&gt;" class="cls-14" points="124.59 288.9 121.02 300.75 130.77 310.49 126.66 318.16 169.56 378.47 186.5 318 181.19 310.09 184.64 300.75 177.18 288.9 124.59 288.9"/><polygon id="_Path_46" data-name="&lt;Path&gt;" class="cls-15" points="172.42 288.9 164.85 358.47 130.78 288.9 172.42 288.9"/><rect id="_Rectangle_8" data-name="&lt;Rectangle&gt;" class="cls-14" x="104.9" y="289.14" width="25.87" height="107.8" rx="12.94" ry="12.94" transform="translate(375.52 598.31) rotate(153.69)"/><path id="_Path_47" data-name="&lt;Path&gt;" class="cls-4" d="M223.5,431.35l20.27,1.72s14.05-6.42,17.71-11.18c4.25-5.53,7.9-10.74,7.91-12.43,0-4.54-23,2.63-23,2.63l-20.18-.76Z"/><path id="_Path_48" data-name="&lt;Path&gt;" class="cls-14" d="M223.82,431.82l11-25.66L143.65,367.9a14,14,0,0,0-18.32,7.34h0a14,14,0,0,0,7.34,18.32Z"/><rect id="_Rectangle_9" data-name="&lt;Rectangle&gt;" class="cls-17" x="210.93" y="411.69" width="28.62" height="10.36" transform="translate(696.25 365.29) rotate(112.13)"/><path class="cls-25" d="M429.24,174.65c-26,10-30.64,37.88-19.47,66.84s47.39,38.8,73.35,28.78,15.29-26.89,4.11-55.85S455.2,164.64,429.24,174.65ZM481,264.84c-23.27,9-57.62,1.2-66.39-25.23-18.52-55.82,32.86-65.77,16.69-59.53,23.27-9,41,10.26,51,36.22S504.3,255.86,481,264.84Z"/><path class="cls-14" d="M428.24,175.65c-26,10-30.64,37.88-19.47,66.84s47.39,38.8,73.35,28.78,15.29-26.89,4.11-55.85S454.2,165.64,428.24,175.65ZM480,265.84c-23.27,9-57.62,1.2-66.39-25.23-18.52-55.82,32.86-65.77,16.69-59.53,23.27-9,41,10.26,51,36.22S503.3,256.86,480,265.84Z"/><path id="_Path_49" data-name="&lt;Path&gt;" class="cls-13" d="M526.28,261.46s-11.51,9.19-17.06,12.25c1.7,8.71,13.7,5.69,13.7,5.69Z"/><path id="_Path_50" data-name="&lt;Path&gt;" class="cls-4" d="M424.49,156.69l.28-.14A8.7,8.7,0,0,0,421,168.42l8.49,17.16c2.19,4.43,6.19,4.17,10.63,2l-.14.07c4.43-2.19,7.21-5.28,5-9.72l-8.49-17.16A9,9,0,0,0,424.49,156.69Z"/><path id="_Path_51" data-name="&lt;Path&gt;" class="cls-19" d="M420.55,184.25c26.06-11.19,30.28-36.61,22.91-62-7.76-26.7-34.23-38.87-54.17-29.1-22.68,11.12-31.53,26.48-21.09,52.27,6.55,16.19,26.72,45.15,52.35,38.8Z"/><path id="_Path_52" data-name="&lt;Path&gt;" class="cls-20" d="M430.89,88.51c5.71,5.22,10.52,14.93,13.25,21.28a6.9,6.9,0,0,0-5.93,1.3,8.25,8.25,0,0,0-.74.62h0l-.34.34-.33.36-.34.41c-.08.09-.15.2-.23.3s-.25.35-.37.53l-.27.45-.26.47-.23.48c-.08.17-.15.33-.22.5-.14.34-.26.68-.37,1l0,.06c0,.07,0,.16-.06.24a1.11,1.11,0,0,1,0,.14c0,.05,0,.1,0,.16a.27.27,0,0,0,0,.07.23.23,0,0,0,0,.07v.05a.34.34,0,0,0,0,.08L440,128.71a5.64,5.64,0,0,1,.67,4.38,6.85,6.85,0,0,1-.24.83,9,9,0,0,1-2.94,2.7c-2.94,1.46-7.11.51-8.56-2.43l-2-4a6.5,6.5,0,0,0-8.23-3.18l-1.06.43c-2.35-4.55-4.11-8.21-5.19-10.49-1.34-2.83-3.3-4.16-9.82-1.72l-.19.08c-.57.21-1.17.46-1.81.73l-.14.06c-1.11.48-2.32,1-3.65,1.7l-28.54,14.11-.37.08c-1.39.26-6.44,1-10.45-1.48-3.66-2.26-4.37-4.87-4.37-4.87l7.9-3.91a17.87,17.87,0,0,1-7.45-4.84,41.74,41.74,0,0,1-6.09-7.76l13.1-6.48s8.4-16,23.58-22C408.1,71.2,423,82.21,423,82.21a27.64,27.64,0,0,1,9.06-6.67C430.78,80.49,429.78,82.88,430.89,88.51Z"/><path id="_Path_53" data-name="&lt;Path&gt;" class="cls-26" d="M400.49,116.07c-1.11.48-2.32,1-3.65,1.7l-28.54,14.11-.37.08c-1.39.26-6.44,1-10.45-1.48-3.66-2.26-4.37-4.87-4.37-4.87s10.58,4.3,15.32,2.93l.37-.11C373.57,126.92,393.83,118.77,400.49,116.07Z"/><g id="_Group_5" data-name="&lt;Group&gt;"><line id="_Path_54" data-name="&lt;Path&gt;" class="cls-20" x1="379.55" y1="145.53" x2="388.33" y2="140.62"/><path id="_Path_55" data-name="&lt;Path&gt;" class="cls-20" d="M380.07,147.12a1.68,1.68,0,0,1-1.34-3.06l8.78-4.91a1.68,1.68,0,0,1,1.64,2.93L380.37,147A1.7,1.7,0,0,1,380.07,147.12Z"/></g><g id="_Group_6" data-name="&lt;Group&gt;"><line id="_Path_56" data-name="&lt;Path&gt;" class="cls-20" x1="402.84" y1="133.44" x2="412.07" y2="129.45"/><path id="_Path_57" data-name="&lt;Path&gt;" class="cls-20" d="M401.9,132.06a1.68,1.68,0,0,0,1.61,2.92l9.23-4a1.68,1.68,0,1,0-1.33-3.08l-9.23,4A1.7,1.7,0,0,0,401.9,132.06Z"/></g><circle id="_Path_58" data-name="&lt;Path&gt;" cx="411.85" cy="141.58" r="2.26" transform="translate(-20.09 197.21) rotate(-26.31)"/><circle id="_Path_59" data-name="&lt;Path&gt;" cx="390.49" cy="153" r="2.26" transform="translate(-27.36 188.92) rotate(-26.31)"/><path id="_Path_60" data-name="&lt;Path&gt;" class="cls-26" d="M347.49,109.1s10.8,9.05,19.42,8.45c7.32-.52,37.53-14.27,37.53-14.27A56.61,56.61,0,0,1,396.3,110C393.73,111.66,368,125.41,361,121.7A28.45,28.45,0,0,1,347.49,109.1Z"/><g id="_Group_7" data-name="&lt;Group&gt;"><path id="_Path_61" data-name="&lt;Path&gt;" class="cls-19" d="M433.79,118.65s-.12-2.55,2-6.39c4.23-7.64,13.51-7.74,14.44,1.32.64,6.32,3.77,21.21-2.75,18.51C442.5,130,437.44,125.61,433.79,118.65Z"/><polygon id="_Path_62" data-name="&lt;Path&gt;" class="cls-21" points="439.13 116.98 446.88 111.38 446.24 126.12 443.66 115.5 439.13 116.98"/></g><polygon id="_Path_63" data-name="&lt;Path&gt;" class="cls-21" points="397.97 142.11 406.98 159.64 402.75 160.66 397.97 142.11"/><path id="_Path_64" data-name="&lt;Path&gt;" class="cls-27" d="M398.62,170.29a16,16,0,0,0,13.46-.32h0c4.79-2.37,7.92-7.72,8.43-10.5"/><rect class="cls-25" x="458.96" y="263.11" width="64.68" height="42.46" rx="5.99" ry="5.99" transform="translate(-75.82 259.79) rotate(-27.58)"/><rect class="cls-23" x="456.96" y="262.11" width="64.68" height="42.46" rx="5.99" ry="5.99" transform="translate(-75.58 258.75) rotate(-27.58)"/><path id="_Path_65" data-name="&lt;Path&gt;" class="cls-25" d="M436.62,317.48l21.93,3.59s15.7-6.61,20.08-11.48c5.1-5.67,6.58-15.52,6.74-17.37.41-4.94-22.2,6.21-22.2,6.21L441,297.91Z"/><path id="_Path_66" data-name="&lt;Path&gt;" class="cls-4" d="M434.62,316.48l21.93,3.59s15.7-6.61,20.08-11.48c5.1-5.67,6.58-15.52,6.74-17.37.41-4.94-22.2,6.21-22.2,6.21l-21.92-2.54Z"/><path id="_Path_67" data-name="&lt;Path&gt;" class="cls-4" d="M588,176.51h0a11,11,0,0,0-15,3.86l-47.1,81.49a11,11,0,0,0,3.86,15h0a11,11,0,0,0,15-3.86l47.1-81.49A11,11,0,0,0,588,176.51Z"/><path id="_Path_68" data-name="&lt;Path&gt;" class="cls-25" d="M546.29,270.61l-9.6,20s-14.4,9.1-20.9,9.91c-7.56.94-16.5-3.48-18.1-4.41-4.28-2.49,17.79-14.66,17.79-14.66l12.8-18Z"/><path id="_Path_69" data-name="&lt;Path&gt;" class="cls-4" d="M547.29,268.61l-9.6,20s-14.4,9.1-20.9,9.91c-7.56.94-16.5-3.48-18.1-4.41-4.28-2.49,17.79-14.66,17.79-14.66l10.45-19.43Z"/><path class="cls-28" d="M509.89,260.4c-2.3-5.11-4.6-6.49-10.68-4.63,5.41-2.45,7.26-4.71,6.11-9.91,2.38,4.6,4.9,5.33,10.68,4.63C510.59,252.74,508.75,254.93,509.89,260.4Z"/><path class="cls-29" d="M388.15,688.72H632.2a15.16,15.16,0,0,1,15.16,15.16v91a0,0,0,0,1,0,0H373a0,0,0,0,1,0,0v-91A15.16,15.16,0,0,1,388.15,688.72Z"/><circle class="cls-30" cx="511.05" cy="746.43" r="39.14"/><line class="cls-31" x1="517" y1="124.54" x2="576.06" y2="82"/><polyline class="cls-31" points="608.8 69.84 612.67 67.05 615.94 64.7 618.92 62.55"/><line class="cls-31" x1="549.15" y1="112.8" x2="597.92" y2="77.67"/><text class="cls-32" transform="translate(496.1 773.6)">1</text></svg>