<svg id="Layer_1" data-name="Layer 1" xmlns="http://www.w3.org/2000/svg" viewBox="0 0 708.66 710.67"><defs><style>.cls-1{fill:#648ec9;}.cls-10,.cls-2,.cls-5{fill:#e7685d;}.cls-3{fill:#fec82b;}.cls-4{fill:#0d5b70;}.cls-5{font-size:18.84px;font-family:Chevin-Bold, Chevin;font-weight:700;}.cls-12,.cls-6{fill:none;}.cls-6{stroke:#fec82b;stroke-miterlimit:10;stroke-width:6px;stroke-dasharray:10;}.cls-11,.cls-12,.cls-6,.cls-9{stroke-linecap:round;}.cls-7{fill:#3f5aa8;}.cls-8{fill:#dd4439;}.cls-16,.cls-17,.cls-9{fill:#fff;}.cls-9{stroke:#e7685d;}.cls-11,.cls-12,.cls-9{stroke-linejoin:round;stroke-width:2.98px;}.cls-10,.cls-12{fill-rule:evenodd;}.cls-11{fill:#19a4a4;}.cls-11,.cls-12{stroke:#3f5aa8;}.cls-13{fill:#414042;opacity:0.2;}.cls-14{fill:#e09780;}.cls-15{fill:#f8ab8d;}.cls-16{opacity:0.4;}</style></defs><title>Diagram_01</title><path class="cls-1" d="M297.8,154.69a56.53,56.53,0,0,1,113.06,0"/><path class="cls-2" d="M177.36,288.09a60.4,60.4,0,0,0-79.34,0Z"/><circle class="cls-3" cx="354.33" cy="358.81" r="91.5"/><path class="cls-4" d="M308.48,357.88a6.68,6.68,0,0,1-1.66,2.42,7.46,7.46,0,0,1-2.66,1.56,10.86,10.86,0,0,1-3.6.55h-4.83v8a2.6,2.6,0,0,1-2.63,2.63,2.47,2.47,0,0,1-1.85-.76,2.57,2.57,0,0,1-.74-1.86V347.57a2.57,2.57,0,0,1,.74-1.86,2.47,2.47,0,0,1,1.85-.76h7.23a11,11,0,0,1,4.15.68,7.2,7.2,0,0,1,2.68,1.81,6.74,6.74,0,0,1,1.45,2.53,9.45,9.45,0,0,1,.44,2.82v2A8.23,8.23,0,0,1,308.48,357.88Zm-4.68-5a3.58,3.58,0,0,0-.17-1.1,2.36,2.36,0,0,0-.59-1,3.09,3.09,0,0,0-1.2-.68,6.14,6.14,0,0,0-2-.27h-4.15v7.76h4.6a4.79,4.79,0,0,0,1.66-.25,2.66,2.66,0,0,0,1.07-.68,2.61,2.61,0,0,0,.57-1,3.58,3.58,0,0,0,.17-1.1Z"/><path class="cls-4" d="M330,372a2.39,2.39,0,0,1-1.75.72H315.9a2.39,2.39,0,0,1-1.75-.72,2.43,2.43,0,0,1-.72-1.79V347.46a2.44,2.44,0,0,1,.72-1.77,2.35,2.35,0,0,1,1.75-.74h11.87a2.35,2.35,0,0,1,1.75.74,2.53,2.53,0,0,1,0,3.54,2.35,2.35,0,0,1-1.75.74h-9.13v6.43h8.26a2.47,2.47,0,0,1,2.44,2.43,2.28,2.28,0,0,1-.72,1.69,2.37,2.37,0,0,1-1.71.7h-8.26v6.47h9.63a2.47,2.47,0,0,1,2.47,2.47A2.43,2.43,0,0,1,330,372Z"/><path class="cls-4" d="M352.07,368a7.79,7.79,0,0,1-2.15,2.82,9.12,9.12,0,0,1-3.23,1.67,14.32,14.32,0,0,1-4.07.55,29.15,29.15,0,0,1-3.77-.23,15.36,15.36,0,0,1-3.39-.84,2.52,2.52,0,0,1-1.75-2.4,2.7,2.7,0,0,1,.59-1.73,2,2,0,0,1,1.65-.74,3.05,3.05,0,0,1,1.27.29,10.09,10.09,0,0,0,1.73.55q.61.15,1.39.27a12.61,12.61,0,0,0,1.81.11,7,7,0,0,0,4.19-1,3.22,3.22,0,0,0,1.29-2.7,2.44,2.44,0,0,0-.78-1.94,8,8,0,0,0-2.95-1.29l-1.62-.4-1.81-.44q-.91-.23-1.79-.51a9.65,9.65,0,0,1-1.52-.63,7.05,7.05,0,0,1-2.38-2.25,6.81,6.81,0,0,1-.93-3.8,8.83,8.83,0,0,1,.76-3.77,8,8,0,0,1,2.05-2.74,8.91,8.91,0,0,1,3-1.67,11.67,11.67,0,0,1,3.67-.57,25.63,25.63,0,0,1,3.22.19,14.91,14.91,0,0,1,2.95.68,2.54,2.54,0,0,1,1.39,1,2.47,2.47,0,0,1,.44,1.41,2.62,2.62,0,0,1-.63,1.71,2.16,2.16,0,0,1-1.77.76,2.91,2.91,0,0,1-1.12-.23,8.6,8.6,0,0,0-1.43-.42q-.49-.11-1.12-.21a10.19,10.19,0,0,0-1.5-.1,5.86,5.86,0,0,0-3.46.88,2.83,2.83,0,0,0-1.22,2.43,2.38,2.38,0,0,0,.91,2.09,8.88,8.88,0,0,0,2.85,1.14q.88.23,1.83.44t1.86.46q.91.25,1.73.55a9.37,9.37,0,0,1,1.46.68,6.11,6.11,0,0,1,2.34,2.49,7.87,7.87,0,0,1,.74,3.52A9.32,9.32,0,0,1,352.07,368Z"/><path class="cls-4" d="M376,349.3a2.46,2.46,0,0,1-1.81.74h-5.79V370.4a2.63,2.63,0,1,1-5.25,0V350h-5.78a2.55,2.55,0,1,1,0-5.1h16.82A2.56,2.56,0,0,1,376,349.3Z"/><path class="cls-4" d="M396.66,372a2.45,2.45,0,0,1-1.77.72H382.68a2.39,2.39,0,0,1-1.75-.72,2.43,2.43,0,0,1-.72-1.79V347.23a2.57,2.57,0,0,1,.74-1.87,2.47,2.47,0,0,1,1.85-.76,2.6,2.6,0,0,1,2.63,2.63V367.7h9.47a2.45,2.45,0,0,1,1.77.72,2.36,2.36,0,0,1,.74,1.75A2.4,2.4,0,0,1,396.66,372Z"/><path class="cls-4" d="M417.42,372a2.39,2.39,0,0,1-1.75.72H403.3a2.39,2.39,0,0,1-1.75-.72,2.43,2.43,0,0,1-.72-1.79V347.46a2.45,2.45,0,0,1,.72-1.77,2.35,2.35,0,0,1,1.75-.74h11.87a2.35,2.35,0,0,1,1.75.74,2.53,2.53,0,0,1,0,3.54,2.35,2.35,0,0,1-1.75.74H406v6.43h8.26a2.47,2.47,0,0,1,2.44,2.43,2.28,2.28,0,0,1-.72,1.69,2.37,2.37,0,0,1-1.71.7H406v6.47h9.63a2.47,2.47,0,0,1,2.47,2.47A2.43,2.43,0,0,1,417.42,372Z"/><text class="cls-5" transform="translate(320.54 65.98)">Political</text><text class="cls-5" transform="translate(79.44 209.88)">Environmental </text><text class="cls-5" transform="translate(524.81 209.88)">Economic</text><text class="cls-5" transform="translate(121.42 444.51)">Legal</text><text class="cls-5" transform="translate(296.85 576.01)">Technological</text><text class="cls-5" transform="translate(536.74 444.51)">Social </text><path class="cls-6" d="M296.47,56.57a81.83,81.83,0,1,0,115.73,0"/><line class="cls-6" x1="354.33" y1="267.31" x2="354.33" y2="196.27"/><path class="cls-6" d="M412.2,661.06a81.83,81.83,0,1,0-115.73,0"/><line class="cls-6" x1="354.33" y1="450.31" x2="354.33" y2="521.36"/><line class="cls-6" x1="354.33" y1="267.31" x2="354.33" y2="196.27"/><path class="cls-6" d="M63.65,257.81a81.83,81.83,0,1,0,57.86-100.22"/><line class="cls-6" x1="275.09" y1="313.07" x2="213.56" y2="277.54"/><path class="cls-6" d="M645,459.82A81.83,81.83,0,1,0,587.15,560"/><line class="cls-6" x1="433.57" y1="404.56" x2="495.1" y2="440.09"/><path class="cls-6" d="M645,257.81a81.83,81.83,0,1,1-57.86-100.22"/><line class="cls-6" x1="433.57" y1="313.07" x2="495.1" y2="277.54"/><path class="cls-6" d="M63.65,459.82A81.83,81.83,0,1,1,121.51,560"/><line class="cls-6" x1="275.09" y1="404.56" x2="213.56" y2="440.09"/><path id="_Compound_Path_" data-name="&lt;Compound Path&gt;" class="cls-1" d="M359.15,628.77V625.3a2.6,2.6,0,0,0-2.6-2.6h-7a22.36,22.36,0,0,0-3.4-8.21l5-5a2.6,2.6,0,0,0,0-3.68l-2.45-2.45a2.6,2.6,0,0,0-3.68,0l-5,5a22.36,22.36,0,0,0-8.21-3.4v-7a2.6,2.6,0,0,0-2.6-2.6h-3.47a2.6,2.6,0,0,0-2.6,2.6v7a22.36,22.36,0,0,0-8.21,3.4l-5-5a2.6,2.6,0,0,0-3.68,0l-2.45,2.45a2.6,2.6,0,0,0,0,3.68l5,5a22.36,22.36,0,0,0-3.4,8.21h-7a2.6,2.6,0,0,0-2.6,2.6v3.47a2.6,2.6,0,0,0,2.6,2.6h7a22.36,22.36,0,0,0,3.4,8.21l-5,5a2.6,2.6,0,0,0,0,3.68l2.45,2.45a2.6,2.6,0,0,0,3.68,0l5-5a22.36,22.36,0,0,0,8.21,3.4v7a2.6,2.6,0,0,0,2.6,2.6h3.47a2.6,2.6,0,0,0,2.6-2.6v-7a22.36,22.36,0,0,0,8.21-3.4l5,5a2.6,2.6,0,0,0,3.68,0l2.45-2.45a2.6,2.6,0,0,0,0-3.68l-5-5a22.36,22.36,0,0,0,3.4-8.21h7A2.6,2.6,0,0,0,359.15,628.77Zm-31.69,7.34a9.07,9.07,0,1,1,9.07-9.07A9.07,9.07,0,0,1,327.46,636.1Z"/><path class="cls-7" d="M327.46,614.47A12.56,12.56,0,1,0,340,627,12.56,12.56,0,0,0,327.46,614.47Zm0,18.59a6,6,0,1,1,6-6A6,6,0,0,1,327.46,633.06Z"/><path id="_Compound_Path_2" data-name="&lt;Compound Path&gt;" class="cls-2" d="M412.9,620.1v-3.47a2.6,2.6,0,0,0-2.6-2.6h-7a22.36,22.36,0,0,0-3.4-8.21l5-5a2.6,2.6,0,0,0,0-3.68l-2.45-2.45a2.6,2.6,0,0,0-3.68,0l-5,5a22.36,22.36,0,0,0-8.21-3.4v-7a2.6,2.6,0,0,0-2.6-2.6h-3.47a2.6,2.6,0,0,0-2.6,2.6v7a22.36,22.36,0,0,0-8.21,3.4l-5-5a2.6,2.6,0,0,0-3.68,0l-2.45,2.45a2.6,2.6,0,0,0,0,3.68l5,5a22.36,22.36,0,0,0-3.4,8.21h-7a2.6,2.6,0,0,0-2.6,2.6v3.47a2.6,2.6,0,0,0,2.6,2.6h7a22.36,22.36,0,0,0,3.4,8.21l-5,5a2.6,2.6,0,0,0,0,3.68L360,642a2.6,2.6,0,0,0,3.68,0l5-5a22.36,22.36,0,0,0,8.21,3.4v7a2.6,2.6,0,0,0,2.6,2.6h3.47a2.6,2.6,0,0,0,2.6-2.6v-7a22.36,22.36,0,0,0,8.21-3.4l5,5a2.6,2.6,0,0,0,3.68,0l2.45-2.45a2.6,2.6,0,0,0,0-3.68l-5-5a22.36,22.36,0,0,0,3.4-8.21h7A2.6,2.6,0,0,0,412.9,620.1Zm-31.69,7.34a9.07,9.07,0,1,1,9.07-9.07A9.07,9.07,0,0,1,381.21,627.44Z"/><path class="cls-8" d="M381.21,605.8a12.56,12.56,0,1,0,12.56,12.56A12.56,12.56,0,0,0,381.21,605.8Zm0,18.59a6,6,0,1,1,6-6A6,6,0,0,1,381.21,624.39Z"/><rect class="cls-8" x="123.92" y="254.44" width="4.32" height="26.42"/><polygon class="cls-2" points="126.08 220.85 116.08 238.35 136.07 238.35 126.08 220.85"/><polygon class="cls-2" points="126.08 226.51 110.81 253.23 141.34 253.23 126.08 226.51"/><polygon class="cls-2" points="126.08 235.16 105.69 270.85 146.46 270.85 126.08 235.16"/><rect class="cls-7" x="152.63" y="254.44" width="4.32" height="26.42"/><ellipse class="cls-1" cx="154.79" cy="241.38" rx="14.9" ry="20.52"/><path class="cls-1" d="M174,282.84a11.65,11.65,0,0,1-18.14,0,11.65,11.65,0,0,1-18.14,0,11.65,11.65,0,0,1-18.14,0,11.65,11.65,0,0,1-18.14,0,11.64,11.64,0,0,1-9.07,4.34v3.5H183v-3.5A11.64,11.64,0,0,1,174,282.84Z"/><g id="_Rectangle_" data-name="&lt;Rectangle&gt;"><rect class="cls-7" x="516.48" y="224.08" width="96.17" height="48.23"/><path class="cls-2" d="M608.75,228V268.4H520.38V228h88.37m7.8-7.8h-104v56h104v-56Z"/></g><circle id="_Path_" data-name="&lt;Path&gt;" class="cls-9" cx="564.56" cy="248.19" r="19.58"/><path id="_Path_2" data-name="&lt;Path&gt;" class="cls-10" d="M512.58,220.18V237a18.33,18.33,0,0,0,18.27-16.87Z"/><g id="_Group_" data-name="&lt;Group&gt;"><line id="_Path_3" data-name="&lt;Path&gt;" class="cls-11" x1="554.08" y1="258.04" x2="572.45" y2="258.04"/><path id="_Path_4" data-name="&lt;Path&gt;" class="cls-12" d="M572.45,242.69a7,7,0,0,0-6.95-6.95h0a7,7,0,0,0-6.95,6.95V258"/><line id="_Path_5" data-name="&lt;Path&gt;" class="cls-11" x1="554.08" y1="249.8" x2="567.07" y2="249.8"/></g><path id="_Path_6" data-name="&lt;Path&gt;" class="cls-10" d="M512.58,276.21V259.34a18.33,18.33,0,0,1,18.27,16.86Z"/><path id="_Path_7" data-name="&lt;Path&gt;" class="cls-10" d="M616.54,220.18V237a18.33,18.33,0,0,1-18.27-16.87Z"/><path id="_Path_8" data-name="&lt;Path&gt;" class="cls-10" d="M616.54,276.21V259.34a18.33,18.33,0,0,0-18.27,16.86Z"/><rect class="cls-2" x="67.45" y="513.68" width="10.22" height="11.64" rx="5.11" ry="5.11" transform="translate(515.66 238.76) rotate(65.59)"/><path class="cls-13" d="M77.86,517.1h0a5.11,5.11,0,0,1-2.54,6.76l-1.29.59a5.11,5.11,0,0,1-6.76-2.54h0"/><rect class="cls-2" x="129.98" y="485.31" width="10.22" height="11.64" rx="5.11" ry="5.11" transform="translate(526.51 165.18) rotate(65.59)"/><path class="cls-13" d="M140.39,488.73h0a5.11,5.11,0,0,1-2.54,6.76l-1.29.59a5.11,5.11,0,0,1-6.76-2.54h0"/><path class="cls-1" d="M74.49,518.62h0a7.35,7.35,0,0,1,3.66-9.73l21.77-8.41a34.52,34.52,0,0,0,3.61-1.64L124.2,488a7.35,7.35,0,0,1,9.73,3.66h0a7.35,7.35,0,0,1-3.66,9.73L108.5,509.8a34.52,34.52,0,0,0-3.61,1.64L84.22,522.28A7.35,7.35,0,0,1,74.49,518.62Z"/><path class="cls-1" d="M145.75,510.86l-6.34-16.79a68.92,68.92,0,0,0-3.69-8.14l-8.46-15.83L149,460.23,155.37,477a68.92,68.92,0,0,0,3.69,8.14L167.52,501Z"/><path class="cls-13" d="M133.93,491.66h0a7.35,7.35,0,0,1-3.66,9.73L108.5,509.8a34.52,34.52,0,0,0-3.61,1.64L84.22,522.28a7.35,7.35,0,0,1-9.73-3.66h0"/><path class="cls-13" d="M138.14,465.17l-10.89,4.94,8.46,15.83a68.92,68.92,0,0,1,3.69,8.14l6.34,16.79,10.89-4.94Z"/><rect class="cls-2" x="135.07" y="450.39" width="6.14" height="29.56" rx="3.07" ry="3.07" transform="translate(504.67 147.16) rotate(65.59)"/><rect class="cls-2" x="153.56" y="491.14" width="6.14" height="29.56" rx="3.07" ry="3.07" transform="translate(552.63 154.24) rotate(65.59)"/><path class="cls-13" d="M155.37,503.13,144.7,508a3.07,3.07,0,0,0,2.54,5.59l10.67-4.84Z"/><path class="cls-13" d="M136.88,462.38l-10.67,4.84a3.07,3.07,0,1,0,2.54,5.59L139.41,468Z"/><path class="cls-2" d="M167.77,525.45H120.43a5,5,0,0,1-5,5V539h57.28v-8.61A5,5,0,0,1,167.77,525.45Z"/><rect class="cls-1" x="110.56" y="534.82" width="67.07" height="7.59" rx="3.8" ry="3.8"/><rect id="_Rectangle_2" data-name="&lt;Rectangle&gt;" class="cls-14" x="581.93" y="466.44" width="31.45" height="39.75" transform="translate(978 -183.79) rotate(80.44)"/><rect id="_Rectangle_3" data-name="&lt;Rectangle&gt;" class="cls-15" x="518.68" y="467.82" width="31.45" height="37.38" transform="translate(1102.88 40.29) rotate(99.56)"/><path id="_Rectangle_4" data-name="&lt;Rectangle&gt;" class="cls-15" d="M551.79,477h18.47a12.14,12.14,0,0,1,12.14,12.14v34.79a4.62,4.62,0,0,1-4.62,4.62h-36.4a4.62,4.62,0,0,1-4.62-4.62V492A15,15,0,0,1,551.79,477Z" transform="translate(-192.41 522.97) rotate(-43.48)"/><path id="_Rectangle_5" data-name="&lt;Rectangle&gt;" class="cls-14" d="M548.87,475.78h36.4a4.62,4.62,0,0,1,4.62,4.62v34.79a12.14,12.14,0,0,1-12.14,12.14H559.28a15,15,0,0,1-15-15V480.4A4.62,4.62,0,0,1,548.87,475.78Z" transform="translate(558.69 1258.57) rotate(-130.86)"/><path id="_Path_9" data-name="&lt;Path&gt;" class="cls-14" d="M553.44,534.58l.81.94a3.91,3.91,0,0,0,5.5.4l6.59-5.71a3.91,3.91,0,0,0,.4-5.5l-.81-.94a3.91,3.91,0,0,0-5.5-.4l-6.59,5.71A3.91,3.91,0,0,0,553.44,534.58Z"/><path id="_Path_10" data-name="&lt;Path&gt;" class="cls-14" d="M534.23,521.75l.94,1.08a4.5,4.5,0,0,0,6.32.46l13.35-11.56a4.5,4.5,0,0,0,.46-6.32l-.94-1.08a4.5,4.5,0,0,0-6.32-.46l-13.35,11.56A4.5,4.5,0,0,0,534.23,521.75Z"/><path id="_Path_11" data-name="&lt;Path&gt;" class="cls-14" d="M543.15,529.14l.94,1.08a4.5,4.5,0,0,0,6.32.46l9.9-8.58a4.5,4.5,0,0,0,.46-6.32l-.94-1.08a4.5,4.5,0,0,0-6.32-.46l-9.9,8.58A4.5,4.5,0,0,0,543.15,529.14Z"/><path id="_Path_12" data-name="&lt;Path&gt;" class="cls-14" d="M529.38,510.86l.94,1.08a4.5,4.5,0,0,0,6.32.46l8.34-7.23a4.5,4.5,0,0,0,.46-6.32l-.94-1.08a4.5,4.5,0,0,0-6.32-.46l-8.34,7.23A4.5,4.5,0,0,0,529.38,510.86Z"/><path id="_Path_13" data-name="&lt;Path&gt;" class="cls-13" d="M568.13,536.58l-.9.86a3.91,3.91,0,0,1-5.51-.15l-6-6.33a3.91,3.91,0,0,1,.15-5.51l.9-.86a3.91,3.91,0,0,1,5.51.15l6,6.33A3.91,3.91,0,0,1,568.13,536.58Z"/><path id="_Path_14" data-name="&lt;Path&gt;" class="cls-13" d="M588.51,525.71l-1,1a4.5,4.5,0,0,1-6.34-.17L569,513.71a4.5,4.5,0,0,1,.17-6.34l1-1a4.5,4.5,0,0,1,6.34.17l12.14,12.82A4.5,4.5,0,0,1,588.51,525.71Z"/><path id="_Path_15" data-name="&lt;Path&gt;" class="cls-13" d="M578.91,532.18l-1,1a4.5,4.5,0,0,1-6.34-.17l-9-9.51a4.5,4.5,0,0,1,.17-6.34l1-1a4.5,4.5,0,0,1,6.34.17l9,9.51A4.5,4.5,0,0,1,578.91,532.18Z"/><path id="_Path_16" data-name="&lt;Path&gt;" class="cls-15" d="M569.89,537l-.9.86a3.91,3.91,0,0,1-5.51-.15l-6-6.33a3.91,3.91,0,0,1,.15-5.51l.9-.86a3.91,3.91,0,0,1,5.51.15l6,6.33A3.91,3.91,0,0,1,569.89,537Z"/><path id="_Path_17" data-name="&lt;Path&gt;" class="cls-15" d="M590.27,526.1l-1,1a4.5,4.5,0,0,1-6.34-.17L570.75,514.1a4.5,4.5,0,0,1,.17-6.34l1-1a4.5,4.5,0,0,1,6.34.17l12.14,12.82A4.5,4.5,0,0,1,590.27,526.1Z"/><path id="_Path_18" data-name="&lt;Path&gt;" class="cls-15" d="M580.67,532.57l-1,1a4.5,4.5,0,0,1-6.34-.17l-9-9.51a4.5,4.5,0,0,1,.17-6.34l1-1a4.5,4.5,0,0,1,6.34.17l9,9.51A4.5,4.5,0,0,1,580.67,532.57Z"/><path id="_Path_19" data-name="&lt;Path&gt;" class="cls-16" d="M577.83,508.85l1.37,1.45-5.14,4.92-1.4-1.47a3.56,3.56,0,1,1,5.17-4.9Z"/><path id="_Path_20" data-name="&lt;Path&gt;" class="cls-16" d="M571.79,519.13l1.37,1.45L568,525.5l-1.4-1.47a3.56,3.56,0,1,1,5.17-4.9Z"/><path id="_Path_21" data-name="&lt;Path&gt;" class="cls-16" d="M564.47,527l1.37,1.45-5.14,4.92-1.4-1.47a3.56,3.56,0,1,1,5.17-4.9Z"/><path id="_Path_22" data-name="&lt;Path&gt;" class="cls-13" d="M594.42,515.35l-1,1a4.5,4.5,0,0,1-6.34-.17l-7.59-8a4.5,4.5,0,0,1,.17-6.34l1-1A4.5,4.5,0,0,1,587,501l7.59,8A4.5,4.5,0,0,1,594.42,515.35Z"/><path id="_Path_23" data-name="&lt;Path&gt;" class="cls-15" d="M596.17,515.74l-1,1a4.5,4.5,0,0,1-6.34-.17l-7.59-8a4.5,4.5,0,0,1,.17-6.34l1-1a4.5,4.5,0,0,1,6.34.17l7.59,8A4.5,4.5,0,0,1,596.17,515.74Z"/><path id="_Path_24" data-name="&lt;Path&gt;" class="cls-16" d="M588.29,503.28l1.37,1.45-5.14,4.92-1.4-1.47a3.56,3.56,0,1,1,5.17-4.9Z"/><path id="_Path_25" data-name="&lt;Path&gt;" class="cls-13" d="M594.07,485.09h0a5.06,5.06,0,0,0-4.42-5.86l-7.56.69c-6.38.58-8.52,0-14.19-2.46l-7.74-3.39c-3.53-1.51-7.5,1.81-7.77,5.73-.24,3.56,2.92,6.66,6.35,7.81,0,0,11.79,4.62,28.92,2.79C590.78,490.07,593.07,489.15,594.07,485.09Z"/><path id="_Path_26" data-name="&lt;Path&gt;" class="cls-15" d="M593.31,483.71h0a5.06,5.06,0,0,0-4.42-5.86l-7.56.69c-6.38.58-8.52,0-14.19-2.46l-7.74-3.39c-3.53-1.51-7.5,1.81-7.77,5.73-.24,3.56,2.92,6.66,6.35,7.81,0,0,11.79,4.62,28.92,2.79C590,488.69,592.31,487.77,593.31,483.71Z"/><rect id="_Rectangle_6" data-name="&lt;Rectangle&gt;" class="cls-7" x="498.5" y="475.73" width="41.51" height="16.94" transform="translate(1078.56 46.87) rotate(98.98)"/><rect id="_Rectangle_7" data-name="&lt;Rectangle&gt;" class="cls-8" x="589.11" y="475.73" width="41.51" height="16.94" transform="translate(992.97 -193.76) rotate(81.02)"/><rect class="cls-8" x="322.66" y="136.42" width="81.25" height="32.3"/><polygon class="cls-8" points="327.82 91.33 312.63 91.33 306.61 97.89 306.61 109.04 333.84 109.04 333.84 97.89 327.82 91.33"/><polygon class="cls-8" points="322.42 80.72 318.03 80.72 313.94 87.28 313.94 98.44 326.51 98.44 326.51 87.28 322.42 80.72"/><path class="cls-2" d="M333.84,93.5v5h-3.36C330.57,98.54,333.84,93.5,333.84,93.5Z"/><path class="cls-2" d="M306.61,93.5v5H310C309.88,98.54,306.61,93.5,306.61,93.5Z"/><path class="cls-8" d="M326.51,83.06v5h-3.36C323.25,88.11,326.51,83.06,326.51,83.06Z"/><path class="cls-8" d="M313.94,83.06v5h3.36C317.2,88.11,313.94,83.06,313.94,83.06Z"/><rect class="cls-8" x="318.56" y="78.67" width="3.32" height="1.8"/><rect class="cls-8" x="319.55" y="74.29" width="1.35" height="10.16"/><polygon class="cls-8" points="362.65 125 358.71 149.17 366.6 149.17 362.65 125"/><polygon class="cls-8" points="387.53 125 383.59 149.17 391.47 149.17 387.53 125"/><polygon class="cls-8" points="350.22 125 346.27 149.17 354.16 149.17 350.22 125"/><polygon class="cls-8" points="375.09 125 371.15 149.17 379.04 149.17 375.09 125"/><polygon class="cls-8" points="337.78 125 333.84 149.17 341.72 149.17 337.78 125"/><polygon class="cls-8" points="399.97 125 396.02 149.17 403.91 149.17 399.97 125"/><rect class="cls-2" x="306.61" y="104.12" width="27.23" height="64.59"/><rect class="cls-2" x="304.75" y="99.42" width="30.94" height="24.49"/><circle class="cls-17" cx="320.22" cy="111.67" r="9.84"/><rect class="cls-17" x="322.14" y="127.44" width="2.34" height="38.35" rx="1.17" ry="1.17"/><rect class="cls-17" x="315.97" y="127.44" width="2.34" height="38.35" rx="1.17" ry="1.17"/><rect class="cls-17" x="309.81" y="127.44" width="2.34" height="38.35" rx="1.17" ry="1.17"/><rect class="cls-17" x="328.3" y="127.44" width="2.34" height="38.35" rx="1.17" ry="1.17"/></svg>