<svg xmlns="http://www.w3.org/2000/svg" xmlns:xlink="http://www.w3.org/1999/xlink" viewBox="0 0 708.66 639.06"><defs><style>.cls-1,.cls-12{fill:none;}.cls-2{isolation:isolate;}.cls-3{fill:#f4e8df;}.cls-3,.cls-4,.cls-5{fill-rule:evenodd;}.cls-4{fill:#161616;opacity:0.07;}.cls-5{fill:#fc5f51;}.cls-6{fill:#fccc97;}.cls-7{opacity:0.05;}.cls-10,.cls-7{mix-blend-mode:multiply;}.cls-8{fill:#8ba9cc;}.cls-9{fill:#fff;}.cls-10{opacity:0.15;}.cls-11{fill:#f4f4f4;}.cls-12{stroke:#f8ffff;stroke-linecap:round;stroke-linejoin:round;stroke-width:6px;}.cls-13{clip-path:url(#clip-path);}</style><clipPath id="clip-path"><circle class="cls-1" cx="1693.48" cy="1337.41" r="321.09"/></clipPath></defs><title>CS-L2-U3</title><g class="cls-2"><g id="Layer_1" data-name="Layer 1"><path class="cls-3" d="M363.06,41.72c133.77,0,242.23,108.46,242.23,242.24S496.83,526.19,363.06,526.19,120.79,417.7,120.79,284,229.28,41.72,363.06,41.72Z"/><path class="cls-4" d="M283.44,145.94A92,92,0,0,1,362,190.09a92,92,0,0,1,170.6,47.79c0,63-132.8,170.34-170.6,208.08-37.75-37.74-170.55-145-170.55-208.08a91.94,91.94,0,0,1,92-91.94Z"/><path class="cls-5" d="M283.44,139.94A92,92,0,0,1,362,184.09a92,92,0,0,1,170.6,47.79c0,63-132.8,170.34-170.6,208.08-37.75-37.74-170.55-145-170.55-208.08a91.94,91.94,0,0,1,92-91.94Z"/><path class="cls-4" d="M428,304.31c8.17-4.88,11.37-14.58,7.15-21.64s-14.28-8.84-22.45-4L331.19,327.4l-2.59-4.34L422,267.27c16.59-9.92,17.69-18.35,13.47-25.42s-12.17-10.09-28.76-.18l-93.35,55.79-2.41-4L389,246.79c16.59-9.92,19.79-19.61,15.57-26.67s-14.28-8.84-30.87,1.08L267.58,284.6l-.07-.17s18-38.24,21.75-46c11.63-24.23-5-35.61-5-35.61-12-10.07-23.76,9.65-23.76,9.65s-47.51,67.06-53.13,73.9c-21.3,25.93-8.46,51.08-8.46,51.08l-9.13,5.46-.06-.09-9,5.4-12.16-20.35L150.2,338.8-368,648.55-285.3,787l.67-.4.4.67L252.33,466.58l-7.56-12.66,8.39-5-.07-.12,111-66.36-.06-.1,58-34.66c16.59-9.92,16.64-17.72,12.41-24.79s-11.12-10.72-27.71-.81l-58,34.66L346.49,353Z"/><polygon class="cls-6" points="237.99 449.47 187.62 365.19 259.19 284.63 291.83 262.23 360.11 376.48 237.99 449.47"/><path class="cls-6" d="M430.46,316.92c4.22,7.07,4.18,14.87-12.41,24.79l-75.59,45.18c.25-.15-9.8-1.92-14-9s-1-16.76-1.27-16.61l75.59-45.18C419.34,306.2,426.23,309.86,430.46,316.92Z"/><path class="cls-6" d="M431.11,276.66c4.22,7.07,1,16.76-7.15,21.64L338.9,349.14c-8.17,4.88-8.75-2.55-13-9.61s-10.49-11.1-2.32-16l85.06-50.84C416.83,267.83,426.88,269.6,431.11,276.66Z"/><path class="cls-6" d="M431.42,235.85c4.22,7.07,3.13,15.5-13.47,25.42l-100.47,60c.25-.15-8.75-2.55-13-9.61s-2.08-16.13-2.32-16l100.47-60C419.25,225.76,427.2,228.79,431.42,235.85Z"/><path class="cls-6" d="M400.53,214.11c4.22,7.07,1,16.76-15.57,26.67L267.6,310.93c.25-.15-9.8-1.92-14-9s-1-16.76-1.27-16.61l117.36-70.14C386.25,205.28,396.3,207,400.53,214.11Z"/><path class="cls-6" d="M280.25,196.81s16.62,11.38,5,35.61c-3.72,7.76-21.75,46-21.75,46s25.29,58.61-17.19,95.85c-45.6,40-76.58,45.77-76.58,45.77L158.91,353l36-21.51s-12.84-25.15,8.46-51.08c5.62-6.84,53.13-73.9,53.13-73.9S268.25,186.74,280.25,196.81Z"/><path class="cls-6" d="M280.25,196.81s16.62,11.38,5,35.61c-3.72,7.76-21.75,46-21.75,46s25.29,58.61-17.19,95.85c-45.6,40-76.58,45.77-76.58,45.77L158.91,353l36-21.51s-12.84-25.15,8.46-51.08c5.62-6.84,53.13-73.9,53.13-73.9S268.25,186.74,280.25,196.81Z"/><path class="cls-7" d="M224.92,457.3l-14.16-20.8c-2.11,1-4.09,1.94-6,2.76l-35-58.49-7.66-29.9,23.53-14.06L249.16,443Z"/><rect class="cls-8" x="-373.43" y="476.25" width="603.76" height="161.3" transform="translate(-295.84 42.17) rotate(-30.87)"/><rect class="cls-9" x="186.07" y="315.91" width="21.34" height="161.3" transform="translate(-175.58 157.09) rotate(-30.87)"/><polygon class="cls-10" points="-288.24 781.27 -320.47 727.34 197.79 417.6 216.1 406.65 248.33 460.58 -288.24 781.27"/><circle class="cls-11" cx="132.09" cy="367.15" r="11.3"/><path class="cls-12" d="M508.29,227.64q.19.83.36,1.66a91.06,91.06,0,0,1,1.85,18.31"/><path class="cls-12" d="M431,162.55c32,0,59.64,20.25,72.25,49.43"/></g></g></svg>