<svg id="Layer_1" data-name="Layer 1" xmlns="http://www.w3.org/2000/svg" viewBox="0 0 708.66 481.89"><defs><style>.cls-1,.cls-44,.cls-6{fill:#648ec9;}.cls-1{opacity:0.85;}.cls-2{fill:#181819;}.cls-17,.cls-2,.cls-21,.cls-42{opacity:0.07;}.cls-3{fill:#bfbfbf;}.cls-15,.cls-4{fill:#dc846a;}.cls-5{fill:#3f5aa8;}.cls-7{fill:#b3b2b3;}.cls-8{fill:#4d4e4e;}.cls-11,.cls-9{fill:#f8ab8d;}.cls-15,.cls-33,.cls-9{fill-rule:evenodd;}.cls-10,.cls-20{fill:#fff;}.cls-12{fill:#e5e5e4;}.cls-13{fill:#a09f9f;}.cls-14{fill:#979797;}.cls-16{fill:#070707;opacity:0.15;}.cls-18{fill:#141414;}.cls-19{fill:#a3a3a3;}.cls-20,.cls-43{stroke:#dc846a;stroke-linecap:round;stroke-linejoin:round;stroke-width:3px;}.cls-21{fill:#212020;}.cls-22{fill:#a5a4a4;}.cls-23{fill:#d1d0cf;}.cls-24{fill:#605f5e;}.cls-25{fill:#fece57;}.cls-26{fill:#f8be49;}.cls-27{fill:#8d5c3e;}.cls-28{fill:#c5e4f9;opacity:0.34;}.cls-29{fill:#e2f0f7;opacity:0.38;}.cls-30{fill:#a6c1e2;}.cls-31{fill:#e5e5e5;}.cls-32{fill:#f4e8df;}.cls-33,.cls-35{fill:#ee4256;}.cls-34{fill:#e7685d;}.cls-36{fill:#ffdc83;}.cls-37{fill:#fdd8b8;}.cls-38{fill:#515180;}.cls-39{fill:#54402b;}.cls-40{fill:#8b6339;}.cls-41{fill:#6c4e38;}.cls-42{fill:#0f0d0e;}.cls-43{fill:none;}.cls-44{font-size:23.88px;font-family:Impact, Impact;letter-spacing:0.18em;}</style></defs><title>CS-L2-U3</title><circle class="cls-1" cx="391.67" cy="165.25" r="155.06"/><path class="cls-2" d="M518.13,193.81a8.32,8.32,0,0,0-4.58-3.57L471,164.39a8.29,8.29,0,0,0-4.54-1.2,14.65,14.65,0,0,0-7.06-1.8h-5.92L448.3,158v-1.23a21.85,21.85,0,0,0,10.42-9.64,6,6,0,0,0,8.68-7,6,6,0,0,0,4.79-8.23,6,6,0,0,0,1.47-8.71,6,6,0,0,0-2.34-9.18,5.91,5.91,0,0,0-.67-4.81h.27V74.93a12.53,12.53,0,0,0-7.62-22.49c-.22,0-.44,0-.66,0s-.44,0-.66,0a12.47,12.47,0,0,0-7.45,2.47A12.5,12.5,0,0,0,436.89,56a12.66,12.66,0,0,0-15.34,20.13v32.84a5.9,5.9,0,0,0-2.29,5.78,6,6,0,0,0,3.56,10.74l.39,0c-.16,1-.28,2-.36,3.1-.67,9,2,27,15.33,29.89l.79,0-6.21,2.94H430.1a15.07,15.07,0,0,0-7.31,1.88l-45.1,16.09a8.37,8.37,0,0,0-5.07,10.69h0a8.39,8.39,0,0,0,.65,1.39L391.22,235l-1.81.86,5,10.56,3.37-1.59,4.59,10.45s3.9,2.65,7.77,4.67a13.12,13.12,0,0,0,4.49,11.46l.26.31V352h5.93v49.83h2v3.33a6.23,6.23,0,0,0-1.83.18L399.35,411a3.27,3.27,0,0,0-2.45,3.17v2.12a1.25,1.25,0,0,0,1.25,1.25h68.71a2.48,2.48,0,0,0,2.48-2.48v-8.29a1.25,1.25,0,0,0-1.14-1.24v-3.68h1.9V352h4V233l1.31-.72-1-1.75,41-25.25A8.39,8.39,0,0,0,518.13,193.81Zm-44.07-8,20.67,12.54-20.67,12.73Zm-82.4,6.3,23.23-8.29v57.73c-1.22-.48-2.4-1-3.37-1.36l-.78-1.57,3.68-1.74-5-10.56-3.06,1.45Zm63.06,209.69v3.34a6.21,6.21,0,0,0-2,.18l-15.19,4v-2.56a1.25,1.25,0,0,0-1.26-1.25v-3.67h1.9V352h14.49v49.83Z"/><rect id="_Rectangle_" data-name="&lt;Rectangle&gt;" class="cls-3" x="394.9" y="141.4" width="16.73" height="67.87" rx="8.37" ry="8.37" transform="translate(373.66 614.07) rotate(-109.64)"/><path id="_Path_" data-name="&lt;Path&gt;" class="cls-4" d="M407.81,235.9a109.11,109.11,0,0,0,11.51,4.34c.36,5.19-6.89,5.3-6.89,5.3Z"/><path id="_Path_2" data-name="&lt;Path&gt;" class="cls-5" d="M460.14,349.78h0a6.74,6.74,0,0,0-6.74,6.74v47.76a6.74,6.74,0,0,0,6.74,6.74h0a6.74,6.74,0,0,0,6.74-6.74V356.52A6.74,6.74,0,0,0,460.14,349.78Z"/><path id="_Rectangle_2" data-name="&lt;Rectangle&gt;" class="cls-6" d="M460.09,246.08h0a8.7,8.7,0,0,1,8.7,8.7V398.52a0,0,0,0,1,0,0h-17.4a0,0,0,0,1,0,0V254.78A8.7,8.7,0,0,1,460.09,246.08Z"/><path id="_Path_3" data-name="&lt;Path&gt;" class="cls-7" d="M468,403.44v8.23H427.35v-.82a3.27,3.27,0,0,1,2.45-3.16L451.45,402a6,6,0,0,1,3,0c5.78,1.5,9.85.83,11.93.21A1.25,1.25,0,0,1,468,403.44Z"/><path id="_Path_4" data-name="&lt;Path&gt;" class="cls-8" d="M468,411.66v.07a2.48,2.48,0,0,1-2.48,2.48H428.6a1.25,1.25,0,0,1-1.25-1.25v-1.3Z"/><path id="_Path_5" data-name="&lt;Path&gt;" class="cls-5" d="M428.25,349.78h0a6.74,6.74,0,0,0-6.74,6.74v47.76a6.74,6.74,0,0,0,6.74,6.74h0a6.74,6.74,0,0,0,6.74-6.74V356.52A6.74,6.74,0,0,0,428.25,349.78Z"/><path id="_Rectangle_3" data-name="&lt;Rectangle&gt;" class="cls-6" d="M428.2,246.08h0a8.7,8.7,0,0,1,8.7,8.7V398.52a0,0,0,0,1,0,0H419.5a0,0,0,0,1,0,0V254.78A8.7,8.7,0,0,1,428.2,246.08Z"/><path id="_Path_6" data-name="&lt;Path&gt;" class="cls-7" d="M436.26,403.44v8.23H395.58v-.82a3.27,3.27,0,0,1,2.45-3.16L419.68,402a6,6,0,0,1,3,0c5.78,1.5,9.85.83,11.93.21A1.25,1.25,0,0,1,436.26,403.44Z"/><path id="_Path_7" data-name="&lt;Path&gt;" class="cls-8" d="M436.26,411.66v.07a2.48,2.48,0,0,1-2.48,2.48H396.83a1.25,1.25,0,0,1-1.25-1.25v-1.3Z"/><path id="_Path_8" data-name="&lt;Path&gt;" class="cls-9" d="M436.85,155.11c14.6.78,22.36-10,24.75-23.4,2.51-14.11-6.94-25.79-18.38-25.83-13,0-20.62,5-21.69,19.33-.67,9,2,27,15.33,29.89Z"/><path id="_Rectangle_4" data-name="&lt;Rectangle&gt;" class="cls-10" d="M436.5,158.07h14.06a22.19,22.19,0,0,1,22.19,22.19V348.69a0,0,0,0,1,0,0H413.57a0,0,0,0,1,0,0V181a22.93,22.93,0,0,1,22.93-22.93Z"/><polygon id="_Path_9" data-name="&lt;Path&gt;" class="cls-3" points="455.51 158.07 457.29 163.96 452.45 168.79 454.48 172.59 433.19 202.53 424.78 172.51 427.42 168.59 425.71 163.96 429.41 158.07 455.51 158.07"/><polygon id="_Path_10" data-name="&lt;Path&gt;" class="cls-10" points="431.43 158.07 435.19 192.6 452.1 158.07 431.43 158.07"/><path id="_Path_11" data-name="&lt;Path&gt;" class="cls-11" d="M442.59,143.24h.15a4.25,4.25,0,0,0-4.23,4.38V157c0,2.42,1.81,3.17,4.23,3.17h-.08c2.42,0,4.3-.75,4.3-3.17v-9.36A4.38,4.38,0,0,0,442.59,143.24Z"/><polygon id="_Path_12" data-name="&lt;Path&gt;" class="cls-12" points="452.1 158.07 446.97 154.72 441.38 159.32 444.64 167 452.1 158.07"/><polygon id="_Path_13" data-name="&lt;Path&gt;" class="cls-12" points="431.43 158.07 438.52 154.72 441.38 159.32 435.19 167 431.43 158.07"/><ellipse id="_Path_14" data-name="&lt;Path&gt;" class="cls-13" cx="437.25" cy="218.73" rx="2.75" ry="3.4"/><ellipse id="_Path_15" data-name="&lt;Path&gt;" class="cls-13" cx="437.25" cy="237.32" rx="2.75" ry="3.4"/><path id="_Path_16" data-name="&lt;Path&gt;" class="cls-14" d="M428.7,103.4s7.15-5.2,15.1-4.53c12.53,1.05,16.67,9.11,16.67,9.11a13.51,13.51,0,0,1,5.42-1c-1.63,1.89-2.59,2.72-3.32,5.43,1.37,3.52,1.37,8.82,1.19,12.19a3.37,3.37,0,0,0-2.88-.72l-.46.11h0l-.22.08-.22.08-.24.11-.17.08-.28.15-.22.14-.22.15-.2.16-.2.17-.39.37s0,0,0,0l-.08.09,0,.06,0,.06,0,0,0,0v0a.17.17,0,0,0,0,0V132a2.76,2.76,0,0,1-.66,2.06,3.35,3.35,0,0,1-.28.31,4.4,4.4,0,0,1-1.87.55A3.21,3.21,0,0,1,451.8,132v-2.2a3.18,3.18,0,0,0-2.92-3.17l-.56,0c0-2.5,0-4.49,0-5.72,0-1.53-.54-2.54-3.93-2.88h-.1l-1-.07h-.07c-.59,0-1.24,0-2,0H425.75l-.18,0a7.68,7.68,0,0,1-4.26-2.91"/><g id="_Group_" data-name="&lt;Group&gt;"><line id="_Path_17" data-name="&lt;Path&gt;" class="cls-14" x1="425.85" y1="123.44" x2="430.54" y2="125.75"/><path id="_Path_18" data-name="&lt;Path&gt;" class="cls-14" d="M425.33,124.14a.87.87,0,0,1,.91-1.48l4.69,2.31a.87.87,0,1,1-.77,1.56l-4.69-2.31Z"/></g><g id="_Group_2" data-name="&lt;Group&gt;"><line id="_Path_19" data-name="&lt;Path&gt;" class="cls-14" x1="437.76" y1="125.77" x2="442.85" y2="124.6"/><path id="_Path_20" data-name="&lt;Path&gt;" class="cls-14" d="M437.79,126.64a.87.87,0,0,1-.23-1.72l5.09-1.17a.87.87,0,0,1,.39,1.7L438,126.62Z"/></g><circle id="_Path_21" data-name="&lt;Path&gt;" cx="441.36" cy="129.6" r="1.18"/><circle id="_Path_22" data-name="&lt;Path&gt;" cx="427.69" cy="129.34" r="1.18"/><polygon id="_Path_23" data-name="&lt;Path&gt;" class="cls-15" points="434.96 128.41 435.12 135.86 432.92 135.5 434.96 128.41"/><g id="_Group_3" data-name="&lt;Group&gt;"><path id="_Path_24" data-name="&lt;Path&gt;" class="cls-9" d="M457.76,125.75a6.92,6.92,0,0,1,2.41-2.52c3.73-2.59,8.08-.49,6.42,3.94-1.16,3.09-3.13,10.75-5.54,8A14.69,14.69,0,0,1,457.76,125.75Z"/><polygon id="_Path_25" data-name="&lt;Path&gt;" class="cls-15" points="460.64 126.2 465.54 125.38 461.84 132.1 463.09 126.56 460.64 126.2"/></g><circle id="_Path_26" data-name="&lt;Path&gt;" class="cls-14" cx="423.8" cy="110.39" r="5.97"/><circle id="_Path_27" data-name="&lt;Path&gt;" class="cls-14" cx="421.49" cy="116.18" r="5.97"/><circle id="_Path_28" data-name="&lt;Path&gt;" class="cls-14" cx="431.27" cy="113.75" r="5.97"/><circle id="_Path_29" data-name="&lt;Path&gt;" class="cls-14" cx="440.18" cy="113.75" r="5.97"/><circle id="_Path_30" data-name="&lt;Path&gt;" class="cls-14" cx="447.96" cy="116.18" r="5.97"/><circle id="_Path_31" data-name="&lt;Path&gt;" class="cls-14" cx="452.42" cy="122.14" r="5.97"/><circle id="_Path_32" data-name="&lt;Path&gt;" class="cls-14" cx="427.28" cy="104.42" r="5.97"/><circle id="_Path_33" data-name="&lt;Path&gt;" class="cls-14" cx="442.32" cy="97.11" r="5.97"/><circle id="_Path_34" data-name="&lt;Path&gt;" class="cls-14" cx="435.1" cy="98.45" r="5.97"/><circle id="_Path_35" data-name="&lt;Path&gt;" class="cls-14" cx="450.87" cy="98" r="5.97"/><circle id="_Path_36" data-name="&lt;Path&gt;" class="cls-14" cx="459.54" cy="101.82" r="5.97"/><circle id="_Path_37" data-name="&lt;Path&gt;" class="cls-14" cx="464.26" cy="109.04" r="5.97"/><circle id="_Path_38" data-name="&lt;Path&gt;" class="cls-14" cx="467.65" cy="116.18" r="5.97"/><circle id="_Path_39" data-name="&lt;Path&gt;" class="cls-14" cx="459.43" cy="125.38" r="5.97"/><circle id="_Path_40" data-name="&lt;Path&gt;" class="cls-14" cx="459.4" cy="132.93" r="5.97"/><circle id="_Path_41" data-name="&lt;Path&gt;" class="cls-14" cx="467.65" cy="123.56" r="5.97"/><circle id="_Path_42" data-name="&lt;Path&gt;" class="cls-14" cx="460.42" cy="138.72" r="5.97"/><path id="_Rectangle_5" data-name="&lt;Rectangle&gt;" class="cls-3" d="M386.58,173.68h4.9a5.92,5.92,0,0,1,5.92,5.92v53.59a8.37,8.37,0,0,1-8.37,8.37h0a8.37,8.37,0,0,1-8.37-8.37V179.6A5.92,5.92,0,0,1,386.58,173.68Z" transform="translate(827.81 251.43) rotate(157.61)"/><path id="_Path_43" data-name="&lt;Path&gt;" class="cls-11" d="M395.26,238.79,401,251.95s9.11,6.19,13.3,6.85c4.87.77,10.74-1.9,11.79-2.47,2.82-1.52-11.19-9.85-11.19-9.85L408.6,233.7Z"/><rect id="_Rectangle_6" data-name="&lt;Rectangle&gt;" class="cls-10" x="389.52" y="227.22" width="22.15" height="11.69" transform="translate(862.39 272.26) rotate(154.66)"/><circle id="_Path_44" data-name="&lt;Path&gt;" class="cls-14" cx="465.36" cy="130.9" r="5.97"/><rect id="_Rectangle_7" data-name="&lt;Rectangle&gt;" class="cls-16" x="417.84" y="192.6" width="10.71" height="4.87" transform="translate(846.38 390.08) rotate(-180)"/><rect id="_Rectangle_8" data-name="&lt;Rectangle&gt;" class="cls-13" x="417.84" y="192.74" width="10.71" height="4.87" transform="translate(846.38 390.35) rotate(-180)"/><path id="_Path_45" data-name="&lt;Path&gt;" class="cls-4" d="M456.25,219.82a109.11,109.11,0,0,1-12.29.47c-2,4.8,4.85,7.21,4.85,7.21Z"/><g class="cls-17"><path class="cls-18" d="M434.27,262.23a13.1,13.1,0,1,1-24.88-8.2"/><path class="cls-18" d="M461.24,211.06l-10.3-3.4a2.06,2.06,0,0,0-2.6,1.31l-.08.23-.34,1-17.1,51.86,3.15,1,16.46-49.92a2,2,0,0,1,2.58-1.3l7.16,2.36a1.69,1.69,0,0,0,2.13-1.07h0A1.69,1.69,0,0,0,461.24,211.06Z"/></g><path class="cls-19" d="M435.59,263.56a13.1,13.1,0,0,1-24.88-8.2"/><path class="cls-19" d="M462.56,212.39l-10.3-3.4a2.06,2.06,0,0,0-2.6,1.31l-.08.23-.34,1-17.1,51.86,3.15,1,16.46-49.92a2,2,0,0,1,2.58-1.3l7.16,2.36a1.69,1.69,0,0,0,2.13-1.07h0A1.69,1.69,0,0,0,462.56,212.39Z"/><rect id="_Rectangle_9" data-name="&lt;Rectangle&gt;" class="cls-3" x="478.78" y="147.55" width="16.73" height="67.87" rx="8.37" ry="8.37" transform="translate(79.26 503.79) rotate(-58.75)"/><path id="_Rectangle_10" data-name="&lt;Rectangle&gt;" class="cls-3" d="M487.91,174.35h0a8.37,8.37,0,0,1,8.37,8.37v53.59a5.92,5.92,0,0,1-5.92,5.92h-4.9a5.92,5.92,0,0,1-5.92-5.92V182.72a8.37,8.37,0,0,1,8.37-8.37Z" transform="translate(409.36 -316.38) rotate(58.37)"/><path id="_Path_46" data-name="&lt;Path&gt;" class="cls-11" d="M464.56,229.85l-12.41,7.25s-11-.35-14.79-2.27c-4.39-2.24-7.57-7.85-8.09-8.93-1.39-2.89,14.84-1.4,14.84-1.4l12.64-6.62Z"/><rect id="_Rectangle_11" data-name="&lt;Rectangle&gt;" class="cls-10" x="452.54" y="216.25" width="22.15" height="11.69" transform="translate(435.97 -291.23) rotate(61.32)"/><line class="cls-20" x1="430.76" y1="142.04" x2="440.18" y2="143.24"/><rect class="cls-10" x="420.22" y="64.44" width="49.36" height="41.45"/><circle class="cls-21" cx="428.61" cy="63.08" r="12.54"/><circle class="cls-10" cx="427.85" cy="62.83" r="12.54"/><circle class="cls-21" cx="461.96" cy="61.66" r="12.54"/><circle class="cls-10" cx="460.64" cy="61.66" r="12.54"/><circle class="cls-21" cx="444.9" cy="61" r="12.54"/><circle class="cls-10" cx="444.9" cy="61.66" r="12.54"/><rect class="cls-10" x="214" y="317.77" width="339.08" height="165.07"/><rect class="cls-22" x="449.84" y="267.66" width="85.1" height="20.44"/><path class="cls-23" d="M476.88,253.3H502.4a14.82,14.82,0,0,1,14.82,14.82v0a0,0,0,0,1,0,0H462.06a0,0,0,0,1,0,0v0A14.82,14.82,0,0,1,476.88,253.3Z"/><rect class="cls-23" x="523.52" y="212.09" width="4.73" height="55.57"/><rect class="cls-23" x="510.52" y="201.64" width="26.79" height="14.79"/><rect class="cls-24" x="515.2" y="204" width="18.22" height="10.06"/><path class="cls-25" d="M375.9,271.48a2.1,2.1,0,0,0-2,.24,4.1,4.1,0,0,0-.44.33,27.5,27.5,0,0,1-16.77,5.37c-11.74,0-21.46-6.58-23.2-15.18v-1.63a1.17,1.17,0,1,0-2.34,0v4.55a1.16,1.16,0,0,0,.06.31,14.1,14.1,0,0,0-1.25,5.68c0,9.92,10.51,18,23.51,18,10.9,0,20.08-5.67,22.74-13.38a.22.22,0,0,0,.06-.12,4.76,4.76,0,0,0,.5-2A2.25,2.25,0,0,0,375.9,271.48Z"/><path class="cls-26" d="M332.6,266.68s11.06,25.46,41,7.62c0,0-7.73,8-17.81,10C346.73,286,333.22,280.89,332.6,266.68Z"/><ellipse class="cls-27" cx="375.46" cy="272.23" rx="0.87" ry="1.37" transform="translate(-21.48 512.07) rotate(-67.09)"/><rect class="cls-28" x="220.63" y="189.18" width="167.98" height="98.92"/><polygon class="cls-29" points="313.34 287.14 390.43 210.04 390.43 188.22 389.74 188.22 290.82 287.14 313.34 287.14"/><polygon class="cls-29" points="275.39 287.14 374.31 188.22 329.29 188.22 230.37 287.14 275.39 287.14"/><rect class="cls-30" x="206.44" y="285.73" width="376.61" height="32.04" rx="16.02" ry="16.02"/><polygon class="cls-31" points="214 182.08 214 285.73 220.63 285.73 220.63 189.18 388.61 189.18 388.61 285.73 396.22 285.73 396.22 182.08 214 182.08"/><circle class="cls-32" cx="367.06" cy="67.6" r="27.67"/><circle class="cls-32" cx="394.74" cy="103.07" r="7.01"/><circle class="cls-32" cx="406.7" cy="118.05" r="4.3"/><path class="cls-33" d="M368.29,75.09h-2.6a1.31,1.31,0,0,1-1.3-1.3V66.41a1.3,1.3,0,0,1,1.3-1.3H367A3.17,3.17,0,0,0,370.21,62a3.15,3.15,0,1,0-6.29,0c0,1.44-1.17,1.45-2.6,1.45s-2.6,0-2.6-1.45a8.35,8.35,0,1,1,10.88,8v3.86a1.3,1.3,0,0,1-1.3,1.3Zm0,6.51h-2.6a1.31,1.31,0,0,1-1.3-1.3V77.84a1.3,1.3,0,0,1,1.3-1.3h2.6a1.3,1.3,0,0,1,1.3,1.3v2.46a1.31,1.31,0,0,1-1.3,1.3Z"/><path class="cls-2" d="M365,216.45c-2.67-3.13-12.43-7.53-12.43-7.53l-13.72,2.49-26.24-3.34.12-1.24-19.56-1.7L275.72,169.9v-.1c0-6.75-6.59-12.23-14.77-12.32h-14v-5.27a29,29,0,0,0,5.73.24c15.24-3.34,18.33-24,17.56-34.25,0-.18,0-.36,0-.54a60.91,60.91,0,0,0,1.39-12.15c0-13.06-5.9-12.91-6.85-12.8-5-9.84-13.71-11.17-23.2-9.57a32.47,32.47,0,0,0-12.59,4.79,7.11,7.11,0,0,0-3.19-2.82c-4.34-1.9-9.82,1.07-12.25,6.62s-.88,11.59,3.46,13.49a6.8,6.8,0,0,0,1.54.46,40.7,40.7,0,0,0,.84,12.64,3.92,3.92,0,0,0-.42,2.2,5.73,5.73,0,0,0,.4,2.44c.58,1.55,1.34,4.1,2.24,6.21-1.63,1.62-4.76,5.18-5.61,9-.91,4,1.4,14.47,1.4,14.47l5.22,4.86h-3.68c-8.26,0-15,5.52-15,12.32l.14,1a7.55,7.55,0,0,0,.29,2.07c1.12,8.13,4.06,30.18,4.06,38.6,0,11.84-3.62,44.95-4.36,51.6h-.13v92h6.21v92.25h2.13v5.2a20.29,20.29,0,0,1-3.73-.71,1.51,1.51,0,0,0-1.94,1.45v10a3,3,0,0,0,3,3H297a1.51,1.51,0,0,0,1.51-1.51V462.2a4,4,0,0,0-3-3.82l-26.15-6.81a7.53,7.53,0,0,0-2.21-.22v-4h2.44V355.06h6.09v-92h-.1l-4.08-49.38,1.27-13.41L281.11,217a7.52,7.52,0,0,0,8.42,4l21.62,1.84.19-1.85,32.34,4.12a3,3,0,0,0,.79,0,91.37,91.37,0,0,1,10.13,4,4.65,4.65,0,0,0,.8-5.67c1.92,1,13.74,7,13.57,4.12C368.91,226.31,368.14,220.1,365,216.45ZM250.92,447.31v4.43a1.51,1.51,0,0,0-1.52,1.51v4.25l-20.88-5.44v-4.75h2.6V355.06h17.5v92.25ZM236.07,151.09l-4.37-7.71a25.14,25.14,0,0,0,4.37,4.32Z"/><path id="_Path_47" data-name="&lt;Path&gt;" class="cls-34" d="M203.91,463.19v.08a3,3,0,0,0,3,3h44.61a1.51,1.51,0,0,0,1.51-1.51v-1.57Z"/><path id="_Path_48" data-name="&lt;Path&gt;" class="cls-34" d="M246.74,463.19v.08a3,3,0,0,0,3,3h44.61a1.51,1.51,0,0,0,1.51-1.51v-1.57Z"/><rect id="_Rectangle_12" data-name="&lt;Rectangle&gt;" class="cls-35" x="266.05" y="156.56" width="16.1" height="67.07" rx="8.05" ry="8.05" transform="translate(604.13 238.56) rotate(153.61)"/><rect id="_Rectangle_13" data-name="&lt;Rectangle&gt;" class="cls-11" x="313.73" y="191.09" width="12.94" height="49.62" rx="4.5" ry="4.5" transform="translate(574.79 -74.49) rotate(97.25)"/><path id="_Path_49" data-name="&lt;Path&gt;" class="cls-35" d="M308.5,222.8l1.6-16-24.88-2.17c-3.59-.34-6.84,3-7.26,7.39h0c-.42,4.42,2.14,8.29,5.72,8.63Z"/><path id="_Path_50" data-name="&lt;Path&gt;" class="cls-4" d="M339.62,224.31s8.8,2.86,12.33,4.71c4-3.91-1.76-9.16-1.76-9.16Z"/><path id="_Path_51" data-name="&lt;Path&gt;" class="cls-11" d="M336.22,211.41l13.72-2.49s9.76,4.4,12.43,7.53c3.11,3.64,3.88,9.86,3.95,11,.18,3.11-13.85-4.26-13.85-4.26l-13.81,1.24Z"/><path id="_Path_52" data-name="&lt;Path&gt;" class="cls-34" d="M217.73,388.46h0a8.14,8.14,0,0,0-8.14,8.14v57.68a8.14,8.14,0,0,0,8.14,8.14h0a8.14,8.14,0,0,0,8.14-8.14V396.6A8.14,8.14,0,0,0,217.73,388.46Z"/><path id="_Rectangle_14" data-name="&lt;Rectangle&gt;" class="cls-36" d="M207.46,263.24h21a0,0,0,0,1,0,0V440.32a7,7,0,0,1-7,7h-7a7,7,0,0,1-7-7V263.24a0,0,0,0,1,0,0Z" transform="translate(435.93 710.56) rotate(180)"/><path id="_Path_53" data-name="&lt;Path&gt;" class="cls-37" d="M203.91,453.25v9.94H253v-1a4,4,0,0,0-3-3.82l-26.15-6.81a7.29,7.29,0,0,0-3.66,0c-7,1.81-11.9,1-14.41.26A1.51,1.51,0,0,0,203.91,453.25Z"/><line id="_Path_54" data-name="&lt;Path&gt;" class="cls-37" x1="250.08" y1="458.37" x2="223.93" y2="451.56"/><path id="_Path_55" data-name="&lt;Path&gt;" class="cls-34" d="M256.4,388.46h0a8.14,8.14,0,0,1,8.14,8.14v57.68a8.14,8.14,0,0,1-8.14,8.14h0a8.14,8.14,0,0,1-8.14-8.14V396.6A8.14,8.14,0,0,1,256.4,388.46Z"/><path id="_Rectangle_15" data-name="&lt;Rectangle&gt;" class="cls-36" d="M246,263.24h21a0,0,0,0,1,0,0V440.32a7,7,0,0,1-7,7h-7a7,7,0,0,1-7-7V263.24a0,0,0,0,1,0,0Z" transform="translate(512.95 710.56) rotate(180)"/><path id="_Path_56" data-name="&lt;Path&gt;" class="cls-38" d="M216.21,157.48h41.9c8.26,0,15,5.52,15,12.32l-4.17,43.9,4.17,50.55H201.24s4.49-39.59,4.49-52.78c0-10.42-4.49-41.67-4.49-41.67C201.24,163,207.94,157.48,216.21,157.48Z"/><rect id="_Rectangle_16" data-name="&lt;Rectangle&gt;" class="cls-11" x="233.42" y="139.33" width="10.85" height="26.33" rx="3.61" ry="3.61" transform="translate(477.68 304.98) rotate(180)"/><path id="_Path_57" data-name="&lt;Path&gt;" class="cls-39" d="M261.91,92.74s7-1.42,7,12.78a62.06,62.06,0,0,1-1.81,13.94l-10.6-12.29-11-4.91,13.71-5Z"/><path id="_Path_58" data-name="&lt;Path&gt;" class="cls-9" d="M250,152.45c-16.73.9-25.62-11.46-28.35-26.81-2.88-16.17,7.95-29.55,21.06-29.59,14.92,0,23.63,5.77,24.85,22.15.77,10.29-2.33,30.91-17.56,34.25Z"/><g id="_Group_4" data-name="&lt;Group&gt;"><line id="_Path_59" data-name="&lt;Path&gt;" class="cls-40" x1="264.68" y1="119.22" x2="258.38" y2="118.9"/><path id="_Path_60" data-name="&lt;Path&gt;" class="cls-40" d="M264.83,120.26a1.05,1.05,0,0,0-.09-2.09l-6.29-.32a1.05,1.05,0,0,0-.11,2.1l6.29.32Z"/></g><g id="_Group_5" data-name="&lt;Group&gt;"><line id="_Path_61" data-name="&lt;Path&gt;" class="cls-40" x1="248.24" y1="118.9" x2="241.94" y2="119.22"/><path id="_Path_62" data-name="&lt;Path&gt;" class="cls-40" d="M248.38,117.86a1.05,1.05,0,0,1-.09,2.09l-6.29.32a1.05,1.05,0,1,1-.11-2.1l6.29-.32Z"/></g><circle id="_Path_63" data-name="&lt;Path&gt;" cx="245.87" cy="125.69" r="1.42"/><circle id="_Path_64" data-name="&lt;Path&gt;" cx="261.04" cy="126.18" r="1.42"/><polygon id="_Path_65" data-name="&lt;Path&gt;" class="cls-15" points="253.59 123.67 253.4 136.01 256.05 135.41 253.59 123.67"/><ellipse id="_Path_66" data-name="&lt;Path&gt;" class="cls-39" cx="218.67" cy="95.18" rx="10.97" ry="8.57" transform="translate(43.85 257.39) rotate(-66.38)"/><path id="_Path_67" data-name="&lt;Path&gt;" class="cls-41" d="M224.5,127.48s7.36,1.37,6.36-6.48c4-.62,23.44-8.85,31.3-28.06-5-10-13.75-11.4-23.31-9.78-14.14,2.39-29.15,13-20.83,40.46C218.64,125.66,222.51,125.92,224.5,127.48Z"/><path id="_Path_68" data-name="&lt;Path&gt;" class="cls-35" d="M258.68,160.77c0,9.29-8.9,16.84-19.85,16.84S219,170.06,219,160.77a14.47,14.47,0,0,1,.38-3.29H258.3A14.47,14.47,0,0,1,258.68,160.77Z"/><path id="_Path_69" data-name="&lt;Path&gt;" class="cls-11" d="M222.12,160.77c0,7.58,7.49,13.73,16.72,13.73s16.73-6.15,16.73-13.73a11.28,11.28,0,0,0-.49-3.29H222.6A11.28,11.28,0,0,0,222.12,160.77Z"/><path class="cls-42" d="M254.19,205.25l-8.35-23.47-1.76.6-8.61-27.82a6.44,6.44,0,0,0-1.58-2.63L228,141.57s.91-15.81-1.85-14.37c-1,.54-6.37,3.82-8.4,8.16-1.74,3.73-1.72,14.43-1.72,14.43L224,161.26h0l7.82,25.27-1.18.4L239,210.48c1.17,3.41,5.53,5,9.73,3.55h0C252.9,212.59,255.36,208.65,254.19,205.25Z"/><path id="_Path_70" data-name="&lt;Path&gt;" class="cls-11" d="M224.88,162.12l-10.21-9.5s-2.31-10.45-1.4-14.47c1.06-4.67,5.57-9,6.47-9.76,2.39-2,4.87,13.64,4.87,13.64l9.26,10.32Z"/><rect class="cls-38" x="201.24" y="263.07" width="71.83" height="91.99" transform="translate(474.32 618.14) rotate(180)"/><rect id="_Rectangle_17" data-name="&lt;Rectangle&gt;" class="cls-35" x="219.63" y="155.3" width="16.1" height="67.07" rx="8.05" ry="8.05" transform="translate(522.19 161.37) rotate(135)"/><path id="_Path_71" data-name="&lt;Path&gt;" class="cls-37" d="M246.74,453.25v9.94h49.12v-1a4,4,0,0,0-3-3.82l-26.15-6.81a7.29,7.29,0,0,0-3.66,0c-7,1.81-11.9,1-14.41.26A1.51,1.51,0,0,0,246.74,453.25Z"/><line class="cls-43" x1="259.85" y1="140.22" x2="246.94" y2="142.81"/><rect id="_Rectangle_18" data-name="&lt;Rectangle&gt;" class="cls-11" x="227.53" y="149.18" width="12.94" height="49.62" rx="6.47" ry="6.47" transform="translate(-40.97 76.93) rotate(-17.19)"/><path id="_Path_72" data-name="&lt;Path&gt;" class="cls-35" d="M245.13,181.78l-15.2,5.15,8.33,23.55c1.17,3.41,5.53,5,9.73,3.55h0c4.2-1.44,6.66-5.38,5.49-8.78Z"/><path class="cls-42" d="M223.65,131.29a17.36,17.36,0,0,0,3.1-10,7.93,7.93,0,0,0-2.76-2.88c-4.28-3-9.25-.56-7.36,4.52.83,2.21,2,6.46,3.47,8.58a2.55,2.55,0,1,0,3.54-.25Z"/><g id="_Group_6" data-name="&lt;Group&gt;"><path id="_Path_73" data-name="&lt;Path&gt;" class="cls-9" d="M226.75,120.63a7.93,7.93,0,0,0-2.76-2.88c-4.28-3-9.25-.56-7.36,4.52,1.32,3.54,3.59,12.31,6.35,9.16A16.83,16.83,0,0,0,226.75,120.63Z"/><polygon id="_Path_74" data-name="&lt;Path&gt;" class="cls-15" points="223.46 121.14 217.84 120.2 222.07 127.9 220.65 121.55 223.46 121.14"/></g><circle id="_Path_75" data-name="&lt;Path&gt;" class="cls-35" cx="222.01" cy="132.53" r="2.55"/><circle class="cls-32" cx="250.92" cy="40.38" r="27.67"/><circle class="cls-32" cx="226.75" cy="72.72" r="7.01"/><text class="cls-44" transform="translate(240.22 42.58)">...</text></svg>