<?xml version="1.0" encoding="utf-8"?>
<!-- Generator: Adobe Illustrator 19.2.1, SVG Export Plug-In . SVG Version: 6.00 Build 0)  -->
<!DOCTYPE svg PUBLIC "-//W3C//DTD SVG 1.1//EN" "http://www.w3.org/Graphics/SVG/1.1/DTD/svg11.dtd">
<svg version="1.1" id="Layer_1" xmlns="http://www.w3.org/2000/svg" xmlns:xlink="http://www.w3.org/1999/xlink" x="0px" y="0px"
	 viewBox="0 0 595.3 421" style="enable-background:new 0 0 595.3 421;" xml:space="preserve">
<style type="text/css">
	.st0{fill:#E66661;}
	.st1{fill:#D3D8B7;}
	.st2{fill:#FFDA83;}
	.st3{fill:#BCBCBC;}
	.st4{fill:#FFFFFF;}
	.st5{fill:#DEDEDD;}
	.st6{fill:#F7AD92;}
	.st7{fill:#475AA6;}
	.st8{fill:#DB846E;}
	.st9{fill:none;stroke:#698FC7;stroke-width:3;stroke-miterlimit:10;}
	.st10{fill:#E6E6E5;}
	.st11{fill:#465AA6;}
	.st12{fill:#383660;}
	.st13{fill:#B5B5B5;}
	.st14{fill:#4F4F4F;}
	.st15{fill:#E7E7E9;}
	.st16{fill:#595A5C;}
	.st17{fill:#698FC7;}
	.st18{fill:#8C643E;}
	.st19{fill:#744E2A;}
	.st20{fill:#040505;}
	.st21{fill:none;stroke:#DB846E;stroke-width:2;stroke-linecap:round;stroke-linejoin:round;}
	.st22{fill:#6E6F73;}
	.st23{fill:#7D7E80;}
	.st24{fill:#575757;}
	.st25{fill:#53527F;}
	.st26{fill:#FBD8BB;}
	.st27{fill:#EE3F5A;}
	.st28{fill:#55412E;}
	.st29{fill:#424243;}
	.st30{fill:#6C503C;}
</style>
<g transform="matrix( 1, 0, 0, 1, 0,0) ">
	<g>
		<g id="Layer1_0_FILL_5_">
			<path class="st0" d="M407.7,134.9c0.3,0.5,0.7,0.8,1.3,0.9c0.6,0.1,1.1,0,1.6-0.3l13.2-8.6l2.7-1.8c0.5-0.3,0.8-0.7,0.9-1.3
				c0.1-0.5,0-1.1-0.3-1.6c0,0,0,0-0.1-0.1c-0.3-0.4-0.7-0.7-1.2-0.8c-0.6-0.1-1.1,0-1.6,0.3l-16,10.4c-0.5,0.3-0.8,0.8-0.9,1.3
				C407.3,133.9,407.4,134.4,407.7,134.9 M408.7,143.8c0.1,0.6,0.4,1,0.8,1.4c0.4,0.3,0.8,0.4,1.3,0.4c0.1,0,0.2,0,0.2,0l24.3-3.5
				c0.6-0.1,1-0.3,1.4-0.8c0.3-0.5,0.5-1,0.4-1.6s-0.3-1-0.8-1.4c-0.5-0.3-1-0.5-1.6-0.4l-20.7,3l-3.6,0.5c-0.6,0.1-1,0.4-1.4,0.8
				C408.8,142.8,408.7,143.2,408.7,143.8 M269.5,89l0.5-5.7c0-0.6-0.1-1.1-0.5-1.5s-0.8-0.7-1.4-0.7s-1.1,0.1-1.5,0.5
				s-0.7,0.8-0.7,1.4l-1.4,16.7c0,0.6,0.1,1.1,0.5,1.5c0.1,0.1,0.1,0.1,0.2,0.2c0.3,0.3,0.8,0.5,1.2,0.5c0.6,0.1,1.1-0.1,1.5-0.5
				c0.5-0.4,0.7-0.8,0.8-1.4L269.5,89 M427.9,160.6c-0.2-0.5-0.6-0.9-1.2-1.1l-15.3-5.6c-0.5-0.2-1.1-0.2-1.6,0.1
				c-0.5,0.3-0.9,0.7-1.1,1.2c-0.2,0.6-0.2,1.1,0.1,1.6c0.3,0.5,0.7,0.9,1.2,1.1l15.3,5.6c0.6,0.2,1.1,0.2,1.6-0.1
				c0.5-0.2,0.9-0.6,1.1-1.2C428.2,161.8,428.2,161.1,427.9,160.6 M241.2,107.4c0.6,0.1,1.1,0,1.5-0.4c0.5-0.3,0.8-0.8,0.8-1.4
				c0.1-0.6,0-1.1-0.4-1.6l-7.6-10.4c-0.3-0.5-0.8-0.7-1.4-0.8c-0.6-0.1-1.1,0.1-1.6,0.4c-0.5,0.4-0.7,0.8-0.8,1.4s0.1,1.1,0.4,1.5
				l7.6,10.4C240.2,107,240.6,107.3,241.2,107.4 M245.8,77.6c-0.5,0.2-1,0.5-1.2,1c-0.3,0.5-0.3,1-0.2,1.6l6.2,21.5
				c0.2,0.6,0.5,1,1,1.2c0.5,0.3,1,0.3,1.6,0.2c0.6-0.1,1-0.5,1.2-1c0.3-0.5,0.3-1,0.2-1.6l-6.2-21.5c-0.1-0.5-0.5-1-1-1.2
				C246.9,77.5,246.3,77.5,245.8,77.6z"/>
			<path class="st1" d="M266.3,101.8c-0.5,0-0.9-0.2-1.2-0.5l-8.9,24.9l-114.9-46l65.1,105.3L98.8,246.8l122.9,14.6l-19.3,122.4
				l88.1-86.9l83.6,91.3L361,265.1l123.5-8.4L380,190.1l30.7-44.4c-0.5,0-0.9-0.1-1.3-0.4c-0.5-0.3-0.7-0.8-0.8-1.4
				c-0.1-0.6,0.1-1.1,0.4-1.5c0.3-0.5,0.8-0.7,1.4-0.8l3.6-0.5l9.7-14l-13.2,8.6c-0.5,0.3-1,0.4-1.6,0.3c-0.5-0.1-1-0.4-1.3-0.9
				s-0.4-1-0.3-1.6c0.1-0.5,0.4-1,0.9-1.3l16-10.4c0.5-0.3,1-0.4,1.6-0.3c0.5,0.1,1,0.4,1.2,0.8l23.6-34l-117.2,40.1L297.8,9.9
				l-28.4,79.3l-0.9,11c-0.1,0.6-0.3,1-0.8,1.4C267.4,101.8,266.9,101.9,266.3,101.8z"/>
			<path class="st2" d="M409.6,393c-0.3-0.3-0.7-0.5-1.2-0.5h-46.5c-0.5,0-0.9,0.2-1.2,0.5c-0.3,0.3-0.5,0.8-0.5,1.2
				c0,0.5,0.2,0.9,0.5,1.2s0.8,0.5,1.2,0.5h46.5c0.5,0,0.9-0.2,1.2-0.5c0.3-0.3,0.5-0.7,0.5-1.2C410.1,393.8,409.9,393.3,409.6,393
				 M249,410c1.3,1.3,2.9,1.9,4.7,1.9h72.8c1.8,0,3.4-0.6,4.7-1.9c0.7-0.7,1.2-1.4,1.5-2.2h35.5c1.2,0,2.3-0.4,3.2-1.3
				c0.9-0.9,1.3-1.9,1.3-3.2s-0.4-2.3-1.3-3.2s-1.9-1.3-3.2-1.3h-35.3c-0.3-1.1-0.8-2.1-1.7-2.9c-1.3-1.3-2.9-1.9-4.7-1.9h-72.8
				c-1.8,0-3.4,0.6-4.7,1.9l-0.1,0.1h-39.6c-1,0-2,0.2-2.8,0.7h-36.7c-1.1,0-2,0.4-2.7,1.1c-0.7,0.7-1.1,1.6-1.1,2.7s0.4,2,1.1,2.7
				c0.7,0.7,1.6,1.1,2.7,1.1h34.1c0.3,0.6,0.7,1.2,1.2,1.7c1.2,1.2,2.5,1.7,4.2,1.7h38.3C247.8,408.6,248.3,409.3,249,410
				 M227.7,410.5c-0.4-0.4-0.9-0.6-1.5-0.6h-43c-0.6,0-1.1,0.2-1.5,0.6c-0.4,0.4-0.6,0.9-0.6,1.5s0.2,1.1,0.6,1.5
				c0.4,0.4,0.9,0.6,1.5,0.6h43c0.6,0,1.1-0.2,1.5-0.6c0.4-0.4,0.6-0.9,0.6-1.5C228.3,411.5,228.1,411,227.7,410.5 M267.3,387
				c-0.4-0.4-0.9-0.6-1.5-0.6h-38.2c-0.6,0-1.1,0.2-1.5,0.6c-0.4,0.4-0.6,0.9-0.6,1.5s0.2,1.1,0.6,1.5c0.4,0.4,0.9,0.6,1.5,0.6h38.2
				c0.6,0,1.1-0.2,1.5-0.6c0.4-0.4,0.6-0.9,0.6-1.5S267.7,387.3,267.3,387 M278.7,386.5c0.7,0.7,1.6,1.1,2.7,1.1h81.2
				c1.1,0,2-0.4,2.7-1.1c0.7-0.7,1.1-1.6,1.1-2.7c0-1.1-0.4-2-1.1-2.7s-1.6-1.1-2.7-1.1h-81.2c-1.1,0-2,0.4-2.7,1.1
				c-0.7,0.7-1.1,1.6-1.1,2.7S278,385.8,278.7,386.5z"/>
		</g>
	</g>
</g>
<g transform="matrix( 1, 0, 0, 1, 0,0) ">
	<g>
		<g id="Layer1_1_FILL_2_">
			<path class="st3" d="M397.2,381.8c0.6-0.4,1.4-0.5,2.1-0.4l6.8,1.4l1.3-6.6c-0.3,1.3-2.7,2-7.2,2.1c-2.5,0-5.3-0.1-8.4-0.5
				c-9.3-0.9-18-3.4-26.2-7.5c-0.2-0.1-0.5-0.3-0.7-0.4c-1.5-1-2.2-1.9-2.1-2.8l-3.1,15.3c-0.5,2.6,0.6,4.7,3.4,6.5
				c11.6,5.7,23.1,7.9,34.6,6.6c3.9-0.2,6.1-1.5,6.6-4.1l0.7-3.3l-6.8-1.4c-0.8-0.1-1.4-0.5-1.8-1.2c-0.4-0.6-0.6-1.3-0.4-2
				C396.2,383,396.6,382.3,397.2,381.8 M382.3,379.8c0.3,0.1,0.5,0.2,0.7,0.5s0.2,0.5,0.1,0.8c0,0.3-0.2,0.5-0.5,0.7
				c-0.2,0.2-0.5,0.2-0.8,0.1l-2.7-0.6c-0.3,0-0.5-0.2-0.7-0.5c-0.2-0.2-0.2-0.5-0.2-0.8c0.1-0.3,0.2-0.5,0.5-0.7s0.5-0.2,0.8-0.2
				L382.3,379.8 M362.6,374.3c0-0.3,0.1-0.5,0.2-0.8c0.2-0.2,0.4-0.4,0.7-0.4c0.3,0,0.5,0.1,0.8,0.2c1,0.9,2.9,1.8,5.5,3l0,0
				c2.5,1.1,4.4,1.7,5.7,1.9c0.3,0.1,0.5,0.2,0.7,0.5c0.2,0.2,0.2,0.5,0.2,0.8s-0.2,0.5-0.4,0.7c-0.2,0.2-0.5,0.2-0.8,0.2
				c-1.4-0.2-3.5-0.9-6.2-2.1l0,0c-2.8-1.2-4.8-2.3-6-3.3C362.7,374.8,362.6,374.6,362.6,374.3z"/>
			<path class="st4" d="M362.8,373.5c-0.2,0.2-0.3,0.5-0.2,0.8c0,0.3,0.2,0.5,0.4,0.7c1.1,1,3.1,2.1,6,3.3l0,0
				c2.7,1.2,4.8,1.9,6.2,2.1c0.3,0.1,0.5,0,0.8-0.2c0.2-0.2,0.4-0.4,0.4-0.7c0.1-0.3,0-0.5-0.2-0.8c-0.2-0.2-0.4-0.4-0.7-0.5
				c-1.3-0.2-3.2-0.9-5.7-1.9l0,0c-2.6-1.1-4.4-2.1-5.5-3c-0.2-0.2-0.5-0.3-0.8-0.2C363.2,373.2,363,373.3,362.8,373.5 M383,380.2
				c-0.2-0.2-0.4-0.4-0.7-0.5l-2.7-0.6c-0.3,0-0.5,0-0.8,0.2c-0.2,0.2-0.4,0.4-0.5,0.7c0,0.3,0,0.5,0.2,0.8s0.4,0.4,0.7,0.5l2.7,0.6
				c0.3,0.1,0.5,0,0.8-0.1c0.3-0.2,0.4-0.4,0.5-0.7C383.2,380.8,383.1,380.5,383,380.2z"/>
			<path class="st2" d="M387.4,375.8l-0.3-3.1c-2.2-0.3-4.2,0.1-6.1,1.2c-2.4-2.4-5.2-3.1-8.3-2.2l-0.3-2.4
				c-0.3-0.1-0.5-0.2-0.8-0.4c-2.4-1.3-4.6-0.9-6.5,1c0.2,0.1,0.5,0.2,0.7,0.4c8.2,4.1,16.9,6.6,26.2,7.5
				C390.7,376.5,389.2,375.8,387.4,375.8z"/>
			<path class="st5" d="M387.1,372.8l0.3,3.1c1.9,0,3.4,0.7,4.5,2c3.1,0.3,5.9,0.5,8.4,0.5c4.5-0.1,6.9-0.8,7.2-2.1l0,0l0,0
				c0.2-1.1-1-2.3-3.6-3.7c-0.7-0.3-1.4-0.7-2.3-1.1c-4.2-1.8-9.3-3.4-15.5-4.6c-6.2-1.2-11.5-1.8-16-1.8c-0.9,0-1.7,0.1-2.5,0.2
				c-2.9,0.3-4.5,0.9-4.8,2l0,0c-0.1,0.8,0.6,1.8,2.1,2.8c1.9-1.9,4.1-2.2,6.5-1c0.3,0.2,0.5,0.3,0.8,0.4l0.3,2.4
				c3.1-0.9,5.9-0.2,8.3,2.2C382.9,372.8,384.9,372.5,387.1,372.8 M425.5,387.5c-0.4-0.6-1-1-1.7-1.1l-17.7-3.6l-6.8-1.4
				c-0.8-0.1-1.5,0-2.1,0.4c-0.6,0.5-1,1.1-1.2,1.8c-0.1,0.8,0,1.4,0.4,2c0.4,0.7,1,1.1,1.8,1.2l6.8,1.4l17.7,3.6
				c0.8,0.2,1.5,0,2.1-0.5c0.7-0.4,1.1-1,1.2-1.7C426.2,389,426,388.2,425.5,387.5z"/>
		</g>
	</g>
</g>
<g transform="matrix( -0.3173828125, -0.6021575927734375, -0.6021575927734375, 0.3173828125, 1194.25,610.55) ">
	<g>
		<g id="Layer1_2_MEMBER_0_MEMBER_0_FILL">
			<path class="st6" d="M1056.8,821.3c-1.3,1.5-1.9,3.2-1.8,5.2l4.7,62.2c0.1,2,1,3.6,2.5,5c1.5,1.3,3.3,1.9,5.3,1.8s3.6-1,5-2.5
				c1.3-1.5,1.9-3.3,1.8-5.3l-4.7-62.2c-0.1-2-1-3.7-2.5-5s-3.2-1.9-5.2-1.8C1059.8,819,1058.1,819.8,1056.8,821.3z"/>
		</g>
	</g>
</g>
<g transform="matrix( -0.6583404541015625, 0.17327880859375, 0.17327880859375, 0.6583404541015625, 1120.9,134.6) ">
	<g>
		<g id="Layer1_2_MEMBER_0_MEMBER_1_FILL">
			<path class="st6" d="M1120-213.1c-1.5-1.4-3.2-2-5.2-2s-3.7,0.8-5.1,2.3s-2,3.2-2,5.2l2.3,62.3c0,2,0.8,3.7,2.3,5.1
				c1.5,1.4,3.2,2,5.2,2s3.7-0.8,5.1-2.3c1.4-1.5,2-3.2,2-5.2l-2.3-62.3C1122.2-210.1,1121.5-211.7,1120-213.1z"/>
		</g>
	</g>
</g>
<g transform="matrix( -0.6583404541015625, 0.17327880859375, 0.17327880859375, 0.6583404541015625, 850.95,346.65) ">
	<g transform="matrix( 1, 0, 0, 1, 0,0) ">
		<g>
			<g id="_VisiTeli_V2_ai_Layer_1__Clip_Group__0_Layer3_0_FILL_3_">
				<path class="st1" d="M662.8-410.8c-0.1-2.5-1.1-4.6-2.9-6.3c-1.9-1.7-4-2.6-6.6-2.5c-2.5,0.1-4.6,1.1-6.3,2.9
					c-1.7,1.9-2.6,4-2.5,6.5l1.8,45.5l18.2-0.7L662.8-410.8z"/>
			</g>
		</g>
	</g>
</g>
<g transform="matrix( -0.6583404541015625, 0.17327880859375, 0.17327880859375, 0.6583404541015625, 1120.9,134.6) ">
	<g>
		<g id="Layer1_2_MEMBER_0_MEMBER_3_FILL">
			<path class="st7" d="M1107.3-225.9c-4.6,0-8.5,1.6-11.8,4.9c-3.3,3.2-4.9,7.1-4.9,11.7c0,4.6,1.6,8.5,4.9,11.8
				c3.2,3.3,7.2,4.9,11.8,4.9c4.6,0,8.5-1.6,11.8-4.9c3.2-3.2,4.9-7.2,4.9-11.8c0-4.6-1.6-8.5-4.9-11.7
				C1115.8-224.3,1111.8-225.9,1107.3-225.9z"/>
		</g>
	</g>
</g>
<g transform="matrix( -0.3173828125, -0.6021575927734375, -0.6021575927734375, 0.3173828125, 1194.25,610.55) ">
	<g>
		<g id="Layer1_2_MEMBER_0_MEMBER_4_FILL">
			<path class="st8" d="M1061.4,902c1.2-0.7,2.3-1.5,3.2-2.6l-4.9-11.1c-1.9,6.2-3.5,10.6-4.8,13.1
				C1056.8,903.1,1058.9,903.3,1061.4,902z"/>
		</g>
	</g>
</g>
<g transform="matrix( -0.3173828125, -0.6021575927734375, -0.6021575927734375, 0.3173828125, 1194.25,610.55) ">
	<g>
		<g id="Layer1_2_MEMBER_0_MEMBER_5_FILL">
			<path class="st6" d="M1073.9,884.4l-14.3,2.9l1.6,14.5l-3.4,7.4c-2,4.9-2.3,7.3-0.9,7.3c1.4-0.1,3-0.4,4.8-1
				c2.9-0.8,5.1-2,6.7-3.4c1.4-1.2,3.1-3.8,5.1-7.7c1-2,1.9-3.8,2.6-5.6L1073.9,884.4z"/>
		</g>
	</g>
</g>
<g transform="matrix( -0.6583404541015625, 0.17327880859375, 0.17327880859375, 0.6583404541015625, 1120.9,134.6) ">
	<g transform="matrix( -1.4205474853515625, 0.3738861083984375, 0.3738861083984375, 1.4205474853515625, 1541.95,-610.3) ">
		<path id="Layer1_2_MEMBER_0_MEMBER_6_1_STROKES" class="st9" d="M1204.3-82.9l-18.2,0.8"/>
	</g>
</g>
<g transform="matrix( -0.6788482666015625, -0.0536041259765625, -0.0536041259765625, 0.6788482666015625, 1154.8,235.2) ">
	<g>
		<g id="Layer1_2_MEMBER_1_FILL">
			<path class="st10" d="M1204.8,150.3c0-0.8-0.3-1.4-0.8-1.9c-0.6-0.6-1.2-0.8-2-0.8s-1.4,0.3-2,0.8c-0.5,0.5-0.8,1.2-0.8,1.9
				c0,0.8,0.3,1.4,0.8,2s1.2,0.8,2,0.8s1.4-0.3,2-0.8C1204.5,151.8,1204.8,151.1,1204.8,150.3z"/>
		</g>
	</g>
</g>
<g transform="matrix( -0.6793670654296875, 0.04156494140625, 0.04156494140625, 0.6793670654296875, 1039.4,142.1) ">
	<g>
		<g id="Layer1_2_MEMBER_2_MEMBER_0_FILL">
			<path class="st11" d="M1125.7,210.9c-1.8-1.8-3.9-2.6-6.4-2.6c-2.5,0-4.6,0.9-6.4,2.6c-1.8,1.8-2.7,3.9-2.7,6.4v64.1
				c0,2.5,0.9,4.7,2.7,6.4c1.8,1.8,3.9,2.6,6.4,2.6s4.7-0.9,6.4-2.6c1.8-1.8,2.6-3.9,2.6-6.4v-64.1
				C1128.3,214.8,1127.4,212.6,1125.7,210.9z"/>
		</g>
	</g>
</g>
<g transform="matrix( 0.9354248046875, 0.352813720703125, -0.352813720703125, 0.9354248046875, 190.65,-249.25) ">
	<g>
		<g id="Layer1_2_MEMBER_2_MEMBER_1_FILL">
			<path class="st12" d="M330.4,436.8c-0.3-1.9-1.3-3.4-2.8-4.6l-1.6-1.1c-1.5-1.1-3.3-1.5-5.2-1.2c-1.9,0.3-3.4,1.3-4.6,2.8
				l-36.7,50.6c-1.3,2.5-1.3,4.6,0,6.2l25.7,59.3l14.6-6.3L296,487.6l33.1-45.6C330.2,440.4,330.6,438.7,330.4,436.8z"/>
		</g>
	</g>
</g>
<g transform="matrix( -0.6620025634765625, -0.1582183837890625, -0.1582183837890625, 0.6620025634765625, 1169.8,242.2) ">
	<g>
		<g id="Layer1_2_MEMBER_2_MEMBER_2_FILL">
			<path class="st13" d="M1199.9,491.9c-0.4,0.3-0.7,0.8-0.7,1.4v11l54.6,0v-1.1c0-1-0.3-1.9-0.9-2.7s-1.4-1.3-2.4-1.6l-29.1-7.6
				c-1.3-0.3-2.7-0.3-4.1,0c-6.1,1.6-11.4,1.7-16,0.3C1200.8,491.4,1200.3,491.5,1199.9,491.9z"/>
		</g>
	</g>
</g>
<g transform="matrix( -0.6620025634765625, -0.1582183837890625, -0.1582183837890625, 0.6620025634765625, 1169.8,242.2) ">
	<g>
		<g id="Layer1_2_MEMBER_2_MEMBER_3_FILL">
			<path class="st14" d="M1200.2,506.7c0.6,0.6,1.4,1,2.4,1l49.6,0c0.5,0,0.9-0.2,1.2-0.5c0.3-0.3,0.5-0.8,0.5-1.2v-1.7l-54.6,0v0.1
				C1199.2,505.3,1199.5,506.1,1200.2,506.7z"/>
		</g>
	</g>
</g>
<g transform="matrix( -0.637847900390625, 0.2378997802734375, 0.2378997802734375, 0.637847900390625, 970.65,107.25) ">
	<g>
		<g id="Layer1_2_MEMBER_3_MEMBER_0_FILL">
			<path class="st11" d="M1009,10.6c-1.8-1.8-3.9-2.6-6.4-2.6c-2.5,0-4.6,0.9-6.4,2.6c-1.8,1.8-2.7,3.9-2.7,6.4v64.1
				c0,2.5,0.9,4.7,2.7,6.4c1.8,1.8,3.9,2.6,6.4,2.6s4.7-0.9,6.4-2.6s2.6-3.9,2.6-6.4l0-64.1C1011.7,14.5,1010.8,12.3,1009,10.6z"/>
		</g>
	</g>
</g>
<g transform="matrix( 0.9976348876953125, 0.0653076171875, -0.0653076171875, 0.9976348876953125, 45.15,-19.6) ">
	<g>
		<g id="Layer1_2_MEMBER_3_MEMBER_1_FILL">
			<path class="st12" d="M346.7,280.1c-0.3-1.9-1.3-3.4-2.8-4.6l-1.6-1.1c-1.5-1.1-3.3-1.5-5.2-1.2c-1.9,0.3-3.4,1.3-4.6,2.8
				l-36.7,50.6c-1.3,2.5-1.3,4.6,0,6.2l25.7,59.3l14.6-6.3l-23.8-54.9l33.1-45.6C346.6,283.7,347,282,346.7,280.1z"/>
		</g>
	</g>
</g>
<g transform="matrix( -0.6792144775390625, -0.047210693359375, -0.047210693359375, 0.6792144775390625, 1186.95,204.8) ">
	<g>
		<g id="Layer1_2_MEMBER_3_MEMBER_2_FILL">
			<path class="st13" d="M1196.1,361.8c-0.4,0.3-0.7,0.8-0.7,1.4v11l54.6,0v-1.1c0-1-0.3-1.9-0.9-2.7s-1.4-1.3-2.4-1.6l-29.1-7.6
				c-1.3-0.3-2.7-0.3-4.1,0c-6.1,1.6-11.4,1.7-16,0.3C1197.1,361.3,1196.6,361.4,1196.1,361.8z"/>
		</g>
	</g>
</g>
<g transform="matrix( -0.6792144775390625, -0.047210693359375, -0.047210693359375, 0.6792144775390625, 1186.95,204.8) ">
	<g>
		<g id="Layer1_2_MEMBER_3_MEMBER_3_FILL">
			<path class="st14" d="M1196.4,376.6c0.6,0.6,1.4,1,2.4,1l49.6,0c0.5,0,0.9-0.2,1.2-0.5c0.3-0.3,0.5-0.8,0.5-1.2v-1.7l-54.6,0v0.1
				C1195.5,375.2,1195.8,376,1196.4,376.6z"/>
		</g>
	</g>
</g>
<g transform="matrix( -0.6788482666015625, -0.0536041259765625, -0.0536041259765625, 0.6788482666015625, 1154.8,235.2) ">
	<g>
		<g id="Layer1_2_MEMBER_4_FILL_1_">
			<path class="st12" d="M1206.4,136.7l-66.6-0.6l-0.4,21.4c0,3.2,1.1,5.9,3.3,8.2c2.2,2.2,4.9,3.4,8.1,3.4l43.7,0.4
				c3.1,0,5.9-1.1,8.1-3.3c2.3-2.2,3.4-4.9,3.4-8.1L1206.4,136.7z"/>
		</g>
	</g>
</g>
<g transform="matrix( 1, 0, 0, 1, 0,0) ">
	<g>
		<g id="Layer1_2_MEMBER_5_MEMBER_0_FILL_1_">
			<path class="st15" d="M348.6,178.8c-2.7,1.7-4.3,4.1-5,7.3l-18,83.5l53.4,11.6l18.1-83.9c0.6-3,0.1-5.8-1.6-8.4
				c-1.6-2.6-4-4.2-7-4.9l-31.2-6.8C354.2,176.5,351.3,177,348.6,178.8z"/>
		</g>
	</g>
</g>
<g transform="matrix( -0.665618896484375, -0.1439208984375, -0.1439208984375, 0.665618896484375, 913.65,352.85) ">
	<g>
		<g id="Layer1_2_MEMBER_5_MEMBER_0_MEMBER_0_FILL">
			<path class="st16" d="M825.6-36.3c-0.9-0.2-1.8,0-2.7,0.5c-0.8,0.5-1.4,1.3-1.6,2.3c-0.2,1,0,1.9,0.5,2.7
				c0.6,0.8,1.3,1.4,2.3,1.6s1.9,0,2.7-0.5s1.4-1.2,1.6-2.2c0.2-1,0-1.9-0.5-2.7C827.4-35.6,826.6-36.1,825.6-36.3z"/>
		</g>
	</g>
</g>
<g transform="matrix( -0.665618896484375, -0.1439208984375, -0.1439208984375, 0.665618896484375, 913.65,352.85) ">
	<g>
		<g id="Layer1_2_MEMBER_5_MEMBER_0_MEMBER_1_FILL">
			<path class="st16" d="M823-14.6c-0.8,0.5-1.4,1.3-1.6,2.3c-0.2,1,0,1.9,0.5,2.7c0.6,0.8,1.3,1.4,2.3,1.6c1,0.2,1.9,0,2.7-0.5
				s1.4-1.2,1.6-2.2c0.2-1,0-1.9-0.5-2.7c-0.5-0.8-1.3-1.4-2.3-1.6C824.7-15.3,823.8-15.2,823-14.6z"/>
		</g>
	</g>
</g>
<g transform="matrix( -0.665618896484375, -0.1439208984375, -0.1439208984375, 0.665618896484375, 913.65,352.85) ">
	<g>
		<g id="Layer1_2_MEMBER_5_MEMBER_0_MEMBER_2_FILL">
			<path class="st16" d="M823,7.6c-0.8,0.5-1.4,1.3-1.6,2.3s0,1.9,0.5,2.7c0.6,0.8,1.3,1.4,2.3,1.6s1.9,0,2.7-0.5
				c0.8-0.5,1.4-1.2,1.6-2.2c0.2-1,0-1.9-0.5-2.7c-0.5-0.8-1.3-1.4-2.3-1.6C824.7,6.9,823.8,7,823,7.6z"/>
		</g>
	</g>
</g>
<g transform="matrix( -0.665618896484375, -0.1439208984375, -0.1439208984375, 0.665618896484375, 913.65,352.85) ">
	<g>
		<g id="Layer1_2_MEMBER_5_MEMBER_0_MEMBER_3_FILL">
			<path class="st16" d="M853.3-35.8c-0.8,0.5-1.4,1.3-1.6,2.3c-0.2,1,0,1.9,0.5,2.7c0.6,0.8,1.3,1.4,2.3,1.6s1.9,0,2.7-0.5
				s1.4-1.2,1.6-2.2c0.2-1,0-1.9-0.5-2.7c-0.5-0.8-1.3-1.4-2.3-1.6C855-36.5,854.1-36.4,853.3-35.8z"/>
		</g>
	</g>
</g>
<g transform="matrix( -0.665618896484375, -0.1439208984375, -0.1439208984375, 0.665618896484375, 913.65,352.85) ">
	<g>
		<g id="Layer1_2_MEMBER_5_MEMBER_0_MEMBER_4_FILL">
			<path class="st16" d="M853.3-14.6c-0.8,0.5-1.4,1.3-1.6,2.3c-0.2,1,0,1.9,0.5,2.7c0.6,0.8,1.3,1.4,2.3,1.6s1.9,0,2.7-0.5
				s1.4-1.2,1.6-2.2c0.2-1,0-1.9-0.5-2.7c-0.5-0.8-1.3-1.4-2.3-1.6C855-15.3,854.1-15.2,853.3-14.6z"/>
		</g>
	</g>
</g>
<g transform="matrix( -0.665618896484375, -0.1439208984375, -0.1439208984375, 0.665618896484375, 913.65,352.85) ">
	<g>
		<g id="Layer1_2_MEMBER_5_MEMBER_0_MEMBER_5_FILL">
			<path class="st16" d="M853.3,7.6c-0.8,0.5-1.4,1.3-1.6,2.3c-0.2,1,0,1.9,0.5,2.7c0.6,0.8,1.3,1.4,2.3,1.6s1.9,0,2.7-0.5
				s1.4-1.2,1.6-2.2c0.2-1,0-1.9-0.5-2.7S857,7.4,856,7.2C855,6.9,854.1,7,853.3,7.6z"/>
		</g>
	</g>
</g>
<g transform="matrix( -0.5180816650390625, -0.4413909912109375, -0.4413909912109375, 0.5180816650390625, 1260.1,427.65) ">
	<g>
		<g id="Layer1_2_MEMBER_6_MEMBER_0_FILL">
			<path class="st6" d="M1140.1,593.2c-0.1-2-0.9-3.7-2.4-5s-3.2-1.9-5.2-1.8c-2,0.1-3.7,0.9-5,2.4c-1.3,1.5-1.9,3.2-1.8,5.2
				l3.1,62.3c0.1,2,0.9,3.7,2.4,5s3.2,1.9,5.2,1.8c2-0.1,3.7-0.9,5-2.4c1.3-1.5,1.9-3.2,1.8-5.2L1140.1,593.2z"/>
		</g>
	</g>
</g>
<g transform="matrix( -0.65350341796875, 0.1907958984375, 0.1907958984375, 0.65350341796875, 1117.15,152.4) ">
	<g>
		<g id="Layer1_2_MEMBER_6_MEMBER_1_FILL">
			<path class="st6" d="M1031.6-243.1c-2,0-3.7,0.6-5.2,2c-1.5,1.4-2.2,3.1-2.3,5.1l-2.3,62.3c0,2,0.6,3.7,2,5.2s3.1,2.2,5.1,2.3
				c2,0,3.7-0.6,5.2-2s2.2-3.1,2.3-5.1l2.3-62.3c0-2-0.6-3.7-2-5.2C1035.3-242.3,1033.6-243,1031.6-243.1z"/>
		</g>
	</g>
</g>
<g transform="matrix( -0.65350341796875, 0.1907958984375, 0.1907958984375, 0.65350341796875, 921.05,351.4) ">
	<g transform="matrix( 1, 0, 0, 1, 0,0) ">
		<g>
			<g id="_VisiTeli_V2_ai_Layer_1__Clip_Group__1_0_Layer3_0_FILL">
				<path class="st15" d="M667.5-445c-1.9,1.7-2.8,3.8-2.9,6.3l-1.8,45.5l18.2,0.7l1.8-45.5c0.1-2.5-0.7-4.7-2.5-6.5
					c-1.7-1.9-3.8-2.8-6.3-2.9C671.5-447.5,669.4-446.7,667.5-445z"/>
			</g>
		</g>
	</g>
</g>
<g transform="matrix( 1, 0, 0, 1, 0,0) ">
	<g>
		<g id="Layer1_2_MEMBER_6_MEMBER_3_FILL">
			<path class="st15" d="M389.4,184.8c-3,0.9-5.3,2.7-6.8,5.4c-1.5,2.8-1.8,5.6-0.9,8.6s2.7,5.3,5.4,6.8c2.8,1.5,5.6,1.8,8.6,0.9
				s5.2-2.7,6.7-5.4c1.5-2.8,1.9-5.6,1-8.6s-2.7-5.2-5.4-6.7C395.3,184.2,392.4,183.9,389.4,184.8z"/>
		</g>
	</g>
</g>
<g transform="matrix( -0.5180816650390625, -0.4413909912109375, -0.4413909912109375, 0.5180816650390625, 1260.1,427.65) ">
	<g>
		<g id="Layer1_2_MEMBER_6_MEMBER_4_FILL">
			<path class="st8" d="M1139.6,666.7l3.5,2.1c2.7,1,4.8,0.6,6.3-1.3c-1-1.5-2.3-4-4.1-7.5l-2.3-4.9L1139.6,666.7z"/>
		</g>
	</g>
</g>
<g transform="matrix( -0.5180816650390625, -0.4413909912109375, -0.4413909912109375, 0.5180816650390625, 1260.1,427.65) ">
	<g>
		<g id="Layer1_2_MEMBER_6_MEMBER_5_FILL">
			<path class="st6" d="M1143.1,654.1l-14.6-1.1l-0.5,14.7l3.3,5.2c2.5,3.7,4.5,6,6,7c1.8,1.2,4.2,2.1,7.1,2.5
				c1.9,0.3,3.5,0.4,4.9,0.3c1.4-0.1,0.8-2.4-1.8-7.1l-4.2-6.9L1143.1,654.1z"/>
		</g>
	</g>
</g>
<g transform="matrix( -0.65350341796875, 0.1907958984375, 0.1907958984375, 0.65350341796875, 1117.15,152.4) ">
	<g transform="matrix( -1.4100189208984375, 0.4116668701171875, 0.4116668701171875, 1.4100189208984375, 1512.45,-674.8) ">
		<path id="Layer1_2_MEMBER_6_MEMBER_6_1_STROKES" class="st9" d="M1107.4-113.1l18.2,0.8"/>
	</g>
</g>
<g transform="matrix( -0.665618896484375, -0.1438446044921875, -0.1438446044921875, 0.665618896484375, 1186.95,279.35) ">
	<g>
		<g id="Layer1_2_MEMBER_7_FILL_1_">
			<path class="st17" d="M1207.1,116.1c2.1-1.4,3.2-3,3.2-5s-1.1-3.6-3.2-5s-4.7-2.1-7.7-2.1s-5.6,0.7-7.7,2.1c-2.1,1.4-3.2,3-3.2,5
				s1.1,3.6,3.2,5s4.7,2.1,7.7,2.1C1202.4,118.2,1205,117.5,1207.1,116.1z"/>
		</g>
	</g>
</g>
<g transform="matrix( -0.665618896484375, -0.1438446044921875, -0.1438446044921875, 0.665618896484375, 1186.95,279.35) ">
	<g>
		<g id="Layer1_2_MEMBER_8_FILL">
			<path class="st6" d="M1205.7,96.9c0-1.6-0.5-3-1.6-4.2c-1.1-1.1-2.4-1.7-4-1.7h-0.1c-1.5,0-2.9,0.6-4,1.7
				c-1.2,1.2-1.7,2.6-1.7,4.2v12.7c0,2.8,1.9,4.3,5.7,4.3h0.1c3.8,0,5.7-1.5,5.7-4.3L1205.7,96.9L1205.7,96.9z"/>
		</g>
	</g>
</g>
<g transform="matrix( -0.6809539794921875, -0.005950927734375, -0.005950927734375, 0.6809539794921875, 1168.35,218) ">
	<g>
		<g id="Layer1_2_MEMBER_9_FILL">
			<path class="st6" d="M1152.3-102.8c-4.9,6.7-6.6,14.5-5.1,23.4c1.7,9.3,5,16.6,10,21.9c5.6,6,12.9,8.7,21.8,8.2
				c7.6-1.7,13.1-7.1,16.6-16.3c2.7-7.1,3.7-14.4,3.1-22.1c-0.7-8.9-3.4-15.4-8.2-19.4c-4.4-3.7-11-5.5-19.7-5.5
				C1163.3-112.6,1157.1-109.3,1152.3-102.8z"/>
		</g>
	</g>
</g>
<g transform="matrix( -0.6809539794921875, -0.005950927734375, -0.005950927734375, 0.6809539794921875, 1168.35,218) ">
	<g>
		<g id="Layer1_2_MEMBER_10_FILL">
			<path class="st18" d="M1190.7-115.4c-1.6-1.2-3.7-2.3-6.2-3.4c-5-2.2-9.8-3.1-14.3-2.7c-7.1,0.6-13,2.8-17.7,6.7
				c-1.5,1.2-2.7,2.5-3.8,3.9l-1.1,1.7c-0.6-0.3-1.3-0.5-2.2-0.7c-1.8-0.5-3.5-0.7-5.2-0.6c1.5,1.7,2.4,2.8,2.7,3.3
				c0.8,1.1,1.4,2.5,1.8,4.1c-1.5,3.8-2,9.3-1.6,16.5c0.5-0.4,1.1-0.7,1.6-0.9c0.7-0.2,1.5-0.3,2.3-0.1l0.6,0.1l0,0l0.9,0.3l1.2,0.7
				l1.1,0.9v0.1l0.2,0.2l0.1,0.1l0,0l0,0l0,0v8.4c0,1.3,0.3,2.2,0.9,2.8l0.4,0.4c0.2,0.2,0.6,0.3,1.1,0.5c0.6,0.2,1.1,0.3,1.4,0.3
				c1.1,0,2.1-0.4,3-1.2s1.4-1.7,1.4-2.8v-3c0-1.1,0.4-2.1,1.1-2.9c0.8-0.8,1.7-1.3,2.8-1.4l0.8-0.1c0-2.6,0-5.2,0-7.7
				c0-1.2,0.3-2,0.9-2.6c0.8-0.7,2.2-1.1,4.4-1.4h0.1l1.3-0.1l23.9-0.1l0.2-0.1c0.9-0.2,1.7-0.6,2.6-1.1c1.4-0.8,2.5-1.7,3.2-2.8
				c0.6-1,1-2,1.2-3v-0.9h-5.8l1.1-1.2c0.8-1.1,1.4-2.4,1.9-3.9s0.9-3,1.1-4.5l0.2-1.9L1190.7-115.4L1190.7-115.4z"/>
		</g>
	</g>
</g>
<g transform="matrix( -0.6809539794921875, -0.005950927734375, -0.005950927734375, 0.6809539794921875, 1168.35,218) ">
	<g>
		<g id="Layer1_2_MEMBER_11_FILL_1_">
			<path class="st19" d="M1193.6-97.7h-0.3c-2.6,0.4-10.1,1.1-22.4,2l23.8-0.1l0.2-0.1c0.9-0.2,1.7-0.6,2.6-1.1
				c1.4-0.8,2.5-1.7,3.2-2.8c0.6-1,1-2,1.2-3v-1.2c-0.8,0.9-1.8,1.9-2.9,2.9C1196.7-99.1,1194.9-98,1193.6-97.7z"/>
		</g>
	</g>
</g>
<g transform="matrix( -0.6808013916015625, -0.0058746337890625, -0.0058746337890625, 0.6808013916015625, 1168.6,218) ">
	<g>
		<g id="Layer1_2_MEMBER_12_MEMBER_0_FILL">
			<path class="st18" d="M1192-84.7h0.2c0.3,0,0.5-0.1,0.7-0.3s0.3-0.4,0.3-0.7s-0.1-0.6-0.3-0.8c-0.2-0.2-0.5-0.4-0.8-0.4l-6.7-0.3
				c-0.3,0-0.6,0.1-0.8,0.3c-0.2,0.2-0.4,0.5-0.4,0.8s0.1,0.6,0.3,0.8c0.2,0.2,0.5,0.4,0.8,0.4L1192-84.7z"/>
		</g>
	</g>
</g>
<g transform="matrix( -0.6808013916015625, -0.0058746337890625, -0.0058746337890625, 0.6808013916015625, 1168.6,218) ">
	<g>
		<g id="Layer1_2_MEMBER_13_MEMBER_0_FILL">
			<path class="st18" d="M1167.3-85c0.2,0.2,0.5,0.3,0.8,0.3l6.7-0.3c0.3,0,0.6-0.2,0.8-0.4c0.2-0.2,0.3-0.5,0.3-0.8
				s-0.1-0.5-0.3-0.7c-0.2-0.2-0.4-0.3-0.7-0.3l-6.9,0.3c-0.3,0-0.6,0.2-0.8,0.4c-0.2,0.2-0.3,0.5-0.3,0.8
				C1167-85.5,1167.1-85.2,1167.3-85z"/>
		</g>
	</g>
</g>
<g transform="matrix( -0.6809539794921875, -0.005950927734375, -0.005950927734375, 0.6809539794921875, 1168.35,218) ">
	<g>
		<g id="Layer1_2_MEMBER_14_FILL_1_">
			<path class="st20" d="M1170.4-78.9c0,0.4,0.2,0.8,0.5,1.1s0.6,0.4,1,0.4s0.8-0.1,1.1-0.4c0.3-0.3,0.4-0.7,0.4-1.1
				c0-0.4-0.1-0.8-0.4-1c-0.3-0.3-0.7-0.5-1.1-0.5s-0.8,0.2-1,0.5C1170.5-79.6,1170.4-79.3,1170.4-78.9z"/>
		</g>
	</g>
</g>
<g transform="matrix( -0.6809539794921875, -0.005950927734375, -0.005950927734375, 0.6809539794921875, 1168.35,218) ">
	<g>
		<g id="Layer1_2_MEMBER_15_FILL_1_">
			<path class="st20" d="M1186.4-78.3c0,0.4,0.2,0.8,0.5,1.1s0.6,0.4,1,0.4s0.8-0.1,1.1-0.4c0.3-0.3,0.4-0.7,0.4-1.1
				c0-0.4-0.1-0.8-0.4-1c-0.3-0.3-0.7-0.5-1.1-0.5s-0.8,0.2-1,0.5C1186.6-79.1,1186.4-78.8,1186.4-78.3z"/>
		</g>
	</g>
</g>
<g transform="matrix( -0.6809539794921875, -0.005950927734375, -0.005950927734375, 0.6809539794921875, 1168.35,218) ">
	<g>
		<g id="Layer1_2_MEMBER_16_FILL">
			<path class="st19" d="M1199.1-109.2c0.7-2,1.1-4,1.2-6.2c-0.6,1.4-1.5,2.9-2.5,4.5c-2.2,3.2-4.3,5.3-6.5,6.2
				c-1.9,0.8-6.8,1.4-14.9,1.9l-11.6,0.6l2.3,0.7c1.8,0.5,3.3,0.8,4.5,0.9c2.9,0.3,6.8,0.3,11.8,0c7.1-0.5,11.3-1.6,12.6-3.4
				C1197.3-105.5,1198.3-107.2,1199.1-109.2z"/>
		</g>
	</g>
</g>
<g transform="matrix( -0.6808013916015625, -0.0058746337890625, -0.0058746337890625, 0.6808013916015625, 1168.6,218) ">
	<g>
		<g id="Layer1_2_MEMBER_17_MEMBER_0_FILL_1_">
			<path class="st6" d="M1141-82.8c1.9,5.2,2.9,7.8,2.9,7.9c1.5,3,2.8,3.8,4.1,2.3c2.6-3,4-7,4.2-12c-0.1-0.3-0.3-0.6-0.6-1
				c-0.6-0.8-1.4-1.5-2.4-2.2c-2.5-1.7-4.7-2-6.7-0.9C1140.4-87.5,1139.9-85.5,1141-82.8z"/>
		</g>
	</g>
</g>
<g transform="matrix( -0.6808013916015625, -0.0058746337890625, -0.0058746337890625, 0.6808013916015625, 1168.6,218) ">
	<g>
		<g id="Layer1_2_MEMBER_17_MEMBER_1_FILL">
			<path class="st8" d="M1145.4-83.5l3.1-0.5l-6.2-1.1l4.7,8.6L1145.4-83.5z"/>
		</g>
	</g>
</g>
<g transform="matrix( -0.6809539794921875, -0.005950927734375, -0.005950927734375, 0.6809539794921875, 1168.35,218) ">
	<g>
		<g id="Layer1_2_MEMBER_18_FILL_1_">
			<path class="st8" d="M1179.8-67.9l2.8-0.7L1180-81L1179.8-67.9z"/>
		</g>
	</g>
</g>
<g transform="matrix( -0.6809539794921875, -0.005950927734375, -0.005950927734375, 0.6809539794921875, 1168.35,218) ">
	<g transform="matrix( -1.468414306640625, -0.0128173828125, -0.0128173828125, 1.468414306640625, 1718.4,-305.1) ">
		<path id="Layer1_2_MEMBER_19_1_STROKES" class="st21" d="M1185.2,34.5c-0.8,1-1.9,1.9-3.3,2.6c-1.5,0.8-3.2,1.2-4.8,1.2
			c-1.6,0-3.3-0.4-5-1.3c-1.4-0.7-2.5-1.5-3.1-2.4"/>
	</g>
</g>
<g transform="matrix( 1, 0, 0, 1, 0,0) ">
	<g>
		<g id="Layer1_2_MEMBER_20_FILL_1_">
			<path class="st15" d="M385.7,107.5c-0.1-0.7-0.3-1.4-0.6-2.2c-1.1-2.5-2.9-4.4-5.6-5.7c-0.4-0.2-0.8-0.4-1.2-0.5
				c-2.3-0.8-4.5-0.9-6.8-0.2c-2.7,0.8-4.6,2.4-5.7,4.8s-1.2,4.8-0.1,7.4c0.6,1.6,1.5,2.9,2.8,4l-7,14.7c-1.1,2.4-0.5,4.1,1.8,5.2
				l17.9,8.5c2.4,1.1,4.1,0.5,5.2-1.8l7.5-15.7c0.6-0.1,1.1-0.2,1.7-0.4c2.7-0.8,4.7-2.5,5.8-4.9c0.5-1.1,0.8-2.2,0.9-3.4
				c0.1-1.4-0.2-2.9-0.8-4.3c-1.1-2.6-2.9-4.6-5.6-5.8c-2.2-1.1-4.5-1.4-6.8-1c-0.4,0.1-0.9,0.2-1.3,0.3
				C387.1,106.8,386.4,107,385.7,107.5z"/>
			<path class="st5" d="M388.8,97.1c-2.2-1-4.4-1.2-6.7-0.4c-1.5,0.5-2.8,1.3-3.7,2.4c0.4,0.2,0.8,0.3,1.2,0.5
				c2.6,1.2,4.5,3.1,5.6,5.7c0.3,0.7,0.5,1.4,0.6,2.2c0.7-0.4,1.5-0.8,2.3-1c0.5-0.1,0.9-0.2,1.3-0.3c2.3-0.4,4.6-0.1,6.8,1
				c2.7,1.3,4.6,3.2,5.6,5.8c0.6,1.5,0.8,2.9,0.8,4.3c1.7-0.9,2.9-2.3,3.8-4.2c1.1-2.4,1.2-4.7,0.4-7.1c-0.8-2.4-2.4-4.2-4.7-5.3
				c-2.3-1.1-4.7-1.2-7.1-0.3c-0.7,0.3-1.3,0.6-1.9,0.9C392.2,99.4,390.7,98,388.8,97.1z"/>
		</g>
	</g>
</g>
<g transform="matrix( 1, 0, 0, 1, 0,0) ">
	<g>
		<g id="Layer1_3_FILL_2_">
			<path class="st4" d="M362.8,198.1c-0.3-0.3-0.7-0.5-1.2-0.5s-0.9,0.1-1.3,0.4c-0.3,0.3-0.5,0.8-0.5,1.2l-0.3,6.7l-0.5,15.6
				c0,0.5,0.1,0.9,0.5,1.2c0.3,0.4,0.7,0.6,1.2,0.6s0.9-0.1,1.2-0.5c0.3-0.3,0.5-0.7,0.6-1.2l0.6-16l0.2-6.2
				C363.3,198.9,363.2,198.5,362.8,198.1 M367.5,167.5c-0.2,0.1-1.3,0.6-3.4,1.4c0,0.2-0.1,0.3-0.3,0.3c1.1,0.7,2,1.4,2.9,2.2
				c1.7,1.5,2.5,3,2.4,4.3c0,0.6-0.3,1.3-0.7,1.9c-0.4,0.6-0.6,0.9-0.7,0.8c0.4,0.4,0.8,1.4,1.1,2.9c0.1,0,0.2,0,0.3,0
				c-0.1,0-0.2,0.1-0.3,0.2c-0.1,0-0.1,0.1-0.2,0.1c-0.3,0.3-0.5,0.6-0.5,1.1L368,186l-0.8,19.6c0,0.4,0.1,0.8,0.4,1.1
				c0.3,0.3,0.6,0.5,1.1,0.5c0.4,0,0.8-0.1,1.1-0.4c0.3-0.3,0.5-0.6,0.5-1.1l0.9-22.9c0-0.4-0.1-0.8-0.4-1.1
				c-0.3-0.3-0.5-0.4-0.9-0.5c0.3,0,0.6-0.1,0.7-0.2c1.8-0.6,2.7-2,2.8-4.1c0.1-1.5-0.1-2.7-0.6-3.6c-0.4-0.7-1.3-1.5-2.6-2.3
				c0.2-0.1,0.3-0.5,0.5-1.1s0.3-1.1,0.3-1.5s0-0.7-0.2-0.9c-0.1-0.1-0.5-0.5-1.1-1l-1.6-0.1C368,167,367.8,167.3,367.5,167.5
				 M367.2,136.4c-0.1,0.1-0.7,0.4-1.6,0.9c0,0,0,0.1,0.1,0.2c0.2,0.8,0.3,1.3,0.3,1.6c0,1.3-0.9,2.5-2.4,3.7v0.1
				c0.6,0.2,1.1,0.6,1.5,1.3c0.5,0.8,0.7,1.7,0.6,2.7c0,0.8-0.3,1.4-0.8,1.9c1.7,0.2,2.9,0.6,3.8,1.4c2.2,2.6,2.2,5.3,0,7.9
				c-0.1,0.1-0.2,0.2-0.3,0.3c-0.7,0.6-1.7,1.2-2.9,1.9c0,0.2-0.1,0.3-0.3,0.3c1.9,0.3,2.9,1.2,3.3,2.9c1.9-0.5,3.3-1.1,4.3-1.8
				c0.6-0.4,1-0.9,1.5-1.4c2-4.6,1.4-8.8-2-12.6l-0.1,0.2l-1.7-2.2c0,0,0.1-0.1,0.1-0.2c2.3-3.3,1.9-6.2-1.4-8.8
				c-0.3-0.2-0.7-0.3-1.1-0.3S367.3,136.4,367.2,136.4z"/>
			<path class="st2" d="M365.1,144.2c-0.4-0.7-0.9-1.1-1.5-1.3c0.4,2,0.8,3.9,1,5.9c0.4,3.8,0.5,7.6,0.3,11.4c0,0.1,0,0.2,0,0.3
				c-0.2,2.9-0.6,5.8-1.3,8.6c-1.3,5.6-3.3,11.1-6.2,16.5l-7.5-0.8c0,0.4-0.1,1-0.2,1.6c-0.1,0.7-0.2,1.1-0.2,1.4
				c0,1.3,0.4,2.3,1.3,2.9l-0.7,17.7c0,0.8,0.2,1.4,0.7,2s1.2,0.9,1.9,0.9c0.5,0,1-0.1,1.4-0.3l-0.4,10.1c0,0.5,0.1,0.9,0.5,1.2
				c0.3,0.3,0.7,0.5,1.2,0.6c0.5,0,0.9-0.1,1.2-0.5c0.3-0.3,0.5-0.7,0.6-1.2l0.7-16.7c0.1,0.1,0.2,0.2,0.3,0.4
				c0.4,0.4,0.8,0.7,1.3,0.9l0.3-6.7c0-0.5,0.2-0.9,0.5-1.2c0.4-0.3,0.8-0.4,1.3-0.4s0.9,0.2,1.2,0.5c0.3,0.4,0.5,0.8,0.5,1.3
				l-0.2,6.2c0.1-0.1,0.2-0.2,0.3-0.3c0.7-0.7,1.1-1.5,1.2-2.5l0.5-13.1c0-0.4,0-0.8-0.1-1.1c0.4-0.2,0.8-0.5,1.2-0.8
				c0.7-0.5,1.3-1.1,1.8-1.7l0.1-3.3c0-0.4,0.2-0.8,0.5-1.1c0,0,0.1-0.1,0.2-0.1v-0.1c-0.4-1.5-0.8-2.5-1.1-2.9
				c0.1,0,0.3-0.3,0.7-0.8c0.5-0.7,0.7-1.3,0.7-1.9c0-1.3-0.8-2.8-2.4-4.3c-0.8-0.7-1.8-1.5-2.9-2.2c0.2,0,0.3-0.1,0.3-0.3
				c2.1-0.8,3.2-1.2,3.4-1.4c0.3-0.2,0.5-0.5,0.6-0.9c0.2-0.5,0.3-1.1,0.3-1.9c0-0.5,0-0.9,0-1.2c-0.3-1.6-1.4-2.6-3.3-2.9
				c0.2,0,0.3-0.1,0.3-0.3c1.2-0.7,2.2-1.4,2.9-1.9c0.1-0.1,0.2-0.2,0.3-0.3c2.2-2.6,2.2-5.2,0-7.9c-0.9-0.7-2.2-1.2-3.8-1.4
				c0.5-0.4,0.7-1.1,0.8-1.9C365.8,145.8,365.5,144.9,365.1,144.2 M350.4,129.6l0.2,1l8.6-1.3c1.9,4.5,3.4,9,4.4,13.5
				c1.6-1.1,2.4-2.4,2.4-3.7c0-0.3-0.1-0.8-0.3-1.6c0-0.1,0-0.1-0.1-0.2c-0.3-0.9-0.7-1.8-1.1-2.5c0.8-0.6,1.3-1.1,1.5-1.6
				c0.2-0.3,0.3-0.8,0.3-1.5c0-1.1-0.3-2-0.9-2.8c-0.8-0.9-1.9-1.5-3.4-1.5c-0.9,0-1.6,0-2.1,0.3c-0.1-1.1-0.5-1.7-1.1-2
				c-0.2-0.1-0.7-0.2-1.6-0.2c-1.4-0.1-2.7,0.1-3.9,0.5C351.4,126.8,350.5,127.9,350.4,129.6z"/>
			<path class="st22" d="M342.5,132.2c-1.9,0.7-3.6,3.1-5.2,7.2c-1.9,5-3,11.1-3.3,18.4c-0.3,7.2,0.3,13.4,1.8,18.6
				c1.3,4.6,3,7.2,5.1,7.8c0.2,0,0.5,0.1,0.7,0.1c0.4,0,0.8-0.1,1.2-0.2c1.9-0.7,3.6-3.1,5.2-7.3c1.9-5,2.9-11.2,3.2-18.4
				c0.3-7.2-0.3-13.4-1.8-18.6S345.6,132.1,342.5,132.2C343,132.1,342.9,132,342.5,132.2L342.5,132.2z"/>
			<path class="st23" d="M343.7,131.8l-1,0.6c3.1-0.1,5.4,2.4,6.9,7.6s2.1,11.4,1.8,18.6c-0.3,7.2-1.4,13.4-3.2,18.4
				c-1.6,4.2-3.3,6.6-5.2,7.3l7.1,0.7l7.5,0.8c2.8-5.4,4.9-10.9,6.2-16.5c0.6-2.8,1.1-5.7,1.3-8.6c0-0.1,0-0.2,0-0.3
				c0.2-3.8,0.1-7.6-0.3-11.4c-0.3-2-0.6-4-1-5.9V143c-1-4.5-2.5-9-4.4-13.5l-8.6,1.3L343.7,131.8z"/>
		</g>
	</g>
</g>
<g transform="matrix( 1, 0, 0, 1, 0,0) ">
	<g>
		<g id="Layer1_4_FILL_2_">
			<path class="st24" d="M313.1,350c2.9-4.1,3.7-7.8,2.5-11.2c-0.5,1.1-2.2,2.6-5.1,4.5c-3.9,2.6-8.8,5.3-14.7,8
				c-6,2.7-11.3,4.6-15.9,5.7c-4.5,1.1-7,1.2-7.5,0.2c1.6,3.5,5.1,5.7,10.4,6.4c1.7,0.2,3.5,0.2,5.3,0.1c-0.2,0.5-0.3,0.8-0.2,1.1
				c0.4,0.8,1.8,1,4.3,0.6s5.3-1.3,8.4-2.7s5.7-2.9,7.6-4.5c1.9-1.5,2.7-2.7,2.4-3.5c-0.2-0.3-0.5-0.6-0.9-0.7
				C311.1,352.6,312.2,351.3,313.1,350z"/>
			<path class="st1" d="M292.4,343.6c-6,2.7-10.9,5.3-14.8,7.9c-3.9,2.6-5.6,4.5-5.2,5.5l0.1,0.1c0.5,1,2.9,0.9,7.5-0.2
				c4.6-1.1,9.9-3,15.9-5.7s10.9-5.4,14.7-8c2.9-1.9,4.6-3.4,5.1-4.5c0.2-0.4,0.2-0.7,0.1-1s-0.4-0.5-0.8-0.6
				c-1.1-0.3-3.4-0.1-6.7,0.8C303.6,339,298.3,341,292.4,343.6z"/>
		</g>
	</g>
</g>
<g transform="matrix( 1, 0, 0, 1, 0,0) ">
	<g>
		<g id="Layer1_5_FILL_3_">
			<path class="st24" d="M210.7,375.8L210.7,375.8L210.7,375.8L210.7,375.8 M186.9,375.8h-0.2c0,0.1,0.1,0.1,0.2,0.2V375.8z"/>
			<path class="st5" d="M186.2,375c0,0.3,0.2,0.5,0.5,0.8h0.2c4.4,1.6,9.1,2.3,14.2,1.9c3.1-0.3,6.2-0.9,9.5-1.9l0,0
				c0.3-0.3,0.5-0.7,0.5-1c0-0.9-1.2-1.6-3.6-2.2c-1.9-0.5-4-0.8-6.4-0.9c-0.8,0-1.6,0-2.4,0c-3.4,0.1-6.4,0.4-8.8,1.1
				C187.4,373.5,186.2,374.2,186.2,375z"/>
			<path class="st3" d="M222.3,391.5c-2.1-7.4-4.4-11.9-6.9-13.4c-1.5-0.9-3.1-1.6-4.7-2.2l0,0c-3.3,1-6.5,1.6-9.5,1.9
				c-5.1,0.4-9.8-0.2-14.2-1.9v0.2c-1.7,0.6-3.3,1.4-4.8,2.3c-0.3,0.2-0.5,0.4-0.8,0.6c-2,1.9-4.1,6.1-6.1,12.5
				C189.7,394.8,205.4,394.8,222.3,391.5z"/>
		</g>
	</g>
</g>
<g transform="matrix( -0.5779266357421875, -0.3427276611328125, -0.3427276611328125, 0.5779266357421875, 1410.8,555.35) ">
	<g>
		<g id="Layer1_6_MEMBER_0_FILL">
			<path class="st6" d="M1681.2,472.9l-11.9-6.6l-18.4,31.3l11.9,6.6L1681.2,472.9z"/>
		</g>
	</g>
</g>
<g transform="matrix( -0.644561767578125, -0.18975830078125, -0.18975830078125, 0.644561767578125, 1424.7,385.9) ">
	<g>
		<g id="Layer1_6_MEMBER_1_FILL">
			<path class="st0" d="M1725.8,196.8c0.7-2.7,0.4-5.2-0.9-7.6c-1.4-2.4-3.4-3.9-6.1-4.7c-2.7-0.7-5.2-0.4-7.6,1
				c-2.4,1.4-4,3.4-4.7,6l-16.7,61.1c-0.7,2.7-0.4,5.2,1,7.6c1.4,2.4,3.4,3.9,6,4.7c2.7,0.7,5.2,0.4,7.6-1s4-3.4,4.7-6.1
				L1725.8,196.8z"/>
		</g>
	</g>
</g>
<g transform="matrix( -0.66070556640625, -0.12237548828125, -0.12237548828125, 0.66070556640625, 1425.3,316.75) ">
	<g>
		<g id="Layer1_6_MEMBER_2_FILL">
			<path class="st0" d="M1766.8,365c-1.8-1.8-3.9-2.6-6.4-2.6s-4.6,0.9-6.4,2.6c-1.8,1.8-2.7,3.9-2.7,6.4v64.1
				c0,2.5,0.9,4.7,2.7,6.4c1.8,1.8,3.9,2.6,6.4,2.6s4.7-0.9,6.4-2.6c1.8-1.8,2.6-3.9,2.6-6.4v-64.1
				C1769.4,368.9,1768.5,366.8,1766.8,365z"/>
		</g>
	</g>
</g>
<g transform="matrix( -0.66070556640625, -0.12237548828125, -0.12237548828125, 0.66070556640625, 1425.3,316.75) ">
	<g>
		<g id="Layer1_6_MEMBER_3_FILL">
			<path class="st25" d="M1769,226.1c-2-2-4.4-3-7.3-3h-2.8c-2.8,0-5.2,1-7.3,3c-2,2-3,4.4-3,7.3l0,194.5l23.4,0l0-194.5
				C1772,230.5,1771,228.1,1769,226.1z"/>
		</g>
	</g>
</g>
<g transform="matrix( 0.66070556640625, -0.12237548828125, 0.12237548828125, 0.66070556640625, -140.4,318.7) ">
	<g>
		<g id="Layer1_6_MEMBER_4_FILL">
			<path class="st26" d="M503.3,198.8c0-0.6-0.2-1-0.7-1.4c-0.5-0.3-1-0.4-1.5-0.3c-4.6,1.4-10,1.3-16-0.3c-1.3-0.3-2.7-0.3-4.1,0
				l-29.1,7.6c-1,0.2-1.8,0.8-2.4,1.6s-0.9,1.7-0.9,2.7v1.1l54.6,0v-11H503.3z"/>
		</g>
	</g>
</g>
<g transform="matrix( 0.66070556640625, -0.12237548828125, 0.12237548828125, 0.66070556640625, -140.4,318.7) ">
	<g>
		<g id="Layer1_6_MEMBER_5_FILL">
			<path class="st0" d="M448.6,209.8v1.7c0,0.5,0.2,0.9,0.5,1.2s0.8,0.5,1.2,0.5l49.6,0c0.9,0,1.7-0.3,2.4-1c0.6-0.6,1-1.4,1-2.4
				v-0.1L448.6,209.8z"/>
		</g>
	</g>
</g>
<g transform="matrix( -0.67193603515625, -0.0086822509765625, -0.0086822509765625, 0.67193603515625, 1387.2,197.05) ">
	<g>
		<g id="Layer1_6_MEMBER_6_FILL">
			<path class="st0" d="M1683.3,246.2c-1.8-1.8-3.9-2.6-6.4-2.6s-4.6,0.9-6.4,2.6c-1.8,1.8-2.7,3.9-2.7,6.4l0,64.1
				c0,2.5,0.9,4.7,2.7,6.4c1.8,1.8,3.9,2.6,6.4,2.6s4.7-0.9,6.4-2.6s2.6-3.9,2.6-6.4l0-64.1C1686,250.1,1685.1,247.9,1683.3,246.2z"
				/>
		</g>
	</g>
</g>
<g transform="matrix( -0.67193603515625, -0.0086822509765625, -0.0086822509765625, 0.67193603515625, 1387.2,197.05) ">
	<g>
		<g id="Layer1_6_MEMBER_7_FILL">
			<path class="st25" d="M1685.5,107.2c-2-2-4.4-3-7.3-3h-2.8c-2.8,0-5.2,1-7.3,3c-2,2-3,4.4-3,7.3l0,194.5h23.4l0-194.5
				C1688.5,111.6,1687.5,109.2,1685.5,107.2z"/>
		</g>
	</g>
</g>
<g transform="matrix( -0.67193603515625, -0.0086822509765625, -0.0086822509765625, 0.67193603515625, 1387.2,197.05) ">
	<g>
		<g id="Layer1_6_MEMBER_8_FILL">
			<path class="st26" d="M1636.3,321.3c-1,0.2-1.8,0.8-2.4,1.6s-0.9,1.7-0.9,2.7v1.1h54.6v-11c0-0.6-0.2-1-0.7-1.4
				c-0.5-0.3-1-0.4-1.5-0.3c-4.6,1.4-10,1.3-16-0.3c-1.4-0.3-2.7-0.3-4.1,0L1636.3,321.3z"/>
		</g>
	</g>
</g>
<g transform="matrix( -0.67193603515625, -0.0086822509765625, -0.0086822509765625, 0.67193603515625, 1387.2,197.05) ">
	<g>
		<g id="Layer1_6_MEMBER_9_FILL">
			<path class="st0" d="M1633,326.6v1.7c0,0.5,0.2,0.9,0.5,1.2s0.7,0.5,1.2,0.5h49.6c0.9,0,1.7-0.3,2.4-1c0.6-0.6,1-1.4,1-2.4v-0.1
				L1633,326.6L1633,326.6z"/>
		</g>
	</g>
</g>
<g transform="matrix( -0.66070556640625, -0.12237548828125, -0.12237548828125, 0.66070556640625, 1425.3,316.75) ">
	<g>
		<g id="Layer1_6_MEMBER_10_FILL">
			<path class="st25" d="M1771.6,227.7l-66.7,0.6l0.4,21.4c0,3.2,1.2,5.9,3.4,8.1c2.3,2.2,5,3.3,8.2,3.3l43.8-0.4
				c3.2,0,5.9-1.2,8.1-3.4c2.2-2.3,3.3-5,3.3-8.1L1771.6,227.7z"/>
		</g>
	</g>
</g>
<g transform="matrix( 1, 0, 0, 1, 0,0) ">
	<g>
		<g id="Layer1_6_MEMBER_11_FILL">
			<path class="st0" d="M239.7,172.3c-2.5,1.8-4.1,4.2-4.6,7.2c-0.3,4.8-0.7,9.9-1.1,15.4c-0.6,7.3-1.2,13-1.7,17.2
				c-0.3,2.1-0.5,3.9-0.8,5.2c-0.1,0.6-0.3,1.3-0.4,2.1c-1.1,5.2-3.2,13.8-6.4,25.6c-1.8,6.8-7.1,23.3-16,49.7l64.2,10.1l2.9-64.6
				l12-51c0.6-3,0-5.8-1.8-8.4c-1.7-2.5-4.1-4.1-7.2-4.7l-30.8-5.7C245,170,242.2,170.6,239.7,172.3 M266.6,182.5
				c0.3,0.5,0.4,1,0.3,1.6l-8.5,52.3c-0.1,0.6-0.3,1-0.8,1.4c-0.4,0.4-0.8,0.5-1.3,0.5c-0.5-0.1-0.8-0.4-1.1-0.8s-0.3-0.9-0.2-1.5
				l8.5-52.3c0.1-0.6,0.3-1.1,0.7-1.4c0.4-0.3,0.9-0.5,1.3-0.4C266,181.8,266.4,182.1,266.6,182.5z"/>
			<path class="st27" d="M266.9,184.1c0.1-0.6,0-1.1-0.3-1.6c-0.3-0.4-0.6-0.7-1.1-0.8c-0.5-0.1-0.9,0-1.3,0.4s-0.6,0.8-0.7,1.4
				l-8.5,52.3c-0.1,0.6,0,1.1,0.2,1.5c0.3,0.5,0.7,0.7,1.1,0.8c0.5,0.1,0.9-0.1,1.3-0.5c0.4-0.3,0.7-0.8,0.8-1.4L266.9,184.1z"/>
		</g>
	</g>
</g>
<g transform="matrix( 1, 0, 0, 1, 0,0) ">
	<g>
		<g id="Layer1_6_MEMBER_11_MEMBER_0_FILL">
			<path class="st4" d="M276.1,241.6l0.6-5.2l-48.5-6.1c-0.4,0-0.7-0.1-1.1-0.1l-0.6,5.1L276.1,241.6z"/>
		</g>
	</g>
</g>
<g transform="matrix( 1, 0, 0, 1, 0,0) ">
	<g>
		<g id="Layer1_6_MEMBER_11_MEMBER_1_FILL">
			<path class="st4" d="M276,244.9c0.1-1.4,0.2-2.8,0.2-4.2l-41.8-5.1c-0.3,1-0.5,2.1-0.7,3.1c-0.3,0-0.6,0.2-0.9,0.5
				c-0.4,0.4-0.6,1-0.7,1.7c-0.1,0.7,0,1.2,0.3,1.7c0.2,0.3,0.4,0.6,0.7,0.8c-0.1,1.1-0.2,2.3-0.2,3.4c-0.2,0.1-0.4,0.3-0.6,0.6
				c-0.4,0.5-0.6,1.1-0.7,1.9c-0.1,0.8,0,1.4,0.2,2c0.3,0.6,0.6,0.9,1,0.9c0.1,0,0.3,0,0.4,0c0.2,1.5,0.5,3.1,0.8,4.6
				c-0.3,0.4-0.5,1-0.6,1.6c-0.1,0.7,0,1.4,0.2,1.9c0.3,0.5,0.6,0.8,1,0.9c0.3,0,0.5,0,0.8-0.2c0.4,1,0.9,2.1,1.4,3.1
				c0.3,0.6,0.6,1.2,0.9,1.7c-0.3,0.4-0.5,0.9-0.6,1.4c-0.1,0.6,0,1.2,0.2,1.7c0.3,0.5,0.7,0.7,1.1,0.8c0.5,0,0.9-0.1,1.2-0.5
				c0.1-0.1,0.1-0.1,0.2-0.2c1,1.2,2.1,2.2,3.3,3.1c-0.1,0.2-0.2,0.4-0.2,0.6c0,0.5,0.1,0.9,0.3,1.3c0.3,0.4,0.6,0.6,1,0.6
				c0.4,0.1,0.8-0.1,1.2-0.4c0.2-0.1,0.3-0.3,0.5-0.5c1.1,0.5,2.2,0.8,3.4,1.1c0,0.4,0.1,0.7,0.3,1c0.3,0.3,0.7,0.6,1.2,0.6
				s0.9-0.1,1.2-0.3c0.3-0.3,0.6-0.6,0.6-1c1.3,0,2.7-0.2,4-0.6l0,0c0.3,0.3,0.6,0.5,1.1,0.6s0.9,0,1.2-0.2c0.4-0.2,0.6-0.5,0.6-0.9
				c0-0.2,0-0.4,0-0.5c1.5-0.8,3.1-1.8,4.5-3.1c0.2,0.5,0.5,0.7,0.9,0.8c0.3,0,0.7-0.1,1-0.5c0.3-0.3,0.5-0.8,0.6-1.4
				c0.1-0.4,0-0.8-0.1-1.2c0.1-0.1,0.2-0.2,0.3-0.3c0.8-0.9,1.5-1.8,2.2-2.7c0.4,0,0.8-0.2,1.1-0.6c0.4-0.4,0.6-1,0.7-1.6
				c0-0.2,0-0.5,0-0.7c0.8-1.4,1.5-2.8,2.1-4.3c0.3,0,0.6-0.2,0.9-0.6s0.5-0.9,0.6-1.6c0.1-0.6,0.1-1.2-0.1-1.7
				c0.4-1.2,0.7-2.5,0.9-3.8h0.1c0.3,0,0.5-0.2,0.8-0.7c0.2-0.5,0.4-1.1,0.5-1.8c0.1-0.7,0.1-1.3-0.1-1.9
				C276.5,245.3,276.3,245,276,244.9z"/>
		</g>
	</g>
</g>
<g transform="matrix( -0.66070556640625, -0.12237548828125, -0.12237548828125, 0.66070556640625, 1425.3,316.75) ">
	<g>
		<g id="Layer1_6_MEMBER_12_FILL">
			<path class="st27" d="M1759.1,109c0-1.2-0.1-2.5-0.4-3.7l-43.3,0c-0.3,1.2-0.4,2.5-0.4,3.7c0,5.2,2.2,9.6,6.5,13.3
				c4.3,3.7,9.5,5.5,15.6,5.5s11.3-1.8,15.6-5.5C1757,118.6,1759.1,114.2,1759.1,109z"/>
		</g>
	</g>
</g>
<g transform="matrix( -0.66070556640625, -0.12237548828125, -0.12237548828125, 0.66070556640625, 1425.3,316.75) ">
	<g>
		<g id="Layer1_6_MEMBER_13_FILL">
			<path class="st6" d="M1755.7,109c0-1.3-0.2-2.5-0.6-3.7l-36.1,0c-0.4,1.2-0.6,2.5-0.6,3.7c0,4.2,1.8,7.8,5.5,10.8
				c3.6,3,8,4.5,13.1,4.5c5.1,0,9.5-1.5,13.1-4.5S1755.7,113.3,1755.7,109z"/>
		</g>
	</g>
</g>
<g transform="matrix( -0.66070556640625, -0.12237548828125, -0.12237548828125, 0.66070556640625, 1425.3,316.75) ">
	<g>
		<g id="Layer1_6_MEMBER_14_FILL">
			<path class="st6" d="M1741.3,86.9c-1.2-1.2-2.6-1.8-4.3-1.8c-1.7,0-3.1,0.6-4.3,1.8c-1.2,1.2-1.8,2.6-1.8,4.3v12.9
				c0,2.9,2,4.4,6,4.4c4,0,6-1.5,6-4.4V91.2C1743.1,89.5,1742.5,88.1,1741.3,86.9z"/>
		</g>
	</g>
</g>
<g transform="matrix( -0.6662139892578125, 0.0875091552734375, 0.0875091552734375, 0.6662139892578125, 1388.15,99.75) ">
	<g>
		<g id="Layer1_6_MEMBER_15_MEMBER_0_FILL">
			<path class="st28" d="M1646.5-176l-3-5.1c-1.3-0.3-2.6,0.1-3.9,1.2c-2.6,2.1-3.9,6.5-3.9,13c0,3.3,0.3,6.9,1,10.7
				c0.3,1.9,0.7,3.5,1,4.8l11.8-13.7l12.2-5.5L1646.5-176z"/>
		</g>
	</g>
</g>
<g transform="matrix( -0.6662139892578125, 0.0875091552734375, 0.0875091552734375, 0.6662139892578125, 1388.15,99.75) ">
	<g>
		<g id="Layer1_6_MEMBER_15_MEMBER_1_MEMBER_0_FILL">
			<path class="st6" d="M1683.3-167.6c-4.8-6.5-10.9-9.7-18.4-9.7c-8.6,0-15.1,1.8-19.5,5.5c-4.8,4-7.5,10.3-8.1,19.2
				c-0.6,7.6,0.5,15,3.1,22c3.4,9.1,8.9,14.5,16.4,16.1c8.8,0.5,16-2.2,21.6-8.1c5-5.2,8.3-12.5,9.9-21.7
				C1689.9-153.2,1688.2-160.9,1683.3-167.6z"/>
		</g>
	</g>
</g>
<g transform="matrix( -0.5990142822265625, 0.304351806640625, 0.304351806640625, 0.5990142822265625, 1289,-104.1) ">
	<g>
		<g id="Layer1_6_MEMBER_15_MEMBER_1_MEMBER_1_MEMBER_0_FILL">
			<path class="st18" d="M1509-354c-0.3-0.2-0.5-0.3-0.9-0.3l-7,0.4c-0.3,0-0.6,0.2-0.8,0.4c-0.2,0.2-0.3,0.5-0.3,0.8
				c0,0.3,0.1,0.5,0.3,0.7c0.2,0.2,0.4,0.4,0.7,0.4l7.3-0.3c0.3,0,0.6-0.2,0.8-0.4c0.2-0.3,0.3-0.5,0.3-0.9
				C1509.3-353.6,1509.2-353.8,1509-354z"/>
		</g>
	</g>
</g>
<g transform="matrix( -0.652069091796875, -0.16217041015625, -0.16217041015625, 0.652069091796875, 1412.7,354.9) ">
	<g>
		<g id="Layer1_6_MEMBER_15_MEMBER_1_MEMBER_2_MEMBER_0_FILL">
			<path class="st18" d="M1726.2,105.4h-0.2c-0.3,0-0.5,0.2-0.7,0.3c-0.2,0.2-0.3,0.5-0.3,0.7c0,0.3,0.1,0.6,0.3,0.9
				c0.2,0.2,0.5,0.4,0.8,0.4l7,0.3c0.3,0,0.6-0.1,0.8-0.3c0.2-0.2,0.4-0.5,0.4-0.8s-0.1-0.6-0.3-0.8c-0.2-0.2-0.5-0.4-0.8-0.4
				L1726.2,105.4z"/>
		</g>
	</g>
</g>
<g transform="matrix( -0.6662139892578125, 0.0875091552734375, 0.0875091552734375, 0.6662139892578125, 1388.15,99.75) ">
	<g>
		<g id="Layer1_6_MEMBER_15_MEMBER_1_MEMBER_3_FILL">
			<path class="st20" d="M1659.8-144.4c0,0.4,0.2,0.8,0.5,1.1s0.7,0.5,1.1,0.5s0.8-0.2,1.1-0.5c0.3-0.3,0.5-0.7,0.5-1.1
				s-0.2-0.8-0.5-1.1s-0.7-0.5-1.1-0.5s-0.8,0.2-1.1,0.5C1659.9-145.2,1659.8-144.8,1659.8-144.4z"/>
		</g>
	</g>
</g>
<g transform="matrix( -0.6662139892578125, 0.0875091552734375, 0.0875091552734375, 0.6662139892578125, 1388.15,99.75) ">
	<g>
		<g id="Layer1_6_MEMBER_15_MEMBER_1_MEMBER_4_FILL">
			<path class="st20" d="M1645.6-142.7c0.3-0.3,0.5-0.7,0.5-1.1c0-0.4-0.2-0.8-0.5-1.1s-0.7-0.5-1.1-0.5s-0.8,0.2-1.1,0.5
				c-0.3,0.3-0.5,0.7-0.5,1.1c0,0.4,0.2,0.8,0.5,1.1s0.7,0.5,1.1,0.5C1644.9-142.2,1645.3-142.4,1645.6-142.7z"/>
		</g>
	</g>
</g>
<g transform="matrix( -0.6662139892578125, 0.0875091552734375, 0.0875091552734375, 0.6662139892578125, 1388.15,99.75) ">
	<g>
		<g id="Layer1_6_MEMBER_15_MEMBER_1_MEMBER_5_FILL">
			<path class="st8" d="M1652.8-146.6l-2.7,13.1l2.9,0.7L1652.8-146.6z"/>
		</g>
	</g>
</g>
<g transform="matrix( 0.9512481689453125, -0.3084869384765625, 0.3084869384765625, 0.9512481689453125, -65.1,238.1) ">
	<g>
		<g id="Layer1_6_MEMBER_15_MEMBER_1_MEMBER_6_FILL">
			<path class="st29" d="M352.9,30.1l-9.1,0c0,0,0,0-0.1,0.1c-0.6,0.7-0.9,1.5-0.7,2.3l0.1,0.3l9.9-0.3l0.1-1.9
				C353,30.5,353,30.3,352.9,30.1z"/>
			<path class="st4" d="M352.9,30.1c-0.3-0.6-0.8-1-1.7-1.4c-1.1-0.4-2.3-0.5-3.6-0.3l-0.8,0.1c-1.3,0.2-2.3,0.8-3,1.5L352.9,30.1
				L352.9,30.1z"/>
		</g>
	</g>
</g>
<g transform="matrix( -0.6662139892578125, 0.0875091552734375, 0.0875091552734375, 0.6662139892578125, 1388.15,99.75) ">
	<g>
		<g id="Layer1_6_MEMBER_15_MEMBER_2_FILL">
			<path class="st28" d="M1682.9-174.5c1.3,3.1,3.3,5.4,6,6.8c2.7,1.4,5.2,1.6,7.6,0.6c2.4-1.1,4-3.1,4.7-6c0.8-2.9,0.5-5.9-0.9-9
				c-1.3-3.1-3.3-5.3-6-6.8c-2.7-1.4-5.2-1.6-7.6-0.6c-2.4,1.1-4,3.1-4.7,6S1681.6-177.6,1682.9-174.5z"/>
		</g>
	</g>
</g>
<g transform="matrix( -0.6662139892578125, 0.0875091552734375, 0.0875091552734375, 0.6662139892578125, 1388.15,99.75) ">
	<g>
		<g id="Layer1_6_MEMBER_15_MEMBER_3_FILL">
			<path class="st30" d="M1669.2-191.7c-5.9-1-10.9-0.8-14.9,0.6c-4.8,1.7-8.5,5.1-11,10.3c3.8,9.2,10.1,17,19,23.4
				c3.1,2.2,6.4,4.1,9.7,5.7c2.6,1.2,4.7,1.9,6.1,2.2c-0.5,3.7,0.6,6,3.1,6.9c1.3,0.5,2.6,0.6,4,0.3c0.5-0.4,1.9-1,4.2-1.9
				c1.8-0.7,2.8-1.5,3-2.4c4.2-13.9,3.4-24.9-2.2-33C1685.6-186.1,1678.6-190.1,1669.2-191.7z"/>
		</g>
	</g>
</g>
<g transform="matrix( -0.6662139892578125, 0.0875091552734375, 0.0875091552734375, 0.6662139892578125, 1388.15,99.75) ">
	<g>
		<g id="Layer1_6_MEMBER_15_MEMBER_4_MEMBER_0_FILL">
			<path class="st6" d="M1682.6-150c0.1,2.5,0.5,4.8,1.3,6.9c0.7,2,1.7,3.7,2.9,5.1c1.3,1.5,2.7,0.7,4.1-2.3c1.5-4,2.5-6.6,2.9-7.9
				c1-2.8,0.5-4.7-1.5-5.9c-2-1.1-4.2-0.9-6.7,0.8c-1,0.7-1.8,1.4-2.4,2.3L1682.6-150z"/>
		</g>
	</g>
</g>
<g transform="matrix( -0.6662139892578125, 0.0875091552734375, 0.0875091552734375, 0.6662139892578125, 1388.15,99.75) ">
	<g>
		<g id="Layer1_6_MEMBER_15_MEMBER_4_MEMBER_1_FILL">
			<path class="st8" d="M1686.3-149.4l3.1,0.5l-1.6,7.1l4.7-8.6L1686.3-149.4z"/>
		</g>
	</g>
</g>
<g transform="matrix( -0.6662139892578125, 0.0875091552734375, 0.0875091552734375, 0.6662139892578125, 1388.15,99.75) ">
	<g>
		<g id="Layer1_6_MEMBER_15_MEMBER_5_FILL">
			<path class="st27" d="M1685.9-134.8c0.5,0.6,1.2,0.8,2,0.8s1.5-0.3,2-0.8c0.6-0.6,0.8-1.2,0.8-2s-0.3-1.5-0.8-2
				c-0.6-0.6-1.2-0.8-2-0.8s-1.4,0.3-2,0.8c-0.6,0.6-0.8,1.2-0.8,2S1685.4-135.3,1685.9-134.8z"/>
		</g>
	</g>
</g>
<g transform="matrix( 1, 0, 0, 1, 0.25,0) ">
	<g>
		<g id="Layer1_6_MEMBER_16_FILL">
			<path class="st6" d="M279.7,275.5l-4.4,6.2c3.3,7.8,5.9,9.4,7.9,4.9l4.4,3.4c4.2-2.7,6.5-5.6,6.9-8.9l-4.5-4.6L279.7,275.5z"/>
		</g>
	</g>
</g>
<g transform="matrix( -0.5779266357421875, -0.3427276611328125, -0.3427276611328125, 0.5779266357421875, 1410.65,555.35) ">
	<g>
		<g id="Layer1_6_MEMBER_17_FILL">
			<path class="st0" d="M1703.2,437.7c-0.7-2.7-2.2-4.7-4.5-6.1s-4.9-1.8-7.6-1.2c-2.7,0.7-4.7,2.2-6.1,4.5l-37.1,60.2l17.1,10.4
				l37.1-60.3C1703.5,442.9,1703.9,440.4,1703.2,437.7z"/>
		</g>
	</g>
</g>
<g transform="matrix( -0.5779266357421875, -0.3427276611328125, -0.3427276611328125, 0.5779266357421875, 1410.65,555.35) ">
	<g>
		<g id="Layer1_6_MEMBER_18_FILL">
			<path class="st27" d="M1664.6,506l4-6.3l-16.7-10.5l-4,6.3L1664.6,506z"/>
		</g>
	</g>
</g>
<g transform="matrix( 0.1676025390625, 0.6502227783203125, 0.6502227783203125, -0.1676025390625, 361.1,-318.35) ">
	<g>
		<g id="Layer1_6_MEMBER_19_MEMBER_0_FILL">
			<path class="st0" d="M682.6-356.1c-0.5-2.7-1.9-4.8-4.2-6.4c-2.3-1.5-4.8-2-7.5-1.5s-4.8,1.9-6.4,4.2c-1.5,2.3-2.1,4.8-1.5,7.5
				l12.1,62.1c0.5,2.7,1.9,4.9,4.2,6.4s4.8,2,7.5,1.5c2.7-0.5,4.9-1.9,6.4-4.2c1.5-2.3,2-4.8,1.5-7.5L682.6-356.1z"/>
		</g>
	</g>
</g>
<g transform="matrix( 0.044921875, 0.6699066162109375, 0.6699066162109375, -0.044921875, 488.55,-373.9) ">
	<g>
		<g id="Layer1_6_MEMBER_19_MEMBER_1_FILL">
			<path class="st8" d="M790.4-274.1L789-286c-3.6,5.3-6.4,9-8.3,11c1.2,2.2,3.1,2.9,5.9,2.4C788-272.8,789.2-273.3,790.4-274.1z"/>
		</g>
	</g>
</g>
<g transform="matrix( 0.124114990234375, 0.659820556640625, 0.659820556640625, -0.124114990234375, 402.5,-342.2) ">
	<g>
		<g id="Layer1_6_MEMBER_19_MEMBER_2_FILL">
			<path class="st6" d="M727.5-245.6l-14.4-1.4l-2.7,14.2c-1.9,2-3.7,4-5.3,6c-3.3,4.1-4.3,6.3-2.9,6.6c1.3,0.3,2.9,0.5,4.8,0.5
				c3,0,5.4-0.4,7.4-1.3c1.6-0.7,4-2.7,7-5.8c1.5-1.6,2.9-3.1,4.1-4.5L727.5-245.6z"/>
		</g>
	</g>
</g>
<g transform="matrix( 0.124114990234375, 0.659820556640625, 0.659820556640625, -0.124114990234375, 402.5,-342.2) ">
	<g>
		<g id="Layer1_6_MEMBER_19_MEMBER_3_FILL">
			<path class="st0" d="M736.1-314.9c0.3-2.8-0.5-5.2-2.3-7.3c-1.8-2.1-4-3.3-6.8-3.5s-5.2,0.5-7.3,2.3s-3.3,4-3.5,6.8l-6.7,70.5
				l19.9,1.7L736.1-314.9z"/>
		</g>
	</g>
</g>
<g transform="matrix( 0.124114990234375, 0.659820556640625, 0.659820556640625, -0.124114990234375, 402.5,-342.2) ">
	<g>
		<g id="Layer1_6_MEMBER_19_MEMBER_4_FILL">
			<path class="st27" d="M729.4-243.9l0.8-7.4l-19.7-2.1l-0.8,7.4L729.4-243.9z"/>
		</g>
	</g>
</g>
</svg>
