<?xml version="1.0" encoding="utf-8"?>
<!-- Generator: Adobe Illustrator 19.2.1, SVG Export Plug-In . SVG Version: 6.00 Build 0)  -->
<!DOCTYPE svg PUBLIC "-//W3C//DTD SVG 1.1//EN" "http://www.w3.org/Graphics/SVG/1.1/DTD/svg11.dtd">
<svg version="1.1" id="Layer_1" xmlns="http://www.w3.org/2000/svg" xmlns:xlink="http://www.w3.org/1999/xlink" x="0px" y="0px"
	 viewBox="0 0 595.3 421" style="enable-background:new 0 0 595.3 421;" xml:space="preserve">
<style type="text/css">
	.st0{fill:#6C503C;}
	.st1{fill:#D3D8B7;}
	.st2{fill:#BDC59E;}
	.st3{fill:#C39C72;}
	.st4{fill:#E7E7E9;}
	.st5{fill:#C0E4EE;}
	.st6{fill:#FFDA83;}
	.st7{fill:#F7AD92;}
	.st8{fill:#EE3F5A;}
	.st9{fill:#B18C68;}
	.st10{fill:#DB846E;}
	.st11{fill:#FFFFFF;}
	.st12{fill:#A57D56;}
	.st13{fill:#FDC029;}
	.st14{fill:#C39C71;}
	.st15{fill:#E6E6E5;}
	.st16{fill:#53527F;}
	.st17{fill:#989798;}
	.st18{fill:#55412D;}
	.st19{fill:none;stroke:#010101;stroke-linecap:round;stroke-linejoin:round;stroke-opacity:0;}
	.st20{fill:#040505;}
	.st21{fill:#383660;}
	.st22{fill:#475AA6;}
	.st23{fill:#698FC7;}
	.st24{fill:#8C643E;}
	.st25{fill:#744E2A;}
	.st26{fill:none;stroke:#698FC7;stroke-width:3;stroke-miterlimit:10;}
	.st27{fill:#4F4F4F;}
	.st28{fill:#FBD8BB;}
	.st29{fill:#595A5C;}
	.st30{fill:#DC453A;}
	.st31{fill:none;stroke:#595A5C;stroke-width:3;stroke-linecap:round;stroke-linejoin:round;}
	.st32{fill:#F7B04F;}
	.st33{fill:#55412E;}
	.st34{fill:#424243;}
	.st35{fill:#81A98F;}
	.st36{fill:#C3996C;}
	.st37{fill:#4BA57B;}
	.st38{fill:#B5B5B5;}
	.st39{fill:#EE5A67;}
	.st40{fill:#FEE3CD;}
</style>
<g transform="matrix( 1, 0, 0, 1, 0,0) ">
	<g>
		<g id="Layer1_0_FILL_9_">
			<path class="st0" d="M487.4,307v-1L393,275l-188.8,0.3l-100.5,33.8v2.8h-2.3l-13.6-9.4l-0.3,12.1l43.2,48.6l170.7,21.4l169.5-22
				l40.9-48.8l-0.4-12.4L487.4,307z"/>
		</g>
	</g>
</g>
<g transform="matrix( 1, 0, 0, 1, 14.2,-21) ">
	<g>
		<g id="Layer1_1_FILL_5_">
			<path class="st1" d="M438.9,345.5c16-26.4,24-56.1,24-89c0-48.2-17-89.4-51.1-123.5s-75.2-51.1-123.5-51.1s-89.4,17-123.5,51.1
				s-51.1,75.2-51.1,123.5c0,33,8,62.7,23.9,89H438.9z"/>
		</g>
	</g>
</g>
<g transform="matrix( 1, 0, 0, 1, -1.3,-3.9) ">
	<g>
		<g id="Layer1_2_FILL_4_">
			<path class="st2" d="M454.8,98.4c0-3.8-1.9-5.7-5.7-5.7h-114c-3.8,0-5.7,1.9-5.7,5.7v75.1c0,3.8,1.9,5.7,5.7,5.7h114
				c3.8,0,5.7-1.9,5.7-5.7V98.4z"/>
		</g>
	</g>
</g>
<g transform="matrix( 1, 0, 0, 1, 0,0) ">
	<g>
		<g id="Layer1_3_FILL_4_">
			<path class="st3" d="M456.7,96.9c0-5.8-2.9-8.6-8.6-8.6H340.3c-5.8,0-8.6,2.9-8.6,8.6v66.7c0,5.7,2.9,8.6,8.6,8.6H448
				c5.8,0,8.6-2.9,8.6-8.6V96.9 M448,90.6c4.2,0,6.3,2.1,6.3,6.3v66.7c0,4.2-2.1,6.3-6.3,6.3H340.3c-4.2,0-6.3-2.1-6.3-6.3V96.9
				c0-4.2,2.1-6.3,6.3-6.3L448,90.6L448,90.6z"/>
			<path class="st4" d="M454.3,96.9c0-4.2-2.1-6.3-6.3-6.3H340.3c-4.2,0-6.3,2.1-6.3,6.3v66.7c0,4.2,2.1,6.3,6.3,6.3H448
				c4.2,0,6.3-2.1,6.3-6.3V96.9z"/>
		</g>
	</g>
</g>
<g transform="matrix( 1.3031005859375, 0, 0, 1.3031005859375, 59.85,-49.8) ">
	<g>
		<g id="Layer1_3_MEMBER_0_FILL_4_">
			<path class="st5" d="M247,149.1c0-3.6-1.3-6.7-3.9-9.2c-2.6-2.5-5.7-3.8-9.3-3.8c-3.7,0-6.8,1.3-9.4,3.8
				c-2.6,2.5-3.8,5.6-3.8,9.2c0,3.6,1.3,6.7,3.8,9.2c2.6,2.5,5.7,3.8,9.4,3.8s6.8-1.3,9.3-3.8C245.7,155.8,247,152.7,247,149.1z"/>
		</g>
	</g>
</g>
<g transform="matrix( 1.3031005859375, 0, 0, 1.3031005859375, 59.85,-49.8) ">
	<g>
		<g id="Layer1_3_MEMBER_1_FILL_2_">
			<path class="st6" d="M274.2,145.4c0-5.1-1.8-9.4-5.4-12.9c-3.6-3.6-7.9-5.3-12.9-5.3c-5.1,0-9.4,1.8-12.9,5.3
				c-3.6,3.6-5.3,7.9-5.3,12.9s1.8,9.4,5.3,12.9c3.6,3.6,7.9,5.4,12.9,5.4c5.1,0,9.4-1.8,12.9-5.4
				C272.5,154.8,274.2,150.5,274.2,145.4z"/>
		</g>
	</g>
</g>
<g transform="matrix( 1.3031005859375, 0, 0, 1.3031005859375, 59.85,-49.8) ">
	<g>
		<g id="Layer1_3_MEMBER_2_FILL_4_">
			<path class="st7" d="M298,135.3c0-5-1.7-9.2-5.1-12.7s-7.5-5.2-12.4-5.2c-4.8,0-8.9,1.7-12.4,5.2c-3.4,3.5-5.1,7.7-5.1,12.7
				s1.7,9.2,5.1,12.6c3.4,3.5,7.5,5.2,12.4,5.2c4.8,0,8.9-1.7,12.4-5.2C296.3,144.5,298,140.3,298,135.3z"/>
		</g>
	</g>
</g>
<g transform="matrix( 1, 0, 0, 1, 0,0) ">
	<g>
		<g id="Layer1_3_MEMBER_3_FILL_3_">
			<path class="st8" d="M387.2,143.1c-0.2-0.1-0.5-0.1-0.8,0c-0.2,0.1-0.4,0.2-0.6,0.4l-6.4,8.2l-5.3-11c-0.1-0.2-0.2-0.4-0.4-0.5
				c-0.2-0.1-0.4-0.2-0.7-0.2c-0.2,0-0.4,0.1-0.6,0.2L339,162c-0.3,0.2-0.4,0.4-0.5,0.7c-0.1,0.3,0,0.6,0.2,0.9s0.4,0.5,0.7,0.5
				c0.3,0.1,0.6,0,0.9-0.2l32.4-21.1l5.5,11.5c0.1,0.2,0.3,0.4,0.5,0.5s0.5,0.1,0.8,0.1c0.3-0.1,0.5-0.2,0.6-0.4l7-8.9l4.7,2.1
				c0.3,0.1,0.5,0.1,0.8,0.1c0.3-0.1,0.5-0.2,0.6-0.4l4.5-5.6l4.5-0.7c0.3,0,0.6-0.2,0.7-0.4l9.5-12.2l11.7,12.4
				c0.2,0.2,0.5,0.4,0.8,0.4s0.6-0.1,0.8-0.3l9.5-8.6l2.3,0.7c0.3,0.1,0.5,0.1,0.8,0s0.4-0.3,0.6-0.5l8.6-14.7
				c0.2-0.3,0.2-0.6,0.1-0.9s-0.3-0.5-0.5-0.7c-0.3-0.2-0.6-0.2-0.9-0.1s-0.5,0.3-0.7,0.5l-8.2,13.9l-2-0.6c-0.2-0.1-0.4-0.1-0.6,0
				s-0.4,0.1-0.5,0.3l-9.2,8.3l-11.9-12.5c-0.1-0.2-0.3-0.3-0.5-0.3c-0.2-0.1-0.4-0.1-0.7,0c-0.2,0.1-0.4,0.2-0.5,0.4l-10,12.9
				l-4.5,0.6c-0.3,0.1-0.6,0.2-0.8,0.4l-4.2,5.3L387.2,143.1z"/>
		</g>
	</g>
</g>
<g transform="matrix( -0.766082763671875, 0, 0, 0.766082763671875, 1379.6,219.45) ">
	<g>
		<g id="Layer1_4_FILL_5_">
			<path class="st7" d="M1382.6-175.4c-8.4,0-15.2,3.7-20.6,10.9c-5.5,7.5-7.4,16.1-5.7,26c1.8,10.3,5.6,18.4,11.2,24.3
				c6.3,6.6,14.3,9.6,24.2,9.1c8.5-1.8,14.6-7.9,18.4-18.1c3-7.8,4.1-16,3.5-24.6c-0.8-9.9-3.8-17.1-9.1-21.5
				C1399.5-173.4,1392.2-175.4,1382.6-175.4z"/>
		</g>
	</g>
</g>
<g transform="matrix( -0.766082763671875, 0, 0, 0.766082763671875, 1379.6,219.45) ">
	<g>
		<g id="Layer1_5_FILL_6_">
			<path class="st9" d="M1418.4,33.8l-70.3-0.6l-0.4,22.6c0,3.3,1.1,6.2,3.5,8.6c2.3,2.4,5.2,3.6,8.5,3.6l46.2,0.3
				c3.3,0.1,6.2-1.1,8.6-3.5c2.4-2.3,3.6-5.2,3.6-8.5L1418.4,33.8z"/>
		</g>
	</g>
</g>
<g transform="matrix( 0.29815673828125, -0.7056884765625, -0.7056884765625, -0.29815673828125, 1332.3,737.8) ">
	<g>
		<g id="Layer1_6_MEMBER_0_FILL_2_">
			<path class="st7" d="M113.9,1556.1c-2.1,0.2-3.8,1.1-5.2,2.7c-1.3,1.6-1.9,3.5-1.7,5.6l3.8,43.2c0.2,2.1,1.1,3.8,2.7,5.2
				c1.6,1.4,3.5,2,5.6,1.7c2.1-0.2,3.8-1.1,5.2-2.7c1.4-1.6,2-3.5,1.7-5.6l-3.8-43.2c-0.2-2.1-1.1-3.8-2.7-5.2
				C117.9,1556.5,116,1555.9,113.9,1556.1z"/>
		</g>
	</g>
</g>
<g transform="matrix( 0.29815673828125, 0.7056884765625, -0.7056884765625, 0.29815673828125, 1332.3,111.7) ">
	<g>
		<g id="Layer1_6_MEMBER_1_FILL_3_">
			<path class="st10" d="M-492.5,1362.4l-7.8-11.1l-0.7,6c-0.6,4.4-1.1,7.5-1.6,9.4c2.3,1.5,4.7,1.2,7.1-0.8
				c0.8-0.6,1.5-1.4,2.2-2.3L-492.5,1362.4z"/>
		</g>
	</g>
</g>
<g transform="matrix( 0.29815673828125, 0.7056884765625, -0.7056884765625, 0.29815673828125, 1332.3,111.7) ">
	<g>
		<g id="Layer1_6_MEMBER_2_FILL_2_">
			<path class="st7" d="M-485.5,1343.9l-15.1,6.4l4.9,15.6l-2.1,8.9c-1.1,5.9-0.9,8.6,0.6,8.2c1.4-0.4,3.1-1.1,5.1-2.1
				c3-1.6,5.2-3.3,6.6-5.2c1.2-1.6,2.6-4.8,3.9-9.6l1.7-6.7L-485.5,1343.9z"/>
		</g>
	</g>
</g>
<g transform="matrix( 0.29815673828125, -0.7056884765625, -0.7056884765625, -0.29815673828125, 1332.3,737.8) ">
	<g>
		<g id="Layer1_6_MEMBER_3_FILL_1_">
			<path class="st11" d="M131,1608.5l-1.2-13.3l-25.4,2.2l1.2,13.4L131,1608.5z"/>
		</g>
	</g>
</g>
<g transform="matrix( 1, 0, 0, 1, 0,0) ">
	<g>
		<g id="Layer1_6_MEMBER_4_FILL_2_">
			<path class="st12" d="M280.1,208.1c6.5-1.5,8.9-5.7,7.3-12.8l-43-22.8l-6.9,12.9L280.1,208.1z"/>
		</g>
	</g>
</g>
<g transform="matrix( 1, 0, 0, 1, 0,0) ">
	<g>
		<g id="Layer1_6_MEMBER_5_FILL_2_">
			<path class="st12" d="M295.9,145.1c-1.9-0.5-3.7-0.3-5.5,0.7c-1.7,1-2.9,2.4-3.5,4.3l-13.6,48.4c2.5,6,7.2,7.4,14,4.4l13.8-48.8
				c0.5-1.9,0.3-3.8-0.7-5.5s-2.4-2.9-4.3-3.5H295.9z"/>
		</g>
	</g>
</g>
<g transform="matrix( 0.0836944580078125, 0.6665496826171875, 0.6665496826171875, -0.0836944580078125, 782.7,-102.6) ">
	<g>
		<g id="Layer1_7_MEMBER_0_FILL_1_">
			<path class="st7" d="M378.5-878.2l-13.3-7.4l-20.6,35l13.3,7.4L378.5-878.2z"/>
		</g>
	</g>
</g>
<g transform="matrix( 0.7720184326171875, 0.635284423828125, -0.635284423828125, 0.7720184326171875, 536.2,-550.9) ">
	<g>
		<g id="Layer1_7_MEMBER_1_FILL_1_">
			<path class="st13" d="M250.4,822.8c1.3-1.6,1.9-3.4,1.8-5.5c-0.2-2.1-1.1-3.8-2.6-5.1c-1.6-1.3-3.4-1.9-5.4-1.7l-47.6,3.9
				c-2.1,0.2-3.8,1-5.1,2.6c-1.4,1.6-2,3.4-1.7,5.5c0.2,2.1,1,3.8,2.6,5.2c1.6,1.3,3.4,1.9,5.5,1.7l47.4-3.8
				C247.3,825.3,249,824.4,250.4,822.8z"/>
		</g>
	</g>
</g>
<g transform="matrix( 0.7720184326171875, 0.635284423828125, -0.635284423828125, 0.7720184326171875, 649.1,-326.5) ">
	<g>
		<g id="Layer1_7_MEMBER_2_FILL">
			<path class="st13" d="M33.1,665.4l-14.7-3.1L7.6,714.5c4.7-0.6,6.4,0.7,4.9,3.7s-1.2,4.8,0.8,5.2s3.9,0.1,5.6-1
				c1.8-1.1,2.9-2.7,3.3-4.8L33.1,665.4z"/>
		</g>
	</g>
</g>
<g transform="matrix( 0.8483734130859375, 0.529052734375, -0.529052734375, 0.8483734130859375, 536.15,-258.65) ">
	<g>
		<g id="Layer1_7_MEMBER_3_FILL_1_">
			<path class="st7" d="M4,524.8c-0.2-5.7-0.9-7.7-2.3-6.1c-1.3,1.6-2.7,3.4-4.2,5.6c-1.5,2.2-2.2,7.5-2.2,16.2
				c-0.5,0.9-1.1,2.7-1.9,5.5l8.8,2.7c3.1-4,4.7-6,4.7-6c2-5.3,3.1-9.1,3.1-11.6c0.1-2.5-0.1-3.1-0.6-1.8c-0.8-1.7-1.8-1.3-3,1
				c-1.1,2.3-2,4.9-2.5,7.9c0.1-1.3,0.1-1.9,0-1.7c-0.1,0.1-0.3-0.1-0.4-0.6C3.9,530.7,4.1,527,4,524.8z"/>
		</g>
	</g>
</g>
<g transform="matrix( 0.7720184326171875, 0.635284423828125, -0.635284423828125, 0.7720184326171875, 649.1,-326.5) ">
	<g>
		<g id="Layer1_7_MEMBER_4_FILL_1_">
			<path class="st6" d="M32.1,670.5l1.1-5.5l-14.6-2.8l-1,5.4L32.1,670.5z"/>
		</g>
	</g>
</g>
<g transform="matrix( -0.766082763671875, 0, 0, 0.766082763671875, 1379.6,219.45) ">
	<g>
		<g id="Layer1_8_FILL_2_">
			<path class="st14" d="M1345.4-95.8c-3.4,3.4-5.1,7.4-5.1,12.2V49.3h84.5V-83c0-4.9-1.7-9.1-5.2-12.6s-7.7-5.2-12.6-5.2h-49.5
				C1352.8-100.8,1348.8-99.1,1345.4-95.8z"/>
		</g>
	</g>
</g>
<g transform="matrix( -0.766082763671875, 0, 0, 0.766082763671875, 1379.6,219.45) ">
	<g>
		<g id="Layer1_9_FILL_2_">
			<path class="st12" d="M1407.6-92.4l-5.3-8.4H1365l-2.6,8.4l6.9,6.9l-2.9,5.4l30.4,42.8l12-42.9l-3.8-5.6L1407.6-92.4z"/>
		</g>
	</g>
</g>
<g transform="matrix( -0.766082763671875, 0, 0, 0.766082763671875, 1379.6,219.45) ">
	<g>
		<g id="Layer1_10_FILL_1_">
			<path class="st11" d="M1399.4-100.8h-29.6l24.2,49.3L1399.4-100.8z"/>
		</g>
	</g>
</g>
<g transform="matrix( -0.766082763671875, 0, 0, 0.766082763671875, 1379.6,219.45) ">
	<g>
		<g id="Layer1_11_FILL_2_">
			<path class="st7" d="M1383.2-122c-1.6,0-3,0.7-4.2,1.8c-1.2,1.2-1.8,2.7-1.8,4.4v13.4c0,3,2,4.5,6,4.5h0.1c3.9,0,5.9-1.5,5.9-4.5
				v-13.4c0-1.7-0.6-3.2-1.7-4.4c-1.1-1.2-2.5-1.8-4.2-1.8H1383.2z"/>
		</g>
	</g>
</g>
<g transform="matrix( -0.766082763671875, 0, 0, 0.766082763671875, 1379.6,219.45) ">
	<g>
		<g id="Layer1_12_FILL_2_">
			<path class="st15" d="M1369.9-100.8l10.7,12.8l4.7-11l-8-6.6L1369.9-100.8z"/>
		</g>
	</g>
</g>
<g transform="matrix( -0.766082763671875, 0, 0, 0.766082763671875, 1379.6,219.45) ">
	<g>
		<g id="Layer1_13_FILL_3_">
			<path class="st15" d="M1394.1-88.1l5.4-12.8l-10.1-4.8l-4.1,6.6L1394.1-88.1z"/>
		</g>
	</g>
</g>
<g transform="matrix( -0.766082763671875, 0, 0, 0.766082763671875, 1379.6,219.45) ">
	<g>
		<g id="Layer1_14_FILL_3_">
			<path class="st16" d="M1391.2-91.6l-6-7.5l-2.8,6.5l6.8,6.7L1391.2-91.6z"/>
		</g>
	</g>
</g>
<g transform="matrix( -0.766082763671875, 0, 0, 0.766082763671875, 1379.6,219.45) ">
	<g>
		<g id="Layer1_15_FILL_2_">
			<path class="st16" d="M1389.9-88.8l-2.5,0.6l-1.1,20.7l7.8,15.9l1.9-17.6L1389.9-88.8z"/>
		</g>
	</g>
</g>
<g transform="matrix( -0.766082763671875, 0, 0, 0.766082763671875, 1379.6,219.45) ">
	<g>
		<g id="Layer1_16_FILL_1_">
			<path class="st12" d="M1387.2-14.2c0,1.3,0.4,2.5,1.2,3.4c0.8,1,1.7,1.4,2.8,1.4s2-0.5,2.8-1.4c0.8-0.9,1.1-2.1,1.1-3.4
				s-0.4-2.5-1.1-3.4c-0.8-1-1.7-1.4-2.8-1.4s-2,0.5-2.8,1.4C1387.6-16.6,1387.2-15.5,1387.2-14.2z"/>
		</g>
	</g>
</g>
<g transform="matrix( -0.766082763671875, 0, 0, 0.766082763671875, 1379.6,219.45) ">
	<g>
		<g id="Layer1_17_FILL_1_">
			<path class="st12" d="M1387.2,12.4c0,1.3,0.4,2.5,1.2,3.4c0.8,1,1.7,1.4,2.8,1.4c1.1,0,2-0.5,2.8-1.4s1.1-2.1,1.1-3.4
				s-0.4-2.5-1.1-3.4c-0.8-1-1.7-1.4-2.8-1.4c-1.1,0-2,0.5-2.8,1.4C1387.6,9.9,1387.2,11.1,1387.2,12.4z"/>
		</g>
	</g>
</g>
<g transform="matrix( 0.766082763671875, 0, 0, 0.766082763671875, 313.95,104.3) ">
	<g>
		<g id="Layer1_18_FILL">
			<path class="st17" d="M10.2-7.7H9.5H10H10.2z"/>
			<path class="st18" d="M36.1-15.7c0.5-1.7,1.1-3.1,1.9-4.3c0.3-0.5,1.3-1.6,2.8-3.4c-1.8-0.1-3.6,0.1-5.4,0.6
				c-0.9,0.2-1.7,0.5-2.3,0.7l-1.2-1.8c-1.1-1.5-2.4-2.9-4-4.1c-5-4.1-11.1-6.4-18.6-7c-4.7-0.4-9.8,0.5-15,2.9
				c-2.6,1.1-4.8,2.3-6.5,3.6h-10.2l0.2,2c0.3,1.6,0.6,3.2,1.2,4.7c0.5,1.5,1.2,2.9,2,4.1l1.1,1.3H-24v1.2c0.1,1,0.5,2.1,1.2,3.1
				c1.2,1.9,3.3,3.3,6.1,4.2h0.3L8.7-7.8H9c0.1,0,0.3,0,0.4,0c0.1,0,0.1,0,0.2,0h0.7c2.3,0.2,3.8,0.7,4.6,1.4c0.7,0.6,1,1.5,1,2.7
				c-0.1,1.8-0.1,4.5,0,8.2l0.8,0.1c1.2,0.1,2.2,0.6,3,1.4c0.8,0.9,1.2,1.9,1.2,3.1v3.1c0,1.1,0.5,2.1,1.4,3c0.9,0.8,2,1.2,3.1,1.2
				c0.4,0,0.9-0.1,1.5-0.3c0.6-0.2,1-0.3,1.2-0.5l0.4-0.4c0.6-0.6,0.9-1.6,0.9-3V3.3l0.2-0.2V3l0.1-0.1l0,0l0.8-0.8l0.9-0.7L33,0.7
				l0,0l0.6-0.2c0.9-0.2,1.7-0.1,2.5,0.1c0.5,0.2,1.1,0.5,1.6,0.9C38.3-5.9,37.7-11.7,36.1-15.7z"/>
		</g>
	</g>
</g>
<g transform="matrix( 0.766082763671875, 0, 0, 0.766082763671875, 313.95,104.3) ">
	<g>
		<g id="Layer1_19_FILL">
			<path class="st0" d="M-15.1-9.9h-0.3c-1.4-0.3-3.3-1.4-5.6-3.5c-1.2-1.1-2.2-2.1-3.1-3.1v1.2c0.1,1,0.5,2.1,1.2,3.1
				c1.2,1.9,3.3,3.3,6.1,4.2h0.3l25,0.1C-5.1-8.9-13-9.6-15.1-9.9z"/>
		</g>
	</g>
</g>
<g transform="matrix( 0.766082763671875, 0, 0, 0.766082763671875, 313.95,104.1) ">
	<g>
		<g id="Layer1_20_FILL_1_">
			<path class="st18" d="M13.4,25.9c0.2-1.4,0-2.6-0.7-3.8C12.1,21,11.2,20.2,10,20h-20.8c-1.2,0-2,0.3-2.5,0.9
				c-0.5,0.5-0.9,1.5-1.1,2.9l-0.3,10.4c0.2,3.1,0.9,5.7,2.2,7.9c1.4,2.3,3.3,3.7,5.7,4.2l6.4,1.5c2.7,0.6,5.2,0.1,7.5-1.7
				c2.3-1.8,3.7-4.3,4.2-7.4l0.4-2.3v-0.1L13.4,25.9z"/>
		</g>
	</g>
</g>
<g transform="matrix( -0.766082763671875, 0, 0, 0.766082763671875, 1379.6,219.45) ">
	<g>
		<g id="Layer1_21_FILL_1_">
			<path class="st11" d="M1393-120.3h1.3c2.2,0,4-0.5,5.7-1.5c1.6-1,2.4-2.2,2.4-3.5v-0.6h-16.6v0.6c0,1.3,0.6,2.5,1.9,3.4
				C1388.9-120.8,1390.7-120.3,1393-120.3z"/>
		</g>
	</g>
</g>
<g transform="matrix( 0.766082763671875, 0, 0, 0.766082763671875, 313.95,104.3) ">
	<g>
		<g id="Layer1_22_FILL_1_">
			<path class="st0" d="M-22.4-28.6c0.1,2.3,0.5,4.5,1.3,6.5c0.8,2.1,1.9,4,3.3,5.6c1.4,1.9,5.8,3.1,13.3,3.6
				c5.2,0.3,9.3,0.3,12.4,0c1.3-0.1,2.8-0.5,4.5-0.9c0.1,0,0.2-0.1,0.3-0.1l2.4-0.7L2.9-15.2c-8.5-0.6-13.8-1.3-15.7-2.1
				c-2.3-0.9-4.6-3.1-6.9-6.5C-20.9-25.5-21.8-27.1-22.4-28.6z"/>
		</g>
	</g>
</g>
<g transform="matrix( 0.766082763671875, 0, 0, 0.766082763671875, 313.95,104.3) ">
	<g>
		<g id="Layer1_23_FILL">
			<path class="st18" d="M26.2,10.6c-1.3-0.5-2.5-0.6-3.6-0.4c-1.2,0.3-1.8,0.9-1.8,2.1c0,2.2-1.4,4-4.2,5.5
				c-2.4,1.2-4.7,1.9-7.1,1.9l0,0c-0.6,0.8-1,3-0.9,6.7c0,3.4,0.3,6.2,0.9,8.3c0.3,1.2,0.6,1.8,1,1.7c0.4-0.1,0.8-1.1,1.2-3l0,0
				c0.8-3.6,2.6-6.8,5.4-9.5c1.3-1.2,3.8-3.1,7.5-5.5c1.6-1.1,2.7-2,3.4-2.7c1.1-1,1.3-1.9,0.8-3C28.4,11.9,27.5,11.2,26.2,10.6z"/>
		</g>
	</g>
</g>
<g transform="matrix( 0.766082763671875, 0, 0, 0.766082763671875, 313.95,104.3) ">
	<g>
		<g id="Layer1_24_FILL_1_">
			<path class="st18" d="M-11.7,25.6c1.2-3.2,1.5-5.2,0.9-5.9c-2.4,0-4.5-0.6-6.6-1.9c-2.5-1.6-4.2-3.8-5.2-6.9
				c0.2,4.6,1.5,9.2,4.2,13.8c1.3,2.1,2.2,3.6,2.6,4.5c0.8,1.5,1.2,2.7,1.1,3.6C-13.3,29.7-12.4,27.3-11.7,25.6z"/>
		</g>
	</g>
</g>
<g transform="matrix( 0.766082763671875, 0, 0, 0.766082763671875, 313.95,104.3) ">
	<g transform="matrix( 1.3053436279296875, 0, 0, 1.3053436279296875, -409.8,-136.15) ">
		<path id="Layer1_25_1_STROKES_1_" class="st19" d="M24.3,82.6c-0.1,0.1-0.2,0.1-0.3,0.2c-0.1,0.1-0.2,0.2-0.3,0.2
			c-2.3,1.9-3.7,3-4.2,3.4c-1.6,1.4-3,2.8-4.1,4.3c-0.2,0.3-0.5,0.6-0.7,0.9c-0.5,0.6-0.9,1.2-1.2,1.7c-0.5,0.7-0.9,1.4-1.4,2.3
			 M15.4,88.8c2.4-2.8,5.2-4.8,8.3-5.8 M14.4,94c-0.6,1-1.2,1.9-1.5,2.7c-0.9,1.7-1.5,3.7-2,6"/>
	</g>
</g>
<g transform="matrix( -0.766082763671875, 0, 0, 0.766082763671875, 1379.6,219.45) ">
	<g>
		<g id="Layer1_26_FILL_1_">
			<path class="st12" d="M1375.9,8.8v-7h-18.8v7H1375.9z"/>
		</g>
	</g>
</g>
<g transform="matrix( -0.766082763671875, 0, 0, 0.766082763671875, 1379.6,219.45) ">
	<g>
		<g id="Layer1_27_MEMBER_0_FILL_1_">
			<path class="st18" d="M1401.6-149.3l7.7,0.4c0.3,0,0.5-0.2,0.7-0.4c0.2-0.2,0.3-0.5,0.3-0.8s-0.1-0.6-0.3-0.9
				c-0.2-0.3-0.5-0.4-0.9-0.4l-7.5-0.4c-0.3,0-0.6,0.1-0.9,0.3s-0.4,0.5-0.4,0.9c0,0.3,0.1,0.6,0.3,0.9
				C1400.9-149.4,1401.2-149.3,1401.6-149.3z"/>
		</g>
	</g>
</g>
<g transform="matrix( -0.766082763671875, 0, 0, 0.766082763671875, 1379.6,219.45) ">
	<g>
		<g id="Layer1_28_MEMBER_0_FILL_1_">
			<path class="st18" d="M1380.5-151.4c-0.3,0-0.6,0.2-0.9,0.4c-0.2,0.3-0.3,0.6-0.3,0.9s0.2,0.6,0.4,0.9c0.3,0.2,0.6,0.3,0.9,0.3
				l7.5-0.4c0.3,0,0.6-0.2,0.9-0.4c0.2-0.3,0.3-0.6,0.3-0.9s-0.1-0.6-0.3-0.8c-0.2-0.2-0.5-0.3-0.7-0.4h-0.2L1380.5-151.4z"/>
		</g>
	</g>
</g>
<g transform="matrix( -0.766082763671875, 0, 0, 0.766082763671875, 1379.6,219.45) ">
	<g>
		<g id="Layer1_29_FILL_1_">
			<path class="st20" d="M1383.6-142.5c0,0.5,0.2,0.9,0.5,1.2s0.7,0.5,1.2,0.5s0.9-0.2,1.2-0.5s0.5-0.7,0.5-1.2s-0.2-0.9-0.5-1.2
				c-0.3-0.3-0.7-0.5-1.2-0.5s-0.9,0.2-1.2,0.5C1383.7-143.3,1383.6-142.9,1383.6-142.5z"/>
		</g>
	</g>
</g>
<g transform="matrix( -0.766082763671875, 0, 0, 0.766082763671875, 1379.6,219.45) ">
	<g>
		<g id="Layer1_30_FILL">
			<path class="st20" d="M1403.1-141.9c0,0.5,0.2,0.9,0.5,1.2s0.7,0.5,1.2,0.5s0.9-0.2,1.2-0.5c0.3-0.3,0.5-0.7,0.5-1.2
				s-0.2-0.9-0.5-1.2s-0.7-0.5-1.2-0.5s-0.9,0.2-1.2,0.5C1403.2-142.7,1403.1-142.4,1403.1-141.9z"/>
		</g>
	</g>
</g>
<g transform="matrix( -0.766082763671875, 0, 0, 0.766082763671875, 1379.6,219.45) ">
	<g>
		<g id="Layer1_31_FILL_1_">
			<path class="st10" d="M1397.3-133.1l-2.9-10.1l-0.2,10.7L1397.3-133.1z"/>
		</g>
	</g>
</g>
<g transform="matrix( -0.766082763671875, 0, 0, 0.766082763671875, 1379.6,219.45) ">
	<g>
		<g id="Layer1_32_FILL_1_">
			<path class="st10" d="M1378.2-140.1c0,0.2,0.1,0.4,0.3,0.5c0.6,0.5,1.3,0.9,2.3,1.2c1.1,0.3,2.2,0.5,3.3,0.5
				c1.1,0,2.3-0.2,3.4-0.6c1.1-0.4,1.8-0.7,2.3-1.1c0.2-0.1,0.3-0.3,0.3-0.5s0-0.4-0.2-0.6c-0.1-0.2-0.3-0.2-0.5-0.3
				c-0.2,0-0.4,0-0.6,0.2c-0.4,0.3-1,0.6-1.8,0.9c-1,0.3-2,0.5-2.9,0.5c-1,0-1.9-0.1-2.9-0.4c-0.8-0.3-1.4-0.6-1.8-0.9
				c-0.2-0.1-0.4-0.2-0.6-0.2s-0.4,0.1-0.5,0.3C1378.2-140.5,1378.2-140.3,1378.2-140.1z"/>
		</g>
	</g>
</g>
<g transform="matrix( 1, 0, 0, 1, 0,0) ">
	<g>
		<g id="Layer1_33_FILL_1_">
			<path class="st10" d="M307.4,111.2c-0.2,0-0.4,0.1-0.5,0.2c-0.3,0.2-0.7,0.5-1.3,0.6l0,0c-0.7,0.2-1.4,0.3-2.1,0.3
				s-1.5-0.1-2.2-0.3l0,0c-0.6-0.2-1.1-0.4-1.3-0.6c-0.2-0.1-0.4-0.2-0.6-0.2s-0.4,0.1-0.5,0.3c-0.1,0.2-0.2,0.4-0.2,0.6
				s0.1,0.4,0.3,0.5c0.4,0.3,0.9,0.6,1.7,0.9l0,0c0.9,0.3,1.8,0.4,2.7,0.4c0.9,0,1.7-0.1,2.6-0.4l0,0c0.8-0.2,1.4-0.6,1.8-0.9
				c0.2-0.1,0.3-0.3,0.3-0.5s-0.1-0.4-0.2-0.5C307.8,111.4,307.6,111.3,307.4,111.2z"/>
		</g>
	</g>
</g>
<g transform="matrix( -0.766082763671875, 0, 0, 0.766082763671875, 1379.6,219.45) ">
	<g>
		<g id="Layer1_34_MEMBER_0_FILL">
			<path class="st7" d="M1360.4-139.2c0.9-2.4,1.3-5,1.4-7.8c-0.1-0.3-0.4-0.6-0.7-1.1c-0.7-0.9-1.6-1.7-2.7-2.5
				c-2.7-1.9-5.2-2.2-7.5-0.9c-2.3,1.3-2.8,3.5-1.7,6.6c2.2,5.8,3.2,8.8,3.3,8.9c1.6,3.4,3.2,4.2,4.6,2.6
				C1358.4-135.1,1359.6-137,1360.4-139.2z"/>
		</g>
	</g>
</g>
<g transform="matrix( -0.766082763671875, 0, 0, 0.766082763671875, 1379.6,219.45) ">
	<g>
		<g id="Layer1_34_MEMBER_1_FILL">
			<path class="st10" d="M1354.2-145.9l3.5-0.5l-7-1.2l5.3,9.6L1354.2-145.9z"/>
		</g>
	</g>
</g>
<g transform="matrix( -0.643463134765625, 0.1547088623046875, 0.1547088623046875, 0.643463134765625, 1619.75,276.45) ">
	<g>
		<g id="Layer1_35_FILL_1_">
			<path class="st15" d="M1746.9-370.4c0-0.9-0.3-1.6-0.9-2.2s-1.4-0.9-2.2-0.9c-0.9,0-1.6,0.3-2.2,0.9c-0.6,0.6-0.9,1.3-0.9,2.2
				c0,0.9,0.3,1.6,0.9,2.2s1.3,0.9,2.2,0.9c0.9,0,1.6-0.3,2.2-0.9C1746.6-368.8,1746.9-369.5,1746.9-370.4z"/>
		</g>
	</g>
</g>
<g transform="matrix( -0.643463134765625, 0.1547088623046875, 0.1547088623046875, 0.643463134765625, 1619.75,276.45) ">
	<g>
		<g id="Layer1_36_FILL">
			<path class="st21" d="M1748.7-385.7l-74.7-0.6l-0.5,24c0,3.6,1.2,6.6,3.7,9.1s5.5,3.8,9.1,3.8l49,0.4c3.5,0,6.6-1.2,9.1-3.7
				s3.8-5.5,3.8-9.1L1748.7-385.7z"/>
		</g>
	</g>
</g>
<g transform="matrix( -0.643310546875, 0.1546630859375, 0.1546630859375, 0.643310546875, 1413.85,455.45) ">
	<g transform="matrix( 1, 0, 0, 1, 0,0) ">
		<g>
			<g id="_VisiTeli_V2_ai_Layer_1__Clip_Group__0_copy_0_Layer3_0_FILL_6_">
				<path class="st22" d="M1384.9-713.3c-3.7-3.7-8.2-5.6-13.4-5.6h-52.6c-5.1,0-9.4,1.8-12.9,5.4c-3.6,3.6-5.4,7.9-5.4,13v141.2
					l89.9,0v-140.6C1390.4-705.2,1388.6-709.6,1384.9-713.3z"/>
			</g>
		</g>
	</g>
</g>
<g transform="matrix( -0.643463134765625, 0.1547088623046875, 0.1547088623046875, 0.643463134765625, 1619.75,276.45) ">
	<g>
		<g id="Layer1_38_FILL_1_">
			<path class="st23" d="M1719.4-523.3c2.4-1.5,3.6-3.4,3.6-5.6s-1.2-4.1-3.6-5.6c-2.4-1.6-5.2-2.3-8.6-2.3s-6.2,0.8-8.6,2.3
				s-3.6,3.4-3.6,5.6s1.2,4.1,3.6,5.6c2.4,1.6,5.2,2.3,8.6,2.3C1714.1-520.9,1717-521.7,1719.4-523.3z"/>
		</g>
	</g>
</g>
<g transform="matrix( -0.643463134765625, 0.1547088623046875, 0.1547088623046875, 0.643463134765625, 1619.75,276.45) ">
	<g>
		<g id="Layer1_39_FILL_1_">
			<path class="st7" d="M1717.8-544.8c0-1.8-0.6-3.4-1.8-4.7c-1.2-1.3-2.7-1.9-4.5-1.9h-0.2c-1.7,0.1-3.2,0.7-4.5,1.9
				c-1.3,1.3-1.9,2.9-1.9,4.7v14.2c0,3.2,2.1,4.8,6.4,4.8h0.1c4.2,0,6.3-1.6,6.3-4.8L1717.8-544.8L1717.8-544.8z"/>
		</g>
	</g>
</g>
<g transform="matrix( -0.6600189208984375, -0.0482330322265625, -0.0482330322265625, 0.6600189208984375, 1662.55,358.6) ">
	<g>
		<g id="Layer1_40_FILL_1_">
			<path class="st7" d="M1850-168.7c-5.5,7.5-7.4,16.3-5.7,26.2c1.9,10.4,5.6,18.6,11.2,24.5c6.3,6.7,14.5,9.8,24.4,9.2
				c8.5-1.9,14.7-7.9,18.6-18.2c3-7.9,4.1-16.2,3.5-24.8c-0.8-10-3.8-17.2-9.2-21.7c-5-4.1-12.3-6.2-22.1-6.2
				C1862.3-179.7,1855.4-176,1850-168.7z"/>
		</g>
	</g>
</g>
<g transform="matrix( -0.6600189208984375, -0.0482330322265625, -0.0482330322265625, 0.6600189208984375, 1662.55,358.6) ">
	<g>
		<g id="Layer1_41_FILL">
			<path class="st24" d="M1893-182.9c-1.8-1.3-4.1-2.6-7-3.8c-5.6-2.5-11-3.5-16-3.1c-7.9,0.7-14.5,3.2-19.8,7.5
				c-1.7,1.4-3.1,2.8-4.2,4.4l-1.3,1.9c-0.6-0.3-1.4-0.6-2.4-0.8c-2-0.5-3.9-0.7-5.8-0.7c1.7,1.9,2.7,3.2,3,3.7
				c0.9,1.2,1.5,2.8,2,4.6c-1.7,4.2-2.3,10.4-1.8,18.5c0.6-0.5,1.2-0.8,1.7-1c0.8-0.3,1.6-0.3,2.6-0.1l0.7,0.2l0,0l1,0.4l1.4,0.8
				l1.2,1v0.1l0.2,0.2l0.1,0.1l0,0l0,0l0,0v9.4c0,1.4,0.3,2.5,1,3.1l0.4,0.5c0.2,0.2,0.6,0.4,1.2,0.5c0.6,0.2,1.2,0.3,1.6,0.3
				c1.2,0,2.4-0.4,3.4-1.3c1-0.9,1.5-1.9,1.5-3.1v-3.3c0-1.3,0.4-2.4,1.3-3.3c0.9-0.9,1.9-1.5,3.1-1.6l0.9-0.1
				c0.1-2.9,0.1-5.8,0-8.7c0-1.3,0.3-2.3,1-2.9c0.9-0.8,2.5-1.3,4.9-1.5h0.2l1.4-0.1l26.8-0.1l0.3-0.1c1-0.3,2-0.7,2.9-1.2
				c1.6-0.9,2.8-1.9,3.5-3.2c0.7-1.1,1.2-2.3,1.3-3.4v-1.3h-6.5l1.2-1.4c0.9-1.2,1.6-2.7,2.1-4.3s1-3.3,1.2-5.1l0.3-2.1H1893V-182.9
				z"/>
		</g>
	</g>
</g>
<g transform="matrix( -0.6600189208984375, -0.0482330322265625, -0.0482330322265625, 0.6600189208984375, 1662.55,358.6) ">
	<g>
		<g id="Layer1_42_FILL_1_">
			<path class="st25" d="M1896.3-163.1h-0.3c-2.9,0.5-11.3,1.2-25.2,2.2l26.6-0.1l0.3-0.1c1-0.3,2-0.7,2.9-1.2
				c1.6-0.9,2.8-1.9,3.5-3.2c0.7-1.1,1.2-2.3,1.3-3.4v-1.3c-0.9,1.1-2,2.2-3.3,3.3C1899.8-164.6,1897.8-163.3,1896.3-163.1z"/>
		</g>
	</g>
</g>
<g transform="matrix( -0.6597900390625, -0.0481719970703125, -0.0481719970703125, 0.6597900390625, 1662.3,359.15) ">
	<g>
		<g id="Layer1_43_MEMBER_0_FILL">
			<path class="st24" d="M1894.6-148.7h0.2c0.3,0,0.5-0.2,0.7-0.4s0.3-0.5,0.3-0.8s-0.1-0.6-0.3-0.9c-0.2-0.3-0.5-0.4-0.9-0.4
				l-7.5-0.4c-0.3,0-0.6,0.1-0.9,0.3s-0.4,0.5-0.4,0.9c0,0.3,0.1,0.6,0.3,0.9c0.2,0.3,0.5,0.4,0.9,0.4L1894.6-148.7z"/>
		</g>
	</g>
</g>
<g transform="matrix( -0.6597900390625, -0.0481719970703125, -0.0481719970703125, 0.6597900390625, 1662.3,359.15) ">
	<g>
		<g id="Layer1_44_MEMBER_0_FILL_1_">
			<path class="st24" d="M1866.9-149c0.3,0.2,0.6,0.3,0.9,0.3l7.5-0.4c0.3,0,0.6-0.2,0.9-0.4c0.2-0.3,0.3-0.6,0.3-0.9
				c0-0.3-0.1-0.5-0.3-0.8c-0.2-0.2-0.5-0.3-0.7-0.4l-7.7,0.4c-0.3,0-0.6,0.2-0.9,0.4c-0.2,0.2-0.3,0.5-0.3,0.9
				C1866.5-149.5,1866.7-149.2,1866.9-149z"/>
		</g>
	</g>
</g>
<g transform="matrix( -0.6600189208984375, -0.0482330322265625, -0.0482330322265625, 0.6600189208984375, 1662.55,358.6) ">
	<g>
		<g id="Layer1_45_FILL">
			<path class="st20" d="M1870.3-141.9c0,0.5,0.2,0.9,0.5,1.2s0.7,0.5,1.2,0.5s0.9-0.2,1.2-0.5c0.3-0.3,0.5-0.7,0.5-1.2
				s-0.2-0.9-0.5-1.2s-0.7-0.5-1.2-0.5s-0.9,0.2-1.2,0.5C1870.5-142.8,1870.3-142.4,1870.3-141.9z"/>
		</g>
	</g>
</g>
<g transform="matrix( -0.6600189208984375, -0.0482330322265625, -0.0482330322265625, 0.6600189208984375, 1662.55,358.6) ">
	<g>
		<g id="Layer1_46_FILL">
			<path class="st20" d="M1888.3-141.3c0,0.5,0.2,0.9,0.5,1.2s0.7,0.5,1.2,0.5s0.9-0.2,1.2-0.5c0.3-0.3,0.5-0.7,0.5-1.2
				s-0.2-0.9-0.5-1.2s-0.7-0.5-1.2-0.5s-0.9,0.2-1.2,0.5C1888.4-142.2,1888.3-141.8,1888.3-141.3z"/>
		</g>
	</g>
</g>
<g transform="matrix( -0.6600189208984375, -0.0482330322265625, -0.0482330322265625, 0.6600189208984375, 1662.55,358.6) ">
	<g>
		<g id="Layer1_47_FILL_1_">
			<path class="st25" d="M1902.4-176c0.8-2.2,1.3-4.5,1.4-6.9c-0.7,1.6-1.6,3.3-2.8,5.1c-2.4,3.6-4.8,5.9-7.3,6.9
				c-2.1,0.9-7.7,1.6-16.7,2.2l-12.9,0.7l2.6,0.8c2,0.5,3.7,0.9,5.1,1c3.2,0.3,7.6,0.3,13.2,0c8-0.5,12.7-1.8,14.1-3.8
				C1900.4-171.7,1901.6-173.7,1902.4-176z"/>
		</g>
	</g>
</g>
<g transform="matrix( -0.6597900390625, -0.0481719970703125, -0.0481719970703125, 0.6597900390625, 1662.3,359.15) ">
	<g>
		<g id="Layer1_48_MEMBER_0_FILL">
			<path class="st7" d="M1837.4-146.5c2.2,5.8,3.2,8.8,3.3,8.9c1.6,3.4,3.2,4.2,4.6,2.6c3-3.4,4.5-7.9,4.7-13.5
				c-0.1-0.3-0.3-0.6-0.7-1.1c-0.7-0.9-1.6-1.7-2.7-2.5c-2.7-1.9-5.2-2.2-7.5-1C1836.8-151.8,1836.3-149.6,1837.4-146.5z"/>
		</g>
	</g>
</g>
<g transform="matrix( -0.6597900390625, -0.0481719970703125, -0.0481719970703125, 0.6597900390625, 1662.3,359.15) ">
	<g>
		<g id="Layer1_48_MEMBER_1_FILL">
			<path class="st10" d="M1842.4-147.3l3.5-0.5l-7-1.2l5.3,9.6L1842.4-147.3z"/>
		</g>
	</g>
</g>
<g transform="matrix( -0.6600189208984375, -0.0482330322265625, -0.0482330322265625, 0.6600189208984375, 1662.55,358.6) ">
	<g>
		<g id="Layer1_49_FILL_1_">
			<path class="st10" d="M1880.9-129.7l3.1-0.7l-2.9-13.9L1880.9-129.7z"/>
		</g>
	</g>
</g>
<g transform="matrix( 1, 0, 0, 1, 0,0) ">
	<g>
		<g id="Layer1_50_FILL">
			<path class="st10" d="M421.4,183.9c-0.2,0-0.4,0-0.6,0.1s-0.3,0.3-0.3,0.5s0,0.4,0.1,0.6c0.6,0.9,1.4,1.6,2.6,2.3l0,0
				c1.2,0.7,2.5,1.2,3.9,1.2c1.3,0.1,2.6-0.2,4-0.8l0,0c1.2-0.5,2.1-1.1,2.7-1.8c0.1-0.2,0.2-0.4,0.2-0.6s-0.1-0.4-0.3-0.5
				c-0.2-0.1-0.4-0.2-0.6-0.2s-0.4,0.1-0.5,0.3c-0.4,0.5-1.1,1-2.1,1.4l0,0c-1.2,0.5-2.3,0.7-3.4,0.7l0,0c-1.1-0.1-2.2-0.4-3.1-1
				l0,0c-0.9-0.5-1.6-1.1-2.1-1.8C421.7,184.1,421.6,184,421.4,183.9z"/>
		</g>
	</g>
</g>
<g transform="matrix( 1, 0, 0, 1, 0,0) ">
	<g>
		<g id="Layer1_51_FILL">
			<path class="st13" d="M119.5,250.2c-0.1,0.7-0.3,1.5-0.5,2.3c-1.2,5.9-3.6,15.4-7.2,28.7c-2,7.6-5.4,18.4-10.1,32.4l64.2,34.7
				l3.2-72.4l13.5-57.1c0.6-3.4,0-6.5-2-9.4c-1.9-2.9-4.6-4.6-8-5.2l-34.5-6.4c-3.4-0.6-6.5,0-9.4,2c-2.8,2-4.6,4.7-5.2,8
				c-0.3,5.4-0.8,11.1-1.3,17.3c-0.7,8.2-1.3,14.6-1.9,19.3C120.1,246.8,119.8,248.8,119.5,250.2 M157.7,210.2
				c0.5,0.1,1,0.4,1.2,0.9c0.3,0.5,0.4,1.1,0.3,1.8l-9.5,58.6c-0.1,0.6-0.4,1.2-0.9,1.5c-0.4,0.4-0.9,0.6-1.4,0.5s-0.9-0.4-1.3-0.9
				c-0.3-0.5-0.4-1.1-0.3-1.7l9.5-58.6c0.1-0.6,0.4-1.2,0.8-1.6C156.7,210.3,157.2,210.1,157.7,210.2z"/>
			<path class="st6" d="M159,211.1c-0.3-0.5-0.7-0.8-1.2-0.9s-1,0-1.5,0.4c-0.4,0.4-0.7,0.9-0.8,1.6l-9.5,58.6
				c-0.1,0.6,0,1.2,0.3,1.7s0.8,0.8,1.3,0.9s1-0.1,1.4-0.5c0.5-0.4,0.8-0.9,0.9-1.5l9.5-58.6C159.4,212.2,159.3,211.6,159,211.1z"/>
		</g>
	</g>
</g>
<g transform="matrix( 1, 0, 0, 1, 0,0) ">
	<g>
		<g id="Layer1_52_FILL">
			<path class="st24" d="M470.8,350.6l40.9-48.8L393,263l-188.8,0.3L87.4,302.6l43.2,48.6l170.7,21.4L470.8,350.6z"/>
		</g>
	</g>
</g>
<g transform="matrix( -0.30706787109375, 0.5855560302734375, 0.5855560302734375, 0.30706787109375, 1263.9,234.15) ">
	<g>
		<g id="Layer1_53_MEMBER_0_FILL">
			<path class="st7" d="M653.9-1136.3c-0.1-2.3-1-4.1-2.7-5.6s-3.6-2.2-5.9-2c-2.2,0.1-4.1,1-5.6,2.7c-1.5,1.7-2.2,3.6-2.1,5.9
				l3.4,69.8c0.1,2.3,1,4.1,2.7,5.6s3.6,2.2,5.9,2c2.3-0.1,4.1-1,5.6-2.7c1.5-1.7,2.2-3.6,2-5.9L653.9-1136.3z"/>
		</g>
	</g>
</g>
<g transform="matrix( -0.610870361328125, -0.25299072265625, -0.25299072265625, 0.610870361328125, 1633.15,451) ">
	<g>
		<g id="Layer1_53_MEMBER_1_FILL">
			<path class="st7" d="M1833.6,373.5c-2.2-0.1-4.2,0.7-5.8,2.2c-1.6,1.6-2.5,3.4-2.5,5.7l-2.6,69.8c-0.1,2.3,0.7,4.2,2.2,5.8
				c1.6,1.6,3.4,2.5,5.7,2.5c2.3,0.1,4.2-0.7,5.8-2.2c1.6-1.6,2.5-3.4,2.5-5.7l2.6-69.8c0.1-2.3-0.7-4.2-2.2-5.8
				C1837.7,374.4,1835.8,373.5,1833.6,373.5z"/>
		</g>
	</g>
</g>
<g transform="matrix( -0.610870361328125, -0.25299072265625, -0.25299072265625, 0.610870361328125, 1365.15,483.15) ">
	<g transform="matrix( 1, 0, 0, 1, 0,0) ">
		<g>
			<g id="_VisiTeli_V2_ai_Layer_1__Clip_Group__1_copy_2_0_Layer3_0_FILL_3_">
				<path class="st22" d="M1469.5,171.3c-2.1,1.9-3.2,4.3-3.3,7.1l-2,51l20.4,0.7l2-51c0.1-2.8-0.8-5.2-2.8-7.3
					c-1.9-2.1-4.3-3.2-7.1-3.3C1473.9,168.4,1471.5,169.3,1469.5,171.3z"/>
			</g>
		</g>
	</g>
</g>
<g transform="matrix( -0.610870361328125, -0.25299072265625, -0.25299072265625, 0.610870361328125, 1643.75,453) ">
	<g>
		<g id="Layer1_53_MEMBER_3_FILL">
			<path class="st22" d="M1858.8,367.6c-3.6-3.7-8-5.5-13.2-5.5c-5.1,0-9.5,1.8-13.1,5.5c-3.7,3.6-5.5,8-5.5,13.1
				c0,5.2,1.8,9.6,5.5,13.2c3.6,3.7,8,5.5,13.1,5.5c5.2,0,9.6-1.8,13.2-5.5c3.6-3.6,5.4-8,5.4-13.2
				C1864.2,375.6,1862.4,371.2,1858.8,367.6z"/>
		</g>
	</g>
</g>
<g transform="matrix( 0.19500732421875, -0.6316375732421875, 0.6316375732421875, 0.19500732421875, 1059.1,734.6) ">
	<g>
		<g id="Layer1_53_MEMBER_4_FILL">
			<path class="st10" d="M374.7-1080.4l11,0.9l-4.5-8.4l-2.6-5.5L374.7-1080.4z"/>
		</g>
	</g>
</g>
<g transform="matrix( -0.685791015625, -0.727783203125, 0.727783203125, -0.685791015625, 1844.6,1886.05) ">
	<g>
		<g id="Layer1_53_MEMBER_5_FILL">
			<path class="st7" d="M2110.6,90.3l2.1-0.2l7.6-5.3l9.3-5.5l-4.5-9.8l-9.7,5.1l-2.1,4l-2.6,9.8v1.9H2110.6z"/>
		</g>
	</g>
</g>
<g transform="matrix( -0.610870361328125, -0.25299072265625, -0.25299072265625, 0.610870361328125, 1633.15,451) ">
	<g transform="matrix( -1.3973388671875, -0.578704833984375, -0.578704833984375, 1.3973388671875, 2543.05,314.9) ">
		<path id="Layer1_53_MEMBER_6_1_STROKES" class="st26" d="M1699.7,506.1l20.4,0.9"/>
	</g>
</g>
<g transform="matrix( 1, 0, 0, 1, 0,0) ">
	<g>
		<g id="Layer1_54_FILL">
			<path class="st11" d="M394.5,272.4c-1.1-0.9-2.2-0.9-3.4-0.1l-40,25.5c-1.2,0.8-1.3,1.6-0.2,2.4l25.6,20.2
				c1.1,0.9,2.2,0.9,3.5,0.1l40-25.5c1.2-0.8,1.2-1.6,0.2-2.4L394.5,272.4 M380.7,295.2c0.2,0,0.4,0,0.6,0.2l9.4,7.8
				c0.2,0.2,0.3,0.3,0.3,0.5s0,0.4-0.2,0.6c-0.1,0.2-0.3,0.3-0.5,0.3s-0.4,0-0.6-0.2l-9.4-7.8c-0.2-0.1-0.3-0.3-0.3-0.5
				s0-0.4,0.2-0.6C380.3,295.3,380.5,295.3,380.7,295.2 M388.7,297.8c-0.2-0.1-0.3-0.3-0.3-0.5s0-0.4,0.1-0.6s0.3-0.3,0.5-0.3
				s0.4,0,0.6,0.1c1.4,1,2.5,1.9,3.3,2.5l0,0c0.3,0.3,0.5,0.4,0.6,0.5c0.2,0.1,0.4,0.2,0.5,0.4c0.1,0.2,0.1,0.4,0,0.6
				s-0.2,0.4-0.4,0.5c-0.2,0.1-0.4,0.1-0.6,0c-0.2,0-0.6-0.3-1.1-0.8l0,0C391.1,299.4,390.1,298.6,388.7,297.8 M399.4,288.5
				c0.2,0,0.4,0,0.5,0.2l7.3,5.2c0.2,0.1,0.3,0.3,0.3,0.5s0,0.4-0.1,0.5c-0.1,0.2-0.3,0.3-0.5,0.3s-0.4,0-0.6-0.1l-7.3-5.2
				c-0.2-0.1-0.3-0.3-0.3-0.5s0-0.4,0.2-0.6C399,288.8,399.2,288.6,399.4,288.5 M392.4,288.9c-0.2-0.1-0.3-0.2-0.3-0.5
				c-0.1-0.2,0-0.4,0-0.6c0.1-0.2,0.3-0.3,0.5-0.3c0.2-0.1,0.4,0,0.6,0c0.7,0.4,2.2,1.5,4.7,3.3c2.8,2.1,4.9,3.7,6.4,5
				c0.2,0.1,0.3,0.3,0.3,0.5s-0.1,0.4-0.2,0.6s-0.3,0.3-0.5,0.3s-0.4-0.1-0.5-0.2c-1.4-1.3-3.5-2.9-6.3-4.9
				C394.5,290.4,393,289.3,392.4,288.9 M391.8,309.3c-0.2,0-0.4,0-0.6-0.2l-18.7-14.5c-0.2-0.1-0.2-0.3-0.3-0.5c0-0.2,0-0.4,0.2-0.6
				c0.1-0.2,0.3-0.2,0.5-0.3c0.2,0,0.4,0,0.6,0.2l18.7,14.5c0.2,0.1,0.3,0.3,0.3,0.5s0,0.4-0.2,0.6
				C392.2,309.1,392.1,309.3,391.8,309.3z"/>
			<path class="st27" d="M391.2,309.1c0.2,0.1,0.4,0.2,0.6,0.2s0.4-0.1,0.5-0.3s0.2-0.4,0.2-0.6c0-0.2-0.1-0.4-0.3-0.5l-18.7-14.5
				c-0.2-0.1-0.4-0.2-0.6-0.2s-0.4,0.1-0.5,0.3c-0.1,0.2-0.2,0.4-0.2,0.6s0.1,0.4,0.3,0.5L391.2,309.1 M392,288.5
				c0.1,0.2,0.2,0.4,0.3,0.5c0.6,0.3,2.1,1.4,4.5,3.2c2.8,2,4.9,3.7,6.3,4.9c0.2,0.1,0.3,0.2,0.5,0.2s0.4-0.1,0.5-0.3
				c0.1-0.2,0.2-0.4,0.2-0.6s-0.1-0.4-0.3-0.5c-1.5-1.3-3.6-3-6.4-5c-2.5-1.9-4.1-3-4.7-3.3c-0.2-0.1-0.4-0.1-0.6,0
				s-0.3,0.2-0.5,0.3C392,288.1,392,288.3,392,288.5 M400,288.8c-0.2-0.1-0.3-0.2-0.5-0.2s-0.4,0.2-0.5,0.3
				c-0.1,0.2-0.2,0.4-0.2,0.6s0.2,0.4,0.3,0.5l7.3,5.2c0.2,0.1,0.4,0.2,0.6,0.1c0.2,0,0.4-0.1,0.5-0.3c0.1-0.2,0.2-0.3,0.1-0.5
				c0-0.2-0.1-0.4-0.3-0.5L400,288.8 M388.4,297.1c0,0.2,0.2,0.4,0.3,0.5c1.4,1,2.4,1.8,3.1,2.4l0,0c0.6,0.5,0.9,0.8,1.1,0.8
				c0.2,0.1,0.4,0.1,0.6,0s0.3-0.3,0.4-0.5s0.1-0.4,0-0.6s-0.3-0.3-0.5-0.4c-0.1-0.1-0.3-0.2-0.6-0.5l0,0c-0.7-0.7-1.8-1.5-3.3-2.5
				c-0.2-0.1-0.4-0.1-0.6-0.1s-0.4,0.2-0.5,0.3C388.4,296.8,388.4,296.9,388.4,297.1 M381.3,295.4c-0.2-0.1-0.4-0.2-0.6-0.2
				s-0.4,0.1-0.5,0.3c-0.1,0.2-0.2,0.4-0.2,0.6s0.1,0.4,0.3,0.5l9.4,7.8c0.2,0.1,0.4,0.2,0.6,0.2s0.4-0.1,0.5-0.3s0.2-0.4,0.2-0.6
				c0-0.2-0.1-0.4-0.3-0.5L381.3,295.4z"/>
		</g>
	</g>
</g>
<g transform="matrix( -0.3403167724609375, -0.566925048828125, -0.566925048828125, 0.3403167724609375, 1703.85,651.55) ">
	<g>
		<g id="Layer1_55_MEMBER_0_FILL">
			<path class="st7" d="M1479,1312.9c-0.1-2.3-1-4.1-2.7-5.6s-3.6-2.2-5.9-2s-4.1,1-5.6,2.7s-2.2,3.6-2.1,5.9l3.4,69.8
				c0.1,2.3,1,4.1,2.7,5.6s3.6,2.2,5.9,2c2.3-0.1,4.1-1,5.6-2.7s2.2-3.6,2-5.9L1479,1312.9z"/>
		</g>
	</g>
</g>
<g transform="matrix( -0.65997314453125, -0.04052734375, -0.04052734375, 0.65997314453125, 1661.35,357.1) ">
	<g>
		<g id="Layer1_55_MEMBER_1_FILL">
			<path class="st7" d="M1826.4-108c-2.2-0.1-4.2,0.7-5.8,2.2c-1.6,1.6-2.5,3.4-2.5,5.7l-2.6,69.8c-0.1,2.3,0.7,4.2,2.2,5.8
				c1.6,1.6,3.4,2.5,5.7,2.5c2.3,0.1,4.2-0.7,5.8-2.2c1.6-1.6,2.5-3.4,2.5-5.7l2.6-69.8c0.1-2.3-0.7-4.2-2.2-5.8
				C1830.6-107.1,1828.7-108,1826.4-108z"/>
		</g>
	</g>
</g>
<g transform="matrix( -0.65997314453125, -0.04052734375, -0.04052734375, 0.65997314453125, 1417.55,475.95) ">
	<g transform="matrix( 1, 0, 0, 1, 0,0) ">
		<g>
			<g id="_VisiTeli_V2_ai_Layer_1__Clip_Group__1_copy_0_Layer3_0_FILL_6_">
				<path class="st22" d="M1462-310.6c-2.1,1.9-3.2,4.3-3.3,7.1l-2,51l20.4,0.7l2-51c0.1-2.8-0.8-5.2-2.8-7.3
					c-1.9-2.1-4.3-3.2-7.1-3.3C1466.5-313.5,1464.1-312.6,1462-310.6z"/>
			</g>
		</g>
	</g>
</g>
<g transform="matrix( -0.65997314453125, -0.04052734375, -0.04052734375, 0.65997314453125, 1661.35,357.1) ">
	<g>
		<g id="Layer1_55_MEMBER_3_FILL">
			<path class="st22" d="M1848.1-114.7c-3.6-3.7-8-5.5-13.2-5.5c-5.1,0-9.5,1.8-13.1,5.5c-3.7,3.6-5.5,8-5.5,13.1
				c0,5.2,1.8,9.6,5.5,13.2c3.6,3.7,8,5.5,13.1,5.5c5.2,0,9.6-1.8,13.2-5.5c3.6-3.6,5.4-8,5.4-13.2
				C1853.5-106.6,1851.7-111,1848.1-114.7z"/>
		</g>
	</g>
</g>
<g transform="matrix( -0.4784393310546875, 0.4562835693359375, -0.4562835693359375, -0.4784393310546875, 1715.25,584.2) ">
	<g>
		<g id="Layer1_55_MEMBER_4_FILL">
			<path class="st10" d="M1103.3,1696.8l4,2.4c3,1.2,5.3,0.7,7-1.5c-1.1-1.6-2.6-4.4-4.5-8.4l-2.6-5.5L1103.3,1696.8z"/>
		</g>
	</g>
</g>
<g transform="matrix( 1, 0, 0, 1, 0,0) ">
	<g>
		<g id="Layer1_55_MEMBER_5_FILL">
			<path class="st28" d="M412.7,265.1c0.1,0,0.1,0,0.2,0l-0.1-0.1L412.7,265.1 M411.8,267.1l-0.1,0.1h0.1V267.1z"/>
			<path class="st29" d="M415.5,268.8c0.4-0.2,0.7-0.4,0.9-0.9c0.2-0.4,0.2-0.9,0-1.3c0-0.1-0.1-0.2-0.1-0.3
				c-0.2-0.3-0.5-0.5-0.8-0.7l-1.3-0.6c-0.4-0.2-0.9-0.2-1.3,0c-0.1,0-0.1,0-0.2,0c-0.4,0.2-0.7,0.5-0.8,0.9
				c-0.2,0.4-0.2,0.8-0.1,1.2c0,0,0,0.1,0,0.2c0.2,0.4,0.5,0.7,0.9,0.9l1.4,0.5c0.3,0.2,0.6,0.2,0.9,0.2
				C415.2,268.9,415.3,268.8,415.5,268.8z"/>
			<path class="st30" d="M404.6,288.2L404.6,288.2c0.5,0.2,1,0.2,1.5,0s0.8-0.5,1-1l8-18.4c-0.3,0.1-0.6,0-0.9-0.2l-1.4-0.5
				c-0.4-0.2-0.7-0.5-0.9-0.9h-0.1l-8,18.6c-0.2,0.4-0.2,0.9,0,1.4C403.8,287.8,404.1,288,404.6,288.2l0.9-2.1L404.6,288.2
				 M416.5,257.6c-0.5,0.2-0.8,0.5-1,1l-2.8,6.4l0.1,0.1c0.4-0.2,0.9-0.2,1.3,0l1.3,0.6c0.3,0.1,0.6,0.3,0.8,0.7l2.7-6.2
				c0.2-0.5,0.2-1,0-1.5s-0.5-0.8-1-1l0,0C417.5,257.4,417,257.4,416.5,257.6z"/>
		</g>
	</g>
	<g>
		<path id="Layer1_55_MEMBER_5_1_STROKES" class="st31" d="M403.7,290.3l0.9-2.1l0.9-2.1"/>
	</g>
</g>
<g transform="matrix( -0.127655029296875, 0.648681640625, -0.648681640625, -0.127655029296875, 1653.25,381.25) ">
	<g>
		<g id="Layer1_55_MEMBER_6_FILL">
			<path class="st7" d="M228.1,1863.1l-16.3-1.3l-0.5,16.5l3.7,5.8c2.8,4.1,5,6.7,6.7,7.9c2,1.4,4.7,2.3,8,2.8
				c2.1,0.3,4,0.5,5.5,0.4s0.9-2.7-2-7.9l-4.7-7.8L228.1,1863.1z"/>
		</g>
	</g>
</g>
<g transform="matrix( -0.65997314453125, -0.04052734375, -0.04052734375, 0.65997314453125, 1661.35,357.1) ">
	<g transform="matrix( -1.5095062255859375, -0.092681884765625, -0.092681884765625, 1.5095062255859375, 2540.9,-385.05) ">
		<path id="Layer1_55_MEMBER_7_1_STROKES" class="st26" d="M1794.8,48.2l20.4,0.9"/>
	</g>
</g>
<g transform="matrix( -0.766082763671875, 0, 0, 0.766082763671875, 1379.6,219.45) ">
	<g>
		<g id="Layer1_56_MEMBER_0_FILL">
			<path class="st10" d="M1353.6,66.4c1,0.6,1.9,1.2,2.8,1.5c3,1.2,5.3,0.7,7-1.5c-1.1-1.6-2.6-4.4-4.5-8.4l-2.6-5.5l-3.9,13
				L1353.6,66.4z"/>
		</g>
	</g>
</g>
<g transform="matrix( -0.766082763671875, 0, 0, 0.766082763671875, 1379.6,219.45) ">
	<g>
		<g id="Layer1_56_MEMBER_1_FILL">
			<path class="st7" d="M1356.7,67.8l-0.3-16.4l-16.4-1.2l-0.5,16.5l3.7,5.8c2.8,4.1,5,6.7,6.7,7.9c2,1.4,4.7,2.3,8,2.8
				c2.1,0.3,4,0.5,5.5,0.4s0.9-2.7-2-7.9L1356.7,67.8z"/>
		</g>
	</g>
</g>
<g transform="matrix( -0.766082763671875, 0, 0, 0.766082763671875, 1379.6,219.45) ">
	<g>
		<g id="Layer1_56_MEMBER_2_FILL">
			<path class="st7" d="M1348.6-0.2c-2.1,0-3.9,0.8-5.4,2.3s-2.3,3.3-2.3,5.4v43.4c0,2.1,0.8,3.9,2.3,5.4s3.3,2.2,5.4,2.2
				s3.9-0.7,5.4-2.2s2.3-3.3,2.3-5.4V7.5c0-2.1-0.8-3.9-2.3-5.4C1352.6,0.6,1350.8-0.2,1348.6-0.2z"/>
		</g>
	</g>
</g>
<g transform="matrix( -0.766082763671875, 0, 0, 0.766082763671875, 1379.6,219.45) ">
	<g>
		<g id="Layer1_56_MEMBER_3_FILL">
			<path class="st11" d="M1361.1,53.5V40.1h-25.4v13.4H1361.1z"/>
		</g>
	</g>
</g>
<g transform="matrix( -0.766082763671875, 0, 0, 0.766082763671875, 1379.6,219.45) ">
	<g>
		<g id="Layer1_56_MEMBER_4_FILL">
			<path class="st12" d="M1341.8-95.8c-1.8,1.9-2.8,4.1-2.8,6.7V40.2h19.2V-89.2c0-2.6-0.9-4.8-2.8-6.7c-1.8-1.8-4.1-2.8-6.6-2.8
				h-0.3C1345.9-98.6,1343.7-97.7,1341.8-95.8z"/>
		</g>
	</g>
</g>
<g transform="matrix( 1, 0, 0, 1, 0,0) ">
	<g>
		<g id="Layer1_57_FILL">
			<path class="st0" d="M326.6,335c3.4-1.2,5.1-2.7,5.1-4.4s-1.7-3.2-5.1-4.4s-7.5-1.8-12.3-1.8s-8.9,0.6-12.4,1.8
				c-3.4,1.2-5.1,2.7-5.1,4.4s1.7,3.2,5.1,4.4s7.5,1.8,12.4,1.8C319.1,336.8,323.2,336.2,326.6,335z"/>
		</g>
	</g>
</g>
<g transform="matrix( 1, 0, 0, 1, 0,0) ">
	<g>
		<g id="Layer1_58_FILL">
			<path class="st6" d="M370.2,338.8c-0.1-0.5-0.3-1-0.7-1.4c-0.5-0.5-1.1-0.8-1.9-0.9l-37.6-1.2c-0.7,0-1.3,0.2-1.9,0.7
				c-0.5,0.5-0.8,1.1-0.8,1.8l-0.1,0.7c0,0.7,0.2,1.4,0.7,1.9s1.1,0.8,1.8,0.8l37.6,1.3c0.8,0,1.4-0.2,1.9-0.7
				c0.5-0.4,0.7-1,0.8-1.7l0,0l0.1-0.9C370.3,339.1,370.3,339,370.2,338.8z"/>
			<path class="st32" d="M367.4,299.2l-37.8-1.3l-4.5,42.4c0,1.7,0.8,2.6,2.5,2.7l39.9,1.4c1.7,0.1,2.6-0.8,2.7-2.5v-1.7
				c0,0.7-0.3,1.3-0.8,1.7c-0.5,0.5-1.2,0.7-1.9,0.7l-37.6-1.3c-0.7-0.1-1.3-0.3-1.8-0.8s-0.7-1.2-0.7-1.9l0.1-0.7
				c0-0.8,0.3-1.4,0.8-1.8c0.5-0.5,1.2-0.7,1.9-0.7l37.6,1.2c0.8,0,1.4,0.3,1.9,0.9c0.4,0.4,0.6,0.8,0.7,1.4L367.4,299.2
				 M350.8,311.5c0.2,0,0.4,0.1,0.5,0.3s0.2,0.3,0.2,0.5s-0.1,0.4-0.3,0.5c-0.2,0.1-0.4,0.2-0.6,0.2l-15.1-1c-0.2,0-0.4-0.1-0.5-0.3
				s-0.2-0.4-0.2-0.6c0-0.2,0.1-0.4,0.3-0.5c0.2-0.1,0.3-0.2,0.5-0.2L350.8,311.5 M357.8,305.8c0.2,0,0.4,0.1,0.5,0.2
				c0.1,0.2,0.2,0.4,0.2,0.6c0,0.2-0.1,0.4-0.3,0.5c-0.1,0.1-0.3,0.2-0.5,0.2l-21-1.2c-0.2,0-0.4-0.1-0.5-0.3
				c-0.1-0.1-0.2-0.3-0.2-0.5s0.1-0.4,0.2-0.5c0.2-0.1,0.4-0.2,0.6-0.2L357.8,305.8z"/>
			<path class="st29" d="M358.4,306c-0.1-0.1-0.3-0.2-0.5-0.2l-21-1.2c-0.2,0-0.4,0.1-0.6,0.2c-0.1,0.1-0.2,0.3-0.2,0.5
				s0.1,0.4,0.2,0.5c0.1,0.2,0.3,0.3,0.5,0.3l21,1.2c0.2,0,0.4-0.1,0.5-0.2c0.2-0.1,0.3-0.3,0.3-0.5
				C358.6,306.3,358.5,306.1,358.4,306 M351.4,311.8c-0.1-0.2-0.3-0.3-0.5-0.3l-15.1-1c-0.2,0-0.4,0.1-0.5,0.2
				c-0.2,0.1-0.3,0.3-0.3,0.5s0.1,0.4,0.2,0.6c0.1,0.2,0.3,0.3,0.5,0.3l15.1,1c0.2,0,0.4-0.1,0.6-0.2c0.2-0.1,0.3-0.3,0.3-0.5
				C351.6,312.1,351.5,312,351.4,311.8z"/>
		</g>
	</g>
</g>
<g transform="matrix( 1, 0, 0, 1, 230,101.25) ">
	<g>
		<g id="Layer1_59_FILL">
			<path class="st6" d="M-89.2,97.1c-0.4,0.9-0.7,1.8-0.8,2.7c-0.7,3.8,0.3,7.4,3,10.7c2.7,3.3,6.3,5.4,10.8,6.3
				c4.5,0.8,8.6,0.2,12.3-1.9c3.7-2.2,5.9-5.1,6.6-8.9c0.2-0.9,0.2-1.8,0.2-2.8L-89.2,97.1z"/>
		</g>
	</g>
</g>
<g transform="matrix( 1, 0, 0, 1, 230,101.25) ">
	<g>
		<g id="Layer1_60_FILL">
			<path class="st7" d="M-86.6,97.6c-0.4,0.8-0.7,1.7-0.9,2.6c-0.6,3.1,0.3,6,2.6,8.7c2.3,2.7,5.3,4.4,9.1,5.1
				c3.8,0.7,7.3,0.2,10.3-1.5c3.1-1.7,5-4.2,5.6-7.3c0.2-0.9,0.2-1.8,0.1-2.8L-86.6,97.6z"/>
		</g>
	</g>
</g>
<g transform="matrix( -0.660675048828125, -0.1223602294921875, -0.1223602294921875, 0.660675048828125, 1719.15,446.8) ">
	<g>
		<g id="Layer1_61_FILL">
			<path class="st7" d="M2357.7,43.6c-1.3-1.3-2.9-2-4.8-2c-1.9,0-3.5,0.7-4.8,2s-2,2.9-2,4.8v14.5c0,3.3,2.3,4.9,6.8,4.9
				s6.8-1.6,6.8-4.9V48.4C2359.7,46.5,2359,44.9,2357.7,43.6z"/>
		</g>
	</g>
</g>
<g transform="matrix( -0.666168212890625, 0.0875244140625, 0.0875244140625, 0.666168212890625, 1681.95,229.9) ">
	<g>
		<g id="Layer1_62_MEMBER_0_FILL">
			<path class="st33" d="M2216.5-413.3l-3.3-5.7c-1.5-0.3-2.9,0.2-4.4,1.3c-2.9,2.4-4.4,7.2-4.4,14.6c0,3.7,0.4,7.7,1.1,12
				c0.4,2.2,0.8,3.9,1.1,5.4l13.2-15.3l13.7-6.1L2216.5-413.3z"/>
		</g>
	</g>
</g>
<g transform="matrix( -0.666168212890625, 0.0875244140625, 0.0875244140625, 0.666168212890625, 1681.95,229.9) ">
	<g>
		<g id="Layer1_62_MEMBER_1_MEMBER_0_FILL">
			<path class="st7" d="M2257.7-404c-5.4-7.2-12.3-10.9-20.6-10.9c-9.7,0-17,2-21.9,6.1c-5.3,4.4-8.4,11.6-9.1,21.5
				c-0.6,8.6,0.5,16.8,3.5,24.6c3.8,10.2,10,16.2,18.4,18.1c9.9,0.5,17.9-2.5,24.2-9.1c5.6-5.9,9.3-14,11.1-24.3
				C2265.1-387.8,2263.2-396.5,2257.7-404z"/>
		</g>
	</g>
</g>
<g transform="matrix( -0.66015625, 0.124755859375, 0.124755859375, 0.66015625, 1671,193.9) ">
	<g>
		<g id="Layer1_62_MEMBER_1_MEMBER_1_MEMBER_0_FILL">
			<path class="st24" d="M2186.4-455.4c-0.3-0.3-0.6-0.4-1-0.3l-7.9,0.4c-0.4,0-0.7,0.2-0.9,0.4c-0.3,0.3-0.4,0.6-0.4,0.9
				c0,0.3,0.1,0.6,0.4,0.8c0.2,0.3,0.5,0.4,0.8,0.4l8.1-0.4c0.4,0,0.7-0.2,0.9-0.4c0.2-0.3,0.3-0.6,0.3-1
				C2186.8-454.9,2186.7-455.2,2186.4-455.4z"/>
		</g>
	</g>
</g>
<g transform="matrix( -0.653961181640625, 0.15399169921875, 0.15399169921875, 0.653961181640625, 1659.35,164.4) ">
	<g>
		<g id="Layer1_62_MEMBER_1_MEMBER_2_MEMBER_0_FILL">
			<path class="st24" d="M2169.8-507.7h-0.2c-0.3,0.1-0.6,0.2-0.8,0.4c-0.2,0.2-0.3,0.5-0.3,0.8c0,0.4,0.1,0.7,0.3,1
				c0.2,0.3,0.5,0.4,0.9,0.4l7.9,0.4c0.4,0,0.7-0.1,0.9-0.3c0.3-0.3,0.4-0.6,0.4-0.9c0-0.4-0.1-0.7-0.3-0.9
				c-0.3-0.3-0.6-0.4-0.9-0.4L2169.8-507.7z"/>
		</g>
	</g>
</g>
<g transform="matrix( -0.666168212890625, 0.0875244140625, 0.0875244140625, 0.666168212890625, 1681.95,229.9) ">
	<g>
		<g id="Layer1_62_MEMBER_1_MEMBER_3_FILL">
			<path class="st20" d="M2231.4-377.9c0,0.5,0.2,0.9,0.5,1.2c0.3,0.3,0.8,0.5,1.2,0.5s0.9-0.2,1.2-0.5c0.4-0.3,0.5-0.8,0.5-1.2
				c0-0.5-0.2-0.9-0.5-1.2c-0.3-0.4-0.8-0.5-1.2-0.5s-0.9,0.2-1.2,0.5C2231.6-378.8,2231.4-378.4,2231.4-377.9z"/>
		</g>
	</g>
</g>
<g transform="matrix( -0.666168212890625, 0.0875244140625, 0.0875244140625, 0.666168212890625, 1681.95,229.9) ">
	<g>
		<g id="Layer1_62_MEMBER_1_MEMBER_4_FILL">
			<path class="st20" d="M2215.5-376c0.3-0.3,0.5-0.8,0.5-1.2c0-0.5-0.2-0.9-0.5-1.3c-0.3-0.3-0.8-0.5-1.2-0.5
				c-0.5,0-0.9,0.2-1.3,0.5c-0.3,0.4-0.5,0.8-0.5,1.3s0.2,0.9,0.5,1.2c0.4,0.3,0.8,0.5,1.3,0.5
				C2214.7-375.5,2215.1-375.7,2215.5-376z"/>
		</g>
	</g>
</g>
<g transform="matrix( -0.666168212890625, 0.0875244140625, 0.0875244140625, 0.666168212890625, 1681.95,229.9) ">
	<g>
		<g id="Layer1_62_MEMBER_1_MEMBER_5_FILL">
			<path class="st10" d="M2223.5-380.4l-3.1,14.7l3.3,0.7L2223.5-380.4z"/>
		</g>
	</g>
</g>
<g transform="matrix( 1, 0, 0, 1, 230,101.25) ">
	<g>
		<g id="Layer1_62_MEMBER_1_MEMBER_6_FILL">
			<path class="st11" d="M-67,84.3h9.9l1.1-1.8l-11,1.3v0.4C-67,84.3-67,84.3-67,84.3z"/>
			<path class="st34" d="M-57.1,84.3H-67c0,0.9,0.4,1.6,1.2,2.3l0.1,0.1c0.9,0.7,2.1,1.1,3.6,1.2h0.9c1.1,0.1,1.9-0.1,2.2-0.4
				L-57.1,84.3z"/>
		</g>
	</g>
</g>
<g transform="matrix( -0.666168212890625, 0.0875244140625, 0.0875244140625, 0.666168212890625, 1681.95,229.9) ">
	<g>
		<g id="Layer1_62_MEMBER_2_FILL">
			<path class="st33" d="M2257.3-411.7c1.5,3.5,3.7,6,6.7,7.6s5.8,1.8,8.6,0.6c2.7-1.2,4.5-3.4,5.3-6.7c0.9-3.3,0.5-6.6-1-10.1
				c-1.5-3.4-3.7-6-6.7-7.6s-5.8-1.8-8.6-0.6c-2.7,1.2-4.5,3.4-5.3,6.7C2255.4-418.5,2255.8-415.1,2257.3-411.7z"/>
		</g>
	</g>
</g>
<g transform="matrix( -0.666168212890625, 0.0875244140625, 0.0875244140625, 0.666168212890625, 1681.95,229.9) ">
	<g>
		<g id="Layer1_62_MEMBER_3_FILL">
			<path class="st0" d="M2241.9-431c-6.6-1.1-12.2-0.9-16.7,0.6c-5.4,1.9-9.5,5.7-12.4,11.5c4.2,10.3,11.3,19.1,21.3,26.2
				c3.5,2.5,7.2,4.6,10.9,6.4c3,1.3,5.2,2.2,6.8,2.4c-0.5,4.1,0.6,6.7,3.5,7.7c1.4,0.5,2.9,0.6,4.4,0.3c0.5-0.4,2.1-1.1,4.7-2.2
				c2-0.8,3.1-1.7,3.4-2.6c4.7-15.6,3.9-27.9-2.5-36.9C2260.3-424.7,2252.5-429.2,2241.9-431z"/>
		</g>
	</g>
</g>
<g transform="matrix( -0.666168212890625, 0.0875244140625, 0.0875244140625, 0.666168212890625, 1681.95,229.9) ">
	<g>
		<g id="Layer1_62_MEMBER_4_MEMBER_0_FILL">
			<path class="st7" d="M2257-384.2c0.1,2.8,0.6,5.4,1.4,7.8c0.8,2.2,1.9,4.1,3.3,5.7c1.5,1.7,3,0.8,4.6-2.6
				c1.7-4.4,2.8-7.4,3.3-8.9c1.2-3.1,0.6-5.3-1.7-6.6c-2.3-1.3-4.7-1-7.5,0.9c-1.1,0.8-2,1.6-2.7,2.5L2257-384.2z"/>
		</g>
	</g>
</g>
<g transform="matrix( -0.666168212890625, 0.0875244140625, 0.0875244140625, 0.666168212890625, 1681.95,229.9) ">
	<g>
		<g id="Layer1_62_MEMBER_4_MEMBER_1_FILL">
			<path class="st10" d="M2261.1-383.6l3.5,0.5l-1.8,7.9l5.3-9.6L2261.1-383.6z"/>
		</g>
	</g>
</g>
<g transform="matrix( -0.666168212890625, 0.0875244140625, 0.0875244140625, 0.666168212890625, 1681.95,229.9) ">
	<g>
		<g id="Layer1_62_MEMBER_5_FILL">
			<path class="st8" d="M2260.7-367.1c0.6,0.6,1.3,0.9,2.2,0.9s1.6-0.3,2.3-0.9c0.6-0.6,0.9-1.4,0.9-2.3s-0.3-1.6-0.9-2.3
				c-0.6-0.6-1.4-0.9-2.3-0.9c-0.9,0-1.6,0.3-2.2,0.9c-0.6,0.6-0.9,1.4-0.9,2.3C2259.7-368.5,2260-367.8,2260.7-367.1z"/>
		</g>
	</g>
</g>
<g transform="matrix( 1, 0, 0, 1, 230,101.25) ">
	<g>
		<g id="Layer1_63_MEMBER_0_FILL">
			<path class="st13" d="M-98.9,97.6c-2,0.4-3.7,1.4-4.8,3.1l-27.3,39c-1.2,1.7-1.6,3.6-1.3,5.6c0.4,2,1.4,3.7,3.1,4.9
				c1.7,1.2,3.6,1.6,5.6,1.2s3.6-1.4,4.8-3.1l27.2-39.1c1.2-1.7,1.6-3.6,1.2-5.6s-1.4-3.7-3.1-4.8C-95,97.8-96.9,97.3-98.9,97.6z"/>
		</g>
	</g>
</g>
<g transform="matrix( 0.6085205078125, -0.2833251953125, -0.2833251953125, -0.6085205078125, 381,1022.15) ">
	<g>
		<g id="Layer1_63_MEMBER_1_FILL">
			<path class="st10" d="M109,1316.8l-1.6-13.3c-4,6-7.1,10.1-9.3,12.3c1.3,2.4,3.5,3.3,6.6,2.7
				C106.3,1318.2,107.8,1317.6,109,1316.8z"/>
		</g>
	</g>
</g>
<g transform="matrix( 0.57049560546875, -0.3536376953125, -0.3536376953125, -0.57049560546875, 441.1,1091.2) ">
	<g>
		<g id="Layer1_63_MEMBER_2_FILL">
			<path class="st7" d="M240,1413.4l-16.2-1.6l-3.1,15.9c-2.1,2.2-4.1,4.5-6,6.8c-3.7,4.6-4.8,7.1-3.3,7.4s3.3,0.5,5.4,0.6
				c3.3,0,6.1-0.5,8.2-1.4c1.8-0.8,4.5-3,7.9-6.5c1.7-1.8,3.3-3.4,4.6-5L240,1413.4z"/>
		</g>
	</g>
</g>
<g transform="matrix( 1, 0, 0, 1, 230,101.25) ">
	<g>
		<g id="Layer1_63_MEMBER_3_FILL">
			<path class="st13" d="M-150.9,97.1l-12.1,9l32.2,42.4c1.2,1.7,2.9,2.6,4.9,3c2,0.3,3.9-0.2,5.5-1.4c1.7-1.3,2.6-2.9,3-5
				c0.3-2-0.2-3.9-1.4-5.6L-150.9,97.1z"/>
		</g>
	</g>
</g>
<g transform="matrix( 1, 0, 0, 1, 230,101.25) ">
	<g>
		<g id="Layer1_63_MEMBER_4_FILL">
			<path class="st6" d="M-163,105.9l3.4,4.4l11.8-9.1l-3.5-4.4L-163,105.9z"/>
		</g>
	</g>
</g>
<g transform="matrix( 1, 0, 0, 1, 0,0) ">
	<g>
		<g id="Layer1_64_FILL">
			<path class="st11" d="M254.9,270.8c-1.4-0.3-2.3-0.1-2.7,0.8l-12.9,28.9c-0.4,0.9,0.1,1.5,1.5,1.8l33.3,7.6
				c1.4,0.3,2.3,0.1,2.7-0.9l12.9-28.8c0.4-0.9-0.1-1.5-1.6-1.8L254.9,270.8 M269.9,280.8c0.2-0.1,0.4-0.1,0.6-0.1l11.2,2.3
				c0.2,0.1,0.4,0.2,0.5,0.3c0.1,0.2,0.2,0.4,0.1,0.6c0,0.2-0.1,0.4-0.3,0.5c-0.2,0.1-0.4,0.2-0.6,0.1l-11.2-2.3
				c-0.2,0-0.4-0.1-0.5-0.3c-0.1-0.2-0.1-0.4-0.1-0.6C269.6,281.1,269.7,280.9,269.9,280.8 M260.7,296.4c0.2-0.1,0.4-0.2,0.6-0.1
				c1.1,0.3,6.4,1.5,16.1,3.7c0.2,0.1,0.4,0.2,0.5,0.3c0.1,0.2,0.1,0.4,0.1,0.6s-0.2,0.4-0.4,0.5c-0.2,0.1-0.4,0.1-0.6,0.1
				c-9.7-2.2-15-3.4-16.1-3.7c-0.2,0-0.4-0.2-0.5-0.3c-0.1-0.2-0.2-0.4-0.1-0.6C260.4,296.6,260.5,296.5,260.7,296.4 M277.4,291.6
				c0.2,0.1,0.4,0.2,0.5,0.4c0.1,0.2,0.1,0.4,0.1,0.6c-0.1,0.2-0.2,0.4-0.4,0.5c-0.2,0.1-0.4,0.1-0.6,0.1l-9.4-2.7
				c-0.2,0-0.3-0.2-0.5-0.3c-0.1-0.2-0.1-0.4,0-0.6s0.2-0.3,0.3-0.5c0.2-0.1,0.4-0.1,0.6-0.1L277.4,291.6 M272.7,304.6
				c0.2,0.1,0.4,0.2,0.5,0.4s0.1,0.4,0.1,0.6c0,0.2-0.2,0.4-0.4,0.5c-0.2,0.1-0.4,0.1-0.6,0.1l-9.8-2.6c-0.2,0-0.4-0.2-0.5-0.3
				c-0.1-0.2-0.2-0.4-0.1-0.6c0.1-0.2,0.2-0.4,0.4-0.5c0.2-0.1,0.4-0.2,0.6-0.1L272.7,304.6z"/>
			<path class="st27" d="M273.2,305c-0.1-0.2-0.3-0.3-0.5-0.4l-9.8-2.6c-0.2,0-0.4,0-0.6,0.1s-0.3,0.3-0.4,0.5c0,0.2,0,0.4,0.1,0.6
				c0.1,0.2,0.3,0.3,0.5,0.3l9.8,2.6c0.2,0.1,0.4,0,0.6-0.1s0.3-0.3,0.4-0.5C273.3,305.3,273.3,305.1,273.2,305 M277.9,292
				c-0.1-0.2-0.2-0.3-0.5-0.4l-9.4-2.7c-0.2,0-0.4,0-0.6,0.1s-0.3,0.3-0.3,0.5c-0.1,0.2,0,0.4,0,0.6c0.1,0.2,0.3,0.3,0.5,0.3
				l9.4,2.7c0.2,0.1,0.4,0,0.6-0.1s0.3-0.2,0.4-0.5C278,292.4,278,292.2,277.9,292 M261.3,296.3c-0.2,0-0.4,0-0.6,0.1
				s-0.3,0.3-0.3,0.5s0,0.4,0.1,0.6s0.3,0.3,0.5,0.3c1.1,0.3,6.4,1.5,16.1,3.7c0.2,0.1,0.4,0,0.6-0.1s0.3-0.3,0.4-0.5s0-0.4-0.1-0.6
				s-0.3-0.3-0.5-0.3C267.7,297.8,262.3,296.5,261.3,296.3 M270.5,280.8c-0.2,0-0.4,0-0.6,0.1s-0.3,0.3-0.3,0.5s0,0.4,0.1,0.6
				s0.3,0.3,0.5,0.3l11.2,2.3c0.2,0.1,0.4,0,0.6-0.1s0.3-0.3,0.3-0.5c0.1-0.2,0-0.4-0.1-0.6s-0.3-0.3-0.5-0.3L270.5,280.8z"/>
		</g>
	</g>
</g>
<g transform="matrix( 1, 0, 0, 1, 0,0) ">
	<g>
		<g id="Layer1_65_FILL">
			<path class="st35" d="M237.8,314.8c-0.2,0-0.5,0-0.9-0.2l0,0l-4.5-1.4l0,0c-0.4-0.1-0.6-0.1-0.9,0.1l-0.9,1.3
				c0.1,0,0.1,0.1,0.2,0.1l0,0l2.9,0.9l0,0c0.7,0.2,1.1,0.5,1.2,0.8c0.3,0.4,0.2,0.9-0.2,1.5l0,0l-3.8,5.5l0,0
				c-0.5,0.9-1.4,1.1-2.6,0.7l0,0l-2-0.7c0,0-0.1,0-0.2,0c-0.1,0-0.1,0-0.2-0.1l-0.3-0.1l0,0c-0.1,0-0.2-0.1-0.3-0.1
				c-0.3-0.2-0.6-0.4-0.7-0.7l0,0c-0.1-0.2-0.2-0.5-0.2-0.7c0-0.1,0-0.1-0.1-0.2c0-0.2,0-0.4,0.1-0.6l2.6-3.8l0.1-0.1l0,0l3.1-4.6
				c0.2-0.3,0.4-0.5,0.7-0.6l-17.6-5.7c-1.7-0.6-3-0.3-3.8,0.9l-9,13.1c-0.8,1.2-0.4,2,1.4,2.6l27.3,8.8c1.7,0.6,3,0.3,3.8-0.9
				l9-13.1c0.8-1.2,0.3-2.1-1.4-2.6l-2.2-0.7c0,0.1-0.1,0.2-0.2,0.3C238.2,314.6,238,314.8,237.8,314.8 M219.5,316.6
				c-0.2,0.1-0.4,0.1-0.6,0l-9.6-3.1c-0.2-0.1-0.4-0.2-0.5-0.4s-0.1-0.4,0-0.6c0.1-0.2,0.2-0.4,0.4-0.5s0.4-0.1,0.6,0l9.6,3.1
				c0.2,0.1,0.4,0.2,0.5,0.4s0.1,0.4,0,0.6C219.8,316.5,219.6,316.5,219.5,316.6 M224.6,315.6c-0.2,0.1-0.4,0.1-0.6,0l-13.3-4.3
				c-0.2-0.1-0.4-0.2-0.5-0.4s-0.1-0.4,0-0.6c0.1-0.2,0.2-0.4,0.4-0.5s0.4-0.1,0.6,0l13.3,4.3c0.2,0.1,0.4,0.2,0.5,0.4
				s0.1,0.4,0,0.6C225,315.5,224.8,315.5,224.6,315.6 M220.4,321.1c0.1,0.2,0.1,0.4,0,0.6c-0.1,0.2-0.2,0.4-0.4,0.5s-0.4,0.1-0.6,0
				l-12.8-4.1c-0.2-0.1-0.4-0.2-0.5-0.4s-0.1-0.4,0-0.6c0.1-0.2,0.2-0.4,0.4-0.5s0.4-0.1,0.6,0l12.8,4.1
				C220.2,320.8,220.3,321,220.4,321.1 M204.7,320c-0.1-0.2-0.1-0.4,0-0.6c0.1-0.2,0.2-0.4,0.4-0.5s0.4-0.1,0.6,0l10.5,3.4
				c0.2,0.1,0.4,0.2,0.5,0.4s0.1,0.4,0,0.6c-0.1,0.2-0.2,0.4-0.4,0.5s-0.4,0.1-0.6,0l-10.5-3.4C205,320.2,204.8,320.1,204.7,320
				 M229.5,318h-0.1c-0.1-0.1-0.3-0.1-0.5,0l0,0c-0.2,0.1-0.4,0.1-0.6,0.2l-2.2,3.2l0,0c0,0.2,0,0.3-0.1,0.5l0,0h0.1h0.1l0.5,0.1
				h0.1c0.1,0,0.2,0,0.3,0s0.1,0,0.2,0c0.1,0,0.2,0,0.2-0.1l0,0l2.6-3.7c0,0-0.1,0-0.2,0L229.5,318 M233.4,317.1c0,0-0.1,0-0.2,0
				l0,0l-2.9-0.9l0,0c-0.3-0.1-0.6-0.1-0.8,0.1l-0.1,0.1c0.1,0,0.3,0.1,0.4,0.1h-0.1l0.4,0.1h0.1c0.6,0.2,1,0.5,1.1,0.9
				c0.3,0.6,0.2,1-0.1,1.5l-2.6,3.8h0.1l0,0c0.4,0.1,0.6,0.1,0.8-0.1l0,0L233.4,317.1z"/>
			<path class="st21" d="M204.7,319.3c-0.1,0.2-0.1,0.4,0,0.6c0.1,0.2,0.3,0.3,0.5,0.4l10.5,3.4c0.2,0.1,0.4,0.1,0.6,0
				c0.2-0.1,0.3-0.3,0.4-0.5c0.1-0.2,0.1-0.4,0-0.6c-0.1-0.2-0.3-0.3-0.5-0.4l-10.5-3.4c-0.2-0.1-0.4-0.1-0.6,0
				C204.9,319,204.7,319.1,204.7,319.3 M220.5,321.8c0.1-0.2,0.1-0.4,0-0.6c-0.1-0.2-0.3-0.3-0.5-0.4l-12.8-4.1
				c-0.2-0.1-0.4-0.1-0.6,0c-0.2,0.1-0.3,0.3-0.4,0.5c-0.1,0.2-0.1,0.4,0,0.6c0.1,0.2,0.3,0.3,0.5,0.4l12.8,4.1
				c0.2,0.1,0.4,0.1,0.6,0C220.3,322.1,220.4,322,220.5,321.8 M224,315.8c0.2,0.1,0.4,0.1,0.6,0c0.2-0.1,0.3-0.3,0.4-0.5
				c0.1-0.2,0.1-0.4,0-0.6c-0.1-0.2-0.3-0.3-0.5-0.4l-13.3-4.3c-0.2-0.1-0.4-0.1-0.6,0c-0.2,0.1-0.3,0.3-0.4,0.5
				c-0.1,0.2-0.1,0.4,0,0.6c0.1,0.2,0.3,0.3,0.5,0.4L224,315.8 M218.9,316.8c0.2,0.1,0.4,0.1,0.6,0c0.2-0.1,0.3-0.3,0.4-0.5
				c0.1-0.2,0.1-0.4,0-0.6c-0.1-0.2-0.3-0.3-0.5-0.4l-9.6-3.1c-0.2-0.1-0.4-0.1-0.6,0c-0.2,0.1-0.3,0.3-0.4,0.5
				c-0.1,0.2-0.1,0.4,0,0.6c0.1,0.2,0.3,0.3,0.5,0.4L218.9,316.8 M237.8,313.2c-0.1,0-0.2,0-0.4-0.1l0,0l-4.5-1.4l0,0
				c-0.8-0.3-1.5-0.2-2,0.1c-0.2,0.2-0.5,0.4-0.7,0.6l-3.1,4.6l0,0c0,0.1,0,0.1-0.1,0.1l-2.6,3.8c-0.1,0.2-0.1,0.4-0.1,0.6
				c0,0.1,0.1,0.1,0.1,0.2c0,0.2,0.1,0.5,0.2,0.7l0,0c0.2,0.3,0.4,0.5,0.7,0.7c0.1,0.1,0.2,0.1,0.3,0.1l0,0l0.3,0.1
				c0.1,0,0.1,0.1,0.2,0.1c0.1,0,0.1,0,0.2,0l2,0.7l0,0c1.2,0.4,2.1,0.1,2.6-0.7l0,0l3.8-5.5l0,0c0.4-0.6,0.4-1.1,0.2-1.5
				c-0.1-0.4-0.5-0.6-1.2-0.8l0,0l-2.9-0.9l0,0c0,0-0.1,0-0.2-0.1l0.9-1.3c0.2-0.2,0.5-0.2,0.9-0.1l0,0l4.5,1.4l0,0
				c0.3,0.1,0.6,0.2,0.9,0.2c0.2,0,0.4-0.1,0.5-0.2c0.1-0.1,0.2-0.2,0.2-0.3s0-0.2,0-0.2c0-0.2-0.1-0.4-0.2-0.5
				C238.2,313.2,238,313.2,237.8,313.2 M233.2,317.1c0.1,0,0.1,0,0.2,0l-3.8,5.4l0,0c-0.2,0.2-0.4,0.2-0.8,0.1l0,0h-0.1l2.6-3.8
				c0.4-0.4,0.4-0.9,0.1-1.5c-0.2-0.4-0.5-0.7-1.1-0.9h-0.1l-0.4-0.1h0.1c-0.1,0-0.2-0.1-0.4-0.1l0.1-0.1c0.2-0.2,0.5-0.2,0.8-0.1
				l0,0L233.2,317.1L233.2,317.1 M229.3,318h0.1l0.3,0.1c0.1,0,0.1,0,0.2,0l-2.6,3.7l0,0c0,0-0.1,0.1-0.2,0.1c-0.1,0-0.1,0-0.2,0
				c-0.1,0-0.2,0-0.3,0c0,0,0,0-0.1,0l-0.5-0.1c0,0,0,0-0.1,0c0,0,0,0-0.1,0l0,0c0.1-0.1,0.1-0.3,0.1-0.5l0,0l2.2-3.2
				c0.2-0.1,0.4-0.1,0.6-0.2l0,0C229,317.8,229.2,318,229.3,318z"/>
		</g>
	</g>
</g>
<g transform="matrix( 1, 0, 0, 1, 0,0) ">
	<g>
		<g id="Layer1_66_FILL">
			<path class="st21" d="M261.9,321.1L261.9,321.1c-0.1-0.2-0.3-0.3-0.5-0.3c-0.3,0-0.6,0-0.9,0l0,0l-4.9,0.7l0,0
				c-0.7,0.1-1.1,0.3-1.3,0.6l-0.1,0.1c-0.3,0.4-0.3,0.8-0.2,1.4l1,3.1v0.1c0,0.1,0.1,0.1,0.1,0.2l1.9,5.9c0.1,0.2,0.2,0.4,0.4,0.5
				h0.1c0.2,0.2,0.4,0.3,0.7,0.4l0,0c0.3,0.2,0.7,0.2,1.1,0.2c0.1,0,0.1,0,0.3,0l0.5-0.1l0,0l2.3-0.3l0,0c0.6-0.1,1.1-0.3,1.3-0.6
				c0.4-0.4,0.5-0.8,0.3-1.4l0,0l-2-6l0,0c-0.3-1-1.1-1.4-2.4-1.2l0,0l-3.1,0.5l0,0c-0.2,0-0.4,0.1-0.6,0.1l-0.6-1.8
				c0.1,0,0.2,0,0.3,0l0,0l4.9-0.7l0,0c0.2,0,0.3,0,0.4,0c0.2,0,0.4,0,0.6-0.2c0.2-0.1,0.3-0.3,0.3-0.5
				C262.1,321.5,262,321.2,261.9,321.1 M260.1,325.8L260.1,325.8c0.4,0,0.6,0,0.7,0.2l0,0l1.9,5.9c-0.1,0.1-0.2,0.1-0.4,0.1l0,0
				l-0.6,0.1c0-0.1,0-0.1,0-0.2l0,0l-1.4-4.1l0,0c-0.1-0.5-0.5-0.8-1-1.1l0,0c-0.4-0.2-0.8-0.2-1.3-0.1l0,0h-0.4l0,0
				c-0.3,0-0.6,0.1-0.8,0.2l-0.1-0.3c0,0,0,0,0-0.1c0.1,0,0.2,0,0.3,0l0,0L260.1,325.8 M258.2,328.1c0.2,0,0.4,0,0.5,0l0,0
				c0.1,0,0.1,0.1,0.2,0.1l0,0l1.3,4v0.1l-0.1,0.1l0,0l0,0l-0.5,0.1c0,0-0.1,0-0.2,0s-0.2-0.1-0.3-0.1l0,0H259
				c0-0.2-0.2-0.4-0.3-0.5l0,0l-1-3.1c0.1-0.2,0.1-0.3,0-0.5l0,0l0,0c0.1,0,0.2-0.1,0.3-0.1l0,0L258.2,328.1L258.2,328.1z"/>
			<path class="st6" d="M258.8,328.1c-0.2-0.1-0.3-0.1-0.5,0l0,0h-0.4l0,0c-0.1,0-0.2,0-0.3,0.1l0,0l0,0c0.1,0.2,0,0.4,0,0.5l1,3.1
				l0,0c0.2,0.1,0.3,0.3,0.3,0.5h0.1l0,0c0.1,0.1,0.2,0.1,0.3,0.1c0.1,0,0.1,0,0.2,0l0.5-0.1l0,0l0,0c0.1,0,0.1,0,0.1-0.1
				c0,0,0,0,0-0.1L258.8,328.1L258.8,328.1C258.9,328.2,258.8,328.1,258.8,328.1L258.8,328.1 M260.1,325.8L260.1,325.8l-3.1,0.5l0,0
				c-0.1,0-0.2,0-0.3,0v0.1l0.1,0.3c0.2-0.1,0.5-0.2,0.8-0.2l0,0h0.4l0,0c0.5-0.1,0.9,0,1.3,0.1l0,0c0.6,0.3,0.9,0.6,1,1.1l0,0
				l1.4,4.1l0,0c0,0.1,0,0.2,0,0.2l0.6-0.1l0,0c0.2,0,0.3-0.1,0.4-0.1l-1.9-5.9l0,0C260.6,325.8,260.4,325.8,260.1,325.8
				 M235.1,325.2c-1.9,0.3-2.6,1.1-2.1,2.3l4.6,14.1c0.4,1.3,1.6,1.8,3.4,1.5l29.5-4.5c1.9-0.3,2.6-1.1,2.2-2.3l-4.7-14.1
				c-0.4-1.3-1.6-1.8-3.4-1.5l-2.6,0.4c0.1,0.2,0.2,0.4,0.2,0.6c0,0.2-0.1,0.4-0.3,0.5c-0.2,0.1-0.4,0.2-0.6,0.2c-0.1,0-0.2,0-0.4,0
				l0,0l-4.9,0.7l0,0c-0.1,0-0.2,0-0.3,0l0.6,1.8c0.2,0,0.4-0.1,0.6-0.1l0,0l3.1-0.5l0,0c1.3-0.2,2.1,0.2,2.4,1.2l0,0l2,6l0,0
				c0.2,0.6,0.1,1.1-0.3,1.4c-0.2,0.3-0.7,0.5-1.3,0.6l0,0l-2.3,0.3l0,0L260,334c-0.1,0-0.2,0-0.3,0c-0.4,0-0.8-0.1-1.1-0.2l0,0
				c-0.3-0.1-0.6-0.2-0.7-0.4h-0.1c-0.2-0.1-0.3-0.3-0.4-0.5l-1.9-5.9c0,0-0.1-0.1-0.1-0.2c0,0,0,0,0-0.1l-1-3.1
				c-0.2-0.6-0.1-1,0.2-1.4L235.1,325.2 M237.5,330.6c-0.2,0-0.4,0-0.6-0.2c-0.2-0.1-0.3-0.3-0.3-0.5s0-0.4,0.2-0.6
				c0.1-0.2,0.3-0.3,0.5-0.3l14.3-2.2c0.2,0,0.4,0,0.5,0.2c0.2,0.1,0.3,0.3,0.3,0.5s0,0.4-0.1,0.5c-0.1,0.2-0.3,0.3-0.5,0.3
				L237.5,330.6 M237.5,331.8c0.1-0.2,0.3-0.3,0.5-0.3l10.4-1.6c0.2,0,0.4,0,0.6,0.2c0.2,0.1,0.3,0.3,0.3,0.5s0,0.4-0.1,0.6
				c-0.1,0.2-0.3,0.3-0.5,0.3l-10.4,1.6c-0.2,0-0.4,0-0.6-0.2c-0.2-0.1-0.3-0.3-0.3-0.5C237.3,332.1,237.3,332,237.5,331.8
				 M240.1,339.3c0-0.2,0-0.4,0.2-0.6c0.1-0.2,0.3-0.3,0.5-0.3l11.4-1.7c0.2,0,0.4,0,0.6,0.2c0.2,0.1,0.3,0.3,0.3,0.5s0,0.4-0.1,0.6
				c-0.1,0.2-0.3,0.3-0.5,0.3l-11.4,1.7c-0.2,0-0.4,0-0.6-0.2C240.3,339.8,240.2,339.5,240.1,339.3 M240.3,337.6
				c-0.2,0-0.4,0-0.6-0.2c-0.2-0.1-0.3-0.3-0.3-0.5s0-0.4,0.2-0.6c0.1-0.2,0.3-0.3,0.5-0.3l13.8-2.1c0.2,0,0.4,0,0.6,0.2
				c0.2,0.1,0.3,0.3,0.3,0.5s0,0.4-0.2,0.6c-0.1,0.2-0.3,0.3-0.5,0.3L240.3,337.6z"/>
			<path class="st36" d="M239.7,337.5c0.2,0.1,0.4,0.2,0.6,0.2l13.8-2.1c0.2,0,0.4-0.1,0.5-0.3s0.2-0.4,0.2-0.6
				c0-0.2-0.1-0.4-0.3-0.5s-0.4-0.2-0.6-0.2l-13.8,2.1c-0.2,0-0.4,0.1-0.5,0.3s-0.2,0.4-0.2,0.6S239.5,337.3,239.7,337.5
				 M240.3,338.8c-0.1,0.2-0.2,0.4-0.2,0.6c0,0.2,0.1,0.4,0.3,0.5s0.4,0.2,0.6,0.2l11.4-1.7c0.2,0,0.4-0.1,0.5-0.3s0.2-0.4,0.1-0.6
				c0-0.2-0.1-0.4-0.3-0.5s-0.4-0.2-0.6-0.2l-11.4,1.7C240.6,338.5,240.4,338.6,240.3,338.8 M238,331.5c-0.2,0-0.4,0.1-0.5,0.3
				s-0.2,0.4-0.2,0.6c0,0.2,0.1,0.4,0.3,0.5s0.4,0.2,0.6,0.2l10.4-1.6c0.2,0,0.4-0.1,0.5-0.3s0.2-0.4,0.1-0.6c0-0.2-0.1-0.4-0.3-0.5
				s-0.4-0.2-0.6-0.2L238,331.5 M236.9,330.5c0.2,0.1,0.4,0.2,0.6,0.2l14.3-2.2c0.2,0,0.4-0.2,0.5-0.3c0.1-0.2,0.2-0.3,0.1-0.5
				c0-0.2-0.1-0.4-0.3-0.5s-0.3-0.2-0.5-0.2l-14.3,2.2c-0.2,0-0.4,0.1-0.5,0.3s-0.2,0.4-0.2,0.6
				C236.7,330.1,236.8,330.3,236.9,330.5z"/>
		</g>
	</g>
</g>
<g transform="matrix( 1, 0, 0, 1, 0,0) ">
	<g>
		<g id="Layer1_67_FILL">
			<path class="st11" d="M181.7,277.2L156,297.4c-1.1,0.9-1,1.7,0.2,2.4l40,25.5c1.2,0.8,2.4,0.7,3.5-0.1l25.6-20.2
				c1.1-0.9,1-1.7-0.2-2.4l-40-25.5C183.9,276.3,182.8,276.3,181.7,277.2 M169.2,300c-0.2,0-0.4-0.1-0.5-0.3
				c-0.1-0.2-0.1-0.4-0.1-0.6s0.2-0.4,0.3-0.5l7.3-5.2c0.2-0.1,0.4-0.1,0.6-0.1c0.2,0,0.4,0.2,0.5,0.3c0.1,0.2,0.2,0.4,0.1,0.6
				c0,0.2-0.1,0.4-0.3,0.5l-7.3,5.2C169.6,300,169.4,300.1,169.2,300 M171.6,301.2c0-0.2,0.1-0.4,0.3-0.5c1.5-1.3,3.6-3,6.4-5
				c2.5-1.9,4.1-3,4.7-3.3c0.2-0.1,0.4-0.1,0.6,0c0.2,0.1,0.4,0.2,0.5,0.3c0.1,0.2,0.1,0.4,0.1,0.6c-0.1,0.2-0.2,0.4-0.4,0.5
				c-0.6,0.3-2.1,1.4-4.5,3.2c-2.8,2-4.9,3.7-6.3,4.9c-0.2,0.1-0.4,0.2-0.6,0.2c-0.2,0-0.4-0.1-0.5-0.3
				C171.7,301.6,171.6,301.5,171.6,301.2 M196.1,300.9c0,0.2-0.1,0.4-0.3,0.5l-9.4,7.8c-0.2,0.1-0.3,0.2-0.5,0.2s-0.4-0.1-0.5-0.3
				s-0.2-0.3-0.2-0.5s0.1-0.4,0.3-0.5l9.4-7.8c0.2-0.1,0.4-0.2,0.6-0.2c0.2,0,0.4,0.1,0.5,0.3C196,300.5,196.1,300.8,196.1,300.9
				 M186.5,301.2c0.2-0.1,0.4-0.1,0.6-0.1c0.2,0,0.4,0.2,0.5,0.3c0.1,0.2,0.2,0.4,0.1,0.6c0,0.2-0.1,0.4-0.3,0.5
				c-1.4,1-2.4,1.8-3.1,2.4l0,0c-0.6,0.5-0.9,0.8-1.2,0.8c-0.2,0.1-0.4,0.1-0.6,0c-0.2-0.1-0.3-0.3-0.4-0.5c-0.1-0.2-0.1-0.4,0-0.6
				c0.1-0.2,0.2-0.3,0.4-0.4c0.1-0.1,0.3-0.2,0.7-0.5l0,0C184,303,185.1,302.2,186.5,301.2 M203.9,298.8c0,0.2-0.1,0.4-0.3,0.5
				l-18.7,14.5c-0.2,0.1-0.4,0.2-0.6,0.2c-0.2,0-0.4-0.1-0.5-0.3s-0.2-0.4-0.2-0.6c0-0.2,0.1-0.4,0.3-0.5l18.7-14.5
				c0.2-0.1,0.4-0.2,0.6-0.2c0.2,0,0.4,0.1,0.5,0.3S203.9,298.6,203.9,298.8z"/>
			<path class="st27" d="M203.6,299.4c0.2-0.1,0.3-0.3,0.3-0.5s0-0.4-0.2-0.5c-0.1-0.2-0.3-0.3-0.5-0.3s-0.4,0-0.6,0.2l-18.7,14.5
				c-0.2,0.1-0.2,0.3-0.3,0.5c0,0.2,0,0.4,0.2,0.6c0.1,0.2,0.3,0.3,0.5,0.3s0.4,0,0.6-0.2L203.6,299.4 M187.1,301
				c-0.2,0-0.4,0-0.6,0.1c-1.4,1-2.5,1.9-3.3,2.5l0,0c-0.3,0.3-0.5,0.4-0.7,0.5s-0.3,0.2-0.4,0.4c-0.1,0.2-0.1,0.4,0,0.6
				c0.1,0.2,0.2,0.4,0.4,0.5s0.4,0.1,0.6,0c0.2,0,0.6-0.3,1.2-0.8l0,0c0.7-0.6,1.8-1.4,3.1-2.4c0.2-0.1,0.3-0.3,0.3-0.5
				c0.1-0.2,0-0.4-0.1-0.6C187.5,301.2,187.3,301.1,187.1,301 M195.8,301.4c0.2-0.1,0.3-0.3,0.3-0.5s0-0.4-0.2-0.6
				c-0.1-0.2-0.3-0.2-0.5-0.3c-0.2,0-0.4,0-0.6,0.2l-9.4,7.8c-0.2,0.2-0.2,0.3-0.3,0.5c0,0.2,0,0.4,0.2,0.5c0.2,0.2,0.3,0.3,0.5,0.3
				s0.4,0,0.5-0.2L195.8,301.4 M171.9,300.8c-0.2,0.1-0.3,0.3-0.3,0.5s0.1,0.4,0.2,0.6c0.1,0.2,0.3,0.3,0.5,0.3s0.4-0.1,0.6-0.2
				c1.4-1.3,3.5-2.9,6.3-4.9c2.4-1.8,3.9-2.9,4.5-3.2c0.2-0.1,0.3-0.2,0.4-0.5c0.1-0.2,0-0.4-0.1-0.6s-0.2-0.3-0.5-0.3
				c-0.2-0.1-0.4,0-0.6,0c-0.6,0.4-2.2,1.5-4.7,3.3C175.5,297.8,173.4,299.4,171.9,300.8 M168.7,299.8c0.1,0.2,0.3,0.3,0.5,0.3
				c0.2,0.1,0.4,0,0.6-0.1l7.3-5.2c0.2-0.1,0.3-0.3,0.3-0.5c0.1-0.2,0-0.4-0.1-0.6s-0.3-0.3-0.5-0.3s-0.4,0-0.6,0.1l-7.3,5.2
				c-0.2,0.1-0.3,0.3-0.3,0.5C168.5,299.4,168.6,299.5,168.7,299.8z"/>
		</g>
	</g>
</g>
<g transform="matrix( 1, 0, 0, 1, 0,0) ">
	<g>
		<g id="Layer1_68_FILL">
			<path class="st29" d="M323.1,282.6l-2.4-0.7c-0.3-0.1-0.6-0.1-0.9,0.1s-0.5,0.4-0.6,0.7c-0.1,0.3-0.1,0.6,0.1,0.9
				s0.4,0.5,0.7,0.5l2.3,0.7l2.9,0.9c0.3,0.1,0.6,0.1,0.9-0.1c0.3-0.1,0.5-0.4,0.5-0.7c0.1-0.3,0.1-0.6-0.1-0.9
				c-0.1-0.3-0.4-0.5-0.7-0.6L323.1,282.6 M297.7,272.6c-0.5-0.2-1-0.1-1.6,0.2c-0.1,0.1-0.2,0.1-0.3,0.2c-0.3,0.2-0.5,0.5-0.7,0.9
				l-0.5,1.7c-0.2,0.5-0.1,1.1,0.1,1.6c0.1,0.1,0.1,0.1,0.1,0.2c0.3,0.4,0.6,0.6,1.1,0.8c0.4,0.2,0.9,0.2,1.3,0
				c0.1-0.1,0.2-0.1,0.2-0.1c0.5-0.3,0.8-0.7,1-1.2l0.5-1.7c0.1-0.4,0.1-0.8,0-1.2c-0.1-0.1-0.1-0.2-0.2-0.3
				C298.6,273.1,298.2,272.8,297.7,272.6z"/>
			<path class="st37" d="M297.5,278.1l-0.1,0.1l22.8,7c0.6,0.2,1.1,0.2,1.7-0.2c0.1-0.1,0.3-0.2,0.4-0.3L320,284
				c-0.3-0.1-0.5-0.3-0.7-0.5c-0.1-0.3-0.2-0.6-0.1-0.9s0.3-0.5,0.6-0.7c0.3-0.1,0.6-0.2,0.9-0.1l2.4,0.7c0-0.2-0.1-0.4-0.2-0.6
				c-0.3-0.5-0.7-0.9-1.3-1L299,274c0.1,0.4,0.1,0.8,0,1.2l-0.5,1.7C298.3,277.4,298,277.8,297.5,278.1 M285.5,272.1L285.5,272.1
				c-0.2,0.6-0.1,1.2,0.1,1.7c0.3,0.5,0.8,0.9,1.3,1.1l7.8,2.4v-0.2c-0.3-0.5-0.3-1-0.1-1.6l0.5-1.7c0.1-0.4,0.4-0.7,0.7-0.9
				l-7.6-2.3c-0.6-0.2-1.2-0.1-1.7,0.2C286,271.1,285.6,271.6,285.5,272.1z"/>
			<path class="st28" d="M294.8,277.2v0.2h0.2C294.9,277.3,294.8,277.3,294.8,277.2 M297.5,278.2l0.1-0.1c-0.1,0-0.2,0.1-0.2,0.1
				H297.5z"/>
		</g>
	</g>
</g>
<g transform="matrix( 1, 0, 0, 1, 0,0) ">
	<g>
		<g id="Layer1_69_MEMBER_0_FILL">
			<path class="st0" d="M204.4,275c0,1.3,1.2,2.4,3.6,3.3c2.4,0.9,5.4,1.4,8.8,1.4s6.4-0.5,8.8-1.4c2.4-0.9,3.7-2,3.7-3.3
				s-1.2-2.4-3.7-3.3c-2.4-0.9-5.3-1.4-8.8-1.4s-6.4,0.5-8.8,1.4C205.6,272.6,204.4,273.8,204.4,275z"/>
		</g>
	</g>
</g>
<g transform="matrix( 1, 0, 0, 1, 0,0) ">
	<g>
		<g id="Layer1_69_MEMBER_1_FILL">
			<path class="st38" d="M207.9,273.2c0,1.3,1.2,2.4,3.6,3.3c2.4,0.9,5.4,1.4,8.8,1.4c3.4,0,6.4-0.5,8.8-1.4c2.4-0.9,3.7-2,3.7-3.3
				s-1.2-2.4-3.7-3.3c-2.4-0.9-5.3-1.4-8.8-1.4c-3.4,0-6.4,0.5-8.8,1.4C209.2,270.8,207.9,271.9,207.9,273.2z"/>
		</g>
	</g>
</g>
<g transform="matrix( 1, 0, 0, 1, 0,0) ">
	<g>
		<g id="Layer1_69_MEMBER_2_FILL">
			<path class="st11" d="M207.9,271.9c0,1.3,1.2,2.4,3.6,3.3c2.4,0.9,5.4,1.4,8.8,1.4c3.4,0,6.4-0.5,8.8-1.4c2.4-0.9,3.7-2,3.7-3.3
				s-1.2-2.4-3.7-3.3c-2.4-0.9-5.3-1.4-8.8-1.4c-3.4,0-6.4,0.5-8.8,1.4C209.2,269.5,207.9,270.6,207.9,271.9z"/>
		</g>
	</g>
</g>
<g transform="matrix( 1, 0, 0, 1, 0,0) ">
	<g>
		<g id="Layer1_69_MEMBER_3_FILL">
			<path class="st38" d="M214.8,271.3c0,0.6,0.6,1.1,1.7,1.5c1.2,0.4,2.6,0.6,4.3,0.6s3.1-0.2,4.2-0.6c1.2-0.4,1.8-0.9,1.8-1.5
				s-0.6-1.1-1.8-1.5c-1.1-0.4-2.5-0.6-4.2-0.6s-3.1,0.2-4.3,0.6C215.3,270.2,214.8,270.8,214.8,271.3z"/>
		</g>
	</g>
</g>
<g transform="matrix( 1, 0, 0, 1, 0,0) ">
	<g>
		<g id="Layer1_69_MEMBER_4_FILL">
			<path class="st15" d="M230.1,262c0-0.8-0.1-1.5-0.2-2.1c-6.2-2-12.4-2-18.6,0c-0.2,0.7-0.2,1.4-0.2,2.1c0,2.7,0.9,5.1,2.8,7
				c1.9,1.9,4.1,2.9,6.7,2.9c2.6,0,4.9-1,6.7-2.9C229.2,267,230.1,264.8,230.1,262 M228.9,261.4c0,0.3-0.2,0.5-0.6,0.8
				c-0.4,0.2-1,0.4-1.8,0.6c-1.6,0.4-3.5,0.6-5.8,0.6s-4.2-0.2-5.8-0.6c-0.8-0.2-1.3-0.4-1.7-0.6s-0.7-0.5-0.7-0.8
				c0-0.5,0.8-1,2.4-1.4c1.6-0.4,3.5-0.5,5.8-0.5s4.2,0.2,5.8,0.5C228.1,260.4,228.9,260.8,228.9,261.4z"/>
			<path class="st0" d="M228.3,262.2c0.4-0.2,0.6-0.5,0.6-0.8c0-0.5-0.8-1-2.4-1.4c-1.6-0.4-3.5-0.5-5.8-0.5s-4.2,0.2-5.8,0.5
				c-1.6,0.4-2.4,0.9-2.4,1.4c0,0.3,0.2,0.5,0.7,0.8c0.4,0.2,1,0.4,1.7,0.6c1.6,0.4,3.5,0.6,5.8,0.6s4.2-0.2,5.8-0.6
				C227.3,262.6,227.9,262.4,228.3,262.2z"/>
		</g>
	</g>
</g>
<g transform="matrix( 1, 0, 0, 1, 0,0) ">
	<g>
		<g id="Layer1_69_MEMBER_4_MEMBER_0_FILL">
			<path class="st15" d="M209.7,268.6c0.7,0.4,1.4,0.5,2.2,0.3s1.3-0.5,1.7-1.1h-0.2c-0.6,0.2-1.2,0.1-1.7-0.3
				c-0.5-0.3-0.9-0.8-1-1.4c-0.2-0.6-0.1-1.3,0.2-1.8s0.8-0.8,1.2-1c-0.5-0.2-1.1-0.2-1.7,0c-0.8,0.2-1.4,0.6-1.7,1.3
				c-0.4,0.7-0.5,1.4-0.3,2.2C208.6,267.6,209.1,268.2,209.7,268.6z"/>
		</g>
	</g>
</g>
<g transform="matrix( 1, 0, 0, 1, 0,0) ">
	<g>
		<g id="Layer1_70_MEMBER_0_FILL">
			<path class="st0" d="M450.8,315.6c3.2-1.2,4.8-2.6,4.8-4.3s-1.6-3.2-4.8-4.4c-3.2-1.2-7-1.8-11.5-1.8s-8.4,0.6-11.5,1.8
				s-4.7,2.6-4.7,4.4c0,1.7,1.6,3.1,4.7,4.3c3.2,1.2,7,1.8,11.5,1.8S447.7,316.8,450.8,315.6z"/>
		</g>
	</g>
</g>
<g transform="matrix( 1, 0, 0, 1, 0,0) ">
	<g>
		<g id="Layer1_70_MEMBER_1_FILL">
			<path class="st38" d="M455.5,313.3c3.2-1.2,4.8-2.6,4.8-4.3s-1.6-3.2-4.8-4.4c-3.2-1.2-7-1.7-11.5-1.7s-8.4,0.6-11.5,1.7
				c-3.1,1.2-4.7,2.6-4.7,4.4c0,1.7,1.6,3.1,4.7,4.3c3.2,1.2,7,1.8,11.5,1.8S452.3,314.5,455.5,313.3z"/>
		</g>
	</g>
</g>
<g transform="matrix( 1, 0, 0, 1, 0,0) ">
	<g>
		<g id="Layer1_70_MEMBER_2_FILL">
			<path class="st11" d="M455.5,311.5c3.2-1.2,4.8-2.6,4.8-4.3s-1.6-3.1-4.8-4.3c-3.2-1.2-7-1.8-11.5-1.8s-8.4,0.6-11.5,1.8
				s-4.7,2.6-4.7,4.3s1.6,3.1,4.7,4.3c3.2,1.2,7,1.8,11.5,1.8S452.3,312.8,455.5,311.5z"/>
		</g>
	</g>
</g>
<g transform="matrix( 1, 0, 0, 1, 0,0) ">
	<g>
		<g id="Layer1_70_MEMBER_3_FILL">
			<path class="st38" d="M449.9,308.5c1.6-0.5,2.4-1.2,2.4-2s-0.8-1.5-2.4-2c-1.5-0.5-3.3-0.8-5.5-0.8s-4,0.3-5.6,0.8
				c-1.5,0.5-2.2,1.2-2.2,2s0.7,1.4,2.2,2c1.6,0.5,3.4,0.8,5.6,0.8S448.4,309,449.9,308.5z"/>
		</g>
	</g>
</g>
<g transform="matrix( 1, 0, 0, 1, 0,0) ">
	<g>
		<g id="Layer1_70_MEMBER_4_FILL">
			<path class="st15" d="M432.1,291.4c-0.2,0.9-0.3,1.8-0.3,2.8c0,3.6,1.2,6.7,3.7,9.2c2.4,2.5,5.4,3.8,8.8,3.8s6.4-1.3,8.8-3.8
				s3.7-5.6,3.7-9.2c0-1-0.1-1.9-0.2-2.8C448.3,288.8,440.2,288.8,432.1,291.4 M436.9,295.2c-1-0.2-1.7-0.5-2.2-0.7
				c-0.6-0.3-0.9-0.6-0.9-1c0-0.7,1-1.3,3.1-1.9c2.1-0.5,4.7-0.7,7.6-0.7c3,0,5.5,0.2,7.5,0.7c2.1,0.5,3.1,1.1,3.1,1.9
				c0,0.4-0.3,0.7-0.8,1s-1.3,0.5-2.3,0.7c-2.1,0.5-4.6,0.8-7.5,0.8C441.5,296,439,295.8,436.9,295.2z"/>
			<path class="st0" d="M434.7,294.5c0.5,0.3,1.3,0.5,2.2,0.7c2.1,0.5,4.7,0.8,7.6,0.8c3,0,5.5-0.3,7.5-0.8c1-0.2,1.8-0.5,2.3-0.7
				c0.5-0.3,0.8-0.6,0.8-1c0-0.7-1-1.3-3.1-1.9c-2.1-0.5-4.6-0.7-7.5-0.7s-5.5,0.2-7.6,0.7c-2,0.5-3.1,1.1-3.1,1.9
				C433.8,293.8,434.1,294.2,434.7,294.5z"/>
		</g>
	</g>
</g>
<g transform="matrix( 1, 0, 0, 1, 0,0) ">
	<g>
		<g id="Layer1_70_MEMBER_4_MEMBER_0_FILL">
			<path class="st15" d="M428.8,297.8c-0.5,0.9-0.7,1.9-0.5,2.9c0.3,1,0.9,1.8,1.7,2.4c0.9,0.5,1.9,0.7,2.8,0.3
				c1-0.2,1.7-0.6,2.3-1.4h-0.2c-0.8,0.2-1.5,0.1-2.3-0.4c-0.7-0.4-1.2-1-1.4-1.8c-0.2-0.9-0.1-1.7,0.3-2.4c0.4-0.6,1-1.1,1.6-1.3
				c-0.7-0.2-1.4-0.2-2.2,0C430,296.2,429.3,296.8,428.8,297.8z"/>
		</g>
	</g>
</g>
<g transform="matrix( 1, 0, 0, 1, 0,0) ">
	<g>
		<g id="Layer1_71_MEMBER_0_FILL">
			<path class="st0" d="M374.8,278.3c2.4-0.9,3.7-2,3.7-3.3s-1.2-2.4-3.7-3.3c-2.4-0.9-5.3-1.4-8.8-1.4c-3.4,0-6.4,0.5-8.8,1.4
				s-3.6,2-3.6,3.3s1.2,2.4,3.6,3.3s5.4,1.4,8.8,1.4C369.4,279.6,372.3,279.2,374.8,278.3z"/>
		</g>
	</g>
</g>
<g transform="matrix( 1, 0, 0, 1, 0,0) ">
	<g>
		<g id="Layer1_71_MEMBER_1_FILL">
			<path class="st38" d="M378.3,276.5c2.4-0.9,3.7-2,3.7-3.3s-1.2-2.4-3.7-3.3c-2.4-0.9-5.3-1.4-8.8-1.4c-3.4,0-6.4,0.5-8.8,1.4
				s-3.6,2-3.6,3.3s1.2,2.4,3.6,3.3s5.4,1.4,8.8,1.4C373,277.9,375.9,277.4,378.3,276.5z"/>
		</g>
	</g>
</g>
<g transform="matrix( 1, 0, 0, 1, 0,0) ">
	<g>
		<g id="Layer1_71_MEMBER_2_FILL">
			<path class="st11" d="M378.3,275.2c2.4-0.9,3.7-2,3.7-3.3s-1.2-2.4-3.7-3.3c-2.4-0.9-5.3-1.4-8.8-1.4c-3.4,0-6.4,0.5-8.8,1.4
				s-3.6,2-3.6,3.3s1.2,2.4,3.6,3.3s5.4,1.4,8.8,1.4C373,276.5,375.9,276.1,378.3,275.2z"/>
		</g>
	</g>
</g>
<g transform="matrix( 1, 0, 0, 1, 0,0) ">
	<g>
		<g id="Layer1_71_MEMBER_3_FILL">
			<path class="st38" d="M369.9,273.5c1.7,0,3.1-0.2,4.2-0.6c1.2-0.4,1.8-0.9,1.8-1.5s-0.6-1.1-1.8-1.5c-1.1-0.4-2.5-0.6-4.2-0.6
				s-3.1,0.2-4.3,0.6c-1.1,0.4-1.7,0.9-1.7,1.5s0.6,1.1,1.7,1.5C366.8,273.3,368.2,273.5,369.9,273.5z"/>
		</g>
	</g>
</g>
<g transform="matrix( 1, 0, 0, 1, 0,0) ">
	<g>
		<g id="Layer1_71_MEMBER_4_FILL">
			<path class="st15" d="M379.2,262c0-0.8-0.1-1.5-0.2-2.1c-6.2-2-12.4-2-18.6,0c-0.2,0.7-0.2,1.4-0.2,2.1c0,2.7,0.9,5.1,2.8,7
				s4.1,2.9,6.7,2.9s4.9-1,6.7-2.9C378.3,267,379.2,264.8,379.2,262 M378.1,261.4c0,0.3-0.2,0.5-0.6,0.8c-0.4,0.2-1,0.4-1.8,0.6
				c-1.6,0.4-3.5,0.6-5.8,0.6s-4.2-0.2-5.8-0.6c-0.8-0.2-1.3-0.4-1.7-0.6c-0.4-0.2-0.7-0.5-0.7-0.8c0-0.5,0.8-1,2.4-1.4
				s3.5-0.5,5.8-0.5s4.2,0.2,5.8,0.5C377.3,260.4,378.1,260.8,378.1,261.4z"/>
			<path class="st0" d="M377.4,262.2c0.4-0.2,0.6-0.5,0.6-0.8c0-0.5-0.8-1-2.4-1.4s-3.5-0.5-5.8-0.5s-4.2,0.2-5.8,0.5
				c-1.6,0.4-2.4,0.9-2.4,1.4c0,0.3,0.2,0.5,0.7,0.8c0.4,0.2,1,0.4,1.7,0.6c1.6,0.4,3.5,0.6,5.8,0.6s4.2-0.2,5.8-0.6
				C376.4,262.6,377,262.4,377.4,262.2z"/>
		</g>
	</g>
</g>
<g transform="matrix( 1, 0, 0, 1, 0,0) ">
	<g>
		<g id="Layer1_71_MEMBER_4_MEMBER_0_FILL">
			<path class="st15" d="M358.9,268.6c0.7,0.4,1.4,0.5,2.2,0.3c0.8-0.2,1.3-0.5,1.7-1.1h-0.2c-0.6,0.2-1.2,0.1-1.7-0.3
				c-0.5-0.3-0.9-0.8-1-1.4c-0.2-0.6-0.1-1.3,0.2-1.8c0.3-0.5,0.8-0.8,1.2-1c-0.5-0.2-1.1-0.2-1.7,0c-0.8,0.2-1.4,0.6-1.7,1.3
				c-0.4,0.7-0.5,1.4-0.3,2.2C357.7,267.6,358.2,268.2,358.9,268.6z"/>
		</g>
	</g>
</g>
<g transform="matrix( 0.83489990234375, 0.23126220703125, -0.231048583984375, 0.83465576171875, 679.05,51.85) ">
	<g>
		<g id="Layer1_72_MEMBER_0_MEMBER_0_FILL">
			<path class="st27" d="M-328.9,398.9c-2.3,0-4.3,0.8-5.9,2.4c-1.6,1.6-2.4,3.6-2.4,5.9s0.8,4.3,2.4,5.9c1.6,1.6,3.6,2.4,5.9,2.4
				h18.3c2.3,0,4.3-0.8,5.9-2.4c1.6-1.6,2.4-3.6,2.4-5.9c0-2.3-0.8-4.3-2.4-5.9c-1.6-1.6-3.6-2.4-5.9-2.4H-328.9z"/>
		</g>
	</g>
</g>
<g transform="matrix( 0.83489990234375, 0.23126220703125, -0.231048583984375, 0.83465576171875, 679.35,51.15) ">
	<g>
		<g id="Layer1_72_MEMBER_0_MEMBER_1_FILL">
			<path class="st38" d="M-304.3,407.8c0-1.8-0.6-3.3-1.8-4.5c-1.2-1.2-2.6-1.9-4.2-1.9c-1.7,0-3.1,0.6-4.3,1.9
				c-1.2,1.3-1.7,2.8-1.7,4.5s0.6,3.3,1.7,4.5c1.2,1.3,2.6,1.9,4.3,1.9c1.7,0,3.1-0.6,4.2-1.9C-304.9,411.1-304.3,409.6-304.3,407.8
				z"/>
		</g>
	</g>
</g>
<g transform="matrix( 0.9632568359375, 0.2664642333984375, -0.266326904296875, 0.963043212890625, 576.45,-27.95) ">
	<g>
		<g id="Layer1_72_MEMBER_1_MEMBER_0_FILL">
			<path class="st27" d="M-178.9,402.9c-2.3,0-4.3,0.8-5.9,2.4c-1.6,1.6-2.4,3.6-2.4,5.9s0.8,4.3,2.4,5.9c1.6,1.6,3.6,2.4,5.9,2.4
				l18.3,0c2.3,0,4.3-0.8,5.9-2.4c1.6-1.6,2.4-3.6,2.4-5.9c0-2.3-0.8-4.3-2.4-5.9c-1.6-1.6-3.6-2.4-5.9-2.4H-178.9z"/>
		</g>
	</g>
</g>
<g transform="matrix( 0.9632568359375, 0.2664642333984375, -0.266326904296875, 0.963043212890625, 576.65,-28.95) ">
	<g>
		<g id="Layer1_72_MEMBER_1_MEMBER_1_FILL">
			<path class="st38" d="M-154.2,411.8c0-1.8-0.6-3.3-1.8-4.5s-2.6-1.9-4.2-1.9c-1.7,0-3.1,0.6-4.3,1.9c-1.2,1.3-1.7,2.8-1.7,4.5
				s0.6,3.3,1.7,4.5c1.2,1.3,2.6,1.9,4.3,1.9c1.7,0,3.1-0.6,4.2-1.9C-154.8,415.1-154.2,413.6-154.2,411.8z"/>
		</g>
	</g>
</g>
<g transform="matrix( 0.9632568359375, 0.2664642333984375, -0.266326904296875, 0.963043212890625, 319.75,31.1) ">
	<g>
		<g id="Layer1_72_MEMBER_2_FILL">
			<path class="st11" d="M69.1,281.3c-0.2,0-0.4,0.1-0.5,0.2c-1,1.2-1.7,1.9-1.8,2.2c-0.2,0.3-0.3,1.2-0.3,2.6
				c0,0.6,0.1,1.1,0.2,1.3c0.1,0.3,0.3,0.8,0.7,1.4c0.1,0.2,0.3,0.3,0.5,0.4s0.4,0.1,0.6,0s0.3-0.3,0.4-0.5s0.1-0.4,0-0.6
				c-0.3-0.7-0.5-1-0.6-1c0-0.1,0-0.2-0.1-0.3c0-0.1,0-0.3,0-0.6c0-1,0-1.6,0.1-1.9c0.2-0.2,0.7-0.9,1.6-1.9
				c0.1-0.1,0.2-0.3,0.2-0.5s-0.1-0.4-0.3-0.5C69.5,281.3,69.3,281.3,69.1,281.3z"/>
		</g>
	</g>
</g>
<g transform="matrix( 0.9632568359375, 0.2664642333984375, -0.266326904296875, 0.963043212890625, 319.25,23.4) ">
	<g>
		<g id="Layer1_72_MEMBER_3_FILL">
			<path class="st11" d="M84.3,281.1c0.1-0.2,0.2-0.4,0.2-0.6s-0.1-0.4-0.3-0.5s-0.4-0.2-0.6-0.2c-0.2,0-0.4,0.1-0.5,0.3
				c-1.4,1.6-1.9,3.4-1.6,5.5l0,0c0.1,0.3,0.1,0.7,0.2,1c0.1,0.2,0.2,0.4,0.3,0.5c0.2,0.1,0.4,0.1,0.6,0.1c0.2,0,0.4-0.2,0.5-0.3
				c0.1-0.2,0.1-0.4,0.1-0.6c-0.1-0.3-0.1-0.6-0.2-0.9l0,0C82.9,283.7,83.2,282.3,84.3,281.1z"/>
		</g>
	</g>
</g>
<g transform="matrix( 0.9632568359375, 0.2664642333984375, -0.266326904296875, 0.963043212890625, 319.75,31.1) ">
	<g>
		<g id="Layer1_72_MEMBER_4_FILL">
			<path class="st38" d="M57.2,282.3c-0.1-0.2-0.3-0.2-0.5-0.2c-1.6,0-3.2-0.1-4.7-0.2c-1.6-0.1-2.6-0.2-3.1-0.2
				c-0.2,0-0.4,0.1-0.5,0.2c-0.2,0.1-0.2,0.3-0.2,0.5s0.1,0.4,0.2,0.5c0.1,0.2,0.3,0.2,0.5,0.2c0.5,0,1.4,0.1,3,0.2
				c1.6,0.1,3.2,0.2,4.8,0.2c0.2,0,0.4-0.1,0.5-0.2c0.2-0.1,0.2-0.3,0.2-0.5C57.5,282.6,57.4,282.4,57.2,282.3z"/>
		</g>
	</g>
</g>
<g transform="matrix( 0.9632568359375, 0.2664642333984375, -0.266326904296875, 0.963043212890625, 340.9,25.85) ">
	<g>
		<g id="Layer1_72_MEMBER_5_FILL">
			<path class="st38" d="M53,284.7c-0.1-0.2-0.3-0.2-0.5-0.2c-1.6,0-3.2-0.1-4.7-0.2c-1.6-0.1-2.6-0.2-3.1-0.2
				c-0.2,0-0.4,0.1-0.5,0.2c-0.2,0.1-0.2,0.3-0.2,0.5s0.1,0.4,0.2,0.5c0.1,0.2,0.3,0.2,0.5,0.2c0.5,0,1.4,0.1,3,0.2s3.2,0.2,4.8,0.2
				c0.2,0,0.4-0.1,0.5-0.2c0.2-0.1,0.2-0.3,0.2-0.5S53.2,284.8,53,284.7z"/>
		</g>
	</g>
</g>
<g transform="matrix( 1, 0, 0, 1, 0,0) ">
	<g>
		<g id="Layer1_73_FILL">
			<path class="st0" d="M172.2,338.2c3.1-0.9,4.7-2,4.7-3.3s-1.6-2.4-4.7-3.3c-3.1-0.9-6.9-1.4-11.3-1.4c-4.4,0-8.2,0.5-11.3,1.4
				s-4.6,2-4.6,3.3s1.5,2.4,4.6,3.3c3.1,0.9,6.9,1.4,11.3,1.4C165.3,339.5,169.1,339.1,172.2,338.2z"/>
		</g>
	</g>
</g>
<g transform="matrix( 1, 0, 0, 1, 0,0) ">
	<g>
		<g id="Layer1_74_FILL">
			<path class="st7" d="M169.4,326.8c-0.2,0.4-0.2,0.8,0,1.2l3,7.3c0.2,0.4,0.4,0.6,0.8,0.8c0.5,0.2,0.9,0.2,1.3,0l0.4-0.1
				c0.4-0.2,0.7-0.5,0.9-1c0.2-0.4,0.2-0.8,0-1.2l-3.1-7.2c-0.2-0.4-0.4-0.7-0.8-0.9c-0.4-0.2-0.8-0.2-1.2,0l-0.4,0.2
				C169.9,326,169.6,326.2,169.4,326.8 M156.5,325.3l-0.3-0.2c-0.4-0.2-0.9-0.2-1.3,0c-0.4,0.2-0.7,0.4-0.9,0.8l-3.3,7.1
				c-0.2,0.4-0.2,0.8-0.1,1.2c0.2,0.4,0.4,0.8,0.9,1l0.3,0.2c0.4,0.2,0.9,0.2,1.3,0.1c0.4-0.2,0.8-0.5,0.9-0.9l3.3-7
				c0.2-0.4,0.2-0.8,0.1-1.2C157.2,326,156.9,325.6,156.5,325.3 M156.9,314c0.8-1,1.1-2.2,0.9-3.5c-0.2-1.3-0.8-2.3-1.8-3.1
				c-1.1-0.8-2.2-1-3.5-0.9c-1.3,0.2-2.3,0.8-3.1,1.8s-1.1,2.2-0.9,3.5c0.2,1.3,0.8,2.3,1.8,3.1s2.2,1.1,3.5,0.9
				C155,315.6,156.1,315,156.9,314 M178.3,313.2c0.8-1,1.1-2.1,0.9-3.4c-0.2-1.3-0.8-2.4-1.9-3.2c-1-0.7-2.2-1-3.5-0.8
				s-2.3,0.8-3.1,1.8c-0.8,1.1-1,2.2-0.9,3.5c0.2,1.3,0.8,2.3,1.8,3.1s2.2,1,3.5,0.9C176.5,315,177.5,314.3,178.3,313.2z"/>
		</g>
	</g>
</g>
<g transform="matrix( 1, 0, 0, 1, 0,0) ">
	<g>
		<g id="Layer1_74_MEMBER_0_FILL">
			<path class="st39" d="M177.2,318c-0.6-3.9-2.4-6.9-5.5-9.2s-6.5-3.2-10.2-2.6c-3.8,0.5-6.9,2.3-9.2,5.4
				c-2.3,3.1-3.2,6.5-2.6,10.4c0.5,3.8,2.4,6.9,5.4,9.1c3.1,2.3,6.5,3.2,10.3,2.7c3.8-0.6,6.8-2.4,9.1-5.5
				C176.8,325.2,177.7,321.8,177.2,318 M170.2,310.8c2.5,1.9,4,4.4,4.5,7.5c0.4,3.1-0.3,5.9-2.2,8.4c-1.8,2.5-4.3,4-7.4,4.5
				c-3.1,0.4-6-0.3-8.5-2.1c-2.5-1.9-4-4.4-4.4-7.5c-0.5-3.1,0.2-5.9,2.1-8.4c1.9-2.5,4.4-4,7.5-4.4
				C164.9,308.3,167.7,309,170.2,310.8 M172.1,323.8c-0.1-0.2-0.3-0.4-0.5-0.5s-0.5-0.1-0.7,0s-0.4,0.3-0.4,0.5
				c-0.1,0.3-0.1,0.5,0,0.7s0.3,0.4,0.5,0.5s0.5,0.1,0.7-0.1c0.3-0.1,0.4-0.2,0.5-0.5C172.2,324.3,172.2,324.1,172.1,323.8
				 M157.6,327.6c-0.1,0.2-0.1,0.5,0,0.7s0.3,0.4,0.5,0.5c0.3,0.1,0.5,0,0.7,0c0.2-0.2,0.4-0.3,0.5-0.5s0-0.5-0.1-0.7
				s-0.2-0.4-0.5-0.5c-0.2-0.1-0.5,0-0.7,0.1C157.8,327.3,157.7,327.5,157.6,327.6 M156.2,324.8c0-0.2-0.1-0.5-0.2-0.7
				c-0.2-0.2-0.4-0.3-0.6-0.3c-0.3,0-0.5,0.1-0.7,0.3c-0.2,0.1-0.3,0.3-0.3,0.6s0.1,0.5,0.2,0.7c0.1,0.2,0.3,0.3,0.6,0.2
				c0.3,0.1,0.5,0,0.7-0.2C156,325.1,156.1,325,156.2,324.8 M169.2,327.8c0-0.3,0-0.5-0.2-0.6c-0.2-0.2-0.4-0.3-0.7-0.3
				c-0.2,0-0.4,0.1-0.6,0.2c-0.2,0.2-0.3,0.4-0.3,0.7c0,0.2,0.1,0.4,0.3,0.6c0.2,0.2,0.3,0.3,0.6,0.3s0.5-0.1,0.7-0.2
				C169.1,328.2,169.2,328,169.2,327.8 M164.4,329.2c0-0.3-0.2-0.5-0.4-0.7c-0.2-0.1-0.4-0.1-0.6-0.1c-0.2,0-0.5,0.1-0.7,0.3
				c-0.1,0.3-0.1,0.5-0.1,0.7c0,0.3,0.1,0.5,0.3,0.6c0.2,0.2,0.5,0.2,0.7,0.2c0.2-0.1,0.4-0.2,0.5-0.3
				C164.3,329.6,164.4,329.5,164.4,329.2 M154.8,320.2c0.2-0.2,0.2-0.5,0.2-0.7c-0.1-0.2-0.2-0.4-0.4-0.6c-0.2-0.1-0.4-0.2-0.6-0.2
				c-0.2,0.1-0.4,0.2-0.6,0.3c-0.1,0.2-0.1,0.4-0.1,0.7c0,0.2,0.1,0.4,0.3,0.6c0.3,0.2,0.5,0.2,0.7,0.2
				C154.5,320.5,154.7,320.5,154.8,320.2 M155.7,314.8c-0.2-0.1-0.5-0.1-0.7,0c-0.3,0.1-0.4,0.2-0.5,0.5c-0.1,0.2-0.1,0.5,0,0.7
				s0.3,0.4,0.5,0.4c0.2,0.1,0.5,0.1,0.7,0s0.4-0.3,0.5-0.5s0-0.5-0.1-0.7C156,315,155.9,314.8,155.7,314.8 M157.9,313
				c0.2,0.2,0.3,0.3,0.6,0.3s0.5-0.1,0.7-0.2c0.2-0.2,0.3-0.4,0.3-0.7s0-0.5-0.2-0.7s-0.4-0.3-0.7-0.3c-0.2,0-0.4,0-0.5,0.2
				c-0.2,0.2-0.3,0.4-0.4,0.6C157.7,312.5,157.8,312.8,157.9,313 M162.8,310.6c-0.1,0.2-0.1,0.5-0.1,0.7c0.1,0.3,0.2,0.5,0.3,0.6
				c0.2,0.2,0.5,0.2,0.7,0.2s0.4-0.1,0.5-0.4c0.2-0.2,0.3-0.4,0.2-0.6c-0.1-0.2-0.2-0.4-0.4-0.6c-0.2-0.1-0.4-0.2-0.7-0.1
				C163.2,310.3,163,310.5,162.8,310.6 M167.3,311.5c-0.2-0.1-0.5,0-0.7,0.1s-0.3,0.2-0.4,0.4c-0.1,0.2-0.1,0.5,0,0.7
				s0.3,0.3,0.5,0.4c0.2,0.1,0.4,0.1,0.6,0c0.2-0.1,0.4-0.3,0.5-0.5s0.1-0.4,0-0.6C167.7,311.6,167.5,311.5,167.3,311.5
				 M172.8,320.5c0.2-0.2,0.2-0.4,0.2-0.6c0-0.3-0.1-0.5-0.3-0.6s-0.4-0.2-0.6-0.2c-0.2,0.1-0.4,0.2-0.6,0.3
				c-0.1,0.2-0.2,0.4-0.2,0.6c0.1,0.2,0.2,0.4,0.3,0.5c0.2,0.2,0.5,0.2,0.7,0.2C172.5,320.8,172.7,320.6,172.8,320.5 M171.3,315.1
				c0-0.2,0-0.4-0.2-0.6c-0.2-0.2-0.4-0.3-0.6-0.3c-0.2,0-0.4,0-0.6,0.2c-0.2,0.2-0.3,0.3-0.4,0.6c0,0.2,0.1,0.5,0.3,0.7
				s0.3,0.3,0.5,0.3c0.3,0,0.5-0.1,0.7-0.2C171.2,315.6,171.3,315.5,171.3,315.1z"/>
			<path class="st40" d="M174.7,318.3c-0.5-3.1-2-5.6-4.5-7.5s-5.2-2.6-8.4-2.1c-3.1,0.4-5.6,1.9-7.5,4.4s-2.6,5.3-2.1,8.4
				c0.5,3.1,1.9,5.6,4.4,7.5s5.3,2.6,8.5,2.1c3.1-0.5,5.6-2,7.4-4.5C174.4,324.2,175.1,321.5,174.7,318.3 M171.1,314.5
				c0.1,0.2,0.2,0.4,0.2,0.6c0,0.2-0.1,0.4-0.2,0.6c-0.2,0.2-0.4,0.2-0.7,0.2c-0.2,0-0.4-0.1-0.5-0.3c-0.2-0.2-0.2-0.4-0.3-0.7
				c0.1-0.2,0.2-0.4,0.4-0.6c0.2-0.2,0.4-0.2,0.6-0.2C170.8,314.2,170.9,314.3,171.1,314.5 M172.9,319.8c0.1,0.2,0,0.4-0.2,0.6
				c-0.1,0.2-0.3,0.3-0.5,0.3c-0.2,0.1-0.4,0-0.7-0.2c-0.2-0.1-0.3-0.3-0.3-0.5s0-0.4,0.2-0.6c0.2-0.2,0.3-0.3,0.6-0.3
				c0.2,0,0.4,0,0.6,0.2C172.8,319.3,172.9,319.5,172.9,319.8 M166.7,311.5c0.2-0.1,0.4-0.1,0.7-0.1c0.2,0.1,0.4,0.2,0.5,0.5
				c0.1,0.2,0.1,0.4,0,0.6c-0.1,0.2-0.2,0.4-0.5,0.5c-0.2,0.1-0.4,0-0.6,0c-0.2-0.1-0.4-0.2-0.5-0.4s-0.1-0.5,0-0.7
				C166.3,311.6,166.5,311.5,166.7,311.5 M162.7,311.3c0-0.2,0-0.4,0.1-0.7c0.2-0.2,0.4-0.3,0.6-0.3c0.3-0.1,0.5,0,0.7,0.1
				c0.2,0.2,0.4,0.4,0.4,0.6c0,0.2-0.1,0.4-0.2,0.6c-0.2,0.3-0.3,0.4-0.5,0.4c-0.3,0-0.5,0-0.7-0.2
				C162.8,311.8,162.7,311.5,162.7,311.3 M158.5,313.2c-0.2,0-0.4-0.1-0.6-0.3c-0.2-0.2-0.2-0.4-0.2-0.7c0.1-0.3,0.2-0.5,0.4-0.6
				c0.1-0.2,0.3-0.2,0.5-0.2c0.3,0,0.5,0.1,0.7,0.3s0.2,0.4,0.2,0.7s-0.1,0.5-0.3,0.7C159,313.2,158.7,313.2,158.5,313.2 M155,314.8
				c0.2-0.1,0.5-0.1,0.7,0s0.4,0.2,0.5,0.5c0.1,0.2,0.1,0.4,0.1,0.7c-0.1,0.2-0.3,0.4-0.5,0.5s-0.4,0.1-0.7,0s-0.4-0.2-0.5-0.4
				s-0.1-0.5,0-0.7C154.5,315,154.7,315,155,314.8 M155,319.5c0,0.2,0,0.5-0.2,0.7c-0.1,0.2-0.3,0.3-0.6,0.3c-0.2,0.1-0.4,0-0.7-0.2
				c-0.2-0.2-0.2-0.4-0.3-0.6c0-0.2,0-0.5,0.1-0.7c0.2-0.2,0.4-0.3,0.6-0.3c0.2,0,0.4,0,0.6,0.2C154.8,319.1,155,319.3,155,319.5
				 M164,328.5c0.2,0.2,0.4,0.4,0.4,0.7c0,0.2,0,0.4-0.2,0.6c-0.1,0.2-0.3,0.3-0.5,0.3s-0.5,0-0.7-0.2c-0.2-0.1-0.3-0.3-0.3-0.6
				c0-0.2,0-0.4,0.1-0.7c0.2-0.2,0.4-0.2,0.7-0.3C163.6,328.5,163.8,328.5,164,328.5 M169,327.1c0.2,0.2,0.2,0.4,0.2,0.6
				c0,0.3-0.1,0.5-0.3,0.6c-0.2,0.2-0.4,0.2-0.7,0.2c-0.2-0.1-0.4-0.2-0.6-0.3c-0.2-0.2-0.2-0.4-0.3-0.6c0.1-0.3,0.2-0.5,0.3-0.7
				c0.2-0.2,0.4-0.2,0.6-0.2C168.6,326.8,168.8,327,169,327.1 M156,324c0.2,0.2,0.2,0.4,0.2,0.7c-0.1,0.3-0.2,0.5-0.3,0.6
				c-0.2,0.2-0.4,0.2-0.7,0.2s-0.5-0.1-0.6-0.2c-0.2-0.2-0.3-0.4-0.2-0.7c0-0.3,0.1-0.5,0.3-0.6c0.2-0.2,0.4-0.3,0.7-0.3
				C155.6,323.8,155.8,323.8,156,324 M157.6,328.3c-0.1-0.2-0.1-0.5,0-0.7s0.3-0.4,0.5-0.5s0.5-0.1,0.7-0.1c0.3,0.1,0.4,0.2,0.5,0.5
				c0.1,0.2,0.1,0.5,0.1,0.7c-0.1,0.2-0.3,0.4-0.5,0.5s-0.5,0.1-0.7,0C157.9,328.8,157.7,328.6,157.6,328.3 M171.6,323.5
				c0.2,0.1,0.4,0.3,0.5,0.5s0.1,0.5,0.1,0.7c-0.1,0.3-0.3,0.5-0.5,0.5c-0.2,0.1-0.4,0.2-0.7,0.1c-0.2-0.1-0.4-0.2-0.5-0.5
				c-0.1-0.2-0.1-0.4,0-0.7c0.1-0.2,0.2-0.4,0.4-0.5C171.1,323.3,171.4,323.3,171.6,323.5z"/>
		</g>
	</g>
</g>
<g transform="matrix( 1, 0, 0, 1, 0,0) ">
	<g>
		<g id="Layer1_74_MEMBER_0_MEMBER_0_FILL">
			<path class="st39" d="M161.3,314.5c-0.2-0.1-0.3-0.2-0.4-0.1c-0.2,0.1-0.3,0.2-0.4,0.4c-0.1,0.2,0,0.3,0.1,0.5l2.3,5.6v0.1v0.1
				c0.1,0.2,0.2,0.3,0.3,0.3c0.2,0.1,0.4,0.1,0.5,0l3.5-1.4c0.2-0.1,0.3-0.2,0.3-0.4c0.1-0.1,0.1-0.3,0-0.5
				c-0.1-0.1-0.2-0.2-0.3-0.3s-0.3-0.1-0.5,0l-2.8,1.2l-2.1-5.1C161.6,314.5,161.5,314.5,161.3,314.5z"/>
		</g>
	</g>
</g>
<g transform="matrix( 1.0700531005859375, 0, 0, 1.0700531005859375, -84.6,-26.75) ">
	<g>
		<g id="Layer1_75_FILL">
			<path class="st2" d="M271.5,104.8c-6.9,0-12.7,2.4-17.6,7.3c-4.8,4.9-7.3,10.7-7.3,17.6s2.4,12.7,7.3,17.6
				c4.9,4.9,10.7,7.3,17.6,7.3s12.7-2.4,17.6-7.3c4.9-4.8,7.3-10.7,7.3-17.6s-2.4-12.7-7.3-17.6S278.3,104.8,271.5,104.8z"/>
		</g>
	</g>
</g>
<g transform="matrix( 1, 0, 0, 1, 0,0) ">
	<g>
		<g id="Layer1_76_MEMBER_0_FILL">
			<path class="st35" d="M234,108.1c0-7.4-2.6-13.7-7.9-19c-5.2-5.2-11.5-7.9-18.9-7.9s-13.7,2.6-19,7.8l0,0
				c-5.2,5.3-7.8,11.6-7.8,19s2.6,13.7,7.9,18.9c5.3,5.3,11.6,7.9,19,7.9s13.7-2.6,18.9-7.9l0,0C231.4,121.8,234,115.5,234,108.1
				 M224.5,90.8c4.8,4.8,7.2,10.6,7.2,17.3c0,6.8-2.4,12.5-7.2,17.3l0,0c-4.8,4.8-10.5,7.2-17.3,7.2s-12.5-2.4-17.3-7.2
				c-4.8-4.8-7.2-10.5-7.2-17.3c0-6.7,2.4-12.5,7.2-17.3l0,0c4.8-4.8,10.6-7.2,17.3-7.2C213.9,83.6,219.7,86,224.5,90.8
				 M221.2,122.6c-0.2-0.2-0.3-0.2-0.5-0.2s-0.4,0.1-0.5,0.2c-0.2,0.2-0.2,0.3-0.2,0.5s0.1,0.4,0.2,0.5c0.2,0.2,0.3,0.2,0.5,0.2
				s0.4-0.1,0.5-0.2c0.2-0.2,0.2-0.3,0.2-0.5C221.5,122.9,221.4,122.8,221.2,122.6 M226.2,115.9c-0.2-0.2-0.3-0.2-0.5-0.2
				s-0.4,0.1-0.5,0.2c-0.2,0.2-0.2,0.3-0.2,0.5s0.1,0.4,0.2,0.5c0.2,0.2,0.3,0.2,0.5,0.2s0.4-0.1,0.5-0.2c0.2-0.2,0.2-0.3,0.2-0.5
				S226.4,116,226.2,115.9 M196.2,124.9c-0.2,0.2-0.2,0.3-0.2,0.5s0.1,0.4,0.2,0.5c0.2,0.2,0.3,0.2,0.5,0.2s0.4-0.1,0.5-0.2
				c0.2-0.2,0.2-0.3,0.2-0.5s-0.1-0.4-0.2-0.5s-0.3-0.2-0.5-0.2C196.6,124.8,196.4,124.8,196.2,124.9 M190.6,120.5
				c0.2,0,0.4-0.1,0.5-0.2c0.2-0.2,0.2-0.3,0.2-0.5s-0.1-0.4-0.2-0.5c-0.2-0.2-0.3-0.2-0.5-0.2s-0.4,0.1-0.5,0.2
				c-0.2,0.2-0.2,0.3-0.2,0.5s0.1,0.4,0.2,0.5S190.4,120.5,190.6,120.5 M186.8,111.5c-0.2,0.2-0.2,0.3-0.2,0.5s0.1,0.4,0.2,0.5
				c0.2,0.2,0.3,0.2,0.5,0.2s0.4-0.1,0.5-0.2c0.2-0.2,0.2-0.3,0.2-0.5s-0.1-0.4-0.2-0.5c-0.2-0.2-0.3-0.2-0.5-0.2
				C187.1,111.2,186.9,111.3,186.8,111.5 M213.9,126.9c-0.2-0.2-0.3-0.2-0.5-0.2s-0.4,0.1-0.5,0.2c-0.2,0.2-0.2,0.3-0.2,0.5
				s0.1,0.4,0.2,0.5c0.2,0.2,0.3,0.2,0.5,0.2s0.4-0.1,0.5-0.2c0.2-0.2,0.2-0.3,0.2-0.5S214.1,127,213.9,126.9 M205.3,127.8
				c-0.2-0.2-0.3-0.2-0.5-0.2s-0.4,0.1-0.5,0.2c-0.2,0.2-0.2,0.3-0.2,0.5s0.1,0.4,0.2,0.5c0.2,0.2,0.3,0.2,0.5,0.2s0.4-0.1,0.5-0.2
				c0.2-0.2,0.2-0.3,0.2-0.5S205.5,127.8,205.3,127.8 M188,102.9c-0.2-0.2-0.3-0.2-0.5-0.2s-0.4,0.1-0.5,0.2
				c-0.2,0.2-0.2,0.3-0.2,0.5s0.1,0.4,0.2,0.5c0.2,0.2,0.3,0.2,0.5,0.2s0.4-0.1,0.5-0.2c0.2-0.2,0.2-0.3,0.2-0.5
				S188.2,103,188,102.9 M191.7,95.2c-0.2-0.2-0.3-0.2-0.5-0.2s-0.4,0.1-0.5,0.2c-0.2,0.2-0.2,0.3-0.2,0.5s0.1,0.4,0.2,0.5
				c0.2,0.2,0.3,0.2,0.5,0.2s0.4-0.1,0.5-0.2c0.2-0.2,0.2-0.3,0.2-0.5S191.9,95.4,191.7,95.2 M198,89.8c-0.2-0.2-0.3-0.2-0.5-0.2
				s-0.4,0.1-0.5,0.2s-0.2,0.3-0.2,0.5s0.1,0.4,0.2,0.5c0.2,0.2,0.3,0.2,0.5,0.2s0.4-0.1,0.5-0.2c0.2-0.2,0.2-0.3,0.2-0.5
				C198.3,90.1,198.2,89.9,198,89.8 M214.7,88.5c-0.2-0.2-0.3-0.2-0.5-0.2s-0.4,0.1-0.5,0.2c-0.2,0.2-0.2,0.3-0.2,0.5
				s0.1,0.4,0.2,0.5c0.2,0.2,0.3,0.2,0.5,0.2s0.4-0.1,0.5-0.2c0.2-0.2,0.2-0.3,0.2-0.5S214.8,88.8,214.7,88.5 M205.1,87.4
				c-0.2,0.2-0.2,0.3-0.2,0.5s0.1,0.4,0.2,0.5c0.2,0.2,0.3,0.2,0.5,0.2s0.4-0.1,0.5-0.2c0.2-0.2,0.2-0.3,0.2-0.5s-0.1-0.4-0.2-0.5
				c-0.2-0.2-0.3-0.2-0.5-0.2C205.5,87.1,205.3,87.2,205.1,87.4 M226.8,107.6c-0.2,0.2-0.2,0.3-0.2,0.5s0.1,0.4,0.2,0.5
				c0.2,0.2,0.3,0.2,0.5,0.2s0.4-0.1,0.5-0.2c0.2-0.2,0.2-0.3,0.2-0.5s-0.1-0.4-0.2-0.5c-0.2-0.2-0.3-0.2-0.5-0.2
				C227.2,107.3,227,107.4,226.8,107.6 M225.5,100.1c-0.2,0.2-0.2,0.3-0.2,0.5s0.1,0.4,0.2,0.5s0.3,0.2,0.5,0.2s0.4-0.1,0.5-0.2
				c0.2-0.2,0.2-0.3,0.2-0.5s-0.1-0.4-0.2-0.5c-0.2-0.2-0.3-0.2-0.5-0.2S225.6,100,225.5,100.1 M221.8,93.1
				c-0.2-0.2-0.3-0.2-0.5-0.2s-0.4,0.1-0.5,0.2c-0.2,0.2-0.2,0.3-0.2,0.5s0.1,0.4,0.2,0.5c0.2,0.2,0.3,0.2,0.5,0.2s0.4-0.1,0.5-0.2
				c0.2-0.2,0.2-0.3,0.2-0.5S221.9,93.2,221.8,93.1z"/>
			<path class="st4" d="M231.7,108.1c0-6.8-2.4-12.5-7.2-17.3s-10.5-7.2-17.3-7.2c-6.7,0-12.5,2.4-17.3,7.2l0,0
				c-4.8,4.8-7.2,10.6-7.2,17.3c0,6.8,2.4,12.5,7.2,17.3s10.6,7.2,17.3,7.2c6.8,0,12.5-2.4,17.3-7.2l0,0
				C229.3,120.6,231.7,114.8,231.7,108.1 M221.2,92.8c0.2,0,0.4,0.1,0.5,0.2c0.2,0.2,0.2,0.3,0.2,0.5s-0.1,0.4-0.2,0.5
				c-0.2,0.2-0.3,0.2-0.5,0.2s-0.4-0.1-0.5-0.2c-0.2-0.2-0.2-0.3-0.2-0.5s0.1-0.4,0.2-0.5C220.9,92.9,221,92.8,221.2,92.8
				 M225.3,100.8c0-0.2,0.1-0.4,0.2-0.5s0.3-0.2,0.5-0.2s0.4,0.1,0.5,0.2c0.2,0.2,0.2,0.3,0.2,0.5s-0.1,0.4-0.2,0.5
				c-0.2,0.2-0.3,0.2-0.5,0.2s-0.4-0.1-0.5-0.2S225.3,100.9,225.3,100.8 M226.6,108.1c0-0.2,0.1-0.4,0.2-0.5
				c0.2-0.2,0.3-0.2,0.5-0.2s0.4,0.1,0.5,0.2c0.2,0.2,0.2,0.3,0.2,0.5s-0.1,0.4-0.2,0.5c-0.2,0.2-0.3,0.2-0.5,0.2s-0.4-0.1-0.5-0.2
				S226.6,108.3,226.6,108.1 M204.9,87.9c0-0.2,0.1-0.4,0.2-0.5c0.2-0.2,0.3-0.2,0.5-0.2s0.4,0.1,0.5,0.2c0.2,0.2,0.2,0.3,0.2,0.5
				s-0.1,0.4-0.2,0.5c-0.2,0.2-0.3,0.2-0.5,0.2s-0.4-0.1-0.5-0.2C205,88.3,204.9,88.1,204.9,87.9 M214.1,88.3c0.2,0,0.4,0.1,0.5,0.2
				c0.2,0.2,0.2,0.3,0.2,0.5s-0.1,0.4-0.2,0.5c-0.2,0.2-0.3,0.2-0.5,0.2s-0.4-0.1-0.5-0.2c-0.2-0.2-0.2-0.3-0.2-0.5s0.1-0.4,0.2-0.5
				C213.7,88.3,213.9,88.3,214.1,88.3 M197.5,89.5c0.2,0,0.4,0.1,0.5,0.2c0.2,0.2,0.2,0.3,0.2,0.5s-0.1,0.4-0.2,0.5
				c-0.2,0.2-0.3,0.2-0.5,0.2s-0.4-0.1-0.5-0.2c-0.2-0.2-0.2-0.3-0.2-0.5s0.1-0.4,0.2-0.5S197.3,89.5,197.5,89.5 M191.2,95
				c0.2,0,0.4,0.1,0.5,0.2c0.2,0.2,0.2,0.3,0.2,0.5s-0.1,0.4-0.2,0.5c-0.2,0.2-0.3,0.2-0.5,0.2s-0.4-0.1-0.5-0.2
				c-0.2-0.2-0.2-0.3-0.2-0.5s0.1-0.4,0.2-0.5C190.8,95.1,191,95,191.2,95 M187.5,102.8c0.2,0,0.4,0.1,0.5,0.2
				c0.2,0.2,0.2,0.3,0.2,0.5s-0.1,0.4-0.2,0.5c-0.2,0.2-0.3,0.2-0.5,0.2s-0.4-0.1-0.5-0.2c-0.2-0.2-0.2-0.3-0.2-0.5s0.1-0.4,0.2-0.5
				C187.1,102.8,187.2,102.8,187.5,102.8 M204.8,127.4c0.2,0,0.4,0.1,0.5,0.2c0.2,0.2,0.2,0.3,0.2,0.5s-0.1,0.4-0.2,0.5
				c-0.2,0.2-0.3,0.2-0.5,0.2s-0.4-0.1-0.5-0.2c-0.2-0.2-0.2-0.3-0.2-0.5s0.1-0.4,0.2-0.5S204.6,127.4,204.8,127.4 M213.4,126.6
				c0.2,0,0.4,0.1,0.5,0.2c0.2,0.2,0.2,0.3,0.2,0.5s-0.1,0.4-0.2,0.5c-0.2,0.2-0.3,0.2-0.5,0.2s-0.4-0.1-0.5-0.2
				c-0.2-0.2-0.2-0.3-0.2-0.5s0.1-0.4,0.2-0.5C213,126.8,213.2,126.6,213.4,126.6 M186.5,112c0-0.2,0.1-0.4,0.2-0.5
				c0.2-0.2,0.3-0.2,0.5-0.2s0.4,0.1,0.5,0.2c0.2,0.2,0.2,0.3,0.2,0.5s-0.1,0.4-0.2,0.5c-0.2,0.2-0.3,0.2-0.5,0.2s-0.4-0.1-0.5-0.2
				C186.6,112.4,186.5,112.2,186.5,112 M191.2,120.3c-0.2,0.2-0.3,0.2-0.5,0.2s-0.4-0.1-0.5-0.2c-0.2-0.2-0.2-0.3-0.2-0.5
				s0.1-0.4,0.2-0.5c0.2-0.2,0.3-0.2,0.5-0.2s0.4,0.1,0.5,0.2c0.2,0.2,0.2,0.3,0.2,0.5S191.3,120.1,191.2,120.3 M196,125.5
				c0-0.2,0.1-0.4,0.2-0.5c0.2-0.2,0.3-0.2,0.5-0.2s0.4,0.1,0.5,0.2s0.2,0.3,0.2,0.5s-0.1,0.4-0.2,0.5c-0.2,0.2-0.3,0.2-0.5,0.2
				s-0.4-0.1-0.5-0.2C196.1,125.9,196,125.8,196,125.5 M225.7,115.6c0.2,0,0.4,0.1,0.5,0.2c0.2,0.2,0.2,0.3,0.2,0.5
				s-0.1,0.4-0.2,0.5c-0.2,0.2-0.3,0.2-0.5,0.2s-0.4-0.1-0.5-0.2c-0.2-0.2-0.2-0.3-0.2-0.5s0.1-0.4,0.2-0.5
				C225.3,115.8,225.5,115.6,225.7,115.6 M220.7,122.4c0.2,0,0.4,0.1,0.5,0.2c0.2,0.2,0.2,0.3,0.2,0.5s-0.1,0.4-0.2,0.5
				c-0.2,0.2-0.3,0.2-0.5,0.2s-0.4-0.1-0.5-0.2c-0.2-0.2-0.2-0.3-0.2-0.5s0.1-0.4,0.2-0.5C220.3,122.4,220.5,122.4,220.7,122.4z"/>
		</g>
	</g>
</g>
<g transform="matrix( 1, 0, 0, 1, 0,0) ">
	<g>
		<g id="Layer1_76_MEMBER_1_FILL">
			<path class="st35" d="M208.8,86.8c-0.2,0.2-0.4,0.5-0.4,0.8l-2.6,19.7c0,0.2,0,0.5,0.1,0.7l0,0c-0.1,0.3-0.2,0.6-0.1,0.9
				c0.1,0.3,0.3,0.5,0.6,0.7l11.9,5.7c0.3,0.1,0.6,0.2,0.9,0c0.3-0.1,0.5-0.3,0.7-0.6c0.1-0.3,0.2-0.6,0-0.9
				c-0.1-0.3-0.3-0.5-0.6-0.7l-11.3-5.4c0-0.1,0-0.1,0-0.2l2.6-19.7c0-0.3-0.1-0.6-0.3-0.9c-0.2-0.2-0.4-0.4-0.7-0.4
				C209.3,86.4,209,86.5,208.8,86.8z"/>
		</g>
	</g>
</g>
</svg>
