<?xml version="1.0" encoding="utf-8"?>
<!-- Generator: Adobe Illustrator 19.2.1, SVG Export Plug-In . SVG Version: 6.00 Build 0)  -->
<!DOCTYPE svg PUBLIC "-//W3C//DTD SVG 1.1//EN" "http://www.w3.org/Graphics/SVG/1.1/DTD/svg11.dtd">
<svg version="1.1" id="Layer_1" xmlns="http://www.w3.org/2000/svg" xmlns:xlink="http://www.w3.org/1999/xlink" x="0px" y="0px"
	 viewBox="0 0 595.3 335" style="enable-background:new 0 0 595.3 335;" xml:space="preserve">
<style type="text/css">
	.st0{fill:#C0E4EE;}
	.st1{fill:#E86A5D;}
	.st2{fill:#FEE3CD;}
	.st3{fill:#8C643E;}
	.st4{fill:#E7E7E9;}
	.st5{fill:#595A5C;}
	.st6{fill:#FFDA83;}
	.st7{fill:#FFFFFF;}
	.st8{fill:#A9A9AD;}
	.st9{fill:none;stroke:#DC453A;stroke-width:4;stroke-linecap:round;stroke-linejoin:round;}
	.st10{fill:none;stroke:#FFDA83;stroke-width:4;stroke-linecap:round;stroke-linejoin:round;}
	.st11{fill:#4BA57B;}
	.st12{fill:#DC453A;}
	.st13{fill:none;stroke:#FFFFFF;stroke-width:4;stroke-linecap:round;stroke-linejoin:round;}
	.st14{fill:#658ECA;}
	.st15{fill:#D3D8B7;}
	.st16{fill:none;stroke:#9C6A44;stroke-width:3;stroke-linecap:round;stroke-linejoin:round;}
	.st17{fill:#BA7C4F;}
	.st18{fill:#EE5A67;}
	.st19{fill:#BCBCBC;}
	.st20{fill:#E6CFBC;}
	.st21{fill:#FDC029;}
</style>
<g transform="matrix( 1, 0, 0, 1, 0,0) ">
	<g>
		<g id="Layer1_0_FILL_2_">
			<path class="st0" d="M582,34.8c0-4.8-2.3-7.1-6.9-7.1h-555c-4.6,0-6.8,2.4-6.8,7.1V298c0,4.8,2.3,7.1,6.8,7.1h555.1
				c4.6,0,6.9-2.4,6.9-7.1L582,34.8L582,34.8z"/>
		</g>
	</g>
</g>
<g transform="matrix( 1.0714263916015625, -0.23095703125, 0.23095703125, 1.0714263916015625, 178.95,87.05) ">
	<g>
		<g id="Layer1_1_MEMBER_0_MEMBER_0_FILL">
			<path class="st1" d="M92-17.4v4.1c0,4.8,2.4,7.1,7.1,7.1l56,0c4.8,0,7.1-2.4,7.1-7.1v-4.1L92-17.4z"/>
			<path class="st2" d="M162.3-20.8c0-4.8-2.4-7.1-7.1-7.1l-56,0c-4.8,0-7.1,2.4-7.1,7.1v3.3l70.3,0v-3.3H162.3z"/>
		</g>
	</g>
</g>
<g transform="matrix( 1.0714263916015625, -0.23095703125, 0.2744598388671875, 1.26837158203125, 162.1,22.2) ">
	<g>
		<g id="Layer1_1_MEMBER_0_MEMBER_1_FILL">
			<path class="st3" d="M95.1,12.9c-0.6,0-1.2,0.2-1.6,0.6c-0.4,0.4-0.6,1-0.6,1.6v32.2c0,0.6,0.2,1.1,0.6,1.6
				c0.4,0.4,1,0.7,1.6,0.7s1.1-0.2,1.6-0.7c0.4-0.4,0.7-0.9,0.7-1.6V15.1c0-0.6-0.2-1.2-0.7-1.6S95.7,12.9,95.1,12.9z"/>
		</g>
	</g>
</g>
<g transform="matrix( 1.0714263916015625, -0.23095703125, 0.23095703125, 1.0714263916015625, 178.95,87.05) ">
	<g>
		<g id="Layer1_1_MEMBER_0_MEMBER_2_FILL">
			<path class="st3" d="M164.6-32.4h-4.5v28.5c0,0.6,0.2,1.1,0.6,1.6c0.4,0.4,1,0.7,1.6,0.7c0.6,0,1.1-0.2,1.6-0.7
				c0.4-0.4,0.7-0.9,0.7-1.6C164.6-3.9,164.6-32.4,164.6-32.4z"/>
		</g>
	</g>
</g>
<g transform="matrix( 1, 0, 0, 1, 0,0) ">
	<g>
		<g id="Layer1_1_MEMBER_0_MEMBER_3_FILL">
			<path class="st4" d="M300.4,32.1c1.9-0.4,3.3-1.4,4.4-3c1-1.6,1.4-3.4,1-5.3s-1.4-3.3-3.1-4.3c-1.6-1.1-3.3-1.4-5.2-1l-16,3.4
				c-1.9,0.4-3.3,1.4-4.4,3.1c-1,1.6-1.3,3.4-0.9,5.2s1.4,3.3,3,4.4c1.6,1,3.4,1.3,5.2,0.9L300.4,32.1z"/>
		</g>
	</g>
</g>
<g transform="matrix( 1.0711517333984375, -0.1493682861328125, 0.1493682861328125, 1.0711517333984375, 458.75,63.5) ">
	<g>
		<g id="Layer1_1_MEMBER_1_MEMBER_0_FILL">
			<path class="st5" d="M21.2,114c0-3.3-1.1-6.1-3.4-8.5c-2.3-2.3-5-3.5-8.2-3.5s-5.9,1.2-8.2,3.5S-2,110.7-2,114
				c0,3.3,1.1,6.1,3.4,8.5c2.3,2.3,5,3.5,8.2,3.5s5.9-1.2,8.2-3.5C20.1,120.2,21.2,117.3,21.2,114z"/>
		</g>
	</g>
</g>
<g transform="matrix( 1.0711517333984375, -0.1493682861328125, 0.1493682861328125, 1.0711517333984375, 546.7,52.85) ">
	<g>
		<g id="Layer1_1_MEMBER_1_MEMBER_1_FILL">
			<path class="st5" d="M0.6,113.7c0-3.3-1.1-6.1-3.4-8.5c-2.3-2.3-5-3.5-8.2-3.5s-5.9,1.2-8.2,3.5s-3.4,5.2-3.4,8.5
				c0,3.3,1.1,6.1,3.4,8.5c2.3,2.3,5,3.5,8.2,3.5c3.2,0,5.9-1.2,8.2-3.5C-0.5,119.8,0.6,117,0.6,113.7z"/>
		</g>
	</g>
</g>
<g transform="matrix( 1.0711517333984375, -0.1493682861328125, 0.1493682861328125, 1.0711517333984375, 458.75,71.05) ">
	<g>
		<g id="Layer1_1_MEMBER_1_MEMBER_2_FILL">
			<path class="st6" d="M-4.3,68.9c-4.8,0-7.1,2.4-7.1,7.1l0,27.6c0,4.8,2.4,7.1,7.1,7.1l4,0c0.3-2.3,1.3-4.3,3-6.1
				c2-2.1,4.4-3.1,7.3-3.1c2.8,0,5.2,1,7.3,3.1c1.7,1.7,2.6,3.7,2.9,6.1l40.1,0c0.3-2.3,1.2-4.3,2.9-6.1c2-2.1,4.4-3.1,7.3-3.1
				c2.8,0,5.2,1,7.3,3.1c1.7,1.7,2.7,3.7,3,6.1H82c4.8,0,7.1-2.4,7.1-7.1l0-13.8c-2.9-4.1-7.1-11-12.7-20.9L-4.3,68.9z"/>
		</g>
	</g>
</g>
<g transform="matrix( 1.0711517333984375, -0.1493682861328125, 0.1493682861328125, 1.0711517333984375, 458.75,71.05) ">
	<g>
		<g id="Layer1_1_MEMBER_1_MEMBER_3_FILL">
			<path class="st7" d="M64.1,79.1l0,9.6c0,4.8,2.4,7.1,7.1,7.1h7.4c3.2,0,5.6-1.8,7.2-5.5L74.2,71.9C67.5,71.9,64.1,74.3,64.1,79.1
				z"/>
		</g>
	</g>
</g>
<g transform="matrix( 1.0711517333984375, -0.1493682861328125, 0.1493682861328125, 1.0711517333984375, 458.75,71.05) ">
	<g>
		<g id="Layer1_1_MEMBER_1_MEMBER_4_FILL">
			<path class="st7" d="M30.6,92.3c1.4-1.4,2.1-3.1,2.1-5l0-6.7c0-0.1,0-0.3,0-0.4l-39.6,0c0,0.1,0,0.3,0,0.4l0,6.7
				c0,2,0.7,3.7,2.1,5s3.1,2.1,5,2.1l25.4,0C27.5,94.4,29.2,93.7,30.6,92.3z"/>
			<path class="st4" d="M25.6,73.4l-25.4,0c-2,0-3.7,0.7-5,2.1c-1.3,1.3-2,2.8-2.1,4.6l39.6,0c-0.1-1.8-0.8-3.3-2.1-4.6
				C29.2,74.1,27.5,73.4,25.6,73.4z"/>
		</g>
	</g>
</g>
<g transform="matrix( 1.0711517333984375, -0.1493682861328125, 0.1493682861328125, 1.0711517333984375, 458.75,71.05) ">
	<g>
		<g id="Layer1_1_MEMBER_1_MEMBER_5_FILL">
			<path class="st8" d="M48.4,73.4h-2.6c-2,0-3.7,0.7-5,2.1c-1.4,1.4-2.1,3.1-2.1,5l0,23.1c0,2,0.7,3.7,2.1,5c1.4,1.3,3.1,2.1,5,2.1
				h2.6L48.4,73.4z"/>
			<path class="st4" d="M56.8,75.5c-1.4-1.4-3.1-2.1-5-2.1l-3.3,0l0,37.4l3.3,0c2,0,3.7-0.7,5-2.1s2.1-3.1,2.1-5l0-23.1
				C58.9,78.6,58.2,76.9,56.8,75.5z"/>
		</g>
	</g>
</g>
<g transform="matrix( 1.0711517333984375, -0.1493682861328125, 0.1493682861328125, 1.0711517333984375, 458.75,71.95) ">
	<g>
		<g id="Layer1_1_MEMBER_1_MEMBER_6_FILL">
			<path class="st1" d="M33.1,98.5c0.4,0,0.7-0.1,0.9-0.4c0.2-0.2,0.4-0.6,0.4-0.9c0-0.4-0.1-0.7-0.4-0.9c-0.2-0.2-0.6-0.4-0.9-0.4
				l-38.5,0c-0.4,0-0.7,0.1-0.9,0.4c-0.2,0.2-0.4,0.6-0.4,0.9c0,0.4,0.1,0.7,0.4,0.9c0.2,0.2,0.6,0.4,0.9,0.4L33.1,98.5z"/>
		</g>
	</g>
</g>
<g transform="matrix( 1, 0, 0, 1, 0,0) ">
	<g>
		<g id="Layer1_1_MEMBER_2_MEMBER_0_FILL">
			<path class="st7" d="M193.7,246.9c-0.5,1-0.7,2-0.5,3.1s0.8,1.9,1.7,2.5c0.6,0.4,1.2,0.5,1.9,0.5c0,0.1,0.1,0.1,0.2,0.1
				c0.6,0.4,1.2,0.5,1.9,0.3c0.7-0.1,1.3-0.5,1.6-1.1l5.4-9c0.3,0.1,0.7,0.3,1,0.4l28.8,3.9l29.6,5.1c0.4,0,0.7-0.1,1.1-0.1
				l2.5,10.3c0.2,0.7,0.6,1.2,1.2,1.6c0.6,0.4,1.3,0.5,2,0.3c0.1,0,0.2-0.1,0.3-0.1c0.6,0.2,1.3,0.3,1.9,0.1c1-0.2,1.8-0.9,2.4-1.9
				c0.5-1,0.7-2,0.4-3.1c-0.3-1.1-0.9-2-1.8-2.6c-0.8-0.5-1.6-0.7-2.5-0.6l-1.2-5.1c6.8-2,10.7-6.4,11.5-13.2
				c1-8.6,5.1-14.6,12.3-18L188,203.8c5.8,5.4,7.9,12.4,6.3,20.9c-1.3,6.7,1.1,12.1,7,16l-2.6,4.4c-0.8-0.4-1.7-0.4-2.6-0.2
				C195.2,245.3,194.4,245.9,193.7,246.9z"/>
		</g>
	</g>
</g>
<g transform="matrix( 1, 0, 0, 1, 0,0) ">
	<g>
		<g id="Layer1_1_MEMBER_2_MEMBER_1_FILL">
			<path class="st4" d="M221.7,186.7c-1.1,0-2.1,0-3.2,0.2c-6,0.5-10.2,3.4-12.8,8.5c-1.7-0.7-3.5-0.8-5.3-0.4l-1.1,2
				c-2.3-1.1-3.9-0.5-4.7,1.8c-0.7,1.8-0.5,3.5,0.5,5l-1.3,1.4c0.4,2.2,1.7,3.2,4,3.2c0.8,0,1.7,0,2.5-0.1c3.9,4.7,8.8,6.7,14.9,5.9
				c2.4-0.3,4.6-1.3,6.6-3c1-0.8,2.1-1.3,3.4-1.3c5.9,0.6,11.7,1.4,17.6,2.5c1.6,4,4.7,5.8,9.2,5.2c1.4,3.7,4.2,5.7,8.1,6
				c2.4,0.3,4.4-0.4,6-2c3.3,1.9,6.7,1.8,9.9-0.3c2.6,1.1,4.8,0.7,6.8-1.2c2.6,0.7,5,0.2,7.1-1.5c0.1-0.1,0.3-0.2,0.5-0.2
				c1-1.6,0.6-3-1-3.9c-0.8-0.4-1.6-0.8-2.4-1.1c0.2-1.9-0.3-3.4-1.6-4.6c-0.6-0.5-1.3-0.7-2.1-0.7c-1.3-0.1-2.7,0-4,0.3
				c0.3-4.1-1-7.5-3.8-10.2c-1-1-2.1-1.7-3.4-2.1c-6.1-1.9-11.3-0.6-15.6,3.9c-3.1-3.1-6.5-3.3-10-0.6c-3.3-3.4-7.2-4.1-11.4-2.1
				C232.1,191.6,227.7,188,221.7,186.7z"/>
		</g>
	</g>
</g>
<g transform="matrix( 1.1454315185546875, 0.175384521484375, -0.175384521484375, 1.1454315185546875, 254,-288.25) ">
	<g>
		<g id="Layer1_1_MEMBER_2_MEMBER_1_MEMBER_0_FILL">
			<path class="st6" d="M19.5,448.5c-0.1,0.4,0,0.8,0.2,1.1c3.9,5.8,9.3,8.3,16.2,7.4c0.2,0,0.4,0,0.6,0c0.4,0,0.8-0.1,1.1-0.4
				c0.3-0.3,0.5-0.6,0.6-1c0-0.4-0.1-0.8-0.4-1.1s-0.6-0.5-1-0.5c-0.3,0-0.6,0-0.9,0c-0.1,0-0.1,0-0.2,0c-5.7,0.8-10.2-1.2-13.5-6
				c-0.2-0.3-0.6-0.6-1-0.6c-0.4-0.1-0.7,0-1.1,0.2C19.8,447.8,19.6,448.1,19.5,448.5z"/>
		</g>
	</g>
</g>
<g transform="matrix( 1, 0, 0, 1, 0,0) ">
	<g>
		<g id="Layer1_1_MEMBER_2_MEMBER_2_FILL">
			<path class="st6" d="M273,206.2c0.3-1.8-0.3-3.5-1.9-5.1c-1.5-1.5-3.6-2.5-6.1-2.9c-1.4-0.2-2.7-0.2-4,0
				c-0.2,0.2-0.5,0.5-0.7,0.7c-1,0.8-2.1,1.1-3.3,1.1c-1.1,0.9-1.8,2.1-2,3.4c-0.3,1.8,0.4,3.5,1.9,5.1c1.6,1.6,3.6,2.6,6.1,3
				s4.7,0,6.7-1C271.6,209.5,272.7,208.1,273,206.2 M252.2,193.5c0,0.1,0,0.2-0.1,0.3c-0.2,1.5,0.1,2.8,0.9,4
				c0.8,1.2,1.9,1.9,3.4,2.1c0.2,0,0.4,0,0.6,0c1.2,0,2.3-0.3,3.3-1.1c0.3-0.2,0.5-0.5,0.7-0.7c0.7-0.8,1.1-1.7,1.3-2.8
				c0.2-1.5-0.1-2.9-0.9-4.1s-2-1.9-3.4-2.1s-2.7,0.1-3.9,1C253.1,191.1,252.5,192.1,252.2,193.5c0.1,0,0.3,0.1,0.4,0.1
				c0.1,0,0.3,0.1,0.4,0.1c-0.1,0-0.3-0.1-0.4-0.1S252.3,193.5,252.2,193.5z"/>
		</g>
	</g>
	<g>
		<path id="Layer1_1_MEMBER_2_MEMBER_2_1_STROKES" class="st9" d="M247.1,192.4c1.8,0.1,3.5,0.5,5.1,1.1c0.1,0,0.3,0.1,0.4,0.1
			c0.1,0,0.3,0.1,0.4,0.1"/>
	</g>
	<g>
		<path id="Layer1_1_MEMBER_2_MEMBER_2_2_STROKES" class="st10" d="M252.2,193.5c0.3-1.3,0.9-2.4,2-3.2c1.1-0.9,2.4-1.2,3.9-1
			c1.4,0.2,2.6,0.9,3.4,2.1s1.1,2.6,0.9,4.1c-0.2,1.1-0.6,2-1.3,2.8c1.2-0.2,2.6-0.2,4,0c2.5,0.4,4.5,1.3,6.1,2.9s2.2,3.3,1.9,5.1
			c-0.3,1.8-1.4,3.3-3.4,4.3c-1.9,1-4.2,1.4-6.7,1s-4.5-1.4-6.1-3c-1.5-1.5-2.2-3.2-1.9-5.1c0.2-1.4,0.9-2.5,2-3.4
			c-0.2,0-0.4,0-0.6,0c-1.4-0.2-2.5-0.9-3.4-2.1c-0.8-1.2-1.2-2.6-0.9-4C252.1,193.7,252.2,193.6,252.2,193.5z M261.1,198.2
			c-0.2,0.2-0.5,0.5-0.7,0.7c-1,0.8-2.1,1.1-3.3,1.1"/>
	</g>
</g>
<g transform="matrix( 1.0572052001953125, -0.1196746826171875, 0.1196746826171875, 1.0572052001953125, 495.2,-187.85) ">
	<g>
		<g id="Layer1_1_MEMBER_3_MEMBER_0_FILL">
			<path class="st11" d="M-144,290.8h-28.2c-5.6,0-8.4,2.4-8.4,7.1l0,21.6c0,4.8,2.8,7.1,8.4,7.1h28.2c5.6,0,8.5-2.4,8.5-7.1v-21.6
				C-135.5,293.1-138.3,290.8-144,290.8z"/>
		</g>
	</g>
	<g transform="matrix( 0.9339141845703125, 0.105712890625, -0.105712890625, 0.9339141845703125, -482.3,123.1) ">
		<path id="Layer1_1_MEMBER_3_MEMBER_0_1_STROKES" class="st10" d="M-201,272.8h28.2c5.6,0,8.5,2.4,8.5,7.1l0,21.6
			c0,4.8-2.8,7.1-8.5,7.1l-28.2,0c-5.6,0-8.4-2.4-8.4-7.1l0-21.6C-209.5,275.1-206.6,272.8-201,272.8z"/>
	</g>
</g>
<g transform="matrix( 1.0572052001953125, -0.1196746826171875, 0.1196746826171875, 1.0572052001953125, 489.4,-187.85) ">
	<g transform="matrix( 0.9339141845703125, 0.105712890625, -0.105712890625, 0.9339141845703125, -476.9,123.7) ">
		<path id="Layer1_1_MEMBER_3_MEMBER_1_1_STROKES" class="st10" d="M-200.1,284.5c1.1,3.7,2.8,7.2,4.8,10.5c0.1,0.2,0.3,0.5,0.4,0.7
			c1.1-3.8,2-7.5,2.6-11.2l3.7,11.3l4.2-12"/>
	</g>
</g>
<g transform="matrix( 1.0572052001953125, -0.1196746826171875, 0.1196746826171875, 1.0572052001953125, 495.2,-187.85) ">
	<g transform="matrix( 0.9339141845703125, 0.105712890625, -0.105712890625, 0.9339141845703125, -482.3,123.1) ">
		<path id="Layer1_1_MEMBER_3_MEMBER_2_1_STROKES" class="st10" d="M-172.3,284.3c-0.6-0.3-1.3-0.5-1.9-0.6c-0.3,0-0.8-0.1-1.4-0.1
			c-2.2,0-3.8,0.6-4.9,1.9c-1,1.1-1.5,2.8-1.5,4.9c0,4.2,2.2,6.4,6.5,6.4c1,0,2-0.3,3.2-0.8"/>
	</g>
</g>
<g transform="matrix( 1, 0, 0, 1, 0,0) ">
	<g>
		<g id="Layer1_1_MEMBER_4_FILL">
			<path class="st6" d="M434.1,31.2c-0.2-0.3-0.3-0.6-0.5-0.9c-0.1-0.2-0.3-0.5-0.4-0.7c-2.4-3.5-5.5-5.5-9.3-5.9s-7.3,0.9-10.3,3.9
				c-3.1,3-4.8,6.8-5.3,11.4s0.5,8.7,2.8,12.2c2.4,3.6,5.5,5.5,9.3,5.9c0.5,0,1,0.1,1.5,0.1c3.2-0.1,6.2-1.4,8.8-4
				c2.9-2.8,4.7-6.4,5.2-10.7c0-0.2,0-0.4,0.1-0.7c0-0.2,0-0.5,0.1-0.7C436.3,37.4,435.6,34.1,434.1,31.2 M415,31.4
				c-1.5,1.8-2.4,4.2-2.7,7C412.7,35.5,413.6,33.2,415,31.4c1.4-1.8,3.1-3,4.9-3.6C418.1,28.4,416.5,29.6,415,31.4z"/>
			<path class="st12" d="M449.7,13.8c-3.8-0.4-7.2,1-10.2,4.1s-4.8,7.1-5.3,11.9c0,0.4-0.1,0.9-0.1,1.3c1.5,3,2.2,6.3,1.9,9.9
				c0.1,0.1,0.2,0.3,0.3,0.5c0.1,0.1,0.2,0.3,0.3,0.4c0.1,0.2,0.2,0.4,0.3,0.6c2.2,3.5,5.1,5.5,8.7,6c0.1,0,0.3,0,0.5,0.1
				c3.8,0.4,7.2-1,10.2-4.1s4.8-7.1,5.3-11.9s-0.4-9.1-2.7-12.8S453.5,14.2,449.7,13.8 M444.9,18.3c-1.8,1.8-3.1,4-3.8,6.4
				c-0.1,0.4-0.3,0.8-0.4,1.2c0.1-0.4,0.3-0.8,0.4-1.2C441.7,22.2,443,20.1,444.9,18.3z"/>
		</g>
	</g>
	<g>
		<path id="Layer1_1_MEMBER_4_1_STROKES" class="st13" d="M444.9,18.3c-1.8,1.8-3.1,4-3.8,6.4c-0.1,0.4-0.3,0.8-0.4,1.2 M419.9,27.8
			c-1.8,0.5-3.5,1.7-4.9,3.6c-1.5,1.8-2.4,4.2-2.7,7"/>
	</g>
</g>
<g transform="matrix( 1, 0, 0, 1, 0,0) ">
	<g>
		<g id="Layer1_1_MEMBER_4_MEMBER_0_FILL">
			<path class="st14" d="M444.5,46.5c-0.2,0.2-0.3,0.5-0.3,0.8s0,0.6,0,0.8c-0.6,7.1-2.7,12.5-6.1,16.2l0,0
				c-3.6,3.8-8.3,7.2-14.3,10.3l0,0c-4.6,2.4-8.2,5.2-10.8,8.4c0.8-2.9,2.2-5.6,4.3-8.2l0,0c4.6-5.8,6.7-12,6.4-18.6
				c0-0.3-0.1-0.6-0.4-0.8c-0.2-0.2-0.5-0.3-0.8-0.3s-0.6,0.1-0.8,0.4c-0.2,0.2-0.3,0.5-0.3,0.8c0.3,6.1-1.6,11.8-5.9,17.1l0,0
				c-3,3.8-4.8,7.9-5.3,12.3c-0.6-0.6-1.1-1-1.5-1.3l0,0l0,0c-0.3-0.2-1-0.4-2.1-0.4c-2-0.2-3.1,0.5-3.2,2.3
				c-0.2,0.6,0.1,1.2,0.9,1.7c0.7-0.3,1.5-0.6,2.4-0.7l0,0c0.4,0,1,0,1.9,0c-0.1-0.1-0.2-0.2-0.3-0.3c-0.4-0.1-0.9-0.2-1.4-0.4l0,0
				c-0.7-0.2-1.1-0.2-1.2,0l0,0c0.1-0.3,0.3-0.4,0.7-0.3l0,0c0.6,0,0.9,0.1,1,0.1s0.1,0.1,0.1,0.1c0.2,0.1,0.4,0.3,0.7,0.5
				c0.4,0.1,0.7,0.2,1,0.2s0.5,0.2,0.7,0.4c-0.1,0-0.2-0.1-0.3-0.1h-0.1l0,0c-0.4,0-0.7-0.1-1-0.1c0.3,0.3,0.6,0.7,0.9,1l0,0
				c0.1,0.1,0.2,0.2,0.3,0.2c-0.1,0.2-0.2,0.3-0.3,0.5l0,0c-0.2-0.2-0.5-0.3-0.7-0.3c-0.1,0-0.1,0-0.1,0l-0.4-0.5v0.1
				c0,0.2,0,0.3,0.1,0.4c-0.1,0.1-0.2,0.1-0.3,0.2l-0.1,0.1c-0.5-0.1-1-0.3-1.5-0.4l0,0c-0.8-0.2-1.5-0.5-1.9-0.8
				c-0.8,0.4-1.6,1-2.2,1.7c-0.1,0.2-0.2,0.4-0.3,0.6l-0.1,1.5c0,0.3,0,0.5,0.2,0.7c0.1,0.2,0.3,0.4,0.6,0.4c0.1,0,0.3,0.1,0.6,0.2
				c0.5,0.2,1.1,0.3,1.7,0.2h-0.1c1,0,2.1-0.5,3.4-1.5c-0.2,0.7-0.4,1.4-0.5,2.2c0,0.3,0,0.6,0.2,0.8c0.2,0.2,0.4,0.4,0.7,0.4
				c0.3,0.1,0.6,0,0.8-0.2c0.2-0.2,0.4-0.4,0.4-0.7c0.2-1.1,0.5-2.1,1-3.1c0,0.1,0.1,0.2,0.1,0.3l0,0c0.5,1.8,0.7,3.1,0.6,3.9l0,0
				c-0.1,1.3-0.8,2.5-1.8,3.7l0,0c-0.7,0.7-1.6,1.6-2.8,2.7c-0.2,0.2-0.3,0.5-0.3,0.8s0.1,0.6,0.3,0.8c0.2,0.2,0.5,0.4,0.8,0.4
				s0.6-0.1,0.8-0.3c1.2-1.1,2.1-2,2.8-2.7l0,0c1.5-1.6,2.3-3.2,2.4-5l0,0c0.1-1-0.1-2.6-0.7-4.8l0,0c-0.2-0.8-0.4-1.5-0.5-2
				c3.2-2.8,7.4-4.8,12.6-6.1c5-1.2,9.9-2.5,14.7-3.9c12.1-3.5,18.7-9.7,20-18.6c0.1-0.3,0-0.6-0.2-0.8c-0.2-0.2-0.4-0.4-0.7-0.4
				c-0.3,0-0.6,0-0.8,0.2c-0.2,0.2-0.4,0.4-0.4,0.7c-1.3,8-7.5,13.5-18.5,16.8c-4.8,1.4-9.7,2.7-14.6,3.9c-3.8,0.9-7.2,2.3-10,4
				c2.4-3,5.8-5.7,10.2-8l0,0c6.2-3.2,11.1-6.8,14.8-10.7l0,0c3.8-4,6.1-9.9,6.7-17.6c0,0,0,0,0-0.1c0-0.3,0-0.6,0-0.9
				s-0.1-0.6-0.3-0.8c-0.2-0.2-0.5-0.3-0.8-0.3C445,46.2,444.7,46.3,444.5,46.5 M406.9,89.5c0.1,0,0.2,0,0.4,0
				c-1.1,1-2.1,1.6-2.8,1.6c0,0,0,0-0.1,0s-0.3,0-0.4,0l0,0h-0.1c0-0.1,0.1-0.1,0.1-0.2C404.7,90,405.7,89.6,406.9,89.5L406.9,89.5z
				"/>
		</g>
	</g>
</g>
<g transform="matrix( 1, 0, 0, 1, 0,0) ">
	<g>
		<g id="Layer1_1_MEMBER_4_MEMBER_1_FILL">
			<path class="st11" d="M462.9,33.9c-3.8-0.4-7.2,0.9-10.2,4s-4.8,7-5.3,11.8s0.4,9,2.7,12.6c2.3,3.7,5.4,5.7,9.2,6.1
				c3.8,0.4,7.2-1,10.2-4.1s4.8-7,5.3-11.8s-0.4-9-2.7-12.6C469.8,36.3,466.7,34.3,462.9,33.9 M454.1,42.9c1.3-3.3,3.9-4.9,7.7-4.9
				C458,38,455.5,39.6,454.1,42.9 M453,46.9l-0.2,1.9L453,46.9z"/>
		</g>
	</g>
	<g>
		<path id="Layer1_1_MEMBER_4_MEMBER_1_1_STROKES" class="st13" d="M454.1,42.9c1.3-3.3,3.9-4.9,7.7-4.9 M453,46.9l-0.2,1.9"/>
	</g>
</g>
<g transform="matrix( 1, 0, 0, 1, 0,0) ">
	<g>
		<g id="Layer1_1_MEMBER_5_MEMBER_0_FILL">
			<path class="st15" d="M110.4,20.1c-2.3-3.3-5-3.8-8.3-1.5L68.6,41.8c-3.3,2.3-3.8,5-1.5,8.3l28.2,40.7c2.3,3.3,5.1,3.8,8.4,1.5
				l33.5-23.2c3.3-2.3,3.8-5,1.5-8.3L110.4,20.1 M91.4,46.6l5.7-3.9L91.4,46.6 M92.6,76.3l6.4,3.2l-1.5-8.8l1.5,8.8L92.6,76.3
				 M83.5,64.3l6.4,3.6l-1.2-9.5l1.2,9.5L83.5,64.3 M75.6,53l5.9,3.5L79.6,46l1.9,10.5L75.6,53 M106.4,68.3l17.4-12.4L106.4,68.3
				 M109.1,73.2l10.4-7.6L109.1,73.2 M94,50.9c1-0.7,3.2-2.2,6.3-4.4l13.5-9.4l-13.5,9.4C97.2,48.7,95.1,50.2,94,50.9 M102.3,62.3
				l13.4-9.3L102.3,62.3 M97.5,55.4l6.2-4.3L97.5,55.4 M99.4,58.6l19.4-13.4L99.4,58.6 M87.6,42.7l18.6-12.9L87.6,42.7z"/>
		</g>
	</g>
	<g>
		<path id="Layer1_1_MEMBER_5_MEMBER_0_1_STROKES" class="st16" d="M91.4,46.6l5.7-3.9 M92.6,76.3l6.4,3.2l-1.5-8.8 M83.5,64.3
			l6.4,3.6l-1.2-9.5 M75.6,53l5.9,3.5L79.6,46 M106.4,68.3l17.4-12.4 M109.1,73.2l10.4-7.6 M94,50.9c1-0.7,3.2-2.2,6.3-4.4l13.5-9.4
			 M102.3,62.3l13.4-9.3 M97.5,55.4l6.2-4.3 M99.4,58.6l19.4-13.4 M87.6,42.7l18.6-12.9"/>
	</g>
</g>
<g transform="matrix( 1, 0, 0, 1, 856.7,208.75) ">
	<g transform="matrix( 1, 0, 0, 1, 0,0) ">
		<g>
			<path id="Symbol_1_0_Layer0_0_1_STROKES" class="st9" d="M-690.1-163l1.9,9.7l10.8-5.2 M-631.9-189.4l5.7,7l-6.4,6.2
				 M-687.9-155.3c13.4-21.6,33.6-30.8,60.6-27.4"/>
		</g>
	</g>
</g>
<g transform="matrix( 1, 0, 0, 1, 0,0) ">
	<g>
		<g id="Layer1_1_MEMBER_7_FILL">
			<path class="st12" d="M85.4,184.5l-0.6-2.8l-0.1-0.7c-0.4-1.9-1.5-2.6-3.4-2.2l-4.9,1l-1.2-5.6c-0.4-1.9-1.5-2.6-3.5-2.2l-4.9,1
				c-1.9,0.4-2.6,1.5-2.2,3.4l1.2,5.6l-5.9,1.3h-0.1c-1.6,0.5-2.3,1.6-1.9,3.3l0.7,3.6c0.4,1.8,1.5,2.6,3.4,2.2l5.8-1.2l1.2,5.7
				c0.4,1.9,1.6,2.6,3.5,2.2l4.8-1c1.9-0.4,2.7-1.6,2.2-3.5l-1.2-5.7l4.9-1C85.1,187.5,85.8,186.4,85.4,184.5z"/>
			<path class="st4" d="M103.9,177.7c-0.2,0-0.5,0.1-0.7,0.1l-18.4,3.9l0.6,2.8c0.4,1.9-0.3,3.1-2.2,3.5l-4.9,1l1.2,5.7
				c0.4,1.9-0.3,3.1-2.2,3.5l-4.8,1c-1.9,0.4-3.1-0.3-3.5-2.2l-1.2-5.7l-5.8,1.2c-1.9,0.3-3-0.4-3.4-2.2l-0.7-3.6
				c-0.4-1.7,0.3-2.8,1.9-3.3l-0.3,0.1c-1.9,0.4-2.6,1.5-2.2,3.4l0.1,0.7l-17,3.6c-0.6,0.1-1.1,0.1-1.5,0.1l4.6,21.5
				c0.4,1.9,1.6,2.7,3.5,2.3l59.5-12.6c1.9-0.4,2.6-1.6,2.2-3.5L103.9,177.7z"/>
			<path class="st7" d="M99.9,148.1c-0.4-1.9-1.5-2.6-3.4-2.2l-63,13.3c-1.9,0.4-2.7,1.5-2.3,3.4l5.6,26.2c0.3,1.3,0.9,2.1,1.9,2.3
				c0.4,0,0.9,0,1.5-0.1l17-3.6l-0.1-0.7c-0.4-1.9,0.3-3,2.2-3.4l0.3-0.1h0.1l5.9-1.3l-1.2-5.6c-0.4-1.9,0.4-3,2.2-3.4l4.9-1
				c1.9-0.4,3.1,0.3,3.5,2.2l1.2,5.6l4.9-1c1.9-0.4,3,0.3,3.4,2.2l0.1,0.7l18.4-3.9c0.2,0,0.4-0.1,0.7-0.1c1.4-0.6,1.9-1.7,1.6-3.3
				L99.9,148.1z"/>
		</g>
	</g>
</g>
<g transform="matrix( 1, 0, 0, 1, 0,0) ">
	<g>
		<g id="Layer1_1_MEMBER_8_FILL">
			<path class="st17" d="M216.2,122.8c-0.7,0-1.4,0.4-1.9,1s-0.7,1.3-0.7,2l1,13.8c0,0.7,0.3,1.3,0.8,1.8c0.7,0.5,1.4,0.7,2.2,0.7
				h0.7c0.8,0,1.4-0.4,2-1c0.5-0.6,0.8-1.2,0.7-2l-1-13.8c0-0.7-0.3-1.4-0.9-1.9c-0.6-0.5-1.3-0.8-2.1-0.8L216.2,122.8 M236.7,106.5
				c1.9-1.2,3.1-3,3.5-5.3s0-4.4-1.4-6.3c-1.3-1.8-3.1-2.9-5.3-3.4c-2.3-0.4-4.4,0-6.2,1.2c-1.8,1.3-3,3.2-3.4,5.4
				c-0.4,2.3,0,4.3,1.3,6.2c1.3,1.9,3.1,3.1,5.4,3.5C232.7,108.3,234.8,107.8,236.7,106.5 M193.4,114.3l-0.5-0.4
				c-0.6-0.6-1.3-0.9-2.2-0.8c-0.7,0-1.4,0.3-1.9,0.9l-9.5,9.9c-0.6,0.5-0.8,1.2-0.8,1.9c0,0.8,0.3,1.5,0.9,2.1l0.4,0.4
				c0.6,0.6,1.3,0.9,2.2,0.9c0.8,0,1.5-0.3,2.1-0.9l9.6-9.9c0.5-0.5,0.8-1.2,0.8-1.9C194.3,115.6,194,114.9,193.4,114.3 M202.7,83.8
				c-1.3-1.9-3.1-3-5.4-3.4c-2.3-0.4-4.4,0-6.3,1.3c-1.8,1.3-3,3.1-3.4,5.4s0,4.3,1.3,6.1c1.3,1.9,3.1,3.1,5.4,3.5s4.4,0,6.3-1.3
				c1.9-1.2,3-3,3.4-5.3C204.4,87.8,204,85.7,202.7,83.8z"/>
		</g>
	</g>
</g>
<g transform="matrix( 1, 0, 0, 1, 0,0) ">
	<g>
		<g id="Layer1_1_MEMBER_8_MEMBER_0_FILL">
			<path class="st18" d="M184,105.1c-1.2,6.7,0.1,12.8,4,18.3c3.8,5.6,9.1,9.1,15.8,10.3c6.6,1.2,12.7-0.1,18.3-4
				c5.6-3.8,9.1-9.1,10.3-15.7c1.2-6.7-0.1-12.9-4-18.5c-3.8-5.6-9.1-9-15.7-10.2c-6.7-1.2-12.8,0-18.4,3.9
				C188.7,93.1,185.3,98.4,184,105.1 M191.7,120.9c-3.1-4.6-4.2-9.6-3.2-15c1-5.5,3.8-9.8,8.3-12.9s9.5-4.2,15-3.1
				c5.4,1,9.7,3.8,12.8,8.3c3.2,4.6,4.3,9.6,3.3,15.1c-1,5.4-3.8,9.7-8.4,12.8c-4.5,3.1-9.4,4.2-14.9,3.2
				C199.2,128.2,194.9,125.5,191.7,120.9 M203.9,126.4c0.4-0.2,0.6-0.5,0.7-0.9c0.1-0.4,0-0.8-0.3-1.3c-0.2-0.3-0.6-0.5-1-0.6
				s-0.8,0-1.2,0.1c-0.3,0.3-0.6,0.7-0.6,1.1c-0.1,0.4,0,0.8,0.2,1.1c0.3,0.4,0.7,0.6,1.1,0.7S203.6,126.7,203.9,126.4 M212.6,123.7
				c-0.4-0.1-0.8-0.2-1.2,0s-0.7,0.5-0.9,0.9c-0.1,0.4-0.1,0.8,0,1.2c0.2,0.4,0.5,0.7,0.8,0.9c0.4,0.2,0.8,0.2,1.3,0
				c0.4-0.1,0.7-0.4,0.9-0.9c0.2-0.4,0.2-0.8,0.1-1.2C213.4,124.2,213,123.9,212.6,123.7 M220.5,121c-0.1-0.4-0.3-0.8-0.6-1.1
				c-0.3-0.3-0.7-0.4-1.2-0.3c-0.4,0-0.7,0.2-1,0.6s-0.4,0.8-0.4,1.2c0.1,0.4,0.3,0.8,0.6,1.1c0.3,0.2,0.7,0.3,1.1,0.2
				c0.5,0,0.9-0.1,1.2-0.5C220.5,121.8,220.6,121.4,220.5,121 M223.6,115.6c0.4-0.2,0.6-0.5,0.7-0.9c0.1-0.4,0-0.8-0.3-1.2
				c-0.2-0.3-0.5-0.5-0.9-0.6s-0.8,0-1.2,0.1c-0.3,0.2-0.5,0.6-0.6,1s0,0.8,0.2,1.1c0.2,0.4,0.6,0.6,1,0.7
				C223,115.9,223.3,115.8,223.6,115.6 M224.1,106c0.2-0.4,0.2-0.8,0.1-1.2c-0.2-0.4-0.5-0.7-0.8-0.9c-0.4-0.2-0.8-0.2-1.2,0
				c-0.3,0.1-0.6,0.4-0.9,0.8c-0.1,0.4-0.1,0.8,0.1,1.2c0.1,0.4,0.4,0.6,0.7,0.8c0.4,0.1,0.8,0.1,1.2-0.1
				C223.8,106.7,224,106.4,224.1,106 M196.9,119.9c0-0.4-0.2-0.8-0.6-1c-0.3-0.3-0.7-0.4-1.2-0.3c-0.4,0-0.7,0.2-1,0.6
				c-0.3,0.3-0.4,0.7-0.4,1.2c0.1,0.4,0.3,0.8,0.6,1.1c0.4,0.2,0.8,0.4,1.2,0.3s0.8-0.3,1.1-0.6C196.9,120.8,197,120.3,196.9,119.9
				 M198.7,97.6c0-0.5-0.2-0.9-0.5-1.2c-0.4-0.2-0.8-0.3-1.2-0.3c-0.5,0-0.8,0.2-1.1,0.6c-0.2,0.3-0.4,0.7-0.4,1.2
				c0,0.4,0.3,0.8,0.6,1c0.3,0.3,0.7,0.4,1.1,0.4c0.5-0.1,0.9-0.3,1.2-0.6C198.8,98.4,198.8,98,198.7,97.6 M204,92.6
				c-0.4,0.1-0.7,0.4-1,0.9c-0.1,0.4-0.1,0.8,0,1.2c0.2,0.4,0.4,0.7,0.8,0.9c0.4,0.1,0.8,0.1,1.2,0c0.4-0.2,0.7-0.5,0.9-0.9
				s0.2-0.8,0-1.2c-0.2-0.4-0.5-0.7-0.9-0.9C204.7,92.5,204.4,92.5,204,92.6 M220.1,98.5c0-0.5-0.2-0.8-0.5-1s-0.7-0.3-1.2-0.3
				c-0.3,0-0.6,0.2-0.9,0.5c-0.3,0.3-0.4,0.7-0.4,1.2c0.1,0.3,0.3,0.7,0.6,1c0.3,0.2,0.7,0.3,1,0.4c0.5-0.1,0.8-0.3,1.1-0.6
				C220.1,99.2,220.2,98.9,220.1,98.5 M213.8,93.4c-0.4-0.1-0.8,0-1.2,0.2c-0.3,0.3-0.5,0.6-0.6,1s0,0.8,0.2,1.2
				c0.3,0.4,0.7,0.6,1.1,0.7c0.4,0.1,0.8,0,1.2-0.3c0.4-0.2,0.6-0.5,0.7-1c0.1-0.4,0-0.8-0.3-1.2C214.5,93.7,214.2,93.5,213.8,93.4
				 M191.4,111.3c-0.4,0.1-0.7,0.4-0.9,0.8s-0.2,0.8,0,1.3c0.1,0.4,0.4,0.6,0.8,0.7c0.4,0.2,0.8,0.2,1.2,0.1s0.7-0.4,0.9-0.9
				c0.1-0.4,0.1-0.8,0-1.2c-0.1-0.4-0.4-0.7-0.9-0.9C192.2,111.1,191.8,111.1,191.4,111.3 M193.2,102.3c-0.4-0.1-0.8,0-1.2,0.2
				c-0.3,0.3-0.5,0.6-0.6,1s0,0.8,0.1,1.2c0.3,0.4,0.7,0.6,1.1,0.7c0.4,0.1,0.8,0,1.1-0.3c0.4-0.3,0.6-0.6,0.7-1
				c0.1-0.4,0-0.8-0.3-1.2C193.9,102.6,193.6,102.4,193.2,102.3z"/>
			<path class="st2" d="M188.5,105.9c-1,5.4,0.1,10.4,3.2,15c3.1,4.5,7.5,7.3,12.9,8.3s10.4-0.1,14.9-3.2c4.6-3.1,7.4-7.4,8.4-12.8
				c1-5.5-0.1-10.5-3.3-15.1c-3.1-4.5-7.4-7.3-12.8-8.3c-5.5-1-10.5,0-15,3.1C192.3,96.1,189.5,100.4,188.5,105.9 M192,102.5
				c0.4-0.2,0.8-0.3,1.2-0.2s0.7,0.3,1,0.6c0.3,0.4,0.4,0.8,0.3,1.2c-0.1,0.4-0.3,0.7-0.7,1c-0.3,0.2-0.7,0.3-1.1,0.3
				c-0.4-0.1-0.8-0.3-1.1-0.7c-0.2-0.4-0.2-0.8-0.1-1.2C191.5,103.2,191.7,102.8,192,102.5 M190.5,112.1c0.2-0.4,0.5-0.7,0.9-0.8
				c0.4-0.2,0.8-0.2,1.2,0s0.7,0.5,0.9,0.9c0.1,0.4,0.1,0.8,0,1.2c-0.2,0.4-0.5,0.7-0.9,0.9c-0.4,0.2-0.8,0.1-1.2-0.1
				c-0.4-0.1-0.7-0.4-0.8-0.7C190.4,113,190.3,112.6,190.5,112.1 M212.6,93.6c0.4-0.2,0.8-0.3,1.2-0.2c0.4,0.1,0.7,0.3,1,0.6
				c0.3,0.4,0.4,0.8,0.3,1.2c-0.1,0.4-0.3,0.8-0.7,1c-0.4,0.3-0.8,0.4-1.2,0.3s-0.8-0.3-1.1-0.7c-0.2-0.3-0.3-0.7-0.2-1.2
				C212.1,94.3,212.3,93.9,212.6,93.6 M219.6,97.5c0.3,0.2,0.5,0.6,0.5,1c0.1,0.4,0,0.7-0.3,1c-0.2,0.3-0.6,0.5-1.1,0.6
				c-0.3,0-0.7-0.1-1-0.4s-0.5-0.6-0.6-1c0-0.4,0.1-0.8,0.4-1.2c0.2-0.3,0.5-0.5,0.9-0.5C218.9,97.1,219.3,97.2,219.6,97.5
				 M203,93.5c0.2-0.4,0.6-0.7,1-0.9c0.4-0.2,0.7-0.2,1.1,0c0.4,0.2,0.7,0.5,0.9,0.9c0.1,0.4,0.1,0.8,0,1.2
				c-0.1,0.4-0.4,0.7-0.9,0.9c-0.4,0.1-0.8,0.1-1.2,0c-0.4-0.2-0.6-0.5-0.8-0.9C202.9,94.3,202.9,93.9,203,93.5 M198.3,96.5
				c0.3,0.3,0.5,0.7,0.5,1.2c0.1,0.4,0,0.7-0.2,1.1c-0.3,0.3-0.7,0.5-1.2,0.6c-0.4,0-0.8-0.1-1.1-0.4c-0.4-0.2-0.6-0.6-0.6-1
				s0.1-0.8,0.4-1.2c0.2-0.4,0.6-0.6,1.1-0.6C197.5,96.1,197.9,96.2,198.3,96.5 M196.4,118.9c0.4,0.2,0.6,0.6,0.6,1
				c0,0.5,0,0.9-0.3,1.2c-0.3,0.3-0.7,0.5-1.1,0.6c-0.4,0-0.8-0.1-1.2-0.3c-0.3-0.3-0.5-0.7-0.6-1.1c0-0.4,0.1-0.8,0.4-1.2
				c0.2-0.3,0.6-0.5,1-0.6C195.7,118.5,196.1,118.6,196.4,118.9 M224.2,104.9c0.1,0.4,0.1,0.8-0.1,1.2c-0.1,0.4-0.4,0.6-0.7,0.7
				c-0.3,0.2-0.7,0.2-1.2,0.1c-0.3-0.2-0.6-0.4-0.7-0.8c-0.1-0.4-0.2-0.8-0.1-1.2c0.2-0.4,0.5-0.6,0.9-0.8c0.4-0.2,0.8-0.2,1.2,0
				C223.7,104.1,224,104.4,224.2,104.9 M224.3,114.6c-0.1,0.4-0.3,0.7-0.7,0.9c-0.3,0.2-0.6,0.3-1,0.3c-0.4-0.1-0.8-0.3-1-0.7
				c-0.2-0.3-0.3-0.7-0.2-1.1s0.3-0.8,0.6-1s0.7-0.2,1.2-0.1c0.4,0.1,0.7,0.3,0.9,0.6C224.3,113.8,224.4,114.2,224.3,114.6
				 M220,119.9c0.3,0.3,0.5,0.6,0.6,1.1c0,0.4,0,0.8-0.3,1.2c-0.3,0.4-0.7,0.5-1.2,0.5c-0.4,0.1-0.8,0-1.1-0.2
				c-0.3-0.3-0.5-0.6-0.6-1.1c0-0.4,0.1-0.8,0.4-1.2c0.2-0.3,0.5-0.5,1-0.6C219.3,119.5,219.7,119.6,220,119.9 M211.5,123.7
				c0.4-0.1,0.8-0.1,1.2,0c0.4,0.2,0.7,0.5,1,0.9c0.1,0.3,0.1,0.7-0.1,1.2c-0.2,0.4-0.5,0.7-0.9,0.9c-0.4,0.1-0.8,0.1-1.3,0
				c-0.3-0.2-0.6-0.5-0.8-0.9c-0.1-0.4-0.1-0.8,0-1.2C210.7,124.2,211.1,123.9,211.5,123.7 M204.7,125.5c-0.1,0.4-0.3,0.7-0.7,0.9
				c-0.3,0.3-0.7,0.4-1.1,0.3s-0.8-0.3-1.1-0.7c-0.2-0.3-0.3-0.7-0.2-1.1s0.3-0.8,0.6-1.1c0.4-0.2,0.8-0.2,1.2-0.1s0.7,0.3,1,0.6
				C204.6,124.7,204.7,125.1,204.7,125.5z"/>
		</g>
	</g>
</g>
<g transform="matrix( 1, 0, 0, 1, 0,0) ">
	<g>
		<g id="Layer1_1_MEMBER_8_MEMBER_0_MEMBER_0_FILL">
			<path class="st18" d="M207.1,98.7c-0.3,0-0.6,0.1-0.8,0.4c-0.2,0.2-0.3,0.5-0.2,0.9l0.7,10.6v0.1c0,0,0,0.1,0.1,0.1
				c0,0.3,0.1,0.5,0.3,0.7c0.3,0.3,0.6,0.4,0.9,0.3l6.5-0.4c0.3,0,0.6-0.2,0.7-0.5c0.2-0.2,0.3-0.4,0.3-0.8c0-0.2-0.2-0.5-0.4-0.7
				s-0.4-0.3-0.8-0.3l-5.4,0.3l-0.6-9.8c0-0.3-0.2-0.6-0.4-0.8C207.6,98.7,207.4,98.6,207.1,98.7z"/>
		</g>
	</g>
</g>
<g transform="matrix( 1, 0, 0, 1, 0,0) ">
	<g>
		<g id="Layer1_1_MEMBER_9_FILL_2_">
			<path class="st18" d="M127.3,277.2c0.3,0.5,0.6,0.8,1.1,0.9c0.5,0.1,1,0.1,1.4-0.2c0.5-0.2,0.8-0.6,0.9-1.1
				c0.1-0.3,0.2-0.6,0.3-0.9c0.2-0.5,0.1-1-0.1-1.5c-0.2-0.5-0.6-0.8-1-0.9c-0.5-0.2-1-0.1-1.5,0.1c-0.5,0.2-0.8,0.6-0.9,1
				s-0.3,0.8-0.4,1.2C127,276.3,127,276.8,127.3,277.2 M100.7,287.7c0.3,0.5,0.6,0.8,1.1,0.9c0.5,0.1,1,0.1,1.4-0.2
				c0.5-0.2,0.8-0.6,0.9-1.1c0.1-0.3,0.2-0.5,0.3-0.8c0.2-0.5,0.2-0.9,0-1.4s-0.5-0.8-1-1s-0.9-0.2-1.4,0s-0.8,0.5-1,1
				c-0.2,0.4-0.3,0.9-0.4,1.3C100.4,286.8,100.4,287.3,100.7,287.7 M117.7,254.3L117.7,254.3c-2.5-1.6-5.3-2.2-8.3-1.8h0.1
				c-3,0.4-5.3,1.6-7,3.8c-0.3,0.4-0.4,0.9-0.4,1.4c0.1,0.5,0.3,0.9,0.7,1.2c0.4,0.3,0.9,0.5,1.4,0.4c0.5,0,0.9-0.3,1.2-0.7
				c1.1-1.3,2.6-2.1,4.5-2.4l0,0c2.1-0.3,4,0.1,5.8,1.2l0,0c1.7,1,2.8,2.4,3.3,4.2v0.1c0.4,1.7,0,3.3-1,4.7l0,0
				c-1.1,1.4-2.7,2.3-4.7,2.5l0,0c-2.9,0.3-5.1,0.9-6.7,1.8c-1.7,0.8-3.1,3.1-4,6.8c-0.1,0.5,0,1,0.2,1.4c0.3,0.4,0.7,0.7,1.2,0.8
				s1,0.1,1.4-0.2s0.7-0.6,0.8-1.2c0.6-2.3,1.3-3.8,2.2-4.4h0.1c1.2-0.7,2.9-1.1,5.1-1.3l0,0c3.1-0.3,5.5-1.6,7.2-3.9l0,0
				c1.8-2.4,2.3-5,1.7-7.8c0,0,0,0,0-0.1C122,258,120.4,255.9,117.7,254.3 M142.2,294.8c-0.5,0.2-0.8,0.5-1,1
				c-0.2,0.4-0.3,0.9-0.4,1.3c-0.1,0.5-0.1,1,0.1,1.4c0.3,0.5,0.6,0.8,1.1,0.9c0.5,0.1,1,0.1,1.4-0.2c0.5-0.2,0.8-0.6,0.9-1.1
				c0.1-0.3,0.2-0.5,0.3-0.8c0.2-0.5,0.2-0.9,0-1.4s-0.5-0.8-1-1C143.2,294.6,142.7,294.6,142.2,294.8 M142.8,267.1
				c-0.3,0.4-0.4,0.9-0.4,1.4c0.1,0.5,0.3,0.9,0.7,1.2s0.9,0.5,1.4,0.4c0.5,0,0.9-0.3,1.2-0.7c1.1-1.3,2.6-2.1,4.5-2.4l0,0
				c2.1-0.3,4,0.1,5.8,1.2l0,0c1.7,1,2.8,2.4,3.3,4.2v0.1c0.4,1.7,0,3.3-1,4.7l0,0c-1.1,1.4-2.7,2.3-4.7,2.5l0,0
				c-2.9,0.3-5.1,0.9-6.7,1.8c-1.7,0.8-3.1,3.1-4,6.8c-0.1,0.5,0,1,0.2,1.4c0.3,0.4,0.7,0.7,1.2,0.8s1,0.1,1.4-0.2s0.7-0.6,0.8-1.2
				c0.6-2.3,1.3-3.8,2.2-4.4h0.1c1.2-0.7,2.9-1.1,5.1-1.3l0,0c3.1-0.3,5.5-1.6,7.2-3.9l0,0c1.8-2.4,2.3-5,1.7-7.8c0,0,0,0,0-0.1
				c-0.7-2.7-2.3-4.9-4.9-6.5l0,0c-2.5-1.6-5.3-2.2-8.3-1.8h0.1C146.8,263.7,144.4,264.9,142.8,267.1 M149.3,250.4
				C149.3,250.4,149.2,250.4,149.3,250.4c-0.7-2.8-2.3-5-5-6.7l0,0c-2.5-1.5-5.3-2.1-8.3-1.8l0,0c-2.9,0.4-5.2,1.7-6.9,3.8
				c-0.3,0.4-0.5,0.9-0.4,1.3c0.1,0.5,0.3,0.9,0.7,1.3c0.4,0.3,0.9,0.4,1.3,0.4c0.5,0,0.9-0.3,1.3-0.7c1.1-1.3,2.6-2.1,4.5-2.4
				c2.1-0.3,4,0.2,5.8,1.2l0,0c1.7,1.1,2.8,2.5,3.3,4.3v0.1c0.4,1.7,0,3.3-1,4.6c-1.1,1.5-2.7,2.3-4.7,2.5h0.1
				c-2.9,0.2-5.1,0.8-6.7,1.8l0,0c-1.8,0.9-3.1,3.2-4,6.9c-0.1,0.5,0,1,0.2,1.4c0.3,0.4,0.7,0.7,1.2,0.8s1,0.1,1.4-0.2
				s0.7-0.7,0.8-1.2c0.6-2.3,1.3-3.8,2.2-4.5l0,0c1.2-0.7,2.9-1.1,5.1-1.2l0,0c3.1-0.3,5.5-1.6,7.3-3.9
				C149.3,255.9,149.9,253.3,149.3,250.4z"/>
		</g>
	</g>
</g>
<g transform="matrix( 0.013275146484375, 1, -1, 0.013275146484375, 847.4,349.55) ">
	<g transform="matrix( 1, 0, 0, 1, 0,0) ">
		<g>
			<path id="Symbol_1_0_Layer0_0_1_STROKES_1_" class="st9" d="M-236.7,710.1l1.9,9.7l10.8-5.2 M-178.5,683.6l5.7,7l-6.4,6.2
				 M-234.5,717.7c13.4-21.6,33.6-30.7,60.6-27.4"/>
		</g>
	</g>
</g>
<g transform="matrix( -0.927886962890625, -0.3746337890625, 0.3746337890625, -0.927886962890625, 984.6,624.9) ">
	<g transform="matrix( 1, 0, 0, 1, 0,0) ">
		<g>
			<path id="Symbol_1_0_Layer0_0_1_STROKES_2_" class="st9" d="M776.2,31.3l1.9,9.7l10.8-5.2 M834.5,4.8l5.7,7l-6.4,6.2 M778.4,38.9
				C791.8,17.3,812,8.1,839,11.5"/>
		</g>
	</g>
</g>
<g transform="matrix( 0.7640228271484375, -0.6447601318359375, 0.6447601318359375, 0.7640228271484375, 1148.05,437.45) ">
	<g transform="matrix( 1, 0, 0, 1, 0,0) ">
		<g>
			<path id="Symbol_1_0_Layer0_0_1_STROKES_3_" class="st9" d="M-424.2-653.6l1.9,9.7l10.8-5.2 M-365.9-680l5.7,7l-6.4,6.2
				 M-421.9-645.9c13.4-21.6,33.6-30.8,60.6-27.4"/>
		</g>
	</g>
</g>
<g transform="matrix( 0.91339111328125, -0.4071502685546875, 0.4071502685546875, 0.91339111328125, 990.4,338.85) ">
	<g transform="matrix( 1, 0, 0, 1, 0,0) ">
		<g>
			<path id="Symbol_1_0_Layer0_0_1_STROKES_4_" class="st9" d="M-570.4-470.4l1.9,9.7l10.8-5.2 M-512.2-496.9l5.7,7l-6.4,6.2
				 M-568.2-462.8c13.4-21.6,33.6-30.8,60.6-27.4"/>
		</g>
	</g>
</g>
<g transform="matrix( 0.6530303955078125, -0.756439208984375, 0.756439208984375, 0.6530303955078125, 644.85,338.85) ">
	<g transform="matrix( 1, 0, 0, 1, 0,0) ">
		<g>
			<path id="Symbol_1_0_Layer0_0_1_STROKES_5_" class="st9" d="M-248.1-599.5l1.9,9.7l10.8-5.2 M-189.8-626l5.7,7l-6.4,6.2
				 M-245.8-591.9c13.4-21.6,33.6-30.8,60.6-27.4"/>
		</g>
	</g>
</g>
<g transform="matrix( -0.2812347412109375, -0.95880126953125, 0.95880126953125, -0.2812347412109375, 688.4,582.7) ">
	<g transform="matrix( 1, 0, 0, 1, 0,0) ">
		<g>
			<path id="Symbol_1_0_Layer0_0_1_STROKES_6_" class="st9" d="M453.3-512.7l1.9,9.7l10.8-5.2 M511.6-539.2l5.7,7l-6.4,6.2
				 M455.6-505.1c13.4-21.6,33.6-30.8,60.6-27.4"/>
		</g>
	</g>
</g>
<g transform="matrix( 0.013275146484375, 1, -1, 0.013275146484375, 1370.15,246.95) ">
	<g transform="matrix( 1, 0, 0, 1, 0,0) ">
		<g>
			<path id="Symbol_1_0_Layer0_0_1_STROKES_7_" class="st9" d="M-212.6,842.2l1.9,9.7l10.8-5.2 M-154.4,815.7l5.7,7l-6.4,6.2
				 M-210.4,849.8c13.4-21.6,33.6-30.8,60.6-27.4"/>
		</g>
	</g>
</g>
<g transform="matrix( -0.9169158935546875, 0.3987579345703125, -0.3987579345703125, -0.9169158935546875, 1375.9,523.2) ">
	<g transform="matrix( 1, 0, 0, 1, 0,0) ">
		<g>
			<path id="Symbol_1_0_Layer0_0_1_STROKES_8_" class="st9" d="M641.8,601.2l1.9,9.7l10.8-5.2 M700.1,574.7l5.7,7l-6.4,6.2
				 M644.1,608.8c13.4-21.6,33.6-30.8,60.6-27.4"/>
		</g>
	</g>
</g>
<g transform="matrix( 1, 0, 0, 1, 0,0) ">
	<g>
		<g id="Layer1_1_MEMBER_18_MEMBER_0_MEMBER_0_FILL">
			<path class="st7" d="M366.1,259.8c3-4.4,4.4-9.7,3.9-15.7c0-0.1,0-0.3,0-0.4l-33.7,2.2c0,0.1,0,0.3,0.1,0.4
				c0.4,6,2.3,11.1,5.8,15.1c2.7,3,5.6,4.8,8.8,5.3l1.6,23.6l-7.1,0.5l0.5,7l20.3-1.3l-0.5-7l-7.1,0.4l-1.5-23.3
				C360.7,265.7,363.7,263.5,366.1,259.8z"/>
		</g>
	</g>
</g>
<g transform="matrix( 1, 0, 0, 1, 0,0) ">
	<g>
		<g id="Layer1_1_MEMBER_18_MEMBER_0_MEMBER_1_FILL">
			<path class="st12" d="M362.7,258.2c2.1-2.6,3-5.6,2.7-9c-0.1-1.2-0.3-2.3-0.7-3.3l-23,2c-0.2,1.1-0.2,2.2-0.1,3.4
				c0.3,3.4,1.7,6.2,4.3,8.4c2.5,2.2,5.4,3.2,8.8,2.9C357.9,262.3,360.6,260.8,362.7,258.2z"/>
		</g>
	</g>
</g>
<g transform="matrix( 1, 0, 0, 1, 0,0) ">
	<g>
		<g id="Layer1_1_MEMBER_18_MEMBER_1_FILL">
			<path class="st19" d="M431,281.4c-7.7-3.6-17.1-5.4-28.1-5.5c-11,0-20.3,1.7-28.1,5.2c-7.8,3.5-11.7,7.7-11.7,12.6
				c0,4.9,3.8,9.2,11.5,12.8s17,5.4,28,5.4s20.4-1.7,28.2-5.1c7.8-3.5,11.7-7.7,11.7-12.6C442.5,289.3,438.7,285,431,281.4z"/>
		</g>
	</g>
</g>
<g transform="matrix( 1, 0, 0, 1, 0,0) ">
	<g>
		<g id="Layer1_1_MEMBER_18_MEMBER_1_MEMBER_0_MEMBER_0_FILL">
			<path class="st17" d="M426.5,268c-2.5-0.6-5.5-0.3-8.8,1c-4.9,1.9-9.1,5.4-12.7,10.5c-1.4,2-2.6,4-3.5,6
				c-0.8,2.1-1.5,4.1-1.9,6.2l26.3,8.5c1-1.1,2.1-2.3,3-3.7c3.6-5.1,5.5-10.2,5.7-15.5c0.1-3.5-0.6-6.4-2.1-8.7l-2.2,3.1
				c-0.4,0.6-1.1,1-1.9,1.2c-0.8,0.1-1.6-0.1-2.2-0.5l-1.2-1c-0.6-0.4-1-1.1-1.2-1.8c-0.1-0.8,0-1.6,0.4-2.2L426.5,268z"/>
			<path class="st20" d="M436.4,249.2c-0.8,0.1-1.4,0.5-1.8,1.2l-0.9,1.2c-0.4,0.6-0.6,1.4-0.5,2.2s0.5,1.5,1.2,1.9l0.6,0.4
				l-8.5,11.9l-2.2,3.1c-0.4,0.6-0.6,1.4-0.4,2.2c0.1,0.8,0.5,1.4,1.2,1.8l1.2,0.9c0.6,0.4,1.4,0.6,2.2,0.5c0.8-0.1,1.5-0.5,1.9-1.2
				l2.2-3.1l8.5-11.9c0.6,0.4,1.4,0.6,2.2,0.4c0.8-0.1,1.5-0.5,1.9-1.2l3.4-4.8c0.4-0.6,0.6-1.4,0.4-2.2c-0.1-0.8-0.5-1.5-1.2-1.9
				l-1.8-1.2c-0.7-0.5-1.4-0.7-2.2-0.5c-0.8,0.2-1.5,0.6-1.9,1.2l-0.8,1.2l-2.4-1.8C437.9,249.2,437.2,249,436.4,249.2z"/>
		</g>
	</g>
</g>
<g transform="matrix( 1, 0, 0, 1, 0,0) ">
	<g>
		<g id="Layer1_1_MEMBER_18_MEMBER_1_MEMBER_0_MEMBER_1_FILL">
			<path class="st21" d="M406,276.9c-1.7-2.9-4.1-4.8-7.3-5.6c-3.2-0.9-6.3-0.5-9.2,1.1c-2.8,1.7-4.7,4.1-5.6,7.1
				c-2.4-0.3-4.6-0.2-6.5,0.3c-2.4,0.7-3.8,2-4.4,3.7c-0.1-0.4-0.3-0.8-0.6-1.2c-0.8-1.2-2-2-3.4-2.4c-1.5-0.4-2.8-0.2-4.1,0.4
				c-1.3,0.6-2.1,1.5-2.5,2.8c-0.3,1.3-0.1,2.5,0.7,3.7c0.8,1.2,1.9,2,3.4,2.4s2.8,0.3,4.1-0.4c1.1-0.6,1.9-1.4,2.4-2.5
				c0.3,1,0.9,2,1.8,3c1.9,1.9,4.3,3.3,7.3,4c2.8,0.8,5.4,0.9,7.8,0.3c0.7,0.3,1.6,0.7,2.6,1c1.5,0.4,3,0.5,4.5,0.4
				c0,0.2,0.1,0.4,0.2,0.6c1.5,2.1,3.7,3.5,6.4,4.3c2.7,0.7,5.2,0.6,7.6-0.4c0.1,0.4,0.3,0.9,0.6,1.3c0.8,1.1,1.8,1.8,3.2,2.2
				c1.4,0.3,2.7,0.2,3.9-0.4c1.2-0.5,1.9-1.4,2.3-2.6c0.3-1.2,0-2.3-0.7-3.4c-0.7-1-1.8-1.7-3.2-2.1c-0.5-0.1-1-0.2-1.5-0.3v-0.1
				c0.6-2.4,0.2-4.7-1.2-6.9c-1.5-2.1-3.7-3.6-6.4-4.3c-0.1,0-0.3,0-0.4-0.1C407.7,280.8,407.1,278.9,406,276.9z"/>
		</g>
	</g>
</g>
</svg>
