<?xml version="1.0" encoding="utf-8"?>
<!-- Generator: Adobe Illustrator 19.2.1, SVG Export Plug-In . SVG Version: 6.00 Build 0)  -->
<!DOCTYPE svg PUBLIC "-//W3C//DTD SVG 1.1//EN" "http://www.w3.org/Graphics/SVG/1.1/DTD/svg11.dtd">
<svg version="1.1" id="Layer_1" xmlns="http://www.w3.org/2000/svg" xmlns:xlink="http://www.w3.org/1999/xlink" x="0px" y="0px"
	 viewBox="0 0 595.3 421" style="enable-background:new 0 0 595.3 421;" xml:space="preserve">
<style type="text/css">
	.st0{fill:#C0E4EE;}
	.st1{fill:#658ECA;}
	.st2{fill:#383660;}
	.st3{fill:#FFFFFF;}
	.st4{fill:#FEE3CD;}
	.st5{fill:#4BA57B;}
	.st6{fill:#BDC59E;}
	.st7{fill:#FFDA83;}
	.st8{fill:#DC453A;}
	.st9{fill:#698FC7;}
	.st10{fill:#E66661;}
	.st11{fill:#BA7C4F;}
	.st12{fill:#EE5A67;}
	.st13{fill:#D3D8B7;}
	.st14{fill:#9C6A44;}
	.st15{fill:none;stroke:#383660;stroke-linecap:round;stroke-linejoin:round;}
	.st16{fill:#595A5C;}
	.st17{fill:#FBD8BB;}
	.st18{fill:#55412D;}
	.st19{fill:#FDC029;}
	.st20{fill:none;stroke:#EE5A67;stroke-width:5;stroke-linecap:round;stroke-linejoin:round;}
	.st21{fill:#E7E7E9;}
	.st22{fill:#F7AD92;}
	.st23{fill:#53527F;}
	.st24{fill:#55412E;}
	.st25{fill:#8C643E;}
	.st26{fill:#040505;}
	.st27{fill:#DB846E;}
	.st28{fill:#424243;}
	.st29{fill:#6C503C;}
	.st30{fill:#EE3F5A;}
	.st31{fill:#E7E7E7;}
</style>
<g transform="matrix( 1, 0, 0, 1, 0,0) ">
	<g>
		<g id="Layer1_0_FILL_7_">
			<path class="st0" d="M296.7,79c-46.2,0-85.6,16.3-118.3,49c-32.6,32.7-49,72.1-49,118.3c0,31.8,7.8,60.5,23.3,85.9h287.8
				c15.6-25.4,23.3-54.1,23.3-85.9c0-46.2-16.3-85.6-49-118.3C382.3,95.3,342.9,79,296.7,79z"/>
		</g>
	</g>
</g>
<g transform="matrix( 1, 0, 0, 1, 0,0) ">
	<g>
		<g id="Layer1_1_MEMBER_0_FILL_3_">
			<path class="st1" d="M330.8,111.8c-0.1,0.2-0.1,0.4-0.1,0.7c0.2,0.7,0.4,1.3,0.6,1.9v-0.1c1.3,5.9,2.1,11.4,2.2,16.5
				c-2.4,2-4.5,4.1-6.2,6.2c-4.3,5.5-6.6,12-7.2,19.6c-0.1,1.9,0,5.2,0.3,10c-3.7,5.1-8.1,10.2-13.1,15.4l0,0
				c-1.2,1.2-2.4,2.5-3.5,3.7c0.4-2.1,0.7-4.4,1-6.8c0-0.2,0-0.4-0.2-0.6c-0.1-0.2-0.3-0.3-0.6-0.3c-0.2,0-0.4,0-0.6,0.2
				s-0.3,0.4-0.3,0.6c-0.4,3.5-0.9,6.7-1.5,9.7c-6.3,7.7-10.3,15.5-12,23.5c-0.1-0.5-0.2-1.1-0.3-1.6l0,0l-0.3-1.9l0,0
				c-1.1-7.6-0.1-15.4,3-23.4c5.3-14.1,5.5-27.6,0.6-40.3c-0.1-0.2-0.2-0.4-0.5-0.5c-0.2-0.1-0.4-0.1-0.7,0
				c-0.2,0.1-0.4,0.2-0.5,0.5c-0.1,0.2-0.1,0.4,0,0.7c4.8,12.4,4.5,25.4-0.6,39.1c-3.1,8.3-4.2,16.3-3,24.2l0,0l0.3,1.9l0,0
				c0.2,1.3,0.5,2.5,0.9,3.8c0,0.1,0.1,0.3,0.2,0.3c0,0.1,0,0.1,0,0.2c0,0.2,0.1,0.4,0.2,0.7c-0.1-0.1-0.2-0.1-0.3-0.2
				c-0.1-0.1-0.1-0.1-0.1-0.1c-0.3-2.2-1-4.3-2-6.3c0,0,0,0,0-0.1c-0.1-0.2-0.2-0.4-0.3-0.5c-0.5-1.9-1.1-3.7-1.7-5.6
				c-3.1-10.2-4.6-20.6-4.5-31.2c0.1-11.5,2.3-22.6,6.8-33.3c4.6-10.9,4.6-21.9,0-32.9c-0.1-0.2-0.2-0.4-0.5-0.5
				c-0.2-0.1-0.4-0.1-0.7,0c-0.2,0.1-0.4,0.3-0.5,0.5s-0.1,0.5,0,0.7c4.4,10.6,4.4,21.1,0,31.6c-4.6,10.9-6.9,22.2-7,33.9
				c-0.1,10.8,1.5,21.3,4.6,31.7c0.1,0.2,0.1,0.5,0.2,0.7c-2.7-3.1-5.6-6-8.5-8.9c-1.6-1.5-2.9-3.3-3.9-5.2l0,0
				c-1.3-2.3-2.1-4.7-2.5-7.3l0,0c-0.6-4.4-0.6-8.8,0-13.3c0.3-2.2,0.8-4.4,1.4-6.5l0,0c1.5-4.6,2.7-9.3,3.7-14
				c0.1-0.2,0-0.4-0.1-0.6s-0.3-0.3-0.5-0.4c-0.2,0-0.4,0-0.6,0.1s-0.3,0.3-0.4,0.5c-1,4.6-2.2,9.2-3.7,13.8l0,0
				c-0.7,2.2-1.2,4.5-1.5,6.8l0,0c-0.6,4.6-0.6,9.2,0,13.8c0.4,2.8,1.3,5.4,2.7,7.9c1.1,2.1,2.5,3.9,4.2,5.6c3.1,3,6,6.1,8.9,9.3
				c0.9,1,1.7,2.1,2.3,3.3c0,0,0,0.1,0.1,0.1v0.1c0.1,0.2,0.2,0.4,0.3,0.6l0,0c0.6,1.3,1.1,2.7,1.5,4.1c-1-0.6-2-1.1-2.8-1.4
				c-0.1,0-0.2,0-0.2-0.1c-2.2-0.2-4,0-5.6,0.4l0,0c-2,0.5-3,1.4-3,2.4c-0.2,1.1,0.7,2.1,2.6,2.9c0.9,0.4,1.9,0.7,3,0.9
				c-4.1,1.9-6.2,4-6.1,6.2c0,0.1,0,0.2,0.1,0.3c0.1,0.1,0.1,0.2,0.2,0.3l2.2,2.1c0.1,0.1,0.2,0.2,0.4,0.2c0.2,0,0.3,0,0.5,0
				l3.1-0.9c3.3-0.8,5.8-3,7.6-6.4c-2.1,8.7-1.5,14.6,1.9,17.7c0.2,0.2,0.4,0.3,0.6,0.3s0.4-0.1,0.6-0.3c0.2-0.2,0.3-0.4,0.3-0.6
				s-0.1-0.4-0.3-0.6c-3.1-3.1-3.3-9.2-0.8-18.4c0.6,1,1.3,2.1,2.1,3.4l0,0c2.3,3.6,3.6,6.3,4,8.1l0,0c0.7,3,0.2,6.1-1.3,9.5l0,0
				c-1,1.9-2.2,4.3-3.8,7.2c-0.1,0.2-0.1,0.4-0.1,0.6c0.1,0.2,0.2,0.4,0.4,0.5c0.2,0.1,0.4,0.1,0.6,0.1c0.2-0.1,0.4-0.2,0.5-0.4
				c1.6-2.9,2.8-5.3,3.8-7.2l0,0c1.7-3.7,2.2-7.3,1.5-10.6c-0.4-1.9-1.8-4.8-4.2-8.6l0,0c-1.2-1.8-2.1-3.4-2.7-4.5
				c0-0.1,0.1-0.2,0.1-0.2c11.6-4.5,20-11.1,25.3-20c1-1.7,1.9-3.4,2.7-5.2c7.1-4.4,14-9,20.9-13.6c21.2-14.4,30.4-30.6,27.4-48.6
				c0-0.2-0.1-0.4-0.3-0.6c-0.2-0.1-0.4-0.2-0.6-0.1c-0.2,0-0.4,0.2-0.6,0.3c-0.1,0.2-0.2,0.4-0.1,0.6c2.7,17.3-6.2,33-26.7,46.9
				c-6.2,4.2-12.5,8.3-18.9,12.4c1.1-3.2,1.8-6.5,2-10c0.2-2.8,0.1-6.7-0.2-11.6c3.5-4.9,6.5-9.8,8.8-14.6l0,0
				c2.8-6.1,4.3-13,4.2-20.9c2.1-1.7,4.6-3.3,7.3-4.9c3.5-2.1,8.7-4.9,15.6-8.5l0,0c5.8-3.3,9.9-6.6,12.1-9.9
				c0.1-0.2,0.2-0.4,0.1-0.7c0-0.2-0.1-0.4-0.3-0.5c-0.2-0.1-0.4-0.2-0.7-0.1c-0.2,0.1-0.4,0.2-0.5,0.4c-2.1,3.1-5.9,6.2-11.4,9.3
				l0,0c-6.9,3.6-12.2,6.4-15.7,8.5l0,0c-2.4,1.4-4.5,2.8-6.4,4.3c-0.2-4.8-0.9-10-2.2-15.5v-0.1c-0.2-0.6-0.4-1.2-0.6-1.8
				c-0.1-0.2-0.2-0.4-0.4-0.5c-0.2-0.1-0.4-0.1-0.7-0.1C331.1,111.4,330.9,111.5,330.8,111.8 M328.7,138c1.4-1.7,3-3.4,4.8-5
				c-0.1,7-1.5,13.2-4,18.7l0,0c-2,4.2-4.5,8.4-7.4,12.6c-0.2-3.5-0.2-6-0.1-7.6C322.4,149.4,324.6,143.2,328.7,138 M308.5,183.1
				L308.5,183.1c4.6-4.7,8.6-9.3,12.1-13.9c0.2,3.8,0.2,7,0.1,9.3c-0.3,4-1.2,7.9-2.7,11.6c-1.8,1.1-3.7,2.3-5.5,3.4
				c-6.8,4.2-12.3,8.8-16.7,13.8c1.8-2.8,3.2-5.6,4.3-8.3l0,0c1.2-2.9,2.2-6.2,3-9.9C304.7,187.1,306.5,185.1,308.5,183.1
				 M316.6,193c-0.4,0.9-0.9,1.8-1.5,2.6c-4.8,7.9-12.2,14.1-22.3,18.4c4.6-7.1,11.4-13.4,20.5-19
				C314.5,194.3,315.6,193.6,316.6,193 M286.4,216.8l-0.1-0.1c-0.1-0.1-0.2-0.1-0.3-0.1c-0.1,0-0.3,0-0.4,0c-1,0.3-1.9,0.6-2.8,0.8
				c-1.9-0.1-3.5-0.5-4.8-1c-1-0.4-1.5-0.8-1.6-1.2l0,0c0.1-0.3,0.7-0.6,1.7-0.9l0,0c1.4-0.4,3-0.5,4.9-0.4c1.2,0.5,2.5,1.2,4,2.4
				l0,0l0,0l0.1,0.1c0.1,0.1,0.3,0.1,0.5,0.1s0.3-0.1,0.5-0.2l0.1-0.1l0.1-0.1c0.1-0.1,0.1-0.3,0.1-0.5c0.1,0.5,0.1,1.1,0.2,1.6l0,0
				c-0.1-0.1-0.1-0.3-0.3-0.4c-0.2-0.1-0.4-0.2-0.6-0.2L286.4,216.8 M283.1,219.6L283.1,219.6c1.3-0.5,2.6-0.9,4-1.1l0.1,0.1
				c0.1,0.1,0.1,0.1,0.2,0.1c-0.1,0.2-0.2,0.3-0.3,0.5l-0.1,0.1c-1.5,3.3-3.8,5.3-6.8,6.1l0,0l-2.7,0.7l-1.5-1.4
				C276.3,223,278.7,221.3,283.1,219.6 M290.3,214.8c0.1-0.1,0.1-0.1,0.2-0.2C290.4,214.8,290.4,214.8,290.3,214.8L290.3,214.8
				 M288.4,215.5C288.4,215.4,288.4,215.4,288.4,215.5v0.1C288.4,215.5,288.4,215.5,288.4,215.5 M298.5,198.3c-1.6,4-3.9,8-6.9,12
				c1.6-6.1,4.6-12.1,8.9-17.9C299.9,194.5,299.2,196.5,298.5,198.3 M306,90.8c-0.2,0-0.4,0.1-0.6,0.3c-6.2,7.6-9.1,14.8-8.9,21.7
				c0.2,6.7,1.6,14.4,4.3,22.9c2.7,8.4,3.7,18.7,3.1,30.8l0,0c0,0.9-0.1,1.8-0.3,2.8c0,0.2,0,0.5,0.2,0.6c0.1,0.2,0.3,0.3,0.5,0.3
				s0.5,0,0.6-0.1c0.2-0.1,0.3-0.3,0.3-0.6c0.2-1,0.3-2,0.3-3l0,0c0.6-12.4-0.4-22.9-3.2-31.4c-2.6-8.4-4-15.9-4.2-22.5
				c-0.2-6.5,2.7-13.4,8.5-20.6c0.2-0.2,0.2-0.4,0.2-0.6s-0.1-0.4-0.3-0.6C306.4,90.9,306.2,90.8,306,90.8z"/>
		</g>
	</g>
</g>
<g transform="matrix( 1, 0, 0, 1, 0,0) ">
	<g>
		<g id="Layer1_1_MEMBER_1_FILL_3_">
			<path class="st2" d="M285.5,46.4c0.2,0.9,0.5,1.8,0.7,2.7c0,0.2,0.1,0.3,0.1,0.5c2.7,10.7,8.7,18.8,18.2,24.2
				c0.8,0.4,1.6,0.9,2.4,1.3c4.4,1.9,8.9,2.4,13.6,1.6c0.3,0,0.7-0.1,1.1-0.1c7.8-1.7,13.7-6.6,17.7-14.8c4-8.2,4.9-17.3,2.8-27.3
				s-6.7-18-13.7-23.8c-7-5.9-14.4-7.9-22.3-6.2c-7.8,1.6-13.8,6.6-17.8,14.8C284.4,27.3,283.4,36.4,285.5,46.4 M292.4,18.8
				c0.2-0.3,0.4-0.5,0.7-0.6c0.3-0.1,0.6-0.1,0.9,0.1c0.3,0.2,0.5,0.4,0.6,0.7s0.1,0.6-0.1,0.9c-2.4,4.7-3.5,9.6-3.4,14.6
				c0,0.9,0,1.8-0.1,2.7c0,0.3-0.2,0.6-0.4,0.8c-0.2,0.2-0.5,0.3-0.8,0.3s-0.6-0.2-0.8-0.4c-0.2-0.2-0.3-0.5-0.3-0.8
				c0.1-0.8,0.1-1.6,0.1-2.5C288.6,29.1,289.8,23.9,292.4,18.8z"/>
			<path class="st3" d="M293,18.2c-0.3,0.1-0.5,0.3-0.7,0.6c-2.6,5-3.8,10.3-3.6,15.7c0,0.8,0,1.7-0.1,2.5c0,0.3,0.1,0.6,0.3,0.8
				c0.2,0.2,0.5,0.4,0.8,0.4s0.6-0.1,0.8-0.3c0.2-0.2,0.4-0.5,0.4-0.8c0.1-0.9,0.1-1.8,0.1-2.7c-0.1-5,1-9.9,3.4-14.6
				c0.2-0.3,0.2-0.6,0.1-0.9c-0.1-0.3-0.3-0.5-0.6-0.7C293.7,18.2,293.4,18.1,293,18.2z"/>
		</g>
	</g>
</g>
<g transform="matrix( 1, 0, 0, 1, 0,0) ">
	<g>
		<g id="Layer1_1_MEMBER_2_FILL_2_">
			<path class="st4" d="M367.1,6.6c-8.5,2.6-15.4,8.1-20.6,16.4c-5.2,8.3-7.2,16.9-6.1,25.7c1.1,8.9,5.1,15.5,11.9,19.9
				c0.9,0.5,1.8,1,2.8,1.5c6.1,2.9,12.9,3.1,20.4,0.7c8.1-2.6,14.7-7.6,19.8-15.2c0.2-0.4,0.5-0.8,0.7-1.2c0.3-0.5,0.6-0.9,0.8-1.2
				c3.9-6.7,5.8-13.5,5.6-20.6c0-0.7-0.1-1.4-0.2-2.2c0-0.6-0.1-1.1-0.1-1.7c-1.2-8.9-5.2-15.5-12-19.9
				C383.4,4.5,375.7,3.7,367.1,6.6 M379.2,12c0.3,0.1,0.6,0.2,0.7,0.5c0.2,0.3,0.2,0.5,0.2,0.9c0,0.3-0.2,0.6-0.5,0.7
				c-0.3,0.2-0.6,0.2-0.9,0.2c-3.7-0.6-7.6,0-11.9,2l0,0c-4.3,2-8,5.4-11.1,10.3c-0.2,0.3-0.4,0.4-0.7,0.5c-0.3,0.1-0.6,0-0.9-0.2
				s-0.4-0.4-0.5-0.7s0-0.6,0.1-0.9c3.4-5.3,7.4-9,12.1-11.1l0,0C370.7,12,375.1,11.3,379.2,12z"/>
			<path class="st3" d="M379.9,12.5c-0.2-0.3-0.4-0.4-0.7-0.5c-4.1-0.7-8.5,0-13.2,2.2l0,0c-4.6,2.1-8.7,5.8-12.1,11.1
				c-0.2,0.3-0.2,0.6-0.1,0.9c0.1,0.3,0.2,0.6,0.5,0.7c0.3,0.2,0.6,0.2,0.9,0.2c0.3-0.1,0.6-0.2,0.7-0.5c3.1-4.9,6.8-8.3,11.1-10.3
				l0,0c4.2-2,8.2-2.6,11.9-2c0.3,0.1,0.6,0,0.9-0.2s0.4-0.4,0.5-0.7C380.2,13,380.1,12.8,379.9,12.5z"/>
		</g>
	</g>
</g>
<g transform="matrix( 1, 0, 0, 1, 0,0) ">
	<g>
		<g id="Layer1_1_MEMBER_3_FILL_3_">
			<path class="st5" d="M364.6,62.5c-7.8,1.6-13.8,6.5-17.8,14.7c-4,8.1-5,17.2-2.9,27.1s6.7,17.7,13.6,23.4
				c7,5.8,14.4,7.9,22.3,6.2c7.9-1.6,13.8-6.6,17.8-14.8c4-8.1,5-17.1,2.9-27s-6.6-17.7-13.7-23.5C379.8,62.9,372.4,60.9,364.6,62.5
				 M364.6,70.3c0.3-0.1,0.6-0.1,0.9,0.1s0.5,0.4,0.6,0.7c0.1,0.3,0.1,0.6-0.1,0.9c-0.1,0.3-0.4,0.5-0.7,0.6
				c-7,2.3-10.8,6.9-11.4,13.7c0,0.3-0.2,0.6-0.4,0.8c-0.2,0.2-0.5,0.3-0.8,0.3s-0.6-0.2-0.8-0.4c-0.2-0.2-0.3-0.5-0.3-0.8
				C352.3,78.1,356.6,72.9,364.6,70.3 M355,98.8c0.1,0.3,0,0.6-0.2,0.9s-0.4,0.4-0.7,0.5c-0.3,0.1-0.6,0-0.9-0.2s-0.4-0.4-0.5-0.7
				l-0.7-3.9c0-0.3,0-0.6,0.2-0.9s0.4-0.4,0.7-0.5c0.3,0,0.6,0,0.9,0.2s0.4,0.4,0.5,0.7L355,98.8z"/>
			<path class="st3" d="M354.8,99.6c0.2-0.3,0.2-0.6,0.2-0.9l-0.7-3.9c0-0.3-0.2-0.6-0.5-0.7c-0.3-0.2-0.5-0.2-0.9-0.2
				c-0.3,0.1-0.6,0.2-0.7,0.5c-0.2,0.3-0.2,0.6-0.2,0.9l0.7,3.9c0.1,0.3,0.2,0.6,0.5,0.7c0.3,0.2,0.5,0.2,0.9,0.2
				C354.4,100,354.6,99.8,354.8,99.6 M365.5,70.3c-0.3-0.1-0.6-0.2-0.9-0.1c-8,2.6-12.3,7.9-12.9,15.7c0,0.3,0.1,0.6,0.3,0.8
				c0.2,0.2,0.5,0.4,0.8,0.4s0.6-0.1,0.8-0.3c0.2-0.2,0.4-0.5,0.4-0.8c0.6-6.9,4.4-11.4,11.4-13.7c0.3-0.1,0.5-0.3,0.7-0.6
				c0.2-0.3,0.2-0.6,0.1-0.9C366,70.8,365.8,70.5,365.5,70.3z"/>
		</g>
	</g>
</g>
<g transform="matrix( 1, 0, 0, 1, 0,0) ">
	<g>
		<g id="Layer1_1_MEMBER_4_FILL_4_">
			<path class="st6" d="M276.2,42.1c-8.7-2.8-16.3-1.9-23,2.6c-6.7,4.4-10.3,11.2-11,20.3c-0.7,9.1,1.8,17.8,7.5,26.2
				c5.7,8.4,12.8,13.9,21.4,16.6c8.7,2.8,16.4,2,23-2.5c6.6-4.4,10.3-11.2,10.9-20.3c0.7-9-1.7-17.7-7.4-26.1
				C292,50.4,284.9,44.9,276.2,42.1 M249.5,54.5c0.2-0.2,0.5-0.4,0.8-0.4s0.6,0,0.8,0.2c0.3,0.2,0.4,0.5,0.4,0.8s0,0.6-0.2,0.8
				c-3.9,5.1-4.8,11-2.7,17.6c0.1,0.3,0.1,0.6-0.1,0.9c-0.1,0.3-0.4,0.5-0.7,0.6s-0.6,0.1-0.9-0.1c-0.3-0.1-0.5-0.4-0.5-0.7
				C244,66.8,245.1,60.2,249.5,54.5 M254.2,84.8c0.2,0.3,0.2,0.6,0.2,0.9c-0.1,0.3-0.2,0.6-0.5,0.7c-0.3,0.2-0.6,0.2-0.9,0.2
				c-0.3-0.1-0.6-0.2-0.7-0.5l-2.2-3.3c-0.2-0.3-0.2-0.6-0.1-0.9c0.1-0.3,0.2-0.6,0.5-0.7c0.3-0.2,0.6-0.2,0.9-0.1
				c0.3,0.1,0.6,0.2,0.7,0.5L254.2,84.8z"/>
			<path class="st3" d="M254.4,85.6c0.1-0.3,0-0.6-0.2-0.9l-2.2-3.3c-0.2-0.3-0.4-0.4-0.7-0.5s-0.6,0-0.9,0.1
				c-0.3,0.2-0.4,0.4-0.5,0.7c-0.1,0.3,0,0.6,0.1,0.9l2.2,3.3c0.2,0.3,0.4,0.4,0.7,0.5s0.6,0,0.9-0.2
				C254.2,86.2,254.3,85.9,254.4,85.6 M250.3,54.1c-0.3,0-0.6,0.2-0.8,0.4c-4.4,5.7-5.4,12.3-3.1,19.7c0.1,0.3,0.3,0.5,0.5,0.7
				c0.3,0.2,0.6,0.2,0.9,0.1c0.3-0.1,0.5-0.3,0.7-0.6c0.2-0.3,0.2-0.6,0.1-0.9c-2.1-6.7-1.2-12.5,2.7-17.6c0.2-0.2,0.3-0.5,0.2-0.8
				c0-0.3-0.2-0.6-0.4-0.8C250.9,54.1,250.6,54,250.3,54.1z"/>
		</g>
	</g>
</g>
<g transform="matrix( 1, 0, 0, 1, 0,0) ">
	<g>
		<g id="Layer1_1_MEMBER_5_FILL_3_">
			<path class="st7" d="M261.4,91.8c-0.6-0.2-1.1-0.4-1.7-0.6c-8.6-2.4-16.3-1.4-23,3.2s-10.5,11.3-11.3,20.3
				c-0.9,8.9,1.4,17.4,6.9,25.4c5.5,8.1,12.5,13.3,21.1,15.8c8.6,2.5,16.3,1.4,23-3.1c0.9-0.6,1.7-1.2,2.5-1.9
				c5-4.5,7.9-10.6,8.7-18.4c0.9-8.5-1.2-16.6-6-24.2c-0.2-0.4-0.5-0.8-0.8-1.2c-0.3-0.4-0.6-0.9-0.8-1.3
				c-4.6-6.2-10.1-10.6-16.6-13.3C262.8,92.3,262.1,92,261.4,91.8 M232.1,105.8c0.2-0.3,0.4-0.4,0.7-0.5s0.6,0,0.9,0.1
				c0.3,0.2,0.4,0.4,0.5,0.7c0.1,0.3,0,0.6-0.2,0.9c-2,3.2-3,7-2.8,11.7l0,0c0.1,4.7,1.8,9.5,5,14.3c0.2,0.3,0.2,0.6,0.2,0.9
				c-0.1,0.3-0.2,0.6-0.5,0.7c-0.3,0.2-0.5,0.2-0.9,0.2c-0.3-0.1-0.5-0.2-0.7-0.5c-3.5-5.2-5.3-10.4-5.4-15.5l0,0
				C228.7,113.8,229.8,109.3,232.1,105.8z"/>
			<path class="st3" d="M232.9,105.3c-0.3,0.1-0.6,0.2-0.7,0.5c-2.3,3.5-3.4,7.8-3.2,13l0,0c0.1,5.1,1.9,10.3,5.4,15.5
				c0.2,0.3,0.4,0.4,0.7,0.5s0.6,0,0.9-0.2c0.3-0.2,0.4-0.4,0.5-0.7c0.1-0.3,0-0.6-0.2-0.9c-3.3-4.8-4.9-9.6-5-14.3l0,0
				c-0.2-4.6,0.8-8.5,2.8-11.7c0.2-0.3,0.2-0.6,0.2-0.9c-0.1-0.3-0.2-0.6-0.5-0.7C233.5,105.3,233.2,105.3,232.9,105.3z"/>
		</g>
	</g>
</g>
<g transform="matrix( 1, 0, 0, 1, 0,0) ">
	<g>
		<g id="Layer1_1_MEMBER_6_FILL_2_">
			<path class="st8" d="M294.6,94.2c0.2,0.9,0.4,1.8,0.7,2.7c0.1,0.2,0.1,0.3,0.2,0.5c2.7,10.7,8.7,18.7,18.2,24.2
				c0.8,0.5,1.6,0.9,2.4,1.3c4.4,1.9,8.9,2.4,13.6,1.6c0.3,0,0.6-0.1,1-0.1c7.8-1.7,13.8-6.7,17.8-14.8c4-8.2,4.9-17.3,2.8-27.3
				s-6.6-17.9-13.7-23.8c-7-5.9-14.5-8-22.3-6.3s-13.8,6.6-17.8,14.8C293.5,75.1,292.5,84.2,294.6,94.2 M309.6,63.7
				c0.1,0.3,0.1,0.6-0.1,0.9c-2.4,4.7-3.5,9.6-3.4,14.6c0,0.9,0,1.8-0.1,2.7c0,0.3-0.2,0.6-0.4,0.8c-0.2,0.2-0.5,0.3-0.8,0.3
				s-0.6-0.2-0.8-0.4c-0.2-0.2-0.3-0.5-0.3-0.8c0.1-0.8,0.1-1.6,0.1-2.4c-0.1-5.4,1.1-10.7,3.6-15.7c0.2-0.3,0.4-0.5,0.7-0.6
				c0.3-0.1,0.6-0.1,0.9,0.1C309.3,63.2,309.5,63.4,309.6,63.7z"/>
			<path class="st3" d="M309.5,64.6c0.2-0.3,0.2-0.6,0.1-0.9c-0.1-0.3-0.3-0.5-0.6-0.7c-0.3-0.1-0.6-0.2-0.9-0.1s-0.5,0.3-0.7,0.6
				c-2.6,5.1-3.8,10.3-3.6,15.7c0,0.8,0,1.7-0.1,2.4c0,0.3,0.1,0.6,0.3,0.8c0.2,0.3,0.5,0.4,0.8,0.4s0.6-0.1,0.8-0.3
				c0.3-0.2,0.4-0.5,0.4-0.8c0.1-0.9,0.1-1.8,0.1-2.7C306,74.2,307.1,69.3,309.5,64.6z"/>
		</g>
	</g>
</g>
<g transform="matrix( 1, 0, 0, 1, 0,0) ">
	<g>
		<g id="Layer1_1_MEMBER_7_FILL_2_">
			<path class="st9" d="M271.1,158.3c0.3,0.9,0.6,1.8,0.9,2.6c0.1,0.2,0.1,0.3,0.2,0.5c3.7,10.4,10.5,17.8,20.4,22.3
				c0.8,0.4,1.7,0.7,2.6,1.1c4.5,1.4,9.1,1.5,13.6,0.3c0.3-0.1,0.6-0.1,1-0.2c7.7-2.4,13.1-7.9,16.3-16.4c3.2-8.6,3.3-17.7,0.2-27.4
				c-3-9.8-8.3-17.2-15.9-22.4c-7.6-5.2-15.2-6.5-22.8-4.1c-7.7,2.4-13.1,7.9-16.3,16.4C268.1,139.4,268.1,148.5,271.1,158.3
				 M281,126.5c0.1-0.3,0.3-0.5,0.6-0.6c0.3-0.1,0.6-0.1,0.9,0s0.5,0.3,0.6,0.6c0.1,0.3,0.1,0.6,0,0.9c-1.9,4.9-2.6,9.9-2,14.9l0,0
				c0.1,0.9,0.2,1.8,0.3,2.7c0,0.3-0.1,0.6-0.3,0.8c-0.2,0.2-0.5,0.4-0.8,0.4s-0.6-0.1-0.8-0.3c-0.2-0.2-0.4-0.5-0.4-0.8
				c0-0.8-0.1-1.7-0.2-2.5l0,0C278.1,137.2,278.9,131.8,281,126.5z"/>
			<path class="st3" d="M281.6,125.9c-0.3,0.1-0.5,0.3-0.6,0.6c-2.1,5.3-2.8,10.6-2.2,16l0,0c0.1,0.9,0.2,1.7,0.2,2.5
				c0,0.3,0.1,0.6,0.4,0.8c0.2,0.2,0.5,0.3,0.8,0.3s0.6-0.1,0.8-0.4c0.2-0.2,0.3-0.5,0.3-0.8c0-0.9-0.1-1.8-0.3-2.7l0,0
				c-0.6-5,0.1-9.9,2-14.9c0.1-0.3,0.1-0.6,0-0.9s-0.3-0.5-0.6-0.6C282.1,125.8,281.9,125.8,281.6,125.9z"/>
		</g>
	</g>
</g>
<g transform="matrix( 1, 0, 0, 1, 0,0) ">
	<g>
		<g id="Layer1_1_MEMBER_8_FILL_3_">
			<path class="st10" d="M334.6,140.1c-0.4,0.8-0.8,1.7-1.1,2.5c-0.1,0.2-0.2,0.3-0.2,0.5c-4.5,10-4.8,20.1-0.7,30.2
				c0.3,0.9,0.7,1.7,1.2,2.5c2.3,4.2,5.5,7.4,9.7,9.7c0.3,0.2,0.6,0.3,0.9,0.5c7.2,3.5,14.9,3.3,23.1-0.7s14.6-10.6,19.1-19.7
				c4.5-9.2,5.8-18.2,4-27.2c-1.9-9-6.5-15.2-13.6-18.7c-7.2-3.5-14.9-3.3-23.2,0.6C345.5,124.3,339.1,130.9,334.6,140.1
				 M345.3,136.6c-0.3,0-0.6-0.1-0.8-0.3c-0.2-0.2-0.4-0.5-0.4-0.8s0.1-0.6,0.3-0.8c0.6-0.6,1.1-1.2,1.6-1.9
				c3.2-4.4,7.4-7.7,12.5-10.1c0.3-0.1,0.6-0.1,0.9,0s0.5,0.3,0.6,0.6c0.1,0.3,0.2,0.6,0,0.9c-0.1,0.3-0.3,0.5-0.6,0.6
				c-4.8,2.2-8.7,5.3-11.7,9.3c0,0,0,0,0,0.1c-0.6,0.7-1.1,1.4-1.7,2C345.8,136.4,345.6,136.6,345.3,136.6z"/>
			<path class="st3" d="M344.4,136.3c0.2,0.2,0.5,0.3,0.8,0.3s0.6-0.1,0.8-0.4c0.6-0.6,1.2-1.3,1.7-2c0,0,0,0,0-0.1
				c3-4,6.9-7.2,11.7-9.3c0.3-0.1,0.5-0.3,0.6-0.6c0.1-0.3,0.1-0.6,0-0.9s-0.3-0.5-0.6-0.6c-0.3-0.1-0.6-0.1-0.9,0
				c-5.1,2.4-9.3,5.7-12.5,10.1c-0.5,0.7-1.1,1.3-1.6,1.9c-0.2,0.2-0.3,0.5-0.3,0.8C344.1,135.8,344.2,136.1,344.4,136.3z"/>
		</g>
	</g>
</g>
<g transform="matrix( 1, 0, 0, 1, 0,0) ">
	<g>
		<g id="Layer1_1_MEMBER_9_FILL_1_">
			<path class="st8" d="M260.1,112.6c-1.9-1-4-0.9-6.4,0.3c-1.6,0.8-2.7,2.5-3.5,5.1c-2.1-1.7-4-2.4-5.7-2.2
				c-2.6,0.4-4.4,1.5-5.4,3.5c-1,1.9-0.9,4,0.3,6.3c1.1,2,2.6,3.7,4.7,5c4.8,3.3,8.7,5.2,11.8,5.7c0.5-0.3,1-0.8,1.4-1.3
				c2.7-3.3,4.6-7,5.7-11.1c0.5-2.1,0.6-4,0.4-5.9C263.1,115.4,262,113.6,260.1,112.6z"/>
		</g>
	</g>
</g>
<g transform="matrix( 1, 0, 0, 1, 0,0) ">
	<g>
		<g id="Layer1_1_MEMBER_10_FILL_1_">
			<path class="st11" d="M267.2,78.2h-0.3c-0.4,0-0.8,0.2-1,0.5c-0.2,0.2-0.4,0.5-0.4,0.9l0.1,6.7c0,0.4,0.1,0.7,0.4,0.9
				c0.3,0.3,0.6,0.4,1,0.5h0.3c0.4,0,0.7-0.2,1-0.5s0.4-0.7,0.4-1l-0.1-6.7c0-0.4-0.1-0.7-0.4-0.9C267.9,78.4,267.5,78.2,267.2,78.2
				 M262.5,66.2c-0.7-1-1.5-1.6-2.6-1.8c-1.1-0.2-2.1,0.1-3.1,0.7c-0.9,0.6-1.5,1.5-1.8,2.6c-0.2,1.1,0.1,2.1,0.7,3.1
				c0.6,0.9,1.5,1.5,2.6,1.7s2.1,0,3.1-0.6c0.9-0.6,1.5-1.5,1.7-2.7C263.3,68.1,263.1,67.1,262.5,66.2 M285.7,78.3
				c0-0.4-0.2-0.7-0.5-0.9l-5.1-4.4c-0.3-0.2-0.6-0.4-1-0.4s-0.7,0.2-1,0.5l-0.2,0.3c-0.2,0.2-0.3,0.6-0.3,1
				c0.1,0.4,0.2,0.7,0.5,0.9l5.1,4.5c0.2,0.2,0.5,0.3,0.9,0.3s0.8-0.2,1-0.5l0.3-0.2C285.6,79.1,285.8,78.8,285.7,78.3 M276.2,55.8
				c-1.1-0.2-2.1,0.1-3,0.7s-1.5,1.5-1.7,2.6s0,2.1,0.7,3.1c0.6,0.9,1.5,1.5,2.6,1.7c1.1,0.2,2.1,0,3.1-0.6c0.9-0.7,1.5-1.5,1.7-2.6
				s0-2.1-0.6-3C278.3,56.6,277.4,56,276.2,55.8z"/>
		</g>
	</g>
</g>
<g transform="matrix( 1, 0, 0, 1, 0,0) ">
	<g>
		<g id="Layer1_1_MEMBER_10_MEMBER_0_FILL">
			<path class="st12" d="M277.2,81.6c2.7-1.9,4.4-4.5,5-7.8c0.6-3.2,0-6.2-1.9-9c-1.9-2.8-4.4-4.5-7.7-5.1c-3.3-0.6-6.3,0-9,1.9
				c-2.8,1.9-4.5,4.4-5.1,7.7c-0.6,3.3,0,6.3,1.9,9.1c1.9,2.7,4.4,4.4,7.7,5C271.4,84.1,274.4,83.5,277.2,81.6 M280,73.4
				c-0.5,2.6-1.8,4.7-4.1,6.3c-2.3,1.6-4.7,2.1-7.4,1.6c-2.7-0.5-4.8-1.9-6.2-4.1c-1.6-2.3-2.1-4.7-1.6-7.4c0.5-2.6,1.9-4.7,4.2-6.3
				c2.2-1.5,4.7-2,7.3-1.5c2.7,0.5,4.8,1.9,6.3,4.1C280,68.3,280.5,70.8,280,73.4 M269.4,79c-0.2,0-0.4,0.1-0.5,0.3
				c-0.1,0.2-0.2,0.4-0.1,0.5c0,0.2,0.1,0.4,0.2,0.5c0.2,0.1,0.4,0.2,0.6,0.2s0.4-0.1,0.5-0.3c0.1-0.2,0.2-0.4,0.2-0.6
				s-0.1-0.4-0.3-0.5C269.8,79,269.7,78.9,269.4,79 M266.1,77.6c-0.2-0.1-0.4-0.1-0.6,0s-0.4,0.2-0.4,0.4c-0.1,0.2-0.1,0.4,0,0.6
				s0.2,0.3,0.4,0.4c0.2,0.1,0.4,0.1,0.6,0s0.4-0.2,0.5-0.4c0.1-0.2,0.1-0.4,0-0.6C266.4,77.8,266.3,77.8,266.1,77.6 M274,78.1
				c-0.2,0-0.4,0-0.5,0.1c-0.2,0.1-0.3,0.3-0.4,0.5c0,0.2,0,0.5,0.1,0.6c0.1,0.2,0.3,0.2,0.5,0.3c0.2,0,0.5,0,0.6-0.1
				c0.2-0.1,0.3-0.3,0.3-0.5c0.1-0.2,0-0.4-0.1-0.6C274.5,78.2,274.3,78.1,274,78.1 M262.6,74.3c-0.1,0.1-0.3,0.3-0.4,0.5
				c0,0.2,0.1,0.4,0.2,0.6s0.2,0.3,0.5,0.3c0.2,0,0.4,0,0.6-0.1s0.3-0.2,0.3-0.5c0-0.2,0-0.5-0.1-0.6c-0.1-0.2-0.3-0.3-0.5-0.3
				C263,74.1,262.8,74.2,262.6,74.3 M262.9,70.8c-0.2-0.2-0.4-0.2-0.6-0.2s-0.4,0.1-0.5,0.3c-0.2,0.2-0.2,0.3-0.1,0.6
				c0,0.2,0.1,0.4,0.2,0.5c0.2,0.1,0.4,0.2,0.6,0.2s0.4-0.1,0.5-0.3c0.2-0.2,0.2-0.4,0.2-0.6C263.2,71,263.1,70.9,262.9,70.8
				 M274.7,64.9c-0.1-0.2-0.2-0.4-0.4-0.4c-0.2-0.1-0.4-0.1-0.5,0c-0.2,0.1-0.3,0.2-0.4,0.4c-0.1,0.2-0.1,0.4,0,0.6s0.3,0.3,0.5,0.4
				s0.4,0.1,0.6,0s0.3-0.2,0.4-0.4C274.8,65.2,274.8,65.1,274.7,64.9 M264.5,67.8c0.1-0.2,0.1-0.4,0-0.6s-0.2-0.3-0.4-0.4
				c-0.2-0.1-0.4-0.1-0.6,0s-0.3,0.2-0.4,0.4c-0.1,0.2-0.1,0.4,0,0.6s0.2,0.3,0.4,0.4c0.2,0.1,0.4,0.1,0.6,0
				C264.2,68.2,264.4,68,264.5,67.8 M267.2,63.9c-0.2,0-0.4,0-0.5,0.1c-0.2,0.1-0.3,0.3-0.3,0.5s0,0.4,0.1,0.6s0.3,0.3,0.5,0.3
				c0.3,0,0.5,0,0.6-0.1c0.2-0.1,0.2-0.3,0.3-0.5c0.1-0.2,0-0.4-0.1-0.6C267.7,64.1,267.5,64,267.2,63.9 M270.9,64.1
				c0-0.2-0.1-0.4-0.3-0.4c-0.2-0.2-0.3-0.2-0.5-0.2s-0.4,0.1-0.5,0.3c-0.1,0.1-0.1,0.3-0.1,0.5s0.1,0.4,0.3,0.5
				c0.1,0.1,0.3,0.1,0.5,0.1s0.4-0.1,0.5-0.2C270.9,64.5,271,64.3,270.9,64.1 M277.8,75.5c-0.1-0.2-0.2-0.4-0.3-0.4
				c-0.2-0.1-0.4-0.1-0.6,0s-0.4,0.2-0.5,0.3c-0.1,0.2-0.1,0.4,0,0.7c0.1,0.2,0.2,0.3,0.4,0.4c0.2,0.1,0.4,0.1,0.6,0
				s0.3-0.2,0.4-0.4C277.9,75.9,277.9,75.6,277.8,75.5 M278.5,71.3c-0.2-0.1-0.4-0.2-0.5-0.1c-0.2,0-0.4,0.1-0.5,0.3
				c-0.1,0.2-0.2,0.3-0.1,0.5c0,0.2,0.1,0.4,0.2,0.5c0.2,0.1,0.4,0.2,0.6,0.2s0.4-0.1,0.5-0.3c0.2-0.1,0.2-0.3,0.2-0.5
				C278.8,71.8,278.7,71.5,278.5,71.3 M277.2,67.6c-0.2,0-0.3,0-0.5,0.1s-0.3,0.3-0.3,0.5s0,0.4,0.1,0.6s0.2,0.3,0.4,0.3
				c0.2,0,0.4,0,0.6-0.1s0.3-0.2,0.3-0.5c0-0.2,0-0.4-0.1-0.5C277.6,67.8,277.4,67.6,277.2,67.6z"/>
			<path class="st4" d="M275.9,79.8c2.2-1.5,3.6-3.6,4.1-6.3c0.5-2.7,0-5.1-1.5-7.3c-1.5-2.3-3.6-3.6-6.3-4.1
				c-2.6-0.5-5.1,0-7.3,1.5c-2.3,1.5-3.7,3.6-4.2,6.3c-0.5,2.7,0,5.1,1.6,7.4c1.5,2.2,3.6,3.6,6.2,4.1
				C271.2,81.8,273.6,81.3,275.9,79.8 M276.7,67.8c0.2-0.1,0.3-0.1,0.5-0.1s0.4,0.1,0.5,0.3c0.1,0.2,0.2,0.4,0.1,0.5
				c0,0.2-0.1,0.4-0.3,0.5c-0.2,0.1-0.4,0.2-0.6,0.1s-0.3-0.2-0.4-0.3c-0.1-0.2-0.2-0.4-0.1-0.6C276.4,67.9,276.5,67.8,276.7,67.8
				 M278,71.2c0.2,0,0.4,0,0.5,0.1c0.2,0.1,0.3,0.3,0.3,0.5s0,0.4-0.2,0.5c-0.1,0.2-0.3,0.3-0.5,0.3s-0.4-0.1-0.6-0.2
				c-0.1-0.2-0.2-0.3-0.2-0.5s0-0.4,0.1-0.5C277.6,71.3,277.8,71.2,278,71.2 M277.4,75c0.2,0.1,0.3,0.2,0.3,0.4
				c0.1,0.2,0.1,0.4,0,0.6s-0.2,0.3-0.4,0.4c-0.2,0.1-0.4,0.1-0.6,0s-0.3-0.2-0.4-0.4c-0.1-0.2-0.1-0.5,0-0.7s0.2-0.3,0.5-0.3
				C277,75,277.2,74.9,277.4,75 M270.6,63.7c0.2,0.1,0.3,0.2,0.3,0.4c0,0.2,0,0.4-0.1,0.6c-0.1,0.1-0.3,0.2-0.5,0.2s-0.4,0-0.5-0.1
				c-0.2-0.1-0.2-0.3-0.3-0.5c0-0.2,0-0.4,0.1-0.5c0.1-0.2,0.3-0.3,0.5-0.3C270.3,63.5,270.5,63.5,270.6,63.7 M266.7,64.1
				c0.2-0.1,0.3-0.2,0.5-0.1c0.2,0.1,0.4,0.2,0.5,0.3c0.1,0.2,0.2,0.4,0.1,0.6c0,0.2-0.1,0.4-0.3,0.5c-0.2,0.1-0.4,0.2-0.6,0.1
				c-0.2,0-0.3-0.1-0.5-0.3c-0.1-0.2-0.1-0.4-0.1-0.6C266.4,64.4,266.5,64.2,266.7,64.1 M264.4,67.2c0.1,0.2,0.1,0.4,0,0.6
				s-0.2,0.3-0.4,0.4c-0.2,0.1-0.4,0.1-0.6,0s-0.3-0.2-0.4-0.4c-0.1-0.2,0-0.4,0-0.6c0.1-0.2,0.2-0.3,0.4-0.4c0.2-0.1,0.4-0.1,0.6,0
				C264.2,66.9,264.3,67,264.4,67.2 M274.3,64.5c0.2,0.1,0.3,0.2,0.4,0.4c0.1,0.2,0.1,0.3,0,0.5s-0.2,0.4-0.4,0.4
				c-0.2,0.1-0.4,0.1-0.6,0s-0.3-0.2-0.5-0.4c0-0.2,0-0.4,0-0.6c0.1-0.2,0.2-0.3,0.4-0.4C273.9,64.4,274,64.4,274.3,64.5
				 M262.4,70.5c0.2,0,0.4,0.1,0.6,0.2s0.3,0.2,0.3,0.4c0,0.2,0,0.4-0.2,0.6c-0.1,0.2-0.3,0.2-0.5,0.3c-0.2,0-0.4,0-0.6-0.2
				c-0.2-0.1-0.2-0.3-0.2-0.5c-0.1-0.2,0-0.4,0.1-0.6C262,70.8,262.1,70.6,262.4,70.5 M262.2,74.8c0.1-0.2,0.2-0.4,0.4-0.5
				c0.2-0.1,0.4-0.1,0.6-0.1s0.4,0.1,0.5,0.3c0.1,0.2,0.1,0.4,0.1,0.6s-0.2,0.4-0.3,0.5c-0.2,0.1-0.3,0.2-0.6,0.1
				c-0.2-0.1-0.4-0.2-0.5-0.3C262.3,75.2,262.2,75,262.2,74.8 M273.5,78.2c0.2-0.1,0.3-0.1,0.5-0.1c0.3,0.1,0.5,0.2,0.6,0.3
				c0.1,0.2,0.1,0.4,0.1,0.6s-0.1,0.4-0.3,0.5c-0.2,0.1-0.4,0.1-0.6,0.1s-0.4-0.1-0.5-0.3c-0.1-0.2-0.2-0.4-0.1-0.6
				C273.2,78.5,273.4,78.3,273.5,78.2 M265.5,77.6c0.2-0.1,0.4-0.1,0.6,0s0.4,0.2,0.4,0.5c0.1,0.2,0.1,0.4,0,0.6s-0.2,0.3-0.5,0.4
				c-0.2,0.1-0.4,0.1-0.6,0s-0.4-0.2-0.4-0.4c-0.1-0.2-0.1-0.4,0-0.6C265.1,77.8,265.3,77.8,265.5,77.6 M268.9,79.3
				c0.2-0.2,0.4-0.3,0.5-0.3c0.2-0.1,0.4,0,0.5,0.1c0.2,0.2,0.3,0.3,0.3,0.5s0,0.4-0.2,0.6c-0.1,0.2-0.3,0.2-0.5,0.3
				c-0.2,0-0.4-0.1-0.6-0.2s-0.2-0.3-0.2-0.5C268.7,79.6,268.7,79.4,268.9,79.3z"/>
		</g>
	</g>
</g>
<g transform="matrix( 1, 0, 0, 1, 0,0) ">
	<g>
		<g id="Layer1_1_MEMBER_10_MEMBER_0_MEMBER_0_FILL">
			<path class="st12" d="M266.1,68.2c-0.1,0.1-0.1,0.3-0.1,0.4s0.1,0.3,0.2,0.4l3.9,3.4c0,0,0,0,0,0.1c0,0,0,0,0.1,0
				c0.1,0.1,0.2,0.2,0.3,0.2c0.2,0,0.4-0.1,0.5-0.2l2.2-2.4c0.1-0.1,0.1-0.2,0.1-0.4c0-0.2-0.1-0.3-0.2-0.4s-0.2-0.1-0.4-0.1
				c-0.1,0-0.2,0-0.3,0.2l-1.8,2l-3.6-3.2c-0.1-0.1-0.3-0.1-0.4-0.1C266.4,68.1,266.2,68.1,266.1,68.2z"/>
		</g>
	</g>
</g>
<g transform="matrix( 1, 0, 0, 1, 0,0) ">
	<g>
		<g id="Layer1_1_MEMBER_11_MEMBER_0_FILL">
			<path class="st13" d="M327.6,18.7c-0.1-1.9-1-2.7-2.9-2.6L306,16.9c-1.8,0.1-2.7,1-2.6,2.8l1,22.8c0.1,1.9,1,2.7,2.8,2.6
				l18.8-0.8c1.8-0.1,2.7-1,2.6-2.8L327.6,18.7 M323.5,20.9c0.2,0,0.3,0,0.4,0.1s0.2,0.2,0.2,0.4s-0.1,0.3-0.2,0.4
				c-0.1,0.1-0.2,0.2-0.4,0.2l-10.4,0.5c-0.2,0-0.3-0.1-0.4-0.2c-0.1-0.1-0.2-0.2-0.2-0.4s0-0.3,0.1-0.4c0.1-0.1,0.2-0.2,0.4-0.2
				L323.5,20.9 M324.7,25.6c0.2,0,0.3,0,0.4,0.1s0.2,0.2,0.2,0.4s0,0.3-0.1,0.4c-0.1,0.1-0.2,0.2-0.4,0.2l-7.6,0.3
				c-1.8,0.1-3,0.2-3.6,0.2c-0.1,0-0.3-0.1-0.4-0.2c-0.1-0.1-0.2-0.2-0.2-0.4c0-0.1,0-0.3,0.1-0.4c0.1-0.1,0.3-0.2,0.4-0.2
				c0.6,0,1.8-0.1,3.6-0.2L324.7,25.6 M309.7,21c0.1,0.1,0.1,0.3,0,0.4l-1.8,4.5c0,0.2-0.1,0.3-0.3,0.3c-0.1,0.1-0.3,0.1-0.4,0
				s-0.2-0.1-0.3-0.3l-1.4-2.8c-0.1-0.1-0.1-0.3,0-0.5c0.1-0.1,0.1-0.2,0.3-0.3c0.1-0.1,0.3-0.1,0.4,0c0.2,0.1,0.3,0.1,0.3,0.3
				l0.8,1.7l1.3-3.4c0.1-0.1,0.2-0.2,0.3-0.3c0.1-0.1,0.3-0.1,0.4,0C309.5,20.7,309.6,20.8,309.7,21 M309.1,28
				c0.1-0.1,0.2-0.2,0.3-0.3c0.2,0,0.3,0,0.4,0c0.1,0.1,0.2,0.2,0.3,0.3c0.1,0.2,0.1,0.3,0,0.4l-1.9,4c-0.1,0.1-0.2,0.2-0.3,0.3
				c-0.1,0.1-0.3,0.1-0.4,0c-0.1,0-0.2-0.1-0.3-0.3l-1.5-3c-0.1-0.1-0.1-0.3,0-0.5c0-0.1,0.1-0.2,0.3-0.3c0.1-0.1,0.3-0.1,0.4,0
				c0.2,0.1,0.3,0.1,0.3,0.3l1,1.9L309.1,28 M313.1,24.3c0-0.1,0-0.3,0.1-0.4c0.1-0.1,0.3-0.2,0.4-0.2l3.2-0.1c0.2,0,0.3,0,0.4,0.1
				s0.2,0.3,0.2,0.4c0,0.2-0.1,0.3-0.2,0.4c-0.1,0.1-0.2,0.2-0.4,0.2l-3.2,0.1c-0.1,0-0.3-0.1-0.4-0.2
				C313.1,24.6,313.1,24.5,313.1,24.3 M321.5,32.3c0.2,0,0.3,0,0.4,0.1s0.2,0.2,0.2,0.4s0,0.3-0.1,0.4c-0.1,0.1-0.2,0.2-0.4,0.2
				l-7.5,0.3c-0.2,0-0.3,0-0.4-0.1s-0.2-0.2-0.2-0.4s0-0.3,0.1-0.4c0.1-0.1,0.2-0.2,0.4-0.2L321.5,32.3 M317.8,29.5
				c-0.1,0.1-0.2,0.2-0.4,0.2l-3.5,0.1c-0.2,0-0.3,0-0.4-0.1s-0.2-0.2-0.2-0.4s0-0.3,0.1-0.4c0.1-0.1,0.2-0.2,0.4-0.2l3.5-0.1
				c0.2,0,0.3,0,0.4,0.1s0.2,0.2,0.2,0.4C317.9,29.2,317.9,29.4,317.8,29.5 M313.4,31.4c-0.1-0.1-0.2-0.2-0.2-0.4s0-0.3,0.1-0.4
				c0.1-0.1,0.2-0.2,0.4-0.2l10.9-0.5c0.2,0,0.3,0,0.4,0.1s0.2,0.2,0.2,0.4s-0.1,0.3-0.2,0.4c-0.1,0.1-0.2,0.2-0.4,0.2l-10.9,0.5
				C313.7,31.6,313.5,31.5,313.4,31.4 M314.1,39.6c-0.1,0-0.3,0-0.4-0.1s-0.2-0.2-0.2-0.4c0-0.1,0-0.3,0.1-0.4
				c0.1-0.1,0.2-0.2,0.4-0.2l5.9-0.4c0.2,0,0.3,0,0.4,0.1s0.2,0.2,0.2,0.4s0,0.3-0.1,0.4c-0.1,0.1-0.2,0.2-0.4,0.2L314.1,39.6
				 M314.2,37c-0.2,0-0.3,0-0.4-0.1s-0.2-0.2-0.2-0.4s0-0.3,0.1-0.4c0.1-0.1,0.2-0.2,0.4-0.2l9.8-0.6c0.2,0,0.3,0,0.4,0.1
				s0.2,0.2,0.2,0.4s0,0.3-0.1,0.4c-0.1,0.1-0.2,0.2-0.4,0.2L314.2,37 M306.5,35.7c0.1-0.1,0.3-0.1,0.4-0.1c0.2,0,0.3,0.1,0.4,0.3
				l1.1,1.8l1.1-2.8c0.1-0.1,0.2-0.2,0.3-0.3c0.1-0.1,0.3-0.1,0.4,0c0.2,0.1,0.3,0.2,0.3,0.3c0.1,0.1,0.1,0.3,0,0.4l-1.6,3.8
				c0,0.1-0.1,0.3-0.3,0.3c-0.1,0.1-0.3,0.1-0.4,0c-0.1,0-0.2-0.1-0.3-0.3l-1.7-2.8c-0.1-0.1-0.1-0.3-0.1-0.4
				C306.3,35.9,306.4,35.8,306.5,35.7z"/>
			<path class="st14" d="M306.9,35.6c-0.1,0-0.3,0-0.4,0.1s-0.2,0.2-0.3,0.3c0,0.2,0,0.3,0.1,0.4l1.7,2.8c0.1,0.1,0.2,0.2,0.3,0.3
				c0.2,0,0.3,0,0.4,0c0.1-0.1,0.2-0.2,0.3-0.3l1.6-3.8c0.1-0.1,0.1-0.3,0-0.4c-0.1-0.1-0.2-0.2-0.3-0.3c-0.1-0.1-0.3-0.1-0.4,0
				s-0.2,0.2-0.3,0.3l-1.1,2.8l-1.1-1.8C307.2,35.8,307.1,35.7,306.9,35.6 M313.8,36.9c0.1,0.1,0.3,0.2,0.4,0.1l9.8-0.6
				c0.2,0,0.3-0.1,0.4-0.2c0.1-0.1,0.2-0.2,0.1-0.4c0-0.2-0.1-0.3-0.2-0.4c-0.1-0.1-0.2-0.2-0.4-0.1l-9.8,0.6
				c-0.2,0-0.3,0.1-0.4,0.2c-0.1,0.1-0.2,0.3-0.1,0.4C313.6,36.6,313.7,36.8,313.8,36.9 M313.7,39.5c0.1,0.1,0.3,0.2,0.4,0.1
				l5.9-0.4c0.2,0,0.3-0.1,0.4-0.2c0.1-0.1,0.2-0.3,0.1-0.4c0-0.1-0.1-0.3-0.2-0.4c-0.1-0.1-0.3-0.2-0.4-0.1l-5.9,0.4
				c-0.1,0-0.3,0.1-0.4,0.2c-0.1,0.1-0.2,0.3-0.1,0.4C313.5,39.2,313.5,39.4,313.7,39.5 M313.2,31c0,0.2,0.1,0.3,0.2,0.4
				c0.1,0.1,0.3,0.2,0.4,0.2l10.9-0.5c0.2,0,0.3-0.1,0.4-0.2c0.1-0.1,0.2-0.2,0.2-0.4s-0.1-0.3-0.2-0.4c-0.1-0.1-0.2-0.1-0.4-0.1
				l-10.9,0.5c-0.2,0-0.3,0.1-0.4,0.2C313.3,30.7,313.2,30.9,313.2,31 M317.4,29.7c0.2,0,0.3-0.1,0.4-0.2c0.1-0.1,0.2-0.2,0.1-0.4
				c0-0.2-0.1-0.3-0.2-0.4c-0.1-0.1-0.2-0.2-0.4-0.1l-3.5,0.1c-0.2,0-0.3,0.1-0.4,0.2c-0.1,0.1-0.2,0.3-0.1,0.4
				c0,0.2,0.1,0.3,0.2,0.4c0.1,0.1,0.3,0.2,0.4,0.1L317.4,29.7 M321.9,32.4c-0.1-0.1-0.2-0.2-0.4-0.1l-7.5,0.3
				c-0.2,0-0.3,0.1-0.4,0.2c-0.1,0.1-0.2,0.3-0.1,0.4c0,0.2,0.1,0.3,0.2,0.4c0.1,0.1,0.3,0.2,0.4,0.1l7.5-0.3c0.2,0,0.3-0.1,0.4-0.2
				c0.1-0.1,0.2-0.2,0.1-0.4C322.1,32.7,322.1,32.5,321.9,32.4 M313.2,23.9c-0.1,0.1-0.1,0.3-0.1,0.4c0,0.2,0.1,0.3,0.2,0.4
				c0.1,0.1,0.3,0.2,0.4,0.2l3.2-0.1c0.2,0,0.3-0.1,0.4-0.2c0.1-0.1,0.2-0.2,0.2-0.4c0-0.1-0.1-0.3-0.2-0.4
				c-0.1-0.1-0.2-0.1-0.4-0.1l-3.2,0.1C313.5,23.7,313.3,23.8,313.2,23.9 M309.4,27.7c-0.1,0.1-0.3,0.2-0.3,0.3l-1.4,2.9l-1-1.9
				c-0.1-0.1-0.2-0.2-0.3-0.3c-0.1-0.1-0.3,0-0.4,0c-0.1,0.1-0.2,0.2-0.3,0.3c-0.1,0.2,0,0.3,0,0.5l1.5,3c0.1,0.1,0.2,0.2,0.3,0.3
				c0.1,0.1,0.3,0.1,0.4,0c0.1,0,0.3-0.1,0.3-0.3l1.9-4c0.1-0.1,0.1-0.3,0-0.4c0-0.1-0.1-0.3-0.3-0.3
				C309.7,27.7,309.6,27.7,309.4,27.7 M309.7,21.4c0.1-0.1,0.1-0.3,0-0.4c-0.1-0.1-0.2-0.2-0.3-0.3c-0.1-0.1-0.3-0.1-0.4,0
				s-0.2,0.2-0.3,0.3l-1.3,3.4l-0.8-1.7c-0.1-0.1-0.2-0.2-0.3-0.3c-0.1-0.1-0.3,0-0.4,0c-0.1,0.1-0.2,0.2-0.3,0.3
				c-0.1,0.2,0,0.3,0,0.5L307,26c0.1,0.1,0.2,0.2,0.3,0.3c0.1,0,0.3,0,0.4,0c0.1-0.1,0.2-0.2,0.3-0.3L309.7,21.4 M325.1,25.8
				c-0.1-0.1-0.2-0.2-0.4-0.1l-7.6,0.3c-1.8,0.1-3,0.2-3.6,0.2c-0.1,0-0.3,0.1-0.4,0.2c-0.1,0.1-0.1,0.3-0.1,0.4
				c0,0.2,0.1,0.3,0.2,0.4c0.1,0.1,0.3,0.2,0.4,0.2c0.6,0,1.8-0.1,3.6-0.2l7.6-0.3c0.2,0,0.3-0.1,0.4-0.2c0.1-0.1,0.2-0.2,0.1-0.4
				C325.3,26,325.2,25.9,325.1,25.8 M323.9,21c-0.1-0.1-0.2-0.1-0.4-0.1l-10.4,0.5c-0.2,0-0.3,0.1-0.4,0.2c-0.1,0.1-0.1,0.3-0.1,0.4
				c0,0.2,0.1,0.3,0.2,0.4c0.1,0.1,0.3,0.2,0.4,0.2l10.4-0.5c0.2,0,0.3-0.1,0.4-0.2c0.1-0.1,0.2-0.2,0.2-0.4
				C324.1,21.3,324,21.1,323.9,21z"/>
		</g>
	</g>
</g>
<g transform="matrix( 1, 0, 0, 1, 0,0) ">
	<g>
		<g id="Layer1_1_MEMBER_12_FILL_1_">
			<path class="st3" d="M292.7,127.8c-1-0.3-1.6,0-2,0.9L279,160.6c-0.3,1,0,1.6,0.9,2l22.6,8.3c1,0.3,1.6,0,2-0.9l11.7-31.8
				c0.4-1,0.1-1.6-0.9-2L292.7,127.8 M291.6,141.6c1.1-0.6,2.3-0.7,3.5-0.3c1.2,0.4,2.1,1.1,2.7,2.3c0.6,1.2,0.7,2.3,0.3,3.6
				c-0.3,0.9-0.8,1.7-1.6,2.2c0,0.1,0.1,0.1,0.1,0.2c0.5,1,0.6,2,0.3,3c-0.1,0.3-0.3,0.6-0.4,0.9l4.7,1.6c0-0.1,0-0.2,0.1-0.3
				c0.2-0.6,0.5-1,1.1-1.3c0.5-0.3,1.1-0.3,1.7-0.1c0.6,0.2,1,0.5,1.3,1s0.3,1.1,0.1,1.7c-0.2,0.6-0.5,1-1.1,1.3
				c-0.5,0.3-1.1,0.3-1.7,0.2c-0.1-0.1-0.1-0.1-0.2-0.1l-1.3,1.7c0.6,0.3,1.1,0.8,1.4,1.4c0.4,0.7,0.5,1.5,0.2,2.3
				c-0.2,0.8-0.7,1.4-1.5,1.8c-0.7,0.4-1.5,0.5-2.3,0.2c-0.7-0.2-1.3-0.7-1.7-1.4c-0.4-0.7-0.5-1.5-0.2-2.3s0.8-1.4,1.5-1.8
				s1.5-0.4,2.3-0.2c0.1,0,0.2,0.1,0.4,0.1l1.3-1.7c-0.5-0.2-0.9-0.5-1.1-1c-0.2-0.4-0.3-0.8-0.2-1.3l-4.7-1.6
				c-0.3,0.6-0.9,1.1-1.5,1.4s-1.3,0.5-2,0.4l0.3,3.9c0,0,0.1,0,0.1,0.1c0.5,0.1,0.8,0.4,1,0.8s0.3,0.9,0.1,1.4
				c-0.1,0.4-0.4,0.8-0.8,1s-0.9,0.3-1.4,0.1c-0.5-0.1-0.8-0.4-1-0.9c-0.2-0.4-0.3-0.9-0.1-1.4c0.2-0.5,0.5-0.8,0.9-1.1
				c0.4-0.2,0.8-0.3,1.2-0.1l-0.3-3.9c-0.3,0-0.7-0.1-1-0.2c-1-0.3-1.8-1-2.3-1.9c0-0.1,0-0.1-0.1-0.1l-5.1,4.3l5.1-4.3
				c-0.4-0.9-0.5-1.9-0.2-2.9c0.2-0.5,0.5-1,0.9-1.4c-0.2-0.3-0.4-0.6-0.6-0.9c-0.6-1.1-0.7-2.3-0.3-3.6
				C289.7,143.1,290.5,142.2,291.6,141.6 M304.3,150.1l3.1,0.9L304.3,150.1 M303.9,148.2l3.4,0.9L303.9,148.2 M293.5,134.8l10.7,4
				L293.5,134.8 M292.5,136.6l14,5.2L292.5,136.6 M305.5,156c0.2-0.6,0.1-1.2-0.1-1.7c-0.3-0.5-0.7-0.9-1.3-1
				c-0.6-0.2-1.1-0.1-1.7,0.1c-0.5,0.3-0.9,0.7-1.1,1.3c-0.1,0.1-0.1,0.2-0.1,0.3c-0.1,0.4,0,0.9,0.2,1.3c0.2,0.5,0.6,0.8,1.1,1
				c0.1,0,0.1,0.1,0.2,0.1c0.6,0.2,1.1,0.1,1.7-0.2C305,157,305.4,156.6,305.5,156 M293.6,159.3c-0.1,0-0.1,0-0.1-0.1
				c-0.4-0.1-0.8-0.1-1.2,0.1c-0.4,0.2-0.7,0.6-0.9,1.1c-0.2,0.5-0.1,0.9,0.1,1.4c0.2,0.4,0.6,0.7,1,0.9c0.5,0.2,0.9,0.1,1.4-0.1
				c0.4-0.2,0.7-0.6,0.8-1c0.2-0.5,0.1-0.9-0.1-1.4C294.4,159.8,294,159.4,293.6,159.3 M297.2,160.9c-0.2,0.8-0.2,1.6,0.2,2.3
				c0.4,0.7,1,1.2,1.7,1.4c0.8,0.3,1.6,0.2,2.3-0.2c0.7-0.4,1.2-0.9,1.5-1.8c0.2-0.8,0.2-1.5-0.2-2.3c-0.3-0.6-0.8-1-1.4-1.4
				c-0.1-0.1-0.3-0.1-0.4-0.1c-0.8-0.2-1.5-0.2-2.3,0.2C297.9,159.5,297.5,160.1,297.2,160.9 M296.7,149.6c0-0.1-0.1-0.1-0.1-0.2
				c-0.5-0.9-1.2-1.4-2.2-1.8c-1-0.3-2-0.2-3,0.3c-0.4,0.2-0.8,0.5-1.1,0.9c-0.4,0.4-0.7,0.9-0.9,1.4c-0.3,1-0.2,2,0.2,2.9
				c0,0,0,0.1,0.1,0.1c0.5,0.9,1.3,1.6,2.3,1.9c0.3,0.1,0.7,0.2,1,0.2c0.7,0,1.4-0.1,2-0.4c0.7-0.3,1.2-0.8,1.5-1.4
				c0.2-0.3,0.3-0.6,0.4-0.9C297.3,151.5,297.2,150.5,296.7,149.6 M295.1,141.3c-1.2-0.4-2.4-0.3-3.5,0.3c-1.1,0.6-1.9,1.5-2.3,2.7
				s-0.3,2.4,0.3,3.6c0.2,0.3,0.3,0.6,0.6,0.9c0.3-0.3,0.7-0.6,1.1-0.9c1-0.5,2-0.6,3-0.3c1,0.3,1.7,0.9,2.2,1.8
				c0.8-0.6,1.3-1.3,1.6-2.2c0.4-1.2,0.2-2.4-0.3-3.6C297.3,142.4,296.4,141.8,295.1,141.3z"/>
		</g>
	</g>
	<g>
		<path id="Layer1_1_MEMBER_12_1_STROKES" class="st15" d="M284.5,157.3l5.1-4.3c-0.4-0.9-0.5-1.9-0.2-2.9c0.2-0.5,0.5-1,0.9-1.4
			c-0.2-0.3-0.4-0.6-0.6-0.9c-0.6-1.1-0.7-2.3-0.3-3.6c0.4-1.2,1.1-2.1,2.3-2.7c1.1-0.6,2.3-0.7,3.5-0.3c1.2,0.4,2.1,1.1,2.7,2.3
			c0.6,1.2,0.7,2.3,0.3,3.6c-0.3,0.9-0.8,1.7-1.6,2.2c0,0.1,0.1,0.1,0.1,0.2c0.5,1,0.6,2,0.3,3c-0.1,0.3-0.3,0.6-0.4,0.9l4.7,1.6
			c0-0.1,0-0.2,0.1-0.3c0.2-0.6,0.5-1,1.1-1.3c0.5-0.3,1.1-0.3,1.7-0.1c0.6,0.2,1,0.5,1.3,1s0.3,1.1,0.1,1.7c-0.2,0.6-0.5,1-1.1,1.3
			c-0.5,0.3-1.1,0.3-1.7,0.2c-0.1-0.1-0.1-0.1-0.2-0.1l-1.3,1.7c0.6,0.3,1.1,0.8,1.4,1.4c0.4,0.7,0.5,1.5,0.2,2.3
			c-0.2,0.8-0.7,1.4-1.5,1.8c-0.7,0.4-1.5,0.5-2.3,0.2c-0.7-0.2-1.3-0.7-1.7-1.4c-0.4-0.7-0.5-1.5-0.2-2.3s0.8-1.4,1.5-1.8
			s1.5-0.4,2.3-0.2c0.1,0,0.2,0.1,0.4,0.1 M290.3,148.8c0.3-0.3,0.7-0.6,1.1-0.9c1-0.5,2-0.6,3-0.3c1,0.3,1.7,0.9,2.2,1.8
			 M293.4,159.3c0,0,0.1,0,0.1,0.1c0.5,0.1,0.8,0.4,1,0.8s0.3,0.9,0.1,1.4c-0.1,0.4-0.4,0.8-0.8,1s-0.9,0.3-1.4,0.1
			c-0.5-0.1-0.8-0.4-1-0.9c-0.2-0.4-0.3-0.9-0.1-1.4c0.2-0.5,0.5-0.8,0.9-1.1C292.6,159.2,293,159.1,293.4,159.3l-0.3-3.9
			c-0.3,0-0.7-0.1-1-0.2c-1-0.3-1.8-1-2.3-1.9c0-0.1,0-0.1-0.1-0.1 M296.6,153.5c-0.3,0.6-0.9,1.1-1.5,1.4s-1.3,0.5-2,0.4
			 M304.3,150.1l3.1,0.9 M303.9,148.2l3.4,0.9 M302.6,157.4c-0.5-0.2-0.9-0.5-1.1-1c-0.2-0.4-0.3-0.8-0.2-1.3 M293.5,134.8l10.7,4
			 M292.5,136.6l14,5.2"/>
	</g>
</g>
<g transform="matrix( 1, 0, 0, 1, 0,0) ">
	<g>
		<g id="Layer1_1_MEMBER_13_FILL_1_">
			<path class="st16" d="M317.2,149.4c0.1-0.2,0-0.5-0.1-0.7l-1.2-1.8l-1-1.5c-0.1-0.2-0.3-0.3-0.5-0.4c-0.2,0-0.5,0-0.7,0.1
				s-0.3,0.3-0.4,0.5c0,0.2,0,0.4,0.1,0.6l0.9,1.4l1.2,1.8c0.1,0.2,0.3,0.3,0.5,0.4s0.4,0,0.6-0.1
				C317,149.8,317.1,149.6,317.2,149.4 M306.4,130.9c0-0.1,0.1-0.2,0.1-0.3c0.1-0.4,0-0.8-0.2-1.1c-0.2-0.3-0.5-0.5-0.9-0.6
				c-0.1,0-0.2,0-0.3,0c-0.3,0-0.6,0.1-0.8,0.2l-1.1,0.7c-0.3,0.2-0.5,0.5-0.6,0.9v0.1c-0.1,0.3,0,0.7,0.2,1s0.5,0.5,0.8,0.6h0.1
				c0.4,0.1,0.7,0,1.1-0.2l1.1-0.7C306.2,131.4,306.3,131.2,306.4,130.9z"/>
			<path class="st8" d="M306.4,130.9c-0.1,0.3-0.3,0.5-0.5,0.6l-1.1,0.7c-0.3,0.2-0.7,0.3-1.1,0.2l-0.1,0.1l9.5,14.6
				c0.2,0.4,0.5,0.6,1,0.7c0.1,0,0.2,0,0.3,0l-0.9-1.4c-0.1-0.2-0.2-0.4-0.1-0.6s0.2-0.4,0.4-0.5c0.2-0.1,0.4-0.2,0.7-0.1
				c0.2,0.1,0.4,0.2,0.5,0.4l1,1.5c0.1-0.1,0.1-0.3,0.1-0.4c0.1-0.4,0-0.9-0.3-1.2L306.4,130.9 M299.1,124.5c-0.1,0.4,0,0.8,0.2,1.2
				l3.3,5l0.1-0.1c0.1-0.4,0.3-0.7,0.6-0.9l1.1-0.7c0.2-0.2,0.5-0.2,0.8-0.2l-3.2-4.9c-0.2-0.4-0.6-0.6-1-0.7
				c-0.5-0.1-0.9,0-1.2,0.3l0,0C299.4,123.8,299.2,124.1,299.1,124.5z"/>
			<path class="st17" d="M303.7,132.4c-0.1,0-0.1,0-0.1,0v0.1L303.7,132.4 M302.6,130.8v-0.1V130.8L302.6,130.8z"/>
		</g>
	</g>
</g>
<g transform="matrix( 1, 0, 0, 1, 0,0) ">
	<g>
		<g id="Layer1_1_MEMBER_14_MEMBER_0_FILL">
			<path class="st11" d="M323.6,69.2c0.7,0.7,1.1,1.4,1.5,2c0.1,0.2,0.1,0.3,0.2,0.5c0.4,1.2,0.5,2.7,0.3,4.6c-0.3,2.6-1.3,5-3,7.1
				c-0.5,0.7-1.4,1.6-2.6,2.6c-1.4,1.3-2.3,2.2-2.8,2.8c-0.2,0.2-0.3,0.4-0.5,0.6c0,0,0,0,0,0.1l-0.1,0.1c-1.6,2.1-2.3,4.3-2,6.6
				c0.2-0.2,0.4-0.3,0.6-0.5c0.3-0.2,0.6-0.4,0.9-0.6c0.1,0,0.6,0,1.5-0.1c0.9,0,1.6-0.1,1.9-0.3c0-1.3,0.8-3.1,2.5-5.3
				c1-1.3,2.7-3.4,5.1-6.4c4.5-6,5.9-11.3,4.2-15.8c-0.1-0.3-0.3-0.6-0.5-1.1c-0.3-0.5-0.4-0.8-0.5-0.8h0.1c-0.7,0.2-2,0.6-3.8,1.1
				c-2.2,0.6-3.6,0.9-4.3,1.1l0.1,0.3C322.3,67.8,322.7,68.3,323.6,69.2z"/>
			<path class="st18" d="M325,71.2c-0.3-0.6-0.8-1.3-1.5-2c-0.8-0.9-1.3-1.4-1.4-1.6c-5.2,2.7-8.3,7.8-9.3,15.3
				c-0.4,2.9-0.4,5.7,0,8.3c0.3,2.3,0.8,4,1.6,5l0,0l0.1-0.1c-0.2-2.3,0.5-4.5,2-6.6l0.1-0.1c0,0,0,0,0-0.1c0.1-0.3,0.1-1.1,0.2-2.4
				c0.1-1.4,0.4-2.6,0.7-3.9C318.7,79.5,321.2,75.5,325,71.2z"/>
		</g>
	</g>
</g>
<g transform="matrix( 1, 0, 0, 1, 0,0) ">
	<g>
		<g id="Layer1_1_MEMBER_14_MEMBER_1_FILL">
			<path class="st7" d="M314.2,95.8c-0.4,0.2-0.8,0.4-1.2,0.6c-1.1,0.7-2,1.6-2.5,2.8c-0.7,1.7-0.8,3.4-0.1,5.1
				c0.6,1.7,1.8,2.9,3.4,3.7c1.6,0.8,3.3,0.9,5.1,0.2c0.2-0.1,0.5-0.2,0.8-0.3c1.3-0.7,2.3-1.7,2.8-3.1c0.8-1.6,0.9-3.3,0.2-5
				c-0.6-1.7-1.8-2.9-3.5-3.7C317.5,95.1,315.9,95,314.2,95.8 M315.1,98.1c0-0.1,0.1-0.2,0.1-0.2s0-0.1,0.1-0.1c0,0,0-0.1,0.1-0.1
				c0.1-0.1,0.2-0.2,0.3-0.3c0.1-0.1,0.3,0,0.4,0c0.1,0.1,0.2,0.2,0.3,0.3c0.1,0.1,0.1,0.2,0.1,0.3c0.2,0.7,0.4,1.9,0.6,3.6
				s0.4,2.7,0.5,3.3c0.4-0.2,0.9-0.3,1.3-0.5c0.2-0.1,0.3,0,0.4,0c0.2,0.1,0.3,0.2,0.3,0.3c0.1,0.2,0,0.3,0,0.4
				c-0.1,0.2-0.2,0.3-0.3,0.3c-1.2,0.4-2.3,0.9-3.3,1.5c-0.1,0.1-0.3,0.1-0.4,0.1s-0.3-0.1-0.3-0.3c-0.1-0.1-0.1-0.3-0.1-0.4
				s0.1-0.3,0.3-0.3c0.4-0.2,0.7-0.4,1.1-0.6c-0.1-0.5-0.3-1.7-0.6-3.6c-0.1-0.5-0.1-0.9-0.2-1.4c-0.3,0.8-0.7,1.6-1.3,2.4
				c-0.1,0.1-0.2,0.2-0.4,0.2c-0.1,0-0.3,0-0.4-0.1s-0.2-0.2-0.2-0.4c0-0.1,0-0.3,0.1-0.4c0.6-0.9,1.1-1.7,1.3-2.5l0,0
				C314.9,99.2,315,98.8,315.1,98.1z"/>
			<path class="st3" d="M315.3,97.8c-0.1,0.1-0.1,0.1-0.1,0.2c-0.1,0.6-0.2,1.1-0.4,1.6l0,0c-0.3,0.8-0.7,1.7-1.3,2.5
				c-0.1,0.1-0.1,0.3-0.1,0.4c0,0.2,0.1,0.3,0.2,0.4s0.3,0.1,0.4,0.1c0.2,0,0.3-0.1,0.4-0.2c0.6-0.8,1-1.7,1.3-2.4
				c0.1,0.4,0.1,0.9,0.2,1.4c0.2,1.9,0.4,3.1,0.6,3.6c-0.4,0.2-0.7,0.4-1.1,0.6c-0.1,0.1-0.2,0.2-0.3,0.3c0,0.2,0,0.3,0.1,0.4
				s0.2,0.2,0.3,0.3c0.2,0,0.3,0,0.4-0.1c1-0.6,2-1.1,3.3-1.5c0.2-0.1,0.3-0.2,0.3-0.3c0.1-0.1,0.1-0.3,0-0.4s-0.2-0.2-0.3-0.3
				c-0.1-0.1-0.3-0.1-0.4,0c-0.4,0.2-0.9,0.3-1.3,0.5c-0.1-0.5-0.3-1.6-0.5-3.3c-0.2-1.7-0.4-2.9-0.6-3.6c0-0.1,0-0.2-0.1-0.3
				c-0.1-0.1-0.1-0.2-0.3-0.3c-0.1-0.1-0.3-0.1-0.4,0C315.5,97.5,315.3,97.6,315.3,97.8C315.4,97.8,315.3,97.8,315.3,97.8
				L315.3,97.8z"/>
			<path class="st19" d="M314,95.4c-0.4,0.2-0.7,0.5-1,0.9c0.4-0.2,0.8-0.4,1.2-0.6c1.7-0.6,3.4-0.6,5,0.2c1.7,0.7,2.8,2,3.5,3.7
				c0.6,1.7,0.6,3.4-0.2,5c-0.6,1.4-1.5,2.4-2.8,3.1c0.2-0.1,0.5-0.1,0.8-0.3c1.8-0.7,3.1-1.9,3.8-3.6c0.8-1.7,0.9-3.5,0.2-5.2
				s-1.9-3.1-3.6-3.9c-0.7-0.3-1.3-0.5-2-0.6c-1.1-0.1-2.1,0-3.2,0.4c-0.5,0.2-1,0.4-1.5,0.7l0,0C314.1,95.3,314,95.3,314,95.4
				C314,95.3,314,95.3,314,95.4z"/>
		</g>
	</g>
</g>
<g transform="matrix( 1, 0, 0, 1, 0,0) ">
	<g>
		<g id="Layer1_1_MEMBER_15_FILL">
			<path class="st8" d="M379.2,22.6l-6-0.8l-9.5,16.6l6.1,2l-11.5,17.3l18.9-18.8l-6.8-2.7L379.2,22.6z"/>
		</g>
	</g>
</g>
<g transform="matrix( 1, 0, 0, 1, 0,0) ">
	<g>
		<path id="Layer1_1_MEMBER_16_1_STROKES" class="st20" d="M366.3,103.1c0,0.2-0.1,0.5-0.1,0.7 M364.3,86.4c0.6-1.2,1.6-1.9,3-2.4
			c1.5-0.5,2.9-0.4,4.3,0.1c1.4,0.6,2.4,1.5,2.9,2.8s0.5,2.6-0.2,3.8c-0.7,1.2-1.7,2-3.2,2.4c-1.4,0.4-2.5,0.9-3.2,1.5
			s-1.2,1.8-1.3,3.6"/>
	</g>
</g>
<g transform="matrix( 1, 0, 0, 1, 0,0) ">
	<g>
		<path id="Layer1_1_MEMBER_17_1_STROKES" class="st20" d="M382.4,99.2c1-0.3,2-0.1,3,0.4c1.1,0.6,1.9,1.4,2.3,2.6
			c0.4,1.1,0.4,2.2,0,3.2s-1.2,1.7-2.2,2c-1.1,0.3-2.1,0.2-3.1-0.5c-1.1-0.6-1.9-1-2.7-1c-0.7-0.1-1.7,0.3-2.8,1.3 M373.9,109.6
			c-0.2,0.1-0.3,0.2-0.5,0.3"/>
	</g>
</g>
<g transform="matrix( 1, 0, 0, 1, 0,0) ">
	<g>
		<g id="Layer1_1_MEMBER_18_FILL_1_">
			<path class="st7" d="M375.9,146.9c-0.2-0.3-0.4-0.5-0.7-0.6l-0.9-0.3c-0.3-0.1-0.6,0-0.8,0.1c-0.3,0.2-0.5,0.4-0.6,0.7l-0.2,0.9
				c-0.1,0.3-0.1,0.5,0.1,0.8s0.4,0.5,0.7,0.6l0.9,0.2c0.3,0.1,0.6,0,0.9-0.1c0.3-0.2,0.5-0.4,0.6-0.7l0.2-0.9
				C376.1,147.4,376.1,147.2,375.9,146.9 M364.2,146.1c0.3-0.2,0.5-0.4,0.5-0.7l0.2-0.8c0.1-0.3,0-0.5-0.1-0.8
				c-0.2-0.3-0.4-0.5-0.7-0.6l-0.8-0.3c-0.3-0.1-0.6,0-0.9,0.2s-0.5,0.4-0.5,0.6l-0.2,0.9c-0.1,0.3-0.1,0.5,0.1,0.8s0.4,0.5,0.7,0.5
				l0.8,0.3C363.6,146.3,363.9,146.2,364.2,146.1 M367.4,145.2l-0.2,0.9c-0.1,0.3-0.1,0.6,0.1,0.9s0.4,0.5,0.7,0.6l0.8,0.2
				c0.3,0.1,0.6,0.1,0.9-0.1c0.2-0.2,0.4-0.4,0.5-0.7l0.2-0.9c0.1-0.3,0-0.6-0.1-0.9c-0.2-0.3-0.4-0.5-0.7-0.5l-0.8-0.2
				c-0.3-0.1-0.6-0.1-0.9,0.1C367.7,144.8,367.5,145,367.4,145.2 M368.5,128l-1.1-0.3c-0.7-0.2-1.2,0-1.4,0.8l-3.5,11.9
				c-0.2,0.7,0.1,1.2,0.8,1.4l1.1,0.3c0.7,0.2,1.2-0.1,1.4-0.8l3.4-11.9C369.5,128.6,369.2,128.2,368.5,128 M374,129.5l-1.1-0.3
				c-0.7-0.2-1.2,0-1.4,0.8l-3.4,11.9c-0.2,0.7,0.1,1.2,0.8,1.4l1.1,0.3c0.7,0.2,1.2,0,1.4-0.8l3.4-11.9
				C375,130.2,374.8,129.8,374,129.5 M379.6,131.1l-1.1-0.3c-0.7-0.2-1.2,0.1-1.4,0.8l-3.4,11.9c-0.2,0.7,0.1,1.2,0.8,1.4l1.1,0.3
				c0.7,0.2,1.2-0.1,1.4-0.8l3.5-11.9C380.6,131.8,380.3,131.3,379.6,131.1z"/>
		</g>
	</g>
</g>
<g transform="matrix( 1, 0, 0, 1, 0,0) ">
	<g>
		<g id="Layer1_1_MEMBER_19_FILL">
			<path class="st8" d="M351.5,156.8C351.4,156.8,351.4,156.8,351.5,156.8c-0.6-0.2-1-0.1-1.4,0.4l-0.8,1.2
				c-0.4,0.6-0.3,1.2,0.3,1.6l1.9,1.3l-1.3,1.9c-0.4,0.6-0.3,1.2,0.3,1.6l1.6,1.1c0.6,0.5,1.2,0.4,1.6-0.3l1.3-1.8l1.7,1.1
				c0.7,0.4,1.2,0.3,1.6-0.3l0.6-0.9l0.2-0.3c0.4-0.6,0.3-1.2-0.3-1.6l-1.7-1.2l1.3-1.9c0.4-0.6,0.3-1.2-0.3-1.6l-1.6-1.2
				c-0.6-0.4-1.2-0.3-1.6,0.3l-1.3,1.9l-2-1.4l-0.1-0.1L351.5,156.8z"/>
			<path class="st3" d="M343.6,153c0.1,0.2,0.3,0.3,0.4,0.4l5.7,3.9l0.2-0.2c0.4-0.6,0.9-0.7,1.5-0.3c0,0,0,0,0.1,0.1h0.1l0.1,0.1
				l2,1.4l1.3-1.9c0.4-0.6,1-0.7,1.6-0.3l1.6,1.2c0.7,0.4,0.8,0.9,0.3,1.6l-1.3,1.9l1.7,1.2c0.7,0.4,0.8,0.9,0.3,1.6l-0.2,0.3
				l6.2,4.3c0.1,0,0.2,0.1,0.2,0.1c0.5,0.3,1,0.1,1.4-0.4l6.1-8.8c0.4-0.6,0.3-1.1-0.3-1.6l-21-14.6c-0.6-0.4-1.2-0.3-1.6,0.3
				l-6,8.7C343.5,152.2,343.4,152.6,343.6,153z"/>
			<path class="st21" d="M344,153.4c-0.2-0.1-0.3-0.2-0.4-0.4l-4.9,7.1c-0.5,0.7-0.4,1.2,0.2,1.6l19.8,13.8c0.6,0.4,1.2,0.3,1.6-0.3
				l4.9-7.1c-0.1-0.1-0.2-0.1-0.2-0.1l-6.2-4.3l-0.6,0.9c-0.4,0.7-1,0.8-1.6,0.3l-1.7-1.1l-1.3,1.8c-0.5,0.7-1,0.8-1.6,0.3l-1.6-1.1
				c-0.6-0.5-0.7-1-0.3-1.6l1.3-1.9l-1.9-1.3c-0.6-0.5-0.7-1-0.3-1.6l0.8-1.2c0.4-0.5,0.8-0.7,1.3-0.5c-0.6-0.4-1.1-0.3-1.5,0.3
				l-0.2,0.2L344,153.4z"/>
		</g>
	</g>
</g>
<g transform="matrix( 1, 0, 0, 1, 0,0) ">
	<g>
		<g id="Layer1_2_FILL_3_">
			<path class="st7" d="M148.8,325.8l-41.5,27.4l98.1,22.7l163.9,0.9l106.2-21.6L444,327.5l-145.4-13.1L148.8,325.8z"/>
		</g>
	</g>
</g>
<g transform="matrix( 1, 0, 0, 1, 0,0) ">
	<g>
		<g id="Layer1_3_FILL_3_">
			<path class="st7" d="M223,217c0.1-0.1,0.1-0.3,0.1-0.4L225,205h-2.9l-1.8,11.1c0,0.1,0,0.2,0,0.3
				C221.2,216.6,222.1,216.8,223,217 M216.1,165.4c-0.3-0.3-0.7-0.4-1.1-0.4c-0.4,0.1-0.7,0.3-1,0.6c-0.2,0.4-0.3,0.8-0.2,1.3
				l4.4,32.4l2.8-0.8l-4.4-31.9C216.6,166.1,216.4,165.8,216.1,165.4z"/>
		</g>
	</g>
</g>
<g transform="matrix( -0.552520751953125, 0.38226318359375, 0.38226318359375, 0.552520751953125, 1197.1,93.45) ">
	<g>
		<g id="Layer1_3_MEMBER_0_FILL_3_">
			<path class="st22" d="M1246.4-655l-9.8-5.5l-15.3,25.9l9.9,5.5L1246.4-655z"/>
		</g>
	</g>
</g>
<g transform="matrix( 0.2971038818359375, 0.954803466796875, -0.954803466796875, 0.2971038818359375, 888.7,-299.05) ">
	<g>
		<g id="Layer1_3_MEMBER_1_FILL_1_">
			<path class="st19" d="M240.3,773c1.2,1,2.5,1.4,4.1,1.3l35.1-2.8c1.6-0.1,2.9-0.8,3.9-2s1.4-2.5,1.3-4.1c-0.1-1.5-0.8-2.8-2-3.8
				s-2.5-1.4-4-1.3l-35.2,2.9c-1.5,0.1-2.8,0.8-3.8,1.9c-1,1.2-1.4,2.5-1.3,4.1C238.5,770.7,239.2,771.9,240.3,773z"/>
		</g>
	</g>
</g>
<g transform="matrix( -0.660675048828125, -0.1223602294921875, -0.2506103515625, 1.353118896484375, 1561.95,80.3) ">
	<g>
		<g id="Layer1_3_MEMBER_2_FILL_3_">
			<path class="st10" d="M1952.4,309.8c-1.5-1.5-3.2-2.2-5.3-2.2c-2.1,0-3.8,0.7-5.3,2.2s-2.2,3.2-2.2,5.3l0,53.2
				c0,2.1,0.7,3.9,2.2,5.3c1.5,1.5,3.2,2.2,5.3,2.2c2.1,0,3.9-0.7,5.3-2.2s2.2-3.2,2.2-5.3l0-53.2
				C1954.6,313,1953.9,311.2,1952.4,309.8z"/>
		</g>
	</g>
</g>
<g transform="matrix( 0.660675048828125, -0.1223602294921875, 0.1223602294921875, 0.660675048828125, -94.55,566.95) ">
	<g>
		<g id="Layer1_3_MEMBER_3_FILL_2_">
			<path class="st17" d="M474.7-251.5c0-0.5-0.2-0.9-0.5-1.1c-0.4-0.3-0.8-0.4-1.2-0.2c-3.8,1.2-8.3,1.1-13.3-0.2
				c-1.1-0.3-2.2-0.3-3.4,0l-24.1,6.3c-0.8,0.2-1.5,0.6-2,1.3c-0.5,0.7-0.8,1.4-0.8,2.2v0.9l45.3,0V-251.5z"/>
		</g>
	</g>
</g>
<g transform="matrix( 0.660675048828125, -0.1223602294921875, 0.1223602294921875, 0.660675048828125, -94.55,566.95) ">
	<g>
		<g id="Layer1_3_MEMBER_4_FILL_2_">
			<path class="st10" d="M429.4-242.3v1.4c0,0.4,0.1,0.7,0.4,1s0.6,0.4,1,0.4l41.1,0c0.8,0,1.4-0.3,2-0.8c0.5-0.5,0.8-1.2,0.8-2
				v-0.1L429.4-242.3z"/>
		</g>
	</g>
</g>
<g transform="matrix( -0.6718597412109375, -0.0087432861328125, -0.0171051025390625, 1.3143157958984375, 1438.35,-10.05) ">
	<g>
		<g id="Layer1_3_MEMBER_5_FILL_2_">
			<path class="st10" d="M1808.3,221.6c-1.5-1.5-3.2-2.2-5.3-2.2c-2.1,0-3.8,0.7-5.3,2.2s-2.2,3.2-2.2,5.3v53.2
				c0,2.1,0.7,3.9,2.2,5.3c1.5,1.5,3.2,2.2,5.3,2.2c2.1,0,3.9-0.7,5.3-2.2c1.5-1.5,2.2-3.2,2.2-5.3v-53.2
				C1810.4,224.9,1809.7,223.1,1808.3,221.6z"/>
		</g>
	</g>
</g>
<g transform="matrix( -0.6718597412109375, -0.0087432861328125, -0.0087432861328125, 0.6718597412109375, 1432.95,445.2) ">
	<g>
		<g id="Layer1_3_MEMBER_6_FILL_2_">
			<path class="st17" d="M1769.6-117c-0.8,0.2-1.5,0.6-2,1.3s-0.8,1.4-0.8,2.2v0.9l45.3,0v-9.1c0-0.5-0.2-0.9-0.5-1.1
				c-0.4-0.3-0.8-0.4-1.2-0.2c-3.9,1.2-8.3,1.1-13.3-0.2c-1.1-0.3-2.3-0.3-3.4,0L1769.6-117z"/>
		</g>
	</g>
</g>
<g transform="matrix( -0.6718597412109375, -0.0087432861328125, -0.0087432861328125, 0.6718597412109375, 1432.95,445.2) ">
	<g>
		<g id="Layer1_3_MEMBER_7_FILL_2_">
			<path class="st10" d="M1766.9-112.6v1.4c0,0.4,0.1,0.7,0.4,1s0.6,0.4,1,0.4l41.2,0c0.8,0,1.4-0.3,2-0.8c0.5-0.5,0.8-1.2,0.8-2
				v-0.1L1766.9-112.6z"/>
		</g>
	</g>
</g>
<g transform="matrix( -0.660675048828125, -0.1223602294921875, -0.1223602294921875, 0.660675048828125, 1471.05,564.9) ">
	<g>
		<g id="Layer1_3_MEMBER_8_FILL">
			<path class="st23" d="M1955.7-147.4l-55.3,0.5l0.3,17.7c0,2.6,1,4.9,2.8,6.7c1.9,1.8,4.1,2.8,6.8,2.7l36.3-0.3
				c2.6,0,4.9-1,6.7-2.8c1.8-1.9,2.7-4.1,2.7-6.7L1955.7-147.4z"/>
		</g>
	</g>
</g>
<g transform="matrix( 1, 0, 0, 1, 0,0) ">
	<g>
		<g id="Layer1_3_MEMBER_9_FILL">
			<path class="st19" d="M192.2,163.8c-1.6,2-2.2,4.3-2,6.8c0.9,3.9,1.9,8.1,2.8,12.5c1.3,5.9,2.3,10.6,2.8,14
				c0.3,1.8,0.5,3.2,0.6,4.3c0.1,0.5,0.1,1.1,0.2,1.8c0.2,1.8,0.3,4.1,0.5,7c0.1,1,0.1,2.1,0.2,3.3c0,0.3,0,0.5,0,0.8
				c0.8-0.2,2.5-0.3,5.2-0.4c2.5-0.1,9.9-1.3,22.1-3.6c4.1-0.3,8.3-0.8,12.5-1.5l-2.8-43.2c-0.3-2.6-1.4-4.6-3.4-6.2s-4.3-2.3-6.8-2
				l-25.8,2.9C195.9,160.6,193.8,161.8,192.2,163.8z"/>
		</g>
	</g>
</g>
<g transform="matrix( 1, 0, 0, 1, 0,0) ">
	<g>
		<g id="Layer1_3_MEMBER_10_FILL">
			<path class="st19" d="M223,217l-2.8-0.6l-22.4-3.1l-3.2,12.1c-1.8,6.4-6.1,19.6-12.8,39.6l61.7,8l-5.4-55.7L223,217z"/>
		</g>
	</g>
</g>
<g transform="matrix( 1, 0, 0, 1, 0,0) ">
	<g>
		<g id="Layer1_3_MEMBER_11_FILL_2_">
			<path class="st7" d="M214.1,163.8c-0.3-0.3-0.6-0.4-1-0.3c-0.4,0-0.7,0.2-1,0.6c-0.2,0.4-0.3,0.8-0.2,1.3l5.9,43.5
				c0.1,0.5,0.3,0.9,0.6,1.2c0.3,0.3,0.7,0.4,1.1,0.4c0.4-0.1,0.7-0.3,0.9-0.7c0.2-0.3,0.3-0.8,0.3-1.3l-5.9-43.5
				C214.7,164.5,214.5,164.1,214.1,163.8z"/>
		</g>
	</g>
</g>
<g transform="matrix( 1, 0, 0, 1, 0,0) ">
	<g>
		<g id="Layer1_3_MEMBER_12_FILL">
			<path class="st3" d="M238.5,212l-0.5-4.3l-40.3,4.1c-0.3,0-0.6,0.1-0.9,0.1l0.5,4.2L238.5,212z"/>
		</g>
	</g>
</g>
<g transform="matrix( 1, 0, 0, 1, 0,0) ">
	<g>
		<g id="Layer1_3_MEMBER_13_FILL_2_">
			<path class="st3" d="M239.7,215.3c-0.2-0.4-0.4-0.6-0.7-0.6c-0.2-1.2-0.4-2.3-0.6-3.4l-34.7,3.7c0,0.9,0,1.8,0,2.6
				c-0.2,0.1-0.4,0.3-0.6,0.6c-0.2,0.4-0.3,0.9-0.3,1.5c0.1,0.6,0.3,1,0.5,1.3c0.2,0.2,0.5,0.4,0.7,0.5c0.1,0.9,0.3,1.9,0.5,2.7
				c-0.2,0.1-0.3,0.3-0.4,0.6c-0.2,0.5-0.3,1-0.2,1.7c0.1,0.6,0.3,1.2,0.5,1.6c0.3,0.4,0.7,0.6,1,0.5c0.1,0,0.2,0,0.3-0.1
				c0.4,1.2,0.9,2.4,1.5,3.6c-0.2,0.4-0.2,0.9-0.2,1.4c0.1,0.6,0.2,1.1,0.6,1.5c0.3,0.4,0.6,0.6,1,0.5c0.2,0,0.4-0.1,0.5-0.3
				c0.6,0.7,1.1,1.5,1.7,2.2c0.4,0.4,0.7,0.8,1.1,1.2c-0.2,0.4-0.2,0.8-0.2,1.3c0.1,0.5,0.2,1,0.5,1.3s0.7,0.5,1.1,0.5
				c0.4-0.1,0.7-0.3,0.9-0.7c0.1-0.1,0.1-0.1,0.1-0.2c1,0.8,2.1,1.4,3.2,1.9c0,0.1,0,0.3,0,0.5c0.1,0.4,0.2,0.7,0.5,1
				c0.3,0.2,0.6,0.4,0.9,0.3c0.4,0,0.7-0.2,0.9-0.5c0.1-0.1,0.2-0.3,0.3-0.4c0.9,0.2,1.9,0.2,2.9,0.3c0.1,0.3,0.2,0.5,0.5,0.7
				s0.7,0.3,1.1,0.3c0.4-0.1,0.7-0.2,0.9-0.5s0.3-0.6,0.3-0.9c1.1-0.2,2.1-0.6,3.1-1.2l0,0c0.3,0.2,0.6,0.3,1,0.2
				c0.4,0,0.7-0.2,1-0.4c0.2-0.3,0.3-0.6,0.3-0.9c0-0.1-0.1-0.3-0.1-0.4c1.1-0.9,2.2-2,3.1-3.3c0.3,0.3,0.5,0.5,0.8,0.4
				c0.3,0,0.6-0.2,0.7-0.6c0.2-0.3,0.2-0.8,0.2-1.2c0-0.4-0.1-0.7-0.3-0.9c0.1-0.1,0.1-0.2,0.2-0.3c0.5-0.9,0.9-1.7,1.2-2.6
				c0.3-0.1,0.6-0.3,0.8-0.7c0.2-0.4,0.3-0.9,0.3-1.4c0-0.2,0-0.4-0.1-0.5c0.4-1.2,0.7-2.6,0.9-3.9c0.2,0,0.4-0.2,0.6-0.6
				c0.2-0.4,0.2-0.9,0.1-1.4c0-0.5-0.2-1-0.4-1.4c0.1-1,0.1-2.1,0-3.2h0.1c0.2,0,0.4-0.2,0.5-0.7c0.1-0.4,0.1-0.9,0.1-1.5
				C240,216.2,239.9,215.8,239.7,215.3z"/>
		</g>
	</g>
</g>
<g transform="matrix( 0.95635986328125, -0.2921142578125, 0.2921142578125, 0.95635986328125, -117.6,454.9) ">
	<g>
		<g id="Layer1_3_MEMBER_14_FILL_2_">
			<path class="st7" d="M390.3-188.9c-0.3,0.7-0.5,1.3-0.6,2c-0.5,2.8,0.2,5.5,2.2,7.9c2,2.5,4.7,4,8,4.6c3.3,0.6,6.4,0.1,9.1-1.4
				c2.7-1.6,4.4-3.8,4.9-6.6c0.1-0.7,0.2-1.4,0.1-2L390.3-188.9z"/>
		</g>
	</g>
</g>
<g transform="matrix( 0.95635986328125, -0.2921142578125, 0.2921142578125, 0.95635986328125, -117.6,454.9) ">
	<g>
		<g id="Layer1_3_MEMBER_15_FILL_2_">
			<path class="st22" d="M392.2-188.5c-0.3,0.6-0.5,1.2-0.7,2c-0.4,2.3,0.2,4.5,1.9,6.5c1.7,2,3.9,3.3,6.7,3.8
				c2.8,0.5,5.4,0.1,7.7-1.1c2.3-1.3,3.7-3.1,4.1-5.4c0.1-0.7,0.1-1.3,0.1-2.1L392.2-188.5z"/>
		</g>
	</g>
</g>
<g transform="matrix( -0.6676025390625, 0.07598876953125, 0.07598876953125, 0.6676025390625, 1407.5,350.3) ">
	<g>
		<g id="Layer1_3_MEMBER_16_FILL_2_">
			<path class="st22" d="M1738.6-499.4c-1-1-2.2-1.5-3.5-1.5c-1.4,0-2.6,0.5-3.5,1.5c-1,1-1.5,2.2-1.5,3.5v10.7c0,2.4,1.7,3.6,5,3.6
				s5-1.2,5-3.6v-10.7C1740.1-497.3,1739.6-498.4,1738.6-499.4z"/>
		</g>
	</g>
</g>
<g transform="matrix( -0.53326416015625, 0.4086151123046875, 0.4086151123046875, 0.53326416015625, 1201.5,35.7) ">
	<g>
		<g id="Layer1_3_MEMBER_17_MEMBER_0_FILL">
			<path class="st24" d="M1257.3-805.7l-2.5-4.2c-1.1-0.2-2.1,0.1-3.2,1c-2.1,1.7-3.2,5.4-3.2,10.8c0,2.7,0.3,5.7,0.8,8.9
				c0.3,1.6,0.6,2.9,0.8,4l9.8-11.3l10.1-4.5L1257.3-805.7z"/>
		</g>
	</g>
</g>
<g transform="matrix( -0.53326416015625, 0.4086151123046875, 0.4086151123046875, 0.53326416015625, 1201.5,35.7) ">
	<g>
		<g id="Layer1_3_MEMBER_17_MEMBER_1_MEMBER_0_FILL">
			<path class="st22" d="M1287.8-798.8c-4-5.4-9.1-8-15.2-8.1c-7.2,0-12.6,1.5-16.2,4.5c-4,3.3-6.2,8.6-6.7,15.9
				c-0.5,6.3,0.4,12.4,2.6,18.2c2.8,7.6,7.4,12,13.6,13.4c7.3,0.4,13.3-1.8,17.9-6.7c4.1-4.4,6.9-10.4,8.2-18
				C1293.3-786.8,1291.9-793.3,1287.8-798.8z"/>
		</g>
	</g>
</g>
<g transform="matrix( -0.509490966796875, 0.43780517578125, 0.43780517578125, 0.509490966796875, 1174.3,9.85) ">
	<g>
		<g id="Layer1_3_MEMBER_17_MEMBER_1_MEMBER_1_MEMBER_0_FILL">
			<path class="st25" d="M1206.3-800c-0.2-0.2-0.5-0.3-0.7-0.3l-5.8,0.3c-0.3,0-0.5,0.1-0.7,0.3s-0.3,0.4-0.3,0.7
				c0,0.2,0.1,0.4,0.3,0.6c0.2,0.2,0.4,0.3,0.6,0.3l6-0.3c0.3,0,0.5-0.1,0.7-0.3s0.2-0.5,0.2-0.7
				C1206.6-799.6,1206.5-799.9,1206.3-800z"/>
		</g>
	</g>
</g>
<g transform="matrix( -0.489532470703125, 0.460052490234375, 0.460052490234375, 0.489532470703125, 1148.9,-9.7) ">
	<g>
		<g id="Layer1_3_MEMBER_17_MEMBER_1_MEMBER_2_MEMBER_0_FILL">
			<path class="st25" d="M1171.7-807.6h-0.2c-0.2,0-0.4,0.1-0.6,0.3s-0.2,0.4-0.3,0.6c0,0.3,0.1,0.5,0.3,0.7
				c0.2,0.2,0.4,0.3,0.7,0.3l5.8,0.3c0.3,0,0.5-0.1,0.7-0.2c0.2-0.2,0.3-0.4,0.3-0.7s-0.1-0.5-0.2-0.7c-0.2-0.2-0.4-0.3-0.7-0.3
				L1171.7-807.6z"/>
		</g>
	</g>
</g>
<g transform="matrix( -0.53326416015625, 0.4086151123046875, 0.4086151123046875, 0.53326416015625, 1201.5,35.7) ">
	<g>
		<g id="Layer1_3_MEMBER_17_MEMBER_1_MEMBER_3_FILL">
			<path class="st26" d="M1268.3-779.5c0,0.4,0.1,0.7,0.4,0.9c0.2,0.2,0.6,0.4,0.9,0.4c0.4,0,0.7-0.1,0.9-0.4
				c0.3-0.2,0.4-0.6,0.4-0.9s-0.1-0.7-0.4-0.9c-0.2-0.3-0.6-0.4-0.9-0.4c-0.4,0-0.7,0.1-0.9,0.4
				C1268.4-780.2,1268.3-779.9,1268.3-779.5z"/>
		</g>
	</g>
</g>
<g transform="matrix( -0.53326416015625, 0.4086151123046875, 0.4086151123046875, 0.53326416015625, 1201.5,35.7) ">
	<g>
		<g id="Layer1_3_MEMBER_17_MEMBER_1_MEMBER_4_FILL">
			<path class="st26" d="M1256.6-778.1c0.2-0.2,0.4-0.6,0.4-0.9c0-0.4-0.1-0.7-0.4-0.9c-0.2-0.2-0.6-0.4-0.9-0.4
				c-0.4,0-0.7,0.1-0.9,0.4c-0.2,0.3-0.4,0.6-0.4,0.9c0,0.4,0.1,0.7,0.4,0.9s0.6,0.4,0.9,0.4C1256-777.8,1256.3-777.9,1256.6-778.1z
				"/>
		</g>
	</g>
</g>
<g transform="matrix( -0.53326416015625, 0.4086151123046875, 0.4086151123046875, 0.53326416015625, 1201.5,35.7) ">
	<g>
		<g id="Layer1_3_MEMBER_17_MEMBER_1_MEMBER_5_FILL">
			<path class="st27" d="M1262.5-781.4l-2.3,10.8l2.4,0.5L1262.5-781.4z"/>
		</g>
	</g>
</g>
<g transform="matrix( 0.86614990234375, -0.49945068359375, 0.49945068359375, 0.86614990234375, -120.25,649.15) ">
	<g>
		<g id="Layer1_3_MEMBER_17_MEMBER_1_MEMBER_6_FILL">
			<path class="st28" d="M539.9-268.7C539.9-268.7,539.9-268.6,539.9-268.7c0.7,0.6,1.6,0.9,2.7,0.9h0.7c0.8,0.1,1.4-0.1,1.6-0.3
				l1.4-2.3H539C539.1-269.7,539.3-269.2,539.9-268.7z"/>
			<path class="st3" d="M539-270.5C539-270.4,539-270.4,539-270.5l7.3,0.1l0.8-1.4l-8.1,1V-270.5L539-270.5z"/>
		</g>
	</g>
</g>
<g transform="matrix( -0.53326416015625, 0.4086151123046875, 0.4086151123046875, 0.53326416015625, 1201.5,35.7) ">
	<g>
		<g id="Layer1_3_MEMBER_17_MEMBER_2_FILL">
			<path class="st24" d="M1287.5-804.5c1.1,2.6,2.8,4.4,5,5.6c2.2,1.2,4.3,1.3,6.3,0.5c2-0.9,3.3-2.5,3.9-5c0.6-2.4,0.4-4.9-0.7-7.5
				s-2.8-4.4-5-5.6c-2.2-1.2-4.3-1.3-6.3-0.5c-2,0.9-3.3,2.5-3.9,4.9C1286.1-809.5,1286.4-807,1287.5-804.5z"/>
		</g>
	</g>
</g>
<g transform="matrix( -0.53326416015625, 0.4086151123046875, 0.4086151123046875, 0.53326416015625, 1201.5,35.7) ">
	<g>
		<g id="Layer1_3_MEMBER_17_MEMBER_3_FILL">
			<path class="st29" d="M1276.1-818.7c-4.9-0.8-9-0.7-12.3,0.5c-4,1.4-7,4.2-9.1,8.5c3.1,7.6,8.4,14.1,15.8,19.4
				c2.6,1.9,5.3,3.4,8.1,4.7c2.2,1,3.9,1.6,5,1.8c-0.4,3,0.5,4.9,2.6,5.7c1.1,0.4,2.1,0.5,3.3,0.3c0.4-0.3,1.6-0.8,3.5-1.6
				c1.5-0.6,2.3-1.2,2.5-2c3.5-11.5,2.9-20.6-1.8-27.3C1289.7-814.1,1283.9-817.4,1276.1-818.7z"/>
		</g>
	</g>
</g>
<g transform="matrix( -0.53326416015625, 0.4086151123046875, 0.4086151123046875, 0.53326416015625, 1201.5,35.7) ">
	<g>
		<g id="Layer1_3_MEMBER_17_MEMBER_4_MEMBER_0_FILL">
			<path class="st22" d="M1287.2-784.2c0.1,2.1,0.4,4,1.1,5.8c0.6,1.6,1.4,3,2.4,4.2c1.1,1.2,2.2,0.6,3.4-1.9c1.2-3.3,2-5.5,2.4-6.6
				c0.9-2.3,0.4-3.9-1.3-4.9c-1.7-0.9-3.5-0.7-5.5,0.7c-0.8,0.6-1.5,1.2-2,1.9L1287.2-784.2z"/>
		</g>
	</g>
</g>
<g transform="matrix( -0.53326416015625, 0.4086151123046875, 0.4086151123046875, 0.53326416015625, 1201.5,35.7) ">
	<g>
		<g id="Layer1_3_MEMBER_17_MEMBER_4_MEMBER_1_FILL">
			<path class="st27" d="M1290.3-783.7l2.6,0.4l-1.3,5.9l3.9-7.1L1290.3-783.7z"/>
		</g>
	</g>
</g>
<g transform="matrix( -0.53326416015625, 0.4086151123046875, 0.4086151123046875, 0.53326416015625, 1201.5,35.7) ">
	<g>
		<g id="Layer1_3_MEMBER_17_MEMBER_5_FILL">
			<path class="st30" d="M1290-771.5c0.4,0.5,1,0.7,1.6,0.7s1.2-0.2,1.7-0.7s0.7-1,0.7-1.7s-0.2-1.2-0.7-1.7s-1-0.7-1.7-0.7
				s-1.2,0.2-1.6,0.7c-0.5,0.5-0.7,1-0.7,1.7S1289.5-772,1290-771.5z"/>
		</g>
	</g>
</g>
<g transform="matrix( -0.20654296875, 0.9783935546875, -0.9783935546875, -0.20654296875, 1333.8,-128.3) ">
	<g>
		<g id="Layer1_3_MEMBER_18_FILL">
			<path class="st19" d="M557.5,963.8l-10.9-2.3l-8,38.6c3.5-0.4,4.7,0.5,3.6,2.7c-1.1,2.2-0.9,3.5,0.6,3.9c1.5,0.3,2.9,0.1,4.2-0.7
				s2.1-2,2.4-3.5L557.5,963.8z"/>
		</g>
	</g>
</g>
<g transform="matrix( -0.077056884765625, 0.99700927734375, -0.99700927734375, -0.077056884765625, 1221.5,-197.6) ">
	<g>
		<g id="Layer1_3_MEMBER_19_FILL">
			<path class="st22" d="M485.7,894.7c-0.1-4.2-0.7-5.7-1.7-4.5s-2,2.5-3.1,4.1s-1.6,5.6-1.6,12c-0.4,0.7-0.8,2-1.4,4.1l6.5,2
				c2.3-2.9,3.5-4.4,3.5-4.5c1.5-3.9,2.3-6.8,2.3-8.6c0.1-1.8-0.1-2.3-0.5-1.3c-0.6-1.2-1.3-1-2.2,0.7c-0.8,1.7-1.5,3.6-1.8,5.9
				c0.1-1,0.1-1.4,0-1.3c-0.1,0.1-0.2,0-0.3-0.4C485.7,899.1,485.8,896.4,485.7,894.7z"/>
		</g>
	</g>
</g>
<g transform="matrix( -0.20654296875, 0.9783935546875, -0.9783935546875, -0.20654296875, 1333.8,-128.3) ">
	<g>
		<g id="Layer1_3_MEMBER_20_FILL_2_">
			<path class="st7" d="M556.8,967.5l0.8-4.1l-10.8-2.1l-0.8,4L556.8,967.5z"/>
		</g>
	</g>
</g>
<g transform="matrix( 0.1639862060546875, -0.9855804443359375, -0.9855804443359375, -0.1639862060546875, 950.65,1393.15) ">
	<g>
		<g id="Layer1_3_MEMBER_21_MEMBER_0_FILL">
			<path class="st19" d="M1084.5,942.1c-1.5,0.3-2.7,1.1-3.6,2.3l-20.1,28.9c-0.9,1.3-1.2,2.6-0.9,4.1c0.3,1.5,1.1,2.7,2.3,3.6
				c1.3,0.9,2.7,1.2,4.2,0.9s2.7-1.1,3.6-2.3l20.1-28.9c0.9-1.2,1.2-2.6,0.9-4.1c-0.3-1.5-1-2.7-2.3-3.6
				C1087.4,942.1,1086,941.8,1084.5,942.1z"/>
		</g>
	</g>
</g>
<g transform="matrix( -0.6136474609375, -0.2703857421875, -0.2703857421875, 0.6136474609375, 1455.75,711.75) ">
	<g>
		<g id="Layer1_3_MEMBER_21_MEMBER_1_FILL">
			<path class="st22" d="M2048.6,98.4l-12-1.2l-2.3,11.8c-1.6,1.6-3,3.3-4.4,5c-2.7,3.4-3.5,5.2-2.4,5.5c1.1,0.2,2.4,0.4,4,0.4
				c2.5,0,4.5-0.3,6.1-1.1c1.4-0.6,3.3-2.2,5.8-4.8c1.3-1.3,2.4-2.5,3.4-3.7L2048.6,98.4z"/>
		</g>
	</g>
</g>
<g transform="matrix( 0.5648651123046875, -0.824127197265625, -0.824127197265625, -0.5648651123046875, 592.5,1447.65) ">
	<g>
		<g id="Layer1_3_MEMBER_21_MEMBER_2_FILL">
			<path class="st19" d="M780,1035.5l-8.9,6.7l23.8,31.4c0.9,1.2,2.1,2,3.7,2.2c1.5,0.2,2.9-0.1,4.1-1c1.2-0.9,2-2.2,2.2-3.7
				s-0.1-2.9-1-4.1L780,1035.5z"/>
		</g>
	</g>
</g>
<g transform="matrix( 0.5648651123046875, -0.824127197265625, -0.824127197265625, -0.5648651123046875, 592.5,1447.65) ">
	<g>
		<g id="Layer1_3_MEMBER_21_MEMBER_3_FILL">
			<path class="st7" d="M771,1042l2.5,3.3l8.7-6.8l-2.6-3.3L771,1042z"/>
		</g>
	</g>
</g>
<g transform="matrix( 1, 0, 0, 1, 0,0) ">
	<g>
		<g id="Layer1_3_MEMBER_22_FILL_2_">
			<path class="st21" d="M171.6,177.8c-0.1,0.1-0.2,0.3-0.2,0.4c0,0.2,0,0.3,0.1,0.4s0.3,0.2,0.4,0.2c0.2,0,0.3-0.1,0.4-0.2
				c0.7-0.7,1.6-1.1,2.7-1.5c0.2,0,0.3-0.1,0.3-0.3c0.1-0.1,0.1-0.3,0.1-0.5c0-0.1-0.1-0.3-0.3-0.3c0,0-0.1,0-0.1-0.1
				c-0.1,0-0.2,0-0.3,0c-0.2,0.1-0.4,0.1-0.5,0.2C173.2,176.5,172.3,177,171.6,177.8 M179.5,227.5c-0.1,0.1-0.2,0.2-0.2,0.4
				c0,0.2,0,0.3,0.1,0.4c0.9,1,1.8,1.7,2.9,2.2c0.2,0.1,0.3,0.1,0.5,0c0.1-0.1,0.2-0.2,0.3-0.3c0.1-0.1,0.1-0.3,0-0.4
				s-0.2-0.2-0.3-0.3c-0.9-0.4-1.8-1-2.5-1.8c-0.1-0.1-0.2-0.2-0.4-0.2C179.8,227.4,179.6,227.4,179.5,227.5 M176.5,221.8
				c-0.1,0.2-0.1,0.3,0,0.5c0.4,1.2,0.8,2.3,1.2,3.2c0.1,0.2,0.2,0.3,0.3,0.3c0.2,0.1,0.3,0,0.4,0c0.2-0.1,0.3-0.2,0.3-0.3
				c0.1-0.1,0-0.3,0-0.4c-0.4-0.9-0.8-1.9-1.2-3c0-0.1-0.1-0.3-0.3-0.3c-0.1-0.1-0.3-0.1-0.4,0C176.7,221.6,176.6,221.8,176.5,221.8
				 M176.7,219.1c0.1-0.1,0.1-0.3,0.1-0.4c-0.2-1-0.4-2.1-0.7-3.3c0-0.1-0.1-0.3-0.2-0.4c-0.1-0.1-0.3-0.1-0.4-0.1
				c-0.1,0-0.3,0.1-0.4,0.2c-0.1,0.1-0.1,0.3-0.1,0.4c0.2,1.2,0.4,2.3,0.7,3.4c0,0.2,0.1,0.3,0.3,0.4c0.1,0.1,0.3,0.1,0.4,0.1
				C176.5,219.3,176.6,219.3,176.7,219.1 M175,208.8c0-0.1-0.1-0.3-0.2-0.3c-0.1-0.1-0.3-0.1-0.4-0.1c-0.1,0-0.3,0.1-0.3,0.2
				c-0.1,0.1-0.1,0.3-0.1,0.4c0.2,1.2,0.4,2.3,0.6,3.5c0,0.2,0.1,0.3,0.2,0.4c0.1,0.1,0.3,0.1,0.4,0.1c0.2,0,0.3-0.1,0.4-0.2
				c0.1-0.1,0.1-0.3,0.1-0.4C175.4,211.2,175.2,210,175,208.8 M173.7,201.9c0-0.2-0.1-0.3-0.2-0.4c-0.1-0.1-0.3-0.1-0.4-0.1
				c-0.2,0-0.3,0.1-0.4,0.3c-0.1,0.1-0.1,0.3-0.1,0.4c0.2,1.2,0.5,2.3,0.7,3.5c0,0.2,0.1,0.3,0.3,0.3c0.1,0.1,0.3,0.1,0.4,0.1
				c0.2,0,0.3-0.1,0.3-0.2c0.1-0.1,0.1-0.3,0.1-0.4C174.2,204.2,173.9,203,173.7,201.9 M171.2,194.8c-0.1,0.1-0.1,0.3-0.1,0.4
				c0.1,0.6,0.2,1.2,0.3,1.9l0,0c0.1,0.5,0.2,1,0.3,1.6c0,0.2,0.1,0.3,0.3,0.4c0.1,0.1,0.3,0.1,0.4,0.1c0.2,0,0.3-0.1,0.4-0.3
				c0.1-0.1,0.1-0.3,0.1-0.4c-0.1-0.5-0.2-1-0.3-1.6l0,0c-0.1-0.6-0.2-1.2-0.3-1.9c0-0.1-0.1-0.3-0.2-0.4c-0.1-0.1-0.3-0.1-0.4-0.1
				C171.5,194.6,171.4,194.8,171.2,194.8 M170,188.3c0.1,0.9,0.3,2,0.5,3.1c0,0.1,0,0.2,0.1,0.3c0,0.2,0.1,0.3,0.2,0.4
				c0.1,0.1,0.3,0.1,0.4,0.1c0.2,0,0.3-0.1,0.4-0.2c0.1-0.1,0.1-0.3,0.1-0.4s0-0.2-0.1-0.3c-0.2-1.2-0.4-2.2-0.5-3.1
				c0-0.2-0.1-0.3-0.2-0.4c-0.1-0.1-0.3-0.1-0.4-0.1c-0.2,0-0.3,0.1-0.4,0.2C170,188,169.9,188.2,170,188.3 M170.9,181.3
				c0-0.2,0-0.3-0.1-0.4s-0.2-0.2-0.3-0.3c-0.2,0-0.3,0-0.4,0.1c-0.1,0.1-0.2,0.2-0.3,0.3c-0.2,0.9-0.3,1.9-0.3,3c0,0.2,0,0.4,0,0.6
				s0.1,0.3,0.2,0.4c0.1,0.1,0.3,0.2,0.4,0.1c0.2,0,0.3-0.1,0.4-0.2c0.1-0.1,0.2-0.3,0.1-0.4c0-0.2,0-0.4,0-0.5
				C170.6,183.1,170.7,182.1,170.9,181.3z"/>
			<path class="st3" d="M193.3,180.8c-1.1-5.5-4.4-7.7-10-6.6l-8.3,1.7c0.1,0,0.1,0,0.1,0.1c0.1,0.1,0.2,0.2,0.3,0.3
				c0.1,0.2,0,0.3-0.1,0.5c-0.1,0.1-0.2,0.2-0.3,0.3c-1.1,0.3-2,0.8-2.7,1.5c-0.1,0.1-0.2,0.2-0.4,0.2s-0.3-0.1-0.4-0.2
				c-0.1-0.1-0.1-0.2-0.1-0.4c0-0.2,0.1-0.3,0.2-0.4c0.7-0.7,1.6-1.2,2.7-1.6l-1.4,0.3c-5.5,1.1-7.7,4.5-6.6,10l7.9,38.7
				c1.1,5.5,4.5,7.7,10,6.6l10.5-2.1c5.5-1.1,7.7-4.5,6.6-10L193.3,180.8 M170.9,180.9c0.1,0.1,0.1,0.3,0.1,0.4
				c-0.2,0.8-0.3,1.7-0.3,2.8c0,0.2,0,0.3,0,0.5s0,0.3-0.1,0.4s-0.2,0.2-0.4,0.2s-0.3,0-0.4-0.1c-0.1-0.1-0.2-0.2-0.2-0.4
				c0-0.2,0-0.4,0-0.6c0-1.1,0.1-2.2,0.3-3c0.1-0.2,0.1-0.3,0.3-0.3c0.1-0.1,0.3-0.1,0.4-0.1C170.7,180.8,170.8,180.8,170.9,180.9
				 M170.5,191.5c-0.2-1.2-0.4-2.2-0.5-3.1c0-0.2,0-0.3,0.1-0.4s0.2-0.2,0.4-0.2s0.3,0,0.4,0.1c0.1,0.1,0.2,0.2,0.2,0.4
				c0.1,0.9,0.3,2,0.5,3.1c0,0.1,0,0.2,0.1,0.3c0,0.2,0,0.3-0.1,0.4s-0.2,0.2-0.4,0.2c-0.1,0-0.3,0-0.4-0.1
				c-0.1-0.1-0.2-0.2-0.2-0.4C170.5,191.8,170.5,191.6,170.5,191.5 M171.2,195.3c0-0.1,0-0.3,0.1-0.4s0.2-0.2,0.4-0.2s0.3,0,0.4,0.1
				c0.1,0.1,0.2,0.2,0.2,0.4c0.1,0.6,0.2,1.2,0.3,1.9l0,0c0.1,0.5,0.2,1,0.3,1.6c0,0.2,0,0.3-0.1,0.4s-0.2,0.2-0.4,0.3
				c-0.1,0-0.3,0-0.4-0.1c-0.1-0.1-0.2-0.2-0.3-0.4c-0.1-0.5-0.2-1-0.3-1.6l0,0C171.4,196.5,171.3,195.9,171.2,195.3 M173.5,201.5
				c0.1,0.1,0.2,0.2,0.2,0.4c0.2,1.2,0.5,2.3,0.7,3.5c0,0.2,0,0.3-0.1,0.4s-0.2,0.2-0.3,0.2c-0.2,0-0.3,0-0.4-0.1
				c-0.1-0.1-0.2-0.2-0.3-0.3c-0.2-1.2-0.5-2.3-0.7-3.5c0-0.2,0-0.3,0.1-0.4s0.2-0.2,0.4-0.3C173.2,201.4,173.3,201.4,173.5,201.5
				 M174.8,208.5c0.1,0.1,0.2,0.2,0.2,0.3c0.2,1.2,0.4,2.3,0.6,3.5c0,0.2,0,0.3-0.1,0.4s-0.2,0.2-0.4,0.2c-0.1,0-0.3,0-0.4-0.1
				c-0.1-0.1-0.2-0.2-0.2-0.4c-0.2-1.2-0.4-2.3-0.6-3.5c0-0.1,0-0.3,0.1-0.4s0.2-0.2,0.3-0.2C174.5,208.3,174.7,208.4,174.8,208.5
				 M176.7,218.8c0,0.2,0,0.3-0.1,0.4s-0.2,0.2-0.4,0.3c-0.1,0-0.3,0-0.4-0.1c-0.1-0.1-0.2-0.2-0.3-0.4c-0.2-1-0.4-2.2-0.7-3.4
				c0-0.1,0-0.3,0.1-0.4s0.2-0.2,0.4-0.2s0.3,0,0.4,0.1c0.1,0.1,0.2,0.2,0.2,0.4C176.3,216.6,176.5,217.8,176.7,218.8 M176.5,222.2
				c0-0.2,0-0.3,0-0.5c0.1-0.1,0.2-0.2,0.3-0.3c0.2,0,0.3,0,0.4,0c0.1,0.1,0.2,0.2,0.3,0.3c0.4,1.2,0.7,2.2,1.2,3
				c0.1,0.2,0.1,0.3,0,0.4c-0.1,0.2-0.2,0.3-0.3,0.3c-0.1,0.1-0.3,0.1-0.4,0c-0.1-0.1-0.2-0.2-0.3-0.3
				C177.2,224.5,176.8,223.5,176.5,222.2 M179.3,227.9c0-0.1,0.1-0.3,0.2-0.4c0.1-0.1,0.3-0.2,0.4-0.1c0.2,0,0.3,0.1,0.4,0.2
				c0.7,0.9,1.6,1.5,2.5,1.8c0.2,0.1,0.3,0.2,0.3,0.3c0.1,0.1,0.1,0.3,0,0.4c0,0.2-0.1,0.3-0.3,0.3c-0.1,0.1-0.3,0.1-0.5,0
				c-1.1-0.4-2.1-1.1-2.9-2.2C179.3,228.2,179.3,228.1,179.3,227.9z"/>
		</g>
	</g>
</g>
<g transform="matrix( 1, 0, 0, 1, 0,0) ">
	<g>
		<g id="Layer1_3_MEMBER_23_FILL">
			<path class="st17" d="M214.3,197c-1.7-8.3-4.4-15.1-8.1-20.5c-3.7-5.4-7.4-7.7-11-6.9c-3.6,0.7-6.1,4.3-7.4,10.6
				c-1.3,6.4-1.2,13.7,0.5,22s4.4,15.1,8.1,20.5c3.7,5.4,7.4,7.7,11,6.9c3.6-0.7,6.1-4.3,7.4-10.6C216.1,212.6,216,205.3,214.3,197
				 M195.9,171c0.1-0.1,0.3-0.1,0.4,0c0.1,0.1,0.3,0.2,0.3,0.3c0.5,1.1,1,2.1,1.4,3.2c0.1,0.1,0.1,0.3,0,0.4c0,0.2-0.1,0.3-0.3,0.3
				c-0.1,0.1-0.3,0.1-0.5,0c-0.1,0-0.2-0.1-0.3-0.3c-0.4-1.1-0.9-2.1-1.4-3.2c-0.1-0.1-0.1-0.3,0-0.4
				C195.7,171.1,195.8,171,195.9,171 M205.9,201.1c0,0.2,0,0.3-0.1,0.4s-0.2,0.2-0.4,0.2c-0.1,0-0.3,0-0.4-0.1
				c-0.1-0.1-0.2-0.2-0.2-0.4c-0.2-1.1-0.4-2.3-0.6-3.4c0-0.2,0-0.3,0.1-0.4s0.2-0.2,0.4-0.3c0.2,0,0.3,0,0.4,0.1
				c0.1,0.1,0.2,0.2,0.2,0.4C205.5,198.8,205.7,199.9,205.9,201.1 M205.8,204c0.2,0,0.3,0,0.4,0.1c0.1,0.1,0.2,0.2,0.2,0.4
				c0.2,1.2,0.3,2.3,0.5,3.5c0,0.2,0,0.3-0.1,0.4s-0.2,0.2-0.4,0.2s-0.3,0-0.4-0.1c-0.1-0.1-0.2-0.2-0.2-0.4
				c-0.1-1.2-0.3-2.3-0.5-3.5c0-0.2,0-0.3,0.1-0.4C205.5,204.1,205.7,204,205.8,204 M207.1,211.1c0.1,0.1,0.2,0.2,0.2,0.4
				c0.1,1.2,0.2,2.3,0.3,3.5c0,0.2,0,0.3-0.1,0.4s-0.2,0.2-0.4,0.2c-0.1,0-0.3,0-0.4-0.1c-0.1-0.1-0.2-0.2-0.2-0.4
				c-0.1-1.1-0.2-2.3-0.3-3.4c0-0.2,0-0.3,0.1-0.4s0.2-0.2,0.4-0.2C206.9,210.9,207,211,207.1,211.1 M206.7,218.4
				c0-0.1,0-0.3,0.1-0.4s0.3-0.2,0.4-0.2c0.2,0,0.3,0,0.4,0.1c0.1,0.1,0.2,0.3,0.2,0.4c0,1.2,0.1,2.3,0.1,3.5c0,0.2-0.1,0.3-0.2,0.4
				c-0.1,0.1-0.2,0.2-0.4,0.2s-0.3-0.1-0.4-0.2c-0.1-0.1-0.2-0.2-0.2-0.4C206.8,220.8,206.7,219.6,206.7,218.4 M206.8,225.4
				c0-0.2,0.1-0.3,0.2-0.4c0.1-0.1,0.2-0.2,0.4-0.2s0.3,0.1,0.4,0.2c0.1,0.1,0.2,0.2,0.2,0.4c0,1,0,1.9,0,2.9c0,0.2-0.1,0.3-0.2,0.4
				c-0.1,0.1-0.3,0.2-0.4,0.2c-0.1,0-0.3-0.1-0.4-0.2c-0.1-0.1-0.1-0.3-0.1-0.4C206.8,227.3,206.8,226.3,206.8,225.4 M199.1,177.3
				c0.1,0.1,0.2,0.2,0.3,0.3c0.4,1.1,0.8,2.2,1.2,3.3c0.1,0.2,0,0.3,0,0.4c-0.1,0.2-0.2,0.3-0.3,0.3c-0.1,0.1-0.3,0-0.4,0
				c-0.1-0.1-0.2-0.2-0.3-0.3c-0.4-1.1-0.8-2.1-1.2-3.2c-0.1-0.1-0.1-0.3,0-0.4s0.2-0.2,0.3-0.3
				C198.8,177.3,198.9,177.3,199.1,177.3 M201.5,183.8c0.1,0.1,0.2,0.2,0.3,0.3c0.4,1.1,0.7,2.2,1,3.3c0,0.2,0,0.3-0.1,0.4
				s-0.2,0.2-0.3,0.3c-0.1,0-0.3,0-0.4-0.1c-0.1-0.1-0.2-0.2-0.3-0.3c-0.3-1.1-0.7-2.2-1-3.3c-0.1-0.1,0-0.3,0-0.4
				c0.1-0.1,0.2-0.2,0.3-0.3C201.2,183.8,201.3,183.8,201.5,183.8 M202.6,191.2c0-0.2,0-0.3,0.1-0.4s0.2-0.2,0.3-0.3
				c0.2,0,0.3,0,0.4,0.1c0.1,0.1,0.2,0.2,0.3,0.3c0.3,1.1,0.6,2.2,0.8,3.4c0,0.2,0,0.3-0.1,0.4s-0.2,0.2-0.4,0.3
				c-0.1,0-0.3,0-0.4-0.1c-0.1-0.1-0.2-0.2-0.3-0.4C203.2,193.4,202.9,192.3,202.6,191.2z"/>
			<path class="st3" d="M202.7,190.8c-0.1,0.1-0.1,0.3-0.1,0.4c0.3,1.1,0.6,2.2,0.8,3.3c0,0.2,0.1,0.3,0.3,0.4
				c0.1,0.1,0.3,0.1,0.4,0.1c0.2,0,0.3-0.1,0.4-0.3c0.1-0.1,0.1-0.3,0.1-0.4c-0.3-1.1-0.5-2.2-0.8-3.4c0-0.2-0.1-0.3-0.3-0.3
				c-0.1-0.1-0.3-0.1-0.4-0.1C202.9,190.5,202.7,190.6,202.7,190.8 M201.7,184.2c-0.1-0.1-0.1-0.2-0.3-0.3c-0.1-0.1-0.3-0.1-0.5,0
				c-0.1,0-0.2,0.1-0.3,0.3c-0.1,0.1-0.1,0.3,0,0.4c0.4,1.1,0.7,2.2,1,3.3c0,0.2,0.1,0.3,0.3,0.3c0.1,0.1,0.3,0.1,0.4,0.1
				c0.2,0,0.3-0.1,0.3-0.3c0.1-0.1,0.1-0.3,0.1-0.4C202.5,186.4,202.1,185.3,201.7,184.2 M199.4,177.6c0-0.1-0.1-0.2-0.3-0.3
				c-0.1-0.1-0.3-0.1-0.5,0c-0.1,0.1-0.2,0.2-0.3,0.3c-0.1,0.1-0.1,0.3,0,0.4c0.4,1.1,0.8,2.1,1.2,3.2c0.1,0.2,0.2,0.3,0.3,0.3
				c0.2,0.1,0.3,0.1,0.4,0c0.2-0.1,0.3-0.2,0.3-0.3c0.1-0.1,0.1-0.3,0-0.4C200.2,179.8,199.8,178.8,199.4,177.6 M207,225
				c-0.1,0.1-0.2,0.2-0.2,0.4c0,1,0,1.9,0,2.9c0,0.2,0,0.3,0.1,0.4s0.3,0.2,0.4,0.2c0.2,0,0.3-0.1,0.4-0.2c0.1-0.1,0.2-0.2,0.2-0.4
				c0-1,0-1.9,0-2.9c0-0.2-0.1-0.3-0.2-0.4c-0.1-0.1-0.2-0.2-0.4-0.2C207.2,224.8,207.1,224.9,207,225 M206.8,218
				c-0.1,0.1-0.1,0.3-0.1,0.4c0,1.2,0.1,2.3,0.1,3.5c0,0.2,0.1,0.3,0.2,0.4c0.1,0.1,0.3,0.2,0.4,0.2c0.2,0,0.3-0.1,0.4-0.2
				c0.1-0.1,0.2-0.3,0.2-0.4c0-1.2,0-2.3-0.1-3.5c0-0.1-0.1-0.3-0.2-0.4c-0.1-0.1-0.2-0.1-0.4-0.1C207.1,217.9,207,217.9,206.8,218
				 M207.4,211.5c0-0.2-0.1-0.3-0.2-0.4c-0.1-0.1-0.2-0.1-0.4-0.1s-0.3,0.1-0.4,0.2c-0.1,0.1-0.1,0.3-0.1,0.4
				c0.1,1.1,0.2,2.3,0.3,3.4c0,0.2,0.1,0.3,0.2,0.4c0.1,0.1,0.3,0.2,0.4,0.1c0.2,0,0.3-0.1,0.4-0.2c0.1-0.1,0.2-0.3,0.1-0.4
				C207.6,213.8,207.5,212.6,207.4,211.5 M206.3,204.1c-0.1-0.1-0.3-0.1-0.4-0.1c-0.2,0-0.3,0.1-0.4,0.2c-0.1,0.1-0.1,0.3-0.1,0.4
				c0.2,1.1,0.3,2.3,0.5,3.5c0,0.2,0.1,0.3,0.2,0.4c0.1,0.1,0.3,0.2,0.4,0.1c0.2,0,0.3-0.1,0.4-0.2c0.1-0.1,0.2-0.3,0.1-0.4
				c-0.1-1.2-0.3-2.3-0.5-3.5C206.5,204.3,206.4,204.2,206.3,204.1 M205.8,201.5c0.1-0.1,0.1-0.3,0.1-0.4c-0.2-1.1-0.4-2.3-0.6-3.4
				c0-0.2-0.1-0.3-0.2-0.4c-0.1-0.1-0.3-0.1-0.4-0.1c-0.2,0-0.3,0.1-0.4,0.3c-0.1,0.1-0.1,0.3-0.1,0.4c0.2,1.1,0.5,2.3,0.6,3.4
				c0,0.2,0.1,0.3,0.2,0.4c0.1,0.1,0.3,0.1,0.4,0.1C205.6,201.8,205.7,201.6,205.8,201.5 M196.3,170.9c-0.1,0-0.3,0-0.4,0
				c-0.1,0.1-0.3,0.2-0.3,0.3c0,0.1,0,0.3,0,0.4c0.5,1.1,0.9,2.1,1.4,3.2c0.1,0.1,0.2,0.2,0.3,0.3c0.2,0.1,0.3,0.1,0.5,0
				c0.1-0.1,0.2-0.2,0.3-0.3c0.1-0.1,0.1-0.3,0-0.4c-0.5-1.1-0.9-2.1-1.4-3.2C196.6,171.1,196.5,171,196.3,170.9z"/>
		</g>
	</g>
</g>
<g transform="matrix( 1, 0, 0, 1, 0,0) ">
	<g>
		<g id="Layer1_3_MEMBER_24_FILL_2_">
			<path class="st21" d="M185.1,174.5L185.1,174.5c-1.9,0.4-3.3,1.4-4.4,2.9c-1.1,1.6-1.4,3.3-1,5.2l8.4,41.2c0.4,1.9,1.4,3.3,3,4.4
				s3.3,1.4,5.2,1l0,0c1.9-0.4,3.3-1.4,4.3-2.9c1.1-1.6,1.4-3.3,1-5.2l-8.4-41.2c-0.4-1.9-1.4-3.3-2.9-4.4
				C188.6,174.5,186.9,174.1,185.1,174.5z"/>
		</g>
	</g>
</g>
<g transform="matrix( 1, 0, 0, 1, 0,0) ">
	<g>
		<g id="Layer1_4_FILL_3_">
			<path class="st9" d="M252.3,243.8c-0.9,0.7-1.2,1.4-1.1,2.2c0.2,0.8,0.8,1.5,2,2l32.7,14.8c1.2,0.5,2.4,0.7,3.8,0.6
				s2.6-0.5,3.5-1.2s1.2-1.4,1-2.2c-0.2-0.8-0.8-1.5-2-2l-32.7-14.8c-1.2-0.5-2.4-0.7-3.9-0.6C254.4,242.8,253.2,243.1,252.3,243.8z
				"/>
		</g>
	</g>
</g>
<g transform="matrix( 1, 0, 0, 1, 0,0) ">
	<g>
		<g id="Layer1_5_FILL_5_">
			<path class="st9" d="M315.3,336.5c-2.4,0-4.4,0.8-6.1,2.5s-2.5,3.7-2.5,6.1c0,2.4,0.8,4.4,2.5,6.1c1.7,1.7,3.7,2.5,6.1,2.5
				s4.4-0.8,6.1-2.5s2.5-3.7,2.5-6.1c0-2.4-0.8-4.4-2.5-6.1C319.7,337.3,317.7,336.5,315.3,336.5 M313.7,341.5
				c0.4-0.2,0.9-0.3,1.4-0.3c1.1,0,2,0.4,2.7,1.2c0.8,0.7,1.2,1.6,1.2,2.7s-0.4,2-1.2,2.7c-0.7,0.7-1.6,1.1-2.7,1.1
				c-0.8,0-1.5-0.2-2.2-0.7c0.1,0,0.1,0,0.1,0c0.9,0,1.7-0.3,2.4-1c0.7-0.7,1-1.5,1-2.4s-0.3-1.7-1-2.4
				C315,342,314.4,341.6,313.7,341.5z"/>
			<path class="st2" d="M315.1,341.2c-0.5,0-1,0.1-1.4,0.3c0.7,0.1,1.3,0.4,1.8,0.9c0.7,0.7,1,1.4,1,2.4c0,0.9-0.3,1.7-1,2.4
				s-1.5,1-2.4,1H313c0.7,0.5,1.4,0.7,2.2,0.7c1.1,0,2-0.4,2.7-1.1c0.8-0.8,1.2-1.7,1.2-2.7s-0.4-2-1.2-2.7
				C317.1,341.6,316.2,341.2,315.1,341.2z"/>
		</g>
	</g>
</g>
<g transform="matrix( 1, 0, 0, 1, 0,0) ">
	<g>
		<g id="Layer1_6_FILL_3_">
			<path class="st9" d="M380.3,336.5c-2.4,0-4.4,0.8-6.1,2.5s-2.5,3.7-2.5,6.1c0,2.4,0.8,4.4,2.5,6.1c1.7,1.7,3.7,2.5,6.1,2.5
				s4.4-0.8,6-2.5c1.7-1.7,2.6-3.7,2.6-6.1c0-2.4-0.9-4.4-2.6-6.1C384.6,337.3,382.6,336.5,380.3,336.5 M378.6,341.5
				c0.5-0.2,0.9-0.3,1.5-0.3c1.1,0,2,0.4,2.7,1.2c0.7,0.7,1.1,1.6,1.1,2.7s-0.4,2-1.1,2.7s-1.6,1.1-2.7,1.1c-0.8,0-1.6-0.2-2.2-0.7
				h0.1c0.9,0,1.7-0.3,2.4-1c0.7-0.7,1-1.5,1-2.4s-0.3-1.7-1-2.4C379.9,342,379.3,341.6,378.6,341.5z"/>
			<path class="st2" d="M380,341.2c-0.5,0-1,0.1-1.5,0.3c0.7,0.1,1.3,0.4,1.8,0.9c0.7,0.7,1,1.4,1,2.4c0,0.9-0.3,1.7-1,2.4
				s-1.4,1-2.4,1c-0.1,0-0.1,0-0.1,0c0.6,0.5,1.4,0.7,2.2,0.7c1.1,0,2-0.4,2.7-1.1c0.7-0.8,1.1-1.7,1.1-2.7s-0.4-2-1.1-2.7
				C382,341.6,381.1,341.2,380,341.2z"/>
		</g>
	</g>
</g>
<g transform="matrix( 1, 0, 0, 1, 0,0) ">
	<g>
		<g id="Layer1_7_FILL_3_">
			<path class="st21" d="M380.9,232.8c-0.1,0.2-0.1,0.3,0,0.4c0.1,0.2,0.2,0.3,0.3,0.3c0.9,0.4,1.6,1.1,2.3,2.1
				c0.1,0.1,0.2,0.2,0.4,0.2c0.2,0,0.3,0,0.4-0.1s0.2-0.2,0.2-0.4c0-0.1,0-0.1,0-0.2s0-0.2-0.1-0.2c-0.1-0.2-0.2-0.3-0.3-0.5
				c-0.7-0.9-1.5-1.6-2.4-2c-0.1-0.1-0.3-0.1-0.4,0C381.1,232.5,381,232.6,380.9,232.8 M353.5,244.3c-0.2,0-0.3,0-0.5,0
				c-1,0.5-2,1-3,1.6c-0.1,0.1-0.2,0.2-0.3,0.3c-0.1,0.1,0,0.3,0,0.4c0.1,0.1,0.2,0.2,0.3,0.3c0.1,0.1,0.3,0,0.4,0
				c1-0.5,2-1.1,3-1.6c0.1-0.1,0.2-0.2,0.3-0.3c0-0.2,0-0.3-0.1-0.5C353.8,244.4,353.7,244.3,353.5,244.3 M359.7,241.9
				c0.1-0.1,0.2-0.2,0.3-0.3c0.1-0.2,0-0.3-0.1-0.4s-0.2-0.2-0.3-0.3c-0.2,0-0.3,0-0.4,0.1c-1,0.6-2,1.2-3,1.7
				c-0.1,0.1-0.2,0.2-0.3,0.3c0,0.2,0,0.3,0,0.4c0.1,0.1,0.2,0.2,0.3,0.3c0.2,0,0.3,0,0.4-0.1C357.7,243.1,358.7,242.5,359.7,241.9
				 M362.3,240.2c0.2,0,0.3,0,0.4-0.1c0.4-0.2,0.7-0.4,1.1-0.7c0.6-0.3,1.3-0.7,1.8-1c0.1-0.1,0.2-0.2,0.3-0.3c0-0.1,0-0.3-0.1-0.4
				s-0.2-0.2-0.3-0.3c-0.1,0-0.3,0-0.4,0c-0.6,0.3-1.2,0.7-1.8,1c0,0,0,0-0.1,0c-0.4,0.2-0.7,0.5-1.1,0.7c-0.1,0.1-0.2,0.2-0.3,0.3
				c0,0.2,0,0.3,0.1,0.4C362,240.1,362.1,240.2,362.3,240.2 M371.5,234.2c-0.1-0.1-0.3,0-0.4,0c-0.8,0.4-1.8,0.9-2.8,1.5l0,0
				c-0.1,0-0.2,0.1-0.2,0.1c-0.1,0.1-0.2,0.2-0.3,0.3c-0.1,0.2,0,0.3,0,0.5c0.1,0.1,0.2,0.2,0.3,0.3c0.2,0.1,0.3,0,0.5,0
				c0.1,0,0.2-0.1,0.2-0.1l0,0c1.1-0.5,2-1,2.8-1.4c0.1-0.1,0.2-0.2,0.3-0.3c0.1-0.1,0-0.3,0-0.4
				C371.8,234.4,371.7,234.3,371.5,234.2 M374.9,233.8c0.2-0.1,0.4-0.1,0.5-0.2l0,0c1-0.3,1.9-0.5,2.7-0.6c0.2,0,0.3-0.1,0.4-0.2
				s0.2-0.3,0.1-0.4c0-0.2-0.1-0.3-0.2-0.4s-0.3-0.1-0.4-0.1c-0.9,0.1-1.9,0.3-3,0.7l0,0c-0.2,0.1-0.3,0.1-0.5,0.2
				c-0.1,0.1-0.2,0.2-0.3,0.3c-0.1,0.1-0.1,0.3,0,0.4c0.1,0.2,0.2,0.3,0.3,0.3C374.6,233.8,374.7,233.8,374.9,233.8 M344.1,250.2
				c0.2,0.1,0.3,0,0.4-0.1c0.9-0.5,1.9-1.1,3-1.7c0.1-0.1,0.2-0.2,0.3-0.3c0-0.2,0-0.3-0.1-0.5c-0.1-0.1-0.2-0.2-0.3-0.3
				c-0.2,0-0.3,0-0.5,0c-1.1,0.6-2.1,1.1-3,1.7c-0.1,0.1-0.2,0.2-0.3,0.4c0,0.2,0,0.3,0.1,0.4C343.9,250.1,344,250.1,344.1,250.2
				 M336.5,255.4c-0.1,0-0.3,0.1-0.3,0.3c-0.7,1.2-1.1,2.3-1.2,3.5c0,0.2,0,0.3,0.1,0.4s0.2,0.2,0.4,0.2c0.2,0,0.3,0,0.4-0.1
				s0.2-0.2,0.2-0.4c0.1-1,0.4-2,1-3c0.1-0.1,0.1-0.3,0.1-0.4s-0.1-0.3-0.3-0.3C336.8,255.4,336.7,255.4,336.5,255.4 M338.8,254.1
				c0.2,0,0.3-0.1,0.4-0.2c0.7-0.6,1.6-1.3,2.6-2c0.1-0.1,0.2-0.2,0.2-0.4c0-0.1,0-0.3-0.1-0.4s-0.2-0.2-0.4-0.2
				c-0.1,0-0.3,0-0.4,0.1c-1,0.7-2,1.4-2.7,2.1c-0.1,0.1-0.2,0.2-0.2,0.4c0,0.2,0,0.3,0.1,0.4C338.5,254,338.6,254.1,338.8,254.1z"
				/>
			<path class="st3" d="M334.4,261.3l5.3,9.3c2.8,4.9,6.7,6,11.6,3.1l34.3-19.6c4.9-2.8,5.9-6.6,3.1-11.5l-4.2-7.4
				c0,0.1,0,0.1,0,0.2c0,0.2-0.1,0.3-0.2,0.4s-0.3,0.1-0.4,0.1c-0.2,0-0.3-0.1-0.4-0.2c-0.6-1-1.4-1.7-2.3-2.1
				c-0.1-0.1-0.2-0.2-0.3-0.3c-0.1-0.1,0-0.3,0-0.4c0.1-0.1,0.2-0.2,0.3-0.3c0.2-0.1,0.3,0,0.4,0c0.9,0.4,1.7,1.1,2.4,2l-0.7-1.2
				c-2.8-4.9-6.6-5.9-11.5-3.2l-34.3,19.6C332.7,252.5,331.6,256.4,334.4,261.3 M339.2,253.9c-0.1,0.1-0.2,0.2-0.4,0.2
				c-0.2,0-0.3-0.1-0.4-0.2s-0.1-0.2-0.1-0.4c0-0.2,0.1-0.3,0.2-0.4c0.8-0.7,1.7-1.4,2.7-2.1c0.1-0.1,0.3-0.1,0.4-0.1
				c0.2,0,0.3,0.1,0.4,0.2s0.1,0.3,0.1,0.4c0,0.2-0.1,0.3-0.2,0.4C340.8,252.6,339.9,253.3,339.2,253.9 M336.2,255.8
				c0.1-0.1,0.2-0.2,0.3-0.3c0.2,0,0.3,0,0.4,0.1s0.2,0.2,0.3,0.3c0,0.2,0,0.3-0.1,0.4c-0.6,1-1,2-1,3c0,0.2-0.1,0.3-0.2,0.4
				s-0.2,0.2-0.4,0.1c-0.2,0-0.3-0.1-0.4-0.2s-0.2-0.2-0.1-0.4C335,258,335.4,256.9,336.2,255.8 M344.6,250.1
				c-0.1,0.1-0.3,0.1-0.4,0.1c-0.2,0-0.3-0.1-0.3-0.3c-0.1-0.1-0.1-0.3-0.1-0.4c0.1-0.2,0.1-0.3,0.3-0.4c0.9-0.5,1.9-1.1,3-1.7
				c0.2-0.1,0.3-0.1,0.5,0c0.1,0,0.3,0.1,0.3,0.3c0.1,0.2,0.1,0.3,0.1,0.5c0,0.1-0.1,0.3-0.3,0.3C346.5,249,345.5,249.6,344.6,250.1
				 M375.4,233.6c-0.1,0.1-0.3,0.1-0.5,0.2c-0.1,0.1-0.3,0.1-0.4,0s-0.2-0.2-0.3-0.3c-0.1-0.1-0.1-0.3,0-0.4s0.2-0.2,0.3-0.3
				c0.2-0.1,0.4-0.1,0.5-0.2l0,0c1.1-0.4,2.1-0.6,3-0.7c0.2,0,0.3,0,0.4,0.1s0.2,0.3,0.2,0.4c0,0.2,0,0.3-0.1,0.4s-0.2,0.2-0.4,0.2
				C377.2,233.1,376.3,233.3,375.4,233.6L375.4,233.6 M371.1,234.2c0.1-0.1,0.3-0.1,0.4,0c0.2,0,0.3,0.1,0.3,0.3
				c0.1,0.1,0.1,0.3,0,0.4c0,0.2-0.1,0.3-0.3,0.3c-0.8,0.4-1.8,0.9-2.8,1.4l0,0c-0.1,0-0.2,0.1-0.2,0.1c-0.1,0.1-0.3,0.1-0.5,0
				c-0.1,0-0.2-0.1-0.3-0.3c-0.1-0.1-0.1-0.3,0-0.5c0.1-0.1,0.1-0.2,0.3-0.3c0.1,0,0.2-0.1,0.2-0.1l0,0
				C369.3,235.2,370.3,234.8,371.1,234.2 M362.7,240.2c-0.1,0.1-0.3,0.1-0.4,0.1s-0.3-0.1-0.3-0.3c-0.1-0.1-0.1-0.3-0.1-0.4
				s0.1-0.3,0.3-0.3c0.4-0.2,0.7-0.5,1.1-0.7c0,0,0,0,0.1,0c0.6-0.3,1.2-0.6,1.8-1c0.1-0.1,0.3-0.1,0.4,0c0.2,0,0.3,0.1,0.3,0.3
				c0.1,0.1,0.1,0.3,0.1,0.4c0,0.2-0.1,0.3-0.3,0.3c-0.6,0.3-1.2,0.7-1.8,1C363.4,239.8,363,239.9,362.7,240.2 M360,241.6
				c0,0.2-0.1,0.3-0.3,0.3c-1,0.6-2,1.2-3.1,1.7c-0.1,0.1-0.3,0.1-0.4,0.1s-0.3-0.1-0.3-0.3c-0.1-0.1-0.1-0.3,0-0.4
				c0-0.1,0.1-0.3,0.3-0.3c1-0.6,2.1-1.1,3-1.7c0.1-0.1,0.3-0.1,0.4-0.1c0.2,0.1,0.3,0.1,0.3,0.3C360,241.3,360,241.4,360,241.6
				 M353.1,244.3c0.2-0.1,0.3-0.1,0.5,0c0.1,0,0.3,0.1,0.3,0.3c0.1,0.2,0.1,0.3,0.1,0.5c0,0.1-0.1,0.3-0.3,0.3c-1,0.5-2,1.1-3,1.6
				c-0.1,0.1-0.3,0.1-0.4,0c-0.2,0-0.3-0.1-0.3-0.3c-0.1-0.1-0.1-0.3,0-0.4c0.1-0.2,0.1-0.3,0.3-0.3
				C351.1,245.3,352.1,244.8,353.1,244.3z"/>
		</g>
	</g>
</g>
<g transform="matrix( 1, 0, 0, 1, 0,0) ">
	<g>
		<g id="Layer1_8_FILL_1_">
			<path class="st17" d="M351.4,271c1.7,3.2,5.8,4.6,12.3,4.1s13.5-2.8,21-6.7c7.5-3.9,13.3-8.4,17.4-13.5s5.3-9.2,3.6-12.5
				c-1.7-3.2-5.8-4.6-12.3-4.1s-13.5,2.7-21,6.7s-13.2,8.5-17.3,13.5C350.9,263.6,349.7,267.8,351.4,271 M372.3,255.2
				c0.1-0.1,0.3-0.1,0.4-0.1c0.2,0.1,0.3,0.1,0.3,0.3c0.1,0.1,0.1,0.3,0.1,0.4c0,0.2-0.1,0.3-0.3,0.3c-1,0.6-2,1.2-3,1.8
				c-0.1,0.1-0.3,0.1-0.4,0.1s-0.3-0.1-0.3-0.3c-0.1-0.1-0.1-0.3-0.1-0.4s0.1-0.3,0.3-0.3C370.3,256.4,371.3,255.8,372.3,255.2
				 M378.4,252c0.1-0.1,0.3-0.1,0.4,0c0.2,0,0.3,0.1,0.3,0.3c0.1,0.1,0.1,0.3,0,0.4c-0.1,0.2-0.1,0.3-0.3,0.3c-1,0.5-2.1,1-3.1,1.6
				c-0.1,0.1-0.3,0.1-0.4,0.1s-0.3-0.1-0.3-0.3c-0.1-0.1-0.1-0.3,0-0.4c0-0.1,0.1-0.3,0.3-0.3C376.4,253,377.4,252.5,378.4,252
				 M388.4,248.8c-0.1,0.1-0.3,0.1-0.4,0s-0.2-0.2-0.3-0.3c-0.1-0.1-0.1-0.3,0-0.4s0.2-0.2,0.3-0.3c1.1-0.4,2.2-0.8,3.3-1.2
				c0.2-0.1,0.3,0,0.4,0c0.2,0.1,0.3,0.2,0.3,0.3c0.1,0.2,0,0.3,0,0.4c-0.1,0.2-0.2,0.3-0.3,0.3C390.6,248,389.5,248.4,388.4,248.8
				 M385.2,249.1c0.2,0.1,0.3,0.2,0.3,0.3c0.1,0.1,0.1,0.3,0,0.4c0,0.2-0.1,0.3-0.3,0.3c-1.1,0.5-2.1,0.9-3.2,1.4
				c-0.1,0.1-0.3,0.1-0.4,0c-0.1,0-0.3-0.1-0.3-0.3c-0.1-0.1-0.1-0.3,0-0.4s0.2-0.3,0.3-0.3c1.1-0.5,2.1-1,3.2-1.4
				C385,249,385.1,249,385.2,249.1 M366.4,258.8c0.1-0.1,0.3-0.1,0.4-0.1c0.2,0,0.3,0.1,0.4,0.3c0.1,0.1,0.1,0.3,0.1,0.4
				c0,0.2-0.1,0.3-0.2,0.4c-1,0.6-1.9,1.2-2.8,1.9c-0.1,0.1-0.3,0.1-0.4,0.1s-0.3-0.1-0.4-0.2s-0.1-0.3-0.1-0.4s0.1-0.3,0.2-0.4
				C364.5,260.1,365.4,259.5,366.4,258.8 M361.5,262.9c0.1,0.1,0.1,0.3,0.1,0.4c0,0.2-0.1,0.3-0.2,0.4c-0.9,0.7-1.8,1.4-2.8,2.1
				c-0.1,0.1-0.3,0.1-0.4,0.1s-0.3-0.1-0.4-0.2s-0.1-0.3-0.1-0.4s0.1-0.3,0.2-0.4c0.9-0.7,1.9-1.4,2.8-2.1c0.1-0.1,0.3-0.1,0.4-0.1
				C361.3,262.8,361.4,262.8,361.5,262.9 M355.6,266.8c0.2,0,0.3,0.1,0.4,0.2s0.2,0.3,0.1,0.4c0,0.2-0.1,0.3-0.2,0.4
				c-0.9,0.7-1.7,1.5-2.6,2.2c-0.1,0.1-0.3,0.2-0.4,0.1c-0.1,0-0.3-0.1-0.4-0.2s-0.2-0.3-0.1-0.4c0-0.1,0.1-0.3,0.2-0.4
				c0.9-0.8,1.7-1.5,2.6-2.2C355.3,266.9,355.5,266.8,355.6,266.8 M398.3,244.3c0.1,0.1,0.2,0.2,0.3,0.3c0,0.2,0,0.3-0.1,0.4
				s-0.2,0.2-0.3,0.3c-1.1,0.3-2.2,0.7-3.3,1.1c-0.1,0.1-0.3,0-0.4,0c-0.1-0.1-0.2-0.2-0.3-0.3c-0.1-0.1,0-0.3,0-0.4
				c0.1-0.1,0.2-0.2,0.3-0.3c1.1-0.4,2.2-0.7,3.3-1.1C398,244.2,398.2,244.2,398.3,244.3 M400.7,243.5c0.1-0.1,0.2-0.2,0.3-0.3
				c1-0.3,2.1-0.6,3.1-0.9c0.2,0,0.3,0,0.4,0.1s0.2,0.2,0.3,0.3c0,0.2,0,0.3-0.1,0.4s-0.2,0.2-0.3,0.3c-1,0.3-2.1,0.6-3.1,0.8
				c-0.1,0-0.3,0-0.4-0.1s-0.2-0.2-0.3-0.3C400.6,243.8,400.6,243.8,400.7,243.5z"/>
			<path class="st3" d="M401.1,243.2c-0.1,0-0.3,0.1-0.3,0.3c-0.1,0.1-0.1,0.3,0,0.4c0,0.2,0.1,0.3,0.3,0.3c0.1,0.1,0.3,0.1,0.4,0.1
				c1-0.3,2-0.6,3.1-0.8c0.2,0,0.3-0.1,0.3-0.3c0.1-0.1,0.1-0.3,0.1-0.4c0-0.2-0.1-0.3-0.3-0.3c-0.1-0.1-0.3-0.1-0.4-0.1
				C403.1,242.8,402.1,243,401.1,243.2 M398.6,244.6c0-0.1-0.1-0.3-0.3-0.3c-0.1-0.1-0.3-0.1-0.4,0c-1.1,0.3-2.2,0.7-3.3,1.1
				c-0.1,0.1-0.2,0.2-0.3,0.3c-0.1,0.2-0.1,0.3,0,0.4c0.1,0.2,0.2,0.3,0.3,0.3c0.2,0.1,0.3,0.1,0.4,0c1.1-0.4,2.2-0.7,3.3-1.1
				c0.1,0,0.3-0.1,0.3-0.3C398.6,244.9,398.6,244.8,398.6,244.6 M356,267c-0.1-0.1-0.2-0.2-0.4-0.2c-0.2,0-0.3,0-0.4,0.1
				c-0.9,0.7-1.7,1.5-2.6,2.2c-0.1,0.1-0.2,0.2-0.2,0.4c0,0.2,0,0.3,0.1,0.4s0.2,0.2,0.4,0.2c0.2,0,0.3,0,0.4-0.1
				c0.9-0.7,1.7-1.5,2.6-2.2c0.1-0.1,0.2-0.2,0.2-0.4C356.1,267.3,356.1,267.2,356,267 M361.6,263.3c0-0.1,0-0.3-0.1-0.4
				s-0.2-0.2-0.4-0.2c-0.1,0-0.3,0-0.4,0.1c-0.9,0.7-1.9,1.4-2.8,2.1c-0.1,0.1-0.2,0.2-0.2,0.4c0,0.2,0,0.3,0.1,0.4s0.2,0.2,0.4,0.2
				c0.2,0,0.3,0,0.4-0.1c0.9-0.7,1.8-1.4,2.8-2.1C361.5,263.6,361.5,263.5,361.6,263.3 M366.8,258.8c-0.1,0-0.3,0-0.4,0.1
				c-1,0.6-1.9,1.3-2.9,1.9c-0.1,0.1-0.2,0.2-0.2,0.4c0,0.2,0,0.3,0.1,0.4s0.2,0.2,0.4,0.2c0.2,0,0.3,0,0.4-0.1
				c0.9-0.6,1.9-1.3,2.8-1.9c0.1-0.1,0.2-0.2,0.2-0.4c0-0.1,0-0.3-0.1-0.4C367.1,258.9,367,258.8,366.8,258.8 M385.6,249.4
				c-0.1-0.1-0.2-0.2-0.3-0.3c-0.1-0.1-0.3-0.1-0.4,0c-1.1,0.5-2.2,1-3.2,1.4c-0.1,0.1-0.2,0.2-0.3,0.3c0,0.1,0,0.3,0,0.4
				c0.1,0.1,0.2,0.2,0.3,0.3c0.1,0.1,0.3,0.1,0.4,0c1.1-0.5,2.1-0.9,3.2-1.4c0.1-0.1,0.2-0.2,0.3-0.3
				C385.6,249.8,385.6,249.5,385.6,249.4 M388,248.8c0.1,0.1,0.3,0.1,0.4,0c1.1-0.4,2.2-0.8,3.3-1.2c0.1-0.1,0.3-0.2,0.3-0.3
				c0.1-0.1,0.1-0.3,0-0.4s-0.2-0.3-0.3-0.3c-0.1-0.1-0.3-0.1-0.4,0c-1.1,0.4-2.2,0.8-3.3,1.2c-0.1,0.1-0.2,0.2-0.3,0.3
				c-0.1,0.1-0.1,0.3,0,0.4C387.7,248.6,387.9,248.8,388,248.8 M378.9,252c-0.1-0.1-0.3,0-0.4,0c-1,0.5-2.1,1-3.1,1.6
				c-0.1,0.1-0.2,0.2-0.3,0.3c0,0.2,0,0.3,0,0.4c0.1,0.1,0.2,0.2,0.3,0.3c0.2,0,0.3,0,0.4-0.1c1-0.5,2-1,3.1-1.6
				c0.1-0.1,0.2-0.2,0.3-0.3c0.1-0.1,0-0.3,0-0.4C379.2,252.1,379,252,378.9,252 M372.8,255.2c-0.2,0-0.3,0-0.4,0.1
				c-1,0.6-2,1.2-3,1.8c-0.1,0.1-0.2,0.2-0.3,0.3c0,0.2,0,0.3,0.1,0.4s0.2,0.2,0.3,0.3c0.2,0,0.3,0,0.4-0.1c1-0.6,2-1.2,3-1.8
				c0.1-0.1,0.2-0.2,0.3-0.3c0.1-0.2,0-0.3-0.1-0.4C373,255.3,372.9,255.2,372.8,255.2z"/>
		</g>
	</g>
</g>
<g transform="matrix( 1, 0, 0, 1, 0,0) ">
	<g>
		<g id="Layer1_9_FILL_1_">
			<path class="st31" d="M286.4,254.2c-5.6,0-8.5,2.8-8.5,8.5V331c0,5.6,2.8,8.5,8.5,8.5h117.1c5.6,0,8.5-2.8,8.5-8.5v-68.2
				c0-5.6-2.8-8.5-8.5-8.5H286.4z"/>
		</g>
	</g>
</g>
<g transform="matrix( 1, 0, 0, 1, 0,0) ">
	<g>
		<g id="Layer1_10_FILL">
			<path class="st9" d="M310.4,339.6c-2.1-2.1-4.7-3.2-7.7-3.2s-5.6,1.1-7.7,3.2c-2.1,2.1-3.2,4.7-3.2,7.7s1.1,5.6,3.2,7.7
				c2.1,2.1,4.7,3.2,7.7,3.2s5.6-1.1,7.7-3.2c2.1-2.1,3.2-4.7,3.2-7.7C313.6,344.5,312.6,341.8,310.4,339.6 M305.9,344
				c1,1,1.4,2.1,1.4,3.5s-0.5,2.5-1.4,3.5c-1,1-2.1,1.4-3.5,1.4c-1,0-2-0.3-2.8-0.9c0.1,0,0.1,0,0.2,0c1.2,0,2.2-0.4,3-1.3
				c0.8-0.8,1.3-1.9,1.3-3c0-1.2-0.4-2.2-1.3-3c-0.7-0.7-1.4-1.1-2.3-1.2c0.6-0.2,1.2-0.3,1.8-0.3C303.8,342.5,304.9,343,305.9,344z
				"/>
			<path class="st2" d="M307.3,347.5c0-1.3-0.5-2.5-1.4-3.5c-1-1-2.1-1.4-3.5-1.4c-0.7,0-1.3,0.1-1.8,0.3c0.9,0.1,1.6,0.5,2.3,1.2
				c0.8,0.8,1.3,1.9,1.3,3c0,1.2-0.4,2.2-1.3,3c-0.8,0.8-1.9,1.3-3,1.3c-0.1,0-0.1,0-0.2,0c0.8,0.6,1.7,0.9,2.8,0.9
				c1.3,0,2.5-0.5,3.5-1.4C306.8,350,307.3,348.8,307.3,347.5z"/>
		</g>
	</g>
</g>
<g transform="matrix( 1, 0, 0, 1, 0,0) ">
	<g>
		<g id="Layer1_11_FILL_1_">
			<path class="st9" d="M385.2,336.5c-3,0-5.6,1.1-7.7,3.2c-2.1,2.1-3.2,4.7-3.2,7.7s1.1,5.6,3.2,7.7c2.1,2.1,4.7,3.2,7.7,3.2
				s5.6-1.1,7.7-3.2c2.1-2.1,3.2-4.7,3.2-7.7s-1.1-5.6-3.2-7.7C390.8,337.5,388.2,336.5,385.2,336.5 M388.4,344c1,1,1.4,2.1,1.4,3.5
				s-0.5,2.5-1.4,3.5c-1,1-2.1,1.4-3.5,1.4c-1,0-2-0.3-2.8-0.9c0.1,0,0.1,0,0.2,0c1.2,0,2.2-0.4,3-1.3c0.8-0.8,1.3-1.9,1.3-3
				c0-1.2-0.4-2.2-1.3-3c-0.7-0.7-1.4-1.1-2.3-1.2c0.6-0.2,1.2-0.3,1.8-0.3C386.3,342.5,387.4,343,388.4,344z"/>
			<path class="st2" d="M389.8,347.5c0-1.3-0.5-2.5-1.4-3.5c-1-1-2.1-1.4-3.5-1.4c-0.7,0-1.3,0.1-1.8,0.3c0.9,0.2,1.6,0.6,2.3,1.2
				c0.8,0.8,1.3,1.9,1.3,3c0,1.2-0.4,2.2-1.3,3c-0.8,0.8-1.9,1.3-3,1.3c-0.1,0-0.1,0-0.2,0c0.8,0.6,1.7,0.9,2.8,0.9
				c1.3,0,2.5-0.5,3.5-1.4C389.3,350,389.8,348.8,389.8,347.5z"/>
		</g>
	</g>
</g>
<g transform="matrix( 1, 0, 0, 1, 0,0) ">
	<g>
		<g id="Layer1_12_FILL_1_">
			<path class="st3" d="M289.5,257.2V283c0,5.6,2.2,8.5,6.5,8.5h19.8c4.4,0,6.5-2.8,6.5-8.5v-25.7c0-5.6-2.2-8.5-6.5-8.5H296
				C291.7,248.8,289.5,251.5,289.5,257.2z"/>
		</g>
	</g>
</g>
<g transform="matrix( 1, 0, 0, 1, 0,0) ">
	<g>
		<g id="Layer1_13_FILL_2_">
			<path class="st7" d="M326,251.6c0-1.9-1-2.9-2.9-2.9h-17.3c-1.9,0-2.9,1-2.9,2.9v42.3c0,1.9,1,2.9,2.9,2.9h17.3
				c1.9,0,2.9-1,2.9-2.9V251.6z"/>
		</g>
	</g>
</g>
<g transform="matrix( 1, 0, 0, 1, 0,0) ">
	<g>
		<g id="Layer1_14_FILL_2_">
			<path class="st4" d="M332.9,250.2c0-1.9-1-2.9-2.9-2.9h-12c-1.9,0-2.9,1-2.9,2.9v48c0,1.9,1,2.9,2.9,2.9h12c1.9,0,2.9-1,2.9-2.9
				V250.2z"/>
		</g>
	</g>
</g>
<g transform="matrix( 1, 0, 0, 1, 0,0) ">
	<g>
		<g id="Layer1_15_FILL_1_">
			<path class="st6" d="M333.8,250.4c-1.9,0-2.9,1-2.9,2.9V295c0,1.9,1,2.9,2.9,2.9h5.8c1.9,0,2.9-1,2.9-2.9v-41.7
				c0-1.9-1-2.9-2.9-2.9H333.8z"/>
		</g>
	</g>
</g>
</svg>
