<?xml version="1.0" encoding="utf-8"?>
<!-- Generator: Adobe Illustrator 19.2.1, SVG Export Plug-In . SVG Version: 6.00 Build 0)  -->
<!DOCTYPE svg PUBLIC "-//W3C//DTD SVG 1.1//EN" "http://www.w3.org/Graphics/SVG/1.1/DTD/svg11.dtd">
<svg version="1.1" id="Layer_1" xmlns="http://www.w3.org/2000/svg" xmlns:xlink="http://www.w3.org/1999/xlink" x="0px" y="0px"
	 viewBox="0 0 595.3 421" style="enable-background:new 0 0 595.3 421;" xml:space="preserve">
<style type="text/css">
	.st0{filter:url(#Adobe_OpacityMaskFilter);}
	.st1{fill:#FFFFFF;}
	.st2{mask:url(#Mask_Mask_1_5_);}
	.st3{fill:#C0E4EE;}
	.st4{fill:#010101;fill-opacity:0.102;}
	.st5{fill:#FFDA83;}
	.st6{fill:#F7B04F;}
	.st7{fill:#595A5C;}
	.st8{fill:#4BA57B;}
	.st9{fill:none;stroke:#C3996C;stroke-width:3;stroke-linecap:round;stroke-linejoin:round;}
	.st10{fill:#383660;}
	.st11{fill:#F7AD92;}
	.st12{fill:#E7E7E7;}
	.st13{fill:#D3D8B7;}
	.st14{fill:#BDC59E;}
	.st15{fill:#9C6A44;}
	.st16{fill:#C3996C;}
	.st17{fill:#FBD8BB;}
	.st18{fill:#DC453A;}
</style>
<g transform="matrix( 1, 0, 0, 1, 647.75,157.3) ">
	<defs>
		<filter id="Adobe_OpacityMaskFilter" filterUnits="userSpaceOnUse" x="-538.4" y="-164" width="375.3" height="371.5">
			<feColorMatrix  type="matrix" values="1 0 0 0 0  0 1 0 0 0  0 0 1 0 0  0 0 0 1 0"/>
		</filter>
	</defs>
	<mask maskUnits="userSpaceOnUse" x="-538.4" y="-164" width="375.3" height="371.5" id="Mask_Mask_1_5_">
		<g transform="matrix( 1, 0, 0, 1, 0,0) " class="st0">
			<g>
				<g id="Mask_Symbol_3_0_1_MASK_0_FILL_1_">
					<path class="st1" d="M-166.5,29.1c0-49.3-17.4-91.3-52.3-126.1s-76.9-52.3-126.1-52.3S-436.2-131.9-471-97
						s-52.3,76.9-52.3,126.1s17.4,91.3,52.3,126.1s76.9,52.3,126.1,52.3s91.3-17.4,126.1-52.3S-166.5,78.4-166.5,29.1z"/>
				</g>
			</g>
		</g>
	</mask>
	<g class="st2">
		<g transform="matrix( 1, 0, 0, 1, 0,0) ">
			<g>
				<g id="Symbol_3_0_Layer1_0_FILL">
					<path class="st3" d="M-166.5,29.1c0-49.3-17.4-91.3-52.3-126.1s-76.9-52.3-126.1-52.3S-436.2-131.9-471-97
						s-52.3,76.9-52.3,126.1s17.4,91.3,52.3,126.1s76.9,52.3,126.1,52.3s91.3-17.4,126.1-52.3S-166.5,78.4-166.5,29.1z"/>
				</g>
			</g>
		</g>
		<g transform="matrix( 1, 0, 0, 1, 0,0) ">
			<g>
				<g id="Symbol_3_0_Layer1_1_FILL">
					<path class="st4" d="M-524.2-44.6c-2.8-0.7-4.5,0.4-5.2,3.2l-8.8,37.7c-0.6,2.8,0.5,4.6,3.3,5.3l84.5,19.5
						c2.8,0.7,4.6-0.4,5.2-3.2l0.3-1.2l3.4,0.8l-0.4,1.7c-0.4,1.7-0.2,3,0.7,3.9c0.4,1,1,1.8,1.9,2.6l40.4,32.1
						c1.3,1,2.7,1.4,4.3,1.3c1.6-0.1,2.8-0.8,3.8-2l2.1-2.5c0.9-1.2,1.3-2.6,1-4.2c-0.2-1.6-1-2.9-2.2-3.9l-19.2-15.2l17.6,4.1
						c0.5,0.1,0.9,0.2,1.3,0.2l44.9,10.4c1.5,0.4,2.8,0.2,4-0.4s1.9-1.5,2.2-2.6l0.4-1.5c0.3-1.2-0.1-2.3-0.9-3.3
						c-0.8-1.1-1.9-1.8-3.4-2.1l-41.8-9.8l0.6-2.7l48.3,11.3c2,0.4,3.7,0.4,5.3-0.1c1.6-0.5,2.5-1.3,2.8-2.5l0.3-1.5
						c0.3-1.2-0.2-2.3-1.3-3.4c-1.2-1.2-2.8-2-4.7-2.4l-48.4-11.2l0.6-2.8l46.5,10.8c1.8,0.4,3.5,0.4,4.9-0.2
						c1.5-0.5,2.3-1.4,2.6-2.5l0.3-1.5c0.3-1.2-0.1-2.4-1.2-3.5s-2.6-1.9-4.4-2.3L-379,1l0.6-2.7l38,8.8c1.1,0.3,2.2,0.1,3.3-0.5
						c1-0.6,1.7-1.5,1.9-2.6l0.3-1.5c0.3-1.2,0.1-2.3-0.5-3.3s-1.5-1.6-2.7-1.8l-89.5-20.8c-2.8-0.7-4.6,0.4-5.2,3.2l-0.5,2.3
						l-3.4-0.8l0.3-1.2c0.6-2.8-0.4-4.5-3.3-5.2L-524.2-44.6z"/>
				</g>
			</g>
		</g>
		<g transform="matrix( 1, 0, 0, 1, 0,0) ">
			<g>
				<g id="Symbol_3_0_Layer1_2_FILL">
					<path class="st4" d="M-165.6-36.8c2.6-1.3,3.2-3.3,1.9-5.9l-17.5-34.5c-1.3-2.6-3.2-3.2-5.7-1.9L-264.3-40
						c-2.6,1.3-3.2,3.2-1.9,5.8l0.5,1l-3.2,1.6l-1-2.1c-1.3-2.6-3.2-3.2-5.8-1.8l-81.9,41.6c-1.1,0.5-1.8,1.3-2.2,2.4
						c-0.4,1.1-0.3,2.3,0.3,3.3l0.7,1.4c0.6,1,1.4,1.7,2.5,2.1c1.1,0.4,2.2,0.3,3.3-0.3l34.8-17.6l1.3,2.5l-42.5,21.6
						c-1.7,0.8-2.9,1.9-3.8,3.3c-0.8,1.4-0.9,2.6-0.3,3.7l0.7,1.4c0.5,1,1.6,1.6,3.1,1.8s3.1-0.2,4.8-1l42.6-21.6l1.3,2.5L-355.4,34
						c-1.8,0.9-3.1,2-4,3.4c-0.8,1.4-1,2.6-0.5,3.7l0.7,1.3c0.6,1.1,1.7,1.7,3.3,1.8c1.7,0.1,3.4-0.3,5.2-1.2l44.3-22.4l1.2,2.5
						l-38.4,19.5c-1.3,0.6-2.3,1.6-2.8,2.8c-0.6,1.2-0.6,2.4,0,3.4l0.7,1.3c0.5,1.1,1.5,1.8,2.8,2.1c1.4,0.3,2.7,0.1,4-0.6
						l41.1-20.8c0.4-0.1,0.8-0.3,1.2-0.5l16.2-8.2l-15,19.3c-1,1.3-1.4,2.7-1.3,4.3s0.8,2.8,2,3.8l2.7,2c1.2,1,2.6,1.4,4.1,1.1
						c1.6-0.3,2.9-1,3.9-2.3l31.6-40.8c0.7-0.9,1.1-1.9,1.2-3c0.6-1.1,0.5-2.4-0.2-3.9l-0.8-1.6l3.1-1.6l0.5,1.1
						c1.3,2.6,3.3,3.2,5.9,1.9L-165.6-36.8z"/>
				</g>
			</g>
		</g>
		<g transform="matrix( 1, 0, 0, 1, 0,0) ">
			<g>
				<g id="Symbol_3_0_Layer1_3_FILL">
					<path class="st5" d="M-303.6,156.8c-1.1-0.6-2.3-0.7-3.6-0.3l-63.9,19.2c-1.2,0.4-2.1,1.1-2.8,2.3c-0.6,1.1-0.7,2.3-0.3,3.5
						l0.4,1.3c0.4,1.2,1.1,2.1,2.2,2.8c1.1,0.6,2.3,0.7,3.5,0.3l63.9-19.2c1.3-0.4,2.2-1.1,2.8-2.3c0.6-1,0.7-2.2,0.3-3.4l-0.5-1.6
						C-301.8,158.2-302.5,157.3-303.6,156.8z"/>
					<path class="st6" d="M-394,113.4c-2.9,0.9-4,2.8-3.1,5.7l20.4,67.8c0.9,2.9,2.8,4,5.7,3.1l67.8-20.4c3-0.9,4-2.8,3.1-5.7
						l-0.9-3c0.3,1.2,0.2,2.3-0.3,3.4c-0.6,1.1-1.5,1.9-2.8,2.3l-63.9,19.2c-1.2,0.4-2.4,0.3-3.5-0.3c-1.1-0.6-1.8-1.5-2.2-2.8
						l-0.4-1.3c-0.4-1.2-0.3-2.4,0.3-3.5c0.6-1.1,1.5-1.9,2.8-2.3l63.9-19.2c1.3-0.4,2.4-0.3,3.6,0.3c1.1,0.6,1.8,1.5,2.2,2.6
						l-19-63.2c-0.9-3-2.8-4-5.8-3.1L-394,113.4 M-378.9,120.2c0.3-0.5,0.8-0.9,1.4-1.1l36-10c0.6-0.2,1.2-0.1,1.7,0.2
						c0.6,0.3,0.9,0.8,1.1,1.4s0.1,1.2-0.2,1.7c-0.3,0.6-0.8,0.9-1.4,1.1l-36,10c-0.6,0.2-1.2,0.1-1.8-0.2c-0.5-0.3-0.9-0.8-1.1-1.4
						C-379.3,121.3-379.3,120.8-378.9,120.2 M-350,123c0.6-0.2,1.2-0.1,1.8,0.2c0.6,0.3,0.9,0.8,1.1,1.4s0.1,1.2-0.2,1.8
						c-0.3,0.5-0.8,0.9-1.4,1.1l-26,6.9c-0.6,0.2-1.2,0.1-1.7-0.2c-0.6-0.3-0.9-0.8-1.1-1.4s-0.1-1.2,0.2-1.7
						c0.3-0.5,0.8-0.9,1.4-1.1L-350,123z"/>
					<path class="st7" d="M-348.2,123.2c-0.6-0.3-1.1-0.4-1.8-0.2l-26,6.9c-0.6,0.2-1.1,0.5-1.4,1.1c-0.3,0.5-0.4,1.1-0.2,1.7
						c0.2,0.6,0.5,1.1,1.1,1.4s1.1,0.4,1.7,0.2l26-6.9c0.6-0.2,1.1-0.5,1.4-1.1c0.3-0.5,0.4-1.1,0.2-1.8
						C-347.3,124-347.7,123.5-348.2,123.2 M-377.6,119.1c-0.6,0.2-1.1,0.5-1.4,1.1s-0.4,1.2-0.2,1.8c0.2,0.6,0.5,1.1,1.1,1.4
						s1.2,0.4,1.8,0.2l36-10c0.6-0.2,1.1-0.5,1.4-1.1c0.3-0.5,0.4-1.1,0.2-1.7c-0.2-0.6-0.5-1.1-1.1-1.4c-0.5-0.3-1.1-0.4-1.7-0.2
						L-377.6,119.1z"/>
				</g>
			</g>
		</g>
		<g transform="matrix( 1, 0, 0, 1, 0,0) ">
			<g>
				<g id="Symbol_3_0_Layer1_4_FILL">
					<path class="st8" d="M-291.3-74.2c-1.4,2.5-0.9,4.5,1.6,5.9l39.7,22.6c2.5,1.4,4.5,0.9,5.9-1.6l15.8-27.7
						c1.4-2.5,0.9-4.5-1.6-5.9l-39.7-22.6c-2.6-1.4-4.5-0.9-5.9,1.6L-291.3-74.2 M-245.6-55.5l-19.3-11L-245.6-55.5 M-243-60.2
						l-13.9-7.9L-243-60.2 M-235.7-74.4l-15.3-8.8L-235.7-74.4 M-238.4-69.8L-257-80.4L-238.4-69.8z"/>
				</g>
			</g>
			<g>
				<path id="Symbol_3_0_Layer1_4_1_STROKES" class="st9" d="M-245.6-55.5l-19.3-11 M-243-60.2l-13.9-7.9 M-235.7-74.4l-15.3-8.8
					 M-238.4-69.8L-257-80.4"/>
			</g>
		</g>
		<g transform="matrix( 1, 0, 0, 1, 0,0) ">
			<g>
				<g id="Symbol_3_0_Layer1_4_MEMBER_0_FILL">
					<path class="st10" d="M-266.1-84.4l-0.1-0.1l0,0l-3.1-1.8l0,0c-1.8-1-3.2-0.5-4.2,1.2l-6.7,11.7l0,0c-0.9,1.8-0.5,3.2,1.2,4.2
						l4.2,2.4l0,0c0.2,0.1,0.5,0.3,0.7,0.3l-2.1,3.7l0,0c-0.3,0.5-0.6,0.6-1.1,0.4l0,0l-6.5-3.7l0,0c-0.2-0.1-0.3-0.2-0.5-0.4
						s-0.4-0.4-0.8-0.4c-0.3,0-0.6,0-0.8,0.2c-0.2,0.2-0.4,0.5-0.4,0.8s0,0.6,0.2,0.8c0.3,0.3,0.6,0.6,1.1,0.9l0,0l6.5,3.8l0,0
						c1.8,1,3.2,0.6,4.2-1.3l0,0l3.6-6.2l0,0l6.7-11.8c0.2-0.3,0.2-0.6,0.1-0.9c0-0.1-0.1-0.2-0.1-0.2c0.1-0.4,0.1-0.8,0-1.3v-0.1
						c-0.2-0.6-0.5-1.1-1-1.5c-0.1-0.1-0.2-0.2-0.3-0.2c-0.1,0-0.1-0.1-0.2-0.2L-266.1-84.4 M-266.6-82.1L-266.6-82.1l0.1,0.1
						c0.1,0.1,0.2,0.2,0.2,0.4s0,0.4-0.1,0.6c-0.2,0.3-0.2,0.6-0.1,0.8l0,0l-3.8,6.7c-0.2,0.1-0.5,0.3-0.6,0.5s-0.3,0.4-0.5,0.4
						c-0.2,0.1-0.4,0-0.6-0.1l0,0l-0.6-0.3c-0.1-0.1-0.2-0.2-0.3-0.4l0,0c-0.1-0.2-0.1-0.4,0-0.7l0,0l4.6-8.1l0,0
						c0.1-0.1,0.3-0.2,0.5-0.3c0.1,0,0.1,0,0.1,0c0.1,0,0.2,0,0.3,0c0.1,0,0.1,0.1,0.2,0.1L-266.6-82.1L-266.6-82.1 M-270.3-83.3
						L-270.3-83.3l-4.6,8.1l0,0c-0.4,0.7-0.5,1.6-0.3,2.5l0,0c0.2,0.8,0.7,1.4,1.4,1.8l0.1,0.1l0.6,0.3l0,0c0.4,0.2,0.7,0.3,1.1,0.3
						l-0.6,1.1l0,0l0,0c-0.3,0.4-0.6,0.5-1,0.3l0,0l-4.2-2.4c-0.4-0.3-0.5-0.6-0.3-1.1v0.1l6.7-11.7c0.3-0.5,0.6-0.6,1.1-0.3l0,0
						l0.7,0.4C-270-83.7-270.2-83.5-270.3-83.3z"/>
				</g>
			</g>
		</g>
		<g transform="matrix( 1, 0, 0, 1, 0,0) ">
			<g>
				<g id="Symbol_3_0_Layer1_5_FILL">
					<path class="st1" d="M-221-0.7c-1.9-2.1-4-2.2-6.1-0.3L-298,62.9c-2.1,1.9-2.2,4-0.3,6.1l45.4,50.4c1.9,2.1,4,2.2,6.1,0.3
						l70.9-63.9c2.1-1.9,2.2-4,0.3-6.1L-221-0.7 M-231.8,35c2.8,2.8,4.2,6.1,4.2,10s-1.4,7.2-4.2,10l0,0c-1.9,1.9-4.1,3.2-6.5,3.8
						c-0.1,3.2-1.3,6-3.6,8.3c-0.4,0.4-0.8,0.8-1.3,1.1l7.9,8.3c1.4-1.4,3.1-2,5-2c2,0,3.7,0.7,5.1,2.1c1.4,1.4,2.1,3.1,2.1,5.1
						s-0.7,3.7-2.1,5.1c-1.4,1.4-3.1,2.1-5.1,2.1c-1.9,0-3.6-0.7-5-2l-3.4,1.6c0.8,1.4,1.1,2.9,1.1,4.6c0,2.6-0.9,4.9-2.8,6.7l0,0
						c-1.9,1.9-4.1,2.8-6.7,2.8c-2.6,0-4.9-0.9-6.8-2.8c-1.9-1.9-2.8-4.1-2.8-6.7s0.9-4.9,2.8-6.8l0,0c1.9-1.8,4.1-2.8,6.8-2.8
						c2.6,0,4.9,0.9,6.7,2.8c0.1,0.1,0.2,0.2,0.3,0.3l3.4-1.5c-0.6-1-0.8-2.2-0.8-3.4c0-1.2,0.3-2.4,0.8-3.4l-8.5-8.9
						c-1.6,0.8-3.4,1.2-5.4,1.2c-2.3,0-4.3-0.5-6.1-1.6c-0.3-0.2-0.5-0.4-0.5-0.7c-0.1-0.2-0.1-0.4,0-0.6l-0.3,0.7
						c-0.6-0.4-1.2-0.9-1.7-1.5c-2.2-2.2-3.4-4.7-3.6-7.7l-17,3.6c-0.3,0.1-0.6,0-0.9-0.2s-0.4-0.4-0.5-0.7c0-0.3,0-0.6,0.2-0.9
						s0.4-0.4,0.7-0.5l17.5-3.8c0.3-2.8,1.5-5.2,3.5-7.2c1-1.1,2.2-1.9,3.4-2.5c-0.1-0.7-0.2-1.5-0.2-2.3c0-3.9,1.4-7.3,4.1-10l0,0
						c2.8-2.7,6.1-4.1,10-4.1C-237.9,30.9-234.5,32.3-231.8,35 M-269.7,82.2c0-1.7,0.6-3.1,1.8-4.3c1.2-1.2,2.6-1.8,4.3-1.8
						c1,0,1.9,0.2,2.7,0.6c0.5,0.2,0.9,0.5,1.3,0.8l0.1,0.1c0.1,0.1,0.2,0.2,0.3,0.3c0.1,0.1,0.2,0.2,0.3,0.3c1,1.1,1.5,2.5,1.5,4.1
						c0,1.7-0.6,3.1-1.8,4.3c-1.2,1.2-2.6,1.8-4.3,1.8c-1.7,0-3.1-0.6-4.3-1.8C-269.1,85.3-269.7,83.9-269.7,82.2 M-229.1,18.2
						c-0.2-0.2-0.3-0.5-0.3-0.8s0.1-0.6,0.4-0.8c0.2-0.2,0.5-0.3,0.8-0.3s0.6,0.1,0.8,0.4l21.4,23.8c0.2,0.2,0.3,0.5,0.3,0.8
						s-0.1,0.6-0.4,0.8c-0.2,0.2-0.5,0.3-0.8,0.3s-0.6-0.1-0.8-0.4L-229.1,18.2 M-233.1,19.6c0.3,0,0.6,0.1,0.8,0.4l28.1,31.2
						c0.2,0.2,0.3,0.5,0.3,0.8s-0.1,0.6-0.4,0.8c-0.2,0.2-0.5,0.3-0.8,0.3s-0.6-0.1-0.8-0.4L-234,21.5c-0.2-0.2-0.3-0.5-0.3-0.8
						s0.1-0.6,0.4-0.8C-233.6,19.7-233.4,19.6-233.1,19.6 M-221,64.4c0-0.3,0.1-0.6,0.3-0.8c0.2-0.2,0.5-0.3,0.8-0.3
						s0.6,0.1,0.8,0.3l7.2,6.9c0.2,0.2,0.4,0.5,0.4,0.8s-0.1,0.6-0.3,0.8c-0.2,0.2-0.5,0.4-0.8,0.4s-0.6-0.1-0.8-0.3l-7.2-6.9
						C-220.9,65-221,64.8-221,64.4 M-222.1,70.6c-0.2-0.2-0.3-0.5-0.3-0.8s0.1-0.6,0.3-0.8c0.2-0.2,0.5-0.3,0.8-0.3s0.6,0.1,0.8,0.3
						l6.7,6.3c0.2,0.2,0.4,0.5,0.4,0.8s-0.1,0.6-0.3,0.8c-0.2,0.2-0.5,0.4-0.8,0.4s-0.6-0.1-0.8-0.3L-222.1,70.6 M-266.3,79.5
						c-0.7,0.7-1.1,1.7-1.1,2.7c0,1.1,0.4,2,1.1,2.7s1.7,1.1,2.7,1.1c1.1,0,2-0.4,2.7-1.1s1.1-1.7,1.1-2.7c0-1.1-0.4-2-1.1-2.7
						c-0.1-0.1-0.1-0.1-0.2-0.2c-0.1,0-0.1-0.1-0.2-0.2c-0.7-0.5-1.5-0.8-2.4-0.8C-264.7,78.3-265.6,78.8-266.3,79.5 M-234.3,78.9
						L-234.3,78.9c0,0.1-0.1,0.1-0.1,0.1l-0.1,0.1c-0.6,0.8-0.8,1.7-0.8,2.8c0,1.2,0.4,2.2,1.1,3.1l0,0c0,0.1,0.1,0.1,0.1,0.2
						c0.1,0.1,0.1,0.2,0.2,0.2c1,1,2.2,1.5,3.5,1.5c1.4,0,2.5-0.5,3.5-1.5s1.5-2.2,1.5-3.5c0-1.4-0.5-2.5-1.5-3.5s-2.2-1.5-3.5-1.5
						c-1.4,0-2.5,0.5-3.5,1.5C-234,78.5-234.1,78.8-234.3,78.9 M-241.2,89c-0.1,0-0.1-0.1-0.2-0.2c-0.2-0.2-0.4-0.4-0.6-0.7
						c-1.4-1.4-3.1-2.1-5.1-2.1s-3.7,0.7-5.2,2.1l0,0c-1.4,1.4-2.1,3.2-2.1,5.2s0.7,3.7,2.1,5.1c1.4,1.4,3.2,2.1,5.2,2.1
						s3.7-0.7,5.1-2.1l0,0c1.4-1.4,2.1-3.1,2.1-5.1C-239.9,91.8-240.3,90.2-241.2,89 M-256.4,67.1c0.1,0,0.2,0,0.3,0
						c-0.2,0-0.3,0-0.5,0.1s-0.3,0.2-0.5,0.4C-256.8,67.3-256.6,67.1-256.4,67.1 M-253.9,49.1c-0.1,0-0.2,0.1-0.3,0.1
						c-1.2,0.5-2.4,1.2-3.4,2.3c-1.8,1.8-2.8,4-2.9,6.5v0.1c0,0.1,0,0.1,0,0.2s0,0.2,0,0.3c0,2.7,1,5.1,2.9,7
						c0.6,0.6,1.2,1.1,1.9,1.6c0.1,0,0.1,0,0.2,0.1c1.5,0.8,3.1,1.3,4.9,1.3c1.9,0,3.5-0.4,5-1.3c0.1,0,0.1-0.1,0.2-0.1
						c0.7-0.4,1.3-0.9,1.9-1.5c1.9-1.9,2.9-4.3,2.9-7c0-0.2,0-0.3,0-0.5l0,0c-0.1-2.5-1.1-4.6-2.9-6.5c-1.9-1.9-4.3-2.9-7-2.9
						C-251.8,48.5-252.9,48.7-253.9,49.1 M-229.9,45.1c0-3.3-1.2-6.1-3.5-8.4c-2.3-2.3-5.1-3.4-8.4-3.4c-3.3,0-6.1,1.2-8.4,3.4l0,0
						c-2.3,2.3-3.4,5.1-3.4,8.4c0,0.5,0,1,0.1,1.5c0.9-0.2,1.9-0.3,3-0.3c3.4,0,6.3,1.2,8.7,3.6c1.9,1.9,3.1,4.1,3.4,6.7
						c1.9-0.5,3.6-1.5,5.1-3l0,0C-231.1,51.1-229.9,48.4-229.9,45.1z"/>
					<path class="st10" d="M-222.4,69.8c0,0.3,0.1,0.6,0.3,0.8l6.7,6.3c0.2,0.2,0.5,0.3,0.8,0.3s0.6-0.1,0.8-0.4
						c0.2-0.2,0.3-0.5,0.3-0.8s-0.1-0.6-0.4-0.8l-6.7-6.3c-0.2-0.2-0.5-0.3-0.8-0.3s-0.6,0.1-0.8,0.3
						C-222.3,69.2-222.4,69.5-222.4,69.8 M-220.7,63.6c-0.2,0.2-0.3,0.5-0.3,0.8s0.1,0.6,0.3,0.8l7.2,6.9c0.2,0.2,0.5,0.3,0.8,0.3
						s0.6-0.1,0.8-0.4c0.2-0.2,0.3-0.5,0.3-0.8s-0.1-0.6-0.4-0.8l-7.2-6.9c-0.2-0.2-0.5-0.3-0.8-0.3
						C-220.2,63.3-220.5,63.4-220.7,63.6 M-232.3,20c-0.2-0.2-0.5-0.4-0.8-0.4s-0.6,0.1-0.8,0.3s-0.4,0.5-0.4,0.8s0.1,0.6,0.3,0.8
						l28.1,31.2c0.2,0.2,0.5,0.4,0.8,0.4s0.6-0.1,0.8-0.3c0.2-0.2,0.4-0.5,0.4-0.8s-0.1-0.6-0.3-0.8L-232.3,20 M-229.4,17.4
						c0,0.3,0.1,0.6,0.3,0.8l21.4,23.8c0.2,0.2,0.5,0.4,0.8,0.4s0.6-0.1,0.8-0.3s0.4-0.5,0.4-0.8s-0.1-0.6-0.3-0.8l-21.4-23.8
						c-0.2-0.2-0.5-0.4-0.8-0.4s-0.6,0.1-0.8,0.3C-229.2,16.8-229.3,17.1-229.4,17.4 M-267.9,77.9c-1.2,1.2-1.8,2.6-1.8,4.3
						c0,1.7,0.6,3.1,1.8,4.3c1.2,1.2,2.6,1.8,4.3,1.8c1.7,0,3.1-0.6,4.3-1.8c1.2-1.2,1.8-2.6,1.8-4.3c0-1.6-0.5-2.9-1.5-4.1
						c-0.1-0.1-0.2-0.2-0.3-0.3c-0.1-0.1-0.2-0.2-0.3-0.3c0,0,0,0-0.1-0.1c-0.4-0.3-0.8-0.6-1.3-0.8c-0.8-0.4-1.7-0.6-2.7-0.6
						C-265.3,76.1-266.7,76.8-267.9,77.9 M-267.4,82.2c0-1.1,0.4-2,1.1-2.7s1.7-1.1,2.7-1.1c0.9,0,1.7,0.3,2.4,0.8
						c0.1,0.1,0.1,0.1,0.2,0.2c0,0,0.1,0.1,0.2,0.2c0.7,0.7,1.1,1.7,1.1,2.7c0,1.1-0.4,2-1.1,2.7s-1.7,1.1-2.7,1.1
						c-1.1,0-2-0.4-2.7-1.1C-267.1,84.1-267.4,83.2-267.4,82.2 M-227.6,45.1c0-3.9-1.4-7.3-4.2-10c-2.7-2.8-6.1-4.1-10-4.1
						s-7.3,1.4-10,4.1l0,0c-2.7,2.8-4.1,6.1-4.1,10c0,0.8,0,1.6,0.2,2.3c-1.2,0.6-2.4,1.4-3.4,2.5c-2,2-3.2,4.4-3.5,7.2l-17.5,3.8
						c-0.3,0.1-0.6,0.2-0.7,0.5c-0.2,0.3-0.2,0.6-0.2,0.9c0.1,0.3,0.2,0.6,0.5,0.7c0.3,0.2,0.6,0.2,0.9,0.2l17-3.6
						c0.2,3,1.4,5.6,3.6,7.7c0.5,0.5,1.1,1,1.7,1.5l0.3-0.7c-0.1,0.2-0.1,0.4,0,0.6c0.1,0.3,0.3,0.6,0.5,0.7c1.8,1,3.8,1.6,6.1,1.6
						c2,0,3.8-0.4,5.4-1.2l8.5,8.9c-0.6,1-0.8,2.2-0.8,3.4c0,1.2,0.3,2.4,0.8,3.4l-3.4,1.5c-0.1-0.1-0.2-0.2-0.3-0.3
						c-1.9-1.9-4.1-2.8-6.7-2.8c-2.6,0-4.9,0.9-6.8,2.8l0,0c-1.8,1.9-2.8,4.1-2.8,6.8c0,2.6,0.9,4.9,2.8,6.7
						c1.9,1.9,4.1,2.8,6.8,2.8c2.6,0,4.9-0.9,6.7-2.8l0,0c1.9-1.9,2.8-4.1,2.8-6.7c0-1.7-0.4-3.2-1.1-4.6l3.4-1.6c1.4,1.3,3.1,2,5,2
						c2,0,3.7-0.7,5.1-2.1c1.4-1.4,2.1-3.1,2.1-5.1s-0.7-3.7-2.1-5.1c-1.4-1.4-3.1-2.1-5.1-2.1c-1.9,0-3.6,0.7-5,2l-7.9-8.3
						c0.5-0.3,0.9-0.7,1.3-1.1c2.3-2.3,3.5-5.1,3.6-8.3c2.5-0.6,4.6-1.8,6.5-3.8l0,0C-229,52.3-227.6,49-227.6,45.1 M-233.4,36.7
						c2.3,2.3,3.5,5.1,3.5,8.4c0,3.3-1.2,6.1-3.5,8.3l0,0c-1.5,1.5-3.1,2.5-5.1,3c-0.4-2.5-1.5-4.7-3.4-6.7
						c-2.4-2.4-5.3-3.6-8.7-3.6c-1,0-2,0.1-3,0.3c0-0.5-0.1-1-0.1-1.5c0-3.3,1.2-6.1,3.4-8.4l0,0c2.3-2.3,5.1-3.4,8.4-3.4
						C-238.5,33.2-235.7,34.4-233.4,36.7 M-254.3,49.2c0.1,0,0.2,0,0.3-0.1c1-0.4,2.2-0.6,3.4-0.6c2.7,0,5.1,1,7,2.9
						c1.8,1.8,2.8,4,2.9,6.5l0,0c0,0.2,0,0.4,0,0.5c0,2.7-1,5.1-2.9,7c-0.6,0.6-1.2,1.1-1.9,1.5c0,0-0.1,0-0.2,0.1
						c-1.5,0.9-3.2,1.3-5,1.3s-3.5-0.4-4.9-1.3c-0.1,0-0.1-0.1-0.2-0.1c-0.7-0.5-1.3-1-1.9-1.6c-1.9-1.9-2.9-4.3-2.9-7
						c0-0.1,0-0.2,0-0.3c0-0.1,0-0.1,0-0.2v-0.1c0.1-2.5,1.1-4.7,2.9-6.5C-256.6,50.4-255.5,49.7-254.3,49.2 M-256,67
						c-0.1,0-0.2,0-0.3,0c-0.2,0.1-0.5,0.2-0.6,0.4c0.1-0.2,0.3-0.3,0.5-0.4C-256.4,67-256.2,67-256,67 M-241.4,88.8
						c0,0.1,0.1,0.1,0.2,0.2c0.9,1.3,1.4,2.7,1.4,4.3c0,2-0.7,3.7-2.1,5.1l0,0c-1.4,1.4-3.1,2.1-5.1,2.1s-3.7-0.7-5.2-2.1
						c-1.4-1.4-2.1-3.1-2.1-5.1s0.7-3.7,2.1-5.2l0,0c1.4-1.4,3.2-2.1,5.2-2.1s3.7,0.7,5.1,2.1C-241.8,88.3-241.6,88.5-241.4,88.8
						 M-234.3,78.9L-234.3,78.9c0.2-0.2,0.3-0.4,0.5-0.6c1-1,2.2-1.5,3.5-1.5c1.4,0,2.5,0.5,3.5,1.5s1.5,2.2,1.5,3.5
						c0,1.4-0.5,2.5-1.5,3.5s-2.2,1.5-3.5,1.5c-1.4,0-2.5-0.5-3.5-1.5c-0.1-0.1-0.1-0.2-0.2-0.2c0,0-0.1-0.1-0.1-0.2l0,0
						c-0.7-0.9-1.1-1.9-1.1-3.1c0-1,0.3-1.9,0.8-2.8C-234.4,79.1-234.4,79-234.3,78.9C-234.3,79-234.3,79-234.3,78.9z"/>
				</g>
			</g>
		</g>
		<g transform="matrix( 1, 0, 0, 1, 0,0) ">
			<g>
				<g id="Symbol_3_0_Layer1_6_FILL">
					<path class="st4" d="M-360.8,2c-1.4,0.8-2.4,2.1-3.3,3.7l-21.6,42.5l-2.5-1.3l17.6-34.8c0.5-1,0.6-2.1,0.3-3.3
						c-0.4-1.1-1.1-1.9-2.1-2.5l-1.4-0.7c-1.1-0.5-2.2-0.6-3.3-0.3c-1.1,0.4-1.9,1.1-2.5,2.2l-41.4,82c-1.4,2.6-0.7,4.6,1.8,5.9
						l2.1,1l-1.6,3.2l-1-0.5c-2.6-1.3-4.5-0.7-5.8,1.9l-39.2,77.4c-1.4,2.6-0.7,4.5,1.9,5.8l34.5,17.5c2.6,1.3,4.6,0.7,5.9-1.9
						l39.2-77.4c1.3-2.6,0.7-4.5-1.9-5.8l-1.1-0.6l1.6-3.1l1.6,0.8c1.5,0.8,2.8,0.9,3.9,0.3c1-0.1,2-0.5,3-1.3l40.8-31.5
						c1.3-1,2-2.3,2.3-3.8s-0.1-2.9-1.1-4.2l-1.9-2.7c-1-1.2-2.2-1.9-3.8-2c-1.6-0.2-3,0.3-4.3,1.3l-19.3,14.9l8.2-16.1
						c0.2-0.4,0.4-0.8,0.5-1.2l20.8-41c0.7-1.4,0.9-2.7,0.6-4s-1-2.3-2.1-2.8l-1.3-0.7c-1.1-0.6-2.2-0.5-3.4,0
						c-1.2,0.5-2.2,1.5-2.8,2.8L-362.4,60l-2.5-1.2l22.5-44.2c0.9-1.8,1.3-3.5,1.2-5.2c-0.1-1.6-0.7-2.7-1.8-3.3l-1.3-0.7
						c-1.1-0.5-2.3-0.4-3.7,0.5c-1.4,0.9-2.6,2.2-3.4,4l-22.4,44.3l-2.5-1.3l21.6-42.6c0.8-1.7,1.2-3.3,1-4.8s-0.8-2.6-1.8-3.1
						l-1.4-0.7C-358.2,1.1-359.4,1.2-360.8,2z"/>
				</g>
			</g>
		</g>
		<g transform="matrix( 1, 0, 0, 1, 0,0) ">
			<g>
				<g id="Symbol_3_0_Layer1_7_MEMBER_0_FILL">
					<path class="st11" d="M-357.8-2.1c-1-0.6-2.2-0.5-3.6,0.3s-2.5,2-3.3,3.7l-21.9,42.5l-2.5-1.3l17.9-34.8c0.6-1,0.7-2.1,0.3-3.3
						c-0.4-1.1-1.1-2-2.2-2.5l-1.3-0.7c-1.1-0.5-2.2-0.6-3.3-0.3c-1.1,0.4-2,1.1-2.5,2.2l-42.1,81.7c-1.3,2.6-0.7,4.5,1.9,5.8l2,1.1
						l-4.7,9.2c-1.3,2.6-0.7,4.5,1.9,5.8l24.7,12.7c2.6,1.3,4.5,0.7,5.8-1.9l4.7-9.2l1.6,0.8c1.6,0.8,2.9,0.9,4,0.3
						c1-0.2,2-0.6,2.9-1.2l41-31.3c1.3-1,2.1-2.3,2.4-3.8c0.3-1.6-0.1-3-1-4.2l-2-2.7c-0.9-1.2-2.2-1.9-3.7-2.1
						c-1.6-0.2-3.1,0.3-4.3,1.3l-19.4,14.9l8.3-16.1c0.2-0.4,0.4-0.8,0.5-1.2l21.1-40.9c0.7-1.4,0.9-2.7,0.6-4s-0.9-2.3-2-2.8
						l-1.3-0.7c-1.1-0.6-2.2-0.6-3.4,0c-1.3,0.5-2.2,1.5-2.9,2.8l-19.7,38.2l-2.5-1.3l22.7-44.2c0.9-1.8,1.3-3.5,1.2-5.1
						c-0.1-1.6-0.7-2.7-1.8-3.3l-1.4-0.7c-1.1-0.5-2.3-0.4-3.7,0.5c-1.4,0.9-2.5,2.2-3.4,4l-22.7,44.1l-2.5-1.3l21.9-42.4
						c0.8-1.7,1.2-3.3,1-4.8s-0.8-2.6-1.8-3.1L-357.8-2.1z"/>
				</g>
			</g>
		</g>
		<g transform="matrix( 1, 0, 0, 1, 0,0) ">
			<g>
				<g id="Symbol_3_0_Layer1_7_MEMBER_1_FILL">
					<path class="st12" d="M-384.5,118.5c1.3-2.6,0.7-4.5-1.9-5.9l-34.5-17.7c-2.6-1.3-4.5-0.7-5.8,1.9l-39.7,77.2
						c-1.3,2.6-0.7,4.5,1.9,5.9l34.5,17.7c2.6,1.3,4.5,0.7,5.8-1.9L-384.5,118.5z"/>
				</g>
			</g>
		</g>
		<g transform="matrix( 1, 0, 0, 1, 0,0) ">
			<g>
				<g id="Symbol_3_0_Layer1_7_MEMBER_2_FILL">
					<path class="st7" d="M-400.3,119.1c-0.4,0.8-0.5,1.7-0.2,2.5c0.3,0.9,0.8,1.5,1.7,2c0.8,0.4,1.7,0.5,2.5,0.2
						c0.9-0.3,1.5-0.8,2-1.6c0.4-0.8,0.5-1.7,0.2-2.6s-0.8-1.5-1.6-1.9c-0.8-0.4-1.7-0.5-2.6-0.2
						C-399.3,117.8-399.9,118.3-400.3,119.1z"/>
				</g>
			</g>
		</g>
		<g transform="matrix( 1, 0, 0, 1, 0,0) ">
			<g>
				<g id="Symbol_3_0_Layer1_8_FILL">
					<path class="st4" d="M-298.1,33.3c-0.7,1.5-0.8,2.9-0.3,4.5l7,23.4l-12.1-13.4c-0.3-0.4-0.7-0.6-1-0.8l-30.9-34.2
						c-1-1.1-2.2-1.8-3.6-2c-1.3-0.2-2.4,0.2-3.3,1l-1.1,1c-0.9,0.8-1.3,1.9-1.2,3.2c0.1,1.4,0.6,2.6,1.6,3.7l28.8,31.9l-2,1.9
						l-33.2-36.9c-1.4-1.5-2.8-2.5-4.4-2.9s-2.8-0.3-3.7,0.5l-1.1,1c-0.9,0.8-1.2,2-0.9,3.6c0.3,1.7,1.2,3.2,2.5,4.7l33.3,36.8
						l-2.1,1.9l-32-35.5c-1.2-1.4-2.6-2.2-4.1-2.6c-1.5-0.4-2.7-0.2-3.5,0.6l-1.1,1c-0.9,0.8-1.3,2-1,3.6s1.1,3,2.3,4.3l32,35.4
						l-2.1,1.8L-361.5,42c-0.8-0.9-1.8-1.4-3-1.5s-2.2,0.3-3.1,1l-1.1,1.1c-0.9,0.8-1.4,1.8-1.5,2.9c0,1.2,0.4,2.2,1.2,3.1
						l61.6,68.1c1.9,2.2,4,2.3,6.1,0.3l1.7-1.6l2.4,2.6l-0.8,0.8c-2.2,1.9-2.3,4-0.3,6.1l58.3,64.3c1.9,2.1,3.9,2.2,6,0.3l28.8-26
						c2.1-2,2.2-4,0.3-6.2L-263.1,93c-1.9-2.2-4-2.3-6.1-0.3l-0.9,0.8l-2.4-2.6l1.3-1.1c1.3-1.1,1.9-2.3,1.7-3.6
						c0.3-1,0.3-2.1-0.1-3.2l-14.8-49.4c-0.5-1.6-1.4-2.7-2.8-3.5c-1.3-0.8-2.7-1-4.2-0.5l-3.2,0.8C-296.4,31-297.4,31.9-298.1,33.3
						z"/>
				</g>
			</g>
		</g>
		<g transform="matrix( 1, 0, 0, 1, 0,0) ">
			<g>
				<g id="Symbol_3_0_Layer1_9_MEMBER_0_FILL">
					<path class="st5" d="M-300.7,33.1c-0.7,1.4-0.9,2.9-0.4,4.4l6.4,23.6l-11.8-13.7c-0.3-0.4-0.6-0.7-1-1l-29.9-35
						c-1-1.1-2.1-1.9-3.4-2.1c-1.4-0.2-2.5,0.1-3.4,0.8l-1.1,1c-0.9,0.8-1.4,1.8-1.3,3.2c0,1.4,0.5,2.6,1.5,3.7l27.9,32.7l-2.1,1.8
						l-32.2-37.8c-1.3-1.5-2.7-2.5-4.3-3.1c-1.6-0.5-2.8-0.4-3.7,0.4l-1.1,1c-0.9,0.8-1.2,2-1,3.6c0.3,1.7,1.1,3.2,2.4,4.7
						l32.3,37.7l-2.1,1.8l-31-36.4c-1.2-1.4-2.6-2.3-4.1-2.8c-1.5-0.4-2.7-0.3-3.6,0.5l-1.1,1c-0.9,0.8-1.3,2-1.1,3.5
						c0.3,1.5,1,3,2.2,4.4l31,36.3l-2.1,1.8l-25.4-29.7c-0.8-0.9-1.7-1.4-2.9-1.5c-1.2-0.1-2.2,0.2-3.2,1l-1.1,1
						c-0.9,0.8-1.4,1.7-1.5,2.9s0.3,2.3,1.1,3.2l59.6,69.9c1.9,2.2,3.9,2.4,6.1,0.5l1.8-1.5l6.7,7.8c1.9,2.2,3.9,2.3,6.1,0.5
						l21.1-18c2.2-1.9,2.4-3.9,0.5-6.1l-6.7-7.8l1.3-1.1c1.3-1.1,1.9-2.3,1.8-3.6c0.3-1,0.2-2.1,0-3.3l-13.4-49.8
						c-0.5-1.5-1.4-2.7-2.7-3.6c-1.3-0.9-2.7-1.1-4.2-0.7L-297,30C-298.8,30.7-299.9,31.7-300.7,33.1z"/>
				</g>
			</g>
		</g>
		<g transform="matrix( 1, 0, 0, 1, 0,0) ">
			<g>
				<g id="Symbol_3_0_Layer1_9_MEMBER_1_FILL">
					<path class="st13" d="M-267.5,93.9c-1.9-2.2-3.9-2.3-6.1-0.5l-29.5,25.2c-2.2,1.9-2.3,3.9-0.4,6.1l56.4,66
						c1.8,2.2,3.9,2.3,6,0.4l29.4-25.2c2.2-1.9,2.4-3.9,0.5-6.1L-267.5,93.9z"/>
				</g>
			</g>
		</g>
		<g transform="matrix( 1, 0, 0, 1, 0,0) ">
			<g>
				<g id="Symbol_3_0_Layer1_9_MEMBER_2_FILL">
					<path class="st14" d="M-259.9,96.3c-2.1-2.6-4.5-2.8-7.3-0.6l-34.5,27.6c-2.8,2.2-3.1,4.6-1.1,7.2l12.5,15.6
						c2.1,2.6,4.5,2.8,7.3,0.6l34.5-27.6c2.8-2.2,3.1-4.6,1.1-7.2L-259.9,96.3z"/>
				</g>
			</g>
		</g>
		<g transform="matrix( 1, 0, 0, 1, 0,0) ">
			<g>
				<g id="Symbol_3_0_Layer1_9_MEMBER_3_FILL">
					<path class="st7" d="M-274,106.1c0,0.9,0.3,1.7,0.8,2.4c0.6,0.7,1.4,1.1,2.3,1.1c0.9,0.1,1.8-0.2,2.5-0.8
						c0.7-0.6,1.1-1.4,1.1-2.3c0.1-0.9-0.2-1.7-0.8-2.4c-0.6-0.7-1.3-1.1-2.3-1.2c-0.9-0.1-1.7,0.2-2.4,0.8
						C-273.5,104.5-273.9,105.3-274,106.1z"/>
				</g>
			</g>
		</g>
		<g transform="matrix( 1, 0, 0, 1, 0,0) ">
			<g>
				<g id="Symbol_3_0_Layer1_10_MEMBER_0_FILL">
					<path class="st13" d="M-388.1-119.1c-3.1-5-7.1-6-12.1-2.9l-62.2,38.4c-5,3.1-5.9,7.2-2.8,12.3l31.5,51.1
						c3.1,5,7.1,5.9,12.1,2.8l62.3-38.4c5-3.1,5.9-7.1,2.8-12.1L-388.1-119.1 M-406.1-110.4c0.2-0.3,0.4-0.4,0.7-0.5
						c0.3,0,0.6,0,0.9,0.2s0.4,0.4,0.5,0.7c0.1,0.3,0,0.6-0.2,0.9l-4.2,6.3l13.1-1.7c0.3,0,0.6,0,0.8,0.2c0.3,0.2,0.4,0.5,0.4,0.8
						c0.1,0.3,0,0.6-0.2,0.8c-0.2,0.3-0.5,0.4-0.8,0.4l-15.6,2c-0.3,0.1-0.6,0-0.8-0.2c-0.2-0.2-0.4-0.4-0.5-0.7
						c0-0.3,0-0.6,0.2-0.8L-406.1-110.4 M-390.7-92.4c0.3,0.1,0.5,0.2,0.7,0.5l17.5,28.4c0.2,0.3,0.2,0.6,0.2,0.9
						c-0.1,0.3-0.3,0.5-0.5,0.7c-0.3,0.2-0.5,0.2-0.8,0.2c-0.3-0.1-0.5-0.2-0.7-0.5l-17.5-28.4c-0.2-0.3-0.2-0.6-0.1-0.9
						s0.2-0.5,0.5-0.7C-391.3-92.4-391-92.5-390.7-92.4 M-391.8-76.2c-0.3-0.1-0.5-0.2-0.7-0.5l-5.4-8.7c-0.2-0.3-0.2-0.6-0.1-0.9
						s0.2-0.5,0.5-0.7s0.6-0.2,0.9-0.1s0.5,0.2,0.7,0.5l5.4,8.7c0.2,0.3,0.2,0.6,0.2,0.9c-0.1,0.3-0.2,0.5-0.5,0.7
						C-391.2-76.1-391.5-76.1-391.8-76.2 M-422.7-100.2c0.3,0,0.6,0,0.9,0.2s0.4,0.4,0.5,0.7c0.1,0.3,0,0.6-0.2,0.9l-4.6,7.2
						l11.7-0.9c0.3,0,0.6,0.1,0.8,0.3c0.3,0.2,0.4,0.5,0.4,0.8s-0.1,0.6-0.3,0.8c-0.2,0.3-0.5,0.4-0.8,0.4l-14.1,1.1
						c-0.3,0-0.6-0.1-0.8-0.3c-0.2-0.2-0.4-0.4-0.4-0.7c0-0.3,0-0.6,0.2-0.8l5.9-9.1C-423.2-99.9-423-100.1-422.7-100.2
						 M-411.5-77.9c0.1-0.3,0.2-0.5,0.5-0.7s0.6-0.2,0.9-0.1c0.3,0.1,0.5,0.2,0.7,0.5l5.9,9.5c0.2,0.3,0.2,0.6,0.2,0.9
						c-0.1,0.3-0.2,0.5-0.5,0.7s-0.6,0.2-0.9,0.2c-0.3-0.1-0.5-0.2-0.7-0.5l-5.9-9.5C-411.5-77.3-411.6-77.6-411.5-77.9
						 M-420.7-72.2c0.3,0.1,0.5,0.2,0.7,0.5l12.7,20.5c0.2,0.3,0.2,0.6,0.2,0.9c-0.1,0.3-0.2,0.5-0.5,0.7s-0.6,0.2-0.9,0.2
						c-0.3-0.1-0.5-0.2-0.7-0.5L-422-70.5c-0.2-0.3-0.2-0.6-0.1-0.9c0.1-0.3,0.2-0.5,0.5-0.7C-421.4-72.3-421.1-72.3-420.7-72.2
						 M-416.4-74.6c-0.2-0.3-0.2-0.6-0.1-0.9c0.1-0.3,0.2-0.5,0.5-0.7s0.6-0.2,0.9-0.1c0.3,0.1,0.5,0.2,0.7,0.5l18.3,29.6
						c0.2,0.3,0.2,0.6,0.2,0.9c-0.1,0.3-0.2,0.5-0.5,0.7s-0.6,0.2-0.9,0.2c-0.3-0.1-0.5-0.2-0.7-0.5L-416.4-74.6 M-404.6-81.8
						c-0.2-0.3-0.2-0.6-0.1-0.9c0.1-0.3,0.2-0.5,0.5-0.7s0.5-0.2,0.8-0.1s0.6,0.2,0.7,0.5c1,1.6,3,4.8,6,9.6l12.8,20.7
						c0.2,0.3,0.2,0.6,0.2,0.9c-0.1,0.3-0.3,0.5-0.5,0.7c-0.3,0.2-0.5,0.2-0.8,0.2c-0.3-0.1-0.5-0.2-0.7-0.5l-12.8-20.7
						C-401.5-77-403.5-80.2-404.6-81.8 M-412.2-39.6c0.2,0.3,0.2,0.5,0.2,0.8c-0.1,0.3-0.2,0.6-0.5,0.7c-0.3,0.2-0.6,0.2-0.9,0.2
						c-0.3-0.1-0.5-0.2-0.7-0.5l-17-26.5c-0.2-0.3-0.2-0.6-0.2-0.9c0.1-0.3,0.3-0.5,0.5-0.7c0.3-0.2,0.5-0.2,0.8-0.2
						c0.3,0.1,0.6,0.3,0.7,0.5L-412.2-39.6 M-441.2-87.7c0.3-0.1,0.6,0,0.9,0.1c0.3,0.2,0.5,0.4,0.5,0.7c0.1,0.3,0,0.6-0.1,0.9
						l-4.1,7.2l10.9-1.3c0.3,0,0.6,0,0.8,0.2c0.3,0.2,0.4,0.5,0.5,0.8c0,0.3-0.1,0.6-0.3,0.8c-0.2,0.3-0.4,0.4-0.8,0.5l-13.1,1.6
						c-0.3,0-0.5,0-0.8-0.2c-0.2-0.2-0.4-0.4-0.5-0.7c0-0.3,0-0.5,0.2-0.8l5.2-9.2C-441.7-87.4-441.5-87.6-441.2-87.7 M-437.4-63.1
						c0.3,0.1,0.6,0.2,0.7,0.5l10.3,15.9c0.2,0.3,0.2,0.6,0.2,0.9c-0.1,0.3-0.2,0.6-0.5,0.7c-0.3,0.2-0.6,0.2-0.9,0.2
						c-0.3-0.1-0.5-0.2-0.7-0.5l-10.3-15.9c-0.2-0.3-0.2-0.6-0.2-0.9c0.1-0.3,0.2-0.5,0.5-0.7S-437.7-63.1-437.4-63.1z"/>
					<path class="st15" d="M-436.6-62.6c-0.2-0.3-0.4-0.4-0.7-0.5c-0.3,0-0.6,0-0.9,0.2s-0.4,0.4-0.5,0.7c0,0.3,0,0.6,0.2,0.9
						l10.3,15.9c0.2,0.3,0.4,0.4,0.7,0.5c0.3,0.1,0.6,0,0.9-0.2s0.4-0.4,0.5-0.7s0-0.6-0.2-0.9L-436.6-62.6 M-440.3-87.6
						c-0.3-0.2-0.6-0.2-0.9-0.1s-0.5,0.3-0.7,0.5l-5.2,9.2c-0.2,0.3-0.2,0.5-0.2,0.8c0.1,0.3,0.2,0.5,0.5,0.7s0.5,0.3,0.8,0.2
						l13.1-1.6c0.3,0,0.6-0.2,0.8-0.5c0.2-0.2,0.3-0.5,0.3-0.8s-0.2-0.6-0.5-0.8c-0.2-0.2-0.5-0.3-0.8-0.2l-10.9,1.3l4.1-7.2
						c0.2-0.3,0.2-0.6,0.1-0.9C-439.8-87.2-440-87.4-440.3-87.6 M-412-38.7c0.1-0.3,0-0.6-0.2-0.8l-17-26.5
						c-0.2-0.3-0.4-0.5-0.7-0.5c-0.3,0-0.6,0-0.8,0.2c-0.3,0.2-0.5,0.4-0.5,0.7c-0.1,0.3,0,0.6,0.2,0.9l17,26.5
						c0.2,0.3,0.4,0.4,0.7,0.5c0.3,0.1,0.6,0,0.9-0.2C-412.2-38.2-412.1-38.4-412-38.7 M-404.7-82.7c-0.1,0.3,0,0.6,0.1,0.9
						c1,1.6,3,4.8,6,9.6l12.8,20.7c0.2,0.3,0.4,0.4,0.7,0.5c0.3,0.1,0.6,0,0.8-0.2c0.3-0.2,0.5-0.4,0.5-0.7c0.1-0.3,0-0.6-0.2-0.9
						l-12.8-20.7c-3-4.9-5-8.1-6-9.6c-0.2-0.3-0.4-0.4-0.7-0.5c-0.3-0.1-0.6,0-0.8,0.1C-404.4-83.3-404.6-83-404.7-82.7
						 M-416.5-75.4c-0.1,0.3,0,0.6,0.1,0.9l18.3,29.6c0.2,0.3,0.4,0.4,0.7,0.5c0.3,0.1,0.6,0,0.9-0.2s0.4-0.4,0.5-0.7s0-0.6-0.2-0.9
						l-18.3-29.6c-0.2-0.3-0.4-0.4-0.7-0.5c-0.3-0.1-0.6,0-0.9,0.1C-416.3-76-416.4-75.7-416.5-75.4 M-420.1-71.7
						c-0.2-0.3-0.4-0.4-0.7-0.5c-0.3-0.1-0.6,0-0.9,0.1c-0.3,0.2-0.4,0.4-0.5,0.7s0,0.6,0.1,0.9l12.7,20.5c0.2,0.3,0.4,0.4,0.7,0.5
						c0.3,0.1,0.6,0,0.9-0.2s0.4-0.4,0.5-0.7s0-0.6-0.2-0.9L-420.1-71.7 M-411-78.7c-0.3,0.2-0.4,0.4-0.5,0.7s0,0.6,0.1,0.9l5.9,9.5
						c0.2,0.3,0.4,0.4,0.7,0.5c0.3,0.1,0.6,0,0.9-0.2s0.4-0.4,0.5-0.7s0-0.6-0.2-0.9l-5.9-9.5c-0.2-0.3-0.4-0.4-0.7-0.5
						C-410.4-78.8-410.7-78.8-411-78.7 M-421.8-100c-0.3-0.2-0.6-0.2-0.9-0.2c-0.3,0.1-0.5,0.2-0.7,0.5l-5.9,9.1
						c-0.2,0.3-0.2,0.5-0.2,0.8c0.1,0.3,0.2,0.5,0.4,0.7c0.3,0.2,0.5,0.3,0.8,0.3l14.1-1.1c0.3,0,0.6-0.2,0.8-0.4
						c0.2-0.2,0.3-0.5,0.3-0.8s-0.2-0.6-0.4-0.8c-0.2-0.2-0.5-0.3-0.8-0.3l-11.7,0.9l4.6-7.2c0.2-0.3,0.2-0.6,0.2-0.9
						C-421.4-99.6-421.5-99.8-421.8-100 M-392.6-76.7c0.2,0.3,0.4,0.4,0.7,0.5c0.3,0.1,0.6,0,0.9-0.2s0.4-0.4,0.5-0.7s0-0.6-0.2-0.9
						l-5.4-8.7c-0.2-0.3-0.4-0.4-0.7-0.5c-0.3-0.1-0.6,0-0.9,0.1c-0.3,0.2-0.4,0.4-0.5,0.7c-0.1,0.3,0,0.6,0.1,0.9L-392.6-76.7
						 M-390-91.9c-0.2-0.3-0.4-0.4-0.7-0.5c-0.3-0.1-0.6,0-0.9,0.1c-0.3,0.2-0.4,0.4-0.5,0.7c-0.1,0.3,0,0.6,0.1,0.9l17.5,28.4
						c0.2,0.3,0.4,0.4,0.7,0.5c0.3,0.1,0.6,0,0.8-0.2c0.3-0.2,0.5-0.4,0.5-0.7c0.1-0.3,0-0.6-0.2-0.9L-390-91.9 M-405.4-110.9
						c-0.3,0.1-0.5,0.2-0.7,0.5l-5.6,8.4c-0.2,0.3-0.2,0.5-0.2,0.8c0.1,0.3,0.2,0.5,0.5,0.7s0.5,0.2,0.8,0.2l15.6-2
						c0.3,0,0.6-0.2,0.8-0.4c0.2-0.3,0.3-0.5,0.2-0.8c0-0.3-0.2-0.6-0.4-0.8c-0.3-0.2-0.5-0.3-0.8-0.2l-13.1,1.7l4.2-6.3
						c0.2-0.3,0.2-0.6,0.2-0.9s-0.2-0.5-0.5-0.7C-404.7-110.8-405-110.9-405.4-110.9z"/>
				</g>
			</g>
		</g>
		<g transform="matrix( 1, 0, 0, 1, 0,0) ">
			<g>
				<g id="Symbol_3_0_Layer1_11_MEMBER_0_FILL">
					<path class="st11" d="M-277.7-35.2l-1.2-2c-1.5-2.5-3.5-2.9-6-1.4l-78.3,48c-1,0.6-1.7,1.5-2,2.6s-0.1,2.2,0.6,3.3l0.8,1.3
						c0.6,1,1.5,1.6,2.7,1.9c1.2,0.3,2.3,0.1,3.3-0.5l33.3-20.4L-323,0l-40.7,24.9c-1.6,0.9-2.7,2.1-3.4,3.5c-0.7,1.4-0.7,2.6,0,3.7
						l0.8,1.3c0.6,1,1.7,1.5,3.3,1.6c1.6,0.1,3.1-0.4,4.7-1.4l40.7-25l1.5,2.4l-42.4,25.9c-1.7,1-3,2.3-3.8,3.8
						c-0.7,1.4-0.8,2.7-0.2,3.7l0.8,1.3c0.6,1,1.8,1.6,3.4,1.5c1.7,0,3.3-0.6,5.1-1.6l42.3-26l1.4,2.4l-36.6,22.5
						c-1.3,0.8-2.1,1.8-2.6,3.1c-0.5,1.3-0.4,2.4,0.2,3.4l0.8,1.3c0.6,1,1.6,1.6,2.9,1.8c1.4,0.2,2.7-0.1,3.9-0.9l39.3-24
						c0.4-0.1,0.7-0.3,1.1-0.6l15.4-9.4l-13.4,20.5c-0.9,1.3-1.2,2.8-0.9,4.4c0.3,1.6,1,2.8,2.3,3.6l2.8,1.7
						c1.3,0.9,2.7,1.1,4.2,0.7c1.6-0.4,2.8-1.3,3.7-2.6l28.2-43.2c0.6-1,1-2,1-3.1c0.5-1.1,0.3-2.5-0.6-3.9l-0.9-1.5l8.8-5.4
						c2.5-1.5,2.9-3.5,1.5-5.9l-14.5-23.7c-1.5-2.5-3.5-2.9-5.9-1.4L-277.7-35.2z"/>
				</g>
			</g>
		</g>
		<g transform="matrix( 1, 0, 0, 1, 0,0) ">
			<g>
				<g id="Symbol_3_0_Layer1_11_MEMBER_1_FILL">
					<path class="st12" d="M-175.1-48.7c2.5-1.5,2.9-3.5,1.4-6l-20.2-33c-1.5-2.5-3.5-2.9-5.9-1.4l-74,45.2c-2.5,1.5-3,3.5-1.5,5.9
						l20.2,33.1c1.5,2.5,3.5,2.9,6,1.4L-175.1-48.7z"/>
				</g>
			</g>
		</g>
		<g transform="matrix( 1, 0, 0, 1, 0,0) ">
			<g>
				<g id="Symbol_3_0_Layer1_11_MEMBER_2_FILL">
					<path class="st7" d="M-246.4-13.6c0.8-0.4,1.3-1.1,1.5-2s0.1-1.8-0.4-2.6s-1.2-1.3-2.1-1.5c-0.8-0.2-1.7-0.1-2.5,0.4
						s-1.3,1.1-1.6,2c-0.2,0.9,0,1.8,0.4,2.6c0.5,0.8,1.1,1.3,2.1,1.5C-248-12.9-247.2-13.1-246.4-13.6z"/>
				</g>
			</g>
		</g>
		<g transform="matrix( 1, 0, 0, 1, 0,0) ">
			<g>
				<g id="Symbol_3_0_Layer1_12_FILL">
					<path class="st4" d="M-300.6,1.2c1.5-0.4,2.6-1.3,3.3-2.8c0.7-1.4,0.8-2.9,0.3-4.5l-14.9-49.3c-0.4-1.1-0.9-2-1.7-2.7
						c-0.6-1.1-1.7-1.8-3.4-2.1l-1.8-0.3l0.5-3.5l1.2,0.2c2.9,0.4,4.5-0.8,4.9-3.6l13-85.8c0.4-2.9-0.8-4.5-3.7-4.9l-38.3-5.8
						c-2.9-0.5-4.5,0.7-4.9,3.6l-13.1,85.8c-0.5,2.9,0.7,4.5,3.6,4.9l1.1,0.2l-0.5,3.5l-2.3-0.4c-2.8-0.4-4.5,0.8-4.9,3.7
						l-13.7,90.8c-0.2,1.2,0.1,2.3,0.7,3.3c0.7,0.9,1.7,1.5,2.9,1.6l1.5,0.3c1.2,0.2,2.2-0.1,3.2-0.8s1.5-1.7,1.7-2.8l5.9-38.6
						l2.7,0.4l-7.1,47.2c-0.3,1.8-0.1,3.5,0.5,4.9c0.7,1.4,1.6,2.2,2.8,2.4l1.5,0.2c1.2,0.2,2.3-0.3,3.3-1.5c1-1.2,1.7-2.7,2-4.5
						l7.1-47.3l2.8,0.5l-7.4,49.1c-0.3,2-0.2,3.7,0.5,5.3c0.6,1.5,1.5,2.3,2.7,2.5l1.5,0.2c1.2,0.2,2.3-0.3,3.4-1.6
						c1-1.3,1.7-2.9,2-4.9l7.4-49.1l2.7,0.5L-338,38c-0.2,1.5,0,2.8,0.7,4s1.6,1.9,2.8,2l1.5,0.2c1.1,0.2,2.2-0.1,3.3-1
						c1-0.9,1.6-2.2,1.8-3.6l6.9-45.5c0.2-0.4,0.3-0.8,0.3-1.2l2.8-17.9l7,23.4c0.4,1.5,1.4,2.7,2.8,3.5s2.8,1,4.2,0.6L-300.6,1.2z"
						/>
				</g>
			</g>
		</g>
		<g transform="matrix( 1, 0, 0, 1, 0,0) ">
			<g>
				<g id="Symbol_3_0_Layer1_13_MEMBER_0_FILL">
					<path class="st16" d="M-442.7-19.8l-8.6,26.4c-0.9,2.7,0.1,4.6,2.8,5.5l9.8,3.1l-0.6,1.7c-0.5,1.7-0.4,3,0.4,3.9
						c0.3,1,0.8,1.9,1.7,2.8l37.5,35.5c1.1,1.1,2.5,1.6,4.1,1.6s2.9-0.6,3.9-1.7l2.3-2.3c1-1.1,1.5-2.5,1.4-4.1s-0.7-2.9-1.9-4
						l-17.8-16.8l17.2,5.6c0.5,0.2,0.9,0.3,1.3,0.3l43.8,14.2c1.5,0.5,2.8,0.5,4,0c1.3-0.5,2.1-1.3,2.5-2.5l0.5-1.5
						c0.4-1.1,0.2-2.3-0.6-3.4c-0.7-1.1-1.8-2-3.3-2.4l-40.9-13.3l0.9-2.6l47.2,15.4c1.9,0.6,3.7,0.7,5.3,0.4
						c1.6-0.4,2.6-1.1,2.9-2.3l0.5-1.5c0.4-1.1,0-2.3-1.1-3.5c-1.1-1.3-2.6-2.2-4.5-2.8l-47.3-15.4l0.9-2.6l45.4,14.8
						c1.8,0.6,3.4,0.6,4.9,0.2c1.5-0.4,2.5-1.2,2.8-2.3l0.5-1.5c0.4-1.1,0.1-2.3-0.9-3.5s-2.4-2.1-4.2-2.6l-45.4-14.8l0.9-2.6
						l37.1,12.1c1.1,0.4,2.3,0.3,3.3-0.3c1-0.5,1.8-1.3,2.2-2.5l0.4-1.5c0.4-1.1,0.3-2.2-0.2-3.3c-0.5-1-1.4-1.8-2.5-2.1l-87.4-28.4
						c-2.8-0.9-4.6,0.1-5.5,2.8l-0.7,2.2l-9.8-3.2C-440-23.5-441.9-22.5-442.7-19.8z"/>
				</g>
			</g>
		</g>
		<g transform="matrix( 1, 0, 0, 1, 0,0) ">
			<g>
				<g id="Symbol_3_0_Layer1_13_MEMBER_1_FILL">
					<path class="st10" d="M-515.8-53.7c-2.7-0.9-4.5,0-5.4,2.8L-533.1-14c-0.9,2.8,0,4.6,2.8,5.5l82.5,26.7
						c2.8,0.9,4.6-0.1,5.5-2.8l12-36.9c0.8-2.8-0.1-4.6-2.8-5.4L-515.8-53.7z"/>
				</g>
			</g>
		</g>
		<g transform="matrix( 1, 0, 0, 1, 0,0) ">
			<g>
				<g id="Symbol_3_0_Layer1_13_MEMBER_2_FILL">
					<path class="st7" d="M-455,4.8c-0.3,0.8-0.2,1.7,0.2,2.5c0.4,0.8,1.1,1.4,1.9,1.6c0.9,0.3,1.7,0.2,2.6-0.2
						c0.8-0.4,1.4-1,1.6-1.9c0.3-0.9,0.2-1.7-0.2-2.6c-0.4-0.8-1.1-1.3-2-1.6s-1.7-0.2-2.5,0.2C-454.2,3.2-454.7,3.9-455,4.8z"/>
				</g>
			</g>
		</g>
		<g transform="matrix( 1, 0, 0, 1, 0,0) ">
			<g>
				<g id="Symbol_3_0_Layer1_13_MEMBER_3_FILL">
					<path class="st1" d="M-460.8-37.9c-0.9,0.5-1.5,1.2-1.8,2.2l-9.3,31.9c-0.3,1-0.2,1.9,0.3,2.8c0.5,0.9,1.3,1.5,2.3,1.8
						s1.9,0.2,2.9-0.3c0.9-0.5,1.5-1.2,1.8-2.2l9.3-31.9c0.3-1,0.1-1.9-0.4-2.9c-0.5-0.9-1.3-1.5-2.3-1.8
						C-458.9-38.5-459.9-38.4-460.8-37.9z"/>
				</g>
			</g>
		</g>
		<g transform="matrix( 1, 0, 0, 1, 0,0) ">
			<g>
				<g id="Symbol_3_0_Layer1_14_MEMBER_0_FILL">
					<path class="st17" d="M-300.3-1.9c0.6-1.5,0.7-3,0.2-4.5L-317.3-55c-0.4-1.1-1-2-1.8-2.7c-0.6-1.1-1.8-1.7-3.5-1.9l-1.7-0.2
						l1.1-10.3c0.3-2.8-1-4.4-3.8-4.7l-27.6-2.9c-2.9-0.3-4.5,0.9-4.7,3.8l-1.1,10.3l-2.3-0.3c-2.9-0.3-4.4,1-4.7,3.9l-9.6,91.3
						c-0.1,1.2,0.2,2.3,0.9,3.2c0.7,0.9,1.7,1.4,2.9,1.5l1.5,0.2c1.2,0.1,2.3-0.2,3.2-1c0.9-0.7,1.4-1.7,1.6-2.9l4.1-38.8l2.8,0.3
						l-5,47.5c-0.2,1.8,0,3.5,0.7,4.9c0.8,1.4,1.7,2.2,2.9,2.3l1.5,0.2c1.2,0.2,2.3-0.4,3.3-1.6s1.6-2.7,1.8-4.6l5-47.5l2.7,0.3
						l-5.2,49.3c-0.2,2,0,3.8,0.7,5.3s1.6,2.3,2.8,2.4l1.5,0.2c1.2,0.1,2.3-0.5,3.3-1.8s1.6-3,1.8-5l5.2-49.3l2.8,0.3l-4.5,42.8
						c-0.2,1.5,0.1,2.8,0.8,3.9c0.7,1.1,1.7,1.8,2.9,1.9l1.5,0.2c1.2,0.2,2.3-0.2,3.3-1.2c0.9-1,1.5-2.2,1.6-3.7l4.8-45.8
						c0.2-0.4,0.2-0.8,0.3-1.3l1.9-18l8.1,23c0.5,1.6,1.5,2.7,2.9,3.4c1.4,0.8,2.8,0.9,4.3,0.4l3.1-1.2
						C-301.9,0.5-300.9-0.4-300.3-1.9z"/>
				</g>
			</g>
		</g>
		<g transform="matrix( 1, 0, 0, 1, 0,0) ">
			<g>
				<g id="Symbol_3_0_Layer1_14_MEMBER_1_FILL">
					<path class="st5" d="M-308.7-153.3c0.3-2.9-1-4.5-3.9-4.7l-38.6-4.1c-2.9-0.3-4.5,1-4.7,3.8l-9.2,86.3c-0.3,2.9,1,4.5,3.9,4.8
						l38.5,4.1c2.9,0.3,4.5-1,4.8-3.9L-308.7-153.3z"/>
				</g>
			</g>
		</g>
		<g transform="matrix( 1, 0, 0, 1, 0,0) ">
			<g>
				<g id="Symbol_3_0_Layer1_14_MEMBER_2_FILL">
					<path class="st7" d="M-324.2-75.2c0.1-0.9-0.1-1.7-0.7-2.5c-0.6-0.7-1.4-1.1-2.3-1.2c-0.9-0.1-1.7,0.1-2.5,0.7
						c-0.7,0.6-1.1,1.3-1.2,2.3c-0.1,0.9,0.2,1.7,0.7,2.4c0.6,0.7,1.4,1.1,2.3,1.2c0.9,0.1,1.7-0.1,2.5-0.7
						C-324.7-73.6-324.3-74.4-324.2-75.2z"/>
				</g>
			</g>
		</g>
		<g transform="matrix( 1, 0, 0, 1, 0,0) ">
			<g>
				<g id="Symbol_3_0_Layer1_14_MEMBER_3_FILL">
					<path class="st6" d="M-359.7-126c0.7,0.9,1.7,1.4,2.8,1.5l42.7,4.2c1.2,0.1,2.2-0.2,3.1-0.9c0.9-0.7,1.4-1.7,1.5-2.8
						c0.1-1.2-0.2-2.2-1-3.1c-0.7-0.9-1.7-1.4-2.8-1.5l-42.7-4.2c-1.1-0.1-2.2,0.2-3.1,0.9s-1.4,1.7-1.5,2.9
						C-360.7-127.9-360.4-126.9-359.7-126z"/>
				</g>
			</g>
		</g>
		<g transform="matrix( 1, 0, 0, 1, 0,0) ">
			<g>
				<g id="Symbol_3_0_Layer1_15_FILL">
					<path class="st17" d="M-448.5,44.4c1.2-2.6,0.5-4.5-2.1-5.7l-41.3-19.5c-2.6-1.2-4.5-0.5-5.7,2.1l-13.6,28.9
						c-1.2,2.6-0.5,4.5,2.1,5.7l41.3,19.5c2.6,1.2,4.6,0.5,5.8-2.1L-448.5,44.4 M-495.5,29.2l20.1,9.5L-495.5,29.2 M-503.9,48.9
						l15.9,7.5L-503.9,48.9 M-501.6,44.1l19.4,9.2L-501.6,44.1 M-497.8,34.1l14.5,6.9L-497.8,34.1z"/>
				</g>
			</g>
			<g>
				<path id="Symbol_3_0_Layer1_15_1_STROKES" class="st9" d="M-495.5,29.2l20.1,9.5 M-503.9,48.9l15.9,7.5 M-501.6,44.1l19.4,9.2
					 M-497.8,34.1l14.5,6.9"/>
			</g>
		</g>
		<g transform="matrix( 1, 0, 0, 1, 0,0) ">
			<g>
				<g id="Symbol_3_0_Layer1_15_MEMBER_0_FILL">
					<path class="st10" d="M-463.2,34L-463.2,34l6.8,3.2l0,0c0.2,0.1,0.4,0.2,0.5,0.3c0.2,0.2,0.5,0.4,0.8,0.4s0.6-0.1,0.8-0.3
						c0.3-0.2,0.4-0.5,0.4-0.8s-0.1-0.6-0.3-0.8c-0.2-0.3-0.6-0.6-1.1-0.8l0,0l-6.8-3.2l0,0c-1.8-0.8-3.2-0.3-4.1,1.6l0,0l-3,6.3
						c0,0.1,0,0.1-0.1,0.2c0,0.1-0.1,0.1-0.1,0.2l-5.7,12.2c-0.1,0.3-0.1,0.6,0,0.9c0,0.1,0,0.1,0.1,0.2c0,0.5,0,0.9,0.2,1.4l0,0
						c0.2,0.6,0.6,1.1,1.1,1.5c0.1,0.1,0.2,0.1,0.3,0.2c0.1,0.1,0.1,0.1,0.2,0.1l0.6,0.2l0.1,0.1l0,0l0,0l3.2,1.5l0,0
						c1.9,0.9,3.2,0.4,4.1-1.5l5.7-12.2l0,0c0.9-1.9,0.4-3.2-1.5-4.1l0,0l-4.3-2.1c-0.2-0.1-0.5-0.2-0.7-0.3l1.8-3.8l0,0
						C-464,33.9-463.6,33.8-463.2,34 M-467.4,41.1l0.1-0.1c0.2-0.4,0.6-0.6,1-0.3l4.3,2.1l0,0c0.5,0.2,0.6,0.6,0.4,1l0,0l-5.7,12.2
						c-0.2,0.5-0.6,0.6-1.1,0.4l0,0l-0.8-0.3c0.2-0.2,0.3-0.4,0.5-0.7l3.9-8.4c0.4-0.8,0.4-1.6,0.1-2.4l0,0
						c-0.3-0.8-0.8-1.3-1.6-1.7l0,0l-0.5-0.2l0,0c-0.4-0.2-0.7-0.2-1.1-0.3L-467.4,41.1 M-469.4,45.5c0.3-0.1,0.5-0.3,0.6-0.5
						s0.3-0.3,0.5-0.4l0,0c0.2-0.1,0.4-0.1,0.6,0l0,0l0.6,0.3c0.2,0.1,0.3,0.2,0.3,0.4c0.1,0.2,0.1,0.5,0,0.7l-3.9,8.4
						c-0.1,0.2-0.2,0.3-0.4,0.3c-0.1,0-0.1,0-0.2,0c-0.1,0.1-0.2,0.1-0.3,0.1l-0.1-0.1l-0.7-0.3l0,0c-0.1-0.1-0.2-0.2-0.3-0.4l0,0
						c-0.1-0.2-0.1-0.4,0-0.6c0.1-0.3,0.1-0.6,0-0.9L-469.4,45.5z"/>
				</g>
			</g>
		</g>
		<g transform="matrix( 1, 0, 0, 1, 0,0) ">
			<g>
				<g id="Symbol_3_0_Layer1_16_FILL">
					<path class="st7" d="M-192.1,71.8c-0.2,0.2-0.3,0.5-0.3,0.8l0.5,5.4l0.5,5.6c0,0.3,0.2,0.6,0.4,0.8c0.2,0.2,0.5,0.3,0.8,0.3
						s0.6-0.2,0.8-0.4c0.2-0.2,0.3-0.5,0.3-0.8l-0.5-5.6l-0.5-5.4c0-0.3-0.2-0.6-0.4-0.8c-0.2-0.2-0.5-0.3-0.8-0.3
						S-191.9,71.6-192.1,71.8 M-190.8,18.4c-0.2-0.2-0.4-0.3-0.6-0.5c-0.7-0.4-1.5-0.6-2.4-0.5l-3.6,0.3c-1.1,0.1-2.1,0.6-2.8,1.5
						c-0.1,0.1-0.2,0.2-0.2,0.3c-0.5,0.8-0.8,1.7-0.7,2.7s0.5,1.8,1.2,2.5c0.1,0.1,0.2,0.1,0.3,0.2c0.9,0.7,1.9,1.1,3,1l3.6-0.3
						c0.8-0.1,1.5-0.4,2.2-0.8c0.2-0.2,0.4-0.4,0.6-0.7c0.7-0.8,1-1.8,0.9-3C-189.4,20.1-189.9,19.2-190.8,18.4z"/>
					<path class="st18" d="M-190.8,24.9c-0.6,0.5-1.4,0.8-2.2,0.8l-3.6,0.3c-1.1,0.1-2.2-0.2-3-1h-0.3l4.5,48.9
						c0.1,1.3,0.6,2.3,1.6,3.1c0.6,0.5,1.3,0.9,2,1l-0.5-5.4c0-0.3,0.1-0.6,0.3-0.8c0.2-0.2,0.5-0.4,0.8-0.4s0.6,0.1,0.8,0.3
						c0.2,0.2,0.4,0.5,0.4,0.8l0.5,5.4c0.8-0.2,1.5-0.7,2.1-1.4c0.8-1,1.2-2.1,1-3.3L-190.8,24.9 M-201-0.8c-0.8,0.9-1.1,2-1,3.3
						l1.5,16.8h0.3c0.7-0.9,1.7-1.4,2.8-1.5l3.6-0.3c0.8-0.1,1.6,0.1,2.4,0.5l-1.5-16.3c-0.2-1.3-0.7-2.3-1.6-3.1
						c-1-0.8-2.1-1.1-3.3-1l0,0C-199.1-2.3-200.2-1.8-201-0.8z"/>
					<path class="st17" d="M-200,24.9v0.2h0.3C-199.8,25-199.9,24.9-200,24.9 M-200.4,19.6c0.1-0.1,0.2-0.2,0.2-0.3h-0.3
						L-200.4,19.6z"/>
				</g>
			</g>
		</g>
		<g transform="matrix( 1, 0, 0, 1, 0,0) ">
			<g>
				<g id="Symbol_3_0_Layer1_17_FILL">
					<path class="st8" d="M-388.1-32.3c-0.3-0.1-0.5-0.3-0.7-0.5c-0.1-0.3-0.2-0.6-0.1-0.9c0.1-0.3,0.3-0.5,0.6-0.7
						c0.3-0.1,0.6-0.2,0.8-0.1l5.3,1.6c0.1-0.8-0.1-1.7-0.5-2.5c-0.6-1.1-1.5-1.8-2.7-2.2l-46.4-14.2c0.2,0.8,0.2,1.6-0.1,2.4
						l-1,3.4c-0.4,1.1-1,1.9-2,2.5l-0.1,0.3l46.9,14.4c1.2,0.4,2.3,0.3,3.4-0.3c0.7-0.4,1.3-0.9,1.7-1.6L-388.1-32.3 M-459.6-55.5
						c-0.4,1.2-0.3,2.4,0.3,3.4c0.6,1.1,1.5,1.9,2.7,2.3l16.1,4.9l0.1-0.3c-0.5-1-0.6-2.1-0.3-3.2l1-3.4c0.3-0.8,0.7-1.5,1.4-2
						l-15.6-4.8c-1.2-0.4-2.3-0.3-3.4,0.3C-458.4-57.6-459.2-56.7-459.6-55.5L-459.6-55.5z"/>
					<path class="st7" d="M-388.7-32.8c0.2,0.3,0.4,0.5,0.7,0.5l5.2,1.6l5.4,1.6c0.3,0.1,0.6,0.1,0.9-0.1c0.3-0.1,0.5-0.4,0.5-0.7
						c0.1-0.3,0.1-0.6-0.1-0.8c-0.1-0.3-0.4-0.5-0.7-0.6l-5.3-1.6l-5.3-1.6c-0.3-0.1-0.6-0.1-0.8,0.1c-0.3,0.2-0.5,0.4-0.6,0.7
						C-388.9-33.4-388.9-33.1-388.7-32.8 M-438.2-53.7c-0.6,0.5-1.1,1.1-1.4,2l-1,3.4c-0.4,1.1-0.3,2.2,0.3,3.2
						c0.1,0.1,0.2,0.2,0.2,0.4c0.5,0.8,1.3,1.4,2.3,1.6c0.9,0.3,1.8,0.3,2.7-0.1c0.2-0.1,0.3-0.2,0.4-0.2c1-0.6,1.7-1.4,2-2.5l1-3.4
						c0.3-0.8,0.3-1.6,0.1-2.4c-0.2-0.3-0.3-0.5-0.4-0.7c-0.5-1-1.3-1.7-2.4-2s-2.1-0.2-3.2,0.3C-437.8-54.1-438-53.9-438.2-53.7z"
						/>
					<path class="st17" d="M-434.8-43.4c-0.1,0.1-0.3,0.1-0.4,0.2l0.3,0.1L-434.8-43.4 M-440.5-44.9l0.3,0.1
						c-0.1-0.2-0.2-0.3-0.2-0.4L-440.5-44.9z"/>
				</g>
			</g>
		</g>
		<g transform="matrix( 1, 0, 0, 1, 0,0) ">
			<g>
				<g id="Symbol_3_0_Layer1_18_FILL">
					<path class="st5" d="M-489.8,63.4c-2.8,0.6-3.9,2.4-3.2,5.2l7,31.2c0.6,2.8,2.3,3.9,5.1,3.3l44.6-10c2.8-0.7,3.9-2.4,3.3-5.2
						l-7-31.2c-0.6-2.8-2.4-3.9-5.2-3.2L-489.8,63.4 M-486.4,73.6l21.6-4.9L-486.4,73.6 M-485.3,78.8l15.7-3.5L-485.3,78.8
						 M-481,94.3l17.2-3.8L-481,94.3 M-482.1,89.1l20.9-4.7L-482.1,89.1z"/>
				</g>
			</g>
			<g>
				<path id="Symbol_3_0_Layer1_18_1_STROKES" class="st9" d="M-486.4,73.6l21.6-4.9 M-485.3,78.8l15.7-3.5 M-481,94.3l17.2-3.8
					 M-482.1,89.1l20.9-4.7"/>
			</g>
		</g>
		<g transform="matrix( 1, 0, 0, 1, 0,0) ">
			<g>
				<g id="Symbol_3_0_Layer1_18_MEMBER_0_FILL">
					<path class="st10" d="M-451.4,54.1L-451.4,54.1l-7.3,1.6l0,0c-2,0.5-2.8,1.7-2.3,3.8l1.5,6.7c0,0.1,0,0.1,0,0.2v0.1l0,0l0,0
						l2.9,13.3c0.1,0.3,0.3,0.6,0.5,0.7c0.1,0.1,0.1,0.1,0.2,0.1c0.2,0.4,0.5,0.7,0.9,0.9c0.6,0.4,1.2,0.6,1.9,0.6
						c0.2,0,0.3,0,0.5-0.1l0,0l0.5-0.1l0,0c0.1,0,0.2,0,0.2,0l0,0l3.6-0.8l0,0c2-0.5,2.7-1.8,2.3-3.7l0,0l-3-13.2l0,0
						c-0.5-2-1.7-2.8-3.7-2.3l0,0l-4.7,1.1l0,0c-0.3,0.1-0.5,0.1-0.8,0.2l-1-4.1l0,0c-0.1-0.6,0.1-0.9,0.6-1l0,0l7.4-1.6l0,0
						c0.2-0.1,0.4-0.1,0.5-0.1c0.3,0.1,0.6,0,0.9-0.2s0.4-0.4,0.5-0.7c0.1-0.3,0-0.6-0.2-0.8c-0.2-0.3-0.4-0.4-0.7-0.5
						C-450.3,53.9-450.8,54-451.4,54.1 M-451,64.8L-451,64.8l2.9,13.1c0.1,0.5-0.1,0.9-0.6,1l-0.8,0.2c0-0.3,0-0.5-0.1-0.8l0,0
						l-2.1-9.1l0,0c-0.2-0.9-0.7-1.5-1.5-2c-0.7-0.4-1.4-0.5-2.3-0.3l0,0l-0.6,0.1c-0.4,0.1-0.7,0.2-1,0.4l-0.3-1.3l0,0
						c-0.1-0.5,0.1-0.7,0.6-0.8l0,0l4.7-1.1l0,0C-451.4,64-451.1,64.2-451,64.8 M-455.8,69.4c0.1-0.2,0.3-0.3,0.5-0.3l0,0l0.6-0.1
						c0.2,0,0.4,0,0.5,0l0.1,0.1c0.2,0.1,0.3,0.3,0.4,0.5l2.1,9l0,0c0.1,0.2,0,0.4-0.1,0.6c0,0.1,0,0.1,0,0.1
						c-0.1,0.1-0.1,0.2-0.2,0.2s-0.1,0-0.2,0l-0.8,0.2l0,0c0,0,0,0-0.1,0s-0.3-0.1-0.4-0.2c0,0,0,0-0.1,0c-0.2-0.1-0.3-0.3-0.3-0.5
						c0-0.3-0.2-0.5-0.5-0.7l0,0l-1.7-7.5c0.1-0.2,0.2-0.5,0.1-0.8C-456,69.9-455.9,69.8-455.8,69.4z"/>
				</g>
			</g>
		</g>
	</g>
</g>
</svg>
