<?xml version="1.0" encoding="utf-8"?>
<!-- Generator: Adobe Illustrator 19.2.1, SVG Export Plug-In . SVG Version: 6.00 Build 0)  -->
<!DOCTYPE svg PUBLIC "-//W3C//DTD SVG 1.1//EN" "http://www.w3.org/Graphics/SVG/1.1/DTD/svg11.dtd">
<svg version="1.1" id="Layer_1" xmlns="http://www.w3.org/2000/svg" xmlns:xlink="http://www.w3.org/1999/xlink" x="0px" y="0px"
	 viewBox="0 0 595.3 421" style="enable-background:new 0 0 595.3 421;" xml:space="preserve">
<style type="text/css">
	.st0{fill:#C0E4EE;}
	.st1{fill:#E66661;}
	.st2{fill:#FBD8BB;}
	.st3{fill:#4BA57B;}
	.st4{fill:#595A5C;}
	.st5{fill:#C3996C;}
	.st6{fill:#383660;}
	.st7{fill:#F7AD92;}
	.st8{fill:#FFDA83;}
	.st9{fill:#E7E7E7;}
	.st10{fill:#BDC59E;}
	.st11{fill:none;stroke:#383660;stroke-width:3;stroke-linecap:round;stroke-linejoin:round;}
	.st12{fill:#FFFFFF;}
	.st13{fill:#DC453A;}
	.st14{fill:none;stroke:#595A5C;stroke-width:3;stroke-linecap:round;stroke-linejoin:round;}
</style>
<g transform="matrix( 1, 0, 0, 1, 0,0) ">
	<g>
		<g id="Layer1_0_FILL_4_">
			<path class="st0" d="M576.8,157.4c0-5.2-2.4-7.9-7.2-7.9H25.7c-4.8,0-7.2,2.6-7.2,7.9V239c0,5.2,2.4,7.8,7.2,7.8h543.9
				c4.8,0,7.2-2.6,7.2-7.8L576.8,157.4L576.8,157.4z"/>
		</g>
	</g>
</g>
<g transform="matrix( 1, 0, 0, 1, 0,0) ">
	<g>
		<g id="Layer1_1_FILL_6_">
			<path class="st1" d="M250.1,123.9c0.1,0.4,0.3,0.7,0.6,1l7.5,5.3c0.3,0.2,0.7,0.3,1.1,0.2c0.4-0.1,0.7-0.3,1-0.6
				c0.2-0.3,0.3-0.7,0.2-1.1c-0.1-0.4-0.3-0.7-0.6-0.9l-7.5-5.3c-0.3-0.2-0.7-0.3-1.1-0.2c-0.4,0.1-0.7,0.3-0.9,0.6
				C250.1,123.1,250,123.5,250.1,123.9 M264.3,124.5c0.2,0.3,0.6,0.5,1,0.6s0.8,0,1.1-0.2c0.3-0.2,0.5-0.6,0.6-1s0-0.7-0.2-1.1
				l-9.1-13c-0.2-0.3-0.5-0.5-1-0.6c-0.4-0.1-0.7,0-1.1,0.2c-0.3,0.2-0.5,0.5-0.6,0.9s0,0.8,0.2,1.1L264.3,124.5 M279.2,120.3
				c0.2-0.4,0.3-0.7,0.2-1.1l-2.9-11.5c-0.1-0.4-0.3-0.7-0.7-0.9c-0.4-0.2-0.7-0.2-1.1-0.1s-0.7,0.3-0.9,0.7
				c-0.2,0.4-0.2,0.7-0.1,1.1l2.9,11.5c0.1,0.4,0.3,0.7,0.7,0.9c0.4,0.2,0.7,0.3,1.1,0.2C278.7,120.9,279,120.6,279.2,120.3
				 M296.3,105.9c0.1-0.4,0.1-0.8,0-1.1c-0.2-0.4-0.4-0.6-0.8-0.8c-0.4-0.1-0.8-0.1-1.1,0c-0.4,0.2-0.6,0.5-0.8,0.8l-5.6,14.8
				c-0.1,0.4-0.1,0.7,0,1.1c0.2,0.4,0.5,0.6,0.8,0.8c0.4,0.1,0.7,0.1,1.1,0c0.4-0.2,0.6-0.4,0.8-0.8L296.3,105.9 M301.4,126.1
				c0.4,0.1,0.8-0.1,1.1-0.3l7.1-5.9c0.3-0.3,0.5-0.6,0.5-1s-0.1-0.7-0.3-1.1c-0.3-0.3-0.6-0.5-1-0.5s-0.7,0.1-1.1,0.3l-7.1,5.9
				c-0.3,0.3-0.5,0.6-0.5,1s0.1,0.8,0.3,1.1C300.7,125.9,301,126.1,301.4,126.1z"/>
		</g>
	</g>
</g>
<g transform="matrix( 1, 0, 0, 1, 0,0) ">
	<g>
		<g id="Layer1_1_MEMBER_0_MEMBER_0_FILL_1_">
			<path class="st2" d="M155.2,197.2c-0.3,0.1-0.5,0.2-0.8,0.4L127,208.4c-0.9,0.4-1.6,0.9-2,1.7c-0.4,0.8-0.5,1.5-0.2,2.2l0.3,0.9
				c0.3,0.7,0.8,1.2,1.7,1.4c0.8,0.3,1.7,0.2,2.6-0.1l25.7-10.2l0.7,1.6l-29.7,11.7c-1.2,0.5-2.1,1.1-2.8,2
				c-0.6,0.9-0.8,1.6-0.5,2.4l0.4,0.9c0.3,0.7,0.9,1.1,1.9,1.3c1.1,0.2,2.2,0,3.4-0.4l29.6-11.8l0.7,1.7L130.2,225
				c-1.1,0.4-1.9,1.1-2.5,1.9c-0.6,0.8-0.7,1.6-0.4,2.3l0.3,0.9c0.3,0.7,0.9,1.2,1.9,1.4c1,0.2,2,0,3.1-0.4l28.5-11.2l0.6,1.7
				l-23.3,9.2c-0.7,0.3-1.2,0.8-1.5,1.5s-0.3,1.4-0.1,2.1l0.4,0.9c0.3,0.7,0.8,1.3,1.5,1.6c0.7,0.3,1.4,0.3,2.1,0l54.9-21.7
				c1.7-0.7,2.3-1.9,1.6-3.6l-0.6-1.4l6.1-2.5c1.7-0.7,2.3-1.8,1.5-3.6l-6.5-16.6c-0.7-1.7-1.9-2.2-3.6-1.5l-6.1,2.4l-0.4-1
				c-0.4-1-1-1.6-1.8-1.8c-0.5-0.4-1.2-0.6-1.9-0.7l-33-2.2c-1,0-2,0.2-2.8,0.9c-0.8,0.6-1.2,1.5-1.3,2.4l-0.2,2.1
				c0,1,0.3,1.9,1,2.6c0.7,0.8,1.6,1.2,2.6,1.2l15.6,1L155.2,197.2z"/>
		</g>
	</g>
</g>
<g transform="matrix( 1, 0, 0, 1, 0,0) ">
	<g>
		<g id="Layer1_1_MEMBER_0_MEMBER_1_FILL_1_">
			<path class="st3" d="M197.1,184.8c-1.9,0-2.8,0.9-2.8,2.8l-0.2,24.9c0,1.9,0.9,2.8,2.8,2.8l24.2,0.2v-30.4L197.1,184.8z"/>
		</g>
	</g>
</g>
<g transform="matrix( 1, 0, 0, 1, 0,0) ">
	<g>
		<g id="Layer1_1_MEMBER_0_MEMBER_2_FILL_1_">
			<path class="st4" d="M203.4,190.1c-0.4-0.4-0.9-0.6-1.5-0.6s-1.1,0.2-1.5,0.6s-0.7,0.9-0.7,1.5s0.2,1.1,0.6,1.5
				c0.4,0.4,0.9,0.5,1.5,0.6c0.6,0,1.1-0.2,1.5-0.6c0.5-0.4,0.7-1,0.7-1.5C204,191,203.8,190.5,203.4,190.1z"/>
		</g>
	</g>
</g>
<g transform="matrix( 1, 0, 0, 1, 0,0) ">
	<g>
		<g id="Layer1_1_MEMBER_1_MEMBER_0_FILL_1_">
			<path class="st5" d="M137.3,186.1c-0.8,0.2-1.3,0.8-1.7,1.9l-0.4,1.1L129,187c-1.8-0.6-2.9,0-3.5,1.7l-5.8,16.9
				c-0.6,1.8-0.1,2.9,1.7,3.5l6.3,2.2l-0.5,1.4c-0.6,1.7,0,2.9,1.7,3.5l55.8,19.2c0.7,0.2,1.4,0.2,2.1-0.1c0.7-0.3,1.1-0.9,1.4-1.6
				l0.3-0.9c0.2-0.7,0.2-1.4-0.2-2.1c-0.3-0.7-0.9-1.1-1.6-1.4l-23.7-8.2l0.6-1.7l29,10c1.1,0.4,2.2,0.5,3.1,0.3
				c1-0.2,1.6-0.7,1.8-1.5l0.3-0.9c0.2-0.7,0.1-1.5-0.5-2.3s-1.5-1.4-2.6-1.8l-29-10l0.6-1.7l30.1,10.4c1.2,0.4,2.3,0.5,3.4,0.3
				c1-0.2,1.6-0.7,1.9-1.4l0.3-0.9c0.2-0.7,0-1.5-0.6-2.3c-0.7-0.8-1.7-1.4-2.9-1.8l-30.1-10.3l0.6-1.7l26.1,9
				c0.9,0.3,1.8,0.3,2.6,0s1.4-0.8,1.6-1.5l0.3-0.9c0.3-0.7,0.2-1.5-0.2-2.2c-0.5-0.7-1.2-1.3-2.1-1.6l-28-9.6
				c-0.2-0.1-0.5-0.2-0.8-0.3l-11-3.8l15.6-1.7c1-0.1,1.9-0.5,2.6-1.3c0.7-0.8,0.9-1.6,0.9-2.6l-0.3-2.1c-0.1-1-0.6-1.8-1.4-2.4
				c-0.8-0.6-1.8-0.9-2.8-0.7l-32.9,3.7C138.5,185.4,137.8,185.8,137.3,186.1z"/>
		</g>
	</g>
</g>
<g transform="matrix( 1, 0, 0, 1, 0,0) ">
	<g>
		<g id="Layer1_1_MEMBER_1_MEMBER_1_FILL_1_">
			<path class="st6" d="M129.5,188.4c0-1.8-1-2.8-2.8-2.8l-26.5,0.1v30.4l26.6-0.1c1.9,0,2.8-0.9,2.8-2.8L129.5,188.4z"/>
		</g>
	</g>
</g>
<g transform="matrix( 1, 0, 0, 1, 0,0) ">
	<g>
		<g id="Layer1_1_MEMBER_1_MEMBER_2_FILL_1_">
			<path class="st4" d="M121.8,190.3c-0.6,0-1.1,0.2-1.5,0.6s-0.6,1-0.6,1.5c0,0.6,0.3,1,0.7,1.5c0.4,0.4,0.8,0.6,1.5,0.6
				c0.6,0,1.1-0.2,1.5-0.6s0.6-1,0.6-1.5c0-0.6-0.2-1.1-0.6-1.5C122.9,190.4,122.4,190.2,121.8,190.3z"/>
		</g>
	</g>
</g>
<g transform="matrix( 1, 0, 0, 1, 0,0) ">
	<g>
		<g id="Layer1_1_MEMBER_2_MEMBER_0_FILL_1_">
			<path class="st7" d="M37.4,217.4h-3.6v0.1L37.4,217.4 M33.8,192.4v1.8l14,0.1c1.3,0,2.4,0.3,3.3,0.8c0.9,0.5,1.4,1.2,1.4,2v1
				c0,0.8-0.5,1.4-1.4,1.9s-2,0.8-3.3,0.8l-14-0.1v1.8l12.8,0.1c1.2,0,2.2,0.3,3,0.8c0.8,0.6,1.2,1.2,1.2,2v1c0,0.8-0.4,1.4-1.3,2
				c-0.9,0.5-1.9,0.8-3,0.8l-12.7-0.1v1.8h7.1c0.8,0,1.4,0.3,1.9,0.8s0.8,1.2,0.8,1.9v1c0,0.8-0.3,1.4-0.8,2
				c-0.4,0.4-0.9,0.6-1.5,0.7l23.5-0.2c1.9,0,2.8-0.9,2.8-2.8v-1.5h6.6c1.9,0,2.8-0.9,2.8-2.8l-0.2-17.8c0-1.8-0.9-2.7-2.8-2.7h-6.5
				L56,179.7l1.3,0.5c-1.4-0.7-2.5-1.7-3.3-3.1c-1-1.8-1.6-3.6-1.8-5.6c-0.3-2.8-0.6-5.6-0.8-8.4c0-0.6-0.3-1.1-0.7-1.5
				c-0.7,0-1.8,0-3.4,0.2c-1.6,0.1-2.5,1.3-2.9,3.6c-0.4,2.3-0.6,4.9-0.4,7.9c0.2,2.9,0.5,6,1.1,9c0.2,1.2,0.5,2.4,0.8,3.7h-1.6
				c0.8,0.1,1.4,0.3,2,0.8c0.7,0.5,1,1.2,1,2v1c0,0.8-0.3,1.4-1,2c-0.7,0.5-1.5,0.8-2.4,0.8L33.8,192.4z"/>
			<path class="st2" d="M42.8,211.8c-0.5-0.6-1.2-0.8-1.9-0.8h-7.1h-0.1c-2.2,2.5-2.2,4.6,0,6.5h0.1h3.6h1.2c0.2,0,0.4,0,0.5,0h1.6
				c0.2,0,0.3,0,0.5,0c0.6-0.1,1.1-0.3,1.5-0.7c0.5-0.5,0.8-1.2,0.8-2v-1C43.6,212.9,43.4,212.2,42.8,211.8 M50.8,206.4v-1
				c0-0.8-0.4-1.4-1.2-2c-0.8-0.5-1.8-0.8-3-0.8l-12.8-0.1h-0.1c-2.3,1.9-2.3,4,0,6.5h0.1l12.7,0.1c1.2,0,2.2-0.2,3-0.8
				C50.3,207.8,50.8,207.2,50.8,206.4 M33.8,194.2L33.8,194.2c-2,2.8-2,5-0.1,6.5h0.1l14,0.1c1.3,0,2.4-0.2,3.3-0.8
				c0.9-0.5,1.4-1.2,1.4-1.9v-1c0-0.8-0.5-1.5-1.4-2c-0.9-0.6-2-0.8-3.3-0.8L33.8,194.2 M33.6,185.9c-2.2,1.5-2.2,3.7,0,6.5h0.1
				l9.8,0.1c1,0,1.8-0.2,2.4-0.8c0.7-0.5,1-1.2,1-2v-1c0-0.8-0.3-1.4-1-2c-0.6-0.5-1.2-0.7-2-0.8c-0.1,0-0.3,0-0.4,0L33.6,185.9z"/>
		</g>
	</g>
</g>
<g transform="matrix( 1, 0, 0, 1, 0,0) ">
	<g>
		<g id="Layer1_1_MEMBER_2_MEMBER_1_FILL_1_">
			<path class="st8" d="M72.4,185.9c-1.9,0-2.8,1-2.8,2.8l0.2,24.9c0,1.9,1,2.8,2.8,2.7l25-0.2v-30.4L72.4,185.9z"/>
		</g>
	</g>
</g>
<g transform="matrix( 1, 0, 0, 1, 0,0) ">
	<g>
		<g id="Layer1_1_MEMBER_2_MEMBER_2_FILL_1_">
			<path class="st4" d="M78.8,191c-0.4-0.4-1-0.6-1.5-0.6c-0.6,0-1.1,0.2-1.5,0.7c-0.4,0.4-0.6,0.9-0.6,1.5s0.3,1.1,0.7,1.5
				c0.4,0.4,0.9,0.6,1.5,0.6s1.1-0.2,1.5-0.6s0.7-1,0.7-1.5C79.5,192,79.2,191.5,78.8,191z"/>
		</g>
	</g>
</g>
<g transform="matrix( 1, 0, 0, 1, 0,0) ">
	<g>
		<g id="Layer1_1_MEMBER_3_MEMBER_0_FILL_1_">
			<path class="st9" d="M258.4,187.6c0-1.9-0.9-2.8-2.8-2.8l-32,0.2v30.5l32.3-0.2c1.9,0,2.8-0.9,2.8-2.8L258.4,187.6z"/>
		</g>
	</g>
</g>
<g transform="matrix( 1, 0, 0, 1, 0,0) ">
	<g>
		<g id="Layer1_1_MEMBER_3_MEMBER_1_FILL">
			<path class="st4" d="M244.9,189c-0.6,0-1.1,0.2-1.5,0.6s-0.6,0.9-0.6,1.5s0.3,1.1,0.7,1.5s0.9,0.6,1.5,0.6s1.1-0.2,1.5-0.6
				c0.4-0.5,0.6-1,0.6-1.5c0-0.6-0.2-1.1-0.7-1.5C245.9,189.1,245.4,188.9,244.9,189z"/>
		</g>
	</g>
</g>
<g transform="matrix( 1, 0, 0, 1, 0,0) ">
	<g>
		<g id="Layer1_1_MEMBER_3_MEMBER_2_MEMBER_0_FILL">
			<path class="st2" d="M281.2,138c-0.4-1-1-1.5-1.7-1.6l-0.9-0.2c-0.8-0.1-1.5,0.2-2.2,1c-0.7,0.9-1.1,1.9-1.3,3.2l-5.3,31.4
				l-1.8-0.3l4.5-27.2c0.2-0.9,0-1.8-0.4-2.5c-0.4-0.8-1-1.2-1.7-1.4l-1-0.1c-0.8-0.1-1.5,0.1-2.1,0.6c-0.7,0.6-1.1,1.3-1.2,2.3
				l-4.9,29.2c-0.1,0.2-0.2,0.5-0.2,0.8l-2,11.5l-4.3-15.1c-0.3-1-0.8-1.8-1.7-2.3s-1.8-0.7-2.7-0.4l-2,0.6c-1,0.3-1.7,0.9-2.2,1.7
				c-0.5,0.9-0.5,1.9-0.2,2.9l9,31.8c0.2,0.8,0.6,1.4,1.1,1.8c0.2,0.3,0.4,0.6,0.7,0.8c0.4,0.3,0.8,0.4,1.4,0.5l1.1,0.2l-0.1,0.7
				l23,4.1l0.1-0.9l1.5,0.3c0.3,0,0.6,0.1,0.9,0c1.3-0.1,2.1-0.9,2.3-2.4l9.8-58.2c0.1-0.7,0-1.4-0.4-2.1c-0.5-0.6-1.1-1-1.8-1.1
				l-1-0.2c-0.7-0.1-1.4,0.1-2,0.5c-0.6,0.5-1,1.1-1.1,1.8l-4.2,24.7l-1.8-0.3l5.1-30.2c0.2-1.1,0.2-2.2-0.2-3.1
				c-0.4-0.9-1-1.5-1.8-1.6l-1-0.2c-0.8-0.1-1.5,0.2-2.2,0.9c-0.7,0.8-1.1,1.7-1.3,2.9l-5.1,30.2l-1.8-0.3l5.3-31.4
				C281.7,140.2,281.6,139,281.2,138z"/>
		</g>
	</g>
</g>
<g transform="matrix( 1, 0, 0, 1, 0,0) ">
	<g>
		<g id="Layer1_1_MEMBER_3_MEMBER_2_MEMBER_1_FILL">
			<path class="st2" d="M256.6,191.9c-2.7,0-4.1,0.9-4.1,2.8v18c0,1.4,0.8,2.3,2.5,2.7c0.6,0.2,1.3,0.2,2.1,0.2h8.4v-0.1H283
				c2.7,0,4.1-0.9,4.1-2.8v-18c0-1.9-1.4-2.8-4.1-2.8L256.6,191.9L256.6,191.9z"/>
		</g>
	</g>
</g>
<g transform="matrix( 1, 0, 0, 1, 0,0) ">
	<g>
		<g id="Layer1_1_MEMBER_4_MEMBER_0_MEMBER_0_FILL">
			<path class="st7" d="M294.8,136.3c-0.3-1.1-0.9-2-1.6-2.7c-0.8-0.6-1.6-0.8-2.3-0.6l-1,0.3c-0.7,0.2-1.2,0.8-1.5,1.8
				c-0.2,1-0.2,2,0.2,3.1l9.3,29.2l-1.7,0.6l-9.6-30.4c-0.4-1.2-1-2.2-1.7-2.9c-0.8-0.7-1.6-0.9-2.3-0.6l-0.9,0.3
				c-0.8,0.2-1.3,0.9-1.5,1.8c-0.2,1.1-0.1,2.2,0.3,3.4l9.7,30.4l-1.6,0.5l-8.4-26.3c-0.3-0.9-0.8-1.6-1.5-2.1s-1.4-0.7-2.2-0.4
				l-0.9,0.3c-0.8,0.2-1.3,0.8-1.6,1.5c-0.3,0.8-0.3,1.7,0,2.6l9,28.2c0,0.2,0.1,0.5,0.1,0.8l3.5,11.1l-10.7-11.5
				c-0.7-0.8-1.6-1.2-2.6-1.3c-1-0.1-1.9,0.2-2.6,0.9l-1.5,1.5c-0.8,0.7-1.1,1.6-1.1,2.5c0,1,0.4,1.9,1.1,2.7l22.5,24.2
				c0.6,0.6,1.2,1,1.8,1.1c0.3,0.2,0.6,0.3,1,0.4s1,0,1.5-0.1l1.1-0.3l0.2,0.7l22.3-6.9l-0.3-0.8l1.4-0.4c0.3-0.1,0.6-0.2,0.8-0.4
				c1.1-0.6,1.5-1.7,1-3.1l-17.9-56.2c-0.2-0.7-0.7-1.3-1.3-1.6c-0.7-0.3-1.4-0.4-2.1-0.1l-1,0.3c-0.7,0.2-1.2,0.7-1.6,1.4
				c-0.3,0.7-0.4,1.4-0.1,2.1l7.6,23.9l-1.7,0.5L294.8,136.3z"/>
		</g>
	</g>
</g>
<g transform="matrix( 1, 0, 0, 1, 0,0) ">
	<g>
		<g id="Layer1_1_MEMBER_4_MEMBER_0_MEMBER_1_FILL">
			<path class="st7" d="M287.5,193.8c-2.4,1.2-3.2,2.7-2.3,4.4l8.3,16c0.7,1.3,1.8,1.7,3.4,1.2c0.6-0.1,1.2-0.4,1.9-0.8l7.4-3.8l0,0
				l15.5-8c2.4-1.2,3.2-2.7,2.3-4.3l-8.3-16c-0.8-1.7-2.5-1.9-4.9-0.6L287.5,193.8z"/>
		</g>
	</g>
</g>
<g transform="matrix( 1, 0, 0, 1, 0,0) ">
	<g>
		<g id="Layer1_1_MEMBER_4_MEMBER_1_FILL_1_">
			<path class="st10" d="M303.1,184.8c-1.9,0-2.8,0.9-2.8,2.8l-0.2,24.9c0,1.9,0.9,2.8,2.8,2.8l28.8,0.2V185L303.1,184.8z"/>
		</g>
	</g>
</g>
<g transform="matrix( 1, 0, 0, 1, 0,0) ">
	<g>
		<g id="Layer1_1_MEMBER_4_MEMBER_2_FILL">
			<path class="st4" d="M309.5,189.6c-0.4-0.4-0.9-0.6-1.5-0.6s-1.1,0.2-1.5,0.6s-0.7,0.9-0.7,1.5s0.2,1.1,0.6,1.5s0.9,0.5,1.5,0.6
				c0.6,0,1.1-0.2,1.5-0.6c0.5-0.4,0.7-1,0.7-1.5C310.1,190.5,309.9,190,309.5,189.6z"/>
		</g>
	</g>
</g>
<g transform="matrix( 1, 0, 0, 1, 0,0) ">
	<g>
		<g id="Layer1_1_MEMBER_5_MEMBER_0_MEMBER_0_FILL">
			<path class="st9" d="M425,196.4c-1.5-1.1-2.8-1-3.9,0.5L384,245.8c-1.1,1.5-1,2.8,0.5,3.9l34.7,26.4c1.5,1.1,2.8,1,3.9-0.5
				l37.1-48.8c1.1-1.5,1-2.8-0.5-3.9L425,196.4 M419.9,211.4l21.4,16.3L419.9,211.4 M422.6,208.8l16.3,12.5L422.6,208.8z"/>
		</g>
	</g>
	<g>
		<path id="Layer1_1_MEMBER_5_MEMBER_0_MEMBER_0_1_STROKES" class="st11" d="M419.9,211.4l21.4,16.3 M422.6,208.8l16.3,12.5"/>
	</g>
</g>
<g transform="matrix( 1, 0, 0, 1, 0,0) ">
	<g>
		<g id="Layer1_1_MEMBER_5_MEMBER_0_MEMBER_1_FILL">
			<path class="st2" d="M434.1,200.2c-0.3,0.1-0.5,0.3-0.7,0.4l-25.7,14.6c-0.8,0.5-1.4,1.1-1.8,1.9c-0.3,0.8-0.2,1.6,0.1,2.2
				l0.4,0.8c0.4,0.7,1,1.1,1.8,1.2c0.9,0.2,1.7,0,2.6-0.5l24-13.6l0.9,1.5l-27.8,15.8c-1.1,0.6-1.9,1.4-2.5,2.3
				c-0.5,0.9-0.6,1.7-0.2,2.4l0.5,0.8c0.4,0.7,1.1,1,2,1.1c1.1,0,2.2-0.3,3.3-0.9l28-15.7l0.9,1.6l-26.7,15.1
				c-1,0.6-1.8,1.3-2.3,2.2c-0.5,0.9-0.5,1.7-0.1,2.3l0.5,0.9c0.4,0.7,1.1,1.1,2.1,1.1s2-0.2,3-0.9l26.6-15.1l0.9,1.5l-21.8,12.4
				c-0.7,0.4-1.1,0.9-1.3,1.6c-0.2,0.8-0.1,1.5,0.2,2.1l0.5,0.9c0.4,0.7,0.9,1.1,1.6,1.4c0.7,0.2,1.4,0.1,2.1-0.3
				c27.8-18.3,45.3-29.2,52.4-32.8l0,0l-0.8-1.3l5.8-3.3c1.6-0.9,2-2.2,1.1-3.8l-8.8-15.5c-0.9-1.6-2.1-1.9-3.8-1l-5.8,3.2l-0.6-1
				c-0.5-1-1.2-1.5-2-1.6c-0.6-0.3-1.3-0.4-2-0.4l-7.8,0.6c-0.3,0.9-0.7,1.8-1.2,2.6c-2.3,3.7-5.3,6.2-8.9,7.4l1.2-0.1L434.1,200.2z
				"/>
		</g>
	</g>
</g>
<g transform="matrix( 1, 0, 0, 1, 0,0) ">
	<g>
		<g id="Layer1_1_MEMBER_5_MEMBER_0_MEMBER_2_FILL">
			<path class="st12" d="M430.9,188.6c-1.2-1.4-2.6-1.4-3.9-0.2l-45.5,41c-1.4,1.2-1.4,2.6-0.2,3.9l29.2,32.4
				c1.2,1.4,2.6,1.4,3.9,0.2l45.5-41c1.4-1.2,1.4-2.6,0.2-3.9L430.9,188.6 M426.7,218c0,2.5-0.9,4.7-2.7,6.4l0,0
				c-1.2,1.2-2.6,2-4.2,2.4c-0.1,2.1-0.8,3.9-2.3,5.3c-0.3,0.3-0.5,0.5-0.8,0.7l5.1,5.4c0.9-0.9,2-1.3,3.2-1.3
				c1.3,0,2.4,0.5,3.3,1.4s1.4,2,1.4,3.3s-0.5,2.4-1.4,3.3s-2,1.4-3.3,1.4c-1.2,0-2.3-0.4-3.2-1.3l-2.2,1c0.5,0.9,0.7,1.9,0.7,2.9
				c0,1.7-0.6,3.1-1.8,4.3l0,0c-1.2,1.2-2.6,1.8-4.3,1.8c-1.7,0-3.1-0.6-4.4-1.8c-1.2-1.2-1.8-2.6-1.8-4.3c0-1.7,0.6-3.1,1.8-4.4
				l0,0c1.2-1.2,2.7-1.8,4.4-1.8c1.7,0,3.1,0.6,4.3,1.8c0.1,0.1,0.1,0.1,0.2,0.2l2.2-1c-0.4-0.7-0.5-1.4-0.5-2.2
				c0-0.8,0.2-1.5,0.5-2.2l-5.4-5.7c-1.1,0.5-2.2,0.8-3.5,0.8c-1.1,0-2.2-0.2-3.2-0.6l-2.2,5.4c0.7,0.7,1,1.6,1,2.6
				c0,1.1-0.4,2-1.2,2.8c-0.8,0.8-1.7,1.2-2.8,1.2c-1.1,0-2-0.4-2.8-1.2c-0.8-0.8-1.2-1.7-1.2-2.8c0-1.1,0.4-2,1.2-2.8
				c0.8-0.8,1.7-1.2,2.8-1.2c0.6,0,1.2,0.1,1.7,0.4l2.2-5.2c-0.4-0.3-0.8-0.6-1.1-0.9c-1.4-1.4-2.2-3-2.3-5l-10.9,2.3
				c-0.2,0-0.4,0-0.6-0.1s-0.3-0.3-0.3-0.5s0-0.4,0.1-0.6s0.3-0.3,0.5-0.3l11.3-2.4c0.2-1.8,1-3.3,2.3-4.6c0.7-0.7,1.4-1.2,2.2-1.6
				c-0.1-0.5-0.1-1-0.1-1.5c0-2.5,0.9-4.7,2.6-6.4l0,0c1.8-1.8,3.9-2.6,6.4-2.6s4.7,0.9,6.4,2.7C425.8,213.4,426.6,215.5,426.7,218
				 M425.7,200.8c-0.1-0.2-0.2-0.3-0.2-0.5s0.1-0.4,0.2-0.5c0.2-0.1,0.3-0.2,0.5-0.2s0.4,0.1,0.5,0.2l13.8,15.3
				c0.1,0.2,0.2,0.3,0.2,0.5s-0.1,0.4-0.2,0.5c-0.2,0.1-0.3,0.2-0.5,0.2s-0.4-0.1-0.5-0.2L425.7,200.8 M441.7,222
				c0.1,0.2,0.2,0.3,0.2,0.5s-0.1,0.4-0.2,0.5c-0.2,0.1-0.3,0.2-0.5,0.2s-0.4-0.1-0.5-0.2l-18-20c-0.1-0.2-0.2-0.3-0.2-0.5
				s0.1-0.4,0.2-0.5c0.2-0.1,0.3-0.2,0.5-0.2s0.4,0.1,0.5,0.2L441.7,222 M431.1,231c-0.1-0.1-0.2-0.3-0.2-0.5s0.1-0.4,0.2-0.5
				s0.3-0.2,0.5-0.2s0.4,0.1,0.5,0.2l4.6,4.4c0.2,0.2,0.2,0.3,0.2,0.5s-0.1,0.4-0.2,0.5c-0.1,0.2-0.3,0.2-0.5,0.2s-0.4-0.1-0.5-0.2
				L431.1,231 M430.2,234.4c-0.1-0.1-0.2-0.3-0.2-0.5s0.1-0.4,0.2-0.5s0.3-0.2,0.5-0.2s0.4,0.1,0.5,0.2l4.3,4.1
				c0.2,0.1,0.2,0.3,0.2,0.5s-0.1,0.4-0.2,0.5c-0.1,0.2-0.3,0.2-0.5,0.2s-0.4-0.1-0.5-0.2L430.2,234.4 M427.2,239.4
				c-0.6-0.6-1.4-0.9-2.3-0.9s-1.6,0.3-2.3,0.9c-0.1,0.1-0.2,0.2-0.3,0.4l0,0l0,0l0,0c-0.4,0.5-0.5,1.1-0.5,1.8c0,0.8,0.2,1.4,0.7,2
				l0,0v0.1l0.1,0.1c0.6,0.6,1.4,0.9,2.3,0.9s1.6-0.3,2.3-0.9c0.6-0.6,0.9-1.4,0.9-2.3C428.1,240.8,427.8,240,427.2,239.4
				 M414.1,244.3c-1.3,0-2.4,0.5-3.3,1.4l0,0c-0.9,0.9-1.4,2-1.4,3.3s0.4,2.4,1.4,3.3c0.9,0.9,2,1.4,3.3,1.4s2.4-0.5,3.3-1.4l0,0
				c0.9-0.9,1.4-2,1.4-3.3c0-1-0.3-2-0.9-2.8l-0.1-0.1c-0.1-0.1-0.3-0.3-0.4-0.4C416.5,244.8,415.4,244.3,414.1,244.3 M405.3,240.1
				C405.3,240.1,405.2,240,405.3,240.1c-0.1-0.1-0.2-0.2-0.2-0.2c-0.4-0.3-0.9-0.5-1.5-0.5c-0.7,0-1.3,0.2-1.7,0.7
				c-0.5,0.5-0.7,1.1-0.7,1.7c0,0.7,0.2,1.3,0.7,1.7c0.5,0.5,1.1,0.7,1.7,0.7c0.7,0,1.3-0.2,1.7-0.7c0.5-0.5,0.7-1.1,0.7-1.7
				S405.8,240.6,405.3,240.1 M416.4,222.1c-1.3-1.2-2.8-1.9-4.5-1.9c-0.8,0-1.5,0.1-2.2,0.4c0,0-0.1,0-0.2,0
				c-0.8,0.3-1.5,0.8-2.2,1.5c-1.2,1.2-1.8,2.6-1.8,4.2l0,0v0.1c0,0.1,0,0.1,0,0.2c0,1.8,0.6,3.3,1.9,4.5c0.4,0.4,0.8,0.7,1.3,1h0.1
				c0.9,0.5,2,0.8,3.2,0.8s2.3-0.3,3.2-0.9h0.1c0.4-0.3,0.8-0.6,1.2-1c1.2-1.3,1.9-2.8,1.9-4.5c0-0.1,0-0.2,0-0.3l0,0
				C418.2,224.8,417.6,223.3,416.4,222.1 M422.9,223.4L422.9,223.4c1.5-1.5,2.3-3.3,2.3-5.4s-0.7-3.9-2.2-5.4s-3.3-2.2-5.4-2.2
				s-3.9,0.7-5.4,2.2l0,0c-1.5,1.5-2.2,3.3-2.2,5.4c0,0.3,0,0.6,0,1c0.6-0.1,1.2-0.2,1.9-0.2c2.2,0,4,0.8,5.6,2.3
				c1.2,1.2,2,2.7,2.2,4.3C420.9,225,422,224.4,422.9,223.4z"/>
			<path class="st6" d="M430,233.9c0,0.2,0.1,0.4,0.2,0.5l4.3,4.1c0.2,0.1,0.3,0.2,0.5,0.2s0.4-0.1,0.5-0.2s0.2-0.3,0.2-0.5
				s-0.1-0.4-0.2-0.5l-4.3-4.1c-0.1-0.1-0.3-0.2-0.5-0.2s-0.4,0.1-0.5,0.2S430,233.8,430,233.9 M430.9,230.5c0,0.2,0.1,0.4,0.2,0.5
				l4.6,4.4c0.2,0.2,0.3,0.2,0.5,0.2s0.4-0.1,0.5-0.2c0.2-0.1,0.2-0.3,0.2-0.5s-0.1-0.4-0.2-0.5l-4.6-4.4c-0.1-0.1-0.3-0.2-0.5-0.2
				s-0.4,0.1-0.5,0.2C430.9,230.1,430.9,230.3,430.9,230.5 M441.9,222.5c0-0.2-0.1-0.4-0.2-0.5l-18-20c-0.1-0.2-0.3-0.2-0.5-0.2
				s-0.4,0.1-0.5,0.2c-0.2,0.1-0.2,0.3-0.2,0.5s0,0.4,0.2,0.5l18,20c0.1,0.2,0.3,0.2,0.5,0.2s0.4-0.1,0.5-0.2
				S441.9,222.8,441.9,222.5 M425.5,200.2c0,0.2,0,0.4,0.2,0.5l13.8,15.3c0.1,0.2,0.3,0.2,0.5,0.2s0.4-0.1,0.5-0.2
				c0.2-0.1,0.2-0.3,0.2-0.5s-0.1-0.4-0.2-0.5l-13.8-15.3c-0.1-0.2-0.3-0.2-0.5-0.2s-0.4,0-0.5,0.2
				C425.6,199.9,425.5,200,425.5,200.2 M424,224.5c1.8-1.8,2.7-3.9,2.7-6.4s-0.9-4.7-2.7-6.4c-1.8-1.8-3.9-2.7-6.4-2.7
				s-4.7,0.9-6.4,2.6l0,0c-1.8,1.8-2.6,3.9-2.6,6.4c0,0.5,0,1,0.1,1.5c-0.8,0.4-1.5,0.9-2.2,1.6c-1.3,1.3-2.1,2.8-2.3,4.6l-11.3,2.4
				c-0.2,0.1-0.4,0.2-0.5,0.3c-0.1,0.2-0.2,0.4-0.1,0.6s0.2,0.4,0.3,0.5c0.2,0.1,0.4,0.1,0.6,0.1l10.9-2.3c0.1,1.9,0.9,3.6,2.3,5
				c0.3,0.3,0.7,0.7,1.1,0.9l-2.2,5.2c-0.5-0.3-1.1-0.4-1.7-0.4c-1.1,0-2,0.4-2.8,1.2c-0.8,0.8-1.2,1.7-1.2,2.8c0,1.1,0.4,2,1.2,2.8
				c0.8,0.8,1.7,1.2,2.8,1.2c1.1,0,2-0.4,2.8-1.2c0.8-0.8,1.2-1.7,1.2-2.8c0-1-0.3-1.9-1-2.6l2.2-5.4c1,0.4,2,0.6,3.2,0.6
				c1.3,0,2.4-0.3,3.5-0.8l5.4,5.7c-0.4,0.7-0.5,1.4-0.5,2.2c0,0.8,0.2,1.5,0.5,2.2l-2.2,1c-0.1-0.1-0.1-0.1-0.2-0.2
				c-1.2-1.2-2.6-1.8-4.3-1.8c-1.7,0-3.1,0.6-4.4,1.8l0,0c-1.2,1.2-1.8,2.7-1.8,4.4c0,1.7,0.6,3.1,1.8,4.3c1.2,1.2,2.7,1.8,4.4,1.8
				c1.7,0,3.1-0.6,4.3-1.8l0,0c1.2-1.2,1.8-2.6,1.8-4.3c0-1.1-0.2-2.1-0.7-2.9l2.2-1c0.9,0.9,2,1.3,3.2,1.3c1.3,0,2.4-0.5,3.3-1.4
				s1.4-2,1.4-3.3s-0.5-2.4-1.4-3.3s-2-1.4-3.3-1.4c-1.2,0-2.3,0.4-3.2,1.3l-5.1-5.4c0.3-0.2,0.6-0.4,0.8-0.7
				c1.5-1.5,2.3-3.3,2.3-5.3C421.4,226.5,422.8,225.8,424,224.5L424,224.5 M422.9,223.4L422.9,223.4c-1,1-2,1.6-3.3,2
				c-0.2-1.6-1-3-2.2-4.3c-1.5-1.5-3.4-2.3-5.6-2.3c-0.7,0-1.3,0.1-1.9,0.2c0-0.3,0-0.6,0-1c0-2.1,0.7-3.9,2.2-5.4l0,0
				c1.5-1.5,3.3-2.2,5.4-2.2s3.9,0.7,5.4,2.2s2.2,3.3,2.2,5.4C425.2,220.1,424.4,221.9,422.9,223.4 M411.9,220.3
				c1.8,0,3.3,0.6,4.5,1.9c1.2,1.2,1.8,2.6,1.9,4.2l0,0c0,0.1,0,0.2,0,0.3c0,1.8-0.6,3.3-1.9,4.5c-0.4,0.4-0.8,0.7-1.2,1h-0.1
				c-1,0.6-2,0.9-3.2,0.9s-2.2-0.3-3.2-0.8c0,0,0,0-0.1,0c-0.5-0.3-0.9-0.6-1.3-1c-1.2-1.3-1.9-2.8-1.9-4.5c0-0.1,0-0.1,0-0.2v-0.1
				l0,0c0.1-1.6,0.7-3,1.8-4.2c0.7-0.6,1.4-1.1,2.2-1.5c0.1,0,0.1,0,0.2,0C410.4,220.4,411.1,220.3,411.9,220.3 M405.2,240
				C405.2,240,405.3,240.1,405.2,240c0.6,0.6,0.8,1.2,0.8,1.8c0,0.7-0.2,1.3-0.7,1.7c-0.5,0.5-1.1,0.7-1.7,0.7
				c-0.7,0-1.3-0.2-1.7-0.7c-0.5-0.5-0.7-1.1-0.7-1.7c0-0.7,0.2-1.3,0.7-1.7c0.5-0.5,1.1-0.7,1.7-0.7s1.1,0.2,1.5,0.5
				C405.1,240,405.1,240,405.2,240 M410.8,245.8c0.9-0.9,2-1.4,3.3-1.4s2.4,0.4,3.3,1.4c0.1,0.1,0.3,0.3,0.4,0.4
				c0,0.1,0.1,0.1,0.1,0.1c0.6,0.8,0.9,1.7,0.9,2.8c0,1.3-0.5,2.4-1.4,3.3l0,0c-0.9,0.9-2,1.4-3.3,1.4s-2.4-0.5-3.3-1.4
				s-1.4-2-1.4-3.3S409.9,246.6,410.8,245.8L410.8,245.8 M424.9,238.4c0.9,0,1.6,0.3,2.3,0.9c0.6,0.6,0.9,1.4,0.9,2.3
				s-0.3,1.6-0.9,2.3c-0.6,0.6-1.4,0.9-2.3,0.9s-1.6-0.3-2.3-0.9c0-0.1-0.1-0.1-0.1-0.1v-0.1l0,0c-0.5-0.6-0.7-1.3-0.7-2
				s0.2-1.2,0.5-1.8l0,0l0,0l0,0c0.1-0.1,0.2-0.2,0.3-0.4C423.3,238.8,424,238.4,424.9,238.4z"/>
		</g>
	</g>
</g>
<g transform="matrix( 1, 0, 0, 1, 0,0) ">
	<g>
		<g id="Layer1_1_MEMBER_5_MEMBER_0_MEMBER_3_FILL">
			<path class="st2" d="M425.8,194.8c0.8,0.6,1.7,0.9,2.8,0.8l14.4-1.1c3.6-1.3,6.5-3.7,8.9-7.4c0.5-0.8,0.9-1.7,1.2-2.6l-25.2,1.8
				c-1,0.1-1.9,0.5-2.7,1.3c-0.7,0.7-1,1.6-0.9,2.6l0.1,2.1C424.6,193.3,425,194.2,425.8,194.8z"/>
		</g>
	</g>
</g>
<g transform="matrix( 1, 0, 0, 1, 0,0) ">
	<g>
		<g id="Layer1_1_MEMBER_5_MEMBER_1_FILL">
			<path class="st1" d="M472.9,183.3c-1.9,0-2.8,0.9-2.8,2.8l-0.2,24.9c0,1.9,0.9,2.8,2.8,2.8l24.2,0.2v-30.5L472.9,183.3z"/>
		</g>
	</g>
</g>
<g transform="matrix( 1, 0, 0, 1, 0,0) ">
	<g>
		<g id="Layer1_1_MEMBER_5_MEMBER_2_FILL">
			<path class="st4" d="M476.2,191.6c0.4,0.4,0.9,0.5,1.5,0.6c0.6,0,1.1-0.2,1.5-0.6c0.5-0.4,0.7-1,0.7-1.5c0-0.6-0.2-1.1-0.6-1.5
				s-0.9-0.6-1.5-0.6s-1.1,0.2-1.5,0.6s-0.7,0.9-0.7,1.5S475.8,191.2,476.2,191.6z"/>
		</g>
	</g>
</g>
<g transform="matrix( 1, 0, 0, 1, 0,0) ">
	<g>
		<g id="Layer1_1_MEMBER_6_MEMBER_0_MEMBER_0_FILL">
			<path class="st5" d="M390.6,170.8l-36.5,22.7l5.9,19.9l31.6-3.3l2.1-23.1l16.7,5.5l3.2,13.6c0.3,1.2,0.9,2.1,1.9,2.8
				c1,0.7,2.2,0.8,3.4,0.5c1.2-0.3,2.1-0.9,2.8-2c0.7-1,0.8-2.2,0.6-3.3l-5.9-25c-2.7-0.9-5.4-1.7-8.2-2.6c0,0.1,0,0.1-0.1,0.1v-0.2
				L390.6,170.8z"/>
		</g>
	</g>
</g>
<g transform="matrix( 1, 0, 0, 1, 0,0) ">
	<g>
		<g id="Layer1_1_MEMBER_6_MEMBER_0_MEMBER_1_FILL">
			<path class="st13" d="M393.5,181.1c-0.6,0.4-1.3,0.6-2,0.6L415,218c0.6,0.9,1.4,1.5,2.6,1.7c1,0.3,2.1,0.1,3-0.6h0.1l0,0
				l-2.7-4.2l2.7,4.2c0.9-0.6,1.4-1.4,1.6-2.5s0-2.2-0.6-3.1l-23.8-36.7l-0.2,0.2c-0.2,1-0.7,1.8-1.6,2.3L393.5,181.1 M387,159.9
				c-0.6-0.9-1.4-1.5-2.5-1.7s-2.2,0-3.1,0.6c-0.9,0.7-1.5,1.5-1.8,2.6c-0.2,1.1,0,2.1,0.5,3.1l7.9,12.2c0.3-0.7,0.8-1.2,1.4-1.7
				l2.8-1.8c0.8-0.6,1.7-0.7,2.8-0.5l0.2-0.2L387,159.9z"/>
			<path class="st2" d="M395.2,172.5l-0.2,0.2c0.1,0,0.2,0,0.3,0.1L395.2,172.5 M398.1,176.8l-0.1-0.1c-0.1,0-0.1,0.2-0.1,0.3
				L398.1,176.8z"/>
			<path class="st4" d="M392.3,173.2l-2.8,1.8c-0.6,0.4-1.1,1-1.4,1.7c-0.1,0.2-0.1,0.4-0.2,0.7c-0.2,1,0,1.9,0.6,2.8
				c0.5,0.9,1.3,1.4,2.3,1.5c0.2,0.1,0.5,0.1,0.8,0.2c0.7,0,1.4-0.2,2-0.6l2.8-1.7c0.9-0.6,1.4-1.4,1.6-2.3c0-0.2,0-0.3,0.1-0.3
				c0.1-0.9-0.1-1.7-0.6-2.4c-0.5-0.8-1.2-1.3-2-1.5c-0.1-0.1-0.3-0.1-0.3-0.1C394,172.5,393.1,172.6,392.3,173.2z"/>
		</g>
	</g>
	<g>
		<path id="Layer1_1_MEMBER_6_MEMBER_0_MEMBER_1_1_STROKES" class="st14" d="M423.4,223.2l-2.6-4.1l-2.7-4.2"/>
	</g>
</g>
<g transform="matrix( 1, 0, 0, 1, 0,0) ">
	<g>
		<g id="Layer1_1_MEMBER_6_MEMBER_0_MEMBER_2_FILL">
			<path class="st5" d="M410.1,201.1c-1.1-1-2.4-1.4-3.9-1.3l-31.2,2.5c-1.5,0.1-2.7,0.7-3.6,1.9c-1,1.1-1.4,2.5-1.3,4l0.1,1.6
				c0.1,1.5,0.7,2.7,1.9,3.7c1.1,1,2.4,1.4,3.9,1.3l31.1-2.5c1.5-0.1,2.8-0.7,3.8-1.9c0.9-1.1,1.3-2.5,1.2-4l-0.1-1.6
				C411.9,203.3,411.2,202.1,410.1,201.1z"/>
		</g>
	</g>
</g>
<g transform="matrix( 1, 0, 0, 1, 0,0) ">
	<g>
		<g id="Layer1_1_MEMBER_6_MEMBER_1_FILL">
			<path class="st9" d="M366.4,187.9c0-1.8-1-2.8-2.8-2.8l-29.9,0.1v30.4l30-0.1c1.9,0,2.8-0.9,2.8-2.8L366.4,187.9z"/>
		</g>
	</g>
</g>
<g transform="matrix( 1, 0, 0, 1, 0,0) ">
	<g>
		<g id="Layer1_1_MEMBER_6_MEMBER_2_FILL">
			<path class="st4" d="M357.2,190.4c-0.4,0.4-0.6,1-0.6,1.5c0,0.6,0.3,1,0.7,1.5c0.4,0.4,0.8,0.6,1.5,0.6c0.6,0,1.1-0.2,1.5-0.6
				s0.6-1,0.6-1.5c0-0.6-0.2-1.1-0.6-1.5s-1-0.6-1.5-0.6C358.2,189.8,357.7,189.9,357.2,190.4z"/>
		</g>
	</g>
</g>
<g transform="matrix( 1, 0, 0, 1, 0,0) ">
	<g>
		<g id="Layer1_1_MEMBER_7_MEMBER_0_FILL">
			<path class="st7" d="M559.2,215.3h3.6v-0.1L559.2,215.3 M562.8,200.4v-1.8l-14,0.1c-1.3,0-2.4-0.2-3.3-0.8
				c-0.9-0.5-1.4-1.2-1.4-1.9v-1c0-0.8,0.5-1.5,1.4-2c0.9-0.6,2-0.8,3.3-0.8l14-0.1v-1.8l-9.8,0.1c-1,0-1.8-0.2-2.4-0.8
				c-0.7-0.5-1-1.2-1-2v-1c0-0.8,0.3-1.4,1-2c0.6-0.5,1.2-0.7,2-0.8H551c0.3-1.3,0.6-2.5,0.8-3.7c0.5-3.1,0.9-6.1,1.1-9
				c0.2-2.9,0-5.6-0.4-7.9s-1.4-3.5-2.9-3.6c-1.6-0.1-2.7-0.2-3.4-0.2c-0.4,0.4-0.7,0.9-0.7,1.5c-0.2,2.8-0.5,5.6-0.8,8.4
				c-0.2,2-0.8,3.9-1.8,5.6c-0.8,1.4-1.9,2.4-3.3,3.1l1.3-0.5l-11.5,9.8h-6.5c-1.9,0-2.8,0.9-2.8,2.7l-0.2,17.8
				c0,1.9,0.9,2.8,2.8,2.8h6.6v1.5c0,1.9,0.9,2.8,2.8,2.8l23.5,0.2c-0.6-0.1-1.1-0.3-1.5-0.7c-0.5-0.5-0.8-1.2-0.8-2v-1
				c0-0.8,0.3-1.4,0.8-1.9c0.5-0.6,1.2-0.8,1.9-0.8h7.1V207l-12.7,0.1c-1.2,0-2.2-0.2-3-0.8c-0.8-0.5-1.3-1.2-1.3-2v-1
				c0-0.8,0.4-1.4,1.2-2c0.8-0.5,1.8-0.8,3-0.8L562.8,200.4z"/>
			<path class="st2" d="M563,208.8L563,208.8h-7.2c-0.8,0-1.4,0.3-1.9,0.8s-0.8,1.2-0.8,1.9v1c0,0.8,0.3,1.4,0.8,2
				c0.4,0.4,0.9,0.6,1.5,0.7c0.2,0,0.3,0,0.5,0h1.6c0.2,0,0.4,0,0.5,0h1.2h3.6h0.1C565.2,213.4,565.2,211.2,563,208.8 M563,192.1
				L563,192.1l-14.1,0.1c-1.3,0-2.4,0.3-3.3,0.8c-0.9,0.5-1.4,1.2-1.4,2v1c0,0.8,0.5,1.4,1.4,1.9s2,0.8,3.3,0.8l14-0.1h0.1
				C564.9,197.1,564.9,194.9,563,192.1 M563,200.4L563,200.4l-12.9,0.1c-1.2,0-2.2,0.3-3,0.8c-0.8,0.6-1.2,1.2-1.2,2v1
				c0,0.8,0.4,1.4,1.3,2c0.9,0.5,1.9,0.8,3,0.8l12.7-0.1h0.1C565.2,204.4,565.2,202.3,563,200.4 M563,190.3c2.2-2.8,2.2-5,0-6.5h-10
				c-0.1,0-0.3,0-0.4,0c-0.8,0.1-1.4,0.3-2,0.8c-0.7,0.5-1,1.2-1,2v1c0,0.8,0.3,1.4,1,2c0.7,0.5,1.5,0.8,2.4,0.8l9.8-0.1L563,190.3
				L563,190.3z"/>
		</g>
	</g>
</g>
<g transform="matrix( 1, 0, 0, 1, 0,0) ">
	<g>
		<g id="Layer1_1_MEMBER_7_MEMBER_1_FILL">
			<path class="st8" d="M526.9,186.6c0-1.9-0.9-2.8-2.8-2.8l-25.3-0.2V214l25,0.2c1.9,0,2.8-0.9,2.8-2.7L526.9,186.6z"/>
		</g>
	</g>
</g>
<g transform="matrix( 1, 0, 0, 1, 0,0) ">
	<g>
		<g id="Layer1_1_MEMBER_7_MEMBER_2_FILL">
			<path class="st4" d="M519.3,188.4c-0.6,0-1.1,0.2-1.5,0.6s-0.6,1-0.7,1.5c0,0.6,0.2,1.1,0.7,1.5c0.4,0.4,0.9,0.6,1.5,0.6
				s1.1-0.2,1.5-0.6s0.6-1,0.7-1.5c0-0.6-0.2-1.1-0.6-1.5C520.4,188.6,519.9,188.4,519.3,188.4z"/>
		</g>
	</g>
</g>
<g transform="matrix( 1, 0, 0, 1, 0,0) ">
	<g>
		<g id="Layer1_1_MEMBER_8_FILL_1_">
			<path class="st2" d="M147.8,189.1c0,1.8,0.9,2.7,2.8,2.8l23.7,1.7c1.9,0.1,2.8-0.7,2.9-2.5v-4c0-1.7-0.9-2.7-2.7-2.8l-23.7-1.7
				c-1.9-0.1-2.8,0.7-2.9,2.4L147.8,189.1z"/>
		</g>
	</g>
</g>
</svg>
