<?xml version="1.0" encoding="utf-8"?>
<!-- Generator: Adobe Illustrator 19.2.1, SVG Export Plug-In . SVG Version: 6.00 Build 0)  -->
<!DOCTYPE svg PUBLIC "-//W3C//DTD SVG 1.1//EN" "http://www.w3.org/Graphics/SVG/1.1/DTD/svg11.dtd">
<svg version="1.1" id="Layer_1" xmlns="http://www.w3.org/2000/svg" xmlns:xlink="http://www.w3.org/1999/xlink" x="0px" y="0px"
	 viewBox="0 0 595.3 390" style="enable-background:new 0 0 595.3 390;" xml:space="preserve">
<style type="text/css">
	.st0{fill:#D3D8B7;}
	.st1{fill:#FDC029;}
	.st2{fill:#FFE4A6;}
	.st3{fill:#FFDB85;}
	.st4{fill:#E6E6E5;}
	.st5{fill:#465AA6;}
	.st6{fill:#B5B5B5;}
	.st7{fill:#4F4F4F;}
	.st8{fill:#383660;}
	.st9{fill:#F7AD92;}
	.st10{fill:#475AA6;}
	.st11{fill:#DB846E;}
	.st12{fill:none;stroke:#698FC7;stroke-width:3;stroke-miterlimit:10;}
	.st13{fill:#698FC7;}
	.st14{fill:#8C643E;}
	.st15{fill:#744E2A;}
	.st16{fill:#040505;}
	.st17{fill:#D3D4D5;}
	.st18{fill:#FFFFFF;}
	.st19{fill:#BA7C4F;}
	.st20{fill:#DC453A;}
	.st21{fill:#FFDA83;}
	.st22{fill:#9C6A44;}
	.st23{fill:none;stroke:#FFFFFF;stroke-width:3;stroke-linecap:round;stroke-linejoin:round;}
	.st24{fill:#BCBCBC;}
</style>
<g transform="matrix( 1, 0, 0, 1, 0,0) ">
	<g>
		<g id="Layer1_0_FILL_1_">
			<path class="st0" d="M444.3,81.7c0-0.9-0.4-1.6-1.3-2.3c-0.9-0.6-1.9-0.9-3.1-0.9h-41c0.7-1.6,1-3.4,1-5.2v-0.1
				c0-5-2.4-9.2-7.3-12.7c-1.5-1.1-3.2-2-4.9-2.8c-2.2-1-4.5-1.6-7-2H213.8c-16.5,1.6-34.5,6-53.8,13.3s-38.8,21-58.3,41.1
				c-19.6,20.1-29.4,50.6-29.5,91.2C72.1,242,86.8,276,116.3,303.4c29.5,27.4,71.1,41.1,124.8,41.1c7.3,0,14.6-0.3,21.7-0.8h111
				c2.9,0,5.4-0.7,7.4-2.2c2.1-1.5,3.1-3.3,3.1-5.4s-1-3.9-3.1-5.4c-2-1.5-4.5-2.2-7.4-2.2h-42.7c0.7-0.3,1.4-0.5,2.1-0.8
				c0.4,0,0.8,0,1.2,0h118.8c4.6,0,8.5-1.2,11.8-3.5c3.3-2.4,4.9-5.2,4.9-8.5s-1.6-6.1-4.9-8.5s-7.2-3.5-11.8-3.5h-66.8
				c1.5-0.1,2.9-0.5,4-1.3c1.2-0.9,1.8-1.9,1.8-3.1c0-1.1-0.4-2-1.3-2.8h40.8c1.4,0,2.5-0.4,3.5-1.1c0.2-0.2,0.4-0.3,0.7-0.5h15.8
				c1.7,0,3.1-0.4,4.3-1.3c1.2-0.9,1.8-1.9,1.8-3.1c0-1.2-0.6-2.3-1.8-3.1c-1.2-0.9-2.6-1.3-4.3-1.3h-54.2c0.3-0.3,0.5-0.5,0.8-0.8
				H470c4.3,0,7.9-1.1,11-3.3c3-2.2,4.6-4.8,4.6-7.9c0-3.1-1.5-5.7-4.6-7.9c-3-2.2-6.7-3.3-11-3.3h-6.1c1.8-1.7,2.7-3.7,2.7-6
				c0-2.8-1.4-5.1-4.1-7.1s-6-2.9-9.8-2.9h-27.2c1.1-2.4,2.1-4.8,3-7.2h65.3c2.3,0,4.3-0.6,5.9-1.8c1.6-1.2,2.4-2.6,2.4-4.2
				c0-1.7-0.8-3.1-2.4-4.2c-1.6-1.2-3.6-1.8-5.9-1.8h-61.6c0.5-2.1,1-4.2,1.4-6.4h11.9c2.5,0,4.6-0.6,6.3-1.9
				c1.7-1.3,2.6-2.8,2.6-4.5c0-0.3,0-0.5-0.1-0.8h66.2c1.4,0,2.5-0.4,3.5-1.1s1.5-1.5,1.5-2.5s-0.5-1.8-1.5-2.6c-1-0.7-2.1-1-3.5-1
				h-85.1c0.1-2.4,0.2-4.8,0.2-7.2v-0.1c0.7,0.1,1.4,0.1,2.2,0.1h83.3c4.3,0,8-1.1,11-3.3c3-2.2,4.5-4.8,4.5-7.9s-1.5-5.7-4.5-7.9
				c-3-2.2-6.7-3.3-11-3.3h-32.2c0-1.8-0.9-3.3-2.6-4.5s-3.8-1.9-6.3-1.9h-47.7c-0.1,0-0.1,0-0.2,0c0-0.1-0.1-0.3-0.1-0.4
				c0.3-0.2,0.7-0.4,1-0.7c1.7-1.2,2.6-2.7,2.6-4.5l0,0c0-1.2-0.4-2.2-1.1-3.2h42.2c5.2,0,9.6-1.3,13.3-4c3.7-2.6,5.6-5.9,5.6-9.6
				s-1.9-7-5.6-9.7c-3.7-2.6-8.1-4-13.3-4h-48.1c0.5-0.3,0.9-0.6,1.3-0.9c3-2.2,4.6-4.8,4.6-7.9s-1.5-5.7-4.6-7.9l-0.1-0.1h51.9
				c2.3,0,4.3-0.6,5.9-1.8c1.6-1.2,2.4-2.6,2.4-4.2c0-1.7-0.8-3.1-2.4-4.2c-1.6-1.2-3.6-1.8-5.9-1.8H462c3-0.1,5.6-0.9,7.7-2.5
				c2.3-1.6,3.4-3.6,3.4-5.9s-1.1-4.3-3.4-6c-2.3-1.6-5-2.4-8.2-2.4h-74c1.8-0.8,3.5-1.7,5-2.9c0.5-0.4,1-0.7,1.4-1.1h45.9
				c1.2,0,2.2-0.3,3.1-1C443.9,83.3,444.3,82.6,444.3,81.7z"/>
		</g>
	</g>
</g>
<g transform="matrix( 1, 0, 0, 1, 0,0) ">
	<g>
		<g id="Layer1_1_FILL_1_">
			<path class="st1" d="M173.7,358.3l-0.2-0.3c-4.4-3.6-9.4-6.1-14.8-7.5c-3.9-1-7.8-1.1-11.6-0.1c-0.6,0.2-1.2,0.4-1.7,0.6
				c-2.2,1-3.6,2.7-4.4,5c0.1,0.5,0.3,0.9,0.5,1.4c1.1,1.8,2.6,3,4.6,3.6c2.6,0.8,5.3,1.5,8.2,1.9c2.7,0.4,4.6,1.6,5.8,3.6
				L173.7,358.3 M227.7,355.4l-0.7-1.1c-1.3-0.5-2.5-0.8-3.7-1c-0.7-0.1-1.3-0.2-2-0.2c-2.9-0.2-5.6,0.2-8.1,1.4l-1,0.6
				c-2.1,1.4-3.1,3.7-3,6.9c0,2.7-0.5,4.5-1.6,5.5L227.7,355.4z"/>
			<path class="st2" d="M178.8,333.5c-1.8-0.6-3.6-1.2-5.3-1.9c-5.6-2.1-11.1-4.5-16.4-7.3c-0.7,0.5-1.5,1-2.2,1.5
				c-8.1,4.9-16.3,9.6-24.6,14.1c-4.2,2.2-8.6,4.2-13.1,6c-4.4,1.7-8.8,3.3-13.3,4.8c5.7,2.9,11.5,5.4,17.5,7.7
				c9.7,3.6,19.8,6.2,30.2,7.7c2.9,0.5,5.7,0.7,8.6,0.9v-0.2c-1.2-2-3.1-3.2-5.8-3.6c-2.8-0.4-5.6-1.1-8.2-1.9
				c-2-0.6-3.6-1.8-4.6-3.6c-0.2-0.5-0.4-0.9-0.5-1.4c0.8-2.4,2.2-4,4.4-5l1.6-0.8L178.8,333.5 M268.9,331.5
				c-2.2-0.6-4.4-1.4-6.6-2.2c-2.9-1.1-5.9-1.7-8.9-1.8c-1.2,0.2-2.4,0.4-3.6,0.8c-0.8,0.1-1.6,0.4-2.2,1c-0.6,0.4-1.2,0.8-1.8,1.3
				c-4,3-8,6-12.1,8.9l-20.7,15c2.6-1.2,5.3-1.6,8.1-1.4c0.7,0.1,1.4,0.2,2,0.2c1.2,0.2,2.5,0.5,3.7,1c0.5,0.2,1,0.4,1.6,0.6
				c3.9,1.4,8.8,2.8,14.7,4.4c6.7,1.8,15,3.5,24.8,5c9.8,1.5,19.5,1,29.2-1.7c9.6-2.7,17-5.6,22-8.5c2.9-1.7,5.2-3,6.9-3.9
				c-2-4.4-3.6-8.9-4.9-13.5c-0.2-0.9-0.4-1.7-0.5-2.6c-1.3,0.4-2.6,0.8-3.9,1.2c-1.4,0.4-2.8,0.8-4.2,1c-5.3,1-10.5,1.3-15.8,0.8
				c-1.3-0.1-2.6-0.3-3.8-0.5c-1.7-0.3-3.4-0.5-4.9-0.8c-1.4-0.3-2.9-0.5-4.3-0.8C278.8,334.1,273.8,332.9,268.9,331.5z"/>
			<path class="st3" d="M233.7,339.5c-5.1-0.8-9.8-2.6-14.1-5.5c-2.6-1.8-5.3-3.6-7.9-5.2c-4.2-2.6-8.8-3.9-13.7-3.9
				c-1.2,0.1-2.4,0.3-3.4,0.7c-2.8,1.1-5.6,2.5-8.3,3.9l-7.5,4L147,350.2l0.1,0.2c3.8-1,7.7-0.9,11.6,0.1c5.5,1.4,10.4,3.9,14.8,7.5
				c0.1,0.1,0.1,0.2,0.2,0.2c1.3,1,2.7,2,4.1,2.9c8.4,5.3,17.5,7.6,27.1,7c0.6,0,1.1-0.1,1.5-0.2c0.4-0.2,0.7-0.4,1-0.6
				c1.1-1,1.6-2.8,1.6-5.5c0-3.1,1-5.4,3-6.9c0.2-0.1,0.4-0.3,0.6-0.4l0.3-0.2L233.7,339.5z"/>
		</g>
	</g>
</g>
<g transform="matrix( -0.643524169921875, 0.15484619140625, 0.15484619140625, 0.643524169921875, 983.9,104.65) ">
	<g>
		<g id="Layer1_2_MEMBER_0_FILL">
			<path class="st4" d="M1145.2-136.2c0-0.9-0.3-1.6-0.9-2.2c-0.6-0.6-1.4-1-2.3-1s-1.7,0.3-2.3,1c-0.6,0.6-0.9,1.4-0.9,2.2
				c0,0.9,0.3,1.7,0.9,2.3s1.4,1,2.3,1s1.6-0.3,2.3-1C1144.9-134.5,1145.2-135.3,1145.2-136.2z"/>
		</g>
	</g>
</g>
<g transform="matrix( 0.3474884033203125, 0.5631103515625, 0.5631103515625, -0.3474884033203125, 402.1,453.6) ">
	<g>
		<g id="Layer1_2_MEMBER_1_MEMBER_0_FILL">
			<path class="st5" d="M-351.8,84.3c-2.9,0-5.3,1-7.4,3c-2.1,2-3.1,4.5-3.1,7.4l0,74.1c0,2.9,1,5.4,3.1,7.4c2,2,4.5,3,7.4,3
				c2.9,0,5.4-1,7.4-3s3-4.5,3-7.4l0-74.1c0-2.9-1-5.4-3-7.4S-348.9,84.3-351.8,84.3z"/>
		</g>
	</g>
</g>
<g transform="matrix( 0.5098876953125, 0.4216156005859375, 0.4216156005859375, -0.5098876953125, 437.05,619) ">
	<g>
		<g id="Layer1_2_MEMBER_1_MEMBER_1_FILL">
			<path class="st6" d="M-491.9,431.9c-0.5,0.4-0.8,0.9-0.8,1.6v12.7l63.1,0v-1.3c0-1.1-0.3-2.2-1-3.1c-0.7-0.9-1.6-1.5-2.8-1.8
				l-33.6-8.8c-1.5-0.4-3.1-0.4-4.7,0c-6.9,1.8-13.1,1.9-18.5,0.3C-490.8,431.4-491.4,431.5-491.9,431.9z"/>
		</g>
	</g>
</g>
<g transform="matrix( 0.5098876953125, 0.4216156005859375, 0.4216156005859375, -0.5098876953125, 437.05,619) ">
	<g>
		<g id="Layer1_2_MEMBER_1_MEMBER_2_FILL">
			<path class="st7" d="M-491.5,449.1c0.7,0.7,1.7,1.1,2.7,1.1l57.3,0c0.5,0,1-0.2,1.4-0.6s0.6-0.9,0.6-1.4v-2l-63.1,0v0.1
				C-492.7,447.4-492.3,448.3-491.5,449.1z"/>
		</g>
	</g>
</g>
<g transform="matrix( 1, 0, 0, 1, 48.85,-44.6) ">
	<g>
		<g id="Layer1_2_MEMBER_2_FILL">
			<path class="st8" d="M325.8,251.1l-9.3-15.2l-52.8,32.3L217.3,226c-1.6-1.4-3.5-2.1-5.7-2.1c-2.1,0.1-3.9,1-5.4,2.6l-1.4,1.6
				c-1.4,1.6-2.1,3.4-2,5.6s0.9,4,2.6,5.5l54.5,49.6c1.4,1.1,2.9,1.1,4.3,0L325.8,251.1z"/>
		</g>
	</g>
</g>
<g transform="matrix( -0.6347198486328125, -0.187652587890625, -0.187652587890625, 0.6347198486328125, 1119.65,260) ">
	<g>
		<g id="Layer1_2_MEMBER_3_FILL">
			<path class="st5" d="M1314.9,433.8c-2-2-4.5-3-7.4-3c-2.9,0-5.3,1-7.4,3s-3.1,4.5-3.1,7.4v74.1c0,2.9,1,5.4,3.1,7.4
				c2,2,4.5,3,7.4,3s5.4-1,7.4-3s3-4.5,3-7.4v-74.1C1317.9,438.3,1316.9,435.9,1314.9,433.8z"/>
		</g>
	</g>
</g>
<g transform="matrix( -0.6347198486328125, -0.187652587890625, -0.187652587890625, 0.6347198486328125, 1119.65,260) ">
	<g>
		<g id="Layer1_2_MEMBER_4_FILL">
			<path class="st8" d="M1317.6,273.3c-2.3-2.3-5.1-3.4-8.4-3.4h-3.3c-3.3,0-6.1,1.1-8.4,3.4c-2.3,2.3-3.4,5.1-3.4,8.4l0,224.8l27,0
				l0-224.8C1321.1,278.4,1319.9,275.6,1317.6,273.3z"/>
		</g>
	</g>
</g>
<g transform="matrix( -0.6347198486328125, -0.187652587890625, -0.187652587890625, 0.6347198486328125, 1119.65,260) ">
	<g>
		<g id="Layer1_2_MEMBER_5_FILL">
			<path class="st6" d="M1295.9,512.5c-0.5,0.4-0.8,0.9-0.8,1.6v12.7l63.1,0v-1.3c0-1.1-0.3-2.2-1-3.1c-0.7-0.9-1.6-1.5-2.8-1.8
				l-33.6-8.8c-1.5-0.4-3.1-0.4-4.7,0c-7,1.8-13.2,1.9-18.5,0.3C1297,512,1296.4,512.1,1295.9,512.5z"/>
		</g>
	</g>
</g>
<g transform="matrix( -0.6347198486328125, -0.187652587890625, -0.187652587890625, 0.6347198486328125, 1119.65,260) ">
	<g>
		<g id="Layer1_2_MEMBER_6_FILL">
			<path class="st7" d="M1296.2,529.7c0.7,0.7,1.7,1.1,2.7,1.1l57.3,0c0.5,0,1-0.2,1.4-0.6c0.4-0.4,0.6-0.9,0.6-1.4v-2l-63.1,0v0.1
				C1295.1,528,1295.5,528.9,1296.2,529.7z"/>
		</g>
	</g>
</g>
<g transform="matrix( -0.643524169921875, 0.15484619140625, 0.15484619140625, 0.643524169921875, 983.9,104.65) ">
	<g>
		<g id="Layer1_2_MEMBER_7_FILL">
			<path class="st8" d="M1147-151.9l-77-0.6l-0.5,24.7c0,3.7,1.2,6.8,3.8,9.4c2.6,2.6,5.7,3.9,9.3,3.9l50.5,0.4
				c3.6,0,6.8-1.2,9.4-3.8s3.9-5.7,4-9.3L1147-151.9z"/>
		</g>
	</g>
</g>
<g transform="matrix( 0.322357177734375, -0.5771484375, -0.5771484375, -0.322357177734375, 748.8,681.95) ">
	<g>
		<g id="Layer1_2_MEMBER_8_MEMBER_0_FILL">
			<path class="st9" d="M300.6,1139.9c-0.1-2.3-1.1-4.3-2.8-5.8s-3.8-2.2-6.1-2.1c-2.3,0.1-4.2,1.1-5.8,2.8
				c-1.5,1.7-2.2,3.8-2.1,6.1l3.5,71.9c0.1,2.3,1.1,4.3,2.8,5.8c1.7,1.5,3.8,2.2,6.1,2.1c2.3-0.1,4.3-1.1,5.8-2.8
				c1.5-1.7,2.2-3.8,2.1-6.1L300.6,1139.9z"/>
		</g>
	</g>
</g>
<g transform="matrix( -0.5770721435546875, -0.322723388671875, -0.322723388671875, 0.5770721435546875, 1003.55,313.15) ">
	<g>
		<g id="Layer1_2_MEMBER_8_MEMBER_1_FILL">
			<path class="st9" d="M1206.8,303.9c-2.3-0.1-4.3,0.7-6,2.3c-1.7,1.6-2.6,3.6-2.6,5.9l-2.7,72c-0.1,2.3,0.7,4.3,2.3,6
				s3.6,2.6,5.9,2.6c2.3,0.1,4.3-0.7,6-2.3s2.6-3.6,2.6-5.9l2.7-72c0.1-2.3-0.7-4.3-2.3-6C1211.1,304.8,1209.1,304,1206.8,303.9z"/>
		</g>
	</g>
</g>
<g transform="matrix( -0.5770721435546875, -0.322723388671875, -0.322723388671875, 0.5770721435546875, 733.9,313.6) ">
	<g transform="matrix( 1, 0, 0, 1, 0,0) ">
		<g>
			<g id="_VisiTeli_V2_ai_Layer_1__Clip_Group__1_copy_2_0_Layer3_0_FILL">
				<path class="st10" d="M842.4,101.7c-2.1,2-3.3,4.4-3.4,7.3l-2.1,52.5l21,0.8l2.1-52.5c0.1-2.9-0.8-5.4-2.8-7.5s-4.4-3.3-7.3-3.4
					C847.1,98.8,844.6,99.7,842.4,101.7z"/>
			</g>
		</g>
	</g>
</g>
<g transform="matrix( -0.5770721435546875, -0.322723388671875, -0.322723388671875, 0.5770721435546875, 1013.75,315.85) ">
	<g>
		<g id="Layer1_2_MEMBER_8_MEMBER_3_FILL">
			<path class="st10" d="M1232.2,297.8c-3.7-3.8-8.3-5.7-13.6-5.7c-5.3,0-9.8,1.9-13.5,5.7c-3.8,3.7-5.7,8.3-5.7,13.5
				c0,5.3,1.9,9.8,5.7,13.6c3.7,3.8,8.3,5.7,13.5,5.7c5.3,0,9.8-1.9,13.6-5.7c3.7-3.7,5.6-8.3,5.6-13.6
				C1237.8,306.1,1235.9,301.6,1232.2,297.8z"/>
		</g>
	</g>
</g>
<g transform="matrix( -0.2723236083984375, -0.6026611328125, -0.6026611328125, 0.2723236083984375, 980.85,456.9) ">
	<g>
		<g id="Layer1_2_MEMBER_8_MEMBER_4_FILL">
			<path class="st11" d="M988,956.5l4.1,2.4c3.1,1.2,5.5,0.7,7.3-1.5c-1.1-1.7-2.7-4.6-4.7-8.7l-2.6-5.7L988,956.5z"/>
		</g>
	</g>
</g>
<g transform="matrix( -0.2723236083984375, -0.6026611328125, -0.6026611328125, 0.2723236083984375, 980.85,456.9) ">
	<g>
		<g id="Layer1_2_MEMBER_8_MEMBER_5_FILL">
			<path class="st9" d="M992,942l-16.8-1.3l-0.5,17l3.8,6c2.9,4.2,5.2,6.9,6.9,8.1c2.1,1.4,4.8,2.4,8.2,2.9c2.2,0.3,4.1,0.5,5.7,0.4
				c1.6-0.1,0.9-2.8-2.1-8.2l-4.9-8L992,942z"/>
		</g>
	</g>
</g>
<g transform="matrix( -0.5770721435546875, -0.322723388671875, -0.322723388671875, 0.5770721435546875, 1003.55,313.15) ">
	<g transform="matrix( -1.320037841796875, -0.73822021484375, -0.73822021484375, 1.320037841796875, 1555.85,327.5) ">
		<path id="Layer1_2_MEMBER_8_MEMBER_6_1_STROKES" class="st12" d="M1011.3,433.8l21,1"/>
	</g>
</g>
<g transform="matrix( -0.6432647705078125, 0.15484619140625, 0.15484619140625, 0.6432647705078125, 778.65,284.35) ">
	<g transform="matrix( 1, 0, 0, 1, 0,0) ">
		<g>
			<g id="_VisiTeli_V2_ai_Layer_1__Clip_Group__0_copy_0_Layer3_0_FILL_1_">
				<path class="st10" d="M783.3-484.1c-3.8-3.8-8.4-5.7-13.8-5.7l-54.2,0c-5.2,0-9.7,1.8-13.3,5.5c-3.7,3.7-5.6,8.1-5.6,13.4
					l0,145.6l92.6,0l0-145C789-475.6,787.1-480.3,783.3-484.1z"/>
			</g>
		</g>
	</g>
</g>
<g transform="matrix( 0.136932373046875, -0.6471405029296875, -0.6471405029296875, -0.136932373046875, 885.2,645.35) ">
	<g>
		<g id="Layer1_2_MEMBER_10_MEMBER_0_FILL">
			<path class="st9" d="M546.6,1138.2c-0.1-2.3-1.1-4.3-2.8-5.8s-3.8-2.2-6.1-2.1s-4.2,1.1-5.8,2.8c-1.5,1.7-2.2,3.8-2.1,6.1
				l3.5,71.9c0.1,2.3,1.1,4.3,2.8,5.8c1.7,1.5,3.8,2.2,6.1,2.1s4.3-1.1,5.8-2.8c1.5-1.7,2.2-3.8,2.1-6.1L546.6,1138.2z"/>
		</g>
	</g>
</g>
<g transform="matrix( -0.56060791015625, -0.350860595703125, -0.350860595703125, 0.56060791015625, 1053.85,320.75) ">
	<g>
		<g id="Layer1_2_MEMBER_10_MEMBER_1_FILL">
			<path class="st9" d="M1212.7,354.5c-2.3-0.1-4.3,0.7-6,2.3c-1.7,1.6-2.6,3.6-2.6,5.9l-2.7,72c-0.1,2.3,0.7,4.3,2.3,6
				s3.6,2.6,5.9,2.6c2.3,0.1,4.3-0.7,6-2.3c1.7-1.6,2.6-3.6,2.6-5.9l2.7-72c0.1-2.3-0.7-4.3-2.3-6
				C1217,355.4,1215,354.6,1212.7,354.5z"/>
		</g>
	</g>
</g>
<g transform="matrix( -0.56060791015625, -0.350860595703125, -0.350860595703125, 0.56060791015625, 781.75,308.45) ">
	<g transform="matrix( 1, 0, 0, 1, 0,0) ">
		<g>
			<g id="_VisiTeli_V2_ai_Layer_1__Clip_Group__1_copy_0_Layer3_0_FILL_1_">
				<path class="st10" d="M847.7,151.8c-2.1,2-3.3,4.4-3.4,7.3l-2.1,52.5l21,0.8l2.1-52.5c0.1-2.9-0.8-5.4-2.8-7.5
					c-2-2.1-4.4-3.3-7.3-3.4C852.4,148.8,849.8,149.8,847.7,151.8z"/>
			</g>
		</g>
	</g>
</g>
<g transform="matrix( -0.56060791015625, -0.350860595703125, -0.350860595703125, 0.56060791015625, 1053.85,320.75) ">
	<g>
		<g id="Layer1_2_MEMBER_10_MEMBER_3_FILL">
			<path class="st10" d="M1235,347.6c-3.7-3.8-8.3-5.7-13.6-5.7c-5.3,0-9.8,1.9-13.5,5.7c-3.8,3.7-5.7,8.3-5.7,13.5
				c0,5.3,1.9,9.8,5.7,13.6c3.7,3.8,8.3,5.7,13.5,5.7c5.3,0,9.8-1.9,13.6-5.7c3.7-3.7,5.6-8.3,5.6-13.6
				C1240.6,355.9,1238.7,351.4,1235,347.6z"/>
		</g>
	</g>
</g>
<g transform="matrix( -0.438018798828125, -0.4954833984375, -0.4954833984375, 0.438018798828125, 1038.5,361.4) ">
	<g>
		<g id="Layer1_2_MEMBER_10_MEMBER_4_FILL">
			<path class="st11" d="M1132.5,758.8l4.1,2.4c3.1,1.2,5.5,0.7,7.3-1.5c-1.1-1.7-2.7-4.6-4.7-8.7l-2.6-5.7L1132.5,758.8z"/>
		</g>
	</g>
</g>
<g transform="matrix( -0.438018798828125, -0.4954833984375, -0.4954833984375, 0.438018798828125, 1038.5,361.4) ">
	<g>
		<g id="Layer1_2_MEMBER_10_MEMBER_5_FILL">
			<path class="st9" d="M1136.5,744.2l-16.8-1.3l-0.5,17l3.8,6c2.9,4.2,5.2,6.9,6.9,8.1c2.1,1.4,4.8,2.4,8.2,2.9
				c2.2,0.3,4.1,0.5,5.7,0.4s0.9-2.8-2.1-8.2l-4.9-8L1136.5,744.2z"/>
		</g>
	</g>
</g>
<g transform="matrix( -0.56060791015625, -0.350860595703125, -0.350860595703125, 0.56060791015625, 1053.85,320.75) ">
	<g transform="matrix( -1.2817230224609375, -0.8021697998046875, -0.8021697998046875, 1.2817230224609375, 1608.05,434.25) ">
		<path id="Layer1_2_MEMBER_10_MEMBER_6_1_STROKES" class="st12" d="M1001.4,474.8l21,1"/>
	</g>
</g>
<g transform="matrix( -0.643524169921875, 0.15484619140625, 0.15484619140625, 0.643524169921875, 983.9,104.65) ">
	<g>
		<g id="Layer1_2_MEMBER_11_FILL">
			<path class="st13" d="M1116.8-293.7c2.5-1.6,3.7-3.5,3.7-5.8c0-2.3-1.2-4.2-3.7-5.8c-2.4-1.6-5.4-2.4-8.9-2.4s-6.4,0.8-8.9,2.4
				s-3.7,3.5-3.7,5.8c0,2.3,1.2,4.2,3.7,5.8c2.4,1.6,5.4,2.4,8.9,2.4S1114.3-292.1,1116.8-293.7z"/>
		</g>
	</g>
</g>
<g transform="matrix( -0.643524169921875, 0.15484619140625, 0.15484619140625, 0.643524169921875, 983.9,104.65) ">
	<g>
		<g id="Layer1_2_MEMBER_12_FILL">
			<path class="st9" d="M1115.2-315.9c0-1.9-0.6-3.5-1.9-4.8c-1.2-1.3-2.8-2-4.6-2h-0.2c-1.8,0.1-3.3,0.7-4.6,2c-1.3,1.4-2,3-2,4.8
				v14.7c0,3.3,2.2,4.9,6.6,5h0.1c4.4,0,6.5-1.7,6.5-5L1115.2-315.9L1115.2-315.9z"/>
		</g>
	</g>
</g>
<g transform="matrix( -0.6601715087890625, -0.04815673828125, -0.04815673828125, 0.6601715087890625, 1027.05,187.25) ">
	<g>
		<g id="Layer1_2_MEMBER_13_FILL">
			<path class="st9" d="M1205.5-135.5c-5.7,7.7-7.7,16.8-5.9,27c1.9,10.7,5.8,19.2,11.6,25.2c6.5,6.9,14.9,10.1,25.1,9.5
				c8.8-1.9,15.2-8.2,19.2-18.8c3.1-8.1,4.3-16.7,3.6-25.6c-0.8-10.3-3.9-17.7-9.5-22.4c-5.1-4.3-12.7-6.4-22.8-6.4
				C1218.2-146.8,1211-143,1205.5-135.5z"/>
		</g>
	</g>
</g>
<g transform="matrix( -0.6601715087890625, -0.04815673828125, -0.04815673828125, 0.6601715087890625, 1027.05,187.25) ">
	<g>
		<g id="Layer1_2_MEMBER_14_FILL">
			<path class="st14" d="M1249.8-150.1c-1.9-1.4-4.3-2.7-7.2-3.9c-5.8-2.5-11.3-3.6-16.5-3.2c-8.2,0.7-15,3.3-20.4,7.7
				c-1.7,1.4-3.2,2.9-4.4,4.5l-1.3,2c-0.6-0.3-1.5-0.6-2.5-0.8c-2.1-0.5-4-0.8-6-0.7c1.7,2,2.8,3.3,3.1,3.8c0.9,1.3,1.6,2.9,2.1,4.7
				c-1.7,4.4-2.3,10.7-1.9,19.1c0.6-0.5,1.2-0.8,1.8-1c0.8-0.3,1.7-0.3,2.7-0.1l0.7,0.2l0,0l1,0.4l1.4,0.8l1.2,1.1v0.1l0.2,0.2
				l0.1,0.1l0,0l0,0l0,0v9.7c0,1.5,0.3,2.5,1,3.2l0.4,0.5c0.2,0.2,0.6,0.4,1.3,0.6c0.7,0.2,1.2,0.3,1.6,0.3c1.3,0,2.4-0.5,3.5-1.4
				c1-0.9,1.6-2,1.6-3.2v-3.4c0-1.3,0.4-2.4,1.3-3.4s2-1.5,3.2-1.6l0.9-0.1c0.1-3,0.1-6,0-8.9c0-1.3,0.3-2.3,1.1-3
				c0.9-0.8,2.6-1.3,5-1.6h0.2l1.5-0.1l27.6-0.1l0.3-0.1c1-0.3,2-0.7,3-1.2c1.6-0.9,2.8-2,3.6-3.3c0.7-1.2,1.2-2.3,1.4-3.5v-1.4
				h-6.7l1.2-1.4c0.9-1.3,1.6-2.8,2.2-4.4c0.6-1.7,1-3.4,1.3-5.2l0.3-2.2h-10.9V-150.1z"/>
		</g>
	</g>
</g>
<g transform="matrix( -0.6601715087890625, -0.04815673828125, -0.04815673828125, 0.6601715087890625, 1027.05,187.25) ">
	<g>
		<g id="Layer1_2_MEMBER_15_FILL">
			<path class="st15" d="M1253.2-129.6h-0.3c-3,0.5-11.7,1.2-25.9,2.3l27.5-0.1l0.3-0.1c1-0.3,2-0.7,3-1.2c1.6-0.9,2.8-2,3.6-3.3
				c0.7-1.2,1.2-2.3,1.4-3.5v-1.4c-1,1.1-2.1,2.2-3.4,3.4C1256.8-131.2,1254.7-129.9,1253.2-129.6z"/>
		</g>
	</g>
</g>
<g transform="matrix( -0.6599273681640625, -0.048095703125, -0.048095703125, 0.6599273681640625, 1027.05,187.65) ">
	<g>
		<g id="Layer1_2_MEMBER_16_MEMBER_0_FILL">
			<path class="st14" d="M1251.3-114.8h0.2c0.3,0,0.5-0.2,0.8-0.4c0.2-0.2,0.3-0.5,0.4-0.8c0-0.3-0.1-0.6-0.3-0.9
				c-0.2-0.3-0.5-0.4-0.9-0.4l-7.7-0.4c-0.3,0-0.7,0.1-0.9,0.3c-0.3,0.2-0.4,0.5-0.4,0.9c0,0.3,0.1,0.7,0.3,0.9s0.5,0.4,0.9,0.4
				L1251.3-114.8z"/>
		</g>
	</g>
</g>
<g transform="matrix( -0.6599273681640625, -0.048095703125, -0.048095703125, 0.6599273681640625, 1027.05,187.65) ">
	<g>
		<g id="Layer1_2_MEMBER_17_MEMBER_0_FILL">
			<path class="st14" d="M1222.8-115.1c0.3,0.2,0.6,0.3,0.9,0.3l7.7-0.4c0.3,0,0.6-0.2,0.9-0.4s0.3-0.6,0.3-0.9s-0.1-0.6-0.4-0.8
				c-0.2-0.2-0.5-0.3-0.8-0.4l-7.9,0.4c-0.3,0-0.6,0.2-0.9,0.4c-0.2,0.2-0.3,0.5-0.3,0.9C1222.4-115.6,1222.5-115.3,1222.8-115.1z"
				/>
		</g>
	</g>
</g>
<g transform="matrix( -0.6601715087890625, -0.04815673828125, -0.04815673828125, 0.6601715087890625, 1027.05,187.25) ">
	<g>
		<g id="Layer1_2_MEMBER_18_FILL">
			<path class="st16" d="M1226.4-107.8c0,0.5,0.2,0.9,0.5,1.2c0.3,0.3,0.7,0.5,1.2,0.5s0.9-0.2,1.2-0.5c0.3-0.3,0.5-0.8,0.5-1.2
				c0-0.5-0.2-0.9-0.5-1.2c-0.3-0.3-0.8-0.5-1.2-0.5c-0.5,0-0.9,0.2-1.2,0.5C1226.5-108.7,1226.4-108.3,1226.4-107.8z"/>
		</g>
	</g>
</g>
<g transform="matrix( -0.6601715087890625, -0.04815673828125, -0.04815673828125, 0.6601715087890625, 1027.05,187.25) ">
	<g>
		<g id="Layer1_2_MEMBER_19_FILL">
			<path class="st16" d="M1244.9-107.2c0,0.5,0.2,0.9,0.5,1.2c0.3,0.3,0.7,0.5,1.2,0.5s0.9-0.2,1.2-0.5c0.3-0.3,0.5-0.8,0.5-1.2
				c0-0.5-0.2-0.9-0.5-1.2c-0.3-0.3-0.8-0.5-1.2-0.5s-0.9,0.2-1.2,0.5C1245.1-108.1,1244.9-107.7,1244.9-107.2z"/>
		</g>
	</g>
</g>
<g transform="matrix( -0.6601715087890625, -0.04815673828125, -0.04815673828125, 0.6601715087890625, 1027.05,187.25) ">
	<g>
		<g id="Layer1_2_MEMBER_20_FILL">
			<path class="st15" d="M1259.5-142.9c0.8-2.3,1.3-4.6,1.4-7.1c-0.7,1.7-1.7,3.4-2.9,5.3c-2.5,3.7-5,6.1-7.5,7.1
				c-2.2,0.9-7.9,1.6-17.2,2.2l-13.3,0.7l2.6,0.8c2,0.6,3.8,0.9,5.2,1.1c3.3,0.3,7.9,0.3,13.6,0c8.2-0.5,13.1-1.8,14.5-3.9
				C1257.4-138.6,1258.6-140.6,1259.5-142.9z"/>
		</g>
	</g>
</g>
<g transform="matrix( -0.6599273681640625, -0.048095703125, -0.048095703125, 0.6599273681640625, 1027.05,187.65) ">
	<g>
		<g id="Layer1_2_MEMBER_21_MEMBER_0_FILL">
			<path class="st9" d="M1192.4-112.5c2.2,6,3.3,9,3.4,9.1c1.7,3.5,3.3,4.4,4.8,2.6c3-3.5,4.6-8.1,4.8-13.9
				c-0.1-0.3-0.3-0.7-0.7-1.1c-0.7-0.9-1.6-1.8-2.8-2.6c-2.8-2-5.4-2.3-7.7-1C1191.7-117.9,1191.2-115.7,1192.4-112.5z"/>
		</g>
	</g>
</g>
<g transform="matrix( -0.6599273681640625, -0.048095703125, -0.048095703125, 0.6599273681640625, 1027.05,187.65) ">
	<g>
		<g id="Layer1_2_MEMBER_21_MEMBER_1_FILL">
			<path class="st11" d="M1197.5-113.4l3.6-0.5l-7.2-1.2l5.5,9.9L1197.5-113.4z"/>
		</g>
	</g>
</g>
<g transform="matrix( -0.6601715087890625, -0.04815673828125, -0.04815673828125, 0.6601715087890625, 1027.05,187.25) ">
	<g>
		<g id="Layer1_2_MEMBER_22_FILL">
			<path class="st11" d="M1237.3-95.2l3.2-0.8l-3-14.3L1237.3-95.2z"/>
		</g>
	</g>
</g>
<g transform="matrix( 1, 0, 0, 1, 0,0) ">
	<g>
		<g id="Layer1_2_MEMBER_23_FILL">
			<path class="st11" d="M220.7,67.4c-0.2,0-0.4,0.1-0.6,0.3c-0.5,0.6-1.2,1-2.2,1.4c-1.2,0.5-2.4,0.7-3.5,0.7
				c-1.1-0.1-2.2-0.5-3.2-1.1l0,0c-0.9-0.5-1.6-1.2-2-1.9c-0.1-0.2-0.3-0.3-0.5-0.4c-0.2,0-0.4,0-0.6,0.1c-0.2,0.1-0.3,0.3-0.4,0.5
				c0,0.2,0,0.4,0.1,0.6c0.6,0.9,1.4,1.8,2.6,2.4l0,0c1.3,0.7,2.6,1.2,3.9,1.3c1.4,0.1,2.8-0.2,4.2-0.8c1.3-0.5,2.3-1.2,2.8-1.9
				c0.2-0.2,0.2-0.4,0.2-0.6s-0.1-0.4-0.3-0.6C221.1,67.4,220.9,67.4,220.7,67.4z"/>
		</g>
	</g>
</g>
<g transform="matrix( 1, 0, 0, 1, 0,0) ">
	<g>
		<g id="Layer1_2_MEMBER_24_FILL">
			<path class="st4" d="M218,131.9l-0.3,0.6c3.2,2,6.4,4.1,9.7,6.2c14.4,9.1,29.7,16.3,45.9,21.4l5.5-15.6c-1.7,0.1-3.5,0.1-5.2,0.2
				C253.8,145.4,235.3,141.1,218,131.9 M228.2,111l-2,4c19.2,5.3,38.8,7.9,58.8,7.7c1.1,0,2.1,0,3.2,0l1-5c-0.9,0.1-1.7,0.2-2.5,0.3
				C266.8,119,247.3,116.7,228.2,111z"/>
			<path class="st17" d="M217.7,132.6l0.3-0.6l0,0L217.7,132.6z"/>
			<path class="st18" d="M226.2,115h-2l-6.2,17l0,0c17.3,9.2,35.8,13.4,55.5,12.8c1.7-0.1,3.5-0.1,5.2-0.2l7.4-0.4
				c0.2-0.8,0.8-2.7,1.7-5.7c0.9-3,2.4-8.6,4.6-16.7l-4.2,0.8c-1.1,0-2.1,0-3.2,0C265,122.9,245.4,120.3,226.2,115z"/>
		</g>
	</g>
</g>
<g transform="matrix( 1, 0, 0, 1, 0,0) ">
	<g>
		<g id="Layer1_2_MEMBER_25_FILL">
			<path class="st19" d="M189.7,119.5c10.3-3.4,15.3-6.4,14.9-9c-0.3-2.6-5.9-4-16.7-4.4c-10.8-0.3-23.7,0.7-38.6,2.9
				c-14.9,2.2-27.6,5-37.9,8.4s-15.3,6.4-14.9,9c0.3,2.6,5.9,4,16.7,4.3s23.7-0.7,38.7-2.9C166.8,125.7,179.4,122.9,189.7,119.5z"/>
		</g>
	</g>
</g>
<g transform="matrix( 1, 0, 0, 1, 0,0) ">
	<g>
		<g id="Layer1_2_MEMBER_26_MEMBER_0_FILL">
			<path class="st18" d="M161.2,83.1c0-0.1,0-0.2,0-0.2l-19.7-4.2c0,0.1,0,0.2,0,0.2c-0.7,3.5-0.4,6.7,0.9,9.6
				c1,2.1,2.4,3.6,4.2,4.5l-2.9,13.8l-4.1-0.9l-0.9,4.1l11.9,2.5l0.8-4.1l-4.1-0.9l2.9-13.6c2.1,0.1,4.2-0.8,6.2-2.4
				C158.9,89.4,160.5,86.6,161.2,83.1z"/>
		</g>
	</g>
</g>
<g transform="matrix( 1, 0, 0, 1, 0,0) ">
	<g>
		<g id="Layer1_2_MEMBER_26_MEMBER_1_FILL">
			<path class="st20" d="M163.4,75.3c-1.1-0.5-2.2-0.5-3.4-0.1c-0.6,0.2-1.1,0.5-1.6,1c-0.4,0.5-0.7,1-0.9,1.5
				c-0.2,0.4-0.3,0.7-0.6,1c-0.1,0.2-0.3,0.3-0.6,0.4c-0.1,0.1-0.3,0.1-0.4,0.1l-0.2-2.2c-0.7-0.9-1.6-1-2.6-0.3
				c-0.5,0.3-0.8,0.7-1.1,1.2s-0.6,1-0.8,1.5c-0.3,0.7-0.5,1.4-0.8,2.1c-0.2,0.6-0.6,1.2-1.1,1.6c-0.4-0.1-0.8-0.2-1.2-0.4
				c-0.7-0.3-1.3-0.2-1.8,0.2c-0.4,0.3-0.7,0.7-1,1.2c-0.1,0.3-0.3,0.6-0.4,0.9c-0.1,0.1-0.1,0.3-0.2,0.4v0.4
				c0.1,1.2,0.7,2.1,1.7,2.8c1.5,1.1,3.2,1.7,5.1,1.8c1.3,0,2.3-0.5,3.2-1.4c0.3-0.3,0.7-0.7,0.9-1.1c1.3-1.8,2.5-3.7,3.4-5.7
				c0.2-0.5,0.6-0.9,1.2-1.1c0.3-0.1,0.6-0.2,1-0.1c1.4,0.2,2.5-0.3,3.3-1.4c0.2-0.3,0.4-0.7,0.4-1.1
				C165.4,77,164.8,75.9,163.4,75.3z"/>
		</g>
	</g>
</g>
<g transform="matrix( 1, 0, 0, 1, 0,0) ">
	<g>
		<g id="Layer1_2_MEMBER_27_FILL">
			<path class="st21" d="M116.4,96.9c-0.6-1.2-1.6-2-3.1-2.3c-1.4-0.3-2.7-0.4-4-0.2c-1.8,0.2-3.3,0.8-4.2,1.8
				c-0.2,0.2-0.4,0.5-0.6,0.6c-0.4,0.5-0.5,1.2-0.1,1.9c0.1,0.3,0.3,0.6,0.6,0.8c0,1.2,0.1,1.9,0.5,2.2c0.5,0.5,1.2,0.8,2,0.8
				c3.1,0.2,5.7-0.8,7.8-3c0.3-0.4,0.6-0.7,1-1C116.6,98.1,116.7,97.6,116.4,96.9L116.4,96.9 M106.5,98.1c0.8-0.1,1.6-0.2,2.4-0.3
				c0.3,0,0.5-0.1,0.8-0.1c-0.3,0-0.5,0.1-0.8,0.1C108.1,97.9,107.3,98,106.5,98.1z"/>
			<path class="st22" d="M121,100c0.3,1.3-0.3,2.3-1.8,3.1c-0.5,0.3-1.1,0.5-1.6,0.7c-1.8,0.5-3.4,1.3-5,2.4c-0.5,0.3-1,0.6-1.5,0.8
				c-0.9,0.3-1.8,0.5-2.7,0.6c-1.4,0.3-2.5,0-3.4-0.8c-1.7,0.5-2.4,1.5-2.1,3c0.1,0.5,0.4,1,0.8,1.4c0.3,0.3,0.6,0.6,0.9,0.8
				c1.4,2.2,3.5,3.3,6.1,3.3c3.3-0.2,6.1-1,8.4-2.2c2.3-1.3,3.9-2.2,4.7-2.7c0.9-0.6,1.6-1.5,2.2-2.5s0.9-1.8,1-2.3
				c0-1,0-1.9-0.1-2.9c-0.2-0.7-0.3-1.5-0.5-2.2c-0.1-0.2-0.2-0.4-0.4-0.6c-0.4-0.3-0.9-0.4-1.6-0.4c-0.4,0-0.8,0-1.2,0
				c-0.7-0.1-1.4,0.1-2,0.4C121.1,99.9,121,100,121,100z"/>
			<path class="st19" d="M120.4,98.8c-0.5-0.9-1.2-1.4-2-1.6c-0.4-0.1-0.7-0.1-1.1-0.1c-0.2-0.1-0.3-0.1-0.5-0.2l-0.4,0.1
				c0.3,0.6,0.2,1.1-0.2,1.6c-0.3,0.3-0.6,0.7-1,1c-2.1,2.2-4.7,3.2-7.8,3c-0.9-0.1-1.5-0.4-2-0.8c-0.6,0.8-1.2,1.6-1.6,2.4
				c-0.1,0.2-0.1,0.4,0,0.6c0.3,0.8,0.8,1.5,1.2,2c0.9,0.8,2,1.1,3.4,0.8c0.9-0.2,1.8-0.4,2.7-0.6c0.6-0.2,1.1-0.4,1.5-0.8
				c1.5-1.1,3.2-1.9,5-2.4c0.5-0.2,1-0.4,1.6-0.7c1.5-0.8,2.1-1.8,1.8-3.1C120.9,99.6,120.7,99.2,120.4,98.8z"/>
			<path class="st4" d="M136.8,105.8c0.3-0.9,0.3-1.5,0.2-2.1c-0.1-0.5-0.2-0.9-0.4-1.2c-2-1.7-5.3-1.6-9.9,0.3
				c0.1,1,0.1,1.9,0.1,2.9c0,0.5-0.3,1.3-1,2.3c-0.6,1-1.4,1.8-2.2,2.5c-0.9,0.6-2.4,1.5-4.7,2.7c-2.3,1.3-5.1,2-8.4,2.2
				c-2.6-0.1-4.7-1.2-6.1-3.3c-3.4,3.1-5.1,5.4-5.3,6.8c-0.2,1.4,0.1,2.5,1.1,3.3c1,0.9,2.9,1.1,5.5,0.7c8.2-1.9,14.6-4.2,19.3-6.9
				c4.8-2.7,7.8-4.8,9.3-6.5C135.7,107.8,136.6,106.6,136.8,105.8 M102.7,120.7c1.6,0.4,3.2,0.2,4.8-0.4c0.2-0.1,0.5-0.2,0.8-0.2
				c-0.3,0-0.5,0.1-0.8,0.2C105.9,121,104.3,121.1,102.7,120.7z"/>
		</g>
	</g>
	<g>
		<path id="Layer1_2_MEMBER_27_1_STROKES" class="st23" d="M106.5,98.1c0.8-0.1,1.6-0.2,2.4-0.3c0.3,0,0.5-0.1,0.8-0.1 M102.7,120.7
			c1.6,0.4,3.2,0.2,4.8-0.4c0.2-0.1,0.5-0.2,0.8-0.2"/>
	</g>
</g>
<g transform="matrix( 1, 0, 0, 1, 0,0) ">
	<g>
		<g id="Layer1_2_MEMBER_28_FILL">
			<path class="st24" d="M185.7,113.5c4.2-1.9,6.3-4.2,6.4-6.9c0-2.7-2.1-5-6.3-7s-9.3-2.9-15.3-3c-6,0-11.1,0.9-15.3,2.8
				s-6.4,4.2-6.4,6.9c0,2.7,2.1,5,6.3,7s9.3,2.9,15.3,3C176.3,116.3,181.4,115.4,185.7,113.5z"/>
		</g>
	</g>
</g>
<g transform="matrix( 1, 0, 0, 1, 0,0) ">
	<g>
		<g id="Layer1_2_MEMBER_28_MEMBER_0_MEMBER_0_FILL">
			<path class="st19" d="M187.6,99.4c0.1-2-0.3-3.5-1.2-4.8l-1.2,1.7c-0.2,0.3-0.6,0.6-1,0.6c-0.5,0.1-0.9,0-1.2-0.3l-0.6-0.5
				c-0.3-0.2-0.6-0.6-0.6-1c-0.1-0.5,0-0.9,0.2-1.2l1.2-1.7c-1.4-0.3-3-0.2-4.8,0.5c-2.7,1-5,2.9-6.9,5.7c-0.8,1.1-1.4,2.2-1.9,3.3
				c-0.5,1.1-0.8,2.2-1,3.4l14.3,4.6c0.6-0.6,1.1-1.3,1.6-2C186.4,105,187.4,102.3,187.6,99.4z"/>
			<path class="st18" d="M189.7,82.3c-0.3-0.2-0.7-0.3-1.2-0.2c-0.5,0.1-0.8,0.3-1.1,0.6l-0.4,0.6c-0.2,0.3-0.3,0.7-0.2,1.2
				s0.3,0.8,0.6,1l0.3,0.2l-4.6,6.5l-1.2,1.7c-0.2,0.3-0.3,0.7-0.2,1.2c0.1,0.4,0.3,0.8,0.6,1l0.6,0.5c0.3,0.2,0.7,0.3,1.2,0.3
				c0.5-0.1,0.8-0.3,1-0.6l1.2-1.7l4.6-6.5c0.3,0.2,0.7,0.3,1.2,0.2c0.4-0.1,0.8-0.3,1-0.6l1.8-2.6c0.2-0.3,0.3-0.7,0.3-1.2
				c-0.1-0.5-0.3-0.8-0.6-1l-1-0.7c-0.3-0.2-0.7-0.3-1.2-0.2c-0.5,0.1-0.8,0.3-1,0.6l-0.4,0.6L189.7,82.3z"/>
		</g>
	</g>
</g>
<g transform="matrix( 1, 0, 0, 1, 0,0) ">
	<g>
		<g id="Layer1_2_MEMBER_28_MEMBER_0_MEMBER_1_FILL">
			<path class="st1" d="M178.1,106.8c-0.3-0.1-0.6-0.1-0.8-0.2l0,0c0.3-1.3,0.1-2.6-0.7-3.8c-0.8-1.2-2-2-3.5-2.4
				c-0.1,0-0.2,0-0.2,0c0-1.1-0.3-2.2-0.9-3.2c-0.9-1.6-2.3-2.6-4-3c-1.8-0.5-3.4-0.3-5,0.6c-1.5,0.9-2.6,2.2-3,3.9
				c-1.3-0.2-2.5-0.1-3.6,0.2c-1.3,0.4-2.1,1.1-2.4,2c-0.1-0.2-0.2-0.5-0.3-0.6c-0.5-0.7-1.1-1.1-1.9-1.3s-1.5-0.1-2.2,0.2
				c-0.7,0.3-1.2,0.8-1.4,1.5s-0.1,1.4,0.4,2c0.4,0.6,1,1.1,1.8,1.3c0.8,0.2,1.5,0.1,2.2-0.2c0.6-0.3,1-0.8,1.3-1.4
				c0.2,0.5,0.5,1.1,1,1.6c1,1,2.3,1.8,4,2.2c1.5,0.4,2.9,0.5,4.2,0.2c0.4,0.2,0.9,0.4,1.4,0.5c0.8,0.2,1.6,0.3,2.4,0.2
				c0,0.1,0.1,0.2,0.1,0.3c0.8,1.1,2,1.9,3.5,2.3s2.8,0.3,4.1-0.2c0.1,0.2,0.2,0.5,0.3,0.7c0.4,0.6,1,1,1.8,1.2
				c0.7,0.2,1.4,0.1,2.1-0.2c0.6-0.3,1.1-0.7,1.2-1.4c0.2-0.6,0-1.3-0.4-1.9C179.4,107.4,178.8,107,178.1,106.8z"/>
		</g>
	</g>
</g>
<g transform="matrix( 1, 0, 0, 1, 48.85,-44.6) ">
	<g>
		<g id="Layer1_3_MEMBER_0_FILL">
			<path class="st18" d="M282.2,141c-1.3,0-2.5,0.5-3.4,1.4s-1.4,2.1-1.4,3.4s0.5,2.5,1.4,3.4s2.1,1.4,3.4,1.4h62.5
				c1.3,0,2.5-0.5,3.4-1.4s1.4-2.1,1.4-3.4s-0.5-2.5-1.4-3.4s-2.1-1.4-3.4-1.4H282.2z"/>
		</g>
	</g>
</g>
<g transform="matrix( 1, 0, 0, 1, 48.85,-44.6) ">
	<g>
		<g id="Layer1_3_MEMBER_1_FILL">
			<path class="st18" d="M307.5,159.4c-0.8,0-1.4,0.3-2,0.8c-0.5,0.6-0.8,1.2-0.8,2s0.3,1.4,0.8,2c0.6,0.6,1.2,0.8,2,0.8h52.1
				c0.8,0,1.4-0.3,2-0.8s0.8-1.2,0.8-2s-0.3-1.4-0.8-2c-0.5-0.5-1.2-0.8-2-0.8H307.5z"/>
		</g>
	</g>
</g>
<g transform="matrix( 1, 0, 0, 1, 48.85,-44.6) ">
	<g>
		<g id="Layer1_3_MEMBER_2_FILL">
			<path class="st18" d="M347.2,191.5c0.7,0,1.2-0.2,1.7-0.7s0.7-1,0.7-1.7s-0.2-1.2-0.7-1.7s-1-0.7-1.7-0.7h-76.9
				c-0.7,0-1.2,0.2-1.7,0.7s-0.7,1.1-0.7,1.7s0.2,1.2,0.7,1.7s1.1,0.7,1.7,0.7H347.2z"/>
		</g>
	</g>
</g>
</svg>
