<?xml version="1.0" encoding="utf-8"?>
<!-- Generator: Adobe Illustrator 18.0.0, SVG Export Plug-In . SVG Version: 6.00 Build 0)  -->
<!DOCTYPE svg PUBLIC "-//W3C//DTD SVG 1.1//EN" "http://www.w3.org/Graphics/SVG/1.1/DTD/svg11.dtd">
<svg version="1.1" id="Layer_1" xmlns="http://www.w3.org/2000/svg" xmlns:xlink="http://www.w3.org/1999/xlink" x="0px" y="0px"
	 width="595.3px" height="481.9px" viewBox="0 0 595.3 481.9" enable-background="new 0 0 595.3 481.9" xml:space="preserve">
<g transform="matrix( 1, 0, 0, 1, 0,0) ">
	<g>
		<g id="Layer1_0_FILL_1_">
			<path fill="#D3EDF0" d="M536.9,172.4c-15.6-17.3-34.5-25.9-56.6-25.9H109.5c-22.1,0-41,8.6-56.7,25.9
				c-15.6,17.3-23.5,38.1-23.5,62.6s7.8,45.3,23.5,62.6c15.7,17.3,34.6,26,56.7,26h370.8c22.1,0,41-8.7,56.6-26
				c15.6-17.3,23.5-38.1,23.5-62.6S552.6,189.7,536.9,172.4z"/>
		</g>
	</g>
</g>
<g transform="matrix( 1, 0, 0, 1, 6.25,-5) ">
	<g>
		<g id="Layer1_1_FILL">
			<path fill="#FFDA83" d="M191.2,240c0-20.2-7.1-37.4-21.4-51.7c-14.3-14.3-31.5-21.4-51.7-21.4c-20.2,0-37.4,7.1-51.7,21.4
				C52.2,202.5,45,219.8,45,240s7.1,37.4,21.4,51.7c14.3,14.3,31.5,21.4,51.7,21.4c20.2,0,37.4-7.1,51.7-21.4
				C184.1,277.4,191.2,260.2,191.2,240z"/>
		</g>
	</g>
</g>
<g transform="matrix( 1, 0, 0, 1, 0,0) ">
	<g>
		<g id="Layer1_2_FILL">
			<path fill="#FFDA83" d="M115.2,237.5c-0.5-0.1-1,0.1-1.4,0.5c-0.5,0.4-0.7,0.9-0.8,1.5l-4.7,34h3.9l4.6-33.5
				c0-0.6-0.1-1.2-0.3-1.7C116.1,237.9,115.7,237.6,115.2,237.5z"/>
		</g>
	</g>
</g>
<g transform="matrix( -0.5687255859375, 0.48828125, -0.48828125, -0.5687255859375, 1438.3,217.9) ">
	<g>
		<g id="Layer1_2_MEMBER_0_FILL_1_">
			<path fill="#F7AD92" d="M1418.4,1196.8l-11.6-6.4l-18,30.5l11.6,6.5L1418.4,1196.8z"/>
		</g>
	</g>
</g>
<g transform="matrix( -1.2218475341796875, 0, 0, 1.2218475341796875, 1745.95,-30.6) ">
	<g>
		<g id="Layer1_2_MEMBER_1_FILL_1_">
			<path fill="#4F4F4F" d="M1384.6,238.6c1.6-0.5,2.8-1.5,3.5-3c0.8-1.5,0.9-3,0.4-4.6c-0.5-1.6-1.5-2.7-2.9-3.5l-33.7-17.4
				c-1.5-0.8-3-0.9-4.5-0.4c-1.6,0.5-2.8,1.5-3.5,2.9c-0.8,1.5-0.9,3-0.5,4.6c0.5,1.5,1.5,2.7,3,3.5l33.6,17.3
				C1381.4,239,1383,239.1,1384.6,238.6z"/>
		</g>
	</g>
</g>
<g transform="matrix( 1, 0, 0, 1, 0,0) ">
	<g>
		<g id="Layer1_2_MEMBER_2_FILL_1_">
			<path fill="#4F4F4F" d="M147.7,245.1c0.4-3.3-0.5-6.3-2.6-8.9c-2.1-2.7-4.8-4.2-8.1-4.6l-33.9-3.8c-3.3-0.4-6.3,0.5-8.9,2.6
				c-2.6,2.1-4.1,4.8-4.5,8.1l-3,54c14.3,10.4,31.3,13.7,51.2,9.8l1.3-13.9c0-0.2,0.1-0.3,0.1-0.5c0.1-0.9,0.2-1.6,0.3-2.3
				c0.2-1.4,0.4-3.3,0.8-5.6c0.8-4.5,2-10.7,3.8-18.4C145.2,255.6,146.5,250.1,147.7,245.1z"/>
		</g>
	</g>
</g>
<g transform="matrix( 1, 0, 0, 1, 0,0) ">
	<g>
		<g id="Layer1_2_MEMBER_3_FILL_1_">
			<path fill="#FFFFFF" d="M117.5,235.4c-0.5-0.1-1,0-1.3,0.4c-0.5,0.4-0.8,1-0.9,1.6l-7.8,57.1c0,0.7,0.1,1.2,0.4,1.7
				c0.3,0.5,0.7,0.8,1.2,0.9c0.5,0,1-0.2,1.4-0.5c0.4-0.4,0.7-0.9,0.8-1.6l7.8-57.1c0.1-0.6,0-1.2-0.3-1.7
				C118.5,235.7,118.1,235.5,117.5,235.4z"/>
		</g>
	</g>
</g>
<g transform="matrix( -1.2218475341796875, 0, 0, 1.2218475341796875, 1745.95,-31.05) ">
	<g>
		<g id="Layer1_2_MEMBER_4_FILL">
			<path fill="#FFFFFF" d="M1345.1,213.8c-0.1-0.7-0.3-1.4-0.5-2.1l-25.7,2.9c-0.1,0.7-0.1,1.5,0,2.2c0.3,3.1,1.2,4.4,2.6,3.9
				c1.4-0.5,3.7-1.5,6.7-3c3-1.5,6.7-1.7,11-0.7C1343.5,217.9,1345.5,216.8,1345.1,213.8z"/>
		</g>
	</g>
</g>
<g transform="matrix( 0.744598388671875, 0.0846710205078125, -0.0846710205078125, 0.744598388671875, 83.35,216.4) ">
	<g>
		<g id="Layer1_2_MEMBER_5_FILL">
			<path fill="#F7AD92" d="M52.5-6.3C51.4-7.4,50-8,48.4-8c-1.6,0-3,0.6-4.2,1.7c-1.2,1.2-1.7,2.5-1.7,4.2v12.6c0,2.8,2,4.3,5.9,4.3
				s5.9-1.4,5.9-4.3V-2.1C54.2-3.7,53.7-5.1,52.5-6.3z"/>
		</g>
	</g>
</g>
<g transform="matrix( 0.594879150390625, 0.4557342529296875, -0.4557342529296875, 0.594879150390625, 313.45,-134.55) ">
	<g>
		<g id="Layer1_2_MEMBER_6_MEMBER_0_FILL">
			<path fill="#6C503C" d="M61.9,477.8l-2.9-4.9c-1.3-0.2-2.5,0.1-3.8,1.2c-2.5,2.1-3.8,6.3-3.8,12.7c0,3.2,0.3,6.7,1,10.5
				c0.3,1.9,0.7,3.4,1,4.7l11.5-13.3l11.9-5.3L61.9,477.8z"/>
		</g>
	</g>
</g>
<g transform="matrix( 0.594879150390625, 0.4557342529296875, -0.4557342529296875, 0.594879150390625, 313.45,-134.55) ">
	<g>
		<g id="Layer1_2_MEMBER_6_MEMBER_1_MEMBER_0_FILL">
			<path fill="#F7AD92" d="M97.8,486c-4.7-6.3-10.7-9.5-17.9-9.5c-8.4,0-14.8,1.8-19.1,5.3c-4.6,3.9-7.3,10.1-7.9,18.7
				c-0.6,7.4,0.4,14.6,3,21.4c3.3,8.9,8.7,14.1,16,15.7c8.6,0.5,15.6-2.2,21.1-7.9c4.9-5.1,8.1-12.2,9.7-21.2
				C104.2,500,102.6,492.4,97.8,486z"/>
		</g>
	</g>
</g>
<g transform="matrix( 0.5685272216796875, 0.488433837890625, -0.488433837890625, 0.5685272216796875, 343.9,-163.45) ">
	<g>
		<g id="Layer1_2_MEMBER_6_MEMBER_1_MEMBER_1_MEMBER_0_FILL">
			<path fill="#8C643E" d="M85,551.8c-0.2-0.2-0.5-0.3-0.8-0.3l-6.8,0.4c-0.3,0-0.6,0.1-0.8,0.4c-0.2,0.2-0.3,0.5-0.3,0.8
				c0,0.3,0.1,0.5,0.3,0.7c0.2,0.2,0.4,0.3,0.7,0.4l7.1-0.3c0.3,0,0.6-0.1,0.8-0.4c0.2-0.2,0.3-0.5,0.3-0.8
				C85.4,552.3,85.2,552,85,551.8z"/>
		</g>
	</g>
</g>
<g transform="matrix( 0.54608154296875, 0.513275146484375, -0.513275146484375, 0.54608154296875, 372.15,-184.65) ">
	<g>
		<g id="Layer1_2_MEMBER_6_MEMBER_1_MEMBER_2_MEMBER_0_FILL">
			<path fill="#8C643E" d="M113.2,592.4l-0.2,0c-0.3,0-0.5,0.2-0.7,0.3c-0.2,0.2-0.3,0.4-0.3,0.7c0,0.3,0.1,0.6,0.3,0.8
				c0.2,0.2,0.5,0.3,0.8,0.4l6.8,0.3c0.3,0,0.6-0.1,0.8-0.3c0.2-0.2,0.3-0.5,0.4-0.8c0-0.3-0.1-0.6-0.3-0.8
				c-0.2-0.2-0.5-0.3-0.8-0.4L113.2,592.4z"/>
		</g>
	</g>
</g>
<g transform="matrix( 0.594879150390625, 0.4557342529296875, -0.4557342529296875, 0.594879150390625, 313.45,-134.55) ">
	<g>
		<g id="Layer1_2_MEMBER_6_MEMBER_1_MEMBER_3_FILL">
			<path fill="#040505" d="M74.9,508.6c0,0.4,0.1,0.8,0.4,1.1c0.3,0.3,0.7,0.4,1.1,0.4c0.4,0,0.8-0.1,1.1-0.4
				c0.3-0.3,0.5-0.7,0.5-1.1s-0.2-0.8-0.5-1.1c-0.3-0.3-0.7-0.5-1.1-0.5c-0.4,0-0.8,0.2-1.1,0.5C75,507.8,74.9,508.2,74.9,508.6z"/>
		</g>
	</g>
</g>
<g transform="matrix( 0.594879150390625, 0.4557342529296875, -0.4557342529296875, 0.594879150390625, 313.45,-134.55) ">
	<g>
		<g id="Layer1_2_MEMBER_6_MEMBER_1_MEMBER_4_FILL">
			<path fill="#040505" d="M61,510.2c0.3-0.3,0.4-0.7,0.4-1.1s-0.1-0.8-0.4-1.1c-0.3-0.3-0.7-0.4-1.1-0.4c-0.4,0-0.8,0.1-1.1,0.4
				c-0.3,0.3-0.4,0.7-0.4,1.1c0,0.4,0.1,0.8,0.4,1.1c0.3,0.3,0.7,0.4,1.1,0.4C60.4,510.7,60.7,510.5,61,510.2z"/>
		</g>
	</g>
</g>
<g transform="matrix( 0.594879150390625, 0.4557342529296875, -0.4557342529296875, 0.594879150390625, 313.45,-134.55) ">
	<g>
		<g id="Layer1_2_MEMBER_6_MEMBER_1_MEMBER_5_FILL">
			<path fill="#DB846E" d="M68,506.4l-2.7,12.8l2.9,0.6L68,506.4z"/>
		</g>
	</g>
</g>
<g transform="matrix( -0.966064453125, -0.55712890625, -0.55712890625, 0.966064453125, 1787.95,549.6) ">
	<g>
		<g id="Layer1_2_MEMBER_6_MEMBER_1_MEMBER_6_FILL">
			<path fill="#FFFFFF" d="M1447.1,484.9h8.6l1-1.6l-9.6,1.2v0.3C1447.1,484.8,1447.1,484.8,1447.1,484.9z"/>
			<path fill="#424243" d="M1455.7,484.9h-8.6c0,0.8,0.3,1.4,1,2c0,0,0,0,0.1,0.1c0.8,0.6,1.9,1,3.1,1h0.8c1,0.1,1.6-0.1,1.9-0.4
				L1455.7,484.9z"/>
		</g>
	</g>
</g>
<g transform="matrix( 0.594879150390625, 0.4557342529296875, -0.4557342529296875, 0.594879150390625, 313.45,-134.55) ">
	<g>
		<g id="Layer1_2_MEMBER_6_MEMBER_2_FILL">
			<path fill="#6C503C" d="M97.4,479.3c1.3,3,3.3,5.2,5.9,6.6c2.6,1.4,5.1,1.6,7.4,0.5c2.3-1,3.9-3,4.6-5.9c0.7-2.8,0.5-5.8-0.9-8.8
				c-1.3-3-3.3-5.2-5.9-6.6c-2.6-1.4-5.1-1.6-7.4-0.5c-2.3,1-3.9,3-4.6,5.8C95.8,473.3,96.1,476.2,97.4,479.3z"/>
		</g>
	</g>
</g>
<g transform="matrix( -1.2218475341796875, 0, 0, 1.2218475341796875, 1812.8,-145.9) ">
	<g>
		<g id="Layer1_2_MEMBER_6_MEMBER_3_FILL">
			<path fill="#A57D56" d="M1375.1,261.6c-3.1-1.5-6.1-1.8-9-0.9c-2.4,0.8-4.8,2.5-7.2,5.1c-3.9,4.2-5.8,8.7-5.6,13.4
				c0.2,5.9,3.9,11.4,10.9,16.5c0.4,0.3,1.2,0.3,2.3,0c1.4-0.4,2.3-0.6,2.7-0.6c0.7-0.4,1.3-0.9,1.8-1.6c0.9-1.4,0.5-2.9-1-4.4
				c0.6-0.6,1.3-1.7,2.1-3.2c1-2,1.8-4,2.5-6.3C1376.4,273.4,1376.6,267.4,1375.1,261.6z"/>
		</g>
	</g>
</g>
<g transform="matrix( 0.594879150390625, 0.4557342529296875, -0.4557342529296875, 0.594879150390625, 313.45,-134.55) ">
	<g>
		<g id="Layer1_2_MEMBER_6_MEMBER_4_MEMBER_0_FILL">
			<path fill="#F7AD92" d="M97.1,503.1c0.1,2.4,0.5,4.7,1.3,6.8c0.7,1.9,1.6,3.6,2.8,4.9c1.3,1.4,2.6,0.7,4-2.2
				c1.4-3.9,2.4-6.4,2.9-7.7c1-2.7,0.5-4.6-1.5-5.7c-2-1.1-4.1-0.8-6.5,0.8c-1,0.7-1.8,1.4-2.4,2.2L97.1,503.1z"/>
		</g>
	</g>
</g>
<g transform="matrix( 0.594879150390625, 0.4557342529296875, -0.4557342529296875, 0.594879150390625, 313.45,-134.55) ">
	<g>
		<g id="Layer1_2_MEMBER_6_MEMBER_4_MEMBER_1_FILL">
			<path fill="#DB846E" d="M100.7,503.7l3,0.4l-1.6,6.9l4.6-8.4L100.7,503.7z"/>
		</g>
	</g>
</g>
<g transform="matrix( 0.594879150390625, 0.4557342529296875, -0.4557342529296875, 0.594879150390625, 313.45,-134.55) ">
	<g>
		<g id="Layer1_2_MEMBER_6_MEMBER_5_FILL">
			<path fill="#EE3F5A" d="M100.3,518c0.5,0.5,1.2,0.8,1.9,0.8s1.4-0.3,2-0.8s0.8-1.2,0.8-2s-0.3-1.4-0.8-2s-1.2-0.8-2-0.8
				c-0.8,0-1.4,0.3-1.9,0.8c-0.5,0.5-0.8,1.2-0.8,2C99.5,516.8,99.8,517.5,100.3,518z"/>
		</g>
	</g>
</g>
<g transform="matrix( -1.114013671875, -0.0535430908203125, -0.0535430908203125, 1.114013671875, 1716.4,133.1) ">
	<g>
		<g id="Layer1_2_MEMBER_7_FILL">
			<path fill="#4F4F4F" d="M1497.7,135.7L1485,133l-9.4,45.4c4.1-0.5,5.5,0.6,4.3,3.2c-1.3,2.6-1,4.2,0.7,4.5
				c1.8,0.4,3.4,0.1,4.9-0.8c1.5-1,2.5-2.4,2.9-4.2L1497.7,135.7z"/>
		</g>
	</g>
</g>
<g transform="matrix( 0.8294677734375, -0.74578857421875, 0.74578857421875, 0.8294677734375, -239.3,839.05) ">
	<g>
		<g id="Layer1_2_MEMBER_8_FILL">
			<path fill="#F7AD92" d="M582-260.8c-0.7-5-1.5-6.6-2.4-4.7c-1,2-1.7,4.3-2.2,6.9c0.1-1.1,0.1-1.6,0-1.5c-0.1,0.1-0.2-0.1-0.3-0.5
				c0.3-4.4,0.4-7.6,0.3-9.5c-0.2-4.9-0.8-6.7-2-5.3c-1.1,1.4-2.3,3-3.6,4.8c-1.3,1.9-1.9,6.6-1.9,14.1c-0.4,0.8-1,2.4-1.7,4.8
				l7.6,2.4c2.7-3.4,4.1-5.2,4.1-5.2C580.9-257,581.6-259.1,582-260.8z"/>
		</g>
	</g>
</g>
<g transform="matrix( -1.19744873046875, -0.0575408935546875, -0.0575408935546875, 1.19744873046875, 1790.3,111.2) ">
	<g>
		<g id="Layer1_2_MEMBER_9_FILL">
			<path fill="#FFFFFF" d="M1453.9,152l0.9-4.8l-12.7-2.5l-0.9,4.7L1453.9,152z"/>
		</g>
	</g>
</g>
<g transform="matrix( 0.574462890625, -0.954681396484375, 0.954681396484375, 0.574462890625, 73.9,993.95) ">
	<g>
		<g id="Layer1_2_MEMBER_10_MEMBER_0_FILL">
			<path fill="#4F4F4F" d="M606.9-302.1c-1.8,0.3-3.2,1.3-4.2,2.7l-23.7,34c-1,1.5-1.4,3.1-1.1,4.9c0.3,1.8,1.3,3.2,2.7,4.2
				c1.5,1,3.1,1.4,4.9,1.1c1.8-0.3,3.2-1.2,4.2-2.7l23.7-34c1-1.5,1.4-3.1,1.1-4.9s-1.2-3.2-2.7-4.2
				C610.3-302.1,608.7-302.4,606.9-302.1z"/>
		</g>
	</g>
</g>
<g transform="matrix( -1.10284423828125, 0.15985107421875, -0.15985107421875, -1.10284423828125, 1751.55,898.4) ">
	<g>
		<g id="Layer1_2_MEMBER_10_MEMBER_1_FILL">
			<path fill="#4F4F4F" d="M1311,706.6l-10.5,7.9l28.1,36.9c1.1,1.4,2.5,2.3,4.3,2.6c1.8,0.3,3.4-0.1,4.8-1.2
				c1.4-1.1,2.3-2.5,2.6-4.3s-0.1-3.4-1.2-4.8L1311,706.6z"/>
		</g>
	</g>
</g>
<g transform="matrix( 1, 0, 0, 1, 0,0) ">
	<g>
		<g id="Layer1_2_MEMBER_10_MEMBER_2_FILL">
			<path fill="#F7AD92" d="M209.7,332.1c-1.2-3.5-2.4-6.4-3.8-8.8c0-0.1-1.9-1.7-5.5-5l-8,4c1.2,2.5,2.1,4.1,2.7,4.9
				c1.3,8.3,2.9,13.3,4.6,15.2c1.7,1.8,3.4,3.4,4.9,4.7c1.5,1.3,1.9-0.8,1.2-6.3c-0.2-2-0.8-5.6-1.8-11.1c0.1,0,0-0.6-0.3-1.6l1,3.4
				c0.8,1.8,1.8,2.8,3.1,3.1C209.3,335,209.9,334.2,209.7,332.1z"/>
		</g>
	</g>
</g>
<g transform="matrix( 1, 0, 0, 1, 0,0) ">
	<g>
		<g id="Layer1_2_MEMBER_10_MEMBER_3_FILL">
			<path fill="#FFFFFF" d="M192.9,329.1l11.2-10.8l-3.8-3.1l-20,3.4L192.9,329.1z"/>
		</g>
	</g>
</g>
<g transform="matrix( -1.21661376953125, -0.1112060546875, -0.1112060546875, 1.21661376953125, 1706.95,61.5) ">
	<g>
		<g id="Layer1_2_MEMBER_11_FILL">
			<path fill="#FFEBBE" d="M1264.4,274c-0.7,0.7-1,1.5-1,2.4v0.3c0,0.9,0.3,1.7,1,2.4c0.7,0.7,1.5,1,2.4,1h6.8c0.9,0,1.7-0.3,2.4-1
				c0.7-0.7,1-1.4,1-2.4v-0.3c0-0.9-0.3-1.7-1-2.4c-0.7-0.7-1.4-1-2.4-1h-6.8C1265.9,273,1265.1,273.3,1264.4,274z"/>
		</g>
	</g>
</g>
<g transform="matrix( 1, 0, 0, 1, 23,-72.95) ">
	<g>
		<g id="Layer1_3_FILL">
			<path fill="#E66661" d="M344.2,307.9c0-20.2-7.1-37.4-21.4-51.7c-14.3-14.3-31.5-21.4-51.7-21.4c-20.2,0-37.4,7.1-51.7,21.4
				c-14.3,14.3-21.4,31.5-21.4,51.7c0,20.2,7.1,37.4,21.4,51.7c14.3,14.3,31.5,21.4,51.7,21.4c20.2,0,37.4-7.1,51.7-21.4
				C337,345.3,344.2,328.1,344.2,307.9z"/>
		</g>
	</g>
</g>
<g transform="matrix( 1, 0, 0, 1, 0,0) ">
	<g>
		<g id="Layer1_4_MEMBER_0_FILL">
			<path fill="#9B9B9B" d="M272.1,241.6c0.8-4,2-7.9,3.6-11.6c-2.9,0.1-5.5,1.2-7.7,3.1c-2.7,2.4-4.2,5.4-4.5,9l-3.8,54.1
				c23.4,10.1,44.1,10.8,61.9,2.3l3.5-52.6c0.2-3.5-0.8-6.6-3.1-9.2c-2.3-2.6-5.1-4-8.6-4.3l-1.3-0.1c1,3.7,1.6,7.5,2,11.3
				c0,0.5,0,0.9,0,1.4l-5.8,2.7l4.7,7.5l-22.5,31.4c0,0.1-0.1,0.3-0.3,0.5l0-0.1v0c-0.1-0.2-0.2-0.3-0.2-0.4l-18.5-33.6l5.5-6.8
				l-5.3-3.3C271.9,242.6,272,242.1,272.1,241.6z"/>
			<path fill="#FFFFFF" d="M282.7,230.4c-0.4,2.8-0.6,6.6-0.5,11.3c0.2,11.4,2.2,23.3,5.8,35.5c0.9,3,1.7,5.9,2.5,8.9
				c1.2-3,2.4-6,3.7-9c5-11.7,8.3-23.2,9.9-34.5c0.6-4.3,0.9-7.8,0.9-10.7L282.7,230.4z"/>
			<path fill="#B7B7B8" d="M282.7,230.4c0-0.2,0-0.5,0.1-0.7c-1.7-0.8-3.9-1-6.8-0.7c-0.1,0.3-0.3,0.7-0.4,1
				c-1.5,3.8-2.7,7.6-3.6,11.6c-0.1,0.5-0.1,0.9-0.2,1.4l5.3,3.3l-5.5,6.8l18.5,33.6c0,0,0,0.2,0.2,0.4v0l0,0.1
				c0.2-0.2,0.3-0.4,0.3-0.5l22.5-31.4l-4.7-7.5l5.8-2.7c0-0.5,0-0.9,0-1.4c-0.4-3.9-1.1-7.6-2-11.3c-0.1-0.6-0.3-1.2-0.4-1.7
				c-3-0.7-5.2-0.8-6.8-0.2c0,0.5,0,0.9,0,1.4c0,2.8-0.3,6.4-0.9,10.7c-1.6,11.3-4.9,22.8-9.9,34.5c-1.3,3-2.5,6-3.7,9
				c-0.8-3-1.6-5.9-2.5-8.9c-3.6-12.2-5.6-24-5.8-35.5C282.1,237,282.3,233.2,282.7,230.4z"/>
		</g>
	</g>
</g>
<g transform="matrix( 0.2181243896484375, -0.7602996826171875, -0.7602996826171875, -0.2181243896484375, 1280.8,886.8) ">
	<g>
		<g id="Layer1_4_MEMBER_1_MEMBER_0_FILL">
			<path fill="#F7AD92" d="M410.8,1376c-0.1-2-0.9-3.6-2.4-4.9c-1.5-1.3-3.2-1.9-5.1-1.8c-1.9,0.1-3.6,0.9-4.9,2.4
				c-1.3,1.5-1.9,3.2-1.8,5.1l3,60.7c0.1,2,0.9,3.6,2.4,4.9c1.5,1.3,3.2,1.9,5.1,1.8c2-0.1,3.6-0.9,4.9-2.4c1.3-1.5,1.9-3.2,1.8-5.1
				L410.8,1376z"/>
		</g>
	</g>
</g>
<g transform="matrix( -0.77447509765625, -0.1456146240234375, -0.06060791015625, 0.565582275390625, 1434.2,420.8) ">
	<g>
		<g id="Layer1_4_MEMBER_1_MEMBER_1_FILL">
			<path fill="#F7AD92" d="M1428.2,51.3c-1.9,0-3.6,0.6-5,1.9c-1.4,1.4-2.2,3-2.2,4.9l-2.3,60.8c0,2,0.6,3.7,1.9,5.1
				c1.4,1.4,3,2.2,4.9,2.2c2,0,3.7-0.6,5.1-1.9c1.4-1.4,2.2-3,2.2-4.9l2.3-60.8c0-2-0.6-3.7-1.9-5.1
				C1431.8,52.1,1430.2,51.3,1428.2,51.3z"/>
		</g>
	</g>
</g>
<g transform="matrix( 1.2156982421875, 0.073883056640625, -0.073883056640625, 1.2156982421875, -45,-45.4) ">
	<g>
		<g id="Layer1_4_MEMBER_1_MEMBER_2_FILL">
			<path fill="#9B9B9B" d="M322.8,219.9c0-1.2-0.6-2.2-1.7-3.1c-1.1-0.9-2.4-1.5-4-1.6c-1.6-0.2-2.9,0.1-4,0.8
				c-1.1,0.7-1.7,1.6-1.7,2.8l0.2,20.8l11.4,1.1L322.8,219.9z"/>
		</g>
	</g>
</g>
<g transform="matrix( 1.21826171875, 0, 0, 1.21826171875, -84.85,24.9) ">
	<g>
		<g id="Layer1_4_MEMBER_1_MEMBER_3_FILL">
			<path fill="#9B9B9B" d="M327.6,172.4c1.4,1.4,2.2,3.8,2.2,7c0.1,3.3-0.7,6-2.3,8.2c-1.6,2.2-0.9,3.5,2,4c2.9,0.4,5.5-0.2,7.8-2
				c2.4-1.7,3.8-4,4.2-6.9c0.5-2.9-0.5-5.4-2.7-7.7c-2.3-2.3-5.1-3.6-8.4-4.1C327.1,170.5,326.2,171,327.6,172.4z"/>
		</g>
	</g>
</g>
<g transform="matrix( 1.2156982421875, 0.073883056640625, -0.073883056640625, 1.2156982421875, -47.55,-44.95) ">
	<g>
		<g id="Layer1_4_MEMBER_1_MEMBER_4_FILL">
			<path fill="#F7AD92" d="M282.8,242.4l-2.9-9.7l-6.4,1.1c-6.3,4.1-6.7,6.4-1.1,6.9L282.8,242.4z"/>
		</g>
	</g>
</g>
<g transform="matrix( -0.77447509765625, -0.1605224609375, -0.1605224609375, 0.77447509765625, 1446,391.05) ">
	<g>
		<g id="Layer1_4_MEMBER_2_FILL">
			<path fill="#F7AD92" d="M1472.1,85.9c0-1.6-0.5-3-1.6-4.1c-1-1.1-2.3-1.7-3.9-1.7h-0.1c-1.5,0-2.8,0.6-3.9,1.7
				c-1.1,1.2-1.7,2.5-1.7,4.1v12.4c0,2.8,1.9,4.2,5.6,4.2h0.1c3.7,0,5.5-1.4,5.5-4.2V85.9z"/>
		</g>
	</g>
</g>
<g transform="matrix( -0.77532958984375, -0.225128173828125, -0.1713714599609375, 0.50927734375, 1446,478.9) ">
	<g>
		<g id="Layer1_4_MEMBER_3_MEMBER_0_FILL">
			<path fill="#F7AD92" d="M1488.4,184.5c-1.4-1.3-3.1-2-5-1.9c-2,0-3.6,0.8-5,2.2c-1.3,1.4-2,3.1-1.9,5.1l2.3,60.8
				c0,1.9,0.8,3.6,2.2,4.9c1.4,1.3,3.1,2,5.1,1.9c1.9,0,3.6-0.8,4.9-2.2c1.3-1.4,2-3.1,1.9-5.1l-2.3-60.8
				C1490.5,187.5,1489.8,185.8,1488.4,184.5z"/>
		</g>
	</g>
</g>
<g transform="matrix( 1.2156982421875, 0.073883056640625, -0.073883056640625, 1.2156982421875, -49.7,-47.75) ">
	<g>
		<g id="Layer1_4_MEMBER_3_MEMBER_1_FILL">
			<path fill="#9B9B9B" d="M268.2,216.7c-1.3,0.5-2.2,1.2-2.5,2.2l-6.3,18.6l11.4,2.8l6.3-18.6c0.3-1,0-2-0.9-3
				c-0.9-1-2.1-1.7-3.6-2.1C271.1,216.2,269.6,216.2,268.2,216.7z"/>
		</g>
	</g>
</g>
<g transform="matrix( 1.21826171875, 0, 0, 1.21826171875, -84.85,24.9) ">
	<g>
		<g id="Layer1_4_MEMBER_3_MEMBER_2_FILL">
			<path fill="#9B9B9B" d="M290.3,183.1c-1.9-2.6-1.9-5.2-0.1-7.9c1.9-2.7,3.3-4.7,4.4-6c1-1.3-0.7-1.4-5.1-0.3
				c-4.5,1.1-7.2,3-8.3,5.7c-1.1,2.7-1.1,5.4,0,8.1c1.1,2.7,3,4.6,5.7,5.7c2.7,1.1,4.4,1.1,5.2,0.1
				C292.8,187.5,292.3,185.7,290.3,183.1z"/>
		</g>
	</g>
</g>
<g transform="matrix( 0.22222900390625, 0.75872802734375, 0.75872802734375, -0.22222900390625, 684.1,237.4) ">
	<g>
		<g id="Layer1_4_MEMBER_3_MEMBER_3_FILL">
			<path fill="#F7AD92" d="M-97.9-483.5l-14,2.8l3.8,15.3l18.8,5.1l-6.4-9L-97.9-483.5z"/>
		</g>
	</g>
</g>
<g transform="matrix( 0.2024993896484375, 0.76422119140625, 0.76422119140625, -0.2024993896484375, 692.05,228) ">
	<g>
		<g id="Layer1_4_MEMBER_3_MEMBER_4_FILL">
			<path fill="#F7AD92" d="M-86-562.5c-0.5,0-0.9,0-1.4-0.1c-3.5,0.6-5.7,2.6-6.4,6.1c-0.1,0.5-0.2,0.9-0.2,1.4l3.3,58.3
				c1.3,4.9,3.6,7.8,6.8,8.8c0.4,0.1,0.8,0.2,1.2,0.3c4.7-0.3,7.2-2.9,7.4-7.6l-4.6-60.6c-0.4-3.4-2.2-5.5-5.4-6.4
				C-85.5-562.5-85.7-562.5-86-562.5z"/>
		</g>
	</g>
</g>
<g transform="matrix( -0.75140380859375, -0.2470703125, -0.2470703125, 0.75140380859375, 1452.65,430.25) ">
	<g>
		<g id="Layer1_4_MEMBER_4_MEMBER_0_FILL">
			<path fill="#F7AD92" d="M1454,162c-4.8,6.5-6.5,14.1-4.9,22.8c1.6,9.1,4.9,16.2,9.8,21.3c5.5,5.8,12.6,8.5,21.2,8
				c7.4-1.6,12.8-6.9,16.2-15.9c2.6-6.9,3.6-14.1,3-21.6c-0.7-8.7-3.3-15-8-18.9c-4.3-3.6-10.7-5.4-19.2-5.4
				C1464.7,152.5,1458.7,155.7,1454,162z"/>
		</g>
	</g>
</g>
<g transform="matrix( -0.75140380859375, -0.2470703125, -0.2470703125, 0.75140380859375, 1452.65,430.25) ">
	<g>
		<g id="Layer1_4_MEMBER_4_MEMBER_1_FILL">
			<path fill="#8C643E" d="M1491.4,149.7c-1.6-1.2-3.6-2.3-6.1-3.3c-4.9-2.1-9.5-3-13.9-2.7c-6.9,0.6-12.6,2.8-17.2,6.5
				c-1.4,1.2-2.7,2.5-3.7,3.8l-1.1,1.7c-0.5-0.2-1.2-0.5-2.1-0.7c-1.7-0.5-3.4-0.6-5-0.6c1.5,1.7,2.3,2.8,2.6,3.2
				c0.7,1.1,1.3,2.4,1.8,4c-1.4,3.7-2,9.1-1.6,16.1c0.5-0.4,1-0.7,1.5-0.8c0.7-0.2,1.4-0.3,2.3-0.1l0.6,0.1h0l0.9,0.3l1.2,0.7l1,0.9
				l0,0.1l0.2,0.2l0.1,0.1l0,0v0l0,0v8.2c0,1.2,0.3,2.1,0.8,2.7l0.4,0.4c0.2,0.2,0.5,0.3,1.1,0.5c0.6,0.2,1,0.3,1.4,0.3
				c1.1,0,2.1-0.4,2.9-1.2s1.3-1.7,1.3-2.7v-2.9c0-1.1,0.4-2.1,1.1-2.8c0.7-0.8,1.7-1.3,2.7-1.4l0.7-0.1c0-2.5,0-5.1,0-7.5
				c0-1.1,0.3-2,0.9-2.5c0.8-0.7,2.2-1.1,4.3-1.3h0.1l1.3-0.1l23.3-0.1l0.2-0.1c0.9-0.2,1.7-0.6,2.5-1c1.4-0.7,2.4-1.7,3.1-2.8
				c0.6-1,1-2,1.2-2.9v-1.2h-5.7l1-1.2c0.8-1.1,1.4-2.3,1.9-3.8c0.5-1.4,0.8-2.9,1.1-4.4l0.2-1.8H1491.4z"/>
		</g>
	</g>
</g>
<g transform="matrix( -0.75140380859375, -0.2470703125, -0.2470703125, 0.75140380859375, 1452.65,430.25) ">
	<g>
		<g id="Layer1_4_MEMBER_4_MEMBER_2_FILL">
			<path fill="#744E2A" d="M1494.3,166.9l-0.3,0c-2.5,0.4-9.8,1-21.9,1.9l23.2-0.1l0.2-0.1c0.9-0.2,1.7-0.6,2.5-1
				c1.4-0.7,2.4-1.7,3.1-2.8c0.6-1,1-2,1.2-2.9v-1.2c-0.8,0.9-1.8,1.9-2.8,2.8C1497.3,165.6,1495.6,166.7,1494.3,166.9z"/>
		</g>
	</g>
</g>
<g transform="matrix( -1.2172088623046875, 0.03668212890625, 0.03668212890625, 1.2172088623046875, 1718.75,54.25) ">
	<g>
		<g id="Layer1_4_MEMBER_4_MEMBER_3_MEMBER_0_FILL">
			<path fill="#8C643E" d="M1179.1,80.3c0.1-0.2,0.1-0.3,0-0.5c-0.1-0.2-0.2-0.3-0.4-0.4c-0.2,0-0.7-0.1-1.5-0.1
				c-0.8,0-1.6,0.2-2.3,0.7c-0.7,0.5-1.1,0.9-1.2,1.1c-0.1,0.2-0.1,0.4,0,0.6c0,0.2,0.2,0.3,0.4,0.4c0.2,0.1,0.3,0.1,0.5,0
				c0.9-1.1,2.2-1.6,4.1-1.5C1179,80.6,1179.1,80.4,1179.1,80.3z"/>
		</g>
	</g>
</g>
<g transform="matrix( -0.788543701171875, -0.0552520751953125, -0.0552520751953125, 0.788543701171875, 1441.95,345.6) ">
	<g>
		<g id="Layer1_4_MEMBER_4_MEMBER_4_MEMBER_0_FILL">
			<path fill="#8C643E" d="M1448.4-79.2c0.2,0.2,0.5,0.3,0.8,0.3l6.5-0.3c0.3,0,0.5-0.1,0.7-0.4c0.2-0.2,0.3-0.5,0.3-0.8
				c0-0.2-0.1-0.5-0.3-0.7c-0.2-0.2-0.4-0.3-0.6-0.3l-6.7,0.3c-0.3,0-0.5,0.1-0.7,0.4c-0.2,0.2-0.3,0.5-0.3,0.7
				C1448.1-79.6,1448.2-79.4,1448.4-79.2z"/>
		</g>
	</g>
</g>
<g transform="matrix( -0.75140380859375, -0.2470703125, -0.2470703125, 0.75140380859375, 1452.65,427.7) ">
	<g>
		<g id="Layer1_4_MEMBER_4_MEMBER_5_FILL">
			<path fill="#040505" d="M1471.3,186.3c0,0.4,0.1,0.8,0.4,1c0.3,0.3,0.6,0.4,1,0.4s0.8-0.1,1-0.4c0.3-0.3,0.4-0.6,0.4-1
				c0-0.4-0.1-0.7-0.4-1c-0.3-0.3-0.6-0.4-1-0.4s-0.7,0.1-1,0.4C1471.5,185.6,1471.3,185.9,1471.3,186.3z"/>
		</g>
	</g>
</g>
<g transform="matrix( -0.75140380859375, -0.2470703125, -0.2470703125, 0.75140380859375, 1452.85,427.45) ">
	<g>
		<g id="Layer1_4_MEMBER_4_MEMBER_6_FILL">
			<path fill="#040505" d="M1487,187c0,0.4,0.1,0.8,0.4,1c0.3,0.3,0.6,0.4,1,0.4c0.4,0,0.8-0.1,1-0.4c0.3-0.3,0.4-0.6,0.4-1
				c0-0.4-0.1-0.7-0.4-1c-0.3-0.3-0.6-0.4-1-0.4c-0.4,0-0.7,0.1-1,0.4C1487.2,186.2,1487,186.6,1487,187z"/>
		</g>
	</g>
</g>
<g transform="matrix( -0.75140380859375, -0.2470703125, -0.2470703125, 0.75140380859375, 1452.65,430.25) ">
	<g>
		<g id="Layer1_4_MEMBER_4_MEMBER_7_FILL">
			<path fill="#744E2A" d="M1499.7,155.7c0.7-1.9,1.1-3.9,1.2-6c-0.6,1.4-1.4,2.9-2.5,4.4c-2.1,3.1-4.2,5.1-6.4,6
				c-1.8,0.7-6.7,1.4-14.6,1.9l-11.3,0.6l2.2,0.7c1.7,0.5,3.2,0.8,4.4,0.9c2.8,0.3,6.6,0.3,11.5,0c6.9-0.5,11-1.6,12.3-3.3
				C1497.9,159.4,1498.9,157.7,1499.7,155.7z"/>
		</g>
	</g>
</g>
<g transform="matrix( -0.750823974609375, -0.247283935546875, -0.247283935546875, 0.750823974609375, 1452,430.25) ">
	<g>
		<g id="Layer1_4_MEMBER_4_MEMBER_8_MEMBER_0_FILL">
			<path fill="#F7AD92" d="M1443.1,182.2c1.9,5.1,2.8,7.6,2.8,7.7c1.4,2.9,2.8,3.7,4,2.2c2.6-3,3.9-6.9,4.1-11.7
				c-0.1-0.2-0.3-0.6-0.6-0.9c-0.6-0.8-1.4-1.5-2.3-2.2c-2.4-1.7-4.6-2-6.5-0.8C1442.6,177.6,1442.1,179.5,1443.1,182.2z"/>
		</g>
	</g>
</g>
<g transform="matrix( -0.750823974609375, -0.247283935546875, -0.247283935546875, 0.750823974609375, 1452,430.25) ">
	<g>
		<g id="Layer1_4_MEMBER_4_MEMBER_8_MEMBER_1_FILL">
			<path fill="#DB846E" d="M1447.4,181.5l3-0.4l-6.1-1l4.6,8.4L1447.4,181.5z"/>
		</g>
	</g>
</g>
<g transform="matrix( -0.75140380859375, -0.2470703125, -0.2470703125, 0.75140380859375, 1452.65,430.25) ">
	<g>
		<g id="Layer1_4_MEMBER_4_MEMBER_9_FILL">
			<path fill="#DB846E" d="M1480.9,196l2.7-0.6l-2.5-12.1L1480.9,196z"/>
		</g>
	</g>
</g>
<g transform="matrix( 1, 0, 0, 1, 0,-1.5) ">
	<g>
		<g id="Layer1_4_MEMBER_4_MEMBER_10_MEMBER_0_FILL">
			<path fill="#DB846E" d="M287.5,216.2L287.5,216.2c-0.8,0.2-1.4,0.7-1.9,1.4c-0.1,0.1-0.2,0.3-0.1,0.5c0,0.2,0.1,0.4,0.3,0.5
				c0.1,0.1,0.3,0.2,0.5,0.1c0.2,0,0.4-0.1,0.5-0.3c0.4-0.5,0.8-0.8,1.3-0.9h0c0.4-0.1,0.8-0.1,1.5-0.1c1.3,0,2.5,0.2,3.7,0.7l0,0
				c0.6,0.3,1.3,0.6,2.1,1c0.2,0.1,0.3,0.1,0.5,0.1c0.2-0.1,0.3-0.2,0.4-0.3c0.1-0.2,0.1-0.3,0.1-0.5c0-0.2-0.1-0.3-0.3-0.4
				c-0.8-0.4-1.5-0.8-2.2-1.1h0c-1.3-0.6-2.8-0.8-4.2-0.8C288.5,216,287.9,216.1,287.5,216.2z"/>
		</g>
	</g>
</g>
<g transform="matrix( 1, 0, 0, 1, -4.05,-1.7) ">
	<g>
		<g id="Layer1_4_MEMBER_5_FILL">
			<path fill="#FFFFFF" d="M311,253.4c-0.5,0-0.7,0.2-0.7,0.7v4.6c0,0.5,0.2,0.7,0.7,0.7h10c0.5,0,0.7-0.2,0.7-0.7v-4.6
				c0-0.5-0.2-0.7-0.7-0.7H311z"/>
		</g>
	</g>
</g>
<g transform="matrix( 1, 0, 0, 1, 278,-72.95) ">
	<g>
		<g id="Layer1_5_FILL_1_">
			<path fill="#B7B7B8" d="M261.7,307.9c0-20.2-7.1-37.4-21.4-51.7c-14.3-14.3-31.5-21.4-51.7-21.4c-20.2,0-37.4,7.1-51.7,21.4
				c-14.3,14.3-21.4,31.5-21.4,51.7c0,20.2,7.1,37.4,21.4,51.7c14.3,14.3,31.5,21.4,51.7,21.4c20.2,0,37.4-7.1,51.7-21.4
				C254.6,345.3,261.7,328.1,261.7,307.9z"/>
		</g>
	</g>
</g>
<g transform="matrix( -0.68621826171875, -0.3690185546875, -0.3690185546875, 0.68621826171875, 1702.9,514.9) ">
	<g>
		<g id="Layer1_6_MEMBER_0_MEMBER_0_FILL">
			<path fill="#F7AD92" d="M1599.8,460.2c-1.4-1.3-3.1-2-5-1.9c-2,0-3.6,0.8-5,2.2c-1.3,1.4-2,3.1-1.9,5.1l2.3,60.8
				c0,1.9,0.8,3.6,2.2,4.9c1.4,1.3,3.1,2,5.1,1.9c1.9,0,3.6-0.8,4.9-2.2c1.3-1.4,2-3.1,1.9-5.1l-2.3-60.8
				C1601.9,463.2,1601.2,461.5,1599.8,460.2z"/>
		</g>
	</g>
</g>
<g transform="matrix( -0.68621826171875, -0.3690185546875, -0.3690185546875, 0.68621826171875, 1313.15,482.5) ">
	<g>
		<g id="Layer1_6_MEMBER_0_MEMBER_1_FILL">
			<path fill="#D3D8B7" d="M1143.2,262.4c-0.1-2.4-1-4.5-2.8-6.2c-1.8-1.7-3.9-2.5-6.4-2.4c-2.4,0.1-4.5,1-6.2,2.8
				c-1.7,1.8-2.5,3.9-2.4,6.4l1.8,44.4l17.8-0.6L1143.2,262.4z"/>
		</g>
	</g>
</g>
<g transform="matrix( -0.68621826171875, -0.3690185546875, -0.3690185546875, 0.68621826171875, 1702.9,514.9) ">
	<g>
		<g id="Layer1_6_MEMBER_0_MEMBER_2_FILL">
			<path fill="#D3D8B7" d="M1587.3,447.7c-4.5,0-8.3,1.6-11.5,4.8c-3.2,3.2-4.8,7-4.8,11.4c0,4.5,1.6,8.3,4.8,11.5
				c3.2,3.2,7,4.8,11.5,4.8c4.5,0,8.3-1.6,11.5-4.8c3.2-3.2,4.7-7,4.7-11.5c0-4.5-1.6-8.3-4.7-11.4
				C1595.6,449.3,1591.8,447.7,1587.3,447.7z"/>
		</g>
	</g>
</g>
<g transform="matrix( -0.68621826171875, -0.3690185546875, -0.3690185546875, 0.68621826171875, 1702.9,514.9) ">
	<g transform="matrix( -1.13037109375, -0.6078643798828125, -0.6078643798828125, 1.13037109375, 2237.9,453.1) ">
		<path id="Layer1_6_MEMBER_0_MEMBER_3_1_STROKES" fill="none" stroke="#FFFFFF" stroke-width="3" stroke-miterlimit="10" d="
			M1605.2,500.9l-17.8,0.8"/>
	</g>
</g>
<g transform="matrix( 0.777435302734375, -0.04864501953125, -0.04864501953125, -0.777435302734375, 904.35,809.9) ">
	<g>
		<g id="Layer1_6_MEMBER_0_MEMBER_4_FILL">
			<path fill="#F7AD92" d="M-594.9,705c-1.3,1.5-1.9,3.2-1.7,5.1l4.6,60.7c0.1,1.9,0.9,3.6,2.4,4.8s3.2,1.9,5.1,1.8
				c1.9-0.1,3.6-0.9,4.8-2.4c1.3-1.5,1.9-3.2,1.8-5.1l-4.6-60.6c-0.1-1.9-0.9-3.6-2.4-4.9c-1.5-1.3-3.2-1.9-5.1-1.7
				C-592,702.8-593.7,703.6-594.9,705z"/>
		</g>
	</g>
</g>
<g transform="matrix( -0.663848876953125, 0.4083251953125, -0.4083251953125, -0.663848876953125, 1741.45,544.45) ">
	<g>
		<g id="Layer1_6_MEMBER_0_MEMBER_5_FILL">
			<path fill="#DB846E" d="M1244.1,1241c1.2-0.7,2.3-1.5,3.1-2.5l-4.7-10.8c-1.8,6.1-3.4,10.3-4.6,12.8
				C1239.6,1242.1,1241.7,1242.3,1244.1,1241z"/>
		</g>
	</g>
</g>
<g transform="matrix( 1, 0, 0, 1, 0,0) ">
	<g>
		<g id="Layer1_6_MEMBER_0_MEMBER_6_FILL">
			<path fill="#9ACDD2" d="M386.6,234.1l0,0.1c0.1,0.1,0.3,0.1,0.4,0l38.6-10.6c0.3-0.1,0.4-0.2,0.4-0.4l-18.6-9.8l-4.7,4.5
				l-5.8-1.5L386.6,234.1L386.6,234.1z"/>
			<path fill="#87C1C5" d="M386.6,234.2l0-0.1v0l10.4-17.5l-16.4-4.3c0,0.1,0,0.3,0,0.4l5.8,21.1c0,0.1,0.1,0.2,0.1,0.3L386.6,234.2
				 M420.2,201.8c0-0.2-0.1-0.3-0.3-0.4l-12.5,12l18.6,9.8c0-0.1,0-0.2,0-0.3L420.2,201.8z"/>
			<path fill="#D3EDF0" d="M419.9,201.5c-0.1,0-0.2,0-0.3,0L381,212c-0.1,0.1-0.2,0.2-0.3,0.2l16.4,4.3l5.8,1.5l4.7-4.5L419.9,201.5
				z"/>
		</g>
	</g>
</g>
<g transform="matrix( -0.663848876953125, 0.4083251953125, -0.4083251953125, -0.663848876953125, 1741.45,544.45) ">
	<g>
		<g id="Layer1_6_MEMBER_0_MEMBER_7_FILL">
			<path fill="#F7AD92" d="M1256.4,1223.9l-14,2.8l1.5,14.2l-3.3,7.2c-1.9,4.8-2.2,7.2-0.9,7.1c1.4-0.1,3-0.4,4.7-0.9
				c2.8-0.8,5-1.9,6.6-3.3c1.3-1.2,3-3.7,5-7.5c1-1.9,1.8-3.7,2.6-5.4L1256.4,1223.9z"/>
		</g>
	</g>
</g>
<g transform="matrix( 1, 0, 0, 1, 0,0) ">
	<g>
		<g id="Layer1_6_MEMBER_1_MEMBER_0_FILL">
			<path fill="#D3D8B7" d="M488.6,240.3c-2.3-2.5-5.2-3.9-8.6-4l-35.7-1.6c-3.5-0.2-6.6,1-9.2,3.4c-2.6,2.4-4,5.4-4.2,9l-1.2,46.3
				c20.3,12,40.6,13.9,60.8,5.8l1.5-49.8C492.1,245.9,491,242.9,488.6,240.3z"/>
		</g>
	</g>
</g>
<g transform="matrix( -1.1465301513671875, 0, 0, 1.1465301513671875, 1881.8,59.8) ">
	<g>
		<g id="Layer1_6_MEMBER_1_MEMBER_1_FILL">
			<path fill="#BDC59E" d="M1250.4,171.1c-1.1,0-2,0.4-2.7,1.1c-0.7,0.7-1.1,1.6-1.1,2.7v1.5c0,1.1,0.4,2,1.1,2.7
				c0.7,0.7,1.6,1.1,2.7,1.1h5.9c1.1,0,2-0.4,2.7-1.1c0.7-0.7,1.1-1.6,1.1-2.7V175c0-1.1-0.4-2-1.1-2.7c-0.7-0.7-1.6-1.1-2.7-1.1
				H1250.4z"/>
		</g>
	</g>
</g>
<g transform="matrix( -1.1465301513671875, 0, 0, 1.1465301513671875, 1881.8,59.8) ">
	<g>
		<g id="Layer1_6_MEMBER_1_MEMBER_2_FILL">
			<path fill="#BDC59E" d="M1260.8,189.5c0-1.1-0.4-2-1.1-2.7c-0.7-0.7-1.6-1.1-2.7-1.1h-5.9c-1.1,0-2,0.4-2.7,1.1
				c-0.7,0.7-1.1,1.6-1.1,2.7v3.5c0,1.1,0.4,2,1.1,2.7c0.7,0.7,1.6,1.1,2.7,1.1h5.9c1.1,0,2-0.4,2.7-1.1c0.7-0.7,1.1-1.6,1.1-2.7
				V189.5z"/>
		</g>
	</g>
</g>
<g transform="matrix( -1.1465301513671875, 0, 0, 1.1465301513671875, 1876.65,59.35) ">
	<g>
		<g id="Layer1_6_MEMBER_1_MEMBER_3_FILL">
			<path fill="#BDC59E" d="M1224.2,172.6c-2.5,0-3.8,1.3-3.8,3.8v17.1c0,2.5,1.3,3.8,3.8,3.8h9.9c2.5,0,3.8-1.3,3.8-3.8v-17.1
				c0-2.5-1.3-3.8-3.8-3.8H1224.2z"/>
		</g>
	</g>
</g>
<g transform="matrix( -0.7799072265625, -0.033935546875, -0.033935546875, 0.7799072265625, 1671.2,339.6) ">
	<g>
		<g id="Layer1_6_MEMBER_2_FILL">
			<path fill="#FFFFFF" d="M1561.1-61.5c2.1-1.3,3.1-3,3.1-4.9s-1-3.5-3.1-4.9c-2.1-1.4-4.6-2-7.5-2c-2.9,0-5.4,0.7-7.5,2
				c-2.1,1.3-3.1,3-3.1,4.9s1,3.5,3.1,4.9c2.1,1.4,4.5,2,7.5,2C1556.6-59.5,1559.1-60.1,1561.1-61.5z"/>
		</g>
	</g>
</g>
<g transform="matrix( -0.7799072265625, -0.033935546875, -0.033935546875, 0.7799072265625, 1671.2,339.6) ">
	<g>
		<g id="Layer1_6_MEMBER_3_FILL">
			<path fill="#F7AD92" d="M1559.8-80.2c0-1.6-0.5-3-1.6-4.1c-1-1.1-2.3-1.7-3.9-1.7h-0.1c-1.5,0-2.8,0.6-3.9,1.7
				c-1.1,1.2-1.7,2.5-1.7,4.1v12.4c0,2.8,1.9,4.2,5.6,4.2h0.1c3.7,0,5.5-1.4,5.5-4.2V-80.2z"/>
		</g>
	</g>
</g>
<g transform="matrix( -0.7034149169921875, -0.33868408203125, -0.33868408203125, 0.7034149169921875, 1692.2,479.5) ">
	<g>
		<g id="Layer1_6_MEMBER_4_FILL">
			<path fill="#F7AD92" d="M1545.5,343.6c-4.8,6.5-6.5,14.1-4.9,22.8c1.6,9.1,4.9,16.2,9.8,21.3c5.5,5.8,12.6,8.5,21.2,8
				c7.4-1.6,12.8-6.9,16.2-15.9c2.6-6.9,3.6-14.1,3-21.6c-0.7-8.7-3.3-15-8-18.9c-4.3-3.6-10.7-5.4-19.2-5.4
				C1556.3,334.1,1550.2,337.3,1545.5,343.6z"/>
		</g>
	</g>
</g>
<g transform="matrix( -1.0936279296875, -0.34405517578125, -0.34405517578125, 1.0936279296875, 1976.7,242.15) ">
	<g>
		<g id="Layer1_6_MEMBER_5_FILL">
			<path fill="#6E6F73" d="M1259.7,338.9c-4.6,1.1-8.3,3.1-11,6.1c-0.9,0.9-1.6,1.9-2.1,2.9l-0.6,1.3c-0.4-0.1-0.8-0.2-1.3-0.2
				l0.6,2.3l-1.5,0.3c0.4,0.5,0.7,1.1,0.9,1.8c-0.6,2.6-0.4,6.3,0.5,11c0.3-0.3,0.6-0.6,0.9-0.7c0.5-0.2,1-0.3,1.5-0.3l0.4,0
				l1.5,0.5l0.8,0.5l0,0l0.2,0.2l0,0h0v0l0.8,5.5c0.1,0.8,0.4,1.4,0.8,1.7l0.3,0.2c0.1,0.1,0.4,0.2,0.7,0.2c0.4,0.1,0.7,0.1,1,0
				c0.7-0.1,1.4-0.5,1.9-1.1c0.5-0.6,0.7-1.2,0.6-1.9l-0.3-1.9c-0.1-0.8,0.1-1.4,0.5-2c0.4-0.7,0.9-1,1.7-1.2l0.5-0.1
				c-0.2-1.7-0.5-3.4-0.7-5.1c-0.1-0.7,0-1.3,0.4-1.8c0.5-0.5,1.4-1,2.7-1.4l0.1,0l0.8-0.2l15.7-2.3l0.2-0.1
				c0.5-0.2,1.1-0.6,1.6-0.9c0.2-0.2,0.3-0.3,0.4-0.4l-1.2,0.3l-2.8-11.8l-2.7,0.4c-1.2-0.6-2.7-1.1-4.4-1.6
				C1265.8,338.4,1262.6,338.3,1259.7,338.9z"/>
		</g>
	</g>
</g>
<g transform="matrix( 0.98101806640625, 0.593109130859375, -0.593109130859375, 0.98101806640625, 576.35,-469.85) ">
	<g>
		<g id="Layer1_6_MEMBER_6_FILL">
			<path fill="#744E2A" d="M208.8,543.8h-0.2c-0.9-0.1-2.1-0.7-3.6-1.8v2c0.3,0.2,0.7,0.4,1,0.6c0.6,0.2,1.2,0.4,1.8,0.5l0.2,0
				l15.7-1.5C215.5,543.9,210.6,543.9,208.8,543.8z"/>
		</g>
	</g>
</g>
<g transform="matrix( -0.7034149169921875, -0.33868408203125, -0.33868408203125, 0.7034149169921875, 1690.9,475.25) ">
	<g>
		<g id="Layer1_6_MEMBER_7_FILL">
			<path fill="#040505" d="M1561.9,368.3c0,0.4,0.1,0.8,0.4,1c0.3,0.3,0.6,0.4,1,0.4c0.4,0,0.8-0.1,1-0.4c0.3-0.3,0.4-0.6,0.4-1
				c0-0.4-0.1-0.7-0.4-1c-0.3-0.3-0.6-0.4-1-0.4c-0.4,0-0.7,0.1-1,0.4C1562.1,367.6,1561.9,367.9,1561.9,368.3z"/>
		</g>
	</g>
</g>
<g transform="matrix( -0.7033538818359375, -0.33856201171875, -0.33856201171875, 0.7033538818359375, 1687.45,480.4) ">
	<g>
		<g id="Layer1_6_MEMBER_8_MEMBER_0_FILL">
			<path fill="#8C643E" d="M1558.5,359.8c0.2,0.2,0.5,0.3,0.8,0.3l6.5-0.3c0.3,0,0.5-0.1,0.7-0.4c0.2-0.2,0.3-0.5,0.3-0.8
				c0-0.2-0.1-0.5-0.3-0.7c-0.2-0.2-0.4-0.3-0.6-0.3l-6.7,0.3c-0.3,0-0.5,0.1-0.7,0.4c-0.2,0.2-0.3,0.5-0.3,0.7
				C1558.1,359.4,1558.2,359.6,1558.5,359.8z"/>
		</g>
	</g>
</g>
<g transform="matrix( -0.7034149169921875, -0.33868408203125, -0.33868408203125, 0.7034149169921875, 1690.25,475.45) ">
	<g>
		<g id="Layer1_6_MEMBER_9_FILL">
			<path fill="#040505" d="M1577.4,368.7c0,0.4,0.1,0.8,0.4,1c0.3,0.3,0.6,0.4,1,0.4c0.4,0,0.8-0.1,1-0.4c0.3-0.3,0.4-0.6,0.4-1
				c0-0.4-0.1-0.7-0.4-1c-0.3-0.3-0.6-0.4-1-0.4c-0.4,0-0.7,0.1-1,0.4C1577.5,367.9,1577.4,368.3,1577.4,368.7z"/>
		</g>
	</g>
</g>
<g transform="matrix( -0.7033538818359375, -0.33856201171875, -0.33856201171875, 0.7033538818359375, 1688.75,482.5) ">
	<g>
		<g id="Layer1_6_MEMBER_10_MEMBER_0_FILL">
			<path fill="#8C643E" d="M1583.4,359.6l0.2,0c0.2,0,0.5-0.1,0.6-0.3c0.2-0.2,0.3-0.4,0.3-0.7c0-0.3-0.1-0.5-0.3-0.7
				c-0.2-0.2-0.5-0.3-0.7-0.4l-6.5-0.3c-0.3,0-0.6,0.1-0.8,0.3c-0.2,0.2-0.3,0.5-0.4,0.7c0,0.3,0.1,0.6,0.3,0.8
				c0.2,0.2,0.5,0.3,0.8,0.4L1583.4,359.6z"/>
		</g>
	</g>
</g>
<g transform="matrix( 0.98101806640625, 0.593109130859375, -0.593109130859375, 0.98101806640625, 576.35,-469.85) ">
	<g>
		<g id="Layer1_6_MEMBER_11_FILL">
			<path fill="#744E2A" d="M223,540.5c0.8-0.2,1.8-0.5,2.9-0.9l1.5-0.6l-7.6,0.4c-5.4,0.1-8.7,0-10-0.4c-1.2-0.4-2.4-1.2-3.7-2.5
				v2.7c0.2,0.2,0.4,0.4,0.6,0.6c1,1.1,3.8,1.6,8.6,1.5C218.5,541.2,221.1,540.9,223,540.5z"/>
		</g>
	</g>
</g>
<g transform="matrix( -0.7033538818359375, -0.33856201171875, -0.33856201171875, 0.7033538818359375, 1691.1,479.75) ">
	<g>
		<g id="Layer1_6_MEMBER_12_MEMBER_0_FILL">
			<path fill="#F7AD92" d="M1534,362.9c1.9,5.1,2.8,7.6,2.8,7.7c1.4,2.9,2.8,3.7,4,2.2c2.6-3,3.9-6.9,4.1-11.7
				c-0.1-0.2-0.3-0.6-0.6-0.9c-0.6-0.8-1.4-1.5-2.3-2.2c-2.4-1.7-4.6-2-6.5-0.8C1533.5,358.3,1533,360.2,1534,362.9z"/>
		</g>
	</g>
</g>
<g transform="matrix( -0.7033538818359375, -0.33856201171875, -0.33856201171875, 0.7033538818359375, 1691.1,479.75) ">
	<g>
		<g id="Layer1_6_MEMBER_12_MEMBER_1_FILL">
			<path fill="#DB846E" d="M1538.3,362.2l3-0.4l-6.1-1l4.6,8.4L1538.3,362.2z"/>
		</g>
	</g>
</g>
<g transform="matrix( 1, 0, 0, 1, 0,-1.7) ">
	<g>
		<g id="Layer1_6_MEMBER_13_FILL">
			<path fill="#DB846E" d="M462.7,205.4l-5.9,7.7l1.7,1.4L462.7,205.4z"/>
		</g>
	</g>
</g>
<g transform="matrix( 0.5128173828125, 0.587554931640625, 0.587554931640625, -0.5128173828125, 1031,502.45) ">
	<g>
		<g id="Layer1_6_MEMBER_14_MEMBER_0_FILL">
			<path fill="#F7AD92" d="M-635.1-333c-0.1-2-0.9-3.6-2.4-4.9c-1.5-1.3-3.2-1.9-5.1-1.8c-1.9,0.1-3.6,0.9-4.9,2.4
				c-1.3,1.5-1.9,3.2-1.8,5.1l3,60.7c0.1,2,0.9,3.6,2.4,4.9c1.5,1.3,3.2,1.9,5.1,1.8c2-0.1,3.6-0.9,4.9-2.4c1.3-1.5,1.9-3.2,1.8-5.1
				L-635.1-333z"/>
		</g>
	</g>
</g>
<g transform="matrix( -0.75799560546875, 0.18341064453125, 0.18341064453125, 0.75799560546875, 1621.05,260.35) ">
	<g>
		<g id="Layer1_6_MEMBER_14_MEMBER_1_FILL">
			<path fill="#F7AD92" d="M1404.9-362.5c-1.9,0-3.6,0.6-5,1.9c-1.4,1.4-2.2,3-2.2,4.9l-2.3,60.8c0,2,0.6,3.7,1.9,5.1
				c1.4,1.4,3,2.2,4.9,2.2c2,0,3.7-0.6,5.1-1.9c1.4-1.4,2.2-3,2.2-4.9l2.3-60.8c0-2-0.6-3.7-1.9-5.1
				C1408.5-361.7,1406.8-362.5,1404.9-362.5z"/>
		</g>
	</g>
</g>
<g transform="matrix( -0.75799560546875, 0.18341064453125, 0.18341064453125, 0.75799560546875, 1385.8,477.8) ">
	<g>
		<g id="Layer1_6_MEMBER_14_MEMBER_2_FILL">
			<path fill="#D3D8B7" d="M1040.9-564.4c-1.8,1.7-2.8,3.7-2.8,6.2l-1.8,44.4l17.8,0.6l1.8-44.4c0.1-2.4-0.7-4.6-2.4-6.4
				c-1.7-1.8-3.7-2.8-6.2-2.8C1044.8-566.9,1042.6-566.1,1040.9-564.4z"/>
		</g>
	</g>
</g>
<g transform="matrix( 1.1446990966796875, 0.053680419921875, -0.053680419921875, 1.1446990966796875, 351.6,25.75) ">
	<g>
		<g id="Layer1_6_MEMBER_14_MEMBER_3_FILL">
			<path fill="#D3D8B7" d="M122.8,178.4c-2.9,0.9-5.1,2.6-6.6,5.3c-1.4,2.7-1.7,5.5-0.9,8.4c0.9,2.9,2.6,5.1,5.3,6.6
				c2.7,1.5,5.5,1.8,8.4,0.9c2.9-0.8,5.1-2.6,6.5-5.3c1.5-2.7,1.8-5.5,0.9-8.4c-0.8-2.9-2.6-5.1-5.3-6.6
				C128.5,177.9,125.7,177.6,122.8,178.4z"/>
		</g>
	</g>
</g>
<g transform="matrix( 0.43682861328125, -0.6456146240234375, 0.6456146240234375, 0.43682861328125, 1036.35,588.6) ">
	<g>
		<g id="Layer1_6_MEMBER_14_MEMBER_4_FILL">
			<path fill="#DB846E" d="M-8.8-744.5l3.5,2.1c2.6,1,4.6,0.6,6.1-1.3c-0.9-1.4-2.3-3.9-4-7.3l-2.2-4.8L-8.8-744.5z"/>
		</g>
	</g>
</g>
<g transform="matrix( 0.43682861328125, -0.6456146240234375, 0.6456146240234375, 0.43682861328125, 1036.35,588.6) ">
	<g>
		<g id="Layer1_6_MEMBER_14_MEMBER_5_FILL">
			<path fill="#F7AD92" d="M-5.4-756.8l-14.2-1.1l-0.4,14.3l3.2,5c2.4,3.6,4.4,5.8,5.9,6.8c1.7,1.2,4,2,6.9,2.5
				c1.8,0.3,3.4,0.4,4.8,0.3c1.3-0.1,0.7-2.4-1.8-6.9l-4.1-6.8L-5.4-756.8z"/>
		</g>
	</g>
</g>
<g transform="matrix( -0.485809326171875, 1.0383148193359375, 1.0383148193359375, 0.485809326171875, 1197.25,-163.65) ">
	<g transform="matrix( -0.3696746826171875, 0.7901153564453125, 0.7901153564453125, 0.3696746826171875, 571.9,-885.45) ">
		<path id="Layer1_6_MEMBER_14_MEMBER_6_1_STROKES" fill="none" stroke="#FFFFFF" stroke-width="3" stroke-miterlimit="10" d="
			M601.6-384.8l8-9.1"/>
	</g>
</g>
<g transform="matrix( 1, 0, 0, 1, 0,0) ">
	<g>
		<g id="Layer1_6_MEMBER_14_MEMBER_7_MEMBER_0_MEMBER_0_FILL">
			<path fill="#F7AD92" d="M551,249c-0.2,0-0.5,0-0.7-0.1c0.1,0.6-0.2,1.1-0.8,1.4c0,0-0.3,0.1-0.8,0.2c-0.1,0-0.2,0-0.3,0
				c0.4,0.8,0.2,1.5-0.6,1.9c0,0-0.3,0.1-0.8,0.2c-0.4,0-0.8-0.1-1-0.4c-0.3,0.6-0.6,1.3-0.8,2.1c-0.9,3.1-0.6,6,0.9,8.9
				c1.5,2.8,3.8,4.7,6.9,5.6c0.1,0,0.1,0,0.1,0c0-0.2,0-0.3,0.1-0.5c0.1-0.5,0.4-0.8,0.8-1c0.3-0.2,0.6-0.3,1-0.2
				c0-0.3,0.1-0.7,0.2-1c0.3-1.1,1-1.9,2-2.5c1-0.5,2.1-0.7,3.2-0.3c0.7,0.2,1.3,0.5,1.7,1c0.2-0.5,0.6-0.9,1.1-1.2
				c0.6-0.3,1.2-0.4,1.8-0.2c0.5,0.2,0.9,0.5,1.3,1c0.5-0.9,0.9-1.8,1.2-2.8c0.9-3.1,0.6-6-0.9-8.9c-1.5-2.8-3.8-4.7-6.9-5.6
				c-1.5-0.5-3-0.6-4.5-0.4c0.2,0.6-0.1,1.2-0.8,1.6c0,0-0.3,0.1-0.7,0.2c-0.4,0-0.7-0.1-0.9-0.3c0.2,0.6-0.1,1.1-0.8,1.5
				C551.8,248.8,551.5,248.9,551,249z"/>
		</g>
	</g>
</g>
<g transform="matrix( 1, 0, 0, 1, 0,0) ">
	<g>
		<g id="Layer1_6_MEMBER_14_MEMBER_7_MEMBER_0_MEMBER_1_FILL">
			<path fill="#DC453A" d="M559.7,246.4c-1-0.3-2-0.5-3-0.5c0.2,0.5,0.3,1.1,0.2,1.7c-0.2,0.6-0.6,1.1-1.2,1.4
				c-0.5,0.3-1,0.4-1.6,0.2c0.1,0.6,0.1,1.3-0.1,1.9c-0.3,1.1-1,1.9-2.1,2.5c-1,0.6-2,0.7-3.1,0.3c-0.3-0.1-0.7-0.2-1-0.4
				c-0.2,0.3-0.4,0.6-0.7,0.8c-0.4,0.2-0.8,0.3-1.3,0.1c-0.2,0-0.3-0.1-0.4-0.2c0,0-0.1,0.1-0.1,0.1c-0.9,3.1-0.6,6.1,1,8.9
				c1.6,2.8,3.9,4.7,6.9,5.5c3.1,0.9,6,0.6,8.9-0.9c2.8-1.5,4.7-3.8,5.6-6.9c0.9-3.1,0.6-6-0.9-8.9
				C565.1,249.2,562.8,247.3,559.7,246.4z"/>
		</g>
	</g>
</g>
<g transform="matrix( -0.549163818359375, -1.0062103271484375, -1.0062103271484375, 0.549163818359375, 2323.6,1103.2) ">
	<g>
		<g id="Layer1_6_MEMBER_14_MEMBER_7_MEMBER_1_FILL">
			<path fill="#81A98F" d="M1383.4,983c-0.5,1.2-0.8,2.5-0.8,4.2s0.3,3,0.8,4.1c0.6,1.2,1.2,1.7,2,1.7s1.4-0.6,2-1.7
				c0.6-1.1,0.8-2.5,0.8-4.1s-0.3-3-0.8-4.2c-0.5-1.1-1.2-1.7-2-1.7C1384.6,981.3,1384,981.9,1383.4,983z"/>
		</g>
	</g>
</g>
<g transform="matrix( 1, 0, 0, 1, 0,0) ">
	<g>
		<g id="Layer1_6_MEMBER_15_FILL">
			<path fill="#698FC7" d="M455.3,184.5c-1.8-0.4-4.6-0.8-8.4-1.3c-6.3-0.7-9.3-0.5-9.1,0.9l1.6,1c2.9,1.3,10.4,4,22.4,8.2
				c8.7,3,14.6,4.9,17.9,5.9l-25.3-12.4C454.7,186.1,455,185.3,455.3,184.5z"/>
			<path fill="#475AA6" d="M485.3,172.9c-5.5-2.6-11.1-3-16.8-1c-5.7,2-9.9,5.7-12.6,11.1c-0.2,0.5-0.4,0.9-0.6,1.4
				c-0.4,0.8-0.6,1.6-0.8,2.4l25.3,12.4l13.5,6.6c0.7-1.1,1.4-2.2,2-3.5c2.6-5.4,3-11,1-16.7C494.4,179.8,490.7,175.6,485.3,172.9z"
				/>
		</g>
	</g>
</g>
<g transform="matrix( -0.6823577880859375, -0.0984649658203125, -0.16357421875, 1.13494873046875, 2014.65,97.1) ">
	<g>
		<g id="Layer1_6_MEMBER_16_FILL">
			<path fill="#F7AD92" d="M2219,288.4c-1.2,1.2-1.9,2.7-1.9,4.5c0,1.8,0.6,3.3,1.9,4.5c1.2,1.2,2.7,1.9,4.5,1.9
				c1.8,0,3.4-0.6,4.8-1.9c1.4-1.3,2.3-2.8,2.5-4.5c0.3-1.7-0.4-3.2-2-4.4c-1.6-1.2-3.3-1.8-5.2-1.8
				C2221.8,286.6,2220.2,287.2,2219,288.4z"/>
		</g>
	</g>
</g>
<g transform="matrix( 1, 0, 0, 1, 0,0) ">
	<g>
		<g id="Layer1_6_MEMBER_17_FILL">
			<path fill="#DB846E" d="M452.5,212.2c0-0.2-0.1-0.3-0.2-0.5c0-0.1-0.4-0.2-1.3-0.5c-0.1,0-0.3,0-0.4,0c-0.1,0.1-0.2,0.1-0.3,0.2
				c-0.1,0.1-0.1,0.3-0.1,0.4c0,0-0.1,0-0.2,0.1c-0.1,0.1-0.2,0.3-0.2,0.4c0,0.2,0.1,0.4,0.2,0.5c0.4,0.5,0.8,0.7,1.1,0.6
				c0.2,0,0.3-0.1,0.5-0.2c0,0,0.1-0.1,0.1-0.1c0.2,0.3,0.3,0.6,0.5,1c0.1,0.2,0.2,0.3,0.4,0.3c0.2,0.1,0.4,0,0.5-0.1
				c0.2-0.1,0.3-0.2,0.3-0.4c0.1-0.2,0-0.3-0.1-0.5C452.8,212.6,452.5,212.1,452.5,212.2 M451.4,212.3c-0.1,0-0.2-0.1-0.3-0.1v0v0h0
				l0,0l0.4-0.3C451.5,212,451.5,212.1,451.4,212.3 M451.3,212.6c0,0-0.1,0-0.1,0c0,0,0.1-0.1,0.1-0.1
				C451.3,212.6,451.3,212.6,451.3,212.6z"/>
		</g>
	</g>
</g>
</svg>
