<?xml version="1.0" encoding="utf-8"?>
<!-- Generator: Adobe Illustrator 19.2.1, SVG Export Plug-In . SVG Version: 6.00 Build 0)  -->
<!DOCTYPE svg PUBLIC "-//W3C//DTD SVG 1.1//EN" "http://www.w3.org/Graphics/SVG/1.1/DTD/svg11.dtd">
<svg version="1.1" id="Layer_1" xmlns="http://www.w3.org/2000/svg" xmlns:xlink="http://www.w3.org/1999/xlink" x="0px" y="0px"
	 viewBox="0 0 595.3 421" style="enable-background:new 0 0 595.3 421;" xml:space="preserve">
<style type="text/css">
	.st0{fill:#8C643E;}
	.st1{fill:#FFE3A5;}
	.st2{fill:#4F4F4F;}
	.st3{fill:#81A98F;}
	.st4{fill:#FFFFFF;}
	.st5{fill:#DC453A;}
	.st6{fill:#4BA57B;}
	.st7{fill:#383660;}
	.st8{fill:#EE3F5A;}
	.st9{fill:#C0E4EE;}
	.st10{fill:#C3996C;}
	.st11{fill:#FFDA83;}
	.st12{fill:#698FC7;}
	.st13{fill:#BDC59E;}
	.st14{fill:#9C6A44;}
	.st15{fill:#465AA6;}
	.st16{fill:#B5B5B5;}
	.st17{fill:#F7AD92;}
	.st18{fill:#DB846E;}
	.st19{fill:none;stroke:#698FC7;stroke-width:3;stroke-miterlimit:10;}
	.st20{fill:#744E2A;}
	.st21{fill:#040505;}
	.st22{fill:#4F856D;}
</style>
<g transform="matrix( 2.132568359375, 0, 0, 0.36883544921875, -1434.85,507.9) ">
	<g>
		<g id="Layer1_0_FILL_8_">
			<path class="st0" d="M869.4-605.3l-52.3-27.3l-54,23.9l-14.9,57.1l35.3,47.3l59,1.9l38.2-45L869.4-605.3z"/>
		</g>
	</g>
</g>
<g transform="matrix( 1, 0, 0, 1, 0,0) ">
	<g>
		<g id="Layer1_1_FILL_4_">
			<path class="st1" d="M402.2,263.9L307.4,62.6l-127,182.7L402.2,263.9z"/>
		</g>
	</g>
</g>
<g transform="matrix( 1, 0, 0, 1, 0,0) ">
	<g>
		<g id="Layer1_2_FILL_5_">
			<path class="st2" d="M341,268.1c-0.3,0.4-0.4,0.8-0.3,1.3c0.3,1.7,0.6,8.6,0.9,20.5l0,0c0,4.3-0.1,7.1-0.2,8.5l0,0
				c-0.2,2.4-0.6,4.3-1.4,5.7l0,0c-1.8,2.9-6,4.4-12.6,4.4c-7.2,0-12.9-0.6-17.2-1.7c-4.8-1.3-7.3-3.3-7.5-6c0-2.9,0.6-9.7,1.8-20.2
				c1.2-10.5,1.8-16,1.7-16.8c0-0.5-0.2-0.9-0.6-1.2c-0.4-0.3-0.8-0.5-1.3-0.4c-0.5,0-0.9,0.2-1.2,0.6c-0.3,0.4-0.5,0.8-0.4,1.3
				c0,0.7-0.5,6.1-1.7,16.1c-1.2,10.7-1.8,17.6-1.8,20.6c-0.2,4.5,3.2,7.6,10.2,9.5c4.5,1.2,10.5,1.8,18.1,1.8
				c8.4,0,13.6-2.1,15.7-6.2l0,0c1-1.7,1.6-4.1,1.8-7.1l0,0c0.1-1.4,0.2-4.3,0.2-8.8l0,0c-0.3-12.2-0.6-19.2-0.9-21
				c-0.1-0.5-0.3-0.9-0.7-1.1c-0.4-0.3-0.8-0.4-1.3-0.3C341.7,267.5,341.3,267.8,341,268.1z"/>
		</g>
	</g>
</g>
<g transform="matrix( 1, 0, 0, 1, 0,0) ">
	<g>
		<g id="Layer1_3_FILL_5_">
			<path class="st2" d="M355.9,263.8c-0.3,0.4-0.4,0.8-0.3,1.3c0.2,1.5,0.5,7.4,0.7,17.7l0,0c0,3.7,0,6.2-0.1,7.3l0,0
				c-0.2,2.1-0.6,3.7-1.2,4.8l0,0c-1.5,2.4-5.1,3.7-10.7,3.7c-6.2,0-11.2-0.5-14.8-1.5c-4-1.1-6.2-2.7-6.3-5c0-2.5,0.5-8.4,1.6-17.5
				c1-9.1,1.5-13.9,1.5-14.6c0-0.5-0.2-0.9-0.6-1.2c-0.4-0.3-0.8-0.4-1.3-0.4s-0.9,0.2-1.2,0.6c-0.3,0.4-0.5,0.8-0.4,1.3
				c0,0.6-0.5,5.2-1.5,13.9c-1.1,9.3-1.6,15.3-1.6,17.9c-0.2,4,2.8,6.8,9,8.4c3.9,1,9.1,1.6,15.7,1.6c7.4,0,12-1.8,13.8-5.5l0,0
				c0.8-1.5,1.4-3.6,1.6-6.2l0,0c0.1-1.2,0.1-3.7,0.1-7.6l0,0c-0.3-10.6-0.5-16.7-0.8-18.2c-0.1-0.5-0.3-0.9-0.7-1.1
				c-0.4-0.3-0.8-0.4-1.3-0.3C356.6,263.1,356.2,263.4,355.9,263.8z"/>
		</g>
	</g>
</g>
<g transform="matrix( 1, 0, 0, 1, 0,0) ">
	<g>
		<g id="Layer1_4_FILL_4_">
			<path class="st3" d="M358.1,260.8c0-2.7-2.7-5-8-6.9s-11.8-2.8-19.4-2.8s-14,0.9-19.4,2.8c-5.3,1.9-8,4.2-8,6.9
				c0,2.7,2.7,5,8,6.9s11.8,2.8,19.4,2.8c2.4,0,4.6-0.1,6.7-0.3c4.7-0.4,8.9-1.3,12.6-2.6c4.5-1.6,7.1-3.5,7.8-5.7
				C358,261.8,358.1,261.3,358.1,260.8 M348.7,263.4c0.2-0.1,0.5,0,0.7,0.1s0.3,0.3,0.4,0.6c0.1,0.2,0,0.5-0.1,0.7s-0.3,0.3-0.6,0.4
				c-0.8,0.2-1.7,0.3-2.6,0.5c-0.2,0-0.5,0-0.7-0.2c-0.2-0.1-0.3-0.3-0.4-0.6c0-0.2,0-0.5,0.2-0.7c0.1-0.2,0.3-0.3,0.6-0.4
				C347.2,263.8,348,263.5,348.7,263.4 M353.4,262.1c0.2,0.1,0.4,0.2,0.6,0.4c0.1,0.2,0.2,0.4,0.1,0.7c-0.1,0.2-0.2,0.4-0.4,0.6
				c-0.4,0.3-1.1,0.5-1.9,0.8c-0.2,0.1-0.4,0.1-0.7-0.1c-0.2-0.1-0.4-0.3-0.4-0.5c-0.1-0.2,0-0.4,0.1-0.7c0.1-0.2,0.3-0.4,0.5-0.4
				c0.7-0.2,1.2-0.4,1.5-0.6C352.9,262.1,353.1,262,353.4,262.1 M328,265.5c0.2,0,0.5,0.1,0.6,0.2c0.2,0.2,0.3,0.4,0.3,0.6
				s-0.1,0.5-0.3,0.6c-0.2,0.2-0.4,0.3-0.6,0.3c-0.9,0-1.8,0-2.7-0.1c-0.2,0-0.4-0.1-0.6-0.3c-0.2-0.2-0.2-0.4-0.2-0.6
				s0.1-0.4,0.3-0.6c0.2-0.2,0.4-0.2,0.6-0.2C326.3,265.5,327.1,265.5,328,265.5 M329.8,266.4c0-0.2,0.1-0.5,0.2-0.6
				c0.2-0.2,0.4-0.3,0.6-0.3c0.9,0,1.8-0.1,2.6-0.2c0.2,0,0.5,0,0.6,0.2c0.2,0.2,0.3,0.4,0.3,0.6s0,0.5-0.2,0.6
				c-0.2,0.2-0.4,0.3-0.6,0.3c-0.9,0.1-1.8,0.2-2.7,0.2c-0.2,0-0.5-0.1-0.6-0.2C329.9,266.8,329.8,266.6,329.8,266.4 M335.4,266.6
				c-0.2-0.2-0.3-0.4-0.3-0.6s0-0.5,0.2-0.7s0.4-0.3,0.6-0.3c0.9-0.1,1.7-0.2,2.6-0.3c0.3,0,0.5,0,0.7,0.2s0.3,0.3,0.3,0.6
				c0,0.3,0,0.5-0.2,0.7s-0.3,0.3-0.6,0.3c-0.8,0.1-1.7,0.2-2.6,0.3C335.8,266.8,335.6,266.8,335.4,266.6 M340.3,265.5
				c0-0.2,0-0.4,0.2-0.6s0.3-0.3,0.6-0.3c0.9-0.1,1.8-0.2,2.6-0.3c0.2,0,0.5,0,0.6,0.2c0.2,0.2,0.3,0.4,0.3,0.6s0,0.5-0.2,0.6
				c-0.1,0.2-0.3,0.3-0.6,0.3c-0.8,0.1-1.7,0.2-2.6,0.3c-0.2,0-0.4,0-0.6-0.2C340.5,265.9,340.3,265.8,340.3,265.5 M312.8,262.6
				c0.2,0.1,0.4,0.3,0.5,0.5s0.1,0.4,0,0.7c-0.1,0.2-0.3,0.4-0.5,0.5s-0.5,0.1-0.7,0c-0.8-0.4-1.7-0.8-2.5-1.2
				c-0.2-0.1-0.4-0.3-0.4-0.5c-0.1-0.2-0.1-0.4,0-0.7c0.1-0.2,0.3-0.4,0.5-0.4c0.2-0.1,0.5-0.1,0.7,0
				C311.2,261.9,311.9,262.3,312.8,262.6 M317.7,264.2c0.2,0.1,0.4,0.2,0.5,0.4c0.1,0.2,0.2,0.4,0.1,0.7c-0.1,0.2-0.2,0.4-0.4,0.5
				c-0.2,0.1-0.4,0.2-0.7,0.1c-0.9-0.2-1.8-0.5-2.6-0.8c-0.2-0.1-0.4-0.2-0.5-0.4c-0.1-0.2-0.1-0.4,0-0.7c0.1-0.2,0.2-0.4,0.4-0.5
				c0.2-0.1,0.4-0.1,0.7,0C316,263.8,316.8,264,317.7,264.2 M319.9,266.5c-0.2,0-0.4-0.2-0.6-0.4c-0.1-0.2-0.2-0.4-0.2-0.7
				c0.1-0.2,0.2-0.4,0.4-0.6c0.2-0.1,0.4-0.2,0.7-0.2c0.8,0.2,1.7,0.3,2.6,0.4c0.3,0,0.4,0.1,0.6,0.3c0.2,0.2,0.2,0.4,0.2,0.6
				c0,0.3-0.1,0.4-0.3,0.6c-0.2,0.2-0.4,0.2-0.7,0.2C321.7,266.8,320.8,266.8,319.9,266.5 M308.2,260.2c0.2,0.1,0.3,0.3,0.4,0.6
				c0.1,0.2,0,0.5-0.1,0.7s-0.3,0.3-0.6,0.4c-0.2,0.1-0.5,0-0.7-0.1c-0.8-0.5-1.5-1-2.3-1.5c-0.2-0.1-0.3-0.3-0.4-0.6
				c0-0.2,0-0.5,0.2-0.7c0.1-0.2,0.3-0.3,0.6-0.4c0.2,0,0.5,0,0.6,0.2C306.7,259.3,307.4,259.8,308.2,260.2z"/>
			<path class="st4" d="M308.6,260.8c-0.1-0.2-0.2-0.4-0.4-0.6c-0.7-0.5-1.4-0.9-2.2-1.5c-0.2-0.1-0.4-0.2-0.6-0.2s-0.4,0.2-0.6,0.4
				c-0.1,0.2-0.2,0.4-0.2,0.7c0,0.2,0.2,0.4,0.4,0.6c0.7,0.5,1.5,1.1,2.3,1.5c0.2,0.1,0.4,0.2,0.7,0.1c0.2-0.1,0.4-0.2,0.6-0.4
				C308.6,261.2,308.6,261,308.6,260.8 M319.4,266.2c0.1,0.2,0.3,0.3,0.6,0.4c0.9,0.2,1.8,0.3,2.7,0.4c0.2,0,0.5,0,0.7-0.2
				c0.2-0.1,0.3-0.3,0.3-0.6c0-0.2,0-0.4-0.2-0.6c-0.1-0.2-0.3-0.3-0.6-0.3c-0.9-0.1-1.7-0.2-2.6-0.4c-0.2,0-0.5,0-0.7,0.2
				c-0.2,0.1-0.3,0.3-0.4,0.6C319.2,265.8,319.2,266,319.4,266.2 M318.2,264.6c-0.1-0.2-0.3-0.3-0.5-0.4c-0.8-0.2-1.7-0.5-2.5-0.7
				c-0.2-0.1-0.4-0.1-0.7,0c-0.2,0.1-0.4,0.3-0.4,0.5c-0.1,0.2-0.1,0.5,0,0.7s0.3,0.4,0.5,0.4c0.9,0.3,1.7,0.5,2.6,0.8
				c0.2,0.1,0.5,0,0.7-0.1s0.3-0.3,0.4-0.5C318.4,265.1,318.3,264.9,318.2,264.6 M313.2,263.1c-0.1-0.2-0.2-0.4-0.5-0.5
				c-0.8-0.3-1.6-0.7-2.4-1.1c-0.2-0.1-0.4-0.1-0.7,0c-0.2,0.1-0.4,0.2-0.5,0.4c-0.1,0.2-0.1,0.4,0,0.7c0.1,0.2,0.2,0.4,0.4,0.5
				c0.8,0.4,1.6,0.8,2.5,1.2c0.2,0.1,0.5,0.1,0.7,0s0.4-0.3,0.5-0.5C313.3,263.5,313.3,263.3,313.2,263.1 M340.5,264.8
				c-0.2,0.2-0.2,0.4-0.2,0.6s0.1,0.4,0.3,0.6c0.2,0.2,0.4,0.2,0.6,0.2c0.9-0.1,1.8-0.2,2.6-0.3c0.2,0,0.4-0.1,0.6-0.3
				c0.2-0.2,0.2-0.4,0.2-0.6s-0.1-0.4-0.3-0.6c-0.2-0.1-0.4-0.2-0.6-0.2c-0.8,0.1-1.7,0.2-2.6,0.3
				C340.8,264.5,340.7,264.6,340.5,264.8 M335.1,266c0,0.2,0.1,0.4,0.3,0.6c0.2,0.2,0.4,0.2,0.7,0.2c0.9-0.1,1.8-0.2,2.6-0.3
				c0.2,0,0.4-0.1,0.6-0.3c0.2-0.2,0.2-0.4,0.2-0.7c0-0.2-0.1-0.4-0.3-0.6c-0.2-0.2-0.4-0.2-0.7-0.2c-0.8,0.1-1.7,0.2-2.6,0.3
				c-0.2,0-0.4,0.1-0.6,0.3C335.2,265.6,335.1,265.8,335.1,266 M330,265.8c-0.2,0.2-0.2,0.4-0.2,0.6s0.1,0.4,0.3,0.6
				c0.2,0.2,0.4,0.3,0.6,0.2c0.9,0,1.8-0.1,2.7-0.2c0.2,0,0.4-0.1,0.6-0.3c0.2-0.2,0.2-0.4,0.2-0.6s-0.1-0.4-0.3-0.6
				c-0.2-0.2-0.4-0.2-0.6-0.2c-0.9,0.1-1.8,0.2-2.6,0.2C330.4,265.5,330.2,265.6,330,265.8 M328.6,265.8c-0.2-0.2-0.4-0.2-0.6-0.2
				c-0.9,0-1.7,0-2.6-0.1c-0.2,0-0.4,0.1-0.6,0.2c-0.2,0.2-0.3,0.4-0.3,0.6s0.1,0.5,0.2,0.6c0.2,0.2,0.4,0.3,0.6,0.3
				c0.9,0.1,1.8,0.1,2.7,0.1c0.2,0,0.5-0.1,0.6-0.3c0.2-0.2,0.3-0.4,0.3-0.6C328.9,266.2,328.8,265.9,328.6,265.8 M353.9,262.5
				c-0.1-0.2-0.3-0.3-0.6-0.4c-0.2-0.1-0.5,0-0.7,0.1c-0.3,0.2-0.8,0.4-1.5,0.6c-0.2,0.1-0.4,0.2-0.5,0.4c-0.1,0.2-0.1,0.4-0.1,0.7
				c0.1,0.2,0.2,0.4,0.4,0.5c0.2,0.1,0.4,0.1,0.7,0.1c0.9-0.2,1.5-0.5,1.9-0.8c0.2-0.1,0.3-0.3,0.4-0.6
				C354.1,262.9,354.1,262.8,353.9,262.5 M349.4,263.5c-0.2-0.1-0.4-0.2-0.7-0.1c-0.7,0.2-1.6,0.3-2.5,0.4c-0.2,0-0.4,0.2-0.6,0.4
				c-0.1,0.2-0.2,0.4-0.2,0.7c0,0.2,0.2,0.4,0.4,0.6c0.2,0.1,0.4,0.2,0.7,0.2c1-0.1,1.9-0.3,2.6-0.5c0.2,0,0.4-0.2,0.6-0.4
				c0.1-0.2,0.2-0.4,0.1-0.7C349.8,263.8,349.6,263.6,349.4,263.5z"/>
		</g>
	</g>
</g>
<g transform="matrix( 1, 0, 0, 1, 0,0) ">
	<g>
		<g id="Layer1_5_MEMBER_0_FILL">
			<path class="st2" d="M586.5,82.3c-173.8,98-366.9,136-579.5,114.1c0,0.3-0.1,0.6-0.1,0.9c212.8,21.9,406.3-16.2,580.3-114.4
				C586.9,82.8,586.7,82.5,586.5,82.3z"/>
		</g>
	</g>
</g>
<g transform="matrix( 1, 0, 0, 1, 0,0) ">
	<g>
		<g id="Layer1_5_MEMBER_1_FILL">
			<path class="st5" d="M105.7,197.9l-16.1,1.8l0.5,22.8l8-10.6l9.1,8.8L105.7,197.9z"/>
		</g>
	</g>
</g>
<g transform="matrix( 1, 0, 0, 1, 0,0) ">
	<g>
		<g id="Layer1_5_MEMBER_2_FILL">
			<path class="st6" d="M131.5,197.9l-16,2.1l1.2,22.8l7.7-10.7l9.4,8.6L131.5,197.9z"/>
		</g>
	</g>
</g>
<g transform="matrix( 1, 0, 0, 1, 0,0) ">
	<g>
		<g id="Layer1_5_MEMBER_3_FILL">
			<path class="st7" d="M148.7,213l7.5,9.8l2.4-22.8l-16.2-0.2l-3.4,22.6L148.7,213z"/>
		</g>
	</g>
</g>
<g transform="matrix( 1, 0, 0, 1, 0,0) ">
	<g>
		<g id="Layer1_5_MEMBER_4_FILL">
			<path class="st8" d="M370.6,169.3l8.2,21.7l4-12.1l11.6,6.2l-9.2-21.5L370.6,169.3z"/>
		</g>
	</g>
</g>
<g transform="matrix( 1, 0, 0, 1, 0,0) ">
	<g>
		<g id="Layer1_5_MEMBER_5_FILL">
			<path class="st9" d="M402.3,183.9l4.4-11.9l11.4,6.5l-8.4-21.7l-14.8,5.3L402.3,183.9z"/>
		</g>
	</g>
</g>
<g transform="matrix( 1, 0, 0, 1, 0,0) ">
	<g>
		<g id="Layer1_5_MEMBER_6_FILL">
			<path class="st10" d="M441.6,171.1l-6.1-22.3l-15.3,4.1l5.1,22.4l5.6-11.5L441.6,171.1z"/>
		</g>
	</g>
</g>
<g transform="matrix( 1, 0, 0, 1, 0,0) ">
	<g>
		<g id="Layer1_5_MEMBER_7_FILL">
			<path class="st11" d="M457.6,140.6l-14.7,5.4l7.8,21.8l4.2-12l11.5,6.3L457.6,140.6z"/>
		</g>
	</g>
</g>
<g transform="matrix( 1, 0, 0, 1, 0,0) ">
	<g>
		<g id="Layer1_5_MEMBER_8_FILL">
			<path class="st9" d="M479.3,146.3l12.1,5.4l-11-20.8l-14.1,6.5l10.1,21.1L479.3,146.3z"/>
		</g>
	</g>
</g>
<g transform="matrix( 1, 0, 0, 1, 0,0) ">
	<g>
		<g id="Layer1_5_MEMBER_9_FILL">
			<path class="st5" d="M538.7,105.3l12.3,20.2l1.6-12.4l12.7,4.5l-13.1-19.9L538.7,105.3z"/>
		</g>
	</g>
</g>
<g transform="matrix( 1, 0, 0, 1, 0,0) ">
	<g>
		<g id="Layer1_5_MEMBER_10_FILL">
			<path class="st12" d="M575.5,112.9l-1.2-12.5l13.4,2.4l-17.2-17.4L559.1,95L575.5,112.9z"/>
		</g>
	</g>
</g>
<g transform="matrix( 1, 0, 0, 1, 0,0) ">
	<g>
		<g id="Layer1_5_MEMBER_11_FILL">
			<path class="st13" d="M227.2,193.1c-1.9-0.8-3.2-0.2-3.9,1.7l-9.8,23.5c-0.8,1.9-0.2,3.2,1.6,4l18.7,8c1.9,0.8,3.2,0.2,4-1.7
				l9.8-23.5c0.8-1.9,0.2-3.2-1.6-4L227.2,193.1 M223.9,199.3c0-0.1,0-0.2,0.1-0.3c0.1-0.1,0.2-0.1,0.3-0.1s0.2,0,0.3,0.1
				s0.1,0.2,0.1,0.3v2.5l3.2-3.1c0.1-0.1,0.2-0.1,0.3-0.1s0.2,0,0.3,0.1s0.1,0.2,0.1,0.3c0,0.1,0,0.2-0.1,0.3l-3.9,3.8
				c-0.1,0.1-0.2,0.1-0.3,0.1s-0.2,0-0.3-0.1s-0.1-0.2-0.1-0.3L223.9,199.3 M231.7,201.2c0.1,0,0.2,0,0.4,0l10.4,4.5
				c0.1,0.1,0.2,0.1,0.2,0.2c0.1,0.1,0.1,0.2,0,0.4c0,0.1-0.1,0.2-0.2,0.2c-0.1,0.1-0.2,0.1-0.3,0l-10.4-4.5c-0.1,0-0.2-0.1-0.2-0.2
				s0-0.2,0-0.3C231.5,201.3,231.6,201.2,231.7,201.2 M241.5,210.9c0.1,0.1,0.2,0.1,0.2,0.2c0.1,0.1,0.1,0.2,0,0.3
				c0,0.1-0.1,0.2-0.2,0.2c-0.1,0.1-0.2,0.1-0.3,0l-7.6-3.2c-1.7-0.7-2.9-1.2-3.5-1.5c-0.1,0-0.2-0.1-0.2-0.2
				c-0.1-0.1-0.1-0.2,0-0.3c0.1-0.1,0.1-0.2,0.2-0.2c0.1-0.1,0.2-0.1,0.3,0c0.6,0.2,1.8,0.7,3.6,1.5L241.5,210.9 M239.3,216.1
				c-0.1,0.1-0.2,0.1-0.3,0l-10.8-4.7c-0.1,0-0.2-0.1-0.2-0.2s0-0.2,0-0.3c0.1-0.1,0.1-0.2,0.2-0.2c0.1,0,0.2,0,0.4,0l10.8,4.7
				c0.1,0.1,0.2,0.1,0.2,0.2c0.1,0.1,0.1,0.2,0,0.4C239.5,216,239.4,216.1,239.3,216.1 M234.6,206c-0.1,0.1-0.2,0.1-0.3,0l-3.2-1.4
				c-0.1,0-0.2-0.1-0.2-0.2s0-0.2,0-0.3c0.1-0.1,0.1-0.2,0.2-0.2c0.1,0,0.2,0,0.4,0l3.2,1.4c0.1,0.1,0.2,0.1,0.2,0.2
				c0.1,0.1,0.1,0.2,0,0.4C234.8,205.9,234.7,206,234.6,206 M232.8,210.4c0.1,0.1,0.2,0.1,0.2,0.2c0.1,0.1,0.1,0.2,0,0.3
				c0,0.1-0.1,0.2-0.2,0.2c-0.1,0.1-0.2,0.1-0.3,0l-3.5-1.5c-0.1,0-0.2-0.1-0.2-0.2s0-0.2,0-0.3c0.1-0.1,0.1-0.2,0.2-0.2
				c0.1,0,0.2,0,0.3,0L232.8,210.4 M225.8,206.1c0.1,0.1,0.1,0.2,0.1,0.3c0,0.1-0.1,0.2-0.2,0.3l-3.7,3.2c-0.1,0.1-0.2,0.1-0.3,0.1
				s-0.2,0-0.3-0.1s-0.1-0.2-0.1-0.3l-0.1-3.7c0-0.1,0-0.2,0.1-0.3c0.1-0.1,0.2-0.1,0.3-0.1s0.2,0,0.3,0.1s0.1,0.2,0.1,0.3l0.1,2.8
				l3-2.6c0.1-0.1,0.2-0.1,0.3-0.1C225.6,206,225.7,206,225.8,206.1 M227.3,213c0.1,0,0.2,0,0.4,0l7.6,3.2c0.1,0.1,0.2,0.1,0.2,0.2
				c0.1,0.1,0.1,0.2,0,0.3c0,0.1-0.1,0.2-0.2,0.2c-0.1,0.1-0.2,0.1-0.3,0l-7.6-3.2c-0.1,0-0.2-0.1-0.2-0.2s0-0.2,0-0.3
				C227.1,213.1,227.2,213,227.3,213 M225.9,216.4c0.1,0,0.2,0,0.3,0l10,4c0.1,0.1,0.2,0.1,0.2,0.2c0.1,0.1,0.1,0.2,0,0.3
				c0,0.1-0.1,0.2-0.2,0.2c-0.1,0.1-0.2,0.1-0.4,0l-10-4c-0.1,0-0.2-0.1-0.2-0.2s0-0.2,0-0.4C225.7,216.5,225.8,216.4,225.9,216.4
				 M222.3,213.3c0.1-0.1,0.2-0.1,0.3-0.1s0.2,0,0.3,0.1s0.1,0.2,0.1,0.3c0,0.1-0.1,0.2-0.2,0.3l-3.3,3.1c-0.1,0.1-0.2,0.1-0.3,0.1
				s-0.2,0-0.3-0.1s-0.1-0.2-0.1-0.3l-0.4-3.7c0-0.1,0-0.2,0.1-0.3c0.1-0.1,0.2-0.1,0.3-0.2c0.1,0,0.2,0,0.3,0.1s0.2,0.2,0.2,0.3
				l0.3,2.8L222.3,213.3 M224.3,219.5c0-0.1,0-0.2,0-0.4c0.1-0.1,0.1-0.2,0.2-0.2c0.1,0,0.2,0,0.3,0l6,2.4c0.1,0.1,0.2,0.1,0.2,0.2
				c0.1,0.1,0.1,0.2,0,0.3c0,0.1-0.1,0.2-0.2,0.2c-0.1,0.1-0.2,0.1-0.4,0l-6-2.4C224.4,219.8,224.3,219.6,224.3,219.5z"/>
			<path class="st14" d="M224.3,219.2c0,0.1,0,0.2,0,0.4c0.1,0.1,0.1,0.2,0.2,0.2l6,2.4c0.1,0.1,0.2,0.1,0.4,0
				c0.1,0,0.2-0.1,0.2-0.2c0.1-0.1,0.1-0.2,0-0.3c0-0.1-0.1-0.2-0.2-0.2l-6-2.4c-0.1,0-0.2,0-0.3,0
				C224.4,219,224.3,219.1,224.3,219.2 M222.6,213.2c-0.1,0-0.2,0-0.3,0.1l-2.7,2.5l-0.3-2.8c0-0.1-0.1-0.2-0.2-0.3
				c-0.1-0.1-0.2-0.1-0.3-0.1s-0.2,0.1-0.3,0.2s-0.1,0.2-0.1,0.3l0.4,3.7c0,0.1,0.1,0.2,0.1,0.3c0.1,0.1,0.2,0.1,0.3,0.1
				s0.2,0,0.3-0.1l3.3-3.1c0.1-0.1,0.1-0.2,0.2-0.3c0-0.1,0-0.2-0.1-0.3C222.9,213.2,222.8,213.2,222.6,213.2 M226.2,216.4
				c-0.1,0-0.2,0-0.3,0c-0.1,0.1-0.2,0.1-0.2,0.2s0,0.2,0,0.4c0.1,0.1,0.1,0.2,0.2,0.2l10,4c0.1,0.1,0.2,0.1,0.4,0
				c0.1,0,0.2-0.1,0.2-0.2c0.1-0.1,0.1-0.2,0-0.3c0-0.1-0.1-0.2-0.2-0.2L226.2,216.4 M227.7,213c-0.1,0-0.2,0-0.4,0
				c-0.1,0.1-0.2,0.1-0.2,0.2s0,0.2,0,0.3c0.1,0.1,0.1,0.2,0.2,0.2l7.6,3.2c0.1,0.1,0.2,0.1,0.3,0c0.1,0,0.2-0.1,0.2-0.2
				c0.1-0.1,0.1-0.2,0-0.3c0-0.1-0.1-0.2-0.2-0.2L227.7,213 M225.9,206.4c0-0.1,0-0.2-0.1-0.3c-0.1-0.1-0.2-0.1-0.3-0.2
				c-0.1,0-0.2,0-0.3,0.1l-3,2.6l-0.1-2.8c0-0.1,0-0.2-0.1-0.3c-0.1-0.1-0.2-0.1-0.3-0.1s-0.2,0-0.3,0.1s-0.1,0.2-0.1,0.3l0.1,3.7
				c0,0.1,0,0.2,0.1,0.3c0.1,0.1,0.2,0.1,0.3,0.1s0.2,0,0.3-0.1l3.7-3.2C225.8,206.6,225.9,206.5,225.9,206.4 M233.1,210.8
				c0-0.1-0.1-0.2-0.2-0.2l-3.5-1.5c-0.1,0-0.2,0-0.3,0c-0.1,0.1-0.2,0.1-0.2,0.2s0,0.2,0,0.3c0.1,0.1,0.1,0.2,0.2,0.2l3.5,1.5
				c0.1,0.1,0.2,0.1,0.3,0c0.1,0,0.2-0.1,0.2-0.2S233.1,210.8,233.1,210.8 M234.3,206c0.1,0.1,0.2,0.1,0.3,0c0.1,0,0.2-0.1,0.2-0.2
				c0.1-0.1,0.1-0.2,0-0.4c0-0.1-0.1-0.2-0.2-0.2l-3.2-1.4c-0.1,0-0.2,0-0.4,0c-0.1,0.1-0.2,0.1-0.2,0.2s0,0.2,0,0.3
				c0.1,0.1,0.1,0.2,0.2,0.2L234.3,206 M239,216.1c0.1,0.1,0.2,0.1,0.3,0c0.1,0,0.2-0.1,0.2-0.2c0.1-0.1,0.1-0.2,0-0.4
				c0-0.1-0.1-0.2-0.2-0.2l-10.8-4.7c-0.1,0-0.2,0-0.4,0c-0.1,0.1-0.2,0.1-0.2,0.2s0,0.2,0,0.3c0.1,0.1,0.1,0.2,0.2,0.2L239,216.1
				 M241.7,211.2c0-0.1-0.1-0.2-0.2-0.2l-7.6-3.2c-1.8-0.7-3-1.2-3.6-1.5c-0.1,0-0.2,0-0.3,0s-0.2,0.1-0.2,0.2s0,0.2,0,0.3
				c0,0.1,0.1,0.2,0.2,0.2c0.6,0.2,1.8,0.7,3.5,1.5l7.6,3.2c0.1,0.1,0.2,0.1,0.3,0c0.1,0,0.2-0.1,0.2-0.2
				C241.8,211.4,241.8,211.3,241.7,211.2 M232.1,201.2c-0.1,0-0.2,0-0.4,0c-0.1,0.1-0.2,0.1-0.2,0.2s0,0.2,0,0.3
				c0.1,0.1,0.1,0.2,0.2,0.2l10.4,4.5c0.1,0.1,0.2,0.1,0.3,0c0.1,0,0.2-0.1,0.2-0.2c0.1-0.1,0.1-0.2,0-0.4c0-0.1-0.1-0.2-0.2-0.2
				L232.1,201.2 M224,198.9c-0.1,0.1-0.1,0.2-0.1,0.3l0.1,3.5c0,0.1,0,0.2,0.1,0.3c0.1,0.1,0.2,0.1,0.3,0.1s0.2,0,0.3-0.1l3.9-3.8
				c0.1-0.1,0.1-0.2,0.1-0.3c0-0.1,0-0.2-0.1-0.3c-0.1-0.1-0.2-0.1-0.3-0.1s-0.2,0-0.3,0.1l-3.2,3.1v-2.5c0-0.1,0-0.2-0.1-0.3
				c-0.1-0.1-0.2-0.1-0.3-0.1C224.2,198.8,224.1,198.9,224,198.9z"/>
		</g>
	</g>
</g>
<g transform="matrix( 1, 0, 0, 1, 0,0) ">
	<g>
		<g id="Layer1_5_MEMBER_12_FILL">
			<path class="st8" d="M307.6,183l-15.2,3.3l4.7,22.7l5.8-11.3l10.5,7.9L307.6,183z"/>
		</g>
	</g>
</g>
<g transform="matrix( 1, 0, 0, 1, 0,0) ">
	<g>
		<g id="Layer1_5_MEMBER_13_FILL">
			<path class="st9" d="M337.2,200.1l-5.2-22.7l-15.4,3.1l4.2,22.7l6-11.2L337.2,200.1z"/>
		</g>
	</g>
</g>
<g transform="matrix( 1, 0, 0, 1, 0,0) ">
	<g>
		<g id="Layer1_5_MEMBER_14_FILL">
			<path class="st10" d="M345.7,198.4l5.6-11.5l10.7,7.3l-6.1-22.3l-15.3,4.1L345.7,198.4z"/>
		</g>
	</g>
</g>
<g transform="matrix( 1, 0, 0, 1, 0,0) ">
	<g>
		<g id="Layer1_5_MEMBER_15_FILL">
			<path class="st6" d="M506,120.5l-14.6,6.9l8.1,21.4l4-12.6l11.5,5.3L506,120.5z"/>
		</g>
	</g>
</g>
<g transform="matrix( 1, 0, 0, 1, 0,0) ">
	<g>
		<g id="Layer1_5_MEMBER_16_FILL">
			<path class="st7" d="M526.6,125.2l10.8,6.1l-6.8-21.9l-15,6.2l5.8,22.1L526.6,125.2z"/>
		</g>
	</g>
</g>
<g transform="matrix( 1, 0, 0, 1, 0,0) ">
	<g>
		<g id="Layer1_5_MEMBER_18_FILL">
			<path class="st11" d="M79.1,223l1.9-23.2l-15.6-1.7l-2.9,23l9.1-8.8L79.1,223z"/>
		</g>
	</g>
</g>
<g transform="matrix( 1, 0, 0, 1, 0,0) ">
	<g>
		<g id="Layer1_5_MEMBER_20_FILL">
			<path class="st9" d="M29.6,196.4L14,194.8l-2.7,23l9.1-8.9l7.5,10.7L29.6,196.4z"/>
		</g>
	</g>
</g>
<g transform="matrix( 1, 0, 0, 1, 0,0) ">
	<g>
		<g id="Layer1_5_MEMBER_21_FILL">
			<path class="st10" d="M45.4,211.2l8,10.2l0.8-23.1l-15.8-0.6l-1.8,22.9L45.4,211.2z"/>
		</g>
	</g>
</g>
<g transform="matrix( 1, 0, 0, 1, 0,0) ">
	<g>
		<g id="Layer1_5_MEMBER_22_FILL">
			<path class="st8" d="M183.7,198.3l-15.5,1l1.1,23.1l7.5-10.3l9.2,9.4L183.7,198.3z"/>
		</g>
	</g>
</g>
<g transform="matrix( 1, 0, 0, 1, 0,0) ">
	<g>
		<g id="Layer1_5_MEMBER_23_FILL">
			<path class="st9" d="M209.3,197.8l-15.6-1.1l-1.9,23l8.8-9.2l7.9,10.5L209.3,197.8z"/>
		</g>
	</g>
</g>
<g transform="matrix( 1, 0, 0, 1, 0,0) ">
	<g>
		<g id="Layer1_5_MEMBER_24_FILL">
			<path class="st10" d="M258.8,204.9l9.2,9.1l-2-23l-15.8,1.3l1,22.9L258.8,204.9z"/>
		</g>
	</g>
</g>
<g transform="matrix( 0.5972137451171875, 0.326080322265625, -0.326080322265625, 0.5972137451171875, 803.15,135.55) ">
	<g>
		<g id="Layer1_6_MEMBER_0_MEMBER_0_FILL">
			<path class="st15" d="M-617.2,553.9c-1.1-1.1-2.5-1.7-4.1-1.7c-1.6,0-2.9,0.6-4.1,1.7c-1.1,1.1-1.7,2.5-1.7,4.1v40.8
				c0,1.6,0.6,3,1.7,4.1c1.1,1.1,2.5,1.7,4.1,1.7c1.6,0,3-0.6,4.1-1.7c1.1-1.1,1.7-2.5,1.7-4.1V558
				C-615.5,556.4-616.1,555-617.2,553.9z"/>
		</g>
	</g>
</g>
<g transform="matrix( 1, 0, 0, 1, 0,0) ">
	<g>
		<g id="Layer1_6_MEMBER_0_MEMBER_1_FILL">
			<path class="st7" d="M257.4,242.1c-0.5,0.1-1,0.5-1.3,1.1c-0.5,0.9-1,1.9-1.6,3s-1.4,2.7-2.3,4.7c-1,2.1-2,4.1-3,6
				c-1.2,2.1-2.3,4.2-3.4,6.2l-11,20.6l8.9,4.7l13.4-25.3c0.9-1.6,1.7-3.2,2.5-4.7c1.3-2.5,2.6-5,3.9-7.5c0.5-0.9,0.8-1.8,1.1-2.7
				c0.9-4.3-1.2-6.3-6.2-6.1C258,242.1,257.7,242.1,257.4,242.1z"/>
		</g>
	</g>
</g>
<g transform="matrix( 1, 0, 0, 1, 0,0) ">
	<g>
		<g id="Layer1_6_MEMBER_0_MEMBER_2_FILL">
			<path class="st7" d="M276.4,206.4l-1.1-0.4c-1.1-0.5-2.3-0.4-3.4,0c-1.1,0.5-1.9,1.3-2.3,2.5l-10.8,27.4c-1,2.5-1.9,5-2.9,7.5
				c-0.9,2.4-1.2,4.2-0.9,5.1c0.4,1,1.5,1.7,3.3,2.2c0.9,0.3,1.8,0.4,2.7,0.3c1.6,0.1,2.7-0.5,3.3-1.9c1.1-2.5,2.1-5,3.1-7.5
				l11.6-29.5c0.4-1.1,0.4-2.3,0-3.4C278.4,207.6,277.5,206.8,276.4,206.4z"/>
		</g>
	</g>
</g>
<g transform="matrix( 0.6787567138671875, 0.0500030517578125, -0.0500030517578125, 0.6787567138671875, 575.35,200.9) ">
	<g>
		<g id="Layer1_6_MEMBER_0_MEMBER_3_FILL">
			<path class="st16" d="M-492.7,164.1c-0.3,0.2-0.4,0.5-0.4,0.9v7h34.8v-0.7c0-0.6-0.2-1.2-0.6-1.7s-0.9-0.8-1.5-1l-18.5-4.8
				c-0.9-0.2-1.7-0.2-2.6,0c-3.9,1-7.3,1.1-10.2,0.2C-492,163.9-492.4,163.9-492.7,164.1z"/>
		</g>
	</g>
</g>
<g transform="matrix( 0.6787567138671875, 0.0500030517578125, -0.0500030517578125, 0.6787567138671875, 575.35,200.9) ">
	<g>
		<g id="Layer1_6_MEMBER_0_MEMBER_4_FILL">
			<path class="st2" d="M-492.5,173.6c0.4,0.4,0.9,0.6,1.5,0.6h31.6c0.3,0,0.6-0.1,0.8-0.3c0.2-0.2,0.3-0.5,0.3-0.8V172h-34.8v0.1
				C-493.1,172.7-492.9,173.2-492.5,173.6z"/>
		</g>
	</g>
</g>
<g transform="matrix( 0.68060302734375, -0.0208587646484375, 0.0208587646484375, 0.68060302734375, 659.75,256.4) ">
	<g>
		<g id="Layer1_6_MEMBER_1_FILL_2_">
			<path class="st7" d="M-527.4-93.2l-42.4-0.4l-0.3,13.6c0,2,0.7,3.7,2.1,5.2c1.4,1.4,3.1,2.1,5.1,2.2l27.8,0.2
				c2,0,3.7-0.7,5.2-2.1s2.2-3.1,2.2-5.1L-527.4-93.2z"/>
		</g>
	</g>
</g>
<g transform="matrix( 1, 0, 0, 1, 0,0) ">
	<g>
		<g id="Layer1_6_MEMBER_2_MEMBER_0_FILL">
			<path class="st7" d="M307.1,153.8c-1.2-1.6-2.8-2.6-4.8-2.9l-20.1-3c-1.9-0.3-3.7,0.1-5.3,1.3c-1.6,1.2-2.5,2.7-2.8,4.7l-8.1,54
				l34.4,5.1l8.1-53.7C308.8,157.2,308.3,155.4,307.1,153.8z"/>
		</g>
	</g>
</g>
<g transform="matrix( 1, 0, 0, 1, 0,0) ">
	<g>
		<g id="Layer1_6_MEMBER_2_MEMBER_0_MEMBER_0_FILL">
			<path class="st12" d="M295.7,187.6c-0.4,0.2-0.7,0.5-0.8,0.9c-0.1,0.4-0.1,0.8,0.1,1.2c0.2,0.4,0.5,0.7,0.9,0.8
				c0.4,0.1,0.8,0.1,1.2,0c0.4-0.2,0.7-0.5,0.8-0.9c0.1-0.4,0.1-0.8,0-1.2c-0.2-0.4-0.4-0.7-0.9-0.8
				C296.5,187.5,296.1,187.5,295.7,187.6 M297.7,169.9c-0.2,0.4-0.1,0.8,0,1.2c0.2,0.4,0.5,0.7,0.9,0.8c0.4,0.1,0.8,0.1,1.2,0
				c0.4-0.2,0.7-0.4,0.8-0.9c0.1-0.4,0.1-0.8,0-1.2c-0.2-0.4-0.4-0.7-0.8-0.8c-0.4-0.1-0.8-0.1-1.2,0
				C298.1,169.2,297.8,169.5,297.7,169.9 M297.1,178.1c-0.4,0.2-0.7,0.5-0.8,0.9c-0.1,0.4-0.1,0.8,0,1.2c0.2,0.4,0.5,0.7,0.9,0.8
				c0.4,0.1,0.8,0.1,1.1,0c0.4-0.2,0.7-0.5,0.8-0.9c0.1-0.4,0.1-0.8-0.1-1.2c-0.2-0.4-0.4-0.7-0.8-0.8
				C297.9,178,297.5,178,297.1,178.1 M281.9,186.6c-0.2,0.4-0.1,0.8,0,1.2c0.2,0.4,0.5,0.7,0.9,0.8c0.4,0.1,0.8,0.1,1.2,0
				c0.4-0.2,0.7-0.4,0.8-0.9c0.1-0.4,0.1-0.8,0-1.2c-0.2-0.4-0.4-0.7-0.8-0.8c-0.4-0.1-0.8-0.1-1.2,0
				C282.3,185.9,282,186.2,281.9,186.6 M286.1,177c-0.2-0.4-0.4-0.7-0.8-0.8c-0.4-0.1-0.8-0.1-1.2,0c-0.4,0.2-0.7,0.5-0.8,0.9
				c-0.2,0.4-0.1,0.8,0,1.2c0.2,0.4,0.5,0.7,0.9,0.8c0.4,0.1,0.8,0.1,1.2,0c0.4-0.2,0.7-0.4,0.8-0.9
				C286.3,177.8,286.3,177.4,286.1,177 M287.5,167.9c-0.2-0.4-0.5-0.7-0.9-0.8c-0.4-0.1-0.8-0.1-1.2,0c-0.4,0.2-0.7,0.5-0.8,0.9
				c-0.1,0.4-0.1,0.8,0.1,1.1c0.2,0.4,0.5,0.7,0.8,0.8c0.4,0.1,0.8,0.1,1.2-0.1c0.4-0.1,0.7-0.4,0.8-0.8
				C287.7,168.8,287.7,168.3,287.5,167.9z"/>
		</g>
	</g>
</g>
<g transform="matrix( 0.679443359375, -0.0352325439453125, 0.0352325439453125, 0.679443359375, 628.25,225.05) ">
	<g>
		<g id="Layer1_6_MEMBER_3_MEMBER_0_FILL">
			<path class="st17" d="M-538.5-112.1c-0.1-1.3-0.6-2.3-1.5-3.2c-1-0.8-2.1-1.2-3.3-1.1c-1.3,0.1-2.3,0.6-3.2,1.5
				c-0.8,1-1.2,2.1-1.2,3.3l1.9,39.6c0.1,1.3,0.6,2.3,1.5,3.2c1,0.8,2.1,1.2,3.3,1.1c1.3-0.1,2.3-0.6,3.2-1.5c0.8-1,1.2-2.1,1.1-3.3
				L-538.5-112.1z"/>
		</g>
	</g>
</g>
<g transform="matrix( 0.4022674560546875, 0.548675537109375, -0.548675537109375, 0.4022674560546875, 909.7,93.55) ">
	<g>
		<g id="Layer1_6_MEMBER_3_MEMBER_1_FILL">
			<path class="st17" d="M-478.9,796.2c-1.3,0-2.4,0.4-3.3,1.3c-0.9,0.9-1.4,2-1.4,3.2l-1.5,39.7c0,1.3,0.4,2.4,1.3,3.3
				c0.9,0.9,2,1.4,3.2,1.4c1.3,0,2.4-0.4,3.3-1.3c0.9-0.9,1.4-2,1.4-3.2l1.5-39.7c0-1.3-0.4-2.4-1.3-3.3
				C-476.5,796.7-477.6,796.2-478.9,796.2z"/>
		</g>
	</g>
</g>
<g transform="matrix( 0.4022674560546875, 0.548675537109375, -0.548675537109375, 0.4022674560546875, 943.75,370.7) ">
	<g>
		<g id="Layer1_6_MEMBER_3_MEMBER_2_FILL">
			<path class="st7" d="M-840.7,594.7c-1.2,1.1-1.8,2.4-1.9,4l-1.1,28.9l11.6,0.4l1.1-28.9c0.1-1.6-0.5-3-1.6-4.2s-2.4-1.8-4-1.9
				C-838.1,593.1-839.5,593.6-840.7,594.7z"/>
		</g>
	</g>
</g>
<g transform="matrix( -0.79339599609375, -0.608184814453125, -0.608184814453125, 0.79339599609375, 1887.2,651.65) ">
	<g>
		<g id="Layer1_6_MEMBER_3_MEMBER_3_FILL">
			<path class="st7" d="M1576.4,577.3c-1.9,0.6-3.3,1.7-4.3,3.5c-0.9,1.8-1.1,3.6-0.6,5.5c0.6,1.9,1.7,3.3,3.4,4.3
				c1.8,1,3.6,1.2,5.5,0.6c1.9-0.5,3.3-1.7,4.3-3.4c1-1.8,1.2-3.6,0.6-5.5c-0.5-1.9-1.7-3.3-3.5-4.3
				C1580.1,577,1578.3,576.8,1576.4,577.3z"/>
		</g>
	</g>
</g>
<g transform="matrix( 0.679443359375, -0.0352325439453125, 0.0352325439453125, 0.679443359375, 628.25,225.05) ">
	<g>
		<g id="Layer1_6_MEMBER_3_MEMBER_4_FILL">
			<path class="st18" d="M-538.8-65.3l2.3,1.3c1.7,0.7,3,0.4,4-0.8c-0.6-0.9-1.5-2.5-2.6-4.8l-1.5-3.1L-538.8-65.3z"/>
		</g>
	</g>
</g>
<g transform="matrix( 0.679443359375, -0.0352325439453125, 0.0352325439453125, 0.679443359375, 628.25,225.05) ">
	<g>
		<g id="Layer1_6_MEMBER_3_MEMBER_5_FILL">
			<path class="st17" d="M-536.6-73.4l-9.3-0.7l-0.3,9.4l2.1,3.3c1.6,2.3,2.9,3.8,3.8,4.5c1.1,0.8,2.6,1.3,4.5,1.6
				c1.2,0.2,2.2,0.3,3.1,0.2c0.9,0,0.5-1.5-1.1-4.5l-2.7-4.4L-536.6-73.4z"/>
		</g>
	</g>
</g>
<g transform="matrix( 0.4022674560546875, 0.548675537109375, -0.548675537109375, 0.4022674560546875, 909.7,93.55) ">
	<g transform="matrix( 0.86907958984375, -1.1853790283203125, 1.1853790283203125, 0.86907958984375, -901.5,997.05) ">
		<path id="Layer1_6_MEMBER_3_MEMBER_6_1_STROKES" class="st19" d="M-236.2,796.4l11.6,0.5"/>
	</g>
</g>
<g transform="matrix( 0.67340087890625, 0.1011199951171875, -0.1011199951171875, 0.67340087890625, 709.4,207.2) ">
	<g>
		<g id="Layer1_6_MEMBER_4_FILL_1_">
			<path class="st12" d="M-612.6,10.3c1.4-0.9,2-1.9,2-3.2s-0.7-2.3-2-3.2c-1.3-0.9-3-1.3-4.9-1.3c-1.9,0-3.5,0.4-4.9,1.3
				s-2,1.9-2,3.2c0,1.3,0.7,2.3,2,3.2c1.3,0.9,3,1.3,4.9,1.3C-615.6,11.6-614,11.2-612.6,10.3z"/>
		</g>
	</g>
</g>
<g transform="matrix( 0.67340087890625, 0.1011199951171875, -0.1011199951171875, 0.67340087890625, 709.4,207.2) ">
	<g>
		<g id="Layer1_6_MEMBER_5_FILL_1_">
			<path class="st17" d="M-613.5-1.9c0-1-0.3-1.9-1-2.7c-0.7-0.7-1.5-1.1-2.5-1.1h-0.1c-1,0-1.8,0.4-2.5,1.1
				c-0.7,0.8-1.1,1.6-1.1,2.7v8.1c0,1.8,1.2,2.7,3.6,2.7h0.1c2.4,0,3.6-0.9,3.6-2.7L-613.5-1.9L-613.5-1.9z"/>
		</g>
	</g>
</g>
<g transform="matrix( 1, 0, 0, 1, 0,0) ">
	<g>
		<g id="Layer1_6_MEMBER_6_FILL_1_">
			<path class="st17" d="M303.6,127.4c-1.1-3.7-2.9-6.2-5.4-7.4c-2.2-1.1-5.2-1.3-8.8-0.4c-3.2,0.8-5.5,2.7-6.9,6s-1.4,6.8,0.2,10.4
				c1.6,3.8,3.7,6.5,6.3,8.3c3,2,6.3,2.4,10,1.3c3-1.5,4.9-4.3,5.4-8.5C304.9,133.8,304.6,130.6,303.6,127.4z"/>
		</g>
	</g>
</g>
<g transform="matrix( 0.6918792724609375, -0.23370361328125, 0.32000732421875, 0.9473876953125, 237.75,200.25) ">
	<g>
		<g id="Layer1_6_MEMBER_7_FILL_1_">
			<path class="st7" d="M62.9-57.8c-1.9-0.1-3.8,0.2-5.7,0.9c2.4-0.1,4.5,0.3,6.5,1.1c0.2,0.1,0.4,0.2,0.6,0.3
				c-1.6,0.2-3.1,0.7-4.5,1.3c-0.5,0.3-1.1,0.6-1.6,0.8c2.4-0.2,4.7-0.3,6.9-0.1c2.1,0.2,4,0.4,5.7,0.7c1.6,0.3,3.8,0.4,6.4,0.5
				c2.4,0,4.8-0.1,7.2-0.4c1.8-0.3,4.3-0.8,7.3-1.5l-2.2-3.3c-2.6,0.6-5.3,1-8.1,1.2c-1.5,0.2-2.9,0.2-4.4,0.2
				c-2.6-0.2-5.1-0.5-7.6-1c-0.9-0.1-1.8-0.2-2.6-0.4C66.2-57.6,64.8-57.7,62.9-57.8z"/>
		</g>
	</g>
</g>
<g transform="matrix( 0.66339111328125, -0.153411865234375, 0.153411865234375, 0.66339111328125, 669.75,315) ">
	<g>
		<g id="Layer1_6_MEMBER_8_FILL_1_">
			<path class="st0" d="M-467-407.1c-1-0.8-2.3-1.5-4-2.2c-3.2-1.4-6.2-2-9.1-1.7c-4.5,0.4-8.3,1.8-11.2,4.3
				c-0.9,0.8-1.7,1.6-2.4,2.5l-0.7,1.1c-0.4-0.2-0.8-0.3-1.4-0.5c-1.1-0.3-2.2-0.4-3.3-0.4c1,1.1,1.5,1.8,1.7,2.1
				c0.5,0.7,0.9,1.6,1.1,2.6c-0.9,2.4-1.3,5.9-1,10.5c0.3-0.3,0.7-0.4,1-0.6c0.4-0.1,0.9-0.2,1.5-0.1l0.4,0.1l0,0l0.6,0.2l0.8,0.5
				l0.7,0.6l0,0l0.1,0.1v0.1l0,0l0,0l0,0v5.3c0,0.8,0.2,1.4,0.6,1.8l0.2,0.3c0.1,0.1,0.4,0.2,0.7,0.3c0.4,0.1,0.7,0.2,0.9,0.2
				c0.7,0,1.3-0.3,1.9-0.8s0.9-1.1,0.9-1.8v-1.9c0-0.7,0.2-1.3,0.7-1.9c0.5-0.5,1.1-0.8,1.8-0.9h0.5c0-1.7,0-3.3,0-4.9
				c0-0.7,0.2-1.3,0.6-1.6c0.5-0.4,1.4-0.7,2.8-0.9h0.1l0.8-0.1h15.2h0.2c0.6-0.1,1.1-0.4,1.7-0.7c0.9-0.5,1.6-1.1,2-1.8
				c0.4-0.6,0.7-1.3,0.8-1.9v-0.8h-3.7l0.7-0.8c0.5-0.7,0.9-1.5,1.2-2.5c0.3-0.9,0.5-1.9,0.7-2.9l0.2-1.2h-6.3V-407.1z"/>
		</g>
	</g>
</g>
<g transform="matrix( 0.66339111328125, -0.153411865234375, 0.153411865234375, 0.66339111328125, 669.75,315) ">
	<g>
		<g id="Layer1_6_MEMBER_9_FILL_1_">
			<path class="st20" d="M-465.1-395.9h-0.2c-1.7,0.3-6.4,0.7-14.3,1.3h15.1h0.2c0.6-0.1,1.1-0.4,1.7-0.7c0.9-0.5,1.6-1.1,2-1.8
				c0.4-0.6,0.7-1.3,0.8-1.9v-0.8c-0.5,0.6-1.1,1.2-1.9,1.9C-463.1-396.8-464.3-396-465.1-395.9z"/>
		</g>
	</g>
</g>
<g transform="matrix( 0.66302490234375, -0.1531982421875, 0.1531982421875, 0.66302490234375, 669.05,315.2) ">
	<g>
		<g id="Layer1_6_MEMBER_10_MEMBER_0_FILL">
			<path class="st0" d="M-466.2-387.7L-466.2-387.7c0.3,0,0.4-0.1,0.5-0.2c0.1-0.1,0.2-0.3,0.2-0.4c0-0.2,0-0.4-0.2-0.5
				c-0.1-0.1-0.3-0.2-0.5-0.2l-4.2-0.3c-0.2,0-0.4,0-0.5,0.2c-0.1,0.1-0.2,0.3-0.2,0.5c0,0.2,0,0.4,0.2,0.5c0.2,0.1,0.3,0.2,0.5,0.2
				L-466.2-387.7z"/>
		</g>
	</g>
</g>
<g transform="matrix( 0.66302490234375, -0.1531982421875, 0.1531982421875, 0.66302490234375, 669.05,315.2) ">
	<g>
		<g id="Layer1_6_MEMBER_11_MEMBER_0_FILL_1_">
			<path class="st0" d="M-481.9-387.9c0.1,0.1,0.3,0.2,0.5,0.2l4.2-0.2c0.2,0,0.4-0.1,0.5-0.2s0.2-0.3,0.2-0.5
				c0-0.2-0.1-0.3-0.2-0.4c-0.1-0.1-0.3-0.2-0.4-0.2l-4.4,0.2c-0.2,0-0.4,0.1-0.5,0.2c-0.1,0.1-0.2,0.3-0.2,0.5
				C-482.2-388.2-482.1-388-481.9-387.9z"/>
		</g>
	</g>
</g>
<g transform="matrix( -0.6732025146484375, 0.0978546142578125, -0.0978546142578125, -0.6732025146484375, 1411.3,552) ">
	<g>
		<g id="Layer1_6_MEMBER_12_MEMBER_0_FILL">
			<path class="st17" d="M1485.2,800.9c-0.8,1-1.2,2.1-1.1,3.3l3,39.6c0.1,1.3,0.6,2.3,1.6,3.2s2.1,1.2,3.4,1.1
				c1.3-0.1,2.3-0.6,3.2-1.6c0.8-1,1.2-2.1,1.1-3.4l-3-39.6c-0.1-1.3-0.6-2.3-1.6-3.2c-1-0.8-2.1-1.2-3.3-1.1
				C1487.1,799.4,1486,800,1485.2,800.9z"/>
		</g>
	</g>
</g>
<g transform="matrix( 0.0709381103515625, -0.676422119140625, 0.676422119140625, 0.0709381103515625, 817.5,697.4) ">
	<g>
		<g id="Layer1_6_MEMBER_12_MEMBER_1_FILL">
			<path class="st17" d="M716-839.1c-0.9-0.9-2-1.3-3.3-1.3s-2.4,0.5-3.2,1.4c-0.9,0.9-1.3,2-1.3,3.3l1.5,39.7
				c0,1.3,0.5,2.3,1.4,3.2c0.9,0.9,2,1.3,3.3,1.3s2.3-0.5,3.2-1.4c0.9-0.9,1.3-2,1.3-3.3l-1.5-39.7
				C717.4-837.1,716.9-838.2,716-839.1z"/>
		</g>
	</g>
</g>
<g transform="matrix( 0.0709381103515625, -0.676422119140625, 0.676422119140625, 0.0709381103515625, 987.2,398.35) ">
	<g>
		<g id="Layer1_6_MEMBER_12_MEMBER_2_FILL">
			<path class="st7" d="M256.4-1038.8c-0.1-1.6-0.7-2.9-1.8-4c-1.2-1.1-2.6-1.6-4.2-1.6c-1.6,0.1-2.9,0.7-4,1.9
				c-1.1,1.2-1.6,2.6-1.6,4.2l1.1,28.9l11.6-0.4L256.4-1038.8z"/>
		</g>
	</g>
</g>
<g transform="matrix( 0.0709381103515625, -0.676422119140625, 0.676422119140625, 0.0709381103515625, 817.5,697.4) ">
	<g>
		<g id="Layer1_6_MEMBER_12_MEMBER_3_FILL">
			<path class="st7" d="M707.9-847.2c-2.9,0-5.4,1-7.5,3.1c-2.1,2.1-3.1,4.5-3.1,7.5c0,2.9,1,5.4,3.1,7.5c2.1,2.1,4.6,3.1,7.5,3.1
				c2.9,0,5.4-1,7.5-3.1c2.1-2.1,3.1-4.6,3.1-7.5s-1-5.4-3.1-7.5C713.3-846.2,710.8-847.2,707.9-847.2z"/>
		</g>
	</g>
</g>
<g transform="matrix( 0.6202239990234375, -0.2796478271484375, -0.2796478271484375, -0.6202239990234375, 856.9,715.1) ">
	<g>
		<g id="Layer1_6_MEMBER_12_MEMBER_4_FILL">
			<path class="st18" d="M-364.1,1113.6c0.8-0.4,1.5-1,2.1-1.6l-3.1-7c-1.2,4-2.2,6.7-3,8.3C-367,1114.3-365.6,1114.4-364.1,1113.6z
				"/>
		</g>
	</g>
</g>
<g transform="matrix( 0.5615234375, -0.38372802734375, -0.38372802734375, -0.5615234375, 925.25,740.8) ">
	<g>
		<g id="Layer1_6_MEMBER_12_MEMBER_5_FILL">
			<path class="st17" d="M-218.9,1237.9l-9.1,1.9l1,9.3l-2.1,4.7c-1.3,3.1-1.4,4.7-0.6,4.6c0.9-0.1,1.9-0.3,3.1-0.6
				c1.8-0.5,3.3-1.2,4.3-2.1c0.9-0.8,2-2.4,3.2-4.9c0.6-1.3,1.2-2.4,1.7-3.5L-218.9,1237.9z"/>
		</g>
	</g>
</g>
<g transform="matrix( 0.0709381103515625, -0.676422119140625, 0.676422119140625, 0.0709381103515625, 817.5,695.4) ">
	<g transform="matrix( 0.153350830078125, 1.4622802734375, -1.4622802734375, 0.153350830078125, 891.5,-1302.05) ">
		<path id="Layer1_6_MEMBER_12_MEMBER_6_1_STROKES" class="st19" d="M410.2-990.4l-11.6,0.5"/>
	</g>
</g>
<g transform="matrix( 0.66339111328125, -0.153411865234375, 0.153411865234375, 0.66339111328125, 669.75,315) ">
	<g>
		<g id="Layer1_6_MEMBER_13_FILL_1_">
			<path class="st21" d="M-479.9-383.9c0,0.3,0.1,0.5,0.3,0.7c0.2,0.2,0.4,0.3,0.7,0.3s0.5-0.1,0.7-0.3c0.2-0.2,0.3-0.4,0.3-0.7
				c0-0.3-0.1-0.5-0.3-0.7c-0.2-0.2-0.4-0.3-0.7-0.3s-0.5,0.1-0.7,0.3S-479.9-384.1-479.9-383.9z"/>
		</g>
	</g>
</g>
<g transform="matrix( 0.6536865234375, -0.190521240234375, 0.190521240234375, 0.6536865234375, 667.3,332.1) ">
	<g>
		<g id="Layer1_6_MEMBER_14_FILL_1_">
			<path class="st21" d="M-437.6-433.4c0,0.3,0.1,0.5,0.3,0.7s0.4,0.3,0.7,0.3s0.5-0.1,0.7-0.3c0.2-0.2,0.3-0.4,0.3-0.7
				c0-0.3-0.1-0.5-0.3-0.7s-0.4-0.3-0.7-0.3s-0.5,0.1-0.7,0.3C-437.5-433.9-437.6-433.6-437.6-433.4z"/>
		</g>
	</g>
</g>
<g transform="matrix( 0.66339111328125, -0.153411865234375, 0.153411865234375, 0.66339111328125, 669.75,315) ">
	<g>
		<g id="Layer1_6_MEMBER_15_FILL">
			<path class="st20" d="M-461.6-403.2c0.5-1.3,0.7-2.6,0.8-3.9c-0.4,0.9-0.9,1.9-1.6,2.9c-1.4,2-2.8,3.4-4.2,3.9
				c-1.2,0.5-4.4,0.9-9.5,1.2l-7.4,0.4l1.5,0.4c1.1,0.3,2.1,0.5,2.9,0.6c1.8,0.2,4.3,0.2,7.5,0c4.5-0.3,7.2-1,8-2.2
				C-462.8-400.8-462.1-401.9-461.6-403.2z"/>
		</g>
	</g>
</g>
<g transform="matrix( 0.66302490234375, -0.1531982421875, 0.1531982421875, 0.66302490234375, 669.05,315.2) ">
	<g>
		<g id="Layer1_6_MEMBER_16_MEMBER_0_FILL">
			<path class="st17" d="M-498.7-386.4c1.2,3.3,1.8,5,1.9,5c0.9,1.9,1.8,2.4,2.6,1.5c1.7-1.9,2.6-4.5,2.6-7.6
				c-0.1-0.2-0.2-0.4-0.4-0.6c-0.4-0.5-0.9-1-1.5-1.4c-1.6-1.1-3-1.3-4.3-0.6C-499-389.4-499.4-388.2-498.7-386.4z"/>
		</g>
	</g>
</g>
<g transform="matrix( 0.66302490234375, -0.1531982421875, 0.1531982421875, 0.66302490234375, 669.05,315.2) ">
	<g>
		<g id="Layer1_6_MEMBER_16_MEMBER_1_FILL">
			<path class="st18" d="M-495.9-386.9l2-0.3l-4-0.7l3,5.5L-495.9-386.9z"/>
		</g>
	</g>
</g>
<g transform="matrix( 0.66339111328125, -0.153411865234375, 0.153411865234375, 0.66339111328125, 669.75,315) ">
	<g>
		<g id="Layer1_6_MEMBER_17_FILL_1_">
			<path class="st18" d="M-473.9-376.9l1.8-0.4l-1.7-7.9L-473.9-376.9z"/>
		</g>
	</g>
</g>
<g transform="matrix( 1, 0, 0, 1, 0,0) ">
	<g>
		<g id="Layer1_6_MEMBER_18_FILL_1_">
			<path class="st18" d="M301.2,138c-0.1,0.1-0.2,0.1-0.3,0.2c-0.2,0.4-0.5,0.8-1,1.2l0,0c-0.5,0.4-1.1,0.7-1.7,0.9
				c-0.6,0.2-1.3,0.1-2-0.1c-0.6-0.1-1.1-0.4-1.4-0.6c-0.1-0.1-0.2-0.1-0.3-0.1c-0.1,0-0.2,0.1-0.3,0.2c-0.1,0.1-0.1,0.2-0.1,0.3
				c0,0.1,0.1,0.2,0.2,0.3c0.4,0.4,1,0.6,1.7,0.8c0.9,0.2,1.7,0.3,2.4,0.1c0.8-0.2,1.5-0.5,2.1-1.1l0,0c0.6-0.5,1-1,1.3-1.5
				c0.1-0.1,0.1-0.2,0-0.3c0-0.1-0.1-0.2-0.2-0.3C301.4,138,301.3,138,301.2,138z"/>
		</g>
	</g>
</g>
<g transform="matrix( 0.65338134765625, 0.188507080078125, -0.1884765625, 0.6533660888671875, 868.65,72.35) ">
	<g>
		<g id="Layer1_6_MEMBER_19_MEMBER_0_FILL_1_">
			<path class="st15" d="M-699.1,433.3c-1.1-1.1-2.5-1.7-4.1-1.7s-2.9,0.6-4.1,1.7c-1.1,1.1-1.7,2.5-1.7,4.1l0,40.8
				c0,1.6,0.6,3,1.7,4.1c1.1,1.1,2.5,1.7,4.1,1.7s3-0.6,4.1-1.7c1.1-1.1,1.7-2.5,1.7-4.1l0-40.8C-697.4,435.8-698,434.4-699.1,433.3
				z"/>
		</g>
	</g>
</g>
<g transform="matrix( 1, 0, 0, 1, 0,0) ">
	<g>
		<g id="Layer1_6_MEMBER_19_MEMBER_1_FILL_1_">
			<path class="st7" d="M334.1,200c-2.1-0.3-4.1,0.1-6,1.1c-0.3,0.1-0.5,0.4-0.7,0.7c-0.4,0.9-0.8,1.9-1,2.8
				c-0.3,1.3-0.5,2.6-0.8,3.9c-0.6,2.7-1.1,5-1.6,6.7c-0.6,1.9-1.1,3.7-1.5,5.3c-0.2,0.8-0.4,1.6-0.6,2.4l-6.4,23l9.8,2.7l7.7-28.1
				c0.2-0.8,0.4-1.6,0.7-2.4c0.6-2,1.2-4.1,1.8-6.5c1-2.8,1.5-5.7,1.5-8.6c0-0.3-0.1-0.7-0.2-1C336.3,200.8,335.4,200.1,334.1,200z"
				/>
		</g>
	</g>
</g>
<g transform="matrix( 1, 0, 0, 1, 0,0) ">
	<g>
		<g id="Layer1_6_MEMBER_19_MEMBER_2_FILL_1_">
			<path class="st7" d="M290.2,213.8l0.3,1.1c0.3,1.2,1,2.1,2.1,2.7s2.2,0.7,3.4,0.4l34.6-9.5l0,0c6.9-2.1,8.2-5.5,3.9-10l-1.1-0.8
				c-0.5-0.1-1.1-0.1-1.7,0l-38.3,10.5c-1.1,0.3-2,1-2.7,2.1C290,211.4,289.9,212.6,290.2,213.8z"/>
		</g>
	</g>
</g>
<g transform="matrix( 0.673095703125, -0.09844970703125, 0.09844970703125, 0.673095703125, 660.5,185.4) ">
	<g>
		<g id="Layer1_6_MEMBER_19_MEMBER_3_FILL_1_">
			<path class="st16" d="M-517.2,20.8c-0.3,0.2-0.4,0.5-0.4,0.9v7l34.8,0V28c0-0.6-0.2-1.2-0.6-1.7c-0.4-0.5-0.9-0.8-1.5-1
				l-18.5-4.8c-0.9-0.2-1.7-0.2-2.6,0c-3.9,1-7.3,1.1-10.2,0.2C-516.6,20.5-516.9,20.6-517.2,20.8z"/>
		</g>
	</g>
</g>
<g transform="matrix( 0.673095703125, -0.09844970703125, 0.09844970703125, 0.673095703125, 660.5,185.4) ">
	<g>
		<g id="Layer1_6_MEMBER_19_MEMBER_4_FILL_1_">
			<path class="st2" d="M-517,30.3c0.4,0.4,0.9,0.6,1.5,0.6l31.6,0c0.3,0,0.6-0.1,0.8-0.3c0.2-0.2,0.3-0.5,0.3-0.8v-1.1l-34.8,0v0.1
				C-517.6,29.3-517.4,29.8-517,30.3z"/>
		</g>
	</g>
</g>
<g transform="matrix( 1, 0, 0, 1, 0,0) ">
	<g>
		<g id="Layer1_6_MEMBER_20_FILL">
			<path class="st12" d="M301.2,110.5c-0.6-0.7-2.7-0.9-6.1-0.5s-7.3,0.7-11.5,0.9c-4.3,0.2-7.7,1.5-10.2,3.8s-3.5,4.3-2.9,6
				s2.7,2.5,6.1,2.6c3.5,0.1,7.3-0.7,11.6-2.3c4.3-1.6,7.7-3.6,10.2-5.9C300.8,112.8,301.8,111.2,301.2,110.5z"/>
		</g>
	</g>
</g>
<g transform="matrix( 0.9353485107421875, -0.35369873046875, 0.35369873046875, 0.9353485107421875, 84.4,261.05) ">
	<g>
		<g id="Layer1_6_MEMBER_20_MEMBER_0_FILL">
			<path class="st7" d="M231.1-62.2c-0.6,0-1.1,0.2-1.6,0.6c-0.4,0.4-0.6,1-0.6,1.6v1.5c0,0.6,0.2,1.1,0.6,1.5
				c0.4,0.4,1,0.7,1.6,0.7h17.2c0.6,0,1.1-0.2,1.5-0.7c0.4-0.4,0.7-0.9,0.7-1.5V-60c0-0.6-0.2-1.1-0.7-1.6c-0.4-0.4-0.9-0.6-1.5-0.6
				L231.1-62.2z"/>
		</g>
	</g>
</g>
<g transform="matrix( 1, 0, 0, 1, 72.5,-24.1) ">
	<g>
		<g id="Layer1_6_MEMBER_20_MEMBER_1_FILL">
			<path class="st7" d="M179,147.2c-1.9-0.1-3.8,0.2-5.7,0.9c2.4-0.1,4.5,0.3,6.5,1.1c0.2,0.1,0.4,0.2,0.6,0.3
				c-1.6,0.2-3.1,0.7-4.5,1.3c-0.5,0.3-1.1,0.6-1.6,0.8c2.4-0.2,4.7-0.3,6.9-0.1c2.1,0.2,4,0.4,5.7,0.7c1.6,0.3,3.8,0.4,6.4,0.5
				c2.4,0,4.8-0.1,7.2-0.4c1.8-0.3,4.3-0.8,7.3-1.5l-2.2-3.3c-2.6,0.6-5.3,1-8.1,1.2c-1.5,0.2-2.9,0.2-4.4,0.2
				c-2.6-0.2-5.1-0.5-7.6-1c-0.9-0.1-1.8-0.2-2.6-0.4C182.3,147.4,181,147.3,179,147.2z"/>
		</g>
	</g>
</g>
<g transform="matrix( 0.866668701171875, 0, 0, 0.866668701171875, 354.6,-68.8) ">
	<g>
		<g id="Layer1_6_MEMBER_21_MEMBER_0_MEMBER_0_FILL">
			<path class="st2" d="M-48.7,222c-1.3,0-2.4,0.5-3.4,1.4c-0.9,0.9-1.4,2-1.4,3.4c0,1.3,0.5,2.4,1.4,3.4c0.9,0.9,2,1.4,3.4,1.4
				h10.4c1.3,0,2.4-0.5,3.4-1.4c0.9-0.9,1.4-2,1.4-3.4c0-1.3-0.5-2.4-1.4-3.4c-0.9-0.9-2-1.4-3.4-1.4H-48.7z"/>
		</g>
	</g>
</g>
<g transform="matrix( 0.866668701171875, 0, 0, 0.866668701171875, 354.6,-69.15) ">
	<g>
		<g id="Layer1_6_MEMBER_21_MEMBER_0_MEMBER_1_FILL">
			<path class="st16" d="M-34.7,227.2c0-1-0.3-1.9-1-2.6s-1.5-1.1-2.4-1.1c-0.9,0-1.8,0.4-2.4,1.1c-0.7,0.7-1,1.6-1,2.6
				s0.3,1.9,1,2.6s1.5,1.1,2.4,1.1c0.9,0,1.7-0.4,2.4-1.1S-34.7,228.2-34.7,227.2z"/>
		</g>
	</g>
</g>
<g transform="matrix( 1, 0, 0, 1, 231.8,-125.4) ">
	<g>
		<g id="Layer1_6_MEMBER_21_MEMBER_1_MEMBER_0_FILL">
			<path class="st2" d="M71.5,250.3c-1.3,0-2.4,0.5-3.4,1.4c-0.9,0.9-1.4,2-1.4,3.4c0,1.3,0.5,2.4,1.4,3.4c0.9,0.9,2,1.4,3.4,1.4
				h10.4c1.3,0,2.4-0.5,3.4-1.4c0.9-0.9,1.4-2,1.4-3.4c0-1.3-0.5-2.4-1.4-3.4s-2-1.4-3.4-1.4H71.5z"/>
		</g>
	</g>
</g>
<g transform="matrix( 1, 0, 0, 1, 231.8,-125.9) ">
	<g>
		<g id="Layer1_6_MEMBER_21_MEMBER_1_MEMBER_1_FILL">
			<path class="st16" d="M85.6,255.5c0-1-0.3-1.9-1-2.6s-1.5-1.1-2.4-1.1s-1.8,0.4-2.4,1.1c-0.7,0.7-1,1.6-1,2.6s0.3,1.9,1,2.6
				s1.5,1.1,2.4,1.1s1.7-0.4,2.4-1.1C85.2,257.4,85.6,256.5,85.6,255.5z"/>
		</g>
	</g>
</g>
<g transform="matrix( 1, 0, 0, 1, 0,0) ">
	<g>
		<g id="Layer1_6_MEMBER_21_MEMBER_2_FILL">
			<path class="st4" d="M312.6,127.1c-0.1,0-0.2,0-0.3,0.1c-0.6,0.7-0.9,1.1-1,1.3c-0.1,0.2-0.2,0.7-0.2,1.5c0,0.4,0,0.6,0.1,0.7
				c0.1,0.2,0.2,0.4,0.4,0.8c0.1,0.1,0.1,0.2,0.3,0.2c0.1,0,0.2,0,0.3,0c0.1-0.1,0.2-0.1,0.2-0.3c0-0.1,0-0.2,0-0.3
				c-0.2-0.4-0.3-0.6-0.3-0.6c0-0.1,0-0.1,0-0.2s0-0.2,0-0.3c0-0.6,0-0.9,0.1-1.1c0.1-0.1,0.4-0.5,0.9-1.1c0.1-0.1,0.1-0.2,0.1-0.3
				c0-0.1-0.1-0.2-0.2-0.3C312.8,127.1,312.7,127,312.6,127.1z"/>
		</g>
	</g>
</g>
<g transform="matrix( 1, 0, 0, 1, 0,0) ">
	<g>
		<g id="Layer1_6_MEMBER_21_MEMBER_3_FILL">
			<path class="st4" d="M320.9,126c0.1-0.1,0.1-0.2,0.1-0.3c0-0.1-0.1-0.2-0.2-0.3c-0.1-0.1-0.2-0.1-0.3-0.1c-0.1,0-0.2,0.1-0.3,0.2
				c-0.8,0.9-1.1,1.9-0.9,3.1l0,0c0,0.2,0.1,0.4,0.1,0.6c0,0.1,0.1,0.2,0.2,0.3c0.1,0.1,0.2,0.1,0.3,0c0.1,0,0.2-0.1,0.3-0.2
				c0.1-0.1,0.1-0.2,0-0.3c0-0.2-0.1-0.4-0.1-0.5l0,0C320,127.5,320.3,126.8,320.9,126z"/>
		</g>
	</g>
</g>
<g transform="matrix( 1, 0, 0, 1, 0,0) ">
	<g>
		<g id="Layer1_6_MEMBER_21_MEMBER_4_FILL">
			<path class="st16" d="M305.8,127.6c-0.1-0.1-0.2-0.1-0.3-0.1c-0.9,0-1.8,0-2.7-0.1c-0.9-0.1-1.5-0.1-1.7-0.1
				c-0.1,0-0.2,0-0.3,0.1c-0.1,0.1-0.1,0.2-0.1,0.3c0,0.1,0,0.2,0.1,0.3c0.1,0.1,0.2,0.1,0.3,0.1c0.3,0,0.8,0,1.7,0.1
				c0.9,0.1,1.8,0.1,2.7,0.1c0.1,0,0.2,0,0.3-0.1c0.1-0.1,0.1-0.2,0.1-0.3C306,127.8,305.9,127.8,305.8,127.6z"/>
		</g>
	</g>
</g>
<g transform="matrix( 1, 0, 0, 1, 0,0) ">
	<g>
		<g id="Layer1_7_FILL_4_">
			<path class="st22" d="M370.2,219.4c-1-6.1-3.1-9.5-6.4-10.3s-6.7,1.3-10.3,6.3c-3.6,5-6.4,11.4-8.3,19.2
				c-1.9,7.8-2.3,14.8-1.4,20.9c1,6.1,3.1,9.5,6.4,10.3s6.7-1.3,10.4-6.3c3.6-5,6.4-11.4,8.3-19.2
				C370.7,232.4,371.1,225.4,370.2,219.4 M362.9,211.3c0.1,0.2,0.1,0.5,0,0.7s-0.3,0.4-0.5,0.5c-0.7,0.3-1.4,0.7-2.1,1.2
				c-0.2,0.1-0.4,0.2-0.7,0.2c-0.2,0-0.4-0.1-0.6-0.3c-0.1-0.2-0.2-0.4-0.2-0.7c0-0.2,0.2-0.4,0.4-0.6c0.8-0.6,1.6-1.1,2.5-1.5
				c0.2-0.1,0.5-0.1,0.7,0C362.6,210.9,362.8,211.1,362.9,211.3 M353.3,220.4L353.3,220.4c0.3-0.6,0.5-1.1,0.8-1.7
				c0.1-0.2,0.3-0.3,0.5-0.4s0.5-0.1,0.7,0s0.4,0.3,0.4,0.5c0.1,0.2,0.1,0.5-0.1,0.7c-0.3,0.5-0.5,1-0.8,1.6l0,0
				c-0.1,0.3-0.3,0.6-0.4,0.9c-0.1,0.2-0.3,0.4-0.5,0.5s-0.4,0.1-0.7,0c-0.2-0.1-0.4-0.3-0.5-0.5s-0.1-0.4,0-0.7
				C353,221.1,353.2,220.8,353.3,220.4 M355.4,216.4c0.5-0.8,1.1-1.6,1.7-2.2c0.2-0.2,0.4-0.3,0.6-0.3c0.3,0,0.5,0.1,0.6,0.2
				c0.2,0.2,0.3,0.4,0.3,0.6s-0.1,0.5-0.2,0.6c-0.5,0.6-1,1.3-1.5,2c-0.1,0.2-0.3,0.3-0.6,0.4c-0.2,0.1-0.5,0-0.7-0.1
				s-0.3-0.3-0.4-0.6C355.3,216.9,355.3,216.6,355.4,216.4 M353.5,223.9c0.1,0.2,0.1,0.4,0,0.7c-0.3,0.8-0.6,1.6-0.9,2.5
				c-0.1,0.2-0.2,0.4-0.5,0.5c-0.2,0.1-0.4,0.1-0.7,0c-0.2-0.1-0.4-0.2-0.5-0.5c-0.1-0.2-0.1-0.4,0-0.7c0.3-0.9,0.6-1.8,0.9-2.6
				c0.1-0.2,0.3-0.4,0.5-0.5s0.4-0.1,0.7,0C353.3,223.5,353.4,223.8,353.5,223.9 M350.6,228.5c0.2-0.1,0.5-0.1,0.7,0
				s0.4,0.2,0.5,0.4c0.1,0.2,0.1,0.5,0.1,0.7c-0.2,0.6-0.4,1.3-0.6,2l0,0c-0.1,0.2-0.1,0.4-0.2,0.6s-0.2,0.4-0.4,0.5
				c-0.2,0.1-0.4,0.1-0.7,0.1c-0.2-0.1-0.4-0.2-0.5-0.4c-0.1-0.2-0.1-0.4,0-0.7c0.1-0.3,0.2-0.5,0.2-0.7v0.1c0.2-0.7,0.4-1.4,0.6-2
				C350.2,228.8,350.3,228.6,350.6,228.5 M349,233.8c0.2-0.1,0.4-0.2,0.7-0.1c0.2,0,0.4,0.2,0.6,0.4c0.1,0.2,0.2,0.4,0.1,0.7
				c-0.2,0.8-0.3,1.7-0.5,2.6c0,0.2-0.1,0.4-0.4,0.6c-0.2,0.1-0.4,0.2-0.7,0.2c-0.2,0-0.4-0.1-0.6-0.4c-0.1-0.2-0.2-0.4-0.2-0.7
				c0.2-1,0.3-1.9,0.5-2.7C348.6,234.1,348.8,233.9,349,233.8 M348,239.2c0.2-0.1,0.4-0.2,0.7-0.2c0.2,0,0.4,0.1,0.6,0.3
				c0.2,0.2,0.2,0.4,0.2,0.7c0,0.2-0.1,0.5-0.1,0.7l0,0c-0.1,0.7-0.2,1.3-0.2,1.9c0,0.2-0.1,0.4-0.3,0.6c-0.2,0.2-0.4,0.2-0.6,0.2
				s-0.4-0.1-0.6-0.3c-0.1-0.2-0.2-0.4-0.2-0.6c0.1-0.6,0.2-1.2,0.2-1.9c0-0.2,0.1-0.5,0.1-0.7C347.7,239.5,347.8,239.3,348,239.2
				 M348,244.2c0.2,0,0.4,0.1,0.6,0.3c0.2,0.2,0.2,0.4,0.2,0.6c-0.1,1-0.2,1.8-0.2,2.6c0,0.2-0.1,0.5-0.3,0.6
				c-0.2,0.2-0.4,0.2-0.6,0.2s-0.4-0.1-0.6-0.3c-0.2-0.2-0.2-0.4-0.2-0.6c0-0.8,0.1-1.6,0.2-2.6c0-0.2,0.1-0.4,0.3-0.6
				C347.6,244.2,347.8,244.2,348,244.2 M346.8,250.2c0-0.2,0.1-0.4,0.2-0.6c0.2-0.2,0.4-0.3,0.6-0.3c0.3,0,0.5,0.1,0.6,0.2
				c0.2,0.2,0.3,0.4,0.3,0.6c0,0.9,0,1.8,0.1,2.6c0,0.2-0.1,0.5-0.2,0.6c-0.2,0.2-0.4,0.3-0.6,0.3s-0.4-0.1-0.6-0.2
				c-0.2-0.2-0.3-0.4-0.3-0.6C346.8,252.1,346.8,251.2,346.8,250.2 M347,255.6c0-0.2,0-0.5,0.2-0.7s0.4-0.3,0.6-0.3s0.5,0,0.6,0.2
				c0.2,0.2,0.3,0.4,0.3,0.6c0.1,0.8,0.2,1.5,0.3,2.1v0.1c0.1,0.2,0.1,0.5-0.1,0.7c-0.1,0.2-0.3,0.4-0.5,0.4
				c-0.2,0.1-0.4,0.1-0.7-0.1c-0.2-0.1-0.4-0.3-0.4-0.5v-0.1V258C347.2,257.3,347.1,256.5,347,255.6 M348.2,260.8
				c-0.1-0.2-0.1-0.4,0-0.7c0.1-0.2,0.3-0.4,0.5-0.5s0.5-0.1,0.7,0s0.4,0.3,0.4,0.5c0.3,0.7,0.6,1.5,0.9,2.4c0.1,0.2,0.1,0.4,0,0.7
				c-0.1,0.2-0.2,0.4-0.5,0.5c-0.2,0.1-0.5,0.1-0.7,0s-0.4-0.2-0.5-0.5C348.8,262.4,348.4,261.6,348.2,260.8z"/>
			<path class="st3" d="M348.2,260.1c-0.1,0.2-0.1,0.4,0,0.7c0.3,0.8,0.6,1.6,1,2.5c0.1,0.2,0.3,0.4,0.5,0.5s0.5,0.1,0.7,0
				s0.4-0.3,0.5-0.5s0.1-0.4,0-0.7c-0.4-0.8-0.7-1.6-0.9-2.4c-0.1-0.2-0.2-0.4-0.4-0.5c-0.2-0.1-0.4-0.1-0.7,0
				C348.5,259.8,348.3,259.9,348.2,260.1 M347.2,254.9c-0.2,0.2-0.2,0.4-0.2,0.7c0.1,0.9,0.2,1.7,0.4,2.4v0.1c0,0.1,0,0.1,0,0.1
				c0.1,0.2,0.2,0.4,0.4,0.5c0.2,0.1,0.4,0.1,0.7,0.1c0.2-0.1,0.4-0.2,0.5-0.4c0.1-0.2,0.1-0.4,0.1-0.7v-0.1
				c-0.1-0.6-0.2-1.3-0.3-2.1c0-0.2-0.1-0.4-0.3-0.6c-0.2-0.2-0.4-0.2-0.6-0.2C347.6,254.6,347.4,254.8,347.2,254.9 M347,249.6
				c-0.2,0.2-0.2,0.4-0.2,0.6c0,1,0,1.8,0.1,2.6c0,0.3,0.1,0.5,0.3,0.6c0.2,0.2,0.4,0.3,0.6,0.2c0.3,0,0.5-0.1,0.6-0.3
				c0.2-0.2,0.3-0.4,0.2-0.6c0-0.8-0.1-1.7-0.1-2.6c0-0.2-0.1-0.4-0.3-0.6c-0.2-0.2-0.4-0.2-0.6-0.2
				C347.4,249.3,347.2,249.4,347,249.6 M348.6,244.5c-0.2-0.2-0.4-0.3-0.6-0.3s-0.5,0-0.6,0.2c-0.2,0.2-0.3,0.4-0.3,0.6
				c-0.1,1-0.2,1.9-0.2,2.6c0,0.3,0.1,0.5,0.2,0.6c0.2,0.2,0.4,0.3,0.6,0.3c0.3,0,0.5-0.1,0.6-0.2c0.2-0.2,0.3-0.4,0.3-0.6
				c0-0.7,0.1-1.6,0.2-2.6C348.9,244.9,348.8,244.8,348.6,244.5 M348.7,239c-0.2,0-0.5,0-0.7,0.2s-0.3,0.4-0.3,0.6s-0.1,0.5-0.1,0.7
				c-0.1,0.7-0.2,1.3-0.2,1.9c0,0.2,0,0.5,0.2,0.6c0.2,0.2,0.4,0.3,0.6,0.3s0.5,0,0.6-0.2c0.2-0.1,0.3-0.3,0.3-0.6
				c0.1-0.6,0.2-1.2,0.2-1.9l0,0c0-0.2,0.1-0.5,0.1-0.7s0-0.5-0.2-0.7C349.1,239.1,348.9,239,348.7,239 M349.6,233.8
				c-0.2-0.1-0.5,0-0.7,0.1s-0.3,0.3-0.4,0.6c-0.2,0.8-0.3,1.7-0.5,2.7c0,0.2,0,0.5,0.2,0.7s0.3,0.3,0.6,0.4c0.2,0,0.5,0,0.7-0.2
				c0.2-0.1,0.3-0.3,0.4-0.6c0.2-1,0.3-1.9,0.5-2.6c0.1-0.2,0-0.5-0.1-0.7C350,233.8,349.9,233.8,349.6,233.8 M351.2,228.4
				c-0.2-0.1-0.5-0.1-0.7,0s-0.3,0.3-0.4,0.5c-0.2,0.6-0.4,1.3-0.6,2v-0.1c-0.1,0.2-0.1,0.5-0.2,0.7s-0.1,0.5,0,0.7s0.3,0.4,0.5,0.4
				c0.2,0.1,0.5,0.1,0.7-0.1c0.2-0.1,0.4-0.3,0.4-0.5c0.1-0.2,0.1-0.4,0.2-0.6l0,0c0.2-0.7,0.4-1.4,0.6-2c0.1-0.2,0.1-0.5-0.1-0.7
				C351.6,228.6,351.5,228.5,351.2,228.4 M353.5,224.5c0.1-0.2,0.1-0.4,0-0.7c-0.1-0.2-0.3-0.4-0.5-0.5s-0.4-0.1-0.7,0
				c-0.2,0.1-0.4,0.3-0.5,0.5c-0.3,0.8-0.6,1.7-0.9,2.6c-0.1,0.2-0.1,0.5,0,0.7s0.3,0.4,0.5,0.5s0.5,0.1,0.7,0s0.4-0.3,0.5-0.5
				C352.9,226.2,353.2,225.3,353.5,224.5 M357.1,214.2c-0.6,0.7-1.2,1.4-1.7,2.2c-0.1,0.2-0.2,0.4-0.1,0.7c0,0.2,0.2,0.4,0.4,0.6
				c0.2,0.1,0.4,0.2,0.7,0.1c0.2,0,0.4-0.2,0.6-0.4c0.5-0.7,1-1.4,1.5-2c0.2-0.2,0.2-0.4,0.2-0.6s-0.1-0.4-0.3-0.6
				c-0.2-0.2-0.4-0.2-0.6-0.2C357.5,213.9,357.3,214,357.1,214.2 M353.3,220.4L353.3,220.4c-0.1,0.3-0.3,0.7-0.4,1
				c-0.1,0.2-0.1,0.4,0,0.7c0.1,0.2,0.3,0.4,0.5,0.5s0.4,0.1,0.7,0c0.2-0.1,0.4-0.3,0.5-0.5c0.1-0.3,0.3-0.6,0.4-0.9l0,0
				c0.3-0.5,0.5-1.1,0.8-1.6c0.1-0.2,0.1-0.4,0.1-0.7c-0.1-0.2-0.2-0.4-0.4-0.5c-0.2-0.1-0.4-0.1-0.7,0c-0.2,0.1-0.4,0.2-0.5,0.4
				C353.8,219.3,353.6,219.8,353.3,220.4 M362.9,212c0.1-0.2,0.1-0.5,0-0.7s-0.3-0.4-0.5-0.5s-0.5-0.1-0.7,0
				c-0.9,0.4-1.7,0.9-2.5,1.5c-0.2,0.1-0.3,0.3-0.4,0.6c0,0.2,0,0.5,0.2,0.7c0.1,0.2,0.3,0.3,0.6,0.3c0.2,0,0.5,0,0.7-0.2
				c0.7-0.5,1.4-0.9,2.1-1.2C362.6,212.3,362.8,212.2,362.9,212z"/>
		</g>
	</g>
</g>
</svg>
