<?xml version="1.0" encoding="utf-8"?>
<!-- Generator: Adobe Illustrator 19.2.1, SVG Export Plug-In . SVG Version: 6.00 Build 0)  -->
<!DOCTYPE svg PUBLIC "-//W3C//DTD SVG 1.1//EN" "http://www.w3.org/Graphics/SVG/1.1/DTD/svg11.dtd">
<svg version="1.1" id="Layer_1" xmlns="http://www.w3.org/2000/svg" xmlns:xlink="http://www.w3.org/1999/xlink" x="0px" y="0px"
	 viewBox="0 0 595.3 421" style="enable-background:new 0 0 595.3 421;" xml:space="preserve">
<style type="text/css">
	.st0{fill:#FFDA83;}
	.st1{fill:#FFEBBE;}
	.st2{fill:#7D7E80;}
	.st3{fill:#FFFFFF;}
	.st4{fill:#F6B04F;}
	.st5{fill:#F7AD92;}
	.st6{fill:#E6E6E5;}
	.st7{fill:#465AA6;}
	.st8{fill:#B5B5B5;}
	.st9{fill:#4F4F4F;}
	.st10{fill:#383660;}
	.st11{fill:#475AA6;}
	.st12{fill:none;stroke:#698FC7;stroke-width:3;stroke-miterlimit:10;}
	.st13{fill:#E7E7E9;}
	.st14{fill:#F7B04F;}
	.st15{fill:none;stroke:#595A5C;stroke-width:3;stroke-linecap:round;stroke-linejoin:round;}
	.st16{fill:#DB846E;}
	.st17{fill:#698FC7;}
	.st18{fill:#8C643E;}
	.st19{fill:#744E2A;}
	.st20{fill:#040505;}
	.st21{fill:#FDC029;}
	.st22{fill:#E66661;}
	.st23{fill:#FBD8BB;}
	.st24{fill:#53527F;}
	.st25{fill:#55412E;}
	.st26{fill:#424243;}
	.st27{fill:#6C503C;}
	.st28{fill:#EE3F5A;}
	.st29{fill:#BA7C4F;}
	.st30{fill:none;stroke:#4BA57B;stroke-width:2;stroke-linecap:round;stroke-linejoin:round;}
	.st31{fill:none;stroke:#FFFFFF;stroke-width:2;stroke-linecap:round;stroke-linejoin:round;}
	.st32{fill:#9C6A44;}
	.st33{fill:none;stroke:#FFFFFF;stroke-width:3;stroke-linecap:round;stroke-linejoin:round;}
</style>
<g transform="matrix( 1, 0, 0, 1, 0,0) ">
	<g>
		<g id="Layer1_0_MEMBER_0_FILL">
			<path class="st0" d="M263.2,69.6c-0.2-3-1.7-4.4-4.5-4.2l-107.3,8.1c-2.8,0.2-4.1,1.8-3.9,4.9L161.7,302c0.2,3.1,1.7,4.5,4.5,4.3
				l107.4-8.2c2.8-0.2,4.1-1.8,3.9-4.9L263.2,69.6z"/>
		</g>
	</g>
</g>
<g transform="matrix( 1, 0, 0, 1, 0,0) ">
	<g>
		<g id="Layer1_0_MEMBER_1_FILL">
			<path class="st1" d="M202.9,78.4c-0.1-1.3-0.7-1.9-1.9-1.8L156.1,80c-1.2,0.1-1.7,0.8-1.6,2.1l5.9,93.6c0.1,1.3,0.7,1.9,1.8,1.8
				l45-3.4c1.2-0.1,1.7-0.8,1.6-2.1L202.9,78.4z"/>
		</g>
	</g>
</g>
<g transform="matrix( 1, 0, 0, 1, 0,0) ">
	<g>
		<g id="Layer1_0_MEMBER_2_FILL">
			<path class="st1" d="M210.7,76.3c-1.2,0.1-1.7,0.8-1.6,2.1L215,172c0.1,1.3,0.7,1.9,1.8,1.8l44.9-3.4c1.2-0.1,1.7-0.8,1.7-2.1
				l-5.9-93.6c-0.1-1.3-0.7-1.9-1.9-1.8L210.7,76.3z"/>
		</g>
	</g>
</g>
<g transform="matrix( 1, 0, 0, 1, 0,0) ">
	<g>
		<g id="Layer1_0_MEMBER_3_FILL">
			<path class="st1" d="M209.5,183.2c-0.1-1.3-0.7-1.9-1.9-1.8l-44.9,3.4c-1.2,0.1-1.7,0.8-1.7,2.1l6,93.6c0.1,1.3,0.7,1.9,1.9,1.8
				l45-3.4c1.2-0.1,1.7-0.8,1.6-2.1L209.5,183.2z"/>
		</g>
	</g>
</g>
<g transform="matrix( 1, 0, 0, 1, 0,0) ">
	<g>
		<g id="Layer1_0_MEMBER_4_FILL">
			<path class="st1" d="M264.1,179.5c-0.1-1.3-0.7-1.9-1.9-1.8l-44.9,3.4c-1.2,0.1-1.7,0.8-1.7,2.1l5.9,93.6
				c0.1,1.3,0.7,1.9,1.9,1.8l44.9-3.4c1.2-0.1,1.7-0.8,1.6-2.1L264.1,179.5z"/>
		</g>
	</g>
</g>
<g transform="matrix( 1, 0, 0, 1, 0,0) ">
	<g>
		<g id="Layer1_0_MEMBER_5_FILL">
			<path class="st2" d="M247.9,180.2c0.1,2,0.8,3.6,2.2,5s3.1,2,5.1,2c2,0,3.6-0.8,5-2.2c1.4-1.4,2-3.1,2-5.1s-0.8-3.6-2.2-5
				c-1.4-1.3-3.1-2-5.1-2s-3.6,0.8-5,2.2C248.5,176.5,247.9,178.2,247.9,180.2 M256.6,175c0.2,0.1,0.3,0.3,0.3,0.5s-0.1,0.4-0.2,0.6
				s-0.3,0.3-0.6,0.3c-0.3,0-0.9,0.1-1.7,0.3c-0.2,0.1-0.4,0-0.6-0.1c-0.2-0.1-0.3-0.3-0.4-0.5c0-0.2,0-0.4,0.1-0.6s0.3-0.3,0.5-0.4
				c1-0.2,1.6-0.3,2-0.3C256.3,174.8,256.5,174.8,256.6,175 M250.9,176.8c0.1-0.2,0.3-0.3,0.5-0.3s0.4,0,0.6,0.2
				c0.2,0.1,0.3,0.3,0.3,0.5s0,0.4-0.1,0.6c-1.1,1.4-1,2.8,0.2,4.2l0,0c0.1,0.1,0.2,0.2,0.4,0.3c0.2,0.2,0.3,0.3,0.3,0.6
				c0,0.2-0.1,0.4-0.2,0.6c-0.1,0.2-0.3,0.3-0.5,0.3s-0.4-0.1-0.6-0.2c-0.2-0.1-0.3-0.3-0.4-0.4c0,0,0,0-0.1,0
				C249.4,181,249.3,178.9,250.9,176.8z"/>
			<path class="st3" d="M251.4,176.5c-0.2,0-0.4,0.1-0.5,0.3c-1.6,2.1-1.5,4.2,0.3,6.2c0,0,0,0,0.1,0c0.1,0.1,0.3,0.3,0.4,0.4
				c0.2,0.2,0.4,0.2,0.6,0.2c0.2,0,0.4-0.1,0.5-0.3c0.2-0.2,0.2-0.3,0.2-0.6c0-0.2-0.1-0.4-0.3-0.6c-0.1-0.1-0.3-0.2-0.4-0.3l0,0
				c-1.2-1.4-1.3-2.8-0.2-4.2c0.1-0.2,0.2-0.4,0.1-0.6c0-0.2-0.1-0.4-0.3-0.5C251.9,176.5,251.7,176.4,251.4,176.5 M256.9,175.5
				c0-0.2-0.1-0.4-0.3-0.5c-0.2-0.2-0.4-0.2-0.6-0.2c-0.4,0-1,0.1-2,0.3c-0.2,0.1-0.4,0.2-0.5,0.4c-0.1,0.2-0.2,0.4-0.1,0.6
				c0.1,0.2,0.2,0.4,0.4,0.5s0.4,0.2,0.6,0.1c0.8-0.2,1.4-0.3,1.7-0.3c0.2,0,0.4-0.1,0.6-0.3C256.8,175.9,256.9,175.8,256.9,175.5z"
				/>
		</g>
	</g>
</g>
<g transform="matrix( 1, 0, 0, 1, 0,0) ">
	<g>
		<g id="Layer1_0_MEMBER_6_FILL">
			<path class="st4" d="M216.2,103.9l-6.3-5.2c-1.6-1.3-3-1.2-4.3,0.4l-5.2,6.3c-1.3,1.6-1.1,3,0.4,4.3l6.3,5.2
				c1.6,1.3,3,1.1,4.3-0.4l5.2-6.3C218,106.5,217.8,105.1,216.2,103.9z"/>
		</g>
	</g>
</g>
<g transform="matrix( 1, 0, 0, 1, 0,0) ">
	<g>
		<g id="Layer1_1_MEMBER_0_FILL">
			<path class="st0" d="M429.5,78.8c0.2-3.1-1-4.7-3.8-4.8l-107.4-7.8c-2.8-0.2-4.3,1.2-4.6,4.3l-18.9,223.3c-0.3,3,1,4.7,3.8,4.8
				l107.5,7.8c2.8,0.2,4.3-1.2,4.6-4.3L429.5,78.8z"/>
		</g>
	</g>
</g>
<g transform="matrix( 1, 0, 0, 1, 0,0) ">
	<g>
		<g id="Layer1_1_MEMBER_1_FILL">
			<path class="st1" d="M368.5,78.5c0.1-1.3-0.4-1.9-1.6-2L322,73.2c-1.2-0.1-1.8,0.5-2,1.8l-7.9,93.4c-0.1,1.3,0.4,2,1.6,2l45,3.3
				c1.2,0.1,1.8-0.5,1.9-1.8L368.5,78.5z"/>
		</g>
	</g>
</g>
<g transform="matrix( 1, 0, 0, 1, 0,0) ">
	<g>
		<g id="Layer1_1_MEMBER_2_FILL">
			<path class="st1" d="M376.5,77.6c-1.2-0.1-1.8,0.5-1.9,1.8l-7.9,93.4c-0.1,1.3,0.4,2,1.6,2l45,3.3c1.2,0.1,1.8-0.5,1.9-1.8
				l7.9-93.4c0.1-1.3-0.4-2-1.6-2.1L376.5,77.6z"/>
		</g>
	</g>
</g>
<g transform="matrix( 1, 0, 0, 1, 0,0) ">
	<g>
		<g id="Layer1_1_MEMBER_3_FILL">
			<path class="st1" d="M313,177.9c-1.2-0.1-1.8,0.5-1.9,1.8l-7.9,93.4c-0.1,1.3,0.4,1.9,1.6,2l45,3.3c1.2,0.1,1.8-0.5,1.9-1.8
				l7.9-93.4c0.1-1.3-0.4-2-1.6-2.1L313,177.9z"/>
		</g>
	</g>
</g>
<g transform="matrix( 1, 0, 0, 1, 0,0) ">
	<g>
		<g id="Layer1_1_MEMBER_4_FILL_1_">
			<path class="st1" d="M414.1,187.6c0.1-1.3-0.4-2-1.6-2.1l-44.9-3.2c-1.2-0.1-1.8,0.5-1.9,1.8l-7.9,93.4c-0.1,1.3,0.4,2,1.6,2
				l45,3.3c1.2,0.1,1.8-0.5,1.9-1.8L414.1,187.6z"/>
		</g>
	</g>
</g>
<g transform="matrix( 1, 0, 0, 1, 0,0) ">
	<g>
		<g id="Layer1_1_MEMBER_5_FILL">
			<path class="st2" d="M405.9,179.8c-1.9-0.2-3.7,0.2-5.2,1.4c-1.5,1.2-2.4,2.8-2.7,4.7c-0.2,2,0.2,3.7,1.4,5.2
				c1.2,1.6,2.8,2.4,4.8,2.7c1.9,0.2,3.7-0.2,5.2-1.4c1.6-1.2,2.5-2.7,2.7-4.7c0.2-1.9-0.2-3.7-1.4-5.2
				C409.5,180.8,407.9,179.9,405.9,179.8 M404.4,183.1c-0.2-0.1-0.2-0.3-0.3-0.5c0-0.2,0-0.4,0.2-0.6s0.3-0.2,0.5-0.3
				c1-0.1,1.7-0.1,2.1,0c0.2,0,0.4,0.2,0.5,0.3c0.1,0.2,0.2,0.4,0.1,0.6c0,0.2-0.1,0.4-0.3,0.5c-0.2,0.1-0.4,0.2-0.6,0.1
				c-0.3,0-0.9,0-1.7,0.1C404.7,183.3,404.5,183.3,404.4,183.1 M401.5,182.9c0.2-0.2,0.3-0.2,0.6-0.2c0.2,0,0.4,0.1,0.6,0.2
				c0.2,0.2,0.2,0.3,0.2,0.6c0,0.2-0.1,0.4-0.2,0.6c-1.2,1.3-1.4,2.6-0.4,4.2l0,0c0.1,0.2,0.2,0.3,0.3,0.5c0.1,0.2,0.2,0.4,0.1,0.6
				c0,0.2-0.2,0.4-0.3,0.5c-0.2,0.1-0.4,0.2-0.6,0.1c-0.2,0-0.4-0.2-0.5-0.3c-0.1-0.1-0.2-0.3-0.3-0.4c0,0,0,0,0-0.1
				C399.4,186.9,399.6,184.8,401.5,182.9z"/>
			<path class="st3" d="M402.1,182.8c-0.2,0-0.4,0.1-0.6,0.2c-1.9,1.9-2.1,3.9-0.6,6.2c0,0,0,0,0,0.1c0.1,0.1,0.2,0.3,0.3,0.4
				c0.1,0.2,0.3,0.3,0.5,0.3c0.2,0.1,0.4,0,0.6-0.1s0.3-0.3,0.3-0.5c0.1-0.2,0-0.4-0.1-0.6s-0.2-0.3-0.3-0.5l0,0
				c-1-1.5-0.8-2.9,0.4-4.2c0.2-0.2,0.2-0.3,0.2-0.6c0-0.2-0.1-0.4-0.2-0.6C402.5,182.8,402.3,182.8,402.1,182.8 M404.1,182.6
				c0,0.2,0.1,0.4,0.3,0.5c0.2,0.2,0.4,0.2,0.6,0.2c0.8-0.1,1.4-0.1,1.7-0.1c0.2,0,0.4,0,0.6-0.1s0.3-0.3,0.3-0.5s0-0.4-0.1-0.6
				s-0.3-0.3-0.5-0.3c-0.4-0.1-1.1,0-2.1,0c-0.2,0-0.4,0.1-0.5,0.3C404.1,182.2,404.1,182.4,404.1,182.6z"/>
		</g>
	</g>
</g>
<g transform="matrix( 1, 0, 0, 1, 0,0) ">
	<g>
		<g id="Layer1_1_MEMBER_6_FILL">
			<path class="st4" d="M377.7,106.1l-5.4-6.1c-1.4-1.5-2.8-1.6-4.3-0.2l-6.1,5.5c-1.5,1.3-1.6,2.8-0.2,4.3l5.5,6.1
				c1.4,1.5,2.8,1.6,4.3,0.2l6.1-5.5C379,109,379,107.6,377.7,106.1z"/>
		</g>
	</g>
</g>
<g transform="matrix( 1, 0, 0, 1, 0,0) ">
	<g>
		<g id="Layer1_2_FILL_1_">
			<path class="st5" d="M452.6,309l-166.2-28.2L127,305.2l154.4,45.3L452.6,309z"/>
		</g>
	</g>
</g>
<g transform="matrix( -0.643585205078125, 0.154876708984375, 0.154876708984375, 0.643585205078125, 1209.35,170.65) ">
	<g>
		<g id="Layer1_3_MEMBER_0_FILL_1_">
			<path class="st6" d="M1303.1-246.9c0-0.6-0.2-1.1-0.6-1.5c-0.4-0.4-0.9-0.6-1.5-0.6s-1.1,0.2-1.5,0.6c-0.4,0.4-0.6,0.9-0.6,1.5
				c0,0.6,0.2,1.1,0.6,1.5s0.9,0.6,1.5,0.6s1.1-0.2,1.5-0.6C1302.9-245.8,1303.1-246.3,1303.1-246.9z"/>
		</g>
	</g>
</g>
<g transform="matrix( -0.1749725341796875, 0.6378021240234375, 0.6378021240234375, 0.1749725341796875, 732.6,217.55) ">
	<g>
		<g id="Layer1_3_MEMBER_1_MEMBER_0_FILL">
			<path class="st7" d="M196.7-514.2c-1.9,0-3.6,0.7-4.9,2c-1.4,1.4-2.1,3-2.1,5l0,49.5c0,1.9,0.7,3.6,2.1,5s3,2,4.9,2
				s3.6-0.7,4.9-2c1.4-1.4,2-3,2-5l0-49.5c0-1.9-0.7-3.6-2-5C200.3-513.5,198.6-514.2,196.7-514.2z"/>
		</g>
	</g>
</g>
<g transform="matrix( 0.039276123046875, 0.6602325439453125, 0.6602325439453125, -0.039276123046875, 634.45,356.1) ">
	<g>
		<g id="Layer1_3_MEMBER_1_MEMBER_1_FILL">
			<path class="st8" d="M-169.5-336.7c-0.3,0.2-0.5,0.6-0.5,1v8.5h42.2v-0.9c0-0.8-0.2-1.5-0.7-2.1c-0.5-0.6-1.1-1-1.8-1.2
				l-22.5-5.9c-1-0.3-2.1-0.3-3.1,0c-4.6,1.2-8.8,1.3-12.4,0.2C-168.8-337-169.1-337-169.5-336.7z"/>
		</g>
	</g>
</g>
<g transform="matrix( 0.039276123046875, 0.6602325439453125, 0.6602325439453125, -0.039276123046875, 634.45,356.1) ">
	<g>
		<g id="Layer1_3_MEMBER_1_MEMBER_2_FILL">
			<path class="st9" d="M-169.3-325.2c0.5,0.5,1.1,0.7,1.8,0.7h38.3c0.4,0,0.7-0.1,0.9-0.4s0.4-0.6,0.4-0.9v-1.3h-42.2v0.1
				C-170-326.3-169.8-325.7-169.3-325.2z"/>
		</g>
	</g>
</g>
<g transform="matrix( 0.6815948486328125, 0.7318267822265625, -0.7318267822265625, 0.6815948486328125, 855.65,-380.15) ">
	<g>
		<g id="Layer1_3_MEMBER_2_FILL_1_">
			<path class="st10" d="M164.2,774.1l-6.2-10.2l-35.3,21.6l-31-28.2c-1.1-1-2.3-1.4-3.8-1.4c-1.4,0.1-2.6,0.6-3.6,1.7l-1,1.1
				c-1,1.1-1.4,2.3-1.4,3.7c0.1,1.4,0.6,2.7,1.7,3.6l36.4,33.1c1,0.7,1.9,0.7,2.9,0L164.2,774.1z"/>
		</g>
	</g>
</g>
<g transform="matrix( -0.6543731689453125, 0.0986328125, 0.0986328125, 0.6543731689453125, 1237.05,187.2) ">
	<g>
		<g id="Layer1_3_MEMBER_3_FILL">
			<path class="st7" d="M1353-63c-1.4-1.4-3-2-5-2c-1.9,0-3.6,0.7-4.9,2c-1.4,1.4-2.1,3-2.1,5v49.5c0,1.9,0.7,3.6,2.1,5s3,2,4.9,2
				s3.6-0.7,5-2c1.4-1.4,2-3,2-5V-58C1355-60,1354.3-61.7,1353-63z"/>
		</g>
	</g>
</g>
<g transform="matrix( -0.6543731689453125, 0.0986328125, 0.0986328125, 0.6543731689453125, 1237.05,187.2) ">
	<g>
		<g id="Layer1_3_MEMBER_4_FILL">
			<path class="st10" d="M1354.8-170.3c-1.6-1.5-3.4-2.3-5.6-2.3h-2.2c-2.2,0-4,0.8-5.6,2.3c-1.5,1.6-2.3,3.4-2.3,5.6v150.2l18.1,0
				v-150.2C1357.1-166.9,1356.3-168.8,1354.8-170.3z"/>
		</g>
	</g>
</g>
<g transform="matrix( -0.661956787109375, -0.001800537109375, -0.001800537109375, 0.661956787109375, 1308.45,225.25) ">
	<g>
		<g id="Layer1_3_MEMBER_5_FILL">
			<path class="st8" d="M1434.9,135.1c-0.3,0.2-0.5,0.6-0.5,1v8.5l42.2,0v-0.9c0-0.8-0.2-1.5-0.7-2.1s-1.1-1-1.8-1.2l-22.5-5.9
				c-1-0.3-2.1-0.3-3.1,0c-4.7,1.2-8.8,1.3-12.4,0.2C1435.6,134.8,1435.2,134.9,1434.9,135.1z"/>
		</g>
	</g>
</g>
<g transform="matrix( -0.661956787109375, -0.001800537109375, -0.001800537109375, 0.661956787109375, 1308.45,225.25) ">
	<g>
		<g id="Layer1_3_MEMBER_6_FILL">
			<path class="st9" d="M1435.1,146.6c0.5,0.5,1.1,0.7,1.8,0.7l38.3,0c0.4,0,0.7-0.1,0.9-0.4c0.2-0.3,0.4-0.6,0.4-0.9v-1.3l-42.2,0
				v0.1C1434.4,145.5,1434.6,146.1,1435.1,146.6z"/>
		</g>
	</g>
</g>
<g transform="matrix( -0.643585205078125, 0.154876708984375, 0.154876708984375, 0.643585205078125, 1209.35,170.65) ">
	<g>
		<g id="Layer1_3_MEMBER_7_FILL">
			<path class="st10" d="M1304.3-257.4l-51.4-0.4l-0.3,16.5c0,2.4,0.8,4.5,2.5,6.3c1.7,1.7,3.8,2.6,6.2,2.6l33.8,0.3
				c2.4,0,4.5-0.8,6.3-2.5c1.7-1.7,2.6-3.8,2.7-6.2L1304.3-257.4z"/>
		</g>
	</g>
</g>
<g transform="matrix( 0.6220245361328125, -0.2223358154296875, -0.2223358154296875, -0.6220245361328125, 749.25,640.9) ">
	<g>
		<g id="Layer1_3_MEMBER_8_MEMBER_0_FILL">
			<path class="st5" d="M-379.2,934.7c-0.1-1.6-0.7-2.8-1.9-3.9c-1.2-1-2.5-1.5-4-1.4s-2.8,0.7-3.9,1.9c-1,1.2-1.5,2.5-1.4,4
				l2.4,48.1c0.1,1.6,0.7,2.8,1.9,3.9c1.2,1,2.5,1.5,4,1.4c1.6-0.1,2.8-0.7,3.9-1.9c1-1.2,1.5-2.5,1.4-4L-379.2,934.7z"/>
		</g>
	</g>
</g>
<g transform="matrix( -0.0304718017578125, -0.6600494384765625, -0.6600494384765625, 0.0304718017578125, 1125.75,602.75) ">
	<g>
		<g id="Layer1_3_MEMBER_8_MEMBER_1_FILL">
			<path class="st5" d="M751.9,1158.8c-1.5,0-2.9,0.5-4,1.5c-1.1,1.1-1.7,2.4-1.7,3.9l-1.8,48.1c0,1.6,0.5,2.9,1.5,4
				c1.1,1.1,2.4,1.7,3.9,1.7c1.6,0,2.9-0.5,4-1.5c1.1-1.1,1.7-2.4,1.7-3.9l1.8-48.1c0-1.6-0.5-2.9-1.5-4
				C754.8,1159.5,753.5,1158.9,751.9,1158.8z"/>
		</g>
	</g>
</g>
<g transform="matrix( -0.0304718017578125, -0.6600494384765625, -0.6600494384765625, 0.0304718017578125, 983,373.9) ">
	<g transform="matrix( 1, 0, 0, 1, 0,0) ">
		<g>
			<g id="_VisiTeli_V2_ai_Layer_1__Clip_Group__1_copy_2_0_Layer3_0_FILL_1_">
				<path class="st11" d="M390.3,957.4c-1.4,1.3-2.2,2.9-2.2,4.9l-1.4,35.1l14.1,0.5l1.4-35.1c0.1-1.9-0.6-3.6-1.9-5
					c-1.3-1.4-2.9-2.2-4.9-2.2C393.4,955.5,391.7,956.1,390.3,957.4z"/>
			</g>
		</g>
	</g>
</g>
<g transform="matrix( -0.0304718017578125, -0.6600494384765625, -0.6600494384765625, 0.0304718017578125, 1128.15,613.8) ">
	<g>
		<g id="Layer1_3_MEMBER_8_MEMBER_3_FILL">
			<path class="st11" d="M774.7,1155.6c-2.5-2.5-5.5-3.8-9.1-3.8c-3.5,0-6.6,1.3-9.1,3.8s-3.8,5.5-3.8,9.1s1.3,6.6,3.8,9.1
				s5.5,3.8,9.1,3.8s6.6-1.3,9.1-3.8s3.7-5.5,3.7-9.1S777.2,1158.1,774.7,1155.6z"/>
		</g>
	</g>
</g>
<g transform="matrix( -0.5765380859375, -0.322845458984375, 0.322845458984375, -0.5765380859375, 980.5,660.95) ">
	<g>
		<g id="Layer1_3_MEMBER_8_MEMBER_4_FILL">
			<path class="st5" d="M1318.5,211l-11.2-0.9l-0.3,11.4l2.6,4c1.9,2.8,3.5,4.6,4.6,5.4c1.4,0.9,3.2,1.6,5.5,2
				c1.5,0.2,2.7,0.3,3.8,0.3s0.6-1.9-1.4-5.5l-3.7-9C1327.5,223.4,1327.6,220.8,1318.5,211z"/>
		</g>
	</g>
</g>
<g transform="matrix( -0.0304718017578125, -0.6600494384765625, -0.6600494384765625, 0.0304718017578125, 1125.75,602.75) ">
	<g transform="matrix( -0.069793701171875, -1.511810302734375, -1.511810302734375, 0.069793701171875, 989.8,1659.85) ">
		<path id="Layer1_3_MEMBER_8_MEMBER_5_1_STROKES" class="st12" d="M425.4,996.9l14.1,0.6"/>
	</g>
</g>
<g transform="matrix( -0.66058349609375, -0.03411865234375, -0.03411865234375, 0.66058349609375, 1038.95,355.2) ">
	<g transform="matrix( 1, 0, 0, 1, 0,0) ">
		<g>
			<g id="_VisiTeli_V2_ai_Layer_1__Clip_Group__0_copy_0_Layer3_0_FILL_2_">
				<path class="st11" d="M1084.2-272.3c-2.6-2.6-5.6-3.8-9.2-3.8h-36.2c-3.5,0-6.5,1.2-8.9,3.7c-2.5,2.5-3.7,5.4-3.7,8.9v97.3
					l61.9,0v-96.9C1088.1-266.6,1086.8-269.7,1084.2-272.3z"/>
			</g>
		</g>
	</g>
</g>
<g transform="matrix( 1, 0, 0, 1, 0,0) ">
	<g>
		<g id="Layer1_3_MEMBER_10_MEMBER_0_FILL">
			<path class="st13" d="M375.3,172.2c0.6-1.9,0-3.2-1.9-3.8l-24.5-8c-1.9-0.6-3.2,0-3.9,2l-5.1,15.6c-0.6,1.9,0,3.2,2,3.8l24.5,8
				c1.9,0.6,3.2,0,3.8-1.9L375.3,172.2z"/>
		</g>
	</g>
</g>
<g transform="matrix( 1, 0, 0, 1, 0,0) ">
	<g>
		<g id="Layer1_3_MEMBER_10_MEMBER_1_FILL">
			<path class="st3" d="M352.7,157.1c-1.9-0.8-3.2-0.2-3.9,1.7l-6.3,15.2c-0.8,1.9-0.2,3.2,1.6,4l23.8,9.9c1.9,0.8,3.2,0.2,4-1.7
				l6.3-15.2c0.8-1.9,0.2-3.2-1.6-4L352.7,157.1z"/>
		</g>
	</g>
</g>
<g transform="matrix( 1, 0, 0, 1, 0,0) ">
	<g>
		<g id="Layer1_3_MEMBER_11_FILL">
			<path class="st0" d="M353.7,165.8c0-0.4-0.2-0.9-0.6-1.2c-0.4-0.3-0.8-0.5-1.4-0.6l0,0l-0.9-0.1h-0.1c-0.6-0.1-1.1,0-1.4,0.3
				c-0.5,0.2-0.7,0.6-0.7,1.1l-1.2,23c0,0.4,0.2,0.9,0.6,1.2c0.4,0.3,0.9,0.6,1.6,0.6l0.7,0.1c0.6,0.1,1.1,0,1.6-0.3
				c0.4-0.2,0.7-0.6,0.7-1L353.7,165.8z"/>
			<path class="st14" d="M385.1,169.4c0-1.1-0.7-1.7-2.1-1.8l-31.2-3.6c0.5,0.1,1,0.3,1.4,0.6c0.4,0.4,0.6,0.8,0.6,1.2l-1.2,23
				c0,0.4-0.2,0.8-0.7,1c-0.4,0.2-0.9,0.3-1.6,0.3l-0.7-0.1c-0.6-0.1-1.1-0.3-1.6-0.6c-0.4-0.4-0.6-0.8-0.6-1.2l1.2-23
				c0-0.5,0.3-0.8,0.7-1.1c0.4-0.2,0.9-0.3,1.4-0.3l-1.4-0.2c-1.5-0.2-2.2,0.3-2.3,1.4l-1.2,24.4c0,1.1,0.7,1.7,2.1,1.9l33.6,3.9
				c1.5,0.2,2.2-0.3,2.3-1.3L385.1,169.4 M378.1,188.3l0.3-12.9L378.1,188.3 M373,188.3v-9.4V188.3z"/>
		</g>
	</g>
	<g>
		<path id="Layer1_3_MEMBER_11_1_STROKES" class="st15" d="M378.1,188.3l0.3-12.9 M373,188.3v-9.4"/>
	</g>
</g>
<g transform="matrix( -0.3501434326171875, -0.5606842041015625, -0.5606842041015625, 0.3501434326171875, 1369.4,517.55) ">
	<g>
		<g id="Layer1_3_MEMBER_12_MEMBER_0_FILL">
			<path class="st5" d="M1237.9,983.7c-0.1-1.6-0.7-2.8-1.9-3.9c-1.2-1-2.5-1.5-4-1.4c-1.5,0.1-2.8,0.7-3.9,1.9
				c-1,1.2-1.5,2.5-1.4,4l2.4,48.1c0.1,1.6,0.7,2.8,1.9,3.9c1.2,1,2.5,1.5,4,1.4c1.6-0.1,2.8-0.7,3.9-1.9c1-1.2,1.5-2.5,1.4-4
				L1237.9,983.7z"/>
		</g>
	</g>
</g>
<g transform="matrix( -0.5550994873046875, 0.358795166015625, 0.358795166015625, 0.5550994873046875, 1164.65,113.45) ">
	<g>
		<g id="Layer1_3_MEMBER_12_MEMBER_1_FILL">
			<path class="st5" d="M1037.2-620c-1.5,0-2.9,0.5-4,1.5c-1.1,1.1-1.7,2.4-1.7,3.9l-1.8,48.1c0,1.6,0.5,2.9,1.5,4
				c1.1,1.1,2.4,1.7,3.9,1.7c1.6,0,2.9-0.5,4-1.5c1.1-1.1,1.7-2.4,1.7-3.9l1.8-48.1c0-1.6-0.5-2.9-1.5-4
				C1040-619.4,1038.7-620,1037.2-620z"/>
		</g>
	</g>
</g>
<g transform="matrix( -0.5550994873046875, 0.358795166015625, 0.358795166015625, 0.5550994873046875, 1038.95,353.3) ">
	<g transform="matrix( 1, 0, 0, 1, 0,0) ">
		<g>
			<g id="_VisiTeli_V2_ai_Layer_1__Clip_Group__1_copy_0_Layer3_0_FILL_2_">
				<path class="st11" d="M675.2-822.2c-1.4,1.3-2.2,2.9-2.2,4.9l-1.4,35.1l14.1,0.5l1.4-35.1c0.1-1.9-0.6-3.6-1.9-5
					c-1.3-1.4-2.9-2.2-4.9-2.2C678.3-824.2,676.6-823.6,675.2-822.2z"/>
			</g>
		</g>
	</g>
</g>
<g transform="matrix( -0.5550994873046875, 0.358795166015625, 0.358795166015625, 0.5550994873046875, 1164.65,113.45) ">
	<g>
		<g id="Layer1_3_MEMBER_12_MEMBER_3_FILL">
			<path class="st11" d="M1052.1-624.6c-2.5-2.5-5.5-3.8-9.1-3.8c-3.5,0-6.6,1.3-9.1,3.8s-3.8,5.5-3.8,9.1s1.3,6.6,3.8,9.1
				s5.5,3.8,9.1,3.8s6.6-1.3,9.1-3.8s3.7-5.5,3.7-9.1C1055.8-619.1,1054.6-622.1,1052.1-624.6z"/>
		</g>
	</g>
</g>
<g transform="matrix( -0.179412841796875, -0.6360321044921875, -0.6360321044921875, 0.179412841796875, 1340.05,608.25) ">
	<g>
		<g id="Layer1_3_MEMBER_12_MEMBER_4_FILL">
			<path class="st16" d="M1023,1259.9l2.7,1.6c2.1,0.8,3.7,0.5,4.8-1c-0.7-1.1-1.8-3.1-3.1-5.8l-1.8-3.8L1023,1259.9z"/>
		</g>
	</g>
</g>
<g transform="matrix( -0.179412841796875, -0.6360321044921875, -0.6360321044921875, 0.179412841796875, 1340.05,608.25) ">
	<g>
		<g id="Layer1_3_MEMBER_12_MEMBER_5_FILL">
			<path class="st5" d="M1025.7,1250.2l-11.2-0.9l-0.3,11.4l2.6,4c1.9,2.8,3.5,4.6,4.6,5.4c1.4,0.9,3.2,1.6,5.5,2
				c1.5,0.2,2.7,0.3,3.8,0.3c1.1-0.1,0.6-1.9-1.4-5.5l-3.3-5.4L1025.7,1250.2z"/>
		</g>
	</g>
</g>
<g transform="matrix( -0.5550994873046875, 0.358795166015625, 0.358795166015625, 0.5550994873046875, 1164.65,113.45) ">
	<g transform="matrix( -1.2706298828125, 0.8212738037109375, 0.8212738037109375, 1.2706298828125, 1386.7,-1100.65) ">
		<path id="Layer1_3_MEMBER_12_MEMBER_6_1_STROKES" class="st12" d="M1201.7-529.4l14.1,0.6"/>
	</g>
</g>
<g transform="matrix( -0.660919189453125, -0.0340728759765625, -0.0340728759765625, 0.660919189453125, 1288.1,240.9) ">
	<g>
		<g id="Layer1_3_MEMBER_13_FILL">
			<path class="st17" d="M1428.8-81.5c1.6-1.1,2.5-2.3,2.5-3.9c0-1.5-0.8-2.8-2.5-3.9c-1.6-1.1-3.6-1.6-5.9-1.6s-4.3,0.5-5.9,1.6
				s-2.5,2.3-2.5,3.9s0.8,2.8,2.5,3.9c1.6,1.1,3.6,1.6,5.9,1.6C1425.2-79.9,1427.1-80.4,1428.8-81.5z"/>
		</g>
	</g>
</g>
<g transform="matrix( -0.660919189453125, -0.0340728759765625, -0.0340728759765625, 0.660919189453125, 1288.1,240.9) ">
	<g>
		<g id="Layer1_3_MEMBER_14_FILL">
			<path class="st5" d="M1427.7-96.3c0-1.3-0.4-2.3-1.3-3.2c-0.8-0.9-1.9-1.3-3.1-1.3h-0.1c-1.2,0-2.2,0.5-3.1,1.3
				c-0.9,0.9-1.3,2-1.3,3.2v9.8c0,2.2,1.5,3.3,4.4,3.3h0.1c2.9,0,4.4-1.1,4.4-3.3V-96.3z"/>
		</g>
	</g>
</g>
<g transform="matrix( -0.6193084716796875, -0.2332916259765625, -0.2332916259765625, 0.6193084716796875, 1305.7,331.85) ">
	<g>
		<g id="Layer1_3_MEMBER_15_FILL">
			<path class="st5" d="M1445.1,186.5c-3.8,5.2-5.1,11.2-3.9,18.1c1.3,7.2,3.9,12.8,7.7,16.9c4.4,4.6,10,6.7,16.8,6.3
				c5.9-1.3,10.1-5.5,12.8-12.6c2.1-5.4,2.9-11.1,2.4-17.1c-0.5-6.9-2.6-11.9-6.3-14.9c-3.4-2.9-8.5-4.3-15.2-4.3
				C1453.6,179,1448.9,181.5,1445.1,186.5z"/>
		</g>
	</g>
</g>
<g transform="matrix( -0.6193084716796875, -0.2332916259765625, -0.2332916259765625, 0.6193084716796875, 1305.7,331.85) ">
	<g>
		<g id="Layer1_3_MEMBER_16_FILL">
			<path class="st18" d="M1474.8,176.8c-1.2-0.9-2.8-1.8-4.8-2.6c-3.9-1.7-7.5-2.4-11-2.1c-5.5,0.5-10,2.2-13.6,5.2
				c-1.1,0.9-2.1,2-2.9,3l-0.9,1.3c-0.4-0.2-1-0.4-1.7-0.6c-1.4-0.4-2.7-0.5-4-0.5c1.2,1.3,1.9,2.2,2.1,2.5c0.6,0.9,1.1,1.9,1.4,3.2
				c-1.1,2.9-1.6,7.2-1.3,12.8c0.4-0.3,0.8-0.5,1.2-0.7c0.5-0.2,1.1-0.2,1.8-0.1l0.5,0.1l0,0l0.7,0.3l0.9,0.6l0.8,0.7v0.1l0.1,0.1
				l0.1,0.1l0,0l0,0l0,0v6.5c0,1,0.2,1.7,0.7,2.1l0.3,0.3c0.1,0.1,0.4,0.2,0.9,0.4c0.4,0.1,0.8,0.2,1.1,0.2c0.9,0,1.6-0.3,2.3-0.9
				c0.7-0.6,1-1.3,1-2.1v-2.3c0-0.9,0.3-1.6,0.9-2.2s1.3-1,2.2-1.1l0.6-0.1c0-2,0-4,0-6c0-0.9,0.2-1.6,0.7-2c0.6-0.5,1.7-0.9,3.4-1
				h0.1l1-0.1l18.4-0.1l0.2-0.1c0.7-0.2,1.3-0.5,2-0.8c1.1-0.6,1.9-1.3,2.4-2.2c0.5-0.8,0.8-1.6,0.9-2.3v-0.9h-4.5l0.8-0.9
				c0.6-0.9,1.1-1.8,1.5-3c0.4-1.1,0.7-2.3,0.9-3.5l0.2-1.4l-7.4,0V176.8z"/>
		</g>
	</g>
</g>
<g transform="matrix( -0.6193084716796875, -0.2332916259765625, -0.2332916259765625, 0.6193084716796875, 1305.7,331.85) ">
	<g>
		<g id="Layer1_3_MEMBER_17_FILL">
			<path class="st19" d="M1477,190.4h-0.2c-2,0.3-7.8,0.8-17.3,1.5l18.3-0.1l0.2-0.1c0.7-0.2,1.3-0.5,2-0.8c1.1-0.6,1.9-1.3,2.4-2.2
				c0.5-0.8,0.8-1.6,0.9-2.3v-0.9c-0.6,0.7-1.4,1.5-2.2,2.2C1479.4,189.4,1478.1,190.2,1477,190.4z"/>
		</g>
	</g>
</g>
<g transform="matrix( -0.61907958984375, -0.2331695556640625, -0.2331695556640625, 0.61907958984375, 1304.8,332) ">
	<g>
		<g id="Layer1_3_MEMBER_18_MEMBER_0_FILL">
			<path class="st18" d="M1475.5,200.3h0.2c0.2,0,0.4-0.1,0.5-0.3c0.1-0.1,0.2-0.3,0.2-0.5s-0.1-0.4-0.2-0.6
				c-0.2-0.2-0.4-0.3-0.6-0.3l-5.1-0.3c-0.2,0-0.4,0.1-0.6,0.2s-0.3,0.4-0.3,0.6s0.1,0.4,0.2,0.6c0.2,0.2,0.4,0.3,0.6,0.3
				L1475.5,200.3z"/>
		</g>
	</g>
</g>
<g transform="matrix( -0.61907958984375, -0.2331695556640625, -0.2331695556640625, 0.61907958984375, 1304.8,332) ">
	<g>
		<g id="Layer1_3_MEMBER_19_MEMBER_0_FILL">
			<path class="st18" d="M1456.4,200.1c0.2,0.2,0.4,0.2,0.6,0.2l5.1-0.3c0.2,0,0.4-0.1,0.6-0.3c0.2-0.2,0.2-0.4,0.2-0.6
				s-0.1-0.4-0.2-0.5s-0.3-0.2-0.5-0.3l-5.3,0.3c-0.2,0-0.4,0.1-0.6,0.3c-0.2,0.2-0.2,0.4-0.2,0.6
				C1456.1,199.7,1456.2,199.9,1456.4,200.1z"/>
		</g>
	</g>
</g>
<g transform="matrix( -0.6193084716796875, -0.2332916259765625, -0.2332916259765625, 0.6193084716796875, 1305.7,331.85) ">
	<g>
		<g id="Layer1_3_MEMBER_20_FILL">
			<path class="st20" d="M1459.1,205c0,0.3,0.1,0.6,0.3,0.8c0.2,0.2,0.5,0.3,0.8,0.3s0.6-0.1,0.8-0.3c0.2-0.2,0.3-0.5,0.3-0.8
				s-0.1-0.6-0.3-0.8c-0.2-0.2-0.5-0.3-0.8-0.3s-0.6,0.1-0.8,0.3S1459.1,204.7,1459.1,205z"/>
		</g>
	</g>
</g>
<g transform="matrix( -0.6193084716796875, -0.2332916259765625, -0.2332916259765625, 0.6193084716796875, 1305.7,331.85) ">
	<g>
		<g id="Layer1_3_MEMBER_21_FILL">
			<path class="st20" d="M1471.5,205.4c0,0.3,0.1,0.6,0.3,0.8c0.2,0.2,0.5,0.3,0.8,0.3s0.6-0.1,0.8-0.3c0.2-0.2,0.3-0.5,0.3-0.8
				s-0.1-0.6-0.3-0.8c-0.2-0.2-0.5-0.3-0.8-0.3s-0.6,0.1-0.8,0.3S1471.5,205.1,1471.5,205.4z"/>
		</g>
	</g>
</g>
<g transform="matrix( -0.6193084716796875, -0.2332916259765625, -0.2332916259765625, 0.6193084716796875, 1305.7,331.85) ">
	<g>
		<g id="Layer1_3_MEMBER_22_FILL">
			<path class="st19" d="M1481.3,181.5c0.6-1.5,0.9-3.1,1-4.8c-0.5,1.1-1.1,2.3-2,3.5c-1.7,2.5-3.3,4.1-5,4.8
				c-1.4,0.6-5.3,1.1-11.5,1.5l-8.9,0.5l1.8,0.5c1.4,0.4,2.5,0.6,3.5,0.7c2.2,0.2,5.2,0.2,9.1,0c5.5-0.4,8.7-1.2,9.7-2.6
				C1479.9,184.5,1480.7,183.1,1481.3,181.5z"/>
		</g>
	</g>
</g>
<g transform="matrix( -0.61907958984375, -0.2331695556640625, -0.2331695556640625, 0.61907958984375, 1304.8,332) ">
	<g>
		<g id="Layer1_3_MEMBER_23_MEMBER_0_FILL">
			<path class="st5" d="M1436.1,201.8c1.5,4,2.2,6,2.2,6.1c1.1,2.3,2.2,2.9,3.2,1.8c2-2.3,3.1-5.4,3.2-9.3c-0.1-0.2-0.2-0.4-0.5-0.7
				c-0.5-0.6-1.1-1.2-1.8-1.7c-1.9-1.3-3.6-1.5-5.2-0.7C1435.6,198.2,1435.3,199.7,1436.1,201.8z"/>
		</g>
	</g>
</g>
<g transform="matrix( -0.61907958984375, -0.2331695556640625, -0.2331695556640625, 0.61907958984375, 1304.8,332) ">
	<g>
		<g id="Layer1_3_MEMBER_23_MEMBER_1_FILL">
			<path class="st16" d="M1439.5,201.2l2.4-0.3l-4.8-0.8l3.6,6.6L1439.5,201.2z"/>
		</g>
	</g>
</g>
<g transform="matrix( -0.6193084716796875, -0.2332916259765625, -0.2332916259765625, 0.6193084716796875, 1305.7,331.85) ">
	<g>
		<g id="Layer1_3_MEMBER_24_FILL">
			<path class="st16" d="M1466.4,213.4l2.2-0.5l-2-9.6L1466.4,213.4z"/>
		</g>
	</g>
</g>
<g transform="matrix( 1, 0, 0, 1, 0,0) ">
	<g>
		<g id="Layer1_3_MEMBER_25_FILL_1_">
			<path class="st16" d="M342.7,122c-0.1,0.1-0.1,0.3,0,0.4c0.2,0.7,0.6,1.4,1.2,2l0,0c0.7,0.7,1.4,1.3,2.3,1.6
				c0.8,0.3,1.8,0.4,2.9,0.3l0,0c0.9-0.1,1.6-0.3,2.1-0.7c0.1-0.1,0.2-0.2,0.2-0.3c0-0.1,0-0.3-0.1-0.4s-0.2-0.2-0.3-0.2
				c-0.1,0-0.3,0-0.4,0.1c-0.4,0.3-1,0.4-1.7,0.5l0,0c-0.9,0.1-1.7,0-2.4-0.2c-0.7-0.3-1.3-0.7-1.9-1.3l0,0c-0.5-0.5-0.8-1-1-1.6
				c0-0.1-0.1-0.2-0.3-0.3c-0.1-0.1-0.3-0.1-0.4,0C342.8,121.8,342.7,121.9,342.7,122z"/>
		</g>
	</g>
</g>
<g transform="matrix( 1, 0, 0, 1, 0,0) ">
	<g>
		<g id="Layer1_3_MEMBER_26_FILL">
			<path class="st3" d="M352.8,154c0.5,0.3,1,0.5,1.7,0.5h5.4c0.7,0,1.2-0.2,1.7-0.5s0.7-0.7,0.7-1.2V152c0-0.5-0.2-0.9-0.7-1.2
				c-0.5-0.3-1-0.5-1.7-0.5h-5.4c-0.7,0-1.2,0.2-1.7,0.5s-0.7,0.7-0.7,1.2v0.8C352.1,153.2,352.3,153.6,352.8,154z"/>
		</g>
	</g>
</g>
<g transform="matrix( 0.48828125, 0.461517333984375, 0.461517333984375, -0.48828125, 245.9,87.95) ">
	<g>
		<g id="Layer1_4_MEMBER_0_FILL">
			<path class="st5" d="M83.3-6.9L74.1-12L59.9,12.1l9.2,5.1L83.3-6.9z"/>
		</g>
	</g>
</g>
<g transform="matrix( 1, 0, 0, 1, 0,0) ">
	<g>
		<g id="Layer1_4_MEMBER_1_FILL">
			<path class="st21" d="M240.1,153.8c1.1,0.9,2.3,1.3,3.8,1.2l32.6-2.7c1.5-0.1,2.7-0.7,3.6-1.8c0.9-1.1,1.3-2.3,1.2-3.8
				c-0.1-1.4-0.7-2.6-1.8-3.5c-1.1-0.9-2.4-1.3-3.7-1.2l-32.8,2.7c-1.4,0.1-2.6,0.7-3.5,1.8c-0.9,1.1-1.3,2.4-1.2,3.8
				C238.4,151.6,239,152.8,240.1,153.8z"/>
		</g>
	</g>
</g>
<g transform="matrix( -0.66058349609375, -0.1223297119140625, -0.250701904296875, 1.353240966796875, 1580.05,-139.5) ">
	<g>
		<g id="Layer1_4_MEMBER_2_FILL">
			<path class="st22" d="M1914.1,447c-1.4-1.4-3-2-5-2c-1.9,0-3.6,0.7-4.9,2c-1.4,1.4-2.1,3-2.1,5v49.5c0,1.9,0.7,3.6,2.1,5
				s3,2,4.9,2s3.6-0.7,5-2c1.4-1.4,2-3,2-5V452C1916.2,450,1915.5,448.4,1914.1,447z"/>
		</g>
	</g>
</g>
<g transform="matrix( 0.66058349609375, -0.1223297119140625, 0.1223297119140625, 0.66058349609375, -76.5,347.45) ">
	<g>
		<g id="Layer1_4_MEMBER_3_FILL">
			<path class="st23" d="M412.2,16.5c0-0.4-0.2-0.8-0.5-1c-0.4-0.3-0.7-0.3-1.2-0.2c-3.6,1.1-7.7,1-12.4-0.2c-1-0.3-2.1-0.3-3.1,0
				L372.5,21c-0.7,0.2-1.4,0.6-1.8,1.2c-0.5,0.6-0.7,1.3-0.7,2.1v0.9l42.2,0V16.5z"/>
		</g>
	</g>
</g>
<g transform="matrix( 0.66058349609375, -0.1223297119140625, 0.1223297119140625, 0.66058349609375, -76.5,347.45) ">
	<g>
		<g id="Layer1_4_MEMBER_4_FILL">
			<path class="st22" d="M370,25v1.3c0,0.4,0.1,0.7,0.4,0.9c0.3,0.2,0.6,0.4,0.9,0.4l38.3,0c0.7,0,1.3-0.2,1.8-0.7s0.7-1.1,0.7-1.8
				V25L370,25z"/>
		</g>
	</g>
</g>
<g transform="matrix( -0.671875, -0.008575439453125, -0.0169219970703125, 1.3143768310546875, 1456.6,-229.55) ">
	<g>
		<g id="Layer1_4_MEMBER_5_FILL">
			<path class="st22" d="M1820.5,366.1c-1.4-1.4-3-2-5-2c-1.9,0-3.6,0.7-4.9,2c-1.4,1.4-2.1,3-2.1,5v49.5c0,1.9,0.7,3.6,2.1,5
				s3,2,4.9,2s3.6-0.7,5-2s2-3,2-5v-49.5C1822.6,369.1,1821.9,367.5,1820.5,366.1z"/>
		</g>
	</g>
</g>
<g transform="matrix( -0.671875, -0.008575439453125, -0.008575439453125, 0.671875, 1450.95,225.25) ">
	<g>
		<g id="Layer1_4_MEMBER_6_FILL">
			<path class="st23" d="M1784.4,157.2c-0.7,0.2-1.4,0.6-1.8,1.2c-0.5,0.6-0.7,1.3-0.7,2.1v0.9l42.2,0v-8.6c0-0.4-0.2-0.8-0.5-1
				c-0.4-0.3-0.7-0.3-1.2-0.2c-3.6,1.1-7.7,1-12.4-0.2c-1.1-0.3-2.1-0.3-3.2,0L1784.4,157.2z"/>
		</g>
	</g>
</g>
<g transform="matrix( -0.671875, -0.008575439453125, -0.008575439453125, 0.671875, 1450.95,225.25) ">
	<g>
		<g id="Layer1_4_MEMBER_7_FILL">
			<path class="st22" d="M1781.9,161.3v1.3c0,0.4,0.1,0.7,0.4,0.9c0.2,0.2,0.6,0.4,0.9,0.4l38.3,0c0.7,0,1.3-0.2,1.8-0.7
				s0.7-1.1,0.7-1.8v-0.1L1781.9,161.3z"/>
		</g>
	</g>
</g>
<g transform="matrix( -0.66058349609375, -0.1223297119140625, -0.1223297119140625, 0.66058349609375, 1489.1,345.4) ">
	<g>
		<g id="Layer1_4_MEMBER_8_FILL">
			<path class="st24" d="M1917,136.8l-51.5,0.4l0.3,16.5c0,2.4,0.9,4.5,2.6,6.2s3.8,2.6,6.3,2.5l33.8-0.3c2.4,0,4.5-0.9,6.2-2.6
				s2.6-3.8,2.5-6.3L1917,136.8z"/>
		</g>
	</g>
</g>
<g transform="matrix( 1, 0, 0, 1, 0,0) ">
	<g>
		<g id="Layer1_4_MEMBER_9_FILL">
			<path class="st21" d="M212.2,146.6c-0.2,3.7-0.5,7.7-0.9,11.9c-0.5,5.6-0.9,10.1-1.3,13.3c-0.2,1.7-0.4,3-0.6,4
				c-0.1,0.5-0.2,1-0.3,1.6c-0.8,4.1-2.5,10.6-4.9,19.8c-1.4,5.2-5.5,18-12.3,38.4l49.6,7.8l2.2-49.9l9.3-39.3
				c0.4-2.3,0-4.5-1.4-6.5c-1.3-2-3.2-3.2-5.5-3.6l-23.8-4.4c-2.3-0.4-4.5,0-6.5,1.4C213.9,142.4,212.7,144.3,212.2,146.6
				 M235.8,148.3c0.4,0.1,0.7,0.2,0.9,0.6s0.3,0.8,0.2,1.2l-6.6,40.4c-0.1,0.4-0.3,0.8-0.6,1c-0.3,0.3-0.6,0.4-1,0.3
				s-0.7-0.3-0.9-0.6c-0.2-0.3-0.3-0.7-0.2-1.2l6.6-40.4c0.1-0.4,0.3-0.8,0.6-1.1C235.1,148.3,235.4,148.2,235.8,148.3z"/>
			<path class="st0" d="M236.6,148.9c-0.2-0.3-0.5-0.5-0.9-0.6s-0.7,0-1,0.3s-0.5,0.7-0.6,1.1l-6.6,40.4c-0.1,0.4,0,0.8,0.2,1.2
				c0.2,0.4,0.5,0.6,0.9,0.6c0.4,0.1,0.7-0.1,1-0.3c0.3-0.2,0.5-0.6,0.6-1l6.6-40.4C236.9,149.8,236.8,149.3,236.6,148.9z"/>
		</g>
	</g>
</g>
<g transform="matrix( 1, 0, 0, 1, 0,0) ">
	<g>
		<g id="Layer1_4_MEMBER_9_MEMBER_0_FILL">
			<path class="st3" d="M207,185.9c-0.3,0-0.6-0.1-0.8-0.1l-0.5,3.9l38.3,4.8l0.5-4L207,185.9z"/>
		</g>
	</g>
</g>
<g transform="matrix( 1, 0, 0, 1, 0,0) ">
	<g>
		<g id="Layer1_4_MEMBER_9_MEMBER_1_FILL">
			<path class="st3" d="M211.7,190c-0.2,0.8-0.4,1.6-0.5,2.4c-0.2,0-0.4,0.2-0.7,0.4c-0.3,0.3-0.5,0.8-0.5,1.3c-0.1,0.5,0,1,0.2,1.3
				s0.3,0.5,0.5,0.6c-0.1,0.9-0.1,1.7-0.1,2.6c-0.2,0.1-0.3,0.2-0.5,0.4c-0.3,0.4-0.5,0.9-0.5,1.5c-0.1,0.6,0,1.1,0.2,1.6
				c0.2,0.4,0.5,0.7,0.8,0.7c0.1,0,0.2,0,0.3,0c0.1,1.2,0.3,2.4,0.6,3.5c-0.2,0.3-0.4,0.7-0.5,1.3c-0.1,0.6,0,1,0.2,1.5
				c0.2,0.4,0.5,0.6,0.8,0.7c0.2,0,0.4,0,0.6-0.2c0.3,0.8,0.7,1.6,1.1,2.4c0.2,0.5,0.5,0.9,0.7,1.3c-0.2,0.3-0.4,0.7-0.4,1.1
				c-0.1,0.5,0,0.9,0.2,1.3s0.5,0.6,0.9,0.6s0.7-0.1,1-0.4c0.1-0.1,0.1-0.1,0.1-0.1c0.8,0.9,1.6,1.7,2.5,2.4
				c-0.1,0.1-0.1,0.3-0.2,0.5c0,0.4,0.1,0.7,0.3,1s0.5,0.4,0.8,0.5s0.6,0,0.9-0.3c0.1-0.1,0.3-0.2,0.3-0.4c0.8,0.4,1.7,0.6,2.6,0.9
				c0,0.3,0.1,0.5,0.3,0.8s0.6,0.4,0.9,0.5c0.4,0,0.7,0,0.9-0.2c0.3-0.2,0.4-0.4,0.5-0.7c1,0,2.1-0.2,3.1-0.4l0,0
				c0.2,0.2,0.5,0.4,0.9,0.4c0.4,0.1,0.7,0,1-0.2s0.4-0.4,0.5-0.7c0-0.1,0-0.3,0-0.4c1.2-0.6,2.4-1.4,3.5-2.4
				c0.2,0.4,0.4,0.6,0.7,0.6s0.5-0.1,0.8-0.4c0.2-0.3,0.4-0.6,0.4-1.1c0.1-0.3,0-0.6-0.1-0.9c0.1-0.1,0.1-0.2,0.2-0.3
				c0.6-0.7,1.2-1.4,1.7-2.1c0.3,0,0.6-0.2,0.8-0.5c0.3-0.3,0.5-0.7,0.6-1.3c0-0.2,0-0.3,0-0.5c0.6-1.1,1.1-2.2,1.6-3.3
				c0.2,0,0.5-0.1,0.7-0.5c0.2-0.3,0.4-0.7,0.5-1.2s0-0.9-0.1-1.3c0.3-0.9,0.5-1.9,0.7-2.9h0.1c0.2,0,0.4-0.1,0.6-0.5
				c0.2-0.4,0.3-0.8,0.4-1.4c0.1-0.6,0.1-1-0.1-1.4c-0.1-0.4-0.2-0.6-0.5-0.7c0.1-1.1,0.2-2.2,0.2-3.2L211.7,190z"/>
		</g>
	</g>
</g>
<g transform="matrix( 1, 0, 0, 1, 0,0) ">
	<g>
		<g id="Layer1_4_MEMBER_10_FILL">
			<path class="st0" d="M224.1,140.1c-0.3,0.6-0.5,1.2-0.6,1.8c-0.5,2.6,0.2,5.1,2,7.3c1.9,2.3,4.3,3.7,7.4,4.3
				c3.1,0.6,5.9,0.1,8.5-1.3c2.6-1.5,4.1-3.5,4.6-6.2c0.1-0.6,0.2-1.3,0.1-1.9L224.1,140.1z"/>
		</g>
	</g>
</g>
<g transform="matrix( 1, 0, 0, 1, 0,0) ">
	<g>
		<g id="Layer1_4_MEMBER_11_FILL">
			<path class="st5" d="M225.9,140.5c-0.3,0.5-0.5,1.1-0.6,1.8c-0.4,2.1,0.2,4.2,1.8,6c1.6,1.9,3.6,3,6.3,3.5c2.6,0.5,5,0.1,7.1-1
				c2.1-1.2,3.4-2.9,3.8-5c0.1-0.6,0.1-1.2,0.1-1.9L225.9,140.5z"/>
		</g>
	</g>
</g>
<g transform="matrix( -0.66058349609375, -0.1223297119140625, -0.1223297119140625, 0.66058349609375, 1489.1,345.4) ">
	<g>
		<g id="Layer1_4_MEMBER_12_FILL">
			<path class="st5" d="M1893.7,28.2c-0.9-0.9-2-1.4-3.3-1.4c-1.3,0-2.4,0.5-3.3,1.4s-1.4,2-1.4,3.3v10c0,2.2,1.6,3.4,4.7,3.4
				c3.1,0,4.7-1.1,4.7-3.4v-10C1895,30.2,1894.6,29.1,1893.7,28.2z"/>
		</g>
	</g>
</g>
<g transform="matrix( -0.666290283203125, 0.0874176025390625, 0.0874176025390625, 0.666290283203125, 1452.1,128.75) ">
	<g>
		<g id="Layer1_4_MEMBER_13_MEMBER_0_FILL">
			<path class="st25" d="M1778.5-267.8l-2.3-3.9c-1-0.2-2,0.1-3,0.9c-2,1.6-3,5-3,10.1c0,2.6,0.3,5.3,0.8,8.3
				c0.3,1.5,0.5,2.7,0.8,3.7l9.1-10.6l9.4-4.2L1778.5-267.8z"/>
		</g>
	</g>
</g>
<g transform="matrix( -0.666290283203125, 0.0874176025390625, 0.0874176025390625, 0.666290283203125, 1452.1,128.75) ">
	<g>
		<g id="Layer1_4_MEMBER_13_MEMBER_1_MEMBER_0_FILL">
			<path class="st5" d="M1806.9-261.3c-3.7-5-8.4-7.5-14.2-7.5c-6.7,0-11.7,1.4-15.1,4.2c-3.7,3.1-5.8,8-6.3,14.8
				c-0.4,5.9,0.3,11.5,2.4,17c2.6,7,6.9,11.2,12.7,12.5c6.8,0.4,12.3-1.7,16.7-6.3c3.9-4.1,6.4-9.6,7.7-16.8
				C1812-250.2,1810.7-256.2,1806.9-261.3z"/>
		</g>
	</g>
</g>
<g transform="matrix( -0.6600494384765625, 0.1246337890625, 0.1246337890625, 0.6600494384765625, 1441.2,93) ">
	<g>
		<g id="Layer1_4_MEMBER_13_MEMBER_1_MEMBER_1_MEMBER_0_FILL">
			<path class="st18" d="M1757-293.9c-0.2-0.2-0.4-0.3-0.7-0.2l-5.4,0.2c-0.2,0-0.5,0.1-0.6,0.3c-0.2,0.2-0.3,0.4-0.2,0.6
				c0,0.2,0.1,0.4,0.2,0.6c0.2,0.2,0.3,0.3,0.5,0.3l5.6-0.3c0.2,0,0.5-0.1,0.6-0.3c0.2-0.2,0.2-0.4,0.2-0.7
				C1757.2-293.5,1757.1-293.8,1757-293.9z"/>
		</g>
	</g>
</g>
<g transform="matrix( -0.65411376953125, 0.1542205810546875, 0.1542205810546875, 0.65411376953125, 1430.15,63.4) ">
	<g>
		<g id="Layer1_4_MEMBER_13_MEMBER_1_MEMBER_2_MEMBER_0_FILL">
			<path class="st18" d="M1743.6-326.9h-0.2c-0.2,0-0.4,0.1-0.5,0.3c-0.1,0.2-0.2,0.3-0.2,0.6c0,0.2,0.1,0.5,0.2,0.7
				c0.2,0.2,0.4,0.3,0.6,0.3l5.4,0.3c0.2,0,0.5-0.1,0.6-0.2c0.2-0.2,0.3-0.4,0.3-0.6s-0.1-0.5-0.2-0.6c-0.2-0.2-0.4-0.3-0.6-0.3
				L1743.6-326.9z"/>
		</g>
	</g>
</g>
<g transform="matrix( -0.666290283203125, 0.0874176025390625, 0.0874176025390625, 0.666290283203125, 1452.1,128.75) ">
	<g>
		<g id="Layer1_4_MEMBER_13_MEMBER_1_MEMBER_3_FILL">
			<path class="st20" d="M1788.8-243.4c0,0.3,0.1,0.6,0.3,0.9c0.2,0.2,0.5,0.3,0.9,0.3c0.3,0,0.6-0.1,0.9-0.3
				c0.2-0.2,0.4-0.5,0.4-0.9c0-0.3-0.1-0.6-0.4-0.9c-0.2-0.2-0.5-0.4-0.9-0.4s-0.6,0.1-0.9,0.4
				C1788.9-244,1788.8-243.7,1788.8-243.4z"/>
		</g>
	</g>
</g>
<g transform="matrix( -0.666290283203125, 0.0874176025390625, 0.0874176025390625, 0.666290283203125, 1452.1,128.75) ">
	<g>
		<g id="Layer1_4_MEMBER_13_MEMBER_1_MEMBER_4_FILL">
			<path class="st20" d="M1777.8-242.1c0.2-0.2,0.3-0.5,0.3-0.9c0-0.4-0.1-0.6-0.3-0.9c-0.2-0.2-0.5-0.3-0.9-0.3
				c-0.4,0-0.6,0.1-0.9,0.3c-0.2,0.2-0.3,0.5-0.3,0.9c0,0.3,0.1,0.6,0.3,0.9c0.2,0.2,0.5,0.3,0.9,0.3S1777.6-241.8,1777.8-242.1z"/>
		</g>
	</g>
</g>
<g transform="matrix( -0.666290283203125, 0.0874176025390625, 0.0874176025390625, 0.666290283203125, 1452.1,128.75) ">
	<g>
		<g id="Layer1_4_MEMBER_13_MEMBER_1_MEMBER_5_FILL">
			<path class="st16" d="M1783.4-245.1l-2.1,10.1l2.3,0.5L1783.4-245.1z"/>
		</g>
	</g>
</g>
<g transform="matrix( 1, 0, 0, 1, 0,0) ">
	<g>
		<g id="Layer1_4_MEMBER_13_MEMBER_1_MEMBER_6_FILL">
			<path class="st26" d="M240.2,132.9C240.2,132.9,240.3,133,240.2,132.9c0.7,0.6,1.5,0.8,2.5,0.9h0.6c0.8,0.1,1.3,0,1.5-0.3
				l1.3-2.2h-6.8C239.4,131.9,239.7,132.5,240.2,132.9z"/>
			<path class="st3" d="M239.4,131.3L239.4,131.3l6.8,0.1l0.8-1.3l-7.6,0.9V131.3z"/>
		</g>
	</g>
</g>
<g transform="matrix( -0.666290283203125, 0.0874176025390625, 0.0874176025390625, 0.666290283203125, 1452.1,128.75) ">
	<g>
		<g id="Layer1_4_MEMBER_13_MEMBER_2_FILL">
			<path class="st25" d="M1806.6-266.6c1,2.4,2.6,4.1,4.6,5.2c2.1,1.1,4,1.2,5.9,0.4c1.9-0.8,3.1-2.4,3.6-4.6c0.6-2.2,0.4-4.6-0.7-7
				c-1-2.4-2.6-4.1-4.6-5.2c-2.1-1.1-4-1.2-5.9-0.4c-1.9,0.8-3.1,2.4-3.6,4.6C1805.4-271.3,1805.6-269,1806.6-266.6z"/>
		</g>
	</g>
</g>
<g transform="matrix( -0.666290283203125, 0.0874176025390625, 0.0874176025390625, 0.666290283203125, 1452.1,128.75) ">
	<g>
		<g id="Layer1_4_MEMBER_13_MEMBER_3_FILL">
			<path class="st27" d="M1796-279.9c-4.6-0.8-8.4-0.6-11.5,0.4c-3.7,1.3-6.5,3.9-8.5,8c2.9,7.1,7.8,13.1,14.7,18.1
				c2.4,1.7,4.9,3.2,7.5,4.4c2,0.9,3.6,1.5,4.7,1.7c-0.4,2.8,0.4,4.6,2.4,5.3c1,0.4,2,0.4,3.1,0.2c0.4-0.3,1.5-0.8,3.2-1.5
				c1.4-0.5,2.1-1.1,2.3-1.8c3.2-10.7,2.7-19.2-1.7-25.4C1808.7-275.6,1803.3-278.7,1796-279.9z"/>
		</g>
	</g>
</g>
<g transform="matrix( -0.666290283203125, 0.0874176025390625, 0.0874176025390625, 0.666290283203125, 1452.1,128.75) ">
	<g>
		<g id="Layer1_4_MEMBER_13_MEMBER_4_MEMBER_0_FILL">
			<path class="st5" d="M1806.4-247.7c0.1,1.9,0.4,3.7,1,5.4c0.6,1.5,1.3,2.8,2.2,3.9c1,1.1,2.1,0.6,3.2-1.8
				c1.1-3.1,1.9-5.1,2.3-6.1c0.8-2.1,0.4-3.7-1.2-4.5c-1.6-0.9-3.3-0.7-5.1,0.6c-0.8,0.5-1.4,1.1-1.9,1.7L1806.4-247.7z"/>
		</g>
	</g>
</g>
<g transform="matrix( -0.666290283203125, 0.0874176025390625, 0.0874176025390625, 0.666290283203125, 1452.1,128.75) ">
	<g>
		<g id="Layer1_4_MEMBER_13_MEMBER_4_MEMBER_1_FILL">
			<path class="st16" d="M1809.3-247.3l2.4,0.3l-1.2,5.5l3.6-6.6L1809.3-247.3z"/>
		</g>
	</g>
</g>
<g transform="matrix( -0.666290283203125, 0.0874176025390625, 0.0874176025390625, 0.666290283203125, 1452.1,128.75) ">
	<g>
		<g id="Layer1_4_MEMBER_13_MEMBER_5_FILL">
			<path class="st28" d="M1809-235.9c0.4,0.4,0.9,0.6,1.5,0.6s1.1-0.2,1.6-0.6c0.4-0.4,0.6-0.9,0.6-1.6c0-0.6-0.2-1.1-0.6-1.6
				c-0.4-0.4-0.9-0.6-1.6-0.6c-0.6,0-1.1,0.2-1.5,0.6c-0.4,0.4-0.6,0.9-0.6,1.6C1808.3-236.9,1808.5-236.4,1809-235.9z"/>
		</g>
	</g>
</g>
<g transform="matrix( 1, 0, 0, 1, 0,0) ">
	<g>
		<g id="Layer1_4_MEMBER_14_FILL">
			<path class="st21" d="M288.8,111.8l-10.1-2.2l-7.4,35.9c3.3-0.4,4.4,0.5,3.4,2.5s-0.8,3.3,0.6,3.6c1.4,0.3,2.7,0.1,3.9-0.7
				c1.2-0.8,2-1.9,2.3-3.3L288.8,111.8z"/>
		</g>
	</g>
</g>
<g transform="matrix( 0.9916229248046875, -0.1305999755859375, 0.1305999755859375, 0.9916229248046875, -44.15,124.5) ">
	<g>
		<g id="Layer1_4_MEMBER_15_FILL">
			<path class="st5" d="M330.5,16.1c-0.1-3.9-0.6-5.3-1.6-4.2c-0.9,1.1-1.9,2.3-2.9,3.8s-1.5,5.2-1.5,11.1c-0.3,0.6-0.8,1.9-1.3,3.8
				l6.1,1.9c2.2-2.7,3.2-4.1,3.2-4.2c1.4-3.6,2.1-6.3,2.2-8s-0.1-2.1-0.4-1.2c-0.6-1.2-1.2-0.9-2,0.7c-0.8,1.6-1.4,3.4-1.7,5.5
				c0.1-0.9,0.1-1.3,0-1.2s-0.2,0-0.3-0.4C330.5,20.1,330.6,17.6,330.5,16.1z"/>
		</g>
	</g>
</g>
<g transform="matrix( 1, 0, 0, 1, 0,0) ">
	<g>
		<g id="Layer1_4_MEMBER_16_FILL">
			<path class="st0" d="M288.1,115.3l0.7-3.8l-10.1-2l-0.7,3.7L288.1,115.3z"/>
		</g>
	</g>
</g>
<g transform="matrix( 1, 0, 0, 1, 0,0) ">
	<g>
		<g id="Layer1_4_MEMBER_17_MEMBER_0_FILL">
			<path class="st21" d="M217.4,140.5c-1.4,0.3-2.5,1-3.3,2.2l-18.8,26.9c-0.8,1.2-1.1,2.5-0.9,3.9c0.3,1.4,1,2.5,2.2,3.3
				s2.5,1.1,3.9,0.9c1.4-0.3,2.5-1,3.3-2.1l18.7-26.9c0.8-1.2,1.1-2.4,0.9-3.9c-0.2-1.4-1-2.5-2.1-3.3
				C220.1,140.5,218.8,140.2,217.4,140.5z"/>
		</g>
	</g>
</g>
<g transform="matrix( 0.6086273193359375, -0.283447265625, -0.283447265625, -0.6086273193359375, 151.05,921.05) ">
	<g>
		<g id="Layer1_4_MEMBER_17_MEMBER_1_FILL">
			<path class="st16" d="M531.6,1045l-1.1-9.2c-2.8,4.1-4.9,6.9-6.4,8.5c0.9,1.7,2.4,2.3,4.6,1.8
				C529.7,1045.9,530.7,1045.6,531.6,1045z"/>
		</g>
	</g>
</g>
<g transform="matrix( 0.5706024169921875, -0.3535919189453125, -0.3535919189453125, -0.5706024169921875, 210.55,990.3) ">
	<g>
		<g id="Layer1_4_MEMBER_17_MEMBER_2_FILL">
			<path class="st5" d="M628.3,1098.2l-11.1-1.1l-2.1,11c-1.5,1.5-2.8,3.1-4.1,4.7c-2.5,3.2-3.3,4.9-2.3,5.1c1,0.2,2.2,0.4,3.7,0.4
				c2.3,0,4.2-0.3,5.7-1c1.3-0.6,3.1-2.1,5.4-4.5c1.2-1.2,2.3-2.4,3.2-3.5L628.3,1098.2z"/>
		</g>
	</g>
</g>
<g transform="matrix( 1, 0, 0, 1, 0,0) ">
	<g>
		<g id="Layer1_4_MEMBER_17_MEMBER_3_FILL">
			<path class="st21" d="M181.6,140.1l-8.3,6.2l22.2,29.2c0.8,1.1,2,1.8,3.4,2s2.7-0.1,3.8-1s1.8-2,2-3.4s-0.1-2.7-1-3.8
				L181.6,140.1z"/>
		</g>
	</g>
</g>
<g transform="matrix( 1, 0, 0, 1, 0,0) ">
	<g>
		<g id="Layer1_4_MEMBER_17_MEMBER_4_FILL">
			<path class="st0" d="M173.3,146.2l2.3,3.1l8.1-6.3l-2.4-3L173.3,146.2z"/>
		</g>
	</g>
</g>
<g transform="matrix( 1, 0, 0, 1, 0,0) ">
	<g>
		<g id="Layer1_5_FILL_1_">
			<path class="st29" d="M172.6,135.1c10-1.4,18.4-3.3,25.3-5.6c6.9-2.3,10.2-4.3,10-6s-3.9-2.7-11.2-2.9
				c-7.2-0.2-15.8,0.5-25.8,1.9c-10,1.5-18.4,3.3-25.3,5.6c-6.9,2.3-10.2,4.3-10,6s3.9,2.7,11.1,2.9
				C154,137.2,162.6,136.5,172.6,135.1z"/>
		</g>
	</g>
</g>
<g transform="matrix( 1, 0, 0, 1, 0,0) ">
	<g>
		<g id="Layer1_6_FILL_1_">
			<path class="st17" d="M165.7,86c0,0.1-0.1,0.2-0.1,0.2c-0.2,0.9-0.5,1.9-0.7,3c0.2-1,0.5-2,0.7-3l-0.9-0.2
				c-0.8,0-1.6,0.3-2.1,0.9c-0.6,0.6-0.8,1.3-0.8,2.2v1.4c0,0.8,0.3,1.5,0.9,2.1c0.1,0.1,0.1,0.1,0.2,0.2l0.2,8.7h-1.3
				c-2,0.1-3,1.1-2.9,3.1l0.5,20.5c0,2,1.1,3,3.1,2.9l8.7-0.2c2-0.1,3-1.1,3-3.1l-0.5-20.5c-0.1-2-1.1-3-3.1-2.9h-1.3l-0.2-9
				c0.5-0.6,0.8-1.3,0.7-2.1v-1.4c0-0.8-0.3-1.5-0.9-2.1c-0.6-0.6-1.3-0.8-2.1-0.8L165.7,86 M162.5,89.6c0,0.7,0.1,1.3,0.4,1.8
				c0,0,0.2,0.3,0.5,0.8c-0.3-0.5-0.5-0.8-0.5-0.8C162.7,90.9,162.6,90.3,162.5,89.6 M164.3,94.9l0.1,6.7L164.3,94.9 M160.9,104.2
				c-0.2,0.5-0.4,0.8-0.4,0.9C160.5,105,160.6,104.8,160.9,104.2c0.1-0.2,0.3-0.5,0.4-0.7C161.1,103.8,161,104,160.9,104.2
				 M160.6,108.1c0,2.1,0.1,5,0.3,8.8s0.3,6.3,0.3,7.6c0-1.3-0.1-3.8-0.3-7.6S160.6,110.2,160.6,108.1z"/>
			<path class="st0" d="M165.7,86.3c0-0.1,0-0.2,0.1-0.2h-1L165.7,86.3z"/>
			<path class="st28" d="M177.9,62.1c-1.4-1.3-3.1-2-5-1.9s-3.6,0.8-4.9,2.1c-1.3,1.4-2,3.1-1.9,5c0,1.9,0.7,3.6,2.1,4.9
				c0.6,0.6,1.3,1.1,2.1,1.4c0.7-1.2,1.5-2.3,2.3-3.2c-0.8,0.9-1.6,2-2.3,3.2c0.9,0.4,1.9,0.5,2.9,0.5c1.9,0,3.6-0.7,4.9-2.1
				s2-3.1,1.9-5C180,65,179.3,63.4,177.9,62.1z"/>
		</g>
	</g>
	<g>
		<path id="Layer1_6_1_STROKES" class="st30" d="M170.3,73.5c-0.6,1-1.1,2-1.6,3.2c-1.1,2.5-2.1,5.6-3,9.3c0,0.1-0.1,0.2-0.1,0.2
			c-0.2,0.9-0.5,1.9-0.7,3 M170.3,73.5c0.7-1.2,1.5-2.3,2.3-3.2"/>
	</g>
	<g>
		<path id="Layer1_6_2_STROKES" class="st31" d="M162.5,89.6c0,0.7,0.1,1.3,0.4,1.8c0,0,0.2,0.3,0.5,0.8 M164.3,94.9l0.1,6.7
			 M161.3,103.5c-0.1,0.2-0.3,0.5-0.4,0.7c-0.2,0.5-0.4,0.8-0.4,0.9 M160.6,108.1c0,2.1,0.1,5,0.3,8.8s0.3,6.3,0.3,7.6"/>
	</g>
</g>
<g transform="matrix( 1, 0, 0, 1, 0,0) ">
	<g>
		<g id="Layer1_7_FILL_1_">
			<path class="st0" d="M182.3,111.8c-0.2-0.1-0.3-0.2-0.6-0.2c-0.9-0.3-1.9-0.3-3.1,0c-0.9,0.2-1.7,0.6-2.4,1.2
				c-0.8,0.6-1.3,1.4-1.3,2.2l0,0c0,0.4,0.2,0.7,0.6,0.9c0.3,0.1,0.6,0.3,0.9,0.4c1.9,0.8,3.7,0.8,5.6-0.2c0.5-0.3,0.8-0.6,1-1
				c0.2-0.3,0.1-0.8-0.2-1.5c0.1-0.2,0.1-0.4,0.1-0.7C182.9,112.3,182.7,111.9,182.3,111.8 M179.8,113.4c-0.2,0.1-0.3,0.1-0.5,0.2
				C179.5,113.5,179.6,113.5,179.8,113.4c0.5-0.1,1.1-0.3,1.6-0.4C180.8,113.2,180.3,113.3,179.8,113.4z"/>
			<path class="st6" d="M188.2,128.1c1.7-0.4,2.8-1.1,3.2-1.9c0.3-0.8,0.3-1.5-0.2-2.3s-2.2-1.7-5.1-2.8c-0.3,1.7-1.3,2.9-2.9,3.6
				c-2.1,0.7-4,1-5.8,0.8c-1.7-0.2-2.9-0.3-3.6-0.5c-0.7-0.2-1.4-0.5-2-1s-1-0.8-1.2-1.1c-0.2-0.6-0.5-1.2-0.7-1.8
				c-3.3,0-5.4,0.8-6.2,2.4c0,0.2,0,0.5,0.1,0.8c0.1,0.4,0.3,0.8,0.7,1.2c0.4,0.4,1.2,1,2.5,1.7c1.3,0.6,3.8,1.2,7.4,1.6
				C178.1,129.2,182.7,129,188.2,128.1 M186.5,126.9c-0.2,0-0.3,0-0.5,0.1C186.2,126.9,186.3,126.9,186.5,126.9c1.2,0,2.2-0.3,3.1-1
				C188.7,126.6,187.7,126.9,186.5,126.9z"/>
			<path class="st32" d="M186.6,119.2c-0.2-1-0.9-1.4-2.1-1.3c-0.3,0.7-1,1.2-1.9,1.4c-0.6,0.1-1.2,0.2-1.8,0.3
				c-0.4,0-0.8,0-1.2-0.1c-1.2-0.3-2.4-0.3-3.7-0.2c-0.3,0-0.7,0-1.2,0c-1.1-0.1-1.7-0.6-1.9-1.5c-0.1,0-0.1,0-0.2,0
				c-0.4,0-0.9,0.1-1.3,0.3c-0.2,0.1-0.5,0.2-0.7,0.3c-0.4,0.2-0.7,0.4-0.9,0.7c-0.1,0.1-0.1,0.3-0.1,0.5c0.1,0.5,0.2,1,0.3,1.5
				c0.2,0.6,0.4,1.2,0.7,1.8c0.1,0.3,0.5,0.7,1.2,1.1c0.6,0.5,1.3,0.8,2,1c0.7,0.1,1.9,0.3,3.6,0.5c1.8,0.2,3.7-0.1,5.8-0.8
				c1.6-0.7,2.6-1.9,2.9-3.6c0.1-0.2,0.2-0.5,0.3-0.7C186.6,120,186.7,119.6,186.6,119.2z"/>
			<path class="st29" d="M184.6,116c-0.5-0.4-1-0.7-1.6-1c-0.2,0.4-0.5,0.8-1,1c-1.9,0.9-3.7,1-5.6,0.2c-0.3-0.1-0.6-0.3-0.9-0.4
				c-0.4-0.2-0.6-0.5-0.6-0.9l-0.3,0.1c-0.1,0.1-0.1,0.2-0.2,0.3c-0.2,0.1-0.5,0.2-0.7,0.3c-0.5,0.3-0.8,0.8-0.9,1.5
				c0,0.3,0,0.6,0,0.9c0.2,0.9,0.8,1.3,1.9,1.5c0.4,0,0.8,0,1.2,0c1.2-0.2,2.5-0.1,3.7,0.2c0.4,0.1,0.8,0.1,1.2,0.1
				c0.6-0.1,1.2-0.2,1.8-0.3c0.9-0.2,1.5-0.7,1.9-1.4c0.2-0.4,0.3-0.9,0.3-1.5C184.8,116.3,184.7,116.1,184.6,116z"/>
		</g>
	</g>
	<g>
		<path id="Layer1_7_1_STROKES" class="st33" d="M189.6,125.9c-0.9,0.7-1.9,1-3.1,1c-0.2,0-0.3,0-0.5,0.1 M181.3,113
			c-0.5,0.2-1,0.3-1.6,0.4c-0.2,0.1-0.3,0.1-0.5,0.2"/>
	</g>
</g>
<g transform="matrix( 1, 0, 0, 1, 0,0) ">
	<g>
		<g id="Layer1_8_FILL_3_">
			<path class="st22" d="M278.8,86l-3.6-3.7c-0.3-0.3-0.7-0.5-1.1-0.5s-0.8,0.1-1.1,0.4c-0.3,0.3-0.5,0.7-0.5,1.1s0.1,0.8,0.4,1.2
				l3.6,3.7c0.3,0.3,0.7,0.5,1.1,0.5s0.8-0.1,1.2-0.5c0.3-0.3,0.5-0.7,0.5-1.1S279.2,86.3,278.8,86 M276.9,76.1
				c-0.2,0.4-0.1,0.8,0,1.2l3.5,8.2c0.2,0.4,0.5,0.7,0.9,0.9c0.4,0.2,0.8,0.2,1.2,0c0.4-0.2,0.7-0.5,0.9-0.9c0.2-0.4,0.2-0.8,0-1.2
				l-3.5-8.2c-0.2-0.4-0.5-0.7-0.9-0.9c-0.4-0.2-0.8-0.1-1.2,0C277.3,75.4,277,75.8,276.9,76.1 M287.8,76.3
				c-0.3,0.3-0.4,0.7-0.4,1.2l0.2,6.7c0,0.4,0.2,0.8,0.5,1.1c0.3,0.3,0.7,0.5,1.2,0.5c0.4,0,0.8-0.2,1.1-0.5
				c0.3-0.3,0.5-0.7,0.5-1.2l-0.2-6.7c0-0.4-0.2-0.8-0.5-1.1c-0.3-0.3-0.7-0.4-1.2-0.4C288.5,75.8,288.1,75.9,287.8,76.3 M302.4,91
				l4.6-2.4c0.4-0.2,0.6-0.5,0.8-0.9c0.1-0.4,0.1-0.8-0.1-1.2c-0.2-0.4-0.5-0.6-0.9-0.8c-0.4-0.1-0.8-0.1-1.2,0.1l-4.6,2.4
				c-0.4,0.2-0.6,0.5-0.8,0.9c-0.1,0.4-0.1,0.8,0.1,1.2c0.2,0.4,0.5,0.7,0.9,0.8C301.6,91.2,302,91.2,302.4,91 M299.8,76.6
				c-0.4,0.1-0.8,0.3-1,0.7l-4.7,7.6c-0.2,0.4-0.3,0.8-0.2,1.2c0.1,0.4,0.3,0.8,0.7,1c0.4,0.2,0.8,0.3,1.2,0.2
				c0.4-0.1,0.8-0.3,1-0.7l4.7-7.6c0.2-0.4,0.3-0.8,0.2-1.2c-0.1-0.4-0.3-0.8-0.7-1C300.7,76.6,300.3,76.5,299.8,76.6z"/>
		</g>
	</g>
</g>
</svg>
