<?xml version="1.0" encoding="utf-8"?>
<!-- Generator: Adobe Illustrator 19.2.1, SVG Export Plug-In . SVG Version: 6.00 Build 0)  -->
<!DOCTYPE svg PUBLIC "-//W3C//DTD SVG 1.1//EN" "http://www.w3.org/Graphics/SVG/1.1/DTD/svg11.dtd">
<svg version="1.1" id="Layer_1" xmlns="http://www.w3.org/2000/svg" xmlns:xlink="http://www.w3.org/1999/xlink" x="0px" y="0px"
	 viewBox="0 0 595.3 421" style="enable-background:new 0 0 595.3 421;" xml:space="preserve">
<style type="text/css">
	.st0{fill:#BDC59E;}
	.st1{fill:#F7AD92;}
	.st2{fill:#D3D8B7;}
	.st3{fill:#475AA6;}
	.st4{fill:#DB846E;}
	.st5{fill:none;stroke:#698FC7;stroke-width:3;stroke-miterlimit:10;}
	.st6{fill:#E6E6E5;}
	.st7{fill:#C0E4EE;}
	.st8{fill:#4BA57B;}
	.st9{fill:#60BB90;}
	.st10{fill:#465AA6;}
	.st11{fill:#383660;}
	.st12{fill:#B5B5B5;}
	.st13{fill:#4F4F4F;}
	.st14{fill:#698FC7;}
	.st15{fill:#8C643E;}
	.st16{fill:#FFEBBE;}
	.st17{fill:#744E2A;}
	.st18{fill:#040505;}
	.st19{fill:#C3996C;}
	.st20{fill:#BA7C4F;}
	.st21{fill:#9B6A44;}
	.st22{fill:#6E6F73;}
	.st23{fill:#FFDA83;}
	.st24{fill:none;stroke:#FFFFFF;stroke-width:3;stroke-miterlimit:10;}
	.st25{fill:#FFFFFF;}
	.st26{fill:#E66661;}
</style>
<g transform="matrix( 1, 0, 0, 1, 0,0) ">
	<g>
		<g id="Layer1_0_FILL_3_">
			<path class="st0" d="M152.2,42.5h-0.7l0.7,0.4V42.5z"/>
		</g>
	</g>
</g>
<g transform="matrix( -0.378021240234375, -0.566162109375, -0.566162109375, 0.378021240234375, 1946.95,640.9) ">
	<g>
		<g id="Layer1_1_MEMBER_0_FILL_1_">
			<path class="st1" d="M1713.6,1406.3c-1,1.1-1.4,2.4-1.3,3.8l3.4,45.5c0.1,1.5,0.7,2.7,1.8,3.6c1.1,1,2.4,1.4,3.9,1.3
				s2.7-0.7,3.6-1.8c1-1.1,1.4-2.4,1.3-3.9l-3.5-45.5c-0.1-1.5-0.7-2.7-1.8-3.7c-1.1-1-2.4-1.4-3.8-1.3
				C1715.8,1404.6,1714.5,1405.2,1713.6,1406.3z"/>
		</g>
	</g>
</g>
<g transform="matrix( -0.6367645263671875, 0.240570068359375, 0.240570068359375, 0.6367645263671875, 1824.75,175.25) ">
	<g>
		<g id="Layer1_1_MEMBER_1_FILL_1_">
			<path class="st1" d="M1836.1-701.9c-1.1-1-2.3-1.5-3.8-1.4c-1.5,0-2.7,0.6-3.7,1.6c-1,1.1-1.5,2.3-1.4,3.8l1.7,45.6
				c0,1.5,0.6,2.7,1.6,3.7c1.1,1,2.3,1.5,3.8,1.4c1.5,0,2.7-0.6,3.7-1.6c1-1.1,1.5-2.3,1.4-3.8l-1.7-45.6
				C1837.8-699.7,1837.2-700.9,1836.1-701.9z"/>
		</g>
	</g>
</g>
<g transform="matrix( -0.6367645263671875, 0.240570068359375, 0.240570068359375, 0.6367645263671875, 1578.45,413.65) ">
	<g transform="matrix( 1, 0, 0, 1, 0,0) ">
		<g>
			<g id="_VisiTeli_V2_ai_Layer_1__Clip_Group__0_Layer3_0_FILL_2_">
				<path class="st2" d="M1377.7-900.1c-0.1-1.8-0.8-3.4-2.1-4.6c-1.4-1.3-3-1.9-4.8-1.8c-1.8,0.1-3.4,0.8-4.6,2.1
					c-1.3,1.4-1.9,2.9-1.8,4.8l1.3,33.3l13.3-0.5L1377.7-900.1z"/>
			</g>
		</g>
	</g>
</g>
<g transform="matrix( -0.6367645263671875, 0.240570068359375, 0.240570068359375, 0.6367645263671875, 1824.75,175.25) ">
	<g>
		<g id="Layer1_1_MEMBER_3_FILL_1_">
			<path class="st3" d="M1826.8-711.3c-3.4,0-6.2,1.2-8.6,3.6c-2.4,2.4-3.6,5.2-3.6,8.6c0,3.4,1.2,6.2,3.6,8.6
				c2.4,2.4,5.2,3.6,8.6,3.6c3.3,0,6.2-1.2,8.6-3.6c2.4-2.4,3.6-5.2,3.6-8.6c0-3.3-1.2-6.2-3.6-8.6
				C1833-710.1,1830.2-711.3,1826.8-711.3z"/>
		</g>
	</g>
</g>
<g transform="matrix( -0.378021240234375, -0.566162109375, -0.566162109375, 0.378021240234375, 1946.95,640.9) ">
	<g>
		<g id="Layer1_1_MEMBER_4_FILL_2_">
			<path class="st4" d="M1716.9,1465.3c0.9-0.5,1.7-1.1,2.4-1.9l-3.6-8.1c-1.4,4.6-2.5,7.7-3.5,9.6
				C1713.6,1466.2,1715.1,1466.3,1716.9,1465.3z"/>
		</g>
	</g>
</g>
<g transform="matrix( -0.378021240234375, -0.566162109375, -0.566162109375, 0.378021240234375, 1946.95,640.9) ">
	<g>
		<g id="Layer1_1_MEMBER_5_FILL_1_">
			<path class="st1" d="M1726.1,1452.5l-10.5,2.1l1.1,10.6l-2.5,5.4c-1.4,3.6-1.7,5.4-0.7,5.3s2.2-0.3,3.5-0.7
				c2.1-0.6,3.7-1.4,4.9-2.5c1-0.9,2.2-2.8,3.7-5.6c0.7-1.4,1.4-2.8,1.9-4.1L1726.1,1452.5z"/>
		</g>
	</g>
</g>
<g transform="matrix( -0.6367645263671875, 0.240570068359375, 0.240570068359375, 0.6367645263671875, 1824.75,175.25) ">
	<g transform="matrix( -1.3742828369140625, 0.519195556640625, 0.519195556640625, 1.3742828369140625, 2416.7,-1188.25) ">
		<path id="Layer1_1_MEMBER_6_1_STROKES" class="st5" d="M1949.5-592.6l-13.3,0.6"/>
	</g>
</g>
<g transform="matrix( -0.6806640625, 0.0170135498046875, 0.0170135498046875, 0.6806640625, 1869.05,271.4) ">
	<g>
		<g id="Layer1_2_FILL_2_">
			<path class="st6" d="M2037.8-108.2c0-0.6-0.2-1-0.6-1.4s-0.9-0.6-1.4-0.6c-0.6,0-1.1,0.2-1.4,0.6c-0.4,0.4-0.6,0.9-0.6,1.4
				c0,0.6,0.2,1.1,0.6,1.4c0.4,0.4,0.9,0.6,1.4,0.6c0.6,0,1-0.2,1.4-0.6C2037.6-107.1,2037.8-107.6,2037.8-108.2z"/>
		</g>
	</g>
</g>
<g transform="matrix( 1, 0, 0, 1, 0,0) ">
	<g>
		<g id="Layer1_3_FILL_1_">
			<path class="st7" d="M486.9,340.5c46.1-6.6,69.1-14.6,69.1-24s-23-17.4-69.1-24.1c-46.1-6.6-101.7-9.9-166.8-9.9
				s-120.7,3.3-166.8,9.9S84.2,307,84.2,316.5s23,17.4,69.1,24s101.7,10,166.8,10S440.9,347.1,486.9,340.5z"/>
		</g>
	</g>
</g>
<g transform="matrix( 1, 0, 0, 1, 0,0) ">
	<g>
		<g id="Layer1_4_FILL_1_">
			<path class="st8" d="M460.4,198.6c-0.3-0.3-0.6-0.7-1-1c0.5-1.7,0.8-3.5,0.9-5.3c0.3-5.9-1.5-11.1-5.5-15.5s-8.9-6.8-14.8-7.1
				c-5.9-0.3-11.1,1.5-15.5,5.4c-4.4,4-6.8,8.9-7.1,14.8c-0.1,0.9-0.1,1.9,0,2.8c-4.2,0.5-8,2.2-11.3,5.2c-4.3,3.8-6.6,8.6-6.9,14.3
				c-0.3,5.7,1.4,10.7,5.3,15c0.6,0.7,1.3,1.4,2.1,2.1c-0.5-0.1-1.1-0.2-1.6-0.2c-3.4-0.2-6.4,0.9-8.9,3.1c-2.5,2.3-3.9,5.1-4.1,8.5
				s0.9,6.4,3.1,8.9c0.5,0.6,1.1,1.1,1.6,1.5c-3.3,3.4-5,7.6-5.3,12.5c-0.3,5.4,1.3,10.2,4.9,14.2c-0.6,1.1-0.9,2.3-1,3.6
				c-0.1,2.3,0.6,4.4,2.2,6.1c1.5,1.7,3.5,2.7,5.8,2.8c1.9,0.1,3.6-0.3,5.1-1.3c-0.1,0.5,0.3,1.1,1.1,1.8c6,3.8,12.5,4.8,19.3,2.8
				c0.9-0.2,1.8-0.4,2.6-0.7c0.6-0.2,1.3-0.4,2.1-0.7c2.4,0.9,4.9,1.5,7.6,1.7c3.5,0.2,6.7-0.3,9.7-1.4c0.2,0.3,0.8,0.7,1.7,1.2
				c5.3,2.7,10.7,3,16.4,1.1c1.3-0.4,2.3-1.3,3-2.4c0.8-1.5,1.3-3.5,1.4-6.1c0.2-3.4-0.8-6.4-3.1-8.9c-0.2-0.2-0.3-0.3-0.4-0.4
				c0.6-0.4,1.1-0.9,1.7-1.3c3.7-3.3,5.7-7.4,6-12.4s-1.2-9.3-4.5-13c-0.4-0.5-0.9-1-1.4-1.4c0,0,0,0,0.1-0.1
				c4.2-3.7,6.5-8.4,6.8-14.1c0.3-5.6-1.4-10.6-5.2-14.8c-2.5-2.8-5.4-4.7-8.7-5.8c0.2-0.8,0.3-1.6,0.3-2.4
				C465.2,206.8,463.7,202.4,460.4,198.6z"/>
		</g>
	</g>
</g>
<g transform="matrix( 1, 0, 0, 1, 0,0) ">
	<g>
		<g id="Layer1_5_FILL_2_">
			<path class="st8" d="M201.3,151.1c-0.5,0.4-1,0.9-1.5,1.3c-5,5.1-7.6,11.2-7.6,18.3c0,1.2,0.1,2.4,0.2,3.5
				c-4.8,1.3-9.2,3.8-12.9,7.6c-5.7,5.8-8.6,12.7-8.6,20.8c0,8.1,2.9,15.1,8.6,20.8c0,0,0,0,0.1,0.1c-0.7,0.6-1.4,1.2-2.1,1.9
				c-5,5.1-7.6,11.2-7.6,18.3c0,7.2,2.5,13.3,7.6,18.3c0.7,0.7,1.5,1.4,2.3,2.1c-0.2,0.2-0.4,0.4-0.6,0.6c-3.5,3.5-5.2,7.7-5.2,12.6
				c0,3.8,0.5,6.8,1.5,9c0.9,1.8,2.3,3,4.1,3.8c7.9,3.2,15.8,3.1,23.6-0.3c1.4-0.7,2.3-1.2,2.6-1.5c4.2,1.9,8.8,2.8,13.9,2.8
				c4,0,7.7-0.6,11.1-1.8c1,0.4,2,0.8,2.9,1.1c1.2,0.4,2.5,0.8,3.7,1.2c9.7,3.3,19,2.5,28-2.5c1.3-0.9,1.9-1.7,1.8-2.4
				c2.1,1.6,4.5,2.4,7.2,2.4c3.4,0,6.2-1.2,8.6-3.6s3.6-5.2,3.6-8.6c0-1.9-0.4-3.7-1.2-5.3c5.5-5.5,8.3-12.2,8.3-20.1
				c0-7-2.2-13.1-6.7-18.3c0.9-0.6,1.7-1.3,2.5-2.1c3.5-3.5,5.2-7.7,5.2-12.6s-1.7-9.1-5.2-12.6s-7.7-5.2-12.6-5.2
				c-0.8,0-1.6,0.1-2.3,0.2c1.1-0.9,2.2-1.8,3.2-2.8c5.9-5.8,8.8-12.9,8.8-21.2s-2.9-15.3-8.8-21.2c-4.5-4.5-9.8-7.3-15.8-8.3
				c0.2-1.3,0.2-2.6,0.2-4c0-8.5-3-15.8-9.1-21.9c-6-6-13.3-9.1-21.9-9.1c-8.5,0-15.8,3-21.9,9.1c-6,6.1-9.1,13.4-9.1,21.9
				C200.4,146.1,200.7,148.8,201.3,151.1z"/>
		</g>
	</g>
</g>
<g transform="matrix( 1, 0, 0, 1, 0,0) ">
	<g>
		<g id="Layer1_6_FILL_2_">
			<path class="st9" d="M365.1,201.2c0-7.2-2.5-13.3-7.6-18.3c-5-5-11.1-7.6-18.3-7.6c-7.2,0-13.3,2.5-18.3,7.6s-7.6,11.2-7.6,18.3
				c0,2.1,0.2,4.1,0.7,6.1c-3,0.7-5.7,2-8.1,4c-0.5-2.2-1.7-4.2-3.4-5.9c-0.1-0.1-0.1-0.1-0.2-0.2c0.6-1,0.9-2.2,0.9-3.5
				c0-2-0.7-3.6-2.1-5s-3.1-2.1-5-2.1c-2,0-3.6,0.7-5,2.1s-2.1,3.1-2.1,5c0,0.3,0,0.5,0.1,0.8c-1.6,0.6-3.1,1.6-4.5,2.9
				c-2.5,2.5-3.7,5.5-3.7,9s1.2,6.5,3.7,9c0.6,0.6,1.2,1.1,1.9,1.6c-1.7,2.2-2.6,4.8-2.6,7.7c0,1.6,0.3,3.2,0.8,4.6
				c-0.1,0-0.2,0-0.3,0c-2.4,0-4.4,0.8-6.1,2.5s-2.5,3.7-2.5,6.1c0,1.7,0.4,3.2,1.3,4.6c-1.2,0.7-2.2,1.6-3.3,2.6
				c-4.3,4.1-6.4,9-6.4,14.7c0,3.4,0.7,6.5,2.2,9.3c-0.5,0.3-0.9,0.6-1.3,1c-2,1.8-3,3.9-3,6.5c0,2.5,1,4.7,3,6.4
				c2,1.8,4.4,2.7,7.2,2.7c2.8,0,5.2-0.9,7.2-2.7c0.9-0.8,1.6-1.8,2.2-2.8c1.4,0.3,2.8,0.4,4.4,0.4c2.9,0,5.7-0.5,8.2-1.4
				c1.8,0.6,3.7,0.9,5.8,0.9c0.6,0,1.2,0,1.9-0.1c0.6,0.9,1.4,1.8,2.4,2.6c2.7,2.3,6,3.4,9.8,3.4c3.6,0,6.6-1,9.2-2.9
				c8.1,4.4,16.9,3.4,26.3-2.9c0.1,0.1,0.2,0.2,0.4,0.4c10.2,8.3,19,8.6,26.5,1c-0.2,1.2,3.1,2.2,9.7,3s11.5-1.4,14.7-6.6
				c3.1-5.2,3.9-11,2.3-17.4l0.4-0.4c2-2.6,3-5.6,3-9c0-4.1-1.4-7.5-4.3-10.4c-2.2-2.2-4.7-3.5-7.5-4.1c0.7-0.5,1.5-1.1,2.1-1.8
				c3.1-3.1,4.6-6.8,4.6-11.1c0-4.3-1.5-8.1-4.6-11.1c-3.1-3.1-6.8-4.6-11.1-4.6s-8.1,1.5-11.1,4.6c-3.1,3.1-4.6,6.8-4.6,11.1
				c0,0.2,0,0.4,0,0.6c-0.8-1.3-1.7-2.5-2.7-3.6c1.8-2.2,2.7-4.7,2.7-7.7c0-3.4-1.2-6.2-3.6-8.6c-1.7-1.7-3.6-2.7-5.7-3.2
				C364.8,206.6,365.1,204,365.1,201.2z"/>
		</g>
	</g>
</g>
<g transform="matrix( 0.378021240234375, -0.566162109375, 0.566162109375, 0.378021240234375, 998.55,649.2) ">
	<g>
		<g id="Layer1_7_MEMBER_0_FILL">
			<path class="st1" d="M30.4-1125.4c-1,1.1-1.4,2.4-1.3,3.8l3.4,45.5c0.1,1.5,0.7,2.7,1.8,3.6c1.1,1,2.4,1.4,3.9,1.3
				c1.5-0.1,2.7-0.7,3.6-1.8c1-1.1,1.4-2.4,1.3-3.9l-3.5-45.5c-0.1-1.5-0.7-2.7-1.8-3.7s-2.4-1.4-3.8-1.3
				C32.6-1127.1,31.4-1126.5,30.4-1125.4z"/>
		</g>
	</g>
</g>
<g transform="matrix( 0.6367645263671875, 0.240570068359375, -0.240570068359375, 0.6367645263671875, 1120.75,183.55) ">
	<g>
		<g id="Layer1_7_MEMBER_1_FILL">
			<path class="st1" d="M-1010.2,367c-1.1-1-2.3-1.5-3.8-1.4c-1.5,0-2.7,0.6-3.7,1.6c-1,1.1-1.5,2.3-1.4,3.8l1.7,45.6
				c0,1.5,0.6,2.7,1.6,3.7c1.1,1,2.3,1.5,3.8,1.4c1.5,0,2.7-0.6,3.7-1.6c1-1.1,1.5-2.3,1.4-3.8l-1.7-45.6
				C-1008.6,369.2-1009.1,368-1010.2,367z"/>
		</g>
	</g>
</g>
<g transform="matrix( 0.6367645263671875, 0.240570068359375, -0.240570068359375, 0.6367645263671875, 1367.05,421.95) ">
	<g transform="matrix( 1, 0, 0, 1, 0,0) ">
		<g>
			<g id="_VisiTeli_V2_ai_Layer_1__Clip_Group__0_Layer3_0_FILL_1_">
				<path class="st2" d="M-1468.7,168.9c-0.1-1.8-0.8-3.4-2.1-4.6c-1.4-1.3-3-1.9-4.8-1.8s-3.4,0.8-4.6,2.1
					c-1.3,1.4-1.9,2.9-1.8,4.8l1.3,33.3l13.3-0.5L-1468.7,168.9z"/>
			</g>
		</g>
	</g>
</g>
<g transform="matrix( 0.6367645263671875, 0.240570068359375, -0.240570068359375, 0.6367645263671875, 1120.75,183.55) ">
	<g>
		<g id="Layer1_7_MEMBER_3_FILL">
			<path class="st3" d="M-1019.5,357.6c-3.4,0-6.2,1.2-8.6,3.6c-2.4,2.4-3.6,5.2-3.6,8.6c0,3.4,1.2,6.2,3.6,8.6
				c2.4,2.4,5.2,3.6,8.6,3.6c3.3,0,6.2-1.2,8.6-3.6c2.4-2.4,3.6-5.2,3.6-8.6c0-3.3-1.2-6.2-3.6-8.6S-1016.2,357.6-1019.5,357.6z"/>
		</g>
	</g>
</g>
<g transform="matrix( 0.378021240234375, -0.566162109375, 0.566162109375, 0.378021240234375, 998.55,649.2) ">
	<g>
		<g id="Layer1_7_MEMBER_4_FILL">
			<path class="st4" d="M33.8-1066.4c0.9-0.5,1.7-1.1,2.4-1.9l-3.6-8.1c-1.4,4.6-2.5,7.7-3.5,9.6C30.4-1065.5,32-1065.4,33.8-1066.4
				z"/>
		</g>
	</g>
</g>
<g transform="matrix( 0.378021240234375, -0.566162109375, 0.566162109375, 0.378021240234375, 998.55,649.2) ">
	<g>
		<g id="Layer1_7_MEMBER_5_FILL">
			<path class="st1" d="M43-1079.2l-10.5,2.1l1.1,10.6l-2.5,5.4c-1.4,3.6-1.7,5.4-0.7,5.3c1-0.1,2.2-0.3,3.5-0.7
				c2.1-0.6,3.7-1.4,4.9-2.5c1-0.9,2.2-2.8,3.7-5.6c0.7-1.4,1.4-2.8,1.9-4.1L43-1079.2z"/>
		</g>
	</g>
</g>
<g transform="matrix( 0.6367645263671875, 0.240570068359375, -0.240570068359375, 0.6367645263671875, 1120.75,183.55) ">
	<g transform="matrix( 1.3742828369140625, -0.519195556640625, 0.519195556640625, 1.3742828369140625, -1635.55,329.65) ">
		<path id="Layer1_7_MEMBER_6_1_STROKES" class="st5" d="M-896.8,476.3l-13.3,0.6"/>
	</g>
</g>
<g transform="matrix( 0.6806640625, 0.0170135498046875, -0.0170135498046875, 0.6806640625, 1076.45,279.7) ">
	<g>
		<g id="Layer1_8_FILL">
			<path class="st6" d="M-1001.1-38.2c0-0.6-0.2-1-0.6-1.4c-0.4-0.4-0.9-0.6-1.4-0.6c-0.6,0-1.1,0.2-1.4,0.6
				c-0.4,0.4-0.6,0.9-0.6,1.4c0,0.6,0.2,1.1,0.6,1.4c0.4,0.4,0.9,0.6,1.4,0.6c0.6,0,1-0.2,1.4-0.6S-1001.1-37.7-1001.1-38.2z"/>
		</g>
	</g>
</g>
<g transform="matrix( 0.64471435546875, 0.217498779296875, -0.217498779296875, 0.64471435546875, 1262.2,174.95) ">
	<g>
		<g id="Layer1_9_MEMBER_0_FILL">
			<path class="st10" d="M-1123.4,554.3c-1.3-1.3-2.9-1.9-4.7-1.9c-1.8,0-3.4,0.6-4.7,1.9c-1.3,1.3-2,2.9-2,4.7v46.9
				c0,1.8,0.7,3.4,2,4.7s2.8,1.9,4.7,1.9c1.8,0,3.4-0.6,4.7-1.9c1.3-1.3,1.9-2.9,1.9-4.7V559
				C-1121.5,557.1-1122.1,555.6-1123.4,554.3z"/>
		</g>
	</g>
</g>
<g transform="matrix( -0.994873046875, 0.0963897705078125, 0.0963897705078125, 0.994873046875, 2183,18.95) ">
	<g>
		<g id="Layer1_9_MEMBER_1_FILL">
			<path class="st11" d="M1812.4,43.1c-0.2-1.4-0.9-2.5-2.1-3.3l-1.2-0.8c-1.1-0.8-2.4-1.1-3.8-0.9c-1.4,0.2-2.5,0.9-3.3,2.1
				l-26.9,37c-1,1.9-1,3.4,0,4.6l18.8,43.4l10.7-4.6l-17.4-40.1l24.2-33.3C1812.3,45.8,1812.6,44.5,1812.4,43.1z"/>
		</g>
	</g>
</g>
<g transform="matrix( 0.68017578125, 0.020263671875, -0.020263671875, 0.68017578125, 1109.85,237.55) ">
	<g>
		<g id="Layer1_9_MEMBER_2_FILL">
			<path class="st12" d="M-1041.6,148.9c-0.3,0.2-0.5,0.6-0.5,1v8.1l40,0v-0.8c0-0.7-0.2-1.4-0.7-2s-1-1-1.8-1.1l-21.3-5.6
				c-1-0.3-2-0.3-3,0c-4.4,1.2-8.3,1.2-11.7,0.2C-1040.9,148.5-1041.3,148.6-1041.6,148.9z"/>
		</g>
	</g>
</g>
<g transform="matrix( 0.68017578125, 0.020263671875, -0.020263671875, 0.68017578125, 1109.85,237.55) ">
	<g>
		<g id="Layer1_9_MEMBER_3_FILL">
			<path class="st13" d="M-1041.4,159.7c0.5,0.5,1,0.7,1.7,0.7l36.3,0c0.3,0,0.6-0.1,0.9-0.4c0.2-0.3,0.4-0.5,0.4-0.9v-1.2l-40,0
				v0.1C-1042.1,158.7-1041.9,159.3-1041.4,159.7z"/>
		</g>
	</g>
</g>
<g transform="matrix( 0.1760101318359375, 0.6573333740234375, -0.6573333740234375, 0.1760101318359375, 1590,261.6) ">
	<g>
		<g id="Layer1_10_MEMBER_0_FILL">
			<path class="st10" d="M-427.4,1784.6c-1.3-1.3-2.9-1.9-4.7-1.9c-1.8,0-3.4,0.6-4.7,1.9c-1.3,1.3-2,2.9-2,4.7v46.9
				c0,1.8,0.7,3.4,2,4.7c1.3,1.3,2.8,1.9,4.7,1.9c1.8,0,3.4-0.6,4.7-1.9c1.3-1.3,1.9-2.9,1.9-4.7v-46.9
				C-425.5,1787.5-426.1,1785.9-427.4,1784.6z"/>
		</g>
	</g>
</g>
<g transform="matrix( -0.6312103271484375, -0.774810791015625, -0.774810791015625, 0.6312103271484375, 2230.1,941.85) ">
	<g>
		<g id="Layer1_10_MEMBER_1_FILL">
			<path class="st11" d="M1723.6,1001.5c-0.2-1.4-0.9-2.5-2.1-3.3l-1.2-0.8c-1.1-0.8-2.4-1.1-3.8-0.9s-2.5,0.9-3.3,2.1l-26.9,37
				c-1,1.9-1,3.4,0,4.6l18.8,43.4l10.7-4.6l-17.4-40.1l24.2-33.3C1723.5,1004.1,1723.8,1002.9,1723.6,1001.5z"/>
		</g>
	</g>
</g>
<g transform="matrix( 0.349853515625, 0.58392333984375, -0.58392333984375, 0.349853515625, 1462.3,172.7) ">
	<g>
		<g id="Layer1_10_MEMBER_2_FILL">
			<path class="st12" d="M-718.7,1548.9c-0.3,0.2-0.5,0.6-0.5,1v8.1h40v-0.8c0-0.7-0.2-1.4-0.7-2s-1-1-1.8-1.1l-21.3-5.6
				c-1-0.3-2-0.3-3,0c-4.4,1.2-8.3,1.2-11.7,0.2C-718,1548.6-718.4,1548.6-718.7,1548.9z"/>
		</g>
	</g>
</g>
<g transform="matrix( 0.349853515625, 0.58392333984375, -0.58392333984375, 0.349853515625, 1462.3,172.7) ">
	<g>
		<g id="Layer1_10_MEMBER_3_FILL">
			<path class="st13" d="M-718.5,1559.7c0.5,0.5,1,0.7,1.7,0.7h36.3c0.3,0,0.6-0.1,0.9-0.4c0.2-0.3,0.4-0.5,0.4-0.9v-1.3h-40v0.1
				C-719.2,1558.7-718.9,1559.3-718.5,1559.7z"/>
		</g>
	</g>
</g>
<g transform="matrix( 0.6806640625, 0.0170135498046875, -0.0170135498046875, 0.6806640625, 1076.45,279.7) ">
	<g>
		<g id="Layer1_11_FILL">
			<path class="st11" d="M-999.9-48.2l-48.7-0.4l-0.3,15.7c0,2.3,0.8,4.3,2.4,6c1.6,1.6,3.6,2.5,5.9,2.5l32,0.3
				c2.3,0,4.3-0.8,5.9-2.4c1.7-1.6,2.5-3.6,2.5-5.9L-999.9-48.2z"/>
		</g>
	</g>
</g>
<g transform="matrix( 0.6769866943359375, -0.0742950439453125, 0.0742950439453125, 0.6769866943359375, 1301.3,421.7) ">
	<g transform="matrix( 1, 0, 0, 1, 0,0) ">
		<g>
			<g id="_VisiTeli_V2_ai_Layer_1__Clip_Group__0_copy_0_Layer3_0_FILL_4_">
				<path class="st3" d="M-1291.6-517.9c-2.4-2.4-5.3-3.6-8.7-3.6h-34.3c-3.3,0-6.1,1.2-8.4,3.5c-2.4,2.3-3.5,5.2-3.5,8.5v92.2h58.6
					l0-91.8C-1288-512.5-1289.2-515.4-1291.6-517.9z"/>
			</g>
		</g>
	</g>
</g>
<g transform="matrix( 0.676910400390625, -0.074188232421875, 0.074188232421875, 0.676910400390625, 1040.05,320.3) ">
	<g>
		<g id="Layer1_13_FILL_1_">
			<path class="st14" d="M-946.6-327.9c1.6-1,2.3-2.2,2.3-3.7c0-1.4-0.8-2.7-2.3-3.7s-3.4-1.5-5.6-1.5c-2.2,0-4.1,0.5-5.6,1.5
				c-1.6,1-2.3,2.2-2.3,3.7c0,1.4,0.8,2.7,2.3,3.7s3.4,1.5,5.6,1.5S-948.1-326.9-946.6-327.9z"/>
		</g>
	</g>
</g>
<g transform="matrix( 0.676910400390625, -0.074188232421875, 0.074188232421875, 0.676910400390625, 1040.05,320.3) ">
	<g>
		<g id="Layer1_14_FILL_1_">
			<path class="st1" d="M-947.6-341.9c0-1.2-0.4-2.2-1.2-3.1c-0.8-0.8-1.8-1.2-2.9-1.3h-0.1c-1.1,0-2.1,0.5-2.9,1.3
				c-0.8,0.9-1.3,1.9-1.3,3.1v9.3c0,2.1,1.4,3.1,4.2,3.1h0.1c2.8,0,4.1-1.1,4.1-3.1L-947.6-341.9L-947.6-341.9z"/>
		</g>
	</g>
</g>
<g transform="matrix( -0.6639404296875, -0.15081787109375, -0.15081787109375, 0.6639404296875, 1654.4,353.4) ">
	<g>
		<g id="Layer1_15_FILL">
			<path class="st1" d="M1885.1,105.3c-3.6,4.9-4.9,10.6-3.7,17.1c1.2,6.8,3.7,12.1,7.3,16c4.1,4.4,9.4,6.4,15.9,6
				c5.6-1.2,9.6-5.2,12.1-11.9c1.9-5.2,2.7-10.6,2.3-16.2c-0.5-6.5-2.5-11.2-6-14.2c-3.2-2.7-8.1-4.1-14.4-4
				C1893.1,98.1,1888.6,100.5,1885.1,105.3z"/>
		</g>
	</g>
</g>
<g transform="matrix( 1, 0, 0, 1, 485.8,48) ">
	<g>
		<g id="Layer1_16_FILL">
			<path class="st15" d="M-96.2,99.8c0-0.1,0.1-0.3,0.1-0.4l-0.7-0.2C-96.6,99.3-96.4,99.5-96.2,99.8 M-121.1,89.1l0.2-0.3l-0.8-0.3
				c0.1,0.1,0.2,0.2,0.3,0.3C-121.3,88.9-121.2,89-121.1,89.1 M-107.9,92.5l-0.7-0.2L-107.9,92.5L-107.9,92.5z"/>
			<path class="st16" d="M-105.5,79.8c-2.1-0.6-4.6-0.7-7.2-0.2c-1.3,0.2-2.5,0.5-3.4,0.9l-2-0.5l-2.8,8.7l-0.2,0.3
				c0.3,0.2,0.5,0.4,0.8,0.5l0.1,0.1l11.6,2.6l0.7,0.2c1,0.4,1.6,0.7,2,1.2c0.3,0.3,0.3,0.8,0.2,1.3c-0.3,1.2-0.6,2.5-0.8,3.8
				l0.4,0.1c0.5,0.2,0.9,0.5,1.2,1c0.3,0.5,0.4,1,0.3,1.6l-0.4,1.4c-0.1,0.5,0,1,0.4,1.5s0.8,0.8,1.4,0.9c0.2,0,0.4,0,0.7,0
				c0.3,0,0.5-0.1,0.6-0.1l0.3-0.2c0.4-0.2,0.6-0.6,0.7-1.2l0.9-4.1l0,0l0,0l0,0l0.2-0.2l0,0l0.6-0.3l0.7-0.2l0.5-0.1h0.3
				c0.4,0,0.8,0.1,1.1,0.3l0.7,0.2c0.9-3.3,1.2-5.9,1-7.8c0.2-0.5,0.5-0.9,0.8-1.3l-1.1-0.4l0.6-1.7c-0.4,0-0.7,0-1,0.1l-0.4-1
				c-0.3-0.8-0.8-1.5-1.4-2.3C-99.5,82.6-102.1,80.9-105.5,79.8z"/>
		</g>
	</g>
</g>
<g transform="matrix( 0.9497528076171875, 0.31298828125, -0.31298828125, 0.9497528076171875, 520.9,-235.95) ">
	<g>
		<g id="Layer1_17_FILL">
			<path class="st17" d="M-30,402.5L-30,402.5c-0.8-0.1-1.7-0.5-2.8-1.3v1.5c0.2,0.2,0.5,0.3,0.8,0.4c0.5,0.2,0.9,0.3,1.3,0.4h0.1
				l11.8-1.1C-24.9,402.5-28.7,402.5-30,402.5z"/>
		</g>
	</g>
</g>
<g transform="matrix( -0.6772308349609375, 0.070037841796875, 0.070037841796875, 0.6772308349609375, 1631.9,252.15) ">
	<g>
		<g id="Layer1_18_MEMBER_0_FILL">
			<path class="st15" d="M1833-348.9h0.2c0.2,0,0.3-0.1,0.5-0.3c0.1-0.1,0.2-0.3,0.2-0.5c0-0.2-0.1-0.4-0.2-0.6
				c-0.2-0.2-0.3-0.3-0.6-0.3l-4.9-0.3c-0.2,0-0.4,0.1-0.6,0.2c-0.2,0.2-0.3,0.3-0.3,0.6c0,0.2,0.1,0.4,0.2,0.6
				c0.2,0.2,0.3,0.3,0.6,0.3L1833-348.9z"/>
		</g>
	</g>
</g>
<g transform="matrix( -0.6785888671875, -0.0537261962890625, -0.0537261962890625, 0.6785888671875, 1648.25,310.6) ">
	<g>
		<g id="Layer1_19_MEMBER_0_FILL">
			<path class="st15" d="M1879.2-93.6c0.2,0.2,0.4,0.2,0.6,0.2l4.9-0.3c0.2,0,0.4-0.1,0.6-0.3s0.2-0.4,0.2-0.6
				c0-0.2-0.1-0.4-0.2-0.5s-0.3-0.2-0.5-0.3l-5,0.3c-0.2,0-0.4,0.1-0.6,0.3s-0.2,0.3-0.2,0.6C1878.9-93.9,1879-93.7,1879.2-93.6z"/>
		</g>
	</g>
</g>
<g transform="matrix( -0.6639404296875, -0.15081787109375, -0.15081787109375, 0.6639404296875, 1653.4,353.4) ">
	<g>
		<g id="Layer1_20_FILL">
			<path class="st18" d="M1897.6,122.6c0,0.3,0.1,0.6,0.3,0.8c0.2,0.2,0.5,0.3,0.8,0.3s0.6-0.1,0.8-0.3c0.2-0.2,0.3-0.5,0.3-0.8
				s-0.1-0.6-0.3-0.8c-0.2-0.2-0.5-0.3-0.8-0.3s-0.6,0.1-0.8,0.3C1897.7,122.1,1897.6,122.3,1897.6,122.6z"/>
		</g>
	</g>
</g>
<g transform="matrix( -0.6639404296875, -0.15081787109375, -0.15081787109375, 0.6639404296875, 1652.4,353.4) ">
	<g>
		<g id="Layer1_21_FILL">
			<path class="st18" d="M1908.6,122.8c0,0.3,0.1,0.6,0.3,0.8c0.2,0.2,0.5,0.3,0.8,0.3s0.6-0.1,0.8-0.3c0.2-0.2,0.3-0.5,0.3-0.8
				s-0.1-0.6-0.3-0.8c-0.2-0.2-0.5-0.3-0.8-0.3s-0.6,0.1-0.8,0.3C1908.7,122.3,1908.6,122.5,1908.6,122.8z"/>
		</g>
	</g>
</g>
<g transform="matrix( 0.9497528076171875, 0.31298828125, -0.31298828125, 0.9497528076171875, 520.9,-235.95) ">
	<g>
		<g id="Layer1_22_FILL">
			<path class="st17" d="M-19.3,400c0.6-0.1,1.3-0.4,2.2-0.7l1.1-0.5l-5.7,0.3c-4,0.1-6.5,0-7.5-0.3c-0.9-0.3-1.8-0.9-2.7-1.9l0,2
				c0.1,0.1,0.3,0.3,0.4,0.4c0.7,0.8,2.9,1.2,6.4,1.1C-22.7,400.5-20.8,400.3-19.3,400z"/>
		</g>
	</g>
</g>
<g transform="matrix( -0.6639251708984375, -0.150726318359375, -0.150726318359375, 0.6639251708984375, 1654.7,353.8) ">
	<g>
		<g id="Layer1_23_MEMBER_0_FILL">
			<path class="st1" d="M1876.9,119.6c1.4,3.8,2.1,5.7,2.1,5.8c1.1,2.2,2.1,2.8,3,1.7c1.9-2.2,2.9-5.1,3-8.8
				c-0.1-0.2-0.2-0.4-0.5-0.7c-0.4-0.6-1-1.1-1.8-1.6c-1.8-1.3-3.4-1.5-4.9-0.6C1876.5,116.2,1876.1,117.6,1876.9,119.6z"/>
		</g>
	</g>
</g>
<g transform="matrix( -0.6639251708984375, -0.150726318359375, -0.150726318359375, 0.6639251708984375, 1654.7,353.8) ">
	<g>
		<g id="Layer1_23_MEMBER_1_FILL">
			<path class="st4" d="M1880.1,119.1l2.3-0.3l-4.6-0.8l3.5,6.3L1880.1,119.1z"/>
		</g>
	</g>
</g>
<g transform="matrix( -0.6639404296875, -0.15081787109375, -0.15081787109375, 0.6639404296875, 1654.4,353.4) ">
	<g>
		<g id="Layer1_24_FILL">
			<path class="st4" d="M1905.2,130.8l2.1-0.5l-1.9-9.1L1905.2,130.8z"/>
		</g>
	</g>
</g>
<g transform="matrix( 1, 0, 0, 1, 0,0) ">
	<g>
		<g id="Layer1_25_FILL">
			<path class="st4" d="M364.9,153.6c0,0.1,0,0.3,0,0.4c0.3,0.6,0.8,1.2,1.5,1.8l0,0c0.7,0.6,1.5,1,2.4,1.2s1.8,0.2,2.8-0.1l0,0
				c0.9-0.2,1.5-0.5,2-0.9c0.1-0.1,0.2-0.2,0.2-0.4c0-0.1,0-0.2-0.1-0.4c-0.1-0.1-0.2-0.2-0.4-0.2c-0.1,0-0.2,0-0.4,0.1
				c-0.4,0.3-0.9,0.6-1.6,0.7l0,0c-0.8,0.2-1.6,0.3-2.3,0.1c-0.7-0.2-1.4-0.5-2-1l0,0c-0.5-0.4-0.9-0.9-1.2-1.4
				c-0.1-0.1-0.1-0.2-0.3-0.3c-0.1,0-0.3,0-0.4,0C365.1,153.4,365,153.5,364.9,153.6z"/>
		</g>
	</g>
</g>
<g transform="matrix( 1, 0, 0, 1, 0,0) ">
	<g>
		<g id="Layer1_26_FILL">
			<path class="st14" d="M363.7,135.4c-1.2,0-3.1,0.1-5.5,0.4c-4.1,0.4-6,1.1-5.7,1.9l1.2,0.4c2,0.4,7.2,1.1,15.5,2
				c6,0.6,10.1,1,12.3,1.1l-18-4.2C363.5,136.5,363.6,136,363.7,135.4z"/>
			<path class="st3" d="M381.1,123.8c-3.8-0.9-7.5-0.3-10.8,1.8c-3.3,2.1-5.5,5.1-6.4,8.9c-0.1,0.3-0.1,0.7-0.2,1
				c-0.1,0.6-0.1,1.1-0.2,1.6l18,4.2l9.5,2.2c0.3-0.8,0.6-1.6,0.8-2.5c0.9-3.9,0.3-7.5-1.8-10.8
				C387.9,126.8,384.9,124.6,381.1,123.8z"/>
		</g>
	</g>
</g>
<g transform="matrix( -0.67138671875, 0.111663818359375, 0.111663818359375, 0.67138671875, 1744.3,191) ">
	<g>
		<g id="Layer1_27_MEMBER_0_FILL">
			<path class="st10" d="M1895.1-183.7c-1.3-1.3-2.9-1.9-4.7-1.9c-1.8,0-3.4,0.6-4.7,1.9c-1.3,1.3-2,2.9-2,4.7v46.9
				c0,1.8,0.7,3.4,2,4.7s2.8,1.9,4.7,1.9c1.8,0,3.4-0.6,4.7-1.9s1.9-2.9,1.9-4.7V-179C1897-180.9,1896.4-182.4,1895.1-183.7z"/>
		</g>
	</g>
</g>
<g transform="matrix( 0.96685791015625, 0.25408935546875, -0.25408935546875, 0.96685791015625, 860.15,-110.3) ">
	<g>
		<g id="Layer1_27_MEMBER_1_FILL">
			<path class="st11" d="M-268.1,426.3c-0.2-1.4-0.9-2.5-2.1-3.3l-1.2-0.8c-1.1-0.8-2.4-1.1-3.8-0.9c-1.4,0.2-2.5,0.9-3.3,2.1
				l-26.9,37c-1,1.9-1,3.4,0,4.6l18.8,43.4l10.7-4.6l-17.4-40.1l24.2-33.3C-268.2,428.9-267.9,427.7-268.1,426.3z"/>
		</g>
	</g>
</g>
<g transform="matrix( -0.6748046875, -0.0887603759765625, -0.0887603759765625, 0.6748046875, 1884.75,277) ">
	<g>
		<g id="Layer1_27_MEMBER_2_FILL">
			<path class="st12" d="M2060.7,322.2c-0.3,0.2-0.5,0.6-0.5,1v8.1l40,0v-0.9c0-0.7-0.2-1.4-0.7-2c-0.5-0.6-1-1-1.8-1.1l-21.3-5.6
				c-1-0.3-2-0.3-3,0c-4.4,1.2-8.3,1.2-11.7,0.2C2061.5,321.8,2061.1,321.9,2060.7,322.2z"/>
		</g>
	</g>
</g>
<g transform="matrix( -0.6748046875, -0.0887603759765625, -0.0887603759765625, 0.6748046875, 1884.75,277) ">
	<g>
		<g id="Layer1_27_MEMBER_3_FILL">
			<path class="st13" d="M2061,333c0.5,0.5,1,0.7,1.7,0.7l36.3,0c0.3,0,0.6-0.1,0.9-0.4c0.2-0.3,0.4-0.5,0.4-0.9v-1.3l-40,0v0.1
				C2060.3,332,2060.5,332.6,2061,333z"/>
		</g>
	</g>
</g>
<g transform="matrix( -0.60980224609375, 0.302520751953125, 0.302520751953125, 0.60980224609375, 1672.25,163.9) ">
	<g>
		<g id="Layer1_28_MEMBER_0_FILL">
			<path class="st10" d="M1643.9-605.7c-1.3-1.3-2.9-1.9-4.7-1.9c-1.8,0-3.4,0.6-4.7,1.9c-1.3,1.3-2,2.9-2,4.7v46.9
				c0,1.8,0.7,3.4,2,4.7c1.3,1.3,2.8,1.9,4.7,1.9c1.8,0,3.4-0.6,4.7-1.9c1.3-1.3,1.9-2.9,1.9-4.7V-601
				C1645.8-602.8,1645.1-604.4,1643.9-605.7z"/>
		</g>
	</g>
</g>
<g transform="matrix( 0.9989471435546875, -0.03839111328125, 0.03839111328125, 0.9989471435546875, 738.75,133.25) ">
	<g>
		<g id="Layer1_28_MEMBER_1_FILL">
			<path class="st11" d="M-229.9,94.4c-0.2-1.4-0.9-2.5-2.1-3.3l-1.2-0.8c-1.1-0.8-2.4-1.1-3.8-0.9c-1.4,0.2-2.5,0.9-3.3,2.1
				l-26.9,37c-1,1.9-1,3.4,0,4.6l18.8,43.4l10.7-4.6l-17.4-40.1l24.2-33.3C-230,97-229.7,95.8-229.9,94.4z"/>
		</g>
	</g>
</g>
<g transform="matrix( -0.680511474609375, 0.023284912109375, 0.023284912109375, 0.680511474609375, 1897.7,237.85) ">
	<g>
		<g id="Layer1_28_MEMBER_2_FILL">
			<path class="st12" d="M2040.8,48.8c-0.3,0.2-0.5,0.6-0.5,1v8.1l40,0v-0.8c0-0.7-0.2-1.4-0.7-2s-1-1-1.8-1.1l-21.3-5.6
				c-1-0.3-2-0.3-3,0c-4.4,1.2-8.3,1.2-11.7,0.2C2041.5,48.5,2041.2,48.6,2040.8,48.8z"/>
		</g>
	</g>
</g>
<g transform="matrix( -0.680511474609375, 0.023284912109375, 0.023284912109375, 0.680511474609375, 1897.7,237.85) ">
	<g>
		<g id="Layer1_28_MEMBER_3_FILL">
			<path class="st13" d="M2041,59.7c0.5,0.5,1,0.7,1.7,0.7l36.3,0c0.3,0,0.6-0.1,0.9-0.4c0.2-0.3,0.4-0.5,0.4-0.9v-1.3l-40,0v0.1
				C2040.3,58.7,2040.6,59.2,2041,59.7z"/>
		</g>
	</g>
</g>
<g transform="matrix( -0.6806640625, 0.0170135498046875, 0.0170135498046875, 0.6806640625, 1869.05,271.4) ">
	<g>
		<g id="Layer1_29_FILL">
			<path class="st11" d="M2038.9-118.2l-48.7-0.4l-0.3,15.7c0,2.3,0.8,4.3,2.4,6c1.6,1.6,3.6,2.5,5.9,2.5l32,0.3
				c2.3,0,4.3-0.8,5.9-2.4c1.7-1.6,2.5-3.6,2.5-5.9L2038.9-118.2z"/>
		</g>
	</g>
</g>
<g transform="matrix( -0.6769866943359375, -0.0742950439453125, -0.0742950439453125, 0.6769866943359375, 1644.2,413.4) ">
	<g transform="matrix( 1, 0, 0, 1, 0,0) ">
		<g>
			<g id="_VisiTeli_V2_ai_Layer_1__Clip_Group__0_copy_0_Layer3_0_FILL_3_">
				<path class="st3" d="M1728.5-180.4c-2.4-2.4-5.3-3.6-8.7-3.6h-34.3c-3.3,0-6.1,1.2-8.4,3.5c-2.4,2.3-3.5,5.2-3.5,8.5v92.2
					l58.6,0v-91.8C1732.1-175,1730.9-178,1728.5-180.4z"/>
			</g>
		</g>
	</g>
</g>
<g transform="matrix( -0.676910400390625, -0.074188232421875, -0.074188232421875, 0.676910400390625, 1905.45,312) ">
	<g>
		<g id="Layer1_31_FILL">
			<path class="st14" d="M2073.9,9.2c1.6-1,2.3-2.2,2.3-3.7s-0.8-2.7-2.3-3.7s-3.4-1.5-5.6-1.5s-4.1,0.5-5.6,1.5
				c-1.6,1-2.3,2.2-2.3,3.7c0,1.4,0.8,2.7,2.3,3.7s3.4,1.5,5.6,1.5S2072.4,10.2,2073.9,9.2z"/>
		</g>
	</g>
</g>
<g transform="matrix( -0.676910400390625, -0.074188232421875, -0.074188232421875, 0.676910400390625, 1905.45,312) ">
	<g>
		<g id="Layer1_32_FILL">
			<path class="st1" d="M2072.9-4.8c0-1.2-0.4-2.2-1.2-3.1c-0.8-0.8-1.8-1.2-2.9-1.3h-0.1c-1.1,0-2.1,0.5-2.9,1.3
				c-0.8,0.9-1.3,1.9-1.3,3.1v9.3c0,2.1,1.4,3.1,4.2,3.1h0.1c2.8,0,4.1-1.1,4.1-3.1V-4.8L2072.9-4.8z"/>
		</g>
	</g>
</g>
<g transform="matrix( -0.67779541015625, 0.0645751953125, 0.0645751953125, 0.67779541015625, 1880.8,253.05) ">
	<g>
		<g id="Layer1_33_FILL">
			<path class="st1" d="M1986.6-366.9c-3.6,4.9-4.9,10.6-3.7,17.1c1.2,6.8,3.7,12.1,7.3,16c4.1,4.4,9.4,6.4,15.9,6
				c5.6-1.2,9.6-5.2,12.1-11.9c1.9-5.2,2.7-10.6,2.3-16.2c-0.5-6.5-2.5-11.2-6-14.2c-3.2-2.7-8.1-4.1-14.4-4
				C1994.7-374.1,1990.1-371.7,1986.6-366.9z"/>
		</g>
	</g>
</g>
<g transform="matrix( 1, 0, 0, 1, 619.8,48.1) ">
	<g>
		<g id="Layer1_34_FILL">
			<path class="st15" d="M-106.2,80.6c-0.4,0.1-0.7,0.3-0.9,0.4l-0.7-0.8c-0.6-0.6-1.3-1.2-2.1-1.8c-2.5-1.7-5.5-2.5-9.1-2.5
				c-2.2,0.1-4.6,0.7-6.9,2.1c-1.2,0.7-2.2,1.3-2.9,2l-2,0.2v9.1h-0.9c0.1,0.1,0.3,0.1,0.4,0.2c0.5,0.2,0.9,0.3,1.3,0.4h0.1
				l11.8-1.1h0.6h0.1c1,0,1.8,0.2,2.2,0.5c0.4,0.3,0.5,0.7,0.6,1.2c0.1,1.3,0.2,2.5,0.4,3.8h0.4c0.6,0,1,0.2,1.4,0.6
				s0.7,0.8,0.7,1.4l0.1,1.5c0.1,0.5,0.3,1,0.8,1.3c0.5,0.4,1,0.5,1.6,0.5c0.2,0,0.4-0.1,0.7-0.2s0.4-0.2,0.5-0.3l0.2-0.2
				c0.3-0.3,0.4-0.8,0.3-1.4l-0.4-4.2l0,0l0,0l0,0l0.1-0.2l0,0l0.5-0.5l0.6-0.4l0.4-0.2l0.3-0.1c0.4-0.1,0.8-0.1,1.2-0.1
				c0.3,0.1,0.5,0.2,0.8,0.4c-0.2-3.6-0.7-6.3-1.6-8.1c0.1-0.5,0.2-1,0.4-1.5h-1.1L-106.2,80.6L-106.2,80.6z"/>
		</g>
	</g>
</g>
<g transform="matrix( 1, 0, 0, 1, 619.8,48.1) ">
	<g>
		<g id="Layer1_35_FILL">
			<path class="st17" d="M-129.3,88.9h-0.1c-0.7-0.1-1.6-0.5-2.7-1.3v1.5c0.2,0.2,0.5,0.3,0.8,0.4c0.5,0.2,0.9,0.3,1.3,0.4h0.1
				l11.8-1.1C-124.2,89-128,89-129.3,88.9z"/>
		</g>
	</g>
</g>
<g transform="matrix( -0.67779541015625, 0.064666748046875, 0.064666748046875, 0.67779541015625, 1881.1,253.15) ">
	<g>
		<g id="Layer1_36_MEMBER_0_FILL">
			<path class="st15" d="M2015.5-354h0.2c0.2,0,0.3-0.1,0.5-0.3c0.1-0.1,0.2-0.3,0.2-0.5c0-0.2-0.1-0.4-0.2-0.6
				c-0.2-0.2-0.3-0.3-0.6-0.3l-4.9-0.3c-0.2,0-0.4,0.1-0.6,0.2c-0.2,0.2-0.3,0.3-0.3,0.6c0,0.2,0.1,0.4,0.2,0.6
				c0.1,0.2,0.3,0.3,0.6,0.3L2015.5-354z"/>
		</g>
	</g>
</g>
<g transform="matrix( -0.67779541015625, 0.064666748046875, 0.064666748046875, 0.67779541015625, 1881.1,253.15) ">
	<g>
		<g id="Layer1_37_MEMBER_0_FILL">
			<path class="st15" d="M1997.4-354.2c0.2,0.2,0.4,0.2,0.6,0.2l4.9-0.3c0.2,0,0.4-0.1,0.6-0.3c0.2-0.2,0.2-0.4,0.2-0.6
				c0-0.2-0.1-0.4-0.2-0.5c-0.1-0.1-0.3-0.2-0.5-0.3l-5,0.3c-0.2,0-0.4,0.1-0.6,0.3s-0.2,0.3-0.2,0.6
				C1997.2-354.5,1997.3-354.3,1997.4-354.2z"/>
		</g>
	</g>
</g>
<g transform="matrix( -0.67779541015625, 0.0645751953125, 0.0645751953125, 0.67779541015625, 1880.8,253.05) ">
	<g>
		<g id="Layer1_38_FILL">
			<path class="st18" d="M1999.8-349.4c0,0.3,0.1,0.6,0.3,0.8c0.2,0.2,0.5,0.3,0.8,0.3s0.6-0.1,0.8-0.3c0.2-0.2,0.3-0.5,0.3-0.8
				s-0.1-0.6-0.3-0.8c-0.2-0.2-0.5-0.3-0.8-0.3s-0.6,0.1-0.8,0.3C2000-350,1999.8-349.7,1999.8-349.4z"/>
		</g>
	</g>
</g>
<g transform="matrix( -0.67779541015625, 0.0645751953125, 0.0645751953125, 0.67779541015625, 1880.8,253.05) ">
	<g>
		<g id="Layer1_39_FILL">
			<path class="st18" d="M2011.6-349.1c0,0.3,0.1,0.6,0.3,0.8c0.2,0.2,0.5,0.3,0.8,0.3s0.6-0.1,0.8-0.3c0.2-0.2,0.3-0.5,0.3-0.8
				c0-0.3-0.1-0.6-0.3-0.8c-0.2-0.2-0.5-0.3-0.8-0.3s-0.6,0.1-0.8,0.3C2011.7-349.6,2011.6-349.4,2011.6-349.1z"/>
		</g>
	</g>
</g>
<g transform="matrix( 1, 0, 0, 1, 619.8,48.1) ">
	<g>
		<g id="Layer1_40_FILL">
			<path class="st17" d="M-118.6,86.5c0.6-0.1,1.3-0.4,2.2-0.7l1.1-0.5l-5.7,0.3c-4,0.1-6.5,0-7.5-0.3c-0.9-0.3-1.8-0.9-2.7-1.9v2
				c0.1,0.1,0.3,0.3,0.4,0.4c0.7,0.8,2.9,1.2,6.4,1.1C-122,87-120.1,86.8-118.6,86.5z"/>
		</g>
	</g>
</g>
<g transform="matrix( -0.67779541015625, 0.064666748046875, 0.064666748046875, 0.67779541015625, 1881.1,253.15) ">
	<g>
		<g id="Layer1_41_MEMBER_0_FILL">
			<path class="st1" d="M1978.2-352.5c1.4,3.8,2.1,5.7,2.1,5.8c1.1,2.2,2.1,2.8,3,1.7c1.9-2.2,2.9-5.1,3-8.8
				c-0.1-0.2-0.2-0.4-0.5-0.7c-0.4-0.6-1-1.1-1.8-1.6c-1.8-1.3-3.4-1.5-4.9-0.6C1977.8-356,1977.4-354.5,1978.2-352.5z"/>
		</g>
	</g>
</g>
<g transform="matrix( -0.67779541015625, 0.064666748046875, 0.064666748046875, 0.67779541015625, 1881.1,253.15) ">
	<g>
		<g id="Layer1_41_MEMBER_1_FILL">
			<path class="st4" d="M1981.4-353.1l2.3-0.3l-4.6-0.8l3.5,6.3L1981.4-353.1z"/>
		</g>
	</g>
</g>
<g transform="matrix( -0.67779541015625, 0.0645751953125, 0.0645751953125, 0.67779541015625, 1880.8,253.05) ">
	<g>
		<g id="Layer1_42_FILL">
			<path class="st4" d="M2006.7-341.4l2.1-0.5l-1.9-9.1L2006.7-341.4z"/>
		</g>
	</g>
</g>
<g transform="matrix( 1, 0, 0, 1, 0,0) ">
	<g>
		<g id="Layer1_43_FILL">
			<path class="st4" d="M494.3,153.4c0,0.1,0,0.3,0.1,0.4c0.5,0.5,1.1,0.9,1.9,1.2l0,0c0.9,0.4,1.8,0.5,2.7,0.4
				c0.9-0.1,1.7-0.4,2.6-1l0,0c0.8-0.5,1.3-1,1.6-1.5c0.1-0.1,0.1-0.2,0.1-0.4c0-0.1-0.1-0.2-0.2-0.3c-0.1-0.1-0.2-0.1-0.4-0.1
				c-0.1,0-0.2,0.1-0.3,0.2c-0.3,0.4-0.7,0.8-1.3,1.2l0,0c-0.7,0.5-1.5,0.7-2.2,0.8c-0.7,0.1-1.5,0-2.2-0.3l0,0
				c-0.7-0.2-1.2-0.6-1.5-1c-0.1-0.1-0.2-0.1-0.4-0.2c-0.1,0-0.3,0-0.4,0.1C494.3,153.2,494.3,153.3,494.3,153.4z"/>
		</g>
	</g>
</g>
<g transform="matrix( 1, 0, 0, 1, 0,0) ">
	<g>
		<g id="Layer1_44_FILL">
			<path class="st19" d="M444.3,186L444.3,186l-66.2-15.5l-0.3,0.1l0.4,66.5l68,19.1L444.3,186z"/>
			<path class="st20" d="M444.4,186L444.4,186l1.7,70.2l0.3,0.1l47-21.4l-0.9-67.9L444.4,186z"/>
			<path class="st21" d="M492.5,167v-0.2l-69.3-11.2l-45.1,14.9l66.3,15.5l0,0L492.5,167z"/>
		</g>
	</g>
</g>
<g transform="matrix( 1, 0, 0, 1, 0,0) ">
	<g>
		<g id="Layer1_44_MEMBER_0_FILL">
			<path class="st13" d="M488.3,227.5l3.6-1.6l-6-4.2l-6,9.3l3.5-1.5v6.4l4.9-2.1V227.5z"/>
		</g>
	</g>
</g>
<g transform="matrix( 1, 0, 0, 1, 0,0) ">
	<g>
		<g id="Layer1_44_MEMBER_1_FILL">
			<path class="st13" d="M470.8,241.4c0.1,0.1,0.3,0.1,0.5,0l4.7-2.1c0.2-0.1,0.4-0.3,0.5-0.5s0.2-0.4,0.2-0.6s-0.1-0.4-0.2-0.4
				c-0.1-0.1-0.3-0.1-0.5,0l-1.4,0.6v-4.8l0.7-0.3c0.6-0.3,0.9-0.7,0.9-1.2v-7c0-0.6-0.3-0.7-0.9-0.5l-3.6,1.5
				c-0.6,0.3-0.8,0.7-0.8,1.2v7c0,0.6,0.3,0.7,0.8,0.5l0.9-0.4v4.8l-1.3,0.6c-0.2,0.1-0.4,0.2-0.5,0.4c-0.2,0.2-0.2,0.4-0.2,0.6
				C470.5,241.2,470.6,241.3,470.8,241.4z"/>
		</g>
	</g>
</g>
<g transform="matrix( 0.0364227294921875, -0.6795654296875, 0.6795654296875, 0.0364227294921875, 1123.45,733.8) ">
	<g>
		<g id="Layer1_45_MEMBER_0_FILL">
			<path class="st1" d="M721.8-1142.9c-0.1-1.5-0.7-2.7-1.8-3.7s-2.4-1.4-3.8-1.3c-1.4,0.1-2.7,0.7-3.7,1.8c-1,1.1-1.4,2.4-1.3,3.8
				l2.2,45.5c0.1,1.5,0.7,2.7,1.8,3.7s2.4,1.4,3.8,1.3c1.5-0.1,2.7-0.7,3.7-1.8c1-1.1,1.4-2.4,1.3-3.8L721.8-1142.9z"/>
		</g>
	</g>
</g>
<g transform="matrix( 0.58819580078125, -0.34259033203125, 0.34259033203125, 0.58819580078125, 1022.15,440.95) ">
	<g>
		<g id="Layer1_45_MEMBER_1_FILL">
			<path class="st1" d="M-648.4-829.5c-1.5,0-2.7,0.4-3.8,1.4s-1.6,2.2-1.6,3.7l-1.7,45.6c0,1.5,0.4,2.7,1.4,3.8s2.2,1.6,3.7,1.6
				s2.7-0.4,3.8-1.4s1.6-2.2,1.6-3.7l1.7-45.6c0-1.5-0.4-2.7-1.4-3.8C-645.7-828.9-647-829.5-648.4-829.5z"/>
		</g>
	</g>
</g>
<g transform="matrix( 0.58819580078125, -0.34259033203125, 0.34259033203125, 0.58819580078125, 1301.1,435.55) ">
	<g transform="matrix( 1, 0, 0, 1, 0,0) ">
		<g>
			<g id="_VisiTeli_V2_ai_Layer_1__Clip_Group__1_copy_0_Layer3_0_FILL_4_">
				<path class="st3" d="M-1010.8-1030.6c-1.4,1.3-2.1,2.8-2.1,4.6l-1.3,33.3l13.3,0.5l1.3-33.3c0.1-1.8-0.5-3.4-1.8-4.8
					c-1.3-1.4-2.8-2.1-4.6-2.1C-1007.9-1032.5-1009.5-1031.9-1010.8-1030.6z"/>
			</g>
		</g>
	</g>
</g>
<g transform="matrix( -0.688262939453125, 0.72515869140625, 0.72515869140625, 0.688262939453125, 1680.1,-474.2) ">
	<g>
		<g id="Layer1_45_MEMBER_3_FILL">
			<path class="st3" d="M1377.2-517.3c-2.2,0.6-3.8,2-4.9,4s-1.3,4.1-0.7,6.3c0.6,2.2,2,3.8,4,4.9s4.1,1.3,6.3,0.7
				c2.2-0.6,3.8-1.9,4.9-4c1.1-2,1.4-4.1,0.7-6.3c-0.6-2.2-2-3.8-4-4.9C1381.5-517.7,1379.4-517.9,1377.2-517.3z"/>
		</g>
	</g>
</g>
<g transform="matrix( 0.0364227294921875, -0.6795654296875, 0.6795654296875, 0.0364227294921875, 1123.45,733.8) ">
	<g>
		<g id="Layer1_45_MEMBER_4_FILL">
			<path class="st4" d="M721.4-1089.2l2.6,1.5c1.9,0.8,3.5,0.4,4.6-1c-0.7-1.1-1.7-2.9-3-5.5l-1.7-3.6L721.4-1089.2z"/>
		</g>
	</g>
</g>
<g transform="matrix( 0.0364227294921875, -0.6795654296875, 0.6795654296875, 0.0364227294921875, 1123.45,733.8) ">
	<g>
		<g id="Layer1_45_MEMBER_5_FILL">
			<path class="st1" d="M724-1098.4l-10.7-0.8l-0.3,10.8l2.4,3.8c1.8,2.7,3.3,4.4,4.4,5.1c1.3,0.9,3,1.5,5.2,1.9
				c1.4,0.2,2.6,0.3,3.6,0.3c1-0.1,0.6-1.8-1.3-5.2l-3.1-5.1L724-1098.4z"/>
		</g>
	</g>
</g>
<g transform="matrix( 0.58819580078125, -0.34259033203125, 0.34259033203125, 0.58819580078125, 1022.15,440.95) ">
	<g transform="matrix( 1.2694549560546875, 0.7393798828125, -0.7393798828125, 1.2694549560546875, -971.5,-1315.5) ">
		<path id="Layer1_45_MEMBER_6_1_STROKES" class="st5" d="M-811.9-740.9l13.3,0.6"/>
	</g>
</g>
<g transform="matrix( -0.31219482421875, -0.6047821044921875, -0.6047821044921875, 0.31219482421875, 1932.35,619.45) ">
	<g>
		<g id="Layer1_46_MEMBER_0_FILL">
			<path class="st1" d="M1500.4,1565.5c-0.1-1.5-0.7-2.7-1.8-3.7c-1.1-1-2.4-1.4-3.8-1.3c-1.5,0.1-2.7,0.7-3.7,1.8
				c-1,1.1-1.4,2.4-1.3,3.8l2.2,45.5c0.1,1.5,0.7,2.7,1.8,3.7c1.1,1,2.4,1.4,3.8,1.3c1.5-0.1,2.7-0.7,3.7-1.8c1-1.1,1.4-2.4,1.3-3.8
				L1500.4,1565.5z"/>
		</g>
	</g>
</g>
<g transform="matrix( -0.677032470703125, -0.0709075927734375, -0.0709075927734375, 0.677032470703125, 1904.5,310.6) ">
	<g>
		<g id="Layer1_46_MEMBER_1_FILL">
			<path class="st1" d="M2042.3,5.9c-1.5,0-2.7,0.4-3.8,1.4c-1.1,1-1.6,2.2-1.6,3.7l-1.7,45.6c0,1.5,0.4,2.7,1.4,3.8
				c1,1.1,2.2,1.6,3.7,1.6c1.5,0,2.7-0.4,3.8-1.4c1.1-1,1.6-2.2,1.6-3.7l1.7-45.6c0-1.5-0.4-2.7-1.4-3.8
				C2045,6.5,2043.8,6,2042.3,5.9z"/>
		</g>
	</g>
</g>
<g transform="matrix( -0.677032470703125, -0.0709075927734375, -0.0709075927734375, 0.677032470703125, 1648.1,420.35) ">
	<g transform="matrix( 1, 0, 0, 1, 0,0) ">
		<g>
			<g id="_VisiTeli_V2_ai_Layer_1__Clip_Group__1_copy_0_Layer3_0_FILL_3_">
				<path class="st3" d="M1680.1-195.3c-1.4,1.3-2.1,2.8-2.1,4.6l-1.3,33.3l13.3,0.5l1.3-33.3c0.1-1.8-0.5-3.4-1.8-4.8
					c-1.3-1.4-2.8-2.1-4.6-2.1C1683-197.2,1681.4-196.6,1680.1-195.3z"/>
			</g>
		</g>
	</g>
</g>
<g transform="matrix( 0.925384521484375, 0.37872314453125, -0.37872314453125, 0.925384521484375, 928.85,-253.7) ">
	<g>
		<g id="Layer1_46_MEMBER_3_FILL">
			<path class="st3" d="M-221.8,542.1c-2.2,0.6-3.8,2-4.9,4c-1.1,2-1.3,4.1-0.7,6.3c0.6,2.2,2,3.8,4,4.9c2,1.1,4.1,1.3,6.3,0.7
				s3.8-1.9,4.9-4c1.1-2,1.4-4.1,0.7-6.3c-0.6-2.2-2-3.8-4-4.9C-217.6,541.7-219.7,541.5-221.8,542.1z"/>
		</g>
	</g>
</g>
<g transform="matrix( -0.31219482421875, -0.6047821044921875, -0.6047821044921875, 0.31219482421875, 1932.35,619.45) ">
	<g>
		<g id="Layer1_46_MEMBER_4_FILL">
			<path class="st4" d="M1500,1619.3l2.6,1.5c1.9,0.8,3.5,0.4,4.6-1c-0.7-1.1-1.7-2.9-3-5.5l-1.7-3.6L1500,1619.3z"/>
		</g>
	</g>
</g>
<g transform="matrix( -0.31219482421875, -0.6047821044921875, -0.6047821044921875, 0.31219482421875, 1932.35,619.45) ">
	<g>
		<g id="Layer1_46_MEMBER_5_FILL">
			<path class="st1" d="M1502.5,1610.1l-10.7-0.8l-0.3,10.8l2.4,3.8c1.8,2.7,3.3,4.4,4.4,5.1c1.3,0.9,3,1.5,5.2,1.9
				c1.4,0.2,2.6,0.3,3.6,0.3c1-0.1,0.6-1.8-1.3-5.2l-3.1-5.1L1502.5,1610.1z"/>
		</g>
	</g>
</g>
<g transform="matrix( -0.677032470703125, -0.0709075927734375, -0.0709075927734375, 0.677032470703125, 1904.5,310.6) ">
	<g transform="matrix( -1.46099853515625, -0.15301513671875, -0.15301513671875, 1.46099853515625, 2830,-162.4) ">
		<path id="Layer1_46_MEMBER_6_1_STROKES" class="st5" d="M2002.2,134.9l13.3,0.6"/>
	</g>
</g>
<g transform="matrix( 1, 0, 0, 1, 0,0) ">
	<g>
		<g id="Layer1_47_FILL">
			<path class="st14" d="M487.4,136.5c-1.2,0.4-2.9,1.1-5.1,2.1c-3.8,1.7-5.4,2.9-4.8,3.6h1.3c2.1-0.2,7.2-1.2,15.3-3
				c5.9-1.3,9.9-2.2,12-2.8l-18.4,1.6C487.6,137.6,487.5,137.1,487.4,136.5z"/>
			<path class="st3" d="M515.8,135.6c0.1-0.8,0.1-1.7,0-2.6c-0.4-3.9-2.1-7.2-5.1-9.7c-3-2.5-6.5-3.6-10.5-3.3
				c-3.9,0.4-7.2,2.1-9.7,5.1s-3.6,6.5-3.2,10.5c0,0.3,0.1,0.7,0.1,1c0.1,0.6,0.2,1.1,0.4,1.6l18.4-1.6L515.8,135.6z"/>
		</g>
	</g>
</g>
<g transform="matrix( 1, 0, 0, 1, 0,0) ">
	<g>
		<g id="Layer1_48_FILL">
			<path class="st12" d="M1,142.2v4.3l2.3-2.2L1,142.2 M159.3,42.8l-0.7-0.4H1v65.7l18.5,2.4l5.6-59.8l31,51.4l50.2-32.9l-20.9,56.2
				l57,18.8l-57,18.8l20.9,56.3l-50.2-32.8l-31,51.4l-5.6-59.8L1,180.6v77.9h157l1.3-0.5v-13.7V66V42.8z"/>
			<path class="st13" d="M76.8,274.2c-0.3-0.3-0.7-0.6-1-0.9h38.4c0.2,0.7,0.4,1.4,0.5,2.2c0.8,3.7,1.2,7.7,1.2,11.7
				c0,7.3-1.3,14.1-3.9,20.4c-2.6,6.2-6.4,11.8-11.5,17c-7,7-15,11.7-24,13.9c1.7,0.2,3.4,0.2,5.2,0.2c14.5,0,26.9-5.1,37.1-15.4
				c4-4,7.3-8.4,9.7-13.1c3.8-7.2,5.6-15.2,5.6-24c0-1.8-0.1-3.6-0.3-5.4c1.8-0.8,3.4-1.9,4.9-3.3c0.8-0.8,1.5-1.7,2.1-2.6l0,0
				c0-0.1,0.1-0.1,0.1-0.2c0.3-0.5,0.6-0.9,0.8-1.4h13.6l16.2-6c-0.3,11.6-4.6,21.6-12.9,29.9c-5.9,5.9-12.6,9.7-20.1,11.6
				c1.4,0.1,2.9,0.2,4.3,0.2c12.1,0,22.5-4.3,31.1-12.9s12.9-19,12.9-31.1c0-1.1,0-2.3-0.1-3.4l7-2.6l-0.5-12.4l7.1-2.4v-1.4
				l-40.9,1.3v13.7l-1.4,0.7H1v14.8h11h39.1c-0.3,0.3-0.7,0.6-1,0.9c-3.7,3.7-5.5,8.1-5.5,13.3c0,5.2,1.8,9.7,5.5,13.3
				c3.7,3.7,8.1,5.5,13.3,5.5s9.7-1.8,13.3-5.5c1-1,1.8-2,2.5-3.1h0.1c0-0.1,0.1-0.1,0.1-0.2c1.9-3,2.8-6.3,2.8-10.1
				c-0.1,3.7-1.4,6.8-4,9.4c-2.7,2.7-5.9,4-9.7,4c-3.8,0-7.1-1.3-9.8-4s-4-5.9-4-9.8c0-3.8,1.3-7.1,4-9.7c2.7-2.7,5.9-4,9.8-4
				c3.8,0,7.1,1.3,9.7,4c2.1,2.1,3.4,4.5,3.9,7.2c-0.4-2.9-1.5-5.5-3.1-7.8c-0.1,0-0.1-0.1-0.1-0.2C78.3,275.9,77.5,275,76.8,274.2
				 M140.7,273.3c-0.2,0.3-0.5,0.6-0.8,0.9c-1.9,1.9-4,2.9-6.5,3.3c-0.2-1.4-0.5-2.8-0.8-4.1L140.7,273.3 M198.5,66v-2.5l-39.1-20.7
				V66H198.5z"/>
			<path class="st22" d="M139.9,274.2c0.3-0.3,0.5-0.6,0.8-0.9h-8.1c0.3,1.4,0.6,2.7,0.8,4.1C135.9,277.1,138.1,276,139.9,274.2
				 M75.8,273.3c0.3,0.3,0.7,0.6,1,0.9c0.8,0.8,1.5,1.6,2.1,2.5c0,0.1,0.1,0.1,0.1,0.2c1.6,2.3,2.7,4.9,3.1,7.8
				c-0.5-2.7-1.8-5.2-3.9-7.2c-2.7-2.7-5.9-4-9.7-4c-3.8,0-7.1,1.3-9.8,4s-4,5.9-4,9.7c0,3.8,1.3,7.1,4,9.8c2.7,2.7,5.9,4,9.8,4
				c3.8,0,7.1-1.3,9.7-4c2.6-2.6,3.9-5.8,4-9.4c0,3.8-0.9,7.1-2.8,10.1c0,0.1-0.1,0.1-0.1,0.2h-0.1c-0.7,1.1-1.5,2.1-2.5,3.1
				c-3.7,3.7-8.1,5.5-13.3,5.5s-9.7-1.8-13.3-5.5c-3.7-3.7-5.5-8.1-5.5-13.3c0-5.2,1.8-9.6,5.5-13.3c0.3-0.3,0.7-0.6,1-0.9H12
				c-1.2,4.4-1.7,9-1.7,13.9c0,14.6,5.2,27,15.5,37.4c10.3,10.3,22.8,15.5,37.4,15.5c4.6,0,9.1-0.5,13.3-1.6c9-2.2,17-6.9,24-13.9
				c5.1-5.1,9-10.8,11.5-17c2.6-6.3,3.9-13.1,3.9-20.4c0-4.1-0.4-8-1.2-11.7c-0.2-0.7-0.3-1.5-0.5-2.2H75.8 M159.3,244.3l40.9-1.3
				l-1.7-177h-39.2L159.3,244.3 M171.5,267.3l-16.2,6h-13.6c-0.2,0.5-0.5,0.9-0.8,1.4c0,0.1-0.1,0.1-0.1,0.2l0,0
				c-0.6,0.9-1.3,1.8-2.1,2.6c-1.5,1.5-3.1,2.6-4.9,3.3c0.2,1.8,0.3,3.6,0.3,5.4c0,8.8-1.9,16.8-5.6,24c3.5-0.1,6.8-0.5,10-1.3
				c7.5-1.9,14.2-5.8,20.1-11.6C166.8,289,171.2,279,171.5,267.3z"/>
			<path class="st23" d="M25.1,50.9l-5.6,59.8L1,108.2v34l2.3,2.2L1,146.6v34.1l18.5-2.4l5.6,59.8l31-51.4l50.2,32.9l-20.9-56.3
				l57-18.8l-57-18.8l20.9-56.2l-50.2,32.9L25.1,50.9z"/>
		</g>
	</g>
</g>
<g transform="matrix( 1, 0, 0, 1, 0,0) ">
	<g>
		<g id="Layer1_49_FILL">
			<path class="st0" d="M150.9,258.5h1.3V258L150.9,258.5z"/>
		</g>
	</g>
</g>
<g transform="matrix( -0.18145751953125, -0.655853271484375, 0.655853271484375, -0.18145751953125, 976.95,843.7) ">
	<g>
		<g id="Layer1_49_MEMBER_0_MEMBER_0_FILL">
			<path class="st1" d="M1200.6-787.9c-1,1.1-1.4,2.4-1.3,3.8l3.4,45.5c0.1,1.5,0.7,2.7,1.8,3.6s2.4,1.4,3.9,1.3
				c1.5-0.1,2.7-0.7,3.6-1.8c1-1.1,1.4-2.4,1.3-3.9l-3.5-45.5c-0.1-1.5-0.7-2.7-1.8-3.7s-2.4-1.4-3.8-1.3
				C1202.7-789.6,1201.5-789,1200.6-787.9z"/>
		</g>
	</g>
</g>
<g transform="matrix( 0.5980682373046875, -0.3245849609375, 0.3245849609375, 0.5980682373046875, 704.2,446.7) ">
	<g>
		<g id="Layer1_49_MEMBER_0_MEMBER_1_FILL">
			<path class="st1" d="M-417.6-696.5c-1.1-1-2.3-1.5-3.8-1.4c-1.5,0-2.7,0.6-3.7,1.6c-1,1.1-1.5,2.3-1.4,3.8l1.7,45.6
				c0,1.5,0.6,2.7,1.6,3.7c1.1,1,2.3,1.5,3.8,1.4c1.5,0,2.7-0.6,3.7-1.6c1-1.1,1.5-2.3,1.4-3.8l-1.7-45.6
				C-416-694.2-416.5-695.5-417.6-696.5z"/>
		</g>
	</g>
</g>
<g transform="matrix( 0.5980682373046875, -0.3245849609375, 0.3245849609375, 0.5980682373046875, 1044.8,416.15) ">
	<g>
		<g id="Layer1_49_MEMBER_0_MEMBER_2_FILL">
			<path class="st2" d="M-875.6-894.4c-0.1-1.8-0.8-3.4-2.1-4.6c-1.4-1.3-3-1.9-4.8-1.8c-1.8,0.1-3.4,0.8-4.6,2.1
				c-1.3,1.4-1.9,2.9-1.8,4.8l1.3,33.3l13.3-0.5L-875.6-894.4z"/>
		</g>
	</g>
</g>
<g transform="matrix( 0.5980682373046875, -0.3245849609375, 0.3245849609375, 0.5980682373046875, 704.2,446.7) ">
	<g>
		<g id="Layer1_49_MEMBER_0_MEMBER_3_FILL">
			<path class="st2" d="M-426.9-705.9c-3.4,0-6.2,1.2-8.6,3.6c-2.4,2.4-3.6,5.2-3.6,8.6c0,3.4,1.2,6.2,3.6,8.6
				c2.4,2.4,5.2,3.6,8.6,3.6c3.3,0,6.2-1.2,8.6-3.6c2.4-2.4,3.6-5.2,3.6-8.6c0-3.3-1.2-6.2-3.6-8.6
				C-420.7-704.7-423.6-705.9-426.9-705.9z"/>
		</g>
	</g>
</g>
<g transform="matrix( 0.353302001953125, 0.5815887451171875, 0.5815887451171875, -0.353302001953125, 750,312) ">
	<g>
		<g id="Layer1_49_MEMBER_0_MEMBER_4_FILL">
			<path class="st1" d="M-517.2-503.3l-10.5,2.1l1.1,10.6l-2.5,5.4c-1.4,3.6-1.7,5.4-0.7,5.3c1-0.1,2.2-0.3,3.5-0.7
				c2.1-0.6,3.7-1.4,4.9-2.5c1-0.9,2.2-2.8,3.7-5.6c0.7-1.4,1.4-2.8,1.9-4.1L-517.2-503.3z"/>
		</g>
	</g>
</g>
<g transform="matrix( 0.353302001953125, 0.5815887451171875, 0.5815887451171875, -0.353302001953125, 750,312) ">
	<g>
		<g id="Layer1_49_MEMBER_0_MEMBER_5_FILL">
			<path class="st4" d="M-526.3-490.5c0.9-0.5,1.7-1.1,2.4-1.9l-3.6-8.1c-1.4,4.6-2.5,7.7-3.5,9.6
				C-529.7-489.6-528.2-489.5-526.3-490.5z"/>
		</g>
	</g>
</g>
<g transform="matrix( 0.5980682373046875, -0.3245849609375, 0.3245849609375, 0.5980682373046875, 704.2,446.7) ">
	<g transform="matrix( 1.291595458984375, 0.7009735107421875, -0.7009735107421875, 1.291595458984375, -596.45,-1070.6) ">
		<path id="Layer1_49_MEMBER_0_MEMBER_6_1_STROKES" class="st24" d="M-561-604.7l-13.3,0.6"/>
	</g>
</g>
<g transform="matrix( 0.6636810302734375, 0.15203857421875, -0.15203857421875, 0.6636810302734375, 804.55,223.75) ">
	<g>
		<g id="Layer1_49_MEMBER_1_FILL">
			<path class="st6" d="M-822.9,208.5c0-0.6-0.2-1-0.6-1.4c-0.4-0.4-0.9-0.6-1.4-0.6c-0.6,0-1.1,0.2-1.4,0.6
				c-0.4,0.4-0.6,0.9-0.6,1.4c0,0.6,0.2,1.1,0.6,1.4c0.4,0.4,0.9,0.6,1.4,0.6c0.6,0,1-0.2,1.4-0.6
				C-823.1,209.6-822.9,209.1-822.9,208.5z"/>
		</g>
	</g>
</g>
<g transform="matrix( 0.556396484375, 0.39166259765625, -0.39166259765625, 0.556396484375, 1043,155.7) ">
	<g>
		<g id="Layer1_49_MEMBER_2_MEMBER_0_FILL">
			<path class="st23" d="M-857.4,849.7c-1.3-1.3-2.9-1.9-4.7-1.9s-3.4,0.6-4.7,1.9s-2,2.9-2,4.7l0,46.9c0,1.8,0.7,3.4,2,4.7
				c1.3,1.3,2.8,1.9,4.7,1.9c1.8,0,3.4-0.6,4.7-1.9s1.9-2.9,1.9-4.7v-46.9C-855.4,852.6-856.1,851-857.4,849.7z"/>
		</g>
	</g>
</g>
<g transform="matrix( -0.9811859130859375, -0.1904144287109375, -0.1904144287109375, 0.9811859130859375, 1969.85,267.7) ">
	<g>
		<g id="Layer1_49_MEMBER_2_MEMBER_1_FILL">
			<path class="st0" d="M1729.5,301.1c-0.2-1.4-0.9-2.5-2.1-3.3l-1.2-0.8c-1.1-0.8-2.4-1.1-3.8-0.9s-2.5,0.9-3.3,2.1l-26.9,37
				c-1,1.9-1,3.4,0,4.6l18.8,43.4l10.7-4.6l-17.4-40.1l24.2-33.3C1729.3,303.7,1729.7,302.5,1729.5,301.1z"/>
		</g>
	</g>
</g>
<g transform="matrix( 0.6711273193359375, 0.112213134765625, -0.112213134765625, 0.6711273193359375, 798.85,199.25) ">
	<g>
		<g id="Layer1_49_MEMBER_2_MEMBER_2_FILL">
			<path class="st12" d="M-830.6,312.3c-0.3,0.2-0.5,0.6-0.5,1v8.1h40v-0.8c0-0.7-0.2-1.4-0.7-2s-1-1-1.8-1.1l-21.3-5.6
				c-1-0.3-2-0.3-3,0c-4.4,1.2-8.3,1.2-11.7,0.2C-829.9,311.9-830.3,312-830.6,312.3z"/>
		</g>
	</g>
</g>
<g transform="matrix( 0.6711273193359375, 0.112213134765625, -0.112213134765625, 0.6711273193359375, 798.85,199.25) ">
	<g>
		<g id="Layer1_49_MEMBER_2_MEMBER_3_FILL">
			<path class="st13" d="M-830.4,323.1c0.5,0.5,1,0.7,1.7,0.7h36.3c0.3,0,0.6-0.1,0.9-0.4c0.2-0.3,0.4-0.5,0.4-0.9v-1.3h-40v0.1
				C-831.1,322.1-830.9,322.7-830.4,323.1z"/>
		</g>
	</g>
</g>
<g transform="matrix( 0.326416015625, 0.5972747802734375, -0.5972747802734375, 0.326416015625, 1178.15,198.2) ">
	<g>
		<g id="Layer1_49_MEMBER_3_MEMBER_0_FILL">
			<path class="st23" d="M-576,1346.3c-1.3-1.3-2.9-1.9-4.7-1.9c-1.8,0-3.4,0.6-4.7,1.9c-1.3,1.3-2,2.9-2,4.7v46.9
				c0,1.8,0.7,3.4,2,4.7c1.3,1.3,2.8,1.9,4.7,1.9c1.8,0,3.4-0.6,4.7-1.9c1.3-1.3,1.9-2.9,1.9-4.7V1351
				C-574.1,1349.1-574.8,1347.5-576,1346.3z"/>
		</g>
	</g>
</g>
<g transform="matrix( 1, 0, 0, 1, 545.45,48.3) ">
	<g>
		<g id="Layer1_49_MEMBER_3_MEMBER_1_FILL">
			<path class="st0" d="M-345.4,183.2c-1.4,0-2.6,0.5-3.7,1.4c-1,1-1.5,2.2-1.5,3.6l-0.8,41.2l-38.1,21.4l5.7,10.1l41.1-23.2
				c1.5-0.4,2.4-1.6,2.8-3.7l1-45.7c0-1.4-0.5-2.6-1.4-3.7c-1-1-2.2-1.5-3.6-1.5L-345.4,183.2z"/>
		</g>
	</g>
</g>
<g transform="matrix( 0.544158935546875, 0.4091644287109375, -0.4091644287109375, 0.544158935546875, 951.15,129.55) ">
	<g>
		<g id="Layer1_49_MEMBER_3_MEMBER_2_FILL">
			<path class="st12" d="M-786.6,908.3c-0.3,0.2-0.5,0.6-0.5,1v8.1h40v-0.8c0-0.7-0.2-1.4-0.7-2s-1-1-1.8-1.1l-21.3-5.6
				c-1-0.3-2-0.3-3,0c-4.4,1.2-8.3,1.2-11.7,0.2C-785.9,908-786.3,908.1-786.6,908.3z"/>
		</g>
	</g>
</g>
<g transform="matrix( 0.544158935546875, 0.4091644287109375, -0.4091644287109375, 0.544158935546875, 951.15,129.55) ">
	<g>
		<g id="Layer1_49_MEMBER_3_MEMBER_3_FILL">
			<path class="st13" d="M-786.4,919.2c0.5,0.5,1,0.7,1.7,0.7h36.3c0.3,0,0.6-0.1,0.9-0.4c0.2-0.3,0.4-0.5,0.4-0.9v-1.3h-40v0.1
				C-787.1,918.1-786.8,918.7-786.4,919.2z"/>
		</g>
	</g>
</g>
<g transform="matrix( 1, 0, 0, 1, 545.45,48.3) ">
	<g>
		<g id="Layer1_49_MEMBER_4_FILL">
			<path class="st0" d="M-325.9,196.9c1.5,0.4,2.9,0.1,4.3-0.7c1.4-0.8,2.2-2,2.6-3.5l2.6-10.4l-32.3-7.7l-2.6,10.4
				c-0.4,1.5-0.1,3,0.7,4.3c0.8,1.4,2,2.2,3.6,2.5L-325.9,196.9z"/>
		</g>
	</g>
</g>
<g transform="matrix( 1, 0, 0, 1, 0,0) ">
	<g>
		<g id="Layer1_49_MEMBER_5_MEMBER_0_FILL">
			<path class="st2" d="M229.6,169.6c-0.1-2.3-1-4.3-2.7-5.9s-3.7-2.3-6-2.2l-23.3,1c-2.2,0.1-4.1,1-5.6,2.6
				c-1.5,1.7-2.3,3.6-2.2,5.9l2.7,62.7l39.9-1.7L229.6,169.6z"/>
		</g>
	</g>
</g>
<g transform="matrix( 1, 0, 0, 1, 545.45,48.3) ">
	<g>
		<g id="Layer1_49_MEMBER_5_MEMBER_1_FILL">
			<path class="st0" d="M-327.1,127.5c-0.8,0-1.5,0.3-2,0.8c-0.6,0.6-0.8,1.2-0.8,2v1.1c0,0.8,0.3,1.5,0.8,2c0.6,0.6,1.2,0.8,2,0.8
				h4.4c0.8,0,1.5-0.3,2-0.8c0.6-0.6,0.8-1.2,0.8-2v-1.1c0-0.8-0.3-1.5-0.8-2c-0.6-0.6-1.2-0.8-2-0.8H-327.1z"/>
		</g>
	</g>
</g>
<g transform="matrix( 1, 0, 0, 1, 545.45,48.3) ">
	<g>
		<g id="Layer1_49_MEMBER_5_MEMBER_2_FILL">
			<path class="st0" d="M-319.3,141.3c0-0.8-0.3-1.5-0.8-2s-1.2-0.8-2-0.8h-4.4c-0.8,0-1.5,0.3-2,0.8c-0.6,0.6-0.8,1.2-0.8,2v2.6
				c0,0.8,0.3,1.5,0.8,2c0.6,0.6,1.2,0.8,2,0.8h4.4c0.8,0,1.5-0.3,2-0.8s0.8-1.2,0.8-2V141.3z"/>
		</g>
	</g>
</g>
<g transform="matrix( 1, 0, 0, 1, 545.45,48.3) ">
	<g>
		<g id="Layer1_49_MEMBER_5_MEMBER_3_FILL">
			<path class="st0" d="M-325,161.8c-1.9,0-2.9,1-2.9,2.9v12c0,1.9,1,2.9,2.9,2.9h4.9c1.9,0,2.9-1,2.9-2.9v-12c0-1.9-1-2.9-2.9-2.9
				H-325z"/>
		</g>
	</g>
</g>
<g transform="matrix( 1, 0, 0, 1, 549.45,47.3) ">
	<g>
		<g id="Layer1_49_MEMBER_5_MEMBER_4_FILL">
			<path class="st0" d="M-347.6,129c-1.9,0-2.9,1-2.9,2.9v12.8c0,1.9,1,2.9,2.9,2.9h7.5c1.9,0,2.9-1,2.9-2.9v-12.8
				c0-1.9-1-2.9-2.9-2.9H-347.6z"/>
		</g>
	</g>
</g>
<g transform="matrix( 0.680328369140625, -0.029449462890625, 0.029449462890625, 0.680328369140625, 728.7,291.9) ">
	<g>
		<g id="Layer1_49_MEMBER_6_FILL">
			<path class="st25" d="M-748.1-219.9c1.6-1,2.3-2.2,2.3-3.7s-0.8-2.7-2.3-3.7s-3.4-1.5-5.6-1.5c-2.2,0-4.1,0.5-5.6,1.5
				c-1.6,1-2.3,2.2-2.3,3.7c0,1.4,0.8,2.7,2.3,3.7s3.4,1.5,5.6,1.5S-749.7-218.9-748.1-219.9z"/>
		</g>
	</g>
</g>
<g transform="matrix( 0.680328369140625, -0.029449462890625, 0.029449462890625, 0.680328369140625, 728.7,291.9) ">
	<g>
		<g id="Layer1_49_MEMBER_7_FILL">
			<path class="st1" d="M-749.1-233.9c0-1.2-0.4-2.2-1.2-3.1c-0.8-0.8-1.8-1.2-2.9-1.3h-0.1c-1.1,0-2.1,0.5-2.9,1.3
				c-0.8,0.9-1.3,1.9-1.3,3.1v9.3c0,2.1,1.4,3.1,4.2,3.1h0.1c2.8,0,4.1-1.1,4.1-3.1L-749.1-233.9L-749.1-233.9z"/>
		</g>
	</g>
</g>
<g transform="matrix( 0.673828125, -0.0976409912109375, 0.0976409912109375, 0.673828125, 720.1,320.8) ">
	<g>
		<g id="Layer1_49_MEMBER_8_FILL">
			<path class="st1" d="M-719.1-381.7c-3.6,4.9-4.9,10.6-3.7,17.1c1.2,6.8,3.7,12.1,7.3,16c4.1,4.4,9.4,6.4,15.9,6
				c5.6-1.2,9.6-5.2,12.1-11.9c1.9-5.2,2.7-10.6,2.3-16.2c-0.5-6.5-2.5-11.2-6-14.2c-3.2-2.7-8.1-4.1-14.4-4
				C-711-388.9-715.6-386.5-719.1-381.7z"/>
		</g>
	</g>
</g>
<g transform="matrix( 1, 0, 0, 1, 545.45,48.3) ">
	<g>
		<g id="Layer1_49_MEMBER_9_FILL">
			<path class="st22" d="M-339.7,74.9c-3.5,0.8-6.2,2.3-8.2,4.6c-0.6,0.7-1.2,1.4-1.6,2.2l-0.5,0.9c-0.3-0.1-0.6-0.2-1-0.2l0.4,1.8
				l-1.1,0.3c0.3,0.4,0.5,0.8,0.7,1.3c-0.5,1.9-0.3,4.7,0.4,8.2c0.2-0.3,0.5-0.4,0.7-0.5c0.3-0.2,0.7-0.2,1.1-0.2h0.3l1.1,0.4
				l0.6,0.4l0,0l0.2,0.2l0,0l0,0l0,0l0.6,4.1c0.1,0.6,0.3,1,0.6,1.3l0.2,0.2c0.1,0.1,0.3,0.1,0.6,0.2c0.3,0.1,0.5,0.1,0.7,0
				c0.6-0.1,1-0.4,1.4-0.8s0.5-0.9,0.5-1.4l-0.2-1.4c-0.1-0.6,0.1-1.1,0.4-1.5c0.3-0.5,0.7-0.8,1.3-0.9l0.4-0.1
				c-0.2-1.3-0.3-2.6-0.6-3.8c-0.1-0.6,0-1,0.3-1.3c0.3-0.4,1-0.7,2-1h0.1l0.6-0.2L-326,86l0.1-0.1c0.4-0.2,0.8-0.4,1.2-0.7
				c0.1-0.1,0.2-0.2,0.3-0.3l-0.9,0.2l-2.1-8.9l-2,0.3c-0.9-0.4-2-0.8-3.3-1.2C-335.1,74.6-337.5,74.4-339.7,74.9z"/>
		</g>
	</g>
</g>
<g transform="matrix( -0.97161865234375, 0.2366180419921875, 0.2366180419921875, 0.97161865234375, 1896.75,-176.7) ">
	<g>
		<g id="Layer1_49_MEMBER_10_FILL">
			<path class="st17" d="M1703.6-95.8L1703.6-95.8c-0.8-0.1-1.7-0.5-2.8-1.3v1.5c0.2,0.2,0.5,0.3,0.8,0.4c0.5,0.2,0.9,0.3,1.3,0.4
				h0.1l11.8-1.1C1708.6-95.7,1704.9-95.7,1703.6-95.8z"/>
		</g>
	</g>
</g>
<g transform="matrix( 0.67376708984375, -0.0974884033203125, 0.0974884033203125, 0.67376708984375, 720.6,321.4) ">
	<g>
		<g id="Layer1_49_MEMBER_11_MEMBER_0_FILL">
			<path class="st15" d="M-690.7-368.7h0.2c0.2,0,0.3-0.1,0.5-0.3c0.1-0.1,0.2-0.3,0.2-0.5c0-0.2-0.1-0.4-0.2-0.6
				c-0.2-0.2-0.3-0.3-0.6-0.3l-4.9-0.3c-0.2,0-0.4,0.1-0.6,0.2c-0.2,0.2-0.3,0.3-0.3,0.6c0,0.2,0.1,0.4,0.2,0.6
				c0.2,0.2,0.3,0.3,0.6,0.3L-690.7-368.7z"/>
		</g>
	</g>
</g>
<g transform="matrix( 0.67376708984375, -0.0974884033203125, 0.0974884033203125, 0.67376708984375, 720.6,321.4) ">
	<g>
		<g id="Layer1_49_MEMBER_12_MEMBER_0_FILL">
			<path class="st15" d="M-708.8-368.9c0.2,0.2,0.4,0.2,0.6,0.2l4.9-0.3c0.2,0,0.4-0.1,0.6-0.3c0.2-0.2,0.2-0.4,0.2-0.6
				c0-0.2-0.1-0.4-0.2-0.5c-0.1-0.1-0.3-0.2-0.5-0.3l-5,0.3c-0.2,0-0.4,0.1-0.6,0.3c-0.2,0.2-0.2,0.3-0.2,0.6
				C-709-369.3-708.9-369.1-708.8-368.9z"/>
		</g>
	</g>
</g>
<g transform="matrix( 0.673828125, -0.0976409912109375, 0.0976409912109375, 0.673828125, 720.1,320.8) ">
	<g>
		<g id="Layer1_49_MEMBER_13_FILL">
			<path class="st18" d="M-705.9-364.2c0,0.3,0.1,0.6,0.3,0.8s0.5,0.3,0.8,0.3s0.6-0.1,0.8-0.3s0.3-0.5,0.3-0.8
				c0-0.3-0.1-0.6-0.3-0.8c-0.2-0.2-0.5-0.3-0.8-0.3s-0.6,0.1-0.8,0.3C-705.7-364.8-705.9-364.5-705.9-364.2z"/>
		</g>
	</g>
</g>
<g transform="matrix( 0.673828125, -0.0976409912109375, 0.0976409912109375, 0.673828125, 720.1,320.8) ">
	<g>
		<g id="Layer1_49_MEMBER_14_FILL">
			<path class="st18" d="M-694.1-363.8c0,0.3,0.1,0.6,0.3,0.8s0.5,0.3,0.8,0.3s0.6-0.1,0.8-0.3s0.3-0.5,0.3-0.8
				c0-0.3-0.1-0.6-0.3-0.8c-0.2-0.2-0.5-0.3-0.8-0.3s-0.6,0.1-0.8,0.3C-694-364.4-694.1-364.1-694.1-363.8z"/>
		</g>
	</g>
</g>
<g transform="matrix( -0.97161865234375, 0.2366180419921875, 0.2366180419921875, 0.97161865234375, 1896.75,-176.7) ">
	<g>
		<g id="Layer1_49_MEMBER_15_FILL">
			<path class="st17" d="M1714.2-98.2c0.6-0.1,1.3-0.4,2.2-0.7l1.1-0.5l-5.7,0.3c-4,0.1-6.5,0-7.5-0.3c-0.9-0.3-1.8-0.9-2.7-1.9v2
				c0.1,0.1,0.3,0.3,0.4,0.4c0.7,0.8,2.9,1.2,6.4,1.1C1710.9-97.7,1712.8-97.9,1714.2-98.2z"/>
		</g>
	</g>
</g>
<g transform="matrix( 0.67376708984375, -0.0974884033203125, 0.0974884033203125, 0.67376708984375, 720.6,321.4) ">
	<g>
		<g id="Layer1_49_MEMBER_16_MEMBER_0_FILL">
			<path class="st1" d="M-728-367.3c1.4,3.8,2.1,5.7,2.1,5.8c1.1,2.2,2.1,2.8,3,1.7c1.9-2.2,2.9-5.1,3-8.8c-0.1-0.2-0.2-0.4-0.5-0.7
				c-0.4-0.6-1-1.1-1.8-1.6c-1.8-1.3-3.4-1.5-4.9-0.6C-728.4-370.7-728.8-369.3-728-367.3z"/>
		</g>
	</g>
</g>
<g transform="matrix( 0.67376708984375, -0.0974884033203125, 0.0974884033203125, 0.67376708984375, 720.6,321.4) ">
	<g>
		<g id="Layer1_49_MEMBER_16_MEMBER_1_FILL">
			<path class="st4" d="M-724.8-367.8l2.3-0.3l-4.6-0.8l3.5,6.3L-724.8-367.8z"/>
		</g>
	</g>
</g>
<g transform="matrix( 0.673828125, -0.0976409912109375, 0.0976409912109375, 0.673828125, 720.1,320.8) ">
	<g>
		<g id="Layer1_49_MEMBER_17_FILL">
			<path class="st4" d="M-699-356.2l2.1-0.5l-1.9-9.1L-699-356.2z"/>
		</g>
	</g>
</g>
<g transform="matrix( 1, 0, 0, 1, 0,0) ">
	<g>
		<g id="Layer1_49_MEMBER_18_FILL">
			<path class="st4" d="M210.1,151.4c0,0.1,0.1,0.3,0.2,0.4c0.4,0.4,1.1,0.8,1.9,1.1c1,0.4,1.9,0.5,2.8,0.3c0.9-0.1,1.7-0.5,2.5-1
				c0.7-0.5,1.2-1.1,1.5-1.7c0.1-0.1,0.1-0.2,0.1-0.4c0-0.1-0.1-0.2-0.3-0.3c-0.1-0.1-0.2-0.1-0.4,0c-0.1,0-0.2,0.1-0.3,0.2
				c-0.3,0.5-0.7,0.9-1.2,1.3c-0.6,0.5-1.3,0.8-2.1,0.9c-0.7,0.1-1.5,0-2.3-0.3l0,0c-0.7-0.2-1.2-0.5-1.5-0.9
				c-0.1-0.1-0.2-0.2-0.4-0.2c-0.1,0-0.3,0.1-0.4,0.2C210.2,151.2,210.1,151.3,210.1,151.4z"/>
		</g>
	</g>
</g>
<g transform="matrix( -0.21075439453125, -0.64691162109375, 0.64691162109375, -0.21075439453125, 924.75,777.25) ">
	<g>
		<g id="Layer1_49_MEMBER_19_MEMBER_0_FILL">
			<path class="st1" d="M1139.4-719c-0.1-1.5-0.7-2.7-1.8-3.7c-1.1-1-2.4-1.4-3.8-1.3c-1.5,0.1-2.7,0.7-3.7,1.8s-1.4,2.4-1.3,3.8
				l2.2,45.5c0.1,1.5,0.7,2.7,1.8,3.7s2.4,1.4,3.8,1.3c1.5-0.1,2.7-0.7,3.7-1.8s1.4-2.4,1.3-3.8L1139.4-719z"/>
		</g>
	</g>
</g>
<g transform="matrix( 0.42523193359375, -0.531402587890625, 0.531402587890625, 0.42523193359375, 724.25,540.2) ">
	<g>
		<g id="Layer1_49_MEMBER_19_MEMBER_1_FILL">
			<path class="st1" d="M-65-945.3c-1.5,0-2.7,0.4-3.8,1.4c-1.1,1-1.6,2.2-1.6,3.7l-1.7,45.6c0,1.5,0.4,2.7,1.4,3.8s2.2,1.6,3.7,1.6
				c1.5,0,2.7-0.4,3.8-1.4c1.1-1,1.6-2.2,1.6-3.7l1.7-45.6c0-1.5-0.4-2.7-1.4-3.8C-62.2-944.7-63.5-945.3-65-945.3z"/>
		</g>
	</g>
</g>
<g transform="matrix( 0.42523193359375, -0.531402587890625, 0.531402587890625, 0.42523193359375, 982.85,434.35) ">
	<g>
		<g id="Layer1_49_MEMBER_19_MEMBER_2_FILL">
			<path class="st2" d="M-427.7-1146.5c-1.4,1.3-2.1,2.8-2.1,4.6l-1.3,33.3l13.3,0.5l1.3-33.3c0.1-1.8-0.5-3.4-1.8-4.8
				c-1.3-1.4-2.8-2.1-4.6-2.1C-424.8-1148.4-426.3-1147.8-427.7-1146.5z"/>
		</g>
	</g>
</g>
<g transform="matrix( -0.3807220458984375, 0.9244384765625, 0.9244384765625, 0.3807220458984375, 1008.2,-550.6) ">
	<g>
		<g id="Layer1_49_MEMBER_19_MEMBER_3_FILL">
			<path class="st2" d="M973.8-481.6c-2.2,0.6-3.8,2-4.9,4s-1.3,4.1-0.7,6.3c0.6,2.2,2,3.8,4,4.9s4.1,1.3,6.3,0.7
				c2.2-0.6,3.8-1.9,4.9-4c1.1-2,1.4-4.1,0.7-6.3c-0.6-2.2-2-3.8-4-4.9C978.1-482,976-482.2,973.8-481.6z"/>
		</g>
	</g>
</g>
<g transform="matrix( -0.4283447265625, -0.5286102294921875, 0.5286102294921875, -0.4283447265625, 1053.2,818.65) ">
	<g>
		<g id="Layer1_49_MEMBER_19_MEMBER_4_FILL">
			<path class="st4" d="M1471-322l2.6,1.5c1.9,0.8,3.5,0.4,4.6-1c-0.7-1.1-1.7-2.9-3-5.5l-1.7-3.6L1471-322z"/>
		</g>
	</g>
</g>
<g transform="matrix( -0.4283447265625, -0.5286102294921875, 0.5286102294921875, -0.4283447265625, 1053.2,818.65) ">
	<g>
		<g id="Layer1_49_MEMBER_19_MEMBER_5_FILL">
			<path class="st1" d="M1473.5-331.2l-10.7-0.8l-0.3,10.8l2.4,3.8c1.8,2.7,3.3,4.4,4.4,5.1c1.3,0.9,3,1.5,5.2,1.9
				c1.4,0.2,2.6,0.3,3.6,0.3s0.6-1.8-1.3-5.2l-3.1-5.1L1473.5-331.2z"/>
		</g>
	</g>
</g>
<g transform="matrix( 1, 0, 0, 1, 545.45,48.3) ">
	<g>
		<path id="Layer1_49_MEMBER_19_MEMBER_6_1_STROKES" class="st24" d="M-337.5,142.1l6-6.8"/>
	</g>
</g>
<g transform="matrix( 1, 0, 0, 1, 0,0) ">
	<g>
		<g id="Layer1_49_MEMBER_20_FILL">
			<path class="st14" d="M221.8,132.1c0.1,0.6,0.1,1.1,0.1,1.6l-18.2,2.7c2.2,0.1,6.4,0,12.4-0.1c8.3-0.2,13.5-0.5,15.6-0.7l1.2-0.3
				c0.4-0.8-1.4-1.6-5.5-2.4C224.8,132.5,223,132.2,221.8,132.1z"/>
			<path class="st3" d="M216,121.8c-3.2-2.4-6.7-3.3-10.7-2.7c-3.9,0.6-7.1,2.5-9.4,5.7c-2.4,3.2-3.3,6.7-2.7,10.7
				c0.1,0.9,0.3,1.8,0.6,2.6l9.7-1.4l18.2-2.7c0-0.5,0-1.1-0.1-1.6c0-0.3-0.1-0.7-0.1-1C221.1,127.2,219.2,124.1,216,121.8z"/>
		</g>
	</g>
</g>
<g transform="matrix( 1, 0, 0, 1, 545.45,48.3) ">
	<g>
		<g id="Layer1_49_MEMBER_21_FILL">
			<path class="st26" d="M-247.8,114.5c-0.3,0.3-0.4,0.7-0.5,1.1c-0.1,4.8-2.3,8.8-6.5,12c-0.3,0.3-0.5,0.6-0.6,1
				c0,0.4,0.1,0.8,0.3,1.1c0.3,0.3,0.6,0.5,1,0.6s0.8,0,1.1-0.3c5-3.9,7.6-8.7,7.7-14.4c0-0.4-0.1-0.8-0.4-1.1
				c-0.3-0.3-0.6-0.4-1.1-0.5C-247.1,114.1-247.5,114.2-247.8,114.5z"/>
		</g>
	</g>
</g>
<g transform="matrix( 1, 0, 0, 1, 545.45,48.3) ">
	<g>
		<g id="Layer1_49_MEMBER_22_FILL">
			<path class="st26" d="M-242.7,120.9c-0.4,0.2-0.6,0.5-0.7,0.9c-0.2,0.7-0.5,1.4-1,2.1l0,0c-0.9,1.4-1.4,2-1.4,2.1
				c-0.3,0.3-0.4,0.7-0.4,1.1s0.1,0.8,0.4,1.1c0.3,0.3,0.7,0.5,1.1,0.5c0.4,0,0.8-0.2,1.1-0.5c0,0,0.6-0.8,1.8-2.5
				c0.7-1.1,1.2-2,1.4-3c0.1-0.4,0.1-0.8-0.1-1.1c-0.2-0.4-0.5-0.6-0.9-0.7C-241.9,120.6-242.3,120.8-242.7,120.9z"/>
		</g>
	</g>
</g>
<g transform="matrix( 1, 0, 0, 1, 493.75,38.35) ">
	<g>
		<g id="Layer1_49_MEMBER_23_FILL">
			<path class="st26" d="M-222.4,119.4c-0.3,0.3-0.4,0.7-0.5,1.1c-0.1,4.8-2.3,8.8-6.5,12c-0.3,0.3-0.5,0.6-0.6,1
				c0,0.4,0.1,0.8,0.3,1.1c0.3,0.3,0.6,0.5,1,0.6s0.8,0,1.1-0.3c5-3.9,7.6-8.7,7.7-14.4c0-0.4-0.1-0.8-0.4-1.1
				c-0.3-0.3-0.6-0.4-1.1-0.5C-221.7,119-222,119.1-222.4,119.4z"/>
		</g>
	</g>
</g>
<g transform="matrix( 1, 0, 0, 1, 472.25,30.2) ">
	<g>
		<g id="Layer1_49_MEMBER_24_FILL">
			<path class="st26" d="M-206.6,129.8c-0.4,0.2-0.6,0.5-0.7,0.9c-0.2,0.7-0.5,1.4-1,2.1l0,0c-0.9,1.4-1.4,2-1.4,2.1
				c-0.3,0.3-0.4,0.7-0.4,1.1s0.1,0.8,0.4,1.1c0.3,0.3,0.7,0.5,1.1,0.5c0.4,0,0.8-0.2,1.1-0.5c0,0,0.6-0.8,1.8-2.5
				c0.7-1.1,1.2-2,1.4-3c0.1-0.4,0.1-0.8-0.1-1.1c-0.2-0.4-0.5-0.6-0.9-0.7C-205.9,129.5-206.3,129.6-206.6,129.8z"/>
		</g>
	</g>
</g>
</svg>
