<?xml version="1.0" encoding="utf-8"?>
<!-- Generator: Adobe Illustrator 19.2.1, SVG Export Plug-In . SVG Version: 6.00 Build 0)  -->
<!DOCTYPE svg PUBLIC "-//W3C//DTD SVG 1.1//EN" "http://www.w3.org/Graphics/SVG/1.1/DTD/svg11.dtd">
<svg version="1.1" id="Layer_1" xmlns="http://www.w3.org/2000/svg" xmlns:xlink="http://www.w3.org/1999/xlink" x="0px" y="0px"
	 viewBox="0 0 595.3 363" style="enable-background:new 0 0 595.3 363;" xml:space="preserve">
<style type="text/css">
	.st0{fill:#FFDA83;}
	.st1{fill:#FEE3CD;}
	.st2{fill:#C0E4EE;}
	.st3{fill:#E7E7E9;}
	.st4{fill:#DC453A;}
	.st5{fill:#D3D8B7;}
	.st6{fill:#C3996C;}
	.st7{fill:#9C6A44;}
	.st8{fill:#4F4F4F;}
	.st9{fill:#BA7C4F;}
	.st10{fill:#E6E6E5;}
	.st11{fill:#465AA6;}
	.st12{fill:#383660;}
	.st13{fill:#B5B5B5;}
	.st14{fill:#475AA6;}
	.st15{fill:#F7AD92;}
	.st16{fill:#DB846E;}
	.st17{fill:#698FC7;}
	.st18{fill:none;stroke:#698FC7;stroke-width:3;stroke-miterlimit:10;}
	.st19{fill:#8C643E;}
	.st20{fill:#744E2A;}
	.st21{fill:#040505;}
	.st22{fill:#EE5A67;}
	.st23{fill:#FFFFFF;}
</style>
<g transform="matrix( 1, 0, 0, 1, 0,0) ">
	<g>
		<g id="Layer1_0_FILL">
			<path class="st0" d="M330.9,63.6c-6.5,4.9-9.8,10.9-9.8,17.9c0,5.5,2.1,10.4,6.2,14.7c-0.2,0.2-0.4,0.3-0.6,0.5
				c-1.9,1.7-2.8,3.8-2.8,6.3c0,0.8,0.1,1.5,0.3,2.2c-1.1,0.1-2.1,0.5-2.9,1.2c-0.9,0.8-1.4,1.8-1.4,3c0,1.1,0.5,2.1,1.4,2.9
				s2,1.2,3.3,1.2s2.4-0.4,3.3-1.2c0.5-0.4,0.8-0.9,1-1.4c1.4,0.7,2.9,1.1,4.6,1.1c2.6,0,4.9-0.9,6.7-2.6c1.3-1.2,2.1-2.6,2.6-4.2
				c3.7,1,7.6,1.5,11.8,1.5c9.2,0,17.1-2.5,23.6-7.4s9.8-10.9,9.8-17.9s-3.3-12.9-9.8-17.9c-6.5-4.9-14.4-7.4-23.6-7.4
				S337.4,58.7,330.9,63.6z"/>
		</g>
	</g>
</g>
<g transform="matrix( 1, 0, 0, 1, 0,0) ">
	<g>
		<g id="Layer1_1_FILL">
			<path class="st1" d="M343.5,144.3c0.6,0,1.1-0.1,1.6-0.2c0.5,1.5,1.4,2.9,2.7,4.1c2.2,2.1,4.9,3.1,8,3.1c2.7,0,5.1-0.8,7.1-2.4
				c3,2.2,6.3,3.8,10,4.8c7.9,2.3,15.1,1.3,21.5-2.8c6.4-4.2,10.2-10.3,11.4-18.5c1.2-8.1-0.6-15.9-5.4-23.3s-11.1-12.2-19.1-14.4
				c-7.9-2.3-15.1-1.3-21.5,2.8s-10.2,10.3-11.4,18.5c-0.8,5.4-0.2,10.7,1.7,15.7c-0.8,0.4-1.6,1-2.4,1.7s-1.4,1.5-1.9,2.4
				c-0.7-0.3-1.5-0.5-2.4-0.5c-1.4,0-2.6,0.4-3.6,1.3s-1.5,1.9-1.5,3.2s0.5,2.3,1.5,3.2C340.9,143.9,342.1,144.3,343.5,144.3
				 M332.7,137c0.5-0.4,0.7-1,0.7-1.6s-0.2-1.2-0.7-1.6s-1-0.6-1.7-0.6s-1.3,0.2-1.8,0.6c-0.5,0.5-0.7,1-0.7,1.6s0.2,1.2,0.7,1.6
				c0.5,0.5,1.1,0.7,1.8,0.7C331.7,137.7,332.2,137.5,332.7,137z"/>
		</g>
	</g>
</g>
<g transform="matrix( 1, 0, 0, 1, 0,0) ">
	<g>
		<g id="Layer1_2_FILL">
			<path class="st2" d="M313.3,97.9c0.6,0,1.1-0.2,1.4-0.5c0.4-0.3,0.6-0.7,0.6-1.2s-0.2-0.8-0.6-1.2c-0.4-0.3-0.9-0.5-1.4-0.5
				s-1.1,0.2-1.5,0.5s-0.6,0.7-0.6,1.2s0.2,0.8,0.6,1.2C312.3,97.7,312.8,97.9,313.3,97.9 M319.5,76.9c0-2.3-0.8-4.4-2.4-6.1
				c4-5.3,6.1-11.4,6.1-18.3c0-8.7-3.2-16.1-9.6-22.2s-14-9.2-23.1-9.2c-9,0-16.7,3.1-23.1,9.2s-9.5,13.5-9.5,22.2
				s3.2,16.1,9.5,22.2c6.4,6.1,14.1,9.2,23.1,9.2c3.8,0,7.3-0.5,10.6-1.6c0.3,0.5,0.7,0.9,1.2,1.3c1.9,1.8,4.3,2.7,7,2.8
				c-0.1,0.3-0.1,0.5-0.1,0.8c0,0.9,0.3,1.7,1,2.3c0.7,0.7,1.5,1,2.5,1s1.8-0.3,2.5-1c0.7-0.6,1-1.4,1-2.3s-0.3-1.7-1-2.3l-0.1-0.1
				c0.5-0.3,1-0.7,1.5-1.2C318.5,81.7,319.5,79.5,319.5,76.9z"/>
		</g>
	</g>
</g>
<g transform="matrix( 1, 0, 0, 1, 0,0) ">
	<g>
		<g id="Layer1_3_FILL">
			<path class="st3" d="M248.7,88.9c0.6-0.9,1.1-1.7,1.7-2.6c4.4-7.4,5.3-14.6,2.5-21.6c-2.7-7-8.2-11.7-16.6-14.1
				c-8.3-2.4-17-1.8-26,1.7c-9,3.6-15.8,9-20.2,16.4s-5.3,14.7-2.6,21.6c2.8,7,8.3,11.7,16.6,14c8.3,2.4,17,1.9,26-1.7
				c1.9-0.7,3.7-1.6,5.4-2.5c0.8,1.8,2.3,3,4.5,3.7c2.3,0.7,4.7,0.6,7.2-0.4c0.5-0.2,0.9-0.4,1.3-0.6c0,0.1,0,0.2,0.1,0.3
				c0.2,0.6,0.7,1,1.4,1.2s1.4,0.2,2.2-0.1c0.7-0.3,1.3-0.7,1.6-1.4c0.4-0.6,0.4-1.2,0.2-1.8s-0.7-1-1.4-1.2c-0.1,0-0.2,0-0.4-0.1
				c0.2-0.3,0.4-0.5,0.5-0.8c1.2-2.1,1.4-4.1,0.7-6C252.6,91,251.1,89.6,248.7,88.9C248.8,88.9,248.7,88.9,248.7,88.9z"/>
		</g>
	</g>
</g>
<g transform="matrix( 1, 0, 0, 1, 0,0) ">
	<g>
		<g id="Layer1_4_FILL">
			<path class="st4" d="M214.9,76l6.7,1.7l-11.1,19.2l18.8-21.4l-7.5-2.5l8.5-15.1l-6.4-0.4L214.9,76z"/>
		</g>
	</g>
</g>
<g transform="matrix( 1, 0, 0, 1, 0,0) ">
	<g>
		<g id="Layer1_5_FILL">
			<path class="st5" d="M249.7,137.9c0-0.8-0.3-1.5-0.8-2.1s-1.1-0.8-1.9-0.8c-0.7,0-1.4,0.3-1.9,0.8c-0.3,0.3-0.5,0.6-0.6,1
				c-1.2-0.9-2.6-1.4-4.2-1.4c1.3-5.8,1.1-11.6-0.6-17.4c-2.5-8.2-7.3-13.9-14.5-17s-14.6-2.8-22.3,1.1s-13.4,10-17.1,18.5
				c-3.7,8.5-4.3,16.9-1.9,25.2c2.4,8.2,7.3,13.9,14.4,17c7.2,3.1,14.6,2.7,22.3-1.1c6.4-3.2,11.4-8,15.1-14.4
				c1.2,0.8,2.7,1.3,4.3,1.3c2,0,3.7-0.6,5.1-1.9c1.4-1.3,2.1-2.8,2.1-4.6c0-0.4,0-0.8-0.1-1.2c0.7,0,1.3-0.3,1.7-0.9
				C249.5,139.3,249.7,138.6,249.7,137.9 M252.2,129.6c-0.5,0-0.8,0.2-1.2,0.5c-0.3,0.4-0.5,0.8-0.5,1.3s0.2,0.9,0.5,1.3
				s0.7,0.6,1.2,0.6s0.8-0.2,1.2-0.6c0.3-0.3,0.5-0.8,0.5-1.3s-0.2-1-0.5-1.3C253,129.9,252.7,129.6,252.2,129.6z"/>
		</g>
	</g>
</g>
<g transform="matrix( 1, 0, 0, 1, 0,0) ">
	<g>
		<g id="Layer1_6_FILL">
			<path class="st0" d="M492.2,316.2c0-5.6-19-10.4-57.1-14.4s-84-5.9-137.9-5.9s-99.8,2-137.9,5.9c-38.1,4-57.1,8.8-57.1,14.4
				s19,10.4,57.1,14.3c38.1,4,84.1,6,137.9,6c53.9,0,99.9-2,137.9-6C473.1,326.6,492.2,321.9,492.2,316.2z"/>
		</g>
	</g>
</g>
<g transform="matrix( 1, 0, 0, 1, 0,0) ">
	<g>
		<g id="Layer1_7_FILL">
			<path class="st6" d="M360.5,218.9c0-0.8-0.4-1.2-1.2-1.2h-46.2c-0.8,0-1.2,0.4-1.2,1.2v53.6c0,0.8,0.4,1.2,1.2,1.2h46.2
				c0.8,0,1.2-0.4,1.2-1.2V218.9z"/>
		</g>
	</g>
</g>
<g transform="matrix( 1, 0, 0, 1, 0,0) ">
	<g>
		<g id="Layer1_8_MEMBER_0_FILL">
			<path class="st7" d="M322.9,273.6c-0.6,0-0.9,0.4-0.9,1.2v30.8c0,0.8,0.3,1.2,0.9,1.2h59.8c0.6,0,0.9-0.4,0.9-1.2v-30.8
				c0-0.8-0.3-1.2-0.9-1.2H322.9z"/>
		</g>
	</g>
</g>
<g transform="matrix( 1, 0, 0, 1, 0,0) ">
	<g>
		<g id="Layer1_8_MEMBER_1_FILL">
			<path class="st8" d="M359.6,300.7h2.5v4.7h3.5v-4.6h2.6l-4.3-4.9L359.6,300.7z"/>
		</g>
	</g>
</g>
<g transform="matrix( 1, 0, 0, 1, 0,0) ">
	<g>
		<g id="Layer1_8_MEMBER_2_FILL">
			<path class="st8" d="M371.6,300.7v4.7h3.5v-4.6h2.6l-4.3-4.9l-4.3,4.9h2.5L371.6,300.7L371.6,300.7z"/>
		</g>
	</g>
</g>
<g transform="matrix( 1, 0, 0, 1, 0,0) ">
	<g>
		<g id="Layer1_8_MEMBER_3_FILL">
			<path class="st8" d="M356.2,294.6h-2.6c-0.4,0-0.6,0.2-0.6,0.6v5.1c0,0.4,0.2,0.6,0.6,0.6h0.7v3.5h-1c-0.1,0-0.3,0.1-0.4,0.2
				s-0.2,0.2-0.2,0.4c0,0.1,0.1,0.3,0.2,0.4s0.2,0.2,0.4,0.2h3.4c0.2,0,0.3-0.1,0.4-0.2s0.2-0.2,0.2-0.4s-0.1-0.3-0.2-0.4
				s-0.2-0.2-0.4-0.2h-1v-3.5h0.5c0.4,0,0.6-0.2,0.6-0.6v-5.1C356.8,294.9,356.6,294.6,356.2,294.6z"/>
		</g>
	</g>
</g>
<g transform="matrix( 1, 0, 0, 1, 0,0) ">
	<g>
		<g id="Layer1_9_FILL">
			<path class="st9" d="M268.4,252c-0.8,0-1.2,0.4-1.2,1.2v56c0,0.8,0.4,1.2,1.2,1.2h59.1c0.8,0,1.2-0.4,1.2-1.2v-56
				c0-0.8-0.4-1.2-1.2-1.2H268.4L268.4,252z"/>
		</g>
	</g>
</g>
<g transform="matrix( 1, 0, 0, 1, 0,0) ">
	<g>
		<g id="Layer1_10_MEMBER_0_MEMBER_0_FILL">
			<path class="st6" d="M247.2,309.6v-44.4c0-0.6-0.3-0.9-0.9-0.9h-53.5c-0.6,0-0.9,0.3-0.9,0.9v44.4c0,0.6,0.3,0.9,0.9,0.9h53.5
				C246.9,310.6,247.2,310.2,247.2,309.6z"/>
		</g>
	</g>
</g>
<g transform="matrix( 1, 0, 0, 1, 0,0) ">
	<g>
		<g id="Layer1_10_MEMBER_0_MEMBER_1_FILL">
			<path class="st8" d="M198.5,301.6v6.8h5.1v-6.7h3.8l-6.2-7.1l-6.2,7L198.5,301.6L198.5,301.6z"/>
		</g>
	</g>
</g>
<g transform="matrix( 1, 0, 0, 1, 0,0) ">
	<g>
		<g id="Layer1_10_MEMBER_0_MEMBER_2_FILL">
			<path class="st8" d="M207.4,301.6h3.6v6.8h5.1v-6.7h3.8l-6.2-7.1L207.4,301.6z"/>
		</g>
	</g>
</g>
<g transform="matrix( 0.649658203125, 0, 0, 0.649658203125, 440.55,218.55) ">
	<g>
		<g id="Layer1_11_MEMBER_0_MEMBER_0_FILL">
			<path class="st10" d="M-205.7-38.1c0-0.7-0.2-1.3-0.7-1.7c-0.5-0.5-1.1-0.7-1.8-0.7s-1.3,0.2-1.8,0.7s-0.7,1-0.7,1.7
				s0.2,1.3,0.7,1.8s1.1,0.7,1.8,0.7s1.3-0.2,1.8-0.7C-206-36.8-205.7-37.4-205.7-38.1z"/>
		</g>
	</g>
</g>
<g transform="matrix( -0.638092041015625, -0.12298583984375, -0.12298583984375, 0.638092041015625, 993.2,267.85) ">
	<g>
		<g id="Layer1_11_MEMBER_0_MEMBER_1_FILL">
			<path class="st11" d="M1106.8,213.2c-2.2,0-4.1,0.8-5.7,2.3c-1.6,1.6-2.4,3.5-2.4,5.7v56.9c0,2.2,0.8,4.1,2.4,5.7
				s3.4,2.3,5.7,2.3c2.2,0,4.1-0.8,5.7-2.3c1.6-1.6,2.3-3.5,2.3-5.7v-56.9c0-2.2-0.8-4.1-2.3-5.7
				C1111,214,1109.1,213.2,1106.8,213.2z"/>
		</g>
	</g>
</g>
<g transform="matrix( 0.638092041015625, 0.12298583984375, -0.12298583984375, 0.638092041015625, 493.3,173.4) ">
	<g>
		<g id="Layer1_11_MEMBER_0_MEMBER_2_FILL">
			<path class="st12" d="M-324.3,88.5c-2.5,0-4.6,0.9-6.4,2.6c-1.8,1.8-2.6,3.9-2.6,6.4l0,172.6h20.7l0-172.6c0-2.5-0.9-4.6-2.7-6.4
				c-1.8-1.8-3.9-2.6-6.4-2.6L-324.3,88.5L-324.3,88.5z"/>
		</g>
	</g>
</g>
<g transform="matrix( -0.5673828125, -0.3160400390625, -0.3160400390625, 0.5673828125, 1100.75,390.25) ">
	<g>
		<g id="Layer1_11_MEMBER_0_MEMBER_3_FILL">
			<path class="st13" d="M1192.4,521.5c-0.4,0.3-0.6,0.7-0.6,1.2v9.8h48.5v-1c0-0.9-0.3-1.7-0.8-2.4c-0.6-0.7-1.3-1.2-2.1-1.4
				l-25.8-6.7c-1.2-0.3-2.4-0.3-3.6,0c-5.3,1.4-10.1,1.5-14.2,0.2C1193.2,521.1,1192.8,521.2,1192.4,521.5z"/>
		</g>
	</g>
</g>
<g transform="matrix( -0.5673828125, -0.3160400390625, -0.3160400390625, 0.5673828125, 1100.75,390.25) ">
	<g>
		<g id="Layer1_11_MEMBER_0_MEMBER_4_FILL">
			<path class="st8" d="M1192.7,534.7c0.6,0.6,1.3,0.9,2.1,0.9h44c0.4,0,0.8-0.1,1.1-0.4c0.3-0.3,0.4-0.7,0.4-1.1v-1.5h-48.5v0.1
				C1191.8,533.4,1192.1,534.1,1192.7,534.7z"/>
		</g>
	</g>
</g>
<g transform="matrix( 0.649658203125, 0, 0, 0.649658203125, 440.55,218.55) ">
	<g>
		<g id="Layer1_11_MEMBER_0_MEMBER_5_FILL">
			<path class="st11" d="M-209.8,83.5c-1.6-1.6-3.5-2.3-5.7-2.3s-4.1,0.8-5.7,2.3c-1.6,1.6-2.4,3.5-2.4,5.7v56.9
				c0,2.2,0.8,4.1,2.4,5.7c1.6,1.6,3.4,2.3,5.7,2.3c2.2,0,4.1-0.8,5.7-2.3c1.6-1.6,2.3-3.5,2.3-5.7V89.2
				C-207.5,87-208.3,85.1-209.8,83.5z"/>
		</g>
	</g>
</g>
<g transform="matrix( 0.649658203125, 0, 0, 0.649658203125, 440.55,218.55) ">
	<g>
		<g id="Layer1_11_MEMBER_0_MEMBER_6_FILL">
			<path class="st12" d="M-207.7-39.8c-1.8-1.8-3.9-2.6-6.4-2.6h-2.6c-2.5,0-4.6,0.9-6.4,2.6c-1.8,1.8-2.6,3.9-2.6,6.4v172.6h20.7
				V-33.4C-205.1-35.9-205.9-38-207.7-39.8z"/>
		</g>
	</g>
</g>
<g transform="matrix( 0.649658203125, 0, 0, 0.649658203125, 440.55,218.55) ">
	<g>
		<g id="Layer1_11_MEMBER_0_MEMBER_7_FILL">
			<path class="st13" d="M-224.5,144c-0.4,0.3-0.6,0.7-0.6,1.2v9.8h48.5v-1c0-0.9-0.3-1.7-0.8-2.4c-0.6-0.7-1.3-1.2-2.1-1.4
				l-25.8-6.7c-1.2-0.3-2.4-0.3-3.6,0c-5.4,1.4-10.1,1.5-14.2,0.2C-223.6,143.6-224,143.7-224.5,144z"/>
		</g>
	</g>
</g>
<g transform="matrix( 0.649658203125, 0, 0, 0.649658203125, 440.55,218.55) ">
	<g>
		<g id="Layer1_11_MEMBER_0_MEMBER_8_FILL">
			<path class="st8" d="M-224.2,157.1c0.6,0.6,1.3,0.9,2.1,0.9h44c0.4,0,0.8-0.1,1.1-0.4c0.3-0.3,0.4-0.7,0.4-1.1V155H-225v0.1
				C-225,155.9-224.7,156.6-224.2,157.1z"/>
		</g>
	</g>
</g>
<g transform="matrix( 0.649658203125, 0, 0, 0.649658203125, 440.55,218.55) ">
	<g>
		<g id="Layer1_11_MEMBER_0_MEMBER_9_FILL">
			<path class="st12" d="M-204.3-50.2l-59.1-0.5l-0.4,19c0,2.8,1,5.2,2.9,7.2c2,2,4.4,3,7.2,3l38.8,0.3c2.8,0,5.2-1,7.2-2.9
				c2-2,3-4.4,3-7.2L-204.3-50.2z"/>
		</g>
	</g>
</g>
<g transform="matrix( 0.642181396484375, -0.0988922119140625, 0.0988922119140625, 0.642181396484375, 658.8,342.65) ">
	<g transform="matrix( 1, 0, 0, 1, 0,0) ">
		<g>
			<g id="_VisiTeli_V2_ai_Layer_1__Clip_Group__0_copy_0_Layer3_0_FILL">
				<path class="st14" d="M-496.1-440.2c-2.9-2.9-6.5-4.4-10.6-4.4h-41.6c-4,0-7.4,1.4-10.3,4.2c-2.9,2.8-4.3,6.3-4.3,10.3l0,111.9
					h71.1l0-111.3C-491.7-433.7-493.2-437.2-496.1-440.2z"/>
			</g>
		</g>
	</g>
</g>
<g transform="matrix( 0.0160980224609375, -0.649444580078125, 0.649444580078125, 0.0160980224609375, 479.85,652.25) ">
	<g>
		<g id="Layer1_11_MEMBER_0_MEMBER_11_MEMBER_0_FILL">
			<path class="st15" d="M754.8-344.7c-0.1-1.8-0.8-3.3-2.2-4.5c-1.3-1.2-2.9-1.7-4.6-1.6c-1.8,0.1-3.2,0.8-4.4,2.2
				c-1.2,1.3-1.7,2.9-1.6,4.6l2.7,55.3c0.1,1.8,0.8,3.3,2.2,4.5c1.3,1.2,2.9,1.7,4.6,1.6c1.8-0.1,3.3-0.8,4.5-2.2
				c1.2-1.3,1.7-2.9,1.6-4.6L754.8-344.7z"/>
		</g>
	</g>
</g>
<g transform="matrix( 0.614410400390625, -0.210418701171875, 0.210418701171875, 0.614410400390625, 390.25,308.55) ">
	<g>
		<g id="Layer1_11_MEMBER_0_MEMBER_11_MEMBER_1_FILL">
			<path class="st15" d="M-102.3-339.5c-1.8,0-3.3,0.5-4.6,1.8c-1.3,1.2-2,2.7-2,4.5l-2.1,55.3c0,1.8,0.5,3.3,1.8,4.6
				c1.2,1.3,2.7,2,4.5,2s3.3-0.5,4.6-1.8c1.3-1.2,2-2.7,2-4.5l2.1-55.3c0-1.8-0.5-3.3-1.8-4.6C-99-338.8-100.5-339.5-102.3-339.5z"
				/>
		</g>
	</g>
</g>
<g transform="matrix( 0.614410400390625, -0.210418701171875, 0.210418701171875, 0.614410400390625, 651.2,353) ">
	<g transform="matrix( 1, 0, 0, 1, 0,0) ">
		<g>
			<g id="_VisiTeli_V2_ai_Layer_1__Clip_Group__1_copy_0_Layer3_0_FILL">
				<path class="st14" d="M-465.5-539.3c-1.6,1.5-2.5,3.4-2.6,5.6l-1.6,40.4l16.2,0.6l1.6-40.4c0.1-2.2-0.6-4.1-2.2-5.8
					c-1.5-1.6-3.4-2.5-5.6-2.6C-462-541.6-463.9-540.8-465.5-539.3z"/>
			</g>
		</g>
	</g>
</g>
<g transform="matrix( 0.614410400390625, -0.210418701171875, 0.210418701171875, 0.614410400390625, 390.25,308.55) ">
	<g>
		<g id="Layer1_11_MEMBER_0_MEMBER_11_MEMBER_3_FILL">
			<path class="st14" d="M-85.1-344.8c-2.9-2.9-6.4-4.3-10.4-4.3c-4.1,0-7.5,1.4-10.4,4.3s-4.3,6.3-4.3,10.4c0,4.1,1.4,7.6,4.3,10.4
				c2.9,2.9,6.3,4.3,10.4,4.3c4.1,0,7.6-1.4,10.4-4.3c2.9-2.9,4.3-6.4,4.3-10.4C-80.8-338.4-82.3-341.9-85.1-344.8z"/>
		</g>
	</g>
</g>
<g transform="matrix( 0.0160980224609375, -0.649444580078125, 0.649444580078125, 0.0160980224609375, 479.85,652.25) ">
	<g>
		<g id="Layer1_11_MEMBER_0_MEMBER_11_MEMBER_4_FILL">
			<path class="st16" d="M754.4-279.5l3.1,1.9c2.4,0.9,4.2,0.5,5.6-1.2c-0.9-1.3-2.1-3.5-3.6-6.6l-2-4.3L754.4-279.5z"/>
		</g>
	</g>
</g>
<g transform="matrix( 0.0160980224609375, -0.649444580078125, 0.649444580078125, 0.0160980224609375, 479.85,652.25) ">
	<g>
		<g id="Layer1_11_MEMBER_0_MEMBER_11_MEMBER_5_FILL">
			<path class="st15" d="M757.5-290.7l-12.9-1l-0.4,13.1l3,4.6c2.2,3.2,4,5.3,5.3,6.2c1.6,1.1,3.7,1.8,6.3,2.2
				c1.7,0.3,3.1,0.4,4.3,0.3s0.7-2.2-1.6-6.3l-3.8-6.2L757.5-290.7z"/>
		</g>
	</g>
</g>
<g transform="matrix( 0.6422882080078125, -0.098480224609375, 0.098480224609375, 0.6422882080078125, 403.65,260.25) ">
	<g>
		<g id="Layer1_11_MEMBER_0_MEMBER_12_FILL">
			<path class="st17" d="M-154-251.8c1.9-1.2,2.8-2.7,2.8-4.4c0-1.7-0.9-3.2-2.8-4.4c-1.9-1.2-4.1-1.8-6.8-1.8s-4.9,0.6-6.8,1.8
				c-1.9,1.2-2.8,2.7-2.8,4.4c0,1.7,0.9,3.2,2.8,4.4s4.1,1.8,6.8,1.8S-155.8-250.6-154-251.8z"/>
		</g>
	</g>
</g>
<g transform="matrix( 0.6229400634765625, -0.1844329833984375, 0.1844329833984375, 0.6229400634765625, 394,299.9) ">
	<g>
		<g id="Layer1_11_MEMBER_0_MEMBER_13_FILL">
			<path class="st15" d="M-88.7-343.4c0-1.5-0.5-2.7-1.4-3.7c-1-1-2.1-1.5-3.5-1.5h-0.1c-1.4,0-2.5,0.6-3.5,1.5
				c-1,1-1.5,2.3-1.5,3.7v11.3c0,2.5,1.7,3.8,5.1,3.8h0.1c3.3,0,5-1.3,5-3.8l0-11.3H-88.7z"/>
		</g>
	</g>
</g>
<g transform="matrix( 0.647552490234375, -0.0419769287109375, 0.0419769287109375, 0.647552490234375, 408.5,236.5) ">
	<g>
		<g id="Layer1_11_MEMBER_0_MEMBER_14_FILL">
			<path class="st15" d="M-209.9-256.4c-4.4,6-5.9,12.9-4.5,20.7c1.5,8.3,4.4,14.7,8.9,19.4c5,5.3,11.4,7.7,19.3,7.3
				c6.8-1.5,11.7-6.3,14.7-14.4c2.4-6.3,3.3-12.8,2.8-19.6c-0.6-7.9-3-13.6-7.3-17.2c-3.9-3.3-9.8-4.9-17.5-4.9
				C-200.1-265.1-205.6-262.2-209.9-256.4z"/>
		</g>
	</g>
</g>
<g transform="matrix( 0.6464996337890625, -0.06439208984375, 0.06439208984375, 0.6464996337890625, 407.8,241.3) ">
	<g>
		<g id="Layer1_11_MEMBER_0_MEMBER_15_MEMBER_0_FILL">
			<path class="st15" d="M-147.9-210.7c-1.3-1.2-2.8-1.8-4.6-1.8s-3.3,0.7-4.5,2c-1.2,1.3-1.8,2.8-1.8,4.6l2.1,55.3
				c0,1.8,0.7,3.3,2,4.5s2.8,1.8,4.6,1.8s3.3-0.7,4.5-2s1.8-2.8,1.8-4.6l-2.1-55.3C-146-208-146.6-209.5-147.9-210.7z"/>
		</g>
	</g>
</g>
<g transform="matrix( 0.6464996337890625, -0.06439208984375, 0.06439208984375, 0.6464996337890625, 720.15,340.95) ">
	<g>
		<g id="Layer1_11_MEMBER_0_MEMBER_15_MEMBER_1_FILL">
			<path class="st14" d="M-605.9-408.7c-0.1-2.2-0.9-4.1-2.6-5.6c-1.6-1.5-3.6-2.3-5.8-2.2c-2.2,0.1-4.1,0.9-5.6,2.6
				c-1.5,1.6-2.3,3.6-2.2,5.8l1.6,40.4l16.2-0.6L-605.9-408.7z"/>
		</g>
	</g>
</g>
<g transform="matrix( 0.6464996337890625, -0.06439208984375, 0.06439208984375, 0.6464996337890625, 407.8,241.3) ">
	<g>
		<g id="Layer1_11_MEMBER_0_MEMBER_15_MEMBER_2_FILL">
			<path class="st14" d="M-159.2-222.1c-4.1,0-7.6,1.4-10.4,4.3c-2.9,2.9-4.3,6.3-4.3,10.4c0,4.1,1.4,7.6,4.3,10.4
				c2.9,2.9,6.4,4.3,10.4,4.3c4.1,0,7.5-1.4,10.4-4.3c2.9-2.9,4.3-6.4,4.3-10.4c0-4.1-1.4-7.5-4.3-10.4
				C-151.7-220.6-155.1-222.1-159.2-222.1z"/>
		</g>
	</g>
</g>
<g transform="matrix( -0.6042022705078125, 0.23651123046875, -0.23651123046875, -0.6042022705078125, 1095.9,480.9) ">
	<g>
		<g id="Layer1_11_MEMBER_0_MEMBER_15_MEMBER_3_FILL">
			<path class="st16" d="M956.9,983.3c1.1-0.6,2.1-1.4,2.9-2.3l-4.3-9.8c-1.7,5.5-3.1,9.4-4.2,11.6
				C952.8,984.3,954.7,984.5,956.9,983.3z"/>
		</g>
	</g>
</g>
<g transform="matrix( -0.6042022705078125, 0.23651123046875, -0.23651123046875, -0.6042022705078125, 1095.9,480.9) ">
	<g>
		<g id="Layer1_11_MEMBER_0_MEMBER_15_MEMBER_4_FILL">
			<path class="st15" d="M968,967.7l-12.7,2.6l1.4,12.9l-3,6.6c-1.7,4.4-2,6.5-0.8,6.4c1.3-0.1,2.7-0.4,4.3-0.9c2.5-0.7,4.5-1.7,6-3
				c1.2-1.1,2.7-3.3,4.5-6.8c0.9-1.7,1.7-3.4,2.3-4.9L968,967.7z"/>
		</g>
	</g>
</g>
<g transform="matrix( 0.6464996337890625, -0.06439208984375, 0.06439208984375, 0.6464996337890625, 407.8,241.3) ">
	<g transform="matrix( 1.531585693359375, 0.1525421142578125, -0.1525421142578125, 1.531585693359375, -587.8,-431.75) ">
		<path id="Layer1_11_MEMBER_0_MEMBER_15_MEMBER_5_1_STROKES" class="st18" d="M-181.8-38.5l-16.2,0.7"/>
	</g>
</g>
<g transform="matrix( -0.6042022705078125, 0.23651123046875, -0.23651123046875, -0.6042022705078125, 1095.9,480.9) ">
	<g>
		<g id="Layer1_11_MEMBER_0_MEMBER_15_MEMBER_6_FILL">
			<path class="st15" d="M952.8,911.7c-1.2,1.3-1.7,2.9-1.6,4.6l4.2,55.2c0.1,1.8,0.9,3.2,2.2,4.4s2.9,1.7,4.7,1.6
				c1.8-0.1,3.2-0.9,4.4-2.2c1.2-1.4,1.7-2.9,1.6-4.7l-4.2-55.2c-0.1-1.8-0.9-3.2-2.2-4.4s-2.9-1.7-4.6-1.6
				C955.4,909.6,954,910.4,952.8,911.7z"/>
		</g>
	</g>
</g>
<g transform="matrix( 0.647552490234375, -0.0419769287109375, 0.0419769287109375, 0.647552490234375, 408.5,236.5) ">
	<g>
		<g id="Layer1_11_MEMBER_0_MEMBER_16_FILL">
			<path class="st19" d="M-175.8-267.6c-1.4-1-3.3-2.1-5.5-3c-4.5-1.9-8.7-2.8-12.7-2.4c-6.3,0.5-11.5,2.5-15.7,5.9
				c-1.3,1.1-2.4,2.2-3.4,3.5l-1,1.5c-0.5-0.2-1.1-0.4-1.9-0.6c-1.6-0.4-3.1-0.6-4.6-0.5c1.3,1.5,2.1,2.5,2.4,2.9
				c0.7,1,1.2,2.2,1.6,3.6c-1.3,3.3-1.8,8.2-1.4,14.7c0.5-0.4,0.9-0.6,1.4-0.8c0.6-0.2,1.3-0.2,2.1-0.1l0.6,0.1l0,0l0.8,0.3l1.1,0.6
				l1,0.8v0.1l0.2,0.2l0.1,0.1l0,0l0,0l0,0v7.4c0,1.1,0.3,1.9,0.8,2.5l0.3,0.4c0.2,0.1,0.5,0.3,1,0.4c0.5,0.2,0.9,0.2,1.3,0.2
				c1,0,1.9-0.3,2.7-1s1.2-1.5,1.2-2.5v-2.6c0-1,0.3-1.9,1-2.6c0.7-0.7,1.5-1.1,2.5-1.2l0.7-0.1c0-2.3,0-4.6,0-6.9
				c0-1,0.3-1.8,0.8-2.3c0.7-0.6,2-1,3.9-1.2h0.1l1.1-0.1l21.2-0.1l0.2-0.1c0.8-0.2,1.5-0.5,2.3-1c1.3-0.7,2.2-1.5,2.8-2.5
				c0.6-0.9,0.9-1.8,1-2.7v-1h-5.2l1-1.1c0.7-1,1.3-2.1,1.7-3.4s0.8-2.6,1-4l0.2-1.7h-8.7L-175.8-267.6L-175.8-267.6z"/>
		</g>
	</g>
</g>
<g transform="matrix( 0.647552490234375, -0.0419769287109375, 0.0419769287109375, 0.647552490234375, 408.5,236.5) ">
	<g>
		<g id="Layer1_11_MEMBER_0_MEMBER_17_FILL">
			<path class="st20" d="M-173.2-251.9h-0.2c-2.3,0.4-9,1-19.9,1.8l21.1-0.1l0.2-0.1c0.8-0.2,1.5-0.5,2.3-1c1.3-0.7,2.2-1.5,2.8-2.5
				c0.6-0.9,0.9-1.8,1-2.7v-1c-0.7,0.8-1.6,1.7-2.6,2.6C-170.4-253.1-172-252.2-173.2-251.9z"/>
		</g>
	</g>
</g>
<g transform="matrix( 0.959808349609375, 0.2792205810546875, -0.2792205810546875, 0.959808349609375, 275.75,-118.6) ">
	<g>
		<g id="Layer1_11_MEMBER_0_MEMBER_18_MEMBER_0_FILL">
			<path class="st19" d="M67.7,193.7c0.1-0.1,0.1-0.3,0-0.4c0-0.2-0.2-0.3-0.3-0.3c-0.2,0-0.6-0.1-1.3-0.1s-1.4,0.2-2.1,0.6
				c-0.6,0.5-1,0.8-1.1,1s-0.1,0.4,0,0.6c0,0.2,0.2,0.3,0.3,0.4s0.3,0.1,0.5,0c0.8-1,2-1.5,3.7-1.3C67.6,194,67.7,193.9,67.7,193.7z
				"/>
		</g>
	</g>
</g>
<g transform="matrix( 0.63861083984375, 0.118255615234375, -0.118255615234375, 0.63861083984375, 434.7,169.25) ">
	<g>
		<g id="Layer1_11_MEMBER_0_MEMBER_19_MEMBER_0_FILL">
			<path class="st19" d="M-269.3-76.6c0.2,0.2,0.4,0.3,0.7,0.2l5.9-0.3c0.3,0,0.5-0.1,0.7-0.3c0.2-0.2,0.3-0.4,0.2-0.7
				c0-0.2-0.1-0.4-0.3-0.6c-0.2-0.2-0.4-0.3-0.6-0.3l-6.1,0.3c-0.3,0-0.5,0.1-0.7,0.3c-0.2,0.2-0.3,0.4-0.2,0.7
				C-269.6-77-269.5-76.8-269.3-76.6z"/>
		</g>
	</g>
</g>
<g transform="matrix( 0.647552490234375, -0.0419769287109375, 0.0419769287109375, 0.647552490234375, 410.9,235.45) ">
	<g>
		<g id="Layer1_11_MEMBER_0_MEMBER_20_FILL">
			<path class="st21" d="M-195.2-234.7c0,0.4,0.1,0.7,0.4,1c0.2,0.2,0.6,0.4,0.9,0.4c0.4,0,0.7-0.1,1-0.4c0.2-0.3,0.4-0.6,0.4-1
				s-0.1-0.7-0.4-0.9c-0.3-0.3-0.6-0.4-1-0.4c-0.4,0-0.7,0.1-0.9,0.4C-195.1-235.3-195.2-235-195.2-234.7z"/>
		</g>
	</g>
</g>
<g transform="matrix( 0.647552490234375, -0.0419769287109375, 0.0419769287109375, 0.647552490234375, 410.9,234.75) ">
	<g>
		<g id="Layer1_11_MEMBER_0_MEMBER_21_FILL">
			<path class="st21" d="M-181.1-233.8c0,0.4,0.1,0.7,0.4,1c0.2,0.2,0.6,0.4,0.9,0.4c0.4,0,0.7-0.1,1-0.4c0.2-0.3,0.4-0.6,0.4-1
				s-0.1-0.7-0.4-0.9c-0.3-0.3-0.6-0.4-1-0.4s-0.7,0.1-0.9,0.4C-180.9-234.5-181.1-234.1-181.1-233.8z"/>
		</g>
	</g>
</g>
<g transform="matrix( 0.647552490234375, -0.0419769287109375, 0.0419769287109375, 0.647552490234375, 408.5,236.5) ">
	<g>
		<g id="Layer1_11_MEMBER_0_MEMBER_22_FILL">
			<path class="st20" d="M-168.3-262.1c0.6-1.7,1-3.6,1.1-5.5c-0.6,1.3-1.3,2.6-2.2,4c-1.9,2.9-3.8,4.7-5.8,5.5
				c-1.7,0.7-6.1,1.3-13.2,1.7l-10.3,0.5l2,0.6c1.6,0.4,2.9,0.7,4,0.8c2.5,0.3,6,0.3,10.5,0c6.3-0.4,10-1.4,11.2-3
				C-169.9-258.8-169-260.3-168.3-262.1z"/>
		</g>
	</g>
</g>
<g transform="matrix( 0.6474456787109375, -0.0419769287109375, 0.0419769287109375, 0.6474456787109375, 410.9,236.5) ">
	<g>
		<g id="Layer1_11_MEMBER_0_MEMBER_23_MEMBER_0_FILL">
			<path class="st15" d="M-221.7-238.7c1.7,4.6,2.6,6.9,2.6,7c1.3,2.7,2.5,3.3,3.7,2c2.3-2.7,3.6-6.2,3.7-10.7
				c-0.1-0.2-0.3-0.5-0.6-0.9c-0.5-0.7-1.2-1.4-2.1-2c-2.2-1.5-4.2-1.8-5.9-0.8C-222.1-242.9-222.6-241.2-221.7-238.7z"/>
		</g>
	</g>
</g>
<g transform="matrix( 0.6474456787109375, -0.0419769287109375, 0.0419769287109375, 0.6474456787109375, 410.9,236.5) ">
	<g>
		<g id="Layer1_11_MEMBER_0_MEMBER_23_MEMBER_1_FILL">
			<path class="st16" d="M-217.7-239.4l2.8-0.4l-5.5-1l4.2,7.6L-217.7-239.4z"/>
		</g>
	</g>
</g>
<g transform="matrix( 0.647552490234375, -0.0419769287109375, 0.0419769287109375, 0.647552490234375, 408.5,236.5) ">
	<g>
		<g id="Layer1_11_MEMBER_0_MEMBER_24_FILL">
			<path class="st16" d="M-185.4-225.5l2.5-0.6l-2.3-11L-185.4-225.5z"/>
		</g>
	</g>
</g>
<g transform="matrix( 0.9599151611328125, 0.2792205810546875, -0.2792205810546875, 0.9599151611328125, 274.75,-115.3) ">
	<g>
		<g id="Layer1_11_MEMBER_0_MEMBER_25_FILL">
			<path class="st16" d="M69.7,204.3c-0.1-0.1-0.3-0.1-0.5-0.1c-0.8,0.1-1.6,0.5-2.4,1.3l0,0c-0.7,0.6-1.3,1.2-2,1.7l0,0
				c-0.6,0.5-1.3,0.7-2.1,0.7s-1.4-0.1-1.8-0.4c-0.1-0.1-0.3-0.1-0.5-0.1s-0.3,0.1-0.4,0.3c-0.1,0.1-0.1,0.3-0.1,0.5
				s0.1,0.3,0.3,0.4c0.6,0.4,1.4,0.6,2.5,0.6l0,0c1.1,0,2-0.3,2.8-1l0,0c0.7-0.5,1.4-1.1,2.1-1.8l0,0c0.6-0.5,1.2-0.8,1.8-0.9
				c0.2,0,0.3-0.1,0.4-0.2c0.1-0.1,0.1-0.3,0.1-0.5C69.9,204.5,69.8,204.4,69.7,204.3z"/>
		</g>
	</g>
</g>
<g transform="matrix( 1, 0, 0, 1, 0,0) ">
	<g>
		<g id="Layer1_12_FILL">
			<path class="st22" d="M298.9,40.2l-1.2-0.3c-0.8-0.2-1.3,0.2-1.5,1l-2.8,12.9c-0.2,0.8,0.2,1.3,1,1.4l1.2,0.3
				c0.8,0.2,1.3-0.2,1.4-1l2.8-12.9C300,40.9,299.7,40.4,298.9,40.2 M288.4,55.2c-0.3-0.1-0.6,0-0.9,0.2s-0.5,0.4-0.5,0.7l-0.2,0.9
				c-0.1,0.3,0,0.6,0.2,0.9s0.4,0.5,0.8,0.6l0.9,0.2c0.3,0.1,0.6,0,1-0.2c0.3-0.2,0.4-0.4,0.5-0.7l0.2-0.9c0.1-0.3,0-0.6-0.2-0.9
				s-0.5-0.5-0.8-0.6L288.4,55.2 M294.4,56.5c-0.3-0.1-0.6,0-0.9,0.2s-0.5,0.5-0.6,0.8l-0.2,0.9c-0.1,0.3,0,0.6,0.2,0.9
				s0.4,0.5,0.7,0.6l0.9,0.2c0.3,0.1,0.6,0,0.9-0.2s0.5-0.5,0.6-0.8l0.2-0.9c0.1-0.3,0-0.6-0.2-0.9s-0.5-0.5-0.8-0.6L294.4,56.5
				 M282.3,53.9c-0.3-0.1-0.6,0-0.9,0.2s-0.5,0.4-0.6,0.7l-0.2,0.9c-0.1,0.3,0,0.6,0.2,0.9s0.4,0.5,0.7,0.5l0.9,0.2
				c0.3,0.1,0.6,0,0.9-0.2s0.5-0.5,0.6-0.8l0.2-0.9c0.1-0.3,0-0.6-0.2-0.9s-0.5-0.5-0.8-0.6L282.3,53.9 M292.9,38.9l-1.2-0.2
				c-0.8-0.2-1.3,0.1-1.4,0.9l-2.8,12.9c-0.2,0.8,0.2,1.3,1,1.5l1.2,0.2c0.8,0.2,1.3-0.1,1.4-0.9l2.8-12.9
				C294,39.5,293.7,39.1,292.9,38.9 M285.7,37.3c-0.8-0.2-1.3,0.2-1.4,1l-2.8,12.9c-0.2,0.8,0.2,1.3,1,1.4l1.2,0.3
				c0.8,0.2,1.3-0.2,1.4-1l2.8-12.9c0.2-0.8-0.2-1.3-1-1.4L285.7,37.3z"/>
		</g>
	</g>
</g>
<g transform="matrix( 1, 0, 0, 1, 0,0) ">
	<g>
		<g id="Layer1_13_FILL">
			<path class="st9" d="M216.2,136.5l-0.3,0.1c-0.3,0.1-0.6,0.3-0.8,0.6s-0.2,0.6-0.2,1l1.6,6.1c0.1,0.3,0.3,0.6,0.5,0.7
				c0.3,0.2,0.7,0.2,1,0.1l0.3-0.1c0.3-0.1,0.6-0.3,0.8-0.6s0.3-0.6,0.2-1l-1.6-6c-0.1-0.3-0.3-0.6-0.6-0.8
				C216.9,136.5,216.5,136.5,216.2,136.5 M204.8,134.6c-0.3-0.2-0.7-0.3-1-0.2s-0.6,0.3-0.8,0.6l-3.4,5.2c-0.2,0.3-0.3,0.6-0.2,1
				c0.1,0.3,0.2,0.6,0.6,0.8l0.2,0.2c0.3,0.2,0.7,0.3,1,0.2s0.6-0.3,0.8-0.6l3.4-5.2c0.2-0.3,0.2-0.6,0.2-0.9
				c-0.1-0.4-0.2-0.7-0.6-0.9L204.8,134.6 M201.3,120.4c-0.7,0.7-1.1,1.6-1.1,2.7c0,1,0.4,1.9,1.1,2.6c0.7,0.7,1.6,1.1,2.7,1.1
				c1,0,1.9-0.4,2.7-1.1c0.7-0.7,1.1-1.6,1.1-2.6s-0.4-1.9-1.1-2.7c-0.7-0.7-1.6-1.1-2.7-1.1C202.9,119.3,202,119.7,201.3,120.4
				 M218.3,127.7c0.7,0.7,1.6,1.1,2.7,1.1c1,0,1.9-0.4,2.6-1.1c0.8-0.7,1.1-1.6,1.1-2.6s-0.4-1.9-1.1-2.7c-0.7-0.7-1.6-1.1-2.6-1.1
				s-1.9,0.4-2.7,1.1c-0.7,0.7-1.1,1.6-1.1,2.7C217.2,126.1,217.6,127,218.3,127.7z"/>
		</g>
	</g>
</g>
<g transform="matrix( 1, 0, 0, 1, 0,0) ">
	<g>
		<g id="Layer1_13_MEMBER_0_FILL">
			<path class="st22" d="M219.1,123.6c-2.2-2.2-4.8-3.2-7.8-3.2c-3.1,0-5.7,1.1-7.9,3.2c-2.2,2.2-3.3,4.8-3.3,7.9s1.1,5.7,3.3,7.8
				c2.2,2.2,4.8,3.3,7.9,3.3c3.1,0,5.7-1.1,7.8-3.3c2.2-2.2,3.3-4.8,3.3-7.8C222.4,128.4,221.3,125.9,219.1,123.6 M211.3,122.4
				c2.5,0,4.6,0.9,6.4,2.6c1.8,1.8,2.7,3.9,2.7,6.4s-0.9,4.6-2.7,6.4c-1.7,1.8-3.9,2.6-6.4,2.6s-4.7-0.9-6.4-2.6
				c-1.8-1.8-2.6-3.9-2.6-6.4s0.9-4.7,2.6-6.4C206.6,123.3,208.8,122.4,211.3,122.4 M209.8,138.4c-0.1,0.2-0.2,0.3-0.2,0.5
				s0.1,0.3,0.2,0.5c0.2,0.1,0.3,0.2,0.5,0.2s0.3-0.1,0.5-0.2c0.1-0.1,0.2-0.3,0.2-0.5s-0.1-0.4-0.2-0.5c-0.1-0.1-0.3-0.2-0.5-0.2
				S209.9,138.2,209.8,138.4 M214.4,137.5c-0.2,0-0.4,0-0.5,0.1c-0.2,0.1-0.3,0.3-0.3,0.5s0,0.4,0.1,0.5c0.1,0.2,0.3,0.3,0.4,0.3
				c0.2,0,0.4,0,0.6-0.1c0.2-0.1,0.3-0.3,0.3-0.5c0.1-0.2,0-0.4-0.1-0.5C214.8,137.6,214.6,137.5,214.4,137.5 M217.7,135.6
				c-0.1-0.2-0.2-0.3-0.3-0.4c-0.2-0.1-0.3-0.1-0.6,0c-0.2,0.1-0.3,0.2-0.4,0.3c-0.1,0.2-0.1,0.4-0.1,0.6c0.1,0.2,0.2,0.3,0.4,0.4
				s0.3,0.1,0.5,0c0.2,0,0.4-0.2,0.5-0.3C217.7,135.9,217.8,135.9,217.7,135.6 M218.6,132c-0.1-0.1-0.3-0.2-0.5-0.2
				s-0.3,0.1-0.5,0.2c-0.1,0.1-0.2,0.3-0.2,0.5s0.1,0.3,0.2,0.5c0.1,0.1,0.3,0.2,0.5,0.2s0.3-0.1,0.5-0.2c0.1-0.1,0.2-0.3,0.2-0.5
				C218.8,132.2,218.8,132.1,218.6,132 M205.7,137.5c0.1,0.2,0.2,0.3,0.4,0.4s0.4,0.1,0.6,0.1c0.2-0.1,0.3-0.2,0.4-0.4
				c0.1-0.2,0.1-0.3,0-0.6c0-0.2-0.2-0.3-0.3-0.4c-0.2-0.1-0.4-0.1-0.6-0.1c-0.2,0.1-0.3,0.2-0.4,0.3
				C205.7,137.1,205.7,137.3,205.7,137.5 M204.5,133.6c-0.2,0-0.4,0-0.5,0.1c-0.2,0.1-0.3,0.2-0.3,0.4s0,0.4,0.1,0.6
				s0.2,0.3,0.4,0.3c0.2,0.1,0.4,0,0.6-0.1c0.2-0.1,0.3-0.3,0.3-0.5s0-0.4-0.1-0.6C204.8,133.7,204.7,133.6,204.5,133.6
				 M203.5,129.7c-0.1,0.2-0.2,0.3-0.2,0.5s0.1,0.3,0.2,0.5c0.2,0.1,0.3,0.2,0.5,0.2s0.3-0.1,0.5-0.2c0.1-0.1,0.2-0.3,0.2-0.5
				s-0.1-0.4-0.2-0.5c-0.1-0.1-0.3-0.2-0.5-0.2S203.6,129.6,203.5,129.7 M205.8,126.5c-0.2-0.1-0.4-0.1-0.6,0
				c-0.2,0-0.3,0.2-0.4,0.3c-0.1,0.2-0.1,0.3-0.1,0.6c0.1,0.2,0.2,0.3,0.4,0.4s0.3,0.1,0.5,0.1c0.2-0.1,0.4-0.2,0.5-0.3
				c0.1-0.2,0.1-0.4,0-0.5C206,126.9,205.9,126.6,205.8,126.5 M209,125.1c0-0.2,0-0.4-0.1-0.6s-0.3-0.3-0.5-0.3s-0.3,0-0.5,0.1
				s-0.3,0.3-0.4,0.5c0,0.2,0,0.4,0.1,0.6s0.2,0.3,0.4,0.3s0.4,0,0.6-0.1C208.9,125.5,209,125.3,209,125.1 M218.1,128.6
				c0-0.2,0-0.4-0.1-0.5c-0.1-0.2-0.3-0.3-0.4-0.3c-0.2,0-0.4,0-0.5,0.1s-0.2,0.2-0.3,0.4c0,0.2,0,0.4,0.1,0.5
				c0.1,0.2,0.2,0.3,0.4,0.3s0.4,0,0.5-0.1C218,129,218,128.9,218.1,128.6 M214.7,126.4c0.2,0.1,0.3,0.1,0.5,0.1
				c0.2-0.1,0.3-0.2,0.4-0.4s0.1-0.3,0-0.5c0-0.2-0.1-0.3-0.3-0.4s-0.3-0.1-0.5,0c-0.2,0-0.3,0.1-0.4,0.3c-0.1,0.2-0.1,0.4-0.1,0.6
				C214.4,126.2,214.5,126.3,214.7,126.4 M213.2,124.6c0-0.2-0.1-0.4-0.2-0.5c-0.1-0.1-0.3-0.2-0.5-0.2s-0.4,0.1-0.5,0.2
				c-0.1,0.2-0.2,0.3-0.2,0.5s0.1,0.4,0.2,0.5c0.2,0.2,0.3,0.2,0.5,0.2s0.3-0.1,0.5-0.2C213.1,124.9,213.2,124.9,213.2,124.6z"/>
			<path class="st1" d="M217.7,125.1c-1.7-1.8-3.9-2.6-6.4-2.6s-4.7,0.9-6.4,2.6c-1.8,1.8-2.6,3.9-2.6,6.4s0.9,4.6,2.6,6.4
				c1.8,1.8,3.9,2.6,6.4,2.6s4.6-0.9,6.4-2.6c1.8-1.8,2.7-3.9,2.7-6.4C220.3,129,219.5,126.9,217.7,125.1 M212.9,124
				c0.2,0.2,0.2,0.3,0.2,0.5s-0.1,0.4-0.2,0.5c-0.1,0.2-0.3,0.2-0.5,0.2s-0.4-0.1-0.5-0.2s-0.2-0.3-0.2-0.5s0.1-0.4,0.2-0.5
				c0.2-0.1,0.3-0.2,0.5-0.2C212.6,123.9,212.8,123.9,212.9,124 M215.2,126.5c-0.2,0-0.3,0-0.5-0.1s-0.3-0.2-0.3-0.4s0-0.4,0.1-0.6
				s0.2-0.3,0.4-0.3c0.2-0.1,0.4-0.1,0.5,0c0.2,0.1,0.3,0.2,0.3,0.4c0.1,0.2,0.1,0.3,0,0.5S215.4,126.4,215.2,126.5 M218,128.1
				c0.1,0.2,0.1,0.3,0.1,0.5s-0.1,0.3-0.3,0.4c-0.1,0.1-0.3,0.2-0.5,0.1c-0.2,0-0.3-0.1-0.4-0.3c-0.1-0.2-0.1-0.3-0.1-0.5
				c0.1-0.2,0.2-0.3,0.3-0.4c0.2-0.1,0.3-0.1,0.5-0.1C217.7,127.9,217.9,127.9,218,128.1 M209,124.5c0.1,0.2,0.1,0.3,0.1,0.6
				c0,0.2-0.1,0.4-0.3,0.5s-0.3,0.1-0.6,0.1c-0.2,0-0.3-0.1-0.4-0.3c-0.1-0.2-0.1-0.3-0.1-0.6c0.1-0.2,0.2-0.4,0.4-0.5
				c0.1-0.1,0.3-0.1,0.5-0.1C208.7,124.3,208.9,124.4,209,124.5 M205.2,126.5c0.2-0.1,0.4-0.1,0.6,0c0.2,0.1,0.3,0.3,0.3,0.5
				c0.1,0.2,0.1,0.3,0,0.5s-0.3,0.3-0.5,0.3c-0.2,0.1-0.4,0-0.5-0.1c-0.2-0.1-0.3-0.2-0.4-0.4c0-0.2,0-0.4,0.1-0.6
				C204.8,126.6,205,126.5,205.2,126.5 M203.3,130.2c0-0.2,0.1-0.4,0.2-0.5c0.2-0.1,0.3-0.2,0.5-0.2s0.3,0.1,0.5,0.2
				c0.1,0.2,0.2,0.3,0.2,0.5s-0.1,0.3-0.2,0.5c-0.1,0.1-0.3,0.2-0.5,0.2s-0.4-0.1-0.5-0.2S203.3,130.4,203.3,130.2 M203.9,133.7
				c0.1-0.1,0.3-0.2,0.5-0.1s0.4,0.1,0.5,0.3s0.1,0.3,0.1,0.6c0,0.2-0.1,0.4-0.3,0.5s-0.3,0.1-0.6,0.1c-0.2,0-0.3-0.1-0.4-0.3
				c-0.1-0.2-0.2-0.3-0.1-0.6C203.7,133.9,203.8,133.9,203.9,133.7 M206.1,137.9c-0.2-0.1-0.3-0.2-0.4-0.4c0-0.2,0-0.4,0.1-0.6
				s0.2-0.3,0.4-0.3c0.2-0.1,0.4,0,0.6,0.1c0.2,0.1,0.3,0.2,0.3,0.4c0.1,0.2,0.1,0.4,0,0.6s-0.2,0.3-0.4,0.4
				C206.5,138,206.3,138,206.1,137.9 M218.2,131.9c0.2,0,0.3,0.1,0.5,0.2c0.1,0.1,0.2,0.3,0.2,0.5s-0.1,0.3-0.2,0.5
				c-0.1,0.1-0.3,0.2-0.5,0.2s-0.3-0.1-0.5-0.2c-0.1-0.1-0.2-0.3-0.2-0.5s0.1-0.4,0.2-0.5C217.8,131.9,218,131.9,218.2,131.9
				 M217.4,135.1c0.2,0.1,0.3,0.2,0.3,0.4c0.1,0.2,0.1,0.4,0,0.6s-0.3,0.3-0.5,0.3c-0.2,0.1-0.4,0.1-0.5,0c-0.2-0.1-0.3-0.2-0.4-0.4
				c0-0.2,0-0.4,0.1-0.6s0.2-0.3,0.4-0.3C217,135,217.2,135,217.4,135.1 M213.9,137.5c0.2-0.1,0.3-0.1,0.5-0.1s0.4,0.1,0.5,0.3
				c0.1,0.1,0.1,0.3,0.1,0.5s-0.1,0.4-0.3,0.5s-0.3,0.1-0.6,0.1c-0.2,0-0.3-0.1-0.4-0.3c-0.1-0.2-0.1-0.3-0.1-0.5
				C213.6,137.9,213.7,137.7,213.9,137.5 M209.5,138.9c0-0.2,0.1-0.4,0.2-0.5c0.2-0.1,0.3-0.2,0.5-0.2s0.3,0.1,0.5,0.2
				c0.1,0.2,0.2,0.3,0.2,0.5s-0.1,0.3-0.2,0.5c-0.1,0.1-0.3,0.2-0.5,0.2s-0.4-0.1-0.5-0.2C209.6,139.2,209.5,139.1,209.5,138.9z"/>
		</g>
	</g>
</g>
<g transform="matrix( 1, 0, 0, 1, 0,0) ">
	<g>
		<g id="Layer1_13_MEMBER_0_MEMBER_0_FILL">
			<path class="st22" d="M209.9,126.9c-0.1,0-0.3,0.1-0.3,0.2c-0.1,0.1-0.1,0.3,0,0.4l1.2,4.7c0,0,0,0,0,0.1l0,0
				c0,0.1,0.1,0.2,0.2,0.3c0.1,0.1,0.3,0.1,0.4,0.1l2.9-0.7c0.1,0,0.2-0.1,0.3-0.3c0.1-0.1,0.1-0.2,0.1-0.4c0-0.1-0.1-0.2-0.2-0.3
				c-0.1-0.1-0.2-0.1-0.4-0.1l-2.4,0.6l-1.1-4.3c0-0.1-0.1-0.3-0.2-0.3C210.1,126.7,210,126.7,209.9,126.9z"/>
		</g>
	</g>
</g>
<g transform="matrix( 1, 0, 0, 1, 0,0) ">
	<g>
		<g id="Layer1_14_FILL">
			<path class="st4" d="M355.1,76.7c-0.2-0.8-0.7-1.1-1.5-0.9l-2.1,0.4c-0.8,0.2-1.1,0.6-1,1.4L351,80l-2.5,0.6h-0.1
				c-0.7,0.2-1,0.7-0.8,1.4l0.3,1.5c0.2,0.8,0.6,1.1,1.4,1l2.5-0.5l0.5,2.4c0.2,0.8,0.7,1.1,1.5,1l2.1-0.4c0.8-0.2,1.1-0.7,1-1.5
				l-0.5-2.4l2.1-0.4c0.8-0.2,1.1-0.7,0.9-1.5l-0.2-1.2l-0.1-0.3c-0.2-0.8-0.6-1.1-1.4-0.9l-2.1,0.4L355.1,76.7z"/>
			<path class="st3" d="M340.3,84c-0.2,0-0.5,0.1-0.6,0l1.9,9.1c0.2,0.8,0.7,1.1,1.5,1l25.3-5.4c0.8-0.2,1.1-0.7,0.9-1.5l-1.9-9
				c-0.1,0-0.2,0-0.3,0.1l-7.8,1.6l0.2,1.2c0.2,0.8-0.1,1.3-0.9,1.5l-2.1,0.4l0.5,2.4c0.2,0.8-0.1,1.3-1,1.5l-2.1,0.4
				c-0.8,0.2-1.3-0.2-1.5-1l-0.5-2.4l-2.5,0.5c-0.8,0.1-1.3-0.2-1.4-1l-0.3-1.5c-0.2-0.7,0.1-1.2,0.8-1.4h-0.1
				c-0.8,0.2-1.1,0.6-1,1.4l0.1,0.3L340.3,84z"/>
			<path class="st23" d="M338.9,83c0.1,0.6,0.4,0.9,0.8,1c0.2,0,0.4,0,0.6,0l7.2-1.5l-0.1-0.3c-0.2-0.8,0.2-1.3,1-1.4h0.1h0.1
				l2.5-0.6l-0.5-2.4c-0.2-0.8,0.2-1.3,1-1.4l2.1-0.4c0.8-0.2,1.3,0.1,1.5,0.9l0.5,2.4l2.1-0.4c0.8-0.2,1.3,0.1,1.4,0.9l0.1,0.3
				l7.8-1.6c0.1,0,0.2,0,0.3-0.1c0.6-0.2,0.8-0.7,0.7-1.4l-2.4-11.1c-0.2-0.8-0.6-1.1-1.4-0.9l-26.8,5.7c-0.8,0.2-1.1,0.6-1,1.4
				L338.9,83z"/>
		</g>
	</g>
</g>
<g transform="matrix( 1, 0, 0, 1, 0,0) ">
	<g>
		<g id="Layer1_15_FILL_3_">
			<path class="st22" d="M376.7,133.3c-0.2-0.3-0.6-0.6-1-0.6c-0.4-0.1-0.8,0-1.1,0.3c-0.3,0.3-0.6,0.6-0.6,1c0,0.3-0.1,0.7-0.1,1
				c0,0.4,0.1,0.8,0.4,1.1s0.7,0.5,1.1,0.5s0.8-0.2,1.1-0.5c0.3-0.3,0.5-0.7,0.5-1.1c0-0.1,0-0.3,0-0.5
				C377.1,134.1,377,133.7,376.7,133.3 M380.2,112.3c-1.9-0.6-3.8-0.6-5.6,0.2c-1.8,0.7-3.1,1.9-3.9,3.5c-0.2,0.4-0.2,0.8,0,1.2
				c0.1,0.4,0.4,0.7,0.8,0.9s0.8,0.2,1.2,0.1c0.4-0.1,0.7-0.4,0.9-0.8c0.4-0.9,1.2-1.6,2.2-2c1.2-0.4,2.4-0.5,3.5-0.1s1.9,1,2.4,2
				l0,0c0.4,0.9,0.5,1.8,0.1,2.7l0,0c-0.4,1-1.2,1.6-2.3,2l0,0c-1.8,0.6-3.1,1.3-4,2.2c-1.1,0.8-1.6,2.5-1.5,5
				c0,0.4,0.2,0.8,0.5,1.1s0.7,0.5,1.1,0.5s0.8-0.2,1.1-0.5c0.3-0.3,0.5-0.7,0.5-1.1c0-1.4,0.2-2.3,0.6-2.8c0,0,0,0,0.1,0
				c0.6-0.6,1.5-1,2.8-1.5l0,0c2-0.7,3.3-1.9,4.1-3.7l0,0c0.8-1.8,0.7-3.6-0.1-5.4l0,0C383.6,114.1,382.2,112.9,380.2,112.3z"/>
		</g>
	</g>
</g>
</svg>
