<?xml version="1.0" encoding="utf-8"?>
<!-- Generator: Adobe Illustrator 19.2.1, SVG Export Plug-In . SVG Version: 6.00 Build 0)  -->
<!DOCTYPE svg PUBLIC "-//W3C//DTD SVG 1.1//EN" "http://www.w3.org/Graphics/SVG/1.1/DTD/svg11.dtd">
<svg version="1.1" id="Layer_1" xmlns="http://www.w3.org/2000/svg" xmlns:xlink="http://www.w3.org/1999/xlink" x="0px" y="0px"
	 viewBox="0 0 595.3 421" style="enable-background:new 0 0 595.3 421;" xml:space="preserve">
<style type="text/css">
	.st0{fill:#E6E6E5;}
	.st1{fill:#FFDA83;}
	.st2{fill:#F7AD92;}
	.st3{fill:#4F4F4F;}
	.st4{fill:#B5B5B5;}
	.st5{fill:#53527F;}
	.st6{fill:#FFFFFF;}
	.st7{fill:#FDC029;}
	.st8{fill:#8C643E;}
	.st9{fill:#040505;}
	.st10{fill:#DB846E;}
	.st11{fill:#424243;}
	.st12{fill:#EE3F5A;}
	.st13{fill:#FFEBBE;}
	.st14{fill:#BDC59E;}
	.st15{fill:#D3D8B7;}
	.st16{fill:none;stroke:#FFFFFF;stroke-width:3;stroke-miterlimit:10;}
	.st17{fill:#6E6F73;}
	.st18{fill:#744E2A;}
	.st19{fill:#698FC7;}
	.st20{fill:#475AA6;}
	.st21{fill:#465AA6;}
	.st22{fill:#383660;}
	.st23{fill:none;stroke:#698FC7;stroke-width:3;stroke-miterlimit:10;}
	.st24{fill:#E7E7E9;}
	.st25{fill:#F7B04F;}
	.st26{fill:none;stroke:#595A5C;stroke-width:6;stroke-linecap:round;stroke-linejoin:round;}
	.st27{fill:#55412D;}
	.st28{fill:#BA7C4F;}
	.st29{fill:none;stroke:#FFFFFF;stroke-width:2;stroke-linecap:round;stroke-linejoin:round;}
	.st30{fill:#9C6A44;}
	.st31{fill:#C3996C;}
	.st32{fill:none;stroke:#4F4F4F;stroke-width:2;stroke-linecap:round;stroke-linejoin:round;}
</style>
<g transform="matrix( 1, 0, 0, 1, 1,25.75) ">
	<g>
		<g id="Layer1_0_FILL_6_">
			<path class="st0" d="M171.5,135.1L158.6,261l90.4,88.5L374.6,334l66.2-107.8l-43.1-119L277.8,66.8L171.5,135.1z"/>
		</g>
	</g>
</g>
<g transform="matrix( 1, 0, 0, 1, 0,0) ">
	<g>
		<g id="Layer1_1_FILL_3_">
			<path class="st1" d="M224.7,178.8H222l-1.7,10.4c0,0.1,0,0.2,0,0.3c0.9,0.2,1.7,0.4,2.6,0.6c0-0.1,0.1-0.3,0.1-0.4L224.7,178.8
				 M216.3,141.5c-0.3-0.3-0.6-0.4-1-0.4c-0.4,0.1-0.7,0.3-0.9,0.6c-0.2,0.4-0.3,0.8-0.2,1.2l4.2,30.4l2.7-0.8l-4.1-30
				C216.8,142.1,216.6,141.8,216.3,141.5z"/>
		</g>
	</g>
</g>
<g transform="matrix( 0.15484619140625, 0.5936126708984375, 0.5936126708984375, -0.15484619140625, 485.85,-83.95) ">
	<g>
		<g id="Layer1_1_MEMBER_0_FILL_2_">
			<path class="st2" d="M268.3-429.3l-10.1-5.6l-15.7,26.7l10.2,5.7L268.3-429.3z"/>
		</g>
	</g>
</g>
<g transform="matrix( 1, 0, 0, 1, 0,0) ">
	<g>
		<g id="Layer1_1_MEMBER_1_FILL_2_">
			<path class="st3" d="M259.1,157.8c1.4-0.5,2.4-1.3,3.1-2.6c0.7-1.3,0.8-2.6,0.3-4s-1.3-2.4-2.5-3L230.5,133
				c-1.3-0.7-2.6-0.8-4-0.3c-1.4,0.4-2.4,1.3-3,2.6c-0.7,1.3-0.8,2.6-0.4,4c0.5,1.3,1.3,2.3,2.6,3l29.4,15.2
				C256.4,158.2,257.7,158.3,259.1,157.8z"/>
		</g>
	</g>
</g>
<g transform="matrix( -0.6031951904296875, -0.1116943359375, -0.2288055419921875, 1.235443115234375, 1501.4,-44.1) ">
	<g>
		<g id="Layer1_1_MEMBER_2_FILL_1_">
			<path class="st3" d="M2010.8,404.4c-1.5-1.5-3.3-2.3-5.5-2.3c-2.1,0-3.9,0.8-5.4,2.3s-2.3,3.3-2.3,5.5v54.8c0,2.2,0.8,4,2.3,5.5
				c1.5,1.5,3.3,2.3,5.4,2.3c2.2,0,4-0.8,5.5-2.3s2.3-3.3,2.3-5.5v-54.8C2013.1,407.7,2012.3,405.9,2010.8,404.4z"/>
		</g>
	</g>
</g>
<g transform="matrix( 1, 0, 0, 1, 0,0) ">
	<g>
		<g id="Layer1_1_MEMBER_3_FILL_2_">
			<path class="st4" d="M190.3,308.1c-0.1-0.3-0.2-0.5-0.5-0.6s-0.5-0.1-0.8,0c-2.2,1.1-5,1.6-8.3,1.4c-0.7,0-1.4,0.1-2.1,0.4
				l-14.3,6.7c-0.5,0.2-0.8,0.6-1.1,1c-0.2,0.5-0.3,1-0.2,1.5l0.1,0.6l28.1-5.2L190.3,308.1z"/>
		</g>
	</g>
</g>
<g transform="matrix( 0.6031951904296875, -0.1116943359375, 0.1116943359375, 0.6031951904296875, -10.95,400.2) ">
	<g>
		<g id="Layer1_1_MEMBER_4_FILL_3_">
			<path class="st3" d="M303.3-78.4v1.5c0,0.4,0.1,0.7,0.4,1c0.3,0.3,0.6,0.4,1,0.4l42.4,0c0.8,0,1.5-0.3,2-0.8
				c0.6-0.6,0.8-1.2,0.8-2v-0.1L303.3-78.4z"/>
		</g>
	</g>
</g>
<g transform="matrix( 1, 0, 0, 1, 0,0) ">
	<g>
		<g id="Layer1_1_MEMBER_5_FILL_2_">
			<path class="st3" d="M223.2,232.9c-1.3,0-2.5,0.9-3.4,2.7c-0.9,1.8-1.4,4-1.4,6.5l-0.9,65.7c0,2.6,0.4,4.8,1.3,6.6
				c0.9,1.8,2,2.7,3.3,2.7s2.4-0.9,3.3-2.6c1-1.8,1.5-4,1.5-6.6l0.9-65.7c0-2.6-0.4-4.8-1.4-6.6
				C225.6,233.8,224.5,232.9,223.2,232.9z"/>
		</g>
	</g>
</g>
<g transform="matrix( -0.6134033203125, -0.0079803466796875, -0.0079803466796875, 0.6134033203125, 1383.6,289.2) ">
	<g>
		<g id="Layer1_1_MEMBER_6_FILL_1_">
			<path class="st4" d="M1857.6,68c-0.8,0.2-1.5,0.6-2,1.3c-0.5,0.7-0.8,1.4-0.8,2.3v0.9l46.6,0v-9.4c0-0.5-0.2-0.9-0.6-1.2
				c-0.4-0.3-0.8-0.4-1.3-0.2c-4,1.2-8.5,1.1-13.7-0.2c-1.2-0.3-2.3-0.3-3.5,0L1857.6,68z"/>
		</g>
	</g>
</g>
<g transform="matrix( -0.6134033203125, -0.0079803466796875, -0.0079803466796875, 0.6134033203125, 1383.6,289.2) ">
	<g>
		<g id="Layer1_1_MEMBER_7_FILL_1_">
			<path class="st3" d="M1854.8,72.6v1.5c0,0.4,0.1,0.7,0.4,1s0.6,0.4,1,0.4l42.4,0c0.8,0,1.5-0.3,2-0.8c0.6-0.6,0.8-1.2,0.8-2v-0.1
				L1854.8,72.6z"/>
		</g>
	</g>
</g>
<g transform="matrix( -0.6031951904296875, -0.1116943359375, -0.1116943359375, 0.6031951904296875, 1418.35,398.4) ">
	<g>
		<g id="Layer1_1_MEMBER_8_FILL_2_">
			<path class="st5" d="M2014.2,44.9l-57,0.5l0.4,18.3c0,2.7,1,5,2.9,6.9s4.3,2.8,7,2.8l37.4-0.3c2.7,0,5-1,6.9-2.9
				c1.9-1.9,2.8-4.2,2.8-6.9L2014.2,44.9z"/>
		</g>
	</g>
</g>
<g transform="matrix( 1, 0, 0, 1, 0,0) ">
	<g>
		<g id="Layer1_1_MEMBER_9_FILL">
			<path class="st3" d="M230.5,135.9c-1.9-1.5-4-2.1-6.4-1.9l-24.3,2.8c-2.4,0.3-4.3,1.4-5.8,3.3s-2.1,4-1.8,6.4
				c0.8,3.6,1.7,7.6,2.6,11.8c1.2,5.6,2.1,10,2.7,13.2c0.3,1.7,0.5,3,0.6,4c0.1,0.5,0.1,1,0.2,1.7c0.2,1.7,0.3,3.9,0.5,6.5
				c0,0.9,0.1,2,0.1,3.1c0,0.3,0,0.5,0,0.8c0.7-0.2,2.3-0.3,4.9-0.4c2.3-0.1,9.3-1.2,20.8-3.4c3.9-0.3,7.8-0.8,11.8-1.4l-2.6-40.6
				C233.4,139.3,232.3,137.4,230.5,135.9z"/>
		</g>
	</g>
</g>
<g transform="matrix( 1, 0, 0, 1, 0,0) ">
	<g>
		<g id="Layer1_1_MEMBER_10_FILL">
			<path class="st3" d="M222,185l-4.4,0.6l-18.4,0.9l-3,11.4c-1.7,6-5.7,18.4-12,37.2l58,7.5l-6-58.6L222,185z"/>
		</g>
	</g>
</g>
<g transform="matrix( 1, 0, 0, 1, 0,0) ">
	<g>
		<g id="Layer1_1_MEMBER_11_FILL">
			<path class="st6" d="M214.5,140c-0.3-0.3-0.6-0.4-0.9-0.3c-0.4,0-0.7,0.2-0.9,0.6s-0.3,0.8-0.2,1.2l5.6,40.9
				c0.1,0.5,0.3,0.8,0.6,1.1c0.3,0.3,0.7,0.4,1,0.4c0.4-0.1,0.7-0.3,0.9-0.7c0.2-0.3,0.3-0.7,0.3-1.2l-5.6-40.9
				C215.1,140.8,214.9,140.3,214.5,140z"/>
		</g>
	</g>
</g>
<g transform="matrix( 1, 0, 0, 1, 0,0) ">
	<g>
		<g id="Layer1_1_MEMBER_12_FILL">
			<path class="st6" d="M237.4,185.4l-0.4-4l-37.9,3.9c-0.3,0-0.6,0.1-0.9,0.1l0.4,4L237.4,185.4z"/>
		</g>
	</g>
</g>
<g transform="matrix( 1, 0, 0, 1, 0,-0.5) ">
	<g>
		<g id="Layer1_1_MEMBER_13_FILL">
			<path class="st6" d="M224.6,136.2c-0.1-0.6-0.2-1.3-0.4-1.9l-22.5,2.6c-0.1,0.7-0.1,1.3,0,1.9c0.3,2.7,1.1,3.8,2.3,3.4
				c1.3-0.4,3.2-1.3,5.8-2.6c2.6-1.3,5.8-1.5,9.6-0.7C223.1,139.8,224.9,138.9,224.6,136.2z"/>
		</g>
	</g>
</g>
<g transform="matrix( -0.6094970703125, 0.0693817138671875, 0.0693817138671875, 0.6094970703125, 1360.4,202.55) ">
	<g>
		<g id="Layer1_1_MEMBER_14_FILL">
			<path class="st2" d="M1849.8-336c-1-1-2.2-1.5-3.6-1.5c-1.4,0-2.6,0.5-3.6,1.5s-1.5,2.2-1.5,3.6v11c0,2.5,1.7,3.7,5.2,3.7
				s5.2-1.2,5.2-3.7v-11C1851.3-333.8,1850.8-335,1849.8-336z"/>
		</g>
	</g>
</g>
<g transform="matrix( -0.486907958984375, 0.373046875, 0.373046875, 0.486907958984375, 1172.3,-84.7) ">
	<g>
		<g id="Layer1_1_MEMBER_15_MEMBER_0_FILL">
			<path class="st7" d="M1436.2-723.8l-2.5-4.3c-1.1-0.2-2.2,0.1-3.3,1c-2.2,1.8-3.3,5.5-3.3,11.1c0,2.8,0.3,5.9,0.9,9.2
				c0.3,1.6,0.6,3,0.9,4.1l10.1-11.7l10.4-4.7L1436.2-723.8z"/>
		</g>
	</g>
</g>
<g transform="matrix( -0.486907958984375, 0.373046875, 0.373046875, 0.486907958984375, 1172.3,-84.7) ">
	<g>
		<g id="Layer1_1_MEMBER_15_MEMBER_1_MEMBER_0_FILL">
			<path class="st2" d="M1467.6-716.7c-4.1-5.5-9.3-8.3-15.7-8.3c-7.4,0-12.9,1.5-16.7,4.7c-4.1,3.4-6.4,8.8-6.9,16.4
				c-0.5,6.5,0.4,12.8,2.6,18.7c2.9,7.8,7.6,12.4,14,13.8c7.5,0.4,13.7-1.9,18.5-6.9c4.3-4.5,7.1-10.7,8.5-18.5
				C1473.2-704.4,1471.8-711,1467.6-716.7z"/>
		</g>
	</g>
</g>
<g transform="matrix( -0.4652099609375, 0.3997039794921875, 0.3997039794921875, 0.4652099609375, 1147.6,-108.3) ">
	<g>
		<g id="Layer1_1_MEMBER_15_MEMBER_1_MEMBER_1_MEMBER_0_FILL">
			<path class="st8" d="M1389.7-727.9c-0.2-0.2-0.5-0.3-0.7-0.3l-6,0.3c-0.3,0-0.5,0.1-0.7,0.3c-0.2,0.2-0.3,0.4-0.3,0.7
				c0,0.2,0.1,0.4,0.3,0.6c0.2,0.2,0.4,0.3,0.6,0.3l6.2-0.3c0.3,0,0.5-0.1,0.7-0.3c0.2-0.2,0.3-0.5,0.2-0.7
				C1390-727.5,1389.9-727.7,1389.7-727.9z"/>
		</g>
	</g>
</g>
<g transform="matrix( -0.44696044921875, 0.4200286865234375, 0.4200286865234375, 0.44696044921875, 1124.5,-126.2) ">
	<g>
		<g id="Layer1_1_MEMBER_15_MEMBER_1_MEMBER_2_MEMBER_0_FILL">
			<path class="st8" d="M1358.3-743.7h-0.2c-0.2,0-0.4,0.1-0.6,0.3s-0.2,0.4-0.3,0.6c0,0.3,0.1,0.5,0.3,0.7c0.2,0.2,0.4,0.3,0.7,0.3
				l6,0.3c0.3,0,0.5-0.1,0.7-0.2c0.2-0.2,0.3-0.4,0.3-0.7c0-0.3-0.1-0.5-0.2-0.7c-0.2-0.2-0.4-0.3-0.7-0.3L1358.3-743.7z"/>
		</g>
	</g>
</g>
<g transform="matrix( -0.486907958984375, 0.373046875, 0.373046875, 0.486907958984375, 1172.3,-84.7) ">
	<g>
		<g id="Layer1_1_MEMBER_15_MEMBER_1_MEMBER_3_FILL">
			<path class="st9" d="M1447.5-696.8c0,0.4,0.1,0.7,0.4,0.9c0.3,0.3,0.6,0.4,0.9,0.4c0.4,0,0.7-0.1,0.9-0.4
				c0.3-0.3,0.4-0.6,0.4-0.9s-0.1-0.7-0.4-0.9c-0.3-0.3-0.6-0.4-0.9-0.4c-0.4,0-0.7,0.1-0.9,0.4
				C1447.7-697.5,1447.5-697.2,1447.5-696.8z"/>
		</g>
	</g>
</g>
<g transform="matrix( -0.486907958984375, 0.373046875, 0.373046875, 0.486907958984375, 1172.3,-84.7) ">
	<g>
		<g id="Layer1_1_MEMBER_15_MEMBER_1_MEMBER_4_FILL">
			<path class="st9" d="M1435.4-695.4c0.3-0.3,0.4-0.6,0.4-0.9c0-0.4-0.1-0.7-0.4-1s-0.6-0.4-0.9-0.4c-0.4,0-0.7,0.1-1,0.4
				s-0.4,0.6-0.4,1c0,0.4,0.1,0.7,0.4,0.9c0.3,0.3,0.6,0.4,1,0.4S1435.2-695.1,1435.4-695.4z"/>
		</g>
	</g>
</g>
<g transform="matrix( -0.486907958984375, 0.373046875, 0.373046875, 0.486907958984375, 1172.3,-84.7) ">
	<g>
		<g id="Layer1_1_MEMBER_15_MEMBER_1_MEMBER_5_FILL">
			<path class="st10" d="M1441.6-698.7l-2.3,11.2l2.5,0.6L1441.6-698.7z"/>
		</g>
	</g>
</g>
<g transform="matrix( 0.79083251953125, -0.45599365234375, 0.45599365234375, 0.79083251953125, -34.5,475.25) ">
	<g>
		<g id="Layer1_1_MEMBER_15_MEMBER_1_MEMBER_6_FILL">
			<path class="st6" d="M426.9-199.4h7.5l0.9-1.4l-8.4,1V-199.4L426.9-199.4z"/>
			<path class="st11" d="M434.5-199.4H427c0,0.7,0.3,1.3,0.9,1.7c0,0,0,0,0.1,0.1c0.7,0.6,1.6,0.9,2.8,0.9h0.7
				c0.8,0.1,1.4-0.1,1.7-0.3L434.5-199.4z"/>
		</g>
	</g>
</g>
<g transform="matrix( -0.486907958984375, 0.373046875, 0.373046875, 0.486907958984375, 1172.3,-84.7) ">
	<g>
		<g id="Layer1_1_MEMBER_15_MEMBER_2_FILL">
			<path class="st7" d="M1467.3-722.5c1.1,2.6,2.9,4.6,5.1,5.8c2.3,1.2,4.4,1.4,6.5,0.5c2.1-0.9,3.4-2.6,4-5.1
				c0.7-2.5,0.4-5.1-0.8-7.7c-1.1-2.6-2.9-4.6-5.1-5.8c-2.3-1.2-4.4-1.4-6.5-0.5c-2.1,0.9-3.4,2.6-4,5.1
				C1465.9-727.7,1466.1-725.2,1467.3-722.5z"/>
		</g>
	</g>
</g>
<g transform="matrix( -0.486907958984375, 0.373046875, 0.373046875, 0.486907958984375, 1172.3,-84.7) ">
	<g>
		<g id="Layer1_1_MEMBER_15_MEMBER_3_FILL">
			<path class="st1" d="M1455.5-737.2c-5.1-0.8-9.3-0.7-12.7,0.5c-4.1,1.4-7.2,4.4-9.4,8.8c3.2,7.9,8.6,14.5,16.3,20
				c2.7,1.9,5.4,3.5,8.3,4.9c2.3,1,4,1.6,5.2,1.8c-0.4,3.1,0.5,5.1,2.7,5.9c1.1,0.4,2.2,0.5,3.4,0.3c0.4-0.3,1.6-0.9,3.6-1.7
				c1.5-0.6,2.4-1.3,2.6-2c3.6-11.8,2.9-21.2-1.9-28.1C1469.6-732.4,1463.6-735.9,1455.5-737.2z"/>
		</g>
	</g>
</g>
<g transform="matrix( -0.486907958984375, 0.373046875, 0.373046875, 0.486907958984375, 1172.3,-84.7) ">
	<g>
		<g id="Layer1_1_MEMBER_15_MEMBER_4_MEMBER_0_FILL">
			<path class="st2" d="M1467-701.6c0.1,2.1,0.4,4.1,1.1,5.9c0.6,1.7,1.4,3.1,2.5,4.3c1.1,1.3,2.3,0.6,3.5-2
				c1.3-3.4,2.1-5.6,2.5-6.8c0.9-2.4,0.5-4-1.3-5c-1.7-1-3.6-0.7-5.7,0.7c-0.8,0.6-1.5,1.2-2.1,1.9L1467-701.6z"/>
		</g>
	</g>
</g>
<g transform="matrix( -0.486907958984375, 0.373046875, 0.373046875, 0.486907958984375, 1172.3,-84.7) ">
	<g>
		<g id="Layer1_1_MEMBER_15_MEMBER_4_MEMBER_1_FILL">
			<path class="st10" d="M1470.2-701.1l2.7,0.4l-1.4,6l4-7.3L1470.2-701.1z"/>
		</g>
	</g>
</g>
<g transform="matrix( -0.486907958984375, 0.373046875, 0.373046875, 0.486907958984375, 1172.3,-84.7) ">
	<g>
		<g id="Layer1_1_MEMBER_15_MEMBER_5_FILL">
			<path class="st12" d="M1469.8-688.6c0.5,0.5,1,0.7,1.7,0.7s1.2-0.2,1.7-0.7s0.7-1,0.7-1.7s-0.2-1.2-0.7-1.7s-1-0.7-1.7-0.7
				s-1.2,0.2-1.7,0.7s-0.7,1-0.7,1.7C1469.1-689.7,1469.4-689.1,1469.8-688.6z"/>
		</g>
	</g>
</g>
<g transform="matrix( 0.7744140625, 0.4835205078125, -0.4835205078125, 0.7744140625, 338.75,-270.6) ">
	<g>
		<g id="Layer1_1_MEMBER_16_FILL">
			<path class="st3" d="M184.2,401.6l-11.2-2.4l-8.2,39.7c3.6-0.4,4.9,0.5,3.7,2.8c-1.1,2.3-0.9,3.6,0.6,4s3,0.1,4.3-0.7
				c1.3-0.9,2.2-2.1,2.5-3.6L184.2,401.6z"/>
		</g>
	</g>
</g>
<g transform="matrix( 0.8309326171875, 0.3782958984375, -0.3782958984375, 0.8309326171875, 244.05,-196.1) ">
	<g>
		<g id="Layer1_1_MEMBER_17_FILL">
			<path class="st2" d="M193.1,296.4c-0.6-4.4-1.3-5.8-2.1-4.1c-0.9,1.7-1.5,3.7-1.9,6c0.1-1,0.1-1.4,0-1.3s-0.2,0-0.3-0.4
				c0.3-3.9,0.4-6.6,0.3-8.4c-0.1-4.3-0.7-5.9-1.7-4.7c-1,1.2-2,2.6-3.2,4.2c-1.1,1.6-1.7,5.7-1.7,12.3c-0.4,0.7-0.9,2.1-1.5,4.2
				l6.7,2.1c2.4-3,3.6-4.5,3.6-4.6C192.1,299.7,192.7,297.9,193.1,296.4z"/>
		</g>
	</g>
</g>
<g transform="matrix( 0.7744140625, 0.4835205078125, -0.4835205078125, 0.7744140625, 338.75,-270.6) ">
	<g>
		<g id="Layer1_1_MEMBER_18_FILL">
			<path class="st6" d="M183.4,405.4l0.8-4.2l-11.1-2.2l-0.8,4.1L183.4,405.4z"/>
		</g>
	</g>
</g>
<g transform="matrix( -0.4701995849609375, -0.78143310546875, -0.78143310546875, 0.4701995849609375, 1368.25,838.6) ">
	<g>
		<g id="Layer1_1_MEMBER_19_MEMBER_0_FILL">
			<path class="st3" d="M1312.4,703.1c-1.6,0.3-2.8,1.1-3.7,2.4l-20.8,29.7c-0.9,1.3-1.2,2.7-1,4.3c0.3,1.6,1.1,2.8,2.4,3.7
				s2.7,1.2,4.3,0.9c1.5-0.3,2.8-1.1,3.7-2.4l20.7-29.8c0.9-1.3,1.2-2.7,0.9-4.3c-0.3-1.6-1.1-2.8-2.4-3.7
				C1315.4,703.1,1314,702.8,1312.4,703.1z"/>
		</g>
	</g>
</g>
<g transform="matrix( 0.902587890625, 0.130767822265625, 0.130767822265625, -0.902587890625, -6.65,763.8) ">
	<g>
		<g id="Layer1_1_MEMBER_19_MEMBER_1_FILL">
			<path class="st3" d="M92.1,628.7l-9.2,6.9l24.6,32.3c0.9,1.3,2.2,2,3.8,2.3c1.5,0.2,2.9-0.1,4.2-1.1s2-2.2,2.3-3.8
				s-0.1-3-1.1-4.2L92.1,628.7z"/>
		</g>
	</g>
</g>
<g transform="matrix( -0.77459716796875, -0.4832611083984375, 0.4832611083984375, -0.77459716796875, 1199.45,1185.6) ">
	<g>
		<g id="Layer1_1_MEMBER_19_MEMBER_2_FILL">
			<path class="st2" d="M1546.1,299.3c-0.6-4.4-1.3-5.8-2.1-4.1c-0.9,1.7-1.5,3.7-1.9,6c0.1-1,0.1-1.4,0-1.3s-0.2,0-0.3-0.4
				c0.3-3.9,0.4-6.6,0.3-8.4c-0.1-4.3-0.7-5.9-1.7-4.7s-2,2.6-3.2,4.2c-1.1,1.6-1.7,5.7-1.7,12.3c-0.4,0.7-0.9,2.1-1.5,4.2l6.7,2.1
				c2.4-3,3.6-4.5,3.6-4.6C1545.1,302.6,1545.7,300.8,1546.1,299.3z"/>
		</g>
	</g>
</g>
<g transform="matrix( 0.902587890625, 0.130767822265625, 0.130767822265625, -0.902587890625, -6.65,763.3) ">
	<g>
		<g id="Layer1_1_MEMBER_19_MEMBER_3_FILL">
			<path class="st6" d="M82.9,635.2l2.6,3.4l15.8-2l-9.5-8.3L82.9,635.2z"/>
		</g>
	</g>
</g>
<g transform="matrix( 0.9958343505859375, -0.0911712646484375, 0.0911712646484375, 0.9958343505859375, 31.65,75.35) ">
	<g>
		<g id="Layer1_1_MEMBER_20_FILL">
			<path class="st13" d="M159.5,92.5c-0.6,0.6-0.9,1.3-0.9,2.1v0.3c0,0.8,0.3,1.5,0.9,2.1c0.6,0.6,1.3,0.9,2.1,0.9h5.9
				c0.8,0,1.5-0.3,2.1-0.9s0.9-1.3,0.9-2.1v-0.3c0-0.8-0.3-1.5-0.9-2.1c-0.6-0.6-1.3-0.9-2.1-0.9h-5.9
				C160.8,91.7,160.1,92,159.5,92.5z"/>
		</g>
	</g>
</g>
<g transform="matrix( 1, 0, 0, 1, 0,0) ">
	<g>
		<g id="Layer1_2_FILL_6_">
			<path class="st14" d="M443.6,258.8h1.6l-1.6-0.5V258.8z"/>
		</g>
	</g>
</g>
<g transform="matrix( 0.672607421875, -0.0986328125, -0.0986328125, -0.672607421875, 650.4,676.7) ">
	<g>
		<g id="Layer1_2_MEMBER_0_MEMBER_0_FILL_1_">
			<path class="st2" d="M-364.7,836.8c-1.1,1.3-1.6,2.8-1.5,4.5l4,53.1c0.1,1.7,0.8,3.1,2.1,4.2c1.3,1.1,2.8,1.6,4.5,1.5
				s3.1-0.8,4.2-2.1s1.6-2.8,1.5-4.5l-4-53.1c-0.1-1.7-0.8-3.1-2.1-4.3c-1.3-1.1-2.8-1.6-4.5-1.5
				C-362.1,834.8-363.6,835.5-364.7,836.8z"/>
		</g>
	</g>
</g>
<g transform="matrix( 0.0555572509765625, -0.6776123046875, -0.6776123046875, -0.0555572509765625, 1122.75,766.3) ">
	<g>
		<g id="Layer1_2_MEMBER_0_MEMBER_1_FILL_1_">
			<path class="st2" d="M813.7,1185.3c-1.2-1.2-2.7-1.7-4.4-1.7s-3.2,0.7-4.4,1.9c-1.2,1.2-1.7,2.7-1.7,4.4l2,53.2
				c0,1.7,0.7,3.1,1.9,4.3c1.2,1.2,2.7,1.7,4.4,1.7s3.1-0.7,4.3-1.9c1.2-1.2,1.7-2.7,1.7-4.4l-2-53.2
				C815.6,1188,814.9,1186.5,813.7,1185.3z"/>
		</g>
	</g>
</g>
<g transform="matrix( 0.0555572509765625, -0.6776123046875, -0.6776123046875, -0.0555572509765625, 1013.4,442.35) ">
	<g>
		<g id="Layer1_2_MEMBER_0_MEMBER_2_FILL">
			<path class="st15" d="M356.1,987.7c-0.1-2.1-0.9-3.9-2.5-5.4c-1.6-1.5-3.4-2.2-5.6-2.1c-2.1,0.1-3.9,0.9-5.4,2.5
				s-2.2,3.4-2.1,5.6l1.5,38.8l15.5-0.6L356.1,987.7z"/>
		</g>
	</g>
</g>
<g transform="matrix( 0.0555572509765625, -0.6776123046875, -0.6776123046875, -0.0555572509765625, 1122.75,766.3) ">
	<g>
		<g id="Layer1_2_MEMBER_0_MEMBER_3_FILL_1_">
			<path class="st15" d="M802.8,1174.4c-3.9,0-7.3,1.4-10,4.2c-2.8,2.8-4.2,6.1-4.2,10s1.4,7.3,4.2,10c2.8,2.8,6.1,4.2,10,4.2
				c3.9,0,7.3-1.4,10-4.2c2.8-2.8,4.1-6.1,4.1-10s-1.4-7.2-4.1-10C810.1,1175.8,806.7,1174.4,802.8,1174.4z"/>
		</g>
	</g>
</g>
<g transform="matrix( 0.58038330078125, 0.354217529296875, 0.354217529296875, -0.58038330078125, 516.35,419.85) ">
	<g>
		<g id="Layer1_2_MEMBER_0_MEMBER_4_FILL_1_">
			<path class="st2" d="M-474.7,237.8l-12.2,2.5l1.3,12.4l-2.9,6.3c-1.7,4.2-1.9,6.3-0.8,6.2c1.2-0.1,2.6-0.4,4.1-0.8
				c2.4-0.7,4.4-1.7,5.7-2.9c1.2-1,2.6-3.2,4.4-6.6c0.9-1.7,1.6-3.3,2.3-4.7L-474.7,237.8z"/>
		</g>
	</g>
</g>
<g transform="matrix( 0.58038330078125, 0.354217529296875, 0.354217529296875, -0.58038330078125, 516.35,419.85) ">
	<g>
		<g id="Layer1_2_MEMBER_0_MEMBER_5_FILL_1_">
			<path class="st10" d="M-485.3,252.8c1.1-0.6,2-1.3,2.8-2.2l-4.1-9.4c-1.6,5.3-3,9-4.1,11.2C-489.3,253.8-487.5,254-485.3,252.8z"
				/>
		</g>
	</g>
</g>
<g transform="matrix( 0.0555572509765625, -0.6776123046875, -0.6776123046875, -0.0555572509765625, 1122.75,766.3) ">
	<g transform="matrix( 0.12017822265625, -1.465911865234375, -1.465911865234375, -0.12017822265625, 988.4,1737.95) ">
		<path id="Layer1_2_MEMBER_0_MEMBER_6_1_STROKES_1_" class="st16" d="M510,985.2l-15.5,0.7"/>
	</g>
</g>
<g transform="matrix( -0.6636810302734375, 0.15203857421875, 0.15203857421875, 0.6636810302734375, 1246.1,239.15) ">
	<g>
		<g id="Layer1_2_MEMBER_1_FILL_1_">
			<path class="st0" d="M1271.5-299.4c0-0.7-0.2-1.2-0.7-1.7s-1-0.7-1.7-0.7s-1.2,0.2-1.7,0.7s-0.7,1-0.7,1.7c0,0.7,0.2,1.2,0.7,1.7
				s1,0.7,1.7,0.7s1.2-0.2,1.7-0.7C1271.3-298.1,1271.5-298.7,1271.5-299.4z"/>
		</g>
	</g>
</g>
<g transform="matrix( -0.556396484375, 0.39166259765625, 0.39166259765625, 0.556396484375, 1007.65,171.1) ">
	<g>
		<g id="Layer1_2_MEMBER_2_MEMBER_0_FILL_1_">
			<path class="st1" d="M899.3-403.7c-1.5-1.5-3.3-2.3-5.5-2.3c-2.1,0-3.9,0.8-5.4,2.3s-2.3,3.3-2.3,5.5l0,54.8c0,2.2,0.8,4,2.3,5.5
				s3.3,2.3,5.4,2.3c2.2,0,4-0.8,5.5-2.3c1.5-1.5,2.3-3.3,2.3-5.5l0-54.8C901.5-400.3,900.8-402.2,899.3-403.7z"/>
		</g>
	</g>
</g>
<g transform="matrix( 0.9811859130859375, -0.1904144287109375, 0.1904144287109375, 0.9811859130859375, 80.8,283.1) ">
	<g>
		<g id="Layer1_2_MEMBER_2_MEMBER_1_FILL_1_">
			<path class="st14" d="M293.9,2.9c-0.3-1.6-1.1-2.9-2.4-3.9l-1.4-1c-1.3-1-2.8-1.3-4.4-1.1c-1.6,0.3-2.9,1.1-3.9,2.4l-31.4,43.2
				c-1.1,2.2-1.1,3.9,0,5.3l21.9,50.6l12.5-5.4l-20.3-46.9l28.3-38.9C293.7,6,294.1,4.5,293.9,2.9z"/>
		</g>
	</g>
</g>
<g transform="matrix( -0.6711273193359375, 0.112213134765625, 0.112213134765625, 0.6711273193359375, 1251.8,214.65) ">
	<g>
		<g id="Layer1_2_MEMBER_2_MEMBER_2_FILL_1_">
			<path class="st4" d="M1289.8-50.5c-0.4,0.3-0.6,0.7-0.6,1.2v9.4l46.6,0v-0.9c0-0.8-0.3-1.6-0.8-2.3c-0.5-0.7-1.2-1.1-2-1.3
				l-24.9-6.5c-1.1-0.3-2.3-0.3-3.5,0c-5.2,1.3-9.7,1.4-13.7,0.2C1290.7-50.9,1290.2-50.8,1289.8-50.5z"/>
		</g>
	</g>
</g>
<g transform="matrix( -0.6711273193359375, 0.112213134765625, 0.112213134765625, 0.6711273193359375, 1251.8,214.65) ">
	<g>
		<g id="Layer1_2_MEMBER_2_MEMBER_3_FILL_1_">
			<path class="st3" d="M1290.1-37.8c0.6,0.6,1.2,0.8,2,0.8l42.4,0c0.4,0,0.7-0.1,1-0.4s0.4-0.6,0.4-1v-1.5l-46.6,0v0.1
				C1289.3-39.1,1289.6-38.4,1290.1-37.8z"/>
		</g>
	</g>
</g>
<g transform="matrix( -0.326416015625, 0.5972747802734375, 0.5972747802734375, 0.326416015625, 872.5,213.6) ">
	<g>
		<g id="Layer1_2_MEMBER_3_MEMBER_0_FILL_1_">
			<path class="st1" d="M441-543c-1.5-1.5-3.3-2.3-5.5-2.3c-2.1,0-3.9,0.8-5.4,2.3s-2.3,3.3-2.3,5.5v54.8c0,2.2,0.8,4,2.3,5.5
				s3.3,2.3,5.4,2.3c2.2,0,4-0.8,5.5-2.3s2.3-3.3,2.3-5.5v-54.8C443.3-539.7,442.5-541.5,441-543z"/>
		</g>
	</g>
</g>
<g transform="matrix( -1, 0, 0, 1, 1505.2,63.7) ">
	<g>
		<g id="Layer1_2_MEMBER_3_MEMBER_1_FILL_1_">
			<path class="st14" d="M1117.4,163.8c-1.6,0-3.1,0.5-4.3,1.7c-1.2,1.2-1.8,2.6-1.8,4.2l-1,48.1l-44.5,25l6.7,11.8l48-27
				c1.8-0.4,2.9-1.9,3.2-4.3l1.1-53.3c0-1.6-0.5-3.1-1.7-4.3c-1.1-1.2-2.5-1.8-4.1-1.8L1117.4,163.8z"/>
		</g>
	</g>
</g>
<g transform="matrix( -0.544158935546875, 0.4091644287109375, 0.4091644287109375, 0.544158935546875, 1099.5,144.95) ">
	<g>
		<g id="Layer1_2_MEMBER_3_MEMBER_2_FILL_1_">
			<path class="st4" d="M914.2-384.9c-0.4,0.3-0.6,0.7-0.6,1.2v9.4l46.6,0v-0.9c0-0.8-0.3-1.6-0.8-2.3c-0.5-0.7-1.2-1.1-2-1.3
				l-24.9-6.5c-1.1-0.3-2.3-0.3-3.5,0c-5.2,1.3-9.7,1.4-13.7,0.2C915-385.3,914.6-385.2,914.2-384.9z"/>
		</g>
	</g>
</g>
<g transform="matrix( -0.544158935546875, 0.4091644287109375, 0.4091644287109375, 0.544158935546875, 1099.5,144.95) ">
	<g>
		<g id="Layer1_2_MEMBER_3_MEMBER_3_FILL_1_">
			<path class="st3" d="M914.5-372.2c0.6,0.6,1.2,0.8,2,0.8l42.4,0c0.4,0,0.7-0.1,1-0.4c0.3-0.3,0.4-0.6,0.4-1v-1.5h-46.6v0.1
				C913.7-373.4,913.9-372.8,914.5-372.2z"/>
		</g>
	</g>
</g>
<g transform="matrix( -1, 0, 0, 1, 1505.2,63.7) ">
	<g>
		<g id="Layer1_2_MEMBER_4_FILL_2_">
			<path class="st14" d="M1140.2,179.6c1.8,0.4,3.4,0.1,5-0.8s2.6-2.3,3-4.1l3-12.1l-37.7-8.9l-3,12.1c-0.4,1.8-0.2,3.5,0.8,5
				c1,1.6,2.3,2.6,4.1,3L1140.2,179.6z"/>
		</g>
	</g>
</g>
<g transform="matrix( 1, 0, 0, 1, 0,0) ">
	<g>
		<g id="Layer1_2_MEMBER_5_MEMBER_0_FILL">
			<path class="st15" d="M399.9,156.8c0.1-2.6-0.7-4.9-2.5-6.8s-3.9-3-6.6-3.1l-27.2-1.2c-2.7-0.1-5.1,0.7-7,2.6
				c-2,1.9-3.1,4.1-3.2,6.8l-3.2,72.9l46.6,2L399.9,156.8z"/>
		</g>
	</g>
</g>
<g transform="matrix( -1, 0, 0, 1, 1505.2,63.7) ">
	<g>
		<g id="Layer1_2_MEMBER_5_MEMBER_1_FILL">
			<path class="st14" d="M1138.8,98.6c-0.9,0-1.7,0.3-2.4,1s-1,1.4-1,2.4v1.3c0,0.9,0.3,1.7,1,2.4s1.4,1,2.4,1h5.2
				c0.9,0,1.7-0.3,2.4-1s1-1.4,1-2.4V102c0-0.9-0.3-1.7-1-2.4s-1.4-1-2.4-1H1138.8z"/>
		</g>
	</g>
</g>
<g transform="matrix( -1, 0, 0, 1, 1505.2,63.7) ">
	<g>
		<g id="Layer1_2_MEMBER_5_MEMBER_2_FILL">
			<path class="st14" d="M1147.9,114.7c0-0.9-0.3-1.7-1-2.4s-1.4-1-2.4-1h-5.2c-0.9,0-1.7,0.3-2.4,1s-1,1.4-1,2.4v3.1
				c0,0.9,0.3,1.7,1,2.4s1.4,1,2.4,1h5.2c0.9,0,1.7-0.3,2.4-1s1-1.4,1-2.4V114.7z"/>
		</g>
	</g>
</g>
<g transform="matrix( -1, 0, 0, 1, 1505.2,63.7) ">
	<g>
		<g id="Layer1_2_MEMBER_5_MEMBER_3_FILL">
			<path class="st14" d="M1141.1,138.6c-2.2,0-3.3,1.1-3.3,3.3v14c0,2.2,1.1,3.3,3.3,3.3h5.7c2.2,0,3.3-1.1,3.3-3.3v-14
				c0-2.2-1.1-3.3-3.3-3.3H1141.1z"/>
		</g>
	</g>
</g>
<g transform="matrix( -1, 0, 0, 1, 1501.2,62.7) ">
	<g>
		<g id="Layer1_2_MEMBER_5_MEMBER_4_FILL">
			<path class="st14" d="M1115.5,100.2c-2.2,0-3.3,1.1-3.3,3.3v15c0,2.2,1.1,3.3,3.3,3.3h8.7c2.2,0,3.3-1.1,3.3-3.3v-14.9
				c0-2.2-1.1-3.3-3.3-3.3h-8.7V100.2z"/>
		</g>
	</g>
</g>
<g transform="matrix( -0.680328369140625, -0.029449462890625, -0.029449462890625, 0.680328369140625, 1321.95,307.3) ">
	<g>
		<g id="Layer1_2_MEMBER_6_FILL_1_">
			<path class="st6" d="M1403.2-172.1c1.8-1.2,2.7-2.6,2.7-4.3s-0.9-3.1-2.7-4.3s-4-1.8-6.6-1.8s-4.7,0.6-6.5,1.8
				c-1.8,1.2-2.7,2.6-2.7,4.3s0.9,3.1,2.7,4.3c1.8,1.2,4,1.8,6.5,1.8C1399.2-170.3,1401.4-170.9,1403.2-172.1z"/>
		</g>
	</g>
</g>
<g transform="matrix( -0.680328369140625, -0.029449462890625, -0.029449462890625, 0.680328369140625, 1321.95,307.3) ">
	<g>
		<g id="Layer1_2_MEMBER_7_FILL_2_">
			<path class="st2" d="M1402-188.4c0-1.4-0.5-2.6-1.4-3.6s-2.1-1.4-3.4-1.5h-0.1c-1.3,0-2.4,0.5-3.4,1.5s-1.5,2.2-1.5,3.6v10.8
				c0,2.4,1.6,3.7,4.9,3.7h0.1c3.2,0,4.8-1.2,4.8-3.7V-188.4z"/>
		</g>
	</g>
</g>
<g transform="matrix( -0.673828125, -0.0976409912109375, -0.0976409912109375, 0.673828125, 1330.55,336.2) ">
	<g>
		<g id="Layer1_2_MEMBER_8_FILL_1_">
			<path class="st2" d="M1414.2-125.9c-4.2,5.7-5.7,12.4-4.3,20c1.4,7.9,4.3,14.2,8.6,18.7c4.8,5.1,11,7.4,18.6,7
				c6.5-1.4,11.2-6.1,14.2-13.9c2.3-6,3.2-12.3,2.7-18.9c-0.6-7.6-2.9-13.1-7-16.5c-3.8-3.2-9.4-4.7-16.8-4.7
				C1423.6-134.3,1418.4-131.5,1414.2-125.9z"/>
		</g>
	</g>
</g>
<g transform="matrix( -1, 0, 0, 1, 1505.2,63.7) ">
	<g>
		<g id="Layer1_2_MEMBER_9_FILL_1_">
			<path class="st17" d="M1124,37.2c-4,0.9-7.2,2.7-9.6,5.3c-0.8,0.8-1.4,1.7-1.8,2.6l-0.5,1.1c-0.3-0.1-0.7-0.2-1.2-0.2l0.5,2
				l-1.3,0.3c0.3,0.5,0.6,1,0.8,1.6c-0.5,2.3-0.4,5.5,0.4,9.6c0.3-0.3,0.6-0.5,0.8-0.6c0.4-0.2,0.8-0.3,1.3-0.3h0.4l1.3,0.4l0.7,0.4
				l0,0l0.2,0.2l0,0l0,0l0,0l0.7,4.8c0.1,0.7,0.4,1.2,0.7,1.5l0.3,0.2c0.1,0.1,0.3,0.1,0.7,0.2c0.4,0.1,0.6,0.1,0.9,0
				c0.7-0.1,1.2-0.4,1.7-0.9c0.4-0.5,0.6-1.1,0.5-1.7l-0.3-1.7c-0.1-0.7,0.1-1.3,0.4-1.8c0.3-0.6,0.8-0.9,1.5-1l0.4-0.1
				c-0.2-1.5-0.4-3-0.7-4.4c-0.1-0.7,0-1.2,0.3-1.6c0.4-0.5,1.2-0.8,2.4-1.2h0.1l0.7-0.2l13.7-2l0.1-0.1c0.5-0.2,0.9-0.5,1.4-0.8
				c0.1-0.1,0.3-0.3,0.4-0.4l-1,0.2l-2.5-10.3l-2.4,0.3c-1-0.5-2.3-1-3.9-1.4C1129.4,36.8,1126.6,36.7,1124,37.2z"/>
		</g>
	</g>
</g>
<g transform="matrix( 0.97161865234375, 0.2366180419921875, -0.2366180419921875, 0.97161865234375, 153.9,-161.3) ">
	<g>
		<g id="Layer1_2_MEMBER_10_FILL_1_">
			<path class="st18" d="M270.8,216.1h-0.1c-0.8-0.1-1.8-0.6-3.1-1.6v1.7c0.3,0.2,0.6,0.4,0.9,0.5c0.5,0.2,1.1,0.4,1.6,0.5h0.1
				l13.8-1.3C276.7,216.2,272.3,216.2,270.8,216.1z"/>
		</g>
	</g>
</g>
<g transform="matrix( -0.67376708984375, -0.0974884033203125, -0.0974884033203125, 0.67376708984375, 1330.05,336.8) ">
	<g>
		<g id="Layer1_2_MEMBER_11_MEMBER_0_FILL">
			<path class="st8" d="M1447.8-111h0.2c0.2,0,0.4-0.1,0.6-0.3s0.2-0.4,0.3-0.6c0-0.3-0.1-0.5-0.2-0.7c-0.2-0.2-0.4-0.3-0.7-0.3
				l-5.7-0.3c-0.3,0-0.5,0.1-0.7,0.2c-0.2,0.2-0.3,0.4-0.3,0.7s0.1,0.5,0.2,0.7c0.2,0.2,0.4,0.3,0.7,0.3L1447.8-111z"/>
		</g>
	</g>
</g>
<g transform="matrix( -0.67376708984375, -0.0974884033203125, -0.0974884033203125, 0.67376708984375, 1330.05,336.8) ">
	<g>
		<g id="Layer1_2_MEMBER_12_MEMBER_0_FILL_1_">
			<path class="st8" d="M1426.7-111.2c0.2,0.2,0.4,0.3,0.7,0.2l5.7-0.3c0.3,0,0.5-0.1,0.7-0.3s0.3-0.4,0.2-0.7
				c0-0.2-0.1-0.4-0.3-0.6c-0.2-0.2-0.3-0.3-0.6-0.3l-5.9,0.3c-0.3,0-0.5,0.1-0.7,0.3s-0.3,0.4-0.2,0.7
				C1426.4-111.6,1426.5-111.4,1426.7-111.2z"/>
		</g>
	</g>
</g>
<g transform="matrix( -0.673828125, -0.0976409912109375, -0.0976409912109375, 0.673828125, 1330.55,336.2) ">
	<g>
		<g id="Layer1_2_MEMBER_13_FILL_1_">
			<path class="st9" d="M1429.7-105.5c0,0.4,0.1,0.7,0.4,0.9c0.2,0.2,0.5,0.4,0.9,0.4s0.7-0.1,0.9-0.4c0.2-0.3,0.4-0.6,0.4-0.9
				c0-0.4-0.1-0.7-0.4-0.9c-0.3-0.3-0.6-0.4-0.9-0.4c-0.4,0-0.7,0.1-0.9,0.4C1429.8-106.1,1429.7-105.9,1429.7-105.5z"/>
		</g>
	</g>
</g>
<g transform="matrix( -0.673828125, -0.0976409912109375, -0.0976409912109375, 0.673828125, 1330.55,336.2) ">
	<g>
		<g id="Layer1_2_MEMBER_14_FILL_2_">
			<path class="st9" d="M1443.4-105.1c0,0.4,0.1,0.7,0.4,0.9c0.2,0.2,0.5,0.4,0.9,0.4s0.7-0.1,0.9-0.4c0.2-0.3,0.4-0.6,0.4-0.9
				s-0.1-0.7-0.4-0.9c-0.3-0.3-0.6-0.4-0.9-0.4s-0.7,0.1-0.9,0.4C1443.5-105.7,1443.4-105.4,1443.4-105.1z"/>
		</g>
	</g>
</g>
<g transform="matrix( 0.97161865234375, 0.2366180419921875, -0.2366180419921875, 0.97161865234375, 153.9,-161.3) ">
	<g>
		<g id="Layer1_2_MEMBER_15_FILL_2_">
			<path class="st18" d="M283.2,213.3c0.7-0.2,1.5-0.4,2.5-0.8l1.3-0.5l-6.7,0.3c-4.7,0.1-7.6,0-8.8-0.3c-1-0.3-2.1-1.1-3.2-2.2v2.4
				c0.2,0.2,0.3,0.3,0.5,0.5c0.8,1,3.3,1.4,7.5,1.3C279.3,213.8,281.6,213.6,283.2,213.3z"/>
		</g>
	</g>
</g>
<g transform="matrix( -0.67376708984375, -0.0974884033203125, -0.0974884033203125, 0.67376708984375, 1330.05,336.8) ">
	<g>
		<g id="Layer1_2_MEMBER_16_MEMBER_0_FILL_1_">
			<path class="st2" d="M1404.2-109.3c1.6,4.4,2.5,6.7,2.5,6.8c1.2,2.6,2.4,3.2,3.5,2c2.3-2.6,3.4-6,3.6-10.2
				c-0.1-0.2-0.3-0.5-0.5-0.8c-0.5-0.7-1.2-1.3-2-1.9c-2.1-1.5-4-1.7-5.7-0.7C1403.8-113.4,1403.3-111.7,1404.2-109.3z"/>
		</g>
	</g>
</g>
<g transform="matrix( -0.67376708984375, -0.0974884033203125, -0.0974884033203125, 0.67376708984375, 1330.05,336.8) ">
	<g>
		<g id="Layer1_2_MEMBER_16_MEMBER_1_FILL">
			<path class="st10" d="M1408-110l2.7-0.4l-5.3-0.9l4,7.3L1408-110z"/>
		</g>
	</g>
</g>
<g transform="matrix( -0.673828125, -0.0976409912109375, -0.0976409912109375, 0.673828125, 1330.55,336.2) ">
	<g>
		<g id="Layer1_2_MEMBER_17_FILL">
			<path class="st10" d="M1437.8-96.2l2.4-0.6l-2.2-10.6L1437.8-96.2z"/>
		</g>
	</g>
</g>
<g transform="matrix( 1, 0, 0, 1, 0,0) ">
	<g>
		<g id="Layer1_2_MEMBER_18_FILL_2_">
			<path class="st10" d="M375.5,133.3c-0.2,0-0.3,0.1-0.4,0.2c-0.4,0.4-1,0.7-1.8,1c-0.9,0.3-1.8,0.4-2.7,0.3
				c-0.9-0.1-1.7-0.5-2.5-1c-0.7-0.5-1.1-1-1.5-1.5c-0.1-0.1-0.2-0.2-0.3-0.3c-0.2,0-0.3,0-0.5,0c-0.1,0.1-0.2,0.2-0.3,0.4
				c0,0.2,0,0.3,0,0.4c0.4,0.7,1,1.4,1.8,2c0.9,0.7,1.9,1.1,3,1.2c1,0.2,2.1,0,3.3-0.4l0,0c1-0.4,1.7-0.8,2.3-1.3
				c0.1-0.1,0.2-0.3,0.2-0.4c0-0.2-0.1-0.3-0.2-0.4C375.8,133.3,375.6,133.3,375.5,133.3z"/>
		</g>
	</g>
</g>
<g transform="matrix( 0.124969482421875, -0.66876220703125, -0.66876220703125, -0.124969482421875, 1171.95,780.95) ">
	<g>
		<g id="Layer1_2_MEMBER_19_MEMBER_0_FILL">
			<path class="st2" d="M645,1320.9c-0.1-1.7-0.8-3.1-2.1-4.3c-1.3-1.1-2.8-1.6-4.5-1.5s-3.1,0.8-4.3,2.1c-1.1,1.3-1.6,2.8-1.6,4.5
				l2.6,53.2c0.1,1.7,0.8,3.1,2.1,4.3c1.3,1.1,2.8,1.6,4.5,1.5s3.1-0.8,4.3-2.1c1.1-1.3,1.6-2.8,1.5-4.5L645,1320.9z"/>
		</g>
	</g>
</g>
<g transform="matrix( -0.4906005859375, -0.4716033935546875, -0.4716033935546875, 0.4906005859375, 1339.7,519.75) ">
	<g>
		<g id="Layer1_2_MEMBER_19_MEMBER_1_FILL">
			<path class="st2" d="M1368.2,579.3c-1.7,0-3.2,0.5-4.4,1.7c-1.2,1.2-1.9,2.6-1.9,4.3l-2,53.2c0,1.7,0.5,3.2,1.7,4.4
				c1.2,1.2,2.6,1.9,4.3,1.9c1.7,0,3.2-0.5,4.4-1.7s1.9-2.6,1.9-4.3l2-53.2c0-1.7-0.5-3.2-1.7-4.4
				C1371.4,580,1369.9,579.3,1368.2,579.3z"/>
		</g>
	</g>
</g>
<g transform="matrix( -0.4906005859375, -0.4716033935546875, -0.4716033935546875, 0.4906005859375, 1069.6,448.45) ">
	<g>
		<g id="Layer1_2_MEMBER_19_MEMBER_2_FILL">
			<path class="st15" d="M1004.9,377.8c-1.6,1.5-2.4,3.3-2.5,5.4l-1.5,38.8l15.5,0.6l1.5-38.8c0.1-2.1-0.6-4-2.1-5.6
				c-1.5-1.6-3.3-2.4-5.4-2.5C1008.3,375.7,1006.4,376.4,1004.9,377.8z"/>
		</g>
	</g>
</g>
<g transform="matrix( 0.4975433349609375, 0.8671875, -0.8671875, 0.4975433349609375, 916.5,-524.75) ">
	<g>
		<g id="Layer1_2_MEMBER_19_MEMBER_3_FILL">
			<path class="st15" d="M327.4,787.4c-2.6,0.8-4.5,2.3-5.8,4.7c-1.3,2.3-1.5,4.8-0.8,7.3c0.8,2.6,2.3,4.5,4.6,5.8
				c2.3,1.3,4.8,1.5,7.4,0.8c2.5-0.7,4.5-2.3,5.7-4.6c1.3-2.3,1.6-4.8,0.8-7.4c-0.7-2.5-2.3-4.5-4.7-5.7
				C332.4,786.9,330,786.6,327.4,787.4z"/>
		</g>
	</g>
</g>
<g transform="matrix( -0.6515960693359375, 0.1953125, -0.1953125, -0.6515960693359375, 1274.6,665.65) ">
	<g>
		<g id="Layer1_2_MEMBER_19_MEMBER_4_FILL">
			<path class="st10" d="M1124.6,1090.8l3,1.8c2.3,0.9,4.1,0.5,5.4-1.1c-0.8-1.2-2-3.4-3.5-6.4l-2-4.2L1124.6,1090.8z"/>
		</g>
	</g>
</g>
<g transform="matrix( -0.6515960693359375, 0.1953125, -0.1953125, -0.6515960693359375, 1274.6,665.65) ">
	<g>
		<g id="Layer1_2_MEMBER_19_MEMBER_5_FILL">
			<path class="st2" d="M1127.6,1080l-12.4-1l-0.4,12.6l2.8,4.4c2.1,3.1,3.8,5.1,5.1,6c1.5,1,3.5,1.8,6.1,2.2c1.6,0.3,3,0.4,4.2,0.3
				s0.7-2.1-1.5-6l-3.6-5.9L1127.6,1080z"/>
		</g>
	</g>
</g>
<g transform="matrix( -0.9915008544921875, 0.1298675537109375, 0.1298675537109375, 0.9915008544921875, 1453,8.85) ">
	<g transform="matrix( -0.991546630859375, 0.1298675537109375, 0.1298675537109375, 0.991546630859375, 1439.55,-197.5) ">
		<path id="Layer1_2_MEMBER_19_MEMBER_6_1_STROKES" class="st16" d="M1111.6,30.1l7-7.9"/>
	</g>
</g>
<g transform="matrix( 1, 0, 0, 1, 0,0) ">
	<g>
		<g id="Layer1_2_MEMBER_20_FILL_2_">
			<path class="st19" d="M362.5,111.3c-1.4,0.1-3.6,0.5-6.4,1c-4.7,0.9-6.9,1.8-6.4,2.8l1.4,0.4c2.4,0.3,8.5,0.6,18.2,0.9
				c7,0.2,11.8,0.2,14.4,0.1l-21.3-3.2C362.4,112.6,362.4,112,362.5,111.3z"/>
			<path class="st20" d="M381.6,96c-4.6-0.7-8.7,0.4-12.4,3.1c-3.7,2.7-5.9,6.4-6.6,11c-0.1,0.4-0.1,0.8-0.1,1.2
				c-0.1,0.7-0.1,1.3-0.1,1.9l21.3,3.2l11.3,1.7c0.3-0.9,0.5-1.9,0.7-3c0.7-4.6-0.4-8.7-3.1-12.4C389.9,98.9,386.2,96.8,381.6,96z"
				/>
		</g>
	</g>
</g>
<g transform="matrix( -0.643463134765625, 0.1547088623046875, 0.1547088623046875, 0.643463134765625, 1079.55,136.55) ">
	<g>
		<g id="Layer1_3_MEMBER_0_FILL_2_">
			<path class="st0" d="M1209.2-240.2c0-0.7-0.2-1.2-0.7-1.7s-1-0.7-1.7-0.7s-1.2,0.2-1.7,0.7s-0.7,1-0.7,1.7s0.2,1.2,0.7,1.7
				s1,0.7,1.7,0.7s1.2-0.2,1.7-0.7S1209.2-239.6,1209.2-240.2z"/>
		</g>
	</g>
</g>
<g transform="matrix( -0.175079345703125, 0.6376953125, 0.6376953125, 0.175079345703125, 603.15,183.25) ">
	<g>
		<g id="Layer1_3_MEMBER_1_MEMBER_0_FILL_1_">
			<path class="st21" d="M161.8-421.2c-2.1,0-3.9,0.8-5.4,2.3s-2.3,3.3-2.3,5.5l0,54.8c0,2.2,0.8,4,2.3,5.5c1.5,1.5,3.3,2.3,5.4,2.3
				c2.2,0,4-0.8,5.4-2.3c1.5-1.5,2.3-3.3,2.3-5.5l0-54.8c0-2.2-0.8-4-2.3-5.5C165.8-420.5,164-421.2,161.8-421.2z"/>
		</g>
	</g>
</g>
<g transform="matrix( 0.0390625, 0.6602783203125, 0.6602783203125, -0.0390625, 505.3,322.5) ">
	<g>
		<g id="Layer1_3_MEMBER_1_MEMBER_1_FILL_1_">
			<path class="st4" d="M-172-231.9c-0.4,0.3-0.6,0.7-0.6,1.2v9.4l46.6,0v-0.9c0-0.8-0.3-1.6-0.8-2.3s-1.2-1.1-2-1.3l-24.9-6.5
				c-1.1-0.3-2.3-0.3-3.5,0c-5.1,1.3-9.7,1.4-13.7,0.2C-171.2-232.3-171.6-232.2-172-231.9z"/>
		</g>
	</g>
</g>
<g transform="matrix( 0.0390625, 0.6602783203125, 0.6602783203125, -0.0390625, 505.3,322.5) ">
	<g>
		<g id="Layer1_3_MEMBER_1_MEMBER_2_FILL_1_">
			<path class="st3" d="M-171.7-219.3c0.6,0.6,1.2,0.8,2,0.8l42.4,0c0.4,0,0.7-0.1,1-0.4c0.3-0.3,0.4-0.6,0.4-1v-1.5l-46.6,0v0.1
				C-172.5-220.5-172.3-219.8-171.7-219.3z"/>
		</g>
	</g>
</g>
<g transform="matrix( 0.681610107421875, 0.731719970703125, -0.731719970703125, 0.681610107421875, 726.7,-413.75) ">
	<g>
		<g id="Layer1_3_MEMBER_2_FILL_2_">
			<path class="st22" d="M207.4,720.7l-6.8-11.3l-39,23.8L127.3,702c-1.2-1.1-2.6-1.6-4.2-1.5s-2.9,0.7-4,1.9l-1.1,1.2
				c-1.1,1.2-1.6,2.5-1.5,4.1s0.7,2.9,1.9,4l40.3,36.6c1.1,0.8,2.1,0.8,3.2,0L207.4,720.7z"/>
		</g>
	</g>
</g>
<g transform="matrix( -0.6544036865234375, 0.0986785888671875, 0.0986785888671875, 0.6544036865234375, 1106.9,153.25) ">
	<g>
		<g id="Layer1_3_MEMBER_3_FILL_1_">
			<path class="st21" d="M1257.7-53.9c-1.5-1.5-3.3-2.3-5.5-2.3c-2.1,0-3.9,0.8-5.4,2.3s-2.3,3.3-2.3,5.5V6.4c0,2.2,0.8,4,2.3,5.5
				s3.3,2.3,5.4,2.3c2.2,0,4-0.8,5.5-2.3s2.3-3.3,2.3-5.5v-54.8C1260-50.6,1259.2-52.4,1257.7-53.9z"/>
		</g>
	</g>
</g>
<g transform="matrix( -0.6544036865234375, 0.0986785888671875, 0.0986785888671875, 0.6544036865234375, 1106.9,153.25) ">
	<g>
		<g id="Layer1_3_MEMBER_4_FILL_1_">
			<path class="st22" d="M1259.7-172.5c-1.7-1.7-3.8-2.5-6.2-2.5h-2.5c-2.4,0-4.5,0.8-6.2,2.5s-2.5,3.8-2.5,6.2V-0.2l20,0v-166.1
				C1262.3-168.8,1261.5-170.8,1259.7-172.5z"/>
		</g>
	</g>
</g>
<g transform="matrix( -0.66180419921875, -0.0016937255859375, -0.0016937255859375, 0.66180419921875, 1179.65,191.9) ">
	<g>
		<g id="Layer1_3_MEMBER_5_FILL_1_">
			<path class="st4" d="M1338.4,134.3c-0.4,0.3-0.6,0.7-0.6,1.2v9.4l46.6,0V144c0-0.8-0.3-1.6-0.8-2.3c-0.5-0.7-1.2-1.1-2-1.3
				l-24.9-6.5c-1.1-0.3-2.3-0.3-3.5,0c-5.2,1.3-9.7,1.4-13.7,0.2C1339.2,133.9,1338.8,134,1338.4,134.3z"/>
		</g>
	</g>
</g>
<g transform="matrix( -0.66180419921875, -0.0016937255859375, -0.0016937255859375, 0.66180419921875, 1179.65,191.9) ">
	<g>
		<g id="Layer1_3_MEMBER_6_FILL_1_">
			<path class="st3" d="M1338.6,147c0.6,0.6,1.2,0.8,2,0.8l42.4,0c0.4,0,0.7-0.1,1-0.4s0.4-0.6,0.4-1v-1.5l-46.6,0v0.1
				C1337.8,145.8,1338.1,146.4,1338.6,147z"/>
		</g>
	</g>
</g>
<g transform="matrix( -0.643463134765625, 0.1547088623046875, 0.1547088623046875, 0.643463134765625, 1079.55,136.55) ">
	<g>
		<g id="Layer1_3_MEMBER_7_FILL_1_">
			<path class="st22" d="M1210.6-251.9l-56.9-0.5l-0.4,18.3c0,2.7,0.9,5,2.8,7c1.9,1.9,4.2,2.9,6.9,2.9l37.3,0.3
				c2.7,0,5-0.9,6.9-2.8s2.9-4.2,2.9-6.9L1210.6-251.9z"/>
		</g>
	</g>
</g>
<g transform="matrix( 0.62200927734375, -0.222381591796875, -0.222381591796875, -0.62200927734375, 619.6,606.7) ">
	<g>
		<g id="Layer1_3_MEMBER_8_MEMBER_0_FILL_1_">
			<path class="st2" d="M-286.3,930.1c-0.1-1.7-0.8-3.1-2.1-4.3c-1.3-1.1-2.8-1.6-4.5-1.5s-3.1,0.8-4.3,2.1
				c-1.1,1.3-1.6,2.8-1.6,4.5l2.6,53.2c0.1,1.7,0.8,3.1,2.1,4.3c1.3,1.1,2.8,1.6,4.5,1.5s3.1-0.8,4.3-2.1c1.1-1.3,1.6-2.8,1.5-4.5
				L-286.3,930.1z"/>
		</g>
	</g>
</g>
<g transform="matrix( -0.030517578125, -0.6601409912109375, -0.6601409912109375, 0.030517578125, 996.45,569.4) ">
	<g>
		<g id="Layer1_3_MEMBER_8_MEMBER_1_FILL_1_">
			<path class="st2" d="M775.1,1063.7c-1.7,0-3.2,0.5-4.4,1.7c-1.2,1.2-1.9,2.6-1.9,4.3l-2,53.2c0,1.7,0.5,3.2,1.7,4.4
				c1.2,1.2,2.6,1.9,4.3,1.9c1.7,0,3.2-0.5,4.4-1.7c1.2-1.2,1.9-2.6,1.9-4.3l2-53.2c0-1.7-0.5-3.2-1.7-4.4
				C778.3,1064.3,776.8,1063.7,775.1,1063.7z"/>
		</g>
	</g>
</g>
<g transform="matrix( -0.030517578125, -0.6601409912109375, -0.6601409912109375, 0.030517578125, 853.6,340.55) ">
	<g transform="matrix( 1, 0, 0, 1, 0,0) ">
		<g>
			<g id="_VisiTeli_V2_ai_Layer_1__Clip_Group__1_copy_2_0_Layer3_0_FILL_2_">
				<path class="st20" d="M412.9,862c-1.6,1.5-2.4,3.3-2.5,5.4l-1.5,38.8l15.5,0.6l1.5-38.8c0.1-2.1-0.6-4-2.1-5.6s-3.3-2.4-5.4-2.5
					C416.4,859.8,414.5,860.5,412.9,862z"/>
			</g>
		</g>
	</g>
</g>
<g transform="matrix( -0.030517578125, -0.6601409912109375, -0.6601409912109375, 0.030517578125, 998.75,579.35) ">
	<g>
		<g id="Layer1_3_MEMBER_8_MEMBER_3_FILL_1_">
			<path class="st20" d="M797.8,1059.7c-2.8-2.8-6.1-4.2-10-4.2c-3.9,0-7.2,1.4-10,4.2c-2.8,2.8-4.2,6.1-4.2,10s1.4,7.3,4.2,10
				c2.8,2.8,6.1,4.2,10,4.2c3.9,0,7.3-1.4,10-4.2c2.8-2.8,4.1-6.1,4.1-10C802,1065.8,800.6,1062.5,797.8,1059.7z"/>
		</g>
	</g>
</g>
<g transform="matrix( -0.5763397216796875, -0.3227996826171875, 0.3227996826171875, -0.5763397216796875, 851.55,627.7) ">
	<g>
		<g id="Layer1_3_MEMBER_8_MEMBER_4_FILL_1_">
			<path class="st2" d="M1259.8,281l-12.4-1l-0.4,12.6l2.8,4.4c2.1,3.1,3.8,5.1,5.1,6c1.5,1,3.5,1.8,6.1,2.2c1.6,0.3,3,0.4,4.2,0.3
				s0.7-2.1-1.5-6l-4.1-9.9C1269.8,294.6,1269.9,291.8,1259.8,281z"/>
		</g>
	</g>
</g>
<g transform="matrix( -0.030517578125, -0.6601409912109375, -0.6601409912109375, 0.030517578125, 996.45,569.4) ">
	<g transform="matrix( -0.0698699951171875, -1.5115966796875, -1.5115966796875, 0.0698699951171875, 930.3,1466.45) ">
		<path id="Layer1_3_MEMBER_8_MEMBER_5_1_STROKES_1_" class="st23" d="M447.8,905.1l15.5,0.7"/>
	</g>
</g>
<g transform="matrix( -0.66064453125, -0.033905029296875, -0.033905029296875, 0.66064453125, 910.45,320.8) ">
	<g transform="matrix( 1, 0, 0, 1, 0,0) ">
		<g>
			<g id="_VisiTeli_V2_ai_Layer_1__Clip_Group__0_copy_0_Layer3_0_FILL_5_">
				<path class="st20" d="M993.3-304.8c-2.8-2.8-6.2-4.2-10.2-4.2h-40c-3.9,0-7.1,1.4-9.9,4.1c-2.7,2.7-4.1,6-4.1,9.9v107.6h68.4
					v-107.2C997.5-298.5,996.1-301.9,993.3-304.8z"/>
			</g>
		</g>
	</g>
</g>
<g transform="matrix( 1, 0, 0, 1, 0,0) ">
	<g>
		<g id="Layer1_3_MEMBER_10_MEMBER_0_FILL_1_">
			<path class="st24" d="M290,111.6c-2.3,0.2-3.3,1.5-3.1,3.7l1.8,18.1c0.2,2.2,1.4,3.2,3.7,3l28.4-2.8c2.2-0.2,3.2-1.4,3-3.6
				l-1.8-18c-0.2-2.2-1.4-3.2-3.6-3L290,111.6z"/>
		</g>
	</g>
</g>
<g transform="matrix( 1, 0, 0, 1, 0,0) ">
	<g>
		<g id="Layer1_3_MEMBER_10_MEMBER_1_FILL_1_">
			<path class="st6" d="M289.3,110l0.4,18.2c0,2.3,1.2,3.4,3.4,3.3l28.6-0.6c2.2,0,3.3-1.2,3.3-3.4l-0.4-18.1
				c-0.1-2.3-1.2-3.4-3.4-3.3l-28.5,0.6C290.3,106.6,289.2,107.8,289.3,110z"/>
		</g>
	</g>
</g>
<g transform="matrix( 1, 0, 0, 1, 0,0) ">
	<g>
		<g id="Layer1_3_MEMBER_11_FILL_1_">
			<path class="st25" d="M293.4,114.2l-1.6,0.4c-1.6,0.5-2.1,1.3-1.7,2.4l9.6,25.2c0.4,1.1,1.4,1.4,3,0.9l35.8-11
				c1.6-0.5,2.2-1.3,1.7-2.3l-9.7-25.3c-0.4-1.1-1.4-1.4-3-0.9l-33.2,10.2c0.6-0.2,1.1-0.2,1.6,0c0.6,0.2,1,0.5,1.2,1l9,23.8
				c0.2,0.5,0.1,0.9-0.3,1.4c-0.3,0.4-0.8,0.8-1.5,0.9l-0.7,0.3c-0.7,0.2-1.3,0.2-1.9,0s-0.9-0.5-1.1-1l-9-23.8
				c-0.2-0.5-0.1-1,0.2-1.4C292.3,114.8,292.8,114.4,293.4,114.2 M326.8,129.1l-4.1-9.5L326.8,129.1 M332,126.9l-5.4-13.2L332,126.9
				z"/>
			<path class="st1" d="M294.4,113.9L294.4,113.9l-0.9,0.3h-0.1c-0.6,0.2-1.1,0.5-1.4,0.9c-0.4,0.5-0.4,0.9-0.2,1.4l9,23.8
				c0.2,0.5,0.6,0.8,1.1,1c0.6,0.2,1.2,0.1,1.9,0l0.7-0.3c0.7-0.2,1.2-0.5,1.5-0.9c0.4-0.5,0.4-0.9,0.3-1.4l-9-23.8
				c-0.2-0.5-0.6-0.8-1.2-1C295.5,113.8,295,113.8,294.4,113.9z"/>
		</g>
	</g>
	<g>
		<path id="Layer1_3_MEMBER_11_1_STROKES_1_" class="st26" d="M326.8,129.1l-4.1-9.5 M332,126.9l-5.4-13.2"/>
	</g>
</g>
<g transform="matrix( -0.5152587890625, -0.4140625, -0.4140625, 0.5152587890625, 1268.5,363.35) ">
	<g>
		<g id="Layer1_3_MEMBER_12_MEMBER_0_FILL_1_">
			<path class="st2" d="M1348.5,592.6c-0.1-1.7-0.8-3.1-2.1-4.3c-1.3-1.1-2.8-1.6-4.5-1.5s-3.1,0.8-4.3,2.1
				c-1.1,1.3-1.6,2.8-1.6,4.5l2.6,53.2c0.1,1.7,0.8,3.1,2.1,4.3c1.3,1.1,2.8,1.6,4.5,1.5s3.1-0.8,4.3-2.1c1.1-1.3,1.6-2.8,1.5-4.5
				L1348.5,592.6z"/>
		</g>
	</g>
</g>
<g transform="matrix( -0.40576171875, 0.521514892578125, 0.521514892578125, 0.40576171875, 942.6,49) ">
	<g>
		<g id="Layer1_3_MEMBER_12_MEMBER_1_FILL_1_">
			<path class="st2" d="M644.8-730.1c-1.7,0-3.2,0.5-4.4,1.7s-1.9,2.6-1.9,4.3l-2,53.2c0,1.7,0.5,3.2,1.7,4.4
				c1.2,1.2,2.6,1.9,4.3,1.9s3.2-0.5,4.4-1.7s1.9-2.6,1.9-4.3l2-53.2c0-1.7-0.5-3.2-1.7-4.4C648-729.4,646.5-730.1,644.8-730.1z"/>
		</g>
	</g>
</g>
<g transform="matrix( -0.40576171875, 0.521514892578125, 0.521514892578125, 0.40576171875, 902.6,317.45) ">
	<g transform="matrix( 1, 0, 0, 1, 0,0) ">
		<g>
			<g id="_VisiTeli_V2_ai_Layer_1__Clip_Group__1_copy_0_Layer3_0_FILL_5_">
				<path class="st20" d="M281.9-932.5c-1.6,1.5-2.4,3.3-2.5,5.4l-1.5,38.8l15.5,0.6l1.5-38.8c0.1-2.1-0.6-4-2.1-5.6
					s-3.3-2.4-5.4-2.5C285.3-934.6,283.4-933.9,281.9-932.5z"/>
			</g>
		</g>
	</g>
</g>
<g transform="matrix( -0.40576171875, 0.521514892578125, 0.521514892578125, 0.40576171875, 942.6,49) ">
	<g>
		<g id="Layer1_3_MEMBER_12_MEMBER_3_FILL_1_">
			<path class="st20" d="M661.3-735.2c-2.8-2.8-6.1-4.2-10-4.2s-7.2,1.4-10,4.2s-4.2,6.1-4.2,10s1.4,7.3,4.2,10
				c2.8,2.8,6.1,4.2,10,4.2s7.3-1.4,10-4.2c2.8-2.8,4.1-6.1,4.1-10C665.5-729.1,664.1-732.4,661.3-735.2z"/>
		</g>
	</g>
</g>
<g transform="matrix( -0.3790283203125, -0.5414886474609375, -0.5414886474609375, 0.3790283203125, 1270.6,459.05) ">
	<g>
		<g id="Layer1_3_MEMBER_12_MEMBER_4_FILL_1_">
			<path class="st10" d="M1237.4,920.1l3,1.8c2.3,0.9,4.1,0.5,5.4-1.1c-0.8-1.2-2-3.4-3.5-6.4l-2-4.2L1237.4,920.1z"/>
		</g>
	</g>
</g>
<g transform="matrix( -0.3790283203125, -0.5414886474609375, -0.5414886474609375, 0.3790283203125, 1270.6,459.05) ">
	<g>
		<g id="Layer1_3_MEMBER_12_MEMBER_5_FILL_1_">
			<path class="st2" d="M1240.4,909.4l-12.4-1l-0.4,12.6l2.8,4.4c2.1,3.1,3.8,5.1,5.1,6c1.5,1,3.5,1.8,6.1,2.2
				c1.6,0.3,3,0.4,4.2,0.3c1.2-0.1,0.7-2.1-1.5-6l-3.6-5.9L1240.4,909.4z"/>
		</g>
	</g>
</g>
<g transform="matrix( -0.40576171875, 0.521514892578125, 0.521514892578125, 0.40576171875, 942.6,49) ">
	<g transform="matrix( -0.9293212890625, 1.194427490234375, 1.194427490234375, 0.9293212890625, 817.45,-1171.4) ">
		<path id="Layer1_3_MEMBER_12_MEMBER_6_1_STROKES_1_" class="st23" d="M887-707.7l15.5,0.7"/>
	</g>
</g>
<g transform="matrix( -0.6609344482421875, -0.033843994140625, -0.033843994140625, 0.6609344482421875, 1158.55,207.5) ">
	<g>
		<g id="Layer1_3_MEMBER_13_FILL_1_">
			<path class="st19" d="M1335-114.8c1.8-1.2,2.7-2.6,2.7-4.3c0-1.7-0.9-3.1-2.7-4.3c-1.8-1.2-4-1.8-6.6-1.8c-2.6,0-4.7,0.6-6.5,1.8
				s-2.7,2.6-2.7,4.3c0,1.7,0.9,3.1,2.7,4.3c1.8,1.2,4,1.8,6.5,1.8C1331-113.1,1333.2-113.7,1335-114.8z"/>
		</g>
	</g>
</g>
<g transform="matrix( -0.6609344482421875, -0.033843994140625, -0.033843994140625, 0.6609344482421875, 1158.55,207.5) ">
	<g>
		<g id="Layer1_3_MEMBER_14_FILL_1_">
			<path class="st2" d="M1333.8-131.2c0-1.4-0.5-2.6-1.4-3.6s-2.1-1.4-3.4-1.5h-0.1c-1.3,0-2.4,0.5-3.4,1.5s-1.5,2.2-1.5,3.6v10.8
				c0,2.4,1.6,3.7,4.9,3.7h0.1c3.2,0,4.8-1.2,4.8-3.7V-131.2z"/>
		</g>
	</g>
</g>
<g transform="matrix( -0.619354248046875, -0.233154296875, -0.233154296875, 0.619354248046875, 1176.3,298.3) ">
	<g>
		<g id="Layer1_3_MEMBER_15_FILL_1_">
			<path class="st2" d="M1364.4,121.2c-4.2,5.7-5.7,12.4-4.3,20c1.4,7.9,4.3,14.2,8.6,18.7c4.8,5.1,11,7.4,18.6,7
				c6.5-1.4,11.2-6.1,14.2-13.9c2.3-6,3.2-12.3,2.7-18.9c-0.6-7.6-2.9-13.1-7-16.5c-3.8-3.2-9.4-4.7-16.8-4.7
				C1373.8,112.8,1368.6,115.6,1364.4,121.2z"/>
		</g>
	</g>
</g>
<g transform="matrix( -0.619354248046875, -0.233154296875, -0.233154296875, 0.619354248046875, 1176.3,298.3) ">
	<g>
		<g id="Layer1_3_MEMBER_16_FILL_1_">
			<path class="st8" d="M1397.2,110.4c-1.4-1-3.1-2-5.3-2.9c-4.3-1.9-8.3-2.7-12.2-2.3c-6,0.5-11.1,2.4-15.1,5.7
				c-1.3,1-2.3,2.2-3.2,3.3l-1,1.5c-0.5-0.2-1.1-0.4-1.8-0.6c-1.5-0.4-3-0.6-4.4-0.5c1.3,1.5,2.1,2.4,2.3,2.8
				c0.7,0.9,1.2,2.1,1.5,3.5c-1.3,3.2-1.7,7.9-1.4,14.1c0.5-0.4,0.9-0.6,1.3-0.7c0.6-0.2,1.3-0.2,2-0.1l0.5,0.1l0,0l0.8,0.3l1,0.6
				l0.9,0.8v0.1l0.1,0.1l0.1,0.1l0,0l0,0l0,0v7.2c0,1.1,0.2,1.9,0.7,2.4l0.3,0.4c0.2,0.1,0.5,0.3,0.9,0.4c0.5,0.2,0.9,0.2,1.2,0.2
				c0.9,0,1.8-0.3,2.6-1c0.8-0.7,1.2-1.5,1.2-2.4V141c0-1,0.3-1.8,1-2.5s1.5-1.1,2.4-1.2l0.7-0.1c0-2.2,0-4.4,0-6.6
				c0-1,0.2-1.7,0.8-2.2c0.7-0.6,1.9-1,3.7-1.2h0.1l1.1-0.1l20.4-0.1l0.2-0.1c0.8-0.2,1.5-0.5,2.2-0.9c1.2-0.7,2.1-1.5,2.7-2.4
				s0.9-1.7,1-2.6v-1h-5l0.9-1c0.7-0.9,1.2-2,1.6-3.3s0.7-2.5,0.9-3.9l0.2-1.6l-7.9,0V110.4z"/>
		</g>
	</g>
</g>
<g transform="matrix( -0.619354248046875, -0.233154296875, -0.233154296875, 0.619354248046875, 1176.3,298.3) ">
	<g>
		<g id="Layer1_3_MEMBER_17_FILL_1_">
			<path class="st18" d="M1399.7,125.5h-0.2c-2.2,0.4-8.6,0.9-19.2,1.7l20.3-0.1l0.2-0.1c0.8-0.2,1.5-0.5,2.2-0.9
				c1.2-0.7,2.1-1.5,2.7-2.4s0.9-1.7,1-2.6v-1c-0.7,0.8-1.5,1.6-2.5,2.5C1402.4,124.3,1400.9,125.3,1399.7,125.5z"/>
		</g>
	</g>
</g>
<g transform="matrix( -0.61920166015625, -0.233001708984375, -0.233001708984375, 0.61920166015625, 1175.65,298.65) ">
	<g>
		<g id="Layer1_3_MEMBER_18_MEMBER_0_FILL_1_">
			<path class="st8" d="M1398.1,136.3h0.2c0.2,0,0.4-0.1,0.6-0.3c0.2-0.2,0.2-0.4,0.3-0.6c0-0.3-0.1-0.5-0.2-0.7
				c-0.2-0.2-0.4-0.3-0.7-0.3l-5.7-0.3c-0.3,0-0.5,0.1-0.7,0.2c-0.2,0.2-0.3,0.4-0.3,0.7c0,0.3,0.1,0.5,0.2,0.7s0.4,0.3,0.7,0.3
				L1398.1,136.3z"/>
		</g>
	</g>
</g>
<g transform="matrix( -0.61920166015625, -0.233001708984375, -0.233001708984375, 0.61920166015625, 1175.65,298.65) ">
	<g>
		<g id="Layer1_3_MEMBER_19_MEMBER_0_FILL_1_">
			<path class="st8" d="M1377,136c0.2,0.2,0.4,0.3,0.7,0.2l5.7-0.3c0.3,0,0.5-0.1,0.7-0.3c0.2-0.2,0.3-0.4,0.2-0.7
				c0-0.2-0.1-0.4-0.3-0.6c-0.2-0.2-0.3-0.3-0.6-0.3l-5.9,0.3c-0.3,0-0.5,0.1-0.7,0.3c-0.2,0.2-0.3,0.4-0.2,0.7
				C1376.7,135.6,1376.8,135.8,1377,136z"/>
		</g>
	</g>
</g>
<g transform="matrix( -0.619354248046875, -0.233154296875, -0.233154296875, 0.619354248046875, 1176.3,298.3) ">
	<g>
		<g id="Layer1_3_MEMBER_20_FILL_1_">
			<path class="st9" d="M1379.9,141.6c0,0.4,0.1,0.7,0.4,0.9c0.2,0.2,0.5,0.4,0.9,0.4s0.7-0.1,0.9-0.4c0.2-0.3,0.4-0.6,0.4-0.9
				c0-0.4-0.1-0.7-0.4-0.9c-0.3-0.3-0.6-0.4-0.9-0.4c-0.4,0-0.7,0.1-0.9,0.4C1380,141,1379.9,141.3,1379.9,141.6z"/>
		</g>
	</g>
</g>
<g transform="matrix( -0.619354248046875, -0.233154296875, -0.233154296875, 0.619354248046875, 1176.3,298.3) ">
	<g>
		<g id="Layer1_3_MEMBER_21_FILL_1_">
			<path class="st9" d="M1393.6,142.1c0,0.4,0.1,0.7,0.4,0.9c0.2,0.2,0.5,0.4,0.9,0.4s0.7-0.1,0.9-0.4c0.2-0.3,0.4-0.6,0.4-0.9
				s-0.1-0.7-0.4-0.9c-0.3-0.3-0.6-0.4-0.9-0.4c-0.4,0-0.7,0.1-0.9,0.4C1393.7,141.4,1393.6,141.7,1393.6,142.1z"/>
		</g>
	</g>
</g>
<g transform="matrix( -0.619354248046875, -0.233154296875, -0.233154296875, 0.619354248046875, 1176.3,298.3) ">
	<g>
		<g id="Layer1_3_MEMBER_22_FILL_1_">
			<path class="st18" d="M1404.4,115.7c0.6-1.7,1-3.4,1.1-5.3c-0.5,1.2-1.3,2.5-2.2,3.9c-1.8,2.7-3.7,4.5-5.6,5.3
				c-1.6,0.7-5.8,1.2-12.7,1.7l-9.9,0.5l2,0.6c1.5,0.4,2.8,0.7,3.9,0.8c2.4,0.3,5.8,0.2,10.1,0c6.1-0.4,9.6-1.4,10.8-2.9
				C1402.9,118.9,1403.7,117.4,1404.4,115.7z"/>
		</g>
	</g>
</g>
<g transform="matrix( -0.61920166015625, -0.233001708984375, -0.233001708984375, 0.61920166015625, 1175.65,298.65) ">
	<g>
		<g id="Layer1_3_MEMBER_23_MEMBER_0_FILL_1_">
			<path class="st2" d="M1354.6,137.9c1.6,4.4,2.5,6.7,2.5,6.8c1.2,2.6,2.4,3.2,3.5,2c2.3-2.6,3.4-6,3.6-10.2
				c-0.1-0.2-0.3-0.5-0.5-0.8c-0.5-0.7-1.2-1.3-2-1.9c-2.1-1.5-4-1.7-5.7-0.7C1354.1,133.9,1353.7,135.6,1354.6,137.9z"/>
		</g>
	</g>
</g>
<g transform="matrix( -0.61920166015625, -0.233001708984375, -0.233001708984375, 0.61920166015625, 1175.65,298.65) ">
	<g>
		<g id="Layer1_3_MEMBER_23_MEMBER_1_FILL_1_">
			<path class="st10" d="M1358.4,137.3l2.7-0.4l-5.3-0.9l4,7.3L1358.4,137.3z"/>
		</g>
	</g>
</g>
<g transform="matrix( -0.619354248046875, -0.233154296875, -0.233154296875, 0.619354248046875, 1176.3,298.3) ">
	<g>
		<g id="Layer1_3_MEMBER_24_FILL_1_">
			<path class="st10" d="M1388,151l2.4-0.6l-2.2-10.6L1388,151z"/>
		</g>
	</g>
</g>
<g transform="matrix( 1, 0, 0, 1, 0,0) ">
	<g>
		<g id="Layer1_3_MEMBER_25_FILL">
			<path class="st10" d="M275.9,68.2c-0.1,0.2-0.1,0.3,0,0.4c0.2,0.8,0.7,1.5,1.3,2.3l0,0c0.7,0.8,1.6,1.4,2.5,1.7
				c0.9,0.4,2,0.5,3.1,0.3c1-0.1,1.8-0.4,2.4-0.7c0.1-0.1,0.2-0.2,0.3-0.4c0-0.1,0-0.3-0.1-0.4s-0.2-0.2-0.4-0.3
				c-0.1,0-0.3,0-0.4,0.1c-0.4,0.3-1.1,0.5-1.9,0.6c-1,0.1-1.8,0-2.6-0.2c-0.8-0.3-1.5-0.8-2.1-1.5l0,0c-0.5-0.6-0.9-1.2-1.1-1.8
				c0-0.1-0.1-0.3-0.3-0.4c-0.1-0.1-0.3-0.1-0.4,0C276.1,68,276,68.1,275.9,68.2z"/>
		</g>
	</g>
</g>
<g transform="matrix( 1, 0, 0, 1, 0,0) ">
	<g>
		<g id="Layer1_3_MEMBER_26_FILL_1_">
			<path class="st6" d="M295,99.3h-6c-0.7,0-1.4,0.2-1.9,0.5c-0.5,0.4-0.8,0.8-0.8,1.4v0.9c0,0.5,0.3,1,0.8,1.4s1.1,0.6,1.9,0.6h6
				c0.7,0,1.4-0.2,1.9-0.6s0.8-0.8,0.8-1.4v-0.9c0-0.5-0.3-1-0.8-1.4S295.8,99.3,295,99.3z"/>
		</g>
	</g>
</g>
<g transform="matrix( 1, 0, 0, 1, 0,0) ">
	<g>
		<g id="Layer1_3_MEMBER_27_MEMBER_0_FILL">
			<path class="st27" d="M274.9,92.1c0.5-3.4,1.2-6.7,2.3-9.9l-7-0.6c-0.4,2-0.6,3.9-0.6,5.9c-0.1,3.6,0.5,7.1,1.6,10.5l3.6,9.5
				c-0.3-2.3,0.2-3,1.5-2c0.7,0.5,1.1,0.7,1.2,0.6c0,0.1,0.1,0.1,0.1,0.2c1.3,2,1.1,0.9-0.4-3.1c-0.3-0.7-0.5-1.3-0.7-1.8
				c-0.8-2.7-1.3-4.6-1.5-5.7S274.7,93.4,274.9,92.1z"/>
		</g>
	</g>
</g>
<g transform="matrix( 1, 0, 0, 1, 0,0) ">
	<g>
		<g id="Layer1_3_MEMBER_27_MEMBER_0_MEMBER_0_FILL">
			<path class="st28" d="M284.5,98.5c1.5-1,4-2.7,7.6-5.1c4.3-3,7.1-6.3,8.4-10H294c0.1,1.2,0,2.2-0.4,3c-1.4,2.5-3.4,4.6-5.8,6.3
				c-0.8,0.6-1.9,1.2-3.6,2c-1.8,0.9-3.1,1.6-3.9,2c-0.2,0.1-0.5,0.3-0.8,0.5c0,0,0,0,0,0.1h-0.1c-2.4,1.7-3.9,3.7-4.7,6.1
				c0.2-0.1,0.5-0.2,0.7-0.4c0.4-0.2,0.8-0.3,1.2-0.4c0.1,0,0.6,0.1,1.5,0.3c0.9,0.2,1.6,0.3,2,0.3
				C280.5,101.9,282,100.3,284.5,98.5z"/>
		</g>
	</g>
</g>
<g transform="matrix( 1, 0, 0, 1, 0,0) ">
	<g>
		<g id="Layer1_3_MEMBER_27_MEMBER_1_FILL">
			<path class="st7" d="M281.1,103.5c-0.6-0.4-1.2-0.8-1.9-1.1c-1-0.4-2.1-0.6-3.3-0.4c-0.6,0.1-1.1,0.2-1.6,0.4l0,0
				c0,0-0.1,0-0.1,0.1l0,0c-0.5,0.2-0.9,0.4-1.3,0.7c0.4-0.1,0.9-0.2,1.4-0.3c1.8-0.2,3.5,0.3,4.9,1.4c1.5,1.2,2.3,2.7,2.5,4.6
				s-0.3,3.5-1.5,5c-1,1.2-2.2,2-3.6,2.4c0.3,0,0.6,0,0.9-0.1c2-0.2,3.5-1.1,4.7-2.6c1.3-1.5,1.8-3.2,1.6-5.2
				C283.5,106.3,282.6,104.8,281.1,103.5z"/>
			<path class="st1" d="M268.2,110.3c0.2,1.9,1,3.4,2.5,4.5c1.5,1.2,3.2,1.7,5,1.5c0.3-0.1,0.6-0.1,0.9-0.1c1.5-0.4,2.7-1.2,3.6-2.4
				c1.2-1.4,1.7-3.1,1.5-5s-1-3.4-2.5-4.6c-1.4-1.1-3.1-1.6-4.9-1.4c-0.5,0-1,0.1-1.4,0.3c-1.3,0.4-2.3,1.1-3.2,2.2
				C268.4,106.8,268,108.4,268.2,110.3 M274.3,107.2c0.2-0.4,0.5-0.9,0.8-1.5c0.2,0,0.2-0.1,0.2-0.3c0,0.6-0.1,2-0.3,4
				c-0.2,2.1-0.3,3.4-0.3,3.8c0-0.4,0.1-1.6,0.3-3.8c0.2-2,0.3-3.4,0.3-4c0,0.2-0.1,0.3-0.2,0.3
				C274.8,106.3,274.5,106.8,274.3,107.2c-0.5,0.8-1.2,1.6-2.1,2.3C273.1,108.8,273.8,108,274.3,107.2 M273,113.9
				c1.1-0.4,2.4-0.6,3.8-0.7C275.4,113.4,274.1,113.6,273,113.9z"/>
		</g>
	</g>
	<g>
		<path id="Layer1_3_MEMBER_27_MEMBER_1_1_STROKES" class="st29" d="M272.2,109.5c0.9-0.8,1.6-1.6,2.1-2.3c0.2-0.4,0.5-0.9,0.8-1.5
			c0.2,0,0.2-0.1,0.2-0.3c0,0.6-0.1,2-0.3,4c-0.2,2.1-0.3,3.4-0.3,3.8 M273,113.9c1.1-0.4,2.4-0.6,3.8-0.7"/>
	</g>
</g>
<g transform="matrix( 1, 0, 0, 1, 0,0) ">
	<g>
		<g id="Layer1_4_MEMBER_0_FILL_1_">
			<path class="st30" d="M339.1,339.5c-0.8,0-1.2,0.6-1.2,1.8V386c0,1.2,0.4,1.8,1.2,1.8h86.8c0.9,0,1.3-0.6,1.3-1.8v-44.7
				c0-1.2-0.4-1.8-1.3-1.8H339.1z"/>
		</g>
	</g>
</g>
<g transform="matrix( 1, 0, 0, 1, 0,0) ">
	<g>
		<g id="Layer1_4_MEMBER_1_FILL_1_">
			<path class="st3" d="M398.7,371.8l-6.3,7h3.6v6.8l5.2,0.1v-6.8h3.8L398.7,371.8z"/>
		</g>
	</g>
</g>
<g transform="matrix( 1, 0, 0, 1, 0,0) ">
	<g>
		<g id="Layer1_4_MEMBER_2_FILL_1_">
			<path class="st3" d="M412.5,371.8l-6.3,7h3.6v6.8l5.2,0.1v-6.8h3.8L412.5,371.8z"/>
		</g>
	</g>
</g>
<g transform="matrix( 1, 0, 0, 1, 0,0) ">
	<g>
		<g id="Layer1_4_MEMBER_3_FILL_1_">
			<path class="st3" d="M383.6,370c-0.6,0-0.9,0.3-0.9,0.9v7.3c0,0.6,0.3,0.9,0.9,0.9h1v5.1h-1.5c-0.2,0-0.4,0.1-0.5,0.2
				c-0.1,0.1-0.2,0.3-0.2,0.5s0.1,0.4,0.2,0.5c0.2,0.2,0.3,0.2,0.5,0.2h5c0.2,0,0.4-0.1,0.5-0.2c0.1-0.1,0.2-0.3,0.2-0.5
				s-0.1-0.4-0.2-0.5c-0.1-0.2-0.3-0.2-0.5-0.2h-1.5v-5.1h0.8c0.6,0,0.9-0.3,0.9-0.9v-7.3c0-0.6-0.3-0.9-0.9-0.9H383.6z"/>
		</g>
	</g>
</g>
<g transform="matrix( 1, 0, 0, 1, 0,0) ">
	<g>
		<g id="Layer1_5_FILL_4_">
			<path class="st28" d="M337.9,289.5c0-1.4-0.6-2.1-1.8-2.1h-85.7c-1.2,0-1.8,0.7-1.8,2.1v96c0,1.4,0.6,2.1,1.8,2.1h85.7
				c1.2,0,1.8-0.7,1.8-2.1V289.5z"/>
		</g>
	</g>
</g>
<g transform="matrix( 1, 0, 0, 1, 0,0) ">
	<g>
		<g id="Layer1_6_MEMBER_0_FILL_1_">
			<path class="st31" d="M169.7,320.8c-0.9,0-1.3,0.5-1.3,1.4v64.3c0,0.9,0.4,1.3,1.3,1.3h77.7c0.8,0,1.3-0.4,1.3-1.3v-64.3
				c0-0.9-0.4-1.4-1.3-1.4H169.7z"/>
		</g>
	</g>
</g>
<g transform="matrix( 1, 0, 0, 1, 0,0) ">
	<g>
		<g id="Layer1_6_MEMBER_1_FILL_1_">
			<path class="st3" d="M178,374.8v9.8l7.4,0.1v-9.7h5.5l-9-10.2l-9.1,10.1L178,374.8L178,374.8z"/>
		</g>
	</g>
</g>
<g transform="matrix( 1, 0, 0, 1, 0,0) ">
	<g>
		<g id="Layer1_6_MEMBER_2_FILL_1_">
			<path class="st3" d="M203.5,384.6v-9.7h5.5l-9-10.2l-9.1,10.1h5.2v9.8L203.5,384.6z"/>
		</g>
	</g>
</g>
<g transform="matrix( 1, 0, 0, 1, 0,0) ">
	<g>
		<g id="Layer1_7_FILL_2_">
			<path class="st3" d="M330.1,363.1c-2-2-4.5-3-7.3-3c-2.9,0-5.3,1-7.3,3s-3,4.5-3,7.3c0,0.2,0,0.4,0,0.7h1.1l-0.1-0.2
				c0-1.1,0.6-1.7,1.7-1.7c1.1-0.1,1.7,0.5,1.7,1.8c0,0.1,0,0.1,0,0.2h1l-0.1-0.4c0-1.2,0.6-1.7,1.7-1.7s1.7,0.6,1.7,1.7
				c0,0.1,0,0.2,0,0.4h0.6l0,0c0.1,5.7,0.1,9.1-0.2,10.4c-0.1,0.3-0.2,0.5-0.3,0.6c-0.1,0-0.3,0-0.5,0c-0.7-0.3-1.2-1.6-1.5-3.8
				c0-0.3-0.2-0.6-0.4-0.8c-0.3-0.2-0.6-0.3-0.9-0.2c-0.3,0-0.6,0.2-0.8,0.4c-0.2,0.3-0.3,0.5-0.2,0.9c0.4,3.6,1.5,5.5,3.1,5.8
				c1,0.3,1.8,0.2,2.4-0.2c0.6-0.3,1.1-1,1.3-2l0,0c0.3-1.3,0.4-5,0.3-11h0.5c0-0.1,0-0.2,0-0.2c0-1.2,0.6-1.7,1.7-1.7
				c1.1,0.1,1.7,0.7,1.7,1.7c0,0.1,0,0.1,0,0.2h0.9l-0.1-0.2c0-1.2,0.6-1.7,1.7-1.7c1.1,0.1,1.7,0.7,1.7,1.7c0,0.1,0,0.1,0,0.2h0.7
				c0-0.2,0-0.4,0-0.7C333.2,367.6,332.2,365.2,330.1,363.1 M322.6,369c0,0.1,0.1,0.4,0.1,1C322.6,369.5,322.6,369,322.6,369z"/>
		</g>
	</g>
	<g>
		<path id="Layer1_7_1_STROKES_1_" class="st32" d="M322.6,369c0,0.1,0.1,0.4,0.1,1.1"/>
	</g>
</g>
</svg>
