<svg id="Layer_1" data-name="Layer 1" xmlns="http://www.w3.org/2000/svg" xmlns:xlink="http://www.w3.org/1999/xlink" viewBox="0 0 708.66 338.33"><defs><style>.cls-1,.cls-21,.cls-5{fill:none;}.cls-2{clip-path:url(#clip-path);}.cls-3{fill:#ffe4cc;}.cls-4{fill:#ffdc83;}.cls-5{stroke:#6d6d6d;stroke-miterlimit:10;stroke-width:2.41px;}.cls-18,.cls-6{fill:#fff;}.cls-6{stroke:#3f5aa8;stroke-width:5px;}.cls-21,.cls-6{stroke-linecap:round;stroke-linejoin:round;}.cls-17,.cls-7{fill:#dc846a;}.cls-8{fill:#a7a9ac;}.cls-9{fill:#fec228;}.cls-10{fill:#353560;}.cls-11,.cls-14{fill:#f8ab8d;}.cls-12{fill:#648ec9;}.cls-13{fill:#3f5aa8;}.cls-14,.cls-17{fill-rule:evenodd;}.cls-15{fill:#8b6339;}.cls-16{fill:#754d24;}.cls-19{fill:#6d6d6d;}.cls-20{fill:#414042;}.cls-21{stroke:#ffdc83;stroke-width:2.73px;}.cls-22{fill:#fec82b;}.cls-23{clip-path:url(#clip-path-2);}.cls-24{opacity:0.4;}.cls-25{fill:#58595b;}</style><clipPath id="clip-path"><polygon id="_Clipping_Path_" data-name="&lt;Clipping Path&gt;" class="cls-1" points="496.72 326.39 -166.75 326.39 211.94 -62.13 875.41 -62.13 496.72 326.39"/></clipPath><clipPath id="clip-path-2"><path id="_Clipping_Path_2" data-name="&lt;Clipping Path&gt;" class="cls-1" d="M405.36,166.33l-1.06.05-32.72,1.68.4,7.87a11.79,11.79,0,0,0,12.38,11.17l9.82-.5c3.67-.19,6.76-4.41,8.78-8.69a2.78,2.78,0,0,1,4.9-.25c2.45,4.06,5.95,7.94,9.62,7.75l9.82-.5a11.79,11.79,0,0,0,11.17-12.38l-.4-7.87Z"/></clipPath></defs><title>R-L23-U27</title><g class="cls-2"><g id="_Group_" data-name="&lt;Group&gt;"><g id="_Group_2" data-name="&lt;Group&gt;"><rect id="_Rectangle_" data-name="&lt;Rectangle&gt;" class="cls-3" x="-37.17" y="55.81" width="778.33" height="22"/><rect id="_Rectangle_2" data-name="&lt;Rectangle&gt;" class="cls-4" x="-30.1" y="180.24" width="775.93" height="22"/><rect id="_Rectangle_3" data-name="&lt;Rectangle&gt;" class="cls-4" x="-37.17" y="97.29" width="778.33" height="22"/><rect id="_Rectangle_4" data-name="&lt;Rectangle&gt;" class="cls-3" x="-30.1" y="221.71" width="775.93" height="22"/><rect id="_Rectangle_5" data-name="&lt;Rectangle&gt;" class="cls-3" x="-37.17" y="138.76" width="778.33" height="22"/><rect id="_Rectangle_6" data-name="&lt;Rectangle&gt;" class="cls-4" x="-30.1" y="263.19" width="775.93" height="22"/><rect id="_Rectangle_7" data-name="&lt;Rectangle&gt;" class="cls-4" x="-37.17" y="14.33" width="778.33" height="22"/><rect id="_Rectangle_8" data-name="&lt;Rectangle&gt;" class="cls-3" x="-30.1" y="304.67" width="775.93" height="22"/></g><g id="_Group_3" data-name="&lt;Group&gt;"><line id="_Path_" data-name="&lt;Path&gt;" class="cls-5" x1="291.98" y1="64.94" x2="312.43" y2="107.75"/><line id="_Path_2" data-name="&lt;Path&gt;" class="cls-5" x1="292.2" y1="64.94" x2="271.75" y2="107.75"/></g><rect id="_Rectangle_9" data-name="&lt;Rectangle&gt;" class="cls-6" x="246.48" y="107.75" width="91.23" height="131.36" rx="8.78" ry="8.78" transform="translate(2.67 -4.42) rotate(0.87)"/><path id="_Path_3" data-name="&lt;Path&gt;" class="cls-7" d="M202.51,213.58s9.27-.52,13.16-1.41c2.86,4.81-4,8.43-4,8.43Z"/><g id="_Group_4" data-name="&lt;Group&gt;"><path id="_Path_4" data-name="&lt;Path&gt;" class="cls-8" d="M217.14,216.78l-.53-.19c-1.51-.54-2.13-2.66-1.39-4.74l14.38-40.24,6,2.15-5.28,14.78L221.21,214C220.47,216.08,218.65,217.32,217.14,216.78Z"/><rect id="_Rectangle_10" data-name="&lt;Rectangle&gt;" class="cls-9" x="210.69" y="194.02" width="9.94" height="52.11" rx="3.85" ry="3.85" transform="translate(86.65 -59.74) rotate(19.67)"/><path id="_Path_5" data-name="&lt;Path&gt;" class="cls-8" d="M240.13,172.42a10.14,10.14,0,0,1-13.2-4.72l-3.23-1.15-11.93,7.91,11.3,4a10.14,10.14,0,0,1,13.2,4.72l5.07,1.81a1.52,1.52,0,0,0,1.94-.92l2.83-7.93a1.52,1.52,0,0,0-.92-1.94Z"/></g><path id="_Rectangle_11" data-name="&lt;Rectangle&gt;" class="cls-10" d="M128.75,262.86h22.57a0,0,0,0,1,0,0V453.65a6.93,6.93,0,0,1-6.93,6.93h-8.71a6.93,6.93,0,0,1-6.93-6.93V262.86A0,0,0,0,1,128.75,262.86Z" transform="translate(280.06 723.45) rotate(180)"/><path id="_Rectangle_12" data-name="&lt;Rectangle&gt;" class="cls-10" d="M170.11,262.86h22.57a0,0,0,0,1,0,0V453.65a6.93,6.93,0,0,1-6.93,6.93H177a6.93,6.93,0,0,1-6.93-6.93V262.86A0,0,0,0,1,170.11,262.86Z" transform="translate(362.79 723.45) rotate(-180)"/><path id="_Path_6" data-name="&lt;Path&gt;" class="cls-10" d="M129.12,253.95l64.39.52-.38,20.67a11.06,11.06,0,0,1-11.15,11l-42.27-.34a11.06,11.06,0,0,1-11-11.15Z"/><path id="_Path_7" data-name="&lt;Path&gt;" class="cls-11" d="M173.22,140.58h0A6.9,6.9,0,0,0,182,144.9l56-19.57a6.9,6.9,0,0,0,4.32-8.75h0a6.9,6.9,0,0,0-8.75-4.32l-56,19.57A6.9,6.9,0,0,0,173.22,140.58Z"/><path id="_Path_8" data-name="&lt;Path&gt;" class="cls-12" d="M215.69,116.51l5.7,16.38-40.82,14.39a8.69,8.69,0,0,1-11-5.34h0a8.69,8.69,0,0,1,5.34-11Z"/><path id="_Rectangle_13" data-name="&lt;Rectangle&gt;" class="cls-13" d="M120.26,131.33h76.29a0,0,0,0,1,0,0V243.2A23.59,23.59,0,0,1,173,266.79H144.64a24.38,24.38,0,0,1-24.38-24.38V131.33a0,0,0,0,1,0,0Z" transform="translate(322.7 393.3) rotate(178.29)"/><path id="_Path_9" data-name="&lt;Path&gt;" class="cls-11" d="M128.71,137.57h0a6.9,6.9,0,0,1,8.39,5l14.08,57.62a6.9,6.9,0,0,1-5,8.39h0a6.9,6.9,0,0,1-8.39-5L123.72,146A6.9,6.9,0,0,1,128.71,137.57Z"/><path id="_Path_10" data-name="&lt;Path&gt;" class="cls-12" d="M131.65,186.3l16.84-4.14-10.16-42.07a8.69,8.69,0,0,0-10.49-6.35h0a8.69,8.69,0,0,0-6.35,10.49Z"/><ellipse id="_Path_11" data-name="&lt;Path&gt;" class="cls-12" cx="157.36" cy="133.59" rx="10.36" ry="6.73" transform="translate(-14.91 19.88) rotate(-6.9)"/><path id="_Path_12" data-name="&lt;Path&gt;" class="cls-11" d="M154,113.63l-.19,0a5.48,5.48,0,0,1,6.57,4.29l2.68,11.76c.69,3-1.37,4.5-4.41,5.2l.09,0c-3,.69-5.62.28-6.32-2.75l-2.68-11.76A5.65,5.65,0,0,1,154,113.63Z"/><path id="_Path_13" data-name="&lt;Path&gt;" class="cls-14" d="M166.9,125.53c-17.19,4.89-29.36-5.85-35.84-21.18-6.82-16.14,1.27-32.62,14.9-35.77,15.51-3.58,25.94.41,31.1,17.16,3.24,10.52,4.9,32.7-10.16,39.78Z"/><path id="_Path_14" data-name="&lt;Path&gt;" class="cls-15" d="M123.77,82.85c-.71,4.82.8,11.48,2,15.67a4.35,4.35,0,0,1,3.41-1.73,5.2,5.2,0,0,1,.61,0h0l.3,0,.31,0,.33.07L131,97l.39.11.31.11.31.12.3.14.31.16c.2.11.4.23.59.36,0,0,0,0,0,0l.12.09.07.06.08.06,0,0,0,0,0,0,0,0,1.76,7.73a3.55,3.55,0,0,0,1.42,2.41,4.31,4.31,0,0,0,.45.31,5.67,5.67,0,0,0,2.51.15,4.14,4.14,0,0,0,3.22-4.59l-.63-2.77A4.1,4.1,0,0,1,145,96.8l.69-.21c-.66-3.16-1.26-5.65-1.64-7.19-.47-1.91,0-3.35,4.12-4.74l.12,0c.36-.12.75-.24,1.18-.36l.09,0c.73-.21,1.55-.41,2.46-.62l19.56-4.45.21-.11a9.9,9.9,0,0,0,4.52-4.88,6,6,0,0,0,.2-4.12l-5.42,1.23A11.26,11.26,0,0,0,172.84,66a26.3,26.3,0,0,0-.11-6.21l-9,2s-10.48-4.49-20.28-1.37C128,65.32,125.12,76.63,125.12,76.63A17.42,17.42,0,0,0,118,77C120.63,78.88,122.07,79.65,123.77,82.85Z"/><path id="_Path_15" data-name="&lt;Path&gt;" class="cls-16" d="M149.59,84.23c.73-.21,1.55-.41,2.46-.62l19.56-4.45.21-.11a9.9,9.9,0,0,0,4.52-4.88,6,6,0,0,0,.2-4.12s-3.46,6.31-6.32,7.52l-.22.09C167.06,78.82,153.92,82.9,149.59,84.23Z"/><g id="_Group_5" data-name="&lt;Group&gt;"><line id="_Path_16" data-name="&lt;Path&gt;" class="cls-15" x1="171.06" y1="89.12" x2="164.82" y2="90.21"/><path id="_Path_17" data-name="&lt;Path&gt;" class="cls-15" d="M171.44,90.1a1.06,1.06,0,0,0-.56-2l-6.24,1.09a1.06,1.06,0,1,0,.36,2.08l6.24-1.09Z"/></g><g id="_Group_6" data-name="&lt;Group&gt;"><line id="_Path_18" data-name="&lt;Path&gt;" class="cls-15" x1="154.87" y1="92.47" x2="148.77" y2="94.19"/><path id="_Path_19" data-name="&lt;Path&gt;" class="cls-15" d="M154.78,91.42a1.06,1.06,0,0,1,.37,2.07l-6.1,1.72a1.06,1.06,0,1,1-.57-2l6.1-1.72Z"/></g><circle id="_Path_20" data-name="&lt;Path&gt;" cx="154.07" cy="99.66" r="1.43" transform="translate(-18.28 36.68) rotate(-12.82)"/><circle id="_Path_21" data-name="&lt;Path&gt;" cx="169.05" cy="96.75" r="1.43" transform="translate(-17.26 39.93) rotate(-12.82)"/><path id="_Path_22" data-name="&lt;Path&gt;" class="cls-16" d="M172.73,59.74s-1.68,8.72-6.13,11.85c-3.78,2.66-24,8-24,8a35.68,35.68,0,0,0,6.66.07c1.9-.23,20-3.75,21.88-8.33A17.93,17.93,0,0,0,172.73,59.74Z"/><g id="_Group_7" data-name="&lt;Group&gt;"><path id="_Path_23" data-name="&lt;Path&gt;" class="cls-14" d="M134.34,98.73a8.39,8.39,0,0,0-3.52-2.33c-5.11-2.05-9.68,1.59-6.53,6.39,2.2,3.35,6.59,11.86,8.71,8A17.82,17.82,0,0,0,134.34,98.73Z"/><polygon id="_Path_24" data-name="&lt;Path&gt;" class="cls-17" points="131.06 100.04 125.05 100.38 131.22 107.33 128.26 101.12 131.06 100.04"/></g><polygon id="_Path_25" data-name="&lt;Path&gt;" class="cls-17" points="161.18 95.95 163.75 108.1 166.22 106.92 161.18 95.95"/><path id="_Path_26" data-name="&lt;Path&gt;" class="cls-11" d="M137.84,199.58h0a6.9,6.9,0,0,1,8.67-4.48l56.35,18.51a6.9,6.9,0,0,1,4.48,8.67h0a6.9,6.9,0,0,1-8.67,4.48l-56.35-18.51A6.9,6.9,0,0,1,137.84,199.58Z"/><path id="_Path_27" data-name="&lt;Path&gt;" class="cls-11" d="M232,123.28h0a6.9,6.9,0,0,0,9.74-.59l38.92-44.76a6.9,6.9,0,0,0-.59-9.74h0a6.9,6.9,0,0,0-9.74.59l-38.92,44.76A6.9,6.9,0,0,0,232,123.28Z"/><path id="_Path_28" data-name="&lt;Path&gt;" class="cls-7" d="M280.33,78.14s8.23-4.3,12-5.53c0-5.59-7.79-5.16-7.79-5.16Z"/><path id="_Path_29" data-name="&lt;Path&gt;" class="cls-18" d="M167,115.94c3.84-1.1,6.6-4.14,5.92-6.51l-.16-.56-14.78,4.25.16.56c.62,2.15,3.53,3.8,7.71,2.6Z"/><path id="_Path_30" data-name="&lt;Path&gt;" class="cls-11" d="M195.64,225.77l12.93,5.39s10.59-1.77,14-4.12a15.65,15.65,0,0,0,5.82-7.65c1-3-13.68-1.44-13.68-1.44l-13.07-4.74Z"/><path id="_Path_31" data-name="&lt;Path&gt;" class="cls-11" d="M268.19,71.19l8.35-11.25s10-3.9,14.12-3.62c4.79.32,9.79,4.13,10.67,4.9,2.35,2.05-12.77,6.93-12.77,6.93l-8.8,10.77Z"/><circle id="_Path_32" data-name="&lt;Path&gt;" class="cls-19" cx="292.3" cy="66.46" r="3.63"/><g id="_Group_8" data-name="&lt;Group&gt;"><line id="_Path_33" data-name="&lt;Path&gt;" class="cls-5" x1="405.33" y1="64.94" x2="425.78" y2="107.75"/><line id="_Path_34" data-name="&lt;Path&gt;" class="cls-5" x1="405.55" y1="64.94" x2="385.1" y2="107.75"/></g><rect id="_Rectangle_14" data-name="&lt;Rectangle&gt;" class="cls-6" x="359.83" y="107.75" width="91.23" height="131.36" rx="8.78" ry="8.78" transform="translate(4.84 -10.9) rotate(1.55)"/><circle id="_Path_35" data-name="&lt;Path&gt;" class="cls-19" cx="405.33" cy="67.19" r="4.36"/><g id="_Group_9" data-name="&lt;Group&gt;"><line id="_Path_36" data-name="&lt;Path&gt;" class="cls-5" x1="518.69" y1="64.94" x2="539.14" y2="107.75"/><line id="_Path_37" data-name="&lt;Path&gt;" class="cls-5" x1="518.91" y1="64.94" x2="498.45" y2="107.75"/></g><rect id="_Rectangle_15" data-name="&lt;Rectangle&gt;" class="cls-6" x="473.18" y="107.75" width="91.23" height="131.36" rx="8.78" ry="8.78" transform="translate(-7.48 24.23) rotate(-2.66)"/><circle id="_Path_38" data-name="&lt;Path&gt;" class="cls-19" cx="518.69" cy="67.19" r="4.36"/><path id="_Path_39" data-name="&lt;Path&gt;" class="cls-20" d="M154.13,64.23,139.46,79.55,120.14,88.3l3.19,7,16-7.27a26.33,26.33,0,0,0,8.15-5.77l12.19-12.72Z"/><path id="_Path_40" data-name="&lt;Path&gt;" class="cls-9" d="M178.59,59.22h-2.71c-9.59-16.33-30-22.16-45.55-13S109.93,76,119.52,92.32l7.65-4.49,26.93-8.57A23.92,23.92,0,0,0,159,77.09l21.9-12.86C182.52,63.25,180.71,59.22,178.59,59.22Z"/><line id="_Path_41" data-name="&lt;Path&gt;" class="cls-21" x1="173.3" y1="60.93" x2="144.66" y2="77.76"/><g id="_Group_10" data-name="&lt;Group&gt;"><path id="_Path_42" data-name="&lt;Path&gt;" class="cls-22" d="M554.54,173.1a3.17,3.17,0,0,0-.39-4.38h0a3.28,3.28,0,0,0-4.67.36L543,176.91l.18-3.54a3.76,3.76,0,0,0,0-.54,1.73,1.73,0,0,0,.11-.52l1-20.27a1.75,1.75,0,0,0-1.66-1.83l-1.43-.07a1.75,1.75,0,0,0-1.83,1.66l-.89,17.55-.85,0,1.07-21.19a1.75,1.75,0,0,0-1.66-1.83l-1.43-.07a1.75,1.75,0,0,0-1.83,1.66l-1.07,21.19-.94,0,1-20a1.75,1.75,0,0,0-1.66-1.83l-1.43-.07a1.75,1.75,0,0,0-1.83,1.66l-1,20-.8,0,.74-14.68a1.52,1.52,0,0,0-1.44-1.59l-1.24-.06a1.52,1.52,0,0,0-1.59,1.44l-.89,17.63a1.5,1.5,0,0,0,0,.33,3.75,3.75,0,0,0-.06.5l-.49,9.64h0l-.78,15.71,21.88,1.09.46-9.18h0Z"/><path id="_Path_43" data-name="&lt;Path&gt;" class="cls-22" d="M515.65,172a3.77,3.77,0,0,0,0-.51,1.5,1.5,0,0,0,.06-.33l.91-17.62a1.52,1.52,0,0,0-1.44-1.59l-1.24-.06a1.52,1.52,0,0,0-1.59,1.44L511.58,168l-.8,0,1-20a1.75,1.75,0,0,0-1.65-1.83l-1.43-.07a1.75,1.75,0,0,0-1.83,1.65l-1,20-.94,0L506,146.44a1.75,1.75,0,0,0-1.65-1.83l-1.43-.07a1.75,1.75,0,0,0-1.83,1.65L500,167.38l-.85,0,.9-17.55a1.75,1.75,0,0,0-1.65-1.83l-1.43-.07a1.75,1.75,0,0,0-1.83,1.65l-1,20.27a1.73,1.73,0,0,0,.05.53,3.75,3.75,0,0,0-.07.54l-.18,3.54L488.29,166a3.28,3.28,0,0,0-4.61-.84h0a3.17,3.17,0,0,0-.83,4.32L492.95,187h0l-.48,9.18,21.88,1.14.82-15.71h0Z"/></g><g id="_Group_11" data-name="&lt;Group&gt;"><path id="_Path_44" data-name="&lt;Path&gt;" class="cls-12" d="M405.36,166.33l-1.06.05-32.72,1.68.4,7.87a11.79,11.79,0,0,0,12.38,11.17l9.82-.5c3.67-.19,6.76-4.41,8.78-8.69a2.78,2.78,0,0,1,4.9-.25c2.45,4.06,5.95,7.94,9.62,7.75l9.82-.5a11.79,11.79,0,0,0,11.17-12.38l-.4-7.87Z"/><g id="_Clip_Group_" data-name="&lt;Clip Group&gt;"><g class="cls-23"><g id="_Group_12" data-name="&lt;Group&gt;" class="cls-24"><rect id="_Rectangle_16" data-name="&lt;Rectangle&gt;" class="cls-18" x="379.81" y="141.53" width="8.35" height="63.28" transform="translate(214.97 -212.66) rotate(42.07)"/><rect id="_Rectangle_17" data-name="&lt;Rectangle&gt;" class="cls-18" x="388.61" y="147.73" width="4.47" height="63.28" transform="translate(220.89 -215.66) rotate(42.07)"/><rect id="_Rectangle_18" data-name="&lt;Rectangle&gt;" class="cls-18" x="419.8" y="139.49" width="8.35" height="63.28" transform="translate(223.9 -239.98) rotate(42.07)"/><rect id="_Rectangle_19" data-name="&lt;Rectangle&gt;" class="cls-18" x="428.6" y="145.68" width="4.47" height="63.28" transform="translate(229.82 -242.98) rotate(42.07)"/></g></g></g><polygon id="_Path_45" data-name="&lt;Path&gt;" class="cls-25" points="437.02 162.87 372.45 166.17 370.84 166.26 370.98 168.9 371.31 175.51 372.12 175.47 372.36 168.83 437.38 165.5 438.3 172.08 439.1 172.03 438.76 165.43 438.63 162.78 437.02 162.87"/></g><circle id="_Path_46" data-name="&lt;Path&gt;" class="cls-9" cx="138.48" cy="53.45" r="14.16"/><path id="_Path_47" data-name="&lt;Path&gt;" class="cls-4" d="M136.4,45a28.6,28.6,0,0,0-9.51,5.46c-10.31,8.93-13.43,24.51-6.69,37.78l6.66-3.39C121.28,70.66,124.93,54.5,136.4,45Z"/><g id="_Group_13" data-name="&lt;Group&gt;"><path id="_Path_48" data-name="&lt;Path&gt;" class="cls-9" d="M323,187.36a31.66,31.66,0,0,0-63-6.4Z"/><path id="_Path_49" data-name="&lt;Path&gt;" class="cls-20" d="M318.18,200.91,305.6,202.3A75.53,75.53,0,0,1,274,199.09l-12-3.9.7-6.9L318.88,194Z"/><circle id="_Path_50" data-name="&lt;Path&gt;" class="cls-9" cx="293.63" cy="163.2" r="14.16" transform="translate(101.57 438.82) rotate(-84.2)"/><path id="_Path_51" data-name="&lt;Path&gt;" class="cls-9" d="M326.28,196.3l-27,.52a75.32,75.32,0,0,1-18-1.83L255,189.05l.49-4.83a3.7,3.7,0,0,1,4.06-3.31l63.93,6.5a3.7,3.7,0,0,1,3.31,4.06Z"/><line id="_Path_52" data-name="&lt;Path&gt;" class="cls-21" x1="263.72" y1="183.5" x2="318.85" y2="189.1"/><g id="_Group_14" data-name="&lt;Group&gt;"><path id="_Path_53" data-name="&lt;Path&gt;" class="cls-4" d="M285.77,155.27h0A29.79,29.79,0,0,0,263.26,178l7.73,1a33.77,33.77,0,0,1,10.45-15.56c1.68.78,3.62,2.64,5,6.9Z"/><path id="_Path_54" data-name="&lt;Path&gt;" class="cls-4" d="M302.92,157h0a29.79,29.79,0,0,1,17.48,26.79l-7.78-.56a33.77,33.77,0,0,0-7.11-17.34c-1.8.42-4.07,1.86-6.24,5.76Z"/></g></g></g></g></svg>