<svg id="Layer_1" data-name="Layer 1" xmlns="http://www.w3.org/2000/svg" xmlns:xlink="http://www.w3.org/1999/xlink" viewBox="0 0 708.66 386.44"><defs><style>.cls-1,.cls-11,.cls-12,.cls-13,.cls-21{fill:none;}.cls-2{clip-path:url(#clip-path);}.cls-3{fill:#ffe4cc;}.cls-22,.cls-4{fill:#f8ab8d;}.cls-15,.cls-4{fill-rule:evenodd;}.cls-5{fill:#dd4439;}.cls-6{fill:#58595b;}.cls-7{fill:#e6e7e8;}.cls-8{fill:#a7a9ac;}.cls-9{fill:#fff;stroke:#6d6e71;stroke-width:4.1px;}.cls-11,.cls-12,.cls-13,.cls-9{stroke-miterlimit:10;}.cls-10{fill:#3f5aa8;}.cls-11{stroke:#dd4439;}.cls-11,.cls-12,.cls-13{stroke-width:6.39px;}.cls-12{stroke:#fec82b;}.cls-13{stroke:#39b54a;}.cls-14{fill:#939598;}.cls-15{fill:#fec82b;}.cls-16{fill:#ffdc83;}.cls-17{fill:#a97c50;}.cls-18{fill:#c49a6c;}.cls-19{fill:#808285;}.cls-20{fill:#d1d3d4;}.cls-21{stroke:#fff;stroke-linecap:round;stroke-linejoin:round;stroke-width:3px;}.cls-23{fill:#6f8edd;}</style><clipPath id="clip-path"><rect class="cls-1" width="708.66" height="386.44"/></clipPath></defs><title>R-L23-04</title><g class="cls-2"><path id="_Path_" data-name="&lt;Path&gt;" class="cls-3" d="M354.33,64.28c-138.6,0-250.95,112.35-250.95,250.95h501.9C605.28,176.63,492.93,64.28,354.33,64.28Z"/><path id="_Path_2" data-name="&lt;Path&gt;" class="cls-4" d="M135.77,145.28c4.6,3.15,18.4,11.12,18.4,11.12a6.91,6.91,0,0,1-8.29,11.05c-18.33-13.72-23-2.22-33.55-25.1C110.42,138.2,101.83,126,101.83,126l29,8.1C130.83,139.49,132.24,142.86,135.77,145.28Z"/><path class="cls-5" d="M576.16,54.79,567.87,121l-17-1.2L552,53.09Zm-6.78,70.45-1.25,17.66-20.6-1.46,1.25-17.66Z"/><path class="cls-5" d="M541.53,52.35l-8.29,66.18-17-1.2,1.1-66.69Zm-6.78,70.45-1.25,17.66L512.9,139l1.25-17.66Z"/><path class="cls-5" d="M610.78,57.24l-8.29,66.18-17-1.2,1.1-66.69ZM604,127.69l-1.25,17.66-20.6-1.46,1.25-17.66Z"/><path class="cls-6" d="M183.07,360.11H215a0,0,0,0,1,0,0v8.78a9.18,9.18,0,0,1-9.18,9.18H192.25a9.18,9.18,0,0,1-9.18-9.18v-8.78A0,0,0,0,1,183.07,360.11Z"/><path class="cls-6" d="M499.1,360.11H531a0,0,0,0,1,0,0v8.78a9.18,9.18,0,0,1-9.18,9.18H508.28a9.18,9.18,0,0,1-9.18-9.18v-8.78A0,0,0,0,1,499.1,360.11Z"/><path class="cls-7" d="M176.38,288.25H537.68a24.16,24.16,0,0,1,24.16,24.16v50.49a0,0,0,0,1,0,0H152.22a0,0,0,0,1,0,0V312.41A24.16,24.16,0,0,1,176.38,288.25Z"/><path class="cls-8" d="M350.91,141.72h0A56.29,56.29,0,0,1,407.2,198V319.52a0,0,0,0,1,0,0H294.62a0,0,0,0,1,0,0V198a56.29,56.29,0,0,1,56.29-56.29Z"/><circle id="_Path_3" data-name="&lt;Path&gt;" class="cls-9" cx="350.91" cy="198.91" r="44.38" transform="translate(-37.87 306.39) rotate(-45)"/><polygon id="_Path_4" data-name="&lt;Path&gt;" class="cls-10" points="354.13 196.13 346.85 195.2 347.78 202.49 370.81 219.17 354.13 196.13"/><path id="_Path_5" data-name="&lt;Path&gt;" class="cls-11" d="M375.9,173.91a35.35,35.35,0,0,1,0,50"/><path id="_Path_6" data-name="&lt;Path&gt;" class="cls-12" d="M325.92,173.91a35.35,35.35,0,0,1,50,0"/><path id="_Path_7" data-name="&lt;Path&gt;" class="cls-13" d="M325.92,223.9a35.35,35.35,0,0,1,0-50"/><circle class="cls-14" cx="350.91" cy="319.52" r="16.9"/><path class="cls-14" d="M183.57,245.28h23.67a0,0,0,0,1,0,0v51.65a11.83,11.83,0,0,1-11.83,11.83h0a11.83,11.83,0,0,1-11.83-11.83V245.28a0,0,0,0,1,0,0Z"/><rect class="cls-8" x="177.57" y="253.6" width="35.67" height="8.32"/><path class="cls-14" d="M506.42,308.76h0a11.83,11.83,0,0,1-11.83-11.83V277.28h23.67v19.65A11.83,11.83,0,0,1,506.42,308.76Z"/><rect class="cls-8" x="488.58" y="285.6" width="35.67" height="8.32"/><path id="_Path_8" data-name="&lt;Path&gt;" class="cls-15" d="M552.11,185.34c3.13,18.56-4.71,22.3-4.71,22.3s7.11-15.08-2.38-29.78c-3.76-5.82-6.05-14.4-5-17.73-4.59,3.6-6.44,13.51-6.44,13.51a51.49,51.49,0,0,1-4.2-23.76l-12.16,19.28s.4-15.23-5.68-21.94-17.13-12.56-6.1-30c0,0-28.38,16.43-16.54,46,9.41,23.51-13.51,5.92-5.13-14.24,0,0-16,4.49-10.27,30,0,0-9.47-2.7-8.73-13.89,0,0-7.61,17,.38,34.5,0,0-8.82-.43-7.57-15.67-17.25,25.2-6.22,71.56,45.6,71.56,46.78,0,66.22-35,48.93-70.18Z"/><path class="cls-16" d="M222,151.73V143a4.21,4.21,0,0,1,4.21-4.21h0a4.21,4.21,0,0,0,4.21-4.21v-7.22a4.21,4.21,0,0,0-4.21-4.21H199.6a4.21,4.21,0,0,0-4.21,4.21v7.22a4.21,4.21,0,0,0,4.21,4.21h0a4.21,4.21,0,0,1,4.21,4.21v8.73a4.21,4.21,0,0,1-4.21,4.21h-7.22a4.21,4.21,0,0,0-4.21,4.21v61.1a4.21,4.21,0,0,0,4.21,4.21h41.08a4.21,4.21,0,0,0,4.21-4.21v-61.1a4.21,4.21,0,0,0-4.21-4.21h-7.22A4.21,4.21,0,0,1,222,151.73Z"/><path class="cls-17" d="M169.46,167.44v-6.87a3.32,3.32,0,0,1,3.32-3.32h0a3.32,3.32,0,0,0,3.32-3.32v-5.69a3.32,3.32,0,0,0-3.32-3.32h-21a3.32,3.32,0,0,0-3.32,3.32v5.69a3.32,3.32,0,0,0,3.32,3.32h0a3.32,3.32,0,0,1,3.32,3.32v6.87a3.32,3.32,0,0,1-3.32,3.32h-5.69a3.32,3.32,0,0,0-3.32,3.32v48.09a3.32,3.32,0,0,0,3.32,3.32h32.33a3.32,3.32,0,0,0,3.32-3.32V174.07a3.32,3.32,0,0,0-3.32-3.32h-5.69A3.32,3.32,0,0,1,169.46,167.44Z"/><path class="cls-18" d="M238.55,184.65v-5.27a2.54,2.54,0,0,1,2.54-2.54h0a2.54,2.54,0,0,0,2.54-2.54v-4.36a2.54,2.54,0,0,0-2.54-2.54H225a2.54,2.54,0,0,0-2.54,2.54v4.36a2.54,2.54,0,0,0,2.54,2.54h0a2.54,2.54,0,0,1,2.54,2.54v5.27A2.54,2.54,0,0,1,225,187.2h-4.36a2.54,2.54,0,0,0-2.54,2.54v36.89a2.54,2.54,0,0,0,2.54,2.54h24.8a2.54,2.54,0,0,0,2.54-2.54V189.74a2.54,2.54,0,0,0-2.54-2.54h-4.36A2.54,2.54,0,0,1,238.55,184.65Z"/><rect class="cls-19" x="133.46" y="233.93" width="123.89" height="12.38"/><path class="cls-20" d="M126.34,208.38H264.48a0,0,0,0,1,0,0v0a25.55,25.55,0,0,1-25.55,25.55h-87a25.55,25.55,0,0,1-25.55-25.55v0A0,0,0,0,1,126.34,208.38Z"/><path class="cls-5" d="M435.3,191.37l11.18-1q11.18-1,15.21-.47a10.46,10.46,0,0,1,6.84,3.84q2.8,3.33,3.49,11.09.62,7.09-.93,9.68t-6.68,3.53q4.79.75,6.57,2.56a9.34,9.34,0,0,1,2.32,3.41,56.77,56.77,0,0,1,1.18,8.95l1.41,16-14.66,1.29-1.77-20.18q-.43-4.88-1.3-6t-4.13-.81l2.4,27.38-15.79,1.39Zm16.7,9,1.19,13.5a7,7,0,0,0,3.67-1.06q1-.83.65-4.84l-.29-3.34q-.25-2.89-1.36-3.7T452,200.38Z"/><path class="cls-5" d="M492.45,186.36l5.33,60.72L482,248.46l-5.33-60.72Z"/><path class="cls-5" d="M533.85,201.24l-14.66,1.29-.39-4.5q-.28-3.15-.91-4a2.08,2.08,0,0,0-2-.7,2.4,2.4,0,0,0-2.05,1.35,6.78,6.78,0,0,0-.42,3.59,10,10,0,0,0,1.22,4.51q.92,1.47,4.79,3.32,11.09,5.33,14.18,9.1t3.87,12.7q.57,6.49-.68,9.7t-5.42,5.67a23.31,23.31,0,0,1-9.94,3,22.72,22.72,0,0,1-11-1.45,11.82,11.82,0,0,1-6.41-5.6q-1.71-3.59-2.31-10.42l-.35-4L516,223.55l.65,7.39q.3,3.41,1,4.33a2.41,2.41,0,0,0,2.28.78,2.58,2.58,0,0,0,2.23-1.44,7.09,7.09,0,0,0,.45-3.74q-.47-5.36-2.08-6.88a47,47,0,0,0-7.87-4.86,72.94,72.94,0,0,1-8.3-5,13.3,13.3,0,0,1-3.6-4.6,21.51,21.51,0,0,1-2-7.84q-.61-7,.89-10.36a12,12,0,0,1,5.31-5.55,23.06,23.06,0,0,1,9.44-2.66,25.09,25.09,0,0,1,10.66,1.07q4.51,1.61,6.18,4.5t2.31,10.13Z"/><path class="cls-5" d="M576.13,179l-6.65,28.21,12.84,32.43L566,241.09l-8.68-25.47,2.28,26L543.83,243l-5.33-60.72,15.79-1.39,2.07,23.59,5-24.21Z"/><rect class="cls-19" x="444.47" y="265.92" width="123.89" height="12.38"/><path class="cls-20" d="M437.35,240.36H575.49a0,0,0,0,1,0,0v0a25.55,25.55,0,0,1-25.55,25.55h-87a25.55,25.55,0,0,1-25.55-25.55v0a0,0,0,0,1,0,0Z"/><path class="cls-21" d="M185.13,230.21H151.57a18.1,18.1,0,0,1-18.1-18.1h0"/><path class="cls-21" d="M496.14,262.19H462.58a18.1,18.1,0,0,1-18.1-18.1h0"/><polygon id="_Path_9" data-name="&lt;Path&gt;" class="cls-22" points="86.06 109.31 95.79 147.78 12.82 166.82 4.75 126.91 86.06 109.31"/><path id="_Path_10" data-name="&lt;Path&gt;" class="cls-4" d="M153.39,111.43c4.65.3,11,10.08,13.55,11.93,4,5.15,6.25,10.39,15.45,21.53a6,6,0,1,1-9.52,7.23L160.6,135.62a166.88,166.88,0,0,0-14.65-13Z"/><path id="_Path_11" data-name="&lt;Path&gt;" class="cls-4" d="M93.92,106.79s4.21-10.61,13.8-13.91l.18-.06,61.17-20.36a6.86,6.86,0,0,1,8.67,4.46c1.16,3.66-1.22,6.35-4.8,7.66l-26.62,9.67,41.85-11.84a6.74,6.74,0,0,1,8.39,5,7.17,7.17,0,0,1-5,8.53l-42.77,11.49L201.22,97a6.92,6.92,0,0,1,8.19,5.31,7,7,0,0,1-5.27,8.34L166,119.36l-16,6.5c-7.24-3.84-14.32-2-17.74,10.48a12.72,12.72,0,0,0-.38,3.77L91.93,148.6l-11.2-38.06Z"/><polygon id="_Path_12" data-name="&lt;Path&gt;" class="cls-23" points="85.41 105.92 96.47 151.11 -59.55 185.33 -69.09 138.17 85.41 105.92"/></g></svg>