<svg id="Layer_1" data-name="Layer 1" xmlns="http://www.w3.org/2000/svg" xmlns:xlink="http://www.w3.org/1999/xlink" viewBox="0 0 708.66 453.54"><defs><style>.cls-1,.cls-3{fill:none;}.cls-2{fill:#ffdc83;}.cls-3{stroke:#3f5aa8;stroke-linecap:round;stroke-miterlimit:10;stroke-width:2.03px;}.cls-12,.cls-4{fill:#f8ab8d;}.cls-5{fill:#405aa8;}.cls-6{fill:#353560;}.cls-7{fill:#e5e5e4;}.cls-8{fill:#3f5aa8;}.cls-9{fill:#b97d4f;}.cls-10{fill:#4d4e4e;}.cls-11{fill:#648ec9;}.cls-12,.cls-15{fill-rule:evenodd;}.cls-13{fill:#8b6339;}.cls-14{fill:#754d24;}.cls-15,.cls-16{fill:#dc846a;}.cls-17{fill:#fff;}.cls-18{fill:#9d6944;}.cls-19{fill:#dd4439;}.cls-20{clip-path:url(#clip-path);}.cls-21{fill:#bcbcbc;}.cls-22{fill:#ddd;}.cls-23{fill:#149390;}.cls-24{fill:#19a4a4;}</style><clipPath id="clip-path"><path id="_Clipping_Path_" data-name="&lt;Clipping Path&gt;" class="cls-1" d="M123.53,53.89a8,8,0,0,1-3-7.22,7.44,7.44,0,0,1,2.85-4.75,8.52,8.52,0,0,0,2.57-9.58,19.44,19.44,0,0,0-5.74-8.75,6.57,6.57,0,0,0,4.25-5l-16.75-2.48a6.57,6.57,0,0,0,2.62,6,19.44,19.44,0,0,0-8,6.71,8.52,8.52,0,0,0-.32,9.91,7.44,7.44,0,0,1,1.35,5.37,8,8,0,0,1-5,6,8.67,8.67,0,0,0-5,7.81c-.2,8.7,1.65,16.33,4.93,21.23a12.94,12.94,0,0,0-1.58,2,4.14,4.14,0,0,0,2.82,6.39l12.16,1.8a4.1,4.1,0,0,0,4.61-5.06,13,13,0,0,0-1-2.58c4.56-3.73,8.54-10.5,10.87-18.89A8.67,8.67,0,0,0,123.53,53.89Z"/></clipPath></defs><title>R-L23-U27</title><path id="_Path_" data-name="&lt;Path&gt;" class="cls-2" d="M371,122.36c-138.65,0-251,112.4-251,251H622.05C622.05,234.76,509.65,122.36,371,122.36Z"/><path id="_Path_2" data-name="&lt;Path&gt;" class="cls-3" d="M190.61,409.78c-12.12,6.92-14.64,10.52-14,12.53,1.74,5.95,31.53,1,32.67,6.09.41,1.83-3.05,4.21-6.43,6.09"/><path id="_Path_3" data-name="&lt;Path&gt;" class="cls-4" d="M171.25,120h0a6,6,0,0,0,4,7.43L224.27,142a6,6,0,0,0,7.43-4h0a6,6,0,0,0-4-7.43l-49.07-14.51A6,6,0,0,0,171.25,120Z"/><path id="_Path_4" data-name="&lt;Path&gt;" class="cls-5" d="M213.12,124.57l-4.26,14.34L173,128.42a7.5,7.5,0,0,1-5-9.3h0a7.5,7.5,0,0,1,9.3-5Z"/><path id="_Rectangle_" data-name="&lt;Rectangle&gt;" class="cls-6" d="M212,203.18h19.18a0,0,0,0,1,0,0v73.35a8.15,8.15,0,0,1-8.15,8.15h-2.89a8.15,8.15,0,0,1-8.15-8.15V203.18A0,0,0,0,1,212,203.18Z" transform="translate(-68.52 400.23) rotate(-76.06)"/><circle id="_Path_5" data-name="&lt;Path&gt;" class="cls-7" cx="192.56" cy="227.08" r="2.28" transform="translate(-27.79 26.86) rotate(-7.44)"/><path id="_Path_6" data-name="&lt;Path&gt;" class="cls-8" d="M247.09,286.32h0a7.43,7.43,0,0,1,6.4,8.33l-6.85,52.21a7.43,7.43,0,0,1-8.33,6.4h0a7.43,7.43,0,0,1-6.4-8.33l.18-1.36,6.67-50.85A7.43,7.43,0,0,1,247.09,286.32Z"/><path id="_Rectangle_2" data-name="&lt;Rectangle&gt;" class="cls-6" d="M237,241.46h19.18a0,0,0,0,1,0,0v90.42A8.15,8.15,0,0,1,248,340h-2.89a8.15,8.15,0,0,1-8.15-8.15V241.46A0,0,0,0,1,237,241.46Z" transform="translate(453.25 611.08) rotate(-172.53)"/><path id="_Path_7" data-name="&lt;Path&gt;" class="cls-9" d="M230.66,345.39v9.07H275.5v-.91a3.6,3.6,0,0,0-2.7-3.49l-23.88-6.22a6.66,6.66,0,0,0-3.35,0c-6.37,1.65-10.86.92-13.15.24A1.38,1.38,0,0,0,230.66,345.39Z"/><path id="_Path_8" data-name="&lt;Path&gt;" class="cls-10" d="M230.66,354.46v.07a2.74,2.74,0,0,0,2.74,2.74h40.73a1.38,1.38,0,0,0,1.38-1.38v-1.43Z"/><path id="_Path_9" data-name="&lt;Path&gt;" class="cls-6" d="M140.36,222.16l54.33-6.65,2,17.46a9.4,9.4,0,0,1-8.19,10.48l-35.66,4.37a9.4,9.4,0,0,1-10.48-8.19Z"/><path id="_Rectangle_3" data-name="&lt;Rectangle&gt;" class="cls-8" d="M128.19,114.69H194a0,0,0,0,1,0,0v96.5a20.35,20.35,0,0,1-20.35,20.35H149.22a21,21,0,0,1-21-21V114.69A0,0,0,0,1,128.19,114.69Z" transform="translate(343.27 323.91) rotate(172.56)"/><path id="_Path_10" data-name="&lt;Path&gt;" class="cls-4" d="M137.22,124.36h0a6,6,0,0,1-.87,8.37l-40,31.87a6,6,0,0,1-8.37-.87h0a6,6,0,0,1,.87-8.37l40-31.87A6,6,0,0,1,137.22,124.36Z"/><path id="_Path_11" data-name="&lt;Path&gt;" class="cls-5" d="M100.12,144.3,109.46,156l29.27-23.18a7.5,7.5,0,0,0,1.18-10.51h0a7.5,7.5,0,0,0-10.51-1.18Z"/><ellipse id="_Path_12" data-name="&lt;Path&gt;" class="cls-11" cx="156.5" cy="115.43" rx="5.81" ry="8.93" transform="translate(32.5 265.22) rotate(-86.79)"/><path id="_Path_13" data-name="&lt;Path&gt;" class="cls-4" d="M156.68,98h-.17a4.73,4.73,0,0,1,4.93,4.64l.49,10.4c.13,2.69-1.84,3.62-4.53,3.74h.08c-2.69.13-4.82-.61-4.95-3.3l-.49-10.4A4.87,4.87,0,0,1,156.68,98Z"/><path id="_Path_14" data-name="&lt;Path&gt;" class="cls-12" d="M165.81,110c-15.34,1.56-24.05-9.42-27.23-23.41-3.35-14.74,6-27.51,18.07-28.12,13.71-.69,22,4.27,23.81,19.28,1.16,9.42-.79,28.51-14.65,32.25Z"/><path id="_Path_15" data-name="&lt;Path&gt;" class="cls-13" d="M135.65,67.25c-1.34,4-1.06,9.87-.69,13.61a3.75,3.75,0,0,1,3.16-.95,4.48,4.48,0,0,1,.52.1h0l.25.07.25.08.27.11.19.08.32.15.25.14.25.15.24.17.24.18c.15.12.3.26.45.39s0,0,0,0l.09.1,0,.06.06.06,0,0,0,0v0a.19.19,0,0,1,0,0l.32,6.83a3.07,3.07,0,0,0,.84,2.26,3.72,3.72,0,0,0,.33.33,4.89,4.89,0,0,0,2.11.51,3.57,3.57,0,0,0,3.43-3.41L148.52,86a3.53,3.53,0,0,1,3.07-3.68l.62-.07c-.09-2.78-.21-5-.3-6.36-.11-1.7.47-2.85,4.21-3.41h.11l1.05-.13h.08c.65-.06,1.38-.12,2.18-.15l17.29-.82.2-.06a8.54,8.54,0,0,0,4.57-3.46,5.15,5.15,0,0,0,.79-3.47l-4.79.23a9.71,9.71,0,0,0,2.26-4.26,22.69,22.69,0,0,0,.85-5.29l-7.94.38s-8.22-5.4-17-4.24c-13.86,1.83-18,11-18,11a15,15,0,0,0-6.07-.78C133.58,63.4,134.69,64.28,135.65,67.25Z"/><path id="_Path_16" data-name="&lt;Path&gt;" class="cls-14" d="M157.37,72.33c.65-.06,1.38-.12,2.18-.15l17.29-.82.2-.06a8.54,8.54,0,0,0,4.57-3.46,5.15,5.15,0,0,0,.79-3.47s-3.9,4.84-6.51,5.43l-.2,0C173,70.38,161.24,71.85,157.37,72.33Z"/><g id="_Group_" data-name="&lt;Group&gt;"><line id="_Path_17" data-name="&lt;Path&gt;" class="cls-13" x1="174.87" y1="79.73" x2="169.4" y2="79.71"/><path id="_Path_18" data-name="&lt;Path&gt;" class="cls-13" d="M175,80.63a.91.91,0,0,0-.17-1.81l-5.47,0a.91.91,0,1,0,0,1.82l5.47,0Z"/></g><g id="_Group_2" data-name="&lt;Group&gt;"><line id="_Path_19" data-name="&lt;Path&gt;" class="cls-13" x1="160.6" y1="80.13" x2="155.16" y2="80.66"/><path id="_Path_20" data-name="&lt;Path&gt;" class="cls-13" d="M160.69,79.22a.91.91,0,0,1,0,1.81l-5.44.54a.91.91,0,0,1-.18-1.81l5.44-.54Z"/></g><circle id="_Path_21" data-name="&lt;Path&gt;" cx="158.84" cy="86.11" r="1.23" transform="translate(-3.9 7.62) rotate(-2.72)"/><circle id="_Path_22" data-name="&lt;Path&gt;" cx="172" cy="85.91" r="1.23" transform="translate(-3.88 8.25) rotate(-2.72)"/><path id="_Path_23" data-name="&lt;Path&gt;" class="cls-14" d="M180.72,55s-2.74,7.15-7,9.14c-3.62,1.69-21.6,3.12-21.6,3.12a30.78,30.78,0,0,0,5.65,1.07c1.65.09,17.52-.16,19.84-3.76A15.47,15.47,0,0,0,180.72,55Z"/><g id="_Group_3" data-name="&lt;Group&gt;"><path id="_Path_24" data-name="&lt;Path&gt;" class="cls-12" d="M142.22,82.34a7.24,7.24,0,0,0-2.64-2.51c-4-2.52-8.46-.11-6.51,4.44,1.36,3.17,3.8,11.07,6.19,8.08A15.37,15.37,0,0,0,142.22,82.34Z"/><polygon id="_Path_25" data-name="&lt;Path&gt;" class="cls-15" points="139.24 82.95 134.08 82.33 138.27 89.17 136.7 83.45 139.24 82.95"/></g><polygon id="_Path_26" data-name="&lt;Path&gt;" class="cls-15" points="165.44 84.04 165.78 94.75 168.05 94.12 165.44 84.04"/><path id="_Path_27" data-name="&lt;Path&gt;" class="cls-4" d="M89.88,155.25h0a6,6,0,0,1,8,2.63l22.66,45.88a6,6,0,0,1-2.63,8h0a6,6,0,0,1-8-2.63L87.25,163.24A6,6,0,0,1,89.88,155.25Z"/><path id="_Path_28" data-name="&lt;Path&gt;" class="cls-16" d="M120.34,203.52a101.27,101.27,0,0,0,8.82,7.25c-1.23,4.66-7.63,2.6-7.63,2.6Z"/><path id="_Path_29" data-name="&lt;Path&gt;" class="cls-4" d="M226.73,130.87h0a6,6,0,0,0-6.43,5.44l-3.77,51a6,6,0,0,0,5.44,6.43h0a6,6,0,0,0,6.43-5.44l3.77-51A6,6,0,0,0,226.73,130.87Z"/><path id="_Path_30" data-name="&lt;Path&gt;" class="cls-16" d="M216.63,187.05a101.27,101.27,0,0,1-5.45,10c2.9,3.86,8.05-.46,8.05-.46Z"/><path id="_Path_31" data-name="&lt;Path&gt;" class="cls-17" d="M167.32,101.88c3.42-.36,6.24-2.52,6-4.63l-.05-.5-13.2,1.37.05.5c.2,1.92,2.42,3.76,6.15,3.37Z"/><path id="_Path_32" data-name="&lt;Path&gt;" class="cls-6" d="M170.67,314.7h0a9.59,9.59,0,0,1-11.64-7l-16.72-68.11,17.39-6.2a.41.41,0,0,1,.5.3l17.44,69.34A9.59,9.59,0,0,1,170.67,314.7Z"/><path id="_Path_33" data-name="&lt;Path&gt;" class="cls-8" d="M163.88,342.14h0a7.43,7.43,0,0,1,6.4,8.33l-6.85,52.21a7.43,7.43,0,0,1-8.33,6.4h0a7.43,7.43,0,0,1-6.4-8.33l.18-1.36,6.67-50.85A7.43,7.43,0,0,1,163.88,342.14Z"/><path id="_Rectangle_4" data-name="&lt;Rectangle&gt;" class="cls-6" d="M153.77,297.27H173a0,0,0,0,1,0,0v90.42a8.15,8.15,0,0,1-8.15,8.15h-2.89a8.15,8.15,0,0,1-8.15-8.15V297.27a0,0,0,0,1,0,0Z" transform="translate(280.26 711.42) rotate(-172.53)"/><rect id="_Rectangle_5" data-name="&lt;Rectangle&gt;" class="cls-9" x="121.75" y="135.51" width="92.66" height="88.26" transform="translate(-17.77 18.45) rotate(-5.97)"/><path id="_Path_34" data-name="&lt;Path&gt;" class="cls-4" d="M108.69,206.65l4.5,11.21s7.49,5.45,11,6.12c4.07.78,9.07-1.3,10-1.75,2.41-1.2-9.13-8.58-9.13-8.58l-5-10.91Z"/><path id="_Path_35" data-name="&lt;Path&gt;" class="cls-4" d="M228.6,185.58l0,12.08s-4.89,7.86-7.88,9.8c-3.48,2.25-8.9,2.2-9.9,2.13-2.69-.2,5.24-11.39,5.24-11.39l.52-12Z"/><rect id="_Rectangle_6" data-name="&lt;Rectangle&gt;" class="cls-18" x="104.1" y="85.5" width="55.15" height="52.53" transform="matrix(0.99, -0.16, 0.16, 0.99, -16.59, 23.19)"/><path id="_Path_36" data-name="&lt;Path&gt;" class="cls-19" d="M123.53,52.88a8,8,0,0,1-3-7.22,7.44,7.44,0,0,1,2.85-4.75,8.52,8.52,0,0,0,2.57-9.58,19.44,19.44,0,0,0-5.74-8.75,6.57,6.57,0,0,0,4.25-5l-16.75-2.48a6.57,6.57,0,0,0,2.62,6,19.44,19.44,0,0,0-8,6.71,8.52,8.52,0,0,0-.32,9.91,7.44,7.44,0,0,1,1.35,5.37,8,8,0,0,1-5,6,8.67,8.67,0,0,0-5,7.81c-.2,8.7,1.65,16.33,4.93,21.23a12.94,12.94,0,0,0-1.58,2,4.14,4.14,0,0,0,2.82,6.39l12.16,1.8a4.1,4.1,0,0,0,4.61-5.06,13,13,0,0,0-1-2.58c4.56-3.73,8.54-10.5,10.87-18.89A8.67,8.67,0,0,0,123.53,52.88Z"/><g id="_Clip_Group_" data-name="&lt;Clip Group&gt;"><g class="cls-20"><g id="_Group_4" data-name="&lt;Group&gt;"><rect id="_Rectangle_7" data-name="&lt;Rectangle&gt;" class="cls-17" x="88.42" y="45.12" width="43.08" height="2.3" transform="translate(7.97 -15.61) rotate(8.43)"/><rect id="_Rectangle_8" data-name="&lt;Rectangle&gt;" class="cls-17" x="85.39" y="65.59" width="43.08" height="2.3" transform="translate(10.93 -14.95) rotate(8.43)"/><rect id="_Rectangle_9" data-name="&lt;Rectangle&gt;" class="cls-17" x="86.05" y="61.12" width="43.08" height="2.3" transform="translate(10.29 -15.09) rotate(8.43)"/></g></g></g><rect id="_Rectangle_10" data-name="&lt;Rectangle&gt;" class="cls-21" x="209.63" y="385.17" width="200.88" height="27.91"/><rect id="_Rectangle_11" data-name="&lt;Rectangle&gt;" class="cls-22" x="250.25" y="357.27" width="160.25" height="27.91"/><rect id="_Rectangle_12" data-name="&lt;Rectangle&gt;" class="cls-21" x="290.88" y="329.36" width="119.63" height="27.91"/><rect id="_Rectangle_13" data-name="&lt;Rectangle&gt;" class="cls-22" x="331.5" y="301.45" width="79" height="27.91"/><rect id="_Rectangle_14" data-name="&lt;Rectangle&gt;" class="cls-21" x="406.32" y="385.17" width="200.88" height="27.91" transform="translate(1013.52 798.26) rotate(180)"/><rect id="_Rectangle_15" data-name="&lt;Rectangle&gt;" class="cls-22" x="406.32" y="357.27" width="160.25" height="27.91" transform="translate(972.9 742.44) rotate(180)"/><rect id="_Rectangle_16" data-name="&lt;Rectangle&gt;" class="cls-21" x="406.32" y="329.36" width="119.63" height="27.91" transform="translate(932.27 686.63) rotate(180)"/><rect id="_Rectangle_17" data-name="&lt;Rectangle&gt;" class="cls-22" x="406.32" y="301.45" width="79" height="27.91" transform="translate(891.65 630.81) rotate(180)"/><circle id="_Path_37" data-name="&lt;Path&gt;" class="cls-10" cx="250.75" cy="346.82" r="1.52" transform="translate(-147.9 502.51) rotate(-75.47)"/><circle id="_Path_38" data-name="&lt;Path&gt;" class="cls-10" cx="255.63" cy="348.08" r="1.52" transform="translate(-145.47 508.18) rotate(-75.47)"/><circle id="_Path_39" data-name="&lt;Path&gt;" class="cls-10" cx="260.5" cy="349.35" r="1.52" transform="translate(-143.04 513.84) rotate(-75.47)"/><polyline id="_Path_40" data-name="&lt;Path&gt;" class="cls-3" points="260.5 349.35 218.88 385.55 190.44 410.27"/><path id="_Path_41" data-name="&lt;Path&gt;" class="cls-9" d="M147.44,401.2v9.07h44.84v-.91a3.6,3.6,0,0,0-2.7-3.49l-23.88-6.22a6.66,6.66,0,0,0-3.35,0c-6.37,1.65-10.86.92-13.15.24A1.38,1.38,0,0,0,147.44,401.2Z"/><path id="_Path_42" data-name="&lt;Path&gt;" class="cls-10" d="M147.44,410.27v.07a2.74,2.74,0,0,0,2.74,2.74h40.73a1.38,1.38,0,0,0,1.38-1.38v-1.43Z"/><line id="_Path_43" data-name="&lt;Path&gt;" class="cls-3" x1="250.75" y1="346.82" x2="251.89" y2="343.62"/><line id="_Path_44" data-name="&lt;Path&gt;" class="cls-3" x1="255.63" y1="348.08" x2="256.76" y2="344.88"/><circle id="_Path_45" data-name="&lt;Path&gt;" class="cls-10" cx="167.53" cy="402.64" r="1.52" transform="translate(-264.26 463.77) rotate(-75.47)"/><circle id="_Path_46" data-name="&lt;Path&gt;" class="cls-10" cx="172.41" cy="403.9" r="1.52" transform="translate(-261.83 469.43) rotate(-75.47)"/><circle id="_Path_47" data-name="&lt;Path&gt;" class="cls-10" cx="177.28" cy="405.16" r="1.52" transform="translate(-259.4 475.1) rotate(-75.47)"/><line id="_Path_48" data-name="&lt;Path&gt;" class="cls-3" x1="167.53" y1="402.64" x2="168.67" y2="399.44"/><line id="_Path_49" data-name="&lt;Path&gt;" class="cls-3" x1="172.41" y1="403.9" x2="173.55" y2="400.7"/><line id="_Path_50" data-name="&lt;Path&gt;" class="cls-3" x1="177.28" y1="405.16" x2="178.42" y2="401.96"/><polygon id="_Path_51" data-name="&lt;Path&gt;" class="cls-10" points="187.4 149.29 199.1 165.44 207.23 147.23 201.68 147.81 200.44 135.92 191.72 136.83 192.95 148.71 187.4 149.29"/><polygon id="_Path_52" data-name="&lt;Path&gt;" class="cls-10" points="164.22 151.7 175.92 167.84 184.06 149.64 178.5 150.21 177.27 138.33 168.54 139.23 169.78 151.12 164.22 151.7"/><path id="_Path_53" data-name="&lt;Path&gt;" class="cls-10" d="M159.83,171.7l-1.36-12.27a5,5,0,0,0-4.6-4.47l-1.13-10.23a1.59,1.59,0,0,1,1-1.68c1.65-.59,2.72-1.58,2.61-2.58l-10,1.11c.11,1,1.39,1.74,3.14,1.95a1.59,1.59,0,0,1,1.37,1.41L152,155.16a5,5,0,0,0-3.54,5.38c0,.11,0,.21.07.32l1.33,11.95Z"/><rect id="_Rectangle_18" data-name="&lt;Rectangle&gt;" class="cls-9" x="396.32" y="226.63" width="74.82" height="74.82"/><rect id="_Rectangle_19" data-name="&lt;Rectangle&gt;" class="cls-18" x="390.18" y="177.93" width="48.71" height="48.71"/><path id="_Path_54" data-name="&lt;Path&gt;" class="cls-11" d="M387.6,262.26v-8.58H381.2v8.58a4.18,4.18,0,0,1-1.41,3.06,10.44,10.44,0,0,0-3.12,7.67v25.52a2.94,2.94,0,0,0,2.94,2.94h9.58a2.94,2.94,0,0,0,2.94-2.94V273a10.44,10.44,0,0,0-3.12-7.67A4.18,4.18,0,0,1,387.6,262.26Z"/><rect id="_Rectangle_20" data-name="&lt;Rectangle&gt;" class="cls-23" x="380.49" y="252.44" width="7.83" height="2.48" rx="1.05" ry="1.05"/><path id="_Path_55" data-name="&lt;Path&gt;" class="cls-24" d="M387.68,346.34H379.1v6.41h8.58a4.18,4.18,0,0,1,3.06,1.41,10.44,10.44,0,0,0,7.67,3.12h25.52a2.94,2.94,0,0,0,2.94-2.94v-9.58a2.94,2.94,0,0,0-2.94-2.94H398.41a10.44,10.44,0,0,0-7.67,3.12A4.18,4.18,0,0,1,387.68,346.34Z"/><rect id="_Rectangle_21" data-name="&lt;Rectangle&gt;" class="cls-23" x="375.19" y="348.3" width="7.83" height="2.48" rx="1.05" ry="1.05" transform="translate(29.56 728.64) rotate(-90)"/><path id="_Path_56" data-name="&lt;Path&gt;" class="cls-24" d="M368.58,262.26v-8.58h-6.41v8.58a4.18,4.18,0,0,1-1.41,3.06,10.44,10.44,0,0,0-3.12,7.67v25.52a2.94,2.94,0,0,0,2.94,2.94h9.58a2.94,2.94,0,0,0,2.94-2.94V273a10.44,10.44,0,0,0-3.12-7.67A4.18,4.18,0,0,1,368.58,262.26Z"/><rect id="_Rectangle_22" data-name="&lt;Rectangle&gt;" class="cls-23" x="361.47" y="252.44" width="7.83" height="2.48" rx="1.05" ry="1.05"/><path id="_Path_57" data-name="&lt;Path&gt;" class="cls-19" d="M486.65,290.17v-8.58h-6.41v8.58a4.18,4.18,0,0,1-1.41,3.06,10.44,10.44,0,0,0-3.12,7.67v25.52a2.94,2.94,0,0,0,2.94,2.94h9.58a2.94,2.94,0,0,0,2.94-2.94V300.9a10.44,10.44,0,0,0-3.12-7.67A4.18,4.18,0,0,1,486.65,290.17Z"/><rect id="_Rectangle_23" data-name="&lt;Rectangle&gt;" class="cls-23" x="479.53" y="280.34" width="7.83" height="2.48" rx="1.05" ry="1.05"/><path id="_Path_58" data-name="&lt;Path&gt;" class="cls-11" d="M343.28,375.3h0a6.59,6.59,0,0,1-6.59-6.59V357.27h13.18v11.45A6.59,6.59,0,0,1,343.28,375.3Z"/><path id="_Path_59" data-name="&lt;Path&gt;" class="cls-11" d="M355.13,382.92h0a6.59,6.59,0,0,1-6.59-6.59V357.27h13.18v19.06A6.59,6.59,0,0,1,355.13,382.92Z"/><path id="_Path_60" data-name="&lt;Path&gt;" class="cls-11" d="M370.7,375.3h0a6.59,6.59,0,0,1-6.59-6.59V357.27h13.18v11.45A6.59,6.59,0,0,1,370.7,375.3Z"/><path id="_Path_61" data-name="&lt;Path&gt;" class="cls-11" d="M382.54,368.69h0A6.59,6.59,0,0,1,376,362.1v-4.83h13.18v4.83A6.59,6.59,0,0,1,382.54,368.69Z"/><path id="_Path_62" data-name="&lt;Path&gt;" class="cls-11" d="M372.39,410.83h0a6.59,6.59,0,0,0,6.59-6.59V385.17H365.8v19.06A6.59,6.59,0,0,0,372.39,410.83Z"/><path id="_Path_63" data-name="&lt;Path&gt;" class="cls-11" d="M356.83,403.21h0a6.59,6.59,0,0,0,6.59-6.59V385.17H350.24v11.45A6.59,6.59,0,0,0,356.83,403.21Z"/><rect id="_Rectangle_24" data-name="&lt;Rectangle&gt;" class="cls-11" x="338.08" y="385.17" width="13.18" height="30.53"/><rect id="_Rectangle_25" data-name="&lt;Rectangle&gt;" class="cls-11" x="387.1" y="357.27" width="13.18" height="27.91"/><rect id="_Rectangle_26" data-name="&lt;Rectangle&gt;" class="cls-11" x="331.8" y="390.25" width="13.18" height="58.83" rx="5.6" ry="5.6" transform="translate(758.06 81.28) rotate(90)"/><rect id="_Rectangle_27" data-name="&lt;Rectangle&gt;" class="cls-11" x="332.6" y="412.87" width="13.18" height="37.92" rx="5.6" ry="5.6" transform="translate(771.02 92.65) rotate(90)"/><rect id="_Rectangle_28" data-name="&lt;Rectangle&gt;" class="cls-11" x="293.32" y="419.19" width="13.18" height="25.29" rx="5.6" ry="5.6" transform="translate(731.74 131.92) rotate(90)"/><circle id="_Path_64" data-name="&lt;Path&gt;" class="cls-24" cx="315.16" cy="326.48" r="2.88"/><circle id="_Path_65" data-name="&lt;Path&gt;" class="cls-19" cx="322.73" cy="326.48" r="2.88"/><circle id="_Path_66" data-name="&lt;Path&gt;" class="cls-24" cx="311.68" cy="354.46" r="2.88"/><circle id="_Path_67" data-name="&lt;Path&gt;" class="cls-19" cx="287.31" cy="354.46" r="2.88"/><circle id="_Path_68" data-name="&lt;Path&gt;" class="cls-24" cx="432.03" cy="382.3" r="2.88"/></svg>