<svg id="Layer_1" data-name="Layer 1" xmlns="http://www.w3.org/2000/svg" xmlns:xlink="http://www.w3.org/1999/xlink" viewBox="0 0 708.66 403.48"><defs><style>.cls-1,.cls-10,.cls-17,.cls-21,.cls-8,.cls-9{fill:none;}.cls-2{clip-path:url(#clip-path);}.cls-3{fill:#ffdc83;}.cls-4{fill:#ffe4cc;}.cls-5{fill:#c0e4ed;}.cls-6{fill:#49a579;}.cls-7{fill:#fff;}.cls-10,.cls-21,.cls-8,.cls-9{stroke:#fff;}.cls-10,.cls-17,.cls-21,.cls-8,.cls-9{stroke-miterlimit:10;}.cls-10,.cls-8,.cls-9{stroke-width:0.94px;}.cls-9{stroke-dasharray:4.57 4.57;}.cls-10{stroke-dasharray:4.64 4.64;}.cls-11{fill:#e7685d;}.cls-12{fill:#58595b;}.cls-13{fill:#6d6e71;}.cls-14{fill:#fff9f3;}.cls-15{opacity:0.05;}.cls-16{fill:#a7a9ac;}.cls-17{stroke:#6d6e71;stroke-width:5.88px;}.cls-18{fill:#fc5f51;}.cls-19{fill:#bbbdbf;}.cls-20{fill:#404041;}.cls-21{stroke-linecap:round;stroke-width:3.77px;}.cls-22{fill:#f8ab8d;}.cls-23{fill:#e6e7e8;}.cls-24{fill:#dc4539;}</style><clipPath id="clip-path"><rect id="_Rectangle_" data-name="&lt;Rectangle&gt;" class="cls-1" x="9" y="13.52" width="690.67" height="376.44" rx="75.33" ry="75.33"/></clipPath></defs><title>R-L23-U27</title><g id="_Clip_Group_" data-name="&lt;Clip Group&gt;"><g class="cls-2"><g id="_Group_" data-name="&lt;Group&gt;"><rect id="_Rectangle_2" data-name="&lt;Rectangle&gt;" class="cls-3" x="9" y="13.52" width="690.67" height="376.44" rx="75.33" ry="75.33"/><polygon id="_Path_" data-name="&lt;Path&gt;" class="cls-4" points="585.45 330.68 418.81 314.63 441.03 83.92 575.89 96.91 607.67 99.97 585.45 330.68"/><polygon id="_Path_2" data-name="&lt;Path&gt;" class="cls-5" points="418.19 288.41 258.15 337.54 190.13 115.96 319.65 76.2 350.17 66.83 418.19 288.41"/><g id="_Group_2" data-name="&lt;Group&gt;"><g id="_Rectangle_3" data-name="&lt;Rectangle&gt;"><rect class="cls-5" x="109.81" y="210.69" width="78.14" height="131.96" transform="matrix(0.21, -0.98, 0.98, 0.21, -152.91, 364.02)"/><path class="cls-6" d="M94,226.83l125.33,27L203.72,326.5l-125.33-27L94,226.83m-2.89-4.47L90.36,226,74.71,298.75l-.79,3.68,3.68.79,125.33,27,3.68.79.79-3.68L223,254.59l.79-3.68-3.68-.79-125.33-27-3.68-.79Z"/></g><polygon id="_Path_3" data-name="&lt;Path&gt;" class="cls-6" points="94.04 226.83 78.4 299.54 203.72 326.5 213.87 279.34 193.82 248.3 94.04 226.83"/><polygon id="_Path_4" data-name="&lt;Path&gt;" class="cls-7" points="188.45 306.64 163.05 301.18 171.88 260.16 197.27 265.62 188.45 306.64 188.45 306.64"/><path id="_Path_5" data-name="&lt;Path&gt;" class="cls-7" d="M135.19,257a3.75,3.75,0,1,0-2.88-4.45,3.74,3.74,0,0,0,2.88,4.45Z"/><path id="_Path_6" data-name="&lt;Path&gt;" class="cls-7" d="M141.24,268.62l-1.1-.24-5.71-9.66-15.87-3.42-6.07,6.45a2,2,0,1,0,2.91,2.74l4.53-4.81,7,1.51-6.57,7.2a2.49,2.49,0,0,0-1,1.05l-4.71,9.8-11.38-2.45a2.5,2.5,0,1,0-1.05,4.88L117.51,285l5.43-11.32,4.85,21.75a2.5,2.5,0,0,0,4.88-1.09l-4.91-22,5.87-7.06,4,6.7,2.81.6a2,2,0,0,0,.84-3.91Z"/><polygon id="_Path_7" data-name="&lt;Path&gt;" class="cls-7" points="158.75 272.72 154.71 271.85 157.8 277.13 145.24 274.42 144.94 275.82 144.64 277.21 157.2 279.92 152.22 283.45 156.25 284.32 163.16 279.74 158.75 272.72 158.75 272.72"/><polygon id="_Path_8" data-name="&lt;Path&gt;" class="cls-4" points="213.87 279.34 193.82 248.3 190.88 261.98 188.33 273.84 201.1 276.59 213.87 279.34"/><g id="_Rectangle_4" data-name="&lt;Rectangle&gt;"><polyline class="cls-8" points="204.22 324.2 203.72 326.5 201.42 326.01"/><line class="cls-9" x1="196.95" y1="325.05" x2="82.93" y2="300.51"/><polyline class="cls-8" points="80.7 300.03 78.4 299.54 78.89 297.24"/><line class="cls-10" x1="79.87" y1="292.7" x2="93.06" y2="231.4"/><polyline class="cls-8" points="93.55 229.13 94.04 226.83 96.34 227.33"/><line class="cls-9" x1="100.81" y1="228.29" x2="214.83" y2="252.82"/><polyline class="cls-8" points="217.06 253.3 219.37 253.8 218.87 256.1"/><line class="cls-10" x1="217.89" y1="260.64" x2="204.71" y2="321.93"/></g></g><g id="_Group_3" data-name="&lt;Group&gt;"><g id="_Rectangle_5" data-name="&lt;Rectangle&gt;"><rect class="cls-11" x="93.16" y="80.32" width="78.14" height="131.96" transform="translate(-32.65 254.49) rotate(-81.16)"/><path class="cls-11" d="M74.6,99.71l126.67,19.69-11.42,73.49L63.18,173.2,74.6,99.71m-3.14-4.3-.58,3.72L59.46,172.62l-.58,3.72,3.72.58,126.67,19.69,3.72.58.58-3.72L205,120l.58-3.72-3.72-.58L75.18,96l-3.72-.58Z"/></g><polygon id="_Path_9" data-name="&lt;Path&gt;" class="cls-11" points="74.6 99.71 63.18 173.2 189.85 192.89 197.26 145.22 175.46 115.39 74.6 99.71"/><polygon id="_Path_10" data-name="&lt;Path&gt;" class="cls-7" points="173.45 173.94 147.79 169.95 154.23 128.49 179.9 132.48 173.45 173.94 173.45 173.94"/><path id="_Path_11" data-name="&lt;Path&gt;" class="cls-7" d="M117.42,127.43a3.75,3.75,0,1,0-3.13-4.28,3.74,3.74,0,0,0,3.13,4.28Z"/><path id="_Path_12" data-name="&lt;Path&gt;" class="cls-7" d="M124.13,138.71l-1.11-.17-6.26-9.31-16-2.49L95,133.52a2,2,0,1,0,3.06,2.57l4.24-5.06,7.1,1.1-6.14,7.57a2.49,2.49,0,0,0-.9,1.11l-4.13,10.06-11.5-1.79A2.5,2.5,0,1,0,86,154l15.4,2.39,4.77-11.61,6.1,21.43a2.5,2.5,0,0,0,4.81-1.37l-6.18-21.72,5.46-7.38,4.34,6.46,2.84.44a2,2,0,0,0,.61-3.95Z"/><polygon id="_Path_13" data-name="&lt;Path&gt;" class="cls-7" points="141.85 141.79 137.77 141.16 141.16 146.25 128.47 144.27 128.25 145.69 128.03 147.09 140.72 149.07 135.94 152.89 140.03 153.52 146.66 148.55 141.85 141.79 141.85 141.79"/><g id="_Rectangle_6" data-name="&lt;Rectangle&gt;"><polyline class="cls-8" points="190.21 190.57 189.85 192.89 187.52 192.53"/><line class="cls-9" x1="183" y1="191.83" x2="67.76" y2="173.91"/><polyline class="cls-8" points="65.5 173.56 63.18 173.2 63.54 170.88"/><line class="cls-10" x1="64.25" y1="166.29" x2="73.88" y2="104.33"/><polyline class="cls-8" points="74.24 102.04 74.6 99.71 76.93 100.08"/><line class="cls-9" x1="81.45" y1="100.78" x2="196.69" y2="118.69"/><polyline class="cls-8" points="198.95 119.04 201.27 119.41 200.91 121.73"/><line class="cls-10" x1="200.2" y1="126.32" x2="190.57" y2="188.27"/></g></g><rect id="_Rectangle_7" data-name="&lt;Rectangle&gt;" class="cls-12" x="290.4" y="78.47" width="181.94" height="257.67" rx="8.87" ry="8.87" transform="translate(-7.42 14.27) rotate(-2.12)"/><rect id="_Rectangle_8" data-name="&lt;Rectangle&gt;" class="cls-13" x="307.95" y="95.58" width="146.25" height="207.13" transform="translate(-7.12 14.26) rotate(-2.12)"/><polygon id="_Path_14" data-name="&lt;Path&gt;" class="cls-14" points="467.16 316.85 304.71 321.48 298.31 96.56 429.77 92.82 461.72 126.03 467.16 316.85"/><rect id="_Rectangle_9" data-name="&lt;Rectangle&gt;" class="cls-5" x="307.69" y="146.38" width="144.73" height="7.17" transform="translate(-4.11 10.88) rotate(-1.63)"/><rect id="_Rectangle_10" data-name="&lt;Rectangle&gt;" class="cls-5" x="308.08" y="159.91" width="144.73" height="7.17" transform="translate(-4.5 10.89) rotate(-1.63)"/><polygon id="_Path_15" data-name="&lt;Path&gt;" class="cls-15" points="429.77 92.82 422.83 93.01 423.89 130.18 461.81 129.1 461.72 126.03 429.77 92.82"/><polygon id="_Path_16" data-name="&lt;Path&gt;" class="cls-5" points="429.67 92.82 430.64 126.91 461.72 126.03 429.67 92.82"/><rect id="_Rectangle_11" data-name="&lt;Rectangle&gt;" class="cls-5" x="306.65" y="120.1" width="90.83" height="7.17" transform="translate(-3.38 10.07) rotate(-1.63)"/><rect id="_Rectangle_12" data-name="&lt;Rectangle&gt;" class="cls-5" x="307.03" y="133.29" width="114.69" height="7.17" transform="translate(-3.75 10.43) rotate(-1.63)"/><path id="_Rectangle_13" data-name="&lt;Rectangle&gt;" class="cls-16" d="M325.57,71.13H428.5a0,0,0,0,1,0,0v0a38.3,38.3,0,0,1-38.3,38.3H363.87a38.3,38.3,0,0,1-38.3-38.3v0a0,0,0,0,1,0,0Z" transform="translate(-3.09 14.03) rotate(-2.12)"/><path id="_Path_17" data-name="&lt;Path&gt;" class="cls-17" d="M408.31,84.92l-.24-6.42a17,17,0,0,0-17.59-16.33l-28.92,1.07a17,17,0,0,0-16.33,17.59l.24,6.42"/><g id="_Group_4" data-name="&lt;Group&gt;"><rect id="_Rectangle_14" data-name="&lt;Rectangle&gt;" class="cls-18" x="422.29" y="230.8" width="8.71" height="36.28" transform="translate(270.76 -219.78) rotate(41.34)"/><rect id="_Rectangle_15" data-name="&lt;Rectangle&gt;" class="cls-18" x="422.29" y="230.8" width="8.71" height="36.28" transform="translate(895.37 93.05) rotate(131.34)"/></g><rect id="_Rectangle_16" data-name="&lt;Rectangle&gt;" class="cls-5" x="313.7" y="196.75" width="90.83" height="7.17" transform="matrix(1, -0.04, 0.04, 1, -8.14, 15.34)"/><rect id="_Rectangle_17" data-name="&lt;Rectangle&gt;" class="cls-5" x="314.39" y="246.94" width="90.83" height="7.17" transform="matrix(1, -0.04, 0.04, 1, -10.26, 15.41)"/><rect id="_Rectangle_18" data-name="&lt;Rectangle&gt;" class="cls-5" x="315.08" y="297.14" width="90.83" height="7.17" transform="translate(-12.37 15.49) rotate(-2.42)"/><rect id="_Rectangle_19" data-name="&lt;Rectangle&gt;" class="cls-5" x="313.72" y="213.07" width="45.42" height="7.17" transform="translate(-8.85 14.4) rotate(-2.42)"/><rect id="_Rectangle_20" data-name="&lt;Rectangle&gt;" class="cls-5" x="314.4" y="261.45" width="72.75" height="7.17" transform="translate(-10.88 15.04) rotate(-2.42)"/><rect id="_Rectangle_21" data-name="&lt;Rectangle&gt;" class="cls-5" x="314.42" y="275.98" width="39.78" height="7.17" transform="translate(-11.5 14.36) rotate(-2.42)"/><g id="_Group_5" data-name="&lt;Group&gt;" class="cls-15"><path id="_Path_18" data-name="&lt;Path&gt;" d="M619,222.62l-67.18-77.18A18.87,18.87,0,0,0,537.45,139l-58,.46a11.21,11.21,0,0,0-9.71,5.76l-29.79,53.58c-3.53,6.83-2.27,15.47,4.85,18.37h0a13.08,13.08,0,0,0,16.65-6.28l20.4-33.47a7.71,7.71,0,0,1,7-3.69l34.86,1.74-12.7,46.4-1.07,8,70.91,40.63Z"/><rect id="_Rectangle_22" data-name="&lt;Rectangle&gt;" x="634.66" y="212.08" width="76.54" height="189.03" transform="translate(12.52 639.3) rotate(-51.23)"/><circle id="_Path_19" data-name="&lt;Path&gt;" cx="594.5" cy="274.79" r="6.49" transform="translate(8 566.26) rotate(-51.23)"/><g id="_Group_6" data-name="&lt;Group&gt;"><rect id="_Rectangle_23" data-name="&lt;Rectangle&gt;" x="427.59" y="229.58" width="19.55" height="8.07" transform="translate(393.64 -260.3) rotate(56.83)"/><rect id="_Rectangle_24" data-name="&lt;Rectangle&gt;" x="493.07" y="113.61" width="21.79" height="152.98" rx="3" ry="3" transform="translate(387.37 -335.76) rotate(56.83)"/><path id="_Rectangle_25" data-name="&lt;Rectangle&gt;" d="M572.51,136.11h11.79a5,5,0,0,1,5,5v5.66a0,0,0,0,1,0,0H567.51a0,0,0,0,1,0,0v-5.66A5,5,0,0,1,572.51,136.11Z" transform="translate(380.36 -420.1) rotate(56.83)"/><polygon id="_Path_20" data-name="&lt;Path&gt;" points="428.67 227.63 439.37 243.99 414.91 248.3 428.67 227.63"/><rect id="_Rectangle_26" data-name="&lt;Rectangle&gt;" x="563.08" y="142.75" width="15.76" height="7.11" transform="translate(381.06 -411.68) rotate(56.83)"/><rect id="_Rectangle_27" data-name="&lt;Rectangle&gt;" x="495.35" y="184.6" width="23.18" height="7.11" transform="translate(387.09 -339.13) rotate(56.83)"/><polygon id="_Path_21" data-name="&lt;Path&gt;" points="418.03 243.61 420.46 247.32 414.91 248.3 418.03 243.61"/></g><path id="_Path_22" data-name="&lt;Path&gt;" d="M466.32,214.28h0A14.26,14.26,0,0,1,484.51,207l85.25,28.45c7.84,3.08,13.66,12.48,10.12,21.7-4.69,12.22-17.91,12.17-25.31,9.16l-80.72-32.85A14.26,14.26,0,0,1,466.32,214.28Z"/></g><rect id="_Rectangle_28" data-name="&lt;Rectangle&gt;" class="cls-6" x="414.46" y="187.75" width="8.71" height="23.53" transform="translate(842.89 11.46) rotate(130.61)"/><rect id="_Rectangle_29" data-name="&lt;Rectangle&gt;" class="cls-6" x="429.06" y="175.73" width="8.71" height="36.28" transform="translate(230.6 -235.43) rotate(40.61)"/><rect id="_Rectangle_30" data-name="&lt;Rectangle&gt;" class="cls-6" x="417.25" y="283.5" width="8.71" height="23.53" transform="translate(920.18 167.42) rotate(130.61)"/><rect id="_Rectangle_31" data-name="&lt;Rectangle&gt;" class="cls-6" x="431.85" y="271.48" width="8.71" height="36.28" transform="translate(293.6 -214.18) rotate(40.61)"/><g id="_Group_7" data-name="&lt;Group&gt;"><rect id="_Rectangle_32" data-name="&lt;Rectangle&gt;" class="cls-12" x="238.13" y="281.21" width="19.55" height="8.07" transform="translate(148.97 -79.49) rotate(25.82)"/><rect id="_Rectangle_33" data-name="&lt;Rectangle&gt;" class="cls-6" x="271.66" y="137.14" width="21.79" height="152.98" rx="3" ry="3" transform="translate(121.24 -101.73) rotate(25.82)"/><path id="_Rectangle_34" data-name="&lt;Rectangle&gt;" class="cls-6" d="M315.38,128.25h11.79a5,5,0,0,1,5,5v5.66a0,0,0,0,1,0,0H310.38a0,0,0,0,1,0,0v-5.66A5,5,0,0,1,315.38,128.25Z" transform="translate(90.24 -126.58) rotate(25.82)"/><polygon id="_Path_23" data-name="&lt;Path&gt;" class="cls-19" points="237.36 284.59 254.96 293.11 236.22 309.4 237.36 284.59"/><rect id="_Rectangle_35" data-name="&lt;Rectangle&gt;" class="cls-12" x="309.53" y="138.02" width="15.76" height="7.11" transform="translate(93.34 -124.1) rotate(25.82)"/><rect id="_Rectangle_36" data-name="&lt;Rectangle&gt;" class="cls-12" x="272.51" y="206.88" width="23.18" height="7.11" transform="translate(120 -102.72) rotate(25.82)"/><polygon id="_Path_24" data-name="&lt;Path&gt;" class="cls-20" points="236.48 303.77 240.47 305.7 236.22 309.4 236.48 303.77"/></g><path id="_Path_25" data-name="&lt;Path&gt;" class="cls-21" d="M347.31,99.86a30.85,30.85,0,0,1-14.6-22.91"/><path id="_Path_26" data-name="&lt;Path&gt;" class="cls-21" d="M366.44,104.1a30.74,30.74,0,0,1-8.57-.27"/><path id="_Path_27" data-name="&lt;Path&gt;" class="cls-22" d="M619,213.2,551.83,136a18.87,18.87,0,0,0-14.38-6.48l-58,.46a11.21,11.21,0,0,0-9.71,5.76l-29.79,53.58c-3.53,6.83-2.27,15.47,4.85,18.37h0a13.08,13.08,0,0,0,16.65-6.28L481.8,168a7.71,7.71,0,0,1,7-3.69L523.63,166l-12.7,46.4-1.07,8L580.77,261Z"/><rect id="_Rectangle_37" data-name="&lt;Rectangle&gt;" class="cls-23" x="634.66" y="202.66" width="76.54" height="189.03" transform="translate(19.86 635.78) rotate(-51.23)"/><circle id="_Path_28" data-name="&lt;Path&gt;" class="cls-12" cx="594.5" cy="265.38" r="6.49" transform="translate(15.34 562.74) rotate(-51.23)"/><g id="_Group_8" data-name="&lt;Group&gt;"><rect id="_Rectangle_38" data-name="&lt;Rectangle&gt;" class="cls-12" x="427.59" y="220.17" width="19.55" height="8.07" transform="translate(385.76 -264.56) rotate(56.83)"/><rect id="_Rectangle_39" data-name="&lt;Rectangle&gt;" class="cls-24" x="493.07" y="104.19" width="21.79" height="152.98" rx="3" ry="3" transform="translate(379.49 -340.02) rotate(56.83)"/><path id="_Rectangle_40" data-name="&lt;Rectangle&gt;" class="cls-24" d="M572.51,126.7h11.79a5,5,0,0,1,5,5v5.66a0,0,0,0,1,0,0H567.51a0,0,0,0,1,0,0V131.7a5,5,0,0,1,5-5Z" transform="translate(372.48 -424.37) rotate(56.83)"/><polygon id="_Path_29" data-name="&lt;Path&gt;" class="cls-19" points="428.67 218.21 439.37 234.57 414.91 238.88 428.67 218.21"/><rect id="_Rectangle_41" data-name="&lt;Rectangle&gt;" class="cls-12" x="563.08" y="133.33" width="15.76" height="7.11" transform="translate(373.18 -415.94) rotate(56.83)"/><rect id="_Rectangle_42" data-name="&lt;Rectangle&gt;" class="cls-12" x="495.35" y="175.18" width="23.18" height="7.11" transform="translate(379.21 -343.39) rotate(56.83)"/><polygon id="_Path_30" data-name="&lt;Path&gt;" class="cls-20" points="418.03 234.19 420.46 237.9 414.91 238.88 418.03 234.19"/></g><path id="_Path_31" data-name="&lt;Path&gt;" class="cls-22" d="M466.32,204.87h0a14.26,14.26,0,0,1,18.19-7.31L569.76,226c7.84,3.08,13.66,12.48,10.12,21.7-4.69,12.22-17.91,12.17-25.31,9.16L473.85,224A14.26,14.26,0,0,1,466.32,204.87Z"/><g id="_Group_9" data-name="&lt;Group&gt;" class="cls-15"><rect id="_Rectangle_43" data-name="&lt;Rectangle&gt;" x="107.8" y="182.55" width="63.01" height="45.99" transform="translate(96.77 450.19) rotate(-136.01)"/><rect id="_Rectangle_44" data-name="&lt;Rectangle&gt;" x="16.1" y="170.73" width="73.8" height="248.45" transform="translate(-113.73 543.97) rotate(-136.01)"/><circle id="_Path_32" data-name="&lt;Path&gt;" cx="147.14" cy="231.19" r="6.26" transform="translate(-121.39 176.48) rotate(-46.01)"/><path id="_Rectangle_45" data-name="&lt;Rectangle&gt;" d="M145,119.24h67.43a12,12,0,0,1,12,12v67.38a12,12,0,0,1-12,12h-62A17.42,17.42,0,0,1,133,193.19v-62a12,12,0,0,1,12-12Z" transform="translate(164.91 -77.88) rotate(44.04)"/><rect id="_Rectangle_46" data-name="&lt;Rectangle&gt;" x="192.65" y="43.99" width="18.11" height="88.89" rx="9.06" ry="9.06" transform="translate(118.19 -115.36) rotate(44.04)"/><rect id="_Rectangle_47" data-name="&lt;Rectangle&gt;" x="247.77" y="82.68" width="20.83" height="102.21" rx="10.41" ry="10.41" transform="translate(165.6 -141.86) rotate(44.04)"/><rect id="_Rectangle_48" data-name="&lt;Rectangle&gt;" x="237.37" y="52.95" width="20.83" height="112.87" rx="10.41" ry="10.41" transform="translate(145.71 -141.5) rotate(44.04)"/><rect id="_Rectangle_49" data-name="&lt;Rectangle&gt;" x="216.06" y="39.29" width="20.83" height="112.87" rx="10.41" ry="10.41" transform="translate(130.22 -130.53) rotate(44.04)"/><path id="_Path_33" data-name="&lt;Path&gt;" d="M280.11,190.94h0A13.75,13.75,0,0,1,269,206.21l-84.27,20.22c-8,1.48-17.54-3.25-19.35-12.59-2.4-12.4,8.45-19.1,16-20.41l82.81-14.3A13.75,13.75,0,0,1,280.11,190.94Z"/></g><rect id="_Rectangle_50" data-name="&lt;Rectangle&gt;" class="cls-22" x="108.43" y="173.16" width="63.01" height="45.99" transform="translate(104.37 434.47) rotate(-136.01)"/><rect id="_Rectangle_51" data-name="&lt;Rectangle&gt;" class="cls-23" x="16.73" y="161.33" width="73.8" height="248.45" transform="translate(-106.12 528.25) rotate(-136.01)"/><circle id="_Path_34" data-name="&lt;Path&gt;" class="cls-12" cx="147.76" cy="221.8" r="6.26" transform="translate(-114.44 174.06) rotate(-46.01)"/><path id="_Rectangle_52" data-name="&lt;Rectangle&gt;" class="cls-22" d="M145.65,109.84h67.43a12,12,0,0,1,12,12v67.38a12,12,0,0,1-12,12h-62a17.42,17.42,0,0,1-17.42-17.42v-62a12,12,0,0,1,12-12Z" transform="translate(158.55 -80.96) rotate(44.04)"/><rect id="_Rectangle_53" data-name="&lt;Rectangle&gt;" class="cls-22" x="193.28" y="34.6" width="18.11" height="88.89" rx="9.06" ry="9.06" transform="translate(111.84 -118.44) rotate(44.04)"/><rect id="_Rectangle_54" data-name="&lt;Rectangle&gt;" class="cls-22" x="248.39" y="73.29" width="20.83" height="102.21" rx="10.41" ry="10.41" transform="translate(159.24 -144.94) rotate(44.04)"/><rect id="_Rectangle_55" data-name="&lt;Rectangle&gt;" class="cls-22" x="238" y="43.55" width="20.83" height="112.87" rx="10.41" ry="10.41" transform="translate(139.36 -144.58) rotate(44.04)"/><rect id="_Rectangle_56" data-name="&lt;Rectangle&gt;" class="cls-22" x="216.69" y="29.89" width="20.83" height="112.87" rx="10.41" ry="10.41" transform="translate(123.87 -133.61) rotate(44.04)"/><path id="_Path_35" data-name="&lt;Path&gt;" class="cls-22" d="M280.74,181.55h0a13.75,13.75,0,0,1-11.16,15.26L185.32,217c-8,1.48-17.54-3.25-19.35-12.59-2.4-12.4,8.45-19.1,16-20.41l82.81-14.3A13.75,13.75,0,0,1,280.74,181.55Z"/></g></g></g></svg>