
<svg width="24px" height="24px" viewBox="0 0 24 24" version="1.1" xmlns="http://www.w3.org/2000/svg" xmlns:xlink="http://www.w3.org/1999/xlink">
    <defs>
        <radialGradient cx="29.2907089%" cy="107.742086%" fx="29.2907089%" fy="107.742086%" r="132.514875%" id="radialGradient-1">
            <stop stop-color="#FFD87A" offset="9.69388%"></stop>
            <stop stop-color="#FCCE78" offset="14.26%"></stop>
            <stop stop-color="#F5B471" offset="22.63%"></stop>
            <stop stop-color="#EB8D65" offset="33.78%"></stop>
            <stop stop-color="#E36058" offset="44.9%"></stop>
            <stop stop-color="#CD3694" offset="67.86%"></stop>
            <stop stop-color="#6668B0" offset="100%"></stop>
        </radialGradient>
    </defs>
    <g id="Super-Admin-Cards" stroke="none" stroke-width="1" fill="none" fill-rule="evenodd">
        <g id="Learner" transform="translate(-893.000000, -462.000000)" fill-rule="nonzero">
            <g id="Large-List-View-Row---Hover" transform="translate(23.000000, 44.000000)">
                <g id="Group-2" transform="translate(870.000000, 20.000000)">
                    <g id="iconfinder_25_social_2609558" transform="translate(12.000000, 410.000000) scale(1, -1) translate(-12.000000, -410.000000) translate(0.000000, 398.000000)">
                        <path d="M24,18.5203125 C24,21.5484375 21.5484375,24 18.5203125,24 L5.4796875,24 C2.4515625,24 0,21.5484375 0,18.5203125 L0,5.484375 C0,2.45625 2.45625,0 5.484375,0 L18.4359375,0 C21.5109375,0 24,2.4890625 24,5.5640625 L24,18.5203125 Z" id="Path" fill="url(#radialGradient-1)"></path>
                        <g id="Group" transform="translate(4.000000, 4.000000)" fill="#FFFFFF">
                            <path d="M11.7537634,0.0274193548 L5.24623656,0.0274193548 C2.36263441,0.0274193548 0.0228494624,2.3672043 0.0228494624,5.25080645 L0.0228494624,11.7537634 C0.0228494624,14.6373656 2.35806452,16.9725806 5.24623656,16.9725806 L11.7491935,16.9725806 C14.6327957,16.9725806 16.9680108,14.6373656 16.9680108,11.7537634 L16.9680108,5.25080645 C16.9725806,2.36263441 14.6373656,0.0274193548 11.7537634,0.0274193548 Z M15.3456989,11.1276882 C15.3456989,13.4583333 13.4583333,15.3456989 11.1276882,15.3456989 L5.87231183,15.3456989 C3.54166667,15.3456989 1.65430108,13.4583333 1.65430108,11.1276882 L1.65430108,5.87231183 C1.65430108,3.54166667 3.54166667,1.65430108 5.87231183,1.65430108 L11.1276882,1.65430108 C13.4583333,1.65430108 15.3456989,3.54623656 15.3456989,5.87231183 L15.3456989,11.1276882 Z" id="Shape"></path>
                            <path d="M8.72849462,4.0672043 C6.26075269,4.0672043 4.26370968,6.06424731 4.26370968,8.53198925 C4.26370968,10.9951613 6.26075269,12.9967742 8.72849462,12.9967742 C11.1916667,12.9967742 13.1932796,10.9997312 13.1932796,8.53198925 C13.1887097,6.06424731 11.1916667,4.0672043 8.72849462,4.0672043 Z M8.72849462,11.2145161 C7.24327957,11.2145161 6.04139785,10.0126344 6.04139785,8.52741935 C6.04139785,7.0422043 7.24327957,5.84032258 8.72849462,5.84032258 C10.2091398,5.84032258 11.4155914,7.0422043 11.4155914,8.52741935 C11.4110215,10.0126344 10.2091398,11.2145161 8.72849462,11.2145161 Z" id="Shape"></path>
                            <path d="M14.0158602,3.99865591 C14.0158602,4.62473118 13.5086022,5.13198925 12.8825269,5.13198925 C12.2564516,5.13198925 11.7491935,4.62473118 11.7491935,3.99865591 C11.7491935,3.37258065 12.2564516,2.86075269 12.8825269,2.86075269 C13.5086022,2.86075269 14.0158602,3.36801075 14.0158602,3.99865591 Z" id="Path"></path>
                        </g>
                    </g>
                </g>
            </g>
        </g>
    </g>
</svg>